<svg width="24" height="24" viewBox="0 0 24 24" fill="none" xmlns="http://www.w3.org/2000/svg">
<path d="M5 13.1707C3.83481 13.5825 3 14.6938 3 16C3 17.3062 3.83481 18.4175 5 18.8293V20C5 20.5523 5.44771 21 6 21C6.55228 21 7 20.5523 7 20V18.8293C8.16519 18.4175 9 17.3062 9 16C9 14.6938 8.16519 13.5825 7 13.1707V4C7 3.44772 6.55228 3 6 3C5.44771 3 5 3.44772 5 4V13.1707Z" fill="#111928"/>
<path d="M11 20V10.8293C9.83481 10.4175 9 9.30622 9 8C9 6.69378 9.83481 5.58254 11 5.17071L11 4C11 3.44772 11.4477 3 12 3C12.5523 3 13 3.44772 13 4V5.17071C14.1652 5.58254 15 6.69378 15 8C15 9.30622 14.1652 10.4175 13 10.8293V20C13 20.5523 12.5523 21 12 21C11.4477 21 11 20.5523 11 20Z" fill="#111928"/>
<path d="M17 18.8293V20C17 20.5523 17.4477 21 18 21C18.5523 21 19 20.5523 19 20V18.8293C20.1652 18.4175 21 17.3062 21 16C21 14.6938 20.1652 13.5825 19 13.1707V4C19 3.44772 18.5523 3 18 3C17.4477 3 17 3.44772 17 4V13.1707C15.8348 13.5825 15 14.6938 15 16C15 17.3062 15.8348 18.4175 17 18.8293Z" fill="#111928"/>
</svg>
