<svg width="24" height="24" viewBox="0 0 24 24" fill="none" xmlns="http://www.w3.org/2000/svg">
<path d="M6.94318 11H6.09091L7.05114 8.09091H8.13068L9.09091 11H8.23864L7.60227 8.89205H7.57955L6.94318 11ZM6.78409 9.85227H8.38636V10.4432H6.78409V9.85227Z" fill="#111928"/>
<path d="M9.37109 11V8.09091H10.6268C10.8427 8.09091 11.0316 8.13352 11.1935 8.21875C11.3555 8.30398 11.4814 8.42377 11.5714 8.57812C11.6613 8.73248 11.7063 8.91288 11.7063 9.11932C11.7063 9.32765 11.6599 9.50805 11.5671 9.66051C11.4753 9.81297 11.346 9.9304 11.1793 10.0128C11.0136 10.0952 10.82 10.1364 10.5984 10.1364H9.84837V9.52273H10.4393C10.5321 9.52273 10.6112 9.50663 10.6765 9.47443C10.7428 9.44129 10.7934 9.39441 10.8285 9.33381C10.8645 9.2732 10.8825 9.2017 10.8825 9.11932C10.8825 9.03598 10.8645 8.96496 10.8285 8.90625C10.7934 8.84659 10.7428 8.80114 10.6765 8.76989C10.6112 8.73769 10.5321 8.72159 10.4393 8.72159H10.1609V11H9.37109Z" fill="#111928"/>
<path d="M12.7859 8.09091V11H11.9961V8.09091H12.7859Z" fill="#111928"/>
<path d="M10.9775 2C11.5297 2.00014 11.9775 2.4478 11.9775 3V3.72949C12.0379 3.75294 12.0978 3.77753 12.1572 3.80273L12.7109 3.26465L12.7861 3.19824C13.1755 2.88803 13.7414 2.91018 14.1055 3.26465L15.9863 5.0957C16.1795 5.28393 16.2881 5.54276 16.2881 5.8125C16.288 6.08206 16.1794 6.3402 15.9863 6.52832L15.457 7.04297C15.4769 7.08823 15.4959 7.13386 15.5146 7.17969H16.2959C16.848 7.17993 17.2959 7.62755 17.2959 8.17969V10.7695C17.2959 11.3217 16.848 11.7693 16.2959 11.7695H15.5146C15.4983 11.8095 15.4811 11.8491 15.4639 11.8887L21.6816 17.6738C21.8819 17.8602 21.9968 18.1209 22 18.3945C22.0031 18.6683 21.8934 18.9321 21.6973 19.123L21.457 19.3574C20.2922 20.4919 18.4354 20.4918 17.2705 19.3574L16.7754 18.875H16.0908C15.5386 18.875 15.0908 18.4273 15.0908 17.875V17.8125H15C14.4477 17.8125 14 17.3648 14 16.8125V16.75H13.9092C13.3569 16.75 12.9092 16.3023 12.9092 15.75V15.3154L12.3643 15.0537C12.2376 15.1128 12.1087 15.1678 11.9775 15.2188V15.9492C11.9775 16.5014 11.5297 16.9491 10.9775 16.9492H8.31836C7.76607 16.9492 7.31836 16.5015 7.31836 15.9492V15.2188C7.25739 15.1951 7.19674 15.171 7.13672 15.1455L6.58496 15.6846C6.19668 16.0627 5.57773 16.0627 5.18945 15.6846L3.30957 13.8535C3.1163 13.6653 3.00684 13.4065 3.00684 13.1367C3.00696 12.8671 3.11641 12.609 3.30957 12.4209L3.83789 11.9053C3.81824 11.8604 3.79984 11.815 3.78125 11.7695H3C2.44772 11.7695 2 11.3218 2 10.7695V8.17969C2 7.6274 2.44772 7.17969 3 7.17969H3.78125C3.79995 7.13398 3.81812 7.08812 3.83789 7.04297L3.30957 6.52832C3.11641 6.34019 3.00697 6.08212 3.00684 5.8125C3.00684 5.54271 3.1163 5.28394 3.30957 5.0957L5.18945 3.26465L5.26465 3.19824C5.654 2.88776 6.22085 2.91002 6.58496 3.26465L7.13672 3.80273C7.19674 3.77729 7.2574 3.75315 7.31836 3.72949V3C7.31836 2.44772 7.76607 2 8.31836 2H10.9775Z" stroke="#111928" stroke-width="2" stroke-linejoin="round"/>
</svg>
