<svg width="24" height="24" viewBox="0 0 24 24" fill="none" xmlns="http://www.w3.org/2000/svg">
<path fill-rule="evenodd" clip-rule="evenodd" d="M14.0935 4.07049C13.7016 4.13963 13.4098 4.27098 13.226 4.46584C13.0013 4.70415 12.8446 5.05146 12.7494 5.46488C12.7469 5.47591 12.7444 5.48694 12.742 5.49796C13.1048 5.44126 13.414 5.32143 13.711 5.06828C13.8865 4.91862 14.0227 4.64204 14.0925 4.2056C14.1 4.15915 14.1064 4.11304 14.1119 4.0673C14.1058 4.06834 14.0997 4.06941 14.0935 4.07049ZM15.0524 2.01283C15.0865 2.01312 15.1164 2.01337 15.1419 2.01337H16.1419V3.01337C16.1419 3.04889 16.1425 3.09275 16.1432 3.14375C16.1472 3.4402 16.1545 3.97788 16.0674 4.52173C15.9656 5.15757 15.7107 5.99172 15.0084 6.59034C13.8735 7.55771 12.5881 7.55253 11.7709 7.54924C11.7249 7.54906 11.6805 7.54888 11.6376 7.54888H10.6376V6.54888C10.6376 6.19898 10.6591 5.63006 10.8004 5.01618C10.9402 4.40874 11.214 3.68437 11.771 3.0937C12.369 2.45957 13.1407 2.20772 13.746 2.10091C14.2818 2.00637 14.789 2.01062 15.0524 2.01283ZM9.97337 10.38C9.60064 10.1886 9.0649 9.96567 7.82471 10.0044C7.40384 10.0176 6.89356 10.2921 6.49746 11.0088C6.10409 11.7205 5.8749 12.8065 6.07157 14.1703C6.19486 15.0254 6.63892 16.5988 7.289 17.9431C7.61372 18.6145 7.96351 19.173 8.30924 19.5484C8.67006 19.9402 8.89997 20 8.99163 20C9.81855 20 10.1711 19.8335 10.4133 19.6995C10.4454 19.6818 10.4843 19.6579 10.5297 19.63C10.8033 19.4622 11.3138 19.1492 11.9999 19.1492C12.701 19.1492 13.2051 19.4836 13.4494 19.6457C13.4901 19.6726 13.5235 19.6948 13.5495 19.7099C13.7498 19.8263 14.0922 20 15.0082 20C15.1555 20 15.4059 19.9193 15.7582 19.5427C16.1042 19.1728 16.4471 18.6209 16.7617 17.9525C17.3903 16.6171 17.8026 15.0415 17.9283 14.1703C18.1249 12.8065 17.8957 11.7205 17.5024 11.0088C17.1063 10.2921 16.596 10.0176 16.1751 10.0044C14.9349 9.96567 14.3992 10.1886 14.0265 10.38C13.9665 10.4108 13.9004 10.4481 13.8276 10.4892C13.4347 10.7109 12.848 11.0419 11.9999 11.0419C11.1518 11.0419 10.5652 10.7109 10.1722 10.4892C10.0994 10.4481 10.0333 10.4108 9.97337 10.38ZM11.2736 8.8064C11.6025 8.98535 11.7065 9.04195 11.9999 9.04195C12.2933 9.04195 12.3973 8.98535 12.7262 8.8064C12.8289 8.75051 12.9536 8.68268 13.1128 8.60092C13.7925 8.25185 14.6648 7.95625 16.2376 8.0054C17.5473 8.04633 18.6147 8.88691 19.2528 10.0413C19.8936 11.2007 20.1549 12.7418 19.9078 14.4558C19.7558 15.5096 19.2899 17.2775 18.5713 18.8043C18.2123 19.567 17.7643 20.3259 17.2187 20.9091C16.6794 21.4855 15.9375 22 15.0082 22C13.771 22 13.0766 21.7483 12.5447 21.4392C12.1326 21.1997 12.0979 21.1563 12.0572 21.1496C12.0435 21.1473 12.0292 21.1492 11.9999 21.1492C11.9691 21.1492 11.9485 21.1491 11.9286 21.1527C11.8611 21.1647 11.8009 21.2175 11.3814 21.4496C10.8545 21.7411 10.1702 22 8.99163 22C8.08053 22 7.35502 21.4646 6.83811 20.9033C6.3061 20.3257 5.85583 19.5734 5.48848 18.8138C4.75443 17.2958 4.24634 15.5258 4.09204 14.4558C3.84488 12.7418 4.10625 11.2007 4.74703 10.0413C5.38509 8.88691 6.45256 8.04633 7.76224 8.0054C9.33499 7.95625 10.2074 8.25185 10.8871 8.60092C11.0463 8.68268 11.1709 8.75051 11.2736 8.8064Z" fill="#383838"/>
</svg>
