<svg width="24" height="24" viewBox="0 0 24 24" fill="none" xmlns="http://www.w3.org/2000/svg">
<path d="M15.0524 2.01283C14.789 2.01062 14.2818 2.00637 13.746 2.10091C13.1407 2.20772 12.369 2.45957 11.771 3.0937C11.214 3.68437 10.9402 4.40874 10.8004 5.01618C10.6591 5.63006 10.6376 6.19898 10.6376 6.54888V7.54888H11.6376C11.6805 7.54888 11.7249 7.54906 11.7709 7.54924C12.5881 7.55253 13.8735 7.55771 15.0084 6.59034C15.7107 5.99172 15.9656 5.15757 16.0674 4.52173C16.1545 3.97788 16.1472 3.4402 16.1432 3.14375C16.1425 3.09275 16.1419 3.04889 16.1419 3.01337V2.01337H15.1419C15.1164 2.01337 15.0865 2.01312 15.0524 2.01283Z" fill="#383838"/>
<path d="M11.9999 9.04195C11.7065 9.04195 11.6025 8.98535 11.2736 8.8064C11.1709 8.75051 11.0463 8.68268 10.8871 8.60092C10.2074 8.25185 9.33499 7.95625 7.76224 8.0054C6.45256 8.04633 5.38509 8.88691 4.74703 10.0413C4.10625 11.2007 3.84488 12.7418 4.09204 14.4558C4.24634 15.5258 4.75443 17.2958 5.48848 18.8138C5.85583 19.5734 6.3061 20.3257 6.83811 20.9033C7.35502 21.4646 8.08053 22 8.99163 22C10.1702 22 10.8545 21.7411 11.3814 21.4496C11.5477 21.3576 11.6575 21.2938 11.7337 21.2495C11.8498 21.1821 11.8879 21.16 11.9286 21.1527C11.9484 21.1492 11.9689 21.1492 11.9994 21.1492C12.0099 21.1492 12.0189 21.1489 12.0262 21.1487C12.0394 21.1484 12.0484 21.1481 12.0572 21.1496C12.0765 21.1528 12.0945 21.1642 12.1522 21.201C12.216 21.2418 12.3283 21.3135 12.5447 21.4392C13.0766 21.7483 13.771 22 15.0082 22C15.9375 22 16.6794 21.4855 17.2187 20.9091C17.7643 20.3259 18.2123 19.567 18.5713 18.8043C19.2899 17.2775 19.7558 15.5096 19.9078 14.4558C20.1549 12.7418 19.8936 11.2007 19.2528 10.0413C18.6147 8.88691 17.5473 8.04633 16.2376 8.0054C14.6648 7.95625 13.7925 8.25185 13.1128 8.60092C12.9536 8.68268 12.8289 8.75051 12.7262 8.8064C12.3973 8.98535 12.2933 9.04195 11.9999 9.04195Z" fill="#383838"/>
</svg>
