<svg width="24" height="24" viewBox="0 0 24 24" fill="none" xmlns="http://www.w3.org/2000/svg">
<path d="M10.9998 8.99994C10.9998 8.44765 11.4475 7.99994 11.9998 7.99994C12.5521 7.99994 12.9998 8.44765 12.9998 8.99994C12.9998 9.55222 12.5521 9.99994 11.9998 9.99994C11.4475 9.99994 10.9998 9.55222 10.9998 8.99994Z" fill="#111928"/>
<path fill-rule="evenodd" clip-rule="evenodd" d="M9.89553 3.05104C10.9691 1.69165 13.0306 1.69165 14.1041 3.05104C14.2508 3.23676 14.4834 3.33308 14.7184 3.30547C16.4388 3.10335 17.8965 4.56105 17.6943 6.28141C17.6667 6.51645 17.763 6.74898 17.9488 6.89566C19.3082 7.96921 19.3082 10.0307 17.9488 11.1043C17.763 11.2509 17.6667 11.4835 17.6943 11.7185C17.8965 13.4389 16.4388 14.8966 14.7184 14.6945C14.4834 14.6668 14.2508 14.7632 14.1041 14.9489C13.0306 16.3083 10.9691 16.3083 9.89553 14.9489C9.74886 14.7632 9.51632 14.6668 9.28128 14.6945C7.56093 14.8966 6.10323 13.4389 6.30534 11.7185C6.33296 11.4835 6.23664 11.2509 6.05091 11.1043C4.69152 10.0307 4.69152 7.96921 6.05091 6.89566C6.23664 6.74898 6.33296 6.51645 6.30534 6.28141C6.10323 4.56105 7.56093 3.10335 9.28128 3.30547C9.51632 3.33308 9.74886 3.23676 9.89553 3.05104ZM11.9998 5.99994C10.343 5.99994 8.99982 7.34308 8.99982 8.99994C8.99982 10.6568 10.343 11.9999 11.9998 11.9999C13.6567 11.9999 14.9998 10.6568 14.9998 8.99994C14.9998 7.34308 13.6567 5.99994 11.9998 5.99994Z" fill="#111928"/>
<path d="M5.39447 15.0553L4.06966 18.9989C3.94891 19.3584 4.04186 19.7552 4.30968 20.0237C4.57751 20.2921 4.97412 20.386 5.33386 20.266L7.28329 19.6162L8.42731 21.3232C8.638 21.6376 9.00811 21.806 9.38356 21.7585C9.75902 21.711 10.0755 21.4556 10.2012 21.0987L11.321 17.9195C10.4059 17.7867 9.52339 17.384 8.80576 16.7112C7.44267 16.6672 6.22242 16.0321 5.39447 15.0553Z" fill="#111928"/>
<path d="M12.6639 17.9216L13.7829 21.0987C13.9087 21.4557 14.2251 21.711 14.6006 21.7586C14.976 21.8061 15.3462 21.6376 15.5568 21.3232L16.7009 19.6162L18.6503 20.2661C19.01 20.386 19.4067 20.2921 19.6745 20.0237C19.9423 19.7552 20.0352 19.3584 19.9145 18.999L18.5941 15.0684C17.7663 16.0378 16.5509 16.6674 15.1939 16.7112C14.4724 17.3876 13.5842 17.7911 12.6639 17.9216Z" fill="#111928"/>
</svg>
