<svg width="24" height="24" viewBox="0 0 24 24" fill="none" xmlns="http://www.w3.org/2000/svg">
<path d="M6.97095 12.9461V10.9544H13.9419V12.9461H6.97095Z" fill="#111928"/>
<path fill-rule="evenodd" clip-rule="evenodd" d="M1.9917 7.9668C1.9917 6.86681 2.88341 5.9751 3.9834 5.9751H16.9295C18.0294 5.9751 18.9212 6.86681 18.9212 7.9668V15.9336C18.9212 17.0336 18.0294 17.9253 16.9295 17.9253H3.9834C2.88341 17.9253 1.9917 17.0336 1.9917 15.9336V7.9668ZM5.9751 8.96265C5.42511 8.96265 4.97925 9.40851 4.97925 9.9585V13.9419C4.97925 14.4919 5.42511 14.9378 5.9751 14.9378H14.9378C15.4878 14.9378 15.9336 14.4919 15.9336 13.9419V9.9585C15.9336 9.40851 15.4878 8.96265 14.9378 8.96265H5.9751Z" fill="#111928"/>
<path d="M21.9087 13.9419V9.9585C21.9087 9.40851 21.4629 8.96265 20.9129 8.96265H19.917V14.9378H20.9129C21.4629 14.9378 21.9087 14.4919 21.9087 13.9419Z" fill="#111928"/>
</svg>
