<svg width="24" height="24" viewBox="0 0 24 24" fill="none" xmlns="http://www.w3.org/2000/svg">
<path d="M2.53513 11C2.19479 11.5883 2 12.2714 2 13V17C2 17.5523 2.44772 18 3 18H5L5 19C5 19.5523 5.44772 20 6 20C6.55228 20 7 19.5523 7 19V18H17V19C17 19.5523 17.4477 20 18 20C18.5523 20 19 19.5523 19 19V18H21C21.5523 18 22 17.5523 22 17V13C22 12.2714 21.8052 11.5883 21.4649 11H2.53513Z" fill="#111928"/>
<path d="M20 9V8C20 5.79086 18.2091 4 16 4H13V9H20Z" fill="#111928"/>
<path d="M11 4H8C5.79086 4 4 5.79086 4 8V9H11V4Z" fill="#111928"/>
</svg>
