<svg width="24" height="24" viewBox="0 0 24 24" fill="none" xmlns="http://www.w3.org/2000/svg">
<path fill-rule="evenodd" clip-rule="evenodd" d="M3.94343 4.87524C4.00931 3.82117 4.88341 3 5.93953 3H15.0606C16.1168 3 16.9909 3.82117 17.0567 4.87524L17.0645 5H20.0001C20.5524 5 21.0001 5.44772 21.0001 6V9.85927C21.0001 11.531 20.1646 13.0922 18.7736 14.0195L17.6741 14.7525L17.752 16H3.24813L3.94343 4.87524ZM17.5298 12.445L17.6642 12.3554C18.4988 11.799 19.0001 10.8623 19.0001 9.85927V7H17.1895L17.5298 12.445ZM10 7C10 6.44772 9.55228 6 9 6C8.44772 6 8 6.44772 8 7V14C8 14.5523 8.44772 15 9 15C9.55228 15 10 14.5523 10 14V7ZM13 7C13 6.44772 12.5523 6 12 6C11.4477 6 11 6.44772 11 7V14C11 14.5523 11.4477 15 12 15C12.5523 15 13 14.5523 13 14V7Z" fill="#383838"/>
<path d="M3.12313 18L3.06843 18.8752C2.99647 20.0266 3.91089 21 5.06453 21H15.9356C17.0893 21 18.0037 20.0266 17.9317 18.8752L17.877 18H3.12313Z" fill="#383838"/>
</svg>
