<svg width="24" height="24" viewBox="0 0 24 24" fill="none" xmlns="http://www.w3.org/2000/svg">
<path fill-rule="evenodd" clip-rule="evenodd" d="M11 4C10.4477 4 10 4.44772 10 5V15H20.4587L20.9812 12H16C15.4477 12 15 11.5523 15 11C15 10.4477 15.4477 10 16 10H21.3296L21.5038 9H16C15.4477 9 15 8.55228 15 8C15 7.44772 15.4477 7 16 7H21.8522L21.969 6.32908L21.9695 6.32658C22.0188 6.0489 22.0082 5.76389 21.9386 5.49061C21.8687 5.2165 21.7409 4.96052 21.5638 4.7399C21.3867 4.51929 21.1644 4.33916 20.9118 4.21166C20.6592 4.08416 20.3822 4.01226 20.0995 4.00082C20.086 4.00027 20.0726 4 20.0591 4H11ZM9 18C9 17.6494 9.06015 17.3128 9.17071 17H20.8293C20.9398 17.3128 21 17.6494 21 18V19C21 19.5523 20.5523 20 20 20H10C9.44772 20 9 19.5523 9 19V18ZM2.00876 11C1.96767 13.0665 2.28952 15.1257 2.96223 17.1004C3.15985 17.6392 4.57272 18 5.19895 18H6.53868C6.70919 18 6.87781 17.9675 7.03365 17.9048C7.1895 17.842 7.32911 17.7503 7.44348 17.6356C7.55786 17.5209 7.64447 17.3858 7.69772 17.2389C7.75097 17.092 7.76968 16.9366 7.75264 16.7827L7.51139 14.5983C7.48145 14.3253 7.3406 14.0721 7.11623 13.888C6.89186 13.7038 6.60001 13.602 6.29742 13.6022H5.29135C5.17041 12.7394 5.12193 11.8695 5.14634 11C5.12193 10.1305 5.17041 9.26065 5.29135 8.39785H6.53868C6.84126 8.39804 7.13312 8.29617 7.35748 8.11206C7.58185 7.92794 7.7227 7.67474 7.75264 7.40167L7.9939 5.2173C8.01093 5.06344 7.99222 4.90804 7.93897 4.76114C7.88572 4.61423 7.79912 4.47908 7.68474 4.36439C7.57036 4.2497 7.43075 4.15802 7.27491 4.09526C7.11906 4.0325 6.95045 4.00005 6.77993 4.00001H4.30708C4.0074 3.99874 3.71467 4.08193 3.46939 4.23808C3.2241 4.39423 3.03836 4.61563 2.93784 4.87167C2.25608 6.8537 1.94211 8.92466 2.00876 11Z" fill="#111928"/>
</svg>
