<svg width="24" height="24" viewBox="0 0 24 24" fill="none" xmlns="http://www.w3.org/2000/svg">
<path d="M4.13982 11.889C2.73594 13.2929 2.73594 15.4759 4.13982 16.8798C4.66096 17.4009 5.36229 17.7707 6.10552 17.8945C6.22939 18.6378 6.59915 19.3391 7.12028 19.8602C8.52416 21.2641 10.7072 21.2641 12.111 19.8602C13.2682 18.7031 13.4715 17.0167 12.7212 15.6735L15.6735 12.7212C17.0167 13.4715 18.7031 13.2682 19.8602 12.111C21.2641 10.7072 21.2641 8.52416 19.8602 7.12028C19.3391 6.59915 18.6378 6.22939 17.8945 6.10552C17.7707 5.36229 17.4009 4.66096 16.8798 4.13982C15.4759 2.73594 13.2929 2.73594 11.889 4.13982C10.7319 5.29694 10.5285 6.98335 11.2788 8.32654L8.32654 11.2788C6.98335 10.5285 5.29694 10.7319 4.13982 11.889Z" fill="#383838"/>
</svg>
