<svg width="24" height="24" viewBox="0 0 24 24" fill="none" xmlns="http://www.w3.org/2000/svg">
<path d="M9 6C9 4.34315 10.3431 3 12 3C13.6569 3 15 4.34315 15 6C15 7.65685 13.6569 9 12 9C10.3431 9 9 7.65685 9 6Z" fill="#0F172B"/>
<path d="M11 9.62992C10.8737 9.58579 10.75 9.54193 10.6279 9.49861C9.28862 9.02379 8.13534 8.61489 5.84795 8.65041C4.84875 8.66593 4 9.46413 4 10.5V17.7884C4 18.8762 4.91948 19.6631 5.92888 19.65C7.21188 19.6332 7.97513 19.7822 8.72559 20.0087C9.01844 20.097 9.30292 20.195 9.62931 20.3074L9.6318 20.3082C9.75163 20.3495 9.87714 20.3927 10.0108 20.4381C10.3097 20.5396 10.635 20.6469 11 20.7566V9.62992Z" fill="#0F172B"/>
<path d="M13 9.62618V20.7551C13.5531 20.5873 14.0379 20.4177 14.4545 20.2719C14.7501 20.1685 15.012 20.0768 15.2391 20.0066C15.9648 19.7821 16.7046 19.6332 17.987 19.65C18.4889 19.6565 18.9676 19.4709 19.3277 19.1712C19.6895 18.8701 20 18.3902 20 17.7884V10.5C20 9.91886 19.7077 9.44978 19.3623 9.1497C19.0182 8.85066 18.5576 8.65802 18.0679 8.65041C15.8012 8.61521 14.6819 9.01947 13.3832 9.48853C13.2576 9.53392 13.1302 9.57991 13 9.62618Z" fill="#0F172B"/>
</svg>
