<svg width="24" height="24" viewBox="0 0 24 24" fill="none" xmlns="http://www.w3.org/2000/svg">
<path d="M5 5L5 19M19 19L19 8H21M3 8H9M9 6L9 14.5858C9 15.4767 10.0771 15.9229 10.7071 15.2929L11.2929 14.7071C11.6834 14.3166 12.3166 14.3166 12.7071 14.7071L13.2929 15.2929C13.6834 15.6834 14.3166 15.6834 14.7071 15.2929L15.2929 14.7071C15.6834 14.3166 16.3166 14.3166 16.7071 14.7071L17.2929 15.2929C17.9229 15.9229 19 15.4767 19 14.5858V6C19 5.44772 18.5523 5 18 5L10 5C9.44771 5 9 5.44772 9 6Z" stroke="#111928" stroke-width="2" stroke-linecap="round"/>
</svg>
