<svg width="24" height="24" viewBox="0 0 24 24" fill="none" xmlns="http://www.w3.org/2000/svg">
<path d="M4 5L4 7H3C2.44772 7 2 7.44772 2 8C2 8.55229 2.44772 9 3 9H4L4 19C4 19.5523 4.44771 20 5 20C5.55228 20 6 19.5523 6 19L6 9H8L8 14.5858C8 16.3676 10.1543 17.2599 11.4142 16L12 15.4142L12.5858 16C13.3668 16.7811 14.6332 16.781 15.4142 16L16 15.4142L16.5858 16C16.9972 16.4114 17.504 16.5933 18 16.5897V19C18 19.5523 18.4477 20 19 20C19.5523 20 20 19.5523 20 19V9H21C21.5523 9 22 8.55229 22 8C22 7.44772 21.5523 7 21 7H20V6C20 4.89543 19.1046 4 18 4H10C8.89543 4 8 4.89543 8 6L8 7H6L6 5C6 4.44772 5.55228 4 5 4C4.44771 4 4 4.44772 4 5Z" fill="#111928"/>
</svg>
