<svg width="24" height="24" viewBox="0 0 24 24" fill="none" xmlns="http://www.w3.org/2000/svg">
<path fill-rule="evenodd" clip-rule="evenodd" d="M12.2605 3.79368C11.9795 3.57015 11.663 3.40388 11.3432 3.28748C10.6408 3.03181 9.84402 2.9818 9.10225 3.10087C7.94407 3.28679 6.58612 3.9828 6.12751 5.32851C5.72309 5.36958 5.34807 5.47271 5.00556 5.63868C4.40614 5.92914 3.97859 6.37709 3.68282 6.86867C3.11436 7.81349 3 8.97014 3 9.78568C3 10.6771 3.27124 11.4358 3.76053 12H20.3218C20.3319 11.9875 20.3419 11.9749 20.3519 11.9621C20.8438 11.3297 20.993 10.5436 20.9998 9.83701C21.1231 8.50986 20.6962 7.36701 19.9027 6.55827C19.3009 5.94507 18.5198 5.55523 17.6834 5.40435C17.2524 4.21 16.2394 3.30226 14.7861 3.14181C13.8726 3.04094 12.9671 3.33283 12.2605 3.79368ZM9 8C9 7.44772 9.44772 7 10 7H10.01C10.5623 7 11.01 7.44772 11.01 8C11.01 8.55228 10.5623 9 10.01 9H10C9.44772 9 9 8.55228 9 8ZM13 8C13 7.44772 13.4477 7 14 7H14.01C14.5623 7 15.01 7.44772 15.01 8C15.01 8.55228 14.5623 9 14.01 9H14C13.4477 9 13 8.55228 13 8ZM6 10C6 9.44772 6.44772 9 7 9H7.01C7.56228 9 8.01 9.44772 8.01 10C8.01 10.5523 7.56228 11 7.01 11H7C6.44772 11 6 10.5523 6 10ZM11 10C11 9.44772 11.4477 9 12 9H12.01C12.5623 9 13.01 9.44772 13.01 10C13.01 10.5523 12.5623 11 12.01 11H12C11.4477 11 11 10.5523 11 10ZM16 10C16 9.44772 16.4477 9 17 9H17.01C17.5623 9 18.01 9.44772 18.01 10C18.01 10.5523 17.5623 11 17.01 11H17C16.4477 11 16 10.5523 16 10Z" fill="#383838"/>
<path d="M20.6134 14.6222C20.7279 14.3134 20.4885 14 20.1592 14H3.84086C3.51151 14 3.27211 14.3134 3.38657 14.6222C4.15575 16.6975 5.84857 18.3645 7.97661 19.2963V20C7.97661 20.5523 8.42433 21 8.97661 21H15.0234C15.5757 21 16.0234 20.5523 16.0234 20L16.0234 19.2963C18.1514 18.3645 19.8443 16.6975 20.6134 14.6222Z" fill="#383838"/>
</svg>
