<svg width="24" height="24" viewBox="0 0 24 24" fill="none" xmlns="http://www.w3.org/2000/svg">
<path fill-rule="evenodd" clip-rule="evenodd" d="M21 11.0001C21 10.1186 20.6201 9.327 20.016 8.77865C20.5191 7.44019 20.2337 5.80721 19.0347 4.83652C17.9757 3.97912 16.5586 3.86084 15.4076 4.41601C15.1168 4.02518 14.7444 3.71178 14.3181 3.48422C13.4952 3.04499 12.5155 2.94473 11.5768 3.12785C10.3596 3.3653 9.39423 4.16343 8.89643 5.2019C8.8066 5.14925 8.71419 5.10025 8.61929 5.05529C7.75902 4.64777 6.72801 4.59287 5.7048 5.10821C4.29877 5.81636 3.57451 7.46078 3.86086 8.95861C3.69965 9.10329 3.55561 9.26907 3.43299 9.45679C3.13246 9.91685 3 10.4482 3 11.0001C3 11.5507 3.445 11.9973 3.99497 12H20.005C20.555 11.9973 21 11.5507 21 11.0001ZM14.1095 10.2347C13.8801 9.73232 13.2868 9.51108 12.7845 9.74053C12.2821 9.96998 11.6889 9.74874 11.4594 9.24638C11.23 8.74401 11.4512 8.15076 11.9536 7.92131C13.4607 7.23295 15.2404 7.89668 15.9288 9.40378C16.1582 9.90614 15.937 10.4994 15.4346 10.7288C14.9322 10.9583 14.339 10.7371 14.1095 10.2347Z" fill="#383838"/>
<path d="M20.3593 15.2241C20.6421 14.6292 20.1643 14 19.5056 14H4.49439C3.83569 14 3.35789 14.6292 3.64068 15.2241C4.49395 17.0192 6.05848 18.4564 7.97661 19.2963V20C7.97661 20.5523 8.42433 21 8.97661 21H15.0234C15.5757 21 16.0234 20.5523 16.0234 20L16.0234 19.2963C17.9415 18.4564 19.5061 17.0192 20.3593 15.2241Z" fill="#383838"/>
</svg>
