<svg width="24" height="24" viewBox="0 0 24 24" fill="none" xmlns="http://www.w3.org/2000/svg">
<path d="M18 17H17.91C17.9679 16.6698 17.998 16.3353 18 16V15H19C19.2652 15 19.5196 14.8946 19.7071 14.7071C19.8947 14.5196 20 14.2652 20 14C20 13.7348 19.8947 13.4804 19.7071 13.2929C19.5196 13.1054 19.2652 13 19 13H17.91C17.8524 12.6598 17.7654 12.3252 17.65 12H17C17.5304 12 18.0392 11.7893 18.4142 11.4142C18.7893 11.0391 19 10.5304 19 10V8C19 7.73478 18.8947 7.48043 18.7071 7.29289C18.5196 7.10536 18.2652 7 18 7C17.7348 7 17.4804 7.10536 17.2929 7.29289C17.1054 7.48043 17 7.73478 17 8V10H16.46C16.3148 9.83877 16.1612 9.68523 16 9.54V8C15.9962 7.04269 15.6459 6.11913 15.014 5.4L15.707 4.707C15.8946 4.51951 16 4.26519 16 4V3C16 2.73478 15.8947 2.48043 15.7071 2.29289C15.5196 2.10536 15.2652 2 15 2C14.7348 2 14.4804 2.10536 14.2929 2.29289C14.1054 2.48043 14 2.73478 14 3V3.586L13.339 4.247C12.4767 3.91768 11.5233 3.91768 10.661 4.247L10 3.586V3C10 2.73478 9.89465 2.48043 9.70712 2.29289C9.51958 2.10536 9.26523 2 9.00001 2C8.7348 2 8.48044 2.10536 8.2929 2.29289C8.10537 2.48043 8.00001 2.73478 8.00001 3V4C8.00007 4.26519 8.10546 4.51951 8.29301 4.707L8.98601 5.4C8.3541 6.11913 8.00386 7.04269 8.00001 8V9.54C7.83878 9.68523 7.68524 9.83877 7.54001 10H7.00001V8C7.00001 7.73478 6.89465 7.48043 6.70712 7.29289C6.51958 7.10536 6.26523 7 6.00001 7C5.73479 7 5.48044 7.10536 5.2929 7.29289C5.10537 7.48043 5.00001 7.73478 5.00001 8V10C5.00001 10.5304 5.21073 11.0391 5.5858 11.4142C5.96087 11.7893 6.46958 12 7.00001 12H6.35001C6.2346 12.3252 6.14761 12.6598 6.09001 13H5.00001C4.73479 13 4.48044 13.1054 4.2929 13.2929C4.10537 13.4804 4.00001 13.7348 4.00001 14C4.00001 14.2652 4.10537 14.5196 4.2929 14.7071C4.48044 14.8946 4.73479 15 5.00001 15H6.00001V16C6.00202 16.3353 6.03213 16.6698 6.09001 17H6.00001C5.46958 17 4.96087 17.2107 4.5858 17.5858C4.21073 17.9609 4.00001 18.4696 4.00001 19V21C4.00001 21.2652 4.10537 21.5196 4.2929 21.7071C4.48044 21.8946 4.73479 22 5.00001 22C5.26523 22 5.51958 21.8946 5.70712 21.7071C5.89465 21.5196 6.00001 21.2652 6.00001 21V19H6.81201C7.25441 19.7618 7.85885 20.4171 8.58257 20.9195C9.30628 21.4218 10.1316 21.759 11 21.907V12C11 11.7348 11.1054 11.4804 11.2929 11.2929C11.4804 11.1054 11.7348 11 12 11C12.2652 11 12.5196 11.1054 12.7071 11.2929C12.8947 11.4804 13 11.7348 13 12V21.907C13.8685 21.759 14.6937 21.4218 15.4175 20.9195C16.1412 20.4171 16.7456 19.7618 17.188 19H18V21C18 21.2652 18.1054 21.5196 18.2929 21.7071C18.4804 21.8946 18.7348 22 19 22C19.2652 22 19.5196 21.8946 19.7071 21.7071C19.8947 21.5196 20 21.2652 20 21V19C20 18.4696 19.7893 17.9609 19.4142 17.5858C19.0392 17.2107 18.5304 17 18 17ZM14 8.35C13.6938 8.24064 13.379 8.15669 13.059 8.099L12.948 8.082C12.3194 7.9722 11.6766 7.9722 11.048 8.082L10.937 8.099C10.6183 8.15691 10.305 8.24086 10 8.35V8C10 7.46957 10.2107 6.96086 10.5858 6.58579C10.9609 6.21071 11.4696 6 12 6C12.5304 6 13.0392 6.21071 13.4142 6.58579C13.7893 6.96086 14 7.46957 14 8V8.35Z" fill="#111928"/>
</svg>
