<svg width="24" height="24" viewBox="0 0 24 24" fill="none" xmlns="http://www.w3.org/2000/svg">
<path d="M15 3.00012H9.00003C6.2386 3.00012 4.00003 5.2387 4.00003 8.00012V9.00012C4.00003 9.55241 4.44774 10.0001 5.00003 10.0001L19 10.0001C19.5523 10.0001 20 9.5524 20 9.00012V8.00012C20 5.2387 17.7614 3.00012 15 3.00012Z" fill="#383838"/>
<path d="M4.35115 12.9365L6.66669 12.0681L8.98224 12.9365C9.20862 13.0213 9.4581 13.0213 9.68448 12.9365L12 12.0681L14.3156 12.9365C14.542 13.0213 14.7914 13.0213 15.0178 12.9365L17.3334 12.0681L19.6489 12.9365C20.166 13.1304 20.7424 12.8684 20.9364 12.3512C21.1303 11.8341 20.8683 11.2577 20.3512 11.0638L17.6845 10.0638C17.4581 9.9789 17.2086 9.9789 16.9822 10.0638L14.6667 10.9321L12.3512 10.0638C12.1248 9.9789 11.8753 9.9789 11.6489 10.0638L9.33336 10.9321L7.01782 10.0638C6.79143 9.9789 6.54196 9.9789 6.31557 10.0638L3.6489 11.0638C3.13178 11.2577 2.86978 11.8341 3.0637 12.3512C3.25762 12.8684 3.83403 13.1304 4.35115 12.9365Z" fill="#383838"/>
<path d="M21 15.5001C21 16.318 20.6073 17.0442 20 17.5003V18.0001C20 19.657 18.6569 21.0001 17 21.0001H7.00003C5.34317 21.0001 4.00003 19.657 4.00003 18.0001V17.5003C3.3928 17.0442 3.00003 16.318 3.00003 15.5001C3.00003 14.1194 4.11931 13.0001 5.50003 13.0001L18.5 13.0001C19.8807 13.0001 21 14.1194 21 15.5001Z" fill="#383838"/>
</svg>
