<svg width="24" height="24" viewBox="0 0 24 24" fill="none" xmlns="http://www.w3.org/2000/svg">
<path d="M11.6643 2.05645C11.684 2.04946 11.8232 2 12 2C12.1768 2 12.316 2.04946 12.3357 2.05645L12.3376 2.05712C12.3837 2.07289 12.4222 2.08941 12.4468 2.10044C12.4982 2.12347 12.5483 2.14942 12.5917 2.17312C12.6813 2.2221 12.7874 2.28614 12.9019 2.36167C13.131 2.51276 13.4229 2.72892 13.714 2.99856C14.247 3.49215 15 4.36997 15 5.5C15 6.62688 14.2553 7.50396 13.7221 7.99995C13.469 8.23536 13.2146 8.43038 13 8.57737V10H18C18.5523 10 19 10.4477 19 11V14H15C14.9432 14 14.8875 14.0047 14.8333 14.0138C14.7791 14.0047 14.7234 14 14.6666 14H5V11C5 10.4477 5.44772 10 6 10H11V8.57619C10.7861 8.42953 10.5324 8.23504 10.2798 8.0003C9.74664 7.50486 9 6.62761 9 5.5C9 4.36997 9.753 3.49215 10.286 2.99856C10.5771 2.72892 10.869 2.51276 11.0981 2.36167C11.2126 2.28614 11.3187 2.2221 11.4083 2.17312C11.4517 2.14942 11.5018 2.12347 11.5532 2.10044C11.5778 2.08941 11.6163 2.07289 11.6624 2.05712L11.6643 2.05645Z" fill="#383838"/>
<path d="M4 17.8377V21C4 21.5523 4.44772 22 5 22H19C19.5523 22 20 21.5523 20 21V18.1757C19.9391 18.2291 19.8752 18.2811 19.8083 18.3312C19.2483 18.7512 18.5343 19 17.6667 19C16.799 19 16.085 18.7512 15.525 18.3312C15.244 18.1205 15.0169 17.8781 14.8333 17.6268C14.6498 17.8781 14.4227 18.1205 14.1416 18.3312C13.5817 18.7512 12.8677 19 12 19C11.1323 19 10.4183 18.7512 9.85831 18.3312C9.65689 18.1802 9.48317 18.0129 9.33332 17.8377C9.18348 18.0129 9.00976 18.1802 8.80833 18.3312C8.24834 18.7512 7.53435 19 6.66667 19C5.79899 19 5.08499 18.7512 4.525 18.3312C4.32357 18.1802 4.14985 18.0129 4 17.8377Z" fill="#383838"/>
<path d="M5.2078 16C5.2202 16.0314 5.2333 16.0627 5.24714 16.0939C5.36555 16.3603 5.52267 16.5795 5.725 16.7312C5.91501 16.8738 6.20102 17 6.66667 17C7.13232 17 7.41832 16.8738 7.60833 16.7312C7.81067 16.5795 7.96778 16.3603 8.08619 16.0939C8.10003 16.0627 8.11313 16.0314 8.12553 16H5.2078Z" fill="#383838"/>
<path d="M10.5805 16.0939C10.5666 16.0627 10.5535 16.0314 10.5411 16H13.4588C13.4464 16.0314 13.4333 16.0627 13.4195 16.0939C13.3011 16.3603 13.144 16.5795 12.9416 16.7312C12.7516 16.8738 12.4656 17 12 17C11.5343 17 11.2483 16.8738 11.0583 16.7312C10.856 16.5795 10.6989 16.3603 10.5805 16.0939Z" fill="#383838"/>
<path d="M16.2471 16.0939C16.2333 16.0627 16.2202 16.0314 16.2078 16H19.1255C19.1131 16.0314 19.1 16.0627 19.0862 16.0939C18.9678 16.3603 18.8107 16.5795 18.6083 16.7312C18.4183 16.8738 18.1323 17 17.6667 17C17.201 17 16.915 16.8738 16.725 16.7312C16.5227 16.5795 16.3656 16.3603 16.2471 16.0939Z" fill="#383838"/>
</svg>
