<svg width="24" height="24" viewBox="0 0 24 24" fill="none" xmlns="http://www.w3.org/2000/svg">
<path fill-rule="evenodd" clip-rule="evenodd" d="M12.5125 8.71983C12.9739 8.2589 13.5995 8 14.2517 8C14.9039 8 15.5294 8.2589 15.9909 8.71983L15.9917 8.72063C16.4526 9.18207 16.7115 9.80762 16.7115 10.4598C16.7115 11.1121 16.4526 11.7376 15.9917 12.199L15.9869 12.2038L14.8929 13.2844C14.8454 13.186 14.7809 13.0938 14.6993 13.0122L11.6993 10.0122C11.6177 9.93064 11.5255 9.8661 11.4272 9.8186L12.5125 8.71983ZM10.0969 11.1654L7.28072 14.0166C7.09586 14.2038 6.99219 14.4563 6.99219 14.7193V16.7193C6.99219 17.2716 7.4399 17.7193 7.99219 17.7193H9.99219C10.2553 17.7193 10.5077 17.6157 10.6949 17.4308L13.5461 14.6146C13.4519 14.5677 13.3636 14.505 13.2851 14.4264L10.2851 11.4264C10.2066 11.3479 10.1438 11.2596 10.0969 11.1654Z" fill="#111928"/>
<path fill-rule="evenodd" clip-rule="evenodd" d="M7 3C7.55228 3 8 3.44772 8 4V5H11V4C11 3.44772 11.4477 3 12 3C12.5523 3 13 3.44772 13 4V5H16V4C16 3.44772 16.4477 3 17 3C17.5523 3 18 3.44772 18 4V5H19C20.1046 5 21 5.89543 21 7V19C21 20.1046 20.1046 21 19 21H5C3.89543 21 3 20.1046 3 19V7C3 5.89543 3.89543 5 5 5H6V4C6 3.44772 6.44772 3 7 3ZM17.6691 11H18.5H19V19H5V11H8.85474L9.38544 10.4627C9.61225 10.2331 9.93594 10.127 10.2547 10.178C10.3522 10.1935 10.4883 10.3086 10.5325 10.2653C10.5767 10.222 10.4585 10.0859 10.4417 9.98859C10.3869 9.67051 10.4889 9.34551 10.7157 9.11588L11.8058 8.01232C12.4547 7.36411 13.3344 7 14.2517 7C15.1689 7 16.0487 7.36411 16.6976 8.01232L16.6992 8.01392C17.3474 8.66287 17.7115 9.54259 17.7115 10.4598C17.7115 10.6419 17.6972 10.8224 17.6691 11Z" fill="#111928"/>
</svg>
