<svg width="24" height="24" viewBox="0 0 24 24" fill="none" xmlns="http://www.w3.org/2000/svg">
<path fill-rule="evenodd" clip-rule="evenodd" d="M6 5L6 4C6 3.44771 6.44772 3 7 3C7.55229 3 8 3.44772 8 4V5H11V4C11 3.44771 11.4477 3 12 3C12.5523 3 13 3.44772 13 4V5H16V4C16 3.44771 16.4477 3 17 3C17.5523 3 18 3.44772 18 4V5H19C20.1046 5 21 5.89543 21 7V7.5V9H3V7.5V7C3 5.89543 3.89543 5 5 5H6ZM3 19V11H21V19C21 20.1046 20.1046 21 19 21H5C3.89543 21 3 20.1046 3 19ZM8 13C7.44772 13 7 13.4477 7 14C7 14.5523 7.44772 15 8 15H16C16.5523 15 17 14.5523 17 14C17 13.4477 16.5523 13 16 13H8Z" fill="#111928"/>
</svg>
