<svg width="24" height="24" viewBox="0 0 24 24" fill="none" xmlns="http://www.w3.org/2000/svg">
<path d="M11 9.16318L6 8.36148V10.5C6 11.8807 7.11929 13 8.5 13C9.88071 13 11 11.8807 11 10.5V9.16318Z" fill="#383838"/>
<path d="M6.1404 6.35844L11 7.13764V2.08771C9.85506 2.28759 8.77172 2.81799 7.91298 3.56245C7.0792 4.28528 6.41713 5.24762 6.1404 6.35844Z" fill="#383838"/>
<path d="M13 2.08771V7.00003H17.9734C17.8257 5.61789 17.0775 4.42116 16.087 3.56245C15.2283 2.81799 14.1449 2.2876 13 2.08771Z" fill="#383838"/>
<path d="M18 9.00003H13V11H18V9.00003Z" fill="#383838"/>
<path d="M18 13H13V15H18V13Z" fill="#383838"/>
<path d="M18 17H13V19.5C13 20.8807 14.1193 22 15.5 22C16.8807 22 18 20.8807 18 19.5V17Z" fill="#383838"/>
</svg>
