<svg width="24" height="24" viewBox="0 0 24 24" fill="none" xmlns="http://www.w3.org/2000/svg">
<path d="M15.9998 3C16.5521 3 16.9998 3.44772 16.9998 4V5.64215L18.5642 4.12961C18.9613 3.74572 19.5943 3.75639 19.9782 4.15344C20.3621 4.55049 20.3514 5.18357 19.9544 5.56745L18.4727 6.99998L19.9998 6.99999C20.5521 6.99999 20.9998 7.44771 20.9998 7.99999C20.9998 8.55228 20.5521 8.99999 19.9998 8.99999L17.895 8.99998C18.158 9.59 18.3104 10.2271 18.3242 10.8922C18.3437 11.829 18.0869 12.7661 17.5465 13.6483L14.7006 10.8709C14.3053 10.4852 13.6722 10.4929 13.2865 10.8882C12.9007 11.2834 12.9084 11.9165 13.3037 12.3023L16.2522 15.1797C15.4226 15.9422 14.1466 16.9081 12.7398 17.8273C12.7358 17.823 12.7318 17.8187 12.7278 17.8144L9.84314 14.7513C9.4645 14.3493 8.83162 14.3303 8.42956 14.7089C8.0275 15.0876 8.00852 15.7204 8.38716 16.1225L11.0001 18.897C10.811 19.0059 10.6219 19.1122 10.4335 19.2156C9.21643 19.883 7.96605 20.4583 6.88045 20.7568C6.33948 20.9055 5.78774 21.0004 5.27479 20.9775C4.76236 20.9547 4.18605 20.8076 3.74314 20.3647C3.30023 19.9218 3.15316 19.3455 3.13034 18.8331C3.1075 18.3201 3.20233 17.7684 3.35108 17.2274C3.64959 16.1418 4.22483 14.8914 4.89225 13.6744C5.51381 12.541 6.24412 11.3853 6.96537 10.3559L9.67984 12.9729C10.0774 13.3563 10.7105 13.3447 11.0938 12.9471C11.4771 12.5495 11.4656 11.9165 11.068 11.5331L8.17211 8.74115C8.55581 8.26388 8.9146 7.85543 9.2266 7.54343C10.4502 6.31985 11.8026 5.69654 13.1722 5.70235C13.8186 5.70508 14.4317 5.84785 14.9998 6.09919V4C14.9998 3.44772 15.4475 3 15.9998 3Z" fill="#383838"/>
</svg>
