<svg width="24" height="24" viewBox="0 0 24 24" fill="none" xmlns="http://www.w3.org/2000/svg">
<path d="M12.2676 6C12.0974 6.29417 12 6.63571 12 7C12 8.10457 12.8954 9 14 9H15V10C15 11.1046 15.8954 12 17 12C17.3812 12 17.7374 11.8934 18.0406 11.7083L17.729 13.204C17.6324 13.6677 17.2237 14 16.75 14H8.6048L8.81314 15H16C17.6569 15 19 16.3431 19 18C19 19.6569 17.6569 21 16 21C14.3431 21 13 19.6569 13 18C13 17.6494 13.0602 17.3128 13.1707 17H10.8293C10.9398 17.3128 11 17.6494 11 18C11 19.6569 9.65685 21 8 21C6.34315 21 5 19.6569 5 18C5 16.7619 5.74996 15.699 6.82037 15.2408L4.68686 5H4C3.44772 5 3 4.55228 3 4C3 3.44772 3.44772 3 4 3H5.5C5.97368 3 6.38237 3.33233 6.47898 3.79605L6.93814 6H12.2676Z" fill="#111928"/>
<path d="M18 4C18 3.44772 17.5523 3 17 3C16.4477 3 16 3.44772 16 4V6H14C13.4477 6 13 6.44772 13 7C13 7.55228 13.4477 8 14 8H16V10C16 10.5523 16.4477 11 17 11C17.5523 11 18 10.5523 18 10V8H20C20.5523 8 21 7.55228 21 7C21 6.44772 20.5523 6 20 6H18V4Z" fill="#111928"/>
</svg>
