<svg width="24" height="24" viewBox="0 0 24 24" fill="none" xmlns="http://www.w3.org/2000/svg">
<path fill-rule="evenodd" clip-rule="evenodd" d="M5 3C4.44772 3 4 3.44772 4 4C4 4.55228 4.44772 5 5 5H5.68686L7.82037 15.2408C6.74996 15.699 6 16.7619 6 18C6 19.6569 7.34315 21 9 21C10.6569 21 12 19.6569 12 18C12 17.6494 11.9398 17.3128 11.8293 17H14.1707C14.0602 17.3128 14 17.6494 14 18C14 19.6569 15.3431 21 17 21C18.6569 21 20 19.6569 20 18C20 16.3431 18.6569 15 17 15H9.81314L9.6048 14H17.75C18.2237 14 18.6324 13.6677 18.729 13.204L19.979 7.20395C20.0404 6.90929 19.9658 6.60264 19.7759 6.36911C19.586 6.13558 19.301 6 19 6H16.7324C16.9026 6.29417 17 6.63571 17 7C17 8.10457 16.1046 9 15 9C15 10.1046 14.1046 11 13 11C11.8954 11 11 10.1046 11 9C9.89543 9 9 8.10457 9 7C9 6.63571 9.09739 6.29417 9.26756 6H7.93814L7.47898 3.79605C7.38237 3.33233 6.97368 3 6.5 3H5Z" fill="#111928"/>
<path fill-rule="evenodd" clip-rule="evenodd" d="M14 5C14 4.44772 13.5523 4 13 4C12.4477 4 12 4.44772 12 5V6H11C10.4477 6 10 6.44772 10 7C10 7.55228 10.4477 8 11 8H12V9C12 9.55228 12.4477 10 13 10C13.5523 10 14 9.55228 14 9V8H15C15.5523 8 16 7.55228 16 7C16 6.44772 15.5523 6 15 6H14V5Z" fill="#111928"/>
</svg>
