<svg width="24" height="24" viewBox="0 0 24 24" fill="none" xmlns="http://www.w3.org/2000/svg">
<path d="M4 19V21C4 21.5523 4.44772 22 5 22H19C19.5523 22 20 21.5523 20 21V19H4Z" fill="#111928"/>
<path fill-rule="evenodd" clip-rule="evenodd" d="M9 3C9 2.44772 9.44772 2 10 2H18C18.5523 2 19 2.44772 19 3V6C19 6.55228 18.5523 7 18 7H16V8H18C18.5096 8 18.9376 8.38314 18.9939 8.88957L19.8951 17H4.10498L5.00614 8.88957C5.06241 8.38314 5.49047 8 6.00002 8H12V7H10C9.44772 7 9 6.55228 9 6V3ZM10.01 11H8.00002V13.01H10.01V11ZM11 11H13.01V13.01H11V11ZM16.01 11H14V13.01H16.01V11ZM8.00002 14H10.01V16.01H8.00002V14ZM13.01 14H11V16.01H13.01V14ZM14 14H16.01V16.01H14V14ZM11 4H17V5H11V4Z" fill="#111928"/>
</svg>
