<svg width="24" height="24" viewBox="0 0 24 24" fill="none" xmlns="http://www.w3.org/2000/svg">
<path d="M3 15V18C3 18.5523 3.44772 19 4 19H12V11M3 15V11M3 15H12M3 11V6C3 5.44772 3.44772 5 4 5H20C20.5523 5 21 5.44772 21 6V10M3 11H14M20.25 16C20.25 17.2426 19.2427 18.25 18 18.25M20.25 16C20.25 14.7574 19.2427 13.75 18 13.75M20.25 16L21 16M18 18.25C16.7574 18.25 15.75 17.2426 15.75 16M18 18.25V19M15.75 16C15.75 14.7574 16.7574 13.75 18 13.75M15.75 16L15 16M18 13.75V13M16.409 14.409L15.8787 13.8787M20.1213 18.1213L19.591 17.591M16.409 17.591L15.8787 18.1213M20.1213 13.8787L19.591 14.409" stroke="#111928" stroke-width="2" stroke-linecap="round" stroke-linejoin="round"/>
</svg>
