<svg width="24" height="24" viewBox="0 0 24 24" fill="none" xmlns="http://www.w3.org/2000/svg">
<path d="M6 2C4.89543 2 4 2.89543 4 4V8C4 8.55228 4.44772 9 5 9C5.55228 9 6 8.55228 6 8V4H18V11H16C15.4477 11 15 11.4477 15 12V14H14C13.4477 14 13 14.4477 13 15C13 15.5523 13.4477 16 14 16H19C19.5523 16 20 15.5523 20 15V3.85714C20 2.98529 19.3667 2 18.268 2H6Z" fill="#0F172B"/>
<path d="M6 11.5C6 9.567 7.567 8 9.5 8C11.433 8 13 9.567 13 11.5C13 13.433 11.433 15 9.5 15C7.567 15 6 13.433 6 11.5Z" fill="#0F172B"/>
<path d="M4 20C4 17.7909 5.79086 16 8 16H11C13.2091 16 15 17.7909 15 20C15 21.1046 14.1046 22 13 22H6C4.89543 22 4 21.1046 4 20Z" fill="#0F172B"/>
</svg>
