<svg width="24" height="24" viewBox="0 0 24 24" fill="none" xmlns="http://www.w3.org/2000/svg">
<path d="M3 4.92857C3 3.90506 3.80497 3 4.88889 3H19.1111C20.195 3 21 3.90506 21 4.92857V13H18V11C18 10.4477 17.5523 10 17 10H13C12.4477 10 12 10.4477 12 11V13H3V4.92857Z" fill="#0F172B"/>
<path d="M3 15V16.0714C3 17.0949 3.80497 18 4.88889 18H8.36497L7.2318 19.3598C6.87824 19.7841 6.93556 20.4146 7.35984 20.7682C7.78412 21.1218 8.41468 21.0644 8.76825 20.6402L10.9684 18H13.0316L15.2318 20.6402C15.5853 21.0644 16.2159 21.1218 16.6402 20.7682C17.0644 20.4146 17.1218 19.7841 16.7682 19.3598L15.635 18H19.1111C20.195 18 21 17.0949 21 16.0714V15H3Z" fill="#0F172B"/>
<path d="M16 12V13H14V12H16Z" fill="#0F172B"/>
</svg>
