<svg width="24" height="24" viewBox="0 0 24 24" fill="none" xmlns="http://www.w3.org/2000/svg">
<path fill-rule="evenodd" clip-rule="evenodd" d="M17.6647 3.69423C17.5836 3.44172 17.4056 3.23176 17.1697 3.11055C16.9338 2.98934 16.6594 2.9668 16.4069 3.0479L10.6942 4.88252C10.5679 4.92309 10.4553 4.98641 10.3593 5.06649C10.2478 5.02354 10.1266 5 10 5H4C3.44772 5 3 5.44772 3 6V12C3 13.8638 4.27477 15.4299 6 15.874V19H5C4.44772 19 4 19.4477 4 20C4 20.5523 4.44772 21 5 21H9C9.55228 21 10 20.5523 10 20C10 19.4477 9.55228 19 9 19H8V15.874C9.72523 15.4299 11 13.8638 11 12V9.10505L11.8825 11.853C12.4524 13.6276 14.145 14.7289 15.9234 14.6242L16.8792 17.6005L15.9271 17.9062C15.4013 18.0751 15.1119 18.6383 15.2808 19.1641C15.4497 19.6899 16.0128 19.9793 16.5387 19.8104L20.3471 18.5873C20.8729 18.4185 21.1623 17.8553 20.9934 17.3295C20.8246 16.8036 20.2614 16.5143 19.7356 16.6831L18.7834 16.9889L17.8276 14.0126C19.3344 13.0623 20.0693 11.1814 19.4994 9.40686L17.6647 3.69423ZM9 7V8H5V7H9ZM16.0663 5.25788L16.3721 6.20998L12.5636 7.43307L12.2579 6.48096L16.0663 5.25788Z" fill="#383838"/>
</svg>
