<svg width="24" height="24" viewBox="0 0 24 24" fill="none" xmlns="http://www.w3.org/2000/svg">
<path fill-rule="evenodd" clip-rule="evenodd" d="M9 15C9 11.6863 11.6863 9 15 9C18.3137 9 21 11.6863 21 15C21 18.3137 18.3137 21 15 21C11.6863 21 9 18.3137 9 15ZM12.8448 13.1446C13.0806 12.6017 13.5084 12.1657 14.0454 11.9194C14.0865 11.4048 14.5171 11 15.0422 11C15.5584 11 15.9832 11.3911 16.0366 11.8931C16.4628 12.0439 16.8457 12.3008 17.148 12.6416C17.5146 13.0547 17.4768 13.6868 17.0636 14.0533C16.6505 14.4198 16.0185 14.382 15.6519 13.9689C15.5571 13.8619 15.431 13.7875 15.2916 13.756C15.2535 13.7474 15.2159 13.7366 15.1791 13.7236C15.0837 13.6899 14.979 13.6937 14.8862 13.7341C14.8491 13.7503 14.815 13.7719 14.7848 13.7979C14.8729 13.8954 15.0351 14.0025 15.24 14.0524C15.8263 14.1952 16.3666 14.5156 16.7442 14.9529C17.1175 15.3853 17.4125 16.044 17.2078 16.7747C17.1955 16.8188 17.1801 16.862 17.1619 16.9039C16.936 17.423 16.5346 17.8444 16.0301 18.0955C15.9552 18.5736 15.5414 18.9394 15.0422 18.9394C14.5761 18.9394 14.1845 18.6206 14.0736 18.189C13.5998 18.0423 13.1746 17.7666 12.8467 17.3909C12.4835 16.9749 12.5263 16.3432 12.9424 15.98C13.3584 15.6168 13.9901 15.6596 14.3533 16.0757C14.4483 16.1844 14.5754 16.2603 14.7162 16.2922C14.7538 16.3007 14.7909 16.3114 14.8272 16.3242C14.9228 16.3579 15.0276 16.3541 15.1205 16.3136C15.1575 16.2975 15.1915 16.276 15.2216 16.2501C15.1323 16.1518 14.9697 16.045 14.7668 15.9956C14.1817 15.8531 13.6419 15.5344 13.2639 15.0969C12.889 14.6631 12.598 14.007 12.7975 13.2788C12.8101 13.233 12.8258 13.1881 12.8448 13.1446ZM14.7291 13.7183C14.7291 13.7183 14.7307 13.7209 14.7319 13.7258C14.7294 13.7208 14.7291 13.7183 14.7291 13.7183ZM15.2789 16.3314C15.2789 16.3314 15.2773 16.3288 15.276 16.3237C15.2785 16.3289 15.2789 16.3314 15.2789 16.3314Z" fill="#111928"/>
<path fill-rule="evenodd" clip-rule="evenodd" d="M4 14C4.55228 14 5 14.4477 5 15V19C5 19.5523 4.55228 20 4 20C3.44772 20 3 19.5523 3 19V15C3 14.4477 3.44772 14 4 14Z" fill="#111928"/>
<path fill-rule="evenodd" clip-rule="evenodd" d="M7 12C7.55228 12 8 12.4477 8 13V19C8 19.5523 7.55228 20 7 20C6.44772 20 6 19.5523 6 19V13C6 12.4477 6.44772 12 7 12Z" fill="#111928"/>
<path fill-rule="evenodd" clip-rule="evenodd" d="M13.5 4C13.5 3.44772 13.9477 3 14.5 3H18C18.5523 3 19 3.44772 19 4V7C19 7.55228 18.5523 8 18 8C17.4477 8 17 7.55228 17 7V6.20377L14.6585 8.25258C14.3094 8.558 13.7962 8.58332 13.4188 8.31373L10.5254 6.24708L6.61394 9.28935C6.17799 9.62842 5.54972 9.54989 5.21065 9.11394C4.87158 8.67799 4.95011 8.04972 5.38606 7.71065L9.88606 4.21065C10.2352 3.93908 10.7213 3.92917 11.0812 4.18627L13.9372 6.22621L15.3386 5H14.5C13.9477 5 13.5 4.55228 13.5 4Z" fill="#111928"/>
</svg>
