<svg width="24" height="24" viewBox="0 0 24 24" fill="none" xmlns="http://www.w3.org/2000/svg">
<path fill-rule="evenodd" clip-rule="evenodd" d="M9 2C8.44772 2 8 2.44772 8 3H6C4.89543 3 4 3.89543 4 5V20C4 21.1046 4.89543 22 6 22H18C19.1046 22 20 21.1046 20 20V5C20 3.89543 19.1046 3 18 3H16C16 2.44772 15.5523 2 15 2H9ZM10 4H14V6H15C15.5523 6 16 6.44772 16 7C16 7.55228 15.5523 8 15 8H9C8.44772 8 8 7.55228 8 7C8 6.44772 8.44772 6 9 6H10V4ZM15.7071 12.7071C16.0976 12.3166 16.0976 11.6834 15.7071 11.2929C15.3166 10.9024 14.6834 10.9024 14.2929 11.2929L11 14.5858L9.70711 13.2929C9.31658 12.9024 8.68342 12.9024 8.29289 13.2929C7.90237 13.6834 7.90237 14.3166 8.29289 14.7071L10.2929 16.7071C10.6834 17.0976 11.3166 17.0976 11.7071 16.7071L15.7071 12.7071Z" fill="#111928"/>
</svg>
