<svg width="24" height="24" viewBox="0 0 24 24" fill="none" xmlns="http://www.w3.org/2000/svg">
<path d="M5.99997 17C5.44768 17 4.99997 17.4477 4.99997 18C4.99997 18.5523 5.44768 19 5.99997 19H6.00997C6.56225 19 7.00997 18.5523 7.00997 18C7.00997 17.4477 6.56225 17 6.00997 17H5.99997Z" fill="#383838"/>
<path d="M18 17C17.4477 17 17 17.4477 17 18C17 18.5523 17.4477 19 18 19H18.01C18.5623 19 19.01 18.5523 19.01 18C19.01 17.4477 18.5623 17 18.01 17H18Z" fill="#383838"/>
<path fill-rule="evenodd" clip-rule="evenodd" d="M12 13C12.5523 13 13 13.4477 13 14V14.5858L13.4142 14.1716C13.8047 13.7811 14.4379 13.7811 14.8284 14.1716C15.2189 14.5621 15.2189 15.1953 14.8284 15.5858L14.4141 16L15 16.0001C15.5523 16.0001 16 16.4478 16 17.0001C16 17.5524 15.5522 18.0001 14.9999 18.0001L14.4141 18L14.8284 18.4143C15.2189 18.8049 15.2189 19.438 14.8284 19.8285C14.4378 20.2191 13.8047 20.219 13.4141 19.8285L13 19.4143V20.0001C13 20.5523 12.5523 21.0001 12 21.0001C11.4477 21.0001 11 20.5523 11 20.0001V19.4142L10.5857 19.8284C10.1952 20.219 9.56205 20.219 9.17153 19.8284C8.781 19.4379 8.781 18.8048 9.17153 18.4142L9.58571 18L8.99999 18.0001C8.44771 18.0001 7.99998 17.5524 7.99997 17.0001C7.99996 16.4478 8.44766 16.0001 8.99995 16.0001L9.58571 16L9.17155 15.5859C8.78101 15.1954 8.78099 14.5622 9.1715 14.1717C9.56202 13.7812 10.1952 13.7811 10.5857 14.1717L11 14.5859V14C11 13.4477 11.4477 13 12 13Z" fill="#383838"/>
<path d="M9.21869 3.96216C10.4071 3.18407 11.8367 2.86175 13.244 3.0546C14.6513 3.24745 15.9414 3.94247 16.8767 5.01156C17.7198 5.97531 18.2233 7.18449 18.3173 8.454C18.9202 8.62197 19.4757 8.94308 19.9261 9.39346C20.6137 10.0811 21 11.0137 21 11.9862C21 12.9311 20.6323 13.9435 19.9261 14.6498C19.2844 15.2914 18.47 15.5779 17.6745 15.6397C17.5306 15.3573 17.3433 15.1007 17.1213 14.8787C17.1213 14.111 16.8284 13.3432 16.2426 12.7574C15.6568 12.1716 14.8891 11.8787 14.1213 11.8787C13.5784 11.3358 12.8284 11.0001 12 11.0001C11.1715 11.0001 10.4215 11.3359 9.87861 11.8788C9.11083 11.8788 8.34306 12.1717 7.75728 12.7576C7.17154 13.3433 6.87867 14.1111 6.87866 14.8788C6.6929 15.0646 6.53139 15.2746 6.39928 15.5037C5.62473 15.3004 4.91033 14.8946 4.33429 14.3186C3.47996 13.4642 3 12.3055 3 11.0973C3 9.9392 3.38455 8.75443 4.27157 7.86741C5.01436 7.12462 6.01764 6.6847 7.03085 6.57121C7.48509 5.51023 8.24378 4.60048 9.21869 3.96216Z" fill="#383838"/>
</svg>
