<svg width="24" height="24" viewBox="0 0 24 24" fill="none" xmlns="http://www.w3.org/2000/svg">
<path d="M13.3825 4.07582C11.8291 3.86296 10.2512 4.21873 8.9395 5.07756C7.84261 5.79574 6.9937 6.82522 6.49592 8.02547C5.355 8.14105 4.28257 8.64637 3.46447 9.46448C2.52678 10.4022 2 11.6739 2 13C2 14.3261 2.52678 15.5979 3.46447 16.5355C4.40215 17.4732 5.67392 18 7 18L10 18V14C9.48816 14 8.97631 13.8047 8.58579 13.4142C7.80474 12.6332 7.80474 11.3668 8.58579 10.5858L10.5858 8.58579C11.3668 7.80474 12.6332 7.80474 13.4142 8.58579L15.4142 10.5858C16.1953 11.3668 16.1953 12.6332 15.4142 13.4142C15.0237 13.8047 14.5118 14 14 14V18H18C19.0609 18 20.0783 17.5786 20.8284 16.8284C21.5786 16.0783 22 15.0609 22 14C22 12.9391 21.5786 11.9217 20.8284 11.1716C20.316 10.6591 19.6788 10.3001 18.9882 10.124C18.9017 8.69053 18.3424 7.32199 17.3922 6.23587C16.3599 5.05583 14.9358 4.28868 13.3825 4.07582Z" fill="#111928"/>
<path d="M12.7071 9.29289C12.3166 8.90237 11.6834 8.90237 11.2929 9.29289L9.29289 11.2929C8.90237 11.6834 8.90237 12.3166 9.29289 12.7071C9.68342 13.0976 10.3166 13.0976 10.7071 12.7071L11 12.4142V19C11 19.5523 11.4477 20 12 20C12.5523 20 13 19.5523 13 19V12.4142L13.2929 12.7071C13.6834 13.0976 14.3166 13.0976 14.7071 12.7071C15.0976 12.3166 15.0976 11.6834 14.7071 11.2929L12.7071 9.29289Z" fill="#111928"/>
</svg>
