<svg width="24" height="24" viewBox="0 0 24 24" fill="none" xmlns="http://www.w3.org/2000/svg">
<path fill-rule="evenodd" clip-rule="evenodd" d="M5 6C5 4.34315 6.34315 3 8 3C9.65685 3 11 4.34315 11 6C11 7.30622 10.1652 8.41746 9 8.82929V9C9 11.2091 10.7909 13 13 13H13.1707C13.5825 11.8348 14.6938 11 16 11C17.6569 11 19 12.3431 19 14C19 15.6569 17.6569 17 16 17C14.6938 17 13.5825 16.1652 13.1707 15H13C11.4633 15 10.0615 14.4223 9 13.4722V15.1707C10.1652 15.5825 11 16.6938 11 18C11 19.6569 9.65685 21 8 21C6.34315 21 5 19.6569 5 18C5 16.6938 5.83481 15.5825 7 15.1707V8.82929C5.83481 8.41746 5 7.30622 5 6Z" fill="#111928"/>
</svg>
