<svg width="24" height="24" viewBox="0 0 24 24" fill="none" xmlns="http://www.w3.org/2000/svg">
<path d="M8 3C6.34315 3 5 4.34315 5 6C5 7.30622 5.83481 8.41746 7 8.82929V15.1707C5.83481 15.5825 5 16.6938 5 18C5 19.6569 6.34315 21 8 21C9.65685 21 11 19.6569 11 18C11 16.6938 10.1652 15.5825 9 15.1707V15C9 13.8954 9.89543 13 11 13H12C14.4703 13 16.5222 11.2085 16.9274 8.85392C18.1303 8.46329 19 7.3332 19 6C19 4.34315 17.6569 3 16 3C14.3431 3 13 4.34315 13 6C13 7.26661 13.7849 8.34988 14.8949 8.78991C14.5482 10.0635 13.3835 11 12 11H11C10.2714 11 9.58835 11.1948 9 11.5351V8.82929C10.1652 8.41746 11 7.30622 11 6C11 4.34315 9.65685 3 8 3Z" fill="#111928"/>
</svg>
