<svg width="24" height="24" viewBox="0 0 24 24" fill="none" xmlns="http://www.w3.org/2000/svg">
<path fill-rule="evenodd" clip-rule="evenodd" d="M12 8C11.4477 8 11 8.44772 11 9V19H9C8.44772 19 8 19.4477 8 20C8 20.5523 8.44772 21 9 21H20C20.5523 21 21 20.5523 21 20V9C21 8.44772 20.5523 8 20 8H12ZM16 18C14.8954 18 14 17.1046 14 16C14 14.8954 14.8954 14 16 14C17.1046 14 18 14.8954 18 16C18 17.1046 17.1046 18 16 18Z" fill="#111928"/>
<path fill-rule="evenodd" clip-rule="evenodd" d="M5 3C3.89543 3 3 3.89543 3 5V11H9V9C9 7.34315 10.3431 6 12 6H20C20.3506 6 20.6872 6.06015 21 6.17071V5C21 3.89543 20.1046 3 19 3H5ZM9 13H3V15C3 16.1046 3.89543 17 5 17H9V13Z" fill="#111928"/>
</svg>
