<svg width="24" height="24" viewBox="0 0 24 24" fill="none" xmlns="http://www.w3.org/2000/svg">
<path fill-rule="evenodd" clip-rule="evenodd" d="M6.4452 17.555C3.321 14.4308 3.321 9.3655 6.4452 6.24131C7.46743 5.21907 8.69603 4.53176 9.99695 4.17848C10.0025 4.2793 10.0116 4.37597 10.0234 4.46704C10.113 5.15341 10.4223 5.81818 10.9488 6.34471C11.3336 6.72949 11.7905 6.99753 12.2757 7.14916C11.8857 8.39776 12.1852 9.8153 13.1743 10.8044C14.2144 11.8445 15.7282 12.1221 17.0211 11.6372C17.177 12.0477 17.4201 12.4327 17.7499 12.7625C18.3458 13.3584 19.1191 13.6698 19.8983 13.6976C19.5736 15.1113 18.8608 16.4531 17.7589 17.555C14.6347 20.6792 9.56939 20.6792 6.4452 17.555ZM15.0973 5.67688C15.133 5.75487 15.1579 5.83506 15.1725 5.91576C15.2446 6.2846 15.1048 6.67887 14.7814 6.91545C14.7144 6.96446 14.6499 7.01954 14.5885 7.08092C13.9508 7.71861 13.9508 8.7525 14.5885 9.39019C15.2262 10.0279 16.2601 10.0279 16.8978 9.39019C17.0083 9.27973 17.0986 9.15871 17.17 9.03101C17.4348 8.55685 18.0297 8.38079 18.51 8.63441C18.9903 8.88804 19.1803 9.47863 18.938 9.96472C18.8312 10.179 18.7921 10.4209 18.8229 10.6568C18.856 10.9099 18.9689 11.153 19.1641 11.3483C19.4292 11.6133 19.7862 11.7289 20.135 11.6935C20.1824 11.6887 20.23 11.6873 20.2776 11.6892C20.3885 11.6939 20.8028 11.6821 21.0309 11.6734C21.3174 11.6626 21.5948 11.7752 21.7926 11.9827C21.9905 12.1902 22.0897 12.4726 22.0652 12.7583C21.8707 15.023 20.9061 17.2363 19.1731 18.9692C15.2679 22.8745 8.93623 22.8745 5.03098 18.9692C1.12574 15.064 1.12574 8.73234 5.03098 4.8271C6.72724 3.13084 8.88386 2.17056 11.0985 1.94837C11.461 1.91201 11.8145 2.0756 12.0214 2.37541C12.2283 2.67522 12.2558 3.06381 12.0932 3.38976C12.0098 3.55704 11.9646 3.88622 12.0066 4.20815C12.0411 4.47258 12.1592 4.7266 12.3631 4.9305C12.7428 5.31024 13.3076 5.39672 13.7717 5.18416C14.2738 4.95416 14.8673 5.17476 15.0973 5.67688ZM7.65709 9.41501C7.65709 8.86272 8.1048 8.41501 8.65709 8.41501H8.66709C9.21937 8.41501 9.66709 8.86272 9.66709 9.41501C9.66709 9.96729 9.21937 10.415 8.66709 10.415H8.65709C8.1048 10.415 7.65709 9.96729 7.65709 9.41501ZM6.2711 13C6.2711 12.4477 6.71882 12 7.2711 12H7.2811C7.83339 12 8.2811 12.4477 8.2811 13C8.2811 13.5523 7.83339 14 7.2811 14H7.2711C6.71882 14 6.2711 13.5523 6.2711 13ZM14.9586 13.9155C14.4063 13.9155 13.9586 14.3632 13.9586 14.9155C13.9586 15.4678 14.4063 15.9155 14.9586 15.9155H14.9686C15.5209 15.9155 15.9686 15.4678 15.9686 14.9155C15.9686 14.3632 15.5209 13.9155 14.9686 13.9155H14.9586ZM10.0001 17C10.0001 16.4477 10.4478 16 11.0001 16H11.0101C11.5624 16 12.0101 16.4477 12.0101 17C12.0101 17.5523 11.5624 18 11.0101 18H11.0001C10.4478 18 10.0001 17.5523 10.0001 17Z" fill="#383838"/>
</svg>
