<svg width="24" height="24" viewBox="0 0 24 24" fill="none" xmlns="http://www.w3.org/2000/svg">
<path d="M9.98189 4.50602C11.2307 3.83133 12.7693 3.83133 14.0181 4.50602L17.9819 6.6475C18.3453 6.84382 18.6681 7.08859 18.9431 7.37023L12.0143 10.9723L5.20654 7.225C5.44684 7.00392 5.71869 6.80927 6.01811 6.6475L9.98189 4.50602Z" fill="#383838"/>
<path d="M4.16678 8.84364C4.05757 9.18783 4 9.5493 4 9.91844V14.2014C4 15.5508 4.7693 16.7977 6.01811 17.4723L9.98189 19.6138C10.3024 19.787 10.642 19.9157 10.9909 20V12.6L4.16678 8.84364Z" fill="#383838"/>
<path d="M13.009 20C13.3579 19.9157 13.6976 19.787 14.0181 19.6138L17.9819 17.4723C19.2307 16.7977 20 15.5508 20 14.2014V9.91844C20 9.61843 19.962 9.32348 19.8891 9.03877L13.009 12.6155V20Z" fill="#383838"/>
</svg>
