<svg width="24" height="24" viewBox="0 0 24 24" fill="none" xmlns="http://www.w3.org/2000/svg">
<path d="M12 7.20548C16.4183 7.20548 20 6.04019 20 4.60274C20 3.16529 16.4183 2 12 2C7.58172 2 4 3.16529 4 4.60274C4 6.04019 7.58172 7.20548 12 7.20548Z" fill="#111928"/>
<path d="M12 22C16.963 22 20 20.3145 20 19.3973V14.9929C19.948 15.0247 19.888 15.0521 19.835 15.0827C19.677 15.1759 19.514 15.2647 19.342 15.3501C19.26 15.3907 19.176 15.4312 19.09 15.4696C18.897 15.5584 18.696 15.6427 18.49 15.7227C18.427 15.7469 18.366 15.7721 18.301 15.7962C16.2609 16.4847 14.1355 16.8215 12.001 16.7945C9.86648 16.8215 7.74112 16.4847 5.701 15.7962C5.636 15.7721 5.575 15.7469 5.512 15.7227C5.305 15.6427 5.104 15.5584 4.912 15.4696C4.826 15.4312 4.742 15.3907 4.66 15.3501C4.488 15.2647 4.325 15.1759 4.167 15.0827C4.114 15.0521 4.054 15.0247 4.002 14.9929V19.3973C4 20.3145 7.037 22 12 22Z" fill="#111928"/>
<path d="M19.09 8.07233C18.897 8.1611 18.696 8.24548 18.49 8.32548C18.427 8.34959 18.366 8.37479 18.301 8.3989C16.2609 9.0874 14.1355 9.4242 12.001 9.39726C9.86648 9.4242 7.74112 9.0874 5.701 8.3989C5.636 8.37479 5.575 8.34959 5.512 8.32548C5.305 8.24548 5.104 8.1611 4.912 8.07233C4.826 8.03397 4.742 7.99342 4.66 7.95288C4.488 7.8674 4.325 7.77863 4.167 7.68548C4.112 7.65479 4.052 7.6274 4 7.59562V12C4 12.9173 7.037 14.6027 12 14.6027C16.963 14.6027 20 12.9173 20 12V7.59562C19.948 7.6274 19.888 7.65479 19.835 7.68548C19.677 7.77863 19.514 7.8674 19.342 7.95288C19.26 7.99342 19.176 8.03397 19.09 8.07233Z" fill="#111928"/>
</svg>
