<svg width="24" height="24" viewBox="0 0 24 24" fill="none" xmlns="http://www.w3.org/2000/svg">
<path fill-rule="evenodd" clip-rule="evenodd" d="M9.02735 4.36983C9.84826 3.59377 10.8712 3 12.0498 3C13.2284 3 14.2513 3.59377 15.0723 4.36983C15.8977 5.15021 16.6053 6.19275 17.1795 7.29561C18.3186 9.48385 19.0498 12.1425 19.0498 14C19.0498 17.866 15.9158 21 12.0498 21C8.18381 21 5.0498 17.866 5.0498 14C5.0498 12.1425 5.78103 9.48385 6.92015 7.29561C7.49426 6.19275 8.20189 5.15021 9.02735 4.36983ZM11.8296 10.2864C12.1378 9.82808 12.0161 9.20672 11.5578 8.89854C11.0995 8.59036 10.4782 8.71206 10.17 9.17036C9.79523 9.72768 9.509 10.4272 9.3163 11.0822C9.12396 11.7359 8.99982 12.4306 8.99982 13C8.99982 13.5523 9.44753 14 9.99982 14C10.5521 14 10.9998 13.5523 10.9998 13C10.9998 12.6811 11.0768 12.1844 11.235 11.6467C11.3928 11.1102 11.6066 10.6181 11.8296 10.2864Z" fill="#383838"/>
</svg>
