<svg width="24" height="24" viewBox="0 0 24 24" fill="none" xmlns="http://www.w3.org/2000/svg">
<path fill-rule="evenodd" clip-rule="evenodd" d="M4.99787 7.7801C6.72929 6.34494 9.19846 5 12 5C14.8015 5 17.2707 6.34494 19.0021 7.7801C19.8749 8.50351 20.5911 9.2747 21.0981 9.96347C21.351 10.3071 21.5629 10.6452 21.7161 10.9597C21.8554 11.2456 22 11.6185 22 12C22 12.3815 21.8554 12.7544 21.7161 13.0403C21.5629 13.3548 21.351 13.6929 21.0981 14.0365C20.5911 14.7253 19.8749 15.4965 19.0021 16.2199C17.2707 17.6551 14.8015 19 12 19C9.19846 19 6.72929 17.6551 4.99787 16.2199C4.12513 15.4965 3.40886 14.7253 2.9019 14.0365C2.649 13.6929 2.43705 13.3548 2.28385 13.0403C2.14458 12.7544 2 12.3815 2 12C2 11.6185 2.14458 11.2456 2.28385 10.9597C2.43705 10.6452 2.649 10.3071 2.9019 9.96347C3.40886 9.2747 4.12513 8.50351 4.99787 7.7801ZM12 15C13.6569 15 15 13.6569 15 12C15 10.3431 13.6569 9 12 9C10.3431 9 9 10.3431 9 12C9 13.6569 10.3431 15 12 15Z" fill="#111928"/>
</svg>
