<svg width="24" height="24" viewBox="0 0 24 24" fill="none" xmlns="http://www.w3.org/2000/svg">
<path d="M21.9716 11.5173C21.9641 11.3926 21.9126 11.2745 21.8261 11.1843C21.7396 11.0941 21.6238 11.0376 21.4995 11.025C21.3751 11.0123 21.2504 11.0443 21.1475 11.1152C21.0446 11.1861 20.9703 11.2914 20.9378 11.4121C20.8578 11.702 20.685 11.9578 20.4459 12.1403C20.2067 12.3228 19.9144 12.422 19.6136 12.4226C19.3036 12.4237 19.0013 12.3265 18.75 12.1452C18.4987 11.9638 18.3112 11.7076 18.2145 11.4131C18.1842 11.3016 18.1181 11.2032 18.0263 11.133C17.9345 11.0628 17.8222 11.0248 17.7066 11.0248C17.5911 11.0248 17.4787 11.0628 17.3869 11.133C17.2951 11.2032 17.229 11.3016 17.1987 11.4131C17.1071 11.6956 16.932 11.9437 16.6964 12.1245C16.4609 12.3053 16.176 12.4105 15.8794 12.426C15.5829 12.4415 15.2886 12.3667 15.0355 12.2114C14.7823 12.0561 14.5823 11.8277 14.4617 11.5563L14.4133 11.3521L14.4343 11.2057V9.3688H16.7376C17.4356 9.3688 18.105 9.09153 18.5985 8.59799C19.0921 8.10444 19.3693 7.43506 19.3693 6.73708C19.3573 6.03906 19.0731 5.37332 18.5774 4.88174C18.0817 4.39015 17.4136 4.11158 16.7155 4.10537L16.1892 4.12748L16.0586 3.75798C15.8779 3.24457 15.5425 2.79982 15.0985 2.48498C14.6545 2.17013 14.1238 2.0007 13.5796 2C13.1176 2.00059 12.6642 2.12412 12.2658 2.35791L12.0005 2.51266L11.7353 2.35791C11.3369 2.12412 10.8834 2.00059 10.4215 2C9.87655 2.00012 9.34508 2.16941 8.90045 2.48449C8.45583 2.79958 8.11998 3.24492 7.93927 3.75904L7.80874 4.12853L7.29082 4.10537C6.59205 4.11101 5.92309 4.38924 5.42641 4.8808C4.92974 5.37236 4.64461 6.03841 4.63173 6.73708C4.63173 7.43506 4.909 8.10444 5.40255 8.59799C5.89609 9.09153 6.56547 9.3688 7.26345 9.3688H9.60988V11.2563L9.60252 11.3457L9.57515 11.4268C9.50076 11.7142 9.33216 11.9684 9.0963 12.1488C8.86043 12.3291 8.57091 12.4252 8.27403 12.4216C7.95039 12.4192 7.63476 12.3207 7.36727 12.1385C7.09979 11.9563 6.89252 11.6987 6.77184 11.3984C6.73832 11.2898 6.67059 11.1951 6.57876 11.1282C6.48693 11.0614 6.37594 11.026 6.26236 11.0274C6.14878 11.0288 6.03871 11.067 5.94858 11.1361C5.85846 11.2052 5.79312 11.3017 5.76232 11.411C5.66467 11.706 5.47628 11.9625 5.22408 12.144C4.97187 12.3255 4.66876 12.4227 4.35804 12.4216C4.05721 12.4205 3.76497 12.3211 3.52576 12.1387C3.28654 11.9563 3.11341 11.7008 3.03271 11.411C2.99555 11.2922 2.91898 11.1895 2.81563 11.1201C2.71229 11.0506 2.58834 11.0184 2.46426 11.0289H2.45583C2.32879 11.0461 2.21238 11.109 2.12846 11.2059C2.04454 11.3028 1.99887 11.427 2.00002 11.5552V12.0005C2.00309 14.6519 3.05769 17.1938 4.93249 19.0686C6.80728 20.9433 9.34917 21.998 12.0005 22.001C13.3146 22.0042 14.6161 21.7458 15.8293 21.241C17.0425 20.7363 18.1432 19.9952 19.0672 19.0609C19.9985 18.1291 20.737 17.0229 21.2402 15.8054C21.7435 14.5879 22.0016 13.2832 22 11.9658L21.9716 11.5173ZM8.31613 15.6849C8.31613 15.4767 8.37787 15.2732 8.49354 15.1001C8.60921 14.927 8.77362 14.792 8.96597 14.7124C9.15833 14.6327 9.36999 14.6118 9.57419 14.6525C9.77839 14.6931 9.96596 14.7933 10.1132 14.9405C10.2604 15.0878 10.3607 15.2753 10.4013 15.4795C10.4419 15.6837 10.421 15.8954 10.3414 16.0878C10.2617 16.2801 10.1268 16.4445 9.95366 16.5602C9.78055 16.6759 9.57702 16.7376 9.36882 16.7376C9.08963 16.7376 8.82188 16.6267 8.62446 16.4293C8.42704 16.2319 8.31613 15.9641 8.31613 15.6849ZM9.89516 19.3693C9.89516 18.8109 10.117 18.2754 10.5118 17.8806C10.9066 17.4858 11.4422 17.2639 12.0005 17.2639C12.5589 17.2639 13.0944 17.4858 13.4893 17.8806C13.8841 18.2754 14.1059 18.8109 14.1059 19.3693H9.89516ZM14.6322 16.7376C14.424 16.7376 14.2205 16.6759 14.0474 16.5602C13.8743 16.4445 13.7394 16.2801 13.6597 16.0878C13.58 15.8954 13.5592 15.6837 13.5998 15.4795C13.6404 15.2753 13.7407 15.0878 13.8879 14.9405C14.0351 14.7933 14.2227 14.6931 14.4269 14.6525C14.6311 14.6118 14.8427 14.6327 15.0351 14.7124C15.2274 14.792 15.3919 14.927 15.5075 15.1001C15.6232 15.2732 15.6849 15.4767 15.6849 15.6849C15.6849 15.9641 15.574 16.2319 15.3766 16.4293C15.1792 16.6267 14.9114 16.7376 14.6322 16.7376Z" fill="#111928"/>
</svg>
