<svg width="24" height="24" viewBox="0 0 24 24" fill="none" xmlns="http://www.w3.org/2000/svg">
<path fill-rule="evenodd" clip-rule="evenodd" d="M12 2C6.47715 2 2 6.47715 2 12C2 17.5228 6.47715 22 12 22C17.5228 22 22 17.5228 22 12C22 6.47715 17.5228 2 12 2ZM7.99001 9C7.99001 8.44772 8.43772 8 8.99001 8H9.00001C9.55229 8 10 8.44772 10 9C10 9.55228 9.55229 10 9.00001 10H8.99001C8.43772 10 7.99001 9.55228 7.99001 9ZM14 9C14 8.44772 14.4477 8 15 8H15.01C15.5623 8 16.01 8.44772 16.01 9C16.01 9.55228 15.5623 10 15.01 10H15C14.4477 10 14 9.55228 14 9ZM8.49417 16.2158C7.50726 15.3974 6.83727 14.26 6.60001 13H17.41C17.1727 14.26 16.5028 15.3974 15.5158 16.2158C14.5289 17.0343 13.2871 17.4822 12.005 17.4822C10.7229 17.4822 9.48108 17.0343 8.49417 16.2158Z" fill="#111928"/>
</svg>
