<svg width="24" height="24" viewBox="0 0 24 24" fill="none" xmlns="http://www.w3.org/2000/svg">
<path fill-rule="evenodd" clip-rule="evenodd" d="M6.5 3.85C6.5 3.38056 6.89175 3 7.375 3H12.625C13.1082 3 13.5 3.38056 13.5 3.85H15.25C16.2165 3.85 17 4.61112 17 5.55V6H16C15.2722 6 14.2678 5.93927 13.566 6.09531C13.2612 6.16307 12.966 6.26617 12.6862 6.40205C12.666 6.40069 12.6456 6.4 12.625 6.4H11.75V4.7H8.25V6.4H7.375C6.89175 6.4 6.5 6.78056 6.5 7.25C6.5 7.71944 6.89175 8.1 7.375 8.1H10.7344L9.0783 9.87106C8.66732 10.3106 8.3645 10.833 8.18616 11.3969C7.96931 12.0826 8 13.268 8 14V19C8 19.7286 8.19479 20.4117 8.53513 21H4.75C3.7835 21 3 20.2389 3 19.3V5.55C3 4.61112 3.7835 3.85 4.75 3.85H6.5Z" fill="#111928"/>
<path fill-rule="evenodd" clip-rule="evenodd" d="M14 8.04765V12H10.0931C10.1823 11.718 10.3337 11.4568 10.5392 11.237L12.9732 8.63401C13.2508 8.33709 13.6097 8.13442 14 8.04765ZM16 8V12C16 13.1046 15.1046 14 14 14H10V19C10 20.1046 10.8954 21 12 21H19C20.1046 21 21 20.1046 21 19V10C21 8.89543 20.1046 8 19 8H16Z" fill="#111928"/>
</svg>
