<svg width="24" height="24" viewBox="0 0 24 24" fill="none" xmlns="http://www.w3.org/2000/svg">
<path fill-rule="evenodd" clip-rule="evenodd" d="M9 2.22117V7H4.22117C4.31517 6.81709 4.43766 6.64812 4.58579 6.5L8.5 2.58579C8.64812 2.43766 8.81709 2.31517 9 2.22117ZM11 2V7C11 8.10457 10.1046 9 9 9H4V20C4 21.1046 4.89543 22 6 22H18C19.1046 22 20 21.1046 20 20V4C20 2.89543 19.1046 2 18 2H11ZM11.3944 11.5528C11.2195 11.2029 10.8566 10.9871 10.4656 11.0006C10.0746 11.0141 9.72739 11.2543 9.57693 11.6154L7.07693 17.6154C6.94833 17.924 6.98249 18.2765 7.16795 18.5547C7.35342 18.8329 7.66565 19 8 19H16C16.3466 19 16.6684 18.8205 16.8507 18.5257C17.0329 18.2309 17.0494 17.8628 16.8944 17.5528L14.8944 13.5528C14.7394 13.2428 14.435 13.0352 14.0898 13.004C13.7446 12.9729 13.408 13.1227 13.2 13.4L12.6708 14.1056L11.3944 11.5528ZM13 9.5C13 8.67157 13.6716 8 14.5 8C15.3284 8 16 8.67157 16 9.5C16 10.3284 15.3284 11 14.5 11C13.6716 11 13 10.3284 13 9.5Z" fill="#111928"/>
</svg>
