<svg width="24" height="24" viewBox="0 0 24 24" fill="none" xmlns="http://www.w3.org/2000/svg">
<path fill-rule="evenodd" clip-rule="evenodd" d="M8 12.7324C7.70583 12.9026 7.36429 13 7 13H3V19C3 20.1046 3.89543 21 5 21H12C13.1046 21 14 20.1046 14 19L12 19C9.79086 19 8 17.2091 8 15V12.7324ZM7 11V7.05359C6.59156 7.15012 6.21965 7.37382 5.94142 7.69842L3.48149 10.5683C3.36829 10.7004 3.27366 10.8456 3.1991 11H7Z" fill="#111928"/>
<path fill-rule="evenodd" clip-rule="evenodd" d="M14 3.05359V7H10.1991C10.2737 6.84564 10.3683 6.70041 10.4815 6.56834L12.9414 3.69842C13.2196 3.37382 13.5916 3.15012 14 3.05359ZM16 3V7C16 8.10457 15.1046 9 14 9H10V15C10 16.1046 10.8954 17 12 17H19C20.1046 17 21 16.1046 21 15V5C21 3.89543 20.1046 3 19 3H16Z" fill="#111928"/>
</svg>
