<svg width="24" height="24" viewBox="0 0 24 24" fill="none" xmlns="http://www.w3.org/2000/svg">
<path fill-rule="evenodd" clip-rule="evenodd" d="M9 7V2.22117C8.81709 2.31517 8.64812 2.43766 8.5 2.58579L4.58579 6.5C4.43766 6.64812 4.31517 6.81709 4.22117 7H9ZM11 7V2H18C19.1046 2 20 2.89543 20 4V20C20 21.1046 19.1046 22 18 22H6C4.89543 22 4 21.1046 4 20V9H9C10.1046 9 11 8.10457 11 7ZM9.98058 11.8039C9.87227 11.2623 9.34545 10.9111 8.80389 11.0194C8.26233 11.1277 7.91111 11.6546 8.01942 12.1961L9.01942 17.1961C9.10044 17.6012 9.42225 17.9148 9.82933 17.9853C10.2364 18.0558 10.6449 17.8688 10.8575 17.5145L12 15.6103L13.1425 17.5145C13.3551 17.8688 13.7636 18.0558 14.1707 17.9853C14.5778 17.9148 14.8996 17.6012 14.9806 17.1961L15.9806 12.1961C16.0889 11.6546 15.7377 11.1277 15.1961 11.0194C14.6546 10.9111 14.1277 11.2623 14.0194 11.8039L13.5267 14.2675L12.8575 13.1522C12.6768 12.851 12.3513 12.6667 12 12.6667C11.6487 12.6667 11.3232 12.851 11.1425 13.1522L10.4733 14.2675L9.98058 11.8039Z" fill="#111928"/>
</svg>
