<svg width="24" height="24" viewBox="0 0 24 24" fill="none" xmlns="http://www.w3.org/2000/svg">
<path fill-rule="evenodd" clip-rule="evenodd" d="M9 7V2.22117C8.81709 2.31517 8.64812 2.43766 8.5 2.58579L4.58579 6.5C4.43766 6.64812 4.31517 6.81709 4.22117 7H9ZM11 7V2H18C19.1046 2 20 2.89543 20 4V10.4097C18.6731 9.22213 16.9209 8.5 15 8.5C10.8579 8.5 7.5 11.8579 7.5 16C7.5 18.4534 8.67801 20.6317 10.4993 22H6C4.89543 22 4 21.1046 4 20V9H9C10.1046 9 11 8.10457 11 7Z" fill="#111928"/>
<path fill-rule="evenodd" clip-rule="evenodd" d="M9 16C9 12.6863 11.6863 10 15 10C18.3137 10 21 12.6863 21 16C21 19.3137 18.3137 22 15 22C11.6863 22 9 19.3137 9 16ZM15 13C15.5523 13 16 13.4477 16 14V15H17C17.5523 15 18 15.4477 18 16C18 16.5523 17.5523 17 17 17H16V18C16 18.5523 15.5523 19 15 19C14.4477 19 14 18.5523 14 18V17H13C12.4477 17 12 16.5523 12 16C12 15.4477 12.4477 15 13 15H14V14C14 13.4477 14.4477 13 15 13Z" fill="#111928"/>
</svg>
