<svg width="24" height="24" viewBox="0 0 24 24" fill="none" xmlns="http://www.w3.org/2000/svg">
<path fill-rule="evenodd" clip-rule="evenodd" d="M7 9V15C7 17.2091 8.79086 19 11 19H15C15 20.1046 14.1046 21 13 21H6C4.89543 21 4 20.1046 4 19V9C4 7.89543 4.89543 7 6 7H7C7.00004 7.73724 7 8.26062 7 9Z" fill="#111928"/>
<path fill-rule="evenodd" clip-rule="evenodd" d="M13 3.05359V7H9.1991C9.27366 6.84564 9.36829 6.70041 9.48149 6.56834L11.9414 3.69842C12.2196 3.37382 12.5916 3.15012 13 3.05359ZM15 3V7C15 8.10457 14.1046 9 13 9H9V15C9 16.1046 9.89543 17 11 17H18C19.1046 17 20 16.1046 20 15V5C20 3.89543 19.1046 3 18 3H15Z" fill="#111928"/>
</svg>
