<svg width="24" height="24" viewBox="0 0 24 24" fill="none" xmlns="http://www.w3.org/2000/svg">
<path fill-rule="evenodd" clip-rule="evenodd" d="M9 2.22117V7H4.22117C4.31517 6.81709 4.43766 6.64812 4.58579 6.5L8.5 2.58579C8.64812 2.43766 8.81709 2.31517 9 2.22117ZM11 2V7C11 8.10457 10.1046 9 9 9H4C2.89543 9 2 9.89543 2 11V18C2 19.1046 2.89543 20 4 20C4 21.1046 4.89543 22 6 22H18C19.1046 22 20 21.1046 20 20C21.1046 20 22 19.1046 22 18V11C22 9.89543 21.1046 9 20 9V4C20 2.89543 19.1046 2 18 2H11ZM12.0182 10.8282C11.4265 10.8174 10.8528 11.0312 10.4125 11.4265C9.97212 11.8218 9.69787 12.3692 9.64498 12.9586L9.6444 12.9656C9.59455 13.5682 9.78196 14.1665 10.1667 14.633C10.5513 15.0993 11.1034 15.3972 11.7043 15.4631L12.2396 15.522C12.285 15.527 12.3308 15.5289 12.3765 15.5276C12.421 15.5264 12.4652 15.5361 12.5051 15.556C12.545 15.5759 12.5794 15.6052 12.6053 15.6415C12.6312 15.6778 12.6478 15.7199 12.6536 15.7641C12.6594 15.8083 12.6543 15.8533 12.6386 15.895L12.6312 15.9154C12.6241 15.9358 12.6179 15.9497 12.6134 15.9588C12.5996 15.9638 12.5747 15.9715 12.5346 15.9788C12.4679 15.991 12.3724 16 12.238 16H11.108C10.5557 16 10.108 16.4477 10.108 17C10.108 17.5523 10.5557 18 11.108 18H12.238C12.6553 18 13.13 17.9494 13.5616 17.7213C14.0321 17.4726 14.3427 17.0726 14.5152 16.5866C14.6429 16.2409 14.6846 15.8692 14.6366 15.5037C14.5881 15.1345 14.4496 14.7829 14.2333 14.4798C14.017 14.1767 13.7295 13.9314 13.3962 13.7655C13.0862 13.6112 12.7455 13.53 12.4 13.5276L11.9217 13.4749C11.8388 13.4659 11.7627 13.4248 11.7096 13.3604C11.6573 13.297 11.6314 13.2158 11.6373 13.1339C11.6458 13.0496 11.6854 12.9714 11.7485 12.9148C11.8122 12.8576 11.8952 12.8265 11.9808 12.8278L11.9818 12.8278L12.9218 12.8478C13.474 12.8595 13.9311 12.4214 13.9428 11.8692C13.9545 11.317 13.5164 10.8599 12.9642 10.8482L12.0212 10.8282L12.0182 10.8282ZM19.9507 12.3101C20.122 11.7851 19.8352 11.2206 19.3101 11.0493C18.7851 10.878 18.2206 11.1648 18.0493 11.6899L17.4793 13.4374L16.9572 11.7106C16.7974 11.182 16.2393 10.883 15.7106 11.0428C15.182 11.2026 14.883 11.7607 15.0428 12.2894L16.4858 17.0624C16.6122 17.4805 16.9954 17.7682 17.4321 17.7729C17.8689 17.7777 18.2582 17.4984 18.3937 17.0831L19.9507 12.3101ZM6.1895 13.1895C6.31084 13.0682 6.4754 13 6.647 13H7.665C8.21729 13 8.665 12.5523 8.665 12C8.665 11.4477 8.21729 11 7.665 11H6.647C5.94497 11 5.2717 11.2789 4.77529 11.7753C4.27888 12.2717 4 12.945 4 13.647V15.353C4 16.055 4.27888 16.7283 4.77529 17.2247C5.2717 17.7211 5.94497 18 6.647 18H7.665C8.21729 18 8.665 17.5523 8.665 17C8.665 16.4477 8.21729 16 7.665 16H6.647C6.4754 16 6.31084 15.9318 6.1895 15.8105C6.06817 15.6892 6 15.5246 6 15.353V13.647C6 13.4754 6.06817 13.3108 6.1895 13.1895Z" fill="#111928"/>
</svg>
