<svg width="24" height="24" viewBox="0 0 24 24" fill="none" xmlns="http://www.w3.org/2000/svg">
<path fill-rule="evenodd" clip-rule="evenodd" d="M9 7V2.22117C8.81709 2.31517 8.64812 2.43766 8.5 2.58579L4.58579 6.5C4.43766 6.64812 4.31517 6.81709 4.22117 7H9ZM11 7V2H18C19.1046 2 20 2.89543 20 4V13.2929L18 11.2929C17.6095 10.9024 16.9763 10.9024 16.5858 11.2929C16.1953 11.6834 16.1953 12.3166 16.5858 12.7071L16.8787 13H10.2929C9.74061 13 9.29289 13.4477 9.29289 14C9.29289 14.5523 9.74061 15 10.2929 15H16.8787L16.5858 15.2929C16.1953 15.6834 16.1953 16.3166 16.5858 16.7071C16.9763 17.0976 17.6095 17.0976 18 16.7071L20 14.7071V20C20 21.1046 19.1046 22 18 22H6C4.89543 22 4 21.1046 4 20V9H9C10.1046 9 11 8.10457 11 7Z" fill="#111928"/>
</svg>
