<svg width="24" height="24" viewBox="0 0 24 24" fill="none" xmlns="http://www.w3.org/2000/svg">
<path fill-rule="evenodd" clip-rule="evenodd" d="M9 7V2.22117C8.81709 2.31517 8.64812 2.43766 8.5 2.58579L4.58579 6.5C4.43766 6.64812 4.31517 6.81709 4.22117 7H9ZM11 7V2H18C19.1046 2 20 2.89543 20 4V20C20 21.1046 19.1046 22 18 22H6C4.89543 22 4 21.1046 4 20V9H9C10.1046 9 11 8.10457 11 7ZM9.00052 11C7.89595 11 7.00052 11.8954 7.00052 13V15C7.00052 16.1046 7.89595 17 9.00052 17H11.0005C12.1051 17 13.0005 16.1046 13.0005 15V13C13.0005 11.8954 12.1051 11 11.0005 11H9.00052ZM9.00052 13H11.0005V15H9.00052V13ZM16.9655 12.443C16.9655 12.0421 16.7261 11.68 16.3573 11.5229C15.9884 11.3659 15.5615 11.4443 15.2725 11.7221L14.0045 12.9411C13.8084 13.1296 13.6975 13.3899 13.6975 13.662V14.395C13.6975 14.6958 13.833 14.9807 14.0663 15.1706L15.3343 16.2026C15.6336 16.4462 16.0464 16.4958 16.3949 16.3301C16.7434 16.1644 16.9655 15.8129 16.9655 15.427V12.443Z" fill="#111928"/>
</svg>
