<svg width="24" height="24" viewBox="0 0 24 24" fill="none" xmlns="http://www.w3.org/2000/svg">
<path d="M5 10V7.91421C5 7.649 5.10536 7.39464 5.29289 7.20711L9.20711 3.29289C9.39464 3.10536 9.649 3 9.91422 3H18C18.5523 3 19 3.44772 19 4V10M5 19V20C5 20.5523 5.44772 21 6 21H18C18.5523 21 19 20.5523 19 20V19M10 3V7C10 7.55228 9.55229 8 9 8H5M7.665 17H6.647C6.21019 17 5.79127 16.8265 5.4824 16.5176C5.17352 16.2087 5 15.7898 5 15.353V13.647C5 13.2102 5.17352 12.7913 5.4824 12.4824C5.79127 12.1735 6.21019 12 6.647 12H7.665M16 12L17.443 16.773L19 12M12.943 11.848L12 11.828C11.6612 11.8218 11.3326 11.9443 11.0805 12.1706C10.8283 12.397 10.6713 12.7105 10.641 13.048C10.6126 13.3909 10.7193 13.7313 10.9382 13.9967C11.1571 14.2621 11.471 14.4316 11.813 14.469L12.349 14.528C12.5574 14.5223 12.764 14.5679 12.9506 14.6607C13.1373 14.7536 13.2982 14.8909 13.4193 15.0606C13.5404 15.2303 13.618 15.4272 13.6451 15.6339C13.6722 15.8406 13.6482 16.0508 13.575 16.246C13.375 16.817 12.939 17 12.238 17H11.108" stroke="#111928" stroke-width="2" stroke-linecap="round" stroke-linejoin="round"/>
</svg>
