<svg width="24" height="24" viewBox="0 0 24 24" fill="none" xmlns="http://www.w3.org/2000/svg">
<path fill-rule="evenodd" clip-rule="evenodd" d="M9 7V2.22117C8.81709 2.31517 8.64812 2.43766 8.5 2.58579L4.58579 6.5C4.43766 6.64812 4.31517 6.81709 4.22117 7H9ZM11 7V2H18C19.1046 2 20 2.89543 20 4V9.70281L15.689 8.12223C15.2445 7.95927 14.7567 7.95926 14.3122 8.12218L9.31166 9.95518C8.51399 10.2476 7.9881 11.012 8.00021 11.8615C8.03062 13.9953 8.58248 16.0889 9.60715 17.9673C10.4554 19.5223 11.6065 20.8913 12.989 22H6C4.89543 22 4 21.1046 4 20V9H9C10.1046 9 11 8.10457 11 7Z" fill="#111928"/>
<path fill-rule="evenodd" clip-rule="evenodd" d="M15.3447 9.06111C15.1225 8.97964 14.8786 8.97963 14.6563 9.06109L9.65583 10.8941C9.257 11.0403 8.99405 11.4225 9.0001 11.8473C9.02819 13.8177 9.53777 15.7519 10.485 17.4884C11.4322 19.2248 12.7891 20.7124 14.4406 21.8285C14.7789 22.0572 15.2223 22.0572 15.5606 21.8284C17.2118 20.7121 18.5684 19.2245 19.5154 17.4881C20.4624 15.7516 20.9718 13.8175 20.9999 11.8472C21.0059 11.4225 20.743 11.0403 20.3442 10.8941L15.3447 9.06111ZM15 19.7654C14.9999 19.7653 15.0001 19.7655 15 19.7654C16.1364 18.8837 17.0764 17.7831 17.7595 16.5305C18.439 15.2847 18.8482 13.9192 18.9658 12.5189L15.0005 11.0651L15 19.7654Z" fill="#111928"/>
</svg>
