<svg width="24" height="24" viewBox="0 0 24 24" fill="none" xmlns="http://www.w3.org/2000/svg">
<path d="M5 10V7.91421C5 7.649 5.10536 7.39464 5.29289 7.20711L9.20711 3.29289C9.39464 3.10536 9.649 3 9.91421 3H18C18.5523 3 19 3.44772 19 4V10M5 19V20C5 20.5523 5.44772 21 6 21H18C18.5523 21 19 20.5523 19 20V19M10 3V7C10 7.55228 9.55228 8 9 8H5M19 17.0062H18.6646C18.2278 17.0062 17.8089 16.8326 17.5 16.5238C17.1911 16.2149 17.0176 15.796 17.0176 15.3591V13.6532C17.0176 13.2163 17.1911 12.7974 17.5 12.4885C17.8089 12.1797 18.2278 12.0062 18.6646 12.0062L19 12M5 12V17H6.375C6.8059 16.9997 7.21907 16.8284 7.52376 16.5238C7.82845 16.2191 7.99974 15.8059 8 15.375V13.625C7.99974 13.1941 7.82845 12.7809 7.52376 12.4762C7.21907 12.1716 6.8059 12.0003 6.375 12H5ZM14 13.5V15.5C14 16.3284 13.3284 17 12.5 17C11.6716 17 11 16.3284 11 15.5V13.5C11 12.6716 11.6716 12 12.5 12C13.3284 12 14 12.6716 14 13.5Z" stroke="#111928" stroke-width="2" stroke-linecap="round" stroke-linejoin="round"/>
</svg>
