<svg width="24" height="24" viewBox="0 0 24 24" fill="none" xmlns="http://www.w3.org/2000/svg">
<path d="M9 7V2.22117C8.81709 2.31517 8.64812 2.43766 8.5 2.58579L4.58579 6.5C4.43766 6.64812 4.31517 6.81709 4.22117 7H9Z" fill="#111928"/>
<path fill-rule="evenodd" clip-rule="evenodd" d="M11 7V2H18C19.1046 2 20 2.89543 20 4V20C20 21.1046 19.1046 22 18 22H6C4.89543 22 4 21.1046 4 20V9H9C10.1046 9 11 8.10457 11 7ZM15.7071 12.7071C16.0976 12.3166 16.0976 11.6834 15.7071 11.2929C15.3166 10.9024 14.6834 10.9024 14.2929 11.2929L11 14.5858L9.70711 13.2929C9.31658 12.9024 8.68342 12.9024 8.29289 13.2929C7.90237 13.6834 7.90237 14.3166 8.29289 14.7071L10.2929 16.7071C10.6834 17.0976 11.3166 17.0976 11.7071 16.7071L15.7071 12.7071Z" fill="#111928"/>
</svg>
