<svg width="24" height="24" viewBox="0 0 24 24" fill="none" xmlns="http://www.w3.org/2000/svg">
<path d="M10.9998 18L10.1463 17.1464C10.0525 17.0527 9.99984 16.9255 9.99984 16.7929V12.3757C9.99984 12.1335 9.91192 11.8995 9.75242 11.7172L4.45103 5.6585C3.88527 5.01192 4.34445 4 5.20361 4H18.7545C19.6202 4 20.0769 5.02544 19.4978 5.66896L16.4998 9M13.9998 18.3754C14.3345 18.7369 14.7823 18.9888 15.2786 19.0949C15.7558 19.2533 16.2789 19.2354 16.7427 19.0449C17.2064 18.8543 17.5765 18.5053 17.7783 18.0679C18.0245 17.2393 17.142 16.3342 16.0048 16.0731C14.8675 15.812 13.9888 14.9127 14.2312 14.0783C14.4328 13.6408 14.8028 13.2915 15.2667 13.1009C15.7305 12.9104 16.2538 12.8927 16.7309 13.0513C17.2219 13.1558 17.6658 13.403 17.9998 13.758M16.0601 19.168V20M16.0601 12V12.9771" stroke="#111928" stroke-width="2" stroke-linecap="round" stroke-linejoin="round"/>
</svg>
