<svg width="24" height="24" viewBox="0 0 24 24" fill="none" xmlns="http://www.w3.org/2000/svg">
<path fill-rule="evenodd" clip-rule="evenodd" d="M9.70707 4.29289C9.31655 3.90237 8.68338 3.90237 8.29286 4.2929C7.90234 4.68342 7.90234 5.31659 8.29286 5.70711L10.0875 7.50172C9.19398 7.7699 8.3834 8.12915 7.68891 8.53851C6.93738 8.98149 6.29335 9.49991 5.82496 10.0553C5.77102 10.1192 5.71822 10.1851 5.66706 10.2528L3.70711 8.29288C3.31658 7.90236 2.68342 7.90236 2.29289 8.29288C1.90237 8.68341 1.90237 9.31657 2.29289 9.7071L4.58579 12L2.29289 14.2929C1.90237 14.6834 1.90237 15.3166 2.29289 15.7071C2.68342 16.0976 3.31658 16.0976 3.70711 15.7071L5.66706 13.7471C5.71822 13.8148 5.77102 13.8807 5.82496 13.9447C6.29335 14.5001 6.93738 15.0185 7.68891 15.4615C7.74179 15.4926 7.79535 15.5235 7.84956 15.5541L6.90463 16.7938L6.89997 16.8C5.91107 18.1185 6.85198 20 8.5 20H9.99997C10.578 20 11.0467 19.7182 11.359 19.4684C11.6852 19.2074 11.9618 18.8842 12.175 18.6C12.3925 18.31 12.57 18.0254 12.6919 17.8164C12.7535 17.7108 12.8023 17.622 12.8365 17.5582C12.8537 17.5262 12.8672 17.5003 12.8769 17.4815L12.8886 17.4587L12.8923 17.4515L12.8944 17.4472C12.968 17.3 13.0391 17.1602 13.0898 16.9997C13.2279 17.0056 13.2771 16.9987 13.4168 16.9997C13.3049 16.8186 13.2031 16.6409 13.1193 16.4746C12.2362 14.9489 11.7139 13.601 11.7114 12.136C11.7089 10.6746 12.2246 9.23743 13.1139 7.53665C13.1227 7.51966 13.1321 7.50294 13.1419 7.4865C13.2343 7.33222 13.3294 7.16686 13.4228 7.00024C13.0745 7.00254 12.8035 7.01324 12.4665 7.04493C12.3897 6.96812 12.2851 6.87087 12.2071 6.79289L9.70707 4.29289ZM11.007 16.7345C10.5648 16.6395 10.1383 16.5216 9.73097 16.385L8.5 18H9.96745C9.9855 17.9921 10.0323 17.9685 10.1097 17.9066C10.2522 17.7926 10.4132 17.6158 10.575 17.4C10.7325 17.19 10.8675 16.9746 10.9643 16.8086C10.9797 16.7823 10.9939 16.7575 11.007 16.7345Z" fill="#383838"/>
<path fill-rule="evenodd" clip-rule="evenodd" d="M19.1606 15.1191C18.2206 15.7774 17.0399 16.4016 15.6562 16.7394C15.3607 16.3346 15.0606 15.8888 14.8965 15.5568C14.8866 15.5368 14.876 15.5171 14.8648 15.4978C14.0477 14.091 13.7131 13.0972 13.7114 12.1326C13.7098 11.1605 14.0455 10.0758 14.8732 8.48815C15.1148 8.08284 15.3671 7.62145 15.5692 7.2398C16.9904 7.57231 18.2009 8.20878 19.1606 8.88088C20.5524 9.85563 21.4688 10.9405 21.8111 11.4151C22.063 11.7643 22.063 12.2356 21.8111 12.5849C21.4688 13.0595 20.5524 14.1443 19.1606 15.1191ZM14.9867 11.6277C14.9867 11.0754 15.4344 10.6277 15.9867 10.6277H15.9967C16.549 10.6277 16.9967 11.0754 16.9967 11.6277C16.9967 12.18 16.549 12.6277 15.9967 12.6277H15.9867C15.4344 12.6277 14.9867 12.18 14.9867 11.6277Z" fill="#383838"/>
</svg>
