<svg width="24" height="24" viewBox="0 0 24 24" fill="none" xmlns="http://www.w3.org/2000/svg">
<path fill-rule="evenodd" clip-rule="evenodd" d="M13.8749 7.00779C13.7511 7.00265 13.6262 7.00002 13.5 7.00002C11.2429 7.00002 9.19349 7.65169 7.68891 8.53854C6.93738 8.98152 6.29335 9.49994 5.82496 10.0553C5.77102 10.1193 5.71822 10.1852 5.66706 10.2529L3.70711 8.29291C3.31658 7.90239 2.68342 7.90239 2.29289 8.29291C1.90237 8.68344 1.90237 9.3166 2.29289 9.70713L4.58579 12L2.29289 14.2929C1.90237 14.6834 1.90237 15.3166 2.29289 15.7071C2.68342 16.0977 3.31658 16.0977 3.70711 15.7071L5.66706 13.7472C5.71822 13.8149 5.77102 13.8808 5.82496 13.9447C6.29335 14.5001 6.93738 15.0185 7.68891 15.4615C9.19349 16.3484 11.2429 17 13.5 17C13.6262 17 13.7513 16.9974 13.8751 16.9922C13.9982 17.0078 14.1248 17.0007 14.2482 16.969C16.2494 16.8026 17.9159 15.9908 19.1606 15.1191C20.5524 14.1444 21.4688 13.0596 21.8111 12.5849C22.063 12.2357 22.063 11.7644 21.8111 11.4151C21.4688 10.9405 20.5524 9.85566 19.1606 8.88091C17.9159 8.0092 16.2493 7.1974 14.248 7.03103C14.1243 6.99925 13.9978 6.99219 13.8749 7.00779ZM14.5451 14.9217C13.9593 13.809 13.7128 12.9601 13.7114 12.1326C13.71 11.2869 13.9639 10.356 14.5749 9.08288C15.9194 9.29092 17.0802 9.86565 18.0133 10.5191C18.7464 11.0325 19.3185 11.5807 19.7027 12C19.3185 12.4194 18.7464 12.9675 18.0133 13.4809C17.0733 14.1392 15.9022 14.7176 14.5451 14.9217ZM12.3336 14.9303C11.935 13.9942 11.713 13.09 11.7114 12.136C11.7097 11.1313 11.9529 10.138 12.394 9.0627C10.9546 9.22585 9.6725 9.69092 8.70449 10.2615C8.09879 10.6185 7.64447 11.0001 7.35382 11.3447C7.04738 11.7081 7 11.9349 7 12C7 12.0651 7.04738 12.292 7.35382 12.6553C7.64447 12.9999 8.09879 13.3815 8.70449 13.7385C9.65893 14.3011 10.9187 14.7611 12.3336 14.9303ZM14.9866 11.6277C14.9866 11.0755 15.4344 10.6277 15.9866 10.6277H15.9966C16.5489 10.6277 16.9966 11.0755 16.9966 11.6277C16.9966 12.18 16.5489 12.6277 15.9966 12.6277H15.9866C15.4344 12.6277 14.9866 12.18 14.9866 11.6277Z" fill="#383838"/>
</svg>
