<svg width="24" height="24" viewBox="0 0 24 24" fill="none" xmlns="http://www.w3.org/2000/svg">
<path d="M3 15V18C3 18.5523 3.44772 19 4 19H8V15M3 15V11M3 15H8M3 11V6C3 5.44772 3.44772 5 4 5H20C20.5523 5 21 5.44772 21 6V7.98935M3 11H8V15M17.4708 19.1718L16.6012 17.733L13.7848 17.498L11.2118 13.2407L12.6991 10.4045L14.1432 12.7938C14.5297 13.4334 15.3615 13.6385 16.0011 13.252C16.6407 12.8654 16.8458 12.0336 16.4593 11.394L15.0153 9.00475H18.1506L20.7607 13.2819L19.6894 15.8666L20.5589 17.3054" stroke="#111928" stroke-width="2" stroke-linecap="round" stroke-linejoin="round"/>
</svg>
