<svg width="24" height="24" viewBox="0 0 24 24" fill="none" xmlns="http://www.w3.org/2000/svg">
<path fill-rule="evenodd" clip-rule="evenodd" d="M8.0498 2C7.49752 2 7.0498 2.44772 7.0498 3C7.0498 3.55228 7.49752 4 8.0498 4H9.0498V7.31532C6.35122 8.47866 4.0498 10.9457 4.0498 14.2C4.0498 18.5349 7.65905 22 12.0498 22C16.4406 22 20.0498 18.5349 20.0498 14.2C20.0498 10.9457 17.7484 8.47866 15.0498 7.31532V4H16.0498C16.6021 4 17.0498 3.55228 17.0498 3C17.0498 2.44772 16.6021 2 16.0498 2H8.0498ZM11.0498 8V4H13.0498V8C13.0498 8.42712 13.3211 8.8071 13.7251 8.9458C16.1157 9.76663 17.9452 11.69 18.0455 14H6.05414C6.15445 11.69 7.98391 9.76663 10.3745 8.9458C10.7785 8.8071 11.0498 8.42712 11.0498 8Z" fill="#383838"/>
</svg>
