<svg width="24" height="24" viewBox="0 0 24 24" fill="none" xmlns="http://www.w3.org/2000/svg">
<path d="M4 5C4 4.44772 4.44772 4 5 4H16.5858C16.851 4 17.1054 4.10536 17.2929 4.29289L19.7071 6.70711C19.8946 6.89464 20 7.149 20 7.41421V19C20 19.5523 19.5523 20 19 20H5C4.44772 20 4 19.5523 4 19V5Z" stroke="#111928" stroke-width="2" stroke-linejoin="round"/>
<path d="M8 4H16V8H8V4Z" stroke="#111928" stroke-width="2" stroke-linejoin="round"/>
<path d="M15 14C15 15.6569 13.6569 17 12 17C10.3431 17 9 15.6569 9 14C9 12.3431 10.3431 11 12 11C13.6569 11 15 12.3431 15 14Z" stroke="#111928" stroke-width="2" stroke-linejoin="round"/>
</svg>
