<svg width="24" height="24" viewBox="0 0 24 24" fill="none" xmlns="http://www.w3.org/2000/svg">
<path fill-rule="evenodd" clip-rule="evenodd" d="M5 3C3.89543 3 3 3.89543 3 5V19C3 20.1046 3.89543 21 5 21H19C20.1046 21 21 20.1046 21 19V7.41421C21 6.88378 20.7893 6.37507 20.4142 6L18 3.58579C17.6249 3.21071 17.1162 3 16.5858 3H5ZM15 14C15 15.6569 13.6569 17 12 17C10.3431 17 9 15.6569 9 14C9 12.3431 10.3431 11 12 11C13.6569 11 15 12.3431 15 14ZM8 7V5H16V7C16 7.55228 15.5523 8 15 8H9C8.44772 8 8 7.55228 8 7Z" fill="#111928"/>
</svg>
