<svg width="24" height="24" viewBox="0 0 24 24" fill="none" xmlns="http://www.w3.org/2000/svg">
<path fill-rule="evenodd" clip-rule="evenodd" d="M5 3C3.89543 3 3 3.89543 3 5V19C3 20.1046 3.89543 21 5 21H19C20.1046 21 21 20.1046 21 19V7.41421C21 6.88378 20.7893 6.37507 20.4142 6L18 3.58579C17.6249 3.21071 17.1162 3 16.5858 3H5ZM8 14C8 13.4477 8.44772 13 9 13H15C15.5523 13 16 13.4477 16 14V20H8V14ZM9 7V5H15V7C15 7.55228 14.5523 8 14 8H10C9.44772 8 9 7.55228 9 7Z" fill="#111928"/>
<path fill-rule="evenodd" clip-rule="evenodd" d="M14 17H10V15H14V17Z" fill="#111928"/>
</svg>
