<svg width="24" height="24" viewBox="0 0 24 24" fill="none" xmlns="http://www.w3.org/2000/svg">
<path d="M11 16H13M19.7071 6.70711L17.2929 4.29289C17.1054 4.10536 16.851 4 16.5858 4H5C4.44772 4 4 4.44772 4 5V19C4 19.5523 4.44772 20 5 20H19C19.5523 20 20 19.5523 20 19V7.41421C20 7.149 19.8946 6.89464 19.7071 6.70711ZM16 20V14C16 13.4477 15.5523 13 15 13H9C8.44772 13 8 13.4477 8 14V20H16ZM9 4H15V7C15 7.55228 14.5523 8 14 8H10C9.44772 8 9 7.55228 9 7V4Z" stroke="#111928" stroke-width="2" stroke-linecap="round"/>
</svg>
