<svg width="24" height="24" viewBox="0 0 24 24" fill="none" xmlns="http://www.w3.org/2000/svg">
<path fill-rule="evenodd" clip-rule="evenodd" d="M10.4819 7.52489L9.12262 10.9817H11.8412L10.4819 7.52489ZM12.6277 12.9817L12.9954 13.9166C13.1975 14.4306 13.778 14.6834 14.2919 14.4813C14.8059 14.2792 15.0587 13.6987 14.8566 13.1847L11.5147 4.68607C11.1454 3.74689 9.81848 3.7469 9.44917 4.68607L6.76294 11.5173C6.72961 11.5807 6.7029 11.6482 6.68372 11.7187L5.40063 14.9817H4.98193C4.42965 14.9817 3.98193 15.4294 3.98193 15.9817C3.98193 16.534 4.42965 16.9817 4.98193 16.9817H7.73193C8.28422 16.9817 8.73193 16.534 8.73193 15.9817C8.73193 15.4294 8.28422 14.9817 7.73193 14.9817H7.5497L8.33616 12.9817H12.6277ZM17.9742 13.3427L17.1283 13.8762L16.2825 13.3427L17.1283 12.0017L17.9742 13.3427ZM17.1283 15.8639C17.1045 15.9079 17.0806 15.9524 17.0567 15.9972C16.8259 16.4297 16.6051 16.8774 16.4445 17.2712C16.3642 17.468 16.3045 17.638 16.266 17.7769C16.247 17.8456 16.2349 17.9004 16.2278 17.9422C16.2206 17.9852 16.2204 18.0042 16.2204 18.0037C16.2204 18.5971 16.6691 19 17.1283 19C17.5876 19 18.0363 18.5971 18.0363 18.0037C18.0363 18.0042 18.0361 17.9852 18.0288 17.9422C18.0218 17.9004 18.0097 17.8456 17.9907 17.7769C17.9522 17.638 17.8924 17.468 17.8122 17.2712C17.6516 16.8774 17.4308 16.4297 17.2 15.9972C17.1761 15.9524 17.1522 15.9079 17.1283 15.8639ZM17.1283 13.8762C16.2825 13.3427 16.2826 13.3426 16.2825 13.3427L16.2805 13.346L16.2757 13.3536L16.2582 13.3815C16.2432 13.4056 16.2217 13.4403 16.1945 13.4846C16.1401 13.5731 16.063 13.6998 15.9707 13.855C15.7867 14.1645 15.54 14.5911 15.2921 15.0558C15.0458 15.5174 14.7897 16.0326 14.5925 16.516C14.4118 16.9591 14.2204 17.5148 14.2204 18.0037C14.2204 19.6154 15.4801 21 17.1283 21C18.7765 21 20.0363 19.6154 20.0363 18.0037C20.0363 17.5148 19.8449 16.9591 19.6642 16.516C19.467 16.0326 19.2109 15.5174 18.9646 15.0558C18.7167 14.5911 18.47 14.1645 18.286 13.855C18.1937 13.6998 18.1166 13.5731 18.0622 13.4846C18.035 13.4403 18.0135 13.4056 17.9985 13.3815L17.981 13.3536L17.9762 13.346L17.9742 13.3427C17.9741 13.3426 17.9742 13.3427 17.1283 13.8762Z" fill="#111928"/>
</svg>
