<svg width="24" height="24" viewBox="0 0 24 24" fill="none" xmlns="http://www.w3.org/2000/svg">
<path d="M5.02664 10.9C5.76779 9.8656 6.72671 9.00557 7.83612 8.38022C8.94553 7.75488 10.1786 7.37935 11.4488 7.27999V6.07999C11.4441 5.68902 11.5507 5.30476 11.7563 4.97193C11.9618 4.6391 12.2579 4.3714 12.61 4.19999C12.9466 4.03604 13.3229 3.97063 13.6953 4.01134C14.0677 4.05204 14.4208 4.1972 14.714 4.42999L20.2054 8.73799C20.4541 8.9354 20.655 9.1863 20.7931 9.47199C20.9312 9.75768 21.0029 10.0708 21.0029 10.388C21.0029 10.7052 20.9312 11.0183 20.7931 11.304C20.655 11.5897 20.4541 11.8406 20.2054 12.038L14.716 16.346C14.4228 16.5787 14.0694 16.7236 13.697 16.764C13.3246 16.8043 12.9484 16.7384 12.612 16.574C12.2606 16.4028 11.9651 16.1357 11.7598 15.8036C11.5544 15.4716 11.4476 15.0882 11.4518 14.698V13.756C6.12171 15.04 5.24004 19.007 5.20197 19.197C5.15932 19.4144 5.04556 19.6115 4.87856 19.7573C4.71155 19.9032 4.50075 19.9896 4.27922 20.003H4.21911C4.00607 20.0028 3.79864 19.9348 3.62694 19.8089C3.45524 19.6831 3.32821 19.5058 3.2643 19.303C2.93122 17.8585 2.91631 16.3591 3.22058 14.9082C3.52485 13.4574 4.14106 12.0899 5.02664 10.9Z" fill="#111928"/>
</svg>
