<svg width="24" height="24" viewBox="0 0 24 24" fill="none" xmlns="http://www.w3.org/2000/svg">
<path d="M4.24776 19C3.22076 15.77 5.27477 8.23197 12.4658 8.23197V6.07897C12.4571 5.88438 12.504 5.69134 12.601 5.52246C12.6981 5.35358 12.8413 5.21585 13.0138 5.1254C13.1863 5.03495 13.381 4.99552 13.5751 5.01174C13.7692 5.02796 13.9547 5.09915 14.1098 5.21697L19.5888 9.52397C19.7172 9.62784 19.8208 9.7591 19.8919 9.90816C19.9631 10.0572 20 10.2203 20 10.3855C20 10.5506 19.9631 10.7137 19.8919 10.8628C19.8208 11.0118 19.7172 11.1431 19.5888 11.247L14.1098 15.554C13.9547 15.6717 13.7694 15.7429 13.5753 15.7592C13.3813 15.7754 13.1867 15.7361 13.0142 15.6457C12.8418 15.5554 12.6986 15.4178 12.6015 15.2491C12.5043 15.0804 12.4573 14.8875 12.4658 14.693V12.539C5.27477 13.616 4.24776 19 4.24776 19Z" stroke="#111928" stroke-width="2" stroke-linecap="round" stroke-linejoin="round"/>
</svg>
