<svg width="24" height="24" viewBox="0 0 24 24" fill="none" xmlns="http://www.w3.org/2000/svg">
<path fill-rule="evenodd" clip-rule="evenodd" d="M6 2C5.72323 2 5.45884 2.11471 5.26976 2.31682C5.08067 2.51893 4.98381 2.79036 5.00222 3.06652L6.07775 19.1996C6.18281 20.7755 7.49172 22 9.07111 22H14.9289C16.5083 22 17.8172 20.7754 17.9223 19.1996L18.9978 3.06652C19.0162 2.79036 18.9193 2.51893 18.7302 2.31682C18.5412 2.11471 18.2768 2 18 2H6ZM7.2124 6.15264L7.06889 4H16.9311L16.766 6.47714L16.7481 6.49344C16.6151 6.614 16.4255 6.77421 16.2007 6.93268C15.7154 7.27477 15.2184 7.5 14.8264 7.5C14.5791 7.5 14.487 7.43567 14.1345 7.0629L14.1073 7.03414C13.7466 6.65192 13.1314 6 11.9894 6C10.8473 6 10.2321 6.65192 9.87146 7.03414L9.8443 7.0629C9.49178 7.43567 9.39962 7.5 9.15235 7.5C8.90507 7.5 8.81291 7.43567 8.46039 7.0629L8.43323 7.03414C8.18134 6.76721 7.80532 6.36873 7.2124 6.15264Z" fill="#383838"/>
</svg>
