<svg width="24" height="24" viewBox="0 0 24 24" fill="none" xmlns="http://www.w3.org/2000/svg">
<path fill-rule="evenodd" clip-rule="evenodd" d="M8.64088 4.73728C9.66227 4.26408 10.8003 4 12 4C14.9637 4 17.551 5.61162 18.9334 8.0063H18.1949C17.5447 8.0063 17.0177 8.25609 17.0177 8.90624C17.0177 9.23579 17.0177 10.9453 14.9922 10.914C13.0198 10.914 13.0198 9.18208 13.0198 8.90624C13.0198 7.47724 12.2327 7.25539 11.2681 6.98348C10.8942 6.87809 10.4937 6.76518 10.1019 6.57157C9.09777 6.07526 8.75474 5.38889 8.64088 4.73728ZM6 3.99927C5.40889 4.44327 4.86858 4.95125 4.38936 5.51293C3.92963 6.05177 3.52611 6.64002 3.1879 7.26862C3.1879 7.26862 3.1879 7.26862 3.18791 7.26862C2.43002 8.67722 2 10.2884 2 12C2 17.2887 6.10565 21.6186 11.3036 21.9761C11.3216 21.9774 11.3397 21.9786 11.3578 21.9797C11.5701 21.9932 11.7843 22 12 22C12.1721 22 12.3432 21.9957 12.5131 21.9871C12.5136 21.987 12.5141 21.987 12.5146 21.987C12.9343 21.9657 13.3472 21.9186 13.7517 21.8471C13.8081 21.8371 13.8644 21.8267 13.9204 21.8158C13.9521 21.8096 13.9838 21.8033 14.0153 21.7968C14.8062 21.635 15.563 21.3798 16.2738 21.0433C18.3057 20.0814 19.9615 18.4548 20.9606 16.4443C21.0605 16.2432 21.1539 16.0382 21.2405 15.8296C21.2473 15.8131 21.2541 15.7965 21.2609 15.7799C21.4636 15.2839 21.6276 14.7678 21.7491 14.2357C21.7658 14.1625 21.7817 14.0891 21.7968 14.0153C21.93 13.3644 22 12.6904 22 12C22 11.1703 21.8989 10.3642 21.7085 9.59337C21.7009 9.56247 21.6931 9.53163 21.6852 9.50084C21.5218 8.86588 21.2976 8.25532 21.0193 7.67574C19.4065 4.31804 15.9739 2 12 2C10.533 2 9.13977 2.31589 7.88463 2.88337C7.43982 3.08448 7.01235 3.31718 6.60509 3.57862C6.53916 3.62095 6.47376 3.66402 6.40891 3.70784C6.27008 3.80163 6.13374 3.89881 6 3.99927ZM19.3722 15.1118C19.1319 15.0386 18.8793 15 18.6216 15H18.4053C16.5246 15 15 16.5246 15 18.4053V19.4185C16.968 18.6219 18.5468 17.0649 19.3722 15.1118ZM12.1137 19.9992C12.0758 19.9997 12.038 20 12 20C7.58172 20 4 16.4183 4 12C4 10.5219 4.40087 9.1374 5.09982 7.94933C6.0509 8.49109 6.52099 9.48703 6.9354 10.365C7.14365 10.8062 7.33784 11.2177 7.57195 11.5267C8.11172 12.2392 8.63461 12.5455 9.16346 12.8553C9.68389 13.1602 10.2101 13.4684 10.7638 14.1705C12.2034 15.9956 12.1816 18.5371 12.1137 19.9992Z" fill="#383838"/>
</svg>
