<svg width="24" height="24" viewBox="0 0 24 24" fill="none" xmlns="http://www.w3.org/2000/svg">
<path d="M12.4472 4.10557C12.1657 3.96481 11.8343 3.96481 11.5528 4.10557L2.76981 8.49706L11.9893 12.8873L21 8.38195L12.4472 4.10557Z" fill="#0F172B"/>
<path d="M5 17.2222V11.7742L11.5701 14.9028C11.8481 15.0353 12.1717 15.0321 12.4472 14.8944L19 11.618V17.2222C19 17.5079 18.8771 17.7805 18.6636 17.9703L18.6611 17.9725L18.657 17.9761L18.6467 17.9851L18.6348 17.9952L18.6167 18.0104C18.5927 18.0304 18.5605 18.0566 18.5202 18.088C18.4395 18.1507 18.326 18.2345 18.1797 18.3321C17.8871 18.5271 17.4626 18.7776 16.9061 19.0249C15.7905 19.5208 14.1527 20 12 20C9.84735 20 8.20955 19.5208 7.09386 19.0249C6.53736 18.7776 6.11288 18.5271 5.8203 18.3321C5.67399 18.2345 5.5605 18.1507 5.47981 18.088C5.43945 18.0566 5.40727 18.0304 5.38325 18.0104C5.37124 18.0004 5.36127 17.9919 5.35334 17.9851L5.34296 17.9761L5.33892 17.9725L5.33718 17.971L5.33638 17.9703C5.33638 17.9703 5.33634 17.9703 5.34616 17.9591L5.34607 17.9579L5.33564 17.9696C5.12215 17.7799 5 17.5079 5 17.2222Z" fill="#0F172B"/>
<path d="M2 10.3457L4 11.298V17C4 17.5523 3.55228 18 3 18C2.44772 18 2 17.5523 2 17V10.3457Z" fill="#0F172B"/>
</svg>
