<svg width="24" height="24" viewBox="0 0 24 24" fill="none" xmlns="http://www.w3.org/2000/svg">
<path fill-rule="evenodd" clip-rule="evenodd" d="M11.2929 3.29289C11.6834 2.90237 12.3166 2.90237 12.7071 3.29289L18.7071 9.29289L20.7071 11.2929C21.0976 11.6834 21.0976 12.3166 20.7071 12.7071C20.3166 13.0976 19.6834 13.0976 19.2929 12.7071L19 12.4142V19C19 20.1046 18.1046 21 17 21H14C13.4477 21 13 20.5523 13 20V17H11V20C11 20.5523 10.5523 21 10 21H7C5.89543 21 5 20.1046 5 19V12.4142L4.70711 12.7071C4.31658 13.0976 3.68342 13.0976 3.29289 12.7071C2.90237 12.3166 2.90237 11.6834 3.29289 11.2929L5.29289 9.29289L11.2929 3.29289Z" fill="#111928"/>
</svg>
