<svg width="24" height="24" viewBox="0 0 24 24" fill="none" xmlns="http://www.w3.org/2000/svg">
<path fill-rule="evenodd" clip-rule="evenodd" d="M10 2.53525C10.5883 2.19491 11.2714 2.00012 12 2.00012C12.7286 2.00012 13.4117 2.19491 14 2.53525V21.465C13.4117 21.8053 12.7286 22.0001 12 22.0001C11.2714 22.0001 10.5883 21.8053 10 21.465V2.53525ZM13.2071 7.70717C13.5976 7.31664 13.5976 6.68348 13.2071 6.29295C12.8166 5.90243 12.1834 5.90243 11.7929 6.29295L10.7929 7.29295C10.4024 7.68348 10.4024 8.31664 10.7929 8.70717C11.1834 9.09769 11.8166 9.09769 12.2071 8.70717L13.2071 7.70717ZM13.2071 12.2072C13.5976 11.8166 13.5976 11.1835 13.2071 10.793C12.8166 10.4024 12.1834 10.4024 11.7929 10.793L10.7929 11.793C10.4024 12.1835 10.4024 12.8166 10.7929 13.2072C11.1834 13.5977 11.8166 13.5977 12.2071 13.2072L13.2071 12.2072ZM13.2071 16.7072C13.5976 16.3166 13.5976 15.6835 13.2071 15.293C12.8166 14.9024 12.1834 14.9024 11.7929 15.293L10.7929 16.293C10.4024 16.6835 10.4024 17.3166 10.7929 17.7072C11.1834 18.0977 11.8166 18.0977 12.2071 17.7072L13.2071 16.7072Z" fill="#383838"/>
<path d="M8 3.02759C5.75002 3.27631 4 5.18385 4 7.50012V16.5001C4 18.8164 5.75002 20.7239 8 20.9727V3.02759Z" fill="#383838"/>
<path d="M16 20.9727C18.25 20.7239 20 18.8164 20 16.5001L20 7.50012C20 5.18385 18.25 3.27631 16 3.02759V20.9727Z" fill="#383838"/>
</svg>
