<svg width="24" height="24" viewBox="0 0 24 24" fill="none" xmlns="http://www.w3.org/2000/svg">
<path fill-rule="evenodd" clip-rule="evenodd" d="M9.30237 3.04659C10.0136 2.39657 10.9605 2.00006 12 2.00006C13.0395 2.00006 13.9864 2.39657 14.6976 3.04659C14.793 3.01637 14.8946 3.00006 15 3.00006H15.5C17.9853 3.00006 20 5.01478 20 7.50006L20 16.5001C20 18.9853 17.9853 21.0001 15.5 21.0001H15C14.8965 21.0001 14.7947 20.984 14.6979 20.9533C13.9866 21.6035 13.0396 22.0001 12 22.0001C10.9604 22.0001 10.0134 21.6035 9.30214 20.9533C9.2053 20.984 9.10348 21.0001 9 21.0001H8.5C6.01472 21.0001 4 18.9853 4 16.5001L4 7.50006C4 5.01478 6.01472 3.00006 8.5 3.00006H9C9.10539 3.00006 9.20698 3.01637 9.30237 3.04659ZM10 6.00006L10 18.0001C10 19.1046 10.8954 20.0001 12 20.0001C13.1046 20.0001 14 19.1046 14 18.0001L14 6.00006C14 4.89549 13.1046 4.00006 12 4.00006C10.8954 4.00006 10 4.89549 10 6.00006ZM8 5.05007C6.85888 5.28171 6 6.29058 6 7.50006L6 16.5001C6 17.7095 6.85888 18.7184 8 18.9501L8 5.05007ZM16 18.9501C17.1411 18.7184 18 17.7095 18 16.5001L18 7.50006C18 6.29058 17.1411 5.28171 16 5.05007L16 18.9501ZM11.7929 6.29295C12.1834 5.90243 12.8166 5.90243 13.2071 6.29295C13.5976 6.68348 13.5976 7.31664 13.2071 7.70717L12.2071 8.70717C11.8166 9.09769 11.1834 9.09769 10.7929 8.70717C10.4024 8.31664 10.4024 7.68348 10.7929 7.29295L11.7929 6.29295ZM11.7929 10.793C12.1834 10.4024 12.8166 10.4024 13.2071 10.793C13.5976 11.1835 13.5976 11.8166 13.2071 12.2072L12.2071 13.2072C11.8166 13.5977 11.1834 13.5977 10.7929 13.2072C10.4024 12.8166 10.4024 12.1835 10.7929 11.793L11.7929 10.793ZM11.7929 15.293C12.1834 14.9024 12.8166 14.9024 13.2071 15.293C13.5976 15.6835 13.5976 16.3166 13.2071 16.7072L12.2071 17.7072C11.8166 18.0977 11.1834 18.0977 10.7929 17.7072C10.4024 17.3166 10.4024 16.6835 10.7929 16.293L11.7929 15.293Z" fill="#383838"/>
</svg>
