<svg width="24" height="24" viewBox="0 0 24 24" fill="none" xmlns="http://www.w3.org/2000/svg">
<path fill-rule="evenodd" clip-rule="evenodd" d="M5.5 3C4.94772 3 4.5 3.44772 4.5 4C4.5 4.55228 4.94772 5 5.5 5H7V7.333C7 7.95738 7.1948 8.56556 7.55627 9.07317L9.12678 11.8873C9.14863 11.9265 9.17309 11.9641 9.2 12C9.17309 12.0359 9.14863 12.0735 9.12678 12.1127L7.55627 14.9268C7.1948 15.4344 7 16.0426 7 16.667V19H5.5C4.94772 19 4.5 19.4477 4.5 20C4.5 20.5523 4.94772 21 5.5 21H18.5C19.0523 21 19.5 20.5523 19.5 20C19.5 19.4477 19.0523 19 18.5 19H17V16.667C17 16.0405 16.8039 15.4303 16.4401 14.9217L14.8243 12.1027C14.8039 12.0671 14.7813 12.0328 14.7567 12C14.7813 11.9672 14.8039 11.9329 14.8243 11.8973L16.4401 9.07831C16.8039 8.56967 17 7.95949 17 7.333V5H18.5C19.0523 5 19.5 4.55228 19.5 4C19.5 3.44772 19.0523 3 18.5 3H5.5Z" fill="#111928"/>
</svg>
