<svg width="24" height="24" viewBox="0 0 24 24" fill="none" xmlns="http://www.w3.org/2000/svg">
<path d="M16 12H8L12 21L16 12Z" fill="#383838"/>
<path d="M14 6C14 6.55228 14.4477 7 15 7C15.5523 7 16 6.55228 16 6H14ZM9.78743 9.33273C10.2473 9.63852 10.8681 9.51358 11.1738 9.05367C11.4796 8.59377 11.3547 7.97305 10.8948 7.66727L9.78743 9.33273ZM15.3893 11C14.837 11 14.3893 11.4477 14.3893 12C14.3893 12.5523 14.837 13 15.3893 13V11ZM13.1767 5.66727C12.7168 5.97305 12.5919 6.59377 12.8976 7.05367C13.2034 7.51358 13.8241 7.63852 14.2841 7.33273L13.1767 5.66727ZM8 12V11C7.66149 11 7.34597 11.1713 7.16151 11.4551C6.97705 11.7389 6.94871 12.0968 7.08619 12.4061L8 12ZM16 12L16.9138 12.4061C17.0513 12.0968 17.0229 11.7389 16.8385 11.4551C16.654 11.1713 16.3385 11 16 11V12ZM12 21L11.0862 21.4061C11.2467 21.7673 11.6048 22 12 22C12.3952 22 12.7533 21.7673 12.9138 21.4061L12 21ZM10 6C10 4.89543 10.8954 4 12 4V2C9.79086 2 8 3.79086 8 6H10ZM12 4C13.1046 4 14 4.89543 14 6H16C16 3.79086 14.2091 2 12 2V4ZM10.8948 7.66727C10.3533 7.30728 10 6.69469 10 6H8C8 7.39228 8.71216 8.6178 9.78743 9.33273L10.8948 7.66727ZM9 11C7.89543 11 7 10.1046 7 9H5C5 11.2091 6.79086 13 9 13V11ZM7 9C7 7.89543 7.89543 7 9 7V5C6.79086 5 5 6.79086 5 9H7ZM17.3893 9C17.3893 10.1046 16.4938 11 15.3893 11V13C17.5984 13 19.3893 11.2091 19.3893 9H17.3893ZM15.3893 7C16.4938 7 17.3893 7.89543 17.3893 9H19.3893C19.3893 6.79086 17.5984 5 15.3893 5V7ZM14.2841 7.33273C14.6002 7.1225 14.9789 7 15.3893 7V5C14.5729 5 13.8108 5.24565 13.1767 5.66727L14.2841 7.33273ZM8 13H16V11H8V13ZM15.0862 11.5939L11.0862 20.5939L12.9138 21.4061L16.9138 12.4061L15.0862 11.5939ZM12.9138 20.5939L8.91381 11.5939L7.08619 12.4061L11.0862 21.4061L12.9138 20.5939Z" fill="#383838"/>
</svg>
