<svg width="24" height="24" viewBox="0 0 24 24" fill="none" xmlns="http://www.w3.org/2000/svg">
<path fill-rule="evenodd" clip-rule="evenodd" d="M13 10C13 9.44772 13.4477 9 14 9H14.01C14.5623 9 15.01 9.44772 15.01 10C15.01 10.5523 14.5623 11 14.01 11H14C13.4477 11 13 10.5523 13 10Z" fill="#111928"/>
<path fill-rule="evenodd" clip-rule="evenodd" d="M2 6C2 4.89543 2.89543 4 4 4H20C21.1046 4 22 4.89543 22 6V18C22 18.5561 21.7731 19.0591 21.4068 19.4216C21.3579 19.5267 21.2907 19.6236 21.2071 19.7071C21.0196 19.8946 20.7652 20 20.5 20L4 20C3.86193 20 3.72713 19.986 3.59693 19.9594C2.79951 19.7962 2.17496 19.1584 2.03125 18.3541C2.01072 18.2392 2 18.1208 2 18V6ZM8.89188 18L12.7246 12.644L8.7348 8.32172C8.53068 8.10059 8.23781 7.98314 7.93746 8.00196C7.6371 8.02078 7.36119 8.17387 7.18627 8.41876L4 12.8795V6L20 6V15.9496L16.7433 12.331C16.5405 12.1057 16.2464 11.9845 15.9437 12.0016C15.6411 12.0186 15.3625 12.1721 15.1863 12.4188L11.1997 18H8.89188Z" fill="#111928"/>
</svg>
