<svg width="24" height="24" viewBox="0 0 24 24" fill="none" xmlns="http://www.w3.org/2000/svg">
<path fill-rule="evenodd" clip-rule="evenodd" d="M5.02381 3.78307C5.12549 3.32553 5.5313 3 6 3H18C18.4687 3 18.8745 3.32553 18.9762 3.78307L20.8022 12L16.561 12L16.5584 12C16.1699 12.001 15.7901 12.1157 15.466 12.3299C15.142 12.544 14.8877 12.8481 14.7344 13.2048C14.5041 13.7387 14.1225 14.1935 13.6367 14.5131C13.1507 14.8328 12.5817 15.0032 12 15.0032C11.4183 15.0032 10.8493 14.8328 10.3633 14.5131C9.87772 14.1936 9.49623 13.7391 9.26588 13.2055C9.11259 12.8485 8.85819 12.5441 8.53404 12.3299C8.20989 12.1157 7.83016 12.001 7.44163 12H3.19783L5.02381 3.78307ZM3 14V19C3 19.5304 3.21071 20.0391 3.58579 20.4142C3.96086 20.7893 4.46957 21 5 21H19C19.5304 21 20.0391 20.7893 20.4142 20.4142C20.7893 20.0391 21 19.5304 21 19V14H16.5695C16.1844 14.8912 15.547 15.6503 14.7359 16.1839C13.9235 16.7184 12.9724 17.0032 12 17.0032C11.0276 17.0032 10.0765 16.7184 9.2641 16.1839C8.45297 15.6503 7.81562 14.8912 7.43048 14H3ZM8 7C8 6.44772 8.44772 6 9 6H15C15.5523 6 16 6.44772 16 7C16 7.55228 15.5523 8 15 8H9C8.44772 8 8 7.55228 8 7ZM8 9C7.44772 9 7 9.44772 7 10C7 10.5523 7.44772 11 8 11H16C16.5523 11 17 10.5523 17 10C17 9.44772 16.5523 9 16 9H8Z" fill="#111928"/>
</svg>
