<svg width="24" height="24" viewBox="0 0 24 24" fill="none" xmlns="http://www.w3.org/2000/svg">
<path d="M4 13H7.439C7.63238 13.0005 7.82139 13.0576 7.98274 13.1642C8.14408 13.2708 8.2707 13.4223 8.347 13.6C8.65463 14.3136 9.16452 14.9214 9.8137 15.3485C10.4629 15.7756 11.2229 16.0032 12 16.0032C12.7771 16.0032 13.5371 15.7756 14.1863 15.3485C14.8355 14.9214 15.3454 14.3136 15.653 13.6C15.7293 13.4223 15.8559 13.2708 16.0173 13.1642C16.1786 13.0576 16.3676 13.0005 16.561 13H20M4 13V19C4 19.2652 4.10536 19.5196 4.29289 19.7071C4.48043 19.8946 4.73478 20 5 20H19C19.2652 20 19.5196 19.8946 19.7071 19.7071C19.8946 19.5196 20 19.2652 20 19V13M4 13L6 4H18L20 13" stroke="#111928" stroke-width="2" stroke-linecap="round" stroke-linejoin="round"/>
</svg>
