<svg width="24" height="24" viewBox="0 0 24 24" fill="none" xmlns="http://www.w3.org/2000/svg">
<path fill-rule="evenodd" clip-rule="evenodd" d="M2 12C2 6.47715 6.47715 2 12 2C17.5228 2 22 6.47715 22 12C22 17.5228 17.5228 22 12 22C6.47715 22 2 17.5228 2 12ZM11.4079 6.5C10.8556 6.5 10.4079 6.94772 10.4079 7.5C10.4079 8.05228 10.8556 8.5 11.4079 8.5H11.4179C11.9702 8.5 12.4179 8.05228 12.4179 7.5C12.4179 6.94772 11.9702 6.5 11.4179 6.5H11.4079ZM10 10C9.44772 10 9 10.4477 9 11C9 11.5523 9.44772 12 10 12H11V15H10C9.44772 15 9 15.4477 9 16C9 16.5523 9.44772 17 10 17H14C14.5523 17 15 16.5523 15 16C15 15.4477 14.5523 15 14 15H13V11C13 10.4477 12.5523 10 12 10H10Z" fill="#111928"/>
</svg>
