<svg width="24" height="24" viewBox="0 0 24 24" fill="none" xmlns="http://www.w3.org/2000/svg">
<path d="M4 5.78571C4 4.80909 4.78639 4 5.77778 4H18.2222C19.2136 4 20 4.80909 20 5.78571V7.12602C19.6804 7.04375 19.3453 7 19 7H15.434C14.3266 7 13.2687 7.45912 12.5123 8.26802L10.0783 10.8711C9.38544 11.612 9 12.5886 9 13.603V19C9 19.3453 9.04375 19.6804 9.12602 20H4C2.89543 20 2 19.1046 2 18V17C2 15.8954 2.89543 15 4 15V5.78571Z" fill="#0F172B"/>
<path d="M15 9.04765V13H11.0931C11.1823 12.718 11.3337 12.4568 11.5392 12.237L13.9732 9.63401C14.2508 9.33709 14.6097 9.13442 15 9.04765Z" fill="#0F172B"/>
<path d="M17 9V13C17 14.1046 16.1046 15 15 15H11V19C11 20.1046 11.8954 21 13 21H19C20.1046 21 21 20.1046 21 19V11C21 9.89543 20.1046 9 19 9H17Z" fill="#0F172B"/>
</svg>
