<svg width="24" height="24" viewBox="0 0 24 24" fill="none" xmlns="http://www.w3.org/2000/svg">
<path fill-rule="evenodd" clip-rule="evenodd" d="M5.00525 10.1906C5.55753 10.1906 6.00525 10.6383 6.00525 11.1906V11.4228L12.0026 14.8869L18 11.4228V11.1906C18 10.6383 18.4477 10.1906 19 10.1906C19.5523 10.1906 20 10.6383 20 11.1906V12C20 12.3572 19.8095 12.6873 19.5002 12.8659L12.5028 16.9077C12.1933 17.0865 11.8119 17.0865 11.5025 16.9077L4.50508 12.8659C4.19577 12.6873 4.00525 12.3572 4.00525 12V11.1906C4.00525 10.6383 4.45296 10.1906 5.00525 10.1906ZM5 15.1489C5.55229 15.1489 6 15.5966 6 16.1489V16.381L11.9974 19.8452L17.9948 16.381V16.1489C17.9948 15.5966 18.4425 15.1489 18.9948 15.1489C19.547 15.1489 19.9948 15.5966 19.9948 16.1489V16.9582C19.9948 17.3154 19.8042 17.6455 19.4949 17.8242L12.4975 21.8659C12.1881 22.0447 11.8067 22.0447 11.4972 21.8659L4.49983 17.8242C4.19053 17.6455 4 17.3154 4 16.9582V16.1489C4 15.5966 4.44772 15.1489 5 15.1489Z" fill="#111928"/>
<path d="M12.5028 2.13407C12.1936 1.95547 11.8126 1.9553 11.5032 2.13363L4.5006 6.17014C4.19103 6.34859 4.0002 6.67864 4 7.03595C3.9998 7.39326 4.19026 7.72353 4.49963 7.90232L11.5022 11.9493C11.8118 12.1282 12.1932 12.1283 12.5028 11.9495L19.5002 7.90769C19.8095 7.72903 20 7.39896 20 7.04176C20 6.68457 19.8095 6.35449 19.5002 6.17584L12.5028 2.13407Z" fill="#111928"/>
</svg>
