<svg width="24" height="24" viewBox="0 0 24 24" fill="none" xmlns="http://www.w3.org/2000/svg">
<path fill-rule="evenodd" clip-rule="evenodd" d="M14.236 3.27869C16.0554 2.40924 18.1366 3.65938 18.3004 5.64385L18.3979 6.82498C18.4055 6.91714 18.4271 7.00728 18.4618 7.09214L18.9124 8.19698C21.017 13.3574 17.7357 19.1694 12.2377 19.9054L11.0715 20.0615C11.0715 20.0615 11.0597 20.0635 11.0341 20.0702C11.0053 20.0776 10.9708 20.0879 10.9329 20.1003C10.8565 20.1252 10.7877 20.1517 10.7573 20.1636C10.7691 20.159 10.7644 20.1612 10.7361 20.1744C10.7151 20.1842 10.6811 20.2001 10.6313 20.2238C10.537 20.2685 10.4165 20.3262 10.2949 20.3847C10.0519 20.5015 9.80947 20.619 9.7739 20.6362L9.75676 20.6444C7.93899 21.5066 5.86372 20.2574 5.70001 18.2758C5.69873 18.2603 5.61566 17.2521 5.60373 17.1092C5.60293 17.1038 5.60163 17.0955 5.59974 17.0843C5.59511 17.0571 5.5883 17.0211 5.57978 16.9821C5.57119 16.9427 5.56199 16.9052 5.55307 16.8736C5.54496 16.8448 5.53973 16.8303 5.53876 16.8276L5.08808 15.7225C2.98344 10.562 6.26469 4.75002 11.7627 4.01408L11.8288 4.00524H11.8954C11.88 4.00524 11.8807 4.00517 11.9023 4.00283L11.9023 4.00283L11.9023 4.00283C11.9266 4.00019 11.9772 3.9947 12.061 3.98324C12.1905 3.96556 12.3545 3.94007 12.5249 3.91031C12.6958 3.88046 12.8653 3.84768 13.0072 3.81594C13.0782 3.80007 13.1374 3.78555 13.1836 3.77294C13.2035 3.76753 13.2183 3.76319 13.2287 3.76L14.236 3.27869ZM12.6736 9.22512C13.1872 9.02202 13.4389 8.44103 13.2358 7.92745C13.0327 7.41386 12.4517 7.16216 11.9382 7.36526C10.4027 7.97245 9.31765 8.84646 8.67419 10.0426C8.04323 11.2155 7.90702 12.5702 8.00434 14.0071C8.04167 14.5581 8.51861 14.9745 9.06964 14.9372C9.62066 14.8999 10.0371 14.4229 9.99977 13.8719C9.91491 12.619 10.0562 11.6952 10.4355 10.9901C10.8023 10.3082 11.4602 9.70496 12.6736 9.22512Z" fill="#383838"/>
</svg>
