<svg width="24" height="24" viewBox="0 0 24 24" fill="none" xmlns="http://www.w3.org/2000/svg">
<path fill-rule="evenodd" clip-rule="evenodd" d="M14.9951 4H11.67C11.1177 4 10.67 4.44772 10.67 5C10.67 5.55229 11.1177 6 11.67 6H13.4862L8.22075 18H6C5.44772 18 5 18.4477 5 19C5 19.5523 5.44772 20 6 20H8.85108C8.86604 20.0003 8.88097 20.0003 8.89587 20H12.33C12.8823 20 13.33 19.5523 13.33 19C13.33 18.4477 12.8823 18 12.33 18H10.4048L15.6702 6H18C18.5523 6 19 5.55229 19 5C19 4.44772 18.5523 4 18 4H15.0399C15.025 3.99966 15.01 3.99966 14.9951 4Z" fill="#111928"/>
</svg>
