<svg width="24" height="24" viewBox="0 0 24 24" fill="none" xmlns="http://www.w3.org/2000/svg">
<path d="M13.4598 8.29101L17.3088 4.44201C17.4481 4.30262 17.6135 4.19204 17.7955 4.1166C17.9776 4.04116 18.1727 4.00233 18.3698 4.00233C18.5668 4.00233 18.762 4.04116 18.944 4.1166C19.1261 4.19204 19.2915 4.30262 19.4308 4.44201L19.5578 4.56901C19.6972 4.70831 19.8077 4.87371 19.8832 5.05576C19.9586 5.23781 19.9974 5.43295 19.9974 5.63001C19.9974 5.82707 19.9586 6.02221 19.8832 6.20426C19.8077 6.38631 19.6972 6.55171 19.5578 6.69101L15.7188 10.529C15.5152 10.0213 15.2098 9.56082 14.8212 9.17588C14.4327 8.79095 13.9693 8.48979 13.4598 8.29101ZM13.4598 8.29101C13.97 8.48933 14.4342 8.79028 14.8234 9.17524C15.2127 9.5602 15.5188 10.021 15.7228 10.529L19.3848 6.86701C20.4374 8.37246 21.002 10.165 21.002 12.002C21.002 13.839 20.4374 15.6316 19.3848 17.137L15.7088 13.461M13.4598 8.29101L17.1368 4.61501C15.6313 3.56236 13.8387 2.9978 12.0018 2.9978C10.1648 2.9978 8.37221 3.56236 6.86677 4.61501L10.5288 8.27701C10.0212 8.48043 9.56073 8.78575 9.1758 9.17412C8.79087 9.56249 8.48966 10.0257 8.29077 10.535L4.61477 6.86301C3.56211 8.36846 2.99756 10.161 2.99756 11.998C2.99756 13.835 3.56211 15.6276 4.61477 17.133L8.27677 13.471C8.48018 13.9786 8.7855 14.439 9.17387 14.824C9.56224 15.2089 10.0254 15.5101 10.5348 15.709L6.86277 19.385C8.36821 20.4377 10.1608 21.0022 11.9978 21.0022C13.8347 21.0022 15.6273 20.4377 17.1328 19.385L13.4708 15.723C13.9787 15.5191 14.4394 15.2132 14.8244 14.8241C15.2093 14.435 15.5103 13.9711 15.7088 13.461M15.7088 13.461L19.5578 17.309C19.6972 17.4483 19.8077 17.6137 19.8832 17.7958C19.9586 17.9778 19.9974 18.1729 19.9974 18.37C19.9974 18.5671 19.9586 18.7622 19.8832 18.9443C19.8077 19.1263 19.6972 19.2917 19.5578 19.431L19.4308 19.557C19.2915 19.6964 19.1261 19.807 18.944 19.8824C18.762 19.9579 18.5668 19.9967 18.3698 19.9967C18.1727 19.9967 17.9776 19.9579 17.7955 19.8824C17.6135 19.807 17.4481 19.6964 17.3088 19.557L13.4708 15.719C13.9783 15.5156 14.4388 15.2103 14.8237 14.8219C15.2087 14.4335 15.5099 13.9704 15.7088 13.461ZM15.9998 12C15.9998 14.2091 14.2089 16 11.9998 16C9.79063 16 7.99977 14.2091 7.99977 12C7.99977 9.79087 9.79063 8.00001 11.9998 8.00001C14.2089 8.00001 15.9998 9.79087 15.9998 12ZM8.28077 13.471L4.44177 17.309C4.30238 17.4483 4.1918 17.6137 4.11636 17.7958C4.04092 17.9778 4.00209 18.1729 4.00209 18.37C4.00209 18.5671 4.04092 18.7622 4.11636 18.9443C4.1918 19.1263 4.30238 19.2917 4.44177 19.431L4.56877 19.557C4.70807 19.6964 4.87347 19.807 5.05552 19.8824C5.23757 19.9579 5.4327 19.9967 5.62977 19.9967C5.82683 19.9967 6.02196 19.9579 6.20401 19.8824C6.38606 19.807 6.55147 19.6964 6.69077 19.557L10.5388 15.709C10.0294 15.5101 9.56624 15.2089 9.17787 14.824C8.7895 14.439 8.48418 13.9786 8.28077 13.471ZM10.5288 8.28101L6.69077 4.44201C6.55147 4.30262 6.38606 4.19204 6.20401 4.1166C6.02196 4.04116 5.82683 4.00233 5.62977 4.00233C5.4327 4.00233 5.23757 4.04116 5.05552 4.1166C4.87347 4.19204 4.70807 4.30262 4.56877 4.44201L4.44177 4.56901C4.30238 4.70831 4.1918 4.87371 4.11636 5.05576C4.04092 5.23781 4.00209 5.43295 4.00209 5.63001C4.00209 5.82707 4.04092 6.02221 4.11636 6.20426C4.1918 6.38631 4.30238 6.55171 4.44177 6.69101L8.29077 10.539C8.48966 10.0297 8.79087 9.56649 9.1758 9.17812C9.56073 8.78975 10.0212 8.48443 10.5288 8.28101Z" stroke="#111928" stroke-width="2" stroke-linecap="round" stroke-linejoin="round"/>
</svg>
