<svg width="24" height="24" viewBox="0 0 24 24" fill="none" xmlns="http://www.w3.org/2000/svg">
<path d="M13.2131 9.78732C12.5772 9.15175 11.7148 8.79473 10.8157 8.79473C9.91659 8.79473 9.05427 9.15175 8.41829 9.78732L4.99299 13.2126C4.35719 13.8485 4 14.7108 4 15.61C4 16.5092 4.35719 17.3716 4.99299 18.0074C5.62897 18.643 6.49129 19 7.39041 19C8.28953 19 9.15185 18.643 9.78783 18.0074L10.1094 17.7031M9.78783 13.2126C10.4237 13.8484 11.2861 14.2056 12.1853 14.2056C13.0844 14.2056 13.9468 13.8484 14.5827 13.2126L18.007 9.78732C18.6428 9.15147 19 8.2891 19 7.38991C19 6.49072 18.6428 5.62835 18.007 4.9925C17.3712 4.357 16.509 4 15.6101 4C14.7111 4 13.8489 4.357 13.2131 4.9925L12.1853 5.95312" stroke="#111928" stroke-width="2" stroke-linecap="round" stroke-linejoin="round"/>
</svg>
