<svg width="24" height="24" viewBox="0 0 24 24" fill="none" xmlns="http://www.w3.org/2000/svg">
<path d="M17 6H15V5H16C16.553 5 17 4.552 17 4C17 3.448 16.553 3 16 3H14C13.447 3 13 3.448 13 4V6H12.459C13.414 7.063 14 8.462 14 10V14C14 14.552 13.553 15 13 15C12.447 15 12 14.552 12 14V10C12 7.794 10.206 6 8 6C7.925 6 7.852 6.012 7.78 6.028C7.686 6.022 7.596 6 7.5 6C5.019 6 3 8.019 3 10.5V16C3 16.552 3.447 17 4 17H10.599H11V20C11 20.552 11.447 21 12 21H14C14.553 21 15 20.552 15 20V17H20C20.553 17 21 16.552 21 16V10C21 7.794 19.206 6 17 6ZM8 14.5H7C6.447 14.5 6 14.052 6 13.5C6 12.948 6.447 12.5 7 12.5H8C8.553 12.5 9 12.948 9 13.5C9 14.052 8.553 14.5 8 14.5Z" fill="#111928"/>
</svg>
