<svg width="24" height="24" viewBox="0 0 24 24" fill="none" xmlns="http://www.w3.org/2000/svg">
<path fill-rule="evenodd" clip-rule="evenodd" d="M5 9C5 5.13401 8.13401 2 12 2C15.866 2 19 5.13401 19 9C19 12.5265 16.3923 15.4439 13 15.9291V21C13 21.5523 12.5523 22 12 22C11.4477 22 11 21.5523 11 21V15.9291C7.60771 15.4439 5 12.5265 5 9ZM10.9393 7.93934C11.2206 7.65804 11.6022 7.5 12 7.5C12.5523 7.5 13 7.05228 13 6.5C13 5.94772 12.5523 5.5 12 5.5C11.0717 5.5 10.1815 5.86875 9.52513 6.52513C8.86875 7.1815 8.5 8.07174 8.5 9C8.5 9.55228 8.94772 10 9.5 10C10.0523 10 10.5 9.55228 10.5 9C10.5 8.60218 10.658 8.22064 10.9393 7.93934Z" fill="#111928"/>
</svg>
