<svg width="24" height="24" viewBox="0 0 24 24" fill="none" xmlns="http://www.w3.org/2000/svg">
<path fill-rule="evenodd" clip-rule="evenodd" d="M4.00003 7H12.0275C12.2762 4.75002 14.1837 3 16.5 3C18.9853 3 21 5.01472 21 7.5C21 9.98528 18.9853 12 16.5 12C15.6199 12 14.798 11.7467 14.1044 11.3098L11 14.4142V19H13C13.5523 19 14 19.4477 14 20C14 20.5523 13.5523 21 13 21H6.99999C6.44771 21 5.99999 20.5523 5.99999 20C5.99999 19.4477 6.44771 19 6.99999 19H9.00003V14.4142L3.29292 8.70711C3.00692 8.42111 2.92137 7.99099 3.07615 7.61732C3.23093 7.24364 3.59557 7 4.00003 7ZM16 7H14.05C14.2816 5.85888 15.2905 5 16.5 5C17.8807 5 19 6.11929 19 7.5C19 8.88071 17.8807 10 16.5 10C16.1772 10 15.8692 9.93914 15.5862 9.82802L16.7071 8.70711C16.9931 8.42111 17.0787 7.99099 16.9239 7.61732C16.7691 7.24364 16.4045 7 16 7Z" fill="#383838"/>
</svg>
