<svg width="24" height="24" viewBox="0 0 24 24" fill="none" xmlns="http://www.w3.org/2000/svg">
<path fill-rule="evenodd" clip-rule="evenodd" d="M3 6C3 4.89543 3.89543 4 5 4H19C20.1046 4 21 4.89543 21 6V15C21 16.1046 20.1046 17 19 17L12.3837 17L9.50345 19.5923C8.53816 20.461 7 19.776 7 18.4773V17H5C3.89543 17 3 16.1046 3 15V6ZM7 8C6.44772 8 6 8.44772 6 9C6 9.55228 6.44772 10 7 10H12C12.5523 10 13 9.55228 13 9C13 8.44772 12.5523 8 12 8H7ZM15 8C14.4477 8 14 8.44772 14 9C14 9.55228 14.4477 10 15 10H17C17.5523 10 18 9.55228 18 9C18 8.44772 17.5523 8 17 8H15ZM7 11C6.44772 11 6 11.4477 6 12C6 12.5523 6.44772 13 7 13H9C9.55228 13 10 12.5523 10 12C10 11.4477 9.55228 11 9 11H7ZM12 11C11.4477 11 11 11.4477 11 12C11 12.5523 11.4477 13 12 13H17C17.5523 13 18 12.5523 18 12C18 11.4477 17.5523 11 17 11H12Z" fill="#111928"/>
</svg>
