<svg width="24" height="24" viewBox="0 0 24 24" fill="none" xmlns="http://www.w3.org/2000/svg">
<path d="M15.5057 14.0973L16.4999 15.0915C16.6064 15.0051 16.7088 14.9128 16.8067 14.8149C17.5535 14.0681 17.9737 13.0556 17.9751 11.9995V9.01243C17.9751 8.46244 18.421 8.01658 18.971 8.01658C19.521 8.01658 19.9668 8.46244 19.9668 9.01243L19.9668 12.0012C19.9649 13.585 19.3349 15.1034 18.215 16.2233C18.1174 16.3209 18.0167 16.4148 17.9133 16.5049L19.6751 18.2668C20.064 18.6557 20.064 19.2862 19.6751 19.6751C19.2862 20.064 18.6557 20.064 18.2668 19.6751L4.32488 5.7332C3.93598 5.34429 3.93598 4.71376 4.32488 4.32485C4.71378 3.93595 5.34432 3.93595 5.73323 4.32485L7.03993 5.63155C7.23746 3.61621 8.93691 2.04147 11.0042 2.04147H12.9959C15.1958 2.04147 16.9793 3.8249 16.9793 6.02488V11.0041C16.9793 12.2536 16.4043 13.3674 15.5057 14.0973Z" fill="#111928"/>
<path d="M4.0332 10.0083C4.0332 9.45829 4.47906 9.01243 5.02905 9.01243C5.57905 9.01243 6.0249 9.45829 6.0249 10.0083V11.9993C6.02632 13.0555 6.44651 14.0681 7.19336 14.8149C7.94017 15.5617 8.95264 15.9819 10.0088 15.9834H12C12.55 15.9834 12.9959 16.4292 12.9959 16.9792V19.9668H14.9876C15.5376 19.9668 15.9834 20.4126 15.9834 20.9626C15.9834 21.5126 15.5376 21.9585 14.9876 21.9585H9.01246C8.46246 21.9585 8.01661 21.5126 8.01661 20.9626C8.01661 20.4126 8.46246 19.9668 9.01246 19.9668H11.0042V17.9751L10.0071 17.9751C8.42332 17.9732 6.90493 17.3432 5.78502 16.2233C4.6651 15.1034 4.0351 13.585 4.0332 12.0012V10.0083Z" fill="#111928"/>
</svg>
