<svg width="24" height="24" viewBox="0 0 24 24" fill="none" xmlns="http://www.w3.org/2000/svg">
<path d="M17.9646 5.49185L18.3351 5.86239C18.7257 6.25291 19.3588 6.25291 19.7493 5.86239C20.1399 5.47186 20.1399 4.8387 19.7493 4.44817L17.594 2.29283C17.2035 1.90231 16.5703 1.90231 16.1798 2.29283C15.7893 2.68336 15.7893 3.31652 16.1798 3.70705L16.5504 4.07764L15.8092 4.81882L15.4386 4.44823C15.0481 4.0577 14.4149 4.0577 14.0244 4.44823L9.71372 8.75891C9.32319 9.14944 9.32319 9.7826 9.71372 10.1731L10.0632 10.5226L9.29289 11.2929C8.90236 11.6834 8.90236 12.3166 9.29289 12.7071C9.68341 13.0976 10.3166 13.0976 10.7071 12.7071L11.4774 11.9368L11.8691 12.3285C12.2596 12.719 12.8927 12.719 13.2833 12.3285L15.3461 10.2656C15.7606 10.9401 16 11.7362 16 12.5912C16 15.036 14.0416 16.9999 11.6479 16.9999C10.6021 16.9999 9.64003 16.6262 8.88739 16H11C11.5523 16 12 15.5523 12 15C12 14.4477 11.5523 14 11 14H5C4.44772 14 4 14.4477 4 15C4 15.5523 4.44772 16 5 16H6.26803C6.92225 17.0489 7.8715 17.8952 9 18.4182V20H5C4.44772 20 4 20.4477 4 21C4 21.5523 4.44772 22 5 22H19C19.5523 22 20 21.5523 20 21C20 20.4477 19.5523 20 19 20H15V18.0363C16.8034 16.9035 18 14.8846 18 12.5912C18 11.1851 17.5502 9.88223 16.7874 8.82433L17.594 8.01778C17.9845 7.62726 17.9845 6.99409 17.594 6.60357L17.2234 6.23303L17.9646 5.49185Z" fill="#0F172B"/>
</svg>
