<svg width="24" height="24" viewBox="0 0 24 24" fill="none" xmlns="http://www.w3.org/2000/svg">
<path fill-rule="evenodd" clip-rule="evenodd" d="M17 4C17.5523 4 18 4.44772 18 5V7L20 7C20.5523 7 21 7.44771 21 8C21 8.55228 20.5523 9 20 9H18V11C18 11.5523 17.5523 12 17 12C16.4477 12 16 11.5523 16 11V9H14C13.4477 9 13 8.55228 13 8C13 7.44772 13.4477 7 14 7H16V5C16 4.44772 16.4477 4 17 4Z" fill="#383838"/>
<path d="M12.3224 4.68708C12.6159 4.3768 12.6799 3.91442 12.4818 3.5361C12.2837 3.15778 11.8672 2.947 11.445 3.01143C9.93653 3.24163 8.51325 3.84808 7.31631 4.77419C6.11914 5.70047 5.18899 6.91529 4.62166 8.30121C4.05422 9.68739 3.87051 11.1942 4.09002 12.672C4.30952 14.1496 4.92395 15.5431 5.86897 16.7156C6.81377 17.8878 8.0558 18.7982 9.47 19.3605C10.884 19.9228 12.4239 20.1189 13.9383 19.9305C15.4528 19.7421 16.8932 19.1754 18.1167 18.283C19.3404 17.3906 20.3059 16.2024 20.9139 14.8331C21.0862 14.4452 20.9948 13.9908 20.686 13.6996C20.3771 13.4085 19.9181 13.344 19.541 13.5388C18.6779 13.9847 17.7119 14.2187 16.7292 14.2179H16.7274C15.5676 14.2192 14.4349 13.8945 13.4678 13.2869C12.5011 12.6795 11.7434 11.8172 11.2822 10.809C10.8211 9.80124 10.6743 8.6881 10.8579 7.60389C11.0414 6.51947 11.5484 5.50552 12.3224 4.68708Z" fill="#383838"/>
</svg>
