<svg width="24" height="24" viewBox="0 0 24 24" fill="none" xmlns="http://www.w3.org/2000/svg">
<path d="M17 5V8M17 8V11M17 8H14M17 8L20 8M16.6444 15.0913C15.0055 15.0913 14.0644 14.8426 12.9359 14.1337C11.8074 13.4247 10.9168 12.4141 10.3728 11.2251C9.82878 10.036 9.65474 8.71987 9.8719 7.43701C10.0891 6.15414 10.688 4.95996 11.5959 4C10.2532 4.20491 8.98901 4.74436 7.92825 5.56511C6.86748 6.38585 6.04676 7.45951 5.54712 8.68007C5.04747 9.90063 4.88618 11.2259 5.07917 12.525C5.27215 13.8242 5.81274 15.0523 6.64756 16.088C7.48238 17.1238 8.58257 17.9315 9.8395 18.4313C11.0964 18.9312 12.4667 19.1058 13.8149 18.9381C15.1631 18.7705 16.4428 18.2662 17.5274 17.4751C18.6121 16.684 19.4644 15.6335 20 14.4273C18.9937 14.9472 18.0677 15.0913 16.6444 15.0913Z" stroke="#383838" stroke-width="2" stroke-linecap="round" stroke-linejoin="round"/>
</svg>
