<svg width="24" height="24" viewBox="0 0 24 24" fill="none" xmlns="http://www.w3.org/2000/svg">
<path d="M11 3C11 2.44772 10.5523 2 10 2C9.44772 2 9 2.44772 9 3C9 3.35778 8.90128 3.50986 8.80172 3.61606C8.6534 3.77427 8.43418 3.90178 8.02942 4.11765L7.98405 4.1418C7.63892 4.32543 7.13566 4.59319 6.73922 5.01606C6.27628 5.50986 6 6.15778 6 7C6 7.55228 6.44772 8 7 8C7.55229 8 8 7.55228 8 7C8 6.64222 8.09873 6.49014 8.19829 6.38394C8.34661 6.22573 8.56583 6.09822 8.97059 5.88235L9.01595 5.8582C9.36109 5.67457 9.86435 5.40681 10.2608 4.98394C10.7237 4.49014 11 3.84222 11 3Z" fill="#383838"/>
<path d="M16 3C16 2.44772 15.5523 2 15 2C14.4477 2 14 2.44772 14 3C14 3.35778 13.9013 3.50986 13.8017 3.61606C13.6534 3.77427 13.4342 3.90178 13.0294 4.11765L12.9841 4.1418C12.6389 4.32543 12.1357 4.59319 11.7392 5.01606C11.2763 5.50986 11 6.15778 11 7C11 7.55228 11.4477 8 12 8C12.5523 8 13 7.55228 13 7C13 6.64222 13.0987 6.49014 13.1983 6.38394C13.3466 6.22573 13.5658 6.09822 13.9706 5.88235L14.016 5.8582C14.3611 5.67457 14.8644 5.40681 15.2608 4.98394C15.7237 4.49014 16 3.84222 16 3Z" fill="#383838"/>
<path fill-rule="evenodd" clip-rule="evenodd" d="M5 10C4.71748 10 4.44813 10.1195 4.25855 10.329C4.06897 10.5385 3.97685 10.8184 4.00497 11.0995L4.64477 17.4975C4.90037 20.0535 7.0512 22 9.61995 22H10.3801C12.7776 22 14.8111 20.3043 15.2793 18H17C18.6569 18 20 16.6569 20 15C20 13.3431 18.6569 12 17 12H15.905L15.995 11.0995C16.0232 10.8184 15.931 10.5385 15.7415 10.329C15.5519 10.1195 15.2825 10 15 10H5ZM17 16H15.505L15.705 14H17C17.5523 14 18 14.4477 18 15C18 15.5523 17.5523 16 17 16Z" fill="#383838"/>
</svg>
