<svg width="24" height="24" viewBox="0 0 24 24" fill="none" xmlns="http://www.w3.org/2000/svg">
<path fill-rule="evenodd" clip-rule="evenodd" d="M5 5C4.71748 5 4.44813 5.11951 4.25855 5.32899C4.06897 5.53848 3.97685 5.81838 4.00497 6.0995L4.64477 12.4975C4.90037 15.0535 7.0512 17 9.61995 17H10.3801C12.7776 17 14.8111 15.3043 15.2793 13H17C18.6569 13 20 11.6569 20 10C20 8.34315 18.6569 7 17 7H15.905L15.995 6.0995C16.0232 5.81838 15.931 5.53848 15.7415 5.32899C15.5519 5.11951 15.2825 5 15 5H5ZM17 11H15.505L15.705 9H17C17.5523 9 18 9.44772 18 10C18 10.5523 17.5523 11 17 11Z" fill="#383838"/>
<path d="M5 18C4.44772 18 4 18.4477 4 19C4 19.5523 4.44772 20 5 20H16C16.5523 20 17 19.5523 17 19C17 18.4477 16.5523 18 16 18H5Z" fill="#383838"/>
</svg>
