<svg width="24" height="24" viewBox="0 0 24 24" fill="none" xmlns="http://www.w3.org/2000/svg">
<path d="M18.6216 3.21667C18.8607 3.40637 19 3.69484 19 4.00001V15.6667C19 15.7079 18.9975 15.7485 18.9927 15.7885C18.9975 15.8583 19 15.9289 19 16C19 17.6569 17.6569 19 16 19C14.3431 19 13 17.6569 13 16C13 14.3431 14.3431 13 16 13C16.3506 13 16.6872 13.0602 17 13.1707V9.2602L9 11.1269V18L8.99999 18.0032C8.99824 19.6586 7.65577 21 6 21C4.34315 21 3 19.6569 3 18C3 16.3431 4.34315 15 6 15C6.35064 15 6.68722 15.0602 7 15.1707V6.33334C7 5.8686 7.32018 5.46511 7.77277 5.3595L17.7723 3.02629C17.9209 2.99152 18.0735 2.99164 18.219 3.02428C18.3617 3.0563 18.4973 3.1196 18.6154 3.2118C18.6175 3.21342 18.6195 3.21504 18.6216 3.21667Z" fill="#383838"/>
</svg>
