<svg width="24" height="24" viewBox="0 0 24 24" fill="none" xmlns="http://www.w3.org/2000/svg">
<path d="M5 3C3.89543 3 3 3.89543 3 5V7C3 8.10457 3.89543 9 5 9H9C10.1046 9 11 8.10457 11 7V5C11 3.89543 10.1046 3 9 3H5Z" fill="#111928"/>
<path d="M19 21C20.1046 21 21 20.1046 21 19V17C21 15.8954 20.1046 15 19 15H15C13.8954 15 13 15.8954 13 17V19C13 20.1046 13.8954 21 15 21H19Z" fill="#111928"/>
<path d="M5 11C3.89543 11 3 11.8954 3 13V19C3 20.1046 3.89543 21 5 21H9C10.1046 21 11 20.1046 11 19V13C11 11.8954 10.1046 11 9 11H5Z" fill="#111928"/>
<path d="M19 13C20.1046 13 21 12.1046 21 11V5C21 3.89543 20.1046 3 19 3H15C13.8954 3 13 3.89543 13 5V11C13 12.1046 13.8954 13 15 13L19 13Z" fill="#111928"/>
</svg>
