<svg width="24" height="24" viewBox="0 0 24 24" fill="none" xmlns="http://www.w3.org/2000/svg">
<path d="M13 21H19C20.1046 21 21 20.1046 21 19V5C21 3.89543 20.1046 3 19 3H13V21Z" fill="#383838"/>
<path fill-rule="evenodd" clip-rule="evenodd" d="M11 3H5C3.89543 3 3 3.89543 3 5V19C3 20.1046 3.89543 21 5 21H11V3ZM5.29289 10.7071C4.90237 10.3166 4.90237 9.68342 5.29289 9.29289C5.68342 8.90237 6.31658 8.90237 6.70711 9.29289L8.70705 11.2928C9.09757 11.6834 9.09757 12.3165 8.70705 12.707L6.70711 14.707C6.31658 15.0975 5.68342 15.0975 5.29289 14.707C4.90237 14.3165 4.90237 13.6833 5.29289 13.2928L6.58573 11.9999L5.29289 10.7071Z" fill="#383838"/>
</svg>
