<svg width="24" height="24" viewBox="0 0 24 24" fill="none" xmlns="http://www.w3.org/2000/svg">
<path fill-rule="evenodd" clip-rule="evenodd" d="M8.64853 2.57744C10.0456 2.08099 11.5356 1.9013 13.0107 2.05138C14.4858 2.20147 15.9091 2.67756 17.1775 3.44522C18.4458 4.21289 19.5276 5.25291 20.3444 6.49C21.1611 7.7271 21.6924 9.1303 21.8998 10.598C22.1072 12.0657 21.9855 13.5611 21.5434 14.9759L21.5401 14.9863L21.5352 15.001C21.3332 15.5923 20.9491 16.1043 20.4381 16.4638C19.9293 16.8216 19.3208 17.0099 18.6991 17.0021H16.0088C15.8718 17.0051 15.7368 17.0352 15.6115 17.0907C15.4843 17.1472 15.3698 17.2286 15.2749 17.3303C15.18 17.4319 15.1066 17.5516 15.0591 17.6823C15.0116 17.8129 14.991 17.9517 14.9985 18.0905C14.9994 18.1083 14.9999 18.1263 14.9999 18.1442V19.0067C14.9976 19.4031 14.9169 19.7951 14.7627 20.1602C14.6085 20.5254 14.3837 20.8565 14.1012 21.1345C13.8187 21.4126 13.4841 21.6321 13.1165 21.7806C12.749 21.9291 12.3558 22.0036 11.9595 21.9999C10.5034 21.9883 9.0689 21.6466 7.76415 21.0004L7.77305 21.0046L7.75519 20.996L7.76415 21.0004C6.21072 20.2653 4.87057 19.146 3.87065 17.7485C2.86881 16.3482 2.24179 14.7151 2.04919 13.0044L2.04783 12.9922C1.90004 11.5173 2.08232 10.0281 2.5813 8.63227C3.08029 7.23647 3.88356 5.96909 4.93292 4.92189C5.98228 3.8747 7.25145 3.07389 8.64853 2.57744ZM11.9999 6.00604C11.4476 6.00604 10.9999 6.45376 10.9999 7.00604C10.9999 7.55833 11.4476 8.00604 11.9999 8.00604H12.0099C12.5622 8.00604 13.0099 7.55833 13.0099 7.00604C13.0099 6.45376 12.5622 6.00604 12.0099 6.00604H11.9999ZM8.52835 7.51799C7.97607 7.51799 7.52835 7.96571 7.52835 8.51799C7.52835 9.07028 7.97607 9.51799 8.52835 9.51799H8.53835C9.09064 9.51799 9.53835 9.07028 9.53835 8.51799C9.53835 7.96571 9.09064 7.51799 8.53835 7.51799H8.52835ZM15.4966 7.51799C14.9443 7.51799 14.4966 7.96571 14.4966 8.51799C14.4966 9.07028 14.9443 9.51799 15.4966 9.51799H15.5066C16.0589 9.51799 16.5066 9.07028 16.5066 8.51799C16.5066 7.96571 16.0589 7.51799 15.5066 7.51799H15.4966ZM6.98993 11.0039C6.43764 11.0039 5.98993 11.4516 5.98993 12.0039C5.98993 12.5562 6.43764 13.0039 6.98993 13.0039H6.99993C7.55221 13.0039 7.99993 12.5562 7.99993 12.0039C7.99993 11.4516 7.55221 11.0039 6.99993 11.0039H6.98993Z" fill="#111928"/>
</svg>
