<svg width="24" height="24" viewBox="0 0 24 24" fill="none" xmlns="http://www.w3.org/2000/svg">
<path fill-rule="evenodd" clip-rule="evenodd" d="M12 2C12.4124 2 12.7826 2.25318 12.932 2.63755L19.932 20.6376C20.078 21.0129 19.9846 21.4391 19.695 21.719C19.4055 21.9989 18.9763 22.0778 18.6061 21.9191L13 19.5165L13 13C13 12.4477 12.5523 12 12 12C11.4477 12 11 12.4477 11 13L11 19.5165L5.39395 21.9191C5.0238 22.0778 4.59461 21.9989 4.30505 21.719C4.01549 21.4391 3.92207 21.0129 4.06803 20.6376L11.068 2.63755C11.2175 2.25318 11.5876 2 12 2Z" fill="#111928"/>
</svg>
