<svg width="24" height="24" viewBox="0 0 24 24" fill="none" xmlns="http://www.w3.org/2000/svg">
<path fill-rule="evenodd" clip-rule="evenodd" d="M4 8.50002C4 6.01474 6.01472 4.00002 8.5 4.00002H19C19.5523 4.00002 20 4.44773 20 5.00002C20 5.5523 19.5523 6.00002 19 6.00002H17V19C17 19.5523 16.5523 20 16 20C15.4477 20 15 19.5523 15 19V6.00002H13V19C13 19.5523 12.5523 20 12 20C11.4477 20 11 19.5523 11 19V13H8.5C6.01472 13 4 10.9853 4 8.50002ZM11 11V6.00002H8.5C7.11929 6.00002 6 7.11931 6 8.50002C6 9.88073 7.11929 11 8.5 11H11Z" fill="#111928"/>
</svg>
