<svg width="24" height="24" viewBox="0 0 24 24" fill="none" xmlns="http://www.w3.org/2000/svg">
<path fill-rule="evenodd" clip-rule="evenodd" d="M13.9993 4.18177C14.7686 3.42506 15.8116 3 16.8991 3C17.9866 3 19.0296 3.42506 19.799 4.18177C20.5676 4.93912 21 5.96653 21 7.03713C21 8.10486 20.5705 9.12903 19.8057 9.8858L18.5002 11.2139L12.6998 5.50355L13.9872 4.1938L13.9993 4.18177ZM11.2826 6.94524L6.1861 12.1299L8.36073 14.2713L13.4239 9.05326L11.2826 6.94524ZM5.03244 13.8309L3.05229 19.6799C2.93029 20.0403 3.02557 20.4376 3.29843 20.7062C3.57129 20.9748 3.97488 21.0686 4.34097 20.9485L10.2823 18.9992L5.03244 13.8309ZM11.9866 17.8401L17.0831 12.6555L14.8651 10.472L9.80193 15.6901L11.9866 17.8401Z" fill="#111928"/>
</svg>
