<svg width="24" height="24" viewBox="0 0 24 24" fill="none" xmlns="http://www.w3.org/2000/svg">
<path d="M15.1076 3.02722C15.8404 2.10833 17.2266 1.60069 18.4231 2.3907C19.4527 3.07046 20.0867 4.54968 19.2668 5.82173L18.1323 7.74597C18.6223 8.28387 18.95 8.96281 19.1495 9.7865L19.1521 9.79719L19.1544 9.80794C19.3122 10.5288 19.2415 11.2654 19.0048 12L19 12H14.5V10C14.5 9.44772 14.0523 9 13.5 9H10.9406C11.4957 8.16073 12.0855 7.52312 12.7109 7.08099C13.6945 6.38559 14.7408 6.19614 15.741 6.44456C15.982 6.50441 16.2197 6.5745 16.4513 6.6592L17.5553 4.78671C17.5639 4.77212 17.5729 4.75776 17.5822 4.74362C17.6365 4.66142 17.6536 4.5664 17.6191 4.4457C17.5813 4.31373 17.4815 4.16558 17.3211 4.05972C17.2389 4.00544 17.1439 3.98835 17.0232 4.02288C16.8912 4.06063 16.7431 4.1605 16.6372 4.32083C16.5517 4.45038 16.4372 4.55824 16.3027 4.63587L16.2215 4.68279C15.7432 4.95893 15.1316 4.79506 14.8554 4.31676C14.6025 3.87868 14.7187 3.32877 15.1076 3.02722Z" fill="#383838"/>
<path d="M9.83662 11C8.50417 13.5771 7.32435 14.9661 5.88371 16.2762L5.87954 16.2799C5.53155 16.5857 5.14372 16.9265 4.7208 17.3989C3.76459 18.3116 3.57341 19.7869 4.38576 20.8912C5.14878 21.9284 6.53228 22.3341 7.67791 21.8508L7.6905 21.8454C9.2405 21.1663 11.6314 20.0207 12.9439 19.0272L12.9519 19.0211L12.9598 19.0149C15.0402 17.3733 16.695 15.7849 17.7771 14.2958C17.8484 14.1976 17.9179 14.099 17.9853 14H13.5C12.9477 14 12.5 13.5523 12.5 13V11H9.83662Z" fill="#383838"/>
</svg>
