<svg width="24" height="24" viewBox="0 0 24 24" fill="none" xmlns="http://www.w3.org/2000/svg">
<path d="M16.0002 10C16.0002 9.44772 15.5524 9 15.0002 9H12.0001V11H15.0002C15.5524 11 16.0002 10.5523 16.0002 10Z" fill="#0F172B"/>
<path d="M13.0002 15V13H15.0002C16.657 13 18.0002 11.6569 18.0002 10C18.0002 8.34315 16.657 7 15.0002 7H12.7441C12.9099 6.53083 13.0002 6.02595 13.0002 5.5C13.0002 4.98536 12.9138 4.4909 12.7547 4.03033C12.8332 4.01052 12.9154 4 13.0001 4H20.0001C20.5524 4 21.0001 4.44772 21.0001 5V14C21.0001 14.5523 20.5524 15 20.0001 15H17.5001L19.4232 19.6154C19.6356 20.1252 19.3945 20.7107 18.8847 20.9231C18.3749 21.1355 17.7895 20.8944 17.577 20.3846L15.7501 16L13.9232 20.3846C13.7407 20.8226 13.2829 21.0622 12.8342 20.9864C12.9417 20.6775 13.0002 20.3456 13.0002 20V17.3998L14.0001 15H13.0002Z" fill="#0F172B"/>
<path d="M6.00012 5.5C6.00012 4.11929 7.11941 3 8.50012 3C9.88083 3 11.0001 4.11929 11.0001 5.5C11.0001 6.88071 9.88083 8 8.50012 8C7.11941 8 6.00012 6.88071 6.00012 5.5Z" fill="#0F172B"/>
<path d="M15.0002 11H11.0001V20C11.0001 20.5523 10.5524 21 10.0001 21C9.44784 21 9.00012 20.5523 9.00012 20V16H8.00012V20C8.00012 20.5523 7.55241 21 7.00012 21C6.44784 21 6.00012 20.5523 6.00012 20V13.3027L4.83216 15.0547C4.5258 15.5142 3.90493 15.6384 3.44541 15.332C2.98588 15.0257 2.8617 14.4048 3.16806 13.9453L6.16033 9.45687C6.25435 9.3118 6.38493 9.19264 6.53902 9.11242C6.6533 9.05293 6.7805 9.01487 6.91532 9.00355C6.94896 9.00066 6.98279 8.99947 7.01666 9H15.0002C15.5524 9 16.0002 9.44772 16.0002 10C16.0002 10.5523 15.5524 11 15.0002 11Z" fill="#0F172B"/>
</svg>
