<svg width="24" height="24" viewBox="0 0 24 24" fill="none" xmlns="http://www.w3.org/2000/svg">
<path d="M5.69326 16.0133L7.3104 16.0139C7.75722 16.0138 8.18562 15.8363 8.50146 15.5205C8.81731 15.2046 8.99477 14.7762 8.99486 14.3294L8.99456 13.6842C8.99443 13.2373 9.17181 12.8088 9.48771 12.4929C9.8036 12.177 10.2321 11.9996 10.679 11.9998L13.3263 12.0007C13.7732 12.0008 14.2018 12.1785 14.5179 12.4946C14.834 12.8108 15.0117 13.2394 15.0119 13.6863L15.0122 14.3315C15.0126 14.7783 15.1904 15.2068 15.5064 15.5229C15.8225 15.839 16.1993 16.0167 16.6461 16.0171L18.3312 16.0177C18.5574 16.0375 18.7852 16.0076 18.9986 15.93C19.212 15.8523 19.4057 15.7289 19.5663 15.5684C19.7268 15.4078 19.8502 15.2141 19.9278 15.0007C20.0055 14.7873 20.0354 14.2254 20.0156 13.9992C20.0303 9.58373 16.4448 7.99564 12.0168 7.99529C7.58868 7.99493 4.00244 9.57989 4.00519 13.9911C3.98512 14.2178 4.01502 14.7802 4.09277 14.9941C4.17052 15.208 4.29424 15.4023 4.4552 15.5633C4.61616 15.7242 4.81045 15.848 5.02436 15.9257C5.23828 16.0035 5.46661 16.0334 5.69326 16.0133Z" stroke="#111928" stroke-width="2" stroke-linecap="round" stroke-linejoin="round"/>
</svg>
