<svg width="24" height="24" viewBox="0 0 24 24" fill="none" xmlns="http://www.w3.org/2000/svg">
<path d="M8.9884 3.21891C11.996 3.46605 14.9334 4.73764 17.2301 7.03431C19.4991 9.30338 20.7677 12.198 21.0361 15.1678C21.1542 16.4741 20.2191 17.519 19.0613 17.7652C18.6832 17.8457 18.3187 17.8418 17.9787 17.7705C17.9261 16.8256 17.8465 15.7842 17.7528 15.0462C17.4862 12.9468 16.695 11.0638 14.9478 9.31664C13.205 7.57381 11.2614 6.7159 9.12774 6.41404C8.68407 6.35128 7.51154 6.22511 6.43566 6.14603C6.37333 5.80041 6.38237 5.43133 6.48082 5.05063C6.76072 3.96823 7.75934 3.11791 8.9884 3.21891Z" fill="#383838"/>
<path fill-rule="evenodd" clip-rule="evenodd" d="M15.7687 15.2981C15.8476 15.9194 15.9168 16.7905 15.9664 17.6162L4.6757 20.8741C4.32661 20.9748 3.95036 20.8783 3.69289 20.622C3.43542 20.3656 3.33725 19.9898 3.43647 19.6403L6.69176 8.17203C7.58219 8.2454 8.48203 8.34261 8.84759 8.39433C10.5854 8.64018 12.1206 9.31781 13.5336 10.7309C14.939 12.1363 15.5528 13.5974 15.7687 15.2981ZM11.4139 10.7192C11.3901 10.1674 10.9235 9.73943 10.3717 9.76323C9.81992 9.78704 9.39192 10.2536 9.41572 10.8054L9.41619 10.8162C9.43999 11.368 9.90659 11.796 10.4584 11.7722C11.0101 11.7484 11.4381 11.2818 11.4143 10.73L11.4139 10.7192ZM14.5012 13.8065C14.4774 13.2547 14.0108 12.8267 13.459 12.8505C12.9072 12.8743 12.4792 13.3409 12.503 13.8927L12.5035 13.9035C12.5273 14.4553 12.9938 14.8833 13.5456 14.8595C14.0974 14.8357 14.5254 14.3691 14.5016 13.8174L14.5012 13.8065ZM9.91449 15.3059C9.89072 14.7542 9.42415 14.3261 8.87238 14.3499C8.32061 14.3737 7.89258 14.8402 7.91635 15.392L7.91681 15.4028C7.94058 15.9546 8.40715 16.3826 8.95892 16.3589C9.5107 16.3351 9.93873 15.8685 9.91496 15.3168L9.91449 15.3059Z" fill="#383838"/>
</svg>
