<svg width="24" height="24" viewBox="0 0 24 24" fill="none" xmlns="http://www.w3.org/2000/svg">
<path fill-rule="evenodd" clip-rule="evenodd" d="M8 3C6.89543 3 6 3.89543 6 5V8H18V5C18 3.89543 17.1046 3 16 3H8ZM5 10C3.89543 10 3 10.8954 3 12V17C3 18.1046 3.89543 19 5 19H6V15C6 14.4477 6.44772 14 7 14H17C17.5523 14 18 14.4477 18 15V19H19C20.1046 19 21 18.1046 21 17V12C21 10.8954 20.1046 10 19 10H18H6H5ZM9 21C8.44772 21 8 20.5523 8 20V16H16V20C16 20.5523 15.5523 21 15 21H9Z" fill="#111928"/>
</svg>
