<svg width="24" height="24" viewBox="0 0 24 24" fill="none" xmlns="http://www.w3.org/2000/svg">
<path d="M4 4H10V10H4V4Z" stroke="#111928" stroke-width="2" stroke-linejoin="round"/>
<path d="M14 14H20V20H14V14Z" stroke="#111928" stroke-width="2" stroke-linejoin="round"/>
<path d="M14 4H20V10H14V4Z" stroke="#111928" stroke-width="2" stroke-linejoin="round"/>
<path d="M10 14H10.01V14.01H10V14Z" stroke="#111928" stroke-width="2" stroke-linejoin="round"/>
<path d="M10 18H10.01V18.01H10V18Z" stroke="#111928" stroke-width="2" stroke-linejoin="round"/>
<path d="M7 20H7.01V20.01H7V20Z" stroke="#111928" stroke-width="2" stroke-linejoin="round"/>
<path d="M7 16H7.01V16.01H7V16Z" stroke="#111928" stroke-width="2" stroke-linejoin="round"/>
<path d="M4 18H4.01V18.01H4V18Z" stroke="#111928" stroke-width="2" stroke-linejoin="round"/>
<path d="M4 14H4.01V14.01H4V14Z" stroke="#111928" stroke-width="2" stroke-linejoin="round"/>
<path d="M7 7H7.01V7.01H7V7Z" stroke="#111928" stroke-width="2" stroke-linejoin="round"/>
<path d="M17 17H17.01V17.01H17V17Z" stroke="#111928" stroke-width="2" stroke-linejoin="round"/>
</svg>
