<svg width="24" height="24" viewBox="0 0 24 24" fill="none" xmlns="http://www.w3.org/2000/svg">
<path fill-rule="evenodd" clip-rule="evenodd" d="M2 12C2 6.47715 6.47715 2 12 2C17.5228 2 22 6.47715 22 12C22 17.5228 17.5228 22 12 22C6.47715 22 2 17.5228 2 12ZM11.0084 8.98178C11.3006 8.71109 11.6883 8.56756 12.0863 8.58276C12.4844 8.59797 12.86 8.77066 13.1307 9.06285C13.4014 9.35504 13.5449 9.7428 13.5297 10.1408L13.5291 10.1649C13.5264 10.3566 13.4854 10.5459 13.4085 10.7216C13.3317 10.8972 13.2205 11.0558 13.0815 11.1878C12.9424 11.3199 12.7784 11.4229 12.5991 11.4907C12.4197 11.5585 12.2286 11.5898 12.037 11.5827C11.7656 11.5726 11.5017 11.6734 11.3061 11.8619C11.1105 12.0504 11 12.3104 11 12.582V14C11 14.5523 11.4477 15 12 15C12.5523 15 13 14.5523 13 14V13.4611C13.1034 13.4328 13.2056 13.3995 13.3063 13.3615C13.7349 13.1994 14.1269 12.9534 14.4591 12.6377C14.7913 12.3221 15.0571 11.9432 15.2408 11.5234C15.4229 11.1073 15.5207 10.6592 15.5287 10.2052C15.5608 9.28131 15.2263 8.38203 14.5979 7.70365C13.9667 7.02234 13.0907 6.61967 12.1627 6.58422C11.2346 6.54877 10.3305 6.88344 9.64917 7.51461C8.96786 8.14578 8.56519 9.02175 8.52973 9.94982C8.50865 10.5017 8.93895 10.9662 9.49083 10.9873C10.0427 11.0083 10.5072 10.578 10.5283 10.0262C10.5435 9.62815 10.7162 9.25247 11.0084 8.98178ZM11.99 16.0078C11.4377 16.0078 10.99 16.4555 10.99 17.0078C10.99 17.5601 11.4377 18.0078 11.99 18.0078H12C12.5523 18.0078 13 17.5601 13 17.0078C13 16.4555 12.5523 16.0078 12 16.0078H11.99Z" fill="#111928"/>
</svg>
