<svg width="24" height="24" viewBox="0 0 24 24" fill="none" xmlns="http://www.w3.org/2000/svg">
<path d="M14.5017 7.04601H12.0026V6.11801C12.0108 5.71156 11.9022 5.31129 11.6895 4.96486C11.4768 4.61844 11.1691 4.34046 10.803 4.16401C10.478 4.01632 10.1169 3.96707 9.76423 4.02234C9.41159 4.07761 9.08285 4.23497 8.8186 4.47501L3.71128 8.96501C3.48708 9.17108 3.30809 9.42147 3.18566 9.70033C3.06322 9.97919 3 10.2804 3 10.585C3 10.8896 3.06322 11.1908 3.18566 11.4697C3.30809 11.7486 3.48708 11.9989 3.71128 12.205L8.8186 16.7C9.08318 16.9399 9.41214 17.097 9.76492 17.1521C10.1177 17.2072 10.4789 17.1578 10.8039 17.01C11.1706 16.833 11.4786 16.5541 11.6911 16.2068C11.9036 15.8594 12.0118 15.4582 12.0026 15.051V14.123H13.0022C13.5385 14.1299 14.0502 14.3492 14.425 14.733C14.7998 15.1167 15.0072 15.6335 15.0016 16.17V19C15.0016 19.1549 15.0376 19.3076 15.1067 19.4462C15.1758 19.5848 15.2762 19.7055 15.3998 19.7986C15.5235 19.8918 15.6671 19.955 15.8194 19.9832C15.9716 20.0113 16.1283 20.0038 16.2772 19.961C17.789 19.514 19.0907 18.5398 19.9459 17.2149C20.8011 15.8901 21.1533 14.3025 20.9385 12.7402C20.7238 11.1778 19.9563 9.74426 18.7753 8.69954C17.5943 7.65482 16.0781 7.06816 14.5017 7.04601Z" fill="#111928"/>
</svg>
