<svg width="24" height="24" viewBox="0 0 24 24" fill="none" xmlns="http://www.w3.org/2000/svg">
<path d="M14.5001 8.04596H11.0001V6.11896C11.0001 5.19796 10.1001 4.67296 9.47609 5.22496L4.36809 9.71496C4.25024 9.82705 4.15641 9.96193 4.0923 10.1114C4.02818 10.2609 3.99512 10.4218 3.99512 10.5845C3.99512 10.7471 4.02818 10.908 4.0923 11.0575C4.15641 11.207 4.25024 11.3419 4.36809 11.454L9.47609 15.944C10.1001 16.5 11.0001 15.971 11.0001 15.051V13.123H13.0001C13.3971 13.126 13.7896 13.2071 14.1552 13.3618C14.5208 13.5166 14.8524 13.7418 15.131 14.0246C15.4095 14.3075 15.6297 14.6424 15.7788 15.0103C15.9279 15.3783 16.0031 15.772 16.0001 16.169V19C17.281 18.6197 18.3834 17.7935 19.1079 16.6708C19.8324 15.5481 20.131 14.2032 19.9498 12.8794C19.7685 11.5556 19.1193 10.3405 18.1197 9.45387C17.12 8.56728 15.8361 8.06785 14.5001 8.04596Z" stroke="#111928" stroke-width="2" stroke-linecap="round" stroke-linejoin="round"/>
</svg>
