<svg width="24" height="24" viewBox="0 0 24 24" fill="none" xmlns="http://www.w3.org/2000/svg">
<path d="M6.99999 11L12 5L15.3333 9M6.99999 11H3.99999V19H11M6.99999 11H3L6 7H10.3374L6.99999 11ZM15.3313 9L13.6626 7H18L19.5 9M11.1763 14.8976C10.1524 14.483 9.65853 13.317 10.0731 12.2932C10.4877 11.2693 11.6537 10.7754 12.6775 11.19M16 15V12.5C16 11.6716 16.6716 11 17.5 11C18.3284 11 19 11.6716 19 12.5V15M15 15H20C20.5523 15 21 15.4477 21 16V18C21 18.5523 20.5523 19 20 19H15C14.4477 19 14 18.5523 14 18V16C14 15.4477 14.4477 15 15 15Z" stroke="#383838" stroke-width="2" stroke-linecap="round" stroke-linejoin="round"/>
</svg>
