<svg width="24" height="24" viewBox="0 0 24 24" fill="none" xmlns="http://www.w3.org/2000/svg">
<path d="M16.7614 15.4642L18.5292 17.232M18.5292 17.232L20.2969 18.9998M18.5292 17.232L16.7614 18.9998M18.5292 17.232L20.2969 15.4642M6.99999 11L12 5L17 11M6.99999 11H3.99999V19H13.0797M6.99999 11H3L6 7H10.3374L6.99999 11ZM17 11H20V12.5574M17 11H21L18 7H13.6626L17 11ZM14 13C14 14.1046 13.1046 15 12 15C10.8954 15 9.99999 14.1046 9.99999 13C9.99999 11.8954 10.8954 11 12 11C13.1046 11 14 11.8954 14 13Z" stroke="#383838" stroke-width="2" stroke-linecap="round" stroke-linejoin="round"/>
</svg>
