<svg width="24" height="24" viewBox="0 0 24 24" fill="none" xmlns="http://www.w3.org/2000/svg">
<path fill-rule="evenodd" clip-rule="evenodd" d="M15 4C15 3.44772 15.4477 3 16 3H20C20.5523 3 21 3.44772 21 4V7C21 7.55228 20.5523 8 20 8H16V21H8V7.86853L6.55468 8.83205C6.09516 9.1384 5.47429 9.01423 5.16793 8.5547C4.86158 8.09517 4.98576 7.4743 5.44528 7.16795L11.4453 3.16795C11.7812 2.94402 12.2188 2.94402 12.5547 3.16795L15 4.79816V4ZM10 12C10 11.4477 10.4477 11 11 11H13C13.5523 11 14 11.4477 14 12C14 12.5523 13.5523 13 13 13H11C10.4477 13 10 12.5523 10 12ZM11 8C10.4477 8 10 8.44772 10 9C10 9.55228 10.4477 10 11 10H13C13.5523 10 14 9.55228 14 9C14 8.44772 13.5523 8 13 8H11Z" fill="#0F172B"/>
<path d="M18 9.00011L17.9843 9H18.0139L18 9.00011Z" fill="#0F172B"/>
<path d="M6 10.5237L3.72925 11.1623C3.29797 11.2836 3 11.677 3 12.125V20C3 20.5523 3.44772 21 4 21H6V10.5237Z" fill="#0F172B"/>
<path d="M20.2707 11.1623L18 10.5237V21H20C20.5523 21 21 20.5523 21 20V12.125C21 11.677 20.702 11.2836 20.2707 11.1623Z" fill="#0F172B"/>
</svg>
