<svg width="24" height="24" viewBox="0 0 24 24" fill="none" xmlns="http://www.w3.org/2000/svg">
<path d="M6.65111 11.6306L12 5.04736L15.0095 8.75141C14.3825 9.1688 13.8662 9.73931 13.514 10.4095C13.0696 10.1492 12.5522 10 12 10C10.3431 10 8.99999 11.3432 8.99999 13C8.99999 14.3076 9.83649 15.4197 11.0035 15.8306C11.0012 15.8867 11 15.9432 11 16V18C11 18.7286 11.1948 19.4117 11.5351 20H4C3.44772 20 3 19.5523 3 19L3 12H5.87499C6.17612 12 6.46122 11.8643 6.65111 11.6306Z" fill="#0F172B"/>
<path fill-rule="evenodd" clip-rule="evenodd" d="M16.1022 10.427C15.4372 10.8762 15 11.6371 15 12.5V14C14.9416 14 14.8838 14.0025 14.8267 14.0074C13.8604 14.0904 13.0904 14.8604 13.0074 15.8267L13.0068 15.8334C13.0023 15.8884 13 15.9439 13 16V18C13 19.1046 13.8954 20 15 20H20L20.0079 20C21.1088 19.9957 22 19.1019 22 18V16C22 15.2597 21.5978 14.6134 21 14.2676C20.9846 14.2586 20.969 14.2499 20.9533 14.2414C20.6699 14.0874 20.3452 14 20 14V12.5C20 12.3288 19.9828 12.1616 19.95 12C19.7184 10.8589 18.7095 10 17.5 10C17.0575 10 16.6419 10.115 16.2813 10.3167C16.22 10.351 16.1602 10.3878 16.1022 10.427ZM17.5 12C17.2239 12 17 12.2239 17 12.5V14H18V12.5C18 12.2239 17.7761 12 17.5 12Z" fill="#0F172B"/>
<path d="M21.2422 10C20.435 8.79402 19.0602 8 17.5 8C17.3305 8 17.1631 8.00938 16.9984 8.02764L15.351 6.00001H18C18.3148 6.00001 18.6112 6.14821 18.8 6.40001L21.5 10H21.2422Z" fill="#0F172B"/>
<path d="M12.9114 12.5879C12.7544 12.2412 12.4054 12 12 12C11.4477 12 11 12.4477 11 13C11 13.4054 11.2412 13.7544 11.5879 13.9114C11.9183 13.3728 12.3727 12.9183 12.9114 12.5879Z" fill="#0F172B"/>
<path d="M5.2 6.40001L2.5 10H5.39902L8.64902 6.00001H6C5.68524 6.00001 5.38885 6.14821 5.2 6.40001Z" fill="#0F172B"/>
</svg>
