<svg width="24" height="24" viewBox="0 0 24 24" fill="none" xmlns="http://www.w3.org/2000/svg">
<path fill-rule="evenodd" clip-rule="evenodd" d="M21.7071 14.2929C22.0976 14.6834 22.0976 15.3166 21.7071 15.7071L17.7071 19.7071C17.3166 20.0976 16.6834 20.0976 16.2929 19.7071L14.2929 17.7071C13.9024 17.3166 13.9024 16.6834 14.2929 16.2929C14.6834 15.9024 15.3166 15.9024 15.7071 16.2929L17 17.5858L20.2929 14.2929C20.6834 13.9024 21.3166 13.9024 21.7071 14.2929Z" fill="#0F172B"/>
<path d="M6.65111 11.6306L12 5.04736L17.3489 11.6306C17.5388 11.8643 17.8239 12 18.125 12H20.9905C20.2259 12.0024 19.4621 12.2953 18.8787 12.8787L16.9966 14.7608C16.3831 14.2128 15.5984 13.9608 14.8275 14.0049C14.9392 13.6908 15 13.3525 15 13C15 11.3432 13.6568 10 12 10C10.3431 10 8.99999 11.3432 8.99999 13C8.99999 14.6569 10.3431 16 12 16C12.0579 16 12.1154 15.9984 12.1726 15.9951C11.7979 17.0516 12.0333 18.2759 12.8787 19.1213L13.7574 20H4C3.44772 20 3 19.5523 3 19L3 12H5.87499C6.17612 12 6.46122 11.8643 6.65111 11.6306Z" fill="#0F172B"/>
<path d="M12 12C11.4477 12 11 12.4477 11 13C11 13.5523 11.4477 14 12 14C12.5523 14 13 13.5523 13 13C13 12.4477 12.5523 12 12 12Z" fill="#0F172B"/>
<path d="M2.5 10L5.2 6.40001C5.38885 6.14821 5.68524 6.00001 6 6.00001H8.64902L5.39902 10H2.5Z" fill="#0F172B"/>
<path d="M15.351 6.00001L18.601 10H21.5L18.8 6.40001C18.6112 6.14821 18.3148 6.00001 18 6.00001H15.351Z" fill="#0F172B"/>
</svg>
