<svg width="24" height="24" viewBox="0 0 24 24" fill="none" xmlns="http://www.w3.org/2000/svg">
<path fill-rule="evenodd" clip-rule="evenodd" d="M19 19C19 18.4477 19.4477 18 20 18H20.01C20.5623 18 21.01 18.4477 21.01 19C21.01 19.5523 20.5623 20 20.01 20H20C19.4477 20 19 19.5523 19 19Z" fill="#0F172B"/>
<path fill-rule="evenodd" clip-rule="evenodd" d="M20 12C20.5523 12 21 12.4477 21 13V16C21 16.5523 20.5523 17 20 17C19.4477 17 19 16.5523 19 16V13C19 12.4477 19.4477 12 20 12Z" fill="#0F172B"/>
<path d="M11 13C11 12.4477 11.4477 12 12 12C12.5523 12 13 12.4477 13 13C13 13.5523 12.5523 14 12 14C11.4477 14 11 13.5523 11 13Z" fill="#0F172B"/>
<path fill-rule="evenodd" clip-rule="evenodd" d="M12 5.04736L6.65111 11.6306C6.46122 11.8643 6.17612 12 5.87499 12H3L3 19C3 19.5523 3.44772 20 4 20H17.1707C17.0602 19.6872 17 19.3506 17 19C17 18.4536 17.1461 17.9413 17.4013 17.5C17.1461 17.0587 17 16.5464 17 16V13C17 12.501 17.1218 12.0304 17.3374 11.6165L12 5.04736ZM12 10C10.3431 10 8.99999 11.3432 8.99999 13C8.99999 14.6569 10.3431 16 12 16C13.6568 16 15 14.6569 15 13C15 11.3432 13.6568 10 12 10Z" fill="#0F172B"/>
<path d="M20.0095 10C20.0063 10 20.0032 10 20 10C19.9968 10 19.9937 10 19.9905 10H18.601L15.351 6.00001H18C18.3148 6.00001 18.6112 6.14821 18.8 6.40001L21.5 10H20.0095Z" fill="#0F172B"/>
<path d="M19.9945 12C19.4447 12.003 19 12.4495 19 13V16C19 16.0565 19.0047 16.1119 19.0137 16.1659C19.0927 16.6392 19.5042 17 20 17L20.01 17C20.5024 16.9951 20.9097 16.6344 20.9868 16.1626C20.9955 16.1097 21 16.0554 21 16V13C21 12.4495 20.5553 12.003 20.0055 12H19.9945Z" fill="#0F172B"/>
<path d="M21 18.8581C20.9987 18.8489 20.9973 18.8398 20.9957 18.8308C20.9154 18.3591 20.5046 18 20.01 18H20C19.5042 18 19.0927 18.3608 19.0137 18.8341C19.0047 18.8881 19 18.9435 19 19C19 19.5523 19.4477 20 20 20H20.0056C20.5553 19.997 21 19.5504 21 19V18.8581Z" fill="#0F172B"/>
<path d="M2.5 10L5.2 6.40001C5.38885 6.14821 5.68524 6.00001 6 6.00001H8.64902L5.39902 10H2.5Z" fill="#0F172B"/>
</svg>
