<svg width="24" height="24" viewBox="0 0 24 24" fill="none" xmlns="http://www.w3.org/2000/svg">
<path d="M6.65111 11.6306L12 5.04736L17.3489 11.6306C17.5388 11.8643 17.8239 12 18.125 12H21V13.0646C20.1518 12.8169 19.1981 13.0275 18.5292 13.6965C17.5529 12.7201 15.97 12.7202 14.9937 13.6965C14.958 13.7321 14.9236 13.7686 14.8905 13.8059C14.9619 13.5495 15 13.2792 15 13C15 11.3432 13.6568 10 12 10C10.3431 10 8.99999 11.3432 8.99999 13C8.99999 14.6569 10.3431 16 12 16C12.9389 16 13.777 15.5687 14.3271 14.8934C14.1371 15.7072 14.3593 16.5976 14.9937 17.232C14.2453 17.9804 14.0706 19.0852 14.4695 20H4C3.44772 20 3 19.5523 3 19L3 12H5.87499C6.17612 12 6.46122 11.8643 6.65111 11.6306Z" fill="#0F172B"/>
<path d="M17.4685 14.7571C17.078 14.3666 16.4448 14.3666 16.0543 14.7571C15.6638 15.1476 15.6638 15.7808 16.0543 16.1713L17.115 17.232L16.0543 18.2927C15.6638 18.6832 15.6638 19.3163 16.0543 19.7069C16.4448 20.0974 17.078 20.0974 17.4685 19.7069L18.5292 18.6462L19.5898 19.7069C19.7363 19.8533 19.9168 19.9448 20.1059 19.9815C20.1204 19.9843 20.135 19.9867 20.1496 19.9889C20.4521 20.0337 20.7712 19.9397 21.004 19.7069C21.3946 19.3163 21.3946 18.6832 21.004 18.2927L19.9434 17.232L21 16.1754L21.004 16.1713C21.3946 15.7808 21.3946 15.1476 21.004 14.7571L21 14.7531C20.9597 14.7133 20.9169 14.6775 20.872 14.6459C20.4818 14.371 19.9389 14.4081 19.5898 14.7571L18.5292 15.8178L17.4685 14.7571Z" fill="#0F172B"/>
<path d="M12 12C11.4477 12 11 12.4477 11 13C11 13.5523 11.4477 14 12 14C12.5523 14 13 13.5523 13 13C13 12.4477 12.5523 12 12 12Z" fill="#0F172B"/>
<path d="M2.5 10L5.2 6.40001C5.38885 6.14821 5.68524 6.00001 6 6.00001H8.64902L5.39902 10H2.5Z" fill="#0F172B"/>
<path d="M15.351 6.00001L18.601 10H21.5L18.8 6.40001C18.6112 6.14821 18.3148 6.00001 18 6.00001H15.351Z" fill="#0F172B"/>
</svg>
