<svg width="24" height="24" viewBox="0 0 24 24" fill="none" xmlns="http://www.w3.org/2000/svg">
<path d="M10.9715 12.2168C10.9597 12.2574 10.9481 12.2963 10.9368 12.3334C10.9759 12.3908 11.0187 12.4526 11.0646 12.5189C11.3923 12.9919 11.8766 13.6909 12.2787 14.6081C12.4934 14.3217 12.7403 14.0282 13.0234 13.7249L13.021 13.6932C12.9974 13.3678 12.9849 12.9149 13.0301 12.4027C13.1183 11.4049 13.4396 10.0332 14.4924 9.00715C15.5003 8.02486 16.848 7.5833 17.8968 7.40799C18.4312 7.31867 18.9291 7.29134 19.3264 7.3093C19.5218 7.31813 19.7196 7.33904 19.8971 7.37964C19.9843 7.3996 20.095 7.43061 20.2085 7.48196C20.2952 7.52123 20.5187 7.6305 20.6854 7.87391C20.8307 8.08608 20.8847 8.3332 20.9054 8.42977C20.9375 8.5794 20.9613 8.75111 20.9766 8.93375C21.0073 9.30051 21.0077 9.76182 20.9475 10.2629C20.8294 11.2457 20.4604 12.5151 19.4775 13.4731C18.4418 14.4824 17.0039 14.8534 15.9578 14.998C15.4158 15.0729 14.9325 15.0932 14.5842 15.0949C14.5482 15.0951 14.5136 15.0951 14.4805 15.0949C13.5495 16.0936 13.2117 16.8266 13.0733 17.4461C13.0388 17.6006 13.0152 17.7491 12.9994 17.8971C12.9998 17.9313 13 17.9656 13 18V20C13 20.5523 12.5523 21 12 21C11.4477 21 11 20.5523 11 20C11 19.8009 10.9936 19.5886 10.9869 19.3666C10.9727 18.8953 10.9571 18.3798 10.9986 17.8528C10.9628 15.9742 10.2431 14.9123 9.59737 13.9596C9.45928 13.7559 9.32457 13.5571 9.20066 13.3564C9.1488 13.3459 9.09357 13.3342 9.03528 13.3214C8.64057 13.2349 8.09725 13.0946 7.50112 12.8782C6.34476 12.4585 4.82525 11.6941 3.91369 10.3251C3.00817 8.96517 2.8739 7.36194 2.95367 6.16555C2.99433 5.55571 3.09283 5.01424 3.19818 4.60509C3.25052 4.40182 3.30795 4.21794 3.36663 4.06705C3.39528 3.99338 3.43082 3.91042 3.47376 3.83047C3.49508 3.79079 3.52596 3.73728 3.56706 3.68026C3.59919 3.6357 3.68095 3.52682 3.817 3.42969C4.00041 3.29876 4.18051 3.26214 4.24449 3.25037C4.32989 3.23465 4.40468 3.23096 4.45508 3.23013C4.55738 3.22843 4.65743 3.23746 4.74001 3.24773C4.9109 3.26899 5.11299 3.30928 5.32907 3.36299C5.76558 3.47149 6.32654 3.65159 6.92575 3.90875C8.09519 4.41063 9.56394 5.27165 10.4551 6.61001C11.3799 7.99892 11.4152 9.60602 11.2731 10.7574C11.2005 11.3464 11.0769 11.8549 10.9715 12.2168Z" fill="#383838"/>
</svg>
