<svg width="24" height="24" viewBox="0 0 24 24" fill="none" xmlns="http://www.w3.org/2000/svg">
<path fill-rule="evenodd" clip-rule="evenodd" d="M5 5C3.89543 5 3 5.89543 3 7V10C3 10.5523 3.44772 11 4 11H20C20.5523 11 21 10.5523 21 10V7C21 5.89543 20.1046 5 19 5H5ZM14 7C13.4477 7 13 7.44772 13 8C13 8.55228 13.4477 9 14 9H14.01C14.5623 9 15.01 8.55228 15.01 8C15.01 7.44772 14.5623 7 14.01 7H14ZM17 7C16.4477 7 16 7.44772 16 8C16 8.55228 16.4477 9 17 9H17.01C17.5623 9 18.01 8.55228 18.01 8C18.01 7.44772 17.5623 7 17.01 7H17Z" fill="#111928"/>
<path fill-rule="evenodd" clip-rule="evenodd" d="M3 17V14C3 13.4477 3.44772 13 4 13H20C20.5523 13 21 13.4477 21 14V17C21 18.1046 20.1046 19 19 19H5C3.89543 19 3 18.1046 3 17ZM14 15C13.4477 15 13 15.4477 13 16C13 16.5523 13.4477 17 14 17H14.01C14.5623 17 15.01 16.5523 15.01 16C15.01 15.4477 14.5623 15 14.01 15H14ZM17 15C16.4477 15 16 15.4477 16 16C16 16.5523 16.4477 17 17 17H17.01C17.5623 17 18.01 16.5523 18.01 16C18.01 15.4477 17.5623 15 17.01 15H17Z" fill="#111928"/>
</svg>
