<svg width="24" height="24" viewBox="0 0 24 24" fill="none" xmlns="http://www.w3.org/2000/svg">
<path fill-rule="evenodd" clip-rule="evenodd" d="M14.5156 6.74338C14.1068 6.37481 14.0727 5.74293 14.4394 5.33206C14.8061 4.92119 15.4348 4.8869 15.8436 5.25548L21.3306 10.2026L21.3379 10.2094C21.5466 10.4013 21.7132 10.6348 21.8272 10.895C21.9411 11.1552 22 11.4364 22 11.7206C22 12.0049 21.9411 12.2861 21.8272 12.5463C21.7132 12.8064 21.5466 13.0399 21.338 13.2319L15.754 18.3202C15.3472 18.6909 14.7183 18.66 14.3495 18.251C13.9806 17.8421 14.0114 17.2101 14.4183 16.8393L19.9957 11.7569C20.0005 11.7523 20.0044 11.7469 20.0071 11.7408C20.0098 11.7344 20.0113 11.7276 20.0113 11.7206C20.0113 11.7137 20.0098 11.7068 20.0071 11.7005C20.0045 11.6947 20.0009 11.6895 19.9964 11.685L14.5156 6.74338ZM7.97252 15.9417V15.5224C7.53579 15.6451 7.11977 15.8395 6.742 16.1C6.08102 16.5557 5.5655 17.194 5.25765 17.9377C5.10418 18.3193 4.81803 18.6321 4.45226 18.8177C4.08386 19.0046 3.66015 19.0496 3.261 18.9443C2.86185 18.8389 2.51484 18.5904 2.28539 18.2456C2.07111 17.9237 1.97317 17.5385 2.00632 17.1543V15.8787C2.00632 12.1083 4.53236 8.83996 7.97252 8.30552V7.56997C7.94793 7.21056 8.02293 6.85092 8.18974 6.53121C8.36548 6.19438 8.63544 5.9166 8.96633 5.7321C9.29723 5.5476 9.67461 5.46444 10.052 5.49288C10.4293 5.52132 10.7901 5.66011 11.0899 5.89215C11.0999 5.89986 11.1097 5.90775 11.1194 5.91583L16.1986 10.1644C16.2028 10.1679 16.2071 10.1715 16.2112 10.1751C16.2149 10.1783 16.2186 10.1816 16.2223 10.1848C16.4432 10.3817 16.6201 10.6235 16.7412 10.8942C16.8623 11.1649 16.925 11.4583 16.925 11.7551C16.925 12.0519 16.8623 12.3453 16.7412 12.616C16.6201 12.8867 16.4432 13.1285 16.2223 13.3254C16.2145 13.3323 16.2066 13.3391 16.1986 13.3458L11.1194 17.5944C11.1097 17.6025 11.0998 17.6104 11.0898 17.6181C10.7902 17.85 10.4295 17.9887 10.0524 18.0172C9.67529 18.0457 9.2981 17.9627 8.96729 17.7785C8.63648 17.5943 8.3665 17.3168 8.19059 16.9803C8.02351 16.6608 7.94821 16.3012 7.97252 15.9417Z" fill="#111928"/>
</svg>
