<svg width="24" height="24" viewBox="0 0 24 24" fill="none" xmlns="http://www.w3.org/2000/svg">
<path d="M13.0012 19.9265L15.8973 21.6995C17.4173 22.6301 19.3021 21.2576 18.8888 19.521L17.8292 15.0686L21.2974 12.0908C22.6501 10.9294 21.9302 8.7086 20.1548 8.56593L15.6026 8.20014L13.8489 3.97382C13.6644 3.52938 13.3604 3.20478 13.0012 3V19.9265Z" fill="#111928"/>
<path d="M10.9988 3C10.6396 3.20478 10.3356 3.52939 10.1511 3.97382L8.39736 8.20014L3.84523 8.56593C2.06977 8.7086 1.34986 10.9294 2.70257 12.0908L6.17081 15.0686L5.1112 19.521C4.69793 21.2576 6.58271 22.6301 8.10274 21.6995L10.9988 19.9265L10.9988 3Z" fill="#111928"/>
</svg>
