<svg width="24" height="24" viewBox="0 0 24 24" fill="none" xmlns="http://www.w3.org/2000/svg">
<path fill-rule="evenodd" clip-rule="evenodd" d="M3.37506 3.21938C3.80618 2.8742 4.4355 2.94387 4.78069 3.37499L8.56111 8.0966L12.3415 3.37499C12.6867 2.94387 13.316 2.8742 13.7472 3.21938C14.1783 3.56457 14.2479 4.19389 13.9028 4.62501L9.84215 9.69658L13.9028 14.7682C14.248 15.1993 14.1783 15.8286 13.7472 16.1738C13.3161 16.519 12.6867 16.4493 12.3416 16.0182L8.56111 11.2965L4.78065 16.0182C4.43547 16.4493 3.80615 16.519 3.37503 16.1738C2.9439 15.8286 2.87424 15.1993 3.21942 14.7682L7.28007 9.69658L3.21946 4.62501C2.87427 4.19389 2.94394 3.56457 3.37506 3.21938ZM15.0001 15C15.0001 13.8954 15.8955 13 17.0001 13H18.7501C19.8545 13 20.7501 13.8952 20.7501 14.9999V16C20.7501 16.6506 20.3486 17.175 20.0609 17.4936C19.734 17.8557 19.3112 18.2088 18.9002 18.5277C18.6976 18.6849 18.4837 18.8445 18.2727 19H20.0001C20.5524 19 21.0001 19.4477 21.0001 20C21.0001 20.5523 20.5524 21 20.0001 21H16.0001C15.4478 21 15.0001 20.5523 15.0001 20L15.0001 19.5C15.0001 19.224 15.1141 18.9604 15.3152 18.7713C15.6377 18.4682 16.0531 18.1515 16.4546 17.8543C16.5803 17.7612 16.7051 17.6697 16.8287 17.5791C17.1186 17.3666 17.4018 17.1589 17.6741 16.9476C18.0633 16.6456 18.3719 16.3799 18.5764 16.1534C18.6867 16.0313 18.7327 15.9574 18.7501 15.9271V15H17.0001C17.0001 15.5523 16.5524 16 16.0001 16C15.4478 16 15.0001 15.5523 15.0001 15Z" fill="#111928"/>
</svg>
