<svg width="24" height="24" viewBox="0 0 24 24" fill="none" xmlns="http://www.w3.org/2000/svg">
<path d="M20 14H17.278L11 20.278C10.7261 20.5495 10.4244 20.7915 10.1 21H20C20.2652 21 20.5196 20.8946 20.7071 20.7071C20.8946 20.5196 21 20.2652 21 20V15C21 14.7348 20.8946 14.4804 20.7071 14.2929C20.5196 14.1054 20.2652 14 20 14Z" fill="#111928"/>
<path d="M9 3H4C3.73478 3 3.48043 3.10536 3.29289 3.29289C3.10536 3.48043 3 3.73478 3 4V17.5C3 18.4283 3.36875 19.3185 4.02513 19.9749C4.6815 20.6313 5.57174 21 6.5 21C7.42826 21 8.3185 20.6313 8.97487 19.9749C9.63125 19.3185 10 18.4283 10 17.5V4C10 3.73478 9.89464 3.48043 9.70711 3.29289C9.51957 3.10536 9.26522 3 9 3ZM6.5 18.5C6.30222 18.5 6.10888 18.4414 5.94443 18.3315C5.77998 18.2216 5.65181 18.0654 5.57612 17.8827C5.50043 17.7 5.48063 17.4989 5.51921 17.3049C5.5578 17.1109 5.65304 16.9327 5.79289 16.7929C5.93275 16.653 6.11093 16.5578 6.30491 16.5192C6.49889 16.4806 6.69996 16.5004 6.88268 16.5761C7.06541 16.6518 7.22159 16.78 7.33147 16.9444C7.44135 17.1089 7.5 17.3022 7.5 17.5C7.5 17.7652 7.39464 18.0196 7.20711 18.2071C7.01957 18.3946 6.76522 18.5 6.5 18.5Z" fill="#111928"/>
<path d="M19.132 7.9L15.6 4.368C15.4125 4.18053 15.1582 4.07521 14.893 4.07521C14.6278 4.07521 14.3735 4.18053 14.186 4.368L12 6.55V16.45L19.132 9.318C19.2254 9.22507 19.2996 9.1146 19.3502 8.99292C19.4007 8.87125 19.4268 8.74077 19.4268 8.609C19.4268 8.47723 19.4007 8.34675 19.3502 8.22508C19.2996 8.1034 19.2254 7.99293 19.132 7.9Z" fill="#111928"/>
</svg>
