<svg width="24" height="24" viewBox="0 0 24 24" fill="none" xmlns="http://www.w3.org/2000/svg">
<path fill-rule="evenodd" clip-rule="evenodd" d="M5.83341 5C6.69889 4.35089 7.75156 4 8.83341 4H15.0001C15.0001 4 15.0001 4 15.0001 4H15.1667C16.2486 4 17.3013 4.35089 18.1667 5L21.1001 7.2C21.5035 7.50259 21.6185 8.05826 21.3683 8.49614L19.3683 11.9961C19.2349 12.2296 19.0131 12.3995 18.7529 12.4675C18.4928 12.5355 18.2162 12.4958 17.9856 12.3575L17.0001 11.7662V19C17.0001 19.5523 16.5524 20 16.0001 20H8.00008C7.44779 20 7.00008 19.5523 7.00008 19V11.7662L6.01457 12.3575C5.78399 12.4958 5.5074 12.5355 5.24724 12.4675C4.98707 12.3995 4.76525 12.2296 4.63183 11.9961L2.63183 8.49614C2.38162 8.05826 2.49662 7.50259 2.90008 7.2L5.83341 5ZM14.0001 5H10.0001C10.0001 5.42477 10.2225 5.93324 10.6447 6.35539C11.0668 6.77755 11.5753 7 12.0001 7C12.4248 7 12.9333 6.77755 13.3555 6.35539C13.7776 5.93324 14.0001 5.42477 14.0001 5Z" fill="#111928"/>
</svg>
