<svg width="24" height="24" viewBox="0 0 24 24" fill="none" xmlns="http://www.w3.org/2000/svg">
<path fill-rule="evenodd" clip-rule="evenodd" d="M10.4514 3.24443C9.91179 2.51379 9.0521 2 8.03768 2C6.37769 2 5 3.32563 5 5C5 6.31451 5.88028 7.35967 7.00447 7.78674C7.0015 7.85746 7 7.92855 7 8C7 8.46304 7.06294 8.91137 7.18073 9.33692L6.07985 9.65146C4.84876 10.0032 4 11.1284 4 12.4088C4 13.4269 4.51884 14.2894 5.2781 14.7956C4.49769 15.4375 4 16.4106 4 17.5C4 19.433 5.567 21 7.5 21C8.8962 21 10.1015 20.1825 10.6632 19H13.3368C13.8985 20.1825 15.1038 21 16.5 21C18.433 21 20 19.433 20 17.5C20 16.2876 19.3835 15.2192 18.447 14.5911C19.0815 14.0739 19.5 13.2862 19.5 12.3716C19.5 11.1194 18.687 10.0125 17.4925 9.63766L16.7968 9.41548C16.929 8.96668 17 8.49163 17 8C17 7.94202 16.999 7.88427 16.9971 7.82677L16.9959 7.79596C18.128 7.36708 19 6.31144 19 5C19 3.31613 17.6032 2 15.9414 2C14.9364 2 14.0995 2.5545 13.5573 3.24727C13.0672 3.08679 12.5437 3 12 3C11.4595 3 10.939 3.08577 10.4514 3.24443ZM8.68467 4.25712C8.19441 4.6917 7.79014 5.22113 7.50062 5.81666C7.19282 5.62398 7 5.30393 7 5C7 4.46523 7.44691 4 8.03768 4C8.27185 4 8.50176 4.09554 8.68467 4.25712ZM17 5C17 5.30939 16.8091 5.63046 16.5027 5.82354C16.2156 5.23065 15.8148 4.70305 15.3287 4.26904C15.5262 4.10003 15.7517 4 15.9414 4C16.5535 4 17 4.47473 17 5ZM15 17.5C15 18.3284 15.6716 19 16.5 19C17.3284 19 18 18.3284 18 17.5C18 16.6716 17.3284 16 16.5 16C15.6716 16 15 16.6716 15 17.5ZM6 17.5C6 18.3284 6.67157 19 7.5 19C8.32843 19 9 18.3284 9 17.5C9 16.6716 8.32843 16 7.5 16C6.67157 16 6 16.6716 6 17.5ZM11.043 7.48846C11.043 7.21232 10.8191 6.98846 10.543 6.98846C10.2669 6.98846 10.043 7.21232 10.043 7.48846V7.49846C10.043 7.77461 10.2669 7.99846 10.543 7.99846C10.8191 7.99846 11.043 7.77461 11.043 7.49846V7.48846ZM14.0657 7.49846C14.0657 7.22232 13.8418 6.99846 13.5657 6.99846C13.2895 6.99846 13.0657 7.22232 13.0657 7.49846V7.50846C13.0657 7.78461 13.2895 8.00846 13.5657 8.00846C13.8418 8.00846 14.0657 7.78461 14.0657 7.50846V7.49846ZM13 9.05243C13 8.50014 12.5523 8.05243 12 8.05243C11.4477 8.05243 11 8.50014 11 9.05243V9.06243C11 9.61471 11.4477 10.0624 12 10.0624C12.5523 10.0624 13 9.61471 13 9.06243V9.05243Z" fill="#111928"/>
</svg>
