<svg width="24" height="24" viewBox="0 0 24 24" fill="none" xmlns="http://www.w3.org/2000/svg">
<path d="M7.5 15C6.11929 15 5 16.1193 5 17.5C5 18.8807 6.11929 20 7.5 20C8.88071 20 10 18.8807 10 17.5C10 16.1193 8.88071 15 7.5 15ZM7.5 15L9.17693 10.8307M15.8748 7.00309C17.0117 7.00309 18 6.10457 18 5C18 3.89543 17.0783 3 15.9414 3C15.0451 3 14.2561 3.74312 13.9735 4.51992M8.12719 6.99544C7.00181 6.99544 6 6.10457 6 5C6 3.89543 6.9123 3 8.03768 3C8.97214 3 9.74434 3.67806 9.98466 4.51992M14 18H10M16 15L14.5422 11.1088M7.90714 13.9877L7.45825 14.1806C6.24889 14.5837 5 13.6836 5 12.4088C5 11.5749 5.55278 10.8421 6.35457 10.613L8.5 10M15.6055 13.9877L16.0188 14.1323C17.2315 14.5565 18.5 13.6563 18.5 12.3716C18.5 11.5557 17.9698 10.8345 17.191 10.5911L15.4452 10.0336M12 9.06243V9.05243M10.6221 7.49846V7.48846M13.6558 7.49846V7.48846M16 8C16 10.2091 14.2091 12 12 12C9.79086 12 8 10.2091 8 8C8 5.79086 9.79086 4 12 4C14.2091 4 16 5.79086 16 8ZM19 17.5C19 18.8807 17.8807 20 16.5 20C15.1193 20 14 18.8807 14 17.5C14 16.1193 15.1193 15 16.5 15C17.8807 15 19 16.1193 19 17.5Z" stroke="#111928" stroke-width="2" stroke-linecap="round" stroke-linejoin="round"/>
</svg>
