<svg width="24" height="24" viewBox="0 0 24 24" fill="none" xmlns="http://www.w3.org/2000/svg">
<path d="M7.03336 11.8623L7.04293 11.8594M12.6245 19.0018C12.1245 19.5168 11.705 19.8491 11.5634 19.8921C11.085 20.0375 6.13459 18.6124 5.3258 16.5616C4.51702 14.5109 3.49523 10.7464 3.43614 10.3424C3.37704 9.93836 4.99603 8.61816 7.03336 7.73167M9.02175 15.7868C8.79538 16.0488 8.6322 16.3467 8.46623 16.6342M13.0001 12C13.5001 12.5 14.0001 13.049 15.0001 13.049C16.0001 13.049 16.5001 12.5 17.0001 12M13.0001 8H13.0101M17.0001 8H17.0101M10.0001 5.5C10.0001 5.21071 12.5001 4 15.0001 4C17.5001 4 20.0001 5.13645 20.0001 5.5C20.0001 5.93007 20.0001 10.8091 20.0001 12C20.0001 13.9655 15.7091 17 15.0001 17C14.2569 17 10.0001 13.9655 10.0001 12C10.0001 10.0346 10.0001 6.07529 10.0001 5.5Z" stroke="#383838" stroke-width="2" stroke-linecap="round"/>
</svg>
