<svg width="24" height="24" viewBox="0 0 24 24" fill="none" xmlns="http://www.w3.org/2000/svg">
<path fill-rule="evenodd" clip-rule="evenodd" d="M8.96941 14.3162L5.00533 14.3162C4.68307 14.3162 4.36554 14.2366 4.07965 14.0839C3.79376 13.9313 3.54794 13.7102 3.363 13.4394C3.17807 13.1686 3.05948 12.856 3.01727 12.5282C2.97506 12.2003 3.01049 11.8669 3.12054 11.5561L5.48054 4.35486C5.76928 3.54112 5.96176 3 7.36533 3C9.43667 3 11.6406 3.67755 13.5215 4.25579C13.9939 4.40103 14.446 4.54 14.8704 4.6604L14.9847 4.6604L14.9847 14.522C13.3317 16.1513 11.9057 18.0068 10.7469 20.036C10.5502 20.4121 10.2314 20.7058 9.84587 20.8661C9.46032 21.0264 9.03228 21.0433 8.63586 20.9139C8.23945 20.7844 7.89965 20.5168 7.6753 20.1573C7.45095 19.7978 7.3562 19.3692 7.40744 18.9456L8.96941 14.3162ZM19.8235 14L17 14L17 6C17 4.89543 17.8954 4 19 4C20.1046 4 21 4.89543 21 6L21 12.8235C21 13.4733 20.4733 14 19.8235 14Z" fill="#383838"/>
</svg>
