<svg width="24" height="24" viewBox="0 0 24 24" fill="none" xmlns="http://www.w3.org/2000/svg">
<path d="M13.9893 4.92493C15.11 3.8043 16.7956 3.59872 18.125 4.30188C18.4055 4.45026 18.5992 4.72251 18.6465 5.03625C18.6567 5.10407 18.6579 5.17219 18.6543 5.23938C18.7215 5.23569 18.7896 5.23701 18.8574 5.24719C19.1712 5.29443 19.4443 5.48823 19.5928 5.76868C20.2961 7.09811 20.0895 8.7846 18.9688 9.9054C18.1315 10.7424 16.9792 11.0667 15.8965 10.8859L13.4971 13.2863C14.2781 12.5052 15.5451 12.5052 16.3262 13.2863L19.4443 16.4054C20.2254 17.1864 20.2254 18.4525 19.4443 19.2335L19.2725 19.4054C18.4914 20.1864 17.2254 20.1864 16.4443 19.4054L13.3252 16.2872C12.5458 15.5078 12.5441 14.2444 13.3203 13.463L11.083 15.7003C11.2637 16.783 10.9387 17.9355 10.1016 18.7726C8.98077 19.8931 7.29514 20.0989 5.96582 19.3956C5.68537 19.2472 5.49163 18.975 5.44434 18.6613C5.43408 18.5931 5.43182 18.5246 5.43555 18.4572C5.36861 18.4607 5.30095 18.4605 5.2334 18.4503C4.91956 18.4031 4.64648 18.2094 4.49805 17.9288C3.79476 16.5994 4.00127 14.9129 5.12207 13.7921C5.95897 12.9553 7.11096 12.6303 8.19336 12.8107L13.0068 7.99719C12.8263 6.91455 13.1522 5.76197 13.9893 4.92493ZM5.33398 4.12512C5.63459 3.90815 6.03608 3.87323 6.37402 4.04602L8.35547 5.05872C8.6488 5.20869 8.85012 5.49376 8.89258 5.82043L9.03613 6.93372C9.07594 7.24117 8.9711 7.54939 8.75195 7.76868L7.88867 8.63196C7.66935 8.85128 7.36033 8.95697 7.05273 8.91711L5.94043 8.77258C5.61367 8.73022 5.32876 8.52979 5.17871 8.23645L4.16504 6.25403C3.96789 5.86793 4.04206 5.3985 4.34863 5.09192L5.21191 4.22864L5.33398 4.12512Z" stroke="#111928" stroke-width="2" stroke-linejoin="round"/>
</svg>
