<svg width="24" height="24" viewBox="0 0 24 24" fill="none" xmlns="http://www.w3.org/2000/svg">
<path fill-rule="evenodd" clip-rule="evenodd" d="M4 4C3.46957 4 2.96086 4.21071 2.58579 4.58579C2.21071 4.96086 2 5.46957 2 6V15C2 15.5523 2.44772 16 3 16H3.53544C3.51209 16.1633 3.5 16.3302 3.5 16.5C3.5 18.433 5.067 20 7 20C8.933 20 10.5 18.433 10.5 16.5C10.5 16.3302 10.4879 16.1633 10.4646 16H13.5354C13.5121 16.1633 13.5 16.3302 13.5 16.5C13.5 18.433 15.067 20 17 20C18.933 20 20.5 18.433 20.5 16.5C20.5 16.3302 20.4879 16.1633 20.4646 16H21C21.5523 16 22 15.5523 22 15V11C22 10.8448 21.9639 10.6916 21.8944 10.5528L19.8944 6.55279C19.725 6.214 19.3788 6 19 6H14C14 5.46957 13.7893 4.96086 13.4142 4.58579C13.0391 4.21071 12.5304 4 12 4H4ZM18.192 15.5894C18.1973 15.5965 18.2026 15.6036 18.208 15.6106C18.3915 15.8595 18.5 16.1671 18.5 16.5C18.5 17.3284 17.8284 18 17 18C16.1716 18 15.5 17.3284 15.5 16.5C15.5 16.1671 15.6085 15.8595 15.792 15.6106C15.7974 15.6036 15.8027 15.5965 15.808 15.5894C16.0821 15.2311 16.5141 15 17 15C17.486 15 17.9179 15.2311 18.192 15.5894ZM8.19204 15.5894C8.19727 15.5965 8.20259 15.6036 8.208 15.6106C8.39153 15.8595 8.5 16.1671 8.5 16.5C8.5 17.3284 7.82843 18 7 18C6.17157 18 5.5 17.3284 5.5 16.5C5.5 16.1671 5.60847 15.8595 5.792 15.6106C5.79741 15.6036 5.80273 15.5965 5.80796 15.5894C6.08207 15.2311 6.51405 15 7 15C7.48595 15 7.91793 15.2311 8.19204 15.5894ZM13.9981 10.0181L13.9981 7.99878H18.3935L19.3935 10.0181H13.9981Z" fill="#111928"/>
</svg>
