<svg width="24" height="24" viewBox="0 0 24 24" fill="none" xmlns="http://www.w3.org/2000/svg">
<path fill-rule="evenodd" clip-rule="evenodd" d="M5 8C5 5.79086 6.79086 4 9 4C11.2091 4 13 5.79086 13 8C13 8.44133 12.9285 8.86597 12.7965 9.26297L10.263 11.7965C9.86597 11.9285 9.44133 12 9 12C6.79086 12 5 10.2091 5 8ZM9.05949 13H7C4.79086 13 3 14.7909 3 17V18C3 19.1046 3.89543 20 5 20H7.17157C6.99406 19.4979 6.95065 18.9499 7.05823 18.4118L7.73245 15.0397C7.84859 14.4589 8.13407 13.9254 8.55291 13.5066L9.05949 13Z" fill="#111928"/>
<path fill-rule="evenodd" clip-rule="evenodd" d="M18.0922 8C17.7103 8 17.3321 8.07524 16.9793 8.22142C16.6266 8.36757 16.3059 8.58192 16.036 8.85194L9.96712 14.9208C9.82751 15.0604 9.73235 15.2382 9.69364 15.4318L9.01941 18.8039C8.95386 19.1318 9.05648 19.4707 9.29289 19.7071C9.5293 19.9435 9.86822 20.0461 10.1961 19.9806L13.5682 19.3064C13.7618 19.2677 13.9396 19.1725 14.0792 19.0329L20.1482 12.9639C20.4182 12.6939 20.6324 12.3734 20.7786 12.0207C20.9248 11.6679 21 11.2897 21 10.9078C21 10.5259 20.9248 10.1478 20.7786 9.79499C20.6324 9.44219 20.4181 9.12164 20.1481 8.85166C19.8781 8.5817 19.5577 8.36754 19.205 8.22142C18.8522 8.07524 18.474 8 18.0922 8Z" fill="#111928"/>
</svg>
