<svg width="24" height="24" viewBox="0 0 24 24" fill="none" xmlns="http://www.w3.org/2000/svg">
<path fill-rule="evenodd" clip-rule="evenodd" d="M5 8C5 5.79086 6.79086 4 9 4C11.2091 4 13 5.79086 13 8C13 10.2091 11.2091 12 9 12C6.79086 12 5 10.2091 5 8ZM3 17C3 14.7909 4.79086 13 7 13H11C13.2091 13 15 14.7909 15 17V18C15 19.1046 14.1046 20 13 20H5C3.89543 20 3 19.1046 3 18V17ZM16 11C15.4477 11 15 11.4477 15 12C15 12.5523 15.4477 13 16 13H20C20.5523 13 21 12.5523 21 12C21 11.4477 20.5523 11 20 11H16Z" fill="#111928"/>
</svg>
