<svg width="24" height="24" viewBox="0 0 24 24" fill="none" xmlns="http://www.w3.org/2000/svg">
<path d="M12.4472 2.10557C12.1657 1.96481 11.8343 1.96481 11.5528 2.10557L5.90482 4.92956L6.28244 5.04075C6.29375 5.04408 6.30501 5.04762 6.3162 5.05135L12 6.94594L17.6808 5.05233L18.0735 4.9187L12.4472 2.10557Z" fill="#0F172B"/>
<path d="M5 10V6.74803L5.70053 6.95431L7 7.38747V10C7 10.5523 6.55228 11 6 11C5.44772 11 5 10.5523 5 10Z" fill="#0F172B"/>
<path d="M8 9C8 8.57587 8.06601 8.16715 8.18832 7.78357L11.6837 8.94871C11.889 9.01713 12.1109 9.01713 12.3162 8.94871L15.8117 7.78357C15.934 8.16715 16 8.57587 16 9C16 11.2091 14.2091 13 12 13C9.79086 13 8 11.2091 8 9Z" fill="#0F172B"/>
<path d="M14.2996 13.2767C14.5328 13.0478 14.8632 12.9473 15.1843 13.0075C17.379 13.4191 19 15.4884 19 17.6488V19.8013C19 21.0302 17.9685 21.9441 16.8 21.9441H7.2C6.03151 21.9441 5 21.0302 5 19.8013V17.6488C5 15.5079 6.59079 13.4595 8.75163 13.02C9.07377 12.9545 9.40752 13.0515 9.64437 13.2795L11.9932 15.5401L14.2996 13.2767Z" fill="#0F172B"/>
</svg>
