<svg width="24" height="24" viewBox="0 0 24 24" fill="none" xmlns="http://www.w3.org/2000/svg">
<path fill-rule="evenodd" clip-rule="evenodd" d="M12 2C10.1435 2 8.36301 2.7375 7.05025 4.05025C5.7375 5.36301 5 7.14348 5 9C4.20435 9 3.44129 9.31607 2.87868 9.87868C2.31607 10.4413 2 11.2044 2 12V14C2 14.7956 2.31607 15.5587 2.87868 16.1213C3.44129 16.6839 4.20435 17 5 17H6C6.55228 17 7 16.5523 7 16V9C7 7.67392 7.52678 6.40215 8.46447 5.46447C9.40215 4.52678 10.6739 4 12 4C13.3261 4 14.5979 4.52678 15.5355 5.46447C16.4732 6.40215 17 7.67392 17 9V16.083C17 16.4661 16.9245 16.8454 16.778 17.1993C16.6314 17.5532 16.4165 17.8748 16.1456 18.1456C15.8748 18.4165 15.5532 18.6314 15.1993 18.778C14.8454 18.9245 14.4661 19 14.083 19H14C14 17.8954 13.1046 17 12 17H11C9.89543 17 9 17.8954 9 19V20C9 21.1046 9.89543 22 11 22H12C12.7403 22 13.3866 21.5978 13.7324 21H14.083C14.7287 21 15.3681 20.8728 15.9647 20.6257C16.5612 20.3786 17.1033 20.0164 17.5598 19.5598C18.0164 19.1033 18.3786 18.5612 18.6257 17.9647C18.7548 17.6531 18.8511 17.3298 18.9137 17H19C19.7957 17 20.5587 16.6839 21.1213 16.1213C21.6839 15.5587 22 14.7957 22 14V12C22 11.2043 21.6839 10.4413 21.1213 9.87868C20.5587 9.31607 19.7957 9 19 9C19 7.14349 18.2625 5.36301 16.9497 4.05025C15.637 2.7375 13.8565 2 12 2ZM13.4506 5.2748C12.959 5.08367 12.4345 4.99166 11.9072 5.00405C11.3799 5.01644 10.8603 5.133 10.3782 5.347C9.89613 5.56101 9.46114 5.86824 9.09827 6.25102C8.71831 6.65183 8.73521 7.28476 9.13602 7.66473C9.53683 8.04469 10.1698 8.02779 10.5497 7.62698C10.7312 7.43559 10.9487 7.28198 11.1897 7.17498C11.4307 7.06797 11.6905 7.0097 11.9542 7.0035C12.2178 6.9973 12.4801 7.04331 12.7259 7.13887C12.9717 7.23443 13.1962 7.37766 13.3864 7.56032C13.7848 7.94283 14.4178 7.92998 14.8003 7.53161C15.1828 7.13323 15.17 6.5002 14.7716 6.11768C14.3912 5.75238 13.9422 5.46592 13.4506 5.2748Z" fill="#111928"/>
</svg>
