<svg width="24" height="24" viewBox="0 0 24 24" fill="none" xmlns="http://www.w3.org/2000/svg">
<path d="M5.70711 4.29289C5.31658 3.90237 4.68342 3.90237 4.29289 4.29289C3.90237 4.68342 3.90237 5.31658 4.29289 5.70711L18.2929 19.7071C18.6834 20.0976 19.3166 20.0976 19.7071 19.7071C20.0976 19.3166 20.0976 18.6834 19.7071 18.2929L19.7028 18.2885C21.5705 16.4978 22 13.9377 22 12C22 9.23886 20.8796 6.73749 19.0711 4.92894C18.6805 4.53842 18.0474 4.53842 17.6569 4.92894C17.2663 5.31946 17.2663 5.95263 17.6569 6.34315C19.1057 7.79196 20 9.79059 20 12C20 13.752 19.5974 15.6355 18.2876 16.8734L16.8545 15.4403C17.616 14.3699 18 13.107 18 12C18 10.3218 17.3097 8.80298 16.2 7.71519C15.8057 7.32857 15.1725 7.33486 14.7859 7.72925C14.3993 8.12363 14.4056 8.75677 14.8 9.14339C15.5417 9.87052 16 10.8808 16 12C16 12.6056 15.805 13.3354 15.4105 13.9963L13 11.5858V6.13505C13 4.43938 11.0223 3.51306 9.71963 4.59861L7.69774 6.28352L5.70711 4.29289Z" fill="#111928"/>
<path d="M4 8.00002H4.58581L13 16.4142V17.865C13 19.5606 11.0223 20.487 9.71963 19.4014L5.63795 16H4C2.89543 16 2 15.1046 2 14V10C2 8.89545 2.89543 8.00002 4 8.00002Z" fill="#111928"/>
</svg>
