<svg width="24" height="24" viewBox="0 0 24 24" fill="none" xmlns="http://www.w3.org/2000/svg">
<path d="M15.5 8.42928C16.4257 9.33674 17 10.6013 17 12C17 13.1256 16.5 14.5 15.5 15.5M18.364 5.63604C19.9926 7.26472 21 9.51472 21 12C21 14.0226 20.5 16.5 18.5 18M7.79999 7.50001L10.3598 5.36682C11.0111 4.82405 12 5.2872 12 6.13504V12M12 16.5V17.865C12 18.7128 11.0111 19.176 10.3598 18.6332L6 15H4C3.44772 15 3 14.5523 3 14V10C3 9.44773 3.44772 9.00001 4 9.00001M5 5L19 19" stroke="#111928" stroke-width="2" stroke-linecap="round" stroke-linejoin="round"/>
</svg>
