<svg width="24" height="24" viewBox="0 0 24 24" fill="none" xmlns="http://www.w3.org/2000/svg">
<path fill-rule="evenodd" clip-rule="evenodd" d="M17.44 3C17.7052 3 17.9596 3.10536 18.1471 3.29289L20.7071 5.85289C21.0976 6.24342 21.0976 6.87658 20.7071 7.26711L18.1942 9.78L14.22 5.80579L16.7329 3.29289C16.9204 3.10536 17.1748 3 17.44 3ZM12.8058 7.22L3.29289 16.7329C3.10536 16.9204 3 17.1748 3 17.44C3 17.7052 3.10536 17.9596 3.29289 18.1471L5.85289 20.7071C6.24342 21.0976 6.87658 21.0976 7.26711 20.7071L16.78 11.1942L12.8058 7.22Z" fill="#111928"/>
<path fill-rule="evenodd" clip-rule="evenodd" d="M6 6C6.55228 6 7 6.44772 7 7V8H8C8.55228 8 9 8.44772 9 9C9 9.55228 8.55228 10 8 10H7V11C7 11.5523 6.55228 12 6 12C5.44772 12 5 11.5523 5 11V10H4C3.44772 10 3 9.55228 3 9C3 8.44772 3.44772 8 4 8H5V7C5 6.44772 5.44772 6 6 6Z" fill="#111928"/>
<path fill-rule="evenodd" clip-rule="evenodd" d="M15 15C15.5523 15 16 15.4477 16 16V17H17C17.5523 17 18 17.4477 18 18C18 18.5523 17.5523 19 17 19H16V20C16 20.5523 15.5523 21 15 21C14.4477 21 14 20.5523 14 20V19H13C12.4477 19 12 18.5523 12 18C12 17.4477 12.4477 17 13 17H14V16C14 15.4477 14.4477 15 15 15Z" fill="#111928"/>
<path d="M19 13H17V15H19V13Z" fill="#111928"/>
<path d="M13 3H11V5H13V3Z" fill="#111928"/>
<path d="M11 5H9V7H11V5Z" fill="#111928"/>
<path d="M9 3H7V5H9V3Z" fill="#111928"/>
<path d="M21 11H19V13H21V11Z" fill="#111928"/>
<path d="M21 15H19V17H21V15Z" fill="#111928"/>
</svg>
