<svg width="24" height="24" viewBox="0 0 24 24" fill="none" xmlns="http://www.w3.org/2000/svg">
<path d="M9 3C9 2.44772 9.44772 2 10 2H15C15.5523 2 16 2.44772 16 3V5C16 5.55228 15.5523 6 15 6H10C9.44772 6 9 5.55228 9 5V3Z" fill="#383838"/>
<path d="M8.87338 8C8.08095 8.57264 7.11054 9.55553 7.00875 11H17.9913C17.8895 9.55553 16.919 8.57264 16.1266 8H8.87338Z" fill="#383838"/>
<path d="M17.755 13H7.24496C7.39624 13.4553 7.5976 13.7798 7.78923 14.0396C7.84322 14.1129 7.88536 14.1704 7.91805 14.2151L7.96527 14.2795C7.92802 14.3379 7.88249 14.3969 7.80763 14.494C7.77822 14.5322 7.7443 14.5762 7.70457 14.6283C7.47871 14.9248 7.16145 15.3686 7.04507 16H17.9549C17.8386 15.3686 17.5213 14.9248 17.2954 14.6283C17.2557 14.5762 17.2218 14.5322 17.1924 14.494C17.1175 14.3969 17.072 14.3378 17.0347 14.2795L17.0819 14.2151C17.1146 14.1705 17.1568 14.1129 17.2108 14.0396C17.4024 13.7798 17.6038 13.4553 17.755 13Z" fill="#383838"/>
<path d="M18 18H7V19C7 20.611 8.57732 22 10.5 22C11.3707 22 12.0288 21.7529 12.5 21.4451C12.9712 21.7529 13.6293 22 14.5 22C16.4227 22 18 20.611 18 19V18Z" fill="#383838"/>
</svg>
