<svg width="24" height="24" viewBox="0 0 24 24" fill="none" xmlns="http://www.w3.org/2000/svg">
<path d="M8.5 2C8.07206 2 7.69155 2.2723 7.55348 2.67736C7.51905 2.77837 7.47533 2.90416 7.42466 3.04996C7.22946 3.61168 6.93106 4.47035 6.66274 5.35279C6.33766 6.42192 6 7.69926 6 8.57072C6 11.4549 8.09201 14.3542 11 14.9062V20H9C8.44772 20 8 20.4477 8 21C8 21.5523 8.44772 22 9 22H15C15.5523 22 16 21.5523 16 21C16 20.4477 15.5523 20 15 20H13V14.9062C15.908 14.3542 18 11.4549 18 8.57072C18 7.70797 17.6722 6.44377 17.3503 5.37552C17.0155 4.26428 16.6336 3.19878 16.4428 2.66651L16.4413 2.66256C16.2989 2.26514 15.9222 2 15.5 2H8.5Z" fill="#383838"/>
</svg>
