<svg width="24" height="24" viewBox="0 0 24 24" fill="none" xmlns="http://www.w3.org/2000/svg">
<path d="M9.00004 4C9.00004 2.89543 9.89547 2 11 2H13C14.1046 2 15 2.89543 15 4V7H9.00004V4Z" fill="#383838"/>
<path d="M9.00004 9V9.41924C8.12218 9.98508 7.58765 10.6999 7.30136 11.5588C6.99937 12.4647 6.99971 13.4816 7.00002 14.4111L7.00004 20C7.00004 21.1047 7.89553 22 9.00004 22H15C16.1046 22 17 21.1046 17 20V19H12.0001C11.4478 19 11.0001 18.5523 11.0001 18V13C11.0001 12.4477 11.4478 12 12.0001 12H16.8214C16.7874 11.8506 16.7469 11.7033 16.6987 11.5588C16.4124 10.6999 15.8779 9.98508 15 9.41924V9H9.00004Z" fill="#383838"/>
<path d="M17 14H13.0001V17H17V14Z" fill="#383838"/>
</svg>
