<svg width="24" height="24" viewBox="0 0 24 24" fill="none" xmlns="http://www.w3.org/2000/svg">
<g clip-path="url(#clip0_5303_6258)">
<path d="M22.9937 8.16678C22.9937 10.0675 22.2387 11.8904 20.8946 13.2345C19.5506 14.5785 17.7277 15.3336 15.8269 15.3336C15.6609 15.3335 15.495 15.324 15.33 15.3049C13.6082 15.1899 11.9864 14.4545 10.7652 13.2351C9.54405 12.0157 8.80635 10.395 8.68882 8.67324C8.66975 8.50509 8.66018 8.33601 8.66016 8.16678C8.66016 6.26604 9.41523 4.44314 10.7593 3.0991C12.1033 1.75507 13.9262 1 15.8269 1C17.7277 1 19.5506 1.75507 20.8946 3.0991C22.2387 4.44314 22.9937 6.26604 22.9937 8.16678Z" fill="#FFEF5E"/>
<path d="M15.8269 1C13.9262 1 12.1033 1.75507 10.7593 3.0991C9.41523 4.44314 8.66016 6.26604 8.66016 8.16679C8.66016 8.33592 8.66971 8.50506 8.68882 8.67324C8.8038 10.376 9.52683 11.9808 10.7261 13.195L20.8552 3.06595C19.5169 1.74141 17.7098 0.998917 15.8269 1Z" fill="#FFFAD6"/>
<path d="M15.3318 15.305C15.4384 16.7638 15.0964 18.2203 14.3517 19.4793C13.6069 20.7382 12.4951 21.7394 11.1653 22.3485C9.83539 22.9576 8.35109 23.1456 6.91137 22.8872C5.47165 22.6288 4.14534 21.9364 3.1103 20.9029C2.07525 19.8693 1.38095 18.544 1.12049 17.1047C0.860032 15.6653 1.04586 14.1807 1.65307 12.85C2.26028 11.5193 3.25984 10.406 4.51771 9.65947C5.77558 8.91293 7.23163 8.56882 8.69062 8.67329C8.80815 10.395 9.54585 12.0158 10.767 13.2351C11.9882 14.4545 13.61 15.1899 15.3318 15.305Z" fill="#FFBC44"/>
<path d="M8.69036 8.67323C7.2383 8.57026 5.78932 8.91191 4.53621 9.65271C3.2831 10.3935 2.2853 11.4984 1.67557 12.8202C1.06584 14.1421 0.8731 15.6183 1.123 17.0524C1.37289 18.4865 2.05358 19.8105 3.07447 20.8482L10.7276 13.195C9.52836 11.9808 8.80534 10.376 8.69036 8.67323Z" fill="#FFDDA1"/>
<path d="M22.9937 8.16678C22.9937 10.0675 22.2387 11.8904 20.8946 13.2345C19.5506 14.5785 17.7277 15.3336 15.8269 15.3336C15.6609 15.3335 15.495 15.324 15.33 15.3049C13.6082 15.1899 11.9864 14.4545 10.7652 13.2351C9.54405 12.0157 8.80635 10.395 8.68882 8.67324C8.66975 8.50509 8.66018 8.33601 8.66016 8.16678C8.66016 6.26604 9.41523 4.44314 10.7593 3.0991C12.1033 1.75507 13.9262 1 15.8269 1C17.7277 1 19.5506 1.75507 20.8946 3.0991C22.2387 4.44314 22.9937 6.26604 22.9937 8.16678Z" stroke="#191919" stroke-linecap="round" stroke-linejoin="round"/>
<path d="M15.3318 15.305C15.4384 16.7638 15.0964 18.2203 14.3517 19.4793C13.6069 20.7382 12.4951 21.7394 11.1653 22.3485C9.83539 22.9576 8.35109 23.1456 6.91137 22.8872C5.47165 22.6288 4.14534 21.9364 3.1103 20.9029C2.07525 19.8693 1.38095 18.544 1.12049 17.1047C0.860032 15.6653 1.04586 14.1807 1.65307 12.85C2.26028 11.5193 3.25984 10.406 4.51771 9.65947C5.77558 8.91293 7.23163 8.56882 8.69062 8.67329C8.80815 10.395 9.54585 12.0158 10.767 13.2351C11.9882 14.4545 13.61 15.1899 15.3318 15.305Z" stroke="#191919" stroke-linecap="round" stroke-linejoin="round"/>
<path d="M7.70996 13.4226V12.467" stroke="#191919" stroke-linecap="round" stroke-linejoin="round"/>
<path d="M9.13642 13.4224H7.20043C6.9027 13.4226 6.61433 13.5264 6.38476 13.716C6.15519 13.9056 5.99875 14.1691 5.94225 14.4615C5.88575 14.7538 5.93273 15.0566 6.07512 15.3181C6.21751 15.5796 6.44644 15.7834 6.72264 15.8945L8.69494 16.6838C8.97115 16.7949 9.20008 16.9987 9.34247 17.2602C9.48486 17.5216 9.53183 17.8245 9.47534 18.1168C9.41884 18.4091 9.26239 18.6727 9.03283 18.8623C8.80326 19.0518 8.51488 19.1556 8.21716 19.1559H6.2697" stroke="#191919" stroke-linecap="round" stroke-linejoin="round"/>
<path d="M7.70996 20.1115V19.1559" stroke="#191919" stroke-linecap="round" stroke-linejoin="round"/>
<path d="M15.833 5.30011V4.34454" stroke="#191919" stroke-linecap="round" stroke-linejoin="round"/>
<path d="M17.2595 5.30011H15.3235C15.0257 5.30032 14.7374 5.40411 14.5078 5.59369C14.2782 5.78327 14.1218 6.04682 14.0653 6.33914C14.0088 6.63146 14.0558 6.93432 14.1982 7.19579C14.3406 7.45726 14.5695 7.66104 14.8457 7.77217L16.818 8.56148C17.0942 8.67261 17.3231 8.87639 17.4655 9.13786C17.6079 9.39933 17.6549 9.70219 17.5984 9.99451C17.5419 10.2868 17.3854 10.5504 17.1559 10.74C16.9263 10.9295 16.6379 11.0333 16.3402 11.0335H14.3927" stroke="#191919" stroke-linecap="round" stroke-linejoin="round"/>
<path d="M15.833 11.9891V11.0336" stroke="#191919" stroke-linecap="round" stroke-linejoin="round"/>
</g>
<defs>
<clipPath id="clip0_5303_6258">
<rect width="24" height="24" fill="white"/>
</clipPath>
</defs>
</svg>
