<svg width="24" height="24" viewBox="0 0 24 24" fill="none" xmlns="http://www.w3.org/2000/svg">
<g clip-path="url(#clip0_5303_6238)">
<path d="M20.609 3.3913V8.65217H3.3916V3.3913C3.3916 2.75709 3.64354 2.14885 4.092 1.70039C4.54045 1.25194 5.14869 1 5.78291 1H18.2177C18.5317 1 18.8427 1.06185 19.1328 1.18203C19.4229 1.3022 19.6865 1.47835 19.9086 1.70039C20.1306 1.92245 20.3068 2.18607 20.427 2.47619C20.5471 2.76632 20.609 3.07728 20.609 3.3913Z" fill="#66E1FF"/>
<path d="M5.78291 1C5.14869 1 4.54045 1.25194 4.092 1.70039C3.64354 2.14885 3.3916 2.75709 3.3916 3.3913V8.65217H7.03212L14.6843 1H5.78291Z" fill="#C2F3FF"/>
<path d="M20.6087 15.3478V20.6087C20.6087 21.2429 20.3567 21.8511 19.9083 22.2996C19.4598 22.7481 18.8516 23 18.2174 23H12V15.3478H20.6087Z" fill="#E3E3E3"/>
<path d="M12.0003 15.3478V23H5.78291C5.14869 23 4.54045 22.7481 4.092 22.2996C3.64354 21.8511 3.3916 21.2429 3.3916 20.6087V15.3478H12.0003Z" fill="#E3E3E3"/>
<path d="M18.2174 20.6087H12V23H18.2174C18.8516 23 19.4598 22.7481 19.9083 22.2997C20.3567 21.8511 20.6087 21.2429 20.6087 20.6087V18.2174C20.6087 18.8516 20.3567 19.4598 19.9083 19.9083C19.4598 20.3568 18.8516 20.6087 18.2174 20.6087Z" fill="#B2B2B2"/>
<path d="M3.3916 18.2174V20.6087C3.3916 21.2429 3.64354 21.8511 4.092 22.2997C4.54045 22.7481 5.14869 23 5.78291 23H12.0003V20.6087H5.78291C5.14869 20.6087 4.54045 20.3568 4.092 19.9083C3.64354 19.4598 3.3916 18.8516 3.3916 18.2174Z" fill="#B2B2B2"/>
<path d="M20.6087 15.3478V20.6087C20.6087 21.2429 20.3567 21.8511 19.9083 22.2996C19.4598 22.7481 18.8516 23 18.2174 23H12V15.3478H20.6087Z" stroke="#191919" stroke-linecap="round" stroke-linejoin="round"/>
<path d="M12.0003 15.3478V23H5.78291C5.14869 23 4.54045 22.7481 4.092 22.2996C3.64354 21.8511 3.3916 21.2429 3.3916 20.6087V15.3478H12.0003Z" stroke="#191919" stroke-linecap="round" stroke-linejoin="round"/>
<path d="M12.0003 8.65222H3.3916V15.3479H12.0003V8.65222Z" fill="#E3E3E3" stroke="#191919" stroke-linecap="round" stroke-linejoin="round"/>
<path d="M20.6087 8.65222H12V15.3479H20.6087V8.65222Z" fill="#E3E3E3" stroke="#191919" stroke-linecap="round" stroke-linejoin="round"/>
<path d="M20.609 3.3913V8.65217H3.3916V3.3913C3.3916 2.75709 3.64354 2.14885 4.092 1.70039C4.54045 1.25194 5.14869 1 5.78291 1H18.2177C18.5317 1 18.8427 1.06185 19.1328 1.18203C19.4229 1.3022 19.6865 1.47835 19.9086 1.70039C20.1306 1.92245 20.3068 2.18607 20.427 2.47619C20.5471 2.76632 20.609 3.07728 20.609 3.3913Z" stroke="#191919" stroke-linecap="round" stroke-linejoin="round"/>
<path d="M5.7832 12.4783H8.65277" stroke="#191919" stroke-linecap="round" stroke-linejoin="round"/>
<path d="M14.8701 12.4783H17.7397" stroke="#191919" stroke-linecap="round" stroke-linejoin="round"/>
<path d="M14.8701 20.1305H17.7397" stroke="#191919" stroke-linecap="round" stroke-linejoin="round"/>
<path d="M14.8701 18.2174H17.7397" stroke="#191919" stroke-linecap="round" stroke-linejoin="round"/>
<path d="M7.21875 11.0435V13.913" stroke="#191919" stroke-linecap="round" stroke-linejoin="round"/>
<path d="M5.7832 17.7391L8.65277 20.6087" stroke="#191919" stroke-linecap="round" stroke-linejoin="round"/>
<path d="M8.65277 17.7391L5.7832 20.6087" stroke="#191919" stroke-linecap="round" stroke-linejoin="round"/>
<path d="M16.7871 5.78261V3.86957" stroke="#191919" stroke-linecap="round" stroke-linejoin="round"/>
</g>
<defs>
<clipPath id="clip0_5303_6238">
<rect width="24" height="24" fill="white"/>
</clipPath>
</defs>
</svg>
