<svg width="24" height="24" viewBox="0 0 24 24" fill="none" xmlns="http://www.w3.org/2000/svg">
<g clip-path="url(#clip0_5303_7896)">
<path d="M12 23C18.0751 23 23 18.0751 23 12C23 5.92487 18.0751 1 12 1C5.92487 1 1 5.92487 1 12C1 18.0751 5.92487 23 12 23Z" fill="#C9F7CA"/>
<path d="M12 20C14.658 20.0007 17.2264 19.0389 19.2301 17.2925C21.2339 15.5461 22.5376 13.1332 22.9 10.5C23.1026 11.9925 22.9966 13.5106 22.5884 14.9604C22.1803 16.4103 21.4788 17.7608 20.5274 18.9284C19.5759 20.096 18.3948 21.0558 17.0573 21.7482C15.7198 22.4407 14.2543 22.8511 12.7517 22.954C11.249 23.0569 9.74126 22.8502 8.3218 22.3465C6.90234 21.8429 5.60143 21.0531 4.49968 20.0262C3.39794 18.9992 2.51883 17.7569 1.91683 16.3763C1.31484 14.9957 1.00279 13.5062 1.00001 12C0.999352 11.4983 1.03276 10.9972 1.10001 10.5C1.46247 13.1332 2.76611 15.5461 4.76988 17.2925C6.77365 19.0389 9.342 20.0007 12 20Z" fill="#78EB7B"/>
<path d="M12 23C18.0751 23 23 18.0751 23 12C23 5.92487 18.0751 1 12 1C5.92487 1 1 5.92487 1 12C1 18.0751 5.92487 23 12 23Z" stroke="#191919" stroke-linecap="round" stroke-linejoin="round"/>
<path d="M19 11C19 10.7348 18.8946 10.4804 18.7071 10.2929C18.5196 10.1054 18.2652 10 18 10H14V6C14 5.73478 13.8946 5.48043 13.7071 5.29289C13.5196 5.10536 13.2652 5 13 5H11C10.7348 5 10.4804 5.10536 10.2929 5.29289C10.1054 5.48043 10 5.73478 10 6V10H6C5.73478 10 5.48043 10.1054 5.29289 10.2929C5.10536 10.4804 5 10.7348 5 11V13C5 13.2652 5.10536 13.5196 5.29289 13.7071C5.48043 13.8946 5.73478 14 6 14H10V18C10 18.2652 10.1054 18.5196 10.2929 18.7071C10.4804 18.8946 10.7348 19 11 19H13C13.2652 19 13.5196 18.8946 13.7071 18.7071C13.8946 18.5196 14 18.2652 14 18V14H18C18.2652 14 18.5196 13.8946 18.7071 13.7071C18.8946 13.5196 19 13.2652 19 13V11Z" fill="white" stroke="#191919" stroke-linecap="round" stroke-linejoin="round"/>
</g>
<defs>
<clipPath id="clip0_5303_7896">
<rect width="24" height="24" fill="white"/>
</clipPath>
</defs>
</svg>
