<svg width="24" height="24" viewBox="0 0 24 24" fill="none" xmlns="http://www.w3.org/2000/svg">
<g clip-path="url(#clip0_5303_2352)">
<path d="M12 23.2044C18.1881 23.2044 23.2045 18.188 23.2045 12C23.2045 5.81199 18.1881 0.795593 12 0.795593C5.81205 0.795593 0.795654 5.81199 0.795654 12C0.795654 18.188 5.81205 23.2044 12 23.2044Z" fill="#C9F7CA"/>
<path d="M11.9998 20.1486C14.7072 20.1493 17.3234 19.1696 19.3643 17.3908C21.4053 15.6119 22.7333 13.1542 23.1024 10.4721C23.3088 11.9923 23.2009 13.5386 22.7851 15.0154C22.3694 16.4922 21.6548 17.8678 20.6857 19.0571C19.7165 20.2463 18.5135 21.2241 17.1512 21.9293C15.7889 22.6346 14.2961 23.0526 12.7656 23.1575C11.2349 23.2623 9.69924 23.0518 8.25334 22.5387C6.80754 22.0258 5.48244 21.2213 4.36024 20.1752C3.23804 19.1292 2.34254 17.8639 1.72944 16.4576C1.11624 15.0514 0.798343 13.5342 0.795543 12C0.794843 11.4889 0.828943 10.9786 0.897443 10.4721C1.26664 13.1543 2.59444 15.612 4.63544 17.3908C6.67644 19.1696 9.29254 20.1493 11.9998 20.1486Z" fill="#78EB7B"/>
<path d="M12 23.2044C18.1881 23.2044 23.2045 18.188 23.2045 12C23.2045 5.81199 18.1881 0.795593 12 0.795593C5.81205 0.795593 0.795654 5.81199 0.795654 12C0.795654 18.188 5.81205 23.2044 12 23.2044Z" stroke="#191919" stroke-linecap="round" stroke-linejoin="round"/>
<path d="M19.1303 10.9813C19.1303 10.7112 19.0229 10.4521 18.8319 10.2611C18.641 10.0702 18.3819 9.96267 18.1118 9.96267H14.0374V5.88837C14.0374 5.61827 13.9301 5.35917 13.7391 5.16817C13.5481 4.97717 13.2889 4.86987 13.0188 4.86987H10.9817C10.7116 4.86987 10.4524 4.97717 10.2614 5.16817C10.0704 5.35917 9.96314 5.61827 9.96314 5.88837V9.96267H5.88884C5.61864 9.96267 5.35954 10.0702 5.16854 10.2611C4.97754 10.4521 4.87024 10.7112 4.87024 10.9813V13.0185C4.87024 13.2886 4.97754 13.5477 5.16854 13.7387C5.35954 13.9297 5.61864 14.0371 5.88884 14.0371H9.96314V18.1114C9.96314 18.3816 10.0704 18.6407 10.2614 18.8317C10.4524 19.0226 10.7115 19.1299 10.9817 19.1299H13.0188C13.2889 19.1299 13.548 19.0226 13.7391 18.8317C13.9301 18.6407 14.0374 18.3816 14.0374 18.1114V14.0371H18.1118C18.3819 14.0371 18.641 13.9297 18.8319 13.7387C19.0229 13.5477 19.1303 13.2886 19.1303 13.0185V10.9813Z" fill="white" stroke="#191919" stroke-linecap="round" stroke-linejoin="round"/>
</g>
<defs>
<clipPath id="clip0_5303_2352">
<rect width="24" height="24" fill="white"/>
</clipPath>
</defs>
</svg>
