<svg width="24" height="24" viewBox="0 0 24 24" fill="none" xmlns="http://www.w3.org/2000/svg">
<path d="M23.0001 1.96143H1.01074V22.0386H23.0001V1.96143Z" fill="#FF808C"/>
<path d="M1.01074 21.9869L21.0373 1.96143H1.01074V21.9869Z" fill="#FFBFC5"/>
<path d="M23.0001 1.96143H1.01074V22.0386H23.0001V1.96143Z" stroke="#191919" stroke-linecap="round" stroke-linejoin="round"/>
<path d="M11.9851 9.41001L17.7415 22.0386H22.9893L14.4048 1.96143H9.62458L1 22.0386H13.9172L11.9851 17.2583H8.31956L11.9851 9.41001Z" fill="#E3E3E3"/>
<path d="M10.5804 12.4178L11.9848 9.41001L12.4868 10.5114L16.3912 6.60686L14.4046 1.96143H9.62431L1.03027 21.9669L10.5804 12.4178Z" fill="white"/>
<path d="M11.9851 9.41001L17.7415 22.0386H22.9893L14.4048 1.96143H9.62458L1 22.0386H13.9172L11.9851 17.2583H8.31956L11.9851 9.41001Z" stroke="#191919" stroke-linecap="round" stroke-linejoin="round"/>
</svg>
