<svg width="24" height="24" viewBox="0 0 24 24" fill="none" xmlns="http://www.w3.org/2000/svg">
<g clip-path="url(#clip0_5303_8490)">
<path d="M1 1.95652C1 1.70284 1.10078 1.45954 1.28016 1.28016C1.45954 1.10078 1.70284 1 1.95652 1H22.0435C22.2972 1 22.5405 1.10078 22.7198 1.28016C22.8992 1.45954 23 1.70284 23 1.95652V22.0435C23 22.2972 22.8992 22.5405 22.7198 22.7198C22.5405 22.8992 22.2972 23 22.0435 23H1.95652C1.70284 23 1.45954 22.8992 1.28016 22.7198C1.10078 22.5405 1 22.2972 1 22.0435V1.95652Z" fill="#66E1FF"/>
<path d="M22.0435 1H1.95652C1.70284 1 1.45954 1.10078 1.28016 1.28016C1.10078 1.45954 1 1.70284 1 1.95652V22.0435C1.00065 22.1699 1.02635 22.2949 1.0756 22.4113C1.12485 22.5277 1.19669 22.6332 1.28696 22.7217L22.7217 1.28696C22.6334 1.19635 22.528 1.12429 22.4115 1.07501C22.2951 1.02573 22.1699 1.00023 22.0435 1Z" fill="#C2F3FF"/>
<path d="M1 1.95652C1 1.70284 1.10078 1.45954 1.28016 1.28016C1.45954 1.10078 1.70284 1 1.95652 1H22.0435C22.2972 1 22.5405 1.10078 22.7198 1.28016C22.8992 1.45954 23 1.70284 23 1.95652V22.0435C23 22.2972 22.8992 22.5405 22.7198 22.7198C22.5405 22.8992 22.2972 23 22.0435 23H1.95652C1.70284 23 1.45954 22.8992 1.28016 22.7198C1.10078 22.5405 1 22.2972 1 22.0435V1.95652Z" stroke="#191919" stroke-linecap="round" stroke-linejoin="round"/>
<path d="M16.3037 9.6087H15.3471C15.0935 9.6087 14.8502 9.70948 14.6708 9.88886C14.4914 10.0682 14.3906 10.3115 14.3906 10.5652C14.3906 12 16.3037 12 16.3037 13.4348C16.3037 13.6885 16.2029 13.9318 16.0235 14.1112C15.8441 14.2905 15.6008 14.3913 15.3471 14.3913H14.3906" stroke="#191919" stroke-linecap="round" stroke-linejoin="round"/>
<path d="M6.73926 14.3913V10.5652C6.73926 10.3115 6.84003 10.0682 7.01942 9.88886C7.1988 9.70948 7.44209 9.6087 7.69578 9.6087C7.94946 9.6087 8.19276 9.70948 8.37214 9.88886C8.55153 10.0682 8.6523 10.3115 8.6523 10.5652V14.3913" stroke="#191919" stroke-linecap="round" stroke-linejoin="round"/>
<path d="M6.73926 12.4783H8.6523" stroke="#191919" stroke-linecap="round" stroke-linejoin="round"/>
<path d="M10.5649 14.3913C10.8162 14.3913 11.0649 14.3418 11.297 14.2457C11.5291 14.1496 11.74 14.0086 11.9177 13.831C12.0953 13.6534 12.2362 13.4425 12.3324 13.2104C12.4285 12.9783 12.478 12.7295 12.478 12.4783V11.5217C12.478 11.0144 12.2764 10.5278 11.9177 10.169C11.5589 9.81026 11.0723 9.6087 10.5649 9.6087V14.3913Z" stroke="#191919" stroke-linecap="round" stroke-linejoin="round"/>
<path d="M21.0869 5.78265L18.2173 2.91309" stroke="#191919" stroke-linecap="round" stroke-linejoin="round"/>
<path d="M21.0869 2.91309L18.2173 5.78265" stroke="#191919" stroke-linecap="round" stroke-linejoin="round"/>
</g>
<defs>
<clipPath id="clip0_5303_8490">
<rect width="24" height="24" fill="white"/>
</clipPath>
</defs>
</svg>
