<svg width="24" height="24" viewBox="0 0 24 24" fill="none" xmlns="http://www.w3.org/2000/svg">
<g clip-path="url(#clip0_5303_12008)">
<path d="M1.46973 16.3723V21.087C1.46973 21.5943 1.67128 22.0809 2.03004 22.4397C2.38881 22.7984 2.8754 23 3.38277 23H4.33929C4.84666 23 5.33325 22.7984 5.69202 22.4397C6.05078 22.0809 6.25234 21.5943 6.25234 21.087V16.3723H1.46973Z" fill="#808080"/>
<path d="M6.26113 16.3044H1.47852V19.1739H6.26113V16.3044Z" fill="#6B6B6B"/>
<path d="M17.748 16.3723V21.087C17.748 21.5943 17.9496 22.0809 18.3084 22.4397C18.6671 22.7984 19.1537 23 19.6611 23H20.6176C21.125 23 21.6116 22.7984 21.9703 22.4397C22.3291 22.0809 22.5307 21.5943 22.5307 21.087V16.3723H17.748Z" fill="#808080"/>
<path d="M22.5219 16.3044H17.7393V19.1739H22.5219V16.3044Z" fill="#6B6B6B"/>
<path d="M4.33887 7.82478V2.91304C4.33887 2.40567 4.54042 1.91908 4.89918 1.56032C5.25795 1.20155 5.74454 1 6.25191 1H17.7302C18.2375 1 18.7241 1.20155 19.0829 1.56032C19.4417 1.91908 19.6432 2.40567 19.6432 2.91304V7.82478H4.33887Z" fill="#66E1FF"/>
<path d="M14.1824 1H6.25191C5.74454 1 5.25795 1.20155 4.89918 1.56032C4.54042 1.91908 4.33887 2.40567 4.33887 2.91304V7.82478H7.35765L14.1824 1Z" fill="#C2F3FF"/>
<path d="M22.3219 11.2664C22.4461 11.4319 22.5132 11.6333 22.5132 11.8403V16.3044C22.5132 16.558 22.4124 16.8013 22.233 16.9807C22.0537 17.1601 21.8104 17.2609 21.5567 17.2609H2.42625C2.17256 17.2609 1.92927 17.1601 1.74989 16.9807C1.5705 16.8013 1.46973 16.558 1.46973 16.3044V11.8403C1.46973 11.6333 1.53685 11.4319 1.66103 11.2664L4.05234 8.07828C4.14143 7.95949 4.25697 7.86307 4.38978 7.79666C4.5226 7.73025 4.66906 7.69568 4.81755 7.69568H19.1654C19.3139 7.69568 19.4603 7.73025 19.5932 7.79666C19.726 7.86307 19.8415 7.95949 19.9306 8.07828L22.3219 11.2664Z" fill="#78EB7B"/>
<path d="M22.4579 11.5217C22.4255 11.4304 22.3797 11.3443 22.3221 11.2664L19.9308 8.07828C19.8417 7.95949 19.7262 7.86307 19.5933 7.79666C19.4605 7.73025 19.3141 7.69568 19.1656 7.69568H4.81774C4.66924 7.69568 4.52279 7.73025 4.38997 7.79666C4.25715 7.86307 4.14162 7.95949 4.05252 8.07828L1.66122 11.2664C1.60326 11.3441 1.55746 11.4302 1.52539 11.5217H22.4579Z" fill="#C9F7CA"/>
<path d="M4.33883 2.91309H3.3823C3.12862 2.91309 2.88532 3.01387 2.70594 3.19325C2.52656 3.37263 2.42578 3.61593 2.42578 3.86961V5.78266C2.42578 6.03634 2.52656 6.27964 2.70594 6.45902C2.88532 6.6384 3.12862 6.73918 3.3823 6.73918H4.33883V2.91309Z" fill="#78EB7B" stroke="#191919" stroke-linecap="round" stroke-linejoin="round"/>
<path d="M19.6436 6.73918H20.6001C20.8538 6.73918 21.0971 6.6384 21.2764 6.45902C21.4558 6.27964 21.5566 6.03634 21.5566 5.78266V3.86961C21.5566 3.61593 21.4558 3.37263 21.2764 3.19325C21.0971 3.01387 20.8538 2.91309 20.6001 2.91309H19.6436V6.73918Z" fill="#78EB7B" stroke="#191919" stroke-linecap="round" stroke-linejoin="round"/>
<path d="M4.33887 7.82478V2.91304C4.33887 2.40567 4.54042 1.91908 4.89918 1.56032C5.25795 1.20155 5.74454 1 6.25191 1H17.7302C18.2375 1 18.7241 1.20155 19.0829 1.56032C19.4417 1.91908 19.6432 2.40567 19.6432 2.91304V7.82478" stroke="#191919" stroke-linecap="round" stroke-linejoin="round"/>
<path d="M22.3219 11.2664C22.4461 11.4319 22.5132 11.6333 22.5132 11.8403V16.3044C22.5132 16.558 22.4124 16.8013 22.233 16.9807C22.0537 17.1601 21.8104 17.2609 21.5567 17.2609H2.42625C2.17256 17.2609 1.92927 17.1601 1.74989 16.9807C1.5705 16.8013 1.46973 16.558 1.46973 16.3044V11.8403C1.46973 11.6333 1.53685 11.4319 1.66103 11.2664L4.05234 8.07828C4.14143 7.95949 4.25697 7.86307 4.38978 7.79666C4.5226 7.73025 4.66906 7.69568 4.81755 7.69568H19.1654C19.3139 7.69568 19.4603 7.73025 19.5932 7.79666C19.726 7.86307 19.8415 7.95949 19.9306 8.07828L22.3219 11.2664Z" stroke="#191919" stroke-linecap="round" stroke-linejoin="round"/>
<path d="M8.16504 13.4644V15.3478" stroke="#191919" stroke-linecap="round" stroke-linejoin="round"/>
<path d="M10.0781 13.4644V15.3478" stroke="#191919" stroke-linecap="round" stroke-linejoin="round"/>
<path d="M11.9912 13.4644V15.3478" stroke="#191919" stroke-linecap="round" stroke-linejoin="round"/>
<path d="M13.9043 13.4644V15.3478" stroke="#191919" stroke-linecap="round" stroke-linejoin="round"/>
<path d="M15.8174 13.4644V15.3478" stroke="#191919" stroke-linecap="round" stroke-linejoin="round"/>
<path d="M19.1653 15.8261C19.5458 15.8261 19.9107 15.6749 20.1798 15.4058C20.4489 15.1368 20.6 14.7718 20.6 14.3913C20.6 14.0108 20.4489 13.6458 20.1798 13.3768C19.9107 13.1077 19.5458 12.9565 19.1653 12.9565C18.7847 12.9565 18.4198 13.1077 18.1507 13.3768C17.8816 13.6458 17.7305 14.0108 17.7305 14.3913C17.7305 14.7718 17.8816 15.1368 18.1507 15.4058C18.4198 15.6749 18.7847 15.8261 19.1653 15.8261Z" fill="#FFEF5E" stroke="#191919" stroke-linecap="round" stroke-linejoin="round"/>
<path d="M4.8176 15.8261C5.19812 15.8261 5.56307 15.6749 5.83214 15.4058C6.10121 15.1368 6.25238 14.7718 6.25238 14.3913C6.25238 14.0108 6.10121 13.6458 5.83214 13.3768C5.56307 13.1077 5.19812 12.9565 4.8176 12.9565C4.43707 12.9565 4.07212 13.1077 3.80305 13.3768C3.53398 13.6458 3.38281 14.0108 3.38281 14.3913C3.38281 14.7718 3.53398 15.1368 3.80305 15.4058C4.07212 15.6749 4.43707 15.8261 4.8176 15.8261Z" fill="#FFEF5E" stroke="#191919" stroke-linecap="round" stroke-linejoin="round"/>
<path d="M11.9912 1V7.69565" stroke="#191919" stroke-linecap="round" stroke-linejoin="round"/>
<path d="M6.25195 20.5494L11.0346 17.2905" stroke="#191919" stroke-linecap="round" stroke-linejoin="round"/>
<path d="M17.7309 20.5494L12.9482 17.2905" stroke="#191919" stroke-linecap="round" stroke-linejoin="round"/>
<path d="M1.52539 11.5217H22.4589" stroke="#191919" stroke-linecap="round" stroke-linejoin="round"/>
<path d="M1.46973 19.04V21.087C1.46973 21.5943 1.67128 22.0809 2.03004 22.4397C2.38881 22.7984 2.8754 23 3.38277 23H4.33929C4.84666 23 5.33325 22.7984 5.69202 22.4397C6.05078 22.0809 6.25234 21.5943 6.25234 21.087V19.04" stroke="#191919" stroke-linecap="round" stroke-linejoin="round"/>
<path d="M17.748 19.04V21.087C17.748 21.5943 17.9496 22.0809 18.3084 22.4397C18.6671 22.7984 19.1537 23 19.6611 23H20.6176C21.125 23 21.6116 22.7984 21.9703 22.4397C22.3291 22.0809 22.5307 21.5943 22.5307 21.087V19.04" stroke="#191919" stroke-linecap="round" stroke-linejoin="round"/>
</g>
<defs>
<clipPath id="clip0_5303_12008">
<rect width="24" height="24" fill="white"/>
</clipPath>
</defs>
</svg>
