<svg width="24" height="24" viewBox="0 0 24 24" fill="none" xmlns="http://www.w3.org/2000/svg">
<path d="M21.5637 9.13281C21.5637 14.871 15.4009 16.7837 12.0001 16.7837C8.59926 16.7837 2.43652 14.871 2.43652 9.13281C2.43652 3.39467 6.36617 1.00378 12.0001 1.00378C17.634 1.00378 21.5637 3.39467 21.5637 9.13281Z" fill="#FF808C"/>
<path d="M12.0002 5.24622C16.7983 5.24622 20.3607 6.98103 21.3113 11.0417C21.4824 10.4186 21.5673 9.77515 21.5638 9.12903C21.5638 3.39089 17.6341 1 12.0002 1C6.36628 1 2.43663 3.39089 2.43663 9.12903C2.43302 9.77506 2.51802 10.4186 2.68909 11.0417C3.63969 6.98103 7.20212 5.24622 12.0002 5.24622Z" fill="#FFBFC5"/>
<path d="M17.1796 8.8134C17.1796 13.2127 14.8595 16.7837 11.999 16.7837C9.1385 16.7837 6.81836 13.2155 6.81836 8.8134C6.81836 4.41133 9.1385 1.00378 11.999 1.00378C14.8595 1.00378 17.1796 4.41221 17.1796 8.8134Z" fill="#FFEF5E"/>
<path d="M11.9991 5.24619C13.6496 5.21096 15.2927 5.47533 16.8488 6.0266C16.1114 3.05419 14.2179 1.00378 11.9991 1.00378C9.78037 1.00378 7.88678 3.05419 7.14941 6.0266C8.70554 5.47533 10.3486 5.21096 11.9991 5.24619Z" fill="#FFF9BF"/>
<path d="M21.5637 9.13281C21.5637 14.871 15.4009 16.7837 12.0001 16.7837C8.59926 16.7837 2.43652 14.871 2.43652 9.13281C2.43652 3.39467 6.36617 1.00378 12.0001 1.00378C17.634 1.00378 21.5637 3.39467 21.5637 9.13281Z" stroke="#191919" stroke-linecap="round" stroke-linejoin="round"/>
<path d="M14.3912 20.1309H9.60938V23H14.3912V20.1309Z" fill="#C77F67" stroke="#191919" stroke-linecap="round" stroke-linejoin="round"/>
<path d="M17.0426 15.6494L14.3906 20.1309" stroke="#191919" stroke-linecap="round" stroke-linejoin="round"/>
<path d="M6.95801 15.6494L9.60897 20.1309" stroke="#191919" stroke-linecap="round" stroke-linejoin="round"/>
<path d="M8.1748 20.1309H15.8257" stroke="#191919" stroke-linecap="round" stroke-linejoin="round"/>
<path d="M17.1796 8.8134C17.1796 13.2127 14.8595 16.7837 11.999 16.7837C9.1385 16.7837 6.81836 13.2155 6.81836 8.8134C6.81836 4.41133 9.1385 1.00378 11.999 1.00378C14.8595 1.00378 17.1796 4.41221 17.1796 8.8134Z" stroke="#191919" stroke-linecap="round" stroke-linejoin="round"/>
</svg>
