<svg width="24" height="24" viewBox="0 0 24 24" fill="none" xmlns="http://www.w3.org/2000/svg">
<g clip-path="url(#clip0_5303_11867)">
<path d="M6.26074 9.13049H15.826C19.2589 9.13049 22.0434 12 22.0434 14.3913C22.0434 16.0633 21.5651 17.7391 20.3063 17.7391H13.9072C11.0434 16.7826 10.5651 12 10.5651 12L6.26074 11.0435V9.13049Z" fill="#FFBC44"/>
<path d="M16.0287 11.4777C17.21 11.4935 18.3709 11.7887 19.4163 12.3391C20.4616 12.8895 21.3619 13.6796 22.0434 14.6448V14.3913C22.0434 12 19.2589 9.13049 15.826 9.13049H6.26074V11.0435L8.21683 11.4777H16.0287Z" fill="#FFDDA1"/>
<path d="M18.6398 13.913H22.0068C21.673 11.6336 19.033 9.13049 15.8258 9.13049H15.666L16.8244 12.6083C16.952 12.9887 17.1959 13.3194 17.5217 13.5535C17.8475 13.7876 18.2387 13.9134 18.6398 13.913Z" fill="#66E1FF"/>
<path d="M17.1649 13.2148L19.8431 10.5413C18.6978 9.63809 17.2844 9.14172 15.8258 9.13049H15.666L16.8244 12.6083C16.8995 12.8299 17.0149 13.0354 17.1649 13.2148Z" fill="#C2F3FF"/>
<path d="M3.3913 12.417C4.71198 12.417 5.78261 11.3464 5.78261 10.0257C5.78261 8.70503 4.71198 7.6344 3.3913 7.6344C2.07063 7.6344 1 8.70503 1 10.0257C1 11.3464 2.07063 12.417 3.3913 12.417Z" fill="#C2F3FF"/>
<path d="M3.3913 10.0869H1" stroke="#191919" stroke-linecap="round" stroke-linejoin="round"/>
<path d="M3.3916 10.0869L4.58725 8.01514" stroke="#191919" stroke-linecap="round" stroke-linejoin="round"/>
<path d="M3.3916 10.0869L4.58725 12.1578" stroke="#191919" stroke-linecap="round" stroke-linejoin="round"/>
<path d="M6.26074 9.13049H15.826C19.2589 9.13049 22.0434 12 22.0434 14.3913C22.0434 16.0633 21.5651 17.7391 20.3063 17.7391H13.9072C11.0434 16.7826 10.5651 12 10.5651 12L6.26074 11.0435" stroke="#191919" stroke-linecap="round" stroke-linejoin="round"/>
<path d="M13.435 12H12.4785" stroke="#191919" stroke-linecap="round" stroke-linejoin="round"/>
<path d="M15.3476 7.21741H13.4346V9.13045H15.3476V7.21741Z" fill="#808080" stroke="#191919" stroke-linecap="round" stroke-linejoin="round"/>
<path d="M14.3916 7.21746V4.3479" stroke="#191919" stroke-linecap="round" stroke-linejoin="round"/>
<path d="M22.9996 5.30432H5.78223" stroke="#191919" stroke-linecap="round" stroke-linejoin="round"/>
<path d="M20.1309 17.7391L20.6091 19.6522" stroke="#191919" stroke-linecap="round" stroke-linejoin="round"/>
<path d="M13.9071 17.7391L13.4346 19.6522" stroke="#191919" stroke-linecap="round" stroke-linejoin="round"/>
<path d="M22.9997 19.174C22.9997 19.3008 22.9493 19.4224 22.8597 19.5121C22.77 19.6018 22.6483 19.6523 22.5215 19.6523H11.5215" stroke="#191919" stroke-linecap="round" stroke-linejoin="round"/>
<path d="M15.666 9.13049L16.8244 12.6083C16.9514 12.9898 17.1954 13.3214 17.5216 13.5563C17.8478 13.7913 18.2397 13.9173 18.6418 13.9169H22.0097" stroke="#191919" stroke-linecap="round" stroke-linejoin="round"/>
</g>
<defs>
<clipPath id="clip0_5303_11867">
<rect width="24" height="24" fill="white"/>
</clipPath>
</defs>
</svg>
