<svg width="24" height="24" viewBox="0 0 24 24" fill="none" xmlns="http://www.w3.org/2000/svg">
<g clip-path="url(#clip0_5303_6712)">
<path d="M12 1C12.314 1 12.6249 1.06185 12.915 1.18202C13.2052 1.3022 13.4688 1.47834 13.6909 1.70038C13.9129 1.92244 14.0891 2.18605 14.2092 2.47617C14.3293 2.7663 14.3912 3.07725 14.3912 3.39127V6.88826L22.3522 13.9129C22.6437 14.1699 22.8499 14.5095 22.9436 14.8867C23.0372 15.2638 23.0138 15.6606 22.8763 16.0241C22.739 16.3875 22.4941 16.7005 22.1744 16.9215C21.8548 17.1423 21.4754 17.2606 21.0868 17.2606C20.1743 17.2606 20.1657 17.0244 14.3912 12.9563V19.1134L15.8633 20.5328C16.0687 20.7313 16.2103 20.9865 16.2699 21.2659C16.3294 21.5453 16.3041 21.8361 16.1974 22.101C16.0907 22.366 15.9073 22.5931 15.6707 22.7532C15.4341 22.9133 15.1551 22.9991 14.8695 22.9997C13.913 22.9997 12 21.5649 12 21.5649C12 21.5649 10.0869 22.9997 9.13043 22.9997C8.84478 22.9991 8.5658 22.9133 8.32921 22.7532C8.09263 22.5931 7.90922 22.366 7.80247 22.101C7.69573 21.8361 7.67051 21.5453 7.73004 21.2659C7.78957 20.9865 7.93114 20.7313 8.13662 20.5328L9.60869 19.1134V13.8794C9.60869 13.7917 9.58456 13.7057 9.53896 13.6307C9.49335 13.5558 9.42802 13.4949 9.35011 13.4546C9.27221 13.4143 9.18471 13.3962 9.09721 13.4023C9.00972 13.4084 8.92558 13.4384 8.854 13.4891C3.83329 17.0454 3.78451 17.2606 2.91313 17.2606C2.52455 17.2606 2.14517 17.1423 1.82549 16.9215C1.5058 16.7005 1.26097 16.3875 1.12358 16.0241C0.986178 15.6606 0.962731 15.2638 1.05636 14.8867C1.14998 14.5095 1.35624 14.1699 1.64767 13.9129L9.60869 6.88826V3.39127C9.60869 2.75707 9.86062 2.14883 10.309 1.70038C10.7575 1.25194 11.3658 1 12 1Z" fill="#E3E3E3"/>
<path d="M12 21.5649C12 21.5649 10.0869 22.9997 9.13043 22.9997C8.84478 22.9991 8.5658 22.9133 8.32921 22.7532C8.09263 22.5931 7.90922 22.366 7.80248 22.101C7.69573 21.8361 7.67051 21.5453 7.73004 21.2659C7.78957 20.9865 7.93114 20.7313 8.13662 20.5328L9.60869 19.1134V13.8794C9.60869 13.7917 9.58456 13.7057 9.53896 13.6307C9.49335 13.5558 9.42802 13.4949 9.35011 13.4546C9.27221 13.4143 9.18471 13.3962 9.09721 13.4023C9.00972 13.4084 8.92558 13.4384 8.854 13.4891C3.83329 17.0454 3.78451 17.2606 2.91313 17.2606C2.52455 17.2606 2.14517 17.1423 1.82549 16.9215C1.5058 16.7005 1.26097 16.3875 1.12358 16.0241C0.986178 15.6606 0.962731 15.2638 1.05636 14.8867C1.14998 14.5095 1.35624 14.1699 1.64767 13.9129L9.60869 6.88826V3.39127C9.60869 2.75707 9.86062 2.14883 10.309 1.70038C10.7575 1.25194 11.3658 1 12 1V21.5649Z" fill="white"/>
<path d="M14.3989 6.89591L14.3912 6.88826V3.39127C14.3912 2.75707 14.1393 2.14883 13.6909 1.70038C13.2424 1.25194 12.6341 1 12 1C11.3658 1 10.7575 1.25194 10.309 1.70038C9.86062 2.14883 9.60869 2.75707 9.60869 3.39127V6.88826L1.64767 13.9129C1.35624 14.1699 1.14998 14.5095 1.05636 14.8867C0.962731 15.2638 0.986178 15.6606 1.12358 16.0241C1.26097 16.3875 1.5058 16.7005 1.82549 16.9215C2.14517 17.1423 2.52455 17.2606 2.91313 17.2606C3.48034 17.2606 3.70034 17.165 5.17527 16.1186" stroke="#191919" stroke-linecap="round" stroke-linejoin="round"/>
<path d="M9.60876 17.0956V19.1129L8.1367 20.5324C7.93121 20.7309 7.78964 20.9861 7.73011 21.2654C7.67058 21.5448 7.6958 21.8356 7.80255 22.1006C7.9093 22.3655 8.0927 22.5926 8.32928 22.7527C8.56586 22.9128 8.84485 22.9986 9.13051 22.9992C10.087 22.9992 12 21.5645 12 21.5645C12 21.5645 13.913 22.9992 14.8696 22.9992C15.1552 22.9986 15.4342 22.9128 15.6708 22.7527C15.9074 22.5926 16.0907 22.3655 16.1975 22.1006C16.3042 21.8356 16.3295 21.5448 16.27 21.2654C16.2104 20.9861 16.0688 20.7309 15.8634 20.5324L14.3913 19.1129V12.9559C20.1648 17.0239 20.1734 17.2602 21.0869 17.2602C21.4755 17.2602 21.8548 17.1418 22.1745 16.921C22.4942 16.7 22.739 16.3871 22.8764 16.0236C23.0138 15.6601 23.0373 15.2634 22.9436 14.8862C22.85 14.5091 22.6438 14.1694 22.3523 13.9124L17.2733 9.43115" stroke="#191919" stroke-linecap="round" stroke-linejoin="round"/>
<path d="M1.00006 22.9997L22.9997 1" stroke="#191919" stroke-linecap="round" stroke-linejoin="round"/>
</g>
<defs>
<clipPath id="clip0_5303_6712">
<rect width="24" height="24" fill="white"/>
</clipPath>
</defs>
</svg>
