<svg width="24" height="24" viewBox="0 0 24 24" fill="none" xmlns="http://www.w3.org/2000/svg">
<path d="M15.2085 1.45837H17.9585L15.2085 4.20837H17.9585" stroke="#191919" stroke-linecap="round" stroke-linejoin="round"/>
<path d="M17.9585 6.95837H22.5418L17.9585 11.5417H22.5418" stroke="#191919" stroke-linecap="round" stroke-linejoin="round"/>
<path d="M13.8335 13.375C13.8335 11.9163 13.254 10.5174 12.2226 9.48591C11.1911 8.45446 9.79219 7.875 8.3335 7.875C6.87481 7.875 5.47586 8.45446 4.44441 9.48591C3.41296 10.5174 2.8335 11.9163 2.8335 13.375V18.4167C2.8335 18.5972 2.79793 18.776 2.72883 18.9429C2.65973 19.1097 2.55845 19.2613 2.43077 19.3889C2.30309 19.5166 2.15151 19.6179 1.98469 19.687C1.81786 19.7561 1.63906 19.7917 1.4585 19.7917H15.2085C14.8438 19.7917 14.4941 19.6468 14.2362 19.3889C13.9784 19.1311 13.8335 18.7813 13.8335 18.4167V13.375Z" fill="#FFEF5E"/>
<path d="M8.3335 7.875C6.87481 7.875 5.47586 8.45446 4.44441 9.48591C3.41296 10.5174 2.8335 11.9163 2.8335 13.375V18.4167C2.8335 18.5972 2.79793 18.776 2.72883 18.9429C2.65973 19.1097 2.55845 19.2613 2.43077 19.3889C2.30309 19.5166 2.15151 19.6179 1.98469 19.687C1.81786 19.7561 1.63906 19.7917 1.4585 19.7917H8.3335V7.875Z" fill="#FFF9BF"/>
<path d="M13.8335 13.375C13.8335 11.9163 13.254 10.5174 12.2226 9.48591C11.1911 8.45446 9.79219 7.875 8.3335 7.875C6.87481 7.875 5.47586 8.45446 4.44441 9.48591C3.41296 10.5174 2.8335 11.9163 2.8335 13.375V18.4167C2.8335 18.5972 2.79793 18.776 2.72883 18.9429C2.65973 19.1097 2.55845 19.2613 2.43077 19.3889C2.30309 19.5166 2.15151 19.6179 1.98469 19.687C1.81786 19.7561 1.63906 19.7917 1.4585 19.7917H15.2085C14.8438 19.7917 14.4941 19.6468 14.2362 19.3889C13.9784 19.1311 13.8335 18.7813 13.8335 18.4167V13.375Z" stroke="#191919" stroke-linecap="round" stroke-linejoin="round"/>
<path d="M9.63036 21.625C9.53569 21.8933 9.36014 22.1256 9.12791 22.2899C8.89569 22.4542 8.61821 22.5424 8.33373 22.5424C8.04926 22.5424 7.77178 22.4542 7.53956 22.2899C7.30733 22.1256 7.13178 21.8933 7.03711 21.625" fill="#FFBC44"/>
<path d="M9.63036 21.625C9.53569 21.8933 9.36014 22.1256 9.12791 22.2899C8.89569 22.4542 8.61821 22.5424 8.33373 22.5424C8.04926 22.5424 7.77178 22.4542 7.53956 22.2899C7.30733 22.1256 7.13178 21.8933 7.03711 21.625" stroke="#191919" stroke-linecap="round" stroke-linejoin="round"/>
<path d="M8.3335 6.04163V7.87496" stroke="#191919" stroke-linecap="round" stroke-linejoin="round"/>
</svg>
