<svg width="24" height="24" viewBox="0 0 24 24" fill="none" xmlns="http://www.w3.org/2000/svg">
<path d="M17.9585 18.875V14.75C17.9585 13.5737 17.6103 12.4237 16.9578 11.4449C16.3053 10.4661 15.3777 9.70241 14.2918 9.24998C14.2918 8.64219 14.0504 8.0593 13.6206 7.62953C13.1908 7.19976 12.608 6.95831 12.0002 6.95831C11.3924 6.95831 10.8095 7.19976 10.3797 7.62953C9.94994 8.0593 9.7085 8.64219 9.7085 9.24998C8.62266 9.70241 7.69504 10.4661 7.04253 11.4449C6.39002 12.4237 6.04183 13.5737 6.04183 14.75V18.875C6.04183 19.3612 5.84868 19.8275 5.50486 20.1713C5.16104 20.5152 4.69473 20.7083 4.2085 20.7083H19.7918C19.3056 20.7083 18.8393 20.5152 18.4955 20.1713C18.1517 19.8275 17.9585 19.3612 17.9585 18.875Z" fill="#FFEF5E"/>
<path d="M12.0002 6.95831C11.3924 6.95831 10.8095 7.19976 10.3797 7.62953C9.94994 8.0593 9.7085 8.64219 9.7085 9.24998C8.62266 9.70241 7.69504 10.4661 7.04253 11.4449C6.39002 12.4237 6.04183 13.5737 6.04183 14.75V18.875C6.04183 19.3612 5.84868 19.8275 5.50486 20.1713C5.16104 20.5152 4.69473 20.7083 4.2085 20.7083H12.0002V6.95831Z" fill="#FFF9BF"/>
<path d="M13.8332 20.7083C13.8332 21.1945 13.64 21.6609 13.2962 22.0047C12.9524 22.3485 12.4861 22.5416 11.9998 22.5416C11.5136 22.5416 11.0473 22.3485 10.7035 22.0047C10.3597 21.6609 10.1665 21.1945 10.1665 20.7083H13.8332Z" fill="#FFBC44" stroke="#191919" stroke-linecap="round" stroke-linejoin="round"/>
<path d="M4.2085 9.24998C4.2085 7.91285 4.73967 6.63048 5.68517 5.68498C6.63066 4.73949 7.91303 4.20831 9.25016 4.20831" stroke="#191919" stroke-linecap="round" stroke-linejoin="round"/>
<path d="M1.4585 9.24998C1.4585 7.1835 2.2794 5.20166 3.74062 3.74044C5.20184 2.27922 7.18368 1.45831 9.25016 1.45831" stroke="#191919" stroke-linecap="round" stroke-linejoin="round"/>
<path d="M19.7917 9.24998C19.7917 7.91285 19.2605 6.63048 18.315 5.68498C17.3695 4.73949 16.0871 4.20831 14.75 4.20831" stroke="#191919" stroke-linecap="round" stroke-linejoin="round"/>
<path d="M22.5417 9.24998C22.5417 7.1835 21.7208 5.20166 20.2595 3.74044C18.7983 2.27922 16.8165 1.45831 14.75 1.45831" stroke="#191919" stroke-linecap="round" stroke-linejoin="round"/>
<path d="M17.9585 18.875V14.75C17.9585 13.5737 17.6103 12.4237 16.9578 11.4449C16.3053 10.4661 15.3777 9.70241 14.2918 9.24998C14.2918 8.64219 14.0504 8.0593 13.6206 7.62953C13.1908 7.19976 12.608 6.95831 12.0002 6.95831C11.3924 6.95831 10.8095 7.19976 10.3797 7.62953C9.94994 8.0593 9.7085 8.64219 9.7085 9.24998C8.62266 9.70241 7.69504 10.4661 7.04253 11.4449C6.39002 12.4237 6.04183 13.5737 6.04183 14.75V18.875C6.04183 19.3612 5.84868 19.8275 5.50486 20.1713C5.16104 20.5152 4.69473 20.7083 4.2085 20.7083H19.7918C19.3056 20.7083 18.8393 20.5152 18.4955 20.1713C18.1517 19.8275 17.9585 19.3612 17.9585 18.875Z" stroke="#191919" stroke-linecap="round" stroke-linejoin="round"/>
</svg>
