<svg width="24" height="24" viewBox="0 0 24 24" fill="none" xmlns="http://www.w3.org/2000/svg">
<path d="M15.2085 19.7917C14.8438 19.7917 14.494 19.6468 14.2362 19.389C13.9783 19.1311 13.8335 18.7813 13.8335 18.4167V13.375C13.8335 12.6528 13.6912 11.9376 13.4149 11.2702C13.1384 10.6029 12.7333 9.99663 12.2225 9.48591C11.7119 8.97519 11.1056 8.57006 10.4383 8.29366C9.77097 8.01726 9.05577 7.875 8.3335 7.875C7.61123 7.875 6.89603 8.01726 6.22874 8.29366C5.56145 8.57006 4.95513 8.97519 4.44441 9.48591C3.93369 9.99663 3.52856 10.6029 3.25216 11.2702C2.97575 11.9376 2.8335 12.6528 2.8335 13.375V18.4167C2.8335 18.7813 2.68863 19.1311 2.43077 19.389C2.17291 19.6468 1.82317 19.7917 1.4585 19.7917H15.2085Z" fill="#FFEF5E"/>
<path d="M8.3335 7.87502C7.61075 7.87332 6.89479 8.01441 6.22674 8.29022C5.55868 8.56602 4.95169 8.97109 4.44063 9.48215C3.92957 9.99321 3.52452 10.6002 3.24871 11.2682C2.97291 11.9363 2.8318 12.6523 2.8335 13.375V18.4167C2.8335 18.7813 2.68863 19.1311 2.43077 19.389C2.17291 19.6468 1.82317 19.7917 1.4585 19.7917H8.3335V7.87502Z" fill="#FFF9BF"/>
<path d="M9.63036 21.625C9.53569 21.8932 9.36014 22.1256 9.12792 22.2899C8.89569 22.4542 8.61821 22.5424 8.33373 22.5424C8.04926 22.5424 7.77178 22.4542 7.53955 22.2899C7.30732 22.1256 7.13178 21.8932 7.03711 21.625" fill="#FFBC44"/>
<path d="M9.63036 21.625C9.53569 21.8932 9.36014 22.1256 9.12792 22.2899C8.89569 22.4542 8.61821 22.5424 8.33373 22.5424C8.04926 22.5424 7.77178 22.4542 7.53955 22.2899C7.30732 22.1256 7.13178 21.8932 7.03711 21.625" stroke="#191919" stroke-linecap="round" stroke-linejoin="round"/>
<path d="M8.3335 6.04169V7.87502" stroke="#191919" stroke-linecap="round" stroke-linejoin="round"/>
<path d="M9.80016 8.07852C8.98364 7.84969 8.12518 7.81326 7.29221 7.97208C6.45923 8.1309 5.67441 8.48065 4.99936 8.99386C4.32432 9.50707 3.77742 10.1698 3.40163 10.93C3.02584 11.6901 2.83137 12.5271 2.8335 13.375V18.4167C2.8335 18.7813 2.68863 19.1311 2.43077 19.389C2.17291 19.6468 1.82317 19.7917 1.4585 19.7917H15.2085C14.8438 19.7917 14.494 19.6468 14.2362 19.389C13.9783 19.1311 13.8335 18.7813 13.8335 18.4167V13.5437" stroke="#191919" stroke-linecap="round" stroke-linejoin="round"/>
<path d="M9.63036 21.625C9.53569 21.8932 9.36014 22.1256 9.12792 22.2899C8.89569 22.4542 8.61821 22.5424 8.33373 22.5424C8.04926 22.5424 7.77178 22.4542 7.53955 22.2899C7.30732 22.1256 7.13178 21.8932 7.03711 21.625" fill="#FFBC44"/>
<path d="M9.63036 21.625C9.53569 21.8932 9.36014 22.1256 9.12792 22.2899C8.89569 22.4542 8.61821 22.5424 8.33373 22.5424C8.04926 22.5424 7.77178 22.4542 7.53955 22.2899C7.30732 22.1256 7.13178 21.8932 7.03711 21.625" stroke="#191919" stroke-linecap="round" stroke-linejoin="round"/>
<path d="M8.3335 6.04169V7.87502" stroke="#191919" stroke-linecap="round" stroke-linejoin="round"/>
<path d="M17.0415 12.4583C18.1293 12.4583 19.1926 12.1357 20.0971 11.5314C21.0016 10.927 21.7066 10.0681 22.1229 9.06307C22.5391 8.05808 22.648 6.95222 22.4358 5.88532C22.2236 4.81843 21.6998 3.83842 20.9306 3.06923C20.1614 2.30004 19.1814 1.77621 18.1145 1.564C17.0476 1.35178 15.9418 1.4607 14.9367 1.87698C13.9317 2.29326 13.0728 2.99821 12.4684 3.90268C11.8641 4.80715 11.5415 5.87051 11.5415 6.95831C11.5415 8.417 12.1209 9.81596 13.1525 10.8474C14.1839 11.8789 15.5828 12.4583 17.0415 12.4583Z" fill="#78EB7B"/>
<path d="M20.9311 3.06882C20.4204 2.55806 19.8141 2.15289 19.1468 1.87644C18.4795 1.59999 17.7643 1.45768 17.0421 1.45764C15.5833 1.45756 14.1843 2.03695 13.1527 3.06836C12.1212 4.09978 11.5416 5.49873 11.5415 6.95746C11.5415 8.41619 12.1208 9.8152 13.1523 10.8467L20.9311 3.06882Z" fill="#C9F7CA"/>
<path d="M17.0415 12.4583C18.1293 12.4583 19.1926 12.1357 20.0971 11.5314C21.0016 10.927 21.7066 10.0681 22.1229 9.06307C22.5391 8.05808 22.648 6.95222 22.4358 5.88532C22.2236 4.81843 21.6998 3.83842 20.9306 3.06923C20.1614 2.30004 19.1814 1.77621 18.1145 1.564C17.0476 1.35178 15.9418 1.4607 14.9367 1.87698C13.9317 2.29326 13.0728 2.99821 12.4684 3.90268C11.8641 4.80715 11.5415 5.87051 11.5415 6.95831C11.5415 8.417 12.1209 9.81596 13.1525 10.8474C14.1839 11.8789 15.5828 12.4583 17.0415 12.4583Z" stroke="#191919" stroke-linecap="round" stroke-linejoin="round"/>
<path d="M19.4926 5.36334L16.8297 8.91359C16.7703 8.99202 16.6948 9.05687 16.6083 9.10378C16.5218 9.1507 16.4263 9.1786 16.3282 9.18563C16.23 9.19265 16.1315 9.17865 16.0392 9.14454C15.9469 9.11043 15.863 9.05701 15.793 8.98784L14.418 7.61284" stroke="#191919" stroke-linecap="round" stroke-linejoin="round"/>
</svg>
