<svg width="24" height="24" viewBox="0 0 24 24" fill="none" xmlns="http://www.w3.org/2000/svg">
<path d="M23 2.10004H1" stroke="#191919" stroke-linecap="round" stroke-linejoin="round"/>
<path d="M18.6007 4.29999C19.2082 4.29999 19.7007 4.79244 19.7007 5.39999V14.2C19.7007 14.8075 19.2081 15.3 18.6007 15.3H15.3007C14.6931 15.3 14.2007 14.8076 14.2007 14.2V5.39999C14.2007 4.79244 14.6931 4.29999 15.3007 4.29999H18.6007Z" fill="#66E1FF"/>
<path d="M9.80039 4.29999C10.4079 4.29999 10.9004 4.79244 10.9004 5.39999V20.8C10.9004 21.4076 10.4079 21.9 9.80039 21.9H6.50039C5.89284 21.9 5.40039 21.4076 5.40039 20.8V5.39999C5.40039 4.79244 5.89284 4.29999 6.50039 4.29999H9.80039Z" fill="#66E1FF"/>
<path d="M18.6007 4.29999C19.2082 4.29999 19.7007 4.79244 19.7007 5.39999V14.2C19.7007 14.8075 19.2081 15.3 18.6007 15.3H15.3007C14.6931 15.3 14.2007 14.8076 14.2007 14.2V5.39999C14.2007 4.79244 14.6931 4.29999 15.3007 4.29999H18.6007Z" stroke="#191919" stroke-linecap="round" stroke-linejoin="round"/>
<path d="M9.80039 4.29999C10.4079 4.29999 10.9004 4.79244 10.9004 5.39999V20.8C10.9004 21.4076 10.4079 21.9 9.80039 21.9H6.50039C5.89284 21.9 5.40039 21.4076 5.40039 20.8V5.39999C5.40039 4.79244 5.89284 4.29999 6.50039 4.29999H9.80039Z" stroke="#191919" stroke-linecap="round" stroke-linejoin="round"/>
</svg>
