<svg width="24" height="24" viewBox="0 0 24 24" fill="none" xmlns="http://www.w3.org/2000/svg">
<path d="M12.0005 18.6V23" stroke="#191919" stroke-linecap="round" stroke-linejoin="round"/>
<path d="M12.0005 9.79999V13.1" stroke="#191919" stroke-linecap="round" stroke-linejoin="round"/>
<path d="M12.0005 1V4.3" stroke="#191919" stroke-linecap="round" stroke-linejoin="round"/>
<path d="M6.50098 5.39999C6.50098 4.79243 6.99342 4.29999 7.60098 4.29999H16.401C17.0085 4.29999 17.501 4.79243 17.501 5.39999V8.69999C17.501 9.30754 17.0085 9.79999 16.401 9.79999H7.60098C6.99342 9.79999 6.50098 9.30754 6.50098 8.69999V5.39999Z" fill="#66E1FF"/>
<path d="M3.2002 14.2C3.2002 13.5924 3.69264 13.1 4.3002 13.1H19.7002C20.3078 13.1 20.8002 13.5924 20.8002 14.2V17.5C20.8002 18.1075 20.3078 18.6 19.7002 18.6H4.3002C3.69264 18.6 3.2002 18.1075 3.2002 17.5V14.2Z" fill="#66E1FF"/>
<path d="M6.50098 5.39999C6.50098 4.79243 6.99342 4.29999 7.60098 4.29999H16.401C17.0085 4.29999 17.501 4.79243 17.501 5.39999V8.69999C17.501 9.30754 17.0085 9.79999 16.401 9.79999H7.60098C6.99342 9.79999 6.50098 9.30754 6.50098 8.69999V5.39999Z" stroke="#191919" stroke-linecap="round" stroke-linejoin="round"/>
<path d="M3.2002 14.2C3.2002 13.5924 3.69264 13.1 4.3002 13.1H19.7002C20.3078 13.1 20.8002 13.5924 20.8002 14.2V17.5C20.8002 18.1075 20.3078 18.6 19.7002 18.6H4.3002C3.69264 18.6 3.2002 18.1075 3.2002 17.5V14.2Z" stroke="#191919" stroke-linecap="round" stroke-linejoin="round"/>
</svg>
