<svg width="24" height="24" viewBox="0 0 24 24" fill="none" xmlns="http://www.w3.org/2000/svg">
<path d="M18.6001 6.50006C19.2076 6.50006 19.7001 6.9926 19.7001 7.60005V16.4C19.7001 17.0074 19.2076 17.5 18.6001 17.5H15.3002C14.6926 17.5 14.2002 17.0075 14.2002 16.4V7.60005C14.2002 6.9925 14.6926 6.50006 15.3002 6.50006H18.6001Z" fill="#66E1FF"/>
<path d="M9.79985 3.20007C10.4074 3.20007 10.8998 3.69251 10.8998 4.30006V19.6999C10.8998 20.3075 10.4074 20.7999 9.79985 20.7999H6.49989C5.89234 20.7999 5.3999 20.3075 5.3999 19.6999V4.30006C5.3999 3.69251 5.89234 3.20007 6.49989 3.20007H9.79985Z" fill="#66E1FF"/>
<path d="M5.39995 12H1" stroke="#191919" stroke-linecap="round" stroke-linejoin="round"/>
<path d="M14.2008 12H10.9009" stroke="#191919" stroke-linecap="round" stroke-linejoin="round"/>
<path d="M23.0002 12H19.7002" stroke="#191919" stroke-linecap="round" stroke-linejoin="round"/>
<path d="M18.6001 6.50006C19.2076 6.50006 19.7001 6.9926 19.7001 7.60005V16.4C19.7001 17.0074 19.2076 17.5 18.6001 17.5H15.3002C14.6926 17.5 14.2002 17.0075 14.2002 16.4V7.60005C14.2002 6.9925 14.6926 6.50006 15.3002 6.50006H18.6001Z" stroke="#191919" stroke-linecap="round" stroke-linejoin="round"/>
<path d="M9.79985 3.20007C10.4074 3.20007 10.8998 3.69251 10.8998 4.30006V19.6999C10.8998 20.3075 10.4074 20.7999 9.79985 20.7999H6.49989C5.89234 20.7999 5.3999 20.3075 5.3999 19.6999V4.30006C5.3999 3.69251 5.89234 3.20007 6.49989 3.20007H9.79985Z" stroke="#191919" stroke-linecap="round" stroke-linejoin="round"/>
</svg>
