<svg width="24" height="24" viewBox="0 0 24 24" fill="none" xmlns="http://www.w3.org/2000/svg">
<g clip-path="url(#clip0_5303_9700)">
<path d="M12 21.087C14.4101 21.087 16.7214 20.1296 18.4255 18.4254C20.1296 16.7213 21.087 14.41 21.087 12C21.087 9.58997 20.1296 7.27867 18.4255 5.57454C16.7214 3.8704 14.4101 2.91302 12 2.91302C9.59003 2.91302 7.27873 3.8704 5.57459 5.57454C3.87046 7.27867 2.91309 9.58997 2.91309 12C2.91309 14.41 3.87046 16.7213 5.57459 18.4254C7.27873 20.1296 9.59003 21.087 12 21.087Z" fill="#FF808C"/>
<path d="M12 23C18.0749 23 23 18.0749 23 12C23 5.92513 18.0749 1 12 1C5.92513 1 1 5.92513 1 12C1 18.0749 5.92513 23 12 23Z" stroke="#191919" stroke-linecap="round" stroke-linejoin="round"/>
<path d="M6.67707 6.67695L4.22168 4.22156" stroke="#191919" stroke-linecap="round" stroke-linejoin="round"/>
<path d="M19.7772 19.7775L17.6958 17.6971" stroke="#191919" stroke-linecap="round" stroke-linejoin="round"/>
<path d="M17.261 15.3478C17.261 15.6015 17.1602 15.8448 16.9808 16.0242C16.8014 16.2036 16.5581 16.3043 16.3045 16.3043H6.73924C6.48555 16.3043 6.24226 16.2036 6.06287 16.0242C5.88349 15.8448 5.78271 15.6015 5.78271 15.3478V9.60872C5.78271 9.35504 5.88349 9.11174 6.06287 8.93236C6.24226 8.75298 6.48555 8.6522 6.73924 8.6522H10.2688C10.3571 8.65229 10.4437 8.62794 10.519 8.58185C10.5943 8.53576 10.6553 8.46973 10.6954 8.39107C10.902 7.98455 11.1048 7.69568 11.6347 7.69568H13.7993C14.3302 7.69568 14.532 7.98263 14.7396 8.39107C14.7797 8.46973 14.8407 8.53576 14.916 8.58185C14.9913 8.62794 15.0779 8.65229 15.1662 8.6522H16.3045C16.5581 8.6522 16.8014 8.75298 16.9808 8.93236C17.1602 9.11174 17.261 9.35504 17.261 9.60872V15.3478Z" fill="#E3E3E3" stroke="#191919" stroke-linecap="round" stroke-linejoin="round"/>
<path d="M12.4785 14.3913C12.9858 14.3913 13.4724 14.1898 13.8312 13.831C14.19 13.4722 14.3915 12.9856 14.3915 12.4783C14.3915 11.9709 14.19 11.4843 13.8312 11.1255C13.4724 10.7668 12.9858 10.5652 12.4785 10.5652C11.9711 10.5652 11.4845 10.7668 11.1257 11.1255C10.767 11.4843 10.5654 11.9709 10.5654 12.4783C10.5654 12.9856 10.767 13.4722 11.1257 13.831C11.4845 14.1898 11.9711 14.3913 12.4785 14.3913Z" fill="#66E1FF" stroke="#191919" stroke-linecap="round" stroke-linejoin="round"/>
<path d="M8.65234 7.69568V8.6522" stroke="#191919" stroke-linecap="round" stroke-linejoin="round"/>
</g>
<defs>
<clipPath id="clip0_5303_9700">
<rect width="24" height="24" fill="white"/>
</clipPath>
</defs>
</svg>
