<svg width="24" height="24" viewBox="0 0 24 24" fill="none" xmlns="http://www.w3.org/2000/svg">
<path d="M15.9053 5.09302V4.5814C15.9053 4.17432 15.7437 3.78391 15.4558 3.49607C15.168 3.20823 14.7775 3.04651 14.3704 3.04651C13.9634 3.04651 13.573 3.20823 13.2851 3.49607C12.9972 3.78391 12.8356 4.17432 12.8356 4.5814V2.53488C12.8356 2.12781 12.6739 1.7374 12.386 1.44956C12.0982 1.16172 11.7077 1 11.3007 1C10.8936 1 10.5033 1.16172 10.2153 1.44956C9.92751 1.7374 9.7658 2.12781 9.7658 2.53488V4.5814C9.7658 4.17432 9.60409 3.78391 9.31625 3.49607C9.02839 3.20823 8.63799 3.04651 8.23092 3.04651C7.82384 3.04651 7.43344 3.20823 7.14559 3.49607C6.85774 3.78391 6.69604 4.17432 6.69604 4.5814V14.814L3.97827 11.6419C3.75098 11.4487 3.46116 11.3448 3.1629 11.3497C2.86464 11.3545 2.57835 11.4678 2.35752 11.6684C2.13668 11.8689 1.9964 12.1429 1.96286 12.4394C1.92933 12.7358 2.00484 13.0343 2.17529 13.2791C2.17529 13.2791 3.04199 15.0882 4.11948 17.1163L6.36143 20.9647C6.83915 21.5953 7.45631 22.1068 8.1646 22.4592C8.87289 22.8115 9.65311 22.9953 10.4442 22.9959H13.8557C15.2127 22.9959 16.5141 22.4569 17.4735 21.4973C18.433 20.5379 18.972 19.2366 18.972 17.8796V7.64707L15.9053 5.09302Z" fill="#FFDDA1"/>
<path d="M4.11898 17.1163C3.0415 15.0882 2.1748 13.2791 2.1748 13.2791C2.00515 13.0343 1.93022 12.7362 1.96397 12.4404C1.99771 12.1445 2.13784 11.871 2.35824 11.6707C2.57865 11.4705 2.86432 11.3571 3.16207 11.3519C3.45981 11.3465 3.74934 11.4496 3.97675 11.6419L6.69452 14.814V4.58139C6.69452 4.17432 6.85624 3.78391 7.14408 3.49607C7.43193 3.20822 7.82233 3.04651 8.2294 3.04651C8.63649 3.04651 9.02689 3.20822 9.31473 3.49607C9.60258 3.78391 9.76429 4.17432 9.76429 4.58139" stroke="#191919" stroke-linecap="round" stroke-linejoin="round"/>
<path d="M18.9744 7.65112V17.8837C18.9744 19.2407 18.4353 20.542 17.4758 21.5014C16.5164 22.4609 15.215 23 13.8581 23H10.4455C9.65459 22.9993 8.87455 22.8155 8.16643 22.4631C7.45832 22.1108 6.84134 21.5994 6.36377 20.9688" stroke="#191919" stroke-linecap="round" stroke-linejoin="round"/>
<path d="M9.76562 10.2093V2.53488C9.76562 2.12781 9.92735 1.7374 10.2152 1.44956C10.503 1.16172 10.8935 1 11.3005 1C11.7076 1 12.0979 1.16172 12.3859 1.44956C12.6737 1.7374 12.8354 2.12781 12.8354 2.53488V8.16279" stroke="#191919" stroke-linecap="round" stroke-linejoin="round"/>
<path d="M12.835 4.58139C12.835 4.17432 12.9966 3.78391 13.2845 3.49607C13.5723 3.20822 13.9628 3.04651 14.3698 3.04651C14.7769 3.04651 15.1673 3.20822 15.4552 3.49607C15.7431 3.78391 15.9047 4.17432 15.9047 4.58139V5.09302" stroke="#191919" stroke-linecap="round" stroke-linejoin="round"/>
<path d="M22.0443 2.02325L2.09082 21.9767" stroke="#191919" stroke-linecap="round" stroke-linejoin="round"/>
</svg>
