<svg width="24" height="24" viewBox="0 0 24 24" fill="none" xmlns="http://www.w3.org/2000/svg">
<g clip-path="url(#clip0_5303_9690)">
<path d="M22.9999 18.6956V15.8261C22.9999 15.6992 22.9495 15.5776 22.8599 15.4878C22.7701 15.3982 22.6485 15.3478 22.5216 15.3478H18.2173V19.1739H22.5216C22.6485 19.1739 22.7701 19.1235 22.8599 19.0339C22.9495 18.9441 22.9999 18.8225 22.9999 18.6956Z" fill="#FFBC44"/>
<path d="M4.34789 15.3478C4.22105 15.3478 4.0994 15.3982 4.00971 15.4878C3.92002 15.5776 3.86963 15.6992 3.86963 15.8261V18.6956C3.86963 18.8225 3.92002 18.9441 4.00971 19.0339C4.0994 19.1235 4.22105 19.1739 4.34789 19.1739H18.2175V15.3478H4.34789Z" fill="#E3E3E3"/>
<path d="M22.9999 17.2609V15.8261C22.9999 15.6992 22.9495 15.5776 22.8599 15.4878C22.7701 15.3982 22.6485 15.3478 22.5216 15.3478H18.2173V17.2609H22.9999Z" fill="#FFDDA1"/>
<path d="M18.2175 17.2609V15.3478H4.34789C4.22105 15.3478 4.0994 15.3982 4.00971 15.4878C3.92002 15.5776 3.86963 15.6992 3.86963 15.8261V17.2609H18.2175Z" fill="white"/>
<path d="M22.5218 15.3478H4.34789C4.08376 15.3478 3.86963 15.562 3.86963 15.8261V18.6956C3.86963 18.9597 4.08376 19.1739 4.34789 19.1739H22.5218C22.7859 19.1739 23.0001 18.9597 23.0001 18.6956V15.8261C23.0001 15.562 22.7859 15.3478 22.5218 15.3478Z" stroke="#191919" stroke-linecap="round" stroke-linejoin="round"/>
<path d="M18.2173 15.3478V19.1739" stroke="#191919" stroke-linecap="round" stroke-linejoin="round"/>
<path d="M1.95654 15.3478V19.1739" stroke="#191919" stroke-linecap="round" stroke-linejoin="round"/>
<path d="M6.73913 4.82605C6.73913 5.58711 6.4368 6.31699 5.89865 6.85514C5.36051 7.39329 4.63062 7.69562 3.86957 7.69562C3.10851 7.69562 2.37863 7.99794 1.84048 8.53609C1.30233 9.07424 1 9.80412 1 10.5652V12.4783" stroke="#191919" stroke-linecap="round" stroke-linejoin="round"/>
<path d="M8.65222 6.73914C8.65222 7.50019 8.34989 8.23008 7.81174 8.76822C7.27359 9.30637 6.54371 9.6087 5.78265 9.6087C5.02159 9.6087 4.29171 9.91103 3.75356 10.4492C3.21541 10.9873 2.91309 11.7173 2.91309 12.4783" stroke="#191919" stroke-linecap="round" stroke-linejoin="round"/>
</g>
<defs>
<clipPath id="clip0_5303_9690">
<rect width="24" height="24" fill="white"/>
</clipPath>
</defs>
</svg>
