<svg width="24" height="24" viewBox="0 0 24 24" fill="none" xmlns="http://www.w3.org/2000/svg">
<g clip-path="url(#clip0_5303_9052)">
<path fill-rule="evenodd" clip-rule="evenodd" d="M12.7549 7.44955C8.17651 7.79202 4.06348 8.55257 4.06348 13.2781C3.82871 15.8225 5.91355 17.9795 8.46459 17.8313C10.3365 17.9437 12.1468 17.143 13.3231 15.6826C13.7759 16.4161 14.3444 17.0716 15.0064 17.6238C15.2368 17.736 15.5096 17.7164 15.7216 17.5723C16.4827 16.9367 17.2333 16.2886 17.973 15.6282C18.1927 15.428 18.2154 15.0903 18.0243 14.8626C17.3034 14.1443 16.8981 13.1685 16.8981 12.1508V7.55021C16.8981 5.60603 17.0523 3.81495 15.6198 2.48832C14.3567 1.48605 12.7813 0.96008 11.1693 1.00243C7.89147 1.00243 5.17158 2.3412 4.56715 5.5043C4.48254 5.79189 4.67906 6.08604 4.97721 6.11783L7.84109 6.47438C8.11489 6.41745 8.32129 6.19119 8.35278 5.91329C8.6214 4.81614 9.63246 4.06527 10.7604 4.12524C11.3966 4.10822 12.0036 4.39277 12.3973 4.89283C12.7569 5.69368 12.8808 6.58013 12.7549 7.44955ZM12.1928 13.5359C11.2157 15.4852 8.35582 15.4902 8.35582 12.7683C8.29742 11.4277 9.2362 10.2492 10.5559 10.0062C11.2793 9.85846 12.0167 9.79087 12.755 9.80466V10.4192C12.8812 11.4905 12.6855 12.5762 12.1928 13.5359Z" fill="#808080"/>
<path fill-rule="evenodd" clip-rule="evenodd" d="M15.6198 2.4873C14.3566 1.48543 12.7811 0.959839 11.1693 1.0024C7.89146 1.0024 5.17158 2.34116 4.56715 5.50426C4.48254 5.79185 4.67906 6.086 4.97721 6.11779L7.84109 6.47434C8.11488 6.41741 8.32129 6.19116 8.35278 5.91325C8.6214 4.8161 9.63246 4.06523 10.7604 4.1252C11.3966 4.10818 12.0036 4.39274 12.3973 4.89279C12.7572 5.69443 12.8813 6.58195 12.755 7.45147C8.17651 7.79198 4.06348 8.55253 4.06348 13.278C3.9682 14.7361 4.61146 16.1446 5.77601 17.0274L8.68723 14.1161C8.45256 13.7059 8.33645 13.2386 8.3518 12.7662C8.29399 11.426 9.23257 10.248 10.5519 10.0052C11.2753 9.85754 12.0127 9.78995 12.7509 9.80365V10.0554L16.8871 5.92029C16.9745 4.64746 16.5133 3.3981 15.6198 2.4873Z" fill="#B2B2B2"/>
<path d="M22.8508 19.1679C10.4605 25.9364 1.09814 19.0854 1.09814 19.0854" stroke="#191919" stroke-linecap="round" stroke-linejoin="round"/>
<path d="M20.4767 23C21.9192 22.2395 23.1542 20.0415 22.857 19.1851L22.851 19.168C22.5891 18.6039 20.2459 17.7437 18.4287 18.4629" stroke="#191919" stroke-linecap="round" stroke-linejoin="round"/>
<path d="M12.7549 7.44955C8.17651 7.79202 4.06348 8.55257 4.06348 13.2781C3.82871 15.8225 5.91355 17.9795 8.46459 17.8313C10.3365 17.9437 12.1468 17.143 13.3231 15.6826C13.7759 16.4161 14.3444 17.0716 15.0064 17.6238C15.2368 17.736 15.5096 17.7164 15.7216 17.5723C16.4827 16.9367 17.2333 16.2886 17.973 15.6282C18.1927 15.428 18.2154 15.0903 18.0243 14.8626C17.3034 14.1443 16.8981 13.1685 16.8981 12.1508V7.55021C16.8981 5.60603 17.0523 3.81495 15.6198 2.48832C14.3567 1.48605 12.7813 0.96008 11.1693 1.00243C7.89147 1.00243 5.17158 2.3412 4.56715 5.5043C4.48254 5.79189 4.67906 6.08604 4.97721 6.11783L7.84109 6.47438C8.11489 6.41745 8.32129 6.19119 8.35278 5.91329C8.6214 4.81614 9.63246 4.06527 10.7604 4.12524C11.3966 4.10822 12.0036 4.39277 12.3973 4.89283C12.7569 5.69368 12.8808 6.58013 12.7549 7.44955ZM12.1928 13.5359C11.2157 15.4852 8.35582 15.4902 8.35582 12.7683C8.29742 11.4277 9.2362 10.2492 10.5559 10.0062C11.2793 9.85846 12.0167 9.79087 12.755 9.80466V10.4192C12.8812 11.4905 12.6855 12.5762 12.1928 13.5359Z" stroke="#191919" stroke-linecap="round" stroke-linejoin="round"/>
</g>
<defs>
<clipPath id="clip0_5303_9052">
<rect width="24" height="24" fill="white"/>
</clipPath>
</defs>
</svg>
