<svg width="24" height="24" viewBox="0 0 24 24" fill="none" xmlns="http://www.w3.org/2000/svg">
<g clip-path="url(#clip0_5303_7964)">
<path d="M7.68642 10.1013C7.86416 9.92358 8.00516 9.71263 8.10136 9.48046C8.19755 9.24828 8.24707 8.99943 8.24707 8.74811C8.24707 8.4968 8.19755 8.24795 8.10136 8.01577C8.00516 7.7836 7.86416 7.57265 7.68642 7.39498L5.65552 5.36599C5.29673 5.00731 4.81018 4.80582 4.30286 4.80582C3.79554 4.80582 3.30898 5.00731 2.9502 5.36599L1.83669 6.47949C1.37043 6.94754 1.07994 7.56212 1.01423 8.2195C0.94853 8.87688 1.11165 9.53679 1.47605 10.0879C4.75244 15.0195 8.98042 19.2475 13.9121 22.5239C14.4636 22.8886 15.124 23.0516 15.7818 22.9856C16.4396 22.9195 17.0544 22.6284 17.5224 22.1614L18.6368 21.0478C18.9955 20.6891 19.197 20.2025 19.197 19.6952C19.197 19.1879 18.9955 18.7013 18.6368 18.3425L16.6059 16.3155C16.2472 15.9568 15.7606 15.7553 15.2533 15.7553C14.746 15.7553 14.2594 15.9568 13.9006 16.3155L13.2243 16.9918C10.9549 15.1256 8.87242 13.0431 7.00626 10.7738L7.68642 10.1013Z" fill="#C2F3FF"/>
<path d="M15.2609 21.177C10.3292 17.9006 6.10128 13.6726 2.82488 8.74094C2.47771 8.21568 2.31362 7.59051 2.35808 6.96246C2.40253 6.3344 2.65304 5.73858 3.07073 5.26746C3.03151 5.30094 2.98846 5.32772 2.9502 5.36312L1.83669 6.47949C1.37043 6.94754 1.07994 7.56212 1.01423 8.2195C0.94853 8.87688 1.11165 9.53679 1.47605 10.0879C4.75244 15.0195 8.98042 19.2475 13.9121 22.5239C14.4636 22.8886 15.124 23.0516 15.7818 22.9856C16.4396 22.9195 17.0544 22.6284 17.5224 22.1614L18.6368 21.0478C18.6751 21.0096 18.7028 20.9656 18.7325 20.9254C18.2621 21.3434 17.667 21.5945 17.0394 21.64C16.4118 21.6855 15.7867 21.5228 15.2609 21.177Z" fill="#66E1FF"/>
<path d="M7.68642 10.1013C7.86416 9.92358 8.00516 9.71263 8.10136 9.48046C8.19755 9.24828 8.24707 8.99943 8.24707 8.74811C8.24707 8.4968 8.19755 8.24795 8.10136 8.01577C8.00516 7.7836 7.86416 7.57265 7.68642 7.39498L5.65552 5.36599C5.29673 5.00731 4.81018 4.80582 4.30286 4.80582C3.79554 4.80582 3.30898 5.00731 2.9502 5.36599L1.83669 6.47949C1.37043 6.94754 1.07994 7.56212 1.01423 8.2195C0.94853 8.87688 1.11165 9.53679 1.47605 10.0879C4.75244 15.0195 8.98042 19.2475 13.9121 22.5239C14.4636 22.8886 15.124 23.0516 15.7818 22.9856C16.4396 22.9195 17.0544 22.6284 17.5224 22.1614L18.6368 21.0478C18.9955 20.6891 19.197 20.2025 19.197 19.6952C19.197 19.1879 18.9955 18.7013 18.6368 18.3425L16.6059 16.3155C16.2472 15.9568 15.7606 15.7553 15.2533 15.7553C14.746 15.7553 14.2594 15.9568 13.9006 16.3155L13.2243 16.9918C10.9549 15.1256 8.87242 13.0431 7.00626 10.7738L7.68642 10.1013Z" stroke="#191919" stroke-linecap="round" stroke-linejoin="round"/>
<path d="M23.0002 4.34817C23.0002 4.22131 22.9498 4.09965 22.8601 4.00995C22.7704 3.92025 22.6487 3.86986 22.5219 3.86986H20.1303V1.47831C20.1303 1.35145 20.0799 1.22979 19.9902 1.14009C19.9005 1.05039 19.7789 1 19.652 1H17.7388C17.6119 1 17.4903 1.05039 17.4006 1.14009C17.3109 1.22979 17.2605 1.35145 17.2605 1.47831V3.86986H14.8689C14.7421 3.86986 14.6204 3.92025 14.5307 4.00995C14.441 4.09965 14.3906 4.22131 14.3906 4.34817V6.26141C14.3906 6.38826 14.441 6.50992 14.5307 6.59962C14.6204 6.68932 14.7421 6.73972 14.8689 6.73972H17.2605V9.13126C17.2605 9.25812 17.3109 9.37978 17.4006 9.46948C17.4903 9.55918 17.6119 9.60957 17.7388 9.60957H19.652C19.7789 9.60957 19.9005 9.55918 19.9902 9.46948C20.0799 9.37978 20.1303 9.25812 20.1303 9.13126V6.73972H22.5219C22.6487 6.73972 22.7704 6.68932 22.8601 6.59962C22.9498 6.50992 23.0002 6.38826 23.0002 6.26141V4.34817Z" fill="#FF808C"/>
<path d="M19.652 1H17.7388C17.6119 1 17.4903 1.05039 17.4006 1.14009C17.3109 1.22979 17.2605 1.35145 17.2605 1.47831V3.86986H14.8689C14.7421 3.86986 14.6204 3.92025 14.5307 4.00995C14.441 4.09965 14.3906 4.22131 14.3906 4.34817V6.26141C14.3906 6.38826 14.441 6.50992 14.5307 6.59962C14.6204 6.68932 14.7421 6.73972 14.8689 6.73972H17.2098L20.1303 3.81916V1.47831C20.1303 1.35145 20.0799 1.22979 19.9902 1.14009C19.9005 1.05039 19.7789 1 19.652 1Z" fill="#FFBFC5"/>
<path d="M23.0002 4.34817C23.0002 4.22131 22.9498 4.09965 22.8601 4.00995C22.7704 3.92025 22.6487 3.86986 22.5219 3.86986H20.1303V1.47831C20.1303 1.35145 20.0799 1.22979 19.9902 1.14009C19.9005 1.05039 19.7789 1 19.652 1H17.7388C17.6119 1 17.4903 1.05039 17.4006 1.14009C17.3109 1.22979 17.2605 1.35145 17.2605 1.47831V3.86986H14.8689C14.7421 3.86986 14.6204 3.92025 14.5307 4.00995C14.441 4.09965 14.3906 4.22131 14.3906 4.34817V6.26141C14.3906 6.38826 14.441 6.50992 14.5307 6.59962C14.6204 6.68932 14.7421 6.73972 14.8689 6.73972H17.2605V9.13126C17.2605 9.25812 17.3109 9.37978 17.4006 9.46948C17.4903 9.55918 17.6119 9.60957 17.7388 9.60957H19.652C19.7789 9.60957 19.9005 9.55918 19.9902 9.46948C20.0799 9.37978 20.1303 9.25812 20.1303 9.13126V6.73972H22.5219C22.6487 6.73972 22.7704 6.68932 22.8601 6.59962C22.9498 6.50992 23.0002 6.38826 23.0002 6.26141V4.34817Z" stroke="#191919" stroke-linecap="round" stroke-linejoin="round"/>
</g>
<defs>
<clipPath id="clip0_5303_7964">
<rect width="24" height="24" fill="white"/>
</clipPath>
</defs>
</svg>
