<svg width="24" height="24" viewBox="0 0 24 24" fill="none" xmlns="http://www.w3.org/2000/svg">
<g clip-path="url(#clip0_5303_11731)">
<path d="M11.5211 19.9155C11.5213 20.2031 11.4567 20.4869 11.332 20.7459C11.2074 21.005 11.026 21.2327 10.8012 21.4119C10.5766 21.5913 10.3144 21.7176 10.0341 21.7816C9.75379 21.8457 9.46271 21.8457 9.18243 21.7817C7.27225 21.3461 5.52164 20.3859 4.12775 19.009C2.73386 17.6322 1.75208 15.8936 1.29297 13.9889C0.833857 12.0843 0.915659 10.0893 1.52916 8.22859C2.14266 6.36791 3.26349 4.71548 4.76541 3.45741C6.26734 2.19935 8.09069 1.38561 10.0301 1.10786C11.9695 0.83011 13.948 1.09938 15.7426 1.88533C17.5373 2.67129 19.0769 3.94272 20.188 5.55641C21.299 7.17011 21.9375 9.06198 22.0314 11.0189C22.0345 11.0837 22.0244 11.1483 22.0018 11.209C21.9792 11.2697 21.9444 11.3252 21.8997 11.3721C21.855 11.4189 21.8011 11.4562 21.7417 11.4817C21.6821 11.5071 21.6179 11.5202 21.5531 11.5201H15.3472C14.3324 11.5201 13.3593 11.9232 12.6418 12.6408C11.9242 13.3583 11.5211 14.3315 11.5211 15.3462V19.9155Z" fill="#FF808C"/>
<path d="M11.5219 5.78102C13.4615 5.78067 15.3636 6.31648 17.0178 7.32929C18.6721 8.34209 20.0142 9.79246 20.8958 11.5202H21.5529C21.6177 11.5203 21.6819 11.5072 21.7414 11.4817C21.801 11.4563 21.8548 11.419 21.8995 11.3721C21.9443 11.3252 21.979 11.2697 22.0016 11.209C22.0242 11.1484 22.0343 11.0836 22.0312 11.0189C21.9606 9.55906 21.5866 8.12991 20.9331 6.82256C20.2796 5.51522 19.3609 4.35837 18.2355 3.42575C17.1102 2.49313 15.8028 1.8052 14.3969 1.40582C12.9909 1.00643 11.5172 0.904344 10.0696 1.10606C8.62199 1.30778 7.2323 1.80888 5.98909 2.57743C4.74589 3.34598 3.67643 4.3651 2.8489 5.56985C2.02138 6.7746 1.45393 8.13854 1.18272 9.57475C0.911519 11.0109 0.94251 12.4879 1.27372 13.9115C1.81353 11.5985 3.12002 9.53619 4.98069 8.06001C6.84138 6.58383 9.14677 5.78062 11.5219 5.78102Z" fill="#FFBFC5"/>
<path d="M9.18146 21.7817C7.27137 21.3459 5.52089 20.3855 4.12715 19.0086C2.73341 17.6317 1.75178 15.893 1.29281 13.9884C0.833833 12.0838 0.915748 10.0888 1.52932 8.2282C2.1429 6.36761 3.26379 4.71527 4.76571 3.45728C6.26764 2.1993 8.09097 1.38565 10.0303 1.10795C11.9697 0.830249 13.9481 1.09954 15.7427 1.88549C17.5373 2.67144 19.0769 3.94283 20.1879 5.55648C21.299 7.17013 21.9374 9.06194 22.0314 11.0189C22.0345 11.0835 22.0244 11.1483 22.0018 11.2089C21.9791 11.2697 21.9444 11.3252 21.8997 11.372C21.855 11.4189 21.8011 11.4562 21.7416 11.4816C21.6821 11.5071 21.6179 11.5202 21.5531 11.5201H15.3472C14.3324 11.5201 13.3593 11.9232 12.6418 12.6408C11.9242 13.3582 11.5211 14.3314 11.5211 15.3462" stroke="#191919" stroke-linecap="round" stroke-linejoin="round"/>
<path d="M22.9997 20.1288H11.5215" stroke="#191919" stroke-linecap="round" stroke-linejoin="round"/>
<path d="M20.1303 17.2593V21.0854C20.1303 21.5927 19.9288 22.0793 19.57 22.4381C19.2112 22.7969 18.7246 22.9984 18.2173 22.9984H17.2607" stroke="#191919" stroke-linecap="round" stroke-linejoin="round"/>
<path d="M8.65256 18.6941C9.44497 18.6941 10.0873 18.0517 10.0873 17.2593C10.0873 16.4669 9.44497 15.8245 8.65256 15.8245C7.86014 15.8245 7.21777 16.4669 7.21777 17.2593C7.21777 18.0517 7.86014 18.6941 8.65256 18.6941Z" fill="#E3E3E3" stroke="#191919" stroke-linecap="round" stroke-linejoin="round"/>
<path d="M8.65234 15.8244V14.3896C8.65234 12.8675 9.257 11.4077 10.3333 10.3315C11.4096 9.25517 12.8694 8.65051 14.3915 8.65051H23.0002" stroke="#191919" stroke-linecap="round" stroke-linejoin="round"/>
<path d="M10.0866 17.2593H22.9996V21.0854C22.9996 21.5927 22.7981 22.0793 22.4393 22.4381C22.0805 22.7969 21.5939 22.9984 21.0866 22.9984H16.7698C16.0154 22.9985 15.2685 22.8499 14.5715 22.561C13.8746 22.2721 13.2415 21.8487 12.7084 21.3149L9.65234 18.2598" stroke="#191919" stroke-linecap="round" stroke-linejoin="round"/>
<path d="M16.3041 17.2593V21.0854C16.3039 21.4395 16.2055 21.7866 16.0198 22.088C15.834 22.3895 15.5682 22.6334 15.252 22.7928" stroke="#191919" stroke-linecap="round" stroke-linejoin="round"/>
</g>
<defs>
<clipPath id="clip0_5303_11731">
<rect width="24" height="24" fill="white"/>
</clipPath>
</defs>
</svg>
