<svg width="24" height="24" viewBox="0 0 24 24" fill="none" xmlns="http://www.w3.org/2000/svg">
<g clip-path="url(#clip0_5303_12369)">
<path d="M11.9998 17.7391C15.6978 17.7391 18.6955 14.7414 18.6955 11.0435C18.6955 7.34559 15.6978 4.34784 11.9998 4.34784C8.30195 4.34784 5.3042 7.34559 5.3042 11.0435C5.3042 14.7414 8.30195 17.7391 11.9998 17.7391Z" fill="#E3E3E3"/>
<path d="M12 12.9565C13.0565 12.9565 13.913 12.1 13.913 11.0435C13.913 9.98693 13.0565 9.13043 12 9.13043C10.9434 9.13043 10.0869 9.98693 10.0869 11.0435C10.0869 12.1 10.9434 12.9565 12 12.9565Z" fill="#B2B2B2" stroke="#191919" stroke-linecap="round" stroke-linejoin="round"/>
<path d="M12.0002 3.86956C12.7926 3.86956 13.435 3.22719 13.435 2.43478C13.435 1.64237 12.7926 1 12.0002 1C11.2078 1 10.5654 1.64237 10.5654 2.43478C10.5654 3.22719 11.2078 3.86956 12.0002 3.86956Z" fill="#FFEF5E" stroke="#191919" stroke-linecap="round" stroke-linejoin="round"/>
<path d="M3.39133 12.4783C4.18374 12.4783 4.82611 11.8359 4.82611 11.0435C4.82611 10.2511 4.18374 9.6087 3.39133 9.6087C2.59891 9.6087 1.95654 10.2511 1.95654 11.0435C1.95654 11.8359 2.59891 12.4783 3.39133 12.4783Z" fill="#FFEF5E" stroke="#191919" stroke-linecap="round" stroke-linejoin="round"/>
<path d="M20.6086 12.4783C21.401 12.4783 22.0434 11.8359 22.0434 11.0435C22.0434 10.2511 21.401 9.6087 20.6086 9.6087C19.8162 9.6087 19.1738 10.2511 19.1738 11.0435C19.1738 11.8359 19.8162 12.4783 20.6086 12.4783Z" fill="#FFEF5E" stroke="#191919" stroke-linecap="round" stroke-linejoin="round"/>
<path d="M11.2892 12.8207L7.21729 23" stroke="#191919" stroke-linecap="round" stroke-linejoin="round"/>
<path d="M12.7104 12.8207L16.7824 23" stroke="#191919" stroke-linecap="round" stroke-linejoin="round"/>
<path d="M3.39111 23H20.6085" stroke="#191919" stroke-linecap="round" stroke-linejoin="round"/>
<path d="M18.0876 6.39092C18.88 6.39092 19.5224 5.74854 19.5224 4.95614C19.5224 4.16373 18.88 3.52136 18.0876 3.52136C17.2952 3.52136 16.6528 4.16373 16.6528 4.95614C16.6528 5.74854 17.2952 6.39092 18.0876 6.39092Z" fill="#FFEF5E" stroke="#191919" stroke-linecap="round" stroke-linejoin="round"/>
<path d="M18.0876 18.5655C18.88 18.5655 19.5224 17.9231 19.5224 17.1308C19.5224 16.3384 18.88 15.696 18.0876 15.696C17.2952 15.696 16.6528 16.3384 16.6528 17.1308C16.6528 17.9231 17.2952 18.5655 18.0876 18.5655Z" fill="#FFEF5E" stroke="#191919" stroke-linecap="round" stroke-linejoin="round"/>
<path d="M5.91281 6.39092C6.70522 6.39092 7.34759 5.74854 7.34759 4.95614C7.34759 4.16373 6.70522 3.52136 5.91281 3.52136C5.1204 3.52136 4.47803 4.16373 4.47803 4.95614C4.47803 5.74854 5.1204 6.39092 5.91281 6.39092Z" fill="#FFEF5E" stroke="#191919" stroke-linecap="round" stroke-linejoin="round"/>
<path d="M5.91281 18.5655C6.70522 18.5655 7.34759 17.9231 7.34759 17.1308C7.34759 16.3384 6.70522 15.696 5.91281 15.696C5.1204 15.696 4.47803 16.3384 4.47803 17.1308C4.47803 17.9231 5.1204 18.5655 5.91281 18.5655Z" fill="#FFEF5E" stroke="#191919" stroke-linecap="round" stroke-linejoin="round"/>
<path d="M10.5654 19.5326C11.5154 19.6921 12.4851 19.6921 13.435 19.5326" stroke="#191919" stroke-linecap="round" stroke-linejoin="round"/>
<path d="M4.98617 6.05139C4.22951 7.1113 3.72473 8.32992 3.51025 9.61443" stroke="#191919" stroke-linecap="round" stroke-linejoin="round"/>
<path d="M10.5713 2.55341C9.28677 2.76768 8.06812 3.27248 7.0083 4.02932" stroke="#191919" stroke-linecap="round" stroke-linejoin="round"/>
<path d="M16.9918 4.02932C15.9319 3.27248 14.7133 2.76768 13.4287 2.55341" stroke="#191919" stroke-linecap="round" stroke-linejoin="round"/>
<path d="M20.4901 9.61443C20.2756 8.32992 19.7709 7.1113 19.0142 6.05139" stroke="#191919" stroke-linecap="round" stroke-linejoin="round"/>
<path d="M19.0142 16.0356C19.77 14.9774 20.2748 13.7608 20.4901 12.4783" stroke="#191919" stroke-linecap="round" stroke-linejoin="round"/>
<path d="M15.1978 19.0381C15.833 18.7838 16.4354 18.4544 16.9922 18.0567" stroke="#191919" stroke-linecap="round" stroke-linejoin="round"/>
<path d="M7.0083 18.0567C7.56507 18.4544 8.16752 18.7838 8.80274 19.0381" stroke="#191919" stroke-linecap="round" stroke-linejoin="round"/>
<path d="M3.51025 12.4783C3.7249 13.7624 4.22967 14.9807 4.98617 16.0403" stroke="#191919" stroke-linecap="round" stroke-linejoin="round"/>
</g>
<defs>
<clipPath id="clip0_5303_12369">
<rect width="24" height="24" fill="white"/>
</clipPath>
</defs>
</svg>
