<svg width="24" height="24" viewBox="0 0 24 24" fill="none" xmlns="http://www.w3.org/2000/svg">
<g clip-path="url(#clip0_5303_12616)">
<path d="M3.87238 1.00189L1.29027 2.03574C1.20669 2.07144 1.13501 2.13019 1.08367 2.20524C1.03232 2.2802 1.00337 2.36827 1.00028 2.45907C0.997182 2.54986 1.02005 2.63972 1.06615 2.71805C1.11225 2.79628 1.17971 2.8599 1.26066 2.90122L3.87238 4.15789V1.00189Z" fill="#FFEF5E"/>
<path d="M21.0874 19.1726H2.91664C1.86021 19.1726 1.00391 20.029 1.00391 21.0854C1.00391 22.1417 1.86021 22.9981 2.91664 22.9981H21.0874C22.1437 22.9981 23.0001 22.1418 23.0001 21.0854C23.0001 20.0289 22.1437 19.1726 21.0874 19.1726Z" fill="#808080"/>
<path d="M23.0001 21.0854C22.9985 20.5786 22.7966 20.0929 22.4382 19.7345C22.0798 19.3761 21.5941 19.1742 21.0874 19.1726H2.91664C2.40983 19.1742 1.9242 19.3761 1.56581 19.7345C1.20742 20.0929 1.00541 20.5786 1.00391 21.0854H23.0001Z" fill="#B2B2B2"/>
<path d="M21.0874 19.1726H2.91664C1.86021 19.1726 1.00391 20.029 1.00391 21.0854C1.00391 22.1417 1.86021 22.9981 2.91664 22.9981H21.0874C22.1437 22.9981 23.0001 22.1418 23.0001 21.0854C23.0001 20.0289 22.1437 19.1726 21.0874 19.1726Z" stroke="#191919" stroke-linecap="round" stroke-linejoin="round"/>
<path d="M2.91602 19.1726V12C2.91602 11.8732 2.96633 11.7515 3.056 11.6618C3.14567 11.5722 3.26738 11.5219 3.39415 11.5219H4.82866C5.33594 11.5219 5.82251 11.7233 6.18118 12.0821C6.53985 12.4407 6.74139 12.9273 6.74139 13.4345V14.3909C6.74139 14.6445 6.84212 14.8878 7.02155 15.0671C7.20089 15.2464 7.44412 15.3472 7.69776 15.3472H13.4359C13.6895 15.3472 13.9328 15.2464 14.1121 15.0671C14.2913 14.8877 14.3922 14.6445 14.3922 14.3909V12.9564C14.3922 12.8295 14.4427 12.7079 14.5322 12.6182C14.622 12.5285 14.7436 12.4781 14.8704 12.4781C16.5191 12.4781 18.1002 13.1331 19.266 14.2989C20.4318 15.4646 21.0867 17.0458 21.0867 18.6945V19.1726H2.91602Z" fill="#FFBFC5"/>
<path d="M2.91602 17.26V19.1726H21.0867V18.6945C21.0871 18.2114 21.0313 17.7301 20.9203 17.26H2.91602Z" fill="#FF808C"/>
<path d="M2.91602 19.1726V12C2.91602 11.8732 2.96633 11.7515 3.056 11.6618C3.14567 11.5722 3.26738 11.5219 3.39415 11.5219H4.82866C5.33594 11.5219 5.82251 11.7233 6.18118 12.0821C6.53985 12.4407 6.74139 12.9273 6.74139 13.4345V14.3909C6.74139 14.6445 6.84212 14.8878 7.02155 15.0671C7.20089 15.2464 7.44412 15.3472 7.69776 15.3472H13.4359C13.6895 15.3472 13.9328 15.2464 14.1121 15.0671C14.2913 14.8877 14.3922 14.6445 14.3922 14.3909V12.9564C14.3922 12.8295 14.4427 12.7079 14.5322 12.6182C14.622 12.5285 14.7436 12.4781 14.8704 12.4781C16.5191 12.4781 18.1002 13.1331 19.266 14.2989C20.4318 15.4646 21.0867 17.0458 21.0867 18.6945V19.1726H2.91602Z" stroke="#191919" stroke-linecap="round" stroke-linejoin="round"/>
<path d="M3.87238 11.5219V1.00189L1.29027 2.03574C1.20669 2.07144 1.13501 2.13019 1.08367 2.20524C1.03232 2.2802 1.00337 2.36827 1.00028 2.45907C0.997182 2.54986 1.02005 2.63972 1.06615 2.71805C1.11225 2.79628 1.17971 2.8599 1.26066 2.90122L3.87238 4.15789" stroke="#191919" stroke-linecap="round" stroke-linejoin="round"/>
<path d="M13.7101 15.307L11.103 12.7" stroke="#191919" stroke-linecap="round" stroke-linejoin="round"/>
<path d="M10.0894 13.7147L12.1178 11.6863" stroke="#191919" stroke-linecap="round" stroke-linejoin="round"/>
</g>
<defs>
<clipPath id="clip0_5303_12616">
<rect width="24" height="24" fill="white"/>
</clipPath>
</defs>
</svg>
