<svg width="24" height="24" viewBox="0 0 24 24" fill="none" xmlns="http://www.w3.org/2000/svg">
<g clip-path="url(#clip0_5303_8716)">
<path d="M13.4346 10.0869C13.4346 10.2138 13.485 10.3355 13.5746 10.4252C13.6643 10.5148 13.786 10.5652 13.9128 10.5652H22.9998C22.9998 8.02836 21.992 5.59541 20.1982 3.80158C18.4044 2.00776 15.9715 1 13.4346 1V10.0869Z" fill="#FF808C" stroke="#191919" stroke-linecap="round" stroke-linejoin="round"/>
<path d="M20.2027 19.2418C21.0915 18.3543 21.7962 17.2999 22.2762 16.1392C22.7562 14.9784 23.002 13.7343 22.9996 12.4783H13.9127C13.6496 12.4783 13.5865 12.6304 13.7721 12.8159L20.2027 19.2418Z" fill="#C9F7CA"/>
<path d="M20.6083 12.4783C20.3548 14.3044 19.5762 16.0174 18.3672 17.4091L20.2008 19.2418C21.09 18.3545 21.795 17.3001 22.2752 16.1394C22.7556 14.9786 23.0017 13.7345 22.9996 12.4783H20.6083Z" fill="#78EB7B"/>
<path d="M20.2027 19.2418C21.0915 18.3543 21.7962 17.2999 22.2762 16.1392C22.7562 14.9784 23.002 13.7343 22.9996 12.4783H13.9127C13.6496 12.4783 13.5865 12.6304 13.7721 12.8159L20.2027 19.2418Z" stroke="#191919" stroke-linecap="round" stroke-linejoin="round"/>
<path d="M10.5653 3.86951C8.99232 3.86949 7.44358 4.2574 6.05629 4.99891C4.66901 5.7404 3.486 6.8126 2.61207 8.1205C1.73814 9.42841 1.20026 10.9317 1.04607 12.4971C0.891874 14.0626 1.12614 15.6419 1.7281 17.0951C2.33007 18.5485 3.28116 19.8308 4.49711 20.8287C5.71307 21.8267 7.15637 22.5092 8.69917 22.8162C10.2419 23.123 11.8367 23.0447 13.3419 22.588C14.8472 22.1314 16.2167 21.3106 17.3289 20.1983L10.903 13.7724C10.701 13.5467 10.5819 13.2589 10.5653 12.9565V3.86951Z" fill="#FFF9BF"/>
<path d="M5.78217 17.959C4.60483 17.2791 3.58621 16.3557 2.79443 15.2505C2.00265 14.1453 1.45594 12.8838 1.19087 11.5503C0.788743 13.5624 1.04429 15.6505 1.91979 17.5062C2.79528 19.3619 4.24431 20.8869 6.0529 21.856C7.8615 22.8251 9.93378 23.1869 11.9638 22.8881C13.9938 22.5892 15.8738 21.6455 17.3264 20.1963L15.1762 18.0451C13.7354 18.8408 12.1137 19.251 10.4679 19.2359C8.82207 19.2208 7.20807 18.781 5.78217 17.959Z" fill="#FFEF5E"/>
<path d="M10.5653 3.86951C8.99232 3.86949 7.44358 4.2574 6.05629 4.99891C4.66901 5.7404 3.486 6.8126 2.61207 8.1205C1.73814 9.42841 1.20026 10.9317 1.04607 12.4971C0.891874 14.0626 1.12614 15.6419 1.7281 17.0951C2.33007 18.5485 3.28116 19.8308 4.49711 20.8287C5.71307 21.8267 7.15637 22.5092 8.69917 22.8162C10.2419 23.123 11.8367 23.0447 13.3419 22.588C14.8472 22.1314 16.2167 21.3106 17.3289 20.1983L10.903 13.7724C10.701 13.5467 10.5819 13.2589 10.5653 12.9565V3.86951Z" stroke="#191919" stroke-linecap="round" stroke-linejoin="round"/>
</g>
<defs>
<clipPath id="clip0_5303_8716">
<rect width="24" height="24" fill="white"/>
</clipPath>
</defs>
</svg>
