<svg width="24" height="24" viewBox="0 0 24 24" fill="none" xmlns="http://www.w3.org/2000/svg">
<g clip-path="url(#clip0_5303_8806)">
<path d="M7.11124 13.0668V20.6242C7.10192 20.7737 7.06145 20.9197 6.99243 21.0527C6.9234 21.1857 6.82733 21.3028 6.7104 21.3965L4.57907 22.8826C4.45956 22.9595 4.32035 23.0003 4.17822 22.9999V14.5235L7.0037 12.6464C7.06431 12.7793 7.10146 12.9211 7.11124 13.0668Z" fill="#FFEF5E" stroke="#191919" stroke-linecap="round" stroke-linejoin="round"/>
<path d="M7.00348 12.6464L4.178 14.5236L1.3623 12.6464C1.42948 12.5094 1.53041 12.3916 1.65561 12.3043L3.76738 10.8866C3.89223 10.8146 4.03384 10.7766 4.178 10.7766C4.32216 10.7766 4.46378 10.8146 4.58863 10.8866L6.71018 12.3043C6.83043 12.3971 6.93015 12.5135 7.00348 12.6464Z" fill="#FFDDA1" stroke="#191919" stroke-linecap="round" stroke-linejoin="round"/>
<path d="M4.17814 14.5235V22.9999C4.036 23.0003 3.8968 22.9595 3.77729 22.8826L1.64596 21.3965C1.52898 21.3029 1.43288 21.1858 1.36385 21.0527C1.29482 20.9197 1.25437 20.7737 1.24512 20.6242V13.0668C1.25489 12.9201 1.294 12.7764 1.36244 12.6464L4.17814 14.5235Z" fill="#FFBC44" stroke="#191919" stroke-linecap="round" stroke-linejoin="round"/>
<path d="M11.9999 9.14642V23C11.8578 23.0005 11.7186 22.9597 11.5991 22.8827L9.46774 21.3967C9.35076 21.303 9.25466 21.1859 9.18563 21.0529C9.1166 20.9199 9.07615 20.7739 9.06689 20.6243V7.68969C9.07667 7.54304 9.11579 7.39932 9.18423 7.26929L11.9999 9.14642Z" fill="#FFBC44" stroke="#191919" stroke-linecap="round" stroke-linejoin="round"/>
<path d="M14.933 7.68969V20.6243C14.9237 20.7739 14.8832 20.9198 14.8142 21.0528C14.7452 21.1858 14.6491 21.303 14.5322 21.3967L12.4008 22.8827C12.2814 22.9597 12.1421 23.0005 12 23V9.14642L14.8255 7.26929C14.8861 7.40225 14.9232 7.54401 14.933 7.68969Z" fill="#FFEF5E" stroke="#191919" stroke-linecap="round" stroke-linejoin="round"/>
<path d="M14.8253 7.26929L11.9998 9.14642L9.18408 7.26929C9.2513 7.13223 9.35222 7.01449 9.47738 6.9271L11.5989 5.50948C11.722 5.43748 11.8621 5.39954 12.0047 5.39954C12.1473 5.39954 12.2873 5.43748 12.4104 5.50948L14.532 6.9271C14.6522 7.01998 14.7519 7.13632 14.8253 7.26929Z" fill="#FFDDA1" stroke="#191919" stroke-linecap="round" stroke-linejoin="round"/>
<path d="M22.647 2.86975L19.8216 4.74688L17.0059 2.86975C17.0731 2.73272 17.174 2.61499 17.2992 2.52757L19.4207 1.10994C19.5438 1.03795 19.6838 1 19.8264 1C19.969 1 20.1091 1.03795 20.2322 1.10994L22.3537 2.52757C22.474 2.62045 22.5737 2.73679 22.647 2.86975Z" fill="#FFDDA1" stroke="#191919" stroke-linecap="round" stroke-linejoin="round"/>
<path d="M19.8217 4.74688V23C19.6796 23.0004 19.5403 22.9597 19.4208 22.8827L17.2895 21.3967C17.1726 21.3029 17.0765 21.1858 17.0075 21.0528C16.9385 20.9198 16.898 20.7739 16.8887 20.6243V3.29015C16.8984 3.1435 16.9376 2.99978 17.006 2.86975L19.8217 4.74688Z" fill="#FFBC44" stroke="#191919" stroke-linecap="round" stroke-linejoin="round"/>
<path d="M22.7543 3.29015V20.6243C22.745 20.7739 22.7045 20.9198 22.6355 21.0528C22.5665 21.1858 22.4704 21.3029 22.3535 21.3967L20.2221 22.8827C20.1026 22.9597 19.9634 23.0004 19.8213 23V4.74688L22.6468 2.86975C22.7074 3.00271 22.7445 3.14448 22.7543 3.29015Z" fill="#FFEF5E" stroke="#191919" stroke-linecap="round" stroke-linejoin="round"/>
</g>
<defs>
<clipPath id="clip0_5303_8806">
<rect width="24" height="24" fill="white"/>
</clipPath>
</defs>
</svg>
