<svg width="24" height="24" viewBox="0 0 24 24" fill="none" xmlns="http://www.w3.org/2000/svg">
<path d="M3.39111 18.6956C4.06191 18.6947 4.71121 18.4588 5.22617 18.0289C5.74114 17.5991 6.08924 17.0024 6.20998 16.3426L7.35781 10.0573C7.4584 9.53304 7.73851 9.06026 8.14999 8.72024C8.56146 8.38022 9.07855 8.19421 9.61233 8.19421C10.1461 8.19421 10.6632 8.38022 11.0747 8.72024C11.4862 9.06026 11.7662 9.53304 11.8669 10.0573L13.0147 16.3426C13.1352 17.0012 13.4821 17.5968 13.9956 18.0265C14.509 18.4562 15.1564 18.693 15.8259 18.6956" fill="#FF808C"/>
<path d="M8.17383 18.6956C8.84463 18.6947 9.49392 18.4588 10.0089 18.0289C10.5238 17.5991 10.872 17.0024 10.9927 16.3426L12.1405 10.0573C12.2411 9.53304 12.5212 9.06026 12.9327 8.72024C13.3442 8.38022 13.8613 8.19421 14.395 8.19421C14.9288 8.19421 15.4459 8.38022 15.8574 8.72024C16.2689 9.06026 16.5489 9.53304 16.6496 10.0573L17.7974 16.3426C17.9179 17.0012 18.2648 17.5968 18.7783 18.0265C19.2917 18.4562 19.9391 18.693 20.6086 18.6956" fill="#78EB7B"/>
<path d="M8.17383 18.6956C8.84463 18.6947 9.49392 18.4588 10.0089 18.0289C10.5238 17.5991 10.872 17.0024 10.9927 16.3426L12.1405 10.0573C12.2411 9.53304 12.5212 9.06026 12.9327 8.72024C13.3442 8.38022 13.8613 8.19421 14.395 8.19421C14.9288 8.19421 15.4459 8.38022 15.8574 8.72024C16.2689 9.06026 16.5489 9.53304 16.6496 10.0573L17.7974 16.3426C17.9179 17.0012 18.2648 17.5968 18.7783 18.0265C19.2917 18.4562 19.9391 18.693 20.6086 18.6956" stroke="#191919" stroke-linecap="round" stroke-linejoin="round"/>
<path d="M23 21.5652H1.47826C1.35142 21.5652 1.22977 21.5148 1.14008 21.4252C1.05039 21.3355 1 21.2138 1 21.087V2.43481" stroke="#191919" stroke-linecap="round" stroke-linejoin="round"/>
<path d="M12.8335 15.3668C13.0076 16.3233 13.2716 18.6955 15.8255 18.6955" stroke="#191919" stroke-linecap="round" stroke-linejoin="round"/>
<path d="M3.39111 18.6956C4.06191 18.6947 4.71121 18.4588 5.22617 18.029C5.74114 17.5991 6.08924 17.0024 6.20998 16.3425L7.35781 10.0572C7.4284 9.67275 7.59601 9.31265 7.84475 9.01109C8.0935 8.70952 8.41513 8.47646 8.77916 8.334C9.1432 8.19155 9.53759 8.14441 9.92494 8.19707C10.3123 8.24973 10.6798 8.40043 10.9926 8.6349" stroke="#191919" stroke-linecap="round" stroke-linejoin="round"/>
</svg>
