<svg width="24" height="24" viewBox="0 0 24 24" fill="none" xmlns="http://www.w3.org/2000/svg">
<path d="M22.4763 5.7038V20.9047C22.4746 21.4599 22.2533 21.9918 21.8608 22.3845C21.4681 22.777 20.9362 22.9983 20.381 23H3.61916C3.06347 23 2.53054 22.7792 2.13761 22.3863C1.74467 21.9933 1.52393 21.4604 1.52393 20.9047V14.619L5.34773 10.4076C5.76949 9.98133 6.30954 9.6915 6.89791 9.57569C7.48628 9.45989 8.09588 9.52343 8.64772 9.75807L10.1039 10.46C10.6788 10.6962 11.3044 10.7828 11.9218 10.7113C12.5394 10.6399 13.1286 10.4127 13.6344 10.0514L15.5934 8.47998C16.7005 7.66029 17.9361 7.03013 19.2496 6.61522L22.4763 5.7038Z" fill="#78EB7B" stroke="#191919" stroke-linecap="round" stroke-linejoin="round"/>
<path d="M22.4763 3.09525V5.70381L19.2496 6.61524C17.9361 7.03016 16.7005 7.66031 15.5934 8.48L13.6344 10.0514C13.1286 10.4128 12.5394 10.6399 11.9218 10.7113C11.3044 10.7828 10.6788 10.6963 10.1039 10.46L8.64774 9.75809C8.09589 9.52345 7.48629 9.45991 6.89792 9.57571C6.30955 9.69153 5.7695 9.98133 5.34774 10.4076L1.52394 14.619V3.09525C1.52297 2.81983 1.57651 2.54693 1.68146 2.29229C1.78641 2.03765 1.9407 1.80629 2.13546 1.61154C2.33022 1.41678 2.56157 1.26248 2.81622 1.15753C3.07086 1.05258 3.34375 0.999052 3.61917 1.00001H20.381C20.9367 1.00001 21.4697 1.22077 21.8626 1.6137C22.2555 2.00663 22.4763 2.53956 22.4763 3.09525Z" fill="#C9F7CA" stroke="#191919" stroke-linecap="round" stroke-linejoin="round"/>
<path d="M6.76123 9.60718V22.9999" stroke="#191919" stroke-linecap="round" stroke-linejoin="round"/>
<path d="M12 10.7073V23" stroke="#191919" stroke-linecap="round" stroke-linejoin="round"/>
<path d="M17.2383 7.44922V22.9927" stroke="#191919" stroke-linecap="round" stroke-linejoin="round"/>
<path d="M1.52393 14.6191H22.4763" stroke="#191919" stroke-linecap="round" stroke-linejoin="round"/>
<path d="M13.0132 10.4285H22.4763" stroke="#191919" stroke-linecap="round" stroke-linejoin="round"/>
<path d="M1.52393 18.8094H22.4763" stroke="#191919" stroke-linecap="round" stroke-linejoin="round"/>
</svg>
