<svg width="24" height="24" viewBox="0 0 24 24" fill="none" xmlns="http://www.w3.org/2000/svg">
<path d="M1 4.82603C1 4.57234 1.10078 4.32905 1.28016 4.14966C1.45954 3.97029 1.70283 3.86951 1.95652 3.86951H22.0435C22.2971 3.86951 22.5405 3.97029 22.7198 4.14966C22.8992 4.32905 23 4.57234 23 4.82603V19.1739C23 19.4275 22.8992 19.6709 22.7198 19.8502C22.5405 20.0296 22.2971 20.1304 22.0435 20.1304H1.95652C1.70283 20.1304 1.45954 20.0296 1.28016 19.8502C1.10078 19.6709 1 19.4275 1 19.1739V4.82603Z" fill="#FFEF5E"/>
<path d="M1.95652 3.86951C1.70283 3.86951 1.45954 3.97029 1.28016 4.14966C1.10078 4.32905 1 4.57234 1 4.82603V19.1739C1.00205 19.3223 1.03916 19.4681 1.10832 19.5994C1.17747 19.7307 1.27671 19.8438 1.39791 19.9295L17.4579 3.86951H1.95652Z" fill="#FFF9BF"/>
<path d="M4.82568 15.3476L7.2849 11.2489C7.32736 11.178 7.38749 11.1193 7.45941 11.0785C7.53132 11.0377 7.61258 11.0163 7.69525 11.0163C7.77792 11.0163 7.85918 11.0377 7.93109 11.0785C8.00301 11.1193 8.06314 11.178 8.1056 11.2489L10.2186 14.7737C10.2578 14.8392 10.3122 14.8943 10.3771 14.9345C10.4421 14.9747 10.5156 14.9988 10.5918 15.0046C10.6679 15.0106 10.7444 14.9981 10.8148 14.9685C10.8851 14.9387 10.9473 14.8926 10.9962 14.834L12.5888 12.9209C12.6337 12.8671 12.6898 12.8238 12.7533 12.7941C12.8168 12.7644 12.886 12.749 12.9561 12.749C13.0262 12.749 13.0954 12.7644 13.1589 12.7941C13.2224 12.8238 13.2786 12.8671 13.3234 12.9209L14.9065 14.8206C14.9559 14.8799 15.019 14.9263 15.0902 14.9559C15.1615 14.9855 15.2389 14.9974 15.3157 14.9907C15.3926 14.984 15.4666 14.9586 15.5316 14.917C15.5966 14.8754 15.6505 14.8187 15.6889 14.7517L19.1735 8.65198" stroke="#191919" stroke-linecap="round" stroke-linejoin="round"/>
<path d="M1 4.82603C1 4.57234 1.10078 4.32905 1.28016 4.14966C1.45954 3.97029 1.70283 3.86951 1.95652 3.86951H22.0435C22.2971 3.86951 22.5405 3.97029 22.7198 4.14966C22.8992 4.32905 23 4.57234 23 4.82603V19.1739C23 19.4275 22.8992 19.6709 22.7198 19.8502C22.5405 20.0296 22.2971 20.1304 22.0435 20.1304H1.95652C1.70283 20.1304 1.45954 20.0296 1.28016 19.8502C1.10078 19.6709 1 19.4275 1 19.1739V4.82603Z" stroke="#191919" stroke-linecap="round" stroke-linejoin="round"/>
</svg>
