<svg width="24" height="24" viewBox="0 0 24 24" fill="none" xmlns="http://www.w3.org/2000/svg">
<g clip-path="url(#clip0_5303_8816)">
<path d="M1 11.7322V1.23914" stroke="#191919" stroke-linecap="round" stroke-linejoin="round"/>
<path d="M23 2.19568V9.83829L16.6391 12.4592C15.4601 12.9044 14.2161 13.1532 12.9565 13.1957H10.5652C9.31841 13.2418 8.09704 13.5618 6.98783 14.1331L1 17.5V11.7322L7.93478 7.90611C9.02132 7.38047 10.2612 7.26498 11.4261 7.5809L14.9748 8.76698C15.5151 8.9142 16.085 8.91376 16.625 8.7657C17.1651 8.61765 17.6555 8.3274 18.0452 7.92524L23 2.19568Z" fill="#FFEF5E"/>
<path d="M23 9.83826V15.587L16.7443 17.06C15.5025 17.318 14.2326 17.4145 12.9661 17.347L10.5652 17.1652C9.33716 17.1349 8.12699 17.464 7.08348 18.1122L1 22.3113V17.5L6.98783 14.133C8.09704 13.5618 9.31841 13.2418 10.5652 13.1956H12.9565C14.2161 13.1532 15.4601 12.9044 16.6391 12.4591L23 9.83826Z" fill="#FF808C"/>
<path d="M23 15.587V22.2826C23 22.3454 22.9876 22.4076 22.9636 22.4656C22.9396 22.5237 22.9043 22.5764 22.8599 22.6208C22.8155 22.6652 22.7628 22.7004 22.7048 22.7245C22.6467 22.7485 22.5845 22.7609 22.5217 22.7609H1.47826C1.3569 22.7589 1.24065 22.7117 1.15221 22.6286C1.06377 22.5454 1.0095 22.4323 1 22.3113L7.08348 18.1122C8.12699 17.464 9.33716 17.1349 10.5652 17.1652L12.9661 17.347C14.2326 17.4145 15.5025 17.318 16.7443 17.06L23 15.587Z" fill="#66E1FF"/>
<path d="M18.0452 7.92524C17.6555 8.3274 17.1651 8.61765 16.625 8.7657C16.085 8.91376 15.5151 8.9142 14.9748 8.76698L11.4261 7.5809C10.2612 7.26498 9.02132 7.38047 7.93478 7.90611L1 11.7322V13.6452L7.93478 9.81916C9.02132 9.29351 10.2612 9.17802 11.4261 9.49394L14.9748 10.6791C15.515 10.8268 16.0851 10.8266 16.6252 10.6785C17.1654 10.5305 17.6558 10.2399 18.0452 9.83733L23 4.10872V2.19568L18.0452 7.92524Z" fill="#FFF9BF"/>
<path d="M16.6391 12.4591C15.4601 12.9044 14.2161 13.1532 12.9565 13.1956H10.5652C9.31841 13.2417 8.09704 13.5618 6.98783 14.133L1 17.5V19.413L6.98783 16.0451C8.09728 15.4746 9.31855 15.155 10.5652 15.1087H12.9565C14.2161 15.0655 15.4601 14.8163 16.6391 14.3712L23 11.7503V9.83728L16.6391 12.4591Z" fill="#FFBFC5"/>
<path d="M16.7443 17.06C15.5025 17.318 14.2326 17.4145 12.9661 17.347L10.5652 17.1652C9.33716 17.1349 8.12699 17.464 7.08348 18.1122L1 22.3113C1.0095 22.4323 1.06377 22.5454 1.15221 22.6286C1.24065 22.7117 1.3569 22.7589 1.47826 22.7609H3.11965L7.08348 20.0252C8.12704 19.3772 9.33717 19.048 10.5652 19.0783L12.9661 19.261C14.2326 19.3285 15.5025 19.232 16.7443 18.974L23 17.5V15.587L16.7443 17.06Z" fill="#C2F3FF"/>
<path d="M23 2.19568V9.83829L16.6391 12.4592C15.4601 12.9044 14.2161 13.1532 12.9565 13.1957H10.5652C9.31841 13.2418 8.09704 13.5618 6.98783 14.1331L1 17.5V11.7322L7.93478 7.90611C9.02132 7.38047 10.2612 7.26498 11.4261 7.5809L14.9748 8.76698C15.5151 8.9142 16.085 8.91376 16.625 8.7657C17.1651 8.61765 17.6555 8.3274 18.0452 7.92524L23 2.19568Z" stroke="#191919" stroke-linecap="round" stroke-linejoin="round"/>
<path d="M23 9.83826V15.587L16.7443 17.06C15.5025 17.318 14.2326 17.4145 12.9661 17.347L10.5652 17.1652C9.33716 17.1349 8.12699 17.464 7.08348 18.1122L1 22.3113V17.5L6.98783 14.133C8.09704 13.5618 9.31841 13.2418 10.5652 13.1956H12.9565C14.2161 13.1532 15.4601 12.9044 16.6391 12.4591L23 9.83826Z" stroke="#191919" stroke-linecap="round" stroke-linejoin="round"/>
<path d="M23 15.587V22.2826C23 22.3454 22.9876 22.4076 22.9636 22.4656C22.9396 22.5237 22.9043 22.5764 22.8599 22.6208C22.8155 22.6652 22.7628 22.7004 22.7048 22.7245C22.6467 22.7485 22.5845 22.7609 22.5217 22.7609H1.47826C1.3569 22.7589 1.24065 22.7117 1.15221 22.6286C1.06377 22.5454 1.0095 22.4323 1 22.3113L7.08348 18.1122C8.12699 17.464 9.33716 17.1349 10.5652 17.1652L12.9661 17.347C14.2326 17.4145 15.5025 17.318 16.7443 17.06L23 15.587Z" stroke="#191919" stroke-linecap="round" stroke-linejoin="round"/>
</g>
<defs>
<clipPath id="clip0_5303_8816">
<rect width="24" height="24" fill="white"/>
</clipPath>
</defs>
</svg>
