<svg width="24" height="24" viewBox="0 0 24 24" fill="none" xmlns="http://www.w3.org/2000/svg">
<path d="M4.84863 21.8998C4.84863 22.1916 4.96453 22.4714 5.17088 22.6778C5.37723 22.884 5.65704 23 5.94884 23H18.0513C18.3431 23 18.6229 22.884 18.8292 22.6778C19.0356 22.4715 19.1515 22.1916 19.1515 21.8998V10.8976H4.84863V21.8998Z" fill="#78EB7B"/>
<path d="M12.0001 10.8976H4.84863V21.8998C4.84863 22.1916 4.96453 22.4714 5.17088 22.6778C5.37723 22.884 5.65704 23 5.94884 23H12.0001V10.8976Z" fill="#C9F7CA"/>
<path d="M4.84863 21.8998C4.84863 22.1916 4.96453 22.4714 5.17088 22.6778C5.37723 22.884 5.65704 23 5.94884 23H18.0513C18.3431 23 18.6229 22.884 18.8292 22.6778C19.0356 22.4715 19.1515 22.1916 19.1515 21.8998V10.8976H4.84863V21.8998Z" stroke="#191919" stroke-linecap="round" stroke-linejoin="round"/>
<path d="M1.54779 21.3497V12.548C1.51587 12.3237 1.5365 12.0952 1.60809 11.8804C1.67979 11.6655 1.8004 11.4704 1.96049 11.3103C2.12058 11.1501 2.31583 11.0295 2.53063 10.9579C2.74542 10.8863 2.97397 10.8655 3.19819 10.8976H4.8485" stroke="#191919" stroke-linecap="round" stroke-linejoin="round"/>
<path d="M22.4525 21.3497V12.548C22.4845 12.3237 22.4639 12.0952 22.3922 11.8804C22.3206 11.6655 22.2 11.4704 22.0398 11.3103C21.8798 11.1501 21.6845 11.0295 21.4696 10.9579C21.2549 10.8863 21.0264 10.8655 20.8022 10.8976H19.1519" stroke="#191919" stroke-linecap="round" stroke-linejoin="round"/>
<path d="M10.878 3.27967L8.74023 1" stroke="#191919" stroke-linecap="round" stroke-linejoin="round"/>
<path d="M13.1353 3.27967L15.2729 1" stroke="#191919" stroke-linecap="round" stroke-linejoin="round"/>
<path d="M18.4176 8.69722C18.5056 8.69722 18.5923 8.6762 18.6704 8.63584C18.7487 8.59547 18.8159 8.53693 18.8668 8.46514C18.9176 8.39334 18.9505 8.31045 18.9628 8.22333C18.9749 8.13622 18.966 8.04743 18.9368 7.96444C18.4276 6.54337 17.4843 5.31833 16.2406 4.46268C14.9971 3.60694 13.5159 3.16389 12.0066 3.1961C10.4934 3.15977 9.00731 3.60173 7.75979 4.45905C6.51226 5.31637 5.56714 6.54533 5.05868 7.97102C5.03079 8.05372 5.02293 8.14191 5.0358 8.22824C5.04866 8.31457 5.08196 8.39658 5.13274 8.46749C5.18361 8.5385 5.25059 8.59625 5.32828 8.63623C5.40587 8.6762 5.49181 8.69702 5.57912 8.69722H18.4176Z" fill="#78EB7B"/>
<path d="M12 3.19615C10.4879 3.16108 9.00319 3.60364 7.75704 4.46086C6.51089 5.31808 5.56665 6.54636 5.05868 7.97106C5.03079 8.05376 5.02293 8.14196 5.0358 8.22829C5.04866 8.31462 5.08196 8.39663 5.13274 8.46754C5.18361 8.53855 5.25059 8.5964 5.32828 8.63627C5.40587 8.67624 5.49181 8.69707 5.57912 8.69726H12V3.19615Z" fill="#C9F7CA"/>
<path d="M18.4176 8.69722C18.5056 8.69722 18.5923 8.6762 18.6704 8.63584C18.7487 8.59547 18.8159 8.53693 18.8668 8.46514C18.9176 8.39334 18.9505 8.31045 18.9628 8.22333C18.9749 8.13622 18.966 8.04743 18.9368 7.96444C18.4276 6.54337 17.4843 5.31833 16.2406 4.46268C14.9971 3.60694 13.5159 3.16389 12.0066 3.1961C10.4934 3.15977 9.00731 3.60173 7.75979 4.45905C6.51226 5.31637 5.56714 6.54533 5.05868 7.97102C5.03079 8.05372 5.02293 8.14191 5.0358 8.22824C5.04866 8.31457 5.08196 8.39658 5.13274 8.46749C5.18361 8.5385 5.25059 8.59625 5.32828 8.63623C5.40587 8.6762 5.49181 8.69702 5.57912 8.69722H18.4176Z" stroke="#191919" stroke-linecap="round" stroke-linejoin="round"/>
<path d="M10.0841 6.49676C9.93214 6.49676 9.80908 6.3736 9.80908 6.22166C9.80908 6.06972 9.93214 5.94666 10.0841 5.94666" stroke="#191919"/>
<path d="M10.0845 6.49676C10.2364 6.49676 10.3596 6.3736 10.3596 6.22166C10.3596 6.06972 10.2364 5.94666 10.0845 5.94666" stroke="#191919"/>
<path d="M13.9255 6.49676C13.7736 6.49676 13.6504 6.3736 13.6504 6.22166C13.6504 6.06972 13.7736 5.94666 13.9255 5.94666" stroke="#191919"/>
<path d="M13.9253 6.49676C14.0772 6.49676 14.2003 6.3736 14.2003 6.22166C14.2003 6.06972 14.0772 5.94666 13.9253 5.94666" stroke="#191919"/>
</svg>
