<svg width="24" height="24" viewBox="0 0 24 24" fill="none" xmlns="http://www.w3.org/2000/svg">
<path d="M19.652 11.5217C19.652 6.23982 16.2257 1 11.9998 1C7.77392 1 4.34766 6.23982 4.34766 11.5217" fill="#FFBC44"/>
<path d="M11.9998 4.49226C15.2759 4.49226 18.0642 7.64878 19.1546 11.5217H19.652C19.652 6.23982 16.2257 1 11.9998 1C7.77392 1 4.34766 6.23982 4.34766 11.5217H4.84505C5.93548 7.64495 8.72374 4.49226 11.9998 4.49226Z" fill="#FFDDA1"/>
<path d="M19.652 11.5217C19.652 6.23982 16.2257 1 11.9998 1C7.77392 1 4.34766 6.23982 4.34766 11.5217" stroke="#191919" stroke-linecap="round" stroke-linejoin="round"/>
<path d="M11.9994 3.51562C11.2552 3.58307 10.5407 3.83991 9.92386 4.26167C9.30702 4.68344 8.80844 5.25609 8.47559 5.9251" stroke="#191919" stroke-linecap="round" stroke-linejoin="round"/>
<path d="M20.6085 13.4348H3.39111C3.83398 16.1197 5.03059 19.1366 7.34346 20.8956C6.99062 21.5543 6.74368 22.2645 6.61172 23H17.3879C17.2559 22.2645 17.009 21.5543 16.6562 20.8956C18.969 19.1366 20.1656 16.1197 20.6085 13.4348Z" fill="#FFF9BF"/>
<path d="M20.5691 13.6337C19.8168 15.2743 18.6095 16.6645 17.0904 17.639C15.5713 18.6136 13.8044 19.1316 11.9997 19.1316C10.1949 19.1316 8.42795 18.6136 6.9089 17.639C5.38984 16.6645 4.18246 15.2743 3.43018 13.6337C3.89887 16.268 5.08687 19.1816 7.3433 20.8956C6.99046 21.5543 6.74353 22.2645 6.61157 23H17.3877C17.2557 22.2645 17.0089 21.5543 16.656 20.8956C18.9124 19.1796 20.1004 16.268 20.5691 13.6337Z" fill="#FFEF5E"/>
<path d="M20.6085 13.4348H3.39111C3.83398 16.1197 5.03059 19.1366 7.34346 20.8956C6.99062 21.5543 6.74368 22.2645 6.61172 23H17.3879C17.2559 22.2645 17.009 21.5543 16.6562 20.8956C18.969 19.1366 20.1656 16.1197 20.6085 13.4348Z" stroke="#191919" stroke-linecap="round" stroke-linejoin="round"/>
</svg>
