<svg width="24" height="24" viewBox="0 0 24 24" fill="none" xmlns="http://www.w3.org/2000/svg">
<g clip-path="url(#clip0_5303_6876)">
<path d="M22.8259 9.59082C23.1436 11.3913 23.0244 13.2417 22.4785 14.9865C21.9327 16.7313 20.9761 18.3197 19.689 19.6182C18.402 20.9165 16.8221 21.8872 15.082 22.4483C13.3421 23.0096 11.4929 23.1451 9.6897 22.8433L10.8429 16.7189C11.6434 16.8341 12.4597 16.7605 13.2267 16.5041C13.9936 16.2478 14.6901 15.8158 15.2605 15.2426C15.8309 14.6693 16.2595 13.9707 16.512 13.2025C16.7646 12.4343 16.8341 11.6177 16.7151 10.8178L22.8259 9.59082Z" fill="#C9F7CA"/>
<path d="M19.959 1.60881C20.3478 1.99809 20.5663 2.52583 20.5663 3.07606C20.5663 3.62631 20.3478 4.15404 19.959 4.54331L17.3899 7.1145C17.2925 7.21181 17.1606 7.26647 17.0229 7.26647C16.8853 7.26647 16.7534 7.21181 16.656 7.1145L14.4543 4.91285C14.3571 4.81553 14.3024 4.68353 14.3024 4.54591C14.3024 4.40829 14.3571 4.2763 14.4543 4.17897L17.0235 1.60881C17.4128 1.21962 17.9408 1.00098 18.4912 1.00098C19.0417 1.00098 19.5696 1.21962 19.959 1.60881Z" fill="#808080"/>
<path d="M19.959 1.60836C19.7663 1.41549 19.5374 1.26249 19.2855 1.1581C19.0334 1.05372 18.7635 1 18.4908 1C18.2181 1 17.948 1.05372 17.696 1.1581C17.4441 1.26249 17.2152 1.41549 17.0225 1.60836L14.4534 4.17851C14.3561 4.27583 14.3014 4.40783 14.3014 4.54545C14.3014 4.68307 14.3561 4.81506 14.4534 4.91239L15.5537 6.0127L19.959 1.60836Z" fill="#B2B2B2"/>
<path d="M19.959 1.60881C20.3478 1.99809 20.5663 2.52583 20.5663 3.07606C20.5663 3.62631 20.3478 4.15404 19.959 4.54331L17.3899 7.1145C17.2925 7.21181 17.1606 7.26647 17.0229 7.26647C16.8853 7.26647 16.7534 7.21181 16.656 7.1145L14.4543 4.91285C14.3571 4.81553 14.3024 4.68353 14.3024 4.54591C14.3024 4.40829 14.3571 4.2763 14.4543 4.17897L17.0235 1.60881C17.4128 1.21962 17.9408 1.00098 18.4912 1.00098C19.0417 1.00098 19.5696 1.21962 19.959 1.60881Z" stroke="#191919" stroke-linecap="round" stroke-linejoin="round"/>
<path d="M7.11335 16.6548C7.21066 16.7522 7.26531 16.8841 7.26531 17.0218C7.26531 17.1594 7.21066 17.2913 7.11335 17.3887L4.54424 19.9589C4.15482 20.3481 3.62672 20.5667 3.07611 20.5667C2.52549 20.5666 1.99746 20.3477 1.60818 19.9583C1.21891 19.569 1.00027 19.0408 1.00037 18.4902C1.00046 17.9396 1.21929 17.4115 1.6087 17.0223L4.17782 14.4542C4.27515 14.3569 4.40714 14.3022 4.54476 14.3022C4.68238 14.3022 4.81438 14.3569 4.9117 14.4542L7.11335 16.6548Z" fill="#808080"/>
<path d="M1.60869 19.9589L6.012 15.5545L4.91169 14.4542C4.81436 14.3569 4.68237 14.3022 4.54475 14.3022C4.40713 14.3022 4.27513 14.3569 4.17781 14.4542L1.60869 17.0223C1.21949 17.4117 1.00085 17.9396 1.00085 18.4901C1.00085 19.0405 1.21949 19.5695 1.60869 19.9589Z" fill="#B2B2B2"/>
<path d="M7.11335 16.6548C7.21066 16.7522 7.26531 16.8841 7.26531 17.0218C7.26531 17.1594 7.21066 17.2913 7.11335 17.3887L4.54424 19.9589C4.15482 20.3481 3.62672 20.5667 3.07611 20.5667C2.52549 20.5666 1.99746 20.3477 1.60818 19.9583C1.21891 19.569 1.00027 19.0408 1.00037 18.4902C1.00046 17.9396 1.21929 17.4115 1.6087 17.0223L4.17782 14.4542C4.27515 14.3569 4.40714 14.3022 4.54476 14.3022C4.68238 14.3022 4.81438 14.3569 4.9117 14.4542L7.11335 16.6548Z" stroke="#191919" stroke-linecap="round" stroke-linejoin="round"/>
<path d="M8.21475 8.21435C7.78083 8.64812 7.43662 9.16313 7.20178 9.72995C6.96695 10.2967 6.84607 10.9043 6.84607 11.5179C6.84607 12.1314 6.96695 12.739 7.20178 13.3058C7.43662 13.8726 7.78083 14.3876 8.21475 14.8214L14.8207 8.21435C14.387 7.78059 13.8721 7.43652 13.3053 7.20177C12.7386 6.96702 12.1312 6.84619 11.5177 6.84619C10.9043 6.84619 10.2969 6.96702 9.73017 7.20177C9.16344 7.43652 8.64851 7.78059 8.21475 8.21435Z" fill="#E3E3E3"/>
<path d="M11.5177 11.5184L14.8207 8.21435C14.3869 7.78059 13.8721 7.43652 13.3053 7.20177C12.7385 6.96702 12.1312 6.84619 11.5177 6.84619C10.9042 6.84619 10.2969 6.96702 9.73015 7.20177C9.16342 7.43652 8.64847 7.78059 8.21472 8.21435L11.5177 11.5184Z" fill="white"/>
<path d="M8.21475 8.21435C7.78083 8.64812 7.43662 9.16313 7.20178 9.72995C6.96695 10.2967 6.84607 10.9043 6.84607 11.5179C6.84607 12.1314 6.96695 12.739 7.20178 13.3058C7.43662 13.8726 7.78083 14.3876 8.21475 14.8214L14.8207 8.21435C14.387 7.78059 13.8721 7.43652 13.3053 7.20177C12.7386 6.96702 12.1312 6.84619 11.5177 6.84619C10.9043 6.84619 10.2969 6.96702 9.73017 7.20177C9.16344 7.43652 8.64851 7.78059 8.21475 8.21435Z" stroke="#191919" stroke-linecap="round" stroke-linejoin="round"/>
<path d="M13.0022 10.0288C13.3979 10.4284 13.6238 10.9656 13.6327 11.528C13.6416 12.0903 13.4328 12.6344 13.0499 13.0464C12.6397 13.4256 12.0978 13.63 11.5392 13.6163C10.9806 13.6025 10.4495 13.3717 10.0583 12.9727L13.0022 10.0288Z" fill="#808080" stroke="#191919" stroke-linecap="round" stroke-linejoin="round"/>
<path d="M16.7151 10.8174C16.8343 11.6173 16.765 12.4341 16.5125 13.2025C16.26 13.9708 15.8315 14.6695 15.2611 15.2429C14.6906 15.8162 13.9941 16.2483 13.2271 16.5047C12.46 16.7611 11.6435 16.8347 10.843 16.7196" stroke="#191919" stroke-linecap="round" stroke-linejoin="round"/>
<path d="M19.8344 10.6621C19.9727 11.9011 19.8302 13.1553 19.4175 14.3317C19.0049 15.5081 18.3327 16.5765 17.4507 17.4577C16.5688 18.3387 15.4998 19.01 14.323 19.4216C13.1463 19.8332 11.892 19.9746 10.6531 19.8351" stroke="#191919" stroke-linecap="round" stroke-linejoin="round"/>
<path d="M22.8259 9.59082C23.1436 11.3913 23.0244 13.2417 22.4785 14.9865C21.9327 16.7313 20.9761 18.3197 19.689 19.6182C18.402 20.9165 16.8221 21.8872 15.082 22.4483C13.3421 23.0096 11.4929 23.1451 9.6897 22.8433" stroke="#191919" stroke-linecap="round" stroke-linejoin="round"/>
</g>
<defs>
<clipPath id="clip0_5303_6876">
<rect width="24" height="24" fill="white"/>
</clipPath>
</defs>
</svg>
