<svg width="24" height="24" viewBox="0 0 24 24" fill="none" xmlns="http://www.w3.org/2000/svg">
<g clip-path="url(#clip0_5303_4257)">
<path d="M23 7.21545V19.6502C23 20.1576 22.7984 20.6442 22.4397 21.003C22.0809 21.3617 21.5943 21.5633 21.087 21.5633H2.91304C2.66182 21.5633 2.41305 21.5138 2.18095 21.4177C1.94885 21.3215 1.73796 21.1806 1.56032 21.003C1.20155 20.6442 1 20.1576 1 19.6502V7.21545H23Z" fill="#66E1FF"/>
<path d="M2.91304 21.5633H4.82609L19.1739 7.21545H1V19.6502C1 20.1576 1.20155 20.6442 1.56032 21.003C1.91908 21.3617 2.40567 21.5633 2.91304 21.5633Z" fill="#C2F3FF"/>
<path d="M23 7.21547H1V4.3459C1 3.83853 1.20155 3.35194 1.56032 2.99318C1.91908 2.63441 2.40567 2.43286 2.91304 2.43286H21.087C21.5943 2.43286 22.0809 2.63441 22.4397 2.99318C22.7984 3.35194 23 3.83853 23 4.3459V7.21547Z" fill="white"/>
<path d="M21.087 2.43652H2.91304C2.66182 2.43652 2.41305 2.48601 2.18095 2.58215C1.94885 2.67828 1.73796 2.8192 1.56032 2.99684C1.20155 3.35561 1 3.8422 1 4.34957V19.6539C1 20.1613 1.20155 20.6479 1.56032 21.0066C1.73796 21.1843 1.94885 21.3252 2.18095 21.4213C2.41305 21.5175 2.66182 21.567 2.91304 21.567H21.087C21.5943 21.567 22.0809 21.3654 22.4397 21.0066C22.7984 20.6479 23 20.1613 23 19.6539V4.34957C23 3.8422 22.7984 3.35561 22.4397 2.99684C22.0809 2.63808 21.5943 2.43652 21.087 2.43652Z" stroke="#191919" stroke-linecap="round" stroke-linejoin="round"/>
<path d="M1 7.2193H23" stroke="#191919" stroke-linecap="round" stroke-linejoin="round"/>
<path d="M4.34753 5.06713C4.28411 5.06713 4.22328 5.04193 4.17844 4.99709C4.13359 4.95224 4.1084 4.89142 4.1084 4.828C4.1084 4.76458 4.13359 4.70375 4.17844 4.65891C4.22328 4.61406 4.28411 4.58887 4.34753 4.58887" stroke="#191919"/>
<path d="M4.34766 5.06713C4.41108 5.06713 4.4719 5.04193 4.51675 4.99709C4.56159 4.95224 4.58679 4.89142 4.58679 4.828C4.58679 4.76458 4.56159 4.70375 4.51675 4.65891C4.4719 4.61406 4.41108 4.58887 4.34766 4.58887" stroke="#191919"/>
<path d="M18.2171 11.0454H8.65186" stroke="#191919" stroke-linecap="round" stroke-linejoin="round"/>
<path d="M4.82568 11.0454H5.78221" stroke="#191919" stroke-linecap="round" stroke-linejoin="round"/>
<path d="M18.2171 13.9149H8.65186" stroke="#191919" stroke-linecap="round" stroke-linejoin="round"/>
<path d="M4.82568 13.9149H5.78221" stroke="#191919" stroke-linecap="round" stroke-linejoin="round"/>
<path d="M18.2171 16.7845H8.65186" stroke="#191919" stroke-linecap="round" stroke-linejoin="round"/>
<path d="M4.82568 16.7845H5.78221" stroke="#191919" stroke-linecap="round" stroke-linejoin="round"/>
<path d="M7.21716 5.06713C7.15374 5.06713 7.09291 5.04193 7.04807 4.99709C7.00322 4.95224 6.97803 4.89142 6.97803 4.828C6.97803 4.76458 7.00322 4.70375 7.04807 4.65891C7.09291 4.61406 7.15374 4.58887 7.21716 4.58887" stroke="#191919"/>
<path d="M7.21729 5.06713C7.28071 5.06713 7.34153 5.04193 7.38638 4.99709C7.43122 4.95224 7.45642 4.89142 7.45642 4.828C7.45642 4.76458 7.43122 4.70375 7.38638 4.65891C7.34153 4.61406 7.28071 4.58887 7.21729 4.58887" stroke="#191919"/>
<path d="M10.0868 5.07091C10.0234 5.07091 9.96254 5.04572 9.9177 5.00087C9.87285 4.95603 9.84766 4.8952 9.84766 4.83178C9.84766 4.76836 9.87285 4.70754 9.9177 4.66269C9.96254 4.61785 10.0234 4.59265 10.0868 4.59265" stroke="#191919"/>
<path d="M10.0864 5.07091C10.1498 5.07091 10.2107 5.04572 10.2555 5.00087C10.3004 4.95603 10.3256 4.8952 10.3256 4.83178C10.3256 4.76836 10.3004 4.70754 10.2555 4.66269C10.2107 4.61785 10.1498 4.59265 10.0864 4.59265" stroke="#191919"/>
</g>
<defs>
<clipPath id="clip0_5303_4257">
<rect width="24" height="24" fill="white"/>
</clipPath>
</defs>
</svg>
