<svg width="24" height="24" viewBox="0 0 24 24" fill="none" xmlns="http://www.w3.org/2000/svg">
<g clip-path="url(#clip0_5303_4324)">
<path d="M20.052 4.85309V14.3791C20.052 14.6293 20.0027 14.8771 19.907 15.1083C19.8112 15.3394 19.6709 15.5495 19.4939 15.7264C19.317 15.9034 19.107 16.0437 18.8758 16.1395C18.6446 16.2352 18.3968 16.2845 18.1466 16.2845H2.90539C2.65517 16.2845 2.4074 16.2352 2.17623 16.1395C1.94506 16.0437 1.73501 15.9034 1.55808 15.7264C1.38114 15.5495 1.24079 15.3394 1.14504 15.1083C1.04928 14.8771 1 14.6293 1 14.3791V4.85309H20.052Z" fill="#66E1FF"/>
<path d="M4.81079 16.2835L16.2412 4.85309H1V14.3791C1 14.6293 1.04928 14.8771 1.14504 15.1083C1.24079 15.3394 1.38114 15.5495 1.55808 15.7264C1.73501 15.9034 1.94506 16.0437 2.17623 16.1395C2.4074 16.2352 2.65517 16.2845 2.90539 16.2845L4.81079 16.2835Z" fill="#C2F3FF"/>
<path d="M20.052 4.85314H1V2.94775C1 2.44241 1.20075 1.95776 1.55808 1.60043C1.91541 1.2431 2.40005 1.04236 2.90539 1.04236H18.1466C18.652 1.04236 19.1366 1.2431 19.4939 1.60043C19.8513 1.95776 20.052 2.44241 20.052 2.94775V4.85314Z" fill="white"/>
<path d="M1.0166 4.85693H20.0677" stroke="#191919" stroke-linecap="round" stroke-linejoin="round"/>
<path d="M8.63722 16.2836H2.92104C2.41586 16.2833 1.93146 16.0824 1.57434 15.7251C1.21722 15.3678 1.0166 14.8833 1.0166 14.3782V2.94866C1.0166 2.44332 1.21735 1.95868 1.57468 1.60135C1.93201 1.24402 2.41665 1.04327 2.92199 1.04327H18.1632C18.6686 1.04327 19.1532 1.24402 19.5105 1.60135C19.8679 1.95868 20.0686 2.44332 20.0686 2.94866V10.0934" stroke="#191919" stroke-linecap="round" stroke-linejoin="round"/>
<path d="M17.2097 22.9572C17.9665 22.967 18.7178 22.8264 19.4198 22.5436C20.1219 22.2607 20.7607 21.8413 21.2994 21.3095C21.838 20.7778 22.2657 20.1444 22.5576 19.4461C22.8495 18.7477 22.9999 17.9984 22.9999 17.2415C22.9999 16.4846 22.8495 15.7353 22.5576 15.0369C22.2657 14.3386 21.838 13.7052 21.2994 13.1735C20.7607 12.6418 20.1219 12.2223 19.4198 11.9395C18.7178 11.6566 17.9665 11.516 17.2097 11.5258C15.712 11.5532 14.285 12.1674 13.2356 13.2362C12.1861 14.3051 11.5981 15.7431 11.5981 17.241C11.5981 18.7389 12.1861 20.177 13.2356 21.2458C14.285 22.3146 15.712 22.9298 17.2097 22.9572Z" fill="#E3E3E3"/>
<path d="M13.1694 21.2826C12.1226 20.2055 11.5417 18.7598 11.5524 17.2579C11.5631 15.756 12.1644 14.3186 13.2265 13.2566C14.2885 12.1946 15.7259 11.5932 17.2278 11.5825C18.7296 11.5718 20.1754 12.1527 21.2524 13.1995L13.1694 21.2826Z" fill="white"/>
<path d="M17.2097 22.9572C17.9665 22.967 18.7178 22.8264 19.4198 22.5436C20.1219 22.2607 20.7607 21.8413 21.2994 21.3095C21.838 20.7778 22.2657 20.1444 22.5576 19.4461C22.8495 18.7477 22.9999 17.9984 22.9999 17.2415C22.9999 16.4846 22.8495 15.7353 22.5576 15.0369C22.2657 14.3386 21.838 13.7052 21.2994 13.1735C20.7607 12.6418 20.1219 12.2223 19.4198 11.9395C18.7178 11.6566 17.9665 11.516 17.2097 11.5258C15.712 11.5532 14.285 12.1674 13.2356 13.2362C12.1861 14.3051 11.5981 15.7431 11.5981 17.241C11.5981 18.7389 12.1861 20.177 13.2356 21.2458C14.285 22.3146 15.712 22.9298 17.2097 22.9572Z" stroke="#191919" stroke-linecap="round" stroke-linejoin="round"/>
<path d="M19.1154 17.241H17.21V14.3839" stroke="#191919" stroke-linecap="round" stroke-linejoin="round"/>
<path d="M3.87513 3.18612C3.8119 3.18612 3.75126 3.161 3.70655 3.11629C3.66184 3.07158 3.63672 3.01094 3.63672 2.94771C3.63672 2.88448 3.66184 2.82384 3.70655 2.77912C3.75126 2.73441 3.8119 2.70929 3.87513 2.70929" stroke="#191919"/>
<path d="M3.875 3.18612C3.93823 3.18612 3.99887 3.161 4.04358 3.11629C4.08829 3.07158 4.11341 3.01094 4.11341 2.94771C4.11341 2.88448 4.08829 2.82384 4.04358 2.77912C3.99887 2.73441 3.93823 2.70929 3.875 2.70929" stroke="#191919"/>
<path d="M5.77943 3.18612C5.7162 3.18612 5.65556 3.161 5.61084 3.11629C5.56613 3.07158 5.54102 3.01094 5.54102 2.94771C5.54102 2.88448 5.56613 2.82384 5.61084 2.77912C5.65556 2.73441 5.7162 2.70929 5.77943 2.70929" stroke="#191919"/>
<path d="M5.7793 3.18612C5.84253 3.18612 5.90317 3.161 5.94788 3.11629C5.99259 3.07158 6.01771 3.01094 6.01771 2.94771C6.01771 2.88448 5.99259 2.82384 5.94788 2.77912C5.90317 2.73441 5.84253 2.70929 5.7793 2.70929" stroke="#191919"/>
<path d="M7.68519 3.18612C7.62196 3.18612 7.56132 3.161 7.51661 3.11629C7.4719 3.07158 7.44678 3.01094 7.44678 2.94771C7.44678 2.88448 7.4719 2.82384 7.51661 2.77912C7.56132 2.73441 7.62196 2.70929 7.68519 2.70929" stroke="#191919"/>
<path d="M7.68506 3.18612C7.74829 3.18612 7.80893 3.161 7.85364 3.11629C7.89835 3.07158 7.92347 3.01094 7.92347 2.94771C7.92347 2.88448 7.89835 2.82384 7.85364 2.77912C7.80893 2.73441 7.74829 2.70929 7.68506 2.70929" stroke="#191919"/>
</g>
<defs>
<clipPath id="clip0_5303_4324">
<rect width="24" height="24" fill="white"/>
</clipPath>
</defs>
</svg>
