<svg width="24" height="24" viewBox="0 0 24 24" fill="none" xmlns="http://www.w3.org/2000/svg">
<g clip-path="url(#clip0_5303_4091)">
<path d="M23 7.21552V19.6503C23 20.1576 22.7985 20.6442 22.4397 21.003C22.0809 21.3618 21.5943 21.5633 21.087 21.5633H2.91304C2.40568 21.5633 1.91908 21.3618 1.56032 21.003C1.20155 20.6442 1 20.1576 1 19.6503V7.21552H23Z" fill="#66E1FF"/>
<path d="M2.91304 21.5633H4.82609L19.1739 7.21552H1V19.6503C1 20.1576 1.20155 20.6442 1.56032 21.003C1.91908 21.3618 2.40568 21.5633 2.91304 21.5633Z" fill="#C2F3FF"/>
<path d="M23 7.21546H1V4.3459C1 3.83853 1.20155 3.35194 1.56032 2.99318C1.91908 2.63441 2.40568 2.43286 2.91304 2.43286H21.087C21.5943 2.43286 22.0809 2.63441 22.4397 2.99318C22.7985 3.35194 23 3.83853 23 4.3459V7.21546Z" fill="white"/>
<path d="M21.087 2.43658H2.91304C1.8565 2.43658 1 3.29308 1 4.34962V19.6539C1 20.7105 1.8565 21.567 2.91304 21.567H21.087C22.1435 21.567 23 20.7105 23 19.6539V4.34962C23 3.29308 22.1435 2.43658 21.087 2.43658Z" stroke="#191919" stroke-linecap="round" stroke-linejoin="round"/>
<path d="M1 7.21936H23" stroke="#191919" stroke-linecap="round" stroke-linejoin="round"/>
<path d="M19.1737 14.4554C19.1737 14.5419 19.1502 14.6268 19.1057 14.701C19.0612 14.7752 18.9974 14.836 18.9212 14.8768C18.8449 14.9176 18.759 14.937 18.6726 14.9329C18.5862 14.9287 18.5025 14.9012 18.4305 14.8533L16.3041 13.4329L14.1778 14.8495C14.1058 14.8974 14.0221 14.9249 13.9357 14.9291C13.8493 14.9332 13.7633 14.9138 13.6871 14.8729C13.6109 14.8322 13.5471 14.7714 13.5026 14.6972C13.4581 14.623 13.4346 14.5381 13.4346 14.4516V7.21552H19.1737V14.4554Z" fill="#FF808C"/>
<path d="M16.3041 7.21552H13.4346V14.4516C13.4346 14.5381 13.4581 14.623 13.5026 14.6972C13.5471 14.7714 13.6109 14.8322 13.6871 14.8729C13.7633 14.9138 13.8493 14.9332 13.9357 14.9291C14.0221 14.9249 14.1058 14.8974 14.1778 14.8495L16.3041 13.4329V7.21552Z" fill="#FFBFC5"/>
<path d="M19.1737 14.4554C19.1737 14.5419 19.1502 14.6268 19.1057 14.701C19.0612 14.7752 18.9974 14.836 18.9212 14.8768C18.8449 14.9176 18.759 14.937 18.6726 14.9329C18.5862 14.9287 18.5025 14.9012 18.4305 14.8533L16.3041 13.4329L14.1778 14.8495C14.1058 14.8974 14.0221 14.9249 13.9357 14.9291C13.8493 14.9332 13.7633 14.9138 13.6871 14.8729C13.6109 14.8322 13.5471 14.7714 13.5026 14.6972C13.4581 14.623 13.4346 14.5381 13.4346 14.4516V7.21552H19.1737V14.4554Z" stroke="#191919" stroke-linecap="round" stroke-linejoin="round"/>
<path d="M7.21716 5.06719C7.08509 5.06719 6.97803 4.96012 6.97803 4.82806C6.97803 4.69599 7.08509 4.58893 7.21716 4.58893" stroke="#191919"/>
<path d="M7.21729 5.06719C7.34935 5.06719 7.45642 4.96012 7.45642 4.82806C7.45642 4.69599 7.34935 4.58893 7.21729 4.58893" stroke="#191919"/>
<path d="M4.34753 5.06719C4.21546 5.06719 4.1084 4.96012 4.1084 4.82806C4.1084 4.69599 4.21546 4.58893 4.34753 4.58893" stroke="#191919"/>
<path d="M4.34766 5.06719C4.47972 5.06719 4.58679 4.96012 4.58679 4.82806C4.58679 4.69599 4.47972 4.58893 4.34766 4.58893" stroke="#191919"/>
<path d="M10.0868 5.06719C9.95472 5.06719 9.84766 4.96012 9.84766 4.82806C9.84766 4.69599 9.95472 4.58893 10.0868 4.58893" stroke="#191919"/>
<path d="M10.0864 5.06719C10.2185 5.06719 10.3256 4.96012 10.3256 4.82806C10.3256 4.69599 10.2185 4.58893 10.0864 4.58893" stroke="#191919"/>
</g>
<defs>
<clipPath id="clip0_5303_4091">
<rect width="24" height="24" fill="white"/>
</clipPath>
</defs>
</svg>
