<svg width="24" height="24" viewBox="0 0 24 24" fill="none" xmlns="http://www.w3.org/2000/svg">
<g clip-path="url(#clip0_5303_4355)">
<path d="M23 7.21539V19.6502C23 20.1576 22.7984 20.6442 22.4397 21.0029C22.0809 21.3617 21.5943 21.5632 21.087 21.5632H2.91304C2.40567 21.5632 1.91908 21.3617 1.56032 21.0029C1.20155 20.6442 1 20.1576 1 19.6502V7.21539H23Z" fill="#66E1FF"/>
<path d="M2.91304 21.5632H4.82609L19.1739 7.21539H1V19.6502C1 20.1576 1.20155 20.6442 1.56032 21.0029C1.91908 21.3617 2.40567 21.5632 2.91304 21.5632Z" fill="#C2F3FF"/>
<path d="M23 7.21547H1V4.3459C1 3.83853 1.20155 3.35194 1.56032 2.99318C1.91908 2.63441 2.40567 2.43286 2.91304 2.43286H21.087C21.5943 2.43286 22.0809 2.63441 22.4397 2.99318C22.7984 3.35194 23 3.83853 23 4.3459V7.21547Z" fill="white"/>
<path d="M21.087 2.43671H2.91304C2.40567 2.43671 1.91908 2.63826 1.56032 2.99702C1.20155 3.35579 1 3.84238 1 4.34975V19.6541C1 20.1614 1.20155 20.648 1.56032 21.0068C1.91908 21.3656 2.40567 21.5671 2.91304 21.5671H21.087C21.5943 21.5671 22.0809 21.3656 22.4397 21.0068C22.7984 20.648 23 20.1614 23 19.6541V4.34975C23 3.84238 22.7984 3.35579 22.4397 2.99702C22.0809 2.63826 21.5943 2.43671 21.087 2.43671Z" stroke="#191919" stroke-linecap="round" stroke-linejoin="round"/>
<path d="M1 7.2193H23" stroke="#191919" stroke-linecap="round" stroke-linejoin="round"/>
<path d="M5.78223 12.0019L8.17353 14.3932L5.78223 16.7845" stroke="#191919" stroke-linecap="round" stroke-linejoin="round"/>
<path d="M11.521 14.8715H15.3471" stroke="#191919" stroke-linecap="round" stroke-linejoin="round"/>
<path d="M7.21716 5.06713C7.15374 5.06713 7.09291 5.04193 7.04807 4.99709C7.00322 4.95224 6.97803 4.89142 6.97803 4.828C6.97803 4.76458 7.00322 4.70375 7.04807 4.65891C7.09291 4.61406 7.15374 4.58887 7.21716 4.58887" stroke="#191919"/>
<path d="M7.2168 5.06713C7.28022 5.06713 7.34104 5.04193 7.38589 4.99709C7.43073 4.95224 7.45593 4.89142 7.45593 4.828C7.45593 4.76458 7.43073 4.70375 7.38589 4.65891C7.34104 4.61406 7.28022 4.58887 7.2168 4.58887" stroke="#191919"/>
<path d="M4.34753 5.06713C4.28411 5.06713 4.22328 5.04193 4.17844 4.99709C4.13359 4.95224 4.1084 4.89142 4.1084 4.828C4.1084 4.76458 4.13359 4.70375 4.17844 4.65891C4.22328 4.61406 4.28411 4.58887 4.34753 4.58887" stroke="#191919"/>
<path d="M4.34717 5.06713C4.41059 5.06713 4.47141 5.04193 4.51626 4.99709C4.5611 4.95224 4.5863 4.89142 4.5863 4.828C4.5863 4.76458 4.5611 4.70375 4.51626 4.65891C4.47141 4.61406 4.41059 4.58887 4.34717 4.58887" stroke="#191919"/>
<path d="M10.0868 5.07091C10.0234 5.07091 9.96254 5.04572 9.9177 5.00087C9.87285 4.95603 9.84766 4.8952 9.84766 4.83178C9.84766 4.76836 9.87285 4.70754 9.9177 4.66269C9.96254 4.61785 10.0234 4.59265 10.0868 4.59265" stroke="#191919"/>
<path d="M10.0864 5.07091C10.1498 5.07091 10.2107 5.04572 10.2555 5.00087C10.3004 4.95603 10.3256 4.8952 10.3256 4.83178C10.3256 4.76836 10.3004 4.70754 10.2555 4.66269C10.2107 4.61785 10.1498 4.59265 10.0864 4.59265" stroke="#191919"/>
</g>
<defs>
<clipPath id="clip0_5303_4355">
<rect width="24" height="24" fill="white"/>
</clipPath>
</defs>
</svg>
