<svg width="24" height="24" viewBox="0 0 24 24" fill="none" xmlns="http://www.w3.org/2000/svg">
<g clip-path="url(#clip0_5303_4048)">
<path d="M23 7.21545V19.6502C23 20.1576 22.7984 20.6442 22.4397 21.003C22.0809 21.3617 21.5943 21.5633 21.087 21.5633H2.91304C2.66182 21.5633 2.41305 21.5138 2.18095 21.4177C1.94885 21.3215 1.73796 21.1806 1.56032 21.003C1.20155 20.6442 1 20.1576 1 19.6502V7.21545H23Z" fill="#66E1FF"/>
<path d="M2.91304 21.5633H4.82609L19.1739 7.21545H1V19.6502C1 20.1576 1.20155 20.6442 1.56032 21.003C1.91908 21.3617 2.40567 21.5633 2.91304 21.5633Z" fill="#C2F3FF"/>
<path d="M23 7.21547H1V4.3459C1 3.83853 1.20155 3.35194 1.56032 2.99318C1.91908 2.63441 2.40567 2.43286 2.91304 2.43286H21.087C21.5943 2.43286 22.0809 2.63441 22.4397 2.99318C22.7984 3.35194 23 3.83853 23 4.3459V7.21547Z" fill="white"/>
<path d="M21.087 2.43652H2.91304C2.66182 2.43652 2.41305 2.48601 2.18095 2.58215C1.94885 2.67828 1.73796 2.8192 1.56032 2.99684C1.20155 3.35561 1 3.8422 1 4.34957V19.6539C1 20.1613 1.20155 20.6479 1.56032 21.0066C1.73796 21.1843 1.94885 21.3252 2.18095 21.4213C2.41305 21.5175 2.66182 21.567 2.91304 21.567H21.087C21.5943 21.567 22.0809 21.3654 22.4397 21.0066C22.7984 20.6479 23 20.1613 23 19.6539V4.34957C23 3.8422 22.7984 3.35561 22.4397 2.99684C22.0809 2.63808 21.5943 2.43652 21.087 2.43652Z" stroke="#191919" stroke-linecap="round" stroke-linejoin="round"/>
<path d="M1 7.2193H23" stroke="#191919" stroke-linecap="round" stroke-linejoin="round"/>
<path d="M18.738 15.1278C18.7316 14.7707 18.6533 14.4186 18.5078 14.0925C18.3623 13.7663 18.1526 13.4728 17.8913 13.2294C17.6299 12.9861 17.3222 12.7979 16.9864 12.6761C16.6507 12.5542 16.2939 12.5013 15.9373 12.5203C15.6201 11.887 15.132 11.3551 14.5282 10.9849C13.9243 10.6147 13.2289 10.4209 12.5206 10.4255C11.5718 10.412 10.6535 10.7606 9.95258 11.4004C9.25172 12.0401 8.82099 12.9229 8.74809 13.869C8.45831 13.8043 8.15778 13.8047 7.86816 13.8701C7.57853 13.9355 7.30701 14.0643 7.07317 14.2473C6.83933 14.4302 6.64898 14.6628 6.51584 14.9282C6.3827 15.1936 6.31009 15.4852 6.30322 15.7821C6.30322 17.7716 8.46592 17.7372 8.46592 17.7372H16.3094C16.9594 17.6647 17.5619 17.3616 18.0075 16.8828C18.4531 16.404 18.7123 15.7814 18.738 15.1278Z" fill="white" stroke="#191919" stroke-linecap="round" stroke-linejoin="round"/>
<path d="M7.21716 5.06713C7.15374 5.06713 7.09291 5.04193 7.04807 4.99709C7.00322 4.95224 6.97803 4.89142 6.97803 4.828C6.97803 4.76458 7.00322 4.70375 7.04807 4.65891C7.09291 4.61406 7.15374 4.58887 7.21716 4.58887" stroke="#191919"/>
<path d="M7.21729 5.06713C7.28071 5.06713 7.34153 5.04193 7.38638 4.99709C7.43122 4.95224 7.45642 4.89142 7.45642 4.828C7.45642 4.76458 7.43122 4.70375 7.38638 4.65891C7.34153 4.61406 7.28071 4.58887 7.21729 4.58887" stroke="#191919"/>
<path d="M4.34753 5.06713C4.28411 5.06713 4.22328 5.04193 4.17844 4.99709C4.13359 4.95224 4.1084 4.89142 4.1084 4.828C4.1084 4.76458 4.13359 4.70375 4.17844 4.65891C4.22328 4.61406 4.28411 4.58887 4.34753 4.58887" stroke="#191919"/>
<path d="M4.34766 5.06713C4.41108 5.06713 4.4719 5.04193 4.51675 4.99709C4.56159 4.95224 4.58679 4.89142 4.58679 4.828C4.58679 4.76458 4.56159 4.70375 4.51675 4.65891C4.4719 4.61406 4.41108 4.58887 4.34766 4.58887" stroke="#191919"/>
<path d="M10.0868 5.06713C10.0234 5.06713 9.96254 5.04193 9.9177 4.99709C9.87285 4.95224 9.84766 4.89142 9.84766 4.828C9.84766 4.76458 9.87285 4.70375 9.9177 4.65891C9.96254 4.61406 10.0234 4.58887 10.0868 4.58887" stroke="#191919"/>
<path d="M10.0864 5.06713C10.1498 5.06713 10.2107 5.04193 10.2555 4.99709C10.3004 4.95224 10.3256 4.89142 10.3256 4.828C10.3256 4.76458 10.3004 4.70375 10.2555 4.65891C10.2107 4.61406 10.1498 4.58887 10.0864 4.58887" stroke="#191919"/>
</g>
<defs>
<clipPath id="clip0_5303_4048">
<rect width="24" height="24" fill="white"/>
</clipPath>
</defs>
</svg>
