<svg width="24" height="24" viewBox="0 0 24 24" fill="none" xmlns="http://www.w3.org/2000/svg">
<g clip-path="url(#clip0_5303_4132)">
<path d="M23.0001 10.5652V19.1739C23.0001 19.6813 22.7985 20.1679 22.4397 20.5266C22.081 20.8854 21.5944 21.087 21.087 21.087H5.78267C5.2753 21.087 4.78871 20.8854 4.42995 20.5266C4.07118 20.1679 3.86963 19.6813 3.86963 19.1739V10.5652H23.0001Z" fill="#66E1FF"/>
<path d="M18.6957 10.5652H3.86963V19.1739C3.86963 19.6813 4.07118 20.1679 4.42995 20.5266C4.78871 20.8854 5.2753 21.087 5.78267 21.087H8.17398L18.6957 10.5652Z" fill="#C2F3FF"/>
<path d="M23.0001 10.5652H3.86963V8.65218C3.86963 8.14481 4.07118 7.65822 4.42995 7.29945C4.78871 6.94069 5.2753 6.73914 5.78267 6.73914H21.087C21.5944 6.73914 22.081 6.94069 22.4397 7.29945C22.7985 7.65822 23.0001 8.14481 23.0001 8.65218V10.5652Z" fill="white"/>
<path d="M20.1304 6.73914V15.3478C20.1304 15.8552 19.9289 16.3418 19.5701 16.7006C19.2114 17.0593 18.7248 17.2609 18.2174 17.2609H2.91304C2.66182 17.2609 2.41305 17.2114 2.18095 17.1153C1.94885 17.0191 1.73796 16.8782 1.56032 16.7006C1.38267 16.5229 1.24176 16.312 1.14562 16.0799C1.04948 15.8478 1 15.5991 1 15.3478V6.73914H20.1304Z" fill="#66E1FF"/>
<path d="M15.8261 6.73914H1V15.3478C1 15.8552 1.20155 16.3418 1.56032 16.7006C1.91908 17.0593 2.40567 17.2609 2.91304 17.2609H5.30435L15.8261 6.73914Z" fill="#C2F3FF"/>
<path d="M20.1304 6.73911H1V4.82607C1 4.3187 1.20155 3.83212 1.56032 3.47335C1.91908 3.11459 2.40567 2.91302 2.91304 2.91302H18.2174C18.7248 2.91302 19.2114 3.11459 19.5701 3.47335C19.9289 3.83212 20.1304 4.3187 20.1304 4.82607V6.73911Z" fill="white"/>
<path d="M1 6.74292H20.1304" stroke="#191919" stroke-linecap="round" stroke-linejoin="round"/>
<path d="M18.2174 2.91669H2.91304C2.40567 2.91669 1.91908 3.11824 1.56032 3.477C1.20155 3.83577 1 4.32236 1 4.82973V15.3515C1 15.8588 1.20155 16.3454 1.56032 16.7042C1.91908 17.063 2.40567 17.2645 2.91304 17.2645H18.2174C18.4686 17.2645 18.7174 17.215 18.9495 17.1189C19.1816 17.0228 19.3925 16.8818 19.5701 16.7042C19.7478 16.5266 19.8887 16.3157 19.9848 16.0836C20.081 15.8515 20.1304 15.6027 20.1304 15.3515V4.82973C20.1304 4.32236 19.9289 3.83577 19.5701 3.477C19.2114 3.11824 18.7248 2.91669 18.2174 2.91669Z" stroke="#191919" stroke-linecap="round" stroke-linejoin="round"/>
<path d="M20.1299 10.569H22.9994" stroke="#191919" stroke-linecap="round" stroke-linejoin="round"/>
<path d="M20.1305 6.73914H21.087C21.5944 6.73914 22.081 6.94069 22.4397 7.29945C22.7985 7.65822 23.0001 8.14481 23.0001 8.65218V19.1739C23.0001 19.6813 22.7985 20.1679 22.4397 20.5266C22.081 20.8854 21.5944 21.087 21.087 21.087H5.78267C5.2753 21.087 4.78871 20.8854 4.42995 20.5266C4.07118 20.1679 3.86963 19.6813 3.86963 19.1739V17.2609" stroke="#191919" stroke-linecap="round" stroke-linejoin="round"/>
<path d="M5.78259 5.06908C5.71917 5.06908 5.65834 5.04389 5.6135 4.99904C5.56865 4.9542 5.54346 4.89337 5.54346 4.82995C5.54346 4.76653 5.56865 4.70571 5.6135 4.66086C5.65834 4.61601 5.71917 4.59082 5.78259 4.59082" stroke="#191919"/>
<path d="M5.78223 5.06908C5.84565 5.06908 5.90647 5.04389 5.95132 4.99904C5.99616 4.9542 6.02136 4.89337 6.02136 4.82995C6.02136 4.76653 5.99616 4.70571 5.95132 4.66086C5.90647 4.61601 5.84565 4.59082 5.78223 4.59082" stroke="#191919"/>
<path d="M7.69567 5.06908C7.63225 5.06908 7.57143 5.04389 7.52658 4.99904C7.48174 4.9542 7.45654 4.89337 7.45654 4.82995C7.45654 4.76653 7.48174 4.70571 7.52658 4.66086C7.57143 4.61601 7.63225 4.59082 7.69567 4.59082" stroke="#191919"/>
<path d="M7.69531 5.06908C7.75873 5.06908 7.81956 5.04389 7.8644 4.99904C7.90925 4.9542 7.93444 4.89337 7.93444 4.82995C7.93444 4.76653 7.90925 4.70571 7.8644 4.66086C7.81956 4.61601 7.75873 4.59082 7.69531 4.59082" stroke="#191919"/>
<path d="M3.86901 5.06518C3.80559 5.06518 3.74477 5.03998 3.69992 4.99514C3.65508 4.95029 3.62988 4.88947 3.62988 4.82605C3.62988 4.76262 3.65508 4.7018 3.69992 4.65695C3.74477 4.61211 3.80559 4.58691 3.86901 4.58691" stroke="#191919"/>
<path d="M3.86914 5.06518C3.93256 5.06518 3.99339 5.03998 4.03823 4.99514C4.08308 4.95029 4.10827 4.88947 4.10827 4.82605C4.10827 4.76262 4.08308 4.7018 4.03823 4.65695C3.99339 4.61211 3.93256 4.58691 3.86914 4.58691" stroke="#191919"/>
</g>
<defs>
<clipPath id="clip0_5303_4132">
<rect width="24" height="24" fill="white"/>
</clipPath>
</defs>
</svg>
