<svg width="24" height="24" viewBox="0 0 24 24" fill="none" xmlns="http://www.w3.org/2000/svg">
<g clip-path="url(#clip0_5303_4061)">
<path d="M23 7.21545V19.6503C23 20.1576 22.7985 20.6442 22.4397 21.003C22.0809 21.3618 21.5943 21.5633 21.087 21.5633H2.91304C2.40568 21.5633 1.91908 21.3618 1.56032 21.003C1.20155 20.6442 1 20.1576 1 19.6503V7.21545H23Z" fill="#66E1FF"/>
<path d="M2.91304 21.5633H4.82609L19.1739 7.21545H1V19.6503C1 20.1576 1.20155 20.6442 1.56032 21.003C1.91908 21.3618 2.40568 21.5633 2.91304 21.5633Z" fill="#C2F3FF"/>
<path d="M12.9564 14.3893C12.9571 13.6113 12.7676 12.8448 12.4045 12.1567C12.0414 11.4685 11.5157 10.8795 10.8731 10.4408L8.17383 14.3893L11.2395 18.0595C11.7774 17.6112 12.2102 17.05 12.507 16.4158C12.8037 15.7814 12.9571 15.0897 12.9564 14.3893Z" fill="#78EB7B"/>
<path d="M10.873 10.4409C10.1545 9.94961 9.31547 9.66374 8.44645 9.61411C7.57743 9.56447 6.71133 9.75294 5.94152 10.1592C5.1717 10.5655 4.52736 11.1741 4.07792 11.9196C3.62849 12.665 3.39103 13.519 3.39111 14.3894H8.17372L10.873 10.4409Z" fill="#FFBFC5"/>
<path d="M3.39111 14.3894C3.39124 15.2988 3.65064 16.1893 4.13888 16.9565C4.62713 17.7237 5.324 18.3358 6.14776 18.721C6.97153 19.1063 7.88805 19.2486 8.78986 19.1315C9.69166 19.0144 10.5414 18.6425 11.2394 18.0596L8.17372 14.3894H3.39111Z" fill="#FFEF5E"/>
<path d="M23 6.7372H1V3.86763C1 3.36027 1.20155 2.87367 1.56032 2.51491C1.91908 2.15614 2.40568 1.95459 2.91304 1.95459H21.087C21.5943 1.95459 22.0809 2.15614 22.4397 2.51491C22.7985 2.87367 23 3.36027 23 3.86763V6.7372Z" fill="white"/>
<path d="M21.087 1.95831H2.91304C1.8565 1.95831 1 2.81481 1 3.87136V20.1322C1 21.1888 1.8565 22.0452 2.91304 22.0452H21.087C22.1435 22.0452 23 21.1888 23 20.1322V3.87136C23 2.81481 22.1435 1.95831 21.087 1.95831Z" stroke="#191919" stroke-linecap="round" stroke-linejoin="round"/>
<path d="M1 6.74109H23" stroke="#191919" stroke-linecap="round" stroke-linejoin="round"/>
<path d="M10.0868 4.58501C9.95472 4.58501 9.84766 4.47795 9.84766 4.34588C9.84766 4.21381 9.95472 4.10675 10.0868 4.10675" stroke="#191919"/>
<path d="M10.0864 4.58501C10.2185 4.58501 10.3256 4.47795 10.3256 4.34588C10.3256 4.21381 10.2185 4.10675 10.0864 4.10675" stroke="#191919"/>
<path d="M8.17372 19.1758C10.8151 19.1758 12.9563 17.0347 12.9563 14.3932C12.9563 11.7519 10.8151 9.61066 8.17372 9.61066C5.53236 9.61066 3.39111 11.7519 3.39111 14.3932C3.39111 17.0347 5.53236 19.1758 8.17372 19.1758Z" stroke="#191919" stroke-linecap="round" stroke-linejoin="round"/>
<path d="M10.8722 10.4447L8.17383 14.3932L11.2395 18.0634" stroke="#191919" stroke-linecap="round" stroke-linejoin="round"/>
<path d="M8.17372 14.3932H3.39111" stroke="#191919" stroke-linecap="round" stroke-linejoin="round"/>
<path d="M14.8696 10.5671H20.6088" stroke="#191919" stroke-linecap="round" stroke-linejoin="round"/>
<path d="M14.8696 13.4367H20.6088" stroke="#191919" stroke-linecap="round" stroke-linejoin="round"/>
<path d="M14.8696 16.3063H20.6088" stroke="#191919" stroke-linecap="round" stroke-linejoin="round"/>
<path d="M4.34753 4.58892C4.21546 4.58892 4.1084 4.48185 4.1084 4.34979C4.1084 4.21772 4.21546 4.11066 4.34753 4.11066" stroke="#191919"/>
<path d="M4.34766 4.58892C4.47972 4.58892 4.58679 4.48185 4.58679 4.34979C4.58679 4.21772 4.47972 4.11066 4.34766 4.11066" stroke="#191919"/>
<path d="M7.21716 4.59276C7.08509 4.59276 6.97803 4.4857 6.97803 4.35363C6.97803 4.22157 7.08509 4.1145 7.21716 4.1145" stroke="#191919"/>
<path d="M7.21729 4.59276C7.34935 4.59276 7.45642 4.4857 7.45642 4.35363C7.45642 4.22157 7.34935 4.1145 7.21729 4.1145" stroke="#191919"/>
</g>
<defs>
<clipPath id="clip0_5303_4061">
<rect width="24" height="24" fill="white"/>
</clipPath>
</defs>
</svg>
