<svg width="24" height="24" viewBox="0 0 24 24" fill="none" xmlns="http://www.w3.org/2000/svg">
<path d="M17.6876 13.2292C17.7052 11.607 18.5556 10.1078 19.9389 9.26029C19.0605 8.01381 17.6497 7.2498 16.1258 7.19545C14.5 7.03091 12.9602 8.1518 12.1358 8.1518C11.3114 8.1518 10.0423 7.21643 8.69764 7.24326C6.89999 7.2943 5.2617 8.28705 4.38439 9.85703C2.54722 13.0456 3.91578 17.7719 5.70709 20.3599C6.58117 21.6252 7.62653 23.0473 8.99606 22.9947C10.3168 22.9431 10.8131 22.1417 12.4112 22.1417C14.0094 22.1417 14.4541 22.9947 15.8542 22.9689C17.2744 22.9431 18.1743 21.6797 19.0427 20.4096C19.6644 19.4963 20.1511 18.4969 20.4868 17.4449C18.7958 16.7246 17.6953 15.0673 17.6876 13.2292Z" fill="white"/>
<path d="M18.8168 16.237C13.8913 18.6529 8.03046 18.1249 3.61621 14.8674C3.89121 16.8333 4.60584 18.712 5.70682 20.3637C6.58091 21.629 7.62626 23.0512 8.99579 22.9986C10.3165 22.9469 10.8129 22.1455 12.411 22.1455C14.0091 22.1455 14.4538 22.9986 15.8539 22.9727C17.2742 22.9469 18.1741 21.6835 19.0425 20.4135C19.6641 19.5001 20.151 18.5007 20.4866 17.4487C19.8486 17.1708 19.2788 16.7573 18.8168 16.237Z" fill="#E3E3E3"/>
<path d="M17.6876 13.2292C17.7052 11.607 18.5556 10.1078 19.9389 9.26029C19.0605 8.01381 17.6497 7.2498 16.1258 7.19545C14.5 7.03091 12.9602 8.1518 12.1358 8.1518C11.3114 8.1518 10.0423 7.21643 8.69764 7.24326C6.89999 7.2943 5.2617 8.28705 4.38439 9.85703C2.54722 13.0456 3.91578 17.7719 5.70709 20.3599C6.58117 21.6252 7.62653 23.0473 8.99606 22.9947C10.3168 22.9431 10.8131 22.1417 12.4112 22.1417C14.0094 22.1417 14.4541 22.9947 15.8542 22.9689C17.2744 22.9431 18.1743 21.6797 19.0427 20.4096C19.6644 19.4963 20.1511 18.4969 20.4868 17.4449C18.7958 16.7246 17.6953 15.0673 17.6876 13.2292Z" stroke="#191919" stroke-linecap="round" stroke-linejoin="round"/>
<path d="M15.2333 4.51274C16.0629 3.53843 16.4742 2.27605 16.3781 1C15.1247 1.12081 13.965 1.71658 13.1369 2.66503C12.304 3.59523 11.8837 4.82336 11.972 6.06877C13.2419 6.08526 14.4472 5.51018 15.2333 4.51274Z" fill="#E3E3E3" stroke="#191919" stroke-linecap="round" stroke-linejoin="round"/>
</svg>
