<svg width="24" height="24" viewBox="0 0 24 24" fill="none" xmlns="http://www.w3.org/2000/svg">
<path d="M21 22C21 22.2652 20.8946 22.5196 20.7071 22.7071C20.5196 22.8946 20.2652 23 20 23H4C3.73478 23 3.48043 22.8946 3.29289 22.7071C3.10536 22.5196 3 22.2652 3 22V2C3 1.73478 3.10536 1.48043 3.29289 1.29289C3.48043 1.10536 3.73478 1 4 1H20C20.2652 1 20.5196 1.10536 20.7071 1.29289C20.8946 1.48043 21 1.73478 21 2V22Z" fill="#FFBC44"/>
<path d="M20 1H4C3.73478 1 3.48043 1.10536 3.29289 1.29289C3.10536 1.48043 3 1.73478 3 2V4.788C3 4.52278 3.10536 4.26843 3.29289 4.08089C3.48043 3.89336 3.73478 3.788 4 3.788H20C20.2652 3.788 20.5196 3.89336 20.7071 4.08089C20.8946 4.26843 21 4.52278 21 4.788V2C21 1.73478 20.8946 1.48043 20.7071 1.29289C20.5196 1.10536 20.2652 1 20 1Z" fill="#FFDDA1"/>
<path d="M21 22C21 22.2652 20.8946 22.5196 20.7071 22.7071C20.5196 22.8946 20.2652 23 20 23H4C3.73478 23 3.48043 22.8946 3.29289 22.7071C3.10536 22.5196 3 22.2652 3 22V2C3 1.73478 3.10536 1.48043 3.29289 1.29289C3.48043 1.10536 3.73478 1 4 1H20C20.2652 1 20.5196 1.10536 20.7071 1.29289C20.8946 1.48043 21 1.73478 21 2V22Z" stroke="#191919" stroke-linecap="round" stroke-linejoin="round"/>
<path d="M3.03076 8H20.9998" stroke="#191919" stroke-linecap="round" stroke-linejoin="round"/>
<path d="M3.03076 15H20.9998" stroke="#191919" stroke-linecap="round" stroke-linejoin="round"/>
<path d="M13.9193 5.724C13.8777 5.80695 13.8139 5.87669 13.735 5.92544C13.656 5.97418 13.5651 6 13.4723 6H10.5903C10.4975 6 10.4066 5.97418 10.3276 5.92544C10.2487 5.87669 10.1849 5.80695 10.1433 5.724L9.64331 4.724C9.60511 4.64777 9.58704 4.56304 9.59082 4.47786C9.5946 4.39268 9.62009 4.30988 9.66488 4.23733C9.70968 4.16478 9.77228 4.10489 9.84674 4.06335C9.9212 4.02181 10.005 4 10.0903 4H13.9723C14.0574 4.00009 14.1411 4.02191 14.2155 4.0634C14.2898 4.10488 14.3523 4.16466 14.3971 4.23707C14.4418 4.30947 14.4674 4.39211 14.4713 4.47715C14.4752 4.56218 14.4573 4.64681 14.4193 4.723L13.9193 5.724Z" fill="#C77F67"/>
<path d="M13.9188 12.723C13.8772 12.8059 13.8134 12.8757 13.7345 12.9244C13.6555 12.9732 13.5646 12.999 13.4718 12.999H10.5898C10.497 12.999 10.4061 12.9732 10.3271 12.9244C10.2482 12.8757 10.1844 12.8059 10.1428 12.723L9.64282 11.723C9.60485 11.6468 9.58696 11.5622 9.59085 11.4771C9.59474 11.3921 9.62028 11.3095 9.66504 11.2371C9.70981 11.1647 9.77232 11.1049 9.84665 11.0634C9.92099 11.0219 10.0047 11.0001 10.0898 11H13.9718C14.0569 11.0001 14.1406 11.0219 14.215 11.0634C14.2893 11.1049 14.3518 11.1647 14.3966 11.2371C14.4413 11.3095 14.4669 11.3921 14.4708 11.4771C14.4747 11.5622 14.4568 11.6468 14.4188 11.723L13.9188 12.723Z" fill="#C77F67"/>
<path d="M13.9193 20.724C13.8777 20.8069 13.8139 20.8767 13.735 20.9254C13.656 20.9742 13.5651 21 13.4723 21H10.5903C10.4975 21 10.4066 20.9742 10.3276 20.9254C10.2487 20.8767 10.1849 20.8069 10.1433 20.724L9.64331 19.724C9.60511 19.6478 9.58704 19.563 9.59082 19.4779C9.5946 19.3927 9.62009 19.3099 9.66488 19.2373C9.70968 19.1648 9.77228 19.1049 9.84674 19.0633C9.9212 19.0218 10.005 19 10.0903 19H13.9723C14.0574 19.0001 14.1411 19.0219 14.2155 19.0634C14.2898 19.1049 14.3523 19.1647 14.3971 19.2371C14.4418 19.3095 14.4674 19.3921 14.4713 19.4771C14.4752 19.5622 14.4573 19.6468 14.4193 19.723L13.9193 20.724Z" fill="#C77F67"/>
<path d="M13.9193 5.724C13.8777 5.80695 13.8139 5.87669 13.735 5.92544C13.656 5.97418 13.5651 6 13.4723 6H10.5903C10.4975 6 10.4066 5.97418 10.3276 5.92544C10.2487 5.87669 10.1849 5.80695 10.1433 5.724L9.64331 4.724C9.60511 4.64777 9.58704 4.56304 9.59082 4.47786C9.5946 4.39268 9.62009 4.30988 9.66488 4.23733C9.70968 4.16478 9.77228 4.10489 9.84674 4.06335C9.9212 4.02181 10.005 4 10.0903 4H13.9723C14.0574 4.00009 14.1411 4.02191 14.2155 4.0634C14.2898 4.10488 14.3523 4.16466 14.3971 4.23707C14.4418 4.30947 14.4674 4.39211 14.4713 4.47715C14.4752 4.56218 14.4573 4.64681 14.4193 4.723L13.9193 5.724Z" stroke="#191919" stroke-linecap="round" stroke-linejoin="round"/>
<path d="M13.9188 12.723C13.8772 12.8059 13.8134 12.8757 13.7345 12.9244C13.6555 12.9732 13.5646 12.999 13.4718 12.999H10.5898C10.497 12.999 10.4061 12.9732 10.3271 12.9244C10.2482 12.8757 10.1844 12.8059 10.1428 12.723L9.64282 11.723C9.60485 11.6468 9.58696 11.5622 9.59085 11.4771C9.59474 11.3921 9.62028 11.3095 9.66504 11.2371C9.70981 11.1647 9.77232 11.1049 9.84665 11.0634C9.92099 11.0219 10.0047 11.0001 10.0898 11H13.9718C14.0569 11.0001 14.1406 11.0219 14.215 11.0634C14.2893 11.1049 14.3518 11.1647 14.3966 11.2371C14.4413 11.3095 14.4669 11.3921 14.4708 11.4771C14.4747 11.5622 14.4568 11.6468 14.4188 11.723L13.9188 12.723Z" stroke="#191919" stroke-linecap="round" stroke-linejoin="round"/>
<path d="M13.9193 20.724C13.8777 20.8069 13.8139 20.8767 13.735 20.9254C13.656 20.9742 13.5651 21 13.4723 21H10.5903C10.4975 21 10.4066 20.9742 10.3276 20.9254C10.2487 20.8767 10.1849 20.8069 10.1433 20.724L9.64331 19.724C9.60511 19.6478 9.58704 19.563 9.59082 19.4779C9.5946 19.3927 9.62009 19.3099 9.66488 19.2373C9.70968 19.1648 9.77228 19.1049 9.84674 19.0633C9.9212 19.0218 10.005 19 10.0903 19H13.9723C14.0574 19.0001 14.1411 19.0219 14.2155 19.0634C14.2898 19.1049 14.3523 19.1647 14.3971 19.2371C14.4418 19.3095 14.4674 19.3921 14.4713 19.4771C14.4752 19.5622 14.4573 19.6468 14.4193 19.723L13.9193 20.724Z" stroke="#191919" stroke-linecap="round" stroke-linejoin="round"/>
</svg>
