<svg width="24" height="24" viewBox="0 0 24 24" fill="none" xmlns="http://www.w3.org/2000/svg">
<g clip-path="url(#clip0_5303_5266)">
<path d="M8.1744 22.0435C8.1744 22.2971 8.07362 22.5405 7.89425 22.7198C7.71486 22.8992 7.47157 23 7.21788 23H1.95701C1.70332 23 1.46003 22.8992 1.28065 22.7198C1.10126 22.5405 1.00049 22.2971 1.00049 22.0435V1.95652C1.00049 1.70283 1.10126 1.45954 1.28065 1.28016C1.46003 1.10078 1.70332 1 1.95701 1H7.21788C7.47157 1 7.71486 1.10078 7.89425 1.28016C8.07362 1.45954 8.1744 1.70283 8.1744 1.95652V22.0435Z" fill="#FFEF5E"/>
<path d="M15.8265 22.0435C15.8265 22.2971 15.7257 22.5405 15.5463 22.7198C15.367 22.8992 15.1236 23 14.87 23H9.13084C8.87715 23 8.63386 22.8992 8.45447 22.7198C8.2751 22.5405 8.17432 22.2971 8.17432 22.0435V1.95652C8.17432 1.70283 8.2751 1.45954 8.45447 1.28016C8.63386 1.10078 8.87715 1 9.13084 1H14.87C15.1236 1 15.367 1.10078 15.5463 1.28016C15.7257 1.45954 15.8265 1.70283 15.8265 1.95652V22.0435Z" fill="#FFBC44"/>
<path d="M23.0001 22.0435C23.0001 22.2971 22.8993 22.5405 22.7199 22.7198C22.5406 22.8992 22.2972 23 22.0436 23H16.7827C16.529 23 16.2857 22.8992 16.1063 22.7198C15.927 22.5405 15.8262 22.2971 15.8262 22.0435V1.95652C15.8262 1.70283 15.927 1.45954 16.1063 1.28016C16.2857 1.10078 16.529 1 16.7827 1H22.0436C22.2972 1 22.5406 1.10078 22.7199 1.28016C22.8993 1.45954 23.0001 1.70283 23.0001 1.95652V22.0435Z" fill="#78EB7B"/>
<path d="M4.34787 20.1304C4.63164 20.1304 4.90904 20.0462 5.145 19.8886C5.38094 19.731 5.56484 19.5069 5.67344 19.2447C5.78203 18.9825 5.81045 18.694 5.75508 18.4158C5.69972 18.1374 5.56307 17.8817 5.36241 17.681C5.16175 17.4805 4.9061 17.3438 4.62779 17.2884C4.34946 17.233 4.06097 17.2615 3.7988 17.3701C3.53663 17.4786 3.31255 17.6626 3.15489 17.8985C2.99723 18.1344 2.91309 18.4118 2.91309 18.6956C2.91309 19.0761 3.06425 19.4411 3.33332 19.7102C3.60239 19.9793 3.96735 20.1304 4.34787 20.1304Z" fill="white"/>
<path d="M12.0002 20.1304C12.284 20.1304 12.5614 20.0462 12.7974 19.8886C13.0333 19.731 13.2172 19.5069 13.3258 19.2447C13.4344 18.9825 13.4628 18.694 13.4074 18.4158C13.3521 18.1374 13.2154 17.8817 13.0148 17.681C12.8141 17.4805 12.5584 17.3438 12.2801 17.2884C12.0018 17.233 11.7134 17.2615 11.4512 17.3701C11.189 17.4786 10.9649 17.6626 10.8072 17.8985C10.6496 18.1344 10.5654 18.4118 10.5654 18.6956C10.5654 19.0761 10.7166 19.4411 10.9856 19.7102C11.2547 19.9793 11.6197 20.1304 12.0002 20.1304Z" fill="white"/>
<path d="M19.6526 20.1304C19.9364 20.1304 20.2137 20.0462 20.4497 19.8886C20.6856 19.731 20.8695 19.5069 20.9781 19.2447C21.0867 18.9825 21.1152 18.694 21.0598 18.4158C21.0044 18.1374 20.8677 17.8817 20.6671 17.681C20.4665 17.4805 20.2108 17.3438 19.9324 17.2884C19.6542 17.233 19.3657 17.2615 19.1035 17.3701C18.8413 17.4786 18.6172 17.6626 18.4596 17.8985C18.3019 18.1344 18.2178 18.4118 18.2178 18.6956C18.2178 19.0761 18.3689 19.4411 18.638 19.7102C18.907 19.9793 19.2721 20.1304 19.6526 20.1304Z" fill="white"/>
<path d="M5.78265 3.39123V5.78253H2.91309V3.39123C2.91309 3.26438 2.96348 3.14273 3.05317 3.05305C3.14285 2.96335 3.2645 2.91296 3.39135 2.91296H5.30439C5.43123 2.91296 5.55289 2.96335 5.64257 3.05305C5.73226 3.14273 5.78265 3.26438 5.78265 3.39123Z" fill="#FF808C"/>
<path d="M5.78265 5.78253V13.913C5.78265 14.0398 5.73226 14.1615 5.64257 14.2512C5.55289 14.3408 5.43123 14.3913 5.30439 14.3913H3.39135C3.2645 14.3913 3.14285 14.3408 3.05317 14.2512C2.96348 14.1615 2.91309 14.0398 2.91309 13.913V5.78253H5.78265Z" fill="white"/>
<path d="M13.435 3.39123V5.78253H10.5654V3.39123C10.5654 3.26438 10.6158 3.14273 10.7055 3.05305C10.7952 2.96335 10.9169 2.91296 11.0437 2.91296H12.9567C13.0836 2.91296 13.2052 2.96335 13.295 3.05305C13.3846 3.14273 13.435 3.26438 13.435 3.39123Z" fill="#FF808C"/>
<path d="M13.435 5.78253V13.913C13.435 14.0398 13.3846 14.1615 13.295 14.2512C13.2052 14.3408 13.0836 14.3913 12.9567 14.3913H11.0437C10.9169 14.3913 10.7952 14.3408 10.7055 14.2512C10.6158 14.1615 10.5654 14.0398 10.5654 13.913V5.78253H13.435Z" fill="white"/>
<path d="M21.0873 3.39123V5.78253H18.2178V3.39123C18.2178 3.26438 18.2682 3.14273 18.3578 3.05305C18.4475 2.96335 18.5692 2.91296 18.696 2.91296H20.6091C20.7359 2.91296 20.8576 2.96335 20.9473 3.05305C21.0369 3.14273 21.0873 3.26438 21.0873 3.39123Z" fill="#FF808C"/>
<path d="M21.0873 5.78253V13.913C21.0873 14.0398 21.0369 14.1615 20.9473 14.2512C20.8576 14.3408 20.7359 14.3913 20.6091 14.3913H18.696C18.5692 14.3913 18.4475 14.3408 18.3578 14.2512C18.2682 14.1615 18.2178 14.0398 18.2178 13.913V5.78253H21.0873Z" fill="white"/>
<path d="M8.1744 22.0435C8.1744 22.2971 8.07362 22.5405 7.89425 22.7198C7.71486 22.8992 7.47157 23 7.21788 23H1.95701C1.70332 23 1.46003 22.8992 1.28065 22.7198C1.10126 22.5405 1.00049 22.2971 1.00049 22.0435V1.95652C1.00049 1.70283 1.10126 1.45954 1.28065 1.28016C1.46003 1.10078 1.70332 1 1.95701 1H7.21788C7.47157 1 7.71486 1.10078 7.89425 1.28016C8.07362 1.45954 8.1744 1.70283 8.1744 1.95652V22.0435Z" stroke="#191919" stroke-linecap="round" stroke-linejoin="round"/>
<path d="M15.8265 22.0435C15.8265 22.2971 15.7257 22.5405 15.5463 22.7198C15.367 22.8992 15.1236 23 14.87 23H9.13084C8.87715 23 8.63386 22.8992 8.45447 22.7198C8.2751 22.5405 8.17432 22.2971 8.17432 22.0435V1.95652C8.17432 1.70283 8.2751 1.45954 8.45447 1.28016C8.63386 1.10078 8.87715 1 9.13084 1H14.87C15.1236 1 15.367 1.10078 15.5463 1.28016C15.7257 1.45954 15.8265 1.70283 15.8265 1.95652V22.0435Z" stroke="#191919" stroke-linecap="round" stroke-linejoin="round"/>
<path d="M23.0001 22.0435C23.0001 22.2971 22.8993 22.5405 22.7199 22.7198C22.5406 22.8992 22.2972 23 22.0436 23H16.7827C16.529 23 16.2857 22.8992 16.1063 22.7198C15.927 22.5405 15.8262 22.2971 15.8262 22.0435V1.95652C15.8262 1.70283 15.927 1.45954 16.1063 1.28016C16.2857 1.10078 16.529 1 16.7827 1H22.0436C22.2972 1 22.5406 1.10078 22.7199 1.28016C22.8993 1.45954 23.0001 1.70283 23.0001 1.95652V22.0435Z" stroke="#191919" stroke-linecap="round" stroke-linejoin="round"/>
<path d="M4.34787 20.1304C4.63164 20.1304 4.90904 20.0462 5.145 19.8886C5.38094 19.731 5.56484 19.5069 5.67344 19.2447C5.78203 18.9825 5.81045 18.694 5.75508 18.4158C5.69972 18.1374 5.56307 17.8817 5.36241 17.681C5.16175 17.4805 4.9061 17.3438 4.62779 17.2884C4.34946 17.233 4.06097 17.2615 3.7988 17.3701C3.53663 17.4786 3.31255 17.6626 3.15489 17.8985C2.99723 18.1344 2.91309 18.4118 2.91309 18.6956C2.91309 19.0761 3.06425 19.4411 3.33332 19.7102C3.60239 19.9793 3.96735 20.1304 4.34787 20.1304Z" stroke="#191919" stroke-linecap="round" stroke-linejoin="round"/>
<path d="M12.0002 20.1304C12.284 20.1304 12.5614 20.0462 12.7974 19.8886C13.0333 19.731 13.2172 19.5069 13.3258 19.2447C13.4344 18.9825 13.4628 18.694 13.4074 18.4158C13.3521 18.1374 13.2154 17.8817 13.0148 17.681C12.8141 17.4805 12.5584 17.3438 12.2801 17.2884C12.0018 17.233 11.7134 17.2615 11.4512 17.3701C11.189 17.4786 10.9649 17.6626 10.8072 17.8985C10.6496 18.1344 10.5654 18.4118 10.5654 18.6956C10.5654 19.0761 10.7166 19.4411 10.9856 19.7102C11.2547 19.9793 11.6197 20.1304 12.0002 20.1304Z" stroke="#191919" stroke-linecap="round" stroke-linejoin="round"/>
<path d="M19.6526 20.1304C19.9364 20.1304 20.2137 20.0462 20.4497 19.8886C20.6856 19.731 20.8695 19.5069 20.9781 19.2447C21.0867 18.9825 21.1152 18.694 21.0598 18.4158C21.0044 18.1374 20.8677 17.8817 20.6671 17.681C20.4665 17.4805 20.2108 17.3438 19.9324 17.2884C19.6542 17.233 19.3657 17.2615 19.1035 17.3701C18.8413 17.4786 18.6172 17.6626 18.4596 17.8985C18.3019 18.1344 18.2178 18.4118 18.2178 18.6956C18.2178 19.0761 18.3689 19.4411 18.638 19.7102C18.907 19.9793 19.2721 20.1304 19.6526 20.1304Z" stroke="#191919" stroke-linecap="round" stroke-linejoin="round"/>
<path d="M5.78265 3.39123V5.78253H2.91309V3.39123C2.91309 3.26438 2.96348 3.14273 3.05317 3.05305C3.14285 2.96335 3.2645 2.91296 3.39135 2.91296H5.30439C5.43123 2.91296 5.55289 2.96335 5.64257 3.05305C5.73226 3.14273 5.78265 3.26438 5.78265 3.39123Z" stroke="#191919" stroke-linecap="round" stroke-linejoin="round"/>
<path d="M5.78265 5.78253V13.913C5.78265 14.0398 5.73226 14.1615 5.64257 14.2512C5.55289 14.3408 5.43123 14.3913 5.30439 14.3913H3.39135C3.2645 14.3913 3.14285 14.3408 3.05317 14.2512C2.96348 14.1615 2.91309 14.0398 2.91309 13.913V5.78253H5.78265Z" stroke="#191919" stroke-linecap="round" stroke-linejoin="round"/>
<path d="M13.435 3.39123V5.78253H10.5654V3.39123C10.5654 3.26438 10.6158 3.14273 10.7055 3.05305C10.7952 2.96335 10.9169 2.91296 11.0437 2.91296H12.9567C13.0836 2.91296 13.2052 2.96335 13.295 3.05305C13.3846 3.14273 13.435 3.26438 13.435 3.39123Z" stroke="#191919" stroke-linecap="round" stroke-linejoin="round"/>
<path d="M13.435 5.78253V13.913C13.435 14.0398 13.3846 14.1615 13.295 14.2512C13.2052 14.3408 13.0836 14.3913 12.9567 14.3913H11.0437C10.9169 14.3913 10.7952 14.3408 10.7055 14.2512C10.6158 14.1615 10.5654 14.0398 10.5654 13.913V5.78253H13.435Z" stroke="#191919" stroke-linecap="round" stroke-linejoin="round"/>
<path d="M21.0873 3.39123V5.78253H18.2178V3.39123C18.2178 3.26438 18.2682 3.14273 18.3578 3.05305C18.4475 2.96335 18.5692 2.91296 18.696 2.91296H20.6091C20.7359 2.91296 20.8576 2.96335 20.9473 3.05305C21.0369 3.14273 21.0873 3.26438 21.0873 3.39123Z" stroke="#191919" stroke-linecap="round" stroke-linejoin="round"/>
<path d="M21.0873 5.78253V13.913C21.0873 14.0398 21.0369 14.1615 20.9473 14.2512C20.8576 14.3408 20.7359 14.3913 20.6091 14.3913H18.696C18.5692 14.3913 18.4475 14.3408 18.3578 14.2512C18.2682 14.1615 18.2178 14.0398 18.2178 13.913V5.78253H21.0873Z" stroke="#191919" stroke-linecap="round" stroke-linejoin="round"/>
</g>
<defs>
<clipPath id="clip0_5303_5266">
<rect width="24" height="24" fill="white"/>
</clipPath>
</defs>
</svg>
