<svg width="24" height="24" viewBox="0 0 24 24" fill="none" xmlns="http://www.w3.org/2000/svg">
<path d="M12.0002 20.9833C16.9617 20.9833 20.9838 16.9612 20.9838 11.9997C20.9838 7.0382 16.9617 3.01605 12.0002 3.01605C7.03866 3.01605 3.0166 7.0382 3.0166 11.9997C3.0166 16.9612 7.03866 20.9833 12.0002 20.9833Z" fill="#C2F3FF"/>
<path d="M6.16064 5.26019V18.7356" stroke="#191919" stroke-linecap="round" stroke-linejoin="round"/>
<path d="M3.46533 16.0405L6.16042 18.7356L8.85552 16.0405" stroke="#191919" stroke-linecap="round" stroke-linejoin="round"/>
<path d="M15.5933 8.85364H20.0851" stroke="#191919" stroke-linecap="round" stroke-linejoin="round"/>
<path d="M17.8392 8.85545V2.11767C17.8391 2.03316 17.8151 1.95038 17.77 1.87888C17.725 1.80738 17.6607 1.75 17.5845 1.71342C17.5083 1.67685 17.4233 1.66246 17.3393 1.67199C17.2554 1.68152 17.1757 1.71462 17.1097 1.76732L15.5933 2.97833" stroke="#191919" stroke-linecap="round" stroke-linejoin="round"/>
<path d="M17.39 19.6338C18.6303 19.6338 19.6358 18.6284 19.6358 17.388C19.6358 16.1476 18.6303 15.1421 17.39 15.1421C16.1496 15.1421 15.144 16.1476 15.144 17.388C15.144 18.6284 16.1496 19.6338 17.39 19.6338Z" stroke="#191919" stroke-linecap="round" stroke-linejoin="round"/>
<path d="M19.636 17.3898V19.6357C19.636 20.3504 19.352 21.036 18.8465 21.5414C18.3411 22.0468 17.6556 22.3308 16.9409 22.3308H16.4917" stroke="#191919" stroke-linecap="round" stroke-linejoin="round"/>
</svg>
