<svg width="24" height="24" viewBox="0 0 24 24" fill="none" xmlns="http://www.w3.org/2000/svg">
<path d="M11.9999 20.9053C17.177 20.9053 21.3738 16.7084 21.3738 11.5313C21.3738 6.35428 17.177 2.15741 11.9999 2.15741C6.82284 2.15741 2.62598 6.35428 2.62598 11.5313C2.62598 16.7084 6.82284 20.9053 11.9999 20.9053Z" fill="#C2F3FF"/>
<path d="M5.90674 4.49902V18.5599" stroke="#191919" stroke-linecap="round" stroke-linejoin="round"/>
<path d="M3.09473 15.7477L5.90688 18.5598L8.71912 15.7477" stroke="#191919" stroke-linecap="round" stroke-linejoin="round"/>
<path d="M19.874 22.3113H16.4994C16.4157 22.3113 16.3336 22.2889 16.2616 22.2464C16.1894 22.204 16.13 22.1429 16.0895 22.0698C16.049 21.9966 16.0287 21.9139 16.0309 21.8303C16.0331 21.7467 16.0577 21.6651 16.102 21.5942L19.8928 15.5292C19.9369 15.4586 19.9615 15.3774 19.9639 15.294C19.9662 15.2107 19.9464 15.1283 19.9062 15.0553C19.8661 14.9822 19.8072 14.9211 19.7357 14.8784C19.664 14.8357 19.5825 14.8128 19.4991 14.8121H16.1245" stroke="#191919" stroke-linecap="round" stroke-linejoin="round"/>
<path d="M16.2183 9.18788V3.56349C16.2183 3.06629 16.4158 2.58944 16.7674 2.2378C17.1191 1.88626 17.5959 1.68872 18.0931 1.68872C18.5902 1.68872 19.0671 1.88626 19.4187 2.2378C19.7703 2.58944 19.9679 3.06629 19.9679 3.56349V9.18788" stroke="#191919" stroke-linecap="round" stroke-linejoin="round"/>
<path d="M16.2183 5.4364H19.9679" stroke="#191919" stroke-linecap="round" stroke-linejoin="round"/>
</svg>
