<svg width="24" height="24" viewBox="0 0 24 24" fill="none" xmlns="http://www.w3.org/2000/svg">
<g clip-path="url(#clip0_5303_3137)">
<path d="M3.75 15.6065V1.9706C3.75 1.71318 3.85226 1.4663 4.03428 1.28428C4.2163 1.10226 4.46318 1 4.7206 1H19.2795C19.5369 1 19.7838 1.10226 19.9658 1.28428C20.1479 1.4663 20.2501 1.71318 20.2501 1.9706V15.6065C20.2501 15.744 20.2208 15.8799 20.1642 16.0052C20.1077 16.1306 20.0251 16.2424 19.9221 16.3335L12.6426 22.7569C12.4652 22.9135 12.2367 23 12.0001 23C11.7634 23 11.5349 22.9135 11.3575 22.7569L4.07806 16.3335C3.97501 16.2424 3.89247 16.1306 3.83591 16.0052C3.77935 15.8799 3.75007 15.744 3.75 15.6065Z" fill="#FFBFC5"/>
<path d="M3.90234 16.0947C3.94794 16.183 4.00723 16.2636 4.07802 16.3334L11.3575 22.7568C11.5349 22.9135 11.7634 23 12 23C12.2367 23 12.4652 22.9135 12.6426 22.7568L19.922 16.3334C20.0251 16.2424 20.1076 16.1305 20.1642 16.0052C20.2207 15.8799 20.25 15.744 20.2501 15.6065V1.97055C20.249 1.71593 20.1479 1.47192 19.9686 1.29114L3.90234 16.0947Z" fill="#FF808C"/>
<path d="M3.75 15.6065V1.9706C3.75 1.71318 3.85226 1.4663 4.03428 1.28428C4.2163 1.10226 4.46318 1 4.7206 1H19.2795C19.5369 1 19.7838 1.10226 19.9658 1.28428C20.1479 1.4663 20.2501 1.71318 20.2501 1.9706V15.6065C20.2501 15.744 20.2208 15.8799 20.1642 16.0052C20.1077 16.1306 20.0251 16.2424 19.9221 16.3335L12.6426 22.7569C12.4652 22.9135 12.2367 23 12.0001 23C11.7634 23 11.5349 22.9135 11.3575 22.7569L4.07806 16.3335C3.97501 16.2424 3.89247 16.1306 3.83591 16.0052C3.77935 15.8799 3.75007 15.744 3.75 15.6065Z" stroke="#191919" stroke-linecap="round" stroke-linejoin="round"/>
</g>
<defs>
<clipPath id="clip0_5303_3137">
<rect width="24" height="24" fill="white"/>
</clipPath>
</defs>
</svg>
