<svg width="24" height="24" viewBox="0 0 24 24" fill="none" xmlns="http://www.w3.org/2000/svg">
<g clip-path="url(#clip0_5303_3151)">
<path d="M22.0413 1H1.95875C1.70512 1 1.46188 1.10075 1.28254 1.2801C1.1032 1.45944 1.00244 1.70268 1.00244 1.95631V22.0389C1.00244 22.2925 1.1032 22.5358 1.28254 22.7151C1.46188 22.8944 1.70512 22.9952 1.95875 22.9952H22.0413C22.295 22.9952 22.5382 22.8944 22.7175 22.7151C22.8969 22.5358 22.9976 22.2925 22.9976 22.0389V1.95631C22.9976 1.70268 22.8969 1.45944 22.7175 1.2801C22.5382 1.10075 22.295 1 22.0413 1ZM10.5656 18.6918V10.5631L7.55701 13.5726C7.49019 13.6396 7.40501 13.6853 7.31223 13.7038C7.21945 13.7224 7.12326 13.713 7.03582 13.6769C6.94838 13.6407 6.87363 13.5795 6.82103 13.5008C6.76843 13.4222 6.74034 13.3297 6.74032 13.2351V10.3001C6.74036 10.2335 6.75433 10.1676 6.78134 10.1066C6.80835 10.0457 6.8478 9.9911 6.89716 9.94631L11.6787 5.59604C11.7668 5.51594 11.8815 5.47155 12.0005 5.47155C12.1195 5.47155 12.2343 5.51594 12.3223 5.59604L17.1039 9.94631C17.153 9.99122 17.1923 10.0459 17.2191 10.1068C17.2459 10.1677 17.2598 10.2336 17.2598 10.3001V13.2351C17.2596 13.3295 17.2314 13.4217 17.1788 13.5002C17.1263 13.5786 17.0517 13.6397 16.9644 13.6758C16.8772 13.7119 16.7812 13.7214 16.6886 13.703C16.596 13.6847 16.5109 13.6393 16.444 13.5726L13.4345 10.5631V18.6918C13.4345 18.8186 13.3841 18.9402 13.2945 19.0299C13.2048 19.1196 13.0832 19.17 12.9564 19.17H11.0437C10.9169 19.17 10.7953 19.1196 10.7056 19.0299C10.6159 18.9402 10.5656 18.8186 10.5656 18.6918Z" fill="#FFDDA1"/>
<path d="M22.7151 1.27832L15.5026 8.48988L17.1034 9.94634C17.1526 9.99126 17.1918 10.0459 17.2186 10.1068C17.2455 10.1678 17.2593 10.2336 17.2593 10.3002V13.2351C17.2591 13.3295 17.2309 13.4218 17.1784 13.5002C17.1258 13.5786 17.0512 13.6398 16.964 13.6759C16.8768 13.712 16.7808 13.7214 16.6882 13.7031C16.5955 13.6847 16.5104 13.6393 16.4436 13.5727L13.4341 10.5632V18.6918C13.4341 18.8186 13.3837 18.9403 13.294 19.0299C13.2043 19.1196 13.0827 19.17 12.9559 19.17H11.0433C10.9165 19.17 10.7948 19.1196 10.7052 19.0299C10.6155 18.9403 10.5651 18.8186 10.5651 18.6918V13.4321L1.28027 22.7131C1.36873 22.8034 1.47419 22.8752 1.59057 22.9244C1.70695 22.9737 1.83193 22.9994 1.9583 23H22.0409C22.2945 23 22.5377 22.8993 22.7171 22.7199C22.8964 22.5406 22.9972 22.2973 22.9972 22.0437V1.95635C22.9972 1.83032 22.9722 1.70553 22.9238 1.58917C22.8754 1.47281 22.8045 1.36717 22.7151 1.27832Z" fill="#FFBC44"/>
<path d="M22.0413 1H1.95875C1.70512 1 1.46188 1.10075 1.28254 1.2801C1.1032 1.45944 1.00244 1.70268 1.00244 1.95631V22.0389C1.00244 22.2925 1.1032 22.5358 1.28254 22.7151C1.46188 22.8944 1.70512 22.9952 1.95875 22.9952H22.0413C22.295 22.9952 22.5382 22.8944 22.7175 22.7151C22.8969 22.5358 22.9976 22.2925 22.9976 22.0389V1.95631C22.9976 1.70268 22.8969 1.45944 22.7175 1.2801C22.5382 1.10075 22.295 1 22.0413 1ZM10.5656 18.6918V10.5631L7.55701 13.5726C7.49019 13.6396 7.40501 13.6853 7.31223 13.7038C7.21945 13.7224 7.12326 13.713 7.03582 13.6769C6.94838 13.6407 6.87363 13.5795 6.82103 13.5008C6.76843 13.4222 6.74034 13.3297 6.74032 13.2351V10.3001C6.74036 10.2335 6.75433 10.1676 6.78134 10.1066C6.80835 10.0457 6.8478 9.9911 6.89716 9.94631L11.6787 5.59604C11.7668 5.51594 11.8815 5.47155 12.0005 5.47155C12.1195 5.47155 12.2343 5.51594 12.3223 5.59604L17.1039 9.94631C17.153 9.99122 17.1923 10.0459 17.2191 10.1068C17.2459 10.1677 17.2598 10.2336 17.2598 10.3001V13.2351C17.2596 13.3295 17.2314 13.4217 17.1788 13.5002C17.1263 13.5786 17.0517 13.6397 16.9644 13.6758C16.8772 13.7119 16.7812 13.7214 16.6886 13.703C16.596 13.6847 16.5109 13.6393 16.444 13.5726L13.4345 10.5631V18.6918C13.4345 18.8186 13.3841 18.9402 13.2945 19.0299C13.2048 19.1196 13.0832 19.17 12.9564 19.17H11.0437C10.9169 19.17 10.7953 19.1196 10.7056 19.0299C10.6159 18.9402 10.5656 18.8186 10.5656 18.6918Z" stroke="#191919" stroke-linecap="round" stroke-linejoin="round"/>
</g>
<defs>
<clipPath id="clip0_5303_3151">
<rect width="24" height="24" fill="white"/>
</clipPath>
</defs>
</svg>
