<svg width="24" height="24" viewBox="0 0 24 24" fill="none" xmlns="http://www.w3.org/2000/svg">
<g clip-path="url(#clip0_5303_3146)">
<path d="M22.0417 1H1.95827C1.43014 1 1.00195 1.42819 1.00195 1.95642V22.0437C1.00195 22.5718 1.43014 23 1.95827 23H22.0417C22.5699 23 22.998 22.5718 22.998 22.0437V1.95642C22.998 1.42819 22.5699 1 22.0417 1Z" fill="white"/>
<path d="M22.6549 1.23712L1.23828 22.6537C1.41514 22.8698 1.67916 22.996 1.9584 22.998H22.0419C22.57 22.998 22.9982 22.5698 22.9982 22.0417V1.95822C22.9962 1.67887 22.8705 1.41476 22.6549 1.23712Z" fill="#E3E3E3"/>
<path d="M22.0417 1H1.95827C1.43014 1 1.00195 1.42819 1.00195 1.95642V22.0437C1.00195 22.5718 1.43014 23 1.95827 23H22.0417C22.5699 23 22.998 22.5718 22.998 22.0437V1.95642C22.998 1.42819 22.5699 1 22.0417 1Z" stroke="#191919" stroke-linecap="round" stroke-linejoin="round"/>
<path d="M17.2596 7.69639V11.541C17.2597 11.6605 17.215 11.7759 17.1343 11.8642L12.3526 17.0811C12.163 17.2885 11.8364 17.2885 11.6468 17.0811L6.86507 11.8642C6.78435 11.7759 6.73965 11.6605 6.73975 11.541V7.69639C6.73936 7.32832 7.13748 7.09778 7.45655 7.28147C7.4991 7.30597 7.53765 7.33691 7.57084 7.37322L11.8218 12.0124C11.9166 12.1162 12.0799 12.1162 12.1747 12.0124L16.4285 7.37224C16.6769 7.10052 17.1263 7.19968 17.2374 7.55057C17.2523 7.59781 17.2598 7.647 17.2596 7.69639Z" fill="white" stroke="#191919" stroke-linecap="round" stroke-linejoin="round"/>
</g>
<defs>
<clipPath id="clip0_5303_3146">
<rect width="24" height="24" fill="white"/>
</clipPath>
</defs>
</svg>
