<svg width="24" height="24" viewBox="0 0 24 24" fill="none" xmlns="http://www.w3.org/2000/svg">
<g clip-path="url(#clip0_5303_3141)">
<path d="M11.9968 23C18.05 23 22.9575 18.0925 22.9575 12.0393C22.9575 5.98612 18.05 1.07861 11.9968 1.07861C5.94364 1.07861 1.03613 5.98612 1.03613 12.0393C1.03613 18.0925 5.94364 23 11.9968 23Z" fill="#E3E3E3"/>
<path d="M11.9969 4.76244C17.3363 4.76497 21.896 8.61686 22.7908 13.8808C24.2571 5.5716 16.1787 -1.20894 8.24963 1.67565C3.24982 3.49462 0.27838 8.64137 1.20299 13.8808C2.09813 8.61706 6.65756 4.76535 11.9969 4.76244Z" fill="white"/>
<path d="M11.9968 23C18.05 23 22.9575 18.0925 22.9575 12.0393C22.9575 5.98612 18.05 1.07861 11.9968 1.07861C5.94364 1.07861 1.03613 5.98612 1.03613 12.0393C1.03613 18.0925 5.94364 23 11.9968 23Z" stroke="#191919" stroke-linecap="round" stroke-linejoin="round"/>
<path d="M19.1454 12.9877V11.0815C19.1454 10.8183 18.932 10.605 18.6688 10.605H10.0909L13.5592 7.14325C13.7453 6.9572 13.7453 6.65551 13.5592 6.46946L12.3345 5.23996C12.1483 5.05323 11.8459 5.05323 11.6597 5.23996L5.19952 11.701C5.01357 11.8871 5.01357 12.1888 5.19952 12.3749L11.6597 18.8369C11.8455 19.0246 12.1487 19.0246 12.3345 18.8369L13.563 17.6074C13.749 17.4213 13.749 17.1196 13.563 16.9336L10.0909 13.4643H18.6688C18.932 13.4643 19.1454 13.2509 19.1454 12.9877Z" fill="white" stroke="#191919" stroke-linecap="round" stroke-linejoin="round"/>
</g>
<defs>
<clipPath id="clip0_5303_3141">
<rect width="24" height="24" fill="white"/>
</clipPath>
</defs>
</svg>
