<svg width="24" height="24" viewBox="0 0 24 24" fill="none" xmlns="http://www.w3.org/2000/svg">
<g clip-path="url(#clip0_5303_3085)">
<path d="M1.31543 22.3715L1.62968 5.5906L7.58661 11.33L18.0964 1.31683L22.6844 5.90485L12.5706 16.3644L18.4106 22.3715H1.31543Z" fill="#FFEF5E"/>
<path d="M1.31522 23C1.14169 23 1.00098 22.8593 1.00098 22.6858C1.00098 22.5122 1.14169 22.3715 1.31522 22.3715" stroke="#191919"/>
<path d="M1.31543 23C1.48897 23 1.62968 22.8593 1.62968 22.6858C1.62968 22.5122 1.48897 22.3715 1.31543 22.3715" stroke="#191919"/>
<path d="M1.31522 18.7263C1.14169 18.7263 1.00098 18.5855 1.00098 18.412C1.00098 18.2384 1.14169 18.0978 1.31522 18.0978" stroke="#191919"/>
<path d="M1.31543 18.7263C1.48897 18.7263 1.62968 18.5855 1.62968 18.412C1.62968 18.2384 1.48897 18.0978 1.31543 18.0978" stroke="#191919"/>
<path d="M1.31522 14.4524C1.14169 14.4524 1.00098 14.3118 1.00098 14.1382C1.00098 13.9645 1.14169 13.8239 1.31522 13.8239" stroke="#191919"/>
<path d="M1.31543 14.4524C1.48897 14.4524 1.62968 14.3118 1.62968 14.1382C1.62968 13.9645 1.48897 13.8239 1.31543 13.8239" stroke="#191919"/>
<path d="M1.31522 10.1786C1.14169 10.1786 1.00098 10.038 1.00098 9.86436C1.00098 9.69072 1.14169 9.55011 1.31522 9.55011" stroke="#191919"/>
<path d="M1.31543 10.1786C1.48897 10.1786 1.62968 10.038 1.62968 9.86436C1.62968 9.69072 1.48897 9.55011 1.31543 9.55011" stroke="#191919"/>
<path d="M1.31522 5.90486C1.14169 5.90486 1.00098 5.76415 1.00098 5.59061C1.00098 5.41708 1.14169 5.27637 1.31522 5.27637" stroke="#191919"/>
<path d="M1.31543 5.90486C1.48897 5.90486 1.62968 5.76415 1.62968 5.59061C1.62968 5.41708 1.48897 5.27637 1.31543 5.27637" stroke="#191919"/>
<path d="M5.58964 18.7263C5.4161 18.7263 5.27539 18.5856 5.27539 18.412C5.27539 18.2385 5.4161 18.0978 5.58964 18.0978" stroke="#191919"/>
<path d="M5.58984 18.7263C5.76338 18.7263 5.90409 18.5856 5.90409 18.412C5.90409 18.2385 5.76338 18.0978 5.58984 18.0978" stroke="#191919"/>
<path d="M5.58964 14.4524C5.4161 14.4524 5.27539 14.3118 5.27539 14.1382C5.27539 13.9645 5.4161 13.8239 5.58964 13.8239" stroke="#191919"/>
<path d="M5.58984 14.4524C5.76338 14.4524 5.90409 14.3118 5.90409 14.1382C5.90409 13.9645 5.76338 13.8239 5.58984 13.8239" stroke="#191919"/>
<path d="M5.58964 10.1786C5.4161 10.1786 5.27539 10.038 5.27539 9.86436C5.27539 9.69072 5.4161 9.55011 5.58964 9.55011" stroke="#191919"/>
<path d="M5.58984 10.1786C5.76338 10.1786 5.90409 10.038 5.90409 9.86436C5.90409 9.69072 5.76338 9.55011 5.58984 9.55011" stroke="#191919"/>
<path d="M9.86307 14.4524C9.68954 14.4524 9.54883 14.3118 9.54883 14.1382C9.54883 13.9645 9.68954 13.8239 9.86307 13.8239" stroke="#191919"/>
<path d="M9.86328 14.4524C10.0369 14.4524 10.1775 14.3118 10.1775 14.1382C10.1775 13.9645 10.0369 13.8239 9.86328 13.8239" stroke="#191919"/>
<path d="M9.86307 10.1786C9.68954 10.1786 9.54883 10.038 9.54883 9.86436C9.54883 9.69072 9.68954 9.55011 9.86307 9.55011" stroke="#191919"/>
<path d="M9.86328 10.1786C10.0369 10.1786 10.1775 10.038 10.1775 9.86436C10.1775 9.69072 10.0369 9.55011 9.86328 9.55011" stroke="#191919"/>
<path d="M18.4109 10.1786C18.2373 10.1786 18.0967 10.038 18.0967 9.86436C18.0967 9.69072 18.2373 9.55011 18.4109 9.55011" stroke="#191919"/>
<path d="M18.4102 10.1786C18.5837 10.1786 18.7244 10.038 18.7244 9.86436C18.7244 9.69072 18.5837 9.55011 18.4102 9.55011" stroke="#191919"/>
<path d="M18.4109 5.90358C18.2373 5.90358 18.0967 5.76287 18.0967 5.58933C18.0967 5.41579 18.2373 5.27509 18.4109 5.27509" stroke="#191919"/>
<path d="M18.4102 5.90358C18.5837 5.90358 18.7244 5.76287 18.7244 5.58933C18.7244 5.41579 18.5837 5.27509 18.4102 5.27509" stroke="#191919"/>
<path d="M22.6844 5.90358C22.5108 5.90358 22.3701 5.76287 22.3701 5.58933C22.3701 5.41579 22.5108 5.27509 22.6844 5.27509" stroke="#191919"/>
<path d="M22.6846 5.90358C22.8582 5.90358 22.9988 5.76287 22.9988 5.58933C22.9988 5.41579 22.8582 5.27509 22.6846 5.27509" stroke="#191919"/>
<path d="M18.4109 1.62849C18.2373 1.62849 18.0967 1.48778 18.0967 1.31425C18.0967 1.14071 18.2373 1 18.4109 1" stroke="#191919"/>
<path d="M18.4111 1.62849C18.5847 1.62849 18.7254 1.48778 18.7254 1.31425C18.7254 1.14071 18.5847 1 18.4111 1" stroke="#191919"/>
<path d="M14.1365 14.4524C13.9629 14.4524 13.8223 14.3118 13.8223 14.1382C13.8223 13.9645 13.9629 13.8239 14.1365 13.8239" stroke="#191919"/>
<path d="M14.1367 14.4524C14.3103 14.4524 14.451 14.3118 14.451 14.1382C14.451 13.9645 14.3103 13.8239 14.1367 13.8239" stroke="#191919"/>
<path d="M14.1365 10.1786C13.9629 10.1786 13.8223 10.038 13.8223 9.86436C13.8223 9.69072 13.9629 9.55011 14.1365 9.55011" stroke="#191919"/>
<path d="M14.1367 10.1786C14.3103 10.1786 14.451 10.038 14.451 9.86436C14.451 9.69072 14.3103 9.55011 14.1367 9.55011" stroke="#191919"/>
<path d="M14.1365 5.90486C13.9629 5.90486 13.8223 5.76415 13.8223 5.59061C13.8223 5.41708 13.9629 5.27637 14.1365 5.27637" stroke="#191919"/>
<path d="M14.1367 5.90486C14.3103 5.90486 14.451 5.76415 14.451 5.59061C14.451 5.41708 14.3103 5.27637 14.1367 5.27637" stroke="#191919"/>
<path d="M18.4109 23C18.2373 23 18.0967 22.8593 18.0967 22.6858C18.0967 22.5122 18.2373 22.3715 18.4109 22.3715" stroke="#191919"/>
<path d="M18.4111 23C18.5847 23 18.7254 22.8593 18.7254 22.6858C18.7254 22.5122 18.5847 22.3715 18.4111 22.3715" stroke="#191919"/>
<path d="M14.1365 23C13.9629 23 13.8223 22.8593 13.8223 22.6858C13.8223 22.5122 13.9629 22.3715 14.1365 22.3715" stroke="#191919"/>
<path d="M14.1367 23C14.3103 23 14.451 22.8593 14.451 22.6858C14.451 22.5122 14.3103 22.3715 14.1367 22.3715" stroke="#191919"/>
<path d="M14.1365 18.7263C13.9629 18.7263 13.8223 18.5856 13.8223 18.412C13.8223 18.2385 13.9629 18.0978 14.1365 18.0978" stroke="#191919"/>
<path d="M14.1367 18.7263C14.3103 18.7263 14.451 18.5856 14.451 18.412C14.451 18.2385 14.3103 18.0978 14.1367 18.0978" stroke="#191919"/>
<path d="M9.86307 18.7263C9.68954 18.7263 9.54883 18.5856 9.54883 18.412C9.54883 18.2385 9.68954 18.0978 9.86307 18.0978" stroke="#191919"/>
<path d="M9.86328 18.7263C10.0369 18.7263 10.1775 18.5856 10.1775 18.412C10.1775 18.2385 10.0369 18.0978 9.86328 18.0978" stroke="#191919"/>
<path d="M9.86307 23C9.68954 23 9.54883 22.8593 9.54883 22.6858C9.54883 22.5122 9.68954 22.3715 9.86307 22.3715" stroke="#191919"/>
<path d="M9.86328 23C10.0369 23 10.1775 22.8593 10.1775 22.6858C10.1775 22.5122 10.0369 22.3715 9.86328 22.3715" stroke="#191919"/>
<path d="M5.58964 23C5.4161 23 5.27539 22.8593 5.27539 22.6858C5.27539 22.5122 5.4161 22.3715 5.58964 22.3715" stroke="#191919"/>
<path d="M5.58984 23C5.76338 23 5.90409 22.8593 5.90409 22.6858C5.90409 22.5122 5.76338 22.3715 5.58984 22.3715" stroke="#191919"/>
</g>
<defs>
<clipPath id="clip0_5303_3085">
<rect width="24" height="24" fill="white"/>
</clipPath>
</defs>
</svg>
