<svg width="24" height="24" viewBox="0 0 24 24" fill="none" xmlns="http://www.w3.org/2000/svg">
<g clip-path="url(#clip0_5303_3158)">
<path d="M18.4531 11.8468V7.11919C18.453 7.05129 18.439 6.98412 18.412 6.92181C18.3851 6.8595 18.3457 6.80335 18.2962 6.75683L12.3087 1.13569C12.2166 1.04855 12.0945 1 11.9677 1C11.8409 1 11.7188 1.04855 11.6267 1.13569L5.70175 6.75683C5.65281 6.80322 5.61383 6.85911 5.58721 6.92107C5.56058 6.98303 5.54686 7.04977 5.54688 7.11721V11.8389C5.54704 11.9359 5.57561 12.0307 5.62905 12.1116C5.6825 12.1925 5.75847 12.256 5.8476 12.2942C5.93672 12.3325 6.03509 12.3437 6.13056 12.3267C6.22603 12.3096 6.31441 12.265 6.38478 12.1983L11.8014 7.06558C11.8475 7.02216 11.9084 6.99797 11.9717 6.99797C12.035 6.99797 12.0959 7.02216 12.1419 7.06558L17.6211 12.2092C17.6919 12.2741 17.78 12.3171 17.8748 12.333C17.9695 12.3489 18.0668 12.3369 18.1549 12.2985C18.243 12.2601 18.318 12.1971 18.371 12.1169C18.4239 12.0367 18.4524 11.9429 18.4531 11.8468Z" fill="#C9F7CA"/>
<path d="M18.4531 22.5023V17.7757C18.453 17.7078 18.439 17.6406 18.412 17.5783C18.3851 17.516 18.3457 17.4598 18.2962 17.4133L12.3087 11.7922C12.2166 11.705 12.0945 11.6565 11.9677 11.6565C11.8409 11.6565 11.7188 11.705 11.6267 11.7922L5.70175 17.4143C5.65293 17.4606 5.61403 17.5163 5.5874 17.5781C5.56078 17.6399 5.54699 17.7064 5.54688 17.7737V22.4944C5.54685 22.5914 5.57528 22.6864 5.62864 22.7675C5.68201 22.8485 5.75798 22.9122 5.84714 22.9505C5.93631 22.9889 6.03476 23.0002 6.13032 22.9832C6.22587 22.9662 6.31435 22.9215 6.38478 22.8548L11.7974 17.7221C11.8435 17.6787 11.9044 17.6545 11.9677 17.6545C12.031 17.6545 12.0919 17.6787 12.138 17.7221L17.6171 22.8657C17.6878 22.932 17.7764 22.9761 17.8719 22.9927C17.9674 23.0092 18.0657 22.9975 18.1546 22.9588C18.2434 22.9202 18.3191 22.8564 18.3721 22.7752C18.4252 22.6941 18.4533 22.5993 18.4531 22.5023Z" fill="#C9F7CA"/>
<path d="M12.138 7.06454C12.0989 7.03223 12.0506 7.01312 12 7.00994V1.00757C12.1146 1.01328 12.2237 1.05854 12.3088 1.13564L18.2962 6.75678C18.3458 6.80323 18.3853 6.85936 18.4122 6.92169C18.4392 6.98402 18.4531 7.05123 18.4531 7.11914V11.8468C18.4529 11.9435 18.4245 12.0381 18.3713 12.119C18.3181 12.1998 18.2425 12.2633 18.1537 12.3017C18.0649 12.3401 17.9668 12.3517 17.8715 12.3351C17.7761 12.3184 17.6877 12.2743 17.6172 12.2082L12.138 7.06454Z" fill="#78EB7B"/>
<path d="M12.138 17.7211C12.0989 17.6887 12.0506 17.6696 12 17.6664V11.6631C12.1149 11.6684 12.2242 11.7141 12.3088 11.7921L18.2962 17.4133C18.3458 17.4597 18.3853 17.5159 18.4122 17.5782C18.4392 17.6405 18.4531 17.7077 18.4531 17.7757V22.5023C18.4531 22.5991 18.4249 22.6939 18.3717 22.7748C18.3186 22.8558 18.243 22.9195 18.1541 22.958C18.0653 22.9965 17.9671 23.0082 17.8717 22.9916C17.7763 22.975 17.6878 22.9309 17.6172 22.8647L12.138 17.7211Z" fill="#78EB7B"/>
<path d="M18.4531 11.8468V7.11919C18.453 7.05129 18.439 6.98412 18.412 6.92181C18.3851 6.8595 18.3457 6.80335 18.2962 6.75683L12.3087 1.13569C12.2166 1.04855 12.0945 1 11.9677 1C11.8409 1 11.7188 1.04855 11.6267 1.13569L5.70175 6.75683C5.65281 6.80322 5.61383 6.85911 5.58721 6.92107C5.56058 6.98303 5.54686 7.04977 5.54688 7.11721V11.8389C5.54704 11.9359 5.57561 12.0307 5.62905 12.1116C5.6825 12.1925 5.75847 12.256 5.8476 12.2942C5.93672 12.3325 6.03509 12.3437 6.13056 12.3267C6.22603 12.3096 6.31441 12.265 6.38478 12.1983L11.8014 7.06558C11.8475 7.02216 11.9084 6.99797 11.9717 6.99797C12.035 6.99797 12.0959 7.02216 12.1419 7.06558L17.6211 12.2092C17.6919 12.2741 17.78 12.3171 17.8748 12.333C17.9695 12.3489 18.0668 12.3369 18.1549 12.2985C18.243 12.2601 18.318 12.1971 18.371 12.1169C18.4239 12.0367 18.4524 11.9429 18.4531 11.8468Z" stroke="#191919" stroke-linecap="round" stroke-linejoin="round"/>
<path d="M18.4531 22.5023V17.7757C18.453 17.7078 18.439 17.6406 18.412 17.5783C18.3851 17.516 18.3457 17.4598 18.2962 17.4133L12.3087 11.7922C12.2166 11.705 12.0945 11.6565 11.9677 11.6565C11.8409 11.6565 11.7188 11.705 11.6267 11.7922L5.70175 17.4143C5.65293 17.4606 5.61403 17.5163 5.5874 17.5781C5.56078 17.6399 5.54699 17.7064 5.54688 17.7737V22.4944C5.54685 22.5914 5.57528 22.6864 5.62864 22.7675C5.68201 22.8485 5.75798 22.9122 5.84714 22.9505C5.93631 22.9889 6.03476 23.0002 6.13032 22.9832C6.22587 22.9662 6.31435 22.9215 6.38478 22.8548L11.7974 17.7221C11.8435 17.6787 11.9044 17.6545 11.9677 17.6545C12.031 17.6545 12.0919 17.6787 12.138 17.7221L17.6171 22.8657C17.6878 22.932 17.7764 22.9761 17.8719 22.9927C17.9674 23.0092 18.0657 22.9975 18.1546 22.9588C18.2434 22.9202 18.3191 22.8564 18.3721 22.7752C18.4252 22.6941 18.4533 22.5993 18.4531 22.5023Z" stroke="#191919" stroke-linecap="round" stroke-linejoin="round"/>
</g>
<defs>
<clipPath id="clip0_5303_3158">
<rect width="24" height="24" fill="white"/>
</clipPath>
</defs>
</svg>
