<svg width="24" height="24" viewBox="0 0 24 24" fill="none" xmlns="http://www.w3.org/2000/svg">
<g clip-path="url(#clip0_5303_3173)">
<path d="M11.9968 23C18.05 23 22.9575 18.0925 22.9575 12.0393C22.9575 5.98612 18.05 1.07861 11.9968 1.07861C5.94364 1.07861 1.03613 5.98612 1.03613 12.0393C1.03613 18.0925 5.94364 23 11.9968 23Z" fill="#E3E3E3"/>
<path d="M11.9969 4.76244C17.3363 4.76497 21.896 8.61686 22.7908 13.8808C24.2571 5.5716 16.1787 -1.20894 8.24963 1.67565C3.24982 3.49462 0.27838 8.64137 1.20299 13.8808C2.09813 8.61706 6.65756 4.76535 11.9969 4.76244Z" fill="white"/>
<path d="M11.9968 23C18.05 23 22.9575 18.0925 22.9575 12.0393C22.9575 5.98612 18.05 1.07861 11.9968 1.07861C5.94364 1.07861 1.03613 5.98612 1.03613 12.0393C1.03613 18.0925 5.94364 23 11.9968 23Z" stroke="#191919" stroke-linecap="round" stroke-linejoin="round"/>
<path d="M14.6198 6.72772C14.9375 6.54624 15.3326 6.77556 15.3327 7.14134V16.9363C15.3351 17.3017 14.9412 17.5327 14.6235 17.3521L14.6198 17.35L6.04949 12.4529C5.73108 12.2708 5.72923 11.8122 6.04618 11.6275L6.04949 11.6257L14.6198 6.72772Z" fill="white" stroke="#191919" stroke-linecap="round" stroke-linejoin="round"/>
</g>
<defs>
<clipPath id="clip0_5303_3173">
<rect width="24" height="24" fill="white"/>
</clipPath>
</defs>
</svg>
