<svg width="24" height="24" viewBox="0 0 24 24" fill="none" xmlns="http://www.w3.org/2000/svg">
<g clip-path="url(#clip0_5303_3185)">
<path d="M12.3635 4.85044L22.8805 16.9937C22.9227 17.0421 22.9548 17.0983 22.9751 17.1592C22.9954 17.2201 23.0034 17.2844 22.9987 17.3485C22.994 17.4125 22.9766 17.4749 22.9477 17.5322C22.9187 17.5895 22.8786 17.6404 22.8299 17.6821L21.0537 19.2003C21.005 19.242 20.9487 19.2737 20.8878 19.2936C20.8269 19.3135 20.7627 19.3212 20.6988 19.3162C20.6349 19.3112 20.5727 19.2937 20.5156 19.2646C20.4585 19.2355 20.4077 19.1955 20.3662 19.1467L12.1863 9.51297C12.1634 9.48608 12.135 9.46448 12.103 9.44966C12.0709 9.43485 12.0361 9.42717 12.0008 9.42717C11.9655 9.42717 11.9306 9.43485 11.8986 9.44966C11.8665 9.46448 11.8381 9.48608 11.8153 9.51297L3.63538 19.1458C3.59387 19.1947 3.54309 19.235 3.48595 19.2642C3.42882 19.2935 3.36647 19.3111 3.30249 19.3162C3.2385 19.3213 3.17415 19.3136 3.11312 19.2938C3.0521 19.2739 2.99561 19.2421 2.94691 19.2003L1.16973 17.6821C1.12106 17.6404 1.08113 17.5894 1.05222 17.5321C1.02332 17.4748 1.00602 17.4124 1.00131 17.3484C0.996607 17.2845 1.00459 17.2202 1.0248 17.1593C1.04502 17.0984 1.07706 17.0421 1.1191 16.9937L11.6273 4.85044C11.673 4.79765 11.7296 4.75531 11.7931 4.72629C11.8566 4.69727 11.9256 4.68225 11.9954 4.68225C12.0652 4.68225 12.1343 4.69727 12.1978 4.72629C12.2613 4.75531 12.3178 4.79765 12.3635 4.85044Z" fill="#66E1FF" stroke="#191919" stroke-linecap="round" stroke-linejoin="round"/>
</g>
<defs>
<clipPath id="clip0_5303_3185">
<rect width="24" height="24" fill="white"/>
</clipPath>
</defs>
</svg>
