<svg width="24" height="24" viewBox="0 0 24 24" fill="none" xmlns="http://www.w3.org/2000/svg">
<g clip-path="url(#clip0_5303_3165)">
<path d="M17.3074 13.9019V17.7692C17.3075 17.8333 17.2949 17.8968 17.2702 17.9559C17.2455 18.0151 17.2093 18.0687 17.1636 18.1137L12.3391 22.8611C12.2489 22.9495 12.1276 22.999 12.0014 22.999C11.8751 22.999 11.7538 22.9495 11.6636 22.8611L6.83908 18.1137C6.79344 18.0687 6.75722 18.0151 6.73254 17.9559C6.70785 17.8968 6.6952 17.8333 6.69531 17.7692V13.9019C6.69514 13.8067 6.72313 13.7135 6.77577 13.6342C6.82841 13.5549 6.90334 13.4929 6.99113 13.4561C7.07892 13.4193 7.17564 13.4092 7.26912 13.4272C7.3626 13.4453 7.44865 13.4906 7.51645 13.5574L11.8335 17.803C11.8784 17.8474 11.9391 17.8723 12.0023 17.8723C12.0655 17.8723 12.1262 17.8474 12.1712 17.803L16.4882 13.5574C16.5561 13.4912 16.642 13.4465 16.7351 13.4288C16.8283 13.4112 16.9246 13.4214 17.012 13.4581C17.0994 13.4949 17.174 13.5566 17.2265 13.6355C17.2791 13.7144 17.3072 13.807 17.3074 13.9019Z" fill="#FFF9BF"/>
<path d="M17.3074 6.06866V8.6305C17.3075 8.69459 17.2949 8.75806 17.2702 8.8172C17.2455 8.87635 17.2093 8.92998 17.1636 8.97497L12.3391 13.7223C12.2489 13.8107 12.1276 13.8602 12.0014 13.8602C11.8751 13.8602 11.7538 13.8107 11.6636 13.7223L6.83908 8.97497C6.79344 8.92998 6.75722 8.87635 6.73254 8.8172C6.70785 8.75806 6.6952 8.69459 6.69531 8.6305V6.06866C6.69626 5.97418 6.72493 5.88205 6.77777 5.80372C6.8306 5.72539 6.90528 5.6643 6.99252 5.62802C7.07976 5.59175 7.17574 5.58189 7.26854 5.59967C7.36133 5.61745 7.44687 5.66209 7.51452 5.72804L11.8315 9.97365C11.8767 10.0181 11.9375 10.0431 12.0009 10.0431C12.0643 10.0431 12.1251 10.0181 12.1702 9.97365L16.4863 5.72804C16.5538 5.66144 16.6395 5.61624 16.7327 5.59809C16.8258 5.57993 16.9222 5.58964 17.0098 5.62599C17.0974 5.66234 17.1724 5.72372 17.2253 5.80246C17.2783 5.88119 17.3068 5.97379 17.3074 6.06866Z" fill="#FFF9BF"/>
<path d="M12.1689 17.8049C12.1467 17.827 12.1203 17.8445 12.0913 17.8564C12.0624 17.8684 12.0313 17.8744 12 17.8744V23C12.1266 23.0002 12.2483 22.9506 12.3387 22.862L17.1632 18.1146C17.2089 18.0696 17.2451 18.016 17.2698 17.9569C17.2945 17.8977 17.3071 17.8342 17.307 17.7702V13.9018C17.307 13.8068 17.2789 13.7139 17.2263 13.6348C17.1738 13.5557 17.099 13.4939 17.0114 13.4571C16.9238 13.4203 16.8273 13.4102 16.734 13.428C16.6407 13.4459 16.5547 13.4908 16.4868 13.5573L12.1689 17.8049Z" fill="#FFEF5E"/>
<path d="M12.1698 9.97365C12.1246 10.0183 12.0635 10.0432 12 10.0431V13.8622C12.1268 13.8622 12.2484 13.8123 12.3387 13.7233L17.1632 8.97594C17.2089 8.93094 17.2451 8.87731 17.2698 8.81817C17.2945 8.75902 17.3071 8.69555 17.307 8.63146V6.06866C17.3064 5.97379 17.2779 5.88119 17.225 5.80246C17.172 5.72372 17.0971 5.66234 17.0094 5.62599C16.9218 5.58964 16.8254 5.57993 16.7323 5.59809C16.6391 5.61624 16.5534 5.66144 16.4859 5.72804L12.1698 9.97365Z" fill="#FFEF5E"/>
<path d="M17.3074 13.9019V17.7692C17.3075 17.8333 17.2949 17.8968 17.2702 17.9559C17.2455 18.0151 17.2093 18.0687 17.1636 18.1137L12.3391 22.8611C12.2489 22.9495 12.1276 22.999 12.0014 22.999C11.8751 22.999 11.7538 22.9495 11.6636 22.8611L6.83908 18.1137C6.79344 18.0687 6.75722 18.0151 6.73254 17.9559C6.70785 17.8968 6.6952 17.8333 6.69531 17.7692V13.9019C6.69514 13.8067 6.72313 13.7135 6.77577 13.6342C6.82841 13.5549 6.90334 13.4929 6.99113 13.4561C7.07892 13.4193 7.17564 13.4092 7.26912 13.4272C7.3626 13.4453 7.44865 13.4906 7.51645 13.5574L11.8335 17.803C11.8784 17.8474 11.9391 17.8723 12.0023 17.8723C12.0655 17.8723 12.1262 17.8474 12.1712 17.803L16.4882 13.5574C16.5561 13.4912 16.642 13.4465 16.7351 13.4288C16.8283 13.4112 16.9246 13.4214 17.012 13.4581C17.0994 13.4949 17.174 13.5566 17.2265 13.6355C17.2791 13.7144 17.3072 13.807 17.3074 13.9019Z" stroke="#191919" stroke-linecap="round" stroke-linejoin="round"/>
<path d="M17.3074 6.06866V8.6305C17.3075 8.69459 17.2949 8.75806 17.2702 8.8172C17.2455 8.87635 17.2093 8.92998 17.1636 8.97497L12.3391 13.7223C12.2489 13.8107 12.1276 13.8602 12.0014 13.8602C11.8751 13.8602 11.7538 13.8107 11.6636 13.7223L6.83908 8.97497C6.79344 8.92998 6.75722 8.87635 6.73254 8.8172C6.70785 8.75806 6.6952 8.69459 6.69531 8.6305V6.06866C6.69626 5.97418 6.72493 5.88205 6.77777 5.80372C6.8306 5.72539 6.90528 5.6643 6.99252 5.62802C7.07976 5.59175 7.17574 5.58189 7.26854 5.59967C7.36133 5.61745 7.44687 5.66209 7.51452 5.72804L11.8315 9.97365C11.8767 10.0181 11.9375 10.0431 12.0009 10.0431C12.0643 10.0431 12.1251 10.0181 12.1702 9.97365L16.4863 5.72804C16.5538 5.66144 16.6395 5.61624 16.7327 5.59809C16.8258 5.57993 16.9222 5.58964 17.0098 5.62599C17.0974 5.66234 17.1724 5.72372 17.2253 5.80246C17.2783 5.88119 17.3068 5.97379 17.3074 6.06866Z" stroke="#191919" stroke-linecap="round" stroke-linejoin="round"/>
<path d="M17.3069 1L12.3386 5.8921C12.2484 5.9805 12.1271 6.03001 12.0008 6.03001C11.8746 6.03001 11.7533 5.9805 11.6631 5.8921L6.69287 1" stroke="#191919" stroke-linecap="round" stroke-linejoin="round"/>
</g>
<defs>
<clipPath id="clip0_5303_3165">
<rect width="24" height="24" fill="white"/>
</clipPath>
</defs>
</svg>
