<svg width="24" height="24" viewBox="0 0 24 24" fill="none" xmlns="http://www.w3.org/2000/svg">
<g clip-path="url(#clip0_5303_3181)">
<path d="M22.5182 9.59077H9.99025L15.0901 3.64001C15.1499 3.57001 15.1885 3.48432 15.2012 3.39308C15.2138 3.30185 15.2001 3.20889 15.1615 3.12523C15.123 3.04157 15.0613 2.9707 14.9837 2.92103C14.9062 2.87136 14.816 2.84496 14.7239 2.84497H9.24146C9.17359 2.84497 9.10649 2.8593 9.04454 2.88704C8.9826 2.91477 8.92721 2.95528 8.88201 3.00591L1.12241 11.6791C1.04357 11.7674 1 11.8816 1 12C1 12.1184 1.04357 12.2326 1.12241 12.3209L8.88201 20.9941C8.92721 21.0447 8.9826 21.0852 9.04454 21.1129C9.10649 21.1407 9.17359 21.155 9.24146 21.155H14.7239C14.816 21.155 14.9062 21.1286 14.9837 21.0789C15.0613 21.0293 15.123 20.9584 15.1615 20.8747C15.2001 20.7911 15.2138 20.6981 15.2012 20.6069C15.1885 20.5156 15.1499 20.43 15.0901 20.36L9.99025 14.4092H22.5182C22.6459 14.4092 22.7685 14.3584 22.8589 14.2681C22.9492 14.1777 23 14.0551 23 13.9274V10.0726C23 9.94482 22.9492 9.82226 22.8589 9.7319C22.7685 9.64153 22.6459 9.59077 22.5182 9.59077Z" fill="#C2F3FF"/>
<path d="M1 11.9999C0.999994 12.1182 1.04356 12.2325 1.12239 12.3208L8.88295 20.994C8.92804 21.0445 8.98327 21.0849 9.04504 21.1126C9.10681 21.1404 9.17373 21.1548 9.24144 21.1549H14.7238C14.816 21.1549 14.9061 21.1285 14.9837 21.0788C15.0613 21.0292 15.123 20.9583 15.1615 20.8746C15.2001 20.791 15.2138 20.698 15.2011 20.6068C15.1885 20.5155 15.1499 20.4298 15.09 20.3598L9.99022 14.4091H22.5181C22.6459 14.4091 22.7685 14.3583 22.8588 14.268C22.9492 14.1776 23 14.055 23 13.9272V11.9999H1Z" fill="#66E1FF"/>
<path d="M22.5182 9.59077H9.99025L15.0901 3.64001C15.1499 3.57001 15.1885 3.48432 15.2012 3.39308C15.2138 3.30185 15.2001 3.20889 15.1615 3.12523C15.123 3.04157 15.0613 2.9707 14.9837 2.92103C14.9062 2.87136 14.816 2.84496 14.7239 2.84497H9.24146C9.17359 2.84497 9.10649 2.8593 9.04454 2.88704C8.9826 2.91477 8.92721 2.95528 8.88201 3.00591L1.12241 11.6791C1.04357 11.7674 1 11.8816 1 12C1 12.1184 1.04357 12.2326 1.12241 12.3209L8.88201 20.9941C8.92721 21.0447 8.9826 21.0852 9.04454 21.1129C9.10649 21.1407 9.17359 21.155 9.24146 21.155H14.7239C14.816 21.155 14.9062 21.1286 14.9837 21.0789C15.0613 21.0293 15.123 20.9584 15.1615 20.8747C15.2001 20.7911 15.2138 20.6981 15.2012 20.6069C15.1885 20.5156 15.1499 20.43 15.0901 20.36L9.99025 14.4092H22.5182C22.6459 14.4092 22.7685 14.3584 22.8589 14.2681C22.9492 14.1777 23 14.0551 23 13.9274V10.0726C23 9.94482 22.9492 9.82226 22.8589 9.7319C22.7685 9.64153 22.6459 9.59077 22.5182 9.59077Z" stroke="#191919" stroke-linecap="round" stroke-linejoin="round"/>
</g>
<defs>
<clipPath id="clip0_5303_3181">
<rect width="24" height="24" fill="white"/>
</clipPath>
</defs>
</svg>
