<svg width="24" height="24" viewBox="0 0 24 24" fill="none" xmlns="http://www.w3.org/2000/svg">
<g clip-path="url(#clip0_5303_3187)">
<path d="M1.19129 5.45017L12.725 16.955H2.63001C2.51061 16.955 2.39398 16.9903 2.29471 17.0565C2.19544 17.1228 2.11797 17.2169 2.07209 17.327C2.0262 17.4371 2.01397 17.5584 2.03686 17.6754C2.05975 17.7926 2.11679 17.9003 2.20076 17.9851L6.98841 22.8211C7.04456 22.8777 7.11146 22.9227 7.18508 22.9534C7.25879 22.9842 7.33783 23 7.41766 23H22.3813C22.5416 23 22.6954 22.9363 22.8088 22.8229C22.9221 22.7096 22.9858 22.5559 22.9858 22.3955V7.41721C22.9858 7.25784 22.9229 7.1048 22.8105 6.99161L17.9745 2.12058C17.8902 2.03552 17.7826 1.9775 17.6651 1.95382C17.5477 1.93004 17.426 1.94168 17.3152 1.98727C17.2045 2.03286 17.1098 2.11032 17.0432 2.20989C16.9765 2.30935 16.9408 2.42639 16.9408 2.54618V12.7235L5.47114 1.17762C5.41499 1.12127 5.34829 1.07657 5.27477 1.04618C5.20136 1.01569 5.12261 1 5.04318 1C4.96374 1 4.8849 1.01569 4.81148 1.04618C4.73797 1.07657 4.67136 1.12127 4.61511 1.17762L1.19129 4.59424C1.13495 4.65038 1.09034 4.71709 1.05985 4.79051C1.02936 4.86392 1.01367 4.94267 1.01367 5.0222C1.01367 5.10174 1.02936 5.18048 1.05985 5.2539C1.09034 5.32731 1.13495 5.39402 1.19129 5.45017Z" fill="#C2F3FF"/>
<path d="M2.95682 2.82922L22.8641 22.7366C22.8106 22.8158 22.7385 22.8808 22.6544 22.9261C22.5701 22.9713 22.4762 22.9955 22.3805 22.9965H7.41795C7.33812 22.9965 7.25917 22.9807 7.18546 22.95C7.11185 22.9192 7.04494 22.8743 6.98879 22.8176L2.20115 17.9816C2.11836 17.8967 2.06241 17.7894 2.04021 17.6728C2.018 17.5563 2.03054 17.4358 2.07632 17.3265C2.12201 17.217 2.19898 17.1236 2.29746 17.0576C2.39604 16.9915 2.51179 16.9558 2.6303 16.9551H12.7254L1.19168 5.44912C1.0783 5.33584 1.01465 5.1821 1.01465 5.02174C1.01465 4.86149 1.0783 4.70775 1.19168 4.59437L2.95682 2.82922Z" fill="#66E1FF"/>
<path d="M1.19129 5.45017L12.725 16.955H2.63001C2.51061 16.955 2.39398 16.9903 2.29471 17.0565C2.19544 17.1228 2.11797 17.2169 2.07209 17.327C2.0262 17.4371 2.01397 17.5584 2.03686 17.6754C2.05975 17.7926 2.11679 17.9003 2.20076 17.9851L6.98841 22.8211C7.04456 22.8777 7.11146 22.9227 7.18508 22.9534C7.25879 22.9842 7.33783 23 7.41766 23H22.3813C22.5416 23 22.6954 22.9363 22.8088 22.8229C22.9221 22.7096 22.9858 22.5559 22.9858 22.3955V7.41721C22.9858 7.25784 22.9229 7.1048 22.8105 6.99161L17.9745 2.12058C17.8902 2.03552 17.7826 1.9775 17.6651 1.95382C17.5477 1.93004 17.426 1.94168 17.3152 1.98727C17.2045 2.03286 17.1098 2.11032 17.0432 2.20989C16.9765 2.30935 16.9408 2.42639 16.9408 2.54618V12.7235L5.47114 1.17762C5.41499 1.12127 5.34829 1.07657 5.27477 1.04618C5.20136 1.01569 5.12261 1 5.04318 1C4.96374 1 4.8849 1.01569 4.81148 1.04618C4.73797 1.07657 4.67136 1.12127 4.61511 1.17762L1.19129 4.59424C1.13495 4.65038 1.09034 4.71709 1.05985 4.79051C1.02936 4.86392 1.01367 4.94267 1.01367 5.0222C1.01367 5.10174 1.02936 5.18048 1.05985 5.2539C1.09034 5.32731 1.13495 5.39402 1.19129 5.45017Z" stroke="#191919" stroke-linecap="round" stroke-linejoin="round"/>
</g>
<defs>
<clipPath id="clip0_5303_3187">
<rect width="24" height="24" fill="white"/>
</clipPath>
</defs>
</svg>
