<svg width="24" height="24" viewBox="0 0 24 24" fill="none" xmlns="http://www.w3.org/2000/svg">
<g clip-path="url(#clip0_5303_10874)">
<path d="M11.9936 20.6195C16.4583 20.6195 20.0776 17.0001 20.0776 12.5355C20.0776 8.0709 16.4583 4.45154 11.9936 4.45154C7.52903 4.45154 3.90967 8.0709 3.90967 12.5355C3.90967 17.0001 7.52903 20.6195 11.9936 20.6195Z" fill="#EABFFF"/>
<path d="M16.1296 5.59949C16.933 7.15911 17.2066 8.93813 16.9089 10.6671C16.6111 12.3961 15.7582 13.9811 14.4793 15.182C13.2003 16.383 11.5649 17.1347 9.82066 17.3232C8.07637 17.5119 6.31816 17.1272 4.81201 16.2272C5.3818 17.3441 6.20355 18.3132 7.21223 19.0577C8.221 19.8023 9.38913 20.3022 10.6243 20.5174C11.8593 20.7329 13.1277 20.658 14.3289 20.2989C15.5301 19.9397 16.6314 19.306 17.5456 18.4481C18.4598 17.59 19.1617 16.5311 19.5963 15.3549C20.0308 14.1789 20.1856 12.9178 20.0488 11.6716C19.912 10.4253 19.4872 9.22787 18.8079 8.17397C18.1286 7.12015 17.2135 6.23874 16.135 5.59949H16.1296Z" fill="#D480FF"/>
<path d="M19.3991 9.29004C20.0579 10.7904 20.2452 12.4555 19.9364 14.0647C19.6274 15.674 18.8367 17.1513 17.6691 18.301C16.5014 19.4507 15.0119 20.2183 13.398 20.5022C11.7842 20.7861 10.1222 20.5729 8.63232 19.8908" stroke="#191919" stroke-linecap="round" stroke-linejoin="round"/>
<path d="M14.3929 4.81369C18.2861 1.80434 21.6275 0.286713 22.6634 1.32679C24.1367 2.79918 20.554 8.77166 14.6613 14.6643C8.76864 20.557 2.79616 24.1397 1.32279 22.6706C0.352669 21.7006 1.68279 18.6394 4.31486 15.0738" stroke="#191919" stroke-linecap="round" stroke-linejoin="round"/>
<path d="M11.9888 6.07163C11.9888 6.64338 11.7618 7.19167 11.3574 7.59593C10.9531 8.00018 10.4049 8.22733 9.83311 8.22733C9.51275 8.2447 9.19259 8.18798 8.89764 8.06161C8.60269 7.93523 8.3408 7.74262 8.1323 7.49869C7.92379 7.25476 7.77436 6.96609 7.69547 6.65505C7.61658 6.34401 7.6104 6.01894 7.67741 5.70515C8.76704 5.00948 10.0104 4.59129 11.299 4.48718C11.5159 4.69029 11.689 4.93569 11.8076 5.20817C11.9262 5.48055 11.9878 5.77442 11.9888 6.07163Z" fill="#B2B2B2" stroke="#191919" stroke-linecap="round" stroke-linejoin="round"/>
<path d="M6.74919 18.6891C5.91595 17.9728 5.23755 17.094 4.75538 16.1066C4.27322 15.1193 3.9974 14.044 3.94481 12.9464C3.89222 11.8488 4.06393 10.752 4.44945 9.723C4.83496 8.69401 5.42623 7.75451 6.18706 6.9617C6.94798 6.16889 7.86246 5.53954 8.87477 5.11213C9.88707 4.68462 10.9758 4.46807 12.0746 4.47553C13.1734 4.48298 14.2592 4.71445 15.2654 5.1557C16.2719 5.59685 17.1777 6.23865 17.9276 7.04167" stroke="#191919" stroke-linecap="round" stroke-linejoin="round"/>
<path d="M8.75971 15.7691C9.9503 15.7691 10.9154 14.804 10.9154 13.6134C10.9154 12.4228 9.9503 11.4576 8.75971 11.4576C7.56911 11.4576 6.604 12.4228 6.604 13.6134C6.604 14.804 7.56911 15.7691 8.75971 15.7691Z" fill="#B2B2B2" stroke="#191919" stroke-linecap="round" stroke-linejoin="round"/>
<path d="M14.1494 8.76624C14.2923 8.76624 14.4293 8.82295 14.5305 8.92401C14.6315 9.02508 14.6883 9.16215 14.6883 9.30511" stroke="#191919" stroke-linecap="round" stroke-linejoin="round"/>
<path d="M13.6104 9.30511C13.6104 9.16215 13.6672 9.02508 13.7681 8.92401C13.8693 8.82295 14.0064 8.76624 14.1492 8.76624" stroke="#191919" stroke-linecap="round" stroke-linejoin="round"/>
<path d="M14.1493 9.84415C14.0064 9.84415 13.8693 9.78734 13.7681 9.68627C13.6672 9.58521 13.6104 9.44814 13.6104 9.30518" stroke="#191919" stroke-linecap="round" stroke-linejoin="round"/>
<path d="M14.6883 9.30518C14.6883 9.44814 14.6315 9.58521 14.5305 9.68627C14.4293 9.78734 14.2923 9.84415 14.1494 9.84415" stroke="#191919" stroke-linecap="round" stroke-linejoin="round"/>
</g>
<defs>
<clipPath id="clip0_5303_10874">
<rect width="24" height="24" fill="white"/>
</clipPath>
</defs>
</svg>
