<svg width="24" height="24" viewBox="0 0 24 24" fill="none" xmlns="http://www.w3.org/2000/svg">
<g clip-path="url(#clip0_5303_11707)">
<path d="M13.6735 5.78259C14.9942 5.78259 16.0648 4.71197 16.0648 3.39129C16.0648 2.07062 14.9942 1 13.6735 1C12.3529 1 11.2822 2.07062 11.2822 3.39129C11.2822 4.71197 12.3529 5.78259 13.6735 5.78259Z" fill="#FFDDA1" stroke="#191919" stroke-linecap="round" stroke-linejoin="round"/>
<path d="M20.3101 7.01656C20.0131 6.77882 19.6339 6.66874 19.2558 6.71053C18.8777 6.75232 18.5316 6.94257 18.2938 7.23943L17.6663 8.02282C17.4794 8.25788 17.2231 8.42805 16.9339 8.50909C16.6447 8.59015 16.3374 8.57797 16.0555 8.47429L9.35989 6.04091C8.52771 5.74111 7.6235 5.70419 6.76965 5.93514C5.91579 6.1661 5.15349 6.65379 4.58591 7.33221L3.48687 8.65221C3.35467 8.79502 3.2529 8.96323 3.18776 9.1466C3.12263 9.32998 3.09547 9.52469 3.10796 9.71891C3.12045 9.91311 3.1723 10.1027 3.26038 10.2763C3.34846 10.4498 3.47092 10.6036 3.62031 10.7283C3.76971 10.853 3.94291 10.9461 4.12938 11.0017C4.31585 11.0573 4.51171 11.0745 4.70501 11.0521C4.89832 11.0297 5.08506 10.9682 5.25384 10.8714C5.42264 10.7745 5.56996 10.6443 5.68686 10.4888L6.78972 9.16873C6.97927 8.94268 7.23364 8.78027 7.51847 8.70347C7.80329 8.62666 8.10483 8.63915 8.38233 8.73925L9.98449 9.32177L8.18528 14.3665C8.09011 14.6522 7.90744 14.9007 7.66315 15.0769C7.41885 15.253 7.12533 15.3478 6.82416 15.3479H4.1086C3.72808 15.3479 3.36313 15.499 3.09406 15.7681C2.825 16.0371 2.67383 16.402 2.67383 16.7826C2.67383 17.1631 2.825 17.5281 3.09406 17.7971C3.36313 18.0662 3.72808 18.2174 4.1086 18.2174H6.82416C7.63174 18.2186 8.42329 17.9922 9.10812 17.5641C9.79294 17.1361 10.3433 16.5238 10.6961 15.7974L11.7713 16.2279C12.0928 16.3574 12.3569 16.5985 12.5151 16.907C12.6733 17.2156 12.7148 17.5708 12.6321 17.9075L11.8047 21.2171C11.7124 21.5861 11.7705 21.9768 11.9662 22.3031C12.1619 22.6294 12.4792 22.8646 12.8483 22.957C12.9625 22.9853 13.0798 22.9997 13.1974 23C13.5172 22.9997 13.8277 22.8927 14.0796 22.6958C14.3317 22.499 14.5106 22.2236 14.5882 21.9134L15.4146 18.6C15.6633 17.5903 15.5396 16.5249 15.0661 15.599C14.5926 14.6733 13.8011 13.9493 12.8368 13.5601L11.6823 13.0991L12.6809 10.2984L15.0722 11.1679C15.9182 11.4757 16.8395 11.5105 17.7064 11.2674C18.5732 11.0242 19.342 10.5153 19.9045 9.81246L20.532 9.03481C20.65 8.88777 20.738 8.7189 20.7907 8.53785C20.8435 8.35681 20.86 8.16713 20.8394 7.97969C20.8189 7.79224 20.7615 7.61069 20.6706 7.44544C20.5798 7.28017 20.4573 7.13443 20.3101 7.01656Z" fill="#66E1FF"/>
<path d="M3.65466 10.6607L6.04596 8.28857C6.51602 7.82173 7.10839 7.49719 7.75485 7.35233C8.40131 7.20747 9.07554 7.24819 9.69986 7.46979L15.2123 9.42395C15.8279 9.64198 16.492 9.68445 17.1304 9.54661C17.7688 9.40878 18.3561 9.09605 18.8269 8.64344L20.4195 7.11301C20.3861 7.08049 20.3507 7.04892 20.3134 7.01736C20.0164 6.77961 19.6372 6.66954 19.2591 6.71133C18.881 6.75312 18.5349 6.94336 18.297 7.24023L17.6696 8.02361C17.4827 8.25869 17.2264 8.42884 16.9372 8.5099C16.648 8.59094 16.3407 8.57877 16.0588 8.47509L9.36316 6.04171C8.53057 5.74093 7.62563 5.70341 6.77099 5.93422C5.91635 6.16503 5.15334 6.65302 4.58536 7.33205L3.48632 8.65205C3.24465 8.94176 3.12683 9.31499 3.15834 9.69094C3.18984 10.0669 3.36816 10.4153 3.65466 10.6607Z" fill="#C2F3FF"/>
<path d="M20.3101 7.01656C20.0131 6.77882 19.6339 6.66874 19.2558 6.71053C18.8777 6.75232 18.5316 6.94257 18.2938 7.23943L17.6663 8.02282C17.4794 8.25788 17.2231 8.42805 16.9339 8.50909C16.6447 8.59015 16.3374 8.57797 16.0555 8.47429L9.35989 6.04091C8.52771 5.74111 7.6235 5.70419 6.76965 5.93514C5.91579 6.1661 5.15349 6.65379 4.58591 7.33221L3.48687 8.65221C3.35467 8.79502 3.2529 8.96323 3.18776 9.1466C3.12263 9.32998 3.09547 9.52469 3.10796 9.71891C3.12045 9.91311 3.1723 10.1027 3.26038 10.2763C3.34846 10.4498 3.47092 10.6036 3.62031 10.7283C3.76971 10.853 3.94291 10.9461 4.12938 11.0017C4.31585 11.0573 4.51171 11.0745 4.70501 11.0521C4.89832 11.0297 5.08506 10.9682 5.25384 10.8714C5.42264 10.7745 5.56996 10.6443 5.68686 10.4888L6.78972 9.16873C6.97927 8.94268 7.23364 8.78027 7.51847 8.70347C7.80329 8.62666 8.10483 8.63915 8.38233 8.73925L9.98449 9.32177L8.18528 14.3665C8.09011 14.6522 7.90744 14.9007 7.66315 15.0769C7.41885 15.253 7.12533 15.3478 6.82416 15.3479H4.1086C3.72808 15.3479 3.36313 15.499 3.09406 15.7681C2.825 16.0371 2.67383 16.402 2.67383 16.7826C2.67383 17.1631 2.825 17.5281 3.09406 17.7971C3.36313 18.0662 3.72808 18.2174 4.1086 18.2174H6.82416C7.63174 18.2186 8.42329 17.9922 9.10812 17.5641C9.79294 17.1361 10.3433 16.5238 10.6961 15.7974L11.7713 16.2279C12.0928 16.3574 12.3569 16.5985 12.5151 16.907C12.6733 17.2156 12.7148 17.5708 12.6321 17.9075L11.8047 21.2171C11.7124 21.5861 11.7705 21.9768 11.9662 22.3031C12.1619 22.6294 12.4792 22.8646 12.8483 22.957C12.9625 22.9853 13.0798 22.9997 13.1974 23C13.5172 22.9997 13.8277 22.8927 14.0796 22.6958C14.3317 22.499 14.5106 22.2236 14.5882 21.9134L15.4146 18.6C15.6633 17.5903 15.5396 16.5249 15.0661 15.599C14.5926 14.6733 13.8011 13.9493 12.8368 13.5601L11.6823 13.0991L12.6809 10.2984L15.0722 11.1679C15.9182 11.4757 16.8395 11.5105 17.7064 11.2674C18.5732 11.0242 19.342 10.5153 19.9045 9.81246L20.532 9.03481C20.65 8.88777 20.738 8.7189 20.7907 8.53785C20.8435 8.35681 20.86 8.16713 20.8394 7.97969C20.8189 7.79224 20.7615 7.61069 20.6706 7.44544C20.5798 7.28017 20.4573 7.13443 20.3101 7.01656Z" stroke="#191919" stroke-linecap="round" stroke-linejoin="round"/>
<path d="M19.1569 6.73057L17.9785 3.86963" stroke="#191919" stroke-linecap="round" stroke-linejoin="round"/>
<path d="M21.3262 12.0001L20.2539 9.39636" stroke="#191919" stroke-linecap="round" stroke-linejoin="round"/>
</g>
<defs>
<clipPath id="clip0_5303_11707">
<rect width="24" height="24" fill="white"/>
</clipPath>
</defs>
</svg>
