<svg width="24" height="24" viewBox="0 0 24 24" fill="none" xmlns="http://www.w3.org/2000/svg">
<g clip-path="url(#clip0_5303_11679)">
<path d="M12.8928 9.11707C14.7306 9.11697 15.8792 7.12745 14.9603 5.53593C14.5338 4.79731 13.7457 4.34241 12.8928 4.34241C11.0551 4.34241 9.90643 6.33183 10.8254 7.92336C11.2518 8.66207 12.0399 9.11707 12.8928 9.11707Z" fill="#FFDDA1" stroke="#191919" stroke-linecap="round" stroke-linejoin="round"/>
<path d="M20.4143 12.5183C21.5019 12.3346 21.9827 11.0423 21.2798 10.1923C20.9535 9.79785 20.4416 9.60744 19.9368 9.69274L11.14 11.1546C10.4715 11.2622 9.81909 10.8869 9.57587 10.2552L8.46619 7.2528C8.09386 6.21495 6.73754 5.96939 6.02489 6.81078C5.67949 7.21864 5.5899 7.7848 5.79241 8.27943L6.90395 11.2817C7.63886 13.1775 9.59676 14.3038 11.605 13.986L12.2201 13.882L12.793 16.4536L9.81079 20.7078C9.14898 21.5898 9.69016 22.8574 10.7849 22.9896C11.3264 23.0549 11.858 22.8071 12.1561 22.3503L15.1268 18.1066L16.48 17.9567C17.1518 17.8785 17.7858 18.2841 17.9964 18.9269L18.6964 21.0277C19.0452 22.0737 20.3956 22.3499 21.1271 21.5248C21.4666 21.1419 21.5761 20.6069 21.4142 20.1215L20.7142 18.0206C20.0584 16.1098 18.1727 14.9027 16.1629 15.1071L15.4449 15.1864L15.0476 13.3996L20.4143 12.5183Z" fill="#66E1FF"/>
<path d="M8.61083 10.9819C9.10262 12.1241 10.3201 12.7732 11.5425 12.5451L21.5416 10.6782C21.3296 9.99308 20.6436 9.57028 19.9363 9.68887L11.1385 11.1546C10.4701 11.2622 9.81762 10.8869 9.57441 10.2552L8.46473 7.25283C8.18628 6.52866 7.38188 6.15779 6.65039 6.41632L8.61083 10.9819Z" fill="#C2F3FF"/>
<path d="M20.4143 12.5183C21.5019 12.3346 21.9827 11.0423 21.2798 10.1923C20.9535 9.79785 20.4416 9.60744 19.9368 9.69274L11.14 11.1546C10.4715 11.2622 9.81909 10.8869 9.57587 10.2552L8.46619 7.2528C8.09386 6.21495 6.73754 5.96939 6.02489 6.81078C5.67949 7.21864 5.5899 7.7848 5.79241 8.27943L6.90395 11.2817C7.63886 13.1775 9.59676 14.3038 11.605 13.986L12.2201 13.882L12.793 16.4536L9.81079 20.7078C9.14898 21.5898 9.69016 22.8574 10.7849 22.9896C11.3264 23.0549 11.858 22.8071 12.1561 22.3503L15.1268 18.1066L16.48 17.9567C17.1518 17.8785 17.7858 18.2841 17.9964 18.9269L18.6964 21.0277C19.0452 22.0737 20.3956 22.3499 21.1271 21.5248C21.4666 21.1419 21.5761 20.6069 21.4142 20.1215L20.7142 18.0206C20.0584 16.1098 18.1727 14.9027 16.1629 15.1071L15.4449 15.1864L15.0476 13.3996L20.4143 12.5183Z" stroke="#191919" stroke-linecap="round" stroke-linejoin="round"/>
<path d="M2.38965 6.25211L17.6685 1" stroke="#191919" stroke-linecap="round" stroke-linejoin="round"/>
</g>
<defs>
<clipPath id="clip0_5303_11679">
<rect width="24" height="24" fill="white"/>
</clipPath>
</defs>
</svg>
