<svg width="24" height="24" viewBox="0 0 24 24" fill="none" xmlns="http://www.w3.org/2000/svg">
<path d="M13.9978 7.32129C13.2279 7.32129 12.7466 8.15475 13.1315 8.82158C13.3103 9.13109 13.6404 9.32168 13.9978 9.32168H14.998V16.3232C14.998 17.0932 15.8315 17.5744 16.4984 17.1894C16.8078 17.0107 16.9985 16.6806 16.9985 16.3232V9.32168H17.9987C18.7687 9.32168 19.2499 8.48812 18.8649 7.82129C18.6862 7.51188 18.356 7.32129 17.9987 7.32129H13.9978Z" fill="#FFBFC5"/>
<path d="M22.9999 8.32149C22.9999 7.55149 22.1663 7.07027 21.4996 7.45527C21.1901 7.63393 20.9995 7.96417 20.9995 8.32149V16.3232C20.9995 17.0932 21.833 17.5744 22.4998 17.1894C22.8092 17.0107 22.9999 16.6806 22.9999 16.3232V8.32149Z" fill="#FFBFC5"/>
<path d="M10.9975 16.3231C10.9975 17.0931 10.1639 17.5743 9.4971 17.1893C9.18769 17.0107 8.997 16.6805 8.997 16.3231V11.8222L3.16773 16.9873C2.42169 17.6548 1.23266 17.2644 1.02759 16.2845C0.932444 15.8298 1.08715 15.3587 1.43342 15.0489L10.9975 6.67505V16.3231Z" fill="#FFBFC5"/>
<path d="M14.9976 11.8223V16.3232C14.9976 17.0932 15.8311 17.5744 16.498 17.1894C16.8074 17.0108 16.9981 16.6806 16.9981 16.3232V11.8223H14.9976Z" fill="#FF808C"/>
<path d="M20.9995 11.8223V16.3232C20.9995 17.0932 21.833 17.5744 22.4998 17.1894C22.8092 17.0108 22.9999 16.6806 22.9999 16.3232V11.8223H20.9995Z" fill="#FF808C"/>
<path d="M8.99658 11.8223V16.3232C8.99658 17.0932 9.83015 17.5744 10.497 17.1894C10.8064 17.0108 10.9971 16.6806 10.9971 16.3232V11.8223H8.99658Z" fill="#FF808C"/>
<path d="M5.11908 11.8223L1.43327 15.049C0.690748 15.7225 0.955759 16.9473 1.91029 17.2536C2.17745 17.3393 2.46515 17.3364 2.73055 17.2455C2.89181 17.189 3.04025 17.1013 3.16758 16.9874L8.99685 11.8223H5.11908Z" fill="#FF808C"/>
<path d="M13.9978 7.32129C13.2279 7.32129 12.7466 8.15475 13.1315 8.82158C13.3103 9.13109 13.6404 9.32168 13.9978 9.32168H14.998V16.3232C14.998 17.0932 15.8315 17.5744 16.4984 17.1894C16.8078 17.0107 16.9985 16.6806 16.9985 16.3232V9.32168H17.9987C18.7687 9.32168 19.2499 8.48812 18.8649 7.82129C18.6862 7.51188 18.356 7.32129 17.9987 7.32129H13.9978Z" stroke="#191919" stroke-linecap="round" stroke-linejoin="round"/>
<path d="M22.9999 8.32149C22.9999 7.55149 22.1663 7.07027 21.4996 7.45527C21.1901 7.63393 20.9995 7.96417 20.9995 8.32149V16.3232C20.9995 17.0932 21.833 17.5744 22.4998 17.1894C22.8092 17.0107 22.9999 16.6806 22.9999 16.3232V8.32149Z" stroke="#191919" stroke-linecap="round" stroke-linejoin="round"/>
<path d="M10.9975 16.3231C10.9975 17.0931 10.1639 17.5743 9.4971 17.1893C9.18769 17.0107 8.997 16.6805 8.997 16.3231V11.8222L3.16773 16.9873C2.42169 17.6548 1.23266 17.2644 1.02759 16.2845C0.932444 15.8298 1.08715 15.3587 1.43342 15.0489L10.9975 6.67505V16.3231Z" stroke="#191919" stroke-linecap="round" stroke-linejoin="round"/>
</svg>
