<svg width="24" height="24" viewBox="0 0 24 24" fill="none" xmlns="http://www.w3.org/2000/svg">
<path d="M12.0106 21.0347C17.0466 21.0347 21.1291 16.9521 21.1291 11.9162C21.1291 6.88016 17.0466 2.79767 12.0106 2.79767C6.97458 2.79767 2.89209 6.88016 2.89209 11.9162C2.89209 16.9521 6.97458 21.0347 12.0106 21.0347Z" fill="#C2F3FF"/>
<path d="M8.01516 14.9663L15.9172 7.06605C16.0886 6.8877 16.2937 6.74532 16.5208 6.64725C16.7478 6.54919 16.9921 6.49739 17.2394 6.49491C17.4867 6.49243 17.732 6.5393 17.961 6.63279C18.1899 6.72629 18.3979 6.86451 18.5727 7.03938C18.7476 7.21425 18.8859 7.42225 18.9794 7.6512C19.0729 7.88015 19.1197 8.12545 19.1172 8.37275C19.1148 8.62004 19.063 8.86435 18.9649 9.09138C18.8668 9.3184 18.7244 9.52359 18.5462 9.69491L7.872 20.4009C7.52766 20.7505 7.11754 21.0285 6.66528 21.2188C6.21302 21.4091 5.72756 21.5081 5.23689 21.5099C4.74623 21.5117 4.26003 21.4165 3.80636 21.2295C3.35268 21.0426 2.94048 20.7678 2.59353 20.4208C2.24657 20.0738 1.9717 19.6616 1.78478 19.208C1.59786 18.7543 1.50258 18.2681 1.50442 17.7774C1.50627 17.2867 1.6052 16.8012 1.79553 16.3491C1.98585 15.8968 2.26381 15.4867 2.61336 15.1423L13.7689 3.98764C14.7276 3.02887 16.0278 2.49019 17.3836 2.49011C18.7395 2.49003 20.0398 3.02853 20.9985 3.98718C21.9573 4.94583 22.496 6.24608 22.4961 7.60189C22.4962 8.9577 21.9576 10.258 20.999 11.2168L13.0979 19.1189" stroke="#191919" stroke-linecap="round" stroke-linejoin="round"/>
</svg>
