<svg width="24" height="24" viewBox="0 0 24 24" fill="none" xmlns="http://www.w3.org/2000/svg">
<g clip-path="url(#clip0_5303_3654)">
<path d="M21.087 6.71043V22.0435C21.087 22.2972 20.9862 22.5405 20.8068 22.7198C20.6275 22.8992 20.3842 23 20.1305 23H3.86961C3.61592 23 3.37263 22.8992 3.19324 22.7198C3.01386 22.5405 2.91309 22.2972 2.91309 22.0435V1.95652C2.91309 1.70284 3.01386 1.45954 3.19324 1.28016C3.37263 1.10078 3.61592 1 3.86961 1H15.3766C15.6874 1 15.9983 1.0287 16.3044 1.08609V4.82609C16.3044 5.07977 16.4052 5.32307 16.5845 5.50245C16.7639 5.68183 17.0072 5.78261 17.2609 5.78261H21.0009C21.0583 6.0887 21.087 6.39957 21.087 6.71043Z" fill="#66E1FF"/>
<path d="M16.6392 5.55304L2.91309 19.2887V1.95652C2.91309 1.70284 3.01386 1.45954 3.19324 1.28016C3.37263 1.10078 3.61592 1 3.86961 1H15.3766C15.6874 1 15.9983 1.0287 16.3044 1.08609V4.82609C16.3062 4.96394 16.337 5.09987 16.3946 5.22509C16.4523 5.35031 16.5356 5.46204 16.6392 5.55304Z" fill="#C2F3FF"/>
<path d="M21.0012 5.78258H17.2612C17.0075 5.78258 16.7642 5.6818 16.5848 5.50242C16.4055 5.32304 16.3047 5.07974 16.3047 4.82606V1.08606C17.4822 1.27497 18.5701 1.83063 19.4134 2.67391C20.2566 3.51719 20.8123 4.60506 21.0012 5.78258Z" fill="white"/>
<path d="M21.087 6.71043V22.0435C21.087 22.2972 20.9862 22.5405 20.8068 22.7198C20.6275 22.8992 20.3842 23 20.1305 23H3.86961C3.61592 23 3.37263 22.8992 3.19324 22.7198C3.01386 22.5405 2.91309 22.2972 2.91309 22.0435V1.95652C2.91309 1.70284 3.01386 1.45954 3.19324 1.28016C3.37263 1.10078 3.61592 1 3.86961 1H15.3766C15.6874 1 15.9983 1.0287 16.3044 1.08609V4.82609C16.3044 5.07977 16.4052 5.32307 16.5845 5.50245C16.7639 5.68183 17.0072 5.78261 17.2609 5.78261H21.0009C21.0583 6.0887 21.087 6.39957 21.087 6.71043Z" stroke="#191919" stroke-linecap="round" stroke-linejoin="round"/>
<path d="M21.0012 5.78258H17.2612C17.0075 5.78258 16.7642 5.6818 16.5848 5.50242C16.4055 5.32304 16.3047 5.07974 16.3047 4.82606V1.08606C17.4822 1.27497 18.5701 1.83063 19.4134 2.67391C20.2566 3.51719 20.8123 4.60506 21.0012 5.78258Z" stroke="#191919" stroke-linecap="round" stroke-linejoin="round"/>
<path d="M5.78271 18.2174V12.4783L7.2175 15.3478L8.65228 12.4783V18.2174" stroke="#191919" stroke-linecap="round" stroke-linejoin="round"/>
<path d="M13.435 13.913C13.435 14.2936 13.2838 14.6585 13.0148 14.9276C12.7457 15.1967 12.3807 15.3478 12.0002 15.3478H10.5654V12.4783H12.0002C12.3807 12.4783 12.7457 12.6294 13.0148 12.8985C13.2838 13.1676 13.435 13.5325 13.435 13.913Z" stroke="#191919" stroke-linecap="round" stroke-linejoin="round"/>
<path d="M10.5654 18.2174V15.3478" stroke="#191919" stroke-linecap="round" stroke-linejoin="round"/>
<path d="M15.3478 13.6261C15.3249 13.3475 15.4123 13.0711 15.5912 12.8564C15.7701 12.6417 16.0262 12.5059 16.3044 12.4783H17.0284C17.3749 12.5143 17.6935 12.6848 17.9157 12.953C18.138 13.2212 18.2463 13.5659 18.2174 13.913C18.2467 14.261 18.138 14.6066 17.9146 14.8751C17.6912 15.1436 17.3712 15.3134 17.0237 15.3478C17.3711 15.3825 17.691 15.5524 17.9143 15.8208C18.1376 16.0892 18.2465 16.4346 18.2174 16.7826C18.2463 17.1298 18.138 17.4744 17.9157 17.7426C17.6935 18.0109 17.3749 18.1813 17.0284 18.2174H16.3044C16.0262 18.1897 15.7701 18.0539 15.5912 17.8392C15.4123 17.6245 15.3249 17.3481 15.3478 17.0696" stroke="#191919" stroke-linecap="round" stroke-linejoin="round"/>
</g>
<defs>
<clipPath id="clip0_5303_3654">
<rect width="24" height="24" fill="white"/>
</clipPath>
</defs>
</svg>
