<svg width="24" height="24" viewBox="0 0 24 24" fill="none" xmlns="http://www.w3.org/2000/svg">
<g clip-path="url(#clip0_5303_3711)">
<path d="M20.8067 4.82609C20.9861 5.00543 21.0869 5.24868 21.087 5.50235V22.0435C21.087 22.2972 20.9862 22.5405 20.8068 22.7198C20.6275 22.8992 20.3842 23 20.1305 23H3.86961C3.61592 23 3.37263 22.8992 3.19324 22.7198C3.01386 22.5405 2.91309 22.2972 2.91309 22.0435V1.95652C2.91309 1.70284 3.01386 1.45954 3.19324 1.28016C3.37263 1.10078 3.61592 1 3.86961 1H16.5847C16.8383 1.00005 17.0816 1.10087 17.2609 1.28026L20.8067 4.82609Z" fill="#E4F1F5"/>
<path d="M20.8067 4.82609L17.2609 1.28026C17.0816 1.10087 16.8383 1.00005 16.5847 1H3.86961C3.61592 1 3.37263 1.10078 3.19324 1.28016C3.01386 1.45954 2.91309 1.70284 2.91309 1.95652V22.0435C2.91314 22.2971 3.01395 22.5404 3.19335 22.7197L20.9186 4.99443C20.8878 4.9343 20.8502 4.87783 20.8067 4.82609Z" fill="white"/>
<path d="M20.8067 4.82609C20.9861 5.00543 21.0869 5.24868 21.087 5.50235V22.0435C21.087 22.2972 20.9862 22.5405 20.8068 22.7198C20.6275 22.8992 20.3842 23 20.1305 23H3.86961C3.61592 23 3.37263 22.8992 3.19324 22.7198C3.01386 22.5405 2.91309 22.2972 2.91309 22.0435V1.95652C2.91309 1.70284 3.01386 1.45954 3.19324 1.28016C3.37263 1.10078 3.61592 1 3.86961 1H16.5847C16.8383 1.00005 17.0816 1.10087 17.2609 1.28026L20.8067 4.82609Z" stroke="#191919" stroke-linecap="round" stroke-linejoin="round"/>
<path d="M14.8698 16.3043C15.0583 16.3043 15.2448 16.2672 15.4189 16.1951C15.593 16.123 15.7512 16.0173 15.8844 15.8841C16.0176 15.7508 16.1233 15.5927 16.1954 15.4186C16.2675 15.2445 16.3046 15.058 16.3046 14.8695C16.3046 14.6811 16.2675 14.4945 16.1954 14.3205C16.1233 14.1464 16.0176 13.9882 15.8844 13.855C15.7512 13.7218 15.593 13.6161 15.4189 13.544C15.2448 13.4719 15.0583 13.4348 14.8698 13.4348C14.4893 13.4348 14.1244 13.5859 13.8553 13.855C13.5862 14.1241 13.4351 14.489 13.4351 14.8695C13.4351 15.2501 13.5862 15.615 13.8553 15.8841C14.1244 16.1532 14.4893 16.3043 14.8698 16.3043Z" fill="#808080" stroke="#191919" stroke-linecap="round" stroke-linejoin="round"/>
<path d="M8.17453 17.2608C8.55506 17.2608 8.92 17.1097 9.18907 16.8406C9.45815 16.5715 9.60931 16.2066 9.60931 15.826C9.60931 15.4455 9.45815 15.0806 9.18907 14.8115C8.92 14.5424 8.55506 14.3913 8.17453 14.3913C7.794 14.3913 7.42906 14.5424 7.15998 14.8115C6.89091 15.0806 6.73975 15.4455 6.73975 15.826C6.73975 16.2066 6.89091 16.5715 7.15998 16.8406C7.42906 17.1097 7.794 17.2608 8.17453 17.2608Z" fill="#808080" stroke="#191919" stroke-linecap="round" stroke-linejoin="round"/>
<path d="M9.60938 15.826V10.3299C9.60947 10.1221 9.67719 9.92006 9.8023 9.75422C9.92742 9.58838 10.1031 9.46777 10.3029 9.41065L15.0855 8.04378C15.2279 8.00304 15.3778 7.99594 15.5234 8.02303C15.669 8.05011 15.8064 8.11065 15.9246 8.19986C16.0429 8.28907 16.1388 8.40452 16.2048 8.53712C16.2708 8.66972 16.3051 8.81583 16.305 8.96395V14.8695" stroke="#191919" stroke-linecap="round" stroke-linejoin="round"/>
</g>
<defs>
<clipPath id="clip0_5303_3711">
<rect width="24" height="24" fill="white"/>
</clipPath>
</defs>
</svg>
