<svg width="24" height="24" viewBox="0 0 24 24" fill="none" xmlns="http://www.w3.org/2000/svg">
<g clip-path="url(#clip0_5303_3496)">
<path d="M18.8901 4.82415C19.0694 5.00344 19.1702 5.24654 19.1702 5.50009V22.0329C19.1702 22.5609 18.7422 22.989 18.2142 22.989H1.96141C1.43342 22.989 1.00537 22.5609 1.00537 22.0329V1.95604C1.00537 1.42805 1.43342 1 1.96141 1H14.6701C14.9237 1.0001 15.1668 1.10082 15.346 1.2801L18.8901 4.82415Z" fill="#E4F1F5"/>
<path d="M18.8901 4.82415L15.346 1.2801C15.1669 1.10082 14.9237 1.0001 14.6701 1H1.96141C1.43342 1 1.00537 1.42805 1.00537 1.95604V22.0329C1.00547 22.2865 1.10619 22.5296 1.28557 22.7089L19.0019 4.99241C18.9711 4.93229 18.9336 4.87588 18.8901 4.82415Z" fill="white"/>
<path d="M8.65378 22.989H1.96141C1.43342 22.989 1.00537 22.5609 1.00537 22.0329V1.95604C1.00537 1.42805 1.43342 1 1.96141 1H14.6701C14.9237 1 15.1668 1.10082 15.346 1.2801L18.8901 4.82415C19.0694 5.00344 19.1702 5.24654 19.1702 5.50009V8.64831" stroke="#191919" stroke-linecap="round" stroke-linejoin="round"/>
<path d="M9.60978 13.9066C9.60978 14.7985 8.53995 15.5195 7.21969 15.5195C5.89942 15.5195 4.82959 14.7985 4.82959 13.9066C4.82959 13.0147 5.89933 12.2947 7.21969 12.2947C8.54005 12.2947 9.60978 13.0156 9.60978 13.9066Z" fill="#808080"/>
<path d="M9.60978 13.9066C9.60978 14.7985 8.53995 15.5195 7.21969 15.5195C5.89942 15.5195 4.82959 14.7985 4.82959 13.9066C4.82959 13.0147 5.89933 12.2947 7.21969 12.2947C8.54005 12.2947 9.60978 13.0156 9.60978 13.9066Z" stroke="#191919" stroke-linecap="round" stroke-linejoin="round"/>
<path d="M9.60938 13.9066V7.42751C9.60791 6.69154 10.4037 6.23002 11.0418 6.59668L11.0434 6.59766L12.9555 7.69228" stroke="#191919" stroke-linecap="round" stroke-linejoin="round"/>
<path d="M17.249 21.555C20.5609 21.555 22.6308 17.9698 20.9749 15.1017C20.2063 13.7705 18.7861 12.9505 17.249 12.9506C13.9372 12.9507 11.8672 16.536 13.5233 19.4041C14.2919 20.7351 15.7121 21.555 17.249 21.555Z" fill="#C2F3FF"/>
<path d="M14.8681 18.2088H11.522V21.555" stroke="#191919" stroke-linecap="round" stroke-linejoin="round"/>
<path d="M22.4371 19.3867C21.1172 23.2684 16.0901 24.2656 13.3883 21.1815C12.659 20.349 12.2073 19.31 12.0957 18.2088" stroke="#191919" stroke-linecap="round" stroke-linejoin="round"/>
<path d="M19.6484 16.2968H22.9947V12.9506" stroke="#191919" stroke-linecap="round" stroke-linejoin="round"/>
<path d="M12.0791 15.117C13.4029 11.2358 18.4318 10.243 21.1312 13.3301C21.8581 14.1614 22.3087 15.1981 22.4206 16.2967" stroke="#191919" stroke-linecap="round" stroke-linejoin="round"/>
</g>
<defs>
<clipPath id="clip0_5303_3496">
<rect width="24" height="24" fill="white"/>
</clipPath>
</defs>
</svg>
