<svg width="24" height="24" viewBox="0 0 24 24" fill="none" xmlns="http://www.w3.org/2000/svg">
<path d="M8.54785 1V5.44086C8.58279 6.05908 8.85038 6.64116 9.29688 7.07017L12.0019 9.3883V1H8.54785Z" fill="#FF808C"/>
<path d="M15.455 5.44086V1H12.001V9.3883L14.706 7.07017C15.1524 6.64116 15.4201 6.05908 15.455 5.44086Z" fill="#66E1FF"/>
<path d="M16.4409 18.7636L18.5587 16.6448C18.6511 16.5523 18.7032 16.4268 18.7032 16.296C18.7032 16.1651 18.6511 16.0397 18.5587 15.9471L16.4409 13.8293L16.8356 11.8457C16.8536 11.7919 16.8561 11.734 16.843 11.6788C16.83 11.6235 16.8018 11.573 16.7617 11.5329C16.7215 11.4927 16.671 11.4645 16.6158 11.4515C16.5605 11.4384 16.5027 11.4409 16.4488 11.4589L14.4652 11.8536L12 9.38843L9.53286 11.8556L7.54927 11.4609C7.4954 11.4429 7.43759 11.4403 7.38234 11.4535C7.32708 11.4665 7.27654 11.4947 7.23639 11.5349C7.19624 11.575 7.16806 11.6255 7.15499 11.6807C7.14194 11.736 7.1445 11.7938 7.16242 11.8477L7.55717 13.8313L5.44134 15.9471C5.34884 16.0397 5.29688 16.1651 5.29688 16.296C5.29688 16.4268 5.34884 16.5523 5.44134 16.6448L7.55914 18.7636L7.1644 20.7472C7.14648 20.8011 7.14391 20.8589 7.15697 20.9142C7.17003 20.9695 7.19822 21.02 7.23836 21.0602C7.27852 21.1002 7.32906 21.1284 7.38431 21.1415C7.43955 21.1546 7.49737 21.152 7.55125 21.1341L9.53483 20.7393L11.6507 22.8552C11.6965 22.9011 11.7509 22.9376 11.8109 22.9624C11.8708 22.9873 11.9351 23.0001 12 23.0001C12.0649 23.0001 12.1292 22.9873 12.1891 22.9624C12.2491 22.9376 12.3036 22.9011 12.3494 22.8552L14.4672 20.7374L16.4507 21.1321C16.5046 21.1501 16.5625 21.1526 16.6177 21.1395C16.673 21.1265 16.7235 21.0982 16.7637 21.0582C16.8037 21.018 16.832 20.9675 16.845 20.9122C16.8581 20.857 16.8556 20.7991 16.8376 20.7452L16.4409 18.7636Z" fill="#FFEF5E"/>
<path d="M7.1644 20.7472C7.14957 20.8009 7.14839 20.8576 7.16097 20.9118C7.17356 20.9661 7.19949 21.0163 7.23644 21.0581L16.7636 11.5309C16.7218 11.494 16.6716 11.4681 16.6173 11.4554C16.5631 11.4429 16.5064 11.4441 16.4527 11.4589L14.4691 11.8536L12 9.38843L9.53286 11.8556L7.54927 11.4609C7.4954 11.4429 7.43759 11.4403 7.38234 11.4535C7.32708 11.4665 7.27654 11.4947 7.23639 11.5349C7.19624 11.575 7.16806 11.6255 7.15499 11.6807C7.14194 11.736 7.1445 11.7938 7.16242 11.8477L7.55717 13.8313L5.44134 15.9471C5.34884 16.0397 5.29688 16.1651 5.29688 16.296C5.29688 16.4268 5.34884 16.5523 5.44134 16.6448L7.55914 18.7636L7.1644 20.7472Z" fill="#FFF9BF"/>
<path d="M12.0004 18.7635C13.3629 18.7635 14.4675 17.6589 14.4675 16.2964C14.4675 14.9338 13.3629 13.8292 12.0004 13.8292C10.6378 13.8292 9.5332 14.9338 9.5332 16.2964C9.5332 17.6589 10.6378 18.7635 12.0004 18.7635Z" fill="#FFBC44"/>
<path d="M10.2559 18.0411C9.79317 17.5783 9.5332 16.9508 9.5332 16.2963C9.5332 15.6419 9.79317 15.0143 10.2559 14.5515C10.7187 14.0888 11.3463 13.8289 12.0007 13.8289C12.6551 13.8289 13.2827 14.0888 13.7455 14.5515L10.2559 18.0411Z" fill="#FFDDA1"/>
<path d="M16.4409 18.7636L18.5587 16.6448C18.6511 16.5523 18.7032 16.4268 18.7032 16.296C18.7032 16.1651 18.6511 16.0397 18.5587 15.9471L16.4409 13.8293L16.8356 11.8457C16.8536 11.7919 16.8561 11.734 16.843 11.6788C16.83 11.6235 16.8018 11.573 16.7617 11.5329C16.7215 11.4927 16.671 11.4645 16.6158 11.4515C16.5605 11.4384 16.5027 11.4409 16.4488 11.4589L14.4652 11.8536L12 9.38843L9.53286 11.8556L7.54927 11.4609C7.4954 11.4429 7.43759 11.4403 7.38234 11.4535C7.32708 11.4665 7.27654 11.4947 7.23639 11.5349C7.19624 11.575 7.16806 11.6255 7.15499 11.6807C7.14194 11.736 7.1445 11.7938 7.16242 11.8477L7.55717 13.8313L5.44134 15.9471C5.34884 16.0397 5.29688 16.1651 5.29688 16.296C5.29688 16.4268 5.34884 16.5523 5.44134 16.6448L7.55914 18.7636L7.1644 20.7472C7.14648 20.8011 7.14391 20.8589 7.15697 20.9142C7.17003 20.9695 7.19822 21.02 7.23836 21.0602C7.27852 21.1002 7.32906 21.1284 7.38431 21.1415C7.43956 21.1546 7.49737 21.152 7.55125 21.1341L9.53483 20.7393L11.6507 22.8552C11.6965 22.9011 11.7509 22.9376 11.8109 22.9624C11.8708 22.9873 11.9351 23.0001 12 23.0001C12.0649 23.0001 12.1292 22.9873 12.1891 22.9624C12.2491 22.9376 12.3036 22.9011 12.3494 22.8552L14.4672 20.7374L16.4507 21.1321C16.5046 21.1501 16.5625 21.1526 16.6177 21.1395C16.673 21.1265 16.7235 21.0982 16.7637 21.0582C16.8037 21.018 16.832 20.9675 16.845 20.9122C16.8581 20.857 16.8556 20.7991 16.8376 20.7452L16.4409 18.7636Z" stroke="#191919" stroke-linecap="round" stroke-linejoin="round"/>
<path d="M15.4559 5.44086C15.4209 6.05908 15.1533 6.64116 14.7068 7.07017L12.0019 9.3883L9.29688 7.07017C8.85038 6.64116 8.58279 6.05908 8.54785 5.44086V1H15.4559V5.44086Z" stroke="#191919" stroke-linecap="round" stroke-linejoin="round"/>
<path d="M12.001 1V9.3883" stroke="#191919" stroke-linecap="round" stroke-linejoin="round"/>
<path d="M5.58691 1H18.4161" stroke="#191919" stroke-linecap="round" stroke-linejoin="round"/>
<path d="M12.0004 18.7635C13.3629 18.7635 14.4675 17.6589 14.4675 16.2964C14.4675 14.9338 13.3629 13.8292 12.0004 13.8292C10.6378 13.8292 9.5332 14.9338 9.5332 16.2964C9.5332 17.6589 10.6378 18.7635 12.0004 18.7635Z" stroke="#191919" stroke-linecap="round" stroke-linejoin="round"/>
</svg>
