<svg width="24" height="24" viewBox="0 0 24 24" fill="none" xmlns="http://www.w3.org/2000/svg">
<g clip-path="url(#clip0_5303_10838)">
<path d="M4.35535 14.3795L1.23258 19.7712C1.1856 19.8521 1.16265 19.9447 1.16641 20.0382C1.17017 20.1317 1.20049 20.2221 1.2538 20.299C1.30712 20.3759 1.38123 20.436 1.46747 20.4723C1.5537 20.5085 1.64849 20.5195 1.74073 20.5039L4.49814 20.0371L5.45831 22.6753C5.49008 22.763 5.54611 22.8399 5.61988 22.897C5.69364 22.9541 5.7821 22.9891 5.87496 22.9978C5.96783 23.0066 6.06127 22.9888 6.14442 22.9465C6.22756 22.9043 6.29699 22.8392 6.34462 22.759L9.02621 18.2221" fill="#66E1FF"/>
<path d="M4.35535 14.3795L1.23258 19.7712C1.1856 19.8521 1.16265 19.9447 1.16641 20.0382C1.17017 20.1317 1.20049 20.2221 1.2538 20.299C1.30712 20.3759 1.38123 20.436 1.46747 20.4723C1.5537 20.5085 1.64849 20.5195 1.74073 20.5039L4.49814 20.0371L5.45831 22.6753C5.49008 22.763 5.54611 22.8399 5.61988 22.897C5.69364 22.9541 5.7821 22.9891 5.87496 22.9978C5.96783 23.0066 6.06127 22.9888 6.14442 22.9465C6.22756 22.9043 6.29699 22.8392 6.34462 22.759L9.02621 18.2221" stroke="#191919" stroke-linecap="round" stroke-linejoin="round"/>
<path d="M19.6445 14.3795L22.7673 19.7712C22.8142 19.8521 22.8372 19.9447 22.8334 20.0382C22.8297 20.1317 22.7994 20.2221 22.746 20.299C22.6927 20.3759 22.6186 20.436 22.5324 20.4723C22.4461 20.5085 22.3514 20.5195 22.2591 20.5039L19.5017 20.0371L18.5415 22.6753C18.5098 22.763 18.4537 22.8399 18.38 22.897C18.3062 22.9541 18.2177 22.9891 18.1249 22.9978C18.032 23.0066 17.9386 22.9888 17.8554 22.9465C17.7723 22.9043 17.7028 22.8392 17.6552 22.759L14.9736 18.2221" fill="#66E1FF"/>
<path d="M19.6445 14.3795L22.7673 19.7712C22.8142 19.8521 22.8372 19.9447 22.8334 20.0382C22.8297 20.1317 22.7994 20.2221 22.746 20.299C22.6927 20.3759 22.6186 20.436 22.5324 20.4723C22.4461 20.5085 22.3514 20.5195 22.2591 20.5039L19.5017 20.0371L18.5415 22.6753C18.5098 22.763 18.4537 22.8399 18.38 22.897C18.3062 22.9541 18.2177 22.9891 18.1249 22.9978C18.032 23.0066 17.9386 22.9888 17.8554 22.9465C17.7723 22.9043 17.7028 22.8392 17.6552 22.759L14.9736 18.2221" stroke="#191919" stroke-linecap="round" stroke-linejoin="round"/>
<path d="M11.9842 18.7264C14.3349 18.7264 16.5892 17.7926 18.2514 16.1304C19.9135 14.4682 20.8473 12.2139 20.8473 9.86324C20.8473 7.51259 19.9135 5.25823 18.2514 3.59607C16.5892 1.93391 14.3349 1.00012 11.9842 1.00012C9.63356 1.00012 7.3792 1.93391 5.71704 3.59607C4.05488 5.25823 3.12109 7.51259 3.12109 9.86324C3.12109 12.2139 4.05488 14.4682 5.71704 16.1304C7.3792 17.7926 9.63356 18.7264 11.9842 18.7264Z" fill="#FFEF5E"/>
<path d="M5.71706 16.1304C4.89403 15.3074 4.24118 14.3303 3.79576 13.255C3.35035 12.1796 3.12109 11.0271 3.12109 9.86317C3.12109 8.69924 3.35035 7.54671 3.79576 6.47138C4.24118 5.39605 4.89403 4.41898 5.71706 3.59596C6.54008 2.77294 7.51715 2.12008 8.59248 1.67467C9.6678 1.22925 10.8203 1 11.9843 1C13.1482 1 14.3007 1.22925 15.3761 1.67467C16.4514 2.12008 17.4285 2.77294 18.2515 3.59596L5.71706 16.1304Z" fill="#FFF9BF"/>
<path d="M11.9842 18.7264C14.3349 18.7264 16.5892 17.7926 18.2514 16.1304C19.9135 14.4682 20.8473 12.2139 20.8473 9.86324C20.8473 7.51259 19.9135 5.25823 18.2514 3.59607C16.5892 1.93391 14.3349 1.00012 11.9842 1.00012C9.63356 1.00012 7.3792 1.93391 5.71704 3.59607C4.05488 5.25823 3.12109 7.51259 3.12109 9.86324C3.12109 12.2139 4.05488 14.4682 5.71704 16.1304C7.3792 17.7926 9.63356 18.7264 11.9842 18.7264Z" stroke="#191919" stroke-linecap="round" stroke-linejoin="round"/>
<path d="M12.562 5.29277L13.8245 7.89656H16.2865C16.4097 7.89348 16.5308 7.92816 16.6337 7.99595C16.7366 8.06373 16.8163 8.16137 16.862 8.27576C16.9078 8.39014 16.9175 8.5158 16.8898 8.63585C16.8621 8.7559 16.7983 8.86459 16.707 8.94733L14.5739 11.0498L15.7557 13.7688C15.8083 13.8932 15.8204 14.031 15.7902 14.1627C15.7601 14.2943 15.6893 14.4131 15.5878 14.5023C15.4864 14.5914 15.3594 14.6464 15.225 14.6593C15.0906 14.6723 14.9555 14.6425 14.8389 14.5744L11.983 12.9652L9.12707 14.5744C9.01042 14.6419 8.87554 14.671 8.74143 14.6578C8.60732 14.6446 8.48073 14.5897 8.3795 14.5007C8.27826 14.4118 8.20748 14.2933 8.17711 14.162C8.14674 14.0307 8.15833 13.8932 8.21023 13.7688L9.39198 11.0498L7.25892 8.94733C7.16617 8.86488 7.10113 8.75581 7.07268 8.63501C7.04424 8.51422 7.05378 8.38759 7.1 8.27241C7.14622 8.15724 7.22687 8.05914 7.33092 7.99152C7.43498 7.9239 7.55738 7.89005 7.6814 7.89459H10.1434L11.4078 5.29277C11.4629 5.1873 11.5458 5.09893 11.6475 5.03727C11.7493 4.9756 11.866 4.94299 11.9849 4.94299C12.1039 4.94299 12.2206 4.9756 12.3223 5.03727C12.4241 5.09893 12.507 5.1873 12.562 5.29277Z" fill="white" stroke="#191919" stroke-linecap="round" stroke-linejoin="round"/>
</g>
<defs>
<clipPath id="clip0_5303_10838">
<rect width="24" height="24" fill="white"/>
</clipPath>
</defs>
</svg>
