<svg width="24" height="24" viewBox="0 0 24 24" fill="none" xmlns="http://www.w3.org/2000/svg">
<g clip-path="url(#clip0_5303_7746)">
<path d="M10.5671 18.2165H6.74152C5.68094 18.2163 4.65034 18.5685 3.81193 19.2179C2.97342 19.8672 2.37468 20.777 2.1097 21.804C2.07334 21.9454 2.06988 22.0933 2.09949 22.2364C2.12919 22.3794 2.19122 22.5138 2.28089 22.6291C2.37056 22.7444 2.48543 22.8378 2.6168 22.9017C2.74807 22.9658 2.89227 22.9988 3.03835 22.9985H18.2182C18.4719 22.9985 18.7151 22.8977 18.8944 22.7184C19.0738 22.5391 19.1746 22.2957 19.1746 22.0421V1.47967C19.1746 1.3529 19.1242 1.23128 19.0346 1.14151C18.9449 1.05184 18.8232 1.00153 18.6964 1.00153H11.0453C10.9184 1.00153 10.7968 1.05184 10.7071 1.14151C10.6175 1.23118 10.5671 1.3529 10.5671 1.47967V18.2165Z" fill="white"/>
<path d="M6.74145 22.9985H3.04025C2.89446 22.9978 2.75073 22.964 2.61992 22.8995C2.48912 22.835 2.37471 22.7418 2.28532 22.6266C2.19593 22.5114 2.13391 22.3774 2.10402 22.2347C2.07403 22.092 2.07694 21.9443 2.11254 21.803C2.3347 20.9315 2.79945 20.141 3.4529 19.5231C4.10636 18.9051 4.92163 18.4853 5.80418 18.3122L6.74145 22.9985Z" fill="#FFDDA1"/>
<path d="M19.174 16.3038V22.0421C19.174 22.2957 19.0732 22.539 18.8939 22.7184C18.7145 22.8977 18.4713 22.9984 18.2176 22.9984H14.3921L19.174 16.3038Z" fill="#FFDDA1"/>
<path d="M18.218 20.6075H3.03815C2.90903 20.6041 2.78179 20.5749 2.6642 20.5214C2.41805 20.9192 2.23187 21.351 2.11137 21.803C2.07492 21.9443 2.07127 22.0922 2.10079 22.2353C2.13021 22.3782 2.19214 22.5126 2.28153 22.628C2.37101 22.7434 2.4857 22.8368 2.61688 22.901C2.74806 22.9653 2.89217 22.9985 3.03815 22.9984H18.218C18.4717 22.9984 18.7149 22.8977 18.8942 22.7184C19.0736 22.539 19.1744 22.2957 19.1744 22.0421V19.6511C19.1744 19.9048 19.0736 20.148 18.8942 20.3274C18.7149 20.5067 18.4717 20.6075 18.218 20.6075Z" fill="#E3E3E3"/>
<path d="M18.2176 20.6075H16.1001L14.3921 22.9984H18.2176C18.4713 22.9984 18.7145 22.8978 18.8939 22.7184C19.0732 22.539 19.174 22.2957 19.174 22.0421V19.6607C19.1715 19.9127 19.0695 20.1535 18.8906 20.3308C18.7114 20.508 18.4696 20.6075 18.2176 20.6075Z" fill="#FFDDA1"/>
<path d="M3.03829 20.6075C2.90598 20.6049 2.77565 20.5746 2.65571 20.5185C2.41219 20.9175 2.2291 21.3504 2.11254 21.803C2.07694 21.9443 2.07403 22.092 2.10402 22.2347C2.13391 22.3774 2.19593 22.5114 2.28532 22.6265C2.37471 22.7418 2.48912 22.8351 2.61992 22.8995C2.75073 22.964 2.89446 22.9978 3.04025 22.9984H6.74145L6.26321 20.6075H3.03829Z" fill="#FFDDA1"/>
<path d="M19.174 6.68146V1.47967C19.174 1.3529 19.1236 1.23128 19.034 1.14151C18.9442 1.05184 18.8226 1.00153 18.6957 1.00153H11.0446C10.9178 1.00153 10.7962 1.05184 10.7065 1.14151C10.6168 1.23118 10.5664 1.3529 10.5664 1.47967V6.42135" stroke="#191919" stroke-linecap="round" stroke-linejoin="round"/>
<path d="M6.74121 22.9984H14.3924" stroke="#191919" stroke-linecap="round" stroke-linejoin="round"/>
<path d="M19.1748 16.3038V15.5482" stroke="#191919" stroke-linecap="round" stroke-linejoin="round"/>
<path d="M5.80371 18.3122C6.11161 18.2457 6.42597 18.2137 6.74098 18.2165H10.5665V15.3474" stroke="#191919" stroke-linecap="round" stroke-linejoin="round"/>
<path d="M5.60298 13.0138C5.37342 13.7789 4.1588 14.0658 2.8964 13.6737C1.6339 13.2816 0.801856 12.3443 1.04097 11.5888C1.28009 10.8332 2.49471 10.5463 3.75712 10.9384C5.01952 11.3305 5.84201 12.2582 5.60298 13.0138Z" fill="#E3E3E3" stroke="#191919" stroke-linecap="round" stroke-linejoin="round"/>
<path d="M10.5718 18.2165L19.1746 16.3038" stroke="#191919" stroke-linecap="round" stroke-linejoin="round"/>
<path d="M10.5688 4.96758L19.1744 2.57657" stroke="#191919" stroke-linecap="round" stroke-linejoin="round"/>
<path d="M6.74145 22.9985H3.04025C2.89446 22.9978 2.75073 22.964 2.61992 22.8995C2.48912 22.835 2.37471 22.7418 2.28532 22.6266C2.19593 22.5114 2.13391 22.3774 2.10402 22.2347C2.07403 22.092 2.07694 21.9443 2.11254 21.803C2.3347 20.9315 2.79945 20.141 3.4529 19.5231C4.10636 18.9051 4.92163 18.4853 5.80418 18.3122L6.74145 22.9985Z" stroke="#191919" stroke-linecap="round" stroke-linejoin="round"/>
<path d="M19.174 16.3038V22.0421C19.174 22.2957 19.0732 22.539 18.8939 22.7184C18.7145 22.8977 18.4713 22.9984 18.2176 22.9984H14.3921L19.174 16.3038Z" stroke="#191919" stroke-linecap="round" stroke-linejoin="round"/>
<path d="M10.5664 18.2165L11.5228 22.9985" stroke="#191919" stroke-linecap="round" stroke-linejoin="round"/>
<path d="M22.9997 10.3359V16.0455C23.0014 16.12 22.9848 16.1938 22.9515 16.2605C22.9182 16.3272 22.8691 16.3846 22.8085 16.4281C22.7502 16.4748 22.6812 16.5063 22.6077 16.5197C22.5342 16.5331 22.4586 16.5278 22.3877 16.5045L3.75716 10.9383C2.49475 10.5462 1.28014 10.8331 1.04102 11.5887L2.89635 5.65907C3.13547 4.90348 4.35008 4.60702 5.61258 4.99915L22.6555 9.87674C22.7548 9.90569 22.842 9.96613 22.9041 10.0489C22.9662 10.1316 22.9997 10.2323 22.9997 10.3359Z" fill="white"/>
<path d="M6.44266 6.63551C6.62725 6.05308 7.35988 5.73272 8.25986 5.75661L5.61258 4.99915C4.35008 4.60702 3.13547 4.90348 2.89644 5.65907L1.04102 11.5887C1.28014 10.8331 2.49475 10.5462 3.75716 10.9383L4.98227 11.3046L6.44266 6.63551Z" fill="#E3E3E3"/>
<path d="M22.9997 10.3359V16.0455C23.0014 16.12 22.9848 16.1938 22.9515 16.2605C22.9182 16.3272 22.8691 16.3846 22.8085 16.4281C22.7502 16.4748 22.6812 16.5063 22.6077 16.5197C22.5342 16.5331 22.4586 16.5278 22.3877 16.5045L3.75716 10.9383C2.49475 10.5462 1.28014 10.8331 1.04102 11.5887L2.89635 5.65907C3.13547 4.90348 4.35008 4.60702 5.61258 4.99915L22.6555 9.87674C22.7548 9.90569 22.842 9.96613 22.9041 10.0489C22.9662 10.1316 22.9997 10.2323 22.9997 10.3359Z" stroke="#191919" stroke-linecap="round" stroke-linejoin="round"/>
</g>
<defs>
<clipPath id="clip0_5303_7746">
<rect width="24" height="24" fill="white"/>
</clipPath>
</defs>
</svg>
