<svg width="24" height="24" viewBox="0 0 24 24" fill="none" xmlns="http://www.w3.org/2000/svg">
<path d="M17.2609 8.6521C17.3258 8.65201 17.3901 8.66516 17.4498 8.69073C17.5096 8.71631 17.5634 8.75378 17.6082 8.80086C17.653 8.84794 17.6876 8.90364 17.7102 8.96456C17.7326 9.02549 17.7425 9.09037 17.7391 9.15523C17.6059 10.5851 16.9436 11.9138 15.8821 12.881C14.8205 13.8483 13.4361 14.3843 12 14.3843C10.5639 14.3843 9.17953 13.8483 8.11797 12.881C7.05641 11.9138 6.39416 10.5851 6.2609 9.15523C6.25752 9.09037 6.26739 9.02549 6.28991 8.96456C6.31243 8.90364 6.34712 8.84794 6.39187 8.80086C6.43663 8.75378 6.4905 8.71631 6.5502 8.69073C6.60991 8.66516 6.67421 8.65201 6.73916 8.6521H17.2609Z" fill="white"/>
<path d="M17.2609 8.6521H17.2236C16.7673 9.65463 16.0321 10.5047 15.1059 11.1008C14.1797 11.6969 13.1015 12.0138 12 12.0138C10.8986 12.0138 9.82035 11.6969 8.89411 11.1008C7.96787 10.5047 7.23274 9.65463 6.77647 8.6521H6.73916C6.67421 8.65201 6.60991 8.66516 6.5502 8.69073C6.4905 8.71631 6.43663 8.75378 6.39187 8.80086C6.34712 8.84794 6.31243 8.90364 6.28991 8.96456C6.26739 9.02549 6.25752 9.09037 6.2609 9.15523C6.39416 10.5851 7.05641 11.9138 8.11797 12.881C9.17953 13.8483 10.5639 14.3843 12 14.3843C13.4361 14.3843 14.8205 13.8483 15.8821 12.881C16.9436 11.9138 17.6059 10.5851 17.7391 9.15523C17.7425 9.09037 17.7326 9.02549 17.7102 8.96456C17.6876 8.90364 17.653 8.84794 17.6082 8.80086C17.5634 8.75378 17.5096 8.71631 17.4498 8.69073C17.3901 8.66516 17.3258 8.65201 17.2609 8.6521Z" fill="#E3E3E3"/>
<path d="M8.65245 6.73912C9.04256 6.35255 9.29465 5.84837 9.36984 5.30434C9.36984 4.1613 7.93506 3.58261 7.93506 2.43478C8.01025 1.89075 8.26234 1.38657 8.65245 1" stroke="#191919" stroke-linecap="round" stroke-linejoin="round"/>
<path d="M15.3478 6.73912C15.7378 6.35255 15.99 5.84837 16.0652 5.30434C16.0652 4.1613 14.6304 3.58261 14.6304 2.43478C14.7056 1.89075 14.9577 1.38657 15.3478 1" stroke="#191919" stroke-linecap="round" stroke-linejoin="round"/>
<path d="M12.0001 6.73912C12.3902 6.35255 12.6423 5.84837 12.7175 5.30434C12.7175 4.1613 11.2827 3.58261 11.2827 2.43478C11.3579 1.89075 11.61 1.38657 12.0001 1" stroke="#191919" stroke-linecap="round" stroke-linejoin="round"/>
<path d="M4.82617 23L9.25582 13.6969" stroke="#191919" stroke-linecap="round" stroke-linejoin="round"/>
<path d="M19.1738 23L14.7441 13.6969" stroke="#191919" stroke-linecap="round" stroke-linejoin="round"/>
<path d="M17.8069 20.1304H6.19287" stroke="#191919" stroke-linecap="round" stroke-linejoin="round"/>
<path d="M17.2609 8.6521C17.3258 8.65201 17.3901 8.66516 17.4498 8.69073C17.5096 8.71631 17.5634 8.75378 17.6082 8.80086C17.653 8.84794 17.6876 8.90364 17.7102 8.96456C17.7326 9.02549 17.7425 9.09037 17.7391 9.15523C17.6059 10.5851 16.9436 11.9138 15.8821 12.881C14.8205 13.8483 13.4361 14.3843 12 14.3843C10.5639 14.3843 9.17953 13.8483 8.11797 12.881C7.05641 11.9138 6.39416 10.5851 6.2609 9.15523C6.25752 9.09037 6.26739 9.02549 6.28991 8.96456C6.31243 8.90364 6.34712 8.84794 6.39187 8.80086C6.43663 8.75378 6.4905 8.71631 6.5502 8.69073C6.60991 8.66516 6.67421 8.65201 6.73916 8.6521H17.2609Z" stroke="#191919" stroke-linecap="round" stroke-linejoin="round"/>
</svg>
