<svg width="24" height="24" viewBox="0 0 24 24" fill="none" xmlns="http://www.w3.org/2000/svg">
<g clip-path="url(#clip0_5303_11751)">
<path d="M18.1734 20.2738C19.5377 20.2738 20.6436 19.1678 20.6436 17.8035C20.6436 16.4392 19.5377 15.3333 18.1734 15.3333C16.8091 15.3333 15.7031 16.4392 15.7031 17.8035C15.7031 19.1678 16.8091 20.2738 18.1734 20.2738Z" fill="white" stroke="#191919" stroke-linecap="round" stroke-linejoin="round"/>
<path d="M4.82723 21.3141L8.63834 17.4991L21.7712 6.61713C22.1192 6.33982 22.4045 5.99199 22.6084 5.59649C22.8124 5.201 22.9302 4.76682 22.9543 4.3225C22.9784 3.87819 22.908 3.43382 22.748 3.01862C22.5881 2.60341 22.3419 2.2268 22.0259 1.91353C21.7099 1.60026 21.3312 1.35746 20.9146 1.20108C20.498 1.0447 20.0531 0.978283 19.6089 1.00622C19.1649 1.03415 18.7317 1.15579 18.338 1.36313C17.9444 1.57047 17.599 1.85882 17.3247 2.20921L6.5742 15.3717L2.72949 19.2164L4.82723 21.3141Z" fill="#C77F67"/>
<path d="M22.0508 1.9504L22.0301 1.92471C21.7151 1.60973 21.3368 1.36511 20.9203 1.20697C20.5039 1.04883 20.0585 0.980779 19.6139 1.0073C19.1691 1.03381 18.7351 1.15429 18.3403 1.3608C17.9456 1.5673 17.5991 1.85515 17.3238 2.20533L6.57419 15.3718L2.72949 19.2165L3.75712 20.2441L22.0508 1.9504Z" fill="#E3BFB3"/>
<path d="M1.33179 19.2163C1.51708 19.0311 1.76837 18.927 2.03038 18.927C2.29239 18.927 2.54367 19.0311 2.72897 19.2163L4.82671 21.3131C4.91844 21.4049 4.99121 21.5139 5.04083 21.6338C5.09045 21.7537 5.11597 21.8822 5.11592 22.012C5.11588 22.1418 5.09027 22.2703 5.04056 22.3902C4.99085 22.5101 4.91802 22.619 4.82621 22.7108C4.73441 22.8025 4.62543 22.8753 4.50551 22.9249C4.38558 22.9745 4.25706 23 4.12727 23C3.99748 22.9999 3.86898 22.9743 3.74909 22.9246C3.62921 22.8749 3.52028 22.8021 3.42854 22.7103L1.33179 20.6145C1.23992 20.5227 1.16704 20.4137 1.11731 20.2938C1.06759 20.1738 1.04199 20.0453 1.04199 19.9154C1.04199 19.7856 1.06759 19.6569 1.11731 19.537C1.16704 19.417 1.23992 19.3081 1.33179 19.2163Z" fill="#C77F67" stroke="#191919" stroke-linecap="round" stroke-linejoin="round"/>
<path d="M6.22424 15.723L4.47754 17.4697L6.57435 19.5665L8.32106 17.8197L6.22424 15.723Z" fill="#FFBC44" stroke="#191919" stroke-linecap="round" stroke-linejoin="round"/>
<path d="M4.82723 21.3141L8.63834 17.4991L21.7712 6.61713C22.1192 6.33982 22.4045 5.99199 22.6084 5.59649C22.8124 5.201 22.9302 4.76682 22.9543 4.3225C22.9784 3.87819 22.908 3.43382 22.748 3.01862C22.5881 2.60341 22.3419 2.2268 22.0259 1.91353C21.7099 1.60026 21.3312 1.35746 20.9146 1.20108C20.498 1.0447 20.0531 0.978283 19.6089 1.00622C19.1649 1.03415 18.7317 1.15579 18.338 1.36313C17.9444 1.57047 17.599 1.85882 17.3247 2.20921L6.5742 15.3717L2.72949 19.2164L4.82723 21.3141Z" stroke="#191919" stroke-linecap="round" stroke-linejoin="round"/>
</g>
<defs>
<clipPath id="clip0_5303_11751">
<rect width="24" height="24" fill="white"/>
</clipPath>
</defs>
</svg>
