<svg width="24" height="24" viewBox="0 0 24 24" fill="none" xmlns="http://www.w3.org/2000/svg">
<g clip-path="url(#clip0_5303_5440)">
<path d="M17.2611 8.65195H6.73925C6.48802 8.65195 6.23925 8.70143 6.00714 8.79757C5.77504 8.89371 5.56414 9.03463 5.3865 9.21227C5.02773 9.57104 4.82617 10.0576 4.82617 10.565V21.0869C4.82617 21.5943 5.02773 22.0809 5.3865 22.4397C5.74527 22.7984 6.23187 23 6.73925 23H17.2611C17.7685 23 18.2551 22.7984 18.6139 22.4397C18.9727 22.0809 19.1742 21.5943 19.1742 21.0869V10.565C19.1742 10.0576 18.9727 9.57104 18.6139 9.21227C18.2551 8.8535 17.7685 8.65195 17.2611 8.65195Z" fill="#E3E3E3"/>
<path d="M12.0002 8.65195H6.73925C6.48802 8.65195 6.23925 8.70143 6.00714 8.79757C5.77504 8.89371 5.56414 9.03463 5.3865 9.21227C5.20885 9.38992 5.06794 9.60081 4.9718 9.83292C4.87565 10.065 4.82617 10.3138 4.82617 10.565V21.0869C4.82617 21.5943 5.02773 22.0809 5.3865 22.4397C5.74527 22.7984 6.23187 23 6.73925 23H12.0002V8.65195Z" fill="white"/>
<path d="M17.2611 8.65195H6.73925C6.48802 8.65195 6.23925 8.70143 6.00714 8.79757C5.77504 8.89371 5.56414 9.03463 5.3865 9.21227C5.02773 9.57104 4.82617 10.0576 4.82617 10.565V21.0869C4.82617 21.5943 5.02773 22.0809 5.3865 22.4397C5.74527 22.7984 6.23187 23 6.73925 23H17.2611C17.7685 23 18.2551 22.7984 18.6139 22.4397C18.9727 22.0809 19.1742 21.5943 19.1742 21.0869V10.565C19.1742 10.0576 18.9727 9.57104 18.6139 9.21227C18.2551 8.8535 17.7685 8.65195 17.2611 8.65195Z" stroke="#191919" stroke-linecap="round" stroke-linejoin="round"/>
<path d="M7.92627 5.83018C8.46125 5.29518 9.09638 4.87079 9.79538 4.58124C10.4944 4.2917 11.2436 4.14267 12.0002 4.14267C12.7568 4.14267 13.5059 4.2917 14.2049 4.58124C14.9039 4.87079 15.5391 5.29518 16.074 5.83018" stroke="#191919" stroke-linecap="round" stroke-linejoin="round"/>
<path d="M5.70361 3.60816C7.37368 1.93818 9.63872 1 12.0005 1C14.3623 1 16.6273 1.93818 18.2974 3.60816" stroke="#191919" stroke-linecap="round" stroke-linejoin="round"/>
<path d="M12 17.2608V20.1304" stroke="#191919" stroke-linecap="round" stroke-linejoin="round"/>
<path d="M12 17.2608C12.5074 17.2608 12.994 17.0592 13.3527 16.7005C13.7115 16.3417 13.9131 15.8551 13.9131 15.3477C13.9131 14.8403 13.7115 14.3537 13.3527 13.995C12.994 13.6362 12.5074 13.4346 12 13.4346C11.4926 13.4346 11.006 13.6362 10.6472 13.995C10.2885 14.3537 10.0869 14.8403 10.0869 15.3477C10.0869 15.8551 10.2885 16.3417 10.6472 16.7005C11.006 17.0592 11.4926 17.2608 12 17.2608Z" fill="#66E1FF" stroke="#191919" stroke-linecap="round" stroke-linejoin="round"/>
<path d="M15.8266 15.3477C15.8266 14.333 15.4235 13.3598 14.706 12.6422C13.9884 11.9247 13.0152 11.5216 12.0005 11.5216C10.9857 11.5216 10.0125 11.9247 9.29497 12.6422C8.57743 13.3598 8.17432 14.333 8.17432 15.3477" stroke="#191919" stroke-linecap="round" stroke-linejoin="round"/>
</g>
<defs>
<clipPath id="clip0_5303_5440">
<rect width="24" height="24" fill="white"/>
</clipPath>
</defs>
</svg>
