<svg width="24" height="24" viewBox="0 0 24 24" fill="none" xmlns="http://www.w3.org/2000/svg">
<g clip-path="url(#clip0_5303_11357)">
<path d="M4.35414 22.4316C3.98334 22.7895 3.48682 22.9874 2.97151 22.9828C2.45621 22.978 1.96333 22.7712 1.59908 22.4067C1.23481 22.0421 1.02829 21.5491 1.02399 21.0338C1.0197 20.5185 1.21797 20.0222 1.57611 19.6516L7.82986 13.3978C7.92112 13.3065 8.0295 13.234 8.1488 13.1846C8.2681 13.1351 8.39596 13.1096 8.5251 13.1096C8.65425 13.1096 8.78211 13.1351 8.90141 13.1846C9.02071 13.234 9.12909 13.3065 9.22035 13.3978L10.6099 14.7873C10.7012 14.8786 10.7737 14.987 10.8232 15.1063C10.8726 15.2256 10.8981 15.3535 10.8981 15.4826C10.8981 15.6117 10.8726 15.7397 10.8232 15.859C10.7737 15.9782 10.7012 16.0865 10.6099 16.1778L4.35414 22.4316Z" fill="#FF808C"/>
<path d="M9.21819 13.3978C9.12693 13.3065 9.01855 13.234 8.89926 13.1846C8.77996 13.1351 8.65208 13.1096 8.52295 13.1096C8.39381 13.1096 8.26594 13.1351 8.14664 13.1846C8.02735 13.234 7.91897 13.3065 7.82771 13.3978L1.57592 19.6516C1.39334 19.8341 1.2485 20.0509 1.14968 20.2893C1.05086 20.5278 1 20.7834 1 21.0416C1 21.2997 1.05086 21.5554 1.14968 21.7939C1.2485 22.0324 1.39334 22.2491 1.57592 22.4316C1.58477 22.4404 1.59459 22.4453 1.60344 22.4542L9.93948 14.1181L9.21819 13.3978Z" fill="#FFBFC5"/>
<path d="M4.35414 22.4316C3.98334 22.7895 3.48682 22.9874 2.97151 22.9828C2.45621 22.978 1.96333 22.7712 1.59908 22.4067C1.23481 22.0421 1.02829 21.5491 1.02399 21.0338C1.0197 20.5185 1.21797 20.0222 1.57611 19.6516L7.82986 13.3978C7.92112 13.3065 8.0295 13.234 8.1488 13.1846C8.2681 13.1351 8.39596 13.1096 8.5251 13.1096C8.65425 13.1096 8.78211 13.1351 8.90141 13.1846C9.02071 13.234 9.12909 13.3065 9.22035 13.3978L10.6099 14.7873C10.7012 14.8786 10.7737 14.987 10.8232 15.1063C10.8726 15.2256 10.8981 15.3535 10.8981 15.4826C10.8981 15.6117 10.8726 15.7397 10.8232 15.859C10.7737 15.9782 10.7012 16.0865 10.6099 16.1778L4.35414 22.4316Z" stroke="#191919" stroke-linecap="round" stroke-linejoin="round"/>
<path d="M7.13232 14.0927L9.91231 16.8727" stroke="#191919" stroke-linecap="round" stroke-linejoin="round"/>
<path d="M9.91309 14.0974L13.3868 10.6256" stroke="#191919" stroke-linecap="round" stroke-linejoin="round"/>
<path d="M22.4238 5.75839L18.2474 1.59185C18.0656 1.40965 17.8496 1.2651 17.6118 1.16648C17.3741 1.06786 17.1192 1.01709 16.8619 1.01709C16.6045 1.01709 16.3496 1.06786 16.1118 1.16648C15.8741 1.2651 15.6581 1.40965 15.4763 1.59185L13.3832 3.67512C12.4882 4.6018 11.9929 5.84292 12.0041 7.13119C12.0153 8.41947 12.5321 9.65181 13.443 10.5628C14.354 11.4737 15.5863 11.9904 16.8746 12.0016C18.1629 12.0128 19.404 11.5176 20.3307 10.6226L22.4238 8.53937C22.6066 8.35684 22.7515 8.14009 22.8504 7.90149C22.9493 7.6629 23.0002 7.40716 23.0002 7.14888C23.0002 6.8906 22.9493 6.63485 22.8504 6.39627C22.7515 6.15768 22.6066 5.94092 22.4238 5.75839ZM18.9451 9.23707L18.2474 9.93477C18.1555 10.0248 18.0321 10.0752 17.9035 10.0752C17.7749 10.0752 17.6514 10.0248 17.5596 9.93477L16.8029 9.16828C16.7323 9.1018 16.684 9.01511 16.6646 8.92011C16.6454 8.82509 16.6559 8.72642 16.6948 8.63764C16.7892 8.45324 16.8229 8.24372 16.7912 8.039C16.7595 7.83428 16.6637 7.64483 16.5179 7.49773C16.3696 7.35072 16.1791 7.2537 15.9729 7.22022C15.7669 7.18675 15.5554 7.21849 15.3682 7.31102C15.2809 7.35403 15.1822 7.36771 15.0865 7.35001C14.9909 7.3323 14.9036 7.28416 14.8375 7.21276L14.0809 6.45609C13.9909 6.36224 13.9407 6.23725 13.9407 6.10724C13.9407 5.97724 13.9909 5.85225 14.0809 5.75839L14.6607 5.18844C15.1972 4.62975 15.9259 4.29565 16.6993 4.2537C17.4728 4.21174 18.2334 4.46506 18.8272 4.96243C19.1272 5.22829 19.3693 5.55307 19.5384 5.91656C19.7074 6.28004 19.7999 6.67444 19.8099 7.07518C19.8191 7.47524 19.7473 7.87302 19.5986 8.24456C19.45 8.61611 19.2277 8.95372 18.9451 9.23707Z" fill="#E3E3E3"/>
<path d="M18.247 1.59185C18.0652 1.40965 17.8492 1.2651 17.6114 1.16648C17.3736 1.06786 17.1187 1.01709 16.8614 1.01709C16.604 1.01709 16.3491 1.06786 16.1114 1.16648C15.8736 1.2651 15.6576 1.40965 15.4758 1.59185L13.3827 3.67512C12.4818 4.58707 11.9736 5.81538 11.9669 7.09725C11.9601 8.37912 12.4552 9.61274 13.3463 10.5342L16.4398 7.44172C16.2924 7.31952 16.113 7.24225 15.9229 7.21907C15.7329 7.1959 15.5402 7.22782 15.3677 7.31102C15.2805 7.35403 15.1817 7.36771 15.0861 7.35001C14.9905 7.3323 14.9031 7.28416 14.8371 7.21276L14.0804 6.45609C13.9904 6.36224 13.9402 6.23725 13.9402 6.10724C13.9402 5.97724 13.9904 5.85225 14.0804 5.75839L14.6602 5.18844C15.1967 4.62975 15.9254 4.29565 16.6988 4.2537C17.4723 4.21174 18.2329 4.46506 18.8267 4.96243C18.8434 4.97717 18.8542 4.99584 18.871 5.01058L20.2703 3.61027L18.247 1.59185Z" fill="white"/>
<path d="M22.4238 5.75839L18.2474 1.59185C18.0656 1.40965 17.8496 1.2651 17.6118 1.16648C17.3741 1.06786 17.1192 1.01709 16.8619 1.01709C16.6045 1.01709 16.3496 1.06786 16.1118 1.16648C15.8741 1.2651 15.6581 1.40965 15.4763 1.59185L13.3832 3.67512C12.4882 4.6018 11.9929 5.84292 12.0041 7.13119C12.0153 8.41947 12.5321 9.65181 13.443 10.5628C14.354 11.4737 15.5863 11.9904 16.8746 12.0016C18.1629 12.0128 19.404 11.5176 20.3307 10.6226L22.4238 8.53937C22.6066 8.35684 22.7515 8.14009 22.8504 7.90149C22.9493 7.6629 23.0002 7.40716 23.0002 7.14888C23.0002 6.8906 22.9493 6.63485 22.8504 6.39627C22.7515 6.15768 22.6066 5.94092 22.4238 5.75839ZM18.9451 9.23707L18.2474 9.93477C18.1555 10.0248 18.0321 10.0752 17.9035 10.0752C17.7749 10.0752 17.6514 10.0248 17.5596 9.93477L16.8029 9.16828C16.7323 9.1018 16.684 9.01511 16.6646 8.92011C16.6454 8.82509 16.6559 8.72642 16.6948 8.63764C16.7892 8.45324 16.8229 8.24372 16.7912 8.039C16.7595 7.83428 16.6637 7.64483 16.5179 7.49773C16.3696 7.35072 16.1791 7.2537 15.9729 7.22022C15.7669 7.18675 15.5554 7.21849 15.3682 7.31102C15.2809 7.35403 15.1822 7.36771 15.0865 7.35001C14.9909 7.3323 14.9036 7.28416 14.8375 7.21276L14.0809 6.45609C13.9909 6.36224 13.9407 6.23725 13.9407 6.10724C13.9407 5.97724 13.9909 5.85225 14.0809 5.75839L14.6607 5.18844C15.1972 4.62975 15.9259 4.29565 16.6993 4.2537C17.4728 4.21174 18.2334 4.46506 18.8272 4.96243C19.1272 5.22829 19.3693 5.55307 19.5384 5.91656C19.7074 6.28004 19.7999 6.67444 19.8099 7.07518C19.8191 7.47524 19.7473 7.87302 19.5986 8.24456C19.45 8.61611 19.2277 8.95372 18.9451 9.23707Z" stroke="#191919" stroke-linecap="round" stroke-linejoin="round"/>
</g>
<defs>
<clipPath id="clip0_5303_11357">
<rect width="24" height="24" fill="white"/>
</clipPath>
</defs>
</svg>
