<svg width="24" height="24" viewBox="0 0 24 24" fill="none" xmlns="http://www.w3.org/2000/svg">
<path d="M8.5127 20.1302V22.9998H15.4873V20.1302" fill="#FFEF5E"/>
<path d="M8.5127 20.1302V22.9998H15.4873V20.1302" stroke="#191919" stroke-linecap="round" stroke-linejoin="round"/>
<path d="M17.8783 4.82617L15.487 20.1304H8.51239L6.12109 4.82617H17.8783Z" fill="#FFF9BF"/>
<path d="M11.9994 15.1525C10.4184 15.1536 8.86969 14.7042 7.53467 13.8572L8.5151 20.1343H15.4897L16.4711 13.8572C15.1339 14.7052 13.5828 15.1545 11.9994 15.1525Z" fill="#FFEF5E"/>
<path d="M17.8783 4.82617L15.487 20.1304H8.51239L6.12109 4.82617H17.8783Z" stroke="#191919" stroke-linecap="round" stroke-linejoin="round"/>
<path d="M18.3864 1.54812L17.8782 4.82619H6.12103L5.60292 1.54812C5.59181 1.48006 5.59684 1.41034 5.61761 1.34457C5.63838 1.2788 5.6743 1.21884 5.72248 1.1695C5.7691 1.11498 5.82726 1.07151 5.89273 1.04222C5.95822 1.01292 6.02939 0.99854 6.10111 1.00012H17.8882C17.9612 0.999481 18.0336 1.01424 18.1005 1.04342C18.1675 1.0726 18.2276 1.11557 18.2768 1.1695C18.3236 1.2195 18.358 1.27986 18.377 1.34566C18.3961 1.41147 18.3992 1.48084 18.3864 1.54812Z" fill="#C2F3FF" stroke="#191919" stroke-linecap="round" stroke-linejoin="round"/>
<path d="M11.9997 11.5219C12.6471 11.5349 13.2732 11.2904 13.7403 10.8419C14.2074 10.3936 14.4773 9.77797 14.4907 9.13058C14.4907 8.46995 14.2282 7.83636 13.7611 7.36922C13.2939 6.90208 12.6603 6.63965 11.9997 6.63965C11.3391 6.63965 10.7055 6.90208 10.2383 7.36922C9.77122 7.83636 9.50879 8.46995 9.50879 9.13058C9.52213 9.77797 9.79203 10.3936 10.2592 10.8419C10.7263 11.2904 11.3524 11.5349 11.9997 11.5219Z" fill="#78EB7B" stroke="#191919" stroke-linecap="round" stroke-linejoin="round"/>
<path d="M5.52344 23H18.4763" stroke="#191919" stroke-linecap="round" stroke-linejoin="round"/>
</svg>
