<svg width="24" height="24" viewBox="0 0 24 24" fill="none" xmlns="http://www.w3.org/2000/svg">
<path d="M12.4783 15.3133C12.5729 13.8384 11.6968 12.4736 10.3165 11.9455C11.455 11.4349 12.1442 10.2583 12.0325 9.01561C12.0325 6.01311 9.56282 5.32539 7.76359 5.29767H1V19.6455H7.30543C11.9139 19.6455 12.4783 16.6267 12.4783 15.3133ZM3.86957 8.16723H7.69565C8.80014 8.16723 9.4905 9.36289 8.93825 10.3194C8.68194 10.7633 8.20827 11.0367 7.69565 11.0368H3.86957V8.16723ZM3.86957 12.9498H7.69565C8.75085 12.953 9.60557 13.8076 9.6087 14.8629C9.60557 15.9181 8.75085 16.7727 7.69565 16.7759H3.86957V12.9498Z" fill="#66E1FF"/>
<path d="M1 5.29766V15.7238L5.68696 11.0368H3.86957V8.16723H7.69565C7.93381 8.16908 8.16718 8.23028 8.37478 8.34702L10.635 6.08679C9.77365 5.55475 8.77779 5.28088 7.76544 5.29766H1Z" fill="#C2F3FF"/>
<path d="M12.4783 15.3133C12.5729 13.8384 11.6968 12.4736 10.3165 11.9455C11.455 11.4349 12.1442 10.2583 12.0325 9.01561C12.0325 6.01311 9.56282 5.32539 7.76359 5.29767H1V19.6455H7.30543C11.9139 19.6455 12.4783 16.6267 12.4783 15.3133ZM3.86957 8.16723H7.69565C8.80014 8.16723 9.4905 9.36289 8.93825 10.3194C8.68194 10.7633 8.20827 11.0367 7.69565 11.0368H3.86957V8.16723ZM3.86957 12.9498H7.69565C8.75085 12.953 9.60557 13.8076 9.6087 14.8629C9.60557 15.9181 8.75085 16.7727 7.69565 16.7759H3.86957V12.9498Z" stroke="#191919" stroke-linecap="round" stroke-linejoin="round"/>
<path d="M20.6085 4.34119H15.8259C15.5618 4.34119 15.3477 4.55523 15.3477 4.81945V5.77597C15.3477 6.04009 15.5618 6.25423 15.8259 6.25423H20.6085C20.8726 6.25423 21.0868 6.04009 21.0868 5.77597V4.81945C21.0868 4.55523 20.8726 4.34119 20.6085 4.34119Z" fill="#66E1FF" stroke="#191919" stroke-linecap="round" stroke-linejoin="round"/>
<path d="M20.2663 16.7759C20.1411 16.7759 20.0208 16.825 19.9315 16.9127C19.4074 17.2783 18.7796 17.4654 18.1409 17.4464C16.6867 17.5409 15.4913 16.3151 15.6224 14.8638H22.5218C22.7859 14.8638 23 14.6497 23 14.3855C22.9819 8.8607 19.0715 8.64636 18.2174 8.64636C15.7381 8.64548 12.9565 9.86407 12.9565 14.2162C12.9565 18.7913 16.2651 19.6455 18.2174 19.6455C19.9598 19.7743 21.6387 18.9642 22.6222 17.5201C22.8269 17.2141 22.6236 16.8012 22.2562 16.7769C22.2459 16.7762 22.2356 16.7759 22.2252 16.7759H20.2663ZM15.8261 12.9498C15.8292 11.6304 16.898 10.5617 18.2174 10.5585C19.5368 10.5617 20.6056 11.6304 20.6087 12.9498H15.8261Z" fill="#66E1FF" stroke="#191919" stroke-linecap="round" stroke-linejoin="round"/>
</svg>
