<svg width="24" height="24" viewBox="0 0 24 24" fill="none" xmlns="http://www.w3.org/2000/svg">
<g clip-path="url(#clip0_5303_11954)">
<path d="M12 21.087C17.0186 21.087 21.087 17.0186 21.087 12C21.087 6.98145 17.0186 2.91309 12 2.91309C6.98145 2.91309 2.91309 6.98145 2.91309 12C2.91309 17.0186 6.98145 21.087 12 21.087Z" fill="#C9F7CA"/>
<path d="M4.82587 17.2609C6.14655 17.2609 7.21718 16.1902 7.21718 14.8696C7.21718 13.5489 6.14655 12.4783 4.82587 12.4783C3.5052 12.4783 2.43457 13.5489 2.43457 14.8696C2.43457 16.1902 3.5052 17.2609 4.82587 17.2609Z" fill="#808080"/>
<path d="M19.1735 17.2609C20.4942 17.2609 21.5648 16.1902 21.5648 14.8696C21.5648 13.5489 20.4942 12.4783 19.1735 12.4783C17.8529 12.4783 16.7822 13.5489 16.7822 14.8696C16.7822 16.1902 17.8529 17.2609 19.1735 17.2609Z" fill="#808080"/>
<path d="M11.0436 14.8705L16.4804 7.55698L9.13052 10.087L4.82617 14.8696L11.0436 14.8705ZM11.0436 14.8705L7.93487 7.21741" stroke="#191919" stroke-linecap="round" stroke-linejoin="round"/>
<path d="M19.1741 14.8696L16.0109 6.28284C15.9877 6.21982 15.978 6.1526 15.9825 6.08559C15.9869 6.01857 16.0055 5.95325 16.0369 5.89386C16.0683 5.83449 16.1118 5.78239 16.1647 5.74097C16.2176 5.69955 16.2787 5.66973 16.3438 5.65345L17.7394 5.30432" stroke="#191919" stroke-linecap="round" stroke-linejoin="round"/>
<path d="M6.73926 7.21741H9.60882" stroke="#191919" stroke-linecap="round" stroke-linejoin="round"/>
<path d="M4.82609 18.6956C6.93918 18.6956 8.65217 16.9826 8.65217 14.8696C8.65217 12.7565 6.93918 11.0435 4.82609 11.0435C2.713 11.0435 1 12.7565 1 14.8696C1 16.9826 2.713 18.6956 4.82609 18.6956Z" stroke="#191919" stroke-linecap="round" stroke-linejoin="round"/>
<path d="M19.1737 18.6956C21.2868 18.6956 22.9998 16.9826 22.9998 14.8696C22.9998 12.7565 21.2868 11.0435 19.1737 11.0435C17.0607 11.0435 15.3477 12.7565 15.3477 14.8696C15.3477 16.9826 17.0607 18.6956 19.1737 18.6956Z" stroke="#191919" stroke-linecap="round" stroke-linejoin="round"/>
</g>
<defs>
<clipPath id="clip0_5303_11954">
<rect width="24" height="24" fill="white"/>
</clipPath>
</defs>
</svg>
