<svg width="24" height="24" viewBox="0 0 24 24" fill="none" xmlns="http://www.w3.org/2000/svg">
<path d="M20.25 5.125L18.589 20.8999C18.5417 21.3503 18.3293 21.7673 17.9928 22.0704C17.6563 22.3736 17.2196 22.5414 16.7667 22.5417H7.23333C6.78028 22.5417 6.34328 22.3739 6.0066 22.0707C5.66993 21.7676 5.45743 21.3505 5.41008 20.8999L3.75 5.125H20.25Z" fill="#E4F1F5"/>
<path d="M19.9603 7.875L20.25 5.125H3.75L4.03967 7.875H19.9603Z" fill="#C1D4D9"/>
<path d="M20.25 5.125L18.589 20.8999C18.5417 21.3503 18.3293 21.7673 17.9928 22.0704C17.6563 22.3736 17.2196 22.5414 16.7667 22.5417H7.23333C6.78028 22.5417 6.34328 22.3739 6.0066 22.0707C5.66993 21.7676 5.45743 21.3505 5.41008 20.8999L3.75 5.125H20.25Z" stroke="#191919" stroke-linecap="round" stroke-linejoin="round"/>
<path d="M1.4585 5.125H22.5418" stroke="#191919" stroke-linecap="round" stroke-linejoin="round"/>
<path d="M7.875 5.12498V2.37498C7.875 2.13186 7.97158 1.89871 8.14349 1.7268C8.31539 1.55489 8.54855 1.45831 8.79167 1.45831H15.2083C15.4514 1.45831 15.6846 1.55489 15.8565 1.7268C16.0284 1.89871 16.125 2.13186 16.125 2.37498V5.12498" stroke="#191919" stroke-linecap="round" stroke-linejoin="round"/>
<path d="M12 9.25V18.875" stroke="#191919" stroke-linecap="round" stroke-linejoin="round"/>
<path d="M16.1248 9.25L15.6665 18.875" stroke="#191919" stroke-linecap="round" stroke-linejoin="round"/>
<path d="M7.875 9.25L8.33333 18.875" stroke="#191919" stroke-linecap="round" stroke-linejoin="round"/>
</svg>
