<svg width="24" height="24" viewBox="0 0 24 24" fill="none" xmlns="http://www.w3.org/2000/svg">
<path d="M13.3477 3.04482C13.7207 2.71858 14.1995 2.53882 14.6952 2.53882C15.1908 2.53882 15.6696 2.71858 16.0427 3.04482L17.3902 6.63815L18.7377 7.98565L21.4327 14.274L13.3477 16.969V3.04482Z" fill="#C1D4D9"/>
<path d="M10.6524 3.04482C10.2791 2.71894 9.80034 2.53937 9.30488 2.53937C8.80942 2.53937 8.33065 2.71894 7.95738 3.04482L6.60988 6.63815L5.26238 7.98565L2.56738 14.274L10.6524 16.969V3.04482Z" fill="#E4F1F5"/>
<path d="M6.16061 21.4605C7.04895 21.4605 7.9174 21.1972 8.65604 20.7036C9.39469 20.21 9.97037 19.5086 10.3104 18.6878C10.6503 17.867 10.7394 16.964 10.5659 16.0927C10.3927 15.2213 9.96487 14.421 9.33668 13.7929C8.70858 13.1646 7.90824 12.7369 7.03685 12.5635C6.16556 12.3902 5.26246 12.4792 4.44177 12.8191C3.62099 13.1591 2.91946 13.7348 2.42593 14.4735C1.9324 15.2122 1.66895 16.0805 1.66895 16.9689C1.66895 18.1602 2.14213 19.3027 2.98455 20.1449C3.82687 20.9874 4.96931 21.4605 6.16061 21.4605Z" fill="#66E1FF"/>
<path d="M9.33729 13.7925C8.49478 12.95 7.35216 12.4767 6.16077 12.4767C4.96937 12.4767 3.82675 12.95 2.98424 13.7925C2.14182 14.6349 1.66846 15.7775 1.66846 16.969C1.66846 17.5589 1.78469 18.143 2.01047 18.6881C2.23624 19.2332 2.56707 19.7283 2.98424 20.1454L9.33729 13.7925Z" fill="#C2F3FF"/>
<path d="M10.6524 6.63815V3.04482C10.2791 2.71894 9.80034 2.53937 9.30488 2.53937C8.80942 2.53937 8.33065 2.71894 7.95738 3.04482L6.60988 6.63815L5.26238 7.98565L2.56738 14.274" stroke="#191919" stroke-linecap="round" stroke-linejoin="round"/>
<path d="M17.8393 21.4605C18.7277 21.4605 19.5961 21.1972 20.3348 20.7036C21.0734 20.21 21.6492 19.5086 21.9891 18.6878C22.329 17.867 22.4181 16.964 22.2446 16.0927C22.0714 15.2213 21.6436 14.421 21.0154 13.7929C20.3873 13.1646 19.5869 12.7369 18.7157 12.5635C17.8443 12.3902 16.9412 12.4792 16.1205 12.8191C15.2997 13.1591 14.5983 13.7348 14.1046 14.4735C13.611 15.2122 13.3477 16.0805 13.3477 16.9689C13.3477 18.1602 13.8209 19.3027 14.6633 20.1449C15.5056 20.9874 16.648 21.4605 17.8393 21.4605Z" fill="#66E1FF"/>
<path d="M21.0155 13.7925C20.173 12.95 19.0304 12.4767 17.839 12.4767C16.6475 12.4767 15.505 12.95 14.6625 13.7925C13.82 14.6349 13.3467 15.7775 13.3467 16.969C13.3467 18.1603 13.82 19.303 14.6625 20.1454L21.0155 13.7925Z" fill="#C2F3FF"/>
<path d="M13.3477 6.63802V3.10134C13.7207 2.7751 14.1995 2.59534 14.6952 2.59534C15.1908 2.59534 15.6696 2.7751 16.0427 3.10134L17.3902 6.63802L18.7377 7.98552L21.4327 14.2739" stroke="#191919" stroke-linecap="round" stroke-linejoin="round"/>
<path d="M8.40674 10.2315C8.40674 9.24331 10.0157 8.43481 12.0001 8.43481C13.9845 8.43481 15.5934 9.23882 15.5934 10.2315" stroke="#191919" stroke-linecap="round" stroke-linejoin="round"/>
<path d="M10.6523 16.9734V8.56958" stroke="#191919" stroke-linecap="round" stroke-linejoin="round"/>
<path d="M13.3477 16.9734V8.56958" stroke="#191919" stroke-linecap="round" stroke-linejoin="round"/>
<path d="M6.16061 21.4605C7.04895 21.4605 7.91739 21.1972 8.65604 20.7036C9.39469 20.21 9.97037 19.5086 10.3104 18.6878C10.6503 17.867 10.7394 16.964 10.5659 16.0927C10.3927 15.2213 9.96487 14.421 9.33668 13.7929C8.70858 13.1646 7.90824 12.7369 7.03685 12.5635C6.16556 12.3902 5.26246 12.4792 4.44177 12.8191C3.62099 13.1591 2.91946 13.7348 2.42593 14.4735C1.9324 15.2122 1.66895 16.0805 1.66895 16.9689C1.66895 18.1602 2.14213 19.3027 2.98455 20.1449C3.82687 20.9874 4.96931 21.4605 6.16061 21.4605Z" stroke="#191919" stroke-linecap="round" stroke-linejoin="round"/>
<path d="M17.8393 21.4605C18.7277 21.4605 19.5961 21.1972 20.3348 20.7036C21.0734 20.21 21.6492 19.5086 21.9891 18.6878C22.329 17.867 22.4181 16.964 22.2446 16.0927C22.0714 15.2213 21.6436 14.421 21.0154 13.7929C20.3873 13.1646 19.5869 12.7369 18.7157 12.5635C17.8443 12.3902 16.9412 12.4792 16.1205 12.8191C15.2997 13.1591 14.5983 13.7348 14.1046 14.4735C13.611 15.2122 13.3477 16.0805 13.3477 16.9689C13.3477 18.1602 13.8209 19.3027 14.6633 20.1449C15.5056 20.9874 16.648 21.4605 17.8393 21.4605Z" stroke="#191919" stroke-linecap="round" stroke-linejoin="round"/>
</svg>
