<svg width="24" height="24" viewBox="0 0 24 24" fill="none" xmlns="http://www.w3.org/2000/svg">
<path d="M19.9812 11.0397H16.9824L17.7967 7.19897H20.6773C22.5487 7.19897 22.9961 8.1717 22.9961 8.89952C22.9999 9.92982 22.3278 11.0397 19.9812 11.0397Z" fill="#808080"/>
<path d="M19.0201 16.8009H16.0215L16.8357 12.9602H19.7162C21.5877 12.9602 22.0351 13.9328 22.0351 14.6606C22.039 15.6909 21.3668 16.8009 19.0201 16.8009Z" fill="#808080"/>
<path d="M3.99866 13.9203H1L1.8142 10.0797H4.69476C6.5662 10.0797 7.01361 11.0523 7.01361 11.7801C7.01751 12.8104 6.3463 13.9203 3.99866 13.9203Z" fill="#808080"/>
<path d="M11.6804 13.9203H8.68164L9.49594 10.0797H12.3765C14.2479 10.0797 14.6953 11.0523 14.6953 11.7801C14.6992 12.8104 14.028 13.9203 11.6804 13.9203Z" fill="#808080"/>
<path d="M10.7194 19.6815H7.7207L8.53491 15.8407H11.4155C13.2869 15.8407 13.7343 16.8133 13.7343 17.5411C13.7382 18.5714 13.067 19.6815 10.7194 19.6815Z" fill="#808080"/>
<path d="M12.6403 8.15919H9.6416L10.4559 4.31842H13.3365C15.2078 4.31842 15.6553 5.29113 15.6553 6.01896C15.6591 7.04925 14.988 8.15919 12.6403 8.15919Z" fill="#808080"/>
<path d="M4.95862 8.15919H1.95996L2.77416 4.31842H5.65472C7.52616 4.31842 7.97357 5.29113 7.97357 6.01896C7.97748 7.04925 7.30626 8.15919 4.95862 8.15919Z" fill="#808080"/>
<path d="M4.95862 6.68629H2.27005L1.95996 8.15921H4.95862C7.30626 8.15921 7.9765 7.04927 7.9765 6.01898C7.97533 5.78336 7.92331 5.55077 7.82375 5.33722C7.51747 6.07373 6.70132 6.68629 4.95862 6.68629Z" fill="#6B6B6B"/>
<path d="M12.6403 6.68629H9.95178L9.6416 8.15921H12.6403C14.988 8.15921 15.6591 7.04927 15.6591 6.01898C15.6578 5.78326 15.6053 5.55077 15.5055 5.33722C15.1992 6.07373 14.3831 6.68629 12.6403 6.68629Z" fill="#6B6B6B"/>
<path d="M11.6804 12.4474H8.99182L8.68164 13.9203H11.6804C14.028 13.9203 14.6992 12.8104 14.6992 11.7801C14.6978 11.5445 14.6454 11.3119 14.5455 11.0983C14.2393 11.8348 13.4231 12.4474 11.6804 12.4474Z" fill="#6B6B6B"/>
<path d="M19.9812 9.56684H17.2926L16.9824 11.0398H19.9812C22.3298 11.0398 22.9999 9.92983 22.9999 8.89953C22.9986 8.66392 22.9462 8.43133 22.8463 8.21777C22.541 8.95429 21.7249 9.56684 19.9812 9.56684Z" fill="#6B6B6B"/>
<path d="M19.0201 15.328H16.3316L16.0215 16.8009H19.0201C21.3688 16.8009 22.039 15.691 22.039 14.6607C22.0375 14.4251 21.9851 14.1925 21.8854 13.9789C21.58 14.7155 20.7638 15.328 19.0201 15.328Z" fill="#6B6B6B"/>
<path d="M10.7194 18.2086H8.03079L7.7207 19.6816H10.7194C13.067 19.6816 13.7382 18.5715 13.7382 17.5412C13.7368 17.3056 13.6843 17.073 13.5846 16.8596C13.2782 17.596 12.4621 18.2086 10.7194 18.2086Z" fill="#6B6B6B"/>
<path d="M3.99866 12.4474H1.31204L1 13.9203H3.99866C6.3463 13.9203 7.01752 12.8104 7.01752 11.7801C7.01615 11.5445 6.96374 11.3119 6.86389 11.0983C6.55761 11.8348 5.74136 12.4474 3.99866 12.4474Z" fill="#6B6B6B"/>
<path d="M12.6403 8.15919H9.6416L10.4559 4.31842H13.3365C15.2078 4.31842 15.6553 5.29113 15.6553 6.01896C15.6591 7.04925 14.988 8.15919 12.6403 8.15919Z" stroke="#191919" stroke-linecap="round" stroke-linejoin="round"/>
<path d="M4.95862 8.15919H1.95996L2.77416 4.31842H5.65472C7.52616 4.31842 7.97357 5.29113 7.97357 6.01896C7.97748 7.04925 7.30626 8.15919 4.95862 8.15919Z" stroke="#191919" stroke-linecap="round" stroke-linejoin="round"/>
<path d="M19.9812 11.0397H16.9824L17.7967 7.19897H20.6773C22.5487 7.19897 22.9961 8.1717 22.9961 8.89952C22.9999 9.92982 22.3278 11.0397 19.9812 11.0397Z" stroke="#191919" stroke-linecap="round" stroke-linejoin="round"/>
<path d="M19.0201 16.8009H16.0215L16.8357 12.9602H19.7162C21.5877 12.9602 22.0351 13.9328 22.0351 14.6606C22.039 15.6909 21.3668 16.8009 19.0201 16.8009Z" stroke="#191919" stroke-linecap="round" stroke-linejoin="round"/>
<path d="M3.99866 13.9203H1L1.8142 10.0797H4.69476C6.5662 10.0797 7.01361 11.0523 7.01361 11.7801C7.01751 12.8104 6.3463 13.9203 3.99866 13.9203Z" stroke="#191919" stroke-linecap="round" stroke-linejoin="round"/>
<path d="M11.6804 13.9203H8.68164L9.49594 10.0797H12.3765C14.2479 10.0797 14.6953 11.0523 14.6953 11.7801C14.6992 12.8104 14.028 13.9203 11.6804 13.9203Z" stroke="#191919" stroke-linecap="round" stroke-linejoin="round"/>
<path d="M10.7194 19.6815H7.7207L8.53491 15.8407H11.4155C13.2869 15.8407 13.7343 16.8133 13.7343 17.5411C13.7382 18.5714 13.067 19.6815 10.7194 19.6815Z" stroke="#191919" stroke-linecap="round" stroke-linejoin="round"/>
</svg>
