<svg width="24" height="24" viewBox="0 0 24 24" fill="none" xmlns="http://www.w3.org/2000/svg">
<g clip-path="url(#clip0_5303_8930)">
<path fill-rule="evenodd" clip-rule="evenodd" d="M22.3978 9.51093C21.9939 9.19464 19.9512 9.53191 19.4015 9.0346C19.0099 8.6744 18.9498 8.02749 18.8298 7.15389C18.8039 6.33015 18.5908 5.5231 18.2067 4.79392C17.0809 2.78713 15.1116 1.39377 12.8447 1H7.98566C4.15212 1.01366 1.0497 4.12154 1.04297 7.95508V16.063C1.05653 19.8911 4.15846 22.99 7.98654 23H15.9668C19.7926 22.9833 22.8913 19.8888 22.9133 16.063L22.9561 10.4418C22.8142 9.76534 22.7446 9.78251 22.3978 9.51093ZM8.18854 6.7165H11.9995C13.0997 6.71943 13.7841 7.91214 13.2316 8.86343C12.9765 9.30267 12.5075 9.57348 11.9995 9.57475H8.18854C7.08844 9.57192 6.40396 8.3792 6.9565 7.42782C7.21159 6.98867 7.6806 6.71787 8.18854 6.7165ZM15.8105 17.1967H8.18854C7.08844 17.1997 6.39771 16.0105 6.94528 15.0564C7.20076 14.6112 7.67533 14.3372 8.18854 14.3385H15.8105C16.9107 14.3357 17.6014 15.5248 17.0538 16.479C16.7983 16.9241 16.3238 17.1981 15.8105 17.1967Z" fill="#FFBC44"/>
<path fill-rule="evenodd" clip-rule="evenodd" d="M6.75947 15.7677C6.75947 14.9784 7.39925 14.3385 8.18854 14.3385H10.4037L18.6688 6.0772C18.5882 5.62683 18.4343 5.19267 18.2133 4.79197C17.0858 2.7843 15.1138 1.39142 12.8447 1H7.98566C4.15212 1.01366 1.0497 4.12154 1.04297 7.95508V16.063C1.04765 18.0735 1.92633 19.9825 3.45056 21.2936L7.6522 17.0919C7.11264 16.8735 6.75957 16.3497 6.75947 15.7677ZM8.18854 6.7165H11.9995C13.0997 6.71943 13.7841 7.91215 13.2316 8.86343C12.9765 9.30267 12.5075 9.57348 11.9995 9.57475H8.18854C7.08844 9.57192 6.40396 8.3792 6.9565 7.42782C7.21159 6.98867 7.6806 6.71787 8.18854 6.7165Z" fill="#FFDDA1"/>
<path d="M22.3978 9.51093C21.9939 9.19464 19.9512 9.53191 19.4015 9.0346C19.0099 8.6744 18.9498 8.02749 18.8298 7.15389C18.8039 6.33015 18.5908 5.5231 18.2067 4.79392C17.0809 2.78713 15.1116 1.39377 12.8447 1H7.98566C4.15212 1.01366 1.0497 4.12154 1.04297 7.95508V16.063C1.05653 19.8911 4.15846 22.99 7.98654 23H15.9668C19.7926 22.9833 22.8913 19.8888 22.9133 16.063L22.9561 10.4418C22.8142 9.76534 22.7446 9.78251 22.3978 9.51093ZM8.18854 6.7165H11.9995C13.0997 6.71943 13.7841 7.91214 13.2316 8.86343C12.9765 9.30267 12.5075 9.57348 11.9995 9.57475H8.18854C7.08844 9.57192 6.40396 8.3792 6.9565 7.42782C7.21159 6.98867 7.6806 6.71787 8.18854 6.7165ZM15.8105 17.1967H8.18854C7.08844 17.1997 6.39771 16.0105 6.94528 15.0564C7.20076 14.6112 7.67533 14.3372 8.18854 14.3385H15.8105C16.9107 14.3357 17.6014 15.5248 17.0538 16.479C16.7983 16.9241 16.3238 17.1981 15.8105 17.1967Z" stroke="#191919" stroke-linecap="round" stroke-linejoin="round"/>
</g>
<defs>
<clipPath id="clip0_5303_8930">
<rect width="24" height="24" fill="white"/>
</clipPath>
</defs>
</svg>
