<svg width="24" height="24" viewBox="0 0 24 24" fill="none" xmlns="http://www.w3.org/2000/svg">
<path d="M12.4073 1.22895C12.3648 1.15898 12.305 1.1013 12.2336 1.06119C12.1622 1.02108 12.0818 1 11.9999 1C11.918 1 11.8376 1.02108 11.7662 1.06119C11.6947 1.1013 11.635 1.15898 11.5925 1.22895C10.0761 3.7139 4.84277 12.4848 4.84277 15.8419C4.84277 17.7402 5.59676 19.5606 6.93903 20.9028C8.28129 22.245 10.1018 22.9991 11.9999 22.9991C13.898 22.9991 15.7186 22.245 17.0608 20.9028C18.403 19.5606 19.1571 17.7402 19.1571 15.8419C19.1571 12.4848 13.9237 3.71293 12.4073 1.22895Z" fill="#FFBFC5"/>
<path d="M11.9999 20.1065C10.3823 20.1099 8.8114 19.5643 7.54419 18.5589C6.27707 17.5534 5.3885 16.1477 5.0241 14.5717C4.91704 14.9875 4.85624 15.4138 4.84277 15.8428C4.84277 17.741 5.59676 19.5615 6.93903 20.9036C8.28129 22.246 10.1018 23 11.9999 23C13.898 23 15.7186 22.246 17.0608 20.9036C18.403 19.5615 19.1571 17.741 19.1571 15.8428C19.1436 15.4138 19.0827 14.9875 18.9758 14.5717C18.6113 16.1477 17.7228 17.5534 16.4556 18.5589C15.1884 19.5643 13.6176 20.1099 11.9999 20.1065Z" fill="#FF808C"/>
<path d="M12.4073 1.22895C12.3648 1.15898 12.305 1.1013 12.2336 1.06119C12.1622 1.02108 12.0818 1 11.9999 1C11.918 1 11.8376 1.02108 11.7662 1.06119C11.6947 1.1013 11.635 1.15898 11.5925 1.22895C10.0761 3.7139 4.84277 12.4848 4.84277 15.8419C4.84277 17.7402 5.59676 19.5606 6.93903 20.9028C8.28129 22.245 10.1018 22.9991 11.9999 22.9991C13.898 22.9991 15.7186 22.245 17.0608 20.9028C18.403 19.5606 19.1571 17.7402 19.1571 15.8419C19.1571 12.4848 13.9237 3.71293 12.4073 1.22895Z" stroke="#191919" stroke-linecap="round" stroke-linejoin="round"/>
<path d="M12 20.1065C10.8655 20.1096 9.77592 19.6636 8.96924 18.8659" stroke="#191919" stroke-linecap="round" stroke-linejoin="round"/>
</svg>
