<svg width="24" height="24" viewBox="0 0 24 24" fill="none" xmlns="http://www.w3.org/2000/svg">
<g clip-path="url(#clip0_5303_7807)">
<path d="M17.7392 14.869C17.7414 15.1477 17.719 15.4262 17.6722 15.7011C17.4743 17.0635 16.7926 18.3092 15.7519 19.2103C14.7112 20.1116 13.3809 20.6082 12.0041 20.6094C10.6274 20.6105 9.2963 20.1162 8.25404 19.2167C7.21179 18.3172 6.52805 17.0727 6.32781 15.7107C6.28139 15.4325 6.25898 15.1509 6.26085 14.869C6.26085 13.4342 7.42781 10.9854 8.70956 8.71843C9.80957 6.77667 10.9957 4.9784 11.5983 4.07927C11.6432 4.01436 11.7033 3.96131 11.7732 3.92467C11.8433 3.88804 11.921 3.8689 12 3.8689C12.079 3.8689 12.1568 3.88804 12.2267 3.92467C12.2967 3.96131 12.3568 4.01436 12.4018 4.07927C13.0044 4.9784 14.1905 6.77667 15.2905 8.71843C16.5722 10.9854 17.7392 13.4342 17.7392 14.869Z" fill="#FFBFC5"/>
<path d="M11.9996 17.8341C10.7378 17.8307 9.51258 17.4107 8.51418 16.6391C7.51577 15.8677 6.80014 14.788 6.4785 13.568C6.25189 14.2588 6.19997 14.9949 6.32737 15.7106C6.52761 17.0727 7.21135 18.3173 8.2536 19.2167C9.29586 20.1162 10.627 20.6105 12.0037 20.6093C13.3804 20.6081 14.7108 20.1116 15.7515 19.2104C16.7922 18.3091 17.4739 17.0634 17.6718 15.7011C17.7186 15.4261 17.741 15.1477 17.7388 14.8689C17.7243 14.4288 17.6509 13.9925 17.5207 13.5718C17.2005 14.7923 16.4851 15.8726 15.4863 16.6436C14.4875 17.4148 13.2614 17.8333 11.9996 17.8341Z" fill="#FF808C"/>
<path d="M6.2609 14.8689C6.25904 15.1509 6.28144 15.4325 6.32786 15.7107C5.99225 15.7882 5.64882 15.8267 5.30438 15.8255C4.73891 15.8261 4.17885 15.7154 3.65627 15.4993C3.1337 15.2833 2.65889 14.9662 2.25904 14.5664C1.85919 14.1666 1.54216 13.6917 1.32612 13.1692C1.11007 12.6465 0.999252 12.0865 1 11.5211C1 9.58886 3.84089 5.21754 4.90263 3.601C4.94762 3.53609 5.00767 3.48304 5.07763 3.4464C5.1476 3.40977 5.22541 3.39062 5.30438 3.39062C5.38336 3.39062 5.46116 3.40977 5.53112 3.4464C5.60109 3.48304 5.66113 3.53609 5.70612 3.601C6.81078 5.24392 7.81383 6.95292 8.70962 8.71842C7.42787 10.9854 6.2609 13.4342 6.2609 14.8689Z" fill="#FF808C" stroke="#191919" stroke-linecap="round" stroke-linejoin="round"/>
<path d="M23.0001 11.5211C23.0009 12.0865 22.89 12.6465 22.6741 13.1692C22.458 13.6917 22.141 14.1666 21.7411 14.5664C21.3412 14.9662 20.8664 15.2833 20.3439 15.4993C19.8213 15.7154 19.2613 15.8261 18.6958 15.8255C18.3507 15.8282 18.0067 15.7865 17.6723 15.7011C17.7191 15.4262 17.7415 15.1477 17.7392 14.8689C17.7392 13.4342 16.5723 10.9854 15.2905 8.71842C16.1841 6.95173 17.1872 5.2426 18.294 3.601C18.339 3.53609 18.3991 3.48304 18.4691 3.4464C18.539 3.40977 18.6168 3.39062 18.6958 3.39062C18.7748 3.39062 18.8525 3.40977 18.9226 3.4464C18.9925 3.48304 19.0526 3.53609 19.0975 3.601C20.1593 5.21754 23.0001 9.58886 23.0001 11.5211Z" fill="#FF808C" stroke="#191919" stroke-linecap="round" stroke-linejoin="round"/>
<path d="M12 12.9558V16.7819" stroke="#191919" stroke-linecap="round" stroke-linejoin="round"/>
<path d="M10.0869 14.8689H13.913" stroke="#191919" stroke-linecap="round" stroke-linejoin="round"/>
<path d="M17.7392 14.869C17.7414 15.1477 17.719 15.4262 17.6722 15.7011C17.4743 17.0635 16.7926 18.3092 15.7519 19.2103C14.7112 20.1116 13.3809 20.6082 12.0041 20.6094C10.6274 20.6105 9.2963 20.1162 8.25404 19.2167C7.21179 18.3172 6.52805 17.0727 6.32781 15.7107C6.28139 15.4325 6.25898 15.1509 6.26085 14.869C6.26085 13.4342 7.42781 10.9854 8.70956 8.71843C9.80957 6.77667 10.9957 4.9784 11.5983 4.07927C11.6432 4.01436 11.7033 3.96131 11.7732 3.92467C11.8433 3.88804 11.921 3.8689 12 3.8689C12.079 3.8689 12.1568 3.88804 12.2267 3.92467C12.2967 3.96131 12.3568 4.01436 12.4018 4.07927C13.0044 4.9784 14.1905 6.77667 15.2905 8.71843C16.5722 10.9854 17.7392 13.4342 17.7392 14.869Z" stroke="#191919" stroke-linecap="round" stroke-linejoin="round"/>
</g>
<defs>
<clipPath id="clip0_5303_7807">
<rect width="24" height="24" fill="white"/>
</clipPath>
</defs>
</svg>
