<svg width="24" height="24" viewBox="0 0 24 24" fill="none" xmlns="http://www.w3.org/2000/svg">
<g clip-path="url(#clip0_5303_6673)">
<path d="M11.8509 19.0283C15.7884 19.0283 18.9803 15.8363 18.9803 11.8989C18.9803 7.96146 15.7884 4.76953 11.8509 4.76953C7.91348 4.76953 4.72156 7.96146 4.72156 11.8989C4.72156 15.8363 7.91348 19.0283 11.8509 19.0283Z" fill="#C2F3FF"/>
<path d="M4.87011 5.38038L17.7722 17.2406C17.823 17.2872 17.8638 17.3437 17.8921 17.4066C17.9204 17.4695 17.9356 17.5375 17.9368 17.6064C17.9381 17.6754 17.9253 17.7439 17.8993 17.8078C17.8732 17.8716 17.8345 17.9295 17.7855 17.978L12.8692 22.8524C12.7979 22.9232 12.7071 22.9713 12.6085 22.9905C12.5098 23.0099 12.4077 22.9995 12.3149 22.9608C12.2221 22.9222 12.1429 22.8569 12.0871 22.7733C12.0312 22.6896 12.0015 22.5914 12.0015 22.4908V1.51015C12.0013 1.40955 12.0309 1.31114 12.0866 1.22736C12.1424 1.14357 12.2216 1.07816 12.3144 1.03937C12.4073 1.00058 12.5095 0.990158 12.6082 1.00942C12.707 1.02868 12.7978 1.07675 12.8692 1.14758L17.7875 6.02304C17.8364 6.07155 17.8749 6.12945 17.9006 6.19326C17.9265 6.25707 17.9391 6.32545 17.9378 6.39427C17.9365 6.4631 17.9212 6.53094 17.8929 6.5937C17.8647 6.65646 17.824 6.71283 17.7732 6.7594L4.84363 18.6206" stroke="#191919" stroke-linecap="round" stroke-linejoin="round"/>
<path d="M5.01958 10.3244L3.70311 11.6409C3.50424 11.8398 3.50424 12.1622 3.70311 12.3611L5.01958 13.6775C5.21846 13.8764 5.54089 13.8764 5.73976 13.6775L7.05624 12.3611C7.25511 12.1622 7.25511 11.8398 7.05624 11.6409L5.73976 10.3244C5.54089 10.1256 5.21846 10.1256 5.01958 10.3244Z" fill="#66E1FF" stroke="#191919" stroke-linecap="round" stroke-linejoin="round"/>
<path d="M18.2602 10.3244L16.9437 11.6409C16.7448 11.8398 16.7448 12.1622 16.9437 12.3611L18.2602 13.6775C18.459 13.8764 18.7815 13.8764 18.9804 13.6775L20.2968 12.3611C20.4957 12.1622 20.4957 11.8398 20.2968 11.6409L18.9804 10.3244C18.7815 10.1256 18.459 10.1256 18.2602 10.3244Z" fill="#66E1FF" stroke="#191919" stroke-linecap="round" stroke-linejoin="round"/>
</g>
<defs>
<clipPath id="clip0_5303_6673">
<rect width="24" height="24" fill="white"/>
</clipPath>
</defs>
</svg>
