<svg width="24" height="24" viewBox="0 0 24 24" fill="none" xmlns="http://www.w3.org/2000/svg">
<path d="M3.89029 17.7806H1.96343C1.43135 17.7806 1 18.2119 1 18.744V20.6709C1 21.203 1.43135 21.6343 1.96343 21.6343H3.89029C4.42237 21.6343 4.85372 21.203 4.85372 20.6709V18.744C4.85372 18.2119 4.42237 17.7806 3.89029 17.7806Z" fill="#C77F67"/>
<path d="M4.85372 19.7074V18.744C4.85372 18.4885 4.75221 18.2434 4.57154 18.0628C4.39086 17.8821 4.14581 17.7806 3.89029 17.7806H1.96343C1.70791 17.7806 1.46286 17.8821 1.28218 18.0628C1.1015 18.2434 1 18.4885 1 18.744V19.7074H4.85372Z" fill="#E3BFB3"/>
<path d="M13.5246 17.7806H10.6343C10.1022 17.7806 9.6709 18.2119 9.6709 18.744V20.6709C9.6709 21.203 10.1022 21.6343 10.6343 21.6343H13.5246C14.0567 21.6343 14.488 21.203 14.488 20.6709V18.744C14.488 18.2119 14.0567 17.7806 13.5246 17.7806Z" fill="#C77F67"/>
<path d="M14.488 19.7074V18.744C14.488 18.4885 14.3865 18.2434 14.2059 18.0628C14.0252 17.8821 13.7801 17.7806 13.5246 17.7806H10.6343C10.3788 17.7806 10.1337 17.8821 9.95308 18.0628C9.77241 18.2434 9.6709 18.4885 9.6709 18.744V19.7074H14.488Z" fill="#E3BFB3"/>
<path d="M8.70724 10.0731H5.81695C5.28486 10.0731 4.85352 10.5045 4.85352 11.0366V12.9634C4.85352 13.4955 5.28486 13.9269 5.81695 13.9269H8.70724C9.23932 13.9269 9.67067 13.4955 9.67067 12.9634V11.0366C9.67067 10.5045 9.23932 10.0731 8.70724 10.0731Z" fill="#C77F67"/>
<path d="M9.67067 12V11.0366C9.67067 10.7811 9.56916 10.536 9.38849 10.3553C9.2078 10.1747 8.96276 10.0731 8.70724 10.0731H5.81695C5.56142 10.0731 5.31638 10.1747 5.13569 10.3553C4.95502 10.536 4.85352 10.7811 4.85352 11.0366V12H9.67067Z" fill="#E3BFB3"/>
<path d="M8.70724 2.36572H5.81695C5.28486 2.36572 4.85352 2.79707 4.85352 3.32915V5.25601C4.85352 5.78809 5.28486 6.21944 5.81695 6.21944H8.70724C9.23932 6.21944 9.67067 5.78809 9.67067 5.25601V3.32915C9.67067 2.79707 9.23932 2.36572 8.70724 2.36572Z" fill="#C77F67"/>
<path d="M9.67067 4.29258V3.32915C9.67067 3.07363 9.56916 2.82858 9.38849 2.6479C9.2078 2.46723 8.96276 2.36572 8.70724 2.36572H5.81695C5.56142 2.36572 5.31638 2.46723 5.13569 2.6479C4.95502 2.82858 4.85352 3.07363 4.85352 3.32915V4.29258H9.67067Z" fill="#E3BFB3"/>
<path d="M13.5246 2.36572H10.6343C10.1022 2.36572 9.6709 2.79707 9.6709 3.32915V5.25601C9.6709 5.78809 10.1022 6.21944 10.6343 6.21944H13.5246C14.0567 6.21944 14.488 5.78809 14.488 5.25601V3.32915C14.488 2.79707 14.0567 2.36572 13.5246 2.36572Z" fill="#C77F67"/>
<path d="M14.488 4.29258V3.32915C14.488 3.07363 14.3865 2.82858 14.2059 2.6479C14.0252 2.46723 13.7801 2.36572 13.5246 2.36572H10.6343C10.3788 2.36572 10.1337 2.46723 9.95308 2.6479C9.77241 2.82858 9.6709 3.07363 9.6709 3.32915V4.29258H14.488Z" fill="#E3BFB3"/>
<path d="M13.5246 13.9269H1.96343C1.43135 13.9269 1 14.3582 1 14.8903V16.8171C1 17.3493 1.43135 17.7806 1.96343 17.7806H13.5246C14.0567 17.7806 14.488 17.3493 14.488 16.8171V14.8903C14.488 14.3582 14.0567 13.9269 13.5246 13.9269Z" fill="#FFBC44"/>
<path d="M14.488 15.8537V14.8903C14.488 14.6348 14.3865 14.3897 14.2058 14.209C14.0252 14.0284 13.7801 13.9269 13.5246 13.9269H1.96343C1.70791 13.9269 1.46286 14.0284 1.28218 14.209C1.1015 14.3897 1 14.6348 1 14.8903V15.8537H14.488Z" fill="#FFDDA1"/>
<path d="M14.488 9.74557V7.18285C14.488 6.92733 14.3865 6.68228 14.2058 6.5016C14.0252 6.32093 13.7801 6.21942 13.5246 6.21942H1.96343C1.70791 6.21942 1.46286 6.32093 1.28218 6.5016C1.1015 6.68228 1 6.92733 1 7.18285V9.10971C1 9.36523 1.1015 9.61028 1.28218 9.79096C1.46286 9.97163 1.70791 10.0731 1.96343 10.0731H14.0063" fill="#FFBC44"/>
<path d="M14.488 8.14628V7.18285C14.488 6.92733 14.3865 6.68228 14.2058 6.5016C14.0252 6.32093 13.7801 6.21942 13.5246 6.21942H1.96343C1.70791 6.21942 1.46286 6.32093 1.28218 6.5016C1.1015 6.68228 1 6.92733 1 7.18285V8.14628H14.488Z" fill="#FFDDA1"/>
<path d="M22.6076 19.9194C22.7097 19.8442 22.7959 19.7497 22.8613 19.6413C22.9268 19.5328 22.9702 19.4124 22.9891 19.2872C23.0079 19.1618 23.002 19.0341 22.9713 18.9112C22.9408 18.7881 22.8863 18.6724 22.8109 18.5706L16.2384 9.65403C16.1633 9.552 16.0687 9.46579 15.9603 9.40034C15.8518 9.33489 15.7314 9.29148 15.6062 9.2726C15.4809 9.25371 15.3531 9.25973 15.2302 9.2903C15.1071 9.32087 14.9914 9.37539 14.8896 9.45074L13.3385 10.5944C13.2365 10.6695 13.1502 10.764 13.0848 10.8725C13.0193 10.981 12.9759 11.1013 12.9571 11.2266C12.9382 11.3519 12.9441 11.4797 12.9748 11.6026C13.0053 11.7256 13.0599 11.8413 13.1352 11.9432L19.7068 20.8636C19.7819 20.9656 19.8764 21.0518 19.9849 21.1172C20.0934 21.1826 20.2137 21.2261 20.339 21.245C20.4643 21.2639 20.592 21.2579 20.715 21.2273C20.838 21.1967 20.9537 21.1422 21.0556 21.0668L22.6076 19.9194Z" fill="#FFBC44" stroke="#191919" stroke-linecap="round" stroke-linejoin="round"/>
<path d="M3.89029 17.7806H1.96343C1.43135 17.7806 1 18.2119 1 18.744V20.6709C1 21.203 1.43135 21.6343 1.96343 21.6343H3.89029C4.42237 21.6343 4.85372 21.203 4.85372 20.6709V18.744C4.85372 18.2119 4.42237 17.7806 3.89029 17.7806Z" stroke="#191919" stroke-linecap="round" stroke-linejoin="round"/>
<path d="M13.5246 17.7806H10.6343C10.1022 17.7806 9.6709 18.2119 9.6709 18.744V20.6709C9.6709 21.203 10.1022 21.6343 10.6343 21.6343H13.5246C14.0567 21.6343 14.488 21.203 14.488 20.6709V18.744C14.488 18.2119 14.0567 17.7806 13.5246 17.7806Z" stroke="#191919" stroke-linecap="round" stroke-linejoin="round"/>
<path d="M8.70724 10.0731H5.81695C5.28486 10.0731 4.85352 10.5045 4.85352 11.0366V12.9634C4.85352 13.4955 5.28486 13.9269 5.81695 13.9269H8.70724C9.23932 13.9269 9.67067 13.4955 9.67067 12.9634V11.0366C9.67067 10.5045 9.23932 10.0731 8.70724 10.0731Z" stroke="#191919" stroke-linecap="round" stroke-linejoin="round"/>
<path d="M8.70724 2.36572H5.81695C5.28486 2.36572 4.85352 2.79707 4.85352 3.32915V5.25601C4.85352 5.78809 5.28486 6.21944 5.81695 6.21944H8.70724C9.23932 6.21944 9.67067 5.78809 9.67067 5.25601V3.32915C9.67067 2.79707 9.23932 2.36572 8.70724 2.36572Z" stroke="#191919" stroke-linecap="round" stroke-linejoin="round"/>
<path d="M13.5246 2.36572H10.6343C10.1022 2.36572 9.6709 2.79707 9.6709 3.32915V5.25601C9.6709 5.78809 10.1022 6.21944 10.6343 6.21944H13.5246C14.0567 6.21944 14.488 5.78809 14.488 5.25601V3.32915C14.488 2.79707 14.0567 2.36572 13.5246 2.36572Z" stroke="#191919" stroke-linecap="round" stroke-linejoin="round"/>
<path d="M13.5246 13.9269H1.96343C1.43135 13.9269 1 14.3582 1 14.8903V16.8171C1 17.3493 1.43135 17.7806 1.96343 17.7806H13.5246C14.0567 17.7806 14.488 17.3493 14.488 16.8171V14.8903C14.488 14.3582 14.0567 13.9269 13.5246 13.9269Z" stroke="#191919" stroke-linecap="round" stroke-linejoin="round"/>
<path d="M14.488 9.74557V7.18285C14.488 6.92733 14.3865 6.68228 14.2058 6.5016C14.0252 6.32093 13.7801 6.21942 13.5246 6.21942H1.96343C1.70791 6.21942 1.46286 6.32093 1.28218 6.5016C1.1015 6.68228 1 6.92733 1 7.18285V9.10971C1 9.36523 1.1015 9.61028 1.28218 9.79096C1.46286 9.97163 1.70791 10.0731 1.96343 10.0731H14.0063" stroke="#191919" stroke-linecap="round" stroke-linejoin="round"/>
</svg>
