<svg width="24" height="24" viewBox="0 0 24 24" fill="none" xmlns="http://www.w3.org/2000/svg">
<path d="M9.60889 15.3478H22.0437C22.2973 15.3478 22.5407 15.247 22.72 15.0677C22.8994 14.8883 23.0002 14.645 23.0002 14.3913V2.91306C23.0002 2.65937 22.8994 2.41608 22.72 2.2367C22.5407 2.05732 22.2973 1.95654 22.0437 1.95654H10.5654C10.3117 1.95654 10.0684 2.05732 9.88904 2.2367C9.70967 2.41608 9.60889 2.65937 9.60889 2.91306V15.3478Z" fill="#E3E3E3"/>
<path d="M22.0437 12.4783H9.60889V15.3478H22.0437C22.2973 15.3478 22.5407 15.247 22.72 15.0677C22.8994 14.8883 23.0002 14.645 23.0002 14.3913V11.5217C23.0002 11.7754 22.8994 12.0187 22.72 12.1981C22.5407 12.3774 22.2973 12.4783 22.0437 12.4783Z" fill="#B2B2B2"/>
<path d="M16.3045 15.3478H22.0437C22.2973 15.3478 22.5407 15.247 22.72 15.0677C22.8994 14.8883 23.0002 14.645 23.0002 14.3913V2.91306C23.0002 2.65937 22.8994 2.41608 22.72 2.2367C22.5407 2.05732 22.2973 1.95654 22.0437 1.95654H10.5654C10.3117 1.95654 10.0684 2.05732 9.88904 2.2367C9.70967 2.41608 9.60889 2.65937 9.60889 2.91306V6.73915" stroke="#191919" stroke-linecap="round" stroke-linejoin="round"/>
<path d="M13.4348 8.65216H1.95652C1.42825 8.65216 1 9.08041 1 9.60868V21.087C1 21.6152 1.42825 22.0435 1.95652 22.0435H13.4348C13.9631 22.0435 14.3913 21.6152 14.3913 21.087V9.60868C14.3913 9.08041 13.9631 8.65216 13.4348 8.65216Z" fill="white"/>
<path d="M13.4348 19.6522H1.95652C1.70283 19.6522 1.45954 19.5514 1.28016 19.372C1.10078 19.1927 1 18.9493 1 18.6956V21.087C1 21.3406 1.10078 21.584 1.28016 21.7633C1.45954 21.9427 1.70283 22.0435 1.95652 22.0435H13.4348C13.6885 22.0435 13.9318 21.9427 14.1111 21.7633C14.2905 21.584 14.3913 21.3406 14.3913 21.087V18.6956C14.3913 18.9493 14.2905 19.1927 14.1111 19.372C13.9318 19.5514 13.6885 19.6522 13.4348 19.6522Z" fill="#E3E3E3"/>
<path d="M13.4348 8.65216H1.95652C1.42825 8.65216 1 9.08041 1 9.60868V21.087C1 21.6152 1.42825 22.0435 1.95652 22.0435H13.4348C13.9631 22.0435 14.3913 21.6152 14.3913 21.087V9.60868C14.3913 9.08041 13.9631 8.65216 13.4348 8.65216Z" stroke="#191919" stroke-linecap="round" stroke-linejoin="round"/>
<path d="M18.6958 11.7609C18.7592 11.7609 18.8201 11.786 18.8649 11.8309C18.9098 11.8757 18.9349 11.9366 18.9349 12" stroke="#191919" stroke-linecap="round" stroke-linejoin="round"/>
<path d="M18.4565 12C18.4565 11.9366 18.4817 11.8757 18.5266 11.8309C18.5714 11.786 18.6323 11.7609 18.6957 11.7609" stroke="#191919" stroke-linecap="round" stroke-linejoin="round"/>
<path d="M18.6957 12.2391C18.6323 12.2391 18.5714 12.214 18.5266 12.1691C18.4817 12.1243 18.4565 12.0634 18.4565 12" stroke="#191919" stroke-linecap="round" stroke-linejoin="round"/>
<path d="M18.9349 12C18.9349 12.0634 18.9098 12.1243 18.8649 12.1691C18.8201 12.214 18.7592 12.2391 18.6958 12.2391" stroke="#191919" stroke-linecap="round" stroke-linejoin="round"/>
<path d="M18.6958 5.06525C18.7592 5.06525 18.8201 5.09044 18.8649 5.13528C18.9098 5.18013 18.9349 5.24096 18.9349 5.30438" stroke="#191919" stroke-linecap="round" stroke-linejoin="round"/>
<path d="M18.4565 5.30438C18.4565 5.24096 18.4817 5.18013 18.5266 5.13528C18.5714 5.09044 18.6323 5.06525 18.6957 5.06525" stroke="#191919" stroke-linecap="round" stroke-linejoin="round"/>
<path d="M18.6957 5.54345C18.6323 5.54345 18.5714 5.51826 18.5266 5.47342C18.4817 5.42857 18.4565 5.36774 18.4565 5.30432" stroke="#191919" stroke-linecap="round" stroke-linejoin="round"/>
<path d="M18.9349 5.30432C18.9349 5.36774 18.9098 5.42857 18.8649 5.47342C18.8201 5.51826 18.7592 5.54345 18.6958 5.54345" stroke="#191919" stroke-linecap="round" stroke-linejoin="round"/>
<path d="M13.9131 5.06525C13.9765 5.06525 14.0373 5.09044 14.0822 5.13528C14.1271 5.18013 14.1522 5.24096 14.1522 5.30438" stroke="#191919" stroke-linecap="round" stroke-linejoin="round"/>
<path d="M13.6738 5.30438C13.6738 5.24096 13.699 5.18013 13.7438 5.13528C13.7887 5.09044 13.8495 5.06525 13.913 5.06525" stroke="#191919" stroke-linecap="round" stroke-linejoin="round"/>
<path d="M13.913 5.54345C13.8495 5.54345 13.7887 5.51826 13.7438 5.47342C13.699 5.42857 13.6738 5.36774 13.6738 5.30432" stroke="#191919" stroke-linecap="round" stroke-linejoin="round"/>
<path d="M14.1522 5.30432C14.1522 5.36774 14.1271 5.42857 14.0822 5.47342C14.0373 5.51826 13.9765 5.54345 13.9131 5.54345" stroke="#191919" stroke-linecap="round" stroke-linejoin="round"/>
<path d="M11.0435 12.7174C11.1069 12.7174 11.1677 12.7425 11.2126 12.7874C11.2574 12.8323 11.2826 12.8931 11.2826 12.9565" stroke="#191919" stroke-linecap="round" stroke-linejoin="round"/>
<path d="M10.8042 12.9565C10.8042 12.8931 10.8294 12.8323 10.8742 12.7874C10.9191 12.7425 10.9799 12.7174 11.0433 12.7174" stroke="#191919" stroke-linecap="round" stroke-linejoin="round"/>
<path d="M11.0433 13.1957C10.9799 13.1957 10.9191 13.1705 10.8742 13.1256C10.8294 13.0808 10.8042 13.0199 10.8042 12.9565" stroke="#191919" stroke-linecap="round" stroke-linejoin="round"/>
<path d="M11.2826 12.9565C11.2826 13.0199 11.2574 13.0808 11.2126 13.1256C11.1677 13.1705 11.1069 13.1957 11.0435 13.1957" stroke="#191919" stroke-linecap="round" stroke-linejoin="round"/>
<path d="M7.6958 12.7174C7.75922 12.7174 7.82004 12.7425 7.86489 12.7874C7.90974 12.8323 7.93493 12.8931 7.93493 12.9565" stroke="#191919" stroke-linecap="round" stroke-linejoin="round"/>
<path d="M7.45654 12.9565C7.45654 12.8931 7.48174 12.8323 7.52658 12.7874C7.57143 12.7425 7.63226 12.7174 7.69567 12.7174" stroke="#191919" stroke-linecap="round" stroke-linejoin="round"/>
<path d="M7.69567 13.1957C7.63226 13.1957 7.57143 13.1705 7.52658 13.1256C7.48174 13.0808 7.45654 13.0199 7.45654 12.9565" stroke="#191919" stroke-linecap="round" stroke-linejoin="round"/>
<path d="M7.93493 12.9565C7.93493 13.0199 7.90974 13.0808 7.86489 13.1256C7.82004 13.1705 7.75922 13.1957 7.6958 13.1957" stroke="#191919" stroke-linecap="round" stroke-linejoin="round"/>
<path d="M4.34766 12.7174C4.41107 12.7174 4.4719 12.7425 4.51675 12.7874C4.56159 12.8323 4.58679 12.8931 4.58679 12.9565" stroke="#191919" stroke-linecap="round" stroke-linejoin="round"/>
<path d="M4.10889 12.9565C4.10889 12.8931 4.13408 12.8323 4.17892 12.7874C4.22377 12.7425 4.2846 12.7174 4.34802 12.7174" stroke="#191919" stroke-linecap="round" stroke-linejoin="round"/>
<path d="M4.34802 13.1957C4.2846 13.1957 4.22377 13.1705 4.17892 13.1256C4.13408 13.0808 4.10889 13.0199 4.10889 12.9565" stroke="#191919" stroke-linecap="round" stroke-linejoin="round"/>
<path d="M4.58679 12.9565C4.58679 13.0199 4.56159 13.0808 4.51675 13.1256C4.4719 13.1705 4.41107 13.1957 4.34766 13.1957" stroke="#191919" stroke-linecap="round" stroke-linejoin="round"/>
<path d="M4.34766 17.5C4.41107 17.5 4.4719 17.5252 4.51675 17.57C4.56159 17.6149 4.58679 17.6757 4.58679 17.7391" stroke="#191919" stroke-linecap="round" stroke-linejoin="round"/>
<path d="M4.10889 17.7391C4.10889 17.6757 4.13408 17.6149 4.17892 17.57C4.22377 17.5252 4.2846 17.5 4.34802 17.5" stroke="#191919" stroke-linecap="round" stroke-linejoin="round"/>
<path d="M4.34802 17.9783C4.2846 17.9783 4.22377 17.9531 4.17892 17.9082C4.13408 17.8634 4.10889 17.8025 4.10889 17.7391" stroke="#191919" stroke-linecap="round" stroke-linejoin="round"/>
<path d="M4.58679 17.7391C4.58679 17.8025 4.56159 17.8634 4.51675 17.9082C4.4719 17.9531 4.41107 17.9783 4.34766 17.9783" stroke="#191919" stroke-linecap="round" stroke-linejoin="round"/>
<path d="M7.6958 17.5C7.75922 17.5 7.82004 17.5252 7.86489 17.57C7.90974 17.6149 7.93493 17.6757 7.93493 17.7391" stroke="#191919" stroke-linecap="round" stroke-linejoin="round"/>
<path d="M7.45654 17.7391C7.45654 17.6757 7.48174 17.6149 7.52658 17.57C7.57143 17.5252 7.63226 17.5 7.69567 17.5" stroke="#191919" stroke-linecap="round" stroke-linejoin="round"/>
<path d="M7.69567 17.9783C7.63226 17.9783 7.57143 17.9531 7.52658 17.9082C7.48174 17.8634 7.45654 17.8025 7.45654 17.7391" stroke="#191919" stroke-linecap="round" stroke-linejoin="round"/>
<path d="M7.93493 17.7391C7.93493 17.8025 7.90974 17.8634 7.86489 17.9082C7.82004 17.9531 7.75922 17.9783 7.6958 17.9783" stroke="#191919" stroke-linecap="round" stroke-linejoin="round"/>
<path d="M11.0435 17.5C11.1069 17.5 11.1677 17.5252 11.2126 17.57C11.2574 17.6149 11.2826 17.6757 11.2826 17.7391" stroke="#191919" stroke-linecap="round" stroke-linejoin="round"/>
<path d="M10.8042 17.7391C10.8042 17.6757 10.8294 17.6149 10.8742 17.57C10.9191 17.5252 10.9799 17.5 11.0433 17.5" stroke="#191919" stroke-linecap="round" stroke-linejoin="round"/>
<path d="M11.0433 17.9783C10.9799 17.9783 10.9191 17.9531 10.8742 17.9082C10.8294 17.8634 10.8042 17.8025 10.8042 17.7391" stroke="#191919" stroke-linecap="round" stroke-linejoin="round"/>
<path d="M11.2826 17.7391C11.2826 17.8025 11.2574 17.8634 11.2126 17.9082C11.1677 17.9531 11.1069 17.9783 11.0435 17.9783" stroke="#191919" stroke-linecap="round" stroke-linejoin="round"/>
</svg>
