<svg width="24" height="24" viewBox="0 0 24 24" fill="none" xmlns="http://www.w3.org/2000/svg">
<g clip-path="url(#clip0_5303_12721)">
<path d="M12 1H2C1.73478 1 1.48043 1.10536 1.29289 1.29289C1.10536 1.48043 1 1.73478 1 2V12H12V1Z" fill="white" stroke="#191919" stroke-linecap="round" stroke-linejoin="round"/>
<path d="M23 12V2C23 1.73478 22.8946 1.48043 22.7071 1.29289C22.5196 1.10536 22.2652 1 22 1H12V12H23Z" fill="#808080"/>
<path d="M1 12V22C1 22.2652 1.10536 22.5196 1.29289 22.7071C1.48043 22.8946 1.73478 23 2 23H12V12H1Z" fill="#808080"/>
<path d="M14 6.5C14 5.80773 14.2052 5.13099 14.5898 4.55537C14.9744 3.97975 15.521 3.53111 16.1606 3.26618C16.8001 3.00126 17.5039 2.93194 18.1829 3.06701C18.8619 3.20208 19.4855 3.53547 19.975 4.025L22.707 1.293C22.5195 1.10545 22.2652 1.00006 22 1H12V12L15.025 8.975C14.6995 8.65033 14.4414 8.26454 14.2655 7.83979C14.0896 7.41505 13.9994 6.95973 14 6.5Z" fill="#B2B2B2"/>
<path d="M3 17.5C2.99995 16.8077 3.20519 16.131 3.58978 15.5554C3.97436 14.9798 4.521 14.5311 5.16057 14.2662C5.80015 14.0013 6.50392 13.9319 7.18289 14.067C7.86185 14.2021 8.48552 14.5355 8.975 15.025L12 12H1V22C1.00006 22.2652 1.10545 22.5195 1.293 22.707L4.025 19.975C3.69956 19.6503 3.44148 19.2645 3.26558 18.8398C3.08967 18.415 2.99942 17.9597 3 17.5Z" fill="#B2B2B2"/>
<path d="M12 12V23H22C22.2652 23 22.5196 22.8946 22.7071 22.7071C22.8946 22.5196 23 22.2652 23 22V12H12Z" fill="#E3E3E3" stroke="#191919" stroke-linecap="round" stroke-linejoin="round"/>
<path d="M17.5 10C18.4283 10 19.3185 9.63125 19.9749 8.97487C20.6313 8.3185 21 7.42826 21 6.5C21 5.57174 20.6313 4.6815 19.9749 4.02513C19.3185 3.36875 18.4283 3 17.5 3C16.5717 3 15.6815 3.36875 15.0251 4.02513C14.3687 4.6815 14 5.57174 14 6.5C14 7.42826 14.3687 8.3185 15.0251 8.97487C15.6815 9.63125 16.5717 10 17.5 10Z" fill="#E3E3E3"/>
<path d="M6.5 21C7.42826 21 8.3185 20.6313 8.97487 19.9749C9.63125 19.3185 10 18.4283 10 17.5C10 16.5717 9.63125 15.6815 8.97487 15.0251C8.3185 14.3687 7.42826 14 6.5 14C5.57174 14 4.6815 14.3687 4.02513 15.0251C3.36875 15.6815 3 16.5717 3 17.5C3 18.4283 3.36875 19.3185 4.02513 19.9749C4.6815 20.6313 5.57174 21 6.5 21Z" fill="#E3E3E3"/>
<path d="M14 6.50001C13.9994 6.95973 14.0897 7.41503 14.2656 7.83977C14.4415 8.26451 14.6996 8.65031 15.025 8.97501L19.975 4.02501C19.4855 3.53548 18.8619 3.20209 18.1829 3.06702C17.5039 2.93195 16.8001 3.00127 16.1606 3.26619C15.521 3.53112 14.9744 3.97976 14.5898 4.55538C14.2052 5.131 14 5.80774 14 6.50001Z" fill="white"/>
<path d="M3 17.5C2.99942 17.9597 3.08968 18.415 3.26558 18.8398C3.44148 19.2645 3.69956 19.6503 4.025 19.975L8.975 15.025C8.48552 14.5355 7.86186 14.2021 7.18289 14.067C6.50392 13.932 5.80015 14.0013 5.16058 14.2662C4.521 14.5311 3.97436 14.9798 3.58978 15.5554C3.2052 16.131 2.99995 16.8077 3 17.5Z" fill="white"/>
<path d="M8.97518 8.975C8.65016 9.30002 8.2643 9.55784 7.83964 9.73374C7.41498 9.90964 6.95983 10.0002 6.50018 10.0002C6.04053 10.0002 5.58538 9.90964 5.16072 9.73374C4.73606 9.55784 4.3502 9.30002 4.02518 8.975C3.70016 8.64998 3.44234 8.26412 3.26644 7.83946C3.09053 7.4148 3 6.95965 3 6.5C3 6.04035 3.09053 5.5852 3.26644 5.16054C3.44234 4.73588 3.70016 4.35002 4.02518 4.025C4.68159 3.36859 5.57187 2.99982 6.50018 2.99982C7.42848 2.99982 8.31877 3.36859 8.97518 4.025C9.63159 4.68141 10.0004 5.5717 10.0004 6.5C10.0004 7.42831 9.63159 8.31859 8.97518 8.975Z" fill="#B2B2B2" stroke="#191919" stroke-linecap="round" stroke-linejoin="round"/>
<path d="M19.9766 19.975C19.6516 20.3 19.2658 20.5579 18.8411 20.7338C18.4164 20.9097 17.9613 21.0002 17.5016 21.0002C17.042 21.0002 16.5868 20.9097 16.1622 20.7338C15.7375 20.5579 15.3517 20.3 15.0266 19.975C14.7016 19.65 14.4438 19.2641 14.2679 18.8395C14.092 18.4148 14.0015 17.9597 14.0015 17.5C14.0015 17.0404 14.092 16.5852 14.2679 16.1605C14.4438 15.7359 14.7016 15.35 15.0266 15.025C15.6831 14.3686 16.5733 13.9998 17.5016 13.9998C18.4299 13.9998 19.3202 14.3686 19.9766 15.025C20.6331 15.6814 21.0018 16.5717 21.0018 17.5C21.0018 18.4283 20.6331 19.3186 19.9766 19.975Z" fill="#808080" stroke="#191919" stroke-linecap="round" stroke-linejoin="round"/>
<path d="M23 12V2C23 1.73478 22.8946 1.48043 22.7071 1.29289C22.5196 1.10536 22.2652 1 22 1H12V12H23Z" stroke="#191919" stroke-linecap="round" stroke-linejoin="round"/>
<path d="M1 12V22C1 22.2652 1.10536 22.5196 1.29289 22.7071C1.48043 22.8946 1.73478 23 2 23H12V12H1Z" stroke="#191919" stroke-linecap="round" stroke-linejoin="round"/>
<path d="M17.5 10C18.4283 10 19.3185 9.63125 19.9749 8.97487C20.6313 8.3185 21 7.42826 21 6.5C21 5.57174 20.6313 4.6815 19.9749 4.02513C19.3185 3.36875 18.4283 3 17.5 3C16.5717 3 15.6815 3.36875 15.0251 4.02513C14.3687 4.6815 14 5.57174 14 6.5C14 7.42826 14.3687 8.3185 15.0251 8.97487C15.6815 9.63125 16.5717 10 17.5 10Z" stroke="#191919" stroke-linecap="round" stroke-linejoin="round"/>
<path d="M6.5 21C7.42826 21 8.3185 20.6313 8.97487 19.9749C9.63125 19.3185 10 18.4283 10 17.5C10 16.5717 9.63125 15.6815 8.97487 15.0251C8.3185 14.3687 7.42826 14 6.5 14C5.57174 14 4.6815 14.3687 4.02513 15.0251C3.36875 15.6815 3 16.5717 3 17.5C3 18.4283 3.36875 19.3185 4.02513 19.9749C4.6815 20.6313 5.57174 21 6.5 21Z" stroke="#191919" stroke-linecap="round" stroke-linejoin="round"/>
</g>
<defs>
<clipPath id="clip0_5303_12721">
<rect width="24" height="24" fill="white"/>
</clipPath>
</defs>
</svg>
