<svg width="24" height="24" viewBox="0 0 24 24" fill="none" xmlns="http://www.w3.org/2000/svg">
<g clip-path="url(#clip0_5303_12627)">
<path d="M14.965 16.1842C14.7839 16.2632 14.5886 16.3039 14.3911 16.3039C14.1936 16.3039 13.9982 16.2632 13.8172 16.1842L7.0262 13.2133C6.94095 13.1761 6.86841 13.1149 6.81744 13.0371C6.76648 12.9593 6.73931 12.8683 6.73926 12.7753V3.6792C6.73932 3.57731 6.77191 3.4781 6.8323 3.39603C6.89269 3.31396 6.97772 3.25333 7.07498 3.22296L13.9616 1.06993C14.2418 0.981818 14.5423 0.981818 14.8224 1.06993L21.7091 3.22488C21.8057 3.25548 21.89 3.31596 21.95 3.39762C22.01 3.47928 22.0425 3.57788 22.0429 3.6792V12.7753C22.0428 12.8683 22.0157 12.9593 21.9647 13.0371C21.9137 13.1149 21.8412 13.1761 21.7559 13.2133L14.965 16.1842Z" fill="white"/>
<path d="M14.3911 6.26165V16.3047C14.5891 16.3047 14.7833 16.2635 14.965 16.1841L21.756 13.2133C21.8412 13.1761 21.9138 13.1149 21.9647 13.0371C22.0157 12.9592 22.0429 12.8683 22.0429 12.7753V3.67916C22.0426 3.58811 22.0167 3.49899 21.9683 3.42188L14.3911 6.26165Z" fill="#E3E3E3"/>
<path d="M14.3911 7.11867V6.26166" stroke="#191919" stroke-linecap="round" stroke-linejoin="round"/>
<path d="M21.9698 3.41998L14.3916 6.26167L6.81348 3.41998" stroke="#191919" stroke-linecap="round" stroke-linejoin="round"/>
<path d="M19.1735 14.3439L21.756 13.2133C21.8412 13.1761 21.9138 13.1149 21.9647 13.0371C22.0157 12.9593 22.0429 12.8683 22.0429 12.7753V3.67918C22.0428 3.57728 22.0102 3.47807 21.9499 3.39601C21.8895 3.31394 21.8044 3.2533 21.7072 3.22294L14.8196 1.06608C14.5394 0.977973 14.2389 0.977973 13.9588 1.06608L7.07213 3.21911C6.97478 3.25017 6.88993 3.3116 6.83003 3.3944C6.77013 3.47719 6.73833 3.57699 6.73928 3.67918V6.51991" stroke="#191919" stroke-linecap="round" stroke-linejoin="round"/>
<path d="M10.1827 22.8795C10.0017 22.9585 9.80634 22.9993 9.60884 22.9993C9.41134 22.9993 9.21597 22.9585 9.03496 22.8795L2.24397 19.9087C2.15873 19.8715 2.08618 19.8102 2.03521 19.7324C1.98425 19.6546 1.95708 19.5636 1.95703 19.4706V10.3745C1.95709 10.2726 1.98969 10.1734 2.05008 10.0913C2.11047 10.0093 2.19549 9.94863 2.29275 9.91827L9.17938 7.76524C9.45956 7.67713 9.76003 7.67713 10.0402 7.76524L16.9268 9.92018C17.0241 9.95055 17.1091 10.0112 17.1695 10.0933C17.2299 10.1753 17.2625 10.2745 17.2626 10.3764V19.4706C17.2625 19.5636 17.2353 19.6546 17.1844 19.7324C17.1334 19.8102 17.0609 19.8715 16.9756 19.9087L10.1827 22.8795Z" fill="white" stroke="#191919" stroke-linecap="round" stroke-linejoin="round"/>
<path d="M9.60889 23V12.957" stroke="#191919" stroke-linecap="round" stroke-linejoin="round"/>
<path d="M17.1876 10.1153L9.60941 12.957L2.03125 10.1153" stroke="#191919" stroke-linecap="round" stroke-linejoin="round"/>
<path d="M9.60889 12.957V23C9.80688 23 10.001 22.9589 10.1828 22.8795L16.9738 19.9087C17.059 19.8714 17.1316 19.8102 17.1825 19.7324C17.2335 19.6546 17.2607 19.5636 17.2607 19.4706V10.3745C17.2603 10.2834 17.2345 10.1943 17.1861 10.1172L9.60889 12.957Z" fill="#E3E3E3" stroke="#191919" stroke-linecap="round" stroke-linejoin="round"/>
<path d="M14.3911 3.15314C14.4545 3.15314 14.5154 3.17833 14.5602 3.22318C14.605 3.26802 14.6302 3.32884 14.6302 3.39226" stroke="#191919" stroke-linecap="round" stroke-linejoin="round"/>
<path d="M14.1523 3.39226C14.1523 3.32884 14.1775 3.26802 14.2224 3.22318C14.2672 3.17833 14.328 3.15314 14.3915 3.15314" stroke="#191919" stroke-linecap="round" stroke-linejoin="round"/>
<path d="M14.3915 3.63133C14.328 3.63133 14.2672 3.60614 14.2224 3.5613C14.1775 3.51645 14.1523 3.45563 14.1523 3.39221" stroke="#191919" stroke-linecap="round" stroke-linejoin="round"/>
<path d="M14.6302 3.39221C14.6302 3.45563 14.605 3.51645 14.5602 3.5613C14.5154 3.60614 14.4545 3.63133 14.3911 3.63133" stroke="#191919" stroke-linecap="round" stroke-linejoin="round"/>
<path d="M19.6519 6.50079C19.7153 6.50079 19.7761 6.52599 19.8209 6.57083C19.8658 6.61567 19.891 6.67649 19.891 6.73991" stroke="#191919" stroke-linecap="round" stroke-linejoin="round"/>
<path d="M19.4126 6.73991C19.4126 6.67649 19.4378 6.61567 19.4826 6.57083C19.5275 6.52599 19.5883 6.50079 19.6517 6.50079" stroke="#191919" stroke-linecap="round" stroke-linejoin="round"/>
<path d="M19.6517 6.97905C19.5883 6.97905 19.5275 6.95386 19.4826 6.90902C19.4378 6.86417 19.4126 6.80335 19.4126 6.73993" stroke="#191919" stroke-linecap="round" stroke-linejoin="round"/>
<path d="M19.891 6.73993C19.891 6.80335 19.8658 6.86417 19.8209 6.90902C19.7761 6.95386 19.7153 6.97905 19.6519 6.97905" stroke="#191919" stroke-linecap="round" stroke-linejoin="round"/>
<path d="M19.6519 11.2832C19.7153 11.2832 19.7761 11.3084 19.8209 11.3532C19.8658 11.3981 19.891 11.4589 19.891 11.5223" stroke="#191919" stroke-linecap="round" stroke-linejoin="round"/>
<path d="M19.4126 11.5223C19.4126 11.4589 19.4378 11.3981 19.4826 11.3532C19.5275 11.3084 19.5883 11.2832 19.6517 11.2832" stroke="#191919" stroke-linecap="round" stroke-linejoin="round"/>
<path d="M19.6517 11.7614C19.5883 11.7614 19.5275 11.7362 19.4826 11.6914C19.4378 11.6465 19.4126 11.5857 19.4126 11.5223" stroke="#191919" stroke-linecap="round" stroke-linejoin="round"/>
<path d="M19.891 11.5223C19.891 11.5857 19.8658 11.6465 19.8209 11.6914C19.7761 11.7362 19.7153 11.7614 19.6519 11.7614" stroke="#191919" stroke-linecap="round" stroke-linejoin="round"/>
<path d="M14.8696 14.1526C14.933 14.1526 14.9939 14.1778 15.0387 14.2226C15.0836 14.2675 15.1087 14.3283 15.1087 14.3917" stroke="#191919" stroke-linecap="round" stroke-linejoin="round"/>
<path d="M14.6304 14.3917C14.6304 14.3283 14.6556 14.2675 14.7004 14.2226C14.7453 14.1778 14.8061 14.1526 14.8695 14.1526" stroke="#191919" stroke-linecap="round" stroke-linejoin="round"/>
<path d="M14.8695 14.6308C14.8061 14.6308 14.7453 14.6056 14.7004 14.5608C14.6556 14.516 14.6304 14.4551 14.6304 14.3917" stroke="#191919" stroke-linecap="round" stroke-linejoin="round"/>
<path d="M15.1087 14.3917C15.1087 14.4551 15.0836 14.516 15.0387 14.5608C14.9939 14.6056 14.933 14.6308 14.8696 14.6308" stroke="#191919" stroke-linecap="round" stroke-linejoin="round"/>
<path d="M13.4346 16.5438C13.498 16.5438 13.5588 16.569 13.6037 16.6138C13.6485 16.6587 13.6737 16.7195 13.6737 16.7829" stroke="#191919" stroke-linecap="round" stroke-linejoin="round"/>
<path d="M13.1958 16.7829C13.1958 16.7195 13.221 16.6587 13.2658 16.6138C13.3107 16.569 13.3715 16.5438 13.4349 16.5438" stroke="#191919" stroke-linecap="round" stroke-linejoin="round"/>
<path d="M13.4349 17.022C13.3715 17.022 13.3107 16.9968 13.2658 16.952C13.221 16.9072 13.1958 16.8463 13.1958 16.7829" stroke="#191919" stroke-linecap="round" stroke-linejoin="round"/>
<path d="M13.6737 16.7829C13.6737 16.8463 13.6485 16.9072 13.6037 16.952C13.5588 16.9968 13.498 17.022 13.4346 17.022" stroke="#191919" stroke-linecap="round" stroke-linejoin="round"/>
<path d="M12 18.935C12.0634 18.935 12.1242 18.9602 12.1691 19.005C12.2139 19.0498 12.2391 19.1107 12.2391 19.1741" stroke="#191919" stroke-linecap="round" stroke-linejoin="round"/>
<path d="M11.7607 19.1741C11.7607 19.1107 11.7859 19.0498 11.8308 19.005C11.8756 18.9602 11.9364 18.935 11.9999 18.935" stroke="#191919" stroke-linecap="round" stroke-linejoin="round"/>
<path d="M11.9999 19.4132C11.9364 19.4132 11.8756 19.388 11.8308 19.3432C11.7859 19.2983 11.7607 19.2375 11.7607 19.1741" stroke="#191919" stroke-linecap="round" stroke-linejoin="round"/>
<path d="M12.2391 19.1741C12.2391 19.2375 12.2139 19.2983 12.1691 19.3432C12.1242 19.388 12.0634 19.4132 12 19.4132" stroke="#191919" stroke-linecap="round" stroke-linejoin="round"/>
<path d="M7.21777 18.935C7.28119 18.935 7.34201 18.9602 7.38686 19.005C7.4317 19.0498 7.45689 19.1107 7.45689 19.1741" stroke="#191919" stroke-linecap="round" stroke-linejoin="round"/>
<path d="M6.97852 19.1741C6.97852 19.1107 7.00371 19.0498 7.04855 19.005C7.0934 18.9602 7.15422 18.935 7.21763 18.935" stroke="#191919" stroke-linecap="round" stroke-linejoin="round"/>
<path d="M7.21763 19.4132C7.15422 19.4132 7.0934 19.388 7.04855 19.3432C7.00371 19.2983 6.97852 19.2375 6.97852 19.1741" stroke="#191919" stroke-linecap="round" stroke-linejoin="round"/>
<path d="M7.45689 19.1741C7.45689 19.2375 7.4317 19.2983 7.38686 19.3432C7.34201 19.388 7.28119 19.4132 7.21777 19.4132" stroke="#191919" stroke-linecap="round" stroke-linejoin="round"/>
<path d="M4.34814 14.1526C4.41156 14.1526 4.47238 14.1778 4.51723 14.2226C4.56207 14.2675 4.58726 14.3283 4.58726 14.3917" stroke="#191919" stroke-linecap="round" stroke-linejoin="round"/>
<path d="M4.10889 14.3917C4.10889 14.3283 4.13408 14.2675 4.17892 14.2226C4.22377 14.1778 4.28459 14.1526 4.34801 14.1526" stroke="#191919" stroke-linecap="round" stroke-linejoin="round"/>
<path d="M4.34801 14.6308C4.28459 14.6308 4.22377 14.6056 4.17892 14.5608C4.13408 14.516 4.10889 14.4551 4.10889 14.3917" stroke="#191919" stroke-linecap="round" stroke-linejoin="round"/>
<path d="M4.58726 14.3917C4.58726 14.4551 4.56207 14.516 4.51723 14.5608C4.47238 14.6056 4.41156 14.6308 4.34814 14.6308" stroke="#191919" stroke-linecap="round" stroke-linejoin="round"/>
<path d="M9.60889 9.84845C9.67231 9.84845 9.73313 9.87364 9.77797 9.91849C9.82281 9.96333 9.84801 10.0242 9.84801 10.0876" stroke="#191919" stroke-linecap="round" stroke-linejoin="round"/>
<path d="M9.36963 10.0876C9.36963 10.0242 9.39482 9.96333 9.43967 9.91849C9.48451 9.87364 9.54533 9.84845 9.60875 9.84845" stroke="#191919" stroke-linecap="round" stroke-linejoin="round"/>
<path d="M9.60875 10.3267C9.54533 10.3267 9.48451 10.3015 9.43967 10.2567C9.39482 10.2118 9.36963 10.151 9.36963 10.0876" stroke="#191919" stroke-linecap="round" stroke-linejoin="round"/>
<path d="M9.84801 10.0876C9.84801 10.151 9.82281 10.2118 9.77797 10.2567C9.73313 10.3015 9.67231 10.3267 9.60889 10.3267" stroke="#191919" stroke-linecap="round" stroke-linejoin="round"/>
</g>
<defs>
<clipPath id="clip0_5303_12627">
<rect width="24" height="24" fill="white"/>
</clipPath>
</defs>
</svg>
