<svg width="24" height="24" viewBox="0 0 24 24" fill="none" xmlns="http://www.w3.org/2000/svg">
<g clip-path="url(#clip0_5303_7821)">
<path d="M5.3042 10.8567C5.3042 10.8567 5.3042 5.59585 11.9999 5.59585C15.252 5.59585 16.4314 4.21368 17.2999 2.84298C17.3457 2.77113 17.4097 2.71279 17.4856 2.674C17.5615 2.63522 17.6463 2.61739 17.7313 2.62237C17.8164 2.62734 17.8985 2.65494 17.9693 2.70229C18.0401 2.74965 18.097 2.81507 18.134 2.89176C19.6415 6.02055 19.5095 8.64333 17.739 10.8567H5.3042Z" fill="#E3E3E3"/>
<path d="M21.087 13.7263V12.7698C21.087 12.2624 20.8855 11.7758 20.5267 11.417C20.1679 11.0583 19.6813 10.8567 19.174 10.8567H4.82613C4.31876 10.8567 3.83217 11.0583 3.47341 11.417C3.11463 11.7758 2.91309 12.2624 2.91309 12.7698V13.7263H21.087Z" fill="#FFBFC5" stroke="#191919" stroke-linecap="round" stroke-linejoin="round"/>
<path d="M23 19.4654C23 19.9728 22.7985 20.4593 22.4397 20.8181C22.0809 21.1769 21.5943 21.3785 21.087 21.3785H2.91304C2.40568 21.3785 1.91908 21.1769 1.56032 20.8181C1.20155 20.4593 1 19.9728 1 19.4654V14.2045C1 14.0777 1.05039 13.956 1.14008 13.8663C1.22977 13.7767 1.35142 13.7263 1.47826 13.7263H22.5217C22.6486 13.7263 22.7702 13.7767 22.86 13.8663C22.9496 13.956 23 14.0777 23 14.2045V19.4654Z" fill="#FF808C" stroke="#191919" stroke-linecap="round" stroke-linejoin="round"/>
<path d="M19.174 15.6393H4.82617V19.4654H19.174V15.6393Z" fill="white" stroke="#191919" stroke-linecap="round" stroke-linejoin="round"/>
<path d="M11.9303 8.40133C16.1285 8.40133 17.6503 6.61646 18.7704 4.84881C18.7895 4.8182 18.823 4.80481 18.8469 4.77898C18.6652 4.13024 18.4267 3.49873 18.1343 2.89176C18.0973 2.81507 18.0404 2.74965 17.9696 2.70229C17.8988 2.65494 17.8166 2.62734 17.7316 2.62237C17.6466 2.61739 17.5617 2.63522 17.4859 2.674C17.41 2.71279 17.3459 2.77113 17.3002 2.84298C16.4317 4.21368 15.2523 5.59585 12.0001 5.59585C6.12421 5.59585 5.40489 9.64576 5.31689 10.6377C6.57663 9.40472 8.61307 8.40133 11.9303 8.40133Z" fill="white"/>
<path d="M5.3042 10.8567C5.3042 10.8567 5.3042 5.59585 11.9999 5.59585C15.252 5.59585 16.4314 4.21368 17.2999 2.84298C17.3457 2.77113 17.4097 2.71279 17.4856 2.674C17.5615 2.63522 17.6463 2.61739 17.7313 2.62237C17.8164 2.62734 17.8985 2.65494 17.9693 2.70229C18.0401 2.74965 18.097 2.81507 18.134 2.89176C19.6415 6.02055 19.5095 8.64333 17.739 10.8567H5.3042Z" stroke="#191919" stroke-linecap="round" stroke-linejoin="round"/>
</g>
<defs>
<clipPath id="clip0_5303_7821">
<rect width="24" height="24" fill="white"/>
</clipPath>
</defs>
</svg>
