<svg width="24" height="24" viewBox="0 0 24 24" fill="none" xmlns="http://www.w3.org/2000/svg">
<path d="M13.9537 5.57152V22.0211C13.9519 22.1807 13.912 22.3375 13.8373 22.4786C13.7624 22.6197 13.6551 22.7408 13.5239 22.8318C13.3922 22.9216 13.2403 22.9774 13.0819 22.9945C12.9235 23.0115 12.7633 22.9892 12.6155 22.9295L4.80094 19.8037C4.61919 19.7313 4.46336 19.606 4.35364 19.444C4.24392 19.2821 4.18536 19.0909 4.18555 18.8953V1.97684C4.18713 1.81718 4.22698 1.66022 4.30177 1.51915C4.37655 1.37808 4.48409 1.257 4.61535 1.16608L13.3383 4.66308C13.5201 4.73546 13.6759 4.86076 13.7856 5.02272C13.8953 5.1847 13.9539 5.37588 13.9537 5.57152Z" fill="#FFDDA1"/>
<path d="M4.18555 16.629V18.8952C4.18536 19.0909 4.24392 19.2821 4.35364 19.444C4.46336 19.606 4.61919 19.7313 4.80094 19.8037L12.6155 22.9295C12.7633 22.9892 12.9235 23.0114 13.0819 22.9945C13.2403 22.9774 13.3922 22.9216 13.5239 22.8318C13.6551 22.7408 13.7624 22.6196 13.8373 22.4786C13.912 22.3375 13.9519 22.1807 13.9537 22.0211V6.8609L4.18555 16.629Z" fill="#FFBC44"/>
<path d="M13.9537 5.57152V22.0211C13.9519 22.1807 13.912 22.3375 13.8373 22.4786C13.7624 22.6197 13.6551 22.7408 13.5239 22.8318C13.3922 22.9216 13.2403 22.9774 13.0819 22.9945C12.9235 23.0115 12.7633 22.9892 12.6155 22.9295L4.80094 19.8037C4.61919 19.7313 4.46336 19.606 4.35364 19.444C4.24392 19.2821 4.18536 19.0909 4.18555 18.8953V1.97684C4.18713 1.81718 4.22698 1.66022 4.30177 1.51915C4.37655 1.37808 4.48409 1.257 4.61535 1.16608L13.3383 4.66308C13.5201 4.73546 13.6759 4.86076 13.7856 5.02272C13.8953 5.1847 13.9539 5.37588 13.9537 5.57152Z" stroke="#191919" stroke-linecap="round" stroke-linejoin="round"/>
<path d="M19.8144 1.97681V18.5827C19.8144 18.8417 19.7115 19.0902 19.5283 19.2734C19.3452 19.4565 19.0967 19.5595 18.8376 19.5595H16.884V4.25279C16.8844 4.02495 16.8058 3.80404 16.6614 3.62769C16.5171 3.45135 16.3162 3.3305 16.0928 3.28575L4.72266 1.10745C4.85875 1.03772 5.00931 1.00092 5.16222 1H18.8376C19.0967 1 19.3452 1.10291 19.5283 1.2861C19.7115 1.46929 19.8144 1.71774 19.8144 1.97681Z" fill="#E3E3E3"/>
<path d="M16.884 4.25277V20.5363C16.884 20.7954 16.7811 21.0439 16.5979 21.227C16.4148 21.4102 16.1663 21.5131 15.9072 21.5131H13.9536V5.57147C13.9538 5.37583 13.8952 5.18465 13.7855 5.02267C13.6758 4.86071 13.52 4.73541 13.3382 4.66303L4.61523 1.16603C4.65431 1.14649 4.68361 1.12696 4.72268 1.10742L16.0928 3.28572C16.3162 3.33048 16.5171 3.45132 16.6615 3.62766C16.8058 3.80401 16.8844 4.02492 16.884 4.25277Z" fill="#E3E3E3"/>
<path d="M19.8144 1.97681V18.5827C19.8144 18.8417 19.7115 19.0902 19.5283 19.2734C19.3452 19.4565 19.0967 19.5595 18.8376 19.5595H16.884V4.25279C16.8844 4.02495 16.8058 3.80404 16.6614 3.62769C16.5171 3.45135 16.3162 3.3305 16.0928 3.28575L4.72266 1.10745C4.85875 1.03772 5.00931 1.00092 5.16222 1H18.8376C19.0967 1 19.3452 1.10291 19.5283 1.2861C19.7115 1.46929 19.8144 1.71774 19.8144 1.97681Z" stroke="#191919" stroke-linecap="round" stroke-linejoin="round"/>
<path d="M16.884 4.25277V20.5363C16.884 20.7954 16.7811 21.0439 16.5979 21.227C16.4148 21.4102 16.1663 21.5131 15.9072 21.5131H13.9536V5.57147C13.9538 5.37583 13.8952 5.18465 13.7855 5.02267C13.6758 4.86071 13.52 4.73541 13.3382 4.66303L4.61523 1.16603C4.65431 1.14649 4.68361 1.12696 4.72268 1.10742L16.0928 3.28572C16.3162 3.33048 16.5171 3.45132 16.6615 3.62766C16.8058 3.80401 16.8844 4.02492 16.884 4.25277Z" stroke="#191919" stroke-linecap="round" stroke-linejoin="round"/>
</svg>
