<svg width="24" height="24" viewBox="0 0 24 24" fill="none" xmlns="http://www.w3.org/2000/svg">
<path d="M19.174 4.82608H5.78267C5.2753 4.82608 4.78871 4.62454 4.42995 4.26576C4.07119 3.907 3.86963 3.42041 3.86963 2.91304C3.86963 2.40567 4.07119 1.91908 4.42995 1.56032C4.78871 1.20155 5.2753 1 5.78267 1H18.2174C18.4711 1 18.7145 1.10078 18.8938 1.28016C19.0731 1.45954 19.174 1.70283 19.174 1.95652V4.82608Z" fill="white"/>
<path d="M19.174 4.82613C19.4276 4.82613 19.671 4.92691 19.8503 5.10628C20.0297 5.28567 20.1305 5.52896 20.1305 5.78265V22.0435C20.1305 22.2971 20.0297 22.5405 19.8503 22.7198C19.671 22.8992 19.4276 23 19.174 23H5.78267C5.2753 23 4.78871 22.7985 4.42995 22.4397C4.07119 22.0809 3.86963 21.5943 3.86963 21.087V2.91309C3.86963 3.42045 4.07119 3.90704 4.42995 4.26581C4.78871 4.62458 5.2753 4.82613 5.78267 4.82613H19.174Z" fill="#66E1FF"/>
<path d="M7.14189 21.087V4.82613H5.78267C5.2753 4.82613 4.78871 4.62458 4.42995 4.26581C4.07119 3.90704 3.86963 3.42045 3.86963 2.91309V21.087C3.86963 21.5943 4.07119 22.0809 4.42995 22.4397C4.78871 22.7985 5.2753 23 5.78267 23H9.05493C8.54756 23 8.06097 22.7985 7.70221 22.4397C7.34345 22.0809 7.14189 21.5943 7.14189 21.087Z" fill="#C2F3FF"/>
<path d="M5.78271 2.91309H16.3044C16.5581 2.91309 16.8015 3.01386 16.9808 3.19324C17.1601 3.37263 17.261 3.61592 17.261 3.86961V4.82613" stroke="#191919" stroke-linecap="round" stroke-linejoin="round"/>
<path d="M19.174 4.82608V1.95652C19.174 1.70283 19.0731 1.45954 18.8938 1.28016C18.7145 1.10078 18.4711 1 18.2174 1H5.78267C5.2753 1 4.78871 1.20155 4.42995 1.56032C4.07119 1.91908 3.86963 2.40567 3.86963 2.91304M19.174 4.82608H5.78267C5.2753 4.82608 4.78871 4.62454 4.42995 4.26576C4.07119 3.907 3.86963 3.42041 3.86963 2.91304M19.174 4.82608C19.4276 4.82608 19.671 4.92686 19.8503 5.10624C20.0297 5.28563 20.1305 5.52892 20.1305 5.78261V22.0435C20.1305 22.2971 20.0297 22.5405 19.8503 22.7198C19.671 22.8992 19.4276 23 19.174 23H5.78267C5.2753 23 4.78871 22.7984 4.42995 22.4397C4.07119 22.0809 3.86963 21.5943 3.86963 21.0869V2.91304" stroke="#191919" stroke-linecap="round" stroke-linejoin="round"/>
<path d="M12.6742 8.10981L14.1463 11.5217H17.0101C17.1548 11.5161 17.2977 11.5552 17.4194 11.6338C17.541 11.7125 17.6354 11.8268 17.6896 11.9611C17.7438 12.0954 17.7553 12.243 17.7223 12.3841C17.6893 12.5251 17.6137 12.6525 17.5056 12.7489L15.0167 14.9652L16.3941 18.1342C16.4546 18.2791 16.4681 18.4394 16.4327 18.5923C16.3973 18.7454 16.3148 18.8834 16.1969 18.9871C16.0789 19.0908 15.9315 19.1549 15.7752 19.1704C15.6189 19.1859 15.4617 19.152 15.3257 19.0735L12.0027 17.1977L8.67595 19.0782C8.53994 19.1568 8.38275 19.1906 8.22647 19.1751C8.0702 19.1596 7.9227 19.0956 7.80476 18.9919C7.68681 18.8882 7.60435 18.7502 7.56897 18.5971C7.53359 18.4442 7.54707 18.2839 7.60752 18.1389L8.98204 14.9652L6.49508 12.7499C6.38637 12.6541 6.30998 12.5268 6.27641 12.3858C6.24284 12.2449 6.25374 12.0969 6.30761 11.9624C6.36148 11.8278 6.45568 11.7132 6.57727 11.6343C6.69886 11.5554 6.8419 11.5161 6.98674 11.5217H9.8563L11.3303 8.10693C11.3958 7.98521 11.493 7.8835 11.6117 7.81262C11.7303 7.74172 11.866 7.70428 12.0042 7.70428C12.1424 7.70428 12.278 7.74172 12.3966 7.81262C12.5153 7.8835 12.6125 7.98521 12.678 8.10693L12.6742 8.10981Z" fill="#FFEF5E"/>
<path d="M14.1465 11.5217L12.6744 8.10693C12.6089 7.98521 12.5117 7.8835 12.393 7.81262C12.2744 7.74172 12.1388 7.70428 12.0006 7.70428C11.8624 7.70428 11.7267 7.74172 11.6081 7.81262C11.4894 7.8835 11.3922 7.98521 11.3267 8.10693L9.85174 11.5217H6.98218C6.83756 11.5164 6.6948 11.5558 6.57345 11.6346C6.4521 11.7134 6.35808 11.8279 6.30426 11.9622C6.25044 12.0966 6.23945 12.2443 6.2728 12.3851C6.30614 12.5259 6.38218 12.653 6.49053 12.7489L8.97748 14.9642L7.60775 18.1361C7.53963 18.3056 7.53624 18.4942 7.59818 18.666L14.7396 11.5217H14.1465Z" fill="#FFF9BF"/>
<path d="M12.6742 8.10981L14.1463 11.5217H17.0101C17.1548 11.5161 17.2977 11.5552 17.4194 11.6338C17.541 11.7125 17.6354 11.8268 17.6896 11.9611C17.7438 12.0954 17.7553 12.243 17.7223 12.3841C17.6893 12.5251 17.6137 12.6525 17.5056 12.7489L15.0167 14.9652L16.3941 18.1342C16.4546 18.2791 16.4681 18.4394 16.4327 18.5923C16.3973 18.7454 16.3148 18.8834 16.1969 18.9871C16.0789 19.0908 15.9315 19.1549 15.7752 19.1704C15.6189 19.1859 15.4617 19.152 15.3257 19.0735L12.0027 17.1977L8.67595 19.0782C8.53994 19.1568 8.38275 19.1906 8.22647 19.1751C8.0702 19.1596 7.9227 19.0956 7.80476 18.9919C7.68681 18.8882 7.60435 18.7502 7.56897 18.5971C7.53359 18.4442 7.54707 18.2839 7.60752 18.1389L8.98204 14.9652L6.49508 12.7499C6.38637 12.6541 6.30998 12.5268 6.27641 12.3858C6.24284 12.2449 6.25374 12.0969 6.30761 11.9624C6.36148 11.8278 6.45568 11.7132 6.57727 11.6343C6.69886 11.5554 6.8419 11.5161 6.98674 11.5217H9.8563L11.3303 8.10693C11.3958 7.98521 11.493 7.8835 11.6117 7.81262C11.7303 7.74172 11.866 7.70428 12.0042 7.70428C12.1424 7.70428 12.278 7.74172 12.3966 7.81262C12.5153 7.8835 12.6125 7.98521 12.678 8.10693L12.6742 8.10981Z" stroke="#191919" stroke-linecap="round" stroke-linejoin="round"/>
</svg>
