<svg width="24" height="24" viewBox="0 0 24 24" fill="none" xmlns="http://www.w3.org/2000/svg">
<path d="M19.174 1.95652V4.82608H5.78267C5.2753 4.82608 4.78871 4.62454 4.42995 4.26576C4.07119 3.907 3.86963 3.42041 3.86963 2.91304C3.86963 2.40567 4.07119 1.91908 4.42995 1.56032C4.78871 1.20155 5.2753 1 5.78267 1H18.2175C18.4711 1 18.7145 1.10078 18.8938 1.28016C19.0732 1.45954 19.174 1.70283 19.174 1.95652Z" fill="white"/>
<path d="M20.1305 5.78265V22.0435C20.1305 22.2971 20.0297 22.5405 19.8503 22.7198C19.671 22.8992 19.4276 23 19.174 23H5.78267C5.2753 23 4.78871 22.7985 4.42995 22.4397C4.07119 22.0809 3.86963 21.5943 3.86963 21.087V2.91309C3.86963 3.42045 4.07119 3.90704 4.42995 4.26581C4.78871 4.62458 5.2753 4.82613 5.78267 4.82613H19.174C19.4276 4.82613 19.671 4.92691 19.8503 5.10628C20.0297 5.28567 20.1305 5.52896 20.1305 5.78265Z" fill="#66E1FF"/>
<path d="M7.14189 21.087V4.82613H5.78267C5.2753 4.82613 4.78871 4.62458 4.42995 4.26581C4.07119 3.90704 3.86963 3.42045 3.86963 2.91309V21.087C3.86963 21.5943 4.07119 22.0809 4.42995 22.4397C4.78871 22.7985 5.2753 23 5.78267 23H9.05493C8.54756 23 8.06097 22.7985 7.70221 22.4397C7.34344 22.0809 7.14189 21.5943 7.14189 21.087Z" fill="#C2F3FF"/>
<path d="M17.2611 15.3478L14.3915 12.4783L11.522 15.3478V4.34782C11.522 4.09413 11.6228 3.85084 11.8021 3.67146C11.9815 3.49208 12.2248 3.3913 12.4785 3.3913H16.3046C16.5582 3.3913 16.8016 3.49208 16.9809 3.67146C17.1604 3.85084 17.2611 4.09413 17.2611 4.34782V15.3478Z" fill="#FF808C"/>
<path d="M16.3046 3.3913H12.4785C12.2248 3.3913 11.9815 3.49208 11.8021 3.67146C11.6228 3.85084 11.522 4.09413 11.522 4.34782V6.8453C11.522 6.59161 11.6228 6.34832 11.8021 6.16893C11.9815 5.98956 12.2248 5.88878 12.4785 5.88878H16.3046C16.5582 5.88878 16.8016 5.98956 16.9809 6.16893C17.1604 6.34832 17.2611 6.59161 17.2611 6.8453V4.34782C17.2611 4.09413 17.1604 3.85084 16.9809 3.67146C16.8016 3.49208 16.5582 3.3913 16.3046 3.3913Z" fill="#FFBFC5"/>
<path d="M17.2611 15.3478L14.3915 12.4783L11.522 15.3478V4.34782C11.522 4.09413 11.6228 3.85084 11.8021 3.67146C11.9815 3.49208 12.2248 3.3913 12.4785 3.3913H16.3046C16.5582 3.3913 16.8016 3.49208 16.9809 3.67146C17.1604 3.85084 17.2611 4.09413 17.2611 4.34782V15.3478Z" stroke="#191919" stroke-linecap="round" stroke-linejoin="round"/>
<path d="M17.2609 4.82613H19.174C19.4276 4.82613 19.671 4.92691 19.8503 5.10628C20.0297 5.28567 20.1305 5.52896 20.1305 5.78265V22.0435C20.1305 22.2971 20.0297 22.5405 19.8503 22.7198C19.671 22.8992 19.4276 23 19.174 23H5.78267C5.2753 23 4.78871 22.7985 4.42995 22.4397C4.07119 22.0809 3.86963 21.5943 3.86963 21.087V2.91309" stroke="#191919" stroke-linecap="round" stroke-linejoin="round"/>
<path d="M19.174 4.82608V1.95652C19.174 1.70283 19.0732 1.45954 18.8938 1.28016C18.7145 1.10078 18.4711 1 18.2175 1H5.78267C5.2753 1 4.78871 1.20155 4.42995 1.56032C4.07119 1.91908 3.86963 2.40567 3.86963 2.91304C3.86963 3.42041 4.07119 3.907 4.42995 4.26576C4.78871 4.62454 5.2753 4.82608 5.78267 4.82608H9.1305" stroke="#191919" stroke-linecap="round" stroke-linejoin="round"/>
</svg>
