<svg width="24" height="24" viewBox="0 0 24 24" fill="none" xmlns="http://www.w3.org/2000/svg">
<g clip-path="url(#clip0_5303_5225)">
<path d="M12 6.03774C12 4.21875 16.556 2.72473 21.968 2.55373C22.102 2.54944 22.2355 2.57213 22.3605 2.62046C22.4856 2.66879 22.5996 2.74178 22.6959 2.83507C22.7922 2.92836 22.8687 3.04006 22.9209 3.16351C22.9732 3.28697 23.0001 3.41967 23 3.55373V18.0537C23.0001 18.3138 22.8989 18.5637 22.7178 18.7504C22.5367 18.9371 22.29 19.0459 22.03 19.0537C16.591 19.2167 12 20.7147 12 22.5377C12 20.7117 7.409 19.2137 1.97 19.0517C1.71002 19.0439 1.4633 18.9351 1.28221 18.7484C1.10111 18.5617 0.999883 18.3118 1 18.0517V3.55674C0.999931 3.42268 1.02682 3.28998 1.07906 3.16652C1.13131 3.04307 1.20784 2.93135 1.30412 2.83806C1.40039 2.74477 1.51444 2.6718 1.63948 2.62347C1.76453 2.57514 1.89801 2.55245 2.032 2.55674C7.443 2.72774 12 4.22175 12 6.03774Z" fill="white"/>
<path d="M12.0005 6.16577V22.5378" stroke="#191919" stroke-linecap="round" stroke-linejoin="round"/>
<path d="M9.50049 8.16572C7.4035 7.44657 5.21496 7.02906 3.00049 6.92572" stroke="#191919" stroke-linecap="round" stroke-linejoin="round"/>
<path d="M9.50049 12.4257C7.4035 11.7066 5.21496 11.289 3.00049 11.1857" stroke="#191919" stroke-linecap="round" stroke-linejoin="round"/>
<path d="M9.50049 16.6657C7.4035 15.9466 5.21496 15.529 3.00049 15.4257" stroke="#191919" stroke-linecap="round" stroke-linejoin="round"/>
<path d="M14.5 12.4257C16.5971 11.707 18.7856 11.2895 21 11.1857" stroke="#191919" stroke-linecap="round" stroke-linejoin="round"/>
<path d="M14.5 16.6657C16.5971 15.947 18.7856 15.5295 21 15.4257" stroke="#191919" stroke-linecap="round" stroke-linejoin="round"/>
<path d="M16 2.38872C15.9999 2.27759 16.0368 2.16958 16.1048 2.08175C16.1729 1.99392 16.2683 1.93128 16.376 1.90372C17.3839 1.64677 18.4078 1.45768 19.441 1.33772C19.5114 1.32935 19.5829 1.33606 19.6505 1.35741C19.7182 1.37876 19.7805 1.41426 19.8334 1.46155C19.8862 1.50884 19.9284 1.56684 19.9572 1.6317C19.9859 1.69656 20.0005 1.76679 20 1.83772V9.16572L18 7.16572L16 9.16572V2.38872Z" fill="#FF808C"/>
<path d="M16 3.98773C15.9999 3.8766 16.0367 3.76859 16.1048 3.68076C16.1729 3.59293 16.2683 3.53029 16.376 3.50273C17.3839 3.24611 18.4079 3.05735 19.441 2.93773C19.5114 2.92935 19.5829 2.93607 19.6505 2.95742C19.7181 2.97877 19.7805 3.01427 19.8333 3.06156C19.8862 3.10885 19.9284 3.16685 19.9572 3.23171C19.9859 3.29656 20.0005 3.36679 20 3.43773V1.83773C20.0005 1.76689 19.9859 1.69675 19.9572 1.63198C19.9285 1.5672 19.8864 1.50925 19.8337 1.46197C19.7809 1.4147 19.7187 1.37917 19.6512 1.35775C19.5837 1.33633 19.5124 1.32951 19.442 1.33773C18.4089 1.4567 17.3849 1.64478 16.377 1.90073C16.2687 1.92822 16.1726 1.99123 16.1043 2.07969C16.036 2.16814 15.9992 2.27695 16 2.38873V3.98773Z" fill="#FFBFC5"/>
<path d="M16 2.38872C15.9999 2.27759 16.0368 2.16958 16.1048 2.08175C16.1729 1.99392 16.2683 1.93128 16.376 1.90372C17.3839 1.64677 18.4078 1.45768 19.441 1.33772C19.5114 1.32935 19.5829 1.33606 19.6505 1.35741C19.7182 1.37876 19.7805 1.41426 19.8334 1.46155C19.8862 1.50884 19.9284 1.56684 19.9572 1.6317C19.9859 1.69656 20.0005 1.76679 20 1.83772V9.16572L18 7.16572L16 9.16572V2.38872Z" stroke="#191919" stroke-linecap="round" stroke-linejoin="round"/>
<path d="M20 2.80173C20.638 2.74173 21.3 2.70173 21.967 2.67873C22.101 2.67444 22.2345 2.69713 22.3595 2.74546C22.4846 2.79379 22.5986 2.86677 22.6949 2.96006C22.7912 3.05335 22.8677 3.16506 22.9199 3.28851C22.9722 3.41197 22.9991 3.54467 22.999 3.67873V18.1788C22.9991 18.4389 22.8979 18.6888 22.7168 18.8755C22.5357 19.0622 22.289 19.171 22.029 19.1788C16.591 19.3378 12 20.8378 12 22.6658C12 20.8378 7.409 19.3378 1.97 19.1798C1.71002 19.172 1.4633 19.0632 1.28221 18.8765C1.10111 18.6898 0.999883 18.4399 1 18.1798V3.68173C0.999931 3.54767 1.02682 3.41497 1.07906 3.29151C1.13131 3.16806 1.20784 3.05635 1.30412 2.96306C1.40039 2.86977 1.51444 2.79679 1.63948 2.74846C1.76453 2.70013 1.89801 2.67744 2.032 2.68173C7.443 2.85273 12 4.34674 12 6.16574C12 5.45473 12.7 4.79373 13.867 4.24173" stroke="#191919" stroke-linecap="round" stroke-linejoin="round"/>
</g>
<defs>
<clipPath id="clip0_5303_5225">
<rect width="24" height="24" fill="white"/>
</clipPath>
</defs>
</svg>
