<svg width="24" height="24" viewBox="0 0 24 24" fill="none" xmlns="http://www.w3.org/2000/svg">
<path d="M19.1744 4.82608H3.87007C3.36271 4.82608 2.87611 4.62453 2.51735 4.26576C2.15859 3.907 1.95703 3.42041 1.95703 2.91304C1.95703 2.40567 2.15859 1.91908 2.51735 1.56032C2.87611 1.20155 3.36271 1 3.87007 1H19.1744V4.82608Z" fill="white"/>
<path d="M20.1309 5.78265V22.0435C20.1309 22.2971 20.0301 22.5405 19.8508 22.7198C19.6714 22.8992 19.4281 23 19.1744 23H3.87007C3.36271 23 2.87611 22.7985 2.51735 22.4397C2.15859 22.0809 1.95703 21.5943 1.95703 21.0869V2.91309C1.95703 3.42045 2.15859 3.90704 2.51735 4.26581C2.87611 4.62458 3.36271 4.82613 3.87007 4.82613H19.1744C19.4281 4.82613 19.6714 4.92691 19.8508 5.10628C20.0301 5.28567 20.1309 5.52896 20.1309 5.78265Z" fill="#66E1FF"/>
<path d="M5.22489 21.0869V4.82613H3.86568C3.3583 4.82613 2.87172 4.62458 2.51295 4.26581C2.15419 3.90704 1.95264 3.42045 1.95264 2.91309V21.0869C1.95264 21.5943 2.15419 22.0809 2.51295 22.4397C2.87172 22.7985 3.3583 23 3.86568 23H7.13794C6.63056 23 6.14398 22.7985 5.7852 22.4397C5.42644 22.0809 5.22489 21.5943 5.22489 21.0869Z" fill="#C2F3FF"/>
<path d="M12.0814 23H3.87349C3.36612 23 2.87953 22.7985 2.52077 22.4397C2.16201 22.0809 1.96045 21.5943 1.96045 21.0869V2.91309" stroke="#191919" stroke-linecap="round" stroke-linejoin="round"/>
<path d="M20.1343 1H3.87349C3.36612 1 2.87953 1.20155 2.52077 1.56032C2.16201 1.91908 1.96045 2.40567 1.96045 2.91304C1.96045 3.42041 2.16201 3.907 2.52077 4.26576C2.87953 4.62453 3.36612 4.82608 3.87349 4.82608H19.1778C19.4315 4.82608 19.6748 4.92686 19.8542 5.10624C20.0335 5.28562 20.1343 5.52892 20.1343 5.7826V12.0249" stroke="#191919" stroke-linecap="round" stroke-linejoin="round"/>
<path d="M3.87354 2.91309H19.1779" stroke="#191919" stroke-linecap="round" stroke-linejoin="round"/>
<path d="M15.8584 21.1434C16.7153 21.1434 17.5528 20.8893 18.2652 20.4133C18.9777 19.9373 19.5329 19.2606 19.8608 18.4691C20.1886 17.6775 20.2744 16.8065 20.1073 15.9661C19.9401 15.1258 19.5276 14.3539 18.9217 13.748C18.3158 13.1422 17.5439 12.7296 16.7036 12.5624C15.8632 12.3953 14.9922 12.4811 14.2006 12.809C13.4091 13.1368 12.7324 13.6921 12.2565 14.4045C11.7804 15.1169 11.5264 15.9545 11.5264 16.8113C11.5264 17.9603 11.9828 19.0621 12.7952 19.8745C13.6077 20.6869 14.7095 21.1434 15.8584 21.1434Z" fill="white" stroke="#191919" stroke-linecap="round" stroke-linejoin="round"/>
<path d="M22.0472 23L18.9424 19.8942" stroke="#191919" stroke-linecap="round" stroke-linejoin="round"/>
<path d="M15.8584 21.1434C16.7153 21.1434 17.5528 20.8893 18.2652 20.4133C18.9777 19.9373 19.5329 19.2606 19.8608 18.4691C20.1886 17.6775 20.2744 16.8065 20.1073 15.9661C19.9401 15.1258 19.5276 14.3539 18.9217 13.748C18.3158 13.1422 17.5439 12.7296 16.7036 12.5624C15.8632 12.3953 14.9922 12.4811 14.2006 12.809C13.4091 13.1368 12.7324 13.6921 12.2565 14.4045C11.7804 15.1169 11.5264 15.9545 11.5264 16.8113C11.5264 17.9603 11.9828 19.0621 12.7952 19.8745C13.6077 20.6869 14.7095 21.1434 15.8584 21.1434Z" fill="#E3E3E3"/>
<path d="M15.858 12.4782C14.9997 12.4781 14.1607 12.7331 13.4476 13.2106C12.7344 13.6882 12.1792 14.3669 11.8525 15.1606C11.5257 15.9542 11.4422 16.8272 11.6124 17.6684C11.7826 18.5097 12.199 19.2813 12.8086 19.8855L18.9303 13.7638C18.5289 13.3567 18.0505 13.0335 17.5231 12.8128C16.9957 12.5921 16.4297 12.4784 15.858 12.4782Z" fill="white"/>
<path d="M15.8584 21.1434C16.7153 21.1434 17.5528 20.8893 18.2652 20.4133C18.9777 19.9373 19.5329 19.2606 19.8608 18.4691C20.1886 17.6775 20.2744 16.8065 20.1073 15.9661C19.9401 15.1258 19.5276 14.3539 18.9217 13.748C18.3158 13.1422 17.5439 12.7296 16.7036 12.5624C15.8632 12.3953 14.9922 12.4811 14.2006 12.809C13.4091 13.1368 12.7324 13.6921 12.2565 14.4045C11.7804 15.1169 11.5264 15.9545 11.5264 16.8113C11.5264 17.9603 11.9828 19.0621 12.7952 19.8745C13.6077 20.6869 14.7095 21.1434 15.8584 21.1434Z" stroke="#191919" stroke-linecap="round" stroke-linejoin="round"/>
<path d="M22.0472 23L18.9424 19.8923" stroke="#191919" stroke-linecap="round" stroke-linejoin="round"/>
</svg>
