<svg width="24" height="24" viewBox="0 0 24 24" fill="none" xmlns="http://www.w3.org/2000/svg">
<g clip-path="url(#clip0_5303_11685)">
<path d="M15.502 22.9991C19.5519 22.9991 22.835 19.716 22.835 15.6661C22.835 11.6162 19.5519 8.33301 15.502 8.33301C11.4521 8.33301 8.16895 11.6162 8.16895 15.6661C8.16895 19.716 11.4521 22.9991 15.502 22.9991Z" fill="#D480FF"/>
<path d="M10.5332 17.866C10.5331 16.5764 10.8731 15.3096 11.5188 14.1934C12.1646 13.0771 13.0932 12.1509 14.2112 11.5081C15.3291 10.8653 16.5969 10.5287 17.8864 10.5323C19.176 10.5358 20.4418 10.8794 21.5562 11.5283C20.9354 10.6202 20.1181 9.86347 19.1651 9.31411C18.212 8.76475 17.1475 8.43686 16.0506 8.35471C14.9537 8.27256 13.8522 8.43826 12.828 8.83954C11.8038 9.24082 10.8829 9.8674 10.1337 10.6729C9.38446 11.4784 8.82605 12.442 8.49981 13.4926C8.17358 14.5432 8.08788 15.6536 8.24907 16.7418C8.41025 17.83 8.8142 18.8679 9.43097 19.7788C10.0478 20.6897 10.8615 21.4501 11.8121 22.0038C10.977 20.7857 10.5311 19.3429 10.5332 17.866Z" fill="#EABFFF"/>
<path d="M7.58512 22.6863C7.49351 22.785 7.38247 22.8638 7.25897 22.9177C7.13547 22.9715 7.00218 22.9993 6.86745 22.9992H4.58248C4.44792 22.9992 4.31482 22.9713 4.1915 22.9175C4.06817 22.8636 3.9573 22.7849 3.86579 22.6863C-1.00335 17.4319 1.84969 12.6703 3.64678 9.50243C3.91732 8.68279 3.91389 7.79738 3.637 6.97986C3.2987 5.11726 2.79223 1 5.72545 1C8.65867 1 8.15612 5.11335 7.81293 6.97301C7.53534 7.79315 7.53225 8.68136 7.80413 9.50341C9.60024 12.6703 12.4562 17.4319 7.58512 22.6863Z" fill="#E3E3E3"/>
<path d="M5.64416 1.00195C2.80089 1.07724 3.29759 5.13486 3.63588 6.97985C3.91277 7.79738 3.9162 8.68278 3.64566 9.50242C1.84857 12.6703 -1.00643 17.4319 3.86467 22.6863C3.95618 22.7849 4.06706 22.8637 4.19038 22.9174C4.3137 22.9713 4.4468 22.9991 4.58136 22.9992H5.64416V1.00195Z" fill="white"/>
<path d="M7.58512 22.6863C7.49351 22.785 7.38247 22.8638 7.25897 22.9177C7.13547 22.9715 7.00218 22.9993 6.86745 22.9992H4.58248C4.44792 22.9992 4.31482 22.9713 4.1915 22.9175C4.06817 22.8636 3.9573 22.7849 3.86579 22.6863C-1.00335 17.4319 1.84969 12.6703 3.64678 9.50243C3.91732 8.68279 3.91389 7.79738 3.637 6.97986C3.2987 5.11726 2.79223 1 5.72545 1C8.65867 1 8.15612 5.11335 7.81293 6.97301C7.53534 7.79315 7.53225 8.68136 7.80413 9.50341C9.60024 12.6703 12.4562 17.4319 7.58512 22.6863Z" stroke="#191919" stroke-linecap="round" stroke-linejoin="round"/>
<path d="M7.81277 6.97301C7.84601 6.79408 7.88023 6.59364 7.91054 6.37756H3.53613C3.5684 6.5956 3.6036 6.79897 3.63391 6.97985C3.86491 7.73575 3.89856 8.53819 3.73168 9.31078H7.71402C7.54657 8.5359 7.58057 7.73102 7.81277 6.97301Z" fill="#FF808C" stroke="#191919" stroke-linecap="round" stroke-linejoin="round"/>
<path d="M10.5889 10.2238C11.6207 9.29236 12.896 8.67329 14.2663 8.43888C15.6365 8.20446 17.0452 8.36435 18.3281 8.89993C19.6109 9.4355 20.715 10.3246 21.5118 11.4638C22.3086 12.6029 22.7653 13.945 22.8283 15.3338C22.8915 16.7225 22.5587 18.1005 21.8685 19.3072C21.1784 20.514 20.1595 21.4997 18.9306 22.1495C17.7016 22.7993 16.3133 23.0864 14.9275 22.9773C13.5415 22.8683 12.2152 22.3675 11.1032 21.5334" stroke="#191919" stroke-linecap="round" stroke-linejoin="round"/>
<path d="M14.5236 12.7328C15.0636 12.7328 15.5014 12.2951 15.5014 11.755C15.5014 11.215 15.0636 10.7773 14.5236 10.7773C13.9836 10.7773 13.5459 11.215 13.5459 11.755C13.5459 12.2951 13.9836 12.7328 14.5236 12.7328Z" fill="#808080" stroke="#191919" stroke-linecap="round" stroke-linejoin="round"/>
<path d="M18.4348 13.7106C18.9748 13.7106 19.4125 13.2729 19.4125 12.7329C19.4125 12.1929 18.9748 11.7551 18.4348 11.7551C17.8948 11.7551 17.457 12.1929 17.457 12.7329C17.457 13.2729 17.8948 13.7106 18.4348 13.7106Z" fill="#808080" stroke="#191919" stroke-linecap="round" stroke-linejoin="round"/>
<path d="M15.5022 16.6438C16.0422 16.6438 16.4799 16.2061 16.4799 15.6661C16.4799 15.1261 16.0422 14.6884 15.5022 14.6884C14.9621 14.6884 14.5244 15.1261 14.5244 15.6661C14.5244 16.2061 14.9621 16.6438 15.5022 16.6438Z" fill="#808080" stroke="#191919" stroke-linecap="round" stroke-linejoin="round"/>
</g>
<defs>
<clipPath id="clip0_5303_11685">
<rect width="24" height="24" fill="white"/>
</clipPath>
</defs>
</svg>
