<svg width="24" height="24" viewBox="0 0 24 24" fill="none" xmlns="http://www.w3.org/2000/svg">
<g clip-path="url(#clip0_5303_11788)">
<path d="M15.8265 6.73914H8.1743C7.92061 6.73914 7.67731 6.83991 7.49793 7.01929C7.31855 7.19868 7.21777 7.44197 7.21777 7.69566V22.0435C7.21777 22.2972 7.31855 22.5405 7.49793 22.7198C7.67731 22.8992 7.92061 23 8.1743 23H15.8265C16.0802 23 16.3234 22.8992 16.5028 22.7198C16.6822 22.5405 16.783 22.2972 16.783 22.0435V7.69566C16.783 7.44197 16.6822 7.19868 16.5028 7.01929C16.3234 6.83991 16.0802 6.73914 15.8265 6.73914Z" fill="#FF808C"/>
<path d="M12.0004 6.73914H8.1743C7.92061 6.73914 7.67731 6.83991 7.49793 7.01929C7.31855 7.19868 7.21777 7.44197 7.21777 7.69566V22.0435C7.21777 22.2972 7.31855 22.5405 7.49793 22.7198C7.67731 22.8992 7.92061 23 8.1743 23H12.0004V6.73914Z" fill="#FFBFC5"/>
<path d="M16.783 9.60864H7.21777V20.1303H16.783V9.60864Z" fill="#FFEF5E"/>
<path d="M12.0004 9.60864H7.21777V20.1303H12.0004V9.60864Z" fill="#FFF9BF"/>
<path d="M15.8265 6.73914H8.1743C7.92061 6.73914 7.67731 6.83991 7.49793 7.01929C7.31855 7.19868 7.21777 7.44197 7.21777 7.69566V22.0435C7.21777 22.2972 7.31855 22.5405 7.49793 22.7198C7.67731 22.8992 7.92061 23 8.1743 23H15.8265C16.0802 23 16.3234 22.8992 16.5028 22.7198C16.6822 22.5405 16.783 22.2972 16.783 22.0435V7.69566C16.783 7.44197 16.6822 7.19868 16.5028 7.01929C16.3234 6.83991 16.0802 6.73914 15.8265 6.73914Z" stroke="#191919" stroke-linecap="round" stroke-linejoin="round"/>
<path d="M12 1V6.73913" stroke="#191919" stroke-linecap="round" stroke-linejoin="round"/>
<path d="M8.17383 6.73917L11.9999 2.91309" stroke="#191919" stroke-linecap="round" stroke-linejoin="round"/>
<path d="M12 2.91309L15.8261 6.73917" stroke="#191919" stroke-linecap="round" stroke-linejoin="round"/>
<path d="M10.0869 1H13.913" stroke="#191919" stroke-linecap="round" stroke-linejoin="round"/>
<path d="M7.21777 9.60864H16.783" stroke="#191919" stroke-linecap="round" stroke-linejoin="round"/>
<path d="M7.21777 20.1304H16.783" stroke="#191919" stroke-linecap="round" stroke-linejoin="round"/>
</g>
<defs>
<clipPath id="clip0_5303_11788">
<rect width="24" height="24" fill="white"/>
</clipPath>
</defs>
</svg>
