<svg width="24" height="24" viewBox="0 0 24 24" fill="none" xmlns="http://www.w3.org/2000/svg">
<g clip-path="url(#clip0_5303_11696)">
<path d="M2.50098 6.35158C2.50143 5.59693 2.71499 4.85776 3.11708 4.21915C3.51917 3.58055 4.09343 3.06849 4.77376 2.74192C7.0129 1.59951 9.49085 1.00391 12.0046 1.00391C14.5183 1.00391 16.9963 1.59951 19.2354 2.74192C19.913 3.06915 20.4848 3.58065 20.8851 4.21782C21.2856 4.85499 21.4984 5.59206 21.4992 6.34458V17.0006C21.4992 18.5917 20.8671 20.1177 19.7419 21.2428C18.6168 22.3679 17.0909 23 15.4997 23H8.5004C6.90926 23 5.38328 22.3679 4.25817 21.2428C3.13306 20.1177 2.50098 18.5917 2.50098 17.0006V6.35158Z" fill="#FF808C"/>
<path d="M19.2354 2.73802C16.9961 1.59561 14.5179 1 12.0041 1C9.49019 1 7.01207 1.59561 4.77276 2.73802C4.09209 3.06512 3.51768 3.57789 3.11575 4.21724C2.71381 4.85659 2.5007 5.59649 2.50098 6.35168V10.3513C2.50146 9.59679 2.71492 8.85774 3.11681 8.21917C3.5187 7.58059 4.0927 7.06845 4.77276 6.74164C7.01207 5.59923 9.49019 5.00362 12.0041 5.00362C14.5179 5.00362 16.9961 5.59923 19.2354 6.74164C19.913 7.06888 20.4848 7.58038 20.8851 8.21755C21.2856 8.85472 21.4984 9.59178 21.4992 10.3443V6.34468C21.4991 5.59148 21.2867 4.85357 20.8862 4.21562C20.4858 3.57767 19.9136 3.06555 19.2354 2.73802Z" fill="#FFBFC5"/>
<path d="M2.50098 6.35158C2.50143 5.59693 2.71499 4.85776 3.11708 4.21915C3.51917 3.58055 4.09343 3.06849 4.77376 2.74192C7.0129 1.59951 9.49085 1.00391 12.0046 1.00391C14.5183 1.00391 16.9963 1.59951 19.2354 2.74192C19.913 3.06915 20.4848 3.58065 20.8851 4.21782C21.2856 4.85499 21.4984 5.59206 21.4992 6.34458V17.0006C21.4992 18.5917 20.8671 20.1177 19.7419 21.2428C18.6168 22.3679 17.0909 23 15.4997 23H8.5004C6.90926 23 5.38328 22.3679 4.25817 21.2428C3.13306 20.1177 2.50098 18.5917 2.50098 17.0006V6.35158Z" stroke="#191919" stroke-linecap="round" stroke-linejoin="round"/>
<path d="M5.50098 9.50143C5.50098 9.36883 5.55365 9.24166 5.64741 9.14791C5.74117 9.05415 5.86833 9.00146 6.00093 9.00146H17.9998C18.1324 9.00146 18.2596 9.05415 18.3534 9.14791C18.447 9.24166 18.4997 9.36883 18.4997 9.50143V10.6833C18.4995 11.2539 18.3765 11.8178 18.1389 12.3366C17.9013 12.8555 17.5547 13.317 17.1229 13.69C13.5432 16.7787 16.9899 17.8766 17.9898 18.6385C18.0486 18.7899 18.0696 18.9534 18.0511 19.1148C18.0325 19.2762 17.9749 19.4306 17.8832 19.5647C17.7915 19.6988 17.6685 19.8086 17.5249 19.8845C17.3812 19.9604 17.2214 20.0002 17.0589 20.0004H6.95884C6.7965 20.0005 6.63659 19.9611 6.49289 19.8855C6.34921 19.81 6.22607 19.7006 6.13413 19.5668C6.04218 19.433 5.98419 19.2789 5.96516 19.1177C5.94613 18.9565 5.96665 18.793 6.02493 18.6415C7.02483 17.8716 10.4605 16.7727 6.88085 13.704C6.44788 13.3333 6.10033 12.8732 5.86213 12.3554C5.62393 11.8376 5.50072 11.2742 5.50098 10.7043V9.50143Z" fill="#FFDDA1"/>
<path d="M18.4867 11.0012C18.4957 10.8963 18.4997 10.7893 18.4997 10.6833V9.50143C18.4997 9.36883 18.447 9.24166 18.3534 9.14791C18.2596 9.05415 18.1324 9.00146 17.9998 9.00146H6.00093C5.86833 9.00146 5.74116 9.05415 5.64741 9.14791C5.55365 9.24166 5.50098 9.36883 5.50098 9.50143V10.7013C5.50098 10.8013 5.50098 10.9013 5.51198 11.0012H18.4867Z" fill="#FFBC44"/>
<path d="M5.50098 9.50143C5.50098 9.36883 5.55365 9.24166 5.64741 9.14791C5.74117 9.05415 5.86833 9.00146 6.00093 9.00146H17.9998C18.1324 9.00146 18.2596 9.05415 18.3534 9.14791C18.447 9.24166 18.4997 9.36883 18.4997 9.50143V10.6833C18.4995 11.2539 18.3765 11.8178 18.1389 12.3366C17.9013 12.8555 17.5547 13.317 17.1229 13.69C13.5432 16.7787 16.9899 17.8766 17.9898 18.6385C18.0486 18.7899 18.0696 18.9534 18.0511 19.1148C18.0325 19.2762 17.9749 19.4306 17.8832 19.5647C17.7915 19.6988 17.6685 19.8086 17.5249 19.8845C17.3812 19.9604 17.2214 20.0002 17.0589 20.0004H6.95884C6.7965 20.0005 6.63659 19.9611 6.49289 19.8855C6.34921 19.81 6.22607 19.7006 6.13413 19.5668C6.04218 19.433 5.98419 19.2789 5.96516 19.1177C5.94613 18.9565 5.96665 18.793 6.02493 18.6415C7.02483 17.8716 10.4605 16.7727 6.88085 13.704C6.44788 13.3333 6.10033 12.8732 5.86213 12.3554C5.62393 11.8376 5.50072 11.2742 5.50098 10.7043V9.50143Z" stroke="#191919" stroke-linecap="round" stroke-linejoin="round"/>
<path d="M16.0002 4.00195H8.00093C7.72482 4.00195 7.50098 4.22579 7.50098 4.50191V6.50171C7.50098 6.77783 7.72482 7.00167 8.00093 7.00167H16.0002C16.2762 7.00167 16.5001 6.77783 16.5001 6.50171V4.50191C16.5001 4.22579 16.2762 4.00195 16.0002 4.00195Z" fill="white" stroke="#191919" stroke-linecap="round" stroke-linejoin="round"/>
<path d="M9.5 11.0013V13.0011" stroke="#191919" stroke-linecap="round" stroke-linejoin="round"/>
<path d="M14.5 11.0013V13.0011" stroke="#191919" stroke-linecap="round" stroke-linejoin="round"/>
<path d="M10.5 17.0007H13.4997" stroke="#191919" stroke-linecap="round" stroke-linejoin="round"/>
</g>
<defs>
<clipPath id="clip0_5303_11696">
<rect width="24" height="24" fill="white"/>
</clipPath>
</defs>
</svg>
