<svg width="24" height="24" viewBox="0 0 24 24" fill="none" xmlns="http://www.w3.org/2000/svg">
<g clip-path="url(#clip0_5303_11479)">
<path d="M11.522 4.82629H19.1738C20.1886 4.82629 21.1617 5.22939 21.8792 5.94688C22.5967 6.66439 22.9998 7.63753 22.9998 8.65223C22.9998 9.66694 22.5967 10.6401 21.8792 11.3576C21.1617 12.0751 20.1886 12.4782 19.1738 12.4782L19.9773 18.0832C19.9984 18.2191 19.9897 18.3579 19.9517 18.4901C19.9137 18.6221 19.8472 18.7445 19.7571 18.8483C19.6669 18.9521 19.5552 19.035 19.4296 19.0912C19.3041 19.1474 19.1679 19.1755 19.0304 19.1736H12.4785L11.522 12.4782V4.82629Z" fill="#C77F67"/>
<path d="M11.5223 12.4782L12.4788 19.1736H4.02347C3.88596 19.1755 3.7497 19.1474 3.62419 19.0912C3.49868 19.035 3.38695 18.9521 3.29678 18.8483C3.20661 18.7445 3.14019 18.6221 3.10215 18.4901C3.06411 18.3579 3.05538 18.2191 3.07655 18.0832L3.87043 12.4782C1.7566 12.4782 1.00098 10.7661 1.00098 8.65223C1.00098 7.63753 1.40406 6.66439 2.12157 5.94688C2.83907 5.22939 3.81221 4.82629 4.82691 4.82629H11.5223C12.537 4.82629 13.5102 5.22939 14.2276 5.94688C14.9452 6.66439 15.3482 7.63753 15.3482 8.65223C15.3482 9.66694 14.9452 10.6401 14.2276 11.3576C13.5102 12.0751 12.537 12.4782 11.5223 12.4782Z" fill="#FFDDA1"/>
<path d="M22.9998 8.65223C23.0036 9.1451 22.9059 9.63346 22.7128 10.087C22.4299 9.38003 21.9414 8.77424 21.3105 8.34795C20.6796 7.92165 19.9353 7.69446 19.1738 7.69575H11.7133L11.522 4.82629H19.1738C20.1886 4.82629 21.1617 5.22939 21.8792 5.94688C22.5967 6.66439 22.9998 7.63753 22.9998 8.65223Z" fill="#E3BFB3"/>
<path d="M15.2238 7.69575H11.7135V7.7053C11.6501 7.69735 11.5861 7.69416 11.5222 7.69575H4.82678C4.02348 7.69499 3.24048 7.94798 2.58949 8.41862C1.9385 8.88925 1.4528 9.55347 1.2017 10.3165C1.05916 9.7735 0.991576 9.21356 1.00084 8.65223C1.00084 7.63754 1.40393 6.66438 2.12143 5.94687C2.83893 5.22938 3.81207 4.8263 4.82678 4.8263H11.5222C12.3702 4.82562 13.1944 5.10726 13.8646 5.62683C14.5348 6.1464 15.0131 6.87431 15.2238 7.69575Z" fill="#FFF9BF"/>
<path d="M11.522 4.82629H19.1738C20.1886 4.82629 21.1617 5.22939 21.8792 5.94688C22.5967 6.66439 22.9998 7.63753 22.9998 8.65223C22.9998 9.66694 22.5967 10.6401 21.8792 11.3576C21.1617 12.0751 20.1886 12.4782 19.1738 12.4782L19.9773 18.0832C19.9984 18.2191 19.9897 18.3579 19.9517 18.4901C19.9137 18.6221 19.8472 18.7445 19.7571 18.8483C19.6669 18.9521 19.5552 19.035 19.4296 19.0912C19.3041 19.1474 19.1679 19.1755 19.0304 19.1736H12.4785" stroke="#191919" stroke-linecap="round" stroke-linejoin="round"/>
<path d="M11.5223 12.4782L12.4788 19.1736H4.02347C3.88596 19.1755 3.7497 19.1474 3.62419 19.0912C3.49868 19.035 3.38695 18.9521 3.29678 18.8483C3.20661 18.7445 3.14019 18.6221 3.10215 18.4901C3.06411 18.3579 3.05538 18.2191 3.07655 18.0832L3.87043 12.4782C1.7566 12.4782 1.00098 10.7661 1.00098 8.65223C1.00098 7.63753 1.40406 6.66439 2.12157 5.94688C2.83907 5.22939 3.81221 4.82629 4.82691 4.82629H11.5223C12.537 4.82629 13.5102 5.22939 14.2276 5.94688C14.9452 6.66439 15.3482 7.63753 15.3482 8.65223C15.3482 9.66694 14.9452 10.6401 14.2276 11.3576C13.5102 12.0751 12.537 12.4782 11.5223 12.4782Z" stroke="#191919" stroke-linecap="round" stroke-linejoin="round"/>
<path d="M16.3047 12.4781H19.1741" stroke="#191919" stroke-linecap="round" stroke-linejoin="round"/>
</g>
<defs>
<clipPath id="clip0_5303_11479">
<rect width="24" height="24" fill="white"/>
</clipPath>
</defs>
</svg>
