<svg width="24" height="24" viewBox="0 0 24 24" fill="none" xmlns="http://www.w3.org/2000/svg">
<path d="M12.0002 15.6676C14.0252 15.6676 15.6668 14.0259 15.6668 12.0009C15.6668 9.97585 14.0252 8.33423 12.0002 8.33423C9.97512 8.33423 8.3335 9.97585 8.3335 12.0009C8.3335 14.0259 9.97512 15.6676 12.0002 15.6676Z" fill="#FFEF5E"/>
<path d="M9.40762 14.5933C8.73263 13.9031 8.35704 12.9746 8.36236 12.0093C8.36768 11.0439 8.75347 10.1196 9.43602 9.43697C10.1186 8.7543 11.0428 8.36833 12.0081 8.36285C12.9735 8.35736 13.902 8.73279 14.5923 9.40765L9.40762 14.5933Z" fill="#FFF9BF"/>
<path d="M12.0002 15.6676C14.0252 15.6676 15.6668 14.0259 15.6668 12.0009C15.6668 9.97585 14.0252 8.33423 12.0002 8.33423C9.97512 8.33423 8.3335 9.97585 8.3335 12.0009C8.3335 14.0259 9.97512 15.6676 12.0002 15.6676Z" stroke="#191919" stroke-linecap="round" stroke-linejoin="round"/>
<path d="M12 1.45923V5.1259" stroke="#191919" stroke-linecap="round" stroke-linejoin="round"/>
<path d="M12 18.876V22.5426" stroke="#191919" stroke-linecap="round" stroke-linejoin="round"/>
<path d="M4.5459 4.54663L7.13915 7.13896" stroke="#191919" stroke-linecap="round" stroke-linejoin="round"/>
<path d="M16.8613 16.8621L19.4546 19.4553" stroke="#191919" stroke-linecap="round" stroke-linejoin="round"/>
<path d="M1.4585 12.001H5.12516" stroke="#191919" stroke-linecap="round" stroke-linejoin="round"/>
<path d="M18.875 12.001H22.5417" stroke="#191919" stroke-linecap="round" stroke-linejoin="round"/>
<path d="M4.5459 19.4553L7.13915 16.8621" stroke="#191919" stroke-linecap="round" stroke-linejoin="round"/>
<path d="M16.8613 7.13896L19.4546 4.54663" stroke="#191919" stroke-linecap="round" stroke-linejoin="round"/>
</svg>
