<svg width="24" height="24" viewBox="0 0 24 24" fill="none" xmlns="http://www.w3.org/2000/svg">
<g clip-path="url(#clip0_5303_4149)">
<path d="M23 7.21741V19.6522C23 20.1595 22.7984 20.6461 22.4397 21.0049C22.0809 21.3637 21.5943 21.5652 21.087 21.5652H2.91304C2.66182 21.5652 2.41305 21.5157 2.18095 21.4196C1.94885 21.3234 1.73796 21.1825 1.56032 21.0049C1.20155 20.6461 1 20.1595 1 19.6522V7.21741H23Z" fill="#66E1FF"/>
<path d="M5.30435 21.5652L19.6522 7.21741H1V19.6522C1 20.1595 1.20155 20.6461 1.56032 21.0049C1.91908 21.3637 2.40567 21.5652 2.91304 21.5652H5.30435Z" fill="#C2F3FF"/>
<path d="M23 7.21736H1V4.3478C1 3.84043 1.20155 3.35384 1.56032 2.99507C1.91908 2.63631 2.40567 2.43475 2.91304 2.43475H21.087C21.5943 2.43475 22.0809 2.63631 22.4397 2.99507C22.7984 3.35384 23 3.84043 23 4.3478V7.21736Z" fill="white"/>
<path d="M21.087 2.43475H2.91304C2.66182 2.43475 2.41305 2.48424 2.18095 2.58038C1.94885 2.67652 1.73796 2.81743 1.56032 2.99507C1.20155 3.35384 1 3.84043 1 4.3478V19.6522C1 20.1595 1.20155 20.6461 1.56032 21.0049C1.73796 21.1825 1.94885 21.3235 2.18095 21.4196C2.41305 21.5157 2.66182 21.5652 2.91304 21.5652H21.087C21.5943 21.5652 22.0809 21.3637 22.4397 21.0049C22.7984 20.6461 23 20.1595 23 19.6522V4.3478C23 3.84043 22.7984 3.35384 22.4397 2.99507C22.0809 2.63631 21.5943 2.43475 21.087 2.43475Z" stroke="#191919" stroke-linecap="round" stroke-linejoin="round"/>
<path d="M1 7.21741H23" stroke="#191919" stroke-linecap="round" stroke-linejoin="round"/>
<path d="M4.34753 5.06518C4.28411 5.06518 4.22328 5.03998 4.17844 4.99514C4.13359 4.95029 4.1084 4.88947 4.1084 4.82605C4.1084 4.76262 4.13359 4.7018 4.17844 4.65695C4.22328 4.61211 4.28411 4.58691 4.34753 4.58691" stroke="#191919"/>
<path d="M4.34766 5.06518C4.41108 5.06518 4.4719 5.03998 4.51675 4.99514C4.56159 4.95029 4.58679 4.88947 4.58679 4.82605C4.58679 4.76262 4.56159 4.7018 4.51675 4.65695C4.4719 4.61211 4.41108 4.58691 4.34766 4.58691" stroke="#191919"/>
<path d="M10.087 11.0435H4.34789C4.22105 11.0435 4.0994 11.0939 4.00971 11.1836C3.92002 11.2733 3.86963 11.3949 3.86963 11.5217V17.2609C3.86963 17.3877 3.92002 17.5094 4.00971 17.5991C4.0994 17.6888 4.22105 17.7391 4.34789 17.7391H10.087C10.2139 17.7391 10.3355 17.6888 10.4252 17.5991C10.5149 17.5094 10.5653 17.3877 10.5653 17.2609V11.5217C10.5653 11.3949 10.5149 11.2733 10.4252 11.1836C10.3355 11.0939 10.2139 11.0435 10.087 11.0435Z" fill="#FFF9BF"/>
<path d="M3.99512 17.5842L7.29512 13.518C7.34357 13.4583 7.40569 13.4112 7.47622 13.3806C7.54675 13.35 7.62361 13.3369 7.70029 13.3424C7.77697 13.3478 7.85121 13.3716 7.91672 13.4119C7.98222 13.4521 8.03706 13.5075 8.0766 13.5735L10.4593 17.5612" fill="#FFBFC5"/>
<path d="M3.99512 17.5842L7.29512 13.518C7.34357 13.4583 7.40569 13.4112 7.47622 13.3806C7.54675 13.35 7.62361 13.3369 7.70029 13.3424C7.77697 13.3478 7.85121 13.3716 7.91672 13.4119C7.98222 13.4521 8.03706 13.5075 8.0766 13.5735L10.4593 17.5612" stroke="#191919" stroke-linecap="round" stroke-linejoin="round"/>
<path d="M19.652 11.0435H13.9128C13.786 11.0435 13.6643 11.0939 13.5746 11.1836C13.485 11.2733 13.4346 11.3949 13.4346 11.5217V17.2609C13.4346 17.3877 13.485 17.5094 13.5746 17.5991C13.6643 17.6888 13.786 17.7391 13.9128 17.7391H19.652C19.7788 17.7391 19.9005 17.6888 19.9901 17.5991C20.0798 17.5094 20.1302 17.3877 20.1302 17.2609V11.5217C20.1302 11.3949 20.0798 11.2733 19.9901 11.1836C19.9005 11.0939 19.7788 11.0435 19.652 11.0435Z" fill="#FFEF5E"/>
<path d="M13.5601 17.5842L16.8601 13.518C16.9085 13.4583 16.9706 13.4112 17.0412 13.3806C17.1117 13.35 17.1886 13.3369 17.2652 13.3424C17.3419 13.3478 17.4162 13.3716 17.4817 13.4119C17.5472 13.4521 17.602 13.5075 17.6415 13.5735L20.0242 17.5612" fill="#FF808C"/>
<path d="M13.5601 17.5842L16.8601 13.518C16.9085 13.4583 16.9706 13.4112 17.0412 13.3806C17.1117 13.35 17.1886 13.3369 17.2652 13.3424C17.3419 13.3478 17.4162 13.3716 17.4817 13.4119C17.5472 13.4521 17.602 13.5075 17.6415 13.5735L20.0242 17.5612" stroke="#191919" stroke-linecap="round" stroke-linejoin="round"/>
<path d="M19.652 11.0435H13.9128C13.786 11.0435 13.6643 11.0939 13.5746 11.1836C13.485 11.2733 13.4346 11.3949 13.4346 11.5217V17.2609C13.4346 17.3877 13.485 17.5094 13.5746 17.5991C13.6643 17.6888 13.786 17.7391 13.9128 17.7391H19.652C19.7788 17.7391 19.9005 17.6888 19.9901 17.5991C20.0798 17.5094 20.1302 17.3877 20.1302 17.2609V11.5217C20.1302 11.3949 20.0798 11.2733 19.9901 11.1836C19.9005 11.0939 19.7788 11.0435 19.652 11.0435Z" stroke="#191919" stroke-linecap="round" stroke-linejoin="round"/>
<path d="M10.087 11.0435H4.34789C4.22105 11.0435 4.0994 11.0939 4.00971 11.1836C3.92002 11.2733 3.86963 11.3949 3.86963 11.5217V17.2609C3.86963 17.3877 3.92002 17.5094 4.00971 17.5991C4.0994 17.6888 4.22105 17.7391 4.34789 17.7391H10.087C10.2139 17.7391 10.3355 17.6888 10.4252 17.5991C10.5149 17.5094 10.5653 17.3877 10.5653 17.2609V11.5217C10.5653 11.3949 10.5149 11.2733 10.4252 11.1836C10.3355 11.0939 10.2139 11.0435 10.087 11.0435Z" stroke="#191919" stroke-linecap="round" stroke-linejoin="round"/>
<path d="M7.21716 5.06518C7.15374 5.06518 7.09291 5.03998 7.04807 4.99514C7.00322 4.95029 6.97803 4.88947 6.97803 4.82605C6.97803 4.76262 7.00322 4.7018 7.04807 4.65695C7.09291 4.61211 7.15374 4.58691 7.21716 4.58691" stroke="#191919"/>
<path d="M7.21729 5.06518C7.28071 5.06518 7.34153 5.03998 7.38638 4.99514C7.43122 4.95029 7.45642 4.88947 7.45642 4.82605C7.45642 4.76262 7.43122 4.7018 7.38638 4.65695C7.34153 4.61211 7.28071 4.58691 7.21729 4.58691" stroke="#191919"/>
<path d="M10.0868 5.06518C10.0234 5.06518 9.96254 5.03998 9.9177 4.99514C9.87285 4.95029 9.84766 4.88947 9.84766 4.82605C9.84766 4.76262 9.87285 4.7018 9.9177 4.65695C9.96254 4.61211 10.0234 4.58691 10.0868 4.58691" stroke="#191919"/>
<path d="M10.0864 5.06518C10.1498 5.06518 10.2107 5.03998 10.2555 4.99514C10.3004 4.95029 10.3256 4.88947 10.3256 4.82605C10.3256 4.76262 10.3004 4.7018 10.2555 4.65695C10.2107 4.61211 10.1498 4.58691 10.0864 4.58691" stroke="#191919"/>
</g>
<defs>
<clipPath id="clip0_5303_4149">
<rect width="24" height="24" fill="white"/>
</clipPath>
</defs>
</svg>
