<svg width="24" height="24" viewBox="0 0 24 24" fill="none" xmlns="http://www.w3.org/2000/svg">
<g clip-path="url(#clip0_5303_4115)">
<path d="M23 8.17395V18.6957C23 19.203 22.7984 19.6896 22.4397 20.0484C22.0809 20.4072 21.5943 20.6087 21.087 20.6087H2.91304C2.66182 20.6087 2.41305 20.5592 2.18095 20.4631C1.94885 20.3669 1.73796 20.226 1.56032 20.0484C1.20155 19.6896 1 19.203 1 18.6957V8.17395H23Z" fill="#66E1FF"/>
<path d="M2.91304 20.6087H5.78261L18.2174 8.17395H1V18.6957C1 19.203 1.20155 19.6896 1.56032 20.0484C1.91908 20.4072 2.40567 20.6087 2.91304 20.6087Z" fill="#C2F3FF"/>
<path d="M23 8.17391H1V5.30434C1 4.79697 1.20155 4.31038 1.56032 3.95161C1.91908 3.59285 2.40567 3.3913 2.91304 3.3913H21.087C21.5943 3.3913 22.0809 3.59285 22.4397 3.95161C22.7984 4.31038 23 4.79697 23 5.30434V8.17391Z" fill="white"/>
<path d="M21.087 3.3913H2.91304C2.66182 3.3913 2.41305 3.44078 2.18095 3.53692C1.94885 3.63306 1.73796 3.77397 1.56032 3.95161C1.20155 4.31038 1 4.79697 1 5.30434V18.6956C1 19.203 1.20155 19.6896 1.56032 20.0484C1.73796 20.226 1.94885 20.3669 2.18095 20.4631C2.41305 20.5592 2.66182 20.6087 2.91304 20.6087H21.087C21.5943 20.6087 22.0809 20.4071 22.4397 20.0484C22.7984 19.6896 23 19.203 23 18.6956V5.30434C23 4.79697 22.7984 4.31038 22.4397 3.95161C22.0809 3.59285 21.5943 3.3913 21.087 3.3913Z" stroke="#191919" stroke-linecap="round" stroke-linejoin="round"/>
<path d="M1 8.17395H23" stroke="#191919" stroke-linecap="round" stroke-linejoin="round"/>
<path d="M4.34753 6.02172C4.28411 6.02172 4.22328 5.99652 4.17844 5.95168C4.13359 5.90683 4.1084 5.84601 4.1084 5.78259C4.1084 5.71917 4.13359 5.65834 4.17844 5.6135C4.22328 5.56865 4.28411 5.54346 4.34753 5.54346" stroke="#191919"/>
<path d="M4.34766 6.02172C4.41108 6.02172 4.4719 5.99652 4.51675 5.95168C4.56159 5.90683 4.58679 5.84601 4.58679 5.78259C4.58679 5.71917 4.56159 5.65834 4.51675 5.6135C4.4719 5.56865 4.41108 5.54346 4.34766 5.54346" stroke="#191919"/>
<path d="M9.60836 12C9.10099 12 8.6144 12.2016 8.25563 12.5603C7.89686 12.9191 7.69531 13.4057 7.69531 13.913V14.8696C7.69531 15.1208 7.74479 15.3696 7.84093 15.6017C7.93707 15.8338 8.07799 16.0446 8.25563 16.2223C8.43327 16.3999 8.64417 16.5408 8.87627 16.637C9.10837 16.7331 9.35713 16.7826 9.60836 16.7826" stroke="#191919" stroke-linecap="round" stroke-linejoin="round"/>
<path d="M12.478 12C12.2243 12 11.981 12.1008 11.8016 12.2802C11.6223 12.4595 11.5215 12.7028 11.5215 12.9565V15.8261C11.5215 16.0798 11.6223 16.3231 11.8016 16.5024C11.981 16.6818 12.2243 16.7826 12.478 16.7826C12.7317 16.7826 12.975 16.6818 13.1544 16.5024C13.3338 16.3231 13.4345 16.0798 13.4345 15.8261V12.9565C13.4345 12.7028 13.3338 12.4595 13.1544 12.2802C12.975 12.1008 12.7317 12 12.478 12Z" stroke="#191919" stroke-linecap="round" stroke-linejoin="round"/>
<path d="M18.2172 16.7826V12L16.7824 14.3913L15.3477 12V16.7826" stroke="#191919" stroke-linecap="round" stroke-linejoin="round"/>
<path d="M7.21716 6.02172C7.15374 6.02172 7.09291 5.99652 7.04807 5.95168C7.00322 5.90683 6.97803 5.84601 6.97803 5.78259C6.97803 5.71917 7.00322 5.65834 7.04807 5.6135C7.09291 5.56865 7.15374 5.54346 7.21716 5.54346" stroke="#191919"/>
<path d="M7.21729 6.02172C7.28071 6.02172 7.34153 5.99652 7.38638 5.95168C7.43122 5.90683 7.45642 5.84601 7.45642 5.78259C7.45642 5.71917 7.43122 5.65834 7.38638 5.6135C7.34153 5.56865 7.28071 5.54346 7.21729 5.54346" stroke="#191919"/>
<path d="M10.0868 6.02172C10.0234 6.02172 9.96254 5.99652 9.9177 5.95168C9.87285 5.90683 9.84766 5.84601 9.84766 5.78259C9.84766 5.71917 9.87285 5.65834 9.9177 5.6135C9.96254 5.56865 10.0234 5.54346 10.0868 5.54346" stroke="#191919"/>
<path d="M10.0864 6.02172C10.1178 6.02172 10.1489 6.01553 10.1779 6.00351C10.2069 5.9915 10.2333 5.97388 10.2555 5.95168C10.2777 5.92947 10.2953 5.90311 10.3074 5.8741C10.3194 5.84509 10.3256 5.81399 10.3256 5.78259C10.3256 5.75118 10.3194 5.72009 10.3074 5.69108C10.2953 5.66206 10.2777 5.6357 10.2555 5.6135C10.2333 5.59129 10.2069 5.57368 10.1779 5.56166C10.1489 5.54964 10.1178 5.54346 10.0864 5.54346" stroke="#191919"/>
<path d="M5.30407 16.5435C5.24065 16.5435 5.17983 16.5183 5.13498 16.4734C5.09014 16.4286 5.06494 16.3678 5.06494 16.3043C5.06494 16.2409 5.09014 16.1801 5.13498 16.1353C5.17983 16.0904 5.24065 16.0652 5.30407 16.0652" stroke="#191919"/>
<path d="M5.30371 16.5435C5.36713 16.5435 5.42796 16.5183 5.4728 16.4734C5.51765 16.4286 5.54284 16.3678 5.54284 16.3043C5.54284 16.2409 5.51765 16.1801 5.4728 16.1353C5.42796 16.0904 5.36713 16.0652 5.30371 16.0652" stroke="#191919"/>
</g>
<defs>
<clipPath id="clip0_5303_4115">
<rect width="24" height="24" fill="white"/>
</clipPath>
</defs>
</svg>
