<svg width="24" height="24" viewBox="0 0 24 24" fill="none" xmlns="http://www.w3.org/2000/svg">
<g clip-path="url(#clip0_5303_11830)">
<path d="M3.3916 18.2997V13.4348C3.3916 12.9274 3.59315 12.4408 3.95192 12.0821C4.31068 11.7233 4.79727 11.5217 5.30465 11.5217H18.696C19.2033 11.5217 19.6899 11.7233 20.0487 12.0821C20.4074 12.4408 20.609 12.9274 20.609 13.4348V18.2997H3.3916Z" fill="#FFEF5E"/>
<path d="M18.696 11.5217H5.30465C4.79727 11.5217 4.31068 11.7233 3.95192 12.0821C3.59315 12.4408 3.3916 12.9274 3.3916 13.4348V15.3478C3.3916 14.8405 3.59315 14.3539 3.95192 13.9951C4.31068 13.6363 4.79727 13.4348 5.30465 13.4348H18.696C19.2033 13.4348 19.6899 13.6363 20.0487 13.9951C20.4074 14.3539 20.609 14.8405 20.609 15.3478V13.4348C20.609 12.9274 20.4074 12.4408 20.0487 12.0821C19.6899 11.7233 19.2033 11.5217 18.696 11.5217Z" fill="#FFF9BF"/>
<path d="M5.30469 11.5217V4.38035C5.30365 3.48913 5.655 2.63363 6.28214 2.00041C6.90927 1.36718 7.76133 1.00757 8.65252 1H15.3482C16.2394 1.00757 17.0914 1.36718 17.7185 2.00041C18.3457 2.63363 18.697 3.48913 18.696 4.38035V11.5217" fill="#FFEF5E"/>
<path d="M18.696 4.82605H5.30469V11.5217H18.696V4.82605Z" fill="#66E1FF"/>
<path d="M14.3916 4.82605H5.30469V11.5217H7.69599L14.3916 4.82605Z" fill="#C2F3FF"/>
<path d="M15.3482 1H8.65252C7.76133 1.00757 6.90927 1.36718 6.28214 2.00041C5.655 2.63363 5.30365 3.48913 5.30469 4.38035V6.29339C5.30365 5.40217 5.655 4.54668 6.28214 3.91345C6.90927 3.28022 7.76133 2.92062 8.65252 2.91304H15.3482C16.2394 2.92062 17.0914 3.28022 17.7185 3.91345C18.3457 4.54668 18.697 5.40217 18.696 6.29339V4.38035C18.697 3.48913 18.3457 2.63363 17.7185 2.00041C17.0914 1.36718 16.2394 1.00757 15.3482 1Z" fill="#FFF9BF"/>
<path d="M5.30469 11.5217V4.38035C5.30365 3.48913 5.655 2.63363 6.28214 2.00041C6.90927 1.36718 7.76133 1.00757 8.65252 1H15.3482C16.2394 1.00757 17.0914 1.36718 17.7185 2.00041C18.3457 2.63363 18.697 3.48913 18.696 4.38035V11.5217" stroke="#191919" stroke-linecap="round" stroke-linejoin="round"/>
<path d="M7.21722 21.087V22.5217C7.21722 22.6486 7.16683 22.7702 7.07714 22.8599C6.98745 22.9496 6.8658 23 6.73896 23H4.82592C4.69907 23 4.57743 22.9496 4.48774 22.8599C4.39804 22.7702 4.34766 22.6486 4.34766 22.5217V21.087H7.21722Z" fill="#808080" stroke="#191919" stroke-linecap="round" stroke-linejoin="round"/>
<path d="M19.6528 21.087V22.5217C19.6528 22.6486 19.6024 22.7702 19.5127 22.8599C19.423 22.9496 19.3014 23 19.1745 23H17.2615C17.1346 23 17.013 22.9496 16.9233 22.8599C16.8336 22.7702 16.7832 22.6486 16.7832 22.5217V21.087H19.6528Z" fill="#808080" stroke="#191919" stroke-linecap="round" stroke-linejoin="round"/>
<path d="M1.47852 9.1304C1.47852 9.25724 1.5289 9.37889 1.61859 9.46858C1.70829 9.55827 1.82993 9.60866 1.95678 9.60866H3.39156V4.82605H1.95678C1.82993 4.82605 1.70829 4.87644 1.61859 4.96613C1.5289 5.05582 1.47852 5.17747 1.47852 5.30431V9.1304Z" fill="#FFEF5E" stroke="#191919" stroke-linecap="round" stroke-linejoin="round"/>
<path d="M20.6094 9.60866H22.0442C22.171 9.60866 22.2926 9.55827 22.3823 9.46858C22.472 9.37889 22.5224 9.25724 22.5224 9.1304V5.30431C22.5224 5.17747 22.472 5.05582 22.3823 4.96613C22.2926 4.87644 22.171 4.82605 22.0442 4.82605H20.6094V9.60866Z" fill="#FFEF5E" stroke="#191919" stroke-linecap="round" stroke-linejoin="round"/>
<path d="M2.43457 19.6522C2.43457 20.0327 2.58573 20.3976 2.85481 20.6667C3.12388 20.9358 3.48882 21.087 3.86935 21.087H20.1302C20.5107 21.087 20.8757 20.9358 21.1448 20.6667C21.4138 20.3976 21.565 20.0327 21.565 19.6522C21.565 19.2716 21.4138 18.9067 21.1448 18.6376C20.8757 18.3686 20.5107 18.2174 20.1302 18.2174H3.86935C3.48882 18.2174 3.12388 18.3686 2.85481 18.6376C2.58573 18.9067 2.43457 19.2716 2.43457 19.6522Z" fill="#B2B2B2"/>
<path d="M21.565 19.6522C21.565 19.2716 21.4138 18.9067 21.1448 18.6376C20.8757 18.3686 20.5107 18.2174 20.1302 18.2174H3.86935C3.48882 18.2174 3.12388 18.3686 2.85481 18.6376C2.58573 18.9067 2.43457 19.2716 2.43457 19.6522H21.565Z" fill="#EEEEEE"/>
<path d="M2.43457 19.6522C2.43457 20.0327 2.58573 20.3976 2.85481 20.6667C3.12388 20.9358 3.48882 21.087 3.86935 21.087H20.1302C20.5107 21.087 20.8757 20.9358 21.1448 20.6667C21.4138 20.3976 21.565 20.0327 21.565 19.6522C21.565 19.2716 21.4138 18.9067 21.1448 18.6376C20.8757 18.3686 20.5107 18.2174 20.1302 18.2174H3.86935C3.48882 18.2174 3.12388 18.3686 2.85481 18.6376C2.58573 18.9067 2.43457 19.2716 2.43457 19.6522Z" stroke="#191919" stroke-linecap="round" stroke-linejoin="round"/>
<path d="M20.609 4.82605H3.3916" stroke="#191919" stroke-linecap="round" stroke-linejoin="round"/>
<path d="M17.7397 15.8261C17.9934 15.8261 18.2367 15.7253 18.4161 15.5459C18.5955 15.3665 18.6962 15.1232 18.6962 14.8696C18.6962 14.6159 18.5955 14.3726 18.4161 14.1932C18.2367 14.0138 17.9934 13.913 17.7397 13.913C17.486 13.913 17.2427 14.0138 17.0634 14.1932C16.884 14.3726 16.7832 14.6159 16.7832 14.8696C16.7832 15.1232 16.884 15.3665 17.0634 15.5459C17.2427 15.7253 17.486 15.8261 17.7397 15.8261Z" fill="#66E1FF" stroke="#191919" stroke-linecap="round" stroke-linejoin="round"/>
<path d="M6.26121 15.8261C6.51489 15.8261 6.75819 15.7253 6.93757 15.5459C7.11695 15.3665 7.21773 15.1232 7.21773 14.8696C7.21773 14.6159 7.11695 14.3726 6.93757 14.1932C6.75819 14.0138 6.51489 13.913 6.26121 13.913C6.00752 13.913 5.76423 14.0138 5.58485 14.1932C5.40546 14.3726 5.30469 14.6159 5.30469 14.8696C5.30469 15.1232 5.40546 15.3665 5.58485 15.5459C5.76423 15.7253 6.00752 15.8261 6.26121 15.8261Z" fill="#66E1FF" stroke="#191919" stroke-linecap="round" stroke-linejoin="round"/>
<path d="M12 4.82605V11.5217" stroke="#191919" stroke-linecap="round" stroke-linejoin="round"/>
<path d="M10.0869 14.3914H13.9283" stroke="#191919" stroke-linecap="round" stroke-linejoin="round"/>
<path d="M10.0869 16.3044H13.9283" stroke="#191919" stroke-linecap="round" stroke-linejoin="round"/>
<path d="M3.3916 18.2997V13.4348C3.3916 12.9274 3.59315 12.4408 3.95192 12.0821C4.31068 11.7233 4.79727 11.5217 5.30465 11.5217H18.696C19.2033 11.5217 19.6899 11.7233 20.0487 12.0821C20.4074 12.4408 20.609 12.9274 20.609 13.4348V18.2997" stroke="#191919" stroke-linecap="round" stroke-linejoin="round"/>
<path d="M20.6093 9.60864L18.6963 11.5216" stroke="#191919" stroke-linecap="round" stroke-linejoin="round"/>
<path d="M3.3916 9.60864L5.30465 11.5216" stroke="#191919" stroke-linecap="round" stroke-linejoin="round"/>
</g>
<defs>
<clipPath id="clip0_5303_11830">
<rect width="24" height="24" fill="white"/>
</clipPath>
</defs>
</svg>
