<svg width="24" height="24" viewBox="0 0 24 24" fill="none" xmlns="http://www.w3.org/2000/svg">
<path d="M19.7305 16.8116C19.7415 17.6818 19.5721 18.5448 19.2331 19.3463C18.1236 21.8522 15.302 23 12.0022 23C7.73635 23 4.27393 21.0871 4.27393 16.8116C4.27393 14.5257 5.25909 10.8528 6.83727 9.52332H17.1624C17.3089 9.65404 17.4464 9.79465 17.5737 9.94416C18.9079 11.5128 19.7305 14.7361 19.7305 16.8116Z" fill="white"/>
<path d="M19.2331 15.6083C18.1236 18.1142 15.302 19.262 12.0022 19.262C8.33989 19.262 5.27631 17.8464 4.48148 14.7427C4.35186 15.4249 4.28241 16.1171 4.27393 16.8115C4.27393 21.087 7.73635 22.9999 12.0022 22.9999C15.302 22.9999 18.1236 21.8521 19.2331 19.3462C19.5721 18.5446 19.7415 17.6817 19.7305 16.8115C19.7199 16.1205 19.6485 15.4317 19.5172 14.7532C19.4444 15.045 19.3495 15.3309 19.2331 15.6083Z" fill="#E3E3E3"/>
<path d="M19.7305 16.8116C19.7415 17.6818 19.5721 18.5448 19.2331 19.3463C18.1236 21.8522 15.302 23 12.0022 23C7.73635 23 4.27393 21.0871 4.27393 16.8116C4.27393 14.5257 5.25909 10.8528 6.83727 9.52332H17.1624C17.3089 9.65404 17.4464 9.79465 17.5737 9.94416C18.9079 11.5128 19.7305 14.7361 19.7305 16.8116Z" stroke="#191919" stroke-linecap="round" stroke-linejoin="round"/>
<path d="M22.0456 14.3152V17.6629C22.0448 17.9927 21.9586 18.3166 21.7956 18.6034C21.6326 18.89 21.3982 19.1297 21.1153 19.2991C20.8322 19.4685 20.5103 19.5618 20.1806 19.5701C19.8509 19.5784 19.5247 19.5013 19.2336 19.3462C19.5726 18.5447 19.742 17.6818 19.731 16.8116C19.731 14.7361 18.9084 11.5127 17.5693 9.94414V9.93457C20.2666 10.8815 22.0456 12.4883 22.0456 14.3152Z" fill="white" stroke="#191919" stroke-linecap="round" stroke-linejoin="round"/>
<path d="M6.84138 9.51946C5.72231 10.4568 4.89975 12.5802 4.51716 14.5505C2.92942 13.6132 1.96338 12.3889 1.96338 11.0402V6.73899C1.96338 6.23165 2.16492 5.74509 2.52367 5.38634C2.88241 5.02759 3.36898 4.82605 3.87632 4.82605C4.38366 4.82605 4.87023 5.02759 5.22897 5.38634C5.58773 5.74509 5.78926 6.23165 5.78926 6.73899V6.81551C5.78131 6.87574 5.77811 6.9365 5.7797 6.99724C5.78894 7.94471 6.17026 8.85059 6.84138 9.51946Z" fill="white"/>
<path d="M5.07574 12.4904C4.87268 11.7542 4.4774 11.0852 3.93045 10.5523C3.3835 10.0192 2.70459 9.64137 1.96338 9.4574V11.0432C1.96338 12.3919 2.92942 13.6161 4.51716 14.5535C4.65277 13.8531 4.83946 13.1635 5.07574 12.4904Z" fill="#FFBC44"/>
<path d="M17.2579 4.34778V1.47837C17.2579 1.39488 17.2361 1.31283 17.1946 1.2404C17.1531 1.16796 17.0933 1.10766 17.0212 1.06549C16.9491 1.02332 16.8673 1.00074 16.7839 1.00002C16.7004 0.999289 16.6181 1.02043 16.5453 1.06135L13.3364 2.86908C12.9318 2.83177 12.488 2.81169 11.9973 2.81169C11.5085 2.81169 11.0647 2.83177 10.6582 2.86908C10.6582 2.86908 10.5234 2.9915 7.46362 1.11108C7.39122 1.06654 7.30824 1.0421 7.22325 1.04028C7.13826 1.03846 7.05432 1.05933 6.98008 1.10074C6.90584 1.14215 6.84397 1.2026 6.80086 1.27587C6.75774 1.34914 6.73494 1.43257 6.73479 1.51758V4.34778C6.12584 5.09789 5.78873 6.03205 5.77832 6.99816C5.78136 7.4879 5.88439 7.97184 6.0811 8.42034C6.27781 8.86884 6.56404 9.27244 6.92226 9.60639C7.28049 9.94035 7.70314 10.1977 8.16431 10.3625C8.62549 10.5273 9.11547 10.5961 9.60421 10.5648H14.3866C14.8753 10.5961 15.3653 10.5273 15.8264 10.3625C16.2876 10.1977 16.7103 9.94035 17.0685 9.60639C17.4267 9.27244 17.713 8.86884 17.9096 8.42034C18.1064 7.97184 18.2094 7.4879 18.2124 6.99816C18.2023 6.03233 17.8659 5.09831 17.2579 4.34778Z" fill="white"/>
<path d="M18.1503 6.30377C18.0244 5.58636 17.7172 4.91306 17.2579 4.34778V1.47837C17.2579 1.39488 17.2361 1.31283 17.1945 1.2404C17.153 1.16796 17.0933 1.10766 17.0211 1.06549C16.9491 1.02332 16.8672 1.00074 16.7838 1.00002C16.7003 0.999289 16.6181 1.02043 16.5453 1.06135L13.3363 2.86908C12.9317 2.83177 12.4879 2.81169 11.9973 2.81169H11.9714C11.6399 3.61741 11.6142 4.51646 11.8989 5.33985C12.1837 6.16324 12.7594 6.85427 13.5179 7.28306C14.2763 7.71184 15.1652 7.84886 16.0175 7.66835C16.8699 7.48784 17.627 7.00224 18.1464 6.30281L18.1503 6.30377Z" fill="#FFBC44"/>
<path d="M13.7021 5.76435C13.8712 5.47889 14.1115 5.2423 14.3996 5.07779C14.6877 4.91329 15.0137 4.82654 15.3454 4.82605" stroke="#191919" stroke-linecap="round" stroke-linejoin="round"/>
<path d="M10.3003 5.76435C10.1306 5.47778 9.88904 5.24047 9.5995 5.07591C9.30994 4.91134 8.98246 4.82521 8.64941 4.82606" stroke="#191919" stroke-linecap="round" stroke-linejoin="round"/>
<path d="M17.2579 4.34778V1.47837C17.2579 1.39488 17.2361 1.31283 17.1946 1.2404C17.1531 1.16796 17.0933 1.10766 17.0212 1.06549C16.9491 1.02332 16.8673 1.00074 16.7839 1.00002C16.7004 0.999289 16.6181 1.02043 16.5453 1.06135L13.3364 2.86908C12.9318 2.83177 12.488 2.81169 11.9973 2.81169C11.5085 2.81169 11.0647 2.83177 10.6582 2.86908C10.6582 2.86908 10.5234 2.9915 7.46362 1.11108C7.39122 1.06654 7.30824 1.0421 7.22325 1.04028C7.13826 1.03846 7.05432 1.05933 6.98008 1.10074C6.90584 1.14215 6.84397 1.2026 6.80086 1.27587C6.75774 1.34914 6.73494 1.43257 6.73479 1.51758V4.34778C6.12584 5.09789 5.78873 6.03205 5.77832 6.99816C5.78136 7.4879 5.88439 7.97184 6.0811 8.42034C6.27781 8.86884 6.56404 9.27244 6.92226 9.60639C7.28049 9.94035 7.70314 10.1977 8.16431 10.3625C8.62549 10.5273 9.11547 10.5961 9.60421 10.5648H14.3866C14.8753 10.5961 15.3653 10.5273 15.8264 10.3625C16.2876 10.1977 16.7103 9.94035 17.0685 9.60639C17.4267 9.27244 17.713 8.86884 17.9096 8.42034C18.1064 7.97184 18.2094 7.4879 18.2124 6.99816C18.2023 6.03233 17.8659 5.09831 17.2579 4.34778Z" stroke="#191919" stroke-linecap="round" stroke-linejoin="round"/>
<path d="M1.95459 8.17371H3.86753" stroke="#191919" stroke-linecap="round" stroke-linejoin="round"/>
<path d="M6.84138 9.51946C5.72231 10.4568 4.89975 12.5802 4.51716 14.5505C2.92942 13.6132 1.96338 12.3889 1.96338 11.0402V6.73899C1.96338 6.23165 2.16492 5.74509 2.52367 5.38634C2.88241 5.02759 3.36898 4.82605 3.87632 4.82605C4.38366 4.82605 4.87023 5.02759 5.22897 5.38634C5.58773 5.74509 5.78926 6.23165 5.78926 6.73899V6.81551C5.78131 6.87574 5.77811 6.9365 5.7797 6.99724C5.78894 7.94471 6.17026 8.85059 6.84138 9.51946Z" stroke="#191919" stroke-linecap="round" stroke-linejoin="round"/>
<path d="M11.0407 14.7732C9.96053 14.5528 8.98967 13.9658 8.29249 13.1118C7.59531 12.2577 7.21461 11.1891 7.21484 10.0865C7.21484 10.0043 7.21484 9.92297 7.22058 9.84167" stroke="#191919" stroke-linecap="round" stroke-linejoin="round"/>
<path d="M16.7718 9.84949C16.7718 9.93174 16.7842 10.0035 16.7842 10.0857C16.7852 11.1861 16.4067 12.2531 15.7125 13.1068C15.0184 13.9606 14.051 14.5488 12.9736 14.7724" stroke="#191919" stroke-linecap="round" stroke-linejoin="round"/>
<path d="M11.9977 17.2601C12.2815 17.2601 12.5589 17.1759 12.7948 17.0183C13.0307 16.8607 13.2146 16.6366 13.3232 16.3744C13.4318 16.1122 13.4602 15.8237 13.4049 15.5455C13.3495 15.2672 13.2128 15.0115 13.0122 14.8108C12.8116 14.6103 12.5559 14.4736 12.2776 14.4182C11.9993 14.3628 11.7108 14.3912 11.4487 14.4999C11.1865 14.6084 10.9624 14.7924 10.8048 15.0282C10.6472 15.2642 10.563 15.5416 10.563 15.8254C10.563 16.2059 10.7141 16.5708 10.9832 16.8399C11.2522 17.109 11.6172 17.2601 11.9977 17.2601Z" fill="#FFEF5E" stroke="#191919" stroke-linecap="round" stroke-linejoin="round"/>
</svg>
