<svg width="24" height="24" viewBox="0 0 24 24" fill="none" xmlns="http://www.w3.org/2000/svg">
<g clip-path="url(#clip0_5303_8267)">
<path d="M6.73875 20.1306H18.217V4.82615C18.217 4.57246 18.1162 4.32917 17.9369 4.14979C17.7575 3.97041 17.5142 3.86963 17.2605 3.86963H5.78223V19.174C5.78223 19.4277 5.88301 19.671 6.06238 19.8504C6.24177 20.0297 6.48506 20.1306 6.73875 20.1306Z" fill="#E3E3E3"/>
<path d="M17.9607 4.18433C17.8724 4.08595 17.7645 4.00713 17.6439 3.95293C17.5233 3.89874 17.3927 3.87036 17.2605 3.86963H5.78223V16.3638L17.9607 4.18433Z" fill="white"/>
<path d="M6.73875 20.1306H18.217V4.82615C18.217 4.57246 18.1162 4.32917 17.9369 4.14979C17.7575 3.97041 17.5142 3.86963 17.2605 3.86963H5.78223V19.174C5.78223 19.4277 5.88301 19.671 6.06238 19.8504C6.24177 20.0297 6.48506 20.1306 6.73875 20.1306Z" stroke="#191919" stroke-linecap="round" stroke-linejoin="round"/>
<path d="M23 21.5652L22.0435 19.7153V15.3478C22.0837 13.6471 20.053 12.131 18.2174 10.5652V15.7763L17.2303 14.7672C17.1214 14.6539 16.9913 14.5634 16.8474 14.5006C16.7034 14.4379 16.5484 14.4042 16.3914 14.4015C16.2343 14.3989 16.0783 14.4274 15.9324 14.4853C15.7864 14.5433 15.6533 14.6295 15.5408 14.739C15.4282 14.8486 15.3385 14.9794 15.2767 15.1237C15.2149 15.2681 15.1823 15.4233 15.1807 15.5803C15.1791 15.7374 15.2087 15.8932 15.2675 16.0388C15.3264 16.1844 15.4135 16.3169 15.5238 16.4287L18.2174 19.1739V20.6087C18.3638 21.4644 18.6897 22.2795 19.1739 23" fill="#FFDDA1"/>
<path d="M23 21.5652L22.0435 19.7153V15.3478C22.0837 13.6471 20.053 12.131 18.2174 10.5652V15.7763L17.2303 14.7672C17.1214 14.6539 16.9913 14.5634 16.8474 14.5006C16.7034 14.4379 16.5484 14.4042 16.3914 14.4015C16.2343 14.3989 16.0783 14.4274 15.9324 14.4853C15.7864 14.5433 15.6533 14.6295 15.5408 14.739C15.4282 14.8486 15.3385 14.9794 15.2767 15.1237C15.2149 15.2681 15.1823 15.4233 15.1807 15.5803C15.1791 15.7374 15.2087 15.8932 15.2675 16.0388C15.3264 16.1844 15.4135 16.3169 15.5238 16.4287L18.2174 19.1739V20.6087C18.3638 21.4644 18.6897 22.2795 19.1739 23" stroke="#191919" stroke-linecap="round" stroke-linejoin="round"/>
<path d="M19.6702 17.2609L18.2173 15.7764" stroke="#191919" stroke-linecap="round" stroke-linejoin="round"/>
<path d="M1 2.43479L1.95652 4.28471V8.6522C1.91635 10.3529 3.94705 11.869 5.78262 13.4348V8.22368L6.76976 9.23281C6.87857 9.34606 7.00871 9.43667 7.15268 9.49943C7.29665 9.56218 7.45162 9.59584 7.60865 9.59846C7.76568 9.60108 7.92168 9.57261 8.06767 9.51469C8.21366 9.45677 8.34674 9.37055 8.45927 9.26099C8.5718 9.15143 8.66154 9.02069 8.72333 8.8763C8.78513 8.73192 8.81775 8.57673 8.81932 8.41968C8.8209 8.26263 8.79139 8.10683 8.7325 7.96122C8.67362 7.81563 8.5865 7.68312 8.4762 7.57133L5.78262 4.8261V3.39131C5.63631 2.53558 5.31031 1.72057 4.8261 1" fill="#FFDDA1"/>
<path d="M1 2.43479L1.95652 4.28471V8.6522C1.91635 10.3529 3.94705 11.869 5.78262 13.4348V8.22368L6.76976 9.23281C6.87857 9.34606 7.00871 9.43667 7.15268 9.49943C7.29665 9.56218 7.45162 9.59584 7.60865 9.59846C7.76568 9.60108 7.92168 9.57261 8.06767 9.51469C8.21366 9.45677 8.34674 9.37055 8.45927 9.26099C8.5718 9.15143 8.66154 9.02069 8.72333 8.8763C8.78513 8.73192 8.81775 8.57673 8.81932 8.41968C8.8209 8.26263 8.79139 8.10683 8.7325 7.96122C8.67362 7.81563 8.5865 7.68312 8.4762 7.57133L5.78262 4.8261V3.39131C5.63631 2.53558 5.31031 1.72057 4.8261 1" stroke="#191919" stroke-linecap="round" stroke-linejoin="round"/>
<path d="M4.3291 6.73914L5.78206 8.22366" stroke="#191919" stroke-linecap="round" stroke-linejoin="round"/>
</g>
<defs>
<clipPath id="clip0_5303_8267">
<rect width="24" height="24" fill="white"/>
</clipPath>
</defs>
</svg>
