<svg width="24" height="24" viewBox="0 0 24 24" fill="none" xmlns="http://www.w3.org/2000/svg">
<path d="M18.3111 22.7922C18.2599 22.8561 18.1949 22.908 18.1213 22.9438C18.0475 22.9798 17.9667 22.999 17.8847 23H5.57243C5.49035 22.999 5.40964 22.9798 5.3359 22.9438C5.26216 22.908 5.19726 22.8561 5.14591 22.7922C5.09632 22.7278 5.06088 22.6535 5.04203 22.5742C5.02317 22.4951 5.02131 22.4129 5.03663 22.3329L6.10823 17.5327H17.3489L18.4095 22.3329C18.4295 22.4119 18.4308 22.4944 18.4138 22.574C18.3969 22.6537 18.3616 22.7283 18.3111 22.7922Z" fill="#B2B2B2"/>
<path d="M17.4418 17.9548C15.8609 19.341 13.83 20.1052 11.7274 20.1052C9.62488 20.1052 7.59399 19.341 6.01309 17.9548L5.03663 22.3286C5.02131 22.4085 5.02317 22.4907 5.04203 22.5699C5.06088 22.6491 5.09622 22.7234 5.14591 22.7878C5.19726 22.8519 5.26206 22.904 5.3358 22.94C5.40954 22.9761 5.49035 22.9955 5.57243 22.9966H17.8847C17.9668 22.9955 18.0476 22.9761 18.1214 22.94C18.195 22.904 18.2599 22.8519 18.3111 22.7878C18.3616 22.724 18.3968 22.6493 18.4138 22.5696C18.4308 22.4901 18.4295 22.4075 18.4095 22.3286L17.4418 17.9548Z" fill="#808080"/>
<path d="M17.3491 17.5327H6.1084L7.08152 13.1589H16.3759L17.3491 17.5327Z" fill="#FF808C" stroke="#191919" stroke-linecap="round" stroke-linejoin="round"/>
<path d="M18.3111 22.7922C18.2599 22.8561 18.1949 22.908 18.1213 22.9438C18.0475 22.9798 17.9667 22.999 17.8847 23H5.57243C5.49035 22.999 5.40964 22.9798 5.3359 22.9438C5.26216 22.908 5.19726 22.8561 5.14591 22.7922C5.09632 22.7278 5.06088 22.6535 5.04203 22.5742C5.02317 22.4951 5.02131 22.4129 5.03663 22.3329L6.10823 17.5327H17.3489L18.4095 22.3329C18.4295 22.4119 18.4308 22.4944 18.4138 22.574C18.3969 22.6537 18.3616 22.7283 18.3111 22.7922Z" stroke="#191919" stroke-linecap="round" stroke-linejoin="round"/>
<path d="M3.25244 13.1589H20.7477" stroke="#191919" stroke-linecap="round" stroke-linejoin="round"/>
<path d="M10.9065 13.1589C10.6128 10.2012 10.0641 7.27446 9.26629 4.41124C8.33578 1.61853 6.99514 0.612605 5.43918 1.13093C3.79898 1.67763 4.34568 3.31784 4.89248 5.50475C5.43928 7.69165 7.62609 13.1589 7.62609 13.1589H10.9065Z" fill="white" stroke="#191919" stroke-linecap="round" stroke-linejoin="round"/>
<path d="M15.2798 13.1588L16.4464 9.68164C16.7736 9.85544 17.1196 9.99113 17.4776 10.0863C18.7842 10.4339 19.9521 9.65651 19.3364 8.24596C18.7949 7.16562 18.0257 6.21547 17.0818 5.4609C16.3732 4.83329 15.1704 3.75079 14.1556 4.42327C12.2356 5.70254 11.4526 13.1588 11.4526 13.1588H15.2798Z" fill="white" stroke="#191919" stroke-linecap="round" stroke-linejoin="round"/>
</svg>
