<svg width="24" height="24" viewBox="0 0 24 24" fill="none" xmlns="http://www.w3.org/2000/svg">
<path d="M21 16.5501L18.9 17.8601C18.4932 18.0639 18.0325 18.134 17.5835 18.0603C17.1346 17.9867 16.7204 17.7731 16.4 17.4501C16.0172 17.0682 15.5054 16.8431 14.9652 16.819C14.425 16.795 13.8953 16.9737 13.48 17.3201C13.0617 17.6643 12.5368 17.8526 11.995 17.8526C11.4532 17.8526 10.9283 17.6643 10.51 17.3201C10.0967 16.9735 9.56852 16.7946 9.0297 16.8186C8.49089 16.8427 7.98071 17.068 7.60001 17.4501C7.27848 17.7715 6.8637 17.9832 6.4148 18.055C5.96588 18.1268 5.50576 18.0551 5.1 17.8501L3 16.5501C3 14.5401 5.48 13.2401 8.10001 12.0501C5.48 10.8601 3 9.56005 3 7.55005L5.1 6.25004C5.50576 6.04502 5.96588 5.9733 6.4148 6.04513C6.8637 6.11695 7.27848 6.32865 7.60001 6.65004C7.98272 7.03218 8.49449 7.25742 9.03479 7.28147C9.57509 7.30552 10.1048 7.12666 10.52 6.78004C10.9364 6.43585 11.4598 6.24755 12 6.24755C12.5402 6.24755 13.0636 6.43585 13.48 6.78004C13.8952 7.12666 14.4249 7.30552 14.9652 7.28147C15.5055 7.25742 16.0173 7.03218 16.4 6.65004C16.7214 6.32838 17.1362 6.1165 17.5851 6.04467C18.0341 5.97283 18.4943 6.04471 18.9 6.25004L21 7.55005C21 9.56005 18.52 10.8601 15.9 12.0501C18.52 13.2401 21 14.5401 21 16.5501Z" fill="#FFBFC5"/>
<path d="M11.9999 13.853C8.82683 13.7466 5.71471 14.7415 3.19189 16.669L5.0999 17.85C5.50573 18.0547 5.96578 18.1263 6.41461 18.0544C6.86345 17.9826 7.27821 17.7711 7.5999 17.45C7.98059 17.068 8.49066 16.8426 9.02942 16.8184C9.56817 16.7941 10.0964 16.9728 10.5099 17.319C10.9282 17.6632 11.4531 17.8515 11.9949 17.8515C12.5367 17.8515 13.0616 17.6632 13.4799 17.319C13.8953 16.9727 14.4251 16.7942 14.9653 16.8184C15.5055 16.8427 16.0172 17.0679 16.3999 17.45C16.7205 17.7726 17.1348 17.9858 17.5837 18.0592C18.0326 18.1327 18.4932 18.0626 18.8999 17.859L20.8079 16.669C18.2854 14.7409 15.1731 13.7459 11.9999 13.853Z" fill="#FF808C"/>
<path d="M21 16.5C21 20.09 17.24 23 12 23C6.76001 23 3 20.09 3 16.5L5.1 17.8C5.50576 18.005 5.96588 18.0767 6.4148 18.0049C6.8637 17.9331 7.27848 17.7214 7.60001 17.4C7.98071 17.0179 8.49089 16.7926 9.0297 16.7685C9.56852 16.7445 10.0967 16.9234 10.51 17.27C10.9283 17.6142 11.4532 17.8025 11.995 17.8025C12.5368 17.8025 13.0617 17.6142 13.48 17.27C13.8953 16.9236 14.425 16.7449 14.9652 16.7689C15.5054 16.793 16.0172 17.0181 16.4 17.4C16.7204 17.723 17.1346 17.9366 17.5835 18.0102C18.0325 18.0839 18.4932 18.0138 18.9 17.81L21 16.5Z" fill="#FFEF5E" stroke="#191919" stroke-linecap="round" stroke-linejoin="round"/>
<path d="M21 16.5L18.9 17.81C18.4932 18.0138 18.0325 18.0839 17.5835 18.0102C17.1346 17.9366 16.7204 17.723 16.4 17.4C16.0172 17.0181 15.5054 16.793 14.9652 16.7689C14.425 16.7449 13.8953 16.9236 13.48 17.27C13.0617 17.6142 12.5368 17.8025 11.995 17.8025C11.4532 17.8025 10.9283 17.6142 10.51 17.27C10.0967 16.9234 9.56852 16.7445 9.0297 16.7685C8.49089 16.7926 7.98071 17.0179 7.60001 17.4C7.27848 17.7214 6.8637 17.9331 6.4148 18.0049C5.96588 18.0767 5.50576 18.005 5.1 17.8L3 16.5C3 14.49 5.48 13.19 8.10001 12C5.48 10.809 3 9.509 3 7.5L5.1 6.2C5.50576 5.99497 5.96588 5.92326 6.4148 5.99509C6.8637 6.06691 7.27848 6.27861 7.60001 6.6C7.98272 6.98214 8.49449 7.20736 9.03479 7.23142C9.57509 7.25547 10.1048 7.07662 10.52 6.73C10.9364 6.38581 11.4598 6.19751 12 6.19751C12.5402 6.19751 13.0636 6.38581 13.48 6.73C13.8952 7.07662 14.4249 7.25547 14.9652 7.23142C15.5055 7.20736 16.0173 6.98214 16.4 6.6C16.7214 6.27834 17.1362 6.06646 17.5851 5.99462C18.0341 5.92279 18.4943 5.99467 18.9 6.2L21 7.5C21 9.51 18.52 10.81 15.9 12C18.52 13.189 21 14.489 21 16.5Z" stroke="#191919" stroke-linecap="round" stroke-linejoin="round"/>
<path d="M21 7.50001L18.9 6.20001C18.4943 5.99468 18.0341 5.9228 17.5851 5.99463C17.1362 6.06647 16.7214 6.27835 16.4 6.60001C16.0173 6.98215 15.5055 7.20737 14.9652 7.23143C14.4249 7.25548 13.8952 7.07663 13.48 6.73001C13.0636 6.38582 12.5402 6.19752 12 6.19752C11.4598 6.19752 10.9364 6.38582 10.52 6.73001C10.1048 7.07663 9.57509 7.25548 9.03479 7.23143C8.49449 7.20737 7.98272 6.98215 7.60001 6.60001C7.27848 6.27862 6.8637 6.06692 6.4148 5.9951C5.96588 5.92327 5.50576 5.99498 5.1 6.20001L3 7.50001C3 3.909 6.75001 1 12 1C17.25 1 21 3.909 21 7.50001Z" fill="#FFF9BF" stroke="#191919" stroke-linecap="round" stroke-linejoin="round"/>
<path d="M12.0005 14.4999C12.495 14.4999 12.9783 14.3533 13.3894 14.0786C13.8005 13.8039 14.121 13.4134 14.3102 12.9566C14.4994 12.4998 14.5489 11.9971 14.4525 11.5122C14.356 11.0272 14.1179 10.5818 13.7683 10.2321C13.4186 9.88254 12.9732 9.64444 12.4882 9.54798C12.0033 9.45151 11.5006 9.50102 11.0438 9.69024C10.587 9.87946 10.1965 10.1999 9.92182 10.611C9.64711 11.0221 9.50049 11.5054 9.50049 11.9999C9.50049 12.6629 9.76388 13.2988 10.2327 13.7677C10.7016 14.2365 11.3375 14.4999 12.0005 14.4999Z" fill="white" stroke="#191919" stroke-linecap="round" stroke-linejoin="round"/>
<path d="M16.6324 19.9999C16.2049 20.873 15.5481 21.6134 14.7322 22.1418C13.9162 22.6703 12.972 22.9669 12.0004 22.9999C11.0274 22.9685 10.0814 22.6727 9.26383 22.1441C8.44632 21.6156 7.78827 20.8743 7.36035 19.9999" stroke="#191919" stroke-linecap="round" stroke-linejoin="round"/>
<path d="M12 23V19.5" stroke="#191919" stroke-linecap="round" stroke-linejoin="round"/>
<path d="M16.6324 4.00001C16.2049 3.12691 15.5481 2.38652 14.7322 1.85806C13.9162 1.32961 12.972 1.03301 12.0004 1C11.0274 1.03136 10.0814 1.32721 9.26383 1.85576C8.44632 2.38432 7.78827 3.12561 7.36035 4.00001" stroke="#191919" stroke-linecap="round" stroke-linejoin="round"/>
<path d="M12 1V4.50001" stroke="#191919" stroke-linecap="round" stroke-linejoin="round"/>
</svg>
