<svg width="24" height="24" viewBox="0 0 24 24" fill="none" xmlns="http://www.w3.org/2000/svg">
<path d="M14.9945 8.99523C13.701 6.65314 11.8328 5.9964 9.49669 5.9964C8.08141 5.99783 6.71222 6.4997 5.63128 7.41326C4.55034 8.32682 3.82729 9.59321 3.58999 10.9885L1.87366 9.00922C1.80658 8.93362 1.71817 8.88013 1.62007 8.85581C1.52197 8.83149 1.4188 8.83748 1.32418 8.87299C1.22956 8.9085 1.14792 8.97186 1.09005 9.05472C1.03217 9.13758 1.00078 9.23603 1 9.3371V14.651C0.999856 14.753 1.0309 14.8526 1.08898 14.9364C1.14705 15.0202 1.22937 15.0843 1.3249 15.1199C1.42042 15.1556 1.52457 15.1612 1.62338 15.136C1.72218 15.1108 1.81091 15.056 1.87766 14.9789L3.58599 12.9997C3.8234 14.3956 4.54704 15.6625 5.62881 16.5761C6.71058 17.4898 8.08072 17.9912 9.49669 17.9917C10.6028 18.0624 11.7063 17.8182 12.6793 17.2874C13.6523 16.7567 14.4551 15.9611 14.9945 14.9929L10.9961 11.9941L14.9945 8.99523Z" fill="#66E1FF"/>
<path d="M5.26834 14.2192C5.26809 13.1327 5.5642 12.0668 6.12478 11.1361C6.68535 10.2055 7.48916 9.44535 8.44966 8.93759C9.41016 8.42984 10.491 8.19369 11.5757 8.25457C12.6605 8.31546 13.708 8.67107 14.6057 9.28312L14.9945 8.99523C13.701 6.65314 11.8328 5.9964 9.49669 5.9964C8.08141 5.99783 6.71222 6.4997 5.63128 7.41326C4.55034 8.32682 3.82729 9.59321 3.58999 10.9885L1.87366 9.00922C1.80658 8.93362 1.71817 8.88013 1.62007 8.85581C1.52197 8.83149 1.4188 8.83748 1.32418 8.87299C1.22956 8.9085 1.14792 8.97186 1.09005 9.05472C1.03217 9.13758 1.00078 9.23603 1 9.3371V14.651C0.999856 14.753 1.0309 14.8526 1.08898 14.9364C1.14705 15.0202 1.22937 15.0843 1.3249 15.1199C1.42042 15.1556 1.52457 15.1612 1.62338 15.136C1.72218 15.1108 1.81091 15.056 1.87766 14.9789L3.58599 12.9997C3.83984 14.4719 4.63627 15.7954 5.81812 16.7092C5.45642 15.9289 5.26882 15.0793 5.26834 14.2192Z" fill="#C2F3FF"/>
<path d="M14.9945 8.99523C13.701 6.65314 11.8328 5.9964 9.49669 5.9964C8.08141 5.99783 6.71222 6.4997 5.63128 7.41326C4.55034 8.32682 3.82729 9.59321 3.58999 10.9885L1.87366 9.00922C1.80658 8.93362 1.71817 8.88013 1.62007 8.85581C1.52197 8.83149 1.4188 8.83748 1.32418 8.87299C1.22956 8.9085 1.14792 8.97186 1.09005 9.05472C1.03217 9.13758 1.00078 9.23603 1 9.3371V14.651C0.999856 14.753 1.0309 14.8526 1.08898 14.9364C1.14705 15.0202 1.22937 15.0843 1.3249 15.1199C1.42042 15.1556 1.52457 15.1612 1.62338 15.136C1.72218 15.1108 1.81091 15.056 1.87766 14.9789L3.58599 12.9997C3.8234 14.3956 4.54704 15.6625 5.62881 16.5761C6.71058 17.4898 8.08072 17.9912 9.49669 17.9917C10.6028 18.0624 11.7063 17.8182 12.6793 17.2874C13.6523 16.7567 14.4551 15.9611 14.9945 14.9929L10.9961 11.9941L14.9945 8.99523Z" stroke="#191919" stroke-linecap="round" stroke-linejoin="round"/>
<path d="M8.99678 12.9936L7.72128 13.6314C7.64508 13.6696 7.56038 13.6876 7.47523 13.6839C7.39008 13.6801 7.30732 13.6546 7.23479 13.6098C7.16227 13.5651 7.10241 13.5025 7.06088 13.428C7.01936 13.3536 6.99756 13.2698 6.99756 13.1846V10.3007C6.99756 10.2155 7.01936 10.1316 7.06088 10.0572C7.10241 9.98278 7.16227 9.9202 7.23479 9.87543C7.30732 9.83065 7.39008 9.80517 7.47523 9.80139C7.56038 9.79762 7.64508 9.81568 7.72128 9.85387L8.99678 10.4946" stroke="#191919" stroke-linecap="round" stroke-linejoin="round"/>
<path d="M20.9931 9.99477C20.5687 9.99535 20.1557 10.1314 19.814 10.3831C19.4724 10.6349 19.2201 10.9891 19.0938 11.3942L17.7704 10.5116C17.6951 10.4615 17.6076 10.4327 17.5173 10.4284C17.427 10.4241 17.3373 10.4444 17.2575 10.487C17.1778 10.5297 17.1112 10.5932 17.0647 10.6707C17.0183 10.7483 16.9937 10.837 16.9937 10.9274V13.0586C16.9937 13.149 17.0183 13.2377 17.0647 13.3152C17.1112 13.3928 17.1778 13.4563 17.2575 13.4989C17.3373 13.5416 17.427 13.5619 17.5173 13.5575C17.6076 13.5532 17.6951 13.5245 17.7704 13.4744L19.0938 12.5938C19.2048 12.9466 19.4114 13.2617 19.6908 13.504C19.9701 13.7464 20.3112 13.9065 20.6762 13.9666C21.0411 14.0267 21.4155 13.9844 21.7578 13.8444C22.1001 13.7044 22.3969 13.4721 22.6151 13.1735C22.8333 12.8749 22.9644 12.5217 22.9939 12.153C23.0233 11.7843 22.9498 11.4147 22.7817 11.0853C22.6137 10.7559 22.3575 10.4795 22.0417 10.287C21.7259 10.0945 21.3629 9.99331 20.9931 9.99477Z" fill="#FFEF5E" stroke="#191919" stroke-linecap="round" stroke-linejoin="round"/>
<path d="M11.496 8.74535C11.4632 8.74535 11.4307 8.73889 11.4004 8.72633C11.37 8.71377 11.3425 8.69536 11.3193 8.67215C11.2961 8.64895 11.2777 8.6214 11.2651 8.59108C11.2526 8.56076 11.2461 8.52827 11.2461 8.49545C11.2461 8.46263 11.2526 8.43013 11.2651 8.39981C11.2777 8.36949 11.2961 8.34195 11.3193 8.31874C11.3425 8.29553 11.37 8.27714 11.4004 8.26458C11.4307 8.25202 11.4632 8.24554 11.496 8.24554" stroke="#191919"/>
<path d="M11.4961 8.74535C11.5289 8.74535 11.5614 8.73889 11.5917 8.72633C11.622 8.71377 11.6496 8.69536 11.6728 8.67215C11.696 8.64895 11.7144 8.6214 11.727 8.59108C11.7395 8.56076 11.746 8.52827 11.746 8.49545C11.746 8.46263 11.7395 8.43013 11.727 8.39981C11.7144 8.36949 11.696 8.34195 11.6728 8.31874C11.6496 8.29553 11.622 8.27714 11.5917 8.26458C11.5614 8.25202 11.5289 8.24554 11.4961 8.24554" stroke="#191919"/>
</svg>
