<svg width="24" height="24" viewBox="0 0 24 24" fill="none" xmlns="http://www.w3.org/2000/svg">
<path d="M10.3264 22.999C8.85396 20.2383 4.94519 20.1067 3.29044 22.7622C3.24226 22.8396 3.19662 22.9186 3.15381 22.999H10.3264Z" fill="#66E1FF"/>
<path d="M18.9336 22.9999C18.9336 19.3189 14.9489 17.0183 11.761 18.8588C10.2816 19.713 9.37012 21.2916 9.37012 22.9999" fill="#66E1FF"/>
<path d="M18.9336 22.9999C18.9336 19.3189 14.9489 17.0183 11.761 18.8588C10.2816 19.713 9.37012 21.2916 9.37012 22.9999" stroke="#191919" stroke-linecap="round" stroke-linejoin="round"/>
<path d="M17.4957 13.4326C17.4957 16.0093 14.7064 17.6198 12.4749 16.3314C11.4392 15.7334 10.8013 14.6285 10.8013 13.4326C10.7991 12.7064 11.038 12.0002 11.4802 11.4242C12.4679 12.3787 13.7794 12.9253 15.1526 12.9544C15.9108 12.9638 16.665 12.8408 17.3809 12.5909C17.4574 12.8645 17.4957 13.1476 17.4957 13.4326Z" fill="#FFDDA1" stroke="#191919" stroke-linecap="round" stroke-linejoin="round"/>
<path d="M6.74095 19.6288C8.93119 19.6288 10.3 17.2579 9.20494 15.3611C8.69665 14.4808 7.75752 13.9384 6.74095 13.9385C4.5508 13.9386 3.18189 16.3097 4.27706 18.2064C4.78534 19.0866 5.72448 19.6288 6.74095 19.6288Z" fill="#FFDDA1" stroke="#191919" stroke-linecap="round" stroke-linejoin="round"/>
<path d="M14.1523 21.1772V22.5218" stroke="#191919" stroke-linecap="round" stroke-linejoin="round"/>
<path d="M17.3807 12.591C16.6647 12.8408 15.9106 12.9638 15.1524 12.9545C13.7793 12.9253 12.4677 12.3788 11.48 11.4242C13.0138 9.36762 16.1989 9.74259 17.2131 12.0993C17.2817 12.2585 17.3377 12.423 17.3807 12.591Z" fill="#C77F67" stroke="#191919" stroke-linecap="round" stroke-linejoin="round"/>
<path d="M6.74008 20.8482C5.23912 20.8483 3.86016 21.6756 3.15381 23L6.74008 20.8482Z" fill="#66E1FF"/>
<path d="M6.74008 20.8482C5.23912 20.8483 3.86016 21.6756 3.15381 23" stroke="#191919" stroke-linecap="round" stroke-linejoin="round"/>
<path d="M8.41625 21.2078C7.88973 20.9698 7.31844 20.8472 6.74072 20.8482" stroke="#191919" stroke-linecap="round" stroke-linejoin="round"/>
<path d="M7.68908 16.7827C8.32794 16.7827 8.96105 16.6527 9.54726 16.4003C9.26727 14.2421 6.75599 13.1965 5.02702 14.5181C4.73143 14.744 4.48324 15.0262 4.29688 15.3483C5.18665 16.2662 6.41076 16.7838 7.68908 16.7827Z" fill="#C77F67" stroke="#191919" stroke-linecap="round" stroke-linejoin="round"/>
<path d="M20.8467 23V1.00385" stroke="#191919" stroke-linecap="round" stroke-linejoin="round"/>
<path d="M16.0607 5.78181V6.73811C16.066 7.26853 15.6347 7.69987 15.1043 7.69451H7.93164L10.3225 5.30366L7.93164 2.91272H14.148V4.82542C14.148 5.35369 14.5761 5.78181 15.1043 5.78181H16.0607Z" fill="#FF808C" stroke="#191919" stroke-linecap="round" stroke-linejoin="round"/>
<path d="M15.1042 1C14.5761 1 14.1479 1.42822 14.1479 1.9564V4.82539C14.1479 5.35357 14.5761 5.78179 15.1042 5.78179H20.8423V1H15.1042Z" fill="#FFBFC5" stroke="#191919" stroke-linecap="round" stroke-linejoin="round"/>
</svg>
