<svg width="24" height="24" viewBox="0 0 24 24" fill="none" xmlns="http://www.w3.org/2000/svg">
<g clip-path="url(#clip0_5303_8737)">
<path d="M4.82585 11.0429C5.34608 11.0429 5.85469 10.8886 6.28727 10.5995C6.71986 10.3105 7.05708 9.89965 7.25609 9.41895C7.45521 8.93834 7.50733 8.40943 7.40582 7.89915C7.30431 7.38888 7.05376 6.92008 6.68589 6.55221C6.31802 6.18434 5.84932 5.93379 5.33905 5.83228C4.82877 5.73077 4.29986 5.7829 3.81915 5.98201C3.33845 6.18112 2.92764 6.51825 2.63863 6.95083C2.34953 7.38341 2.19531 7.89203 2.19531 8.41235C2.19531 8.75778 2.26334 9.09978 2.3955 9.41895C2.52775 9.73811 2.7215 10.0281 2.9658 10.2723C3.45909 10.7658 4.12817 11.0429 4.82585 11.0429Z" fill="#FFDDA1" stroke="#191919" stroke-linecap="round" stroke-linejoin="round"/>
<path d="M8.17397 15.3475C8.17397 14.4595 7.82123 13.608 7.19344 12.9801C6.56555 12.3523 5.71396 11.9995 4.82605 11.9995C3.93814 11.9995 3.08655 12.3522 2.45866 12.98C1.83077 13.6079 1.47803 14.4595 1.47803 15.3475V18.2172H2.99226L3.39117 23H6.26083L6.65974 18.2172H8.17397V15.3475Z" fill="#66E1FF" stroke="#191919" stroke-linecap="round" stroke-linejoin="round"/>
<path d="M19.174 11.0429C19.6942 11.0429 20.2028 10.8886 20.6354 10.5995C21.0681 10.3105 21.4052 9.89965 21.6043 9.41895C21.8034 8.93834 21.8556 8.40943 21.7541 7.89915C21.6525 7.38888 21.4019 6.92008 21.034 6.55221C20.6662 6.18434 20.1975 5.93379 19.6872 5.83228C19.1769 5.73077 18.648 5.7829 18.1673 5.98201C17.6866 6.18112 17.2758 6.51825 16.9868 6.95083C16.6978 7.38341 16.5435 7.89203 16.5435 8.41226C16.5435 8.75778 16.6115 9.09978 16.7436 9.41895C16.8758 9.73811 17.0696 10.0281 17.3139 10.2723C17.8072 10.7657 18.4764 11.0429 19.174 11.0429Z" fill="#FFDDA1" stroke="#191919" stroke-linecap="round" stroke-linejoin="round"/>
<path d="M22.5225 15.3475C22.5225 14.4595 22.1699 13.608 21.542 12.9801C20.9141 12.3523 20.0626 11.9995 19.1746 11.9995C18.2866 11.9995 17.4351 12.3523 16.8072 12.9801C16.1793 13.6079 15.8267 14.4595 15.8267 15.3475V18.2172H17.3409L17.7397 23H20.6095L21.0083 18.2172H22.5225V15.3475Z" fill="#66E1FF" stroke="#191919" stroke-linecap="round" stroke-linejoin="round"/>
<path d="M13.4356 1.9566H11.4908C11.1928 1.9568 10.9041 2.06065 10.6743 2.25049C10.4446 2.44023 10.2878 2.70406 10.2313 2.99668C10.1748 3.28929 10.2218 3.59245 10.3643 3.85423C10.5069 4.116 10.7361 4.3199 11.0125 4.43117L12.9869 5.22039C13.2633 5.33157 13.4926 5.53556 13.6351 5.79733C13.7776 6.05911 13.8246 6.36227 13.7681 6.65488C13.7116 6.9475 13.5549 7.21133 13.3252 7.40107C13.0953 7.59091 12.8067 7.69476 12.5086 7.69496H10.5658" stroke="#191919" stroke-linecap="round" stroke-linejoin="round"/>
<path d="M12 1.95662V1" stroke="#191919" stroke-linecap="round" stroke-linejoin="round"/>
<path d="M12 8.65157V7.69495" stroke="#191919" stroke-linecap="round" stroke-linejoin="round"/>
</g>
<defs>
<clipPath id="clip0_5303_8737">
<rect width="24" height="24" fill="white"/>
</clipPath>
</defs>
</svg>
