<svg width="24" height="24" viewBox="0 0 24 24" fill="none" xmlns="http://www.w3.org/2000/svg">
<path d="M12.0002 22.5416C17.8219 22.5416 22.5418 17.8217 22.5418 12C22.5418 6.17823 17.8219 1.45831 12.0002 1.45831C6.17841 1.45831 1.4585 6.17823 1.4585 12C1.4585 17.8217 6.17841 22.5416 12.0002 22.5416Z" fill="white"/>
<path d="M12.0002 19.7917C9.44278 19.7913 6.97274 18.8612 5.0502 17.1748C3.12766 15.4884 1.88374 13.1605 1.55016 10.625C1.35258 12.1135 1.47525 13.6269 1.90996 15.0641C2.34467 16.5013 3.08139 17.8291 4.07079 18.9585C5.0602 20.0879 6.27947 20.993 7.64697 21.613C9.01447 22.2331 10.4987 22.5538 12.0002 22.5538C13.5017 22.5538 14.9859 22.2331 16.3534 21.613C17.7209 20.993 18.9401 20.0879 19.9295 18.9585C20.9189 17.8291 21.6557 16.5013 22.0904 15.0641C22.5251 13.6269 22.6477 12.1135 22.4502 10.625C22.1166 13.1605 20.8727 15.4884 18.9501 17.1748C17.0276 18.8612 14.5575 19.7913 12.0002 19.7917Z" fill="#E4F1F5"/>
<path d="M12.0002 22.5407C17.8219 22.5407 22.5418 17.8208 22.5418 11.9991C22.5418 6.17731 17.8219 1.4574 12.0002 1.4574C6.17841 1.4574 1.4585 6.17731 1.4585 11.9991C1.4585 17.8208 6.17841 22.5407 12.0002 22.5407Z" stroke="#191919" stroke-linecap="round" stroke-linejoin="round"/>
<path d="M17.5246 12.3538C17.5771 12.3108 17.6195 12.2567 17.6486 12.1954C17.6776 12.134 17.6927 12.067 17.6927 11.9991C17.6927 11.9312 17.6776 11.8642 17.6486 11.8028C17.6195 11.7414 17.5771 11.6873 17.5246 11.6443L13.6654 8.48642C13.5983 8.43137 13.5169 8.39653 13.4307 8.38595C13.3445 8.37537 13.2571 8.38948 13.1786 8.42665C13.1002 8.46382 13.0339 8.52251 12.9875 8.5959C12.9411 8.66928 12.9164 8.75434 12.9165 8.84117V10.625L9.50375 8.34892C9.43473 8.30299 9.35455 8.27664 9.27174 8.27268C9.18893 8.26872 9.10659 8.28729 9.0335 8.32642C8.96041 8.36555 8.89931 8.42378 8.85669 8.49489C8.81408 8.56601 8.79155 8.64735 8.7915 8.73025V15.2679C8.79155 15.3508 8.81408 15.4322 8.85669 15.5033C8.89931 15.5744 8.96041 15.6326 9.0335 15.6717C9.10659 15.7109 9.18893 15.7295 9.27174 15.7255C9.35455 15.7215 9.43473 15.6952 9.50375 15.6493L12.9165 13.375V15.1579C12.9164 15.2447 12.9411 15.3298 12.9875 15.4032C13.0339 15.4766 13.1002 15.5353 13.1786 15.5724C13.2571 15.6096 13.3445 15.6237 13.4307 15.6131C13.5169 15.6026 13.5983 15.5677 13.6654 15.5127L17.5246 12.3538Z" fill="#66E1FF" stroke="#191919" stroke-linecap="round" stroke-linejoin="round"/>
</svg>
