<svg width="24" height="24" viewBox="0 0 24 24" fill="none" xmlns="http://www.w3.org/2000/svg">
<g clip-path="url(#clip0_5303_2727)">
<path d="M12.0001 22.6468C17.8801 22.6468 22.6468 17.88 22.6468 12.0001C22.6468 6.12001 17.8801 1.35321 12.0001 1.35321C6.11997 1.35321 1.35327 6.12001 1.35327 12.0001C1.35327 17.88 6.11997 22.6468 12.0001 22.6468Z" fill="#C2F3FF"/>
<path d="M0.820679 16.2578L4.54708 19.9841L8.27348 16.2578" stroke="#191919" stroke-linecap="round" stroke-linejoin="round"/>
<path d="M19.4527 4.01489V16.2588C19.4527 17.2471 19.0602 18.1949 18.3614 18.8937C17.6625 19.5926 16.7147 19.9852 15.7264 19.9852C14.7381 19.9852 13.7902 19.5926 13.0913 18.8937C12.3925 18.1949 12 17.2471 12 16.2588V7.74129C12 6.75299 11.6074 5.80519 10.9086 5.10639C10.2097 4.40749 9.26194 4.01489 8.27364 4.01489C7.28534 4.01489 6.33754 4.40749 5.63864 5.10639C4.93984 5.80519 4.54724 6.75299 4.54724 7.74129V19.9852" stroke="#191919" stroke-linecap="round" stroke-linejoin="round"/>
<path d="M23.1792 7.74032L19.4527 4.01392L15.7264 7.74032" stroke="#191919" stroke-linecap="round" stroke-linejoin="round"/>
</g>
<defs>
<clipPath id="clip0_5303_2727">
<rect width="24" height="24" fill="white"/>
</clipPath>
</defs>
</svg>
