<svg width="24" height="24" viewBox="0 0 24 24" fill="none" xmlns="http://www.w3.org/2000/svg">
<path d="M12.0002 22.5416C17.8219 22.5416 22.5418 17.8217 22.5418 12C22.5418 6.17823 17.8219 1.45831 12.0002 1.45831C6.17841 1.45831 1.4585 6.17823 1.4585 12C1.4585 17.8217 6.17841 22.5416 12.0002 22.5416Z" fill="white"/>
<path d="M12.0002 19.7917C9.44278 19.7913 6.97274 18.8612 5.0502 17.1748C3.12766 15.4884 1.88374 13.1605 1.55016 10.625C1.35258 12.1135 1.47525 13.6269 1.90996 15.0641C2.34467 16.5013 3.08139 17.8291 4.07079 18.9585C5.0602 20.0879 6.27947 20.993 7.64697 21.613C9.01447 22.2331 10.4987 22.5538 12.0002 22.5538C13.5017 22.5538 14.9859 22.2331 16.3534 21.613C17.7209 20.993 18.9401 20.0879 19.9295 18.9585C20.9189 17.8291 21.6557 16.5013 22.0904 15.0641C22.5251 13.6269 22.6477 12.1135 22.4502 10.625C22.1166 13.1605 20.8727 15.4884 18.9501 17.1748C17.0276 18.8612 14.5575 19.7913 12.0002 19.7917Z" fill="#E4F1F5"/>
<path d="M12.0002 22.5407C17.8219 22.5407 22.5418 17.8208 22.5418 11.9991C22.5418 6.17731 17.8219 1.4574 12.0002 1.4574C6.17841 1.4574 1.4585 6.17731 1.4585 11.9991C1.4585 17.8208 6.17841 22.5407 12.0002 22.5407Z" stroke="#191919" stroke-linecap="round" stroke-linejoin="round"/>
<path d="M9.45517 15.7922C9.38529 15.8273 9.30762 15.8438 9.22954 15.8404C9.15146 15.8369 9.07556 15.8135 9.00906 15.7725C8.94255 15.7314 8.88765 15.674 8.84957 15.6058C8.8115 15.5375 8.79151 15.4607 8.7915 15.3825V8.61567C8.79151 8.53751 8.8115 8.46065 8.84957 8.39239C8.88765 8.32414 8.94255 8.26675 9.00906 8.22569C9.07556 8.18463 9.15146 8.16126 9.22954 8.1578C9.30762 8.15434 9.38529 8.1709 9.45517 8.20592L16.222 11.5893C16.298 11.6274 16.362 11.6859 16.4066 11.7583C16.4513 11.8307 16.475 11.914 16.475 11.9991C16.475 12.0841 16.4513 12.1675 16.4066 12.2399C16.362 12.3122 16.298 12.3707 16.222 12.4088L9.45517 15.7922Z" fill="#78EB7B" stroke="#191919" stroke-linecap="round" stroke-linejoin="round"/>
</svg>
