<svg width="24" height="24" viewBox="0 0 24 24" fill="none" xmlns="http://www.w3.org/2000/svg">
<path d="M12.0002 21.1666C17.0627 21.1666 21.1668 17.0625 21.1668 12C21.1668 6.93737 17.0627 2.83331 12.0002 2.83331C6.93755 2.83331 2.8335 6.93737 2.8335 12C2.8335 17.0625 6.93755 21.1666 12.0002 21.1666Z" fill="#C2F3FF"/>
<path d="M12.9168 14.2916C12.9168 14.2916 14.7502 17.0416 17.5002 17.0416C18.8373 17.0416 20.1196 16.5104 21.0652 15.565C22.0106 14.6194 22.5418 13.3371 22.5418 12C22.5418 10.6628 22.0106 9.38048 21.0652 8.43498C20.1196 7.48948 18.8373 6.95831 17.5002 6.95831C12.9168 6.95831 11.0835 17.0416 6.50016 17.0416C5.16303 17.0416 3.88066 16.5104 2.93516 15.565C1.98967 14.6194 1.4585 13.3371 1.4585 12C1.4585 10.6628 1.98967 9.38048 2.93516 8.43498C3.88066 7.48948 5.16303 6.95831 6.50016 6.95831C9.25016 6.95831 10.6252 10.1666 10.6252 10.1666" stroke="#191919" stroke-linecap="round" stroke-linejoin="round"/>
</svg>
