<svg width="24" height="24" viewBox="0 0 24 24" fill="none" xmlns="http://www.w3.org/2000/svg">
<path d="M12.0002 22.5416C17.8222 22.5416 22.5418 17.822 22.5418 12C22.5418 6.17798 17.8222 1.45831 12.0002 1.45831C6.17817 1.45831 1.4585 6.17798 1.4585 12C1.4585 17.822 6.17817 22.5416 12.0002 22.5416Z" fill="white"/>
<path d="M12.0002 19.7917C9.44277 19.7913 6.97273 18.8612 5.05019 17.1748C3.12765 15.4884 1.88373 13.1605 1.55016 10.625C1.36023 12.0558 1.46617 13.5105 1.86142 14.8987C2.25667 16.287 2.9328 17.5793 3.84792 18.6955C4.76303 19.8117 5.89764 20.7281 7.18142 21.388C8.4652 22.0478 9.87081 22.4369 11.3111 22.5312C12.7515 22.6255 14.1959 22.4231 15.5547 21.9364C16.9136 21.4497 18.1581 20.6892 19.2109 19.7018C20.2638 18.7145 21.1028 17.5214 21.6758 16.1966C22.2487 14.8718 22.5435 13.4434 22.5418 12C22.541 11.5402 22.5104 11.0809 22.4502 10.625C22.1166 13.1605 20.8727 15.4884 18.9501 17.1748C17.0276 18.8612 14.5576 19.7913 12.0002 19.7917Z" fill="#E4F1F5"/>
<path d="M12.0002 22.5407C17.8222 22.5407 22.5418 17.8211 22.5418 11.9991C22.5418 6.17706 17.8222 1.4574 12.0002 1.4574C6.17817 1.4574 1.4585 6.17706 1.4585 11.9991C1.4585 17.8211 6.17817 22.5407 12.0002 22.5407Z" stroke="#191919" stroke-linecap="round" stroke-linejoin="round"/>
<path d="M15.2083 7.87408H8.79167C8.28541 7.87408 7.875 8.28449 7.875 8.79075V15.2074C7.875 15.7137 8.28541 16.1241 8.79167 16.1241H15.2083C15.7146 16.1241 16.125 15.7137 16.125 15.2074V8.79075C16.125 8.28449 15.7146 7.87408 15.2083 7.87408Z" fill="#66E1FF" stroke="#191919" stroke-linecap="round" stroke-linejoin="round"/>
</svg>
