<svg width="24" height="24" viewBox="0 0 24 24" fill="none" xmlns="http://www.w3.org/2000/svg">
<path d="M19.7918 7.88235V4.20835C19.7918 3.96524 19.6952 3.73208 19.5233 3.56017C19.3515 3.38827 19.1183 3.29169 18.8752 3.29169H2.37516C2.13204 3.29169 1.89889 3.38827 1.72698 3.56017C1.55507 3.73208 1.4585 3.96524 1.4585 4.20835V7.88235H19.7918Z" fill="#FF808C"/>
<path d="M19.7918 5.12502V4.20835C19.7918 3.96524 19.6952 3.73208 19.5233 3.56017C19.3515 3.38827 19.1183 3.29169 18.8752 3.29169H2.37516C2.13204 3.29169 1.89889 3.38827 1.72698 3.56017C1.55507 3.73208 1.4585 3.96524 1.4585 4.20835V5.12502H19.7918Z" fill="#FFBFC5"/>
<path d="M1.4585 7.88233V17.0417C1.4585 17.2848 1.55507 17.518 1.72698 17.6898C1.89889 17.8617 2.13204 17.9583 2.37516 17.9583H18.8752C19.1183 17.9583 19.3515 17.8617 19.5233 17.6898C19.6952 17.518 19.7918 17.2848 19.7918 17.0417V7.875L1.4585 7.88233Z" fill="white"/>
<path d="M18.3968 12.9372L12.6416 18.6924L15.3918 21.4426L21.147 15.6874L18.3968 12.9372Z" fill="#FFEF5E" stroke="#191919" stroke-linecap="round" stroke-linejoin="round"/>
<path d="M11.5415 22.5426L15.3915 21.4426L12.6415 18.6926L11.5415 22.5426Z" fill="#FFBC44" stroke="#191919" stroke-linecap="round" stroke-linejoin="round"/>
<path d="M21.9725 12.1119C21.6077 11.7473 21.1132 11.5426 20.5975 11.5426C20.0817 11.5426 19.5872 11.7473 19.2225 12.1119L18.3975 12.9369L21.1475 15.6869L21.9725 14.8619C22.337 14.4971 22.5417 14.0026 22.5417 13.4869C22.5417 12.9711 22.337 12.4766 21.9725 12.1119Z" fill="#FF808C" stroke="#191919" stroke-linecap="round" stroke-linejoin="round"/>
<path d="M9.7085 17.9584H2.37516C2.13204 17.9584 1.89889 17.8617 1.72698 17.6899C1.55507 17.518 1.4585 17.2848 1.4585 17.0417V4.20835C1.4585 3.96524 1.55507 3.73208 1.72698 3.56017C1.89889 3.38827 2.13204 3.29169 2.37516 3.29169H18.8752C19.1183 3.29169 19.3515 3.38827 19.5233 3.56017C19.6952 3.73208 19.7918 3.96524 19.7918 4.20835V9.70835" stroke="#191919" stroke-linecap="round" stroke-linejoin="round"/>
<path d="M6.0415 1.45923V6.04256" stroke="#191919" stroke-linecap="round" stroke-linejoin="round"/>
<path d="M15.2085 1.45923V6.04256" stroke="#191919" stroke-linecap="round" stroke-linejoin="round"/>
<path d="M1.4585 7.87592H19.7918" stroke="#191919" stroke-linecap="round" stroke-linejoin="round"/>
</svg>
