<svg width="24" height="24" viewBox="0 0 24 24" fill="none" xmlns="http://www.w3.org/2000/svg">
<path d="M1.4585 7.87496V4.20829C1.4585 3.96517 1.55507 3.73202 1.72698 3.56011C1.89889 3.38821 2.13204 3.29163 2.37516 3.29163H21.6252C21.8683 3.29163 22.1015 3.38821 22.2733 3.56011C22.4452 3.73202 22.5418 3.96517 22.5418 4.20829V7.87496H1.4585Z" fill="#FF808C"/>
<path d="M1.4585 5.58329V4.20829C1.4585 3.96517 1.55507 3.73202 1.72698 3.56011C1.89889 3.38821 2.13204 3.29163 2.37516 3.29163H21.6252C21.8683 3.29163 22.1015 3.38821 22.2733 3.56011C22.4452 3.73202 22.5418 3.96517 22.5418 4.20829V5.58329H1.4585Z" fill="#FFBFC5"/>
<path d="M1.4585 7.875H22.5418V21.625C22.5418 21.8681 22.4452 22.1013 22.2733 22.2732C22.1015 22.445 21.8683 22.5417 21.6252 22.5417H2.37516C2.13204 22.5417 1.89889 22.445 1.72698 22.2732C1.55507 22.1013 1.4585 21.8681 1.4585 21.625V7.875Z" fill="white"/>
<path d="M21.6252 3.2926H2.37516C1.8689 3.2926 1.4585 3.703 1.4585 4.20927V21.6259C1.4585 22.1322 1.8689 22.5426 2.37516 22.5426H21.6252C22.1314 22.5426 22.5418 22.1322 22.5418 21.6259V4.20927C22.5418 3.703 22.1314 3.2926 21.6252 3.2926Z" stroke="#191919" stroke-linecap="round" stroke-linejoin="round"/>
<path d="M6.0415 1.45923V6.04256" stroke="#191919" stroke-linecap="round" stroke-linejoin="round"/>
<path d="M17.9585 1.45923V6.04256" stroke="#191919" stroke-linecap="round" stroke-linejoin="round"/>
<path d="M1.4585 7.87598H22.5418" stroke="#191919" stroke-linecap="round" stroke-linejoin="round"/>
<path d="M6.9585 18.4176H11.5418" stroke="#191919" stroke-linecap="round" stroke-linejoin="round"/>
<path d="M9.25016 18.4167V11.5417C9.25021 11.4554 9.22588 11.3708 9.17997 11.2977C9.13407 11.2246 9.06845 11.166 8.99067 11.1285C8.9129 11.0911 8.82613 11.0763 8.74036 11.086C8.65458 11.0957 8.57329 11.1294 8.50583 11.1833L6.9585 12.4217" stroke="#191919" stroke-linecap="round" stroke-linejoin="round"/>
<path d="M15.2083 18.4166L17.8951 11.7662C17.9376 11.6972 17.9598 11.6175 17.959 11.5364C17.9581 11.4553 17.9344 11.3761 17.8905 11.3079C17.8442 11.2378 17.781 11.1804 17.7066 11.1412C17.6323 11.1019 17.5492 11.082 17.4652 11.0833H13.8333C13.7118 11.0833 13.5952 11.1316 13.5092 11.2176C13.4233 11.3035 13.375 11.4201 13.375 11.5416V12.4583" stroke="#191919" stroke-linecap="round" stroke-linejoin="round"/>
</svg>
