<svg width="24" height="24" viewBox="0 0 24 24" fill="none" xmlns="http://www.w3.org/2000/svg">
<g clip-path="url(#clip0_5303_10563)">
<path d="M19.7765 6.73919C19.5945 6.73917 19.4163 6.68723 19.2629 6.58947C19.1093 6.49171 18.9869 6.35218 18.9099 6.18728C18.3915 5.07676 17.8348 3.86963 16.7826 3.86963H12C11.1095 3.86963 10.6609 4.66737 9.41739 6.34893C9.32909 6.46914 9.21392 6.56703 9.08105 6.63479C8.94819 6.70255 8.80131 6.7383 8.65217 6.73919H2.91304C1.47826 6.73919 1 7.38867 1 8.38728V18.3237C1 19.3213 1.47826 20.1305 2.96661 20.1305H21.0334C22.5217 20.1305 23 19.3213 23 18.3237V8.38728C23 7.38867 22.5217 6.73919 21.0334 6.73919H19.7765Z" fill="#808080"/>
<path d="M19.7765 10.5653H21.0334C22.5217 10.5653 23 11.2148 23 12.2134V8.38728C23 7.38867 22.5217 6.73919 21.0334 6.73919H19.7765C19.5945 6.73917 19.4163 6.68723 19.2629 6.58947C19.1093 6.49171 18.9869 6.35218 18.9099 6.18728C18.3915 5.07676 17.8348 3.86963 16.7826 3.86963H12C11.1095 3.86963 10.6609 4.66737 9.41739 6.34893C9.32909 6.46914 9.21392 6.56703 9.08105 6.63479C8.94819 6.70255 8.80131 6.7383 8.65217 6.73919H2.91304C1.47826 6.73919 1 7.38867 1 8.38728V12.2134C1 11.2148 1.47826 10.5653 2.91304 10.5653H19.7765Z" fill="#B2B2B2"/>
<path d="M2.9126 6.72379V5.78257C2.9126 5.52888 3.01338 5.28559 3.19275 5.10621C3.37214 4.92683 3.61543 4.82605 3.86912 4.82605H4.82564C5.07933 4.82605 5.32262 4.92683 5.50201 5.10621C5.68138 5.28559 5.78216 5.52888 5.78216 5.78257V6.73909" fill="#E3E3E3"/>
<path d="M19.7746 6.73919C19.5933 6.73941 19.4156 6.6881 19.2624 6.59123C19.1092 6.49436 18.9865 6.35592 18.909 6.19206C18.3465 5.00406 17.8252 3.86963 16.7826 3.86963H12C11.1095 3.86963 10.6551 4.66928 9.41739 6.34893C9.32909 6.46914 9.21392 6.56703 9.08105 6.63479C8.94819 6.70255 8.80131 6.7383 8.65217 6.73919H2.91304C1.47826 6.73919 1 7.38867 1 8.38728V18.3237C1 19.3213 1.47826 20.1305 2.96661 20.1305H21.0334C22.5217 20.1305 23 19.3213 23 18.3237V8.38728C23 7.38867 22.5217 6.73919 21.0334 6.73919H19.7746Z" stroke="#191919" stroke-linecap="round" stroke-linejoin="round"/>
<path d="M17.2607 18.2174C19.3737 18.2174 21.0867 16.5044 21.0867 14.3913C21.0867 12.2783 19.3737 10.5652 17.2607 10.5652C15.1476 10.5652 13.4346 12.2783 13.4346 14.3913C13.4346 16.5044 15.1476 18.2174 17.2607 18.2174Z" fill="#E3E3E3"/>
<path d="M10.5648 10.5652H3.86912C3.34085 10.5652 2.9126 10.9935 2.9126 11.5217V17.2609C2.9126 17.7892 3.34085 18.2174 3.86912 18.2174H10.5648C11.0931 18.2174 11.5213 17.7892 11.5213 17.2609V11.5217C11.5213 10.9935 11.0931 10.5652 10.5648 10.5652Z" fill="#66E1FF"/>
<path d="M17.2603 12.4783V13.4348" stroke="#191919" stroke-linecap="round" stroke-linejoin="round"/>
<path d="M17.2603 15.3478V16.3044" stroke="#191919" stroke-linecap="round" stroke-linejoin="round"/>
<path d="M19.1738 14.3914H18.2173" stroke="#191919" stroke-linecap="round" stroke-linejoin="round"/>
<path d="M16.3042 14.3914H15.3477" stroke="#191919" stroke-linecap="round" stroke-linejoin="round"/>
<path d="M10.5648 10.5652H3.86912C3.61543 10.5652 3.37214 10.666 3.19275 10.8454C3.01338 11.0247 2.9126 11.2681 2.9126 11.5217V17.2609C2.91541 17.4802 2.99429 17.6918 3.13578 17.8595C3.27727 18.0271 3.47257 18.1405 3.68834 18.1801L11.11 10.7565C10.9532 10.6365 10.7622 10.5694 10.5648 10.5652Z" fill="#C2F3FF"/>
<path d="M10.5648 10.5652H3.86912C3.34085 10.5652 2.9126 10.9935 2.9126 11.5217V17.2609C2.9126 17.7892 3.34085 18.2174 3.86912 18.2174H10.5648C11.0931 18.2174 11.5213 17.7892 11.5213 17.2609V11.5217C11.5213 10.9935 11.0931 10.5652 10.5648 10.5652Z" stroke="#191919" stroke-linecap="round" stroke-linejoin="round"/>
<path d="M2.9126 6.72379V5.78257C2.9126 5.52888 3.01338 5.28559 3.19275 5.10621C3.37214 4.92683 3.61543 4.82605 3.86912 4.82605H4.82564C5.07933 4.82605 5.32262 4.92683 5.50201 5.10621C5.68138 5.28559 5.78216 5.52888 5.78216 5.78257V6.73909" stroke="#191919" stroke-linecap="round" stroke-linejoin="round"/>
<path d="M17.2607 18.2174C19.3737 18.2174 21.0867 16.5044 21.0867 14.3913C21.0867 12.2783 19.3737 10.5652 17.2607 10.5652C15.1476 10.5652 13.4346 12.2783 13.4346 14.3913C13.4346 16.5044 15.1476 18.2174 17.2607 18.2174Z" stroke="#191919" stroke-linecap="round" stroke-linejoin="round"/>
<path d="M4.34753 8.88842C4.21546 8.88842 4.1084 8.78135 4.1084 8.64929C4.1084 8.51722 4.21546 8.41016 4.34753 8.41016" stroke="#191919"/>
<path d="M4.34717 8.88842C4.47923 8.88842 4.5863 8.78135 4.5863 8.64929C4.5863 8.51722 4.47923 8.41016 4.34717 8.41016" stroke="#191919"/>
<path d="M6.2611 8.88842C6.12904 8.88842 6.02197 8.78135 6.02197 8.64929C6.02197 8.51722 6.12904 8.41016 6.2611 8.41016" stroke="#191919"/>
<path d="M6.26074 8.88842C6.39281 8.88842 6.49987 8.78135 6.49987 8.64929C6.49987 8.51722 6.39281 8.41016 6.26074 8.41016" stroke="#191919"/>
<path d="M8.17321 8.88842C8.04115 8.88842 7.93408 8.78135 7.93408 8.64929C7.93408 8.51722 8.04115 8.41016 8.17321 8.41016" stroke="#191919"/>
<path d="M8.17285 8.88842C8.30493 8.88842 8.41198 8.78135 8.41198 8.64929C8.41198 8.51722 8.30493 8.41016 8.17285 8.41016" stroke="#191919"/>
</g>
<defs>
<clipPath id="clip0_5303_10563">
<rect width="24" height="24" fill="white"/>
</clipPath>
</defs>
</svg>
