<svg width="24" height="24" viewBox="0 0 24 24" fill="none" xmlns="http://www.w3.org/2000/svg">
<g clip-path="url(#clip0_5303_13209)">
<path d="M12.478 9.60874C12.478 9.86243 12.5788 10.1057 12.7582 10.2851C12.9375 10.4644 13.1809 10.5653 13.4345 10.5653H21.0867C21.5937 10.564 22.0796 10.362 22.4381 10.0036C22.7965 9.64506 22.9985 9.1592 22.9998 8.65222V4.82613C22.9985 4.31914 22.7965 3.83329 22.4381 3.47479C22.0796 3.11631 21.5937 2.91435 21.0867 2.91309H13.4345C13.1809 2.91309 12.9375 3.01387 12.7582 3.19324C12.5788 3.37263 12.478 3.61592 12.478 3.86961V9.60874Z" fill="#808080"/>
<path d="M8.65217 12V22.0435C8.65217 22.2971 8.55139 22.5405 8.37202 22.7198C8.19263 22.8992 7.94934 23 7.69565 23H4.82609C3.81228 22.9969 2.84085 22.5929 2.12398 21.876C1.4071 21.1592 1.00303 20.1877 1 19.1739V4.82609C1.00303 3.81228 1.4071 2.84085 2.12398 2.12398C2.84085 1.4071 3.81228 1.00303 4.82609 1H6.73913C7.75294 1.00303 8.72436 1.4071 9.44124 2.12398C10.1581 2.84085 10.5622 3.81228 10.5652 4.82609V11.0435C10.5652 11.2971 10.4644 11.5405 10.2851 11.7198C10.1057 11.8992 9.86238 12 9.6087 12H8.65217Z" fill="#808080"/>
<path d="M6.73913 1H4.82609C3.81228 1.00303 2.84085 1.4071 2.12398 2.12398C1.4071 2.84085 1.00303 3.81228 1 4.82609V8.17391C1.00303 7.1601 1.4071 6.18868 2.12398 5.47181C2.84085 4.75493 3.81228 4.35086 4.82609 4.34783H6.73913C7.75294 4.35086 8.72436 4.75493 9.44124 5.47181C10.1581 6.18868 10.5622 7.1601 10.5652 8.17391V4.82609C10.5622 3.81228 10.1581 2.84085 9.44124 2.12398C8.72436 1.4071 7.75294 1.00303 6.73913 1Z" fill="#B2B2B2"/>
<path d="M8.65217 12V22.0435C8.65217 22.2971 8.55139 22.5405 8.37202 22.7198C8.19263 22.8992 7.94934 23 7.69565 23H4.82609C3.81228 22.9969 2.84085 22.5929 2.12398 21.876C1.4071 21.1592 1.00303 20.1877 1 19.1739V4.82609C1.00303 3.81228 1.4071 2.84085 2.12398 2.12398C2.84085 1.4071 3.81228 1.00303 4.82609 1H6.73913C7.75294 1.00303 8.72436 1.4071 9.44124 2.12398C10.1581 2.84085 10.5622 3.81228 10.5652 4.82609V11.0435C10.5652 11.2971 10.4644 11.5405 10.2851 11.7198C10.1057 11.8992 9.86238 12 9.6087 12H8.65217Z" stroke="#191919" stroke-linecap="round" stroke-linejoin="round"/>
<path d="M10.5649 6.73914H12.478" stroke="#191919" stroke-linecap="round" stroke-linejoin="round"/>
<path d="M5.78216 8.65222C7.36698 8.65222 8.65173 7.36746 8.65173 5.78265C8.65173 4.19784 7.36698 2.91309 5.78216 2.91309C4.19735 2.91309 2.9126 4.19784 2.9126 5.78265C2.9126 7.36746 4.19735 8.65222 5.78216 8.65222Z" fill="#66E1FF"/>
<path d="M3.75327 7.81145C3.23056 7.27024 2.94132 6.54539 2.94786 5.793C2.9544 5.04061 3.25619 4.32088 3.78823 3.78884C4.32027 3.2568 5.04 2.95501 5.79239 2.94847C6.54478 2.94193 7.26963 3.23117 7.81084 3.75388L3.75327 7.81145Z" fill="#C2F3FF"/>
<path d="M5.78216 8.65222C7.36698 8.65222 8.65173 7.36746 8.65173 5.78265C8.65173 4.19784 7.36698 2.91309 5.78216 2.91309C4.19735 2.91309 2.9126 4.19784 2.9126 5.78265C2.9126 7.36746 4.19735 8.65222 5.78216 8.65222Z" stroke="#191919" stroke-linecap="round" stroke-linejoin="round"/>
<path d="M21.0867 2.91309H13.4345C13.1809 2.91309 12.9375 3.01387 12.7582 3.19324C12.5788 3.37263 12.478 3.61592 12.478 3.86961V6.28196C12.478 6.02827 12.5788 5.78498 12.7582 5.60559C12.9375 5.42621 13.1809 5.32543 13.4345 5.32543H21.0867C21.5937 5.3267 22.0796 5.52866 22.4381 5.88714C22.7965 6.24564 22.9985 6.73149 22.9998 7.23848V4.82613C22.9985 4.31914 22.7965 3.83329 22.4381 3.47479C22.0796 3.11631 21.5937 2.91435 21.0867 2.91309Z" fill="#B2B2B2"/>
<path d="M12.478 9.60874C12.478 9.86243 12.5788 10.1057 12.7582 10.2851C12.9375 10.4644 13.1809 10.5653 13.4345 10.5653H21.0867C21.5937 10.564 22.0796 10.362 22.4381 10.0036C22.7965 9.64506 22.9985 9.1592 22.9998 8.65222V4.82613C22.9985 4.31914 22.7965 3.83329 22.4381 3.47479C22.0796 3.11631 21.5937 2.91435 21.0867 2.91309H13.4345C13.1809 2.91309 12.9375 3.01387 12.7582 3.19324C12.5788 3.37263 12.478 3.61592 12.478 3.86961V9.60874Z" stroke="#191919" stroke-linecap="round" stroke-linejoin="round"/>
</g>
<defs>
<clipPath id="clip0_5303_13209">
<rect width="24" height="24" fill="white"/>
</clipPath>
</defs>
</svg>
