<svg width="24" height="24" viewBox="0 0 24 24" fill="none" xmlns="http://www.w3.org/2000/svg">
<g clip-path="url(#clip0_5303_10652)">
<path d="M12 17.2607V22.9999" stroke="#191919" stroke-linecap="round" stroke-linejoin="round"/>
<path d="M6.26074 23L11.9999 17.7391" stroke="#191919" stroke-linecap="round" stroke-linejoin="round"/>
<path d="M17.7391 23L12 17.7391" stroke="#191919" stroke-linecap="round" stroke-linejoin="round"/>
<path d="M12.9565 12.4783V16.7826C12.9565 16.9095 12.9061 17.0311 12.8165 17.1208C12.7267 17.2105 12.6051 17.2609 12.4782 17.2609H11.5217C11.3949 17.2609 11.2732 17.2105 11.1835 17.1208C11.0939 17.0311 11.0435 16.9095 11.0435 16.7826V12.4783" fill="#E3E3E3"/>
<path d="M9.13037 12.4783H14.8695" stroke="#191919" stroke-linecap="round" stroke-linejoin="round"/>
<path d="M17.739 9.60872C17.739 9.86241 17.6382 10.1057 17.4588 10.285C17.2795 10.4644 17.0362 10.5652 16.7825 10.5652H7.21726C6.96358 10.5652 6.72028 10.4644 6.5409 10.285C6.36152 10.1057 6.26074 9.86241 6.26074 9.60872V3.86959C6.26074 3.6159 6.36152 3.37261 6.5409 3.19322C6.72028 3.01384 6.96358 2.91306 7.21726 2.91306H11.0434C11.3121 2.3755 11.4747 1.95654 12.1127 1.95654H14.2783C14.9163 1.95654 15.0789 2.3755 15.3477 2.91306H16.7825C17.0362 2.91306 17.2795 3.01384 17.4588 3.19322C17.6382 3.37261 17.739 3.6159 17.739 3.86959V9.60872Z" fill="#808080"/>
<path d="M17.739 5.60281V3.86959C17.739 3.6159 17.6382 3.37261 17.4588 3.19322C17.2795 3.01384 17.0362 2.91306 16.7825 2.91306H15.3477C15.0789 2.3755 14.9163 1.95654 14.2783 1.95654H12.1127C11.4747 1.95654 11.3121 2.3755 11.0434 2.91306H7.21726C6.96358 2.91306 6.72028 3.01384 6.5409 3.19322C6.36152 3.37261 6.26074 3.6159 6.26074 3.86959V5.60281H17.739Z" fill="#B2B2B2"/>
<path d="M17.739 9.60872C17.739 9.86241 17.6382 10.1057 17.4588 10.285C17.2795 10.4644 17.0362 10.5652 16.7825 10.5652H7.21726C6.96358 10.5652 6.72028 10.4644 6.5409 10.285C6.36152 10.1057 6.26074 9.86241 6.26074 9.60872V3.86959C6.26074 3.6159 6.36152 3.37261 6.5409 3.19322C6.72028 3.01384 6.96358 2.91306 7.21726 2.91306H11.0434C11.3121 2.3755 11.4747 1.95654 12.1127 1.95654H14.2783C14.9163 1.95654 15.0789 2.3755 15.3477 2.91306H16.7825C17.0362 2.91306 17.2795 3.01384 17.4588 3.19322C17.6382 3.37261 17.739 3.6159 17.739 3.86959V9.60872Z" stroke="#191919" stroke-linecap="round" stroke-linejoin="round"/>
<path d="M12.9565 8.65214C14.0131 8.65214 14.8695 7.79564 14.8695 6.7391C14.8695 5.68255 14.0131 4.82605 12.9565 4.82605C11.8999 4.82605 11.0435 5.68255 11.0435 6.7391C11.0435 7.79564 11.8999 8.65214 12.9565 8.65214Z" fill="#66E1FF"/>
<path d="M11.6039 8.09167C11.2554 7.73086 11.0626 7.24763 11.067 6.74603C11.0713 6.24443 11.2725 5.76461 11.6272 5.40993C11.9819 5.05523 12.4617 4.85403 12.9633 4.84968C13.4649 4.84532 13.9481 5.03815 14.3089 5.38663L11.6039 8.09167Z" fill="#C2F3FF"/>
<path d="M12.9565 8.65214C14.0131 8.65214 14.8695 7.79564 14.8695 6.7391C14.8695 5.68255 14.0131 4.82605 12.9565 4.82605C11.8999 4.82605 11.0435 5.68255 11.0435 6.7391C11.0435 7.79564 11.8999 8.65214 12.9565 8.65214Z" stroke="#191919" stroke-linecap="round" stroke-linejoin="round"/>
<path d="M7.69531 1H8.65183" stroke="#191919" stroke-linecap="round" stroke-linejoin="round"/>
<path d="M12.9565 12.4783V16.7826C12.9565 16.9095 12.9061 17.0311 12.8165 17.1208C12.7267 17.2105 12.6051 17.2609 12.4782 17.2609H11.5217C11.3949 17.2609 11.2732 17.2105 11.1835 17.1208C11.0939 17.0311 11.0435 16.9095 11.0435 16.7826V12.4783" stroke="#191919" stroke-linecap="round" stroke-linejoin="round"/>
</g>
<defs>
<clipPath id="clip0_5303_10652">
<rect width="24" height="24" fill="white"/>
</clipPath>
</defs>
</svg>
