<svg width="24" height="24" viewBox="0 0 24 24" fill="none" xmlns="http://www.w3.org/2000/svg">
<g clip-path="url(#clip0_5303_10485)">
<path d="M19.2788 1L19.722 5.04197L15.7808 5.38745" stroke="#191919" stroke-linecap="round" stroke-linejoin="round"/>
<path d="M18.1693 15.4311C18.1693 15.7038 18.061 15.9654 17.8682 16.1582C17.6753 16.351 17.4138 16.4593 17.1411 16.4593H6.8588C6.58609 16.4593 6.32456 16.351 6.13173 16.1582C5.9389 15.9654 5.83057 15.7038 5.83057 15.4311V9.26178C5.83057 8.98908 5.9389 8.72754 6.13173 8.53471C6.32456 8.34188 6.58609 8.23355 6.8588 8.23355H10.9717L11.202 7.77291C11.2875 7.60233 11.4188 7.4589 11.5811 7.35866C11.7434 7.25842 11.9305 7.20533 12.1213 7.20532H14.4492C14.64 7.20533 14.827 7.25842 14.9894 7.35866C15.1517 7.4589 15.2829 7.60233 15.3684 7.77291L15.5987 8.23355H17.1411C17.4138 8.23355 17.6753 8.34188 17.8682 8.53471C18.061 8.72754 18.1693 8.98908 18.1693 9.26178V15.4311Z" fill="#808080"/>
<path d="M13.0281 14.4029C13.5735 14.4029 14.0966 14.1862 14.4823 13.8006C14.8679 13.4149 15.0846 12.8918 15.0846 12.3464C15.0846 11.801 14.8679 11.278 14.4823 10.8923C14.0966 10.5066 13.5735 10.29 13.0281 10.29C12.4827 10.29 11.9597 10.5066 11.574 10.8923C11.1883 11.278 10.9717 11.801 10.9717 12.3464C10.9717 12.8918 11.1883 13.4149 11.574 13.8006C11.9597 14.1862 12.4827 14.4029 13.0281 14.4029Z" fill="#66E1FF"/>
<path d="M5.27124 23L4.61523 18.9879L8.53176 18.4316" stroke="#191919" stroke-linecap="round" stroke-linejoin="round"/>
<path d="M1.71777 11.8324C1.7184 9.7428 2.35568 7.70298 3.54473 5.98464C4.73377 4.26631 6.41813 2.95104 8.37346 2.21402C10.3288 1.47701 12.4623 1.35323 14.4897 1.85918C16.5171 2.36514 18.3423 3.4768 19.7221 5.0461" stroke="#191919" stroke-linecap="round" stroke-linejoin="round"/>
<path d="M22.2823 11.8324C22.2832 13.8803 21.6726 15.8819 20.5287 17.5805C19.3849 19.2792 17.7598 20.5975 15.8618 21.3667C13.9638 22.1359 11.8794 22.3207 9.8757 21.8976C7.87198 21.4746 6.04024 20.4628 4.61523 18.992" stroke="#191919" stroke-linecap="round" stroke-linejoin="round"/>
<path d="M17.1411 8.23355H15.5987L15.3684 7.77291C15.2829 7.60233 15.1517 7.4589 14.9894 7.35866C14.827 7.25842 14.64 7.20533 14.4492 7.20532H12.1213C11.9305 7.20533 11.7434 7.25842 11.5811 7.35866C11.4188 7.4589 11.2875 7.60233 11.202 7.77291L10.9717 8.23355H6.8588C6.58609 8.23355 6.32456 8.34188 6.13173 8.53471C5.9389 8.72754 5.83057 8.98908 5.83057 9.26178V11.4858C5.83057 11.2131 5.9389 10.9516 6.13173 10.7587C6.32456 10.5659 6.58609 10.4576 6.8588 10.4576H10.9717L11.202 9.99697C11.2875 9.82639 11.4188 9.68296 11.5811 9.58272C11.7434 9.48248 11.9305 9.42939 12.1213 9.42938H14.4492C14.64 9.42939 14.827 9.48248 14.9894 9.58272C15.1517 9.68296 15.2829 9.82639 15.3684 9.99697L15.5987 10.4576H17.1411C17.4138 10.4576 17.6753 10.5659 17.8682 10.7587C18.061 10.9516 18.1693 11.2131 18.1693 11.4858V9.26178C18.1693 8.98908 18.061 8.72754 17.8682 8.53471C17.6753 8.34188 17.4138 8.23355 17.1411 8.23355Z" fill="#B2B2B2"/>
<path d="M18.1693 15.4311C18.1693 15.7038 18.061 15.9654 17.8682 16.1582C17.6753 16.351 17.4138 16.4593 17.1411 16.4593H6.8588C6.58609 16.4593 6.32456 16.351 6.13173 16.1582C5.9389 15.9654 5.83057 15.7038 5.83057 15.4311V9.26178C5.83057 8.98908 5.9389 8.72754 6.13173 8.53471C6.32456 8.34188 6.58609 8.23355 6.8588 8.23355H10.9717L11.202 7.77291C11.2875 7.60233 11.4188 7.4589 11.5811 7.35866C11.7434 7.25842 11.9305 7.20533 12.1213 7.20532H14.4492C14.64 7.20533 14.827 7.25842 14.9894 7.35866C15.1517 7.4589 15.2829 7.60233 15.3684 7.77291L15.5987 8.23355H17.1411C17.4138 8.23355 17.6753 8.34188 17.8682 8.53471C18.061 8.72754 18.1693 8.98908 18.1693 9.26178V15.4311Z" stroke="#191919" stroke-linecap="round" stroke-linejoin="round"/>
<path d="M11.5743 13.8004C11.1997 13.4126 10.9925 12.8931 10.9971 12.3539C11.0018 11.8147 11.2181 11.2989 11.5994 10.9176C11.9807 10.5364 12.4965 10.3201 13.0357 10.3154C13.5749 10.3107 14.0943 10.518 14.4822 10.8926L11.5743 13.8004Z" fill="#C2F3FF"/>
<path d="M13.0281 14.4029C13.5735 14.4029 14.0966 14.1862 14.4823 13.8006C14.8679 13.4149 15.0846 12.8918 15.0846 12.3464C15.0846 11.801 14.8679 11.278 14.4823 10.8923C14.0966 10.5066 13.5735 10.29 13.0281 10.29C12.4827 10.29 11.9597 10.5066 11.574 10.8923C11.1883 11.278 10.9717 11.801 10.9717 12.3464C10.9717 12.8918 11.1883 13.4149 11.574 13.8006C11.9597 14.1862 12.4827 14.4029 13.0281 14.4029Z" stroke="#191919" stroke-linecap="round" stroke-linejoin="round"/>
</g>
<defs>
<clipPath id="clip0_5303_10485">
<rect width="24" height="24" fill="white"/>
</clipPath>
</defs>
</svg>
