<svg width="24" height="24" viewBox="0 0 24 24" fill="none" xmlns="http://www.w3.org/2000/svg">
<path d="M12.0002 21.1666C17.0627 21.1666 21.1668 17.0625 21.1668 12C21.1668 6.93737 17.0627 2.83331 12.0002 2.83331C6.93755 2.83331 2.8335 6.93737 2.8335 12C2.8335 17.0625 6.93755 21.1666 12.0002 21.1666Z" fill="#C2F3FF"/>
<path d="M1.4585 7.87502V6.95835C1.4585 6.71524 1.55507 6.48208 1.72698 6.31017C1.89889 6.13827 2.13204 6.04169 2.37516 6.04169H9.7085C9.95161 6.04169 10.1848 6.13827 10.3567 6.31017C10.5285 6.48208 10.6252 6.71524 10.6252 6.95835V7.87502" stroke="#191919" stroke-linecap="round" stroke-linejoin="round"/>
<path d="M6.0415 6.03986V18.8731" stroke="#191919" stroke-linecap="round" stroke-linejoin="round"/>
<path d="M4.6665 18.8732H7.4165" stroke="#191919" stroke-linecap="round" stroke-linejoin="round"/>
<path d="M13.375 7.87502V6.95835C13.375 6.71524 13.4716 6.48208 13.6435 6.31017C13.8154 6.13827 14.0486 6.04169 14.2917 6.04169H21.625C21.8681 6.04169 22.1013 6.13827 22.2732 6.31017C22.445 6.48208 22.5417 6.71524 22.5417 6.95835V7.87502" stroke="#191919" stroke-linecap="round" stroke-linejoin="round"/>
<path d="M17.9585 6.03986V18.8731" stroke="#191919" stroke-linecap="round" stroke-linejoin="round"/>
<path d="M16.5835 18.8732H19.3335" stroke="#191919" stroke-linecap="round" stroke-linejoin="round"/>
</svg>
