<svg width="24" height="24" viewBox="0 0 24 24" fill="none" xmlns="http://www.w3.org/2000/svg">
<g clip-path="url(#clip0_5303_11963)">
<path d="M4.82609 9.13037H19.1739C20.1887 9.13037 21.1618 9.53348 21.8794 10.251C22.5969 10.9685 23 11.9417 23 12.9564V17.739C23 17.9927 22.8992 18.236 22.7198 18.4154C22.5405 18.5948 22.2972 18.6955 22.0435 18.6955H1.95652C1.70284 18.6955 1.45954 18.5948 1.28016 18.4154C1.10078 18.236 1 17.9927 1 17.739V12.9564C1 11.9417 1.4031 10.9685 2.12063 10.251C2.83817 9.53348 3.81135 9.13037 4.82609 9.13037Z" fill="#FF808C"/>
<path d="M22.8801 11.9999C22.668 11.1784 22.1888 10.4508 21.5181 9.93137C20.8473 9.41193 20.0229 9.13016 19.1745 9.13037H4.82666C3.97826 9.13016 3.15386 9.41193 2.48308 9.93137C1.8123 10.4508 1.33319 11.1784 1.12109 11.9999H22.8801Z" fill="#FFBFC5"/>
<path d="M2.9141 13.913H5.78367L5.3054 12H1.12158C1.05654 12.2554 1.01636 12.5165 1.00488 12.7796C1.18997 13.1242 1.46554 13.4119 1.80196 13.6117C2.13837 13.8114 2.52288 13.9156 2.9141 13.913Z" fill="#FFEF5E"/>
<path d="M18.696 12L18.2178 13.913H21.0873C21.4792 13.9149 21.8642 13.8103 22.2011 13.6103C22.5381 13.4103 22.8143 13.1225 23.0004 12.7777C22.9869 12.515 22.9465 12.2544 22.8799 12H18.696Z" fill="#FFEF5E"/>
<path d="M4.34766 9.1305L5.03731 4.99067C5.11176 4.54283 5.34305 4.13607 5.68983 3.84308C6.03661 3.5501 6.47629 3.38999 6.93027 3.39137H17.0761C17.5288 3.39154 17.9667 3.55223 18.3121 3.84489C18.6575 4.13754 18.8879 4.54319 18.9624 4.98971L19.652 9.1305H4.34766Z" fill="#66E1FF"/>
<path d="M15.3477 3.39136H6.93026C6.4768 3.39092 6.03793 3.55158 5.69192 3.84468C5.34592 4.13778 5.11528 4.54426 5.04113 4.99162L4.34766 9.13049H9.60853L15.3477 3.39136Z" fill="#C2F3FF"/>
<path d="M4.82609 9.13037H19.1739C20.1887 9.13037 21.1618 9.53348 21.8794 10.251C22.5969 10.9685 23 11.9417 23 12.9564V17.739C23 17.9927 22.8992 18.236 22.7198 18.4154C22.5405 18.5948 22.2972 18.6955 22.0435 18.6955H1.95652C1.70284 18.6955 1.45954 18.5948 1.28016 18.4154C1.10078 18.236 1 17.9927 1 17.739V12.9564C1 11.9417 1.4031 10.9685 2.12063 10.251C2.83817 9.53348 3.81135 9.13037 4.82609 9.13037Z" stroke="#191919" stroke-linecap="round" stroke-linejoin="round"/>
<path d="M4.34766 9.13049L5.03731 4.9897C5.1118 4.54302 5.34234 4.13724 5.68791 3.84457C6.03348 3.5519 6.47167 3.3913 6.92453 3.39136H17.0751C17.528 3.3913 17.9662 3.5519 18.3117 3.84457C18.6573 4.13724 18.8879 4.54302 18.9624 4.9897L19.652 9.13049" stroke="#191919" stroke-linecap="round" stroke-linejoin="round"/>
<path d="M19.6523 9.13045L21.0871 7.21741H22.5219C22.6488 7.21741 22.7704 7.26779 22.8601 7.35749C22.9498 7.44718 23.0002 7.56882 23.0002 7.69567V8.65219C23.0002 8.77903 22.9498 8.90068 22.8601 8.99037C22.7704 9.08006 22.6488 9.13045 22.5219 9.13045H19.6523Z" fill="#FF808C" stroke="#191919" stroke-linecap="round" stroke-linejoin="round"/>
<path d="M4.34783 9.13045L2.91304 7.21741H1.47826C1.35142 7.21741 1.22977 7.26779 1.14008 7.35749C1.05039 7.44718 1 7.56882 1 7.69567V8.65219C1 8.77903 1.05039 8.90068 1.14008 8.99037C1.22977 9.08006 1.35142 9.13045 1.47826 9.13045H4.34783Z" fill="#FF808C" stroke="#191919" stroke-linecap="round" stroke-linejoin="round"/>
<path d="M5.78214 18.6956V19.6522C5.78214 19.9059 5.68137 20.1492 5.50198 20.3285C5.3226 20.5079 5.07931 20.6087 4.82562 20.6087H2.91258C2.65889 20.6087 2.4156 20.5079 2.23621 20.3285C2.05683 20.1492 1.95605 19.9059 1.95605 19.6522V18.6956H5.78214Z" fill="#808080" stroke="#191919" stroke-linecap="round" stroke-linejoin="round"/>
<path d="M22.0439 18.6956V19.6522C22.0439 19.9059 21.9431 20.1492 21.7637 20.3285C21.5843 20.5079 21.341 20.6087 21.0873 20.6087H19.1743C18.9206 20.6087 18.6773 20.5079 18.4979 20.3285C18.3185 20.1492 18.2178 19.9059 18.2178 19.6522V18.6956H22.0439Z" fill="#808080" stroke="#191919" stroke-linecap="round" stroke-linejoin="round"/>
<path d="M22.8799 12H18.696L18.2178 13.913H21.0873C21.4789 13.9152 21.8637 13.811 22.2006 13.6115C22.5375 13.4121 22.814 13.1248 23.0004 12.7805" stroke="#191919" stroke-linecap="round" stroke-linejoin="round"/>
<path d="M1.12052 12H5.30435L5.78261 13.913H2.91304C2.52131 13.9162 2.13615 13.8123 1.79905 13.6128C1.46195 13.4132 1.18568 13.1255 1 12.7805" stroke="#191919" stroke-linecap="round" stroke-linejoin="round"/>
<path d="M18.2177 13.913L16.2645 14.6926C15.968 14.7997 15.6562 14.86 15.3415 14.8696H8.17425C7.86096 14.8576 7.55298 14.7848 7.26747 14.6553L5.78295 13.913L5.30469 12H18.696L18.2177 13.913Z" fill="#808080" stroke="#191919" stroke-linecap="round" stroke-linejoin="round"/>
<path d="M5.30469 18.6957L6.26121 16.7826H17.7395L18.696 18.6957H5.30469Z" fill="#B2B2B2" stroke="#191919" stroke-linecap="round" stroke-linejoin="round"/>
<path d="M17.7393 16.7826H21.0871" stroke="#191919" stroke-linecap="round" stroke-linejoin="round"/>
<path d="M2.91309 16.7826H6.26091" stroke="#191919" stroke-linecap="round" stroke-linejoin="round"/>
</g>
<defs>
<clipPath id="clip0_5303_11963">
<rect width="24" height="24" fill="white"/>
</clipPath>
</defs>
</svg>
