<svg width="24" height="24" viewBox="0 0 24 24" fill="none" xmlns="http://www.w3.org/2000/svg">
<g clip-path="url(#clip0_5303_11982)">
<path d="M2 12.5C1.73478 12.5 1.48043 12.3946 1.29289 12.2071C1.10536 12.0196 1 11.7652 1 11.5V8.5C1 7.96957 1.21071 7.46086 1.58579 7.08579C1.96086 6.71071 2.46957 6.5 3 6.5H18C18.5304 6.5 19.0391 6.71071 19.4142 7.08579C19.7893 7.46086 20 7.96957 20 8.5V11.5C20 11.7652 19.8946 12.0196 19.7071 12.2071C19.5196 12.3946 19.2652 12.5 19 12.5H2Z" fill="#FFBC44"/>
<path d="M18 6.5H3C2.46957 6.5 1.96086 6.71071 1.58579 7.08579C1.21071 7.46086 1 7.96957 1 8.5V10.75C1 10.2196 1.21071 9.71086 1.58579 9.33579C1.96086 8.96071 2.46957 8.75 3 8.75H18C18.5304 8.75 19.0391 8.96071 19.4142 9.33579C19.7893 9.71086 20 10.2196 20 10.75V8.5C20 7.96957 19.7893 7.46086 19.4142 7.08579C19.0391 6.71071 18.5304 6.5 18 6.5Z" fill="#FFDDA1"/>
<path d="M3.5 6.5L3.847 3.334C3.88864 2.83405 4.11665 2.36801 4.48581 2.0283C4.85497 1.68859 5.33832 1.50002 5.84 1.5H15.16C15.6617 1.50002 16.145 1.68859 16.5142 2.0283C16.8834 2.36801 17.1114 2.83405 17.153 3.334L17.5 6.5H3.5Z" fill="#66E1FF"/>
<path d="M13.375 1.5H5.84C5.33832 1.50002 4.85497 1.68859 4.48581 2.0283C4.11665 2.36801 3.88864 2.83405 3.847 3.334L3.5 6.5H8.375L13.375 1.5Z" fill="#C2F3FF"/>
<path d="M4 10.5C4.26522 10.5 4.51957 10.3946 4.70711 10.2071C4.89464 10.0196 5 9.76522 5 9.5C5 9.23478 4.89464 8.98043 4.70711 8.79289C4.51957 8.60536 4.26522 8.5 4 8.5C3.73478 8.5 3.48043 8.60536 3.29289 8.79289C3.10536 8.98043 3 9.23478 3 9.5C3 9.76522 3.10536 10.0196 3.29289 10.2071C3.48043 10.3946 3.73478 10.5 4 10.5Z" fill="#FFEF5E"/>
<path d="M6 12.5V14C6 14.3978 5.84196 14.7794 5.56066 15.0607C5.27936 15.342 4.89782 15.5 4.5 15.5C4.10218 15.5 3.72064 15.342 3.43934 15.0607C3.15804 14.7794 3 14.3978 3 14V12.5H6Z" fill="#808080"/>
<path d="M9.5 12.5H2C1.73478 12.5 1.48043 12.3946 1.29289 12.2071C1.10536 12.0196 1 11.7652 1 11.5V8.5C1 7.96957 1.21071 7.46086 1.58579 7.08579C1.96086 6.71071 2.46957 6.5 3 6.5H18C18.5304 6.5 19.0391 6.71071 19.4142 7.08579C19.7893 7.46086 20 7.96957 20 8.5V9" stroke="#191919" stroke-linecap="round" stroke-linejoin="round"/>
<path d="M3.5 6.5L3.847 3.334C3.88864 2.83405 4.11665 2.36801 4.48581 2.0283C4.85497 1.68859 5.33832 1.50002 5.84 1.5H15.16C15.6617 1.50002 16.145 1.68859 16.5142 2.0283C16.8834 2.36801 17.1114 2.83405 17.153 3.334L17.5 6.5" stroke="#191919" stroke-linecap="round" stroke-linejoin="round"/>
<path d="M4 10.5C4.26522 10.5 4.51957 10.3946 4.70711 10.2071C4.89464 10.0196 5 9.76522 5 9.5C5 9.23478 4.89464 8.98043 4.70711 8.79289C4.51957 8.60536 4.26522 8.5 4 8.5C3.73478 8.5 3.48043 8.60536 3.29289 8.79289C3.10536 8.98043 3 9.23478 3 9.5C3 9.76522 3.10536 10.0196 3.29289 10.2071C3.48043 10.3946 3.73478 10.5 4 10.5Z" stroke="#191919" stroke-linecap="round" stroke-linejoin="round"/>
<path d="M6 12.5V14C6 14.3978 5.84196 14.7794 5.56066 15.0607C5.27936 15.342 4.89782 15.5 4.5 15.5C4.10218 15.5 3.72064 15.342 3.43934 15.0607C3.15804 14.7794 3 14.3978 3 14V12.5" stroke="#191919" stroke-linecap="round" stroke-linejoin="round"/>
<path d="M1 4.5L3.5 6.5" stroke="#191919" stroke-linecap="round" stroke-linejoin="round"/>
<path d="M20 4.5L17.5 6.5" stroke="#191919" stroke-linecap="round" stroke-linejoin="round"/>
<path d="M17 22.5C18.5913 22.5 20.1174 21.8679 21.2426 20.7426C22.3679 19.6174 23 18.0913 23 16.5C23 14.9087 22.3679 13.3826 21.2426 12.2574C20.1174 11.1321 18.5913 10.5 17 10.5C15.4087 10.5 13.8826 11.1321 12.7574 12.2574C11.6321 13.3826 11 14.9087 11 16.5C11 18.0913 11.6321 19.6174 12.7574 20.7426C13.8826 21.8679 15.4087 22.5 17 22.5Z" fill="#78EB7B"/>
<path d="M16.9998 10.5C15.7786 10.499 14.5862 10.871 13.5822 11.5662C12.5782 12.2614 11.8105 13.2466 11.3817 14.3901C10.9529 15.5335 10.8836 16.7806 11.1829 17.9646C11.4823 19.1485 12.136 20.2128 13.0568 21.015L21.5148 12.557C20.9534 11.9108 20.2597 11.3928 19.4808 11.0379C18.7018 10.683 17.8558 10.4996 16.9998 10.5Z" fill="#C9F7CA"/>
<path d="M17 22.5C18.5913 22.5 20.1174 21.8679 21.2426 20.7426C22.3679 19.6174 23 18.0913 23 16.5C23 14.9087 22.3679 13.3826 21.2426 12.2574C20.1174 11.1321 18.5913 10.5 17 10.5C15.4087 10.5 13.8826 11.1321 12.7574 12.2574C11.6321 13.3826 11 14.9087 11 16.5C11 18.0913 11.6321 19.6174 12.7574 20.7426C13.8826 21.8679 15.4087 22.5 17 22.5Z" stroke="#191919" stroke-linecap="round" stroke-linejoin="round"/>
<path d="M19.6736 14.76L16.7736 18.634C16.7091 18.7199 16.6269 18.7909 16.5325 18.8423C16.4382 18.8937 16.3339 18.9242 16.2268 18.9318C16.1197 18.9393 16.0121 18.9238 15.9115 18.8863C15.8109 18.8487 15.7195 18.7899 15.6436 18.714L14.1436 17.214" stroke="#191919" stroke-linecap="round" stroke-linejoin="round"/>
</g>
<defs>
<clipPath id="clip0_5303_11982">
<rect width="24" height="24" fill="white"/>
</clipPath>
</defs>
</svg>
