<svg width="24" height="24" viewBox="0 0 24 24" fill="none" xmlns="http://www.w3.org/2000/svg">
<path d="M10.9809 7.08733L4.89355 1L6.10069 5.58845" fill="#B2B2B2"/>
<path d="M10.9809 7.08733L4.89355 1L6.10069 5.58845" stroke="#191919" stroke-linecap="round" stroke-linejoin="round"/>
<path d="M8.62305 11.0742L9.63314 14.8439L11.4802 14.3494L10.5351 10.8217L8.62305 11.0742Z" fill="#808080"/>
<path d="M11.5875 8.10876L15.3571 9.11885L14.8617 10.9669L11.334 10.0218L11.5875 8.10876Z" fill="#808080"/>
<path d="M20.6868 9.55717C21.1769 9.68845 21.5948 10.0091 21.8486 10.4485C22.1023 10.8879 22.1711 11.4101 22.0398 11.9002C21.9086 12.3903 21.5879 12.8082 21.1485 13.062C20.7091 13.3158 20.1869 13.3845 19.6968 13.2532L15.0768 12.0155C15.0161 11.9992 14.9592 11.9711 14.9094 11.9328C14.8595 11.8945 14.8178 11.8467 14.7865 11.7923C14.7551 11.7379 14.7348 11.6777 14.7267 11.6154C14.7186 11.5531 14.7228 11.4898 14.7391 11.4291L15.4814 8.65517C15.5143 8.53283 15.5944 8.42855 15.7043 8.36524C15.814 8.30194 15.9443 8.28477 16.0668 8.31751L20.6868 9.55717Z" fill="#FF808C"/>
<path d="M22.0326 11.9216L22.0383 11.9006C22.1035 11.6579 22.1201 11.4047 22.0873 11.1556C22.0546 10.9066 21.9731 10.6663 21.8475 10.4487C21.7219 10.2311 21.5547 10.0403 21.3554 9.88732C21.156 9.73434 20.9285 9.62213 20.6858 9.55708L16.0658 8.31934C15.9433 8.2866 15.813 8.30377 15.7033 8.36707C15.5934 8.43038 15.5133 8.53465 15.4804 8.65699L15.1035 10.0631L22.0326 11.9216Z" fill="#FFBFC5"/>
<path d="M10.0693 20.1736C10.2005 20.6637 10.5212 21.0816 10.9606 21.3354C11.4 21.589 11.9222 21.6579 12.4123 21.5266C12.9024 21.3953 13.3203 21.0747 13.5741 20.6353C13.8278 20.1958 13.8965 19.6737 13.7653 19.1836L12.5276 14.5635C12.5114 14.5028 12.4833 14.4458 12.4451 14.3959C12.4069 14.3459 12.3591 14.304 12.3046 14.2727C12.2502 14.2412 12.19 14.2207 12.1276 14.2126C12.0653 14.2044 12.002 14.2086 11.9412 14.2249L9.16729 14.9681C9.04477 15.0009 8.94027 15.0809 8.87677 15.1907C8.81327 15.3005 8.79598 15.431 8.82868 15.5535L10.0693 20.1736Z" fill="#FF808C"/>
<path d="M10.6442 14.573L9.17022 14.9652C9.0477 14.998 8.9432 15.0781 8.8797 15.1878C8.8162 15.2976 8.7989 15.428 8.83161 15.5506L10.0694 20.1706C10.1987 20.6524 10.511 21.0647 10.9398 21.3194C11.3687 21.5742 11.8801 21.6515 12.365 21.5346L10.6442 14.573Z" fill="#FFBFC5"/>
<path d="M1.51172 3.70496V4.38218" stroke="#191919" stroke-linecap="round" stroke-linejoin="round"/>
<path d="M1.51172 3.70496V4.38218" stroke="#191919" stroke-linecap="round" stroke-linejoin="round"/>
<path d="M4.21875 1H4.89501" stroke="#191919" stroke-linecap="round" stroke-linejoin="round"/>
<path d="M20.6868 9.55717C21.1769 9.68845 21.5948 10.0091 21.8486 10.4485C22.1023 10.8879 22.1711 11.4101 22.0398 11.9002C21.9086 12.3903 21.5879 12.8082 21.1485 13.062C20.7091 13.3158 20.1869 13.3845 19.6968 13.2532L15.0768 12.0155C15.0161 11.9992 14.9592 11.9711 14.9094 11.9328C14.8595 11.8945 14.8178 11.8467 14.7865 11.7923C14.7551 11.7379 14.7348 11.6777 14.7267 11.6154C14.7186 11.5531 14.7228 11.4898 14.7391 11.4291L15.4814 8.65517C15.5143 8.53283 15.5944 8.42855 15.7043 8.36524C15.814 8.30194 15.9443 8.28477 16.0668 8.31751L20.6868 9.55717Z" stroke="#191919" stroke-linecap="round" stroke-linejoin="round"/>
<path d="M14.8617 10.967L11.334 10.0219" stroke="#191919" stroke-linecap="round" stroke-linejoin="round"/>
<path d="M11.5879 8.10876L15.3576 9.11885" stroke="#191919" stroke-linecap="round" stroke-linejoin="round"/>
<path d="M10.0693 20.1736C10.2005 20.6637 10.5212 21.0816 10.9606 21.3354C11.4 21.589 11.9222 21.6579 12.4123 21.5266C12.9024 21.3953 13.3203 21.0747 13.5741 20.6353C13.8278 20.1958 13.8965 19.6737 13.7653 19.1836L12.5276 14.5635C12.5114 14.5028 12.4833 14.4458 12.4451 14.3959C12.4069 14.3459 12.3591 14.304 12.3046 14.2727C12.2502 14.2412 12.19 14.2207 12.1276 14.2126C12.0653 14.2044 12.002 14.2086 11.9412 14.2249L9.16729 14.9681C9.04477 15.0009 8.94027 15.0809 8.87677 15.1907C8.81327 15.3005 8.79598 15.431 8.82868 15.5535L10.0693 20.1736Z" stroke="#191919" stroke-linecap="round" stroke-linejoin="round"/>
<path d="M11.4792 14.3494L10.5342 10.8217" stroke="#191919" stroke-linecap="round" stroke-linejoin="round"/>
<path d="M8.62305 11.0741L9.63314 14.8438" stroke="#191919" stroke-linecap="round" stroke-linejoin="round"/>
<path d="M9.14766 6.39091C9.54621 6.3671 9.94437 6.44345 10.3058 6.61301C10.6673 6.78256 10.9806 7.03993 11.217 7.36162C11.4535 7.68331 11.6056 8.05908 11.6596 8.45467C11.7136 8.85025 11.6677 9.25306 11.5261 9.62633C11.3844 9.99962 11.1516 10.3315 10.8487 10.5917C10.5459 10.8518 10.1827 11.0321 9.7924 11.1159C9.40205 11.1997 8.99692 11.1845 8.61397 11.0716C8.23102 10.9587 7.88243 10.7517 7.6 10.4695L1.51172 4.3822L9.14766 6.39091Z" fill="#E3E3E3" stroke="#191919" stroke-linecap="round" stroke-linejoin="round"/>
<path d="M22.4889 23C20.5759 23 21.0541 21.5652 21.0541 21.5652C21.6733 19.2117 22.1524 16.8235 22.4889 14.4133C22.4889 12.9785 22.0298 12.9364 22.0298 12.9364L21.5802 12.7202" stroke="#191919" stroke-linecap="round" stroke-linejoin="round"/>
</svg>
