<svg width="24" height="24" viewBox="0 0 24 24" fill="none" xmlns="http://www.w3.org/2000/svg">
<g clip-path="url(#clip0_5303_12219)">
<path d="M17.9355 11.5182C16.0729 10.6632 14.0477 10.2205 11.9984 10.2205C9.94899 10.2205 7.92377 10.6632 6.06128 11.5182C5.95134 11.5664 5.84139 11.6147 5.73145 11.6667C5.85157 11.7386 5.96374 11.823 6.06611 11.9185C7.79535 13.5011 9.58728 19.2337 9.58728 19.2337H14.4095C14.4095 19.2337 16.2014 13.5011 17.9306 11.9185C18.033 11.823 18.1452 11.7386 18.2653 11.6667C18.1554 11.6147 18.0454 11.5664 17.9355 11.5182Z" fill="#FF808C"/>
<path d="M7.20607 13.477C10.3014 12.3496 13.6953 12.3496 16.7907 13.477C17.0916 12.904 17.4757 12.3788 17.9306 11.9185C18.033 11.823 18.1452 11.7386 18.2653 11.6667C18.1554 11.6156 18.0454 11.5703 17.9355 11.5182C16.0729 10.6632 14.0477 10.2205 11.9984 10.2205C9.94899 10.2205 7.92377 10.6632 6.06128 11.5182C5.95134 11.5664 5.84139 11.6147 5.73145 11.6667C5.85157 11.7386 5.96374 11.823 6.06611 11.9185C6.52104 12.3788 6.90521 12.904 7.20607 13.477Z" fill="#FFBFC5"/>
<path d="M6.16736 8.11666C6.31163 6.67013 6.98833 5.32883 8.06606 4.35324C9.14379 3.37765 10.5456 2.8374 11.9993 2.8374C13.453 2.8374 14.8548 3.37765 15.9326 4.35324C17.0104 5.32883 17.687 6.67013 17.8313 8.11666L18.2682 11.6667C16.3155 10.7147 14.1717 10.2201 11.9993 10.2201C9.82697 10.2201 7.68314 10.7147 5.73047 11.6667L6.16736 8.11666Z" fill="#66E1FF"/>
<path d="M15.019 3.67631C14.1724 3.16727 13.2109 2.88048 12.2238 2.84257C11.2366 2.80467 10.2559 3.01689 9.37275 3.45952C8.48961 3.90215 7.73268 4.56083 7.17228 5.37434C6.61188 6.18787 6.26621 7.12984 6.16736 8.11274L5.73047 11.6667C6.41355 11.3501 7.11727 11.0801 7.83681 10.8585L15.019 3.67631Z" fill="#C2F3FF"/>
<path d="M5.24824 11.5182C7.17713 11.5182 9.58823 19.2338 9.58823 19.2338H3.16698C2.74143 19.2339 2.32776 19.0934 1.99039 18.834C1.65303 18.5747 1.41091 18.211 1.30176 17.7996C0.709594 15.5554 0.531174 11.5182 5.24824 11.5182Z" fill="#FF808C"/>
<path d="M5.73039 13.0141C6.74016 13.0141 7.86952 14.916 8.78091 16.9297C7.90424 14.6556 6.47783 11.5182 5.24817 11.5182C1.29397 11.5182 0.780887 14.3527 1.0654 16.5912C1.33544 14.7067 2.50434 13.0141 5.73039 13.0141Z" fill="#FFBFC5"/>
<path d="M5.24824 11.5182C7.17713 11.5182 9.58823 19.2338 9.58823 19.2338H3.16698C2.74143 19.2339 2.32776 19.0934 1.99039 18.834C1.65303 18.5747 1.41091 18.211 1.30176 17.7996C0.709594 15.5554 0.531174 11.5182 5.24824 11.5182Z" stroke="#191919" stroke-linecap="round" stroke-linejoin="round"/>
<path d="M18.7501 11.5182C16.8213 11.5182 14.4102 19.2338 14.4102 19.2338H20.8314C21.2569 19.2339 21.6707 19.0934 22.008 18.834C22.3454 18.5747 22.5875 18.211 22.6966 17.7996C23.2888 15.5554 23.4672 11.5182 18.7501 11.5182Z" fill="#FF808C"/>
<path d="M18.2732 13.0141C21.4944 13.0141 22.6633 14.7067 22.9334 16.5912C23.2227 14.3527 22.7029 11.5182 18.7506 11.5182C17.5209 11.5182 16.0945 14.6556 15.2227 16.9287C16.135 14.916 17.2634 13.0141 18.2732 13.0141Z" fill="#FFBFC5"/>
<path d="M18.7501 11.5182C16.8213 11.5182 14.4102 19.2338 14.4102 19.2338H20.8314C21.2569 19.2339 21.6707 19.0934 22.008 18.834C22.3454 18.5747 22.5875 18.211 22.6966 17.7996C23.2888 15.5554 23.4672 11.5182 18.7501 11.5182Z" stroke="#191919" stroke-linecap="round" stroke-linejoin="round"/>
<path d="M6.16736 8.11666C6.31163 6.67013 6.98833 5.32883 8.06606 4.35324C9.14379 3.37765 10.5456 2.8374 11.9993 2.8374C13.453 2.8374 14.8548 3.37765 15.9326 4.35324C17.0104 5.32883 17.687 6.67013 17.8313 8.11666L18.2682 11.6667C16.3155 10.7147 14.1717 10.2201 11.9993 10.2201C9.82697 10.2201 7.68314 10.7147 5.73047 11.6667L6.16736 8.11666Z" stroke="#191919" stroke-linecap="round" stroke-linejoin="round"/>
<path d="M9.58789 19.2336H14.4101" stroke="#191919" stroke-linecap="round" stroke-linejoin="round"/>
<path d="M6.69467 19.2337V20.6804C6.69467 20.8083 6.64387 20.931 6.55343 21.0214C6.46301 21.1118 6.34035 21.1626 6.21245 21.1626H3.31913C3.19124 21.1626 3.06858 21.1118 2.97816 21.0214C2.88772 20.931 2.83691 20.8083 2.83691 20.6804V19.2048L6.69467 19.2337Z" fill="#808080" stroke="#191919" stroke-linecap="round" stroke-linejoin="round"/>
<path d="M17.3037 19.2337V20.6804C17.3037 20.8083 17.3545 20.931 17.4449 21.0214C17.5354 21.1118 17.658 21.1626 17.7859 21.1626H20.6793C20.8071 21.1626 20.9298 21.1118 21.0203 21.0214C21.1106 20.931 21.1615 20.8083 21.1615 20.6804V19.2048L17.3037 19.2337Z" fill="#808080" stroke="#191919" stroke-linecap="round" stroke-linejoin="round"/>
<path d="M19.7142 17.0966C20.5132 17.0966 21.1609 16.4488 21.1609 15.6499C21.1609 14.8509 20.5132 14.2032 19.7142 14.2032C18.9153 14.2032 18.2676 14.8509 18.2676 15.6499C18.2676 16.4488 18.9153 17.0966 19.7142 17.0966Z" fill="#FFEF5E" stroke="#191919" stroke-linecap="round" stroke-linejoin="round"/>
<path d="M4.28357 17.0966C5.08255 17.0966 5.73023 16.4488 5.73023 15.6499C5.73023 14.8509 5.08255 14.2032 4.28357 14.2032C3.4846 14.2032 2.83691 14.8509 2.83691 15.6499C2.83691 16.4488 3.4846 17.0966 4.28357 17.0966Z" fill="#FFEF5E" stroke="#191919" stroke-linecap="round" stroke-linejoin="round"/>
</g>
<defs>
<clipPath id="clip0_5303_12219">
<rect width="24" height="24" fill="white"/>
</clipPath>
</defs>
</svg>
