<svg width="24" height="24" viewBox="0 0 24 24" fill="none" xmlns="http://www.w3.org/2000/svg">
<g clip-path="url(#clip0_5303_12183)">
<path d="M11.9998 22.9999C18.0748 22.9999 22.9995 18.0752 22.9995 12.0002C22.9995 5.92513 18.0748 1.00037 11.9998 1.00037C5.92477 1.00037 1 5.92513 1 12.0002C1 18.0752 5.92477 22.9999 11.9998 22.9999Z" fill="#66E1FF"/>
<path d="M4.22187 19.7784C2.15894 17.7155 1 14.9176 1 12.0001C1 9.08271 2.15894 6.28479 4.22187 4.22187C6.28479 2.15894 9.08272 1 12.0001 1C14.9176 1 17.7155 2.15894 19.7784 4.22187L4.22187 19.7784Z" fill="#C2F3FF"/>
<path d="M14.6411 16.7148C15.1969 16.7232 15.7487 16.6211 16.2644 16.4142C16.7803 16.2074 17.2498 15.9 17.6457 15.51C18.0417 15.1201 18.3561 14.6552 18.5707 14.1425C18.7853 13.6299 18.8959 13.0796 18.8959 12.5239C18.8959 11.9682 18.7853 11.418 18.5707 10.9053C18.3561 10.3927 18.0417 9.92784 17.6457 9.53785C17.2498 9.14786 16.7803 8.84049 16.2644 8.63365C15.7487 8.42681 15.1969 8.3246 14.6411 8.333C14.0784 8.33053 13.5371 8.54829 13.1327 8.93972C12.7284 9.33116 12.4932 9.86521 12.4775 10.4277V14.6191C12.493 15.1818 12.728 15.7161 13.1324 16.1078C13.5368 16.4994 14.0782 16.7173 14.6411 16.7148Z" fill="#E3E3E3"/>
<path d="M11.9998 22.9999C18.0748 22.9999 22.9995 18.0752 22.9995 12.0002C22.9995 5.92513 18.0748 1.00037 11.9998 1.00037C5.92477 1.00037 1 5.92513 1 12.0002C1 18.0752 5.92477 22.9999 11.9998 22.9999Z" stroke="#191919" stroke-linecap="round" stroke-linejoin="round"/>
<path d="M14.6411 16.7148C15.1969 16.7232 15.7487 16.6211 16.2644 16.4142C16.7803 16.2074 17.2498 15.9 17.6457 15.51C18.0417 15.1201 18.3561 14.6552 18.5707 14.1425C18.7853 13.6299 18.8959 13.0796 18.8959 12.5239C18.8959 11.9682 18.7853 11.418 18.5707 10.9053C18.3561 10.3927 18.0417 9.92784 17.6457 9.53785C17.2498 9.14786 16.7803 8.84049 16.2644 8.63365C15.7487 8.42681 15.1969 8.3246 14.6411 8.333C14.0784 8.33053 13.5371 8.54829 13.1327 8.93972C12.7284 9.33116 12.4932 9.86521 12.4775 10.4277V14.6191C12.493 15.1818 12.728 15.7161 13.1324 16.1078C13.5368 16.4994 14.0782 16.7173 14.6411 16.7148Z" stroke="#191919" stroke-linecap="round" stroke-linejoin="round"/>
<path d="M10.5944 12.4785H5.78223" stroke="#191919" stroke-linecap="round" stroke-linejoin="round"/>
<path d="M10.5647 9.60901H5.78223" stroke="#191919" stroke-linecap="round" stroke-linejoin="round"/>
<path d="M10.5944 15.348H5.78223" stroke="#191919" stroke-linecap="round" stroke-linejoin="round"/>
</g>
<defs>
<clipPath id="clip0_5303_12183">
<rect width="24" height="24" fill="white"/>
</clipPath>
</defs>
</svg>
