<svg width="24" height="24" viewBox="0 0 24 24" fill="none" xmlns="http://www.w3.org/2000/svg">
<g clip-path="url(#clip0_5303_11940)">
<path d="M19.3546 4.22827C19.1645 4.41858 19.0576 4.67661 19.0576 4.94566C19.0576 5.21471 19.1645 5.47275 19.3546 5.66305C19.4491 5.75709 19.5241 5.86888 19.5753 5.99199C19.6265 6.11511 19.6528 6.24712 19.6528 6.38044C19.6528 6.51377 19.6265 6.64578 19.5753 6.7689C19.5241 6.89201 19.4491 7.0038 19.3546 7.09784H21.7459C21.8405 7.0038 21.9155 6.89201 21.9666 6.7689C22.0178 6.64578 22.0442 6.51377 22.0442 6.38044C22.0442 6.24712 22.0178 6.11511 21.9666 5.99199C21.9155 5.86888 21.8405 5.75709 21.7459 5.66305C21.5558 5.47275 21.4489 5.21471 21.4489 4.94566C21.4489 4.67661 21.5558 4.41858 21.7459 4.22827H19.3546Z" fill="#E3E3E3"/>
<path d="M20.535 16.9022C20.9696 16.9022 21.3923 16.7608 21.7392 16.4991C22.0861 16.2375 22.3383 15.8699 22.4577 15.4521C22.6023 14.9465 22.542 14.4043 22.2898 13.943C22.0375 13.4816 21.6136 13.1382 21.1099 12.9871L17.5478 11.6413L14.7739 8.16717C14.5943 7.91072 14.3555 7.70135 14.0778 7.55682C13.8 7.41229 13.4915 7.33685 13.1784 7.33691H7.68992C7.34262 7.33695 7.00165 7.42982 6.7023 7.60589C6.40295 7.78197 6.1561 8.03486 5.98731 8.33838L4.15653 11.6413L1.86757 13.4903C1.6014 13.6567 1.38206 13.8883 1.23026 14.1631C1.07846 14.438 0.99921 14.7469 1.00001 15.0609C1.00001 15.5505 1.1945 16.02 1.54071 16.3662C1.88692 16.7125 2.35648 16.907 2.84609 16.907L20.535 16.9022Z" fill="#FFBC44"/>
<path d="M5.39031 9.60865H15.2769C15.5144 9.60844 15.7513 9.6328 15.9838 9.68134L14.7747 8.16717C14.5951 7.91072 14.3563 7.70135 14.0786 7.55682C13.8009 7.41229 13.4924 7.33685 13.1793 7.33691H7.69075C7.34345 7.33695 7.00248 7.42982 6.70313 7.60589C6.40378 7.78197 6.15693 8.03486 5.98814 8.33838L5.28223 9.60865H5.39031Z" fill="#FFE4B4"/>
<path d="M19.8741 16.9022H20.535C20.9696 16.9022 21.3923 16.7608 21.7392 16.4991C22.0861 16.2375 22.3383 15.8699 22.4577 15.4521C22.6023 14.9465 22.542 14.4043 22.2898 13.943C22.0375 13.4816 21.6136 13.1382 21.1099 12.9871L17.5478 11.6413L14.7739 8.16717C14.5943 7.91072 14.3555 7.70135 14.0778 7.55682C13.8 7.41229 13.4915 7.33685 13.1784 7.33691H7.68992C7.34262 7.33695 7.00165 7.42982 6.7023 7.60589C6.40295 7.78197 6.1561 8.03486 5.98731 8.33838L4.15653 11.6413L1.86757 13.4903C1.6014 13.6567 1.38206 13.8883 1.23026 14.1631C1.07846 14.438 0.99921 14.7469 1.00001 15.0609C1.00001 15.5505 1.1945 16.02 1.54071 16.3662C1.88692 16.7125 2.35648 16.907 2.84609 16.907H3.1694" stroke="#191919" stroke-linecap="round" stroke-linejoin="round"/>
<path d="M16.5603 16.9022H6.48242" stroke="#191919" stroke-linecap="round" stroke-linejoin="round"/>
<path d="M18.2177 19.7717C18.7251 19.7717 19.2117 19.5702 19.5705 19.2114C19.9292 18.8527 20.1308 18.3661 20.1308 17.8587C20.1308 17.3513 19.9292 16.8647 19.5705 16.506C19.2117 16.1472 18.7251 15.9457 18.2177 15.9457C17.7104 15.9457 17.2238 16.1472 16.865 16.506C16.5062 16.8647 16.3047 17.3513 16.3047 17.8587C16.3047 18.3661 16.5062 18.8527 16.865 19.2114C17.2238 19.5702 17.7104 19.7717 18.2177 19.7717Z" fill="#808080" stroke="#191919" stroke-linecap="round" stroke-linejoin="round"/>
<path d="M4.82613 19.7717C5.3335 19.7717 5.82009 19.5702 6.17886 19.2114C6.53762 18.8527 6.73917 18.3661 6.73917 17.8587C6.73917 17.3513 6.53762 16.8647 6.17886 16.506C5.82009 16.1472 5.3335 15.9457 4.82613 15.9457C4.31876 15.9457 3.83217 16.1472 3.4734 16.506C3.11464 16.8647 2.91309 17.3513 2.91309 17.8587C2.91309 18.3661 3.11464 18.8527 3.4734 19.2114C3.83217 19.5702 4.31876 19.7717 4.82613 19.7717Z" fill="#808080" stroke="#191919" stroke-linecap="round" stroke-linejoin="round"/>
<path d="M14.8693 12.1196L13.2623 9.70913C13.1679 9.56748 13.0398 9.45142 12.8896 9.3713C12.7394 9.29119 12.5717 9.24951 12.4014 9.25H10.0867C9.95982 9.25 9.83817 9.30038 9.74848 9.39008C9.65879 9.47977 9.6084 9.60141 9.6084 9.72826V11.6413C9.6084 11.7681 9.65879 11.8898 9.74848 11.9795C9.83817 12.0692 9.95982 12.1196 10.0867 12.1196H14.8693Z" fill="#66E1FF"/>
<path d="M10.0867 12.1196H10.5152L13.1074 9.52739C12.9161 9.34948 12.6654 9.25 12.4043 9.25H10.0867C9.95982 9.25 9.83817 9.30039 9.74848 9.39008C9.65879 9.47977 9.6084 9.60142 9.6084 9.72826V11.6413C9.6084 11.7681 9.65879 11.8898 9.74848 11.9795C9.83817 12.0692 9.95982 12.1196 10.0867 12.1196Z" fill="#C2F3FF"/>
<path d="M14.8693 12.1196L13.2623 9.70913C13.1679 9.56748 13.0398 9.45142 12.8896 9.3713C12.7394 9.29119 12.5717 9.24951 12.4014 9.25H10.0867C9.95982 9.25 9.83817 9.30038 9.74848 9.39008C9.65879 9.47977 9.6084 9.60141 9.6084 9.72826V11.6413C9.6084 11.7681 9.65879 11.8898 9.74848 11.9795C9.83817 12.0692 9.95982 12.1196 10.0867 12.1196H14.8693Z" stroke="#191919" stroke-linecap="round" stroke-linejoin="round"/>
<path d="M17.5479 11.6413L20.008 10.4696C20.4827 10.2435 21.008 10.1445 21.5324 10.1823C22.0569 10.22 22.5625 10.3931 23 10.6848" stroke="#191919" stroke-linecap="round" stroke-linejoin="round"/>
<path d="M21.7453 7.09784C21.8398 7.0038 21.9148 6.89201 21.9659 6.7689C22.0171 6.64578 22.0435 6.51377 22.0435 6.38044C22.0435 6.24712 22.0171 6.11511 21.9659 5.99199C21.9148 5.86888 21.8398 5.75709 21.7453 5.66305C21.5551 5.47275 21.4482 5.21471 21.4482 4.94566C21.4482 4.67661 21.5551 4.41858 21.7453 4.22827" stroke="#191919" stroke-linecap="round" stroke-linejoin="round"/>
<path d="M19.3546 7.09784C19.4491 7.0038 19.5241 6.89201 19.5753 6.7689C19.6265 6.64578 19.6528 6.51377 19.6528 6.38044C19.6528 6.24712 19.6265 6.11511 19.5753 5.99199C19.5241 5.86888 19.4491 5.75709 19.3546 5.66305C19.1645 5.47275 19.0576 5.21471 19.0576 4.94566C19.0576 4.67661 19.1645 4.41858 19.3546 4.22827" stroke="#191919" stroke-linecap="round" stroke-linejoin="round"/>
</g>
<defs>
<clipPath id="clip0_5303_11940">
<rect width="24" height="24" fill="white"/>
</clipPath>
</defs>
</svg>
