<svg width="24" height="24" viewBox="0 0 24 24" fill="none" xmlns="http://www.w3.org/2000/svg">
<g clip-path="url(#clip0_5303_11900)">
<path d="M3.5 6.5L3.847 3.334C3.88864 2.83405 4.11665 2.36801 4.48581 2.0283C4.85497 1.68859 5.33832 1.50002 5.84 1.5H15.16C15.6617 1.50002 16.145 1.68859 16.5142 2.0283C16.8834 2.36801 17.1114 2.83405 17.153 3.334L17.5 6.5H3.5Z" fill="#66E1FF"/>
<path d="M12.865 1.5H5.84C5.33832 1.50002 4.85497 1.68859 4.48581 2.0283C4.11665 2.36801 3.88864 2.83405 3.847 3.334L3.5 6.5H7.865L12.865 1.5Z" fill="#C2F3FF"/>
<path d="M3 6.5H18C18.5304 6.5 19.0391 6.71071 19.4142 7.08579C19.7893 7.46086 20 7.96957 20 8.5V11.5C20 11.7652 19.8946 12.0196 19.7071 12.2071C19.5196 12.3946 19.2652 12.5 19 12.5H2C1.73478 12.5 1.48043 12.3946 1.29289 12.2071C1.10536 12.0196 1 11.7652 1 11.5V8.5C1 7.96957 1.21071 7.46086 1.58579 7.08579C1.96086 6.71071 2.46957 6.5 3 6.5Z" fill="#FFBC44"/>
<path d="M18 6.5H3C2.46957 6.5 1.96086 6.71071 1.58579 7.08579C1.21071 7.46086 1 7.96957 1 8.5V10.5C1 9.96957 1.21071 9.46086 1.58579 9.08579C1.96086 8.71071 2.46957 8.5 3 8.5H18C18.5304 8.5 19.0391 8.71071 19.4142 9.08579C19.7893 9.46086 20 9.96957 20 10.5V8.5C20 7.96957 19.7893 7.46086 19.4142 7.08579C19.0391 6.71071 18.5304 6.5 18 6.5Z" fill="#FFDDA1"/>
<path d="M17 10.5C17.5523 10.5 18 10.0523 18 9.5C18 8.94772 17.5523 8.5 17 8.5C16.4477 8.5 16 8.94772 16 9.5C16 10.0523 16.4477 10.5 17 10.5Z" fill="#FFEF5E"/>
<path d="M15 12.5H2C1.73478 12.5 1.48043 12.3946 1.29289 12.2071C1.10536 12.0196 1 11.7652 1 11.5V8.5C1 7.96957 1.21071 7.46086 1.58579 7.08579C1.96086 6.71071 2.46957 6.5 3 6.5H18C18.5304 6.5 19.0391 6.71071 19.4142 7.08579C19.7893 7.46086 20 7.96957 20 8.5" stroke="#191919" stroke-linecap="round" stroke-linejoin="round"/>
<path d="M3.5 6.5L3.847 3.334C3.88864 2.83405 4.11665 2.36801 4.48581 2.0283C4.85497 1.68859 5.33832 1.50002 5.84 1.5H15.16C15.6617 1.50002 16.145 1.68859 16.5142 2.0283C16.8834 2.36801 17.1114 2.83405 17.153 3.334L17.5 6.5" stroke="#191919" stroke-linecap="round" stroke-linejoin="round"/>
<path d="M4 10.5C4.55228 10.5 5 10.0523 5 9.5C5 8.94772 4.55228 8.5 4 8.5C3.44772 8.5 3 8.94772 3 9.5C3 10.0523 3.44772 10.5 4 10.5Z" fill="#FFEF5E" stroke="#191919" stroke-linecap="round" stroke-linejoin="round"/>
<path d="M16.1072 9.97001C16.0281 9.81665 15.9897 9.64555 15.9957 9.47309C16.0017 9.30064 16.0518 9.13261 16.1413 8.98509C16.2308 8.83757 16.3567 8.7155 16.5069 8.63056C16.6571 8.54563 16.8266 8.50068 16.9992 8.50001C17.2603 8.49871 17.5115 8.59956 17.6992 8.78101" stroke="#191919" stroke-linecap="round" stroke-linejoin="round"/>
<path d="M6 12.5V14C6 14.3978 5.84196 14.7794 5.56066 15.0607C5.27936 15.342 4.89782 15.5 4.5 15.5C4.10218 15.5 3.72064 15.342 3.43934 15.0607C3.15804 14.7794 3 14.3978 3 14V12.5H6Z" fill="#808080" stroke="#191919" stroke-linecap="round" stroke-linejoin="round"/>
<path d="M1 4.5L3.5 6.5" stroke="#191919" stroke-linecap="round" stroke-linejoin="round"/>
<path d="M20 4.5L17.5 6.5" stroke="#191919" stroke-linecap="round" stroke-linejoin="round"/>
<path d="M23 18.5C23 19.5609 22.5786 20.5783 21.8284 21.3284C21.0783 22.0786 20.0609 22.5 19 22.5C17.9391 22.5 16.9217 22.0786 16.1716 21.3284C15.4214 20.5783 15 19.5609 15 18.5C15 16.291 19 11 19 11C19 11 23 16.291 23 18.5Z" fill="#B2B2B2"/>
<path d="M19 19.4999C18.2198 19.5001 17.4567 19.2722 16.8044 18.8442C16.1522 18.4161 15.6393 17.8067 15.329 17.0909C15.1388 17.5381 15.0275 18.0148 15 18.4999C15 19.5608 15.4214 20.5782 16.1716 21.3284C16.9217 22.0785 17.9391 22.4999 19 22.4999C20.0609 22.4999 21.0783 22.0785 21.8284 21.3284C22.5786 20.5782 23 19.5608 23 18.4999C22.9725 18.0148 22.8612 17.5381 22.671 17.0909C22.3607 17.8067 21.8478 18.4161 21.1956 18.8442C20.5433 19.2722 19.7802 19.5001 19 19.4999Z" fill="#808080"/>
<path d="M23 18.5C23 19.5609 22.5786 20.5783 21.8284 21.3284C21.0783 22.0786 20.0609 22.5 19 22.5C17.9391 22.5 16.9217 22.0786 16.1716 21.3284C15.4214 20.5783 15 19.5609 15 18.5C15 16.291 19 11 19 11C19 11 23 16.291 23 18.5Z" stroke="#191919" stroke-linecap="round" stroke-linejoin="round"/>
</g>
<defs>
<clipPath id="clip0_5303_11900">
<rect width="24" height="24" fill="white"/>
</clipPath>
</defs>
</svg>
