<svg width="24" height="24" viewBox="0 0 24 24" fill="none" xmlns="http://www.w3.org/2000/svg">
<g clip-path="url(#clip0_5303_11854)">
<path d="M20.0002 11.85C20.0059 13.9865 19.1692 16.0392 17.6716 17.5629C16.1739 19.0866 14.1359 19.9585 11.9996 19.9896C10.9564 20.0055 9.92032 19.814 8.95163 19.4264C7.98293 19.0387 7.10086 18.4625 6.3566 17.7313C5.61233 17 5.02068 16.1283 4.61598 15.1666C4.21128 14.2049 4.00158 13.1724 3.99905 12.129C3.9933 9.99239 4.82995 7.93961 6.32761 6.41574C7.82527 4.89188 9.86322 4.01974 11.9996 3.98843C13.0428 3.97281 14.0787 4.16443 15.0473 4.55219C16.0159 4.93995 16.8978 5.51612 17.642 6.24731C18.3863 6.9785 18.9779 7.85016 19.3827 8.81173C19.7875 9.77331 19.9974 10.8067 20.0002 11.85Z" fill="#FFEF5E"/>
<path d="M6.31408 17.6854L17.6999 6.29962C16.9576 5.54603 16.0689 4.95232 15.0886 4.55503C14.1082 4.15773 13.057 3.96526 11.9995 3.98945C10.4161 3.99815 8.87037 4.47372 7.55592 5.35663C6.24147 6.23954 5.21665 7.49056 4.60975 8.95309C4.00286 10.4156 3.84085 12.0247 4.14401 13.5788C4.44716 15.133 5.20202 16.5632 6.31408 17.6904V17.6854Z" fill="#FFF9BF"/>
<path d="M20.0002 11.85C20.0059 13.9865 19.1692 16.0392 17.6716 17.5629C16.1739 19.0866 14.1359 19.9585 11.9996 19.9896C10.9564 20.0055 9.92032 19.814 8.95163 19.4264C7.98293 19.0387 7.10086 18.4625 6.3566 17.7313C5.61233 17 5.02068 16.1283 4.61598 15.1666C4.21128 14.2049 4.00158 13.1724 3.99905 12.129C3.9933 9.99239 4.82995 7.93961 6.32761 6.41574C7.82527 4.89188 9.86322 4.01974 11.9996 3.98843C13.0428 3.97281 14.0787 4.16443 15.0473 4.55219C16.0159 4.93995 16.8978 5.51612 17.642 6.24731C18.3863 6.9785 18.9779 7.85016 19.3827 8.81173C19.7875 9.77331 19.9974 10.8067 20.0002 11.85Z" stroke="#191919" stroke-linecap="round" stroke-linejoin="round"/>
<path d="M11.999 12.9891V7.98767" stroke="#191919" stroke-linecap="round" stroke-linejoin="round"/>
<path d="M12.249 15.7583C12.248 15.6927 12.2212 15.6301 12.1744 15.5841C12.1276 15.538 12.0646 15.5122 11.999 15.5122" stroke="#191919" stroke-linecap="round" stroke-linejoin="round"/>
<path d="M12.0039 16.0123C12.0532 16.0113 12.1012 15.9957 12.1417 15.9676C12.1823 15.9395 12.2137 15.9001 12.2319 15.8543C12.2438 15.8237 12.2496 15.7911 12.2489 15.7583" stroke="#191919" stroke-linecap="round" stroke-linejoin="round"/>
<path d="M11.999 16.0123H12.004" stroke="#191919" stroke-linecap="round" stroke-linejoin="round"/>
<path d="M11.751 15.7664C11.7518 15.8319 11.7783 15.8945 11.825 15.9405C11.8716 15.9866 11.9345 16.0124 12 16.0124" stroke="#191919" stroke-linecap="round" stroke-linejoin="round"/>
<path d="M11.999 15.5122C11.9328 15.5136 11.8699 15.541 11.824 15.5886C11.7781 15.6363 11.7529 15.7001 11.7539 15.7663" stroke="#191919" stroke-linecap="round" stroke-linejoin="round"/>
<path d="M11.9981 15.5122H11.9941" stroke="#191919" stroke-linecap="round" stroke-linejoin="round"/>
<path d="M4.49902 20.0345C3.39877 19.0087 2.52059 17.7681 1.91877 16.3895C1.31695 15.0108 1.00426 13.5234 1.00004 12.0191C0.995824 10.5149 1.30016 9.02577 1.89425 7.64379C2.48833 6.2618 3.35954 5.01634 4.45402 3.98438" stroke="#191919" stroke-linecap="round" stroke-linejoin="round"/>
<path d="M19.523 3.96338C20.6225 4.9941 21.4985 6.23975 22.0967 7.62306C22.6949 9.00638 23.0024 10.4978 23.0002 12.0049C22.9981 13.512 22.6863 15.0026 22.0842 16.3842C21.4821 17.7658 20.6025 19.0089 19.5 20.0365" stroke="#191919" stroke-linecap="round" stroke-linejoin="round"/>
</g>
<defs>
<clipPath id="clip0_5303_11854">
<rect width="24" height="24" fill="white"/>
</clipPath>
</defs>
</svg>
