<svg width="24" height="24" viewBox="0 0 24 24" fill="none" xmlns="http://www.w3.org/2000/svg">
<g clip-path="url(#clip0_5303_12535)">
<path d="M19.174 1H4.82613C4.31876 1 3.83217 1.20155 3.4734 1.56032C3.11464 1.91908 2.91309 2.40567 2.91309 2.91304V21.087C2.91309 21.5943 3.11464 22.0809 3.4734 22.4397C3.83217 22.7984 4.31876 23 4.82613 23H19.174C19.6813 23 20.1679 22.7984 20.5267 22.4397C20.8854 22.0809 21.087 21.5943 21.087 21.087V2.91304C21.087 2.40567 20.8854 1.91908 20.5267 1.56032C20.1679 1.20155 19.6813 1 19.174 1Z" fill="#E3E3E3"/>
<path d="M19.174 1H4.82613C4.31922 1.00151 3.83351 1.20355 3.47508 1.56199C3.11664 1.92043 2.9146 2.40614 2.91309 2.91304V21.087L21.087 2.91304C21.0855 2.40614 20.8834 1.92043 20.525 1.56199C20.1666 1.20355 19.6809 1.00151 19.174 1Z" fill="white"/>
<path d="M19.174 1H4.82613C4.31876 1 3.83217 1.20155 3.4734 1.56032C3.11464 1.91908 2.91309 2.40567 2.91309 2.91304V21.087C2.91309 21.5943 3.11464 22.0809 3.4734 22.4397C3.83217 22.7984 4.31876 23 4.82613 23H19.174C19.6813 23 20.1679 22.7984 20.5267 22.4397C20.8854 22.0809 21.087 21.5943 21.087 21.087V2.91304C21.087 2.40567 20.8854 1.91908 20.5267 1.56032C20.1679 1.20155 19.6813 1 19.174 1Z" stroke="#191919" stroke-linecap="round" stroke-linejoin="round"/>
<path d="M12.0002 10.8742C11.4425 8.3738 8.65234 8.6091 8.65234 11.252C8.65234 13.7036 12.0002 16.113 12.0002 16.113C12.0002 16.113 15.348 13.7017 15.348 11.2501C15.348 8.60911 12.5578 8.3738 12.0002 10.8742Z" fill="#FF808C" stroke="#191919" stroke-linecap="round" stroke-linejoin="round"/>
<path d="M5.3042 3.85043C5.3042 3.05747 5.94698 2.91302 6.73898 2.91302C7.53098 2.91302 8.17376 3.05747 8.17376 3.85043C8.17376 4.64337 6.73898 5.78259 6.73898 5.78259C6.73898 5.78259 5.3042 4.64243 5.3042 3.85043Z" fill="#FF808C" stroke="#191919" stroke-linecap="round" stroke-linejoin="round"/>
<path d="M15.8262 19.1548C15.8262 18.3618 16.469 18.2174 17.261 18.2174C18.053 18.2174 18.6957 18.3618 18.6957 19.1548C18.6957 19.9477 17.261 21.087 17.261 21.087C17.261 21.087 15.8262 19.9468 15.8262 19.1548Z" fill="#FF808C" stroke="#191919" stroke-linecap="round" stroke-linejoin="round"/>
</g>
<defs>
<clipPath id="clip0_5303_12535">
<rect width="24" height="24" fill="white"/>
</clipPath>
</defs>
</svg>
