<svg width="24" height="24" viewBox="0 0 24 24" fill="none" xmlns="http://www.w3.org/2000/svg">
<path d="M10.7078 18.7206L6.78599 20.3468C6.66879 20.3952 6.53714 20.3951 6.42001 20.3465C6.30287 20.2979 6.20984 20.2047 6.16137 20.0875L1.03625 7.71381C0.987821 7.5966 0.98792 7.46496 1.03653 7.34783C1.08514 7.23069 1.17828 7.13766 1.29548 7.08919L6.73912 4.83368" fill="#E3E3E3"/>
<path d="M10.7078 18.7206L6.78599 20.3468C6.66879 20.3952 6.53714 20.3951 6.42001 20.3465C6.30287 20.2979 6.20984 20.2047 6.16137 20.0875L1.03625 7.71381C0.987821 7.5966 0.98792 7.46496 1.03653 7.34783C1.08514 7.23069 1.17828 7.13766 1.29548 7.08919L6.73912 4.83368" stroke="#191919" stroke-linecap="round" stroke-linejoin="round"/>
<path d="M8.21424 16.8965H7.21753C7.09068 16.8965 6.96903 16.8461 6.87934 16.7565C6.78965 16.6668 6.73926 16.5451 6.73926 16.4183V3.02673C6.73926 2.89989 6.78965 2.77823 6.87934 2.68855C6.96903 2.59885 7.09068 2.54846 7.21753 2.54846H16.7829C16.9097 2.54846 17.0314 2.59885 17.1211 2.68855C17.2107 2.77823 17.2611 2.89989 17.2611 3.02673V5.90399" fill="#E3E3E3"/>
<path d="M8.21424 16.8965H7.21753C7.09068 16.8965 6.96903 16.8461 6.87934 16.7565C6.78965 16.6668 6.73926 16.5451 6.73926 16.4183V3.02673C6.73926 2.89989 6.78965 2.77823 6.87934 2.68855C6.96903 2.59885 7.09068 2.54846 7.21753 2.54846H16.7829C16.9097 2.54846 17.0314 2.59885 17.1211 2.68855C17.2107 2.77823 17.2611 2.89989 17.2611 3.02673V5.90399" stroke="#191919" stroke-linecap="round" stroke-linejoin="round"/>
<path d="M13.2418 4.75716L8.11854 17.1309C8.01749 17.375 8.13342 17.6547 8.37746 17.7558L17.2152 21.415C17.4593 21.516 17.739 21.4002 17.8401 21.1561L22.9634 8.78236C23.0645 8.53831 22.9486 8.25855 22.7045 8.1575L13.8667 4.49824C13.6227 4.39719 13.3429 4.51311 13.2418 4.75716Z" fill="white" stroke="#191919" stroke-linecap="round" stroke-linejoin="round"/>
<path d="M14.3036 14.905L13.8349 12.5376C13.8164 12.4449 13.8258 12.3489 13.862 12.2615C13.898 12.1742 13.9592 12.0995 14.0377 12.0469L16.0464 10.7077C16.1118 10.6641 16.1869 10.6372 16.2652 10.6295C16.3434 10.6218 16.4223 10.6335 16.4949 10.6636C16.5676 10.6937 16.6317 10.7412 16.6817 10.802C16.7315 10.8627 16.7656 10.9348 16.781 11.0119L17.2507 13.3793C17.2691 13.4721 17.2595 13.5683 17.2232 13.6556C17.187 13.7429 17.1256 13.8175 17.047 13.8701L15.0382 15.2092C14.9728 15.2528 14.8977 15.2797 14.8195 15.2874C14.7412 15.2951 14.6623 15.2834 14.5897 15.2533C14.517 15.2233 14.4529 15.1757 14.403 15.115C14.3532 15.0542 14.319 14.9821 14.3036 14.905Z" fill="#FF808C" stroke="#191919" stroke-linecap="round" stroke-linejoin="round"/>
<path d="M3.66553 8.19781C3.72895 8.19781 3.78977 8.22302 3.83462 8.26787C3.87947 8.31271 3.90466 8.37353 3.90466 8.43695" stroke="#191919" stroke-linecap="round" stroke-linejoin="round"/>
<path d="M3.42627 8.43695C3.42627 8.37353 3.45146 8.31271 3.49631 8.26787C3.54116 8.22302 3.60198 8.19781 3.6654 8.19781" stroke="#191919" stroke-linecap="round" stroke-linejoin="round"/>
<path d="M3.6654 8.67608C3.60198 8.67608 3.54116 8.65089 3.49631 8.60604C3.45146 8.56119 3.42627 8.50038 3.42627 8.43695" stroke="#191919" stroke-linecap="round" stroke-linejoin="round"/>
<path d="M3.90466 8.43695C3.90466 8.50038 3.87947 8.56119 3.83462 8.60604C3.78977 8.65089 3.72895 8.67608 3.66553 8.67608" stroke="#191919" stroke-linecap="round" stroke-linejoin="round"/>
<path d="M8.8916 4.46155C8.95502 4.46155 9.01585 4.48674 9.0607 4.53158C9.10554 4.57644 9.13074 4.63726 9.13074 4.70068" stroke="#191919" stroke-linecap="round" stroke-linejoin="round"/>
<path d="M8.65234 4.70068C8.65234 4.63726 8.67754 4.57644 8.72238 4.53158C8.76723 4.48674 8.82806 4.46155 8.89148 4.46155" stroke="#191919" stroke-linecap="round" stroke-linejoin="round"/>
<path d="M8.89148 4.93981C8.82806 4.93981 8.76723 4.91462 8.72238 4.86978C8.67754 4.82492 8.65234 4.7641 8.65234 4.70068" stroke="#191919" stroke-linecap="round" stroke-linejoin="round"/>
<path d="M9.13074 4.70068C9.13074 4.7641 9.10554 4.82492 9.0607 4.86978C9.01585 4.91462 8.95502 4.93981 8.8916 4.93981" stroke="#191919" stroke-linecap="round" stroke-linejoin="round"/>
<path d="M14.5903 6.88831C14.6538 6.88831 14.7146 6.91351 14.7594 6.95835C14.8043 7.0032 14.8295 7.06402 14.8295 7.12745" stroke="#191919" stroke-linecap="round" stroke-linejoin="round"/>
<path d="M14.3511 7.12745C14.3511 7.06402 14.3762 7.0032 14.4211 6.95835C14.466 6.91351 14.5268 6.88831 14.5902 6.88831" stroke="#191919" stroke-linecap="round" stroke-linejoin="round"/>
<path d="M14.5902 7.36657C14.5268 7.36657 14.466 7.34138 14.4211 7.29653C14.3762 7.25168 14.3511 7.19086 14.3511 7.12744" stroke="#191919" stroke-linecap="round" stroke-linejoin="round"/>
<path d="M14.8295 7.12744C14.8295 7.19086 14.8043 7.25168 14.7594 7.29653C14.7146 7.34138 14.6538 7.36657 14.5903 7.36657" stroke="#191919" stroke-linecap="round" stroke-linejoin="round"/>
<path d="M16.4961 18.5466C16.5595 18.5466 16.6203 18.5717 16.6652 18.6166C16.7101 18.6614 16.7352 18.7223 16.7352 18.7857" stroke="#191919" stroke-linecap="round" stroke-linejoin="round"/>
<path d="M16.2524 18.7857C16.2524 18.7223 16.2776 18.6614 16.3225 18.6166C16.3673 18.5717 16.4282 18.5466 16.4916 18.5466" stroke="#191919" stroke-linecap="round" stroke-linejoin="round"/>
<path d="M16.496 19.0248C16.4326 19.0248 16.3717 18.9997 16.3269 18.9548C16.282 18.9099 16.2568 18.8491 16.2568 18.7857" stroke="#191919" stroke-linecap="round" stroke-linejoin="round"/>
<path d="M16.7303 18.7857C16.7303 18.8491 16.7052 18.9099 16.6603 18.9548C16.6155 18.9997 16.5546 19.0248 16.4912 19.0248" stroke="#191919" stroke-linecap="round" stroke-linejoin="round"/>
</svg>
