<svg width="24" height="24" viewBox="0 0 24 24" fill="none" xmlns="http://www.w3.org/2000/svg">
<g clip-path="url(#clip0_5303_8259)">
<path d="M10.5658 20.1307C15.848 20.1307 20.1302 15.8486 20.1302 10.5663C20.1302 5.28406 15.848 1.00195 10.5658 1.00195C5.28357 1.00195 1.00146 5.28406 1.00146 10.5663C1.00146 15.8486 5.28357 20.1307 10.5658 20.1307Z" fill="#66E1FF"/>
<path d="M10.5657 1.00001C8.67429 0.999907 6.82533 1.5605 5.25258 2.61102C3.67973 3.66154 2.45373 5.15475 1.72947 6.90201C1.00521 8.64917 0.815294 10.572 1.18362 12.4271C1.55195 14.2823 2.46203 15.9866 3.79889 17.3245L17.3249 3.79954C16.4381 2.91064 15.3845 2.2058 14.2246 1.72534C13.0646 1.24497 11.8213 0.998443 10.5657 1.00001Z" fill="#C2F3FF"/>
<path d="M10.5658 20.1307C15.848 20.1307 20.1302 15.8486 20.1302 10.5663C20.1302 5.28406 15.848 1.00195 10.5658 1.00195C5.28357 1.00195 1.00146 5.28406 1.00146 10.5663C1.00146 15.8486 5.28357 20.1307 10.5658 20.1307Z" stroke="#191919" stroke-linecap="round" stroke-linejoin="round"/>
<path d="M17.3301 17.3312L22.9998 23" stroke="#191919" stroke-linecap="round" stroke-linejoin="round"/>
<path d="M10.6348 7.76674V6.8103" stroke="#191919" stroke-linecap="round" stroke-linejoin="round"/>
<path d="M12.0689 7.76672H10.1244C9.82593 7.76643 9.53676 7.87008 9.30653 8.0599C9.0762 8.24973 8.91927 8.51382 8.86266 8.8068C8.80606 9.09978 8.85329 9.4034 8.99627 9.66535C9.13935 9.9273 9.36909 10.1312 9.64616 10.242L11.6194 11.0311C11.8957 11.1423 12.1249 11.3463 12.2674 11.608C12.4099 11.8696 12.457 12.1729 12.4004 12.4655C12.3438 12.7581 12.1873 13.0219 11.9575 13.2116C11.7277 13.4013 11.4391 13.5052 11.1411 13.5054H9.19956" stroke="#191919" stroke-linecap="round" stroke-linejoin="round"/>
<path d="M10.6348 14.4618V13.5054" stroke="#191919" stroke-linecap="round" stroke-linejoin="round"/>
</g>
<defs>
<clipPath id="clip0_5303_8259">
<rect width="24" height="24" fill="white"/>
</clipPath>
</defs>
</svg>
