<svg width="24" height="24" viewBox="0 0 24 24" fill="none" xmlns="http://www.w3.org/2000/svg">
<g clip-path="url(#clip0_5303_8403)">
<path d="M15.348 13.2434C16.1293 13.258 16.9056 13.1168 17.6318 12.828C18.3579 12.5392 19.0192 12.1087 19.5771 11.5615C20.1349 11.0143 20.5782 10.3614 20.8809 9.64102C21.1837 8.92062 21.3399 8.14712 21.3404 7.36568C21.3409 6.58425 21.1857 5.81054 20.8839 5.08975C20.5821 4.36895 20.1397 3.71551 19.5825 3.16759C19.0254 2.61967 18.3646 2.18825 17.6389 1.89852C16.9131 1.60879 16.1369 1.46656 15.3556 1.48014C13.814 1.50692 12.3446 2.13785 11.2635 3.23715C10.1825 4.33644 9.5762 5.81623 9.5752 7.35803C9.57419 8.89983 10.1785 10.3804 11.2582 11.4811C12.3378 12.5818 13.8064 13.2147 15.348 13.2434Z" fill="#FFEF5E"/>
<path d="M15.3475 1.47827C14.1916 1.47743 13.0611 1.81741 12.0974 2.45569C11.1337 3.09398 10.3796 4.00224 9.92945 5.06686C9.47927 6.13148 9.35297 7.30521 9.56637 8.44124C9.77977 9.57726 10.3234 10.6252 11.1292 11.4538L19.4414 3.14166C18.3463 2.07391 16.877 1.47691 15.3475 1.47827Z" fill="#FFF9BF"/>
<path d="M20.1304 16.7826L15.9017 18.1887H15.8911C15.9777 18.0289 16.0173 17.8478 16.0053 17.6664C15.9934 17.4851 15.9303 17.3108 15.8235 17.1637C15.7166 17.0166 15.5704 16.9028 15.4016 16.8354C15.2328 16.7679 15.0483 16.7497 14.8696 16.7826H12C10.8663 15.6127 9.32374 14.9271 7.69565 14.8696H4.82609L1 16.7826V22.5217L4.82609 20.1304C15.0877 23.5519 11.3027 23.5863 23 17.7391C22.6773 17.3049 22.229 16.9802 21.7158 16.8092C21.2025 16.6381 20.6491 16.6288 20.1304 16.7826Z" fill="#FFDDA1"/>
<path d="M15.348 13.2434C16.1293 13.258 16.9056 13.1168 17.6318 12.828C18.3579 12.5392 19.0192 12.1087 19.5771 11.5615C20.1349 11.0143 20.5782 10.3614 20.8809 9.64102C21.1837 8.92062 21.3399 8.14712 21.3404 7.36568C21.3409 6.58425 21.1857 5.81054 20.8839 5.08975C20.5821 4.36895 20.1397 3.71551 19.5825 3.16759C19.0254 2.61967 18.3646 2.18825 17.6389 1.89852C16.9131 1.60879 16.1369 1.46656 15.3556 1.48014C13.814 1.50692 12.3446 2.13785 11.2635 3.23715C10.1825 4.33644 9.5762 5.81623 9.5752 7.35803C9.57419 8.89983 10.1785 10.3804 11.2582 11.4811C12.3378 12.5818 13.8064 13.2147 15.348 13.2434Z" stroke="#191919" stroke-linecap="round" stroke-linejoin="round"/>
<path d="M15.3477 4.34782V3.3913" stroke="#191919" stroke-linecap="round" stroke-linejoin="round"/>
<path d="M16.7821 4.34784H14.8414C14.5433 4.34805 14.2547 4.45195 14.0249 4.64171C13.7951 4.83148 13.6385 5.09529 13.5819 5.3879C13.5254 5.68051 13.5724 5.98368 13.7149 6.24541C13.8575 6.50714 14.0866 6.71112 14.3631 6.82236L16.3374 7.61245C16.6138 7.72369 16.843 7.92767 16.9855 8.1894C17.1281 8.45113 17.1751 8.7543 17.1185 9.04691C17.062 9.33951 16.9054 9.60333 16.6756 9.79309C16.4458 9.98286 16.1571 10.0868 15.8591 10.087H13.9126" stroke="#191919" stroke-linecap="round" stroke-linejoin="round"/>
<path d="M15.3477 11.0435V10.087" stroke="#191919" stroke-linecap="round" stroke-linejoin="round"/>
<path d="M15.9017 18.1887L20.1304 16.7826C20.6491 16.6288 21.2025 16.6381 21.7158 16.8092C22.229 16.9803 22.6773 17.3049 23 17.7392C11.3027 23.5864 15.0877 23.5519 4.82609 20.1305L1 22.5218" stroke="#191919" stroke-linecap="round" stroke-linejoin="round"/>
<path d="M9.6087 18.6957H14.8696C15.0095 18.7208 15.1532 18.7149 15.2906 18.6784C15.4281 18.642 15.5558 18.5758 15.6649 18.4846C15.7739 18.3934 15.8616 18.2793 15.9218 18.1505C15.982 18.0217 16.0132 17.8813 16.0132 17.7391C16.0132 17.597 15.982 17.4565 15.9218 17.3277C15.8616 17.1989 15.7739 17.0849 15.6649 16.9937C15.5558 16.9025 15.4281 16.8363 15.2906 16.7998C15.1532 16.7634 15.0095 16.7575 14.8696 16.7826H12C10.8663 15.6127 9.32374 14.9271 7.69565 14.8696H4.82609L1 16.7826" stroke="#191919" stroke-linecap="round" stroke-linejoin="round"/>
</g>
<defs>
<clipPath id="clip0_5303_8403">
<rect width="24" height="24" fill="white"/>
</clipPath>
</defs>
</svg>
