<svg width="24" height="24" viewBox="0 0 24 24" fill="none" xmlns="http://www.w3.org/2000/svg">
<g clip-path="url(#clip0_5303_8570)">
<path d="M11.9957 17.7374C16.7783 17.7374 19.7676 12.56 17.3762 8.41802C16.2663 6.49567 14.2154 5.31143 11.9957 5.31152C7.21287 5.31179 4.22364 10.4894 6.61517 14.6312C7.7251 16.5534 9.77607 17.7374 11.9957 17.7374Z" fill="#C2F3FF"/>
<path d="M13.9117 7.70129H11.8557C10.4915 7.70174 9.63941 9.17888 10.3219 10.3601C10.4954 10.6603 10.7532 10.903 11.0633 11.0582L12.9272 11.9911C14.1472 12.6015 14.2488 14.3038 13.1101 15.055C12.8206 15.2461 12.4815 15.3478 12.1348 15.348H10.0835" stroke="#191919" stroke-linecap="round" stroke-linejoin="round"/>
<path d="M11.9956 7.7013V6.26758" stroke="#191919" stroke-linecap="round" stroke-linejoin="round"/>
<path d="M11.9956 16.7817V15.348" stroke="#191919" stroke-linecap="round" stroke-linejoin="round"/>
<path d="M17.7305 6.2675L19.7454 4.29272" stroke="#191919" stroke-linecap="round" stroke-linejoin="round"/>
<path d="M17.6938 17.7175L19.7145 19.7516" stroke="#191919" stroke-linecap="round" stroke-linejoin="round"/>
<path d="M6.26054 6.2675L4.24658 4.29272" stroke="#191919" stroke-linecap="round" stroke-linejoin="round"/>
<path d="M2.91457 4.83362C4.38612 4.83362 5.30591 3.24056 4.57013 1.96607C4.22859 1.37468 3.59747 1.01025 2.91457 1.01025C1.44292 1.01025 0.523129 2.60331 1.259 3.8778C1.60045 4.46928 2.23157 4.83362 2.91457 4.83362Z" fill="#FFEF5E"/>
<path d="M2.92011 2.53982C3.67777 2.54243 4.36239 2.99233 4.66548 3.68676C4.89254 3.18084 4.88588 2.6007 4.64728 2.1001C3.99356 0.78166 2.15767 0.66538 1.34281 1.89078C0.988839 2.42309 0.924349 3.09708 1.17087 3.68676C1.47449 2.99107 2.161 2.54099 2.92011 2.53982Z" fill="#FFF9BF"/>
<path d="M2.91457 4.83362C4.38612 4.83362 5.30591 3.24056 4.57013 1.96607C4.22859 1.37468 3.59747 1.01025 2.91457 1.01025C1.44292 1.01025 0.523129 2.60331 1.259 3.8778C1.60045 4.46928 2.23157 4.83362 2.91457 4.83362Z" stroke="#191919" stroke-linecap="round" stroke-linejoin="round"/>
<path d="M2.91457 13.4363C4.38612 13.4364 5.30591 11.8433 4.57013 10.5688C4.22868 9.97734 3.59756 9.61292 2.91457 9.61292C1.44292 9.61292 0.523129 11.206 1.259 12.4805C1.60045 13.0719 2.23157 13.4363 2.91457 13.4363Z" fill="#FFEF5E"/>
<path d="M2.91956 11.1422C3.67893 11.143 4.36589 11.5931 4.6697 12.2892C5.26173 10.9419 4.17333 9.45895 2.71051 9.61981C1.42729 9.76095 0.649985 11.1073 1.16942 12.2892C1.47313 11.5931 2.16009 11.143 2.91956 11.1422Z" fill="#FFF9BF"/>
<path d="M2.91457 13.4363C4.38612 13.4364 5.30591 11.8433 4.57013 10.5688C4.22868 9.97734 3.59756 9.61292 2.91457 9.61292C1.44292 9.61292 0.523129 11.206 1.259 12.4805C1.60045 13.0719 2.23157 13.4363 2.91457 13.4363Z" stroke="#191919" stroke-linecap="round" stroke-linejoin="round"/>
<path d="M2.91457 22.9946C4.38612 22.9946 5.30591 21.4016 4.57013 20.1271C4.22859 19.5356 3.59747 19.1713 2.91457 19.1713C1.44292 19.1713 0.523129 20.7643 1.259 22.0388C1.60045 22.6302 2.23157 22.9946 2.91457 22.9946Z" fill="#FFEF5E"/>
<path d="M2.91956 20.7006C3.67893 20.7014 4.36589 21.1516 4.6697 21.8476C5.26173 20.5003 4.17333 19.0174 2.71051 19.1783C1.42729 19.3194 0.649985 20.6657 1.16942 21.8476C1.47313 21.1516 2.16009 20.7014 2.91956 20.7006Z" fill="#FFF9BF"/>
<path d="M2.91457 22.9946C4.38612 22.9946 5.30591 21.4016 4.57013 20.1271C4.22859 19.5356 3.59747 19.1713 2.91457 19.1713C1.44292 19.1713 0.523129 20.7643 1.259 22.0388C1.60045 22.6302 2.23157 22.9946 2.91457 22.9946Z" stroke="#191919" stroke-linecap="round" stroke-linejoin="round"/>
<path d="M21.0849 22.9946C22.5566 22.9946 23.4764 21.4016 22.7405 20.1271C22.399 19.5356 21.7679 19.1713 21.0849 19.1713C19.6134 19.1713 18.6936 20.7643 19.4294 22.0388C19.7709 22.6302 20.402 22.9946 21.0849 22.9946Z" fill="#FFEF5E"/>
<path d="M21.0855 20.7006C21.845 20.7014 22.532 21.1516 22.8357 21.8476C23.4278 20.5003 22.3394 19.0174 20.8766 19.1783C19.5933 19.3194 18.816 20.6657 19.3354 21.8476C19.6392 21.1516 20.3262 20.7014 21.0855 20.7006Z" fill="#FFF9BF"/>
<path d="M21.0849 22.9946C22.5566 22.9946 23.4764 21.4016 22.7405 20.1271C22.399 19.5356 21.7679 19.1713 21.0849 19.1713C19.6134 19.1713 18.6936 20.7643 19.4294 22.0388C19.7709 22.6302 20.402 22.9946 21.0849 22.9946Z" stroke="#191919" stroke-linecap="round" stroke-linejoin="round"/>
<path d="M21.0849 13.4363C22.5566 13.4364 23.4764 11.8433 22.7406 10.5688C22.3991 9.97734 21.768 9.61292 21.0849 9.61292C19.6134 9.61292 18.6936 11.206 19.4294 12.4805C19.7709 13.0719 20.402 13.4363 21.0849 13.4363Z" fill="#FFEF5E"/>
<path d="M21.0855 11.1422C21.845 11.143 22.532 11.5931 22.8357 12.2892C23.4278 10.9419 22.3394 9.45895 20.8766 9.61981C19.5933 9.76095 18.816 11.1073 19.3354 12.2892C19.6392 11.5931 20.3262 11.143 21.0855 11.1422Z" fill="#FFF9BF"/>
<path d="M21.0849 13.4363C22.5566 13.4364 23.4764 11.8433 22.7406 10.5688C22.3991 9.97734 21.768 9.61292 21.0849 9.61292C19.6134 9.61292 18.6936 11.206 19.4294 12.4805C19.7709 13.0719 20.402 13.4363 21.0849 13.4363Z" stroke="#191919" stroke-linecap="round" stroke-linejoin="round"/>
<path d="M21.0849 4.83362C22.5566 4.83362 23.4764 3.24056 22.7405 1.96607C22.399 1.37468 21.7679 1.01025 21.0849 1.01025C19.6134 1.01025 18.6936 2.60331 19.4294 3.8778C19.7709 4.46928 20.402 4.83362 21.0849 4.83362Z" fill="#FFEF5E"/>
<path d="M21.0855 2.53963C21.845 2.54035 22.532 2.99061 22.8357 3.68657C23.4278 2.33931 22.3394 0.856412 20.8766 1.01727C19.5933 1.15841 18.816 2.50468 19.3354 3.68657C19.6392 2.99061 20.3262 2.54035 21.0855 2.53963Z" fill="#FFF9BF"/>
<path d="M21.0849 4.83362C22.5566 4.83362 23.4764 3.24056 22.7405 1.96607C22.399 1.37468 21.7679 1.01025 21.0849 1.01025C19.6134 1.01025 18.6936 2.60331 19.4294 3.8778C19.7709 4.46928 20.402 4.83362 21.0849 4.83362Z" stroke="#191919" stroke-linecap="round" stroke-linejoin="round"/>
<path d="M6.29651 17.7175L4.2749 19.7516" stroke="#191919" stroke-linecap="round" stroke-linejoin="round"/>
<path d="M16.2969 11.5247H19.1644" stroke="#191919" stroke-linecap="round" stroke-linejoin="round"/>
<path d="M7.69372 11.5247H4.82617" stroke="#191919" stroke-linecap="round" stroke-linejoin="round"/>
</g>
<defs>
<clipPath id="clip0_5303_8570">
<rect width="24" height="24" fill="white"/>
</clipPath>
</defs>
</svg>
