<svg width="24" height="24" viewBox="0 0 24 24" fill="none" xmlns="http://www.w3.org/2000/svg">
<path d="M20.1304 6.26184H3.86957C3.10851 6.26184 2.37862 6.56417 1.84048 7.10232C1.30233 7.64046 1 8.37035 1 9.13141V18.6966C1 19.4577 1.30233 20.1876 1.84048 20.7257C2.37862 21.2639 3.10851 21.5662 3.86957 21.5662H20.1304C20.8915 21.5662 21.6214 21.2639 22.1595 20.7257C22.6977 20.1876 23 19.4577 23 18.6966V9.13141C23 8.37035 22.6977 7.64046 22.1595 7.10232C21.6214 6.56417 20.8915 6.26184 20.1304 6.26184Z" fill="#FFBC44"/>
<path d="M20.1304 6.25989H3.86957C3.10928 6.26241 2.38086 6.56555 1.84326 7.10315C1.30566 7.64075 1.00252 8.36917 1 9.12945V11.999C1.00252 11.2387 1.30566 10.5103 1.84326 9.97271C2.38086 9.43511 3.10928 9.13197 3.86957 9.12945H20.1304C20.8907 9.13197 21.6191 9.43511 22.1567 9.97271C22.6943 10.5103 22.9975 11.2387 23 11.999V9.12945C22.9975 8.36917 22.6943 7.64075 22.1567 7.10315C21.6191 6.56555 20.8907 6.26241 20.1304 6.25989Z" fill="#FFDDA1"/>
<path d="M20.1304 6.26184H3.86957C3.10851 6.26184 2.37862 6.56417 1.84048 7.10232C1.30233 7.64046 1 8.37035 1 9.13141V18.6966C1 19.4577 1.30233 20.1876 1.84048 20.7257C2.37862 21.2639 3.10851 21.5662 3.86957 21.5662H20.1304C20.8915 21.5662 21.6214 21.2639 22.1595 20.7257C22.6977 20.1876 23 19.4577 23 18.6966V9.13141C23 8.37035 22.6977 7.64046 22.1595 7.10232C21.6214 6.56417 20.8915 6.26184 20.1304 6.26184Z" stroke="#191919" stroke-linecap="round" stroke-linejoin="round"/>
<path d="M8.65137 6.25992V4.34688C8.65263 3.8399 8.85459 3.35404 9.21308 2.99555C9.57157 2.63706 10.0574 2.4351 10.5644 2.43384H13.434C13.9409 2.43535 14.4266 2.63739 14.785 2.99583C15.1435 3.35427 15.3455 3.83998 15.347 4.34688V6.25992" stroke="#191919" stroke-linecap="round" stroke-linejoin="round"/>
<path d="M11.9995 11.0443V10.0878" stroke="#191919" stroke-linecap="round" stroke-linejoin="round"/>
<path d="M13.4344 11.0425H11.4898C11.1918 11.0427 10.9031 11.1466 10.6733 11.3364C10.4435 11.5261 10.2869 11.7899 10.2304 12.0825C10.1738 12.3752 10.2208 12.6783 10.3634 12.94C10.5059 13.2018 10.735 13.4058 11.0115 13.517L12.9858 14.3061C13.2629 14.417 13.4927 14.6209 13.6357 14.8829C13.7787 15.1448 13.826 15.4484 13.7694 15.7415C13.7127 16.0345 13.5558 16.2986 13.3255 16.4885C13.0952 16.6783 12.806 16.782 12.5075 16.7816H10.5648" stroke="#191919" stroke-linecap="round" stroke-linejoin="round"/>
<path d="M11.9995 17.7401V16.7836" stroke="#191919" stroke-linecap="round" stroke-linejoin="round"/>
</svg>
