<svg width="24" height="24" viewBox="0 0 24 24" fill="none" xmlns="http://www.w3.org/2000/svg">
<g clip-path="url(#clip0_5303_6079)">
<path d="M21.1498 17.6865C21.2162 17.5538 21.2507 17.4074 21.2507 17.259C21.2507 17.1105 21.2162 16.9642 21.1498 16.8314L20.6562 15.8423C20.5811 15.6918 20.547 15.5241 20.5574 15.3562C20.5678 15.1882 20.6224 15.026 20.7155 14.8858L21.0101 14.4439C21.115 14.2868 21.1709 14.1021 21.1709 13.9131C21.1709 13.7241 21.115 13.5393 21.0101 13.3822L20.4075 12.4783H12.5784L11.9749 8.53741L10.8863 9.26246C10.5429 9.49176 10.2532 9.79261 10.0369 10.1444L6.88042 15.2723C6.65801 15.6333 6.32136 15.9097 5.9239 16.0576L2.71191 17.2609V22.0435C2.71191 22.2971 2.81269 22.5405 2.99208 22.7198C3.17145 22.8992 3.41475 23 3.66843 23H9.40755L11.289 22.2482C11.6271 22.1132 11.9877 22.0437 12.3517 22.0435H19.451L20.4668 21.0248C20.5926 20.8994 20.681 20.7414 20.722 20.5685C20.7631 20.3957 20.7552 20.2149 20.6993 20.0462L20.5319 19.5479C20.452 19.3072 20.4709 19.0448 20.5845 18.8181L21.1498 17.6865Z" fill="#FFDDA1"/>
<path d="M20.5328 19.5479C20.5259 19.5132 20.5214 19.478 20.5194 19.4427C12.6473 20.2079 6.44712 18.5761 11.2221 9.03864L10.8863 9.26342C10.5428 9.49209 10.2529 9.79266 10.0369 10.1444L6.88042 15.2723C6.6574 15.6328 6.32095 15.909 5.9239 16.0576L2.71191 17.2609V22.0435C2.71191 22.2971 2.81269 22.5405 2.99208 22.7198C3.17145 22.8992 3.41475 23 3.66843 23H9.40755L11.289 22.2482C11.6271 22.1131 11.9877 22.0437 12.3517 22.0435H19.451L20.4678 21.0248C20.5934 20.8992 20.6816 20.7412 20.7225 20.5684C20.7633 20.3956 20.7553 20.2148 20.6993 20.0463L20.5328 19.5479Z" fill="#FFDDA1"/>
<path d="M12.5642 12.4782L10.9218 1.63131C10.9138 1.55126 10.9227 1.47042 10.9478 1.39402C10.9731 1.31763 11.0141 1.24738 11.0682 1.18786C11.1223 1.12833 11.1883 1.08084 11.262 1.04848C11.3356 1.01612 11.4153 0.999601 11.4957 1.00001H19.3774C19.46 1.00006 19.5415 1.01791 19.6166 1.05234C19.6916 1.08678 19.7582 1.13698 19.8121 1.19954C19.8659 1.26209 19.9056 1.33553 19.9285 1.41483C19.9514 1.49413 19.9569 1.57743 19.9447 1.65905L18.3195 12.4782H12.5642Z" fill="#E3E3E3"/>
<path d="M12.2767 10.5652L10.9242 1.54904C10.914 1.48097 10.9187 1.4115 10.9378 1.34538C10.9569 1.27926 10.99 1.21805 11.035 1.16592C11.08 1.1138 11.1356 1.07199 11.1983 1.04335C11.2608 1.01472 11.3288 0.99993 11.3977 1H18.0159" stroke="#191919" stroke-linecap="round" stroke-linejoin="round"/>
<path d="M14.667 12.4783L13.7631 3.43918C13.7564 3.37247 13.7638 3.3051 13.7849 3.24144C13.8059 3.17777 13.84 3.11924 13.8851 3.06963C13.9302 3.02002 13.9852 2.98045 14.0467 2.95349C14.108 2.92651 14.1743 2.91275 14.2414 2.91309H20.8098C20.8786 2.91316 20.9465 2.92804 21.009 2.95674C21.0714 2.98543 21.127 3.02726 21.1719 3.07937C21.2167 3.13148 21.2498 3.19264 21.2688 3.2587C21.2879 3.32475 21.2925 3.39414 21.2823 3.46213L19.9279 12.4783" fill="#78EB7B"/>
<path d="M12.2778 12.4782H20.4082L21.0108 13.3821C21.1156 13.5393 21.1716 13.7241 21.1716 13.913C21.1716 14.1019 21.1156 14.2867 21.0108 14.4439L20.7162 14.8858C20.623 15.0259 20.5685 15.1881 20.5581 15.3561C20.5476 15.5241 20.5818 15.6917 20.6569 15.8423L21.1514 16.8313C21.2178 16.9641 21.2523 17.1104 21.2523 17.2589C21.2523 17.4073 21.2178 17.5537 21.1514 17.6865L20.5851 18.818C20.4719 19.0448 20.4533 19.3074 20.5335 19.5478L20.6999 20.0462C20.756 20.2147 20.764 20.3955 20.7232 20.5684C20.6822 20.7411 20.594 20.8992 20.4684 21.0247L19.4517 22.0434H12.3524C11.9873 22.0434 11.6256 22.1131 11.2868 22.249L9.4082 22.9999" stroke="#191919" stroke-linecap="round" stroke-linejoin="round"/>
<path d="M2.71191 17.2608L5.9239 16.0566C6.32152 15.9071 6.65804 15.6294 6.88042 15.2674L10.0369 10.1434C10.2542 9.79122 10.545 9.49008 10.8892 9.26052L11.9749 8.53644" stroke="#191919" stroke-linecap="round" stroke-linejoin="round"/>
<path d="M20.8098 2.91309H14.2414C14.1743 2.91275 14.108 2.92651 14.0467 2.95349C13.9852 2.98045 13.9302 3.02002 13.8851 3.06963C13.84 3.11924 13.8059 3.17777 13.7849 3.24144C13.7638 3.3051 13.7564 3.37247 13.7631 3.43918L14.4002 9.80864L21.1475 3.06135C21.1038 3.01552 21.0514 2.97881 20.9935 2.95337C20.9355 2.92792 20.8731 2.91423 20.8098 2.91309Z" fill="#C9F7CA"/>
<path d="M14.667 12.4783L13.7631 3.43918C13.7564 3.37247 13.7638 3.3051 13.7849 3.24144C13.8059 3.17777 13.84 3.11924 13.8851 3.06963C13.9302 3.02002 13.9852 2.98045 14.0467 2.95349C14.108 2.92651 14.1743 2.91275 14.2414 2.91309H20.8098C20.8786 2.91316 20.9465 2.92804 21.009 2.95674C21.0714 2.98543 21.127 3.02726 21.1719 3.07937C21.2167 3.13148 21.2498 3.19264 21.2688 3.2587C21.2879 3.32475 21.2925 3.39414 21.2823 3.46213L19.9279 12.4783" stroke="#191919" stroke-linecap="round" stroke-linejoin="round"/>
<path d="M17.3001 9.13043C17.5366 9.13043 17.7678 9.06031 17.9644 8.92893C18.161 8.79755 18.3142 8.61081 18.4048 8.39234C18.4953 8.17386 18.5189 7.93345 18.4728 7.70153C18.4267 7.46959 18.3128 7.25654 18.1456 7.08934C17.9784 6.92212 17.7653 6.80824 17.5334 6.76211C17.3015 6.71598 17.0611 6.73965 16.8426 6.83015C16.6241 6.92064 16.4374 7.0739 16.306 7.27052C16.1746 7.46714 16.1045 7.6983 16.1045 7.93478C16.1045 8.25189 16.2305 8.556 16.4547 8.78023C16.6789 9.00446 16.9831 9.13043 17.3001 9.13043Z" fill="white" stroke="#191919" stroke-linecap="round" stroke-linejoin="round"/>
</g>
<defs>
<clipPath id="clip0_5303_6079">
<rect width="24" height="24" fill="white"/>
</clipPath>
</defs>
</svg>
