<svg width="24" height="24" viewBox="0 0 24 24" fill="none" xmlns="http://www.w3.org/2000/svg">
<g clip-path="url(#clip0_5303_6182)">
<path d="M6.73926 3.38268C6.73926 3.31987 6.75163 3.25768 6.77566 3.19966C6.7997 3.14163 6.83493 3.08891 6.87934 3.0445C6.92375 3.00009 6.97647 2.96486 7.0345 2.94082C7.09252 2.91679 7.15471 2.90442 7.21752 2.90442H20.6088C20.6716 2.90442 20.7338 2.91679 20.7918 2.94082C20.8499 2.96486 20.9026 3.00009 20.947 3.0445C20.9914 3.08891 21.0266 3.14163 21.0507 3.19966C21.0747 3.25768 21.0871 3.31987 21.0871 3.38268V10.0783C21.0871 10.2052 21.0367 10.3268 20.947 10.4165C20.8573 10.5062 20.7357 10.5566 20.6088 10.5566H7.21752C7.09068 10.5566 6.96903 10.5062 6.87934 10.4165C6.78965 10.3268 6.73926 10.2052 6.73926 10.0783V3.38268Z" fill="#78EB7B"/>
<path d="M7.21752 2.90442C7.09068 2.90442 6.96903 2.95481 6.87934 3.0445C6.78965 3.13419 6.73926 3.25584 6.73926 3.38268V10.0783C6.73926 10.2052 6.78965 10.3268 6.87934 10.4165C6.96903 10.5062 7.09068 10.5566 7.21752 10.5566H10.0192L17.6713 2.90442H7.21752Z" fill="#C9F7CA"/>
<path d="M6.73926 3.38268C6.73926 3.31987 6.75163 3.25768 6.77566 3.19966C6.7997 3.14163 6.83493 3.08891 6.87934 3.0445C6.92375 3.00009 6.97647 2.96486 7.0345 2.94082C7.09252 2.91679 7.15471 2.90442 7.21752 2.90442H20.6088C20.6716 2.90442 20.7338 2.91679 20.7918 2.94082C20.8499 2.96486 20.9026 3.00009 20.947 3.0445C20.9914 3.08891 21.0266 3.14163 21.0507 3.19966C21.0747 3.25768 21.0871 3.31987 21.0871 3.38268V10.0783C21.0871 10.2052 21.0367 10.3268 20.947 10.4165C20.8573 10.5062 20.7357 10.5566 20.6088 10.5566H7.21752C7.09068 10.5566 6.96903 10.5062 6.87934 10.4165C6.78965 10.3268 6.73926 10.2052 6.73926 10.0783V3.38268Z" stroke="#191919" stroke-linecap="round" stroke-linejoin="round"/>
<path d="M16.8271 2.90442L21.0913 6.25224" stroke="#191919" stroke-linecap="round" stroke-linejoin="round"/>
<path d="M17.4297 10.5566L21.0922 7.20874" stroke="#191919" stroke-linecap="round" stroke-linejoin="round"/>
<path d="M6.73926 7.20874L10.4008 10.5566" stroke="#191919" stroke-linecap="round" stroke-linejoin="round"/>
<path d="M6.73926 6.25224L10.9833 2.90442" stroke="#191919" stroke-linecap="round" stroke-linejoin="round"/>
<path d="M13.9133 8.16522C14.1017 8.16522 14.2883 8.12811 14.4624 8.056C14.6364 7.9839 14.7946 7.87821 14.9278 7.74498C15.0611 7.61175 15.1668 7.45358 15.2389 7.2795C15.311 7.10543 15.3481 6.91886 15.3481 6.73044C15.3481 6.54202 15.311 6.35545 15.2389 6.18137C15.1668 6.00729 15.0611 5.84912 14.9278 5.71589C14.7946 5.58266 14.6364 5.47698 14.4624 5.40487C14.2883 5.33277 14.1017 5.29565 13.9133 5.29565C13.5328 5.29565 13.1678 5.44682 12.8988 5.71589C12.6297 5.98497 12.4785 6.34991 12.4785 6.73044C12.4785 7.11096 12.6297 7.47591 12.8988 7.74498C13.1678 8.01406 13.5328 8.16522 13.9133 8.16522Z" fill="white" stroke="#191919" stroke-linecap="round" stroke-linejoin="round"/>
<path d="M20.1304 15.3564L15.9017 16.7606H15.8911C15.9787 16.6007 16.019 16.4193 16.0075 16.2374C15.996 16.0556 15.9331 15.8807 15.826 15.7332C15.719 15.5857 15.5723 15.4716 15.403 15.4042C15.2337 15.3368 15.0487 15.3189 14.8696 15.3526H12C10.8663 14.1826 9.32374 13.497 7.69565 13.4395H4.82609L1 15.3526V21.0917L4.82609 18.7004C15.0877 22.1219 11.3027 22.1563 23 16.3091C22.6768 15.8755 22.2283 15.5516 21.7151 15.3812C21.2019 15.2109 20.6487 15.2022 20.1304 15.3564Z" fill="#FFDDA1"/>
<path d="M15.9017 16.7606L20.1304 15.3564C20.6491 15.2026 21.2025 15.2119 21.7158 15.383C22.229 15.5541 22.6773 15.8787 23 16.3129C11.3027 22.1602 15.0877 22.1257 4.82609 18.7042L1 21.0956" stroke="#191919" stroke-linecap="round" stroke-linejoin="round"/>
<path d="M9.6087 17.2656H14.8696C15.0095 17.2907 15.1532 17.2849 15.2906 17.2484C15.4281 17.2119 15.5558 17.1457 15.6649 17.0545C15.7739 16.9633 15.8616 16.8493 15.9218 16.7205C15.982 16.5917 16.0132 16.4512 16.0132 16.3091C16.0132 16.1669 15.982 16.0265 15.9218 15.8977C15.8616 15.7689 15.7739 15.6548 15.6649 15.5636C15.5558 15.4724 15.4281 15.4062 15.2906 15.3698C15.1532 15.3333 15.0095 15.3274 14.8696 15.3526H12C10.8663 14.1826 9.32374 13.497 7.69565 13.4395H4.82609L1 15.3526" stroke="#191919" stroke-linecap="round" stroke-linejoin="round"/>
</g>
<defs>
<clipPath id="clip0_5303_6182">
<rect width="24" height="24" fill="white"/>
</clipPath>
</defs>
</svg>
