<svg width="24" height="24" viewBox="0 0 24 24" fill="none" xmlns="http://www.w3.org/2000/svg">
<g clip-path="url(#clip0_5303_5872)">
<path d="M13.4348 8.60419H22.0435C22.2971 8.60419 22.5405 8.70497 22.7198 8.88435C22.8992 9.06373 23 9.30703 23 9.56071V20.0824C23 20.3361 22.8992 20.5794 22.7198 20.7588C22.5405 20.9382 22.2971 21.039 22.0435 21.039H1.95652C1.70283 21.039 1.45954 20.9382 1.28016 20.7588C1.10078 20.5794 1 20.3361 1 20.0824V9.56071C1 9.30703 1.10078 9.06373 1.28016 8.88435C1.45954 8.70497 1.70283 8.60419 1.95652 8.60419H4.34783" fill="#E3E3E3"/>
<path d="M17.1977 8.60419H1.95652C1.70283 8.60419 1.45954 8.70497 1.28016 8.88435C1.10078 9.06373 1 9.30703 1 9.56071V20.0824C1 20.3361 1.10078 20.5794 1.28016 20.7588C1.45954 20.9382 1.70283 21.039 1.95652 21.039H4.76296L17.1977 8.60419Z" fill="white"/>
<path d="M13.4348 8.60419H22.0435C22.2971 8.60419 22.5405 8.70497 22.7198 8.88435C22.8992 9.06373 23 9.30703 23 9.56071V20.0824C23 20.3361 22.8992 20.5794 22.7198 20.7588C22.5405 20.9382 22.2971 21.039 22.0435 21.039H1.95652C1.70283 21.039 1.45954 20.9382 1.28016 20.7588C1.10078 20.5794 1 20.3361 1 20.0824V9.56071C1 9.30703 1.10078 9.06373 1.28016 8.88435C1.45954 8.70497 1.70283 8.60419 1.95652 8.60419H4.34783" stroke="#191919" stroke-linecap="round" stroke-linejoin="round"/>
<path d="M4.01644 14.4868L3.86914 17.6912L6.51966 15.8833L12.8107 4.604C12.8412 4.54911 12.8606 4.48874 12.8678 4.42635C12.8751 4.36395 12.8699 4.30075 12.8526 4.24035C12.8354 4.17995 12.8064 4.12354 12.7674 4.07433C12.7283 4.02513 12.68 3.98409 12.6251 3.95357L10.9551 3.02192C10.9001 2.9912 10.8398 2.97161 10.7773 2.96427C10.7149 2.95693 10.6515 2.96197 10.5911 2.97912C10.5305 2.99627 10.474 3.02518 10.4248 3.0642C10.3754 3.10322 10.3343 3.15158 10.3037 3.20653L4.01644 14.4868Z" fill="#66E1FF"/>
<path d="M11.6552 3.41218L10.9551 3.02192C10.9001 2.9912 10.8398 2.97161 10.7773 2.96427C10.7149 2.95693 10.6515 2.96197 10.5911 2.97912C10.5305 2.99627 10.474 3.02518 10.4248 3.0642C10.3754 3.10322 10.3343 3.15158 10.3037 3.20653L4.01644 14.4868L3.86914 17.6912L3.9294 17.65L11.6552 3.41218Z" fill="#C2F3FF"/>
<path d="M4.01644 14.4868L3.86914 17.6912L6.51966 15.8833L12.8107 4.604C12.8412 4.54911 12.8606 4.48874 12.8678 4.42635C12.8751 4.36395 12.8699 4.30075 12.8526 4.24035C12.8354 4.17995 12.8064 4.12354 12.7674 4.07433C12.7283 4.02513 12.68 3.98409 12.6251 3.95357L10.9551 3.02192C10.9001 2.9912 10.8398 2.97161 10.7773 2.96427C10.7149 2.95693 10.6515 2.96197 10.5911 2.97912C10.5305 2.99627 10.474 3.02518 10.4248 3.0642C10.3754 3.10322 10.3343 3.15158 10.3037 3.20653L4.01644 14.4868Z" stroke="#191919" stroke-linecap="round" stroke-linejoin="round"/>
<path d="M13.9131 15.2999H20.1305" stroke="#191919" stroke-linecap="round" stroke-linejoin="round"/>
<path d="M11.0439 18.1694H20.1309" stroke="#191919" stroke-linecap="round" stroke-linejoin="round"/>
</g>
<defs>
<clipPath id="clip0_5303_5872">
<rect width="24" height="24" fill="white"/>
</clipPath>
</defs>
</svg>
