<svg width="24" height="24" viewBox="0 0 24 24" fill="none" xmlns="http://www.w3.org/2000/svg">
<g clip-path="url(#clip0_5303_12779)">
<path d="M11.9998 22.9999C18.0749 22.9999 22.9996 18.0751 22.9996 12.0001C22.9996 5.92503 18.0749 1.00024 11.9998 1.00024C5.92479 1.00024 1 5.92503 1 12.0001C1 18.0751 5.92479 22.9999 11.9998 22.9999Z" fill="#E3E3E3"/>
<path d="M4.22188 19.7785C2.15895 17.7156 1 14.9176 1 12.0002C1 9.08275 2.15895 6.28481 4.22188 4.22188C6.28481 2.15894 9.08276 1 12.0002 1C14.9176 0.999999 17.7156 2.15894 19.7785 4.22188L4.22188 19.7785Z" fill="white"/>
<path d="M15.7197 8.28032C16.3722 8.93075 16.8417 9.7417 17.0809 10.6314L22.4153 8.4611C21.8722 6.86491 20.9697 5.41479 19.7775 4.22256C18.5852 3.03035 17.1352 2.12788 15.539 1.58478L13.3687 6.91921C14.2584 7.15838 15.0693 7.62785 15.7197 8.28032Z" fill="#FF808C"/>
<path d="M8.28001 8.28032C8.93045 7.62785 9.74139 7.15838 10.6311 6.91921L8.46079 1.58478C6.86461 2.12788 5.41448 3.03035 4.22226 4.22256C3.03004 5.41479 2.12758 6.86491 1.58447 8.4611L6.91891 10.6343C7.1576 9.74355 7.62711 8.93156 8.28001 8.28032Z" fill="#FFBFC5"/>
<path d="M22.4153 15.5393L17.0809 13.3661C16.8404 14.2552 16.3711 15.0659 15.7197 15.7172C15.0685 16.3684 14.2578 16.8378 13.3687 17.0783L15.539 22.4156C17.1352 21.8725 18.5852 20.97 19.7775 19.7778C20.9697 18.5855 21.8722 17.1355 22.4153 15.5393Z" fill="#FF808C"/>
<path d="M8.28001 15.72C7.62754 15.0696 7.15806 14.2587 6.91891 13.3689L1.58447 15.5393C2.12758 17.1355 3.03004 18.5855 4.22226 19.7778C5.41448 20.97 6.86461 21.8725 8.46079 22.4156L10.634 17.0811C9.74324 16.8425 8.93125 16.3729 8.28001 15.72Z" fill="#FF808C"/>
<path d="M19.7782 4.22187C18.5869 3.0283 17.1361 2.12584 15.539 1.58478L13.3687 6.91921C14.2584 7.15838 15.0693 7.62785 15.7197 8.28032L19.7782 4.22187Z" fill="#FFBFC5"/>
<path d="M8.28001 15.72C7.62754 15.0696 7.15806 14.2587 6.91891 13.3689L1.58447 15.5393C2.12592 17.1355 3.02836 18.5852 4.22156 19.7756L8.28001 15.72Z" fill="#FFBFC5"/>
<path d="M11.9998 22.9999C18.0749 22.9999 22.9996 18.0751 22.9996 12.0001C22.9996 5.92503 18.0749 1.00024 11.9998 1.00024C5.92479 1.00024 1 5.92503 1 12.0001C1 18.0751 5.92479 22.9999 11.9998 22.9999Z" stroke="#191919" stroke-linecap="round" stroke-linejoin="round"/>
<path d="M12 17.261C14.9055 17.261 17.2608 14.9057 17.2608 12.0002C17.2608 9.09471 14.9055 6.73938 12 6.73938C9.09459 6.73938 6.73926 9.09471 6.73926 12.0002C6.73926 14.9057 9.09459 17.261 12 17.261Z" fill="#FFEF5E"/>
<path d="M8.27968 15.72C7.30401 14.7312 6.75904 13.3966 6.7637 12.0075C6.76835 10.6183 7.32224 9.28746 8.30452 8.30518C9.28679 7.32292 10.6177 6.76902 12.0068 6.76437C13.3959 6.75972 14.7305 7.30468 15.7194 8.28034L8.27968 15.72Z" fill="#FFF9BF"/>
<path d="M12 17.261C14.9055 17.261 17.2608 14.9057 17.2608 12.0002C17.2608 9.09471 14.9055 6.73938 12 6.73938C9.09459 6.73938 6.73926 9.09471 6.73926 12.0002C6.73926 14.9057 9.09459 17.261 12 17.261Z" stroke="#191919" stroke-linecap="round" stroke-linejoin="round"/>
<path d="M12.9563 9.60895H11.0433V12.0002H11.7607C12.0778 12.0002 12.382 12.1262 12.6062 12.3504C12.8304 12.5746 12.9563 12.8787 12.9563 13.1958C12.9563 13.5129 12.8304 13.8171 12.6062 14.0413C12.382 14.2655 12.0778 14.3914 11.7607 14.3914H10.9209" stroke="#191919" stroke-linecap="round" stroke-linejoin="round"/>
<path d="M17.9175 6.08228C17.9398 6.10441 17.9574 6.13072 17.9694 6.15969C17.9815 6.18866 17.9877 6.21973 17.9877 6.2511C17.9877 6.28249 17.9815 6.31355 17.9694 6.34252C17.9574 6.37149 17.9398 6.3978 17.9175 6.41993" stroke="#191919" stroke-linecap="round" stroke-linejoin="round"/>
<path d="M17.5806 6.08225C17.6027 6.06001 17.629 6.04236 17.6579 6.03032C17.6869 6.01828 17.718 6.01208 17.7494 6.01208C17.7808 6.01208 17.8119 6.01828 17.8408 6.03032C17.8698 6.04236 17.8961 6.06001 17.9182 6.08225" stroke="#191919" stroke-linecap="round" stroke-linejoin="round"/>
<path d="M17.5805 6.41993C17.5582 6.3978 17.5406 6.37149 17.5285 6.34252C17.5165 6.31355 17.5103 6.28249 17.5103 6.2511C17.5103 6.21973 17.5165 6.18866 17.5285 6.15969C17.5406 6.13072 17.5582 6.10441 17.5805 6.08228" stroke="#191919" stroke-linecap="round" stroke-linejoin="round"/>
<path d="M17.9182 6.41992C17.8961 6.44216 17.8698 6.4598 17.8408 6.47185C17.8119 6.48389 17.7808 6.49009 17.7494 6.49009C17.718 6.49009 17.6869 6.48389 17.6579 6.47185C17.629 6.4598 17.6027 6.44216 17.5806 6.41992" stroke="#191919" stroke-linecap="round" stroke-linejoin="round"/>
<path d="M6.41943 6.08228C6.44167 6.10441 6.45932 6.13072 6.47136 6.15969C6.4834 6.18866 6.4896 6.21973 6.4896 6.2511C6.4896 6.28249 6.4834 6.31355 6.47136 6.34252C6.45932 6.37149 6.44167 6.3978 6.41943 6.41993" stroke="#191919" stroke-linecap="round" stroke-linejoin="round"/>
<path d="M6.08203 6.08225C6.10416 6.06001 6.13047 6.04236 6.15944 6.03032C6.18841 6.01828 6.21948 6.01208 6.25085 6.01208C6.28223 6.01208 6.3133 6.01828 6.34227 6.03032C6.37124 6.04236 6.39754 6.06001 6.41968 6.08225" stroke="#191919" stroke-linecap="round" stroke-linejoin="round"/>
<path d="M6.08189 6.41993C6.05965 6.3978 6.042 6.37149 6.02996 6.34252C6.01792 6.31355 6.01172 6.28249 6.01172 6.2511C6.01172 6.21973 6.01792 6.18866 6.02996 6.15969C6.042 6.13072 6.05965 6.10441 6.08189 6.08228" stroke="#191919" stroke-linecap="round" stroke-linejoin="round"/>
<path d="M6.41968 6.41992C6.39754 6.44216 6.37124 6.4598 6.34227 6.47185C6.3133 6.48389 6.28223 6.49009 6.25085 6.49009C6.21948 6.49009 6.18841 6.48389 6.15944 6.47185C6.13047 6.4598 6.10416 6.44216 6.08203 6.41992" stroke="#191919" stroke-linecap="round" stroke-linejoin="round"/>
<path d="M6.41943 17.5804C6.44167 17.6025 6.45932 17.6288 6.47136 17.6578C6.4834 17.6868 6.4896 17.7179 6.4896 17.7493C6.4896 17.7806 6.4834 17.8117 6.47136 17.8407C6.45932 17.8697 6.44167 17.896 6.41943 17.9181" stroke="#191919" stroke-linecap="round" stroke-linejoin="round"/>
<path d="M6.08203 17.5804C6.10416 17.5582 6.13047 17.5406 6.15944 17.5285C6.18841 17.5164 6.21948 17.5102 6.25085 17.5102C6.28223 17.5102 6.3133 17.5164 6.34227 17.5285C6.37124 17.5406 6.39754 17.5582 6.41968 17.5804" stroke="#191919" stroke-linecap="round" stroke-linejoin="round"/>
<path d="M6.08189 17.9181C6.05965 17.896 6.042 17.8697 6.02996 17.8407C6.01792 17.8117 6.01172 17.7806 6.01172 17.7493C6.01172 17.7179 6.01792 17.6868 6.02996 17.6578C6.042 17.6288 6.05965 17.6025 6.08189 17.5804" stroke="#191919" stroke-linecap="round" stroke-linejoin="round"/>
<path d="M6.41968 17.9181C6.39754 17.9403 6.37124 17.958 6.34227 17.97C6.3133 17.9821 6.28223 17.9883 6.25085 17.9883C6.21948 17.9883 6.18841 17.9821 6.15944 17.97C6.13047 17.958 6.10416 17.9403 6.08203 17.9181" stroke="#191919" stroke-linecap="round" stroke-linejoin="round"/>
<path d="M17.9175 17.5804C17.9398 17.6025 17.9574 17.6288 17.9694 17.6578C17.9815 17.6868 17.9877 17.7179 17.9877 17.7493C17.9877 17.7806 17.9815 17.8117 17.9694 17.8407C17.9574 17.8697 17.9398 17.896 17.9175 17.9181" stroke="#191919" stroke-linecap="round" stroke-linejoin="round"/>
<path d="M17.5806 17.5804C17.6027 17.5582 17.629 17.5406 17.6579 17.5285C17.6869 17.5164 17.718 17.5102 17.7494 17.5102C17.7808 17.5102 17.8119 17.5164 17.8408 17.5285C17.8698 17.5406 17.8961 17.5582 17.9182 17.5804" stroke="#191919" stroke-linecap="round" stroke-linejoin="round"/>
<path d="M17.5805 17.9181C17.5582 17.896 17.5406 17.8697 17.5285 17.8407C17.5165 17.8117 17.5103 17.7806 17.5103 17.7493C17.5103 17.7179 17.5165 17.6868 17.5285 17.6578C17.5406 17.6288 17.5582 17.6025 17.5805 17.5804" stroke="#191919" stroke-linecap="round" stroke-linejoin="round"/>
<path d="M17.9182 17.9181C17.8961 17.9403 17.8698 17.958 17.8408 17.97C17.8119 17.9821 17.7808 17.9883 17.7494 17.9883C17.718 17.9883 17.6869 17.9821 17.6579 17.97C17.629 17.958 17.6027 17.9403 17.5806 17.9181" stroke="#191919" stroke-linecap="round" stroke-linejoin="round"/>
<path d="M15.5418 1.58478L13.3687 6.91921" stroke="#191919" stroke-linecap="round" stroke-linejoin="round"/>
<path d="M17.0806 10.6314L22.415 8.45825" stroke="#191919" stroke-linecap="round" stroke-linejoin="round"/>
<path d="M22.415 15.5421L17.0806 13.3689" stroke="#191919" stroke-linecap="round" stroke-linejoin="round"/>
<path d="M13.3687 17.0811L15.5418 22.4156" stroke="#191919" stroke-linecap="round" stroke-linejoin="round"/>
<path d="M8.45752 22.4156L10.6307 17.0811" stroke="#191919" stroke-linecap="round" stroke-linejoin="round"/>
<path d="M6.91891 13.3689L1.58447 15.5421" stroke="#191919" stroke-linecap="round" stroke-linejoin="round"/>
<path d="M1.58447 8.45825L6.91891 10.6314" stroke="#191919" stroke-linecap="round" stroke-linejoin="round"/>
<path d="M10.6307 6.91921L8.45752 1.58478" stroke="#191919" stroke-linecap="round" stroke-linejoin="round"/>
</g>
<defs>
<clipPath id="clip0_5303_12779">
<rect width="24" height="24" fill="white"/>
</clipPath>
</defs>
</svg>
