<svg width="24" height="24" viewBox="0 0 24 24" fill="none" xmlns="http://www.w3.org/2000/svg">
<g clip-path="url(#clip0_5303_12461)">
<path d="M3.17722 9.60869C2.92354 9.60869 2.68024 9.50792 2.50086 9.32854C2.32148 9.14915 2.2207 8.90586 2.2207 8.65217V1.95652C2.2207 1.70283 2.32148 1.45954 2.50086 1.28016C2.68024 1.10078 2.92354 1 3.17722 1H4.13375C4.38743 1 4.63073 1.10078 4.81011 1.28016C4.98949 1.45954 5.09027 1.70283 5.09027 1.95652V2.408C6.24643 1.45379 7.71641 0.964145 9.21383 1.03443C11.96 1.03443 12.6487 2.408 15.3939 2.408C16.8364 2.39013 18.2561 2.04544 19.5462 1.39983C19.7387 1.30397 19.958 1.27582 20.1685 1.3199C20.379 1.36398 20.5685 1.47773 20.7064 1.64278L21.5577 2.66435C21.6663 2.79459 21.7383 2.95136 21.7665 3.1186C21.7945 3.28584 21.7776 3.45752 21.7175 3.61609C20.2913 7.38096 16.6422 17.39 16.1362 22.1449C16.1112 22.3794 16.0004 22.5965 15.825 22.7544C15.6497 22.9122 15.4222 22.9997 15.1864 23H9.51322C9.38246 23.0003 9.25304 22.9737 9.13294 22.9219C9.01285 22.8702 8.90464 22.7944 8.815 22.6992C8.72536 22.604 8.65619 22.4914 8.61176 22.3685C8.56733 22.2455 8.54859 22.1146 8.5567 21.9842C8.83516 18.9924 9.70442 16.0856 11.1142 13.4321C12.5239 10.7786 14.4461 8.43122 16.7694 6.52583C16.3248 6.98093 15.79 7.33817 15.1994 7.5747C14.6087 7.81122 13.9752 7.92181 13.3393 7.89939C11.6233 7.89939 9.56392 6.52583 8.19035 6.52583C7.49345 6.49689 6.80818 6.71126 6.252 7.13219C5.69582 7.55312 5.30337 8.15439 5.14192 8.83296C5.09993 9.05111 4.98332 9.24784 4.8121 9.38939C4.64087 9.53094 4.42572 9.60847 4.20357 9.60869H3.17722Z" fill="#FF808C"/>
<path d="M8.65235 3.86956C12.9567 3.86956 12.9567 5.30435 15.8263 5.30435C17.2209 5.30435 19.6323 4.1747 21.7424 3.01348C21.7061 2.88541 21.6432 2.76644 21.5577 2.66435L20.7045 1.64278C20.5667 1.47817 20.3776 1.36471 20.1674 1.32064C19.9573 1.27657 19.7385 1.30446 19.5462 1.39983C18.2561 2.04544 16.8364 2.39013 15.3939 2.408C12.6487 2.408 11.96 1.03443 9.21383 1.03443C7.71641 0.964145 6.24643 1.45379 5.09027 2.408V1.95652C5.09027 1.70283 4.98949 1.45954 4.81011 1.28016C4.63073 1.10078 4.38743 1 4.13375 1H3.17722C2.92354 1 2.68024 1.10078 2.50086 1.28016C2.32148 1.45954 2.2207 1.70283 2.2207 1.95652V5.79504C4.16813 4.62161 6.38049 3.95929 8.65235 3.86956Z" fill="#FFBFC5"/>
<path d="M3.17722 9.60869C2.92354 9.60869 2.68024 9.50792 2.50086 9.32854C2.32148 9.14915 2.2207 8.90586 2.2207 8.65217V1.95652C2.2207 1.70283 2.32148 1.45954 2.50086 1.28016C2.68024 1.10078 2.92354 1 3.17722 1H4.13375C4.38743 1 4.63073 1.10078 4.81011 1.28016C4.98949 1.45954 5.09027 1.70283 5.09027 1.95652V2.408C6.24643 1.45379 7.71641 0.964145 9.21383 1.03443C11.96 1.03443 12.6487 2.408 15.3939 2.408C16.8364 2.39013 18.2561 2.04544 19.5462 1.39983C19.7387 1.30397 19.958 1.27582 20.1685 1.3199C20.379 1.36398 20.5685 1.47773 20.7064 1.64278L21.5577 2.66435C21.6663 2.79459 21.7383 2.95136 21.7665 3.1186C21.7945 3.28584 21.7776 3.45752 21.7175 3.61609C20.2913 7.38096 16.6422 17.39 16.1362 22.1449C16.1112 22.3794 16.0004 22.5965 15.825 22.7544C15.6497 22.9122 15.4222 22.9997 15.1864 23H9.51322C9.38246 23.0003 9.25304 22.9737 9.13294 22.9219C9.01285 22.8702 8.90464 22.7944 8.815 22.6992C8.72536 22.604 8.65619 22.4914 8.61176 22.3685C8.56733 22.2455 8.54859 22.1146 8.5567 21.9842C8.83516 18.9924 9.70442 16.0856 11.1142 13.4321C12.5239 10.7786 14.4461 8.43122 16.7694 6.52583C16.3248 6.98093 15.79 7.33817 15.1994 7.5747C14.6087 7.81122 13.9752 7.92181 13.3393 7.89939C11.6233 7.89939 9.56392 6.52583 8.19035 6.52583C7.49345 6.49689 6.80818 6.71126 6.252 7.13219C5.69582 7.55312 5.30337 8.15439 5.14192 8.83296C5.09993 9.05111 4.98332 9.24784 4.8121 9.38939C4.64087 9.53094 4.42572 9.60847 4.20357 9.60869H3.17722Z" stroke="#191919" stroke-linecap="round" stroke-linejoin="round"/>
</g>
<defs>
<clipPath id="clip0_5303_12461">
<rect width="24" height="24" fill="white"/>
</clipPath>
</defs>
</svg>
