<svg width="24" height="24" viewBox="0 0 24 24" fill="none" xmlns="http://www.w3.org/2000/svg">
<g clip-path="url(#clip0_5303_5618)">
<path d="M14.2754 1.22207L11.4528 5.76658H14.9588L7.51035 14.0937L10.5158 7.68087H6.95137L11.0145 1.03064C8.25234 1.28132 5.6871 2.56688 3.83308 4.62957C1.97905 6.69224 0.973313 9.37955 1.01751 12.1526C1.06171 14.9258 2.15258 17.5796 4.0714 19.5822C5.99021 21.5847 8.59511 22.7879 11.3638 22.9505C14.1324 23.113 16.8603 22.2228 19.0002 20.4585C21.1402 18.6942 22.5341 16.1862 22.9024 13.4373C23.2708 10.6885 22.5863 7.90194 20.9864 5.63651C19.3864 3.37107 16.9892 1.7942 14.2754 1.22207Z" fill="#FFEF5E"/>
<path d="M4.24962 19.7954L19.8089 4.23133C18.2977 2.70978 16.3742 1.6637 14.2757 1.22207L11.4531 5.76658H14.9591L7.51061 14.0937L10.516 7.68087H6.95164L11.0147 1.03064C8.92801 1.21872 6.9384 1.99869 5.27982 3.27885C3.62125 4.559 2.36267 6.28612 1.6521 8.2571C0.941519 10.2281 0.808483 12.361 1.26863 14.405C1.72878 16.449 2.76298 18.3191 4.24962 19.7954Z" fill="#FFF9BF"/>
<path d="M12.3316 8.70401L8.72607 12.7355C8.85492 13.3406 9.14881 13.8982 9.57517 14.3465C10.0015 14.7948 10.5437 15.1162 11.1416 15.2753C11.7394 15.4343 12.3697 15.4246 12.9624 15.2474C13.5551 15.0701 14.0872 14.7322 14.4997 14.2711C14.9121 13.8099 15.1887 13.2436 15.299 12.6347C15.4092 12.026 15.3487 11.3986 15.1243 10.8221C14.8997 10.2456 14.5199 9.74257 14.027 9.3687C13.5341 8.99484 12.9473 8.76477 12.3316 8.70401Z" fill="#808080"/>
<path d="M14.2994 9.54922C14.6216 9.85273 14.8805 10.2171 15.061 10.6212C15.2416 11.0253 15.3403 11.4612 15.3514 11.9037C15.3625 12.3462 15.2858 12.7865 15.1257 13.1992C14.9657 13.6118 14.7254 13.9887 14.4189 14.308C14.1123 14.6272 13.7455 14.8826 13.3397 15.0593C12.9339 15.236 12.497 15.3304 12.0544 15.3373C11.6118 15.3442 11.1723 15.2634 10.7611 15.0993C10.35 14.9353 9.97551 14.6915 9.65918 14.3818" stroke="#191919" stroke-linecap="round" stroke-linejoin="round"/>
<path d="M14.2754 1.22207L11.4528 5.76658H14.9588L7.51035 14.0937L10.5158 7.68087H6.95137L11.0145 1.03064C8.25234 1.28132 5.6871 2.56688 3.83308 4.62957C1.97905 6.69224 0.973313 9.37955 1.01751 12.1526C1.06171 14.9258 2.15258 17.5796 4.0714 19.5822C5.99021 21.5847 8.59511 22.7879 11.3638 22.9505C14.1324 23.113 16.8603 22.2228 19.0002 20.4585C21.1402 18.6942 22.5341 16.1862 22.9024 13.4373C23.2708 10.6885 22.5863 7.90194 20.9864 5.63651C19.3864 3.37107 16.9892 1.7942 14.2754 1.22207Z" stroke="#191919" stroke-linecap="round" stroke-linejoin="round"/>
</g>
<defs>
<clipPath id="clip0_5303_5618">
<rect width="24" height="24" fill="white"/>
</clipPath>
</defs>
</svg>
