<svg width="24" height="24" viewBox="0 0 24 24" fill="none" xmlns="http://www.w3.org/2000/svg">
<g clip-path="url(#clip0_5303_7464)">
<path d="M12.0002 23C17.6515 23 22.2328 18.4187 22.2328 12.7674C22.2328 7.11608 17.6515 2.53479 12.0002 2.53479C6.34887 2.53479 1.76758 7.11608 1.76758 12.7674C1.76758 18.4187 6.34887 23 12.0002 23Z" fill="#C2F3FF"/>
<path d="M6.73486 9.71805C7.35644 8.9151 8.15362 8.26509 9.06531 7.81789C9.97696 7.37069 10.9789 7.13818 11.9944 7.13818C13.0099 7.13818 14.0119 7.37069 14.9235 7.81789C15.8352 8.26509 16.6325 8.9151 17.254 9.71805" stroke="#191919" stroke-linecap="round" stroke-linejoin="round"/>
<path d="M4.81885 7.48339C5.68184 6.41212 6.77373 5.54767 8.0144 4.95346C9.25507 4.35926 10.6131 4.05038 11.9887 4.0495C13.3643 4.04861 14.7227 4.35574 15.9641 4.94835C17.2055 5.54097 18.2986 6.40403 19.1629 7.47418" stroke="#191919" stroke-linecap="round" stroke-linejoin="round"/>
<path d="M2.771 5.45721C3.87416 4.06637 5.27756 2.943 6.87619 2.17115C8.47482 1.39929 10.2273 0.99893 12.0026 1C13.7777 1.00109 15.5297 1.40359 17.1275 2.1774C18.7251 2.95121 20.1271 4.07628 21.2286 5.46846" stroke="#191919" stroke-linecap="round" stroke-linejoin="round"/>
<path d="M5.83887 14.3023H8.90865C9.45143 14.3023 9.97192 14.5179 10.3557 14.9017C10.7396 15.2856 10.9552 15.8061 10.9552 16.3488C10.9552 16.8916 10.7396 17.4121 10.3557 17.7959C9.97192 18.1798 9.45143 18.3954 8.90865 18.3954C9.45143 18.3954 9.97192 18.611 10.3557 18.9948C10.7396 19.3786 10.9552 19.8991 10.9552 20.4419C10.9552 20.9846 10.7396 21.5051 10.3557 21.889C9.97192 22.2728 9.45143 22.4884 8.90865 22.4884H5.83887" stroke="#191919" stroke-linecap="round" stroke-linejoin="round"/>
<path d="M7.37402 18.3953H8.90892" stroke="#191919" stroke-linecap="round" stroke-linejoin="round"/>
<path d="M18.1175 16.3488C18.1175 15.8061 17.9019 15.2856 17.518 14.9017C17.1342 14.5179 16.6137 14.3023 16.0709 14.3023C15.5282 14.3023 15.0077 14.5179 14.6238 14.9017C14.24 15.2856 14.0244 15.8061 14.0244 16.3488V20.4419C14.0244 20.9846 14.24 21.5051 14.6238 21.889C15.0077 22.2728 15.5282 22.4884 16.0709 22.4884C16.6137 22.4884 17.1342 22.2728 17.518 21.889C17.9019 21.5051 18.1175 20.9846 18.1175 20.4419V19.4186H16.5826" stroke="#191919" stroke-linecap="round" stroke-linejoin="round"/>
</g>
<defs>
<clipPath id="clip0_5303_7464">
<rect width="24" height="24" fill="white"/>
</clipPath>
</defs>
</svg>
