<svg width="24" height="24" viewBox="0 0 24 24" fill="none" xmlns="http://www.w3.org/2000/svg">
<path d="M11.6566 9.60919H7.97412L9.81057 7.76318L11.6566 9.60919Z" fill="#FFEF5E"/>
<path d="M19.9966 4.38685L18.3036 6.07026C17.9354 6.33701 17.646 6.69815 17.4659 7.11563C17.2857 7.53311 17.2216 7.99145 17.2802 8.44233V9.60924H11.6561L9.81006 7.76323L10.4892 7.08413C11.0356 6.5918 11.6779 6.21783 12.3759 5.98574C13.0738 5.75365 13.8122 5.66844 14.5446 5.73549C14.9947 5.79585 15.4527 5.73351 15.8702 5.55505C16.2878 5.37658 16.6493 5.08863 16.9167 4.72162L18.6192 3.00952L19.9966 4.38685Z" fill="#78EB7B"/>
<path d="M22.0242 2.34864L19.9965 4.38594L18.6191 3.00861L20.6278 1L22.0242 2.34864Z" fill="#FFBC44" stroke="#191919" stroke-linecap="round" stroke-linejoin="round"/>
<path d="M17.2807 9.60924V8.44233C17.2221 7.99145 17.2862 7.53311 17.4664 7.11563C17.6465 6.69815 17.9359 6.33701 18.3041 6.07026L19.9971 4.38685L18.6198 3.00952L16.9172 4.72162C16.6498 5.08863 16.2883 5.37658 15.8707 5.55505C15.4532 5.73351 14.9952 5.79585 14.5451 5.73549C13.8127 5.66844 13.0743 5.75365 12.3764 5.98574C11.6785 6.21783 11.0361 6.5918 10.4897 7.08413L7.97412 9.60924" stroke="#191919" stroke-linecap="round" stroke-linejoin="round"/>
<path d="M9.8125 7.76318L11.6576 9.60919" stroke="#191919" stroke-linecap="round" stroke-linejoin="round"/>
<path d="M4.37305 11.5222H18.7203L16.0326 22.2759C15.9807 22.4828 15.8613 22.6664 15.6932 22.7975C15.5251 22.9287 15.318 23 15.1048 23H7.9895C7.77628 23 7.56916 22.9287 7.40107 22.7975C7.23297 22.6664 7.11353 22.4828 7.06171 22.2759L4.37305 11.5222Z" fill="white"/>
<path d="M11.5032 19.1741C10.3706 19.175 9.25189 18.9241 8.22822 18.4394C7.20455 17.9547 6.3015 17.2484 5.58447 16.3716L7.06128 22.2759C7.11309 22.4828 7.23254 22.6664 7.40063 22.7976C7.56873 22.9287 7.77584 23 7.98907 23H15.1043C15.3176 23 15.5247 22.9287 15.6928 22.7976C15.8609 22.6664 15.9803 22.4828 16.0321 22.2759L17.551 16.1975C16.8381 17.1236 15.9221 17.8736 14.8735 18.3897C13.825 18.9058 12.6719 19.1741 11.5032 19.1741Z" fill="#E3E3E3"/>
<path d="M4.37305 11.5222H18.7203L16.0326 22.2759C15.9807 22.4828 15.8613 22.6664 15.6932 22.7975C15.5251 22.9287 15.318 23 15.1048 23H7.9895C7.77628 23 7.56916 22.9287 7.40107 22.7975C7.23297 22.6664 7.11353 22.4828 7.06171 22.2759L4.37305 11.5222Z" stroke="#191919" stroke-linecap="round" stroke-linejoin="round"/>
<path d="M4.37285 11.5222C3.81345 11.5207 3.27122 11.7153 2.84051 12.0723C2.40979 12.4292 2.11785 12.9259 2.01548 13.4758C1.91311 14.0258 2.00679 14.5942 2.28023 15.0822C2.55366 15.5703 2.98954 15.947 3.51202 16.1468" stroke="#191919" stroke-linecap="round" stroke-linejoin="round"/>
<path d="M18.7202 11.5222C19.2796 11.5207 19.8218 11.7153 20.2526 12.0723C20.6833 12.4292 20.9752 12.9259 21.0776 13.4758C21.18 14.0258 21.0863 14.5942 20.8128 15.0822C20.5394 15.5703 20.1035 15.947 19.581 16.1468" stroke="#191919" stroke-linecap="round" stroke-linejoin="round"/>
</svg>
