<svg width="24" height="24" viewBox="0 0 24 24" fill="none" xmlns="http://www.w3.org/2000/svg">
<g clip-path="url(#clip0_5303_5564)">
<path d="M17.739 7.69565V14.3913C17.736 15.4051 17.3319 16.3766 16.615 17.0934C15.8982 17.8103 14.9267 18.2143 13.9129 18.2174H10.0868C9.07303 18.2143 8.1016 17.8103 7.38472 17.0934C6.66785 16.3766 6.26377 15.4051 6.26074 14.3913V7.69565H17.739Z" fill="#E3E3E3"/>
<path d="M13.9129 15.3479H10.0868C9.07303 15.3448 8.1016 14.9408 7.38472 14.2239C6.66785 13.5071 6.26377 12.5356 6.26074 11.5218V14.3914C6.26377 15.4052 6.66785 16.3766 7.38472 17.0934C8.1016 17.8104 9.07303 18.2144 10.0868 18.2175H13.9129C14.9267 18.2144 15.8982 17.8104 16.615 17.0934C17.3319 16.3766 17.736 15.4052 17.739 14.3914V11.5218C17.736 12.5356 17.3319 13.5071 16.615 14.2239C15.8982 14.9408 14.9267 15.3448 13.9129 15.3479Z" fill="#B2B2B2"/>
<path d="M17.739 7.69565V14.3913C17.736 15.4051 17.3319 16.3766 16.615 17.0934C15.8982 17.8103 14.9267 18.2143 13.9129 18.2174H10.0868C9.07303 18.2143 8.1016 17.8103 7.38472 17.0934C6.66785 16.3766 6.26377 15.4051 6.26074 14.3913V7.69565H17.739Z" stroke="#191919" stroke-linecap="round" stroke-linejoin="round"/>
<path d="M4.34766 7.69565H19.652" stroke="#191919" stroke-linecap="round" stroke-linejoin="round"/>
<path d="M13.913 20.1305C13.913 20.3841 13.8122 20.6275 13.6328 20.8068C13.4535 20.9862 13.2102 21.087 12.9565 21.087H11.0434C10.7898 21.087 10.5464 20.9862 10.3671 20.8068C10.1877 20.6275 10.0869 20.3841 10.0869 20.1305V18.2174H13.913V20.1305Z" fill="#808080" stroke="#191919" stroke-linecap="round" stroke-linejoin="round"/>
<path d="M12 21.087V23" stroke="#191919" stroke-linecap="round" stroke-linejoin="round"/>
<path d="M8.17432 7.69566V1" stroke="#191919" stroke-linecap="round" stroke-linejoin="round"/>
<path d="M15.8262 7.69566V1" stroke="#191919" stroke-linecap="round" stroke-linejoin="round"/>
</g>
<defs>
<clipPath id="clip0_5303_5564">
<rect width="24" height="24" fill="white"/>
</clipPath>
</defs>
</svg>
