<svg width="24" height="24" viewBox="0 0 24 24" fill="none" xmlns="http://www.w3.org/2000/svg">
<path d="M20.1304 9.60864V7.6956C20.1304 7.56998 20.1057 7.4456 20.0576 7.32955C20.0096 7.2135 19.9391 7.10805 19.8503 7.01923C19.7615 6.93041 19.656 6.85996 19.54 6.81189C19.4239 6.76382 19.2995 6.73907 19.1739 6.73907H1.95652C1.83091 6.73907 1.70653 6.76382 1.59048 6.81189C1.47443 6.85996 1.36898 6.93041 1.28016 7.01923C1.19134 7.10805 1.12088 7.2135 1.07281 7.32955C1.02474 7.4456 1 7.56998 1 7.6956V16.3043C1 16.558 1.10078 16.8013 1.28016 16.9807C1.45954 17.16 1.70284 17.2608 1.95652 17.2608H19.1739C19.4276 17.2608 19.6709 17.16 19.8503 16.9807C20.0297 16.8013 20.1304 16.558 20.1304 16.3043V14.3912H22.0435C22.2972 14.3912 22.5405 14.2905 22.7198 14.1111C22.8992 13.9317 23 13.6884 23 13.4347V10.5652C23 10.3115 22.8992 10.0682 22.7198 9.8888C22.5405 9.70942 22.2972 9.60864 22.0435 9.60864H20.1304Z" fill="#E3E3E3"/>
<path d="M12.4775 6.26086L8.65137 13.4348H11.5209V17.7391L15.347 10.5652H12.4775V6.26086Z" fill="#FFEF5E"/>
<path d="M12.4775 10.5652V6.26086L8.65137 13.4348H10.6113L13.4808 10.5652H12.4775Z" fill="#FFF9BF"/>
<path d="M15.3474 17.2608H19.1735C19.4272 17.2608 19.6705 17.16 19.8499 16.9807C20.0292 16.8013 20.13 16.558 20.13 16.3043V14.3912H22.0431C22.2967 14.3912 22.54 14.2905 22.7194 14.1111C22.8988 13.9317 22.9996 13.6884 22.9996 13.4347V10.5652C22.9996 10.3115 22.8988 10.0682 22.7194 9.8888C22.54 9.70942 22.2967 9.60864 22.0431 9.60864H20.13V7.6956C20.13 7.44191 20.0292 7.19862 19.8499 7.01923C19.6705 6.83985 19.4272 6.73907 19.1735 6.73907H14.8691" stroke="#191919" stroke-linecap="round" stroke-linejoin="round"/>
<path d="M8.65217 6.73907H1.95652C1.70284 6.73907 1.45954 6.83985 1.28016 7.01923C1.10078 7.19862 1 7.44191 1 7.6956V16.3043C1 16.558 1.10078 16.8013 1.28016 16.9807C1.45954 17.16 1.70284 17.2608 1.95652 17.2608H9.13043" stroke="#191919" stroke-linecap="round" stroke-linejoin="round"/>
<path d="M12.4775 6.26086L8.65137 13.4348H11.5209V17.7391L15.347 10.5652H12.4775V6.26086Z" stroke="#191919" stroke-linecap="round" stroke-linejoin="round"/>
</svg>
