<svg width="24" height="24" viewBox="0 0 24 24" fill="none" xmlns="http://www.w3.org/2000/svg">
<path d="M20.1304 9.6087V7.69566C20.1304 7.44197 20.0296 7.19868 19.8503 7.01929C19.6709 6.83991 19.4276 6.73914 19.1739 6.73914H1.95652C1.70283 6.73914 1.45954 6.83991 1.28016 7.01929C1.10078 7.19868 1 7.44197 1 7.69566V16.3044C1 16.558 1.10078 16.8014 1.28016 16.9807C1.45954 17.1601 1.70283 17.2609 1.95652 17.2609H19.1739C19.4276 17.2609 19.6709 17.1601 19.8503 16.9807C20.0296 16.8014 20.1304 16.558 20.1304 16.3044V14.3913H22.0435C22.2971 14.3913 22.5405 14.2905 22.7198 14.1111C22.8992 13.9318 23 13.6885 23 13.4348V10.5652C23 10.3116 22.8992 10.0682 22.7198 9.88886C22.5405 9.70948 22.2971 9.6087 22.0435 9.6087H20.1304Z" fill="#E3E3E3"/>
<path d="M10.0865 8.65222H3.39086C3.12672 8.65222 2.9126 8.86635 2.9126 9.13048V14.8696C2.9126 15.1337 3.12672 15.3479 3.39086 15.3479H10.0865C10.3506 15.3479 10.5648 15.1337 10.5648 14.8696V9.13048C10.5648 8.86635 10.3506 8.65222 10.0865 8.65222Z" fill="#FFEF5E"/>
<path d="M10.0865 8.65222H3.39086C3.26401 8.65222 3.14236 8.70261 3.05268 8.7923C2.96299 8.88199 2.9126 9.00364 2.9126 9.13048V14.8696C2.9126 14.9964 2.96299 15.1181 3.05268 15.2078C3.14236 15.2975 3.26401 15.3479 3.39086 15.3479L10.0865 8.65222Z" fill="#FFF9BF"/>
<path d="M19.1739 17.2609H1.95652C1.70283 17.2609 1.45954 17.1601 1.28016 16.9807C1.10078 16.8014 1 16.558 1 16.3044V7.69566C1 7.44197 1.10078 7.19868 1.28016 7.01929C1.45954 6.83991 1.70283 6.73914 1.95652 6.73914H19.1739C19.4276 6.73914 19.6709 6.83991 19.8503 7.01929C20.0296 7.19868 20.1304 7.44197 20.1304 7.69566V9.6087H22.0435C22.2971 9.6087 22.5405 9.70948 22.7198 9.88886C22.8992 10.0682 23 10.3116 23 10.5652V13.4348C23 13.6885 22.8992 13.9318 22.7198 14.1111C22.5405 14.2905 22.2971 14.3913 22.0435 14.3913H20.1304V16.3044C20.1304 16.558 20.0296 16.8014 19.8503 16.9807C19.6709 17.1601 19.4276 17.2609 19.1739 17.2609Z" stroke="#191919" stroke-linecap="round" stroke-linejoin="round"/>
<path d="M10.0865 8.65222H3.39086C3.12672 8.65222 2.9126 8.86635 2.9126 9.13048V14.8696C2.9126 15.1337 3.12672 15.3479 3.39086 15.3479H10.0865C10.3506 15.3479 10.5648 15.1337 10.5648 14.8696V9.13048C10.5648 8.86635 10.3506 8.65222 10.0865 8.65222Z" stroke="#191919" stroke-linecap="round" stroke-linejoin="round"/>
</svg>
