<svg width="24" height="24" viewBox="0 0 24 24" fill="none" xmlns="http://www.w3.org/2000/svg">
<path d="M20.7085 1.4574H3.29183C3.05107 1.4574 2.81267 1.50482 2.59024 1.59695C2.36781 1.68909 2.16571 1.82413 1.99547 1.99437C1.65165 2.33819 1.4585 2.8045 1.4585 3.29073V20.7074C1.4585 21.1936 1.65165 21.6599 1.99547 22.0038C2.16571 22.174 2.36781 22.309 2.59024 22.4012C2.81267 22.4933 3.05107 22.5407 3.29183 22.5407H20.7085C21.1947 22.5407 21.661 22.3476 22.0049 22.0038C22.3487 21.6599 22.5418 21.1936 22.5418 20.7074V3.29073C22.5418 2.8045 22.3487 2.33819 22.0049 1.99437C21.661 1.65055 21.1947 1.4574 20.7085 1.4574Z" fill="#E4F1F5"/>
<path d="M12.0002 1.45831H3.29183C2.8056 1.45831 2.33928 1.65147 1.99547 1.99528C1.65165 2.3391 1.4585 2.80542 1.4585 3.29165V20.7083C1.4585 21.1945 1.65165 21.6609 1.99547 22.0047C2.33928 22.3485 2.8056 22.5416 3.29183 22.5416H12.0002V1.45831Z" fill="white"/>
<path d="M20.7085 1.4574H3.29183C3.05107 1.4574 2.81267 1.50482 2.59024 1.59695C2.36781 1.68909 2.16571 1.82413 1.99547 1.99437C1.65165 2.33819 1.4585 2.8045 1.4585 3.29073V20.7074C1.4585 21.1936 1.65165 21.6599 1.99547 22.0038C2.16571 22.174 2.36781 22.309 2.59024 22.4012C2.81267 22.4933 3.05107 22.5407 3.29183 22.5407H20.7085C21.1947 22.5407 21.661 22.3476 22.0049 22.0038C22.3487 21.6599 22.5418 21.1936 22.5418 20.7074V3.29073C22.5418 2.8045 22.3487 2.33819 22.0049 1.99437C21.661 1.65055 21.1947 1.4574 20.7085 1.4574Z" stroke="#191919" stroke-linecap="round" stroke-linejoin="round"/>
<path d="M5.5835 7.87406L6.9585 9.24906L10.6252 5.5824" stroke="#191919" stroke-linecap="round" stroke-linejoin="round"/>
<path d="M5.5835 17.0408L6.9585 18.4158L10.6252 14.7491" stroke="#191919" stroke-linecap="round" stroke-linejoin="round"/>
<path d="M13.375 8.79077H18.875" stroke="#191919" stroke-linecap="round" stroke-linejoin="round"/>
<path d="M13.375 17.0408H18.875" stroke="#191919" stroke-linecap="round" stroke-linejoin="round"/>
</svg>
