<svg width="24" height="24" viewBox="0 0 24 24" fill="none" xmlns="http://www.w3.org/2000/svg">
<path d="M16.3118 6.97003C16.841 6.97003 17.27 7.39903 17.27 7.92822V19.4264C17.27 19.9556 16.841 20.3846 16.3118 20.3846H4.81366C4.28447 20.3846 3.85547 19.9556 3.85547 19.4264V7.92822C3.85547 7.39894 4.28438 6.96994 4.81366 6.97003H16.3118Z" fill="#78EB7B"/>
<path d="M22.0611 1.69904L10.0838 16.5509L5.29297 11.76" stroke="#191919" stroke-linecap="round" stroke-linejoin="round"/>
<path d="M19.1862 11.2819V21.3428C19.1862 21.8719 18.7572 22.3009 18.228 22.3009H2.89716C2.36796 22.3009 1.93896 21.8719 1.93896 21.3428V6.01184C1.93896 5.48265 2.36796 5.05365 2.89716 5.05365H13.9162" stroke="#191919" stroke-linecap="round" stroke-linejoin="round"/>
</svg>
