<svg width="24" height="24" viewBox="0 0 24 24" fill="none" xmlns="http://www.w3.org/2000/svg">
<g clip-path="url(#clip0_5303_3740)">
<path d="M22.0435 6.26086H1.95652C1.70284 6.26086 1.45954 6.36164 1.28016 6.54102C1.10078 6.72041 1 6.9637 1 7.21739V16.7826C1 17.0363 1.10078 17.2796 1.28016 17.459C1.45954 17.6383 1.70284 17.7391 1.95652 17.7391H22.0435C22.2972 17.7391 22.5405 17.6383 22.7198 17.459C22.8992 17.2796 23 17.0363 23 16.7826V7.21739C23 6.9637 22.8992 6.72041 22.7198 6.54102C22.5405 6.36164 22.2972 6.26086 22.0435 6.26086Z" fill="white"/>
<path d="M23 10.0879V7.21836C23 6.96468 22.8992 6.72138 22.7198 6.542C22.5405 6.36262 22.2972 6.26184 22.0435 6.26184H1.95652C1.70284 6.26184 1.45954 6.36262 1.28016 6.542C1.10078 6.72138 1 6.96468 1 7.21836V10.0879H23Z" fill="#E4F1F5"/>
<path d="M22.0435 6.26086H1.95652C1.70284 6.26086 1.45954 6.36164 1.28016 6.54102C1.10078 6.72041 1 6.9637 1 7.21739V16.7826C1 17.0363 1.10078 17.2796 1.28016 17.459C1.45954 17.6383 1.70284 17.7391 1.95652 17.7391H22.0435C22.2972 17.7391 22.5405 17.6383 22.7198 17.459C22.8992 17.2796 23 17.0363 23 16.7826V7.21739C23 6.9637 22.8992 6.72041 22.7198 6.54102C22.5405 6.36164 22.2972 6.26086 22.0435 6.26086Z" stroke="#191919" stroke-linecap="round" stroke-linejoin="round"/>
<path d="M12.2388 11.5217L15.1083 14.8696L20.1301 9.13043" stroke="#191919" stroke-linecap="round" stroke-linejoin="round"/>
</g>
<defs>
<clipPath id="clip0_5303_3740">
<rect width="24" height="24" fill="white"/>
</clipPath>
</defs>
</svg>
