<svg width="24" height="24" viewBox="0 0 24 24" fill="none" xmlns="http://www.w3.org/2000/svg">
<g clip-path="url(#clip0_5303_11287)">
<path d="M21.234 5.17693C20.7494 5.00978 20.2182 5.04182 19.7572 5.26595C19.2962 5.49007 18.9429 5.88809 18.775 6.37241L18.3484 7.60724L17.4533 5.64073C16.1267 2.74185 13.5146 1.09767 10.6176 2.41954C7.72052 3.74132 7.25185 6.78852 8.57372 9.68843L13.177 19.7712L22.0499 15.7265L21.3258 14.1388C21.1509 13.7537 21.1079 13.3217 21.2035 12.9098L22.5118 7.30403C22.5823 6.85588 22.4929 6.39724 22.2593 6.0084C22.0256 5.61946 21.6629 5.32516 21.234 5.17693Z" fill="#FF808C"/>
<path d="M18.4915 7.8309L19.3905 9.80021L19.8171 8.56548C19.9849 8.08107 20.3382 7.68314 20.7992 7.45892C21.2602 7.2348 21.7915 7.20276 22.2761 7.36991C22.344 7.39615 22.4104 7.42622 22.475 7.45986L22.5113 7.30395C22.5869 6.82638 22.4807 6.33794 22.2139 5.93476C21.947 5.53168 21.5389 5.24319 21.0697 5.12625C20.6006 5.00932 20.1047 5.07238 19.6799 5.30306C19.2549 5.53374 18.9319 5.91527 18.7745 6.37233L18.3613 7.56977C18.4092 7.65681 18.4503 7.74479 18.4915 7.8309Z" fill="#FFBFC5"/>
<path d="M9.61619 11.8813C8.29441 8.9853 8.76308 5.93426 11.6601 4.61248C14.3247 3.39686 16.7455 4.69381 18.1457 7.16234L17.4533 5.64071C16.1267 2.74173 13.5146 1.09754 10.6176 2.41942C7.72052 3.74119 7.25185 6.78839 8.57372 9.6883L13.177 19.771L13.2105 19.7557L9.61619 11.8813Z" fill="#FFBFC5"/>
<path d="M13.1772 19.774L22.0501 15.7292L22.9568 17.7139C22.983 17.771 22.9976 17.8328 22.9997 17.8956C23.002 17.9585 22.9918 18.0212 22.9698 18.08C22.9477 18.139 22.9143 18.193 22.8713 18.2389C22.8285 18.2849 22.7769 18.322 22.7196 18.3479L14.7171 21.9958C14.66 22.022 14.5982 22.0367 14.5354 22.0388C14.4726 22.0412 14.41 22.0311 14.3511 22.0091C14.2921 21.9872 14.2382 21.9538 14.1922 21.9111C14.1462 21.8682 14.1091 21.8167 14.083 21.7596L13.1772 19.774Z" fill="#FFEF5E"/>
<path d="M14.3632 5.17681C13.8786 5.00966 13.3476 5.0417 12.8867 5.26592C12.4258 5.49013 12.0728 5.88806 11.9051 6.37238L11.4785 7.60711L10.5785 5.6407C9.25578 2.74173 6.64474 1.09754 3.7467 2.41942C0.848667 3.74119 0.381027 6.78839 1.70281 9.6883L6.30612 19.7711L15.179 15.7263L14.455 14.1386C14.28 13.7536 14.2369 13.3216 14.3325 12.9096L15.6409 7.30391C15.7115 6.85576 15.622 6.39712 15.3884 6.00828C15.1548 5.61934 14.7919 5.32504 14.3632 5.17681Z" fill="#FF808C"/>
<path d="M11.6185 7.83082L12.5175 9.80013L12.9441 8.5653C13.1122 8.08108 13.4654 7.68334 13.9265 7.45922C14.3874 7.23509 14.9184 7.20296 15.403 7.36983C15.4713 7.39606 15.5381 7.42605 15.603 7.45968L15.6393 7.30377C15.7107 6.82836 15.6025 6.34329 15.3356 5.94339C15.0686 5.5434 14.6622 5.25735 14.1958 5.14098C13.7292 5.0246 13.2361 5.08626 12.8126 5.31394C12.3891 5.54162 12.0656 5.91894 11.9053 6.37224L11.4912 7.56968C11.5343 7.65673 11.5802 7.74471 11.6185 7.83082Z" fill="#FFBFC5"/>
<path d="M2.74434 11.8814C1.42256 8.9882 1.89123 5.93426 4.78824 4.61248C7.45287 3.39686 9.87362 4.69381 11.2748 7.16234L10.5785 5.6407C9.25578 2.74173 6.64474 1.09754 3.7467 2.41942C0.848667 3.74119 0.381027 6.78839 1.70281 9.6883L6.30612 19.7711L6.33957 19.7557L2.74434 11.8814Z" fill="#FFBFC5"/>
<path d="M14.3632 5.17681C13.8786 5.00966 13.3476 5.0417 12.8867 5.26592C12.4258 5.49013 12.0728 5.88806 11.9051 6.37238L11.4785 7.60711L10.5785 5.6407C9.25578 2.74173 6.64474 1.09754 3.7467 2.41942C0.848667 3.74119 0.381027 6.78839 1.70281 9.6883L6.30612 19.7711L15.179 15.7263L14.455 14.1386C14.28 13.7536 14.2369 13.3216 14.3325 12.9096L15.6409 7.30391C15.7115 6.85576 15.622 6.39712 15.3884 6.00828C15.1548 5.61934 14.7919 5.32504 14.3632 5.17681Z" stroke="#191919" stroke-linecap="round" stroke-linejoin="round"/>
<path d="M6.30615 19.774L15.179 15.7292L16.0857 17.7139C16.1119 17.771 16.1265 17.8328 16.1286 17.8956C16.1309 17.9585 16.1207 18.0212 16.0987 18.08C16.0766 18.139 16.0432 18.193 16.0003 18.2389C15.9574 18.2849 15.9058 18.322 15.8485 18.3479L7.84606 21.9958C7.7889 22.022 7.72716 22.0367 7.66428 22.0388C7.60151 22.0412 7.53892 22.0311 7.47998 22.0091C7.42105 21.9872 7.36708 21.9538 7.32107 21.9111C7.27507 21.8682 7.23797 21.8167 7.21192 21.7596L6.30615 19.774Z" fill="#FFEF5E" stroke="#191919" stroke-linecap="round" stroke-linejoin="round"/>
<path d="M22.0495 15.7292L22.9562 17.7139C22.9823 17.7709 22.9969 17.8327 22.9993 17.8955C23.0014 17.9583 22.9914 18.0209 22.9694 18.0798C22.9475 18.1388 22.9141 18.1928 22.8714 18.2388C22.8286 18.2848 22.7771 18.3219 22.7199 18.3479L14.7155 22.0006C14.6001 22.0531 14.4687 22.0577 14.35 22.0135C14.2313 21.9691 14.135 21.8796 14.0823 21.7644L13.0962 19.6047" stroke="#191919" stroke-linecap="round" stroke-linejoin="round"/>
<path d="M18.489 17.3493L22.0489 15.7234L21.3248 14.1357C21.1495 13.7518 21.1064 13.3206 21.2025 12.9096L22.5118 7.30103C22.5849 6.82411 22.4771 6.33698 22.2095 5.93549C21.9419 5.534 21.5339 5.24701 21.0656 5.13092C20.5972 5.01483 20.1024 5.07798 19.6782 5.30801C19.254 5.53803 18.9312 5.91835 18.7731 6.37427L18.3456 7.60901L17.4523 5.64063C16.2347 2.98658 13.9393 1.38259 11.3311 2.14772" stroke="#191919" stroke-linecap="round" stroke-linejoin="round"/>
</g>
<defs>
<clipPath id="clip0_5303_11287">
<rect width="24" height="24" fill="white"/>
</clipPath>
</defs>
</svg>
