<svg width="24" height="24" viewBox="0 0 24 24" fill="none" xmlns="http://www.w3.org/2000/svg">
<g clip-path="url(#clip0_5303_12557)">
<path d="M19.174 20.1304H4.82615C4.29788 20.1304 3.86963 20.5587 3.86963 21.087V22.0435C3.86963 22.5718 4.29788 23 4.82615 23H19.174C19.7023 23 20.1305 22.5718 20.1305 22.0435V21.087C20.1305 20.5587 19.7023 20.1304 19.174 20.1304Z" fill="#C77F67" stroke="#191919" stroke-linecap="round" stroke-linejoin="round"/>
<path d="M19.174 20.1304C19.174 19.6231 18.9725 19.1365 18.6137 18.7777C18.2549 18.4189 17.7683 18.2174 17.261 18.2174H6.73922C6.23185 18.2174 5.74526 18.4189 5.38649 18.7777C5.02772 19.1365 4.82617 19.6231 4.82617 20.1304H19.174Z" fill="#C77F67" stroke="#191919" stroke-linecap="round" stroke-linejoin="round"/>
<path d="M10.0557 1.17603C12.3518 1.61393 14.4233 2.83904 15.9132 4.64026C17.4031 6.44146 18.218 8.70595 18.2177 11.0435V16.3044" stroke="#191919" stroke-linecap="round" stroke-linejoin="round"/>
<path d="M6.73919 18.2174H17.2609C16.6317 16.9594 16.3043 15.5721 16.3044 14.1656V11.0435C16.3044 9.01496 15.5462 7.05971 14.1785 5.5616C12.8108 4.0635 10.9326 3.13076 8.91241 2.94652C8.67729 2.41993 8.3092 1.96357 7.84433 1.62229C7.37945 1.28102 6.83378 1.06656 6.26093 1C6.13409 1 6.01244 1.05039 5.92276 1.14008C5.83306 1.22977 5.78267 1.35142 5.78267 1.47826V3.63809C5.19405 4.03138 4.71151 4.56378 4.37782 5.18812C4.04413 5.81246 3.86957 6.50947 3.86963 7.21739V11.5217C3.86963 11.7754 3.97041 12.0187 4.14978 12.1981C4.32917 12.3774 4.57246 12.4783 4.82615 12.4783H5.78267C6.05864 12.4784 6.32716 12.3888 6.54794 12.2233C6.76871 12.0577 6.9298 11.825 7.00702 11.56L7.40876 10.1826C7.45714 10.0171 7.55785 9.87171 7.69581 9.76824C7.83377 9.66478 8.00154 9.6088 8.17398 9.6087C8.5545 9.6087 8.91945 9.45753 9.18852 9.18846C9.45759 8.91939 9.60876 8.55444 9.60876 8.17391C9.60715 9.9385 9.11253 11.6675 8.18067 13.166C7.23581 14.6812 6.7363 16.4317 6.73919 18.2174Z" fill="#E3BFB3"/>
<path d="M6.93056 16.3044C6.80307 16.934 6.73898 17.5749 6.73926 18.2174H17.261C16.9563 17.6081 16.7215 16.9664 16.5608 16.3044H6.93056Z" fill="#C77F67"/>
<path d="M6.73919 18.2174H17.2609C16.6317 16.9594 16.3043 15.5721 16.3044 14.1656V11.0435C16.3044 9.01496 15.5462 7.05971 14.1785 5.5616C12.8108 4.0635 10.9326 3.13076 8.91241 2.94652C8.67729 2.41993 8.3092 1.96357 7.84433 1.62229C7.37945 1.28102 6.83378 1.06656 6.26093 1C6.13409 1 6.01244 1.05039 5.92276 1.14008C5.83306 1.22977 5.78267 1.35142 5.78267 1.47826V3.63809C5.19405 4.03138 4.71151 4.56378 4.37782 5.18812C4.04413 5.81246 3.86957 6.50947 3.86963 7.21739V11.5217C3.86963 11.7754 3.97041 12.0187 4.14978 12.1981C4.32917 12.3774 4.57246 12.4783 4.82615 12.4783H5.78267C6.05864 12.4784 6.32716 12.3888 6.54794 12.2233C6.76871 12.0577 6.9298 11.825 7.00702 11.56L7.40876 10.1826C7.45714 10.0171 7.55785 9.87171 7.69581 9.76824C7.83377 9.66478 8.00154 9.6088 8.17398 9.6087C8.5545 9.6087 8.91945 9.45753 9.18852 9.18846C9.45759 8.91939 9.60876 8.55444 9.60876 8.17391C9.60715 9.9385 9.11253 11.6675 8.18067 13.166C7.23581 14.6812 6.7363 16.4317 6.73919 18.2174Z" stroke="#191919" stroke-linecap="round" stroke-linejoin="round"/>
</g>
<defs>
<clipPath id="clip0_5303_12557">
<rect width="24" height="24" fill="white"/>
</clipPath>
</defs>
</svg>
