<svg width="24" height="24" viewBox="0 0 24 24" fill="none" xmlns="http://www.w3.org/2000/svg">
<g clip-path="url(#clip0_5303_12817)">
<path d="M21.9731 22.2721C20.8961 20.513 18.3077 15.582 18.2177 11.4565C18.2164 11.3886 18.2006 11.3217 18.1715 11.2603C18.1423 11.199 18.1003 11.1445 18.0484 11.1006L12.0002 5.98126L5.95013 11.1006C5.89826 11.1445 5.85632 11.199 5.82713 11.2603C5.79793 11.3217 5.78215 11.3886 5.78082 11.4565C5.69282 15.582 3.10442 20.513 2.02736 22.2721C1.98302 22.3446 1.95877 22.4275 1.95712 22.5124C1.95547 22.5974 1.97647 22.6812 2.01797 22.7553C2.05946 22.8294 2.11995 22.8912 2.19322 22.9342C2.2665 22.9772 2.3499 22.9999 2.43485 23H21.5656C21.6506 22.9999 21.734 22.9772 21.8073 22.9342C21.8805 22.8912 21.941 22.8294 21.9825 22.7553C22.024 22.6812 22.0451 22.5974 22.0433 22.5124C22.0417 22.4275 22.0175 22.3446 21.9731 22.2721Z" fill="#FFEF5E"/>
<path d="M12.0002 5.98126L5.95013 11.1006C5.89826 11.1445 5.85632 11.199 5.82713 11.2603C5.79793 11.3217 5.78215 11.3886 5.78082 11.4565C5.69282 15.582 3.10442 20.513 2.02736 22.2721C1.98302 22.3446 1.95877 22.4275 1.95712 22.5124C1.95547 22.5974 1.97647 22.6812 2.01797 22.7553C2.05946 22.8294 2.11995 22.8912 2.19322 22.9342C2.2665 22.9772 2.3499 22.9999 2.43485 23H12.0002V5.98126Z" fill="#FFF9BF"/>
<path d="M21.9731 22.2721C20.8961 20.513 18.3077 15.582 18.2177 11.4565C18.2164 11.3886 18.2006 11.3217 18.1715 11.2603C18.1423 11.199 18.1003 11.1445 18.0484 11.1006L12.0002 5.98126L5.95013 11.1006C5.89826 11.1445 5.85632 11.199 5.82713 11.2603C5.79793 11.3217 5.78215 11.3886 5.78082 11.4565C5.69282 15.582 3.10442 20.513 2.02736 22.2721C1.98302 22.3446 1.95877 22.4275 1.95712 22.5124C1.95547 22.5974 1.97647 22.6812 2.01797 22.7553C2.05946 22.8294 2.11995 22.8912 2.19322 22.9342C2.2665 22.9772 2.3499 22.9999 2.43485 23H21.5656C21.6506 22.9999 21.734 22.9772 21.8073 22.9342C21.8805 22.8912 21.941 22.8294 21.9825 22.7553C22.024 22.6812 22.0451 22.5974 22.0433 22.5124C22.0417 22.4275 22.0175 22.3446 21.9731 22.2721Z" stroke="#191919" stroke-linecap="round" stroke-linejoin="round"/>
<path d="M12 5.98126V1.47787C12.0001 1.39716 12.0206 1.31777 12.0596 1.24711C12.0986 1.17645 12.1549 1.11681 12.2231 1.07375C12.2914 1.03069 12.3694 1.00561 12.4501 1.00084C12.5306 0.996063 12.611 1.01177 12.6839 1.04647L16.1963 2.72137C16.2753 2.7589 16.3425 2.81734 16.3905 2.89036C16.4386 2.96339 16.4658 3.04819 16.469 3.13555C16.4723 3.22291 16.4515 3.3095 16.409 3.3859C16.3665 3.4623 16.3039 3.52557 16.2279 3.56887L12 5.98126Z" fill="#FF808C" stroke="#191919" stroke-linecap="round" stroke-linejoin="round"/>
<path d="M7.69531 23L11.9997 14.8694L16.3042 23H7.69531Z" fill="#808080" stroke="#191919" stroke-linecap="round" stroke-linejoin="round"/>
<path d="M12 14.8694V23" stroke="#191919" stroke-linecap="round" stroke-linejoin="round"/>
<path d="M5.77881 11.5215H18.2215" stroke="#191919" stroke-linecap="round" stroke-linejoin="round"/>
</g>
<defs>
<clipPath id="clip0_5303_12817">
<rect width="24" height="24" fill="white"/>
</clipPath>
</defs>
</svg>
