<svg width="24" height="24" viewBox="0 0 24 24" fill="none" xmlns="http://www.w3.org/2000/svg">
<g clip-path="url(#clip0_5303_12465)">
<path d="M21.3736 1.43522C21.2868 1.30154 21.1678 1.1917 21.0277 1.11569C20.8875 1.03968 20.7306 0.99991 20.5711 1H18.2171C17.566 1.00034 16.9291 1.19053 16.3844 1.5473C15.8398 1.90408 15.411 2.41194 15.1505 3.0087C14.2409 2.32843 13.1356 1.96082 11.9997 1.96082C10.8638 1.96082 9.75854 2.32843 8.84893 3.0087C8.58848 2.41194 8.15967 1.90408 7.615 1.5473C7.07033 1.19053 6.43344 1.00034 5.78233 1H3.42833C3.26896 0.99998 3.11212 1.03978 2.97204 1.11578C2.83196 1.19178 2.7131 1.30157 2.62624 1.43519C2.53938 1.56881 2.48728 1.722 2.47467 1.88087C2.46208 2.03973 2.48937 2.19923 2.55406 2.34487L3.86928 5.30435L3.23033 8.18157C3.19594 8.3366 3.20068 8.49775 3.24415 8.65048C3.28761 8.80322 3.36841 8.94274 3.47927 9.05644C3.59012 9.17014 3.72754 9.25445 3.87912 9.30177C4.0307 9.34909 4.19169 9.35792 4.34754 9.32748L6.98467 8.81C7.30946 9.83268 7.93888 10.7317 8.78867 11.3869L8.77624 11.3783L7.96607 12.3443C7.44493 12.9704 7.09232 13.7192 6.94167 14.5196C6.79101 15.3201 6.8473 16.1458 7.1052 16.9184L8.23102 20.3562H15.7722L16.8981 16.9184C17.1559 16.1458 17.2123 15.3201 17.0616 14.5196C16.911 13.7192 16.5583 12.9704 16.0372 12.3443L15.2289 11.3744H15.2232C16.0694 10.72 16.6961 9.82306 17.0195 8.8033L19.6519 9.32748C19.8079 9.35804 19.9692 9.34922 20.1209 9.30181C20.2727 9.2544 20.4102 9.1699 20.5212 9.05595C20.632 8.942 20.7129 8.8022 20.7561 8.6492C20.7994 8.49619 20.8038 8.33482 20.7691 8.17965L20.1302 5.30435L21.4454 2.34487C21.5101 2.19927 21.5375 2.0398 21.525 1.88094C21.5124 1.72208 21.4604 1.56886 21.3736 1.43522Z" fill="#B2B2B2"/>
<path d="M3.05337 3.46878C3.17171 3.41748 3.29935 3.39111 3.42833 3.3913H5.78233C6.34861 3.3913 6.90564 3.53495 7.40131 3.80879C7.89698 4.08263 8.31507 4.47773 8.6165 4.95713C8.68352 5.06328 8.78958 5.13881 8.91181 5.16744C9.03403 5.19608 9.16262 5.1755 9.2698 5.11017C10.0931 4.61143 11.0372 4.34775 11.9997 4.34775C12.9623 4.34775 13.9064 4.61143 14.7296 5.11017C14.8369 5.1755 14.9654 5.19608 15.0877 5.16744C15.2098 5.13881 15.3159 5.06328 15.3829 4.95713C15.6843 4.47773 16.1024 4.08263 16.5981 3.80879C17.0938 3.53495 17.6508 3.3913 18.2171 3.3913H20.5711C20.7 3.39111 20.8277 3.41748 20.9461 3.46878L21.4454 2.34487C21.51 2.19923 21.5374 2.03973 21.5248 1.88087C21.5121 1.722 21.46 1.56881 21.3732 1.43519C21.2863 1.30157 21.1675 1.19178 21.0274 1.11578C20.8873 1.03978 20.7305 0.99998 20.5711 1H18.2171C17.566 1.00034 16.9291 1.19053 16.3844 1.5473C15.8398 1.90408 15.411 2.41194 15.1505 3.0087C14.2409 2.32843 13.1356 1.96082 11.9997 1.96082C10.8638 1.96082 9.75854 2.32843 8.84893 3.0087C8.58848 2.41194 8.15967 1.90408 7.615 1.5473C7.07033 1.19053 6.43344 1.00034 5.78233 1H3.42833C3.26896 0.99998 3.11212 1.03978 2.97204 1.11578C2.83196 1.19178 2.7131 1.30157 2.62624 1.43519C2.53938 1.56881 2.48728 1.722 2.47467 1.88087C2.46208 2.03973 2.48937 2.19923 2.55406 2.34487L3.05337 3.46878Z" fill="#E3E3E3"/>
<path d="M17.2608 7.21741C17.261 8.09986 17.039 8.96818 16.6157 9.74243C16.1923 10.5166 15.5809 11.1719 14.8379 11.648" stroke="#191919" stroke-linecap="round" stroke-linejoin="round"/>
<path d="M8.84912 3.00869C9.75873 2.32843 10.864 1.96082 11.9999 1.96082C13.1358 1.96082 14.2411 2.32843 15.1507 3.00869" stroke="#191919" stroke-linecap="round" stroke-linejoin="round"/>
<path d="M9.09851 11.6069C8.37264 11.1277 7.77708 10.4758 7.36523 9.70966C6.95338 8.94355 6.73812 8.08721 6.73877 7.21741" stroke="#191919" stroke-linecap="round" stroke-linejoin="round"/>
<path d="M13.4345 9.6087V16.3359C13.4345 16.3792 13.4228 16.4218 13.4006 16.4589C13.3783 16.4961 13.3463 16.5265 13.3082 16.547C13.2699 16.5674 13.2268 16.5771 13.1836 16.5749C13.1403 16.5728 13.0985 16.559 13.0624 16.5349L12.2647 16.003C12.1861 15.9508 12.094 15.923 11.9997 15.923C11.9054 15.923 11.8133 15.9508 11.7348 16.003L10.937 16.5349C10.901 16.559 10.8592 16.5728 10.8158 16.5749C10.7726 16.5771 10.7296 16.5674 10.6913 16.547C10.6531 16.5265 10.6212 16.4961 10.5989 16.4589C10.5766 16.4218 10.5649 16.3792 10.5649 16.3359V9.6087" stroke="#191919" stroke-linecap="round" stroke-linejoin="round"/>
<path d="M9.88477 6.97827C9.94819 6.97827 10.009 7.00347 10.0539 7.04831C10.0987 7.09316 10.1239 7.15399 10.1239 7.2174" stroke="#191919" stroke-linecap="round" stroke-linejoin="round"/>
<path d="M9.64551 7.2174C9.64551 7.15399 9.6707 7.09316 9.71555 7.04831C9.7604 7.00347 9.82122 6.97827 9.88464 6.97827" stroke="#191919" stroke-linecap="round" stroke-linejoin="round"/>
<path d="M9.88464 7.45654C9.82122 7.45654 9.7604 7.43135 9.71555 7.38651C9.6707 7.34165 9.64551 7.28083 9.64551 7.21741" stroke="#191919" stroke-linecap="round" stroke-linejoin="round"/>
<path d="M10.1239 7.21741C10.1239 7.28083 10.0987 7.34165 10.0539 7.38651C10.009 7.43135 9.94819 7.45654 9.88477 7.45654" stroke="#191919" stroke-linecap="round" stroke-linejoin="round"/>
<path d="M14.189 6.97827C14.2524 6.97827 14.3132 7.00347 14.3581 7.04831C14.4029 7.09316 14.4281 7.15399 14.4281 7.2174" stroke="#191919" stroke-linecap="round" stroke-linejoin="round"/>
<path d="M13.9497 7.2174C13.9497 7.15399 13.9749 7.09316 14.0197 7.04831C14.0646 7.00347 14.1254 6.97827 14.1888 6.97827" stroke="#191919" stroke-linecap="round" stroke-linejoin="round"/>
<path d="M14.1888 7.45654C14.1254 7.45654 14.0646 7.43135 14.0197 7.38651C13.9749 7.34165 13.9497 7.28083 13.9497 7.21741" stroke="#191919" stroke-linecap="round" stroke-linejoin="round"/>
<path d="M14.4281 7.21741C14.4281 7.28083 14.4029 7.34165 14.3581 7.38651C14.3132 7.43135 14.2524 7.45654 14.189 7.45654" stroke="#191919" stroke-linecap="round" stroke-linejoin="round"/>
<path d="M8.84893 3.0087C8.58848 2.41194 8.15967 1.90408 7.615 1.5473C7.07033 1.19053 6.43344 1.00034 5.78233 1H3.42833C3.26896 0.99998 3.11212 1.03978 2.97204 1.11578C2.83196 1.19178 2.7131 1.30157 2.62624 1.43519C2.53938 1.56881 2.48728 1.722 2.47467 1.88087C2.46208 2.03973 2.48937 2.19923 2.55406 2.34487L3.86928 5.30435L3.23033 8.18157C3.19594 8.3366 3.20068 8.49775 3.24415 8.65048C3.28761 8.80322 3.36841 8.94274 3.47927 9.05644C3.59012 9.17014 3.72754 9.25445 3.87912 9.30177C4.0307 9.34909 4.19169 9.35792 4.34754 9.32748L6.98467 8.81" stroke="#191919" stroke-linecap="round" stroke-linejoin="round"/>
<path d="M15.1499 3.0087C15.4104 2.41194 15.8392 1.90408 16.3838 1.5473C16.9285 1.19053 17.5654 1.00034 18.2165 1H20.5705C20.7299 0.99998 20.8867 1.03978 21.0268 1.11578C21.1669 1.19178 21.2857 1.30157 21.3726 1.43519C21.4594 1.56881 21.5115 1.722 21.5242 1.88087C21.5368 2.03973 21.5094 2.19923 21.4448 2.34487L20.1296 5.30435L20.7685 8.18157C20.8028 8.3366 20.7982 8.49775 20.7546 8.65048C20.7112 8.80322 20.6304 8.94274 20.5195 9.05644C20.4087 9.17014 20.2713 9.25445 20.1197 9.30177C19.9681 9.34909 19.8071 9.35792 19.6513 9.32748L17.0142 8.81" stroke="#191919" stroke-linecap="round" stroke-linejoin="round"/>
<path d="M11.9995 18.2174V20.1304" stroke="#191919" stroke-linecap="round" stroke-linejoin="round"/>
<path d="M9.12984 20.1304H14.869C15.3763 20.1304 15.8629 20.332 16.2217 20.6908C16.5805 21.0496 16.782 21.5361 16.782 22.0435V23H7.2168V22.0435C7.2168 21.5361 7.41835 21.0496 7.77712 20.6908C8.13588 20.332 8.62247 20.1304 9.12984 20.1304Z" fill="#C77F67" stroke="#191919" stroke-linecap="round" stroke-linejoin="round"/>
<path d="M8.2288 20.3562L7.10298 16.9184C6.84508 16.1458 6.7888 15.3201 6.93945 14.5196C7.09011 13.7191 7.44271 12.9704 7.96385 12.3443L8.77306 11.3744" stroke="#191919" stroke-linecap="round" stroke-linejoin="round"/>
<path d="M15.2241 11.3744L16.0333 12.3443C16.5545 12.9704 16.9071 13.7191 17.0578 14.5196C17.2084 15.3201 17.1521 16.1458 16.8942 16.9184L15.7684 20.3562" stroke="#191919" stroke-linecap="round" stroke-linejoin="round"/>
</g>
<defs>
<clipPath id="clip0_5303_12465">
<rect width="24" height="24" fill="white"/>
</clipPath>
</defs>
</svg>
