<svg width="24" height="24" viewBox="0 0 24 24" fill="none" xmlns="http://www.w3.org/2000/svg">
<g clip-path="url(#clip0_5303_12680)">
<path d="M3.23863 9.60004C1.40315 9.4783 0.387713 7.41535 1.41085 5.88654C1.56087 5.66239 1.74777 5.46525 1.96353 5.30353C0.49189 4.19982 0.766963 1.9169 2.45867 1.1943C3.47127 0.76169 4.64833 1.07715 5.30899 1.95807C6.41124 0.485349 8.69445 0.758179 9.41871 2.4491C9.65818 3.00822 9.67544 3.63767 9.4669 4.20908" fill="#FF808C"/>
<path d="M3.23863 9.60004C1.40315 9.4783 0.387713 7.41535 1.41085 5.88654C1.56087 5.66239 1.74777 5.46525 1.96353 5.30353C0.49189 4.19982 0.766963 1.9169 2.45867 1.1943C3.47127 0.76169 4.64833 1.07715 5.30899 1.95807C6.41124 0.485349 8.69445 0.758179 9.41871 2.4491C9.65818 3.00822 9.67544 3.63767 9.4669 4.20908" stroke="#191919" stroke-linecap="round" stroke-linejoin="round"/>
<path d="M20.7613 9.60004C22.5967 9.4783 23.6122 7.41535 22.5891 5.88654C22.4391 5.66239 22.2522 5.46525 22.0364 5.30353C23.5079 4.19972 23.2329 1.9169 21.5412 1.1943C20.5286 0.761788 19.3516 1.07715 18.6909 1.95807C17.5886 0.485349 15.3054 0.758179 14.5812 2.4491C14.3417 3.00822 14.3244 3.63767 14.533 4.20908" fill="#FF808C"/>
<path d="M20.7613 9.60004C22.5967 9.4783 23.6122 7.41535 22.5891 5.88654C22.4391 5.66239 22.2522 5.46525 22.0364 5.30353C23.5079 4.19972 23.2329 1.9169 21.5412 1.1943C20.5286 0.761788 19.3516 1.07715 18.6909 1.95807C17.5886 0.485349 15.3054 0.758179 14.5812 2.4491C14.3417 3.00822 14.3244 3.63767 14.533 4.20908" stroke="#191919" stroke-linecap="round" stroke-linejoin="round"/>
<path d="M11.9993 22.9866C17.2785 22.9866 21.5577 18.7073 21.5577 13.4281C21.5577 8.14899 17.2785 3.86975 11.9993 3.86975C6.72016 3.86975 2.44092 8.14909 2.44092 13.4281C2.44092 18.7072 6.72026 22.9866 11.9993 22.9866Z" fill="white"/>
<path d="M11.9998 21.0749C7.09082 21.0751 2.98003 17.3567 2.48919 12.4723C1.7543 19.7937 9.22049 25.165 15.9284 22.1407C19.6734 20.4523 21.9207 16.5598 21.5104 12.4723C21.0196 17.3567 16.9088 21.0751 11.9998 21.0749Z" fill="#E3E3E3"/>
<path d="M11.9993 22.9866C17.2785 22.9866 21.5577 18.7073 21.5577 13.4281C21.5577 8.14899 17.2785 3.86975 11.9993 3.86975C6.72016 3.86975 2.44092 8.14909 2.44092 13.4281C2.44092 18.7072 6.72026 22.9866 11.9993 22.9866Z" stroke="#191919" stroke-linecap="round" stroke-linejoin="round"/>
<path d="M11.9994 17.2516C14.5747 17.2516 16.1843 14.4637 14.8966 12.2333C14.299 11.1983 13.1946 10.5607 11.9994 10.5607C9.42402 10.5607 7.81445 13.3486 9.10213 15.5788C9.69978 16.6139 10.8042 17.2516 11.9994 17.2516Z" fill="#FF808C"/>
<path d="M11.9998 12.4723C13.4797 12.4719 14.7839 13.4439 15.2067 14.8619C15.9403 12.3933 13.7263 10.0563 11.2217 10.6553C9.3556 11.1016 8.24643 13.0227 8.79297 14.8619C9.21582 13.4439 10.52 12.4719 11.9998 12.4723Z" fill="#FFBFC5"/>
<path d="M11.9994 17.2516C14.5747 17.2516 16.1843 14.4637 14.8966 12.2333C14.299 11.1983 13.1946 10.5607 11.9994 10.5607C9.42402 10.5607 7.81445 13.3486 9.10213 15.5788C9.69978 16.6139 10.8042 17.2516 11.9994 17.2516Z" stroke="#191919" stroke-linecap="round" stroke-linejoin="round"/>
<path d="M18.2125 13.9061C18.2125 18.6889 13.0351 21.6781 8.8931 19.2867C6.9708 18.1769 5.78662 16.1258 5.78662 13.9061" stroke="#191919" stroke-linecap="round" stroke-linejoin="round"/>
<path d="M8.6543 7.21521V10.0827" stroke="#191919" stroke-linecap="round" stroke-linejoin="round"/>
<path d="M10.0883 8.64899H7.2207" stroke="#191919" stroke-linecap="round" stroke-linejoin="round"/>
<path d="M15.3452 7.21521V10.0827" stroke="#191919" stroke-linecap="round" stroke-linejoin="round"/>
<path d="M16.7792 8.64899H13.9116" stroke="#191919" stroke-linecap="round" stroke-linejoin="round"/>
</g>
<defs>
<clipPath id="clip0_5303_12680">
<rect width="24" height="24" fill="white"/>
</clipPath>
</defs>
</svg>
