<svg width="24" height="24" viewBox="0 0 24 24" fill="none" xmlns="http://www.w3.org/2000/svg">
<path d="M18.7681 14.4996C18.0194 14.5506 22.9978 14.2677 22.9978 9.858C22.9884 9.22496 22.8516 8.60031 22.5953 8.0214C22.339 7.44247 21.9687 6.92116 21.5064 6.48862C21.044 6.05608 20.4993 5.72119 19.9047 5.50398C19.31 5.28677 18.6776 5.19168 18.0453 5.2244C17.487 4.10071 16.6246 3.15625 15.5561 2.49847C14.4875 1.84068 13.2559 1.49597 12.0012 1.50352C10.3206 1.48098 8.69456 2.10019 7.45466 3.23496C6.21476 4.36972 5.45428 5.93462 5.32821 7.61067C4.81389 7.4976 4.28089 7.50003 3.76764 7.6178C3.25437 7.73556 2.77364 7.96573 2.36007 8.29172C1.94649 8.6177 1.61039 9.03137 1.37598 9.50292C1.14159 9.97446 1.01471 10.4921 1.00452 11.0187C1.00452 14.2867 4.26553 14.4786 4.76837 14.4996H18.7681Z" fill="white"/>
<path d="M18.7681 14.4995H18.7122C18.6732 14.5065 18.6872 14.5045 18.7681 14.4995Z" fill="#E3E3E3"/>
<path d="M18.7121 12.0002H18.7681C18.6872 12.0052 18.6732 12.0072 18.7121 12.0002H4.76838C4.34351 11.9822 1.95123 11.8433 1.21745 9.82985C1.07625 10.2103 1.00413 10.6127 1.00452 11.0185C1.00452 14.2865 4.26553 14.4785 4.76838 14.4995H18.7121C19.034 14.4415 22.9978 13.7927 22.9978 9.85784C22.9976 9.45246 22.9428 9.04896 22.8349 8.6582C22.0861 11.4424 18.9991 11.9492 18.7121 12.0002Z" fill="#E3E3E3"/>
<path d="M20.4986 13.9058C21.2665 13.5508 21.9129 12.9778 22.3573 12.258C22.8017 11.5382 23.0245 10.7036 22.9979 9.858C22.9885 9.22496 22.8516 8.60031 22.5953 8.0214C22.3391 7.44247 21.9687 6.92116 21.5064 6.48862C21.044 6.05608 20.4993 5.72119 19.9047 5.50398C19.31 5.28677 18.6776 5.19168 18.0454 5.2244C17.487 4.10071 16.6246 3.15625 15.5561 2.49847C14.4875 1.84068 13.2559 1.49597 12.0012 1.50352C10.3206 1.48098 8.69457 2.10019 7.45467 3.23496C6.21477 4.36972 5.45428 5.93462 5.32822 7.61067C4.8139 7.4976 4.2809 7.50003 3.76765 7.6178C3.25438 7.73556 2.77365 7.96573 2.36008 8.29172C1.9465 8.6177 1.6104 9.03137 1.37599 9.50292C1.1416 9.97446 1.01472 10.4921 1.00453 11.0187C0.964272 11.7731 1.19353 12.5173 1.65135 13.1183C2.10916 13.7193 2.76572 14.138 3.50377 14.2997" stroke="#191919" stroke-linecap="round" stroke-linejoin="round"/>
<path d="M12.0012 22.4973C15.3139 22.4973 17.9994 19.8119 17.9994 16.4992C17.9994 13.1865 15.3139 10.501 12.0012 10.501C8.68853 10.501 6.00305 13.1865 6.00305 16.4992C6.00305 19.8119 8.68853 22.4973 12.0012 22.4973Z" fill="#78EB7B"/>
<path d="M16.2431 12.2575C15.1181 11.1328 13.5924 10.5009 12.0015 10.501C10.4107 10.5011 8.885 11.1331 7.76016 12.258C6.63532 13.383 6.00344 14.9087 6.00354 16.4997C6.00363 18.0905 6.63569 19.6162 7.76066 20.741L16.2431 12.2575Z" fill="#C9F7CA"/>
<path d="M12.0012 22.4973C15.3139 22.4973 17.9994 19.8119 17.9994 16.4992C17.9994 13.1865 15.3139 10.501 12.0012 10.501C8.68853 10.501 6.00305 13.1865 6.00305 16.4992C6.00305 19.8119 8.68853 22.4973 12.0012 22.4973Z" stroke="#191919" stroke-linecap="round" stroke-linejoin="round"/>
<path d="M12.0012 13.5V19.4982" stroke="#191919" stroke-linecap="round" stroke-linejoin="round"/>
<path d="M15.0004 16.4995H9.0022" stroke="#191919" stroke-linecap="round" stroke-linejoin="round"/>
</svg>
