<svg width="24" height="24" viewBox="0 0 24 24" fill="none" xmlns="http://www.w3.org/2000/svg">
<path d="M18.7681 14.9996C18.0194 15.0456 22.9978 14.7637 22.9978 10.353C22.9884 9.71997 22.8516 9.09532 22.5953 8.51641C22.339 7.93748 21.9687 7.41617 21.5064 6.98363C21.044 6.55109 20.4993 6.2162 19.9047 5.99899C19.31 5.78177 18.6776 5.68668 18.0453 5.7194C17.4863 4.59666 16.6236 3.65322 15.5551 2.99635C14.4866 2.33948 13.2554 1.99552 12.0012 2.00353C10.322 1.98084 8.69723 2.5988 7.45756 3.73169C6.21788 4.86457 5.45645 6.42724 5.3282 8.10168C4.81357 7.98855 4.28023 7.99106 3.76669 8.10906C3.25314 8.22705 2.77219 8.45757 2.35855 8.78399C1.9449 9.11042 1.60888 9.52459 1.37472 9.99664C1.14058 10.4687 1.01412 10.9868 1.00452 11.5137C1.00452 14.7827 4.26553 14.9736 4.76837 14.9996H18.7681Z" fill="white"/>
<path d="M18.7121 12.5002H18.7681C18.6871 12.5062 18.6732 12.5072 18.7121 12.5002H4.76837C4.3435 12.4822 1.95123 12.3433 1.21745 10.3299C1.07682 10.7087 1.00473 11.1094 1.00452 11.5135C1.00452 14.7825 4.26553 14.9735 4.76837 14.9994H18.7121C19.034 14.9415 22.9978 14.2927 22.9978 10.3579C22.9975 9.95247 22.9428 9.54897 22.8349 9.1582C22.0861 11.9384 18.9991 12.4442 18.7121 12.5002Z" fill="#E3E3E3"/>
<path d="M20.4986 14.4058C21.2665 14.0508 21.9129 13.4778 22.3573 12.758C22.8017 12.0382 23.0245 11.2036 22.9979 10.358C22.9885 9.72496 22.8516 9.10031 22.5953 8.52139C22.3391 7.94247 21.9687 7.42116 21.5064 6.98862C21.044 6.55608 20.4993 6.22119 19.9047 6.00398C19.31 5.78677 18.6776 5.69167 18.0454 5.72439C17.487 4.60071 16.6246 3.65625 15.5561 2.99847C14.4875 2.34068 13.2559 1.99597 12.0012 2.00352C10.3205 1.98098 8.69458 2.60019 7.45467 3.73496C6.21477 4.86972 5.45428 6.43462 5.32822 8.11067C4.8139 7.99759 4.28091 8.00003 3.76764 8.1178C3.25439 8.23556 2.77364 8.46573 2.36008 8.79171C1.9465 9.11769 1.61041 9.53137 1.376 10.0029C1.14159 10.4745 1.01472 10.9921 1.00453 11.5187C0.964272 12.2731 1.19353 13.0173 1.65134 13.6183C2.10917 14.2193 2.76573 14.638 3.50377 14.7997" stroke="#191919" stroke-linecap="round" stroke-linejoin="round"/>
<path d="M6.00305 18.998L9.00214 21.9971L12.0012 18.998" stroke="#191919" stroke-linecap="round" stroke-linejoin="round"/>
<path d="M9.0022 21.9973V13" stroke="#191919" stroke-linecap="round" stroke-linejoin="round"/>
<path d="M12.0012 15.9991L15.0003 13L17.9994 15.9991" stroke="#191919" stroke-linecap="round" stroke-linejoin="round"/>
<path d="M15.0004 13V21.9973" stroke="#191919" stroke-linecap="round" stroke-linejoin="round"/>
</svg>
