<svg width="24" height="24" viewBox="0 0 24 24" fill="none" xmlns="http://www.w3.org/2000/svg">
<path d="M18.7681 14.4986C18.0194 14.5496 22.9979 14.2667 22.9979 9.85702C22.9886 9.22395 22.8518 8.59923 22.5956 8.02025C22.3394 7.44126 21.9691 6.91989 21.5067 6.48733C21.0444 6.05476 20.4996 5.71988 19.9048 5.50271C19.3101 5.28555 18.6777 5.19056 18.0454 5.22342C17.4871 4.09973 16.6246 3.15528 15.5561 2.49749C14.4876 1.8397 13.2559 1.49498 12.0012 1.50255C10.3206 1.48 8.69457 2.09922 7.45467 3.23398C6.21477 4.36875 5.45428 5.93365 5.32821 7.6097C4.81388 7.49644 4.28082 7.49873 3.76748 7.61642C3.25415 7.73412 2.77333 7.96427 2.35971 8.29029C1.94609 8.6163 1.60999 9.03005 1.37564 9.5017C1.14128 9.97334 1.01453 10.4911 1.00452 11.0177C1.00452 14.2857 4.26553 14.4776 4.76838 14.4986H18.7681Z" fill="white"/>
<path d="M18.7122 11.9992H18.7681C18.6872 12.0042 18.6732 12.0062 18.7122 11.9992H4.76838C4.34351 11.9812 1.95123 11.8423 1.21745 9.82887C1.07651 10.2093 1.00441 10.6118 1.00452 11.0175C1.00452 14.2855 4.26553 14.4775 4.76838 14.4985H18.7122C19.0341 14.4405 22.9979 13.7917 22.9979 9.85686C22.9979 9.45099 22.9429 9.04711 22.8349 8.65723C22.0861 11.4414 18.9991 11.9482 18.7122 11.9992Z" fill="#E3E3E3"/>
<path d="M20.4986 13.9048C21.2664 13.5497 21.9128 12.9766 22.3572 12.2569C22.8016 11.5371 23.0244 10.7025 22.9979 9.85702C22.9884 9.22403 22.8514 8.59945 22.5951 8.02059C22.3388 7.44174 21.9684 6.92048 21.5061 6.48797C21.0438 6.05546 20.4991 5.72056 19.9045 5.50329C19.3099 5.28602 18.6776 5.19084 18.0454 5.22342C17.4871 4.09973 16.6246 3.15528 15.5561 2.49749C14.4876 1.8397 13.2559 1.49498 12.0012 1.50255C10.3206 1.48 8.69458 2.09922 7.45468 3.23398C6.21478 4.36875 5.45429 5.93365 5.32822 7.6097C4.81389 7.49644 4.28083 7.49873 3.76749 7.61642C3.25416 7.73412 2.77334 7.96427 2.35972 8.29029C1.9461 8.6163 1.61 9.03005 1.37565 9.5017C1.14129 9.97334 1.01454 10.4911 1.00453 11.0177C0.964272 11.7721 1.19353 12.5163 1.65135 13.1173C2.10916 13.7184 2.76573 14.1371 3.50377 14.2987" stroke="#191919" stroke-linecap="round" stroke-linejoin="round"/>
<path d="M12.8389 11.4999C12.7579 11.3481 12.6371 11.2212 12.4896 11.1328C12.342 11.0443 12.1732 10.9976 12.0012 10.9976C11.8291 10.9976 11.6603 11.0443 11.5128 11.1328C11.3652 11.2212 11.2445 11.3481 11.1634 11.4999L6.10895 21.134C5.99498 21.349 5.97053 21.6003 6.04093 21.8332C6.11133 22.0661 6.27087 22.2618 6.48484 22.3776C6.6258 22.4556 6.78475 22.4976 6.9467 22.4976H17.0556C17.2172 22.4977 17.3761 22.4565 17.5173 22.3779C17.6585 22.2994 17.7773 22.186 17.8624 22.0487C17.9464 21.9122 17.9934 21.7562 17.9989 21.596C18.0043 21.4358 17.968 21.2769 17.8934 21.135L12.8389 11.4999Z" fill="#FFEF5E"/>
<path d="M12.0012 11.0005C11.8293 10.9997 11.6604 11.0458 11.5128 11.1339C11.3652 11.222 11.2444 11.3487 11.1634 11.5003L6.10895 21.1344C5.99498 21.3494 5.97053 21.6007 6.04093 21.8336C6.11133 22.0665 6.27087 22.2622 6.48484 22.3781C6.6258 22.456 6.78475 22.498 6.9467 22.497H12.0012V11.0005Z" fill="#FFF9BF"/>
<path d="M12.8389 11.4999C12.7579 11.3481 12.6371 11.2212 12.4896 11.1328C12.342 11.0443 12.1732 10.9976 12.0012 10.9976C11.8291 10.9976 11.6603 11.0443 11.5128 11.1328C11.3652 11.2212 11.2445 11.3481 11.1634 11.4999L6.10895 21.134C5.99498 21.349 5.97053 21.6003 6.04093 21.8332C6.11133 22.0661 6.27087 22.2618 6.48484 22.3776C6.6258 22.4556 6.78475 22.4976 6.9467 22.4976H17.0556C17.2172 22.4977 17.3761 22.4565 17.5173 22.3779C17.6585 22.2994 17.7773 22.186 17.8624 22.0487C17.9464 21.9122 17.9934 21.7562 17.9989 21.596C18.0043 21.4358 17.968 21.2769 17.8934 21.135L12.8389 11.4999Z" stroke="#191919" stroke-linecap="round" stroke-linejoin="round"/>
<path d="M12.0012 17.4976V14.4985" stroke="#191919" stroke-linecap="round" stroke-linejoin="round"/>
<path d="M12.0002 19.9974C11.9339 19.9974 11.8703 19.9711 11.8234 19.9242C11.7766 19.8773 11.7502 19.8138 11.7502 19.7475C11.7502 19.6812 11.7766 19.6176 11.8234 19.5708C11.8703 19.5239 11.9339 19.4976 12.0002 19.4976" stroke="#191919"/>
<path d="M12.0004 19.9974C12.0667 19.9974 12.1302 19.9711 12.1771 19.9242C12.224 19.8773 12.2503 19.8138 12.2503 19.7475C12.2503 19.6812 12.224 19.6176 12.1771 19.5708C12.1302 19.5239 12.0667 19.4976 12.0004 19.4976" stroke="#191919"/>
</svg>
