<svg width="24" height="24" viewBox="0 0 24 24" fill="none" xmlns="http://www.w3.org/2000/svg">
<path d="M18.7681 14.4996C18.0194 14.5506 22.9979 14.2677 22.9979 9.858C22.9886 9.22492 22.8518 8.60021 22.5956 8.02122C22.3394 7.44224 21.9691 6.92087 21.5067 6.4883C21.0444 6.05574 20.4996 5.72085 19.9048 5.50369C19.3101 5.28652 18.6777 5.19153 18.0454 5.2244C17.4871 4.10071 16.6246 3.15625 15.5561 2.49847C14.4876 1.84068 13.2559 1.49596 12.0012 1.50352C10.3206 1.48098 8.69457 2.10019 7.45467 3.23496C6.21477 4.36973 5.45428 5.93462 5.32821 7.61068C4.81388 7.49741 4.28082 7.49971 3.76748 7.6174C3.25415 7.73509 2.77333 7.96525 2.35971 8.29126C1.94609 8.61728 1.60999 9.03103 1.37564 9.50267C1.14128 9.97431 1.01453 10.4921 1.00452 11.0186C1.00452 14.2867 4.26553 14.4786 4.76838 14.4996H18.7681Z" fill="white"/>
<path d="M18.7122 12.0002H18.7681C18.6872 12.0052 18.6732 12.0072 18.7122 12.0002H4.76838C4.34351 11.9822 1.95123 11.8432 1.21745 9.82985C1.07651 10.2103 1.00441 10.6128 1.00452 11.0185C1.00452 14.2865 4.26553 14.4784 4.76838 14.4994H18.7122C19.0341 14.4415 22.9979 13.7927 22.9979 9.85784C22.9979 9.45196 22.9429 9.04809 22.8349 8.6582C22.0861 11.4424 18.9991 11.9492 18.7122 12.0002Z" fill="#E3E3E3"/>
<path d="M20.4986 13.9058C21.2664 13.5507 21.9128 12.9776 22.3572 12.2579C22.8016 11.5381 23.0244 10.7035 22.9979 9.858C22.9884 9.22501 22.8514 8.60043 22.5951 8.02157C22.3388 7.44271 21.9684 6.92146 21.5061 6.48895C21.0438 6.05643 20.4991 5.72154 19.9045 5.50427C19.3099 5.287 18.6776 5.19182 18.0454 5.2244C17.4871 4.10071 16.6246 3.15625 15.5561 2.49847C14.4876 1.84068 13.2559 1.49596 12.0012 1.50352C10.3206 1.48098 8.69458 2.10019 7.45468 3.23496C6.21478 4.36973 5.45429 5.93462 5.32822 7.61068C4.81389 7.49741 4.28083 7.49971 3.76749 7.6174C3.25416 7.73509 2.77334 7.96525 2.35972 8.29126C1.9461 8.61728 1.61 9.03103 1.37565 9.50267C1.14129 9.97431 1.01454 10.4921 1.00453 11.0186C0.964272 11.7731 1.19353 12.5173 1.65135 13.1183C2.10916 13.7193 2.76573 14.1381 3.50377 14.2997" stroke="#191919" stroke-linecap="round" stroke-linejoin="round"/>
<path d="M16.4738 22.4973C16.5427 22.4977 16.6109 22.4845 16.6746 22.4584C16.7383 22.4324 16.7963 22.394 16.8451 22.3455C16.894 22.2971 16.9328 22.2394 16.9593 22.1759C16.9858 22.1124 16.9995 22.0443 16.9997 21.9754V13.617C16.999 13.2077 16.9173 12.8027 16.7593 12.4252C16.6012 12.0477 16.37 11.7053 16.0789 11.4176C15.4868 10.8327 14.6879 10.5048 13.8556 10.5049H7.52853C7.3902 10.5041 7.2572 10.5581 7.15864 10.6552C7.06008 10.7523 7.00401 10.8844 7.00269 11.0227V21.9754C7.00295 22.0442 7.01676 22.1123 7.04332 22.1757C7.06989 22.2392 7.1087 22.2968 7.15753 22.3453C7.20636 22.3937 7.26425 22.4321 7.32791 22.4582C7.39156 22.4842 7.45973 22.4975 7.52853 22.4973H16.4738Z" fill="#E3E3E3"/>
<path d="M16.4268 11.8246C16.1344 11.4154 15.7486 11.0818 15.3014 10.8516C14.8542 10.6214 14.3586 10.5012 13.8556 10.501H7.52853C7.45966 10.5005 7.39137 10.5136 7.3276 10.5396C7.26382 10.5655 7.20582 10.6039 7.15694 10.6524C7.10806 10.7009 7.06926 10.7586 7.04279 10.8222C7.01631 10.8858 7.00268 10.954 7.00269 11.0228V21.2477L16.4268 11.8246Z" fill="white"/>
<path d="M16.4738 22.4973C16.5427 22.4977 16.6109 22.4845 16.6746 22.4584C16.7383 22.4324 16.7963 22.394 16.8451 22.3455C16.894 22.2971 16.9328 22.2394 16.9593 22.1759C16.9858 22.1124 16.9995 22.0443 16.9997 21.9754V13.617C16.999 13.2077 16.9173 12.8027 16.7593 12.4252C16.6012 12.0477 16.37 11.7053 16.0789 11.4176C15.4868 10.8327 14.6879 10.5048 13.8556 10.5049H7.52853C7.3902 10.5041 7.2572 10.5581 7.15864 10.6552C7.06008 10.7523 7.00401 10.8844 7.00269 11.0227V21.9754C7.00295 22.0442 7.01676 22.1123 7.04332 22.1757C7.06989 22.2392 7.1087 22.2968 7.15753 22.3453C7.20636 22.3937 7.26425 22.4321 7.32791 22.4582C7.39156 22.4842 7.45973 22.4975 7.52853 22.4973H16.4738Z" stroke="#191919" stroke-linecap="round" stroke-linejoin="round"/>
<path d="M16.0791 11.4134C15.5218 10.8662 14.7811 10.5456 14.0007 10.5137V13.4998H16.9878C16.9612 12.7141 16.6362 11.9681 16.0791 11.4134Z" fill="white" stroke="#191919" stroke-linecap="round" stroke-linejoin="round"/>
</svg>
