<svg width="24" height="24" viewBox="0 0 24 24" fill="none" xmlns="http://www.w3.org/2000/svg">
<mask id="mask0_5303_6658" style="mask-type:luminance" maskUnits="userSpaceOnUse" x="1" y="1" width="22" height="22">
<path d="M1 1H23V23H1V1Z" fill="white"/>
</mask>
<g mask="url(#mask0_5303_6658)">
<path d="M22.5417 9.70827C22.5422 9.0926 22.4183 8.48317 22.1776 7.9165C21.937 7.34982 21.5844 6.83755 21.141 6.41037C20.6976 5.98319 20.1727 5.64989 19.5975 5.43043C19.0222 5.21097 18.4086 5.10987 17.7934 5.13319C17.1866 3.84501 16.1679 2.79572 14.8984 2.15108C13.6287 1.50644 12.1804 1.30321 10.7824 1.5735C9.38439 1.8438 8.11626 2.5722 7.1784 3.64362C6.24054 4.71505 5.68641 6.06843 5.60354 7.48994C5.10302 7.38481 4.58534 7.39267 4.08824 7.51294C3.59115 7.6332 3.12713 7.86285 2.73002 8.18514C2.3329 8.50743 2.01268 8.91425 1.7927 9.37597C1.57271 9.83769 1.4585 10.3427 1.45837 10.8541C1.45837 14.3466 5.12504 14.2916 5.12504 14.2916H18.4167C18.4167 14.2916 22.5417 13.7544 22.5417 9.70827Z" fill="white"/>
<path d="M18.4167 11.5414H5.12505C5.12505 11.5414 2.55288 11.5799 1.7178 9.53947C1.54557 9.95626 1.45741 10.4029 1.45838 10.8539C1.45838 14.3464 5.12505 14.2914 5.12505 14.2914H18.4167C18.4167 14.2914 22.5417 13.7543 22.5417 9.70813C22.5419 9.25815 22.4758 8.8106 22.3455 8.37988C21.526 11.1363 18.4167 11.5414 18.4167 11.5414Z" fill="#E3E3E3"/>
<path d="M21.625 19.7915C21.625 20.5208 21.3352 21.2203 20.8195 21.736C20.3038 22.2517 19.6043 22.5415 18.875 22.5415H5.125C4.39565 22.5415 3.69618 22.2517 3.18046 21.736C2.66473 21.2203 2.375 20.5208 2.375 19.7915C2.375 19.0622 2.66473 18.3627 3.18046 17.847C3.69618 17.3313 4.39565 17.0415 5.125 17.0415H18.875C19.6043 17.0415 20.3038 17.3313 20.8195 17.847C21.3352 18.3627 21.625 19.0622 21.625 19.7915Z" fill="#FFEF5E"/>
<path d="M2.375 19.7915C2.375 19.0622 2.66473 18.3627 3.18046 17.847C3.69618 17.3313 4.39565 17.0415 5.125 17.0415H18.875C19.6043 17.0415 20.3038 17.3313 20.8195 17.847C21.3352 18.3627 21.625 19.0622 21.625 19.7915H2.375Z" fill="#FFF9BF"/>
<path d="M22.5417 9.70827C22.5422 9.0926 22.4183 8.48317 22.1776 7.9165C21.937 7.34982 21.5844 6.83755 21.141 6.41037C20.6976 5.98319 20.1727 5.64989 19.5975 5.43043C19.0222 5.21097 18.4086 5.10987 17.7934 5.13319C17.1866 3.84501 16.1679 2.79572 14.8984 2.15108C13.6287 1.50644 12.1804 1.30321 10.7824 1.5735C9.38439 1.8438 8.11626 2.5722 7.1784 3.64362C6.24054 4.71505 5.68641 6.06843 5.60354 7.48994C5.10302 7.38481 4.58534 7.39267 4.08824 7.51294C3.59115 7.6332 3.12713 7.86285 2.73002 8.18514C2.3329 8.50743 2.01268 8.91425 1.7927 9.37597C1.57271 9.83769 1.4585 10.3427 1.45837 10.8541C1.45837 14.3466 5.12504 14.2916 5.12504 14.2916H18.4167C18.4167 14.2916 22.5417 13.7544 22.5417 9.70827Z" stroke="#191919" stroke-linecap="round" stroke-linejoin="round"/>
<path d="M21.625 19.7915C21.625 20.5208 21.3352 21.2203 20.8195 21.736C20.3038 22.2517 19.6043 22.5415 18.875 22.5415H5.125C4.39565 22.5415 3.69618 22.2517 3.18046 21.736C2.66473 21.2203 2.375 20.5208 2.375 19.7915C2.375 19.0622 2.66473 18.3627 3.18046 17.847C3.69618 17.3313 4.39565 17.0415 5.125 17.0415H18.875C19.6043 17.0415 20.3038 17.3313 20.8195 17.847C21.3352 18.3627 21.625 19.0622 21.625 19.7915Z" stroke="#191919" stroke-linecap="round" stroke-linejoin="round"/>
<path d="M6.25718 17.0415L4.06726 22.3307" stroke="#191919" stroke-linecap="round" stroke-linejoin="round"/>
<path d="M9.00716 17.0415L6.72925 22.5415" stroke="#191919" stroke-linecap="round" stroke-linejoin="round"/>
<path d="M11.7572 17.0415L9.47925 22.5415" stroke="#191919" stroke-linecap="round" stroke-linejoin="round"/>
<path d="M14.5072 17.0415L12.2292 22.5415" stroke="#191919" stroke-linecap="round" stroke-linejoin="round"/>
</g>
</svg>
