<svg width="24" height="24" viewBox="0 0 24 24" fill="none" xmlns="http://www.w3.org/2000/svg">
<path d="M17.9593 15.3478L17.0697 21.1061C16.9773 21.6269 16.708 22.0998 16.3071 22.4449C15.9062 22.7901 15.3985 22.9861 14.8697 23H9.13058C8.60239 22.9841 8.09567 22.7874 7.6952 22.4426C7.29473 22.0979 7.0248 21.6261 6.93058 21.1061L6.04102 15.3478H17.9593Z" fill="#FFEF5E" stroke="#191919" stroke-linecap="round" stroke-linejoin="round"/>
<path d="M18.6955 10.5643L17.959 15.3469H6.04072L5.3042 10.5643H18.6955Z" fill="white"/>
<path d="M11.9999 14.3911C8.67216 14.3911 5.92025 13.0023 5.3999 11.1849L6.04077 15.3457H17.959L18.5999 11.1849C18.0796 13.0032 15.3276 14.3911 11.9999 14.3911Z" fill="#C2F3FF"/>
<path d="M18.6955 10.5643L17.959 15.3469H6.04072L5.3042 10.5643H18.6955Z" stroke="#191919" stroke-linecap="round" stroke-linejoin="round"/>
<path d="M16.3042 6.73917C16.6826 6.73917 17.0523 6.62697 17.3669 6.41677C17.6815 6.20656 17.9268 5.90778 18.0716 5.55822C18.2163 5.20866 18.2542 4.824 18.1805 4.45291C18.1066 4.08182 17.9244 3.74094 17.6569 3.47341C17.3893 3.20586 17.0484 3.02366 16.6774 2.94984C16.3063 2.87603 15.9216 2.91392 15.572 3.05871C15.2225 3.2035 14.9237 3.4487 14.7136 3.7633C14.5033 4.0779 14.3911 4.44777 14.3911 4.82613C14.3911 5.3335 14.5927 5.82009 14.9514 6.17885C15.3102 6.53762 15.7968 6.73917 16.3042 6.73917Z" fill="#FF808C" stroke="#191919" stroke-linecap="round" stroke-linejoin="round"/>
<path d="M16.5308 2.92548L16.7823 1" stroke="#191919" stroke-linecap="round" stroke-linejoin="round"/>
<path d="M13.9131 23.0001L16.0366 6.71912" stroke="#191919" stroke-linecap="round" stroke-linejoin="round"/>
</svg>
