<svg width="24" height="24" viewBox="0 0 24 24" fill="none" xmlns="http://www.w3.org/2000/svg">
<g clip-path="url(#clip0_5303_11333)">
<path d="M23 2.43478V12.4783H18.6957C18.5688 12.4783 18.4471 12.5287 18.3574 12.6183C18.2678 12.708 18.2174 12.8297 18.2174 12.9565V23H1.47826C1.35142 23 1.22977 22.9496 1.14008 22.86C1.05039 22.7702 1 22.6486 1 22.5217V20.6087C1 20.4819 1.05039 20.3602 1.14008 20.2705C1.22977 20.1808 1.35142 20.1304 1.47826 20.1304H10.087C10.2138 20.1304 10.3355 20.08 10.4252 19.9904C10.5148 19.9007 10.5652 19.779 10.5652 19.6522V11.0435C10.5652 10.9166 10.5148 10.795 10.4252 10.7053C10.3355 10.6156 10.2138 10.5652 10.087 10.5652H4.34783C4.22098 10.5652 4.09933 10.5148 4.00965 10.4252C3.91995 10.3355 3.86957 10.2138 3.86957 10.087V1.47826C3.86957 1.35142 3.91995 1.22977 4.00965 1.14008C4.09933 1.05039 4.22098 1 4.34783 1H21.5652C21.9457 1 22.3107 1.15116 22.5798 1.42024C22.8489 1.68931 23 2.05426 23 2.43478Z" fill="#E3E3E3"/>
<path d="M23 2.43478V12.4783H18.6957C18.5688 12.4783 18.4471 12.5287 18.3574 12.6183C18.2678 12.708 18.2174 12.8297 18.2174 12.9565V23H1.47826C1.35142 23 1.22977 22.9496 1.14008 22.86C1.05039 22.7702 1 22.6486 1 22.5217V20.6087C1 20.4819 1.05039 20.3602 1.14008 20.2705C1.22977 20.1808 1.35142 20.1304 1.47826 20.1304H10.087C10.2138 20.1304 10.3355 20.08 10.4252 19.9904C10.5148 19.9007 10.5652 19.779 10.5652 19.6522V11.0435C10.5652 10.9166 10.5148 10.795 10.4252 10.7053C10.3355 10.6156 10.2138 10.5652 10.087 10.5652H4.34783C4.22098 10.5652 4.09933 10.5148 4.00965 10.4252C3.91995 10.3355 3.86957 10.2138 3.86957 10.087V1.47826C3.86957 1.35142 3.91995 1.22977 4.00965 1.14008C4.09933 1.05039 4.22098 1 4.34783 1H21.5652C21.9457 1 22.3107 1.15116 22.5798 1.42024C22.8489 1.68931 23 2.05426 23 2.43478Z" fill="#E3E3E3"/>
<path d="M21.5653 1H4.34789C4.22105 1 4.0994 1.05039 4.00971 1.14008C3.92002 1.22977 3.86963 1.35142 3.86963 1.47826V4.76774C3.86963 4.64089 3.92002 4.51925 4.00971 4.42956C4.0994 4.33987 4.22105 4.28948 4.34789 4.28948H21.5653C21.9458 4.28948 22.3108 4.44065 22.5799 4.70972C22.8489 4.97879 23.0001 5.34374 23.0001 5.72426V2.43478C23.0001 2.05426 22.8489 1.68931 22.5799 1.42024C22.3108 1.15116 21.9458 1 21.5653 1Z" fill="white"/>
<path d="M23 2.43478V12.4783H18.6957C18.5688 12.4783 18.4471 12.5287 18.3574 12.6183C18.2678 12.708 18.2174 12.8297 18.2174 12.9565V23H1.47826C1.35142 23 1.22977 22.9496 1.14008 22.86C1.05039 22.7702 1 22.6486 1 22.5217V20.6087C1 20.4819 1.05039 20.3602 1.14008 20.2705C1.22977 20.1808 1.35142 20.1304 1.47826 20.1304H10.087C10.2138 20.1304 10.3355 20.08 10.4252 19.9904C10.5148 19.9007 10.5652 19.779 10.5652 19.6522V11.0435C10.5652 10.9166 10.5148 10.795 10.4252 10.7053C10.3355 10.6156 10.2138 10.5652 10.087 10.5652H4.34783C4.22098 10.5652 4.09933 10.5148 4.00965 10.4252C3.91995 10.3355 3.86957 10.2138 3.86957 10.087V1.47826C3.86957 1.35142 3.91995 1.22977 4.00965 1.14008C4.09933 1.05039 4.22098 1 4.34783 1H21.5652C21.9457 1 22.3107 1.15116 22.5798 1.42024C22.8489 1.68931 23 2.05426 23 2.43478Z" stroke="#191919" stroke-linecap="round" stroke-linejoin="round"/>
<path d="M22.9999 12.4783V22.5217C22.9999 22.6486 22.9495 22.7703 22.8599 22.86C22.7701 22.9496 22.6485 23 22.5216 23H18.2173V12.9565C18.2173 12.8297 18.2677 12.708 18.3573 12.6183C18.447 12.5287 18.5687 12.4783 18.6955 12.4783H22.9999Z" fill="#6B6B6B" stroke="#191919" stroke-linecap="round" stroke-linejoin="round"/>
<path d="M17.2607 5.78259H22.9999" stroke="#191919" stroke-linecap="round" stroke-linejoin="round"/>
<path d="M17.2607 7.69568H22.9999" stroke="#191919" stroke-linecap="round" stroke-linejoin="round"/>
<path d="M17.2607 9.60864H22.9999" stroke="#191919" stroke-linecap="round" stroke-linejoin="round"/>
<path d="M8.174 13.4348H5.30443C5.0403 13.4348 4.82617 13.6489 4.82617 13.913V14.8695C4.82617 15.1336 5.0403 15.3478 5.30443 15.3478H8.174C8.43813 15.3478 8.65226 15.1336 8.65226 14.8695V13.913C8.65226 13.6489 8.43813 13.4348 8.174 13.4348Z" fill="#E3E3E3" stroke="#191919" stroke-linecap="round" stroke-linejoin="round"/>
<path d="M4.82609 14.3914H1" stroke="#191919" stroke-linecap="round" stroke-linejoin="round"/>
<path d="M7.69576 10.5652H5.78271V13.4348H7.69576V10.5652Z" fill="#808080" stroke="#191919" stroke-linecap="round" stroke-linejoin="round"/>
<path d="M7.2175 5.78253C7.50127 5.78253 7.77867 5.69839 8.01462 5.54072C8.25057 5.38307 8.43448 5.15899 8.54307 4.89682C8.65166 4.63465 8.68008 4.34616 8.62471 4.06784C8.56935 3.78951 8.43271 3.53387 8.23205 3.33321C8.03139 3.13255 7.77573 2.9959 7.49741 2.94053C7.21909 2.88517 6.9306 2.91359 6.66842 3.02218C6.40626 3.13078 6.18218 3.31468 6.02452 3.55063C5.86686 3.78658 5.78271 4.06398 5.78271 4.34775C5.78271 4.72828 5.93388 5.09323 6.20295 5.36229C6.47202 5.63137 6.83697 5.78253 7.2175 5.78253Z" fill="white" stroke="#191919" stroke-linecap="round" stroke-linejoin="round"/>
<path d="M6.73926 15.3478V16.3044" stroke="#191919" stroke-linecap="round" stroke-linejoin="round"/>
</g>
<defs>
<clipPath id="clip0_5303_11333">
<rect width="24" height="24" fill="white"/>
</clipPath>
</defs>
</svg>
