<svg width="24" height="24" viewBox="0 0 24 24" fill="none" xmlns="http://www.w3.org/2000/svg">
<path d="M17.739 10.5643L17.0025 15.3469H6.99726L6.26074 10.5643H17.739Z" fill="#C2F3FF"/>
<path d="M17.6247 11.2826L17.0029 15.3478H6.99771L6.37598 11.2826C6.8744 12.3541 7.66854 13.261 8.66495 13.8964C9.66135 14.5319 10.8185 14.8694 12.0003 14.8694C13.1821 14.8694 14.3393 14.5319 15.3357 13.8964C16.3321 13.261 17.1262 12.3541 17.6247 11.2826Z" fill="#66E1FF"/>
<path d="M17.0028 15.3478L15.8836 22.5982C15.8678 22.7108 15.8115 22.8136 15.7251 22.8876C15.6389 22.9616 15.5286 23.0015 15.4149 22.9999H8.58538C8.47175 23.0015 8.36144 22.9616 8.27514 22.8876C8.18886 22.8136 8.13252 22.7108 8.11669 22.5982L6.99756 15.3478H17.0028Z" fill="#E3BFB3"/>
<path d="M11.9999 19.9897C11.0415 19.9898 10.1002 19.7353 9.27246 19.252C8.44472 18.7688 7.76023 18.0744 7.28906 17.2397L8.11645 22.5962C8.13227 22.7088 8.18861 22.8117 8.27491 22.8857C8.3612 22.9596 8.4715 22.9996 8.58515 22.998H15.4147C15.5283 22.9996 15.6386 22.9596 15.7249 22.8857C15.8112 22.8117 15.8676 22.7088 15.8834 22.5962L16.7108 17.2397C16.2396 18.0744 15.5551 18.7688 14.7273 19.252C13.8997 19.7353 12.9584 19.9898 11.9999 19.9897Z" fill="#C77F67"/>
<path d="M17.0028 15.3478L15.8836 22.5982C15.8678 22.7108 15.8115 22.8136 15.7251 22.8876C15.6389 22.9616 15.5286 23.0015 15.4149 22.9999H8.58538C8.47175 23.0015 8.36144 22.9616 8.27514 22.8876C8.18886 22.8136 8.13252 22.7108 8.11669 22.5982L6.99756 15.3478H17.0028Z" stroke="#191919" stroke-linecap="round" stroke-linejoin="round"/>
<path d="M17.739 10.5652H6.26074C6.26074 9.04306 6.8654 7.5833 7.94169 6.507C9.01799 5.4307 10.4778 4.82605 11.9999 4.82605C13.522 4.82605 14.9817 5.4307 16.058 6.507C17.1344 7.5833 17.739 9.04306 17.739 10.5652Z" fill="#C2F3FF"/>
<path d="M20.1306 10.5643H17.7393" stroke="#191919" stroke-linecap="round" stroke-linejoin="round"/>
<path d="M6.26093 10.5643H3.86963" stroke="#191919" stroke-linecap="round" stroke-linejoin="round"/>
<path d="M10.0869 21.087L14.1368 1.76527C14.1662 1.62157 14.2282 1.48652 14.318 1.37059C14.4078 1.25466 14.5232 1.16094 14.655 1.09669C14.7868 1.03243 14.9317 0.99935 15.0783 1.00001C15.225 1.00067 15.3696 1.03505 15.5008 1.10049L19.1739 2.93605" stroke="#191919" stroke-linecap="round" stroke-linejoin="round"/>
<path d="M17.739 10.5643L17.0025 15.3469H6.99726L6.26074 10.5643H17.739Z" stroke="#191919" stroke-linecap="round" stroke-linejoin="round"/>
<path d="M17.739 10.5652H6.26074C6.26074 9.04306 6.8654 7.5833 7.94169 6.507C9.01799 5.4307 10.4778 4.82605 11.9999 4.82605C13.522 4.82605 14.9817 5.4307 16.058 6.507C17.1344 7.5833 17.739 9.04306 17.739 10.5652Z" stroke="#191919" stroke-linecap="round" stroke-linejoin="round"/>
</svg>
