<svg width="24" height="24" viewBox="0 0 24 24" fill="none" xmlns="http://www.w3.org/2000/svg">
<path d="M21.3169 7.98779C21.1663 7.82485 21.0826 7.61111 21.0826 7.38921C21.0826 7.16731 21.1663 6.95357 21.3169 6.79063L22.2225 5.81438C22.3938 5.63049 22.5017 5.39659 22.5303 5.14693C22.559 4.89729 22.5069 4.64503 22.3818 4.42712C22.2566 4.20922 22.065 4.03712 21.8349 3.93606C21.6048 3.83501 21.3484 3.81029 21.1033 3.86554L19.809 4.16621C19.5939 4.21405 19.3687 4.17886 19.1785 4.06769C18.9883 3.95651 18.8471 3.77757 18.7832 3.56671L18.3945 2.29071C18.3222 2.05012 18.1743 1.83925 17.9727 1.68935C17.771 1.53945 17.5266 1.4585 17.2753 1.4585C17.024 1.4585 16.7796 1.53945 16.5779 1.68935C16.3763 1.83925 16.2284 2.05012 16.156 2.29071L15.7628 3.56671C15.6987 3.77837 15.5567 3.95785 15.3655 4.06894C15.1743 4.18003 14.9481 4.21446 14.7325 4.16529L13.4381 3.86463C13.193 3.80938 12.9366 3.83409 12.7065 3.93515C12.4765 4.03621 12.2848 4.2083 12.1597 4.4262C12.0345 4.64411 11.9825 4.89637 12.0111 5.14602C12.0398 5.39567 12.1476 5.62958 12.3189 5.81346L13.2245 6.78971C13.3752 6.95266 13.4588 7.16639 13.4588 7.38829C13.4588 7.61019 13.3752 7.82393 13.2245 7.98688L12.3189 8.96221C12.1476 9.1461 12.0398 9.38001 12.0111 9.62965C11.9825 9.8793 12.0345 10.1316 12.1597 10.3495C12.2848 10.5674 12.4765 10.7395 12.7065 10.8406C12.9366 10.9416 13.193 10.9663 13.4381 10.9111L14.7325 10.6113C14.9481 10.5617 15.1746 10.5959 15.3659 10.7071C15.5572 10.8182 15.6991 10.998 15.7628 11.2099L16.1515 12.4859C16.2238 12.7264 16.3717 12.9373 16.5733 13.0872C16.775 13.2372 17.0195 13.3181 17.2707 13.3181C17.522 13.3181 17.7664 13.2372 17.9681 13.0872C18.1697 12.9373 18.3176 12.7264 18.39 12.4859L18.7786 11.2099C18.8423 10.998 18.9842 10.8182 19.1755 10.7071C19.3669 10.5959 19.5933 10.5617 19.809 10.6113L21.1033 10.9111C21.3484 10.9663 21.6048 10.9416 21.8349 10.8406C22.065 10.7395 22.2566 10.5674 22.3818 10.3495C22.5069 10.1316 22.559 9.8793 22.5303 9.62965C22.5017 9.38001 22.3938 9.1461 22.2225 8.96221L21.3169 7.98779ZM17.2707 8.70646C17.0099 8.70646 16.7551 8.62913 16.5383 8.48425C16.3215 8.33936 16.1526 8.13344 16.0528 7.89252C15.953 7.6516 15.927 7.38652 15.9779 7.1308C16.0289 6.87507 16.1545 6.6402 16.3389 6.45589C16.5234 6.27157 16.7584 6.1461 17.0141 6.09534C17.2699 6.04459 17.5349 6.07082 17.7758 6.17073C18.0166 6.27064 18.2224 6.43973 18.3671 6.65663C18.5119 6.87352 18.5891 7.12846 18.5889 7.38921C18.5889 7.56227 18.5548 7.73364 18.4885 7.89351C18.4222 8.05339 18.3252 8.19864 18.2027 8.32097C18.0803 8.4433 17.935 8.54031 17.7751 8.60645C17.6152 8.6726 17.4438 8.70658 17.2707 8.70646Z" fill="#E3E3E3"/>
<path d="M12.3189 8.96313C12.1476 9.14702 12.0398 9.38092 12.0111 9.63057C11.9825 9.88021 12.0345 10.1325 12.1597 10.3504C12.2848 10.5683 12.4765 10.7404 12.7065 10.8415C12.9366 10.9425 13.193 10.9672 13.4381 10.912L13.8405 10.8203L16.3394 8.32238C16.217 8.20007 16.1199 8.05486 16.0537 7.89504C15.9875 7.73522 15.9533 7.56392 15.9533 7.39091C15.9532 7.04151 16.0919 6.70638 16.3389 6.45925C16.4612 6.33688 16.6064 6.23981 16.7663 6.17356C16.926 6.10731 17.0974 6.0732 17.2703 6.07316C17.6198 6.07307 17.9549 6.21179 18.202 6.45879L20.7 3.96088L19.809 4.16804C19.5936 4.2158 19.3682 4.18035 19.178 4.06881C18.9877 3.95728 18.8467 3.77791 18.7832 3.56671L18.3945 2.29071C18.3222 2.05012 18.1743 1.83925 17.9727 1.68935C17.771 1.53945 17.5266 1.4585 17.2753 1.4585C17.024 1.4585 16.7796 1.53945 16.5779 1.68935C16.3763 1.83925 16.2284 2.05012 16.156 2.29071L15.7628 3.56671C15.6987 3.77837 15.5567 3.95785 15.3655 4.06894C15.1743 4.18003 14.9481 4.21446 14.7325 4.16529L13.4381 3.86463C13.193 3.80938 12.9366 3.83409 12.7065 3.93515C12.4765 4.03621 12.2848 4.2083 12.1597 4.4262C12.0345 4.64411 11.9825 4.89637 12.0111 5.14602C12.0398 5.39567 12.1476 5.62958 12.3189 5.81346L13.2245 6.78971C13.3752 6.95266 13.4588 7.16639 13.4588 7.38829C13.4588 7.61019 13.3752 7.82393 13.2245 7.98688L12.3189 8.96313Z" fill="white"/>
<path d="M1.4585 15.2092V22.5426" stroke="#191919" stroke-linecap="round" stroke-linejoin="round"/>
<path d="M15.2085 21.625C15.2085 20.8957 14.9187 20.1962 14.403 19.6805C13.8873 19.1648 13.1878 18.875 12.4585 18.875H9.021C9.021 18.1457 8.73127 17.4462 8.21554 16.9305C7.69981 16.4148 7.00034 16.125 6.271 16.125H1.4585V21.625H15.2085Z" fill="#FFDDA1" stroke="#191919" stroke-linecap="round" stroke-linejoin="round"/>
<path d="M6.271 18.876H9.7085" stroke="#191919" stroke-linecap="round" stroke-linejoin="round"/>
<path d="M21.3169 7.98779C21.1663 7.82485 21.0826 7.61111 21.0826 7.38921C21.0826 7.16731 21.1663 6.95357 21.3169 6.79063L22.2225 5.81438C22.3938 5.63049 22.5017 5.39659 22.5303 5.14693C22.559 4.89729 22.5069 4.64503 22.3818 4.42712C22.2566 4.20922 22.065 4.03712 21.8349 3.93606C21.6048 3.83501 21.3484 3.81029 21.1033 3.86554L19.809 4.16621C19.5939 4.21405 19.3687 4.17886 19.1785 4.06769C18.9883 3.95651 18.8471 3.77757 18.7832 3.56671L18.3945 2.29071C18.3222 2.05012 18.1743 1.83925 17.9727 1.68935C17.771 1.53945 17.5266 1.4585 17.2753 1.4585C17.024 1.4585 16.7796 1.53945 16.5779 1.68935C16.3763 1.83925 16.2284 2.05012 16.156 2.29071L15.7628 3.56671C15.6987 3.77837 15.5567 3.95785 15.3655 4.06894C15.1743 4.18003 14.9481 4.21446 14.7325 4.16529L13.4381 3.86463C13.193 3.80938 12.9366 3.83409 12.7065 3.93515C12.4765 4.03621 12.2848 4.2083 12.1597 4.4262C12.0345 4.64411 11.9825 4.89637 12.0111 5.14602C12.0398 5.39567 12.1476 5.62958 12.3189 5.81346L13.2245 6.78971C13.3752 6.95266 13.4588 7.16639 13.4588 7.38829C13.4588 7.61019 13.3752 7.82393 13.2245 7.98688L12.3189 8.96221C12.1476 9.1461 12.0398 9.38001 12.0111 9.62965C11.9825 9.8793 12.0345 10.1316 12.1597 10.3495C12.2848 10.5674 12.4765 10.7395 12.7065 10.8406C12.9366 10.9416 13.193 10.9663 13.4381 10.9111L14.7325 10.6113C14.9481 10.5617 15.1746 10.5959 15.3659 10.7071C15.5572 10.8182 15.6991 10.998 15.7628 11.2099L16.1515 12.4859C16.2238 12.7264 16.3717 12.9373 16.5733 13.0872C16.775 13.2372 17.0195 13.3181 17.2707 13.3181C17.522 13.3181 17.7664 13.2372 17.9681 13.0872C18.1697 12.9373 18.3176 12.7264 18.39 12.4859L18.7786 11.2099C18.8423 10.998 18.9842 10.8182 19.1755 10.7071C19.3669 10.5959 19.5933 10.5617 19.809 10.6113L21.1033 10.9111C21.3484 10.9663 21.6048 10.9416 21.8349 10.8406C22.065 10.7395 22.2566 10.5674 22.3818 10.3495C22.5069 10.1316 22.559 9.8793 22.5303 9.62965C22.5017 9.38001 22.3938 9.1461 22.2225 8.96221L21.3169 7.98779ZM17.2707 8.70646C17.0099 8.70646 16.7551 8.62913 16.5383 8.48425C16.3215 8.33936 16.1526 8.13344 16.0528 7.89252C15.953 7.6516 15.927 7.38652 15.9779 7.1308C16.0289 6.87507 16.1545 6.6402 16.3389 6.45589C16.5234 6.27157 16.7584 6.1461 17.0141 6.09534C17.2699 6.04459 17.5349 6.07082 17.7758 6.17073C18.0166 6.27064 18.2224 6.43973 18.3671 6.65663C18.5119 6.87352 18.5891 7.12846 18.5889 7.38921C18.5889 7.56227 18.5548 7.73364 18.4885 7.89351C18.4222 8.05339 18.3252 8.19864 18.2027 8.32097C18.0803 8.4433 17.935 8.54031 17.7751 8.60645C17.6152 8.6726 17.4438 8.70658 17.2707 8.70646Z" stroke="#191919" stroke-linecap="round" stroke-linejoin="round"/>
</svg>
