<svg width="24" height="24" viewBox="0 0 24 24" fill="none" xmlns="http://www.w3.org/2000/svg">
<path d="M10.6252 19.7926C15.6877 19.7926 19.7918 15.6885 19.7918 10.6259C19.7918 5.56329 15.6877 1.45923 10.6252 1.45923C5.56255 1.45923 1.4585 5.56329 1.4585 10.6259C1.4585 15.6885 5.56255 19.7926 10.6252 19.7926Z" fill="#66E1FF"/>
<path d="M4.14335 17.1077C2.43671 15.386 1.48153 13.0585 1.48684 10.6343C1.49215 8.21007 2.45751 5.88669 4.17167 4.17252C5.88584 2.45836 8.20922 1.493 10.6334 1.48769C13.0576 1.48238 15.3852 2.43756 17.1069 4.1442L4.14335 17.1077Z" fill="#C2F3FF"/>
<path d="M10.6252 19.7926C15.6877 19.7926 19.7918 15.6885 19.7918 10.6259C19.7918 5.56329 15.6877 1.45923 10.6252 1.45923C5.56255 1.45923 1.4585 5.56329 1.4585 10.6259C1.4585 15.6885 5.56255 19.7926 10.6252 19.7926Z" stroke="#191919" stroke-linecap="round" stroke-linejoin="round"/>
<path d="M22.5418 22.5426L17.1069 17.1077" stroke="#191919" stroke-linecap="round" stroke-linejoin="round"/>
<path d="M15.3799 11.3491C15.2787 11.2579 15.1976 11.1464 15.1422 11.0217C15.0867 10.8971 15.0581 10.7623 15.0581 10.6259C15.0581 10.4896 15.0867 10.3547 15.1422 10.2301C15.1976 10.1055 15.2787 9.99396 15.3799 9.90268L15.8969 9.43518C16.0462 9.30048 16.1501 9.12287 16.1943 8.92675C16.2386 8.73064 16.2211 8.52563 16.1441 8.33989C16.0672 8.15415 15.9345 7.99679 15.7646 7.88943C15.5946 7.78206 15.3955 7.72995 15.1948 7.74027L14.4981 7.7751C14.3621 7.78208 14.226 7.76042 14.0989 7.71152C13.9717 7.66263 13.8563 7.58758 13.7599 7.49124C13.6636 7.3949 13.5885 7.27942 13.5396 7.15225C13.4907 7.02509 13.4691 6.88908 13.476 6.75302L13.5118 6.05635C13.5216 5.85578 13.4692 5.65711 13.3616 5.48748C13.2542 5.31785 13.097 5.18556 12.9115 5.10871C12.7259 5.03186 12.5212 5.01419 12.3253 5.05814C12.1294 5.10207 11.9518 5.20547 11.8169 5.35418L11.3494 5.87118C11.2581 5.9725 11.1465 6.05351 11.0219 6.10896C10.8974 6.16441 10.7625 6.19306 10.6261 6.19306C10.4897 6.19306 10.3549 6.16441 10.2303 6.10896C10.1057 6.05351 9.99415 5.9725 9.90287 5.87118L9.43353 5.35418C9.29868 5.20511 9.12103 5.10139 8.92493 5.05724C8.72882 5.01309 8.52386 5.03067 8.33813 5.10757C8.15242 5.18447 7.99502 5.31692 7.88753 5.48678C7.78003 5.65664 7.7277 5.85558 7.7377 6.05635L7.77345 6.75302C7.78042 6.88899 7.75878 7.02493 7.70994 7.15202C7.66109 7.27913 7.58614 7.39456 7.4899 7.49089C7.39366 7.58721 7.27829 7.66228 7.15123 7.71123C7.02418 7.76019 6.88827 7.78194 6.75228 7.7751L6.05561 7.74027C5.85524 7.73041 5.65671 7.78272 5.4872 7.89C5.31768 7.9973 5.18545 8.15434 5.1086 8.33966C5.03174 8.52497 5.01402 8.7295 5.05784 8.92527C5.10167 9.12104 5.20491 9.29849 5.35345 9.43335L5.87045 9.90085C5.97177 9.99213 6.05277 10.1037 6.10822 10.2282C6.16367 10.3529 6.19233 10.4878 6.19233 10.6241C6.19233 10.7605 6.16367 10.8953 6.10822 11.0199C6.05277 11.1445 5.97177 11.2561 5.87045 11.3473L5.35345 11.8148C5.20438 11.9497 5.10066 12.1273 5.05651 12.3235C5.01236 12.5195 5.02994 12.7245 5.10684 12.9102C5.18374 13.0959 5.3162 13.2533 5.48605 13.3609C5.6559 13.4684 5.85485 13.5206 6.05561 13.5106L6.75228 13.4749C6.88847 13.4681 7.02459 13.4898 7.15181 13.539C7.27904 13.588 7.39456 13.6632 7.4909 13.7597C7.58724 13.8562 7.66225 13.9719 7.71108 14.0992C7.7599 14.2266 7.78146 14.3627 7.77436 14.4988L7.73862 15.1955C7.72861 15.3963 7.78095 15.5952 7.88844 15.7651C7.99593 15.935 8.15333 16.0674 8.33905 16.1443C8.52478 16.2212 8.72973 16.2387 8.92585 16.1946C9.12195 16.1505 9.2996 16.0468 9.43445 15.8976L9.90195 15.3806C9.99323 15.2794 10.1048 15.1983 10.2294 15.1429C10.354 15.0875 10.4888 15.0588 10.6252 15.0588C10.7616 15.0588 10.8964 15.0875 11.021 15.1429C11.1456 15.1983 11.2571 15.2794 11.3484 15.3806L11.8159 15.8976C11.9508 16.0468 12.1284 16.1505 12.3245 16.1946C12.5207 16.2387 12.7256 16.2212 12.9114 16.1443C13.0971 16.0674 13.2545 15.935 13.362 15.7651C13.4694 15.5952 13.5218 15.3963 13.5118 15.1955L13.476 14.4988C13.4692 14.3628 13.491 14.2268 13.5399 14.0998C13.5889 13.9726 13.6639 13.8572 13.7602 13.7609C13.8565 13.6646 13.9719 13.5896 14.099 13.5406C14.2261 13.4917 14.3621 13.4699 14.4981 13.4767L15.1948 13.5125C15.3955 13.5225 15.5944 13.4702 15.7643 13.3627C15.9342 13.2552 16.0666 13.0978 16.1435 12.9121C16.2204 12.7263 16.238 12.5214 16.1939 12.3253C16.1498 12.1291 16.046 11.9515 15.8969 11.8166L15.3799 11.3491ZM10.6252 12.4583C10.2626 12.4583 9.90814 12.3508 9.60665 12.1494C9.30516 11.9479 9.07018 11.6616 8.93142 11.3266C8.79266 10.9916 8.75635 10.623 8.82709 10.2674C8.89783 9.91171 9.07244 9.58505 9.32884 9.32865C9.58523 9.07226 9.9119 8.89765 10.2675 8.82691C10.6232 8.75617 10.9918 8.79247 11.3268 8.93124C11.6618 9.06999 11.9481 9.30498 12.1495 9.60647C12.351 9.90796 12.4585 10.2624 12.4585 10.625C12.4585 11.1113 12.2654 11.5776 11.9215 11.9214C11.5777 12.2652 11.1114 12.4583 10.6252 12.4583Z" fill="#E3E3E3"/>
<path d="M5.87045 11.3491L5.35345 11.8166C5.20438 11.9515 5.10066 12.1291 5.05651 12.3253C5.01236 12.5214 5.02994 12.7263 5.10684 12.9121C5.18374 13.0978 5.3162 13.2552 5.48605 13.3627C5.6559 13.4702 5.85485 13.5225 6.05561 13.5125L6.75228 13.4767C6.88759 13.4702 7.02276 13.4921 7.14908 13.5411C7.27539 13.59 7.39003 13.6649 7.48562 13.7609L9.32445 11.9221C9.14935 11.7529 9.00967 11.5507 8.9136 11.327C8.81751 11.1033 8.76694 10.8628 8.76482 10.6193C8.76271 10.3759 8.80909 10.1345 8.90128 9.90918C8.99346 9.68388 9.12958 9.47917 9.30172 9.30704C9.47386 9.1349 9.67856 8.99878 9.90386 8.90659C10.1292 8.81441 10.3705 8.76802 10.614 8.77014C10.8575 8.77225 11.098 8.82283 11.3217 8.91891C11.5453 9.01499 11.7477 9.15466 11.9168 9.32977L13.7556 7.49643C13.6591 7.40008 13.5839 7.28452 13.535 7.15723C13.486 7.02995 13.4644 6.89379 13.4714 6.7576L13.5072 6.06093C13.5168 5.86099 13.4647 5.66293 13.3578 5.49367C13.2509 5.32442 13.0945 5.1922 12.9098 5.11498C12.7251 5.03776 12.5211 5.01929 12.3256 5.06209C12.13 5.10489 11.9524 5.20687 11.8169 5.35418L11.3494 5.87118C11.2581 5.9725 11.1465 6.05351 11.0219 6.10896C10.8974 6.16441 10.7625 6.19306 10.6261 6.19306C10.4897 6.19306 10.3549 6.16441 10.2303 6.10896C10.1057 6.05351 9.99415 5.9725 9.90287 5.87118L9.43353 5.35418C9.29868 5.20511 9.12103 5.10139 8.92493 5.05724C8.72882 5.01309 8.52386 5.03067 8.33813 5.10757C8.15242 5.18447 7.99502 5.31692 7.88753 5.48678C7.78003 5.65664 7.7277 5.85558 7.7377 6.05635L7.77345 6.75302C7.78042 6.88899 7.75878 7.02493 7.70994 7.15202C7.66109 7.27913 7.58614 7.39456 7.4899 7.49089C7.39366 7.58721 7.27829 7.66228 7.15123 7.71123C7.02418 7.76019 6.88827 7.78194 6.75228 7.7751L6.05561 7.74027C5.85524 7.73041 5.65671 7.78272 5.4872 7.89C5.31768 7.9973 5.18545 8.15434 5.1086 8.33966C5.03174 8.52497 5.01402 8.7295 5.05784 8.92527C5.10167 9.12104 5.20491 9.29849 5.35345 9.43335L5.87045 9.90085C5.97177 9.99213 6.05277 10.1037 6.10822 10.2282C6.16367 10.3529 6.19233 10.4878 6.19233 10.6241C6.19233 10.7605 6.16367 10.8953 6.10822 11.0199C6.05277 11.1445 5.97177 11.2561 5.87045 11.3473V11.3491Z" fill="white"/>
<path d="M15.3799 11.3491C15.2787 11.2579 15.1976 11.1464 15.1422 11.0217C15.0867 10.8971 15.0581 10.7623 15.0581 10.6259C15.0581 10.4896 15.0867 10.3547 15.1422 10.2301C15.1976 10.1055 15.2787 9.99396 15.3799 9.90268L15.8969 9.43518C16.0462 9.30048 16.1501 9.12287 16.1943 8.92675C16.2386 8.73064 16.2211 8.52563 16.1441 8.33989C16.0672 8.15415 15.9345 7.99679 15.7646 7.88943C15.5946 7.78206 15.3955 7.72995 15.1948 7.74027L14.4981 7.7751C14.3621 7.78208 14.226 7.76042 14.0989 7.71152C13.9717 7.66263 13.8563 7.58758 13.7599 7.49124C13.6636 7.3949 13.5885 7.27942 13.5396 7.15225C13.4907 7.02509 13.4691 6.88908 13.476 6.75302L13.5118 6.05635C13.5216 5.85578 13.4692 5.65711 13.3616 5.48748C13.2542 5.31785 13.097 5.18556 12.9115 5.10871C12.7259 5.03186 12.5212 5.01419 12.3253 5.05814C12.1294 5.10207 11.9518 5.20547 11.8169 5.35418L11.3494 5.87118C11.2581 5.9725 11.1465 6.05351 11.0219 6.10896C10.8974 6.16441 10.7625 6.19306 10.6261 6.19306C10.4897 6.19306 10.3549 6.16441 10.2303 6.10896C10.1057 6.05351 9.99415 5.9725 9.90287 5.87118L9.43353 5.35418C9.29868 5.20511 9.12103 5.10139 8.92493 5.05724C8.72882 5.01309 8.52386 5.03067 8.33813 5.10757C8.15242 5.18447 7.99502 5.31692 7.88753 5.48678C7.78003 5.65664 7.7277 5.85558 7.7377 6.05635L7.77345 6.75302C7.78042 6.88899 7.75878 7.02493 7.70994 7.15202C7.66109 7.27913 7.58614 7.39456 7.4899 7.49089C7.39366 7.58721 7.27829 7.66228 7.15123 7.71123C7.02418 7.76019 6.88827 7.78194 6.75228 7.7751L6.05561 7.74027C5.85524 7.73041 5.65671 7.78272 5.4872 7.89C5.31768 7.9973 5.18545 8.15434 5.1086 8.33966C5.03174 8.52497 5.01402 8.7295 5.05784 8.92527C5.10167 9.12104 5.20491 9.29849 5.35345 9.43335L5.87045 9.90085C5.97177 9.99213 6.05277 10.1037 6.10822 10.2282C6.16367 10.3529 6.19233 10.4878 6.19233 10.6241C6.19233 10.7605 6.16367 10.8953 6.10822 11.0199C6.05277 11.1445 5.97177 11.2561 5.87045 11.3473L5.35345 11.8148C5.20438 11.9497 5.10066 12.1273 5.05651 12.3235C5.01236 12.5195 5.02994 12.7245 5.10684 12.9102C5.18374 13.0959 5.3162 13.2533 5.48605 13.3609C5.6559 13.4684 5.85485 13.5206 6.05561 13.5106L6.75228 13.4749C6.88847 13.4681 7.02459 13.4898 7.15181 13.539C7.27904 13.588 7.39456 13.6632 7.4909 13.7597C7.58724 13.8562 7.66225 13.9719 7.71108 14.0992C7.7599 14.2266 7.78146 14.3627 7.77436 14.4988L7.73862 15.1955C7.72861 15.3963 7.78095 15.5952 7.88844 15.7651C7.99593 15.935 8.15333 16.0674 8.33905 16.1443C8.52478 16.2212 8.72973 16.2387 8.92585 16.1946C9.12195 16.1505 9.2996 16.0468 9.43445 15.8976L9.90195 15.3806C9.99323 15.2794 10.1048 15.1983 10.2294 15.1429C10.354 15.0875 10.4888 15.0588 10.6252 15.0588C10.7616 15.0588 10.8964 15.0875 11.021 15.1429C11.1456 15.1983 11.2571 15.2794 11.3484 15.3806L11.8159 15.8976C11.9508 16.0468 12.1284 16.1505 12.3245 16.1946C12.5207 16.2387 12.7256 16.2212 12.9114 16.1443C13.0971 16.0674 13.2545 15.935 13.362 15.7651C13.4694 15.5952 13.5218 15.3963 13.5118 15.1955L13.476 14.4988C13.4692 14.3628 13.491 14.2268 13.5399 14.0998C13.5889 13.9726 13.6639 13.8572 13.7602 13.7609C13.8565 13.6646 13.9719 13.5896 14.099 13.5406C14.2261 13.4917 14.3621 13.4699 14.4981 13.4767L15.1948 13.5125C15.3955 13.5225 15.5944 13.4702 15.7643 13.3627C15.9342 13.2552 16.0666 13.0978 16.1435 12.9121C16.2204 12.7263 16.238 12.5214 16.1939 12.3253C16.1498 12.1291 16.046 11.9515 15.8969 11.8166L15.3799 11.3491ZM10.6252 12.4583C10.2626 12.4583 9.90814 12.3508 9.60665 12.1494C9.30516 11.9479 9.07018 11.6616 8.93142 11.3266C8.79266 10.9916 8.75635 10.623 8.82709 10.2674C8.89783 9.91171 9.07244 9.58505 9.32884 9.32865C9.58523 9.07226 9.9119 8.89765 10.2675 8.82691C10.6232 8.75617 10.9918 8.79247 11.3268 8.93124C11.6618 9.06999 11.9481 9.30498 12.1495 9.60647C12.351 9.90796 12.4585 10.2624 12.4585 10.625C12.4585 11.1113 12.2654 11.5776 11.9215 11.9214C11.5777 12.2652 11.1114 12.4583 10.6252 12.4583Z" stroke="#191919" stroke-linecap="round" stroke-linejoin="round"/>
</svg>
