<svg width="24" height="24" viewBox="0 0 24 24" fill="none" xmlns="http://www.w3.org/2000/svg">
<path d="M21.6252 10.625H19.5654C19.3785 9.69584 19.0703 8.7953 18.6487 7.94648L20.1053 6.49081C20.2772 6.31891 20.3737 6.0858 20.3737 5.84273C20.3737 5.59966 20.2772 5.36655 20.1053 5.19465L18.8055 3.89848C18.6336 3.72663 18.4005 3.63009 18.1574 3.63009C17.9143 3.63009 17.6812 3.72663 17.5093 3.89848L16.0518 5.35506C15.2037 4.93333 14.3038 4.62513 13.3752 4.4384V2.37498C13.3752 2.13187 13.2786 1.89871 13.1067 1.7268C12.9348 1.55489 12.7016 1.45831 12.4585 1.45831H11.5418C11.2987 1.45831 11.0656 1.55489 10.8936 1.7268C10.7217 1.89871 10.6252 2.13187 10.6252 2.37498V4.43656C9.69658 4.62356 8.79641 4.93156 7.94758 5.35323L6.49008 3.89848C6.31818 3.72663 6.08506 3.63009 5.842 3.63009C5.59893 3.63009 5.36581 3.72663 5.19391 3.89848L3.89683 5.19556C3.72498 5.36746 3.62844 5.60058 3.62844 5.84365C3.62844 6.08671 3.72498 6.31983 3.89683 6.49173L5.35433 7.94831C4.93302 8.79692 4.62484 9.69713 4.43766 10.6259H2.37516C2.13205 10.6259 1.89889 10.7225 1.72698 10.8944C1.55507 11.0663 1.4585 11.2995 1.4585 11.5426V12.4593C1.4585 12.7024 1.55507 12.9355 1.72698 13.1074C1.89889 13.2794 2.13205 13.3759 2.37516 13.3759H4.434C4.621 14.3045 4.929 15.2047 5.35066 16.0535L3.89316 17.511C3.72131 17.6829 3.62478 17.916 3.62478 18.1591C3.62478 18.4022 3.72131 18.6353 3.89316 18.8072L5.19391 20.1033C5.36581 20.2752 5.59893 20.3717 5.842 20.3717C6.08506 20.3717 6.31818 20.2752 6.49008 20.1033L7.94666 18.6458C8.79548 19.0674 9.69603 19.3756 10.6252 19.5625V21.625C10.6252 21.8681 10.7217 22.1013 10.8936 22.2732C11.0656 22.4451 11.2987 22.5417 11.5418 22.5417H12.4585C12.7016 22.5417 12.9348 22.4451 13.1067 22.2732C13.2786 22.1013 13.3752 21.8681 13.3752 21.625V19.5671C14.3037 19.38 15.2036 19.0718 16.0518 18.6504L17.5102 20.107C17.6821 20.2789 17.9153 20.3754 18.1583 20.3754C18.4014 20.3754 18.6345 20.2789 18.8064 20.107L20.1026 18.8108C20.2744 18.6389 20.371 18.4058 20.371 18.1628C20.371 17.9197 20.2744 17.6866 20.1026 17.5147L18.646 16.0572C19.0677 15.2083 19.3757 14.3082 19.5627 13.3796H21.6252C21.8683 13.3796 22.1014 13.283 22.2733 13.1111C22.4453 12.9392 22.5418 12.706 22.5418 12.4629V11.5463C22.5426 11.4255 22.5194 11.3057 22.4736 11.1939C22.4279 11.0821 22.3604 10.9805 22.2752 10.8948C22.19 10.8092 22.0887 10.7413 21.9772 10.695C21.8656 10.6487 21.746 10.6249 21.6252 10.625ZM12.0002 16.125C10.9061 16.125 9.85693 15.6904 9.08335 14.9168C8.30976 14.1432 7.87516 13.094 7.87516 12C7.87516 10.906 8.30976 9.85675 9.08335 9.08316C9.85693 8.30958 10.9061 7.87498 12.0002 7.87498C13.0942 7.87498 14.1434 8.30958 14.917 9.08316C15.6906 9.85675 16.1252 10.906 16.1252 12C16.1252 13.094 15.6906 14.1432 14.917 14.9168C14.1434 15.6904 13.0942 16.125 12.0002 16.125Z" fill="#E3E3E3"/>
<path d="M4.434 13.375C4.621 14.3036 4.929 15.2038 5.35066 16.0526L3.89316 17.5101C3.72131 17.682 3.62478 17.9151 3.62478 18.1582C3.62478 18.4012 3.72131 18.6344 3.89316 18.8063L4.54125 19.4543L9.07875 14.9168C8.30503 14.1431 7.87036 13.0937 7.87036 11.9996C7.87036 10.9054 8.30503 9.85594 9.07875 9.08223C9.85246 8.30852 10.9018 7.87385 11.996 7.87385C13.0902 7.87385 14.1396 8.30852 14.9133 9.08223L19.4499 4.54565L18.8018 3.89756C18.6299 3.72572 18.3968 3.62918 18.1537 3.62918C17.9107 3.62918 17.6776 3.72572 17.5057 3.89756L16.0518 5.35506C15.2037 4.93333 14.3038 4.62513 13.3752 4.4384V2.37498C13.3752 2.13187 13.2786 1.89871 13.1067 1.7268C12.9348 1.55489 12.7016 1.45831 12.4585 1.45831H11.5418C11.2987 1.45831 11.0656 1.55489 10.8936 1.7268C10.7217 1.89871 10.6252 2.13187 10.6252 2.37498V4.43656C9.69658 4.62356 8.79641 4.93156 7.94758 5.35323L6.49008 3.89848C6.31818 3.72663 6.08506 3.63009 5.842 3.63009C5.59893 3.63009 5.36581 3.72663 5.19391 3.89848L3.89683 5.19556C3.72498 5.36746 3.62844 5.60058 3.62844 5.84365C3.62844 6.08671 3.72498 6.31983 3.89683 6.49173L5.35433 7.94831C4.93302 8.79692 4.62484 9.69713 4.43766 10.6259H2.37516C2.13205 10.6259 1.89889 10.7225 1.72698 10.8944C1.55507 11.0663 1.4585 11.2995 1.4585 11.5426V12.4593C1.4585 12.7024 1.55507 12.9355 1.72698 13.1074C1.89889 13.2794 2.13205 13.3759 2.37516 13.3759L4.434 13.375Z" fill="white"/>
<path d="M21.6252 10.625H19.5654C19.3785 9.69584 19.0703 8.7953 18.6487 7.94648L20.1053 6.49081C20.2772 6.31891 20.3737 6.0858 20.3737 5.84273C20.3737 5.59966 20.2772 5.36655 20.1053 5.19465L18.8055 3.89848C18.6336 3.72663 18.4005 3.63009 18.1574 3.63009C17.9143 3.63009 17.6812 3.72663 17.5093 3.89848L16.0518 5.35506C15.2037 4.93333 14.3038 4.62513 13.3752 4.4384V2.37498C13.3752 2.13187 13.2786 1.89871 13.1067 1.7268C12.9348 1.55489 12.7016 1.45831 12.4585 1.45831H11.5418C11.2987 1.45831 11.0656 1.55489 10.8936 1.7268C10.7217 1.89871 10.6252 2.13187 10.6252 2.37498V4.43656C9.69658 4.62356 8.79641 4.93156 7.94758 5.35323L6.49008 3.89848C6.31818 3.72663 6.08506 3.63009 5.842 3.63009C5.59893 3.63009 5.36581 3.72663 5.19391 3.89848L3.89683 5.19556C3.72498 5.36746 3.62844 5.60058 3.62844 5.84365C3.62844 6.08671 3.72498 6.31983 3.89683 6.49173L5.35433 7.94831C4.93302 8.79692 4.62484 9.69713 4.43766 10.6259H2.37516C2.13205 10.6259 1.89889 10.7225 1.72698 10.8944C1.55507 11.0663 1.4585 11.2995 1.4585 11.5426V12.4593C1.4585 12.7024 1.55507 12.9355 1.72698 13.1074C1.89889 13.2794 2.13205 13.3759 2.37516 13.3759H4.434C4.621 14.3045 4.929 15.2047 5.35066 16.0535L3.89316 17.511C3.72131 17.6829 3.62478 17.916 3.62478 18.1591C3.62478 18.4022 3.72131 18.6353 3.89316 18.8072L5.19391 20.1033C5.36581 20.2752 5.59893 20.3717 5.842 20.3717C6.08506 20.3717 6.31818 20.2752 6.49008 20.1033L7.94666 18.6458C8.79548 19.0674 9.69603 19.3756 10.6252 19.5625V21.625C10.6252 21.8681 10.7217 22.1013 10.8936 22.2732C11.0656 22.4451 11.2987 22.5417 11.5418 22.5417H12.4585C12.7016 22.5417 12.9348 22.4451 13.1067 22.2732C13.2786 22.1013 13.3752 21.8681 13.3752 21.625V19.5671C14.3037 19.38 15.2036 19.0718 16.0518 18.6504L17.5102 20.107C17.6821 20.2789 17.9153 20.3754 18.1583 20.3754C18.4014 20.3754 18.6345 20.2789 18.8064 20.107L20.1026 18.8108C20.2744 18.6389 20.371 18.4058 20.371 18.1628C20.371 17.9197 20.2744 17.6866 20.1026 17.5147L18.646 16.0572C19.0677 15.2083 19.3757 14.3082 19.5627 13.3796H21.6252C21.8683 13.3796 22.1014 13.283 22.2733 13.1111C22.4453 12.9392 22.5418 12.706 22.5418 12.4629V11.5463C22.5426 11.4255 22.5194 11.3057 22.4736 11.1939C22.4279 11.0821 22.3604 10.9805 22.2752 10.8948C22.19 10.8092 22.0887 10.7413 21.9772 10.695C21.8656 10.6487 21.746 10.6249 21.6252 10.625ZM12.0002 16.125C10.9061 16.125 9.85693 15.6904 9.08335 14.9168C8.30976 14.1432 7.87516 13.094 7.87516 12C7.87516 10.906 8.30976 9.85675 9.08335 9.08316C9.85693 8.30958 10.9061 7.87498 12.0002 7.87498C13.0942 7.87498 14.1434 8.30958 14.917 9.08316C15.6906 9.85675 16.1252 10.906 16.1252 12C16.1252 13.094 15.6906 14.1432 14.917 14.9168C14.1434 15.6904 13.0942 16.125 12.0002 16.125Z" stroke="#191919" stroke-linecap="round" stroke-linejoin="round"/>
</svg>
