<svg width="24" height="24" viewBox="0 0 24 24" fill="none" xmlns="http://www.w3.org/2000/svg">
<g clip-path="url(#clip0_5303_6126)">
<path d="M3.86914 7.21748C3.86914 6.83696 4.02031 6.47202 4.28937 6.20295C4.55844 5.93388 4.92339 5.78271 5.30391 5.78271H18.6951C19.0756 5.78271 19.4406 5.93388 19.7097 6.20295C19.9787 6.47202 20.1299 6.83696 20.1299 7.21748C20.1299 7.598 19.9787 7.96296 19.7097 8.23203C19.4406 8.5011 19.0756 8.65226 18.6951 8.65226H5.30391C4.92339 8.65226 4.55844 8.5011 4.28937 8.23203C4.02031 7.96296 3.86914 7.598 3.86914 7.21748Z" fill="#FFEF5E"/>
<path d="M13.9133 5.78269C14.1971 5.78269 14.4745 5.69854 14.7104 5.54088C14.9463 5.38323 15.1303 5.15915 15.2388 4.89699C15.3475 4.63482 15.3759 4.34633 15.3205 4.06801C15.2651 3.78969 15.1284 3.53404 14.9279 3.33338C14.7272 3.13273 14.4715 2.99608 14.1932 2.94072C13.9149 2.88535 13.6264 2.91377 13.3642 3.02236C13.1021 3.13096 12.878 3.31486 12.7203 3.55081C12.5627 3.78675 12.4785 4.06415 12.4785 4.34792C12.4785 4.72845 12.6296 5.09339 12.8987 5.36245C13.1678 5.63153 13.5328 5.78269 13.9133 5.78269Z" fill="#E3E3E3" stroke="#191919" stroke-linecap="round" stroke-linejoin="round"/>
<path d="M10.0881 5.78269C10.3719 5.78269 10.6493 5.69854 10.8852 5.54088C11.1211 5.38323 11.3051 5.15915 11.4136 4.89699C11.5223 4.63482 11.5507 4.34633 11.4953 4.06801C11.4399 3.78969 11.3032 3.53404 11.1027 3.33338C10.902 3.13273 10.6463 2.99608 10.368 2.94072C10.0897 2.88535 9.80119 2.91377 9.53902 3.02236C9.27686 3.13096 9.05278 3.31486 8.89513 3.55081C8.73746 3.78675 8.65332 4.06415 8.65332 4.34792C8.65332 4.72845 8.80449 5.09339 9.07356 5.36245C9.34262 5.63153 9.70757 5.78269 10.0881 5.78269Z" fill="#E3E3E3" stroke="#191919" stroke-linecap="round" stroke-linejoin="round"/>
<path d="M5.78256 8.65222V9.68526C5.78228 9.91237 5.70118 10.1319 5.5538 10.3048C5.40642 10.4775 5.20236 10.5922 4.97814 10.6284C2.53999 11.0215 1 13.1985 1 15.8261C1 17.2213 1.55426 18.5594 2.54086 19.546C3.52745 20.5326 4.86557 21.0869 6.26082 21.0869H17.739C19.1342 21.0869 20.4723 20.5326 21.4589 19.546C22.4455 18.5594 22.9998 17.2213 22.9998 15.8261C22.9998 13.1985 21.4646 11.0215 19.0226 10.6284C18.7982 10.5925 18.5939 10.4778 18.4463 10.3051C18.2988 10.1322 18.2175 9.9125 18.2172 9.68526V8.65222H5.78256Z" fill="#EABFFF"/>
<path d="M17.7391 16.9194H6.26092C5.21533 16.9197 4.19339 16.6083 3.32554 16.0251C2.45768 15.4419 1.7833 14.6134 1.38844 13.6452C1.12745 14.3425 0.995852 15.0815 1.0001 15.8261C1.0001 17.2213 1.55436 18.5594 2.54096 19.546C3.52755 20.5326 4.86567 21.0869 6.26092 21.0869H17.7391C19.1343 21.0869 20.4724 20.5326 21.4591 19.546C22.4456 18.5594 22.9999 17.2213 22.9999 15.8261C23.0042 15.0809 22.8726 14.3413 22.6116 13.6433C22.217 14.6119 21.5427 15.4408 20.6749 16.0244C19.807 16.6078 18.7849 16.9195 17.7391 16.9194Z" fill="#D480FF"/>
<path d="M5.78256 8.65222V9.68526C5.78228 9.91237 5.70118 10.1319 5.5538 10.3048C5.40642 10.4775 5.20236 10.5922 4.97814 10.6284C2.53999 11.0215 1 13.1985 1 15.8261C1 17.2213 1.55426 18.5594 2.54086 19.546C3.52745 20.5326 4.86557 21.0869 6.26082 21.0869H17.739C19.1342 21.0869 20.4723 20.5326 21.4589 19.546C22.4455 18.5594 22.9998 17.2213 22.9998 15.8261C22.9998 13.1985 21.4646 11.0215 19.0226 10.6284C18.7982 10.5925 18.5939 10.4778 18.4463 10.3051C18.2988 10.1322 18.2175 9.9125 18.2172 9.68526V8.65222" stroke="#191919" stroke-linecap="round" stroke-linejoin="round"/>
<path d="M20.1299 7.21748C20.1299 7.598 19.9787 7.96296 19.7097 8.23203C19.4406 8.5011 19.0756 8.65226 18.6951 8.65226H5.30391C4.92339 8.65226 4.55844 8.5011 4.28937 8.23203C4.02031 7.96296 3.86914 7.598 3.86914 7.21748C3.86914 6.83696 4.02031 6.47202 4.28937 6.20295C4.55844 5.93388 4.92339 5.78271 5.30391 5.78271H18.6951C19.0756 5.78271 19.4406 5.93388 19.7097 6.20295C19.9787 6.47202 20.1299 6.83696 20.1299 7.21748Z" stroke="#191919" stroke-linecap="round" stroke-linejoin="round"/>
</g>
<defs>
<clipPath id="clip0_5303_6126">
<rect width="24" height="24" fill="white"/>
</clipPath>
</defs>
</svg>
