<svg width="24" height="24" viewBox="0 0 24 24" fill="none" xmlns="http://www.w3.org/2000/svg">
<path d="M23.0002 11.0435C23.0002 12.3634 20.6471 13.4348 17.7393 13.4348C16.6 13.4518 15.4666 13.2672 14.3916 12.8895C13.2246 12.4495 12.4785 11.7895 12.4785 11.0435C12.4785 9.72342 14.8316 8.65216 17.7393 8.65216C20.6471 8.65216 23.0002 9.72539 23.0002 11.0435Z" fill="#E3E3E3"/>
<path d="M22.9997 11.0435V19.0877C22.8467 19.1451 22.685 19.1748 22.5215 19.1738C21.7291 19.1738 21.0867 18.5314 21.0867 17.739H19.6519C18.8595 17.739 18.2171 17.0966 18.2171 16.3043C18.2171 15.5679 17.42 15.1078 16.7824 15.4759C16.4864 15.6467 16.3041 15.9625 16.3041 16.3043C16.3041 17.0406 15.5071 17.5007 14.8694 17.1326C14.5734 16.9618 14.3911 16.646 14.3911 16.3043V12.8895C15.4661 13.2672 16.5995 13.4518 17.7389 13.4348C20.6467 13.4348 22.9997 12.3615 22.9997 11.0435Z" fill="#FF808C"/>
<path d="M23.0002 19.0896V19.6521C23.0002 20.972 20.6471 22.0434 17.7393 22.0434C14.8316 22.0434 12.4785 20.972 12.4785 19.6521V11.0435C12.4785 11.7895 13.2246 12.4495 14.3916 12.8895V16.3043C14.3916 17.0406 15.1887 17.5007 15.8263 17.1326C16.1223 16.9618 16.3046 16.646 16.3046 16.3043C16.3046 15.5679 17.1017 15.1078 17.7393 15.4759C18.0353 15.6467 18.2176 15.9625 18.2176 16.3043C18.2176 17.0966 18.86 17.739 19.6524 17.739H21.0871C21.0886 18.7284 22.0674 19.4194 23.0002 19.0896Z" fill="#E3E3E3"/>
<path d="M1 10.5653V10.967C1.00422 12.8667 2.12964 14.5849 3.86953 15.3478V20.1303C3.87281 21.603 5.46907 22.5199 6.74272 21.7807C7.33125 21.4392 7.69405 20.8108 7.69555 20.1303V15.3478C9.43554 14.5849 10.561 12.8667 10.5651 10.967V10.5653" fill="#FFEF5E"/>
<path d="M10.5662 8.65405H1.00098V10.5671H10.5662V8.65405Z" fill="#E3E3E3"/>
<path d="M10.5662 2.91308V8.65215H1.00098V2.91308C1.00098 2.38481 1.42928 1.9566 1.95755 1.9566H9.60958C10.1379 1.9566 10.5662 2.38481 10.5662 2.91308Z" fill="white"/>
<path d="M3.86914 1.9566V5.30438M7.69515 1.9566V5.30438M5.78219 20.1303V19.1738M22.9994 11.0435C22.9994 12.3634 20.6463 13.4348 17.7386 13.4348C16.5992 13.4518 15.4658 13.2672 14.3908 12.8895C13.2239 12.4495 12.4777 11.7895 12.4777 11.0435C12.4777 9.72341 14.8308 8.65215 17.7386 8.65215C20.6463 8.65215 22.9994 9.72538 22.9994 11.0435Z" stroke="#191919" stroke-linecap="round" stroke-linejoin="round"/>
<path d="M22.9997 11.0435V19.0877C22.8467 19.1451 22.685 19.1748 22.5215 19.1738C21.7291 19.1738 21.0867 18.5314 21.0867 17.739H19.6519C18.8595 17.739 18.2171 17.0966 18.2171 16.3043C18.2171 15.5679 17.42 15.1078 16.7824 15.4759C16.4864 15.6467 16.3041 15.9625 16.3041 16.3043C16.3041 17.0406 15.5071 17.5007 14.8694 17.1326C14.5734 16.9618 14.3911 16.646 14.3911 16.3043V12.8895C15.4661 13.2672 16.5995 13.4518 17.7389 13.4348C20.6467 13.4348 22.9997 12.3654 22.9997 11.0435Z" stroke="#191919" stroke-linecap="round" stroke-linejoin="round"/>
<path d="M23.0002 19.0896V19.6521C23.0002 20.972 20.6471 22.0434 17.7393 22.0434C14.8316 22.0434 12.4785 20.972 12.4785 19.6521V11.0435C12.4785 11.7895 13.2246 12.4495 14.3916 12.8895V16.3043C14.3916 17.0406 15.1887 17.5007 15.8263 17.1326C16.1223 16.9618 16.3046 16.646 16.3046 16.3043C16.3046 15.5679 17.1017 15.1078 17.7393 15.4759C18.0353 15.6467 18.2176 15.9625 18.2176 16.3043C18.2176 17.0966 18.86 17.739 19.6524 17.739H21.0871C21.0886 18.7284 22.0674 19.4194 23.0002 19.0896Z" stroke="#191919" stroke-linecap="round" stroke-linejoin="round"/>
<path d="M17.7386 13.4348C19.3441 13.5154 20.9352 13.0971 22.2935 12.2372C20.9348 11.3786 19.3437 10.9617 17.7386 11.0435C16.1336 10.9627 14.5431 11.3811 13.1855 12.241C13.5528 12.5184 13.9594 12.7384 14.3908 12.8934C15.4668 13.2702 16.6003 13.453 17.7386 13.4348Z" fill="#FF808C"/>
<path d="M1 10.5652V10.9669C1.00422 12.8667 2.12964 14.5848 3.86953 15.3477V20.1303C3.87281 21.603 5.46907 22.5198 6.74272 21.7806C7.33125 21.4392 7.69405 20.8108 7.69555 20.1303V15.3477C9.43554 14.5848 10.561 12.8667 10.5651 10.9669V10.5652M22.9998 11.0435C22.9998 12.3634 20.6467 13.4348 17.739 13.4348C16.5996 13.4518 15.4662 13.2672 14.3912 12.8895C13.2243 12.4495 12.4781 11.7895 12.4781 11.0435C12.4781 9.72342 14.8312 8.65216 17.739 8.65216C20.6467 8.65216 22.9998 9.72539 22.9998 11.0435Z" stroke="#191919" stroke-linecap="round" stroke-linejoin="round"/>
<path d="M10.5662 8.65403H1.00098V10.5671H10.5662V8.65403ZM10.5662 2.91308V8.65215H1.00098V2.91308C1.00098 2.38481 1.42928 1.9566 1.95755 1.9566H9.60958C10.1379 1.9566 10.5662 2.38481 10.5662 2.91308Z" stroke="#191919" stroke-linecap="round" stroke-linejoin="round"/>
</svg>
