<svg width="24" height="24" viewBox="0 0 24 24" fill="none" xmlns="http://www.w3.org/2000/svg">
<g clip-path="url(#clip0_5303_4434)">
<mask id="mask0_5303_4434" style="mask-type:luminance" maskUnits="userSpaceOnUse" x="0" y="0" width="24" height="24">
<path d="M0 0H24V24H0V0Z" fill="white"/>
</mask>
<g mask="url(#mask0_5303_4434)">
<path d="M22.9998 12C23.0043 13.4277 22.7247 14.8422 22.1772 16.1608L13.3294 12.5356C13.4728 12.1856 13.4694 11.7926 13.3198 11.4452L22.1485 7.74347C22.7109 9.09219 23.0007 10.5384 22.9998 12Z" fill="#66E1FF"/>
<path d="M22.1777 16.1608C21.0799 18.8664 18.944 21.0195 16.2473 22.139L12.5552 13.3199C12.9085 13.1736 13.1879 12.8908 13.3299 12.5356L22.1777 16.1608Z" fill="#C2F3FF"/>
<path d="M16.2474 22.139C13.559 23.2736 10.5287 23.2874 7.83008 22.1772L11.4553 13.3199C11.6265 13.3965 11.8121 13.4366 12.0005 13.4347C12.1918 13.4366 12.3802 13.3965 12.5553 13.3199L16.2474 22.139Z" fill="#FF808C"/>
<path d="M11.456 13.3199L7.8307 22.1772C5.1327 21.068 2.98341 18.9359 1.85254 16.2468L10.6811 12.5547C10.8267 12.9032 11.1057 13.1787 11.456 13.3199Z" fill="#FFBFC5"/>
<path d="M10.5662 12C10.5642 12.1912 10.6035 12.3807 10.681 12.5547L1.85235 16.2468C1.28959 14.9017 0.999869 13.458 1.00005 12C0.995559 10.5691 1.27516 9.15145 1.82265 7.82953L10.68 11.4547C10.6025 11.6268 10.5642 11.8125 10.5662 12Z" fill="#78EB7B"/>
<path d="M11.4463 10.6799C11.0942 10.82 10.8167 11.1009 10.6811 11.4547L1.82373 7.82958C2.92733 5.12773 5.06126 2.97657 7.7542 1.85132L11.4463 10.6799Z" fill="#C9F7CA"/>
<path d="M16.1616 1.82265L12.546 10.6799C12.1953 10.5269 11.7967 10.5269 11.446 10.6799L7.75391 1.85132C9.09935 1.28978 10.5428 1.00043 12.0008 1.00006C13.4286 0.99546 14.843 1.27507 16.1616 1.82265Z" fill="#FFEF5E"/>
<path d="M22.1488 7.74345L13.3201 11.4452C13.1773 11.0949 12.8973 10.8184 12.5454 10.6799L16.161 1.82263H16.1706C18.8678 2.92801 21.0174 5.05697 22.1488 7.74345Z" fill="#FFF9BF"/>
<path d="M22.9998 12C23.0043 13.4277 22.7247 14.8422 22.1772 16.1608L13.3294 12.5356C13.4728 12.1856 13.4694 11.7926 13.3198 11.4452L22.1485 7.74347C22.7109 9.09219 23.0007 10.5384 22.9998 12Z" stroke="#191919" stroke-linecap="round" stroke-linejoin="round"/>
<path d="M22.1777 16.1608C21.0799 18.8664 18.944 21.0195 16.2473 22.139L12.5552 13.3199C12.9085 13.1736 13.1879 12.8908 13.3299 12.5356L22.1777 16.1608Z" stroke="#191919" stroke-linecap="round" stroke-linejoin="round"/>
<path d="M16.2474 22.139C13.559 23.2736 10.5287 23.2874 7.83008 22.1772L11.4553 13.3199C11.6265 13.3965 11.8121 13.4366 12.0005 13.4347C12.1918 13.4366 12.3802 13.3965 12.5553 13.3199L16.2474 22.139Z" stroke="#191919" stroke-linecap="round" stroke-linejoin="round"/>
<path d="M1.85235 16.2468C2.98322 18.9359 5.13251 21.068 7.83051 22.1772L11.4558 13.3199C11.1055 13.1787 10.8265 12.9031 10.681 12.5547M1.85235 16.2468L10.681 12.5547M1.85235 16.2468C1.28959 14.9017 0.999869 13.458 1.00005 12C0.995559 10.5691 1.27516 9.15149 1.82265 7.82957M10.681 12.5547C10.6035 12.3806 10.5642 12.1912 10.5662 12C10.5642 11.8125 10.6025 11.6269 10.68 11.4547M1.82265 7.82957L10.68 11.4547M1.82265 7.82957C2.92625 5.12773 5.06111 2.97656 7.75405 1.85132M10.68 11.4547C10.8156 11.1009 11.0941 10.82 11.4461 10.6799M7.75405 1.85132L11.4461 10.6799M7.75405 1.85132C9.09949 1.28978 10.5429 1.00043 12.0009 1.00006C13.4287 0.99546 14.8431 1.27507 16.1618 1.82265L12.5462 10.6799C12.1954 10.5269 11.7968 10.5269 11.4461 10.6799" stroke="#191919" stroke-linecap="round" stroke-linejoin="round"/>
<path d="M22.1488 7.74345L13.3201 11.4452C13.1773 11.0949 12.8973 10.8184 12.5454 10.6799L16.161 1.82263H16.1706C18.8678 2.92801 21.0174 5.05697 22.1488 7.74345Z" stroke="#191919" stroke-linecap="round" stroke-linejoin="round"/>
</g>
</g>
<defs>
<clipPath id="clip0_5303_4434">
<rect width="24" height="24" fill="white"/>
</clipPath>
</defs>
</svg>
