<svg width="24" height="24" viewBox="0 0 24 24" fill="none" xmlns="http://www.w3.org/2000/svg">
<path d="M8.71729 21.1392L16.8772 7.00254C17.4052 6.0878 17.0919 4.91816 16.1772 4.39002L12.8637 2.47744C11.9489 1.9493 10.7793 2.26274 10.2511 3.17739L9.26332 4.89877" fill="#E3E3E3"/>
<path d="M22.1293 11.7408L20.2167 8.42824C19.6886 7.51359 18.519 7.20015 17.6042 7.7283L15.8886 8.71901L8.74914 21.0817C8.42334 21.6479 7.9573 22.1209 7.396 22.4549L21.4283 14.3534C22.3441 13.8262 22.6589 12.6563 22.1312 11.7408H22.1293Z" fill="#E3E3E3"/>
<path d="M9.2635 19.1693C9.2635 22.1138 6.0759 23.9541 3.52586 22.4818C2.34236 21.7985 1.61328 20.5358 1.61328 19.1693V2.91258C1.61328 1.85629 2.46957 1 3.52586 1H7.35092C8.40721 1 9.2635 1.85629 9.2635 2.91258V19.1693Z" fill="white"/>
<path d="M5.43857 6.7376C6.91077 6.74088 7.83451 5.14914 7.10122 3.87244C6.7593 3.27732 6.12483 2.91104 5.43857 2.91254C3.96626 2.91582 3.04955 4.51159 3.78856 5.78501C4.13001 6.37339 4.75829 6.7361 5.43857 6.7376Z" fill="#FFEF5E"/>
<path d="M5.43857 12.4753C6.91077 12.4786 7.83451 10.8868 7.10122 9.61011C6.7593 9.01498 6.12483 8.64871 5.43857 8.65021C3.96626 8.65349 3.04955 10.2493 3.78856 11.5227C4.13001 12.1111 4.75829 12.4738 5.43857 12.4753Z" fill="#FFBC44"/>
<path d="M5.43857 18.2129C6.91077 18.2162 7.83451 16.6245 7.10122 15.3477C6.7593 14.7526 6.12483 14.3864 5.43857 14.3879C3.96626 14.3911 3.04955 15.9869 3.78856 17.2603C4.13001 17.8487 4.75829 18.2114 5.43857 18.2129Z" fill="#C77F67"/>
<path d="M8.71729 21.1392L16.8772 7.00254C17.4052 6.0878 17.0919 4.91816 16.1772 4.39002L12.8637 2.47744C11.9489 1.9493 10.7793 2.26274 10.2511 3.17739L9.26332 4.89877" stroke="#191919" stroke-linecap="round" stroke-linejoin="round"/>
<path d="M22.1293 11.7408L20.2167 8.42824C19.6886 7.51359 18.519 7.20015 17.6042 7.7283L15.8886 8.71901L8.74914 21.0817C8.42334 21.6479 7.9573 22.1209 7.396 22.4549L21.4283 14.3534C22.3441 13.8262 22.6589 12.6563 22.1312 11.7408H22.1293Z" stroke="#191919" stroke-linecap="round" stroke-linejoin="round"/>
<path d="M9.2635 19.1693C9.2635 22.1138 6.0759 23.9541 3.52586 22.4818C2.34236 21.7985 1.61328 20.5358 1.61328 19.1693V2.91258C1.61328 1.85629 2.46957 1 3.52586 1H7.35092C8.40721 1 9.2635 1.85629 9.2635 2.91258V19.1693Z" stroke="#191919" stroke-linecap="round" stroke-linejoin="round"/>
<path d="M5.43857 6.7376C6.91077 6.74088 7.83451 5.14914 7.10122 3.87244C6.7593 3.27732 6.12483 2.91104 5.43857 2.91254C3.96626 2.91582 3.04955 4.51159 3.78856 5.78501C4.13001 6.37339 4.75829 6.7361 5.43857 6.7376ZM5.43857 12.4753C6.91077 12.4786 7.83451 10.8868 7.10122 9.61008C6.7593 9.01495 6.12483 8.64868 5.43857 8.65018C3.96626 8.65346 3.04955 10.2493 3.78856 11.5227C4.13001 12.1111 4.75829 12.4738 5.43857 12.4753ZM5.43857 18.2129C6.91077 18.2162 7.83451 16.6245 7.10122 15.3477C6.7593 14.7526 6.12483 14.3864 5.43857 14.3879C3.96626 14.3911 3.04955 15.9869 3.78856 17.2603C4.13001 17.8487 4.75829 18.2114 5.43857 18.2129Z" stroke="#191919" stroke-linecap="round" stroke-linejoin="round"/>
<path d="M5.43822 20.8417C5.25414 20.8417 5.13911 20.6425 5.2311 20.4831C5.27381 20.4091 5.35278 20.3636 5.43822 20.3636M5.43822 20.8417C5.62219 20.8417 5.73723 20.6425 5.64524 20.4831C5.60252 20.4091 5.52355 20.3636 5.43822 20.3636" stroke="#191919"/>
</svg>
