<svg width="24" height="24" viewBox="0 0 24 24" fill="none" xmlns="http://www.w3.org/2000/svg">
<g clip-path="url(#clip0_5303_4416)">
<mask id="mask0_5303_4416" style="mask-type:luminance" maskUnits="userSpaceOnUse" x="0" y="0" width="24" height="24">
<path d="M0 0H24V24H0V0Z" fill="white"/>
</mask>
<g mask="url(#mask0_5303_4416)">
<path d="M19.1704 8.18106C19.1724 8.60176 19.1332 9.02049 19.0558 9.43352C18.0558 8.92117 16.9478 8.65568 15.8242 8.65915C14.4701 8.6584 13.1437 9.04305 12 9.76818C10.8563 9.04305 9.52994 8.6584 8.17582 8.65915C7.05227 8.65568 5.94426 8.92117 4.94438 9.43352C4.86696 9.02059 4.82858 8.60129 4.82961 8.18106C4.82961 2.66134 10.805 -0.788504 15.5852 1.97131C17.8038 3.25222 19.1704 5.61933 19.1704 8.18106Z" fill="#66E1FF"/>
<path d="M12.0014 9.76819C10.293 10.8379 9.11862 12.5822 8.77 14.5676C6.7545 13.558 5.33598 11.6538 4.9458 9.43352C5.94569 8.92118 7.05369 8.65569 8.17724 8.65915C9.53098 8.65915 10.8571 9.04344 12.0014 9.76819Z" fill="#78EB7B"/>
<path d="M12.0014 21.8814C10.8605 22.6137 9.53287 23.002 8.17716 23C2.65744 22.9924 -0.784354 17.0124 1.98211 12.2359C2.67784 11.0346 3.7074 10.0611 4.94572 9.43353C5.3359 11.6538 6.75443 13.558 8.76992 14.5676C8.24634 17.4374 9.52707 20.3361 12.0014 21.8814Z" fill="#FFEF5E"/>
<path d="M15.2314 14.5676C13.204 15.6128 10.796 15.6128 8.76855 14.5676C9.11726 12.5822 10.2916 10.838 12 9.76819C13.7083 10.838 14.8828 12.5822 15.2314 14.5676Z" fill="#E3E3E3"/>
<path d="M19.0567 9.43352C18.6664 11.6538 17.248 13.558 15.2325 14.5676C14.8837 12.5823 13.7093 10.8381 12.001 9.76819C13.1447 9.04306 14.4711 8.6584 15.8253 8.65915C16.9487 8.65569 18.0568 8.92118 19.0567 9.43352Z" fill="#D480FF"/>
<path d="M15.3469 15.8296C15.3522 18.2895 14.0869 20.5779 12.0006 21.8814C9.52635 20.3361 8.24563 17.4374 8.76921 14.5676C10.7967 15.6129 13.2046 15.6129 15.2322 14.5676C15.3087 14.9835 15.3469 15.4061 15.3469 15.8296Z" fill="#C77F67"/>
<path d="M22.9946 15.8296C22.9946 19.7898 19.7845 23.0002 15.8242 23C14.4686 23.002 13.141 22.6137 12 21.8814C14.4744 20.3361 15.7551 17.4374 15.2315 14.5676C17.2469 13.558 18.6654 11.6537 19.0557 9.43353C21.4749 10.6466 23 13.1233 22.9946 15.8296Z" fill="#FF808C"/>
<path d="M19.1704 8.18106C19.1724 8.60176 19.1332 9.02049 19.0558 9.43352C18.0558 8.92117 16.9478 8.65568 15.8242 8.65915C14.4701 8.6584 13.1437 9.04305 12 9.76818C10.8563 9.04305 9.52994 8.6584 8.17582 8.65915C7.05227 8.65568 5.94426 8.92117 4.94438 9.43352C4.86696 9.02059 4.82858 8.60129 4.82961 8.18106C4.82961 2.66134 10.805 -0.788504 15.5852 1.97131C17.8038 3.25222 19.1704 5.61933 19.1704 8.18106Z" stroke="#191919" stroke-linecap="round" stroke-linejoin="round"/>
<path d="M12.0014 9.76819C10.293 10.8379 9.11862 12.5822 8.77 14.5676C6.7545 13.558 5.33598 11.6538 4.9458 9.43352C5.94569 8.92118 7.05369 8.65569 8.17724 8.65915C9.53098 8.65915 10.8571 9.04344 12.0014 9.76819Z" stroke="#191919" stroke-linecap="round" stroke-linejoin="round"/>
<path d="M12.0014 21.8814C10.8605 22.6137 9.53287 23.002 8.17716 23C2.65744 22.9924 -0.784354 17.0124 1.98211 12.2359C2.67784 11.0346 3.7074 10.0611 4.94572 9.43353C5.3359 11.6538 6.75443 13.558 8.76992 14.5676C8.24634 17.4374 9.52707 20.3361 12.0014 21.8814Z" stroke="#191919" stroke-linecap="round" stroke-linejoin="round"/>
<path d="M15.2314 14.5676C13.204 15.6128 10.796 15.6128 8.76855 14.5676C9.11726 12.5822 10.2916 10.838 12 9.76819C13.7083 10.838 14.8828 12.5822 15.2314 14.5676Z" stroke="#191919" stroke-linecap="round" stroke-linejoin="round"/>
<path d="M15.2322 14.5676C17.2477 13.558 18.6661 11.6538 19.0564 9.43352C18.0565 8.92118 16.9484 8.65569 15.8249 8.65915C14.4707 8.6584 13.1443 9.04306 12.0006 9.76819C13.709 10.8381 14.8834 12.5823 15.2322 14.5676ZM15.2322 14.5676C13.2046 15.6128 10.7967 15.6128 8.76921 14.5676C8.24563 17.4374 9.52635 20.3361 12.0006 21.8814C14.0869 20.5779 15.3522 18.2895 15.3469 15.8296C15.3469 15.4061 15.3087 14.9835 15.2322 14.5676Z" stroke="#191919" stroke-linecap="round" stroke-linejoin="round"/>
<path d="M22.9946 15.8296C22.9946 19.7898 19.7845 23.0002 15.8242 23C14.4686 23.002 13.141 22.6137 12 21.8814C14.4744 20.3361 15.7551 17.4374 15.2315 14.5676C17.2469 13.558 18.6654 11.6537 19.0557 9.43353C21.4749 10.6466 23 13.1233 22.9946 15.8296Z" stroke="#191919" stroke-linecap="round" stroke-linejoin="round"/>
</g>
</g>
<defs>
<clipPath id="clip0_5303_4416">
<rect width="24" height="24" fill="white"/>
</clipPath>
</defs>
</svg>
