<svg width="24" height="24" viewBox="0 0 24 24" fill="none" xmlns="http://www.w3.org/2000/svg">
<g clip-path="url(#clip0_5303_4584)">
<mask id="mask0_5303_4584" style="mask-type:luminance" maskUnits="userSpaceOnUse" x="0" y="0" width="24" height="24">
<path d="M0 0H24V24H0V0Z" fill="white"/>
</mask>
<g mask="url(#mask0_5303_4584)">
<path d="M21.7363 8.35164L18.6927 11.3923L12.6113 5.31098L15.6521 2.26076C17.9965 -0.0799489 21.9955 0.99494 22.8505 4.19562C23.2473 5.68105 22.8214 7.26532 21.7334 8.35164H21.7363Z" fill="#FFBFC5"/>
<path d="M18.6925 11.3923L10.2532 19.8402C8.96345 21.1228 7.00658 21.4559 5.36516 20.6721L3.45279 22.5844C2.89066 23.1385 1.98778 23.1385 1.42565 22.5844C0.862674 22.0261 0.862674 21.1158 1.42565 20.5574L3.33802 18.645C2.54897 17.005 2.8826 15.0454 4.16997 13.7589L12.6131 5.3158L18.6925 11.3923Z" fill="#C2F3FF"/>
<path d="M21.7335 8.34688L18.6928 11.3875L15.5947 8.28955L21.6665 2.20813C22.239 2.74412 22.6498 3.42983 22.8522 4.18749C23.246 5.67423 22.8199 7.25822 21.7335 8.34688Z" fill="#FF808C"/>
<path d="M18.6928 11.3876L10.2497 19.8307C8.96025 21.1124 7.00441 21.4454 5.36355 20.6625L3.45118 22.5749C2.88904 23.129 1.98617 23.129 1.42404 22.5749C1.40258 22.5548 1.38338 22.5323 1.3667 22.508L15.5947 8.28949L18.6928 11.3876Z" fill="#66E1FF"/>
<path d="M18.6925 11.3923L21.7361 8.35164H21.7332C22.8212 7.26533 23.2471 5.68105 22.8503 4.19562C21.9953 0.99494 17.9962 -0.0799489 15.6519 2.26076L12.6111 5.31098L18.6925 11.3923ZM18.6925 11.3923L10.2532 19.8402C8.96345 21.1228 7.00658 21.4559 5.36516 20.6721L3.45279 22.5844C2.89066 23.1385 1.98778 23.1385 1.42565 22.5844C0.862674 22.026 0.862674 21.1158 1.42565 20.5574L3.33802 18.645C2.54897 17.005 2.8826 15.0454 4.16997 13.7589L12.6131 5.31576L18.6925 11.3923ZM20.0436 12.7405L18.6954 11.3923M12.614 5.31098L11.2562 3.95315M9.67567 8.24072L11.5212 10.0871M7.7633 10.1531L9.60878 11.9995M5.85093 12.0655L7.69641 13.9119" stroke="#191919" stroke-linecap="round" stroke-linejoin="round"/>
</g>
</g>
<defs>
<clipPath id="clip0_5303_4584">
<rect width="24" height="24" fill="white"/>
</clipPath>
</defs>
</svg>
