<svg width="24" height="24" viewBox="0 0 24 24" fill="none" xmlns="http://www.w3.org/2000/svg">
<g clip-path="url(#clip0_5303_3718)">
<path d="M19.1739 4.14983C18.9946 3.97043 18.7513 3.86963 18.4977 3.86957H1.95652C1.70283 3.86957 1.45954 3.97035 1.28016 4.14972C1.10078 4.32911 1 4.5724 1 4.82609V19.1739C1 19.4276 1.10078 19.6709 1.28016 19.8503C1.45954 20.0296 1.70283 20.1304 1.95652 20.1304H22.0435C22.2971 20.1304 22.5405 20.0296 22.7198 19.8503C22.8992 19.6709 23 19.4276 23 19.1739V8.37192C22.9999 8.11825 22.8992 7.87499 22.7197 7.69565L19.1739 4.14983Z" fill="#E3E3E3"/>
<path d="M19.1739 4.14983C18.9946 3.97043 18.7513 3.86963 18.4977 3.86957H1.95652C1.70283 3.86957 1.45954 3.97035 1.28016 4.14972C1.10078 4.32911 1 4.5724 1 4.82609V19.1739C1 19.4276 1.10078 19.6709 1.28016 19.8503C1.45954 20.0296 1.70283 20.1304 1.95652 20.1304H3.97574L19.567 4.53913L19.1739 4.14983Z" fill="white"/>
<path d="M19.1739 4.14983C18.9946 3.97043 18.7513 3.86963 18.4977 3.86957H1.95652C1.70283 3.86957 1.45954 3.97035 1.28016 4.14972C1.10078 4.32911 1 4.5724 1 4.82609V19.1739C1 19.4276 1.10078 19.6709 1.28016 19.8503C1.45954 20.0296 1.70283 20.1304 1.95652 20.1304H22.0435C22.2971 20.1304 22.5405 20.0296 22.7198 19.8503C22.8992 19.6709 23 19.4276 23 19.1739V8.37192C22.9999 8.11825 22.8992 7.87499 22.7197 7.69565L19.1739 4.14983Z" stroke="#191919" stroke-linecap="round" stroke-linejoin="round"/>
</g>
<defs>
<clipPath id="clip0_5303_3718">
<rect width="24" height="24" fill="white"/>
</clipPath>
</defs>
</svg>
