<svg width="24" height="24" viewBox="0 0 24 24" fill="none" xmlns="http://www.w3.org/2000/svg">
<g clip-path="url(#clip0_5303_3696)">
<path d="M18.8932 4.82623C19.0726 5.00557 19.1734 5.24882 19.1735 5.50248V22.0432C19.1735 22.2969 19.0727 22.5402 18.8933 22.7196C18.7139 22.8989 18.4706 22.9997 18.217 22.9997H1.9565C1.70282 22.9997 1.45953 22.8989 1.28015 22.7196C1.10077 22.5402 1 22.2969 1 22.0432V1.95674C1 1.70306 1.10077 1.45977 1.28015 1.2804C1.45953 1.10102 1.70282 1.00024 1.9565 1.00024H14.6712C14.9249 1.0003 15.1681 1.10111 15.3475 1.2805L18.8932 4.82623Z" fill="#E3E3E3"/>
<path d="M17.8908 3.82382L15.3475 1.2805C15.1681 1.10111 14.9249 1.0003 14.6712 1.00024H1.9565C1.70282 1.00024 1.45953 1.10102 1.28015 1.2804C1.10077 1.45977 1 1.70306 1 1.95674V20.7137L17.8908 3.82382Z" fill="white"/>
<path d="M22.4059 14.9842L15.1079 22.2823L11.521 22.9997L12.2384 19.4128L19.5364 12.1147C19.7241 11.9264 19.9471 11.777 20.1927 11.675C20.4382 11.5731 20.7015 11.5206 20.9674 11.5206C21.2332 11.5206 21.4965 11.5731 21.7421 11.675C21.9876 11.777 22.2106 11.9264 22.3983 12.1147L22.4059 12.1224C22.5943 12.3101 22.7437 12.5331 22.8457 12.7786C22.9476 13.0242 23.0001 13.2874 23.0001 13.5533C23.0001 13.8192 22.9476 14.0824 22.8457 14.328C22.7437 14.5735 22.5943 14.7965 22.4059 14.9842Z" fill="#FFBC44" stroke="#191919" stroke-linecap="round" stroke-linejoin="round"/>
<path d="M8.65198 22.9997H1.9565C1.70282 22.9997 1.45953 22.8989 1.28015 22.7196C1.10077 22.5402 1 22.2969 1 22.0432V1.95674C1 1.70306 1.10077 1.45977 1.28015 1.2804C1.45953 1.10102 1.70282 1.00024 1.9565 1.00024H14.6712C14.9249 1.0003 15.1681 1.10111 15.3475 1.2805L18.8932 4.82623C19.0726 5.00557 19.1734 5.24882 19.1735 5.50248V8.65222" stroke="#191919" stroke-linecap="round" stroke-linejoin="round"/>
</g>
<defs>
<clipPath id="clip0_5303_3696">
<rect width="24" height="24" fill="white"/>
</clipPath>
</defs>
</svg>
