<svg width="24" height="24" viewBox="0 0 24 24" fill="none" xmlns="http://www.w3.org/2000/svg">
<g clip-path="url(#clip0_5303_3508)">
<path d="M18.8941 4.82609C19.0735 5.00543 19.1743 5.24868 19.1744 5.50235V22.0435C19.1744 22.2972 19.0736 22.5405 18.8942 22.7198C18.7149 22.8992 18.4716 23 18.2179 23H1.95701C1.70332 23 1.46003 22.8992 1.28065 22.7198C1.10126 22.5405 1.00049 22.2972 1.00049 22.0435V1.95652C1.00049 1.70284 1.10126 1.45954 1.28065 1.28016C1.46003 1.10078 1.70332 1 1.95701 1H14.6721C14.9257 1.00005 15.169 1.10087 15.3483 1.28026L18.8941 4.82609Z" fill="#E3E3E3"/>
<path d="M17.8917 3.82365L15.3483 1.28026C15.169 1.10087 14.9257 1.00005 14.6721 1H1.95701C1.70332 1 1.46003 1.10078 1.28065 1.28016C1.10126 1.45954 1.00049 1.70284 1.00049 1.95652V20.7139L17.8917 3.82365Z" fill="white"/>
<path d="M10.5657 23H1.95701C1.70332 23 1.46003 22.8992 1.28065 22.7198C1.10126 22.5405 1.00049 22.2972 1.00049 22.0435V1.95652C1.00049 1.70284 1.10126 1.45954 1.28065 1.28016C1.46003 1.10078 1.70332 1 1.95701 1H14.6721C14.9257 1.00005 15.169 1.10087 15.3483 1.28026L18.8941 4.82609C19.0735 5.00543 19.1743 5.24868 19.1744 5.50235V8.65217" stroke="#191919" stroke-linecap="round" stroke-linejoin="round"/>
<path d="M17.2606 23C18.7827 23 20.2425 22.3953 21.3188 21.319C22.3951 20.2427 22.9997 18.7829 22.9997 17.2608C22.9997 15.7387 22.3951 14.2789 21.3188 13.2027C20.2425 12.1264 18.7827 11.5217 17.2606 11.5217C15.7385 11.5217 14.2787 12.1264 13.2024 13.2027C12.1261 14.2789 11.5215 15.7387 11.5215 17.2608C11.5215 18.7829 12.1261 20.2427 13.2024 21.319C14.2787 22.3953 15.7385 23 17.2606 23Z" fill="#78EB7B"/>
<path d="M17.2613 11.5217C16.0942 11.5231 14.9553 11.8804 13.9964 12.5458C13.0376 13.2112 12.3044 14.1531 11.8946 15.2459C11.4849 16.3387 11.418 17.5305 11.703 18.6623C11.988 19.7941 12.6113 20.8121 13.4898 21.5805L21.58 13.4902C21.0431 12.872 20.3797 12.3763 19.6346 12.0366C18.8895 11.697 18.0802 11.5214 17.2613 11.5217Z" fill="#C9F7CA"/>
<path d="M17.2606 23C18.7827 23 20.2425 22.3953 21.3188 21.319C22.3951 20.2427 22.9997 18.7829 22.9997 17.2608C22.9997 15.7387 22.3951 14.2789 21.3188 13.2027C20.2425 12.1264 18.7827 11.5217 17.2606 11.5217C15.7385 11.5217 14.2787 12.1264 13.2024 13.2027C12.1261 14.2789 11.5215 15.7387 11.5215 17.2608C11.5215 18.7829 12.1261 20.2427 13.2024 21.319C14.2787 22.3953 15.7385 23 17.2606 23Z" stroke="#191919" stroke-linecap="round" stroke-linejoin="round"/>
<path d="M17.2607 14.3913V20.1304" stroke="#191919" stroke-linecap="round" stroke-linejoin="round"/>
<path d="M20.1302 17.2608H14.3911" stroke="#191919" stroke-linecap="round" stroke-linejoin="round"/>
</g>
<defs>
<clipPath id="clip0_5303_3508">
<rect width="24" height="24" fill="white"/>
</clipPath>
</defs>
</svg>
