<svg width="24" height="24" viewBox="0 0 24 24" fill="none" xmlns="http://www.w3.org/2000/svg">
<g clip-path="url(#clip0_5303_3647)">
<path d="M4 5H13.586C13.8512 5.00006 14.1055 5.10545 14.293 5.293L16.707 7.707C16.8946 7.89449 16.9999 8.1488 17 8.41399V22C17 22.2652 16.8946 22.5196 16.7071 22.7071C16.5196 22.8946 16.2652 23 16 23H4C3.73478 23 3.48043 22.8946 3.29289 22.7071C3.10536 22.5196 3 22.2652 3 22V6C3 5.73478 3.10536 5.48043 3.29289 5.29289C3.48043 5.10536 3.73478 5 4 5Z" fill="#E3E3E3"/>
<path d="M6.00049 3H15.5865C15.8517 3.00006 16.106 3.10545 16.2935 3.293L18.7075 5.707C18.8951 5.89449 19.0004 6.1488 19.0005 6.41399V20C19.0005 20.2652 18.8951 20.5196 18.7076 20.7071C18.5201 20.8946 18.2657 21 18.0005 21H6.00049C5.73527 21 5.48092 20.8946 5.29338 20.7071C5.10585 20.5196 5.00049 20.2652 5.00049 20V4C5.00049 3.73478 5.10585 3.48043 5.29338 3.29289C5.48092 3.10536 5.73527 3 6.00049 3Z" fill="#E3E3E3"/>
<path d="M7.99951 1H17.5855C17.8507 1.00006 18.105 1.10545 18.2925 1.293L20.7065 3.707C20.8941 3.89449 20.9994 4.1488 20.9995 4.41399V18C20.9995 18.2652 20.8941 18.5196 20.7066 18.7071C20.5191 18.8946 20.2647 19 19.9995 19H7.99951C7.73429 19 7.47994 18.8946 7.2924 18.7071C7.10487 18.5196 6.99951 18.2652 6.99951 18V2C6.99951 1.73478 7.10487 1.48043 7.2924 1.29289C7.47994 1.10536 7.73429 1 7.99951 1Z" fill="white"/>
<path d="M7.99951 1H17.5855C17.8507 1.00006 18.105 1.10545 18.2925 1.293L20.7065 3.707C20.8941 3.89449 20.9994 4.1488 20.9995 4.41399V18C20.9995 18.2652 20.8941 18.5196 20.7066 18.7071C20.5191 18.8946 20.2647 19 19.9995 19H7.99951C7.73429 19 7.47994 18.8946 7.2924 18.7071C7.10487 18.5196 6.99951 18.2652 6.99951 18V2C6.99951 1.73478 7.10487 1.48043 7.2924 1.29289C7.47994 1.10536 7.73429 1 7.99951 1Z" stroke="#191919" stroke-linecap="round" stroke-linejoin="round"/>
<path d="M18.0005 21H6.00049C5.73527 21 5.48092 20.8946 5.29338 20.7071C5.10585 20.5196 5.00049 20.2652 5.00049 20V4" stroke="#191919" stroke-linecap="round" stroke-linejoin="round"/>
<path d="M16 23H4C3.73478 23 3.48043 22.8946 3.29289 22.7071C3.10536 22.5196 3 22.2652 3 22V6" stroke="#191919" stroke-linecap="round" stroke-linejoin="round"/>
</g>
<defs>
<clipPath id="clip0_5303_3647">
<rect width="24" height="24" fill="white"/>
</clipPath>
</defs>
</svg>
