<svg width="24" height="24" viewBox="0 0 24 24" fill="none" xmlns="http://www.w3.org/2000/svg">
<g clip-path="url(#clip0_5303_3443)">
<path d="M20.8067 4.82609C20.9861 5.00543 21.0869 5.24868 21.087 5.50235V22.0435C21.087 22.2972 20.9862 22.5405 20.8068 22.7198C20.6275 22.8992 20.3842 23 20.1305 23H3.86961C3.61592 23 3.37263 22.8992 3.19324 22.7198C3.01386 22.5405 2.91309 22.2972 2.91309 22.0435V1.95652C2.91309 1.70284 3.01386 1.45954 3.19324 1.28016C3.37263 1.10078 3.61592 1 3.86961 1H16.5847C16.8383 1.00005 17.0816 1.10087 17.2609 1.28026L20.8067 4.82609Z" fill="#E3E3E3"/>
<path d="M19.8043 3.82365L17.2609 1.28026C17.0816 1.10087 16.8383 1.00005 16.5847 1H3.86961C3.61592 1 3.37263 1.10078 3.19324 1.28016C3.01386 1.45954 2.91309 1.70284 2.91309 1.95652V20.7139L19.8043 3.82365Z" fill="white"/>
<path d="M20.8067 4.82609C20.9861 5.00543 21.0869 5.24868 21.087 5.50235V22.0435C21.087 22.2972 20.9862 22.5405 20.8068 22.7198C20.6275 22.8992 20.3842 23 20.1305 23H3.86961C3.61592 23 3.37263 22.8992 3.19324 22.7198C3.01386 22.5405 2.91309 22.2972 2.91309 22.0435V1.95652C2.91309 1.70284 3.01386 1.45954 3.19324 1.28016C3.37263 1.10078 3.61592 1 3.86961 1H16.5847C16.8383 1.00005 17.0816 1.10087 17.2609 1.28026L20.8067 4.82609Z" stroke="#191919" stroke-linecap="round" stroke-linejoin="round"/>
<path d="M6.26123 15.826H17.7395" stroke="#191919" stroke-linecap="round" stroke-linejoin="round"/>
<path d="M6.26123 18.6956H17.7395" stroke="#191919" stroke-linecap="round" stroke-linejoin="round"/>
<path d="M6.26123 12.9565H17.7395" stroke="#191919" stroke-linecap="round" stroke-linejoin="round"/>
<path d="M6.26123 10.0869H17.7395" stroke="#191919" stroke-linecap="round" stroke-linejoin="round"/>
<path d="M6.26123 7.21735H12.9569" stroke="#191919" stroke-linecap="round" stroke-linejoin="round"/>
<path d="M6.26123 7.21735H12.9569" stroke="#191919" stroke-linecap="round" stroke-linejoin="round"/>
<path d="M6.26123 10.0869H17.7395" stroke="#191919" stroke-linecap="round" stroke-linejoin="round"/>
<path d="M6.26123 12.9565H17.7395" stroke="#191919" stroke-linecap="round" stroke-linejoin="round"/>
<path d="M6.26123 15.826H17.7395" stroke="#191919" stroke-linecap="round" stroke-linejoin="round"/>
<path d="M6.26123 18.6956H17.7395" stroke="#191919" stroke-linecap="round" stroke-linejoin="round"/>
</g>
<defs>
<clipPath id="clip0_5303_3443">
<rect width="24" height="24" fill="white"/>
</clipPath>
</defs>
</svg>
