<svg width="24" height="24" viewBox="0 0 24 24" fill="none" xmlns="http://www.w3.org/2000/svg">
<g clip-path="url(#clip0_5303_3562)">
<path d="M18.8887 4.82809C19.0681 5.00739 19.1688 5.25057 19.1689 5.50414V22.0408C19.1689 22.2944 19.0681 22.5376 18.8888 22.7169C18.7095 22.8962 18.4663 22.997 18.2127 22.997H1.95623C1.70265 22.997 1.45938 22.8962 1.28009 22.7169C1.1007 22.5376 1 22.2944 1 22.0408V1.95931C1 1.70564 1.1007 1.46246 1.28009 1.28308C1.45938 1.10378 1.70265 1.00299 1.95623 1.00299H14.6679C14.9214 1.00308 15.1646 1.10388 15.3439 1.28317L18.8887 4.82809Z" fill="#E3E3E3"/>
<path d="M17.8866 3.82587L15.3439 1.28317C15.1646 1.10388 14.9214 1.00308 14.6679 1.00299H1.95623C1.70265 1.00299 1.45938 1.10378 1.28009 1.28308C1.1007 1.46246 1 1.70564 1 1.95931V20.7115L17.8866 3.82587Z" fill="white"/>
<path d="M13.676 20.1282C14.8642 20.1282 15.8275 19.1649 15.8275 17.9766C15.8275 16.7884 14.8642 15.825 13.676 15.825C12.4879 15.825 11.5244 16.7884 11.5244 17.9766C11.5244 19.1649 12.4878 20.1282 13.676 20.1282Z" fill="#FFEF5E" stroke="#191919" stroke-linecap="round" stroke-linejoin="round"/>
<path d="M20.8484 22.997C22.0366 22.997 23 22.0337 23 20.8454C23 19.6571 22.0366 18.6938 20.8484 18.6938C19.6601 18.6938 18.6968 19.6571 18.6968 20.8454C18.6968 22.0337 19.6601 22.997 20.8484 22.997Z" fill="#FFEF5E" stroke="#191919" stroke-linecap="round" stroke-linejoin="round"/>
<path d="M20.8484 15.825C22.0366 15.825 23 14.8616 23 13.6735C23 12.4853 22.0366 11.5219 20.8484 11.5219C19.6601 11.5219 18.6968 12.4852 18.6968 13.6735C18.6968 14.8617 19.6601 15.825 20.8484 15.825Z" fill="#FFEF5E" stroke="#191919" stroke-linecap="round" stroke-linejoin="round"/>
<path d="M15.5171 16.8721L19.0074 14.7779" stroke="#191919" stroke-linecap="round" stroke-linejoin="round"/>
<path d="M15.6733 18.7751L18.8528 20.0469" stroke="#191919" stroke-linecap="round" stroke-linejoin="round"/>
<path d="M11.5252 22.997H1.96267C1.709 22.997 1.46582 22.8962 1.28643 22.7169C1.10714 22.5376 1.00635 22.2944 1.00635 22.0408V1.95931C1.00635 1.70564 1.10714 1.46246 1.28643 1.28308C1.46582 1.10378 1.709 1.00299 1.96258 1.00299H14.6751C14.9287 1.00308 15.1719 1.10388 15.3512 1.28317L18.8951 4.82809C19.0745 5.00739 19.1752 5.25057 19.1753 5.50414V8.6531" stroke="#191919" stroke-linecap="round" stroke-linejoin="round"/>
</g>
<defs>
<clipPath id="clip0_5303_3562">
<rect width="24" height="24" fill="white"/>
</clipPath>
</defs>
</svg>
