<svg width="24" height="24" viewBox="0 0 24 24" fill="none" xmlns="http://www.w3.org/2000/svg">
<g clip-path="url(#clip0_5303_3613)">
<path d="M18.8816 4.83085C19.0609 5.01009 19.1616 5.25314 19.1617 5.50668V22.0367C19.1617 22.2902 19.0609 22.5333 18.8817 22.7126C18.7025 22.8918 18.4593 22.9926 18.2058 22.9926H1.95588C1.70234 22.9926 1.4592 22.8918 1.27996 22.7126C1.10072 22.5334 1 22.2902 1 22.0367V1.96321C1 1.70976 1.10072 1.46662 1.27996 1.28729C1.4592 1.10805 1.70234 1.00732 1.95588 1.00732H14.6624C14.9158 1.00742 15.159 1.10814 15.3381 1.28747L18.8816 4.83085Z" fill="#E3E3E3"/>
<path d="M17.8798 3.82915L15.3381 1.28747C15.159 1.10814 14.9158 1.00742 14.6624 1.00732H1.95588C1.70234 1.00732 1.4592 1.10805 1.27996 1.28738C1.10072 1.46662 1 1.70976 1 1.96321V20.7081L17.8798 3.82915Z" fill="white"/>
<path d="M10.5588 22.9926H1.95588C1.70234 22.9926 1.4592 22.8918 1.27996 22.7126C1.10072 22.5334 1 22.2902 1 22.0367V1.96321C1 1.70976 1.10072 1.46662 1.27996 1.28729C1.4592 1.10805 1.70234 1.00732 1.95588 1.00732H14.6624C14.9158 1.00742 15.159 1.10814 15.3381 1.28747L18.8816 4.83085C19.0609 5.01009 19.1616 5.25314 19.1617 5.50668V8.65438" stroke="#191919" stroke-linecap="round" stroke-linejoin="round"/>
<path d="M17.2645 22.9926C18.3989 22.9926 19.5077 22.6562 20.4509 22.026C21.394 21.3958 22.1292 20.5002 22.5633 19.4522C22.9973 18.4041 23.1109 17.2509 22.8896 16.1384C22.6683 15.0259 22.1221 14.004 21.3199 13.2019C20.5179 12.3998 19.4959 11.8536 18.3834 11.6322C17.271 11.411 16.1178 11.5246 15.0698 11.9586C14.0217 12.3928 13.1261 13.1278 12.4959 14.071C11.8657 15.0142 11.5293 16.123 11.5293 17.2574C11.5293 18.7784 12.1334 20.2371 13.2092 21.3128C14.2847 22.3884 15.7434 22.9926 17.2645 22.9926Z" fill="#66E1FF"/>
<path d="M17.2643 11.522C16.0971 11.5211 14.9573 11.8767 13.9975 12.5412C13.0378 13.2057 12.304 14.1475 11.8942 15.2405C11.4842 16.3335 11.418 17.5255 11.7042 18.6573C11.9903 19.789 12.6152 20.8063 13.4953 21.5731L21.5801 13.4882C21.0433 12.8708 20.3804 12.3757 19.6359 12.0365C18.8912 11.6973 18.0824 11.5218 17.2643 11.522Z" fill="#C2F3FF"/>
<path d="M17.2645 22.9926C18.3989 22.9926 19.5077 22.6562 20.4509 22.026C21.394 21.3958 22.1292 20.5002 22.5633 19.4522C22.9973 18.4041 23.1109 17.2509 22.8896 16.1384C22.6683 15.0259 22.1221 14.004 21.3199 13.2019C20.5179 12.3998 19.4959 11.8536 18.3834 11.6322C17.271 11.411 16.1178 11.5246 15.0698 11.9586C14.0217 12.3928 13.1261 13.1278 12.4959 14.071C11.8657 15.0142 11.5293 16.123 11.5293 17.2574C11.5293 18.7784 12.1334 20.2371 13.2092 21.3128C14.2847 22.3884 15.7434 22.9926 17.2645 22.9926Z" stroke="#191919" stroke-linecap="round" stroke-linejoin="round"/>
<path d="M17.2651 20.1298V14.3945" stroke="#191919" stroke-linecap="round" stroke-linejoin="round"/>
<path d="M17.2645 14.3945L15.1138 16.5452" stroke="#191919" stroke-linecap="round" stroke-linejoin="round"/>
<path d="M17.2651 14.3945L19.4159 16.5452" stroke="#191919" stroke-linecap="round" stroke-linejoin="round"/>
</g>
<defs>
<clipPath id="clip0_5303_3613">
<rect width="24" height="24" fill="white"/>
</clipPath>
</defs>
</svg>
