<svg width="24" height="24" viewBox="0 0 24 24" fill="none" xmlns="http://www.w3.org/2000/svg">
<g clip-path="url(#clip0_5303_5557)">
<path d="M17.2605 1H6.73875C6.48506 1 6.24177 1.10078 6.06239 1.28016C5.883 1.45954 5.78223 1.70284 5.78223 1.95652V22.0435C5.78223 22.2972 5.883 22.5405 6.06239 22.7198C6.24177 22.8992 6.48506 23 6.73875 23H17.2605C17.5142 23 17.7575 22.8992 17.9369 22.7198C18.1162 22.5405 18.217 22.2972 18.217 22.0435V1.95652C18.217 1.70284 18.1162 1.45954 17.9369 1.28016C17.7575 1.10078 17.5142 1 17.2605 1Z" fill="#E3E3E3"/>
<path d="M11.9996 1H6.73875C6.61314 1 6.48875 1.02474 6.3727 1.07281C6.25665 1.12088 6.15121 1.19134 6.06239 1.28016C5.97356 1.36898 5.90311 1.47443 5.85504 1.59048C5.80697 1.70653 5.78223 1.83091 5.78223 1.95652V22.0435C5.78223 22.1691 5.80697 22.2935 5.85504 22.4095C5.90311 22.5256 5.97356 22.631 6.06239 22.7198C6.15121 22.8087 6.25665 22.8791 6.3727 22.9272C6.48875 22.9753 6.61314 23 6.73875 23H11.9996V1Z" fill="white"/>
<path d="M17.2605 1H6.73875C6.48506 1 6.24177 1.10078 6.06239 1.28016C5.883 1.45954 5.78223 1.70284 5.78223 1.95652V22.0435C5.78223 22.2972 5.883 22.5405 6.06239 22.7198C6.24177 22.8992 6.48506 23 6.73875 23H17.2605C17.5142 23 17.7575 22.8992 17.9369 22.7198C18.1162 22.5405 18.217 22.2972 18.217 22.0435V1.95652C18.217 1.70284 18.1162 1.45954 17.9369 1.28016C17.7575 1.10078 17.5142 1 17.2605 1Z" stroke="#191919" stroke-linecap="round" stroke-linejoin="round"/>
<path d="M16.304 21.087H13.4344L11.9997 19.6522L10.5649 21.087H7.69531V2.91309H10.5649L11.9997 4.34787L13.4344 2.91309H16.304V21.087Z" fill="#808080"/>
<path d="M11.9997 19.6522L10.5649 21.087H7.69531V2.91309H10.5649L11.9997 4.34787V19.6522Z" fill="#B2B2B2"/>
<path d="M18.2172 4.82613H20.6085M18.2172 7.69569H20.6085M18.2172 10.5653H20.6085M18.2172 13.4348H20.6085M18.2172 16.3044H20.6085M18.2172 19.174H20.6085M3.39111 4.82613H5.78242M3.39111 7.69569H5.78242M3.39111 10.5653H5.78242M3.39111 13.4348H5.78242M3.39111 16.3044H5.78242M3.39111 19.174H5.78242M16.3042 21.087H13.4346L11.9998 19.6522L10.565 21.087H7.69546V2.91309H10.565L11.9998 4.34787L13.4346 2.91309H16.3042V21.087Z" stroke="#191919" stroke-linecap="round" stroke-linejoin="round"/>
</g>
<defs>
<clipPath id="clip0_5303_5557">
<rect width="24" height="24" fill="white"/>
</clipPath>
</defs>
</svg>
