<svg width="24" height="24" viewBox="0 0 24 24" fill="none" xmlns="http://www.w3.org/2000/svg">
<g clip-path="url(#clip0_5303_10679)">
<path d="M19.1739 4.82556H4.82609C3.81135 4.82556 2.83817 5.22866 2.12063 5.94619C1.4031 6.66372 1 7.6369 1 8.65164V15.3473C1 15.8498 1.09896 16.3473 1.29124 16.8115C1.48352 17.2757 1.76535 17.6975 2.12063 18.0528C2.83817 18.7703 3.81135 19.1734 4.82609 19.1734H19.1739C19.6764 19.1734 20.1739 19.0745 20.6381 18.8822C21.1023 18.6899 21.5241 18.4081 21.8794 18.0528C22.2346 17.6975 22.5165 17.2757 22.7088 16.8115C22.901 16.3473 23 15.8498 23 15.3473V8.65164C23 7.6369 22.5969 6.66372 21.8794 5.94619C21.1618 5.22866 20.1887 4.82556 19.1739 4.82556Z" fill="#66E1FF"/>
<path d="M4.82609 4.82556C3.81135 4.82556 2.83817 5.22866 2.12063 5.94619C1.4031 6.66372 1 7.6369 1 8.65164V15.3473C1.00188 16.3184 1.37381 17.2522 2.04005 17.9586C2.7063 18.665 3.61675 19.0909 4.586 19.1495L18.9099 4.82556H4.82609Z" fill="#C2F3FF"/>
<path d="M19.1739 4.82556H4.82609C3.81135 4.82556 2.83817 5.22866 2.12063 5.94619C1.4031 6.66372 1 7.6369 1 8.65164V15.3473C1 15.8498 1.09896 16.3473 1.29124 16.8115C1.48352 17.2757 1.76535 17.6975 2.12063 18.0528C2.83817 18.7703 3.81135 19.1734 4.82609 19.1734H19.1739C19.6764 19.1734 20.1739 19.0745 20.6381 18.8822C21.1023 18.6899 21.5241 18.4081 21.8794 18.0528C22.2346 17.6975 22.5165 17.2757 22.7088 16.8115C22.901 16.3473 23 15.8498 23 15.3473V8.65164C23 7.6369 22.5969 6.66372 21.8794 5.94619C21.1618 5.22866 20.1887 4.82556 19.1739 4.82556Z" stroke="#191919" stroke-linecap="round" stroke-linejoin="round"/>
<path d="M5.78223 19.1734C5.7918 18.2855 5.97541 17.4081 6.32266 16.5908C6.70527 15.8256 8.29597 15.2995 10.2951 14.5592C10.8355 14.3593 10.7466 12.9484 10.5074 12.6844C10.1264 12.2715 9.83696 11.7827 9.6581 11.2501C9.47925 10.7175 9.41501 10.1531 9.46962 9.59386C9.43536 9.23761 9.47484 8.87813 9.58558 8.5378C9.69633 8.19747 9.87598 7.8836 10.1133 7.61574C10.3507 7.34787 10.6407 7.13176 10.9652 6.98086C11.2897 6.82996 11.6418 6.74751 11.9996 6.73865C12.3574 6.74765 12.7094 6.83019 13.0339 6.98114C13.3583 7.13208 13.6482 7.3482 13.8856 7.61603C14.1229 7.88386 14.3026 8.19768 14.4134 8.53795C14.5242 8.87821 14.5637 9.23764 14.5296 9.59386C14.5844 10.1532 14.5202 10.7178 14.3413 11.2506C14.1625 11.7834 13.873 12.2723 13.4918 12.6853C13.2527 12.9493 13.1637 14.3602 13.7041 14.5601C15.7033 15.3005 17.2949 15.8294 17.6766 16.5918C18.0238 17.409 18.2074 18.2865 18.217 19.1744L5.78223 19.1734Z" fill="white"/>
<path d="M5.78223 19.1734C5.7918 18.2855 5.97541 17.4081 6.32266 16.5908C6.70527 15.8256 8.29597 15.2995 10.2951 14.5592C10.8355 14.3593 10.7466 12.9484 10.5074 12.6844C10.1264 12.2715 9.83696 11.7827 9.6581 11.2501C9.47925 10.7175 9.41501 10.1531 9.46962 9.59386C9.43536 9.23761 9.47484 8.87813 9.58558 8.5378C9.69633 8.19747 9.87598 7.8836 10.1133 7.61574C10.3507 7.34787 10.6407 7.13176 10.9652 6.98086C11.2897 6.82996 11.6418 6.74751 11.9996 6.73865C12.3574 6.74765 12.7094 6.83019 13.0339 6.98114C13.3583 7.13208 13.6482 7.3482 13.8856 7.61603C14.1229 7.88386 14.3026 8.19768 14.4134 8.53795C14.5242 8.87821 14.5637 9.23764 14.5296 9.59386C14.5844 10.1532 14.5202 10.7178 14.3413 11.2506C14.1625 11.7834 13.873 12.2723 13.4918 12.6853C13.2527 12.9493 13.1637 14.3602 13.7041 14.5601C15.7033 15.3005 17.2949 15.8294 17.6766 16.5918C18.0238 17.409 18.2074 18.2865 18.217 19.1744L5.78223 19.1734Z" stroke="#191919" stroke-linecap="round" stroke-linejoin="round"/>
</g>
<defs>
<clipPath id="clip0_5303_10679">
<rect width="24" height="24" fill="white"/>
</clipPath>
</defs>
</svg>
