<svg width="24" height="24" viewBox="0 0 24 24" fill="none" xmlns="http://www.w3.org/2000/svg">
<g clip-path="url(#clip0_5303_9479)">
<mask id="mask0_5303_9479" style="mask-type:luminance" maskUnits="userSpaceOnUse" x="0" y="0" width="24" height="24">
<path d="M0 0H24V24H0V0Z" fill="white"/>
</mask>
<g mask="url(#mask0_5303_9479)">
<path d="M11.9998 22.9999C18.0746 22.9999 22.9996 18.0748 22.9996 12.0001C22.9996 5.92529 18.0746 1.00024 11.9998 1.00024C5.92505 1.00024 1 5.92529 1 12.0001C1 18.0748 5.92505 22.9999 11.9998 22.9999Z" fill="#66E1FF"/>
<path d="M4.22188 19.7785C2.15894 17.7155 1 14.9176 1 12.0002C1 9.08275 2.15894 6.28481 4.22188 4.22188C6.28481 2.15894 9.08275 1 12.0002 1C14.9176 1 17.7155 2.15894 19.7785 4.22188L4.22188 19.7785Z" fill="#C2F3FF"/>
<path d="M11.9998 22.9999C18.0746 22.9999 22.9996 18.0748 22.9996 12.0001C22.9996 5.92529 18.0746 1.00024 11.9998 1.00024C5.92505 1.00024 1 5.92529 1 12.0001C1 18.0748 5.92505 22.9999 11.9998 22.9999Z" stroke="#191919" stroke-linecap="round" stroke-linejoin="round"/>
<path d="M14.8389 13.5698C14.6448 14.0356 14.2745 14.4059 13.8087 14.6L7.42116 17.261C7.33556 17.2964 7.2415 17.3063 7.15041 17.2893C7.05932 17.2723 6.97512 17.2293 6.90805 17.1653C6.84097 17.1014 6.79392 17.0194 6.7726 16.9292C6.75128 16.839 6.75661 16.7446 6.78795 16.6574L9.15913 10.0719C9.25424 9.80788 9.40643 9.56815 9.60483 9.36975C9.80323 9.17135 10.043 9.01916 10.3069 8.92405L16.8973 6.54809C16.9845 6.51675 17.0789 6.51141 17.1691 6.53273C17.2592 6.55405 17.3413 6.60111 17.4052 6.66818C17.4691 6.73525 17.5122 6.81945 17.5292 6.91055C17.5461 7.00164 17.5363 7.0957 17.5008 7.1813L14.8389 13.5698Z" fill="#FFEF5E"/>
<path d="M6.90741 17.1653C6.84025 17.1013 6.79319 17.019 6.77196 16.9287C6.75073 16.8383 6.75625 16.7437 6.78785 16.6565L9.15902 10.0719C9.25414 9.80789 9.40632 9.56816 9.60472 9.36975C9.80313 9.17135 10.0429 9.01917 10.3068 8.92405L16.8972 6.54809C16.9844 6.5165 17.079 6.51098 17.1694 6.53221C17.2597 6.55344 17.3419 6.6005 17.406 6.66766L6.90741 17.1653Z" fill="#FFF9BF"/>
<path d="M14.8389 13.5698C14.6448 14.0356 14.2745 14.4059 13.8087 14.6L7.42116 17.261C7.33556 17.2964 7.2415 17.3063 7.15041 17.2893C7.05932 17.2723 6.97512 17.2293 6.90805 17.1653C6.84097 17.1014 6.79392 17.0194 6.7726 16.9292C6.75128 16.839 6.75661 16.7446 6.78795 16.6574L9.15913 10.0719C9.25424 9.80788 9.40643 9.56815 9.60483 9.36975C9.80323 9.17135 10.043 9.01916 10.3069 8.92405L16.8973 6.54809C16.9845 6.51675 17.0789 6.51141 17.1691 6.53273C17.2592 6.55405 17.3413 6.60111 17.4052 6.66818C17.4691 6.73525 17.5122 6.81945 17.5292 6.91055C17.5461 7.00164 17.5363 7.0957 17.5008 7.1813L14.8389 13.5698Z" stroke="#191919" stroke-linecap="round" stroke-linejoin="round"/>
<path d="M11.9997 13.4349C12.3802 13.4349 12.7452 13.2838 13.0142 13.0147C13.2833 12.7456 13.4345 12.3807 13.4345 12.0002C13.4345 11.6197 13.2833 11.2547 13.0142 10.9857C12.7452 10.7166 12.3802 10.5654 11.9997 10.5654C11.6192 10.5654 11.2542 10.7166 10.9852 10.9857C10.7161 11.2547 10.5649 11.6197 10.5649 12.0002C10.5649 12.3807 10.7161 12.7456 10.9852 13.0147C11.2542 13.2838 11.6192 13.4349 11.9997 13.4349Z" fill="#808080" stroke="#191919" stroke-linecap="round" stroke-linejoin="round"/>
<path d="M12 2.91339V3.8699" stroke="#191919" stroke-linecap="round" stroke-linejoin="round"/>
<path d="M21.0864 12.0002H20.1299" stroke="#191919" stroke-linecap="round" stroke-linejoin="round"/>
<path d="M18.4257 18.426L17.7485 17.7488" stroke="#191919" stroke-linecap="round" stroke-linejoin="round"/>
<path d="M12 21.087V20.1305" stroke="#191919" stroke-linecap="round" stroke-linejoin="round"/>
<path d="M2.91309 12.0002H3.86959" stroke="#191919" stroke-linecap="round" stroke-linejoin="round"/>
<path d="M5.57422 5.5744L6.25142 6.2516" stroke="#191919" stroke-linecap="round" stroke-linejoin="round"/>
</g>
</g>
<defs>
<clipPath id="clip0_5303_9479">
<rect width="24" height="24" fill="white"/>
</clipPath>
</defs>
</svg>
