<svg width="24" height="24" viewBox="0 0 24 24" fill="none" xmlns="http://www.w3.org/2000/svg">
<g clip-path="url(#clip0_5303_9466)">
<mask id="mask0_5303_9466" style="mask-type:luminance" maskUnits="userSpaceOnUse" x="0" y="0" width="24" height="24">
<path d="M0 0H24V24H0V0Z" fill="white"/>
</mask>
<g mask="url(#mask0_5303_9466)">
<path d="M11.9998 22.9999C18.0746 22.9999 22.9996 18.0748 22.9996 12.0001C22.9996 5.92529 18.0746 1.00024 11.9998 1.00024C5.92505 1.00024 1 5.92529 1 12.0001C1 18.0748 5.92505 22.9999 11.9998 22.9999Z" fill="#66E1FF"/>
<path d="M4.22188 19.7785C2.15894 17.7155 1 14.9176 1 12.0002C1 9.08275 2.15894 6.28481 4.22188 4.22188C6.28481 2.15894 9.08275 1 12.0002 1C14.9176 1 17.7155 2.15894 19.7785 4.22188L4.22188 19.7785Z" fill="#C2F3FF"/>
<path d="M14.3905 14.3915L9.60799 9.60895L6.69735 16.6775C6.66127 16.7648 6.65189 16.8609 6.67037 16.9536C6.68886 17.0463 6.73438 17.1314 6.80121 17.1982C6.86803 17.2651 6.95316 17.3106 7.04584 17.3291C7.13852 17.3476 7.2346 17.3382 7.32195 17.3021L14.3905 14.3915Z" fill="#FF808C"/>
<path d="M9.60776 9.60895L6.69712 16.6775C6.66118 16.7648 6.6519 16.8609 6.67045 16.9535C6.68901 17.0461 6.73456 17.1311 6.80138 17.1978L11.999 12.0002L9.60776 9.60895Z" fill="#FFBFC5"/>
<path d="M11.9998 22.9999C18.0746 22.9999 22.9996 18.0748 22.9996 12.0001C22.9996 5.92529 18.0746 1.00024 11.9998 1.00024C5.92505 1.00024 1 5.92529 1 12.0001C1 18.0748 5.92505 22.9999 11.9998 22.9999Z" stroke="#191919" stroke-linecap="round" stroke-linejoin="round"/>
<path d="M9.6084 9.60891L16.677 6.69826C16.7643 6.66218 16.8604 6.6528 16.9531 6.67128C17.0458 6.68977 17.1309 6.7353 17.1977 6.80212C17.2645 6.86895 17.3101 6.95407 17.3285 7.04675C17.347 7.13943 17.3376 7.23551 17.3016 7.32286L14.3909 14.3915L9.6084 9.60891Z" fill="white"/>
<path d="M9.6084 9.60891L16.677 6.69826C16.7643 6.66218 16.8604 6.6528 16.9531 6.67128C17.0458 6.68977 17.1309 6.7353 17.1977 6.80212C17.2645 6.86895 17.3101 6.95407 17.3285 7.04675C17.347 7.13943 17.3376 7.23551 17.3016 7.32286L14.3909 14.3915L9.6084 9.60891Z" stroke="#191919" stroke-linecap="round" stroke-linejoin="round"/>
<path d="M14.3905 14.3915L9.60799 9.60895L6.69735 16.6775C6.66127 16.7648 6.65189 16.8609 6.67037 16.9536C6.68886 17.0463 6.73438 17.1314 6.80121 17.1982C6.86803 17.2651 6.95316 17.3106 7.04584 17.3291C7.13852 17.3476 7.2346 17.3382 7.32195 17.3021L14.3905 14.3915Z" stroke="#191919" stroke-linecap="round" stroke-linejoin="round"/>
</g>
</g>
<defs>
<clipPath id="clip0_5303_9466">
<rect width="24" height="24" fill="white"/>
</clipPath>
</defs>
</svg>
