<svg width="24" height="24" viewBox="0 0 24 24" fill="none" xmlns="http://www.w3.org/2000/svg">
<g clip-path="url(#clip0_5303_12738)">
<path d="M22.0435 3.86957H1.95654V20.1304H22.0435V3.86957Z" fill="#FFF9BF"/>
<path d="M22.0435 3.86957H1.95654V5.78261H22.0435V3.86957Z" fill="#FFEF5E"/>
<path d="M23 20.1304H1V23H23V20.1304Z" fill="#808080"/>
<path d="M1.95652 1H22.0435C22.2972 1 22.5405 1.10078 22.7198 1.28016C22.8992 1.45954 23 1.70284 23 1.95652V3.3913C23 3.51815 22.9496 3.63979 22.8599 3.72949C22.7702 3.81918 22.6486 3.86957 22.5217 3.86957H1.47826C1.35142 3.86957 1.22977 3.81918 1.14008 3.72949C1.05039 3.63979 1 3.51815 1 3.3913V1.95652C1 1.70284 1.10078 1.45954 1.28016 1.28016C1.45954 1.10078 1.70284 1 1.95652 1Z" fill="#E3E3E3" stroke="#191919" stroke-linecap="round" stroke-linejoin="round"/>
<path d="M1.36914 1.20183L6.26079 3.86957L11.9999 1L17.7391 3.86957L22.6307 1.20183" stroke="#191919" stroke-linecap="round" stroke-linejoin="round"/>
<path d="M23 20.1304H1" stroke="#191919" stroke-linecap="round" stroke-linejoin="round"/>
<path d="M23 23H1" stroke="#191919" stroke-linecap="round" stroke-linejoin="round"/>
<path d="M1.95654 3.86957V20.1304" stroke="#191919" stroke-linecap="round" stroke-linejoin="round"/>
<path d="M22.0435 4.34784V20.1304" stroke="#191919" stroke-linecap="round" stroke-linejoin="round"/>
<path d="M12 4.82611C12.2537 4.82611 12.497 4.92688 12.6763 5.10627C12.8557 5.28565 12.9565 5.52894 12.9565 5.78263V7.21741C12.9565 7.34426 12.9061 7.4659 12.8164 7.55559C12.7267 7.64529 12.6051 7.69567 12.4782 7.69567H11.5217C11.3949 7.69567 11.2732 7.64529 11.1835 7.55559C11.0938 7.4659 11.0435 7.34426 11.0435 7.21741V5.78263C11.0435 5.52894 11.1442 5.28565 11.3236 5.10627C11.503 4.92688 11.7463 4.82611 12 4.82611Z" fill="#808080" stroke="#191919" stroke-linecap="round" stroke-linejoin="round"/>
<path d="M19.3729 5.10634C19.5522 5.28571 19.6529 5.52896 19.6529 5.7826C19.6529 6.03623 19.5522 6.27949 19.3729 6.45886L18.0204 7.81042C17.9307 7.90008 17.809 7.95045 17.6822 7.95045C17.5554 7.95045 17.4338 7.90008 17.3441 7.81042L16.6669 7.13416C16.5772 7.04448 16.5269 6.92285 16.5269 6.79603C16.5269 6.66922 16.5772 6.54759 16.6669 6.4579L18.0204 5.10538C18.1997 4.92606 18.443 4.82532 18.6966 4.82532C18.9503 4.82532 19.1935 4.92702 19.3729 5.10634Z" fill="#808080" stroke="#191919" stroke-linecap="round" stroke-linejoin="round"/>
<path d="M7.33363 7.13511L6.65737 7.81137C6.56768 7.90103 6.44606 7.9514 6.31924 7.9514C6.19242 7.9514 6.0708 7.90103 5.98111 7.81137L4.62763 6.45885C4.44828 6.27937 4.34757 6.03599 4.34766 5.78225C4.34775 5.52851 4.44863 5.28521 4.62811 5.10585C4.80759 4.92649 5.05097 4.82578 5.30471 4.82587C5.55845 4.82596 5.80176 4.92685 5.98111 5.10633L7.33363 6.45885C7.42329 6.54854 7.47366 6.67016 7.47366 6.79698C7.47366 6.9238 7.42329 7.04542 7.33363 7.13511Z" fill="#808080" stroke="#191919" stroke-linecap="round" stroke-linejoin="round"/>
<path d="M14.3911 17.7391V11.7609" stroke="#191919" stroke-linecap="round" stroke-linejoin="round"/>
<path d="M12.8564 10.9928L15.8264 12.4783" stroke="#191919" stroke-linecap="round" stroke-linejoin="round"/>
<path d="M12 11.5217C12.2537 11.5217 12.497 11.421 12.6763 11.2416C12.8557 11.0622 12.9565 10.8189 12.9565 10.5652C12.9565 10.3115 12.8557 10.0682 12.6763 9.88885C12.497 9.70947 12.2537 9.6087 12 9.6087C11.7463 9.6087 11.503 9.70947 11.3236 9.88885C11.1442 10.0682 11.0435 10.3115 11.0435 10.5652C11.0435 10.8189 11.1442 11.0622 11.3236 11.2416C11.503 11.421 11.7463 11.5217 12 11.5217Z" fill="#808080" stroke="#191919" stroke-linecap="round" stroke-linejoin="round"/>
<path d="M12.478 19.1739L14.3911 17.7391" stroke="#191919" stroke-linecap="round" stroke-linejoin="round"/>
<path d="M16.3042 19.1739L14.3911 17.7391" stroke="#191919" stroke-linecap="round" stroke-linejoin="round"/>
</g>
<defs>
<clipPath id="clip0_5303_12738">
<rect width="24" height="24" fill="white"/>
</clipPath>
</defs>
</svg>
