<svg width="24" height="24" viewBox="0 0 24 24" fill="none" xmlns="http://www.w3.org/2000/svg">
<g clip-path="url(#clip0_5303_12391)">
<path d="M22.9583 21.7809L21.5921 17.0004C21.5349 16.8006 21.4141 16.6248 21.2482 16.4998C21.0822 16.3746 20.8801 16.3071 20.6723 16.3072H3.32634C3.11854 16.3071 2.91641 16.3746 2.75039 16.4998C2.58446 16.6248 2.46373 16.8006 2.40663 17.0004L1.04127 21.7809C1.00057 21.9233 0.993442 22.073 1.02048 22.2185C1.04751 22.364 1.10793 22.5012 1.19694 22.6194C1.28606 22.7375 1.40132 22.8335 1.53377 22.8995C1.66612 22.9655 1.81213 22.9999 1.9601 23H22.0385C22.1867 23.0001 22.3326 22.9657 22.4651 22.8998C22.5978 22.8339 22.7131 22.7379 22.8022 22.6197C22.8914 22.5015 22.952 22.3643 22.9791 22.2188C23.0061 22.0732 22.999 21.9233 22.9583 21.7809Z" fill="#E3E3E3"/>
<path d="M21.9434 18.2194L21.5953 17.0004C21.5381 16.8006 21.4175 16.6248 21.2514 16.4998C21.0855 16.3747 20.8834 16.3071 20.6755 16.3072H3.32674C3.11895 16.3071 2.91681 16.3747 2.75079 16.4998C2.58487 16.6248 2.46413 16.8006 2.40703 17.0004L2.05615 18.2194H21.9434Z" fill="white"/>
<path d="M22.9583 21.7809L21.5921 17.0004C21.5349 16.8006 21.4141 16.6248 21.2482 16.4998C21.0822 16.3746 20.8801 16.3071 20.6723 16.3072H3.32634C3.11854 16.3071 2.91641 16.3746 2.75039 16.4998C2.58446 16.6248 2.46373 16.8006 2.40663 17.0004L1.04127 21.7809C1.00057 21.9233 0.993442 22.073 1.02048 22.2185C1.04751 22.364 1.10793 22.5012 1.19694 22.6194C1.28606 22.7375 1.40132 22.8335 1.53377 22.8995C1.66612 22.9655 1.81213 22.9999 1.9601 23H22.0385C22.1867 23.0001 22.3326 22.9657 22.4651 22.8998C22.5978 22.8339 22.7131 22.7379 22.8022 22.6197C22.8914 22.5015 22.952 22.3643 22.9791 22.2188C23.0061 22.0732 22.999 21.9233 22.9583 21.7809Z" stroke="#191919" stroke-linecap="round" stroke-linejoin="round"/>
<path d="M7.22866 21.0878C8.54884 21.0878 9.61895 20.4456 9.61895 19.6536C9.61895 18.8616 8.54874 18.2194 7.22866 18.2194C5.90859 18.2194 4.83838 18.8616 4.83838 19.6536C4.83838 20.4456 5.90859 21.0878 7.22866 21.0878Z" fill="#808080" stroke="#191919" stroke-linecap="round" stroke-linejoin="round"/>
<path d="M16.7799 21.0878C18.1001 21.0878 19.1702 20.4456 19.1702 19.6536C19.1702 18.8616 18.1 18.2194 16.7799 18.2194C15.4599 18.2194 14.3896 18.8616 14.3896 19.6536C14.3896 20.4456 15.4599 21.0878 16.7799 21.0878Z" fill="#808080" stroke="#191919" stroke-linecap="round" stroke-linejoin="round"/>
<path d="M11.9997 9.61437C13.3198 9.61437 14.3899 8.54416 14.3899 7.22408C14.3899 5.90401 13.3197 4.8338 11.9997 4.8338C10.6796 4.8338 9.60938 5.90391 9.60938 7.22408C9.60938 8.54426 10.6796 9.61437 11.9997 9.61437Z" fill="#FFBC44" stroke="#191919" stroke-linecap="round" stroke-linejoin="round"/>
<path d="M7.69727 4.83373C7.72381 4.29848 7.85685 3.77386 8.08846 3.29054C8.32007 2.80731 8.64567 2.37493 9.04623 2.01887C9.44679 1.66282 9.91431 1.39021 10.4214 1.21687C10.9286 1.04353 11.4651 0.972964 11.9998 1.00927C12.5344 0.973062 13.0711 1.04372 13.578 1.21716C14.0851 1.39051 14.5526 1.66321 14.9531 2.01926C15.3537 2.37522 15.6792 2.8075 15.9109 3.29073C16.1425 3.77396 16.2756 4.29857 16.3023 4.83373" stroke="#191919" stroke-linecap="round" stroke-linejoin="round"/>
<path d="M16.3022 4.8338H17.2976C17.8047 4.8338 18.2911 5.03525 18.6497 5.39384C19.0084 5.75243 19.2098 6.23888 19.2098 6.74603C19.2098 7.25317 19.0084 7.73952 18.6497 8.09811C18.2911 8.4568 17.8047 8.65826 17.2976 8.65826H16.3022V4.8338Z" fill="#808080"/>
<path d="M16.3022 4.8338H17.2976C17.7996 4.83907 18.2788 5.04345 18.6301 5.40204C18.9813 5.76063 19.1757 6.24406 19.1706 6.74603H16.3022V4.8338Z" fill="#B2B2B2"/>
<path d="M7.69713 4.8338H6.70178C6.19464 4.8338 5.70828 5.03525 5.34969 5.39384C4.991 5.75243 4.78955 6.23888 4.78955 6.74603C4.78955 7.25317 4.991 7.73952 5.34969 8.09811C5.70828 8.4568 6.19464 8.65826 6.70178 8.65826H7.69713V4.8338Z" fill="#808080"/>
<path d="M7.69705 4.8338H6.7017C6.19983 4.83907 5.7205 5.04345 5.36933 5.40204C5.01806 5.76063 4.82363 6.24406 4.82871 6.74603H7.69705V4.8338Z" fill="#B2B2B2"/>
<path d="M7.69727 14.4151C7.81507 13.6119 8.21807 12.878 8.83258 12.3477C9.44708 11.8173 10.2319 11.5258 11.0437 11.5266H12.9559C13.7676 11.526 14.5523 11.8176 15.1668 12.3479C15.7812 12.8782 16.1843 13.612 16.3023 14.4151" fill="#66E1FF"/>
<path d="M7.69727 14.4151C7.81507 13.6119 8.21807 12.878 8.83258 12.3477C9.44708 11.8173 10.2319 11.5258 11.0437 11.5266H12.9559C13.7676 11.526 14.5523 11.8176 15.1668 12.3479C15.7812 12.8782 16.1843 13.612 16.3023 14.4151" stroke="#191919" stroke-linecap="round" stroke-linejoin="round"/>
<path d="M16.3022 4.8338H17.2584C17.7655 4.8338 18.2519 5.03525 18.6105 5.39384C18.9691 5.75243 19.1706 6.23888 19.1706 6.74603C19.1706 7.25317 18.9691 7.73952 18.6105 8.09811C18.2519 8.4568 17.7655 8.65826 17.2584 8.65826H16.3022V4.8338Z" stroke="#191919" stroke-linecap="round" stroke-linejoin="round"/>
<path d="M7.69713 4.8338H6.70178C6.19464 4.8338 5.70828 5.03525 5.34969 5.39384C4.991 5.75243 4.78955 6.23888 4.78955 6.74603C4.78955 7.25317 4.991 7.73952 5.34969 8.09811C5.70828 8.4568 6.19464 8.65826 6.70178 8.65826H7.69713V4.8338Z" stroke="#191919" stroke-linecap="round" stroke-linejoin="round"/>
</g>
<defs>
<clipPath id="clip0_5303_12391">
<rect width="24" height="24" fill="white"/>
</clipPath>
</defs>
</svg>
