<svg width="24" height="24" viewBox="0 0 24 24" fill="none" xmlns="http://www.w3.org/2000/svg">
<g clip-path="url(#clip0_5303_12514)">
<path d="M18.6825 3.86957C18.302 3.86957 17.937 4.02073 17.6679 4.2898C17.3988 4.55887 17.2477 4.92382 17.2477 5.30435V8.65217C17.2477 8.39849 17.1469 8.15519 16.9675 7.97581C16.7882 7.79643 16.5448 7.69565 16.2912 7.69565H15.3346C15.081 7.69565 14.8376 7.79643 14.6583 7.97581C14.4789 8.15519 14.3781 8.39849 14.3781 8.65217C14.3781 8.39849 14.2773 8.15519 14.098 7.97581C13.9186 7.79643 13.6753 7.69565 13.4216 7.69565H12.4651C12.2114 7.69565 11.9681 7.79643 11.7887 7.97581C11.6094 8.15519 11.5086 8.39849 11.5086 8.65217V2.43478C11.5086 2.05426 11.3574 1.68931 11.0884 1.42024C10.8193 1.15116 10.4543 1 10.0738 1C9.69325 1 9.3283 1.15116 9.05923 1.42024C8.79016 1.68931 8.639 2.05426 8.639 2.43478V12L5.76943 9.03478C5.55674 8.8559 5.28637 8.76027 5.00851 8.76563C4.73065 8.77099 4.46416 8.87698 4.25853 9.06392C4.05289 9.25086 3.92206 9.50607 3.89032 9.78216C3.85859 10.0583 3.9281 10.3365 4.08595 10.5652C4.08595 10.5652 6.45908 14.3617 8.10334 16.9538C8.40263 17.4201 8.78141 17.8304 9.22247 18.1657C9.33891 18.2552 9.43322 18.3701 9.49807 18.5019C9.56292 18.6336 9.5966 18.7784 9.59647 18.9252V19.1739H18.2052V18.6708C18.2053 18.5357 18.234 18.4023 18.2893 18.2791C18.3447 18.156 18.4256 18.0459 18.5266 17.9563C19.0297 17.5091 19.4318 16.9599 19.706 16.3452C19.9804 15.7305 20.1205 15.0644 20.1173 14.3913V5.30435C20.1173 4.92382 19.9661 4.55887 19.6971 4.2898C19.428 4.02073 19.063 3.86957 18.6825 3.86957Z" fill="#FFDDA1"/>
<path d="M12.4648 7.69568C12.2112 7.69568 11.9678 7.79646 11.7885 7.97584C11.6091 8.15522 11.5083 8.39852 11.5083 8.6522V12C11.5083 12.3805 11.6594 12.7455 11.9285 13.0146C12.1976 13.2837 12.5626 13.4348 12.9431 13.4348C13.3236 13.4348 13.6886 13.2837 13.9577 13.0146C14.2267 12.7455 14.3779 12.3805 14.3779 12V8.6522C14.3779 8.39852 14.277 8.15522 14.0977 7.97584C13.9184 7.79646 13.675 7.69568 13.4213 7.69568H12.4648Z" stroke="#191919" stroke-linecap="round" stroke-linejoin="round"/>
<path d="M15.334 7.69568C15.0803 7.69568 14.837 7.79646 14.6576 7.97584C14.4783 8.15522 14.3774 8.39852 14.3774 8.6522V12C14.3774 12.3805 14.5286 12.7455 14.7976 13.0146C15.0667 13.2837 15.4317 13.4348 15.8122 13.4348C16.1927 13.4348 16.5577 13.2837 16.8268 13.0146C17.0959 12.7455 17.247 12.3805 17.247 12V8.6522C17.247 8.39852 17.1462 8.15522 16.9668 7.97584C16.7875 7.79646 16.5442 7.69568 16.2905 7.69568H15.334Z" stroke="#191919" stroke-linecap="round" stroke-linejoin="round"/>
<path d="M18.2036 19.1739V18.6708C18.2037 18.5357 18.2324 18.4023 18.2878 18.2791C18.3431 18.156 18.424 18.0459 18.525 17.9563C19.0283 17.5092 19.4305 16.96 19.705 16.3453C19.9795 15.7306 20.1198 15.0645 20.1166 14.3913V5.30435C20.1166 4.92383 19.9655 4.55887 19.6964 4.2898C19.4274 4.02073 19.0624 3.86957 18.6819 3.86957C18.3013 3.86957 17.9363 4.02073 17.6673 4.2898C17.3982 4.55887 17.2471 4.92383 17.2471 5.30435V9.6087" stroke="#191919" stroke-linecap="round" stroke-linejoin="round"/>
<path d="M11.5086 8.65217V2.43478C11.5086 2.05426 11.3574 1.68931 11.0884 1.42024C10.8193 1.15116 10.4543 1 10.0738 1C9.69325 1 9.3283 1.15116 9.05923 1.42024C8.79016 1.68931 8.639 2.05426 8.639 2.43478V12L5.76943 9.03478C5.55674 8.8559 5.28637 8.76027 5.00851 8.76563C4.73065 8.77099 4.46416 8.87698 4.25853 9.06392C4.05289 9.25086 3.92206 9.50607 3.89032 9.78216C3.85859 10.0583 3.9281 10.3365 4.08595 10.5652C4.08595 10.5652 6.45908 14.3617 8.10334 16.9538C8.40239 17.42 8.78122 17.83 9.22247 18.1648C9.33905 18.2543 9.43342 18.3695 9.49828 18.5013C9.56314 18.6332 9.59674 18.7783 9.59647 18.9252V19.1739" stroke="#191919" stroke-linecap="round" stroke-linejoin="round"/>
<path d="M18.2039 19.1739H9.59519C9.06692 19.1739 8.63867 19.6021 8.63867 20.1304V22.0435C8.63867 22.5718 9.06692 23 9.59519 23H18.2039C18.7322 23 19.1604 22.5718 19.1604 22.0435V20.1304C19.1604 19.6021 18.7322 19.1739 18.2039 19.1739Z" fill="#808080"/>
<path d="M13.9091 19.1739H9.59519C9.3415 19.1739 9.09821 19.2747 8.91883 19.4541C8.73944 19.6334 8.63867 19.8768 8.63867 20.1304V22.0435C8.63867 22.2971 8.73944 22.5405 8.91883 22.7198C9.09821 22.8992 9.3415 23 9.59519 23H13.9091V19.1739Z" fill="#B2B2B2"/>
<path d="M18.2039 19.1739H9.59519C9.06692 19.1739 8.63867 19.6021 8.63867 20.1304V22.0435C8.63867 22.5718 9.06692 23 9.59519 23H18.2039C18.7322 23 19.1604 22.5718 19.1604 22.0435V20.1304C19.1604 19.6021 18.7322 19.1739 18.2039 19.1739Z" stroke="#191919" stroke-linecap="round" stroke-linejoin="round"/>
<path d="M10.7905 20.8478C10.8539 20.8478 10.9148 20.873 10.9596 20.9178C11.0045 20.9627 11.0297 21.0235 11.0297 21.087" stroke="#191919" stroke-linecap="round" stroke-linejoin="round"/>
<path d="M10.5518 21.087C10.5518 21.0235 10.5769 20.9627 10.6218 20.9178C10.6666 20.873 10.7275 20.8478 10.7909 20.8478" stroke="#191919" stroke-linecap="round" stroke-linejoin="round"/>
<path d="M10.7909 21.3261C10.7275 21.3261 10.6666 21.3009 10.6218 21.2561C10.5769 21.2112 10.5518 21.1504 10.5518 21.087" stroke="#191919" stroke-linecap="round" stroke-linejoin="round"/>
<path d="M11.0297 21.087C11.0297 21.1504 11.0045 21.2112 10.9596 21.2561C10.9148 21.3009 10.8539 21.3261 10.7905 21.3261" stroke="#191919" stroke-linecap="round" stroke-linejoin="round"/>
<path d="M13.8994 20.8478C13.9628 20.8478 14.0237 20.873 14.0685 20.9178C14.1134 20.9627 14.1385 21.0235 14.1385 21.087" stroke="#191919" stroke-linecap="round" stroke-linejoin="round"/>
<path d="M13.6602 21.087C13.6602 21.0235 13.6853 20.9627 13.7302 20.9178C13.775 20.873 13.8359 20.8478 13.8993 20.8478" stroke="#191919" stroke-linecap="round" stroke-linejoin="round"/>
<path d="M13.8993 21.3261C13.8359 21.3261 13.775 21.3009 13.7302 21.2561C13.6853 21.2112 13.6602 21.1504 13.6602 21.087" stroke="#191919" stroke-linecap="round" stroke-linejoin="round"/>
<path d="M14.1385 21.087C14.1385 21.1504 14.1134 21.2112 14.0685 21.2561C14.0237 21.3009 13.9628 21.3261 13.8994 21.3261" stroke="#191919" stroke-linecap="round" stroke-linejoin="round"/>
<path d="M17.0083 20.8478C17.0717 20.8478 17.1326 20.873 17.1774 20.9178C17.2223 20.9627 17.2474 21.0235 17.2474 21.087" stroke="#191919" stroke-linecap="round" stroke-linejoin="round"/>
<path d="M16.769 21.087C16.769 21.0235 16.7942 20.9627 16.8391 20.9178C16.8839 20.873 16.9448 20.8478 17.0082 20.8478" stroke="#191919" stroke-linecap="round" stroke-linejoin="round"/>
<path d="M17.0082 21.3261C16.9448 21.3261 16.8839 21.3009 16.8391 21.2561C16.7942 21.2112 16.769 21.1504 16.769 21.087" stroke="#191919" stroke-linecap="round" stroke-linejoin="round"/>
<path d="M17.2474 21.087C17.2474 21.1504 17.2223 21.2112 17.1774 21.2561C17.1326 21.3009 17.0717 21.3261 17.0083 21.3261" stroke="#191919" stroke-linecap="round" stroke-linejoin="round"/>
</g>
<defs>
<clipPath id="clip0_5303_12514">
<rect width="24" height="24" fill="white"/>
</clipPath>
</defs>
</svg>
