<svg width="24" height="24" viewBox="0 0 24 24" fill="none" xmlns="http://www.w3.org/2000/svg">
<g clip-path="url(#clip0_5303_6556)">
<path d="M5 13H1" stroke="#191919" stroke-linecap="round" stroke-linejoin="round"/>
<path d="M1 11.0005H5" stroke="#191919" stroke-linecap="round" stroke-linejoin="round"/>
<path d="M19 11.0005H23" stroke="#191919" stroke-linecap="round" stroke-linejoin="round"/>
<path d="M23 13H19" stroke="#191919" stroke-linecap="round" stroke-linejoin="round"/>
<path d="M13 5V1" stroke="#191919" stroke-linecap="round" stroke-linejoin="round"/>
<path d="M11.0001 1V5" stroke="#191919" stroke-linecap="round" stroke-linejoin="round"/>
<path d="M11.0001 19V23" stroke="#191919" stroke-linecap="round" stroke-linejoin="round"/>
<path d="M13 23V19" stroke="#191919" stroke-linecap="round" stroke-linejoin="round"/>
<path d="M14.0001 19.0005C14.2653 19.0005 14.5197 18.8951 14.7072 18.7076C14.8947 18.5201 15.0001 18.2657 15.0001 18.0005V16.0005C15.0001 15.7353 15.1055 15.4809 15.293 15.2934C15.4805 15.1059 15.7349 15.0005 16.0001 15.0005H18.0001C18.2653 15.0005 18.5197 14.8951 18.7072 14.7076C18.8947 14.5201 19.0001 14.2657 19.0001 14.0005V10.0005C19.0001 9.73527 18.8947 9.48092 18.7072 9.29338C18.5197 9.10585 18.2653 9.00049 18.0001 9.00049H16.0001C15.7349 9.00049 15.4805 8.89513 15.293 8.7076C15.1055 8.52006 15.0001 8.26571 15.0001 8.00049V6.00049C15.0001 5.73527 14.8947 5.48092 14.7072 5.29338C14.5197 5.10585 14.2653 5.00049 14.0001 5.00049H10.0001C9.7349 5.00049 9.48055 5.10585 9.29301 5.29338C9.10548 5.48092 9.00012 5.73527 9.00012 6.00049V8.00049C9.00012 8.26571 8.89476 8.52006 8.70723 8.7076C8.51969 8.89513 8.26534 9.00049 8.00012 9.00049H6.00012C5.7349 9.00049 5.48055 9.10585 5.29301 9.29338C5.10548 9.48092 5.00012 9.73527 5.00012 10.0005V14.0005C5.00012 14.2657 5.10548 14.5201 5.29301 14.7076C5.48055 14.8951 5.7349 15.0005 6.00012 15.0005H8.00012C8.26534 15.0005 8.51969 15.1059 8.70723 15.2934C8.89476 15.4809 9.00012 15.7353 9.00012 16.0005V18.0005C9.00012 18.2657 9.10548 18.5201 9.29301 18.7076C9.48055 18.8951 9.7349 19.0005 10.0001 19.0005H14.0001Z" fill="#B2B2B2"/>
<path d="M19.0001 11.0005V10.0005C19.0001 9.73527 18.8947 9.48092 18.7072 9.29338C18.5197 9.10585 18.2653 9.00049 18.0001 9.00049H16.0001C15.7349 9.00049 15.4805 8.89513 15.293 8.7076C15.1055 8.52006 15.0001 8.26571 15.0001 8.00049V6.00049C15.0001 5.73527 14.8947 5.48092 14.7072 5.29338C14.5197 5.10585 14.2653 5.00049 14.0001 5.00049H10.0001C9.7349 5.00049 9.48055 5.10585 9.29301 5.29338C9.10548 5.48092 9.00012 5.73527 9.00012 6.00049V8.00049C9.00012 8.26571 8.89476 8.52006 8.70723 8.7076C8.51969 8.89513 8.26534 9.00049 8.00012 9.00049H6.00012C5.7349 9.00049 5.48055 9.10585 5.29301 9.29338C5.10548 9.48092 5.00012 9.73527 5.00012 10.0005V11.0005H19.0001Z" fill="#E3E3E3"/>
<path d="M14.0001 19.0005C14.2653 19.0005 14.5197 18.8951 14.7072 18.7076C14.8947 18.5201 15.0001 18.2657 15.0001 18.0005V16.0005C15.0001 15.7353 15.1055 15.4809 15.293 15.2934C15.4805 15.1059 15.7349 15.0005 16.0001 15.0005H18.0001C18.2653 15.0005 18.5197 14.8951 18.7072 14.7076C18.8947 14.5201 19.0001 14.2657 19.0001 14.0005V10.0005C19.0001 9.73527 18.8947 9.48092 18.7072 9.29338C18.5197 9.10585 18.2653 9.00049 18.0001 9.00049H16.0001C15.7349 9.00049 15.4805 8.89513 15.293 8.7076C15.1055 8.52006 15.0001 8.26571 15.0001 8.00049V6.00049C15.0001 5.73527 14.8947 5.48092 14.7072 5.29338C14.5197 5.10585 14.2653 5.00049 14.0001 5.00049H10.0001C9.7349 5.00049 9.48055 5.10585 9.29301 5.29338C9.10548 5.48092 9.00012 5.73527 9.00012 6.00049V8.00049C9.00012 8.26571 8.89476 8.52006 8.70723 8.7076C8.51969 8.89513 8.26534 9.00049 8.00012 9.00049H6.00012C5.7349 9.00049 5.48055 9.10585 5.29301 9.29338C5.10548 9.48092 5.00012 9.73527 5.00012 10.0005V14.0005C5.00012 14.2657 5.10548 14.5201 5.29301 14.7076C5.48055 14.8951 5.7349 15.0005 6.00012 15.0005H8.00012C8.26534 15.0005 8.51969 15.1059 8.70723 15.2934C8.89476 15.4809 9.00012 15.7353 9.00012 16.0005V18.0005C9.00012 18.2657 9.10548 18.5201 9.29301 18.7076C9.48055 18.8951 9.7349 19.0005 10.0001 19.0005H14.0001Z" stroke="#191919" stroke-linecap="round" stroke-linejoin="round"/>
</g>
<defs>
<clipPath id="clip0_5303_6556">
<rect width="24" height="24" fill="white"/>
</clipPath>
</defs>
</svg>
