<svg width="24" height="24" viewBox="0 0 24 24" fill="none" xmlns="http://www.w3.org/2000/svg">
<path d="M1 21.1344C0.999805 21.8927 1.8206 22.3669 2.47742 21.9879C2.53517 21.9546 2.58931 21.9155 2.63925 21.8712L9.86577 15.4474V20.3729C9.86577 21.1313 10.6867 21.6052 11.3435 21.226C11.3776 21.2063 11.4104 21.1846 11.442 21.161L22.606 12.7877C23.1313 12.3937 23.1313 11.6056 22.606 11.2116L11.442 2.83837C10.8353 2.38336 9.96359 2.7557 9.8729 3.50858C9.86821 3.54767 9.86577 3.58705 9.86577 3.62643V8.55181L2.63915 2.1281C2.07215 1.62452 1.17268 1.92366 1.02013 2.66648C1.00674 2.73176 1 2.79831 1 2.86496V21.1344Z" fill="#C2F3FF"/>
<path d="M1 21.1343C0.999805 21.8927 1.8206 22.3669 2.47742 21.9879C2.53517 21.9546 2.58931 21.9155 2.63925 21.8712L9.86577 15.4474V20.3729C9.86577 21.1312 10.6867 21.6052 11.3435 21.226C11.3776 21.2063 11.4104 21.1846 11.442 21.1609L22.606 12.7877C22.8541 12.6017 23.0002 12.3097 23 11.9996H1V21.1343Z" fill="#66E1FF"/>
<path d="M1 21.1344C0.999805 21.8927 1.8206 22.3669 2.47742 21.9879C2.53517 21.9546 2.58931 21.9155 2.63925 21.8712L9.86577 15.4474V20.3729C9.86577 21.1313 10.6867 21.6052 11.3435 21.226C11.3776 21.2063 11.4104 21.1846 11.442 21.161L22.606 12.7877C23.1313 12.3937 23.1313 11.6056 22.606 11.2116L11.442 2.83837C10.8353 2.38336 9.96359 2.7557 9.8729 3.50858C9.86821 3.54767 9.86577 3.58705 9.86577 3.62643V8.55181L2.63915 2.1281C2.07215 1.62452 1.17268 1.92366 1.02013 2.66648C1.00674 2.73176 1 2.79831 1 2.86496V21.1344Z" stroke="#191919" stroke-linecap="round" stroke-linejoin="round"/>
</svg>
