<svg width="24" height="24" viewBox="0 0 24 24" fill="none" xmlns="http://www.w3.org/2000/svg">
<path d="M15.3478 7.21747H4.82614C4.57246 7.21747 4.32917 7.31824 4.14979 7.49762C3.9704 7.67701 3.86963 7.9203 3.86963 8.17398V16.7845C3.86963 17.0382 3.9704 17.2815 4.14979 17.4609C4.32917 17.6403 4.57246 17.741 4.82614 17.741H15.3478C15.6015 17.741 15.8448 17.6403 16.0242 17.4609C16.2035 17.2815 16.3043 17.0382 16.3043 16.7845V8.17398C16.3043 7.9203 16.2035 7.67701 16.0242 7.49762C15.8448 7.31824 15.6015 7.21747 15.3478 7.21747Z" fill="#808080"/>
<path d="M16.3043 8.17398V10.9383C16.3043 10.6846 16.2035 10.4413 16.0242 10.262C15.8448 10.0826 15.6015 9.9818 15.3478 9.9818H4.82614C4.57246 9.9818 4.32917 10.0826 4.14979 10.262C3.9704 10.4413 3.86963 10.6846 3.86963 10.9383V8.17398C3.86963 7.9203 3.9704 7.67701 4.14979 7.49762C4.32917 7.31824 4.57246 7.21747 4.82614 7.21747H15.3478C15.6015 7.21747 15.8448 7.31824 16.0242 7.49762C16.2035 7.67701 16.3043 7.9203 16.3043 8.17398Z" fill="#B2B2B2"/>
<path d="M8.17383 7.21747H15.3477C15.6014 7.21747 15.8447 7.31824 16.024 7.49762C16.2034 7.67701 16.3042 7.9203 16.3042 8.17398V14.3913" stroke="#191919" stroke-linecap="round" stroke-linejoin="round"/>
<path d="M12 17.739H4.82614C4.57246 17.739 4.32917 17.6382 4.14979 17.4589C3.9704 17.2795 3.86963 17.0362 3.86963 16.7825V9.60864" stroke="#191919" stroke-linecap="round" stroke-linejoin="round"/>
<path d="M22.9999 16.0499C22.9997 16.2191 22.9547 16.3852 22.8695 16.5313C22.7842 16.6774 22.6617 16.7983 22.5145 16.8816C22.3673 16.9649 22.2006 17.0077 22.0315 17.0056C21.8624 17.0035 21.6968 16.9566 21.5517 16.8697L18.6822 15.1479C18.5405 15.0631 18.4232 14.943 18.3418 14.7993C18.2603 14.6557 18.2174 14.4934 18.2173 14.3282V10.6284C18.2174 10.4633 18.2603 10.301 18.3418 10.1573C18.4232 10.0137 18.5405 9.89356 18.6822 9.80868L21.5517 8.08695C21.6968 8.00001 21.8624 7.9531 22.0315 7.951C22.2006 7.94891 22.3673 7.99171 22.5145 8.07503C22.6617 8.15836 22.7842 8.27924 22.8695 8.42534C22.9547 8.57143 22.9997 8.73753 22.9999 8.90669V16.0499Z" fill="#808080" stroke="#191919" stroke-linecap="round" stroke-linejoin="round"/>
<path d="M1 3.39136L18.2173 20.6086" stroke="#191919" stroke-linecap="round" stroke-linejoin="round"/>
<path d="M22.9999 8.91046V11.6748C23.002 11.5051 22.9586 11.338 22.8743 11.1908C22.7899 11.0436 22.6677 10.9217 22.5203 10.8377C22.3728 10.7538 22.2056 10.7108 22.036 10.7134C21.8663 10.7159 21.7005 10.7638 21.5556 10.8522L18.6861 12.5739C18.5418 12.6569 18.4224 12.7769 18.34 12.9215C18.2576 13.0661 18.2153 13.2301 18.2174 13.3965V10.6322C18.2152 10.4658 18.2574 10.3018 18.3398 10.1571C18.4222 10.0125 18.5418 9.89253 18.6861 9.80958L21.5556 8.08785C21.6991 7.99954 21.864 7.95199 22.0325 7.9503C22.2011 7.94862 22.3668 7.99286 22.5121 8.07829C22.6611 8.15993 22.7851 8.28043 22.871 8.42697C22.9569 8.57351 23.0015 8.7406 22.9999 8.91046Z" fill="#B2B2B2"/>
<path d="M22.9999 16.0499C22.9997 16.2191 22.9547 16.3852 22.8695 16.5313C22.7842 16.6774 22.6617 16.7983 22.5145 16.8816C22.3673 16.9649 22.2006 17.0077 22.0315 17.0056C21.8624 17.0035 21.6968 16.9566 21.5517 16.8697L18.6822 15.1479C18.5405 15.0631 18.4232 14.943 18.3418 14.7993C18.2603 14.6557 18.2174 14.4934 18.2173 14.3282V10.6284C18.2174 10.4633 18.2603 10.301 18.3418 10.1573C18.4232 10.0137 18.5405 9.89356 18.6822 9.80868L21.5517 8.08695C21.6968 8.00001 21.8624 7.9531 22.0315 7.951C22.2006 7.94891 22.3673 7.99171 22.5145 8.07503C22.6617 8.15836 22.7842 8.27924 22.8695 8.42534C22.9547 8.57143 22.9997 8.73753 22.9999 8.90669V16.0499Z" stroke="#191919" stroke-linecap="round" stroke-linejoin="round"/>
</svg>
