<svg width="24" height="24" viewBox="0 0 24 24" fill="none" xmlns="http://www.w3.org/2000/svg">
<g clip-path="url(#clip0_5303_6204)">
<path d="M7.69542 5.30459C6.93439 5.30459 6.20453 5.60691 5.6664 6.14504C5.12827 6.68317 4.82595 7.41303 4.82595 8.17406H1C1 6.39832 1.70541 4.69532 2.96104 3.43968C4.21668 2.18405 5.91968 1.47864 7.69542 1.47864V5.30459Z" fill="#C9F7CA"/>
<path d="M18.6966 12.9565L16.2098 15.4529L14.2107 17.4424L12.489 19.1737H12.4795L5.50666 12.1913C5.32852 12.0121 5.22852 11.7697 5.22852 11.517C5.22852 11.2643 5.32852 11.0218 5.50666 10.8427L10.3752 5.97412C10.5544 5.79598 10.7968 5.69598 11.0495 5.69598C11.3022 5.69598 11.5446 5.79598 11.7238 5.97412L18.6966 12.9565Z" fill="#66E1FF"/>
<path d="M15.5972 16.0651L16.2122 15.4529L18.6952 12.9565L11.7224 5.97412C11.5432 5.79598 11.3008 5.69598 11.0481 5.69598C10.7954 5.69598 10.553 5.79598 10.3738 5.97412L7.94238 8.40934L15.5972 16.0651Z" fill="#C2F3FF"/>
<path d="M18.6966 12.9565L16.2098 15.4529L14.2107 17.4424L12.489 19.1737H12.4795L5.50666 12.1913C5.32852 12.0121 5.22852 11.7697 5.22852 11.517C5.22852 11.2643 5.32852 11.0218 5.50666 10.8427L10.3752 5.97412C10.5544 5.79598 10.7968 5.69598 11.0495 5.69598C11.3022 5.69598 11.5446 5.79598 11.7238 5.97412L18.6966 12.9565Z" stroke="#191919" stroke-linecap="round" stroke-linejoin="round"/>
<path d="M19.9393 15.539L18.5046 16.9737L16.0751 19.4128L15.0708 20.4075C14.8916 20.5857 14.6492 20.6857 14.3965 20.6857C14.1438 20.6857 13.9014 20.5857 13.7222 20.4075L12.4883 19.1737L14.21 17.4424L16.209 15.4529L18.6959 12.9565L19.9393 14.1904C20.1174 14.3696 20.2175 14.612 20.2175 14.8647C20.2175 15.1174 20.1174 15.3598 19.9393 15.539Z" fill="white" stroke="#191919" stroke-linecap="round" stroke-linejoin="round"/>
<path d="M1 8.17406C1 6.39832 1.70541 4.69532 2.96104 3.43968C4.21668 2.18405 5.91968 1.47864 7.69542 1.47864" stroke="#191919" stroke-linecap="round" stroke-linejoin="round"/>
<path d="M2.91406 8.17404C2.91406 6.90566 3.41792 5.68923 4.31481 4.79235C5.21169 3.89546 6.42812 3.3916 7.6965 3.3916" stroke="#191919" stroke-linecap="round" stroke-linejoin="round"/>
<path d="M4.82617 8.17397C4.82617 7.41294 5.12849 6.68308 5.66662 6.14495C6.20475 5.60682 6.93461 5.3045 7.69564 5.3045" stroke="#191919" stroke-linecap="round" stroke-linejoin="round"/>
<path d="M11.4132 10.527L10.4777 11.4624C10.3836 11.5565 10.324 11.6798 10.3086 11.8121C10.2933 11.9444 10.3231 12.078 10.3932 12.1913C10.4633 12.3045 10.5695 12.3908 10.6947 12.4361C10.8199 12.4814 10.9568 12.4831 11.0832 12.4409L12.4223 11.9952C12.5487 11.9529 12.6857 11.9546 12.811 12.0001C12.9364 12.0454 13.0426 12.1319 13.1127 12.2453C13.1827 12.3587 13.2122 12.4926 13.1966 12.6249C13.181 12.7573 13.1212 12.8805 13.0268 12.9746L12.0894 13.9091" stroke="#191919" stroke-linecap="round" stroke-linejoin="round"/>
<path d="M10.7377 11.2042L10.0605 10.527" stroke="#191919" stroke-linecap="round" stroke-linejoin="round"/>
<path d="M13.4428 13.9129L12.7656 13.2338" stroke="#191919" stroke-linecap="round" stroke-linejoin="round"/>
<path d="M23.0005 22.5213L18.4476 21.0101C17.6667 20.7534 16.9584 20.314 16.3816 19.7284L14.4877 17.8345C14.2271 17.5738 14.0727 17.2255 14.0545 16.8574C14.0364 16.4891 14.1558 16.1274 14.3896 15.8424C14.6233 15.5573 14.9548 15.3694 15.3194 15.3151C15.684 15.2607 16.0558 15.3439 16.3624 15.5485L18.505 16.9737L19.9397 15.539C20.1178 15.3597 20.2178 15.1174 20.2178 14.8646C20.2178 14.6119 20.1178 14.3696 19.9397 14.1903L15.119 9.36962L15.3868 9.10181C15.9297 8.55561 16.6543 8.22763 17.4229 8.18003C18.1915 8.13242 18.9509 8.36852 19.5571 8.84355L23.0005 11.5217" fill="#FFDDA1"/>
<path d="M23.0005 22.5213L18.4476 21.0101C17.6667 20.7534 16.9584 20.314 16.3816 19.7284L14.4877 17.8345C14.2271 17.5738 14.0727 17.2255 14.0545 16.8574C14.0364 16.4891 14.1558 16.1274 14.3896 15.8424C14.6233 15.5573 14.9548 15.3694 15.3194 15.3151C15.684 15.2607 16.0558 15.3439 16.3624 15.5485L18.505 16.9737L19.9397 15.539C20.1178 15.3597 20.2178 15.1174 20.2178 14.8646C20.2178 14.6119 20.1178 14.3696 19.9397 14.1903L15.119 9.36962L15.3868 9.10181C15.9297 8.55561 16.6543 8.22763 17.4229 8.18003C18.1915 8.13242 18.9509 8.36852 19.5571 8.84355L23.0005 11.5217" stroke="#191919" stroke-linecap="round" stroke-linejoin="round"/>
<path d="M19.6556 17.7389L18.5078 16.9737" stroke="#191919" stroke-linecap="round" stroke-linejoin="round"/>
</g>
<defs>
<clipPath id="clip0_5303_6204">
<rect width="24" height="24" fill="white"/>
</clipPath>
</defs>
</svg>
