<svg width="24" height="24" viewBox="0 0 24 24" fill="none" xmlns="http://www.w3.org/2000/svg">
<g clip-path="url(#clip0_5303_13305)">
<path d="M8.52629 1H3.89471C3.25521 1 2.73682 1.51839 2.73682 2.15789V21.8421C2.73682 22.4816 3.25521 23 3.89471 23H8.52629C9.16579 23 9.68418 22.4816 9.68418 21.8421V2.15789C9.68418 1.51839 9.16579 1 8.52629 1Z" fill="#66E1FF"/>
<path d="M20.1054 1H15.4738C14.8343 1 14.3159 1.51839 14.3159 2.15789V21.8421C14.3159 22.4816 14.8343 23 15.4738 23H20.1054C20.7449 23 21.2633 22.4816 21.2633 21.8421V2.15789C21.2633 1.51839 20.7449 1 20.1054 1Z" fill="#66E1FF"/>
<path d="M9.68418 2.15789V11.4211H2.73682V2.15789C2.73682 1.8508 2.85881 1.5563 3.07591 1.3391C3.29312 1.12199 3.58761 1 3.89471 1H8.52629C8.83339 1 9.12788 1.12199 9.34509 1.3391C9.56219 1.5563 9.68418 1.8508 9.68418 2.15789Z" fill="#C2F3FF"/>
<path d="M21.2633 2.15789V11.4211H14.3159V2.15789C14.3159 1.8508 14.438 1.5563 14.6551 1.3391C14.8722 1.12199 15.1667 1 15.4738 1H20.1054C20.4125 1 20.7071 1.12199 20.9242 1.3391C21.1413 1.5563 21.2633 1.8508 21.2633 2.15789Z" fill="#C2F3FF"/>
<path d="M8.52629 1H3.89471C3.25521 1 2.73682 1.51839 2.73682 2.15789V21.8421C2.73682 22.4816 3.25521 23 3.89471 23H8.52629C9.16579 23 9.68418 22.4816 9.68418 21.8421V2.15789C9.68418 1.51839 9.16579 1 8.52629 1Z" stroke="#191919" stroke-linecap="round" stroke-linejoin="round"/>
<path d="M20.1054 1H15.4738C14.8343 1 14.3159 1.51839 14.3159 2.15789V21.8421C14.3159 22.4816 14.8343 23 15.4738 23H20.1054C20.7449 23 21.2633 22.4816 21.2633 21.8421V2.15789C21.2633 1.51839 20.7449 1 20.1054 1Z" stroke="#191919" stroke-linecap="round" stroke-linejoin="round"/>
</g>
<defs>
<clipPath id="clip0_5303_13305">
<rect width="24" height="24" fill="white"/>
</clipPath>
</defs>
</svg>
