<svg width="75" height="15" viewBox="0 0 75 15" fill="none" xmlns="http://www.w3.org/2000/svg">
<path d="M1.92601 7.59598C1.92601 11.16 2.75401 12.816 4.95001 12.816H5.07601C6.94801 12.816 7.70401 11.628 7.70401 9.59398H9.59401V9.77398C9.59401 12.924 8.06401 14.472 4.95001 14.472C1.58401 14.472 6.11693e-06 12.456 6.11693e-06 7.59598V6.87598C6.11693e-06 2.01598 1.58401 -1.95503e-05 4.95001 -1.95503e-05C8.06401 -1.95503e-05 9.59401 1.54798 9.59401 4.85998V5.41798H7.70401C7.70401 2.86198 6.98401 1.65598 5.07601 1.65598H4.95001C2.77201 1.65598 1.92601 3.31198 1.92601 6.87598V7.59598ZM16.3599 14.472C12.9759 14.472 11.3379 12.456 11.3379 7.59598V6.87598C11.3379 2.01598 12.9759 -1.95503e-05 16.3599 -1.95503e-05C19.7259 -1.95503e-05 21.3639 2.01598 21.3639 6.87598V7.59598C21.3639 12.456 19.7259 14.472 16.3599 14.472ZM16.2879 12.816H16.4139C18.5739 12.816 19.4379 11.16 19.4379 7.59598V6.87598C19.4379 3.31198 18.5739 1.65598 16.4139 1.65598H16.2879C14.1279 1.65598 13.2639 3.31198 13.2639 6.87598V7.59598C13.2639 11.16 14.1279 12.816 16.2879 12.816ZM33.068 0.215981V14.256H31.07L25.184 3.52798L25.256 6.64198V14.256H23.474V0.215981H25.472L31.358 10.944L31.286 7.82998V0.215981H33.068ZM39.9798 1.87198V14.256H38.1078V1.87198H34.6518V0.215981H43.4358V1.87198H39.9798ZM45.0248 0.215981H53.1248V1.87198H46.8968V6.26398H52.2248V7.91998H46.8968V12.6H53.1248V14.256H45.0248V0.215981ZM64.6383 0.215981V14.256H62.6403L56.7543 3.52798L56.8263 6.64198V14.256H55.0443V0.215981H57.0423L62.9283 10.944L62.8563 7.82998V0.215981H64.6383ZM71.5501 1.87198V14.256H69.6781V1.87198H66.2221V0.215981H75.0061V1.87198H71.5501Z" fill="#121212"/>
</svg>
