<svg width="24" height="24" viewBox="0 0 24 24" fill="none" xmlns="http://www.w3.org/2000/svg">
<g clip-path="url(#clip0_5303_13447)">
<path d="M22.9998 20.8765C22.9999 21.0608 22.9467 21.2412 22.8466 21.396C22.7467 21.5508 22.6041 21.6734 22.4361 21.749C22.268 21.8247 22.0817 21.8503 21.8996 21.8226C21.7174 21.7949 21.547 21.7152 21.4091 21.5929L11.3751 12.7164C11.2734 12.6267 11.1919 12.5163 11.136 12.3926C11.0802 12.2689 11.0513 12.1348 11.0513 11.999C11.0513 11.8634 11.0802 11.7292 11.136 11.6055C11.1919 11.4818 11.2734 11.3714 11.3751 11.2816L21.4091 2.40513C21.5472 2.28284 21.7177 2.20309 21.9 2.17546C22.0824 2.14784 22.2688 2.17353 22.437 2.24944C22.605 2.32536 22.7476 2.44825 22.8475 2.60332C22.9474 2.7584 23.0003 2.93904 22.9998 3.12348V20.8765Z" fill="#66E1FF"/>
<path d="M5.78262 1H1.95652C1.42825 1 1 1.42825 1 1.95652V22.0435C1 22.5718 1.42825 23 1.95652 23H5.78262C6.31088 23 6.73914 22.5718 6.73914 22.0435V1.95652C6.73914 1.42825 6.31088 1 5.78262 1Z" fill="#66E1FF"/>
<path d="M22.9997 3.12347V12H11.0528C11.0517 11.864 11.0803 11.7294 11.1365 11.6055C11.1926 11.4816 11.2751 11.3714 11.378 11.2826L21.4119 2.40607C21.55 2.28475 21.7201 2.20579 21.9019 2.17864C22.0838 2.1515 22.2695 2.1773 22.437 2.25299C22.6046 2.32868 22.7467 2.45103 22.8465 2.6054C22.9463 2.75979 22.9995 2.93964 22.9997 3.12347Z" fill="#C2F3FF"/>
<path d="M6.73914 1.95652V12H1V1.95652C1 1.70283 1.10078 1.45954 1.28016 1.28016C1.45954 1.10078 1.70283 1 1.95652 1H5.78262C6.0363 1 6.2796 1.10078 6.45898 1.28016C6.63836 1.45954 6.73914 1.70283 6.73914 1.95652Z" fill="#C2F3FF"/>
<path d="M22.9998 20.8765C22.9999 21.0608 22.9467 21.2412 22.8466 21.396C22.7467 21.5508 22.6041 21.6734 22.4361 21.749C22.268 21.8247 22.0817 21.8503 21.8996 21.8226C21.7174 21.7949 21.547 21.7152 21.4091 21.5929L11.3751 12.7164C11.2734 12.6267 11.1919 12.5163 11.136 12.3926C11.0802 12.2689 11.0513 12.1348 11.0513 11.999C11.0513 11.8634 11.0802 11.7292 11.136 11.6055C11.1919 11.4818 11.2734 11.3714 11.3751 11.2816L21.4091 2.40513C21.5472 2.28284 21.7177 2.20309 21.9 2.17546C22.0824 2.14784 22.2688 2.17353 22.437 2.24944C22.605 2.32536 22.7476 2.44825 22.8475 2.60332C22.9474 2.7584 23.0003 2.93904 22.9998 3.12348V20.8765Z" stroke="#191919" stroke-linecap="round" stroke-linejoin="round"/>
<path d="M5.78262 1H1.95652C1.42825 1 1 1.42825 1 1.95652V22.0435C1 22.5718 1.42825 23 1.95652 23H5.78262C6.31088 23 6.73914 22.5718 6.73914 22.0435V1.95652C6.73914 1.42825 6.31088 1 5.78262 1Z" stroke="#191919" stroke-linecap="round" stroke-linejoin="round"/>
</g>
<defs>
<clipPath id="clip0_5303_13447">
<rect width="24" height="24" fill="white"/>
</clipPath>
</defs>
</svg>
