<svg width="24" height="24" viewBox="0 0 24 24" fill="none" xmlns="http://www.w3.org/2000/svg">
<g clip-path="url(#clip0_5303_5167)">
<path d="M13.2545 18.3905C12.7036 19.2457 9.71538 20.4882 9.71538 20.4882C9.71538 20.4882 9.61112 17.2523 10.1621 16.3981C10.3596 16.0926 10.6431 15.8524 10.9768 15.7078C11.3106 15.5632 11.6798 15.5206 12.0377 15.5855C12.3956 15.6503 12.7264 15.8197 12.9882 16.0722C13.25 16.3248 13.4312 16.6492 13.5089 17.0045C13.5601 17.2408 13.5643 17.4848 13.5211 17.7226C13.4779 17.9604 13.3883 18.1874 13.2574 18.3905H13.2545Z" fill="#E3E3E3"/>
<path d="M11.4517 15.0379L17.2692 6.00934L19.7734 7.623L13.9558 16.6516L11.4517 15.0379Z" fill="#FF808C"/>
<path d="M17.2705 6.0093L20.4949 1L23.0001 2.60983L19.7756 7.62104L17.2705 6.0093Z" fill="#FF808C"/>
<path d="M1.00049 23L2.91353 21.087L4.82658 23L6.73962 21.087L8.1744 22.5217" stroke="#191919" stroke-linecap="round" stroke-linejoin="round"/>
<path d="M13.2545 18.3905C12.7036 19.2457 9.71538 20.4882 9.71538 20.4882C9.71538 20.4882 9.61112 17.2523 10.1621 16.3981C10.3596 16.0926 10.6431 15.8524 10.9768 15.7078C11.3106 15.5632 11.6798 15.5206 12.0377 15.5855C12.3956 15.6503 12.7264 15.8197 12.9882 16.0722C13.25 16.3248 13.4312 16.6492 13.5089 17.0045C13.5601 17.2408 13.5643 17.4848 13.5211 17.7226C13.4779 17.9604 13.3883 18.1874 13.2574 18.3905H13.2545Z" stroke="#191919" stroke-linecap="round" stroke-linejoin="round"/>
<path d="M11.3303 17.985L9.71191 20.4882" stroke="#191919" stroke-linecap="round" stroke-linejoin="round"/>
<path d="M11.4517 15.0379L17.2692 6.00934L19.7734 7.623L13.9558 16.6516L11.4517 15.0379Z" stroke="#191919" stroke-linecap="round" stroke-linejoin="round"/>
<path d="M20.0934 1.62555C19.7611 1.41191 19.3576 1.33886 18.9715 1.42243C18.5854 1.506 18.2482 1.73937 18.034 2.07129L14.8076 7.07964" stroke="#191919" stroke-linecap="round" stroke-linejoin="round"/>
<path d="M17.2705 6.0093L20.4949 1L23.0001 2.60983L19.7756 7.62104L17.2705 6.0093Z" stroke="#191919" stroke-linecap="round" stroke-linejoin="round"/>
</g>
<defs>
<clipPath id="clip0_5303_5167">
<rect width="24" height="24" fill="white"/>
</clipPath>
</defs>
</svg>
