<svg width="24" height="24" viewBox="0 0 24 24" fill="none" xmlns="http://www.w3.org/2000/svg">
<g clip-path="url(#clip0_5303_5191)">
<path d="M19.1736 8.65272C19.174 9.15529 19.0754 9.65303 18.8833 10.1175C18.6914 10.582 18.4097 11.004 18.0545 11.3596C16.9929 12.4117 12.6026 13.7412 10.4218 14.3056C10.3213 14.3342 10.2149 14.335 10.1138 14.3081C10.0128 14.2812 9.92091 14.2274 9.84795 14.1525C9.77325 14.0815 9.71948 13.9913 9.6925 13.8918C9.6655 13.7922 9.66635 13.6873 9.69492 13.5882C10.2592 11.3979 11.5887 6.99801 12.6409 5.94588C12.9965 5.5907 13.4185 5.30907 13.883 5.11705C14.3474 4.92503 14.8452 4.82641 15.3477 4.8268C16.0127 4.82464 16.6665 4.99962 17.2415 5.33374C17.8411 5.66544 18.335 6.15937 18.6667 6.75889C19.0008 7.33397 19.1758 7.98763 19.1736 8.65272Z" fill="#E3E3E3"/>
<path d="M17.2411 5.33291C16.666 4.99911 16.0123 4.82447 15.3473 4.82693C14.8447 4.82653 14.347 4.92516 13.8825 5.11717C13.418 5.30919 12.996 5.59083 12.6404 5.94601C11.5883 6.99814 10.2588 11.3979 9.69447 13.5883C9.67233 13.6738 9.67092 13.7634 9.69039 13.8496C9.70985 13.9357 9.74962 14.016 9.80638 14.0837L17.9958 5.89532C17.7705 5.67489 17.5167 5.48572 17.2411 5.33291Z" fill="white"/>
<path d="M19.1736 8.65272C19.174 9.15529 19.0754 9.65303 18.8833 10.1175C18.6914 10.582 18.4097 11.004 18.0545 11.3596C16.9929 12.4117 12.6026 13.7412 10.4218 14.3056C10.3213 14.3342 10.2149 14.335 10.1138 14.3081C10.0128 14.2812 9.92091 14.2274 9.84795 14.1525C9.77325 14.0815 9.71948 13.9913 9.6925 13.8918C9.6655 13.7922 9.66635 13.6873 9.69492 13.5882C10.2592 11.3979 11.5887 6.99801 12.6409 5.94588C12.9965 5.5907 13.4185 5.30907 13.883 5.11705C14.3474 4.92503 14.8452 4.82641 15.3477 4.8268C16.0127 4.82464 16.6665 4.99962 17.2415 5.33374C17.8411 5.66544 18.335 6.15937 18.6667 6.75889C19.0008 7.33397 19.1758 7.98763 19.1736 8.65272Z" stroke="#191919" stroke-linecap="round" stroke-linejoin="round"/>
<path d="M15.3471 9.60925C15.5363 9.60925 15.7212 9.55315 15.8785 9.44805C16.0358 9.34295 16.1584 9.19357 16.2308 9.01879C16.3032 8.84403 16.3221 8.65171 16.2852 8.46617C16.2483 8.28063 16.1572 8.11021 16.0234 7.97643C15.8897 7.84267 15.7193 7.75157 15.5337 7.71467C15.3482 7.67776 15.1558 7.6967 14.9811 7.7691C14.8063 7.84149 14.6569 7.96408 14.5518 8.12138C14.4467 8.27867 14.3906 8.4636 14.3906 8.65277C14.3906 8.90645 14.4914 9.14973 14.6708 9.3291C14.8501 9.50847 15.0934 9.60925 15.3471 9.60925Z" fill="#808080"/>
<path d="M14.6779 9.32233L9.84766 14.1525" stroke="#191919" stroke-linecap="round" stroke-linejoin="round"/>
<path d="M22.9994 4.82592L20.6082 6.26063L17.7388 3.3912L19.1735 1L22.9994 4.82592Z" fill="#FFEF5E"/>
<path d="M20.1298 5.78338L18.6664 6.75899C18.3347 6.15947 17.8407 5.66554 17.2412 5.33384L18.2168 3.87042L20.1298 5.78338Z" fill="#808080"/>
<path d="M8.17408 15.3482H4.82641C4.31906 15.3482 3.83249 15.5497 3.47374 15.9085C3.11499 16.2673 2.91345 16.7538 2.91345 17.2611C2.91345 17.7685 3.11499 18.255 3.47374 18.6138C3.83249 18.9726 4.31906 19.1741 4.82641 19.1741H16.3042C16.8115 19.1741 17.298 19.3756 17.6568 19.7344C18.0156 20.0932 18.2171 20.5797 18.2171 21.0871C18.2171 21.5944 18.0156 22.0809 17.6568 22.4397C17.298 22.7985 16.8115 23 16.3042 23H1.00049" stroke="#191919" stroke-linecap="round" stroke-linejoin="round"/>
<path d="M15.3471 9.60925C15.5363 9.60925 15.7212 9.55315 15.8785 9.44805C16.0358 9.34295 16.1584 9.19357 16.2308 9.01879C16.3032 8.84403 16.3221 8.65171 16.2852 8.46617C16.2483 8.28063 16.1572 8.11021 16.0234 7.97643C15.8897 7.84267 15.7193 7.75157 15.5337 7.71467C15.3482 7.67776 15.1558 7.6967 14.9811 7.7691C14.8063 7.84149 14.6569 7.96408 14.5518 8.12138C14.4467 8.27867 14.3906 8.4636 14.3906 8.65277C14.3906 8.90645 14.4914 9.14973 14.6708 9.3291C14.8501 9.50847 15.0934 9.60925 15.3471 9.60925Z" stroke="#191919" stroke-linecap="round" stroke-linejoin="round"/>
<path d="M22.9994 4.82592L20.6082 6.26063L17.7388 3.3912L19.1735 1L22.9994 4.82592Z" stroke="#191919" stroke-linecap="round" stroke-linejoin="round"/>
<path d="M20.1298 5.78338L18.6664 6.75899C18.3347 6.15947 17.8407 5.66554 17.2412 5.33384L18.2168 3.87042L20.1298 5.78338Z" stroke="#191919" stroke-linecap="round" stroke-linejoin="round"/>
</g>
<defs>
<clipPath id="clip0_5303_5191">
<rect width="24" height="24" fill="white"/>
</clipPath>
</defs>
</svg>
