<svg width="24" height="24" viewBox="0 0 24 24" fill="none" xmlns="http://www.w3.org/2000/svg">
<g clip-path="url(#clip0_5303_5132)">
<path d="M20.1305 14.3913V22.0435C20.1305 22.2972 20.0297 22.5405 19.8503 22.7198C19.671 22.8992 19.4277 23 19.174 23H4.82615C4.57247 23 4.32917 22.8992 4.14979 22.7198C3.97041 22.5405 3.86963 22.2972 3.86963 22.0435V14.3913C3.87114 13.8844 4.07318 13.3987 4.43162 13.0402C4.79006 12.6818 5.27577 12.4798 5.78267 12.4783H7.32267C7.54048 12.4789 7.75148 12.5543 7.92037 12.6918C8.08926 12.8294 8.2058 13.0207 8.2505 13.2339C8.47209 14.0372 8.96909 14.737 9.65455 15.2109C10.34 15.6848 11.1703 15.9025 12.0001 15.8261C12.8299 15.9025 13.6601 15.6848 14.3456 15.2109C15.031 14.737 15.528 14.0372 15.7496 13.2339C15.7943 13.0207 15.9109 12.8294 16.0798 12.6918C16.2486 12.5543 16.4596 12.4789 16.6775 12.4783H18.2175C18.7244 12.4798 19.2101 12.6818 19.5685 13.0402C19.9269 13.3987 20.129 13.8844 20.1305 14.3913Z" fill="#B2B2B2"/>
<path d="M20.1305 15.3383V14.3913C20.129 13.8844 19.9269 13.3987 19.5685 13.0402C19.2101 12.6818 18.7244 12.4798 18.2174 12.4783H16.6774C16.4597 12.4791 16.2488 12.5545 16.0799 12.692C15.9111 12.8295 15.7945 13.0208 15.7496 13.2339C15.5005 14.1194 14.9176 14.8738 14.1235 15.3383H20.1305Z" fill="#E3E3E3"/>
<path d="M9.87563 15.3383C9.08159 14.8738 8.49867 14.1194 8.24954 13.2339C8.20484 13.0207 8.0883 12.8294 7.91941 12.6918C7.75052 12.5543 7.53953 12.4789 7.32172 12.4783H5.78267C5.27577 12.4798 4.79006 12.6818 4.43162 13.0402C4.07318 13.3987 3.87114 13.8844 3.86963 14.3913V15.3383H9.87563Z" fill="#E3E3E3"/>
<path d="M20.1305 14.3913V22.0435C20.1305 22.2972 20.0297 22.5405 19.8503 22.7198C19.671 22.8992 19.4277 23 19.174 23H4.82615C4.57247 23 4.32917 22.8992 4.14979 22.7198C3.97041 22.5405 3.86963 22.2972 3.86963 22.0435V14.3913C3.87114 13.8844 4.07318 13.3987 4.43162 13.0402C4.79006 12.6818 5.27577 12.4798 5.78267 12.4783H7.32267C7.54048 12.4789 7.75148 12.5543 7.92037 12.6918C8.08926 12.8294 8.2058 13.0207 8.2505 13.2339C8.47209 14.0372 8.96909 14.737 9.65455 15.2109C10.34 15.6848 11.1703 15.9025 12.0001 15.8261C12.8299 15.9025 13.6601 15.6848 14.3456 15.2109C15.031 14.737 15.528 14.0372 15.7496 13.2339C15.7943 13.0207 15.9109 12.8294 16.0798 12.6918C16.2486 12.5543 16.4596 12.4789 16.6775 12.4783H18.2175C18.7244 12.4798 19.2101 12.6818 19.5685 13.0402C19.9269 13.3987 20.129 13.8844 20.1305 14.3913Z" stroke="#191919" stroke-linecap="round" stroke-linejoin="round"/>
<path d="M21.0869 9.60871V13.4348C21.0869 13.6885 20.9861 13.9318 20.8067 14.1112C20.6273 14.2905 20.384 14.3913 20.1303 14.3913C20.1288 13.8844 19.9268 13.3987 19.5683 13.0403C19.2099 12.6818 18.7242 12.4798 18.2173 12.4783V8.65219H20.1303C20.384 8.65219 20.6273 8.75297 20.8067 8.93235C20.9861 9.11173 21.0869 9.35503 21.0869 9.60871Z" fill="#6B6B6B"/>
<path d="M5.78216 8.65219V12.4783C5.27526 12.4798 4.78955 12.6818 4.43111 13.0403C4.07267 13.3987 3.87063 13.8844 3.86912 14.3913C3.61543 14.3913 3.37214 14.2905 3.19276 14.1112C3.01337 13.9318 2.9126 13.6885 2.9126 13.4348V9.60871C2.9126 9.35503 3.01337 9.11173 3.19276 8.93235C3.37214 8.75297 3.61543 8.65219 3.86912 8.65219H5.78216Z" fill="#6B6B6B"/>
<path d="M18.217 6.18435V12.4783H16.677C16.4592 12.4791 16.2483 12.5545 16.0795 12.692C15.9106 12.8296 15.794 13.0208 15.7492 13.2339C15.5274 14.0371 15.0304 14.7368 14.345 15.2107C13.6596 15.6845 12.8294 15.9024 11.9996 15.8261C11.1698 15.9025 10.3396 15.6848 9.6541 15.2109C8.96864 14.737 8.47164 14.0372 8.25005 13.2339C8.20535 13.0207 8.08881 12.8294 7.91992 12.6918C7.75103 12.5543 7.54004 12.4789 7.32223 12.4783H5.78223V1.95652C5.78223 1.83091 5.80697 1.70653 5.85504 1.59048C5.90311 1.47443 5.97356 1.36898 6.06239 1.28016C6.15121 1.19134 6.25665 1.12088 6.3727 1.07281C6.48875 1.02474 6.61314 1 6.73875 1H13.0422C13.1781 1 13.311 1.0287 13.4344 1.08609V5.78261H18.1309C18.1887 5.90861 18.2181 6.04575 18.217 6.18435Z" fill="white"/>
<path d="M18.1215 5.78262H13.4346V1.09567C13.5398 1.13584 13.6335 1.19802 13.712 1.27741L17.9398 5.50523C18.0163 5.58654 18.0766 5.68028 18.1215 5.78262Z" fill="#E3E3E3"/>
<path d="M21.0869 10.5652H23V12.4783" stroke="#191919" stroke-linecap="round" stroke-linejoin="round"/>
<path d="M2.91304 10.5652H1V12.4783" stroke="#191919" stroke-linecap="round" stroke-linejoin="round"/>
<path d="M21.0869 9.60871V11.5218C21.0869 11.2681 20.9861 11.0248 20.8067 10.8454C20.6273 10.666 20.384 10.5652 20.1303 10.5652H18.2173V8.65219H20.1303C20.2559 8.65219 20.3803 8.67693 20.4964 8.725C20.6124 8.77307 20.7179 8.84353 20.8067 8.93235C20.8955 9.02117 20.966 9.12662 21.014 9.24267C21.0621 9.35872 21.0869 9.4831 21.0869 9.60871Z" fill="#808080"/>
<path d="M5.78216 8.65219V10.5652H3.86912C3.61543 10.5652 3.37214 10.666 3.19276 10.8454C3.01337 11.0248 2.9126 11.2681 2.9126 11.5218V9.60871C2.9126 9.35503 3.01337 9.11173 3.19276 8.93235C3.37214 8.75297 3.61543 8.65219 3.86912 8.65219H5.78216Z" fill="#808080"/>
<path d="M21.0869 9.60871V13.4348C21.0869 13.6885 20.9861 13.9318 20.8067 14.1112C20.6273 14.2905 20.384 14.3913 20.1303 14.3913C20.1288 13.8844 19.9268 13.3987 19.5683 13.0403C19.2099 12.6818 18.7242 12.4798 18.2173 12.4783V8.65219H20.1303C20.384 8.65219 20.6273 8.75297 20.8067 8.93235C20.9861 9.11173 21.0869 9.35503 21.0869 9.60871Z" stroke="#191919" stroke-linecap="round" stroke-linejoin="round"/>
<path d="M5.78216 8.65219V12.4783C5.27526 12.4798 4.78955 12.6818 4.43111 13.0403C4.07267 13.3987 3.87063 13.8844 3.86912 14.3913C3.61543 14.3913 3.37214 14.2905 3.19276 14.1112C3.01337 13.9318 2.9126 13.6885 2.9126 13.4348V9.60871C2.9126 9.35503 3.01337 9.11173 3.19276 8.93235C3.37214 8.75297 3.61543 8.65219 3.86912 8.65219H5.78216Z" stroke="#191919" stroke-linecap="round" stroke-linejoin="round"/>
<path d="M18.217 6.18435V12.4783H16.677C16.4592 12.4791 16.2483 12.5545 16.0795 12.692C15.9106 12.8296 15.794 13.0208 15.7492 13.2339C15.5274 14.0371 15.0304 14.7368 14.345 15.2107C13.6596 15.6845 12.8294 15.9024 11.9996 15.8261C11.1698 15.9025 10.3396 15.6848 9.6541 15.2109C8.96864 14.737 8.47164 14.0372 8.25005 13.2339C8.20535 13.0207 8.08881 12.8294 7.91992 12.6918C7.75103 12.5543 7.54004 12.4789 7.32223 12.4783H5.78223V1.95652C5.78223 1.83091 5.80697 1.70653 5.85504 1.59048C5.90311 1.47443 5.97356 1.36898 6.06239 1.28016C6.15121 1.19134 6.25665 1.12088 6.3727 1.07281C6.48875 1.02474 6.61314 1 6.73875 1H13.0422C13.1781 1 13.311 1.0287 13.4344 1.08609V5.78261H18.1309C18.1887 5.90861 18.2181 6.04575 18.217 6.18435Z" stroke="#191919" stroke-linecap="round" stroke-linejoin="round"/>
<path d="M18.1215 5.78262H13.4346V1.09567C13.5398 1.13584 13.6335 1.19802 13.712 1.27741L17.9398 5.50523C18.0163 5.58654 18.0766 5.68028 18.1215 5.78262Z" stroke="#191919" stroke-linecap="round" stroke-linejoin="round"/>
<path d="M7.69567 18.2174C7.63225 18.2174 7.57143 18.1922 7.52658 18.1474C7.48174 18.1025 7.45654 18.0417 7.45654 17.9783C7.45654 17.9148 7.48174 17.854 7.52658 17.8092C7.57143 17.7643 7.63225 17.7391 7.69567 17.7391" stroke="#191919"/>
<path d="M7.69531 18.2174C7.75873 18.2174 7.81956 18.1922 7.8644 18.1474C7.90925 18.1025 7.93444 18.0417 7.93444 17.9783C7.93444 17.9148 7.90925 17.854 7.8644 17.8092C7.81956 17.7643 7.75873 17.7391 7.69531 17.7391" stroke="#191919"/>
<path d="M10.5653 18.2174C10.5019 18.2174 10.4411 18.1922 10.3962 18.1474C10.3514 18.1025 10.3262 18.0417 10.3262 17.9783C10.3262 17.9148 10.3514 17.854 10.3962 17.8092C10.4411 17.7643 10.5019 17.7391 10.5653 17.7391" stroke="#191919"/>
<path d="M10.5649 18.2174C10.6284 18.2174 10.6892 18.1922 10.734 18.1474C10.7789 18.1025 10.8041 18.0417 10.8041 17.9783C10.8041 17.9148 10.7789 17.854 10.734 17.8092C10.6892 17.7643 10.6284 17.7391 10.5649 17.7391" stroke="#191919"/>
<path d="M13.4349 18.2174C13.3715 18.2174 13.3107 18.1922 13.2658 18.1474C13.221 18.1025 13.1958 18.0417 13.1958 17.9783C13.1958 17.9148 13.221 17.854 13.2658 17.8092C13.3107 17.7643 13.3715 17.7391 13.4349 17.7391" stroke="#191919"/>
<path d="M13.4346 18.2174C13.498 18.2174 13.5588 18.1922 13.6037 18.1474C13.6485 18.1025 13.6737 18.0417 13.6737 17.9783C13.6737 17.9148 13.6485 17.854 13.6037 17.8092C13.5588 17.7643 13.498 17.7391 13.4346 17.7391" stroke="#191919"/>
<path d="M16.3046 18.2174C16.2411 18.2174 16.1803 18.1922 16.1355 18.1474C16.0906 18.1025 16.0654 18.0417 16.0654 17.9783C16.0654 17.9148 16.0906 17.854 16.1355 17.8092C16.1803 17.7643 16.2411 17.7391 16.3046 17.7391" stroke="#191919"/>
<path d="M16.3042 18.2174C16.3676 18.2174 16.4284 18.1922 16.4733 18.1474C16.5181 18.1025 16.5433 18.0417 16.5433 17.9783C16.5433 17.9148 16.5181 17.854 16.4733 17.8092C16.4284 17.7643 16.3676 17.7391 16.3042 17.7391" stroke="#191919"/>
<path d="M17.7391 20.6087C17.6757 20.6087 17.6149 20.5835 17.57 20.5387C17.5252 20.4938 17.5 20.433 17.5 20.3696C17.5 20.3062 17.5252 20.2453 17.57 20.2005C17.6149 20.1557 17.6757 20.1305 17.7391 20.1305" stroke="#191919"/>
<path d="M17.7388 20.6087C17.8022 20.6087 17.863 20.5835 17.9079 20.5387C17.9527 20.4938 17.9779 20.433 17.9779 20.3696C17.9779 20.3062 17.9527 20.2453 17.9079 20.2005C17.863 20.1557 17.8022 20.1305 17.7388 20.1305" stroke="#191919"/>
<path d="M6.2611 20.6087C6.19768 20.6087 6.13686 20.5835 6.09201 20.5387C6.04717 20.4938 6.02197 20.433 6.02197 20.3696C6.02197 20.3062 6.04717 20.2453 6.09201 20.2005C6.13686 20.1557 6.19768 20.1305 6.2611 20.1305" stroke="#191919"/>
<path d="M6.26074 20.6087C6.32416 20.6087 6.38499 20.5835 6.42983 20.5387C6.47468 20.4938 6.49987 20.433 6.49987 20.3696C6.49987 20.3062 6.47468 20.2453 6.42983 20.2005C6.38499 20.1557 6.32416 20.1305 6.26074 20.1305" stroke="#191919"/>
<path d="M9.13024 20.6087C9.06682 20.6087 9.006 20.5835 8.96115 20.5387C8.91631 20.4938 8.89111 20.433 8.89111 20.3696C8.89111 20.3062 8.91631 20.2453 8.96115 20.2005C9.006 20.1557 9.06682 20.1305 9.13024 20.1305" stroke="#191919"/>
<path d="M9.13037 20.6087C9.19379 20.6087 9.25462 20.5835 9.29946 20.5387C9.34431 20.4938 9.3695 20.433 9.3695 20.3696C9.3695 20.3062 9.34431 20.2453 9.29946 20.2005C9.25462 20.1557 9.19379 20.1305 9.13037 20.1305" stroke="#191919"/>
<path d="M11.9999 20.6087C11.9365 20.6087 11.8756 20.5835 11.8308 20.5387C11.7859 20.4938 11.7607 20.433 11.7607 20.3696C11.7607 20.3062 11.7859 20.2453 11.8308 20.2005C11.8756 20.1557 11.9365 20.1305 11.9999 20.1305" stroke="#191919"/>
<path d="M11.9995 20.6087C12.0629 20.6087 12.1238 20.5835 12.1686 20.5387C12.2134 20.4938 12.2386 20.433 12.2386 20.3696C12.2386 20.3062 12.2134 20.2453 12.1686 20.2005C12.1238 20.1557 12.0629 20.1305 11.9995 20.1305" stroke="#191919"/>
<path d="M14.8695 20.6087C14.8061 20.6087 14.7453 20.5835 14.7004 20.5387C14.6556 20.4938 14.6304 20.433 14.6304 20.3696C14.6304 20.3062 14.6556 20.2453 14.7004 20.2005C14.7453 20.1557 14.8061 20.1305 14.8695 20.1305" stroke="#191919"/>
<path d="M14.8691 20.6087C14.9326 20.6087 14.9934 20.5835 15.0382 20.5387C15.0831 20.4938 15.1083 20.433 15.1083 20.3696C15.1083 20.3062 15.0831 20.2453 15.0382 20.2005C14.9934 20.1557 14.9326 20.1305 14.8691 20.1305" stroke="#191919"/>
</g>
<defs>
<clipPath id="clip0_5303_5132">
<rect width="24" height="24" fill="white"/>
</clipPath>
</defs>
</svg>
