<svg width="24" height="24" viewBox="0 0 24 24" fill="none" xmlns="http://www.w3.org/2000/svg">
<g clip-path="url(#clip0_5303_2813)">
<path d="M17.8579 3.70142C17.9861 3.70142 18.1131 3.72672 18.2315 3.77582C18.3499 3.82492 18.4576 3.89672 18.5483 3.98742C18.6389 4.07812 18.7109 4.18572 18.7599 4.30412C18.809 4.42262 18.8342 4.54952 18.8342 4.67782V21.275C18.8342 21.5339 18.7314 21.7822 18.5483 21.9654C18.3652 22.1484 18.1168 22.2512 17.8579 22.2512H2.23704C1.97814 22.2512 1.72984 22.1484 1.54674 21.9654C1.36364 21.7822 1.26074 21.5339 1.26074 21.275V4.67782C1.26074 4.41882 1.36364 4.17052 1.54674 3.98742C1.72984 3.80432 1.97814 3.70142 2.23704 3.70142H17.8579Z" fill="#FFDDA1"/>
<path d="M14.441 6.14222C14.441 6.40122 14.3381 6.64952 14.155 6.83262C13.9719 7.01572 13.7235 7.11852 13.4646 7.11852H6.63047C6.50227 7.11852 6.37527 7.09332 6.25687 7.04422C6.13837 6.99512 6.03077 6.92322 5.94017 6.83262C5.84957 6.74202 5.77757 6.63432 5.72847 6.51582C5.67947 6.39742 5.65417 6.27042 5.65417 6.14222V3.70142H14.441V6.14222Z" fill="#FFBC44"/>
<path d="M17.8577 22.2512C18.1166 22.2512 18.365 22.1484 18.5481 21.9653C18.7312 21.7822 18.834 21.5338 18.834 21.2749V8.58289H11.5117C11.2528 8.58289 11.0044 8.68579 10.8214 8.86889C10.6384 9.05199 10.5354 9.30029 10.5354 9.55919V22.2512H17.8577Z" fill="#FFBC44"/>
<path d="M10.0475 22.2512H2.23704C2.10884 22.2512 1.98194 22.226 1.86344 22.177C1.74504 22.1279 1.63734 22.056 1.54674 21.9654C1.36364 21.7822 1.26074 21.5339 1.26074 21.275V4.67782C1.26074 4.41882 1.36364 4.17052 1.54674 3.98742C1.72984 3.80432 1.97814 3.70142 2.23704 3.70142H6.14234" stroke="#191919" stroke-linecap="round" stroke-linejoin="round"/>
<path d="M13.9526 3.70142H17.8579C17.986 3.70142 18.113 3.72672 18.2315 3.77582C18.3499 3.82482 18.4575 3.89672 18.5482 3.98742C18.6389 4.07812 18.7108 4.18572 18.7599 4.30412C18.8089 4.42262 18.8341 4.54952 18.8341 4.67782V8.09482" stroke="#191919" stroke-linecap="round" stroke-linejoin="round"/>
<path d="M11.9998 2.72512C11.9998 2.46872 11.9494 2.21482 11.8513 1.97792C11.7531 1.74102 11.6093 1.52582 11.4279 1.34442C11.2466 1.16312 11.0314 1.01932 10.7945 0.921222C10.5575 0.823022 10.3037 0.772522 10.0472 0.772522C9.79077 0.772522 9.53687 0.823022 9.29997 0.921222C9.06307 1.01932 8.84777 1.16312 8.66647 1.34442C8.48517 1.52582 8.34137 1.74102 8.24317 1.97792C8.14507 2.21482 8.09457 2.46872 8.09457 2.72512H6.14197V5.65412H13.9524V2.72512H11.9998Z" fill="#E4F1F5" stroke="#191919" stroke-linecap="round" stroke-linejoin="round"/>
<path d="M22.7392 22.2512C22.7392 22.5102 22.6364 22.7584 22.4533 22.9415C22.2701 23.1246 22.0219 23.2275 21.7629 23.2275H12.9762C12.7173 23.2275 12.4689 23.1246 12.2858 22.9415C12.1027 22.7584 11.9998 22.5102 11.9998 22.2512V11.0237C11.9998 10.7648 12.1027 10.5164 12.2858 10.3333C12.4689 10.1502 12.7173 10.0473 12.9762 10.0473H19.8943C20.1532 10.0474 20.4015 10.1503 20.5846 10.3334L22.4532 12.2021C22.6363 12.3851 22.7392 12.6334 22.7392 12.8923V22.2512Z" fill="white" stroke="#191919" stroke-linecap="round" stroke-linejoin="round"/>
<path d="M14.9288 14.4407H19.8103" stroke="#191919" stroke-linecap="round" stroke-linejoin="round"/>
<path d="M14.9288 17.3696H19.8103" stroke="#191919" stroke-linecap="round" stroke-linejoin="round"/>
</g>
<defs>
<clipPath id="clip0_5303_2813">
<rect width="24" height="24" fill="white"/>
</clipPath>
</defs>
</svg>
