<svg width="24" height="24" viewBox="0 0 24 24" fill="none" xmlns="http://www.w3.org/2000/svg">
<g clip-path="url(#clip0_5303_6360)">
<path d="M21.087 4.34784H2.91304C2.40613 4.34935 1.92043 4.55139 1.56199 4.90982C1.20355 5.26827 1.00151 5.75397 1 6.26088V17.7391C1.00151 18.246 1.20355 18.7317 1.56199 19.0902C1.92043 19.4486 2.40613 19.6507 2.91304 19.6522H21.087C21.5943 19.6522 22.0809 19.4506 22.4397 19.0919C22.7985 18.7331 23 18.2465 23 17.7391V6.26088C23 5.75351 22.7985 5.26692 22.4397 4.90816C22.0809 4.54939 21.5943 4.34784 21.087 4.34784Z" fill="#FFEF5E"/>
<path d="M2.91304 4.34784C2.40613 4.34935 1.92043 4.55139 1.56199 4.90982C1.20355 5.26827 1.00151 5.75397 1 6.26088V17.7391C1.0018 18.1864 1.15985 18.619 1.44683 18.962C1.73381 19.3051 2.13166 19.537 2.57157 19.6178L17.8443 4.34784H2.91304Z" fill="#FFF9BF"/>
<path d="M23 6.26088V8.17393H1V6.26088C1.00151 5.75397 1.20355 5.26827 1.56199 4.90982C1.92043 4.55139 2.40613 4.34935 2.91304 4.34784H21.087C21.5943 4.34784 22.0809 4.54939 22.4397 4.90816C22.7985 5.26692 23 5.75351 23 6.26088Z" stroke="#191919" stroke-linecap="round" stroke-linejoin="round"/>
<path d="M23 8.17383V17.739C23 18.2464 22.7985 18.733 22.4397 19.0918C22.0809 19.4505 21.5943 19.6521 21.087 19.6521H2.91304C2.40613 19.6506 1.92043 19.4485 1.56199 19.0901C1.20355 18.7316 1.00151 18.2459 1 17.739V8.17383H23Z" stroke="#191919" stroke-linecap="round" stroke-linejoin="round"/>
<path d="M20.1376 12H17.2681" stroke="#191919" stroke-linecap="round" stroke-linejoin="round"/>
<path d="M11.5296 12H3.87744" stroke="#191919" stroke-linecap="round" stroke-linejoin="round"/>
<path d="M6.74701 14.8696H3.87744" stroke="#191919" stroke-linecap="round" stroke-linejoin="round"/>
</g>
<defs>
<clipPath id="clip0_5303_6360">
<rect width="24" height="24" fill="white"/>
</clipPath>
</defs>
</svg>
