<svg width="24" height="24" viewBox="0 0 24 24" fill="none" xmlns="http://www.w3.org/2000/svg">
<g clip-path="url(#clip0_5303_6036)">
<path d="M1 5.78261C1 5.27524 1.20155 4.78865 1.56032 4.42989C1.91908 4.07112 2.40567 3.86957 2.91304 3.86957H21.087C21.5943 3.86957 22.0809 4.07112 22.4397 4.42989C22.7984 4.78865 23 5.27524 23 5.78261V18.2174C23 18.7248 22.7984 19.2114 22.4397 19.5701C22.0809 19.9289 21.5943 20.1304 21.087 20.1304H2.91304C2.40567 20.1304 1.91908 19.9289 1.56032 19.5701C1.20155 19.2114 1 18.7248 1 18.2174V5.78261Z" fill="#66E1FF"/>
<path d="M2.91304 3.86957C2.40567 3.86957 1.91908 4.07112 1.56032 4.42989C1.20155 4.78865 1 5.27524 1 5.78261V18.2174C1 18.7148 1.19513 19.193 1.5433 19.5498L17.2245 3.86957H2.91304Z" fill="#C2F3FF"/>
<path d="M1 5.78261C1 5.27524 1.20155 4.78865 1.56032 4.42989C1.91908 4.07112 2.40567 3.86957 2.91304 3.86957H21.087C21.5943 3.86957 22.0809 4.07112 22.4397 4.42989C22.7984 4.78865 23 5.27524 23 5.78261V18.2174C23 18.7248 22.7984 19.2114 22.4397 19.5701C22.0809 19.9289 21.5943 20.1304 21.087 20.1304H2.91304C2.40567 20.1304 1.91908 19.9289 1.56032 19.5701C1.20155 19.2114 1 18.7248 1 18.2174V5.78261Z" stroke="#191919" stroke-linecap="round" stroke-linejoin="round"/>
<path d="M5.25977 10.086H6.48507L6.83133 13.5295C6.84073 13.6225 6.88031 13.7099 6.94401 13.7784C7.00772 13.8468 7.09206 13.8925 7.18417 13.9086C7.27629 13.9246 7.37112 13.9101 7.45421 13.8672C7.5373 13.8243 7.60408 13.7554 7.64437 13.6711L9.41777 9.98175" stroke="#191919" stroke-linecap="round" stroke-linejoin="round"/>
<path d="M11.1478 10.0582L10.374 13.9436" stroke="#191919" stroke-linecap="round" stroke-linejoin="round"/>
<path d="M14.7054 10.0133C14.7054 10.0133 13.3902 9.66898 12.9416 10.417C12.4929 11.165 13.196 11.6423 13.6589 11.9264C14.1219 12.2105 14.6308 12.6438 14.4959 13.1517C14.361 13.6596 13.7938 14.4076 12.2959 13.8844" stroke="#191919" stroke-linecap="round" stroke-linejoin="round"/>
<path d="M15.8271 13.9427L17.6254 10.3184C17.6659 10.2369 17.7321 10.1708 17.8137 10.1303C17.8953 10.0899 17.9879 10.0772 18.0774 10.0944C18.1668 10.1115 18.2482 10.1574 18.3091 10.2252C18.37 10.293 18.407 10.3788 18.4145 10.4696L18.7015 13.8834" stroke="#191919" stroke-linecap="round" stroke-linejoin="round"/>
<path d="M16.3945 12.7939H18.6213" stroke="#191919" stroke-linecap="round" stroke-linejoin="round"/>
</g>
<defs>
<clipPath id="clip0_5303_6036">
<rect width="24" height="24" fill="white"/>
</clipPath>
</defs>
</svg>
