<svg width="24" height="24" viewBox="0 0 24 24" fill="none" xmlns="http://www.w3.org/2000/svg">
<g clip-path="url(#clip0_5303_6134)">
<path d="M22.9998 11.5218V19.1739H15.3477V11.5218C15.3477 11.2681 15.4484 11.0248 15.6278 10.8454C15.8072 10.666 16.0505 10.5652 16.3042 10.5652H22.0433C22.297 10.5652 22.5403 10.666 22.7197 10.8454C22.899 11.0248 22.9998 11.2681 22.9998 11.5218Z" fill="#66E1FF"/>
<path d="M22.7129 10.8388C22.5346 10.6627 22.2939 10.5644 22.0433 10.5653H16.3042C16.0505 10.5653 15.8072 10.666 15.6278 10.8454C15.4484 11.0248 15.3477 11.2681 15.3477 11.5218V18.2031L22.7129 10.8388Z" fill="#C2F3FF"/>
<path d="M11.5217 1H2.91304C2.40614 1.00151 1.92043 1.20355 1.56199 1.56199C1.20355 1.92043 1.00151 2.40614 1 2.91304V8.65216C1.00151 9.15906 1.20355 9.64477 1.56199 10.0032C1.92043 10.3616 2.40614 10.5637 2.91304 10.5652H11.5217C12.0291 10.5652 12.5157 10.3636 12.8744 10.0049C13.2332 9.64612 13.4348 9.15953 13.4348 8.65216V2.91304C13.4348 2.40567 13.2332 1.91908 12.8744 1.56032C12.5157 1.20155 12.0291 1 11.5217 1Z" fill="#FFEF5E"/>
<path d="M2.91304 1C2.40614 1.00151 1.92043 1.20355 1.56199 1.56199C1.20355 1.92043 1.00151 2.40614 1 2.91304V8.65216C1.00146 8.94424 1.07001 9.23207 1.20037 9.49345C1.33073 9.75482 1.5194 9.98275 1.75182 10.1596L10.9115 1H2.91304Z" fill="#FFF9BF"/>
<path d="M8.17383 22.5218L10.0869 20.6087L8.17383 18.6957" stroke="#191919" stroke-linecap="round" stroke-linejoin="round"/>
<path d="M22.9998 11.5218V19.1739H15.3477V11.5218C15.3477 11.2681 15.4484 11.0248 15.6278 10.8454C15.8072 10.666 16.0505 10.5652 16.3042 10.5652H22.0433C22.297 10.5652 22.5403 10.666 22.7197 10.8454C22.899 11.0248 22.9998 11.2681 22.9998 11.5218Z" stroke="#191919" stroke-linecap="round" stroke-linejoin="round"/>
<path d="M22.9998 19.174V22.0435C22.9998 22.2972 22.899 22.5405 22.7197 22.7199C22.5403 22.8993 22.297 23 22.0433 23H16.3042C16.0505 23 15.8072 22.8993 15.6278 22.7199C15.4484 22.5405 15.3477 22.2972 15.3477 22.0435V19.174H22.9998Z" fill="white" stroke="#191919" stroke-linecap="round" stroke-linejoin="round"/>
<path d="M4.34717 15.8261C4.34717 17.0945 4.85105 18.311 5.74796 19.2079C6.64487 20.1048 7.86134 20.6087 9.12977 20.6087H10.0863" stroke="#191919" stroke-linecap="round" stroke-linejoin="round"/>
<path d="M19.1733 1.47833L17.2603 3.39137L19.1733 5.30441" stroke="#191919" stroke-linecap="round" stroke-linejoin="round"/>
<path d="M22.9994 8.17396C22.9994 6.90553 22.4955 5.68906 21.5986 4.79215C20.7017 3.89524 19.4852 3.39136 18.2168 3.39136H17.2603" stroke="#191919" stroke-linecap="round" stroke-linejoin="round"/>
<path d="M13.4348 2.91304V3.86956H1V2.91304C1.00151 2.40614 1.20355 1.92043 1.56199 1.56199C1.92043 1.20355 2.40614 1.00151 2.91304 1H11.5217C12.0291 1 12.5157 1.20155 12.8744 1.56032C13.2332 1.91908 13.4348 2.40567 13.4348 2.91304Z" stroke="#191919" stroke-linecap="round" stroke-linejoin="round"/>
<path d="M13.4348 3.86957V8.65217C13.4348 9.15954 13.2332 9.64613 12.8744 10.0049C12.5157 10.3637 12.0291 10.5652 11.5217 10.5652H2.91304C2.40614 10.5637 1.92043 10.3617 1.56199 10.0032C1.20355 9.64478 1.00151 9.15907 1 8.65217V3.86957H13.4348Z" stroke="#191919" stroke-linecap="round" stroke-linejoin="round"/>
<path d="M3.39111 5.78265H7.69545" stroke="#191919" stroke-linecap="round" stroke-linejoin="round"/>
<path d="M3.39111 7.69568H5.30415" stroke="#191919" stroke-linecap="round" stroke-linejoin="round"/>
<path d="M19.1737 21.3261C19.1103 21.3261 19.0495 21.3009 19.0046 21.2561C18.9598 21.2112 18.9346 21.1504 18.9346 21.087C18.9346 21.0235 18.9598 20.9627 19.0046 20.9179C19.0495 20.873 19.1103 20.8478 19.1737 20.8478" stroke="#191919"/>
<path d="M19.1738 21.3261C19.2372 21.3261 19.2981 21.3009 19.3429 21.2561C19.3878 21.2112 19.413 21.1504 19.413 21.087C19.413 21.0235 19.3878 20.9627 19.3429 20.9179C19.2981 20.873 19.2372 20.8478 19.1738 20.8478" stroke="#191919"/>
</g>
<defs>
<clipPath id="clip0_5303_6134">
<rect width="24" height="24" fill="white"/>
</clipPath>
</defs>
</svg>
