<svg width="24" height="24" viewBox="0 0 24 24" fill="none" xmlns="http://www.w3.org/2000/svg">
<g clip-path="url(#clip0_5303_6296)">
<path d="M12 23C14.1756 23 16.3023 22.3549 18.1113 21.1462C19.9202 19.9375 21.3301 18.2195 22.1627 16.2095C22.9952 14.1995 23.2131 11.9878 22.7886 9.85401C22.3642 7.72022 21.3166 5.76021 19.7782 4.22183C18.2398 2.68345 16.2798 1.6358 14.146 1.21137C12.0122 0.786926 9.80047 1.00477 7.79048 1.83733C5.78049 2.66989 4.06253 4.07979 2.85383 5.88873C1.64514 7.69767 1 9.82441 1 12C1 14.9174 2.15893 17.7153 4.22183 19.7782C6.28473 21.8411 9.08262 23 12 23Z" fill="#FFEF5E"/>
<path d="M11.9997 1.00001C9.82484 1.00008 7.69884 1.64483 5.89033 2.85278C4.08182 4.06073 2.67197 5.77766 1.83893 7.78662C1.0059 9.79558 0.787074 12.0064 1.21011 14.1397C1.63314 16.2729 2.67905 18.233 4.21566 19.772L19.7717 4.21601C18.7517 3.19476 17.5401 2.38496 16.2064 1.83308C14.8726 1.2812 13.4431 0.998093 11.9997 1.00001Z" fill="#FFF9BF"/>
<path d="M12 23C14.1756 23 16.3023 22.3549 18.1113 21.1462C19.9202 19.9375 21.3301 18.2195 22.1627 16.2095C22.9952 14.1995 23.2131 11.9878 22.7886 9.85401C22.3642 7.72022 21.3166 5.76021 19.7782 4.22183C18.2398 2.68345 16.2798 1.6358 14.146 1.21137C12.0122 0.786926 9.80047 1.00477 7.79048 1.83733C5.78049 2.66989 4.06253 4.07979 2.85383 5.88873C1.64514 7.69767 1 9.82441 1 12C1 14.9174 2.15893 17.7153 4.22183 19.7782C6.28473 21.8411 9.08262 23 12 23Z" stroke="#191919" stroke-linecap="round" stroke-linejoin="round"/>
<path d="M11.0005 4.49994L8.62045 16.3999C8.60562 16.4726 8.60713 16.5476 8.62489 16.6196C8.64264 16.6916 8.67619 16.7587 8.72309 16.8162C8.76999 16.8736 8.82908 16.9199 8.89607 16.9517C8.96307 16.9834 9.0363 16.9999 9.11045 16.9999H17.5005" stroke="#191919" stroke-linecap="round" stroke-linejoin="round"/>
<path d="M5.99902 13.5L13.999 10" stroke="#191919" stroke-linecap="round" stroke-linejoin="round"/>
</g>
<defs>
<clipPath id="clip0_5303_6296">
<rect width="24" height="24" fill="white"/>
</clipPath>
</defs>
</svg>
