<svg width="24" height="24" viewBox="0 0 24 24" fill="none" xmlns="http://www.w3.org/2000/svg">
<g clip-path="url(#clip0_5303_6170)">
<path d="M12 23C14.9174 23 17.7153 21.8411 19.7782 19.7782C21.8411 17.7153 23 14.9174 23 12C23 9.08262 21.8411 6.28473 19.7782 4.22183C17.7153 2.15893 14.9174 1 12 1C9.08262 1 6.28473 2.15893 4.22183 4.22183C2.15893 6.28473 1 9.08262 1 12C1 14.9174 2.15893 17.7153 4.22183 19.7782C6.28473 21.8411 9.08262 23 12 23Z" fill="#FFEF5E"/>
<path d="M12.0001 1.00001C9.80812 1.00019 7.66622 1.65523 5.84912 2.88109C4.03202 4.10696 2.62259 5.84774 1.80163 7.88014C0.98068 9.91253 0.785639 12.1439 1.24153 14.2879C1.69743 16.4319 2.78346 18.3908 4.36033 19.9133L19.9134 4.36027C18.8887 3.29607 17.6595 2.44987 16.2997 1.87244C14.9399 1.29501 13.4774 0.998264 12.0001 1.00001Z" fill="#FFF9BF"/>
<path d="M12 23C14.9174 23 17.7153 21.8411 19.7782 19.7782C21.8411 17.7153 23 14.9174 23 12C23 9.08262 21.8411 6.28473 19.7782 4.22183C17.7153 2.15893 14.9174 1 12 1C9.08262 1 6.28473 2.15893 4.22183 4.22183C2.15893 6.28473 1 9.08262 1 12C1 14.9174 2.15893 17.7153 4.22183 19.7782C6.28473 21.8411 9.08262 23 12 23Z" stroke="#191919" stroke-linecap="round" stroke-linejoin="round"/>
<path d="M14.3908 10.0869C14.3908 10.3382 14.3413 10.5869 14.2452 10.819C14.149 11.0511 14.0081 11.262 13.8305 11.4397C13.6528 11.6173 13.4419 11.7582 13.2098 11.8544C12.9777 11.9505 12.729 12 12.4777 12H10.0864V8.17389H12.4777C12.9851 8.17389 13.4717 8.37544 13.8305 8.73421C14.1892 9.09297 14.3908 9.57956 14.3908 10.0869Z" stroke="#191919" stroke-linecap="round" stroke-linejoin="round"/>
<path d="M14.3908 13.9131C14.3908 14.1643 14.3413 14.4131 14.2452 14.6452C14.149 14.8773 14.0081 15.0882 13.8305 15.2658C13.6528 15.4435 13.4419 15.5844 13.2098 15.6805C12.9777 15.7767 12.729 15.8261 12.4777 15.8261H10.0864V12.0001H12.4777C12.9851 12.0001 13.4717 12.2016 13.8305 12.5604C14.1892 12.9191 14.3908 13.4057 14.3908 13.9131Z" stroke="#191919" stroke-linecap="round" stroke-linejoin="round"/>
<path d="M11.521 7.21747V8.17399" stroke="#191919" stroke-linecap="round" stroke-linejoin="round"/>
<path d="M11.521 15.8262V16.7827" stroke="#191919" stroke-linecap="round" stroke-linejoin="round"/>
<path d="M14.3908 10.0869C14.3908 10.3382 14.3413 10.5869 14.2452 10.819C14.149 11.0511 14.0081 11.262 13.8305 11.4397C13.6528 11.6173 13.4419 11.7582 13.2098 11.8544C12.9777 11.9505 12.729 12 12.4777 12H10.0864V8.17389H12.4777C12.9851 8.17389 13.4717 8.37544 13.8305 8.73421C14.1892 9.09297 14.3908 9.57956 14.3908 10.0869Z" stroke="#191919" stroke-linecap="round" stroke-linejoin="round"/>
<path d="M14.3908 13.9131C14.3908 14.1643 14.3413 14.4131 14.2452 14.6452C14.149 14.8773 14.0081 15.0882 13.8305 15.2658C13.6528 15.4435 13.4419 15.5844 13.2098 15.6805C12.9777 15.7767 12.729 15.8261 12.4777 15.8261H10.0864V12.0001H12.4777C12.9851 12.0001 13.4717 12.2016 13.8305 12.5604C14.1892 12.9191 14.3908 13.4057 14.3908 13.9131Z" stroke="#191919" stroke-linecap="round" stroke-linejoin="round"/>
<path d="M11.521 7.21747V8.17399" stroke="#191919" stroke-linecap="round" stroke-linejoin="round"/>
<path d="M11.521 15.8262V16.7827" stroke="#191919" stroke-linecap="round" stroke-linejoin="round"/>
</g>
<defs>
<clipPath id="clip0_5303_6170">
<rect width="24" height="24" fill="white"/>
</clipPath>
</defs>
</svg>
