<svg width="24" height="24" viewBox="0 0 24 24" fill="none" xmlns="http://www.w3.org/2000/svg">
<g clip-path="url(#clip0_5303_6074)">
<path d="M12 23C14.1756 23 16.3023 22.3549 18.1113 21.1462C19.9202 19.9375 21.3301 18.2195 22.1627 16.2095C22.9952 14.1995 23.2131 11.9878 22.7886 9.85401C22.3642 7.72022 21.3166 5.76021 19.7782 4.22183C18.2398 2.68345 16.2798 1.6358 14.146 1.21137C12.0122 0.786926 9.80047 1.00477 7.79048 1.83733C5.78049 2.66989 4.06253 4.07979 2.85383 5.88873C1.64514 7.69767 1 9.82441 1 12C1 14.9174 2.15893 17.7153 4.22183 19.7782C6.28473 21.8411 9.08262 23 12 23Z" fill="#FFEF5E"/>
<path d="M11.9997 1.00001C9.82484 1.00008 7.69885 1.64483 5.89034 2.85278C4.08183 4.06073 2.67197 5.77766 1.83894 7.78662C1.0059 9.79558 0.787074 12.0064 1.21011 14.1397C1.63315 16.2729 2.67906 18.233 4.21567 19.772L19.7717 4.21601C18.7517 3.19476 17.5401 2.38496 16.2064 1.83308C14.8726 1.2812 13.4431 0.998093 11.9997 1.00001Z" fill="#FFF9BF"/>
<path d="M12 23C14.1756 23 16.3023 22.3549 18.1113 21.1462C19.9202 19.9375 21.3301 18.2195 22.1627 16.2095C22.9952 14.1995 23.2131 11.9878 22.7886 9.85401C22.3642 7.72022 21.3166 5.76021 19.7782 4.22183C18.2398 2.68345 16.2798 1.6358 14.146 1.21137C12.0122 0.786926 9.80047 1.00477 7.79048 1.83733C5.78049 2.66989 4.06253 4.07979 2.85383 5.88873C1.64514 7.69767 1 9.82441 1 12C1 14.9174 2.15893 17.7153 4.22183 19.7782C6.28473 21.8411 9.08262 23 12 23Z" stroke="#191919" stroke-linecap="round" stroke-linejoin="round"/>
<path d="M12.1097 7.00794C11.9916 7.38915 11.9675 7.79331 12.0396 8.18584C12.1117 8.57837 12.2778 8.9476 12.5237 9.26194L12.0307 10.0539C11.8509 10.3427 11.6005 10.5808 11.303 10.7458C11.0055 10.9109 10.6709 10.9973 10.3307 10.9969H9.78875C9.54318 10.4337 9.09934 9.98032 8.54151 9.72279C7.98368 9.46525 7.35069 9.42154 6.76275 9.59994C6.36325 9.71878 6.00045 9.93709 5.70836 10.2344C5.41627 10.5317 5.20445 10.8983 5.09275 11.2999C4.88879 11.9179 4.93386 12.5911 5.21839 13.1764C5.50291 13.7617 6.00447 14.213 6.61646 14.4343C7.22845 14.6557 7.90265 14.6297 8.49576 14.3618C9.08888 14.094 9.55417 13.6054 9.79275 12.9999H10.1367C10.5112 12.9989 10.8785 13.103 11.1967 13.3005C11.515 13.498 11.7713 13.7809 11.9367 14.1169L12.2987 14.8539C12.1357 15.1568 12.039 15.4909 12.0152 15.834C11.9914 16.1772 12.041 16.5214 12.1607 16.8439C12.3649 17.3866 12.7515 17.8415 13.2542 18.1306C13.7569 18.4197 14.3444 18.5251 14.9162 18.4286C15.4881 18.3322 16.0086 18.04 16.3887 17.602C16.7687 17.1641 16.9847 16.6076 16.9997 16.0279C16.9907 15.7061 16.9164 15.3894 16.7813 15.0972C16.6462 14.805 16.4531 14.5432 16.2137 14.3279C15.9405 13.9926 15.576 13.7437 15.1642 13.6114C14.7524 13.4792 14.311 13.4693 13.8937 13.5829L13.6327 13.0529C13.4831 12.7477 13.4138 12.4094 13.4313 12.0699C13.4488 11.7305 13.5526 11.4011 13.7327 11.1129L14.2827 10.2279C14.3567 10.2339 14.4277 10.2499 14.5027 10.2499C14.9652 10.2496 15.4185 10.121 15.8123 9.87845C16.206 9.63588 16.5248 9.28883 16.7331 8.87592C16.9414 8.46301 17.031 8.00041 16.9921 7.53957C16.9532 7.07873 16.7872 6.63772 16.5126 6.26559C16.238 5.89345 15.8656 5.60478 15.4367 5.43167C15.0079 5.25857 14.5394 5.20781 14.0834 5.28506C13.6274 5.3623 13.2018 5.56451 12.8539 5.86921C12.506 6.1739 12.2494 6.56913 12.1127 7.01094L12.1097 7.00794Z" fill="white" stroke="#191919" stroke-linecap="round" stroke-linejoin="round"/>
</g>
<defs>
<clipPath id="clip0_5303_6074">
<rect width="24" height="24" fill="white"/>
</clipPath>
</defs>
</svg>
