<svg width="24" height="24" viewBox="0 0 24 24" fill="none" xmlns="http://www.w3.org/2000/svg">
<g clip-path="url(#clip0_5303_6318)">
<path d="M3.86963 11.5217C3.86963 11.0144 4.07118 10.5278 4.42995 10.169C4.78871 9.81026 5.2753 9.6087 5.78267 9.6087H18.2175C18.7248 9.6087 19.2114 9.81026 19.5702 10.169C19.9289 10.5278 20.1305 11.0144 20.1305 11.5217V21.087C20.1305 21.5943 19.9289 22.0809 19.5702 22.4397C19.2114 22.7985 18.7248 23 18.2175 23H5.78267C5.2753 23 4.78871 22.7985 4.42995 22.4397C4.07118 22.0809 3.86963 21.5943 3.86963 21.087V11.5217Z" fill="#FFEF5E"/>
<path d="M12.0001 9.6087H5.78267C5.2753 9.6087 4.78871 9.81026 4.42995 10.169C4.07118 10.5278 3.86963 11.0144 3.86963 11.5217V21.087C3.86963 21.5943 4.07118 22.0809 4.42995 22.4397C4.78871 22.7985 5.2753 23 5.78267 23H12.0001V9.6087Z" fill="#FFF9BF"/>
<path d="M3.86963 11.5217C3.86963 11.0144 4.07118 10.5278 4.42995 10.169C4.78871 9.81026 5.2753 9.6087 5.78267 9.6087H18.2175C18.7248 9.6087 19.2114 9.81026 19.5702 10.169C19.9289 10.5278 20.1305 11.0144 20.1305 11.5217V21.087C20.1305 21.5943 19.9289 22.0809 19.5702 22.4397C19.2114 22.7985 18.7248 23 18.2175 23H5.78267C5.2753 23 4.78871 22.7985 4.42995 22.4397C4.07118 22.0809 3.86963 21.5943 3.86963 21.087V11.5217Z" stroke="#191919" stroke-linecap="round" stroke-linejoin="round"/>
<path d="M6.73926 6.26087C6.73926 5.57 6.87533 4.8859 7.13972 4.24762C7.4041 3.60934 7.79161 3.02939 8.28013 2.54087C8.76865 2.05236 9.3486 1.66484 9.98688 1.40046C10.6252 1.13608 11.3093 1 12.0001 1C12.691 1 13.3751 1.13608 14.0134 1.40046C14.6517 1.66484 15.2316 2.05236 15.7201 2.54087C16.2086 3.02939 16.5962 3.60934 16.8605 4.24762C17.1249 4.8859 17.261 5.57 17.261 6.26087V9.6087H6.73926V6.26087Z" stroke="#191919" stroke-linecap="round" stroke-linejoin="round"/>
<path d="M14.4391 14.3913C14.4391 14.6425 14.3896 14.8913 14.2935 15.1234C14.1974 15.3555 14.0564 15.5664 13.8788 15.744C13.7012 15.9217 13.4903 16.0626 13.2582 16.1587C13.0261 16.2549 12.7773 16.3044 12.5261 16.3044H10.1348V12.4783H12.5261C12.7773 12.4783 13.0261 12.5278 13.2582 12.6239C13.4903 12.72 13.7012 12.8609 13.8788 13.0386C14.0564 13.2162 14.1974 13.4271 14.2935 13.6592C14.3896 13.8913 14.4391 14.1401 14.4391 14.3913Z" stroke="#191919" stroke-linecap="round" stroke-linejoin="round"/>
<path d="M14.4391 18.2174C14.4391 18.4686 14.3896 18.7174 14.2935 18.9495C14.1974 19.1816 14.0564 19.3925 13.8788 19.5702C13.7012 19.7478 13.4903 19.8887 13.2582 19.9848C13.0261 20.081 12.7773 20.1305 12.5261 20.1305H10.1348V16.3044H12.5261C12.7773 16.3044 13.0261 16.3539 13.2582 16.45C13.4903 16.5461 13.7012 16.6871 13.8788 16.8647C14.0564 17.0423 14.1974 17.2532 14.2935 17.4853C14.3896 17.7174 14.4391 17.9662 14.4391 18.2174Z" stroke="#191919" stroke-linecap="round" stroke-linejoin="round"/>
<path d="M11.5693 11.5218V12.4783" stroke="#191919" stroke-linecap="round" stroke-linejoin="round"/>
<path d="M11.5693 20.1305V21.087" stroke="#191919" stroke-linecap="round" stroke-linejoin="round"/>
<path d="M14.4391 14.3913C14.4391 14.6425 14.3896 14.8913 14.2935 15.1234C14.1974 15.3555 14.0564 15.5664 13.8788 15.744C13.7012 15.9217 13.4903 16.0626 13.2582 16.1587C13.0261 16.2549 12.7773 16.3044 12.5261 16.3044H10.1348V12.4783H12.5261C12.7773 12.4783 13.0261 12.5278 13.2582 12.6239C13.4903 12.72 13.7012 12.8609 13.8788 13.0386C14.0564 13.2162 14.1974 13.4271 14.2935 13.6592C14.3896 13.8913 14.4391 14.1401 14.4391 14.3913Z" stroke="#191919" stroke-linecap="round" stroke-linejoin="round"/>
<path d="M14.4391 18.2174C14.4391 18.4686 14.3896 18.7174 14.2935 18.9495C14.1974 19.1816 14.0564 19.3925 13.8788 19.5702C13.7012 19.7478 13.4903 19.8887 13.2582 19.9848C13.0261 20.081 12.7773 20.1305 12.5261 20.1305H10.1348V16.3044H12.5261C12.7773 16.3044 13.0261 16.3539 13.2582 16.45C13.4903 16.5461 13.7012 16.6871 13.8788 16.8647C14.0564 17.0423 14.1974 17.2532 14.2935 17.4853C14.3896 17.7174 14.4391 17.9662 14.4391 18.2174Z" stroke="#191919" stroke-linecap="round" stroke-linejoin="round"/>
<path d="M11.5693 11.5218V12.4783" stroke="#191919" stroke-linecap="round" stroke-linejoin="round"/>
<path d="M11.5693 20.1305V21.087" stroke="#191919" stroke-linecap="round" stroke-linejoin="round"/>
</g>
<defs>
<clipPath id="clip0_5303_6318">
<rect width="24" height="24" fill="white"/>
</clipPath>
</defs>
</svg>
