<svg width="24" height="24" viewBox="0 0 24 24" fill="none" xmlns="http://www.w3.org/2000/svg">
<g clip-path="url(#clip0_5303_5899)">
<path d="M20.1309 3.27631H3.86963V18.7571H20.1309V3.27631Z" fill="#FFF9BF"/>
<path d="M1 1.91803C1 1.79119 1.05039 1.66954 1.14008 1.57984C1.22978 1.49015 1.35143 1.43976 1.47827 1.43976H6.26101C6.38785 1.43976 6.5095 1.49015 6.5992 1.57984C6.68889 1.66954 6.73928 1.79119 6.73928 1.91803V4.63462C6.73928 4.76147 6.68889 4.88312 6.5992 4.97281C6.5095 5.06251 6.38785 5.1129 6.26101 5.1129H1.47827C1.35143 5.1129 1.22978 5.06251 1.14008 4.97281C1.05039 4.88312 1 4.76147 1 4.63462V1.91803Z" fill="#66E1FF"/>
<path d="M1.47827 1.43976C1.35143 1.43976 1.22978 1.49015 1.14008 1.57984C1.05039 1.66954 1 1.79119 1 1.91803V4.63462C1 4.76147 1.05039 4.88312 1.14008 4.97281C1.22978 5.06251 1.35143 5.1129 1.47827 5.1129H1.50123L5.17437 1.43976H1.47827Z" fill="#C2F3FF"/>
<path d="M1 1.91803C1 1.79119 1.05039 1.66954 1.14008 1.57984C1.22978 1.49015 1.35143 1.43976 1.47827 1.43976H6.26101C6.38785 1.43976 6.5095 1.49015 6.5992 1.57984C6.68889 1.66954 6.73928 1.79119 6.73928 1.91803V4.63462C6.73928 4.76147 6.68889 4.88312 6.5992 4.97281C6.5095 5.06251 6.38785 5.1129 6.26101 5.1129H1.47827C1.35143 5.1129 1.22978 5.06251 1.14008 4.97281C1.05039 4.88312 1 4.76147 1 4.63462V1.91803Z" stroke="#191919" stroke-linecap="round" stroke-linejoin="round"/>
<path d="M1 17.5288C1 17.402 1.05039 17.2803 1.14008 17.1906C1.22978 17.1009 1.35143 17.0505 1.47827 17.0505H6.26101C6.38785 17.0505 6.5095 17.1009 6.5992 17.1906C6.68889 17.2803 6.73928 17.402 6.73928 17.5288V20.2454C6.73928 20.3722 6.68889 20.4939 6.5992 20.5836C6.5095 20.6733 6.38785 20.7237 6.26101 20.7237H1.47827C1.35143 20.7237 1.22978 20.6733 1.14008 20.5836C1.05039 20.4939 1 20.3722 1 20.2454V17.5288Z" fill="#66E1FF"/>
<path d="M1.47827 17.0505C1.35143 17.0505 1.22978 17.1009 1.14008 17.1906C1.05039 17.2803 1 17.402 1 17.5288V20.2454C1 20.3722 1.05039 20.4939 1.14008 20.5836C1.22978 20.6733 1.35143 20.7237 1.47827 20.7237H1.50123L5.17437 17.0505H1.47827Z" fill="#C2F3FF"/>
<path d="M1 17.5288C1 17.402 1.05039 17.2803 1.14008 17.1906C1.22978 17.1009 1.35143 17.0505 1.47827 17.0505H6.26101C6.38785 17.0505 6.5095 17.1009 6.5992 17.1906C6.68889 17.2803 6.73928 17.402 6.73928 17.5288V20.2454C6.73928 20.3722 6.68889 20.4939 6.5992 20.5836C6.5095 20.6733 6.38785 20.7237 6.26101 20.7237H1.47827C1.35143 20.7237 1.22978 20.6733 1.14008 20.5836C1.05039 20.4939 1 20.3722 1 20.2454V17.5288Z" stroke="#191919" stroke-linecap="round" stroke-linejoin="round"/>
<path d="M17.2607 1.91803C17.2607 1.79119 17.3111 1.66954 17.4008 1.57984C17.4905 1.49015 17.6122 1.43976 17.739 1.43976H22.5217C22.6486 1.43976 22.7702 1.49015 22.8599 1.57984C22.9496 1.66954 23 1.79119 23 1.91803V4.63462C23 4.76147 22.9496 4.88312 22.8599 4.97281C22.7702 5.06251 22.6486 5.1129 22.5217 5.1129H17.739C17.6122 5.1129 17.4905 5.06251 17.4008 4.97281C17.3111 4.88312 17.2607 4.76147 17.2607 4.63462V1.91803Z" fill="#66E1FF"/>
<path d="M17.739 1.43976C17.6122 1.43976 17.4905 1.49015 17.4008 1.57984C17.3111 1.66954 17.2607 1.79119 17.2607 1.91803V4.63462C17.2607 4.76147 17.3111 4.88312 17.4008 4.97281C17.4905 5.06251 17.6122 5.1129 17.739 5.1129H17.762L21.4351 1.43976H17.739Z" fill="#C2F3FF"/>
<path d="M3.86963 5.11279V6.94936" stroke="#191919" stroke-linecap="round" stroke-linejoin="round"/>
<path d="M2.43506 6.94946H5.3047" stroke="#191919" stroke-linecap="round" stroke-linejoin="round"/>
<path d="M17.2607 1.91803C17.2607 1.79119 17.3111 1.66954 17.4008 1.57984C17.4905 1.49015 17.6122 1.43976 17.739 1.43976H22.5217C22.6486 1.43976 22.7702 1.49015 22.8599 1.57984C22.9496 1.66954 23 1.79119 23 1.91803V4.63462C23 4.76147 22.9496 4.88312 22.8599 4.97281C22.7702 5.06251 22.6486 5.1129 22.5217 5.1129H17.739C17.6122 5.1129 17.4905 5.06251 17.4008 4.97281C17.3111 4.88312 17.2607 4.76147 17.2607 4.63462V1.91803Z" stroke="#191919" stroke-linecap="round" stroke-linejoin="round"/>
<path d="M17.2607 17.5288C17.2607 17.402 17.3111 17.2803 17.4008 17.1906C17.4905 17.1009 17.6122 17.0505 17.739 17.0505H22.5217C22.6486 17.0505 22.7702 17.1009 22.8599 17.1906C22.9496 17.2803 23 17.402 23 17.5288V20.2454C23 20.3722 22.9496 20.4939 22.8599 20.5836C22.7702 20.6733 22.6486 20.7237 22.5217 20.7237H17.739C17.6122 20.7237 17.4905 20.6733 17.4008 20.5836C17.3111 20.4939 17.2607 20.3722 17.2607 20.2454V17.5288Z" fill="#66E1FF"/>
<path d="M17.739 17.0505C17.6122 17.0505 17.4905 17.1009 17.4008 17.1906C17.3111 17.2803 17.2607 17.402 17.2607 17.5288V20.2454C17.2607 20.3722 17.3111 20.4939 17.4008 20.5836C17.4905 20.6733 17.6122 20.7237 17.739 20.7237H17.762L21.4351 17.0505H17.739Z" fill="#C2F3FF"/>
<path d="M17.2607 17.5288C17.2607 17.402 17.3111 17.2803 17.4008 17.1906C17.4905 17.1009 17.6122 17.0505 17.739 17.0505H22.5217C22.6486 17.0505 22.7702 17.1009 22.8599 17.1906C22.9496 17.2803 23 17.402 23 17.5288V20.2454C23 20.3722 22.9496 20.4939 22.8599 20.5836C22.7702 20.6733 22.6486 20.7237 22.5217 20.7237H17.739C17.6122 20.7237 17.4905 20.6733 17.4008 20.5836C17.3111 20.4939 17.2607 20.3722 17.2607 20.2454V17.5288Z" stroke="#191919" stroke-linecap="round" stroke-linejoin="round"/>
<path d="M20.1304 5.11279V6.94936" stroke="#191919" stroke-linecap="round" stroke-linejoin="round"/>
<path d="M18.6953 6.94946H21.565" stroke="#191919" stroke-linecap="round" stroke-linejoin="round"/>
<path d="M20.1304 20.7237V22.5603" stroke="#191919" stroke-linecap="round" stroke-linejoin="round"/>
<path d="M18.6953 22.5602H21.565" stroke="#191919" stroke-linecap="round" stroke-linejoin="round"/>
<path d="M3.86963 20.7237V22.5603" stroke="#191919" stroke-linecap="round" stroke-linejoin="round"/>
<path d="M2.43506 22.5602H5.3047" stroke="#191919" stroke-linecap="round" stroke-linejoin="round"/>
<path d="M10.6128 6.05035V7.86779" stroke="#191919" stroke-linecap="round" stroke-linejoin="round"/>
<path d="M12.5259 6.05035V7.86779" stroke="#191919" stroke-linecap="round" stroke-linejoin="round"/>
<path d="M10.6128 13.3965V15.214" stroke="#191919" stroke-linecap="round" stroke-linejoin="round"/>
<path d="M12.5259 13.3965V15.214" stroke="#191919" stroke-linecap="round" stroke-linejoin="round"/>
<path d="M14.4356 9.24516C14.4318 9.42982 14.3918 9.61195 14.3176 9.78112C14.2435 9.95029 14.1368 10.1032 14.0035 10.2311C13.8703 10.359 13.7131 10.4594 13.5411 10.5266C13.369 10.5938 13.1854 10.6264 13.0007 10.6226H9.65283V7.86773H13.0007C13.1854 7.86392 13.369 7.89654 13.5411 7.9637C13.7131 8.03087 13.8703 8.13128 14.0035 8.2592C14.1368 8.38711 14.2435 8.54002 14.3176 8.70919C14.3918 8.87837 14.4318 9.06049 14.4356 9.24516Z" stroke="#191919" stroke-linecap="round" stroke-linejoin="round"/>
<path d="M14.4356 12C14.4318 12.1847 14.3918 12.3668 14.3176 12.536C14.2435 12.7052 14.1368 12.8581 14.0035 12.986C13.8703 13.1139 13.7131 13.2143 13.5411 13.2815C13.369 13.3487 13.1854 13.3813 13.0007 13.3775H9.65283V10.6226H13.0007C13.1854 10.6188 13.369 10.6514 13.5411 10.7186C13.7131 10.7858 13.8703 10.8862 14.0035 11.0141C14.1368 11.142 14.2435 11.2949 14.3176 11.4641C14.3918 11.6333 14.4318 11.8154 14.4356 12Z" stroke="#191919" stroke-linecap="round" stroke-linejoin="round"/>
<path d="M8.65186 3.27631H15.3477" stroke="#191919" stroke-linecap="round" stroke-linejoin="round"/>
<path d="M8.65186 18.8872H15.3477" stroke="#191919" stroke-linecap="round" stroke-linejoin="round"/>
<path d="M20.1304 8.78601V15.214" stroke="#191919" stroke-linecap="round" stroke-linejoin="round"/>
<path d="M3.86963 8.78601V15.214" stroke="#191919" stroke-linecap="round" stroke-linejoin="round"/>
</g>
<defs>
<clipPath id="clip0_5303_5899">
<rect width="24" height="24" fill="white"/>
</clipPath>
</defs>
</svg>
