<svg width="24" height="24" viewBox="0 0 24 24" fill="none" xmlns="http://www.w3.org/2000/svg">
<g clip-path="url(#clip0_5303_6045)">
<path d="M12 23C14.1756 23 16.3023 22.3549 18.1113 21.1462C19.9202 19.9375 21.3301 18.2195 22.1627 16.2095C22.9952 14.1995 23.2131 11.9878 22.7886 9.85401C22.3642 7.72022 21.3166 5.76021 19.7782 4.22183C18.2398 2.68345 16.2798 1.6358 14.146 1.21137C12.0122 0.786926 9.80047 1.00477 7.79048 1.83733C5.78049 2.66989 4.06253 4.07979 2.85383 5.88873C1.64514 7.69767 1 9.82441 1 12C1 14.9174 2.15893 17.7153 4.22183 19.7782C6.28473 21.8411 9.08262 23 12 23Z" fill="#FFEF5E"/>
<path d="M12.0006 1.00001C9.82581 1.00008 7.69982 1.64483 5.89131 2.85278C4.0828 4.06073 2.67294 5.77766 1.83991 7.78662C1.00688 9.79558 0.788053 12.0064 1.21108 14.1397C1.63412 16.2729 2.68003 18.233 4.21664 19.772L19.7726 4.21601C18.7526 3.19476 17.541 2.38496 16.2073 1.83308C14.8735 1.2812 13.444 0.998093 12.0006 1.00001Z" fill="#FFF9BF"/>
<path d="M12 23C14.1756 23 16.3023 22.3549 18.1113 21.1462C19.9202 19.9375 21.3301 18.2195 22.1627 16.2095C22.9952 14.1995 23.2131 11.9878 22.7886 9.85401C22.3642 7.72022 21.3166 5.76021 19.7782 4.22183C18.2398 2.68345 16.2798 1.6358 14.146 1.21137C12.0122 0.786926 9.80047 1.00477 7.79048 1.83733C5.78049 2.66989 4.06253 4.07979 2.85383 5.88873C1.64514 7.69767 1 9.82441 1 12C1 14.9174 2.15893 17.7153 4.22183 19.7782C6.28473 21.8411 9.08262 23 12 23Z" stroke="#191919" stroke-linecap="round" stroke-linejoin="round"/>
<path d="M5.5 16.9999L9.5 7.49994" stroke="#191919" stroke-linecap="round" stroke-linejoin="round"/>
<path d="M14.5 16.9999L18.5 7.49994" stroke="#191919" stroke-linecap="round" stroke-linejoin="round"/>
<path d="M9.50049 7.49994L15.6815 14.1999" stroke="#191919" stroke-linecap="round" stroke-linejoin="round"/>
<path d="M8.31982 10.2999L14.5008 16.9999" stroke="#191919" stroke-linecap="round" stroke-linejoin="round"/>
</g>
<defs>
<clipPath id="clip0_5303_6045">
<rect width="24" height="24" fill="white"/>
</clipPath>
</defs>
</svg>
