<svg width="24" height="24" viewBox="0 0 24 24" fill="none" xmlns="http://www.w3.org/2000/svg">
<path d="M19.3333 1H4.66667C2.64162 1 1 2.64162 1 4.66667V19.3333C1 21.3583 2.64162 23 4.66667 23H19.3333C21.3583 23 23 21.3583 23 19.3333V4.66667C23 2.64162 21.3583 1 19.3333 1Z" fill="#C9F7CA"/>
<path d="M8.33301 22.5417C9.69275 22.5417 11.022 22.1384 12.1526 21.383C13.2831 20.6276 14.1643 19.5539 14.6847 18.2976C15.2051 17.0414 15.3412 15.6591 15.0759 14.3254C14.8106 12.9919 14.1559 11.7668 13.1944 10.8053C12.2329 9.84385 11.0078 9.18906 9.67426 8.92379C8.34063 8.65852 6.9583 8.79467 5.70206 9.31502C4.44582 9.83537 3.37209 10.7166 2.61666 11.8471C1.86122 12.9777 1.45801 14.3069 1.45801 15.6667C1.45801 17.49 2.18234 19.2388 3.47165 20.528C4.76096 21.8173 6.50965 22.5417 8.33301 22.5417Z" fill="#FFEF5E"/>
<path d="M8.33371 8.79169C6.97087 8.79213 5.6389 9.19762 4.50698 9.95663C3.37507 10.7157 2.49428 11.794 1.97648 13.0546C1.45869 14.3152 1.32725 15.7013 1.59886 17.0368C1.87048 18.3724 2.53288 19.597 3.50196 20.5553L13.2186 10.8386C12.5808 10.1904 11.8205 9.67571 10.9819 9.3243C10.1432 8.97288 9.24301 8.79182 8.33371 8.79169Z" fill="#FFF9BF"/>
<path d="M8.33301 22.5417C9.69275 22.5417 11.022 22.1384 12.1526 21.383C13.2831 20.6276 14.1643 19.5539 14.6847 18.2976C15.2051 17.0414 15.3412 15.6591 15.0759 14.3254C14.8106 12.9919 14.1559 11.7668 13.1944 10.8053C12.2329 9.84385 11.0078 9.18906 9.67426 8.92379C8.34063 8.65852 6.9583 8.79467 5.70206 9.31502C4.44582 9.83537 3.37209 10.7166 2.61666 11.8471C1.86122 12.9777 1.45801 14.3069 1.45801 15.6667C1.45801 17.49 2.18234 19.2388 3.47165 20.528C4.76096 21.8173 6.50965 22.5417 8.33301 22.5417Z" stroke="#191919" stroke-linecap="round" stroke-linejoin="round"/>
<path d="M2.375 6.95831H6.04167" stroke="#191919" stroke-linecap="round" stroke-linejoin="round"/>
<path d="M2.375 2.83331L3.58775 1.62056C3.63903 1.56898 3.70002 1.52808 3.76721 1.50023C3.8344 1.47238 3.90644 1.45814 3.97917 1.45831C4.03987 1.45856 4.09802 1.48278 4.14095 1.5257C4.18387 1.56863 4.2081 1.62678 4.20833 1.68748V6.95831" stroke="#191919" stroke-linecap="round" stroke-linejoin="round"/>
<path d="M9.70833 1.45831C9.22211 1.45831 8.75579 1.65147 8.41197 1.99529C8.06815 2.3391 7.875 2.80542 7.875 3.29165V5.12498C7.875 5.61121 8.06815 6.07752 8.41197 6.42134C8.75579 6.76516 9.22211 6.95831 9.70833 6.95831C10.1945 6.95831 10.6608 6.76516 11.0047 6.42134C11.3485 6.07752 11.5417 5.61121 11.5417 5.12498V3.29165C11.5417 2.80542 11.3485 2.3391 11.0047 1.99529C10.6608 1.65147 10.1945 1.45831 9.70833 1.45831Z" stroke="#191919" stroke-linecap="round" stroke-linejoin="round"/>
<path d="M13.375 6.95831H17.0417" stroke="#191919" stroke-linecap="round" stroke-linejoin="round"/>
<path d="M13.375 2.83331L14.5878 1.62056C14.639 1.56898 14.7 1.52808 14.7672 1.50023C14.8344 1.47238 14.9065 1.45814 14.9792 1.45831C15.0399 1.45831 15.0982 1.48246 15.1412 1.52544C15.1842 1.56841 15.2083 1.6267 15.2083 1.68748V6.95831" stroke="#191919" stroke-linecap="round" stroke-linejoin="round"/>
<path d="M20.7083 1.45831C20.2221 1.45831 19.7558 1.65147 19.412 1.99529C19.0681 2.3391 18.875 2.80542 18.875 3.29165V5.12498C18.875 5.61121 19.0681 6.07752 19.412 6.42134C19.7558 6.76516 20.2221 6.95831 20.7083 6.95831C21.1945 6.95831 21.6608 6.76516 22.0047 6.42134C22.3485 6.07752 22.5417 5.61121 22.5417 5.12498V3.29165C22.5417 2.80542 22.3485 2.3391 22.0047 1.99529C21.6608 1.65147 21.1945 1.45831 20.7083 1.45831Z" stroke="#191919" stroke-linecap="round" stroke-linejoin="round"/>
<path d="M18.875 14.2917H22.5417" stroke="#191919" stroke-linecap="round" stroke-linejoin="round"/>
<path d="M18.875 10.1667L20.0878 8.95394C20.139 8.90236 20.2 8.86146 20.2672 8.83361C20.3344 8.80576 20.4065 8.79151 20.4792 8.79169C20.5399 8.79169 20.5982 8.81583 20.6412 8.85881C20.6842 8.90179 20.7083 8.96008 20.7083 9.02086V14.2917" stroke="#191919" stroke-linecap="round" stroke-linejoin="round"/>
<path d="M16.7851 13.3933C16.9532 13.1105 17.0416 12.7874 17.0408 12.4583V10.625C17.0408 10.344 16.9763 10.0669 16.8522 9.81485C16.7281 9.56283 16.5477 9.3427 16.325 9.17146C16.1023 9.00021 15.8432 8.88245 15.5677 8.82725C15.2923 8.77205 15.0078 8.78088 14.7363 8.85308" stroke="#191919" stroke-linecap="round" stroke-linejoin="round"/>
<path d="M15.208 21.625H17.0413" stroke="#191919" stroke-linecap="round" stroke-linejoin="round"/>
<path d="M15.208 20.7083V21.625" stroke="#191919" stroke-linecap="round" stroke-linejoin="round"/>
<path d="M20.7083 16.125C20.2221 16.125 19.7558 16.3181 19.412 16.662C19.0681 17.0058 18.875 17.4721 18.875 17.9583V19.7917C18.875 20.2779 19.0681 20.7442 19.412 21.088C19.7558 21.4319 20.2221 21.625 20.7083 21.625C21.1945 21.625 21.6608 21.4319 22.0047 21.088C22.3485 20.7442 22.5417 20.2779 22.5417 19.7917V17.9583C22.5417 17.4721 22.3485 17.0058 22.0047 16.662C21.6608 16.3181 21.1945 16.125 20.7083 16.125Z" stroke="#191919" stroke-linecap="round" stroke-linejoin="round"/>
<path d="M10.8086 13.8333C10.8086 14.3195 10.6155 14.7858 10.2716 15.1297C9.92781 15.4735 9.46149 15.6667 8.97526 15.6667H6.68359V12H8.97526C9.46149 12 9.92781 12.1931 10.2716 12.537C10.6155 12.8808 10.8086 13.3471 10.8086 13.8333Z" stroke="#191919" stroke-linecap="round" stroke-linejoin="round"/>
<path d="M10.8086 17.5C10.8086 17.9862 10.6155 18.4525 10.2716 18.7964C9.92781 19.1402 9.46149 19.3334 8.97526 19.3334H6.68359V15.6667H8.97526C9.46149 15.6667 9.92781 15.8598 10.2716 16.2037C10.6155 16.5475 10.8086 17.0138 10.8086 17.5Z" stroke="#191919" stroke-linecap="round" stroke-linejoin="round"/>
<path d="M8.05859 11.0833V12" stroke="#191919" stroke-linecap="round" stroke-linejoin="round"/>
<path d="M8.05859 19.3333V20.25" stroke="#191919" stroke-linecap="round" stroke-linejoin="round"/>
<path d="M10.8086 13.8333C10.8086 14.3195 10.6155 14.7858 10.2716 15.1297C9.92781 15.4735 9.46149 15.6667 8.97526 15.6667H6.68359V12H8.97526C9.46149 12 9.92781 12.1931 10.2716 12.537C10.6155 12.8808 10.8086 13.3471 10.8086 13.8333Z" stroke="#191919" stroke-linecap="round" stroke-linejoin="round"/>
<path d="M10.8086 17.5C10.8086 17.9862 10.6155 18.4525 10.2716 18.7964C9.92781 19.1402 9.46149 19.3334 8.97526 19.3334H6.68359V15.6667H8.97526C9.46149 15.6667 9.92781 15.8598 10.2716 16.2037C10.6155 16.5475 10.8086 17.0138 10.8086 17.5Z" stroke="#191919" stroke-linecap="round" stroke-linejoin="round"/>
<path d="M8.05859 11.0833V12" stroke="#191919" stroke-linecap="round" stroke-linejoin="round"/>
<path d="M8.05859 19.3333V20.25" stroke="#191919" stroke-linecap="round" stroke-linejoin="round"/>
</svg>
