<svg width="24" height="24" viewBox="0 0 24 24" fill="none" xmlns="http://www.w3.org/2000/svg">
<g clip-path="url(#clip0_5303_6066)">
<path d="M23 12C22.999 11.1107 22.7227 10.2435 22.2089 9.51757C21.695 8.79168 20.9689 8.24279 20.1305 7.94634V6.73922C20.1305 6.48554 20.0297 6.24225 19.8503 6.06287C19.671 5.88349 19.4276 5.78271 19.174 5.78271H4.82633C4.57264 5.78271 4.32935 5.88349 4.14997 6.06287C3.97058 6.24225 3.86982 6.48554 3.86982 6.73922V7.94634C3.03073 8.24204 2.30407 8.79081 1.79006 9.51696C1.27604 10.2431 1 11.1109 1 12.0005C1 12.8902 1.27604 13.7579 1.79006 14.4841C2.30407 15.2102 3.03073 15.759 3.86982 16.0547V17.2608C3.86982 17.5145 3.97058 17.7578 4.14997 17.9372C4.32935 18.1165 4.57264 18.2173 4.82633 18.2173H19.174C19.4276 18.2173 19.671 18.1165 19.8503 17.9372C20.0297 17.7578 20.1305 17.5145 20.1305 17.2608V16.0547C20.9691 15.7582 21.6953 15.2091 22.2092 14.483C22.723 13.7569 22.9993 12.8896 23 12Z" fill="#FFEF5E"/>
<path d="M4.82633 5.78271C4.57264 5.78271 4.32935 5.88349 4.14997 6.06287C3.97058 6.24225 3.86982 6.48554 3.86982 6.73922V7.94634C3.03073 8.24204 2.30407 8.79081 1.79006 9.51696C1.27604 10.2431 1 11.1109 1 12.0005C1 12.8902 1.27604 13.7579 1.79006 14.4841C2.30407 15.2102 3.03073 15.759 3.86982 16.0547V17.2608C3.86982 17.4093 3.90438 17.5558 3.97079 17.6886C4.03721 17.8214 4.13362 17.937 4.25242 18.026L16.4957 5.78271H4.82633Z" fill="#FFF9BF"/>
<path d="M23 12C22.999 11.1107 22.7227 10.2435 22.2089 9.51757C21.695 8.79168 20.9689 8.24279 20.1305 7.94634V6.73922C20.1305 6.48554 20.0297 6.24225 19.8503 6.06287C19.671 5.88349 19.4276 5.78271 19.174 5.78271H4.82633C4.57264 5.78271 4.32935 5.88349 4.14997 6.06287C3.97058 6.24225 3.86982 6.48554 3.86982 6.73922V7.94634C3.03073 8.24204 2.30407 8.79081 1.79006 9.51696C1.27604 10.2431 1 11.1109 1 12.0005C1 12.8902 1.27604 13.7579 1.79006 14.4841C2.30407 15.2102 3.03073 15.759 3.86982 16.0547V17.2608C3.86982 17.5145 3.97058 17.7578 4.14997 17.9372C4.32935 18.1165 4.57264 18.2173 4.82633 18.2173H19.174C19.4276 18.2173 19.671 18.1165 19.8503 17.9372C20.0297 17.7578 20.1305 17.5145 20.1305 17.2608V16.0547C20.9691 15.7582 21.6953 15.2091 22.2092 14.483C22.723 13.7569 22.9993 12.8896 23 12Z" stroke="#191919" stroke-linecap="round" stroke-linejoin="round"/>
<path d="M13.9139 10.5653C13.9139 10.9458 13.7628 11.3108 13.4937 11.5798C13.2247 11.8489 12.8597 12 12.4792 12H10.0879V9.13049H12.4792C12.8597 9.13049 13.2247 9.28166 13.4937 9.55073C13.7628 9.81979 13.9139 10.1848 13.9139 10.5653Z" stroke="#191919" stroke-linecap="round" stroke-linejoin="round"/>
<path d="M13.9139 13.4348C13.9139 13.8153 13.7628 14.1803 13.4937 14.4493C13.2247 14.7184 12.8597 14.8695 12.4792 14.8695H10.0879V12H12.4792C12.8597 12 13.2247 12.1511 13.4937 12.4202C13.7628 12.6893 13.9139 13.0543 13.9139 13.4348Z" stroke="#191919" stroke-linecap="round" stroke-linejoin="round"/>
<path d="M12 8.17389V9.1304" stroke="#191919" stroke-linecap="round" stroke-linejoin="round"/>
<path d="M12 14.8695V15.826" stroke="#191919" stroke-linecap="round" stroke-linejoin="round"/>
</g>
<defs>
<clipPath id="clip0_5303_6066">
<rect width="24" height="24" fill="white"/>
</clipPath>
</defs>
</svg>
