<svg width="24" height="24" viewBox="0 0 24 24" fill="none" xmlns="http://www.w3.org/2000/svg">
<g clip-path="url(#clip0_5303_6090)">
<path d="M7.69645 22.9997C9.4722 22.9997 11.1752 22.2943 12.4309 21.0387C13.6865 19.783 14.3919 18.08 14.3919 16.3042C14.3919 14.5285 13.6865 12.8255 12.4309 11.5698C11.1752 10.3142 9.4722 9.60876 7.69645 9.60876C5.9207 9.60876 4.21768 10.3142 2.96204 11.5698C1.70639 12.8255 1.00098 14.5285 1.00098 16.3042C1.00098 18.08 1.70639 19.783 2.96204 21.0387C4.21768 22.2943 5.9207 22.9997 7.69645 22.9997Z" fill="#FFEF5E"/>
<path d="M7.69644 9.60877C6.37782 9.60858 5.0885 9.99776 3.9902 10.7275C2.8919 11.4572 2.03353 12.495 1.52274 13.7107C1.01195 14.9263 0.871501 16.2658 1.119 17.5609C1.36649 18.8561 1.99092 20.0494 2.91395 20.9911L12.3833 11.5218C11.1329 10.2933 9.44932 9.60616 7.69644 9.60877Z" fill="#FFF9BF"/>
<path d="M18.2175 10.5653C18.8456 10.5653 19.4675 10.4416 20.0477 10.2012C20.628 9.96089 21.1552 9.60861 21.5993 9.16452C22.0434 8.72042 22.3956 8.1932 22.636 7.61297C22.8763 7.03273 23 6.41083 23 5.78279C23 5.15474 22.8763 4.53285 22.636 3.95261C22.3956 3.37237 22.0434 2.84516 21.5993 2.40106C21.1552 1.95697 20.628 1.60469 20.0477 1.36435C19.4675 1.12401 18.8456 1.00031 18.2175 1.00031C16.9491 1.00031 15.7327 1.50417 14.8358 2.40106C13.9389 3.29795 13.4351 4.5144 13.4351 5.78279C13.4351 7.05118 13.9389 8.26763 14.8358 9.16452C15.7327 10.0614 16.9491 10.5653 18.2175 10.5653Z" fill="#FFEF5E"/>
<path d="M18.2179 1.00031C17.2775 0.998931 16.3576 1.27522 15.5736 1.79452C14.7896 2.31382 14.1763 3.05303 13.8107 3.91945C13.4451 4.78588 13.3435 5.74095 13.5185 6.66492C13.6935 7.58888 14.1374 8.44062 14.7946 9.11332L21.5493 2.35949C20.6594 1.48805 19.4634 1.0001 18.2179 1.00031Z" fill="#FFF9BF"/>
<path d="M18.2175 10.5653C18.8456 10.5653 19.4675 10.4416 20.0477 10.2012C20.628 9.96088 21.1552 9.60861 21.5993 9.16452C22.0434 8.72042 22.3956 8.1932 22.636 7.61297C22.8763 7.03273 23 6.41083 23 5.78279C23 5.15474 22.8763 4.53285 22.636 3.95261C22.3956 3.37237 22.0434 2.84516 21.5993 2.40106C21.1552 1.95697 20.628 1.60469 20.0477 1.36435C19.4675 1.12401 18.8456 1.00031 18.2175 1.00031C16.9491 1.00031 15.7327 1.50417 14.8358 2.40106C13.9389 3.29795 13.4351 4.5144 13.4351 5.78279C13.4351 7.05118 13.9389 8.26763 14.8358 9.16452C15.7327 10.0614 16.9491 10.5653 18.2175 10.5653Z" stroke="#191919" stroke-linecap="round" stroke-linejoin="round"/>
<path d="M7.69645 22.9997C9.4722 22.9997 11.1752 22.2943 12.4309 21.0387C13.6865 19.783 14.3919 18.08 14.3919 16.3042C14.3919 14.5285 13.6865 12.8255 12.4309 11.5698C11.1752 10.3142 9.4722 9.60876 7.69645 9.60876C5.9207 9.60876 4.21768 10.3142 2.96204 11.5698C1.70639 12.8255 1.00098 14.5285 1.00098 16.3042C1.00098 18.08 1.70639 19.783 2.96204 21.0387C4.21768 22.2943 5.9207 22.9997 7.69645 22.9997Z" stroke="#191919" stroke-linecap="round" stroke-linejoin="round"/>
<path d="M6.73975 11.5409V13.4348" stroke="#191919" stroke-linecap="round" stroke-linejoin="round"/>
<path d="M8.65234 11.5409V13.4348" stroke="#191919" stroke-linecap="round" stroke-linejoin="round"/>
<path d="M6.73975 19.193V21.0869" stroke="#191919" stroke-linecap="round" stroke-linejoin="round"/>
<path d="M8.65234 19.193V21.0869" stroke="#191919" stroke-linecap="round" stroke-linejoin="round"/>
<path d="M10.5652 14.8696C10.5652 15.2501 10.414 15.615 10.145 15.8841C9.87591 16.1531 9.51098 16.3043 9.13046 16.3043H5.78271V13.4348H9.13046C9.51098 13.4348 9.87591 13.586 10.145 13.855C10.414 14.1241 10.5652 14.489 10.5652 14.8696Z" stroke="#191919" stroke-linecap="round" stroke-linejoin="round"/>
<path d="M10.5652 17.739C10.5652 18.1195 10.414 18.4845 10.145 18.7535C9.87591 19.0226 9.51098 19.1738 9.13046 19.1738H5.78271V16.3043H9.13046C9.51098 16.3043 9.87591 16.4554 10.145 16.7245C10.414 16.9936 10.5652 17.3585 10.5652 17.739Z" stroke="#191919" stroke-linecap="round" stroke-linejoin="round"/>
<path d="M17.1093 6.89137C17.1091 7.1109 17.1741 7.32555 17.2959 7.50816C17.4178 7.69077 17.591 7.83313 17.7938 7.91722C17.9966 8.00132 18.2198 8.02337 18.4351 7.98059C18.6504 7.93781 18.8482 7.83212 19.0034 7.67689C19.1587 7.52166 19.2644 7.32387 19.3071 7.10855C19.3499 6.89324 19.3279 6.67007 19.2438 6.46729C19.1597 6.26451 19.0173 6.09123 18.8347 5.96938C18.6521 5.84754 18.4374 5.7826 18.2179 5.78279C17.9984 5.78298 17.7837 5.71805 17.6011 5.5962C17.4185 5.47436 17.2762 5.30108 17.1921 5.0983C17.108 4.89552 17.0859 4.67235 17.1287 4.45703C17.1715 4.24171 17.2772 4.04393 17.4324 3.8887C17.5876 3.73347 17.7854 3.62778 18.0007 3.58499C18.2161 3.54221 18.4392 3.56427 18.642 3.64836C18.8448 3.73246 19.0181 3.87482 19.1399 4.05743C19.2617 4.24004 19.3267 4.45469 19.3265 4.67421" stroke="#191919" stroke-linecap="round" stroke-linejoin="round"/>
<path d="M18.2178 7.99994V8.73931" stroke="#191919" stroke-linecap="round" stroke-linejoin="round"/>
<path d="M18.2178 2.82629V3.56662" stroke="#191919" stroke-linecap="round" stroke-linejoin="round"/>
<path d="M9.13063 1.47864C7.86223 1.47864 6.64579 1.9825 5.7489 2.87939C4.85201 3.77628 4.34814 4.99273 4.34814 6.26112V7.21762" stroke="#191919" stroke-linecap="round" stroke-linejoin="round"/>
<path d="M15.8262 20.6085C17.0946 20.6085 18.311 20.1047 19.2079 19.2078C20.1048 18.3109 20.6087 17.0945 20.6087 15.8261V14.8696" stroke="#191919" stroke-linecap="round" stroke-linejoin="round"/>
<path d="M2.43555 5.30457L4.34854 7.21756L6.26153 5.30457" stroke="#191919" stroke-linecap="round" stroke-linejoin="round"/>
<path d="M18.6953 16.7826L20.6083 14.8696L22.5213 16.7826" stroke="#191919" stroke-linecap="round" stroke-linejoin="round"/>
</g>
<defs>
<clipPath id="clip0_5303_6090">
<rect width="24" height="24" fill="white"/>
</clipPath>
</defs>
</svg>
