<svg width="24" height="24" viewBox="0 0 24 24" fill="none" xmlns="http://www.w3.org/2000/svg">
<g clip-path="url(#clip0_5303_6025)">
<path d="M3.80308 3.80414H20.1947C20.4504 3.80414 20.6957 3.90573 20.8765 4.08655C21.0573 4.26737 21.1589 4.51262 21.1589 4.76835V17.3031H2.83887V4.76835C2.83887 4.51262 2.94046 4.26737 3.12128 4.08655C3.3021 3.90573 3.54735 3.80414 3.80308 3.80414Z" fill="#66E1FF"/>
<path d="M18.4003 3.80414H3.80308C3.54735 3.80414 3.3021 3.90573 3.12128 4.08655C2.94046 4.26737 2.83887 4.51262 2.83887 4.76835V17.3031H4.90132L18.4003 3.80414Z" fill="#C2F3FF"/>
<path d="M3.80308 3.80414H20.1947C20.4504 3.80414 20.6957 3.90573 20.8765 4.08655C21.0573 4.26737 21.1589 4.51262 21.1589 4.76835V17.3031H2.83887V4.76835C2.83887 4.51262 2.94046 4.26737 3.12128 4.08655C3.3021 3.90573 3.54735 3.80414 3.80308 3.80414Z" stroke="#191919" stroke-linecap="round" stroke-linejoin="round"/>
<path d="M11.0342 5.75189V7.66103" stroke="#191919" stroke-linecap="round" stroke-linejoin="round"/>
<path d="M12.9639 5.75189V7.66103" stroke="#191919" stroke-linecap="round" stroke-linejoin="round"/>
<path d="M11.0342 13.4655V15.3747" stroke="#191919" stroke-linecap="round" stroke-linejoin="round"/>
<path d="M12.9639 13.4655V15.3747" stroke="#191919" stroke-linecap="round" stroke-linejoin="round"/>
<path d="M14.8914 9.10733C14.8914 9.49091 14.739 9.8588 14.4678 10.1301C14.1966 10.4013 13.8286 10.5536 13.4451 10.5536H10.0703V7.66101H13.4451C13.8286 7.66101 14.1966 7.81339 14.4678 8.08463C14.739 8.35586 14.8914 8.72375 14.8914 9.10733Z" stroke="#191919" stroke-linecap="round" stroke-linejoin="round"/>
<path d="M14.8914 12C14.8914 12.3835 14.739 12.7515 14.4678 13.0227C14.1966 13.2939 13.8286 13.4463 13.4451 13.4463H10.0703V10.5536H13.4451C13.8286 10.5536 14.1966 10.706 14.4678 10.9772C14.739 11.2485 14.8914 11.6164 14.8914 12Z" stroke="#191919" stroke-linecap="round" stroke-linejoin="round"/>
<path d="M20.9725 20.1958H3.03137C2.57406 20.197 2.13118 20.0356 1.78184 19.7405C1.43249 19.4454 1.19939 19.0357 1.12416 18.5846L1.00653 17.8643C0.995091 17.7956 0.998713 17.7251 1.01715 17.6578C1.03558 17.5906 1.06839 17.5281 1.11331 17.4748C1.15822 17.4214 1.21418 17.3785 1.27731 17.3488C1.34044 17.3192 1.40926 17.3036 1.47899 17.3032H22.5181C22.5881 17.3032 22.6572 17.3185 22.7207 17.3479C22.7842 17.3773 22.8405 17.4202 22.8858 17.4736C22.931 17.5271 22.9641 17.5896 22.9827 17.6571C23.0013 17.7246 23.0049 17.7953 22.9935 17.8643L22.8729 18.5846C22.7979 19.0346 22.5658 19.4433 22.2179 19.7383C21.8699 20.0333 21.4286 20.1954 20.9725 20.1958Z" fill="#E3E3E3" stroke="#191919" stroke-linecap="round" stroke-linejoin="round"/>
</g>
<defs>
<clipPath id="clip0_5303_6025">
<rect width="24" height="24" fill="white"/>
</clipPath>
</defs>
</svg>
