<svg width="24" height="24" viewBox="0 0 24 24" fill="none" xmlns="http://www.w3.org/2000/svg">
<g clip-path="url(#clip0_5303_6010)">
<path d="M18.217 2.91304V19.1739H5.78223V2.91304C5.78374 2.40614 5.98578 1.92043 6.34422 1.56199C6.70265 1.20355 7.18836 1.00151 7.69527 1H16.3039C16.8113 1 17.2979 1.20155 17.6567 1.56032C18.0154 1.91908 18.217 2.40567 18.217 2.91304Z" fill="#66E1FF"/>
<path d="M17.6287 1.53661C17.2735 1.19261 16.7984 1.00019 16.3039 1H7.69527C7.18836 1.00151 6.70265 1.20355 6.34422 1.56199C5.98578 1.92043 5.78374 2.40614 5.78223 2.91304V13.3831L17.6287 1.53661Z" fill="#C2F3FF"/>
<path d="M18.217 19.174V21.087C18.217 21.5944 18.0154 22.0809 17.6567 22.4397C17.2979 22.7985 16.8113 23 16.3039 23H7.69527C7.18836 22.9985 6.70265 22.7965 6.34422 22.438C5.98578 22.0796 5.78374 21.5939 5.78223 21.087V19.174H18.217Z" fill="white" stroke="#191919" stroke-linecap="round" stroke-linejoin="round"/>
<path d="M18.217 2.91304V19.1739H5.78223V2.91304C5.78374 2.40614 5.98578 1.92043 6.34422 1.56199C6.70265 1.20355 7.18836 1.00151 7.69527 1H16.3039C16.8113 1 17.2979 1.20155 17.6567 1.56032C18.0154 1.91908 18.217 2.40567 18.217 2.91304Z" stroke="#191919" stroke-linecap="round" stroke-linejoin="round"/>
<path d="M14.3913 8.65218C14.3913 8.9034 14.3418 9.15216 14.2456 9.38426C14.1495 9.61637 14.0086 9.82726 13.8309 10.0049C13.6533 10.1825 13.4424 10.3235 13.2103 10.4196C12.9782 10.5157 12.7294 10.5652 12.4782 10.5652H10.0869V6.73914H12.4782C12.9856 6.73914 13.4722 6.94069 13.8309 7.29945C14.1897 7.65822 14.3913 8.14481 14.3913 8.65218Z" stroke="#191919" stroke-linecap="round" stroke-linejoin="round"/>
<path d="M14.3913 12.4783C14.3913 12.7295 14.3418 12.9783 14.2456 13.2104C14.1495 13.4425 14.0086 13.6534 13.8309 13.831C13.6533 14.0087 13.4424 14.1496 13.2103 14.2457C12.9782 14.3418 12.7294 14.3913 12.4782 14.3913H10.0869V10.5652H12.4782C12.9856 10.5652 13.4722 10.7668 13.8309 11.1256C14.1897 11.4843 14.3913 11.9709 14.3913 12.4783Z" stroke="#191919" stroke-linecap="round" stroke-linejoin="round"/>
<path d="M11.5215 5.78265V6.73917" stroke="#191919" stroke-linecap="round" stroke-linejoin="round"/>
<path d="M11.5215 14.3914V15.3479" stroke="#191919" stroke-linecap="round" stroke-linejoin="round"/>
<path d="M14.3913 8.65218C14.3913 8.9034 14.3418 9.15216 14.2456 9.38426C14.1495 9.61637 14.0086 9.82726 13.8309 10.0049C13.6533 10.1825 13.4424 10.3235 13.2103 10.4196C12.9782 10.5157 12.7294 10.5652 12.4782 10.5652H10.0869V6.73914H12.4782C12.9856 6.73914 13.4722 6.94069 13.8309 7.29945C14.1897 7.65822 14.3913 8.14481 14.3913 8.65218Z" stroke="#191919" stroke-linecap="round" stroke-linejoin="round"/>
<path d="M14.3913 12.4783C14.3913 12.7295 14.3418 12.9783 14.2456 13.2104C14.1495 13.4425 14.0086 13.6534 13.8309 13.831C13.6533 14.0087 13.4424 14.1496 13.2103 14.2457C12.9782 14.3418 12.7294 14.3913 12.4782 14.3913H10.0869V10.5652H12.4782C12.9856 10.5652 13.4722 10.7668 13.8309 11.1256C14.1897 11.4843 14.3913 11.9709 14.3913 12.4783Z" stroke="#191919" stroke-linecap="round" stroke-linejoin="round"/>
<path d="M11.5215 5.78265V6.73917" stroke="#191919" stroke-linecap="round" stroke-linejoin="round"/>
<path d="M11.5215 14.3914V15.3479" stroke="#191919" stroke-linecap="round" stroke-linejoin="round"/>
<path d="M11.9452 21.3261C11.8818 21.3261 11.8209 21.3009 11.7761 21.2561C11.7312 21.2112 11.7061 21.1504 11.7061 21.087C11.7061 21.0235 11.7312 20.9627 11.7761 20.9179C11.8209 20.873 11.8818 20.8478 11.9452 20.8478" stroke="#191919"/>
<path d="M11.9443 21.3261C12.0078 21.3261 12.0686 21.3009 12.1134 21.2561C12.1583 21.2112 12.1835 21.1504 12.1835 21.087C12.1835 21.0235 12.1583 20.9627 12.1134 20.9179C12.0686 20.873 12.0078 20.8478 11.9443 20.8478" stroke="#191919"/>
</g>
<defs>
<clipPath id="clip0_5303_6010">
<rect width="24" height="24" fill="white"/>
</clipPath>
</defs>
</svg>
