<svg width="24" height="24" viewBox="0 0 24 24" fill="none" xmlns="http://www.w3.org/2000/svg">
<g clip-path="url(#clip0_5303_6331)">
<path d="M12 21.2285C17.0967 21.2285 21.2285 17.0967 21.2285 12C21.2285 6.90324 17.0967 2.77148 12 2.77148C6.90323 2.77148 2.77148 6.90324 2.77148 12C2.77148 17.0967 6.90323 21.2285 12 21.2285Z" fill="#FFF9BF"/>
<path d="M3.87305 12.4783H18.2209" stroke="#191919" stroke-linecap="round" stroke-linejoin="round"/>
<path d="M20.1295 6.26087C20.1295 4.8656 19.5752 3.52747 18.5887 2.54087C17.602 1.55427 16.264 1 14.8687 1C13.4734 1 12.1353 1.55427 11.1487 2.54087C10.1621 3.52747 9.60779 4.8656 9.60779 6.26087V18.2174C9.60779 18.8454 9.48409 19.4674 9.24374 20.0476C9.00339 20.6278 8.65112 21.1551 8.20701 21.5992C7.7629 22.0433 7.23568 22.3956 6.65542 22.6359C6.07517 22.8763 5.45326 23 4.8252 23H20.1295" stroke="#191919" stroke-linecap="round" stroke-linejoin="round"/>
</g>
<defs>
<clipPath id="clip0_5303_6331">
<rect width="24" height="24" fill="white"/>
</clipPath>
</defs>
</svg>
