<svg width="24" height="24" viewBox="0 0 24 24" fill="none" xmlns="http://www.w3.org/2000/svg">
<g clip-path="url(#clip0_5303_6310)">
<path d="M9.13756 17.2611C13.6242 17.2611 17.2614 13.6239 17.2614 9.13719C17.2614 4.65043 13.6242 1.01331 9.13756 1.01331C4.65089 1.01331 1.01367 4.65043 1.01367 9.13719C1.01367 13.6239 4.65089 17.2611 9.13756 17.2611Z" fill="#FFEF5E"/>
<path d="M9.14068 1.01331C7.53659 1.01265 5.9682 1.48695 4.63321 2.37632C3.29831 3.26578 2.2565 4.53041 1.63922 6.011C1.02195 7.4916 0.85685 9.12174 1.16465 10.6961C1.47244 12.2704 2.23944 13.7182 3.36896 14.8573L14.858 3.36922C13.339 1.85845 11.2831 1.01134 9.14068 1.01331Z" fill="#FFF9BF"/>
<path d="M5.40843 16.3636C3.88333 15.5783 2.64569 14.3308 1.87259 12.7995C1.0995 11.2682 0.830498 9.53151 1.10409 7.83813C1.37778 6.14475 2.18001 4.58123 3.39601 3.37132C4.6121 2.16141 6.17965 1.36715 7.87444 1.10217C9.56922 0.837104 11.3045 1.11491 12.8317 1.89578C14.3591 2.67665 15.6004 3.92066 16.378 5.4497C17.1555 6.97874 17.4294 8.71457 17.1608 10.4087C16.8921 12.103 16.0944 13.6688 14.8818 14.8823" stroke="#191919" stroke-linecap="round" stroke-linejoin="round"/>
<path d="M6.27344 8.65924H11.0522" stroke="#191919" stroke-linecap="round" stroke-linejoin="round"/>
<path d="M12.064 6.55673C12.0749 6.32661 12.0391 6.09677 11.9585 5.88099C11.878 5.66511 11.7545 5.46797 11.5955 5.30128C11.4366 5.1346 11.2455 5.00192 11.0337 4.91122C10.822 4.82062 10.5941 4.77386 10.3638 4.77386C10.1334 4.77386 9.90551 4.82062 9.69375 4.91122C9.48209 5.00192 9.29095 5.1346 9.13195 5.30128C8.97294 5.46797 8.84954 5.66511 8.76896 5.88099C8.68848 6.09677 8.65259 6.32661 8.66346 6.55673V10.4198C8.66346 11.842 8.17511 13.4409 6.75195 13.4409H12.0086" stroke="#191919" stroke-linecap="round" stroke-linejoin="round"/>
<path d="M2.4502 22.9955L10.4498 15.8847C10.6184 15.735 10.8346 15.6497 11.0601 15.6438C11.2855 15.6381 11.5057 15.7122 11.6818 15.8532L15.1856 18.6564C15.3649 18.7997 15.5897 18.8739 15.819 18.8651C16.0484 18.8562 16.267 18.7653 16.4347 18.6086L22.9988 12.4822" stroke="#191919" stroke-linecap="round" stroke-linejoin="round"/>
<path d="M19.1768 12.4822H22.9998V16.3053" stroke="#191919" stroke-linecap="round" stroke-linejoin="round"/>
</g>
<defs>
<clipPath id="clip0_5303_6310">
<rect width="24" height="24" fill="white"/>
</clipPath>
</defs>
</svg>
