<svg width="24" height="24" viewBox="0 0 24 24" fill="none" xmlns="http://www.w3.org/2000/svg">
<g clip-path="url(#clip0_5303_6271)">
<path d="M14.1534 17.2687C18.6458 17.2687 22.2877 13.6268 22.2877 9.13434C22.2877 4.64187 18.6458 1 14.1534 1C9.66091 1 6.01904 4.64187 6.01904 9.13434C6.01904 13.6268 9.66091 17.2687 14.1534 17.2687Z" fill="#FFEF5E"/>
<path d="M14.1526 1C12.546 0.999391 10.9751 1.47455 9.63824 2.36558C8.30134 3.25659 7.25822 4.52356 6.64047 6.00667C6.02272 7.48977 5.85801 9.12261 6.16708 10.6992C6.47617 12.2758 7.24522 13.7256 8.37722 14.8657L19.8801 3.36279C18.3592 1.84773 16.2994 0.997969 14.1526 1Z" fill="#FFF9BF"/>
<path d="M8.45912 14.9461C7.30706 13.8179 6.5163 12.3727 6.18727 10.7942C5.85823 9.21561 6.00579 7.57489 6.61117 6.08036C7.21657 4.58585 8.25248 3.30498 9.58735 2.40043C10.9222 1.49588 12.4958 1.00847 14.1083 1.00011C15.7207 0.991747 17.2993 1.46281 18.6435 2.35347C19.9877 3.24412 21.0368 4.51419 21.6576 6.00235C22.2785 7.49051 22.4431 9.12962 22.1305 10.7115C21.8178 12.2934 21.0421 13.7467 19.9017 14.8867" stroke="#191919" stroke-linecap="round" stroke-linejoin="round"/>
<path d="M11.2817 8.64532H16.0666" stroke="#191919" stroke-linecap="round" stroke-linejoin="round"/>
<path d="M17.0835 6.54001C17.0835 6.08798 16.9039 5.65447 16.5843 5.33484C16.2647 5.0152 15.8312 4.83563 15.3791 4.83563C14.927 4.83563 14.4935 5.0152 14.1739 5.33484C13.8542 5.65447 13.6747 6.08798 13.6747 6.54001V10.4081C13.6747 11.8321 13.1857 13.4331 11.7607 13.4331H17.0241" stroke="#191919" stroke-linecap="round" stroke-linejoin="round"/>
<path d="M1.7124 12.4732L9.72137 19.5931C9.89021 19.7431 10.1066 19.8286 10.3324 19.8343C10.5582 19.84 10.7786 19.7659 10.9549 19.6247L14.4642 16.8179C14.6437 16.6743 14.8688 16.6002 15.0984 16.609C15.3281 16.6178 15.547 16.7089 15.7149 16.8657L22.2875 23" stroke="#191919" stroke-linecap="round" stroke-linejoin="round"/>
<path d="M18.4595 23H22.2874V19.1941" stroke="#191919" stroke-linecap="round" stroke-linejoin="round"/>
</g>
<defs>
<clipPath id="clip0_5303_6271">
<rect width="24" height="24" fill="white"/>
</clipPath>
</defs>
</svg>
