<svg width="24" height="24" viewBox="0 0 24 24" fill="none" xmlns="http://www.w3.org/2000/svg">
<g clip-path="url(#clip0_5303_6279)">
<path d="M22.9999 11.9995C22.999 11.2327 22.7673 10.4838 22.3351 9.85037C21.9028 9.21695 21.2898 8.72829 20.5761 8.44796C20.8833 7.74501 20.9715 6.96576 20.8292 6.21191C20.6868 5.45806 20.3206 4.76463 19.7781 4.22211C19.2357 3.67959 18.5423 3.31317 17.7886 3.17069C17.0348 3.02821 16.2555 3.11626 15.5524 3.42338C15.2726 2.70913 14.7839 2.09584 14.1501 1.66355C13.5164 1.23124 12.7671 1 11.9999 1C11.2328 1 10.4835 1.23124 9.84977 1.66355C9.21604 2.09584 8.72735 2.70913 8.44745 3.42338C7.74444 3.11626 6.96517 3.02821 6.21135 3.17069C5.45753 3.31317 4.76417 3.67959 4.22175 4.22211C3.67933 4.76463 3.31305 5.45806 3.17071 6.21191C3.02837 6.96576 3.11658 7.74501 3.42383 8.44796C2.7095 8.72765 2.0961 9.21621 1.66369 9.84988C1.2313 10.4835 1 11.2328 1 12C1 12.7671 1.2313 13.5164 1.66369 14.1501C2.0961 14.7837 2.7095 15.2723 3.42383 15.552C3.11658 16.2549 3.02837 17.0342 3.17071 17.788C3.31305 18.5419 3.67933 19.2353 4.22175 19.7779C4.76417 20.3204 5.45753 20.6868 6.21135 20.8293C6.96517 20.9718 7.74444 20.8837 8.44745 20.5766C8.72735 21.2908 9.21604 21.9041 9.84977 22.3365C10.4835 22.7687 11.2328 23 11.9999 23C12.7671 23 13.5164 22.7687 14.1501 22.3365C14.7839 21.9041 15.2726 21.2908 15.5524 20.5766C16.2555 20.8837 17.0348 20.9718 17.7886 20.8293C18.5423 20.6868 19.2357 20.3204 19.7781 19.7779C20.3206 19.2353 20.6868 18.5419 20.8292 17.788C20.9715 17.0342 20.8833 16.2549 20.5761 15.552C21.29 15.2716 21.903 14.7829 22.3353 14.1492C22.7676 13.5156 22.9992 12.7665 22.9999 11.9995Z" fill="#FFEF5E"/>
<path d="M20.5758 8.44796C20.8831 7.74501 20.9713 6.96576 20.8289 6.21191C20.6866 5.45806 20.3203 4.76463 19.7779 4.22211C19.2355 3.67959 18.5422 3.31317 17.7884 3.17069C17.0345 3.02821 16.2553 3.11626 15.5522 3.42338C15.2723 2.70913 14.7837 2.09584 14.1499 1.66355C13.5162 1.23124 12.7668 1 11.9997 1C11.2326 1 10.4833 1.23124 9.84954 1.66355C9.21582 2.09584 8.72712 2.70913 8.44722 3.42338C7.7442 3.11626 6.96494 3.02821 6.21112 3.17069C5.4573 3.31317 4.76394 3.67959 4.22152 4.22211C3.67911 4.76463 3.31282 5.45806 3.17048 6.21191C3.02814 6.96576 3.11635 7.74501 3.4236 8.44796C2.82969 8.6789 2.30337 9.05544 1.89302 9.54296C1.48269 10.0305 1.20149 10.6133 1.07529 11.2379C0.949091 11.8625 0.981942 12.5088 1.17082 13.1175C1.3597 13.726 1.69855 14.2774 2.15622 14.7208C2.21827 12.1513 3.28258 9.70789 5.12184 7.91251C6.96108 6.11714 9.42946 5.11212 11.9997 5.11212C14.57 5.11212 17.0384 6.11714 18.8776 7.91251C20.7168 9.70789 21.7811 12.1513 21.8432 14.7208C22.3009 14.2774 22.6397 13.726 22.8286 13.1175C23.0175 12.5088 23.0503 11.8625 22.9242 11.2379C22.7979 10.6133 22.5168 10.0305 22.1065 9.54296C21.6961 9.05544 21.1697 8.6789 20.5758 8.44796Z" fill="#FFF9BF"/>
<path d="M22.9999 11.9995C22.999 11.2327 22.7673 10.4838 22.3351 9.85037C21.9028 9.21695 21.2898 8.72829 20.5761 8.44796C20.8833 7.74501 20.9715 6.96576 20.8292 6.21191C20.6868 5.45806 20.3206 4.76463 19.7781 4.22211C19.2357 3.67959 18.5423 3.31317 17.7886 3.17069C17.0348 3.02821 16.2555 3.11626 15.5524 3.42338C15.2726 2.70913 14.7839 2.09584 14.1501 1.66355C13.5164 1.23124 12.7671 1 11.9999 1C11.2328 1 10.4835 1.23124 9.84977 1.66355C9.21604 2.09584 8.72735 2.70913 8.44745 3.42338C7.74444 3.11626 6.96517 3.02821 6.21135 3.17069C5.45753 3.31317 4.76417 3.67959 4.22175 4.22211C3.67933 4.76463 3.31305 5.45806 3.17071 6.21191C3.02837 6.96576 3.11658 7.74501 3.42383 8.44796C2.7095 8.72765 2.0961 9.21621 1.66369 9.84988C1.2313 10.4835 1 11.2328 1 12C1 12.7671 1.2313 13.5164 1.66369 14.1501C2.0961 14.7837 2.7095 15.2723 3.42383 15.552C3.11658 16.2549 3.02837 17.0342 3.17071 17.788C3.31305 18.5419 3.67933 19.2353 4.22175 19.7779C4.76417 20.3204 5.45753 20.6868 6.21135 20.8293C6.96517 20.9718 7.74444 20.8837 8.44745 20.5766C8.72735 21.2908 9.21604 21.9041 9.84977 22.3365C10.4835 22.7687 11.2328 23 11.9999 23C12.7671 23 13.5164 22.7687 14.1501 22.3365C14.7839 21.9041 15.2726 21.2908 15.5524 20.5766C16.2555 20.8837 17.0348 20.9718 17.7886 20.8293C18.5423 20.6868 19.2357 20.3204 19.7781 19.7779C20.3206 19.2353 20.6868 18.5419 20.8292 17.788C20.9715 17.0342 20.8833 16.2549 20.5761 15.552C21.29 15.2716 21.903 14.7829 22.3353 14.1492C22.7676 13.5156 22.9992 12.7665 22.9999 11.9995Z" stroke="#191919" stroke-linecap="round" stroke-linejoin="round"/>
<path d="M12.478 11.9995V17.7386" stroke="#191919" stroke-linecap="round" stroke-linejoin="round"/>
<path d="M15.8255 7.21698L12.4777 11.9996L9.12988 7.21698" stroke="#191919" stroke-linecap="round" stroke-linejoin="round"/>
<path d="M10.0864 12.4778H14.869" stroke="#191919" stroke-linecap="round" stroke-linejoin="round"/>
<path d="M10.0864 14.3909H14.869" stroke="#191919" stroke-linecap="round" stroke-linejoin="round"/>
</g>
<defs>
<clipPath id="clip0_5303_6279">
<rect width="24" height="24" fill="white"/>
</clipPath>
</defs>
</svg>
