<svg width="24" height="24" viewBox="0 0 24 24" fill="none" xmlns="http://www.w3.org/2000/svg">
<g clip-path="url(#clip0_5303_6219)">
<path d="M12 23C14.1756 23 16.3023 22.3548 18.1113 21.1462C19.9202 19.9375 21.3301 18.2195 22.1627 16.2096C22.9952 14.1995 23.2131 11.9878 22.7886 9.85401C22.3642 7.72021 21.3165 5.76021 19.7781 4.22183C18.2398 2.68345 16.2798 1.6358 14.146 1.21137C12.0122 0.786927 9.80047 1.00477 7.79048 1.83733C5.78049 2.6699 4.06253 4.07979 2.85383 5.88873C1.64514 7.69767 1 9.82441 1 12C1 14.9174 2.15892 17.7153 4.22182 19.7781C6.28472 21.8411 9.08262 23 12 23Z" fill="#FFEF5E"/>
<path d="M12.0001 1.00001C9.80812 1.00019 7.66622 1.65523 5.84912 2.8811C4.03202 4.10695 2.62259 5.84774 1.80163 7.88013C0.980681 9.91253 0.785639 12.1439 1.24153 14.2879C1.69743 16.4318 2.78346 18.3908 4.36032 19.9133L19.9134 4.36027C18.8887 3.29602 17.6595 2.44979 16.2997 1.87237C14.9399 1.29493 13.4774 0.99821 12.0001 1.00001Z" fill="#FFF9BF"/>
<path d="M12 23C14.1756 23 16.3023 22.3548 18.1113 21.1462C19.9202 19.9375 21.3301 18.2195 22.1627 16.2096C22.9952 14.1995 23.2131 11.9878 22.7886 9.85401C22.3642 7.72021 21.3165 5.76021 19.7781 4.22183C18.2398 2.68345 16.2798 1.6358 14.146 1.21137C12.0122 0.786927 9.80047 1.00477 7.79048 1.83733C5.78049 2.6699 4.06253 4.07979 2.85383 5.88873C1.64514 7.69767 1 9.82441 1 12C1 14.9174 2.15892 17.7153 4.22182 19.7781C6.28472 21.8411 9.08262 23 12 23Z" stroke="#191919" stroke-linecap="round" stroke-linejoin="round"/>
<path d="M14.3912 17.2609C10.9573 17.2609 8.17383 16.3043 8.17383 12C8.17383 7.69566 10.9573 6.73914 14.3912 6.73914" stroke="#191919" stroke-linecap="round" stroke-linejoin="round"/>
<path d="M6.73926 13.4348H12.0001" stroke="#191919" stroke-linecap="round" stroke-linejoin="round"/>
<path d="M6.73926 11.5218H12.9566" stroke="#191919" stroke-linecap="round" stroke-linejoin="round"/>
</g>
<defs>
<clipPath id="clip0_5303_6219">
<rect width="24" height="24" fill="white"/>
</clipPath>
</defs>
</svg>
