<svg width="24" height="24" viewBox="0 0 24 24" fill="none" xmlns="http://www.w3.org/2000/svg">
<path d="M20.8086 4.82609C20.988 5.00543 21.0888 5.24868 21.0889 5.50235V22.0435C21.0889 22.2972 20.9881 22.5405 20.8087 22.7198C20.6293 22.8992 20.386 23 20.1323 23H3.86765C3.61397 23 3.37067 22.8992 3.19129 22.7198C3.01191 22.5405 2.91113 22.2972 2.91113 22.0435V1.95652C2.91113 1.70284 3.01191 1.45954 3.19129 1.28016C3.37067 1.10078 3.61397 1 3.86765 1H16.5894C16.8407 1.00182 17.0813 1.1025 17.259 1.28026L20.8086 4.82609Z" fill="#E3E3E3"/>
<path d="M18.8592 2.8767L17.259 1.28026C17.0813 1.1025 16.8407 1.00182 16.5894 1H3.86765C3.61397 1 3.37067 1.10078 3.19129 1.28016C3.01191 1.45954 2.91113 1.70284 2.91113 1.95652V18.8219L18.8592 2.8767Z" fill="white"/>
<path d="M20.8086 4.82609C20.988 5.00543 21.0888 5.24868 21.0889 5.50235V22.0435C21.0889 22.2972 20.9881 22.5405 20.8087 22.7198C20.6293 22.8992 20.386 23 20.1323 23H3.86765C3.61397 23 3.37067 22.8992 3.19129 22.7198C3.01191 22.5405 2.91113 22.2972 2.91113 22.0435V1.95652C2.91113 1.70284 3.01191 1.45954 3.19129 1.28016C3.37067 1.10078 3.61397 1 3.86765 1H16.5894C16.8407 1.00182 17.0813 1.1025 17.259 1.28026L20.8086 4.82609Z" stroke="#191919" stroke-linecap="round" stroke-linejoin="round"/>
<path d="M6.73779 15.3478L10.0091 12.0765C10.1655 11.9201 10.3712 11.8227 10.5913 11.8009C10.8114 11.7791 11.0322 11.8343 11.2162 11.957L12.7639 12.9852C12.9522 13.1108 13.179 13.1654 13.4039 13.1395C13.6288 13.1136 13.8372 13.0088 13.9921 12.8437L17.0242 9.6087" stroke="#191919" stroke-linecap="round" stroke-linejoin="round"/>
<path d="M6.74121 7.69568V18.2174H17.2629" stroke="#191919" stroke-linecap="round" stroke-linejoin="round"/>
</svg>
