<svg width="24" height="24" viewBox="0 0 24 24" fill="none" xmlns="http://www.w3.org/2000/svg">
<path d="M2.04688 5.18964V18.8093C2.04688 21.1247 6.50366 23 11.9997 23C17.4958 23 21.9526 21.1247 21.9526 18.8093V5.18964H2.04688Z" fill="#B2B2B2"/>
<path d="M11.9997 5.18964H2.04688V18.8093C2.04688 21.1247 6.50366 23 11.9997 23V5.18964Z" fill="#E3E3E3"/>
<path d="M2.04688 5.18964V18.8093C2.04688 21.1247 6.50366 23 11.9997 23C17.4958 23 21.9526 21.1247 21.9526 18.8093V5.18964" stroke="#191919" stroke-linecap="round" stroke-linejoin="round"/>
<path d="M12.0007 9.38136C17.4979 9.38136 21.9536 7.50603 21.9536 5.19068C21.9536 2.87533 17.4979 1 12.0007 1C6.5036 1 2.04785 2.87533 2.04785 5.19068C2.04785 7.50603 6.5036 9.38136 12.0007 9.38136Z" fill="#808080" stroke="#191919" stroke-linecap="round" stroke-linejoin="round"/>
<path d="M21.9526 9.38031C21.9526 11.6957 17.4958 13.571 11.9997 13.571C6.50366 13.571 2.04688 11.6957 2.04688 9.38031" stroke="#191919" stroke-linecap="round" stroke-linejoin="round"/>
<path d="M21.9526 14.0948C21.9526 16.4102 17.4958 18.2855 11.9997 18.2855C6.50366 18.2855 2.04688 16.4102 2.04688 14.0948" stroke="#191919" stroke-linecap="round" stroke-linejoin="round"/>
</svg>
