<svg width="24" height="24" viewBox="0 0 24 24" fill="none" xmlns="http://www.w3.org/2000/svg">
<g clip-path="url(#clip0_5303_8827)">
<path d="M18.2134 22.9959H1.95863C1.70501 22.9959 1.4618 22.8951 1.28248 22.7158C1.10316 22.5365 1.00244 22.2932 1.00244 22.0397V1.96021C1.00244 1.7066 1.10316 1.46348 1.28248 1.28416C1.4618 1.10484 1.70501 1.00403 1.95863 1.00403H14.6689C14.9225 1.00412 15.1656 1.10493 15.3449 1.28425L18.8884 4.82876C19.0678 5.00799 19.1685 5.25111 19.1686 5.50473V22.0397C19.1686 22.293 19.068 22.5362 18.8889 22.7155C18.7097 22.8948 18.4668 22.9956 18.2134 22.9959Z" fill="#E3E3E3"/>
<path d="M16.9384 2.87518L15.3425 1.27939C15.1625 1.10176 14.9194 1.00282 14.6665 1.00404H1.95618C1.70266 1.00404 1.45945 1.10475 1.28013 1.28407C1.10081 1.46339 1 1.70661 1 1.96013V18.8145L16.9384 2.87518Z" fill="white"/>
<path d="M11.1043 22.9959H1.95863C1.70501 22.9959 1.4618 22.8951 1.28248 22.7158C1.10316 22.5365 1.00244 22.2932 1.00244 22.0397V1.96021C1.00244 1.7066 1.10316 1.46348 1.28248 1.28416C1.4618 1.10484 1.70501 1.00403 1.95863 1.00403H14.6689C14.9225 1.00412 15.1656 1.10493 15.3449 1.28425L18.8884 4.82876C19.0678 5.00799 19.1685 5.25111 19.1686 5.50473V9.21657" stroke="#191919" stroke-linecap="round" stroke-linejoin="round"/>
<path d="M3.39795 14.3903H9.13487" stroke="#191919" stroke-linecap="round" stroke-linejoin="round"/>
<path d="M4.83258 9.60938H5.78877C5.91553 9.60938 6.03714 9.65968 6.1268 9.74934C6.21646 9.83899 6.26686 9.96061 6.26686 10.0874V14.3901H4.35449V10.0874C4.35449 9.96061 4.4049 9.83899 4.49456 9.74934C4.58422 9.65968 4.70582 9.60938 4.83258 9.60938Z" fill="#66E1FF" stroke="#191919" stroke-linecap="round" stroke-linejoin="round"/>
<path d="M10.092 14.3903V7.21906C10.092 7.0923 10.0416 6.97069 9.95199 6.88103C9.86233 6.79137 9.74063 6.74097 9.61387 6.74097H8.65769C8.53093 6.74097 8.40932 6.79137 8.31966 6.88103C8.23 6.97069 8.17969 7.0923 8.17969 7.21906V14.3903H10.092Z" fill="#FF808C" stroke="#191919" stroke-linecap="round" stroke-linejoin="round"/>
<path d="M17.2629 22.9957C18.3975 22.9957 19.5066 22.6592 20.4502 22.0288C21.3936 21.3984 22.129 20.5025 22.5631 19.4541C22.9974 18.4058 23.1109 17.2523 22.8896 16.1395C22.6682 15.0266 22.1219 14.0044 21.3195 13.2021C20.5172 12.3997 19.4949 11.8533 18.3821 11.632C17.2693 11.4106 16.1158 11.5242 15.0674 11.9584C14.0191 12.3927 13.1232 13.128 12.4927 14.0714C11.8623 15.0149 11.5259 16.1241 11.5259 17.2587C11.5259 18.7802 12.1303 20.2394 13.2063 21.3153C14.2821 22.3912 15.7413 22.9957 17.2629 22.9957Z" fill="#78EB7B"/>
<path d="M17.2627 11.5217C16.095 11.5208 14.9549 11.8764 13.9948 12.5412C13.0348 13.2059 12.3009 14.1479 11.8908 15.2413C11.4808 16.3346 11.4146 17.527 11.7008 18.6591C11.987 19.7911 12.6122 20.8088 13.4925 21.5758L21.5798 13.4885C21.0428 12.8708 20.3796 12.3755 19.6348 12.0363C18.8901 11.6969 18.0812 11.5214 17.2627 11.5217Z" fill="#C9F7CA"/>
<path d="M17.2629 22.9957C18.3975 22.9957 19.5066 22.6592 20.4502 22.0288C21.3936 21.3984 22.129 20.5025 22.5631 19.4541C22.9974 18.4058 23.1109 17.2523 22.8896 16.1395C22.6682 15.0266 22.1219 14.0044 21.3195 13.2021C20.5172 12.3997 19.4949 11.8533 18.3821 11.632C17.2693 11.4106 16.1158 11.5242 15.0674 11.9584C14.0191 12.3927 13.1232 13.128 12.4927 14.0714C11.8623 15.0149 11.5259 16.1241 11.5259 17.2587C11.5259 18.7802 12.1303 20.2394 13.2063 21.3153C14.2821 22.3912 15.7413 22.9957 17.2629 22.9957Z" stroke="#191919" stroke-linecap="round" stroke-linejoin="round"/>
<path d="M17.2627 14.3903V20.1273" stroke="#191919" stroke-linecap="round" stroke-linejoin="round"/>
<path d="M20.1311 17.2587H14.394" stroke="#191919" stroke-linecap="round" stroke-linejoin="round"/>
</g>
<defs>
<clipPath id="clip0_5303_8827">
<rect width="24" height="24" fill="white"/>
</clipPath>
</defs>
</svg>
