<svg width="24" height="24" viewBox="0 0 24 24" fill="none" xmlns="http://www.w3.org/2000/svg">
<g clip-path="url(#clip0_5303_3930)">
<path d="M22.9999 2.43433V5.30389C22.9999 6.09589 21.9295 6.73867 20.6086 6.73867C19.2876 6.73867 18.2173 6.09685 18.2173 5.30389V2.43433" fill="#E3E3E3"/>
<path d="M22.9999 2.43433V5.30389C22.9999 6.09589 21.9295 6.73867 20.6086 6.73867C19.2876 6.73867 18.2173 6.09685 18.2173 5.30389V2.43433" stroke="#191919" stroke-linecap="round" stroke-linejoin="round"/>
<path d="M5.78261 2.43433V5.30389C5.78261 6.09589 4.71226 6.73867 3.3913 6.73867C2.07035 6.73867 1 6.09685 1 5.30389V2.43433" fill="#E3E3E3"/>
<path d="M5.78261 2.43433V5.30389C5.78261 6.09589 4.71226 6.73867 3.3913 6.73867C2.07035 6.73867 1 6.09685 1 5.30389V2.43433" stroke="#191919" stroke-linecap="round" stroke-linejoin="round"/>
<path d="M22.9999 18.6952V21.5647C22.9999 22.3567 21.9295 22.9995 20.6086 22.9995C19.2876 22.9995 18.2173 22.3567 18.2173 21.5647V18.6952" fill="#E3E3E3"/>
<path d="M22.9999 18.6952V21.5647C22.9999 22.3567 21.9295 22.9995 20.6086 22.9995C19.2876 22.9995 18.2173 22.3567 18.2173 21.5647V18.6952" stroke="#191919" stroke-linecap="round" stroke-linejoin="round"/>
<path d="M5.78261 18.6952V21.5647C5.78261 22.3567 4.71226 22.9995 3.3913 22.9995C2.07035 22.9995 1 22.3577 1 21.5647V18.6952" fill="#E3E3E3"/>
<path d="M5.78261 18.6952V21.5647C5.78261 22.3567 4.71226 22.9995 3.3913 22.9995C2.07035 22.9995 1 22.3577 1 21.5647V18.6952" stroke="#191919" stroke-linecap="round" stroke-linejoin="round"/>
<path d="M6.73926 8.17346V15.8256C6.73926 17.1466 9.09517 18.2169 12.0001 18.2169C14.9051 18.2169 17.261 17.1466 17.261 15.8256V8.17346H6.73926Z" fill="#B2B2B2"/>
<path d="M12.0001 8.17346H6.73926V15.8256C6.73926 17.1466 9.09517 18.2169 12.0001 18.2169V8.17346Z" fill="#E3E3E3"/>
<path d="M6.73926 8.17346V15.8256C6.73926 17.1466 9.09517 18.2169 12.0001 18.2169C14.9051 18.2169 17.261 17.1466 17.261 15.8256V8.17346" stroke="#191919" stroke-linecap="round" stroke-linejoin="round"/>
<path d="M12.0001 10.5657C14.9057 10.5657 17.261 9.49507 17.261 8.17439C17.261 6.85371 14.9057 5.78308 12.0001 5.78308C9.09463 5.78308 6.73926 6.85371 6.73926 8.17439C6.73926 9.49507 9.09463 10.5657 12.0001 10.5657Z" fill="#808080" stroke="#191919" stroke-linecap="round" stroke-linejoin="round"/>
<path d="M20.6086 3.87006C21.9293 3.87006 22.9999 3.22768 22.9999 2.43527C22.9999 1.64286 21.9293 1.00049 20.6086 1.00049C19.2879 1.00049 18.2173 1.64286 18.2173 2.43527C18.2173 3.22768 19.2879 3.87006 20.6086 3.87006Z" fill="#808080" stroke="#191919" stroke-linecap="round" stroke-linejoin="round"/>
<path d="M3.3913 3.87006C4.71198 3.87006 5.78261 3.22768 5.78261 2.43527C5.78261 1.64286 4.71198 1.00049 3.3913 1.00049C2.07063 1.00049 1 1.64286 1 2.43527C1 3.22768 2.07063 3.87006 3.3913 3.87006Z" fill="#808080" stroke="#191919" stroke-linecap="round" stroke-linejoin="round"/>
<path d="M20.6086 20.1309C21.9293 20.1309 22.9999 19.4885 22.9999 18.6961C22.9999 17.9037 21.9293 17.2614 20.6086 17.2614C19.2879 17.2614 18.2173 17.9037 18.2173 18.6961C18.2173 19.4885 19.2879 20.1309 20.6086 20.1309Z" fill="#808080" stroke="#191919" stroke-linecap="round" stroke-linejoin="round"/>
<path d="M3.3913 20.1309C4.71198 20.1309 5.78261 19.4885 5.78261 18.6961C5.78261 17.9037 4.71198 17.2614 3.3913 17.2614C2.07063 17.2614 1 17.9037 1 18.6961C1 19.4885 2.07063 20.1309 3.3913 20.1309Z" fill="#808080" stroke="#191919" stroke-linecap="round" stroke-linejoin="round"/>
<path d="M17.261 11.9995C17.261 13.3205 14.9051 14.3908 12.0001 14.3908C9.09517 14.3908 6.73926 13.3214 6.73926 11.9995" stroke="#191919" stroke-linecap="round" stroke-linejoin="round"/>
<path d="M5.6001 5.85669L7.07505 7.33165" stroke="#191919" stroke-linecap="round" stroke-linejoin="round"/>
<path d="M18.3998 5.85669L16.9248 7.33165" stroke="#191919" stroke-linecap="round" stroke-linejoin="round"/>
<path d="M5.64355 18.214L7.12712 16.7295" stroke="#191919" stroke-linecap="round" stroke-linejoin="round"/>
<path d="M18.3556 18.214L16.8721 16.7295" stroke="#191919" stroke-linecap="round" stroke-linejoin="round"/>
</g>
<defs>
<clipPath id="clip0_5303_3930">
<rect width="24" height="24" fill="white"/>
</clipPath>
</defs>
</svg>
