<svg width="24" height="24" viewBox="0 0 24 24" fill="none" xmlns="http://www.w3.org/2000/svg">
<g clip-path="url(#clip0_5303_8457)">
<path d="M18.2428 23H1.98191C1.72823 23 1.48493 22.8992 1.30555 22.7198C1.12617 22.5405 1.02539 22.2972 1.02539 22.0435V1.95652C1.02539 1.70284 1.12617 1.45954 1.30555 1.28016C1.48493 1.10078 1.72823 1 1.98191 1H14.697C14.9506 1.00005 15.1939 1.10087 15.3732 1.28026L18.919 4.82609C19.0984 5.00543 19.1992 5.24868 19.1993 5.50235V22.0435C19.1993 22.2972 19.0985 22.5405 18.9191 22.7198C18.7398 22.8992 18.4965 23 18.2428 23Z" fill="#E3E3E3"/>
<path d="M16.9526 2.8767L15.3561 1.28026C15.1768 1.10087 14.9335 1.00005 14.6799 1H1.96482C1.71114 1 1.46784 1.10078 1.28846 1.28016C1.10908 1.45954 1.0083 1.70284 1.0083 1.95652V18.8219L16.9526 2.8767Z" fill="white"/>
<path d="M12.8834 23H1.98191C1.72823 23 1.48493 22.8992 1.30555 22.7198C1.12617 22.5405 1.02539 22.2972 1.02539 22.0435V1.95652C1.02539 1.70284 1.12617 1.45954 1.30555 1.28016C1.48493 1.10078 1.72823 1 1.98191 1H14.697C14.9506 1.00005 15.1939 1.10087 15.3732 1.28026L18.919 4.82609C19.0984 5.00543 19.1992 5.24868 19.1993 5.50235V10.2515" stroke="#191919" stroke-linecap="round" stroke-linejoin="round"/>
<path d="M4.85156 13.8289L7.67713 11.0034C7.8123 10.8685 7.98997 10.7845 8.18 10.7657C8.37003 10.7469 8.56072 10.7943 8.71974 10.9001L10.0522 11.7887C10.2148 11.8972 10.4108 11.9445 10.605 11.9221C10.7993 11.8997 10.9793 11.809 11.113 11.6663L13.73 8.87225" stroke="#191919" stroke-linecap="round" stroke-linejoin="round"/>
<path d="M4.85156 6.73914V16.3044H9.63417" stroke="#191919" stroke-linecap="round" stroke-linejoin="round"/>
<path d="M16.8019 21.1329C17.3761 21.1414 17.9464 21.0357 18.4794 20.8218C19.0124 20.608 19.4976 20.2903 19.9067 19.8872C20.3158 19.4841 20.6407 19.0037 20.8624 18.4739C21.0842 17.9442 21.1984 17.3756 21.1984 16.8013C21.1984 16.2269 21.0842 15.6584 20.8624 15.1286C20.6407 14.5988 20.3158 14.1184 19.9067 13.7153C19.4976 13.3123 19.0124 12.9946 18.4794 12.7807C17.9464 12.5669 17.3761 12.4611 16.8019 12.4697C15.6642 12.4866 14.5789 12.9504 13.7803 13.7609C12.9818 14.5714 12.5342 15.6635 12.5342 16.8013C12.5342 17.9391 12.9818 19.0312 13.7803 19.8417C14.5789 20.6522 15.6642 21.116 16.8019 21.1329Z" fill="#66E1FF"/>
<path d="M16.8022 12.4688C15.9439 12.4684 15.1049 12.7231 14.3916 13.2006C13.6784 13.678 13.1231 14.3567 12.7963 15.1503C12.4695 15.944 12.386 16.8169 12.5563 17.6581C12.7266 18.4994 13.1431 19.271 13.7528 19.8751L19.8746 13.7534C19.4731 13.3464 18.9947 13.0233 18.4673 12.8028C17.9399 12.5823 17.3739 12.4687 16.8022 12.4688Z" fill="#C2F3FF"/>
<path d="M16.8019 21.1329C17.3761 21.1414 17.9464 21.0357 18.4794 20.8218C19.0124 20.608 19.4976 20.2903 19.9067 19.8872C20.3158 19.4841 20.6407 19.0037 20.8624 18.4739C21.0842 17.9442 21.1984 17.3756 21.1984 16.8013C21.1984 16.2269 21.0842 15.6584 20.8624 15.1286C20.6407 14.5988 20.3158 14.1184 19.9067 13.7153C19.4976 13.3123 19.0124 12.9946 18.4794 12.7807C17.9464 12.5669 17.3761 12.4611 16.8019 12.4697C15.6642 12.4866 14.5789 12.9504 13.7803 13.7609C12.9818 14.5714 12.5342 15.6635 12.5342 16.8013C12.5342 17.9391 12.9818 19.0312 13.7803 19.8417C14.5789 20.6522 15.6642 21.116 16.8019 21.1329Z" stroke="#191919" stroke-linecap="round" stroke-linejoin="round"/>
<path d="M22.9915 22.9886L19.8848 19.8818" stroke="#191919" stroke-linecap="round" stroke-linejoin="round"/>
</g>
<defs>
<clipPath id="clip0_5303_8457">
<rect width="24" height="24" fill="white"/>
</clipPath>
</defs>
</svg>
