<svg width="24" height="24" viewBox="0 0 24 24" fill="none" xmlns="http://www.w3.org/2000/svg">
<g clip-path="url(#clip0_5303_3918)">
<path d="M1.00098 4.82593V17.2602C1.00098 19.374 5.06985 21.0861 10.0875 21.0861C15.1052 21.0861 19.1741 19.374 19.1741 17.2602V4.82593H1.00098Z" fill="#B2B2B2"/>
<path d="M10.0875 4.82593H1.00098V17.2602C1.00098 19.374 5.06985 21.0861 10.0875 21.0861V4.82593Z" fill="#E3E3E3"/>
<path d="M10.0875 8.65185C15.1059 8.65185 19.1741 6.93893 19.1741 4.82592C19.1741 2.71292 15.1059 1 10.0875 1C5.06917 1 1.00098 2.71292 1.00098 4.82592C1.00098 6.93893 5.06917 8.65185 10.0875 8.65185Z" fill="#808080"/>
<path d="M10.0875 8.65277C15.1059 8.65277 19.1741 6.93984 19.1741 4.82684C19.1741 2.71384 15.1059 1.00092 10.0875 1.00092C5.06917 1.00092 1.00098 2.71384 1.00098 4.82684C1.00098 6.93984 5.06917 8.65277 10.0875 8.65277Z" stroke="#191919" stroke-linecap="round" stroke-linejoin="round"/>
<path d="M10.0875 12.4778C5.06985 12.4778 1.00098 10.7656 1.00098 8.65179" stroke="#191919" stroke-linecap="round" stroke-linejoin="round"/>
<path d="M8.65283 16.7341C4.3171 16.4443 1.00098 14.869 1.00098 12.956" stroke="#191919" stroke-linecap="round" stroke-linejoin="round"/>
<path d="M9.13107 21.066C4.56291 20.8651 1.00098 19.2382 1.00098 17.2602V4.82593" stroke="#191919" stroke-linecap="round" stroke-linejoin="round"/>
<path d="M19.1738 4.82678V9.13095" stroke="#191919" stroke-linecap="round" stroke-linejoin="round"/>
<path d="M17.2597 21.5653C19.6369 21.5653 21.5639 19.6382 21.5639 17.2611C21.5639 14.884 19.6369 12.9569 17.2597 12.9569C14.8826 12.9569 12.9556 14.884 12.9556 17.2611C12.9556 19.6382 14.8826 21.5653 17.2597 21.5653Z" fill="#FF808C"/>
<path d="M17.2599 23C20.4294 23 22.9988 20.4306 22.9988 17.2611C22.9988 14.0916 20.4294 11.5222 17.2599 11.5222C14.0904 11.5222 11.521 14.0916 11.521 17.2611C11.521 20.4306 14.0904 23 17.2599 23Z" stroke="#191919" stroke-linecap="round" stroke-linejoin="round"/>
<path d="M13.2021 21.3185L21.3179 13.2028" stroke="#191919" stroke-linecap="round" stroke-linejoin="round"/>
</g>
<defs>
<clipPath id="clip0_5303_3918">
<rect width="24" height="24" fill="white"/>
</clipPath>
</defs>
</svg>
