<svg width="24" height="24" viewBox="0 0 24 24" fill="none" xmlns="http://www.w3.org/2000/svg">
<g clip-path="url(#clip0_5303_8385)">
<path d="M18.2252 23H1.9644C1.43611 23 1.00781 22.5718 1.00781 22.0435V1.95649C1.00781 1.4283 1.43611 1 1.9644 1H14.6794C14.933 1.00009 15.1763 1.10091 15.3556 1.28026L18.9015 4.82605C19.0807 5.0052 19.1814 5.24807 19.1818 5.50144V22.0435C19.1818 22.5718 18.7535 23 18.2252 23Z" fill="#E3E3E3"/>
<path d="M16.9506 2.87195L15.3542 1.27549C15.1741 1.09783 14.9309 0.998794 14.6779 1.00001H1.96284C1.43456 1.00001 1.00635 1.42822 1.00635 1.9565V18.8162L16.9506 2.87195Z" fill="white"/>
<path d="M10.4749 23H1.96186C1.43358 23 1.00537 22.5718 1.00537 22.0435V1.95649C1.00537 1.4283 1.43358 1 1.96186 1H14.6798C14.9334 1.00009 15.1766 1.10091 15.356 1.28026L18.9028 4.82605C19.0816 5.00539 19.182 5.24817 19.1821 5.50144V8.81673" stroke="#191919" stroke-linecap="round" stroke-linejoin="round"/>
<path d="M3.38281 14.3914H13.697" stroke="#191919" stroke-linecap="round" stroke-linejoin="round"/>
<path d="M4.81711 9.6087H5.7736C6.03774 9.6087 6.25185 9.8229 6.25185 10.0869V14.3913H4.33887V10.0869C4.33887 9.82281 4.55297 9.6087 4.81711 9.6087Z" fill="#66E1FF" stroke="#191919" stroke-linecap="round" stroke-linejoin="round"/>
<path d="M12.4695 8.65222H13.426C13.6902 8.65222 13.9043 8.86633 13.9043 9.13047V14.3913H11.9912V9.13047C11.9912 8.86633 12.2054 8.65222 12.4695 8.65222Z" fill="#66E1FF" stroke="#191919" stroke-linecap="round" stroke-linejoin="round"/>
<path d="M10.0776 14.3913V7.21738C10.0776 6.95324 9.86342 6.73914 9.59938 6.73914H8.6428C8.37866 6.73914 8.16455 6.95324 8.16455 7.21738V14.3913H10.0776Z" fill="#FF808C" stroke="#191919" stroke-linecap="round" stroke-linejoin="round"/>
<path d="M22.4023 14.9749L15.103 22.2731L11.5161 22.9905L12.2335 19.4036L19.5327 12.1053C20.3228 11.3153 21.6036 11.3153 22.3936 12.1053L22.4023 12.113C23.1923 12.9033 23.1923 14.1845 22.4023 14.9749Z" fill="#FFBC44" stroke="#191919" stroke-linecap="round" stroke-linejoin="round"/>
</g>
<defs>
<clipPath id="clip0_5303_8385">
<rect width="24" height="24" fill="white"/>
</clipPath>
</defs>
</svg>
