<svg width="24" height="24" viewBox="0 0 24 24" fill="none" xmlns="http://www.w3.org/2000/svg">
<g clip-path="url(#clip0_5303_4193)">
<path d="M1.00049 4.82605V17.2609C1.00049 19.3748 5.06954 21.087 10.0875 21.087C15.1054 21.087 19.1744 19.3748 19.1744 17.2609V4.82605H1.00049Z" fill="#B2B2B2"/>
<path d="M10.0875 4.82605H1.00049V17.2609C1.00049 19.3748 5.06954 21.087 10.0875 21.087V4.82605Z" fill="#E3E3E3"/>
<path d="M10.0884 8.65219C15.107 8.65219 19.1754 6.93919 19.1754 4.82609C19.1754 2.713 15.107 1 10.0884 1C5.06984 1 1.00146 2.713 1.00146 4.82609C1.00146 6.93919 5.06984 8.65219 10.0884 8.65219Z" fill="#808080"/>
<path d="M10.0884 8.65219C15.107 8.65219 19.1754 6.93919 19.1754 4.82609C19.1754 2.713 15.107 1 10.0884 1C5.06984 1 1.00146 2.713 1.00146 4.82609C1.00146 6.93919 5.06984 8.65219 10.0884 8.65219Z" stroke="#191919" stroke-linecap="round" stroke-linejoin="round"/>
<path d="M15.421 11.8316C8.31407 13.5983 1.00049 11.4863 1.00049 8.65216" stroke="#191919" stroke-linecap="round" stroke-linejoin="round"/>
<path d="M8.65267 16.7348C4.31771 16.4478 1.00049 14.8638 1.00049 12.9565" stroke="#191919" stroke-linecap="round" stroke-linejoin="round"/>
<path d="M9.13094 21.0669C4.56354 20.8651 1.00049 19.238 1.00049 17.2609V4.82605" stroke="#191919" stroke-linecap="round" stroke-linejoin="round"/>
<path d="M19.1748 4.82605V9.1304" stroke="#191919" stroke-linecap="round" stroke-linejoin="round"/>
<path d="M13.6732 20.1304C14.8617 20.1304 15.8254 19.1668 15.8254 17.9783C15.8254 16.7897 14.8617 15.8261 13.6732 15.8261C12.4846 15.8261 11.521 16.7897 11.521 17.9783C11.521 19.1668 12.4846 20.1304 13.6732 20.1304Z" fill="#FFEF5E" stroke="#191919" stroke-linecap="round" stroke-linejoin="round"/>
<path d="M20.847 23C22.0356 23 22.9992 22.0364 22.9992 20.8478C22.9992 19.6592 22.0356 18.6956 20.847 18.6956C19.6584 18.6956 18.6948 19.6592 18.6948 20.8478C18.6948 22.0364 19.6584 23 20.847 23Z" fill="#FFEF5E" stroke="#191919" stroke-linecap="round" stroke-linejoin="round"/>
<path d="M20.847 15.8261C22.0356 15.8261 22.9992 14.8625 22.9992 13.6739C22.9992 12.4853 22.0356 11.5217 20.847 11.5217C19.6584 11.5217 18.6948 12.4853 18.6948 13.6739C18.6948 14.8625 19.6584 15.8261 20.847 15.8261Z" fill="#FFEF5E" stroke="#191919" stroke-linecap="round" stroke-linejoin="round"/>
<path d="M15.5146 16.8735L19.006 14.7787" stroke="#191919" stroke-linecap="round" stroke-linejoin="round"/>
<path d="M15.6709 18.777L18.8504 20.0492" stroke="#191919" stroke-linecap="round" stroke-linejoin="round"/>
</g>
<defs>
<clipPath id="clip0_5303_4193">
<rect width="24" height="24" fill="white"/>
</clipPath>
</defs>
</svg>
