<svg width="24" height="24" viewBox="0 0 24 24" fill="none" xmlns="http://www.w3.org/2000/svg">
<g clip-path="url(#clip0_5303_3834)">
<path d="M20.6085 3.86859V15.3469C20.6085 16.9318 16.968 18.2164 12.4781 18.2164C7.98818 18.2164 4.34766 16.9328 4.34766 15.3469V3.86859H20.6085Z" fill="#B2B2B2"/>
<path d="M12.4781 3.86859H4.34766V15.3469C4.34766 16.9309 7.98722 18.2164 12.4781 18.2164V3.86859Z" fill="#E3E3E3"/>
<path d="M20.6085 3.86859V15.3469C20.6085 16.9318 16.968 18.2164 12.4781 18.2164C7.98818 18.2164 4.34766 16.9328 4.34766 15.3469V3.86859" stroke="#191919" stroke-linecap="round" stroke-linejoin="round"/>
<path d="M12.481 6.73913C16.9709 6.73913 20.6115 5.45452 20.6115 3.86957C20.6115 2.28461 16.9709 1 12.481 1C7.99111 1 4.35059 2.28461 4.35059 3.86957C4.35059 5.45452 7.99111 6.73913 12.481 6.73913Z" fill="#808080" stroke="#191919" stroke-linecap="round" stroke-linejoin="round"/>
<path d="M20.6085 7.69464C20.6085 9.2796 16.968 10.5642 12.4781 10.5642C7.98818 10.5642 4.34766 9.28055 4.34766 7.69464" stroke="#191919" stroke-linecap="round" stroke-linejoin="round"/>
<path d="M20.6085 11.5208C20.6085 13.1057 16.968 14.3903 12.4781 14.3903C7.98818 14.3903 4.34766 13.1067 4.34766 11.5208" stroke="#191919" stroke-linecap="round" stroke-linejoin="round"/>
<path d="M6.26074 23H17.739" stroke="#191919" stroke-linecap="round" stroke-linejoin="round"/>
<path d="M12.0029 18.2174V23" stroke="#191919" stroke-linecap="round" stroke-linejoin="round"/>
<path d="M1.71716 22.999C1.65374 22.999 1.59291 22.9738 1.54807 22.929C1.50322 22.8842 1.47803 22.8233 1.47803 22.7599C1.47803 22.6965 1.50322 22.6357 1.54807 22.5908C1.59291 22.546 1.65374 22.5208 1.71716 22.5208" stroke="#191919"/>
<path d="M1.71729 22.999C1.78071 22.999 1.84153 22.9738 1.88638 22.929C1.93122 22.8842 1.95642 22.8233 1.95642 22.7599C1.95642 22.6965 1.93122 22.6357 1.88638 22.5908C1.84153 22.546 1.78071 22.5208 1.71729 22.5208" stroke="#191919"/>
<path d="M4.10876 22.999C4.04534 22.999 3.98451 22.9738 3.93967 22.929C3.89482 22.8842 3.86963 22.8233 3.86963 22.7599C3.86963 22.6965 3.89482 22.6357 3.93967 22.5908C3.98451 22.546 4.04534 22.5208 4.10876 22.5208" stroke="#191919"/>
<path d="M4.1084 22.999C4.17182 22.999 4.23264 22.9738 4.27749 22.929C4.32233 22.8842 4.34753 22.8233 4.34753 22.7599C4.34753 22.6965 4.32233 22.6357 4.27749 22.5908C4.23264 22.546 4.17182 22.5208 4.1084 22.5208" stroke="#191919"/>
<path d="M19.8915 22.999C19.8281 22.999 19.7672 22.9738 19.7224 22.929C19.6775 22.8842 19.6523 22.8233 19.6523 22.7599C19.6523 22.6965 19.6775 22.6357 19.7224 22.5908C19.7672 22.546 19.8281 22.5208 19.8915 22.5208" stroke="#191919"/>
<path d="M19.8911 22.999C19.9545 22.999 20.0154 22.9738 20.0602 22.929C20.105 22.8842 20.1302 22.8233 20.1302 22.7599C20.1302 22.6965 20.105 22.6357 20.0602 22.5908C20.0154 22.546 19.9545 22.5208 19.8911 22.5208" stroke="#191919"/>
<path d="M22.2826 22.999C22.2192 22.999 22.1583 22.9738 22.1135 22.929C22.0687 22.8842 22.0435 22.8233 22.0435 22.7599C22.0435 22.6965 22.0687 22.6357 22.1135 22.5908C22.1583 22.546 22.2192 22.5208 22.2826 22.5208" stroke="#191919"/>
<path d="M22.2822 22.999C22.3456 22.999 22.4065 22.9738 22.4513 22.929C22.4962 22.8842 22.5214 22.8233 22.5214 22.7599C22.5214 22.6965 22.4962 22.6357 22.4513 22.5908C22.4065 22.546 22.3456 22.5208 22.2822 22.5208" stroke="#191919"/>
</g>
<defs>
<clipPath id="clip0_5303_3834">
<rect width="24" height="24" fill="white"/>
</clipPath>
</defs>
</svg>
