<svg width="24" height="24" viewBox="0 0 24 24" fill="none" xmlns="http://www.w3.org/2000/svg">
<g clip-path="url(#clip0_5303_4291)">
<path d="M7.28571 2.57092V7.80901C7.28571 8.67644 5.87771 9.38044 4.14286 9.38044C2.408 9.38044 1 8.67644 1 7.80901V2.57092H7.28571Z" fill="#B2B2B2"/>
<path d="M4.14286 2.57092H1V7.80901C1 8.67644 2.408 9.38044 4.14286 9.38044V2.57092Z" fill="#E3E3E3"/>
<path d="M7.28571 2.57092V7.80901C7.28571 8.67644 5.87771 9.38044 4.14286 9.38044C2.408 9.38044 1 8.67644 1 7.80901V2.57092" stroke="#191919" stroke-linecap="round" stroke-linejoin="round"/>
<path d="M23.0001 2.57092V7.80901C23.0001 8.67644 21.5921 9.38044 19.8572 9.38044C18.1224 9.38044 16.7144 8.67644 16.7144 7.80901V2.57092H23.0001Z" fill="#B2B2B2"/>
<path d="M19.8572 2.57092H16.7144V7.80901C16.7144 8.67644 18.1224 9.38044 19.8572 9.38044V2.57092Z" fill="#E3E3E3"/>
<path d="M23.0001 2.57092V7.80901C23.0001 8.67644 21.5921 9.38044 19.8572 9.38044C18.1224 9.38044 16.7144 8.67644 16.7144 7.80901V2.57092" stroke="#191919" stroke-linecap="round" stroke-linejoin="round"/>
<path d="M7.28571 16.19V21.4281C7.28571 22.2955 5.87771 22.9995 4.14286 22.9995C2.408 22.9995 1 22.2955 1 21.4281V16.19H7.28571Z" fill="#B2B2B2"/>
<path d="M4.14286 16.19H1V21.4281C1 22.2955 2.408 22.9995 4.14286 22.9995V16.19Z" fill="#E3E3E3"/>
<path d="M7.28571 16.19V21.4281C7.28571 22.2955 5.87771 22.9995 4.14286 22.9995C2.408 22.9995 1 22.2955 1 21.4281V16.19" stroke="#191919" stroke-linecap="round" stroke-linejoin="round"/>
<path d="M23.0001 16.19V21.4281C23.0001 22.2955 21.5921 22.9995 19.8572 22.9995C18.1224 22.9995 16.7144 22.2955 16.7144 21.4281V16.19H23.0001Z" fill="#B2B2B2"/>
<path d="M19.8572 16.19H16.7144V21.4281C16.7144 22.2955 18.1224 22.9995 19.8572 22.9995V16.19Z" fill="#E3E3E3"/>
<path d="M23.0001 16.19V21.4281C23.0001 22.2955 21.5921 22.9995 19.8572 22.9995C18.1224 22.9995 16.7144 22.2955 16.7144 21.4281V16.19" stroke="#191919" stroke-linecap="round" stroke-linejoin="round"/>
<path d="M4.14286 4.14341C5.87876 4.14341 7.28571 3.43941 7.28571 2.57198C7.28571 1.70455 5.87876 1.00055 4.14286 1.00055C2.40695 1.00055 1 1.70455 1 2.57198C1 3.43941 2.40695 4.14341 4.14286 4.14341Z" fill="#808080" stroke="#191919" stroke-linecap="round" stroke-linejoin="round"/>
<path d="M7.28571 5.18994C7.28571 6.05737 5.87771 6.76137 4.14286 6.76137C2.408 6.76137 1 6.05737 1 5.18994" stroke="#191919" stroke-linecap="round" stroke-linejoin="round"/>
<path d="M19.8572 4.14341C21.5931 4.14341 23.0001 3.43941 23.0001 2.57198C23.0001 1.70455 21.5931 1.00055 19.8572 1.00055C18.1213 1.00055 16.7144 1.70455 16.7144 2.57198C16.7144 3.43941 18.1213 4.14341 19.8572 4.14341Z" fill="#808080" stroke="#191919" stroke-linecap="round" stroke-linejoin="round"/>
<path d="M23.0001 5.18994C23.0001 6.05737 21.5921 6.76137 19.8572 6.76137C18.1224 6.76137 16.7144 6.05737 16.7144 5.18994" stroke="#191919" stroke-linecap="round" stroke-linejoin="round"/>
<path d="M4.14286 17.7624C5.87876 17.7624 7.28571 17.0584 7.28571 16.191C7.28571 15.3225 5.87876 14.6196 4.14286 14.6196C2.40695 14.6196 1 15.3225 1 16.191C1 17.0584 2.40695 17.7624 4.14286 17.7624Z" fill="#808080" stroke="#191919" stroke-linecap="round" stroke-linejoin="round"/>
<path d="M7.28571 18.809C7.28571 19.6764 5.87771 20.3804 4.14286 20.3804C2.408 20.3804 1 19.6764 1 18.809" stroke="#191919" stroke-linecap="round" stroke-linejoin="round"/>
<path d="M19.8572 17.7624C21.5931 17.7624 23.0001 17.0584 23.0001 16.191C23.0001 15.3225 21.5931 14.6196 19.8572 14.6196C18.1213 14.6196 16.7144 15.3225 16.7144 16.191C16.7144 17.0584 18.1213 17.7624 19.8572 17.7624Z" fill="#808080" stroke="#191919" stroke-linecap="round" stroke-linejoin="round"/>
<path d="M23.0001 18.809C23.0001 19.6764 21.5921 20.3804 19.8572 20.3804C18.1224 20.3804 16.7144 19.6764 16.7144 18.809" stroke="#191919" stroke-linecap="round" stroke-linejoin="round"/>
<path d="M7.1665 8.23645L16.8392 15.7531" stroke="#191919" stroke-linecap="round" stroke-linejoin="round"/>
<path d="M7.1665 15.7531L16.8392 8.23645" stroke="#191919" stroke-linecap="round" stroke-linejoin="round"/>
</g>
<defs>
<clipPath id="clip0_5303_4291">
<rect width="24" height="24" fill="white"/>
</clipPath>
</defs>
</svg>
