<svg width="24" height="24" viewBox="0 0 24 24" fill="none" xmlns="http://www.w3.org/2000/svg">
<g clip-path="url(#clip0_5303_11083)">
<path d="M16.1887 18.6957C17.1441 17.767 17.8007 16.5744 18.0745 15.2705C18.3484 13.9666 18.227 12.6106 17.7258 11.3761C17.2247 10.1415 16.3667 9.08454 15.2615 8.34039C14.1563 7.59623 12.8542 7.19873 11.5218 7.19873C10.1895 7.19873 8.88738 7.59623 7.78219 8.34039C6.677 9.08454 5.81895 10.1415 5.31782 11.3761C4.8167 12.6106 4.69528 13.9666 4.96911 15.2705C5.24293 16.5744 5.89955 17.767 6.85496 18.6957" fill="#FFEF5E"/>
<path d="M11.5218 10.6025C13.0018 10.6039 14.4396 11.0955 15.6105 12.0006C16.7814 12.9057 17.6194 14.1733 17.9937 15.6051C18.2566 14.6138 18.2883 13.5753 18.0864 12.5698C17.8844 11.5642 17.4541 10.6186 16.8287 9.80569C16.2034 8.9928 15.3996 8.33444 14.4795 7.8814C13.5593 7.42836 12.5474 7.19275 11.5218 7.19275C10.4962 7.19275 9.4843 7.42836 8.56418 7.8814C7.64405 8.33444 6.84029 8.9928 6.21492 9.80569C5.58954 10.6186 5.15927 11.5642 4.95729 12.5698C4.75532 13.5753 4.78703 14.6138 5.05 15.6051C5.42421 14.1733 6.26227 12.9057 7.43318 12.0006C8.60409 11.0955 10.0419 10.6039 11.5218 10.6025Z" fill="#FFF9BF"/>
<path d="M1 20.6086H23" stroke="#191919" stroke-linecap="round" stroke-linejoin="round"/>
<path d="M1 13.913H2.91304" stroke="#191919" stroke-linecap="round" stroke-linejoin="round"/>
<path d="M4.08203 6.47327L5.43455 7.82579" stroke="#191919" stroke-linecap="round" stroke-linejoin="round"/>
<path d="M11.522 3.39136V5.3044" stroke="#191919" stroke-linecap="round" stroke-linejoin="round"/>
<path d="M18.9614 6.47327L17.6089 7.82579" stroke="#191919" stroke-linecap="round" stroke-linejoin="round"/>
<path d="M22.0434 13.913H20.1304" stroke="#191919" stroke-linecap="round" stroke-linejoin="round"/>
<path d="M16.1887 18.6957C17.1441 17.767 17.8007 16.5744 18.0745 15.2705C18.3484 13.9666 18.227 12.6106 17.7258 11.3761C17.2247 10.1415 16.3667 9.08454 15.2615 8.34039C14.1563 7.59623 12.8542 7.19873 11.5218 7.19873C10.1895 7.19873 8.88738 7.59623 7.78219 8.34039C6.677 9.08454 5.81895 10.1415 5.31782 11.3761C4.8167 12.6106 4.69528 13.9666 4.96911 15.2705C5.24293 16.5744 5.89955 17.767 6.85496 18.6957" stroke="#191919" stroke-linecap="round" stroke-linejoin="round"/>
</g>
<defs>
<clipPath id="clip0_5303_11083">
<rect width="24" height="24" fill="white"/>
</clipPath>
</defs>
</svg>
