<svg width="24" height="24" viewBox="0 0 24 24" fill="none" xmlns="http://www.w3.org/2000/svg">
<path d="M11.9999 18.2231C13.7756 18.2231 15.4787 17.5177 16.7344 16.262C17.9901 15.0063 18.6955 13.3033 18.6955 11.5275C18.6955 9.75164 17.9901 8.04858 16.7344 6.7929C15.4787 5.53722 13.7756 4.83179 11.9999 4.83179C10.2241 4.83179 8.52099 5.53722 7.26531 6.7929C6.00963 8.04858 5.3042 9.75164 5.3042 11.5275C5.3042 13.3033 6.00963 15.0063 7.26531 16.262C8.52099 17.5177 10.2241 18.2231 11.9999 18.2231Z" fill="#FFEF5E"/>
<path d="M11.9999 8.20744C13.4798 8.20882 14.9176 8.70048 16.0885 9.60558C17.2594 10.5106 18.0975 11.7782 18.4717 13.21C18.7343 12.2189 18.7658 11.1807 18.5637 10.1755C18.3616 9.17034 17.9313 8.22499 17.306 7.41242C16.6807 6.59984 15.8771 5.94175 14.9572 5.4889C14.0373 5.03604 13.0257 4.80054 12.0004 4.80054C10.975 4.80054 9.96342 5.03604 9.04353 5.4889C8.12363 5.94175 7.32004 6.59984 6.69474 7.41242C6.06944 8.22499 5.63914 9.17034 5.43702 10.1755C5.23491 11.1807 5.26638 12.2189 5.52901 13.21C5.90318 11.7783 6.7411 10.5109 7.91182 9.60587C9.08253 8.70079 10.5201 8.20903 11.9999 8.20744Z" fill="#FFF9BF"/>
<path d="M8.17383 16.3044L11.9999 12.4783L15.826 16.3044" stroke="#191919" stroke-linecap="round" stroke-linejoin="round"/>
<path d="M12 12.4783V21.087" stroke="#191919" stroke-linecap="round" stroke-linejoin="round"/>
<path d="M12 2.91304V1" stroke="#191919" stroke-linecap="round" stroke-linejoin="round"/>
<path d="M18.0869 5.43443L19.4394 4.08191" stroke="#191919" stroke-linecap="round" stroke-linejoin="round"/>
<path d="M5.91258 5.43443L4.56006 4.08191" stroke="#191919" stroke-linecap="round" stroke-linejoin="round"/>
<path d="M18.0869 17.6091L19.4394 18.9616" stroke="#191919" stroke-linecap="round" stroke-linejoin="round"/>
<path d="M5.91258 17.6091L4.56006 18.9616" stroke="#191919" stroke-linecap="round" stroke-linejoin="round"/>
<path d="M3.39107 11.5217H1.47803" stroke="#191919" stroke-linecap="round" stroke-linejoin="round"/>
<path d="M22.5214 11.5217H20.6084" stroke="#191919" stroke-linecap="round" stroke-linejoin="round"/>
<path d="M1.47803 23H22.5215" stroke="#191919" stroke-linecap="round" stroke-linejoin="round"/>
<path d="M17.7725 14.903C18.3702 13.8859 18.6886 12.729 18.6954 11.5493C18.7022 10.3696 18.3972 9.20908 17.8113 8.18516C17.2254 7.16123 16.3794 6.31028 15.3589 5.71846C14.3383 5.12663 13.1796 4.81494 11.9999 4.81494C10.8201 4.81494 9.66137 5.12663 8.64085 5.71846C7.62033 6.31028 6.77429 7.16123 6.18838 8.18516C5.60247 9.20908 5.29749 10.3696 5.30431 11.5493C5.31114 12.729 5.62952 13.8859 6.22724 14.903" stroke="#191919" stroke-linecap="round" stroke-linejoin="round"/>
</svg>
