<svg width="24" height="24" viewBox="0 0 24 24" fill="none" xmlns="http://www.w3.org/2000/svg">
<path d="M12.0002 22.5416C17.8219 22.5416 22.5418 17.8217 22.5418 12C22.5418 6.17823 17.8219 1.45831 12.0002 1.45831C6.17841 1.45831 1.4585 6.17823 1.4585 12C1.4585 17.8217 6.17841 22.5416 12.0002 22.5416Z" fill="#FF808C"/>
<path d="M4.54569 19.4544C2.56868 17.4773 1.45801 14.7959 1.45801 12C1.45801 9.20411 2.56868 6.52271 4.54569 4.54569C6.52271 2.56868 9.20411 1.45801 12 1.45801C14.7959 1.45801 17.4773 2.56868 19.4544 4.54569L4.54569 19.4544Z" fill="#FFBFC5"/>
<path d="M12.0002 22.5416C17.8219 22.5416 22.5418 17.8217 22.5418 12C22.5418 6.17823 17.8219 1.45831 12.0002 1.45831C6.17841 1.45831 1.4585 6.17823 1.4585 12C1.4585 17.8217 6.17841 22.5416 12.0002 22.5416Z" stroke="#191919" stroke-linecap="round" stroke-linejoin="round"/>
<path d="M7.4165 7.41669L16.5832 16.5834" stroke="#191919" stroke-linecap="round" stroke-linejoin="round"/>
<path d="M16.5832 7.41669L7.4165 16.5834" stroke="#191919" stroke-linecap="round" stroke-linejoin="round"/>
</svg>
