<svg width="24" height="24" viewBox="0 0 24 24" fill="none" xmlns="http://www.w3.org/2000/svg">
<g clip-path="url(#clip0_5303_7089)">
<path d="M15.3491 7.69635H19.1746C20.1892 7.69635 21.1622 8.09939 21.8796 8.81681C22.5971 9.53423 23.0001 10.5073 23.0001 11.5218V17.2601C23.0001 17.5137 22.8993 17.757 22.72 17.9363C22.5406 18.1157 22.2974 18.2164 22.0437 18.2164H15.3491V7.69635Z" fill="white"/>
<path d="M23 11.5218V12.4782H19.1745C19.0421 12.4836 18.91 12.4599 18.7877 12.4086C18.6654 12.3574 18.5559 12.2799 18.4668 12.1817C18.3775 12.0862 18.3093 11.973 18.2664 11.8495C18.2236 11.7259 18.2072 11.5948 18.2182 11.4645V7.69635H19.1745C20.1891 7.69635 21.1621 8.09939 21.8796 8.81681C22.597 9.53423 23 10.5073 23 11.5218Z" fill="#66E1FF"/>
<path d="M19.1739 7.69635H18.2175V11.4645C18.2096 11.622 18.2408 11.779 18.3084 11.9216L21.6241 8.60586C20.9409 8.02199 20.0726 7.69967 19.1739 7.69635Z" fill="#C2F3FF"/>
<path d="M1.95979 3.87085H14.3926C14.6463 3.87085 14.8895 3.97161 15.0689 4.15096C15.2482 4.33032 15.349 4.57358 15.349 4.82722V17.2601H1.00342V4.82722C1.00342 4.57358 1.10418 4.33032 1.28353 4.15096C1.46289 3.97161 1.70614 3.87085 1.95979 3.87085Z" fill="#FF808C"/>
<path d="M15.3514 14.8691H1.00586V17.2601H15.3514V14.8691Z" fill="#E3E3E3"/>
<path d="M14.3926 3.87085H1.95979C1.70614 3.87085 1.46289 3.97161 1.28353 4.15096C1.10418 4.33032 1.00342 4.57358 1.00342 4.82722V7.21815C1.00342 6.96451 1.10418 6.72125 1.28353 6.54189C1.46289 6.36254 1.70614 6.26178 1.95979 6.26178H14.3926C14.6463 6.26178 14.8895 6.36254 15.0689 6.54189C15.2482 6.72125 15.349 6.96451 15.349 7.21815V4.82722C15.349 4.57358 15.2482 4.33032 15.0689 4.15096C14.8895 3.97161 14.6463 3.87085 14.3926 3.87085Z" fill="#FFBFC5"/>
<path d="M10.5678 6.73999H4.82959V10.5655H10.5678V6.73999Z" fill="#FFBC44"/>
<path d="M6.73823 10.5875H1V14.8691H6.73823V10.5875Z" fill="#FFBC44"/>
<path d="M12.4482 10.5875H6.70996V14.8691H12.4482V10.5875Z" fill="#FFBC44"/>
<path d="M15.827 20.1292C16.4611 20.1292 17.0692 19.8772 17.5176 19.4289C17.966 18.9805 18.2179 18.3723 18.2179 17.7382C18.2179 17.1041 17.966 16.496 17.5176 16.0476C17.0692 15.5992 16.4611 15.3473 15.827 15.3473C15.1929 15.3473 14.5847 15.5992 14.1363 16.0476C13.6879 16.496 13.436 17.1041 13.436 17.7382C13.436 18.3723 13.6879 18.9805 14.1363 19.4289C14.5847 19.8772 15.1929 20.1292 15.827 20.1292Z" fill="#808080"/>
<path d="M5.30646 20.1292C5.94057 20.1292 6.54871 19.8772 6.9971 19.4289C7.44549 18.9805 7.69739 18.3723 7.69739 17.7382C7.69739 17.1041 7.44549 16.496 6.9971 16.0476C6.54871 15.5992 5.94057 15.3473 5.30646 15.3473C4.67234 15.3473 4.0642 15.5992 3.61581 16.0476C3.16743 16.496 2.91553 17.1041 2.91553 17.7382C2.91553 18.3723 3.16743 18.9805 3.61581 19.4289C4.0642 19.8772 4.67234 20.1292 5.30646 20.1292Z" fill="#808080"/>
<path d="M11.5236 17.2601H9.61084" stroke="#191919" stroke-linecap="round" stroke-linejoin="round"/>
<path d="M20.131 18.2164H22.0437C22.2974 18.2164 22.5406 18.1157 22.72 17.9363C22.8993 17.757 23.0001 17.5137 23.0001 17.2601V11.5218C22.9968 10.5083 22.5927 9.53714 21.876 8.82043C21.1593 8.10372 20.1882 7.69963 19.1746 7.69635H15.3491" stroke="#191919" stroke-linecap="round" stroke-linejoin="round"/>
<path d="M22.9995 16.3037H21.5649" stroke="#191919" stroke-linecap="round" stroke-linejoin="round"/>
<path d="M9.61084 13.4346V10.5655H12.48V14.8692" stroke="#191919" stroke-linecap="round" stroke-linejoin="round"/>
<path d="M1.00342 10.5655H6.74165" stroke="#191919" stroke-linecap="round" stroke-linejoin="round"/>
<path d="M3.87256 10.5655V13.4346" stroke="#191919" stroke-linecap="round" stroke-linejoin="round"/>
<path d="M4.82861 6.73999H10.5668V10.5655H4.82861V6.73999Z" stroke="#191919" stroke-linecap="round" stroke-linejoin="round"/>
<path d="M7.69775 6.73999V8.65273" stroke="#191919" stroke-linecap="round" stroke-linejoin="round"/>
<path d="M6.7417 10.5655V13.9128" stroke="#191919" stroke-linecap="round" stroke-linejoin="round"/>
<path d="M15.349 13.4346V4.82722C15.349 4.57358 15.2482 4.33032 15.0689 4.15096C14.8895 3.97161 14.6463 3.87085 14.3926 3.87085H1.95979C1.70614 3.87085 1.46289 3.97161 1.28353 4.15096C1.10418 4.33032 1.00342 4.57358 1.00342 4.82722V17.2601" stroke="#191919" stroke-linecap="round" stroke-linejoin="round"/>
<path d="M22.9997 12.4782H19.1742C19.0432 12.4803 18.9132 12.4551 18.7925 12.4041C18.6717 12.3532 18.5629 12.2777 18.473 12.1825C18.383 12.0872 18.3139 11.9742 18.2699 11.8508C18.226 11.7273 18.2083 11.5961 18.2179 11.4654V7.69635" stroke="#191919" stroke-linecap="round" stroke-linejoin="round"/>
<path d="M15.827 20.1292C16.4611 20.1292 17.0692 19.8772 17.5176 19.4289C17.966 18.9805 18.2179 18.3723 18.2179 17.7382C18.2179 17.1041 17.966 16.496 17.5176 16.0476C17.0692 15.5992 16.4611 15.3473 15.827 15.3473C15.1929 15.3473 14.5847 15.5992 14.1363 16.0476C13.6879 16.496 13.436 17.1041 13.436 17.7382C13.436 18.3723 13.6879 18.9805 14.1363 19.4289C14.5847 19.8772 15.1929 20.1292 15.827 20.1292Z" stroke="#191919" stroke-linecap="round" stroke-linejoin="round"/>
<path d="M5.30646 20.1292C5.94057 20.1292 6.54871 19.8772 6.9971 19.4289C7.44549 18.9805 7.69739 18.3723 7.69739 17.7382C7.69739 17.1041 7.44549 16.496 6.9971 16.0476C6.54871 15.5992 5.94057 15.3473 5.30646 15.3473C4.67234 15.3473 4.0642 15.5992 3.61581 16.0476C3.16743 16.496 2.91553 17.1041 2.91553 17.7382C2.91553 18.3723 3.16743 18.9805 3.61581 19.4289C4.0642 19.8772 4.67234 20.1292 5.30646 20.1292Z" stroke="#191919" stroke-linecap="round" stroke-linejoin="round"/>
</g>
<defs>
<clipPath id="clip0_5303_7089">
<rect width="24" height="24" fill="white"/>
</clipPath>
</defs>
</svg>
