<svg width="24" height="24" viewBox="0 0 24 24" fill="none" xmlns="http://www.w3.org/2000/svg">
<g clip-path="url(#clip0_5303_6910)">
<path d="M11.9998 12C12.8877 12 13.7392 11.6472 14.3671 11.0194C14.995 10.3915 15.3477 9.53997 15.3477 8.65205C15.3477 7.76413 14.995 6.91258 14.3671 6.28472C13.7392 5.65686 12.8877 5.30414 11.9998 5.30414C11.1118 5.30414 10.2603 5.65686 9.63243 6.28472C9.00457 6.91258 8.65186 7.76413 8.65186 8.65205C8.65186 9.53997 9.00457 10.3915 9.63243 11.0194C10.2603 11.6472 11.1118 12 11.9998 12Z" fill="white"/>
<path d="M11.9998 9.60859C11.3232 9.60761 10.6629 9.40135 10.1061 9.01706C9.54936 8.63277 9.1223 8.08856 8.88143 7.45636C8.68315 7.96384 8.61172 8.51204 8.67334 9.05339C8.73496 9.59474 8.92777 10.1129 9.23503 10.5628C9.54229 11.0127 9.95472 11.3809 10.4365 11.6353C10.9183 11.8897 11.4549 12.0227 11.9998 12.0227C12.5446 12.0227 13.0812 11.8897 13.563 11.6353C14.0448 11.3809 14.4572 11.0127 14.7645 10.5628C15.0718 10.1129 15.2646 9.59474 15.3262 9.05339C15.3878 8.51204 15.3164 7.96384 15.1181 7.45636C14.8772 8.08856 14.4502 8.63277 13.8934 9.01706C13.3366 9.40135 12.6763 9.60761 11.9998 9.60859Z" fill="#E3E3E3"/>
<path d="M11.9998 12C12.8877 12 13.7392 11.6472 14.3671 11.0194C14.995 10.3915 15.3477 9.53997 15.3477 8.65205C15.3477 7.76413 14.995 6.91258 14.3671 6.28472C13.7392 5.65686 12.8877 5.30414 11.9998 5.30414C11.1118 5.30414 10.2603 5.65686 9.63243 6.28472C9.00457 6.91258 8.65186 7.76413 8.65186 8.65205C8.65186 9.53997 9.00457 10.3915 9.63243 11.0194C10.2603 11.6472 11.1118 12 11.9998 12Z" stroke="#191919" stroke-linecap="round" stroke-linejoin="round"/>
<path d="M7.6958 22.522C7.44211 22.522 7.19881 22.4212 7.01942 22.2418C6.84004 22.0625 6.73926 21.8192 6.73926 21.5655V14.8696C6.73926 14.6159 6.84004 14.3726 7.01942 14.1933C7.19881 14.0139 7.44211 13.9131 7.6958 13.9131H16.3047C16.5584 13.9131 16.8017 14.0139 16.9811 14.1933C17.1605 14.3726 17.2613 14.6159 17.2613 14.8696V21.5655C17.2613 21.8192 17.1605 22.0625 16.9811 22.2418C16.8017 22.4212 16.5584 22.522 16.3047 22.522H7.6958Z" fill="#FFBC44"/>
<path d="M16.3047 13.9131H7.6958C7.44211 13.9131 7.19881 14.0139 7.01942 14.1933C6.84004 14.3726 6.73926 14.6159 6.73926 14.8696V17.7393C6.73926 17.4856 6.84004 17.2423 7.01942 17.0629C7.19881 16.8835 7.44211 16.7827 7.6958 16.7827H16.3047C16.5584 16.7827 16.8017 16.8835 16.9811 17.0629C17.1605 17.2423 17.2613 17.4856 17.2613 17.7393V14.8696C17.2613 14.6159 17.1605 14.3726 16.9811 14.1933C16.8017 14.0139 16.5584 13.9131 16.3047 13.9131Z" fill="#FFDDA1"/>
<path d="M7.6958 22.522C7.44211 22.522 7.19881 22.4212 7.01942 22.2418C6.84004 22.0625 6.73926 21.8192 6.73926 21.5655V14.8696C6.73926 14.6159 6.84004 14.3726 7.01942 14.1933C7.19881 14.0139 7.44211 13.9131 7.6958 13.9131H16.3047C16.5584 13.9131 16.8017 14.0139 16.9811 14.1933C17.1605 14.3726 17.2613 14.6159 17.2613 14.8696V21.5655C17.2613 21.8192 17.1605 22.0625 16.9811 22.2418C16.8017 22.4212 16.5584 22.522 16.3047 22.522H7.6958Z" stroke="#191919" stroke-linecap="round" stroke-linejoin="round"/>
<path d="M5.30469 1.47803V5.30421C5.30469 5.71815 5.43894 6.12092 5.68731 6.45207C5.93567 6.78322 6.28474 7.02488 6.68211 7.14078L8.77504 7.75106" stroke="#191919" stroke-linecap="round" stroke-linejoin="round"/>
<path d="M18.6959 1.47803V5.30421C18.6959 5.71815 18.5617 6.12092 18.3133 6.45207C18.065 6.78322 17.7159 7.02488 17.3185 7.14078L15.2256 7.75106" stroke="#191919" stroke-linecap="round" stroke-linejoin="round"/>
<path d="M9.15355 10.416L6.15956 11.0856C5.90515 11.1422 5.66499 11.2502 5.45382 11.403C5.24265 11.5558 5.06493 11.7501 4.93156 11.974C4.79818 12.198 4.71198 12.4468 4.67822 12.7052C4.64447 12.9637 4.66388 13.2263 4.73526 13.477L5.13319 14.8697" stroke="#191919" stroke-linecap="round" stroke-linejoin="round"/>
<path d="M14.8462 10.416L17.8402 11.0856C18.0946 11.1422 18.3348 11.2502 18.5459 11.403C18.7571 11.5558 18.9348 11.7501 19.0682 11.974C19.2016 12.198 19.2878 12.4468 19.3215 12.7052C19.3553 12.9637 19.3359 13.2263 19.2645 13.477L18.8666 14.8697" stroke="#191919" stroke-linecap="round" stroke-linejoin="round"/>
<path d="M12.0005 9.60865C12.2542 9.60865 12.4975 9.50787 12.6769 9.32848C12.8563 9.1491 12.957 8.9058 12.957 8.6521C12.957 8.39841 12.8563 8.15511 12.6769 7.97572C12.4975 7.79634 12.2542 7.69556 12.0005 7.69556C11.7468 7.69556 11.5035 7.79634 11.3241 7.97572C11.1447 8.15511 11.0439 8.39841 11.0439 8.6521C11.0439 8.9058 11.1447 9.1491 11.3241 9.32848C11.5035 9.50787 11.7468 9.60865 12.0005 9.60865Z" fill="#FF808C"/>
<path d="M13.4346 13.9131V18.2175L11.9998 16.7827L10.5649 18.2175V13.9131H13.4346Z" fill="white"/>
<path d="M1 1.47803L5.30446 2.43457" stroke="#191919" stroke-linecap="round" stroke-linejoin="round"/>
<path d="M5.30469 2.43457L9.60915 1.47803" stroke="#191919" stroke-linecap="round" stroke-linejoin="round"/>
<path d="M14.3911 1.47803L18.6956 2.43457" stroke="#191919" stroke-linecap="round" stroke-linejoin="round"/>
<path d="M18.6953 2.43457L22.9998 1.47803" stroke="#191919" stroke-linecap="round" stroke-linejoin="round"/>
<path d="M12.0005 9.60865C12.2542 9.60865 12.4975 9.50787 12.6769 9.32848C12.8563 9.1491 12.957 8.9058 12.957 8.6521C12.957 8.39841 12.8563 8.15511 12.6769 7.97572C12.4975 7.79634 12.2542 7.69556 12.0005 7.69556C11.7468 7.69556 11.5035 7.79634 11.3241 7.97572C11.1447 8.15511 11.0439 8.39841 11.0439 8.6521C11.0439 8.9058 11.1447 9.1491 11.3241 9.32848C11.5035 9.50787 11.7468 9.60865 12.0005 9.60865Z" stroke="#191919" stroke-linecap="round" stroke-linejoin="round"/>
<path d="M13.4346 13.9131V18.2175L11.9998 16.7827L10.5649 18.2175V13.9131H13.4346Z" stroke="#191919" stroke-linecap="round" stroke-linejoin="round"/>
</g>
<defs>
<clipPath id="clip0_5303_6910">
<rect width="24" height="24" fill="white"/>
</clipPath>
</defs>
</svg>
