<svg width="24" height="24" viewBox="0 0 24 24" fill="none" xmlns="http://www.w3.org/2000/svg">
<g clip-path="url(#clip0_5303_7144)">
<path d="M23.0002 5.30436V16.7826C23.0002 17.0363 22.8994 17.2796 22.72 17.459C22.5407 17.6383 22.2973 17.7391 22.0437 17.7391H9.60889V5.30436C9.60889 5.05067 9.70967 4.80738 9.88904 4.62799C10.0684 4.44862 10.3117 4.34784 10.5654 4.34784H22.0437C22.2973 4.34784 22.5407 4.44862 22.72 4.62799C22.8994 4.80738 23.0002 5.05067 23.0002 5.30436Z" fill="#FF808C"/>
<path d="M23.0002 5.30436V7.2174C23.0002 6.96372 22.8994 6.72042 22.72 6.54104C22.5407 6.36166 22.2973 6.26088 22.0437 6.26088H10.5654C10.3117 6.26088 10.0684 6.36166 9.88904 6.54104C9.70967 6.72042 9.60889 6.96372 9.60889 7.2174V5.30436C9.60889 5.05067 9.70967 4.80738 9.88904 4.62799C10.0684 4.44862 10.3117 4.34784 10.5654 4.34784H22.0437C22.2973 4.34784 22.5407 4.44862 22.72 4.62799C22.8994 4.80738 23.0002 5.05067 23.0002 5.30436Z" fill="#FFBFC5"/>
<path d="M5.30513 19.6512C6.36168 19.6512 7.21818 18.7948 7.21818 17.7382C7.21818 16.6817 6.36168 15.8251 5.30513 15.8251C4.24859 15.8251 3.39209 16.6817 3.39209 17.7382C3.39209 18.7948 4.24859 19.6512 5.30513 19.6512Z" fill="#808080"/>
<path d="M18.6958 19.6522C19.0742 19.6522 19.444 19.54 19.7586 19.3297C20.0732 19.1196 20.3184 18.8208 20.4632 18.4713C20.6079 18.1217 20.6458 17.737 20.5721 17.3659C20.4982 16.9949 20.316 16.654 20.0485 16.3864C19.7809 16.1189 19.44 15.9367 19.069 15.8628C18.6979 15.7891 18.3132 15.827 17.9636 15.9717C17.6141 16.1165 17.3153 16.3617 17.1052 16.6763C16.8949 16.9909 16.7827 17.3607 16.7827 17.7391C16.7827 18.2465 16.9843 18.7331 17.343 19.0919C17.7018 19.4506 18.1884 19.6522 18.6958 19.6522Z" fill="#808080"/>
<path d="M9.60877 11.0434V17.739H7.21746C7.21746 17.2317 7.01591 16.7451 6.65714 16.3863C6.29838 16.0275 5.81179 15.826 5.30442 15.826C4.79704 15.826 4.31046 16.0275 3.95169 16.3863C3.59293 16.7451 3.39138 17.2317 3.39138 17.739H1.9566C1.70291 17.739 1.45961 17.6382 1.28023 17.4589C1.10085 17.2795 1.00007 17.0362 1.00007 16.7825V12.9756C0.998194 12.822 1.0338 12.6703 1.10381 12.5337C1.17382 12.397 1.27611 12.2794 1.40181 12.1912L4.3479 11.0434H9.60877Z" fill="#FFEF5E"/>
<path d="M9.60804 6.26086V11.0435H4.34717L5.12195 6.98782C5.17326 6.78028 5.29261 6.59591 5.46096 6.46415C5.62931 6.33238 5.83695 6.26082 6.05073 6.26086H9.60804Z" fill="#66E1FF"/>
<path d="M20.6089 17.7391H22.0437C22.2973 17.7391 22.5407 17.6383 22.72 17.459C22.8994 17.2796 23.0002 17.0363 23.0002 16.7826V5.30436C23.0002 5.05067 22.8994 4.80738 22.72 4.62799C22.5407 4.44862 22.2973 4.34784 22.0437 4.34784H10.5654C10.3117 4.34784 10.0684 4.44862 9.88904 4.62799C9.70967 4.80738 9.60889 5.05067 9.60889 5.30436V6.26088" stroke="#191919" stroke-linecap="round" stroke-linejoin="round"/>
<path d="M16.7833 17.7382H9.60938" stroke="#191919" stroke-linecap="round" stroke-linejoin="round"/>
<path d="M9.60889 6.26086V15.8261" stroke="#191919" stroke-linecap="round" stroke-linejoin="round"/>
<path d="M1 14.8696H2.43478" stroke="#191919" stroke-linecap="round" stroke-linejoin="round"/>
<path d="M8.99701 6.26086H6.05093C5.83731 6.26103 5.62988 6.3327 5.46173 6.46445C5.29358 6.5962 5.17437 6.78045 5.1231 6.98782L4.37988 10.878L8.99701 6.26086Z" fill="#C2F3FF"/>
<path d="M9.60877 17.739H7.21746C7.21746 17.2317 7.01591 16.7451 6.65714 16.3863C6.29838 16.0275 5.81179 15.826 5.30442 15.826C4.79704 15.826 4.31046 16.0275 3.95169 16.3863C3.59293 16.7451 3.39138 17.2317 3.39138 17.739H1.9566C1.70291 17.739 1.45961 17.6382 1.28023 17.4589C1.10085 17.2795 1.00007 17.0362 1.00007 16.7825V12.9756C0.998194 12.822 1.0338 12.6703 1.10381 12.5337C1.17382 12.397 1.27611 12.2794 1.40181 12.1912L4.3479 11.0434" stroke="#191919" stroke-linecap="round" stroke-linejoin="round"/>
<path d="M9.60804 6.26086V11.0435H4.34717L5.12195 6.98782C5.17326 6.78028 5.29261 6.59591 5.46096 6.46415C5.62931 6.33238 5.83695 6.26082 6.05073 6.26086H9.60804Z" stroke="#191919" stroke-linecap="round" stroke-linejoin="round"/>
<path d="M5.30513 19.6512C6.36168 19.6512 7.21818 18.7948 7.21818 17.7382C7.21818 16.6817 6.36168 15.8251 5.30513 15.8251C4.24859 15.8251 3.39209 16.6817 3.39209 17.7382C3.39209 18.7948 4.24859 19.6512 5.30513 19.6512Z" stroke="#191919" stroke-linecap="round" stroke-linejoin="round"/>
<path d="M18.6958 19.6522C19.0742 19.6522 19.444 19.54 19.7586 19.3297C20.0732 19.1196 20.3184 18.8208 20.4632 18.4713C20.6079 18.1217 20.6458 17.737 20.5721 17.3659C20.4982 16.9949 20.316 16.654 20.0485 16.3864C19.7809 16.1189 19.44 15.9367 19.069 15.8628C18.6979 15.7891 18.3132 15.827 17.9636 15.9717C17.6141 16.1165 17.3153 16.3617 17.1052 16.6763C16.8949 16.9909 16.7827 17.3607 16.7827 17.7391C16.7827 18.2465 16.9843 18.7331 17.343 19.0919C17.7018 19.4506 18.1884 19.6522 18.6958 19.6522Z" stroke="#191919" stroke-linecap="round" stroke-linejoin="round"/>
</g>
<defs>
<clipPath id="clip0_5303_7144">
<rect width="24" height="24" fill="white"/>
</clipPath>
</defs>
</svg>
