<svg width="24" height="24" viewBox="0 0 24 24" fill="none" xmlns="http://www.w3.org/2000/svg">
<g clip-path="url(#clip0_5303_7016)">
<path d="M11.5226 1.04004H1.97481C1.44749 1.04004 1.02002 1.46751 1.02002 1.99483V11.0652C1.02002 11.5926 1.44749 12.0199 1.97481 12.0199H11.5226C12.0499 12.0199 12.4773 11.5926 12.4773 11.0652V1.99483C12.4773 1.46751 12.0499 1.04004 11.5226 1.04004Z" fill="#FFBC44"/>
<path d="M11.5226 1.04004H1.97481C1.72154 1.04004 1.47872 1.14066 1.29963 1.31965C1.12054 1.49874 1.02002 1.74156 1.02002 1.99483V4.38174C1.02002 4.12858 1.12054 3.88566 1.29963 3.70667C1.47872 3.52758 1.72154 3.42696 1.97481 3.42696H11.5225C11.7757 3.42696 12.0187 3.52758 12.1976 3.70667C12.3766 3.88566 12.4773 4.12858 12.4773 4.38174V1.99483C12.4773 1.74156 12.3766 1.49874 12.1976 1.31965C12.0187 1.14066 11.7757 1.04004 11.5226 1.04004Z" fill="#FFDDA1"/>
<path d="M20.1155 23L20.593 17.2713H22.9799V13.9296C22.9799 12.6635 22.4769 11.4492 21.5816 10.554C20.6865 9.65868 19.4722 9.15576 18.2061 9.15576C16.9399 9.15576 15.7256 9.65868 14.8304 10.554C13.9351 11.4492 13.4321 12.6635 13.4321 13.9296V17.2713H15.819L16.2965 23H20.1155Z" fill="#66E1FF"/>
<path d="M18.2061 9.15576C16.9399 9.15576 15.7256 9.65868 14.8304 10.554C13.9351 11.4492 13.4321 12.6635 13.4321 13.9296V16.349C13.4321 15.0829 13.9351 13.8686 14.8304 12.9734C15.7256 12.0781 16.9399 11.5752 18.2061 11.5752C19.4722 11.5752 20.6865 12.0781 21.5816 12.9734C22.4769 13.8686 22.9799 15.0829 22.9799 16.349V13.9296C22.9799 12.6635 22.4769 11.4492 21.5816 10.554C20.6865 9.65868 19.4722 9.15576 18.2061 9.15576Z" fill="#C2F3FF"/>
<path d="M20.1155 23L20.593 17.2713H22.9799V13.9296C22.9799 12.6635 22.4769 11.4492 21.5816 10.554C20.6865 9.65868 19.4722 9.15576 18.2061 9.15576C16.9399 9.15576 15.7256 9.65868 14.8304 10.554C13.9351 11.4492 13.4321 12.6635 13.4321 13.9296V17.2713H15.819L16.2965 23H20.1155Z" stroke="#191919" stroke-linecap="round" stroke-linejoin="round"/>
<path d="M21.5109 3.90444H14.9038C15.0243 3.11459 15.4237 2.39404 16.0298 1.87336C16.636 1.35278 17.4084 1.06653 18.2074 1.06653C19.0063 1.06653 19.7789 1.35278 20.3849 1.87336C20.991 2.39394 21.3904 3.11459 21.5109 3.90444Z" fill="#66E1FF"/>
<path d="M21.5479 4.38182C21.5479 5.2681 21.1957 6.11807 20.5691 6.74483C19.9424 7.3715 19.0924 7.72353 18.2062 7.72353C17.3198 7.72353 16.4699 7.3715 15.8431 6.74483C15.2165 6.11807 14.8645 5.2681 14.8645 4.38182C14.8625 4.22186 14.8753 4.0621 14.9026 3.90448H21.5097C21.5369 4.0621 21.5497 4.22186 21.5479 4.38182Z" fill="#FFDDA1"/>
<path d="M14.9038 3.90247H12.9561" stroke="#191919" stroke-linecap="round" stroke-linejoin="round"/>
<path d="M4.83936 1V5.3366C4.83936 5.42532 4.86405 5.51218 4.9107 5.58762C4.95725 5.66306 5.02401 5.72396 5.10326 5.76359C5.1826 5.80331 5.27132 5.8201 5.35964 5.81209C5.44797 5.80409 5.53229 5.77169 5.60324 5.7185L6.74893 4.85926L7.89471 5.7185C7.96557 5.77169 8.04999 5.80409 8.13821 5.81209C8.22644 5.8201 8.31525 5.80331 8.3946 5.76359C8.47395 5.72396 8.54061 5.66306 8.58716 5.58762C8.63381 5.51218 8.65849 5.42532 8.65849 5.3366V1H4.83936Z" fill="white"/>
<path d="M12.4773 2.47227V1.99483C12.4773 1.74166 12.3766 1.49874 12.1976 1.31975C12.0187 1.14066 11.7757 1.04004 11.5226 1.04004H1.97481C1.72154 1.04004 1.47872 1.14066 1.29963 1.31965C1.12054 1.49874 1.02002 1.74156 1.02002 1.99483V11.0652C1.02002 11.3184 1.12054 11.5613 1.29963 11.7403C1.47872 11.9193 1.72154 12.0199 1.97481 12.0199H10.0903" stroke="#191919" stroke-linecap="round" stroke-linejoin="round"/>
<path d="M21.5109 3.90444H14.9038C15.0243 3.11459 15.4237 2.39404 16.0298 1.87336C16.636 1.35278 17.4084 1.06653 18.2074 1.06653C19.0063 1.06653 19.7789 1.35278 20.3849 1.87336C20.991 2.39394 21.3904 3.11459 21.5109 3.90444Z" stroke="#191919" stroke-linecap="round" stroke-linejoin="round"/>
<path d="M21.5479 4.38182C21.5479 5.2681 21.1957 6.11807 20.5691 6.74483C19.9424 7.3715 19.0924 7.72353 18.2062 7.72353C17.3198 7.72353 16.4699 7.3715 15.8431 6.74483C15.2165 6.11807 14.8645 5.2681 14.8645 4.38182C14.8625 4.22186 14.8753 4.0621 14.9026 3.90448H21.5097C21.5369 4.0621 21.5497 4.22186 21.5479 4.38182Z" stroke="#191919" stroke-linecap="round" stroke-linejoin="round"/>
<path d="M4.83936 1V5.3366C4.83936 5.42532 4.86405 5.51218 4.9107 5.58762C4.95725 5.66306 5.02401 5.72396 5.10326 5.76359C5.1826 5.80331 5.27132 5.8201 5.35964 5.81209C5.44797 5.80409 5.53229 5.77169 5.60324 5.7185L6.74893 4.85926L7.89471 5.7185C7.96557 5.77169 8.04999 5.80409 8.13821 5.81209C8.22644 5.8201 8.31525 5.80331 8.3946 5.76359C8.47395 5.72396 8.54061 5.66306 8.58716 5.58762C8.63381 5.51218 8.65849 5.42532 8.65849 5.3366V1H4.83936Z" stroke="#191919" stroke-linecap="round" stroke-linejoin="round"/>
</g>
<defs>
<clipPath id="clip0_5303_7016">
<rect width="24" height="24" fill="white"/>
</clipPath>
</defs>
</svg>
