<svg width="24" height="24" viewBox="0 0 24 24" fill="none" xmlns="http://www.w3.org/2000/svg">
<g clip-path="url(#clip0_5303_7058)">
<path d="M16.5989 11.5131V20.2804H6.84768C6.58932 20.2804 6.34155 20.1778 6.15886 19.9951C5.97617 19.8124 5.87354 19.5647 5.87354 19.3063V11.5131C5.87354 11.2547 5.97617 11.007 6.15886 10.8243C6.34155 10.6416 6.58932 10.5389 6.84768 10.5389H15.615C15.8745 10.5382 16.1238 10.6402 16.3082 10.8228C16.4926 11.0054 16.5971 11.2536 16.5989 11.5131Z" fill="#FF808C"/>
<path d="M16.3067 10.8194C16.122 10.6383 15.8737 10.5369 15.615 10.5369H6.84768C6.58932 10.5369 6.34155 10.6396 6.15886 10.8222C5.97617 11.0049 5.87354 11.2527 5.87354 11.5111V13.9484C5.87354 13.69 5.97617 13.4423 6.15886 13.2596C6.34155 13.0769 6.58932 12.9742 6.84768 12.9742H15.615C15.8745 12.9735 16.1238 13.0755 16.3082 13.2581C16.4926 13.4407 16.5971 13.6889 16.5989 13.9484V11.513C16.5986 11.3838 16.5727 11.2559 16.5225 11.1369C16.4723 11.0178 16.399 10.9099 16.3067 10.8194Z" fill="#FFBFC5"/>
<path d="M5.8712 11.513C6.51657 11.5222 7.15732 11.4029 7.75621 11.1623C8.3551 10.9216 8.90018 10.5643 9.35979 10.1112C9.81939 9.65804 10.1844 9.11806 10.4335 8.52264C10.6826 7.92721 10.8108 7.28822 10.8108 6.64278C10.8108 5.99735 10.6826 5.35835 10.4335 4.76293C10.1844 4.16751 9.81939 3.62753 9.35979 3.17438C8.90018 2.72122 8.3551 2.36394 7.75621 2.12328C7.15732 1.88262 6.51657 1.76339 5.8712 1.77252C4.59146 1.79062 3.37026 2.3117 2.47168 3.22308C1.57309 4.13447 1.06934 5.36291 1.06934 6.64278C1.06934 7.92266 1.57309 9.1511 2.47168 10.0625C3.37026 10.9739 4.59146 11.4949 5.8712 11.513Z" fill="#E3E3E3"/>
<path d="M9.31613 3.19769C8.86378 2.74541 8.32678 2.38665 7.73578 2.14189C7.14478 1.89714 6.51136 1.7712 5.87168 1.77124C4.5798 1.77133 3.34086 2.28462 2.42743 3.19818C1.514 4.11174 1.00089 5.35075 1.00098 6.64263C1.00107 7.93451 1.51435 9.17345 2.42792 10.0869L9.31613 3.19769Z" fill="white"/>
<path d="M5.8712 11.513C6.51657 11.5222 7.15732 11.4029 7.75621 11.1623C8.3551 10.9216 8.90018 10.5643 9.35979 10.1112C9.81939 9.65804 10.1844 9.11806 10.4335 8.52264C10.6826 7.92721 10.8108 7.28822 10.8108 6.64278C10.8108 5.99735 10.6826 5.35835 10.4335 4.76293C10.1844 4.16751 9.81939 3.62753 9.35979 3.17438C8.90018 2.72122 8.3551 2.36394 7.75621 2.12328C7.15732 1.88262 6.51657 1.76339 5.8712 1.77252C4.59146 1.79062 3.37026 2.3117 2.47168 3.22308C1.57309 4.13447 1.06934 5.36291 1.06934 6.64278C1.06934 7.92266 1.57309 9.1511 2.47168 10.0625C3.37026 10.9739 4.59146 11.4949 5.8712 11.513Z" stroke="#191919" stroke-linecap="round" stroke-linejoin="round"/>
<path d="M7.81939 7.61649H5.87109V4.20697" stroke="#191919" stroke-linecap="round" stroke-linejoin="round"/>
<path d="M22.0154 16.3838H16.5991V13.4614H20.2911C20.4925 13.4622 20.6887 13.5254 20.8527 13.6422C21.0167 13.7591 21.1404 13.9239 21.2069 14.114L22.0154 16.3838Z" fill="#66E1FF"/>
<path d="M22.8239 19.8693C22.7333 19.9965 22.6135 20.1001 22.4745 20.1713C22.3354 20.2425 22.1813 20.2793 22.0251 20.2784H20.8854C20.7856 19.9937 20.5999 19.747 20.3538 19.5725C20.1077 19.3979 19.8135 19.3042 19.5118 19.3042C19.2101 19.3042 18.9159 19.3979 18.6698 19.5725C18.4238 19.747 18.238 19.9937 18.1383 20.2784H16.5991V16.3818H22.0154L22.9408 18.9828C22.9945 19.129 23.0119 19.286 22.9916 19.4405C22.9712 19.5949 22.9137 19.742 22.8239 19.8693Z" fill="white"/>
<path d="M16.5996 13.4594H16.5898" stroke="#191919" stroke-linecap="round" stroke-linejoin="round"/>
<path d="M11.7188 10.539H15.6154C15.7436 10.5377 15.8709 10.562 15.9897 10.6105C16.1085 10.659 16.2164 10.7307 16.3071 10.8214C16.3978 10.9121 16.4695 11.02 16.518 11.1388C16.5665 11.2576 16.5908 11.3849 16.5895 11.5131L16.5992 16.3839" stroke="#191919" stroke-linecap="round" stroke-linejoin="round"/>
<path d="M16.5993 20.2785H11.144" stroke="#191919" stroke-linecap="round" stroke-linejoin="round"/>
<path d="M5.87109 13.4614V19.3063C5.87109 19.5646 5.97373 19.8124 6.15642 19.9951C6.3391 20.1778 6.58688 20.2804 6.84524 20.2804H8.39609" stroke="#191919" stroke-linecap="round" stroke-linejoin="round"/>
<path d="M20.9733 20.7675C20.9733 21.155 20.8193 21.5267 20.5453 21.8007C20.2712 22.0747 19.8996 22.2287 19.512 22.2287C19.1245 22.2287 18.7528 22.0747 18.4788 21.8007C18.2048 21.5267 18.0508 21.155 18.0508 20.7675C18.0498 20.6019 18.08 20.4363 18.1385 20.2804C18.2382 19.9957 18.424 19.749 18.67 19.5744C18.9161 19.3999 19.2103 19.3062 19.512 19.3062C19.8137 19.3062 20.1079 19.3999 20.354 19.5744C20.6001 19.749 20.7858 19.9957 20.8856 20.2804C20.944 20.4363 20.9742 20.6019 20.9733 20.7675Z" fill="#808080"/>
<path d="M9.76738 22.2287C10.1549 22.2287 10.5266 22.0748 10.8006 21.8007C11.0747 21.5267 11.2286 21.155 11.2286 20.7675C11.2286 20.38 11.0747 20.0083 10.8006 19.7343C10.5266 19.4602 10.1549 19.3063 9.76738 19.3063C9.37984 19.3063 9.00817 19.4602 8.73413 19.7343C8.4601 20.0083 8.30615 20.38 8.30615 20.7675C8.30615 21.155 8.4601 21.5267 8.73413 21.8007C9.00817 22.0748 9.37984 22.2287 9.76738 22.2287Z" fill="#808080"/>
<path d="M1 15.4096L3.92245 15.4145" stroke="#191919" stroke-linecap="round" stroke-linejoin="round"/>
<path d="M2.46143 17.358H3.92265" stroke="#191919" stroke-linecap="round" stroke-linejoin="round"/>
<path d="M3.43604 19.3063H3.92311" stroke="#191919" stroke-linecap="round" stroke-linejoin="round"/>
<path d="M16.5996 16.3818H16.5898" stroke="#191919" stroke-linecap="round" stroke-linejoin="round"/>
<path d="M16.5991 13.4614V16.3838H17.9171L20.7237 13.5773C20.5908 13.5046 20.4425 13.4649 20.2911 13.4614H16.5991Z" fill="#C2F3FF"/>
<path d="M22.0154 16.3838H16.5991V13.4614H20.2911C20.4925 13.4622 20.6887 13.5254 20.8527 13.6422C21.0167 13.7591 21.1404 13.9239 21.2069 14.114L22.0154 16.3838Z" stroke="#191919" stroke-linecap="round" stroke-linejoin="round"/>
<path d="M22.8239 19.8693C22.7333 19.9965 22.6135 20.1001 22.4745 20.1713C22.3354 20.2425 22.1813 20.2793 22.0251 20.2784H20.8854C20.7856 19.9937 20.5999 19.747 20.3538 19.5725C20.1077 19.3979 19.8135 19.3042 19.5118 19.3042C19.2101 19.3042 18.9159 19.3979 18.6698 19.5725C18.4238 19.747 18.238 19.9937 18.1383 20.2784H16.5991V16.3818H22.0154L22.9408 18.9828C22.9945 19.129 23.0119 19.286 22.9916 19.4405C22.9712 19.5949 22.9137 19.742 22.8239 19.8693Z" stroke="#191919" stroke-linecap="round" stroke-linejoin="round"/>
<path d="M20.9733 20.7675C20.9733 21.155 20.8193 21.5267 20.5453 21.8007C20.2712 22.0747 19.8996 22.2287 19.512 22.2287C19.1245 22.2287 18.7528 22.0747 18.4788 21.8007C18.2048 21.5267 18.0508 21.155 18.0508 20.7675C18.0498 20.6019 18.08 20.4363 18.1385 20.2804C18.2382 19.9957 18.424 19.749 18.67 19.5744C18.9161 19.3999 19.2103 19.3062 19.512 19.3062C19.8137 19.3062 20.1079 19.3999 20.354 19.5744C20.6001 19.749 20.7858 19.9957 20.8856 20.2804C20.944 20.4363 20.9742 20.6019 20.9733 20.7675Z" stroke="#191919" stroke-linecap="round" stroke-linejoin="round"/>
<path d="M9.76738 22.2287C10.1549 22.2287 10.5266 22.0748 10.8006 21.8007C11.0747 21.5267 11.2286 21.155 11.2286 20.7675C11.2286 20.38 11.0747 20.0083 10.8006 19.7343C10.5266 19.4602 10.1549 19.3063 9.76738 19.3063C9.37984 19.3063 9.00817 19.4602 8.73413 19.7343C8.4601 20.0083 8.30615 20.38 8.30615 20.7675C8.30615 21.155 8.4601 21.5267 8.73413 21.8007C9.00817 22.0748 9.37984 22.2287 9.76738 22.2287Z" stroke="#191919" stroke-linecap="round" stroke-linejoin="round"/>
</g>
<defs>
<clipPath id="clip0_5303_7058">
<rect width="24" height="24" fill="white"/>
</clipPath>
</defs>
</svg>
