<svg width="24" height="24" viewBox="0 0 24 24" fill="none" xmlns="http://www.w3.org/2000/svg">
<path d="M1.95703 4.13348V11.438C1.98513 13.8516 2.75432 16.1983 4.16042 18.1602C5.56654 20.1222 7.54163 21.6047 9.81823 22.4068L10.8904 22.8027C11.6067 23.0658 12.3931 23.0658 13.1094 22.8027L14.1816 22.4068C16.4582 21.6047 18.4333 20.1222 19.8394 18.1602C21.2455 16.1983 22.0147 13.8516 22.0428 11.438V4.13348C22.0419 3.84649 21.9567 3.5661 21.7979 3.32705C21.6391 3.08801 21.4137 2.90082 21.1495 2.78868C18.2522 1.57938 15.1393 0.971202 11.9999 1.00105C8.86049 0.971202 5.74771 1.57938 2.85037 2.78868C2.5862 2.90082 2.36075 3.08801 2.20194 3.32705C2.04315 3.5661 1.95799 3.84649 1.95703 4.13348Z" fill="#78EB7B"/>
<path d="M11.9999 1.00105C8.86049 0.971202 5.74771 1.57938 2.85037 2.78868C2.5862 2.90082 2.36075 3.08801 2.20194 3.32705C2.04315 3.5661 1.95799 3.84649 1.95703 4.13348V11.438C1.98513 13.8516 2.75432 16.1983 4.16042 18.1602C5.56654 20.1222 7.54163 21.6047 9.81823 22.4068L10.8904 22.8018C11.2457 22.9329 11.6213 23 11.9999 22.9998V1.00105Z" fill="#C9F7CA"/>
<path d="M1.95703 4.13348V11.438C1.98513 13.8516 2.75432 16.1983 4.16042 18.1602C5.56654 20.1222 7.54163 21.6047 9.81823 22.4068L10.8904 22.8027C11.6067 23.0658 12.3931 23.0658 13.1094 22.8027L14.1816 22.4068C16.4582 21.6047 18.4333 20.1222 19.8394 18.1602C21.2455 16.1983 22.0147 13.8516 22.0428 11.438V4.13348C22.0419 3.84649 21.9567 3.5661 21.7979 3.32705C21.6391 3.08801 21.4137 2.90082 21.1495 2.78868C18.2522 1.57938 15.1393 0.971202 11.9999 1.00105C8.86049 0.971202 5.74771 1.57938 2.85037 2.78868C2.5862 2.90082 2.36075 3.08801 2.20194 3.32705C2.04315 3.5661 1.95799 3.84649 1.95703 4.13348Z" stroke="#191919" stroke-linecap="round" stroke-linejoin="round"/>
<path d="M16.7824 8.92047C16.7824 7.1271 15.6222 5.71344 14.1923 5.71344C13.7536 5.71346 13.322 5.82525 12.9385 6.03828C12.5549 6.25132 12.2319 6.55856 12.0001 6.93102C11.7679 6.55901 11.445 6.2521 11.0618 6.03912C10.6784 5.82613 10.2473 5.71407 9.8088 5.71344C8.37793 5.71344 7.21773 7.1271 7.21773 8.92047C7.17184 9.64399 7.27387 10.3692 7.51758 11.0521C7.76128 11.7349 8.14156 12.3608 8.63522 12.8917C8.21771 13.9073 8.007 14.9959 8.01543 16.094C8.01398 16.6902 8.0736 17.2851 8.19333 17.8692C8.21795 17.9869 8.28237 18.0925 8.37575 18.1683C8.46912 18.2441 8.58574 18.2853 8.70599 18.2852C8.84042 18.286 8.97032 18.2368 9.07052 18.1472C9.17073 18.0576 9.23409 17.934 9.24831 17.8003C9.46543 15.8137 10.6151 14.3006 12.0001 14.3006C13.385 14.3006 14.5414 15.8262 14.7537 17.8156C14.7677 17.9446 14.8288 18.064 14.9253 18.1507C15.0219 18.2373 15.1471 18.2852 15.2769 18.2852C15.4024 18.2851 15.524 18.2418 15.6212 18.1626C15.7184 18.0833 15.7853 17.973 15.8106 17.85C15.9279 17.2721 15.9866 16.6837 15.9857 16.094C15.9938 14.9959 15.7828 13.9072 15.3649 12.8917C15.8587 12.3609 16.2391 11.735 16.4828 11.0521C16.7266 10.3693 16.8285 9.64401 16.7824 8.92047Z" fill="#E3E3E3"/>
<path d="M12.0001 6.93102C11.7679 6.55901 11.445 6.2521 11.0618 6.03912C10.6784 5.82613 10.2473 5.71407 9.8088 5.71344C8.37793 5.71344 7.21773 7.1271 7.21773 8.92047C7.17184 9.64399 7.27387 10.3692 7.51758 11.0521C7.76128 11.7349 8.14156 12.3608 8.63522 12.8917C8.21771 13.9073 8.007 14.9959 8.01543 16.094C8.01398 16.6902 8.0736 17.2851 8.19333 17.8692C8.21795 17.9869 8.28237 18.0925 8.37575 18.1683C8.46912 18.2441 8.58574 18.2853 8.70599 18.2852C8.84056 18.286 8.97059 18.2366 9.07082 18.1468C9.17105 18.057 9.23431 17.9332 9.24831 17.7994C9.46543 15.8137 10.6151 14.3006 12.0001 14.3006V6.93102Z" fill="white"/>
<path d="M16.7824 8.92047C16.7824 7.1271 15.6222 5.71344 14.1923 5.71344C13.7536 5.71346 13.322 5.82525 12.9385 6.03828C12.5549 6.25132 12.2319 6.55856 12.0001 6.93102C11.7679 6.55901 11.445 6.2521 11.0618 6.03912C10.6784 5.82613 10.2473 5.71407 9.8088 5.71344C8.37793 5.71344 7.21773 7.1271 7.21773 8.92047C7.17184 9.64399 7.27387 10.3692 7.51758 11.0521C7.76128 11.7349 8.14156 12.3608 8.63522 12.8917C8.21771 13.9073 8.007 14.9959 8.01543 16.094C8.01398 16.6902 8.0736 17.2851 8.19333 17.8692C8.21795 17.9869 8.28237 18.0925 8.37575 18.1683C8.46912 18.2441 8.58574 18.2853 8.70599 18.2852C8.84042 18.286 8.97032 18.2368 9.07052 18.1472C9.17073 18.0576 9.23409 17.934 9.24831 17.8003C9.46543 15.8137 10.6151 14.3006 12.0001 14.3006C13.385 14.3006 14.5414 15.8262 14.7537 17.8156C14.7677 17.9446 14.8288 18.064 14.9253 18.1507C15.0219 18.2373 15.1471 18.2852 15.2769 18.2852C15.4024 18.2851 15.524 18.2418 15.6212 18.1626C15.7184 18.0833 15.7853 17.973 15.8106 17.85C15.9279 17.2721 15.9866 16.6837 15.9857 16.094C15.9938 14.9959 15.7828 13.9072 15.3649 12.8917C15.8587 12.3609 16.2391 11.735 16.4828 11.0521C16.7266 10.3693 16.8285 9.64401 16.7824 8.92047Z" stroke="#191919" stroke-linecap="round" stroke-linejoin="round"/>
</svg>
