<svg width="24" height="24" viewBox="0 0 24 24" fill="none" xmlns="http://www.w3.org/2000/svg">
<path d="M21.5632 17.365V21.3432C21.5639 21.5708 21.4833 21.7911 21.3361 21.9647C21.1888 22.1382 20.9846 22.2535 20.7599 22.2899C14.9585 23.2367 9.04174 23.2367 3.24029 22.2899C3.01629 22.2521 2.81288 22.1364 2.66589 21.9632C2.5189 21.7899 2.43789 21.5703 2.43701 21.3432V17.365C2.43701 17.999 2.68883 18.6071 3.13722 19.0555C3.58561 19.5038 4.19368 19.7558 4.82771 19.7558C5.46184 19.7558 6.06991 19.5038 6.5183 19.0555C6.96669 18.6071 7.21851 17.999 7.21851 17.365C7.21851 17.999 7.47042 18.6071 7.91881 19.0555C8.3671 19.5038 8.97527 19.7558 9.6093 19.7558C10.2433 19.7558 10.8515 19.5038 11.2999 19.0555C11.7482 18.6071 12.0001 17.999 12.0001 17.365C12.0001 17.999 12.252 18.6071 12.7003 19.0555C13.1487 19.5038 13.7569 19.7558 14.3909 19.7558C15.0249 19.7558 15.633 19.5038 16.0815 19.0555C16.5298 18.6071 16.7817 17.999 16.7817 17.365C16.7817 17.999 17.0336 18.6071 17.4819 19.0555C17.9303 19.5038 18.5385 19.7558 19.1725 19.7558C19.8065 19.7558 20.4146 19.5038 20.863 19.0555C21.3114 18.6071 21.5632 17.999 21.5632 17.365Z" fill="#FF808C" stroke="#191919" stroke-linecap="round" stroke-linejoin="round"/>
<path d="M21.5632 2.65682V6.63503C21.5632 6.001 21.3114 5.39293 20.863 4.94454C20.4146 4.49615 19.8064 4.24424 19.1724 4.24424C18.5384 4.24424 17.9303 4.49615 17.4819 4.94454C17.0335 5.39293 16.7817 6.001 16.7817 6.63503C16.7817 6.001 16.5298 5.39293 16.0815 4.94454C15.633 4.49615 15.0249 4.24434 14.3909 4.24434C13.7569 4.24434 13.1487 4.49615 12.7003 4.94454C12.252 5.39293 12.0001 6.001 12.0001 6.63503C12.0001 6.001 11.7482 5.39293 11.2999 4.94454C10.8515 4.49615 10.2433 4.24434 9.6093 4.24434C8.97527 4.24434 8.36711 4.49615 7.91881 4.94454C7.47042 5.39293 7.21851 6.001 7.21851 6.63503C7.21851 6.001 6.96669 5.39293 6.5183 4.94454C6.06991 4.49615 5.46184 4.24434 4.82771 4.24434C4.19368 4.24434 3.58561 4.49615 3.13722 4.94454C2.68883 5.39293 2.43702 6.001 2.43702 6.63503V2.65682C2.43633 2.42921 2.51686 2.20892 2.66404 2.03538C2.81123 1.86184 3.01561 1.74647 3.24029 1.71006C9.04184 0.763313 14.9585 0.763313 20.7599 1.71006C20.9839 1.74793 21.1873 1.86369 21.3343 2.03684C21.4813 2.21009 21.5624 2.4296 21.5632 2.65682Z" fill="#FF808C" stroke="#191919" stroke-linecap="round" stroke-linejoin="round"/>
<path d="M7.21851 6.63497V9.60904C7.21851 9.86271 7.11778 10.1059 6.93848 10.2852C6.75909 10.4646 6.51586 10.5654 6.26219 10.5654H3.39323C3.13966 10.5654 2.89643 10.4646 2.71704 10.2852C2.53774 10.1059 2.43701 9.86271 2.43701 9.60904V6.63497C2.43701 6.00084 2.68883 5.39277 3.13722 4.94438C3.58561 4.49599 4.19368 4.24417 4.82771 4.24417C5.46184 4.24417 6.06991 4.49609 6.5183 4.94438C6.96669 5.39277 7.21851 6.00084 7.21851 6.63497Z" fill="white"/>
<path d="M6.26219 8.94456H3.39323C3.13966 8.94456 2.89643 8.84383 2.71704 8.66454C2.53774 8.48514 2.43701 8.24191 2.43701 7.98824V9.60914C2.43701 9.86291 2.53774 10.106 2.71704 10.2854C2.89643 10.4648 3.13966 10.5655 3.39323 10.5655H6.26219C6.51586 10.5655 6.75909 10.4648 6.93838 10.2854C7.11778 10.106 7.21851 9.86291 7.21851 9.60914V7.98346C7.21919 8.10947 7.19488 8.2343 7.14716 8.35094C7.09933 8.46747 7.02896 8.57347 6.94014 8.66278C6.85122 8.75209 6.74562 8.82295 6.62927 8.87136C6.51293 8.91967 6.38819 8.94456 6.26219 8.94456Z" fill="#E3E3E3"/>
<path d="M7.21851 6.63497V9.60904C7.21851 9.86271 7.11778 10.1059 6.93848 10.2852C6.75909 10.4646 6.51586 10.5654 6.26219 10.5654H3.39323C3.13966 10.5654 2.89643 10.4646 2.71704 10.2852C2.53774 10.1059 2.43701 9.86271 2.43701 9.60904V6.63497C2.43701 6.00084 2.68883 5.39277 3.13722 4.94438C3.58561 4.49599 4.19368 4.24417 4.82771 4.24417C5.46184 4.24417 6.06991 4.49609 6.5183 4.94438C6.96669 5.39277 7.21851 6.00084 7.21851 6.63497Z" stroke="#191919" stroke-linecap="round" stroke-linejoin="round"/>
<path d="M11.9999 6.63497V9.60904C11.9999 9.86271 11.899 10.1059 11.7197 10.2852C11.5404 10.4645 11.2971 10.5654 11.0435 10.5654H8.17458C7.92101 10.5654 7.67768 10.4646 7.49838 10.2852C7.31909 10.1059 7.21826 9.86271 7.21826 9.60904V6.63497C7.21826 6.00084 7.47018 5.39277 7.91857 4.94438C8.36686 4.49599 8.97502 4.24417 9.60906 4.24417C10.2431 4.24417 10.8513 4.49609 11.2996 4.94438C11.7479 5.39277 11.9999 6.00084 11.9999 6.63497Z" fill="white"/>
<path d="M11.0435 8.94456H8.17458C7.92101 8.94456 7.67768 8.84383 7.49838 8.66454C7.31909 8.48514 7.21826 8.24191 7.21826 7.98824V9.60914C7.21826 9.86291 7.31909 10.106 7.49838 10.2854C7.67768 10.4648 7.92101 10.5655 8.17458 10.5655H11.0435C11.2971 10.5655 11.5404 10.4648 11.7197 10.2854C11.899 10.106 11.9999 9.86291 11.9999 9.60914V7.98346C12.0005 8.10947 11.9762 8.2343 11.9284 8.35094C11.8807 8.46747 11.8103 8.57347 11.7215 8.66278C11.6326 8.75209 11.527 8.82295 11.4105 8.87136C11.2943 8.91967 11.1694 8.94456 11.0435 8.94456Z" fill="#E3E3E3"/>
<path d="M11.9999 6.63497V9.60904C11.9999 9.86271 11.899 10.1059 11.7197 10.2852C11.5404 10.4645 11.2971 10.5654 11.0435 10.5654H8.17458C7.92101 10.5654 7.67768 10.4646 7.49838 10.2852C7.31909 10.1059 7.21826 9.86271 7.21826 9.60904V6.63497C7.21826 6.00084 7.47018 5.39277 7.91857 4.94438C8.36686 4.49599 8.97502 4.24417 9.60906 4.24417C10.2431 4.24417 10.8513 4.49609 11.2996 4.94438C11.7479 5.39277 11.9999 6.00084 11.9999 6.63497Z" stroke="#191919" stroke-linecap="round" stroke-linejoin="round"/>
<path d="M16.7816 6.63497V9.60904C16.7816 9.86271 16.6808 10.1059 16.5015 10.2852C16.3222 10.4645 16.0788 10.5654 15.8253 10.5654H12.9563C12.7027 10.5654 12.4594 10.4646 12.2801 10.2852C12.1008 10.1058 12 9.86271 12 9.60904V6.63497C12 6.00084 12.2519 5.39277 12.7002 4.94438C13.1486 4.49599 13.7568 4.24417 14.3908 4.24417C15.0248 4.24417 15.6329 4.49609 16.0814 4.94438C16.5297 5.39277 16.7816 6.00084 16.7816 6.63497Z" fill="white"/>
<path d="M15.8253 8.94456H12.9563C12.7027 8.94456 12.4594 8.84383 12.2801 8.66454C12.1008 8.48514 12 8.24191 12 7.98824V9.60914C12 9.86291 12.1008 10.106 12.2801 10.2854C12.4594 10.4648 12.7027 10.5655 12.9563 10.5655H15.8253C16.0788 10.5655 16.3222 10.4648 16.5015 10.2854C16.6808 10.106 16.7816 9.86291 16.7816 9.60914V7.98346C16.7823 8.10947 16.758 8.2343 16.7101 8.35094C16.6624 8.46747 16.592 8.57347 16.5031 8.66278C16.4143 8.75209 16.3087 8.82295 16.1923 8.87136C16.076 8.91967 15.9512 8.94456 15.8253 8.94456Z" fill="#E3E3E3"/>
<path d="M16.7816 6.63497V9.60904C16.7816 9.86271 16.6808 10.1059 16.5015 10.2852C16.3222 10.4645 16.0788 10.5654 15.8253 10.5654H12.9563C12.7027 10.5654 12.4594 10.4646 12.2801 10.2852C12.1008 10.1058 12 9.86271 12 9.60904V6.63497C12 6.00084 12.2519 5.39277 12.7002 4.94438C13.1486 4.49599 13.7568 4.24417 14.3908 4.24417C15.0248 4.24417 15.6329 4.49609 16.0814 4.94438C16.5297 5.39277 16.7816 6.00084 16.7816 6.63497Z" stroke="#191919" stroke-linecap="round" stroke-linejoin="round"/>
<path d="M21.5632 6.63497V9.60904C21.5632 9.86271 21.4625 10.1059 21.2832 10.2852C21.1039 10.4645 20.8606 10.5654 20.6069 10.5654H17.7381C17.4844 10.5654 17.2412 10.4646 17.0619 10.2852C16.8826 10.1058 16.7817 9.86271 16.7817 9.60904V6.63497C16.7817 6.00084 17.0336 5.39277 17.4819 4.94438C17.9303 4.49599 18.5385 4.24417 19.1725 4.24417C19.8066 4.24417 20.4146 4.49609 20.863 4.94438C21.3114 5.39277 21.5632 6.00084 21.5632 6.63497Z" fill="white"/>
<path d="M20.6069 8.94456H17.7381C17.4844 8.94456 17.2412 8.84383 17.0619 8.66454C16.8825 8.48514 16.7817 8.24191 16.7817 7.98824V9.60914C16.7817 9.86291 16.8825 10.106 17.0619 10.2854C17.2412 10.4648 17.4844 10.5655 17.7381 10.5655H20.6069C20.8606 10.5655 21.1038 10.4648 21.2832 10.2854C21.4625 10.106 21.5632 9.86291 21.5632 9.60914V7.98346C21.5639 8.10947 21.5396 8.2343 21.4918 8.35094C21.4442 8.46747 21.3737 8.57347 21.2849 8.66278C21.196 8.75209 21.0903 8.82295 20.974 8.87136C20.8577 8.91967 20.7329 8.94456 20.6069 8.94456Z" fill="#E3E3E3"/>
<path d="M21.5632 6.63497V9.60904C21.5632 9.86271 21.4625 10.1059 21.2832 10.2852C21.1039 10.4645 20.8606 10.5654 20.6069 10.5654H17.7381C17.4844 10.5654 17.2412 10.4646 17.0619 10.2852C16.8826 10.1058 16.7817 9.86271 16.7817 9.60904V6.63497C16.7817 6.00084 17.0336 5.39277 17.4819 4.94438C17.9303 4.49599 18.5385 4.24417 19.1725 4.24417C19.8066 4.24417 20.4146 4.49609 20.863 4.94438C21.3114 5.39277 21.5632 6.00084 21.5632 6.63497Z" stroke="#191919" stroke-linecap="round" stroke-linejoin="round"/>
<path d="M16.7817 17.3629V14.3907C16.7817 14.1371 16.8825 13.8938 17.0618 13.7145C17.2411 13.5352 17.4844 13.4344 17.7381 13.4344H20.6069C20.8606 13.4344 21.1038 13.5352 21.2832 13.7145C21.4626 13.8938 21.5632 14.1371 21.5632 14.3907V17.3649C21.5632 17.9989 21.3114 18.607 20.863 19.0554C20.4146 19.5038 19.8065 19.7557 19.1724 19.7557C18.5384 19.7557 17.9303 19.5038 17.4819 19.0554C17.0336 18.607 16.7817 17.9989 16.7817 17.3649V17.3629Z" fill="#E3E3E3"/>
<path d="M17.7381 15.0534H20.6069C20.8606 15.0534 21.1038 15.1543 21.2832 15.3336C21.4626 15.5129 21.5633 15.7562 21.5633 16.0098V14.3907C21.5633 14.1371 21.4625 13.8938 21.2832 13.7145C21.1039 13.5352 20.8606 13.4344 20.6069 13.4344H17.7381C17.4844 13.4344 17.2412 13.5352 17.0619 13.7145C16.8826 13.8938 16.7818 14.1371 16.7818 14.3907V16.0165C16.7809 15.8903 16.805 15.7653 16.8526 15.6484C16.9003 15.5316 16.9706 15.4254 17.0594 15.3359C17.1484 15.2464 17.2541 15.1753 17.3705 15.1269C17.487 15.0784 17.6119 15.0534 17.7381 15.0534Z" fill="white"/>
<path d="M16.7817 17.3629V14.3907C16.7817 14.1371 16.8825 13.8938 17.0618 13.7145C17.2411 13.5352 17.4844 13.4344 17.7381 13.4344H20.6069C20.8606 13.4344 21.1038 13.5352 21.2832 13.7145C21.4626 13.8938 21.5632 14.1371 21.5632 14.3907V17.3649C21.5632 17.9989 21.3114 18.607 20.863 19.0554C20.4146 19.5038 19.8065 19.7557 19.1724 19.7557C18.5384 19.7557 17.9303 19.5038 17.4819 19.0554C17.0336 18.607 16.7817 17.9989 16.7817 17.3649V17.3629Z" stroke="#191919" stroke-linecap="round" stroke-linejoin="round"/>
<path d="M12 17.3629V14.3907C12 14.1371 12.1008 13.8938 12.2801 13.7145C12.4594 13.5352 12.7026 13.4344 12.9563 13.4344H15.8253C16.0788 13.4344 16.3222 13.5352 16.5015 13.7145C16.6808 13.8938 16.7816 14.1371 16.7816 14.3907V17.3649C16.7816 17.9989 16.5297 18.607 16.0814 19.0554C15.6329 19.5038 15.0248 19.7557 14.3908 19.7557C13.7568 19.7557 13.1486 19.5038 12.7002 19.0554C12.2519 18.607 12 17.9989 12 17.3649V17.3629Z" fill="#E3E3E3"/>
<path d="M12.9563 15.0534H15.8253C16.0789 15.0534 16.3222 15.1543 16.5015 15.3336C16.6808 15.5129 16.7816 15.7562 16.7816 16.0098V14.3907C16.7816 14.1371 16.6808 13.8938 16.5015 13.7145C16.3222 13.5352 16.0789 13.4344 15.8253 13.4344H12.9563C12.7028 13.4344 12.4594 13.5352 12.2801 13.7145C12.1008 13.8938 12 14.1371 12 14.3907V16.0165C11.9991 15.8903 12.0233 15.7653 12.0709 15.6484C12.1185 15.5316 12.1889 15.4254 12.2777 15.3359C12.3666 15.2464 12.4723 15.1753 12.5889 15.1269C12.7053 15.0784 12.8302 15.0534 12.9563 15.0534Z" fill="white"/>
<path d="M12 17.3629V14.3907C12 14.1371 12.1008 13.8938 12.2801 13.7145C12.4594 13.5352 12.7026 13.4344 12.9563 13.4344H15.8253C16.0788 13.4344 16.3222 13.5352 16.5015 13.7145C16.6808 13.8938 16.7816 14.1371 16.7816 14.3907V17.3649C16.7816 17.9989 16.5297 18.607 16.0814 19.0554C15.6329 19.5038 15.0248 19.7557 14.3908 19.7557C13.7568 19.7557 13.1486 19.5038 12.7002 19.0554C12.2519 18.607 12 17.9989 12 17.3649V17.3629Z" stroke="#191919" stroke-linecap="round" stroke-linejoin="round"/>
<path d="M7.21826 17.3629V14.3907C7.21826 14.1371 7.31909 13.8938 7.49838 13.7145C7.67768 13.5352 7.92101 13.4344 8.17458 13.4344H11.0435C11.2971 13.4344 11.5404 13.5352 11.7197 13.7145C11.899 13.8938 11.9999 14.1371 11.9999 14.3907V17.3649C11.9999 17.9989 11.7479 18.607 11.2996 19.0554C10.8513 19.5038 10.2431 19.7557 9.60906 19.7557C8.97502 19.7557 8.36686 19.5038 7.91857 19.0554C7.47018 18.607 7.21826 17.9989 7.21826 17.3649V17.3629Z" fill="#E3E3E3"/>
<path d="M8.1746 15.0534H11.0436C11.2971 15.0534 11.5405 15.1543 11.7198 15.3336C11.8991 15.5129 11.9999 15.7562 11.9999 16.0098V14.3907C11.9999 14.1371 11.8991 13.8938 11.7198 13.7145C11.5405 13.5352 11.2971 13.4344 11.0436 13.4344H8.1746C7.92103 13.4344 7.6777 13.5352 7.49841 13.7145C7.31901 13.8938 7.21828 14.1371 7.21828 14.3907V16.0165C7.21741 15.8903 7.24151 15.7653 7.28914 15.6484C7.33687 15.5316 7.40715 15.4254 7.49606 15.3359C7.58488 15.2464 7.69059 15.1753 7.80713 15.1269C7.92357 15.0784 8.0485 15.0534 8.1746 15.0534Z" fill="white"/>
<path d="M7.21826 17.3629V14.3907C7.21826 14.1371 7.31909 13.8938 7.49838 13.7145C7.67768 13.5352 7.92101 13.4344 8.17458 13.4344H11.0435C11.2971 13.4344 11.5404 13.5352 11.7197 13.7145C11.899 13.8938 11.9999 14.1371 11.9999 14.3907V17.3649C11.9999 17.9989 11.7479 18.607 11.2996 19.0554C10.8513 19.5038 10.2431 19.7557 9.60906 19.7557C8.97502 19.7557 8.36686 19.5038 7.91857 19.0554C7.47018 18.607 7.21826 17.9989 7.21826 17.3649V17.3629Z" stroke="#191919" stroke-linecap="round" stroke-linejoin="round"/>
<path d="M2.43701 17.3629V14.3907C2.43701 14.1371 2.53774 13.8938 2.71704 13.7145C2.89643 13.5352 3.13966 13.4344 3.39323 13.4344H6.26219C6.51586 13.4344 6.75909 13.5352 6.93838 13.7145C7.11778 13.8938 7.21851 14.1371 7.21851 14.3907V17.3649C7.21851 17.9989 6.96659 18.607 6.5183 19.0554C6.06991 19.5038 5.46184 19.7557 4.82771 19.7557C4.19368 19.7557 3.58561 19.5038 3.13722 19.0554C2.68883 18.607 2.43701 17.9989 2.43701 17.3649V17.3629Z" fill="#E3E3E3"/>
<path d="M3.39335 15.0534H6.26231C6.51598 15.0534 6.75921 15.1543 6.9385 15.3336C7.1179 15.5129 7.21863 15.7562 7.21863 16.0098V14.3907C7.21863 14.1371 7.1179 13.8938 6.9385 13.7145C6.75921 13.5352 6.51598 13.4344 6.26231 13.4344H3.39335C3.13978 13.4344 2.89655 13.5352 2.71716 13.7145C2.53786 13.8938 2.43703 14.1371 2.43703 14.3907V16.0165C2.43616 15.8903 2.46026 15.7653 2.50799 15.6484C2.55562 15.5316 2.6259 15.4254 2.71481 15.3359C2.80373 15.2464 2.90944 15.1753 3.02588 15.1269C3.14232 15.0784 3.26725 15.0534 3.39335 15.0534Z" fill="white"/>
<path d="M2.43701 17.3629V14.3907C2.43701 14.1371 2.53774 13.8938 2.71704 13.7145C2.89643 13.5352 3.13966 13.4344 3.39323 13.4344H6.26219C6.51586 13.4344 6.75909 13.5352 6.93838 13.7145C7.11778 13.8938 7.21851 14.1371 7.21851 14.3907V17.3649C7.21851 17.9989 6.96659 18.607 6.5183 19.0554C6.06991 19.5038 5.46184 19.7557 4.82771 19.7557C4.19368 19.7557 3.58561 19.5038 3.13722 19.0554C2.68883 18.607 2.43701 17.9989 2.43701 17.3649V17.3629Z" stroke="#191919" stroke-linecap="round" stroke-linejoin="round"/>
</svg>
