<svg width="24" height="24" viewBox="0 0 24 24" fill="none" xmlns="http://www.w3.org/2000/svg">
<path d="M16.285 13.8269C16.9947 15.5529 17.3524 17.4033 17.3372 19.2695C17.338 20.2843 17.2387 21.2967 17.0407 22.2921C16.9988 22.492 16.8894 22.6714 16.7309 22.8003C16.5724 22.9292 16.3744 22.9996 16.1702 22.9999C15.9416 23.0006 15.7207 22.9171 15.5495 22.7654C15.3785 22.6137 15.2692 22.4044 15.2424 22.1773C14.8789 18.8008 12.918 16.2277 10.565 16.2277C8.21196 16.2277 6.25109 18.8008 5.88761 22.1773C5.86085 22.4044 5.75152 22.6137 5.58043 22.7654C5.40933 22.9171 5.18843 23.0006 4.95979 22.9999C4.75553 22.9996 4.55757 22.9292 4.39909 22.8003C4.24062 22.6714 4.13126 22.492 4.08935 22.2921C3.89133 21.2967 3.79201 20.2843 3.79283 19.2695C3.77758 17.4033 4.13531 15.5529 4.845 13.8269C3.48674 12.4782 2.43457 10.3738 2.43457 7.07384C2.43457 4.0321 4.405 1.63123 6.83457 1.63123C7.57955 1.63059 8.31251 1.81891 8.96492 2.17856C9.61732 2.53822 10.1679 3.05748 10.565 3.68775C10.7941 3.32794 11.0734 3.00264 11.3943 2.72166C11.4718 2.65373 11.5692 2.61266 11.672 2.60455C11.7747 2.59644 11.8773 2.62175 11.9645 2.6767C12.0517 2.73164 12.1188 2.81328 12.1559 2.90946C12.1929 3.00563 12.1979 3.11121 12.17 3.21044C11.9539 3.99162 11.9211 4.81218 12.0743 5.6081C12.2275 6.40402 12.5625 7.15377 13.0533 7.79886C13.544 8.44396 14.1772 8.96693 14.9034 9.32698C15.6295 9.68703 16.4291 9.87443 17.2396 9.87453C17.4022 9.87453 17.5639 9.86688 17.7179 9.85157C17.7956 9.84423 17.874 9.85602 17.9461 9.88592C18.0182 9.91583 18.0819 9.96294 18.1317 10.0231C18.1813 10.0833 18.2156 10.1548 18.2313 10.2313C18.2471 10.3077 18.2439 10.3869 18.222 10.4618C17.8733 11.7302 17.2066 12.8884 16.285 13.8269Z" fill="white"/>
<path d="M10.5832 16.2278C8.43368 16.2292 6.36681 15.3998 4.8144 13.9131C4.12688 15.6146 3.77981 17.4345 3.79283 19.2696C3.79201 20.2844 3.89134 21.2968 4.08936 22.2922C4.13126 22.4921 4.24062 22.6715 4.3991 22.8004C4.55757 22.9292 4.75553 22.9997 4.95979 23C5.18845 23.0007 5.40935 22.9172 5.58043 22.7655C5.75152 22.6138 5.86085 22.4045 5.88762 22.1774C6.25109 18.8009 8.21196 16.2278 10.565 16.2278C12.918 16.2278 14.8789 18.8009 15.2424 22.1774C15.2692 22.4045 15.3785 22.6138 15.5496 22.7655C15.7207 22.9172 15.9416 23.0007 16.1702 23C16.3744 22.9997 16.5724 22.9292 16.7309 22.8004C16.8894 22.6715 16.9988 22.4921 17.0407 22.2922C17.2387 21.2968 17.338 20.2844 17.3372 19.2696C17.3501 17.443 17.006 15.6315 16.3242 13.937C14.7752 15.4087 12.7199 16.2288 10.5832 16.2278Z" fill="#E3E3E3"/>
<path d="M16.285 13.8269C16.9947 15.5529 17.3524 17.4033 17.3372 19.2695C17.338 20.2843 17.2387 21.2967 17.0407 22.2921C16.9988 22.492 16.8894 22.6714 16.7309 22.8003C16.5724 22.9292 16.3744 22.9996 16.1702 22.9999C15.9416 23.0006 15.7207 22.9171 15.5495 22.7654C15.3785 22.6137 15.2692 22.4044 15.2424 22.1773C14.8789 18.8008 12.918 16.2277 10.565 16.2277C8.21196 16.2277 6.25109 18.8008 5.88761 22.1773C5.86085 22.4044 5.75152 22.6137 5.58043 22.7654C5.40933 22.9171 5.18843 23.0006 4.95979 22.9999C4.75553 22.9996 4.55757 22.9292 4.39909 22.8003C4.24062 22.6714 4.13126 22.492 4.08935 22.2921C3.89133 21.2967 3.79201 20.2843 3.79283 19.2695C3.77758 17.4033 4.13531 15.5529 4.845 13.8269C3.48674 12.4782 2.43457 10.3738 2.43457 7.07384C2.43457 4.0321 4.405 1.63123 6.83457 1.63123C7.57955 1.63059 8.31251 1.81891 8.96492 2.17856C9.61732 2.53822 10.1679 3.05748 10.565 3.68775C10.7941 3.32794 11.0734 3.00264 11.3943 2.72166C11.4718 2.65373 11.5692 2.61266 11.672 2.60455C11.7747 2.59644 11.8773 2.62175 11.9645 2.6767C12.0517 2.73164 12.1188 2.81328 12.1559 2.90946C12.1929 3.00563 12.1979 3.11121 12.17 3.21044C11.9539 3.99162 11.9211 4.81218 12.0743 5.6081C12.2275 6.40402 12.5625 7.15377 13.0533 7.79886C13.544 8.44396 14.1772 8.96693 14.9034 9.32698C15.6295 9.68703 16.4291 9.87443 17.2396 9.87453C17.4022 9.87453 17.5639 9.86688 17.7179 9.85157C17.7956 9.84423 17.874 9.85602 17.9461 9.88592C18.0182 9.91583 18.0819 9.96294 18.1317 10.0231C18.1813 10.0833 18.2156 10.1548 18.2313 10.2313C18.2471 10.3077 18.2439 10.3869 18.222 10.4618C17.8733 11.7302 17.2066 12.8884 16.285 13.8269Z" stroke="#191919" stroke-linecap="round" stroke-linejoin="round"/>
<path d="M15.8257 2.43478V1" stroke="#191919" stroke-linecap="round" stroke-linejoin="round"/>
<path d="M18.8696 3.69556L19.8845 2.68069" stroke="#191919" stroke-linecap="round" stroke-linejoin="round"/>
<path d="M20.1304 6.73914H21.5652" stroke="#191919" stroke-linecap="round" stroke-linejoin="round"/>
</svg>
