<svg width="24" height="24" viewBox="0 0 24 24" fill="none" xmlns="http://www.w3.org/2000/svg">
<path d="M12 16.026C14.4247 16.026 16.4373 18.6736 16.816 22.1477C16.8421 22.3813 16.9533 22.597 17.1283 22.7539C17.3033 22.9107 17.5299 22.9976 17.7649 22.9981C17.9752 22.9977 18.179 22.9251 18.3422 22.7924C18.5053 22.6598 18.618 22.475 18.6612 22.2692C18.8716 21.2467 18.9759 20.205 18.9739 19.1615C18.9883 17.2398 18.6191 15.3354 17.8883 13.5582C19.28 12.1703 20.3686 10.0037 20.3686 6.60904C20.3686 3.47356 18.3388 1 15.8366 1C15.0696 1.00014 14.3152 1.19505 13.6441 1.56647C12.9731 1.93788 12.4073 2.47363 12 3.12348C11.5926 2.47363 11.0268 1.93788 10.3558 1.56647C9.68471 1.19505 8.93033 1.00014 8.16334 1C5.66109 1 3.63135 3.47356 3.63135 6.61095C3.63135 10.0056 4.71987 12.1722 6.11161 13.5601C5.38106 15.3372 5.01199 17.242 5.02596 19.1634C5.02404 20.2069 5.12926 21.2486 5.33874 22.2711C5.38194 22.4769 5.49455 22.6617 5.65772 22.7944C5.82088 22.9271 6.02469 22.9996 6.235 23C6.47 22.9996 6.69662 22.9126 6.87163 22.7558C7.04663 22.599 7.15778 22.3832 7.18387 22.1496C7.56265 18.6736 9.57517 16.026 12 16.026Z" fill="white"/>
<path d="M12 16.0107C9.80148 15.995 7.6881 15.1586 6.07438 13.6653C5.36882 15.412 5.0114 17.2797 5.02221 19.1634C5.0203 20.207 5.12552 21.2486 5.33499 22.2711C5.37836 22.4769 5.49102 22.6615 5.65415 22.7942C5.81728 22.9268 6.02099 22.9995 6.23125 23C6.46625 22.9996 6.69287 22.9127 6.86788 22.7558C7.04289 22.599 7.15404 22.3832 7.18012 22.1497C7.56273 18.6737 9.57143 16.0279 11.9962 16.0279C14.421 16.0279 16.4335 18.6756 16.8123 22.1497C16.8384 22.3832 16.9495 22.599 17.1245 22.7558C17.2995 22.9127 17.5262 22.9996 17.7612 23C17.9714 22.9995 18.1751 22.9268 18.3383 22.7942C18.5014 22.6615 18.6141 22.4769 18.6574 22.2711C18.8679 21.2477 18.9721 20.207 18.9702 19.1634C18.981 17.2797 18.6236 15.412 17.918 13.6653C16.3063 15.1568 14.1959 15.9931 12 16.0107Z" fill="#E3E3E3"/>
<path d="M12 16.026C14.4247 16.026 16.4373 18.6736 16.816 22.1477C16.8421 22.3813 16.9533 22.597 17.1283 22.7539C17.3033 22.9107 17.5299 22.9976 17.7649 22.9981C17.9752 22.9977 18.179 22.9251 18.3422 22.7924C18.5053 22.6598 18.618 22.475 18.6612 22.2692C18.8716 21.2467 18.9759 20.205 18.9739 19.1615C18.9883 17.2398 18.6191 15.3354 17.8883 13.5582C19.28 12.1703 20.3686 10.0037 20.3686 6.60904C20.3686 3.47356 18.3388 1 15.8366 1C15.0696 1.00014 14.3152 1.19505 13.6441 1.56647C12.9731 1.93788 12.4073 2.47363 12 3.12348C11.5926 2.47363 11.0268 1.93788 10.3558 1.56647C9.68471 1.19505 8.93033 1.00014 8.16334 1C5.66109 1 3.63135 3.47356 3.63135 6.61095C3.63135 10.0056 4.71987 12.1722 6.11161 13.5601C5.38106 15.3372 5.01199 17.242 5.02596 19.1634C5.02404 20.2069 5.12926 21.2486 5.33874 22.2711C5.38194 22.4769 5.49455 22.6617 5.65772 22.7944C5.82088 22.9271 6.02469 22.9996 6.235 23C6.47 22.9996 6.69662 22.9126 6.87163 22.7558C7.04663 22.599 7.15778 22.3832 7.18387 22.1496C7.56265 18.6736 9.57517 16.026 12 16.026Z" stroke="#191919" stroke-linecap="round" stroke-linejoin="round"/>
<path d="M10.5654 11.5217V12.9565C10.5654 13.0834 10.6158 13.205 10.7055 13.2947C10.7952 13.3844 10.9168 13.4348 11.0436 13.4348H12.9567C13.0835 13.4348 13.2052 13.3844 13.2949 13.2947C13.3846 13.205 13.4349 13.0834 13.4349 12.9565V11.5217H14.8697C14.9966 11.5217 15.1182 11.4714 15.2079 11.3817C15.2976 11.292 15.348 11.1703 15.348 11.0435V9.13044C15.348 9.0036 15.2976 8.88195 15.2079 8.79226C15.1182 8.70257 14.9966 8.65218 14.8697 8.65218H13.4349V7.2174C13.4349 7.09055 13.3846 6.96891 13.2949 6.87921C13.2052 6.78952 13.0835 6.73914 12.9567 6.73914H11.0436C10.9168 6.73914 10.7952 6.78952 10.7055 6.87921C10.6158 6.96891 10.5654 7.09055 10.5654 7.2174V8.65218H9.1306C9.00376 8.65218 8.88211 8.70257 8.79242 8.79226C8.70273 8.88195 8.65234 9.0036 8.65234 9.13044V11.0435C8.65234 11.1703 8.70273 11.292 8.79242 11.3817C8.88211 11.4714 9.00376 11.5217 9.1306 11.5217H10.5654Z" fill="#FF808C" stroke="#191919" stroke-linecap="round" stroke-linejoin="round"/>
</svg>
