<svg width="24" height="24" viewBox="0 0 24 24" fill="none" xmlns="http://www.w3.org/2000/svg">
<path d="M9.60831 8.17394V18.2174H5.78223V8.17394L5.99266 7.69568H9.39788L9.60831 8.17394Z" fill="#FF808C"/>
<path d="M9.39789 7.69561H5.99268L7.50398 4.29995C7.6092 4.06082 7.78137 4.06082 7.89615 4.29995L9.39789 7.69561Z" fill="#FFBC44"/>
<path d="M9.60831 18.2174H5.78223V20.1304H9.60831V18.2174Z" fill="#FFEF5E"/>
<path d="M9.60831 20.1304V21.0869C9.60831 21.5943 9.40676 22.0808 9.04799 22.4396C8.68923 22.7984 8.20264 23 7.69527 23C7.1879 23 6.70131 22.7984 6.34255 22.4396C5.98378 22.0808 5.78223 21.5943 5.78223 21.0869V20.1304H9.60831Z" fill="white"/>
<path d="M9.60831 8.17394V18.2174H5.78223V8.17394L5.99266 7.69568H9.39788L9.60831 8.17394Z" stroke="#191919" stroke-linecap="round" stroke-linejoin="round"/>
<path d="M9.39789 7.69561H5.99268L7.50398 4.29995C7.6092 4.06082 7.78137 4.06082 7.89615 4.29995L9.39789 7.69561Z" stroke="#191919" stroke-linecap="round" stroke-linejoin="round"/>
<path d="M9.60831 18.2174H5.78223V20.1304H9.60831V18.2174Z" stroke="#191919" stroke-linecap="round" stroke-linejoin="round"/>
<path d="M9.60831 20.1304V21.0869C9.60831 21.5943 9.40676 22.0808 9.04799 22.4396C8.68923 22.7984 8.20264 23 7.69527 23C7.1879 23 6.70131 22.7984 6.34255 22.4396C5.98378 22.0808 5.78223 21.5943 5.78223 21.0869V20.1304H9.60831Z" stroke="#191919" stroke-linecap="round" stroke-linejoin="round"/>
<path d="M12.4785 1.95652C12.4785 1.70283 12.5793 1.45954 12.7587 1.28016C12.938 1.10078 13.1814 1 13.435 1H17.2611C17.5148 1 17.7581 1.10078 17.9375 1.28016C18.1168 1.45954 18.2176 1.70283 18.2176 1.95652V22.0435C18.2176 22.2971 18.1168 22.5405 17.9375 22.7198C17.7581 22.8992 17.5148 23 17.2611 23H13.435C13.1814 23 12.938 22.8992 12.7587 22.7198C12.5793 22.5405 12.4785 22.2971 12.4785 22.0435V1.95652Z" fill="#C2F3FF"/>
<path d="M12.4785 14.6304V22.0435C12.4785 22.2971 12.5793 22.5405 12.7587 22.7198C12.938 22.8992 13.1814 23 13.435 23H17.2611C17.5148 23 17.7581 22.8992 17.9375 22.7198C18.1168 22.5405 18.2176 22.2971 18.2176 22.0435V8.8913L12.4785 14.6304Z" fill="#66E1FF"/>
<path d="M12.4785 1.95652C12.4785 1.70283 12.5793 1.45954 12.7587 1.28016C12.938 1.10078 13.1814 1 13.435 1H17.2611C17.5148 1 17.7581 1.10078 17.9375 1.28016C18.1168 1.45954 18.2176 1.70283 18.2176 1.95652V22.0435C18.2176 22.2971 18.1168 22.5405 17.9375 22.7198C17.7581 22.8992 17.5148 23 17.2611 23H13.435C13.1814 23 12.938 22.8992 12.7587 22.7198C12.5793 22.5405 12.4785 22.2971 12.4785 22.0435V1.95652Z" stroke="#191919" stroke-linecap="round" stroke-linejoin="round"/>
<path d="M12.4785 3.86957H14.3916" stroke="#191919" stroke-linecap="round" stroke-linejoin="round"/>
<path d="M12.4785 7.69568H14.3916" stroke="#191919" stroke-linecap="round" stroke-linejoin="round"/>
<path d="M12.4785 11.5217H14.3916" stroke="#191919" stroke-linecap="round" stroke-linejoin="round"/>
<path d="M12.4785 15.3478H14.3916" stroke="#191919" stroke-linecap="round" stroke-linejoin="round"/>
<path d="M12.4785 19.1739H14.3916" stroke="#191919" stroke-linecap="round" stroke-linejoin="round"/>
<path d="M7.6958 7.69568V18.2174" stroke="#191919" stroke-linecap="round" stroke-linejoin="round"/>
</svg>
