<svg width="24" height="24" viewBox="0 0 24 24" fill="none" xmlns="http://www.w3.org/2000/svg">
<g clip-path="url(#clip0_5303_3683)">
<path d="M20.8068 4.82609C20.9861 5.00543 21.0869 5.24868 21.087 5.50235V22.0435C21.087 22.2971 20.9862 22.5405 20.8069 22.7198C20.6275 22.8992 20.3842 23 20.1305 23H3.86961C3.61593 23 3.37263 22.8992 3.19325 22.7198C3.01387 22.5405 2.91309 22.2971 2.91309 22.0435V1.95652C2.91309 1.70283 3.01387 1.45954 3.19325 1.28016C3.37263 1.10078 3.61593 1 3.86961 1H16.5847C16.8383 1.00005 17.0816 1.10087 17.2609 1.28026L20.8068 4.82609Z" fill="#E3E3E3"/>
<path d="M20.8068 4.82609L17.2609 1.28026C17.0816 1.10087 16.8383 1.00005 16.5847 1H3.86961C3.61593 1 3.37263 1.10078 3.19325 1.28016C3.01387 1.45954 2.91309 1.70283 2.91309 1.95652V22.0435C2.91314 22.2971 3.01396 22.5404 3.19335 22.7197L20.9187 4.99443C20.8878 4.93431 20.8502 4.87784 20.8068 4.82609Z" fill="white"/>
<path d="M20.8068 4.82609C20.9861 5.00543 21.0869 5.24868 21.087 5.50235V22.0435C21.087 22.2971 20.9862 22.5405 20.8069 22.7198C20.6275 22.8992 20.3842 23 20.1305 23H3.86961C3.61593 23 3.37263 22.8992 3.19325 22.7198C3.01387 22.5405 2.91309 22.2971 2.91309 22.0435V1.95652C2.91309 1.70283 3.01387 1.45954 3.19325 1.28016C3.37263 1.10078 3.61593 1 3.86961 1H16.5847C16.8383 1.00005 17.0816 1.10087 17.2609 1.28026L20.8068 4.82609Z" stroke="#191919" stroke-linecap="round" stroke-linejoin="round"/>
<path d="M13.8975 9.63265L14.8702 8.17395L16.7833 10.087L15.3246 11.0597" fill="#808080"/>
<path d="M14.7054 10.2514C14.3501 9.89607 13.9283 9.61424 13.4641 9.42195C12.9999 9.22965 12.5024 9.13068 11.9999 9.13068C11.4974 9.13068 10.9999 9.22965 10.5357 9.42195C10.0714 9.61424 9.64965 9.89607 9.29436 10.2514C8.18193 11.3638 6.76914 16.1761 6.26123 18.2173L6.73949 18.6955C8.78167 18.1876 13.593 16.7739 14.7054 15.6615C15.0607 15.3062 15.3426 14.8844 15.5348 14.4202C15.7272 13.956 15.8261 13.4584 15.8261 12.9559C15.8261 12.4535 15.7272 11.9559 15.5348 11.4917C15.3426 11.0275 15.0607 10.6066 14.7054 10.2514Z" fill="#E3E3E3"/>
<path d="M12.0005 13.913C12.1897 13.913 12.3746 13.857 12.5319 13.7519C12.6892 13.6467 12.8118 13.4973 12.8842 13.3226C12.9566 13.1478 12.9755 12.9555 12.9386 12.7699C12.9017 12.5843 12.8105 12.4139 12.6768 12.2802C12.543 12.1463 12.3726 12.0553 12.1871 12.0184C12.0015 11.9814 11.8092 12.0004 11.6344 12.0728C11.4596 12.1452 11.3102 12.2678 11.2051 12.4251C11.1 12.5824 11.0439 12.7673 11.0439 12.9565C11.0439 13.2102 11.1447 13.4535 11.3241 13.6329C11.5035 13.8122 11.7468 13.913 12.0005 13.913Z" fill="#808080"/>
<path d="M11.3305 13.6261L6.5 18.4527" stroke="#191919" stroke-linecap="round" stroke-linejoin="round"/>
<path d="M18.2889 9.95207L17.2607 10.5652L14.3911 7.69563L15.1506 6.4292" fill="#FF808C"/>
<path d="M13.8975 9.63265L14.8702 8.17395L16.7833 10.087L15.3246 11.0597" stroke="#191919" stroke-linecap="round" stroke-linejoin="round"/>
<path d="M14.7054 10.2514C14.3501 9.89607 13.9283 9.61424 13.4641 9.42195C12.9999 9.22965 12.5024 9.13068 11.9999 9.13068C11.4974 9.13068 10.9999 9.22965 10.5357 9.42195C10.0714 9.61424 9.64965 9.89607 9.29436 10.2514C8.18193 11.3638 6.76914 16.1761 6.26123 18.2173L6.73949 18.6955C8.78167 18.1876 13.593 16.7739 14.7054 15.6615C15.0607 15.3062 15.3426 14.8844 15.5348 14.4202C15.7272 13.956 15.8261 13.4584 15.8261 12.9559C15.8261 12.4535 15.7272 11.9559 15.5348 11.4917C15.3426 11.0275 15.0607 10.6066 14.7054 10.2514Z" stroke="#191919" stroke-linecap="round" stroke-linejoin="round"/>
<path d="M12.0005 13.913C12.1897 13.913 12.3746 13.857 12.5319 13.7519C12.6892 13.6467 12.8118 13.4973 12.8842 13.3226C12.9566 13.1478 12.9755 12.9555 12.9386 12.7699C12.9017 12.5843 12.8105 12.4139 12.6768 12.2802C12.543 12.1463 12.3726 12.0553 12.1871 12.0184C12.0015 11.9814 11.8092 12.0004 11.6344 12.0728C11.4596 12.1452 11.3102 12.2678 11.2051 12.4251C11.1 12.5824 11.0439 12.7673 11.0439 12.9565C11.0439 13.2102 11.1447 13.4535 11.3241 13.6329C11.5035 13.8122 11.7468 13.913 12.0005 13.913Z" stroke="#191919" stroke-linecap="round" stroke-linejoin="round"/>
<path d="M18.2889 9.95207L17.2607 10.5652L14.3911 7.69563L15.1506 6.4292" stroke="#191919" stroke-linecap="round" stroke-linejoin="round"/>
</g>
<defs>
<clipPath id="clip0_5303_3683">
<rect width="24" height="24" fill="white"/>
</clipPath>
</defs>
</svg>
