<svg width="24" height="24" viewBox="0 0 24 24" fill="none" xmlns="http://www.w3.org/2000/svg">
<g clip-path="url(#clip0_5303_4744)">
<mask id="mask0_5303_4744" style="mask-type:luminance" maskUnits="userSpaceOnUse" x="0" y="0" width="24" height="24">
<path d="M0 0H24V24H0V0Z" fill="white"/>
</mask>
<g mask="url(#mask0_5303_4744)">
<path d="M2.91258 3.86957H21.0865C21.3402 3.86957 21.5835 3.97034 21.7629 4.14973C21.9422 4.32911 22.043 4.5724 22.043 4.82609V15.3479H1.95605V4.82609C1.95605 4.5724 2.05683 4.32911 2.23621 4.14973C2.4156 3.97034 2.65889 3.86957 2.91258 3.86957Z" fill="white"/>
<path d="M14.3908 3.86957H21.0865C21.3402 3.86957 21.5835 3.97034 21.7629 4.14973C21.9422 4.32911 22.043 4.5724 22.043 4.82609V15.3479H1.95605V4.82609C1.95605 4.5724 2.05683 4.32911 2.23621 4.14973C2.4156 3.97034 2.65889 3.86957 2.91258 3.86957H9.60823" stroke="#191919" stroke-linecap="round" stroke-linejoin="round"/>
<path d="M14.3915 3.86949C14.3915 4.12317 14.2907 4.36647 14.1113 4.54585C13.932 4.72523 13.6887 4.82601 13.435 4.82601H10.5654C10.3117 4.82601 10.0684 4.72523 9.88905 4.54585C9.70966 4.36647 9.60889 4.12317 9.60889 3.86949C9.60889 3.6158 9.70966 3.37251 9.88905 3.19312C10.0684 3.01374 10.3117 2.91296 10.5654 2.91296H13.435C13.6887 2.91296 13.932 3.01374 14.1113 3.19312C14.2907 3.37251 14.3915 3.6158 14.3915 3.86949Z" fill="#FFBC44"/>
<path d="M22.0435 15.3479H1.95652C1.70284 15.3479 1.45954 15.4486 1.28016 15.628C1.10078 15.8074 1 16.0507 1 16.3044C1 16.5581 1.10078 16.8014 1.28016 16.9808C1.45954 17.1601 1.70284 17.2609 1.95652 17.2609H22.0435C22.2972 17.2609 22.5405 17.1601 22.7198 16.9808C22.8992 16.8014 23 16.5581 23 16.3044C23 16.0507 22.8992 15.8074 22.7198 15.628C22.5405 15.4486 22.2972 15.3479 22.0435 15.3479Z" fill="#FFBC44"/>
<path d="M11.9995 17.2609V23" stroke="#191919" stroke-linecap="round" stroke-linejoin="round"/>
<path d="M4.34717 23L7.21673 17.2609" stroke="#191919" stroke-linecap="round" stroke-linejoin="round"/>
<path d="M19.6523 23L16.7827 17.2609" stroke="#191919" stroke-linecap="round" stroke-linejoin="round"/>
<path d="M11.9995 1V2.91304" stroke="#191919" stroke-linecap="round" stroke-linejoin="round"/>
<path d="M14.3915 3.86949C14.3915 4.12317 14.2907 4.36647 14.1113 4.54585C13.932 4.72523 13.6887 4.82601 13.435 4.82601H10.5654C10.3117 4.82601 10.0684 4.72523 9.88905 4.54585C9.70966 4.36647 9.60889 4.12317 9.60889 3.86949C9.60889 3.6158 9.70966 3.37251 9.88905 3.19312C10.0684 3.01374 10.3117 2.91296 10.5654 2.91296H13.435C13.6887 2.91296 13.932 3.01374 14.1113 3.19312C14.2907 3.37251 14.3915 3.6158 14.3915 3.86949Z" stroke="#191919" stroke-linecap="round" stroke-linejoin="round"/>
<path d="M22.0435 15.3479H1.95652C1.70284 15.3479 1.45954 15.4486 1.28016 15.628C1.10078 15.8074 1 16.0507 1 16.3044C1 16.5581 1.10078 16.8014 1.28016 16.9808C1.45954 17.1601 1.70284 17.2609 1.95652 17.2609H22.0435C22.2972 17.2609 22.5405 17.1601 22.7198 16.9808C22.8992 16.8014 23 16.5581 23 16.3044C23 16.0507 22.8992 15.8074 22.7198 15.628C22.5405 15.4486 22.2972 15.3479 22.0435 15.3479Z" stroke="#191919" stroke-linecap="round" stroke-linejoin="round"/>
</g>
</g>
<defs>
<clipPath id="clip0_5303_4744">
<rect width="24" height="24" fill="white"/>
</clipPath>
</defs>
</svg>
