<svg width="24" height="24" viewBox="0 0 24 24" fill="none" xmlns="http://www.w3.org/2000/svg">
<path d="M4.82666 1.95652C4.82666 1.70283 4.92744 1.45954 5.10682 1.28016C5.2862 1.10078 5.52949 1 5.78318 1H18.218C18.4716 1 18.715 1.10078 18.8943 1.28016C19.0737 1.45954 19.1745 1.70283 19.1745 1.95652V4.82609C19.1745 5.07978 19.0737 5.32307 18.8943 5.50245C18.715 5.68183 18.4716 5.78261 18.218 5.78261H5.78318C5.52949 5.78261 5.2862 5.68183 5.10682 5.50245C4.92744 5.32307 4.82666 5.07978 4.82666 4.82609V1.95652Z" fill="white"/>
<path d="M21.087 12.4782H2.91309C2.91309 9.90514 5.17048 8.46079 6.21309 7.93471C6.3713 7.85328 6.50408 7.7299 6.59687 7.57806C6.68966 7.42622 6.73889 7.25178 6.73917 7.07384V5.78253H17.2609V7.07384C17.2612 7.25178 17.3105 7.42622 17.4032 7.57806C17.496 7.7299 17.6288 7.85328 17.787 7.93471C18.8296 8.46079 21.087 9.90514 21.087 12.4782Z" fill="white"/>
<path d="M2.91309 18.2174H21.087V20.1304C21.0833 20.8903 20.7797 21.618 20.2424 22.1554C19.705 22.6927 18.9773 22.9963 18.2174 23H5.78265C5.02276 22.9963 4.29506 22.6927 3.75773 22.1554C3.2204 21.618 2.91685 20.8903 2.91309 20.1304V18.2174Z" fill="white"/>
<path d="M7.6958 1V5.78261" stroke="#191919" stroke-linecap="round" stroke-linejoin="round"/>
<path d="M13.4351 1V5.78261" stroke="#191919" stroke-linecap="round" stroke-linejoin="round"/>
<path d="M10.5654 1V5.78261" stroke="#191919" stroke-linecap="round" stroke-linejoin="round"/>
<path d="M16.3047 1V5.78261" stroke="#191919" stroke-linecap="round" stroke-linejoin="round"/>
<path d="M21.087 12.4783H2.91309V18.2174H21.087V12.4783Z" fill="#FF808C"/>
<path d="M7.21729 15.3478H16.7825" stroke="#191919" stroke-linecap="round" stroke-linejoin="round"/>
<path d="M6.21366 7.93471C5.38846 8.34967 4.64967 8.91772 4.03662 9.60862H19.9646C19.3516 8.91772 18.6128 8.34967 17.7876 7.93471C17.6294 7.85328 17.4966 7.7299 17.4038 7.57806C17.311 7.42622 17.2618 7.25178 17.2615 7.07384V5.78253H6.73975V7.07384C6.73947 7.25178 6.69024 7.42622 6.59745 7.57806C6.50467 7.7299 6.37189 7.85328 6.21366 7.93471Z" fill="#E3E3E3"/>
<path d="M4.82666 1.95652C4.82666 1.70283 4.92744 1.45954 5.10682 1.28016C5.2862 1.10078 5.52949 1 5.78318 1H18.218C18.4716 1 18.715 1.10078 18.8943 1.28016C19.0737 1.45954 19.1745 1.70283 19.1745 1.95652V4.82609C19.1745 5.07978 19.0737 5.32307 18.8943 5.50245C18.715 5.68183 18.4716 5.78261 18.218 5.78261H5.78318C5.52949 5.78261 5.2862 5.68183 5.10682 5.50245C4.92744 5.32307 4.82666 5.07978 4.82666 4.82609V1.95652Z" stroke="#191919" stroke-linecap="round" stroke-linejoin="round"/>
<path d="M21.087 12.4782H2.91309C2.91309 9.90514 5.17048 8.46079 6.21309 7.93471C6.3713 7.85328 6.50408 7.7299 6.59687 7.57806C6.68966 7.42622 6.73889 7.25178 6.73917 7.07384V5.78253H17.2609V7.07384C17.2612 7.25178 17.3105 7.42622 17.4032 7.57806C17.496 7.7299 17.6288 7.85328 17.787 7.93471C18.8296 8.46079 21.087 9.90514 21.087 12.4782Z" stroke="#191919" stroke-linecap="round" stroke-linejoin="round"/>
<path d="M2.91309 18.2174H21.087V20.1304C21.0833 20.8903 20.7797 21.618 20.2424 22.1554C19.705 22.6927 18.9773 22.9963 18.2174 23H5.78265C5.02276 22.9963 4.29506 22.6927 3.75773 22.1554C3.2204 21.618 2.91685 20.8903 2.91309 20.1304V18.2174Z" stroke="#191919" stroke-linecap="round" stroke-linejoin="round"/>
<path d="M21.087 12.4783H2.91309V18.2174H21.087V12.4783Z" stroke="#191919" stroke-linecap="round" stroke-linejoin="round"/>
</svg>
