<svg width="24" height="24" viewBox="0 0 24 24" fill="none" xmlns="http://www.w3.org/2000/svg">
<g clip-path="url(#clip0_5303_4684)">
<mask id="mask0_5303_4684" style="mask-type:luminance" maskUnits="userSpaceOnUse" x="0" y="0" width="24" height="24">
<path d="M0 0H24V24H0V0Z" fill="white"/>
</mask>
<g mask="url(#mask0_5303_4684)">
<path d="M5.1146 17.2608V18.2174C5.10106 18.5372 5.05295 18.8548 4.97112 19.1643H1.41956C1.34153 18.8413 1.29666 18.5112 1.28564 18.1791V6.72858H5.11173V11.4921" fill="#FFEF5E"/>
<path d="M5.1146 17.2608V18.2174C5.10106 18.5372 5.05295 18.8548 4.97112 19.1643H1.41956C1.34153 18.8413 1.29666 18.5112 1.28564 18.1791V6.72858H5.11173V11.4921" stroke="#191919" stroke-linecap="round" stroke-linejoin="round"/>
<path d="M14.6796 7.69568L21.6441 18.7817C21.7104 18.8876 21.755 19.0056 21.7754 19.1288C21.7958 19.2521 21.7915 19.378 21.7628 19.4996C21.734 19.6212 21.6814 19.7359 21.608 19.8369C21.5345 19.938 21.4419 20.0234 21.3351 20.0884L20.7612 20.4356C20.5439 20.5665 20.2837 20.6067 20.037 20.5472C19.7903 20.4878 19.5769 20.3336 19.4431 20.118L11.8101 7.69568" fill="#E3E3E3"/>
<path d="M8.94125 7.69568L7.14298 12.528C7.03402 12.7834 6.85541 13.0029 6.62757 13.1616C6.39973 13.3203 6.13185 13.4116 5.85455 13.4252H1.28906V15.3383H7.98472C8.26235 15.3246 8.53058 15.2333 8.75899 15.0749C8.9874 14.9164 9.16685 14.6972 9.27699 14.442L11.8108 7.69568" fill="#E3E3E3"/>
<path d="M5.11516 5.78261V6.72957H1.28906V5.78261C1.28906 5.27524 1.49062 4.78865 1.84938 4.42989C2.20815 4.07112 2.69473 3.86957 3.20211 3.86957C3.70948 3.86957 4.19607 4.07112 4.55483 4.42989C4.9136 4.78865 5.11516 5.27524 5.11516 5.78261Z" fill="#FF808C"/>
<path d="M4.96862 19.1634C4.9019 19.4591 4.80577 19.7475 4.68166 20.0243L3.40949 22.5686C3.29471 22.7982 3.1034 22.7982 2.97905 22.5686L1.70688 20.0243C1.58277 19.7475 1.48664 19.4591 1.41992 19.1634H4.96862Z" fill="#FFBC44"/>
<path d="M4.97783 19.1634H4.96826" stroke="#191919" stroke-linecap="round" stroke-linejoin="round"/>
<path d="M21.0752 20.2347L22.7147 23" stroke="#191919" stroke-linecap="round" stroke-linejoin="round"/>
<path d="M8.94092 3.86957C8.94092 3.10851 9.24325 2.37863 9.7814 1.84048C10.3195 1.30233 11.0495 1 11.8105 1C12.5716 1 13.3014 1.30233 13.8395 1.84048C14.3777 2.37863 14.68 3.10851 14.68 3.86957V7.69566H8.94092V3.86957Z" fill="#808080"/>
<path d="M11.8105 1C11.0495 1 10.3195 1.30233 9.7814 1.84048C9.24325 2.37863 8.94092 3.10851 8.94092 3.86957V6.06957C8.94092 5.30851 9.24325 4.57863 9.7814 4.04048C10.3195 3.50233 11.0495 3.2 11.8105 3.2C12.5716 3.2 13.3014 3.50233 13.8395 4.04048C14.3777 4.57863 14.68 5.30851 14.68 6.06957V3.86957C14.68 3.10851 14.3777 2.37863 13.8395 1.84048C13.3014 1.30233 12.5716 1 11.8105 1Z" fill="#B2B2B2"/>
<path d="M14.6796 7.69568L21.6441 18.7817C21.7104 18.8876 21.755 19.0056 21.7754 19.1288C21.7958 19.2521 21.7915 19.378 21.7628 19.4996C21.734 19.6212 21.6814 19.7359 21.608 19.8369C21.5345 19.938 21.4419 20.0234 21.3351 20.0884L20.7612 20.4356C20.5439 20.5665 20.2837 20.6067 20.037 20.5472C19.7903 20.4878 19.5769 20.3336 19.4431 20.118L11.8101 7.69568" stroke="#191919" stroke-linecap="round" stroke-linejoin="round"/>
<path d="M8.94125 7.69568L7.14298 12.528C7.03402 12.7834 6.85541 13.0029 6.62757 13.1616C6.39973 13.3203 6.13185 13.4116 5.85455 13.4252H1.28906V15.3383H7.98472C8.26235 15.3246 8.53058 15.2333 8.75899 15.0749C8.9874 14.9164 9.16685 14.6972 9.27699 14.442L11.8108 7.69568" stroke="#191919" stroke-linecap="round" stroke-linejoin="round"/>
<path d="M5.11516 5.78261V6.72957H1.28906V5.78261C1.28906 5.27524 1.49062 4.78865 1.84938 4.42989C2.20815 4.07112 2.69473 3.86957 3.20211 3.86957C3.70948 3.86957 4.19607 4.07112 4.55483 4.42989C4.9136 4.78865 5.11516 5.27524 5.11516 5.78261Z" stroke="#191919" stroke-linecap="round" stroke-linejoin="round"/>
<path d="M4.96862 19.1634C4.9019 19.4591 4.80577 19.7475 4.68166 20.0243L3.40949 22.5686C3.29471 22.7982 3.1034 22.7982 2.97905 22.5686L1.70688 20.0243C1.58277 19.7475 1.48664 19.4591 1.41992 19.1634H4.96862Z" stroke="#191919" stroke-linecap="round" stroke-linejoin="round"/>
<path d="M8.94092 3.86957C8.94092 3.10851 9.24325 2.37863 9.7814 1.84048C10.3195 1.30233 11.0495 1 11.8105 1C12.5716 1 13.3014 1.30233 13.8395 1.84048C14.3777 2.37863 14.68 3.10851 14.68 3.86957V7.69566H8.94092V3.86957Z" stroke="#191919" stroke-linecap="round" stroke-linejoin="round"/>
</g>
</g>
<defs>
<clipPath id="clip0_5303_4684">
<rect width="24" height="24" fill="white"/>
</clipPath>
</defs>
</svg>
