<svg width="24" height="24" viewBox="0 0 24 24" fill="none" xmlns="http://www.w3.org/2000/svg">
<g clip-path="url(#clip0_5303_3551)">
<path d="M21.087 6.71043V22.0435C21.087 22.5717 20.6587 23 20.1305 23H3.86961C3.34128 23 2.91309 22.5718 2.91309 22.0435V1.95652C2.91309 1.42829 3.34137 1 3.86961 1H15.3766C15.6874 1 15.9983 1.0287 16.3044 1.08609V4.82609C16.3044 5.35432 16.7327 5.78261 17.2609 5.78261H21.0009C21.0583 6.0887 21.087 6.39957 21.087 6.71043Z" fill="#FFBC44"/>
<path d="M16.6392 5.55304L2.91309 19.2887V1.95652C2.91309 1.42829 3.34137 1 3.86961 1H15.3766C15.6874 1 15.9983 1.0287 16.3044 1.08609V4.82609C16.3081 5.10484 16.4297 5.36896 16.6392 5.55304Z" fill="#FFDDA1"/>
<path d="M21.0007 5.78264H17.2607C16.7324 5.78264 16.3042 5.35445 16.3042 4.82612V1.08612C18.7194 1.47361 20.6132 3.36742 21.0007 5.78264Z" fill="white"/>
<path d="M20.1305 23C20.6587 23 21.087 22.5717 21.087 22.0435V6.72C21.0901 3.56143 18.5304 0.999414 15.3718 1H3.86961C3.34137 1 2.91309 1.42829 2.91309 1.95652V22.0435C2.91309 22.5717 3.34137 23 3.86961 23H20.1305Z" stroke="#191919" stroke-linecap="round" stroke-linejoin="round"/>
<path d="M16.3042 1.07654V4.8261C16.3042 5.35434 16.7325 5.78262 17.2607 5.78262H21.0103" stroke="#191919" stroke-linecap="round" stroke-linejoin="round"/>
<path d="M8.65234 18.2174V13.9131C8.65234 12.8086 9.848 12.1182 10.8045 12.6705C11.2484 12.9268 11.5219 13.4004 11.5219 13.9131V18.2174" stroke="#191919" stroke-linecap="round" stroke-linejoin="round"/>
<path d="M8.65234 15.3478H11.5219" stroke="#191919" stroke-linecap="round" stroke-linejoin="round"/>
<path d="M14.3916 12.4782V18.2174" stroke="#191919" stroke-linecap="round" stroke-linejoin="round"/>
<path d="M13.4351 18.2174H15.3481" stroke="#191919" stroke-linecap="round" stroke-linejoin="round"/>
<path d="M13.4351 12.4782H15.3481" stroke="#191919" stroke-linecap="round" stroke-linejoin="round"/>
</g>
<defs>
<clipPath id="clip0_5303_3551">
<rect width="24" height="24" fill="white"/>
</clipPath>
</defs>
</svg>
