<svg width="24" height="24" viewBox="0 0 24 24" fill="none" xmlns="http://www.w3.org/2000/svg">
<g clip-path="url(#clip0_5303_3480)">
<path d="M20.8067 4.82609C20.9862 5.00543 21.0869 5.24868 21.087 5.50235V22.0435C21.087 22.2971 20.9862 22.5405 20.8068 22.7198C20.6275 22.8992 20.3841 23 20.1305 23H3.86961C3.61592 23 3.37263 22.8992 3.19324 22.7198C3.01387 22.5405 2.91309 22.2971 2.91309 22.0435V1.95652C2.91309 1.70283 3.01387 1.45954 3.19324 1.28016C3.37263 1.10078 3.61592 1 3.86961 1H16.5847C16.8383 1.00005 17.0816 1.10087 17.2609 1.28026L20.8067 4.82609Z" fill="#E3E3E3"/>
<path d="M20.8067 4.82609L17.2609 1.28026C17.0816 1.10087 16.8383 1.00005 16.5847 1H3.86961C3.61592 1 3.37263 1.10078 3.19324 1.28016C3.01387 1.45954 2.91309 1.70283 2.91309 1.95652V22.0435C2.91314 22.2971 3.01395 22.5404 3.19335 22.7197L20.9186 4.99443C20.8878 4.93431 20.8503 4.87784 20.8067 4.82609Z" fill="white"/>
<path d="M20.8067 4.82609C20.9862 5.00543 21.0869 5.24868 21.087 5.50235V22.0435C21.087 22.2971 20.9862 22.5405 20.8068 22.7198C20.6275 22.8992 20.3841 23 20.1305 23H3.86961C3.61592 23 3.37263 22.8992 3.19324 22.7198C3.01387 22.5405 2.91309 22.2971 2.91309 22.0435V1.95652C2.91309 1.70283 3.01387 1.45954 3.19324 1.28016C3.37263 1.10078 3.61592 1 3.86961 1H16.5847C16.8383 1.00005 17.0816 1.10087 17.2609 1.28026L20.8067 4.82609Z" stroke="#191919" stroke-linecap="round" stroke-linejoin="round"/>
<path d="M7.6958 11.5217V10.0869C7.6958 9.96011 7.74619 9.83846 7.83588 9.74878C7.92557 9.65909 8.04722 9.6087 8.17406 9.6087H14.8697C14.9965 9.6087 15.1182 9.65909 15.2079 9.74878C15.2976 9.83846 15.348 9.96011 15.348 10.0869V11.5217" stroke="#191919" stroke-linecap="round" stroke-linejoin="round"/>
<path d="M11.522 9.6087V19.1739" stroke="#191919" stroke-linecap="round" stroke-linejoin="round"/>
<path d="M9.60938 19.1739H13.4355" stroke="#191919" stroke-linecap="round" stroke-linejoin="round"/>
</g>
<defs>
<clipPath id="clip0_5303_3480">
<rect width="24" height="24" fill="white"/>
</clipPath>
</defs>
</svg>
