<svg width="24" height="24" viewBox="0 0 24 24" fill="none" xmlns="http://www.w3.org/2000/svg">
<g clip-path="url(#clip0_5303_4452)">
<mask id="mask0_5303_4452" style="mask-type:luminance" maskUnits="userSpaceOnUse" x="0" y="0" width="24" height="24">
<path d="M0 0H24V24H0V0Z" fill="white"/>
</mask>
<g mask="url(#mask0_5303_4452)">
<path d="M1 22.958L16.4925 7.56128" stroke="#191919" stroke-linecap="round" stroke-linejoin="round"/>
<path d="M21.5469 2.18774C21.7968 2.10444 21.9299 2.24041 21.8504 2.49032L20.9274 5.25848C20.8901 5.39607 20.8881 5.54085 20.9216 5.67941C20.955 5.81798 21.0229 5.94589 21.1189 6.0513L22.8922 7.82461C23.0779 8.01037 23.0166 8.13963 22.7543 8.11186L20.0302 7.81025C19.8901 7.80208 19.7505 7.83172 19.6258 7.89608C19.5011 7.96043 19.3961 8.05711 19.3216 8.17601L17.7446 11.0131C17.6172 11.2438 17.464 11.2218 17.4047 10.9652L16.7009 7.91461C16.6617 7.77799 16.5885 7.65357 16.488 7.55306C16.3874 7.45256 16.263 7.37928 16.1264 7.34011L13.0739 6.63825C12.8172 6.57889 12.7952 6.42569 13.026 6.29738L15.865 4.72323C15.9839 4.64888 16.0806 4.54381 16.1448 4.41911C16.209 4.2944 16.2384 4.15468 16.2298 4.01467L15.9253 1.28673C15.8966 1.02533 16.0211 0.963091 16.2126 1.1498L17.9868 2.92311C18.0927 3.01817 18.2209 3.08508 18.3594 3.11771C18.498 3.15034 18.6424 3.14763 18.7797 3.10983L21.5469 2.18774Z" fill="#FFF9BF"/>
<path d="M22.7508 8.10706L20.0314 7.81023C19.8914 7.80186 19.7518 7.83132 19.6272 7.89551C19.5025 7.95969 19.3974 8.05624 19.3229 8.17504L17.7449 11.0093C17.6204 11.2486 17.4672 11.2189 17.4002 10.9604L16.7012 7.91651C16.6729 7.80027 16.6132 7.694 16.5289 7.60915C16.5047 7.56771 16.4721 7.53183 16.4331 7.50383L21.7664 2.17145C21.776 2.18103 21.7952 2.1906 21.8047 2.20018C21.8718 2.24805 21.8909 2.35242 21.8526 2.48743L20.9334 5.25464C20.8938 5.39219 20.8905 5.5377 20.9241 5.67687C20.9577 5.81603 21.0269 5.94407 21.1249 6.04841L22.8963 7.81981C23.0763 8.01227 23.0189 8.13674 22.7508 8.10706Z" fill="#FFEF5E"/>
<path d="M21.5469 2.18774C21.7968 2.10444 21.9299 2.24041 21.8504 2.49032L20.9274 5.25848C20.8901 5.39607 20.8881 5.54085 20.9216 5.67941C20.955 5.81798 21.0229 5.94589 21.1189 6.0513L22.8922 7.82461C23.0779 8.01037 23.0166 8.13963 22.7543 8.11186L20.0302 7.81025C19.8901 7.80208 19.7505 7.83172 19.6258 7.89608C19.5011 7.96043 19.3961 8.05711 19.3216 8.17601L17.7446 11.0131C17.6172 11.2438 17.464 11.2218 17.4047 10.9652L16.7009 7.91461C16.6617 7.77799 16.5885 7.65357 16.488 7.55306C16.3874 7.45256 16.263 7.37928 16.1264 7.34011L13.0739 6.63825C12.8172 6.57889 12.7952 6.42569 13.026 6.29738L15.865 4.72323C15.9839 4.64888 16.0806 4.54381 16.1448 4.41911C16.209 4.2944 16.2384 4.15468 16.2298 4.01467L15.9253 1.28673C15.8966 1.02533 16.0211 0.963091 16.2126 1.1498L17.9868 2.92311C18.0927 3.01817 18.2209 3.08508 18.3594 3.11771C18.498 3.15034 18.6424 3.14763 18.7797 3.10983L21.5469 2.18774Z" stroke="#191919" stroke-linecap="round" stroke-linejoin="round"/>
</g>
</g>
<defs>
<clipPath id="clip0_5303_4452">
<rect width="24" height="24" fill="white"/>
</clipPath>
</defs>
</svg>
