<svg width="24" height="24" viewBox="0 0 24 24" fill="none" xmlns="http://www.w3.org/2000/svg">
<path d="M19.1746 14.3913V22.0434C19.1746 22.2971 19.0739 22.5404 18.8945 22.7198C18.7151 22.8992 18.4718 23 18.2181 23H11.5225V14.3913H19.1746Z" fill="#FFEF5E"/>
<path d="M19.175 1.95652V14.3913H11.5228V23H5.78367C5.52998 23 5.28669 22.8992 5.10731 22.7198C4.92792 22.5405 4.82715 22.2972 4.82715 22.0435V1.95652C4.82715 1.70284 4.92792 1.45954 5.10731 1.28016C5.28669 1.10078 5.52998 1 5.78367 1H18.2185C18.4721 1 18.7154 1.10078 18.8948 1.28016C19.0742 1.45954 19.175 1.70284 19.175 1.95652Z" fill="white"/>
<path d="M5.78306 1.00574C11.4839 1.23626 19.1744 5.55017 19.1744 14.3874C19.1744 20.3179 15.398 22.9866 11.5222 22.9961C8.28053 23.0047 4.82653 21.1596 4.82653 17.7353C4.81383 17.2924 4.89176 16.8515 5.05556 16.4398C5.21935 16.0281 5.46555 15.6542 5.77905 15.341C6.09255 15.0279 6.46673 14.7821 6.87863 14.6188C7.29053 14.4555 7.73146 14.3781 8.17436 14.3913C8.6169 14.3807 9.05699 14.46 9.46797 14.6245C9.87894 14.789 10.2522 15.0352 10.5653 15.3482C10.8783 15.6612 11.1245 16.0345 11.289 16.4455C11.4535 16.8565 11.5328 17.2966 11.5222 17.7391C11.4441 18.3034 11.1527 18.8163 10.7078 19.1722C10.263 19.5281 9.69857 19.6999 9.13088 19.6521C6.8161 19.6521 6.73958 16.3043 8.65262 16.3043" stroke="#191919" stroke-linecap="round" stroke-linejoin="round"/>
<path d="M19.1746 14.3913V22.0434C19.1746 22.2971 19.0739 22.5404 18.8945 22.7198C18.7151 22.8992 18.4718 23 18.2181 23H11.5225V14.3913H19.1746Z" stroke="#191919" stroke-linecap="round" stroke-linejoin="round"/>
<path d="M19.175 1.95652V14.3913H11.5228V23H5.78367C5.52998 23 5.28669 22.8992 5.10731 22.7198C4.92792 22.5405 4.82715 22.2972 4.82715 22.0435V1.95652C4.82715 1.70284 4.92792 1.45954 5.10731 1.28016C5.28669 1.10078 5.52998 1 5.78367 1H18.2185C18.4721 1 18.7154 1.10078 18.8948 1.28016C19.0742 1.45954 19.175 1.70284 19.175 1.95652Z" stroke="#191919" stroke-linecap="round" stroke-linejoin="round"/>
</svg>
