<svg width="24" height="24" viewBox="0 0 24 24" fill="none" xmlns="http://www.w3.org/2000/svg">
<path d="M23 15.3478V2.91303C23 2.65935 22.8992 2.41605 22.7198 2.23667C22.5405 2.05729 22.2971 1.95651 22.0435 1.95651H1.95652C1.70283 1.95651 1.45954 2.05729 1.28016 2.23667C1.10078 2.41605 1 2.65935 1 2.91303V15.3478H23Z" fill="#66E1FF"/>
<path d="M20.1304 1.95651H1.95652C1.70283 1.95651 1.45954 2.05729 1.28016 2.23667C1.10078 2.41605 1 2.65935 1 2.91303V15.3478H6.73913L20.1304 1.95651Z" fill="#C2F3FF"/>
<path d="M1 15.3478V17.2608C1 17.5145 1.10078 17.7578 1.28016 17.9372C1.45954 18.1165 1.70283 18.2173 1.95652 18.2173H22.0435C22.2971 18.2173 22.5405 18.1165 22.7198 17.9372C22.8992 17.7578 23 17.5145 23 17.2608V15.3478H1Z" fill="white"/>
<path d="M14.8695 22.0434C14.0031 20.9494 13.5013 19.6113 13.4347 18.2173H10.5652C10.4986 19.6113 9.99681 20.9494 9.13037 22.0434H14.8695Z" fill="#B2B2B2" stroke="#191919" stroke-linecap="round" stroke-linejoin="round"/>
<path d="M7.69434 22.0435H16.303" stroke="#191919" stroke-linecap="round" stroke-linejoin="round"/>
<path d="M1 15.3478H23" stroke="#191919" stroke-linecap="round" stroke-linejoin="round"/>
<path d="M22.0435 1.95651H1.95652C1.42825 1.95651 1 2.38477 1 2.91303V17.2609C1 17.7891 1.42825 18.2174 1.95652 18.2174H22.0435C22.5718 18.2174 23 17.7891 23 17.2609V2.91303C23 2.38477 22.5718 1.95651 22.0435 1.95651Z" stroke="#191919" stroke-linecap="round" stroke-linejoin="round"/>
<path d="M9.60791 6.73914V8.65218" stroke="#191919" stroke-linecap="round" stroke-linejoin="round"/>
<path d="M14.3901 6.73914V8.65218" stroke="#191919" stroke-linecap="round" stroke-linejoin="round"/>
<path d="M15.826 11.0435C14.7661 11.9686 13.4068 12.4783 11.9999 12.4783C10.5931 12.4783 9.23377 11.9686 8.17383 11.0435" stroke="#191919" stroke-linecap="round" stroke-linejoin="round"/>
</svg>
