<svg width="24" height="24" viewBox="0 0 24 24" fill="none" xmlns="http://www.w3.org/2000/svg">
<path d="M22.0433 2.91296H14.3911C13.8628 2.91296 13.4346 3.34122 13.4346 3.86949V20.1305C13.4346 20.6588 13.8628 21.087 14.3911 21.087H22.0433C22.5716 21.087 22.9999 20.6588 22.9999 20.1305V3.86949C22.9999 3.34122 22.5716 2.91296 22.0433 2.91296Z" fill="#E3E3E3"/>
<path d="M22.9999 4.82602V3.86949C22.9999 3.6158 22.899 3.37251 22.7197 3.19312C22.5403 3.01374 22.297 2.91296 22.0433 2.91296H14.3911C14.1374 2.91296 13.8941 3.01374 13.7147 3.19312C13.5354 3.37251 13.4346 3.6158 13.4346 3.86949V4.82602H22.9999Z" fill="white"/>
<path d="M13.4349 7.69562H1.95653C1.42825 7.69562 1 8.12387 1 8.65215V17.2609C1 17.7892 1.42825 18.2174 1.95653 18.2174H13.4349C13.9632 18.2174 14.3914 17.7892 14.3914 17.2609V8.65215C14.3914 8.12387 13.9632 7.69562 13.4349 7.69562Z" fill="#66E1FF"/>
<path d="M1.95653 18.2174H2.43479L12.9566 7.69562H1.95653C1.70284 7.69562 1.45955 7.7964 1.28016 7.97578C1.10078 8.15516 1 8.39846 1 8.65215V17.2609C1 17.5146 1.10078 17.7579 1.28016 17.9373C1.45955 18.1166 1.70284 18.2174 1.95653 18.2174Z" fill="#C2F3FF"/>
<path d="M13.4349 7.69562H1.95653C1.42825 7.69562 1 8.12387 1 8.65215V17.2609C1 17.7892 1.42825 18.2174 1.95653 18.2174H13.4349C13.9632 18.2174 14.3914 17.7892 14.3914 17.2609V8.65215C14.3914 8.12387 13.9632 7.69562 13.4349 7.69562Z" stroke="#191919" stroke-linecap="round" stroke-linejoin="round"/>
<path d="M7.69531 18.2174V21.087" stroke="#191919" stroke-linecap="round" stroke-linejoin="round"/>
<path d="M4.82178 21.087H10.561" stroke="#191919" stroke-linecap="round" stroke-linejoin="round"/>
<path d="M13.4346 5.78255V3.86949C13.4346 3.6158 13.5354 3.37251 13.7147 3.19312C13.8941 3.01374 14.1374 2.91296 14.3911 2.91296H22.0433C22.297 2.91296 22.5403 3.01374 22.7197 3.19312C22.899 3.37251 22.9999 3.6158 22.9999 3.86949V20.1305C22.9999 20.3842 22.899 20.6275 22.7197 20.8069C22.5403 20.9862 22.297 21.087 22.0433 21.087H14.3911C14.1374 21.087 13.8941 20.9862 13.7147 20.8069C13.5354 20.6275 13.4346 20.3842 13.4346 20.1305" stroke="#191919" stroke-linecap="round" stroke-linejoin="round"/>
<path d="M22.9999 6.73901H16.3042" stroke="#191919" stroke-linecap="round" stroke-linejoin="round"/>
<path d="M22.9999 9.60864H16.3042" stroke="#191919" stroke-linecap="round" stroke-linejoin="round"/>
<path d="M18.2175 17.2609C19.0099 17.2609 19.6523 16.6185 19.6523 15.8261C19.6523 15.0337 19.0099 14.3913 18.2175 14.3913C17.4251 14.3913 16.7827 15.0337 16.7827 15.8261C16.7827 16.6185 17.4251 17.2609 18.2175 17.2609Z" fill="#808080" stroke="#191919" stroke-linecap="round" stroke-linejoin="round"/>
</svg>
