<svg width="24" height="24" viewBox="0 0 24 24" fill="none" xmlns="http://www.w3.org/2000/svg">
<g clip-path="url(#clip0_5303_3133)">
<path d="M23 1.10303H1V5.88564H8.65217V16.4074H5.78261C5.51957 16.4074 5.4507 16.5652 5.62957 16.7575L11.1965 22.752C11.2375 22.7976 11.2877 22.8341 11.3437 22.8591C11.3997 22.8841 11.4604 22.897 11.5217 22.897C11.5831 22.897 11.6438 22.8841 11.6998 22.8591C11.7558 22.8341 11.806 22.7976 11.847 22.752L17.4139 16.7575C17.5928 16.5662 17.5239 16.4074 17.2609 16.4074H14.3913V5.88564H23V1.10303Z" fill="#66E1FF"/>
<path d="M23 5.88562H14.3913V16.4074H17.2609C17.5239 16.4074 17.5928 16.5652 17.4139 16.7574L11.847 22.752C11.806 22.7976 11.7558 22.8341 11.6998 22.8591C11.6438 22.8841 11.5831 22.897 11.5217 22.897C11.4604 22.897 11.3997 22.8841 11.3437 22.8591C11.2877 22.8341 11.2375 22.7976 11.1965 22.752L5.62957 16.7574C5.4507 16.5661 5.51957 16.4074 5.78261 16.4074H8.65217V5.88562H1" stroke="#191919" stroke-linecap="round" stroke-linejoin="round"/>
<path d="M1 1.10303H23" stroke="#191919" stroke-linecap="round" stroke-linejoin="round"/>
</g>
<defs>
<clipPath id="clip0_5303_3133">
<rect width="24" height="24" fill="white"/>
</clipPath>
</defs>
</svg>
