<svg width="24" height="24" viewBox="0 0 24 24" fill="none" xmlns="http://www.w3.org/2000/svg">
<g clip-path="url(#clip0_5303_3042)">
<path d="M22.9999 12.0063L20.1303 9.13678L17.2607 12.0063" stroke="#191919" stroke-linecap="round" stroke-linejoin="round"/>
<path d="M1 12.0255V10.0742" stroke="#191919" stroke-linecap="round" stroke-linejoin="round"/>
<path d="M1.11377 8.20611C1.27332 7.57196 1.59239 6.98915 2.04064 6.51306" stroke="#191919" stroke-linecap="round" stroke-linejoin="round"/>
<path d="M3.60889 5.50874C4.23485 5.3273 4.88842 5.26023 5.53819 5.31074" stroke="#191919" stroke-linecap="round" stroke-linejoin="round"/>
<path d="M7.40869 5.37C8.0523 5.48462 8.65568 5.7626 9.16104 6.1773" stroke="#191919" stroke-linecap="round" stroke-linejoin="round"/>
<path d="M10.2783 7.6723C10.5151 8.28071 10.6131 8.93426 10.5653 9.58535" stroke="#191919" stroke-linecap="round" stroke-linejoin="round"/>
<path d="M10.5654 11.4611V13.4124" stroke="#191919" stroke-linecap="round" stroke-linejoin="round"/>
<path d="M10.5869 15.2901C10.6576 15.9402 10.8938 16.5612 11.2727 17.0941" stroke="#191919" stroke-linecap="round" stroke-linejoin="round"/>
<path d="M12.6899 18.3041C13.2777 18.593 13.9285 18.7299 14.5829 18.702" stroke="#191919" stroke-linecap="round" stroke-linejoin="round"/>
<path d="M16.4575 18.7019C17.1107 18.6764 17.7464 18.4834 18.3036 18.1414" stroke="#191919" stroke-linecap="round" stroke-linejoin="round"/>
<path d="M19.6064 16.8109C19.9367 16.2466 20.1168 15.6071 20.1297 14.9534" stroke="#191919" stroke-linecap="round" stroke-linejoin="round"/>
<path d="M20.1304 13.0796V11.1283" stroke="#191919" stroke-linecap="round" stroke-linejoin="round"/>
</g>
<defs>
<clipPath id="clip0_5303_3042">
<rect width="24" height="24" fill="white"/>
</clipPath>
</defs>
</svg>
