<svg width="24" height="24" viewBox="0 0 24 24" fill="none" xmlns="http://www.w3.org/2000/svg">
<g clip-path="url(#clip0_5303_3071)">
<path d="M1 15.5121L3.28356 12.0079L6.78876 14.2915" stroke="#191919" stroke-linecap="round" stroke-linejoin="round"/>
<path d="M13.1255 2.14805C13.796 2.14608 14.4664 2.21214 15.1231 2.34525" stroke="#191919" stroke-linecap="round" stroke-linejoin="round"/>
<path d="M16.9692 2.91705C17.5875 3.17834 18.1771 3.50076 18.7302 3.88135" stroke="#191919" stroke-linecap="round" stroke-linejoin="round"/>
<path d="M20.2051 5.12573C20.6734 5.60788 21.0925 6.13637 21.4533 6.70332" stroke="#191919" stroke-linecap="round" stroke-linejoin="round"/>
<path d="M22.3296 8.41693C22.5731 9.04205 22.7536 9.68985 22.865 10.3514" stroke="#191919" stroke-linecap="round" stroke-linejoin="round"/>
<path d="M23 12.2791C22.9823 12.9495 22.8955 13.617 22.7427 14.2698" stroke="#191919" stroke-linecap="round" stroke-linejoin="round"/>
<path d="M22.1175 16.0978C21.839 16.7084 21.4988 17.2889 21.1021 17.8302" stroke="#191919" stroke-linecap="round" stroke-linejoin="round"/>
<path d="M19.8152 19.2678C19.3222 19.7213 18.7829 20.1256 18.207 20.4697" stroke="#191919" stroke-linecap="round" stroke-linejoin="round"/>
<path d="M16.462 21.296C15.831 21.5208 15.1773 21.6805 14.5127 21.7732" stroke="#191919" stroke-linecap="round" stroke-linejoin="round"/>
<path d="M12.5805 21.852C11.9108 21.8147 11.2468 21.7089 10.5986 21.5365" stroke="#191919" stroke-linecap="round" stroke-linejoin="round"/>
<path d="M8.7853 20.8552C8.18397 20.5578 7.61443 20.2 7.08545 19.7874" stroke="#191919" stroke-linecap="round" stroke-linejoin="round"/>
<path d="M5.69072 18.4583C5.25132 17.951 4.86479 17.4003 4.53711 16.8146" stroke="#191919" stroke-linecap="round" stroke-linejoin="round"/>
<path d="M3.76091 15.0458C3.44435 14.0643 3.28365 13.0392 3.28467 12.0079" stroke="#191919" stroke-linecap="round" stroke-linejoin="round"/>
</g>
<defs>
<clipPath id="clip0_5303_3071">
<rect width="24" height="24" fill="white"/>
</clipPath>
</defs>
</svg>
