<svg width="24" height="24" viewBox="0 0 24 24" fill="none" xmlns="http://www.w3.org/2000/svg">
<path d="M3.75017 2.60598C3.75017 2.90987 3.62944 3.20132 3.41456 3.41621C3.19967 3.63109 2.90823 3.75181 2.60433 3.75181C2.30044 3.75181 2.00899 3.63109 1.79411 3.41621C1.57922 3.20132 1.4585 2.90987 1.4585 2.60598C1.45814 2.45532 1.48751 2.30607 1.54495 2.16678C1.60238 2.0275 1.68674 1.90092 1.79319 1.7943C1.89964 1.68768 2.02608 1.60312 2.16527 1.54546C2.30447 1.48781 2.45367 1.45819 2.60433 1.45831C2.75496 1.45831 2.90411 1.48801 3.04325 1.54571C3.18239 1.60341 3.30878 1.68797 3.41521 1.79457C3.52163 1.90116 3.606 2.0277 3.66347 2.16693C3.72095 2.30616 3.75041 2.45535 3.75017 2.60598Z" fill="#66E1FF" stroke="#191919" stroke-linecap="round" stroke-linejoin="round"/>
<path d="M8.79167 2.60598C8.79167 2.90987 8.67095 3.20132 8.45606 3.41621C8.24118 3.63109 7.94973 3.75181 7.64583 3.75181C7.34194 3.75181 7.05049 3.63109 6.83561 3.41621C6.62072 3.20132 6.5 2.90987 6.5 2.60598C6.49976 2.45535 6.52922 2.30616 6.5867 2.16693C6.64417 2.02769 6.72854 1.90116 6.83496 1.79457C6.94138 1.68797 7.06778 1.60341 7.20692 1.54571C7.34606 1.48801 7.49521 1.45831 7.64583 1.45831C7.79646 1.45831 7.94561 1.48801 8.08475 1.54571C8.22389 1.60341 8.35029 1.68797 8.45671 1.79457C8.56313 1.90116 8.6475 2.02769 8.70497 2.16693C8.76245 2.30616 8.79191 2.45535 8.79167 2.60598Z" fill="#66E1FF" stroke="#191919" stroke-linecap="round" stroke-linejoin="round"/>
<path d="M13.8332 2.60598C13.8332 2.75637 13.8035 2.90528 13.7459 3.04419C13.6883 3.18311 13.6039 3.3093 13.4975 3.41556C13.391 3.52181 13.2647 3.60604 13.1257 3.66342C12.9867 3.72081 12.8377 3.75022 12.6873 3.74998C12.3834 3.74998 12.092 3.62926 11.8771 3.41437C11.6622 3.19949 11.5415 2.90804 11.5415 2.60415C11.5415 2.30025 11.6622 2.00881 11.8771 1.79392C12.092 1.57903 12.3834 1.45831 12.6873 1.45831C12.838 1.45831 12.9871 1.48801 13.1263 1.54571C13.2654 1.60341 13.3918 1.68797 13.4982 1.79457C13.6046 1.90116 13.689 2.02769 13.7465 2.16693C13.804 2.30616 13.8334 2.45535 13.8332 2.60598Z" fill="#66E1FF" stroke="#191919" stroke-linecap="round" stroke-linejoin="round"/>
<path d="M3.75017 7.18935C3.75005 7.33971 3.72031 7.48856 3.66266 7.62743C3.60502 7.76629 3.52058 7.89243 3.41418 7.99866C3.30778 8.10489 3.1815 8.18913 3.04254 8.24655C2.90359 8.30398 2.75469 8.33347 2.60433 8.33335C2.45398 8.33347 2.30508 8.30398 2.16612 8.24655C2.02717 8.18913 1.90089 8.10489 1.79449 7.99866C1.68809 7.89243 1.60365 7.76629 1.546 7.62743C1.48835 7.48856 1.45862 7.33971 1.4585 7.18935C1.45814 7.03869 1.48751 6.88944 1.54495 6.75016C1.60238 6.61087 1.68674 6.48429 1.79319 6.37767C1.89964 6.27105 2.02608 6.18649 2.16527 6.12884C2.30447 6.07118 2.45367 6.04157 2.60433 6.04169C2.75496 6.04169 2.90411 6.07139 3.04325 6.12908C3.18239 6.18678 3.30878 6.27135 3.41521 6.37794C3.52163 6.48454 3.606 6.61107 3.66347 6.7503C3.72095 6.88953 3.75041 7.03873 3.75017 7.18935Z" fill="#66E1FF" stroke="#191919" stroke-linecap="round" stroke-linejoin="round"/>
<path d="M8.79167 7.18935C8.79155 7.33971 8.76181 7.48856 8.70417 7.62742C8.64652 7.76629 8.56208 7.89243 8.45568 7.99866C8.34928 8.10489 8.223 8.18913 8.08405 8.24655C7.94509 8.30398 7.79619 8.33347 7.64583 8.33335C7.49548 8.33347 7.34658 8.30398 7.20762 8.24655C7.06867 8.18913 6.94239 8.10489 6.83599 7.99866C6.72959 7.89243 6.64515 7.76629 6.5875 7.62742C6.52986 7.48856 6.50012 7.33971 6.5 7.18935C6.49976 7.03873 6.52922 6.88953 6.5867 6.7503C6.64417 6.61107 6.72854 6.48454 6.83496 6.37794C6.94138 6.27135 7.06778 6.18678 7.20692 6.12908C7.34606 6.07139 7.49521 6.04169 7.64583 6.04169C7.79646 6.04169 7.94561 6.07139 8.08475 6.12908C8.22389 6.18678 8.35029 6.27135 8.45671 6.37794C8.56313 6.48454 8.6475 6.61107 8.70497 6.7503C8.76245 6.88953 8.79191 7.03873 8.79167 7.18935Z" fill="#66E1FF" stroke="#191919" stroke-linecap="round" stroke-linejoin="round"/>
<path d="M13.8332 7.18935C13.8332 7.33974 13.8035 7.48865 13.7459 7.62757C13.6883 7.76648 13.6039 7.89268 13.4975 7.99893C13.391 8.10519 13.2647 8.18941 13.1257 8.2468C12.9867 8.30418 12.8377 8.33359 12.6873 8.33335C12.5368 8.33347 12.3878 8.30392 12.2487 8.24638C12.1096 8.18884 11.9833 8.10444 11.8768 7.99801C11.7704 7.89159 11.686 7.76523 11.6285 7.62615C11.5709 7.48708 11.5414 7.33803 11.5415 7.18752C11.5417 6.88363 11.6627 6.59227 11.8778 6.37756C12.0928 6.16285 12.3844 6.04236 12.6883 6.0426C12.9921 6.04285 13.2835 6.1638 13.4982 6.37886C13.7129 6.59392 13.8334 6.88546 13.8332 7.18935Z" fill="#66E1FF" stroke="#191919" stroke-linecap="round" stroke-linejoin="round"/>
<path d="M3.75017 11.7727C3.75017 12.0766 3.62944 12.368 3.41456 12.5829C3.19967 12.7978 2.90823 12.9185 2.60433 12.9185C2.30044 12.9185 2.00899 12.7978 1.79411 12.5829C1.57922 12.368 1.4585 12.0766 1.4585 11.7727C1.45814 11.622 1.48751 11.4728 1.54495 11.3335C1.60238 11.1942 1.68674 11.0676 1.79319 10.961C1.89964 10.8544 2.02608 10.7698 2.16527 10.7122C2.30447 10.6545 2.45367 10.6249 2.60433 10.625C2.75496 10.625 2.90411 10.6547 3.04325 10.7124C3.18239 10.7701 3.30878 10.8547 3.41521 10.9613C3.52163 11.0679 3.606 11.1944 3.66347 11.3336C3.72095 11.4728 3.75041 11.622 3.75017 11.7727Z" fill="#66E1FF" stroke="#191919" stroke-linecap="round" stroke-linejoin="round"/>
<path d="M8.79169 11.7727C8.79169 12.0766 8.67096 12.368 8.45608 12.5829C8.24119 12.7978 7.94975 12.9185 7.64585 12.9185C7.34196 12.9185 7.05051 12.7978 6.83563 12.5829C6.62074 12.368 6.50002 12.0766 6.50002 11.7727C6.4985 11.5068 6.58957 11.2487 6.75758 11.0426C6.9256 10.8366 7.1601 10.6954 7.42083 10.6434C7.68156 10.5913 7.95228 10.6317 8.18652 10.7574C8.42077 10.8832 8.60394 11.0866 8.7046 11.3327C8.76235 11.4711 8.79169 11.6205 8.79169 11.7708V11.7727Z" fill="#66E1FF" stroke="#191919" stroke-linecap="round" stroke-linejoin="round"/>
<path d="M22.5418 22.5416V20.7083C22.5418 19.7359 22.1555 18.8032 21.4679 18.1156C20.7803 17.428 19.8476 17.0416 18.8752 17.0416H16.1252V11.0833C16.1252 10.7186 15.9803 10.3689 15.7225 10.111C15.4646 9.85318 15.1149 9.70831 14.7502 9.70831C14.3855 9.70831 14.0358 9.85318 13.7779 10.111C13.52 10.3689 13.3752 10.7186 13.3752 11.0833V20.0923L11.2247 17.5046C11.051 17.295 10.819 17.1418 10.5581 17.0643C10.2972 16.9868 10.0192 16.9885 9.75928 17.0692C9.49937 17.1499 9.26928 17.306 9.09818 17.5177C8.92709 17.7293 8.82271 17.987 8.79826 18.2581C8.76488 18.621 8.87698 18.9824 9.10993 19.2627L11.837 22.5416" fill="#FFDDA1"/>
<path d="M22.5418 22.5416V20.7083C22.5418 19.7359 22.1555 18.8032 21.4679 18.1156C20.7803 17.428 19.8476 17.0416 18.8752 17.0416H16.1252V11.0833C16.1252 10.7186 15.9803 10.3689 15.7225 10.111C15.4646 9.85318 15.1149 9.70831 14.7502 9.70831C14.3855 9.70831 14.0358 9.85318 13.7779 10.111C13.52 10.3689 13.3752 10.7186 13.3752 11.0833V20.0923L11.2247 17.5046C11.051 17.295 10.819 17.1418 10.5581 17.0643C10.2972 16.9868 10.0192 16.9885 9.75928 17.0692C9.49937 17.1499 9.26928 17.306 9.09818 17.5177C8.92709 17.7293 8.82271 17.987 8.79826 18.2581C8.76488 18.621 8.87698 18.9824 9.10993 19.2627L11.837 22.5416" stroke="#191919" stroke-linecap="round" stroke-linejoin="round"/>
</svg>
