<svg width="24" height="24" viewBox="0 0 24 24" fill="none" xmlns="http://www.w3.org/2000/svg">
<g clip-path="url(#clip0_5303_1991)">
<path d="M4.36059 4.86989C4.90089 4.86989 5.41909 4.65529 5.80109 4.27319C6.18319 3.89119 6.39779 3.37299 6.39779 2.83269C6.39779 2.29249 6.18319 1.77429 5.80109 1.39229C5.41909 1.01019 4.90089 0.795593 4.36059 0.795593C3.82029 0.795593 3.30219 1.01019 2.92009 1.39229C2.53809 1.77429 2.32349 2.29249 2.32349 2.83269C2.32349 3.37299 2.53809 3.89119 2.92009 4.27319C3.30219 4.65529 3.82029 4.86989 4.36059 4.86989Z" fill="#66E1FF"/>
<path d="M11.9685 4.86989C12.5088 4.86989 13.027 4.65529 13.409 4.27319C13.7911 3.89119 14.0056 3.37299 14.0056 2.83269C14.0056 2.29249 13.7911 1.77429 13.409 1.39229C13.027 1.01019 12.5088 0.795593 11.9685 0.795593C11.4282 0.795593 10.9101 1.01019 10.5281 1.39229C10.146 1.77429 9.9314 2.29249 9.9314 2.83269C9.9314 3.37299 10.146 3.89119 10.5281 4.27319C10.9101 4.65529 11.4283 4.86989 11.9685 4.86989Z" fill="#66E1FF"/>
<path d="M19.6393 4.86989C20.1797 4.86989 20.6978 4.65529 21.0798 4.27319C21.4619 3.89119 21.6765 3.37299 21.6765 2.83269C21.6765 2.29249 21.4619 1.77429 21.0798 1.39229C20.6978 1.01019 20.1797 0.795593 19.6393 0.795593C19.099 0.795593 18.5809 1.01019 18.1989 1.39229C17.8169 1.77429 17.6022 2.29249 17.6022 2.83269C17.6022 3.37299 17.8169 3.89119 18.1989 4.27319C18.5809 4.65529 19.0991 4.86989 19.6393 4.86989Z" fill="#66E1FF"/>
<path d="M4.36059 10.9814C4.90089 10.9814 5.41909 10.7668 5.80109 10.3847C6.18319 10.0027 6.39779 9.4845 6.39779 8.9442C6.39779 8.4039 6.18319 7.8858 5.80109 7.5037C5.41909 7.1217 4.90089 6.9071 4.36059 6.9071C3.82029 6.9071 3.30219 7.1217 2.92009 7.5037C2.53809 7.8858 2.32349 8.4039 2.32349 8.9442C2.32349 9.4845 2.53809 10.0027 2.92009 10.3847C3.30219 10.7668 3.82029 10.9814 4.36059 10.9814Z" fill="#66E1FF"/>
<path d="M11.9685 10.9814C12.5088 10.9814 13.027 10.7668 13.409 10.3847C13.791 10.0026 14.0056 9.4845 14.0056 8.9442C14.0056 8.4039 13.7911 7.8858 13.409 7.5037C13.027 7.1217 12.5088 6.9071 11.9685 6.9071C11.4282 6.9071 10.9101 7.1217 10.5281 7.5037C10.146 7.8858 9.9314 8.4039 9.9314 8.9442C9.9314 9.4845 10.146 10.0027 10.5281 10.3847C10.9101 10.7668 11.4283 10.9814 11.9685 10.9814Z" fill="#66E1FF"/>
<path d="M19.6393 10.9814C20.1797 10.9814 20.6978 10.7668 21.0798 10.3847C21.4618 10.0026 21.6765 9.4845 21.6765 8.9442C21.6765 8.4039 21.4619 7.8858 21.0798 7.5037C20.6978 7.1217 20.1797 6.9071 19.6393 6.9071C19.099 6.9071 18.5809 7.1217 18.1989 7.5037C17.8169 7.8858 17.6022 8.4039 17.6022 8.9442C17.6022 9.4845 17.8169 10.0027 18.1989 10.3847C18.5809 10.7668 19.0991 10.9814 19.6393 10.9814Z" fill="#66E1FF"/>
<path d="M4.36059 17.0929C4.62819 17.0929 4.89309 17.0401 5.14019 16.9378C5.38739 16.8355 5.61199 16.6853 5.80109 16.4962C5.99029 16.307 6.14029 16.0824 6.24269 15.8353C6.34509 15.5882 6.39779 15.3233 6.39779 15.0557C6.39779 14.7882 6.34509 14.5233 6.24269 14.2761C6.14029 14.029 5.99029 13.8044 5.80109 13.6153C5.61199 13.426 5.38739 13.276 5.14019 13.1736C4.89309 13.0712 4.62819 13.0186 4.36059 13.0186C3.82029 13.0186 3.30219 13.2331 2.92009 13.6153C2.53809 13.9973 2.32349 14.5154 2.32349 15.0557C2.32349 15.5961 2.53809 16.1142 2.92009 16.4962C3.30219 16.8782 3.82029 17.0929 4.36059 17.0929Z" fill="#66E1FF"/>
<path d="M11.9685 17.0929C12.2361 17.0929 12.501 17.0401 12.7481 16.9378C12.9952 16.8355 13.2198 16.6853 13.409 16.4962C13.5982 16.307 13.7483 16.0824 13.8506 15.8353C13.953 15.5882 14.0056 15.3233 14.0056 15.0557C14.0056 14.7882 13.953 14.5233 13.8506 14.2761C13.7483 14.029 13.5982 13.8044 13.409 13.6153C13.2198 13.426 12.9952 13.276 12.7481 13.1736C12.501 13.0712 12.2361 13.0186 11.9685 13.0186C11.4282 13.0186 10.9101 13.2331 10.5281 13.6153C10.146 13.9973 9.9314 14.5154 9.9314 15.0557C9.9314 15.5961 10.146 16.1142 10.5281 16.4962C10.9101 16.8782 11.4283 17.0929 11.9685 17.0929Z" fill="#66E1FF"/>
<path d="M11.9685 23.2044C12.5088 23.2044 13.027 22.9897 13.409 22.6077C13.791 22.2257 14.0056 21.7075 14.0056 21.1672C14.0056 20.6269 13.7911 20.1088 13.409 19.7268C13.027 19.3446 12.5088 19.1301 11.9685 19.1301C11.4282 19.1301 10.9101 19.3446 10.5281 19.7268C10.146 20.1088 9.9314 20.6269 9.9314 21.1672C9.9314 21.7076 10.146 22.2257 10.5281 22.6077C10.9101 22.9897 11.4283 23.2044 11.9685 23.2044Z" fill="#66E1FF"/>
<path d="M19.6393 17.0929C19.9069 17.0929 20.1718 17.0401 20.4189 16.9378C20.6661 16.8355 20.8907 16.6853 21.0798 16.4962C21.269 16.307 21.4191 16.0824 21.5214 15.8353C21.6239 15.5882 21.6765 15.3233 21.6765 15.0557C21.6765 14.7882 21.6239 14.5233 21.5214 14.2761C21.4191 14.029 21.269 13.8044 21.0798 13.6153C20.8907 13.426 20.6661 13.276 20.4189 13.1736C20.1718 13.0712 19.9069 13.0186 19.6393 13.0186C19.099 13.0186 18.5809 13.2331 18.1989 13.6153C17.8169 13.9973 17.6022 14.5154 17.6022 15.0557C17.6022 15.5961 17.8169 16.1142 18.1989 16.4962C18.5809 16.8782 19.0991 17.0929 19.6393 17.0929Z" fill="#66E1FF"/>
<path d="M4.36059 4.86989C3.82029 4.86989 3.30219 4.65529 2.92009 4.27319C2.53809 3.89119 2.32349 3.37299 2.32349 2.83269C2.32349 2.29249 2.53809 1.77429 2.92009 1.39229C3.30219 1.01019 3.82029 0.795593 4.36059 0.795593V4.86989Z" fill="#C2F3FF"/>
<path d="M11.9685 4.86989C11.4282 4.86989 10.9101 4.65529 10.5281 4.27319C10.146 3.89119 9.9314 3.37299 9.9314 2.83269C9.9314 2.29249 10.146 1.77429 10.5281 1.39229C10.9101 1.01019 11.4283 0.795593 11.9685 0.795593V4.86989Z" fill="#C2F3FF"/>
<path d="M19.6393 4.86989C19.099 4.86989 18.5809 4.65529 18.1989 4.27319C17.8169 3.89119 17.6022 3.37299 17.6022 2.83269C17.6022 2.29249 17.8169 1.77429 18.1989 1.39229C18.5809 1.01019 19.0991 0.795593 19.6393 0.795593V4.86989Z" fill="#C2F3FF"/>
<path d="M4.36059 10.9814C3.82029 10.9814 3.30219 10.7668 2.92009 10.3847C2.53809 10.0027 2.32349 9.4845 2.32349 8.9442C2.32349 8.4039 2.53809 7.8858 2.92009 7.5037C3.30219 7.1217 3.82029 6.9071 4.36059 6.9071V10.9814Z" fill="#C2F3FF"/>
<path d="M11.9685 10.9814C11.4282 10.9814 10.9101 10.7668 10.5281 10.3847C10.146 10.0027 9.9314 9.4845 9.9314 8.9442C9.9314 8.4039 10.146 7.8858 10.5281 7.5037C10.9101 7.1217 11.4283 6.9071 11.9685 6.9071V10.9814Z" fill="#C2F3FF"/>
<path d="M19.6393 10.9814C19.099 10.9814 18.5809 10.7668 18.1989 10.3847C17.8169 10.0026 17.6022 9.4845 17.6022 8.9442C17.6022 8.4039 17.8169 7.8858 18.1989 7.5037C18.5809 7.1217 19.0991 6.9071 19.6393 6.9071V10.9814Z" fill="#C2F3FF"/>
<path d="M4.36059 17.0929C4.09309 17.0929 3.82819 17.0401 3.58099 16.9378C3.33389 16.8355 3.10929 16.6853 2.92009 16.4962C2.73099 16.307 2.58089 16.0824 2.47849 15.8353C2.37619 15.5882 2.32349 15.3233 2.32349 15.0557C2.32349 14.7882 2.37619 14.5233 2.47849 14.2761C2.58089 14.029 2.73099 13.8044 2.92009 13.6153C3.10929 13.426 3.33389 13.276 3.58099 13.1736C3.82819 13.0712 4.09309 13.0186 4.36059 13.0186V17.0929Z" fill="#C2F3FF"/>
<path d="M11.9685 17.0929C11.4282 17.0929 10.9101 16.8782 10.5281 16.4962C10.146 16.1142 9.9314 15.5961 9.9314 15.0557C9.9314 14.5154 10.146 13.9973 10.5281 13.6153C10.9101 13.2331 11.4283 13.0186 11.9685 13.0186V17.0929Z" fill="#C2F3FF"/>
<path d="M11.9685 23.2044C11.4282 23.2044 10.9101 22.9897 10.5281 22.6077C10.146 22.2257 9.9314 21.7075 9.9314 21.1672C9.9314 20.6269 10.146 20.1088 10.5281 19.7268C10.9101 19.3446 11.4283 19.1301 11.9685 19.1301V23.2044Z" fill="#C2F3FF"/>
<path d="M19.6393 17.0929C19.099 17.0929 18.5809 16.8782 18.1989 16.4962C17.8169 16.1142 17.6022 15.5961 17.6022 15.0557C17.6022 14.5154 17.8169 13.9973 18.1989 13.6153C18.5809 13.2331 19.0991 13.0186 19.6393 13.0186V17.0929Z" fill="#C2F3FF"/>
<path d="M4.36059 4.86989C4.90089 4.86989 5.41909 4.65529 5.80109 4.27319C6.18319 3.89119 6.39779 3.37299 6.39779 2.83269C6.39779 2.29249 6.18319 1.77429 5.80109 1.39229C5.41909 1.01019 4.90089 0.795593 4.36059 0.795593C3.82029 0.795593 3.30219 1.01019 2.92009 1.39229C2.53809 1.77429 2.32349 2.29249 2.32349 2.83269C2.32349 3.37299 2.53809 3.89119 2.92009 4.27319C3.30219 4.65529 3.82029 4.86989 4.36059 4.86989Z" stroke="#191919" stroke-linecap="round" stroke-linejoin="round"/>
<path d="M11.9685 4.86989C12.5088 4.86989 13.027 4.65529 13.409 4.27319C13.7911 3.89119 14.0056 3.37299 14.0056 2.83269C14.0056 2.29249 13.7911 1.77429 13.409 1.39229C13.027 1.01019 12.5088 0.795593 11.9685 0.795593C11.4282 0.795593 10.9101 1.01019 10.5281 1.39229C10.146 1.77429 9.9314 2.29249 9.9314 2.83269C9.9314 3.37299 10.146 3.89119 10.5281 4.27319C10.9101 4.65529 11.4283 4.86989 11.9685 4.86989Z" stroke="#191919" stroke-linecap="round" stroke-linejoin="round"/>
<path d="M19.6393 4.86989C20.1797 4.86989 20.6978 4.65529 21.0798 4.27319C21.4619 3.89119 21.6765 3.37299 21.6765 2.83269C21.6765 2.29249 21.4619 1.77429 21.0798 1.39229C20.6978 1.01019 20.1797 0.795593 19.6393 0.795593C19.099 0.795593 18.5809 1.01019 18.1989 1.39229C17.8169 1.77429 17.6022 2.29249 17.6022 2.83269C17.6022 3.37299 17.8169 3.89119 18.1989 4.27319C18.5809 4.65529 19.0991 4.86989 19.6393 4.86989Z" stroke="#191919" stroke-linecap="round" stroke-linejoin="round"/>
<path d="M4.36059 10.9814C4.90089 10.9814 5.41909 10.7668 5.80109 10.3847C6.18319 10.0027 6.39779 9.4845 6.39779 8.9442C6.39779 8.4039 6.18319 7.8858 5.80109 7.5037C5.41909 7.1217 4.90089 6.9071 4.36059 6.9071C3.82029 6.9071 3.30219 7.1217 2.92009 7.5037C2.53809 7.8858 2.32349 8.4039 2.32349 8.9442C2.32349 9.4845 2.53809 10.0027 2.92009 10.3847C3.30219 10.7668 3.82029 10.9814 4.36059 10.9814Z" stroke="#191919" stroke-linecap="round" stroke-linejoin="round"/>
<path d="M11.9685 10.9814C12.5088 10.9814 13.027 10.7668 13.409 10.3847C13.791 10.0026 14.0056 9.4845 14.0056 8.9442C14.0056 8.4039 13.7911 7.8858 13.409 7.5037C13.027 7.1217 12.5088 6.9071 11.9685 6.9071C11.4282 6.9071 10.9101 7.1217 10.5281 7.5037C10.146 7.8858 9.9314 8.4039 9.9314 8.9442C9.9314 9.4845 10.146 10.0027 10.5281 10.3847C10.9101 10.7668 11.4283 10.9814 11.9685 10.9814Z" stroke="#191919" stroke-linecap="round" stroke-linejoin="round"/>
<path d="M19.6393 10.9814C20.1797 10.9814 20.6978 10.7668 21.0798 10.3847C21.4618 10.0026 21.6765 9.4845 21.6765 8.9442C21.6765 8.4039 21.4619 7.8858 21.0798 7.5037C20.6978 7.1217 20.1797 6.9071 19.6393 6.9071C19.099 6.9071 18.5809 7.1217 18.1989 7.5037C17.8169 7.8858 17.6022 8.4039 17.6022 8.9442C17.6022 9.4845 17.8169 10.0027 18.1989 10.3847C18.5809 10.7668 19.0991 10.9814 19.6393 10.9814Z" stroke="#191919" stroke-linecap="round" stroke-linejoin="round"/>
<path d="M4.36059 17.0929C4.62819 17.0929 4.89309 17.0401 5.14019 16.9378C5.38739 16.8355 5.61199 16.6853 5.80109 16.4962C5.99029 16.307 6.14029 16.0824 6.24269 15.8353C6.34509 15.5882 6.39779 15.3233 6.39779 15.0557C6.39779 14.7882 6.34509 14.5233 6.24269 14.2761C6.14029 14.029 5.99029 13.8044 5.80109 13.6153C5.61199 13.426 5.38739 13.276 5.14019 13.1736C4.89309 13.0712 4.62819 13.0186 4.36059 13.0186C3.82029 13.0186 3.30219 13.2331 2.92009 13.6153C2.53809 13.9973 2.32349 14.5154 2.32349 15.0557C2.32349 15.5961 2.53809 16.1142 2.92009 16.4962C3.30219 16.8782 3.82029 17.0929 4.36059 17.0929Z" stroke="#191919" stroke-linecap="round" stroke-linejoin="round"/>
<path d="M11.9685 17.0929C12.2361 17.0929 12.501 17.0401 12.7481 16.9378C12.9952 16.8355 13.2198 16.6853 13.409 16.4962C13.5982 16.307 13.7483 16.0824 13.8506 15.8353C13.953 15.5882 14.0056 15.3233 14.0056 15.0557C14.0056 14.7882 13.953 14.5233 13.8506 14.2761C13.7483 14.029 13.5982 13.8044 13.409 13.6153C13.2198 13.426 12.9952 13.276 12.7481 13.1736C12.501 13.0712 12.2361 13.0186 11.9685 13.0186C11.4282 13.0186 10.9101 13.2331 10.5281 13.6153C10.146 13.9973 9.9314 14.5154 9.9314 15.0557C9.9314 15.5961 10.146 16.1142 10.5281 16.4962C10.9101 16.8782 11.4283 17.0929 11.9685 17.0929Z" stroke="#191919" stroke-linecap="round" stroke-linejoin="round"/>
<path d="M11.9685 23.2044C12.5088 23.2044 13.027 22.9897 13.409 22.6077C13.791 22.2257 14.0056 21.7075 14.0056 21.1672C14.0056 20.6269 13.7911 20.1088 13.409 19.7268C13.027 19.3446 12.5088 19.1301 11.9685 19.1301C11.4282 19.1301 10.9101 19.3446 10.5281 19.7268C10.146 20.1088 9.9314 20.6269 9.9314 21.1672C9.9314 21.7076 10.146 22.2257 10.5281 22.6077C10.9101 22.9897 11.4283 23.2044 11.9685 23.2044Z" stroke="#191919" stroke-linecap="round" stroke-linejoin="round"/>
<path d="M19.6393 17.0929C19.9069 17.0929 20.1718 17.0401 20.4189 16.9378C20.6661 16.8355 20.8907 16.6853 21.0798 16.4962C21.269 16.307 21.4191 16.0824 21.5214 15.8353C21.6239 15.5882 21.6765 15.3233 21.6765 15.0557C21.6765 14.7882 21.6239 14.5233 21.5214 14.2761C21.4191 14.029 21.269 13.8044 21.0798 13.6153C20.8907 13.426 20.6661 13.276 20.4189 13.1736C20.1718 13.0712 19.9069 13.0186 19.6393 13.0186C19.099 13.0186 18.5809 13.2331 18.1989 13.6153C17.8169 13.9973 17.6022 14.5154 17.6022 15.0557C17.6022 15.5961 17.8169 16.1142 18.1989 16.4962C18.5809 16.8782 19.0991 17.0929 19.6393 17.0929Z" stroke="#191919" stroke-linecap="round" stroke-linejoin="round"/>
</g>
<defs>
<clipPath id="clip0_5303_1991">
<rect width="24" height="24" fill="white"/>
</clipPath>
</defs>
</svg>
