<svg width="24" height="24" viewBox="0 0 24 24" fill="none" xmlns="http://www.w3.org/2000/svg">
<path d="M14.2918 2.37501C14.2918 2.13189 14.1952 1.89874 14.0233 1.72683C13.8515 1.55492 13.6183 1.45834 13.3752 1.45834H10.6252C10.3821 1.45834 10.1489 1.55492 9.97698 1.72683C9.80508 1.89874 9.7085 2.13189 9.7085 2.37501V7.49368C9.70855 7.73677 9.80516 7.96989 9.97708 8.14176L11.3521 9.51676C11.524 9.68861 11.7571 9.78515 12.0002 9.78515C12.2433 9.78515 12.4764 9.68861 12.6482 9.51676L14.0232 8.14176C14.1951 7.96989 14.2917 7.73677 14.2918 7.49368V2.37501Z" fill="#E3E3E3"/>
<path d="M12.0002 1.45834H10.6252C10.3821 1.45834 10.1489 1.55492 9.97698 1.72683C9.80508 1.89874 9.7085 2.13189 9.7085 2.37501V7.49368C9.70855 7.73677 9.80516 7.96989 9.97708 8.14176L11.3521 9.51676C11.524 9.68868 11.7571 9.78529 12.0002 9.78534V1.45834Z" fill="white"/>
<path d="M21.6249 14.2917C21.868 14.2917 22.1011 14.1951 22.273 14.0232C22.4449 13.8513 22.5415 13.6181 22.5415 13.375V10.625C22.5415 10.3819 22.4449 10.1487 22.273 9.97683C22.1011 9.80492 21.868 9.70834 21.6249 9.70834H16.5044C16.2613 9.7084 16.0282 9.80501 15.8563 9.97693L14.4813 11.3519C14.3094 11.5238 14.2129 11.7569 14.2129 12C14.2129 12.2431 14.3094 12.4762 14.4813 12.6481L15.8563 14.0231C16.0282 14.195 16.2613 14.2916 16.5044 14.2917H21.6249Z" fill="#E3E3E3"/>
<path d="M22.5417 12V10.625C22.5417 10.3819 22.4452 10.1487 22.2733 9.97683C22.1014 9.80492 21.8682 9.70834 21.6251 9.70834H16.5046C16.2615 9.7084 16.0283 9.80501 15.8565 9.97693L14.4815 11.3519C14.3961 11.4373 14.3285 11.5386 14.2824 11.6501C14.2364 11.7617 14.2127 11.8812 14.2129 12.0018L22.5417 12Z" fill="white"/>
<path d="M9.7085 21.625C9.7085 21.8681 9.80508 22.1013 9.97698 22.2732C10.1489 22.4451 10.3821 22.5417 10.6252 22.5417H13.3752C13.6183 22.5417 13.8515 22.4451 14.0233 22.2732C14.1952 22.1013 14.2918 21.8681 14.2918 21.625V16.5027C14.2917 16.2596 14.1951 16.0265 14.0232 15.8546L12.6482 14.4796C12.4764 14.3077 12.2433 14.2112 12.0002 14.2112C11.7571 14.2112 11.524 14.3077 11.3521 14.4796L9.97708 15.8546C9.80516 16.0265 9.70855 16.2596 9.7085 16.5027V21.625Z" fill="#E3E3E3"/>
<path d="M12.0002 14.211C11.7571 14.211 11.524 14.3076 11.3521 14.4796L9.97708 15.8546C9.80516 16.0265 9.70855 16.2596 9.7085 16.5027V21.625C9.7085 21.8681 9.80508 22.1013 9.97698 22.2732C10.1489 22.445 10.3821 22.5417 10.6252 22.5417H12.0002V14.211Z" fill="white"/>
<path d="M2.37516 9.70834C2.13204 9.70834 1.89889 9.80494 1.72698 9.97685C1.55507 10.1487 1.4585 10.3819 1.4585 10.625V13.375C1.4585 13.6181 1.55507 13.8513 1.72698 14.0232C1.89889 14.1951 2.13204 14.2917 2.37516 14.2917H7.94116C8.08093 14.2917 8.21884 14.2597 8.34435 14.1982C8.46986 14.1368 8.57966 14.0474 8.66533 13.9369L9.67366 12.6389C9.81048 12.4626 9.87824 12.2423 9.86423 12.0195C9.85022 11.7968 9.75541 11.5868 9.59758 11.4289L8.14283 9.9751C7.97066 9.80385 7.73758 9.70791 7.49475 9.70834H2.37516Z" fill="#E3E3E3"/>
<path d="M9.85883 12C9.84201 11.7837 9.74837 11.5805 9.59483 11.4271L8.14283 9.9751C7.97066 9.80385 7.73758 9.70791 7.49475 9.70834H2.37516C2.13204 9.70834 1.89889 9.80494 1.72698 9.97685C1.55507 10.1487 1.4585 10.3819 1.4585 10.625V12H9.85883Z" fill="white"/>
<path d="M14.2918 2.37501C14.2918 2.13189 14.1952 1.89874 14.0233 1.72683C13.8515 1.55492 13.6183 1.45834 13.3752 1.45834H10.6252C10.3821 1.45834 10.1489 1.55492 9.97698 1.72683C9.80508 1.89874 9.7085 2.13189 9.7085 2.37501V7.49368C9.70855 7.73677 9.80516 7.96989 9.97708 8.14176L11.3521 9.51676C11.524 9.68861 11.7571 9.78515 12.0002 9.78515C12.2433 9.78515 12.4764 9.68861 12.6482 9.51676L14.0232 8.14176C14.1951 7.96989 14.2917 7.73677 14.2918 7.49368V2.37501Z" stroke="#191919" stroke-linecap="round" stroke-linejoin="round"/>
<path d="M21.6249 14.2917C21.868 14.2917 22.1011 14.1951 22.273 14.0232C22.4449 13.8513 22.5415 13.6181 22.5415 13.375V10.625C22.5415 10.3819 22.4449 10.1487 22.273 9.97683C22.1011 9.80492 21.868 9.70834 21.6249 9.70834H16.5044C16.2613 9.7084 16.0282 9.80501 15.8563 9.97693L14.4813 11.3519C14.3094 11.5238 14.2129 11.7569 14.2129 12C14.2129 12.2431 14.3094 12.4762 14.4813 12.6481L15.8563 14.0231C16.0282 14.195 16.2613 14.2916 16.5044 14.2917H21.6249Z" stroke="#191919" stroke-linecap="round" stroke-linejoin="round"/>
<path d="M9.7085 21.625C9.7085 21.8681 9.80508 22.1013 9.97698 22.2732C10.1489 22.4451 10.3821 22.5417 10.6252 22.5417H13.3752C13.6183 22.5417 13.8515 22.4451 14.0233 22.2732C14.1952 22.1013 14.2918 21.8681 14.2918 21.625V16.5027C14.2917 16.2596 14.1951 16.0265 14.0232 15.8546L12.6482 14.4796C12.4764 14.3077 12.2433 14.2112 12.0002 14.2112C11.7571 14.2112 11.524 14.3077 11.3521 14.4796L9.97708 15.8546C9.80516 16.0265 9.70855 16.2596 9.7085 16.5027V21.625Z" stroke="#191919" stroke-linecap="round" stroke-linejoin="round"/>
<path d="M2.37516 9.70834C2.13204 9.70834 1.89889 9.80494 1.72698 9.97685C1.55507 10.1487 1.4585 10.3819 1.4585 10.625V13.375C1.4585 13.6181 1.55507 13.8513 1.72698 14.0232C1.89889 14.1951 2.13204 14.2917 2.37516 14.2917H7.94116C8.08093 14.2917 8.21884 14.2597 8.34435 14.1982C8.46986 14.1368 8.57966 14.0474 8.66533 13.9369L9.67366 12.6389C9.81048 12.4626 9.87824 12.2423 9.86423 12.0195C9.85022 11.7968 9.75541 11.5868 9.59758 11.4289L8.14283 9.9751C7.97066 9.80385 7.73758 9.70791 7.49475 9.70834H2.37516Z" stroke="#191919" stroke-linecap="round" stroke-linejoin="round"/>
</svg>
