<svg width="24" height="24" viewBox="0 0 24 24" fill="none" xmlns="http://www.w3.org/2000/svg">
<path d="M11.9998 13.8315C13.0124 13.8315 13.8332 13.0107 13.8332 11.9982C13.8332 10.9857 13.0124 10.1649 11.9998 10.1649C10.9873 10.1649 10.1665 10.9857 10.1665 11.9982C10.1665 13.0107 10.9873 13.8315 11.9998 13.8315Z" fill="#E3E3E3" stroke="#191919" stroke-linecap="round" stroke-linejoin="round"/>
<path d="M17.9585 15.2083C17.9583 15.297 17.984 15.3839 18.0322 15.4583C18.0804 15.5327 18.1493 15.5916 18.2303 15.6277C18.3113 15.6638 18.4012 15.6757 18.4887 15.6617C18.5763 15.6478 18.6581 15.6087 18.7239 15.5493L22.3906 12.341C22.4384 12.298 22.4767 12.2454 22.503 12.1866C22.5291 12.1279 22.5427 12.0643 22.5427 12C22.5427 11.9357 22.5291 11.872 22.503 11.8133C22.4767 11.7545 22.4384 11.702 22.3906 11.659L18.7239 8.45064C18.6581 8.3912 18.5763 8.35214 18.4887 8.33823C18.4012 8.32431 18.3113 8.33611 18.2303 8.37222C18.1493 8.40833 18.0804 8.46717 18.0322 8.54162C17.984 8.61607 17.9583 8.70292 17.9585 8.79164V15.2083Z" fill="#FFEF5E"/>
<path d="M22.5418 12C22.5418 11.9357 22.5283 11.8721 22.502 11.8134C22.4758 11.7546 22.4375 11.702 22.3897 11.659L18.723 8.45069C18.6571 8.39155 18.5755 8.35276 18.4881 8.339C18.4006 8.32525 18.311 8.33712 18.2301 8.37319C18.1493 8.40925 18.0806 8.46797 18.0324 8.54224C17.9842 8.61651 17.9585 8.70315 17.9585 8.79169V12H22.5418Z" fill="#FFF9BF"/>
<path d="M6.04169 8.79164C6.04183 8.70292 6.01623 8.61607 5.96798 8.54162C5.91973 8.46717 5.85091 8.40833 5.76987 8.37222C5.68884 8.33611 5.59906 8.32431 5.51145 8.33823C5.42382 8.35214 5.34213 8.3912 5.27627 8.45064L1.6096 11.659C1.56174 11.702 1.52347 11.7545 1.49726 11.8133C1.47106 11.872 1.45752 11.9357 1.45752 12C1.45752 12.0643 1.47106 12.1279 1.49726 12.1866C1.52347 12.2454 1.56174 12.298 1.6096 12.341L5.27627 15.5493C5.34213 15.6087 5.42382 15.6478 5.51145 15.6617C5.59906 15.6757 5.68884 15.6638 5.76987 15.6277C5.85091 15.5916 5.91973 15.5327 5.96798 15.4583C6.01623 15.3839 6.04183 15.297 6.04169 15.2083V8.79164Z" fill="#FFEF5E"/>
<path d="M6.04183 12V8.79164C6.04198 8.70292 6.01637 8.61607 5.96812 8.54162C5.91988 8.46717 5.85105 8.40833 5.77002 8.37222C5.68898 8.33611 5.59921 8.32431 5.51158 8.33823C5.42397 8.35214 5.34227 8.3912 5.27641 8.45064L1.60975 11.659C1.56204 11.702 1.52392 11.7546 1.49786 11.8134C1.4718 11.8721 1.45839 11.9357 1.4585 12H6.04183Z" fill="#FFF9BF"/>
<path d="M15.2083 6.04172C15.2969 6.04186 15.3838 6.01626 15.4583 5.96801C15.5327 5.91976 15.5916 5.85094 15.6277 5.7699C15.6638 5.68887 15.6756 5.59909 15.6617 5.51148C15.6478 5.42385 15.6087 5.34216 15.5493 5.2763L12.341 1.60963C12.298 1.56177 12.2454 1.5235 12.1866 1.49729C12.1278 1.47109 12.0642 1.45755 12 1.45755C11.9356 1.45755 11.872 1.47109 11.8132 1.49729C11.7545 1.5235 11.702 1.56177 11.659 1.60963L8.45061 5.2763C8.39116 5.34216 8.35211 5.42385 8.3382 5.51148C8.32428 5.59909 8.33608 5.68887 8.37219 5.7699C8.4083 5.85094 8.46714 5.91976 8.54159 5.96801C8.61604 6.01626 8.70289 6.04186 8.79161 6.04172H15.2083Z" fill="#FFEF5E"/>
<path d="M12 1.45834C11.9357 1.45824 11.8721 1.47165 11.8133 1.49771C11.7546 1.52376 11.702 1.56188 11.659 1.60959L8.45061 5.27626C8.39116 5.34212 8.35211 5.42382 8.3382 5.51143C8.32428 5.59905 8.33608 5.68882 8.37219 5.76987C8.4083 5.8509 8.46714 5.91972 8.54159 5.96797C8.61604 6.01622 8.70289 6.04182 8.79161 6.04168H12V1.45834Z" fill="#FFF9BF"/>
<path d="M8.79161 17.9583C8.70289 17.9581 8.61604 17.9838 8.54159 18.032C8.46714 18.0802 8.4083 18.1491 8.37219 18.2301C8.33608 18.3111 8.32428 18.401 8.3382 18.4885C8.35211 18.5761 8.39116 18.6579 8.45061 18.7237L11.659 22.3904C11.702 22.4382 11.7545 22.4766 11.8132 22.5028C11.872 22.5289 11.9356 22.5425 12 22.5425C12.0642 22.5425 12.1278 22.5289 12.1866 22.5028C12.2454 22.4766 12.298 22.4382 12.341 22.3904L15.5493 18.7237C15.6087 18.6579 15.6478 18.5761 15.6617 18.4885C15.6756 18.401 15.6638 18.3111 15.6277 18.2301C15.5916 18.1491 15.5327 18.0802 15.4583 18.032C15.3838 17.9838 15.2969 17.9581 15.2083 17.9583H8.79161Z" fill="#FFEF5E"/>
<path d="M12 17.9583H8.79161C8.70289 17.9581 8.61604 17.9838 8.54159 18.032C8.46714 18.0802 8.4083 18.1491 8.37219 18.2301C8.33608 18.3111 8.32428 18.401 8.3382 18.4885C8.35211 18.5761 8.39116 18.6579 8.45061 18.7237L11.659 22.3904C11.702 22.4381 11.7546 22.4762 11.8133 22.5023C11.8721 22.5284 11.9357 22.5417 12 22.5416V17.9583Z" fill="#FFF9BF"/>
<path d="M17.9585 15.2083C17.9583 15.297 17.984 15.3839 18.0322 15.4583C18.0804 15.5327 18.1493 15.5916 18.2303 15.6277C18.3113 15.6638 18.4012 15.6757 18.4887 15.6617C18.5763 15.6478 18.6581 15.6087 18.7239 15.5493L22.3906 12.341C22.4384 12.298 22.4767 12.2454 22.503 12.1866C22.5291 12.1279 22.5427 12.0643 22.5427 12C22.5427 11.9357 22.5291 11.872 22.503 11.8133C22.4767 11.7545 22.4384 11.702 22.3906 11.659L18.7239 8.45064C18.6581 8.3912 18.5763 8.35214 18.4887 8.33823C18.4012 8.32431 18.3113 8.33611 18.2303 8.37222C18.1493 8.40833 18.0804 8.46717 18.0322 8.54162C17.984 8.61607 17.9583 8.70292 17.9585 8.79164V15.2083Z" stroke="#191919" stroke-linecap="round" stroke-linejoin="round"/>
<path d="M6.04169 8.79164C6.04183 8.70292 6.01623 8.61607 5.96798 8.54162C5.91973 8.46717 5.85091 8.40833 5.76987 8.37222C5.68884 8.33611 5.59906 8.32431 5.51145 8.33823C5.42382 8.35214 5.34213 8.3912 5.27627 8.45064L1.6096 11.659C1.56174 11.702 1.52347 11.7545 1.49726 11.8133C1.47106 11.872 1.45752 11.9357 1.45752 12C1.45752 12.0643 1.47106 12.1279 1.49726 12.1866C1.52347 12.2454 1.56174 12.298 1.6096 12.341L5.27627 15.5493C5.34213 15.6087 5.42382 15.6478 5.51145 15.6617C5.59906 15.6757 5.68884 15.6638 5.76987 15.6277C5.85091 15.5916 5.91973 15.5327 5.96798 15.4583C6.01623 15.3839 6.04183 15.297 6.04169 15.2083V8.79164Z" stroke="#191919" stroke-linecap="round" stroke-linejoin="round"/>
<path d="M15.2083 6.04172C15.2969 6.04186 15.3838 6.01626 15.4583 5.96801C15.5327 5.91976 15.5916 5.85094 15.6277 5.7699C15.6638 5.68887 15.6756 5.59909 15.6617 5.51148C15.6478 5.42385 15.6087 5.34216 15.5493 5.2763L12.341 1.60963C12.298 1.56177 12.2454 1.5235 12.1866 1.49729C12.1278 1.47109 12.0642 1.45755 12 1.45755C11.9356 1.45755 11.872 1.47109 11.8132 1.49729C11.7545 1.5235 11.702 1.56177 11.659 1.60963L8.45061 5.2763C8.39116 5.34216 8.35211 5.42385 8.3382 5.51148C8.32428 5.59909 8.33608 5.68887 8.37219 5.7699C8.4083 5.85094 8.46714 5.91976 8.54159 5.96801C8.61604 6.01626 8.70289 6.04186 8.79161 6.04172H15.2083Z" stroke="#191919" stroke-linecap="round" stroke-linejoin="round"/>
<path d="M8.79161 17.9583C8.70289 17.9581 8.61604 17.9838 8.54159 18.032C8.46714 18.0802 8.4083 18.1491 8.37219 18.2301C8.33608 18.3111 8.32428 18.401 8.3382 18.4885C8.35211 18.5761 8.39116 18.6579 8.45061 18.7237L11.659 22.3904C11.702 22.4382 11.7545 22.4766 11.8132 22.5028C11.872 22.5289 11.9356 22.5425 12 22.5425C12.0642 22.5425 12.1278 22.5289 12.1866 22.5028C12.2454 22.4766 12.298 22.4382 12.341 22.3904L15.5493 18.7237C15.6087 18.6579 15.6478 18.5761 15.6617 18.4885C15.6756 18.401 15.6638 18.3111 15.6277 18.2301C15.5916 18.1491 15.5327 18.0802 15.4583 18.032C15.3838 17.9838 15.2969 17.9581 15.2083 17.9583H8.79161Z" stroke="#191919" stroke-linecap="round" stroke-linejoin="round"/>
</svg>
