<svg width="24" height="24" viewBox="0 0 24 24" fill="none" xmlns="http://www.w3.org/2000/svg">
<path d="M9.55635 21.5678C11.9339 21.5678 13.8612 19.6404 13.8612 17.2629C13.8612 14.8854 11.9339 12.958 9.55635 12.958C7.17883 12.958 5.25146 14.8854 5.25146 17.2629C5.25146 19.6404 7.17883 21.5678 9.55635 21.5678Z" fill="#C2F3FF"/>
<path d="M10.9912 5.7832C12.312 5.7832 13.3828 4.71244 13.3828 3.3916C13.3828 2.07076 12.312 1 10.9912 1C9.67037 1 8.59961 2.07076 8.59961 3.3916C8.59961 4.71244 9.67037 5.7832 10.9912 5.7832Z" fill="#E3E3E3" stroke="#191919" stroke-linecap="round" stroke-linejoin="round"/>
<path d="M12.4261 9.13143C12.4261 8.75086 12.2749 8.38587 12.0058 8.11676C11.7367 7.84766 11.3717 7.69647 10.9911 7.69647C10.6106 7.69647 10.2456 7.84766 9.97644 8.11676C9.70734 8.38587 9.55615 8.75086 9.55615 9.13143V16.7846C9.55615 17.1651 9.70734 17.5302 9.97644 17.7993C10.2456 18.0684 10.6106 18.2195 10.9911 18.2195H15.296C15.3771 18.2195 15.4569 18.2402 15.5279 18.2795C15.5989 18.3188 15.6586 18.3755 15.7016 18.4443L17.5307 21.3716C17.7325 21.6944 18.0541 21.9237 18.4249 22.0093C18.7958 22.0949 19.1854 22.0296 19.5081 21.828C19.8308 21.6263 20.0602 21.3046 20.1458 20.9338C20.2314 20.563 20.1661 20.1734 19.9644 19.8506L18.1353 16.9233C17.8357 16.4405 17.4174 16.0424 16.9205 15.7669C16.4235 15.4915 15.8642 15.3478 15.296 15.3496H12.9044C12.7775 15.3496 12.6558 15.2992 12.5662 15.2095C12.4765 15.1198 12.4261 14.9981 12.4261 14.8713V9.13143Z" fill="#E3E3E3" stroke="#191919" stroke-linecap="round" stroke-linejoin="round"/>
<path d="M14.4653 20.2371C13.9842 21.0302 13.318 21.6949 12.5238 22.1743C11.7296 22.6536 10.831 22.9334 9.90503 22.9895C8.97907 23.0456 8.0533 22.8764 7.207 22.4966C6.36071 22.1167 5.6191 21.5372 5.0457 20.8081C4.4723 20.0788 4.08418 19.2215 3.9146 18.3094C3.74501 17.3975 3.79901 16.4579 4.07195 15.5713C4.3449 14.6847 4.82868 13.8775 5.48184 13.2188C6.13501 12.56 6.93811 12.0694 7.82235 11.789" stroke="#191919" stroke-linecap="round" stroke-linejoin="round"/>
</svg>
