<svg width="24" height="24" viewBox="0 0 24 24" fill="none" xmlns="http://www.w3.org/2000/svg">
<g clip-path="url(#clip0_5303_5118)">
<path d="M12.0011 22.9906C18.0734 22.9906 22.9964 18.0675 22.9964 11.9953C22.9964 5.92302 18.0734 1 12.0011 1C5.92888 1 1.00586 5.92302 1.00586 11.9953C1.00586 18.0675 5.92888 22.9906 12.0011 22.9906Z" fill="#FFF9BF"/>
<path d="M12.0011 22.9906C18.0734 22.9906 22.9964 18.0675 22.9964 11.9953C22.9964 5.92302 18.0734 1 12.0011 1C5.92888 1 1.00586 5.92302 1.00586 11.9953C1.00586 18.0675 5.92888 22.9906 12.0011 22.9906Z" fill="#FFF9BF"/>
<path d="M12.0006 18.4491C9.47883 18.449 7.0337 17.5822 5.07504 15.9938C3.11638 14.4054 1.76325 12.1919 1.24245 9.72452C0.902875 11.3264 0.925364 12.9838 1.30827 14.5759C1.69117 16.1679 2.42483 17.6543 3.45565 18.9266C4.48647 20.1988 5.78844 21.2248 7.26646 21.9295C8.74449 22.6343 10.3613 23 11.9987 23C13.6361 23 15.2529 22.6343 16.7309 21.9295C18.209 21.2248 19.5109 20.1988 20.5418 18.9266C21.5726 17.6543 22.3062 16.1679 22.6891 14.5759C23.072 12.9838 23.0945 11.3264 22.755 9.72452C22.2343 12.1913 20.8817 14.4042 18.9238 15.9926C16.966 17.5809 14.5217 18.4482 12.0006 18.4491Z" fill="#FFEF5E"/>
<path d="M13.9128 8.17084H11.861C11.4618 8.17098 11.0743 8.30588 10.7613 8.55369C10.4483 8.80149 10.2281 9.1477 10.1364 9.53623C10.0447 9.92477 10.0868 10.3329 10.256 10.6945C10.4251 11.0561 10.7114 11.3501 11.0684 11.5287L12.9328 12.4619C13.2898 12.6405 13.5761 12.9344 13.7452 13.2961C13.9144 13.6577 13.9565 14.0658 13.8648 14.4543C13.7731 14.8429 13.5529 15.1891 13.2399 15.4369C12.9269 15.6847 12.5394 15.8196 12.1402 15.8197H10.0884" stroke="#191919" stroke-linecap="round" stroke-linejoin="round"/>
<path d="M12.001 8.17083V6.73666" stroke="#191919" stroke-linecap="round" stroke-linejoin="round"/>
<path d="M12.001 17.2539V15.8197" stroke="#191919" stroke-linecap="round" stroke-linejoin="round"/>
<path d="M22.996 11.9953C22.9961 14.3866 22.2167 16.7127 20.7759 18.6211" stroke="#191919" stroke-linecap="round" stroke-linejoin="round"/>
<path d="M18.8462 3.39029C20.7178 4.87838 22.0529 6.93649 22.6486 9.25221" stroke="#191919" stroke-linecap="round" stroke-linejoin="round"/>
<path d="M9.52734 1.28683C11.8569 0.746212 14.2993 0.981219 16.4831 1.95611" stroke="#191919" stroke-linecap="round" stroke-linejoin="round"/>
<path d="M2.07666 7.2616C3.10575 5.10287 4.81105 3.33883 6.93371 2.23724" stroke="#191919" stroke-linecap="round" stroke-linejoin="round"/>
<path d="M2.11902 16.815C1.07214 14.6673 0.752975 12.2371 1.20975 9.89185" stroke="#191919" stroke-linecap="round" stroke-linejoin="round"/>
<path d="M9.62094 22.7296C7.28599 22.213 5.18347 20.9484 3.63281 19.1279" stroke="#191919" stroke-linecap="round" stroke-linejoin="round"/>
<path d="M18.9205 20.5401C17.0625 22.0455 14.764 22.9036 12.374 22.9839" stroke="#191919" stroke-linecap="round" stroke-linejoin="round"/>
</g>
<defs>
<clipPath id="clip0_5303_5118">
<rect width="24" height="24" fill="white"/>
</clipPath>
</defs>
</svg>
