<svg width="24" height="24" viewBox="0 0 24 24" fill="none" xmlns="http://www.w3.org/2000/svg">
<g clip-path="url(#clip0_5303_7414)">
<path d="M20.2289 1.29051L1.291 20.2284C1.10499 20.4145 1.00049 20.6668 1.00049 20.9299C1.00049 21.193 1.10499 21.4453 1.291 21.6314L2.36857 22.709C2.46073 22.8012 2.57016 22.8744 2.69062 22.9244C2.81107 22.9743 2.94019 23 3.07058 23C3.20098 23 3.3301 22.9743 3.45055 22.9244C3.57101 22.8744 3.68044 22.8012 3.77259 22.709L22.7095 3.7721C22.8955 3.58603 23 3.3337 23 3.07059C23 2.80749 22.8955 2.55515 22.7095 2.36908L21.6319 1.29051C21.4458 1.1045 21.1935 1 20.9304 1C20.6673 1 20.415 1.1045 20.2289 1.29051Z" fill="#FFEF5E" stroke="#191919" stroke-linecap="round" stroke-linejoin="round"/>
<path d="M4.55926 8.03088C5.48032 8.03088 6.36365 7.66499 7.01493 7.01371C7.66621 6.36243 8.0321 5.4791 8.0321 4.55804C8.0321 3.63699 7.66621 2.75366 7.01493 2.10238C6.36365 1.45109 5.48032 1.08521 4.55926 1.08521C3.63821 1.08521 2.75488 1.45109 2.1036 2.10238C1.45231 2.75366 1.08643 3.63699 1.08643 4.55804C1.08643 5.4791 1.45231 6.36243 2.1036 7.01371C2.75488 7.66499 3.63821 8.03088 4.55926 8.03088Z" fill="#FFEF5E"/>
<path d="M4.55927 3.46656C5.26956 3.4679 5.96227 3.68755 6.54354 4.09577C7.12481 4.50399 7.56653 5.08103 7.80885 5.74871C7.984 5.27272 8.0526 4.7641 8.00982 4.25871C7.96705 3.75332 7.81393 3.26347 7.56128 2.82369C7.30862 2.3839 6.96257 2.00489 6.54753 1.71337C6.13248 1.42185 5.65854 1.22492 5.15912 1.13646C4.6597 1.048 4.14696 1.07017 3.65704 1.2014C3.16711 1.33263 2.71194 1.56973 2.3236 1.89598C1.93526 2.22223 1.62322 2.62969 1.40946 3.08964C1.1957 3.54959 1.08543 4.05083 1.08643 4.55802C1.08941 4.96484 1.16581 5.36769 1.30969 5.74871C1.55201 5.08103 1.99373 4.50399 2.575 4.09577C3.15627 3.68755 3.84898 3.4679 4.55927 3.46656Z" fill="#FFF9BF"/>
<path d="M4.55926 8.03088C5.48032 8.03088 6.36365 7.66499 7.01493 7.01371C7.66621 6.36243 8.0321 5.4791 8.0321 4.55804C8.0321 3.63699 7.66621 2.75366 7.01493 2.10238C6.36365 1.45109 5.48032 1.08521 4.55926 1.08521C3.63821 1.08521 2.75488 1.45109 2.1036 2.10238C1.45231 2.75366 1.08643 3.63699 1.08643 4.55804C1.08643 5.4791 1.45231 6.36243 2.1036 7.01371C2.75488 7.66499 3.63821 8.03088 4.55926 8.03088Z" stroke="#191919" stroke-linecap="round" stroke-linejoin="round"/>
<path d="M19.4426 22.9143C20.3636 22.9143 21.2469 22.5484 21.8982 21.8971C22.5495 21.2458 22.9154 20.3625 22.9154 19.4415C22.9154 18.5204 22.5495 17.6371 21.8982 16.9858C21.2469 16.3345 20.3636 15.9686 19.4426 15.9686C18.5215 15.9686 17.6382 16.3345 16.9869 16.9858C16.3356 17.6371 15.9697 18.5204 15.9697 19.4415C15.9697 20.3625 16.3356 21.2458 16.9869 21.8971C17.6382 22.5484 18.5215 22.9143 19.4426 22.9143Z" fill="#FFEF5E"/>
<path d="M19.4426 18.3502C20.1529 18.3514 20.8457 18.571 21.427 18.9792C22.0083 19.3875 22.4499 19.9646 22.6921 20.6324C22.8903 20.1068 22.958 19.541 22.8895 18.9836C22.8209 18.4261 22.6182 17.8936 22.2987 17.4317C21.9792 16.9697 21.5524 16.5922 21.055 16.3314C20.5575 16.0707 20.0042 15.9344 19.4426 15.9344C18.8809 15.9344 18.3276 16.0707 17.8302 16.3314C17.3327 16.5922 16.9059 16.9697 16.5864 17.4317C16.2669 17.8936 16.0642 18.4261 15.9957 18.9836C15.9271 19.541 15.9949 20.1068 16.193 20.6324C16.4353 19.9647 16.877 19.3876 17.4583 18.9794C18.0396 18.5712 18.7323 18.3515 19.4426 18.3502Z" fill="#FFF9BF"/>
<path d="M19.4426 22.9143C20.3636 22.9143 21.2469 22.5484 21.8982 21.8971C22.5495 21.2458 22.9154 20.3625 22.9154 19.4415C22.9154 18.5204 22.5495 17.6371 21.8982 16.9858C21.2469 16.3345 20.3636 15.9686 19.4426 15.9686C18.5215 15.9686 17.6382 16.3345 16.9869 16.9858C16.3356 17.6371 15.9697 18.5204 15.9697 19.4415C15.9697 20.3625 16.3356 21.2458 16.9869 21.8971C17.6382 22.5484 18.5215 22.9143 19.4426 22.9143Z" stroke="#191919" stroke-linecap="round" stroke-linejoin="round"/>
</g>
<defs>
<clipPath id="clip0_5303_7414">
<rect width="24" height="24" fill="white"/>
</clipPath>
</defs>
</svg>
