<svg width="24" height="24" viewBox="0 0 24 24" fill="none" xmlns="http://www.w3.org/2000/svg">
<g clip-path="url(#clip0_5303_9265)">
<path d="M22.0426 17.2607V21.0867C22.041 21.5936 21.839 22.0793 21.4806 22.4378C21.1221 22.7962 20.6364 22.9982 20.1296 22.9997H3.86906C3.3617 22.9997 2.87512 22.7982 2.51636 22.4394C2.1576 22.0806 1.95605 21.5941 1.95605 21.0867V17.2607H22.0426Z" fill="#FFBC44"/>
<path d="M9.27386 12.9278L11.0816 17.2608H3.86963V1.00024H17.2606V8.49921L9.82863 11.5887C9.5779 11.6933 9.37877 11.8928 9.2748 12.1438C9.17083 12.3947 9.1705 12.6767 9.27386 12.9278Z" fill="#C77F67"/>
<path d="M22.3681 15.1947L17.423 17.2608H11.0814L9.27357 12.9278C9.1702 12.6767 9.17054 12.3947 9.27452 12.1438C9.37848 11.8928 9.57761 11.6933 9.82834 11.5887L17.2604 8.4992L19.2307 7.67661C19.4807 7.57163 19.762 7.57008 20.0131 7.6723C20.264 7.77451 20.4643 7.97214 20.5698 8.22181L22.9228 13.8652C22.974 13.9889 23.0002 14.1214 22.9999 14.2554C22.9997 14.3892 22.973 14.5216 22.9215 14.6451C22.87 14.7687 22.7946 14.8808 22.6996 14.9751C22.6046 15.0694 22.4919 15.144 22.3681 15.1947Z" fill="#FFEF5E"/>
<path d="M17.2606 1.00024H3.86963V15.9886L17.2606 2.5976V1.00024Z" fill="#E3BFB3"/>
<path d="M17.2604 8.49922L9.82834 11.5887C9.57761 11.6933 9.37848 11.8928 9.27452 12.1438C9.17054 12.3947 9.1702 12.6766 9.27357 12.9278L11.0814 17.2608H14.1756L18.3613 8.0401L17.2604 8.49922Z" fill="#FFF9BF"/>
<path d="M13.8501 17.2607H1.95605V21.0867C1.95605 21.5941 2.1576 22.0806 2.51636 22.4394C2.87512 22.7982 3.3617 22.9997 3.86906 22.9997H8.11115L13.8501 17.2607Z" fill="#FFDDA1"/>
<path d="M22.0426 21.0867C22.0426 21.5941 21.841 22.0806 21.4822 22.4394C21.1235 22.7982 20.6369 22.9997 20.1296 22.9997H3.86906C3.3617 22.9997 2.87512 22.7982 2.51636 22.4394C2.1576 22.0806 1.95605 21.5941 1.95605 21.0867V17.2607H22.0426V21.0867Z" stroke="#191919" stroke-linecap="round" stroke-linejoin="round"/>
<path d="M17.2606 1.00024L14.8694 3.3915C14.5059 3.8401 13.3811 3.86975 13.3811 3.86975H7.7492C7.7492 3.86975 6.62435 3.8401 6.26088 3.3915L3.86963 1.00024" stroke="#191919" stroke-linecap="round" stroke-linejoin="round"/>
<path d="M3.86963 17.2608V1.00024H17.2606V6.261" stroke="#191919" stroke-linecap="round" stroke-linejoin="round"/>
<path d="M10.5649 3.89941V9.13052" stroke="#191919" stroke-linecap="round" stroke-linejoin="round"/>
<path d="M11.0854 17.2608L9.2795 12.925C9.22786 12.8015 9.20108 12.6691 9.20069 12.5353C9.20029 12.4015 9.22629 12.2688 9.2772 12.1451C9.3281 12.0214 9.40292 11.9088 9.49737 11.814C9.59181 11.7192 9.70402 11.6439 9.82758 11.5926L19.2357 7.67091C19.4854 7.56717 19.766 7.56671 20.0159 7.66965C20.266 7.77258 20.4649 7.97049 20.5691 8.21994L22.9211 13.8633C23.0248 14.1128 23.0253 14.3933 22.9224 14.6431C22.8193 14.893 22.6214 15.0917 22.3721 15.1957L17.4222 17.2608" stroke="#191919" stroke-linecap="round" stroke-linejoin="round"/>
<path d="M9.47412 13.3955L15.084 13.5993C15.4377 13.6443 15.797 13.5959 16.1261 13.4588C16.4552 13.3217 16.7427 13.1006 16.9597 12.8178L20.7647 8.69147" stroke="#191919" stroke-linecap="round" stroke-linejoin="round"/>
<path d="M22.9995 17.2607H1" stroke="#191919" stroke-linecap="round" stroke-linejoin="round"/>
</g>
<defs>
<clipPath id="clip0_5303_9265">
<rect width="24" height="24" fill="white"/>
</clipPath>
</defs>
</svg>
