<svg width="24" height="24" viewBox="0 0 24 24" fill="none" xmlns="http://www.w3.org/2000/svg">
<g clip-path="url(#clip0_5303_9257)">
<path d="M23 16.3043V22.0435C23 22.2971 22.8992 22.5404 22.7198 22.7198C22.5405 22.8992 22.2972 23 22.0435 23H1.95652C1.70284 23 1.45954 22.8992 1.28016 22.7198C1.10078 22.5404 1 22.2971 1 22.0435V16.3043H7.69565V17.2608C7.69717 17.7677 7.8992 18.2535 8.25764 18.6119C8.61608 18.9703 9.10179 19.1724 9.6087 19.1739H14.3913C14.8982 19.1724 15.3839 18.9703 15.7424 18.6119C16.1008 18.2535 16.3028 17.7677 16.3043 17.2608V16.3043H23Z" fill="#FFDDA1"/>
<path d="M23 16.3043H16.3043V17.2608C16.3028 17.7678 16.1008 18.2535 15.7424 18.6119C15.3839 18.9703 14.8982 19.1724 14.3913 19.1739H9.6087C9.10179 19.1724 8.61608 18.9703 8.25764 18.6119C7.8992 18.2535 7.69717 17.7678 7.69565 17.2608V16.3043H1L4.07043 11.0435C4.1539 10.8989 4.27374 10.7787 4.41805 10.6948C4.56236 10.6109 4.72612 10.5662 4.89304 10.5652H19.0974C19.2659 10.5645 19.4317 10.6084 19.5778 10.6924C19.7239 10.7764 19.8453 10.8975 19.9296 11.0435L23 16.3043Z" fill="#FFBC44"/>
<path d="M23 22.0435C23 22.2971 22.8992 22.5404 22.7198 22.7198C22.5405 22.8992 22.2972 23 22.0435 23H1.95652C1.70284 23 1.45954 22.8992 1.28016 22.7198C1.10078 22.5404 1 22.2971 1 22.0435V16.3043H7.69565V17.2608C7.69717 17.7677 7.8992 18.2535 8.25764 18.6119C8.61608 18.9703 9.10179 19.1724 9.6087 19.1739H14.3913C14.8982 19.1724 15.3839 18.9703 15.7424 18.6119C16.1008 18.2535 16.3028 17.7677 16.3043 17.2608V16.3043H23V22.0435Z" stroke="#191919" stroke-linecap="round" stroke-linejoin="round"/>
<path d="M1 16.3043L4.07139 11.0434C4.1551 10.8985 4.27539 10.778 4.42025 10.6941C4.56511 10.6101 4.72946 10.5657 4.89687 10.5652H7.69565" stroke="#191919" stroke-linecap="round" stroke-linejoin="round"/>
<path d="M16.3042 10.5652H19.103C19.2704 10.5657 19.4347 10.6101 19.5796 10.6941C19.7245 10.778 19.8448 10.8985 19.9285 11.0434L22.9999 16.3043" stroke="#191919" stroke-linecap="round" stroke-linejoin="round"/>
<path d="M11.9995 1V11.5217" stroke="#191919" stroke-linecap="round" stroke-linejoin="round"/>
<path d="M8.17383 4.82609L11.9999 1L15.826 4.82609" stroke="#191919" stroke-linecap="round" stroke-linejoin="round"/>
</g>
<defs>
<clipPath id="clip0_5303_9257">
<rect width="24" height="24" fill="white"/>
</clipPath>
</defs>
</svg>
