<svg width="24" height="24" viewBox="0 0 24 24" fill="none" xmlns="http://www.w3.org/2000/svg">
<g clip-path="url(#clip0_5303_9128)">
<path d="M23 16.3043V22.0435C23 22.2971 22.8992 22.5405 22.7198 22.7198C22.5405 22.8992 22.2971 23 22.0435 23H1.95652C1.70283 23 1.45954 22.8992 1.28016 22.7198C1.10078 22.5405 1 22.2971 1 22.0435V16.3043H7.69565V17.2608C7.69716 17.7677 7.8992 18.2534 8.25764 18.6119C8.61608 18.9703 9.10179 19.1724 9.6087 19.1739H14.3913C14.8982 19.1724 15.3839 18.9703 15.7424 18.6119C16.1008 18.2534 16.3028 17.7677 16.3043 17.2608V16.3043H23Z" fill="#FFDDA1"/>
<path d="M23 16.3043H16.3043V17.2608C16.3028 17.7677 16.1008 18.2534 15.7424 18.6119C15.3839 18.9703 14.8982 19.1724 14.3913 19.1739H9.6087C9.10179 19.1724 8.61608 18.9703 8.25764 18.6119C7.8992 18.2534 7.69716 17.7677 7.69565 17.2608V16.3043H1L4.07043 11.0435C4.1539 10.8989 4.27373 10.7787 4.41805 10.6948C4.56236 10.6109 4.72612 10.5662 4.89304 10.5652H19.0974C19.2659 10.5645 19.4317 10.6084 19.5779 10.6924C19.7239 10.7764 19.8453 10.8975 19.9296 11.0435L23 16.3043Z" fill="#FFBC44"/>
<path d="M18.2166 8.65217V6.73913C16.0366 6.63535 13.8887 7.29498 12.1428 8.60445C10.3968 9.91391 9.16212 11.7912 8.65137 13.913C8.65137 13.913 8.65137 2.91304 18.2166 2.91304V1L22.9992 4.82609L18.2166 8.65217Z" fill="#78EB7B"/>
<path d="M23 22.0435C23 22.2971 22.8992 22.5405 22.7198 22.7198C22.5405 22.8992 22.2971 23 22.0435 23H1.95652C1.70283 23 1.45954 22.8992 1.28016 22.7198C1.10078 22.5405 1 22.2971 1 22.0435V16.3043H7.69565V17.2608C7.69716 17.7677 7.8992 18.2534 8.25764 18.6119C8.61608 18.9703 9.10179 19.1724 9.6087 19.1739H14.3913C14.8982 19.1724 15.3839 18.9703 15.7424 18.6119C16.1008 18.2534 16.3028 17.7677 16.3043 17.2608V16.3043H23V22.0435Z" stroke="#191919" stroke-linecap="round" stroke-linejoin="round"/>
<path d="M14.3906 10.5652H19.1025C19.2698 10.5657 19.4342 10.6101 19.5791 10.694C19.7239 10.778 19.8442 10.8984 19.9279 11.0434L22.9993 16.3043" stroke="#191919" stroke-linecap="round" stroke-linejoin="round"/>
<path d="M1 16.3043L4.07139 11.0434C4.1551 10.8984 4.27539 10.778 4.42025 10.694C4.56511 10.6101 4.72946 10.5657 4.89687 10.5652H6.73913" stroke="#191919" stroke-linecap="round" stroke-linejoin="round"/>
<path d="M18.2166 8.65217V6.73913C16.0366 6.63535 13.8887 7.29498 12.1428 8.60445C10.3968 9.91391 9.16212 11.7912 8.65137 13.913C8.65137 13.913 8.65137 2.91304 18.2166 2.91304V1L22.9992 4.82609L18.2166 8.65217Z" stroke="#191919" stroke-linecap="round" stroke-linejoin="round"/>
</g>
<defs>
<clipPath id="clip0_5303_9128">
<rect width="24" height="24" fill="white"/>
</clipPath>
</defs>
</svg>
