<svg width="24" height="24" viewBox="0 0 24 24" fill="none" xmlns="http://www.w3.org/2000/svg">
<g clip-path="url(#clip0_5303_8898)">
<path d="M12.0002 23C18.0733 23 22.997 18.0763 22.997 12.0032C22.997 5.93016 18.0733 1.00647 12.0002 1.00647C5.92711 1.00647 1.00342 5.93016 1.00342 12.0032C1.00342 18.0763 5.92711 23 12.0002 23Z" fill="#FF808C"/>
<path fill-rule="evenodd" clip-rule="evenodd" d="M12.0002 5.29516C14.5443 5.29542 17.0095 6.17775 18.976 7.79183C20.9425 9.40591 22.2885 11.6519 22.7847 14.1471C23.1027 12.552 23.063 10.9063 22.6683 9.32845C22.2737 7.75061 21.5339 6.27995 20.5024 5.02245C19.4709 3.76495 18.1733 2.75191 16.7031 2.05635C15.2328 1.36078 13.6266 1 12.0002 1C10.3737 1 8.76754 1.36078 7.29733 2.05635C5.82711 2.75191 4.52949 3.76495 3.49797 5.02245C2.46645 6.27995 1.72671 7.75061 1.33206 9.32845C0.937406 10.9063 0.897667 12.552 1.2157 14.1471C1.71191 11.6519 3.05791 9.40591 5.02438 7.79183C6.99085 6.17775 9.45613 5.29542 12.0002 5.29516Z" fill="#FFBFC5"/>
<path d="M12.0002 23C18.0733 23 22.997 18.0763 22.997 12.0032C22.997 5.93016 18.0733 1.00647 12.0002 1.00647C5.92711 1.00647 1.00342 5.93016 1.00342 12.0032C1.00342 18.0763 5.92711 23 12.0002 23Z" stroke="#191919" stroke-linecap="round" stroke-linejoin="round"/>
<path d="M6.75781 2.33276C9.57803 4.47197 11.8643 7.23542 13.4375 10.4064C15.0106 13.5774 15.8278 17.0697 15.8249 20.6094C15.8249 21.1927 15.8039 21.7693 15.7608 22.3402" stroke="#191919" stroke-linecap="round" stroke-linejoin="round"/>
<path d="M20.2094 4.68701C15.9429 8.77584 10.2596 11.055 4.35018 11.047C3.25242 11.047 2.15561 10.9686 1.06836 10.8146" stroke="#191919" stroke-linecap="round" stroke-linejoin="round"/>
<path d="M3.45068 18.9178C7.72062 14.7999 13.4238 12.5025 19.3558 12.5109C20.5655 12.5176 21.7732 12.6066 22.9704 12.7749" stroke="#191919" stroke-linecap="round" stroke-linejoin="round"/>
</g>
<defs>
<clipPath id="clip0_5303_8898">
<rect width="24" height="24" fill="white"/>
</clipPath>
</defs>
</svg>
