<svg width="24" height="24" viewBox="0 0 24 24" fill="none" xmlns="http://www.w3.org/2000/svg">
<path d="M16.474 18.816L12 14.783L7.526 18.816L5.5 17.5V18.5L12 22.5L18.5 18.5V17.5L16.474 18.816Z" fill="#66E1FF"/>
<path d="M18.5 17.5V18.5L12 22.5L5.5 18.5V17.5" stroke="#191919" stroke-linecap="round" stroke-linejoin="round"/>
<path d="M5.5 9L1 12.5L7.5 17L12 13L5.5 9Z" fill="#66E1FF" stroke="#191919" stroke-linecap="round" stroke-linejoin="round"/>
<path d="M12 5L5.5 9L1 5.5L7.5 1.5L12 5Z" fill="#C2F3FF" stroke="#191919" stroke-linecap="round" stroke-linejoin="round"/>
<path d="M18.5 9L23 12.5L16.5 17L12 13L18.5 9Z" fill="#66E1FF" stroke="#191919" stroke-linecap="round" stroke-linejoin="round"/>
<path d="M12 5L18.5 9L23 5.5L16.5 1.5L12 5Z" fill="#C2F3FF" stroke="#191919" stroke-linecap="round" stroke-linejoin="round"/>
</svg>
