<svg width="24" height="24" viewBox="0 0 24 24" fill="none" xmlns="http://www.w3.org/2000/svg">
<path d="M19.174 1H4.82613C3.76958 1 2.91309 1.8565 2.91309 2.91304V21.087C2.91309 22.1435 3.76958 23 4.82613 23H19.174C20.2305 23 21.087 22.1435 21.087 21.087V2.91304C21.087 1.8565 20.2305 1 19.174 1Z" fill="#66E1FF"/>
<path d="M20.7857 1.89052C20.6136 1.61848 20.3757 1.39425 20.094 1.23858C19.8122 1.08292 19.4958 1.00086 19.174 1H4.82613C4.31876 1 3.83217 1.20155 3.47341 1.56032C3.11463 1.91908 2.91309 2.40568 2.91309 2.91304V19.7622L20.7857 1.89052Z" fill="#C2F3FF"/>
<path d="M19.174 1H4.82613C3.76958 1 2.91309 1.8565 2.91309 2.91304V21.087C2.91309 22.1435 3.76958 23 4.82613 23H19.174C20.2305 23 21.087 22.1435 21.087 21.087V2.91304C21.087 1.8565 20.2305 1 19.174 1Z" stroke="#191919" stroke-linecap="round" stroke-linejoin="round"/>
<path d="M7.69574 3.86957V6.73913H6.26095C5.88043 6.73913 5.51548 6.58796 5.24641 6.3189C4.97734 6.04983 4.82617 5.68487 4.82617 5.30435C4.82617 4.92383 4.97734 4.55888 5.24641 4.28981C5.51548 4.02074 5.88043 3.86957 6.26095 3.86957H7.69574Z" fill="#FF808C" stroke="#191919" stroke-linecap="round" stroke-linejoin="round"/>
<path d="M10.5654 5.30435C10.5654 5.68487 10.4142 6.04983 10.1452 6.3189C9.87606 6.58796 9.51111 6.73913 9.13058 6.73913H7.6958V3.86957H9.13058C9.51111 3.86957 9.87606 4.02074 10.1452 4.28981C10.4142 4.55888 10.5654 4.92383 10.5654 5.30435Z" fill="white" stroke="#191919" stroke-linecap="round" stroke-linejoin="round"/>
<path d="M16.3046 3.86957V6.73913H14.8698C14.4893 6.73913 14.1243 6.58796 13.8553 6.3189C13.5862 6.04983 13.4351 5.68487 13.4351 5.30435C13.4351 4.92383 13.5862 4.55888 13.8553 4.28981C14.1243 4.02074 14.4893 3.86957 14.8698 3.86957H16.3046Z" fill="#FF808C" stroke="#191919" stroke-linecap="round" stroke-linejoin="round"/>
<path d="M19.1738 5.30435C19.1738 5.68487 19.0226 6.04983 18.7536 6.3189C18.4845 6.58796 18.1195 6.73913 17.739 6.73913H16.3042V3.86957H17.739C18.1195 3.86957 18.4845 4.02074 18.7536 4.28981C19.0226 4.55888 19.1738 4.92383 19.1738 5.30435Z" fill="white" stroke="#191919" stroke-linecap="round" stroke-linejoin="round"/>
<path d="M10.5654 12C10.5654 12.3805 10.4142 12.7455 10.1452 13.0146C9.87606 13.2837 9.51111 13.4348 9.13058 13.4348H7.6958V10.5652H9.13058C9.51111 10.5652 9.87606 10.7163 10.1452 10.9854C10.4142 11.2545 10.5654 11.6195 10.5654 12Z" fill="white" stroke="#191919" stroke-linecap="round" stroke-linejoin="round"/>
<path d="M7.69574 10.5652V13.4348H6.26095C5.88043 13.4348 5.51548 13.2837 5.24641 13.0146C4.97734 12.7455 4.82617 12.3805 4.82617 12C4.82617 11.6195 4.97734 11.2545 5.24641 10.9854C5.51548 10.7163 5.88043 10.5652 6.26095 10.5652H7.69574Z" fill="#FF808C" stroke="#191919" stroke-linecap="round" stroke-linejoin="round"/>
<path d="M19.1738 12C19.1738 12.3805 19.0226 12.7455 18.7536 13.0146C18.4845 13.2837 18.1195 13.4348 17.739 13.4348H16.3042V10.5652H17.739C18.1195 10.5652 18.4845 10.7163 18.7536 10.9854C19.0226 11.2545 19.1738 11.6195 19.1738 12Z" fill="white" stroke="#191919" stroke-linecap="round" stroke-linejoin="round"/>
<path d="M16.3046 10.5652V13.4348H14.8698C14.4893 13.4348 14.1243 13.2837 13.8553 13.0146C13.5862 12.7455 13.4351 12.3805 13.4351 12C13.4351 11.6195 13.5862 11.2545 13.8553 10.9854C14.1243 10.7163 14.4893 10.5652 14.8698 10.5652H16.3046Z" fill="#FF808C" stroke="#191919" stroke-linecap="round" stroke-linejoin="round"/>
<path d="M7.69574 17.2609V20.1304H6.26095C5.88043 20.1304 5.51548 19.9793 5.24641 19.7102C4.97734 19.4412 4.82617 19.0762 4.82617 18.6956C4.82617 18.3151 4.97734 17.9501 5.24641 17.6811C5.51548 17.412 5.88043 17.2609 6.26095 17.2609H7.69574Z" fill="#FF808C" stroke="#191919" stroke-linecap="round" stroke-linejoin="round"/>
<path d="M10.5654 18.6956C10.5654 19.0762 10.4142 19.4412 10.1452 19.7102C9.87606 19.9793 9.51111 20.1304 9.13058 20.1304H7.6958V17.2609H9.13058C9.51111 17.2609 9.87606 17.412 10.1452 17.6811C10.4142 17.9501 10.5654 18.3151 10.5654 18.6956Z" fill="white" stroke="#191919" stroke-linecap="round" stroke-linejoin="round"/>
<path d="M19.1742 18.6956C19.1742 19.0762 19.0231 19.4412 18.754 19.7102C18.4849 19.9793 18.1199 20.1304 17.7394 20.1304H14.8698C14.4893 20.1304 14.1243 19.9793 13.8553 19.7102C13.5862 19.4412 13.4351 19.0762 13.4351 18.6956C13.4351 18.3151 13.5862 17.9501 13.8553 17.6811C14.1243 17.412 14.4893 17.2609 14.8698 17.2609H17.7394C18.1199 17.2609 18.4849 17.412 18.754 17.6811C19.0231 17.9501 19.1742 18.3151 19.1742 18.6956Z" fill="#808080" stroke="#191919" stroke-linecap="round" stroke-linejoin="round"/>
</svg>
