<svg width="24" height="24" viewBox="0 0 24 24" fill="none" xmlns="http://www.w3.org/2000/svg">
<path d="M21.6609 16.1427C20.2787 15.5105 18.7807 15.1706 17.2609 15.1441C16.0391 15.1593 14.8291 15.3858 13.6845 15.8136C15.1781 15.0364 16.5479 14.0412 17.7488 12.8609C19.3619 11.2131 20.6272 9.25776 21.4696 7.11123C19.3233 7.95267 17.3683 9.21743 15.7209 10.8302C14.4367 12.1419 13.3711 13.651 12.5644 15.3C13.4268 13.1171 13.8839 10.7954 13.9131 8.44845C13.8786 5.99309 13.3798 3.56643 12.443 1.29654C12.4069 1.20882 12.3456 1.13379 12.2669 1.08099C12.188 1.02819 12.0954 1 12.0006 1C11.9058 1 11.8131 1.02819 11.7343 1.08099C11.6555 1.13379 11.5942 1.20882 11.5582 1.29654C10.6205 3.5662 10.1214 5.99296 10.087 8.44845C10.1177 10.7953 10.5751 13.1169 11.4367 15.3C10.6311 13.6504 9.56529 12.1412 8.28017 10.8302C6.92607 9.50634 5.36286 8.41497 3.65348 7.60002C3.56419 7.55721 3.46382 7.54318 3.36621 7.55986C3.26861 7.57653 3.17858 7.62309 3.10857 7.6931C3.03856 7.76312 2.99199 7.85314 2.97532 7.95074C2.95865 8.04835 2.97267 8.14872 3.01548 8.23801C3.83254 9.94621 4.9255 11.5081 6.25043 12.8609C7.45187 14.0406 8.8219 15.0355 10.3156 15.8127C9.17091 15.3854 7.96101 15.1589 6.73921 15.1431C5.21945 15.1696 3.7215 15.5096 2.33922 16.1417C2.25518 16.1795 2.18384 16.2408 2.1338 16.3182C2.08376 16.3956 2.05713 16.4858 2.05713 16.5779C2.05713 16.6701 2.08376 16.7602 2.1338 16.8376C2.18384 16.915 2.25518 16.9763 2.33922 17.0141C3.72136 17.6467 5.21939 17.9867 6.73921 18.0127C7.92979 17.9996 9.10956 17.7851 10.2286 17.3785C9.64219 17.7186 9.10127 18.1316 8.61878 18.6076C7.95476 19.2874 7.4099 20.0742 7.00704 20.9349C6.96457 21.0241 6.9508 21.1243 6.96762 21.2217C6.98445 21.3192 7.03103 21.4089 7.10098 21.4788C7.17092 21.5487 7.2608 21.595 7.35822 21.6118C7.45565 21.6284 7.55584 21.6146 7.64504 21.5719C8.50579 21.1701 9.29232 20.6255 9.9713 19.9611C10.5639 20.3825 11.2729 20.6089 12.0001 20.6089C12.7272 20.6089 13.4363 20.3825 14.0289 19.9611C14.708 20.6251 15.4941 21.17 16.3542 21.5729C16.4434 21.6157 16.5438 21.6297 16.6414 21.613C16.7391 21.5964 16.8291 21.5498 16.8991 21.4798C16.9691 21.4098 17.0156 21.3198 17.0323 21.2221C17.049 21.1245 17.0349 21.0242 16.9922 20.9349C16.5896 20.0746 16.045 19.2881 15.3814 18.6086C14.8995 18.1335 14.3599 17.7206 13.7754 17.3795C14.893 17.7866 16.0716 18.001 17.2609 18.0136C18.7808 17.9877 20.2788 17.6477 21.6609 17.015C21.745 16.9773 21.8163 16.9159 21.8664 16.8386C21.9164 16.7612 21.943 16.6711 21.943 16.5789C21.943 16.4867 21.9164 16.3965 21.8664 16.3192C21.8163 16.2418 21.745 16.1805 21.6609 16.1427Z" fill="#C9F7CA"/>
<path d="M19.652 17.7075C19.6069 16.8938 19.4316 16.0926 19.1326 15.3344C18.5166 15.21 17.89 15.1459 17.2616 15.1431C16.0398 15.1583 14.8298 15.3848 13.6852 15.8127C15.1322 15.0542 16.4631 14.0923 17.6376 12.9565C16.9818 12.245 16.1978 11.6635 15.3266 11.2424C14.2191 12.4571 13.2882 13.8218 12.5613 15.2962C13.1401 13.8121 13.5414 12.2649 13.757 10.6867C12.6023 10.406 11.3973 10.406 10.2427 10.6867C10.4588 12.2646 10.8595 13.8117 11.4364 15.2962C10.7109 13.8215 9.78059 12.4567 8.67305 11.2424C7.80188 11.6635 7.01788 12.245 6.36209 12.9565C7.53732 14.0902 8.86855 15.05 10.3154 15.8069C9.17066 15.3797 7.96075 15.1531 6.73896 15.1374C6.11057 15.1401 5.48396 15.2042 4.868 15.3287C4.56852 16.0887 4.39283 16.8918 4.34766 17.7075C5.12943 17.9059 5.93241 18.0088 6.73896 18.0136C7.92953 18.0005 9.10931 17.7861 10.2283 17.3795C9.64193 17.7195 9.10101 18.1324 8.61852 18.6086C7.95459 19.2881 7.40974 20.0745 7.00679 20.9348C6.96432 21.0241 6.95055 21.1243 6.96737 21.2217C6.98419 21.3191 7.03077 21.4089 7.10072 21.4787C7.17067 21.5486 7.26054 21.595 7.35796 21.6118C7.45539 21.6284 7.55559 21.6145 7.64478 21.5719C8.50554 21.1701 9.29207 20.6254 9.97104 19.9611C10.5636 20.3825 11.2727 20.6089 11.9998 20.6089C12.727 20.6089 13.436 20.3825 14.0286 19.9611C14.7077 20.6251 15.4938 21.17 16.3539 21.5728C16.4432 21.6156 16.5436 21.6297 16.6412 21.613C16.7388 21.5963 16.8288 21.5498 16.8988 21.4798C16.9689 21.4098 17.0153 21.3198 17.0321 21.2221C17.0487 21.1245 17.0347 21.0241 16.9919 20.9348C16.5893 20.0746 16.0448 19.2881 15.3811 18.6086C14.8992 18.1335 14.3597 17.7206 13.7751 17.3795C14.8927 17.7866 16.0714 18.001 17.2607 18.0136C18.0672 18.0088 18.8702 17.9059 19.652 17.7075Z" fill="#78EB7B"/>
<path d="M11.9995 23V20.405" stroke="#191919" stroke-linecap="round" stroke-linejoin="round"/>
<path d="M14.0289 19.9611C14.708 20.6251 15.4941 21.17 16.3542 21.5729C16.4434 21.6157 16.5438 21.6297 16.6414 21.613C16.7391 21.5964 16.8291 21.5498 16.8991 21.4798C16.9691 21.4098 17.0156 21.3198 17.0323 21.2221C17.049 21.1245 17.0349 21.0242 16.9922 20.9349C16.5894 20.0747 16.0448 19.2883 15.3814 18.6086C14.8995 18.1335 14.3599 17.7206 13.7754 17.3795C14.893 17.7866 16.0716 18.001 17.2609 18.0136C18.7808 17.9877 20.2788 17.6477 21.6609 17.015C21.745 16.9773 21.8163 16.9159 21.8664 16.8386C21.9164 16.7612 21.943 16.6711 21.943 16.5789C21.943 16.4867 21.9164 16.3965 21.8664 16.3192C21.8163 16.2418 21.745 16.1805 21.6609 16.1427C20.2787 15.5105 18.7807 15.1706 17.2609 15.1441C16.0391 15.1593 14.8291 15.3858 13.6845 15.8136C15.1782 15.0364 16.548 14.0413 17.7488 12.8609C19.3616 11.2129 20.6269 9.25761 21.4696 7.11123C19.3233 7.95267 17.3683 9.21743 15.7209 10.8302C14.4367 12.1419 13.3711 13.651 12.5644 15.3C13.4269 13.1172 13.8839 10.7954 13.9131 8.44845C13.8786 5.99309 13.3798 3.56643 12.443 1.29654C12.4069 1.20882 12.3456 1.13379 12.2669 1.08099C12.188 1.02819 12.0954 1 12.0006 1C11.9058 1 11.8131 1.02819 11.7343 1.08099C11.6555 1.13379 11.5942 1.20882 11.5582 1.29654C10.6205 3.5662 10.1214 5.99296 10.087 8.44845C10.1176 10.7953 10.575 13.1169 11.4367 15.3C10.6311 13.6504 9.56529 12.1412 8.28017 10.8302C6.92607 9.50634 5.36286 8.41497 3.65348 7.60002C3.56419 7.55721 3.46382 7.54318 3.36621 7.55986C3.26861 7.57653 3.17858 7.62309 3.10857 7.6931C3.03856 7.76312 2.99199 7.85314 2.97532 7.95074C2.95865 8.04835 2.97267 8.14872 3.01548 8.23801C3.83281 9.94605 4.92574 11.5079 6.25043 12.8609C7.45187 14.0404 8.8219 15.0349 10.3156 15.8117C9.17091 15.3845 7.96101 15.1579 6.73921 15.1422C5.21945 15.1687 3.7215 15.5086 2.33922 16.1408C2.25518 16.1786 2.18384 16.2399 2.1338 16.3173C2.08376 16.3946 2.05713 16.4848 2.05713 16.5769C2.05713 16.6692 2.08376 16.7593 2.1338 16.8366C2.18384 16.914 2.25518 16.9753 2.33922 17.0131C3.72136 17.6458 5.21939 17.9857 6.73921 18.0117C7.92978 17.9985 9.10953 17.7842 10.2286 17.3776C9.64219 17.7176 9.10127 18.1306 8.61878 18.6067C7.95488 19.287 7.41004 20.074 7.00704 20.9349C6.96457 21.0241 6.9508 21.1243 6.96762 21.2217C6.98445 21.3192 7.03103 21.4089 7.10098 21.4788C7.17092 21.5487 7.2608 21.595 7.35822 21.6118C7.45565 21.6284 7.55584 21.6146 7.64504 21.5719C8.50579 21.1701 9.29232 20.6255 9.9713 19.9611" stroke="#191919" stroke-linecap="round" stroke-linejoin="round"/>
</svg>
