<svg width="24" height="24" viewBox="0 0 24 24" fill="none" xmlns="http://www.w3.org/2000/svg">
<g clip-path="url(#clip0_5303_7241)">
<path d="M14.7373 22.045H9.26221L9.49177 21.6757C10.1732 20.6458 10.5666 19.4522 10.631 18.2189H13.3686C13.4329 19.4522 13.8263 20.6458 14.5078 21.6757L14.7373 22.045Z" fill="#E3E3E3" stroke="#191919" stroke-linecap="round" stroke-linejoin="round"/>
<path d="M7.69531 22.0448H16.304" stroke="#191919" stroke-linecap="round" stroke-linejoin="round"/>
<path d="M23 15.3464V17.2595C23 17.5131 22.8992 17.7565 22.7198 17.9358C22.5405 18.1152 22.2971 18.216 22.0435 18.216H1.95652C1.70283 18.216 1.45954 18.1152 1.28016 17.9358C1.10078 17.7565 1 17.5131 1 17.2595V15.3464H23Z" fill="white" stroke="#191919" stroke-linecap="round" stroke-linejoin="round"/>
<path d="M23 2.9116V15.3464H1V2.9116C1 2.65791 1.10078 2.41462 1.28016 2.23523C1.45954 2.05585 1.70283 1.95508 1.95652 1.95508H22.0435C22.1691 1.95508 22.2935 1.97981 22.4095 2.02789C22.5256 2.07595 22.631 2.14641 22.7198 2.23523C22.8087 2.32406 22.8791 2.4295 22.9272 2.54555C22.9752 2.6616 23 2.78599 23 2.9116Z" fill="#66E1FF"/>
<path d="M1.95652 1.95508C1.70283 1.95508 1.45954 2.05585 1.28016 2.23523C1.10078 2.41462 1 2.65791 1 2.9116V14.3899H1.04783L13.4826 1.95508H1.95652Z" fill="#C2F3FF"/>
<path d="M23 2.9116V15.3464H1V2.9116C1 2.65791 1.10078 2.41462 1.28016 2.23523C1.45954 2.05585 1.70283 1.95508 1.95652 1.95508H22.0435C22.1691 1.95508 22.2935 1.97981 22.4095 2.02789C22.5256 2.07595 22.631 2.14641 22.7198 2.23523C22.8087 2.32406 22.8791 2.4295 22.9272 2.54555C22.9752 2.6616 23 2.78599 23 2.9116Z" stroke="#191919" stroke-linecap="round" stroke-linejoin="round"/>
<path d="M17.261 8.65348L16.4853 5.55244C16.4336 5.34542 16.3142 5.1616 16.1462 5.03022C15.978 4.89884 15.7708 4.82745 15.5574 4.82739H13.4349C13.4349 5.20793 13.2838 5.57287 13.0147 5.84194C12.7456 6.11102 12.3806 6.26218 12.0001 6.26218C11.6196 6.26218 11.2546 6.11102 10.9855 5.84194C10.7165 5.57287 10.5653 5.20793 10.5653 4.82739H8.44282C8.22946 4.82745 8.02224 4.89884 7.85412 5.03022C7.686 5.1616 7.56663 5.34542 7.515 5.55244L6.73926 8.65348H8.6523V12.4796H15.348V8.65348H17.261Z" fill="#FFF9BF"/>
<path d="M12.0001 7.87871C10.3348 7.90201 8.69139 7.49758 7.22708 6.7041L6.73926 8.65349H8.6523V12.4796H15.348V8.65349H17.261L16.7732 6.7041C15.3088 7.49758 13.6654 7.90201 12.0001 7.87871Z" fill="#FFEF5E"/>
<path d="M17.261 8.65348L16.4853 5.55244C16.4336 5.34542 16.3142 5.1616 16.1462 5.03022C15.978 4.89884 15.7708 4.82745 15.5574 4.82739H13.4349C13.4349 5.20793 13.2838 5.57287 13.0147 5.84194C12.7456 6.11102 12.3806 6.26218 12.0001 6.26218C11.6196 6.26218 11.2546 6.11102 10.9855 5.84194C10.7165 5.57287 10.5653 5.20793 10.5653 4.82739H8.44282C8.22946 4.82745 8.02224 4.89884 7.85412 5.03022C7.686 5.1616 7.56663 5.34542 7.515 5.55244L6.73926 8.65348H8.6523V12.4796H15.348V8.65348H17.261Z" stroke="#191919" stroke-linecap="round" stroke-linejoin="round"/>
</g>
<defs>
<clipPath id="clip0_5303_7241">
<rect width="24" height="24" fill="white"/>
</clipPath>
</defs>
</svg>
