<svg width="24" height="24" viewBox="0 0 24 24" fill="none" xmlns="http://www.w3.org/2000/svg">
<g clip-path="url(#clip0_5303_7183)">
<path d="M18.9483 17L18.1053 8.99211C18.0757 8.71965 17.9466 8.46773 17.7426 8.28465C17.5387 8.10157 17.2744 8.00024 17.0003 8.00012H7.00046C6.72681 8.00155 6.46329 8.10385 6.26034 8.28743C6.05739 8.47101 5.92927 8.72297 5.90048 8.99511L5.05249 17C5.01806 17.3322 5.0007 17.666 5.00049 18C5.00049 18.5304 5.2112 19.0391 5.58627 19.4142C5.96134 19.7893 6.47004 20 7.00046 20H17.0003C17.5307 20 18.0394 19.7893 18.4145 19.4142C18.7896 19.0391 19.0003 18.5304 19.0003 18C19.0006 17.666 18.9832 17.3322 18.9483 17Z" fill="#FFEF5E"/>
<path d="M17.0003 8.00012H7.00046C6.72697 8.00153 6.46358 8.10368 6.26065 8.28706C6.05772 8.47043 5.9295 8.72215 5.90048 8.99411L5.05249 17C5.01806 17.3322 5.0007 17.666 5.00049 18C5.00042 18.2655 5.05347 18.5284 5.15651 18.7731C5.25955 19.0178 5.4105 19.2395 5.60048 19.425L17.0213 8.00012H17.0003Z" fill="#FFF9BF"/>
<path d="M18.9483 17L18.1053 8.99211C18.0757 8.71965 17.9466 8.46773 17.7426 8.28465C17.5387 8.10157 17.2744 8.00024 17.0003 8.00012H7.00046C6.72681 8.00155 6.46329 8.10385 6.26034 8.28743C6.05739 8.47101 5.92927 8.72297 5.90048 8.99511L5.05249 17C5.01806 17.3322 5.0007 17.666 5.00049 18C5.00049 18.5304 5.2112 19.0391 5.58627 19.4142C5.96134 19.7893 6.47004 20 7.00046 20H17.0003C17.5307 20 18.0394 19.7893 18.4145 19.4142C18.7896 19.0391 19.0003 18.5304 19.0003 18C19.0006 17.666 18.9832 17.3322 18.9483 17Z" stroke="#191919" stroke-linecap="round" stroke-linejoin="round"/>
<path d="M1 3.00009V2.00011C1 1.73489 1.10536 1.48055 1.29289 1.29301C1.48042 1.10548 1.73477 1.00012 1.99999 1.00012H2.99997" stroke="#191919" stroke-linecap="round" stroke-linejoin="round"/>
<path d="M1 20.9999V21.9999C1 22.2651 1.10536 22.5195 1.29289 22.707C1.48042 22.8945 1.73477 22.9999 1.99999 22.9999H2.99997" stroke="#191919" stroke-linecap="round" stroke-linejoin="round"/>
<path d="M21 1.00012H22C22.2652 1.00012 22.5196 1.10548 22.7071 1.29301C22.8946 1.48055 23 1.73489 23 2.00011V3.00009" stroke="#191919" stroke-linecap="round" stroke-linejoin="round"/>
<path d="M23 20.9999V21.9999C23 22.2651 22.8946 22.5195 22.7071 22.707C22.5196 22.8945 22.2652 22.9999 22 22.9999H21" stroke="#191919" stroke-linecap="round" stroke-linejoin="round"/>
<path d="M12 22.9999V21.9999" stroke="#191919" stroke-linecap="round" stroke-linejoin="round"/>
<path d="M1 12H1.99999" stroke="#191919" stroke-linecap="round" stroke-linejoin="round"/>
<path d="M22.9995 12H21.9995" stroke="#191919" stroke-linecap="round" stroke-linejoin="round"/>
<path d="M12 1.00012V2.00011" stroke="#191919" stroke-linecap="round" stroke-linejoin="round"/>
<path d="M13.9999 12H10.842C10.6372 12.0018 10.4401 12.0782 10.2875 12.2148C10.1348 12.3513 10.0372 12.5388 10.0127 12.7421C9.98817 12.9455 10.0385 13.1508 10.1543 13.3197C10.2702 13.4886 10.4435 13.6096 10.642 13.66L13.366 14.34C13.5645 14.3904 13.7377 14.5114 13.8536 14.6803C13.9694 14.8492 14.0197 15.0545 13.9952 15.2579C13.9707 15.4612 13.8731 15.6487 13.7204 15.7851C13.5679 15.9217 13.3708 15.9981 13.166 15.9999H10" stroke="#191919" stroke-linecap="round" stroke-linejoin="round"/>
<path d="M12 12.0001V11.0001" stroke="#191919" stroke-linecap="round" stroke-linejoin="round"/>
<path d="M12 16.9999V15.9999" stroke="#191919" stroke-linecap="round" stroke-linejoin="round"/>
<path d="M9 10V7.00008C9 6.20444 9.31607 5.44139 9.87867 4.87879C10.4413 4.31619 11.2044 4.00012 12 4.00012C12.7955 4.00012 13.5586 4.31619 14.1212 4.87879C14.6838 5.44139 14.9999 6.20444 14.9999 7.00008V10" stroke="#191919" stroke-linecap="round" stroke-linejoin="round"/>
</g>
<defs>
<clipPath id="clip0_5303_7183">
<rect width="24" height="24" fill="white"/>
</clipPath>
</defs>
</svg>
