<svg width="24" height="24" viewBox="0 0 24 24" fill="none" xmlns="http://www.w3.org/2000/svg">
<g clip-path="url(#clip0_5303_7273)">
<path d="M21.0901 1.95544H2.00543C1.45069 1.95544 1.00098 2.40516 1.00098 2.9599V16.0178C1.00098 16.5726 1.45069 17.0223 2.00543 17.0223H21.0901C21.6449 17.0223 22.0946 16.5726 22.0946 16.0178V2.9599C22.0946 2.40516 21.6449 1.95544 21.0901 1.95544Z" fill="#66E1FF"/>
<path d="M2.00543 1.95544C1.73903 1.95544 1.48355 2.06127 1.29517 2.24964C1.10681 2.43802 1.00098 2.6935 1.00098 2.9599V16.0178C1.00271 16.1692 1.03922 16.3181 1.10767 16.4531C1.17611 16.5881 1.27467 16.7055 1.39573 16.7963L16.2366 1.95544H2.00543Z" fill="#C2F3FF"/>
<path d="M13.5559 7.98218L11.8815 13.0045H6.85922L5.35254 7.98218H13.5559Z" fill="#FF808C" stroke="#191919" stroke-linecap="round" stroke-linejoin="round"/>
<path d="M6.85938 7.98209L8.36606 5.47095" stroke="#191919" stroke-linecap="round" stroke-linejoin="round"/>
<path d="M11.8817 7.98209L10.375 5.47095" stroke="#191919" stroke-linecap="round" stroke-linejoin="round"/>
<path d="M15.966 22.0445L12.8923 17.432C11.6719 15.5688 14.6893 14.941 16.0765 18.0468V9.99103C16.0765 9.72463 16.1823 9.46914 16.3707 9.28077C16.559 9.0924 16.8145 8.98657 17.0809 8.98657C17.3473 8.98657 17.6028 9.0924 17.7912 9.28077C17.9795 9.46914 18.0854 9.72463 18.0854 9.99103V14.7662L22.07 15.9173C22.3864 16.0094 22.6556 16.2192 22.8225 16.5034C22.9892 16.7877 23.041 17.125 22.967 17.4461L22.8816 17.8147L22.1132 22.0445" fill="#FFDDA1"/>
<path d="M15.966 22.0445L12.8923 17.432C11.6719 15.5688 14.6893 14.941 16.0765 18.0468V9.99103C16.0765 9.72463 16.1823 9.46914 16.3707 9.28077C16.559 9.0924 16.8145 8.98657 17.0809 8.98657C17.3473 8.98657 17.6028 9.0924 17.7912 9.28077C17.9795 9.46914 18.0854 9.72463 18.0854 9.99103V14.7662L22.07 15.9173C22.3864 16.0094 22.6556 16.2192 22.8225 16.5034C22.9892 16.7877 23.041 17.125 22.967 17.4461L22.8816 17.8147L22.1132 22.0445" stroke="#191919" stroke-linecap="round" stroke-linejoin="round"/>
<path d="M11.0446 17.0223H2.00446C1.73805 17.0223 1.48257 16.9164 1.2942 16.7281C1.10583 16.5397 1 16.2842 1 16.0178V2.9599C1 2.6935 1.10583 2.43802 1.2942 2.24964C1.48257 2.06127 1.73805 1.95544 2.00446 1.95544H21.0891C21.3555 1.95544 21.611 2.06127 21.7994 2.24964C21.9877 2.43802 22.0936 2.6935 22.0936 2.9599V14.0089" stroke="#191919" stroke-linecap="round" stroke-linejoin="round"/>
<path d="M6.52441 20.0356H11.5467" stroke="#191919" stroke-linecap="round" stroke-linejoin="round"/>
<path d="M10.041 17.0223V20.0357" stroke="#191919" stroke-linecap="round" stroke-linejoin="round"/>
</g>
<defs>
<clipPath id="clip0_5303_7273">
<rect width="24" height="24" fill="white"/>
</clipPath>
</defs>
</svg>
