<svg width="24" height="24" viewBox="0 0 24 24" fill="none" xmlns="http://www.w3.org/2000/svg">
<path d="M16.2412 6.73914L10.8235 15.3478H4.88631L6.25326 12.4783H9.94729L11.2884 10.5652H3.05272L1.71163 12.4783H3.68207L1 17.2609H12.0546L16.2412 10.5834L17.7736 13.4348H16.4593L15.1192 15.3478H19.1146L20.4557 17.2609H23L16.2412 6.73914Z" fill="#808080"/>
<path d="M14.4618 6.73914H5.73356L4.39258 8.65218H13.1217L14.4618 6.73914Z" fill="#B2B2B2"/>
<path d="M16.2412 6.73914L10.8235 15.3478H4.88543L6.25326 12.4783H9.94729L11.2864 10.5652H3.05272L1.71358 12.4783H3.67826L1 17.2609H12.0546L16.2412 10.5834L17.7716 13.4348H16.4593L15.1202 15.3478H19.1155L20.4547 17.2609H23L16.2412 6.73914ZM14.4621 6.73914H5.73381L4.39468 8.65218H13.1239L14.4621 6.73914Z" stroke="#191919" stroke-linecap="round" stroke-linejoin="round"/>
</svg>
