<svg width="24" height="24" viewBox="0 0 24 24" fill="none" xmlns="http://www.w3.org/2000/svg">
<g clip-path="url(#clip0_5303_12978)">
<mask id="mask0_5303_12978" style="mask-type:luminance" maskUnits="userSpaceOnUse" x="0" y="0" width="24" height="24">
<path d="M0 0H24V24H0V0Z" fill="white"/>
</mask>
<g mask="url(#mask0_5303_12978)">
<path d="M13.8699 3.8728C13.1431 2.89366 12.1763 2.11822 11.0627 1.62117C9.94918 1.12412 8.72639 0.922217 7.51217 1.0349C5.97601 1.21488 4.53542 1.87359 3.39441 2.91774C2.2534 3.9619 1.46982 5.33856 1.15465 6.85277C0.839467 8.36697 1.00867 9.94196 1.63829 11.3546C2.26791 12.7674 3.32603 13.9462 4.66279 14.7242C5.32076 15.0999 5.87209 15.6371 6.26472 16.2851C6.65735 16.9331 6.87829 17.6705 6.90671 18.4277V18.509C6.94073 19.217 7.13403 19.9081 7.4722 20.5311C7.81037 21.154 8.28471 21.6927 8.8599 22.1069C9.43509 22.5212 10.0963 22.8003 10.7943 22.9236C11.4924 23.0468 12.2092 23.0111 12.8914 22.8189C13.7947 22.5472 14.597 22.0134 15.1964 21.285C15.7958 20.5566 16.1654 19.6667 16.2583 18.728L15.649 14.0575" fill="#FFDDA1"/>
<path d="M7.51287 5.0378C9.10692 4.89774 10.702 5.29539 12.0438 6.16736C13.3854 7.03932 14.3966 8.33539 14.9161 9.84893L13.8706 3.8728C13.1438 2.89366 12.177 2.11822 11.0634 1.62117C9.94989 1.12412 8.7271 0.922217 7.51287 1.0349C5.71298 1.24162 4.05284 2.10577 2.85104 3.4615C1.64923 4.81723 0.990454 6.56903 1.0011 8.38073C1.00559 9.04717 1.09855 9.71007 1.27753 10.3521C1.66773 8.94507 2.47009 7.68708 3.58133 6.73999C4.69257 5.7929 6.06183 5.20007 7.51287 5.0378Z" fill="#FFF9BF"/>
<path d="M13.8699 3.8728C13.1431 2.89366 12.1763 2.11822 11.0627 1.62117C9.94918 1.12412 8.72639 0.922217 7.51217 1.0349C5.97601 1.21488 4.53542 1.87359 3.39441 2.91774C2.2534 3.9619 1.46982 5.33857 1.15465 6.85277C0.839467 8.36697 1.00867 9.94196 1.63829 11.3546C2.26791 12.7674 3.32603 13.9462 4.66279 14.7242C5.32076 15.0999 5.87209 15.6371 6.26472 16.2851C6.65735 16.9331 6.87829 17.6705 6.90671 18.4277V18.509C6.94073 19.217 7.13403 19.9081 7.4722 20.5311C7.81037 21.154 8.28471 21.6927 8.8599 22.1069C9.43509 22.5212 10.0963 22.8003 10.7943 22.9236C11.4924 23.0468 12.2092 23.0111 12.8914 22.8189C13.7947 22.5472 14.597 22.0134 15.1964 21.285C15.7958 20.5566 16.1654 19.6667 16.2583 18.728L15.649 14.0575" stroke="#191919" stroke-linecap="round" stroke-linejoin="round"/>
<path d="M10.4089 4.84179C9.9066 4.58436 9.35377 4.44077 8.7897 4.42125C8.22563 4.40171 7.66419 4.50674 7.14532 4.72882C6.62645 4.95091 6.16289 5.28461 5.78762 5.70619C5.41235 6.12776 5.1346 6.62686 4.97412 7.16797" stroke="#191919" stroke-linecap="round" stroke-linejoin="round"/>
<path d="M7.90515 7.66345C7.39236 8.06566 6.97783 8.57928 6.69296 9.16541C6.40809 9.75156 6.26036 10.3949 6.26094 11.0465C6.24408 11.9693 6.53714 12.8708 7.09324 13.6073C7.64934 14.3437 8.43636 14.8724 9.3284 15.1087C9.65079 15.1933 9.94093 15.3714 10.1623 15.6206C10.3835 15.8697 10.526 16.179 10.5718 16.509C10.6208 16.9968 10.8551 17.4473 11.2265 17.7673C11.598 18.0873 12.078 18.2525 12.5676 18.2288C13.0574 18.2052 13.5192 17.9944 13.858 17.64C14.1968 17.2856 14.3866 16.8147 14.3882 16.3244" stroke="#191919" stroke-linecap="round" stroke-linejoin="round"/>
<path d="M10.5751 7.14204C9.87316 7.83007 9.41507 8.72845 9.27043 9.70065C9.25055 9.84697 9.26481 9.99591 9.3121 10.1358C9.35939 10.2757 9.43843 10.4027 9.54303 10.507L11.9448 12.9087C12.049 13.013 12.176 13.0918 12.3156 13.1389C12.4553 13.186 12.6041 13.2002 12.7501 13.1804C13.7224 13.0365 14.6209 12.5786 15.3087 11.8767C15.5913 11.588 15.8365 11.2651 16.0385 10.9154L20.5503 15.4272C20.6835 15.5604 20.8416 15.6661 21.0157 15.7383C21.1898 15.8104 21.3763 15.8476 21.5647 15.8476C21.7532 15.8477 21.9398 15.8106 22.1139 15.7385C22.288 15.6665 22.4462 15.5608 22.5795 15.4276C22.7127 15.2944 22.8185 15.1363 22.8906 14.9622C22.9627 14.7881 22.9999 14.6015 22.9999 14.4131C23 14.2247 22.9629 14.0381 22.8909 13.864C22.8188 13.6899 22.7132 13.5317 22.58 13.3984L15.8166 6.63511C14.5091 5.32759 12.1619 5.55523 10.5751 7.14204Z" fill="#E3E3E3"/>
<path d="M9.57555 10.5395C9.8069 9.97815 10.1466 9.46788 10.5751 9.0378C12.1619 7.45003 14.5091 7.22048 15.8166 8.52991L22.58 15.2932C22.6 15.3133 22.6058 15.3401 22.6249 15.3612C22.8695 15.0903 23.0011 14.7361 22.9928 14.3713C22.9844 14.0065 22.8367 13.6587 22.58 13.3994L15.8166 6.63511C14.5091 5.32759 12.1619 5.55523 10.5751 7.14204C9.87316 7.83007 9.41507 8.72845 9.27043 9.70065C9.25055 9.84697 9.26481 9.99591 9.3121 10.1358C9.35939 10.2757 9.43843 10.4027 9.54303 10.507L9.57555 10.5395Z" fill="white"/>
<path d="M10.5751 7.14204C9.87316 7.83007 9.41507 8.72845 9.27043 9.70065C9.25055 9.84697 9.26481 9.99591 9.3121 10.1358C9.35939 10.2757 9.43843 10.4027 9.54303 10.507L11.9448 12.9087C12.049 13.013 12.176 13.0918 12.3156 13.1389C12.4553 13.186 12.6041 13.2002 12.7501 13.1804C13.7224 13.0365 14.6209 12.5786 15.3087 11.8767C15.5913 11.588 15.8365 11.2651 16.0385 10.9154L20.5503 15.4272C20.6835 15.5604 20.8416 15.6661 21.0157 15.7383C21.1898 15.8104 21.3763 15.8476 21.5647 15.8476C21.7532 15.8477 21.9398 15.8106 22.1139 15.7385C22.288 15.6665 22.4462 15.5608 22.5795 15.4276C22.7127 15.2944 22.8185 15.1363 22.8906 14.9622C22.9627 14.7881 22.9999 14.6015 22.9999 14.4131C23 14.2247 22.9629 14.0381 22.8909 13.864C22.8188 13.6899 22.7132 13.5317 22.58 13.3984L15.8166 6.63511C14.5091 5.32759 12.1619 5.55523 10.5751 7.14204Z" stroke="#191919" stroke-linecap="round" stroke-linejoin="round"/>
<path d="M12.2557 10.4162C12.1236 10.4162 12.0166 10.3092 12.0166 10.1771C12.0166 10.045 12.1236 9.93799 12.2557 9.93799" stroke="#191919"/>
<path d="M12.2554 10.4162C12.3875 10.4162 12.4945 10.3092 12.4945 10.1771C12.4945 10.045 12.3875 9.93799 12.2554 9.93799" stroke="#191919"/>
</g>
</g>
<defs>
<clipPath id="clip0_5303_12978">
<rect width="24" height="24" fill="white"/>
</clipPath>
</defs>
</svg>
