<svg width="24" height="24" viewBox="0 0 24 24" fill="none" xmlns="http://www.w3.org/2000/svg">
<g clip-path="url(#clip0_5303_9448)">
<mask id="mask0_5303_9448" style="mask-type:luminance" maskUnits="userSpaceOnUse" x="0" y="0" width="24" height="24">
<path d="M0 0H24V24H0V0Z" fill="white"/>
</mask>
<g mask="url(#mask0_5303_9448)">
<path d="M12.0037 22.9589C18.066 22.9589 22.9807 18.044 22.9807 11.9819C22.9807 5.91976 18.066 1.00488 12.0037 1.00488C5.94154 1.00488 1.02686 5.91966 1.02686 11.9819C1.02686 18.0441 5.94163 22.9589 12.0037 22.9589Z" fill="#66E1FF"/>
<path d="M3.89067 13.9052C3.88921 5.88986 12.2 0.575722 19.4751 3.94C13.2818 -1.80857 3.18789 1.30295 1.30612 9.5408C0.151381 14.5956 2.69122 19.7691 7.39658 21.947C5.15811 19.8723 3.88736 16.9573 3.89067 13.9052Z" fill="#C2F3FF"/>
<path d="M12.3917 5.61996C11.7603 7.04032 12.7999 8.64021 14.3542 8.64011H14.7665C15.7253 8.63884 16.621 9.11759 17.1529 9.91534L19.27 13.0929C19.802 13.8903 20.6976 14.3686 21.6563 14.3672H22.7263C23.5254 10.7628 22.4616 6.99795 19.8942 4.34473H14.358C13.5078 4.34347 12.7367 4.84286 12.3917 5.61996Z" fill="#78EB7B"/>
<path d="M8.90917 17.372L10.2101 15.9096C11.2184 14.7762 11.1677 13.0531 10.0947 11.9809L9.02459 10.9109C8.4877 10.3732 7.75901 10.0711 6.99915 10.0709H1.19282C0.273411 15.2937 3.21505 20.428 8.18564 22.2763V19.2753C8.18574 18.574 8.44318 17.8961 8.90917 17.372Z" fill="#78EB7B"/>
<path d="M3.89007 13.9052C3.8887 12.5966 4.12179 11.2983 4.57823 10.0719H1.19262C0.329998 14.9787 2.87627 19.852 7.39695 21.946C5.15809 19.8719 3.88685 16.9572 3.89007 13.9052Z" fill="#C9F7CA"/>
<path d="M14.3998 22.7259C6.15342 24.5703 -0.997199 16.7962 1.52862 8.73246C4.05443 0.668761 14.3623 -1.63682 20.0829 4.58251C21.8353 6.48775 22.858 8.95094 22.9703 11.537" stroke="#191919" stroke-linecap="round" stroke-linejoin="round"/>
<path d="M10.2105 15.9383L8.90956 17.4016C8.44357 17.9257 8.18604 18.6026 8.18604 19.3039V22.305" stroke="#191919" stroke-linecap="round" stroke-linejoin="round"/>
<path d="M1.19189 10.1024H6.9992C7.75876 10.1021 8.48735 10.4035 9.02464 10.9405L10.0947 12.0115" stroke="#191919" stroke-linecap="round" stroke-linejoin="round"/>
<path d="M19.8887 4.37531H14.3525C12.6993 4.37521 11.666 6.16494 12.4926 7.5967C12.8762 8.26129 13.5852 8.67059 14.3525 8.67059H14.7648C15.1267 8.67069 15.4852 8.73936 15.8215 8.873" stroke="#191919" stroke-linecap="round" stroke-linejoin="round"/>
<path d="M18.8653 16.7602C18.8572 17.8167 17.7083 18.4684 16.7974 17.933C15.8863 17.3978 15.8965 16.0771 16.8156 15.5558C17.022 15.4387 17.2554 15.3771 17.4926 15.377C18.2571 15.3717 18.8766 15.9959 18.8653 16.7602Z" stroke="#191919" stroke-linecap="round" stroke-linejoin="round"/>
<path d="M21.7083 17.3749C21.3786 17.027 21.3786 16.4819 21.7083 16.134L22.6532 15.1127C23.2925 14.4157 22.9376 13.2882 22.0144 13.083C21.8414 13.0446 21.662 13.0441 21.4887 13.0815L20.1381 13.3993C19.6705 13.5086 19.1988 13.2344 19.0624 12.7741L18.6557 11.4455C18.3862 10.5497 17.2481 10.2817 16.6072 10.9629C16.4782 11.1001 16.3829 11.2652 16.3286 11.4455L15.9219 12.7741C15.7855 13.2344 15.3137 13.5086 14.8462 13.3993L13.4956 13.0815C12.5712 12.8819 11.7774 13.7579 12.0668 14.6582C12.1211 14.827 12.2112 14.9821 12.3311 15.1127L13.276 16.134C13.6057 16.4819 13.6057 17.027 13.276 17.3749L12.3311 18.3962C11.6918 19.0931 12.0467 20.2207 12.9699 20.4258C13.143 20.4643 13.3223 20.4648 13.4956 20.4274L14.8462 20.1096C15.3137 20.0003 15.7855 20.2745 15.9219 20.7348L16.3286 22.0634C16.5981 22.9592 17.7362 23.2272 18.3771 22.546C18.5061 22.4088 18.6015 22.2437 18.6557 22.0634L19.0624 20.7348C19.1988 20.2745 19.6705 20.0003 20.1381 20.1096L21.4887 20.4274C22.4131 20.627 23.2069 19.751 22.9175 18.8507C22.8632 18.6819 22.773 18.5268 22.6532 18.3962L21.7083 17.3749ZM17.4921 18.1223C16.4356 18.1222 15.7752 16.9784 16.3035 16.0634C16.8319 15.1483 18.1526 15.1483 18.6809 16.0635C18.8032 16.2752 18.8666 16.5157 18.8647 16.7602C18.8632 17.5159 18.2479 18.1265 17.4921 18.1223Z" fill="#E3E3E3"/>
<path d="M20.138 13.4003C19.6705 13.5096 19.1988 13.2354 19.0623 12.7751L18.6557 11.4463C18.3862 10.5507 17.2481 10.2826 16.6071 10.9639C16.4781 11.101 16.3829 11.2661 16.3286 11.4463L15.9219 12.7751C15.7855 13.2354 15.3137 13.5096 14.8462 13.4003L13.4956 13.0825C12.5712 12.8829 11.7774 13.7588 12.0668 14.6592C12.1211 14.828 12.2112 14.9829 12.3311 15.1137L13.276 16.1349C13.6057 16.4829 13.6057 17.0279 13.276 17.3758L12.3311 18.3972C11.6918 19.094 12.0467 20.2216 12.9699 20.4268C13.143 20.4653 13.3223 20.4658 13.4956 20.4284L14.0053 20.3081L16.5615 17.7528C16.2813 17.4991 16.1208 17.1392 16.1196 16.7612C16.116 15.771 17.1294 15.1025 18.0382 15.4955C18.2099 15.5718 18.3646 15.6835 18.4905 15.8229L21.1517 13.1626L20.138 13.4003Z" fill="white"/>
<path d="M21.7083 17.3749C21.3786 17.027 21.3786 16.4819 21.7083 16.134L22.6532 15.1127C23.2925 14.4157 22.9376 13.2882 22.0144 13.083C21.8414 13.0446 21.662 13.0441 21.4887 13.0815L20.1381 13.3993C19.6705 13.5086 19.1988 13.2344 19.0624 12.7741L18.6557 11.4455C18.3862 10.5497 17.2481 10.2817 16.6072 10.9629C16.4782 11.1001 16.3829 11.2652 16.3286 11.4455L15.9219 12.7741C15.7855 13.2344 15.3137 13.5086 14.8462 13.3993L13.4956 13.0815C12.5712 12.8819 11.7774 13.7579 12.0668 14.6582C12.1211 14.827 12.2112 14.9821 12.3311 15.1127L13.276 16.134C13.6057 16.4819 13.6057 17.027 13.276 17.3749L12.3311 18.3962C11.6918 19.0931 12.0467 20.2207 12.9699 20.4258C13.143 20.4643 13.3223 20.4648 13.4956 20.4274L14.8462 20.1096C15.3137 20.0003 15.7855 20.2745 15.9219 20.7348L16.3286 22.0634C16.5981 22.9592 17.7362 23.2272 18.3771 22.546C18.5061 22.4088 18.6015 22.2437 18.6557 22.0634L19.0624 20.7348C19.1988 20.2745 19.6705 20.0003 20.1381 20.1096L21.4887 20.4274C22.4131 20.627 23.2069 19.751 22.9175 18.8507C22.8632 18.6819 22.773 18.5268 22.6532 18.3962L21.7083 17.3749ZM17.4921 18.1223C16.4356 18.1222 15.7752 16.9784 16.3035 16.0634C16.8319 15.1483 18.1526 15.1483 18.6809 16.0635C18.8032 16.2752 18.8666 16.5157 18.8647 16.7602C18.8632 17.5159 18.2479 18.1265 17.4921 18.1223Z" stroke="#191919" stroke-linecap="round" stroke-linejoin="round"/>
</g>
</g>
<defs>
<clipPath id="clip0_5303_9448">
<rect width="24" height="24" fill="white"/>
</clipPath>
</defs>
</svg>
