<svg width="24" height="24" viewBox="0 0 24 24" fill="none" xmlns="http://www.w3.org/2000/svg">
<path d="M20.6085 10.087C20.6085 16.7826 11.9998 23 11.9998 23C11.9998 23 3.39111 16.7826 3.39111 10.087C3.39111 5.06902 6.9809 1 11.9998 1C17.0187 1 20.6085 5.06902 20.6085 10.087Z" fill="#E3E3E3"/>
<path d="M11.9998 23C11.9998 23 3.39111 16.7826 3.39111 10.087C3.39111 5.06902 6.9809 1 11.9998 1V23Z" fill="white"/>
<path d="M20.6085 10.087C20.6085 16.7826 11.9998 23 11.9998 23C11.9998 23 3.39111 16.7826 3.39111 10.087C3.39111 5.06902 6.9809 1 11.9998 1C17.0187 1 20.6085 5.06902 20.6085 10.087Z" stroke="#191919" stroke-linecap="round" stroke-linejoin="round"/>
<path d="M11.9996 15.3478C16.4176 15.3476 19.1789 10.5649 16.9697 6.73894C15.9445 4.96332 14.0499 3.86957 11.9996 3.86957C7.58165 3.86957 4.82043 8.65218 7.02941 12.4783C8.05464 14.2541 9.94914 15.3479 11.9996 15.3478Z" fill="#66E1FF"/>
<path d="M11.0434 10.5642C11.0434 10.036 10.6151 9.60773 10.0869 9.60773C9.55867 9.60773 9.13039 9.17954 9.13039 8.65121C9.13039 7.85886 8.48796 7.21652 7.6956 7.21643H6.78115C5.92409 9.09092 6.13657 11.2808 7.33788 12.9555H8.65213C9.97281 12.9555 11.0434 11.8849 11.0434 10.5642Z" fill="#78EB7B"/>
<path d="M15.7954 5.30341C14.4809 5.30653 13.4208 6.38037 13.4347 7.69471C13.4347 8.22304 13.863 8.65123 14.3912 8.65123C14.9195 8.65123 15.3477 9.07952 15.3477 9.60775C15.3477 10.4002 15.9901 11.0426 16.7825 11.0425H17.5583C18.0956 8.95019 17.4146 6.73331 15.7954 5.30341Z" fill="#78EB7B"/>
<path d="M11.9996 15.3478C16.4176 15.3476 19.1789 10.5649 16.9697 6.73894C15.9445 4.96332 14.0499 3.86957 11.9996 3.86957C7.58165 3.86957 4.82043 8.65218 7.02941 12.4783C8.05464 14.2541 9.94914 15.3479 11.9996 15.3478Z" stroke="#191919" stroke-linecap="round" stroke-linejoin="round"/>
<path d="M6.78125 7.21741H7.6957C8.48815 7.21741 9.13049 7.85975 9.13049 8.65219C9.13049 9.18043 9.55877 9.60872 10.087 9.60872C10.6152 9.60872 11.0435 10.037 11.0435 10.5652C11.0435 11.8859 9.97291 12.9564 8.65223 12.9565H7.33798" stroke="#191919" stroke-linecap="round" stroke-linejoin="round"/>
<path d="M17.5583 11.0435H16.7826C15.9901 11.0435 15.3478 10.4011 15.3478 9.60867C15.3478 9.08044 14.9195 8.65215 14.3913 8.65215C13.863 8.65215 13.4347 8.22386 13.4347 7.69563C13.4193 6.38021 14.4809 5.3053 15.7964 5.30432" stroke="#191919" stroke-linecap="round" stroke-linejoin="round"/>
</svg>
