<svg width="24" height="24" viewBox="0 0 24 24" fill="none" xmlns="http://www.w3.org/2000/svg">
<g clip-path="url(#clip0_5303_9624)">
<mask id="mask0_5303_9624" style="mask-type:luminance" maskUnits="userSpaceOnUse" x="0" y="0" width="24" height="24">
<path d="M0 0H24V24H0V0Z" fill="white"/>
</mask>
<g mask="url(#mask0_5303_9624)">
<path d="M11.9993 22.9918C18.0706 22.9918 22.9928 18.0696 22.9928 11.9984C22.9928 5.92715 18.0706 1.00488 11.9993 1.00488C5.92794 1.00488 1.00586 5.92705 1.00586 11.9984C1.00586 18.0697 5.92804 22.9918 11.9993 22.9918Z" fill="#66E1FF"/>
<path d="M3.87396 13.9246C3.87249 5.89719 12.1958 0.575015 19.4818 3.94444C13.2791 -1.81285 3.17007 1.30349 1.28551 9.55373C0.12913 14.6161 2.67271 19.7973 7.38513 21.9785C5.14331 19.9006 3.87054 16.9812 3.87396 13.9246Z" fill="#C2F3FF"/>
<path d="M12.3881 5.62682C11.7557 7.04924 12.7969 8.65156 14.3535 8.65146H14.7665C15.7267 8.65029 16.6238 9.1297 17.1563 9.92862L19.2767 13.111C19.8095 13.9097 20.7065 14.3887 21.6666 14.3872H22.7382C23.5386 10.7774 22.4731 7.0068 19.9019 4.34967H14.3574C13.5058 4.3483 12.7336 4.84849 12.3881 5.62682Z" fill="#78EB7B"/>
<path d="M8.89997 17.3966L10.203 15.9321C11.2127 14.7969 11.162 13.0712 10.0873 11.9974L9.01567 10.9257C8.47783 10.3873 7.74808 10.0846 6.98712 10.0845H1.17207C0.251304 15.3152 3.19731 20.4572 8.17539 22.3083V19.3028C8.17539 18.6004 8.43324 17.9216 8.89997 17.3966Z" fill="#78EB7B"/>
<path d="M3.87342 13.9246C3.87196 12.614 4.10542 11.3137 4.56258 10.0854H1.1719C0.307907 14.9997 2.85812 19.8803 7.38557 21.9776C5.14335 19.9003 3.8702 16.9811 3.87342 13.9246Z" fill="#C9F7CA"/>
<path d="M9.13154 22.6142C0.962086 20.4056 -1.753 10.1815 4.24448 4.21079C10.2419 -1.75986 20.4538 1.00088 22.6258 9.18009C22.7451 9.62935 22.8358 10.0856 22.8973 10.5462" stroke="#191919" stroke-linecap="round" stroke-linejoin="round"/>
<path d="M10.2034 15.9321L8.90036 17.3966C8.43363 17.9215 8.17578 18.5995 8.17578 19.3018V22.3083" stroke="#191919" stroke-linecap="round" stroke-linejoin="round"/>
<path d="M1.17139 10.0864H6.98741C7.74808 10.0861 8.47783 10.388 9.01596 10.9257L10.576 12.4907" stroke="#191919" stroke-linecap="round" stroke-linejoin="round"/>
<path d="M19.8964 4.35065H14.3518C12.6961 4.35065 11.6612 6.14312 12.4891 7.57705C12.8733 8.2425 13.5835 8.65245 14.3518 8.65245H14.7648C15.5815 8.65196 16.3597 8.99966 16.9042 9.60844" stroke="#191919" stroke-linecap="round" stroke-linejoin="round"/>
<path d="M17.2573 21.0943C20.2009 21.0943 22.0406 17.9078 20.5689 15.3585C19.8857 14.1754 18.6234 13.4466 17.2573 13.4466C14.3137 13.4466 12.4739 16.6331 13.9457 19.1823C14.6288 20.3654 15.8912 21.0943 17.2573 21.0943Z" fill="#EEEEEE"/>
<path d="M14.8673 18.212H11.5215V21.5579" stroke="#191919" stroke-linecap="round" stroke-linejoin="round"/>
<path d="M22.4353 19.3908C21.1119 23.2717 16.0835 24.2646 13.3842 21.1779C12.6574 20.3468 12.2068 19.3104 12.0947 18.212" stroke="#191919" stroke-linecap="round" stroke-linejoin="round"/>
<path d="M19.6475 16.3002H22.9933V12.9543" stroke="#191919" stroke-linecap="round" stroke-linejoin="round"/>
<path d="M12.0786 15.1205C13.4056 11.2399 18.4359 10.2513 21.1329 13.3408C21.8572 14.1705 22.3066 15.2045 22.4192 16.3002" stroke="#191919" stroke-linecap="round" stroke-linejoin="round"/>
</g>
</g>
<defs>
<clipPath id="clip0_5303_9624">
<rect width="24" height="24" fill="white"/>
</clipPath>
</defs>
</svg>
