<svg width="24" height="24" viewBox="0 0 24 24" fill="none" xmlns="http://www.w3.org/2000/svg">
<g clip-path="url(#clip0_5303_9497)">
<mask id="mask0_5303_9497" style="mask-type:luminance" maskUnits="userSpaceOnUse" x="0" y="0" width="24" height="24">
<path d="M0 0H24V24H0V0Z" fill="white"/>
</mask>
<g mask="url(#mask0_5303_9497)">
<path d="M11.9973 22.9973C18.0706 22.9973 22.9945 18.0734 22.9945 12C22.9945 5.92665 18.0706 1.00275 11.9973 1.00275C5.9239 1.00275 1 5.92665 1 12C1 18.0734 5.9239 22.9973 11.9973 22.9973Z" fill="#66E1FF"/>
<path d="M3.86939 13.9269C3.86905 12.0806 4.33358 10.2639 5.22014 8.64432C6.1067 7.02477 7.38675 5.65449 8.94227 4.65985C10.4978 3.6652 12.2787 3.0782 14.1208 2.95298C15.9629 2.82775 17.8068 3.16833 19.4826 3.94331C18.3173 2.86169 16.9314 2.0456 15.4202 1.55129C13.9091 1.05698 12.3088 0.896212 10.7295 1.08006C9.15026 1.26391 7.62965 1.78801 6.27249 2.61622C4.91532 3.44444 3.75388 4.55709 2.86821 5.87748C1.98254 7.19786 1.3937 8.69459 1.14228 10.2645C0.890858 11.8344 0.982833 13.4402 1.41187 14.9711C1.8409 16.5021 2.59678 17.9218 3.62743 19.1324C4.65807 20.343 5.93896 21.3158 7.38182 21.9836C6.2725 20.9554 5.38781 19.7089 4.78335 18.3224C4.17889 16.936 3.86772 15.4394 3.86939 13.9269Z" fill="#C2F3FF"/>
<path d="M12.3852 5.62636C12.2396 5.95395 12.1781 6.31274 12.2064 6.67013C12.2347 7.02751 12.3518 7.37217 12.5472 7.67278C12.7425 7.97339 13.0099 8.22043 13.3249 8.39145C13.64 8.56246 13.9928 8.65204 14.3514 8.65204H14.7645C15.2374 8.65144 15.7031 8.76777 16.1202 8.99067C16.5373 9.21357 16.8929 9.53613 17.1552 9.92964L19.2762 13.1131C19.5386 13.5064 19.8942 13.8288 20.3113 14.0515C20.7284 14.2743 21.1941 14.3905 21.6669 14.3898H22.7389C23.1331 12.612 23.0802 10.7642 22.5851 9.01186C22.0899 7.25953 21.1679 5.65735 19.9016 4.34876H14.3552C13.9383 4.3481 13.5301 4.46859 13.1804 4.69557C12.8307 4.92255 12.5544 5.2453 12.3852 5.62636Z" fill="#78EB7B"/>
<path d="M8.89732 17.4001L10.2007 15.9351C10.6873 15.3881 10.9463 14.6758 10.9248 13.9441C10.9033 13.2123 10.6029 12.5165 10.085 11.999L9.01303 10.9271C8.74666 10.6603 8.43034 10.4488 8.08216 10.3044C7.73397 10.16 7.36074 10.0856 6.9838 10.0855H1.16673C0.720367 12.6213 1.17685 15.2332 2.45679 17.4673C3.73673 19.7013 5.75918 21.4161 8.17246 22.3135V19.307C8.17254 18.6043 8.43047 17.9252 8.89732 17.4001Z" fill="#78EB7B"/>
<path d="M3.86875 13.9269C3.86735 12.6159 4.10087 11.3152 4.55823 10.0865H1.16629C0.746008 12.4772 1.12762 14.9399 2.25176 17.0913C3.3759 19.2427 5.17955 20.9624 7.38214 21.9826C6.27262 20.9548 5.38774 19.7085 4.78311 18.3221C4.17847 16.9358 3.86716 15.4394 3.86875 13.9269Z" fill="#C9F7CA"/>
<path d="M13.3993 22.9083C11.1226 23.1997 8.8118 22.7709 6.79115 21.6822C4.7705 20.5935 3.14141 18.8995 2.13246 16.8378C1.12351 14.7762 0.785341 12.4504 1.16539 10.1868C1.54545 7.92327 2.62466 5.83546 4.25159 4.21639C5.87852 2.59731 7.97153 1.52823 10.2369 1.15915C12.5024 0.790061 14.8265 1.13949 16.8832 2.15842C18.9399 3.17734 20.626 4.81462 21.7049 6.84051C22.7838 8.86641 23.2014 11.1792 22.899 13.4545" stroke="#191919" stroke-linecap="round" stroke-linejoin="round"/>
<path d="M1.16504 10.0874H6.98307C7.35987 10.0873 7.73302 10.1613 8.0812 10.3054C8.42938 10.4495 8.74577 10.6607 9.0123 10.9271L10.0843 11.999C10.6019 12.5165 10.9021 13.2121 10.9236 13.9436C10.9451 14.6751 10.6863 15.3872 10.2 15.9342L8.89659 17.4001C8.42974 17.9252 8.17181 18.6034 8.17173 19.306V22.3135" stroke="#191919" stroke-linecap="round" stroke-linejoin="round"/>
<path d="M19.8973 4.34973H14.3509C13.7802 4.34973 13.2329 4.57642 12.8294 4.97993C12.4259 5.38344 12.1992 5.93072 12.1992 6.50137C12.1992 7.07202 12.4259 7.6193 12.8294 8.02281C13.2329 8.42632 13.7802 8.65301 14.3509 8.65301H14.764C15.2368 8.65231 15.7025 8.76849 16.1196 8.99122C16.5367 9.21395 16.8923 9.53631 17.1547 9.92965L18.2381 11.5553" stroke="#191919" stroke-linecap="round" stroke-linejoin="round"/>
<path d="M18.2131 22.9973C19.4812 22.9973 20.6973 22.4935 21.594 21.5968C22.4907 20.7001 22.9945 19.484 22.9945 18.2158C22.9945 16.9477 22.4907 15.7316 21.594 14.8349C20.6973 13.9382 19.4812 13.4344 18.2131 13.4344C16.9449 13.4344 15.7288 13.9382 14.8321 14.8349C13.9354 15.7316 13.4316 16.9477 13.4316 18.2158C13.4316 19.484 13.9354 20.7001 14.8321 21.5968C15.7288 22.4935 16.9449 22.9973 18.2131 22.9973Z" fill="#FFEF5E"/>
<path d="M14.8319 21.5963C13.9353 20.6995 13.4316 19.4832 13.4316 18.215C13.4317 16.9468 13.9356 15.7306 14.8324 14.8339C15.7292 13.9373 16.9455 13.4336 18.2137 13.4337C19.4819 13.4337 20.6981 13.9376 21.5948 14.8344L14.8319 21.5963Z" fill="#FFF9BF"/>
<path d="M18.2131 22.9973C19.4812 22.9973 20.6973 22.4935 21.594 21.5968C22.4907 20.7001 22.9945 19.484 22.9945 18.2158C22.9945 16.9477 22.4907 15.7316 21.594 14.8349C20.6973 13.9382 19.4812 13.4344 18.2131 13.4344C16.9449 13.4344 15.7288 13.9382 14.8321 14.8349C13.9354 15.7316 13.4316 16.9477 13.4316 18.2158C13.4316 19.484 13.9354 20.7001 14.8321 21.5968C15.7288 22.4935 16.9449 22.9973 18.2131 22.9973Z" stroke="#191919" stroke-linecap="round" stroke-linejoin="round"/>
<path d="M18.2129 20.1284V21.0847" stroke="#191919" stroke-linecap="round" stroke-linejoin="round"/>
<path d="M18.2129 15.347V16.3033" stroke="#191919" stroke-linecap="round" stroke-linejoin="round"/>
<path d="M16.3008 20.1284H19.1696C19.4233 20.1284 19.6665 20.0277 19.8458 19.8483C20.0252 19.669 20.1259 19.4257 20.1259 19.1721C20.1259 18.9185 20.0252 18.6753 19.8458 18.4959C19.6665 18.3166 19.4233 18.2158 19.1696 18.2158H17.2571C17.0034 18.2158 16.7602 18.1151 16.5809 17.9358C16.4015 17.7564 16.3008 17.5132 16.3008 17.2596C16.3008 17.0059 16.4015 16.7627 16.5809 16.5834C16.7602 16.404 17.0034 16.3033 17.2571 16.3033H20.1259" stroke="#191919" stroke-linecap="round" stroke-linejoin="round"/>
</g>
</g>
<defs>
<clipPath id="clip0_5303_9497">
<rect width="24" height="24" fill="white"/>
</clipPath>
</defs>
</svg>
