<svg width="24" height="24" viewBox="0 0 24 24" fill="none" xmlns="http://www.w3.org/2000/svg">
<g clip-path="url(#clip0_5303_5624)">
<path d="M17.739 14.3913H6.26074V6.73913C6.26074 5.21702 6.8654 3.75725 7.94169 2.68095C9.01799 1.60466 10.4778 1 11.9999 1C13.522 1 14.9818 1.60466 16.0581 2.68095C17.1343 3.75725 17.739 5.21702 17.739 6.73913V14.3913Z" fill="#66E1FF"/>
<path d="M11.9999 1C10.4778 1 9.01799 1.60466 7.94169 2.68095C6.8654 3.75725 6.26074 5.21702 6.26074 6.73913V14.3913H11.9999V1Z" fill="#C2F3FF"/>
<path d="M5.3042 14.3913H18.6955M9.13029 14.3913V23M14.8694 14.3913V23M11.9999 14.3913V9.6087M11.9999 9.6087L10.0868 7.69565M11.9999 9.6087L13.9129 7.69565M17.739 14.3913H6.26072V6.73913C6.26072 5.21702 6.86538 3.75725 7.94167 2.68095C9.01797 1.60466 10.4777 1 11.9999 1C13.522 1 14.9817 1.60466 16.058 2.68095C17.1343 3.75725 17.739 5.21702 17.739 6.73913V14.3913Z" stroke="#191919" stroke-linecap="round" stroke-linejoin="round"/>
</g>
<defs>
<clipPath id="clip0_5303_5624">
<rect width="24" height="24" fill="white"/>
</clipPath>
</defs>
</svg>
