<svg width="24" height="24" viewBox="0 0 24 24" fill="none" xmlns="http://www.w3.org/2000/svg">
<g clip-path="url(#clip0_5303_5291)">
<path d="M17.2615 13.4348H6.73975V16.3044H17.2615V13.4348Z" fill="#E3E3E3"/>
<path d="M12.0006 13.4348H6.73975V16.3044H12.0006V13.4348Z" fill="white"/>
<path d="M7.69627 1H16.305C16.4306 1 16.555 1.02474 16.671 1.07281C16.7871 1.12088 16.8925 1.19134 16.9813 1.28016C17.0701 1.36898 17.1406 1.47443 17.1887 1.59048C17.2367 1.70653 17.2615 1.83091 17.2615 1.95652V13.4348H6.73975V1.95652C6.73975 1.70284 6.84052 1.45954 7.0199 1.28016C7.19929 1.10078 7.44258 1 7.69627 1Z" fill="#66E1FF"/>
<path d="M12.0006 1H7.69627C7.44258 1 7.19929 1.10078 7.0199 1.28016C6.84052 1.45954 6.73975 1.70284 6.73975 1.95652V13.4348H12.0006V1Z" fill="#C2F3FF"/>
<path d="M5.78271 13.4348H18.2175M8.65228 16.3043V23M15.3479 16.3043V23M7.69576 1H16.3045C16.4301 1 16.5544 1.02474 16.6705 1.07281C16.7866 1.12088 16.892 1.19134 16.9808 1.28016C17.0696 1.36898 17.1401 1.47443 17.1882 1.59048C17.2362 1.70653 17.261 1.83091 17.261 1.95652V16.3043H6.73924V1.95652C6.73924 1.70284 6.84001 1.45954 7.0194 1.28016C7.19878 1.10078 7.44207 1 7.69576 1Z" stroke="#191919" stroke-linecap="round" stroke-linejoin="round"/>
</g>
<defs>
<clipPath id="clip0_5303_5291">
<rect width="24" height="24" fill="white"/>
</clipPath>
</defs>
</svg>
