<svg width="24" height="24" viewBox="0 0 24 24" fill="none" xmlns="http://www.w3.org/2000/svg">
<g clip-path="url(#clip0_5303_5715)">
<path d="M2.64398 14.5519L1.28294 15.9129C1.19355 16.0023 1.12264 16.1083 1.07426 16.2251C1.02588 16.3419 1.00098 16.467 1.00098 16.5934C1.00098 16.7198 1.02588 16.845 1.07426 16.9617C1.12264 17.0785 1.19355 17.1846 1.28294 17.2739L6.72614 22.7181C7.10203 23.094 7.71129 23.094 8.08718 22.7181L9.44822 21.3561C9.62846 21.1757 9.7297 20.9311 9.7297 20.6761C9.7297 20.421 9.62846 20.1764 9.44822 19.996L4.00502 14.5519C3.91566 14.4625 3.80957 14.3916 3.69281 14.3432C3.57604 14.2948 3.45089 14.2699 3.3245 14.2699C3.19811 14.2699 3.07295 14.2948 2.95619 14.3432C2.83942 14.3916 2.73333 14.4625 2.64398 14.5519Z" fill="#E3E3E3"/>
<path d="M4.00503 19.996L6.72615 17.2739L4.00503 14.5519C3.91567 14.4625 3.80958 14.3916 3.69282 14.3432C3.57605 14.2948 3.4509 14.2699 3.32451 14.2699C3.19812 14.2699 3.07296 14.2948 2.9562 14.3432C2.83943 14.3916 2.73334 14.4625 2.64399 14.5519L1.28773 15.9129C1.19823 16.0022 1.12722 16.1083 1.07876 16.225C1.03031 16.3418 1.00537 16.467 1.00537 16.5934C1.00537 16.7198 1.03031 16.845 1.07876 16.9618C1.12722 17.0786 1.19823 17.1847 1.28773 17.2739L4.00503 19.996Z" fill="white"/>
<path d="M2.64398 14.5519L1.28294 15.9129C1.19355 16.0023 1.12264 16.1083 1.07426 16.2251C1.02588 16.3419 1.00098 16.467 1.00098 16.5934C1.00098 16.7198 1.02588 16.845 1.07426 16.9617C1.12264 17.0785 1.19355 17.1846 1.28294 17.2739L6.72614 22.7181C7.10203 23.094 7.71129 23.094 8.08718 22.7181L9.44822 21.3561C9.62846 21.1757 9.7297 20.9311 9.7297 20.6761C9.7297 20.421 9.62846 20.1764 9.44822 19.996L4.00502 14.5519C3.91566 14.4625 3.80957 14.3916 3.69281 14.3432C3.57604 14.2948 3.45089 14.2699 3.3245 14.2699C3.19811 14.2699 3.07295 14.2948 2.95619 14.3432C2.83942 14.3916 2.73333 14.4625 2.64398 14.5519Z" stroke="#191919" stroke-linecap="round" stroke-linejoin="round"/>
<path d="M15.913 1.28196L14.552 2.64396C14.4626 2.73331 14.3917 2.8394 14.3433 2.95617C14.2949 3.07293 14.27 3.19809 14.27 3.32448C14.27 3.45087 14.2949 3.57602 14.3433 3.69279C14.3917 3.80955 14.4626 3.91564 14.552 4.005L19.9952 9.4482C20.3711 9.82408 20.9803 9.82408 21.3562 9.4482L22.7173 8.08716C22.8067 7.9978 22.8776 7.89171 22.9259 7.77495C22.9743 7.65818 22.9992 7.53303 22.9992 7.40664C22.9992 7.28025 22.9743 7.15509 22.9259 7.03833C22.8776 6.92156 22.8067 6.81547 22.7173 6.72612L17.2741 1.28196C17.1847 1.19257 17.0786 1.12166 16.9619 1.07328C16.8451 1.0249 16.7199 1 16.5935 1C16.4672 1 16.342 1.0249 16.2252 1.07328C16.1085 1.12166 16.0024 1.19257 15.913 1.28196Z" fill="#E3E3E3"/>
<path d="M17.274 6.72615L19.9961 4.00407L17.274 1.28773C17.1847 1.19823 17.0787 1.12722 16.9619 1.07876C16.8451 1.03031 16.7199 1.00537 16.5935 1.00537C16.4671 1.00537 16.3419 1.03031 16.2251 1.07876C16.1083 1.12722 16.0023 1.19823 15.913 1.28773L14.552 2.64399C14.462 2.73294 14.3906 2.83884 14.3419 2.95557C14.2932 3.0723 14.2681 3.19754 14.2681 3.32403C14.2681 3.45052 14.2932 3.57576 14.3419 3.69249C14.3906 3.80922 14.462 3.91512 14.552 4.00407L17.274 6.72615Z" fill="white"/>
<path d="M15.913 1.28196L14.552 2.64396C14.4626 2.73331 14.3917 2.8394 14.3433 2.95617C14.2949 3.07293 14.27 3.19809 14.27 3.32448C14.27 3.45087 14.2949 3.57602 14.3433 3.69279C14.3917 3.80955 14.4626 3.91564 14.552 4.005L19.9952 9.4482C20.3711 9.82408 20.9803 9.82408 21.3562 9.4482L22.7173 8.08716C22.8067 7.9978 22.8776 7.89171 22.9259 7.77495C22.9743 7.65818 22.9992 7.53303 22.9992 7.40664C22.9992 7.28025 22.9743 7.15509 22.9259 7.03833C22.8776 6.92156 22.8067 6.81547 22.7173 6.72612L17.2741 1.28196C17.1847 1.19257 17.0786 1.12166 16.9619 1.07328C16.8451 1.0249 16.7199 1 16.5935 1C16.4672 1 16.342 1.0249 16.2252 1.07328C16.1085 1.12166 16.0024 1.19257 15.913 1.28196Z" stroke="#191919" stroke-linecap="round" stroke-linejoin="round"/>
<path d="M14.5512 4.00409L4.00342 14.5529L9.44757 19.997L19.9944 9.44824L14.5512 4.00409Z" fill="#66E1FF"/>
<path d="M14.5518 4.00409L4.00586 14.5519L6.72794 17.274L17.2748 6.72712L14.5518 4.00409Z" fill="#C2F3FF"/>
<path d="M14.5512 4.00409L4.00342 14.5529L9.44757 19.997L19.9944 9.44824L14.5512 4.00409Z" stroke="#191919" stroke-linecap="round" stroke-linejoin="round"/>
<path d="M6.72607 17.2739L9.60884 14.3912H12V9.6089H14.3911L17.2739 6.72614" stroke="#191919" stroke-linecap="round" stroke-linejoin="round"/>
</g>
<defs>
<clipPath id="clip0_5303_5715">
<rect width="24" height="24" fill="white"/>
</clipPath>
</defs>
</svg>
