<svg width="24" height="24" viewBox="0 0 24 24" fill="none" xmlns="http://www.w3.org/2000/svg">
<g clip-path="url(#clip0_5303_9172)">
<path d="M10.5774 19.4225H2.43662C2.05561 19.4225 1.69019 19.2711 1.42078 19.0017C1.15136 18.7323 1 18.3668 1 17.9859V8.88729L10.5774 1.22534L20.1549 8.88729V10.8028" stroke="#191919" stroke-linecap="round" stroke-linejoin="round"/>
<path d="M3.875 16.5492L8.66372 12.7183H11.535" stroke="#191919" stroke-linecap="round" stroke-linejoin="round"/>
<path d="M20.1568 8.88739L17.252 10.3403" stroke="#191919" stroke-linecap="round" stroke-linejoin="round"/>
<path d="M1.00195 8.88739L6.74842 11.7606" stroke="#191919" stroke-linecap="round" stroke-linejoin="round"/>
<path d="M16.802 20.9147C17.6599 20.9147 18.4985 20.6603 19.2119 20.1836C19.9252 19.7071 20.4811 19.0295 20.8095 18.237C21.1377 17.4444 21.2236 16.5723 21.0563 15.7308C20.8889 14.8894 20.4758 14.1165 19.8692 13.5099C19.2625 12.9032 18.4896 12.4902 17.6482 12.3228C16.8068 12.1554 15.9346 12.2413 15.142 12.5697C14.3495 12.8979 13.672 13.4538 13.1954 14.1672C12.7187 14.8805 12.4644 15.7191 12.4644 16.577C12.4644 17.7275 12.9214 18.8307 13.7348 19.6442C14.5483 20.4576 15.6515 20.9147 16.802 20.9147Z" fill="#66E1FF"/>
<path d="M16.8029 12.2394C15.9435 12.2391 15.1034 12.4941 14.3892 12.9722C13.675 13.4502 13.119 14.1297 12.7919 14.9245C12.4647 15.7191 12.381 16.5932 12.5516 17.4355C12.722 18.2777 13.139 19.0504 13.7496 19.6553L19.8792 13.5257C19.4771 13.1183 18.9981 12.7948 18.47 12.574C17.9419 12.3532 17.3752 12.2394 16.8029 12.2394Z" fill="#C2F3FF"/>
<path d="M16.802 20.9147C17.6599 20.9147 18.4985 20.6603 19.2119 20.1836C19.9252 19.7071 20.4811 19.0295 20.8095 18.237C21.1377 17.4444 21.2236 16.5723 21.0563 15.7308C20.8889 14.8894 20.4758 14.1165 19.8692 13.5099C19.2625 12.9032 18.4896 12.4902 17.6482 12.3228C16.8068 12.1554 15.9346 12.2413 15.142 12.5697C14.3495 12.8979 13.672 13.4538 13.1954 14.1672C12.7187 14.8805 12.4644 15.7191 12.4644 16.577C12.4644 17.7275 12.9214 18.8307 13.7348 19.6442C14.5483 20.4576 15.6515 20.9147 16.802 20.9147Z" stroke="#191919" stroke-linecap="round" stroke-linejoin="round"/>
<path d="M22.9999 22.7747L19.8892 19.662" stroke="#191919" stroke-linecap="round" stroke-linejoin="round"/>
</g>
<defs>
<clipPath id="clip0_5303_9172">
<rect width="24" height="24" fill="white"/>
</clipPath>
</defs>
</svg>
