<svg width="24" height="24" viewBox="0 0 24 24" fill="none" xmlns="http://www.w3.org/2000/svg">
<g clip-path="url(#clip0_5303_9247)">
<path d="M19.6526 1H2.43527C2.05474 1 1.6898 1.15116 1.42073 1.42024C1.15165 1.68931 1.00049 2.05425 1.00049 2.43478V12.9565C1.00049 13.337 1.15165 13.702 1.42073 13.971C1.6898 14.2401 2.05474 14.3913 2.43527 14.3913H19.6526C20.0331 14.3913 20.3981 14.2401 20.6671 13.971C20.9362 13.702 21.0874 13.337 21.0874 12.9565V2.43478C21.0874 2.05425 20.9362 1.68931 20.6671 1.42024C20.3981 1.15116 20.0331 1 19.6526 1Z" fill="#E3E3E3"/>
<path d="M2.43527 1C2.05474 1 1.6898 1.15116 1.42073 1.42024C1.15165 1.68931 1.00049 2.05425 1.00049 2.43478V12.9565C1.00049 13.337 1.15165 13.702 1.42073 13.971C1.6898 14.2401 2.05474 14.3913 2.43527 14.3913H3.71318L17.1044 1H2.43527Z" fill="white"/>
<path d="M9.60916 14.3913H2.43527C2.05474 14.3913 1.6898 14.2401 1.42073 13.971C1.15165 13.702 1.00049 13.337 1.00049 12.9565V2.43478C1.00049 2.05425 1.15165 1.68931 1.42073 1.42024C1.6898 1.15116 2.05474 1 2.43527 1H19.6526C20.0331 1 20.3981 1.15116 20.6671 1.42024C20.9362 1.68931 21.0874 2.05425 21.0874 2.43478V9.60867" stroke="#191919" stroke-linecap="round" stroke-linejoin="round"/>
<path d="M20.6731 1.42657L11.0438 9.13038L1.41455 1.42657" stroke="#191919" stroke-linecap="round" stroke-linejoin="round"/>
<path d="M17.2606 23C18.7827 23 20.2425 22.3954 21.3188 21.3191C22.3951 20.2428 22.9997 18.783 22.9997 17.2609C22.9997 15.7388 22.3951 14.279 21.3188 13.2027C20.2425 12.1264 18.7827 11.5218 17.2606 11.5218C15.7385 11.5218 14.2787 12.1264 13.2024 13.2027C12.1261 14.279 11.5215 15.7388 11.5215 17.2609C11.5215 18.783 12.1261 20.2428 13.2024 21.3191C14.2787 22.3954 15.7385 23 17.2606 23Z" fill="#78EB7B"/>
<path d="M17.2614 11.5218C16.0933 11.5209 14.9527 11.8767 13.9924 12.5416C13.0321 13.2066 12.2977 14.149 11.8876 15.2427C11.4774 16.3364 11.4111 17.5293 11.6974 18.6618C11.9838 19.7942 12.6091 20.8122 13.4898 21.5796L21.58 13.4894C21.0431 12.8713 20.3796 12.3757 19.6345 12.0363C18.8894 11.6968 18.0801 11.5214 17.2614 11.5218Z" fill="#C9F7CA"/>
<path d="M17.2606 23C18.7827 23 20.2425 22.3954 21.3188 21.3191C22.3951 20.2428 22.9997 18.783 22.9997 17.2609C22.9997 15.7388 22.3951 14.279 21.3188 13.2027C20.2425 12.1264 18.7827 11.5218 17.2606 11.5218C15.7385 11.5218 14.2787 12.1264 13.2024 13.2027C12.1261 14.279 11.5215 15.7388 11.5215 17.2609C11.5215 18.783 12.1261 20.2428 13.2024 21.3191C14.2787 22.3954 15.7385 23 17.2606 23Z" stroke="#191919" stroke-linecap="round" stroke-linejoin="round"/>
<path d="M17.2607 14.3914V20.1305" stroke="#191919" stroke-linecap="round" stroke-linejoin="round"/>
<path d="M20.1302 17.2609H14.3911" stroke="#191919" stroke-linecap="round" stroke-linejoin="round"/>
</g>
<defs>
<clipPath id="clip0_5303_9247">
<rect width="24" height="24" fill="white"/>
</clipPath>
</defs>
</svg>
