<svg width="24" height="24" viewBox="0 0 24 24" fill="none" xmlns="http://www.w3.org/2000/svg">
<g clip-path="url(#clip0_5303_9136)">
<path d="M19.6527 1H2.43527C2.05474 1 1.6898 1.15116 1.42073 1.42024C1.15165 1.68931 1.00049 2.05426 1.00049 2.43478V12.9565C1.00049 13.3371 1.15165 13.702 1.42073 13.9711C1.6898 14.2402 2.05474 14.3913 2.43527 14.3913H19.6527C20.0332 14.3913 20.3982 14.2402 20.6672 13.9711C20.9363 13.702 21.0875 13.3371 21.0875 12.9565V2.43478C21.0875 2.05426 20.9363 1.68931 20.6672 1.42024C20.3982 1.15116 20.0332 1 19.6527 1Z" fill="#E3E3E3"/>
<path d="M2.43527 1C2.05474 1 1.6898 1.15116 1.42073 1.42024C1.15165 1.68931 1.00049 2.05426 1.00049 2.43478V12.9565C1.00049 13.3371 1.15165 13.702 1.42073 13.9711C1.6898 14.2402 2.05474 14.3913 2.43527 14.3913H3.71319L17.1045 1H2.43527Z" fill="white"/>
<path d="M9.6092 14.3913H2.43527C2.05474 14.3913 1.6898 14.2402 1.42073 13.9711C1.15165 13.702 1.00049 13.3371 1.00049 12.9565V2.43478C1.00049 2.05426 1.15165 1.68931 1.42073 1.42024C1.6898 1.15116 2.05474 1 2.43527 1H19.6527C20.0332 1 20.3982 1.15116 20.6672 1.42024C20.9363 1.68931 21.0875 2.05426 21.0875 2.43478V9.60871" stroke="#191919" stroke-linecap="round" stroke-linejoin="round"/>
<path d="M20.6732 1.42664L11.0439 9.13047L1.41455 1.42664" stroke="#191919" stroke-linecap="round" stroke-linejoin="round"/>
<path d="M17.2606 23C18.7827 23 20.2425 22.3954 21.3188 21.3191C22.3951 20.2428 22.9998 18.783 22.9998 17.2609C22.9998 15.7388 22.3951 14.279 21.3188 13.2027C20.2425 12.1264 18.7827 11.5217 17.2606 11.5217C15.7385 11.5217 14.2787 12.1264 13.2024 13.2027C12.1261 14.279 11.5215 15.7388 11.5215 17.2609C11.5215 18.783 12.1261 20.2428 13.2024 21.3191C14.2787 22.3954 15.7385 23 17.2606 23Z" fill="#FF808C"/>
<path d="M17.2614 11.5217C16.0942 11.5232 14.9553 11.8804 13.9964 12.5458C13.0376 13.2112 12.3044 14.1531 11.8946 15.2459C11.4849 16.3388 11.418 17.5305 11.703 18.6623C11.988 19.7941 12.6113 20.8121 13.4898 21.5805L21.5801 13.4903C21.0432 12.872 20.3797 12.3763 19.6346 12.0367C18.8895 11.697 18.0802 11.5214 17.2614 11.5217Z" fill="#FFBFC5"/>
<path d="M17.2606 23C18.7827 23 20.2425 22.3954 21.3188 21.3191C22.3951 20.2428 22.9998 18.783 22.9998 17.2609C22.9998 15.7388 22.3951 14.279 21.3188 13.2027C20.2425 12.1264 18.7827 11.5217 17.2606 11.5217C15.7385 11.5217 14.2787 12.1264 13.2024 13.2027C12.1261 14.279 11.5215 15.7388 11.5215 17.2609C11.5215 18.783 12.1261 20.2428 13.2024 21.3191C14.2787 22.3954 15.7385 23 17.2606 23Z" stroke="#191919" stroke-linecap="round" stroke-linejoin="round"/>
<path d="M19.2895 15.2235L15.2319 19.2811" stroke="#191919" stroke-linecap="round" stroke-linejoin="round"/>
<path d="M19.2895 19.2811L15.2319 15.2235" stroke="#191919" stroke-linecap="round" stroke-linejoin="round"/>
</g>
<defs>
<clipPath id="clip0_5303_9136">
<rect width="24" height="24" fill="white"/>
</clipPath>
</defs>
</svg>
