<svg width="24" height="24" viewBox="0 0 24 24" fill="none" xmlns="http://www.w3.org/2000/svg">
<g clip-path="url(#clip0_5303_9163)">
<path d="M19.6527 1H2.43527C2.05474 1 1.6898 1.15116 1.42073 1.42024C1.15165 1.68931 1.00049 2.05426 1.00049 2.43478V12.9565C1.00049 13.3371 1.15165 13.702 1.42073 13.9711C1.6898 14.2402 2.05474 14.3913 2.43527 14.3913H19.6527C20.0332 14.3913 20.3982 14.2402 20.6672 13.9711C20.9363 13.702 21.0875 13.3371 21.0875 12.9565V2.43478C21.0875 2.05426 20.9363 1.68931 20.6672 1.42024C20.3982 1.15116 20.0332 1 19.6527 1Z" fill="#E3E3E3"/>
<path d="M2.43527 1C2.05474 1 1.6898 1.15116 1.42073 1.42024C1.15165 1.68931 1.00049 2.05426 1.00049 2.43478V12.9565C1.00049 13.3371 1.15165 13.702 1.42073 13.9711C1.6898 14.2402 2.05474 14.3913 2.43527 14.3913H3.71319L17.1045 1H2.43527Z" fill="white"/>
<path d="M9.6092 14.3913H2.43527C2.05474 14.3913 1.6898 14.2402 1.42073 13.9711C1.15165 13.702 1.00049 13.3371 1.00049 12.9565V2.43478C1.00049 2.05426 1.15165 1.68931 1.42073 1.42024C1.6898 1.15116 2.05474 1 2.43527 1H19.6527C20.0332 1 20.3982 1.15116 20.6672 1.42024C20.9363 1.68931 21.0875 2.05426 21.0875 2.43478V9.60871" stroke="#191919" stroke-linecap="round" stroke-linejoin="round"/>
<path d="M20.6732 1.42664L11.0439 9.13047L1.41455 1.42664" stroke="#191919" stroke-linecap="round" stroke-linejoin="round"/>
<path d="M17.2606 23C18.7827 23 20.2425 22.3954 21.3188 21.3191C22.3951 20.2428 22.9998 18.783 22.9998 17.2609C22.9998 15.7388 22.3951 14.279 21.3188 13.2027C20.2425 12.1264 18.7827 11.5217 17.2606 11.5217C15.7385 11.5217 14.2787 12.1264 13.2024 13.2027C12.1261 14.279 11.5215 15.7388 11.5215 17.2609C11.5215 18.783 12.1261 20.2428 13.2024 21.3191C14.2787 22.3954 15.7385 23 17.2606 23Z" fill="#FF808C"/>
<path d="M17.2614 11.5217C16.0933 11.5208 14.9528 11.8766 13.9924 12.5416C13.0321 13.2066 12.2977 14.1489 11.8876 15.2427C11.4774 16.3364 11.4111 17.5293 11.6974 18.6618C11.9838 19.7942 12.6091 20.8122 13.4898 21.5796L21.5801 13.4893C21.0431 12.8712 20.3796 12.3757 19.6345 12.0362C18.8895 11.6968 18.0802 11.5213 17.2614 11.5217Z" fill="#FFBFC5"/>
<path d="M17.2606 23C18.7827 23 20.2425 22.3954 21.3188 21.3191C22.3951 20.2428 22.9998 18.783 22.9998 17.2609C22.9998 15.7388 22.3951 14.279 21.3188 13.2027C20.2425 12.1264 18.7827 11.5217 17.2606 11.5217C15.7385 11.5217 14.2787 12.1264 13.2024 13.2027C12.1261 14.279 11.5215 15.7388 11.5215 17.2609C11.5215 18.783 12.1261 20.2428 13.2024 21.3191C14.2787 22.3954 15.7385 23 17.2606 23Z" stroke="#191919" stroke-linecap="round" stroke-linejoin="round"/>
<path d="M20.1303 17.2609H14.3911" stroke="#191919" stroke-linecap="round" stroke-linejoin="round"/>
</g>
<defs>
<clipPath id="clip0_5303_9163">
<rect width="24" height="24" fill="white"/>
</clipPath>
</defs>
</svg>
