<svg width="24" height="24" viewBox="0 0 24 24" fill="none" xmlns="http://www.w3.org/2000/svg">
<g clip-path="url(#clip0_5303_9195)">
<path d="M16.3043 1H1.95652C1.70283 1 1.45954 1.10078 1.28016 1.28016C1.10078 1.45954 1 1.70283 1 1.95652V11.5217C1 11.7754 1.10078 12.0187 1.28016 12.1981C1.45954 12.3774 1.70283 12.4782 1.95652 12.4782H16.3043C16.558 12.4782 16.8013 12.3774 16.9807 12.1981C17.16 12.0187 17.2608 11.7754 17.2608 11.5217V1.95652C17.2608 1.70283 17.16 1.45954 16.9807 1.28016C16.8013 1.10078 16.558 1 16.3043 1Z" fill="#E3E3E3"/>
<path d="M1.95652 1C1.70283 1 1.45954 1.10078 1.28016 1.28016C1.10078 1.45954 1 1.70283 1 1.95652V11.5217C1 11.7754 1.10078 12.0187 1.28016 12.1981C1.45954 12.3774 1.70283 12.4782 1.95652 12.4782H3.35017L14.8284 1H1.95652Z" fill="white"/>
<path d="M4.82568 11.5218H22.9995V22.0435C22.9995 22.2972 22.8988 22.5405 22.7194 22.7199C22.54 22.8992 22.2967 23 22.043 23H5.7822C5.52852 23 5.28522 22.8992 5.10584 22.7199C4.92646 22.5405 4.82568 22.2972 4.82568 22.0435V11.5218Z" fill="#E3E3E3"/>
<path d="M4.82568 11.5218V22.0435C4.82568 22.2972 4.92646 22.5405 5.10584 22.7199C5.28522 22.8992 5.52852 23 5.7822 23H8.77324L20.2515 11.5218H4.82568Z" fill="white"/>
<path d="M2.91304 12.4782H1.95652C1.70283 12.4782 1.45954 12.3774 1.28016 12.1981C1.10078 12.0187 1 11.7754 1 11.5217V1.95652C1 1.70283 1.10078 1.45954 1.28016 1.28016C1.45954 1.10078 1.70283 1 1.95652 1H16.3043C16.558 1 16.8013 1.10078 16.9807 1.28016C17.16 1.45954 17.2608 1.70283 17.2608 1.95652V9.60867" stroke="#191919" stroke-linecap="round" stroke-linejoin="round"/>
<path d="M4.82568 11.5218H22.9995V22.0435C22.9995 22.2972 22.8988 22.5405 22.7194 22.7199C22.54 22.8992 22.2967 23 22.043 23H5.7822C5.52852 23 5.28522 22.8992 5.10584 22.7199C4.92646 22.5405 4.82568 22.2972 4.82568 22.0435V11.5218Z" stroke="#191919" stroke-linecap="round" stroke-linejoin="round"/>
<path d="M1 2.91309L8.64545 7.40872C8.79244 7.49518 8.95988 7.54077 9.13041 7.54077C9.30094 7.54077 9.46837 7.49518 9.61536 7.40872L17.2608 2.91309" stroke="#191919" stroke-linecap="round" stroke-linejoin="round"/>
<path d="M4.82568 11.5218L6.94342 15.3402C7.02624 15.4896 7.14755 15.614 7.29472 15.7006C7.4419 15.7873 7.60959 15.8329 7.78037 15.8328L20.0458 15.8261C20.2163 15.8261 20.3838 15.7806 20.5307 15.6941C20.6777 15.6077 20.7989 15.4835 20.8818 15.3345L22.9995 11.5218" stroke="#191919" stroke-linecap="round" stroke-linejoin="round"/>
</g>
<defs>
<clipPath id="clip0_5303_9195">
<rect width="24" height="24" fill="white"/>
</clipPath>
</defs>
</svg>
