<svg width="24" height="24" viewBox="0 0 24 24" fill="none" xmlns="http://www.w3.org/2000/svg">
<g clip-path="url(#clip0_5303_9735)">
<path d="M13.9207 21.263C14.0102 21.3584 14.1184 21.4345 14.2385 21.4865C14.3586 21.5385 14.4881 21.5653 14.619 21.5652H20.1304C20.8915 21.5652 21.6214 21.2629 22.1595 20.7247C22.6977 20.1866 23 19.4567 23 18.6957C23 17.9346 22.6977 17.2047 22.1595 16.6666C21.6214 16.1284 20.8915 15.8261 20.1304 15.8261H16.906C16.7751 15.8262 16.6456 15.7994 16.5255 15.7474C16.4054 15.6954 16.2973 15.6193 16.2077 15.5238L9.60104 8.47621C9.51152 8.38074 9.40337 8.30465 9.28326 8.25266C9.16315 8.20067 9.03366 8.17388 8.90278 8.17395H3.86957C3.10851 8.17395 2.37862 8.47628 1.84048 9.01443C1.30233 9.55257 1 10.2824 1 11.0435C1 11.8045 1.30233 12.5344 1.84048 13.0726C2.37862 13.6107 3.10851 13.913 3.86957 13.913H6.61574C6.74662 13.9129 6.87614 13.9397 6.99625 13.9917C7.11636 14.0437 7.22452 14.1198 7.314 14.2153L13.9207 21.263Z" fill="#66E1FF"/>
<path d="M15.9495 17.7391C15.8186 17.7392 15.6891 17.7124 15.569 17.6604C15.4489 17.6084 15.3407 17.5323 15.2512 17.4369L8.64453 10.3892C8.55501 10.2938 8.44685 10.2177 8.32675 10.1657C8.20664 10.1137 8.07715 10.0869 7.94627 10.087H1.16357C1.36141 9.52743 1.72788 9.04298 2.21251 8.70037C2.69713 8.35775 3.27607 8.17384 3.86957 8.17395H8.90279C9.03367 8.17388 9.16316 8.20067 9.28327 8.25266C9.40338 8.30465 9.51153 8.38074 9.60105 8.47621L16.2087 15.5238C16.2982 15.6193 16.4064 15.6954 16.5265 15.7474C16.6466 15.7994 16.7761 15.8262 16.907 15.8261H20.1304C20.7239 15.826 21.3029 16.0099 21.7875 16.3525C22.2721 16.6951 22.6386 17.1796 22.8364 17.7391H15.9495Z" fill="#C2F3FF"/>
<path d="M13.9207 21.263C14.0102 21.3584 14.1184 21.4345 14.2385 21.4865C14.3586 21.5385 14.4881 21.5653 14.619 21.5652H20.1304C20.8915 21.5652 21.6214 21.2629 22.1595 20.7247C22.6977 20.1866 23 19.4567 23 18.6957C23 17.9346 22.6977 17.2047 22.1595 16.6666C21.6214 16.1284 20.8915 15.8261 20.1304 15.8261H16.906C16.7751 15.8262 16.6456 15.7994 16.5255 15.7474C16.4054 15.6954 16.2973 15.6193 16.2077 15.5238L9.60104 8.47621C9.51152 8.38074 9.40337 8.30465 9.28326 8.25266C9.16315 8.20067 9.03366 8.17388 8.90278 8.17395H3.86957C3.10851 8.17395 2.37862 8.47628 1.84048 9.01443C1.30233 9.55257 1 10.2824 1 11.0435C1 11.8045 1.30233 12.5344 1.84048 13.0726C2.37862 13.6107 3.10851 13.913 3.86957 13.913H6.61574C6.74662 13.9129 6.87614 13.9397 6.99625 13.9917C7.11636 14.0437 7.22452 14.1198 7.314 14.2153L13.9207 21.263Z" stroke="#191919" stroke-linecap="round" stroke-linejoin="round"/>
<path d="M13.4346 2.43475L21.0867 10.087" stroke="#191919" stroke-linecap="round" stroke-linejoin="round"/>
<path d="M16.3042 10.087H21.0868V5.30432" stroke="#191919" stroke-linecap="round" stroke-linejoin="round"/>
</g>
<defs>
<clipPath id="clip0_5303_9735">
<rect width="24" height="24" fill="white"/>
</clipPath>
</defs>
</svg>
