<svg width="24" height="24" viewBox="0 0 24 24" fill="none" xmlns="http://www.w3.org/2000/svg">
<g clip-path="url(#clip0_5303_6587)">
<path d="M22.0435 1H1.95652C1.42825 1 1 1.42825 1 1.95652V22.0435C1 22.5718 1.42825 23 1.95652 23H22.0435C22.5718 23 23 22.5718 23 22.0435V1.95652C23 1.42825 22.5718 1 22.0435 1Z" fill="#E3E3E3"/>
<path d="M22.0435 1H1.95652C1.70283 1 1.45954 1.10078 1.28016 1.28016C1.10078 1.45954 1 1.70283 1 1.95652V4.82609C1 4.5724 1.10078 4.32911 1.28016 4.14972C1.45954 3.97034 1.70283 3.86957 1.95652 3.86957H22.0435C22.2971 3.86957 22.5405 3.97034 22.7198 4.14972C22.8992 4.32911 23 4.5724 23 4.82609V1.95652C23 1.70283 22.8992 1.45954 22.7198 1.28016C22.5405 1.10078 22.2971 1 22.0435 1Z" fill="white"/>
<path d="M22.0435 1H1.95652C1.42825 1 1 1.42825 1 1.95652V22.0435C1 22.5718 1.42825 23 1.95652 23H22.0435C22.5718 23 23 22.5718 23 22.0435V1.95652C23 1.42825 22.5718 1 22.0435 1Z" stroke="#191919" stroke-linecap="round" stroke-linejoin="round"/>
<path d="M4.82603 4.82568C4.57234 4.82568 4.32905 4.92646 4.14966 5.10584C3.97029 5.28523 3.86951 5.52852 3.86951 5.78221V15.3474C3.86951 15.6011 3.97029 15.8444 4.14966 16.0238C4.32905 16.2031 4.57234 16.3039 4.82603 16.3039H9.60864V17.7387C9.60864 17.8656 9.65903 17.9872 9.74872 18.077C9.8384 18.1666 9.96005 18.217 10.0869 18.217H13.913C14.0398 18.217 14.1615 18.1666 14.2512 18.077C14.3408 17.9872 14.3912 17.8656 14.3912 17.7387V16.3039H19.1739C19.4275 16.3039 19.6709 16.2031 19.8502 16.0238C20.0296 15.8444 20.1304 15.6011 20.1304 15.3474V5.78221C20.1304 5.52852 20.0296 5.28523 19.8502 5.10584C19.6709 4.92646 19.4275 4.82568 19.1739 4.82568H4.82603Z" fill="#808080"/>
<path d="M19.1739 4.82568H4.82603C4.57234 4.82568 4.32905 4.92646 4.14966 5.10584C3.97029 5.28523 3.86951 5.52852 3.86951 5.78221V8.65177C3.86951 8.39808 3.97029 8.15479 4.14966 7.9754C4.32905 7.79603 4.57234 7.69525 4.82603 7.69525H19.1739C19.4275 7.69525 19.6709 7.79603 19.8502 7.9754C20.0296 8.15479 20.1304 8.39808 20.1304 8.65177V5.78221C20.1304 5.52852 20.0296 5.28523 19.8502 5.10584C19.6709 4.92646 19.4275 4.82568 19.1739 4.82568Z" fill="#6B6B6B"/>
<path d="M4.82603 4.82568C4.57234 4.82568 4.32905 4.92646 4.14966 5.10584C3.97029 5.28523 3.86951 5.52852 3.86951 5.78221V15.3474C3.86951 15.6011 3.97029 15.8444 4.14966 16.0238C4.32905 16.2031 4.57234 16.3039 4.82603 16.3039H9.60864V17.7387C9.60864 17.8656 9.65903 17.9872 9.74872 18.077C9.8384 18.1666 9.96005 18.217 10.0869 18.217H13.913C14.0398 18.217 14.1615 18.1666 14.2512 18.077C14.3408 17.9872 14.3912 17.8656 14.3912 17.7387V16.3039H19.1739C19.4275 16.3039 19.6709 16.2031 19.8502 16.0238C20.0296 15.8444 20.1304 15.6011 20.1304 15.3474V5.78221C20.1304 5.52852 20.0296 5.28523 19.8502 5.10584C19.6709 4.92646 19.4275 4.82568 19.1739 4.82568H4.82603Z" stroke="#191919" stroke-linecap="round" stroke-linejoin="round"/>
<path d="M7.69556 4.82568V8.65177" stroke="#191919" stroke-linecap="round" stroke-linejoin="round"/>
<path d="M10.5652 4.82568V8.65177" stroke="#191919" stroke-linecap="round" stroke-linejoin="round"/>
<path d="M13.4347 4.82568V8.65177" stroke="#191919" stroke-linecap="round" stroke-linejoin="round"/>
<path d="M16.3043 4.82568V8.65177" stroke="#191919" stroke-linecap="round" stroke-linejoin="round"/>
</g>
<defs>
<clipPath id="clip0_5303_6587">
<rect width="24" height="24" fill="white"/>
</clipPath>
</defs>
</svg>
