<svg width="24" height="24" viewBox="0 0 24 24" fill="none" xmlns="http://www.w3.org/2000/svg">
<path d="M20.2498 6.95831H3.74984C3.49671 6.95831 3.2915 7.16352 3.2915 7.41665V16.5833C3.2915 16.8364 3.49671 17.0416 3.74984 17.0416H20.2498C20.5029 17.0416 20.7082 16.8364 20.7082 16.5833V7.41665C20.7082 7.16352 20.5029 6.95831 20.2498 6.95831Z" fill="#C2F3FF"/>
<path d="M16.125 5.125H21.625C21.8681 5.125 22.1013 5.22158 22.2732 5.39348C22.445 5.56539 22.5417 5.79855 22.5417 6.04167V9.70833" stroke="#191919" stroke-linecap="round" stroke-linejoin="round"/>
<path d="M7.87516 5.125H2.37516C2.13204 5.125 1.89889 5.22158 1.72698 5.39348C1.55507 5.56539 1.4585 5.79855 1.4585 6.04167V9.70833" stroke="#191919" stroke-linecap="round" stroke-linejoin="round"/>
<path d="M16.125 18.875H21.625C21.8681 18.875 22.1013 18.7784 22.2732 18.6065C22.445 18.4347 22.5417 18.2015 22.5417 17.9584V14.2917" stroke="#191919" stroke-linecap="round" stroke-linejoin="round"/>
<path d="M7.87516 18.875H2.37516C2.13204 18.875 1.89889 18.7784 1.72698 18.6065C1.55507 18.4347 1.4585 18.2015 1.4585 17.9584V14.2917" stroke="#191919" stroke-linecap="round" stroke-linejoin="round"/>
<path d="M17.9583 8.79077H6.04167C5.53541 8.79077 5.125 9.20118 5.125 9.70744V14.2908C5.125 14.797 5.53541 15.2074 6.04167 15.2074H17.9583C18.4646 15.2074 18.875 14.797 18.875 14.2908V9.70744C18.875 9.20118 18.4646 8.79077 17.9583 8.79077Z" fill="#FFEF5E"/>
<path d="M18.875 10.625V9.70835C18.875 9.46524 18.7784 9.23208 18.6065 9.06017C18.4346 8.88827 18.2014 8.79169 17.9583 8.79169H6.04167C5.79855 8.79169 5.56539 8.88827 5.39348 9.06017C5.22158 9.23208 5.125 9.46524 5.125 9.70835V10.625H18.875Z" fill="#FFF9BF"/>
<path d="M17.9583 8.79077H6.04167C5.53541 8.79077 5.125 9.20118 5.125 9.70744V14.2908C5.125 14.797 5.53541 15.2074 6.04167 15.2074H17.9583C18.4646 15.2074 18.875 14.797 18.875 14.2908V9.70744C18.875 9.20118 18.4646 8.79077 17.9583 8.79077Z" stroke="#191919" stroke-linecap="round" stroke-linejoin="round"/>
</svg>
