<svg width="24" height="24" viewBox="0 0 24 24" fill="none" xmlns="http://www.w3.org/2000/svg">
<path d="M12.0002 22.5417C17.8219 22.5417 22.5418 17.8218 22.5418 12C22.5418 6.17829 17.8219 1.45837 12.0002 1.45837C6.17841 1.45837 1.4585 6.17829 1.4585 12C1.4585 17.8218 6.17841 22.5417 12.0002 22.5417Z" fill="#FFEF5E"/>
<path d="M12.0002 5.58333C14.4382 5.58306 16.8009 6.42787 18.6861 7.9739C20.5712 9.51993 21.8622 11.6716 22.3392 14.0625C22.6434 12.5337 22.6047 10.9565 22.2259 9.44447C21.8472 7.93243 21.1379 6.5232 20.149 5.31827C19.1602 4.11334 17.9164 3.14269 16.5073 2.47624C15.0983 1.80979 13.5589 1.46411 12.0002 1.46411C10.4414 1.46411 8.90207 1.80979 7.49299 2.47624C6.0839 3.14269 4.84015 4.11334 3.8513 5.31827C2.86245 6.5232 2.15312 7.93243 1.77439 9.44447C1.39566 10.9565 1.35696 12.5337 1.66108 14.0625C2.13809 11.6716 3.42908 9.51993 5.31423 7.9739C7.19938 6.42787 9.56213 5.58306 12.0002 5.58333Z" fill="#FFF9BF"/>
<path d="M12.0002 22.5417C17.8219 22.5417 22.5418 17.8218 22.5418 12C22.5418 6.17829 17.8219 1.45837 12.0002 1.45837C6.17841 1.45837 1.4585 6.17829 1.4585 12C1.4585 17.8218 6.17841 22.5417 12.0002 22.5417Z" stroke="#191919" stroke-linecap="round" stroke-linejoin="round"/>
<path d="M11.9998 8.33337V12.4584C11.9998 12.823 11.855 13.1728 11.5971 13.4306C11.3392 13.6885 10.9895 13.8334 10.6248 13.8334H10.1665" stroke="#191919" stroke-linecap="round" stroke-linejoin="round"/>
<path d="M7.4165 8.33337V10.625" stroke="#191919" stroke-linecap="round" stroke-linejoin="round"/>
<path d="M16.5835 8.33337V10.625" stroke="#191919" stroke-linecap="round" stroke-linejoin="round"/>
<path d="M8.08838 16.5834C9.02127 17.4663 10.257 17.9584 11.5415 17.9584C12.826 17.9584 14.0617 17.4663 14.9945 16.5834" stroke="#191919" stroke-linecap="round" stroke-linejoin="round"/>
</svg>
