<svg width="24" height="24" viewBox="0 0 24 24" fill="none" xmlns="http://www.w3.org/2000/svg">
<path d="M17.8674 7.69565H13.785V5.87826C13.7069 5.30181 14.172 4.79622 14.7529 4.82609C15.1528 4.82609 17.6111 4.83565 17.6111 4.83565V1H13.4703C9.71401 1 9.00238 3.84468 9.00238 5.64391V7.69565H6.13281V11.5217H9.00238V23H13.785V11.5217H17.4686L17.8674 7.69565Z" fill="#66E1FF"/>
<path d="M14.8668 7.69565H13.785V5.87826C13.7069 5.30181 14.172 4.79622 14.7529 4.82609C15.1528 4.82609 17.6111 4.83565 17.6111 4.83565V1H13.4703C9.71401 1 9.00238 3.84468 9.00238 5.64391V7.69565H6.13281V11.5217H9.00238V13.5601L14.8668 7.69565Z" fill="#C2F3FF"/>
<path d="M17.8674 7.69565H13.785V5.87826C13.7069 5.30181 14.172 4.79622 14.7529 4.82609C15.1528 4.82609 17.6111 4.83565 17.6111 4.83565V1H13.4703C9.71401 1 9.00238 3.84468 9.00238 5.64391V7.69565H6.13281V11.5217H9.00238V23H13.785V11.5217H17.4686L17.8674 7.69565Z" stroke="#191919" stroke-linecap="round" stroke-linejoin="round"/>
</svg>
