<svg width="24" height="24" viewBox="0 0 24 24" fill="none" xmlns="http://www.w3.org/2000/svg">
<g clip-path="url(#clip0_5303_9749)">
<path d="M1.11163 21.1222C1.03556 21.2679 0.998289 21.4306 1.00339 21.5948C1.0085 21.759 1.05581 21.9192 1.14077 22.0598C1.22574 22.2004 1.34549 22.3168 1.48848 22.3976C1.63147 22.4785 1.79289 22.5212 1.95718 22.5216H22.0438C22.2082 22.5216 22.3699 22.4791 22.5132 22.3984C22.6564 22.3175 22.7765 22.2012 22.8616 22.0606C22.9468 21.9199 22.9943 21.7597 22.9995 21.5953C23.0047 21.431 22.9674 21.268 22.8913 21.1222L12.848 1.99212C12.7669 1.83739 12.6452 1.7078 12.4958 1.61736C12.3465 1.52693 12.1752 1.47913 12.0005 1.47913C11.8258 1.47913 11.6545 1.52693 11.5052 1.61736C11.3558 1.7078 11.234 1.83739 11.153 1.99212L1.11163 21.1222Z" fill="#FFEF5E"/>
<path d="M12.0004 1.47841C11.8254 1.47733 11.6534 1.52475 11.5037 1.61542C11.3539 1.70608 11.2322 1.83644 11.152 1.99206L1.1087 21.1222C1.03252 21.2681 0.995253 21.431 1.00048 21.5955C1.00572 21.76 1.05329 21.9203 1.13859 22.061C1.22389 22.2017 1.34404 22.318 1.48743 22.3986C1.63082 22.4794 1.79259 22.5216 1.95712 22.5216H12.0004V1.47841Z" fill="#FFF9BF"/>
<path d="M13.9143 13.4348C14.7066 13.4348 15.349 12.7924 15.349 12C15.349 11.2076 14.7066 10.5652 13.9143 10.5652C13.1219 10.5652 12.4795 11.2076 12.4795 12C12.4795 12.7924 13.1219 13.4348 13.9143 13.4348Z" fill="#E3E3E3" stroke="#191919" stroke-linecap="round" stroke-linejoin="round"/>
<path d="M7.21871 17.2608C7.74697 17.2608 8.17522 16.8325 8.17522 16.3043C8.17522 15.776 7.74697 15.3477 7.21871 15.3477C6.69044 15.3477 6.26221 15.776 6.26221 16.3043C6.26221 16.8325 6.69044 17.2608 7.21871 17.2608Z" fill="#E3E3E3" stroke="#191919" stroke-linecap="round" stroke-linejoin="round"/>
<path d="M1.11163 21.1222C1.03556 21.2679 0.998289 21.4306 1.00339 21.5948C1.0085 21.759 1.05581 21.9192 1.14077 22.0598C1.22574 22.2004 1.34549 22.3168 1.48848 22.3976C1.63147 22.4785 1.79289 22.5212 1.95718 22.5216H22.0438C22.2082 22.5216 22.3699 22.4791 22.5132 22.3984C22.6564 22.3175 22.7765 22.2012 22.8616 22.0606C22.9468 21.9199 22.9943 21.7597 22.9995 21.5953C23.0047 21.431 22.9674 21.268 22.8913 21.1222L12.848 1.99212C12.7669 1.83739 12.6452 1.7078 12.4958 1.61736C12.3465 1.52693 12.1752 1.47913 12.0005 1.47913C11.8258 1.47913 11.6545 1.52693 11.5052 1.61736C11.3558 1.7078 11.234 1.83739 11.153 1.99212L1.11163 21.1222Z" stroke="#191919" stroke-linecap="round" stroke-linejoin="round"/>
<path d="M10.0874 13.4348L10.3476 14.2153C10.411 14.4056 10.5327 14.5713 10.6954 14.6887C10.8582 14.8061 11.0537 14.8693 11.2543 14.8695H14.473C14.5988 14.8694 14.7233 14.8941 14.8395 14.9422C14.9557 14.9903 15.0612 15.0608 15.1502 15.1498L16.3047 16.3043" stroke="#191919" stroke-linecap="round" stroke-linejoin="round"/>
<path d="M12.2407 17.2607H10.2014C10.0238 17.2608 9.84977 17.3103 9.69874 17.4038C9.54772 17.4971 9.42568 17.6307 9.3463 17.7896L8.65283 19.1737" stroke="#191919" stroke-linecap="round" stroke-linejoin="round"/>
<path d="M13.4358 14.8695L11.8308 18.0786C11.7408 18.2582 11.7097 18.4616 11.7418 18.6599C11.7739 18.8581 11.8676 19.0413 12.0097 19.1833L12.9566 20.1303" stroke="#191919" stroke-linecap="round" stroke-linejoin="round"/>
</g>
<defs>
<clipPath id="clip0_5303_9749">
<rect width="24" height="24" fill="white"/>
</clipPath>
</defs>
</svg>
