<svg width="24" height="24" viewBox="0 0 24 24" fill="none" xmlns="http://www.w3.org/2000/svg">
<g clip-path="url(#clip0_5303_12825)">
<path d="M16.3039 14.391C17.4082 14.391 18.0984 13.1955 17.5463 12.2391C17.29 11.7953 16.8164 11.5219 16.3039 11.5218C15.1996 11.5218 14.5094 12.7172 15.0615 13.6736C15.3177 14.1175 15.7914 14.391 16.3039 14.391Z" fill="#FF808C" stroke="#191919" stroke-linecap="round" stroke-linejoin="round"/>
<path d="M2.91455 16.3037V8.49768" stroke="#191919" stroke-linecap="round" stroke-linejoin="round"/>
<path d="M21.0859 8.49768V16.3037" stroke="#191919" stroke-linecap="round" stroke-linejoin="round"/>
<path d="M12.0006 4.8272V1.00165H6.74054L5.78418 4.8272H12.0006Z" fill="#C9F7CA" stroke="#191919" stroke-linecap="round" stroke-linejoin="round"/>
<path d="M22.9985 4.8272L21.3497 1.53051C21.1879 1.20662 20.8569 1.00183 20.4948 1.00165H17.2603L18.2166 4.8272H22.9985Z" fill="#C9F7CA" stroke="#191919" stroke-linecap="round" stroke-linejoin="round"/>
<path d="M6.73974 1.00165H3.50522C3.14313 1.00183 2.81212 1.20662 2.65021 1.53051L1.00146 4.8272H5.78338L6.73974 1.00165Z" fill="#FFF9BF" stroke="#191919" stroke-linecap="round" stroke-linejoin="round"/>
<path d="M18.2164 4.8272L17.2601 1.00165H12V4.8272H18.2164Z" fill="#FFF9BF" stroke="#191919" stroke-linecap="round" stroke-linejoin="round"/>
<path d="M18.2163 4.82721V7.69631C19.6136 9.27244 22.1931 8.74484 22.8595 6.7467C22.9629 6.4365 23.0098 6.11035 22.9982 5.78358V4.82721H18.2163Z" fill="#78EB7B" stroke="#191919" stroke-linecap="round" stroke-linejoin="round"/>
<path d="M1.00165 4.82721V5.78358C0.93057 7.8901 3.16656 9.2837 5.02649 8.29202C5.31201 8.13976 5.56833 7.93803 5.78357 7.69631V4.82721H1.00165Z" fill="#FFEF5E" stroke="#191919" stroke-linecap="round" stroke-linejoin="round"/>
<path d="M12 4.82721V8.30841C13.7462 10.2585 16.8841 9.94942 18.2164 7.69631V4.82721H12Z" fill="#FFEF5E" stroke="#191919" stroke-linecap="round" stroke-linejoin="round"/>
<path d="M5.78418 4.82721V7.69631C7.11651 9.94942 10.2544 10.2585 12.0006 8.30841V4.82721H5.78418Z" fill="#78EB7B" stroke="#191919" stroke-linecap="round" stroke-linejoin="round"/>
<path d="M22.0418 16.3037H1.95783C1.4296 16.3037 1.00146 16.7318 1.00146 17.26V20.1292C1.00146 20.6574 1.4296 21.0856 1.95783 21.0856H22.0418C22.5699 21.0855 22.9981 20.6574 22.9981 20.1292V17.26C22.9981 16.7319 22.5699 16.3037 22.0418 16.3037Z" fill="#C77F67"/>
<path d="M22.0418 16.3037H1.95783C1.4296 16.3037 1.00146 16.7318 1.00146 17.26V19.1728C1.00146 18.6446 1.4296 18.2164 1.95783 18.2164H22.0418C22.5699 18.2165 22.9981 18.6446 22.9981 19.1728V17.26C22.9981 16.7319 22.5699 16.3037 22.0418 16.3037Z" fill="#E3BFB3"/>
<path d="M22.0418 16.3037H1.95783C1.4296 16.3037 1.00146 16.7318 1.00146 17.26V20.1292C1.00146 20.6574 1.4296 21.0856 1.95783 21.0856H22.0418C22.5699 21.0855 22.9981 20.6574 22.9981 20.1292V17.26C22.9981 16.7319 22.5699 16.3037 22.0418 16.3037Z" stroke="#191919" stroke-linecap="round" stroke-linejoin="round"/>
<path d="M2.91455 21.0856V22.9983" stroke="#191919" stroke-linecap="round" stroke-linejoin="round"/>
<path d="M21.0859 21.0856V22.9983" stroke="#191919" stroke-linecap="round" stroke-linejoin="round"/>
<path d="M6.26139 16.3037C7.36569 16.3036 8.05591 15.1081 7.50371 14.1518C7.24748 13.7079 6.77394 13.4346 6.26139 13.4346C5.15708 13.4346 4.46686 14.6301 5.01906 15.5864C5.27529 16.0302 5.74883 16.3037 6.26139 16.3037Z" fill="#FF808C" stroke="#191919" stroke-linecap="round" stroke-linejoin="round"/>
<path d="M9.1311 16.3037C10.2354 16.3036 10.9256 15.1081 10.3734 14.1518C10.1171 13.7079 9.64357 13.4346 9.1311 13.4346C8.02671 13.4346 7.33649 14.6301 7.88869 15.5864C8.14501 16.0302 8.61855 16.3037 9.1311 16.3037Z" fill="#FF808C" stroke="#191919" stroke-linecap="round" stroke-linejoin="round"/>
<path d="M14.8688 16.3037C15.9732 16.3036 16.6634 15.1081 16.1111 14.1518C15.8549 13.7079 15.3814 13.4346 14.8688 13.4346C13.7645 13.4346 13.0743 14.6301 13.6265 15.5864C13.8827 16.0302 14.3563 16.3037 14.8688 16.3037Z" fill="#FF808C" stroke="#191919" stroke-linecap="round" stroke-linejoin="round"/>
<path d="M17.7385 16.3037C18.8428 16.3036 19.533 15.1081 18.9808 14.1518C18.7245 13.7079 18.251 13.4346 17.7385 13.4346C16.6341 13.4346 15.944 14.6301 16.4961 15.5864C16.7524 16.0302 17.2259 16.3037 17.7385 16.3037Z" fill="#FF808C" stroke="#191919" stroke-linecap="round" stroke-linejoin="round"/>
</g>
<defs>
<clipPath id="clip0_5303_12825">
<rect width="24" height="24" fill="white"/>
</clipPath>
</defs>
</svg>
