<svg width="24" height="24" viewBox="0 0 24 24" fill="none" xmlns="http://www.w3.org/2000/svg">
<path d="M20.0336 4.67164L19.3382 3.19109C19.2996 3.1089 19.2383 3.03941 19.1615 2.9908C19.0848 2.9422 18.9958 2.91643 18.9049 2.91653H18.1331C18.0296 2.91653 17.9289 2.9501 17.8462 3.01218C17.7636 3.07426 17.7031 3.16151 17.6741 3.26087L15.2734 11.5227H15.1557L15.9429 1.68086C15.9529 1.55486 15.9127 1.43002 15.831 1.33359C15.7493 1.23716 15.6327 1.17703 15.5068 1.1663L13.6006 1.00173C13.5378 0.996369 13.4746 1.00349 13.4145 1.02262C13.3545 1.04175 13.2989 1.0726 13.2508 1.1133C13.2026 1.154 13.1632 1.20377 13.1344 1.2598C13.1056 1.31582 13.0881 1.37702 13.0831 1.43978L12.2405 11.5227H11.7536L10.9101 1.44173C10.9053 1.37888 10.8881 1.31758 10.8594 1.26136C10.8308 1.20514 10.7913 1.15517 10.7434 1.11427C10.6954 1.07338 10.6398 1.04244 10.5797 1.02311C10.5197 1.00378 10.4565 0.996564 10.3936 1.00173L8.48739 1.1663C8.36129 1.17674 8.24446 1.23686 8.16257 1.3333C8.08058 1.42973 8.04027 1.55476 8.05032 1.68086L8.84316 11.5227H8.72076L6.31717 3.26087C6.28828 3.16151 6.22786 3.07435 6.1451 3.01218C6.06223 2.9501 5.9616 2.91663 5.85814 2.91663H5.08629C4.99542 2.91643 4.90641 2.9422 4.82969 2.9908C4.75297 3.03941 4.69168 3.1089 4.65303 3.19109L3.9577 4.67164C3.90938 4.77481 3.89952 4.89183 3.92988 5.00164L5.72228 11.5227L7.45728 16.6396H16.5712L18.2718 11.5227L20.0652 4.99969C20.0933 4.89008 20.082 4.77393 20.0336 4.67164Z" fill="#FFEF5E"/>
<path d="M19.1724 8.24014L20.062 5.00164C20.0925 4.89193 20.083 4.775 20.0351 4.67164L19.3398 3.19109C19.301 3.10891 19.2398 3.03941 19.163 2.99081C19.0863 2.9422 18.9974 2.91643 18.9065 2.91663H18.1347C18.0312 2.91663 17.9305 2.95011 17.8477 3.01218C17.765 3.07426 17.7045 3.16161 17.6755 3.26088L16.6934 6.6448C17.5872 7.06352 18.4209 7.60005 19.1724 8.24014Z" fill="#FFF9BF"/>
<path d="M15.5797 6.18958L15.9422 1.68086C15.9523 1.55486 15.9121 1.43002 15.8304 1.33359C15.7487 1.23716 15.632 1.17703 15.5061 1.1663L13.5999 1.00173C13.5372 0.996369 13.4739 1.00349 13.4139 1.02262C13.3539 1.04175 13.2982 1.0726 13.2501 1.1133C13.202 1.154 13.1626 1.20377 13.1338 1.2598C13.105 1.31582 13.0875 1.37702 13.0824 1.43978L12.7334 5.61947C13.7031 5.6833 14.6602 5.875 15.5797 6.18958Z" fill="#FFF9BF"/>
<path d="M4.81944 8.24209C5.57148 7.60142 6.40589 7.06421 7.30043 6.6448L6.31717 3.26088C6.28828 3.16152 6.22786 3.07435 6.1451 3.01218C6.06223 2.95011 5.9616 2.91663 5.85814 2.91663H5.08629C4.99542 2.91643 4.90641 2.9422 4.82969 2.99081C4.75297 3.03941 4.69168 3.10891 4.65303 3.19109L3.9577 4.67164C3.90938 4.77481 3.89952 4.89184 3.92988 5.00164L4.81944 8.24209Z" fill="#FFF9BF"/>
<path d="M11.2597 5.62241L10.9095 1.44174C10.9048 1.37889 10.8876 1.31759 10.8589 1.26137C10.8303 1.20515 10.7909 1.15518 10.7428 1.11428C10.6949 1.07339 10.6393 1.04245 10.5793 1.02312C10.5192 1.00379 10.456 0.996574 10.3931 1.00174L8.48692 1.16631C8.36082 1.17675 8.24399 1.23687 8.1621 1.33331C8.08011 1.42974 8.0398 1.55467 8.04985 1.68087L8.41323 6.19046C9.33266 5.87569 10.2899 5.68468 11.2597 5.62241Z" fill="#FFF9BF"/>
<path d="M20.0336 4.67164L19.3382 3.19109C19.2996 3.1089 19.2383 3.03941 19.1615 2.9908C19.0848 2.9422 18.9958 2.91643 18.9049 2.91653H18.1331C18.0296 2.91653 17.9289 2.9501 17.8462 3.01218C17.7636 3.07426 17.7031 3.16151 17.6741 3.26087L15.2734 11.5227H15.1557L15.9429 1.68086C15.9529 1.55486 15.9127 1.43002 15.831 1.33359C15.7493 1.23716 15.6327 1.17703 15.5068 1.1663L13.6006 1.00173C13.5378 0.996369 13.4746 1.00349 13.4145 1.02262C13.3545 1.04175 13.2989 1.0726 13.2508 1.1133C13.2026 1.154 13.1632 1.20377 13.1344 1.2598C13.1056 1.31582 13.0881 1.37702 13.0831 1.43978L12.2405 11.5227H11.7536L10.9101 1.44173C10.9053 1.37888 10.8881 1.31758 10.8594 1.26136C10.8308 1.20514 10.7913 1.15517 10.7434 1.11427C10.6954 1.07338 10.6398 1.04244 10.5797 1.02311C10.5197 1.00378 10.4565 0.996564 10.3936 1.00173L8.48739 1.1663C8.36129 1.17674 8.24446 1.23686 8.16257 1.3333C8.08058 1.42973 8.04027 1.55476 8.05032 1.68086L8.84316 11.5227H8.72076L6.31717 3.26087C6.28828 3.16151 6.22786 3.07435 6.1451 3.01218C6.06223 2.9501 5.9616 2.91663 5.85814 2.91663H5.08629C4.99542 2.91643 4.90641 2.9422 4.82969 2.9908C4.75297 3.03941 4.69168 3.1089 4.65303 3.19109L3.9577 4.67164C3.90938 4.77481 3.89952 4.89183 3.92988 5.00164L5.72228 11.5227L7.45728 16.6396H16.5712L18.2718 11.5227L20.0652 4.99969C20.0933 4.89008 20.082 4.77393 20.0336 4.67164Z" stroke="#191919" stroke-linecap="round" stroke-linejoin="round"/>
<path d="M11.999 14.434L10.9095 1.44174C10.9048 1.37889 10.8876 1.31759 10.8589 1.26137C10.8303 1.20515 10.7909 1.15518 10.7428 1.11428C10.6949 1.07339 10.6393 1.04245 10.5793 1.02312C10.5192 1.00379 10.456 0.996574 10.3931 1.00174L8.48692 1.16631C8.36082 1.17675 8.24399 1.23687 8.1621 1.33331C8.08011 1.42974 8.0398 1.55467 8.04985 1.68087L9.03399 13.8669" stroke="#191919" stroke-linecap="round" stroke-linejoin="round"/>
<path d="M11.999 14.4342L13.0836 1.44182C13.0883 1.37906 13.1056 1.31786 13.1344 1.26184C13.1631 1.20581 13.2027 1.15613 13.251 1.11572C13.2988 1.07463 13.3543 1.0435 13.4142 1.02397C13.4741 1.00436 13.5373 0.996938 13.6001 1.00182L15.5063 1.16443C15.6324 1.17497 15.7493 1.23499 15.8312 1.33143C15.913 1.42786 15.9534 1.55289 15.9434 1.67899L14.964 13.867" stroke="#191919" stroke-linecap="round" stroke-linejoin="round"/>
<path d="M18.8236 17.2632L18.1062 20.1326H5.88194L5.16455 17.2632H18.8236Z" fill="#FFEF5E" stroke="#191919" stroke-linecap="round" stroke-linejoin="round"/>
<path d="M5.87744 20.1307H18.1055L17.5699 22.2731C17.5187 22.4806 17.3993 22.665 17.231 22.7968C17.0626 22.9285 16.8549 23.0001 16.6412 23H7.3455C7.13175 23.0001 6.92415 22.9285 6.75578 22.7968C6.58751 22.665 6.46814 22.4806 6.4168 22.2731L5.87744 20.1307Z" fill="#FF808C" stroke="#191919" stroke-linecap="round" stroke-linejoin="round"/>
<path d="M20.1148 12.1176L18.8236 17.2632H5.1645L3.88384 12.1176C3.86403 12.0472 3.8613 11.9732 3.87613 11.9016C3.89097 11.83 3.92279 11.7631 3.96895 11.7064C4.01395 11.6489 4.07144 11.6025 4.13703 11.5706C4.20271 11.5388 4.27475 11.5224 4.34775 11.5227H6.78668C6.89844 11.522 7.00687 11.561 7.09257 11.6329C7.17817 11.7047 7.23556 11.8046 7.2544 11.9148C7.85691 15.2719 16.1312 15.2719 16.7337 11.9148C16.7527 11.8045 16.8103 11.7046 16.8961 11.6328C16.9819 11.5609 17.0904 11.522 17.2024 11.5227H19.6509C19.7238 11.522 19.7959 11.538 19.8617 11.5696C19.9276 11.601 19.9853 11.6471 20.0304 11.7043C20.0757 11.7616 20.1073 11.8284 20.1227 11.8997C20.138 11.971 20.137 12.0449 20.1195 12.1157L20.1148 12.1176Z" fill="#FF808C" stroke="#191919" stroke-linecap="round" stroke-linejoin="round"/>
</svg>
