<svg width="24" height="24" viewBox="0 0 24 24" fill="none" xmlns="http://www.w3.org/2000/svg">
<g clip-path="url(#clip0_5303_3872)">
<path d="M18.892 4.82542C19.0714 5.00474 19.1721 5.24795 19.1722 5.50156V22.0399C19.1722 22.2935 19.0715 22.5367 18.8921 22.7161C18.7127 22.8955 18.4695 22.9961 18.2159 22.9961H1.95782C1.70418 22.9961 1.46093 22.8955 1.28158 22.7161C1.10222 22.5367 1.00146 22.2935 1.00146 22.0399V1.95636C1.00146 1.70271 1.10222 1.45947 1.28158 1.28011C1.46093 1.10076 1.70418 1 1.95782 1H14.6707C14.7967 1.0009 14.9213 1.02672 15.0374 1.07595C15.1534 1.12519 15.2585 1.19688 15.3468 1.28691L18.892 4.82542Z" fill="#E3E3E3"/>
<path d="M17.118 3.05426L15.3468 1.28691C15.2585 1.19688 15.1534 1.12519 15.0374 1.07595C14.9213 1.02672 14.7967 1.0009 14.6707 1H1.95782C1.70418 1 1.46093 1.10076 1.28158 1.28011C1.10222 1.45947 1.00146 1.70271 1.00146 1.95636V19.1707L17.118 3.05426Z" fill="white"/>
<path d="M17.26 23C20.4291 23 22.9982 20.431 22.9982 17.2618C22.9982 14.0928 20.4291 11.5238 17.26 11.5238C14.091 11.5238 11.522 14.0928 11.522 17.2618C11.522 20.431 14.091 23 17.26 23Z" fill="#78EB7B"/>
<path d="M13.2024 21.3186C12.1263 20.2425 11.5219 18.7829 11.522 17.2609C11.5221 15.7391 12.1267 14.2795 13.2029 13.2034C14.2791 12.1274 15.7387 11.5229 17.2606 11.5229C18.7825 11.523 20.242 12.1277 21.318 13.2039L13.2024 21.3186Z" fill="#C9F7CA"/>
<path d="M19.8168 15.593L17.0386 19.2979C16.9769 19.38 16.8982 19.448 16.8079 19.4971C16.7176 19.5462 16.6177 19.5754 16.5152 19.5826C16.4126 19.5899 16.3097 19.5751 16.2135 19.5391C16.1171 19.5032 16.0297 19.447 15.957 19.3744L14.5225 17.9399" stroke="#191919" stroke-linecap="round" stroke-linejoin="round"/>
<path d="M17.26 23C20.4291 23 22.9982 20.431 22.9982 17.2618C22.9982 14.0928 20.4291 11.5238 17.26 11.5238C14.091 11.5238 11.522 14.0928 11.522 17.2618C11.522 20.431 14.091 23 17.26 23Z" stroke="#191919" stroke-linecap="round" stroke-linejoin="round"/>
<path d="M10.565 22.9961H1.95782C1.70418 22.9961 1.46093 22.8955 1.28158 22.7161C1.10222 22.5367 1.00146 22.2935 1.00146 22.0399V1.95636C1.00146 1.70271 1.10222 1.45947 1.28158 1.28011C1.46093 1.10076 1.70418 1 1.95782 1H14.6707C14.7967 1.0009 14.9213 1.02672 15.0374 1.07595C15.1534 1.12519 15.2585 1.19688 15.3468 1.28691L18.892 4.82542C19.0714 5.00474 19.1721 5.24795 19.1722 5.50156V9.6072" stroke="#191919" stroke-linecap="round" stroke-linejoin="round"/>
<path d="M3.87061 5.78552V9.61094" stroke="#191919" stroke-linecap="round" stroke-linejoin="round"/>
<path d="M12.478 5.78552V9.61094" stroke="#191919" stroke-linecap="round" stroke-linejoin="round"/>
<path d="M9.60889 12.4801V16.3055" stroke="#191919" stroke-linecap="round" stroke-linejoin="round"/>
<path d="M15.3472 5.78552V9.61094" stroke="#191919" stroke-linecap="round" stroke-linejoin="round"/>
<path d="M8.17428 5.78174C8.55474 5.78174 8.91962 5.93287 9.18865 6.20191C9.45767 6.47093 9.60882 6.83581 9.60882 7.21627V8.17263C9.60882 8.55309 9.45767 8.91797 9.18865 9.187C8.91962 9.45602 8.55474 9.60716 8.17428 9.60716C7.79382 9.60716 7.42894 9.45602 7.15991 9.187C6.89088 8.91797 6.73975 8.55309 6.73975 8.17263V7.21627C6.73975 6.83581 6.89088 6.47093 7.15991 6.20191C7.42894 5.93287 7.79382 5.78174 8.17428 5.78174Z" stroke="#191919" stroke-linecap="round" stroke-linejoin="round"/>
<path d="M5.30514 12.4762C5.6856 12.4762 6.05048 12.6273 6.31951 12.8964C6.58854 13.1654 6.73968 13.5302 6.73968 13.9107V14.8671C6.73968 15.2475 6.58854 15.6125 6.31951 15.8815C6.05048 16.1505 5.6856 16.3016 5.30514 16.3016C4.92468 16.3016 4.5598 16.1505 4.29078 15.8815C4.02174 15.6125 3.87061 15.2475 3.87061 14.8671V13.9107C3.87061 13.5302 4.02174 13.1654 4.29078 12.8964C4.5598 12.6273 4.92468 12.4762 5.30514 12.4762Z" stroke="#191919" stroke-linecap="round" stroke-linejoin="round"/>
</g>
<defs>
<clipPath id="clip0_5303_3872">
<rect width="24" height="24" fill="white"/>
</clipPath>
</defs>
</svg>
