<svg width="24" height="24" viewBox="0 0 24 24" fill="none" xmlns="http://www.w3.org/2000/svg">
<path d="M20.8067 4.82609C20.9862 5.00543 21.0869 5.24868 21.087 5.50235V22.0435C21.087 22.2971 20.9862 22.5405 20.8068 22.7198C20.6275 22.8992 20.3841 23 20.1305 23H3.86961C3.61592 23 3.37263 22.8992 3.19324 22.7198C3.01387 22.5405 2.91309 22.2971 2.91309 22.0435V1.95652C2.91309 1.70283 3.01387 1.45954 3.19324 1.28016C3.37263 1.10078 3.61592 1 3.86961 1H16.5847C16.7107 1.0009 16.8354 1.02672 16.9514 1.07597C17.0675 1.12521 17.1726 1.19692 17.2609 1.28696L20.8067 4.82609Z" fill="#E3E3E3"/>
<path d="M19.0324 3.05461L17.2609 1.28696C17.1726 1.19692 17.0675 1.12521 16.9514 1.07597C16.8354 1.02672 16.7107 1.0009 16.5847 1H3.86961C3.61592 1 3.37263 1.10078 3.19324 1.28016C3.01387 1.45954 2.91309 1.70283 2.91309 1.95652V19.1739L19.0324 3.05461Z" fill="white"/>
<path d="M10.0876 9.13434L6.73975 12.4821L10.0876 15.8299" stroke="#191919" stroke-linecap="round" stroke-linejoin="round"/>
<path d="M13.9136 9.13434L17.2614 12.4821L13.9136 15.8299" stroke="#191919" stroke-linecap="round" stroke-linejoin="round"/>
<path d="M20.8067 4.82609C20.9862 5.00543 21.0869 5.24868 21.087 5.50235V22.0435C21.087 22.2971 20.9862 22.5405 20.8068 22.7198C20.6275 22.8992 20.3841 23 20.1305 23H3.86961C3.61592 23 3.37263 22.8992 3.19324 22.7198C3.01387 22.5405 2.91309 22.2971 2.91309 22.0435V1.95652C2.91309 1.70283 3.01387 1.45954 3.19324 1.28016C3.37263 1.10078 3.61592 1 3.86961 1H16.5847C16.7107 1.0009 16.8354 1.02672 16.9514 1.07597C17.0675 1.12521 17.1726 1.19692 17.2609 1.28696L20.8067 4.82609Z" stroke="#191919" stroke-linecap="round" stroke-linejoin="round"/>
</svg>
