<svg width="24" height="24" viewBox="0 0 24 24" fill="none" xmlns="http://www.w3.org/2000/svg">
<g clip-path="url(#clip0_5303_5106)">
<path d="M23.0001 6.71056V22.0432C23.0001 22.2969 22.8993 22.5402 22.7199 22.7195C22.5406 22.8989 22.2973 22.9997 22.0436 22.9997H5.78316C5.52947 22.9997 5.28619 22.8989 5.10681 22.7195C4.92744 22.5402 4.82666 22.2969 4.82666 22.0432V1.95677C4.82666 1.7031 4.92744 1.45981 5.10681 1.28043C5.28619 1.10105 5.52947 1.00028 5.78316 1.00028H17.2898C17.6011 1.00002 17.9117 1.02884 18.2176 1.08636V4.82626C18.2176 5.07994 18.3184 5.32323 18.4978 5.50261C18.6771 5.68198 18.9204 5.78276 19.1741 5.78276H22.914C22.9715 6.08867 23.0004 6.39929 23.0001 6.71056Z" fill="#66E1FF"/>
<path d="M18.5524 5.5532L4.82666 19.2885V1.95677C4.82666 1.7031 4.92744 1.45981 5.10681 1.28043C5.28619 1.10105 5.52947 1.00028 5.78316 1.00028H17.2898C17.6011 1.00002 17.9117 1.02884 18.2176 1.08636V4.82626C18.2194 4.96411 18.2502 5.10004 18.3079 5.22525C18.3655 5.35048 18.4488 5.4622 18.5524 5.5532Z" fill="#C2F3FF"/>
<path d="M22.9142 5.78274H19.1743C18.9206 5.78274 18.6773 5.68196 18.4979 5.50258C18.3186 5.32321 18.2178 5.07991 18.2178 4.82624V1.08633C19.3952 1.27524 20.4831 1.83089 21.3264 2.67414C22.1696 3.5174 22.7253 4.60525 22.9142 5.78274Z" fill="#E3E3E3"/>
<path d="M6.73996 22.9997C9.90951 22.9997 12.4789 20.4302 12.4789 17.2607C12.4789 14.0911 9.90951 11.5217 6.73996 11.5217C3.5704 11.5217 1.00098 14.0911 1.00098 17.2607C1.00098 20.4302 3.5704 22.9997 6.73996 22.9997Z" fill="#E3E3E3"/>
<path d="M2.68105 21.3191C1.60469 20.2427 1 18.7828 1 17.2607C1 15.7385 1.60469 14.2786 2.68105 13.2023C3.75741 12.1259 5.21726 11.5212 6.73947 11.5212C8.26167 11.5212 9.72152 12.1259 10.7979 13.2023L2.68105 21.3191Z" fill="white"/>
<path d="M6.73996 22.9997C9.90951 22.9997 12.4789 20.4302 12.4789 17.2607C12.4789 14.0911 9.90951 11.5217 6.73996 11.5217C3.5704 11.5217 1.00098 14.0911 1.00098 17.2607C1.00098 20.4302 3.5704 22.9997 6.73996 22.9997Z" stroke="#191919" stroke-linecap="round" stroke-linejoin="round"/>
<path d="M13.4351 22.9997H22.0436C22.2973 22.9997 22.5406 22.8989 22.7199 22.7195C22.8993 22.5402 23.0001 22.2969 23.0001 22.0432V6.71534C23.0001 5.19961 22.398 3.74597 21.3262 2.67418C20.2544 1.6024 18.8008 1.00027 17.285 1.00027H5.78316C5.52947 1.00027 5.28619 1.10105 5.10681 1.28043C4.92744 1.4598 4.82666 1.70309 4.82666 1.95677V8.65226" stroke="#191919" stroke-linecap="round" stroke-linejoin="round"/>
<path d="M18.2178 1.07675V4.82622C18.2178 5.07989 18.3186 5.32319 18.4979 5.50256C18.6773 5.68194 18.9206 5.78272 19.1743 5.78272H22.9237" stroke="#191919" stroke-linecap="round" stroke-linejoin="round"/>
<path d="M2.91309 15.3477H4.82608" stroke="#191919" stroke-linecap="round" stroke-linejoin="round"/>
<path d="M3.87012 15.3477V19.1737" stroke="#191919" stroke-linecap="round" stroke-linejoin="round"/>
<path d="M6.73975 19.1737V15.3477L8.17449 17.739L9.60924 15.3477V19.1737" stroke="#191919" stroke-linecap="round" stroke-linejoin="round"/>
</g>
<defs>
<clipPath id="clip0_5303_5106">
<rect width="24" height="24" fill="white"/>
</clipPath>
</defs>
</svg>
