<svg width="24" height="24" viewBox="0 0 24 24" fill="none" xmlns="http://www.w3.org/2000/svg">
<path d="M21.087 6.71044V22.0435C21.087 22.2972 20.9862 22.5405 20.8068 22.7198C20.6275 22.8992 20.3842 23 20.1305 23H3.86961C3.61592 23 3.37263 22.8992 3.19324 22.7198C3.01386 22.5405 2.91309 22.2972 2.91309 22.0435V1.95652C2.91309 1.70284 3.01386 1.45954 3.19324 1.28016C3.37263 1.10078 3.61592 1 3.86961 1H15.3766C15.6874 1 15.9983 1.0287 16.3044 1.08609V4.82609C16.3044 5.07977 16.4052 5.32307 16.5845 5.50245C16.7639 5.68183 17.0072 5.78261 17.2609 5.78261H21.0009C21.0583 6.0887 21.087 6.39957 21.087 6.71044Z" fill="#78EB7B"/>
<path d="M16.6392 5.55304L2.91309 19.2887V1.95652C2.91309 1.70284 3.01386 1.45954 3.19324 1.28016C3.37263 1.10078 3.61592 1 3.86961 1H15.3766C15.6874 1 15.9983 1.0287 16.3044 1.08609V4.82609C16.3062 4.96394 16.337 5.09987 16.3946 5.22509C16.4523 5.35031 16.5356 5.46204 16.6392 5.55304Z" fill="#C9F7CA"/>
<path d="M21.0012 5.78258H17.2612C17.0075 5.78258 16.7642 5.68181 16.5848 5.50242C16.4055 5.32304 16.3047 5.07975 16.3047 4.82606V1.08606C17.4822 1.27497 18.5701 1.83063 19.4134 2.67391C20.2566 3.51719 20.8123 4.60507 21.0012 5.78258Z" fill="#E3E3E3"/>
<path d="M20.1305 23C20.3842 23 20.6275 22.8992 20.8068 22.7198C20.9862 22.5405 21.087 22.2972 21.087 22.0435V6.71809C21.0874 5.96731 20.9398 5.22382 20.6528 4.53009C20.3657 3.83635 19.9448 3.20597 19.4141 2.67496C18.8833 2.14395 18.2532 1.72272 17.5596 1.43532C16.866 1.14792 16.1226 1 15.3718 1H3.86961C3.61592 1 3.37263 1.10078 3.19324 1.28016C3.01386 1.45954 2.91309 1.70284 2.91309 1.95652V22.0435C2.91309 22.2972 3.01386 22.5405 3.19324 22.7198C3.37263 22.8992 3.61592 23 3.86961 23H20.1305Z" stroke="#191919" stroke-linecap="round" stroke-linejoin="round"/>
<path d="M5.78271 18.2174V13.913C5.78271 13.5325 5.93388 13.1676 6.20295 12.8985C6.47203 12.6294 6.83697 12.4783 7.2175 12.4783C7.59803 12.4783 7.96298 12.6294 8.23205 12.8985C8.50113 13.1676 8.65228 13.5325 8.65228 13.913V18.2174" stroke="#191919" stroke-linecap="round" stroke-linejoin="round"/>
<path d="M5.78271 15.3517H8.65228" stroke="#191919" stroke-linecap="round" stroke-linejoin="round"/>
<path d="M13.435 13.913C13.435 14.2936 13.2838 14.6585 13.0148 14.9276C12.7457 15.1967 12.3807 15.3478 12.0002 15.3478H10.5654V12.4783H12.0002C12.3807 12.4783 12.7457 12.6294 13.0148 12.8985C13.2838 13.1676 13.435 13.5325 13.435 13.913Z" stroke="#191919" stroke-linecap="round" stroke-linejoin="round"/>
<path d="M10.5654 18.2212V15.3517" stroke="#191919" stroke-linecap="round" stroke-linejoin="round"/>
<path d="M18.2177 12.4821L15.3481 15.3517L18.2177 18.2212" stroke="#191919" stroke-linecap="round" stroke-linejoin="round"/>
<path d="M15.3481 18.2212V12.4821" stroke="#191919" stroke-linecap="round" stroke-linejoin="round"/>
<path d="M19.4134 2.67771C18.5694 1.83364 17.4823 1.27504 16.3047 1.08032V4.82606C16.3047 5.07975 16.4055 5.32304 16.5848 5.50243C16.7642 5.68181 17.0075 5.78258 17.2612 5.78258H21.0108C20.8149 4.60643 20.2564 3.52088 19.4134 2.67771Z" stroke="#191919" stroke-linecap="round" stroke-linejoin="round"/>
</svg>
