<svg width="24" height="24" viewBox="0 0 24 24" fill="none" xmlns="http://www.w3.org/2000/svg">
<path d="M22.5417 6.93087V21.625C22.5417 21.8682 22.4451 22.1013 22.2732 22.2732C22.1013 22.4451 21.8681 22.5417 21.625 22.5417H6.04167C5.79855 22.5417 5.56539 22.4451 5.39349 22.2732C5.22158 22.1013 5.125 21.8682 5.125 21.625V2.37504C5.125 2.13193 5.22158 1.89877 5.39349 1.72686C5.56539 1.55495 5.79855 1.45837 6.04167 1.45837H17.0692C17.3671 1.45837 17.665 1.48587 17.9583 1.54087V5.12504C17.9583 5.36816 18.0549 5.60131 18.2268 5.77322C18.3987 5.94513 18.6319 6.04171 18.875 6.04171H22.4592C22.5142 6.33504 22.5417 6.63296 22.5417 6.93087Z" fill="#66E1FF"/>
<path d="M18.2792 5.82171L5.125 18.985V2.37504C5.125 2.13193 5.22158 1.89877 5.39349 1.72686C5.56539 1.55495 5.79855 1.45837 6.04167 1.45837H17.0692C17.3671 1.45837 17.665 1.48587 17.9583 1.54087V5.12504C17.9601 5.25715 17.9896 5.38742 18.0448 5.50742C18.1001 5.62742 18.1799 5.73449 18.2792 5.82171Z" fill="#C2F3FF"/>
<path d="M22.4593 6.04173H18.8752C18.7548 6.04173 18.6356 6.01802 18.5244 5.97195C18.4132 5.92588 18.3121 5.85836 18.227 5.77324C18.1419 5.68812 18.0743 5.58707 18.0283 5.47585C17.9822 5.36464 17.9585 5.24544 17.9585 5.12506V1.54089C19.0869 1.72193 20.1295 2.25444 20.9376 3.06258C21.7458 3.87072 22.2783 4.91327 22.4593 6.04173Z" fill="#E3E3E3"/>
<path d="M13.375 22.5417H21.625C21.8681 22.5417 22.1013 22.4451 22.2732 22.2732C22.4451 22.1013 22.5417 21.8682 22.5417 21.625V6.93546C22.5417 6.2162 22.4 5.50398 22.1247 4.83947C21.8495 4.17496 21.4461 3.57117 20.9375 3.06257C20.4289 2.55398 19.8251 2.15054 19.1606 1.87529C18.4961 1.60004 17.7838 1.45837 17.0646 1.45837H6.04167C5.79855 1.45837 5.56539 1.55495 5.39349 1.72686C5.22158 1.89877 5.125 2.13193 5.125 2.37504V8.79171" stroke="#191919" stroke-linecap="round" stroke-linejoin="round"/>
<path d="M17.9585 1.53162V5.12495C17.9585 5.24533 17.9822 5.36453 18.0283 5.47574C18.0743 5.58696 18.1419 5.68801 18.227 5.77313C18.3121 5.85825 18.4132 5.92577 18.5244 5.97184C18.6356 6.01791 18.7548 6.04162 18.8752 6.04162H22.4685" stroke="#191919" stroke-linecap="round" stroke-linejoin="round"/>
<path d="M6.9585 22.5416C8.41719 22.5416 9.81613 21.9622 10.8476 20.9307C11.879 19.8993 12.4585 18.5003 12.4585 17.0416C12.4585 15.5829 11.879 14.184 10.8476 13.1525C9.81613 12.1211 8.41719 11.5416 6.9585 11.5416C5.49981 11.5416 4.10086 12.1211 3.06941 13.1525C2.03796 14.184 1.4585 15.5829 1.4585 17.0416C1.4585 18.5003 2.03796 19.8993 3.06941 20.9307C4.10086 21.9622 5.49981 22.5416 6.9585 22.5416Z" fill="#FFEF5E"/>
<path d="M3.06906 20.9311C2.03752 19.8996 1.45801 18.5005 1.45801 17.0417C1.45801 15.5829 2.03752 14.1838 3.06906 13.1523C4.10059 12.1208 5.49966 11.5413 6.95847 11.5413C8.41729 11.5413 9.81635 12.1208 10.8479 13.1523L3.06906 20.9311Z" fill="#FFF9BF"/>
<path d="M6.9585 22.5416C8.41719 22.5416 9.81613 21.9622 10.8476 20.9307C11.879 19.8993 12.4585 18.5003 12.4585 17.0416C12.4585 15.5829 11.879 14.184 10.8476 13.1525C9.81613 12.1211 8.41719 11.5416 6.9585 11.5416C5.49981 11.5416 4.10086 12.1211 3.06941 13.1525C2.03796 14.184 1.4585 15.5829 1.4585 17.0416C1.4585 18.5003 2.03796 19.8993 3.06941 20.9307C4.10086 21.9622 5.49981 22.5416 6.9585 22.5416Z" stroke="#191919" stroke-linecap="round" stroke-linejoin="round"/>
<path d="M5.125 16.125H8.79167" stroke="#191919" stroke-linecap="round" stroke-linejoin="round"/>
<path d="M5.125 17.9584H8.79167" stroke="#191919" stroke-linecap="round" stroke-linejoin="round"/>
</svg>
