<svg width="24" height="24" viewBox="0 0 24 24" fill="none" xmlns="http://www.w3.org/2000/svg">
<g clip-path="url(#clip0_5303_3822)">
<path d="M19.1744 6.71043V22.0435C19.1744 22.2972 19.0736 22.5405 18.8942 22.7198C18.7149 22.8992 18.4716 23 18.2179 23H1.95701C1.70332 23 1.46003 22.8992 1.28065 22.7198C1.10126 22.5405 1.00049 22.2972 1.00049 22.0435V1.95652C1.00049 1.70284 1.10126 1.45954 1.28065 1.28016C1.46003 1.10078 1.70332 1 1.95701 1H13.464C13.7748 1 14.0857 1.0287 14.3918 1.08609V4.82609C14.3918 5.07977 14.4926 5.32307 14.672 5.50245C14.8513 5.68183 15.0946 5.78261 15.3483 5.78261H19.0883C19.1457 6.0887 19.1744 6.39957 19.1744 6.71043Z" fill="#FF808C"/>
<path d="M14.7266 5.55304L1.00049 19.2887V1.95652C1.00049 1.70284 1.10126 1.45954 1.28065 1.28016C1.46003 1.10078 1.70332 1 1.95701 1H13.464C13.7748 1 14.0857 1.0287 14.3918 1.08609V4.82609C14.3936 4.96394 14.4244 5.09987 14.482 5.22509C14.5397 5.35031 14.623 5.46204 14.7266 5.55304Z" fill="#FFBFC5"/>
<path d="M19.0876 5.78258H15.3476C15.0939 5.78258 14.8507 5.6818 14.6713 5.50242C14.4919 5.32304 14.3911 5.07974 14.3911 4.82606V1.08606C15.5686 1.27497 16.6565 1.83063 17.4998 2.67391C18.3431 3.51719 18.8987 4.60506 19.0876 5.78258Z" fill="#E3E3E3"/>
<path d="M17.4998 2.67771C16.6558 1.83364 15.5687 1.27504 14.3911 1.08032V4.82606C14.3911 5.07975 14.4919 5.32304 14.6713 5.50242C14.8507 5.68181 15.0939 5.78258 15.3476 5.78258H19.0972C18.9014 4.60643 18.3429 3.52088 17.4998 2.67771Z" stroke="#191919" stroke-linecap="round" stroke-linejoin="round"/>
<path d="M19.1744 9.6087V6.71809C19.1748 5.96731 19.0272 5.22382 18.7402 4.53009C18.4531 3.83635 18.0322 3.20597 17.5015 2.67496C16.9707 2.14395 16.3406 1.72272 15.647 1.43532C14.9534 1.14792 14.21 1 13.4592 1H1.95701C1.70332 1 1.46003 1.10078 1.28065 1.28016C1.10126 1.45954 1.00049 1.70284 1.00049 1.95652V22.0435C1.00049 22.2972 1.10126 22.5405 1.28065 22.7198C1.46003 22.8992 1.70332 23 1.95701 23H18.2179C18.4716 23 18.7149 22.8992 18.8942 22.7198C19.0736 22.5405 19.1744 22.2972 19.1744 22.0435V21.087" stroke="#191919" stroke-linecap="round" stroke-linejoin="round"/>
<path d="M8.65228 12.4783V16.7826C8.65228 17.1631 8.50113 17.5281 8.23205 17.7972C7.96298 18.0662 7.59803 18.2174 7.2175 18.2174C6.83697 18.2174 6.47203 18.0662 6.20295 17.7972C5.93388 17.5281 5.78271 17.1631 5.78271 16.7826" stroke="#191919" stroke-linecap="round" stroke-linejoin="round"/>
<path d="M10.5654 18.2174V13.9131C10.5654 13.5325 10.7166 13.1676 10.9857 12.8985C11.2547 12.6294 11.6197 12.4783 12.0002 12.4783C12.3807 12.4783 12.7457 12.6294 13.0148 12.8985C13.2838 13.1676 13.435 13.5325 13.435 13.9131V18.2174" stroke="#191919" stroke-linecap="round" stroke-linejoin="round"/>
<path d="M10.5654 15.3517H13.435" stroke="#191919" stroke-linecap="round" stroke-linejoin="round"/>
<path d="M20.1304 18.2174V13.9131C20.1304 13.5325 20.2815 13.1676 20.5506 12.8985C20.8197 12.6294 21.1846 12.4783 21.5652 12.4783C21.9457 12.4783 22.3106 12.6294 22.5797 12.8985C22.8488 13.1676 22.9999 13.5325 22.9999 13.9131V18.2174" stroke="#191919" stroke-linecap="round" stroke-linejoin="round"/>
<path d="M20.1304 15.3517H22.9999" stroke="#191919" stroke-linecap="round" stroke-linejoin="round"/>
<path d="M18.2177 12.4783V13.9131C18.2177 15.4653 17.7143 16.9756 16.7829 18.2174C15.8516 16.9756 15.3481 15.4653 15.3481 13.9131V12.4783" stroke="#191919" stroke-linecap="round" stroke-linejoin="round"/>
</g>
<defs>
<clipPath id="clip0_5303_3822">
<rect width="24" height="24" fill="white"/>
</clipPath>
</defs>
</svg>
