<svg width="24" height="24" viewBox="0 0 24 24" fill="none" xmlns="http://www.w3.org/2000/svg">
<g clip-path="url(#clip0_5303_4023)">
<path d="M18.8927 4.82544C19.072 5.00476 19.1728 5.24797 19.1728 5.5016V22.04C19.1728 22.2936 19.0721 22.5368 18.8928 22.7162C18.7134 22.8956 18.4701 22.9964 18.2165 22.9964H1.95831C1.70467 22.9964 1.46142 22.8956 1.28207 22.7162C1.10271 22.5368 1.00195 22.2936 1.00195 22.04V1.95636C1.00195 1.70272 1.10271 1.45947 1.28207 1.28011C1.46142 1.10076 1.70467 1 1.95831 1H14.6712C14.7973 1.0009 14.9219 1.02672 15.0379 1.07595C15.154 1.12519 15.2592 1.19689 15.3474 1.28691L18.8927 4.82544Z" fill="#E3E3E3"/>
<path d="M17.1185 3.05427L15.3474 1.28691C15.2592 1.19689 15.154 1.12519 15.0379 1.07595C14.9219 1.02672 14.7973 1.0009 14.6712 1H1.95831C1.70467 1 1.46142 1.10076 1.28207 1.28011C1.10271 1.45947 1.00195 1.70272 1.00195 1.95636V19.1708L17.1185 3.05427Z" fill="white"/>
<path d="M18.0618 12.4829C17.9842 12.3378 17.8688 12.2163 17.7275 12.1317C17.5864 12.0471 17.4249 12.0023 17.2604 12.0023C17.0958 12.0023 16.9343 12.0471 16.7931 12.1317C16.6519 12.2163 16.5365 12.3378 16.4589 12.4829L11.6235 21.6965C11.5522 21.8322 11.5173 21.9842 11.5225 22.1375C11.5277 22.2907 11.5727 22.44 11.6532 22.5706C11.7345 22.7021 11.8481 22.8106 11.9832 22.8858C12.1183 22.9609 12.2704 23.0003 12.425 23H22.0957C22.2503 23.0003 22.4024 22.9609 22.5375 22.8858C22.6726 22.8106 22.7862 22.7021 22.8675 22.5706C22.9479 22.44 22.993 22.2907 22.9981 22.1375C23.0033 21.9842 22.9686 21.8322 22.8972 21.6965L18.0618 12.4829Z" fill="#FFEF5E"/>
<path d="M17.2604 11.9982C17.0959 11.9974 16.9343 12.0415 16.7931 12.1258C16.6519 12.21 16.5364 12.3313 16.4589 12.4763L11.6235 21.6899C11.5522 21.8257 11.5173 21.9777 11.5225 22.1309C11.5277 22.2842 11.5727 22.4334 11.6532 22.5641C11.7345 22.6955 11.8481 22.804 11.9832 22.8792C12.1183 22.9543 12.2704 22.9937 12.425 22.9934H17.2604V11.9982Z" fill="#FFF9BF"/>
<path d="M17.2603 18.2181V15.3491" stroke="#191919" stroke-linecap="round" stroke-linejoin="round"/>
<path d="M18.0618 12.4829C17.9842 12.3378 17.8688 12.2163 17.7275 12.1317C17.5864 12.0471 17.4249 12.0023 17.2604 12.0023C17.0958 12.0023 16.9343 12.0471 16.7931 12.1317C16.6519 12.2163 16.5365 12.3378 16.4589 12.4829L11.6235 21.6965C11.5522 21.8322 11.5173 21.9842 11.5225 22.1375C11.5277 22.2907 11.5727 22.44 11.6532 22.5706C11.7345 22.7021 11.8481 22.8106 11.9832 22.8858C12.1183 22.9609 12.2704 23.0003 12.425 23H22.0957C22.2503 23.0003 22.4024 22.9609 22.5375 22.8858C22.6726 22.8106 22.7862 22.7021 22.8675 22.5706C22.9479 22.44 22.993 22.2907 22.9981 22.1375C23.0033 21.9842 22.9686 21.8322 22.8972 21.6965L18.0618 12.4829Z" stroke="#191919" stroke-linecap="round" stroke-linejoin="round"/>
<path d="M8.65285 22.9964H1.95831C1.70467 22.9964 1.46142 22.8956 1.28207 22.7162C1.10271 22.5368 1.00195 22.2936 1.00195 22.04V1.95636C1.00195 1.70272 1.10271 1.45947 1.28207 1.28011C1.46142 1.10076 1.70467 1 1.95831 1H14.6712C14.7973 1.0009 14.9219 1.02672 15.0379 1.07595C15.154 1.12519 15.2592 1.19689 15.3474 1.28691L18.8927 4.82544C19.072 5.00476 19.1728 5.24797 19.1728 5.5016V8.6509" stroke="#191919" stroke-linecap="round" stroke-linejoin="round"/>
<path d="M3.87109 5.7854V9.61084" stroke="#191919" stroke-linecap="round" stroke-linejoin="round"/>
<path d="M12.478 5.7854V9.61084" stroke="#191919" stroke-linecap="round" stroke-linejoin="round"/>
<path d="M9.60938 12.4801V16.3055" stroke="#191919" stroke-linecap="round" stroke-linejoin="round"/>
<path d="M15.3477 5.7854V9.61084" stroke="#191919" stroke-linecap="round" stroke-linejoin="round"/>
<path d="M8.17478 5.78174C8.55524 5.78174 8.92012 5.93289 9.18916 6.20191C9.45818 6.47094 9.60932 6.83582 9.60932 7.21629V8.17264C9.60932 8.55311 9.45818 8.91799 9.18916 9.18702C8.92012 9.45605 8.55524 9.60719 8.17478 9.60719C7.79432 9.60719 7.42943 9.45605 7.16041 9.18702C6.89137 8.91799 6.74023 8.55311 6.74023 8.17264V7.21629C6.74023 6.83582 6.89137 6.47094 7.16041 6.20191C7.42943 5.93289 7.79432 5.78174 8.17478 5.78174Z" stroke="#191919" stroke-linecap="round" stroke-linejoin="round"/>
<path d="M5.30564 12.4763C5.6861 12.4763 6.05098 12.6275 6.32002 12.8965C6.58904 13.1655 6.74018 13.5304 6.74018 13.9109V14.8673C6.74018 15.2477 6.58904 15.6126 6.32002 15.8816C6.05098 16.1507 5.6861 16.3018 5.30564 16.3018C4.92517 16.3018 4.56029 16.1507 4.29127 15.8816C4.02223 15.6126 3.87109 15.2477 3.87109 14.8673V13.9109C3.87109 13.5304 4.02223 13.1655 4.29127 12.8965C4.56029 12.6275 4.92517 12.4763 5.30564 12.4763Z" stroke="#191919" stroke-linecap="round" stroke-linejoin="round"/>
<path d="M17.2601 20.6055C17.128 20.6055 17.021 20.4983 17.021 20.3663C17.021 20.2343 17.128 20.1272 17.2601 20.1272" stroke="#191919"/>
<path d="M17.2603 20.6055C17.3923 20.6055 17.4993 20.4983 17.4993 20.3663C17.4993 20.2343 17.3923 20.1272 17.2603 20.1272" stroke="#191919"/>
</g>
<defs>
<clipPath id="clip0_5303_4023">
<rect width="24" height="24" fill="white"/>
</clipPath>
</defs>
</svg>
