<svg width="24" height="24" viewBox="0 0 24 24" fill="none" xmlns="http://www.w3.org/2000/svg">
<path d="M21.087 6.71043V22.0435C21.087 22.2971 20.9862 22.5405 20.8068 22.7198C20.6275 22.8992 20.3841 23 20.1305 23H3.86961C3.61592 23 3.37263 22.8992 3.19324 22.7198C3.01387 22.5405 2.91309 22.2971 2.91309 22.0435V1.95652C2.91309 1.70284 3.01387 1.45954 3.19324 1.28016C3.37263 1.10078 3.61592 1 3.86961 1H15.3766C15.6878 0.999748 15.9985 1.02857 16.3044 1.08609V4.82609C16.3044 5.07978 16.4052 5.32307 16.5846 5.50245C16.7639 5.68183 17.0072 5.78261 17.2609 5.78261H21.0009C21.0584 6.08853 21.0873 6.39915 21.087 6.71043Z" fill="#FFBC44"/>
<path d="M16.6392 5.55304L2.91309 19.2887V1.95652C2.91309 1.70284 3.01387 1.45954 3.19324 1.28016C3.37263 1.10078 3.61592 1 3.86961 1H15.3766C15.6878 0.999748 15.9985 1.02857 16.3044 1.08609V4.82609C16.3062 4.96394 16.337 5.09987 16.3947 5.22509C16.4523 5.35032 16.5356 5.46204 16.6392 5.55304Z" fill="#FFDDA1"/>
<path d="M21.0012 5.7827H17.2612C17.0075 5.7827 16.7642 5.68192 16.5849 5.50253C16.4055 5.32316 16.3047 5.07986 16.3047 4.82618V1.08618C17.4822 1.27508 18.5701 1.83075 19.4134 2.67402C20.2567 3.5173 20.8123 4.60518 21.0012 5.7827Z" fill="#E3E3E3"/>
<path d="M20.1305 23C20.3841 23 20.6275 22.8992 20.8068 22.7198C20.9862 22.5405 21.087 22.2971 21.087 22.0435V6.71809C21.0874 5.96731 20.9398 5.22382 20.6527 4.53009C20.3657 3.83635 19.9448 3.20598 19.414 2.67497C18.8834 2.14395 18.2531 1.72272 17.5595 1.43532C16.866 1.14792 16.1226 1 15.3718 1H3.86961C3.61592 1 3.37263 1.10078 3.19324 1.28016C3.01387 1.45954 2.91309 1.70283 2.91309 1.95652V22.0435C2.91309 22.2971 3.01387 22.5405 3.19324 22.7198C3.37263 22.8992 3.61592 23 3.86961 23H20.1305Z" stroke="#191919" stroke-linecap="round" stroke-linejoin="round"/>
<path d="M8.65228 18.2174C7.89122 18.2174 7.16134 17.915 6.62319 17.3769C6.08504 16.8388 5.78271 16.1088 5.78271 15.3478C5.78271 14.5868 6.08504 13.8569 6.62319 13.3188C7.16134 12.7806 7.89122 12.4783 8.65228 12.4783" stroke="#191919" stroke-linecap="round" stroke-linejoin="round"/>
<path d="M13.4353 12.4783H11.8092C11.541 12.4765 11.2794 12.5616 11.0635 12.7206C10.8475 12.8798 10.6888 13.1044 10.611 13.3611C10.5333 13.6179 10.5406 13.8928 10.6319 14.145C10.7232 14.3972 10.8935 14.6131 11.1176 14.7605L12.8776 15.9342C13.1017 16.0812 13.2723 16.2967 13.364 16.5485C13.4557 16.8003 13.4636 17.075 13.3865 17.3317C13.3094 17.5884 13.1515 17.8133 12.9362 17.9728C12.7208 18.1325 12.4598 18.2183 12.1918 18.2174H10.5657" stroke="#191919" stroke-linecap="round" stroke-linejoin="round"/>
<path d="M18.2175 12.4783H16.5914C16.3232 12.4765 16.0616 12.5616 15.8457 12.7206C15.6297 12.8798 15.471 13.1044 15.3933 13.3611C15.3155 13.6179 15.3228 13.8928 15.4141 14.145C15.5054 14.3972 15.6757 14.6131 15.8998 14.7605L17.6598 15.9342C17.884 16.0812 18.0545 16.2967 18.1462 16.5485C18.238 16.8003 18.2458 17.075 18.1687 17.3317C18.0916 17.5884 17.9337 17.8133 17.7184 17.9728C17.5031 18.1325 17.242 18.2183 16.974 18.2174H15.3479" stroke="#191919" stroke-linecap="round" stroke-linejoin="round"/>
<path d="M19.4134 2.67771C18.5694 1.83364 17.4824 1.27504 16.3047 1.08032V4.82606C16.3047 5.07975 16.4055 5.32304 16.5849 5.50242C16.7642 5.68181 17.0075 5.78258 17.2612 5.78258H21.0108C20.815 4.60643 20.2565 3.52088 19.4134 2.67771Z" stroke="#191919" stroke-linecap="round" stroke-linejoin="round"/>
</svg>
