<svg width="24" height="24" viewBox="0 0 24 24" fill="none" xmlns="http://www.w3.org/2000/svg">
<path d="M20.8067 4.82609C20.9862 5.00543 21.0869 5.24868 21.087 5.50235V22.0435C21.087 22.2971 20.9862 22.5405 20.8068 22.7198C20.6275 22.8992 20.3841 23 20.1305 23H3.86961C3.61592 23 3.37263 22.8992 3.19324 22.7198C3.01387 22.5405 2.91309 22.2971 2.91309 22.0435V1.95652C2.91309 1.70283 3.01387 1.45954 3.19324 1.28016C3.37263 1.10078 3.61592 1 3.86961 1H16.5847C16.7107 1.0009 16.8354 1.02672 16.9514 1.07597C17.0675 1.12521 17.1726 1.19692 17.2609 1.28696L20.8067 4.82609Z" fill="#E3E3E3"/>
<path d="M19.0324 3.05461L17.2609 1.28696C17.1726 1.19692 17.0675 1.12521 16.9514 1.07597C16.8354 1.02672 16.7107 1.0009 16.5847 1H3.86961C3.61592 1 3.37263 1.10078 3.19324 1.28016C3.01387 1.45954 2.91309 1.70283 2.91309 1.95652V19.1739L19.0324 3.05461Z" fill="white"/>
<path d="M20.8067 4.82609C20.9862 5.00543 21.0869 5.24868 21.087 5.50235V22.0435C21.087 22.2971 20.9862 22.5405 20.8068 22.7198C20.6275 22.8992 20.3841 23 20.1305 23H3.86961C3.61592 23 3.37263 22.8992 3.19324 22.7198C3.01387 22.5405 2.91309 22.2971 2.91309 22.0435V1.95652C2.91309 1.70283 3.01387 1.45954 3.19324 1.28016C3.37263 1.10078 3.61592 1 3.86961 1H16.5847C16.7107 1.0009 16.8354 1.02672 16.9514 1.07597C17.0675 1.12521 17.1726 1.19692 17.2609 1.28696L20.8067 4.82609Z" stroke="#191919" stroke-linecap="round" stroke-linejoin="round"/>
<path d="M10.5658 8.65228H9.99766C9.82693 8.6383 9.65515 8.65977 9.49309 8.7153C9.33104 8.77084 9.18222 8.85927 9.05594 8.97503C8.92967 9.09079 8.82868 9.23139 8.75931 9.38802C8.68993 9.54465 8.65367 9.71393 8.65279 9.88523V11.0723C8.64427 11.2875 8.57748 11.4963 8.45956 11.6766C8.34164 11.8568 8.17702 12.0017 7.98322 12.0958L6.73975 12.9566L7.98322 13.8175C8.17707 13.9114 8.34177 14.0562 8.4597 14.2365C8.57763 14.4168 8.64437 14.6257 8.65279 14.841V16.0271C8.65354 16.1984 8.6897 16.3678 8.75902 16.5246C8.82834 16.6812 8.92931 16.822 9.05559 16.9379C9.18188 17.0537 9.33075 17.1423 9.49286 17.1978C9.65499 17.2534 9.82684 17.2749 9.99766 17.261H10.5658" stroke="#191919" stroke-linecap="round" stroke-linejoin="round"/>
<path d="M13.4351 8.65213H14.0013C14.1723 8.63788 14.3442 8.65913 14.5065 8.71454C14.6688 8.76996 14.8178 8.85834 14.9443 8.97413C15.0708 9.08992 15.1719 9.23062 15.2415 9.38739C15.3109 9.54416 15.3472 9.71361 15.3481 9.88509V11.0721C15.3566 11.2874 15.4234 11.4963 15.5413 11.6765C15.6593 11.8567 15.8239 12.0016 16.0177 12.0956L17.2611 12.9565L16.0177 13.8174C15.8238 13.9113 15.6592 14.0561 15.5412 14.2364C15.4233 14.4166 15.3565 14.6255 15.3481 14.8408V16.0269C15.3473 16.1984 15.3112 16.368 15.2417 16.5249C15.1723 16.6818 15.0712 16.8226 14.9446 16.9385C14.8182 17.0544 14.6691 17.1428 14.5066 17.1983C14.3443 17.2538 14.1723 17.2751 14.0013 17.2608H13.4351" stroke="#191919" stroke-linecap="round" stroke-linejoin="round"/>
</svg>
