<svg width="24" height="24" viewBox="0 0 24 24" fill="none" xmlns="http://www.w3.org/2000/svg">
<g clip-path="url(#clip0_5303_4207)">
<path d="M18.8921 4.82544C19.0715 5.00475 19.1722 5.24796 19.1723 5.50159V22.0399C19.1723 22.2936 19.0715 22.5368 18.8922 22.7162C18.7128 22.8955 18.4696 22.9963 18.2159 22.9963H1.95783C1.70418 22.9963 1.46093 22.8955 1.28158 22.7162C1.10222 22.5368 1.00146 22.2936 1.00146 22.0399V1.95636C1.00146 1.70272 1.10222 1.45947 1.28158 1.28011C1.46093 1.10076 1.70418 1 1.95783 1H14.6707C14.7968 1.0009 14.9214 1.02672 15.0375 1.07595C15.1534 1.12519 15.2586 1.19689 15.3469 1.28691L18.8921 4.82544Z" fill="#E3E3E3"/>
<path d="M17.1181 3.05426L15.3469 1.28691C15.2586 1.19689 15.1534 1.12519 15.0375 1.07595C14.9214 1.02672 14.7968 1.0009 14.6707 1H1.95783C1.70418 1 1.46093 1.10076 1.28158 1.28011C1.10222 1.45947 1.00146 1.70272 1.00146 1.95636V19.1708L17.1181 3.05426Z" fill="white"/>
<path d="M22.4054 14.9847L15.1084 22.2828L11.522 23L12.2392 19.4136L19.5363 12.1157C19.9158 11.7363 20.4305 11.5232 20.967 11.5232C21.5036 11.5232 22.0182 11.7363 22.3977 12.1157L22.4054 12.1242C22.5934 12.3119 22.7426 12.5349 22.8444 12.7803C22.9461 13.0257 22.9986 13.2888 22.9986 13.5545C22.9986 13.8201 22.9461 14.0833 22.8444 14.3286C22.7426 14.5741 22.5934 14.7971 22.4054 14.9847Z" fill="#FFEF5E" stroke="#191919" stroke-linecap="round" stroke-linejoin="round"/>
<path d="M8.65236 22.9963H1.95783C1.70418 22.9963 1.46093 22.8955 1.28158 22.7162C1.10222 22.5368 1.00146 22.2936 1.00146 22.0399V1.95636C1.00146 1.70272 1.10222 1.45947 1.28158 1.28011C1.46093 1.10076 1.70418 1 1.95783 1H14.6707C14.7968 1.0009 14.9214 1.02672 15.0375 1.07595C15.1534 1.12519 15.2586 1.19689 15.3469 1.28691L18.8921 4.82544C19.0715 5.00475 19.1722 5.24796 19.1723 5.50159V8.65088" stroke="#191919" stroke-linecap="round" stroke-linejoin="round"/>
<path d="M3.87061 5.78552V9.61097" stroke="#191919" stroke-linecap="round" stroke-linejoin="round"/>
<path d="M12.478 5.78552V9.61097" stroke="#191919" stroke-linecap="round" stroke-linejoin="round"/>
<path d="M9.60889 12.4801V16.3055" stroke="#191919" stroke-linecap="round" stroke-linejoin="round"/>
<path d="M15.3472 5.78552V9.61097" stroke="#191919" stroke-linecap="round" stroke-linejoin="round"/>
<path d="M8.17428 5.78186C8.55475 5.78186 8.91963 5.933 9.18866 6.20202C9.45768 6.47105 9.60882 6.83593 9.60882 7.2164V8.17276C9.60882 8.55322 9.45768 8.9181 9.18866 9.18713C8.91963 9.45616 8.55475 9.60729 8.17428 9.60729C7.79382 9.60729 7.42894 9.45616 7.15991 9.18713C6.89088 8.9181 6.73975 8.55322 6.73975 8.17276V7.2164C6.73975 6.83593 6.89088 6.47105 7.15991 6.20202C7.42894 5.933 7.79382 5.78186 8.17428 5.78186Z" stroke="#191919" stroke-linecap="round" stroke-linejoin="round"/>
<path d="M5.30514 12.4762C5.68561 12.4762 6.05049 12.6273 6.31952 12.8964C6.58854 13.1654 6.73968 13.5302 6.73968 13.9107V14.8671C6.73968 15.2476 6.58854 15.6125 6.31952 15.8815C6.05049 16.1505 5.68561 16.3017 5.30514 16.3017C4.92468 16.3017 4.5598 16.1505 4.29077 15.8815C4.02174 15.6125 3.87061 15.2476 3.87061 14.8671V13.9107C3.87061 13.5302 4.02174 13.1654 4.29077 12.8964C4.5598 12.6273 4.92468 12.4762 5.30514 12.4762Z" stroke="#191919" stroke-linecap="round" stroke-linejoin="round"/>
</g>
<defs>
<clipPath id="clip0_5303_4207">
<rect width="24" height="24" fill="white"/>
</clipPath>
</defs>
</svg>
