<svg width="24" height="24" viewBox="0 0 24 24" fill="none" xmlns="http://www.w3.org/2000/svg">
<path d="M21.087 6.71043V22.0435C21.087 22.2971 20.9862 22.5405 20.8068 22.7198C20.6275 22.8992 20.3841 23 20.1305 23H3.86961C3.61592 23 3.37263 22.8992 3.19324 22.7198C3.01387 22.5405 2.91309 22.2971 2.91309 22.0435V1.95652C2.91309 1.70284 3.01387 1.45954 3.19324 1.28016C3.37263 1.10078 3.61592 1 3.86961 1H15.3766C15.6878 0.999748 15.9985 1.02857 16.3044 1.08609V4.82609C16.3044 5.07978 16.4052 5.32307 16.5846 5.50245C16.7639 5.68183 17.0072 5.78261 17.2609 5.78261H21.0009C21.0584 6.08853 21.0873 6.39915 21.087 6.71043Z" fill="#66E1FF"/>
<path d="M16.6392 5.55304L2.91309 19.2887V1.95652C2.91309 1.70284 3.01387 1.45954 3.19324 1.28016C3.37263 1.10078 3.61592 1 3.86961 1H15.3766C15.6878 0.999748 15.9985 1.02857 16.3044 1.08609V4.82609C16.3062 4.96394 16.337 5.09987 16.3947 5.22509C16.4523 5.35032 16.5356 5.46204 16.6392 5.55304Z" fill="#C2F3FF"/>
<path d="M21.0012 5.7827H17.2612C17.0075 5.7827 16.7642 5.68193 16.5849 5.50254C16.4055 5.32316 16.3047 5.07986 16.3047 4.82618V1.08618C17.4822 1.27509 18.5701 1.83076 19.4134 2.67403C20.2567 3.51731 20.8123 4.60519 21.0012 5.7827Z" fill="#E3E3E3"/>
<path d="M20.1305 23C20.3841 23 20.6275 22.8992 20.8068 22.7198C20.9862 22.5405 21.087 22.2971 21.087 22.0435V6.71809C21.0874 5.96731 20.9398 5.22382 20.6527 4.53009C20.3657 3.83635 19.9448 3.20598 19.414 2.67497C18.8834 2.14395 18.2531 1.72272 17.5595 1.43532C16.866 1.14792 16.1226 1 15.3718 1H3.86961C3.61592 1 3.37263 1.10078 3.19324 1.28016C3.01387 1.45954 2.91309 1.70283 2.91309 1.95652V22.0435C2.91309 22.2971 3.01387 22.5405 3.19324 22.7198C3.37263 22.8992 3.61592 23 3.86961 23H20.1305Z" stroke="#191919" stroke-linecap="round" stroke-linejoin="round"/>
<path d="M19.4134 2.67765C18.5694 1.83358 17.4824 1.27498 16.3047 1.08026V4.826C16.3047 5.07969 16.4055 5.32298 16.5849 5.50236C16.7642 5.68175 17.0075 5.78252 17.2612 5.78252H21.0108C20.815 4.60637 20.2565 3.52082 19.4134 2.67765Z" stroke="#191919" stroke-linecap="round" stroke-linejoin="round"/>
<path d="M11.522 13.4385V17.2646" stroke="#191919" stroke-linecap="round" stroke-linejoin="round"/>
<path d="M13.4355 15.3515H9.60938" stroke="#191919" stroke-linecap="round" stroke-linejoin="round"/>
<path d="M17.2607 13.4385V17.2646" stroke="#191919" stroke-linecap="round" stroke-linejoin="round"/>
<path d="M19.1747 15.3515H15.3486" stroke="#191919" stroke-linecap="round" stroke-linejoin="round"/>
<path d="M7.69623 18.2174C6.93517 18.2174 6.20529 17.915 5.66714 17.3769C5.12899 16.8388 4.82666 16.1088 4.82666 15.3478C4.82666 14.5868 5.12899 13.8569 5.66714 13.3188C6.20529 12.7806 6.93517 12.4783 7.69623 12.4783" stroke="#191919" stroke-linecap="round" stroke-linejoin="round"/>
</svg>
