<svg width="24" height="24" viewBox="0 0 24 24" fill="none" xmlns="http://www.w3.org/2000/svg">
<path d="M12.8086 12.4492C12.8086 12.2109 12.9033 11.9824 13.0717 11.8139C13.2401 11.6454 13.4687 11.5508 13.7069 11.5508H20.8936C21.1318 11.5508 21.3604 11.6455 21.5288 11.8139C21.6971 11.9823 21.7919 12.2109 21.7919 12.4492V21.4325C21.7919 21.6708 21.6972 21.8993 21.5288 22.0678C21.3603 22.2362 21.1318 22.3308 20.8936 22.3308H13.7069C13.4687 22.3308 13.2402 22.2362 13.0717 22.0678C12.9032 21.8994 12.8086 21.6708 12.8086 21.4325V12.4492Z" fill="white" stroke="#191919" stroke-linecap="round" stroke-linejoin="round"/>
<path d="M15.0966 3.16042C15.2107 3.03053 15.2849 2.87048 15.3104 2.69952C15.3357 2.52857 15.3113 2.35385 15.2398 2.19646C15.1684 2.03897 15.0532 1.90551 14.9077 1.81201C14.7624 1.71851 14.593 1.66892 14.4202 1.66919H3.10662C2.93392 1.66919 2.76479 1.71906 2.61968 1.81274C2.47458 1.90633 2.35953 2.03989 2.2884 2.19719C2.21718 2.35458 2.19288 2.52912 2.21828 2.69998C2.24376 2.87076 2.31792 3.03062 2.43195 3.16042L7.41862 8.85586V13.9144C7.41853 14.077 7.46271 14.2366 7.54631 14.3761C7.62991 14.5156 7.74972 14.6298 7.89308 14.7066C8.03654 14.7833 8.19806 14.8197 8.36049 14.8118C8.52293 14.8039 8.68023 14.752 8.81553 14.6617L9.71386 14.0626C9.83678 13.9806 9.93771 13.8694 10.0074 13.739C10.0771 13.6086 10.1136 13.463 10.1136 13.3152V8.85586L15.0966 3.16042Z" fill="#FFEF5E"/>
<path d="M8.76612 1.66919H3.10662C2.93392 1.66919 2.76479 1.71906 2.61968 1.81274C2.47458 1.90633 2.35953 2.03989 2.2884 2.19719C2.21718 2.35458 2.19288 2.52911 2.21828 2.69998C2.24376 2.87076 2.31792 3.03062 2.43195 3.16042L7.41862 8.85586V13.9144C7.41816 14.0723 7.45932 14.2275 7.53797 14.3645C7.61662 14.5014 7.72992 14.6152 7.86659 14.6944C8.00327 14.7735 8.15837 14.8152 8.31622 14.8154C8.47416 14.8155 8.62935 14.7739 8.76612 14.695V1.66919Z" fill="#FFF9BF"/>
<path d="M16.4019 14.2477H19.9952" stroke="#191919" stroke-linecap="round" stroke-linejoin="round"/>
<path d="M14.605 16.9427H19.995" stroke="#191919" stroke-linecap="round" stroke-linejoin="round"/>
<path d="M14.605 19.6377H19.995" stroke="#191919" stroke-linecap="round" stroke-linejoin="round"/>
<path d="M15.0966 3.16042C15.2107 3.03053 15.2849 2.87048 15.3104 2.69952C15.3357 2.52857 15.3113 2.35385 15.2398 2.19646C15.1684 2.03897 15.0532 1.90551 14.9077 1.81201C14.7624 1.71851 14.593 1.66892 14.4202 1.66919H3.10662C2.93392 1.66919 2.76479 1.71906 2.61968 1.81274C2.47458 1.90633 2.35953 2.03989 2.2884 2.19719C2.21718 2.35458 2.19288 2.52912 2.21828 2.69998C2.24376 2.87076 2.31792 3.03062 2.43195 3.16042L7.41862 8.85586V13.9144C7.41853 14.077 7.46271 14.2366 7.54631 14.3761C7.62991 14.5156 7.74972 14.6298 7.89308 14.7066C8.03654 14.7833 8.19806 14.8197 8.36049 14.8118C8.52293 14.8039 8.68023 14.752 8.81553 14.6617L9.71386 14.0626C9.83678 13.9806 9.93771 13.8694 10.0074 13.739C10.0771 13.6086 10.1136 13.463 10.1136 13.3152V8.85586L15.0966 3.16042Z" stroke="#191919" stroke-linecap="round" stroke-linejoin="round"/>
</svg>
