<svg width="24" height="24" viewBox="0 0 24 24" fill="none" xmlns="http://www.w3.org/2000/svg">
<path d="M20.9833 2.92498C21.0855 2.78879 21.1477 2.62685 21.163 2.45731C21.1782 2.28775 21.146 2.1173 21.0699 1.96504C20.9938 1.81277 20.8767 1.68471 20.7319 1.59522C20.5871 1.50572 20.4202 1.45831 20.25 1.45831H3.73258C3.56235 1.45831 3.39548 1.50572 3.25066 1.59522C3.10586 1.68471 2.98883 1.81277 2.9127 1.96504C2.83656 2.1173 2.80434 2.28775 2.81962 2.45731C2.83491 2.62685 2.89711 2.78879 2.99925 2.92498L10.1566 12.5417V21.625C10.1566 21.7952 10.204 21.9621 10.2935 22.1069C10.383 22.2517 10.5111 22.3688 10.6633 22.4448C10.8156 22.521 10.986 22.5532 11.1556 22.538C11.3251 22.5227 11.487 22.4604 11.6233 22.3583L13.4566 20.9833C13.5704 20.898 13.6628 20.7872 13.7264 20.6599C13.7902 20.5327 13.8232 20.3922 13.8232 20.25V12.5408L20.9833 2.92498Z" fill="#FFEF5E"/>
<path d="M12 1.45831H3.73258C3.56235 1.45831 3.39548 1.50572 3.25066 1.59522C3.10586 1.68471 2.98883 1.81277 2.9127 1.96504C2.83656 2.1173 2.80434 2.28775 2.81962 2.45731C2.83491 2.62685 2.89711 2.78879 2.99925 2.92498L10.1566 12.5417V21.625C10.1566 21.7952 10.204 21.9621 10.2935 22.1069C10.383 22.2517 10.5111 22.3688 10.6633 22.4448C10.8156 22.521 10.986 22.5532 11.1556 22.538C11.3251 22.5227 11.487 22.4604 11.6233 22.3583L12 22.0769V1.45831Z" fill="#FFF9BF"/>
<path d="M20.9833 2.92498C21.0855 2.78879 21.1477 2.62685 21.163 2.45731C21.1782 2.28775 21.146 2.1173 21.0699 1.96504C20.9938 1.81277 20.8767 1.68471 20.7319 1.59522C20.5871 1.50572 20.4202 1.45831 20.25 1.45831H3.73258C3.56235 1.45831 3.39548 1.50572 3.25066 1.59522C3.10586 1.68471 2.98883 1.81277 2.9127 1.96504C2.83656 2.1173 2.80434 2.28775 2.81962 2.45731C2.83491 2.62685 2.89711 2.78879 2.99925 2.92498L10.1566 12.5417V21.625C10.1566 21.7952 10.204 21.9621 10.2935 22.1069C10.383 22.2517 10.5111 22.3688 10.6633 22.4448C10.8156 22.521 10.986 22.5532 11.1556 22.538C11.3251 22.5227 11.487 22.4604 11.6233 22.3583L13.4566 20.9833C13.5704 20.898 13.6628 20.7872 13.7264 20.6599C13.7902 20.5327 13.8232 20.3922 13.8232 20.25V12.5408L20.9833 2.92498Z" stroke="#191919" stroke-linecap="round" stroke-linejoin="round"/>
</svg>
