<svg width="24" height="24" viewBox="0 0 24 24" fill="none" xmlns="http://www.w3.org/2000/svg">
<g clip-path="url(#clip0_5303_12291)">
<path d="M5.81234 4.66667C6.82486 4.66667 7.64567 3.84586 7.64567 2.83333C7.64567 1.82081 6.82486 1 5.81234 1C4.79981 1 3.979 1.82081 3.979 2.83333C3.979 3.84586 4.79981 4.66667 5.81234 4.66667Z" fill="#FFBC44"/>
<path d="M3.97917 14.75C5.24482 14.75 6.27083 13.724 6.27083 12.4583C6.27083 11.1927 5.24482 10.1667 3.97917 10.1667C2.71352 10.1667 1.6875 11.1927 1.6875 12.4583C1.6875 13.724 2.71352 14.75 3.97917 14.75Z" fill="#FFEF5E"/>
<path d="M20.9373 16.125C21.9499 16.125 22.7707 15.3042 22.7707 14.2917C22.7707 13.2791 21.9499 12.4583 20.9373 12.4583C19.9248 12.4583 19.104 13.2791 19.104 14.2917C19.104 15.3042 19.9248 16.125 20.9373 16.125Z" fill="#FFEF5E"/>
<path d="M20.4788 6.04167C21.4914 6.04167 22.3122 5.22086 22.3122 4.20833C22.3122 3.19581 21.4914 2.375 20.4788 2.375C19.4663 2.375 18.6455 3.19581 18.6455 4.20833C18.6455 5.22086 19.4663 6.04167 20.4788 6.04167Z" fill="#FFEF5E"/>
<path d="M15.8957 23C17.1613 23 18.1873 21.974 18.1873 20.7083C18.1873 19.4427 17.1613 18.4167 15.8957 18.4167C14.63 18.4167 13.604 19.4427 13.604 20.7083C13.604 21.974 14.63 23 15.8957 23Z" fill="#FF808C"/>
<path d="M5.8125 1.45831V3.29164" stroke="#191919" stroke-linecap="round" stroke-linejoin="round"/>
<path d="M6.72884 2.375H4.89551" stroke="#191919" stroke-linecap="round" stroke-linejoin="round"/>
<path d="M3.979 11.5417V13.375" stroke="#191919" stroke-linecap="round" stroke-linejoin="round"/>
<path d="M4.89583 12.4583H3.0625" stroke="#191919" stroke-linecap="round" stroke-linejoin="round"/>
<path d="M21.3955 13.375V15.2083" stroke="#191919" stroke-linecap="round" stroke-linejoin="round"/>
<path d="M22.3123 14.2917H20.479" stroke="#191919" stroke-linecap="round" stroke-linejoin="round"/>
<path d="M15.8955 19.7917V21.625" stroke="#191919" stroke-linecap="round" stroke-linejoin="round"/>
<path d="M16.8123 20.7083H14.979" stroke="#191919" stroke-linecap="round" stroke-linejoin="round"/>
<path d="M3.0625 4.89581C3.12327 4.89581 3.18157 4.91995 3.22455 4.96292C3.26752 5.00591 3.29167 5.0642 3.29167 5.12497" stroke="#191919" stroke-linecap="round" stroke-linejoin="round"/>
<path d="M2.83301 5.12497C2.83301 5.0642 2.85715 5.00591 2.90013 4.96292C2.94311 4.91995 3.0014 4.89581 3.06217 4.89581" stroke="#191919" stroke-linecap="round" stroke-linejoin="round"/>
<path d="M3.06217 5.35417C3.0014 5.35417 2.94311 5.33002 2.90013 5.28705C2.85715 5.24407 2.83301 5.18578 2.83301 5.125" stroke="#191919" stroke-linecap="round" stroke-linejoin="round"/>
<path d="M3.29167 5.125C3.29167 5.18578 3.26752 5.24407 3.22455 5.28705C3.18157 5.33002 3.12327 5.35417 3.0625 5.35417" stroke="#191919" stroke-linecap="round" stroke-linejoin="round"/>
<path d="M20.479 6.72919C20.5398 6.72919 20.5981 6.75334 20.6411 6.79631C20.6841 6.8393 20.7082 6.89759 20.7082 6.95836" stroke="#191919" stroke-linecap="round" stroke-linejoin="round"/>
<path d="M20.25 6.95836C20.25 6.89759 20.2741 6.8393 20.3171 6.79631C20.3601 6.75334 20.4184 6.72919 20.4792 6.72919" stroke="#191919" stroke-linecap="round" stroke-linejoin="round"/>
<path d="M20.4792 7.18747C20.4184 7.18747 20.3601 7.16333 20.3171 7.12035C20.2741 7.07737 20.25 7.01908 20.25 6.95831" stroke="#191919" stroke-linecap="round" stroke-linejoin="round"/>
<path d="M20.7082 6.95831C20.7082 7.01908 20.6841 7.07737 20.6411 7.12035C20.5981 7.16333 20.5398 7.18747 20.479 7.18747" stroke="#191919" stroke-linecap="round" stroke-linejoin="round"/>
<path d="M11.3125 17.7292C11.3733 17.7292 11.4316 17.7533 11.4746 17.7963C11.5176 17.8393 11.5417 17.8976 11.5417 17.9583" stroke="#191919" stroke-linecap="round" stroke-linejoin="round"/>
<path d="M11.083 17.9583C11.083 17.8976 11.1071 17.8393 11.1501 17.7963C11.1931 17.7533 11.2514 17.7292 11.3122 17.7292" stroke="#191919" stroke-linecap="round" stroke-linejoin="round"/>
<path d="M11.3122 18.1875C11.2514 18.1875 11.1931 18.1634 11.1501 18.1204C11.1071 18.0774 11.083 18.0191 11.083 17.9583" stroke="#191919" stroke-linecap="round" stroke-linejoin="round"/>
<path d="M11.5417 17.9583C11.5417 18.0191 11.5176 18.0774 11.4746 18.1204C11.4316 18.1634 11.3733 18.1875 11.3125 18.1875" stroke="#191919" stroke-linecap="round" stroke-linejoin="round"/>
<path d="M1.229 22.5417L6.01584 17.7548" stroke="#191919" stroke-linecap="round" stroke-linejoin="round"/>
<path d="M7.31227 17.7548C7.13939 17.9219 6.90784 18.0143 6.66749 18.0121C6.42715 18.01 6.19723 17.9136 6.02727 17.7437C5.85732 17.5737 5.76091 17.3438 5.75882 17.1035C5.75673 16.8631 5.84913 16.6316 6.0161 16.4587L11.8498 10.625C12.0227 10.4581 12.2542 10.3657 12.4946 10.3677C12.7349 10.3698 12.9648 10.4662 13.1348 10.6362C13.3047 10.8061 13.4011 11.036 13.4032 11.2764C13.4054 11.5167 13.313 11.7483 13.1459 11.9212L7.31227 17.7548Z" fill="#808080" stroke="#191919" stroke-linecap="round" stroke-linejoin="round"/>
<path d="M5.8125 5.58331C6.73859 5.6502 7.63596 5.93396 8.43215 6.41167C9.22833 6.88938 9.90101 7.54765 10.3958 8.33331" stroke="#191919" stroke-linecap="round" stroke-linejoin="round"/>
<path d="M12.6875 3.75C12.9803 4.95469 12.9803 6.21197 12.6875 7.41667" stroke="#191919" stroke-linecap="round" stroke-linejoin="round"/>
<path d="M14.979 8.33331C16.1328 6.41735 17.9142 4.95984 20.0207 4.20831" stroke="#191919" stroke-linecap="round" stroke-linejoin="round"/>
<path d="M15.4375 10.625C15.4375 10.625 17.7292 10.1667 19.1042 11.5417" stroke="#191919" stroke-linecap="round" stroke-linejoin="round"/>
<path d="M14.979 12.9167C15.7352 13.2774 16.4097 13.7886 16.9614 14.4191C17.513 15.0496 17.9302 15.786 18.1873 16.5833" stroke="#191919" stroke-linecap="round" stroke-linejoin="round"/>
<path d="M14.0625 14.75V17.0417" stroke="#191919" stroke-linecap="round" stroke-linejoin="round"/>
<path d="M7.1875 11.0833C7.9103 10.77 8.69144 10.6137 9.47917 10.625" stroke="#191919" stroke-linecap="round" stroke-linejoin="round"/>
</g>
<defs>
<clipPath id="clip0_5303_12291">
<rect width="24" height="24" fill="white"/>
</clipPath>
</defs>
</svg>
