<svg width="24" height="24" viewBox="0 0 24 24" fill="none" xmlns="http://www.w3.org/2000/svg">
<g clip-path="url(#clip0_5303_8884)">
<path d="M20.6084 13.9131C21.1157 13.9131 21.6023 13.7115 21.9611 13.3527C22.3198 12.994 22.5214 12.5074 22.5214 12C22.5214 11.4926 22.3198 11.0061 21.9611 10.6473C21.6023 10.2885 21.1157 10.087 20.6084 10.087C20.101 10.087 19.6144 10.2885 19.2556 10.6473C18.8969 11.0061 18.6953 11.4926 18.6953 12C18.6953 12.5074 18.8969 12.994 19.2556 13.3527C19.6144 13.7115 20.101 13.9131 20.6084 13.9131Z" fill="#78EB7B" stroke="#191919" stroke-linecap="round" stroke-linejoin="round"/>
<path d="M10.5652 13.4348C10.9457 13.4348 11.3106 13.2836 11.5797 13.0146C11.8488 12.7455 11.9999 12.3806 11.9999 12C11.9999 11.6195 11.8488 11.2546 11.5797 10.9855C11.3106 10.7164 10.9457 10.5652 10.5652 10.5652C10.1846 10.5652 9.81968 10.7164 9.55061 10.9855C9.28153 11.2546 9.13037 11.6195 9.13037 12C9.13037 12.3806 9.28153 12.7455 9.55061 13.0146C9.81968 13.2836 10.1846 13.4348 10.5652 13.4348Z" fill="#78EB7B" stroke="#191919" stroke-linecap="round" stroke-linejoin="round"/>
<path d="M6.26072 12.9565C6.51441 12.9565 6.7577 12.8557 6.93708 12.6763C7.11647 12.497 7.21724 12.2537 7.21724 12C7.21724 11.7463 7.11647 11.503 6.93708 11.3236C6.7577 11.1442 6.51441 11.0435 6.26072 11.0435C6.00704 11.0435 5.76374 11.1442 5.58436 11.3236C5.40498 11.503 5.3042 11.7463 5.3042 12C5.3042 12.2537 5.40498 12.497 5.58436 12.6763C5.76374 12.8557 6.00704 12.9565 6.26072 12.9565Z" fill="#78EB7B" stroke="#191919" stroke-linecap="round" stroke-linejoin="round"/>
<path d="M2.43455 12.9565C2.68823 12.9565 2.93153 12.8557 3.11091 12.6763C3.29029 12.497 3.39107 12.2537 3.39107 12C3.39107 11.7463 3.29029 11.503 3.11091 11.3236C2.93153 11.1442 2.68823 11.0435 2.43455 11.0435C2.18086 11.0435 1.93757 11.1442 1.75819 11.3236C1.5788 11.503 1.47803 11.7463 1.47803 12C1.47803 12.2537 1.5788 12.497 1.75819 12.6763C1.93757 12.8557 2.18086 12.9565 2.43455 12.9565Z" fill="#78EB7B" stroke="#191919" stroke-linecap="round" stroke-linejoin="round"/>
<path d="M10.5652 18.2174C10.9457 18.2174 11.3106 18.0662 11.5797 17.7972C11.8488 17.5281 11.9999 17.1632 11.9999 16.7826C11.9999 16.4021 11.8488 16.0372 11.5797 15.7681C11.3106 15.499 10.9457 15.3478 10.5652 15.3478C10.1846 15.3478 9.81968 15.499 9.55061 15.7681C9.28153 16.0372 9.13037 16.4021 9.13037 16.7826C9.13037 17.1632 9.28153 17.5281 9.55061 17.7972C9.81968 18.0662 10.1846 18.2174 10.5652 18.2174Z" fill="#78EB7B" stroke="#191919" stroke-linecap="round" stroke-linejoin="round"/>
<path d="M6.26072 17.7392C6.51441 17.7392 6.7577 17.6384 6.93708 17.459C7.11647 17.2796 7.21724 17.0363 7.21724 16.7826C7.21724 16.5289 7.11647 16.2857 6.93708 16.1063C6.7577 15.9269 6.51441 15.8261 6.26072 15.8261C6.00704 15.8261 5.76374 15.9269 5.58436 16.1063C5.40498 16.2857 5.3042 16.5289 5.3042 16.7826C5.3042 17.0363 5.40498 17.2796 5.58436 17.459C5.76374 17.6384 6.00704 17.7392 6.26072 17.7392Z" fill="#78EB7B" stroke="#191919" stroke-linecap="round" stroke-linejoin="round"/>
<path d="M10.5652 8.65216C10.9457 8.65216 11.3106 8.50099 11.5797 8.23192C11.8488 7.96285 11.9999 7.5979 11.9999 7.21738C11.9999 6.83685 11.8488 6.4719 11.5797 6.20283C11.3106 5.93376 10.9457 5.78259 10.5652 5.78259C10.1846 5.78259 9.81968 5.93376 9.55061 6.20283C9.28153 6.4719 9.13037 6.83685 9.13037 7.21738C9.13037 7.5979 9.28153 7.96285 9.55061 8.23192C9.81968 8.50099 10.1846 8.65216 10.5652 8.65216Z" fill="#78EB7B" stroke="#191919" stroke-linecap="round" stroke-linejoin="round"/>
<path d="M15.3474 13.4348C15.7279 13.4348 16.0929 13.2836 16.3619 13.0146C16.631 12.7455 16.7822 12.3806 16.7822 12C16.7822 11.6195 16.631 11.2546 16.3619 10.9855C16.0929 10.7164 15.7279 10.5652 15.3474 10.5652C14.9669 10.5652 14.6019 10.7164 14.3328 10.9855C14.0638 11.2546 13.9126 11.6195 13.9126 12C13.9126 12.3806 14.0638 12.7455 14.3328 13.0146C14.6019 13.2836 14.9669 13.4348 15.3474 13.4348Z" fill="#78EB7B" stroke="#191919" stroke-linecap="round" stroke-linejoin="round"/>
<path d="M15.3474 18.2174C15.7279 18.2174 16.0929 18.0662 16.3619 17.7972C16.631 17.5281 16.7822 17.1632 16.7822 16.7826C16.7822 16.4021 16.631 16.0372 16.3619 15.7681C16.0929 15.499 15.7279 15.3478 15.3474 15.3478C14.9669 15.3478 14.6019 15.499 14.3328 15.7681C14.0638 16.0372 13.9126 16.4021 13.9126 16.7826C13.9126 17.1632 14.0638 17.5281 14.3328 17.7972C14.6019 18.0662 14.9669 18.2174 15.3474 18.2174Z" fill="#78EB7B" stroke="#191919" stroke-linecap="round" stroke-linejoin="round"/>
<path d="M15.3474 8.65216C15.7279 8.65216 16.0929 8.50099 16.3619 8.23192C16.631 7.96285 16.7822 7.5979 16.7822 7.21738C16.7822 6.83685 16.631 6.4719 16.3619 6.20283C16.0929 5.93376 15.7279 5.78259 15.3474 5.78259C14.9669 5.78259 14.6019 5.93376 14.3328 6.20283C14.0638 6.4719 13.9126 6.83685 13.9126 7.21738C13.9126 7.5979 14.0638 7.96285 14.3328 8.23192C14.6019 8.50099 14.9669 8.65216 15.3474 8.65216Z" fill="#78EB7B" stroke="#191919" stroke-linecap="round" stroke-linejoin="round"/>
<path d="M10.5652 3.86957C10.9457 3.86957 11.3106 3.7184 11.5797 3.44933C11.8488 3.18025 11.9999 2.81531 11.9999 2.43478C11.9999 2.05425 11.8488 1.68931 11.5797 1.42024C11.3106 1.15116 10.9457 1 10.5652 1C10.1846 1 9.81968 1.15116 9.55061 1.42024C9.28153 1.68931 9.13037 2.05425 9.13037 2.43478C9.13037 2.81531 9.28153 3.18025 9.55061 3.44933C9.81968 3.7184 10.1846 3.86957 10.5652 3.86957Z" fill="#78EB7B" stroke="#191919" stroke-linecap="round" stroke-linejoin="round"/>
<path d="M10.5652 23C10.9457 23 11.3106 22.8488 11.5797 22.5798C11.8488 22.3107 11.9999 21.9457 11.9999 21.5652C11.9999 21.1847 11.8488 20.8197 11.5797 20.5507C11.3106 20.2816 10.9457 20.1304 10.5652 20.1304C10.1846 20.1304 9.81968 20.2816 9.55061 20.5507C9.28153 20.8197 9.13037 21.1847 9.13037 21.5652C9.13037 21.9457 9.28153 22.3107 9.55061 22.5798C9.81968 22.8488 10.1846 23 10.5652 23Z" fill="#78EB7B" stroke="#191919" stroke-linecap="round" stroke-linejoin="round"/>
<path d="M6.26072 8.17391C6.51441 8.17391 6.7577 8.07313 6.93708 7.89375C7.11647 7.71437 7.21724 7.47107 7.21724 7.21739C7.21724 6.9637 7.11647 6.72041 6.93708 6.54102C6.7577 6.36164 6.51441 6.26086 6.26072 6.26086C6.00704 6.26086 5.76374 6.36164 5.58436 6.54102C5.40498 6.72041 5.3042 6.9637 5.3042 7.21739C5.3042 7.47107 5.40498 7.71437 5.58436 7.89375C5.76374 8.07313 6.00704 8.17391 6.26072 8.17391Z" fill="#78EB7B" stroke="#191919" stroke-linecap="round" stroke-linejoin="round"/>
</g>
<defs>
<clipPath id="clip0_5303_8884">
<rect width="24" height="24" fill="white"/>
</clipPath>
</defs>
</svg>
