<svg width="24" height="24" viewBox="0 0 24 24" fill="none" xmlns="http://www.w3.org/2000/svg">
<path d="M15.6663 1.48889H20.0663C20.8442 1.48889 21.5903 1.79794 22.1404 2.34805C22.6905 2.89815 22.9996 3.64426 22.9996 4.42223C22.9996 5.20019 22.6905 5.9463 22.1404 6.4964C21.5903 7.04651 20.8442 7.35556 20.0663 7.35556H19.5774C18.7785 7.35556 18.0677 7.25094 17.6218 7.84445L13.1045 16.3863" stroke="#191919" stroke-linecap="round" stroke-linejoin="round"/>
<path d="M16.8887 21.0444C17.3209 21.0437 17.7369 20.8792 18.0529 20.5842C18.369 20.2893 18.5616 19.8856 18.5922 19.4544C18.6228 19.0232 18.4891 18.5964 18.2178 18.2597C17.9466 17.9232 17.558 17.7016 17.1302 17.6398L13.7598 16.6053C13.197 16.5024 12.6881 16.2052 12.3218 15.7657C11.9557 15.3262 11.7551 14.7721 11.7553 14.2V12.2444H6.37754C5.21059 12.2444 4.09143 12.708 3.26627 13.5332C2.44111 14.3583 1.97754 15.4775 1.97754 16.6444C1.97754 17.8114 2.44111 18.9306 3.26627 19.7557C4.09143 20.5809 5.21059 21.0444 6.37754 21.0444H16.8887Z" fill="#B2B2B2"/>
<path d="M6.37805 14.2H11.7558V12.2444H6.37805C5.7171 12.2443 5.06464 12.3932 4.46909 12.6799C3.87356 12.9665 3.35026 13.3838 2.93806 13.9004C2.52586 14.4171 2.23535 15.0199 2.08811 15.6642C1.94087 16.3086 1.94068 16.9778 2.08756 17.6222C2.30913 16.65 2.85435 15.7819 3.63386 15.1602C4.41337 14.5384 5.38094 14.1999 6.37805 14.2Z" fill="#E3E3E3"/>
<path d="M16.8887 21.0444C17.3209 21.0437 17.7369 20.8792 18.0529 20.5842C18.369 20.2893 18.5616 19.8856 18.5922 19.4544C18.6228 19.0232 18.4891 18.5964 18.2178 18.2597C17.9466 17.9232 17.558 17.7016 17.1302 17.6398L13.7598 16.6053C13.197 16.5024 12.6881 16.2052 12.3218 15.7657C11.9557 15.3262 11.7551 14.7721 11.7553 14.2V12.2444H6.37754C5.21059 12.2444 4.09143 12.708 3.26627 13.5332C2.44111 14.3583 1.97754 15.4775 1.97754 16.6444C1.97754 17.8114 2.44111 18.9306 3.26627 19.7557C4.09143 20.5809 5.21059 21.0444 6.37754 21.0444H16.8887Z" stroke="#191919" stroke-linecap="round" stroke-linejoin="round"/>
<path d="M7.8446 18.1112C8.65462 18.1112 9.31126 17.4546 9.31126 16.6446C9.31126 15.8346 8.65462 15.1779 7.8446 15.1779C7.03458 15.1779 6.37793 15.8346 6.37793 16.6446C6.37793 17.4546 7.03458 18.1112 7.8446 18.1112Z" fill="#808080" stroke="#191919" stroke-linecap="round" stroke-linejoin="round"/>
<path d="M8.87988 17.6819L10.2879 19.0889" stroke="#191919" stroke-linecap="round" stroke-linejoin="round"/>
<path d="M8.82227 19.0889H11.2667" stroke="#191919" stroke-linecap="round" stroke-linejoin="round"/>
<path d="M2.46667 4.42224C2.07769 4.42224 1.70463 4.57677 1.42958 4.85182C1.15452 5.12687 1 5.49993 1 5.88891C1 6.27789 1.15452 6.65095 1.42958 6.926C1.70463 7.20105 2.07769 7.35557 2.46667 7.35557H7.6C7.77538 7.35415 7.94446 7.29 8.07665 7.17473C8.20883 7.05947 8.2954 6.90069 8.32068 6.72715C8.34597 6.55359 8.30829 6.37672 8.21448 6.22853C8.12068 6.08034 7.97693 5.97062 7.80924 5.91922C7.48951 5.82437 2.80107 4.42224 2.46667 4.42224Z" fill="#808080" stroke="#191919" stroke-linecap="round" stroke-linejoin="round"/>
<path d="M4.42188 7.35559L8.82187 12.2444" stroke="#191919" stroke-linecap="round" stroke-linejoin="round"/>
<path d="M5.88854 21.0444L4.42188 22.5111" stroke="#191919" stroke-linecap="round" stroke-linejoin="round"/>
<path d="M18.1113 20.5555L20.0669 22.511" stroke="#191919" stroke-linecap="round" stroke-linejoin="round"/>
</svg>
