<svg width="24" height="24" viewBox="0 0 24 24" fill="none" xmlns="http://www.w3.org/2000/svg">
<g clip-path="url(#clip0_5303_11653)">
<path d="M16.782 5.78265H7.2168V4.82613C7.2168 4.31876 7.41835 3.83217 7.77712 3.47341C8.13588 3.11463 8.62247 2.91309 9.12984 2.91309H14.869C15.3763 2.91309 15.8629 3.11463 16.2217 3.47341C16.5805 3.83217 16.782 4.31876 16.782 4.82613V5.78265Z" fill="#E3E3E3" stroke="#191919" stroke-linecap="round" stroke-linejoin="round"/>
<path d="M11.999 2.91304V1" stroke="#191919" stroke-linecap="round" stroke-linejoin="round"/>
<path d="M7.2168 5.78259V7.79129C7.21704 8.03856 7.31302 8.27612 7.48462 8.45416L8.90123 9.92338C9.07535 10.1033 9.17197 10.3444 9.17037 10.5947C9.16875 10.8451 9.06903 11.0849 8.89262 11.2625L7.49227 12.6772C7.31627 12.8557 7.21734 13.0961 7.2168 13.3468V21.087C7.2168 21.5943 7.41835 22.0809 7.77712 22.4397C8.13588 22.7985 8.62247 23 9.12984 23H14.869C15.3763 23 15.8629 22.7985 16.2217 22.4397C16.5805 22.0809 16.782 21.5943 16.782 21.087V13.3602C16.7822 13.2327 16.757 13.1064 16.7077 12.9888C16.6584 12.8711 16.5861 12.7646 16.4951 12.6753L15.0775 11.2931C14.9874 11.2054 14.9156 11.1009 14.8659 10.9853C14.8163 10.8698 14.79 10.7456 14.7883 10.6199C14.7867 10.4943 14.81 10.3695 14.8565 10.2527C14.9032 10.136 14.9725 10.0296 15.0603 9.93964L16.5113 8.45225C16.6859 8.27316 16.7834 8.0328 16.783 7.78268V5.78259H7.2168Z" fill="#78EB7B"/>
<path d="M11.9994 5.78259H7.2168V7.79129C7.21704 8.03856 7.31302 8.27612 7.48462 8.45416L8.90123 9.92338C9.07535 10.1033 9.17197 10.3444 9.17037 10.5947C9.16875 10.8451 9.06903 11.0849 8.89262 11.2625L7.49227 12.6772C7.31627 12.8557 7.21734 13.0961 7.2168 13.3468V21.087C7.2168 21.5943 7.41835 22.0809 7.77712 22.4397C8.13588 22.7985 8.62247 23 9.12984 23H11.9994V5.78259Z" fill="#C9F7CA"/>
<path d="M7.2168 5.78259V7.79129C7.21704 8.03856 7.31302 8.27612 7.48462 8.45416L8.90123 9.92338C9.07535 10.1033 9.17197 10.3444 9.17037 10.5947C9.16875 10.8451 9.06903 11.0849 8.89262 11.2625L7.49227 12.6772C7.31627 12.8557 7.21734 13.0961 7.2168 13.3468V21.087C7.2168 21.5943 7.41835 22.0809 7.77712 22.4397C8.13588 22.7985 8.62247 23 9.12984 23H14.869C15.3763 23 15.8629 22.7985 16.2217 22.4397C16.5805 22.0809 16.782 21.5943 16.782 21.087V13.3602C16.7822 13.2327 16.757 13.1064 16.7077 12.9888C16.6584 12.8711 16.5861 12.7646 16.4951 12.6753L15.0775 11.2931C14.9874 11.2054 14.9156 11.1009 14.8659 10.9853C14.8163 10.8698 14.79 10.7456 14.7883 10.6199C14.7867 10.4943 14.81 10.3695 14.8565 10.2527C14.9032 10.136 14.9725 10.0296 15.0603 9.93964L16.5113 8.45225C16.6859 8.27316 16.7834 8.0328 16.783 7.78268V5.78259H7.2168Z" stroke="#191919" stroke-linecap="round" stroke-linejoin="round"/>
<path d="M12.4782 13.4348L11.0606 15.5611C11.0127 15.6332 10.9852 15.7169 10.981 15.8032C10.9769 15.8896 10.9963 15.9756 11.0372 16.0518C11.078 16.1281 11.1387 16.1919 11.2129 16.2363C11.2871 16.2808 11.372 16.3043 11.4585 16.3043H12.6063C12.6902 16.3043 12.7726 16.3261 12.8453 16.3679C12.918 16.4096 12.9784 16.4697 13.0206 16.5421C13.0627 16.6146 13.0851 16.6969 13.0854 16.7808C13.0857 16.8646 13.064 16.947 13.0224 17.0198L11.5216 19.6522" stroke="#191919" stroke-linecap="round" stroke-linejoin="round"/>
</g>
<defs>
<clipPath id="clip0_5303_11653">
<rect width="24" height="24" fill="white"/>
</clipPath>
</defs>
</svg>
