<svg width="24" height="24" viewBox="0 0 24 24" fill="none" xmlns="http://www.w3.org/2000/svg">
<g clip-path="url(#clip0_5303_11660)">
<path d="M6.49111 20.6221C6.52219 20.9218 6.48998 21.2247 6.39656 21.5113C6.30314 21.7978 6.15059 22.0614 5.94879 22.2853C5.74699 22.5091 5.50044 22.688 5.2251 22.8105C4.94976 22.9329 4.65177 22.9962 4.35042 22.9962C4.04907 22.9962 3.75107 22.9329 3.47573 22.8105C3.20039 22.688 2.95384 22.5091 2.75204 22.2853C2.55024 22.0614 2.3977 21.7978 2.30427 21.5113C2.21085 21.2247 2.17864 20.9218 2.20972 20.6221L2.86685 14.3798C2.89937 14.0709 2.88502 13.7581 2.82381 13.4529L2.44694 12.0956C2.43275 12.0261 2.4342 11.9544 2.45118 11.8855C2.46816 11.8166 2.50024 11.7524 2.54511 11.6975C2.58997 11.6425 2.64649 11.5983 2.71058 11.5679C2.77466 11.5375 2.84471 11.5217 2.91563 11.5217H5.7852C5.85607 11.5219 5.92602 11.5378 5.99002 11.5682C6.05402 11.5987 6.11047 11.6429 6.1553 11.6978C6.20012 11.7527 6.23222 11.8169 6.24927 11.8857C6.26632 11.9545 6.2679 12.0262 6.25389 12.0956L5.98224 13.4549C5.88659 13.7543 5.83685 14.067 5.83398 14.3817L6.49111 20.6221Z" fill="#FF808C"/>
<path d="M4.34975 11.5217H2.91497C2.8441 11.5219 2.77414 11.5378 2.71015 11.5682C2.64615 11.5987 2.5897 11.6429 2.54487 11.6978C2.50004 11.7527 2.46795 11.8169 2.4509 11.8857C2.43385 11.9545 2.43227 12.0262 2.44628 12.0956L2.81932 13.4529C2.88054 13.7581 2.89584 14.0709 2.86236 14.3798L2.20523 20.6221C2.17355 20.9224 2.20545 21.2261 2.29884 21.5133C2.39223 21.8005 2.54503 22.0649 2.74731 22.2892C2.94958 22.5135 3.1968 22.6927 3.47288 22.8151C3.74896 22.9376 4.04773 23.0006 4.34975 23V11.5217Z" fill="#FFBFC5"/>
<path d="M6.49111 20.6221C6.52219 20.9218 6.48998 21.2247 6.39656 21.5113C6.30314 21.7978 6.15059 22.0614 5.94879 22.2853C5.74699 22.5091 5.50044 22.688 5.2251 22.8105C4.94976 22.9329 4.65177 22.9962 4.35042 22.9962C4.04907 22.9962 3.75107 22.9329 3.47573 22.8105C3.20039 22.688 2.95384 22.5091 2.75204 22.2853C2.55024 22.0614 2.3977 21.7978 2.30427 21.5113C2.21085 21.2247 2.17864 20.9218 2.20972 20.6221L2.86685 14.3798C2.89937 14.0709 2.88502 13.7581 2.82381 13.4529L2.44694 12.0956C2.43275 12.0261 2.4342 11.9544 2.45118 11.8855C2.46816 11.8166 2.50024 11.7524 2.54511 11.6975C2.58997 11.6425 2.64649 11.5983 2.71058 11.5679C2.77466 11.5375 2.84471 11.5217 2.91563 11.5217H5.7852C5.85607 11.5219 5.92602 11.5378 5.99002 11.5682C6.05402 11.5987 6.11047 11.6429 6.1553 11.6978C6.20012 11.7527 6.23222 11.8169 6.24927 11.8857C6.26632 11.9545 6.2679 12.0262 6.25389 12.0956L5.98224 13.4549C5.88659 13.7543 5.83685 14.067 5.83398 14.3817L6.49111 20.6221Z" stroke="#191919" stroke-linecap="round" stroke-linejoin="round"/>
<path d="M8.17578 6.73913V6.47991C8.17578 5.02655 8.75313 3.63271 9.78081 2.60503C10.8085 1.57735 12.2023 1 13.6557 1C15.2466 1 16.7723 1.63197 17.8972 2.75688C19.0221 3.88178 19.654 5.40749 19.654 6.99835V11.5217" stroke="#191919" stroke-linecap="round" stroke-linejoin="round"/>
<path d="M8.1757 6.73913C8.1757 7.75387 8.5788 8.72705 9.29633 9.44458C10.0139 10.1621 10.987 10.5652 12.0018 10.5652C13.0165 10.5652 13.9897 10.1621 14.7072 9.44458C15.4248 8.72705 15.8279 7.75387 15.8279 6.73913C15.8279 5.21702 15.2232 3.75725 14.1469 2.68095C13.0706 1.60466 11.6109 1 10.0887 1C8.56663 1 7.10686 1.60466 6.03056 2.68095C4.95427 3.75725 4.34961 5.21702 4.34961 6.73913V11.5217" stroke="#191919" stroke-linecap="round" stroke-linejoin="round"/>
<path d="M5.83334 14.3914H2.86621" stroke="#191919" stroke-linecap="round" stroke-linejoin="round"/>
<path d="M21.7948 20.6221C21.8259 20.9218 21.7937 21.2247 21.7003 21.5113C21.6068 21.7978 21.4543 22.0614 21.2525 22.2853C21.0507 22.5091 20.8041 22.688 20.5288 22.8105C20.2535 22.9329 19.9555 22.9962 19.6541 22.9962C19.3528 22.9962 19.0548 22.9329 18.7794 22.8105C18.5041 22.688 18.2576 22.5091 18.0558 22.2853C17.854 22.0614 17.7014 21.7978 17.608 21.5113C17.5146 21.2247 17.4823 20.9218 17.5134 20.6221L18.1706 14.3798C18.2031 14.0709 18.1887 13.7581 18.1275 13.4529L17.7506 12.0956C17.7366 12.0262 17.7382 11.9545 17.7553 11.8857C17.7723 11.8169 17.8044 11.7527 17.8492 11.6978C17.8941 11.6429 17.9505 11.5987 18.0145 11.5682C18.0785 11.5378 18.1485 11.5219 18.2193 11.5217H21.0889C21.1598 11.5219 21.2297 11.5378 21.2937 11.5682C21.3577 11.5987 21.4142 11.6429 21.459 11.6978C21.5038 11.7527 21.5359 11.8169 21.553 11.8857C21.57 11.9545 21.5716 12.0262 21.5576 12.0956L21.1846 13.4529C21.1233 13.7581 21.108 14.0709 21.1415 14.3798L21.7948 20.6221Z" fill="#FF808C"/>
<path d="M19.6543 11.5217H18.2195C18.1487 11.5221 18.0789 11.538 18.0149 11.5686C17.951 11.5991 17.8947 11.6433 17.8499 11.6982C17.8051 11.753 17.773 11.8171 17.7558 11.8858C17.7387 11.9545 17.737 12.0262 17.7508 12.0956L18.1277 13.4549C18.1889 13.76 18.2042 14.0728 18.1708 14.3817L17.5136 20.624C17.4823 20.9239 17.5143 21.227 17.6076 21.5137C17.7009 21.8005 17.8534 22.0644 18.0552 22.2884C18.257 22.5124 18.5037 22.6915 18.7792 22.8141C19.0546 22.9367 19.3528 23 19.6543 23V11.5217Z" fill="#FFBFC5"/>
<path d="M21.7948 20.6221C21.8259 20.9218 21.7937 21.2247 21.7003 21.5113C21.6068 21.7978 21.4543 22.0614 21.2525 22.2853C21.0507 22.5091 20.8041 22.688 20.5288 22.8105C20.2535 22.9329 19.9555 22.9962 19.6541 22.9962C19.3528 22.9962 19.0548 22.9329 18.7794 22.8105C18.5041 22.688 18.2576 22.5091 18.0558 22.2853C17.854 22.0614 17.7014 21.7978 17.608 21.5113C17.5146 21.2247 17.4823 20.9218 17.5134 20.6221L18.1706 14.3798C18.2031 14.0709 18.1887 13.7581 18.1275 13.4529L17.7506 12.0956C17.7366 12.0262 17.7382 11.9545 17.7553 11.8857C17.7723 11.8169 17.8044 11.7527 17.8492 11.6978C17.8941 11.6429 17.9505 11.5987 18.0145 11.5682C18.0785 11.5378 18.1485 11.5219 18.2193 11.5217H21.0889C21.1598 11.5219 21.2297 11.5378 21.2937 11.5682C21.3577 11.5987 21.4142 11.6429 21.459 11.6978C21.5038 11.7527 21.5359 11.8169 21.553 11.8857C21.57 11.9545 21.5716 12.0262 21.5576 12.0956L21.1846 13.4529C21.1233 13.7581 21.108 14.0709 21.1415 14.3798L21.7948 20.6221Z" stroke="#191919" stroke-linecap="round" stroke-linejoin="round"/>
<path d="M21.1371 14.3914H18.1699" stroke="#191919" stroke-linecap="round" stroke-linejoin="round"/>
</g>
<defs>
<clipPath id="clip0_5303_11660">
<rect width="24" height="24" fill="white"/>
</clipPath>
</defs>
</svg>
