<svg width="24" height="24" viewBox="0 0 24 24" fill="none" xmlns="http://www.w3.org/2000/svg">
<path d="M11.0446 4.82605H20.6098C21.1359 4.82605 21.2306 5.09483 20.8193 5.42388L14.3924 10.5651L21.5663 16.3043H7.7924C7.71398 16.3044 7.63675 16.2852 7.56749 16.2484C7.49823 16.2117 7.43907 16.1584 7.39523 16.0935C7.35138 16.0284 7.3242 15.9536 7.31606 15.8757C7.30792 15.7976 7.31909 15.7189 7.34857 15.6462C8.0124 14.0029 11.0446 13.4347 11.0446 13.4347V4.82605Z" fill="#FF808C"/>
<path d="M11.0443 13.4348H4.34863V1.95654H10.0878C10.3414 1.95654 10.5848 2.05732 10.7641 2.2367C10.9435 2.41608 11.0443 2.65938 11.0443 2.91306V13.4348Z" fill="#FFBFC5"/>
<path d="M4.34863 1.95654H10.0878C10.3414 1.95654 10.5848 2.05732 10.7641 2.2367C10.9435 2.41608 11.0443 2.65938 11.0443 2.91306V4.82611H20.6095C21.1356 4.82611 21.2303 5.09489 20.819 5.42393L14.3921 10.5652L21.566 16.3044H7.79211C7.7137 16.3045 7.63646 16.2853 7.56719 16.2485C7.49794 16.2118 7.43878 16.1585 7.39493 16.0936C7.3511 16.0285 7.3239 15.9537 7.31577 15.8758C7.30763 15.7977 7.3188 15.719 7.34828 15.6463C8.01211 14.003 11.0443 13.4348 11.0443 13.4348H4.34863" stroke="#191919" stroke-linecap="round" stroke-linejoin="round"/>
<path d="M11.043 4.82605V13.4347" stroke="#191919" stroke-linecap="round" stroke-linejoin="round"/>
<path d="M2.43457 1V23" stroke="#191919" stroke-linecap="round" stroke-linejoin="round"/>
</svg>
