<svg width="24" height="24" viewBox="0 0 24 24" fill="none" xmlns="http://www.w3.org/2000/svg">
<g clip-path="url(#clip0_5303_10757)">
<path d="M8.92285 6.80292L14.4383 1.28556C14.6211 1.10272 14.8692 1 15.1278 1C15.3865 1 15.6345 1.10272 15.8174 1.28556L22.7138 8.18202C22.8967 8.36492 22.9994 8.61295 22.9994 8.87157C22.9994 9.13018 22.8967 9.37822 22.7138 9.56112L15.1844 17.0916C15.1296 17.146 15.0627 17.1865 14.9891 17.2101C14.9156 17.2336 14.8376 17.2392 14.7613 17.2267C14.6851 17.2141 14.613 17.1836 14.5509 17.1378C14.4889 17.0918 14.4386 17.032 14.4041 16.9628C13.6112 15.3574 15.1298 13.0099 15.1298 13.0099" fill="#FF808C"/>
<path d="M8.92285 6.80292L14.4383 1.28556C14.6211 1.10272 14.8692 1 15.1278 1C15.3865 1 15.6345 1.10272 15.8174 1.28556L22.7138 8.18202C22.8967 8.36492 22.9994 8.61295 22.9994 8.87157C22.9994 9.13018 22.8967 9.37822 22.7138 9.56112L15.1844 17.0916C15.1296 17.146 15.0627 17.1865 14.9891 17.2101C14.9156 17.2336 14.8376 17.2392 14.7613 17.2267C14.6851 17.2141 14.613 17.1836 14.5509 17.1378C14.4889 17.0918 14.4386 17.032 14.4041 16.9628C13.6112 15.3574 15.1298 13.0099 15.1298 13.0099L8.92285 6.80292Z" fill="#78EB7B"/>
<path d="M15.1268 13.01L10.299 17.8378L2.02441 9.56224L6.16269 5.423C6.34558 5.24016 6.59361 5.13745 6.85223 5.13745C7.11085 5.13745 7.35889 5.24016 7.54178 5.423L8.92186 6.80308" fill="#FF808C"/>
<path d="M15.1268 13.01L10.299 17.8378L2.02441 9.56224L6.16269 5.423C6.34558 5.24016 6.59361 5.13745 6.85223 5.13745C7.11085 5.13745 7.35889 5.24016 7.54178 5.423L8.92186 6.80308L15.1268 13.01Z" fill="#BBF5BD"/>
<path d="M2.02441 9.56209L6.16269 5.42285C6.34558 5.24001 6.59361 5.13729 6.85223 5.13729C7.11085 5.13729 7.35889 5.24001 7.54178 5.42285L8.92186 6.80292L14.4373 1.28556C14.6201 1.10272 14.8682 1 15.1268 1C15.3855 1 15.6335 1.10272 15.8164 1.28556L22.7128 8.18202C22.8957 8.36492 22.9984 8.61295 22.9984 8.87157C22.9984 9.13018 22.8957 9.37822 22.7128 9.56112L15.1834 17.0916C15.1286 17.146 15.0617 17.1865 14.9881 17.2101C14.9146 17.2336 14.8365 17.2392 14.7603 17.2267C14.6841 17.2141 14.612 17.1836 14.5499 17.1378C14.4879 17.0918 14.4376 17.032 14.4031 16.9628C13.6102 15.3574 15.1288 13.0099 15.1288 13.0099L10.301 17.8377" stroke="#191919" stroke-linecap="round" stroke-linejoin="round"/>
<path d="M8.92285 6.80298L15.1288 13.0089" stroke="#191919" stroke-linecap="round" stroke-linejoin="round"/>
<path d="M1.00098 11.2961L12.7048 22.9999" stroke="#191919" stroke-linecap="round" stroke-linejoin="round"/>
</g>
<defs>
<clipPath id="clip0_5303_10757">
<rect width="24" height="24" fill="white"/>
</clipPath>
</defs>
</svg>
