<svg width="24" height="24" viewBox="0 0 24 24" fill="none" xmlns="http://www.w3.org/2000/svg">
<g clip-path="url(#clip0_5303_5775)">
<path d="M15.3475 5.78261H8.65186V1.95652C8.65186 1.70284 8.75262 1.45954 8.932 1.28016C9.11139 1.10078 9.35469 1 9.60838 1H14.391C14.5166 1 14.641 1.02474 14.757 1.07281C14.8731 1.12088 14.9785 1.19134 15.0674 1.28016C15.1562 1.36898 15.2266 1.47443 15.2747 1.59048C15.3228 1.70653 15.3475 1.83091 15.3475 1.95652V5.78261Z" fill="#E3E3E3"/>
<path d="M15.3475 3.86957H8.65186V5.78261H15.3475V3.86957Z" fill="#B2B2B2"/>
<path d="M15.3475 5.78261H8.65186V1.95652C8.65186 1.70284 8.75262 1.45954 8.932 1.28016C9.11139 1.10078 9.35469 1 9.60838 1H14.391C14.5166 1 14.641 1.02474 14.757 1.07281C14.8731 1.12088 14.9785 1.19134 15.0674 1.28016C15.1562 1.36898 15.2266 1.47443 15.2747 1.59048C15.3228 1.70653 15.3475 1.83091 15.3475 1.95652V5.78261Z" stroke="#191919" stroke-linecap="round" stroke-linejoin="round"/>
<path d="M10.5649 2.91302V3.86955" stroke="#191919" stroke-linecap="round" stroke-linejoin="round"/>
<path d="M13.4346 2.91302V3.86955" stroke="#191919" stroke-linecap="round" stroke-linejoin="round"/>
<path d="M16.3045 5.78259C16.4301 5.78259 16.5545 5.80733 16.6705 5.8554C16.7866 5.90347 16.892 5.97393 16.9808 6.06275C17.0697 6.15157 17.1401 6.25702 17.1882 6.37307C17.2363 6.48912 17.261 6.6135 17.261 6.73912V19.1739C17.258 20.1877 16.8539 21.1591 16.137 21.876C15.4201 22.5929 14.4487 22.997 13.4349 23H10.5653C9.55154 22.997 8.58011 22.5929 7.86324 21.876C7.14636 21.1591 6.74229 20.1877 6.73926 19.1739V6.73912C6.73926 6.48543 6.84003 6.24213 7.01942 6.06275C7.1988 5.88337 7.44209 5.78259 7.69578 5.78259H16.3045Z" fill="#D480FF"/>
<path d="M16.3045 5.78259H7.69578C7.57017 5.78259 7.44579 5.80733 7.32973 5.8554C7.21368 5.90347 7.10824 5.97393 7.01942 6.06275C6.9306 6.15157 6.86014 6.25702 6.81207 6.37307C6.764 6.48912 6.73926 6.6135 6.73926 6.73912V15.3478C6.74229 16.3616 7.14636 17.3331 7.86324 18.0499C8.58011 18.7668 9.55154 19.1709 10.5653 19.1739H13.4349C14.4487 19.1709 15.4201 18.7668 16.137 18.0499C16.8539 17.3331 17.258 16.3616 17.261 15.3478V6.73912C17.261 6.48543 17.1602 6.24213 16.9808 6.06275C16.8015 5.88337 16.5582 5.78259 16.3045 5.78259Z" fill="#EABFFF"/>
<path d="M16.3045 5.78259C16.4301 5.78259 16.5545 5.80733 16.6705 5.8554C16.7866 5.90347 16.892 5.97393 16.9808 6.06275C17.0697 6.15157 17.1401 6.25702 17.1882 6.37307C17.2363 6.48912 17.261 6.6135 17.261 6.73912V19.1739C17.258 20.1877 16.8539 21.1591 16.137 21.876C15.4201 22.5929 14.4487 22.997 13.4349 23H10.5653C9.55154 22.997 8.58011 22.5929 7.86324 21.876C7.14636 21.1591 6.74229 20.1877 6.73926 19.1739V6.73912C6.73926 6.48543 6.84003 6.24213 7.01942 6.06275C7.1988 5.88337 7.44209 5.78259 7.69578 5.78259H16.3045Z" stroke="#191919" stroke-linecap="round" stroke-linejoin="round"/>
<path d="M8.65186 7.69565H15.3475" stroke="#191919" stroke-linecap="round" stroke-linejoin="round"/>
</g>
<defs>
<clipPath id="clip0_5303_5775">
<rect width="24" height="24" fill="white"/>
</clipPath>
</defs>
</svg>
