<svg width="24" height="24" viewBox="0 0 24 24" fill="none" xmlns="http://www.w3.org/2000/svg">
<path d="M5.12484 20.7794H19.7915C19.9131 20.7794 20.0297 20.7312 20.1156 20.6452C20.2015 20.5593 20.2498 20.4427 20.2498 20.3211V11.6238H4.6665V20.3211C4.6665 20.4427 4.71479 20.5593 4.80075 20.6452C4.8867 20.7312 5.00328 20.7794 5.12484 20.7794Z" fill="#C2F3FF"/>
<path d="M21.6248 2.4351C21.6248 2.19198 21.5282 1.95883 21.3563 1.78692C21.1845 1.61501 20.9513 1.51843 20.7082 1.51843H4.20817C3.96505 1.51843 3.7319 1.61501 3.55999 1.78692C3.38808 1.95883 3.2915 2.19198 3.2915 2.4351V11.6247H21.6248V2.4351Z" fill="#66E1FF"/>
<path d="M21.6248 3.79922V2.43522C21.6248 2.1921 21.5282 1.95895 21.3563 1.78704C21.1845 1.61513 20.9513 1.51855 20.7082 1.51855H4.20817C3.96505 1.51855 3.7319 1.61513 3.55999 1.78704C3.38808 1.95895 3.2915 2.1921 3.2915 2.43522V3.79922H21.6248Z" fill="#C2F3FF"/>
<path d="M13.8337 14.0329L12.9298 17.6931L9.27686 16.8131" stroke="#191919" stroke-linecap="round" stroke-linejoin="round"/>
<path d="M3.29313 18.4997C3.16657 18.4997 3.06396 18.6023 3.06396 18.7289C3.06396 18.8554 3.16657 18.958 3.29313 18.958" stroke="#191919"/>
<path d="M3.29346 18.4997C3.42002 18.4997 3.52262 18.6023 3.52262 18.7289C3.52262 18.8554 3.42002 18.958 3.29346 18.958" stroke="#191919"/>
<path d="M21.6266 18.4997C21.5001 18.4997 21.3975 18.6023 21.3975 18.7289C21.3975 18.8554 21.5001 18.958 21.6266 18.958" stroke="#191919"/>
<path d="M21.6265 18.4997C21.7531 18.4997 21.8556 18.6023 21.8556 18.7289C21.8556 18.8554 21.7531 18.958 21.6265 18.958" stroke="#191919"/>
<path d="M3.29313 14.8331C3.16657 14.8331 3.06396 14.9356 3.06396 15.0622C3.06396 15.1887 3.16657 15.2914 3.29313 15.2914" stroke="#191919"/>
<path d="M3.29346 14.8331C3.42002 14.8331 3.52262 14.9356 3.52262 15.0622C3.52262 15.1887 3.42002 15.2914 3.29346 15.2914" stroke="#191919"/>
<path d="M21.6266 14.8331C21.5001 14.8331 21.3975 14.9356 21.3975 15.0622C21.3975 15.1887 21.5001 15.2914 21.6266 15.2914" stroke="#191919"/>
<path d="M21.6265 14.8331C21.7531 14.8331 21.8556 14.9356 21.8556 15.0622C21.8556 15.1887 21.7531 15.2914 21.6265 15.2914" stroke="#191919"/>
<path d="M3.29142 22.4814C3.23866 22.4812 3.18758 22.4628 3.14689 22.4292C3.1062 22.3956 3.07841 22.349 3.06824 22.2972C3.05808 22.2454 3.06616 22.1917 3.09113 22.1452C3.1161 22.0987 3.15641 22.0623 3.20518 22.0422C3.25397 22.0221 3.30822 22.0195 3.3587 22.0348C3.40918 22.0502 3.45277 22.0826 3.48206 22.1265C3.51136 22.1704 3.52454 22.2231 3.51936 22.2756C3.51418 22.3281 3.49097 22.3772 3.45367 22.4145C3.43235 22.4358 3.40705 22.4526 3.37921 22.4641C3.35137 22.4757 3.32153 22.4815 3.29142 22.4814Z" stroke="#191919" stroke-linecap="round" stroke-linejoin="round"/>
<path d="M6.95841 22.4814C6.90565 22.4812 6.85457 22.4628 6.81388 22.4292C6.77319 22.3956 6.7454 22.349 6.73523 22.2972C6.72507 22.2454 6.73315 22.1917 6.75812 22.1452C6.78309 22.0987 6.8234 22.0623 6.87217 22.0422C6.92096 22.0221 6.97521 22.0195 7.02569 22.0348C7.07617 22.0502 7.11977 22.0826 7.14905 22.1265C7.17835 22.1704 7.19153 22.2231 7.18635 22.2756C7.18117 22.3281 7.15796 22.3772 7.12066 22.4145C7.09934 22.4358 7.07404 22.4526 7.0462 22.4641C7.01836 22.4757 6.98853 22.4815 6.95841 22.4814Z" stroke="#191919" stroke-linecap="round" stroke-linejoin="round"/>
<path d="M10.625 22.4814C10.5722 22.4812 10.5211 22.4628 10.4804 22.4292C10.4397 22.3956 10.4119 22.349 10.4017 22.2972C10.3916 22.2454 10.3996 22.1917 10.4247 22.1452C10.4496 22.0987 10.4899 22.0623 10.5387 22.0422C10.5875 22.0221 10.6417 22.0195 10.6922 22.0348C10.7427 22.0502 10.7863 22.0826 10.8155 22.1265C10.8449 22.1704 10.8581 22.2231 10.8528 22.2756C10.8477 22.3281 10.8245 22.3772 10.7872 22.4145C10.7658 22.4358 10.7405 22.4526 10.7127 22.4641C10.6849 22.4757 10.655 22.4815 10.625 22.4814Z" stroke="#191919" stroke-linecap="round" stroke-linejoin="round"/>
<path d="M14.2915 22.4814C14.2387 22.4812 14.1876 22.4628 14.1469 22.4292C14.1062 22.3956 14.0784 22.349 14.0682 22.2972C14.0581 22.2454 14.0661 22.1917 14.0912 22.1452C14.1161 22.0987 14.1564 22.0623 14.2052 22.0422C14.254 22.0221 14.3082 22.0195 14.3587 22.0348C14.4092 22.0502 14.4528 22.0826 14.482 22.1265C14.5114 22.1704 14.5246 22.2231 14.5193 22.2756C14.5142 22.3281 14.491 22.3772 14.4537 22.4145C14.4323 22.4358 14.407 22.4526 14.3792 22.4641C14.3514 22.4757 14.3215 22.4815 14.2915 22.4814Z" stroke="#191919" stroke-linecap="round" stroke-linejoin="round"/>
<path d="M17.9585 22.4814C17.9057 22.4812 17.8546 22.4628 17.8139 22.4292C17.7732 22.3956 17.7454 22.349 17.7352 22.2972C17.7251 22.2454 17.7331 22.1917 17.7582 22.1452C17.7831 22.0987 17.8234 22.0623 17.8722 22.0422C17.921 22.0221 17.9752 22.0195 18.0257 22.0348C18.0762 22.0502 18.1198 22.0826 18.149 22.1265C18.1784 22.1704 18.1916 22.2231 18.1863 22.2756C18.1812 22.3281 18.158 22.3772 18.1207 22.4145C18.0993 22.4358 18.074 22.4526 18.0462 22.4641C18.0184 22.4757 17.9885 22.4815 17.9585 22.4814Z" stroke="#191919" stroke-linecap="round" stroke-linejoin="round"/>
<path d="M21.625 22.4814C21.5722 22.4812 21.5211 22.4628 21.4804 22.4292C21.4397 22.3956 21.4119 22.349 21.4017 22.2972C21.3916 22.2454 21.3996 22.1917 21.4247 22.1452C21.4496 22.0987 21.4899 22.0623 21.5387 22.0422C21.5875 22.0221 21.6417 22.0195 21.6922 22.0348C21.7427 22.0502 21.7863 22.0826 21.8155 22.1265C21.8449 22.1704 21.8581 22.2231 21.8528 22.2756C21.8477 22.3281 21.8245 22.3772 21.7872 22.4145C21.7658 22.4358 21.7405 22.4526 21.7127 22.4641C21.6849 22.4757 21.655 22.4815 21.625 22.4814Z" stroke="#191919" stroke-linecap="round" stroke-linejoin="round"/>
<path d="M21.6248 9.79139V2.45805C21.6248 2.21493 21.5282 1.98178 21.3563 1.80987C21.1845 1.63796 20.9513 1.54138 20.7082 1.54138H4.20817C3.96505 1.54138 3.7319 1.63796 3.55999 1.80987C3.38808 1.98178 3.2915 2.21493 3.2915 2.45805V9.79139" stroke="#191919" stroke-linecap="round" stroke-linejoin="round"/>
<path d="M13.375 11.6247H22.5417" stroke="#191919" stroke-linecap="round" stroke-linejoin="round"/>
<path d="M1.4585 11.6247H7.87516" stroke="#191919" stroke-linecap="round" stroke-linejoin="round"/>
<path d="M12.9165 17.6931C11.4452 16.0262 10.63 13.8814 10.6226 11.6581C10.6152 9.43474 11.4161 7.28453 12.8761 5.60779" stroke="#191919" stroke-linecap="round" stroke-linejoin="round"/>
</svg>
