<svg width="24" height="24" viewBox="0 0 24 24" fill="none" xmlns="http://www.w3.org/2000/svg">
<g clip-path="url(#clip0_5303_5546)">
<path d="M23 1.95652C23 1.70283 22.8992 1.45954 22.7198 1.28016C22.5405 1.10078 22.2971 1 22.0435 1H4.26556C4.0119 1.00005 3.76864 1.10087 3.5893 1.28026L1.28026 3.5893C1.10087 3.76864 1.00005 4.0119 1 4.26556V22.0435C1 22.2971 1.10078 22.5405 1.28016 22.7198C1.45954 22.8992 1.70283 23 1.95652 23H22.0435C22.2971 23 22.5405 22.8992 22.7198 22.7198C22.8992 22.5405 23 22.2971 23 22.0435V1.95652Z" fill="#66E1FF"/>
<path d="M22.7197 1.28026C22.5404 1.10087 22.2971 1.00005 22.0435 1H4.26556C4.0119 1.00005 3.76864 1.10087 3.5893 1.28026L1.28026 3.5893C1.10087 3.76864 1.00005 4.0119 1 4.26556V22.0435C1.00005 22.2971 1.10087 22.5404 1.28026 22.7197L22.7197 1.28026Z" fill="#C2F3FF"/>
<path d="M23 1.95652C23 1.70283 22.8992 1.45954 22.7198 1.28016C22.5405 1.10078 22.2971 1 22.0435 1H4.26556C4.0119 1.00005 3.76864 1.10087 3.5893 1.28026L1.28026 3.5893C1.10087 3.76864 1.00005 4.0119 1 4.26556V22.0435C1 22.2971 1.10078 22.5405 1.28016 22.7198C1.45954 22.8992 1.70283 23 1.95652 23H22.0435C22.2971 23 22.5405 22.8992 22.7198 22.7198C22.8992 22.5405 23 22.2971 23 22.0435V1.95652Z" stroke="#191919" stroke-linecap="round" stroke-linejoin="round"/>
<path d="M19.1735 6.73913C19.1735 6.99281 19.0727 7.2361 18.8933 7.41549C18.714 7.59487 18.4706 7.69565 18.217 7.69565H5.7822C5.52852 7.69565 5.28523 7.59487 5.10584 7.41549C4.92646 7.2361 4.82568 6.99281 4.82568 6.73913V1H19.1735V6.73913Z" fill="#E3E3E3"/>
<path d="M5.7822 7.69565H8.65177L15.3474 1H4.82568V6.73913C4.82568 6.99281 4.92646 7.2361 5.10584 7.41549C5.28523 7.59487 5.52852 7.69565 5.7822 7.69565Z" fill="white"/>
<path d="M19.1735 6.73913C19.1735 6.99281 19.0727 7.2361 18.8933 7.41549C18.714 7.59487 18.4706 7.69565 18.217 7.69565H5.7822C5.52852 7.69565 5.28523 7.59487 5.10584 7.41549C4.92646 7.2361 4.82568 6.99281 4.82568 6.73913V1H19.1735V6.73913Z" stroke="#191919" stroke-linecap="round" stroke-linejoin="round"/>
<path d="M4.82568 23H19.1735V20.1304C19.1735 19.8767 19.0727 19.6334 18.8933 19.4541C18.714 19.2747 18.4706 19.1739 18.217 19.1739H5.7822C5.52852 19.1739 5.28523 19.2747 5.10584 19.4541C4.92646 19.6334 4.82568 19.8767 4.82568 20.1304V23Z" fill="white" stroke="#191919" stroke-linecap="round" stroke-linejoin="round"/>
<path d="M11.9999 16.3044C13.5848 16.3044 14.8695 15.0197 14.8695 13.4348C14.8695 11.8499 13.5848 10.5652 11.9999 10.5652C10.4151 10.5652 9.13037 11.8499 9.13037 13.4348C9.13037 15.0197 10.4151 16.3044 11.9999 16.3044Z" fill="#808080"/>
<path d="M9.97105 15.4636C9.44834 14.9224 9.15909 14.1975 9.16564 13.4451C9.17217 12.6927 9.47396 11.9731 10.006 11.4409C10.5381 10.9089 11.2578 10.6071 12.0102 10.6006C12.7626 10.594 13.4874 10.8833 14.0286 11.406L9.97105 15.4636Z" fill="#B2B2B2"/>
<path d="M11.9999 16.3044C13.5848 16.3044 14.8695 15.0197 14.8695 13.4348C14.8695 11.8499 13.5848 10.5652 11.9999 10.5652C10.4151 10.5652 9.13037 11.8499 9.13037 13.4348C9.13037 15.0197 10.4151 16.3044 11.9999 16.3044Z" stroke="#191919" stroke-linecap="round" stroke-linejoin="round"/>
</g>
<defs>
<clipPath id="clip0_5303_5546">
<rect width="24" height="24" fill="white"/>
</clipPath>
</defs>
</svg>
