<svg width="24" height="24" viewBox="0 0 24 24" fill="none" xmlns="http://www.w3.org/2000/svg">
<g clip-path="url(#clip0_5303_3487)">
<path d="M19.1744 17.2609C19.4281 17.2609 19.6714 17.1601 19.8508 16.9807C20.0302 16.8014 20.131 16.5581 20.131 16.3044V4.82609C20.131 4.57241 20.0302 4.32911 19.8508 4.14973C19.6714 3.97035 19.4281 3.86957 19.1744 3.86957H9.72207C9.54448 3.86948 9.37042 3.81994 9.21939 3.72652C9.06836 3.6331 8.94632 3.49947 8.86694 3.34061L7.96015 1.52896C7.88077 1.3701 7.75873 1.23647 7.6077 1.14305C7.45667 1.04963 7.28261 1.00009 7.10502 1H1.95701C1.70333 1 1.46003 1.10078 1.28065 1.28016C1.10126 1.45954 1.00049 1.70284 1.00049 1.95652V16.3044C1.00049 16.5581 1.10126 16.8014 1.28065 16.9807C1.46003 17.1601 1.70333 17.2609 1.95701 17.2609H19.1744Z" fill="#FFEF5E"/>
<path d="M9.72207 3.86957C9.54448 3.86948 9.37042 3.81994 9.21939 3.72652C9.06836 3.6331 8.94632 3.49947 8.86694 3.34061L7.96015 1.52896C7.88077 1.3701 7.75873 1.23647 7.6077 1.14305C7.45667 1.04963 7.28261 1.00009 7.10502 1H1.95701C1.70333 1 1.46003 1.10078 1.28065 1.28016C1.10126 1.45954 1.00049 1.70284 1.00049 1.95652V16.3044C1.00049 16.5581 1.10126 16.8014 1.28065 16.9807C1.46003 17.1601 1.70333 17.2609 1.95701 17.2609H2.62658L16.0179 3.86957H9.72207Z" fill="#FFF9BF"/>
<path d="M20.131 8.65219V4.82609C20.131 4.57241 20.0302 4.32911 19.8508 4.14973C19.6714 3.97035 19.4281 3.86957 19.1744 3.86957H9.72207C9.54448 3.86948 9.37042 3.81994 9.21939 3.72652C9.06836 3.6331 8.94632 3.49947 8.86694 3.34061L7.96015 1.52896C7.88077 1.3701 7.75873 1.23647 7.6077 1.14305C7.45667 1.04963 7.28261 1.00009 7.10502 1H1.95701C1.70333 1 1.46003 1.10078 1.28065 1.28016C1.10126 1.45954 1.00049 1.70284 1.00049 1.95652V16.3044C1.00049 16.5581 1.10126 16.8014 1.28065 16.9807C1.46003 17.1601 1.70333 17.2609 1.95701 17.2609H8.65267" stroke="#191919" stroke-linecap="round" stroke-linejoin="round"/>
<path d="M17.2606 23C18.7827 23 20.2425 22.3954 21.3188 21.3191C22.3951 20.2428 22.9998 18.783 22.9998 17.2609C22.9998 15.7388 22.3951 14.279 21.3188 13.2027C20.2425 12.1264 18.7827 11.5217 17.2606 11.5217C15.7385 11.5217 14.2787 12.1264 13.2024 13.2027C12.1261 14.279 11.5215 15.7388 11.5215 17.2609C11.5215 18.783 12.1261 20.2428 13.2024 21.3191C14.2787 22.3954 15.7385 23 17.2606 23Z" fill="#78EB7B"/>
<path d="M17.2614 11.5217C16.0942 11.5232 14.9553 11.8804 13.9964 12.5458C13.0376 13.2112 12.3044 14.1531 11.8946 15.2459C11.4849 16.3388 11.418 17.5305 11.703 18.6623C11.988 19.7941 12.6113 20.8121 13.4898 21.5805L21.5801 13.4903C21.0432 12.872 20.3797 12.3763 19.6346 12.0367C18.8895 11.697 18.0802 11.5214 17.2614 11.5217Z" fill="#C9F7CA"/>
<path d="M17.2606 23C18.7827 23 20.2425 22.3954 21.3188 21.3191C22.3951 20.2428 22.9998 18.783 22.9998 17.2609C22.9998 15.7388 22.3951 14.279 21.3188 13.2027C20.2425 12.1264 18.7827 11.5217 17.2606 11.5217C15.7385 11.5217 14.2787 12.1264 13.2024 13.2027C12.1261 14.279 11.5215 15.7388 11.5215 17.2609C11.5215 18.783 12.1261 20.2428 13.2024 21.3191C14.2787 22.3954 15.7385 23 17.2606 23Z" stroke="#191919" stroke-linecap="round" stroke-linejoin="round"/>
<path d="M17.2607 14.3913V20.1304" stroke="#191919" stroke-linecap="round" stroke-linejoin="round"/>
<path d="M20.1303 17.2609H14.3911" stroke="#191919" stroke-linecap="round" stroke-linejoin="round"/>
</g>
<defs>
<clipPath id="clip0_5303_3487">
<rect width="24" height="24" fill="white"/>
</clipPath>
</defs>
</svg>
