<svg width="24" height="24" viewBox="0 0 24 24" fill="none" xmlns="http://www.w3.org/2000/svg">
<g clip-path="url(#clip0_5303_3571)">
<path d="M19.1744 17.2609C19.4281 17.2609 19.6714 17.1601 19.8508 16.9807C20.0301 16.8013 20.1309 16.558 20.1309 16.3043V4.82608C20.1309 4.5724 20.0301 4.3291 19.8508 4.14972C19.6714 3.97034 19.4281 3.86956 19.1744 3.86956H9.72205C9.54446 3.86947 9.3704 3.81994 9.21937 3.72651C9.06834 3.63309 8.9463 3.49947 8.86692 3.34061L7.96013 1.52896C7.88075 1.3701 7.75871 1.23647 7.60768 1.14305C7.45665 1.04963 7.28259 1.00009 7.10501 1H1.95701C1.70332 1 1.46003 1.10078 1.28065 1.28016C1.10126 1.45954 1.00049 1.70284 1.00049 1.95652V16.3043C1.00049 16.558 1.10126 16.8013 1.28065 16.9807C1.46003 17.1601 1.70332 17.2609 1.95701 17.2609H19.1744Z" fill="#FFEF5E"/>
<path d="M9.72205 3.86956C9.54446 3.86947 9.3704 3.81994 9.21937 3.72651C9.06834 3.63309 8.9463 3.49947 8.86692 3.34061L7.96013 1.52896C7.88075 1.3701 7.75871 1.23647 7.60768 1.14305C7.45665 1.04963 7.28259 1.00009 7.10501 1H1.95701C1.70332 1 1.46003 1.10078 1.28065 1.28016C1.10126 1.45954 1.00049 1.70284 1.00049 1.95652V16.3043C1.00049 16.558 1.10126 16.8013 1.28065 16.9807C1.46003 17.1601 1.70332 17.2609 1.95701 17.2609H2.62657L16.0179 3.86956H9.72205Z" fill="#FFF9BF"/>
<path d="M20.1309 8.65217V4.82608C20.1309 4.5724 20.0301 4.3291 19.8508 4.14972C19.6714 3.97034 19.4281 3.86956 19.1744 3.86956H9.72205C9.54446 3.86947 9.3704 3.81994 9.21937 3.72651C9.06834 3.63309 8.9463 3.49947 8.86692 3.34061L7.96013 1.52896C7.88075 1.3701 7.75871 1.23647 7.60768 1.14305C7.45665 1.04963 7.28259 1.00009 7.10501 1H1.95701C1.70332 1 1.46003 1.10078 1.28065 1.28016C1.10126 1.45954 1.00049 1.70284 1.00049 1.95652V16.3043C1.00049 16.558 1.10126 16.8013 1.28065 16.9807C1.46003 17.1601 1.70332 17.2609 1.95701 17.2609H8.65266" stroke="#191919" stroke-linecap="round" stroke-linejoin="round"/>
<path d="M17.2606 23C18.7827 23 20.2425 22.3953 21.3188 21.319C22.3951 20.2427 22.9997 18.783 22.9997 17.2609C22.9997 15.7388 22.3951 14.279 21.3188 13.2027C20.2425 12.1264 18.7827 11.5217 17.2606 11.5217C15.7385 11.5217 14.2787 12.1264 13.2024 13.2027C12.1261 14.279 11.5215 15.7388 11.5215 17.2609C11.5215 18.783 12.1261 20.2427 13.2024 21.319C14.2787 22.3953 15.7385 23 17.2606 23Z" fill="#66E1FF"/>
<path d="M17.2614 11.5217C16.0933 11.5208 14.9528 11.8766 13.9924 12.5416C13.0321 13.2066 12.2977 14.149 11.8876 15.2427C11.4774 16.3364 11.4111 17.5293 11.6974 18.6618C11.9838 19.7942 12.6091 20.8122 13.4898 21.5796L21.5801 13.4893C21.0431 12.8712 20.3796 12.3757 19.6345 12.0362C18.8894 11.6968 18.0801 11.5213 17.2614 11.5217Z" fill="#C2F3FF"/>
<path d="M17.2606 23C18.7827 23 20.2425 22.3953 21.3188 21.319C22.3951 20.2427 22.9997 18.783 22.9997 17.2609C22.9997 15.7388 22.3951 14.279 21.3188 13.2027C20.2425 12.1264 18.7827 11.5217 17.2606 11.5217C15.7385 11.5217 14.2787 12.1264 13.2024 13.2027C12.1261 14.279 11.5215 15.7388 11.5215 17.2609C11.5215 18.783 12.1261 20.2427 13.2024 21.319C14.2787 22.3953 15.7385 23 17.2606 23Z" stroke="#191919" stroke-linecap="round" stroke-linejoin="round"/>
<path d="M17.2607 20.1352V14.3961" stroke="#191919" stroke-linecap="round" stroke-linejoin="round"/>
<path d="M17.2606 14.3961L15.1084 16.5483" stroke="#191919" stroke-linecap="round" stroke-linejoin="round"/>
<path d="M17.2607 14.3961L19.4129 16.5483" stroke="#191919" stroke-linecap="round" stroke-linejoin="round"/>
</g>
<defs>
<clipPath id="clip0_5303_3571">
<rect width="24" height="24" fill="white"/>
</clipPath>
</defs>
</svg>
