<svg width="24" height="24" viewBox="0 0 24 24" fill="none" xmlns="http://www.w3.org/2000/svg">
<path d="M12.0002 21.1666C17.0627 21.1666 21.1668 17.0625 21.1668 12C21.1668 6.93737 17.0627 2.83331 12.0002 2.83331C6.93755 2.83331 2.8335 6.93737 2.8335 12C2.8335 17.0625 6.93755 21.1666 12.0002 21.1666Z" fill="#C2F3FF"/>
<path d="M15.6476 20.9147L9.66541 3.39442C9.63444 3.30403 9.576 3.22558 9.49826 3.17005C9.42052 3.11451 9.32737 3.08466 9.23183 3.08466C9.13628 3.08466 9.04313 3.11451 8.9654 3.17005C8.88766 3.22558 8.82922 3.30403 8.79825 3.39442L2.8335 20.9147" stroke="#191919" stroke-linecap="round" stroke-linejoin="round"/>
<path d="M5.01758 14.498H13.4574" stroke="#191919" stroke-linecap="round" stroke-linejoin="round"/>
<path d="M1.4585 20.9147H4.22683" stroke="#191919" stroke-linecap="round" stroke-linejoin="round"/>
<path d="M14.2725 20.9147H17.0417" stroke="#191919" stroke-linecap="round" stroke-linejoin="round"/>
<path d="M21.6248 20.9146L17.8454 9.84309C17.8144 9.7527 17.7559 9.67426 17.6782 9.61872C17.6005 9.56318 17.5073 9.53333 17.4118 9.53333C17.3162 9.53333 17.2231 9.56318 17.1453 9.61872C17.0676 9.67426 17.0092 9.7527 16.9782 9.84309L15.2476 14.9242" stroke="#191919" stroke-linecap="round" stroke-linejoin="round"/>
<path d="M16.5098 16.3314H20.0609" stroke="#191919" stroke-linecap="round" stroke-linejoin="round"/>
<path d="M20.7231 20.9147H22.5418" stroke="#191919" stroke-linecap="round" stroke-linejoin="round"/>
</svg>
