<svg width="107" height="15" viewBox="0 0 107 15" fill="none" xmlns="http://www.w3.org/2000/svg">
<path d="M-5.46575e-05 0.215981H7.90195V1.87198H1.87195V6.26398H7.00195V7.91998H1.87195V14.256H-5.46575e-05V0.215981ZM14.1906 14.472C10.8066 14.472 9.16855 12.456 9.16855 7.59598V6.87598C9.16855 2.01598 10.8066 -1.95503e-05 14.1906 -1.95503e-05C17.5566 -1.95503e-05 19.1946 2.01598 19.1946 6.87598V7.59598C19.1946 12.456 17.5566 14.472 14.1906 14.472ZM14.1186 12.816H14.2446C16.4046 12.816 17.2686 11.16 17.2686 7.59598V6.87598C17.2686 3.31198 16.4046 1.65598 14.2446 1.65598H14.1186C11.9586 1.65598 11.0946 3.31198 11.0946 6.87598V7.59598C11.0946 11.16 11.9586 12.816 14.1186 12.816ZM26.0206 14.472C22.6366 14.472 20.9986 12.456 20.9986 7.59598V6.87598C20.9986 2.01598 22.6366 -1.95503e-05 26.0206 -1.95503e-05C29.3866 -1.95503e-05 31.0246 2.01598 31.0246 6.87598V7.59598C31.0246 12.456 29.3866 14.472 26.0206 14.472ZM25.9486 12.816H26.0746C28.2346 12.816 29.0986 11.16 29.0986 7.59598V6.87598C29.0986 3.31198 28.2346 1.65598 26.0746 1.65598H25.9486C23.7886 1.65598 22.9246 3.31198 22.9246 6.87598V7.59598C22.9246 11.16 23.7886 12.816 25.9486 12.816ZM42.6747 7.59598C42.6747 12.456 40.7667 14.256 37.0767 14.256H33.1347V0.215981H37.0767C40.7667 0.215981 42.6747 2.01598 42.6747 6.87598V7.59598ZM35.0067 12.6H36.9507C39.5427 12.6 40.7487 11.16 40.7487 7.59598V6.87598C40.7487 3.31198 39.5427 1.87198 36.9507 1.87198H35.0067V12.6ZM57.9325 7.59598C57.9325 12.456 56.0245 14.256 52.3345 14.256H48.3925V0.215981H52.3345C56.0245 0.215981 57.9325 2.01598 57.9325 6.87598V7.59598ZM50.2645 12.6H52.2085C54.8005 12.6 56.0065 11.16 56.0065 7.59598V6.87598C56.0065 3.31198 54.8005 1.87198 52.2085 1.87198H50.2645V12.6ZM61.9188 8.78398V14.256H60.0468V0.215981H64.2048C66.3108 0.215981 68.7048 0.91798 68.7048 4.31998V4.67998C68.7048 6.92998 67.6608 7.99198 66.3648 8.45998L68.7048 14.256H66.6708L64.5468 8.78398H61.9188ZM61.9188 7.14598H64.2588C65.3388 7.14598 66.7968 6.74998 66.7968 4.62598V4.39198C66.7968 2.26798 65.3388 1.87198 64.2588 1.87198H61.9188V7.14598ZM72.7666 0.215981V14.256H70.8946V0.215981H72.7666ZM84.8635 0.215981V14.256H82.8655L76.9795 3.52798L77.0515 6.64198V14.256H75.2695V0.215981H77.2675L83.1535 10.944L83.0815 7.82998V0.215981H84.8635ZM89.1473 0.215981V7.14598L93.7913 0.215981H96.0593L91.9733 6.02998L96.0593 14.256H93.9713L90.8033 7.68598L89.1473 10.044V14.256H87.2753V0.215981H89.1473ZM101.502 7.88398C98.4418 7.46998 97.1818 6.19198 97.1818 4.10398V3.90598C97.1818 1.51198 98.9458 -1.95503e-05 101.808 -1.95503e-05C105.03 -1.95503e-05 106.416 1.58398 106.416 4.62598V5.05798H104.544C104.544 2.68198 103.752 1.65598 101.826 1.65598H101.7C100.17 1.65598 99.1078 2.48398 99.1078 3.76198V3.90598C99.1078 5.21998 99.7558 5.99398 102.132 6.31798C105.192 6.73198 106.56 7.90198 106.56 10.206V10.404C106.56 12.96 104.778 14.472 101.808 14.472C98.6938 14.472 97.0378 12.852 97.0378 9.77398V9.59398H98.9098C98.9098 11.826 100.044 12.816 101.736 12.816H101.88C103.572 12.816 104.634 11.916 104.634 10.494V10.35C104.634 8.92798 103.806 8.18998 101.502 7.88398Z" fill="#121212"/>
</svg>
