<svg width="24" height="24" viewBox="0 0 24 24" fill="none" xmlns="http://www.w3.org/2000/svg">
<g clip-path="url(#clip0_5303_7537)">
<path d="M17.261 20.1305C17.261 20.3817 17.2115 20.6304 17.1154 20.8625C17.0192 21.0946 16.8783 21.3055 16.7007 21.4832C16.523 21.6608 16.3121 21.8017 16.08 21.8979C15.8479 21.994 15.5992 22.0435 15.348 22.0435H8.6523C8.1454 22.042 7.65969 21.8399 7.30125 21.4815C6.94281 21.1231 6.74077 20.6374 6.73926 20.1305V18.2174H17.2514L17.261 20.1305Z" fill="white"/>
<path d="M17.2514 18.2174H6.73926V4.82613C6.74077 4.31922 6.94281 3.83351 7.30125 3.47508C7.65969 3.11664 8.1454 2.9146 8.6523 2.91309H15.348C15.7724 2.91349 16.1847 3.05451 16.5204 3.31411C16.8561 3.5737 17.0964 3.93724 17.2036 4.34787L17.2514 18.2174Z" fill="#66E1FF"/>
<path d="M17.2103 6.30778L17.2036 4.34787C17.0964 3.93724 16.8561 3.5737 16.5204 3.31411C16.1847 3.05451 15.7724 2.91349 15.348 2.91309H8.6523C8.1454 2.9146 7.65969 3.11664 7.30125 3.47508C6.94281 3.83351 6.74077 4.31922 6.73926 4.82613V16.7827L17.2103 6.30778Z" fill="#C2F3FF"/>
<path d="M17.2601 18.2174H8.65137" stroke="#191919" stroke-linecap="round" stroke-linejoin="round"/>
<path d="M11.9999 20.3696C11.9365 20.3696 11.8756 20.3444 11.8308 20.2996C11.7859 20.2547 11.7607 20.1939 11.7607 20.1305C11.7607 20.0671 11.7859 20.0062 11.8308 19.9614C11.8756 19.9166 11.9365 19.8914 11.9999 19.8914" stroke="#191919"/>
<path d="M11.9995 20.3696C12.0629 20.3696 12.1238 20.3444 12.1686 20.2996C12.2134 20.2547 12.2386 20.1939 12.2386 20.1305C12.2386 20.0671 12.2134 20.0062 12.1686 19.9614C12.1238 19.9166 12.0629 19.8914 11.9995 19.8914" stroke="#191919"/>
<path d="M6.73926 14.3913V4.82613C6.73926 4.31876 6.94081 3.83217 7.29958 3.4734C7.65834 3.11464 8.14493 2.91309 8.6523 2.91309H15.348C15.7721 2.91298 16.1844 3.05386 16.5197 3.31359C16.8551 3.57331 17.0947 3.93714 17.2007 4.34787" stroke="#191919" stroke-linecap="round" stroke-linejoin="round"/>
<path d="M17.261 10.0822V20.1304C17.261 20.3816 17.2115 20.6304 17.1154 20.8625C17.0192 21.0946 16.8783 21.3055 16.7007 21.4831C16.523 21.6608 16.3121 21.8017 16.08 21.8978C15.8479 21.994 15.5992 22.0435 15.348 22.0435H8.6523C8.14493 22.0435 7.65834 21.8419 7.29958 21.4831C6.94081 21.1244 6.73926 20.6378 6.73926 20.1304V19.6522" stroke="#191919" stroke-linecap="round" stroke-linejoin="round"/>
<path d="M23 1L1 23" stroke="#191919" stroke-linecap="round" stroke-linejoin="round"/>
</g>
<defs>
<clipPath id="clip0_5303_7537">
<rect width="24" height="24" fill="white"/>
</clipPath>
</defs>
</svg>
