<svg width="24" height="24" viewBox="0 0 24 24" fill="none" xmlns="http://www.w3.org/2000/svg">
<g clip-path="url(#clip0_5303_11299)">
<path d="M22.5702 13.5095C21.9923 15.6855 20.8491 17.6702 19.2567 19.2618C17.6644 20.8536 15.6794 21.9959 13.5032 22.573C11.3269 23.1503 9.03669 23.1415 6.86487 22.5481C4.69296 21.9546 2.71667 20.7974 1.13632 19.1937C1.04891 19.1046 1 18.9848 1 18.8599C1 18.735 1.04891 18.6152 1.13632 18.526L2.80558 16.8568C7.42242 21.4727 13.5846 20.7954 17.1903 17.1906C20.7959 13.5859 21.4541 7.42185 16.8564 2.81551V2.80595L18.5257 1.13668C18.6148 1.04927 18.7347 1.00037 18.8596 1.00037C18.9845 1.00037 19.1042 1.04927 19.1934 1.13668C20.7988 2.71713 21.9568 4.69454 22.55 6.86786C23.1431 9.04108 23.1502 11.3326 22.5702 13.5095Z" fill="#78EB7B"/>
<path d="M16.8565 2.81641L2.80566 16.8577C7.4225 21.4736 13.5846 20.7963 17.1904 17.1916C20.796 13.5868 21.4542 7.42275 16.8565 2.81641ZM7.82311 17.2793C7.29854 17.2793 6.87882 16.6507 6.87882 15.858C6.87882 15.0653 7.29854 14.4463 7.82311 14.4463C8.34768 14.4463 8.7675 15.0758 8.7675 15.858C8.7675 16.6402 8.34777 17.2793 7.82311 17.2793ZM14.176 14.1792C13.8041 14.5521 13.06 14.3985 12.5067 13.8453C11.9535 13.292 11.8009 12.549 12.1729 12.176C12.545 11.803 13.289 11.9566 13.8422 12.5098C14.3954 13.0631 14.5481 13.8147 14.176 14.1763V14.1792ZM15.8549 8.78106C15.0632 8.78106 14.4336 8.36039 14.4336 7.83676C14.4336 7.31303 15.0632 6.89237 15.8549 6.89237C16.6467 6.89237 17.2666 7.3121 17.2666 7.83676C17.2666 8.36142 16.637 8.77825 15.8549 8.77825V8.78106Z" fill="#FF808C"/>
<path d="M2.80665 16.8596C3.66354 17.7274 4.65178 18.455 5.73501 19.0154L3.59833 21.1521C2.70004 20.6049 1.87332 19.948 1.13729 19.1966C1.04988 19.1075 1.00098 18.9876 1.00098 18.8627C1.00098 18.7378 1.04988 18.6181 1.13729 18.5289L2.80665 16.8596Z" fill="#C9F7CA"/>
<path d="M21.1404 3.61009L19.0037 5.74677C18.4492 4.66231 17.7246 3.6737 16.8574 2.81841V2.80885L18.5268 1.13949C18.616 1.05217 18.7357 1.00317 18.8606 1.00317C18.9855 1.00317 19.1053 1.05217 19.1945 1.13949C19.9409 1.88105 20.5943 2.71067 21.1404 3.61009Z" fill="#C9F7CA"/>
<path d="M16.8569 2.81836L2.80615 16.8595C3.66304 17.7273 4.65127 18.4549 5.73451 19.0153L7.54694 17.2125C7.32114 17.0707 7.1392 16.8688 7.02134 16.6297C6.90348 16.3906 6.8542 16.1234 6.87921 15.8579C6.87921 15.0757 7.29894 14.4462 7.8236 14.4462C8.34826 14.4462 8.7679 15.0757 8.7679 15.8579C8.76987 15.9026 8.76668 15.9475 8.75834 15.9914L11.9826 12.7673C11.9652 12.6607 11.9736 12.5515 12.0068 12.4488C12.04 12.346 12.0972 12.2525 12.1735 12.1762C12.2499 12.0998 12.3434 12.0426 12.4461 12.0095C12.5488 11.9763 12.6581 11.9679 12.7647 11.9852L15.9794 8.77064C15.9385 8.77851 15.8969 8.7817 15.8553 8.78011C15.0636 8.78011 14.4341 8.36047 14.4341 7.83581C14.4341 7.31115 15.0636 6.89142 15.8553 6.89142C16.1193 6.86715 16.3849 6.91681 16.6225 7.03467C16.86 7.15253 17.06 7.3342 17.2003 7.55914L19.0032 5.74672C18.4486 4.66226 17.7241 3.67365 16.8569 2.81836Z" fill="#FFBFC5"/>
<path d="M22.5702 13.5095C21.9923 15.6855 20.8491 17.6702 19.2567 19.2618C17.6644 20.8536 15.6794 21.9959 13.5032 22.573C11.3269 23.1503 9.03669 23.1415 6.86487 22.5481C4.69296 21.9546 2.71667 20.7974 1.13632 19.1937C1.04891 19.1046 1 18.9848 1 18.8599C1 18.735 1.04891 18.6152 1.13632 18.526L2.80558 16.8568C7.42242 21.4727 13.5846 20.7954 17.1903 17.1906C20.7959 13.5859 21.4541 7.42185 16.8564 2.81551V2.80595L18.5257 1.13668C18.6148 1.04927 18.7347 1.00037 18.8596 1.00037C18.9845 1.00037 19.1042 1.04927 19.1934 1.13668C20.7988 2.71713 21.9568 4.69454 22.55 6.86786C23.1431 9.04108 23.1502 11.3326 22.5702 13.5095Z" stroke="#191919" stroke-linecap="round" stroke-linejoin="round"/>
<path d="M16.8565 2.81641L2.80566 16.8577C7.4225 21.4736 13.5846 20.7963 17.1904 17.1916C20.796 13.5868 21.4542 7.42275 16.8565 2.81641ZM7.82311 17.2793C7.29854 17.2793 6.87882 16.6507 6.87882 15.858C6.87882 15.0653 7.29854 14.4463 7.82311 14.4463C8.34768 14.4463 8.7675 15.0758 8.7675 15.858C8.7675 16.6402 8.34777 17.2793 7.82311 17.2793ZM14.176 14.1792C13.8041 14.5521 13.06 14.3985 12.5067 13.8453C11.9535 13.292 11.8009 12.549 12.1729 12.176C12.545 11.803 13.289 11.9566 13.8422 12.5098C14.3954 13.0631 14.5481 13.8147 14.176 14.1763V14.1792ZM15.8549 8.78106C15.0632 8.78106 14.4336 8.36039 14.4336 7.83676C14.4336 7.31303 15.0632 6.89237 15.8549 6.89237C16.6467 6.89237 17.2666 7.3121 17.2666 7.83676C17.2666 8.36142 16.637 8.77825 15.8549 8.77825V8.78106Z" stroke="#191919" stroke-linecap="round" stroke-linejoin="round"/>
<path d="M14.1756 14.1764C13.8037 14.5494 13.0596 14.3958 12.5063 13.8426C11.9531 13.2892 11.8005 12.5462 12.1725 12.1732C12.5446 11.8002 13.2886 11.9539 13.8418 12.5071C14.395 13.0604 14.5476 13.8148 14.1756 14.1764Z" fill="#808080" stroke="#191919" stroke-linecap="round" stroke-linejoin="round"/>
<path d="M17.2667 7.83578C17.2667 8.3595 16.6371 8.78017 15.855 8.78017C15.0728 8.78017 14.4336 8.3595 14.4336 7.83578C14.4336 7.31215 15.0632 6.89148 15.855 6.89148C16.6467 6.89148 17.2667 7.30924 17.2667 7.83578Z" fill="#808080" stroke="#191919" stroke-linecap="round" stroke-linejoin="round"/>
<path d="M8.7671 15.8552C8.7671 16.6479 8.34738 17.2766 7.82271 17.2766C7.29805 17.2766 6.87842 16.6479 6.87842 15.8552C6.87842 15.0625 7.29815 14.4435 7.82271 14.4435C8.34728 14.4435 8.7671 15.0731 8.7671 15.8552Z" fill="#808080" stroke="#191919" stroke-linecap="round" stroke-linejoin="round"/>
</g>
<defs>
<clipPath id="clip0_5303_11299">
<rect width="24" height="24" fill="white"/>
</clipPath>
</defs>
</svg>
