<svg width="24" height="24" viewBox="0 0 24 24" fill="none" xmlns="http://www.w3.org/2000/svg">
<g clip-path="url(#clip0_5303_11327)">
<path d="M16.6553 6.90081C17.3019 4.6596 18.4545 4.15081 20.0701 3.266C20.2315 3.17792 20.4145 3.13707 20.5981 3.14831C20.7817 3.15946 20.9584 3.22215 21.1079 3.32915C21.689 3.72672 22.1648 4.2595 22.4943 4.88167C22.8239 5.50384 22.9975 6.19675 22.9999 6.90081C22.9999 27.4439 -0.234984 23.8981 1.05152 20.0348C2.33811 16.1714 12.4447 21.4829 16.6553 6.90081Z" fill="#FFEF5E"/>
<path d="M16.6555 6.90081C12.574 21.0422 2.94472 16.4747 1.19141 19.7097C7.05778 21.4994 20.4989 19.8168 20.4989 4.18717C20.4972 3.84282 20.4544 3.49988 20.3716 3.16565C20.2657 3.18223 20.1632 3.21615 20.0684 3.26609C18.4547 4.15081 17.3021 4.65969 16.6555 6.90081Z" fill="#FFF9BF"/>
<path d="M16.6553 6.90081C17.3019 4.6596 18.4545 4.15081 20.0701 3.266C20.2315 3.17792 20.4145 3.13707 20.5981 3.14831C20.7817 3.15946 20.9584 3.22215 21.1079 3.32915C21.689 3.72672 22.1648 4.2595 22.4943 4.88167C22.8239 5.50384 22.9975 6.19675 22.9999 6.90081C22.9999 27.4439 -0.234984 23.8981 1.05152 20.0348C2.33811 16.1714 12.4447 21.4829 16.6553 6.90081Z" stroke="#191919" stroke-linecap="round" stroke-linejoin="round"/>
<path d="M3.98291 20.4606C7.28096 20.5716 12.6327 19.9594 16.0044 15.4867C18.9535 11.5717 19.8047 8.80054 20.0295 7.27295" stroke="#191919" stroke-linecap="round" stroke-linejoin="round"/>
<path d="M20.6094 1V3.15126" stroke="#191919" stroke-linecap="round" stroke-linejoin="round"/>
</g>
<defs>
<clipPath id="clip0_5303_11327">
<rect width="24" height="24" fill="white"/>
</clipPath>
</defs>
</svg>
