<svg width="24" height="24" viewBox="0 0 24 24" fill="none" xmlns="http://www.w3.org/2000/svg">
<path d="M16.304 11.5196C15.4766 8.38987 14.9008 4.90142 15.6584 1.58228C15.6796 1.48718 15.6712 1.38787 15.6344 1.29765C15.5976 1.20743 15.5341 1.1306 15.4524 1.07744C15.3709 1.02429 15.2749 0.997337 15.1774 1.00021C15.0801 1.00308 14.9859 1.03562 14.9075 1.0935C11.4563 3.71382 8.92992 7.36593 7.69531 11.5196" stroke="#191919" stroke-linecap="round" stroke-linejoin="round"/>
<path d="M11.9995 21.0543C12.7705 21.9288 13.7896 22.5477 14.9209 22.8288C16.0524 23.1098 17.2426 23.0396 18.3331 22.6274C19.4237 22.2154 20.3629 21.4809 21.0257 20.5218C21.6885 19.5628 22.0436 18.4246 22.0436 17.2588C22.0436 16.093 21.6885 14.9549 21.0257 13.9958C20.3629 13.0367 19.4237 12.3023 18.3331 11.8902C17.2426 11.4781 16.0524 11.4079 14.9209 11.6889C13.7896 11.9699 12.7705 12.5889 11.9995 13.4633" fill="#FFBFC5"/>
<path d="M7.69521 22.9979C8.83031 22.9979 9.93992 22.6613 10.8837 22.0307C11.8275 21.4001 12.5632 20.5038 12.9975 19.4551C13.4319 18.4063 13.5455 17.2524 13.3241 16.1392C13.1026 15.0259 12.5561 14.0033 11.7534 13.2006C10.9507 12.3979 9.92815 11.8514 8.81487 11.6299C7.70158 11.4085 6.54762 11.5221 5.49893 11.9565C4.45023 12.3909 3.5539 13.1265 2.92327 14.0703C2.29265 15.0141 1.95605 16.1237 1.95605 17.2588C1.95605 18.7809 2.56071 20.2407 3.63701 21.3169C4.71332 22.3933 6.17309 22.9979 7.69521 22.9979Z" fill="#FFBFC5"/>
<path d="M18.3327 19.299C17.2421 19.711 16.052 19.7811 14.9206 19.4999C13.7894 19.2189 12.7705 18.6 11.9995 17.7255V21.0542C12.8667 22.0343 14.0428 22.6885 15.3328 22.9084C16.6229 23.1284 17.9493 22.901 19.0923 22.2636C20.2353 21.6264 21.1262 20.6176 21.6173 19.4047C22.1084 18.1917 22.1701 16.8473 21.7924 15.5944C21.5379 16.4355 21.0936 17.2071 20.4937 17.8494C19.8938 18.4917 19.1545 18.9876 18.3327 19.299Z" fill="#FF808C"/>
<path d="M7.6957 19.6692C6.46435 19.669 5.26573 19.2727 4.27687 18.5389C3.28803 17.8052 2.56138 16.7728 2.20429 15.5944C1.94406 16.452 1.8883 17.3586 2.04146 18.2416C2.19463 19.1247 2.55247 19.9596 3.08631 20.6794C3.62016 21.3993 4.31518 21.9841 5.11569 22.3871C5.9162 22.7901 6.79997 23 7.69618 23C8.5924 23 9.47616 22.7901 10.2767 22.3871C11.0772 21.9841 11.7722 21.3993 12.3061 20.6794C12.8399 19.9596 13.1977 19.1247 13.3509 18.2416C13.5041 17.3586 13.4483 16.452 13.1881 15.5944C12.8309 16.773 12.1041 17.8055 11.1151 18.5392C10.126 19.273 8.92722 19.6692 7.6957 19.6692Z" fill="#FF808C"/>
<path d="M11.9995 21.0543C12.7705 21.9288 13.7896 22.5477 14.9209 22.8288C16.0524 23.1098 17.2426 23.0396 18.3331 22.6274C19.4237 22.2154 20.3629 21.4809 21.0257 20.5218C21.6885 19.5628 22.0436 18.4246 22.0436 17.2588C22.0436 16.093 21.6885 14.9549 21.0257 13.9958C20.3629 13.0367 19.4237 12.3023 18.3331 11.8902C17.2426 11.4781 16.0524 11.4079 14.9209 11.6889C13.7896 11.9699 12.7705 12.5889 11.9995 13.4633" stroke="#191919" stroke-linecap="round" stroke-linejoin="round"/>
<path d="M7.69521 22.9979C8.83031 22.9979 9.93992 22.6613 10.8837 22.0307C11.8275 21.4001 12.5632 20.5038 12.9975 19.4551C13.4319 18.4063 13.5455 17.2524 13.3241 16.1392C13.1026 15.0259 12.5561 14.0033 11.7534 13.2006C10.9507 12.3979 9.92816 11.8514 8.81487 11.6299C7.70159 11.4085 6.54762 11.5221 5.49893 11.9565C4.45023 12.3909 3.5539 13.1265 2.92327 14.0703C2.29265 15.0141 1.95605 16.1237 1.95605 17.2588C1.95605 18.7809 2.56071 20.2407 3.63701 21.3169C4.71332 22.3933 6.17309 22.9979 7.69521 22.9979Z" stroke="#191919" stroke-linecap="round" stroke-linejoin="round"/>
</svg>
