<svg width="24" height="24" viewBox="0 0 24 24" fill="none" xmlns="http://www.w3.org/2000/svg">
<g clip-path="url(#clip0_5303_10723)">
<path d="M19.7416 8.74038C19.7418 8.20104 19.58 7.67408 19.2772 7.22774C18.9744 6.78141 18.5446 6.43629 18.0433 6.23706C18.2565 5.74184 18.3162 5.19402 18.2147 4.66449C18.1132 4.13496 17.8551 3.64808 17.4739 3.26683C17.0926 2.88557 16.6058 2.62749 16.0762 2.52597C15.5467 2.42445 14.9989 2.48416 14.5037 2.69737C14.3042 2.19649 13.9591 1.76697 13.5129 1.46436C13.0667 1.16176 12.54 1 12.0008 1C11.4616 1 10.9349 1.16176 10.4888 1.46436C10.0426 1.76697 9.69741 2.19649 9.49797 2.69737C9.00261 2.48326 8.45438 2.42285 7.92429 2.52397C7.3942 2.62509 6.90669 2.88307 6.52495 3.26451C6.1432 3.64594 5.88482 4.13323 5.78326 4.66323C5.68171 5.19325 5.74167 5.74153 5.95538 6.23706C5.45411 6.43613 5.02416 6.78113 4.72124 7.22738C4.4183 7.67362 4.25635 8.20055 4.25635 8.7399C4.25635 9.27925 4.4183 9.80618 4.72124 10.2525C5.02416 10.6986 5.45411 11.0437 5.95538 11.2428C5.74216 11.738 5.68245 12.2858 5.78398 12.8153C5.88549 13.3448 6.14358 13.8317 6.52483 14.213C6.90608 14.5942 7.39297 14.8523 7.9225 14.9538C8.45203 15.0553 8.99984 14.9956 9.49506 14.7824C9.69414 15.2837 10.0391 15.7136 10.4854 16.0166C10.9316 16.3195 11.4585 16.4815 11.9979 16.4815C12.5373 16.4815 13.0642 16.3195 13.5104 16.0166C13.9566 15.7136 14.3017 15.2837 14.5007 14.7824C14.996 14.9956 15.5438 15.0553 16.0733 14.9538C16.6029 14.8523 17.0897 14.5942 17.471 14.213C17.8522 13.8317 18.1103 13.3448 18.2118 12.8153C18.3133 12.2858 18.2536 11.738 18.0404 11.2428C18.5422 11.0443 18.9727 10.6995 19.276 10.2533C19.5794 9.80708 19.7416 9.27996 19.7416 8.74038Z" fill="#FFEF5E"/>
<path d="M17.4715 3.26635C17.09 2.8852 16.6031 2.62723 16.0735 2.5258C15.5439 2.42436 14.996 2.48413 14.5007 2.69737C14.3013 2.19649 13.9562 1.76697 13.51 1.46436C13.0638 1.16176 12.5371 1 11.9979 1C11.4587 1 10.932 1.16176 10.4858 1.46436C10.0397 1.76697 9.69451 2.19649 9.49506 2.69737C8.99984 2.48416 8.45203 2.42445 7.9225 2.52597C7.39297 2.62749 6.90608 2.88557 6.52483 3.26683C6.14358 3.64808 5.88549 4.13496 5.78398 4.66449C5.68245 5.19402 5.74216 5.74184 5.95538 6.23706C5.45411 6.43613 5.02416 6.78113 4.72124 7.22738C4.4183 7.67362 4.25635 8.20055 4.25635 8.7399C4.25635 9.27925 4.4183 9.80618 4.72124 10.2525C5.02416 10.6986 5.45411 11.0437 5.95538 11.2428C5.74174 11.7379 5.68175 12.2859 5.7832 12.8156C5.88465 13.3453 6.14286 13.8322 6.52436 14.2135L17.4715 3.26635Z" fill="#FFF9BF"/>
<path d="M19.7039 14.6731L22.7308 19.9149C22.8643 20.1452 22.7579 20.302 22.4956 20.2536L19.2462 19.7039L18.1199 22.8004C18.0289 23.0501 17.8431 23.0675 17.7077 22.8391L14.8047 17.9302" fill="#FF808C"/>
<path d="M19.7039 14.6731L22.7308 19.9149C22.8643 20.1452 22.7579 20.302 22.4956 20.2536L19.2462 19.7039L18.1199 22.8004C18.0289 23.0501 17.8431 23.0675 17.7077 22.8391L14.8047 17.9302" stroke="#191919" stroke-linecap="round" stroke-linejoin="round"/>
<path d="M4.29643 14.6731L1.2696 19.9149C1.13607 20.1452 1.24251 20.302 1.50475 20.2536L4.75414 19.7039L5.88146 22.8004C5.97242 23.0511 6.15821 23.0675 6.29368 22.8391L9.19665 17.936" fill="#FF808C"/>
<path d="M4.29643 14.6731L1.2696 19.9149C1.13607 20.1452 1.24251 20.302 1.50475 20.2536L4.75414 19.7039L5.88146 22.8004C5.97242 23.0511 6.15821 23.0675 6.29368 22.8391L9.19665 17.936" stroke="#191919" stroke-linecap="round" stroke-linejoin="round"/>
<path d="M12.4841 10.6757V6.32123C12.4841 6.23137 12.4591 6.1433 12.4119 6.06686C12.3646 5.99044 12.2971 5.92866 12.2167 5.88849C12.1364 5.8483 12.0464 5.83129 11.9569 5.83936C11.8674 5.84743 11.7819 5.88026 11.71 5.93417L10.5488 6.80506" stroke="#191919" stroke-linecap="round" stroke-linejoin="round"/>
<path d="M11.5137 10.6757H13.449" stroke="#191919" stroke-linecap="round" stroke-linejoin="round"/>
<path d="M19.7416 8.74038C19.7418 8.20104 19.58 7.67408 19.2772 7.22774C18.9744 6.78141 18.5446 6.43629 18.0433 6.23706C18.2565 5.74184 18.3162 5.19402 18.2147 4.66449C18.1132 4.13496 17.8551 3.64808 17.4739 3.26683C17.0926 2.88557 16.6058 2.62749 16.0762 2.52597C15.5467 2.42445 14.9989 2.48416 14.5037 2.69737C14.3042 2.19649 13.9591 1.76697 13.5129 1.46436C13.0667 1.16176 12.54 1 12.0008 1C11.4616 1 10.9349 1.16176 10.4888 1.46436C10.0426 1.76697 9.69741 2.19649 9.49797 2.69737C9.00261 2.48326 8.45438 2.42285 7.92429 2.52397C7.3942 2.62509 6.90669 2.88307 6.52495 3.26451C6.1432 3.64594 5.88482 4.13323 5.78326 4.66323C5.68171 5.19325 5.74167 5.74153 5.95538 6.23706C5.45411 6.43613 5.02416 6.78113 4.72124 7.22738C4.4183 7.67362 4.25635 8.20055 4.25635 8.7399C4.25635 9.27925 4.4183 9.80618 4.72124 10.2525C5.02416 10.6986 5.45411 11.0437 5.95538 11.2428C5.74216 11.738 5.68245 12.2858 5.78398 12.8153C5.88549 13.3448 6.14358 13.8317 6.52483 14.213C6.90608 14.5942 7.39297 14.8523 7.9225 14.9538C8.45203 15.0553 8.99984 14.9956 9.49506 14.7824C9.69414 15.2837 10.0391 15.7136 10.4854 16.0166C10.9316 16.3195 11.4585 16.4815 11.9979 16.4815C12.5373 16.4815 13.0642 16.3195 13.5104 16.0166C13.9566 15.7136 14.3017 15.2837 14.5007 14.7824C14.996 14.9956 15.5438 15.0553 16.0733 14.9538C16.6029 14.8523 17.0897 14.5942 17.471 14.213C17.8522 13.8317 18.1103 13.3448 18.2118 12.8153C18.3133 12.2858 18.2536 11.738 18.0404 11.2428C18.5422 11.0443 18.9727 10.6995 19.276 10.2533C19.5794 9.80708 19.7416 9.27996 19.7416 8.74038Z" stroke="#191919" stroke-linecap="round" stroke-linejoin="round"/>
</g>
<defs>
<clipPath id="clip0_5303_10723">
<rect width="24" height="24" fill="white"/>
</clipPath>
</defs>
</svg>
