<svg width="24" height="24" viewBox="0 0 24 24" fill="none" xmlns="http://www.w3.org/2000/svg">
<path d="M4.58691 3.86957V18.6957L7.93474 22.0435H14.4525L18.9347 3.86957H4.58691Z" fill="#C9F7CA"/>
<path d="M18.2269 6.73913L18.9347 3.86957H4.58691V6.73913H18.2269Z" fill="#78EB7B"/>
<path d="M20.3695 3.86957H3.63037V1.95652C3.63037 1.70283 3.73115 1.45954 3.91053 1.28016C4.08991 1.10078 4.3332 1 4.58689 1H17.4999C18.2609 1 18.9909 1.30233 19.529 1.84048C20.0671 2.37863 20.3695 3.10851 20.3695 3.86957Z" fill="#C9F7CA" stroke="#191919" stroke-linecap="round" stroke-linejoin="round"/>
<path d="M18.9346 3.86957L14.4523 22.0435H7.93457" stroke="#191919" stroke-linecap="round" stroke-linejoin="round"/>
<path d="M4.58691 18.6957V3.86957" stroke="#191919" stroke-linecap="round" stroke-linejoin="round"/>
<path d="M6.02168 23C7.34235 23 8.41298 21.9294 8.41298 20.6087C8.41298 19.288 7.34235 18.2174 6.02168 18.2174C4.701 18.2174 3.63037 19.288 3.63037 20.6087C3.63037 21.9294 4.701 23 6.02168 23Z" fill="#808080" stroke="#191919" stroke-linecap="round" stroke-linejoin="round"/>
</svg>
