<svg width="24" height="24" viewBox="0 0 24 24" fill="none" xmlns="http://www.w3.org/2000/svg">
<g clip-path="url(#clip0_5303_11885)">
<path d="M1 20.6086C1 20.9891 1.15116 21.3541 1.42024 21.6232C1.68931 21.8922 2.05426 22.0434 2.43478 22.0434H12C12.3805 22.0434 12.7455 21.8922 13.0146 21.6232C13.2837 21.3541 13.4348 20.9891 13.4348 20.6086V9.60864H1V20.6086Z" fill="#78EB7B"/>
<path d="M13.4348 9.60864H1V11.5216H13.4348V9.60864Z" fill="#BBF5BD"/>
<path d="M12 1.95654H2.43478C2.05426 1.95654 1.68931 2.10771 1.42024 2.37678C1.15116 2.64585 1 3.0108 1 3.39132V9.60871H13.4348V3.39132C13.4348 3.0108 13.2837 2.64585 13.0146 2.37678C12.7455 2.10771 12.3805 1.95654 12 1.95654Z" fill="#B2B2B2"/>
<path d="M12 1.95654H2.43478C2.05426 1.95654 1.68931 2.10771 1.42024 2.37678C1.15116 2.64585 1 3.0108 1 3.39132V6.26089C1 5.88036 1.15116 5.51541 1.42024 5.24634C1.68931 4.97727 2.05426 4.82611 2.43478 4.82611H12C12.3805 4.82611 12.7455 4.97727 13.0146 5.24634C13.2837 5.51541 13.4348 5.88036 13.4348 6.26089V3.39132C13.4348 3.0108 13.2837 2.64585 13.0146 2.37678C12.7455 2.10771 12.3805 1.95654 12 1.95654Z" fill="#E3E3E3"/>
<path d="M11.0435 3.86951H3.39135C3.12721 3.86951 2.91309 4.08364 2.91309 4.34777V7.21734C2.91309 7.48147 3.12721 7.6956 3.39135 7.6956H11.0435C11.3076 7.6956 11.5218 7.48147 11.5218 7.21734V4.34777C11.5218 4.08364 11.3076 3.86951 11.0435 3.86951Z" fill="#66E1FF"/>
<path d="M9.60874 3.86951H3.39135C3.2645 3.86951 3.14285 3.9199 3.05317 4.00959C2.96348 4.09928 2.91309 4.22093 2.91309 4.34777V7.21734C2.91309 7.34418 2.96348 7.46583 3.05317 7.55551C3.14285 7.64521 3.2645 7.6956 3.39135 7.6956H5.78265L9.60874 3.86951Z" fill="#C2F3FF"/>
<path d="M12 1.95654H2.43478C1.64237 1.95654 1 2.59891 1 3.39132V20.6087C1 21.4011 1.64237 22.0435 2.43478 22.0435H12C12.7924 22.0435 13.4348 21.4011 13.4348 20.6087V3.39132C13.4348 2.59891 12.7924 1.95654 12 1.95654Z" stroke="#191919" stroke-linecap="round" stroke-linejoin="round"/>
<path d="M22.0439 16.0089C22.0439 16.0976 22.0192 16.1846 21.9725 16.2602C21.926 16.3356 21.8592 16.3967 21.7799 16.4364L20.1309 17.261V14.3914H21.5656C21.6925 14.3914 21.8141 14.4418 21.9039 14.5314C21.9935 14.6212 22.0439 14.7428 22.0439 14.8697V16.0089Z" fill="#B2B2B2" stroke="#191919" stroke-linecap="round" stroke-linejoin="round"/>
<path d="M20.1309 14.3912V12.9564C20.1309 12.1654 23.0004 9.60864 23.0004 9.60864" stroke="#191919" stroke-linecap="round" stroke-linejoin="round"/>
<path d="M20.1302 17.2609V20.1304C20.1302 20.6378 19.9287 21.1244 19.5699 21.4831C19.2111 21.8419 18.7245 22.0435 18.2172 22.0435C17.7098 22.0435 17.2233 21.8419 16.8645 21.4831C16.5057 21.1244 16.3041 20.6378 16.3041 20.1304V7.21737C16.3041 6.83685 16.153 6.4719 15.8839 6.20283C15.6149 5.93376 15.2499 5.78259 14.8694 5.78259H13.4346" stroke="#191919" stroke-linecap="round" stroke-linejoin="round"/>
<path d="M1 9.60864H13.4348" stroke="#191919" stroke-linecap="round" stroke-linejoin="round"/>
<path d="M11.0435 3.86951H3.39135C3.12721 3.86951 2.91309 4.08364 2.91309 4.34777V7.21734C2.91309 7.48147 3.12721 7.6956 3.39135 7.6956H11.0435C11.3076 7.6956 11.5218 7.48147 11.5218 7.21734V4.34777C11.5218 4.08364 11.3076 3.86951 11.0435 3.86951Z" stroke="#191919" stroke-linecap="round" stroke-linejoin="round"/>
<path d="M4.82617 19.1739V12.9565C4.82617 12.576 4.97734 12.211 5.24641 11.9419C5.51548 11.6729 5.88043 11.5217 6.26095 11.5217H8.65226" stroke="#191919" stroke-linecap="round" stroke-linejoin="round"/>
<path d="M4.82617 15.3478H7.21748" stroke="#191919" stroke-linecap="round" stroke-linejoin="round"/>
</g>
<defs>
<clipPath id="clip0_5303_11885">
<rect width="24" height="24" fill="white"/>
</clipPath>
</defs>
</svg>
