<svg width="24" height="24" viewBox="0 0 24 24" fill="none" xmlns="http://www.w3.org/2000/svg">
<path d="M11.9998 4.81335C6.29425 4.81335 1.66895 9.43867 1.66895 15.1442V18.2884C1.66895 18.7845 2.07118 19.1867 2.56728 19.1867H21.4323C21.9284 19.1867 22.3306 18.7845 22.3306 18.2884V15.1442C22.3306 9.43867 17.7053 4.81335 11.9998 4.81335Z" fill="#66E1FF"/>
<path d="M17.9872 6.72414C11.5063 2.11504 2.46626 6.25004 1.71515 14.1672C1.68435 14.4919 1.66895 14.8179 1.66895 15.1442V18.2883C1.66895 18.7844 2.07118 19.1867 2.56728 19.1867H5.52463L17.9872 6.72414Z" fill="#C2F3FF"/>
<path d="M11.9998 4.81335C6.29425 4.81335 1.66895 9.43867 1.66895 15.1442V18.2884C1.66895 18.7845 2.07118 19.1867 2.56728 19.1867H21.4323C21.9284 19.1867 22.3306 18.7845 22.3306 18.2884V15.1442C22.3306 9.43867 17.7053 4.81335 11.9998 4.81335Z" stroke="#191919" stroke-linecap="round" stroke-linejoin="round"/>
<path d="M11.9999 16.4917C13.0372 16.4917 13.6856 15.3688 13.1669 14.4704C12.9262 14.0535 12.4813 13.7967 11.9999 13.7967C10.9626 13.7968 10.3142 14.9197 10.833 15.818C11.0737 16.2348 11.5185 16.4917 11.9999 16.4917Z" fill="#FF808C" stroke="#191919" stroke-linecap="round" stroke-linejoin="round"/>
<path d="M12.9521 14.191L17.3998 9.74518" stroke="#191919" stroke-linecap="round" stroke-linejoin="round"/>
<path d="M3.46582 15.5933H5.26249" stroke="#191919" stroke-linecap="round" stroke-linejoin="round"/>
<path d="M20.534 15.5933H18.7373" stroke="#191919" stroke-linecap="round" stroke-linejoin="round"/>
<path d="M19.8839 11.8787L18.2246 12.5659" stroke="#191919" stroke-linecap="round" stroke-linejoin="round"/>
<path d="M15.2654 7.25946L14.5781 8.91964" stroke="#191919" stroke-linecap="round" stroke-linejoin="round"/>
<path d="M12 6.60999V8.40664" stroke="#191919" stroke-linecap="round" stroke-linejoin="round"/>
<path d="M8.73438 7.25946L9.4216 8.91964" stroke="#191919" stroke-linecap="round" stroke-linejoin="round"/>
<path d="M5.96582 9.10919L7.2343 10.3803" stroke="#191919" stroke-linecap="round" stroke-linejoin="round"/>
<path d="M4.11621 11.8787L5.77455 12.5659" stroke="#191919" stroke-linecap="round" stroke-linejoin="round"/>
</svg>
