<svg width="24" height="24" viewBox="0 0 24 24" fill="none" xmlns="http://www.w3.org/2000/svg">
<g clip-path="url(#clip0_5303_3429)">
<path d="M12.0003 14.3913C15.6982 14.3913 18.6959 11.3935 18.6959 7.69563C18.6959 3.99774 15.6982 1 12.0003 1C8.30243 1 5.30469 3.99774 5.30469 7.69563C5.30469 11.3935 8.30243 14.3913 12.0003 14.3913Z" stroke="#191919" stroke-linecap="round" stroke-linejoin="round"/>
<path d="M12.001 14.3914V23" stroke="#191919" stroke-linecap="round" stroke-linejoin="round"/>
<path d="M9.13086 20.1304H14.87" stroke="#191919" stroke-linecap="round" stroke-linejoin="round"/>
<path d="M12.0001 12.9565C14.9056 12.9565 17.261 10.6011 17.261 7.69561C17.261 4.79011 14.9056 2.43475 12.0001 2.43475C9.09462 2.43475 6.73926 4.79011 6.73926 7.69561C6.73926 10.6011 9.09462 12.9565 12.0001 12.9565Z" fill="#66E1FF"/>
</g>
<defs>
<clipPath id="clip0_5303_3429">
<rect width="24" height="24" fill="white"/>
</clipPath>
</defs>
</svg>
