<svg width="24" height="24" viewBox="0 0 24 24" fill="none" xmlns="http://www.w3.org/2000/svg">
<g clip-path="url(#clip0_5303_3191)">
<path d="M12.9494 13.891C13.9613 13.891 14.9318 13.489 15.6474 12.7735C16.3629 12.0579 16.7649 11.0874 16.7649 10.0755C16.7649 9.06351 16.3629 8.093 15.6474 7.37744C14.9318 6.66188 13.9613 6.25989 12.9494 6.25989C11.9374 6.25989 10.9669 6.66188 10.2513 7.37744C9.53579 8.093 9.13379 9.06351 9.13379 10.0755C9.13379 11.0874 9.53579 12.0579 10.2513 12.7735C10.9669 13.489 11.9374 13.891 12.9494 13.891Z" fill="#FF808C"/>
<path d="M7.2101 15.8261C7.71117 15.8261 8.20733 15.7274 8.67026 15.5356C9.13319 15.3439 9.55381 15.0628 9.90812 14.7085C10.2624 14.3542 10.5435 13.9336 10.7352 13.4707C10.927 13.0077 11.0257 12.5116 11.0257 12.0105C11.0257 11.5094 10.927 11.0133 10.7352 10.5504C10.5435 10.0874 10.2624 9.66681 9.90812 9.3125C9.55381 8.95819 9.13319 8.67714 8.67026 8.48539C8.20733 8.29364 7.71117 8.19495 7.2101 8.19495C6.19815 8.19495 5.22764 8.59694 4.51209 9.3125C3.79653 10.0281 3.39453 10.9986 3.39453 12.0105C3.39453 13.0225 3.79653 13.993 4.51209 14.7085C5.22764 15.4241 6.19815 15.8261 7.2101 15.8261Z" fill="#66E1FF"/>
<path d="M9.61002 14.1464C8.67001 13.3716 8.02802 12.2946 7.79363 11.0992C7.55923 9.90374 7.74696 8.66401 8.32476 7.59158C8.90257 6.51914 9.83465 5.68046 10.9619 5.21867C12.0892 4.75688 13.3418 4.70061 14.5059 5.05945C15.67 5.4183 16.6736 6.17002 17.3452 7.18632C18.0169 8.20263 18.315 9.42052 18.1887 10.6321C18.0625 11.8438 17.5197 12.974 16.6529 13.83C15.7862 14.686 14.6492 15.2147 13.4361 15.3258" stroke="#191919" stroke-linecap="round" stroke-linejoin="round"/>
<path d="M10.5778 7.95199C11.5145 8.72978 12.1524 9.80838 12.3828 11.0039C12.6132 12.1994 12.4218 13.4378 11.8412 14.508C11.2606 15.5782 10.3269 16.4139 9.19909 16.8726C8.0713 17.3313 6.81932 17.3847 5.6566 17.0236C4.49387 16.6624 3.49239 15.9092 2.82288 14.8923C2.15338 13.8754 1.85731 12.6578 1.98514 11.447C2.11298 10.2362 2.65681 9.10728 3.52392 8.25261C4.39102 7.39795 5.52772 6.87049 6.74022 6.76016" stroke="#191919" stroke-linecap="round" stroke-linejoin="round"/>
<path d="M16.7832 6.26088L22.0441 1" stroke="#191919" stroke-linecap="round" stroke-linejoin="round"/>
<path d="M22.0439 4.82609V1H18.2178" stroke="#191919" stroke-linecap="round" stroke-linejoin="round"/>
<path d="M6.74023 17.2609V23" stroke="#191919" stroke-linecap="round" stroke-linejoin="round"/>
<path d="M4.82715 21.087H8.65324" stroke="#191919" stroke-linecap="round" stroke-linejoin="round"/>
</g>
<defs>
<clipPath id="clip0_5303_3191">
<rect width="24" height="24" fill="white"/>
</clipPath>
</defs>
</svg>
