<svg width="24" height="24" viewBox="0 0 24 24" fill="none" xmlns="http://www.w3.org/2000/svg">
<g clip-path="url(#clip0_5303_1826)">
<path d="M12.0104 19.4693C14.2692 19.4693 16.4355 18.572 18.0327 16.9748C19.6299 15.3776 20.5272 13.2113 20.5272 10.9526C20.5272 8.69379 19.6299 6.52749 18.0327 4.93029C16.4355 3.33309 14.2692 2.43579 12.0104 2.43579C9.75165 2.43579 7.58535 3.33309 5.98815 4.93029C4.39095 6.52749 3.49365 8.69379 3.49365 10.9526C3.49365 13.2113 4.39095 15.3776 5.98815 16.9748C7.58535 18.572 9.75165 19.4693 12.0104 19.4693Z" fill="#78EB7B"/>
<path d="M6.13545 14.5897C5.48105 13.5423 5.11905 12.3389 5.08715 11.1042C5.05525 9.8697 5.35455 8.6492 5.95395 7.5694C6.55335 6.4896 7.43105 5.5901 8.49575 4.9643C9.56045 4.3386 10.7732 4.0094 12.0082 4.0109C13.2432 4.0125 14.4552 4.3448 15.5183 4.9733C16.5814 5.6018 17.4568 6.5035 18.0535 7.5848C18.6501 8.666 18.9464 9.8873 18.9113 11.1219C18.8763 12.3563 18.5112 13.5589 17.8541 14.6045" stroke="#191919" stroke-linecap="round" stroke-linejoin="round"/>
<path d="M4.55738 17.763C3.23118 16.3192 2.35348 14.5208 2.03128 12.587C1.70918 10.6532 1.95638 8.66741 2.74298 6.87171C3.52948 5.07591 4.82138 3.54771 6.46118 2.47321C8.10098 1.39881 10.018 0.824505 11.9784 0.820305C13.9388 0.816105 15.8582 1.38221 17.5026 2.44961C19.1469 3.51701 20.4453 5.03971 21.2396 6.83211C22.0338 8.62451 22.2896 10.6092 21.9757 12.5443C21.6619 14.4794 20.7918 16.2816 19.4718 17.7311" stroke="#191919" stroke-linecap="round" stroke-linejoin="round"/>
<path d="M10.3998 10.394C10.3998 10.2543 10.4273 10.116 10.4808 9.9869C10.5342 9.8579 10.6126 9.7407 10.7114 9.6418C10.8101 9.543 10.9273 9.4647 11.0565 9.4112C11.1855 9.3578 11.3239 9.3302 11.4636 9.3302C11.6032 9.3302 11.7415 9.3578 11.8706 9.4112C11.9997 9.4647 12.117 9.543 12.2157 9.6418C12.3146 9.7407 12.3929 9.8579 12.4463 9.9869C12.4998 10.116 12.5273 10.2543 12.5273 10.394V15.4513L16.6975 16.6959C17.0326 16.7924 17.318 17.0138 17.4947 17.3144C17.6715 17.6151 17.7261 17.9721 17.6473 18.3119C17.5091 18.9119 16.8548 22.567 16.7442 23.1797H10.2338L6.97755 18.3023C5.68505 16.3257 8.93065 15.6427 10.3998 18.9288V10.394Z" fill="#FFDDA1" stroke="#191919" stroke-linecap="round" stroke-linejoin="round"/>
</g>
<defs>
<clipPath id="clip0_5303_1826">
<rect width="24" height="24" fill="white"/>
</clipPath>
</defs>
</svg>
