<svg width="24" height="24" viewBox="0 0 24 24" fill="none" xmlns="http://www.w3.org/2000/svg">
<g clip-path="url(#clip0_5303_10824)">
<path d="M17.2609 11.0435H6.73967C6.486 11.0435 6.24272 11.1443 6.06335 11.3237C5.88397 11.503 5.7832 11.7463 5.7832 12V12.9565C5.7832 13.2101 5.88397 13.4534 6.06335 13.6328C6.24272 13.8122 6.486 13.9129 6.73967 13.9129H7.21791L7.63302 19.7197C7.65022 19.9614 7.75854 20.1876 7.93608 20.3525C8.11363 20.5174 8.34716 20.6088 8.58949 20.6082H15.4168C15.6591 20.6088 15.8927 20.5174 16.0702 20.3525C16.2477 20.1876 16.3561 19.9614 16.3733 19.7197L16.7826 13.9129H17.2609C17.5145 13.9129 17.7578 13.8122 17.9372 13.6328C18.1166 13.4534 18.2173 13.2101 18.2173 12.9565V12C18.2173 11.7463 18.1166 11.503 17.9372 11.3237C17.7578 11.1443 17.5145 11.0435 17.2609 11.0435Z" fill="#78EB7B"/>
<path d="M13.4348 11.0435H10.5654V20.6082H13.4348V11.0435Z" fill="#FF808C"/>
<path d="M10.5656 13.9129H6.73967C6.486 13.9129 6.24272 13.8122 6.06335 13.6328C5.88397 13.4534 5.7832 13.2101 5.7832 12.9565V12C5.7832 11.7463 5.88397 11.503 6.06335 11.3237C6.24272 11.1443 6.486 11.0435 6.73967 11.0435H17.2609C17.5145 11.0435 17.7578 11.1443 17.9372 11.3237C18.1166 11.503 18.2173 11.7463 18.2173 12V12.9565C18.2173 13.2101 18.1166 13.4534 17.9372 13.6328C17.7578 13.8122 17.5145 13.9129 17.2609 13.9129H13.435" stroke="#191919" stroke-linecap="round" stroke-linejoin="round"/>
<path d="M13.4348 13.913H16.7825L16.3674 19.7197C16.3502 19.9614 16.2419 20.1876 16.0643 20.3525C15.8868 20.5175 15.6532 20.6089 15.4109 20.6083H8.58648C8.34415 20.6089 8.11062 20.5175 7.93308 20.3525C7.75553 20.1876 7.64722 19.9614 7.63001 19.7197L7.21777 13.913H10.5654" stroke="#191919" stroke-linecap="round" stroke-linejoin="round"/>
<path d="M10.5654 11.0435V20.6082" stroke="#191919" stroke-linecap="round" stroke-linejoin="round"/>
<path d="M13.4346 20.6082V11.0435" stroke="#191919" stroke-linecap="round" stroke-linejoin="round"/>
<path d="M8.65217 9.78864C9.22606 10.3663 11.9998 11.0435 11.9998 11.0435C11.9998 11.0435 11.3217 8.26976 10.7449 7.69588C10.4674 7.41836 10.091 7.26245 9.69855 7.26245C9.30609 7.26245 8.92969 7.41836 8.65217 7.69588C8.37466 7.97339 8.21875 8.34979 8.21875 8.74226C8.21875 9.13472 8.37466 9.51112 8.65217 9.78864Z" stroke="#191919" stroke-linecap="round" stroke-linejoin="round"/>
<path d="M15.3477 9.78869C14.7738 10.3664 12 11.0436 12 11.0436C12 11.0436 12.6781 8.26981 13.2549 7.69593C13.5354 7.43342 13.907 7.29022 14.2911 7.29659C14.6752 7.30296 15.0419 7.45839 15.3135 7.73005C15.5852 8.00171 15.7406 8.36833 15.747 8.75247C15.7534 9.1366 15.6102 9.50817 15.3477 9.78869Z" stroke="#191919" stroke-linecap="round" stroke-linejoin="round"/>
<path d="M12 4.82643V3.39172" stroke="#191919" stroke-linecap="round" stroke-linejoin="round"/>
<path d="M18.7627 7.628L19.7775 6.61414" stroke="#191919" stroke-linecap="round" stroke-linejoin="round"/>
<path d="M21.5654 13.913H23.0001" stroke="#191919" stroke-linecap="round" stroke-linejoin="round"/>
<path d="M5.2365 7.628L4.22168 6.61414" stroke="#191919" stroke-linecap="round" stroke-linejoin="round"/>
<path d="M2.43471 13.913H1" stroke="#191919" stroke-linecap="round" stroke-linejoin="round"/>
</g>
<defs>
<clipPath id="clip0_5303_10824">
<rect width="24" height="24" fill="white"/>
</clipPath>
</defs>
</svg>
