<svg width="24" height="24" viewBox="0 0 24 24" fill="none" xmlns="http://www.w3.org/2000/svg">
<g clip-path="url(#clip0_5303_10541)">
<path d="M21.087 1.47827H2.91304C1.8565 1.47827 1 2.33477 1 3.39131V14.8695C1 15.9261 1.8565 16.7826 2.91304 16.7826H21.087C22.1435 16.7826 23 15.9261 23 14.8695V3.39131C23 2.33477 22.1435 1.47827 21.087 1.47827Z" fill="#808080"/>
<path d="M11.521 1.47827H21.0862C21.5936 1.47827 22.0801 1.67982 22.4389 2.03859C22.7977 2.39735 22.9993 2.88395 22.9993 3.39131V12.9565H13.434C12.9267 12.9565 12.4401 12.755 12.0813 12.3962C11.7225 12.0374 11.521 11.5508 11.521 11.0435V1.47827Z" fill="#E3E3E3"/>
<path d="M23 3.39131V7.06436C22.9985 6.55745 22.7965 6.07175 22.438 5.71331C22.0795 5.35486 21.5938 5.15283 21.087 5.15131H2.91304C2.40613 5.15283 1.92043 5.35486 1.56199 5.71331C1.20355 6.07175 1.00151 6.55745 1 7.06436V3.39131C1.00151 2.88441 1.20355 2.3987 1.56199 2.04026C1.92043 1.68182 2.40613 1.47978 2.91304 1.47827H21.087C21.5938 1.47978 22.0795 1.68182 22.438 2.04026C22.7965 2.3987 22.9985 2.88441 23 3.39131Z" fill="#B2B2B2"/>
<path d="M22.9993 3.39131V7.06436C22.9977 6.55745 22.7957 6.07175 22.4373 5.71331C22.0788 5.35486 21.5931 5.15283 21.0862 5.15131H11.521V1.47827H21.0862C21.5931 1.47978 22.0788 1.68182 22.4373 2.04026C22.7957 2.3987 22.9977 2.88441 22.9993 3.39131Z" fill="white"/>
<path d="M8.65173 3.39136H3.86912C3.34085 3.39136 2.9126 3.81961 2.9126 4.34788V7.21744C2.9126 7.74571 3.34085 8.17396 3.86912 8.17396H8.65173C9.18 8.17396 9.60825 7.74571 9.60825 7.21744V4.34788C9.60825 3.81961 9.18 3.39136 8.65173 3.39136Z" fill="#6B6B6B"/>
<path d="M8.65173 3.39136H3.86912C3.34085 3.39136 2.9126 3.81961 2.9126 4.34788V7.21744C2.9126 7.74571 3.34085 8.17396 3.86912 8.17396H8.65173C9.18 8.17396 9.60825 7.74571 9.60825 7.21744V4.34788C9.60825 3.81961 9.18 3.39136 8.65173 3.39136Z" stroke="#191919" stroke-linecap="round" stroke-linejoin="round"/>
<path d="M17.2607 11.0436C19.3737 11.0436 21.0867 9.33053 21.0867 7.21744C21.0867 5.10435 19.3737 3.39136 17.2607 3.39136C15.1476 3.39136 13.4346 5.10435 13.4346 7.21744C13.4346 9.33053 15.1476 11.0436 17.2607 11.0436Z" fill="white"/>
<path d="M17.2607 9.13041C18.3173 9.13041 19.1737 8.27391 19.1737 7.21737C19.1737 6.16082 18.3173 5.30432 17.2607 5.30432C16.2041 5.30432 15.3477 6.16082 15.3477 7.21737C15.3477 8.27391 16.2041 9.13041 17.2607 9.13041Z" fill="#66E1FF"/>
<path d="M13.4345 16.7826H10.5649V22.5218H13.4345V16.7826Z" fill="#808080"/>
<path d="M7.69531 22.5219H16.304" stroke="#191919" stroke-linecap="round" stroke-linejoin="round"/>
<path d="M4.82568 5.30432V6.26084" stroke="#191919" stroke-linecap="round" stroke-linejoin="round"/>
<path d="M6.26047 14.8696C7.05288 14.8696 7.69525 14.2272 7.69525 13.4348C7.69525 12.6424 7.05288 12 6.26047 12C5.46805 12 4.82568 12.6424 4.82568 13.4348C4.82568 14.2272 5.46805 14.8696 6.26047 14.8696Z" fill="#FF808C"/>
<path d="M10.5648 19.6522H5.78223" stroke="#191919" stroke-linecap="round" stroke-linejoin="round"/>
<path d="M1.95652 18.6956C1.70283 18.6956 1.45954 18.7964 1.28016 18.9758C1.10078 19.1551 1 19.3985 1 19.6521C1 19.9058 1.10078 20.1491 1.28016 20.3285C1.45954 20.5078 1.70283 20.6087 1.95652 20.6087H5.78261V18.6956H1.95652Z" fill="#808080"/>
<path d="M21.087 1.47827H2.91304C1.8565 1.47827 1 2.33477 1 3.39131V14.8695C1 15.9261 1.8565 16.7826 2.91304 16.7826H21.087C22.1435 16.7826 23 15.9261 23 14.8695V3.39131C23 2.33477 22.1435 1.47827 21.087 1.47827Z" stroke="#191919" stroke-linecap="round" stroke-linejoin="round"/>
<path d="M11.521 1.47827H21.0862C21.5936 1.47827 22.0801 1.67982 22.4389 2.03859C22.7977 2.39735 22.9993 2.88395 22.9993 3.39131V12.9565H13.434C12.9267 12.9565 12.4401 12.755 12.0813 12.3962C11.7225 12.0374 11.521 11.5508 11.521 11.0435V1.47827Z" stroke="#191919" stroke-linecap="round" stroke-linejoin="round"/>
<path d="M17.2607 11.0436C19.3737 11.0436 21.0867 9.33053 21.0867 7.21744C21.0867 5.10435 19.3737 3.39136 17.2607 3.39136C15.1476 3.39136 13.4346 5.10435 13.4346 7.21744C13.4346 9.33053 15.1476 11.0436 17.2607 11.0436Z" stroke="#191919" stroke-linecap="round" stroke-linejoin="round"/>
<path d="M17.2607 9.13041C18.3173 9.13041 19.1737 8.27391 19.1737 7.21737C19.1737 6.16082 18.3173 5.30432 17.2607 5.30432C16.2041 5.30432 15.3477 6.16082 15.3477 7.21737C15.3477 8.27391 16.2041 9.13041 17.2607 9.13041Z" stroke="#191919" stroke-linecap="round" stroke-linejoin="round"/>
<path d="M13.4345 16.7826H10.5649V22.5218H13.4345V16.7826Z" stroke="#191919" stroke-linecap="round" stroke-linejoin="round"/>
<path d="M6.26047 14.8696C7.05288 14.8696 7.69525 14.2272 7.69525 13.4348C7.69525 12.6424 7.05288 12 6.26047 12C5.46805 12 4.82568 12.6424 4.82568 13.4348C4.82568 14.2272 5.46805 14.8696 6.26047 14.8696Z" stroke="#191919" stroke-linecap="round" stroke-linejoin="round"/>
<path d="M1.95652 18.6956C1.70283 18.6956 1.45954 18.7964 1.28016 18.9758C1.10078 19.1551 1 19.3985 1 19.6521C1 19.9058 1.10078 20.1491 1.28016 20.3285C1.45954 20.5078 1.70283 20.6087 1.95652 20.6087H5.78261V18.6956H1.95652Z" stroke="#191919" stroke-linecap="round" stroke-linejoin="round"/>
</g>
<defs>
<clipPath id="clip0_5303_10541">
<rect width="24" height="24" fill="white"/>
</clipPath>
</defs>
</svg>
