<svg width="24" height="24" viewBox="0 0 24 24" fill="none" xmlns="http://www.w3.org/2000/svg">
<g clip-path="url(#clip0_5303_6053)">
<path d="M9.72981 12.7652C9.68154 12.5481 9.5606 12.3538 9.38699 12.2147C9.21338 12.0755 8.99749 11.9998 8.77502 12H3.49775C3.27544 12 3.05977 12.0758 2.88636 12.215C2.71297 12.3541 2.59217 12.5482 2.54393 12.7652L1.02329 19.6061C0.991426 19.7495 0.992269 19.8981 1.02575 20.0411C1.05924 20.1841 1.12451 20.3177 1.21672 20.4319C1.30893 20.5462 1.42569 20.6382 1.55835 20.7011C1.69101 20.7641 1.83615 20.7963 1.98297 20.7955H10.2957C10.442 20.7955 10.5865 20.7625 10.7184 20.6992C10.8503 20.6359 10.9664 20.5437 11.0578 20.4296C11.1494 20.3154 11.2142 20.1822 11.2473 20.0396C11.2805 19.8971 11.2812 19.749 11.2495 19.6061L9.72981 12.7652Z" fill="#FFEF5E"/>
<path d="M21.4573 12.7652C21.4091 12.5481 21.2881 12.3538 21.1145 12.2147C20.9409 12.0755 20.7251 11.9998 20.5025 12H15.2253C15.0029 12 14.7873 12.0758 14.6139 12.215C14.4405 12.3541 14.3197 12.5482 14.2715 12.7652L12.7508 19.6061C12.719 19.7495 12.7198 19.8981 12.7533 20.0411C12.7868 20.1841 12.8521 20.3177 12.9442 20.4319C13.0365 20.5462 13.1533 20.6382 13.2859 20.7011C13.4185 20.7641 13.5637 20.7963 13.7105 20.7955H22.0232C22.1695 20.7955 22.314 20.7625 22.4459 20.6992C22.5778 20.6359 22.6939 20.5437 22.7854 20.4296C22.8769 20.3154 22.9417 20.1822 22.9748 20.0396C23.008 19.8971 23.0088 19.749 22.977 19.6061L21.4573 12.7652Z" fill="#FFEF5E"/>
<path d="M15.5931 3.96973C15.5448 3.75255 15.4238 3.55835 15.2503 3.41922C15.0767 3.28008 14.8608 3.20434 14.6383 3.20453H9.36103C9.13872 3.20457 8.92305 3.2804 8.74964 3.41952C8.57625 3.55863 8.45545 3.75272 8.40721 3.96973L6.88657 10.8106C6.8547 10.954 6.85555 11.1027 6.88903 11.2456C6.92253 11.3886 6.9878 11.5222 7.08 11.6364C7.17221 11.7507 7.28897 11.8427 7.42163 11.9057C7.55428 11.9686 7.69943 12.0009 7.84625 12H16.1589C16.3052 12 16.4498 11.967 16.5817 11.9037C16.7135 11.8404 16.8296 11.7482 16.9211 11.6341C17.0127 11.5199 17.0775 11.3867 17.1106 11.2442C17.1437 11.1017 17.1445 10.9535 17.1128 10.8106L15.5931 3.96973Z" fill="#FFEF5E"/>
<path d="M10.3745 5.92428C10.4227 5.70727 10.5435 5.51318 10.7169 5.37406C10.8903 5.23495 11.1059 5.15911 11.3283 5.15907H15.857L15.5921 3.96973C15.5438 3.75255 15.4229 3.55835 15.2493 3.41922C15.0757 3.28008 14.8598 3.20434 14.6373 3.20453H9.36005C9.13774 3.20457 8.92207 3.2804 8.74867 3.41952C8.57527 3.55863 8.45447 3.75272 8.40623 3.96973L6.88657 10.8106C6.85472 10.9539 6.85555 11.1025 6.88898 11.2453C6.92242 11.3882 6.9876 11.5218 7.07969 11.636C7.17179 11.7503 7.28843 11.8423 7.42097 11.9054C7.5535 11.9683 7.69853 12.0007 7.84527 12H9.02387L10.3745 5.92428Z" fill="#FFF9BF"/>
<path d="M4.51118 14.7198C4.55945 14.5026 4.68039 14.3083 4.85399 14.1693C5.02761 14.0301 5.24349 13.9544 5.46597 13.9545H9.99465L9.72981 12.7652C9.68154 12.5481 9.5606 12.3538 9.38699 12.2147C9.21338 12.0755 8.99749 11.9998 8.77502 12H3.49775C3.27544 12 3.05977 12.0758 2.88636 12.215C2.71297 12.3541 2.59217 12.5482 2.54393 12.7652L1.02329 19.6061C0.991426 19.7495 0.992269 19.8981 1.02575 20.0411C1.05924 20.1841 1.12451 20.3177 1.21672 20.4319C1.30893 20.5462 1.42569 20.6382 1.55835 20.7011C1.69101 20.7641 1.83615 20.7963 1.98297 20.7955H3.16156L4.51118 14.7198Z" fill="#FFF9BF"/>
<path d="M16.2387 14.7198C16.287 14.5026 16.408 14.3083 16.5815 14.1693C16.7551 14.0301 16.971 13.9544 17.1935 13.9545H21.7222L21.4573 12.7652C21.4091 12.5481 21.2881 12.3538 21.1145 12.2147C20.9409 12.0755 20.7251 11.9998 20.5025 12H15.2253C15.0029 12 14.7873 12.0758 14.6139 12.215C14.4405 12.3541 14.3197 12.5482 14.2715 12.7652L12.7508 19.6061C12.719 19.7495 12.7198 19.8981 12.7533 20.0411C12.7868 20.1841 12.8521 20.3177 12.9442 20.4319C13.0365 20.5462 13.1533 20.6382 13.2859 20.7011C13.4185 20.7641 13.5637 20.7963 13.7105 20.7955H14.8891L16.2387 14.7198Z" fill="#FFF9BF"/>
<path d="M9.72981 12.7652C9.68154 12.5481 9.5606 12.3538 9.38699 12.2147C9.21338 12.0755 8.99749 11.9998 8.77502 12H3.49775C3.27544 12 3.05977 12.0758 2.88636 12.215C2.71297 12.3541 2.59217 12.5482 2.54393 12.7652L1.02329 19.6061C0.991426 19.7495 0.992269 19.8981 1.02575 20.0411C1.05924 20.1841 1.12451 20.3177 1.21672 20.4319C1.30893 20.5462 1.42569 20.6382 1.55835 20.7011C1.69101 20.7641 1.83615 20.7963 1.98297 20.7955H10.2957C10.442 20.7955 10.5865 20.7625 10.7184 20.6992C10.8503 20.6359 10.9664 20.5437 11.0578 20.4296C11.1494 20.3154 11.2142 20.1822 11.2473 20.0396C11.2805 19.8971 11.2812 19.749 11.2495 19.6061L9.72981 12.7652Z" stroke="#191919" stroke-linecap="round" stroke-linejoin="round"/>
<path d="M21.4573 12.7652C21.4091 12.5481 21.2881 12.3538 21.1145 12.2147C20.9409 12.0755 20.7251 11.9998 20.5025 12H15.2253C15.0029 12 14.7873 12.0758 14.6139 12.215C14.4405 12.3541 14.3197 12.5482 14.2715 12.7652L12.7508 19.6061C12.719 19.7495 12.7198 19.8981 12.7533 20.0411C12.7868 20.1841 12.8521 20.3177 12.9442 20.4319C13.0365 20.5462 13.1533 20.6382 13.2859 20.7011C13.4185 20.7641 13.5637 20.7963 13.7105 20.7955H22.0232C22.1695 20.7955 22.314 20.7625 22.4459 20.6992C22.5778 20.6359 22.6939 20.5437 22.7854 20.4296C22.8769 20.3154 22.9417 20.1822 22.9748 20.0396C23.008 19.8971 23.0088 19.749 22.977 19.6061L21.4573 12.7652Z" stroke="#191919" stroke-linecap="round" stroke-linejoin="round"/>
<path d="M15.5931 3.96973C15.5448 3.75255 15.4238 3.55835 15.2503 3.41922C15.0767 3.28008 14.8608 3.20434 14.6383 3.20453H9.36103C9.13872 3.20457 8.92305 3.2804 8.74964 3.41952C8.57625 3.55863 8.45545 3.75272 8.40721 3.96973L6.88657 10.8106C6.8547 10.954 6.85555 11.1027 6.88903 11.2456C6.92253 11.3886 6.9878 11.5222 7.08 11.6364C7.17221 11.7507 7.28897 11.8427 7.42163 11.9057C7.55428 11.9686 7.69943 12.0009 7.84625 12H16.1589C16.3052 12 16.4498 11.967 16.5817 11.9037C16.7135 11.8404 16.8296 11.7482 16.9211 11.6341C17.0127 11.5199 17.0775 11.3867 17.1106 11.2442C17.1437 11.1017 17.1445 10.9535 17.1128 10.8106L15.5931 3.96973Z" stroke="#191919" stroke-linecap="round" stroke-linejoin="round"/>
<path d="M11.9995 5.15906H10.9245C10.8133 5.1591 10.7054 5.19709 10.6187 5.26674C10.5319 5.33639 10.4716 5.43355 10.4476 5.54215L9.9873 7.63449" stroke="#191919" stroke-linecap="round" stroke-linejoin="round"/>
<path d="M6.13525 13.9545H5.06025C4.94903 13.9545 4.84115 13.9925 4.75444 14.0622C4.66772 14.1318 4.60737 14.229 4.58335 14.3376L4.11816 16.4299" stroke="#191919" stroke-linecap="round" stroke-linejoin="round"/>
<path d="M17.8628 13.9545H16.7878C16.6766 13.9545 16.5687 13.9925 16.482 14.0622C16.3952 14.1318 16.3349 14.229 16.3109 14.3376L15.8457 16.4299" stroke="#191919" stroke-linecap="round" stroke-linejoin="round"/>
</g>
<defs>
<clipPath id="clip0_5303_6053">
<rect width="24" height="24" fill="white"/>
</clipPath>
</defs>
</svg>
