<svg width="24" height="24" viewBox="0 0 24 24" fill="none" xmlns="http://www.w3.org/2000/svg">
<g clip-path="url(#clip0_5303_11723)">
<path d="M10.0859 1.95654H20.1294C20.2241 1.95637 20.3168 1.98433 20.3956 2.03687C20.4743 2.08941 20.5358 2.16417 20.5721 2.25167C20.6083 2.33916 20.6178 2.43545 20.5993 2.52834C20.5808 2.62123 20.5351 2.70652 20.468 2.77341L17.4569 5.78263L20.4671 8.79185C20.534 8.85868 20.5797 8.94389 20.5983 9.03669C20.6169 9.12948 20.6075 9.2257 20.5713 9.31315C20.5352 9.40061 20.4739 9.47538 20.3952 9.52799C20.3165 9.5806 20.224 9.6087 20.1294 9.60872H10.0859V1.95654Z" fill="#FF808C"/>
<path d="M10.0859 9.60872H10.1539L17.806 1.95654H10.0859V9.60872Z" fill="#FFBFC5"/>
<path d="M10.0863 23C13.7842 23 16.7819 21.9294 16.7819 20.6087C16.7819 19.288 13.7842 18.2174 10.0863 18.2174C6.38837 18.2174 3.39062 19.288 3.39062 20.6087C3.39062 21.9294 6.38837 23 10.0863 23Z" fill="#78EB7B"/>
<path d="M3.94829 21.5652C4.98133 20.7206 7.3401 20.1305 10.0863 20.1305C12.8325 20.1305 15.1912 20.7206 16.2243 21.5652C16.3831 21.4579 16.5157 21.3162 16.6122 21.1506C16.7088 20.985 16.7668 20.7998 16.7819 20.6087C16.7819 19.2878 13.7842 18.2174 10.0863 18.2174C6.38836 18.2174 3.39062 19.2878 3.39062 20.6087C3.40578 20.7998 3.46377 20.985 3.56031 21.1506C3.65685 21.3162 3.78946 21.4579 3.94829 21.5652Z" fill="#C9F7CA"/>
<path d="M10.0863 23C13.7842 23 16.7819 21.9294 16.7819 20.6087C16.7819 19.288 13.7842 18.2174 10.0863 18.2174C6.38837 18.2174 3.39062 19.288 3.39062 20.6087C3.39062 21.9294 6.38837 23 10.0863 23Z" stroke="#191919" stroke-linecap="round" stroke-linejoin="round"/>
<path d="M10.0859 1V20.1304" stroke="#191919" stroke-linecap="round" stroke-linejoin="round"/>
<path d="M10.0859 1.95654H20.1294C20.2241 1.95637 20.3168 1.98433 20.3956 2.03687C20.4743 2.08941 20.5358 2.16417 20.5721 2.25167C20.6083 2.33916 20.6178 2.43545 20.5993 2.52834C20.5808 2.62123 20.5351 2.70652 20.468 2.77341L17.4569 5.78263L20.4671 8.79185C20.534 8.85868 20.5797 8.94389 20.5983 9.03669C20.6169 9.12948 20.6075 9.2257 20.5713 9.31315C20.5352 9.40061 20.4739 9.47538 20.3952 9.52799C20.3165 9.5806 20.224 9.6087 20.1294 9.60872H10.0859V1.95654Z" stroke="#191919" stroke-linecap="round" stroke-linejoin="round"/>
</g>
<defs>
<clipPath id="clip0_5303_11723">
<rect width="24" height="24" fill="white"/>
</clipPath>
</defs>
</svg>
