<svg width="24" height="24" viewBox="0 0 24 24" fill="none" xmlns="http://www.w3.org/2000/svg">
<g clip-path="url(#clip0_5303_9064)">
<path d="M20.0157 4.47237L17.2322 7.09323C16.4691 6.27817 15.526 5.65276 14.4782 5.26691C13.4305 4.88106 12.307 4.74545 11.1975 4.87089C10.088 4.99633 9.02322 5.37937 8.08806 5.98942C7.15289 6.59947 6.37326 7.41966 5.81137 8.38453L2.79834 5.99323C3.70632 4.59739 4.91987 3.42632 6.34718 2.56864C7.77448 1.71096 9.37815 1.18911 11.0369 1.04259C12.6956 0.896075 14.3659 1.12871 15.9215 1.72291C17.477 2.31711 18.8771 3.25731 20.0157 4.47237Z" fill="#FF808C" stroke="#191919" stroke-linecap="round" stroke-linejoin="round"/>
<path d="M5.8496 15.6732L2.97048 18.2654C1.71778 16.4716 1.03177 14.3434 1.00108 12.1557C0.970382 9.96803 1.59642 7.82143 2.79831 5.99323L5.81134 8.38451C5.15986 9.48995 4.81946 10.751 4.8262 12.0341C4.83294 13.3172 5.18655 14.5747 5.8496 15.6732Z" fill="#FFEF5E" stroke="#191919" stroke-linecap="round" stroke-linejoin="round"/>
<path d="M18.8298 20.6376C17.65 21.5675 16.2924 22.246 14.8405 22.6315C13.3886 23.0169 11.8732 23.1011 10.3876 22.8789C8.90194 22.6567 7.4775 22.1327 6.20195 21.3393C4.92641 20.5459 3.82676 19.4998 2.9707 18.2654L5.84982 15.6733C6.3629 16.5337 7.0505 17.2772 7.86835 17.8558C8.6862 18.4343 9.61617 18.8352 10.5984 19.0325C11.5805 19.2299 12.5932 19.2193 13.571 19.0015C14.5489 18.7837 15.4703 18.3636 16.2759 17.7681L18.8298 20.6376Z" fill="#78EB7B" stroke="#191919" stroke-linecap="round" stroke-linejoin="round"/>
<path d="M22.9998 10.5654V12.5741C22.9184 14.1375 22.5044 15.6656 21.7852 17.0561C21.066 18.4467 20.0582 19.6677 18.8293 20.6376L16.2754 17.768C17.4333 16.9221 18.3071 15.7447 18.7815 14.3915H13.4346V10.5654H22.9998Z" fill="#66E1FF" stroke="#191919" stroke-linecap="round" stroke-linejoin="round"/>
<path d="M2.79857 5.9937L2.78857 5.9837" stroke="#191919" stroke-linecap="round" stroke-linejoin="round"/>
<path d="M2.97045 18.2654L2.96045 18.2754" stroke="#191919" stroke-linecap="round" stroke-linejoin="round"/>
<path d="M5.85961 15.6637L5.84961 15.6737" stroke="#191919" stroke-linecap="round" stroke-linejoin="round"/>
</g>
<defs>
<clipPath id="clip0_5303_9064">
<rect width="24" height="24" fill="white"/>
</clipPath>
</defs>
</svg>
