<svg width="24" height="24" viewBox="0 0 24 24" fill="none" xmlns="http://www.w3.org/2000/svg">
<path d="M4.45312 21.6842H19.684L22.9988 15.8704H7.76204L4.45312 21.6842Z" fill="#C2F3FF"/>
<path d="M7.76204 15.8704L4.45312 21.6842H9.6108L7.76204 15.8704Z" fill="#66E1FF"/>
<path d="M4.45312 21.6842H19.684L22.9988 15.8704H7.76204L4.45312 21.6842Z" stroke="#191919" stroke-linecap="round" stroke-linejoin="round"/>
<path d="M16.1436 15.8704H22.9999L15.4266 2.3158H8.56934C8.88819 2.86229 16.1436 15.8704 16.1436 15.8704Z" fill="#FFEF5E" stroke="#191919" stroke-linecap="round" stroke-linejoin="round"/>
<path d="M8.56941 2.3158L1 15.4548L4.45335 21.6842C4.45335 21.6842 11.6817 8.98119 11.9976 8.44056L8.56941 2.3158Z" fill="#C9F7CA"/>
<path d="M9.79122 12.3076C10.9608 10.2535 11.889 8.62562 11.9975 8.44056L8.56934 2.3158L9.79122 12.3076Z" fill="#78EB7B"/>
<path d="M8.56941 2.3158L1 15.4548L4.45335 21.6842C4.45335 21.6842 11.6817 8.98119 11.9976 8.44056L8.56941 2.3158Z" stroke="#191919" stroke-linecap="round" stroke-linejoin="round"/>
</svg>
