<svg width="24" height="24" viewBox="0 0 24 24" fill="none" xmlns="http://www.w3.org/2000/svg">
<path d="M12.0002 22.5426C17.8222 22.5426 22.5418 17.8229 22.5418 12.0009C22.5418 6.17889 17.8222 1.45923 12.0002 1.45923C6.17817 1.45923 1.4585 6.17889 1.4585 12.0009C1.4585 17.8229 6.17817 22.5426 12.0002 22.5426Z" fill="#66E1FF"/>
<path d="M12.0002 22.5416C9.20434 22.5416 6.52302 21.431 4.54608 19.454C2.56913 17.4772 1.4585 14.7958 1.4585 12C1.4585 9.20416 2.56913 6.52284 4.54608 4.54589C6.52302 2.56895 9.20434 1.45831 12.0002 1.45831V22.5416Z" fill="#C2F3FF"/>
<path d="M12.0002 22.5426C17.8222 22.5426 22.5418 17.8229 22.5418 12.0009C22.5418 6.17889 17.8222 1.45923 12.0002 1.45923C6.17817 1.45923 1.4585 6.17889 1.4585 12.0009C1.4585 17.8229 6.17817 22.5426 12.0002 22.5426Z" stroke="#191919" stroke-linecap="round" stroke-linejoin="round"/>
<path d="M3.2915 13.375H5.46767C7.48984 13.375 7.31475 11.6636 8.79792 4.54568C8.8194 4.44256 8.87573 4.34998 8.95746 4.28353C9.03918 4.21707 9.14129 4.18079 9.24663 4.18079C9.35196 4.18079 9.45408 4.21707 9.5358 4.28353C9.61753 4.34998 9.67386 4.44256 9.69534 4.54568L12.5022 18.2333C12.5231 18.3355 12.5781 18.4275 12.6583 18.4941C12.7385 18.5607 12.839 18.5981 12.9433 18.5999C13.0475 18.6017 13.1492 18.568 13.2317 18.5041C13.3142 18.4403 13.3725 18.3503 13.3968 18.2489L15.3301 10.1941C15.3526 10.0994 15.4048 10.0143 15.479 9.95119C15.5532 9.88808 15.6456 9.85025 15.7428 9.8432C15.8399 9.83615 15.9368 9.86025 16.0194 9.91199C16.1019 9.96372 16.1658 10.0404 16.2018 10.1309C16.8829 11.8341 17.1552 13.3768 18.741 13.3768H20.7082" stroke="#191919" stroke-linecap="round" stroke-linejoin="round"/>
</svg>
