<svg width="24" height="24" viewBox="0 0 24 24" fill="none" xmlns="http://www.w3.org/2000/svg">
<g clip-path="url(#clip0_5303_2716)">
<path d="M11.9998 22.9319C18.0374 22.9319 22.9317 18.0376 22.9317 12C22.9317 5.96251 18.0374 1.06821 11.9998 1.06821C5.96229 1.06821 1.06799 5.96251 1.06799 12C1.06799 18.0376 5.96229 22.9319 11.9998 22.9319Z" fill="#FFBFC5"/>
<path d="M0.807861 5.49289L8.44556 14.0822C8.63236 14.2885 8.89126 14.415 9.16876 14.4358C9.44626 14.4566 9.72106 14.3698 9.93646 14.1936L14.5841 10.3206C14.7993 10.1445 15.0742 10.0581 15.3515 10.0794C15.6288 10.1008 15.8871 10.2282 16.073 10.4351L23.1921 18.5039" stroke="#191919" stroke-linecap="round" stroke-linejoin="round"/>
<path d="M15.9683 18.5071H23.1918V12.2821" stroke="#191919" stroke-linecap="round" stroke-linejoin="round"/>
</g>
<defs>
<clipPath id="clip0_5303_2716">
<rect width="24" height="24" fill="white"/>
</clipPath>
</defs>
</svg>
