<svg width="24" height="24" viewBox="0 0 24 24" fill="none" xmlns="http://www.w3.org/2000/svg">
<path d="M22.0435 3.3913H1.95652C1.42825 3.3913 1 3.81955 1 4.34782V19.6522C1 20.1805 1.42825 20.6087 1.95652 20.6087H22.0435C22.5718 20.6087 23 20.1805 23 19.6522V4.34782C23 3.81955 22.5718 3.3913 22.0435 3.3913Z" fill="white"/>
<path d="M21.0865 5.30823V12.9604H18.6952V18.6995H2.9126V5.30823H21.0865Z" fill="#C2F3FF"/>
<path d="M6.53906 18.6995H18.6955V12.9604H21.0868V5.30823H19.9304L6.53906 18.6995Z" fill="#66E1FF"/>
<path d="M23 8.65217V19.6522C23 19.9058 22.8992 20.1492 22.7198 20.3285C22.5405 20.5079 22.2971 20.6087 22.0435 20.6087H1.95652C1.70283 20.6087 1.45954 20.5079 1.28016 20.3285C1.10078 20.1492 1 19.9058 1 19.6522V4.34782C1 4.09413 1.10078 3.85084 1.28016 3.67145C1.45954 3.49208 1.70283 3.3913 1.95652 3.3913H18.6957" stroke="#191919" stroke-linecap="round" stroke-linejoin="round"/>
<path d="M21.0866 15.8299H18.6953V18.6995H21.0866V15.8299Z" fill="#FF808C"/>
<path d="M16.7822 5.30823H2.9126V18.6995H18.6952" stroke="#191919" stroke-linecap="round" stroke-linejoin="round"/>
<path d="M21.0866 12.9603H18.6953V15.8299H21.0866V12.9603Z" fill="#FFEF5E"/>
<path d="M21.0869 12.9603V10.569" stroke="#191919" stroke-linecap="round" stroke-linejoin="round"/>
<path d="M8.17351 14.8696C8.83564 14.8696 9.48291 14.6732 10.0335 14.3053C10.584 13.9375 11.0131 13.4146 11.2665 12.8029C11.5199 12.1912 11.5862 11.518 11.457 10.8686C11.3278 10.2192 11.009 9.62265 10.5408 9.15445C10.0726 8.68625 9.47605 8.3674 8.82664 8.23822C8.17722 8.10904 7.50409 8.17534 6.89235 8.42873C6.28062 8.68212 5.75776 9.11122 5.3899 9.66176C5.02203 10.2124 4.82568 10.8596 4.82568 11.5217C4.82568 12.4097 5.1784 13.2612 5.80624 13.889C6.43407 14.5169 7.28561 14.8696 8.17351 14.8696Z" fill="#E3E3E3"/>
<path d="M8.17404 12.9565C8.45781 12.9565 8.73521 12.8724 8.97116 12.7147C9.20711 12.5571 9.39101 12.333 9.49961 12.0708C9.6082 11.8086 9.63662 11.5201 9.58126 11.2419C9.52589 10.9635 9.38924 10.7078 9.18858 10.5072C8.98793 10.3066 8.73228 10.1699 8.45396 10.1145C8.17563 10.0592 7.88714 10.0875 7.62497 10.1962C7.3628 10.3048 7.13872 10.4887 6.98107 10.7246C6.8234 10.9606 6.73926 11.2379 6.73926 11.5217C6.73926 11.9022 6.89043 12.2673 7.1595 12.5363C7.42857 12.8054 7.79352 12.9565 8.17404 12.9565Z" fill="white"/>
<path d="M22.6048 6.65589L17.739 11.5217L15.3477 12L15.8259 9.60867L20.6917 4.74284C20.9446 4.48993 21.2878 4.34784 21.6454 4.34784C22.003 4.34784 22.3461 4.48993 22.599 4.74284L22.6048 4.74858C22.8577 5.00152 22.9998 5.34455 22.9998 5.70224C22.9998 6.05993 22.8577 6.40296 22.6048 6.65589Z" fill="#808080"/>
<path d="M21.0866 15.8299H18.6953V18.6995H21.0866V15.8299Z" stroke="#191919" stroke-linecap="round" stroke-linejoin="round"/>
<path d="M21.0866 12.9603H18.6953V15.8299H21.0866V12.9603Z" stroke="#191919" stroke-linecap="round" stroke-linejoin="round"/>
<path d="M8.17351 14.8696C8.83564 14.8696 9.48291 14.6732 10.0335 14.3053C10.584 13.9375 11.0131 13.4146 11.2665 12.8029C11.5199 12.1912 11.5862 11.518 11.457 10.8686C11.3278 10.2192 11.009 9.62265 10.5408 9.15445C10.0726 8.68625 9.47605 8.3674 8.82664 8.23822C8.17722 8.10904 7.50409 8.17534 6.89235 8.42873C6.28062 8.68212 5.75776 9.11122 5.3899 9.66176C5.02203 10.2124 4.82568 10.8596 4.82568 11.5217C4.82568 12.4097 5.1784 13.2612 5.80624 13.889C6.43407 14.5169 7.28561 14.8696 8.17351 14.8696Z" stroke="#191919" stroke-linecap="round" stroke-linejoin="round"/>
<path d="M8.17404 12.9565C8.45781 12.9565 8.73521 12.8724 8.97116 12.7147C9.20711 12.5571 9.39101 12.333 9.49961 12.0708C9.6082 11.8086 9.63662 11.5201 9.58126 11.2419C9.52589 10.9635 9.38924 10.7078 9.18858 10.5072C8.98793 10.3066 8.73228 10.1699 8.45396 10.1145C8.17563 10.0592 7.88714 10.0875 7.62497 10.1962C7.3628 10.3048 7.13872 10.4887 6.98107 10.7246C6.8234 10.9606 6.73926 11.2379 6.73926 11.5217C6.73926 11.9022 6.89043 12.2673 7.1595 12.5363C7.42857 12.8054 7.79352 12.9565 8.17404 12.9565Z" stroke="#191919" stroke-linecap="round" stroke-linejoin="round"/>
<path d="M22.6048 6.65589L17.739 11.5217L15.3477 12L15.8259 9.60867L20.6917 4.74284C20.9446 4.48993 21.2878 4.34784 21.6454 4.34784C22.003 4.34784 22.3461 4.48993 22.599 4.74284L22.6048 4.74858C22.8577 5.00152 22.9998 5.34455 22.9998 5.70224C22.9998 6.05993 22.8577 6.40296 22.6048 6.65589Z" stroke="#191919" stroke-linecap="round" stroke-linejoin="round"/>
</svg>
