<svg width="24" height="24" viewBox="0 0 24 24" fill="none" xmlns="http://www.w3.org/2000/svg">
<g clip-path="url(#clip0_5303_11528)">
<path d="M1 23V1" stroke="#191919" stroke-linecap="round" stroke-linejoin="round"/>
<path d="M23 23V1" stroke="#191919" stroke-linecap="round" stroke-linejoin="round"/>
<path d="M3.3913 3.86963H1" stroke="#191919" stroke-linecap="round" stroke-linejoin="round"/>
<path d="M22.9997 3.86963H20.6084" stroke="#191919" stroke-linecap="round" stroke-linejoin="round"/>
<path d="M12 9.12858C13.0565 9.12858 13.913 8.27208 13.913 7.21553C13.913 6.15899 13.0565 5.30249 12 5.30249C10.9434 5.30249 10.0869 6.15899 10.0869 7.21553C10.0869 8.27208 10.9434 9.12858 12 9.12858Z" fill="#FFDDA1" stroke="#191919" stroke-linecap="round" stroke-linejoin="round"/>
<path d="M9.60861 15.7659V12.8964L8.22931 11.6175C6.68127 10.32 5.69628 8.47305 5.48122 6.46466L5.31 4.93422C5.28316 4.68268 5.35706 4.43074 5.51553 4.23354C5.67401 4.03636 5.90413 3.90997 6.15557 3.88205C6.40647 3.8585 6.65668 3.93362 6.85311 4.09148C7.04955 4.24934 7.17675 4.47752 7.20774 4.72761L7.37896 6.25805C7.54712 7.78948 8.30371 9.19565 9.48904 10.1798C10.0879 10.7335 10.8735 11.0409 11.689 11.0407H12.2964C13.112 11.0406 13.8975 10.7332 14.4964 10.1798C15.682 9.19591 16.4387 7.78959 16.6065 6.25805L16.7777 4.72761C16.8089 4.47763 16.9362 4.24959 17.1326 4.09178C17.329 3.93396 17.579 3.85874 17.8299 3.88205C18.0814 3.90997 18.3115 4.03636 18.4699 4.23354C18.6284 4.43074 18.7024 4.68268 18.6755 4.93422L18.5043 6.46466C18.2923 8.47094 17.3123 10.3175 15.7696 11.6175L14.3912 12.8945V15.764C14.3912 15.9245 14.4316 16.0824 14.5087 16.2232C14.5858 16.364 14.697 16.4832 14.8322 16.5697C14.9674 16.6563 15.1222 16.7073 15.2823 16.7183C15.4424 16.7292 15.6027 16.6998 15.7485 16.6325L19.0657 15.1021C19.326 14.9893 19.6199 14.9826 19.8851 15.0836C20.1501 15.1845 20.3653 15.3849 20.4847 15.6422C20.6041 15.8994 20.6183 16.1931 20.5242 16.4607C20.4301 16.7283 20.2353 16.9485 19.9811 17.0745L14.7346 19.5232C13.8782 19.9226 12.9449 20.1296 11.9999 20.1296C11.055 20.1296 10.1216 19.9226 9.26522 19.5232L4.0187 17.0745C3.76457 16.9485 3.5697 16.7283 3.47562 16.4607C3.38156 16.1931 3.39573 15.8994 3.51513 15.6422C3.63453 15.3849 3.84971 15.1845 4.11478 15.0836C4.37986 14.9826 4.67386 14.9893 4.93409 15.1021L8.25131 16.6325C8.3969 16.6997 8.55705 16.7292 8.71703 16.7183C8.87701 16.7074 9.03168 16.6566 9.16684 16.5703C9.30199 16.4839 9.41328 16.3651 9.49047 16.2245C9.56767 16.084 9.60829 15.9262 9.60861 15.7659Z" fill="#66E1FF"/>
<path d="M6.18981 3.86955C6.1592 8.46085 8.09616 12 12.0007 12C15.9052 12 17.8422 8.46085 17.8116 3.86955C17.5652 3.854 17.3221 3.93301 17.1319 4.09048C16.9417 4.24795 16.8188 4.47203 16.7881 4.71702L16.6169 6.24746C16.4491 7.779 15.6924 9.18532 14.5068 10.1692C13.9078 10.7227 13.1223 11.03 12.3068 11.0301H11.6994C10.8839 11.0303 10.0983 10.7228 9.49938 10.1692C8.31405 9.18506 7.55746 7.77889 7.38929 6.24746L7.21807 4.71702C7.18781 4.47096 7.06429 4.24589 6.87297 4.08821C6.68165 3.93052 6.43713 3.85226 6.18981 3.86955Z" fill="#C2F3FF"/>
<path d="M9.60861 15.7659V12.8964L8.22931 11.6175C6.68127 10.32 5.69628 8.47305 5.48122 6.46466L5.31 4.93422C5.28316 4.68268 5.35706 4.43074 5.51553 4.23354C5.67401 4.03636 5.90413 3.90997 6.15557 3.88205C6.40647 3.8585 6.65668 3.93362 6.85311 4.09148C7.04955 4.24934 7.17675 4.47752 7.20774 4.72761L7.37896 6.25805C7.54712 7.78948 8.30371 9.19565 9.48904 10.1798C10.0879 10.7335 10.8735 11.0409 11.689 11.0407H12.2964C13.112 11.0406 13.8975 10.7332 14.4964 10.1798C15.682 9.19591 16.4387 7.78959 16.6065 6.25805L16.7777 4.72761C16.8089 4.47763 16.9362 4.24959 17.1326 4.09178C17.329 3.93396 17.579 3.85874 17.8299 3.88205C18.0814 3.90997 18.3115 4.03636 18.4699 4.23354C18.6284 4.43074 18.7024 4.68268 18.6755 4.93422L18.5043 6.46466C18.2923 8.47094 17.3123 10.3175 15.7696 11.6175L14.3912 12.8945V15.764C14.3912 15.9245 14.4316 16.0824 14.5087 16.2232C14.5858 16.364 14.697 16.4832 14.8322 16.5697C14.9674 16.6563 15.1222 16.7073 15.2823 16.7183C15.4424 16.7292 15.6027 16.6998 15.7485 16.6325L19.0657 15.1021C19.326 14.9893 19.6199 14.9826 19.8851 15.0836C20.1501 15.1845 20.3653 15.3849 20.4847 15.6422C20.6041 15.8994 20.6183 16.1931 20.5242 16.4607C20.4301 16.7283 20.2353 16.9485 19.9811 17.0745L14.7346 19.5232C13.8782 19.9226 12.9449 20.1296 11.9999 20.1296C11.055 20.1296 10.1216 19.9226 9.26522 19.5232L4.0187 17.0745C3.76457 16.9485 3.5697 16.7283 3.47562 16.4607C3.38156 16.1931 3.39573 15.8994 3.51513 15.6422C3.63453 15.3849 3.84971 15.1845 4.11478 15.0836C4.37986 14.9826 4.67386 14.9893 4.93409 15.1021L8.25131 16.6325C8.3969 16.6997 8.55705 16.7292 8.71703 16.7183C8.87701 16.7074 9.03168 16.6566 9.16684 16.5703C9.30199 16.4839 9.41328 16.3651 9.49047 16.2245C9.56767 16.084 9.60829 15.9262 9.60861 15.7659Z" stroke="#191919" stroke-linecap="round" stroke-linejoin="round"/>
<path d="M9.13086 3.86963H14.87" stroke="#191919" stroke-linecap="round" stroke-linejoin="round"/>
</g>
<defs>
<clipPath id="clip0_5303_11528">
<rect width="24" height="24" fill="white"/>
</clipPath>
</defs>
</svg>
