<svg width="24" height="24" viewBox="0 0 24 24" fill="none" xmlns="http://www.w3.org/2000/svg">
<path d="M18.2159 22.521C20.857 22.521 22.9981 20.3799 22.9981 17.7387C22.9981 15.0976 20.857 12.9565 18.2159 12.9565C15.5747 12.9565 13.4336 15.0976 13.4336 17.7387C13.4336 20.3799 15.5747 22.521 18.2159 22.521Z" fill="#FFBFC5"/>
<path d="M20.5042 13.538C20.999 14.4448 21.1868 15.4874 21.0396 16.5099C20.8925 17.5324 20.4182 18.4797 19.6878 19.2102C18.9573 19.9406 18.01 20.4149 16.9875 20.5621C15.9651 20.7092 14.9224 20.5214 14.0156 20.0266C14.3716 20.6791 14.8748 21.2396 15.4853 21.6637C16.0957 22.0877 16.7966 22.3637 17.5323 22.4696C18.268 22.5754 19.0183 22.5084 19.7236 22.2738C20.4288 22.0391 21.0697 21.6432 21.5952 21.1176C22.1208 20.592 22.5167 19.9512 22.7513 19.2459C22.986 18.5406 23.0531 17.7904 22.9472 17.0547C22.8412 16.319 22.5653 15.6181 22.1413 15.0077C21.7172 14.3973 21.1567 13.894 20.5042 13.538Z" fill="#FF808C"/>
<path d="M14.3902 6.26128C15.7107 6.26128 16.7813 5.19073 16.7813 3.87014C16.7813 2.54955 15.7107 1.479 14.3902 1.479C13.0696 1.479 11.999 2.54955 11.999 3.87014C11.999 5.19073 13.0696 6.26128 14.3902 6.26128Z" fill="#FFDDA1" stroke="#191919" stroke-linecap="round" stroke-linejoin="round"/>
<path d="M14.7174 14.4801C14.0522 15.1948 13.6217 16.0959 13.4836 17.0624C13.3456 18.0289 13.5067 19.0145 13.9453 19.8868C14.3839 20.7591 15.0789 21.4763 15.9371 21.9419C16.7953 22.4075 17.7754 22.5993 18.7457 22.4915C19.7161 22.3838 20.6302 21.9816 21.3653 21.339C22.1004 20.6965 22.6212 19.8443 22.8577 18.897C23.0942 17.9498 23.0351 16.9528 22.6884 16.0402C22.3417 15.1274 21.7239 14.3427 20.9181 13.7914" stroke="#191919" stroke-linecap="round" stroke-linejoin="round"/>
<path d="M2.43468 3.87012C2.81518 3.87012 3.18011 4.02128 3.44916 4.29033C3.71821 4.55938 3.86936 4.9243 3.86936 5.3048V9.13062C3.86936 9.51112 4.02052 9.87604 4.28957 10.1452C4.55862 10.4142 4.92355 10.5653 5.30405 10.5653H6.95489C7.14307 10.5652 7.32705 10.5098 7.48381 10.4056L11.1767 7.95514C11.4346 7.77457 11.7448 7.68385 12.0594 7.69699C12.374 7.71012 12.6754 7.82638 12.9174 8.02783L14.9891 9.74945C15.2469 9.96436 15.5717 10.0822 15.9073 10.0823H18.6944C19.0749 10.0823 19.4399 10.2334 19.7089 10.5025C19.978 10.7715 20.1291 11.1365 20.1291 11.517C20.1291 11.8975 19.978 12.2625 19.7089 12.5315C19.4399 12.8006 19.0749 12.9517 18.6944 12.9517H15.9073C14.9007 12.9515 13.926 12.5985 13.1527 11.9541L11.9237 10.9307L9.56601 12.461C9.43175 12.5481 9.32147 12.6674 9.24528 12.8081C9.16908 12.9488 9.1294 13.1063 9.12987 13.2664V21.0863C9.12987 21.4668 8.97871 21.8318 8.70966 22.1008C8.44061 22.3699 8.07568 22.521 7.69518 22.521C7.31469 22.521 6.94976 22.3699 6.68071 22.1008C6.41166 21.8318 6.2605 21.4668 6.2605 21.0863V13.4347H5.30405C4.16293 13.4335 3.06892 12.9795 2.26202 12.1727C1.45513 11.3658 1.00127 10.2718 1 9.13062V5.3048C1 4.9243 1.15115 4.55938 1.42021 4.29033C1.68926 4.02128 2.05419 3.87012 2.43468 3.87012Z" fill="#66E1FF"/>
<path d="M2.33256 3.87012C2.16996 5.79259 1.6573 10.0469 3.86958 11.5218C6.90154 13.538 10.5648 9.13062 11.9995 9.13062C12.9264 9.3021 13.7686 9.78049 14.3906 10.4888C15.0869 11.1519 16.0115 11.5218 16.973 11.5218H20.1293C20.1293 11.1413 19.9782 10.7763 19.7092 10.5073C19.44 10.2382 19.0751 10.0871 18.6946 10.0871H15.9075C15.5719 10.087 15.247 9.96914 14.9893 9.75423L12.9177 8.03261C12.6757 7.83116 12.3742 7.7149 12.0596 7.70177C11.745 7.68863 11.4349 7.77935 11.1769 7.95992L7.48402 10.4056C7.32727 10.5098 7.14329 10.5652 6.95511 10.5653H5.30426C4.92377 10.5653 4.55885 10.4142 4.28979 10.1452C4.02074 9.87604 3.86958 9.51112 3.86958 9.13062V5.3048C3.86958 4.9243 3.71843 4.55938 3.44937 4.29033C3.18032 4.02128 2.81541 3.87012 2.4349 3.87012H2.33256Z" fill="#C2F3FF"/>
<path d="M2.43468 3.87012C2.81518 3.87012 3.18011 4.02128 3.44916 4.29033C3.71821 4.55938 3.86936 4.9243 3.86936 5.3048V9.13062C3.86936 9.51112 4.02052 9.87604 4.28957 10.1452C4.55862 10.4142 4.92355 10.5653 5.30405 10.5653H6.95489C7.14307 10.5652 7.32705 10.5098 7.48381 10.4056L11.1767 7.95514C11.4346 7.77457 11.7448 7.68385 12.0594 7.69699C12.374 7.71012 12.6754 7.82638 12.9174 8.02783L14.9891 9.74945C15.2469 9.96436 15.5717 10.0822 15.9073 10.0823H18.6944C19.0749 10.0823 19.4399 10.2334 19.7089 10.5025C19.978 10.7715 20.1291 11.1365 20.1291 11.517C20.1291 11.8975 19.978 12.2625 19.7089 12.5315C19.4399 12.8006 19.0749 12.9517 18.6944 12.9517H15.9073C14.9007 12.9515 13.926 12.5985 13.1527 11.9541L11.9237 10.9307L9.56601 12.461C9.43175 12.5481 9.32147 12.6674 9.24528 12.8081C9.16908 12.9488 9.1294 13.1063 9.12987 13.2664V21.0863C9.12987 21.4668 8.97871 21.8318 8.70966 22.1008C8.44061 22.3699 8.07568 22.521 7.69518 22.521C7.31469 22.521 6.94976 22.3699 6.68071 22.1008C6.41166 21.8318 6.2605 21.4668 6.2605 21.0863V13.4347H5.30405C4.16293 13.4335 3.06892 12.9795 2.26202 12.1727C1.45513 11.3658 1.00127 10.2718 1 9.13062V5.3048C1 4.9243 1.15115 4.55938 1.42021 4.29033C1.68926 4.02128 2.05419 3.87012 2.43468 3.87012Z" stroke="#191919" stroke-linecap="round" stroke-linejoin="round"/>
</svg>
