<svg width="24" height="24" viewBox="0 0 24 24" fill="none" xmlns="http://www.w3.org/2000/svg">
<path d="M17.261 4.82608V7.93478L6.73926 12.7174V8.8913L15.6827 4.82608H17.261Z" fill="white"/>
<path d="M15.6822 4.82608L15.2135 5.03938C14.8614 6.56589 14.388 8.06185 13.7979 9.51304L17.2605 7.93478V4.82608H15.6822Z" fill="#E3E3E3"/>
<path d="M17.261 7.93478V11.7609L6.73926 16.5435V12.7174L17.261 7.93478Z" fill="#FFBFC5"/>
<path d="M13.7984 9.51304C13.0713 11.3158 12.1338 13.0264 11.0054 14.6094L17.261 11.7609V7.93478L13.7984 9.51304Z" fill="#FF808C"/>
<path d="M17.261 11.7609V15.587L9.36969 19.1739H6.73926V16.5435L17.261 11.7609Z" fill="white"/>
<path d="M11.0053 14.6046C9.8316 16.2658 8.38993 17.7204 6.73926 18.909V19.1739H9.36969L17.261 15.587V11.7609L11.0053 14.6046Z" fill="#E3E3E3"/>
<path d="M17.261 4.82608V7.93478L6.73926 12.7174V8.8913L15.6827 4.82608H17.261Z" stroke="#191919" stroke-linecap="round" stroke-linejoin="round"/>
<path d="M17.261 7.93478V11.7609L6.73926 16.5435V12.7174L17.261 7.93478Z" stroke="#191919" stroke-linecap="round" stroke-linejoin="round"/>
<path d="M17.261 11.7609V15.587L9.36969 19.1739H6.73926V16.5435L17.261 11.7609Z" stroke="#191919" stroke-linecap="round" stroke-linejoin="round"/>
<path d="M17.2609 15.5869V19.1739H9.36963L17.2609 15.5869Z" fill="#FF808C" stroke="#191919" stroke-linecap="round" stroke-linejoin="round"/>
<path d="M18.2175 2.91304V4.34783C18.2175 4.47467 18.1671 4.59632 18.0775 4.686C17.9877 4.7757 17.8661 4.82609 17.7392 4.82609H6.26098C6.13413 4.82609 6.01248 4.7757 5.9228 4.686C5.8331 4.59632 5.78271 4.47467 5.78271 4.34783V2.91304C5.78423 2.40613 5.98626 1.92043 6.3447 1.56199C6.70315 1.20355 7.18885 1.00151 7.69576 1H16.3045C16.8113 1.00151 17.297 1.20355 17.6555 1.56199C18.014 1.92043 18.216 2.40613 18.2175 2.91304Z" fill="#FFEF5E" stroke="#191919" stroke-linecap="round" stroke-linejoin="round"/>
<path d="M18.2175 19.6522V21.087C18.216 21.5938 18.014 22.0795 17.6555 22.4381C17.297 22.7965 16.8113 22.9985 16.3045 23H7.69576C7.18885 22.9985 6.70315 22.7965 6.3447 22.4381C5.98626 22.0795 5.78423 21.5938 5.78271 21.087V19.1739H17.7392C17.8661 19.1739 17.9877 19.2243 18.0775 19.314C18.1671 19.4037 18.2175 19.5253 18.2175 19.6522Z" fill="#FFEF5E" stroke="#191919" stroke-linecap="round" stroke-linejoin="round"/>
<path d="M15.6827 4.82608L6.73926 8.8913V4.82608H15.6827Z" fill="#FFBFC5" stroke="#191919" stroke-linecap="round" stroke-linejoin="round"/>
</svg>
