<svg width="24" height="24" viewBox="0 0 24 24" fill="none" xmlns="http://www.w3.org/2000/svg">
<path d="M17.5 4V20C17.5 21.1 15.04 23 12 23C8.96 23 6.5 21.1 6.5 20V4C6.5 5.66 8.96 7 12 7C15.04 7 17.5 5.66 17.5 4Z" fill="#C9F7CA" stroke="#191919" stroke-linecap="round" stroke-linejoin="round"/>
<path d="M17.5 16C17.5 17.1 15.038 19 12 19C8.962 19 6.5 17.1 6.5 16" stroke="#191919" stroke-linecap="round" stroke-linejoin="round"/>
<path d="M17.5 12C17.5 13.1 15.038 15 12 15C8.962 15 6.5 13.1 6.5 12" stroke="#191919" stroke-linecap="round" stroke-linejoin="round"/>
<path d="M17.5 8C17.5 9.1 15.038 11 12 11C8.962 11 6.5 9.1 6.5 8" stroke="#191919" stroke-linecap="round" stroke-linejoin="round"/>
<path d="M17.5 20L19.5 19.5" stroke="#191919" stroke-linecap="round" stroke-linejoin="round"/>
<path d="M17.5 16L19.5 15.5" stroke="#191919" stroke-linecap="round" stroke-linejoin="round"/>
<path d="M17.5 12L19.5 11.5" stroke="#191919" stroke-linecap="round" stroke-linejoin="round"/>
<path d="M17.5 8L19.5 7.5" stroke="#191919" stroke-linecap="round" stroke-linejoin="round"/>
<path d="M17.5 4L19.5 3.5" stroke="#191919" stroke-linecap="round" stroke-linejoin="round"/>
<path d="M6.5 20L4.5 19.5" stroke="#191919" stroke-linecap="round" stroke-linejoin="round"/>
<path d="M6.5 16L4.5 15.5" stroke="#191919" stroke-linecap="round" stroke-linejoin="round"/>
<path d="M6.5 12L4.5 11.5" stroke="#191919" stroke-linecap="round" stroke-linejoin="round"/>
<path d="M6.5 8L4.5 7.5" stroke="#191919" stroke-linecap="round" stroke-linejoin="round"/>
<path d="M6.5 4L4.5 3.5" stroke="#191919" stroke-linecap="round" stroke-linejoin="round"/>
<path d="M14.5 22.57V6.67294" stroke="#191919" stroke-linecap="round" stroke-linejoin="round"/>
<path d="M9.5 22.57V6.67294" stroke="#191919" stroke-linecap="round" stroke-linejoin="round"/>
<path d="M12 7C15.0376 7 17.5 5.65685 17.5 4C17.5 2.34315 15.0376 1 12 1C8.96243 1 6.5 2.34315 6.5 4C6.5 5.65685 8.96243 7 12 7Z" fill="#78EB7B" stroke="#191919" stroke-linecap="round" stroke-linejoin="round"/>
</svg>
