<svg width="24" height="24" viewBox="0 0 24 24" fill="none" xmlns="http://www.w3.org/2000/svg">
<g clip-path="url(#clip0_5303_8093)">
<path d="M15.0516 1.6538C15.0906 1.55782 15.0971 1.45171 15.0703 1.35165C15.0434 1.25158 14.9845 1.16307 14.9026 1.09958C14.8208 1.03609 14.7204 1.00113 14.6168 1.00003C14.5132 0.998918 14.412 1.03173 14.3288 1.09345C12.0561 2.78018 8.04441 6.16219 8.66744 10.8007C8.71429 11.6734 9.08363 12.4976 9.70381 13.1134C10.324 13.7292 11.1508 14.0926 12.0238 14.1333C12.46 14.1338 12.892 14.0475 13.2947 13.8798C13.6974 13.7121 14.0629 13.4661 14.3698 13.1561C14.6768 12.8462 14.9192 12.4784 15.083 12.0741C15.2468 11.6697 15.3288 11.2369 15.3241 10.8007C15.3241 8.20127 12.5101 7.9154 15.0516 1.6538Z" fill="#808080"/>
<path d="M1.07812 11.2841H5.84581C5.96772 11.2871 6.08405 11.3357 6.17194 11.4202C6.25982 11.5048 6.31289 11.6192 6.32067 11.7409C6.43461 13.1692 7.08247 14.5022 8.13517 15.4743C9.18789 16.4463 10.5682 16.9862 12.001 16.9862C13.4339 16.9862 14.8141 16.4463 15.8669 15.4743C16.9196 14.5022 17.5674 13.1692 17.6814 11.7409C17.6892 11.6192 17.7423 11.5048 17.8301 11.4202C17.918 11.3357 18.0343 11.2871 18.1563 11.2841H22.922V21.1005C22.922 21.6043 22.7219 22.0874 22.3657 22.4436C22.0094 22.7999 21.5263 23 21.0226 23H2.97761C2.47384 23 1.99069 22.7999 1.63447 22.4436C1.27825 22.0874 1.07812 21.6043 1.07812 21.1005V11.2841Z" fill="#FFDDA1"/>
<path d="M22.922 11.2841H18.1544C18.0346 11.2837 17.9191 11.3286 17.8311 11.4098C17.7429 11.491 17.6888 11.6025 17.6795 11.7219C17.5685 13.1526 16.9217 14.4887 15.8685 15.4633C14.8153 16.4379 13.4331 16.9792 11.9982 16.9792C10.5632 16.9792 9.18109 16.4379 8.12788 15.4633C7.07467 14.4887 6.42795 13.1526 6.31688 11.7219C6.30753 11.6025 6.25341 11.491 6.16535 11.4098C6.07729 11.3286 5.96178 11.2837 5.842 11.2841H1.07812" stroke="#191919" stroke-linecap="round" stroke-linejoin="round"/>
<path d="M12.8095 11.4693C11.9365 11.4286 11.1096 11.0652 10.4895 10.4493C9.86929 9.83354 9.49995 9.00935 9.4531 8.13664C9.37861 7.58376 9.36873 7.02408 9.42365 6.4689C8.7406 7.80358 8.47581 9.31319 8.66387 10.8007C8.71072 11.6734 9.08006 12.4975 9.70024 13.1134C10.3204 13.7292 11.1472 14.0926 12.0202 14.1333C12.4568 14.1341 12.8892 14.0484 13.2923 13.8808C13.6955 13.7134 14.0613 13.4674 14.3687 13.1574C14.6761 12.8474 14.9188 12.4794 15.0829 12.0749C15.247 11.6703 15.329 11.2372 15.3244 10.8007C15.3243 10.6418 15.3132 10.4832 15.2911 10.3258C14.9851 10.685 14.6048 10.9733 14.1761 11.1708C13.7476 11.3682 13.2813 11.47 12.8095 11.4693Z" fill="#6B6B6B"/>
<path d="M15.0516 1.6538C15.0906 1.55782 15.0971 1.45171 15.0703 1.35165C15.0434 1.25158 14.9845 1.16307 14.9026 1.09958C14.8208 1.03609 14.7204 1.00113 14.6168 1.00003C14.5132 0.998918 14.412 1.03173 14.3288 1.09345C12.0561 2.78018 8.04441 6.16219 8.66744 10.8007C8.71429 11.6734 9.08363 12.4976 9.70381 13.1134C10.324 13.7292 11.1508 14.0926 12.0238 14.1333C12.46 14.1338 12.892 14.0475 13.2947 13.8798C13.6974 13.7121 14.0629 13.4661 14.3698 13.1561C14.6768 12.8462 14.9192 12.4784 15.083 12.0741C15.2468 11.6697 15.3288 11.2369 15.3241 10.8007C15.3241 8.20127 12.5101 7.9154 15.0516 1.6538Z" stroke="#191919" stroke-linecap="round" stroke-linejoin="round"/>
<path d="M1.31543 21.2629C1.34649 21.2628 1.37726 21.2688 1.406 21.2806C1.43474 21.2924 1.46088 21.3097 1.48293 21.3315C1.50498 21.3535 1.5225 21.3795 1.5345 21.4081C1.5465 21.4367 1.55274 21.4674 1.55286 21.4985" stroke="#191919" stroke-linecap="round" stroke-linejoin="round"/>
<path d="M1.07812 21.4985C1.07826 21.4674 1.0845 21.4367 1.0965 21.4081C1.1085 21.3795 1.12601 21.3535 1.14806 21.3315C1.17011 21.3097 1.19626 21.2924 1.225 21.2806C1.25374 21.2688 1.2845 21.2628 1.31556 21.2629" stroke="#191919" stroke-linecap="round" stroke-linejoin="round"/>
<path d="M1.31556 21.734C1.2845 21.7341 1.25374 21.7281 1.225 21.7163C1.19626 21.7046 1.17011 21.6873 1.14806 21.6654C1.12601 21.6436 1.1085 21.6176 1.0965 21.5889C1.0845 21.5603 1.07826 21.5295 1.07812 21.4985" stroke="#191919" stroke-linecap="round" stroke-linejoin="round"/>
<path d="M1.55286 21.4985C1.55274 21.5295 1.5465 21.5603 1.5345 21.5889C1.5225 21.6176 1.50498 21.6436 1.48293 21.6654C1.46088 21.6873 1.43474 21.7046 1.406 21.7163C1.37726 21.7281 1.34649 21.7341 1.31543 21.734" stroke="#191919" stroke-linecap="round" stroke-linejoin="round"/>
<path d="M3.68994 17.9664C3.721 17.9663 3.75177 17.9723 3.78051 17.9841C3.80926 17.9959 3.83539 18.0131 3.85744 18.035C3.87949 18.0569 3.89701 18.0829 3.90901 18.1115C3.92101 18.1402 3.92725 18.1709 3.92738 18.202" stroke="#191919" stroke-linecap="round" stroke-linejoin="round"/>
<path d="M3.45264 18.1972C3.45276 18.1661 3.459 18.1355 3.471 18.1068C3.483 18.0781 3.50052 18.0522 3.52258 18.0302C3.54462 18.0084 3.57076 17.9911 3.5995 17.9793C3.62824 17.9675 3.65901 17.9616 3.69007 17.9617" stroke="#191919" stroke-linecap="round" stroke-linejoin="round"/>
<path d="M3.69007 18.4327C3.65901 18.4328 3.62824 18.4268 3.5995 18.4151C3.57076 18.4033 3.54462 18.386 3.52258 18.3642C3.50052 18.3422 3.483 18.3163 3.471 18.2876C3.459 18.2589 3.45276 18.2282 3.45264 18.1972" stroke="#191919" stroke-linecap="round" stroke-linejoin="round"/>
<path d="M3.92738 18.1972C3.92725 18.2282 3.92101 18.2589 3.90901 18.2876C3.89701 18.3163 3.87949 18.3422 3.85744 18.3642C3.83539 18.386 3.80926 18.4033 3.78051 18.4151C3.75177 18.4268 3.721 18.4328 3.68994 18.4327" stroke="#191919" stroke-linecap="round" stroke-linejoin="round"/>
<path d="M7.01416 21.2629C7.04522 21.2628 7.07599 21.2688 7.10473 21.2806C7.13348 21.2924 7.15961 21.3097 7.18166 21.3315C7.20371 21.3535 7.22123 21.3795 7.23323 21.4081C7.24523 21.4367 7.25147 21.4674 7.25159 21.4985" stroke="#191919" stroke-linecap="round" stroke-linejoin="round"/>
<path d="M6.77637 21.4985C6.77649 21.4674 6.78273 21.4367 6.79473 21.4081C6.80673 21.3795 6.82425 21.3535 6.84631 21.3315C6.86835 21.3097 6.89449 21.2924 6.92323 21.2806C6.95197 21.2688 6.98274 21.2628 7.0138 21.2629" stroke="#191919" stroke-linecap="round" stroke-linejoin="round"/>
<path d="M7.0138 21.734C6.98274 21.7341 6.95197 21.7281 6.92323 21.7163C6.89449 21.7046 6.86835 21.6873 6.84631 21.6654C6.82425 21.6436 6.80673 21.6176 6.79473 21.5889C6.78273 21.5603 6.77649 21.5295 6.77637 21.4985" stroke="#191919" stroke-linecap="round" stroke-linejoin="round"/>
<path d="M7.25159 21.4985C7.25147 21.5295 7.24523 21.5603 7.23323 21.5889C7.22123 21.6176 7.20371 21.6436 7.18166 21.6654C7.15961 21.6873 7.13348 21.7046 7.10473 21.7163C7.07599 21.7281 7.04522 21.7341 7.01416 21.734" stroke="#191919" stroke-linecap="round" stroke-linejoin="round"/>
<path d="M9.38818 17.9664C9.41924 17.9663 9.45001 17.9723 9.47875 17.9841C9.5075 17.9959 9.53364 18.0131 9.55568 18.035C9.57773 18.0569 9.59525 18.0829 9.60725 18.1115C9.61925 18.1402 9.62549 18.1709 9.62562 18.202" stroke="#191919" stroke-linecap="round" stroke-linejoin="round"/>
<path d="M9.15088 18.1972C9.151 18.1661 9.15724 18.1355 9.16925 18.1068C9.18124 18.0781 9.19876 18.0522 9.22082 18.0302C9.24286 18.0084 9.269 17.9911 9.29775 17.9793C9.32649 17.9675 9.35726 17.9616 9.38831 17.9617" stroke="#191919" stroke-linecap="round" stroke-linejoin="round"/>
<path d="M9.38831 18.4327C9.35726 18.4328 9.32649 18.4268 9.29775 18.4151C9.269 18.4033 9.24286 18.386 9.22082 18.3642C9.19876 18.3422 9.18124 18.3163 9.16925 18.2876C9.15724 18.2589 9.151 18.2282 9.15088 18.1972" stroke="#191919" stroke-linecap="round" stroke-linejoin="round"/>
<path d="M9.62562 18.1972C9.62549 18.2282 9.61925 18.2589 9.60725 18.2876C9.59525 18.3163 9.57773 18.3422 9.55568 18.3642C9.53364 18.386 9.5075 18.4033 9.47875 18.4151C9.45001 18.4268 9.41924 18.4328 9.38818 18.4327" stroke="#191919" stroke-linecap="round" stroke-linejoin="round"/>
<path d="M14.6118 21.2629C14.6429 21.2628 14.6736 21.2688 14.7024 21.2806C14.7311 21.2924 14.7572 21.3097 14.7794 21.3315C14.8014 21.3535 14.8189 21.3795 14.8309 21.4081C14.8429 21.4367 14.8492 21.4674 14.8493 21.4985" stroke="#191919" stroke-linecap="round" stroke-linejoin="round"/>
<path d="M14.3745 21.4985C14.3746 21.4674 14.3809 21.4367 14.3928 21.4081C14.4049 21.3795 14.4224 21.3535 14.4444 21.3315C14.4665 21.3097 14.4927 21.2924 14.5213 21.2806C14.5501 21.2688 14.5809 21.2628 14.6119 21.2629" stroke="#191919" stroke-linecap="round" stroke-linejoin="round"/>
<path d="M14.6119 21.734C14.5809 21.7341 14.5501 21.7281 14.5213 21.7163C14.4927 21.7046 14.4665 21.6873 14.4444 21.6654C14.4224 21.6436 14.4049 21.6176 14.3928 21.5889C14.3809 21.5603 14.3746 21.5295 14.3745 21.4985" stroke="#191919" stroke-linecap="round" stroke-linejoin="round"/>
<path d="M14.8493 21.4985C14.8492 21.5295 14.8429 21.5603 14.8309 21.5889C14.8189 21.6176 14.8014 21.6436 14.7794 21.6654C14.7572 21.6873 14.7311 21.7046 14.7024 21.7163C14.6736 21.7281 14.6429 21.7341 14.6118 21.734" stroke="#191919" stroke-linecap="round" stroke-linejoin="round"/>
<path d="M16.9863 17.9664C17.0174 17.9663 17.0482 17.9723 17.0769 17.9841C17.1056 17.9959 17.1317 18.0131 17.1539 18.035C17.1759 18.0569 17.1934 18.0829 17.2054 18.1115C17.2174 18.1402 17.2237 18.1709 17.2238 18.202" stroke="#191919" stroke-linecap="round" stroke-linejoin="round"/>
<path d="M16.7485 18.1972C16.7486 18.1661 16.7549 18.1355 16.7669 18.1068C16.7789 18.0781 16.7964 18.0522 16.8184 18.0302C16.8406 18.0084 16.8667 17.9911 16.8954 17.9793C16.9241 17.9675 16.9549 17.9616 16.986 17.9617" stroke="#191919" stroke-linecap="round" stroke-linejoin="round"/>
<path d="M16.986 18.4327C16.9549 18.4328 16.9241 18.4268 16.8954 18.4151C16.8667 18.4033 16.8406 18.386 16.8184 18.3642C16.7964 18.3422 16.7789 18.3163 16.7669 18.2876C16.7549 18.2589 16.7486 18.2282 16.7485 18.1972" stroke="#191919" stroke-linecap="round" stroke-linejoin="round"/>
<path d="M17.2238 18.1972C17.2237 18.2282 17.2174 18.2589 17.2054 18.2876C17.1934 18.3163 17.1759 18.3422 17.1539 18.3642C17.1317 18.386 17.1056 18.4033 17.0769 18.4151C17.0482 18.4268 17.0174 18.4328 16.9863 18.4327" stroke="#191919" stroke-linecap="round" stroke-linejoin="round"/>
<path d="M20.3101 21.2629C20.3411 21.2628 20.3719 21.2688 20.4007 21.2806C20.4293 21.2924 20.4555 21.3097 20.4776 21.3315C20.4996 21.3535 20.5171 21.3795 20.5292 21.4081C20.5411 21.4367 20.5474 21.4674 20.5475 21.4985" stroke="#191919" stroke-linecap="round" stroke-linejoin="round"/>
<path d="M20.0728 21.4985C20.0728 21.4674 20.0791 21.4367 20.0911 21.4081C20.1031 21.3795 20.1206 21.3535 20.1427 21.3315C20.1648 21.3097 20.1909 21.2924 20.2196 21.2806C20.2484 21.2688 20.2791 21.2628 20.3102 21.2629" stroke="#191919" stroke-linecap="round" stroke-linejoin="round"/>
<path d="M20.3102 21.734C20.2791 21.7341 20.2484 21.7281 20.2196 21.7163C20.1909 21.7046 20.1648 21.6873 20.1427 21.6654C20.1206 21.6436 20.1031 21.6176 20.0911 21.5889C20.0791 21.5603 20.0728 21.5295 20.0728 21.4985" stroke="#191919" stroke-linecap="round" stroke-linejoin="round"/>
<path d="M20.5475 21.4985C20.5474 21.5295 20.5411 21.5603 20.5292 21.5889C20.5171 21.6176 20.4996 21.6436 20.4776 21.6654C20.4555 21.6873 20.4293 21.7046 20.4007 21.7163C20.3719 21.7281 20.3411 21.7341 20.3101 21.734" stroke="#191919" stroke-linecap="round" stroke-linejoin="round"/>
<path d="M1.31543 14.1884C1.37824 14.1884 1.43849 14.2132 1.48299 14.2576C1.52749 14.3018 1.55261 14.3621 1.55286 14.4248" stroke="#191919" stroke-linecap="round" stroke-linejoin="round"/>
<path d="M1.07812 14.4248C1.07839 14.3621 1.10351 14.3018 1.14801 14.2576C1.19251 14.2132 1.25275 14.1884 1.31556 14.1884" stroke="#191919" stroke-linecap="round" stroke-linejoin="round"/>
<path d="M1.31556 14.6604C1.2845 14.6605 1.25374 14.6545 1.225 14.6427C1.19626 14.6309 1.17011 14.6137 1.14806 14.5918C1.12601 14.57 1.1085 14.5439 1.0965 14.5153C1.0845 14.4867 1.07826 14.4559 1.07812 14.4249" stroke="#191919" stroke-linecap="round" stroke-linejoin="round"/>
<path d="M1.55286 14.4249C1.55274 14.4559 1.5465 14.4867 1.5345 14.5153C1.5225 14.5439 1.50498 14.57 1.48293 14.5918C1.46088 14.6137 1.43474 14.6309 1.406 14.6427C1.37726 14.6545 1.34649 14.6605 1.31543 14.6604" stroke="#191919" stroke-linecap="round" stroke-linejoin="round"/>
<path d="M20.3101 14.1884C20.3728 14.1884 20.4331 14.2132 20.4776 14.2576C20.5221 14.3018 20.5472 14.3621 20.5475 14.4248" stroke="#191919" stroke-linecap="round" stroke-linejoin="round"/>
<path d="M20.0728 14.4248C20.073 14.3621 20.0981 14.3018 20.1427 14.2576C20.1871 14.2132 20.2474 14.1884 20.3102 14.1884" stroke="#191919" stroke-linecap="round" stroke-linejoin="round"/>
<path d="M20.3102 14.6604C20.2791 14.6605 20.2484 14.6545 20.2196 14.6427C20.1909 14.6309 20.1648 14.6137 20.1427 14.5918C20.1206 14.57 20.1031 14.5439 20.0911 14.5153C20.0791 14.4867 20.0728 14.4559 20.0728 14.4249" stroke="#191919" stroke-linecap="round" stroke-linejoin="round"/>
<path d="M20.5475 14.4249C20.5474 14.4559 20.5411 14.4867 20.5292 14.5153C20.5171 14.5439 20.4996 14.57 20.4776 14.5918C20.4555 14.6137 20.4293 14.6309 20.4007 14.6427C20.3719 14.6545 20.3411 14.6605 20.3101 14.6604" stroke="#191919" stroke-linecap="round" stroke-linejoin="round"/>
<path d="M22.6846 17.9664C22.7156 17.9663 22.7464 17.9723 22.7752 17.9841C22.8039 17.9959 22.83 18.0131 22.8521 18.035C22.8741 18.0569 22.8916 18.0829 22.9037 18.1115C22.9156 18.1402 22.9219 18.1709 22.922 18.202" stroke="#191919" stroke-linecap="round" stroke-linejoin="round"/>
<path d="M22.4473 18.1972C22.4474 18.1661 22.4536 18.1355 22.4656 18.1068C22.4777 18.0781 22.4951 18.0522 22.5172 18.0302C22.5393 18.0084 22.5654 17.9911 22.5941 17.9793C22.6229 17.9675 22.6536 17.9616 22.6847 17.9617" stroke="#191919" stroke-linecap="round" stroke-linejoin="round"/>
<path d="M22.6847 18.4327C22.6536 18.4328 22.6229 18.4268 22.5941 18.4151C22.5654 18.4033 22.5393 18.386 22.5172 18.3642C22.4951 18.3422 22.4777 18.3163 22.4656 18.2876C22.4536 18.2589 22.4474 18.2282 22.4473 18.1972" stroke="#191919" stroke-linecap="round" stroke-linejoin="round"/>
<path d="M22.922 18.1972C22.9219 18.2282 22.9156 18.2589 22.9037 18.2876C22.8916 18.3163 22.8741 18.3422 22.8521 18.3642C22.83 18.386 22.8039 18.4033 22.7752 18.4151C22.7464 18.4268 22.7156 18.4328 22.6846 18.4327" stroke="#191919" stroke-linecap="round" stroke-linejoin="round"/>
</g>
<defs>
<clipPath id="clip0_5303_8093">
<rect width="24" height="24" fill="white"/>
</clipPath>
</defs>
</svg>
