<svg width="800" height="800" viewBox="0 0 128 128" xmlns="http://www.w3.org/2000/svg"><title/><circle cx="64" cy="90" r="9" style="fill: #545f6d"/><path d="M73 90a9 9 0 01-9.26 9A9.1 9.1.0 0155 90.26 9 9 0 0164 81v3.63A5.38 5.38.0 0069.38 90z" style="fill: #464f5d"/><path d="M64 27c14.91.0 27 8.09 27 23S78.91 81 64 81 37 64.91 37 50 49.09 27 64 27z" style="fill: #717c89"/><path d="M91 51c-.51 14.62-12.39 30-27 30-14.91.0-27-16.09-27-31 0-13.9 10.5-21.87 24-22.89h0A23.89 23.89.0 0084.89 51z" style="fill: #545f6d"/><path d="M86 67c-4.89 8-12.93 14-22 14-14.91.0-27-16.09-27-31A21.09 21.09.0 0149 30.3V40.53A26.47 26.47.0 0075.47 67z" style="fill: #464f5d"/><path d="M103 85a3 3 0 002.51-1.36l19.7-30.14a3 3 0 00-5-3.28L101.38 79H79q1.22-.86 2.35-1.85l20.94-10.47a3 3 0 001.6-2.1l9-45a3 3 0 00-5.88-1.18L98.35 62l-8.44 4.22A36 36 0 0094 50c0-12.43-7.67-21.74-20.51-24.89a3 3 0 10-1.43 5.83C82.19 33.42 88 40.37 88 50A31.38 31.38.0 0177.83 72.28a3 3 0 00-.47.41A20.56 20.56.0 0164 78a20.61 20.61.0 01-13.49-5.41 3 3 0 00-.32-.29A31.37 31.37.0 0140 50c0-14.76 12.93-20 24-20a3 3 0 003-3V6a3 3 0 00-6 0V24.1C44.73 25.21 34 35.33 34 50a36 36 0 004.09 16.19L29.65 62 20.94 18.41a3 3 0 10-5.88 1.18l9 45a3 3 0 001.6 2.1L46.6 77.16q1.14 1 2.35 1.84H26.62L7.81 50.21a3 3 0 00-5 3.28l19.7 30.14A3 3 0 0025 85H53.11q-.15.32-.28.66L35.92 91.08A3 3 0 0034.1 92.7L21.88 119.93a3 3 0 105.47 2.46L39 96.38l13.2-4.22c0 .19.07.38.12.56l-9.28 8A3 3 0 0042 103v20a3 3 0 006 0V104.37l7.22-6.23a12.07 12.07.0 002.39 2 10 10 0 00-.9 9 3 3 0 105.6-2.17 4 4 0 011.7-4.88 4 4 0 011.7 4.88 3 3 0 105.6 2.17 10 10 0 00-.9-9 12.06 12.06.0 002.39-2l7.2 6.23V123a3 3 0 006 0V103a3 3 0 00-1-2.27l-9.28-8c0-.19.08-.37.12-.56L89 96.38l11.67 26a3 3 0 105.47-2.46L93.9 92.7a3 3 0 00-1.82-1.63L75.17 85.66q-.13-.33-.28-.66zM70 90a6 6 0 01-5.53 6h-.15H64h-.32-.15A6 6 0 1170 90z" style="fill: #31352e"/><path d="M64 67a3 3 0 01-3-3V41a3 3 0 016 0V64a3 3 0 01-3 3z" style="fill: #31352e"/><path d="M71 60H57a3 3 0 010-6H71a3 3 0 010 6z" style="fill: #31352e"/><g style="opacity: 0.5"><path d="M74.14 36.33c.47 2.2 2.17 4.21 5.6 4.6a1 1 0 001.12-1.26c-.47-2.2-2.17-4.21-5.6-4.6a1 1 0 00-1.12 1.26z" style="fill: #fff"/></g></svg>