<svg width="800" height="800" viewBox="0 0 128 128" xmlns="http://www.w3.org/2000/svg"><title/><circle cx="78" cy="14" r="7" style="fill: #57b260"/><path d="M77.16 21a6.85 6.85.0 01-5.25-3.52A2.85 2.85.0 0176 13.78 7 7 0 0080 15h.06a2.71 2.71.0 011.61 5A7 7 0 0177.16 21z" style="fill: #3d9940"/><path d="M32 41.5A8.5 8.5.0 1149 42H32z" style="fill: #57b260"/><path d="M45.5 42H32v-.5a8.51 8.51.0 015.32-7.88.14.14.0 000 .06A5.11 5.11.0 0037 35.5c0 3.59 3.81 6.5 8.5 6.5z" style="fill: #3d9940"/><path d="M49 42v0H48a8.21 8.21.0 001 0z" style="fill: #3d9940"/><path d="M92 112.1a42.09 42.09.0 006.86-5.58L1e2 107l5 16H99l-6-10.67z" style="fill: #596870"/><path d="M30.16 106.52a41.51 41.51.0 006 5l-.19.79L30 123H24l5-16z" style="fill: #596870"/><path d="M102.65 63.91A18.81 18.81.0 0199 52h3a5 5 0 000-10c-82.1.0-77.42-.64-79.54 1.46A5 5 0 0026 52h4a18.81 18.81.0 01-3.61 11.91A32.34 32.34.0 0020 83c0 20.46 19.93 37 44.5 37S109 103.49 109 83A32.34 32.34.0 00102.65 63.91z" style="fill: #979ea0"/><path d="M108.85 86C107 105.09 87.76 120 64.5 120 39.93 120 20 103.43 20 83a32.34 32.34.0 016.35-19.06A18.83 18.83.0 0030 52H26a5 5 0 01-3.54-8.54c2-2-.24-1.46 50.53-1.46a4 4 0 014 4V61l6 17.46A12 12 0 0094.12 86z" style="fill: #747f84"/><path d="M73 42H50.52a11.51 11.51.0 0121.55-8A8.5 8.5.0 0186 40.5v40a4.5 4.5.0 01-9 0V46a4 4 0 00-4-4z" style="fill: #57b260"/><ellipse cx="61.5" cy="32.5" rx="1.5" ry="2.5" style="fill: #a3d6a5" transform="translate(10.47 79.78) rotate(-70.67)"/><ellipse cx="77.76" cy="36.61" rx=".9" ry="1.51" style="fill: #a3d6a5" transform="translate(17.48 97.87) rotate(-70.67)"/><ellipse cx="40.76" cy="37.61" rx=".9" ry="1.51" style="fill: #a3d6a5" transform="translate(-8.22 63.62) rotate(-70.67)"/><ellipse cx="78.76" cy="11.61" rx=".9" ry="1.51" style="fill: #a3d6a5" transform="translate(41.74 82.08) rotate(-70.67)"/><path d="M67 38H65.5a11.5 11.5.0 01-11.11-8.53A11.54 11.54.0 0050.52 42H73a4 4 0 014 4V85h5V46a8 8 0 00-8-8z" style="fill: #3d9940"/><path d="M82.7 116.76A52 52 0 0164.5 120C39.93 120 20 103.43 20 83c0-.33.0-.65.0-1a32.4 32.4.0 016.33-18.09A18.83 18.83.0 0030 52H26a5 5 0 01-5-4.9A4.35 4.35.0 0121.09 46c.82-4.3 4.6-4 7.16-4 5.58-.16 17.55.0 44.74.0a4 4 0 014 4V57H66.58A12 12 0 0054.81 71.31l5.29 27A12 12 0 0071.88 108H81C86 108 87.39 115 82.7 116.76z" style="fill: #596870"/><path d="M54 47a2 2 0 01-2-2V42H26a5 5 0 000 10H77V47z" style="fill: #505d68"/><path d="M107 47a5 5 0 01-5 5H86V42h16a5 5 0 015 5z" style="fill: #505d68"/><path d="M102 42H86V57H99.52A23.18 23.18.0 0199 52h3a5 5 0 000-10z" style="fill: #505d68"/><path d="M107 47a5 5 0 00-5-5H86V52h16a5 5 0 005-5z" style="fill: #747f84"/><path d="M107 47H86V42h16a5 5 0 015 5z" style="fill: #979ea0"/><path d="M52 52H26a5 5 0 01-5-5H47a5 5 0 015 5z" style="fill: #404b4f"/><path d="M86 47h7a2 2 0 012 2v3a0 0 0 010 0H86a0 0 0 010 0V47a0 0 0 010 0z" style="fill: #505d68"/><g><path d="M103 106.42c11.36-13.19 12-30.67 2.12-44.26a15.86 15.86.0 01-2.9-7.16A8 8 0 00102 39H88.89a11.5 11.5.0 00-15.74-9.14 14.51 14.51.0 00-22.45-1c-2.64 3 1.82 7 4.47 4a8.5 8.5.0 0114.15 2.31A3 3 0 0074 36.27 5.43 5.43.0 0177.5 35 5.51 5.51.0 0183 40.5v40a1.5 1.5.0 01-3 0V46a7 7 0 00-7-7H51.72a11.49 11.49.0 00-22.44.0H26a8 8 0 00-8 8c0 3.81 2.72 8 8.81 8a15.86 15.86.0 01-2.89 7.15C14.05 75.8 14.74 93.3 26 106.45l-4.89 15.66A3 3 0 0024 126c9.33.0 6.77 1.74 13.45-10.12 16 9.37 37.59 9.64 54.09.0l4.85 8.62C97.48 126.42 99 126 105 126a3 3 0 002.86-3.89zM102 49H89V45h13a2 2 0 010 4zM40.5 36a5.47 5.47.0 014.9 3H35.61a5.5 5.5.0 014.89-3zM28.25 120h-.17l2.75-8.8q.79.67 1.63 1.31zm.54-54.34a21.74 21.74.0 004.09-10.81A3 3 0 0032 49H26a2 2 0 010-4c49.87.0 48-.46 48 1v3H42c-4 0-4 6 0 6H74V80.5a7.51 7.51.0 0012.79 5.32A7.41 7.41.0 0089 80.5V55h7.15a21.74 21.74.0 004.07 10.67C116.37 88 96.93 117 64.5 117c-32.06.0-52.03-28.77-35.72-51.34zm72 54.34-4.22-7.5q.83-.64 1.63-1.32l2.76 8.82z" style="fill: #31352e"/><path d="M61 61v5c0 4 6 4 6 0V61c0-4-6-4-6 0z" style="fill: #31352e"/><path d="M78 24A10 10 0 1068 14 10 10 0 0078 24zm0-14a4 4 0 11-4 4 4 4 0 014-4z" style="fill: #31352e"/><path d="M45.5 23A4.5 4.5.0 1041 18.5 4.5 4.5.0 0045.5 23zm0-6A1.5 1.5.0 1144 18.5 1.5 1.5.0 0145.5 17z" style="fill: #31352e"/></g></svg>