<svg width="800" height="800" viewBox="0 0 128 128" xmlns="http://www.w3.org/2000/svg"><title/><path d="M64.24 106.09c37.79.0 57.91-30.47 57.91-30.47C106.48 42.67 79.9 19.43 64.24 31.93 48.59 19.43 22 42.67 6.33 75.61c0 0 20.13 30.48 57.91 30.48z" style="fill: #ef4b4b"/><path d="M64.24 106.09c37.79.0 57.91-30.47 57.91-30.47C106.48 42.67 79.9 19.43 64.24 31.93 48.59 19.43 22 42.67 6.33 75.61c0 0 20.13 30.48 57.91 30.48z" style="fill: #e23d3d"/><path d="M64.24 106.09c37.79.0 57.91-30.47 57.91-30.47C106.48 42.67 79.9 19.43 64.24 31.93 48.59 19.43 22 42.67 6.33 75.61c0 0 20.13 30.48 57.91 30.48z" style="fill: #e23d3d"/><path d="M80 81.77a3.84 3.84.0 012.37 6.87A34 34 0 0161 96.47 32.2 32.2.0 0147.07 93.3c-5.8-2.75-3.7-11.53 2.72-11.53z" style="fill: #ef4b4b"/><path d="M79.29 83.6a1.62 1.62.0 01.91 3 11.54 11.54.0 01-6.61 2.13 11 11 0 01-3-.42 2.39 2.39.0 01.73-4.68z" style="fill: #fbb"/><path d="M92 67.27v7.62h-.36c-22.73 1.43-32.88 1.45-55.59-.21h0V67.27C44.1 61.35 52 54 64 54s20 7.42 28 13.27z" style="fill: #fff"/><path d="M84.71 61.85h0A3.09 3.09.0 0180 64.5a30.6 30.6.0 00-16-4.75c-9.72.0-16.76 4.84-23.4 9.82a2.87 2.87.0 01-4.6-2.3h0C44.1 61.35 52 54 64 54c8.45.0 14.86 3.65 20.71 7.85z" style="fill: #d2d2d1"/><path d="M122.15 75.61a.11.11.0 01-.07.1C111 81 100.79 75.3 100.79 75.3L89.37 57.24A28.43 28.43.0 0065.34 44H38.87a4.44 4.44.0 01-2.65-8c10.25-7.8 20.43-10.16 28-4.09 15.68-12.48 42.26 10.76 57.93 43.7z" style="fill: #ef4b4b"/><path d="M41.47 40.23a3 3 0 01-1.66-5.5C45.08 31.26 50 29.5 54.42 29.5a3 3 0 110 6c-3.19.0-7.09 1.46-11.29 4.24A3 3 0 0141.47 40.23z" style="fill: #fbb"/><path d="M36 67.27V88c-6.15-3.81-8.67-11.39-10.12-14.75A46.59 46.59.0 0036 67.27z" style="fill: #fff"/><path d="M102.13 73.25C100.67 76.52 98.17 84.19 92 88V67.27a46.26 46.26.0 0010.13 5.98z" style="fill: #fff"/><path d="M100.75 52.71a3 3 0 01-2.27-1c-7.46-8.6-15-14.19-21.22-15.75a3 3 0 111.46-5.82c7.41 1.85 16 8.12 24.29 17.64a3 3 0 01-2.27 5z" style="fill: #fbb"/><path d="M52 78.43a3 3 0 01-3-3V66a3 3 0 016 0v9.43a3 3 0 01-3 3z" style="fill: #31352e"/><path d="M64 79a3 3 0 01-3-3V64a3 3 0 016 0V76a3 3 0 01-3 3z" style="fill: #31352e"/><path d="M76 78.47a3 3 0 01-3-3V66a3 3 0 016 0v9.47a3 3 0 01-3 3z" style="fill: #31352e"/><g><path d="M124.86 74.32C112.63 48.6 94.72 29.68 79.23 26.11a19.45 19.45.0 00-15 2.16 19.45 19.45.0 00-15-2.16C33.77 29.68 15.86 48.6 3.63 74.32 1.92 77.9 7.34 80.49 9 76.9 20.35 53.14 37 35.08 50.6 32c4.56-1 8.52-.27 11.77 2.32a3 3 0 003.74.0c3.25-2.59 7.21-3.37 11.77-2.32 13.25 3.05 29.5 20.38 40.79 43.35-4.36 5.73-23.16 27.78-54.43 27.78-25.37.0-42.46-14.4-50.4-23-2.69-2.91-7.1 1.16-4.41 4.07 8.6 9.31 27.15 24.92 54.8 24.92 39 0 59.55-30.52 60.41-31.82A3 3 0 00124.86 74.32z" style="fill: #31352e"/><path d="M93.58 90.55c5.66-3.49 8.5-9.47 10.23-13.57A26 26 0 00111 78a3 3 0 000-6c-7.83.0-13.82-4.54-20.47-9.57C50.32 32 39.39 72 17 72a3 3 0 000 6 26 26 0 007.18-1c2.3 5.45 8.85 16.1 13.28 13.63A3 3 0 0039 88V77.91C44.6 78.29 56.36 79 64.25 79 72 79 83.66 78.38 89 78.07V88a3 3 0 004.58 2.55zM95 80.9V72.95c1 .64 2.11 1.25 3.23 1.82A34.83 34.83.0 0195 80.9zM29.76 74.78c1.12-.57 2.2-1.18 3.24-1.83v8a34.3 34.3.0 01-3.24-6.17zM64.25 73c-7.81.0-19.89-.74-25.25-1.1V68.77C47.15 62.68 53.91 57 64 57c10.25.0 17.21 6 25 11.77v3.29C83.88 72.36 71.91 73 64.25 73z" style="fill: #31352e"/></g></svg>