<svg width="800" height="800" viewBox="0 0 128 128" xmlns="http://www.w3.org/2000/svg"><title/><polygon points="27 64 27 46 13 42 13 64 27 64" style="fill: #d6eef2"/><polygon points="117 64 117 46 103 42 103 64 117 64" style="fill: #d6eef2"/><polygon points="72 49 72 31 58 27 58 49 72 49" style="fill: #d6eef2"/><polygon points="123 64 97 64 97 72 101 72 101 84 119 84 119 72 123 72 123 64" style="fill: #707782"/><polygon points="33 64 7 64 7 72 11 72 11 84 29 84 29 72 33 72 33 64" style="fill: #707782"/><path d="M74 73H56a6 6 0 00-5.19 3H69a3 3 0 013 3v4a3 3 0 01-3 3H50.81A6 6 0 0056 89H74a6 6 0 006-6V79a6 6 0 00-6-6z" style="fill: #eff8ff"/><path d="M68 79v4a3 3 0 01-3 3h4a3 3 0 003-3V79a3 3 0 00-3-3H65a3 3 0 013 3z" style="fill: #b0b8c0"/><path d="M50.8 86v0H51z" style="fill: #707782"/><path d="M51 76h-.19v0z" style="fill: #707782"/><path d="M50 79v4a6 6 0 00.8 3h.2H65a3 3 0 003-3V79a3 3 0 00-3-3H51h-.2A6 6 0 0050 79z" style="fill: #707782"/><path d="M86 121v4H44v-4a6 6 0 016-6H80a6 6 0 016 6z" style="fill: #eff8ff"/><path d="M72 121v4H44v-4a6 6 0 016-6H66a6 6 0 016 6z" style="fill: #b0b8c0"/><path d="M68 121v4H44v-4a6 6 0 016-6H62a6 6 0 016 6z" style="fill: #707782"/><circle cx="65" cy="102" r="13" style="fill: #707782"/><path d="M78 102A13 13 0 1165 89a13 13 0 0113 13z" style="fill: #eff8ff"/><path d="M60 112a10 10 0 1110-10A10 10 0 0160 112z" style="fill: #b0b8c0"/><path d="M72 102a13 13 0 01-10 12.65 13 13 0 010-25.3A13 13 0 0172 102z" style="fill: #b0b8c0"/><path d="M69 102a13 13 0 01-8.5 12.2 13 13 0 010-24.4A13 13 0 0169 102z" style="fill: #707782"/><rect height="8" style="fill: #b0b8c0" width="26" x="7" y="64"/><path d="M20 37l1.91-1.49S30 29.2 20 19c-10 10.2-1.91 16.51-1.91 16.51l1.6 1.25" style="fill: #ffbb7d"/><path d="M110 37l1.91-1.49S120 29.2 110 19c-10 10.2-1.91 16.51-1.91 16.51l1.6 1.25" style="fill: #ffbb7d"/><path d="M65 22l1.91-1.49S75 14.2 65 4c-10 10.2-1.91 16.51-1.91 16.51l1.6 1.25" style="fill: #ffbb7d"/><polygon points="78 49 52 49 52 57 56 57 56 73 74 73 74 57 78 57 78 49" style="fill: #707782"/><path d="M27 64v6a2 2 0 01-2 2H23V84h6V72h4V64z" style="fill: #eff8ff"/><rect height="8" style="fill: #b0b8c0" width="26" x="52" y="49"/><path d="M72 49v6a2 2 0 01-2 2H68V73h6V57h4V49z" style="fill: #eff8ff"/><rect height="8" style="fill: #b0b8c0" width="26" x="97" y="64"/><path d="M117 64v6a2 2 0 01-2 2h-2V84h6V72h4V64z" style="fill: #eff8ff"/><polygon points="66 29.29 66 49 72 49 72 31 66 29.29" style="fill: #eff8ff"/><polygon points="111 44.29 111 64 117 64 117 46 111 44.29" style="fill: #eff8ff"/><polygon points="21 44.29 21 64 27 64 27 46 21 44.29" style="fill: #eff8ff"/><g><path d="M18 39.24c2.16 1.92 4.17-.14 5.74-1.36 4.47-3.49 7.34-11.85-1.61-21a3.09 3.09.0 00-4.28.0c-4.15 4.23-6.11 8.51-5.83 12.72s2.53 7.27 5.98 9.64zm2-15.61c3.08 4.34 2.18 7.86.0 9.57-2.13-1.67-3.13-5.2.0-9.57z" style="fill: #31352e"/><path d="M107.85 39.13c2.49 1.91 3.85.34 5.9-1.25A11.89 11.89.0 00118 29.62c.28-4.21-1.68-8.49-5.83-12.72a3.09 3.09.0 00-4.28.0c-4.15 4.23-6.11 8.51-5.83 12.72C102.41 35.33 106.38 38 107.85 39.13zM110 23.63a9 9 0 012 5.52 5.89 5.89.0 01-2 4c-2.13-1.62-3.13-5.15.0-9.52z" style="fill: #31352e"/><path d="M63 24.24c2.16 1.92 4.17-.14 5.74-1.36A11.89 11.89.0 0073 14.62c.28-4.21-1.68-8.49-5.83-12.72a3.09 3.09.0 00-4.28.0C58.71 6.13 56.75 10.41 57 14.62s2.59 7.28 6 9.62zM65 8.63c2.31 3.26 3 7.23.0 9.57a5.93 5.93.0 01-2-4 8.93 8.93.0 012-5.57z" style="fill: #31352e"/><path d="M123 61h-3V46a3 3 0 00-2.18-2.88c-15-4.28-15-4.71-16.63-3.51S1e2 40.61 1e2 61H97a3 3 0 00-3 3v8a3 3 0 003 3h1v9a3 3 0 003 3h6v2.5a7.5 7.5.0 01-15 0V86a8 8 0 00-8-8H82.94A9 9 0 0077 70.53V59.82A3 3 0 0081 57V49a3 3 0 00-3-3H75V31a3 3 0 00-2.18-2.88c-15-4.28-15-4.71-16.63-3.51S55 25.61 55 46H52a3 3 0 00-3 3v8a3 3 0 003 3h1V70.53A9 9 0 0047.06 78H46a8 8 0 00-8 8v3.5a7.5 7.5.0 01-15 0V87h6a3 3 0 003-3V74.82A3 3 0 0036 72V64a3 3 0 00-3-3H30V46a3 3 0 00-2.18-2.88C13 38.88 12.8 38.39 11.19 39.6S10 40.61 10 61H7a3 3 0 00-3 3v8a3 3 0 003 3H8v9a3 3 0 003 3h6v2.5a13.5 13.5.0 0027 0V86a2 2 0 012-2h1.06A9 9 0 0053 91.47 15.91 15.91.0 0052.53 112H50a9 9 0 00-9 9v4a3 3 0 003 3H86a3 3 0 003-3v-4a9 9 0 00-9-9H77.47A15.92 15.92.0 0077 91.47 9 9 0 0082.94 84C86.6 84 86 85.42 86 89.5a13.5 13.5.0 0027 0V87h6a3 3 0 003-3V74.82A3 3 0 00126 72V64a3 3 0 00-3-3zM16 46l8 2.29V61H16zM14 75h7c4 0 4-6 0-6H10V67H30v2.18A3 3 0 0026 72v9H14zM61 31l8 2.29V46H61zm5 29c4 0 4-6 0-6H55V52H75v2.18A3 3 0 0071 57V70H59V60zM53 79a3 3 0 013-3H74a3 3 0 013 3v4a3 3 0 01-3 3H56a3 3 0 01-3-3zm30 42v1H47v-1a3 3 0 013-3H80a3 3 0 013 3zM55 102a10 10 0 1110 10A10 10 0 0155 102zm51-56 8 2.29V61h-8zm10 26v9H104V75h7c4 0 4-6 0-6H1e2V67h20v2.18A3 3 0 00116 72z" style="fill: #31352e"/></g></svg>