<svg width="800" height="800" viewBox="0 0 128 128" xmlns="http://www.w3.org/2000/svg"><title/><path d="M118 77.71V95.6a11.62 11.62.0 01-3.85 8.64 10.7 10.7.0 01-6.42 2.74l-4.22-.13L99 106.72A12 12 0 0187 118h-.38a12 12 0 01-11-8.2L75 110a11 11 0 01-22 0l-.62-.21a12 12 0 01-11 8.2H41a12 12 0 01-12-12v-1H27.28a11 11 0 01-6.34 2A11.26 11.26.0 0110 95.6V77.71A43.7 43.7.0 0131.73 39.92 31.33 31.33.0 0045.19 23.24c6.4-17.7 31.25-17.6 37.62.0A31.33 31.33.0 0096.27 39.92 43.7 43.7.0 01118 77.71z" style="fill: #e4e6ea"/><path d="M86.37 119.74A3 3 0 0185 114.06a9.07 9.07.0 001.5-.94A9 9 0 0090 106V95a3 3 0 016 0v11a15 15 0 01-8.29 13.42A3 3 0 0186.37 119.74z" style="fill: #fff"/><path d="M116 77V97a15 15 0 01-1.85 7.24 10.7 10.7.0 01-6.42 2.74l-4.22-.13a2.93 2.93.0 011.51-1.79 9.74 9.74.0 001.5-1A9 9 0 00110 97V77a3 3 0 016 0z" style="fill: #fff"/><path d="M62.37 123.74A3 3 0 0161 118.06a9.07 9.07.0 001.5-.94A9 9 0 0066 110a3 3 0 016 0 15 15 0 01-8.29 13.42A3 3 0 0162.37 123.74z" style="fill: #fff"/><path d="M97.78 37.33A28.49 28.49.0 0185.63 22.22C78.3 2 49.72 1.91 42.37 22.22A28.49 28.49.0 0130.22 37.33 46.91 46.91.0 007 77.71V95.6c0 10.21 10.07 17.15 19.31 13.4a15 15 0 0025.33 7.61 14 14 0 0024.72.0C85.79 126 102 119.34 102 106V95c0-4-6-4-6 0v11c0 10.2-14.34 12.51-17.53 2.85C77.33 105.41 72 106.7 72 110a8 8 0 01-16 0c0-3.3-5.33-4.58-6.47-1.15a9 9 0 01-14.05 4.26C31.17 109.76 32 106.22 32 95c0-4-6-4-6 0v7.33c-1 .49-2.18 1.67-5 1.67a8.22 8.22.0 01-8-8.4V77.71a40.89 40.89.0 0120.24-35.2A34.49 34.49.0 0048 24.26c5.44-15 26.56-15 32 0A34.49 34.49.0 0094.76 42.51 40.89 40.89.0 01115 77.71V95.6a8.25 8.25.0 01-7.47 8.38c-3.94.27-3.58 6.23.41 6A14.27 14.27.0 00121 95.6V77.71A46.91 46.91.0 0097.78 37.33z" style="fill: #31352e"/><ellipse cx="64" cy="41" rx="4" ry="6" style="fill: #31352e"/><path d="M62 27.5A5.5 5.5.0 1156.5 22z" style="fill: #31352e"/><path d="M71.5 22A5.5 5.5.0 1166 27.5z" style="fill: #31352e"/></svg>