<svg width="800" height="800" viewBox="0 0 128 128" xmlns="http://www.w3.org/2000/svg"><title/><path d="M18 121a27.91 27.91.0 018-19.61h.1c1.69 8.48 3 15 3.53 17.75L30 124H18z" style="fill: #505d68"/><path d="M118 121.07a28.09 28.09.0 00-18.75-26.5 5.74 5.74.0 01-3.62-3.92C94.9 88.22 96 87.35 96 80a63.62 63.62.0 00-1.19-12.65.09.09.0 010-.05C88.34 43.25 68 39 68 39 57.88 41.11 40 52.9 40 80c0 7.62 1.19 8.42.27 11l-.08.12L40 91l-7.48 1.49L38.17 121v3H118zM87.14 60l-.1.12C90 68.74 85.94 76.83 78.83 81v7.86H56.33V80.45C49.69 76.16 46.1 68.28 49 59.93h.06C60.45 51.31 76.77 52.12 87.14 60z" style="fill: #505d68"/><path d="M99.25 94.56a5.73 5.73.0 01-3.62-3.91h0c-19.93 11.57-41.79 9.27-55.43.47L40 91l-7.48 1.49 5.65 28.44L38 124h80v-3A28 28 0 0099.25 94.56z" style="fill: #505d68"/><path d="M99.25 94.56a5.73 5.73.0 01-3.62-3.91h0C76.27 101.88 54 100.31 40 91l-7.48 1.49 3.84 19.35A14.65 14.65.0 0144 113.31c8.17 4.18 19.67 5.8 28.65 5A5 5 0 0178 124h40v-3A28 28 0 0099.25 94.56z" style="fill: #707c85"/><path d="M118 121A28 28 0 0099.25 94.56a5.73 5.73.0 01-3.62-3.91h0C76.27 101.88 54 100.31 40 91l-7.48 1.49 1.53 7.7a15.07 15.07.0 0110.17 1.26c16.4 8.23 31.68 5.2 43.49.83a9.15 9.15.0 0112.34 8.61v5.12a3 3 0 01-3 3H94a5 5 0 00-5 5h29z" style="fill: #909ba3"/><path d="M95.62 90.65c-19.93 11.57-41.79 9.27-55.43.47l.08-.12c.92-2.6-.27-3.4-.27-11a66.49 66.49.0 011-11.53h.12a25.63 25.63.0 018-10.2c-3 8.59.58 16.71 7.25 21.13V88h22.5V80C85.94 75.72 90 67.44 87 58.64l.12-.15a25.54 25.54.0 018 10.6A66.42 66.42.0 0196 80c0 7.36-1.1 8.23-.37 10.65z" style="fill: #47535b"/><path d="M49.1 58.25A25.64 25.64.0 0041 68.48h0c.07-.4.15-.79.22-1.18a.29.29.0 000-.09C47.65 43.24 68 39 68 39s20.34 4.24 26.8 28.2a.09.09.0 000 0c.1.49.19 1 .28 1.5C92 61.15 84.84 55.24 76 53c-.36-.1-.72-.19-1.09-.26q-1-.24-2.1-.39A32.73 32.73.0 0068 52a32.27 32.27.0 00-6.73.7A30 30 0 0049.1 58.25z" style="fill: #505d68"/><path d="M94.81 67.25a.09.09.0 010 0C90.3 50.44 77.45 41 68 39c.43.14 3.45 1.26 5.36 5.41a1.75 1.75.0 01-1.68 2.45 33 33 0 00-4.64.18c-12.24 1.34-21.93 9.25-25 19.24 11.15-20.18 44.33-18.6 53 2.45C95 68.24 94.91 67.74 94.81 67.25z" style="fill: #909ba3"/><path d="M19.09 24.94 32.52 92.49l5.65 28.44L38 124H30l-.35-4.88c-.54-2.7-1.84-9.27-3.53-17.75-5-25.08-13.3-66.94-15-75.37L19 24.45z" style="fill: #a96e5c"/><path d="M27.76 109.6A27.81 27.81.0 0025.33 121v3H18v-3a27.91 27.91.0 018-19.61h.1C26.72 104.38 27.27 107.16 27.76 109.6z" style="fill: #47535b"/><path d="M81 65.5A5.5 5.5.0 0075.5 60L70 65.5a5.5 5.5.0 0011 0zM65.88 76.12a3 3 0 004.24-4.24H65.88a3 3 0 000 4.24zM60.5 60A5.5 5.5.0 1066 65.5zM56.33 79.43C49.66 75 46.06 66.89 49.08 58.3a30.13 30.13.0 0112.19-5.6A32.27 32.27.0 0168 52a32.73 32.73.0 014.79.35q1.06.16 2.1.39c.36.08.73.16 1.09.26a29.78 29.78.0 0111.18 5.49l-.12.15C90 67.44 85.94 75.72 78.83 80v8H56.33z" style="fill: #fff"/><path d="M65.88 76.12a3 3 0 010-4.24H68V59.83a6.86 6.86.0 00-8.62-6.66 29.82 29.82.0 00-10.3 5.13c-3 8.59.58 16.71 7.25 21.13V88H68V77A3 3 0 0165.88 76.12zM60.5 71a5.5 5.5.0 010-11L66 65.5A5.5 5.5.0 0160.5 71z" style="fill: #e5e5e5"/><path d="M87.16 58.49A29.78 29.78.0 0076 53c8.86 2.24 16 8.15 19.11 15.75h0c0 .11.0.22.0.33A25.54 25.54.0 0087.16 58.49z" style="fill: #fff"/><path d="M16.85 13.66l10.79-2.14c70.57-15 94.67 37 94.67 37-7.72-4.29-25.68-21.29-53.7-23.39-11.6-.87-24.94.81-40 7L26.8 22.9 19 24.45 11.14 26l-2 .39L7 15.6l2-.39z" style="fill: #d7dce0"/><path d="M115 42.31l-.32-.22C100.8 32.37 71.92 12.14 28.88 30.3l-2.33-5.53c46.09-19.45 76.81 2.06 91.57 12.4l.32.22z" style="fill: #fff"/><path d="M61.27 52.7a30.13 30.13.0 00-12.19 5.6 30 30 0 0112.19-5.6z" style="fill: #fff"/><path d="M41 68.48a25.64 25.64.0 018.1-10.23 25.63 25.63.0 00-8 10.2z" style="fill: #fff"/><path d="M95.32 69.31h-.08a2.44 2.44.0 00-.1-.24c0-.11.0-.22.0-.33h0c-.09-.51-.18-1-.28-1.5C95 67.92 95.16 68.61 95.32 69.31z" style="fill: #fff"/><path d="M75.5 60A5.5 5.5.0 1170 65.5z" style="fill: #31352e"/><path d="M76 53c-.36-.1-.73-.18-1.09-.26C75.26 52.81 75.62 52.9 76 53z" style="fill: #fff"/><path d="M74.89 52.74q-1-.23-2.1-.39Q73.85 52.5 74.89 52.74z" style="fill: #fff"/><path d="M70.12 71.88a3 3 0 11-4.24.0z" style="fill: #31352e"/><path d="M60.5 60 66 65.5A5.5 5.5.0 1160.5 60z" style="fill: #31352e"/><path d="M41.18 67.29c-.07.39-.15.78-.22 1.18h-.08C41 68.06 41.07 67.67 41.18 67.29z" style="fill: #fff"/><path d="M15.88 8.75l1 4.91L9 15.21v-.16L8 10.3c-1-5.21 6.85-6.78 7.88-1.55z" style="fill: #a96e5c"/><g><path d="M125 47.28c-.26-.56-6.52-13.82-21.79-25.27C89.19 11.49 64.57.62 27.06 8.58l-7.85 1.55-.39-2C17-.95 3.29 1.75 5.09 10.89L5.51 13A3 3 0 004.1 16.18L6.24 27a3 3 0 002.51 2.37l14.12 71A30.8 30.8.0 0015 121c0 4 6 4 6 0a24.85 24.85.0 013.45-12.68l2.64 13.26c.78 3.95 6.66 2.71 5.88-1.17L14.67 28.36l2-.39 18.6 93.55c.79 3.95 6.66 2.71 5.88-1.17L22.52 26.81l1.92-.38 1.25 6.31a3 3 0 004.09 2.19c49.67-20.46 80.28 10.22 91.08 16.23A3 3 0 00125 47.28zM11.77 8.55c1.21-.24 1.14.6 1.56 2.74l-2 .39C10.94 9.54 10.55 8.79 11.77 8.55zm19.11 19.5-1.13-5.73A3 3 0 0026.21 20l-14.67 2.9-1-4.9C34.06 13.31 78.49.24 110.87 37.24 86.26 21.34 60.4 17 30.87 28.05z" style="fill: #31352e"/><path d="M100.25 91.73a3 3 0 01-1.84-3.29A60 60 0 0099 80c0-36.64-27.45-47.82-31.63-46.93C67.07 33.13 37 40 37 80a60 60 0 00.59 8.44 3.33 3.33.0 010 .76 3 3 0 00.7 4.28c6.47 4.4 18 7.37 20.49 7.37a3 3 0 00.48-6 51.08 51.08.0 01-15.69-5.26c.19-2.52-1.6-9 .24-20.1A21 21 0 0145.17 67a21.16 21.16.0 008.17 14v7a3 3 0 006 0c0-8.94.4-9.92-1.34-11.07-5.6-3.72-8.4-10.38-6.28-16.87a28.76 28.76.0 0132.58.0c2.16 6.62-.73 13.59-7 17.32-1.9 1.13-1.46 2.36-1.46 10.62.0 4 6 4 6 0V81.58a21.07 21.07.0 009-14.58 21.09 21.09.0 011.32 2.56 60.7 60.7.0 01.31 18A9.29 9.29.0 0092.38 89 52.32 52.32.0 0168 95.55c-1.53.0-3 1.08-3 3.45v10a3 3 0 006 0v-7.57a58.53 58.53.0 0023.44-6.72 8.63 8.63.0 003.82 2.69A25 25 0 01115 121c0 4 6 4 6 0A31.05 31.05.0 00100.25 91.73zm-51.36-37A33.24 33.24.0 0168 39.1 33.88 33.88.0 0187 54.65 34.61 34.61.0 0048.88 54.77z" style="fill: #31352e"/><path d="M67 88V85c0-4-6-4-6 0v3c0 4 6 4 6 0z" style="fill: #31352e"/><path d="M74 88V85a3 3 0 00-6 0v3a3 3 0 006 0z" style="fill: #31352e"/><path d="M65 117v4c0 4 6 4 6 0v-4c0-4-6-4-6 0z" style="fill: #31352e"/></g></svg>