<svg width="800" height="800" viewBox="0 0 128 128" xmlns="http://www.w3.org/2000/svg"><title/><path d="M74 122H52V105A11 11 0 0162.26 94c1-.33 5.87.19 8.89 3.59h0A10.86 10.86.0 0174 104.27C74 105 74 103.53 74 122z" style="fill: #914919"/><path d="M74 122H68v-2.19L67.29 122h-2L68 113.6v-5.74c0-.13.0-.26.0-.39L63.29 122h-6l6.85-21.25a8.49 8.49.0 00-12.07 3A11 11 0 0162.26 94c1-.33 5.87.19 8.89 3.59h0a10.9 10.9.0 012.51 4.63v0C74.15 104.47 74 103 74 122z" style="fill: #843f10"/><path d="M106 80v6H98V80H88v6H80V76H46V86H38V80H28v6H20V80H10v42H52V105a11 11 0 0122 0v17h42V80z" style="fill: #444"/><path d="M106 80v6H98V80H88v6H80V76H46V86H38V80H28v6H20V80H10V93H21a14 14 0 0114 14l.05 15H52V105a11 11 0 0122 0v17h42V80z" style="fill: #5c5c5c"/><path d="M13 80V61H33V80H28v6H20V80z" style="fill: #757575"/><path d="M18 80H13V67h3a2 2 0 012 2z" style="fill: #5c5c5c"/><polygon points="33 61 13 61 9 61 23 40 32.77 54.65 37 61 33 61" style="fill: #8d8d8d"/><path d="M33 77V61h4l-4.23-6.35L33 54.5V33H55V76H46V86H38V80H33z" style="fill: #757575"/><path d="M33 39V54.5l-.23.15L37 61H33V80h5v6h1V42a3 3 0 00-3-3z" style="fill: #5c5c5c"/><path d="M87 26h14V48H87z" style="fill: #757575"/><path d="M92 32V48H87V30h3a2 2 0 012 2z" style="fill: #5c5c5c"/><polygon points="75 21 75 48 65 48 65 21 65 20.07 75 20.02 75 21" style="fill: #5c5c5c"/><path d="M65 20v4h3a2 2 0 012 2V48h5V20z" style="fill: #757575"/><g><polygon points="65 45.22 65 48 70 48 70 37.26 65 45.22" style="fill: #3d3d3d"/><path d="M70 37.26V48h5V38.7a2.71 2.71.0 00-5-1.44z" style="fill: #4c4c4c"/></g><path d="M94 8l11 18H83z" style="fill: #8d8d8d"/><path d="M94 8l1.91 10.46A3 3 0 0193 22H85.5L83 26h22z" style="fill: #a5a5a5"/><path d="M80 76H55V48h52l10 14h-7V80h-4v6H98V80H88v6H80z" style="fill: #5c5c5c"/><polygon points="110 68 110 80 106 80 106 86 99 86 99 68 110 68" style="fill: #757575"/><path d="M110 62H55V76h6V71a3 3 0 013-3h46z" style="fill: #444"/><path d="M117 62l-9.63-14H55v8H67.65A10 10 0 0176 60.45L77 62z" style="fill: #757575"/><path d="M107 48H55v4H87a10 10 0 018.19 4.27l4 5.73H117z" style="fill: #a5a5a5"/><path d="M70 3.85 78.78 20l-17.73.09z" style="fill: #8d8d8d"/><path d="M78.78 20 70 3.85l1.45 9.86a2 2 0 01-2 2.29H63.2L61 20z" style="fill: #a5a5a5"/><path d="M23 40l2.7 13.41A3 3 0 0122.76 57H11.7L9 61H37z" style="fill: #a5a5a5"/><path d="M106 80v6H98V80H88v6H80V76H46V86H38V80H28v6H20V80H10V91H48a4 4 0 004-4V85a2 2 0 012-2H72a2 2 0 012 2v2a4 4 0 004 4H92a15 15 0 0115 15v16h9V80z" style="fill: #757575"/><polygon points="44 12 58 33 55 33 33 33 30 33 44 12" style="fill: #8d8d8d"/><path d="M44 12l2.7 13.41A3 3 0 0143.76 29H32.7L30 33H58z" style="fill: #a5a5a5"/><path d="M74 125a3 3 0 01-3-3V105a8 8 0 00-16 0v17a3 3 0 01-6 0V105a14 14 0 0128 0v17a3 3 0 01-3 3z" style="fill: #31352e"/><path d="M119.44 60.26l-10-14C108.34 44.71 106.93 45 104 45V29c1 0 2.66.18 3.62-1.53 1.15-2.05.71-1.78-11.06-21a3 3 0 00-5.12.0c-11.72 19.19-12.22 19-11.06 21C81.35 29.18 83 29 84 29V40a3 3 0 006 0V29h8V45H78V23h.79a3 3 0 002.62-4.43C72.06 1.35 72.38.86 70 .85A3 3 0 0067.37 2.4c-9.49 17.22-10.09 17.23-8.9 19.22 1 1.65 2.53 1.47 3.53 1.46V40a3 3 0 006 0V23.06h4V45H58V36a3 3 0 002.65-1.58c1.16-2.17.85-1.58-14.15-24.08a3 3 0 00-5 0l-14 21A3 3 0 0030 36v5c0 4 6 4 6 0V36H52V73H46a3 3 0 00-3 3v7H41V80a3 3 0 00-3-3H36V64c1 0 2.7.18 3.65-1.58 1.16-2.17.85-1.58-14.15-24.08a3 3 0 00-5 0C5.51 60.83 5.19 60.25 6.35 62.42 7.3 64.18 9 64 10 64v8a3 3 0 006 0V64H30V77H28a3 3 0 00-3 3v3H23V80a3 3 0 00-3-3H10a3 3 0 00-3 3v42a3 3 0 003 3H116a3 3 0 003-3V80a3 3 0 00-3-3h-3V65h4a3 3 0 002.44-4.74zM94 13.75 99.65 23H88.35zM70 10.1 73.75 17h-7.6zM44 17.41 52.39 30H35.61zm-21 28L31.39 58H14.61zM113 119H13V83h4v3a3 3 0 003 3h8a3 3 0 003-3V83h4v3a3 3 0 003 3h8a3 3 0 003-3V79H77v7a3 3 0 003 3h8a3 3 0 003-3V83h4v3a3 3 0 003 3h8a3 3 0 003-3V83h4zm-6-42h-1a3 3 0 00-3 3v3h-2V80a3 3 0 00-3-3H88a3 3 0 00-3 3v3H83V76a3 3 0 00-3-3H58V51h47.46l5.71 8H63a3 3 0 000 6h44z" style="fill: #31352e"/><g><path d="M48 51H42V45a3 3 0 013-3h0a3 3 0 013 3z" style="fill: #ffe41c"/><path d="M45 42a3 3 0 00-.5.05A3 3 0 0147 45v6h1V45a3 3 0 00-3-3z" style="fill: #ffce1d"/><path d="M97 36H93V33a2 2 0 012-2h0a2 2 0 012 2z" style="fill: #ffe41c"/><path d="M97 43H93V41a2 2 0 012-2h0a2 2 0 012 2z" style="fill: #ffe41c"/><path d="M95 31a2 2 0 00-.5.07A2 2 0 0196 33v3h1V33a2 2 0 00-2-2z" style="fill: #ffce1d"/><path d="M95 39a2 2 0 00-.5.07A2 2 0 0196 41v2h1V41a2 2 0 00-2-2z" style="fill: #ffce1d"/><path d="M27 75H21V71a3 3 0 013-3h0a3 3 0 013 3z" style="fill: #ffe41c"/><path d="M27 101H21V97a3 3 0 013-3h0a3 3 0 013 3z" style="fill: #ffe41c"/><path d="M45 101H39V97a3 3 0 013-3h0a3 3 0 013 3z" style="fill: #ffe41c"/><path d="M87 101H81V97a3 3 0 013-3h0a3 3 0 013 3z" style="fill: #ffe41c"/><path d="M105 101H99V97a3 3 0 013-3h0a3 3 0 013 3z" style="fill: #ffe41c"/><path d="M102 75H96V69a3 3 0 013-3h0a3 3 0 013 3z" style="fill: #ffe41c"/><path d="M92 75H86V69a3 3 0 013-3h0a3 3 0 013 3z" style="fill: #ffe41c"/><path d="M82 71H76V69a3 3 0 013-3h0a3 3 0 013 3z" style="fill: #ffe41c"/><path d="M72 71H66V69a3 3 0 013-3h0a3 3 0 013 3z" style="fill: #ffe41c"/><path d="M48 68H42V62a3 3 0 013-3h0a3 3 0 013 3z" style="fill: #ffe41c"/><path d="M45 59a3 3 0 00-.5.05A3 3 0 0147 62v6h1V62a3 3 0 00-3-3z" style="fill: #ffce1d"/><path d="M24 68a3 3 0 00-.5.05A3 3 0 0126 71v4h1V71a3 3 0 00-3-3z" style="fill: #ffce1d"/><path d="M89 66a3 3 0 00-.5.05A3 3 0 0191 69v6h1V69a3 3 0 00-3-3z" style="fill: #ffce1d"/><path d="M99 66a3 3 0 00-.5.05A3 3 0 01101 69v6h1V69a3 3 0 00-3-3z" style="fill: #ffce1d"/><path d="M84 94a3 3 0 00-.5.05A3 3 0 0186 97v4h1V97a3 3 0 00-3-3z" style="fill: #ffce1d"/><path d="M79 66a3 3 0 00-.5.05A3 3 0 0181 69v2h1V69a3 3 0 00-3-3z" style="fill: #ffce1d"/><path d="M69 66a3 3 0 00-.5.05A3 3 0 0171 69v2h1V69a3 3 0 00-3-3z" style="fill: #ffce1d"/><path d="M42 94a3 3 0 00-.5.05A3 3 0 0144 97v4h1V97a3 3 0 00-3-3z" style="fill: #ffce1d"/><path d="M24 94a3 3 0 00-.5.05A3 3 0 0126 97v4h1V97a3 3 0 00-3-3z" style="fill: #ffce1d"/><path d="M102 94a3 3 0 00-.5.05A3 3 0 01104 97v4h1V97a3 3 0 00-3-3z" style="fill: #ffce1d"/></g><path d="M74 104v1c0-.34.0-.67.0-1z" style="fill: #5c5c5c"/></svg>