<svg width="24" height="24" viewBox="0 0 24 24" fill="none" xmlns="http://www.w3.org/2000/svg">
<g clip-path="url(#clip0_5303_2910)">
<path d="M20.9644 4.52961C20.37 4.52961 19.8 4.76571 19.3797 5.18601C18.9594 5.60631 18.7234 6.17641 18.7234 6.77071V5.27661C18.7234 4.68231 18.4872 4.11221 18.067 3.69191C17.6466 3.27161 17.0766 3.03551 16.4822 3.03551C15.8878 3.03551 15.3178 3.27161 14.8974 3.69191C14.4772 4.11221 14.2411 4.68231 14.2411 5.27661V3.78261C14.2411 3.18821 14.005 2.61811 13.5847 2.19781C13.1644 1.77761 12.5944 1.54141 11.9999 1.54141C11.4054 1.54141 10.8355 1.77761 10.4152 2.19781C9.99493 2.61811 9.75883 3.18821 9.75883 3.78261V5.27661C9.75883 4.68231 9.52273 4.11221 9.10253 3.69191C8.68223 3.27161 8.11213 3.03551 7.51773 3.03551C6.92333 3.03551 6.35333 3.27161 5.93303 3.69191C5.51273 4.11221 5.27663 4.68231 5.27663 5.27661V7.51781H3.03553C1.54143 7.51781 0.794434 9.05371 0.794434 10.5059V12C0.794434 14.9882 2.28853 22.4585 10.7524 22.4585H15.7352C17.7165 22.4585 19.6166 21.6714 21.0176 20.2705C22.4185 18.8696 23.2056 16.9695 23.2056 14.9881V6.77071C23.2056 6.17641 22.9694 5.60631 22.5492 5.18601C22.1289 4.76571 21.5589 4.52961 20.9644 4.52961Z" fill="#FFDDA1"/>
<path d="M5.27661 9.46011C7.68621 8.66361 10.2092 8.26301 12.747 8.27371C16.3821 8.23341 19.9721 9.08051 23.2055 10.742V6.77071C23.2055 6.17641 22.9694 5.60631 22.5492 5.18601C22.1289 4.76571 21.5588 4.52961 20.9644 4.52961C20.37 4.52961 19.8 4.76571 19.3796 5.18601C18.9594 5.60631 18.7232 6.17641 18.7232 6.77071V5.27661C18.7232 4.68231 18.4872 4.11221 18.067 3.69191C17.6466 3.27161 17.0766 3.03551 16.4822 3.03551C15.8878 3.03551 15.3177 3.27161 14.8974 3.69191C14.4772 4.11221 14.241 4.68231 14.241 5.27661V3.78261C14.241 3.18821 14.0049 2.61811 13.5847 2.19781C13.1644 1.77761 12.5943 1.54141 11.9999 1.54141C11.4055 1.54141 10.8355 1.77761 10.4151 2.19781C9.99491 2.61811 9.75881 3.18821 9.75881 3.78261V5.27661C9.75881 4.68231 9.52271 4.11221 9.10241 3.69191C8.68211 3.27161 8.11201 3.03551 7.51771 3.03551C6.92331 3.03551 6.35321 3.27161 5.93291 3.69191C5.51271 4.11221 5.27661 4.68231 5.27661 5.27661V9.46011Z" fill="#FFDDA1"/>
<path d="M5.27661 10.5059V5.27659C5.27661 4.68219 5.51271 4.11219 5.93301 3.69189C6.35331 3.27159 6.92331 3.03549 7.51771 3.03549C8.11211 3.03549 8.68221 3.27159 9.10251 3.69189C9.52271 4.11219 9.75881 4.68219 9.75881 5.27659V6.77069" stroke="#191919" stroke-linecap="round" stroke-linejoin="round"/>
<path d="M14.2416 6.77069V5.27659C14.2416 4.68219 14.4776 4.11219 14.898 3.69189C15.3182 3.27159 15.8883 3.03549 16.4826 3.03549C17.0771 3.03549 17.6472 3.27159 18.0674 3.69189C18.4877 4.11219 18.7238 4.68219 18.7238 5.27659V6.77069" stroke="#191919" stroke-linecap="round" stroke-linejoin="round"/>
<path d="M14.241 5.27661V3.78261C14.241 3.18821 14.005 2.61811 13.5846 2.19781C13.1644 1.77761 12.5943 1.54141 12 1.54141C11.4056 1.54141 10.8354 1.77761 10.4152 2.19781C9.99499 2.61811 9.75879 3.18821 9.75879 3.78261V5.27661" stroke="#191919" stroke-linecap="round" stroke-linejoin="round"/>
<path d="M18.7234 9.0119V6.7707C18.7234 6.1764 18.9594 5.6063 19.3797 5.186C19.8 4.7657 20.37 4.5296 20.9644 4.5296C21.5588 4.5296 22.1289 4.7657 22.5492 5.186C22.9695 5.6063 23.2056 6.1764 23.2056 6.7707V14.9882C23.2056 16.9695 22.4185 18.8697 21.0176 20.2705C19.6166 21.6714 17.7165 22.4585 15.7352 22.4585H10.7525C2.28853 22.4585 0.794434 14.9882 0.794434 12V10.5059C0.794434 9.0537 1.54143 7.5178 3.03553 7.5178H5.27663" stroke="#191919" stroke-linecap="round" stroke-linejoin="round"/>
</g>
<defs>
<clipPath id="clip0_5303_2910">
<rect width="24" height="24" fill="white"/>
</clipPath>
</defs>
</svg>
