<svg width="24" height="24" viewBox="0 0 24 24" fill="none" xmlns="http://www.w3.org/2000/svg">
<g clip-path="url(#clip0_5303_6798)">
<path d="M12.0021 12.4783V1" stroke="#191919" stroke-linecap="round" stroke-linejoin="round"/>
<path d="M17.263 7.2168L12.0021 12.4777L6.74121 7.2168" stroke="#191919" stroke-linecap="round" stroke-linejoin="round"/>
<path d="M1.47827 19.1737C1.47827 20.1885 1.88138 21.1617 2.59891 21.8792C3.31644 22.5967 4.28962 22.9998 5.30436 22.9998H18.6957C19.1981 22.9998 19.6956 22.9009 20.1598 22.7086C20.624 22.5163 21.0458 22.2345 21.4011 21.8792C21.7564 21.5239 22.0382 21.1021 22.2305 20.6379C22.4228 20.1737 22.5217 19.6762 22.5217 19.1737C22.5217 18.6713 22.4228 18.1738 22.2305 17.7096C22.0382 17.2454 21.7564 16.8236 21.4011 16.4683C21.0458 16.113 20.624 15.8312 20.1598 15.6389C19.6956 15.4466 19.1981 15.3477 18.6957 15.3477H5.30436C4.28962 15.3477 3.31644 15.7508 2.59891 16.4683C1.88138 17.1858 1.47827 18.159 1.47827 19.1737Z" fill="#E3E3E3"/>
<path d="M22.5217 19.1737C22.5217 18.159 22.1186 17.1858 21.4011 16.4683C20.6836 15.7508 19.7104 15.3477 18.6957 15.3477H5.30436C4.28962 15.3477 3.31644 15.7508 2.59891 16.4683C1.88138 17.1858 1.47827 18.159 1.47827 19.1737H22.5217Z" fill="white"/>
<path d="M1.47827 19.1737C1.47827 20.1885 1.88138 21.1617 2.59891 21.8792C3.31644 22.5967 4.28962 22.9998 5.30436 22.9998H18.6957C19.1981 22.9998 19.6956 22.9009 20.1598 22.7086C20.624 22.5163 21.0458 22.2345 21.4011 21.8792C21.7564 21.5239 22.0382 21.1021 22.2305 20.6379C22.4228 20.1737 22.5217 19.6762 22.5217 19.1737C22.5217 18.6713 22.4228 18.1738 22.2305 17.7096C22.0382 17.2454 21.7564 16.8236 21.4011 16.4683C21.0458 16.113 20.624 15.8312 20.1598 15.6389C19.6956 15.4466 19.1981 15.3477 18.6957 15.3477H5.30436C4.28962 15.3477 3.31644 15.7508 2.59891 16.4683C1.88138 17.1858 1.47827 18.159 1.47827 19.1737Z" stroke="#191919" stroke-linecap="round" stroke-linejoin="round"/>
<path d="M4.34778 19.1738H11.0434" stroke="#191919" stroke-linecap="round" stroke-linejoin="round"/>
<path d="M14.8697 20.1303C15.1234 20.1303 15.3667 20.0296 15.5461 19.8502C15.7255 19.6708 15.8263 19.4275 15.8263 19.1738C15.8263 18.9201 15.7255 18.6768 15.5461 18.4974C15.3667 18.3181 15.1234 18.2173 14.8697 18.2173C14.616 18.2173 14.3727 18.3181 14.1934 18.4974C14.014 18.6768 13.9132 18.9201 13.9132 19.1738C13.9132 19.4275 14.014 19.6708 14.1934 19.8502C14.3727 20.0296 14.616 20.1303 14.8697 20.1303Z" fill="#FFEF5E" stroke="#191919" stroke-linecap="round" stroke-linejoin="round"/>
<path d="M18.6958 20.1303C18.9495 20.1303 19.1928 20.0296 19.3721 19.8502C19.5515 19.6708 19.6523 19.4275 19.6523 19.1738C19.6523 18.9201 19.5515 18.6768 19.3721 18.4974C19.1928 18.3181 18.9495 18.2173 18.6958 18.2173C18.4421 18.2173 18.1988 18.3181 18.0194 18.4974C17.84 18.6768 17.7393 18.9201 17.7393 19.1738C17.7393 19.4275 17.84 19.6708 18.0194 19.8502C18.1988 20.0296 18.4421 20.1303 18.6958 20.1303Z" fill="#FFEF5E" stroke="#191919" stroke-linecap="round" stroke-linejoin="round"/>
</g>
<defs>
<clipPath id="clip0_5303_6798">
<rect width="24" height="24" fill="white"/>
</clipPath>
</defs>
</svg>
