<svg width="24" height="24" viewBox="0 0 24 24" fill="none" xmlns="http://www.w3.org/2000/svg">
<path d="M1 11.0435L6.45891 5.58457C6.63821 5.40518 6.88144 5.30445 7.13511 5.30435H16.8649C17.1186 5.30445 17.3618 5.40518 17.5411 5.58457L23 11.0435H1Z" fill="#B2B2B2"/>
<path d="M19.1745 7.2174L17.5417 5.58457C17.3624 5.40518 17.1191 5.30445 16.8655 5.30435H7.13568C6.88201 5.30445 6.63878 5.40518 6.45948 5.58457L4.82666 7.2174H19.1745Z" fill="#EEEEEE"/>
<path d="M1 11.0435L6.45891 5.58457C6.63821 5.40518 6.88144 5.30445 7.13511 5.30435H16.8649C17.1186 5.30445 17.3618 5.40518 17.5411 5.58457L23 11.0435" stroke="#191919" stroke-linecap="round" stroke-linejoin="round"/>
<path d="M23 15.8261C23 16.8827 22.1435 17.7392 21.087 17.7392H2.91304C1.85648 17.7392 1 16.8827 1 15.8261V11.0435H23V15.8261Z" fill="#E3E3E3"/>
<path d="M23 11.0435H1V13.9131H23V11.0435Z" fill="white"/>
<path d="M23 15.8261C23 16.8827 22.1435 17.7392 21.087 17.7392H2.91304C1.85648 17.7392 1 16.8827 1 15.8261V11.0435H23V15.8261Z" stroke="#191919" stroke-linecap="round" stroke-linejoin="round"/>
<path d="M3.86956 15.8261C4.60589 15.8261 5.0661 15.0291 4.69793 14.3913C4.52712 14.0954 4.21128 13.9131 3.86956 13.9131C3.13324 13.9131 2.67303 14.7102 3.0412 15.3479C3.2121 15.6438 3.52785 15.8261 3.86956 15.8261Z" fill="#FFEF5E" stroke="#191919" stroke-linecap="round" stroke-linejoin="round"/>
<path d="M2.91309 17.7391V18.6957" stroke="#191919" stroke-linecap="round" stroke-linejoin="round"/>
<path d="M21.0874 17.7391V18.6957" stroke="#191919" stroke-linecap="round" stroke-linejoin="round"/>
<path d="M13.9133 15.3478C13.7293 15.3478 13.6142 15.1485 13.7062 14.9891C13.749 14.9151 13.8279 14.8696 13.9133 14.8696" stroke="#191919"/>
<path d="M13.9136 15.3478C14.0977 15.3478 14.2127 15.1485 14.1207 14.9891C14.0779 14.9151 13.999 14.8696 13.9136 14.8696" stroke="#191919"/>
<path d="M16.7825 15.3478C16.5984 15.3478 16.4833 15.1485 16.5754 14.9891C16.6181 14.9151 16.6971 14.8696 16.7825 14.8696" stroke="#191919"/>
<path d="M16.7827 15.3478C16.9668 15.3478 17.0819 15.1485 16.9898 14.9891C16.9471 14.9151 16.8681 14.8696 16.7827 14.8696" stroke="#191919"/>
<path d="M19.6526 15.3478C19.4685 15.3478 19.3534 15.1485 19.4455 14.9891C19.4882 14.9151 19.5672 14.8696 19.6526 14.8696" stroke="#191919"/>
<path d="M19.6528 15.3478C19.8369 15.3478 19.952 15.1485 19.8599 14.9891C19.8172 14.9151 19.7382 14.8696 19.6528 14.8696" stroke="#191919"/>
</svg>
