<svg width="24" height="24" viewBox="0 0 24 24" fill="none" xmlns="http://www.w3.org/2000/svg">
<path d="M1 20.3812C1 20.9369 1.22075 21.4698 1.6137 21.8628C2.00664 22.2557 2.53959 22.4765 3.0953 22.4765H5.1906V12H3.0953C2.53959 12 2.00664 12.2208 1.6137 12.6137C1.22075 13.0066 1 13.5396 1 14.0953V20.3812Z" fill="#FF808C"/>
<path d="M23.0002 20.3812C23.0002 20.9369 22.7794 21.4698 22.3865 21.8628C21.9935 22.2557 21.4606 22.4765 20.9049 22.4765H18.8096V12H20.9049C21.4606 12 21.9935 12.2208 22.3865 12.6137C22.7794 13.0066 23.0002 13.5396 23.0002 14.0953V20.3812Z" fill="#FF808C"/>
<path d="M5.1906 12V14.6296H3.0953C2.5401 14.6313 2.00812 14.8525 1.61553 15.2451C1.22294 15.6377 1.00166 16.1697 1 16.7249V14.0953C1.00166 13.5401 1.22294 13.0081 1.61553 12.6155C2.00812 12.2229 2.5401 12.0017 3.0953 12H5.1906Z" fill="#FFBFC5"/>
<path d="M23.0002 14.0953V16.7249C22.9985 16.1697 22.7772 15.6377 22.3846 15.2451C21.9921 14.8525 21.4601 14.6313 20.9049 14.6296H18.8096V12H20.9049C21.4601 12.0017 21.9921 12.2229 22.3846 12.6155C22.7772 13.0081 22.9985 13.5401 23.0002 14.0953Z" fill="#FFBFC5"/>
<path d="M1 20.3812C1 20.9369 1.22075 21.4698 1.6137 21.8628C2.00664 22.2557 2.53959 22.4765 3.0953 22.4765H5.1906V12H3.0953C2.53959 12 2.00664 12.2208 1.6137 12.6137C1.22075 13.0066 1 13.5396 1 14.0953V20.3812Z" stroke="#191919" stroke-linecap="round" stroke-linejoin="round"/>
<path d="M5.19141 12V22.4765L6.54602 21.1219C6.78085 20.887 6.96714 20.6082 7.09422 20.3014C7.22131 19.9945 7.28672 19.6657 7.2867 19.3335V14.6191C7.2867 14.2938 7.21097 13.973 7.0655 13.6821C6.92003 13.3911 6.70881 13.1381 6.44858 12.9429L5.19141 12Z" fill="#808080"/>
<path d="M23.0002 20.3812C23.0002 20.9369 22.7794 21.4698 22.3865 21.8628C21.9935 22.2557 21.4606 22.4765 20.9049 22.4765H18.8096V12H20.9049C21.4606 12 21.9935 12.2208 22.3865 12.6137C22.7794 13.0066 23.0002 13.5396 23.0002 14.0953V20.3812Z" stroke="#191919" stroke-linecap="round" stroke-linejoin="round"/>
<path d="M18.8101 12V22.4765L17.4555 21.1219C17.2207 20.887 17.0344 20.6082 16.9073 20.3014C16.7802 19.9945 16.7148 19.6657 16.7148 19.3335V14.6191C16.7148 14.2938 16.7906 13.973 16.936 13.6821C17.0815 13.3911 17.2927 13.1381 17.553 12.9429L18.8101 12Z" fill="#808080"/>
<path d="M3.09473 12V10.4286C3.09473 8.06682 4.03293 5.80179 5.70295 4.13178C7.37296 2.46176 9.63799 1.52356 11.9997 1.52356C14.3615 1.52356 16.6265 2.46176 18.2965 4.13178C19.9666 5.80179 20.9048 8.06682 20.9048 10.4286V12" stroke="#191919" stroke-linecap="round" stroke-linejoin="round"/>
<path d="M5.19141 12V22.4765L6.54602 21.1219C6.78085 20.887 6.96714 20.6082 7.09422 20.3014C7.22131 19.9945 7.28672 19.6657 7.2867 19.3335V14.6191C7.2867 14.2938 7.21097 13.973 7.0655 13.6821C6.92003 13.3911 6.70881 13.1381 6.44858 12.9429L5.19141 12Z" stroke="#191919" stroke-linecap="round" stroke-linejoin="round"/>
<path d="M18.8101 12V22.4765L17.4555 21.1219C17.2207 20.887 17.0344 20.6082 16.9073 20.3014C16.7802 19.9945 16.7148 19.6657 16.7148 19.3335V14.6191C16.7148 14.2938 16.7906 13.973 16.936 13.6821C17.0815 13.3911 17.2927 13.1381 17.553 12.9429L18.8101 12Z" stroke="#191919" stroke-linecap="round" stroke-linejoin="round"/>
</svg>
