<svg width="24" height="24" viewBox="0 0 24 24" fill="none" xmlns="http://www.w3.org/2000/svg">
<path d="M12 17.474C15.5275 17.474 18.3872 14.6144 18.3872 11.0867C18.3872 7.55924 15.5275 4.69958 12 4.69958C8.47244 4.69958 5.61279 7.55924 5.61279 11.0867C5.61279 14.6144 8.47244 17.474 12 17.474Z" fill="#C2F3FF"/>
<path d="M9.2627 8.80627C9.26229 8.29456 9.40532 7.79298 9.67556 7.35844C9.94581 6.92391 10.3325 6.57383 10.7916 6.34792C11.2508 6.12201 11.764 6.02932 12.2731 6.08037C12.7823 6.13143 13.267 6.32417 13.6721 6.63674C14.0773 6.9493 14.3867 7.36918 14.5653 7.84872C14.7439 8.32826 14.7845 8.84825 14.6825 9.3497C14.5805 9.85114 14.34 10.314 13.9883 10.6857C13.6366 11.0573 13.1877 11.3229 12.6926 11.4524C12.4999 11.4946 12.3268 11.6003 12.2014 11.7525C12.0758 11.9046 12.0049 12.0946 12.0001 12.2918V13.8248" stroke="#191919" stroke-linecap="round" stroke-linejoin="round"/>
<path d="M15.6499 21.1246H16.5624C18.3271 21.1246 19.756 20.1519 19.756 18.3872V16.4063" stroke="#191919" stroke-linecap="round" stroke-linejoin="round"/>
<path d="M18.8433 9.26251C19.7047 9.26191 20.5385 9.56597 21.1974 10.1209C21.8561 10.6759 22.2974 11.4459 22.4431 12.2949C22.5889 13.1439 22.4296 14.017 21.9936 14.7599C21.5575 15.5027 20.8728 16.0675 20.0605 16.3541C19.9228 16.4029 19.7755 16.4179 19.6308 16.398C19.4861 16.3779 19.3483 16.3234 19.2291 16.2392C19.1098 16.1549 19.0125 16.0431 18.9454 15.9134C18.8783 15.7837 18.8433 15.6397 18.8433 15.4937V9.26251Z" fill="#6B6B6B"/>
<path d="M5.15681 9.26251C4.29543 9.26191 3.46159 9.56597 2.8028 10.1209C2.14401 10.6759 1.70272 11.4459 1.55701 12.2949C1.41129 13.1439 1.57053 14.017 2.00657 14.7599C2.4426 15.5027 3.12731 16.0675 3.9396 16.3541C4.07727 16.4029 4.22464 16.4179 4.36933 16.398C4.51402 16.3779 4.65178 16.3234 4.77106 16.2392C4.89033 16.1549 4.98762 16.0431 5.05474 15.9134C5.12187 15.7837 5.15687 15.6397 5.15681 15.4937V9.26251Z" fill="#6B6B6B"/>
<path d="M22.3106 14.0529C22.491 13.5047 22.5388 12.9215 22.4501 12.3512C22.3613 11.7809 22.1386 11.2399 21.8002 10.7723C21.4618 10.3048 21.0174 9.92419 20.5033 9.66174C19.9894 9.39929 19.4204 9.26247 18.8433 9.26251V11.5437C19.6118 11.5436 20.3608 11.7861 20.9834 12.2367C21.606 12.6873 22.0705 13.3228 22.3106 14.0529Z" fill="#808080"/>
<path d="M1.50684 12.9123C1.50682 13.2998 1.56842 13.6848 1.68933 14.0529C1.9295 13.3228 2.39398 12.6873 3.01658 12.2367C3.63918 11.7861 4.38812 11.5436 5.15666 11.5437V9.26251C4.18867 9.26251 3.26032 9.64704 2.57585 10.3316C1.89137 11.016 1.50684 11.9443 1.50684 12.9123Z" fill="#808080"/>
<path d="M18.8436 10.6313V8.80643C18.8436 6.99144 18.1226 5.25079 16.8392 3.96741C15.5558 2.68401 13.8152 1.96301 12.0002 1.96301C10.1852 1.96301 8.44452 2.68401 7.16113 3.96741C5.87774 5.25079 5.15674 6.99144 5.15674 8.80643V10.6313" stroke="#191919" stroke-linecap="round" stroke-linejoin="round"/>
<path d="M11.5438 20.2122H15.1936C15.3146 20.2122 15.4306 20.2603 15.5163 20.3458C15.6018 20.4314 15.6498 20.5474 15.6498 20.6684V21.5808C15.6498 21.7018 15.6018 21.8179 15.5163 21.9035C15.4306 21.989 15.3146 22.0372 15.1936 22.0372H11.5438C11.3018 22.0372 11.0697 21.941 10.8986 21.7698C10.7275 21.5987 10.6313 21.3666 10.6313 21.1246C10.6313 20.8826 10.7275 20.6506 10.8986 20.4795C11.0697 20.3083 11.3018 20.2122 11.5438 20.2122Z" fill="#6B6B6B" stroke="#191919" stroke-linecap="round" stroke-linejoin="round"/>
<path d="M18.8433 9.26251C19.7047 9.26191 20.5385 9.56597 21.1974 10.1209C21.8561 10.6759 22.2974 11.4459 22.4431 12.2949C22.5889 13.1439 22.4296 14.017 21.9936 14.7599C21.5575 15.5027 20.8728 16.0675 20.0605 16.3541C19.9228 16.4029 19.7755 16.4179 19.6308 16.398C19.4861 16.3779 19.3483 16.3234 19.2291 16.2392C19.1098 16.1549 19.0125 16.0431 18.9454 15.9134C18.8783 15.7837 18.8433 15.6397 18.8433 15.4937V9.26251Z" stroke="#191919" stroke-linecap="round" stroke-linejoin="round"/>
<path d="M5.15681 9.26251C4.29543 9.26191 3.46159 9.56597 2.8028 10.1209C2.14401 10.6759 1.70272 11.4459 1.55701 12.2949C1.41129 13.1439 1.57053 14.017 2.00657 14.7599C2.4426 15.5027 3.12731 16.0675 3.9396 16.3541C4.07727 16.4029 4.22464 16.4179 4.36933 16.398C4.51402 16.3779 4.65178 16.3234 4.77106 16.2392C4.89033 16.1549 4.98762 16.0431 5.05474 15.9134C5.12187 15.7837 5.15687 15.6397 5.15681 15.4937V9.26251Z" stroke="#191919" stroke-linecap="round" stroke-linejoin="round"/>
<path d="M12.0002 16.5833C11.8736 16.5833 11.771 16.4808 11.771 16.3542C11.771 16.2276 11.8736 16.125 12.0002 16.125" stroke="#191919"/>
<path d="M12 16.5833C12.1266 16.5833 12.2292 16.4808 12.2292 16.3542C12.2292 16.2276 12.1266 16.125 12 16.125" stroke="#191919"/>
</svg>
