<svg width="24" height="24" viewBox="0 0 24 24" fill="none" xmlns="http://www.w3.org/2000/svg">
<path d="M11.9906 18.3825C15.516 18.3825 18.3738 15.5246 18.3738 11.9993C18.3738 8.4739 15.516 5.61603 11.9906 5.61603C8.46529 5.61603 5.60742 8.4739 5.60742 11.9993C5.60742 15.5246 8.46529 18.3825 11.9906 18.3825Z" fill="#C2F3FF"/>
<path d="M17.4624 6.53439L19.3937 4.64496" stroke="#191919" stroke-linecap="round" stroke-linejoin="round"/>
<path d="M20.6636 5.16092C21.6709 5.16092 22.4874 4.34439 22.4874 3.33714C22.4874 2.3299 21.6709 1.51337 20.6636 1.51337C19.6563 1.51337 18.8398 2.3299 18.8398 3.33714C18.8398 4.34439 19.6563 5.16092 20.6636 5.16092Z" fill="#FFEF5E"/>
<path d="M20.6636 5.16092C20.1799 5.16092 19.716 4.96877 19.374 4.62675C19.032 4.28473 18.8398 3.82084 18.8398 3.33714C18.8398 2.85345 19.032 2.38956 19.374 2.04754C19.716 1.70551 20.1799 1.51337 20.6636 1.51337V5.16092Z" fill="#FFF9BF"/>
<path d="M17.4375 17.4523L19.3653 19.3928" stroke="#191919" stroke-linecap="round" stroke-linejoin="round"/>
<path d="M20.6719 22.4868C21.6792 22.4868 22.4957 21.6702 22.4957 20.663C22.4957 19.6557 21.6792 18.8392 20.6719 18.8392C19.6647 18.8392 18.8481 19.6557 18.8481 20.663C18.8481 21.6702 19.6647 22.4868 20.6719 22.4868Z" fill="#FFEF5E"/>
<path d="M20.6719 22.4868C20.1882 22.4868 19.7244 22.2946 19.3824 21.9526C19.0403 21.6105 18.8481 21.1467 18.8481 20.663C18.8481 20.1792 19.0403 19.7154 19.3824 19.3734C19.7244 19.0314 20.1882 18.8392 20.6719 18.8392V22.4868Z" fill="#FFF9BF"/>
<path d="M6.51965 6.53439L4.60742 4.64496" stroke="#191919" stroke-linecap="round" stroke-linejoin="round"/>
<path d="M3.33794 5.16092C4.34518 5.16092 5.16171 4.34439 5.16171 3.33714C5.16171 2.3299 4.34518 1.51337 3.33794 1.51337C2.3307 1.51337 1.51416 2.3299 1.51416 3.33714C1.51416 4.34439 2.3307 5.16092 3.33794 5.16092Z" fill="#FFEF5E"/>
<path d="M3.33794 1.51337C2.85424 1.51337 2.39035 1.70551 2.04833 2.04754C1.70631 2.38956 1.51416 2.85345 1.51416 3.33714C1.51416 3.82084 1.70631 4.28473 2.04833 4.62675C2.39035 4.96877 2.85424 5.16092 3.33794 5.16092V1.51337Z" fill="#FFF9BF"/>
<path d="M6.56439 17.4523L4.63574 19.3928" stroke="#191919" stroke-linecap="round" stroke-linejoin="round"/>
<path d="M3.32817 22.4868C4.33542 22.4868 5.15195 21.6702 5.15195 20.663C5.15195 19.6557 4.33542 18.8392 3.32817 18.8392C2.32093 18.8392 1.50439 19.6557 1.50439 20.663C1.50439 21.6702 2.32093 22.4868 3.32817 22.4868Z" fill="#FFEF5E"/>
<path d="M3.32817 18.8392C2.84447 18.8392 2.38059 19.0314 2.03857 19.3734C1.69654 19.7154 1.50439 20.1792 1.50439 20.663C1.50439 21.1467 1.69654 21.6105 2.03857 21.9526C2.38059 22.2946 2.84447 22.4868 3.32817 22.4868V18.8392Z" fill="#FFF9BF"/>
<path d="M16.5503 11.5441H18.84" stroke="#191919" stroke-linecap="round" stroke-linejoin="round"/>
<path d="M20.6636 13.3679C21.6709 13.3679 22.4874 12.5514 22.4874 11.5442C22.4874 10.5369 21.6709 9.7204 20.6636 9.7204C19.6563 9.7204 18.8398 10.5369 18.8398 11.5442C18.8398 12.5514 19.6563 13.3679 20.6636 13.3679Z" fill="#FFEF5E"/>
<path d="M20.6636 13.3679C20.1799 13.3679 19.716 13.1758 19.374 12.8338C19.032 12.4918 18.8398 12.0278 18.8398 11.5442C18.8398 11.0605 19.032 10.5966 19.374 10.2546C19.716 9.91255 20.1799 9.7204 20.6636 9.7204V13.3679Z" fill="#FFF9BF"/>
<path d="M7.43132 11.5441H5.16162" stroke="#191919" stroke-linecap="round" stroke-linejoin="round"/>
<path d="M3.33794 13.3679C4.34518 13.3679 5.16171 12.5514 5.16171 11.5442C5.16171 10.5369 4.34518 9.7204 3.33794 9.7204C2.3307 9.7204 1.51416 10.5369 1.51416 11.5442C1.51416 12.5514 2.3307 13.3679 3.33794 13.3679Z" fill="#FFEF5E"/>
<path d="M3.33794 9.7204C2.85424 9.7204 2.39035 9.91255 2.04834 10.2546C1.70631 10.5966 1.51416 11.0605 1.51416 11.5442C1.51416 12.0278 1.70631 12.4918 2.04834 12.8338C2.39035 13.1758 2.85424 13.3679 3.33794 13.3679V9.7204Z" fill="#FFF9BF"/>
<path d="M20.6636 5.16092C21.6709 5.16092 22.4874 4.34439 22.4874 3.33714C22.4874 2.3299 21.6709 1.51337 20.6636 1.51337C19.6563 1.51337 18.8398 2.3299 18.8398 3.33714C18.8398 4.34439 19.6563 5.16092 20.6636 5.16092Z" stroke="#191919" stroke-linecap="round" stroke-linejoin="round"/>
<path d="M20.6719 22.4868C21.6792 22.4868 22.4957 21.6702 22.4957 20.663C22.4957 19.6557 21.6792 18.8392 20.6719 18.8392C19.6647 18.8392 18.8481 19.6557 18.8481 20.663C18.8481 21.6702 19.6647 22.4868 20.6719 22.4868Z" stroke="#191919" stroke-linecap="round" stroke-linejoin="round"/>
<path d="M3.33794 5.16092C4.34518 5.16092 5.16171 4.34439 5.16171 3.33714C5.16171 2.3299 4.34518 1.51337 3.33794 1.51337C2.3307 1.51337 1.51416 2.3299 1.51416 3.33714C1.51416 4.34439 2.3307 5.16092 3.33794 5.16092Z" stroke="#191919" stroke-linecap="round" stroke-linejoin="round"/>
<path d="M3.32817 22.4868C4.33542 22.4868 5.15195 21.6702 5.15195 20.663C5.15195 19.6557 4.33542 18.8392 3.32817 18.8392C2.32093 18.8392 1.50439 19.6557 1.50439 20.663C1.50439 21.6702 2.32093 22.4868 3.32817 22.4868Z" stroke="#191919" stroke-linecap="round" stroke-linejoin="round"/>
<path d="M20.6636 13.3679C21.6709 13.3679 22.4874 12.5514 22.4874 11.5442C22.4874 10.5369 21.6709 9.7204 20.6636 9.7204C19.6563 9.7204 18.8398 10.5369 18.8398 11.5442C18.8398 12.5514 19.6563 13.3679 20.6636 13.3679Z" stroke="#191919" stroke-linecap="round" stroke-linejoin="round"/>
<path d="M3.33794 13.3679C4.34518 13.3679 5.16171 12.5514 5.16171 11.5442C5.16171 10.5369 4.34518 9.7204 3.33794 9.7204C2.3307 9.7204 1.51416 10.5369 1.51416 11.5442C1.51416 12.5514 2.3307 13.3679 3.33794 13.3679Z" stroke="#191919" stroke-linecap="round" stroke-linejoin="round"/>
<path d="M9.27344 10.1763C9.27368 9.68315 9.40722 9.19922 9.65994 8.77574C9.91266 8.35226 10.2751 8.00496 10.7091 7.7706C11.143 7.53625 11.6321 7.42353 12.1248 7.44441C12.6176 7.46528 13.0955 7.61895 13.508 7.88916C13.9206 8.15938 14.2524 8.53608 14.4684 8.97942C14.6844 9.42276 14.7766 9.91624 14.7351 10.4077C14.6936 10.8991 14.5201 11.3702 14.2328 11.771C13.9456 12.1719 13.5554 12.4877 13.1034 12.6849C12.7782 12.8268 12.5014 13.0606 12.307 13.3575C12.1127 13.6544 12.0091 14.0015 12.0091 14.3564V14.7357" stroke="#191919" stroke-linecap="round" stroke-linejoin="round"/>
<path d="M12.0002 17.0361C11.8736 17.0361 11.771 16.9335 11.771 16.8069C11.771 16.6803 11.8736 16.5778 12.0002 16.5778" stroke="#191919"/>
<path d="M12 17.0361C12.1266 17.0361 12.2292 16.9335 12.2292 16.8069C12.2292 16.6803 12.1266 16.5778 12 16.5778" stroke="#191919"/>
</svg>
