<svg width="24" height="24" viewBox="0 0 24 24" fill="none" xmlns="http://www.w3.org/2000/svg">
<path d="M12.4585 1.45831H2.37516C1.8689 1.45831 1.4585 1.86872 1.4585 2.37498V3.29165C1.4585 3.7979 1.8689 4.20831 2.37516 4.20831H12.4585C12.9648 4.20831 13.3752 3.7979 13.3752 3.29165V2.37498C13.3752 1.86872 12.9648 1.45831 12.4585 1.45831Z" fill="#FF808C"/>
<path d="M1.4585 2.83331V2.37498C1.4585 2.13186 1.55507 1.89871 1.72698 1.7268C1.89889 1.55489 2.13204 1.45831 2.37516 1.45831H12.4585C12.7016 1.45831 12.9348 1.55489 13.1067 1.7268C13.2785 1.89871 13.3752 2.13186 13.3752 2.37498V2.83331H1.4585Z" fill="#FFBFC5"/>
<path d="M21.625 11.5417H11.5417C11.0354 11.5417 10.625 11.9521 10.625 12.4584V13.375C10.625 13.8813 11.0354 14.2917 11.5417 14.2917H21.625C22.1313 14.2917 22.5417 13.8813 22.5417 13.375V12.4584C22.5417 11.9521 22.1313 11.5417 21.625 11.5417Z" fill="#FFEF5E"/>
<path d="M10.625 12.9167V12.4584C10.625 12.2153 10.7216 11.9821 10.8935 11.8102C11.0654 11.6383 11.2986 11.5417 11.5417 11.5417H21.625C21.8681 11.5417 22.1013 11.6383 22.2732 11.8102C22.445 11.9821 22.5417 12.2153 22.5417 12.4584V12.9167H10.625Z" fill="#FFF9BF"/>
<path d="M12.4585 19.7917H2.37516C1.8689 19.7917 1.4585 20.2021 1.4585 20.7084V21.625C1.4585 22.1313 1.8689 22.5417 2.37516 22.5417H12.4585C12.9648 22.5417 13.3752 22.1313 13.3752 21.625V20.7084C13.3752 20.2021 12.9648 19.7917 12.4585 19.7917Z" fill="#FFEF5E"/>
<path d="M1.4585 21.1667V20.7084C1.4585 20.4653 1.55507 20.2321 1.72698 20.0602C1.89889 19.8883 2.13204 19.7917 2.37516 19.7917H12.4585C12.7016 19.7917 12.9348 19.8883 13.1067 20.0602C13.2785 20.2321 13.3752 20.4653 13.3752 20.7084V21.1667H1.4585Z" fill="#FFF9BF"/>
<path d="M12.4585 1.4574H2.37516C1.8689 1.4574 1.4585 1.8678 1.4585 2.37406V3.29073C1.4585 3.79699 1.8689 4.20739 2.37516 4.20739H12.4585C12.9648 4.20739 13.3752 3.79699 13.3752 3.29073V2.37406C13.3752 1.8678 12.9648 1.4574 12.4585 1.4574Z" stroke="#191919" stroke-linecap="round" stroke-linejoin="round"/>
<path d="M21.625 11.5408H11.5417C11.0354 11.5408 10.625 11.9512 10.625 12.4574V13.3741C10.625 13.8804 11.0354 14.2908 11.5417 14.2908H21.625C22.1313 14.2908 22.5417 13.8804 22.5417 13.3741V12.4574C22.5417 11.9512 22.1313 11.5408 21.625 11.5408Z" stroke="#191919" stroke-linecap="round" stroke-linejoin="round"/>
<path d="M12.4585 19.7908H2.37516C1.8689 19.7908 1.4585 20.2012 1.4585 20.7074V21.6241C1.4585 22.1304 1.8689 22.5408 2.37516 22.5408H12.4585C12.9648 22.5408 13.3752 22.1304 13.3752 21.6241V20.7074C13.3752 20.2012 12.9648 19.7908 12.4585 19.7908Z" stroke="#191919" stroke-linecap="round" stroke-linejoin="round"/>
<path d="M7.875 4.20831V7.41665C7.875 7.78131 8.01987 8.13106 8.27773 8.38892C8.53559 8.64678 8.88533 8.79165 9.25 8.79165H12C12.3647 8.79165 12.7144 8.93652 12.9723 9.19438C13.2302 9.45223 13.375 9.80198 13.375 10.1666V11.5416" stroke="#191919" stroke-linecap="round" stroke-linejoin="round"/>
<path d="M17.9583 14.2917V19.3334C17.9583 19.698 17.8135 20.0478 17.5556 20.3057C17.2978 20.5635 16.948 20.7084 16.5833 20.7084H13.375" stroke="#191919" stroke-linecap="round" stroke-linejoin="round"/>
</svg>
