<svg width="24" height="24" viewBox="0 0 24 24" fill="none" xmlns="http://www.w3.org/2000/svg">
<path d="M5.26228 17.3909H2.56728C2.07118 17.3909 1.66895 17.7931 1.66895 18.2893V20.9843C1.66895 21.4804 2.07118 21.8826 2.56728 21.8826H5.26228C5.75838 21.8826 6.16061 21.4804 6.16061 20.9843V18.2893C6.16061 17.7931 5.75838 17.3909 5.26228 17.3909Z" fill="#FFEF5E"/>
<path d="M6.16061 19.1876V18.2893C6.16061 18.051 6.06601 17.8225 5.89753 17.654C5.72905 17.4856 5.50052 17.3909 5.26228 17.3909H2.56728C2.32904 17.3909 2.10051 17.4856 1.93203 17.654C1.76364 17.8225 1.66895 18.051 1.66895 18.2893V19.1876H6.16061Z" fill="#FFF7AE"/>
<path d="M13.3477 17.3909H10.6527C10.1566 17.3909 9.75439 17.7931 9.75439 18.2893V20.9843C9.75439 21.4804 10.1566 21.8826 10.6527 21.8826H13.3477C13.8439 21.8826 14.2461 21.4804 14.2461 20.9843V18.2893C14.2461 17.7931 13.8439 17.3909 13.3477 17.3909Z" fill="#FFEF5E"/>
<path d="M14.2461 19.1876V18.2893C14.2461 18.051 14.1514 17.8225 13.983 17.654C13.8146 17.4855 13.586 17.3909 13.3477 17.3909H10.6527C10.4145 17.3909 10.186 17.4856 10.0175 17.654C9.84909 17.8225 9.75439 18.051 9.75439 18.2893V19.1876H14.2461Z" fill="#FFF7AE"/>
<path d="M21.4327 17.3909H18.7377C18.2415 17.3909 17.8394 17.7931 17.8394 18.2893V20.9843C17.8394 21.4804 18.2415 21.8826 18.7377 21.8826H21.4327C21.9289 21.8826 22.331 21.4804 22.331 20.9843V18.2893C22.331 17.7931 21.9289 17.3909 21.4327 17.3909Z" fill="#FFEF5E"/>
<path d="M22.331 19.1876V18.2893C22.331 18.051 22.2363 17.8225 22.0679 17.654C21.8995 17.4855 21.6709 17.3909 21.4327 17.3909H18.7377C18.4994 17.3909 18.2709 17.4856 18.1024 17.654C17.934 17.8224 17.8394 18.051 17.8394 18.2893V19.1876H22.331Z" fill="#FFF7AE"/>
<path d="M12 5.71167V17.39" stroke="#191919" stroke-linecap="round" stroke-linejoin="round"/>
<path d="M17.8394 2.11835H6.16103C5.66493 2.11835 5.2627 2.52058 5.2627 3.01668V4.81335C5.2627 5.30945 5.66493 5.71168 6.16103 5.71168H17.8394C18.3356 5.71168 18.7377 5.30945 18.7377 4.81335V3.01668C18.7377 2.52058 18.3356 2.11835 17.8394 2.11835Z" fill="#FF808C"/>
<path d="M5.2627 3.46676V3.0176C5.2627 2.77935 5.35739 2.55083 5.52578 2.38235C5.69426 2.21386 5.92279 2.11926 6.16103 2.11926H17.8394C18.0776 2.11926 18.3061 2.21386 18.4746 2.38235C18.643 2.55083 18.7377 2.77935 18.7377 3.0176V3.46676H5.2627Z" fill="#FFBFC5"/>
<path d="M17.8394 2.11835H6.16103C5.66493 2.11835 5.2627 2.52058 5.2627 3.01668V4.81335C5.2627 5.30945 5.66493 5.71168 6.16103 5.71168H17.8394C18.3356 5.71168 18.7377 5.30945 18.7377 4.81335V3.01668C18.7377 2.52058 18.3356 2.11835 17.8394 2.11835Z" stroke="#191919" stroke-linecap="round" stroke-linejoin="round"/>
<path d="M13.3477 17.39H10.6527C10.1566 17.39 9.75439 17.7922 9.75439 18.2883V20.9833C9.75439 21.4795 10.1566 21.8817 10.6527 21.8817H13.3477C13.8439 21.8817 14.2461 21.4795 14.2461 20.9833V18.2883C14.2461 17.7922 13.8439 17.39 13.3477 17.39Z" stroke="#191919" stroke-linecap="round" stroke-linejoin="round"/>
<path d="M5.26228 17.39H2.56728C2.07118 17.39 1.66895 17.7922 1.66895 18.2883V20.9833C1.66895 21.4795 2.07118 21.8817 2.56728 21.8817H5.26228C5.75838 21.8817 6.16061 21.4795 6.16061 20.9833V18.2883C6.16061 17.7922 5.75838 17.39 5.26228 17.39Z" stroke="#191919" stroke-linecap="round" stroke-linejoin="round"/>
<path d="M21.4327 17.39H18.7377C18.2415 17.39 17.8394 17.7922 17.8394 18.2883V20.9833C17.8394 21.4795 18.2415 21.8817 18.7377 21.8817H21.4327C21.9289 21.8817 22.331 21.4795 22.331 20.9833V18.2883C22.331 17.7922 21.9289 17.39 21.4327 17.39Z" stroke="#191919" stroke-linecap="round" stroke-linejoin="round"/>
<path d="M19.6359 17.3909V12.8992C19.6359 12.661 19.5412 12.4325 19.3728 12.264C19.2044 12.0955 18.9758 12.0009 18.7376 12.0009H5.26259C5.02435 12.0009 4.79582 12.0956 4.62734 12.264C4.45895 12.4325 4.36426 12.661 4.36426 12.8992V17.3909" stroke="#191919" stroke-linecap="round" stroke-linejoin="round"/>
</svg>
