<svg width="24" height="24" viewBox="0 0 24 24" fill="none" xmlns="http://www.w3.org/2000/svg">
<g clip-path="url(#clip0_5303_1895)">
<path d="M14.5462 12H3.34174C2.77924 12 2.32324 12.456 2.32324 13.0186V15.0558C2.32324 15.6184 2.77924 16.0744 3.34174 16.0744H14.5462C15.1088 16.0744 15.5648 15.6184 15.5648 15.0558V13.0186C15.5648 12.456 15.1088 12 14.5462 12Z" fill="#66E1FF"/>
<path d="M15.5648 14.0371V13.0186C15.5648 12.7485 15.4575 12.4894 15.2665 12.2984C15.0755 12.1074 14.8163 12 14.5462 12H3.34174C3.07164 12 2.81254 12.1073 2.62154 12.2984C2.43054 12.4894 2.32324 12.7485 2.32324 13.0186V14.0371H15.5648Z" fill="#C2F3FF"/>
<path d="M14.5462 19.13H3.34174C2.77924 19.13 2.32324 19.5861 2.32324 20.1486V22.1858C2.32324 22.7484 2.77924 23.2044 3.34174 23.2044H14.5462C15.1088 23.2044 15.5648 22.7484 15.5648 22.1858V20.1486C15.5648 19.5861 15.1088 19.13 14.5462 19.13Z" fill="#66E1FF"/>
<path d="M15.5648 21.1673V20.1487C15.5648 19.8785 15.4575 19.6194 15.2665 19.4284C15.0755 19.2374 14.8163 19.13 14.5462 19.13H3.34174C3.07164 19.13 2.81254 19.2374 2.62154 19.4284C2.43054 19.6194 2.32324 19.8785 2.32324 20.1487V21.1673H15.5648Z" fill="#C2F3FF"/>
<path d="M14.5462 4.8699H3.34174C2.77924 4.8699 2.32324 5.3259 2.32324 5.8885V7.9256C2.32324 8.4882 2.77924 8.9442 3.34174 8.9442H14.5462C15.1088 8.9442 15.5648 8.4882 15.5648 7.9256V5.8885C15.5648 5.3259 15.1088 4.8699 14.5462 4.8699Z" fill="#66E1FF"/>
<path d="M15.5648 6.9071V5.8885C15.5648 5.6183 15.4575 5.3592 15.2665 5.1682C15.0754 4.9772 14.8163 4.8699 14.5462 4.8699H3.34174C3.07164 4.8699 2.81254 4.9772 2.62154 5.1682C2.43054 5.3592 2.32324 5.6183 2.32324 5.8885V6.9071H15.5648Z" fill="#C2F3FF"/>
<path d="M14.5462 4.8699H3.34174C2.77924 4.8699 2.32324 5.3259 2.32324 5.8885V7.9256C2.32324 8.4882 2.77924 8.9442 3.34174 8.9442H14.5462C15.1088 8.9442 15.5648 8.4882 15.5648 7.9256V5.8885C15.5648 5.3259 15.1088 4.8699 14.5462 4.8699Z" stroke="#191919" stroke-linecap="round" stroke-linejoin="round"/>
<path d="M14.5462 12H3.34174C2.77924 12 2.32324 12.456 2.32324 13.0186V15.0558C2.32324 15.6184 2.77924 16.0744 3.34174 16.0744H14.5462C15.1088 16.0744 15.5648 15.6184 15.5648 15.0558V13.0186C15.5648 12.456 15.1088 12 14.5462 12Z" stroke="#191919" stroke-linecap="round" stroke-linejoin="round"/>
<path d="M14.5462 19.13H3.34174C2.77924 19.13 2.32324 19.5861 2.32324 20.1486V22.1858C2.32324 22.7484 2.77924 23.2044 3.34174 23.2044H14.5462C15.1088 23.2044 15.5648 22.7484 15.5648 22.1858V20.1486C15.5648 19.5861 15.1088 19.13 14.5462 19.13Z" stroke="#191919" stroke-linecap="round" stroke-linejoin="round"/>
<path d="M21.6768 0.795593V20.1488C21.6768 20.4189 21.5694 20.678 21.3784 20.8689C21.1874 21.0599 20.9283 21.1673 20.6581 21.1673H15.5652" stroke="#191919" stroke-linecap="round" stroke-linejoin="round"/>
<path d="M15.5652 6.9071H21.6767" stroke="#191919" stroke-linecap="round" stroke-linejoin="round"/>
<path d="M15.5652 14.0371H21.6767" stroke="#191919" stroke-linecap="round" stroke-linejoin="round"/>
</g>
<defs>
<clipPath id="clip0_5303_1895">
<rect width="24" height="24" fill="white"/>
</clipPath>
</defs>
</svg>
