<svg width="24" height="24" viewBox="0 0 24 24" fill="none" xmlns="http://www.w3.org/2000/svg">
<g clip-path="url(#clip0_5303_7720)">
<path d="M1.95652 6.26086C1.70283 6.26086 1.45954 6.36164 1.28016 6.54102C1.10078 6.72041 1 6.9637 1 7.21739V22.5217C1 22.6486 1.05039 22.7702 1.14008 22.86C1.22977 22.9496 1.35142 23 1.47826 23H14.3913V7.21739C14.3913 6.9637 14.2905 6.72041 14.1111 6.54102C13.9318 6.36164 13.6885 6.26086 13.4348 6.26086H1.95652Z" fill="#E3E3E3"/>
<path d="M13.4348 6.26086H1.95652C1.70283 6.26086 1.45954 6.36164 1.28016 6.54102C1.10078 6.72041 1 6.9637 1 7.21739V9.60869C1 9.355 1.10078 9.11171 1.28016 8.93232C1.45954 8.75295 1.70283 8.65217 1.95652 8.65217H13.4348C13.6885 8.65217 13.9318 8.75295 14.1111 8.93232C14.2905 9.11171 14.3913 9.355 14.3913 9.60869V7.21739C14.3913 6.9637 14.2905 6.72041 14.1111 6.54102C13.9318 6.36164 13.6885 6.26086 13.4348 6.26086Z" fill="white"/>
<path d="M3.86963 13.4348H11.5218" stroke="#191919" stroke-linecap="round" stroke-linejoin="round"/>
<path d="M3.86963 10.5652H11.5218" stroke="#191919" stroke-linecap="round" stroke-linejoin="round"/>
<path d="M3.86963 16.3044H7.69572" stroke="#191919" stroke-linecap="round" stroke-linejoin="round"/>
<path d="M3.86963 19.1739H7.69572" stroke="#191919" stroke-linecap="round" stroke-linejoin="round"/>
<path d="M9.60889 22.5218C9.60889 22.6486 9.65928 22.7703 9.74897 22.86C9.83865 22.9496 9.9603 23 10.0871 23H22.5219C22.6488 23 22.7704 22.9496 22.8602 22.86C22.9498 22.7703 23.0002 22.6486 23.0002 22.5218V16.3044C23.0002 16.0507 22.8994 15.8074 22.72 15.628C22.5407 15.4487 22.2973 15.3478 22.0437 15.3478H10.5654C10.3117 15.3478 10.0684 15.4487 9.88904 15.628C9.70967 15.8074 9.60889 16.0507 9.60889 16.3044V22.5218Z" fill="#E3E3E3"/>
<path d="M22.0437 15.3478H10.5654C10.3117 15.3478 10.0684 15.4487 9.88904 15.628C9.70967 15.8074 9.60889 16.0507 9.60889 16.3044V18.2174C9.60889 17.9637 9.70967 17.7204 9.88904 17.541C10.0684 17.3617 10.3117 17.2609 10.5654 17.2609H22.0437C22.2973 17.2609 22.5407 17.3617 22.72 17.541C22.8994 17.7204 23.0002 17.9637 23.0002 18.2174V16.3044C23.0002 16.0507 22.8994 15.8074 22.72 15.628C22.5407 15.4487 22.2973 15.3478 22.0437 15.3478Z" fill="white"/>
<path d="M9.60889 22.5218C9.60889 22.6486 9.65928 22.7703 9.74897 22.86C9.83865 22.9496 9.9603 23 10.0871 23H22.5219C22.6488 23 22.7704 22.9496 22.8602 22.86C22.9498 22.7703 23.0002 22.6486 23.0002 22.5218V16.3044C23.0002 16.0507 22.8994 15.8074 22.72 15.628C22.5407 15.4487 22.2973 15.3478 22.0437 15.3478H10.5654C10.3117 15.3478 10.0684 15.4487 9.88904 15.628C9.70967 15.8074 9.60889 16.0507 9.60889 16.3044V22.5218Z" stroke="#191919" stroke-linecap="round" stroke-linejoin="round"/>
<path d="M1.95652 6.26086C1.70283 6.26086 1.45954 6.36164 1.28016 6.54102C1.10078 6.72041 1 6.9637 1 7.21739V22.5217C1 22.6486 1.05039 22.7702 1.14008 22.86C1.22977 22.9496 1.35142 23 1.47826 23H7.69565" stroke="#191919" stroke-linecap="round" stroke-linejoin="round"/>
<path d="M14.3911 13.4348V7.21739C14.3911 6.9637 14.2903 6.72041 14.1109 6.54102C13.9316 6.36164 13.6882 6.26086 13.4346 6.26086" stroke="#191919" stroke-linecap="round" stroke-linejoin="round"/>
<path d="M17.2607 21.0869H15.3477V23H17.2607V21.0869Z" fill="#66E1FF" stroke="#191919" stroke-linecap="round" stroke-linejoin="round"/>
<path d="M11.522 19.1739H12.4785" stroke="#191919" stroke-linecap="round" stroke-linejoin="round"/>
<path d="M12.4785 17.2609H11.522" stroke="#191919" stroke-linecap="round" stroke-linejoin="round"/>
<path d="M14.3911 19.1739H15.3476" stroke="#191919" stroke-linecap="round" stroke-linejoin="round"/>
<path d="M15.3476 17.2609H14.3911" stroke="#191919" stroke-linecap="round" stroke-linejoin="round"/>
<path d="M17.2607 19.1739H18.2173" stroke="#191919" stroke-linecap="round" stroke-linejoin="round"/>
<path d="M18.2173 17.2609H17.2607" stroke="#191919" stroke-linecap="round" stroke-linejoin="round"/>
<path d="M20.1304 19.1739H21.0869" stroke="#191919" stroke-linecap="round" stroke-linejoin="round"/>
<path d="M21.0869 17.2609H20.1304" stroke="#191919" stroke-linecap="round" stroke-linejoin="round"/>
<path d="M7.69572 8.65217C9.80881 8.65217 11.5218 6.93918 11.5218 4.82609C11.5218 2.713 9.80881 1 7.69572 1C5.58263 1 3.86963 2.713 3.86963 4.82609C3.86963 6.93918 5.58263 8.65217 7.69572 8.65217Z" fill="#FF808C"/>
<path d="M7.69538 1.00001C6.92948 0.998348 6.18077 1.22712 5.5466 1.65657C4.91241 2.08603 4.42207 2.69632 4.13931 3.40813C3.85655 4.11993 3.79444 4.90034 3.96105 5.64791C4.12766 6.39548 4.51529 7.07564 5.07356 7.60001L10.4693 2.20427C10.1139 1.82452 9.6843 1.52171 9.20718 1.31458C8.73006 1.10744 8.21552 1.00038 7.69538 1.00001Z" fill="#FFBFC5"/>
<path d="M7.69572 8.65217C9.80881 8.65217 11.5218 6.93918 11.5218 4.82609C11.5218 2.713 9.80881 1 7.69572 1C5.58263 1 3.86963 2.713 3.86963 4.82609C3.86963 6.93918 5.58263 8.65217 7.69572 8.65217Z" stroke="#191919" stroke-linecap="round" stroke-linejoin="round"/>
<path d="M7.6958 2.91306V6.73914" stroke="#191919" stroke-linecap="round" stroke-linejoin="round"/>
<path d="M9.6088 4.82608H5.78271" stroke="#191919" stroke-linecap="round" stroke-linejoin="round"/>
</g>
<defs>
<clipPath id="clip0_5303_7720">
<rect width="24" height="24" fill="white"/>
</clipPath>
</defs>
</svg>
