<svg width="24" height="24" viewBox="0 0 24 24" fill="none" xmlns="http://www.w3.org/2000/svg">
<g clip-path="url(#clip0_5303_7944)">
<path d="M20.1305 8.42261V22.0435C20.1305 22.2972 20.0297 22.5405 19.8503 22.7198C19.671 22.8992 19.4277 23 19.174 23H4.82615C4.57247 23 4.32917 22.8992 4.14979 22.7198C3.97041 22.5405 3.86963 22.2972 3.86963 22.0435V8.42261L12.0001 1L20.1305 8.42261Z" fill="#FFBFC5"/>
<path d="M12.0001 1L3.86963 8.42261V12.2487L12.0001 4.82609L20.1305 12.2487V8.42261L12.0001 1Z" fill="#FF808C"/>
<path d="M20.1305 8.42261V22.0435C20.1305 22.2972 20.0297 22.5405 19.8503 22.7198C19.671 22.8992 19.4277 23 19.174 23H4.82615C4.57247 23 4.32917 22.8992 4.14979 22.7198C3.97041 22.5405 3.86963 22.2972 3.86963 22.0435V8.42261L12.0001 1L20.1305 8.42261Z" stroke="#191919" stroke-linecap="round" stroke-linejoin="round"/>
<path d="M16.3045 12.9565C16.3045 12.8297 16.2541 12.708 16.1644 12.6183C16.0747 12.5287 15.9531 12.4783 15.8262 12.4783H13.4349V10.087C13.4349 9.96012 13.3845 9.83847 13.2949 9.74878C13.2052 9.65909 13.0835 9.6087 12.9567 9.6087H11.0436C10.9168 9.6087 10.7951 9.65909 10.7054 9.74878C10.6158 9.83847 10.5654 9.96012 10.5654 10.087V12.4783H8.17406C8.04722 12.4783 7.92557 12.5287 7.83588 12.6183C7.74619 12.708 7.6958 12.8297 7.6958 12.9565V14.8696C7.6958 14.9964 7.74619 15.1181 7.83588 15.2078C7.92557 15.2974 8.04722 15.3478 8.17406 15.3478H10.5654V17.7391C10.5654 17.866 10.6158 17.9876 10.7054 18.0773C10.7951 18.167 10.9168 18.2174 11.0436 18.2174H12.9567C13.0835 18.2174 13.2052 18.167 13.2949 18.0773C13.3845 17.9876 13.4349 17.866 13.4349 17.7391V15.3478H15.8262C15.9531 15.3478 16.0747 15.2974 16.1644 15.2078C16.2541 15.1181 16.3045 14.9964 16.3045 14.8696V12.9565Z" fill="white" stroke="#191919" stroke-linecap="round" stroke-linejoin="round"/>
<path d="M22.9999 11.0435L20.1304 8.42261" stroke="#191919" stroke-linecap="round" stroke-linejoin="round"/>
<path d="M3.86957 8.42261L1 11.0435" stroke="#191919" stroke-linecap="round" stroke-linejoin="round"/>
</g>
<defs>
<clipPath id="clip0_5303_7944">
<rect width="24" height="24" fill="white"/>
</clipPath>
</defs>
</svg>
