<svg width="24" height="24" viewBox="0 0 24 24" fill="none" xmlns="http://www.w3.org/2000/svg">
<path d="M21.0871 1.95651H6.73924C6.21097 1.95651 5.78271 2.38477 5.78271 2.91303V17.2609C5.78271 17.7891 6.21097 18.2174 6.73924 18.2174H21.0871C21.6154 18.2174 22.0436 17.7891 22.0436 17.2609V2.91303C22.0436 2.38477 21.6154 1.95651 21.0871 1.95651Z" fill="#FF808C"/>
<path d="M21.0871 1.95651H6.73924C6.48555 1.95651 6.24226 2.05729 6.06287 2.23667C5.88349 2.41605 5.78271 2.65935 5.78271 2.91303V17.2609C5.7845 17.4979 5.87533 17.7256 6.03715 17.8989L21.7241 2.2119C21.5511 2.05018 21.3239 1.95909 21.0871 1.95651Z" fill="#FFBFC5"/>
<path d="M1.95654 23V1" stroke="#191919" stroke-linecap="round" stroke-linejoin="round"/>
<path d="M1.95654 4.82608H5.78263" stroke="#191919" stroke-linecap="round" stroke-linejoin="round"/>
<path d="M1.95654 15.3478H5.78263" stroke="#191919" stroke-linecap="round" stroke-linejoin="round"/>
<path d="M19.1741 8.17391C19.1741 8.04706 19.1237 7.92541 19.034 7.83573C18.9443 7.74604 18.8227 7.69565 18.6958 7.69565H16.3045V5.30434C16.3045 5.1775 16.2541 5.05585 16.1645 4.96616C16.0748 4.87647 15.9531 4.82608 15.8263 4.82608H12.0002C11.8733 4.82608 11.7517 4.87647 11.6619 4.96616C11.5723 5.05585 11.5219 5.1775 11.5219 5.30434V7.69565H9.1306C9.00376 7.69565 8.88211 7.74604 8.79243 7.83573C8.70273 7.92541 8.65234 8.04706 8.65234 8.17391V12C8.65234 12.1268 8.70273 12.2485 8.79243 12.3382C8.88211 12.4278 9.00376 12.4783 9.1306 12.4783H11.5219V14.8696C11.5219 14.9964 11.5723 15.1181 11.6619 15.2078C11.7517 15.2974 11.8733 15.3478 12.0002 15.3478H15.8263C15.9531 15.3478 16.0748 15.2974 16.1645 15.2078C16.2541 15.1181 16.3045 14.9964 16.3045 14.8696V12.4783H18.6958C18.8227 12.4783 18.9443 12.4278 19.034 12.3382C19.1237 12.2485 19.1741 12.1268 19.1741 12V8.17391Z" fill="#E3E3E3"/>
<path d="M21.0871 1.95651H6.73924C6.21097 1.95651 5.78271 2.38477 5.78271 2.91303V17.2609C5.78271 17.7891 6.21097 18.2174 6.73924 18.2174H21.0871C21.6154 18.2174 22.0436 17.7891 22.0436 17.2609V2.91303C22.0436 2.38477 21.6154 1.95651 21.0871 1.95651Z" stroke="#191919" stroke-linecap="round" stroke-linejoin="round"/>
<path d="M15.8263 4.82608H12.0002C11.8733 4.82608 11.7517 4.87647 11.6619 4.96616C11.5723 5.05585 11.5219 5.1775 11.5219 5.30434V7.69565H9.1306C9.00376 7.69565 8.88211 7.74604 8.79243 7.83573C8.70273 7.92541 8.65234 8.04706 8.65234 8.17391V12C8.65234 12.1268 8.70273 12.2485 8.79243 12.3382C8.88211 12.4278 9.00376 12.4783 9.1306 12.4783H11.4569L16.3045 7.6306V5.30434C16.3045 5.1775 16.2541 5.05585 16.1645 4.96616C16.0748 4.87647 15.9531 4.82608 15.8263 4.82608Z" fill="white"/>
<path d="M19.1741 8.17391C19.1741 8.04706 19.1237 7.92541 19.034 7.83573C18.9443 7.74604 18.8227 7.69565 18.6958 7.69565H16.3045V5.30434C16.3045 5.1775 16.2541 5.05585 16.1645 4.96616C16.0748 4.87647 15.9531 4.82608 15.8263 4.82608H12.0002C11.8733 4.82608 11.7517 4.87647 11.6619 4.96616C11.5723 5.05585 11.5219 5.1775 11.5219 5.30434V7.69565H9.1306C9.00376 7.69565 8.88211 7.74604 8.79243 7.83573C8.70273 7.92541 8.65234 8.04706 8.65234 8.17391V12C8.65234 12.1268 8.70273 12.2485 8.79243 12.3382C8.88211 12.4278 9.00376 12.4783 9.1306 12.4783H11.5219V14.8696C11.5219 14.9964 11.5723 15.1181 11.6619 15.2078C11.7517 15.2974 11.8733 15.3478 12.0002 15.3478H15.8263C15.9531 15.3478 16.0748 15.2974 16.1645 15.2078C16.2541 15.1181 16.3045 14.9964 16.3045 14.8696V12.4783H18.6958C18.8227 12.4783 18.9443 12.4278 19.034 12.3382C19.1237 12.2485 19.1741 12.1268 19.1741 12V8.17391Z" stroke="#191919" stroke-linecap="round" stroke-linejoin="round"/>
</svg>
