<svg width="24" height="24" viewBox="0 0 24 24" fill="none" xmlns="http://www.w3.org/2000/svg">
<path d="M18.8452 8.17687V3.70512C18.8452 3.5841 18.7971 3.46804 18.7115 3.38247C18.626 3.2969 18.5099 3.24882 18.3889 3.24882H16.5637C16.4427 3.24882 16.3266 3.2969 16.241 3.38247C16.1555 3.46804 16.1074 3.5841 16.1074 3.70512V5.65809L12.3092 2.16375C12.2249 2.08601 12.1145 2.04285 11.9998 2.04285C11.8851 2.04285 11.7746 2.08601 11.6904 2.16375L1.65179 11.5827C1.58409 11.645 1.53679 11.7263 1.51609 11.8159C1.4954 11.9055 1.50228 11.9993 1.53583 12.085C1.56938 12.1706 1.62803 12.2441 1.7041 12.2959C1.78016 12.3476 1.87009 12.3751 1.96208 12.3748H4.24358V21.0446C4.24358 21.2866 4.33973 21.5187 4.51087 21.6899C4.68202 21.861 4.91414 21.9571 5.15618 21.9571H18.8452C19.0873 21.9571 19.3194 21.861 19.4905 21.6899C19.6616 21.5187 19.7578 21.2866 19.7578 21.0446V12.3748H22.0393C22.1312 12.3749 22.221 12.3472 22.2969 12.2954C22.3729 12.2436 22.4314 12.1701 22.4648 12.0845C22.4983 11.9989 22.5051 11.9052 22.4843 11.8156C22.4636 11.7261 22.4163 11.6449 22.3487 11.5827L18.8452 8.17687Z" fill="#66E1FF"/>
<path d="M1.96208 12.3748H4.01177L11.6457 5.21183C11.7424 5.1234 11.8687 5.07435 11.9998 5.07435C12.1309 5.07435 12.2572 5.1234 12.3539 5.21183L16.7051 9.21541L19.8418 12.1011L20.1237 12.3748H22.0393C22.1312 12.3749 22.221 12.3473 22.2969 12.2954C22.3729 12.2436 22.4314 12.1701 22.4648 12.0845C22.4983 11.9989 22.5051 11.9052 22.4843 11.8156C22.4636 11.7261 22.4163 11.645 22.3487 11.5827L18.8452 8.17687V3.70513C18.8452 3.58411 18.7971 3.46804 18.7115 3.38247C18.626 3.2969 18.5099 3.24882 18.3889 3.24882H16.5637C16.4427 3.24882 16.3266 3.2969 16.241 3.38247C16.1555 3.46804 16.1074 3.58411 16.1074 3.70513V5.65809L12.3092 2.16465C12.2249 2.08692 12.1145 2.04376 11.9998 2.04376C11.8851 2.04376 11.7746 2.08692 11.6904 2.16465L1.65179 11.5827C1.58409 11.645 1.53679 11.7263 1.51609 11.8159C1.4954 11.9055 1.50228 11.9993 1.53583 12.085C1.56938 12.1706 1.62803 12.2441 1.7041 12.2959C1.78016 12.3476 1.87009 12.3751 1.96208 12.3748Z" fill="#C2F3FF"/>
<path d="M18.8452 8.17687V3.70512C18.8452 3.5841 18.7971 3.46804 18.7115 3.38247C18.626 3.2969 18.5099 3.24882 18.3889 3.24882H16.5637C16.4427 3.24882 16.3266 3.2969 16.241 3.38247C16.1555 3.46804 16.1074 3.5841 16.1074 3.70512V5.65809L12.3092 2.16375C12.2249 2.08601 12.1145 2.04285 11.9998 2.04285C11.8851 2.04285 11.7746 2.08601 11.6904 2.16375L1.65179 11.5827C1.58409 11.645 1.53679 11.7263 1.51609 11.8159C1.4954 11.9055 1.50228 11.9993 1.53583 12.085C1.56938 12.1706 1.62803 12.2441 1.7041 12.2959C1.78016 12.3476 1.87009 12.3751 1.96208 12.3748H4.24358V21.0446C4.24358 21.2866 4.33973 21.5187 4.51087 21.6899C4.68202 21.861 4.91414 21.9571 5.15618 21.9571H18.8452C19.0873 21.9571 19.3194 21.861 19.4905 21.6899C19.6616 21.5187 19.7578 21.2866 19.7578 21.0446V12.3748H22.0393C22.1312 12.3749 22.221 12.3472 22.2969 12.2954C22.3729 12.2436 22.4314 12.1701 22.4648 12.0845C22.4983 11.9989 22.5051 11.9052 22.4843 11.8156C22.4636 11.7261 22.4163 11.6449 22.3487 11.5827L18.8452 8.17687Z" stroke="#191919" stroke-linecap="round" stroke-linejoin="round"/>
</svg>
