<svg width="24" height="24" viewBox="0 0 24 24" fill="none" xmlns="http://www.w3.org/2000/svg">
<g clip-path="url(#clip0_5303_5449)">
<path d="M17.2609 10.5653H14.8696V15.8261H17.2609V10.5653Z" fill="#E3E3E3"/>
<path d="M19.1739 16.7827L12 10.5653L4.82617 16.7827H7.21746C7.3443 16.7827 7.46595 16.8331 7.55564 16.9227C7.64533 17.0124 7.69572 17.1341 7.69572 17.2609V22.5217C7.69572 22.6486 7.74611 22.7703 7.8358 22.86C7.92548 22.9496 8.04713 23 8.17398 23H15.8261C15.9529 23 16.0746 22.9496 16.1643 22.86C16.2539 22.7703 16.3044 22.6486 16.3044 22.5217V17.2609C16.3044 17.1341 16.3548 17.0124 16.4444 16.9227C16.5341 16.8331 16.6558 16.7827 16.7826 16.7827H19.1739Z" fill="#FFBC44"/>
<path d="M11.6873 12.75C11.7741 12.6749 11.8852 12.6335 12 12.6335C12.1149 12.6335 12.226 12.6749 12.3128 12.75L16.9663 16.7827H19.1739L12 10.5653L4.82617 16.7827H7.03381L11.6873 12.75Z" fill="#FFDDA1"/>
<path d="M7.6958 18.2174V22.5217C7.6958 22.6486 7.74619 22.7702 7.83588 22.8599C7.92557 22.9496 8.04722 23 8.17406 23H15.8262C15.953 23 16.0747 22.9496 16.1644 22.8599C16.254 22.7702 16.3044 22.6486 16.3044 22.5217V18.2174" stroke="#191919" stroke-linecap="round" stroke-linejoin="round"/>
<path d="M4.82617 16.7827L12 10.5653L19.1739 16.7827" stroke="#191919" stroke-linecap="round" stroke-linejoin="round"/>
<path d="M15.3481 10.5653H16.7829C16.9098 10.5653 17.0314 10.6157 17.1211 10.7053C17.2108 10.7951 17.2612 10.9167 17.2612 11.0436V12.4783" stroke="#191919" stroke-linecap="round" stroke-linejoin="round"/>
<path d="M13.435 19.6522C13.435 19.5254 13.3846 19.4037 13.2949 19.314C13.2052 19.2244 13.0836 19.174 12.9567 19.174H11.0437C10.9169 19.174 10.7952 19.2244 10.7055 19.314C10.6158 19.4037 10.5654 19.5254 10.5654 19.6522V23H13.435V19.6522Z" fill="#C77F67" stroke="#191919" stroke-linecap="round" stroke-linejoin="round"/>
<path d="M15.2608 7.69577C14.3844 6.853 13.2158 6.38226 12 6.38226C10.7842 6.38226 9.6156 6.853 8.73926 7.69577" stroke="#191919" stroke-linecap="round" stroke-linejoin="round"/>
<path d="M17.2178 5.79325C15.8156 4.44452 13.9456 3.69116 12 3.69116C10.0544 3.69116 8.18444 4.44452 6.78223 5.79325" stroke="#191919" stroke-linecap="round" stroke-linejoin="round"/>
<path d="M19.1739 3.88976C17.2459 2.03564 14.6749 1 12 1C9.32516 1 6.75417 2.03564 4.82617 3.88976" stroke="#191919" stroke-linecap="round" stroke-linejoin="round"/>
</g>
<defs>
<clipPath id="clip0_5303_5449">
<rect width="24" height="24" fill="white"/>
</clipPath>
</defs>
</svg>
