<svg width="24" height="24" viewBox="0 0 24 24" fill="none" xmlns="http://www.w3.org/2000/svg">
<g clip-path="url(#clip0_5303_1680)">
<path d="M1.62549 8.8943L11.3785 0.9989C11.5544 0.8566 11.7737 0.7789 12 0.7789C12.2262 0.7789 12.4456 0.8566 12.6215 0.9989L22.3745 8.8943" stroke="#191919" stroke-linecap="round" stroke-linejoin="round"/>
<path d="M11.3704 4.96779L2.9938 11.8841C2.7671 12.0945 2.6307 12.3846 2.6134 12.6934V22.233C2.6134 22.495 2.7175 22.7464 2.9028 22.9317C3.0881 23.117 3.3394 23.2211 3.6014 23.2211H9.5297V15.8107C9.5297 15.6796 9.5818 15.554 9.6744 15.4614C9.767 15.3687 9.8927 15.3166 10.0237 15.3166H13.976C14.1069 15.3166 14.2326 15.3687 14.3253 15.4614C14.4179 15.554 14.4699 15.6796 14.4699 15.8107V23.2211H20.3982C20.6603 23.2211 20.9116 23.1169 21.0969 22.9317C21.2822 22.7465 21.3863 22.495 21.3863 22.233V12.6963C21.369 12.3876 21.2326 12.0975 21.0059 11.8871L12.6293 4.97079C12.4525 4.82399 12.2301 4.74349 12.0003 4.74289C11.7706 4.74239 11.5478 4.82189 11.3704 4.96779Z" fill="#B2F0FF"/>
<path d="M11.075 8.73328C11.3352 8.51818 11.6622 8.40049 11.9998 8.40049C12.3374 8.40049 12.6644 8.51818 12.9246 8.73328L21.3863 15.7228V12.6964C21.3689 12.3876 21.2326 12.0976 21.0059 11.8872L12.6292 4.97078C12.4522 4.82448 12.2296 4.74438 11.9998 4.74438C11.7701 4.74438 11.5475 4.82448 11.3704 4.97078L2.9938 11.8871C2.7671 12.0975 2.6307 12.3876 2.6134 12.6964V15.7227L11.075 8.73328Z" fill="#66E1FF"/>
<path d="M11.3704 4.96779L2.9938 11.8841C2.7671 12.0945 2.6307 12.3846 2.6134 12.6934V22.233C2.6134 22.495 2.7175 22.7464 2.9028 22.9317C3.0881 23.117 3.3394 23.2211 3.6014 23.2211H9.5297V15.8107C9.5297 15.6796 9.5818 15.554 9.6744 15.4614C9.767 15.3687 9.8927 15.3166 10.0237 15.3166H13.976C14.1069 15.3166 14.2326 15.3687 14.3253 15.4614C14.4179 15.554 14.4699 15.6796 14.4699 15.8107V23.2211H20.3982C20.6603 23.2211 20.9116 23.1169 21.0969 22.9317C21.2822 22.7465 21.3863 22.495 21.3863 22.233V12.6963C21.369 12.3876 21.2326 12.0975 21.0059 11.8871L12.6293 4.97079C12.4525 4.82399 12.2301 4.74349 12.0003 4.74289C11.7706 4.74239 11.5478 4.82189 11.3704 4.96779Z" stroke="#191919" stroke-linecap="round" stroke-linejoin="round"/>
</g>
<defs>
<clipPath id="clip0_5303_1680">
<rect width="24" height="24" fill="white"/>
</clipPath>
</defs>
</svg>
