<svg width="24" height="24" viewBox="0 0 24 24" fill="none" xmlns="http://www.w3.org/2000/svg">
<g clip-path="url(#clip0_5303_9980)">
<path d="M20.1161 23L20.5935 17.2709H22.9806V13.9289C22.9806 12.6626 22.4776 11.4483 21.5823 10.553C20.687 9.65762 19.4726 9.1546 18.2064 9.1546C16.9402 9.1546 15.7258 9.65762 14.8305 10.553C13.9351 11.4483 13.4321 12.6626 13.4321 13.9289V17.2709H15.8193L16.2967 23H20.1161Z" fill="#66E1FF" stroke="#191919" stroke-linecap="round" stroke-linejoin="round"/>
<path d="M18.2068 7.72228C18.8677 7.72228 19.5139 7.52631 20.0634 7.15905C20.6131 6.79189 21.0415 6.26994 21.2943 5.65928C21.5473 5.04861 21.6135 4.37666 21.4845 3.72832C21.3556 3.08008 21.0374 2.48454 20.57 2.01715C20.1025 1.54976 19.507 1.23149 18.8587 1.10247C18.2105 0.973543 17.5384 1.03972 16.9279 1.29269C16.3172 1.54566 15.7951 1.97401 15.428 2.52358C15.0608 3.07315 14.8647 3.71934 14.8647 4.38027C14.8647 5.26664 15.2168 6.11672 15.8435 6.74348C16.4703 7.37025 17.3204 7.72228 18.2068 7.72228Z" fill="#FFDDA1" stroke="#191919" stroke-linecap="round" stroke-linejoin="round"/>
<path d="M18.207 11.0643V13.9288" stroke="#191919" stroke-linecap="round" stroke-linejoin="round"/>
<path d="M19.321 4.38204C20.0713 4.38204 20.8138 4.23038 21.5039 3.93612C21.4154 3.24748 21.1131 2.60392 20.6399 2.09593C20.1666 1.58784 19.5459 1.24098 18.8653 1.10395C18.1846 0.967022 17.4781 1.04676 16.8451 1.33213C16.2122 1.61751 15.6845 2.09407 15.3364 2.69488C15.8538 3.22864 16.4731 3.65299 17.1576 3.94285C17.8419 4.23262 18.5778 4.38204 19.321 4.38204Z" fill="#C77F67" stroke="#191919" stroke-linecap="round" stroke-linejoin="round"/>
<path d="M6.74867 12.4583C7.88178 12.4583 8.98941 12.1223 9.93161 11.4928C10.8737 10.8633 11.6081 9.9684 12.0418 8.92157C12.4753 7.87475 12.5888 6.72281 12.3677 5.61147C12.1467 4.50013 11.6011 3.47927 10.7997 2.67799C9.99856 1.87682 8.97769 1.33115 7.86636 1.1101C6.75502 0.889038 5.60308 1.00245 4.55616 1.43607C3.50933 1.8697 2.61456 2.60402 1.98506 3.54622C1.35546 4.48832 1.01953 5.59605 1.01953 6.72915C1.01953 8.24864 1.62307 9.70586 2.69752 10.7802C3.77196 11.8547 5.22919 12.4583 6.74867 12.4583Z" fill="#E3E3E3"/>
<path d="M6.74852 1C5.58252 1.00059 4.44444 1.35681 3.48633 2.02126C2.52822 2.6857 1.79566 3.62663 1.38643 4.71835C0.977209 5.81017 0.910843 7.00085 1.19622 8.13132C1.48159 9.26179 2.10514 10.2784 2.98342 11.0451L11.0597 2.96892C10.524 2.35104 9.86196 1.85544 9.11807 1.5158C8.37429 1.17607 7.56628 1.0002 6.74852 1Z" fill="white"/>
<path d="M6.74867 12.4583C7.88178 12.4583 8.98941 12.1223 9.93161 11.4928C10.8737 10.8633 11.6081 9.9684 12.0418 8.92157C12.4753 7.87475 12.5888 6.72281 12.3677 5.61147C12.1467 4.50013 11.6011 3.47927 10.7997 2.67799C9.99856 1.87682 8.97769 1.33115 7.86636 1.1101C6.75502 0.889038 5.60308 1.00245 4.55616 1.43607C3.50933 1.8697 2.61456 2.60402 1.98506 3.54622C1.35546 4.48832 1.01953 5.59605 1.01953 6.72915C1.01953 8.24864 1.62307 9.70586 2.69752 10.7802C3.77196 11.8547 5.22919 12.4583 6.74867 12.4583Z" stroke="#191919" stroke-linecap="round" stroke-linejoin="round"/>
<path d="M8.65822 6.72529H6.74854V3.86072" stroke="#191919" stroke-linecap="round" stroke-linejoin="round"/>
</g>
<defs>
<clipPath id="clip0_5303_9980">
<rect width="24" height="24" fill="white"/>
</clipPath>
</defs>
</svg>
