<svg width="24" height="24" viewBox="0 0 24 24" fill="none" xmlns="http://www.w3.org/2000/svg">
<g clip-path="url(#clip0_5303_10426)">
<path d="M15.4186 15.516V15.7453C15.2753 15.7453 15.1416 15.7357 14.9982 15.7262C13.7977 15.6192 12.6867 15.0466 11.903 14.1308C11.1143 15.0452 10.001 15.6173 8.7983 15.7262C8.65496 15.7357 8.52127 15.7453 8.37793 15.7453V15.516C8.37793 12.806 11.3115 11.1123 13.6584 12.4673C14.7476 13.0961 15.4186 14.2583 15.4186 15.516Z" fill="#C77F67" stroke="#191919" stroke-linecap="round" stroke-linejoin="round"/>
<path d="M8.37835 15.7453V16.1847C8.40682 17.0654 8.1778 17.9352 7.71924 18.6876" stroke="#191919" stroke-linecap="round" stroke-linejoin="round"/>
<path d="M15.4184 15.7453V16.1847C15.387 17.0644 15.6128 17.9342 16.0681 18.6876" stroke="#191919" stroke-linecap="round" stroke-linejoin="round"/>
<path d="M14.9978 15.7262C14.8653 18.1126 12.1992 19.4606 10.1988 18.1527C9.37264 17.6125 8.85254 16.7117 8.79785 15.7262C10.0006 15.6173 11.1138 15.0452 11.9026 14.1308C12.6862 15.0467 13.7972 15.6193 14.9978 15.7262Z" fill="#FFDDA1" stroke="#191919" stroke-linecap="round" stroke-linejoin="round"/>
<path d="M16.561 22.9865C14.7451 19.3963 9.72353 19.1183 7.52232 22.4861C7.41683 22.6475 7.32043 22.8145 7.2334 22.9865" fill="#FF808C"/>
<path d="M16.561 22.9865C14.7451 19.3963 9.72353 19.1183 7.52232 22.4861C7.41683 22.6475 7.32043 22.8145 7.2334 22.9865" stroke="#191919" stroke-linecap="round" stroke-linejoin="round"/>
<path d="M16.2962 9.07717L17.1559 9.6752L16.2379 11.7854C16.0899 12.1412 16.3824 12.5238 16.7646 12.4742C16.8302 12.4657 16.8933 12.4443 16.9505 12.4112L19.1707 11.1626L21.3909 12.4112C21.7256 12.6034 22.143 12.3612 22.1421 11.9751C22.142 11.91 22.1292 11.8456 22.1045 11.7854L21.1854 9.6752L22.8439 8.51923C23.1125 8.27905 23.0204 7.83814 22.6781 7.72562C22.6257 7.70832 22.5704 7.70048 22.5152 7.70246H20.6046L19.6235 5.10972C19.4455 4.76304 18.9589 4.73899 18.7476 5.06647C18.7386 5.08053 18.7303 5.09494 18.7226 5.10972L17.7406 7.70147H16.7738" fill="#FFEF5E"/>
<path d="M20.6087 7.7015L19.6239 5.10975C19.4458 4.76299 18.9593 4.73902 18.7479 5.0665C18.7389 5.08056 18.7306 5.09497 18.7229 5.10975L17.7409 7.7015H16.7742L16.2965 9.07621L17.1563 9.67424L16.2382 11.7845C16.197 11.8863 16.1909 11.999 16.221 12.1045L20.6288 7.7015H20.6087Z" fill="#FFF9BF"/>
<path d="M7.69859 9.07724L6.83885 9.67526L7.75778 11.7855C7.90589 12.1413 7.61327 12.5239 7.23111 12.4742C7.16561 12.4658 7.10237 12.4443 7.04516 12.4113L4.83269 11.1627L2.60968 12.4113C2.27778 12.6056 1.85994 12.3677 1.85759 11.9831C1.85714 11.9153 1.87057 11.848 1.89696 11.7855L2.81599 9.67517L1.15758 8.5193C0.888027 8.2801 0.978569 7.83884 1.32047 7.72505C1.37479 7.70694 1.43191 7.69901 1.48912 7.70154H3.39969L4.38367 5.10888C4.56331 4.76212 5.05089 4.73986 5.26134 5.0687C5.26972 5.08176 5.27738 5.0951 5.2845 5.10888L6.26559 7.70154H7.22093" fill="#FFEF5E"/>
<path d="M1.87968 11.9909L6.23678 7.63366L5.28145 5.10975C5.10352 4.76299 4.61684 4.73902 4.40558 5.0665C4.39657 5.08056 4.38828 5.09497 4.38062 5.10975L3.39952 7.7015H1.48895C1.12876 7.68871 0.889843 8.07052 1.05876 8.38881C1.08471 8.43764 1.11903 8.48143 1.1603 8.51827L2.8187 9.67424L1.89968 11.7845C1.87824 11.851 1.87148 11.9214 1.87968 11.9909Z" fill="#FFF9BF"/>
<path d="M12.459 1.28858L13.441 3.88034H15.3517C15.7118 3.86673 15.9515 4.24809 15.7832 4.56674C15.7573 4.61593 15.7227 4.66008 15.6813 4.69711L14.0228 5.85397L14.9419 7.96428C15.0899 8.32005 14.7973 8.70267 14.4152 8.65303C14.3496 8.64447 14.2864 8.62312 14.2292 8.59005L12.009 7.34147L9.78791 8.59005C9.4543 8.78285 9.03709 8.54221 9.0369 8.15689C9.03681 8.09077 9.04988 8.02527 9.07528 7.96428L9.99143 5.85397L8.3359 4.6981C8.06563 4.4608 8.15356 4.01998 8.49419 3.90457C8.54897 3.88601 8.60672 3.87781 8.66447 3.88034H10.5751L11.5581 1.28858C11.7361 0.941817 12.2227 0.917853 12.434 1.24534C12.4431 1.25939 12.4515 1.27381 12.459 1.28858Z" fill="#FFEF5E"/>
<path d="M13.4412 3.88031L12.4592 1.28855C12.2796 0.941793 11.7919 0.91954 11.5814 1.24846C11.5732 1.26144 11.5654 1.27486 11.5583 1.28855L10.5753 3.88031H8.66464C8.30455 3.86752 8.06562 4.24932 8.23455 4.56762C8.26049 4.61645 8.29482 4.66023 8.33608 4.69708L9.9916 5.85305L9.07546 7.96335C9.03393 8.07389 9.03393 8.1957 9.07546 8.30624L13.4985 3.88031H13.4412Z" fill="#FFF9BF"/>
<path d="M12.459 1.28858L13.441 3.88034H15.3517C15.7118 3.86673 15.9515 4.24809 15.7832 4.56674C15.7573 4.61593 15.7227 4.66008 15.6813 4.69711L14.0228 5.85397L14.9419 7.96428C15.0899 8.32005 14.7973 8.70267 14.4152 8.65303C14.3496 8.64447 14.2864 8.62312 14.2292 8.59005L12.009 7.34147L9.78791 8.59005C9.4543 8.78285 9.03709 8.54221 9.0369 8.15689C9.03681 8.09077 9.04988 8.02527 9.07528 7.96428L9.99143 5.85397L8.3359 4.6981C8.06563 4.4608 8.15356 4.01998 8.49419 3.90457C8.54897 3.88601 8.60672 3.87781 8.66447 3.88034H10.5751L11.5581 1.28858C11.7361 0.941817 12.2227 0.917853 12.434 1.24534C12.4431 1.25939 12.4515 1.27381 12.459 1.28858Z" stroke="#191919" stroke-linecap="round" stroke-linejoin="round"/>
<path d="M7.69859 9.07724L6.83885 9.67526L7.75778 11.7855C7.90589 12.1413 7.61327 12.5239 7.23111 12.4742C7.16561 12.4658 7.10237 12.4443 7.04516 12.4113L4.83269 11.1627L2.60968 12.4113C2.27778 12.6056 1.85994 12.3677 1.85759 11.9831C1.85714 11.9153 1.87057 11.848 1.89696 11.7855L2.81599 9.67517L1.15758 8.5193C0.888027 8.2801 0.978569 7.83884 1.32047 7.72505C1.37479 7.70694 1.43191 7.69901 1.48912 7.70154H3.39969L4.38367 5.10888C4.56331 4.76212 5.05089 4.73986 5.26134 5.0687C5.26972 5.08176 5.27738 5.0951 5.2845 5.10888L6.26559 7.70154H7.22093" stroke="#191919" stroke-linecap="round" stroke-linejoin="round"/>
<path d="M16.2962 9.07717L17.1559 9.6752L16.2379 11.7854C16.0899 12.1412 16.3824 12.5238 16.7646 12.4742C16.8302 12.4657 16.8933 12.4443 16.9505 12.4112L19.1707 11.1626L21.3909 12.4112C21.7256 12.6034 22.143 12.3612 22.1421 11.9751C22.142 11.91 22.1292 11.8456 22.1045 11.7854L21.1854 9.6752L22.8439 8.51923C23.1125 8.27905 23.0204 7.83814 22.6781 7.72562C22.6257 7.70832 22.5704 7.70048 22.5152 7.70246H20.6046L19.6235 5.10972C19.4455 4.76304 18.9589 4.73899 18.7476 5.06647C18.7386 5.08053 18.7303 5.09494 18.7226 5.10972L17.7406 7.70147H16.7738" stroke="#191919" stroke-linecap="round" stroke-linejoin="round"/>
</g>
<defs>
<clipPath id="clip0_5303_10426">
<rect width="24" height="24" fill="white"/>
</clipPath>
</defs>
</svg>
