<svg width="24" height="24" viewBox="0 0 24 24" fill="none" xmlns="http://www.w3.org/2000/svg">
<g clip-path="url(#clip0_5303_10148)">
<path d="M15.3481 19.6523H12.9568C12.8299 19.6523 12.7083 19.6019 12.6186 19.5123C12.5289 19.4226 12.4785 19.3009 12.4785 19.1741V4.82605C12.4785 4.6992 12.5289 4.57755 12.6186 4.48786C12.7083 4.39817 12.8299 4.34778 12.9568 4.34778H15.3481" stroke="#191919" stroke-linecap="round" stroke-linejoin="round"/>
<path d="M9.60889 12H12.4785" stroke="#191919" stroke-linecap="round" stroke-linejoin="round"/>
<path d="M19.652 4.82602C19.983 4.82602 20.3067 4.72785 20.5819 4.54391C20.8572 4.35998 21.0717 4.09854 21.1985 3.79267C21.3251 3.4868 21.3583 3.15023 21.2938 2.82551C21.2291 2.50081 21.0697 2.20254 20.8356 1.96843C20.6015 1.73433 20.3033 1.5749 19.9785 1.51032C19.6538 1.44572 19.3173 1.47888 19.0114 1.60557C18.7055 1.73226 18.4441 1.94682 18.2601 2.22209C18.0762 2.49737 17.978 2.82101 17.978 3.15208C17.978 3.59604 18.1544 4.02181 18.4683 4.33574C18.7823 4.64966 19.208 4.82602 19.652 4.82602Z" fill="#E3E3E3" stroke="#191919" stroke-linecap="round" stroke-linejoin="round"/>
<path d="M22.9999 8.17387C22.8103 7.42994 22.3782 6.77038 21.7719 6.29934C21.1657 5.82828 20.4198 5.57257 19.6521 5.57257C18.8844 5.57257 18.1384 5.82828 17.5322 6.29934C16.9259 6.77038 16.4939 7.42994 16.3042 8.17387H22.9999Z" fill="#E3E3E3" stroke="#191919" stroke-linecap="round" stroke-linejoin="round"/>
<path d="M19.652 19.174C19.983 19.174 20.3067 19.0759 20.5819 18.892C20.8572 18.708 21.0717 18.4466 21.1985 18.1407C21.3251 17.8348 21.3583 17.4983 21.2938 17.1735C21.2291 16.8488 21.0697 16.5506 20.8356 16.3165C20.6015 16.0823 20.3033 15.923 19.9785 15.8583C19.6538 15.7937 19.3173 15.8269 19.0114 15.9536C18.7055 16.0803 18.4441 16.2949 18.2601 16.5702C18.0762 16.8454 17.978 17.169 17.978 17.5001C17.978 17.944 18.1544 18.3698 18.4683 18.6837C18.7823 18.9977 19.208 19.174 19.652 19.174Z" fill="#E3E3E3" stroke="#191919" stroke-linecap="round" stroke-linejoin="round"/>
<path d="M22.9999 22.5219C22.8103 21.778 22.3782 21.1185 21.7719 20.6474C21.1657 20.1763 20.4198 19.9206 19.6521 19.9206C18.8844 19.9206 18.1384 20.1763 17.5322 20.6474C16.9259 21.1185 16.4939 21.778 16.3042 22.5219H22.9999Z" fill="#E3E3E3" stroke="#191919" stroke-linecap="round" stroke-linejoin="round"/>
<path d="M1 16.7826C1 15.641 1.4535 14.5461 2.26073 13.7389C3.06796 12.9317 4.16281 12.4782 5.3044 12.4782C6.446 12.4782 7.54085 12.9317 8.34808 13.7389C9.1553 14.5461 9.60881 15.641 9.60881 16.7826H1Z" fill="#66E1FF" stroke="#191919" stroke-linecap="round" stroke-linejoin="round"/>
<path d="M3.04863 7.55211L3.03906 7.54254" stroke="#191919" stroke-linecap="round" stroke-linejoin="round"/>
<path d="M7.90802 8.51813C7.09527 8.86671 6.196 8.96099 5.32862 8.78854C4.46125 8.61608 3.66643 8.185 3.04883 7.55204C3.32537 7.08349 3.7407 6.71245 4.23734 6.49025C4.73399 6.26807 5.28741 6.2057 5.82105 6.3118C6.35468 6.4179 6.84216 6.68721 7.21605 7.08247C7.58993 7.47774 7.83174 7.97943 7.90802 8.51813Z" fill="#C77F67" stroke="#191919" stroke-linecap="round" stroke-linejoin="round"/>
<path d="M7.93624 8.89127C7.93624 9.58891 7.65911 10.258 7.1658 10.7513C6.67249 11.2446 6.00342 11.5218 5.30577 11.5218C4.60813 11.5218 3.93907 11.2446 3.44575 10.7513C2.95245 10.258 2.6753 9.58891 2.6753 8.89127C2.67395 8.41905 2.80304 7.95562 3.04835 7.55212C3.66597 8.18508 4.46078 8.61616 5.32816 8.78862C6.19553 8.96107 7.0948 8.86679 7.90755 8.51822C7.92698 8.64162 7.93658 8.76636 7.93624 8.89127Z" fill="#FFDDA1" stroke="#191919" stroke-linecap="round" stroke-linejoin="round"/>
</g>
<defs>
<clipPath id="clip0_5303_10148">
<rect width="24" height="24" fill="white"/>
</clipPath>
</defs>
</svg>
