<svg width="24" height="24" viewBox="0 0 24 24" fill="none" xmlns="http://www.w3.org/2000/svg">
<g clip-path="url(#clip0_5303_8670)">
<path d="M11.9999 18.9062C15.814 18.9062 18.906 15.8142 18.906 12.0001C18.906 8.18596 15.814 5.09399 11.9999 5.09399C8.18572 5.09399 5.09375 8.18596 5.09375 12.0001C5.09375 15.8142 8.18572 18.9062 11.9999 18.9062Z" fill="#C2F3FF"/>
<path d="M12.8117 9.73862L13.0939 10.6646C13.1405 10.8184 13.2437 10.9487 13.3828 11.0294C13.5217 11.11 13.6863 11.1348 13.8428 11.0988L14.7812 10.8807C14.9591 10.8407 15.1452 10.8588 15.3121 10.9322C15.479 11.0056 15.6181 11.1304 15.7089 11.2885C15.7998 11.4466 15.8377 11.6296 15.817 11.8109C15.7964 11.992 15.7183 12.1618 15.5942 12.2954L14.9371 13.0042C14.8279 13.1224 14.7672 13.2775 14.7672 13.4385C14.7672 13.5995 14.8279 13.7545 14.9371 13.8727L15.5942 14.5815C15.7183 14.7152 15.7964 14.8849 15.817 15.0661C15.8377 15.2473 15.7998 15.4303 15.7089 15.5885C15.6181 15.7465 15.479 15.8714 15.3121 15.9448C15.1452 16.0181 14.9591 16.0362 14.7812 15.9962L13.8428 15.7781C13.6863 15.7422 13.5217 15.7669 13.3828 15.8476C13.2437 15.9282 13.1405 16.0586 13.0939 16.2124L12.8117 17.1383C12.7601 17.3139 12.6529 17.468 12.5064 17.5777C12.3598 17.6874 12.1817 17.7467 11.9987 17.7467C11.8156 17.7467 11.6375 17.6874 11.4909 17.5777C11.3444 17.468 11.2373 17.3139 11.1856 17.1383L10.9034 16.2124C10.8567 16.0587 10.7534 15.9284 10.6145 15.8479C10.4755 15.7673 10.3111 15.7424 10.1545 15.7781L9.21614 15.9962C9.03841 16.0359 8.85264 16.0177 8.68597 15.9443C8.51929 15.8709 8.38044 15.7463 8.28964 15.5884C8.19886 15.4305 8.16089 15.2477 8.18131 15.0668C8.20172 14.8859 8.27943 14.7161 8.4031 14.5825L9.06023 13.8737C9.16906 13.7553 9.22945 13.6002 9.22945 13.4394C9.22945 13.2785 9.16906 13.1236 9.06023 13.0052L8.4031 12.2964C8.27901 12.1628 8.20093 11.993 8.18029 11.8118C8.15966 11.6305 8.19754 11.4476 8.2884 11.2895C8.37926 11.1313 8.51833 11.0065 8.68526 10.9331C8.85219 10.8598 9.03823 10.8417 9.21614 10.8817L10.1545 11.0998C10.3112 11.1357 10.4756 11.111 10.6146 11.0303C10.7537 10.9497 10.8569 10.8193 10.9034 10.6655L11.1856 9.73958C11.2373 9.56398 11.3444 9.40981 11.4909 9.30015C11.6375 9.19048 11.8156 9.13123 11.9987 9.13123C12.1817 9.13123 12.3598 9.19048 12.5064 9.30015C12.6529 9.40981 12.7601 9.56302 12.8117 9.73862Z" fill="#E3E3E3" stroke="#191919" stroke-linecap="round" stroke-linejoin="round"/>
<path d="M12 14.3913C12.1892 14.3913 12.3741 14.3353 12.5314 14.2302C12.6887 14.1251 12.8113 13.9756 12.8837 13.8009C12.9561 13.6261 12.9751 13.4338 12.9381 13.2482C12.9012 13.0626 12.8102 12.8922 12.6763 12.7585C12.5426 12.6246 12.3722 12.5336 12.1866 12.4967C12.001 12.4597 11.8087 12.4787 11.6339 12.5511C11.4592 12.6235 11.3098 12.7461 11.2046 12.9034C11.0995 13.0607 11.0435 13.2456 11.0435 13.4348C11.0435 13.6885 11.1443 13.9318 11.3236 14.1112C11.503 14.2905 11.7463 14.3913 12 14.3913Z" fill="white" stroke="#191919" stroke-linecap="round" stroke-linejoin="round"/>
<path d="M12.0001 4.34784C12.3311 4.34784 12.6548 4.24967 12.93 4.06573C13.2053 3.8818 13.4199 3.62037 13.5466 3.3145C13.6732 3.00864 13.7064 2.67206 13.6419 2.34735C13.5773 2.02265 13.4179 1.72439 13.1837 1.49028C12.9496 1.25618 12.6514 1.09675 12.3266 1.03217C12.0019 0.967573 11.6654 1.00073 11.3595 1.12742C11.0536 1.25412 10.7922 1.46867 10.6083 1.74394C10.4243 2.01922 10.3262 2.34285 10.3262 2.67392C10.3262 3.11787 10.5026 3.54364 10.8165 3.85756C11.1304 4.17148 11.5562 4.34784 12.0001 4.34784Z" fill="#FFDDA1" stroke="#191919" stroke-linecap="round" stroke-linejoin="round"/>
<path d="M15.3475 7.69563C15.1579 6.95171 14.7258 6.29216 14.1195 5.82112C13.5133 5.35007 12.7674 5.09436 11.9997 5.09436C11.232 5.09436 10.4861 5.35007 9.87987 5.82112C9.27363 6.29216 8.84155 6.95171 8.65186 7.69563" fill="#78EB7B"/>
<path d="M15.3475 7.69563C15.1579 6.95171 14.7258 6.29216 14.1195 5.82112C13.5133 5.35007 12.7674 5.09436 11.9997 5.09436C11.232 5.09436 10.4861 5.35007 9.87987 5.82112C9.27363 6.29216 8.84155 6.95171 8.65186 7.69563" stroke="#191919" stroke-linecap="round" stroke-linejoin="round"/>
<path d="M19.6515 19.6522C19.9825 19.6522 20.3062 19.554 20.5814 19.3701C20.8567 19.1861 21.0712 18.9247 21.198 18.6188C21.3246 18.3129 21.3578 17.9764 21.2932 17.6517C21.2286 17.3269 21.0692 17.0287 20.8351 16.7946C20.601 16.5605 20.3028 16.4011 19.978 16.3365C19.6533 16.2719 19.3168 16.3051 19.0109 16.4317C18.705 16.5585 18.4436 16.773 18.2596 17.0483C18.0757 17.3235 17.9775 17.6472 17.9775 17.9782C17.9775 18.4222 18.1539 18.8479 18.4679 19.1618C18.7818 19.4758 19.2075 19.6522 19.6515 19.6522Z" fill="#FFDDA1" stroke="#191919" stroke-linecap="round" stroke-linejoin="round"/>
<path d="M22.9999 23C22.8102 22.2561 22.3781 21.5965 21.7719 21.1254C21.1656 20.6544 20.4197 20.3987 19.652 20.3987C18.8843 20.3987 18.1384 20.6544 17.5322 21.1254C16.9259 21.5965 16.4939 22.2561 16.3042 23" fill="#78EB7B"/>
<path d="M22.9999 23C22.8102 22.2561 22.3781 21.5965 21.7719 21.1254C21.1656 20.6544 20.4197 20.3987 19.652 20.3987C18.8843 20.3987 18.1384 20.6544 17.5322 21.1254C16.9259 21.5965 16.4939 22.2561 16.3042 23" stroke="#191919" stroke-linecap="round" stroke-linejoin="round"/>
<path d="M4.34775 19.6522C4.67882 19.6522 5.00245 19.554 5.27773 19.3701C5.553 19.1861 5.76756 18.9247 5.89425 18.6188C6.02094 18.3129 6.05409 17.9764 5.9895 17.6517C5.92491 17.3269 5.76549 17.0287 5.53139 16.7946C5.29728 16.5605 4.99903 16.4011 4.67431 16.3365C4.3496 16.2719 4.01303 16.3051 3.70716 16.4317C3.40129 16.5585 3.13987 16.773 2.95594 17.0483C2.77201 17.3235 2.67383 17.6472 2.67383 17.9782C2.67383 18.4222 2.85018 18.8479 3.1641 19.1618C3.47803 19.4758 3.9038 19.6522 4.34775 19.6522Z" fill="#FFDDA1" stroke="#191919" stroke-linecap="round" stroke-linejoin="round"/>
<path d="M7.69567 23C7.50598 22.2561 7.0739 21.5965 6.46766 21.1254C5.86142 20.6544 5.11556 20.3987 4.34784 20.3987C3.58011 20.3987 2.83425 20.6544 2.22802 21.1254C1.62177 21.5965 1.1897 22.2561 1 23" fill="#78EB7B"/>
<path d="M7.69567 23C7.50598 22.2561 7.0739 21.5965 6.46766 21.1254C5.86142 20.6544 5.11556 20.3987 4.34784 20.3987C3.58011 20.3987 2.83425 20.6544 2.22802 21.1254C1.62177 21.5965 1.1897 22.2561 1 23" stroke="#191919" stroke-linecap="round" stroke-linejoin="round"/>
<path d="M14.9173 20.6086C13.0247 21.2466 10.9751 21.2466 9.08252 20.6086" stroke="#191919" stroke-linecap="round" stroke-linejoin="round"/>
<path d="M16.0625 3.86963C17.7908 4.73578 19.1985 6.12975 20.0813 7.84956C20.9643 9.56936 21.2767 11.5257 20.9733 13.4349" stroke="#191919" stroke-linecap="round" stroke-linejoin="round"/>
<path d="M3.02537 13.4349C2.72195 11.5254 3.03455 9.56891 3.91787 7.84906C4.80119 6.1292 6.20931 4.73537 7.93808 3.86963" stroke="#191919" stroke-linecap="round" stroke-linejoin="round"/>
</g>
<defs>
<clipPath id="clip0_5303_8670">
<rect width="24" height="24" fill="white"/>
</clipPath>
</defs>
</svg>
