<svg width="24" height="24" viewBox="0 0 24 24" fill="none" xmlns="http://www.w3.org/2000/svg">
<g clip-path="url(#clip0_5303_9969)">
<path d="M13.4351 16.3047C13.4351 16.0512 13.5359 15.8078 13.7152 15.6285C13.8945 15.4491 14.1379 15.3483 14.3915 15.3483H22.0432C22.2968 15.3483 22.5401 15.4492 22.7195 15.6285C22.8989 15.8077 22.9996 16.0512 22.9996 16.3047V22.0436C22.9996 22.2972 22.8988 22.5406 22.7195 22.7199C22.5402 22.8992 22.2968 23 22.0432 23H14.3915C14.1379 23 13.8946 22.8992 13.7152 22.7199C13.5358 22.5406 13.4351 22.2972 13.4351 22.0436V16.3047Z" fill="#FFBC44"/>
<path d="M22.0432 15.3483H14.3916C14.1379 15.3483 13.8946 15.4492 13.7152 15.6285C13.5358 15.8077 13.4351 16.0512 13.4351 16.3047V22.0436C13.4351 22.2972 13.5359 22.5406 13.7152 22.7199C13.8945 22.8992 14.1379 23 14.3916 23H14.6603L22.267 15.3933C22.1946 15.3691 22.1194 15.354 22.0432 15.3483Z" fill="#FFDDA1"/>
<path d="M5.78267 7.69662C6.44472 7.69662 7.09193 7.50024 7.64251 7.13247C8.193 6.7646 8.62206 6.24173 8.87544 5.63005C9.12882 5.01837 9.1951 4.34529 9.06597 3.69593C8.93674 3.04658 8.61797 2.45002 8.14976 1.98191C7.68155 1.51371 7.0851 1.19484 6.43574 1.06571C5.78638 0.936576 5.11331 1.00285 4.50162 1.25623C3.88984 1.50961 3.36708 1.93868 2.99921 2.48916C2.63134 3.03965 2.43506 3.68695 2.43506 4.349C2.43506 5.2368 2.7877 6.0883 3.41559 6.71609C4.04337 7.34388 4.89477 7.69662 5.78267 7.69662Z" fill="#FFDDA1" stroke="#191919" stroke-linecap="round" stroke-linejoin="round"/>
<path d="M7.69621 22.9999L8.17437 17.2612H10.5656V13.9136C10.5656 12.6452 10.0617 11.4288 9.16485 10.532C8.26797 9.63512 7.05163 9.13129 5.78327 9.13129C4.51491 9.13129 3.29847 9.63512 2.40169 10.532C1.50481 11.4288 1.00098 12.6452 1.00098 13.9136V17.2612H3.39207L3.87033 22.9999H7.69621Z" fill="#66E1FF" stroke="#191919" stroke-linecap="round" stroke-linejoin="round"/>
<path d="M13.4351 16.3047C13.4351 16.0512 13.5359 15.8078 13.7152 15.6285C13.8945 15.4491 14.1379 15.3483 14.3915 15.3483H22.0432C22.2968 15.3483 22.5401 15.4492 22.7195 15.6285C22.8989 15.8077 22.9996 16.0512 22.9996 16.3047V22.0436C22.9996 22.2972 22.8988 22.5406 22.7195 22.7199C22.5402 22.8992 22.2968 23 22.0432 23H14.3915C14.1379 23 13.8946 22.8992 13.7152 22.7199C13.5358 22.5406 13.4351 22.2972 13.4351 22.0436V16.3047Z" stroke="#191919" stroke-linecap="round" stroke-linejoin="round"/>
<path d="M15.8252 15.3483L16.3034 14.3918C16.4077 14.0992 16.6037 13.8481 16.8622 13.6758C17.1207 13.5034 17.4278 13.4191 17.738 13.4353H18.6946C19.0047 13.4191 19.3119 13.5034 19.5704 13.6758C19.8289 13.8481 20.0249 14.0992 20.1292 14.3918L20.6075 15.3483" stroke="#191919" stroke-linecap="round" stroke-linejoin="round"/>
<path d="M13.4351 19.1741H22.9996" stroke="#191919" stroke-linecap="round" stroke-linejoin="round"/>
<path d="M18.2168 19.1741V20.6088" stroke="#191919" stroke-linecap="round" stroke-linejoin="round"/>
<path d="M5.78271 11.0443V13.9136" stroke="#191919" stroke-linecap="round" stroke-linejoin="round"/>
<path d="M6.89903 4.34899C7.65049 4.34889 8.39423 4.19702 9.08545 3.90225C8.99682 3.21249 8.69417 2.56781 8.22001 2.05891C7.74584 1.55 7.1243 1.20263 6.44244 1.0654C5.76067 0.928168 5.05295 1.00811 4.41891 1.29389C3.78488 1.57977 3.25636 2.05715 2.90771 2.65888C3.42589 3.19355 4.04626 3.61862 4.73183 3.90899C5.4175 4.19926 6.15441 4.34889 6.89903 4.34899Z" fill="#C77F67" stroke="#191919" stroke-linecap="round" stroke-linejoin="round"/>
</g>
<defs>
<clipPath id="clip0_5303_9969">
<rect width="24" height="24" fill="white"/>
</clipPath>
</defs>
</svg>
