<svg width="24" height="24" viewBox="0 0 24 24" fill="none" xmlns="http://www.w3.org/2000/svg">
<g clip-path="url(#clip0_5303_10018)">
<path d="M9.13525 23C9.53986 20.8134 9.4729 19.5766 10.6743 19.061L14.8744 17.2609V15.3478C14.8744 15.3478 13.9704 15.014 13.9704 12.9565C13.0321 12.9565 13.0321 11.0435 13.9704 11.0435C13.9704 10.768 12.3979 8.72011 14.3741 9.13045C14.8437 7.21742 19.4733 7.21742 19.9429 9.13045C20.0045 9.46126 19.999 9.80106 19.9267 10.1297C19.8544 10.4583 19.7168 10.7691 19.5221 11.0435C20.4317 11.0435 20.183 12.9565 19.5288 12.9565C19.5288 15.014 18.7004 15.3478 18.7004 15.3478V17.2609L21.8254 18.5694C22.1733 18.715 22.4705 18.9602 22.6795 19.2742C22.8885 19.5882 23 19.9569 23 20.3341V23H9.13525Z" fill="#E3E3E3"/>
<path d="M16.8101 9.66413C17.959 9.66413 19.0609 9.20772 19.8733 8.3953C20.6857 7.58288 21.1422 6.481 21.1422 5.33207C21.1422 4.18313 20.6857 3.08125 19.8733 2.26883C19.0609 1.45641 17.959 1 16.8101 1C15.6612 1 14.5593 1.45641 13.7469 2.26883C12.9344 3.08125 12.478 4.18313 12.478 5.33207C12.478 6.481 12.9344 7.58288 13.7469 8.3953C14.5593 9.20772 15.6612 9.66413 16.8101 9.66413Z" fill="#66E1FF"/>
<path d="M16.8101 1.00001C15.9616 0.998313 15.1313 1.24634 14.4228 1.71318C13.7142 2.18003 13.1587 2.84505 12.8255 3.62538C12.4922 4.40572 12.3959 5.26687 12.5486 6.10154C12.7013 6.9362 13.0963 7.70748 13.6842 8.31928L19.7973 2.20618C18.9949 1.4332 17.9243 1.00093 16.8101 1.00001Z" fill="#C2F3FF"/>
<path d="M16.8101 9.66413C17.959 9.66413 19.0609 9.20772 19.8733 8.3953C20.6857 7.58288 21.1422 6.481 21.1422 5.33207C21.1422 4.18313 20.6857 3.08125 19.8733 2.26883C19.0609 1.45641 17.959 1 16.8101 1C15.6612 1 14.5593 1.45641 13.7469 2.26883C12.9344 3.08125 12.478 4.18313 12.478 5.33207C12.478 6.481 12.9344 7.58288 13.7469 8.3953C14.5593 9.20772 15.6612 9.66413 16.8101 9.66413Z" stroke="#191919" stroke-linecap="round" stroke-linejoin="round"/>
<path d="M22.9993 11.5217L19.8926 8.41302" stroke="#191919" stroke-linecap="round" stroke-linejoin="round"/>
<path d="M1 23C1.40461 20.8134 1.33765 19.5766 2.53904 19.061L6.7391 17.2609V15.3478C6.7391 15.3478 5.83519 15.014 5.83519 12.9565C4.89685 12.9565 4.89685 11.0435 5.83519 11.0435C5.83519 10.768 4.26268 8.72011 6.23885 9.13045C6.70849 7.21742 11.338 7.21742 11.8077 9.13045C11.8692 9.46126 11.8637 9.80106 11.7914 10.1297C11.7191 10.4583 11.5815 10.7691 11.3868 11.0435C12.2965 11.0435 12.0478 12.9565 11.3935 12.9565C11.3935 15.014 10.5652 15.3478 10.5652 15.3478V17.2609L14.7652 19.061C15.9638 19.5747 15.8978 20.8009 16.3043 23H1Z" fill="#FFDDA1" stroke="#191919" stroke-linecap="round" stroke-linejoin="round"/>
<path d="M19.5232 12.9565C19.5232 15.0131 18.6948 15.3478 18.6948 15.3478V17.2609L21.8628 18.6689C22.2011 18.8191 22.4885 19.0643 22.6902 19.3747C22.8919 19.685 22.9992 20.0472 22.9992 20.4174V23H19.6513" stroke="#191919" stroke-linecap="round" stroke-linejoin="round"/>
</g>
<defs>
<clipPath id="clip0_5303_10018">
<rect width="24" height="24" fill="white"/>
</clipPath>
</defs>
</svg>
