<svg width="24" height="24" viewBox="0 0 24 24" fill="none" xmlns="http://www.w3.org/2000/svg">
<g clip-path="url(#clip0_5303_8288)">
<path d="M15.3481 19.6523H12.9568C12.8299 19.6523 12.7083 19.6019 12.6186 19.5122C12.5289 19.4226 12.4785 19.3009 12.4785 19.1741V4.82605C12.4785 4.6992 12.5289 4.57755 12.6186 4.48786C12.7083 4.39817 12.8299 4.34778 12.9568 4.34778H15.3481" stroke="#191919" stroke-linecap="round" stroke-linejoin="round"/>
<path d="M9.60889 12H12.4785" stroke="#191919" stroke-linecap="round" stroke-linejoin="round"/>
<path d="M19.652 4.82602C19.8718 4.82602 20.0895 4.78272 20.2925 4.6986C20.4956 4.61448 20.6802 4.49117 20.8356 4.33573C20.9911 4.1803 21.1144 3.99576 21.1985 3.79267C21.2826 3.58958 21.3259 3.37191 21.3259 3.15208C21.3259 2.93226 21.2826 2.71459 21.1985 2.5115C21.1144 2.30841 20.9911 2.12387 20.8356 1.96843C20.6802 1.81299 20.4956 1.68969 20.2925 1.60557C20.0895 1.52145 19.8718 1.47815 19.652 1.47815C19.208 1.47815 18.7822 1.65451 18.4683 1.96843C18.1544 2.28236 17.978 2.70813 17.978 3.15208C17.978 3.59604 18.1544 4.02181 18.4683 4.33573C18.7822 4.64966 19.208 4.82602 19.652 4.82602Z" fill="#E3E3E3" stroke="#191919" stroke-linecap="round" stroke-linejoin="round"/>
<path d="M22.9999 8.17387C22.8102 7.42994 22.3782 6.77039 21.7719 6.29933C21.1657 5.82828 20.4198 5.57257 19.6521 5.57257C18.8843 5.57257 18.1385 5.82828 17.5322 6.29933C16.926 6.77039 16.4939 7.42994 16.3042 8.17387H22.9999Z" fill="#E3E3E3" stroke="#191919" stroke-linecap="round" stroke-linejoin="round"/>
<path d="M19.652 19.174C20.0959 19.174 20.5217 18.9977 20.8356 18.6838C21.1495 18.3698 21.3259 17.9441 21.3259 17.5001C21.3259 17.0562 21.1495 16.6304 20.8356 16.3165C20.5217 16.0025 20.0959 15.8262 19.652 15.8262C19.208 15.8262 18.7822 16.0025 18.4683 16.3165C18.1544 16.6304 17.978 17.0562 17.978 17.5001C17.978 17.9441 18.1544 18.3698 18.4683 18.6838C18.7822 18.9977 19.208 19.174 19.652 19.174Z" fill="#E3E3E3" stroke="#191919" stroke-linecap="round" stroke-linejoin="round"/>
<path d="M22.9999 22.5219C22.8102 21.778 22.3782 21.1184 21.7719 20.6474C21.1657 20.1763 20.4198 19.9206 19.6521 19.9206C18.8843 19.9206 18.1385 20.1763 17.5322 20.6474C16.926 21.1184 16.4939 21.778 16.3042 22.5219H22.9999Z" fill="#E3E3E3" stroke="#191919" stroke-linecap="round" stroke-linejoin="round"/>
<path d="M1 16.7826C1 15.641 1.4535 14.5462 2.26073 13.7389C3.06796 12.9317 4.1628 12.4782 5.3044 12.4782C6.446 12.4782 7.54084 12.9317 8.34808 13.7389C9.15531 14.5462 9.60881 15.641 9.60881 16.7826H1Z" fill="#66E1FF" stroke="#191919" stroke-linecap="round" stroke-linejoin="round"/>
<path d="M5.3043 11.5217C6.00194 11.5217 6.67101 11.2446 7.16432 10.7513C7.65763 10.258 7.93477 9.58892 7.93477 8.89127C7.93477 8.19363 7.65763 7.52456 7.16432 7.03125C6.67101 6.53794 6.00194 6.2608 5.3043 6.2608C4.60665 6.2608 3.93758 6.53794 3.44427 7.03125C2.95097 7.52456 2.67383 8.19363 2.67383 8.89127C2.67383 9.58892 2.95097 10.258 3.44427 10.7513C3.93758 11.2446 4.60665 11.5217 5.3043 11.5217Z" fill="#FFDDA1" stroke="#191919" stroke-linecap="round" stroke-linejoin="round"/>
</g>
<defs>
<clipPath id="clip0_5303_8288">
<rect width="24" height="24" fill="white"/>
</clipPath>
</defs>
</svg>
