<svg width="24" height="24" viewBox="0 0 24 24" fill="none" xmlns="http://www.w3.org/2000/svg">
<g clip-path="url(#clip0_5303_10026)">
<path d="M12.0001 19.4656C15.3309 19.4656 18.031 16.7656 18.031 13.4348C18.031 10.104 15.3309 7.40393 12.0001 7.40393C8.66935 7.40393 5.96924 10.104 5.96924 13.4348C5.96924 16.7656 8.66935 19.4656 12.0001 19.4656Z" fill="#C2F3FF"/>
<path d="M12.0001 12C12.3311 12 12.6548 11.9019 12.93 11.718C13.2053 11.534 13.4198 11.2726 13.5466 10.9667C13.6732 10.6608 13.7064 10.3243 13.6419 9.99957C13.5773 9.67487 13.4178 9.3766 13.1837 9.1425C12.9496 8.9084 12.6514 8.74897 12.3266 8.68439C12.0019 8.6198 11.6654 8.65295 11.3595 8.77964C11.0536 8.90634 10.7922 9.12089 10.6082 9.39616C10.4243 9.67143 10.3262 9.99506 10.3262 10.3261C10.3262 10.7701 10.5026 11.1958 10.8165 11.5097C11.1304 11.8237 11.5562 12 12.0001 12Z" fill="#FFDDA1" stroke="#191919" stroke-linecap="round" stroke-linejoin="round"/>
<path d="M15.347 15.3479C15.1573 14.604 14.7253 13.9445 14.119 13.4734C13.5128 13.0023 12.7669 12.7466 11.9992 12.7466C11.2315 12.7466 10.4856 13.0023 9.87938 13.4734C9.27314 13.9445 8.84106 14.604 8.65137 15.3479H15.347Z" fill="#78EB7B" stroke="#191919" stroke-linecap="round" stroke-linejoin="round"/>
<path d="M12 2.91304C12.1892 2.91304 12.3741 2.85694 12.5314 2.75184C12.6887 2.64674 12.8113 2.49735 12.8837 2.32256C12.9561 2.14779 12.9751 1.95546 12.9381 1.76991C12.9012 1.58437 12.8102 1.41393 12.6763 1.28016C12.5426 1.14639 12.3722 1.05529 12.1866 1.01838C12.001 0.981473 11.8087 1.00041 11.6339 1.07281C11.4592 1.14521 11.3098 1.26781 11.2046 1.42511C11.0995 1.58241 11.0435 1.76734 11.0435 1.95652C11.0435 2.21021 11.1443 2.4535 11.3236 2.63289C11.503 2.81226 11.7463 2.91304 12 2.91304Z" fill="#FFDDA1" stroke="#191919" stroke-linecap="round" stroke-linejoin="round"/>
<path d="M10.0864 5.78261C10.0864 5.27524 10.288 4.78865 10.6468 4.42989C11.0055 4.07112 11.4921 3.86957 11.9995 3.86957C12.5068 3.86957 12.9934 4.07112 13.3522 4.42989C13.711 4.78865 13.9125 5.27524 13.9125 5.78261H10.0864Z" fill="#D480FF" stroke="#191919" stroke-linecap="round" stroke-linejoin="round"/>
<path d="M21.0864 12.4783C21.2756 12.4783 21.4605 12.4223 21.6178 12.3171C21.7751 12.212 21.8977 12.0626 21.9701 11.8879C22.0425 11.7131 22.0615 11.5207 22.0246 11.3352C21.9876 11.1496 21.8966 10.9792 21.7628 10.8454C21.629 10.7116 21.4586 10.6206 21.273 10.5836C21.0875 10.5467 20.8951 10.5657 20.7203 10.6381C20.5456 10.7105 20.3962 10.8331 20.2911 10.9903C20.1859 11.1477 20.1299 11.3326 20.1299 11.5218C20.1299 11.7755 20.2307 12.0188 20.41 12.1982C20.5894 12.3775 20.8327 12.4783 21.0864 12.4783Z" fill="#FFDDA1" stroke="#191919" stroke-linecap="round" stroke-linejoin="round"/>
<path d="M19.1738 15.3479C19.1738 14.8405 19.3754 14.3539 19.7342 13.9951C20.0929 13.6364 20.5795 13.4348 21.0869 13.4348C21.5942 13.4348 22.0808 13.6364 22.4396 13.9951C22.7984 14.3539 22.9999 14.8405 22.9999 15.3479H19.1738Z" fill="#D480FF" stroke="#191919" stroke-linecap="round" stroke-linejoin="round"/>
<path d="M12 20.1305C12.1892 20.1305 12.3741 20.0744 12.5314 19.9693C12.6887 19.8642 12.8113 19.7148 12.8837 19.54C12.9561 19.3653 12.9751 19.1729 12.9381 18.9873C12.9012 18.8018 12.8102 18.6313 12.6763 18.4976C12.5426 18.3638 12.3722 18.2727 12.1866 18.2358C12.001 18.1989 11.8087 18.2178 11.6339 18.2902C11.4592 18.3626 11.3098 18.4853 11.2046 18.6425C11.0995 18.7999 11.0435 18.9848 11.0435 19.174C11.0435 19.4276 11.1443 19.671 11.3236 19.8503C11.503 20.0297 11.7463 20.1305 12 20.1305Z" fill="#FFDDA1" stroke="#191919" stroke-linecap="round" stroke-linejoin="round"/>
<path d="M10.0864 23C10.0864 22.4927 10.288 22.0061 10.6468 21.6473C11.0055 21.2885 11.4921 21.087 11.9995 21.087C12.5068 21.087 12.9934 21.2885 13.3522 21.6473C13.711 22.0061 13.9125 22.4927 13.9125 23H10.0864Z" fill="#D480FF" stroke="#191919" stroke-linecap="round" stroke-linejoin="round"/>
<path d="M2.91258 12.4783C3.10176 12.4783 3.28669 12.4223 3.44399 12.3171C3.60129 12.212 3.72389 12.0626 3.79629 11.8879C3.86869 11.7131 3.88763 11.5207 3.85072 11.3352C3.81381 11.1496 3.72271 10.9792 3.58894 10.8454C3.45516 10.7116 3.28473 10.6206 3.09918 10.5836C2.91364 10.5467 2.72131 10.5657 2.54653 10.6381C2.37175 10.7105 2.22236 10.8331 2.11726 10.9903C2.01215 11.1477 1.95605 11.3326 1.95605 11.5218C1.95605 11.7755 2.05683 12.0188 2.23621 12.1982C2.4156 12.3775 2.65889 12.4783 2.91258 12.4783Z" fill="#FFDDA1" stroke="#191919" stroke-linecap="round" stroke-linejoin="round"/>
<path d="M1 15.3479C1 14.8405 1.20155 14.3539 1.56032 13.9951C1.91908 13.6364 2.40568 13.4348 2.91304 13.4348C3.42041 13.4348 3.907 13.6364 4.26577 13.9951C4.62454 14.3539 4.82609 14.8405 4.82609 15.3479H1Z" fill="#D480FF" stroke="#191919" stroke-linecap="round" stroke-linejoin="round"/>
<path d="M15.6899 5.65833C17.2734 6.41184 18.5901 7.62917 19.4653 9.14867" stroke="#191919" stroke-linecap="round" stroke-linejoin="round"/>
<path d="M16.5981 8.20644L15.6895 5.65731L18.2376 4.74957" stroke="#191919" stroke-linecap="round" stroke-linejoin="round"/>
<path d="M7.02533 9.37333L4.32507 9.54455L4.15576 6.8443" stroke="#191919" stroke-linecap="round" stroke-linejoin="round"/>
<path d="M7.4219 18.4948L8.10677 21.1119L5.48877 21.7958" stroke="#191919" stroke-linecap="round" stroke-linejoin="round"/>
<path d="M17.0034 17.7391L19.6817 17.3278L20.093 20.006" stroke="#191919" stroke-linecap="round" stroke-linejoin="round"/>
<path d="M4.31982 9.5427C5.16127 7.88946 6.51251 6.55096 8.17365 5.72522" stroke="#191919" stroke-linecap="round" stroke-linejoin="round"/>
<path d="M8.10607 21.1166C6.45501 20.2761 5.11726 18.928 4.28955 17.2704" stroke="#191919" stroke-linecap="round" stroke-linejoin="round"/>
<path d="M19.6797 17.3278C18.8392 18.9788 17.491 20.3166 15.8335 21.1443" stroke="#191919" stroke-linecap="round" stroke-linejoin="round"/>
</g>
<defs>
<clipPath id="clip0_5303_10026">
<rect width="24" height="24" fill="white"/>
</clipPath>
</defs>
</svg>
