<svg width="24" height="24" viewBox="0 0 24 24" fill="none" xmlns="http://www.w3.org/2000/svg">
<g clip-path="url(#clip0_5303_11018)">
<path d="M19.1118 14.7402C18.7414 15.3291 18.231 15.8171 17.626 16.1607C17.0213 16.5042 16.3407 16.6927 15.6453 16.7093C14.955 16.675 14.2827 16.479 13.6823 16.137C13.082 15.795 12.5705 15.3165 12.1892 14.7402C11.8192 15.3294 11.3089 15.8177 10.7038 16.1614C10.099 16.505 9.41819 16.6932 8.72268 16.7093C8.03224 16.6757 7.35947 16.4799 6.75879 16.1379C6.15821 15.7958 5.6466 15.317 5.26563 14.7402C5.26563 14.7402 3.35306 17.1711 1.00537 16.6719V20.8213C1.00537 21.0749 1.10615 21.3181 1.28547 21.4975C1.46478 21.6768 1.708 21.7775 1.96166 21.7775H22.0437C22.2973 21.7775 22.5406 21.6768 22.7199 21.4975C22.8993 21.3181 23 21.0749 23 20.8213V16.6327C20.5988 17.1309 19.1118 14.7402 19.1118 14.7402Z" fill="#66E1FF"/>
<path d="M19.1112 8.9165C18.7406 9.5042 18.2304 9.99122 17.6261 10.334C17.0218 10.6769 16.3421 10.865 15.6475 10.8816C14.9573 10.8483 14.2845 10.653 13.6835 10.3117C13.0827 9.97025 12.5706 9.4923 12.1886 8.9165C11.8187 9.5043 11.3088 9.99142 10.7048 10.3343C10.1007 10.6772 9.42121 10.8652 8.72687 10.8816C8.03595 10.8492 7.36239 10.6545 6.76093 10.3129C6.15947 9.97161 5.64699 9.49308 5.26504 8.9165C5.26504 8.9165 3.34486 11.3464 1 10.8472V16.6719C3.34388 17.1711 5.26026 14.7402 5.26026 14.7402C5.64182 15.3176 6.15411 15.7968 6.75557 16.1389C7.35712 16.4811 8.03087 16.6764 8.72209 16.7092C9.41652 16.6928 10.0961 16.5046 10.7001 16.1615C11.3042 15.8185 11.814 15.3311 12.1838 14.743C12.566 15.3194 13.0783 15.7977 13.6796 16.1392C14.2808 16.4809 14.9539 16.6761 15.6447 16.7092C16.3394 16.6926 17.0191 16.5043 17.6235 16.1613C18.2278 15.8183 18.7378 15.331 19.1084 14.743C19.1084 14.743 20.5954 17.1338 22.9909 16.6356V10.8089C20.5982 11.3072 19.1112 8.9165 19.1112 8.9165Z" fill="#C2F3FF"/>
<path d="M22.9953 16.6327C20.6045 17.1309 19.1127 14.7402 19.1127 14.7402C18.7426 15.3296 18.2322 15.818 17.627 16.1616C17.0219 16.5052 16.3409 16.6934 15.6453 16.7093C14.955 16.675 14.2827 16.479 13.6824 16.137C13.082 15.795 12.5705 15.3165 12.1892 14.7402C11.8192 15.3294 11.3089 15.8177 10.7038 16.1614C10.099 16.505 9.41819 16.6932 8.72268 16.7093C8.03225 16.6756 7.35947 16.4799 6.75879 16.1379C6.15821 15.7958 5.64661 15.317 5.26563 14.7402C5.26563 14.7402 3.35306 17.1711 1.00537 16.6719" stroke="#191919" stroke-linecap="round" stroke-linejoin="round"/>
<path d="M7.24035 10.5746C6.44201 10.2143 5.7586 9.64049 5.26563 8.9165C5.26563 8.9165 3.35306 11.3464 1.00537 10.8482" stroke="#191919" stroke-linecap="round" stroke-linejoin="round"/>
<path d="M22.9947 10.8089C20.604 11.3072 19.1122 8.9165 19.1122 8.9165C18.5669 9.76908 17.7419 10.4054 16.7788 10.7162" stroke="#191919" stroke-linecap="round" stroke-linejoin="round"/>
<path d="M11.9971 2.22241V11.7853" stroke="#191919" stroke-linecap="round" stroke-linejoin="round"/>
<path d="M10.084 3.17871L11.9966 5.09128L13.9091 3.17871" stroke="#191919" stroke-linecap="round" stroke-linejoin="round"/>
<path d="M10.084 10.829L11.9966 8.9165L13.9091 10.829" stroke="#191919" stroke-linecap="round" stroke-linejoin="round"/>
<path d="M7.21484 7.00391H16.7777" stroke="#191919" stroke-linecap="round" stroke-linejoin="round"/>
<path d="M8.17139 8.91645L10.084 7.00388L8.17139 5.09131" stroke="#191919" stroke-linecap="round" stroke-linejoin="round"/>
<path d="M15.8217 8.91645L13.9092 7.00388L15.8217 5.09131" stroke="#191919" stroke-linecap="round" stroke-linejoin="round"/>
</g>
<defs>
<clipPath id="clip0_5303_11018">
<rect width="24" height="24" fill="white"/>
</clipPath>
</defs>
</svg>
