<svg width="24" height="24" viewBox="0 0 24 24" fill="none" xmlns="http://www.w3.org/2000/svg">
<path d="M16.7826 11.0437L12.4486 22.6876C12.4147 22.7793 12.3535 22.8584 12.2733 22.9143C12.1931 22.9701 12.0977 23.0001 12 23.0001C11.9022 23.0001 11.8068 22.9701 11.7266 22.9143C11.6464 22.8584 11.5852 22.7793 11.5513 22.6876L7.21729 11.0437V7.21753H16.7826V11.0437Z" fill="#FFBC44" stroke="#191919" stroke-linecap="round" stroke-linejoin="round"/>
<path d="M7.21729 11.0437L8.27617 13.8894C8.51608 13.6284 8.6501 13.2874 8.65209 12.9329C8.65209 12.6792 8.75287 12.4359 8.93225 12.2565C9.11164 12.0771 9.35492 11.9763 9.60861 11.9763C9.8623 11.9763 10.1056 12.0771 10.285 12.2565C10.4644 12.4359 10.5652 12.6792 10.5652 12.9329V13.8894C10.5652 14.2699 10.7163 14.6349 10.9854 14.904C11.2545 15.173 11.6194 15.3242 12 15.3242C12.3805 15.3242 12.7454 15.173 13.0145 14.904C13.2836 14.6349 13.4348 14.2699 13.4348 13.8894V12.9329C13.4348 12.6792 13.5355 12.4359 13.7149 12.2565C13.8943 12.0771 14.1376 11.9763 14.3913 11.9763C14.645 11.9763 14.8883 12.0771 15.0677 12.2565C15.2471 12.4359 15.3478 12.6792 15.3478 12.9329C15.3497 13.2868 15.4837 13.6283 15.7237 13.8894L16.7826 11.0437V7.21753H7.21729V11.0437Z" fill="#C77F67"/>
<path d="M16.7826 11.0437L12.4486 22.6876C12.4147 22.7793 12.3535 22.8584 12.2733 22.9143C12.1931 22.9701 12.0977 23.0001 12 23.0001C11.9022 23.0001 11.8068 22.9701 11.7266 22.9143C11.6464 22.8584 11.5852 22.7793 11.5513 22.6876L7.21729 11.0437V7.21753H16.7826V11.0437Z" stroke="#191919" stroke-linecap="round" stroke-linejoin="round"/>
<path d="M10.5654 9.60881C10.5654 9.35513 10.4646 9.11183 10.2852 8.93244C10.1058 8.75306 9.86254 8.65228 9.60885 8.65228C9.35517 8.65228 9.11187 8.75306 8.93248 8.93244C8.7531 9.11183 8.65232 9.35513 8.65232 9.60881C8.65232 9.98935 8.50116 10.3543 8.23209 10.6234C7.96301 10.8925 7.59806 11.0436 7.21753 11.0436C6.83698 11.0436 6.47204 10.8925 6.20296 10.6234C5.93388 10.3543 5.78271 9.98935 5.78271 9.60881V7.21748C5.78271 5.5685 6.43777 3.98706 7.60377 2.82106C8.76977 1.65505 10.3512 1 12.0002 1C13.6492 1 15.2306 1.65505 16.3966 2.82106C17.5626 3.98706 18.2177 5.5685 18.2177 7.21748V9.60881C18.2177 9.98935 18.0665 10.3543 17.7974 10.6234C17.5283 10.8925 17.1634 11.0436 16.7829 11.0436C16.4023 11.0436 16.0374 10.8925 15.7683 10.6234C15.4992 10.3543 15.3481 9.98935 15.3481 9.60881C15.3481 9.35513 15.2473 9.11183 15.0679 8.93244C14.8885 8.75306 14.6452 8.65228 14.3915 8.65228C14.1378 8.65228 13.8945 8.75306 13.7152 8.93244C13.5358 9.11183 13.435 9.35513 13.435 9.60881V10.5653C13.435 10.9459 13.2838 11.3108 13.0148 11.5799C12.7457 11.849 12.3807 12.0002 12.0002 12.0002C11.6197 12.0002 11.2547 11.849 10.9856 11.5799C10.7166 11.3108 10.5654 10.9459 10.5654 10.5653V9.60881Z" fill="#FFEF5E"/>
<path d="M12.0002 1C10.3512 1 8.76977 1.65505 7.60377 2.82106C6.43777 3.98706 5.78271 5.5685 5.78271 7.21748V9.60881C5.78463 9.75229 5.80854 9.89482 5.85254 10.0306C6.06358 8.55053 6.80153 7.19624 7.93087 6.2165C9.06021 5.23676 10.5051 4.69736 12.0002 4.69736C13.4953 4.69736 14.9402 5.23676 16.0695 6.2165C17.1989 7.19624 17.9368 8.55053 18.1478 10.0306C18.1918 9.89386 18.2158 9.75229 18.2177 9.60881V7.21748C18.2177 5.5685 17.5626 3.98706 16.3966 2.82106C15.2306 1.65505 13.6492 1 12.0002 1Z" fill="#FFF9BF"/>
<path d="M10.5654 9.60881C10.5654 9.35513 10.4646 9.11183 10.2852 8.93244C10.1058 8.75306 9.86254 8.65228 9.60885 8.65228C9.35517 8.65228 9.11187 8.75306 8.93248 8.93244C8.7531 9.11183 8.65232 9.35513 8.65232 9.60881C8.65232 9.98935 8.50116 10.3543 8.23209 10.6234C7.96301 10.8925 7.59806 11.0436 7.21753 11.0436C6.83698 11.0436 6.47204 10.8925 6.20296 10.6234C5.93388 10.3543 5.78271 9.98935 5.78271 9.60881V7.21748C5.78271 5.5685 6.43777 3.98706 7.60377 2.82106C8.76977 1.65505 10.3512 1 12.0002 1C13.6492 1 15.2306 1.65505 16.3966 2.82106C17.5626 3.98706 18.2177 5.5685 18.2177 7.21748V9.60881C18.2177 9.98935 18.0665 10.3543 17.7974 10.6234C17.5283 10.8925 17.1634 11.0436 16.7829 11.0436C16.4023 11.0436 16.0374 10.8925 15.7683 10.6234C15.4992 10.3543 15.3481 9.98935 15.3481 9.60881C15.3481 9.35513 15.2473 9.11183 15.0679 8.93244C14.8885 8.75306 14.6452 8.65228 14.3915 8.65228C14.1378 8.65228 13.8945 8.75306 13.7152 8.93244C13.5358 9.11183 13.435 9.35513 13.435 9.60881V10.5653C13.435 10.9459 13.2838 11.3108 13.0148 11.5799C12.7457 11.849 12.3807 12.0002 12.0002 12.0002C11.6197 12.0002 11.2547 11.849 10.9856 11.5799C10.7166 11.3108 10.5654 10.9459 10.5654 10.5653V9.60881Z" stroke="#191919" stroke-linecap="round" stroke-linejoin="round"/>
</svg>
