<svg width="24" height="24" viewBox="0 0 24 24" fill="none" xmlns="http://www.w3.org/2000/svg">
<g clip-path="url(#clip0_5303_10092)">
<path d="M3.99992 22.9997C4.59324 22.9997 5.17325 22.8238 5.66658 22.4941C6.15992 22.1645 6.54443 21.6959 6.77148 21.1478C6.99854 20.5996 7.05794 19.9964 6.9422 19.4145C6.82644 18.8326 6.54073 18.298 6.12118 17.8785C5.70163 17.4589 5.1671 17.1732 4.58517 17.0574C4.00325 16.9417 3.40006 17.0011 2.8519 17.2282C2.30373 17.4552 1.83522 17.8397 1.50558 18.3331C1.17595 18.8264 1 19.4065 1 19.9997C1 20.7954 1.31606 21.5584 1.87866 22.121C2.44125 22.6836 3.20429 22.9997 3.99992 22.9997Z" fill="#78EB7B"/>
<path d="M3.99992 18.9608C4.62188 18.9619 5.228 19.157 5.73383 19.5188C6.23967 19.8807 6.62001 20.3914 6.82184 20.9797C6.93637 20.6655 6.99656 20.3341 6.99984 19.9997C6.99984 19.2042 6.68377 18.4411 6.12118 17.8785C5.55859 17.3159 4.79555 16.9998 3.99992 16.9998C3.20429 16.9998 2.44125 17.3159 1.87866 17.8785C1.31606 18.4411 1 19.2042 1 19.9997C1.00328 20.3341 1.06347 20.6655 1.178 20.9797C1.37983 20.3914 1.76017 19.8807 2.26601 19.5188C2.77183 19.157 3.37796 18.9619 3.99992 18.9608Z" fill="#C9F7CA"/>
<path d="M3.99992 22.9997C4.59324 22.9997 5.17325 22.8238 5.66658 22.4941C6.15992 22.1645 6.54443 21.6959 6.77148 21.1478C6.99854 20.5996 7.05794 19.9964 6.9422 19.4145C6.82644 18.8326 6.54073 18.298 6.12118 17.8785C5.70163 17.4589 5.1671 17.1732 4.58517 17.0574C4.00325 16.9417 3.40006 17.0011 2.8519 17.2282C2.30373 17.4552 1.83522 17.8397 1.50558 18.3331C1.17595 18.8264 1 19.4065 1 19.9997C1 20.7954 1.31606 21.5584 1.87866 22.121C2.44125 22.6836 3.20429 22.9997 3.99992 22.9997Z" stroke="#191919" stroke-linecap="round" stroke-linejoin="round"/>
<path d="M9 16.9998H14.9998V22.9997H9V16.9998Z" fill="#FF808C"/>
<path d="M9 22.9997V16.9998H14.9998L9 22.9997Z" fill="#FFBFC5"/>
<path d="M9 16.9998H14.9998V22.9997H9V16.9998Z" stroke="#191919" stroke-linecap="round" stroke-linejoin="round"/>
<path d="M19.9999 16.9998L17 22.9997H22.9998L19.9999 16.9998Z" fill="#66E1FF"/>
<path d="M19.9999 16.9998L17 22.9997H19.9999V16.9998Z" fill="#C2F3FF"/>
<path d="M19.9999 16.9998L17 22.9997H22.9998L19.9999 16.9998Z" stroke="#191919" stroke-linecap="round" stroke-linejoin="round"/>
<path d="M13.4999 11.9999H10.5" stroke="#191919" stroke-linecap="round" stroke-linejoin="round"/>
<path d="M14.9998 6.5001C14.9772 5.71163 14.6538 4.96168 14.0961 4.40393C13.5384 3.84616 12.7884 3.52283 11.9999 3.50018C11.2113 3.52259 10.4613 3.84585 9.90347 4.40366C9.34567 4.96147 9.02241 5.71155 9 6.5001C9.01126 7.01121 9.15551 7.51056 9.41853 7.94893C9.68156 8.38731 10.0543 8.74958 10.5 9.00003V10H13.4999V9.00003C13.9455 8.74943 14.3181 8.38712 14.581 7.94878C14.844 7.51043 14.9883 7.01117 14.9998 6.5001Z" fill="#FFEF5E"/>
<path d="M11.9999 5.66412C12.5917 5.68134 13.1661 5.86838 13.6546 6.20294C14.143 6.53751 14.5249 7.00548 14.7548 7.55107C14.9017 7.21923 14.9848 6.8627 14.9998 6.5001C14.9772 5.71163 14.6538 4.96168 14.0961 4.40393C13.5384 3.84616 12.7884 3.52283 11.9999 3.50018C11.2114 3.52283 10.4615 3.84616 9.90375 4.40393C9.34598 4.96168 9.02265 5.71163 9 6.5001C9.01506 6.86301 9.09817 7.21985 9.24499 7.55207C9.47454 7.00615 9.85636 6.53783 10.3449 6.20305C10.8333 5.86827 11.4079 5.68118 11.9999 5.66412Z" fill="#FFF9BF"/>
<path d="M14.9998 6.5001C14.9772 5.71163 14.6538 4.96168 14.0961 4.40393C13.5384 3.84616 12.7884 3.52283 11.9999 3.50018C11.2113 3.52259 10.4613 3.84585 9.90347 4.40366C9.34567 4.96147 9.02241 5.71155 9 6.5001C9.01126 7.01121 9.15551 7.51056 9.41853 7.94893C9.68156 8.38731 10.0543 8.74958 10.5 9.00003V10H13.4999V9.00003C13.9455 8.74943 14.3181 8.38712 14.581 7.94878C14.844 7.51043 14.9883 7.01117 14.9998 6.5001Z" stroke="#191919" stroke-linecap="round" stroke-linejoin="round"/>
<path d="M4 16.9998V14.4999C4 14.3673 4.05268 14.2401 4.14645 14.1463C4.2402 14.0526 4.36738 13.9999 4.49999 13.9999H19.4996C19.6322 13.9999 19.7594 14.0526 19.8532 14.1463C19.9469 14.2401 19.9996 14.3673 19.9996 14.4999V16.9998" stroke="#191919" stroke-linecap="round" stroke-linejoin="round"/>
<path d="M12 11.9999V16.4998" stroke="#191919" stroke-linecap="round" stroke-linejoin="round"/>
<path d="M12 1.00031V2.00028" stroke="#191919" stroke-linecap="round" stroke-linejoin="round"/>
<path d="M15.8891 2.61127L15.1821 3.31825" stroke="#191919" stroke-linecap="round" stroke-linejoin="round"/>
<path d="M17.5 6.00012H16.5" stroke="#191919" stroke-linecap="round" stroke-linejoin="round"/>
<path d="M8.11133 2.61127L8.81831 3.31825" stroke="#191919" stroke-linecap="round" stroke-linejoin="round"/>
<path d="M6.50049 6.00012H7.50046" stroke="#191919" stroke-linecap="round" stroke-linejoin="round"/>
</g>
<defs>
<clipPath id="clip0_5303_10092">
<rect width="24" height="24" fill="white"/>
</clipPath>
</defs>
</svg>
