<svg width="24" height="24" viewBox="0 0 24 24" fill="none" xmlns="http://www.w3.org/2000/svg">
<g clip-path="url(#clip0_5303_3457)">
<path d="M21.087 6.71044V22.0435C21.087 22.2972 20.9863 22.5405 20.8069 22.7199C20.6275 22.8993 20.3842 23 20.1305 23H3.86961C3.61592 23 3.37263 22.8993 3.19325 22.7199C3.01385 22.5405 2.91309 22.2972 2.91309 22.0435V1.95652C2.91309 1.70284 3.01385 1.45954 3.19325 1.28016C3.37263 1.10078 3.61592 1 3.86961 1H15.3766C15.6879 0.999748 15.9985 1.02857 16.3044 1.08609V4.8261C16.3044 5.07978 16.4052 5.32308 16.5846 5.50246C16.764 5.68184 17.0072 5.78262 17.2609 5.78262H21.001C21.0585 6.08854 21.0873 6.39917 21.087 6.71044Z" fill="#FFBC44"/>
<path d="M16.6392 5.55305L2.91309 19.2887V1.95652C2.91309 1.70284 3.01385 1.45954 3.19325 1.28016C3.37263 1.10078 3.61592 1 3.86961 1H15.3766C15.6879 0.999748 15.9985 1.02857 16.3044 1.08609V4.8261C16.3062 4.96395 16.3369 5.09988 16.3947 5.2251C16.4523 5.35032 16.5356 5.46205 16.6392 5.55305Z" fill="#FFDDA1"/>
<path d="M21.0008 5.78259H17.2608C17.007 5.78259 16.7638 5.68181 16.5844 5.50243C16.405 5.32305 16.3042 5.07975 16.3042 4.82607V1.08606C17.4817 1.27497 18.5696 1.83063 19.4129 2.67392C20.2562 3.51719 20.8119 4.60507 21.0008 5.78259Z" fill="white"/>
<path d="M20.1305 23C20.3842 23 20.6275 22.8992 20.8069 22.7199C20.9863 22.5405 21.087 22.2972 21.087 22.0435V6.71523C21.087 5.19945 20.4849 3.74576 19.4131 2.67395C18.3413 1.60214 16.8876 1 15.3718 1H3.86961C3.61592 1 3.37263 1.10078 3.19325 1.28016C3.01385 1.45954 2.91309 1.70284 2.91309 1.95652V22.0435C2.91309 22.2972 3.01385 22.5405 3.19325 22.7199C3.37263 22.8992 3.61592 23 3.86961 23H20.1305Z" stroke="#191919" stroke-linecap="round" stroke-linejoin="round"/>
<path d="M16.3042 1.07648V4.82604C16.3042 5.07974 16.405 5.32303 16.5844 5.50242C16.7638 5.6818 17.007 5.78258 17.2608 5.78258H21.0103" stroke="#191919" stroke-linecap="round" stroke-linejoin="round"/>
<path d="M8.65278 18.2174H6.73972C6.48604 18.2174 6.24274 18.1166 6.06336 17.9372C5.88398 17.7579 5.7832 17.5145 5.7832 17.2609V13.4348C5.7832 13.1811 5.88398 12.9377 6.06336 12.7584C6.24274 12.579 6.48604 12.4782 6.73972 12.4782H8.65278" stroke="#191919" stroke-linecap="round" stroke-linejoin="round"/>
<path d="M5.7832 15.3479H7.69625" stroke="#191919" stroke-linecap="round" stroke-linejoin="round"/>
<path d="M13.435 13.913C13.435 14.2936 13.2838 14.6585 13.0147 14.9275C12.7457 15.1966 12.3808 15.3479 12.0002 15.3479H10.5654V12.4782H12.0002C12.3808 12.4782 12.7457 12.6295 13.0147 12.8985C13.2838 13.1675 13.435 13.5325 13.435 13.913Z" stroke="#191919" stroke-linecap="round" stroke-linejoin="round"/>
<path d="M10.5654 18.2174V15.3479" stroke="#191919" stroke-linecap="round" stroke-linejoin="round"/>
<path d="M18.2181 12.4782H16.5919C16.3235 12.4762 16.0615 12.5611 15.8452 12.7202C15.629 12.8794 15.4701 13.1043 15.3923 13.3612C15.3144 13.6182 15.3218 13.8934 15.4135 14.1459C15.505 14.3983 15.6759 14.6142 15.9004 14.7615L17.6604 15.9341C17.8844 16.0811 18.055 16.2966 18.1468 16.5484C18.2384 16.8003 18.2463 17.075 18.1693 17.3317C18.0921 17.5883 17.9342 17.8132 17.7189 17.9728C17.5036 18.1324 17.2426 18.2182 16.9745 18.2174H15.3484" stroke="#191919" stroke-linecap="round" stroke-linejoin="round"/>
</g>
<defs>
<clipPath id="clip0_5303_3457">
<rect width="24" height="24" fill="white"/>
</clipPath>
</defs>
</svg>
