<svg width="24" height="24" viewBox="0 0 24 24" fill="none" xmlns="http://www.w3.org/2000/svg">
<g clip-path="url(#clip0_5303_3628)">
<path d="M18.8946 4.82609C19.074 5.00543 19.1748 5.24868 19.1749 5.50235V22.0435C19.1749 22.2972 19.0741 22.5405 18.8947 22.7198C18.7153 22.8992 18.4721 23 18.2184 23H1.9575C1.70381 23 1.46052 22.8992 1.28114 22.7198C1.10175 22.5405 1.00098 22.2972 1.00098 22.0435V1.95652C1.00098 1.70284 1.10175 1.45954 1.28114 1.28016C1.46052 1.10078 1.70381 1 1.9575 1H14.6725C14.9262 1.00005 15.1695 1.10087 15.3488 1.28026L18.8946 4.82609Z" fill="#E4F1F5"/>
<path d="M18.8946 4.82609L15.3488 1.28026C15.1695 1.10087 14.9262 1.00005 14.6725 1H1.9575C1.70381 1 1.46052 1.10078 1.28114 1.28016C1.10175 1.45954 1.00098 1.70284 1.00098 1.95652V22.0435C1.00103 22.2971 1.10184 22.5404 1.28124 22.7197L19.0065 4.99443C18.9757 4.9343 18.9381 4.87783 18.8946 4.82609Z" fill="white"/>
<path d="M6.7397 9.60871C7.24707 9.60871 7.73366 9.40716 8.09243 9.04839C8.45119 8.68963 8.65275 8.20304 8.65275 7.69567C8.65275 7.1883 8.45119 6.70171 8.09243 6.34294C7.73366 5.98418 7.24707 5.78262 6.7397 5.78262C6.23233 5.78262 5.74574 5.98418 5.38698 6.34294C5.02821 6.70171 4.82666 7.1883 4.82666 7.69567C4.82666 8.20304 5.02821 8.68963 5.38698 9.04839C5.74574 9.40716 6.23233 9.60871 6.7397 9.60871Z" fill="#FFEF5E"/>
<path d="M11.9283 10.2572C11.8854 10.1884 11.8256 10.1317 11.7546 10.0924C11.6837 10.0531 11.6039 10.0324 11.5228 10.0324C11.4417 10.0324 11.3619 10.0531 11.2909 10.0924C11.22 10.1317 11.1602 10.1884 11.1172 10.2572L8.59391 14.2957L7.56469 12.6485C7.5217 12.5797 7.46192 12.523 7.39097 12.4837C7.32003 12.4444 7.24024 12.4237 7.15913 12.4237C7.07801 12.4237 6.99823 12.4444 6.92728 12.4837C6.85633 12.523 6.79655 12.5797 6.75356 12.6485L3.87061 17.2609H16.3054L11.9283 10.2572Z" fill="#78EB7B"/>
<path d="M13.081 12.1024L11.9331 10.2572C11.8901 10.1884 11.8304 10.1317 11.7594 10.0924C11.6885 10.0531 11.6087 10.0324 11.5276 10.0324C11.4464 10.0324 11.3667 10.0531 11.2957 10.0924C11.2248 10.1317 11.165 10.1884 11.122 10.2572L8.59391 14.2957L7.56469 12.6485C7.5217 12.5797 7.46192 12.523 7.39097 12.4837C7.32003 12.4444 7.24024 12.4238 7.15913 12.4238C7.07801 12.4238 6.99823 12.4444 6.92728 12.4837C6.85633 12.523 6.79655 12.5797 6.75356 12.6485L3.87061 17.2609H8.6532M6.74017 9.60871C7.24754 9.60871 7.73413 9.40716 8.0929 9.04839C8.45166 8.68963 8.6532 8.20304 8.6532 7.69567C8.6532 7.1883 8.45166 6.70171 8.0929 6.34294C7.73413 5.98418 7.24754 5.78262 6.74017 5.78262C6.2328 5.78262 5.74621 5.98418 5.38744 6.34294C5.02868 6.70171 4.82713 7.1883 4.82713 7.69567C4.82713 8.20304 5.02868 8.68963 5.38744 9.04839C5.74621 9.40716 6.2328 9.60871 6.74017 9.60871Z" stroke="#191919" stroke-linecap="round" stroke-linejoin="round"/>
<path d="M9.60967 23H1.9575C1.70381 23 1.46052 22.8992 1.28114 22.7198C1.10175 22.5405 1.00098 22.2972 1.00098 22.0435V1.95652C1.00098 1.70284 1.10175 1.45954 1.28114 1.28016C1.46052 1.10078 1.70381 1 1.9575 1H14.6725C14.9262 1.00005 15.1695 1.10087 15.3488 1.28026L18.8946 4.82609C19.074 5.00543 19.1748 5.24868 19.1749 5.50235V8.65217" stroke="#191919" stroke-linecap="round" stroke-linejoin="round"/>
<path d="M17.9311 11.9235L19.4032 15.3383H22.267C22.412 15.3323 22.5552 15.3714 22.677 15.4501C22.7989 15.5287 22.8934 15.6432 22.9477 15.7777C23.002 15.9122 23.0133 16.0602 22.9802 16.2014C22.947 16.3426 22.871 16.4701 22.7625 16.5664L20.2756 18.7817L21.653 21.9507C21.7134 22.0956 21.7269 22.2559 21.6915 22.4089C21.6561 22.5619 21.5737 22.7 21.4557 22.8037C21.3378 22.9073 21.1903 22.9714 21.034 22.9869C20.8777 23.0024 20.7205 22.9685 20.5845 22.89L17.2616 21.0143L13.9329 22.889C13.7969 22.9674 13.6399 23.0012 13.4838 22.9857C13.3277 22.9702 13.1804 22.9062 13.0625 22.8026C12.9446 22.6991 12.8621 22.5613 12.8266 22.4085C12.7911 22.2557 12.8043 22.0956 12.8644 21.9507L14.239 18.7827L11.752 16.5674C11.6431 16.4717 11.5665 16.3446 11.5328 16.2036C11.4992 16.0625 11.51 15.9146 11.564 15.78C11.6179 15.6454 11.7122 15.5308 11.8339 15.4521C11.9556 15.3733 12.0988 15.3342 12.2436 15.3402H15.1132L16.5872 11.9254C16.6527 11.8037 16.7499 11.702 16.8686 11.6311C16.9872 11.5602 17.1229 11.5228 17.2611 11.5228C17.3993 11.5228 17.5349 11.5602 17.6536 11.6311C17.7722 11.702 17.8695 11.8037 17.935 11.9254L17.9311 11.9235Z" fill="#FFEF5E"/>
<path d="M19.4059 15.3383L17.931 11.9235C17.8655 11.8018 17.7683 11.7001 17.6496 11.6292C17.531 11.5583 17.3953 11.5208 17.2571 11.5208C17.1189 11.5208 16.9833 11.5583 16.8646 11.6292C16.746 11.7001 16.6487 11.8018 16.5832 11.9235L15.1092 15.3383H12.2397C12.0948 15.3326 11.9518 15.372 11.8302 15.4508C11.7086 15.5297 11.6144 15.6443 11.5605 15.7789C11.5067 15.9135 11.4958 16.0614 11.5293 16.2024C11.5629 16.3434 11.6393 16.4706 11.748 16.5664L14.235 18.7818L12.8671 21.9478C12.7986 22.1172 12.7952 22.306 12.8576 22.4778L19.999 15.3364L19.4059 15.3383Z" fill="#FFF9BF"/>
<path d="M17.9311 11.9235L19.4032 15.3383H22.267C22.412 15.3323 22.5552 15.3714 22.677 15.4501C22.7989 15.5287 22.8934 15.6432 22.9477 15.7777C23.002 15.9122 23.0133 16.0602 22.9802 16.2014C22.947 16.3426 22.871 16.4701 22.7625 16.5664L20.2756 18.7817L21.653 21.9507C21.7134 22.0956 21.7269 22.2559 21.6915 22.4089C21.6561 22.5619 21.5737 22.7 21.4557 22.8037C21.3378 22.9073 21.1903 22.9714 21.034 22.9869C20.8777 23.0024 20.7205 22.9685 20.5845 22.89L17.2616 21.0143L13.9329 22.889C13.7969 22.9674 13.6399 23.0012 13.4838 22.9857C13.3277 22.9702 13.1804 22.9062 13.0625 22.8026C12.9446 22.6991 12.8621 22.5613 12.8266 22.4085C12.7911 22.2557 12.8043 22.0956 12.8644 21.9507L14.239 18.7827L11.752 16.5674C11.6431 16.4717 11.5665 16.3446 11.5328 16.2036C11.4992 16.0625 11.51 15.9146 11.564 15.78C11.6179 15.6454 11.7122 15.5308 11.8339 15.4521C11.9556 15.3733 12.0988 15.3342 12.2436 15.3402H15.1132L16.5872 11.9254C16.6527 11.8037 16.7499 11.702 16.8686 11.6311C16.9872 11.5602 17.1229 11.5228 17.2611 11.5228C17.3993 11.5228 17.5349 11.5602 17.6536 11.6311C17.7722 11.702 17.8695 11.8037 17.935 11.9254L17.9311 11.9235Z" stroke="#191919" stroke-linecap="round" stroke-linejoin="round"/>
</g>
<defs>
<clipPath id="clip0_5303_3628">
<rect width="24" height="24" fill="white"/>
</clipPath>
</defs>
</svg>
