<svg width="24" height="24" viewBox="0 0 24 24" fill="none" xmlns="http://www.w3.org/2000/svg">
<g clip-path="url(#clip0_5303_10595)">
<path d="M20.8067 4.82609C20.9861 5.00543 21.0869 5.24868 21.087 5.50235V22.0435C21.087 22.2972 20.9862 22.5405 20.8068 22.7198C20.6275 22.8992 20.3842 23 20.1305 23H3.86961C3.61592 23 3.37263 22.8992 3.19324 22.7198C3.01386 22.5405 2.91309 22.2972 2.91309 22.0435V1.95652C2.91309 1.70284 3.01386 1.45954 3.19324 1.28016C3.37263 1.10078 3.61592 1 3.86961 1H16.5847C16.8383 1.00005 17.0816 1.10087 17.2609 1.28026L20.8067 4.82609Z" fill="#E4F1F5"/>
<path d="M20.8067 4.82609L17.2609 1.28026C17.0816 1.10087 16.8383 1.00005 16.5847 1H3.86961C3.61592 1 3.37263 1.10078 3.19324 1.28016C3.01386 1.45954 2.91309 1.70284 2.91309 1.95652V22.0435C2.91314 22.2971 3.01395 22.5404 3.19335 22.7197L20.9186 4.99443C20.8878 4.9343 20.8502 4.87783 20.8067 4.82609Z" fill="white"/>
<path d="M20.8067 4.82609C20.9861 5.00543 21.0869 5.24868 21.087 5.50235V22.0435C21.087 22.2972 20.9862 22.5405 20.8068 22.7198C20.6275 22.8992 20.3842 23 20.1305 23H3.86961C3.61592 23 3.37263 22.8992 3.19324 22.7198C3.01386 22.5405 2.91309 22.2972 2.91309 22.0435V1.95652C2.91309 1.70284 3.01386 1.45954 3.19324 1.28016C3.37263 1.10078 3.61592 1 3.86961 1H16.5847C16.8383 1.00005 17.0816 1.10087 17.2609 1.28026L20.8067 4.82609Z" stroke="#191919" stroke-linecap="round" stroke-linejoin="round"/>
<path d="M18.218 18.2174C18.218 18.471 18.1172 18.7143 17.9378 18.8937C17.7585 19.0731 17.5152 19.1739 17.2615 19.1739H7.69627C7.44258 19.1739 7.19929 19.0731 7.01991 18.8937C6.84052 18.7143 6.73975 18.471 6.73975 18.2174V12.4782C6.73975 12.2245 6.84052 11.9812 7.01991 11.8019C7.19929 11.6225 7.44258 11.5217 7.69627 11.5217H10.0876L10.3009 11.0941C10.3803 10.9353 10.5023 10.8017 10.6533 10.7082C10.8044 10.6148 10.9784 10.5653 11.156 10.5652H13.7998C13.9774 10.5653 14.1515 10.6148 14.3025 10.7082C14.4535 10.8017 14.5756 10.9353 14.655 11.0941L14.8702 11.5217H17.2615C17.5152 11.5217 17.7585 11.6225 17.9378 11.8019C18.1172 11.9812 18.218 12.2245 18.218 12.4782V18.2174Z" fill="#808080"/>
<path d="M12.4785 17.2608C12.9858 17.2608 13.4724 17.0593 13.8312 16.7005C14.19 16.3418 14.3915 15.8552 14.3915 15.3478C14.3915 14.8404 14.19 14.3538 13.8312 13.9951C13.4724 13.6363 12.9858 13.4348 12.4785 13.4348C11.9711 13.4348 11.4845 13.6363 11.1257 13.9951C10.767 14.3538 10.5654 14.8404 10.5654 15.3478C10.5654 15.8552 10.767 16.3418 11.1257 16.7005C11.4845 17.0593 11.9711 17.2608 12.4785 17.2608Z" fill="#66E1FF"/>
<path d="M18.218 18.2174C18.218 18.471 18.1172 18.7143 17.9378 18.8937C17.7585 19.0731 17.5152 19.1739 17.2615 19.1739H7.69627C7.44258 19.1739 7.19929 19.0731 7.01991 18.8937C6.84052 18.7143 6.73975 18.471 6.73975 18.2174V12.4782C6.73975 12.2245 6.84052 11.9812 7.01991 11.8019C7.19929 11.6225 7.44258 11.5217 7.69627 11.5217H10.0876L10.3009 11.0941C10.3803 10.9353 10.5023 10.8017 10.6533 10.7082C10.8044 10.6148 10.9784 10.5653 11.156 10.5652H13.7998C13.9774 10.5653 14.1515 10.6148 14.3025 10.7082C14.4535 10.8017 14.5756 10.9353 14.655 11.0941L14.8702 11.5217H17.2615C17.5152 11.5217 17.7585 11.6225 17.9378 11.8019C18.1172 11.9812 18.218 12.2245 18.218 12.4782V18.2174Z" stroke="#191919" stroke-linecap="round" stroke-linejoin="round"/>
<path d="M12.4785 17.2608C12.9858 17.2608 13.4724 17.0593 13.8312 16.7005C14.19 16.3418 14.3915 15.8552 14.3915 15.3478C14.3915 14.8404 14.19 14.3538 13.8312 13.9951C13.4724 13.6363 12.9858 13.4348 12.4785 13.4348C11.9711 13.4348 11.4845 13.6363 11.1257 13.9951C10.767 14.3538 10.5654 14.8404 10.5654 15.3478C10.5654 15.8552 10.767 16.3418 11.1257 16.7005C11.4845 17.0593 11.9711 17.2608 12.4785 17.2608Z" stroke="#191919" stroke-linecap="round" stroke-linejoin="round"/>
</g>
<defs>
<clipPath id="clip0_5303_10595">
<rect width="24" height="24" fill="white"/>
</clipPath>
</defs>
</svg>
