<svg width="24" height="24" viewBox="0 0 24 24" fill="none" xmlns="http://www.w3.org/2000/svg">
<g clip-path="url(#clip0_5303_3581)">
<path d="M21.087 6.71044V22.0435C21.087 22.2972 20.9863 22.5405 20.8069 22.7199C20.6275 22.8993 20.3842 23 20.1305 23H3.86961C3.61592 23 3.37263 22.8993 3.19325 22.7199C3.01385 22.5405 2.91309 22.2972 2.91309 22.0435V1.95652C2.91309 1.70284 3.01385 1.45954 3.19325 1.28016C3.37263 1.10078 3.61592 1 3.86961 1H15.3766C15.6879 0.999748 15.9985 1.02857 16.3044 1.08609V4.8261C16.3044 5.07978 16.4052 5.32308 16.5846 5.50246C16.764 5.68184 17.0072 5.78262 17.2609 5.78262H21.001C21.0585 6.08854 21.0873 6.39917 21.087 6.71044Z" fill="#66E1FF"/>
<path d="M16.6392 5.55305L2.91309 19.2887V1.95652C2.91309 1.70284 3.01385 1.45954 3.19325 1.28016C3.37263 1.10078 3.61592 1 3.86961 1H15.3766C15.6879 0.999748 15.9985 1.02857 16.3044 1.08609V4.8261C16.3062 4.96395 16.3369 5.09988 16.3947 5.2251C16.4523 5.35032 16.5356 5.46205 16.6392 5.55305Z" fill="#C2F3FF"/>
<path d="M21.0008 5.78259H17.2608C17.007 5.78259 16.7638 5.68181 16.5844 5.50243C16.405 5.32305 16.3042 5.07975 16.3042 4.82607V1.08606C17.4817 1.27497 18.5696 1.83063 19.4129 2.67392C20.2562 3.51719 20.8119 4.60507 21.0008 5.78259Z" fill="white"/>
<path d="M20.1305 23C20.3842 23 20.6275 22.8992 20.8069 22.7199C20.9863 22.5405 21.087 22.2972 21.087 22.0435V6.71523C21.087 5.19945 20.4849 3.74576 19.4131 2.67395C18.3413 1.60214 16.8876 1 15.3718 1H3.86961C3.61592 1 3.37263 1.10078 3.19325 1.28016C3.01385 1.45954 2.91309 1.70284 2.91309 1.95652V22.0435C2.91309 22.2972 3.01385 22.5405 3.19325 22.7199C3.37263 22.8992 3.61592 23 3.86961 23H20.1305Z" stroke="#191919" stroke-linecap="round" stroke-linejoin="round"/>
<path d="M16.3042 1.07648V4.82604C16.3042 5.07974 16.405 5.32303 16.5844 5.50242C16.7638 5.6818 17.007 5.78258 17.2608 5.78258H21.0103" stroke="#191919" stroke-linecap="round" stroke-linejoin="round"/>
<path d="M8.65278 12.4782V16.7826C8.65278 17.1631 8.50161 17.5281 8.23254 17.7972C7.96346 18.0663 7.59851 18.2174 7.21799 18.2174C6.83746 18.2174 6.47252 18.0663 6.20344 17.7972C5.93437 17.5281 5.7832 17.1631 5.7832 16.7826" stroke="#191919" stroke-linecap="round" stroke-linejoin="round"/>
<path d="M13.435 13.913C13.435 14.2936 13.2838 14.6585 13.0148 14.9275C12.7457 15.1966 12.3808 15.3479 12.0002 15.3479H10.5654V12.4782H12.0002C12.3808 12.4782 12.7457 12.6295 13.0148 12.8985C13.2838 13.1675 13.435 13.5325 13.435 13.913Z" stroke="#191919" stroke-linecap="round" stroke-linejoin="round"/>
<path d="M10.5654 18.2174V15.3479" stroke="#191919" stroke-linecap="round" stroke-linejoin="round"/>
<path d="M18.2177 14.3913V13.913C18.2177 13.5325 18.0665 13.1675 17.7975 12.8985C17.5284 12.6295 17.1635 12.4782 16.783 12.4782C16.4024 12.4782 16.0374 12.6295 15.7684 12.8985C15.4993 13.1675 15.3481 13.5325 15.3481 13.913V16.7826C15.3481 17.1631 15.4993 17.5281 15.7684 17.7972C16.0374 18.0663 16.4024 18.2174 16.783 18.2174C17.1635 18.2174 17.5284 18.0663 17.7975 17.7972C18.0665 17.5281 18.2177 17.1631 18.2177 16.7826V16.3043H17.2612" stroke="#191919" stroke-linecap="round" stroke-linejoin="round"/>
</g>
<defs>
<clipPath id="clip0_5303_3581">
<rect width="24" height="24" fill="white"/>
</clipPath>
</defs>
</svg>
