<svg width="24" height="24" viewBox="0 0 24 24" fill="none" xmlns="http://www.w3.org/2000/svg">
<mask id="mask0_5303_2269" style="mask-type:luminance" maskUnits="userSpaceOnUse" x="1" y="1" width="22" height="22">
<path d="M1 1H23V23H1V1Z" fill="white"/>
</mask>
<g mask="url(#mask0_5303_2269)">
<path d="M11.9998 22.0833C17.5687 22.0833 22.0832 17.5688 22.0832 12C22.0832 6.43109 17.5687 1.91663 11.9998 1.91663C6.43097 1.91663 1.9165 6.43109 1.9165 12C1.9165 17.5688 6.43097 22.0833 11.9998 22.0833Z" fill="#66E1FF"/>
<path d="M11.9998 5.12496C14.3944 5.12644 16.7103 5.98057 18.5325 7.53429C20.3546 9.08802 21.564 11.2398 21.9438 13.6041C22.1669 12.2299 22.1028 10.8243 21.7556 9.47602C21.4083 8.12776 20.7855 6.86606 19.9264 5.77047C19.0673 4.67488 17.9906 3.76915 16.764 3.1104C15.5375 2.45165 14.1877 2.05416 12.8 1.94301C11.4122 1.83184 10.0164 2.00941 8.70061 2.46453C7.38485 2.91964 6.17764 3.64243 5.15511 4.5873C4.13258 5.53218 3.3169 6.67866 2.7595 7.95446C2.20211 9.23026 1.91507 10.6077 1.91651 12C1.92045 12.5375 1.96705 13.0739 2.05584 13.6041C2.4357 11.2398 3.64505 9.08802 5.4672 7.53429C7.28934 5.98057 9.60521 5.12644 11.9998 5.12496Z" fill="#C2F3FF"/>
<path d="M11.9998 22.0833C17.5687 22.0833 22.0832 17.5688 22.0832 12C22.0832 6.43109 17.5687 1.91663 11.9998 1.91663C6.43097 1.91663 1.9165 6.43109 1.9165 12C1.9165 17.5688 6.43097 22.0833 11.9998 22.0833Z" stroke="#191919" stroke-linecap="round" stroke-linejoin="round"/>
<path d="M14.2915 16.5833H12.9165C12.6734 16.5833 12.4402 16.4867 12.2683 16.3148C12.0965 16.143 11.9998 15.9098 11.9998 15.6667V9.70833C11.9998 9.58677 11.9515 9.47019 11.8656 9.38425C11.7797 9.29829 11.6631 9.25 11.5415 9.25H10.1665" stroke="#191919" stroke-linecap="round" stroke-linejoin="round"/>
<path d="M11.7707 7.41665C11.6441 7.41665 11.5415 7.31404 11.5415 7.18748C11.5415 7.06092 11.6441 6.95831 11.7707 6.95831" stroke="#191919"/>
<path d="M11.7705 7.41665C11.8971 7.41665 11.9997 7.31404 11.9997 7.18748C11.9997 7.06092 11.8971 6.95831 11.7705 6.95831" stroke="#191919"/>
</g>
</svg>
