<svg width="24" height="24" viewBox="0 0 24 24" fill="none" xmlns="http://www.w3.org/2000/svg">
<g clip-path="url(#clip0_5303_9819)">
<path d="M1.12061 22.5217C1.12061 22.6486 1.17099 22.7702 1.26068 22.8599C1.35038 22.9496 1.47202 23 1.59887 23H22.4013C22.5281 23 22.6498 22.9496 22.7395 22.8599C22.8292 22.7702 22.8796 22.6486 22.8796 22.5217V13.4348H1.59887C1.47202 13.4348 1.35038 13.4852 1.26068 13.5749C1.17099 13.6646 1.12061 13.7862 1.12061 13.913V22.5217Z" fill="#C77F67"/>
<path d="M22.8796 16.3043V13.4348H1.59887C1.47202 13.4348 1.35038 13.4852 1.26068 13.5749C1.17099 13.6646 1.12061 13.7862 1.12061 13.913V16.3043H22.8796Z" fill="#E3BFB3"/>
<path d="M11.3955 13.4348H22.8795" stroke="#191919" stroke-linecap="round" stroke-linejoin="round"/>
<path d="M8.53501 22.9999L9.01327 17.2608H11.4046V13.9129C11.4046 12.6445 10.9007 11.428 10.0038 10.5311C9.10687 9.63425 7.89039 9.13037 6.62196 9.13037C5.35354 9.13037 4.13706 9.63425 3.24015 10.5311C2.34324 11.428 1.83936 12.6445 1.83936 13.9129V17.2608H4.23066L4.70892 22.9999H8.53501Z" fill="#E3E3E3"/>
<path d="M6.62196 9.13037C5.35354 9.13037 4.13706 9.63425 3.24015 10.5311C2.34324 11.428 1.83936 12.6445 1.83936 13.9129V16.5462C1.83936 15.2778 2.34324 14.0613 3.24015 13.1644C4.13706 12.2675 5.35354 11.7636 6.62196 11.7636C7.89039 11.7636 9.10687 12.2675 10.0038 13.1644C10.9007 14.0613 11.4046 15.2778 11.4046 16.5462V13.9129C11.4046 12.6445 10.9007 11.428 10.0038 10.5311C9.10687 9.63425 7.89039 9.13037 6.62196 9.13037Z" fill="white"/>
<path d="M8.53501 22.9999L9.01327 17.2608H11.4046V13.9129C11.4046 12.6445 10.9007 11.428 10.0038 10.5311C9.10687 9.63425 7.89039 9.13037 6.62196 9.13037C5.35354 9.13037 4.13706 9.63425 3.24015 10.5311C2.34324 11.428 1.83936 12.6445 1.83936 13.9129V17.2608H4.23066L4.70892 22.9999H8.53501Z" stroke="#191919" stroke-linecap="round" stroke-linejoin="round"/>
<path d="M6.62224 7.69565C7.51014 7.69565 8.36167 7.34294 8.98951 6.7151C9.61735 6.08726 9.97007 5.23572 9.97007 4.34783C9.97007 3.45993 9.61735 2.60839 8.98951 1.98056C8.36167 1.35272 7.51014 1 6.62224 1C5.73434 1 4.88281 1.35272 4.25497 1.98056C3.62713 2.60839 3.27441 3.45993 3.27441 4.34783C3.27441 5.23572 3.62713 6.08726 4.25497 6.7151C4.88281 7.34294 5.73434 7.69565 6.62224 7.69565Z" fill="#E3E3E3" stroke="#191919" stroke-linecap="round" stroke-linejoin="round"/>
<path d="M17.6219 9.1304C18.1927 9.1304 18.7401 8.90365 19.1437 8.50004C19.5473 8.09643 19.7741 7.54902 19.7741 6.97822C19.7741 6.40743 19.5473 5.86002 19.1437 5.45641C18.7401 5.0528 18.1927 4.82605 17.6219 4.82605C17.0511 4.82605 16.5037 5.0528 16.1001 5.45641C15.6965 5.86002 15.4697 6.40743 15.4697 6.97822C15.4697 7.54902 15.6965 8.09643 16.1001 8.50004C16.5037 8.90365 17.0511 9.1304 17.6219 9.1304Z" fill="#FFDDA1" stroke="#191919" stroke-linecap="round" stroke-linejoin="round"/>
<path d="M21.9266 13.4348C21.6827 12.4783 21.1271 11.6304 20.3477 11.0247C19.5683 10.4191 18.6093 10.0903 17.6222 10.0903C16.6351 10.0903 15.6762 10.4191 14.8967 11.0247C14.1173 11.6304 13.5618 12.4783 13.3179 13.4348H21.9266Z" fill="#FF808C" stroke="#191919" stroke-linecap="round" stroke-linejoin="round"/>
</g>
<defs>
<clipPath id="clip0_5303_9819">
<rect width="24" height="24" fill="white"/>
</clipPath>
</defs>
</svg>
