<svg width="24" height="24" viewBox="0 0 24 24" fill="none" xmlns="http://www.w3.org/2000/svg">
<g clip-path="url(#clip0_5303_12903)">
<mask id="mask0_5303_12903" style="mask-type:luminance" maskUnits="userSpaceOnUse" x="0" y="0" width="24" height="24">
<path d="M0 0H24V24H0V0Z" fill="white"/>
</mask>
<g mask="url(#mask0_5303_12903)">
<path d="M6.73926 13.3904L10.7901 1.68829C10.8698 1.45787 11.0345 1.26659 11.2505 1.15352C11.4665 1.04045 11.7176 1.01413 11.9523 1.07994C12.6546 1.278 13.273 1.7001 13.7133 2.282C14.1535 2.8639 14.3917 3.57371 14.3914 4.30342C14.3914 4.93763 14.6434 5.54587 15.0918 5.99432C15.5403 6.44279 16.1486 6.69473 16.7827 6.69473C18.178 6.69473 19.5161 7.24899 20.5027 8.2356C21.4893 9.2222 22.0436 10.5603 22.0436 11.9556V13.3904" fill="#808080"/>
<path d="M23 14.3469C23 14.0932 22.8992 13.8499 22.7198 13.6705C22.5405 13.4911 22.2971 13.3904 22.0435 13.3904H6.73913C6.48544 13.3904 6.24215 13.4911 6.06276 13.6705C5.88339 13.8499 5.78261 14.0932 5.78261 14.3469V16.2599H1.95652C1.70283 16.2599 1.45954 16.3607 1.28016 16.5401C1.10078 16.7195 1 16.9628 1 17.2165V19.1295C1 19.3832 1.10078 19.6264 1.28016 19.8059C1.45954 19.9852 1.70283 20.086 1.95652 20.086H22.0435C22.2971 20.086 22.5405 19.9852 22.7198 19.8059C22.8992 19.6264 23 19.3832 23 19.1295V14.3469Z" fill="#B2B2B2"/>
<path d="M21.0869 20.0859V22.9555" stroke="#191919" stroke-linecap="round" stroke-linejoin="round"/>
<path d="M4.82715 20.0859V22.9555" stroke="#191919" stroke-linecap="round" stroke-linejoin="round"/>
<path d="M11.5225 8.12927L14.8703 13.3902" stroke="#191919" stroke-linecap="round" stroke-linejoin="round"/>
<path d="M6.73926 13.3904L10.7901 1.68829C10.8698 1.45787 11.0345 1.26659 11.2505 1.15352C11.4665 1.04045 11.7176 1.01413 11.9523 1.07994C12.6546 1.278 13.273 1.7001 13.7133 2.282C14.1535 2.8639 14.3917 3.57371 14.3914 4.30342C14.3914 4.93763 14.6434 5.54587 15.0918 5.99432C15.5403 6.44279 16.1486 6.69473 16.7827 6.69473C18.178 6.69473 19.5161 7.24899 20.5027 8.2356C21.4893 9.2222 22.0436 10.5603 22.0436 11.9556V13.3904" stroke="#191919" stroke-linecap="round" stroke-linejoin="round"/>
<path d="M23 14.3469C23 14.0932 22.8992 13.8499 22.7198 13.6705C22.5405 13.4911 22.2971 13.3904 22.0435 13.3904H6.73913C6.48544 13.3904 6.24215 13.4911 6.06276 13.6705C5.88339 13.8499 5.78261 14.0932 5.78261 14.3469V16.2599H1.95652C1.70283 16.2599 1.45954 16.3607 1.28016 16.5401C1.10078 16.7195 1 16.9628 1 17.2165V19.1295C1 19.3832 1.10078 19.6264 1.28016 19.8059C1.45954 19.9852 1.70283 20.086 1.95652 20.086H22.0435C22.2971 20.086 22.5405 19.9852 22.7198 19.8059C22.8992 19.6264 23 19.3832 23 19.1295V14.3469Z" stroke="#191919" stroke-linecap="round" stroke-linejoin="round"/>
</g>
</g>
<defs>
<clipPath id="clip0_5303_12903">
<rect width="24" height="24" fill="white"/>
</clipPath>
</defs>
</svg>
