<svg width="24" height="24" viewBox="0 0 24 24" fill="none" xmlns="http://www.w3.org/2000/svg">
<g clip-path="url(#clip0_5303_13236)">
<mask id="mask0_5303_13236" style="mask-type:luminance" maskUnits="userSpaceOnUse" x="0" y="0" width="24" height="24">
<path d="M0 0H24V24H0V0Z" fill="white"/>
</mask>
<g mask="url(#mask0_5303_13236)">
<path d="M17.6836 10.6638C18.5806 10.6638 19.4409 10.3075 20.0752 9.67315C20.7096 9.03884 21.0659 8.17853 21.0659 7.28149C21.0659 6.38444 20.7096 5.52414 20.0752 4.88983C19.4409 4.25552 18.5806 3.89917 17.6836 3.89917C16.7865 3.89917 15.9262 4.25552 15.2919 4.88983C14.6576 5.52414 14.3013 6.38444 14.3013 7.28149C14.3013 8.17853 14.6576 9.03884 15.2919 9.67315C15.9262 10.3075 16.7865 10.6638 17.6836 10.6638Z" fill="#E3E3E3"/>
<path d="M19.6162 21.2938C20.5133 21.2938 21.3736 20.9375 22.0079 20.3032C22.6422 19.6688 22.9985 18.8085 22.9985 17.9115C22.9985 17.0144 22.6422 16.1541 22.0079 15.5198C21.3736 14.8855 20.5133 14.5292 19.6162 14.5292C18.7192 14.5292 17.8589 14.8855 17.2245 15.5198C16.5902 16.1541 16.2339 17.0144 16.2339 17.9115C16.2339 18.8085 16.5902 19.6688 17.2245 20.3032C17.8589 20.9375 18.7192 21.2938 19.6162 21.2938Z" fill="#E3E3E3"/>
<path d="M7.05371 7.76464C7.95075 7.76464 8.81106 7.40829 9.44536 6.77398C10.0797 6.13967 10.436 5.27937 10.436 4.38232C10.436 3.48527 10.0797 2.62497 9.44536 1.99066C8.81106 1.35635 7.95075 1 7.05371 1C6.15666 1 5.29635 1.35635 4.66204 1.99066C4.02774 2.62497 3.67139 3.48527 3.67139 4.38232C3.67139 5.27937 4.02774 6.13967 4.66204 6.77398C5.29635 7.40829 6.15666 7.76464 7.05371 7.76464Z" fill="#E3E3E3"/>
<path d="M15.2922 9.67322C14.6761 9.0353 14.3352 8.18092 14.3429 7.29409C14.3506 6.40726 14.7063 5.55893 15.3334 4.93182C15.9605 4.30471 16.8089 3.949 17.6957 3.94129C18.5825 3.93358 19.4369 4.2745 20.0748 4.89062L15.2922 9.67322Z" fill="white"/>
<path d="M17.2244 20.3035C16.6082 19.6656 16.2673 18.8112 16.275 17.9243C16.2827 17.0375 16.6384 16.1892 17.2656 15.5621C17.8927 14.935 18.741 14.5792 19.6278 14.5715C20.5147 14.5638 21.369 14.9048 22.007 15.5209L17.2244 20.3035Z" fill="white"/>
<path d="M4.66186 6.77405C4.04574 6.13613 3.70482 5.28175 3.71253 4.39492C3.72024 3.50809 4.07595 2.65976 4.70306 2.03265C5.33017 1.40554 6.1785 1.04983 7.06533 1.04212C7.95216 1.03441 8.80655 1.37533 9.44446 1.99145L4.66186 6.77405Z" fill="white"/>
<path d="M17.6836 10.6638C18.5806 10.6638 19.4409 10.3075 20.0752 9.67315C20.7096 9.03884 21.0659 8.17853 21.0659 7.28149C21.0659 6.38444 20.7096 5.52414 20.0752 4.88983C19.4409 4.25552 18.5806 3.89917 17.6836 3.89917C16.7865 3.89917 15.9262 4.25552 15.2919 4.88983C14.6576 5.52414 14.3013 6.38444 14.3013 7.28149C14.3013 8.17853 14.6576 9.03884 15.2919 9.67315C15.9262 10.3075 16.7865 10.6638 17.6836 10.6638Z" stroke="#191919" stroke-linecap="round" stroke-linejoin="round"/>
<path d="M19.6162 21.2938C20.5133 21.2938 21.3736 20.9375 22.0079 20.3032C22.6422 19.6688 22.9985 18.8085 22.9985 17.9115C22.9985 17.0144 22.6422 16.1541 22.0079 15.5198C21.3736 14.8855 20.5133 14.5292 19.6162 14.5292C18.7192 14.5292 17.8589 14.8855 17.2245 15.5198C16.5902 16.1541 16.2339 17.0144 16.2339 17.9115C16.2339 18.8085 16.5902 19.6688 17.2245 20.3032C17.8589 20.9375 18.7192 21.2938 19.6162 21.2938Z" stroke="#191919" stroke-linecap="round" stroke-linejoin="round"/>
<path d="M7.05371 7.76464C7.95075 7.76464 8.81106 7.40829 9.44536 6.77398C10.0797 6.13967 10.436 5.27937 10.436 4.38232C10.436 3.48527 10.0797 2.62497 9.44536 1.99066C8.81106 1.35635 7.95075 1 7.05371 1C6.15666 1 5.29635 1.35635 4.66204 1.99066C4.02774 2.62497 3.67139 3.48527 3.67139 4.38232C3.67139 5.27937 4.02774 6.13967 4.66204 6.77398C5.29635 7.40829 6.15666 7.76464 7.05371 7.76464Z" stroke="#191919" stroke-linecap="round" stroke-linejoin="round"/>
<path d="M12.8412 21.9586C12.9276 22.1819 13.0622 22.3834 13.2352 22.5487C13.4083 22.7141 13.6157 22.8393 13.8427 22.9154C14.0697 22.9915 14.3106 23.0167 14.5484 22.9891C14.7862 22.9616 15.015 22.8819 15.2185 22.7559C16.5162 21.9489 17.6148 20.8593 18.4324 19.5683C19.25 18.2773 19.7654 16.8184 19.9403 15.3003C20.1151 13.7823 19.9448 12.2443 19.4422 10.8013C18.9395 9.35825 18.1173 8.04738 17.0372 6.96652C15.957 5.88566 14.6466 5.06273 13.2039 4.55914C11.7612 4.05556 10.2233 3.88433 8.70517 4.05824C7.187 4.23214 5.72772 4.74669 4.43625 5.56348C3.14477 6.38027 2.05444 7.4782 1.24666 8.77532C1.12013 8.9793 1.04014 9.20867 1.0124 9.44709C0.984662 9.68552 1.00985 9.92712 1.08617 10.1547C1.16249 10.3823 1.28806 10.5902 1.45394 10.7637C1.61982 10.9372 1.82192 11.072 2.04585 11.1584" stroke="#191919" stroke-linecap="round" stroke-linejoin="round"/>
<path d="M2.3415 12.7733C2.09829 12.5296 1.94976 12.2073 1.92252 11.8641C1.89527 11.5209 1.99108 11.1792 2.19279 10.9001C2.3945 10.6211 2.68895 10.423 3.0234 10.3412C3.35786 10.2595 3.71049 10.2995 4.01816 10.454C8.07157 12.6085 11.3892 15.9244 13.5457 19.9767C13.7187 20.3201 13.7482 20.7182 13.6276 21.0834C13.5071 21.4486 13.2465 21.7509 12.903 21.924C12.5596 22.097 12.1615 22.1264 11.7963 22.0059C11.4311 21.8854 11.1288 21.6248 10.9558 21.2813C9.08413 17.7814 6.21733 14.9146 2.71742 13.0429C2.57839 12.9735 2.45145 12.8831 2.3415 12.7733Z" fill="#FF808C"/>
<path d="M2.3415 12.7733C2.09829 12.5296 1.94976 12.2073 1.92252 11.8641C1.89527 11.5209 1.99108 11.1792 2.19279 10.9001C2.3945 10.6211 2.68895 10.423 3.0234 10.3412C3.35786 10.2595 3.71049 10.2995 4.01816 10.454C8.07157 12.6085 11.3892 15.9244 13.5457 19.9767C13.7187 20.3201 13.7482 20.7182 13.6276 21.0834C13.5071 21.4486 13.2465 21.7509 12.903 21.924C12.5596 22.097 12.1615 22.1264 11.7963 22.0059C11.4311 21.8854 11.1288 21.6248 10.9558 21.2813C9.08413 17.7814 6.21733 14.9146 2.71742 13.0429C2.57839 12.9735 2.45145 12.8831 2.3415 12.7733Z" stroke="#191919" stroke-linecap="round" stroke-linejoin="round"/>
</g>
</g>
<defs>
<clipPath id="clip0_5303_13236">
<rect width="24" height="24" fill="white"/>
</clipPath>
</defs>
</svg>
