<svg width="24" height="24" viewBox="0 0 24 24" fill="none" xmlns="http://www.w3.org/2000/svg">
<g clip-path="url(#clip0_5303_13035)">
<mask id="mask0_5303_13035" style="mask-type:luminance" maskUnits="userSpaceOnUse" x="0" y="0" width="24" height="24">
<path d="M0 0H24V24H0V0Z" fill="white"/>
</mask>
<g mask="url(#mask0_5303_13035)">
<path d="M17.7393 16.3044V1.95652C17.7393 1.70284 17.8401 1.45954 18.0194 1.28016C18.1988 1.10078 18.4421 1 18.6958 1H20.6088C20.8625 1 21.1058 1.10078 21.2852 1.28016C21.4645 1.45954 21.5654 1.70284 21.5654 1.95652V16.3044" fill="#FFBC44"/>
<path d="M13.9121 16.3045V4.82615C13.9121 4.57246 14.0129 4.32917 14.1923 4.14979C14.3716 3.97041 14.615 3.86963 14.8686 3.86963H16.7817C17.0354 3.86963 17.2787 3.97041 17.458 4.14979C17.6374 4.32917 17.7382 4.57246 17.7382 4.82615V16.3045" fill="#FFBC44"/>
<path d="M10.0869 16.3044V7.69566C10.0869 7.44197 10.1877 7.19868 10.3671 7.01929C10.5464 6.83992 10.7898 6.73914 11.0434 6.73914H12.9565C13.2102 6.73914 13.4535 6.83992 13.6328 7.01929C13.8122 7.19868 13.913 7.44197 13.913 7.69566V16.3044" fill="#FFBC44"/>
<path d="M6.26074 16.3044V10.5653C6.26074 10.3116 6.36152 10.0683 6.5409 9.88892C6.72029 9.70954 6.96358 9.60876 7.21727 9.60876H9.13032C9.38401 9.60876 9.6273 9.70954 9.80668 9.88892C9.98606 10.0683 10.0868 10.3116 10.0868 10.5653V16.3044" fill="#FFBC44"/>
<path d="M2.43359 16.3044V13.4348C2.43359 13.1811 2.53437 12.9378 2.71375 12.7584C2.89314 12.5791 3.13643 12.4783 3.39012 12.4783H5.30317C5.55686 12.4783 5.80015 12.5791 5.97954 12.7584C6.15891 12.9378 6.25969 13.1811 6.25969 13.4348V16.3044" fill="#FFBC44"/>
<path d="M21.5654 1.95652V4.1374C21.5654 3.88371 21.4645 3.64042 21.2852 3.46103C21.1058 3.28166 20.8625 3.18088 20.6088 3.18088H18.6958C18.4421 3.18088 18.1988 3.28166 18.0194 3.46103C17.8401 3.64042 17.7393 3.88371 17.7393 4.1374V1.95652C17.7393 1.70284 17.8401 1.45954 18.0194 1.28016C18.1988 1.10078 18.4421 1 18.6958 1H20.6088C20.8625 1 21.1058 1.10078 21.2852 1.28016C21.4645 1.45954 21.5654 1.70284 21.5654 1.95652Z" fill="#FFDDA1"/>
<path d="M17.7382 4.82615V7.00703C17.7382 6.75334 17.6374 6.51005 17.458 6.33066C17.2787 6.15128 17.0354 6.05051 16.7817 6.05051H14.8686C14.615 6.05051 14.3716 6.15128 14.1923 6.33066C14.0129 6.51005 13.9121 6.75334 13.9121 7.00703V4.82615C13.9121 4.57246 14.0129 4.32917 14.1923 4.14979C14.3716 3.97041 14.615 3.86963 14.8686 3.86963H16.7817C17.0354 3.86963 17.2787 3.97041 17.458 4.14979C17.6374 4.32917 17.7382 4.57246 17.7382 4.82615Z" fill="#FFDDA1"/>
<path d="M13.913 7.69566V9.87654C13.913 9.62285 13.8122 9.37956 13.6328 9.20017C13.4535 9.02079 13.2102 8.92001 12.9565 8.92001H11.0434C10.7898 8.92001 10.5464 9.02079 10.3671 9.20017C10.1877 9.37956 10.0869 9.62285 10.0869 9.87654V7.69566C10.0869 7.44197 10.1877 7.19868 10.3671 7.01929C10.5464 6.83992 10.7898 6.73914 11.0434 6.73914H12.9565C13.2102 6.73914 13.4535 6.83992 13.6328 7.01929C13.8122 7.19868 13.913 7.44197 13.913 7.69566Z" fill="#FFDDA1"/>
<path d="M10.0868 10.5653V12.7462C10.0868 12.4925 9.98606 12.2492 9.80668 12.0698C9.6273 11.8905 9.38401 11.7896 9.13032 11.7896H7.21727C6.96358 11.7896 6.72029 11.8905 6.5409 12.0698C6.36152 12.2492 6.26074 12.4925 6.26074 12.7462V10.5653C6.26074 10.3116 6.36152 10.0683 6.5409 9.88892C6.72029 9.70954 6.96358 9.60876 7.21727 9.60876H9.13032C9.38401 9.60876 9.6273 9.70954 9.80668 9.88892C9.98606 10.0683 10.0868 10.3116 10.0868 10.5653Z" fill="#FFDDA1"/>
<path d="M6.25969 13.4348V15.6157C6.25969 15.362 6.15891 15.1187 5.97954 14.9393C5.80015 14.76 5.55686 14.6591 5.30317 14.6591H3.39012C3.13643 14.6591 2.89314 14.76 2.71375 14.9393C2.53437 15.1187 2.43359 15.362 2.43359 15.6157V13.4348C2.43359 13.1811 2.53437 12.9378 2.71375 12.7584C2.89314 12.5791 3.13643 12.4783 3.39012 12.4783H5.30317C5.55686 12.4783 5.80015 12.5791 5.97954 12.7584C6.15891 12.9378 6.25969 13.1811 6.25969 13.4348Z" fill="#FFDDA1"/>
<path d="M21.5654 19.174V22.0435C21.5654 22.2972 21.4645 22.5405 21.2852 22.7199C21.1058 22.8992 20.8625 23.0001 20.6088 23.0001H18.6958C18.4421 23.0001 18.1988 22.8992 18.0194 22.7199C17.8401 22.5405 17.7393 22.2972 17.7393 22.0435V19.174" fill="#FFBC44"/>
<path d="M17.7382 19.174V22.0435C17.7382 22.2972 17.6374 22.5405 17.458 22.7199C17.2787 22.8992 17.0354 23.0001 16.7817 23.0001H14.8686C14.615 23.0001 14.3716 22.8992 14.1923 22.7199C14.0129 22.5405 13.9121 22.2972 13.9121 22.0435V19.174" fill="#FFBC44"/>
<path d="M13.913 19.174V22.0435C13.913 22.2972 13.8122 22.5405 13.6328 22.7199C13.4535 22.8992 13.2102 23.0001 12.9565 23.0001H11.0434C10.7898 23.0001 10.5464 22.8992 10.3671 22.7199C10.1877 22.5405 10.0869 22.2972 10.0869 22.0435V19.174" fill="#FFBC44"/>
<path d="M10.0868 19.174V22.0435C10.0868 22.2972 9.98606 22.5405 9.80668 22.7199C9.6273 22.8992 9.38401 23.0001 9.13032 23.0001H7.21727C6.96358 23.0001 6.72029 22.8992 6.5409 22.7199C6.36152 22.5405 6.26074 22.2972 6.26074 22.0435V19.174" fill="#FFBC44"/>
<path d="M6.25969 19.174V22.0435C6.25969 22.2972 6.15891 22.5405 5.97954 22.7199C5.80015 22.8992 5.55686 23.0001 5.30317 23.0001H3.39012C3.13643 23.0001 2.89314 22.8992 2.71375 22.7199C2.53437 22.5405 2.43359 22.2972 2.43359 22.0435V19.174" fill="#FFBC44"/>
<path d="M21.5641 19.174H2.43359V21.086H21.5641V19.174Z" fill="#C77F67"/>
<path d="M17.7393 16.3044V1.95652C17.7393 1.70284 17.8401 1.45954 18.0194 1.28016C18.1988 1.10078 18.4421 1 18.6958 1H20.6088C20.8625 1 21.1058 1.10078 21.2852 1.28016C21.4645 1.45954 21.5654 1.70284 21.5654 1.95652V16.3044" stroke="#191919" stroke-linecap="round" stroke-linejoin="round"/>
<path d="M13.9121 16.3045V4.82615C13.9121 4.57246 14.0129 4.32917 14.1923 4.14979C14.3716 3.97041 14.615 3.86963 14.8686 3.86963H16.7817C17.0354 3.86963 17.2787 3.97041 17.458 4.14979C17.6374 4.32917 17.7382 4.57246 17.7382 4.82615V16.3045" stroke="#191919" stroke-linecap="round" stroke-linejoin="round"/>
<path d="M10.0869 16.3044V7.69566C10.0869 7.44197 10.1877 7.19868 10.3671 7.01929C10.5464 6.83992 10.7898 6.73914 11.0434 6.73914H12.9565C13.2102 6.73914 13.4535 6.83992 13.6328 7.01929C13.8122 7.19868 13.913 7.44197 13.913 7.69566V16.3044" stroke="#191919" stroke-linecap="round" stroke-linejoin="round"/>
<path d="M6.26074 16.3044V10.5653C6.26074 10.3116 6.36152 10.0683 6.5409 9.88892C6.72029 9.70954 6.96358 9.60876 7.21727 9.60876H9.13032C9.38401 9.60876 9.6273 9.70954 9.80668 9.88892C9.98606 10.0683 10.0868 10.3116 10.0868 10.5653V16.3044" stroke="#191919" stroke-linecap="round" stroke-linejoin="round"/>
<path d="M2.43359 16.3044V13.4348C2.43359 13.1811 2.53437 12.9378 2.71375 12.7584C2.89314 12.5791 3.13643 12.4783 3.39012 12.4783H5.30317C5.55686 12.4783 5.80015 12.5791 5.97954 12.7584C6.15891 12.9378 6.25969 13.1811 6.25969 13.4348V16.3044" stroke="#191919" stroke-linecap="round" stroke-linejoin="round"/>
<path d="M22.0438 16.3043H1.95678C1.69264 16.3043 1.47852 16.5185 1.47852 16.7826V18.6956C1.47852 18.9597 1.69264 19.1739 1.95678 19.1739H22.0438C22.3079 19.1739 22.5221 18.9597 22.5221 18.6956V16.7826C22.5221 16.5185 22.3079 16.3043 22.0438 16.3043Z" fill="#FF808C"/>
<path d="M22.5221 17.7391V16.7826C22.5221 16.6557 22.4717 16.5341 22.382 16.4444C22.2923 16.3547 22.1706 16.3043 22.0438 16.3043H1.95678C1.82993 16.3043 1.70828 16.3547 1.6186 16.4444C1.52891 16.5341 1.47852 16.6557 1.47852 16.7826V17.7391H22.5221Z" fill="#FFBFC5"/>
<path d="M22.0438 16.3043H1.95678C1.69264 16.3043 1.47852 16.5185 1.47852 16.7826V18.6956C1.47852 18.9597 1.69264 19.1739 1.95678 19.1739H22.0438C22.3079 19.1739 22.5221 18.9597 22.5221 18.6956V16.7826C22.5221 16.5185 22.3079 16.3043 22.0438 16.3043Z" stroke="#191919" stroke-linecap="round" stroke-linejoin="round"/>
<path d="M21.5654 19.174V22.0435C21.5654 22.2972 21.4645 22.5405 21.2852 22.7199C21.1058 22.8992 20.8625 23.0001 20.6088 23.0001H18.6958C18.4421 23.0001 18.1988 22.8992 18.0194 22.7199C17.8401 22.5405 17.7393 22.2972 17.7393 22.0435V19.174" stroke="#191919" stroke-linecap="round" stroke-linejoin="round"/>
<path d="M17.7382 19.174V22.0435C17.7382 22.2972 17.6374 22.5405 17.458 22.7199C17.2787 22.8992 17.0354 23.0001 16.7817 23.0001H14.8686C14.615 23.0001 14.3716 22.8992 14.1923 22.7199C14.0129 22.5405 13.9121 22.2972 13.9121 22.0435V19.174" stroke="#191919" stroke-linecap="round" stroke-linejoin="round"/>
<path d="M13.913 19.174V22.0435C13.913 22.2972 13.8122 22.5405 13.6328 22.7199C13.4535 22.8992 13.2102 23.0001 12.9565 23.0001H11.0434C10.7898 23.0001 10.5464 22.8992 10.3671 22.7199C10.1877 22.5405 10.0869 22.2972 10.0869 22.0435V19.174" stroke="#191919" stroke-linecap="round" stroke-linejoin="round"/>
<path d="M10.0868 19.174V22.0435C10.0868 22.2972 9.98606 22.5405 9.80668 22.7199C9.6273 22.8992 9.38401 23.0001 9.13032 23.0001H7.21727C6.96358 23.0001 6.72029 22.8992 6.5409 22.7199C6.36152 22.5405 6.26074 22.2972 6.26074 22.0435V19.174" stroke="#191919" stroke-linecap="round" stroke-linejoin="round"/>
<path d="M6.25969 19.174V22.0435C6.25969 22.2972 6.15891 22.5405 5.97954 22.7199C5.80015 22.8992 5.55686 23.0001 5.30317 23.0001H3.39012C3.13643 23.0001 2.89314 22.8992 2.71375 22.7199C2.53437 22.5405 2.43359 22.2972 2.43359 22.0435V19.174" stroke="#191919" stroke-linecap="round" stroke-linejoin="round"/>
</g>
</g>
<defs>
<clipPath id="clip0_5303_13035">
<rect width="24" height="24" fill="white"/>
</clipPath>
</defs>
</svg>
