<svg width="24" height="24" viewBox="0 0 24 24" fill="none" xmlns="http://www.w3.org/2000/svg">
<g clip-path="url(#clip0_5303_8963)">
<path d="M17.2609 1H6.73913C5.21702 1 3.75725 1.60466 2.68095 2.68095C1.60466 3.75725 1 5.21702 1 6.73913V17.2609C1 18.783 1.60466 20.2427 2.68095 21.319C3.75725 22.3953 5.21702 23 6.73913 23H17.2609C18.783 23 20.2427 22.3953 21.319 21.319C22.3953 20.2427 23 18.783 23 17.2609V6.73913C23 5.21702 22.3953 3.75725 21.319 2.68095C20.2427 1.60466 18.783 1 17.2609 1Z" fill="#FFBFC5"/>
<path d="M21.2609 2.6261L2.62598 21.262C3.15999 21.8127 3.79931 22.2503 4.5059 22.5489C5.2125 22.8475 5.97193 23.0009 6.73902 23H17.2608C18.7829 23 20.2426 22.3954 21.3189 21.3191C22.3952 20.2428 22.9999 18.783 22.9999 17.2609V6.73914C23.0008 5.97196 22.8473 5.21244 22.5486 4.50582C22.2498 3.79919 21.8119 3.15993 21.2609 2.6261Z" fill="#FF808C"/>
<path d="M17.2609 1H6.73913C5.21702 1 3.75725 1.60466 2.68095 2.68095C1.60466 3.75725 1 5.21702 1 6.73913V17.2609C1 18.783 1.60466 20.2427 2.68095 21.319C3.75725 22.3953 5.21702 23 6.73913 23H17.2609C18.783 23 20.2427 22.3953 21.319 21.319C22.3953 20.2427 23 18.783 23 17.2609V6.73913C23 5.21702 22.3953 3.75725 21.319 2.68095C20.2427 1.60466 18.783 1 17.2609 1Z" stroke="#191919" stroke-linecap="round" stroke-linejoin="round"/>
<path d="M11.9999 17.7391C13.522 17.7391 14.9818 17.1345 16.058 16.0582C17.1343 14.9819 17.739 13.5221 17.739 12C17.739 10.4779 17.1343 9.01811 16.058 7.94182C14.9818 6.86552 13.522 6.26086 11.9999 6.26086C10.4778 6.26086 9.01799 6.86552 7.94169 7.94182C6.8654 9.01811 6.26074 10.4779 6.26074 12C6.26074 13.5221 6.8654 14.9819 7.94169 16.0582C9.01799 17.1345 10.4778 17.7391 11.9999 17.7391Z" fill="white" stroke="#191919" stroke-linecap="round" stroke-linejoin="round"/>
<path d="M18.6955 6.73913C18.8839 6.73913 19.0705 6.70202 19.2446 6.62992C19.4187 6.55781 19.5768 6.45213 19.7101 6.31889C19.8433 6.18566 19.949 6.02749 20.0211 5.85342C20.0932 5.67934 20.1303 5.49277 20.1303 5.30435C20.1303 5.11593 20.0932 4.92936 20.0211 4.75528C19.949 4.58121 19.8433 4.42304 19.7101 4.28981C19.5768 4.15657 19.4187 4.05089 19.2446 3.97878C19.0705 3.90668 18.8839 3.86957 18.6955 3.86957C18.315 3.86957 17.9501 4.02073 17.681 4.28981C17.4119 4.55888 17.2607 4.92382 17.2607 5.30435C17.2607 5.68488 17.4119 6.04982 17.681 6.31889C17.9501 6.58797 18.315 6.73913 18.6955 6.73913Z" fill="white" stroke="#191919" stroke-linecap="round" stroke-linejoin="round"/>
</g>
<defs>
<clipPath id="clip0_5303_8963">
<rect width="24" height="24" fill="white"/>
</clipPath>
</defs>
</svg>
