<svg width="24" height="24" viewBox="0 0 24 24" fill="none" xmlns="http://www.w3.org/2000/svg">
<path d="M15.4845 23V19.6742C17.3975 19.6848 18.3712 19.547 19.0417 18.8756C19.9026 18.0147 19.8194 14.3915 19.8194 14.3915C19.8194 14.3915 20.6353 14.4221 21.2541 14.3972C21.362 14.3928 21.4675 14.3641 21.5627 14.3133C21.6579 14.2624 21.7405 14.1907 21.8041 14.1036C21.8902 13.9151 21.9247 13.7066 21.8998 13.501C22.0107 11.9648 19.8481 9.32869 19.8481 8.56253C19.85 3.75035 15.3056 1.0004 11.1802 1.0004C9.97868 0.989018 8.787 1.21828 7.67544 1.67469C6.56389 2.13109 5.55494 2.80541 4.70809 3.65788C3.86123 4.51035 3.1936 5.52373 2.74455 6.63828C2.2955 7.75283 2.07412 8.946 2.09345 10.1475C2.09345 13.0581 3.04995 15.7908 5.91947 17.4905V23H15.4845Z" fill="#FFDDA1"/>
<path d="M12.8474 4.32426C14.2279 4.47095 15.5626 4.904 16.7662 5.59573C17.9698 6.28746 19.0159 7.22266 19.8376 8.34157C19.696 3.66809 15.2406 1.0004 11.1812 1.0004C9.97973 0.989021 8.78813 1.21825 7.67663 1.6746C6.56514 2.13095 5.55624 2.80518 4.7094 3.65754C3.86255 4.50991 3.1949 5.52318 2.7458 6.63762C2.29669 7.75206 2.07521 8.94512 2.09441 10.1465C2.0925 10.8476 2.15658 11.5468 2.28571 12.2355C2.68336 9.80791 4.00507 7.62841 5.97392 6.15365C7.94277 4.67888 10.406 4.0233 12.8474 4.32426Z" fill="#FFDDA1"/>
<path d="M15.4845 23V19.6742C17.3975 19.6848 18.3712 19.547 19.0417 18.8756C19.9026 18.0147 19.8194 14.3915 19.8194 14.3915C19.8194 14.3915 20.6353 14.4221 21.2541 14.3972C21.362 14.3928 21.4675 14.3641 21.5627 14.3133C21.6579 14.2624 21.7405 14.1907 21.8041 14.1036C21.8902 13.9151 21.9247 13.7066 21.8998 13.501C22.0107 11.9648 19.8481 9.32869 19.8481 8.56253C19.85 3.75035 15.3056 1.0004 11.1802 1.0004C9.97868 0.989018 8.787 1.21828 7.67544 1.67469C6.56389 2.13109 5.55494 2.80541 4.70809 3.65788C3.86123 4.51035 3.1936 5.52373 2.74455 6.63828C2.2955 7.75283 2.07412 8.946 2.09345 10.1475C2.09345 13.0581 3.04995 15.7908 5.91947 17.4905V23" stroke="#191919" stroke-linecap="round" stroke-linejoin="round"/>
<path d="M15.485 9.13069C15.485 9.00385 15.4346 8.88221 15.3449 8.79252C15.2552 8.70283 15.1336 8.65244 15.0067 8.65244H12.6155V6.26118C12.6155 6.13434 12.5651 6.01269 12.4754 5.92301C12.3857 5.83332 12.2641 5.78293 12.1372 5.78293H10.2242C10.0974 5.78293 9.97574 5.83332 9.88605 5.92301C9.79636 6.01269 9.74598 6.13434 9.74598 6.26118V8.65244H7.35472C7.22788 8.65244 7.10623 8.70283 7.01654 8.79252C6.92685 8.88221 6.87646 9.00385 6.87646 9.13069V11.0437C6.87646 11.1705 6.92685 11.2922 7.01654 11.3819C7.10623 11.4716 7.22788 11.522 7.35472 11.522H9.74598V13.9132C9.74598 14.0401 9.79636 14.1617 9.88605 14.2514C9.97574 14.3411 10.0974 14.3915 10.2242 14.3915H12.1372C12.2641 14.3915 12.3857 14.3411 12.4754 14.2514C12.5651 14.1617 12.6155 14.0401 12.6155 13.9132V11.522H15.0067C15.1336 11.522 15.2552 11.4716 15.3449 11.3819C15.4346 11.2922 15.485 11.1705 15.485 11.0437V9.13069Z" fill="#FF808C"/>
<path d="M12.1372 5.78292H10.2242C10.0974 5.78292 9.97574 5.83331 9.88605 5.923C9.79636 6.01269 9.74598 6.13433 9.74598 6.26117V8.65243H7.35472C7.22788 8.65243 7.10623 8.70282 7.01654 8.79251C6.92685 8.8822 6.87646 9.00385 6.87646 9.13069V11.0437C6.87646 11.1705 6.92685 11.2922 7.01654 11.3819C7.10623 11.4716 7.22788 11.5219 7.35472 11.5219H9.65511L12.6203 8.55678V6.26117C12.6203 6.19796 12.6077 6.13538 12.5834 6.07704C12.5591 6.01871 12.5234 5.96577 12.4785 5.9213C12.4336 5.87682 12.3803 5.8417 12.3217 5.81794C12.2631 5.79419 12.2004 5.78229 12.1372 5.78292Z" fill="#FFBFC5"/>
<path d="M15.485 9.13069C15.485 9.00385 15.4346 8.88221 15.3449 8.79252C15.2552 8.70283 15.1336 8.65244 15.0067 8.65244H12.6155V6.26118C12.6155 6.13434 12.5651 6.01269 12.4754 5.92301C12.3857 5.83332 12.2641 5.78293 12.1372 5.78293H10.2242C10.0974 5.78293 9.97574 5.83332 9.88605 5.92301C9.79636 6.01269 9.74598 6.13434 9.74598 6.26118V8.65244H7.35472C7.22788 8.65244 7.10623 8.70283 7.01654 8.79252C6.92685 8.88221 6.87646 9.00385 6.87646 9.13069V11.0437C6.87646 11.1705 6.92685 11.2922 7.01654 11.3819C7.10623 11.4716 7.22788 11.522 7.35472 11.522H9.74598V13.9132C9.74598 14.0401 9.79636 14.1617 9.88605 14.2514C9.97574 14.3411 10.0974 14.3915 10.2242 14.3915H12.1372C12.2641 14.3915 12.3857 14.3411 12.4754 14.2514C12.5651 14.1617 12.6155 14.0401 12.6155 13.9132V11.522H15.0067C15.1336 11.522 15.2552 11.4716 15.3449 11.3819C15.4346 11.2922 15.485 11.1705 15.485 11.0437V9.13069Z" stroke="#191919" stroke-linecap="round" stroke-linejoin="round"/>
</svg>
