<svg width="24" height="24" viewBox="0 0 24 24" fill="none" xmlns="http://www.w3.org/2000/svg">
<g clip-path="url(#clip0_5303_7936)">
<path d="M14.3913 18.2174H11.5217C11.5217 17.2026 11.1186 16.2295 10.4011 15.5119C9.68357 14.7944 8.71039 14.3913 7.69565 14.3913H1V22.0435H18.2174C18.2174 21.0287 17.8143 20.0555 17.0968 19.338C16.3792 18.6205 15.406 18.2174 14.3913 18.2174Z" fill="#FFDDA1"/>
<path d="M11.5217 18.2174H14.3913C15.406 18.2174 16.3792 18.6205 17.0968 19.338C17.8143 20.0556 18.2174 21.0288 18.2174 22.0435H1" stroke="#191919" stroke-linecap="round" stroke-linejoin="round"/>
<path d="M1 14.3913H7.69565C8.71039 14.3913 9.68357 14.7944 10.4011 15.5119C11.1186 16.2295 11.5217 17.2026 11.5217 18.2174H7.21739" stroke="#191919" stroke-linecap="round" stroke-linejoin="round"/>
<path d="M1 13.4348V23" stroke="#191919" stroke-linecap="round" stroke-linejoin="round"/>
<path d="M23.0002 5.30435C23.0002 5.17751 22.9498 5.05586 22.8602 4.96617C22.7705 4.87648 22.6488 4.82609 22.522 4.82609H19.1741V1.47826C19.1741 1.35142 19.1238 1.22977 19.0341 1.14008C18.9444 1.05039 18.8227 1 18.6959 1H15.8263C15.6995 1 15.5778 1.05039 15.4881 1.14008C15.3984 1.22977 15.3481 1.35142 15.3481 1.47826V4.82609H12.0002C11.8734 4.82609 11.7517 4.87648 11.6621 4.96617C11.5724 5.05586 11.522 5.17751 11.522 5.30435V8.17391C11.522 8.30076 11.5724 8.4224 11.6621 8.5121C11.7517 8.60179 11.8734 8.65217 12.0002 8.65217H15.3481V12C15.3481 12.1268 15.3984 12.2485 15.4881 12.3382C15.5778 12.4279 15.6995 12.4783 15.8263 12.4783H18.6959C18.8227 12.4783 18.9444 12.4279 19.0341 12.3382C19.1238 12.2485 19.1741 12.1268 19.1741 12V8.65217H22.522C22.6488 8.65217 22.7705 8.60179 22.8602 8.5121C22.9498 8.4224 23.0002 8.30076 23.0002 8.17391V5.30435Z" fill="#FF808C"/>
<path d="M19.6725 4.82609H19.1741V1.47826C19.1741 1.35142 19.1238 1.22977 19.0341 1.14008C18.9444 1.05039 18.8227 1 18.6959 1H15.8263C15.6995 1 15.5778 1.05039 15.4881 1.14008C15.3984 1.22977 15.3481 1.35142 15.3481 1.47826V4.82609H12.0002C11.8734 4.82609 11.7517 4.87647 11.6621 4.96617C11.5724 5.05586 11.522 5.17751 11.522 5.30435V8.17391C11.522 8.30076 11.5724 8.4224 11.6621 8.51209C11.7517 8.60179 11.8734 8.65217 12.0002 8.65217H15.3481V9.15052L19.6725 4.82609Z" fill="#FFBFC5"/>
<path d="M23.0002 5.30435C23.0002 5.17751 22.9498 5.05586 22.8602 4.96617C22.7705 4.87648 22.6488 4.82609 22.522 4.82609H19.1741V1.47826C19.1741 1.35142 19.1238 1.22977 19.0341 1.14008C18.9444 1.05039 18.8227 1 18.6959 1H15.8263C15.6995 1 15.5778 1.05039 15.4881 1.14008C15.3984 1.22977 15.3481 1.35142 15.3481 1.47826V4.82609H12.0002C11.8734 4.82609 11.7517 4.87648 11.6621 4.96617C11.5724 5.05586 11.522 5.17751 11.522 5.30435V8.17391C11.522 8.30076 11.5724 8.4224 11.6621 8.5121C11.7517 8.60179 11.8734 8.65217 12.0002 8.65217H15.3481V12C15.3481 12.1268 15.3984 12.2485 15.4881 12.3382C15.5778 12.4279 15.6995 12.4783 15.8263 12.4783H18.6959C18.8227 12.4783 18.9444 12.4279 19.0341 12.3382C19.1238 12.2485 19.1741 12.1268 19.1741 12V8.65217H22.522C22.6488 8.65217 22.7705 8.60179 22.8602 8.5121C22.9498 8.4224 23.0002 8.30076 23.0002 8.17391V5.30435Z" stroke="#191919" stroke-linecap="round" stroke-linejoin="round"/>
</g>
<defs>
<clipPath id="clip0_5303_7936">
<rect width="24" height="24" fill="white"/>
</clipPath>
</defs>
</svg>
