<svg width="24" height="24" viewBox="0 0 24 24" fill="none" xmlns="http://www.w3.org/2000/svg">
<path d="M21.0355 12C21.0355 12 17.1067 17.5 11.9999 17.5C6.89319 17.5 2.96436 12 2.96436 12C2.96436 12 6.89319 6.5 11.9999 6.5C17.1067 6.5 21.0355 12 21.0355 12Z" fill="#E3E3E3"/>
<path d="M7.72644 16.2735L16.2725 7.7265C14.978 6.95579 13.5061 6.53326 11.9999 6.5C6.89319 6.5 2.96436 12 2.96436 12C4.26126 13.7183 5.87833 15.1695 7.72644 16.2735Z" fill="white"/>
<path d="M21.0355 12C21.0355 12 17.1067 17.5 11.9999 17.5C6.89319 17.5 2.96436 12 2.96436 12C2.96436 12 6.89319 6.5 11.9999 6.5C17.1067 6.5 21.0355 12 21.0355 12Z" stroke="#191919" stroke-linecap="round" stroke-linejoin="round"/>
<path d="M1.4585 4.20831V2.37498C1.4585 2.13186 1.55507 1.89871 1.72698 1.7268C1.89889 1.55489 2.13204 1.45831 2.37516 1.45831H4.2085" stroke="#191919" stroke-linecap="round" stroke-linejoin="round"/>
<path d="M22.5415 4.20831V2.37498C22.5415 2.13186 22.4449 1.89871 22.273 1.7268C22.1011 1.55489 21.8679 1.45831 21.6248 1.45831H19.7915" stroke="#191919" stroke-linecap="round" stroke-linejoin="round"/>
<path d="M1.4585 19.7917V21.625C1.4585 21.8681 1.55507 22.1013 1.72698 22.2732C1.89889 22.4451 2.13204 22.5417 2.37516 22.5417H4.2085" stroke="#191919" stroke-linecap="round" stroke-linejoin="round"/>
<path d="M22.5415 19.7917V21.625C22.5415 21.8681 22.4449 22.1013 22.273 22.2732C22.1011 22.4451 21.8679 22.5417 21.6248 22.5417H19.7915" stroke="#191919" stroke-linecap="round" stroke-linejoin="round"/>
<path d="M11.9998 15.2084C13.7718 15.2084 15.2082 13.7719 15.2082 12C15.2082 10.2281 13.7718 8.79169 11.9998 8.79169C10.2279 8.79169 8.7915 10.2281 8.7915 12C8.7915 13.7719 10.2279 15.2084 11.9998 15.2084Z" fill="#66E1FF"/>
<path d="M9.73124 14.2688C9.12953 13.6671 8.7915 12.8509 8.7915 12C8.7915 11.1491 9.12953 10.333 9.73124 9.73124C10.333 9.12953 11.1491 8.7915 12 8.7915C12.8509 8.7915 13.6671 9.12953 14.2688 9.73124L9.73124 14.2688Z" fill="#C2F3FF"/>
<path d="M11.9998 15.2084C13.7718 15.2084 15.2082 13.7719 15.2082 12C15.2082 10.2281 13.7718 8.79169 11.9998 8.79169C10.2279 8.79169 8.7915 10.2281 8.7915 12C8.7915 13.7719 10.2279 15.2084 11.9998 15.2084Z" stroke="#191919" stroke-linecap="round" stroke-linejoin="round"/>
<path d="M12.0002 12.2291C11.8736 12.2291 11.771 12.1266 11.771 12C11.771 11.8734 11.8736 11.7708 12.0002 11.7708" stroke="#191919"/>
<path d="M12 12.2291C12.1266 12.2291 12.2292 12.1266 12.2292 12C12.2292 11.8734 12.1266 11.7708 12 11.7708" stroke="#191919"/>
</svg>
