<svg width="24" height="24" viewBox="0 0 24 24" fill="none" xmlns="http://www.w3.org/2000/svg">
<path d="M10.8149 16.8037C12.3778 16.8037 13.9055 16.3402 15.205 15.472C16.5044 14.6037 17.5172 13.3696 18.1153 11.9258C18.7133 10.4819 18.8698 8.89306 18.5649 7.36026C18.26 5.82746 17.5074 4.41949 16.4023 3.31439C15.2973 2.2093 13.8893 1.45673 12.3564 1.15184C10.8237 0.846941 9.23488 1.00342 7.79101 1.60149C6.34714 2.19956 5.11305 3.21236 4.24478 4.51181C3.37652 5.81126 2.91309 7.33899 2.91309 8.90183C2.91334 10.9975 3.74593 13.0071 5.22775 14.489C6.70958 15.9708 8.7193 16.8034 10.8149 16.8037Z" fill="#66E1FF"/>
<path d="M10.8155 1C9.24535 0.999131 7.71057 1.46628 6.40717 2.34179C5.10377 3.2173 4.09092 4.46144 3.49795 5.91533C2.90498 7.3692 2.75882 8.96682 3.07813 10.5042C3.39744 12.0415 4.16773 13.4487 5.29063 14.5463L16.4599 3.37696C15.7256 2.62382 14.8477 2.02547 13.8783 1.61721C12.9088 1.20896 11.8674 0.999096 10.8155 1Z" fill="#C2F3FF"/>
<path d="M10.8149 16.8037C12.3778 16.8037 13.9055 16.3402 15.205 15.472C16.5044 14.6037 17.5172 13.3696 18.1153 11.9258C18.7133 10.4819 18.8698 8.89306 18.5649 7.36026C18.26 5.82746 17.5074 4.41949 16.4023 3.31439C15.2973 2.2093 13.8893 1.45673 12.3564 1.15184C10.8237 0.846941 9.23488 1.00342 7.79101 1.60149C6.34714 2.19956 5.11305 3.21236 4.24478 4.51181C3.37652 5.81126 2.91309 7.33899 2.91309 8.90183C2.91334 10.9975 3.74593 13.0071 5.22775 14.489C6.70958 15.9708 8.7193 16.8034 10.8149 16.8037Z" stroke="#191919" stroke-linecap="round" stroke-linejoin="round"/>
<path d="M13.4518 7.26148C13.4815 7.10371 13.4978 6.94373 13.5006 6.78322C13.5076 6.37644 13.4293 5.9727 13.2707 5.59804C13.1121 5.22338 12.8768 4.88612 12.5798 4.608C12.2829 4.32988 11.931 4.11707 11.5467 3.9833C11.1625 3.84953 10.7545 3.79776 10.3491 3.83135C9.94361 3.86493 9.54968 3.98311 9.19271 4.17827C8.83572 4.37343 8.5236 4.64123 8.27647 4.96441C8.02934 5.28759 7.85268 5.65898 7.75788 6.05463C7.66309 6.45028 7.65225 6.8614 7.72608 7.26148C8.27042 7.2542 8.80702 7.13161 9.3005 6.90176C9.79398 6.67192 10.2331 6.34006 10.589 5.92809C10.9449 6.33998 11.384 6.67177 11.8775 6.90159C12.371 7.13142 12.9075 7.25408 13.4518 7.26148Z" fill="#C77F67" stroke="#191919" stroke-linecap="round" stroke-linejoin="round"/>
<path d="M10.5899 5.92798C10.2341 6.33969 9.79508 6.67138 9.3018 6.9012C8.80852 7.13102 8.27216 7.25377 7.72803 7.26137C7.83938 7.94007 8.18832 8.55712 8.71254 9.00234C9.23677 9.44758 9.90216 9.69201 10.5899 9.69201C11.2777 9.69201 11.9431 9.44758 12.4673 9.00234C12.9916 8.55712 13.3405 7.94007 13.4519 7.26137C12.9077 7.25396 12.3713 7.13128 11.878 6.90145C11.3846 6.67162 10.9457 6.33984 10.5899 5.92798Z" fill="#FFDDA1" stroke="#191919" stroke-linecap="round" stroke-linejoin="round"/>
<path d="M14.8699 18.2174H12.7235L11.8464 23H9.3508L8.47462 18.2174H6.26123" fill="white"/>
<path d="M14.8699 18.2174H12.7235L11.8464 23H9.3508L8.47462 18.2174H6.26123" stroke="#191919" stroke-linecap="round" stroke-linejoin="round"/>
<path d="M7.39062 13.913L7.5341 13.3668C7.69651 12.6736 8.08851 12.0556 8.64643 11.6133C9.20435 11.1711 9.89542 10.9303 10.6074 10.9303C11.3193 10.9303 12.0104 11.1711 12.5684 11.6133C13.1263 12.0556 13.5183 12.6736 13.6807 13.3668L13.8175 13.913C13.8175 13.913 12.9681 14.9355 10.6045 14.9355C8.24097 14.9355 7.39062 13.913 7.39062 13.913Z" fill="white"/>
<path d="M7.39062 13.913L7.5341 13.3668C7.69651 12.6736 8.08851 12.0556 8.64643 11.6133C9.20435 11.1711 9.89542 10.9303 10.6074 10.9303C11.3193 10.9303 12.0104 11.1711 12.5684 11.6133C13.1263 12.0556 13.5183 12.6736 13.6807 13.3668L13.8175 13.913" stroke="#191919" stroke-linecap="round" stroke-linejoin="round"/>
<path d="M21.0873 19.174L16.4004 14.487" stroke="#191919" stroke-linecap="round" stroke-linejoin="round"/>
<path d="M12.4519 11.5342L10.6077 14.4382L8.77979 11.5218" stroke="#191919" stroke-linecap="round" stroke-linejoin="round"/>
</svg>
