<svg width="24" height="24" viewBox="0 0 24 24" fill="none" xmlns="http://www.w3.org/2000/svg">
<g clip-path="url(#clip0_5303_10855)">
<path d="M17.5 23.5V20.833C17.4997 19.9491 17.1485 19.1015 16.5235 18.4765C15.8985 17.8515 15.0509 17.5003 14.167 17.5H12.5V13C12.5 12.803 12.4612 12.608 12.3858 12.426C12.3104 12.244 12.1999 12.0786 12.0607 11.9393C11.9214 11.8001 11.756 11.6896 11.574 11.6142C11.392 11.5388 11.197 11.5 11 11.5C10.803 11.5 10.608 11.5388 10.426 11.6142C10.244 11.6896 10.0786 11.8001 9.93934 11.9393C9.80005 12.0786 9.68956 12.244 9.61418 12.426C9.5388 12.608 9.5 12.803 9.5 13V20L8.211 18.92C8.10594 18.7938 7.97706 18.6895 7.8317 18.6131C7.68635 18.5367 7.52737 18.4897 7.36384 18.4748C7.20032 18.4598 7.03545 18.4772 6.87866 18.526C6.72186 18.5748 6.5762 18.6539 6.45 18.759C6.3238 18.8641 6.21953 18.9929 6.14314 19.1383C6.06675 19.2837 6.01974 19.4426 6.00479 19.6062C5.98983 19.7697 6.00724 19.9345 6.05601 20.0913C6.10477 20.2481 6.18394 20.3938 6.289 20.52L8.768 23.5" fill="#FFDDA1"/>
<path d="M17.5 23.5V20.833C17.4997 19.9491 17.1485 19.1015 16.5235 18.4765C15.8985 17.8515 15.0509 17.5003 14.167 17.5H12.5V13C12.5 12.803 12.4612 12.608 12.3858 12.426C12.3104 12.244 12.1999 12.0786 12.0607 11.9393C11.9214 11.8001 11.756 11.6896 11.574 11.6142C11.392 11.5388 11.197 11.5 11 11.5C10.803 11.5 10.608 11.5388 10.426 11.6142C10.244 11.6896 10.0786 11.8001 9.93934 11.9393C9.80005 12.0786 9.68956 12.244 9.61418 12.426C9.5388 12.608 9.5 12.803 9.5 13V20L8.211 18.92C8.10594 18.7938 7.97706 18.6895 7.8317 18.6131C7.68635 18.5367 7.52737 18.4897 7.36384 18.4748C7.20032 18.4598 7.03545 18.4772 6.87866 18.526C6.72186 18.5748 6.5762 18.6539 6.45 18.759C6.3238 18.8641 6.21953 18.9929 6.14314 19.1383C6.06675 19.2837 6.01974 19.4426 6.00479 19.6062C5.98983 19.7697 6.00724 19.9345 6.05601 20.0913C6.10477 20.2481 6.18394 20.3938 6.289 20.52L8.768 23.5" stroke="#191919" stroke-linecap="round" stroke-linejoin="round"/>
<path d="M20 9C20.2298 9 20.4574 8.95473 20.6697 8.86679C20.882 8.77884 21.0749 8.64994 21.2374 8.48744C21.3999 8.32493 21.5288 8.13202 21.6168 7.9197C21.7047 7.70738 21.75 7.47981 21.75 7.25C21.75 7.02019 21.7047 6.79262 21.6168 6.5803C21.5288 6.36798 21.3999 6.17507 21.2374 6.01256C21.0749 5.85006 20.882 5.72116 20.6697 5.63321C20.4574 5.54526 20.2298 5.5 20 5.5C19.5359 5.5 19.0908 5.68437 18.7626 6.01256C18.4344 6.34075 18.25 6.78587 18.25 7.25C18.25 7.71413 18.4344 8.15925 18.7626 8.48744C19.0908 8.81563 19.5359 9 20 9Z" fill="#E3E3E3" stroke="#191919" stroke-linecap="round" stroke-linejoin="round"/>
<path d="M23.5 12.5C23.3017 11.7223 22.85 11.0328 22.2162 10.5403C21.5824 10.0478 20.8026 9.78052 20 9.78052C19.1974 9.78052 18.4176 10.0478 17.7838 10.5403C17.15 11.0328 16.6983 11.7223 16.5 12.5H23.5Z" fill="#E3E3E3" stroke="#191919" stroke-linecap="round" stroke-linejoin="round"/>
<path d="M4 9C4.22981 9 4.45738 8.95473 4.6697 8.86679C4.88202 8.77884 5.07493 8.64994 5.23744 8.48744C5.39994 8.32493 5.52884 8.13202 5.61679 7.9197C5.70474 7.70738 5.75 7.47981 5.75 7.25C5.75 7.02019 5.70474 6.79262 5.61679 6.5803C5.52884 6.36798 5.39994 6.17507 5.23744 6.01256C5.07493 5.85006 4.88202 5.72116 4.6697 5.63321C4.45738 5.54526 4.22981 5.5 4 5.5C3.53587 5.5 3.09075 5.68437 2.76256 6.01256C2.43437 6.34075 2.25 6.78587 2.25 7.25C2.25 7.71413 2.43437 8.15925 2.76256 8.48744C3.09075 8.81563 3.53587 9 4 9Z" fill="#E3E3E3" stroke="#191919" stroke-linecap="round" stroke-linejoin="round"/>
<path d="M7.5 12.5C7.30168 11.7223 6.84997 11.0328 6.21617 10.5403C5.58238 10.0478 4.80262 9.78052 4 9.78052C3.19738 9.78052 2.41762 10.0478 1.78383 10.5403C1.15003 11.0328 0.698321 11.7223 0.5 12.5H7.5Z" fill="#E3E3E3" stroke="#191919" stroke-linecap="round" stroke-linejoin="round"/>
<path d="M12 6C12.4641 6 12.9092 5.81563 13.2374 5.48744C13.5656 5.15925 13.75 4.71413 13.75 4.25C13.75 3.78587 13.5656 3.34075 13.2374 3.01256C12.9092 2.68437 12.4641 2.5 12 2.5C11.5359 2.5 11.0908 2.68437 10.7626 3.01256C10.4344 3.34075 10.25 3.78587 10.25 4.25C10.25 4.71413 10.4344 5.15925 10.7626 5.48744C11.0908 5.81563 11.5359 6 12 6Z" fill="#FFDDA1" stroke="#191919" stroke-linecap="round" stroke-linejoin="round"/>
<path d="M15.5 9.50002C15.3017 8.72229 14.85 8.03276 14.2162 7.54031C13.5824 7.04785 12.8026 6.78052 12 6.78052C11.1974 6.78052 10.4176 7.04785 9.78383 7.54031C9.15004 8.03276 8.69832 8.72229 8.5 9.50002H15.5Z" fill="#66E1FF" stroke="#191919" stroke-linecap="round" stroke-linejoin="round"/>
<path d="M6.5 3.5H8.5" stroke="#191919" stroke-linecap="round" stroke-linejoin="round"/>
<path d="M7.728 0.5L9.383 1.622" stroke="#191919" stroke-linecap="round" stroke-linejoin="round"/>
<path d="M16.272 0.5L14.617 1.622" stroke="#191919" stroke-linecap="round" stroke-linejoin="round"/>
<path d="M15.5 3.5H17.5" stroke="#191919" stroke-linecap="round" stroke-linejoin="round"/>
</g>
<defs>
<clipPath id="clip0_5303_10855">
<rect width="24" height="24" fill="white"/>
</clipPath>
</defs>
</svg>
