<svg width="24" height="24" viewBox="0 0 24 24" fill="none" xmlns="http://www.w3.org/2000/svg">
<path d="M21.087 12.4783H2.91304C2.66182 12.4783 2.41305 12.5278 2.18095 12.6239C1.94885 12.72 1.73796 12.8609 1.56032 13.0386C1.38267 13.2162 1.24176 13.4271 1.14562 13.6592C1.04948 13.8913 1 14.1401 1 14.3913V20.1304C1 20.6378 1.20155 21.1244 1.56032 21.4832C1.73796 21.6608 1.94885 21.8017 2.18095 21.8979C2.41305 21.994 2.66182 22.0435 2.91304 22.0435H21.087C21.5943 22.0435 22.0809 21.8419 22.4397 21.4832C22.7984 21.1244 23 20.6378 23 20.1304V14.3913C23 13.8839 22.7984 13.3974 22.4397 13.0386C22.0809 12.6798 21.5943 12.4783 21.087 12.4783Z" fill="#E3E3E3"/>
<path d="M21.087 12.4783H2.91304C2.40614 12.4798 1.92043 12.6818 1.56199 13.0403C1.20355 13.3987 1.00151 13.8844 1 14.3913V17.7391C1.00151 17.2322 1.20355 16.7465 1.56199 16.3881C1.92043 16.0297 2.40614 15.8276 2.91304 15.8261H21.087C21.5939 15.8274 22.0798 16.0293 22.4383 16.3878C22.7968 16.7463 22.9987 17.2322 23 17.7391V14.3913C22.9987 13.8843 22.7968 13.3985 22.4383 13.04C22.0798 12.6815 21.5939 12.4795 21.087 12.4783Z" fill="white"/>
<path d="M21.087 12.4783H2.91304C2.66182 12.4783 2.41305 12.5278 2.18095 12.6239C1.94885 12.72 1.73796 12.8609 1.56032 13.0386C1.38267 13.2162 1.24176 13.4271 1.14562 13.6592C1.04948 13.8913 1 14.1401 1 14.3913V20.1304C1 20.6378 1.20155 21.1244 1.56032 21.4832C1.73796 21.6608 1.94885 21.8017 2.18095 21.8979C2.41305 21.994 2.66182 22.0435 2.91304 22.0435H21.087C21.5943 22.0435 22.0809 21.8419 22.4397 21.4832C22.7984 21.1244 23 20.6378 23 20.1304V14.3913C23 13.8839 22.7984 13.3974 22.4397 13.0386C22.0809 12.6798 21.5943 12.4783 21.087 12.4783Z" stroke="#191919" stroke-linecap="round" stroke-linejoin="round"/>
<path d="M8.961 7.74636C9.86091 7.14636 10.9183 6.82618 11.9999 6.82618C13.0815 6.82618 14.1388 7.14636 15.0387 7.74636L17.739 3.69453C16.0395 2.56128 14.0426 1.95654 11.9999 1.95654C9.9572 1.95654 7.96024 2.56128 6.26074 3.69453L8.961 7.74636Z" fill="#C2F3FF"/>
<path d="M17.739 3.69453C16.0395 2.56128 14.0426 1.95654 11.9999 1.95654C9.9572 1.95654 7.96024 2.56128 6.26074 3.69453" stroke="#191919" stroke-linecap="round" stroke-linejoin="round"/>
<path d="M16.3884 5.72047C15.089 4.85356 13.5619 4.39093 11.9998 4.39093C10.4378 4.39093 8.91074 4.85356 7.61133 5.72047" stroke="#191919" stroke-linecap="round" stroke-linejoin="round"/>
<path d="M15.0387 7.74635C14.1388 7.14635 13.0814 6.82617 11.9998 6.82617C10.9182 6.82617 9.86084 7.14635 8.96094 7.74635" stroke="#191919" stroke-linecap="round" stroke-linejoin="round"/>
<path d="M4.34766 19.174H5.30418" stroke="#191919" stroke-linecap="round" stroke-linejoin="round"/>
<path d="M4.34766 17.2609H5.30418" stroke="#191919" stroke-linecap="round" stroke-linejoin="round"/>
<path d="M7.21729 17.2609H8.17381" stroke="#191919" stroke-linecap="round" stroke-linejoin="round"/>
<path d="M10.0864 17.2609H11.0429" stroke="#191919" stroke-linecap="round" stroke-linejoin="round"/>
<path d="M12.9561 17.2609H13.9126" stroke="#191919" stroke-linecap="round" stroke-linejoin="round"/>
<path d="M15.8257 17.2609H16.7822" stroke="#191919" stroke-linecap="round" stroke-linejoin="round"/>
<path d="M18.6953 17.2609H19.6518" stroke="#191919" stroke-linecap="round" stroke-linejoin="round"/>
<path d="M4.34766 15.3478H5.30418" stroke="#191919" stroke-linecap="round" stroke-linejoin="round"/>
<path d="M7.21729 15.3478H8.17381" stroke="#191919" stroke-linecap="round" stroke-linejoin="round"/>
<path d="M10.0864 15.3478H11.0429" stroke="#191919" stroke-linecap="round" stroke-linejoin="round"/>
<path d="M12.9561 15.3478H13.9126" stroke="#191919" stroke-linecap="round" stroke-linejoin="round"/>
<path d="M15.8257 15.3478H16.7822" stroke="#191919" stroke-linecap="round" stroke-linejoin="round"/>
<path d="M18.6953 15.3478H19.6518" stroke="#191919" stroke-linecap="round" stroke-linejoin="round"/>
<path d="M7.21729 19.174H16.7825" stroke="#191919" stroke-linecap="round" stroke-linejoin="round"/>
<path d="M18.6953 19.174H19.6518" stroke="#191919" stroke-linecap="round" stroke-linejoin="round"/>
</svg>
