<svg width="24" height="24" viewBox="0 0 24 24" fill="none" xmlns="http://www.w3.org/2000/svg">
<path d="M18.8436 1.50421H5.15515C3.13916 1.50421 1.50488 3.13849 1.50488 5.15447V18.8429C1.50488 20.8589 3.13916 22.4932 5.15515 22.4932H18.8436C20.8596 22.4932 22.4938 20.8589 22.4938 18.8429V5.15447C22.4938 3.13849 20.8596 1.50421 18.8436 1.50421Z" fill="white"/>
<path d="M18.8436 22.4958H5.15515C4.18785 22.4933 3.26093 22.1078 2.57695 21.4238C1.89296 20.7399 1.50753 19.8129 1.50488 18.8456V15.1953C1.50777 16.1626 1.89328 17.0893 2.57721 17.7733C3.26114 18.4572 4.18793 18.8427 5.15515 18.8456H18.8436C19.8108 18.8427 20.7376 18.4572 21.4215 17.7733C22.1054 17.0893 22.491 16.1626 22.4938 15.1953V18.8456C22.4913 19.8129 22.1058 20.7399 21.4218 21.4238C20.7379 22.1078 19.8109 22.4933 18.8436 22.4958Z" fill="#E4F1F5"/>
<path d="M18.8446 1.50421H5.15612C3.14014 1.50421 1.50586 3.13849 1.50586 5.15447V18.8429C1.50586 20.8589 3.14014 22.4932 5.15612 22.4932H18.8446C20.8606 22.4932 22.4948 20.8589 22.4948 18.8429V5.15447C22.4948 3.13849 20.8606 1.50421 18.8446 1.50421Z" stroke="#191919" stroke-linecap="round" stroke-linejoin="round"/>
<path d="M18.3885 14.28H5.61253C5.36053 14.28 5.15625 14.4844 5.15625 14.7363V17.474C5.15625 17.7261 5.36053 17.9303 5.61253 17.9303H18.3885C18.6405 17.9303 18.8447 17.7261 18.8447 17.474V14.7363C18.8447 14.4844 18.6405 14.28 18.3885 14.28Z" fill="#FFEF5E" stroke="#191919" stroke-linecap="round" stroke-linejoin="round"/>
<path d="M12.3328 4.59689C12.2901 4.55145 12.2386 4.51523 12.1814 4.49047C12.1242 4.46571 12.0625 4.45294 12.0001 4.45294C11.9378 4.45294 11.8761 4.46571 11.8189 4.49047C11.7617 4.51523 11.7102 4.55145 11.6675 4.59689L5.87636 10.774C5.81548 10.8389 5.77491 10.9203 5.75967 11.008C5.74443 11.0957 5.75517 11.1859 5.79057 11.2676C5.82597 11.3493 5.88449 11.4188 5.95892 11.4677C6.03335 11.5165 6.12043 11.5425 6.20945 11.5424H17.7917C17.8806 11.5423 17.9676 11.5162 18.0419 11.4672C18.1162 11.4184 18.1746 11.3488 18.2099 11.2672C18.2452 11.1855 18.2558 11.0954 18.2405 11.0078C18.2253 10.9202 18.1847 10.8389 18.1239 10.774L12.3328 4.59689Z" fill="#FFEF5E" stroke="#191919" stroke-linecap="round" stroke-linejoin="round"/>
</svg>
