<svg width="24" height="24" viewBox="0 0 24 24" fill="none" xmlns="http://www.w3.org/2000/svg">
<path d="M18.8441 1.50427H5.15563C3.13965 1.50427 1.50537 3.13855 1.50537 5.15453V18.843C1.50537 20.859 3.13965 22.4932 5.15563 22.4932H18.8441C20.8601 22.4932 22.4943 20.859 22.4943 18.843V5.15453C22.4943 3.13855 20.8601 1.50427 18.8441 1.50427Z" fill="white"/>
<path d="M18.8441 22.4958H5.15563C4.18833 22.4933 3.26142 22.1078 2.57744 21.4238C1.89345 20.7399 1.50802 19.8129 1.50537 18.8456V15.1953C1.50826 16.1626 1.89377 17.0893 2.57769 17.7733C3.26163 18.4572 4.18841 18.8427 5.15563 18.8456H18.8441C19.8113 18.8427 20.7381 18.4572 21.422 17.7733C22.1059 17.0893 22.4915 16.1626 22.4943 15.1953V18.8456C22.4917 19.8129 22.1063 20.7399 21.4223 21.4238C20.7383 22.1078 19.8114 22.4933 18.8441 22.4958Z" fill="#E4F1F5"/>
<path d="M4.24316 9.71997H8.42819C8.6702 9.72002 8.90228 9.81619 9.07337 9.98734L14.9265 15.8341C15.0977 16.0053 15.3298 16.1014 15.5718 16.1015H19.7568" stroke="#191919" stroke-linecap="round" stroke-linejoin="round"/>
<path d="M14.2812 9.71729H19.7568" stroke="#191919" stroke-linecap="round" stroke-linejoin="round"/>
<path d="M18.8441 1.50427H5.15563C3.13965 1.50427 1.50537 3.13855 1.50537 5.15453V18.843C1.50537 20.859 3.13965 22.4932 5.15563 22.4932H18.8441C20.8601 22.4932 22.4943 20.859 22.4943 18.843V5.15453C22.4943 3.13855 20.8601 1.50427 18.8441 1.50427Z" stroke="#191919" stroke-linecap="round" stroke-linejoin="round"/>
</svg>
