<svg width="24" height="24" viewBox="0 0 24 24" fill="none" xmlns="http://www.w3.org/2000/svg">
<path d="M11.9998 20.7083C16.8093 20.7083 20.7082 16.8095 20.7082 12C20.7082 7.19051 16.8093 3.29166 11.9998 3.29166C7.19035 3.29166 3.2915 7.19051 3.2915 12C3.2915 16.8095 7.19035 20.7083 11.9998 20.7083Z" fill="#C2F3FF"/>
<path d="M1.4585 19.3333C1.4585 20.1843 1.79652 21.0003 2.3982 21.602C2.99987 22.2037 3.81592 22.5417 4.66683 22.5417C5.51773 22.5417 6.33379 22.2037 6.93546 21.602C7.53714 21.0003 7.87516 20.1843 7.87516 19.3333V16.125H4.66683C3.81592 16.125 2.99987 16.463 2.3982 17.0647C1.79652 17.6664 1.4585 18.4824 1.4585 19.3333Z" stroke="#191919" stroke-linecap="round" stroke-linejoin="round"/>
<path d="M4.66683 1.45834C3.81592 1.45834 2.99987 1.79636 2.3982 2.39805C1.79652 2.99972 1.4585 3.81577 1.4585 4.66668C1.4585 5.51758 1.79652 6.33364 2.3982 6.93531C2.99987 7.53699 3.81592 7.87501 4.66683 7.87501H7.87516V4.66668C7.87516 3.81577 7.53714 2.99972 6.93546 2.39805C6.33379 1.79636 5.51773 1.45834 4.66683 1.45834Z" stroke="#191919" stroke-linecap="round" stroke-linejoin="round"/>
<path d="M19.3333 16.125H16.125V19.3333C16.125 19.9679 16.3132 20.5882 16.6657 21.1158C17.0182 21.6434 17.5193 22.0546 18.1056 22.2975C18.6918 22.5403 19.3369 22.6038 19.9592 22.48C20.5816 22.3562 21.1533 22.0507 21.602 21.602C22.0507 21.1533 22.3562 20.5816 22.48 19.9592C22.6038 19.3369 22.5403 18.6918 22.2975 18.1056C22.0546 17.5193 21.6434 17.0182 21.1158 16.6657C20.5882 16.3132 19.9679 16.125 19.3333 16.125Z" stroke="#191919" stroke-linecap="round" stroke-linejoin="round"/>
<path d="M16.125 7.87231H7.875V16.1223H16.125V7.87231Z" stroke="#191919" stroke-linecap="round" stroke-linejoin="round"/>
<path d="M22.5417 4.66668C22.5417 3.81577 22.2037 2.99972 21.602 2.39805C21.0003 1.79636 20.1843 1.45834 19.3333 1.45834C18.4824 1.45834 17.6664 1.79636 17.0647 2.39805C16.463 2.99972 16.125 3.81577 16.125 4.66668V7.87501H19.3333C20.1843 7.87501 21.0003 7.53699 21.602 6.93531C22.2037 6.33364 22.5417 5.51758 22.5417 4.66668Z" stroke="#191919" stroke-linecap="round" stroke-linejoin="round"/>
</svg>
