<svg width="24" height="24" viewBox="0 0 24 24" fill="none" xmlns="http://www.w3.org/2000/svg">
<path d="M1.4585 3.29165C1.4585 2.80542 1.65165 2.3391 1.99547 1.99529C2.33928 1.65147 2.8056 1.45831 3.29183 1.45831H20.7085C21.1947 1.45831 21.661 1.65147 22.0048 1.99529C22.3487 2.3391 22.5418 2.80542 22.5418 3.29165V20.7083C22.5418 21.1945 22.3487 21.6608 22.0048 22.0047C21.661 22.3485 21.1947 22.5416 20.7085 22.5416H3.29183C2.8056 22.5416 2.33928 22.3485 1.99547 22.0047C1.65165 21.6608 1.4585 21.1945 1.4585 20.7083V3.29165Z" fill="#E3E3E3"/>
<path d="M20.7085 1.45831H3.29183C2.8056 1.45831 2.33928 1.65147 1.99547 1.99529C1.65165 2.3391 1.4585 2.80542 1.4585 3.29165V6.04165C1.4585 5.55542 1.65165 5.0891 1.99547 4.74529C2.33928 4.40146 2.8056 4.20831 3.29183 4.20831H20.7085C21.1947 4.20831 21.661 4.40146 22.0048 4.74529C22.3487 5.0891 22.5418 5.55542 22.5418 6.04165V3.29165C22.5418 2.80542 22.3487 2.3391 22.0048 1.99529C21.661 1.65147 21.1947 1.45831 20.7085 1.45831Z" fill="white"/>
<path d="M1.4585 3.29165C1.4585 2.80542 1.65165 2.3391 1.99547 1.99529C2.33928 1.65147 2.8056 1.45831 3.29183 1.45831H20.7085C21.1947 1.45831 21.661 1.65147 22.0048 1.99529C22.3487 2.3391 22.5418 2.80542 22.5418 3.29165V20.7083C22.5418 21.1945 22.3487 21.6608 22.0048 22.0047C21.661 22.3485 21.1947 22.5416 20.7085 22.5416H3.29183C2.8056 22.5416 2.33928 22.3485 1.99547 22.0047C1.65165 21.6608 1.4585 21.1945 1.4585 20.7083V3.29165Z" stroke="#191919" stroke-linecap="round" stroke-linejoin="round"/>
<path d="M15.2082 9.24994C15.2086 8.67671 15.0555 8.11383 14.7647 7.61983C14.4739 7.12584 14.0561 6.71878 13.5547 6.44098C13.0533 6.16319 12.4865 6.0248 11.9135 6.04022C11.3405 6.05565 10.782 6.22432 10.2963 6.52868C9.81056 6.83305 9.41523 7.262 9.15143 7.77093C8.88763 8.27985 8.76499 8.85016 8.79629 9.42253C8.82758 9.99491 9.01165 10.5484 9.32936 11.0256C9.64707 11.5027 10.0868 11.886 10.6028 12.1356L9.24984 17.9583H14.7498L13.395 12.1356C13.9378 11.8735 14.3957 11.4638 14.7164 10.9534C15.0371 10.4431 15.2075 9.8527 15.2082 9.24994Z" fill="#6B6B6B" stroke="#191919" stroke-linecap="round" stroke-linejoin="round"/>
</svg>
