<svg width="24" height="24" viewBox="0 0 24 24" fill="none" xmlns="http://www.w3.org/2000/svg">
<g clip-path="url(#clip0_5303_5805)">
<path d="M14.8696 1H2.43478C1.64237 1 1 1.64237 1 2.43478V19.6522C1 20.4445 1.64237 21.0869 2.43478 21.0869H14.8696C15.6619 21.0869 16.3043 20.4445 16.3043 19.6522V2.43478C16.3043 1.64237 15.6619 1 14.8696 1Z" fill="white"/>
<path d="M13.9126 2.91302H3.39086C3.12672 2.91302 2.9126 3.12715 2.9126 3.39129V16.7826C2.9126 17.0467 3.12672 17.2608 3.39086 17.2608H13.9126C14.1767 17.2608 14.3909 17.0467 14.3909 16.7826V3.39129C14.3909 3.12715 14.1767 2.91302 13.9126 2.91302Z" fill="#66E1FF"/>
<path d="M14.3909 4.34781V3.39129C14.3909 3.26444 14.3404 3.14279 14.2508 3.05311C14.1611 2.96341 14.0394 2.91302 13.9126 2.91302H3.39086C3.26401 2.91302 3.14236 2.96341 3.05268 3.05311C2.96299 3.14279 2.9126 3.26444 2.9126 3.39129V15.8261L14.3909 4.34781Z" fill="#C2F3FF"/>
<path d="M16.3041 15.3478L15.1085 14.1522C14.9182 13.962 14.6602 13.8552 14.3911 13.8552C14.122 13.8552 13.864 13.962 13.6737 14.1522C13.5182 14.359 13.4341 14.6108 13.4341 14.8696C13.4341 15.1283 13.5182 15.3802 13.6737 15.587L16.3041 18.6957V19.6522C16.3041 20.6087 18.2172 23 18.2172 23H22.9998L20.1302 19.1739V14.8131C20.1302 13.1928 18.1397 11.6566 16.3041 10.087V15.3478Z" fill="#FFDDA1"/>
<path d="M7.69531 19.1739H9.60835" stroke="#191919" stroke-linecap="round" stroke-linejoin="round"/>
<path d="M13.913 21.0917H2.43478C2.05436 21.0887 1.69045 20.9359 1.42188 20.6665C1.15332 20.397 1.00175 20.0326 1 19.6522V2.43478C1.00126 2.05464 1.15283 1.69044 1.42163 1.42163C1.69044 1.15283 2.05464 1.00126 2.43478 1H14.8696C15.2501 1 15.6151 1.15116 15.8841 1.42024C16.1532 1.68931 16.3043 2.05426 16.3043 2.43478V15.3478" stroke="#191919" stroke-linecap="round" stroke-linejoin="round"/>
<path d="M15.0901 17.2608H3.39086C3.26401 17.2608 3.14236 17.2104 3.05268 17.1208C2.96299 17.0311 2.9126 16.9094 2.9126 16.7826V3.39129C2.9126 3.26444 2.96299 3.14279 3.05268 3.05311C3.14236 2.96341 3.26401 2.91302 3.39086 2.91302H13.9126C14.0394 2.91302 14.1611 2.96341 14.2508 3.05311C14.3404 3.14279 14.3909 3.26444 14.3909 3.39129V13.8528" stroke="#191919" stroke-linecap="round" stroke-linejoin="round"/>
<path d="M22.9998 23L20.1303 19.1739V14.8131C20.1303 13.1928 18.1398 11.6566 16.3042 10.087" stroke="#191919" stroke-linecap="round" stroke-linejoin="round"/>
<path d="M17.2606 16.3043L15.1085 14.1522C14.9182 13.9619 14.6602 13.8552 14.3911 13.8552C14.122 13.8552 13.864 13.9619 13.6737 14.1522C13.5182 14.359 13.4341 14.6107 13.4341 14.8696C13.4341 15.1283 13.5182 15.38 13.6737 15.5869L16.3041 18.6956V19.6522C16.3041 20.6087 18.2172 23 18.2172 23" stroke="#191919" stroke-linecap="round" stroke-linejoin="round"/>
<path d="M5.78223 12.4782H11.5214" stroke="#191919" stroke-linecap="round" stroke-linejoin="round"/>
<path d="M5.78223 9.60864H11.5214" stroke="#191919" stroke-linecap="round" stroke-linejoin="round"/>
<path d="M5.78223 6.73914H9.60831" stroke="#191919" stroke-linecap="round" stroke-linejoin="round"/>
</g>
<defs>
<clipPath id="clip0_5303_5805">
<rect width="24" height="24" fill="white"/>
</clipPath>
</defs>
</svg>
