<svg width="24" height="24" viewBox="0 0 24 24" fill="none" xmlns="http://www.w3.org/2000/svg">
<g clip-path="url(#clip0_5303_11416)">
<path d="M6.49535 19.5309L3.45462 22.5812C3.18456 22.8502 2.81864 23.0008 2.4375 23C2.05636 22.9992 1.69113 22.8471 1.42214 22.5769C1.15324 22.3069 1.00264 21.941 1.00342 21.5599C1.0042 21.1786 1.15636 20.8135 1.42653 20.5445L4.46823 17.5038L6.49535 19.5309Z" fill="#C77F67"/>
<path d="M11.6489 14.3769L6.49489 19.5308L4.46777 17.5037L9.6217 12.3497" fill="#E3E3E3"/>
<path d="M22.9968 8.57936C22.9968 8.45277 22.9467 8.33145 22.8572 8.24185L15.7573 1.14006C15.6676 1.05036 15.5461 1 15.4193 1C15.2925 1 15.171 1.05036 15.0813 1.14006L9.65771 6.56747C9.45245 6.77273 9.29667 7.02191 9.2021 7.29627C9.10752 7.57064 9.07658 7.86286 9.11172 8.15098L9.61847 12.3066C9.68142 12.8349 9.92016 13.3267 10.2963 13.7028C10.6725 14.079 11.1643 14.3176 11.6925 14.3807L15.8482 14.8874C16.1363 14.9226 16.4285 14.8916 16.7029 14.797C16.9773 14.7025 17.2264 14.5467 17.4317 14.3415L22.8591 8.91785C22.948 8.82766 22.9976 8.70595 22.9968 8.57936Z" fill="#E3E3E3"/>
<path d="M5.44072 18.4799L1.38638 22.5343C1.13437 22.2622 0.997534 21.903 1.00466 21.5321C1.01178 21.1613 1.16229 20.8077 1.42465 20.5454L4.46537 17.5046L5.44072 18.4799Z" fill="#E3BFB3"/>
<path d="M10.5947 13.3262L10.26 13.6609L5.44068 18.4801L4.46533 17.5048L9.61936 12.3508L10.5947 13.3262Z" fill="white"/>
<path d="M19.2672 4.65343L10.5943 13.3262L10.2597 13.6609C9.91474 13.3067 9.69337 12.8506 9.62857 12.3605C9.62076 12.3424 9.61744 12.3227 9.619 12.3031L9.11215 8.15308C9.07711 7.86457 9.10805 7.57176 9.20243 7.29691C9.29681 7.02196 9.4523 6.772 9.65726 6.56576L15.0789 1.14411C15.1234 1.09931 15.1763 1.06369 15.2345 1.03948C15.2928 1.01518 15.3553 1.00269 15.4184 1.00269C15.4814 1.00269 15.5441 1.01518 15.6023 1.03948C15.6605 1.06369 15.7134 1.09931 15.7578 1.14411L19.2672 4.65343Z" fill="white"/>
<path d="M17.6175 6.38391L12.8853 11.1181" stroke="#191919" stroke-linecap="round" stroke-linejoin="round"/>
<path d="M15.9286 4.69165L11.1963 9.42491" stroke="#191919" stroke-linecap="round" stroke-linejoin="round"/>
<path d="M19.31 8.07642L14.5815 12.8087" stroke="#191919" stroke-linecap="round" stroke-linejoin="round"/>
<path d="M6.49535 19.5309L3.45462 22.5812C3.18456 22.8502 2.81864 23.0008 2.4375 23C2.05636 22.9992 1.69113 22.8471 1.42214 22.5769C1.15324 22.3069 1.00264 21.941 1.00342 21.5599C1.0042 21.1786 1.15636 20.8135 1.42653 20.5445L4.46823 17.5038L6.49535 19.5309Z" stroke="#191919" stroke-linecap="round" stroke-linejoin="round"/>
<path d="M11.6489 14.3769L6.49489 19.5308L4.46777 17.5037L9.6217 12.3497" stroke="#191919" stroke-linecap="round" stroke-linejoin="round"/>
<path d="M22.9968 8.57936C22.9968 8.45277 22.9467 8.33145 22.8572 8.24185L15.7573 1.14006C15.6676 1.05036 15.5461 1 15.4193 1C15.2925 1 15.171 1.05036 15.0813 1.14006L9.65771 6.56747C9.45245 6.77273 9.29667 7.02191 9.2021 7.29627C9.10752 7.57064 9.07658 7.86286 9.11172 8.15098L9.61847 12.3066C9.68142 12.8349 9.92016 13.3267 10.2963 13.7028C10.6725 14.079 11.1643 14.3176 11.6925 14.3807L15.8482 14.8874C16.1363 14.9226 16.4285 14.8916 16.7029 14.797C16.9773 14.7025 17.2264 14.5467 17.4317 14.3415L22.8591 8.91785C22.948 8.82766 22.9976 8.70595 22.9968 8.57936Z" stroke="#191919" stroke-linecap="round" stroke-linejoin="round"/>
</g>
<defs>
<clipPath id="clip0_5303_11416">
<rect width="24" height="24" fill="white"/>
</clipPath>
</defs>
</svg>
