<svg width="24" height="24" viewBox="0 0 24 24" fill="none" xmlns="http://www.w3.org/2000/svg">
<g clip-path="url(#clip0_5303_11463)">
<path d="M12.4592 11.7257C13.0322 11.2437 13.6022 10.7403 14.1694 10.2151C14.2167 10.1715 14.2546 10.1187 14.281 10.0601C14.3073 10.0013 14.3216 9.93797 14.3228 9.8737C14.324 9.80934 14.3123 9.74544 14.2882 9.68585C14.2641 9.62617 14.2284 9.57202 14.1828 9.52658L11.1567 6.49951L8.55273 9.13504" fill="#E3E3E3"/>
<path d="M12.4592 11.7257C13.0322 11.2437 13.6022 10.7403 14.1694 10.2151C14.2167 10.1715 14.2546 10.1187 14.281 10.0601C14.3073 10.0013 14.3216 9.93797 14.3228 9.8737C14.324 9.80934 14.3123 9.74544 14.2882 9.68585C14.2641 9.62617 14.2284 9.57202 14.1828 9.52658L11.1567 6.49951L8.55273 9.13504" stroke="#191919" stroke-linecap="round" stroke-linejoin="round"/>
<path d="M18.2479 3.46407C18.5165 3.19536 18.6674 2.831 18.6673 2.45108C18.6672 2.07116 18.5161 1.7068 18.2474 1.43828C17.9787 1.16967 17.6144 1.01883 17.2345 1.01892C16.8545 1.01901 16.4903 1.17004 16.2216 1.43875L11.1606 6.49975L13.1861 8.52601L18.2479 3.46407Z" fill="#C77F67"/>
<path d="M16.2216 1.43859L11.1606 6.4996L12.128 7.46686L18.1888 1.40037C17.9189 1.15265 17.5639 1.0183 17.1975 1.02542C16.8313 1.03254 16.4817 1.18047 16.2216 1.43859Z" fill="#E3BFB3"/>
<path d="M18.2479 3.46407C18.5165 3.19536 18.6674 2.831 18.6673 2.45108C18.6672 2.07116 18.5161 1.7068 18.2474 1.43828C17.9787 1.16967 17.6144 1.01883 17.2345 1.01892C16.8545 1.01901 16.4903 1.17004 16.2216 1.43875L11.1606 6.49975L13.1861 8.52601L18.2479 3.46407Z" stroke="#191919" stroke-linecap="round" stroke-linejoin="round"/>
<path d="M16.2789 17.5228C17.0161 16.9212 17.7476 16.2815 18.4665 15.6207C18.5139 15.577 18.5517 15.5242 18.5781 15.4655C18.6044 15.4069 18.6187 15.3435 18.6199 15.2792C18.6211 15.2149 18.6094 15.151 18.5853 15.0914C18.5613 15.0317 18.5255 14.9776 18.4799 14.9321L15.4538 11.9041L13.8916 13.4673" fill="#E3E3E3"/>
<path d="M16.2789 17.5228C17.0161 16.9212 17.7476 16.2815 18.4665 15.6207C18.5139 15.577 18.5517 15.5242 18.5781 15.4655C18.6044 15.4069 18.6187 15.3435 18.6199 15.2792C18.6211 15.2149 18.6094 15.151 18.5853 15.0914C18.5613 15.0317 18.5255 14.9776 18.4799 14.9321L15.4538 11.9041L13.8916 13.4673" stroke="#191919" stroke-linecap="round" stroke-linejoin="round"/>
<path d="M22.5454 8.86579C22.6859 8.73452 22.7986 8.57628 22.8767 8.40052C22.9549 8.22475 22.9968 8.03503 23 7.84277C23.0032 7.65042 22.9677 7.45939 22.8955 7.2811C22.8233 7.1028 22.7159 6.9409 22.5797 6.80505C22.4436 6.6692 22.2815 6.56211 22.103 6.49025C21.9247 6.41839 21.7335 6.38316 21.5413 6.38672C21.3489 6.39028 21.1593 6.43253 20.9837 6.51105C20.808 6.58947 20.65 6.70246 20.519 6.84337L15.458 11.9043L17.4834 13.9297L22.5454 8.86579Z" fill="#C77F67"/>
<path d="M21.9131 6.45059C21.6669 6.38622 21.4079 6.38866 21.1629 6.45771C20.9178 6.52667 20.6956 6.65971 20.519 6.84306L15.458 11.904L16.4702 12.9095L22.5616 6.81823C22.3819 6.64041 22.1581 6.51355 21.9131 6.45059Z" fill="#E3BFB3"/>
<path d="M22.5454 8.86579C22.6859 8.73452 22.7986 8.57628 22.8767 8.40052C22.9549 8.22475 22.9968 8.03503 23 7.84277C23.0032 7.65042 22.9677 7.45939 22.8955 7.2811C22.8233 7.1028 22.7159 6.9409 22.5797 6.80505C22.4436 6.6692 22.2815 6.56211 22.103 6.49025C21.9247 6.41839 21.7335 6.38316 21.5413 6.38672C21.3489 6.39028 21.1593 6.43253 20.9837 6.51105C20.808 6.58947 20.65 6.70246 20.519 6.84337L15.458 11.9043L17.4834 13.9297L22.5454 8.86579Z" stroke="#191919" stroke-linecap="round" stroke-linejoin="round"/>
<path d="M1 22.0264C1 22.2796 1.10062 22.5226 1.27967 22.7016C1.45881 22.8807 1.70165 22.9813 1.9549 22.9813H16.2469C16.3779 22.9816 16.5076 22.9549 16.6278 22.903C16.748 22.8511 16.8563 22.7749 16.9458 22.6793C17.0354 22.5838 17.1044 22.4709 17.1483 22.3475C17.1923 22.2242 17.2106 22.093 17.2018 21.9624C16.9433 18.0948 15.2246 14.4701 12.3935 11.8225C9.56252 9.17483 5.83109 7.7022 1.9549 7.70276C1.70165 7.70276 1.45881 7.80338 1.27967 7.98243C1.10062 8.16156 1 8.40441 1 8.65766V22.0264Z" fill="#FFBC44"/>
<path d="M1.9549 11.5224C5.31794 11.5216 8.58729 12.6306 11.2559 14.6772C13.9246 16.7237 15.8434 19.5937 16.7148 22.8419C16.877 22.7635 17.0109 22.6371 17.098 22.4795C17.1852 22.322 17.2215 22.1413 17.2018 21.9624C16.9433 18.0948 15.2246 14.4701 12.3935 11.8225C9.56252 9.17483 5.83109 7.7022 1.9549 7.70276C1.70165 7.70276 1.45881 7.80338 1.27967 7.98243C1.10062 8.16156 1 8.40441 1 8.65766V12.4773C1 12.2241 1.10062 11.9812 1.27967 11.8022C1.45881 11.6231 1.70165 11.5224 1.9549 11.5224Z" fill="#FFDDA1"/>
<path d="M1 22.0264C1 22.2796 1.10062 22.5226 1.27967 22.7016C1.45881 22.8807 1.70165 22.9813 1.9549 22.9813H16.2469C16.3779 22.9816 16.5076 22.9549 16.6278 22.903C16.748 22.8511 16.8563 22.7749 16.9458 22.6793C17.0354 22.5838 17.1044 22.4709 17.1483 22.3475C17.1923 22.2242 17.2106 22.093 17.2018 21.9624C16.9433 18.0948 15.2246 14.4701 12.3935 11.8225C9.56252 9.17483 5.83109 7.7022 1.9549 7.70276C1.70165 7.70276 1.45881 7.80338 1.27967 7.98243C1.10062 8.16156 1 8.40441 1 8.65766V22.0264Z" stroke="#191919" stroke-linecap="round" stroke-linejoin="round"/>
<path d="M4.34277 15.8195L8.16237 11.9998" stroke="#191919" stroke-linecap="round" stroke-linejoin="round"/>
<path d="M8.63965 20.1164L12.4592 16.2968" stroke="#191919" stroke-linecap="round" stroke-linejoin="round"/>
</g>
<defs>
<clipPath id="clip0_5303_11463">
<rect width="24" height="24" fill="white"/>
</clipPath>
</defs>
</svg>
