<svg width="24" height="24" viewBox="0 0 24 24" fill="none" xmlns="http://www.w3.org/2000/svg">
<path d="M6.51724 5.86796C5.65918 6.25375 4.72493 6.44039 3.7845 6.41388C3.69682 6.41252 3.61021 6.43318 3.53259 6.47398C3.45497 6.51479 3.38883 6.57441 3.34025 6.6474C3.29165 6.72039 3.26216 6.80442 3.25446 6.89177C3.24677 6.97911 3.26113 7.06699 3.29621 7.14736L6.00171 13.163C6.0375 13.2433 6.09319 13.3132 6.16351 13.3661C6.23383 13.4189 6.31646 13.453 6.40361 13.4652C6.49075 13.4772 6.57953 13.4668 6.66157 13.4351C6.7436 13.4032 6.81619 13.351 6.87245 13.2835C7.47709 12.5639 8.23694 11.9906 9.0949 11.6069L19.2086 7.06039C19.8909 6.76783 20.4514 6.24858 20.7951 5.59045C21.1387 4.93232 21.2445 4.17569 21.0947 3.44852C20.9917 2.99418 20.789 2.56842 20.5013 2.20201C20.2136 1.83561 19.848 1.53776 19.431 1.32997C19.014 1.1222 18.5561 1.00969 18.0903 1.0006C17.6246 0.991511 17.1626 1.08606 16.7378 1.27741L6.51724 5.86796Z" fill="#C2F3FF"/>
<path d="M21.0967 3.4443C20.9698 2.91262 20.7069 2.42301 20.3339 2.02344C20.2327 2.56288 20.002 3.06968 19.6618 3.50039C19.3216 3.9311 18.882 4.27285 18.3807 4.49632L8.06065 9.13507C7.18525 9.52873 6.41009 10.1151 5.79313 10.8504C5.73634 10.9199 5.66268 10.9735 5.5792 11.0063C5.49573 11.0391 5.40523 11.0499 5.31637 11.0378C5.22751 11.0255 5.14327 10.9907 5.07172 10.9366C5.00017 10.8826 4.9437 10.811 4.90771 10.7289L6.00165 13.163C6.03744 13.2433 6.09313 13.3132 6.16345 13.3661C6.23377 13.419 6.3164 13.4531 6.40355 13.4652C6.49069 13.4772 6.57948 13.4668 6.66151 13.4351C6.74355 13.4032 6.81612 13.3511 6.8724 13.2835C7.47703 12.5639 8.23687 11.9907 9.09485 11.6069L19.2085 7.06037C19.8921 6.76802 20.4536 6.24827 20.7978 5.5892C21.1419 4.93015 21.2475 4.17235 21.0967 3.4443Z" fill="#66E1FF"/>
<path d="M6.51724 5.86796C5.65918 6.25375 4.72493 6.44039 3.7845 6.41388C3.69682 6.41252 3.61021 6.43318 3.53259 6.47398C3.45497 6.51479 3.38883 6.57441 3.34025 6.6474C3.29165 6.72039 3.26216 6.80442 3.25446 6.89177C3.24677 6.97911 3.26113 7.06699 3.29621 7.14736L6.00171 13.163C6.0375 13.2433 6.09319 13.3132 6.16351 13.3661C6.23383 13.4189 6.31646 13.453 6.40361 13.4652C6.49075 13.4772 6.57953 13.4668 6.66157 13.4351C6.7436 13.4032 6.81619 13.351 6.87245 13.2835C7.47709 12.5639 8.23694 11.9906 9.0949 11.6069L19.2086 7.06039C19.8909 6.76783 20.4514 6.24858 20.7951 5.59045C21.1387 4.93232 21.2445 4.17569 21.0947 3.44852C20.9917 2.99418 20.789 2.56842 20.5013 2.20201C20.2136 1.83561 19.848 1.53776 19.431 1.32997C19.014 1.1222 18.5561 1.00969 18.0903 1.0006C17.6246 0.991511 17.1626 1.08606 16.7378 1.27741L6.51724 5.86796Z" stroke="#191919" stroke-linecap="round" stroke-linejoin="round"/>
<path d="M7.02775 20.9043C7.02775 21.4601 6.80696 21.9931 6.41395 22.3862C6.02093 22.7792 5.4879 23 4.93209 23C4.37629 23 3.84324 22.7792 3.45023 22.3862C3.05722 21.9931 2.83643 21.4601 2.83643 20.9043C2.83643 20.0766 3.90836 18.5572 4.51819 17.7608C4.56718 17.698 4.62988 17.647 4.70152 17.6121C4.77315 17.5771 4.85183 17.5588 4.93156 17.5588C5.0113 17.5588 5.08999 17.5771 5.16162 17.6121C5.23325 17.647 5.29595 17.698 5.34493 17.7608C5.95582 18.5572 7.02775 20.0766 7.02775 20.9043Z" fill="#FFEF5E" stroke="#191919" stroke-linecap="round" stroke-linejoin="round"/>
<path d="M8.80446 11.7327L7.51562 8.86584" stroke="#191919" stroke-linecap="round" stroke-linejoin="round"/>
<path d="M11.6723 10.4438L10.812 8.53149" stroke="#191919" stroke-linecap="round" stroke-linejoin="round"/>
<path d="M14.5389 9.15507L13.249 6.28821" stroke="#191919" stroke-linecap="round" stroke-linejoin="round"/>
<path d="M17.4066 7.86615L16.5474 5.95386" stroke="#191919" stroke-linecap="round" stroke-linejoin="round"/>
</svg>
