<svg width="24" height="24" viewBox="0 0 24 24" fill="none" xmlns="http://www.w3.org/2000/svg">
<path d="M15.8258 6.73938V19.1747C15.8257 19.7085 15.7138 20.2364 15.4975 20.7245C15.2812 21.2125 14.965 21.6499 14.5696 22.0085C14.174 22.367 13.7079 22.6388 13.201 22.8065C12.6941 22.9741 12.1578 23.0338 11.6265 22.9818C10.6627 22.8625 9.77691 22.3912 9.13948 21.6584C8.50206 20.9256 8.15796 19.9831 8.17335 19.012V6.73938H15.8258Z" fill="#C9F7CA"/>
<path d="M11.6265 18.199C10.6626 18.0799 9.77671 17.6087 9.13925 16.8759C8.50179 16.143 8.15777 15.2004 8.17336 14.2292V19.0121C8.15798 19.9832 8.50207 20.9257 9.1395 21.6584C9.77691 22.3912 10.6627 22.8625 11.6265 22.9818C12.1578 23.0338 12.6942 22.9741 13.201 22.8065C13.7078 22.6389 14.1741 22.367 14.5696 22.0085C14.965 21.6499 15.2812 21.2125 15.4976 20.7245C15.7138 20.2365 15.8258 19.7085 15.8258 19.1747V14.3919C15.8258 14.9257 15.7138 15.4536 15.4976 15.9417C15.2812 16.4297 14.965 16.8671 14.5696 17.2257C14.1741 17.5842 13.7078 17.856 13.201 18.0237C12.6942 18.1913 12.1578 18.251 11.6265 18.199Z" fill="#78EB7B"/>
<path d="M11.0435 14.392C11.5718 14.392 12 13.9637 12 13.4354C12 12.9071 11.5718 12.4788 11.0435 12.4788C10.5152 12.4788 10.0869 12.9071 10.0869 13.4354C10.0869 13.9637 10.5152 14.392 11.0435 14.392Z" fill="#FFF9BF" stroke="#191919" stroke-linecap="round" stroke-linejoin="round"/>
<path d="M12.9566 11.0439C13.4849 11.0439 13.9131 10.6156 13.9131 10.0873C13.9131 9.55901 13.4849 9.13074 12.9566 9.13074C12.4283 9.13074 12 9.55901 12 10.0873C12 10.6156 12.4283 11.0439 12.9566 11.0439Z" fill="#FFF9BF" stroke="#191919" stroke-linecap="round" stroke-linejoin="round"/>
<path d="M12 19.6528C12.5283 19.6528 12.9566 19.2246 12.9566 18.6963C12.9566 18.168 12.5283 17.7397 12 17.7397C11.4717 17.7397 11.0435 18.168 11.0435 18.6963C11.0435 19.2246 11.4717 19.6528 12 19.6528Z" fill="#FFF9BF" stroke="#191919" stroke-linecap="round" stroke-linejoin="round"/>
<path d="M16.5436 1.6409C16.0664 3.03238 15.824 4.49352 15.8262 5.96455V6.73937H8.17368V5.96455C8.17589 4.49352 7.93344 3.03238 7.45626 1.6409C7.43041 1.56944 7.42196 1.49286 7.4316 1.41748C7.44124 1.34211 7.46871 1.27012 7.51172 1.20747C7.55473 1.14483 7.61205 1.09333 7.67892 1.05725C7.7458 1.02117 7.82031 1.00155 7.89628 1H16.1036C16.1795 1.00155 16.254 1.02117 16.3209 1.05725C16.3878 1.09333 16.4452 1.14483 16.4881 1.20747C16.5312 1.27012 16.5586 1.34211 16.5683 1.41748C16.5779 1.49286 16.5694 1.56944 16.5436 1.6409Z" fill="#C2F3FF" stroke="#191919" stroke-linecap="round" stroke-linejoin="round"/>
<path d="M15.8258 6.73938V19.1747C15.8257 19.7085 15.7138 20.2364 15.4975 20.7245C15.2812 21.2125 14.965 21.6499 14.5696 22.0085C14.174 22.367 13.7079 22.6388 13.201 22.8065C12.6941 22.9741 12.1578 23.0338 11.6265 22.9818C10.6627 22.8625 9.77691 22.3912 9.13948 21.6584C8.50206 20.9256 8.15796 19.9831 8.17335 19.012V6.73938H15.8258Z" stroke="#191919" stroke-linecap="round" stroke-linejoin="round"/>
</svg>
