<svg width="24" height="24" viewBox="0 0 24 24" fill="none" xmlns="http://www.w3.org/2000/svg">
<path d="M17.1747 15.6667H6.82422L9.38041 11.4762V3.09525H14.6185V11.4762L17.1747 15.6667Z" fill="#C2F3FF"/>
<path d="M19.7833 21.8686C19.6071 22.2086 19.3411 22.4939 19.0142 22.6934C18.6873 22.8928 18.312 22.9989 17.929 23H6.06994C5.68704 22.9982 5.31192 22.8918 4.98506 22.6924C4.65819 22.4929 4.39198 22.208 4.21516 21.8684C4.03834 21.5288 3.95762 21.1473 3.9817 20.7652C4.00579 20.383 4.13377 20.0147 4.35184 19.7L6.82422 15.6667H17.1747L19.6471 19.7C19.8659 20.0145 19.9942 20.3829 20.0182 20.7653C20.0423 21.1476 19.961 21.5292 19.7833 21.8686Z" fill="#C9F7CA"/>
<path d="M19.6467 19.7L17.1743 15.6667H11.8943C11.3236 17.2851 10.382 18.7475 9.14508 19.937C7.90811 21.1265 6.40999 22.01 4.77051 22.5171C5.13508 22.8219 5.59394 22.9927 6.06956 23H17.9286C18.3115 22.9982 18.6866 22.8918 19.0135 22.6924C19.3404 22.4929 19.6066 22.208 19.7834 21.8684C19.9602 21.5288 20.0409 21.1473 20.0168 20.7652C19.9927 20.383 19.8648 20.0147 19.6467 19.7Z" fill="#78EB7B"/>
<path d="M12.5231 3.09525V12.0199C12.522 13.2624 12.3094 14.4955 11.8945 15.6667H17.1745L14.6183 11.4762V3.09525H12.5231Z" fill="#66E1FF"/>
<path d="M19.7833 21.8686C19.6071 22.2086 19.3411 22.4939 19.0142 22.6934C18.6873 22.8928 18.312 22.9989 17.929 23H6.06994C5.68704 22.9982 5.31192 22.8918 4.98506 22.6924C4.65819 22.4929 4.39198 22.208 4.21516 21.8684C4.03834 21.5288 3.95762 21.1473 3.9817 20.7652C4.00579 20.383 4.13377 20.0147 4.35184 19.7L6.82422 15.6667H17.1747L19.6471 19.7C19.8659 20.0145 19.9942 20.3829 20.0182 20.7653C20.0423 21.1476 19.961 21.5292 19.7833 21.8686Z" stroke="#191919" stroke-linecap="round" stroke-linejoin="round"/>
<path d="M17.1747 15.6667H6.82422L9.38041 11.4762V3.09525H14.6185V11.4762L17.1747 15.6667Z" stroke="#191919" stroke-linecap="round" stroke-linejoin="round"/>
<path d="M16.7132 2.04762C16.7132 2.32547 16.6029 2.59193 16.4064 2.7884C16.2099 2.98486 15.9435 3.09524 15.6656 3.09524H8.33229C8.05444 3.09524 7.78798 2.98486 7.59151 2.7884C7.39504 2.59193 7.28467 2.32547 7.28467 2.04762C7.28467 1.76977 7.39504 1.50331 7.59151 1.30684C7.78798 1.11037 8.05444 1 8.33229 1H15.6656C15.9435 1 16.2099 1.11037 16.4064 1.30684C16.6029 1.50331 16.7132 1.76977 16.7132 2.04762Z" fill="#C2F3FF" stroke="#191919" stroke-linecap="round" stroke-linejoin="round"/>
<path d="M14.6182 5.19049H12.5229" stroke="#191919" stroke-linecap="round" stroke-linejoin="round"/>
<path d="M14.6182 9.38095H12.5229" stroke="#191919" stroke-linecap="round" stroke-linejoin="round"/>
<path d="M14.6184 7.28571H11.4756" stroke="#191919" stroke-linecap="round" stroke-linejoin="round"/>
<path d="M9.38002 20.9048C9.79679 20.9048 10.1965 20.7392 10.4912 20.4445C10.7859 20.1498 10.9515 19.7501 10.9515 19.3333C10.9515 18.9166 10.7859 18.5169 10.4912 18.2222C10.1965 17.9275 9.79679 17.7619 9.38002 17.7619C8.96325 17.7619 8.56355 17.9275 8.26885 18.2222C7.97415 18.5169 7.80859 18.9166 7.80859 19.3333C7.80859 19.7501 7.97415 20.1498 8.26885 20.4445C8.56355 20.7392 8.96325 20.9048 9.38002 20.9048Z" fill="#D480FF" stroke="#191919" stroke-linecap="round" stroke-linejoin="round"/>
<path d="M15.666 20.6429C15.7355 20.6429 15.8021 20.6704 15.8512 20.7196C15.9003 20.7687 15.9279 20.8353 15.9279 20.9048" stroke="#191919" stroke-linecap="round" stroke-linejoin="round"/>
<path d="M15.4038 20.9048C15.4038 20.8353 15.4314 20.7687 15.4805 20.7196C15.5296 20.6704 15.5963 20.6429 15.6657 20.6429" stroke="#191919" stroke-linecap="round" stroke-linejoin="round"/>
<path d="M15.6657 21.1667C15.5963 21.1667 15.5296 21.1391 15.4805 21.0899C15.4314 21.0408 15.4038 20.9742 15.4038 20.9048" stroke="#191919" stroke-linecap="round" stroke-linejoin="round"/>
<path d="M15.9279 20.9048C15.9279 20.9742 15.9003 21.0408 15.8512 21.0899C15.8021 21.1391 15.7355 21.1667 15.666 21.1667" stroke="#191919" stroke-linecap="round" stroke-linejoin="round"/>
<path d="M13.5708 17.5C13.6403 17.5 13.7069 17.5276 13.756 17.5767C13.8051 17.6258 13.8327 17.6924 13.8327 17.7619" stroke="#191919" stroke-linecap="round" stroke-linejoin="round"/>
<path d="M13.3086 17.7619C13.3086 17.6924 13.3362 17.6258 13.3853 17.5767C13.4344 17.5276 13.501 17.5 13.5705 17.5" stroke="#191919" stroke-linecap="round" stroke-linejoin="round"/>
<path d="M13.5705 18.0238C13.501 18.0238 13.4344 17.9962 13.3853 17.9471C13.3362 17.898 13.3086 17.8314 13.3086 17.7619" stroke="#191919" stroke-linecap="round" stroke-linejoin="round"/>
<path d="M13.8327 17.7619C13.8327 17.8314 13.8051 17.898 13.756 17.9471C13.7069 17.9962 13.6403 18.0238 13.5708 18.0238" stroke="#191919" stroke-linecap="round" stroke-linejoin="round"/>
</svg>
