<svg width="24" height="24" viewBox="0 0 24 24" fill="none" xmlns="http://www.w3.org/2000/svg">
<g clip-path="url(#clip0_5303_7828)">
<path d="M11.9999 22.992C18.0729 22.992 22.9959 18.069 22.9959 11.996C22.9959 5.92309 18.0729 1 11.9999 1C5.92699 1 1.00391 5.92309 1.00391 11.996C1.00391 18.069 5.92699 22.992 11.9999 22.992Z" fill="#C9F7CA"/>
<path d="M20.7344 5.3353C21.5743 7.80413 21.5085 10.4913 20.5486 12.916C19.5888 15.3407 17.7976 17.3449 15.4956 18.57C13.1935 19.7952 10.5306 20.1613 7.98328 19.6029C5.43597 19.0446 3.17038 17.5981 1.5918 15.5224C2.10141 17.0335 2.9338 18.4156 4.03119 19.5727C5.12858 20.7299 6.46467 21.6344 7.94669 22.2233C9.42871 22.8122 11.0211 23.0715 12.6134 22.9831C14.2058 22.8949 15.7597 22.4611 17.1676 21.7118C18.5754 20.9626 19.8032 19.916 20.766 18.6447C21.7287 17.3733 22.4032 15.9076 22.7425 14.3494C23.0819 12.7912 23.0781 11.1777 22.7313 9.62116C22.3845 8.06457 21.7031 6.60209 20.7344 5.3353Z" fill="#78EB7B"/>
<path d="M11.9999 22.992C18.0729 22.992 22.9959 18.069 22.9959 11.996C22.9959 5.92309 18.0729 1 11.9999 1C5.92699 1 1.00391 5.92309 1.00391 11.996C1.00391 18.069 5.92699 22.992 11.9999 22.992Z" stroke="#191919" stroke-linecap="round" stroke-linejoin="round"/>
<path d="M18.82 11.0092C18.9978 16.1611 14.1806 13.7516 11.8007 16.5551C11.3931 17.1686 11.2042 17.9017 11.2644 18.6359C11.3245 19.3701 11.6304 20.0626 12.1325 20.6016" stroke="#191919" stroke-linecap="round" stroke-linejoin="round"/>
<path d="M19.6414 9.50231C19.7064 10.2921 19.3325 10.9672 18.8066 11.0102C18.2807 11.0532 17.8007 10.4489 17.7367 9.65913C17.6726 8.86932 18.0455 8.19427 18.5723 8.15124C19.0992 8.10821 19.5763 8.71347 19.6414 9.50231Z" fill="#FFEF5E" stroke="#191919" stroke-linecap="round" stroke-linejoin="round"/>
<path d="M5.45846 10.3705C5.27965 5.22248 10.0978 7.63108 12.4777 4.82471" stroke="#191919" stroke-linecap="round" stroke-linejoin="round"/>
<path d="M4.63723 11.8803C4.57221 11.0915 4.94607 10.4164 5.47292 10.3734C5.99978 10.3304 6.47882 10.9347 6.54288 11.7245C6.60695 12.5143 6.23404 13.1884 5.70814 13.2314C5.18225 13.2744 4.70129 12.6701 4.63723 11.8803Z" fill="#FFEF5E" stroke="#191919" stroke-linecap="round" stroke-linejoin="round"/>
<path d="M14.3903 11.5179C14.9184 11.5179 15.3464 11.0899 15.3464 10.5618C15.3464 10.0337 14.9184 9.60559 14.3903 9.60559C13.8622 9.60559 13.4341 10.0337 13.4341 10.5618C13.4341 11.0899 13.8622 11.5179 14.3903 11.5179Z" fill="#FFEF5E" stroke="#191919" stroke-linecap="round" stroke-linejoin="round"/>
<path d="M7.6969 17.255C8.22497 17.255 8.65307 16.8269 8.65307 16.2988C8.65307 15.7707 8.22497 15.3426 7.6969 15.3426C7.16882 15.3426 6.74072 15.7707 6.74072 16.2988C6.74072 16.8269 7.16882 17.255 7.6969 17.255Z" fill="#FFEF5E" stroke="#191919" stroke-linecap="round" stroke-linejoin="round"/>
<path d="M10.0874 9.84363C10.1508 9.84363 10.2116 9.86881 10.2565 9.91365C10.3013 9.95847 10.3264 10.0193 10.3264 10.0827" stroke="#191919" stroke-linecap="round" stroke-linejoin="round"/>
<path d="M9.84863 10.0837C9.84863 10.0203 9.87382 9.95948 9.91864 9.91465C9.96348 9.86982 10.0243 9.84464 10.0877 9.84464" stroke="#191919" stroke-linecap="round" stroke-linejoin="round"/>
<path d="M10.0877 10.3218C10.0244 10.3218 9.96379 10.2967 9.91899 10.2521C9.87418 10.2075 9.84888 10.1469 9.84863 10.0837" stroke="#191919" stroke-linecap="round" stroke-linejoin="round"/>
<path d="M10.3264 10.0837C10.3264 10.1471 10.3013 10.2079 10.2565 10.2527C10.2116 10.2976 10.1508 10.3227 10.0874 10.3227" stroke="#191919" stroke-linecap="round" stroke-linejoin="round"/>
<path d="M14.8687 4.1066C14.932 4.1066 14.9929 4.13178 15.0377 4.17662C15.0825 4.22144 15.1077 4.28225 15.1077 4.34564" stroke="#191919" stroke-linecap="round" stroke-linejoin="round"/>
<path d="M14.6294 4.34662C14.6294 4.28322 14.6545 4.22242 14.6994 4.17759C14.7442 4.13276 14.805 4.10757 14.8684 4.10757" stroke="#191919" stroke-linecap="round" stroke-linejoin="round"/>
<path d="M14.8684 4.58471C14.8052 4.58471 14.7445 4.55965 14.6998 4.51503C14.6549 4.47041 14.6297 4.40985 14.6294 4.34662" stroke="#191919" stroke-linecap="round" stroke-linejoin="round"/>
<path d="M15.1077 4.34662C15.1077 4.41001 15.0825 4.47082 15.0377 4.51565C14.9929 4.56048 14.932 4.58566 14.8687 4.58566" stroke="#191919" stroke-linecap="round" stroke-linejoin="round"/>
<path d="M16.7808 17.4931C16.8442 17.4931 16.905 17.5182 16.9498 17.5631C16.9947 17.6079 17.0198 17.6688 17.0198 17.7321" stroke="#191919" stroke-linecap="round" stroke-linejoin="round"/>
<path d="M16.542 17.7331C16.542 17.6697 16.5671 17.6089 16.612 17.564C16.6568 17.5192 16.7176 17.494 16.781 17.494" stroke="#191919" stroke-linecap="round" stroke-linejoin="round"/>
<path d="M16.781 17.9712C16.7176 17.9712 16.6568 17.946 16.612 17.9012C16.5671 17.8564 16.542 17.7955 16.542 17.7321" stroke="#191919" stroke-linecap="round" stroke-linejoin="round"/>
<path d="M17.0198 17.7331C17.0198 17.7965 16.9947 17.8573 16.9498 17.9021C16.905 17.947 16.8442 17.9721 16.7808 17.9721" stroke="#191919" stroke-linecap="round" stroke-linejoin="round"/>
</g>
<defs>
<clipPath id="clip0_5303_7828">
<rect width="24" height="24" fill="white"/>
</clipPath>
</defs>
</svg>
