<svg width="24" height="24" viewBox="0 0 24 24" fill="none" xmlns="http://www.w3.org/2000/svg">
<path d="M19.7918 19.7917V9.40675C19.7925 9.20573 19.7533 9.00658 19.6768 8.82071C19.6002 8.63483 19.4878 8.4659 19.3459 8.32359C19.2039 8.18129 19.0352 8.0684 18.8495 7.99143C18.6639 7.91444 18.4648 7.87488 18.2637 7.875H5.73659C5.53557 7.87488 5.33651 7.91444 5.15082 7.99143C4.96513 8.0684 4.79646 8.18129 4.6545 8.32359C4.51253 8.4659 4.40005 8.63483 4.32352 8.82071C4.24698 9.00658 4.2079 9.20573 4.2085 9.40675V19.7917H19.7918Z" fill="#66E1FF"/>
<path d="M18.4077 7.8841C18.36 7.8841 18.316 7.87769 18.2637 7.87769H5.73658C5.5358 7.87757 5.33697 7.91704 5.15145 7.99385C4.96595 8.07065 4.7974 8.18329 4.65547 8.3253C4.51354 8.46732 4.40101 8.63593 4.32431 8.82149C4.24761 9.00705 4.20826 9.20591 4.2085 9.40669V19.7916H6.50016L18.4077 7.8841Z" fill="#C2F3FF"/>
<path d="M9.25017 7.875H5.73659C5.53557 7.87488 5.33651 7.91444 5.15082 7.99143C4.96513 8.0684 4.79646 8.18129 4.6545 8.32359C4.51253 8.4659 4.40005 8.63483 4.32352 8.82071C4.24698 9.00658 4.2079 9.20573 4.2085 9.40675V19.7917H19.7918V13.8333" stroke="#191919" stroke-linecap="round" stroke-linejoin="round"/>
<path d="M22.5418 19.7917C22.5418 20.521 22.2521 21.2205 21.7364 21.7362C21.2206 22.2519 20.5211 22.5417 19.7918 22.5417H4.2085C3.47915 22.5417 2.77968 22.2519 2.26395 21.7362C1.74823 21.2205 1.4585 20.521 1.4585 19.7917H22.5418Z" fill="white" stroke="#191919" stroke-linecap="round" stroke-linejoin="round"/>
<path d="M16.9803 1.45831C16.2566 1.46087 15.5407 1.60727 14.8741 1.88902C14.2076 2.17077 13.6037 2.58224 13.0977 3.09949C12.5916 3.61673 12.1934 4.22945 11.9263 4.90198C11.6592 5.57452 11.5284 6.29345 11.5417 7.01698C11.5004 8.04052 11.7486 9.05495 12.2576 9.9439L10.625 13.375L14.0542 11.7415C14.7853 12.1947 15.6115 12.472 16.4679 12.5517C17.3243 12.6315 18.1875 12.5113 18.9897 12.2008C19.7918 11.8903 20.5109 11.398 21.0904 10.7624C21.6699 10.1269 22.0941 9.36553 22.3295 8.53827C22.5649 7.71101 22.6051 6.8404 22.447 5.99496C22.2889 5.14952 21.9367 4.3523 21.4181 3.66606C20.8996 2.97981 20.229 2.42323 19.4589 2.04014C18.6888 1.65705 17.8404 1.45788 16.9803 1.45831Z" fill="#FFEF5E" stroke="#191919" stroke-linecap="round" stroke-linejoin="round"/>
<path d="M15.6665 6.04169C15.6665 5.76974 15.7472 5.5039 15.8982 5.27779C16.0493 5.05166 16.2641 4.87542 16.5153 4.77135C16.7666 4.66729 17.0431 4.64005 17.3097 4.69311C17.5765 4.74616 17.8215 4.87712 18.0138 5.06942C18.206 5.26172 18.337 5.50671 18.3901 5.77345C18.4432 6.04017 18.4159 6.31663 18.3118 6.56788C18.2078 6.81913 18.0315 7.03387 17.8055 7.18497C17.5793 7.33605 17.3135 7.41669 17.0415 7.41669" stroke="#191919" stroke-linecap="round" stroke-linejoin="round"/>
<path d="M17.0417 9.25002C16.9151 9.25002 16.8125 9.14742 16.8125 9.02085C16.8125 8.89429 16.9151 8.79169 17.0417 8.79169" stroke="#191919"/>
<path d="M17.0415 9.25002C17.1681 9.25002 17.2707 9.14742 17.2707 9.02085C17.2707 8.89429 17.1681 8.79169 17.0415 8.79169" stroke="#191919"/>
</svg>
