<svg width="24" height="24" viewBox="0 0 24 24" fill="none" xmlns="http://www.w3.org/2000/svg">
<path d="M18.2178 1.47797H5.78272C5.27534 1.47797 4.78874 1.67952 4.42996 2.0383C4.07119 2.39707 3.86963 2.88368 3.86963 3.39106V11.0434C3.86963 11.5508 4.07119 12.0374 4.42996 12.3962C4.78874 12.755 5.27534 12.9565 5.78272 12.9565H18.2178C18.7252 12.9565 19.2118 12.755 19.5706 12.3962C19.9294 12.0374 20.1309 11.5508 20.1309 11.0434V3.39106C20.1309 2.88368 19.9294 2.39707 19.5706 2.0383C19.2118 1.67952 18.7252 1.47797 18.2178 1.47797Z" fill="#66E1FF"/>
<path d="M5.78272 12.9565H6.9784L18.4436 1.49136C18.3686 1.48255 18.2933 1.47808 18.2178 1.47797H5.78272C5.27534 1.47797 4.78874 1.67952 4.42996 2.0383C4.07119 2.39707 3.86963 2.88368 3.86963 3.39106V11.0434C3.86963 11.5508 4.07119 12.0374 4.42996 12.3962C4.78874 12.755 5.27534 12.9565 5.78272 12.9565Z" fill="#C2F3FF"/>
<path d="M18.2178 1.47797H5.78272C5.27534 1.47797 4.78874 1.67952 4.42996 2.0383C4.07119 2.39707 3.86963 2.88368 3.86963 3.39106V11.0434C3.86963 11.5508 4.07119 12.0374 4.42996 12.3962C4.78874 12.755 5.27534 12.9565 5.78272 12.9565H18.2178C18.7252 12.9565 19.2118 12.755 19.5706 12.3962C19.9294 12.0374 20.1309 11.5508 20.1309 11.0434V3.39106C20.1309 2.88368 19.9294 2.39707 19.5706 2.0383C19.2118 1.67952 18.7252 1.47797 18.2178 1.47797Z" stroke="#191919" stroke-linecap="round" stroke-linejoin="round"/>
<path d="M22.9307 20.8892C22.9956 21.074 23.0153 21.2716 22.9882 21.4656C22.961 21.6596 22.8878 21.8442 22.7747 22.0041C22.6616 22.164 22.5118 22.2944 22.3379 22.3845C22.164 22.4746 21.971 22.5218 21.7751 22.522H2.22525C2.02931 22.522 1.83624 22.475 1.66222 22.3849C1.48819 22.2949 1.33831 22.1644 1.22512 22.0045C1.11194 21.8446 1.03876 21.6598 1.01172 21.4657C0.984686 21.2717 1.00458 21.074 1.06974 20.8892L3.23249 14.7606C3.41872 14.233 3.76399 13.7762 4.22073 13.4531C4.67747 13.13 5.22318 12.9565 5.78264 12.9565H18.2177C18.7771 12.9564 19.3227 13.1299 19.7793 13.453C20.2359 13.7762 20.581 14.233 20.7669 14.7606L22.9307 20.8892Z" fill="#E3E3E3" stroke="#191919" stroke-linecap="round" stroke-linejoin="round"/>
<path d="M15.3477 22.5219H8.65186L9.6084 19.6523H14.3911L15.3477 22.5219Z" fill="#808080" stroke="#191919" stroke-linecap="round" stroke-linejoin="round"/>
<path d="M5.77783 15.8262H6.73438" stroke="#191919" stroke-linecap="round" stroke-linejoin="round"/>
<path d="M8.64746 15.8262H9.60401" stroke="#191919" stroke-linecap="round" stroke-linejoin="round"/>
<path d="M14.3867 15.8262H15.3433" stroke="#191919" stroke-linecap="round" stroke-linejoin="round"/>
<path d="M17.2563 15.8262H18.2129" stroke="#191919" stroke-linecap="round" stroke-linejoin="round"/>
<path d="M11.5171 15.8262H12.4736" stroke="#191919" stroke-linecap="round" stroke-linejoin="round"/>
<path d="M4.82129 17.7393H5.77784" stroke="#191919" stroke-linecap="round" stroke-linejoin="round"/>
<path d="M7.69092 17.7393H16.2998" stroke="#191919" stroke-linecap="round" stroke-linejoin="round"/>
<path d="M18.2129 17.7393H19.1694" stroke="#191919" stroke-linecap="round" stroke-linejoin="round"/>
</svg>
