<svg width="24" height="24" viewBox="0 0 24 24" fill="none" xmlns="http://www.w3.org/2000/svg">
<g clip-path="url(#clip0_5303_10113)">
<path d="M20.9014 20.1304H3.09861C2.64631 20.1306 2.20857 19.9706 1.86308 19.6787C1.51759 19.3867 1.2867 18.9819 1.21139 18.5359L1 17.2609H23L22.7886 18.5321C22.7141 18.9788 22.4836 19.3845 22.138 19.6772C21.7924 19.9699 21.3542 20.1305 20.9014 20.1304Z" fill="white" stroke="#191919" stroke-linecap="round" stroke-linejoin="round"/>
<path d="M2.91258 3.86951H21.0865C21.3402 3.86951 21.5835 3.97029 21.7628 4.14966C21.9422 4.32905 22.043 4.57234 22.043 4.82603V17.2608H1.95605V4.82603C1.95605 4.57234 2.05683 4.32905 2.23621 4.14966C2.4156 3.97029 2.65889 3.86951 2.91258 3.86951Z" fill="#66E1FF"/>
<path d="M18.6952 3.86951H2.91258C2.65889 3.86951 2.4156 3.97029 2.23621 4.14966C2.05683 4.32905 1.95605 4.57234 1.95605 4.82603V17.2608H5.30388L18.6952 3.86951Z" fill="#C2F3FF"/>
<path d="M2.91258 3.86951H21.0865C21.3402 3.86951 21.5835 3.97029 21.7628 4.14966C21.9422 4.32905 22.043 4.57234 22.043 4.82603V17.2608H1.95605V4.82603C1.95605 4.57234 2.05683 4.32905 2.23621 4.14966C2.4156 3.97029 2.65889 3.86951 2.91258 3.86951Z" stroke="#191919" stroke-linecap="round" stroke-linejoin="round"/>
<path d="M11.9998 10.0907C13.1884 10.0907 14.152 9.12716 14.152 7.93855C14.152 6.74994 13.1884 5.78638 11.9998 5.78638C10.8113 5.78638 9.84766 6.74994 9.84766 7.93855C9.84766 9.12716 10.8113 10.0907 11.9998 10.0907Z" fill="#E3E3E3" stroke="#191919" stroke-linecap="round" stroke-linejoin="round"/>
<path d="M16.304 14.3912C16.0601 13.4348 15.5045 12.5868 14.7252 11.9812C13.9457 11.3756 12.9867 11.0468 11.9997 11.0468C11.0126 11.0468 10.0536 11.3756 9.27418 11.9812C8.49473 12.5868 7.93921 13.4348 7.69531 14.3912H16.304Z" fill="#E3E3E3" stroke="#191919" stroke-linecap="round" stroke-linejoin="round"/>
</g>
<defs>
<clipPath id="clip0_5303_10113">
<rect width="24" height="24" fill="white"/>
</clipPath>
</defs>
</svg>
