<svg width="24" height="24" viewBox="0 0 24 24" fill="none" xmlns="http://www.w3.org/2000/svg">
<g clip-path="url(#clip0_5303_5372)">
<path d="M20.1305 13.4348V2.59452C20.1305 2.17163 19.9625 1.76605 19.6634 1.46702C19.3644 1.16799 18.9588 1 18.5359 1H5.46415C5.04126 1 4.63568 1.16799 4.33665 1.46702C4.03762 1.76605 3.86963 2.17163 3.86963 2.59452V13.4348H20.1305Z" fill="#66E1FF"/>
<path d="M18.2174 1H5.46415C5.04126 1 4.63568 1.16799 4.33665 1.46702C4.03762 1.76605 3.86963 2.17163 3.86963 2.59452V13.4348H5.78267L18.2174 1Z" fill="#C2F3FF"/>
<path d="M23 13.4348C22.7267 14.5276 22.096 15.4977 21.2082 16.1909C20.3203 16.8842 19.2262 17.2608 18.0997 17.2608H5.90025C4.77383 17.2606 3.6798 16.884 2.79196 16.1907C1.90411 15.4975 1.27339 14.5275 1 13.4348H23Z" fill="white"/>
<path d="M20.1305 9.60868V2.59452C20.1305 2.17163 19.9625 1.76605 19.6634 1.46702C19.3644 1.16799 18.9588 1 18.5359 1H5.46415C5.04126 1 4.63568 1.16799 4.33665 1.46702C4.03762 1.76605 3.86963 2.17163 3.86963 2.59452V13.4348" stroke="#191919" stroke-linecap="round" stroke-linejoin="round"/>
<path d="M9.60868 17.2608H5.90025C4.77383 17.2606 3.6798 16.884 2.79196 16.1907C1.90411 15.4975 1.27339 14.5275 1 13.4348H10.5652" stroke="#191919" stroke-linecap="round" stroke-linejoin="round"/>
<path d="M17.2606 23C18.7827 23 20.2425 22.3954 21.3188 21.3191C22.3951 20.2428 22.9997 18.783 22.9997 17.2609C22.9997 15.7388 22.3951 14.279 21.3188 13.2027C20.2425 12.1264 18.7827 11.5218 17.2606 11.5218C15.7385 11.5218 14.2787 12.1264 13.2024 13.2027C12.1261 14.279 11.5215 15.7388 11.5215 17.2609C11.5215 18.783 12.1261 20.2428 13.2024 21.3191C14.2787 22.3954 15.7385 23 17.2606 23Z" fill="#E3E3E3"/>
<path d="M13.2021 21.3194C12.6691 20.7864 12.2463 20.1537 11.9579 19.4573C11.6695 18.7609 11.521 18.0146 11.521 17.2608C11.521 16.5071 11.6695 15.7608 11.9579 15.0644C12.2463 14.368 12.6691 13.7353 13.2021 13.2023C13.7351 12.6694 14.3678 12.2466 15.0641 11.9581C15.7605 11.6697 16.5069 11.5212 17.2606 11.5212C18.0143 11.5212 18.7607 11.6697 19.4571 11.9581C20.1534 12.2466 20.7861 12.6694 21.3191 13.2023L13.2021 21.3194Z" fill="white"/>
<path d="M17.2606 23C18.7827 23 20.2425 22.3954 21.3188 21.3191C22.3951 20.2428 22.9997 18.783 22.9997 17.2609C22.9997 15.7388 22.3951 14.279 21.3188 13.2027C20.2425 12.1264 18.7827 11.5218 17.2606 11.5218C15.7385 11.5218 14.2787 12.1264 13.2024 13.2027C12.1261 14.279 11.5215 15.7388 11.5215 17.2609C11.5215 18.783 12.1261 20.2428 13.2024 21.3191C14.2787 22.3954 15.7385 23 17.2606 23Z" stroke="#191919" stroke-linecap="round" stroke-linejoin="round"/>
<path d="M18.6958 17.3354H16.7827V14.4659" stroke="#191919" stroke-linecap="round" stroke-linejoin="round"/>
</g>
<defs>
<clipPath id="clip0_5303_5372">
<rect width="24" height="24" fill="white"/>
</clipPath>
</defs>
</svg>
