<svg width="24" height="24" viewBox="0 0 24 24" fill="none" xmlns="http://www.w3.org/2000/svg">
<path d="M8.65224 16.3044C8.65224 17.3565 10.1511 18.2174 12.0001 18.2174C13.849 18.2174 15.3479 17.3565 15.3479 16.3044H20.1305V5.46409C20.1305 5.04119 19.9625 4.63563 19.6634 4.33659C19.3644 4.03756 18.9589 3.86957 18.536 3.86957H5.46415C5.04125 3.86957 4.63569 4.03756 4.33665 4.33659C4.03762 4.63563 3.86963 5.04119 3.86963 5.46409V16.3044H8.65224Z" fill="#66E1FF"/>
<path d="M18.2175 3.86957H5.46415C5.04125 3.86957 4.63569 4.03756 4.33665 4.33659C4.03762 4.63563 3.86963 5.04119 3.86963 5.46409V16.3044H5.78267L18.2175 3.86957Z" fill="#C2F3FF"/>
<path d="M8.65224 16.3044C8.65224 17.3565 10.1511 18.2174 12.0001 18.2174C13.849 18.2174 15.3479 17.3565 15.3479 16.3044H20.1305V5.46409C20.1305 5.04119 19.9625 4.63563 19.6634 4.33659C19.3644 4.03756 18.9589 3.86957 18.536 3.86957H5.46415C5.04125 3.86957 4.63569 4.03756 4.33665 4.33659C4.03762 4.63563 3.86963 5.04119 3.86963 5.46409V16.3044H8.65224Z" stroke="#191919" stroke-linecap="round" stroke-linejoin="round"/>
<path d="M15.3478 16.3044C15.3478 17.3566 13.849 18.2174 12 18.2174C10.151 18.2174 8.65217 17.3566 8.65217 16.3044H1C1.27324 17.3972 1.90392 18.3673 2.7918 19.0606C3.67968 19.7538 4.7738 20.1304 5.90026 20.1305H18.0997C19.2262 20.1304 20.3203 19.7538 21.2082 19.0606C22.0961 18.3673 22.7267 17.3972 23 16.3044H15.3478Z" fill="white" stroke="#191919" stroke-linecap="round" stroke-linejoin="round"/>
<path d="M9.60889 7.69568V9.60872" stroke="#191919" stroke-linecap="round" stroke-linejoin="round"/>
<path d="M14.3911 7.69568V9.60872" stroke="#191919" stroke-linecap="round" stroke-linejoin="round"/>
<path d="M15.826 12C14.7661 12.9251 13.4068 13.4349 11.9999 13.4349C10.5931 13.4349 9.23377 12.9251 8.17383 12" stroke="#191919" stroke-linecap="round" stroke-linejoin="round"/>
</svg>
