<svg width="24" height="24" viewBox="0 0 24 24" fill="none" xmlns="http://www.w3.org/2000/svg">
<g clip-path="url(#clip0_5303_5510)">
<path d="M23 13.4362C22.7268 14.529 22.0961 15.4992 21.2082 16.1924C20.3203 16.8857 19.2262 17.2622 18.0997 17.2623H5.90026C4.77384 17.2621 3.6798 16.8854 2.79196 16.1922C1.90412 15.499 1.27339 14.529 1 13.4362H23Z" fill="white"/>
<path d="M20.1305 13.4362V2.59593C20.1305 2.17303 19.9625 1.76746 19.6635 1.46843C19.3644 1.1694 18.9589 1.0014 18.536 1.0014H5.46415C5.04126 1.0014 4.63568 1.1694 4.33665 1.46843C4.03762 1.76746 3.86963 2.17303 3.86963 2.59593V13.4362H20.1305Z" fill="#66E1FF"/>
<path d="M18.2175 1.0014H5.46415C5.04126 1.0014 4.63568 1.1694 4.33665 1.46843C4.03762 1.76746 3.86963 2.17303 3.86963 2.59593V13.4362H5.78267L18.2175 1.0014Z" fill="#C2F3FF"/>
<path d="M20.1305 11.5231V2.59593C20.1305 2.17303 19.9625 1.76746 19.6635 1.46843C19.3644 1.1694 18.9589 1.0014 18.536 1.0014H5.46415C5.04126 1.0014 4.63568 1.1694 4.33665 1.46843C4.03762 1.76746 3.86963 2.17303 3.86963 2.59593V13.4362" stroke="#191919" stroke-linecap="round" stroke-linejoin="round"/>
<path d="M11.5217 17.2623H5.90026C4.77384 17.2621 3.6798 16.8854 2.79196 16.1922C1.90412 15.499 1.27339 14.529 1 13.4362H13.4348" stroke="#191919" stroke-linecap="round" stroke-linejoin="round"/>
<path d="M18.0623 12.4797C17.9847 12.3345 17.8692 12.2131 17.728 12.1284C17.5868 12.0437 17.4253 11.999 17.2607 11.999C17.0961 11.999 16.9346 12.0437 16.7934 12.1284C16.6522 12.2131 16.5367 12.3345 16.4591 12.4797L11.623 21.6958C11.5142 21.9014 11.491 22.1416 11.5583 22.3642C11.6257 22.5868 11.7781 22.7739 11.9826 22.8847C12.1184 22.9593 12.2696 22.9995 12.4245 22.9985H22.0969C22.2514 22.9989 22.4035 22.9597 22.5386 22.8847C22.6737 22.8097 22.7874 22.7014 22.8688 22.57C22.9492 22.4394 22.9942 22.2901 22.9994 22.1368C23.0046 21.9835 22.9698 21.8315 22.8984 21.6958L18.0623 12.4797Z" fill="#FFEF5E"/>
<path d="M17.2607 12.0014C17.0962 12.0007 16.9347 12.0448 16.7934 12.1291C16.6522 12.2134 16.5366 12.3346 16.4591 12.4797L11.623 21.6958C11.5142 21.9014 11.491 22.1416 11.5583 22.3642C11.6257 22.5868 11.7781 22.7739 11.9826 22.8847C12.1184 22.9593 12.2696 22.9995 12.4245 22.9985H17.2607V12.0014Z" fill="#FFF9BF"/>
<path d="M18.0623 12.4797C17.9847 12.3345 17.8692 12.2131 17.728 12.1284C17.5868 12.0437 17.4253 11.999 17.2607 11.999C17.0961 11.999 16.9346 12.0437 16.7934 12.1284C16.6522 12.2131 16.5367 12.3345 16.4591 12.4797L11.623 21.6958C11.5142 21.9014 11.491 22.1416 11.5583 22.3642C11.6257 22.5868 11.7781 22.7739 11.9826 22.8847C12.1184 22.9593 12.2696 22.9995 12.4245 22.9985H22.0969C22.2514 22.9989 22.4035 22.9597 22.5386 22.8847C22.6737 22.8097 22.7874 22.7014 22.8688 22.57C22.9492 22.4394 22.9942 22.2901 22.9994 22.1368C23.0046 21.9835 22.9698 21.8315 22.8984 21.6958L18.0623 12.4797Z" stroke="#191919" stroke-linecap="round" stroke-linejoin="round"/>
<path d="M17.2607 18.2188V15.3492" stroke="#191919" stroke-linecap="round" stroke-linejoin="round"/>
<path d="M17.2606 20.6102C17.1972 20.6102 17.1364 20.585 17.0915 20.5401C17.0467 20.4953 17.0215 20.4345 17.0215 20.371C17.0215 20.3076 17.0467 20.2468 17.0915 20.2019C17.1364 20.1571 17.1972 20.1319 17.2606 20.1319" stroke="#191919"/>
<path d="M17.2607 20.6102C17.3242 20.6102 17.385 20.585 17.4298 20.5401C17.4747 20.4953 17.4999 20.4345 17.4999 20.371C17.4999 20.3076 17.4747 20.2468 17.4298 20.2019C17.385 20.1571 17.3242 20.1319 17.2607 20.1319" stroke="#191919"/>
</g>
<defs>
<clipPath id="clip0_5303_5510">
<rect width="24" height="24" fill="white"/>
</clipPath>
</defs>
</svg>
