<svg width="24" height="24" viewBox="0 0 24 24" fill="none" xmlns="http://www.w3.org/2000/svg">
<g clip-path="url(#clip0_5303_6457)">
<path d="M18.0579 8.65186C18.2673 8.65186 18.4746 8.6931 18.6681 8.77323C18.8616 8.85337 19.0373 8.97082 19.1854 9.11889C19.3335 9.26695 19.4509 9.44273 19.5311 9.63619C19.6112 9.82965 19.6524 10.037 19.6524 10.2464V22.0433H4.3479V10.2464C4.3479 9.8235 4.5159 9.41792 4.81493 9.11889C5.11397 8.81985 5.51954 8.65186 5.94244 8.65186H18.0579Z" fill="#66E1FF"/>
<path d="M18.7265 8.79917C18.5168 8.70154 18.2882 8.65125 18.0569 8.65186H5.94244C5.51954 8.65186 5.11397 8.81986 4.81493 9.11889C4.5159 9.41793 4.3479 9.8235 4.3479 10.2464V22.0433H5.48235L18.7265 8.79917Z" fill="#C2F3FF"/>
<path d="M12.0022 14.8697V1" stroke="#191919" stroke-linecap="round" stroke-linejoin="round"/>
<path d="M8.1759 11.0435L12.002 14.8696L15.8282 11.0435" stroke="#191919" stroke-linecap="round" stroke-linejoin="round"/>
<path d="M19.6524 19.1737V10.2464C19.6524 10.037 19.6112 9.82965 19.531 9.63619C19.4509 9.44273 19.3335 9.26695 19.1854 9.11889C19.0373 8.97082 18.8615 8.85337 18.6681 8.77323C18.4746 8.6931 18.2673 8.65186 18.0579 8.65186H14.3915" stroke="#191919" stroke-linecap="round" stroke-linejoin="round"/>
<path d="M9.60884 8.65186H5.94244C5.51954 8.65186 5.11397 8.81985 4.81493 9.11889C4.5159 9.41792 4.3479 9.8235 4.3479 10.2464V19.1737" stroke="#191919" stroke-linecap="round" stroke-linejoin="round"/>
<path d="M15.3481 19.1738C15.3481 20.226 13.8492 21.0869 12.0002 21.0869C10.1512 21.0869 8.65235 20.226 8.65235 19.1738H2.13453C2.05635 19.1738 1.97937 19.193 1.91033 19.2297C1.84129 19.2664 1.78228 19.3194 1.73848 19.3841C1.69468 19.4489 1.66743 19.5234 1.6591 19.6011C1.65076 19.6789 1.66161 19.7574 1.6907 19.83C2.06619 20.7659 2.71327 21.568 3.5486 22.133C4.38393 22.6979 5.36927 22.9999 6.37771 23H17.6218C18.6302 22.9999 19.6156 22.6979 20.4509 22.133C21.2862 21.568 21.9333 20.7659 22.3088 19.83C22.3381 19.7575 22.3492 19.6788 22.3409 19.601C22.3327 19.5232 22.3055 19.4485 22.2616 19.3837C22.2178 19.3189 22.1587 19.2658 22.0895 19.2292C22.0203 19.1926 21.9432 19.1736 21.865 19.1738H15.3481Z" fill="white" stroke="#191919" stroke-linecap="round" stroke-linejoin="round"/>
</g>
<defs>
<clipPath id="clip0_5303_6457">
<rect width="24" height="24" fill="white"/>
</clipPath>
</defs>
</svg>
