<svg width="24" height="24" viewBox="0 0 24 24" fill="none" xmlns="http://www.w3.org/2000/svg">
<g clip-path="url(#clip0_5303_8449)">
<path d="M1.43994 1.95654H22.5599V15.3478H1.43994V1.95654Z" fill="#FFEF5E"/>
<path d="M1.43994 15.3478V1.95654H22.5599L1.43994 15.3478Z" fill="#FFF9BF"/>
<path d="M1.43994 1.95654H22.5599V15.3478H1.43994V1.95654Z" stroke="#191919" stroke-linecap="round" stroke-linejoin="round"/>
<path d="M1.43994 1V23" stroke="#191919" stroke-linecap="round" stroke-linejoin="round"/>
<path d="M22.5601 1V23" stroke="#191919" stroke-linecap="round" stroke-linejoin="round"/>
<path d="M16.1312 10.0869C16.1398 10.2731 16.1104 10.4589 16.0451 10.6334C15.9797 10.8079 15.8797 10.9673 15.7509 11.102C15.6223 11.2367 15.4676 11.3439 15.2963 11.4172C15.125 11.4905 14.9407 11.5282 14.7543 11.5282C14.568 11.5282 14.3837 11.4905 14.2124 11.4172C14.041 11.3439 13.8864 11.2367 13.7577 11.102C13.629 10.9673 13.5289 10.8079 13.4636 10.6334C13.3983 10.4589 13.3689 10.2731 13.3774 10.0869V7.2174C13.3689 7.03129 13.3983 6.84539 13.4636 6.67094C13.5289 6.49648 13.629 6.33709 13.7577 6.20238C13.8864 6.06767 14.041 5.96046 14.2124 5.8872C14.3837 5.81395 14.568 5.77618 14.7543 5.77618C14.9407 5.77618 15.125 5.81395 15.2963 5.8872C15.4676 5.96046 15.6223 6.06767 15.7509 6.20238C15.8797 6.33709 15.9797 6.49648 16.0451 6.67094C16.1104 6.84539 16.1398 7.03129 16.1312 7.2174V10.0869Z" stroke="#191919" stroke-linecap="round" stroke-linejoin="round"/>
<path d="M10.6215 7.69567V7.2174C10.63 7.03129 10.6006 6.84539 10.5353 6.67094C10.47 6.49648 10.3699 6.33709 10.2412 6.20238C10.1125 6.06767 9.95782 5.96046 9.78653 5.8872C9.61522 5.81395 9.43086 5.77618 9.24456 5.77618C9.05826 5.77618 8.87389 5.81395 8.70259 5.8872C8.5313 5.96046 8.37663 6.06767 8.24794 6.20238C8.11924 6.33709 8.01919 6.49648 7.95383 6.67094C7.88846 6.84539 7.85914 7.03129 7.86765 7.2174V10.0869C7.85914 10.2731 7.88846 10.4589 7.95383 10.6334C8.01919 10.8079 8.11924 10.9673 8.24794 11.102C8.37663 11.2367 8.5313 11.3439 8.70259 11.4172C8.87389 11.4905 9.05826 11.5282 9.24456 11.5282C9.43086 11.5282 9.61522 11.4905 9.78653 11.4172C9.95782 11.3439 10.1125 11.2367 10.2412 11.102C10.3699 10.9673 10.47 10.8079 10.5353 10.6334C10.6006 10.4589 10.63 10.2731 10.6215 10.0869V9.60871H9.70417" stroke="#191919" stroke-linecap="round" stroke-linejoin="round"/>
</g>
<defs>
<clipPath id="clip0_5303_8449">
<rect width="24" height="24" fill="white"/>
</clipPath>
</defs>
</svg>
