<svg width="24" height="24" viewBox="0 0 24 24" fill="none" xmlns="http://www.w3.org/2000/svg">
<g clip-path="url(#clip0_5303_9782)">
<path d="M23 23V18.7607C23.0005 18.689 22.9849 18.6182 22.9543 18.5534C22.9237 18.4886 22.8789 18.4315 22.8232 18.3864C22.7675 18.3413 22.7024 18.3093 22.6326 18.2928C22.5629 18.2763 22.4903 18.2757 22.4203 18.291C21.1386 18.6421 20.9483 20.1304 19.3289 20.1304C17.4933 20.1304 17.4933 18.2174 15.6577 18.2174C13.8222 18.2174 13.825 20.1304 11.9923 20.1304C10.1596 20.1304 10.1606 18.2174 8.32887 18.2174C6.49713 18.2174 6.49713 20.1304 4.66444 20.1304C3.04887 20.1304 2.85853 18.643 1.57966 18.291C1.50968 18.2758 1.43719 18.2766 1.36753 18.2932C1.29787 18.3097 1.23282 18.3417 1.17718 18.3868C1.12155 18.4319 1.07674 18.4889 1.04608 18.5536C1.01541 18.6183 0.999662 18.6891 1.00001 18.7607V23" fill="#66E1FF"/>
<path d="M23 23V18.7607C23.0005 18.689 22.9849 18.6182 22.9543 18.5534C22.9237 18.4886 22.8789 18.4315 22.8232 18.3864C22.7675 18.3413 22.7024 18.3093 22.6326 18.2928C22.5629 18.2763 22.4903 18.2757 22.4203 18.291C21.1386 18.6421 20.9483 20.1304 19.3289 20.1304C17.4933 20.1304 17.4933 18.2174 15.6577 18.2174C13.8222 18.2174 13.825 20.1304 11.9923 20.1304C10.1596 20.1304 10.1606 18.2174 8.32887 18.2174C6.49713 18.2174 6.49713 20.1304 4.66444 20.1304C3.04887 20.1304 2.85853 18.643 1.57966 18.291C1.50968 18.2758 1.43719 18.2766 1.36753 18.2932C1.29787 18.3097 1.23282 18.3417 1.17718 18.3868C1.12155 18.4319 1.07674 18.4889 1.04608 18.5536C1.01541 18.6183 0.999662 18.6891 1.00001 18.7607V23" stroke="#191919" stroke-linecap="round" stroke-linejoin="round"/>
<path d="M22.0433 6.73913L22.0337 6.7506C21.6997 7.19323 21.4603 7.69981 21.3303 8.23887C21.2003 8.77792 21.1825 9.33795 21.278 9.88417C21.4942 10.6958 21.4558 11.5543 21.168 12.3434L20.5377 13.9197C20.4154 14.247 20.1818 14.5208 19.8778 14.6931C19.5738 14.8654 19.2189 14.9251 18.8753 14.8619C18.671 14.8181 18.4788 14.7302 18.312 14.6044C18.1453 14.4786 18.008 14.3179 17.9098 14.1335C17.8116 13.9491 17.7549 13.7455 17.7435 13.537C17.7322 13.3284 17.7665 13.1198 17.8441 12.9259L18.4037 11.5275C18.5424 11.1793 18.5625 10.7938 18.4592 10.4332L18.354 10.0649C18.2778 9.79633 18.1364 9.55071 17.9424 9.34997C17.7484 9.14922 17.5077 8.99957 17.2418 8.91436C16.9759 8.82914 16.6931 8.811 16.4185 8.86155C16.144 8.9121 15.8861 9.02977 15.668 9.20408L13.755 10.7345C12.7878 11.5076 12.0649 12.5441 11.6736 13.7189L10.9696 15.8261C10.91 16.0048 10.8158 16.1701 10.6923 16.3124C10.5688 16.4547 10.4186 16.5714 10.25 16.6556C10.0815 16.7399 9.89799 16.7901 9.71005 16.8034C9.5221 16.8168 9.33336 16.7929 9.15461 16.7333C8.97587 16.6737 8.81061 16.5795 8.66828 16.456C8.52595 16.3326 8.40933 16.1823 8.32509 16.0137C8.24084 15.8452 8.19061 15.6617 8.17728 15.4738C8.16394 15.2858 8.18775 15.0971 8.24735 14.9183L8.94848 12.814C9.49805 11.1682 10.499 9.70985 11.8372 8.6053C10.7858 8.71214 9.7599 8.99473 8.80214 9.4413C8.23541 9.77484 7.76388 10.2484 7.43275 10.8165C7.10161 11.3846 6.92199 12.0283 6.9111 12.6858C6.88357 13.0655 6.70636 13.4186 6.41845 13.6676C6.13054 13.9166 5.75552 14.041 5.37588 14.0135C4.99624 13.9859 4.64308 13.8087 4.3941 13.5208C4.14512 13.2329 4.0207 12.8579 4.04823 12.4783C4.13355 11.2827 4.48306 10.1209 5.07157 9.0767C5.66009 8.0325 6.47293 7.13187 7.45153 6.43973L3.03719 7.91182C2.83864 7.97805 2.628 8.00004 2.42006 7.97625C2.21211 7.95245 2.01189 7.88345 1.83343 7.77408C1.65498 7.66471 1.50261 7.51762 1.38702 7.34313C1.27144 7.16864 1.19542 6.97097 1.16432 6.764C1.12302 6.41825 1.20425 6.06898 1.39387 5.77694C1.58349 5.4849 1.86951 5.26859 2.20214 5.16565L6.43475 3.47643C9.24805 2.31815 12.2834 1.79902 15.3218 1.95652C16.3407 1.94923 17.3302 1.61382 18.1435 1" fill="#FFDDA1"/>
<path d="M22.0433 6.73913L22.0337 6.7506C21.6997 7.19323 21.4603 7.69981 21.3303 8.23887C21.2003 8.77792 21.1825 9.33795 21.278 9.88417C21.4942 10.6958 21.4558 11.5543 21.168 12.3434L20.5377 13.9197C20.4154 14.247 20.1818 14.5208 19.8778 14.6931C19.5738 14.8654 19.2189 14.9251 18.8753 14.8619C18.671 14.8181 18.4788 14.7302 18.312 14.6044C18.1453 14.4786 18.008 14.3179 17.9098 14.1335C17.8116 13.9491 17.7549 13.7455 17.7435 13.537C17.7322 13.3284 17.7665 13.1198 17.8441 12.9259L18.4037 11.5275C18.5424 11.1793 18.5625 10.7938 18.4592 10.4332L18.354 10.0649C18.2778 9.79633 18.1364 9.55071 17.9424 9.34997C17.7484 9.14922 17.5077 8.99957 17.2418 8.91436C16.9759 8.82914 16.6931 8.811 16.4185 8.86155C16.144 8.9121 15.8861 9.02977 15.668 9.20408L13.755 10.7345C12.7878 11.5076 12.0649 12.5441 11.6736 13.7189L10.9696 15.8261C10.91 16.0048 10.8158 16.1701 10.6923 16.3124C10.5688 16.4547 10.4186 16.5714 10.25 16.6556C10.0815 16.7399 9.89799 16.7901 9.71005 16.8034C9.5221 16.8168 9.33336 16.7929 9.15461 16.7333C8.97587 16.6737 8.81061 16.5795 8.66828 16.456C8.52595 16.3326 8.40933 16.1823 8.32509 16.0137C8.24084 15.8452 8.19061 15.6617 8.17728 15.4738C8.16394 15.2858 8.18775 15.0971 8.24735 14.9183L8.94848 12.814C9.49805 11.1682 10.499 9.70985 11.8372 8.6053C10.7858 8.71214 9.7599 8.99473 8.80214 9.4413C8.23541 9.77484 7.76388 10.2484 7.43275 10.8165C7.10161 11.3846 6.92199 12.0283 6.9111 12.6858C6.88357 13.0655 6.70636 13.4186 6.41845 13.6676C6.13054 13.9166 5.75552 14.041 5.37588 14.0135C4.99624 13.9859 4.64308 13.8087 4.3941 13.5208C4.14512 13.2329 4.0207 12.8579 4.04823 12.4783C4.13355 11.2827 4.48306 10.1209 5.07157 9.0767C5.66009 8.0325 6.47293 7.13187 7.45153 6.43973L3.03719 7.91182C2.83864 7.97805 2.628 8.00004 2.42006 7.97625C2.21211 7.95245 2.01189 7.88345 1.83343 7.77408C1.65498 7.66471 1.50261 7.51762 1.38702 7.34313C1.27144 7.16864 1.19542 6.97097 1.16432 6.764C1.12302 6.41825 1.20425 6.06898 1.39387 5.77694C1.58349 5.4849 1.86951 5.26859 2.20214 5.16565L6.43475 3.47643C9.24805 2.31815 12.2834 1.79902 15.3218 1.95652C16.3407 1.94923 17.3302 1.61382 18.1435 1" stroke="#191919" stroke-linecap="round" stroke-linejoin="round"/>
<path d="M7.45215 6.43971C8.15015 6.00197 8.93704 5.72552 9.75545 5.63049" stroke="#191919" stroke-linecap="round" stroke-linejoin="round"/>
</g>
<defs>
<clipPath id="clip0_5303_9782">
<rect width="24" height="24" fill="white"/>
</clipPath>
</defs>
</svg>
