<svg width="24" height="24" viewBox="0 0 24 24" fill="none" xmlns="http://www.w3.org/2000/svg">
<g clip-path="url(#clip0_5303_4504)">
<mask id="mask0_5303_4504" style="mask-type:luminance" maskUnits="userSpaceOnUse" x="0" y="0" width="24" height="24">
<path d="M0 0H24V24H0V0Z" fill="white"/>
</mask>
<g mask="url(#mask0_5303_4504)">
<path d="M17.2977 14.817L22.6923 17.1611C23.0535 17.3182 23.1092 17.8077 22.7925 18.0419C22.7614 18.065 22.7277 18.0843 22.6923 18.0998L12.2063 22.662C12.0757 22.7191 11.9273 22.7191 11.7968 22.662L1.30769 18.1018C0.946459 17.9447 0.890733 17.4554 1.20752 17.221C1.23862 17.1981 1.27226 17.1786 1.30769 17.1632L6.70224 14.817" fill="#FFEF5E"/>
<path d="M17.2977 9.18707L22.6923 11.5312C23.0535 11.6884 23.1092 12.1777 22.7925 12.412C22.7614 12.435 22.7277 12.4544 22.6923 12.4699L12.2063 17.0322C12.0757 17.0891 11.9273 17.0891 11.7968 17.0322L1.30769 12.4719C0.946459 12.3147 0.890733 11.8254 1.20752 11.5911C1.23862 11.5681 1.27226 11.5486 1.30769 11.5332L6.70224 9.18707" fill="#66E1FF"/>
<path d="M12.2062 11.3971C12.0755 11.4534 11.9274 11.4534 11.7967 11.3971L1.3076 6.83681C0.947497 6.67696 0.895529 6.18726 1.21401 5.95534C1.24323 5.93401 1.27462 5.91587 1.3076 5.90121L11.7947 1.33795C11.9252 1.28091 12.0736 1.28091 12.2041 1.33795L22.6922 5.90121C23.0534 6.05843 23.1092 6.54775 22.7924 6.78202C22.7613 6.80504 22.7276 6.8245 22.6922 6.83991L12.2062 11.3971Z" fill="#FF808C"/>
<path d="M17.2977 14.817L22.6923 17.1611C23.0535 17.3182 23.1092 17.8077 22.7925 18.0419C22.7614 18.065 22.7277 18.0843 22.6923 18.0998L12.2063 22.662C12.0757 22.7191 11.9273 22.7191 11.7968 22.662L1.30769 18.1018C0.946459 17.9447 0.890733 17.4554 1.20752 17.221C1.23862 17.1981 1.27226 17.1786 1.30769 17.1632L6.70224 14.817" stroke="#191919" stroke-linecap="round" stroke-linejoin="round"/>
<path d="M17.2977 9.18707L22.6923 11.5312C23.0535 11.6884 23.1092 12.1777 22.7925 12.412C22.7614 12.435 22.7277 12.4544 22.6923 12.4699L12.2063 17.0322C12.0757 17.0891 11.9273 17.0891 11.7968 17.0322L1.30769 12.4719C0.946459 12.3147 0.890733 11.8254 1.20752 11.5911C1.23862 11.5681 1.27226 11.5486 1.30769 11.5332L6.70224 9.18707" stroke="#191919" stroke-linecap="round" stroke-linejoin="round"/>
<path d="M12.2062 11.3971C12.0755 11.4534 11.9274 11.4534 11.7967 11.3971L1.3076 6.83681C0.947497 6.67696 0.895529 6.18726 1.21401 5.95534C1.24323 5.93401 1.27462 5.91587 1.3076 5.90121L11.7947 1.33795C11.9252 1.28091 12.0736 1.28091 12.2041 1.33795L22.6922 5.90121C23.0534 6.05843 23.1092 6.54775 22.7924 6.78202C22.7613 6.80504 22.7276 6.8245 22.6922 6.83991L12.2062 11.3971Z" stroke="#191919" stroke-linecap="round" stroke-linejoin="round"/>
</g>
</g>
<defs>
<clipPath id="clip0_5303_4504">
<rect width="24" height="24" fill="white"/>
</clipPath>
</defs>
</svg>
