<svg width="24" height="24" viewBox="0 0 24 24" fill="none" xmlns="http://www.w3.org/2000/svg">
<path d="M1.68848 7.31308V21.3739C1.68848 21.8917 2.10813 22.3113 2.62586 22.3113H8.25025V7.31308H1.68848Z" fill="#66E1FF"/>
<path d="M15.7495 7.31308V22.3113H21.3739C21.8916 22.3113 22.3113 21.8917 22.3113 21.3739V7.31308H15.7495Z" fill="#66E1FF"/>
<path d="M15.7496 7.31308H8.25049V22.3113H15.7496V7.31308Z" fill="white"/>
<path d="M21.3737 1.68869H2.62586C2.10813 1.68869 1.68848 2.10834 1.68848 2.62607V7.31308H22.3111V2.62607C22.3111 2.10843 21.8914 1.68869 21.3737 1.68869Z" fill="white"/>
<path d="M22.3111 4.50085H1.68848V7.3131H22.3111V4.50085Z" fill="#E4F1F5"/>
<path d="M21.3737 1.68869H2.62586C2.10813 1.68869 1.68848 2.10834 1.68848 2.62607V7.31308H22.3111V2.62607C22.3111 2.10843 21.8914 1.68869 21.3737 1.68869Z" stroke="#191919" stroke-linecap="round" stroke-linejoin="round"/>
<path d="M1.68848 7.31308V21.3739C1.68848 21.8917 2.10813 22.3113 2.62586 22.3113H8.25025V7.31308H1.68848Z" stroke="#191919" stroke-linecap="round" stroke-linejoin="round"/>
<path d="M15.7495 7.31308V22.3113H21.3739C21.8916 22.3113 22.3113 21.8917 22.3113 21.3739V7.31308H15.7495Z" stroke="#191919" stroke-linecap="round" stroke-linejoin="round"/>
<path d="M15.7496 7.31308H8.25049V22.3113H15.7496V7.31308Z" stroke="#191919" stroke-linecap="round" stroke-linejoin="round"/>
</svg>
