<svg width="24" height="24" viewBox="0 0 24 24" fill="none" xmlns="http://www.w3.org/2000/svg">
<path d="M2.62586 1.68872C2.10813 1.68872 1.68848 2.10837 1.68848 2.6261V21.374C1.68848 21.8917 2.10813 22.3113 2.62586 22.3113H7.31287V1.68872H2.62586Z" fill="#66E1FF"/>
<path d="M7.31287 4.50087V1.68872H2.62586C2.10813 1.68872 1.68848 2.10837 1.68848 2.6261V4.50087H7.31287Z" fill="#C2F3FF"/>
<path d="M21.3738 1.68872H7.31299V22.3113H21.3738C21.8916 22.3113 22.3112 21.8917 22.3112 21.374V2.6261C22.3112 2.10846 21.8915 1.68872 21.3738 1.68872Z" fill="white"/>
<path d="M22.3112 4.50087V2.6261C22.3112 2.10846 21.8915 1.68872 21.3738 1.68872H7.31299V4.50087H22.3112Z" fill="white"/>
<path d="M22.3112 11.9972H7.31299" stroke="#191919" stroke-linecap="round" stroke-linejoin="round"/>
<path d="M2.62586 1.68872C2.10813 1.68872 1.68848 2.10837 1.68848 2.6261V21.374C1.68848 21.8917 2.10813 22.3113 2.62586 22.3113H7.31287V1.68872H2.62586Z" stroke="#191919" stroke-linecap="round" stroke-linejoin="round"/>
<path d="M21.3738 1.68872H7.31299V22.3113H21.3738C21.8916 22.3113 22.3112 21.8917 22.3112 21.374V2.6261C22.3112 2.10846 21.8915 1.68872 21.3738 1.68872Z" stroke="#191919" stroke-linecap="round" stroke-linejoin="round"/>
</svg>
