<svg width="24" height="24" viewBox="0 0 24 24" fill="none" xmlns="http://www.w3.org/2000/svg">
<path d="M10.6252 21.625C10.6252 21.8681 10.5285 22.1013 10.3567 22.2732C10.1848 22.445 9.95161 22.5417 9.7085 22.5417H2.37516C2.13204 22.5417 1.89889 22.445 1.72698 22.2732C1.55507 22.1013 1.4585 21.8681 1.4585 21.625V14.2917C1.4585 14.0486 1.55507 13.8154 1.72698 13.6435C1.89889 13.4716 2.13204 13.375 2.37516 13.375H9.7085C9.95161 13.375 10.1848 13.4716 10.3567 13.6435C10.5285 13.8154 10.6252 14.0486 10.6252 14.2917V21.625Z" fill="white"/>
<path d="M10.6252 16.125V14.2917C10.6252 14.0486 10.5285 13.8154 10.3567 13.6435C10.1848 13.4716 9.95161 13.375 9.7085 13.375H2.37516C2.13204 13.375 1.89889 13.4716 1.72698 13.6435C1.55507 13.8154 1.4585 14.0486 1.4585 14.2917V16.125H10.6252Z" fill="#E4F1F5"/>
<path d="M10.6252 9.70831C10.6252 9.95143 10.5285 10.1846 10.3567 10.3565C10.1848 10.5284 9.95161 10.625 9.7085 10.625H2.37516C2.13204 10.625 1.89889 10.5284 1.72698 10.3565C1.55507 10.1846 1.4585 9.95143 1.4585 9.70831V2.37498C1.4585 2.13186 1.55507 1.89871 1.72698 1.7268C1.89889 1.55489 2.13204 1.45831 2.37516 1.45831H9.7085C9.95161 1.45831 10.1848 1.55489 10.3567 1.7268C10.5285 1.89871 10.6252 2.13186 10.6252 2.37498V9.70831Z" fill="white"/>
<path d="M10.6252 4.20831V2.37498C10.6252 2.13186 10.5285 1.89871 10.3567 1.7268C10.1848 1.55489 9.95161 1.45831 9.7085 1.45831H2.37516C2.13204 1.45831 1.89889 1.55489 1.72698 1.7268C1.55507 1.89871 1.4585 2.13186 1.4585 2.37498V4.20831H10.6252Z" fill="#E4F1F5"/>
<path d="M10.6252 21.625C10.6252 21.8681 10.5285 22.1013 10.3567 22.2732C10.1848 22.445 9.95161 22.5417 9.7085 22.5417H2.37516C2.13204 22.5417 1.89889 22.445 1.72698 22.2732C1.55507 22.1013 1.4585 21.8681 1.4585 21.625V14.2917C1.4585 14.0486 1.55507 13.8154 1.72698 13.6435C1.89889 13.4716 2.13204 13.375 2.37516 13.375H9.7085C9.95161 13.375 10.1848 13.4716 10.3567 13.6435C10.5285 13.8154 10.6252 14.0486 10.6252 14.2917V21.625Z" stroke="#191919" stroke-linecap="round" stroke-linejoin="round"/>
<path d="M13.3721 3.289H22.5387" stroke="#191919" stroke-linecap="round" stroke-linejoin="round"/>
<path d="M13.3721 6.039H22.5387" stroke="#191919" stroke-linecap="round" stroke-linejoin="round"/>
<path d="M13.3721 8.789H22.5387" stroke="#191919" stroke-linecap="round" stroke-linejoin="round"/>
<path d="M13.3721 15.2057H22.5387" stroke="#191919" stroke-linecap="round" stroke-linejoin="round"/>
<path d="M13.3721 17.9557H22.5387" stroke="#191919" stroke-linecap="round" stroke-linejoin="round"/>
<path d="M13.3721 20.7057H22.5387" stroke="#191919" stroke-linecap="round" stroke-linejoin="round"/>
<path d="M10.6252 9.70831C10.6252 9.95143 10.5285 10.1846 10.3567 10.3565C10.1848 10.5284 9.95161 10.625 9.7085 10.625H2.37516C2.13204 10.625 1.89889 10.5284 1.72698 10.3565C1.55507 10.1846 1.4585 9.95143 1.4585 9.70831V2.37498C1.4585 2.13186 1.55507 1.89871 1.72698 1.7268C1.89889 1.55489 2.13204 1.45831 2.37516 1.45831H9.7085C9.95161 1.45831 10.1848 1.55489 10.3567 1.7268C10.5285 1.89871 10.6252 2.13186 10.6252 2.37498V9.70831Z" stroke="#191919" stroke-linecap="round" stroke-linejoin="round"/>
</svg>
