<svg width="24" height="24" viewBox="0 0 24 24" fill="none" xmlns="http://www.w3.org/2000/svg">
<g clip-path="url(#clip0_5303_3860)">
<path d="M1.99999 1C1.73479 1 1.48044 1.10532 1.29288 1.29288C1.10532 1.48044 1 1.73479 1 1.99999V22C1 22.2652 1.10532 22.5195 1.29288 22.7071C1.48044 22.8946 1.73479 23 1.99999 23H8.00002V1H1.99999Z" fill="#66E1FF"/>
<path d="M8.00002 3.99997V1H1.99999C1.73479 1 1.48044 1.10532 1.29288 1.29288C1.10532 1.48044 1 1.73479 1 1.99999V3.99997H8.00002Z" fill="#C2F3FF"/>
<path d="M21.9999 1H8V23H21.9999C22.2651 23 22.5195 22.8946 22.7071 22.7071C22.8946 22.5196 22.9999 22.2652 22.9999 22V1.99999C22.9999 1.73479 22.8945 1.48044 22.7071 1.29288C22.5195 1.10532 22.2651 1 21.9999 1Z" fill="white"/>
<path d="M22.9999 3.99997V1.99999C22.9999 1.73479 22.8945 1.48044 22.7071 1.29288C22.5195 1.10532 22.2651 1 21.9999 1H8V3.99997H22.9999Z" fill="white"/>
<path d="M1.99999 1C1.73479 1 1.48044 1.10532 1.29288 1.29288C1.10532 1.48044 1 1.73479 1 1.99999V22C1 22.2652 1.10532 22.5195 1.29288 22.7071C1.48044 22.8946 1.73479 23 1.99999 23H8.00002V1H1.99999Z" stroke="#191919" stroke-linecap="round" stroke-linejoin="round"/>
<path d="M21.9999 1H8V23H21.9999C22.2651 23 22.5195 22.8946 22.7071 22.7071C22.8946 22.5196 22.9999 22.2652 22.9999 22V1.99999C22.9999 1.73479 22.8945 1.48044 22.7071 1.29288C22.5195 1.10532 22.2651 1 21.9999 1Z" stroke="#191919" stroke-linecap="round" stroke-linejoin="round"/>
</g>
<defs>
<clipPath id="clip0_5303_3860">
<rect width="24" height="24" fill="white"/>
</clipPath>
</defs>
</svg>
