<svg width="24" height="24" viewBox="0 0 24 24" fill="none" xmlns="http://www.w3.org/2000/svg">
<g clip-path="url(#clip0_5303_10666)">
<path d="M4.7462 1.00001C4.59294 0.999995 4.44192 1.0368 4.30584 1.10734C4.16978 1.17788 4.05265 1.28008 3.96433 1.40534C3.87602 1.5306 3.81909 1.67525 3.79835 1.8271C3.77761 1.97895 3.79366 2.13357 3.84516 2.27792L5.55351 7.06053C5.61982 7.24642 5.74202 7.40725 5.90333 7.52096C6.06464 7.63466 6.25718 7.69569 6.45455 7.69566H17.5454C17.7428 7.69569 17.9353 7.63466 18.0967 7.52096C18.2579 7.40725 18.3802 7.24642 18.4465 7.06053L20.1548 2.27792C20.2065 2.13319 20.2224 1.97814 20.2015 1.82591C20.1804 1.67368 20.1232 1.52875 20.0343 1.40338C19.9454 1.27801 19.8277 1.17589 19.6909 1.10568C19.5542 1.03547 19.4027 0.999226 19.249 1.00001H4.7462Z" fill="#808080"/>
<path d="M16.3016 7.69568H7.69287V11.5217H16.3016V7.69568Z" fill="#6B6B6B"/>
<path d="M8.64941 21.087V22.0435C8.64941 22.2972 8.75019 22.5405 8.92957 22.7198C9.10896 22.8992 9.35225 23 9.60594 23H14.3885C14.6422 23 14.8856 22.8992 15.0649 22.7198C15.2442 22.5405 15.3451 22.2972 15.3451 22.0435V21.087H8.64941Z" fill="#6B6B6B"/>
<path d="M17.258 11.5219H6.73631C6.20804 11.5219 5.77979 11.9501 5.77979 12.4784V20.1306C5.77979 20.6588 6.20804 21.0871 6.73631 21.0871H17.258C17.7863 21.0871 18.2146 20.6588 18.2146 20.1306V12.4784C18.2146 11.9501 17.7863 11.5219 17.258 11.5219Z" fill="#808080"/>
<path d="M16.3016 7.69568H7.69287V11.5217H16.3016V7.69568Z" stroke="#191919" stroke-linecap="round" stroke-linejoin="round"/>
<path d="M8.64941 21.087V22.0435C8.64941 22.2972 8.75019 22.5405 8.92957 22.7198C9.10896 22.8992 9.35225 23 9.60594 23H14.3885C14.6422 23 14.8856 22.8992 15.0649 22.7198C15.2442 22.5405 15.3451 22.2972 15.3451 22.0435V21.087H8.64941Z" stroke="#191919" stroke-linecap="round" stroke-linejoin="round"/>
<path d="M17.258 11.5219H6.73631C6.20804 11.5219 5.77979 11.9501 5.77979 12.4784V20.1306C5.77979 20.6588 6.20804 21.0871 6.73631 21.0871H17.258C17.7863 21.0871 18.2146 20.6588 18.2146 20.1306V12.4784C18.2146 11.9501 17.7863 11.5219 17.258 11.5219Z" stroke="#191919" stroke-linecap="round" stroke-linejoin="round"/>
<path d="M4.7462 1.00001C4.59294 0.999995 4.44192 1.0368 4.30584 1.10734C4.16978 1.17788 4.05265 1.28008 3.96433 1.40534C3.87602 1.5306 3.81909 1.67525 3.79835 1.8271C3.77761 1.97895 3.79366 2.13357 3.84516 2.27792L5.55351 7.06053C5.61982 7.24642 5.74202 7.40725 5.90333 7.52096C6.06464 7.63466 6.25718 7.69569 6.45455 7.69566H17.5454C17.7428 7.69569 17.9353 7.63466 18.0967 7.52096C18.2579 7.40725 18.3802 7.24642 18.4465 7.06053L20.1548 2.27792C20.2065 2.13319 20.2224 1.97814 20.2015 1.82591C20.1804 1.67368 20.1232 1.52875 20.0343 1.40338C19.9454 1.27801 19.8277 1.17589 19.6909 1.10568C19.5542 1.03547 19.4027 0.999226 19.249 1.00001H4.7462Z" stroke="#191919" stroke-linecap="round" stroke-linejoin="round"/>
<path d="M7.69287 13.4348V18.2174" stroke="#191919" stroke-linecap="round" stroke-linejoin="round"/>
<path d="M10.5625 13.4348V18.2174" stroke="#191919" stroke-linecap="round" stroke-linejoin="round"/>
<path d="M13.4321 13.4348V18.2174" stroke="#191919" stroke-linecap="round" stroke-linejoin="round"/>
<path d="M16.3018 13.4348V18.2174" stroke="#191919" stroke-linecap="round" stroke-linejoin="round"/>
</g>
<defs>
<clipPath id="clip0_5303_10666">
<rect width="24" height="24" fill="white"/>
</clipPath>
</defs>
</svg>
