<svg width="24" height="24" viewBox="0 0 24 24" fill="none" xmlns="http://www.w3.org/2000/svg">
<g clip-path="url(#clip0_5303_9868)">
<path d="M22.0435 1H1.95652C1.42825 1 1 1.42825 1 1.95652V22.0435C1 22.5718 1.42825 23 1.95652 23H22.0435C22.5718 23 23 22.5718 23 22.0435V1.95652C23 1.42825 22.5718 1 22.0435 1Z" fill="#808080"/>
<path d="M17.2609 23V7.2174C17.2609 7.09055 17.2105 6.9689 17.1209 6.87922C17.0312 6.78953 16.9095 6.73914 16.7827 6.73914H4.34789C4.22105 6.73914 4.0994 6.78953 4.00971 6.87922C3.92002 6.9689 3.86963 7.09055 3.86963 7.2174V23H17.2609Z" fill="#E3E3E3"/>
<path d="M10.5653 6.73914H4.34789C4.22105 6.73914 4.0994 6.78953 4.00971 6.87922C3.92002 6.9689 3.86963 7.09055 3.86963 7.2174V23H10.5653V6.73914Z" fill="white"/>
<path d="M23 3.86957V1.95652C23 1.70283 22.8992 1.45954 22.7198 1.28016C22.5405 1.10078 22.2971 1 22.0435 1H1.95652C1.70283 1 1.45954 1.10078 1.28016 1.28016C1.10078 1.45954 1 1.70283 1 1.95652V3.86957H23Z" fill="#B2B2B2"/>
<path d="M22.0435 1H1.95652C1.42825 1 1 1.42825 1 1.95652V22.0435C1 22.5718 1.42825 23 1.95652 23H22.0435C22.5718 23 23 22.5718 23 22.0435V1.95652C23 1.42825 22.5718 1 22.0435 1Z" stroke="#191919" stroke-linecap="round" stroke-linejoin="round"/>
<path d="M10.5654 23V6.73914" stroke="#191919" stroke-linecap="round" stroke-linejoin="round"/>
<path d="M17.2609 23V7.2174C17.2609 7.09055 17.2105 6.9689 17.1209 6.87922C17.0312 6.78953 16.9095 6.73914 16.7827 6.73914H4.34789C4.22105 6.73914 4.0994 6.78953 4.00971 6.87922C3.92002 6.9689 3.86963 7.09055 3.86963 7.2174V23" stroke="#191919" stroke-linecap="round" stroke-linejoin="round"/>
<path d="M20.1303 12C20.6586 12 21.0869 11.5718 21.0869 11.0435C21.0869 10.5152 20.6586 10.087 20.1303 10.087C19.6021 10.087 19.1738 10.5152 19.1738 11.0435C19.1738 11.5718 19.6021 12 20.1303 12Z" fill="#E3E3E3" stroke="#191919" stroke-linecap="round" stroke-linejoin="round"/>
<path d="M20.1303 16.7826C20.6586 16.7826 21.0869 16.3544 21.0869 15.8261C21.0869 15.2978 20.6586 14.8696 20.1303 14.8696C19.6021 14.8696 19.1738 15.2978 19.1738 15.8261C19.1738 16.3544 19.6021 16.7826 20.1303 16.7826Z" fill="#E3E3E3" stroke="#191919" stroke-linecap="round" stroke-linejoin="round"/>
<path d="M8.65234 3.86957H12.4784" stroke="#191919" stroke-linecap="round" stroke-linejoin="round"/>
</g>
<defs>
<clipPath id="clip0_5303_9868">
<rect width="24" height="24" fill="white"/>
</clipPath>
</defs>
</svg>
