<svg width="24" height="24" viewBox="0 0 24 24" fill="none" xmlns="http://www.w3.org/2000/svg">
<g clip-path="url(#clip0_5303_10505)">
<path d="M20.094 15.352L22.6841 12.7619C23.1053 12.3405 23.1053 11.6573 22.6841 11.2359L20.094 8.64586V4.98527C20.094 4.38925 19.6108 3.90608 19.0147 3.90598H15.3552L12.7652 1.31594C12.3437 0.894686 11.6606 0.894686 11.2391 1.31594L8.64909 3.90598H4.98527C4.38915 3.90598 3.90598 4.38915 3.90598 4.98527V8.64802L1.31594 11.2381C0.894686 11.6595 0.894686 12.3427 1.31594 12.7641L3.90598 15.3541V19.0147C3.90598 19.6108 4.38915 20.094 4.98527 20.094H8.64802L11.2381 22.6841C11.6595 23.1053 12.3427 23.1053 12.7641 22.6841L15.3541 20.094H19.0169C19.613 20.094 20.0962 19.6108 20.0962 19.0147L20.094 15.352Z" fill="#FFEF5E"/>
<path d="M11.4604 5.5249C15.7772 5.5249 17.9356 8.42354 17.9356 12C17.9356 15.5765 15.7772 18.4751 11.4604 18.4751V5.5249Z" fill="#FFBC44"/>
<path d="M20.094 15.352L22.6841 12.7619C23.1053 12.3405 23.1053 11.6573 22.6841 11.2359L20.094 8.64586V4.98527C20.094 4.38925 19.6108 3.90608 19.0147 3.90598H15.3552L12.7652 1.31594C12.3437 0.894686 11.6606 0.894686 11.2391 1.31594L8.64909 3.90598H4.98527C4.38915 3.90598 3.90598 4.38915 3.90598 4.98527V8.64802L1.31594 11.2381C0.894686 11.6595 0.894686 12.3427 1.31594 12.7641L3.90598 15.3541V19.0147C3.90598 19.6108 4.38915 20.094 4.98527 20.094H8.64802L11.2381 22.6841C11.6595 23.1053 12.3427 23.1053 12.7641 22.6841L15.3541 20.094H19.0169C19.613 20.094 20.0962 19.6108 20.0962 19.0147L20.094 15.352Z" stroke="#191919" stroke-linecap="round" stroke-linejoin="round"/>
<path d="M11.4604 5.5249C15.7772 5.5249 17.9356 8.42354 17.9356 12C17.9356 15.5765 15.7772 18.4751 11.4604 18.4751V5.5249Z" stroke="#191919" stroke-linecap="round" stroke-linejoin="round"/>
</g>
<defs>
<clipPath id="clip0_5303_10505">
<rect width="24" height="24" fill="white"/>
</clipPath>
</defs>
</svg>
