<svg width="24" height="24" viewBox="0 0 24 24" fill="none" xmlns="http://www.w3.org/2000/svg">
<g clip-path="url(#clip0_5303_10480)">
<path d="M19 5H4.99996C2.79091 5 1 6.79091 1 9.00006V15C1 17.2093 2.79081 19.0001 4.99996 19H19C21.2091 18.9999 23 17.2091 23 15V9.00006C23 6.79091 21.2091 5 19 5Z" fill="#66E1FF"/>
<path d="M4.99996 5C2.79091 5 1 6.79091 1 9.00006V15C1.00049 16.8927 2.32749 18.526 4.18 18.914L18.1 5H4.99996Z" fill="#C2F3FF"/>
<path d="M19 5H4.99996C2.79091 5 1 6.79091 1 9.00006V15C1 17.2093 2.79081 19.0001 4.99996 19H19C21.2091 18.9999 23 17.2091 23 15V9.00006C23 6.79091 21.2091 5 19 5Z" stroke="#191919" stroke-linecap="round" stroke-linejoin="round"/>
<path d="M16.0005 11.9999H18.0005C19.1051 11.9999 20.0005 11.1045 20.0005 9.99994C20.0005 8.89536 19.1051 8 18.0005 8H16.0005V11.9999ZM16.0005 11.9999V15.9999M16.0005 11.9999L20.0005 15.9999M8.00055 8V15.9999M4.00049 15.9999V8M4.00049 11.9999H8.00055M10.0005 8C13.0797 8 15.0042 11.3333 13.4646 13.9999C12.7502 15.2374 11.4295 15.9999 10.0005 15.9999V8Z" stroke="#191919" stroke-linecap="round" stroke-linejoin="round"/>
</g>
<defs>
<clipPath id="clip0_5303_10480">
<rect width="24" height="24" fill="white"/>
</clipPath>
</defs>
</svg>
