<svg width="24" height="24" viewBox="0 0 24 24" fill="none" xmlns="http://www.w3.org/2000/svg">
<g clip-path="url(#clip0_5303_10822)">
<path d="M19.5 16.065C19.8978 16.065 20.2794 16.223 20.5607 16.5043C20.842 16.7856 21 17.1672 21 17.565C21 17.9628 20.842 18.3444 20.5607 18.6257C20.2794 18.907 19.8978 19.065 19.5 19.065H18.5C18.8978 19.065 19.2794 19.223 19.5607 19.5043C19.842 19.7856 20 20.1672 20 20.565C20 20.9628 19.842 21.3444 19.5607 21.6257C19.2794 21.907 18.8978 22.065 18.5 22.065H12C8 22.065 9 20.065 1 20.065V11.065H4C6.03827 10.9497 7.95406 10.0547 9.35035 8.56533C10.7466 7.07597 11.5164 5.10647 11.5 3.06501C11.5 1.48401 14.5 1.28401 14.5 4.28401C14.3467 6.23786 14.0119 8.1732 13.5 10.065H21.5C21.8978 10.065 22.2794 10.223 22.5607 10.5043C22.842 10.7856 23 11.1672 23 11.565C23 11.9628 22.842 12.3444 22.5607 12.6257C22.2794 12.907 21.8978 13.065 21.5 13.065H20.5C20.8978 13.065 21.2794 13.223 21.5607 13.5043C21.842 13.7856 22 14.1672 22 14.565C22 14.9628 21.842 15.3444 21.5607 15.6257C21.2794 15.907 20.8978 16.065 20.5 16.065H19.5Z" fill="#FFDDA1" stroke="#191919" stroke-linecap="round" stroke-linejoin="round"/>
</g>
<defs>
<clipPath id="clip0_5303_10822">
<rect width="24" height="24" fill="white"/>
</clipPath>
</defs>
</svg>
