<svg width="24" height="24" viewBox="0 0 24 24" fill="none" xmlns="http://www.w3.org/2000/svg">
<path d="M22.5418 6.95831H1.4585V19.7916C1.4585 20.2778 1.65165 20.7442 1.99547 21.088C2.33928 21.4318 2.8056 21.625 3.29183 21.625H20.7085C21.1947 21.625 21.661 21.4318 22.0048 21.088C22.3487 20.7442 22.5418 20.2778 22.5418 19.7916V6.95831Z" fill="#66E1FF"/>
<path d="M3.29183 21.625H5.5835L20.2502 6.95831H1.4585V19.7916C1.4585 20.2778 1.65165 20.7442 1.99547 21.088C2.33928 21.4318 2.8056 21.625 3.29183 21.625Z" fill="#C2F3FF"/>
<path d="M22.5418 6.95831H1.4585V19.7916C1.4585 20.2778 1.65165 20.7442 1.99547 21.088C2.33928 21.4318 2.8056 21.625 3.29183 21.625H20.7085C21.1947 21.625 21.661 21.4318 22.0048 21.088C22.3487 20.7442 22.5418 20.2778 22.5418 19.7916V6.95831Z" stroke="#191919" stroke-linecap="round" stroke-linejoin="round"/>
<path d="M1.4585 6.95833V4.20833C1.4585 3.72211 1.65165 3.25579 1.99547 2.91197C2.33928 2.56815 2.8056 2.375 3.29183 2.375H20.7085C21.1947 2.375 21.661 2.56815 22.0048 2.91197C22.3487 3.25579 22.5418 3.72211 22.5418 4.20833V6.95833H1.4585Z" fill="white" stroke="#191919" stroke-linecap="round" stroke-linejoin="round"/>
<path d="M16.125 2.375V6.95833" stroke="#191919" stroke-linecap="round" stroke-linejoin="round"/>
<path d="M7.875 2.375V6.95833" stroke="#191919" stroke-linecap="round" stroke-linejoin="round"/>
<path d="M8.7915 11.5417V17.0417" stroke="#191919" stroke-linecap="round" stroke-linejoin="round"/>
<path d="M11.5415 14.2917H6.0415" stroke="#191919" stroke-linecap="round" stroke-linejoin="round"/>
<path d="M15.2083 18.4167L16.125 10.1667L13.375 12" stroke="#191919" stroke-linecap="round" stroke-linejoin="round"/>
</svg>
