<svg width="24" height="24" viewBox="0 0 24 24" fill="none" xmlns="http://www.w3.org/2000/svg">
<g clip-path="url(#clip0_5303_10741)">
<path d="M23 17.2609C23 17.5146 22.8992 17.7579 22.7198 17.9373C22.5405 18.1166 22.2972 18.2174 22.0435 18.2174H11.5217L7.69565 22.0435V18.2174H1.95652C1.70284 18.2174 1.45954 18.1166 1.28016 17.9373C1.10078 17.7579 1 17.5146 1 17.2609V2.91306C1 2.65938 1.10078 2.41608 1.28016 2.2367C1.45954 2.05732 1.70284 1.95654 1.95652 1.95654H22.0435C22.2972 1.95654 22.5405 2.05732 22.7198 2.2367C22.8992 2.41608 23 2.65938 23 2.91306V17.2609Z" fill="#66E1FF"/>
<path d="M21.6848 1.95654H1.95652C1.70284 1.95654 1.45954 2.05732 1.28016 2.2367C1.10078 2.41608 1 2.65938 1 2.91306V17.2609C1 17.5146 1.10078 17.7579 1.28016 17.9373C1.45954 18.1166 1.70284 18.2174 1.95652 18.2174H5.42391L21.6848 1.95654Z" fill="#C2F3FF"/>
<path d="M23 17.2609C23 17.5146 22.8992 17.7579 22.7198 17.9373C22.5405 18.1166 22.2972 18.2174 22.0435 18.2174H11.5217L7.69565 22.0435V18.2174H1.95652C1.70284 18.2174 1.45954 18.1166 1.28016 17.9373C1.10078 17.7579 1 17.5146 1 17.2609V2.91306C1 2.65938 1.10078 2.41608 1.28016 2.2367C1.45954 2.05732 1.70284 1.95654 1.95652 1.95654H22.0435C22.2972 1.95654 22.5405 2.05732 22.7198 2.2367C22.8992 2.41608 23 2.65938 23 2.91306V17.2609Z" stroke="#191919" stroke-linecap="round" stroke-linejoin="round"/>
<path d="M7.69629 8.65222H8.65281V15.3479H7.69629" fill="white"/>
<path d="M7.69629 8.65222H8.65281V15.3479H7.69629" stroke="#191919" stroke-linecap="round" stroke-linejoin="round"/>
<path d="M8.65332 9.1304V13.913L11.4598 15.1153C11.817 15.2686 12.2016 15.3476 12.5904 15.3477H15.6158C15.8167 15.3478 16.0124 15.2846 16.1754 15.1672C16.3383 15.0498 16.4601 14.884 16.5236 14.6935L17.7986 10.8674C17.8465 10.7237 17.8595 10.5706 17.8367 10.4209C17.8139 10.2711 17.7558 10.129 17.6672 10.0061C17.5787 9.88318 17.4622 9.78306 17.3274 9.71396C17.1926 9.64487 17.0433 9.60877 16.8918 9.60866H14.3925V5.78257C14.3925 5.52889 14.2917 5.28559 14.1123 5.10621C13.9329 4.92683 13.6896 4.82605 13.4359 4.82605C13.1822 4.82605 12.9389 4.92683 12.7596 5.10621C12.5802 5.28559 12.4794 5.52889 12.4794 5.78257C12.4794 6.22222 12.3928 6.65755 12.2246 7.06373C12.0563 7.46991 11.8097 7.83897 11.4989 8.14984C11.188 8.46072 10.8189 8.70732 10.4127 8.87556C10.0066 9.0438 9.57122 9.1304 9.13158 9.1304H8.65332Z" fill="#FFDDA1" stroke="#191919" stroke-linecap="round" stroke-linejoin="round"/>
</g>
<defs>
<clipPath id="clip0_5303_10741">
<rect width="24" height="24" fill="white"/>
</clipPath>
</defs>
</svg>
