<svg width="24" height="24" viewBox="0 0 24 24" fill="none" xmlns="http://www.w3.org/2000/svg">
<path d="M23 11.0791C23 16.0348 18.0758 20.0541 12 20.0541C10.754 20.0563 9.51394 19.8828 8.31644 19.5385C8.2055 19.5061 8.08658 19.5149 7.98165 19.5634L3.06896 21.8505C2.97899 21.8923 2.87824 21.9051 2.78067 21.8871C2.68309 21.8691 2.59353 21.8213 2.52438 21.7501C2.45523 21.679 2.40992 21.5881 2.39472 21.49C2.37952 21.392 2.3952 21.2916 2.43957 21.2029L4.1307 17.8273C4.1776 17.7323 4.19159 17.6243 4.17047 17.5204C4.14934 17.4165 4.09431 17.3226 4.014 17.2534C3.09275 16.5054 2.34578 15.5654 1.82522 14.499C1.30466 13.4327 1.02304 12.2655 1 11.0791C1 6.12237 5.92417 2.10498 12 2.10498C18.0758 2.10498 23 6.12237 23 11.0791Z" fill="#C9F7CA"/>
<path d="M12 16.383C6.72287 16.383 2.31713 13.3527 1.21713 9.30473C1.07334 9.88523 1.00043 10.481 1 11.0791C1.02344 12.2652 1.30526 13.4319 1.8258 14.4979C2.34634 15.564 3.09309 16.5036 4.014 17.2515C4.09431 17.3207 4.14934 17.4146 4.17047 17.5185C4.19159 17.6224 4.1776 17.7304 4.1307 17.8254L2.43957 21.2029C2.3952 21.2916 2.37952 21.392 2.39472 21.49C2.40992 21.5881 2.45523 21.679 2.52438 21.7501C2.59353 21.8213 2.68309 21.8691 2.78067 21.8871C2.87824 21.9051 2.97899 21.8923 3.06896 21.8505L7.98261 19.5634C8.08753 19.515 8.20646 19.5061 8.31739 19.5386C9.51496 19.8829 10.7546 20.056 12 20.0541C18.0758 20.0541 23 16.0367 23 11.0791C22.9996 10.4807 22.9267 9.88459 22.7829 9.30377C21.6829 13.3527 17.2771 16.383 12 16.383Z" fill="#78EB7B"/>
<path d="M23 11.0791C23 16.0348 18.0758 20.0541 12 20.0541C10.754 20.0563 9.51394 19.8828 8.31644 19.5385C8.2055 19.5061 8.08658 19.5149 7.98165 19.5634L3.06896 21.8505C2.97899 21.8923 2.87824 21.9051 2.78067 21.8871C2.68309 21.8691 2.59353 21.8213 2.52438 21.7501C2.45523 21.679 2.40992 21.5881 2.39472 21.49C2.37952 21.392 2.3952 21.2916 2.43957 21.2029L4.1307 17.8273C4.1776 17.7323 4.19159 17.6243 4.17047 17.5204C4.14934 17.4165 4.09431 17.3226 4.014 17.2534C3.09275 16.5054 2.34578 15.5654 1.82522 14.499C1.30466 13.4327 1.02304 12.2655 1 11.0791C1 6.12237 5.92417 2.10498 12 2.10498C18.0758 2.10498 23 6.12237 23 11.0791Z" stroke="#191919" stroke-linecap="round" stroke-linejoin="round"/>
<path d="M9.60889 7.84412V13.5832" stroke="#191919" stroke-linecap="round" stroke-linejoin="round"/>
<path d="M11.522 13.5832V7.84412L15.3481 13.5832V7.84412" stroke="#191919" stroke-linecap="round" stroke-linejoin="round"/>
<path d="M20.1303 13.5832H17.2607V7.84412H20.1303" stroke="#191919" stroke-linecap="round" stroke-linejoin="round"/>
<path d="M17.2607 10.7137H20.1303" stroke="#191919" stroke-linecap="round" stroke-linejoin="round"/>
<path d="M4.82617 7.84412V13.5832H7.69574" stroke="#191919" stroke-linecap="round" stroke-linejoin="round"/>
</svg>
