<svg width="24" height="24" viewBox="0 0 24 24" fill="none" xmlns="http://www.w3.org/2000/svg">
<path d="M12 6.04163L9.25 5.58329L7.875 4.20829L12 3.29163L16.125 4.20829L14.75 5.58329L12 6.04163Z" fill="#FFEF5E"/>
<path d="M12 17.9584L9.25 18.4167L7.875 19.7917L12 20.7084L16.125 19.7917L14.75 18.4167L12 17.9584Z" fill="#FFEF5E"/>
<path d="M14.75 7.875H18.875C19.8466 7.87791 20.7775 8.26514 21.4645 8.95215C22.1515 9.63915 22.5387 10.5701 22.5417 11.5417V12.4583C22.5387 13.4299 22.1515 14.3609 21.4645 15.0478C20.7775 15.7349 19.8466 16.1221 18.875 16.125H14.75" stroke="#191919" stroke-linecap="round" stroke-linejoin="round"/>
<path d="M9.25016 7.875H5.12516C4.1536 7.87791 3.22265 8.26514 2.53564 8.95215C1.84864 9.63915 1.4614 10.5701 1.4585 11.5417V12.4583C1.4614 13.4299 1.84864 14.3609 2.53564 15.0478C3.22265 15.7349 4.1536 16.1221 5.12516 16.125H9.25016" stroke="#191919" stroke-linecap="round" stroke-linejoin="round"/>
<path d="M12 6.04163V3.29163" stroke="#191919" stroke-linecap="round" stroke-linejoin="round"/>
<path d="M14.75 5.58337L16.125 4.20837" stroke="#191919" stroke-linecap="round" stroke-linejoin="round"/>
<path d="M9.25 5.58337L7.875 4.20837" stroke="#191919" stroke-linecap="round" stroke-linejoin="round"/>
<path d="M12 17.9584V20.7084" stroke="#191919" stroke-linecap="round" stroke-linejoin="round"/>
<path d="M14.75 18.4166L16.125 19.7916" stroke="#191919" stroke-linecap="round" stroke-linejoin="round"/>
<path d="M9.25 18.4166L7.875 19.7916" stroke="#191919" stroke-linecap="round" stroke-linejoin="round"/>
<path d="M9.24984 9.70833C9.24984 9.58677 9.20155 9.47019 9.11559 9.38425C9.02964 9.29829 8.91306 9.25 8.7915 9.25H5.58317C4.97538 9.25 4.39248 9.49144 3.96271 9.92121C3.53294 10.351 3.2915 10.9339 3.2915 11.5417V12.4583C3.2915 13.0661 3.53294 13.649 3.96271 14.0788C4.39248 14.5085 4.97538 14.75 5.58317 14.75H8.7915C8.91306 14.75 9.02964 14.7017 9.11559 14.6158C9.20155 14.5298 9.24984 14.4132 9.24984 14.2917V9.70833Z" fill="#C2F3FF"/>
<path d="M18.875 9.25H15.2083C15.0868 9.25 14.9702 9.29829 14.8842 9.38425C14.7983 9.47019 14.75 9.58677 14.75 9.70833V14.2917C14.75 14.4132 14.7983 14.5298 14.8842 14.6158C14.9702 14.7017 15.0868 14.75 15.2083 14.75H18.875C19.4827 14.75 20.0657 14.5085 20.4955 14.0788C20.9252 13.649 21.1667 13.0661 21.1667 12.4583V11.5417C21.1667 10.9339 20.9252 10.351 20.4955 9.92121C20.0657 9.49144 19.4827 9.25 18.875 9.25Z" fill="#C2F3FF"/>
</svg>
