<svg width="24" height="24" viewBox="0 0 24 24" fill="none" xmlns="http://www.w3.org/2000/svg">
<path d="M6.23957 8.86163H1.00195V22.4793H6.23957V8.86163Z" fill="#66E1FF"/>
<path d="M15.6675 13.0517C14.5105 13.0516 13.5725 13.9896 13.5725 15.1467V22.4793H8.33496V8.86156H13.5725V10.4171C14.7419 9.42613 16.2195 8.87243 17.7521 8.85107C20.8549 8.85107 23.0002 11.1556 23.0002 15.5081V22.4793H17.7626V15.1467C17.7626 13.9896 16.8246 13.0517 15.6675 13.0517Z" fill="#66E1FF"/>
<path d="M3.62106 6.7667C5.63694 6.77062 6.9012 4.59072 5.89659 2.84292C5.42853 2.02869 4.56022 1.52732 3.62106 1.52918C1.60508 1.5331 0.349349 3.7178 1.36072 5.46178C1.82829 6.26797 2.68906 6.76494 3.62106 6.7667Z" fill="#66E1FF"/>
<path d="M6.23957 8.86163H1.00195V10.9724H6.23957V8.86163Z" fill="#C2F3FF"/>
<path d="M17.7521 8.85107C16.2196 8.87234 14.7421 9.42554 13.5725 10.4161V8.86156H8.33496V10.9723H12.0169C12.876 10.9724 13.5725 11.6688 13.5725 12.5278C14.7419 11.5369 16.2195 10.9832 17.7521 10.9619C20.8549 10.9619 23.0002 13.2611 23.0002 17.6188V15.5081C23.0002 11.1504 20.8549 8.85107 17.7521 8.85107Z" fill="#C2F3FF"/>
<path d="M3.62095 3.63976C4.6578 3.64093 5.59636 4.25381 6.01445 5.20266C6.83241 3.36012 5.34896 1.32307 3.34425 1.53609C1.57754 1.72372 0.506504 3.57881 1.22735 5.20266C1.64544 4.25381 2.58401 3.64093 3.62095 3.63976Z" fill="#C2F3FF"/>
<path d="M6.23958 22.4795H1.00196V8.86179H6.23958V22.4795ZM15.6672 13.0519C14.5101 13.0518 13.5721 13.9899 13.5721 15.1469V22.4795H8.33463V8.86179H13.5721V10.4173C14.7416 9.42636 16.2191 8.87266 17.7518 8.8513C20.8545 8.8513 22.9999 11.1558 22.9999 15.5083V22.4795H17.7622V15.1469C17.7622 13.9899 16.8243 13.0519 15.6672 13.0519ZM6.23958 4.14798C6.2435 6.16395 4.0636 7.42812 2.3158 6.42351C1.50147 5.95545 1.00019 5.08723 1.00196 4.14798C1.00588 2.132 3.19068 0.876268 4.93456 1.88763C5.74075 2.3552 6.23781 3.21597 6.23958 4.14798Z" stroke="#191919" stroke-linecap="round" stroke-linejoin="round"/>
</svg>
