<svg width="24" height="24" viewBox="0 0 24 24" fill="none" xmlns="http://www.w3.org/2000/svg">
<path d="M12 21.625C17.3158 21.625 21.625 17.3158 21.625 12C21.625 6.68426 17.3158 2.375 12 2.375C6.68426 2.375 2.375 6.68426 2.375 12C2.375 17.3158 6.68426 21.625 12 21.625Z" fill="#C2F3FF"/>
<path d="M6.9585 5.12323H22.5418" stroke="#191919" stroke-linecap="round" stroke-linejoin="round"/>
<path d="M6.9585 12.4565H22.5418" stroke="#191919" stroke-linecap="round" stroke-linejoin="round"/>
<path d="M6.9585 19.7898H22.5418" stroke="#191919" stroke-linecap="round" stroke-linejoin="round"/>
<path d="M1.4585 18.6358C1.50312 18.4707 1.59302 18.3215 1.71803 18.2048C1.84304 18.0882 1.99818 18.0088 2.16593 17.9757C2.33367 17.9426 2.50734 17.9571 2.66729 18.0175C2.82724 18.0779 2.9671 18.1819 3.07108 18.3176C3.17506 18.4533 3.23899 18.6154 3.25569 18.7856C3.27237 18.9557 3.24113 19.1272 3.16549 19.2806C3.08986 19.4338 2.97285 19.563 2.82768 19.6533C2.68251 19.7437 2.51497 19.7916 2.344 19.7917C2.51467 19.7921 2.68184 19.8401 2.82669 19.9304C2.97154 20.0207 3.08831 20.1496 3.16385 20.3027C3.23941 20.4557 3.27073 20.6268 3.25429 20.7967C3.23786 20.9665 3.17432 21.1284 3.07085 21.2642C2.96737 21.3999 2.82805 21.504 2.66859 21.5648C2.50912 21.6257 2.33584 21.6408 2.16825 21.6085C2.00068 21.5761 1.84544 21.4976 1.72005 21.3819C1.59465 21.2661 1.50407 21.1176 1.4585 20.9531" stroke="#191919" stroke-linecap="round" stroke-linejoin="round"/>
<path d="M1.4585 11.5417C1.4585 11.2986 1.55507 11.0654 1.72698 10.8935C1.89889 10.7216 2.13204 10.625 2.37516 10.625C2.61828 10.625 2.85144 10.7216 3.02335 10.8935C3.19525 11.0654 3.29183 11.2986 3.29183 11.5417C3.29185 11.8385 3.191 12.1265 3.00583 12.3584L1.4585 14.2917H3.29183" stroke="#191919" stroke-linecap="round" stroke-linejoin="round"/>
<path d="M1.4585 3.29169H1.91683C2.03839 3.29169 2.15497 3.33998 2.24092 3.42593C2.32687 3.51188 2.37516 3.62846 2.37516 3.75002V6.95835" stroke="#191919" stroke-linecap="round" stroke-linejoin="round"/>
<path d="M1.4585 6.95654H3.29183" stroke="#191919" stroke-linecap="round" stroke-linejoin="round"/>
</svg>
