<svg width="24" height="24" viewBox="0 0 24 24" fill="none" xmlns="http://www.w3.org/2000/svg">
<g clip-path="url(#clip0_5303_2738)">
<path d="M11.9999 20.1487C16.5003 20.1487 20.1486 16.5004 20.1486 12C20.1486 7.49969 16.5003 3.85139 11.9999 3.85139C7.49962 3.85139 3.85132 7.49969 3.85132 12C3.85132 16.5004 7.49962 20.1487 11.9999 20.1487Z" fill="#C2F3FF"/>
<path d="M10.9817 1.81428C10.9817 1.54408 11.0891 1.28498 11.2801 1.09398C11.4711 0.902985 11.7302 0.795685 12.0003 0.795685C12.2705 0.795685 12.5296 0.902985 12.7205 1.09398C12.9115 1.28498 13.0188 1.54408 13.0188 1.81428V4.86998C13.0188 5.14008 12.9115 5.39918 12.7205 5.59018C12.5296 5.78128 12.2705 5.88858 12.0003 5.88858C11.7302 5.88858 11.4711 5.78128 11.2801 5.59018C11.0891 5.39918 10.9817 5.14008 10.9817 4.86998V1.81428Z" fill="#FFEF5E" stroke="#191919" stroke-linecap="round" stroke-linejoin="round"/>
<path d="M4.24051 5.637C4.04941 5.4454 3.94221 5.1858 3.94251 4.9153C3.94281 4.6447 4.05051 4.3853 4.24201 4.1942C4.43361 4.003 4.69321 3.8958 4.96381 3.8961C5.23431 3.8964 5.49371 4.0042 5.68491 4.1957L7.84221 6.3561C7.93961 6.45 8.0172 6.5623 8.0707 6.6865C8.12421 6.8108 8.1524 6.9444 8.1536 7.0797C8.1549 7.2149 8.12921 7.349 8.07811 7.4743C8.02701 7.5995 7.95141 7.7132 7.85581 7.809C7.76031 7.9047 7.64661 7.9804 7.52151 8.0317C7.39631 8.083 7.26221 8.1088 7.12701 8.1078C6.99171 8.1067 6.85801 8.0787 6.73371 8.0254C6.60941 7.9721 6.49701 7.8946 6.40291 7.7974L4.24051 5.637Z" fill="#FFEF5E" stroke="#191919" stroke-linecap="round" stroke-linejoin="round"/>
<path d="M0.795654 12C0.795654 11.7299 0.902954 11.4708 1.09395 11.2797C1.28495 11.0886 1.54405 10.9814 1.81425 10.9814H4.86995C5.14015 10.9814 5.39915 11.0887 5.59015 11.2797C5.78125 11.4708 5.88855 11.7299 5.88855 12C5.88855 12.2701 5.78125 12.5293 5.59015 12.7203C5.39915 12.9112 5.14015 13.0185 4.86995 13.0185H1.81425C1.54405 13.0185 1.28505 12.9112 1.09395 12.7203C0.902954 12.5293 0.795654 12.2701 0.795654 12Z" fill="#FFEF5E" stroke="#191919" stroke-linecap="round" stroke-linejoin="round"/>
<path d="M3.9829 19.9979C3.8882 19.9032 3.8131 19.7909 3.7619 19.6672C3.7106 19.5435 3.6842 19.4111 3.6842 19.2772C3.6842 19.1434 3.7106 19.0108 3.7619 18.8872C3.8131 18.7635 3.8882 18.6512 3.9829 18.5566L6.1423 16.3951C6.2369 16.3006 6.3492 16.2255 6.4728 16.1742C6.5963 16.123 6.7288 16.0965 6.8626 16.0965C6.9964 16.0965 7.1289 16.1228 7.2525 16.1739C7.3761 16.225 7.4885 16.3 7.5831 16.3947C7.6778 16.4892 7.7528 16.6015 7.8041 16.7251C7.8553 16.8486 7.8817 16.9812 7.8818 17.1149C7.8818 17.2488 7.8555 17.3812 7.8043 17.5048C7.7532 17.6284 7.6782 17.7408 7.5836 17.8355L5.4232 19.9968C5.2324 20.1879 4.9734 20.2954 4.7033 20.2956C4.4332 20.2958 4.174 20.1887 3.9829 19.9979Z" fill="#FFEF5E" stroke="#191919" stroke-linecap="round" stroke-linejoin="round"/>
<path d="M10.9817 19.1301C10.9817 18.8599 11.0891 18.6008 11.2801 18.4098C11.4711 18.2188 11.7302 18.1115 12.0003 18.1115C12.2705 18.1115 12.5296 18.2188 12.7205 18.4098C12.9115 18.6008 13.0188 18.86 13.0188 19.1301V22.1858C13.0188 22.4559 12.9115 22.7151 12.7205 22.906C12.5296 23.097 12.2705 23.2043 12.0003 23.2043C11.7302 23.2043 11.4711 23.097 11.2801 22.906C11.0891 22.7151 10.9817 22.4559 10.9817 22.1858V19.1301Z" fill="#FFEF5E" stroke="#191919" stroke-linecap="round" stroke-linejoin="round"/>
<path d="M16.482 17.8812C16.2908 17.69 16.1832 17.4306 16.1832 17.1601C16.1832 16.8897 16.2908 16.6303 16.482 16.4389C16.6733 16.2477 16.9326 16.1404 17.2032 16.1404C17.4736 16.1404 17.7331 16.2477 17.9243 16.4389L20.0858 18.5984C20.2778 18.789 20.3863 19.0481 20.3874 19.3185C20.3884 19.5892 20.2819 19.8491 20.0913 20.0411C19.9007 20.2333 19.6417 20.3417 19.371 20.3428C19.1005 20.3439 18.8405 20.2374 18.6486 20.0468L16.482 17.8812Z" fill="#FFEF5E" stroke="#191919" stroke-linecap="round" stroke-linejoin="round"/>
<path d="M18.1116 12C18.1116 11.7299 18.2189 11.4708 18.4099 11.2797C18.6009 11.0886 18.8601 10.9814 19.1302 10.9814H22.1859C22.456 10.9814 22.7152 11.0887 22.9061 11.2797C23.0971 11.4708 23.2044 11.7299 23.2044 12C23.2044 12.2701 23.0971 12.5293 22.9061 12.7203C22.7152 12.9112 22.456 13.0185 22.1859 13.0185H19.1302C18.8601 13.0185 18.6009 12.9112 18.4099 12.7203C18.2189 12.5293 18.1116 12.2701 18.1116 12Z" fill="#FFEF5E" stroke="#191919" stroke-linecap="round" stroke-linejoin="round"/>
<path d="M16.2965 7.65881C16.2016 7.56421 16.1263 7.45181 16.075 7.32811C16.0236 7.20431 15.9972 7.07171 15.9972 6.93771C15.9972 6.80371 16.0236 6.67101 16.075 6.54731C16.1263 6.42351 16.2016 6.31111 16.2965 6.21651L18.4548 4.05511C18.5496 3.96041 18.6619 3.88531 18.7856 3.83401C18.9094 3.78281 19.0421 3.75641 19.176 3.75641C19.3099 3.75641 19.4425 3.78281 19.5662 3.83401C19.69 3.88531 19.8025 3.96041 19.8971 4.05511C19.9919 4.14981 20.0669 4.26221 20.1181 4.38601C20.1694 4.50971 20.1958 4.64231 20.1958 4.77631C20.1958 4.91031 20.1694 5.04281 20.1181 5.16651C20.0669 5.29031 19.9919 5.40271 19.8971 5.49741L17.7368 7.65881C17.5458 7.84981 17.2866 7.95711 17.0166 7.95711C16.7465 7.95711 16.4875 7.84981 16.2965 7.65881Z" fill="#FFEF5E" stroke="#191919" stroke-linecap="round" stroke-linejoin="round"/>
</g>
<defs>
<clipPath id="clip0_5303_2738">
<rect width="24" height="24" fill="white"/>
</clipPath>
</defs>
</svg>
