<svg width="24" height="24" viewBox="0 0 24 24" fill="none" xmlns="http://www.w3.org/2000/svg">
<g clip-path="url(#clip0_5303_1705)">
<path d="M12.2495 20.975C16.6545 20.975 20.2255 17.4041 20.2255 12.9989C20.2255 8.594 16.6545 5.02299 12.2495 5.02299C7.84446 5.02299 4.27356 8.594 4.27356 12.9989C4.27356 17.4041 7.84446 20.975 12.2495 20.975Z" fill="#C2F3FF"/>
<path d="M20.2253 10.5046C21.8772 10.5046 23.2163 9.1654 23.2163 7.5135C23.2163 5.8617 21.8772 4.5226 20.2253 4.5226C18.5734 4.5226 17.2343 5.8617 17.2343 7.5135C17.2343 9.1654 18.5734 10.5046 20.2253 10.5046Z" fill="#FFEF5E"/>
<path d="M20.2252 6.51861C20.8436 6.51861 21.4468 6.71041 21.9518 7.06751C22.4568 7.42461 22.8386 7.92951 23.0447 8.51251C23.2044 8.06141 23.2536 7.57851 23.188 7.10441C23.1224 6.63031 22.944 6.17891 22.6678 5.78801C22.3914 5.39721 22.0255 5.07831 21.6005 4.85831C21.1755 4.63821 20.7039 4.52341 20.2252 4.52341C19.7466 4.52341 19.2749 4.63821 18.85 4.85831C18.425 5.07831 18.059 5.39721 17.7827 5.78801C17.5066 6.17891 17.3281 6.63031 17.2625 7.10441C17.1968 7.57851 17.246 8.06141 17.4057 8.51251C17.6119 7.92951 17.9936 7.42461 18.4986 7.06751C19.0036 6.71041 19.6068 6.51861 20.2252 6.51861Z" fill="#FFF9BF"/>
<path d="M20.2253 10.5046C21.8772 10.5046 23.2163 9.1654 23.2163 7.5135C23.2163 5.8617 21.8772 4.5226 20.2253 4.5226C18.5734 4.5226 17.2343 5.8617 17.2343 7.5135C17.2343 9.1654 18.5734 10.5046 20.2253 10.5046Z" stroke="#191919" stroke-linecap="round" stroke-linejoin="round"/>
<path d="M13.2467 6.01799C14.6232 6.01799 15.7392 4.90209 15.7392 3.52549C15.7392 2.14899 14.6232 1.03299 13.2467 1.03299C11.8701 1.03299 10.7542 2.14899 10.7542 3.52549C10.7542 4.90209 11.8701 6.01799 13.2467 6.01799Z" fill="#FFEF5E"/>
<path d="M13.2465 2.03211C13.8211 2.03191 14.3782 2.23041 14.8234 2.59371C15.2684 2.95711 15.5743 3.46301 15.6892 4.02601C15.7627 3.66401 15.7548 3.29021 15.6662 2.93161C15.5774 2.57311 15.4103 2.23871 15.1764 1.95271C14.9427 1.66661 14.6483 1.43621 14.3145 1.27791C13.9808 1.11961 13.616 1.03751 13.2465 1.03751C12.8772 1.03751 12.5124 1.11961 12.1787 1.27791C11.8449 1.43621 11.5505 1.66661 11.3167 1.95271C11.0829 2.23871 10.9157 2.57311 10.827 2.93161C10.7383 3.29021 10.7305 3.66401 10.8039 4.02601C10.9189 3.46301 11.2247 2.95711 11.6698 2.59371C12.115 2.23031 12.672 2.03191 13.2465 2.03211Z" fill="#FFF9BF"/>
<path d="M13.2467 6.01799C14.6232 6.01799 15.7392 4.90209 15.7392 3.52549C15.7392 2.14899 14.6232 1.03299 13.2467 1.03299C11.8701 1.03299 10.7542 2.14899 10.7542 3.52549C10.7542 4.90209 11.8701 6.01799 13.2467 6.01799Z" stroke="#191919" stroke-linecap="round" stroke-linejoin="round"/>
<path d="M6.26728 8.012C7.64378 8.012 8.75978 6.8961 8.75978 5.5196C8.75978 4.143 7.64378 3.0271 6.26728 3.0271C4.89078 3.0271 3.77478 4.143 3.77478 5.5196C3.77478 6.8961 4.89068 8.012 6.26728 8.012Z" fill="#FFEF5E" stroke="#191919" stroke-linecap="round" stroke-linejoin="round"/>
<path d="M2.77781 13.4955C3.87911 13.4955 4.77181 12.6028 4.77181 11.5015C4.77181 10.4003 3.87911 9.50751 2.77781 9.50751C1.67661 9.50751 0.783813 10.4003 0.783813 11.5015C0.783813 12.6028 1.67661 13.4955 2.77781 13.4955Z" fill="#FFEF5E" stroke="#191919" stroke-linecap="round" stroke-linejoin="round"/>
<path d="M4.2733 19.4774C5.3746 19.4774 6.2673 18.5848 6.2673 17.4835C6.2673 16.3822 5.3745 15.4895 4.2733 15.4895C3.172 15.4895 2.2793 16.3822 2.2793 17.4835C2.2793 18.5848 3.172 19.4774 4.2733 19.4774Z" fill="#FFEF5E" stroke="#191919" stroke-linecap="round" stroke-linejoin="round"/>
<path d="M9.25856 22.967C10.0846 22.967 10.7541 22.2973 10.7541 21.4715C10.7541 20.6455 10.0846 19.976 9.25856 19.976C8.43256 19.976 7.76306 20.6455 7.76306 21.4715C7.76306 22.2973 8.43266 22.967 9.25856 22.967Z" fill="#FFEF5E" stroke="#191919" stroke-linecap="round" stroke-linejoin="round"/>
<path d="M14.6173 22.614C15.1679 22.614 15.6143 22.1677 15.6143 21.617C15.6143 21.0663 15.1679 20.62 14.6173 20.62C14.0667 20.62 13.6204 21.0663 13.6204 21.617C13.6204 22.1677 14.0666 22.614 14.6173 22.614Z" fill="#FFEF5E" stroke="#191919" stroke-linecap="round" stroke-linejoin="round"/>
</g>
<defs>
<clipPath id="clip0_5303_1705">
<rect width="24" height="24" fill="white"/>
</clipPath>
</defs>
</svg>
