<svg width="24" height="24" viewBox="0 0 24 24" fill="none" xmlns="http://www.w3.org/2000/svg">
<path d="M11.2826 1L9.73682 6.01791L14.6294 6.26087L20.2566 8.29348L17.9036 1.01243L11.2826 1Z" fill="#66E1FF"/>
<path d="M22.0425 15.8261C22.0425 15.4456 21.8914 15.0806 21.6223 14.8115C21.3532 14.5424 20.9883 14.3913 20.6077 14.3913H19.6512C20.0317 14.3913 20.3966 14.2402 20.6658 13.9711C20.9349 13.702 21.086 13.337 21.086 12.9565C21.086 12.576 20.9349 12.211 20.6658 11.9419C20.3966 11.6729 20.0317 11.5217 19.6512 11.5217H15.3469V10.087C15.3469 9.70647 15.1957 9.34152 14.9267 9.07245C14.6575 8.80338 14.2926 8.65222 13.9121 8.65222H10.086C8.65122 8.65222 6.126 10.1826 4.96478 12.4381C4.88425 12.5944 4.76218 12.7255 4.612 12.817C4.46182 12.9084 4.28933 12.9567 4.11348 12.9565H1.95557V20.6087H4.46835C4.62018 20.6088 4.76981 20.6449 4.90487 20.7143C5.03993 20.7837 5.15653 20.8842 5.24504 21.0076C5.68748 21.6246 6.27067 22.1272 6.94623 22.4737C7.62179 22.8202 8.37024 23.0007 9.12948 23H17.7382C18.1187 23 18.4836 22.8489 18.7528 22.5798C19.0218 22.3107 19.173 21.9457 19.173 21.5652C19.173 21.1847 19.0218 20.8197 18.7528 20.5506C18.4836 20.2816 18.1187 20.1304 17.7382 20.1304H19.6512C20.0317 20.1304 20.3966 19.9793 20.6658 19.7102C20.9349 19.4412 21.086 19.0762 21.086 18.6957C21.086 18.3151 20.9349 17.9501 20.6658 17.6811C20.3966 17.412 20.0317 17.2609 19.6512 17.2609H20.6077C20.9883 17.2609 21.3532 17.1097 21.6223 16.8407C21.8914 16.5716 22.0425 16.2066 22.0425 15.8261Z" fill="#FFDDA1"/>
<path d="M11.0425 11.5217H19.6512C20.0317 11.5217 20.3967 11.6729 20.6658 11.9419C20.9348 12.211 21.086 12.576 21.086 12.9565C21.086 13.337 20.9348 13.702 20.6658 13.9711C20.3967 14.2402 20.0317 14.3913 19.6512 14.3913H14.8686" stroke="#191919" stroke-linecap="round" stroke-linejoin="round"/>
<path d="M1.95557 12.9565H4.11348C4.28933 12.9567 4.46182 12.9084 4.612 12.817C4.76218 12.7255 4.88425 12.5944 4.96478 12.4381C6.126 10.1874 8.64739 8.65222 10.086 8.65222H13.9121C14.2926 8.65222 14.6575 8.80338 14.9267 9.07245C15.1957 9.34152 15.3469 9.70647 15.3469 10.087V11.5217" stroke="#191919" stroke-linecap="round" stroke-linejoin="round"/>
<path d="M19.6533 14.3914H20.6098C20.9903 14.3914 21.3552 14.5425 21.6244 14.8116C21.8934 15.0807 22.0446 15.4457 22.0446 15.8262C22.0446 16.2067 21.8934 16.5717 21.6244 16.8408C21.3552 17.1098 20.9903 17.261 20.6098 17.261H16.7837" stroke="#191919" stroke-linecap="round" stroke-linejoin="round"/>
<path d="M19.6513 17.2609C20.0318 17.2609 20.3968 17.412 20.6659 17.6811C20.935 17.9501 21.0861 18.3151 21.0861 18.6956C21.0861 19.0762 20.935 19.4412 20.6659 19.7102C20.3968 19.9793 20.0318 20.1304 19.6513 20.1304H17.7383" stroke="#191919" stroke-linecap="round" stroke-linejoin="round"/>
<path d="M13.9121 20.1304H17.7382C18.1187 20.1304 18.4836 20.2816 18.7528 20.5506C19.0218 20.8197 19.173 21.1847 19.173 21.5652C19.173 21.9457 19.0218 22.3107 18.7528 22.5798C18.4836 22.8489 18.1187 23 17.7382 23H9.12948C8.3708 23.0003 7.62299 22.8198 6.94797 22.4734C6.27295 22.1272 5.69017 21.625 5.24791 21.0085C5.15923 20.8846 5.0422 20.7836 4.9066 20.7141C4.771 20.6446 4.62074 20.6084 4.46835 20.6087H1.95557" stroke="#191919" stroke-linecap="round" stroke-linejoin="round"/>
<path d="M9.81091 6.02941C9.67884 6.02941 9.57178 5.92235 9.57178 5.79028C9.57178 5.65821 9.67884 5.55115 9.81091 5.55115" stroke="#191919"/>
<path d="M9.81104 6.02941C9.9431 6.02941 10.0502 5.92235 10.0502 5.79028C10.0502 5.65821 9.9431 5.55115 9.81104 5.55115" stroke="#191919"/>
<path d="M10.5643 3.75383C10.4322 3.75383 10.3252 3.64677 10.3252 3.5147C10.3252 3.38264 10.4322 3.27557 10.5643 3.27557" stroke="#191919"/>
<path d="M10.5645 3.75383C10.6965 3.75383 10.8036 3.64677 10.8036 3.5147C10.8036 3.38264 10.6965 3.27557 10.5645 3.27557" stroke="#191919"/>
<path d="M11.2816 1.47826C11.1495 1.47826 11.0425 1.3712 11.0425 1.23913C11.0425 1.10706 11.1495 1 11.2816 1" stroke="#191919"/>
<path d="M11.2817 1.47826C11.4138 1.47826 11.5209 1.3712 11.5209 1.23913C11.5209 1.10706 11.4138 1 11.2817 1" stroke="#191919"/>
<path d="M14.6293 1.47826C14.4972 1.47826 14.3901 1.3712 14.3901 1.23913C14.3901 1.10706 14.4972 1 14.6293 1" stroke="#191919"/>
<path d="M14.6294 1.47826C14.7615 1.47826 14.8685 1.3712 14.8685 1.23913C14.8685 1.10706 14.7615 1 14.6294 1" stroke="#191919"/>
<path d="M14.6293 3.86956C14.4972 3.86956 14.3901 3.7625 14.3901 3.63043C14.3901 3.49837 14.4972 3.3913 14.6293 3.3913" stroke="#191919"/>
<path d="M14.6294 3.86956C14.7615 3.86956 14.8685 3.7625 14.8685 3.63043C14.8685 3.49837 14.7615 3.3913 14.6294 3.3913" stroke="#191919"/>
<path d="M14.6302 6.26952C14.4981 6.26952 14.3911 6.16246 14.3911 6.03039C14.3911 5.89832 14.4981 5.79126 14.6302 5.79126" stroke="#191919"/>
<path d="M14.6304 6.26952C14.7625 6.26952 14.8695 6.16246 14.8695 6.03039C14.8695 5.89832 14.7625 5.79126 14.6304 5.79126" stroke="#191919"/>
<path d="M20.184 8.29345C20.0519 8.29345 19.9448 8.18638 19.9448 8.05432C19.9448 7.92225 20.0519 7.81519 20.184 7.81519" stroke="#191919"/>
<path d="M20.1841 8.29345C20.3161 8.29345 20.4232 8.18638 20.4232 8.05432C20.4232 7.92225 20.3161 7.81519 20.1841 7.81519" stroke="#191919"/>
<path d="M19.412 6.03032C19.2799 6.03032 19.1729 5.92326 19.1729 5.79119C19.1729 5.65913 19.2799 5.55206 19.412 5.55206" stroke="#191919"/>
<path d="M19.4121 6.03032C19.5442 6.03032 19.6512 5.92326 19.6512 5.79119C19.6512 5.65913 19.5442 5.55206 19.4121 5.55206" stroke="#191919"/>
<path d="M18.7133 3.75481C18.5812 3.75481 18.4741 3.64776 18.4741 3.51568C18.4741 3.38361 18.5812 3.27655 18.7133 3.27655" stroke="#191919"/>
<path d="M18.7134 3.75481C18.8454 3.75481 18.9525 3.64776 18.9525 3.51568C18.9525 3.38361 18.8454 3.27655 18.7134 3.27655" stroke="#191919"/>
<path d="M17.9774 1.47826C17.8453 1.47826 17.7383 1.3712 17.7383 1.23913C17.7383 1.10706 17.8453 1 17.9774 1" stroke="#191919"/>
<path d="M17.9775 1.47826C18.1096 1.47826 18.2167 1.3712 18.2167 1.23913C18.2167 1.10706 18.1096 1 17.9775 1" stroke="#191919"/>
</svg>
