<svg width="24" height="24" viewBox="0 0 24 24" fill="none" xmlns="http://www.w3.org/2000/svg">
<path d="M4.6665 17.0416V14.75C4.6665 14.6284 4.71479 14.5118 4.80075 14.4258C4.8867 14.3399 5.00328 14.2916 5.12484 14.2916H18.8748C18.9964 14.2916 19.113 14.3399 19.199 14.4258C19.2849 14.5118 19.3332 14.6284 19.3332 14.75V17.0416" stroke="#191919" stroke-linecap="round" stroke-linejoin="round"/>
<path d="M12 11.5416V17.0416" stroke="#191919" stroke-linecap="round" stroke-linejoin="round"/>
<path d="M16.5832 10.625C16.5832 10.8681 16.4866 11.1013 16.3147 11.2732C16.1428 11.4451 15.9096 11.5417 15.6665 11.5417H8.33317C8.09005 11.5417 7.8569 11.4451 7.68499 11.2732C7.51308 11.1013 7.4165 10.8681 7.4165 10.625V6.04167C7.4165 5.79855 7.51308 5.56539 7.68499 5.39348C7.8569 5.22158 8.09005 5.125 8.33317 5.125H15.6665C15.9096 5.125 16.1428 5.22158 16.3147 5.39348C16.4866 5.56539 16.5832 5.79855 16.5832 6.04167V10.625Z" fill="#FFEF5E"/>
<path d="M11.9998 5.125H8.33317C8.09005 5.125 7.8569 5.22158 7.68499 5.39348C7.51308 5.56539 7.4165 5.79855 7.4165 6.04167V10.625C7.4165 10.8681 7.51308 11.1013 7.68499 11.2732C7.8569 11.4451 8.09005 11.5417 8.33317 11.5417H11.9998V5.125Z" fill="#FFF9BF"/>
<path d="M16.5832 10.625C16.5832 10.8681 16.4866 11.1013 16.3147 11.2732C16.1428 11.4451 15.9096 11.5417 15.6665 11.5417H8.33317C8.09005 11.5417 7.8569 11.4451 7.68499 11.2732C7.51308 11.1013 7.4165 10.8681 7.4165 10.625V6.04167C7.4165 5.79855 7.51308 5.56539 7.68499 5.39348C7.8569 5.22158 8.09005 5.125 8.33317 5.125H15.6665C15.9096 5.125 16.1428 5.22158 16.3147 5.39348C16.4866 5.56539 16.5832 5.79855 16.5832 6.04167V10.625Z" stroke="#191919" stroke-linecap="round" stroke-linejoin="round"/>
<path d="M12.0002 9.24996C12.5064 9.24996 12.9168 8.83955 12.9168 8.33329C12.9168 7.82704 12.5064 7.41663 12.0002 7.41663C11.4939 7.41663 11.0835 7.82704 11.0835 8.33329C11.0835 8.83955 11.4939 9.24996 12.0002 9.24996Z" fill="#808080" stroke="#191919" stroke-linecap="round" stroke-linejoin="round"/>
<path d="M14.75 5.12504V4.20837C14.75 3.47903 14.4602 2.77956 13.9445 2.26383C13.4288 1.7481 12.7293 1.45837 12 1.45837C11.2707 1.45837 10.5712 1.7481 10.0555 2.26383C9.53973 2.77956 9.25 3.47903 9.25 4.20837V5.12504" stroke="#191919" stroke-linecap="round" stroke-linejoin="round"/>
<path d="M4.6665 22.5416C6.18528 22.5416 7.4165 21.3105 7.4165 19.7916C7.4165 18.2728 6.18528 17.0416 4.6665 17.0416C3.14772 17.0416 1.9165 18.2728 1.9165 19.7916C1.9165 21.3105 3.14772 22.5416 4.6665 22.5416Z" fill="#78EB7B" stroke="#191919" stroke-linecap="round" stroke-linejoin="round"/>
<path d="M12 22.5416C13.5188 22.5416 14.75 21.3105 14.75 19.7916C14.75 18.2728 13.5188 17.0416 12 17.0416C10.4812 17.0416 9.25 18.2728 9.25 19.7916C9.25 21.3105 10.4812 22.5416 12 22.5416Z" fill="#FF808C" stroke="#191919" stroke-linecap="round" stroke-linejoin="round"/>
<path d="M19.3335 22.5416C20.8523 22.5416 22.0835 21.3105 22.0835 19.7916C22.0835 18.2728 20.8523 17.0416 19.3335 17.0416C17.8147 17.0416 16.5835 18.2728 16.5835 19.7916C16.5835 21.3105 17.8147 22.5416 19.3335 22.5416Z" fill="#FF808C" stroke="#191919" stroke-linecap="round" stroke-linejoin="round"/>
</svg>
