<svg width="24" height="24" viewBox="0 0 24 24" fill="none" xmlns="http://www.w3.org/2000/svg">
<path d="M21.584 1.50781C21.7038 1.50781 21.8225 1.53143 21.9332 1.57733C22.0439 1.62322 22.1445 1.69049 22.2292 1.77528C22.3139 1.86007 22.3811 1.96073 22.4269 2.07149C22.4727 2.18226 22.4962 2.30096 22.4961 2.42081L22.4887 9.32698C22.5089 12.3811 21.4859 15.3507 19.589 17.7445C17.6921 20.1382 15.035 21.8128 12.0571 22.4912C9.07306 21.8403 6.40063 20.1904 4.48175 17.8143C2.56287 15.4382 1.51251 12.4783 1.50439 9.42415L1.51631 2.4254C1.51619 2.30554 1.53969 2.18684 1.58548 2.07608C1.63126 1.96531 1.69842 1.86465 1.78313 1.77986C1.86784 1.69507 1.96842 1.62781 2.07914 1.58191C2.18986 1.53602 2.30854 1.5124 2.42839 1.5124L21.584 1.50781Z" fill="#E3E3E3"/>
<path d="M12.0048 1.50781H2.42564C2.18422 1.50878 1.95303 1.60543 1.78275 1.77657C1.61247 1.94771 1.51698 2.17939 1.51723 2.42081L1.50439 9.42415C1.51233 12.4691 2.55624 15.4207 4.46445 17.7935C6.37266 20.1664 9.03156 21.8192 12.0039 22.4802L12.0048 1.50781Z" fill="white"/>
<path d="M21.584 1.50781C21.7038 1.50781 21.8225 1.53143 21.9332 1.57733C22.0439 1.62322 22.1445 1.69049 22.2292 1.77528C22.3139 1.86007 22.3811 1.96073 22.4269 2.07149C22.4727 2.18226 22.4962 2.30096 22.4961 2.42081L22.4887 9.32698C22.5089 12.3811 21.4859 15.3507 19.589 17.7445C17.6921 20.1382 15.035 21.8128 12.0571 22.4912C9.07307 21.8403 6.40063 20.1904 4.48175 17.8143C2.56287 15.4382 1.51251 12.4783 1.50439 9.42415L1.51631 2.4254C1.51619 2.30554 1.53969 2.18684 1.58548 2.07608C1.63126 1.96531 1.69842 1.86465 1.78313 1.77986C1.86784 1.69507 1.96842 1.62781 2.07914 1.58191C2.18986 1.53602 2.30854 1.5124 2.42839 1.5124L21.584 1.50781Z" stroke="#191919" stroke-linecap="round" stroke-linejoin="round"/>
<path d="M16.1249 14.2624C16.1255 14.3826 16.1023 14.5018 16.0567 14.613C16.0111 14.7243 15.9439 14.8254 15.8591 14.9106C15.7742 14.9958 15.6734 15.0634 15.5623 15.1094C15.4512 15.1555 15.3322 15.1791 15.2119 15.179L8.82551 15.2074C8.5844 15.2074 8.3531 15.112 8.18218 14.9419C8.01126 14.7719 7.91463 14.541 7.91342 14.2999L7.88867 8.94111C7.88867 8.69921 7.98477 8.46722 8.15581 8.29617C8.32686 8.12512 8.55886 8.02903 8.80076 8.02903L15.1872 8.00061C15.4283 8.00061 15.6596 8.09607 15.8305 8.26613C16.0014 8.43619 16.098 8.66701 16.0993 8.90811L16.1249 14.2624Z" fill="#FFEF5E"/>
<path d="M12.0048 8.00977L8.79734 8.02443C8.55544 8.02443 8.32345 8.12053 8.1524 8.29158C7.98135 8.46262 7.88525 8.69461 7.88525 8.93651L7.91 14.2953C7.91122 14.5365 8.00784 14.7673 8.17876 14.9373C8.34968 15.1074 8.58098 15.2029 8.82209 15.2028L12.0048 15.1937V8.00977Z" fill="#FFF9BF"/>
<path d="M16.1249 14.2624C16.1255 14.3826 16.1023 14.5018 16.0567 14.613C16.0111 14.7243 15.9439 14.8254 15.8591 14.9106C15.7742 14.9958 15.6734 15.0634 15.5623 15.1094C15.4512 15.1555 15.3322 15.1791 15.2119 15.179L8.82551 15.2074C8.5844 15.2074 8.3531 15.112 8.18218 14.9419C8.01126 14.7719 7.91463 14.541 7.91342 14.2999L7.88867 8.94111C7.88867 8.69921 7.98477 8.46722 8.15581 8.29617C8.32686 8.12512 8.55886 8.02903 8.80076 8.02903L15.1872 8.00061C15.4283 8.00061 15.6596 8.09607 15.8305 8.26613C16.0014 8.43619 16.098 8.66701 16.0993 8.90811L16.1249 14.2624Z" stroke="#191919" stroke-linecap="round" stroke-linejoin="round"/>
<path d="M11.9725 4.24502C11.2469 4.2489 10.5525 4.54076 10.042 5.05643C9.53148 5.5721 9.24662 6.26939 9.25003 6.99502V8.02169L14.7234 7.99785V6.97027C14.7201 6.24424 14.4284 5.54929 13.9127 5.03823C13.397 4.52717 12.6986 4.24185 11.9725 4.24502Z" stroke="#191919" stroke-linecap="round" stroke-linejoin="round"/>
<path d="M12.0065 12.7425C12.3092 12.7425 12.5994 12.6223 12.8135 12.4083C13.0275 12.1942 13.1477 11.9039 13.1477 11.6013C13.1477 11.2986 13.0275 11.0083 12.8135 10.7943C12.5994 10.5803 12.3092 10.46 12.0065 10.46C11.7038 10.46 11.4135 10.5803 11.1995 10.7943C10.9855 11.0083 10.8652 11.2986 10.8652 11.6013C10.8652 11.9039 10.9855 12.1942 11.1995 12.4083C11.4135 12.6223 11.7038 12.7425 12.0065 12.7425Z" fill="#808080" stroke="#191919" stroke-linecap="round" stroke-linejoin="round"/>
</svg>
