<svg width="24" height="24" viewBox="0 0 24 24" fill="none" xmlns="http://www.w3.org/2000/svg">
<path d="M19.7577 13.3686C19.7574 12.4004 19.3727 11.472 18.688 10.7874C18.0033 10.1029 17.0748 9.71838 16.1066 9.71838H7.89327C6.9251 9.71838 5.99657 10.1029 5.31189 10.7874C4.6272 11.472 4.24243 12.4004 4.24219 13.3686V18.8447C4.24219 19.813 4.62685 20.7417 5.31156 21.4264C5.99628 22.1111 6.92494 22.4958 7.89327 22.4958H16.1066C17.0749 22.4958 18.0036 22.1111 18.6883 21.4264C19.373 20.7417 19.7577 19.813 19.7577 18.8447V13.3686Z" fill="#FFEF5E"/>
<path d="M11.9999 9.71753H7.89327C6.92494 9.71753 5.99628 10.1022 5.31156 10.7869C4.62685 11.4716 4.24219 12.4003 4.24219 13.3686V18.8448C4.24219 19.8131 4.62685 20.7418 5.31156 21.4265C5.99628 22.1112 6.92494 22.4959 7.89327 22.4959H11.9999V9.71753Z" fill="#FFF9BF"/>
<path d="M19.7577 13.3686C19.7574 12.4004 19.3727 11.472 18.688 10.7874C18.0033 10.1029 17.0748 9.71838 16.1066 9.71838H7.89327C6.9251 9.71838 5.99657 10.1029 5.31189 10.7874C4.6272 11.472 4.24243 12.4004 4.24219 13.3686V18.8447C4.24219 19.813 4.62685 20.7417 5.31156 21.4264C5.99628 22.1111 6.92494 22.4958 7.89327 22.4958H16.1066C17.0749 22.4958 18.0036 22.1111 18.6883 21.4264C19.373 20.7417 19.7577 19.813 19.7577 18.8447V13.3686Z" stroke="#191919" stroke-linecap="round" stroke-linejoin="round"/>
<path d="M11.9999 17.4762C12.2396 17.4762 12.477 17.4289 12.6985 17.3372C12.9199 17.2455 13.1212 17.111 13.2907 16.9415C13.4602 16.772 13.5947 16.5707 13.6864 16.3492C13.7782 16.1277 13.8254 15.8903 13.8254 15.6506C13.8254 15.4109 13.7782 15.1735 13.6864 14.952C13.5947 14.7305 13.4602 14.5293 13.2907 14.3598C13.1212 14.1902 12.9199 14.0558 12.6985 13.964C12.477 13.8723 12.2396 13.8251 11.9999 13.8251C11.5157 13.8251 11.0514 14.0174 10.709 14.3598C10.3666 14.7021 10.1743 15.1665 10.1743 15.6506C10.1743 16.1348 10.3666 16.5991 10.709 16.9415C11.0514 17.2838 11.5157 17.4762 11.9999 17.4762Z" fill="#808080" stroke="#191919" stroke-linecap="round" stroke-linejoin="round"/>
<path d="M6.98047 6.52382C6.98047 5.19252 7.50932 3.91575 8.4507 2.97438C9.39207 2.03301 10.6688 1.50415 12.0001 1.50415C13.3314 1.50415 14.6082 2.03301 15.5496 2.97438C16.4909 3.91575 17.0198 5.19252 17.0198 6.52382V9.83298" stroke="#191919" stroke-linecap="round" stroke-linejoin="round"/>
</svg>
