<svg width="24" height="24" viewBox="0 0 24 24" fill="none" xmlns="http://www.w3.org/2000/svg">
<g clip-path="url(#clip0_5303_9889)">
<path d="M21.087 5.78259H2.91304C1.85649 5.78259 1 6.63908 1 7.69564V19.1739C1 20.2305 1.85649 21.087 2.91304 21.087H21.087C22.1435 21.087 23 20.2305 23 19.1739V7.69564C23 6.63908 22.1435 5.78259 21.087 5.78259Z" fill="#C77F67"/>
<path d="M23 8.65216V7.69564C22.9968 6.64037 22.1422 5.78578 21.087 5.78259H2.91304C1.85778 5.78578 1.00319 6.64037 1 7.69564V8.65216H23Z" fill="#E3BFB3"/>
<path d="M21.087 5.78259H2.91304C1.85649 5.78259 1 6.63908 1 7.69564V19.1739C1 20.2305 1.85649 21.087 2.91304 21.087H21.087C22.1435 21.087 23 20.2305 23 19.1739V7.69564C23 6.63908 22.1435 5.78259 21.087 5.78259Z" stroke="#191919" stroke-linecap="round" stroke-linejoin="round"/>
<path d="M8.65186 5.78259V4.34781C8.65186 3.55539 9.29422 2.91302 10.0866 2.91302H13.9127C14.7051 2.91302 15.3475 3.55539 15.3475 4.34781V5.78259" stroke="#191919" stroke-linecap="round" stroke-linejoin="round"/>
<path d="M14.8689 11.0435C13.8431 11.0428 12.8949 11.5899 12.382 12.4782H6.73849L5.30371 13.913L6.73849 15.3478H12.382C13.4865 17.2609 16.2477 17.2609 17.3522 15.3478C18.4563 13.4355 17.0771 11.0449 14.8689 11.0435Z" fill="#FFEF5E" stroke="#191919" stroke-linecap="round" stroke-linejoin="round"/>
<path d="M14.8691 13.4348C15.2373 13.4348 15.4673 13.8333 15.2833 14.1522C15.1978 14.3001 15.04 14.3913 14.8691 14.3913C14.5009 14.3913 14.2709 13.9928 14.4549 13.6739C14.5404 13.526 14.6982 13.4348 14.8691 13.4348Z" stroke="#191919" stroke-linecap="round" stroke-linejoin="round"/>
</g>
<defs>
<clipPath id="clip0_5303_9889">
<rect width="24" height="24" fill="white"/>
</clipPath>
</defs>
</svg>
