<svg width="24" height="24" viewBox="0 0 24 24" fill="none" xmlns="http://www.w3.org/2000/svg">
<path d="M10.6248 3.29163H4.20817C3.70191 3.29163 3.2915 3.70204 3.2915 4.20829V19.7916C3.2915 20.2979 3.70191 20.7083 4.20817 20.7083H10.6248C11.1311 20.7083 11.5415 20.2979 11.5415 19.7916V4.20829C11.5415 3.70204 11.1311 3.29163 10.6248 3.29163Z" fill="#66E1FF"/>
<path d="M13.3752 5.58337V2.37504C13.3752 2.13192 13.2785 1.89877 13.1067 1.72686C12.9348 1.55495 12.7016 1.45837 12.4585 1.45837H2.37516C2.13204 1.45837 1.89889 1.55495 1.72698 1.72686C1.55507 1.89877 1.4585 2.13192 1.4585 2.37504V21.625C1.4585 21.8681 1.55507 22.1013 1.72698 22.2732C1.89889 22.4451 2.13204 22.5417 2.37516 22.5417H12.4585C12.7016 22.5417 12.9348 22.4451 13.1067 22.2732C13.2785 22.1013 13.3752 21.8681 13.3752 21.625V18.4167" stroke="#191919" stroke-linecap="round" stroke-linejoin="round"/>
<path d="M5.125 12H22.5417" stroke="#191919" stroke-linecap="round" stroke-linejoin="round"/>
<path d="M9.70833 7.41663L5.125 12L9.70833 16.5833" stroke="#191919" stroke-linecap="round" stroke-linejoin="round"/>
</svg>
