<svg width="24" height="24" viewBox="0 0 24 24" fill="none" xmlns="http://www.w3.org/2000/svg">
<path d="M19.7914 1.45834L10.8246 10.427C9.46457 9.72328 7.89773 9.5291 6.40709 9.87957C4.91644 10.23 3.60028 11.102 2.69632 12.3381C1.79237 13.574 1.36024 15.0926 1.47799 16.6194C1.59574 18.1461 2.25561 19.5804 3.33839 20.6632C4.42118 21.746 5.85549 22.4058 7.38225 22.5236C8.909 22.6413 10.4275 22.2092 11.6635 21.3053C12.8996 20.4014 13.7716 19.0851 14.122 17.5945C14.4725 16.1038 14.2783 14.537 13.5746 13.177L16.5831 10.1667H17.9581V8.79168L18.4164 8.33334H19.7914V6.95834L20.2498 6.50001H21.6248V5.12501L22.5414 4.20834V1.45834H19.7914ZM6.0414 19.3333C5.76946 19.3333 5.50361 19.2527 5.27749 19.1016C5.05138 18.9505 4.87514 18.7358 4.77107 18.4845C4.667 18.2333 4.63977 17.9568 4.69282 17.6901C4.74588 17.4234 4.87683 17.1784 5.06913 16.986C5.26143 16.7938 5.50643 16.6628 5.77315 16.6097C6.03987 16.5567 6.31634 16.584 6.56759 16.688C6.81884 16.7921 7.03359 16.9683 7.18467 17.1944C7.33576 17.4205 7.4164 17.6864 7.4164 17.9583C7.4164 18.323 7.27153 18.6728 7.01368 18.9307C6.75581 19.1885 6.40607 19.3333 6.0414 19.3333Z" fill="#FFEF5E"/>
<path d="M3.33823 20.6616L5.06889 18.9309C4.94117 18.8032 4.83984 18.6517 4.7707 18.4849C4.70156 18.318 4.66594 18.1393 4.6659 17.9587C4.66582 17.594 4.81061 17.2442 5.06843 16.9862C5.32626 16.7283 5.67599 16.5833 6.0407 16.5833C6.4054 16.5832 6.7552 16.7279 7.01314 16.9858L22.5414 1.45834H19.7914L10.8246 10.427C9.46483 9.72364 7.89835 9.52965 6.40803 9.88004C4.91772 10.2305 3.60179 11.1021 2.69786 12.3377C1.79392 13.5734 1.36156 15.0914 1.47882 16.6179C1.59609 18.1443 2.25617 19.5786 3.33823 20.6616Z" fill="#FFF9BF"/>
<path d="M19.7914 1.45834L10.8246 10.427C9.46457 9.72328 7.89773 9.5291 6.40709 9.87957C4.91644 10.23 3.60028 11.102 2.69632 12.3381C1.79237 13.574 1.36024 15.0926 1.47799 16.6194C1.59574 18.1461 2.25561 19.5804 3.33839 20.6632C4.42118 21.746 5.85549 22.4058 7.38225 22.5236C8.909 22.6413 10.4275 22.2092 11.6635 21.3053C12.8996 20.4014 13.7716 19.0851 14.122 17.5945C14.4725 16.1038 14.2783 14.537 13.5746 13.177L16.5831 10.1667H17.9581V8.79168L18.4164 8.33334H19.7914V6.95834L20.2498 6.50001H21.6248V5.12501L22.5414 4.20834V1.45834H19.7914ZM6.0414 19.3333C5.76946 19.3333 5.50361 19.2527 5.27749 19.1016C5.05138 18.9505 4.87514 18.7358 4.77107 18.4845C4.667 18.2333 4.63977 17.9568 4.69282 17.6901C4.74588 17.4234 4.87683 17.1784 5.06913 16.986C5.26143 16.7938 5.50643 16.6628 5.77315 16.6097C6.03987 16.5567 6.31634 16.584 6.56759 16.688C6.81884 16.7921 7.03359 16.9683 7.18467 17.1944C7.33576 17.4205 7.4164 17.6864 7.4164 17.9583C7.4164 18.323 7.27153 18.6728 7.01368 18.9307C6.75581 19.1885 6.40607 19.3333 6.0414 19.3333Z" stroke="#191919" stroke-linecap="round" stroke-linejoin="round"/>
</svg>
