<svg width="24" height="24" viewBox="0 0 24 24" fill="none" xmlns="http://www.w3.org/2000/svg">
<g clip-path="url(#clip0_5303_10752)">
<path d="M8.65802 12.0263L12.0088 5.40626L10.477 4.00948C9.85248 3.39468 9.09217 2.93534 8.25743 2.6685C7.42269 2.40167 6.53691 2.33483 5.67159 2.47338C4.80626 2.61194 3.98564 2.952 3.27594 3.46612C2.56624 3.98024 1.98737 4.65402 1.58604 5.43306C1.06501 6.46111 0.884909 7.62838 1.07184 8.76566C1.25878 9.90294 1.80304 10.9511 2.62572 11.7583L11.7149 21.5999L14.8856 12.0263H8.65802Z" fill="#FFBFC5"/>
<path d="M22.4375 5.43316C22.036 4.65426 21.4571 3.98065 20.7474 3.46666C20.0377 2.95265 19.2171 2.61268 18.3518 2.47413C17.4866 2.33559 16.6009 2.40236 15.7662 2.66908C14.9315 2.93579 14.1712 3.39498 13.5466 4.00957L12.0148 5.40635L8.66406 12.0265H14.8869L11.7161 21.6L21.0982 11.9374C22.0158 11.1586 22.6463 10.095 22.889 8.91616C23.1318 7.73732 22.9728 6.51115 22.4375 5.43316Z" fill="#FF808C"/>
<path d="M11.7149 21.6L2.62572 11.7584C1.80304 10.9512 1.25878 9.90299 1.07184 8.76571C0.884909 7.62843 1.06501 6.46118 1.58604 5.43313C1.98737 4.65408 2.56624 3.98031 3.27594 3.46618C3.98564 2.95206 4.80626 2.612 5.67159 2.47345C6.53691 2.33489 7.42269 2.40173 8.25743 2.66857C9.09217 2.93539 9.85248 3.39475 10.477 4.00954L12.0088 5.40633L13.5405 4.00954C14.1651 3.39377 14.9258 2.9336 15.7611 2.66619C16.5965 2.39879 17.483 2.33167 18.349 2.47025C19.2152 2.60884 20.0365 2.94924 20.7466 3.46394C21.4568 3.97864 22.036 4.65321 22.4372 5.43313C22.9724 6.51122 23.1312 7.73746 22.8883 8.91631C22.6454 10.0952 22.0147 11.1587 21.0969 11.9374L11.7149 21.6Z" stroke="#191919" stroke-linecap="round" stroke-linejoin="round"/>
<path d="M12.0089 5.40625L8.6582 12.0263H14.881L11.7103 21.5999" stroke="#191919" stroke-linecap="round" stroke-linejoin="round"/>
</g>
<defs>
<clipPath id="clip0_5303_10752">
<rect width="24" height="24" fill="white"/>
</clipPath>
</defs>
</svg>
