<svg width="24" height="24" viewBox="0 0 24 24" fill="none" xmlns="http://www.w3.org/2000/svg">
<g clip-path="url(#clip0_5303_10689)">
<path d="M1 19.174C2.85892 18.5884 4.79078 18.2664 6.73913 18.2174C9.6087 18.2174 13.913 20.1305 16.7826 20.1305C18.6997 20.0396 20.5892 19.6377 22.3773 18.9406C22.5603 18.8724 22.718 18.7499 22.8293 18.5896C22.9406 18.4292 23.0002 18.2386 23 18.0433V4.76874C23 4.61677 22.9638 4.467 22.8943 4.33182C22.8249 4.19665 22.7243 4.07995 22.6008 3.99142C22.4773 3.90288 22.3344 3.84504 22.1841 3.82269C22.0338 3.80034 21.8804 3.81413 21.7364 3.86291C20.1439 4.4344 18.4733 4.75922 16.7826 4.82613C13.913 4.82613 9.6087 2.91309 6.73913 2.91309C4.79078 2.96208 2.85892 3.28405 1 3.86961V19.174Z" fill="#E3E3E3"/>
<path d="M12.4783 4.06091C10.6151 3.46118 8.68962 3.07608 6.73913 2.91309C4.79078 2.96208 2.85892 3.28405 1 3.86961V19.174C2.85892 18.5884 4.79078 18.2664 6.73913 18.2174C8.69043 18.38 10.615 18.7655 12.4783 19.3653V4.06091Z" fill="white"/>
<path d="M1 23V1" stroke="#191919" stroke-linecap="round" stroke-linejoin="round"/>
<path d="M1 19.174C2.85892 18.5884 4.79078 18.2664 6.73913 18.2174C9.6087 18.2174 13.913 20.1305 16.7826 20.1305C18.6997 20.0396 20.5892 19.6377 22.3773 18.9406C22.5603 18.8724 22.718 18.7499 22.8293 18.5896C22.9406 18.4292 23.0002 18.2386 23 18.0433V4.76874C23 4.61677 22.9638 4.467 22.8943 4.33182C22.8249 4.19665 22.7243 4.07995 22.6008 3.99142C22.4773 3.90288 22.3344 3.84504 22.1841 3.82269C22.0338 3.80034 21.8804 3.81413 21.7364 3.86291C20.1439 4.4344 18.4733 4.75922 16.7826 4.82613C13.913 4.82613 9.6087 2.91309 6.73913 2.91309C4.79078 2.96208 2.85892 3.28405 1 3.86961V19.174Z" stroke="#191919" stroke-linecap="round" stroke-linejoin="round"/>
<path d="M12.8092 15.0026C12.7666 15.0477 12.7153 15.0835 12.6584 15.1081C12.6015 15.1326 12.5402 15.1452 12.4782 15.1452C12.4163 15.1452 12.355 15.1326 12.298 15.1081C12.2411 15.0835 12.1898 15.0477 12.1473 15.0026L9.21745 11.9465C8.93115 11.6602 8.74218 11.2911 8.67729 10.8915C8.6124 10.4918 8.67488 10.0819 8.85589 9.71974C8.99263 9.44638 9.19237 9.20942 9.43865 9.02838C9.68492 8.84734 9.97069 8.72741 10.2724 8.67846C10.5741 8.62952 10.8831 8.65296 11.174 8.74685C11.4649 8.84075 11.7293 9.00241 11.9455 9.21852L12.4782 9.7513L13.011 9.21852C13.2272 9.00241 13.4916 8.84075 13.7825 8.74685C14.0733 8.65296 14.3824 8.62952 14.6841 8.67846C14.9858 8.72741 15.2715 8.84734 15.5178 9.02838C15.7641 9.20942 15.9638 9.44638 16.1006 9.71974C16.2816 10.0819 16.3441 10.4918 16.2792 10.8915C16.2143 11.2911 16.0253 11.6602 15.739 11.9465L12.8092 15.0026Z" fill="#FF808C" stroke="#191919" stroke-linecap="round" stroke-linejoin="round"/>
</g>
<defs>
<clipPath id="clip0_5303_10689">
<rect width="24" height="24" fill="white"/>
</clipPath>
</defs>
</svg>
