<svg width="24" height="24" viewBox="0 0 24 24" fill="none" xmlns="http://www.w3.org/2000/svg">
<path d="M8.53056 11.1271L14.3171 16.9136C14.4131 17.0096 14.467 17.1397 14.467 17.2753C14.467 17.411 14.4131 17.5411 14.3171 17.6369L9.25389 22.7003C9.06205 22.8921 8.80187 22.9999 8.53056 22.9999C8.25927 22.9999 7.99907 22.8921 7.80724 22.7003L2.74395 17.6369C2.55211 17.4451 2.44434 17.1849 2.44434 16.9136C2.44434 16.6423 2.55211 16.3821 2.74395 16.1903L7.80724 11.1271C7.90315 11.0311 8.03325 10.9772 8.1689 10.9772C8.30455 10.9772 8.43464 11.0311 8.53056 11.1271Z" fill="#B2B2B2"/>
<path d="M11.6234 14.2203L5.47559 20.3682L7.80788 22.7005C7.99972 22.8923 8.25986 23 8.5311 23C8.80235 23 9.0625 22.8923 9.25432 22.7005L14.3178 17.6369C14.4138 17.541 14.4676 17.411 14.4676 17.2753C14.4676 17.1397 14.4138 17.0097 14.3178 16.9137L11.6234 14.2203Z" fill="#808080"/>
<path d="M8.89209 11.4901L12.8713 7.5119C12.9673 7.41602 13.0973 7.36215 13.2329 7.36215C13.3686 7.36215 13.4986 7.41602 13.5945 7.5119L17.9308 11.8502C18.0266 11.9461 18.0805 12.0762 18.0805 12.2118C18.0805 12.3474 18.0266 12.4775 17.9308 12.5734L13.9526 16.5526L8.89209 11.4901Z" fill="#B2B2B2"/>
<path d="M15.9639 9.88004L11.6235 14.2203L13.9558 16.5516L17.931 12.5734C18.0268 12.4776 18.0807 12.3474 18.0807 12.2118C18.0807 12.0762 18.0268 11.9461 17.931 11.8502L15.9639 9.88004Z" fill="#808080"/>
<path d="M13.9556 7.87199L20.6773 1.15026C20.7488 1.07855 20.84 1.02969 20.9394 1.00987C21.0387 0.99007 21.1417 1.0002 21.2353 1.03899C21.3288 1.07778 21.4088 1.14347 21.465 1.22775C21.5212 1.31203 21.5511 1.41109 21.5509 1.51238V7.09149C21.551 7.22598 21.5246 7.35918 21.4731 7.48346C21.4217 7.60773 21.3463 7.72065 21.2512 7.81573L17.5686 11.4983L13.9556 7.87199Z" fill="#FFBFC5"/>
<path d="M15.9639 9.88001L17.5729 11.4901L21.2555 7.80754C21.4474 7.61575 21.5552 7.3556 21.5552 7.08432V4.29272L15.9639 9.88001Z" fill="#FF808C"/>
<path d="M13.9556 7.87199L20.6773 1.15026C20.7488 1.07855 20.84 1.02969 20.9394 1.00987C21.0387 0.99007 21.1417 1.0002 21.2353 1.03899C21.3288 1.07778 21.4088 1.14347 21.465 1.22775C21.5212 1.31203 21.5511 1.41109 21.5509 1.51238V7.09149C21.551 7.22598 21.5246 7.35918 21.4731 7.48346C21.4217 7.60773 21.3463 7.72065 21.2512 7.81573L17.5686 11.4983L13.9556 7.87199Z" stroke="#191919" stroke-linecap="round" stroke-linejoin="round"/>
<path d="M8.53056 11.1271L14.3171 16.9136C14.4131 17.0096 14.467 17.1397 14.467 17.2753C14.467 17.411 14.4131 17.5411 14.3171 17.6369L9.25389 22.7003C9.06205 22.8921 8.80187 22.9999 8.53056 22.9999C8.25927 22.9999 7.99907 22.8921 7.80724 22.7003L2.74395 17.6369C2.55211 17.4451 2.44434 17.1849 2.44434 16.9136C2.44434 16.6423 2.55211 16.3821 2.74395 16.1903L7.80724 11.1271C7.90315 11.0311 8.03325 10.9772 8.1689 10.9772C8.30455 10.9772 8.43464 11.0311 8.53056 11.1271Z" stroke="#191919" stroke-linecap="round" stroke-linejoin="round"/>
<path d="M8.89209 11.4901L12.8713 7.5119C12.9673 7.41602 13.0973 7.36215 13.2329 7.36215C13.3686 7.36215 13.4986 7.41602 13.5945 7.5119L17.9308 11.8502C18.0266 11.9461 18.0805 12.0762 18.0805 12.2118C18.0805 12.3474 18.0266 12.4775 17.9308 12.5734L13.9526 16.5526L8.89209 11.4901Z" stroke="#191919" stroke-linecap="round" stroke-linejoin="round"/>
<path d="M13.2321 10.0427L11.7856 11.4891" stroke="#191919" stroke-linecap="round" stroke-linejoin="round"/>
</svg>
