<svg width="24" height="24" viewBox="0 0 24 24" fill="none" xmlns="http://www.w3.org/2000/svg">
<g clip-path="url(#clip0_5303_7786)">
<path d="M20.6057 12.0043C20.6063 13.4239 20.2555 14.8216 19.5849 16.0729C18.9142 17.324 17.9445 18.3899 16.762 19.1755H16.5038C16.4396 19.1746 16.3761 19.1868 16.3168 19.2115C16.2577 19.2362 16.2041 19.2727 16.1596 19.3188L14.5341 20.9443C14.4896 20.9905 14.436 21.027 14.3769 21.0517C14.3176 21.0764 14.2541 21.0886 14.19 21.0877H9.81075C9.74662 21.0886 9.68298 21.0764 9.62384 21.0517C9.56459 21.027 9.5111 20.9905 9.4666 20.9443L7.84112 19.3188C7.79662 19.2727 7.74303 19.2362 7.68389 19.2115C7.62464 19.1868 7.561 19.1746 7.49688 19.1755H7.23872C5.99965 18.3523 4.99513 17.2221 4.32313 15.8949C3.65124 14.5679 3.33471 13.0892 3.4045 11.6034C3.47438 10.1175 3.92823 8.67517 4.72174 7.41697C5.51525 6.15878 6.62138 5.1278 7.93219 4.42457C9.24299 3.72134 10.7138 3.36988 12.2008 3.40453C13.6879 3.43918 15.1407 3.85877 16.4174 4.62231C17.6939 5.38586 18.7509 6.4672 19.4849 7.76102C20.219 9.05484 20.6051 10.5167 20.6057 12.0043Z" fill="#66E1FF"/>
<path d="M11.9996 3.39894C10.294 3.3963 8.62641 3.9012 7.20893 4.84941C5.79134 5.79762 4.68804 7.14629 4.03957 8.72355C3.391 10.3009 3.22654 12.0355 3.56708 13.7067C3.90771 15.3778 4.73782 16.9097 5.9519 18.1074L18.1112 5.949C17.3124 5.14017 16.3606 4.49814 15.3114 4.06039C14.2622 3.62264 13.1364 3.39776 11.9996 3.39894Z" fill="#C2F3FF"/>
<path d="M22.9957 19.6535V20.1315C22.9957 22.2446 21.2843 23 19.1712 23H4.82905C2.71595 23 1.00439 22.2446 1.00439 20.1315V19.6535C1.00439 19.5267 1.05476 19.4051 1.14445 19.3154C1.23415 19.2258 1.35567 19.1754 1.48245 19.1754H7.49663C7.56075 19.1746 7.62439 19.1868 7.68364 19.2114C7.74278 19.2361 7.79637 19.2726 7.84087 19.3188L9.46635 20.9443C9.51086 20.9904 9.56435 21.027 9.6236 21.0516C9.68274 21.0762 9.74638 21.0885 9.8105 21.0877H14.1896C14.2539 21.0885 14.3174 21.0762 14.3766 21.0516C14.4358 21.027 14.4894 20.9904 14.5339 20.9443L16.1594 19.3188C16.2039 19.2726 16.2574 19.2361 16.3166 19.2114C16.3758 19.1868 16.4394 19.1746 16.5036 19.1754H22.5177C22.6445 19.1754 22.7661 19.2258 22.8558 19.3154C22.9454 19.4051 22.9957 19.5267 22.9957 19.6535Z" fill="#FF808C" stroke="#191919" stroke-linecap="round" stroke-linejoin="round"/>
<path d="M20.6057 12.0043C20.6063 13.4239 20.2555 14.8216 19.5849 16.0729C18.9142 17.324 17.9445 18.3899 16.762 19.1755H16.5038C16.4396 19.1746 16.3761 19.1868 16.3168 19.2115C16.2577 19.2362 16.2041 19.2727 16.1596 19.3188L14.5341 20.9443C14.4896 20.9905 14.436 21.027 14.3769 21.0517C14.3176 21.0764 14.2541 21.0886 14.19 21.0877H9.81075C9.74662 21.0886 9.68298 21.0764 9.62384 21.0517C9.56459 21.027 9.5111 20.9905 9.4666 20.9443L7.84112 19.3188C7.79662 19.2727 7.74303 19.2362 7.68389 19.2115C7.62464 19.1868 7.561 19.1746 7.49688 19.1755H7.23872C5.99965 18.3523 4.99513 17.2221 4.32313 15.8949C3.65124 14.5679 3.33471 13.0892 3.4045 11.6034C3.47438 10.1175 3.92823 8.67517 4.72174 7.41697C5.51525 6.15878 6.62138 5.1278 7.93219 4.42457C9.24299 3.72134 10.7138 3.36988 12.2008 3.40453C13.6879 3.43918 15.1407 3.85877 16.4174 4.62231C17.6939 5.38586 18.7509 6.4672 19.4849 7.76102C20.219 9.05484 20.6051 10.5167 20.6057 12.0043Z" stroke="#191919" stroke-linecap="round" stroke-linejoin="round"/>
<path d="M22.9957 12.0043C23 14.6364 22.0564 17.1819 20.3377 19.1755H16.7617C18.3011 18.1528 19.4704 16.6617 20.0965 14.9229C20.7226 13.1841 20.7723 11.2898 20.2382 9.5206C19.7041 7.75136 18.6146 6.20104 17.1308 5.09911C15.6472 3.99727 13.8482 3.40228 12.0001 3.40228C10.152 3.40228 8.35294 3.99727 6.86919 5.09911C5.38553 6.20104 4.29599 7.75136 3.76191 9.5206C3.22783 11.2898 3.27751 13.1841 3.90363 14.9229C4.52975 16.6617 5.69903 18.1528 7.23842 19.1755H3.67202C2.51347 17.8317 1.69742 16.2275 1.29334 14.4999C0.889268 12.7722 0.909276 10.9724 1.35161 9.25424C1.79395 7.53605 2.64553 5.9503 3.83365 4.63266C5.02176 3.31493 6.51108 2.30425 8.17443 1.68692C9.83787 1.06968 11.6259 0.86403 13.386 1.08773C15.1462 1.31134 16.826 1.95757 18.2822 2.97127C19.7383 3.98497 20.9276 5.33589 21.7483 6.90885C22.5692 8.48182 22.9971 10.2301 22.9957 12.0043Z" fill="#FF808C" stroke="#191919" stroke-linecap="round" stroke-linejoin="round"/>
</g>
<defs>
<clipPath id="clip0_5303_7786">
<rect width="24" height="24" fill="white"/>
</clipPath>
</defs>
</svg>
