<svg width="24" height="24" viewBox="0 0 24 24" fill="none" xmlns="http://www.w3.org/2000/svg">
<g clip-path="url(#clip0_5303_8018)">
<path d="M8.65222 1.68584C8.65217 1.59933 8.62867 1.51445 8.5842 1.44024C8.53973 1.36604 8.47596 1.30528 8.39969 1.26445C8.32343 1.22362 8.23752 1.20424 8.1511 1.20837C8.06469 1.2125 7.98102 1.24 7.909 1.28793L3.76535 4.05036C3.50324 4.225 3.28831 4.46167 3.13964 4.73932C2.99097 5.01698 2.91314 5.32705 2.91309 5.64201V13.2272H8.65222V1.68584Z" fill="#FF808C"/>
<path d="M22.9998 14.1837C22.9998 13.6763 22.7982 13.1897 22.4395 12.831C22.0807 12.4722 21.5941 12.2707 21.0867 12.2707H15.3476C14.8403 12.2707 14.3537 12.4722 13.9949 12.831C13.6361 13.1897 13.4346 13.6763 13.4346 14.1837V22.3142C13.4346 22.441 13.485 22.5627 13.5746 22.6523C13.6643 22.742 13.786 22.7924 13.9128 22.7924H22.5215C22.6484 22.7924 22.77 22.742 22.8598 22.6523C22.9494 22.5627 22.9998 22.441 22.9998 22.3142V14.1837Z" fill="#808080"/>
<path d="M10.5652 15.1402C10.5652 14.6328 10.3637 14.1462 10.0049 13.7875C9.64613 13.4287 9.15954 13.2272 8.65217 13.2272H2.91304C2.40568 13.2272 1.91908 13.4287 1.56032 13.7875C1.20155 14.1462 1 14.6328 1 15.1402V22.3142C1 22.441 1.05039 22.5627 1.14008 22.6523C1.22977 22.742 1.35142 22.7924 1.47826 22.7924H10.087C10.2138 22.7924 10.3355 22.742 10.4252 22.6523C10.5148 22.5627 10.5652 22.441 10.5652 22.3142V15.1402Z" fill="#808080"/>
<path d="M8.65217 13.2263H2.91304C2.40568 13.2263 1.91908 13.4278 1.56032 13.7866C1.20155 14.1454 1 14.632 1 15.1393V18.4632C1 17.9559 1.20155 17.4693 1.56032 17.1105C1.91908 16.7517 2.40568 16.5502 2.91304 16.5502H8.65217C9.15954 16.5502 9.64613 16.7517 10.0049 17.1105C10.3637 17.4693 10.5652 17.9559 10.5652 18.4632V15.1393C10.5652 14.632 10.3637 14.1454 10.0049 13.7866C9.64613 13.4278 9.15954 13.2263 8.65217 13.2263Z" fill="#B2B2B2"/>
<path d="M10.5652 15.1402C10.5652 14.6328 10.3637 14.1462 10.0049 13.7875C9.64613 13.4287 9.15954 13.2272 8.65217 13.2272H2.91304C2.40568 13.2272 1.91908 13.4287 1.56032 13.7875C1.20155 14.1462 1 14.6328 1 15.1402V22.3142C1 22.441 1.05039 22.5627 1.14008 22.6523C1.22977 22.742 1.35142 22.7924 1.47826 22.7924H10.087C10.2138 22.7924 10.3355 22.742 10.4252 22.6523C10.5148 22.5627 10.5652 22.441 10.5652 22.3142V15.1402Z" stroke="#191919" stroke-linecap="round" stroke-linejoin="round"/>
<path d="M21.0867 12.2697H15.3476C14.8403 12.2697 14.3537 12.4713 13.9949 12.8301C13.6361 13.1889 13.4346 13.6754 13.4346 14.1828V17.324C13.4346 16.8167 13.6361 16.3301 13.9949 15.9713C14.3537 15.6125 14.8403 15.411 15.3476 15.411H21.0867C21.5941 15.411 22.0807 15.6125 22.4395 15.9713C22.7982 16.3301 22.9998 16.8167 22.9998 17.324V14.1828C22.9998 13.6754 22.7982 13.1889 22.4395 12.8301C22.0807 12.4713 21.5941 12.2697 21.0867 12.2697Z" fill="#B2B2B2"/>
<path d="M22.9998 14.1837C22.9998 13.6763 22.7982 13.1897 22.4395 12.831C22.0807 12.4722 21.5941 12.2707 21.0867 12.2707H15.3476C14.8403 12.2707 14.3537 12.4722 13.9949 12.831C13.6361 13.1897 13.4346 13.6763 13.4346 14.1837V22.3142C13.4346 22.441 13.485 22.5627 13.5746 22.6523C13.6643 22.742 13.786 22.7924 13.9128 22.7924H22.5215C22.6484 22.7924 22.77 22.742 22.8598 22.6523C22.9494 22.5627 22.9998 22.441 22.9998 22.3142V14.1837Z" stroke="#191919" stroke-linecap="round" stroke-linejoin="round"/>
<path d="M8.39969 1.26401C8.32339 1.22324 8.23745 1.20394 8.15104 1.20815C8.06463 1.21236 7.98098 1.23993 7.909 1.28793L3.76535 4.05036C3.50324 4.225 3.28831 4.46166 3.13964 4.73932C2.99097 5.01698 2.91314 5.32706 2.91309 5.64201V9.11323C2.91299 8.79811 2.99074 8.48785 3.13942 8.21001C3.2881 7.93216 3.50311 7.69536 3.76535 7.52062L7.909 4.75819C7.98102 4.71025 8.06469 4.68276 8.1511 4.67863C8.23752 4.6745 8.32343 4.69388 8.39969 4.73471C8.47596 4.77555 8.53973 4.8363 8.5842 4.9105C8.62867 4.98471 8.65217 5.06959 8.65222 5.1561V1.68584C8.65225 1.59925 8.62878 1.51429 8.5843 1.43999C8.53983 1.3657 8.47603 1.30488 8.39969 1.26401Z" fill="#FFBFC5"/>
<path d="M8.65222 1.68584C8.65217 1.59933 8.62867 1.51445 8.5842 1.44024C8.53973 1.36604 8.47596 1.30528 8.39969 1.26445C8.32343 1.22362 8.23752 1.20424 8.1511 1.20837C8.06469 1.2125 7.98102 1.24 7.909 1.28793L3.76535 4.05036C3.50324 4.225 3.28831 4.46167 3.13964 4.73932C2.99097 5.01698 2.91314 5.32705 2.91309 5.64201V13.2272H8.65222V1.68584Z" stroke="#191919" stroke-linecap="round" stroke-linejoin="round"/>
<path d="M6.73926 4.14026V9.87939" stroke="#191919" stroke-linecap="round" stroke-linejoin="round"/>
<path d="M22.9998 18.0098H13.4346V20.8794H22.9998V18.0098Z" fill="#FFEF5E" stroke="#191919" stroke-linecap="round" stroke-linejoin="round"/>
</g>
<defs>
<clipPath id="clip0_5303_8018">
<rect width="24" height="24" fill="white"/>
</clipPath>
</defs>
</svg>
