<svg width="24" height="24" viewBox="0 0 24 24" fill="none" xmlns="http://www.w3.org/2000/svg">
<g clip-path="url(#clip0_5303_9643)">
<mask id="mask0_5303_9643" style="mask-type:luminance" maskUnits="userSpaceOnUse" x="0" y="0" width="24" height="24">
<path d="M0 0H24V24H0V0Z" fill="white"/>
</mask>
<g mask="url(#mask0_5303_9643)">
<path d="M15.3615 1.2179L8.33301 6.2381V22.8795C8.4423 22.8796 8.5489 22.8456 8.63787 22.7821L15.6663 17.7619V1.12048C15.557 1.12035 15.4504 1.15442 15.3615 1.2179Z" fill="#C9F7CA"/>
<path d="M1.82867 1.59193C1.75034 1.53588 1.65807 1.5025 1.56201 1.49548C1.46594 1.48845 1.3698 1.50805 1.28415 1.55212C1.1985 1.59619 1.12667 1.66302 1.07654 1.74527C1.0264 1.82752 0.999922 1.92199 1 2.01832V17.4927C0.999933 17.576 1.01976 17.6582 1.05785 17.7324C1.09593 17.8065 1.15116 17.8705 1.21895 17.919L8.02848 22.7821C8.11744 22.8456 8.22404 22.8796 8.33333 22.8795V6.23813L1.82867 1.59193Z" fill="#78EB7B"/>
<path d="M22.7814 6.08095L15.9718 1.2179C15.8829 1.15442 15.7763 1.12035 15.667 1.12048V17.7619L22.1717 22.4081C22.25 22.4642 22.3423 22.4975 22.4383 22.5046C22.5344 22.5116 22.6305 22.492 22.7162 22.4479C22.8018 22.4038 22.8737 22.337 22.9238 22.2548C22.9739 22.1725 23.0004 22.078 23.0003 21.9817V6.50733C23.0004 6.42397 22.9806 6.34179 22.9425 6.26763C22.9044 6.19347 22.8492 6.12947 22.7814 6.08095Z" fill="#78EB7B"/>
<path d="M8.63819 22.7821C8.54928 22.8457 8.44267 22.8799 8.33333 22.8799C8.22399 22.8799 8.11739 22.8457 8.02848 22.7821L1.21895 17.919C1.15116 17.8705 1.09593 17.8065 1.05785 17.7324C1.01976 17.6582 0.999933 17.576 1 17.4927V2.01829C0.999922 1.92197 1.0264 1.8275 1.07654 1.74525C1.12667 1.663 1.1985 1.59617 1.28415 1.5521C1.3698 1.50803 1.46594 1.48843 1.56201 1.49545C1.65807 1.50248 1.75034 1.53585 1.82867 1.59191L8.33333 6.2381L15.3618 1.21791C15.4507 1.15428 15.5573 1.12006 15.6667 1.12006C15.776 1.12006 15.8826 1.15428 15.9715 1.21791L22.781 6.08096C22.8488 6.12948 22.9041 6.19348 22.9422 6.26764C22.9802 6.3418 23.0001 6.42398 23 6.50734V21.9817C23.0001 22.078 22.9736 22.1725 22.9235 22.2548C22.8733 22.337 22.8015 22.4038 22.7158 22.4479C22.6302 22.492 22.5341 22.5116 22.438 22.5046C22.3419 22.4975 22.2497 22.4642 22.1713 22.4081L15.6667 17.7619L8.63819 22.7821Z" stroke="#191919" stroke-linecap="round" stroke-linejoin="round"/>
<path d="M8.33301 6.2381V22.8806" stroke="#191919" stroke-linecap="round" stroke-linejoin="round"/>
<path d="M15.667 17.7619V1.11945" stroke="#191919" stroke-linecap="round" stroke-linejoin="round"/>
</g>
</g>
<defs>
<clipPath id="clip0_5303_9643">
<rect width="24" height="24" fill="white"/>
</clipPath>
</defs>
</svg>
