<svg width="24" height="24" viewBox="0 0 24 24" fill="none" xmlns="http://www.w3.org/2000/svg">
<g clip-path="url(#clip0_5303_11624)">
<path d="M12 9.90005L20.4106 1.4904C20.6812 1.22905 21.0436 1.08443 21.4198 1.0877C21.796 1.09097 22.1559 1.24186 22.4219 1.50788C22.6879 1.7739 22.8388 2.13376 22.8421 2.50995C22.8453 2.88614 22.7007 3.24856 22.4394 3.51916L14.0288 11.9298L12 9.90005Z" fill="#FFBC44"/>
<path d="M22.4743 1.52578L22.4399 1.49039C22.1708 1.22142 21.8059 1.07031 21.4255 1.07031C21.045 1.07031 20.6802 1.22142 20.4111 1.49039L12.9102 8.98944L13.9623 10.0416L22.4743 1.52578Z" fill="#FFDDA1"/>
<path d="M12 9.90005L20.4106 1.4904C20.6812 1.22905 21.0436 1.08443 21.4198 1.0877C21.796 1.09097 22.1559 1.24186 22.4219 1.50788C22.6879 1.7739 22.8388 2.13376 22.8421 2.50995C22.8453 2.88614 22.7007 3.24856 22.4394 3.51916L14.0288 11.9298L12 9.90005Z" stroke="#191919" stroke-linecap="round" stroke-linejoin="round"/>
<path d="M17.1167 15.0174L3.58972 1.4904C3.31912 1.22905 2.95669 1.08443 2.5805 1.0877C2.20431 1.09097 1.84445 1.24186 1.57844 1.50788C1.31242 1.7739 1.16153 2.13376 1.15826 2.50995C1.15499 2.88614 1.2996 3.24856 1.56096 3.51916L15.0879 17.0461L17.1167 15.0174Z" fill="#FFBC44"/>
<path d="M16.0673 16.0666L17.1194 15.0145L3.58956 1.48942C3.3205 1.22044 2.95563 1.06934 2.57518 1.06934C2.19473 1.06934 1.82986 1.22044 1.5608 1.48942L1.52637 1.52576L16.0673 16.0666Z" fill="#FFDDA1"/>
<path d="M17.1167 15.0174L3.58972 1.4904C3.31912 1.22905 2.95669 1.08443 2.5805 1.0877C2.20431 1.09097 1.84445 1.24186 1.57844 1.50788C1.31242 1.7739 1.16153 2.13376 1.15826 2.50995C1.15499 2.88614 1.2996 3.24856 1.56096 3.51916L15.0879 17.0461L17.1167 15.0174Z" stroke="#191919" stroke-linecap="round" stroke-linejoin="round"/>
<path d="M8.91226 17.0462L3.44963 22.5089C3.24921 22.7101 2.99355 22.8472 2.71508 22.9029C2.43661 22.9586 2.14787 22.9304 1.88547 22.8218C1.62307 22.7132 1.39883 22.5291 1.24119 22.2929C1.08355 22.0567 0.999605 21.7789 1 21.495C0.999917 21.3065 1.03696 21.1199 1.109 20.9458C1.18105 20.7716 1.2867 20.6134 1.41991 20.4801L6.8835 15.0175L8.91226 17.0462Z" fill="#E3E3E3" stroke="#191919" stroke-linecap="round" stroke-linejoin="round"/>
<path d="M5.19238 13.3263L10.6034 18.7372" stroke="#191919" stroke-linecap="round" stroke-linejoin="round"/>
<path d="M22.4388 1.49039C22.1698 1.22142 21.8049 1.07031 21.4245 1.07031C21.044 1.07031 20.6791 1.22142 20.4101 1.49039L17.7041 4.19445L19.7338 6.22225L22.4388 3.5182C22.7078 3.24914 22.8589 2.88427 22.8589 2.50382C22.8589 2.12337 22.7078 1.75945 22.4388 1.49039Z" fill="#E3E3E3" stroke="#191919" stroke-linecap="round" stroke-linejoin="round"/>
<path d="M8.23621 17.7224H4.17773" stroke="#191919" stroke-linecap="round" stroke-linejoin="round"/>
<path d="M5.86805 20.0898H1.80957" stroke="#191919" stroke-linecap="round" stroke-linejoin="round"/>
<path d="M15.0879 17.0462L20.5505 22.5089C20.6837 22.6421 20.8419 22.7479 21.016 22.82C21.19 22.8922 21.3766 22.9293 21.565 22.9294C21.7535 22.9294 21.9401 22.8923 22.1142 22.8203C22.2883 22.7482 22.4465 22.6425 22.5798 22.5093C22.713 22.3761 22.8188 22.218 22.8909 22.0439C22.9631 21.8698 23.0002 21.6833 23.0003 21.4948C23.0003 21.3064 22.9632 21.1198 22.8912 20.9457C22.8191 20.7716 22.7135 20.6134 22.5802 20.4801L17.1167 15.0175L15.0879 17.0462Z" fill="#E3E3E3" stroke="#191919" stroke-linecap="round" stroke-linejoin="round"/>
<path d="M18.8065 13.3263L13.3955 18.7372" stroke="#191919" stroke-linecap="round" stroke-linejoin="round"/>
<path d="M3.58972 1.4904C3.31912 1.22905 2.95669 1.08443 2.5805 1.0877C2.20431 1.09097 1.84445 1.24186 1.57844 1.50788C1.31242 1.7739 1.16153 2.13376 1.15826 2.50995C1.15499 2.88614 1.2996 3.24856 1.56096 3.51916L4.26597 6.22418L6.29569 4.19637L3.58972 1.4904Z" fill="#E3E3E3" stroke="#191919" stroke-linecap="round" stroke-linejoin="round"/>
<path d="M12.3823 10.2826L10.3525 12.3114" stroke="#191919" stroke-linecap="round" stroke-linejoin="round"/>
<path d="M15.7627 17.7224H19.8212" stroke="#191919" stroke-linecap="round" stroke-linejoin="round"/>
<path d="M18.1309 20.0898H22.1893" stroke="#191919" stroke-linecap="round" stroke-linejoin="round"/>
<path d="M9.97139 11.9297L6.88281 15.0174L8.91157 17.0452L12.0001 13.9595L9.97139 11.9297Z" fill="#FFBC44"/>
<path d="M9.03783 12.8633L6.88281 15.0173L7.93211 16.0666L10.0871 13.9126L9.03783 12.8633Z" fill="#FFDDA1"/>
<path d="M9.97139 11.9297L6.88281 15.0174L8.91157 17.0452L12.0001 13.9595L9.97139 11.9297Z" stroke="#191919" stroke-linecap="round" stroke-linejoin="round"/>
</g>
<defs>
<clipPath id="clip0_5303_11624">
<rect width="24" height="24" fill="white"/>
</clipPath>
</defs>
</svg>
