<svg width="24" height="24" viewBox="0 0 24 24" fill="none" xmlns="http://www.w3.org/2000/svg">
<g clip-path="url(#clip0_5303_11596)">
<path d="M17.4235 15.6804C18.5058 17.0199 20.0333 17.9259 21.7278 18.2333C21.9496 18.2716 22.1508 18.3868 22.296 18.5588C22.4412 18.7308 22.5211 18.9485 22.5217 19.1736V22.0431C22.5217 22.1802 22.4922 22.3159 22.4352 22.4407C22.3783 22.5654 22.2951 22.6766 22.1914 22.7664C22.0877 22.8562 21.9658 22.9226 21.8342 22.9612C21.7026 22.9998 21.5642 23.0096 21.4284 22.99C19.9189 22.7704 18.4715 22.2398 17.1779 21.4317C15.8843 20.6236 14.7725 19.5557 13.9131 18.2955L17.4235 15.6804Z" fill="#808080"/>
<path d="M21.7334 20.6246C20.5719 20.4139 19.48 19.9207 18.554 19.1886C17.6279 18.4566 16.896 17.508 16.4229 16.4265L17.4243 15.6804C18.5066 17.0199 20.0342 17.9259 21.7286 18.2333C21.9504 18.2716 22.1517 18.3868 22.2969 18.5588C22.4421 18.7308 22.5219 18.9485 22.5225 19.1736V21.5648C22.5221 21.3404 22.4429 21.1233 22.2987 20.9514C22.1544 20.7795 21.9543 20.6639 21.7334 20.6246Z" fill="#B2B2B2"/>
<path d="M17.4225 15.6794C18.5066 17.0203 20.0367 17.9268 21.7335 18.2333C21.9543 18.2728 22.1542 18.3885 22.2982 18.5604C22.4423 18.7323 22.5214 18.9493 22.5217 19.1735V22.0431C22.5218 22.1804 22.4922 22.3161 22.4352 22.441C22.3781 22.5658 22.2949 22.6769 22.1911 22.7668C22.0872 22.8566 21.9654 22.9231 21.8336 22.9616C21.7017 23.0001 21.5632 23.0098 21.4274 22.99C19.918 22.7706 18.4708 22.24 17.1773 21.4319C15.8837 20.6238 14.7722 19.5558 13.9131 18.2955" stroke="#191919" stroke-linecap="round" stroke-linejoin="round"/>
<path d="M6.57575 15.6804C5.49343 17.0199 3.96588 17.9259 2.27146 18.2333C2.04983 18.2718 1.84884 18.3871 1.70382 18.5591C1.55881 18.7311 1.47902 18.9486 1.47852 19.1736V22.0431C1.47848 22.1802 1.50796 22.3159 1.56494 22.4407C1.62192 22.5654 1.70509 22.6766 1.8088 22.7664C1.91249 22.8562 2.0343 22.9226 2.16596 22.9612C2.29761 22.9998 2.43602 23.0096 2.57181 22.99C4.08127 22.7706 5.5287 22.2399 6.82237 21.4319C8.11605 20.6237 9.22777 19.5557 10.0871 18.2955L6.57575 15.6804Z" fill="#808080"/>
<path d="M2.26668 20.6246C3.42825 20.414 4.52019 19.9209 5.44629 19.1888C6.37238 18.4568 7.10418 17.5081 7.57722 16.4265L6.57575 15.6804C5.49343 17.0199 3.96588 17.9259 2.27146 18.2333C2.04983 18.2718 1.84884 18.3871 1.70382 18.5591C1.5588 18.7311 1.47902 18.9486 1.47852 19.1736V21.5648C1.47883 21.3405 1.55792 21.1236 1.70198 20.9517C1.84605 20.7798 2.04593 20.6641 2.26668 20.6246Z" fill="#B2B2B2"/>
<path d="M6.57575 15.6804C5.49343 17.0199 3.96588 17.9259 2.27146 18.2333C2.04983 18.2718 1.84884 18.3871 1.70382 18.5591C1.55881 18.7311 1.47902 18.9486 1.47852 19.1736V22.0431C1.47848 22.1802 1.50796 22.3159 1.56494 22.4407C1.62192 22.5654 1.70509 22.6766 1.8088 22.7664C1.91249 22.8562 2.0343 22.9226 2.16596 22.9612C2.29761 22.9998 2.43602 23.0096 2.57181 22.99C4.08127 22.7706 5.5287 22.2399 6.82237 21.4319C8.11605 20.6237 9.22777 19.5557 10.0871 18.2955" stroke="#191919" stroke-linecap="round" stroke-linejoin="round"/>
<path d="M13.9129 17.9456V22.0433C13.9129 22.297 13.8121 22.5402 13.6328 22.7196C13.4534 22.899 13.2101 22.9998 12.9564 22.9998H11.0434C10.7898 22.9998 10.5464 22.899 10.3671 22.7196C10.1877 22.5402 10.0869 22.297 10.0869 22.0433V17.9456" fill="#808080"/>
<path d="M13.9129 17.9456V22.0433C13.9129 22.297 13.8121 22.5402 13.6328 22.7196C13.4534 22.899 13.2101 22.9998 12.9564 22.9998H11.0434C10.7898 22.9998 10.5464 22.899 10.3671 22.7196C10.1877 22.5402 10.0869 22.297 10.0869 22.0433V17.9456" stroke="#191919" stroke-linecap="round" stroke-linejoin="round"/>
<path d="M11.9997 18.2172C16.2259 18.2172 19.6518 14.363 19.6518 9.60858C19.6518 4.85419 16.2259 1 11.9997 1C7.7736 1 4.34766 4.85419 4.34766 9.60858C4.34766 14.363 7.7736 18.2172 11.9997 18.2172Z" fill="#808080" stroke="#191919" stroke-linecap="round" stroke-linejoin="round"/>
<path d="M11.9998 16.304C15.1694 16.304 17.7388 13.3063 17.7388 9.60853C17.7388 5.91067 15.1694 2.91296 11.9998 2.91296C8.8302 2.91296 6.26074 5.91067 6.26074 9.60853C6.26074 13.3063 8.8302 16.304 11.9998 16.304Z" fill="#E3E3E3"/>
<path d="M11.9998 5.78249C14.7469 5.78249 17.0435 8.03507 17.6059 11.0432C17.6947 10.5702 17.7392 10.0898 17.7388 9.60853C17.7388 5.91066 15.1687 2.91296 11.9998 2.91296C8.83088 2.91296 6.26074 5.91066 6.26074 9.60853C6.2604 10.0898 6.30491 10.5702 6.3937 11.0432C6.95613 8.03507 9.2527 5.78249 11.9998 5.78249Z" fill="#B2B2B2"/>
<path d="M11.9998 16.304C15.1694 16.304 17.7388 13.3063 17.7388 9.60853C17.7388 5.91067 15.1694 2.91296 11.9998 2.91296C8.8302 2.91296 6.26074 5.91067 6.26074 9.60853C6.26074 13.3063 8.8302 16.304 11.9998 16.304Z" stroke="#191919" stroke-linecap="round" stroke-linejoin="round"/>
<path d="M12 2.91296V16.304" stroke="#191919" stroke-linecap="round" stroke-linejoin="round"/>
<path d="M6.81445 6.73901H17.1868" stroke="#191919" stroke-linecap="round" stroke-linejoin="round"/>
<path d="M6.26074 9.60852H17.7388" stroke="#191919" stroke-linecap="round" stroke-linejoin="round"/>
<path d="M6.81445 12.4781H17.1868" stroke="#191919" stroke-linecap="round" stroke-linejoin="round"/>
</g>
<defs>
<clipPath id="clip0_5303_11596">
<rect width="24" height="24" fill="white"/>
</clipPath>
</defs>
</svg>
