<svg width="24" height="24" viewBox="0 0 24 24" fill="none" xmlns="http://www.w3.org/2000/svg">
<g clip-path="url(#clip0_5303_7867)">
<path d="M12.3601 1L12.4032 1.50215C12.5237 2.87661 13.0727 4.90913 13.879 4.90913C14.2788 4.90913 14.5304 4.67862 14.9407 4.27116C15.2297 3.91822 15.5923 3.63264 16.0033 3.4344C16.4142 3.23615 16.8633 3.13 17.3195 3.12339C20.6671 3.12339 22.999 6.40029 22.999 11.0928C23.0265 13.7681 22.1743 16.3782 20.5734 18.5218C19.6493 19.6907 18.4633 20.6261 17.1112 21.2526C15.7592 21.8792 14.2789 22.1792 12.7896 22.1286C11.7525 22.1298 10.7283 21.8984 9.79236 21.4515C8.85646 21.0046 8.03268 20.3535 7.38164 19.5462C6.96939 19.1215 6.34864 18.4099 5.77092 18.4845C3.76231 18.7427 4.09995 22.3553 4.10378 22.3917L4.11908 23H1V22.4778C1 18.6958 2.11717 15.8494 4.3209 15.2592C4.65915 15.1695 5.00777 15.1247 5.35772 15.1263C7.33477 15.1263 9.84362 16.935 12.1344 13.7575C16.0626 8.3056 10.077 8.50933 9.29651 1.61023L9.22573 1H12.3601Z" fill="#FFBFC5"/>
<path d="M5.77076 18.4834C6.34465 18.4088 6.96923 19.1204 7.38148 19.5451C8.03252 20.3525 8.85631 21.0035 9.7922 21.4504C10.7281 21.8974 11.7523 22.1287 12.7894 22.1276C14.2787 22.1782 15.759 21.8781 17.1111 21.2516C18.4632 20.6251 19.6491 19.6896 20.5733 18.5207C20.6861 18.3763 20.7885 18.2194 20.8946 18.0673C21.2036 11.6034 15.2897 11.855 13.0515 12.2165C12.7953 12.7587 12.4872 13.2747 12.1314 13.7574C9.84059 16.9349 7.33174 15.1262 5.3547 15.1262C5.00472 15.1241 4.65603 15.1689 4.31787 15.2591C6.54743 15.9669 7.74877 18.4834 5.77076 18.4834Z" fill="#FF808C"/>
<path d="M13.7214 16.1535C13.5972 16.4323 13.3964 16.67 13.1425 16.8393C12.8885 17.0086 12.5918 17.1025 12.2867 17.11H12.2781C11.8639 17.1096 11.4516 17.1663 11.0529 17.2784C10.9427 17.3074 10.8412 17.3627 10.757 17.4394C10.6729 17.5162 10.6086 17.6123 10.5696 17.7193C10.5305 17.8263 10.518 17.9412 10.533 18.0542C10.5481 18.1671 10.5902 18.2747 10.6559 18.3678C11.0561 18.9223 11.5842 19.372 12.1953 19.6789C12.8064 19.9858 13.4825 20.1407 14.1662 20.1306C16.4618 20.1306 18.6971 18.4405 18.6971 16.3544C18.6941 16.031 18.6247 15.7116 18.4933 15.4161C18.3398 15.0442 18.0739 14.7296 17.7327 14.5163C17.3916 14.303 16.9924 14.2016 16.5909 14.2262C15.9902 14.284 15.4134 14.4905 14.9124 14.827C14.4114 15.1634 14.0022 15.6193 13.7214 16.1535Z" fill="#FFEF5E" stroke="#191919" stroke-linecap="round" stroke-linejoin="round"/>
<path d="M9.22573 1L9.2946 1.61119C10.0751 8.50837 16.0607 8.30655 12.1325 13.7585C9.8417 16.9359 7.33286 15.1272 5.35581 15.1272C5.00585 15.1257 4.65724 15.1704 4.31899 15.2602C2.11717 15.8484 1 18.6949 1 22.4768V22.999" stroke="#191919" stroke-linecap="round" stroke-linejoin="round"/>
<path d="M4.11869 22.999L4.10339 22.3907C4.10339 22.3544 3.76288 18.7418 5.77053 18.4835C6.34442 18.4089 6.969 19.1205 7.38125 19.5452C8.03229 20.3526 8.85607 21.0036 9.79197 21.4505C10.7279 21.8975 11.7521 22.1288 12.7892 22.1277C14.2785 22.1783 15.7589 21.8782 17.1108 21.2517C18.4629 20.6252 19.6489 19.6897 20.573 18.5208C22.1741 16.3769 23.0264 13.7664 22.9986 11.0909C22.9986 6.39837 20.6629 3.12147 17.3191 3.12147C16.8629 3.12809 16.4138 3.23423 16.0029 3.43248C15.5919 3.63073 15.2293 3.91631 14.9403 4.26925C14.53 4.67671 14.2784 4.90722 13.8786 4.90722C13.0752 4.90722 12.5233 2.8747 12.4028 1.50024L12.3597 1" stroke="#191919" stroke-linecap="round" stroke-linejoin="round"/>
</g>
<defs>
<clipPath id="clip0_5303_7867">
<rect width="24" height="24" fill="white"/>
</clipPath>
</defs>
</svg>
