<svg width="24" height="24" viewBox="0 0 24 24" fill="none" xmlns="http://www.w3.org/2000/svg">
<path d="M13.9131 2.91304C13.9131 2.40568 13.7115 1.91908 13.3528 1.56032C12.994 1.20155 12.5074 1 12 1C11.4927 1 11.0061 1.20155 10.6473 1.56032C10.2885 1.91908 10.087 2.40568 10.087 2.91304H3.86961C3.61592 2.91304 3.37263 3.01382 3.19324 3.1932C3.01387 3.37259 2.91309 3.61588 2.91309 3.86957V22.0435C2.91309 22.2971 3.01387 22.5405 3.19324 22.7198C3.37263 22.8992 3.61592 23 3.86961 23H20.1305C20.3841 23 20.6275 22.8992 20.8068 22.7198C20.9862 22.5405 21.087 22.2971 21.087 22.0435V3.86957C21.087 3.61588 20.9862 3.37259 20.8068 3.1932C20.6275 3.01382 20.3841 2.91304 20.1305 2.91304H13.9131Z" fill="#C77F67" stroke="#191919" stroke-linecap="round" stroke-linejoin="round"/>
<path d="M18.6957 4.82608H5.30443C5.0403 4.82608 4.82617 5.04021 4.82617 5.30434V20.6087C4.82617 20.8728 5.0403 21.087 5.30443 21.087H18.6957C18.9598 21.087 19.174 20.8728 19.174 20.6087V5.30434C19.174 5.04021 18.9598 4.82608 18.6957 4.82608Z" fill="#E3E3E3"/>
<path d="M15.3477 9.13044H13.4347V7.2174C13.4347 7.09055 13.3843 6.9689 13.2947 6.87922C13.2049 6.78953 13.0833 6.73914 12.9564 6.73914H11.0434C10.9166 6.73914 10.7949 6.78953 10.7052 6.87922C10.6155 6.9689 10.5651 7.09055 10.5651 7.2174V9.13044H8.65209C8.52524 9.13044 8.40359 9.18083 8.31391 9.27052C8.22422 9.36021 8.17383 9.48186 8.17383 9.6087V11.5217C8.17383 11.6486 8.22422 11.7702 8.31391 11.86C8.40359 11.9496 8.52524 12 8.65209 12H10.5651V13.913C10.5651 14.0399 10.6155 14.1616 10.7052 14.2513C10.7949 14.3409 10.9166 14.3913 11.0434 14.3913H12.9564C13.0833 14.3913 13.2049 14.3409 13.2947 14.2513C13.3843 14.1616 13.4347 14.0399 13.4347 13.913V12H15.3477C15.4746 12 15.5962 11.9496 15.686 11.86C15.7756 11.7702 15.826 11.6486 15.826 11.5217V9.6087C15.826 9.48186 15.7756 9.36021 15.686 9.27052C15.5962 9.18083 15.4746 9.13044 15.3477 9.13044Z" fill="#FF808C"/>
<path d="M17.8004 4.82608H5.30443C5.17759 4.82608 5.05594 4.87647 4.96625 4.96616C4.87656 5.05585 4.82617 5.1775 4.82617 5.30434V17.8003L17.8004 4.82608Z" fill="white"/>
<path d="M13.4959 9.13044H13.4347V7.2174C13.4347 7.09055 13.3843 6.9689 13.2947 6.87922C13.2049 6.78953 13.0833 6.73914 12.9564 6.73914H11.0434C10.9166 6.73914 10.7949 6.78953 10.7052 6.87922C10.6155 6.9689 10.5651 7.09055 10.5651 7.2174V9.13044H8.65209C8.52524 9.13044 8.40359 9.18083 8.31391 9.27052C8.22422 9.36021 8.17383 9.48186 8.17383 9.6087V11.5217C8.17383 11.6486 8.22422 11.7702 8.31391 11.86C8.40359 11.9496 8.52524 12 8.65209 12H10.5651V12.0612L13.4959 9.13044Z" fill="#FFBFC5"/>
<path d="M18.6957 4.82608H5.30443C5.0403 4.82608 4.82617 5.04021 4.82617 5.30434V20.6087C4.82617 20.8728 5.0403 21.087 5.30443 21.087H18.6957C18.9598 21.087 19.174 20.8728 19.174 20.6087V5.30434C19.174 5.04021 18.9598 4.82608 18.6957 4.82608Z" stroke="#191919" stroke-linecap="round" stroke-linejoin="round"/>
<path d="M15.3477 9.13044H13.4347V7.2174C13.4347 7.09055 13.3843 6.9689 13.2947 6.87922C13.2049 6.78953 13.0833 6.73914 12.9564 6.73914H11.0434C10.9166 6.73914 10.7949 6.78953 10.7052 6.87922C10.6155 6.9689 10.5651 7.09055 10.5651 7.2174V9.13044H8.65209C8.52524 9.13044 8.40359 9.18083 8.31391 9.27052C8.22422 9.36021 8.17383 9.48186 8.17383 9.6087V11.5217C8.17383 11.6486 8.22422 11.7702 8.31391 11.86C8.40359 11.9496 8.52524 12 8.65209 12H10.5651V13.913C10.5651 14.0399 10.6155 14.1616 10.7052 14.2513C10.7949 14.3409 10.9166 14.3913 11.0434 14.3913H12.9564C13.0833 14.3913 13.2049 14.3409 13.2947 14.2513C13.3843 14.1616 13.4347 14.0399 13.4347 13.913V12H15.3477C15.4746 12 15.5962 11.9496 15.686 11.86C15.7756 11.7702 15.826 11.6486 15.826 11.5217V9.6087C15.826 9.48186 15.7756 9.36021 15.686 9.27052C15.5962 9.18083 15.4746 9.13044 15.3477 9.13044Z" stroke="#191919" stroke-linecap="round" stroke-linejoin="round"/>
<path d="M7.6958 16.3044H16.3045" stroke="#191919" stroke-linecap="round" stroke-linejoin="round"/>
<path d="M7.6958 18.2174H16.3045" stroke="#191919" stroke-linecap="round" stroke-linejoin="round"/>
</svg>
