<svg width="24" height="24" viewBox="0 0 24 24" fill="none" xmlns="http://www.w3.org/2000/svg">
<g clip-path="url(#clip0_5303_7918)">
<path d="M17.321 10.747L16.9576 9.65671C16.7673 9.08524 16.4019 8.58824 15.9134 8.23598C15.4249 7.88373 14.8378 7.69418 14.2355 7.69409H9.76329C9.16098 7.69418 8.57399 7.88373 8.08538 8.23598C7.59687 8.58824 7.23154 9.08524 7.04121 9.65671L6.67783 10.747C6.54704 11.1397 6.50273 11.556 6.54792 11.9674C6.59321 12.3788 6.72683 12.7756 6.9399 13.1304L7.33774 13.7923C7.44686 13.974 7.60097 14.1243 7.78535 14.229C7.96972 14.3335 8.17791 14.3887 8.38981 14.3891C8.4759 14.3868 8.56159 14.3754 8.64524 14.3547V16.302H15.3374V14.3528C15.4257 14.3751 15.5162 14.3872 15.607 14.3891C15.819 14.3887 16.0272 14.3336 16.2116 14.2291C16.3959 14.1244 16.55 13.974 16.6592 13.7923L17.0561 13.1304C17.2695 12.7758 17.4037 12.3792 17.4495 11.9677C17.4952 11.5564 17.4513 11.1399 17.321 10.747Z" fill="#66E1FF"/>
<path d="M20.6079 19.1722C21.9285 19.1722 22.999 18.1017 22.999 16.7811C22.999 15.4605 21.9285 14.3901 20.6079 14.3901C19.2873 14.3901 18.2168 15.4606 18.2168 16.7811C18.2168 18.1016 19.2874 19.1722 20.6079 19.1722Z" fill="#FFDDA1" stroke="#191919" stroke-linecap="round" stroke-linejoin="round"/>
<path d="M11.9995 5.78211C13.3201 5.78211 14.3906 4.71159 14.3906 3.39101C14.3906 2.07052 13.3201 1 11.9995 1C10.6789 1 9.6084 2.07052 9.6084 3.39101C9.6084 4.71159 10.6789 5.78211 11.9995 5.78211Z" fill="#FFDDA1" stroke="#191919" stroke-linecap="round" stroke-linejoin="round"/>
<path d="M9.13071 21.0852H1.00098" stroke="#191919" stroke-linecap="round" stroke-linejoin="round"/>
<path d="M22.9988 21.0852H16.3037" stroke="#191919" stroke-linecap="round" stroke-linejoin="round"/>
<path d="M2.91357 14.3901V16.303" stroke="#191919" stroke-linecap="round" stroke-linejoin="round"/>
<path d="M4.82666 14.3901V16.303" stroke="#191919" stroke-linecap="round" stroke-linejoin="round"/>
<path d="M11.5215 14.3901V16.303" stroke="#191919" stroke-linecap="round" stroke-linejoin="round"/>
<path d="M14.8176 16.3021H2.43566C2.0551 16.3021 1.69026 16.4532 1.42116 16.7223C1.15217 16.9913 1.00098 17.3562 1.00098 17.7368C1.00098 18.1172 1.15217 18.4821 1.42116 18.7512C1.69026 19.0202 2.0551 19.1713 2.43566 19.1713H12.2802L11.2606 20.7973C11.1601 20.9571 11.0922 21.1351 11.0604 21.3213C11.0288 21.5074 11.0341 21.6979 11.0761 21.882C11.1608 22.2537 11.3898 22.5766 11.7125 22.7796C12.0353 22.9824 12.4254 23.0488 12.7972 22.964C13.169 22.8793 13.4918 22.6503 13.6948 22.3277L16.0859 18.5019C16.2237 18.2806 16.2989 18.026 16.3033 17.7654C16.3077 17.5047 16.2414 17.2477 16.1111 17.0218C15.981 16.7959 15.7918 16.6097 15.564 16.4828C15.3362 16.3562 15.0781 16.2937 14.8176 16.3021Z" fill="#FFDDA1" stroke="#191919" stroke-linecap="round" stroke-linejoin="round"/>
<path d="M8.65188 11.0416L9.44764 12.525C9.61552 12.8048 9.6655 13.1398 9.58634 13.4564C9.50728 13.773 9.30563 14.0452 9.0259 14.2132C8.74607 14.3811 8.41099 14.4309 8.09446 14.3518C7.77783 14.2727 7.50571 14.0711 7.33774 13.7913L6.9399 13.1295C6.72683 12.7747 6.59321 12.3778 6.54792 11.9665C6.50273 11.555 6.54704 11.1388 6.67783 10.7461L7.04121 9.65573C7.23174 9.08446 7.59717 8.58765 8.08568 8.23559C8.57418 7.88354 9.16108 7.69409 9.76329 7.69409H14.2355C14.8377 7.69409 15.4246 7.88354 15.9131 8.23559C16.4016 8.58765 16.7671 9.08446 16.9576 9.65573L17.321 10.7461C17.4519 11.1387 17.4962 11.555 17.4509 11.9665C17.4057 12.3778 17.272 12.7747 17.0589 13.1295L16.6621 13.7913C16.4941 14.0711 16.2219 14.2727 15.9053 14.3518C15.5888 14.431 15.2537 14.3811 14.9739 14.2132C14.6942 14.0452 14.4925 13.773 14.4134 13.4564C14.3344 13.1399 14.3842 12.8048 14.5521 12.525L15.3469 11.0416" stroke="#191919" stroke-linecap="round" stroke-linejoin="round"/>
</g>
<defs>
<clipPath id="clip0_5303_7918">
<rect width="24" height="24" fill="white"/>
</clipPath>
</defs>
</svg>
