<svg width="24" height="24" viewBox="0 0 24 24" fill="none" xmlns="http://www.w3.org/2000/svg">
<path d="M18.6953 20.1304C19.7518 20.1304 20.6083 19.274 20.6083 18.2174C20.6083 17.1608 19.7518 16.3044 18.6953 16.3044C17.6387 16.3044 16.7822 17.1608 16.7822 18.2174C16.7822 19.274 17.6387 20.1304 18.6953 20.1304Z" fill="#E3E3E3"/>
<path d="M18.6954 16.3044C18.3183 16.3046 17.9495 16.4164 17.6357 16.6256C17.3217 16.8347 17.0768 17.1321 16.9314 17.4802C16.7861 17.8283 16.7469 18.2115 16.8187 18.5818C16.8905 18.9521 17.0703 19.2929 17.3352 19.5613L20.0393 16.8572C19.682 16.5026 19.1988 16.3039 18.6954 16.3044Z" fill="white"/>
<path d="M13.9129 1H7.21726C6.689 1 6.26074 1.42825 6.26074 1.95652V12.4783C6.26074 13.0065 6.689 13.4348 7.21726 13.4348H13.9129C14.4412 13.4348 14.8694 13.0065 14.8694 12.4783V1.95652C14.8694 1.42825 14.4412 1 13.9129 1Z" fill="#66E1FF"/>
<path d="M14.6992 1.44383C14.616 1.30976 14.5003 1.19882 14.3629 1.12125C14.2254 1.04368 14.0707 1.00198 13.9129 1H7.21726C6.96358 1 6.72028 1.10078 6.5409 1.28016C6.36152 1.45954 6.26074 1.70283 6.26074 1.95652V9.88226L14.6992 1.44383Z" fill="#C2F3FF"/>
<path d="M10.5649 17.2609V21.087C10.5649 21.5943 10.7665 22.0809 11.1253 22.4397C11.4841 22.7985 11.9706 23 12.478 23C12.9853 23 13.4719 22.7985 13.8307 22.4397C14.1895 22.0809 14.391 21.5943 14.391 21.087V20.6087C14.391 19.9745 14.643 19.3663 15.0914 18.9178C15.5399 18.4693 16.1482 18.2174 16.7823 18.2174" stroke="#191919" stroke-linecap="round" stroke-linejoin="round"/>
<path d="M18.6953 20.1304C19.7518 20.1304 20.6083 19.274 20.6083 18.2174C20.6083 17.1608 19.7518 16.3044 18.6953 16.3044C17.6387 16.3044 16.7822 17.1608 16.7822 18.2174C16.7822 19.274 17.6387 20.1304 18.6953 20.1304Z" stroke="#191919" stroke-linecap="round" stroke-linejoin="round"/>
<path d="M13.9129 1H7.21726C6.689 1 6.26074 1.42825 6.26074 1.95652V12.4783C6.26074 13.0065 6.689 13.4348 7.21726 13.4348H13.9129C14.4412 13.4348 14.8694 13.0065 14.8694 12.4783V1.95652C14.8694 1.42825 14.4412 1 13.9129 1Z" stroke="#191919" stroke-linecap="round" stroke-linejoin="round"/>
<path d="M10.5649 10.3261C10.6284 10.3261 10.6892 10.3512 10.7341 10.3961C10.7789 10.441 10.8041 10.5018 10.8041 10.5652" stroke="#191919" stroke-linecap="round" stroke-linejoin="round"/>
<path d="M10.3257 10.5652C10.3257 10.5018 10.3508 10.441 10.3957 10.3961C10.4406 10.3512 10.5014 10.3261 10.5648 10.3261" stroke="#191919" stroke-linecap="round" stroke-linejoin="round"/>
<path d="M10.5648 10.8043C10.5014 10.8043 10.4406 10.7792 10.3957 10.7343C10.3508 10.6895 10.3257 10.6286 10.3257 10.5652" stroke="#191919" stroke-linecap="round" stroke-linejoin="round"/>
<path d="M10.8041 10.5652C10.8041 10.6286 10.7789 10.6895 10.7341 10.7343C10.6892 10.7792 10.6284 10.8043 10.5649 10.8043" stroke="#191919" stroke-linecap="round" stroke-linejoin="round"/>
<path d="M16.7824 5.78262C17.0361 5.78262 17.2794 5.8834 17.4588 6.06278C17.6381 6.24217 17.7389 6.48546 17.7389 6.73915V10.087C17.7389 11.9896 16.9831 13.8143 15.6377 15.1597C14.2924 16.505 12.4676 17.2609 10.565 17.2609C8.66239 17.2609 6.83767 16.505 5.4923 15.1597C4.14694 13.8143 3.39111 11.9896 3.39111 10.087V6.73915C3.39111 6.48546 3.49189 6.24217 3.67127 6.06278C3.85066 5.8834 4.09395 5.78262 4.34764 5.78262" stroke="#191919" stroke-linecap="round" stroke-linejoin="round"/>
</svg>
