<svg width="24" height="24" viewBox="0 0 24 24" fill="none" xmlns="http://www.w3.org/2000/svg">
<path d="M8.79911 23V20.1304H7.84258C7.08153 20.1304 6.35164 19.8281 5.8135 19.29C5.27535 18.7518 4.97302 18.0219 4.97302 17.2609V14.3913H2.28519C2.20974 14.3914 2.13534 14.3735 2.06809 14.3393C2.00083 14.3051 1.94262 14.2555 1.89822 14.1945C1.85381 14.1335 1.82448 14.0628 1.8126 13.9883C1.80073 13.9138 1.80665 13.8375 1.82989 13.7657C3.81085 7.63348 5.18824 1.00001 12.8643 1.00001C14.8316 0.99741 16.7492 1.61763 18.3424 2.77178C19.9355 3.92593 21.1224 5.55477 21.733 7.4249C22.3436 9.29502 22.3466 11.3104 21.7414 13.1823C21.1363 15.0542 19.9541 16.6865 18.3643 17.8453V23H8.79911Z" fill="#FFDDA1"/>
<path d="M12.6251 3.84948C14.5022 3.84919 16.3498 4.31688 18.0007 5.21022C19.6516 6.10356 21.0537 7.39438 22.0803 8.96591C21.7553 6.75334 20.6456 4.73137 18.9537 3.26898C17.2618 1.80659 15.1005 1.00128 12.8642 1C7.48472 1 5.20151 4.26078 3.63281 8.32217C4.68419 6.93255 6.04331 5.80549 7.60351 5.02946C9.16371 4.25343 10.8825 3.84953 12.6251 3.84948Z" fill="#FFDDA1"/>
<path d="M8.79911 23V20.1304H7.84258C7.08153 20.1304 6.35164 19.8281 5.8135 19.29C5.27535 18.7518 4.97302 18.0219 4.97302 17.2609V14.3913H2.28519C2.20974 14.3914 2.13534 14.3735 2.06809 14.3393C2.00083 14.3051 1.94262 14.2555 1.89822 14.1945C1.85381 14.1335 1.82448 14.0628 1.8126 13.9883C1.80073 13.9138 1.80665 13.8375 1.82989 13.7657C3.81085 7.63348 5.18824 1.00001 12.8643 1.00001C14.8316 0.99741 16.7492 1.61763 18.3424 2.77178C19.9355 3.92593 21.1224 5.55477 21.733 7.4249C22.3436 9.29502 22.3466 11.3104 21.7414 13.1823C21.1363 15.0542 19.9541 16.6865 18.3643 17.8453V23" stroke="#191919" stroke-linecap="round" stroke-linejoin="round"/>
<path d="M8.55518 15.8328C8.58649 15.8325 8.61754 15.8385 8.64654 15.8503C8.67554 15.8621 8.70192 15.8795 8.72415 15.9016C8.74638 15.9236 8.76403 15.9499 8.77607 15.9788C8.78811 16.0077 8.79431 16.0387 8.79431 16.07" stroke="#191919" stroke-linecap="round" stroke-linejoin="round"/>
<path d="M8.3208 16.07C8.32131 16.0069 8.34672 15.9466 8.39151 15.9021C8.4363 15.8577 8.49684 15.8328 8.55993 15.8328" stroke="#191919" stroke-linecap="round" stroke-linejoin="round"/>
<path d="M8.55554 16.3044C8.49245 16.3044 8.43191 16.2794 8.38712 16.235C8.34233 16.1906 8.31691 16.1302 8.31641 16.0671" stroke="#191919" stroke-linecap="round" stroke-linejoin="round"/>
<path d="M8.79919 16.07C8.79906 16.1013 8.79278 16.1322 8.78069 16.161C8.76861 16.1899 8.75096 16.2161 8.72875 16.2381C8.70655 16.2601 8.68022 16.2776 8.65128 16.2894C8.62233 16.3013 8.59134 16.3073 8.56006 16.3072" stroke="#191919" stroke-linecap="round" stroke-linejoin="round"/>
<path d="M11.4292 12.3128C11.4925 12.3128 11.5531 12.3378 11.598 12.3825C11.6428 12.4271 11.6681 12.4877 11.6683 12.5509" stroke="#191919" stroke-linecap="round" stroke-linejoin="round"/>
<path d="M11.1904 12.5509C11.1907 12.4877 11.216 12.4271 11.2608 12.3825C11.3056 12.3378 11.3663 12.3128 11.4296 12.3128" stroke="#191919" stroke-linecap="round" stroke-linejoin="round"/>
<path d="M11.4296 12.7882C11.3982 12.7884 11.3672 12.7825 11.3382 12.7706C11.3092 12.7588 11.2828 12.7414 11.2606 12.7194C11.2384 12.6973 11.2207 12.6711 11.2087 12.6422C11.1966 12.6133 11.1904 12.5822 11.1904 12.5509" stroke="#191919" stroke-linecap="round" stroke-linejoin="round"/>
<path d="M11.6683 12.5509C11.6678 12.614 11.6424 12.6744 11.5976 12.7188C11.5528 12.7632 11.4923 12.7882 11.4292 12.7882" stroke="#191919" stroke-linecap="round" stroke-linejoin="round"/>
<path d="M12.8643 17.2676C12.8956 17.2673 12.9266 17.2733 12.9556 17.2851C12.9846 17.2969 13.011 17.3143 13.0332 17.3364C13.0555 17.3584 13.0731 17.3846 13.0851 17.4135C13.0972 17.4425 13.1034 17.4735 13.1034 17.5048" stroke="#191919" stroke-linecap="round" stroke-linejoin="round"/>
<path d="M12.625 17.5048C12.6255 17.4417 12.6509 17.3813 12.6957 17.3369C12.7405 17.2925 12.801 17.2675 12.8641 17.2675" stroke="#191919" stroke-linecap="round" stroke-linejoin="round"/>
<path d="M12.8641 17.7391C12.801 17.7391 12.7405 17.7142 12.6957 17.6698C12.6509 17.6253 12.6255 17.565 12.625 17.5019" stroke="#191919" stroke-linecap="round" stroke-linejoin="round"/>
<path d="M13.1034 17.5048C13.1033 17.536 13.097 17.567 13.0849 17.5958C13.0728 17.6247 13.0552 17.6509 13.033 17.6729C13.0107 17.6949 12.9844 17.7124 12.9555 17.7242C12.9265 17.7361 12.8955 17.7421 12.8643 17.742" stroke="#191919" stroke-linecap="round" stroke-linejoin="round"/>
<path d="M5.69043 11.7953C5.75352 11.7953 5.81406 11.8202 5.85885 11.8647C5.90364 11.9091 5.92906 11.9694 5.92956 12.0325" stroke="#191919" stroke-linecap="round" stroke-linejoin="round"/>
<path d="M5.45117 12.0325C5.45168 11.9694 5.47709 11.9091 5.52188 11.8647C5.56668 11.8202 5.62721 11.7953 5.6903 11.7953" stroke="#191919" stroke-linecap="round" stroke-linejoin="round"/>
<path d="M5.6903 12.2707C5.64331 12.2706 5.59738 12.2567 5.55825 12.2306C5.51913 12.2046 5.48854 12.1676 5.4703 12.1243C5.45793 12.0953 5.45142 12.0641 5.45117 12.0325" stroke="#191919" stroke-linecap="round" stroke-linejoin="round"/>
<path d="M5.92956 12.0325C5.92956 12.0959 5.90437 12.1567 5.85952 12.2016C5.81467 12.2464 5.75385 12.2716 5.69043 12.2716" stroke="#191919" stroke-linecap="round" stroke-linejoin="round"/>
<path d="M8.55518 8.03809C8.61843 8.03809 8.67911 8.06315 8.72393 8.10779C8.76875 8.15243 8.79405 8.213 8.79431 8.27626" stroke="#191919" stroke-linecap="round" stroke-linejoin="round"/>
<path d="M8.3208 8.27626C8.3208 8.2449 8.32699 8.21385 8.33902 8.18489C8.35105 8.15594 8.36868 8.12964 8.3909 8.10751C8.41312 8.08538 8.43948 8.06786 8.46849 8.05594C8.4975 8.04403 8.52857 8.03796 8.55993 8.03809" stroke="#191919" stroke-linecap="round" stroke-linejoin="round"/>
<path d="M8.55554 8.51346C8.52426 8.51359 8.49326 8.50755 8.46432 8.4957C8.43537 8.48385 8.40905 8.46641 8.38684 8.44438C8.36464 8.42235 8.34699 8.39617 8.3349 8.36732C8.32282 8.33847 8.31653 8.30752 8.31641 8.27625" stroke="#191919" stroke-linecap="round" stroke-linejoin="round"/>
<path d="M8.79919 8.27625C8.79906 8.30752 8.79278 8.33847 8.78069 8.36732C8.76861 8.39617 8.75096 8.42235 8.72875 8.44438C8.70655 8.46641 8.68022 8.48385 8.65128 8.4957C8.62233 8.50755 8.59134 8.51359 8.56006 8.51346" stroke="#191919" stroke-linecap="round" stroke-linejoin="round"/>
</svg>
