<svg width="24" height="24" viewBox="0 0 24 24" fill="none" xmlns="http://www.w3.org/2000/svg">
<path d="M14.0592 1.95654H13.1716C12.0125 1.95634 10.8928 2.37704 10.0207 3.14045C9.14853 3.90385 8.5833 4.95801 8.43008 6.10689L6.56104 20.1304" stroke="#191919" stroke-linecap="round" stroke-linejoin="round"/>
<path d="M8.05991 20.7847C7.99644 20.5942 7.87461 20.4284 7.71169 20.311C7.54876 20.1936 7.353 20.1303 7.15217 20.1304H5.66191C5.46107 20.1303 5.26531 20.1936 5.10239 20.311C4.93947 20.4284 4.81763 20.5942 4.75417 20.7847L4.22617 22.3706C4.20224 22.4424 4.1957 22.519 4.20713 22.5939C4.21855 22.6688 4.24759 22.7398 4.29186 22.8012C4.33613 22.8627 4.39436 22.9128 4.46177 22.9474C4.52918 22.9819 4.60381 22.9999 4.67956 23H8.13452C8.21034 23.0001 8.28509 22.9821 8.35262 22.9477C8.42014 22.9131 8.47851 22.8631 8.52288 22.8017C8.56727 22.7402 8.59639 22.669 8.60786 22.594C8.61934 22.5192 8.61282 22.4425 8.58886 22.3706L8.05991 20.7847Z" fill="#808080" stroke="#191919" stroke-linecap="round" stroke-linejoin="round"/>
<path d="M7.19922 15.3478H16.4536C16.6883 15.3492 16.915 15.4339 17.0929 15.5871C17.2707 15.7403 17.3883 15.9519 17.4244 16.1838L17.8855 19.1739" stroke="#191919" stroke-linecap="round" stroke-linejoin="round"/>
<path d="M17.8852 23C18.9418 23 19.7983 22.1435 19.7983 21.087C19.7983 20.0304 18.9418 19.1739 17.8852 19.1739C16.8286 19.1739 15.9722 20.0304 15.9722 21.087C15.9722 22.1435 16.8286 23 17.8852 23Z" fill="#808080" stroke="#191919" stroke-linecap="round" stroke-linejoin="round"/>
<path d="M19.7982 1.95652C19.7982 1.70283 19.6974 1.45954 19.518 1.28016C19.3387 1.10078 19.0954 1 18.8417 1H15.0156C14.7619 1 14.5186 1.10078 14.3392 1.28016C14.1599 1.45954 14.0591 1.70283 14.0591 1.95652C14.0591 2.21021 14.1599 2.4535 14.3392 2.63289C14.5186 2.81226 14.7619 2.91304 15.0156 2.91304H18.8417C19.0954 2.91304 19.3387 2.81226 19.518 2.63289C19.6974 2.4535 19.7982 2.21021 19.7982 1.95652Z" fill="#808080" stroke="#191919" stroke-linecap="round" stroke-linejoin="round"/>
</svg>
