<svg width="24" height="24" viewBox="0 0 24 24" fill="none" xmlns="http://www.w3.org/2000/svg">
<g clip-path="url(#clip0_5303_7977)">
<path d="M8.54359 14.1154L1.14257 21.5155C1.09294 21.5649 1.05479 21.6247 1.03081 21.6905C1.00684 21.7564 0.997627 21.8267 1.00383 21.8965C1.01004 21.9663 1.0315 22.0338 1.06672 22.0945C1.10193 22.155 1.15003 22.2071 1.2076 22.2471C2.09412 22.8639 4.2076 23.8614 6.51426 21.5538C7.21961 20.7011 7.58144 19.616 7.52893 18.5107C7.52893 16.4824 9.89583 15.4677 9.89583 15.4677" fill="#E3E3E3"/>
<path d="M1.14257 21.5155C1.09294 21.5649 1.05479 21.6247 1.03081 21.6906C1.00684 21.7564 0.997627 21.8268 1.00383 21.8965C1.01004 21.9663 1.0315 22.0339 1.06672 22.0945C1.10193 22.1551 1.15003 22.2072 1.2076 22.2471C1.83056 22.6913 2.56597 22.9511 3.3297 22.9968L6.16138 16.4938L1.14257 21.5155Z" fill="white"/>
<path d="M8.54359 14.1154L1.14257 21.5155C1.09294 21.5649 1.05479 21.6247 1.03081 21.6905C1.00684 21.7564 0.997627 21.8267 1.00383 21.8965C1.01004 21.9663 1.0315 22.0338 1.06672 22.0945C1.10193 22.155 1.15003 22.2071 1.2076 22.2471C2.09412 22.8639 4.2076 23.8614 6.51426 21.5538C7.21961 20.7011 7.58144 19.616 7.52893 18.5107C7.52893 16.4824 9.89583 15.4677 9.89583 15.4677" stroke="#191919" stroke-linecap="round" stroke-linejoin="round"/>
<path d="M22.4376 1.56457C22.7962 1.92325 22.9977 2.40964 22.9977 2.91681C22.9977 3.42398 22.7962 3.91039 22.4376 4.26906L11.2486 15.4677C11.0693 15.6469 10.8261 15.7476 10.5725 15.7476C10.3189 15.7476 10.0757 15.6469 9.89638 15.4677L8.54318 14.1154C8.36389 13.936 8.26318 13.6928 8.26318 13.4393C8.26318 13.1857 8.36389 12.9425 8.54318 12.7631L19.7322 1.56457C19.9098 1.38688 20.1207 1.24592 20.3528 1.14976C20.585 1.05359 20.8337 1.00409 21.0849 1.00409C21.3361 1.00409 21.585 1.05359 21.8171 1.14976C22.0492 1.24592 22.2601 1.38688 22.4376 1.56457Z" fill="#808080"/>
<path d="M9.92794 14.148L21.117 2.94938C21.351 2.71642 21.6414 2.54821 21.9599 2.4612C22.2784 2.37421 22.6141 2.37139 22.934 2.45305C22.854 2.12404 22.6877 1.82234 22.4523 1.57909C22.2167 1.33583 21.9206 1.15984 21.5944 1.06929C21.2682 0.978741 20.9236 0.976908 20.5964 1.06398C20.2693 1.15106 19.9712 1.32388 19.7332 1.56462L8.54318 12.767C8.45426 12.8559 8.38372 12.9613 8.3356 13.0774C8.28747 13.1935 8.2627 13.318 8.2627 13.4436C8.2627 13.5693 8.28747 13.6938 8.3356 13.8098C8.38372 13.9259 8.45426 14.0314 8.54318 14.1202L9.89638 15.4677C9.90253 15.4722 9.90892 15.4763 9.91551 15.4801C9.74394 15.3 9.64927 15.0602 9.6516 14.8116C9.65392 14.5628 9.75304 14.3248 9.92794 14.148Z" fill="#B2B2B2"/>
<path d="M22.4376 1.56457C22.7962 1.92325 22.9977 2.40964 22.9977 2.91681C22.9977 3.42398 22.7962 3.91039 22.4376 4.26906L11.2486 15.4677C11.0693 15.6469 10.8261 15.7476 10.5725 15.7476C10.3189 15.7476 10.0757 15.6469 9.89638 15.4677L8.54318 14.1154C8.36389 13.936 8.26318 13.6928 8.26318 13.4393C8.26318 13.1857 8.36389 12.9425 8.54318 12.7631L19.7322 1.56457C19.9098 1.38688 20.1207 1.24592 20.3528 1.14976C20.585 1.05359 20.8337 1.00409 21.0849 1.00409C21.3361 1.00409 21.585 1.05359 21.8171 1.14976C22.0492 1.24592 22.2601 1.38688 22.4376 1.56457Z" stroke="#191919" stroke-linecap="round" stroke-linejoin="round"/>
</g>
<defs>
<clipPath id="clip0_5303_7977">
<rect width="24" height="24" fill="white"/>
</clipPath>
</defs>
</svg>
