<svg width="24" height="24" viewBox="0 0 24 24" fill="none" xmlns="http://www.w3.org/2000/svg">
<g clip-path="url(#clip0_5303_8083)">
<path d="M5.78341 22.2831C6.57583 22.2831 7.2182 21.645 7.2182 20.8579C7.2182 20.0707 6.57583 19.4326 5.78341 19.4326C4.991 19.4326 4.34863 20.0707 4.34863 20.8579C4.34863 21.645 4.991 22.2831 5.78341 22.2831Z" fill="#808080" stroke="#191919" stroke-linecap="round" stroke-linejoin="round"/>
<path d="M18.218 22.2831C19.0104 22.2831 19.6528 21.645 19.6528 20.8579C19.6528 20.0707 19.0104 19.4326 18.218 19.4326C17.4256 19.4326 16.7832 20.0707 16.7832 20.8579C16.7832 21.645 17.4256 22.2831 18.218 22.2831Z" fill="#808080" stroke="#191919" stroke-linecap="round" stroke-linejoin="round"/>
<path d="M6.896 19.9578L17.7391 12.7169" stroke="#191919" stroke-linecap="round" stroke-linejoin="round"/>
<path d="M17.1039 19.9578L6.26074 12.7169" stroke="#191919" stroke-linecap="round" stroke-linejoin="round"/>
<path d="M7.13574 20.3825H16.8645" stroke="#191919" stroke-linecap="round" stroke-linejoin="round"/>
<path d="M23 11.2821C23 11.6626 22.8489 12.0276 22.5798 12.2967C22.3107 12.5658 21.9457 12.7169 21.5652 12.7169H5.18383C4.77068 12.717 4.36861 12.5834 4.03774 12.3359C3.70686 12.0885 3.46498 11.7406 3.34827 11.3443L1.05835 3.55727C0.95092 3.19209 0.992951 2.79919 1.1752 2.465C1.35746 2.13081 1.665 1.88271 2.03018 1.77527C2.39536 1.66784 2.78826 1.70987 3.12245 1.89212C3.45664 2.07437 3.70474 2.38192 3.81218 2.7471L5.69748 9.16058C5.75577 9.3589 5.87676 9.53301 6.04229 9.65682C6.20784 9.78062 6.40902 9.84747 6.61574 9.84736H21.5652C21.9457 9.84736 22.3107 9.99852 22.5798 10.2675C22.8489 10.5367 23 10.9016 23 11.2821Z" fill="white"/>
<path d="M22.5465 11.2908H6.16512C5.75184 11.2908 5.34968 11.1569 5.0188 10.9094C4.68791 10.6618 4.4461 10.3137 4.32955 9.91716L2.03869 2.13012C2.00813 2.02031 1.99048 1.90732 1.98608 1.79343C1.63304 1.90994 1.33902 2.15893 1.16595 2.48796C0.992873 2.81697 0.954264 3.20033 1.05825 3.55725L3.34816 11.3434C3.46471 11.7399 3.70651 12.0879 4.0374 12.3356C4.36828 12.5831 4.77045 12.7169 5.18373 12.7169H21.5651C21.9456 12.7169 22.3106 12.5657 22.5797 12.2966C22.8488 12.0276 22.9999 11.6627 22.9999 11.2822C22.9999 11.2582 22.9942 11.2362 22.9932 11.2123C22.8495 11.2623 22.6987 11.2888 22.5465 11.2908Z" fill="#C2F3FF"/>
<path d="M23 11.2821C23 11.6626 22.8489 12.0276 22.5798 12.2967C22.3107 12.5658 21.9457 12.7169 21.5652 12.7169H5.18383C4.77068 12.717 4.36861 12.5834 4.03774 12.3359C3.70686 12.0885 3.46498 11.7406 3.34827 11.3443L1.05835 3.55727C0.95092 3.19209 0.992951 2.79919 1.1752 2.465C1.35746 2.13081 1.665 1.88271 2.03018 1.77527C2.39536 1.66784 2.78826 1.70987 3.12245 1.89212C3.45664 2.07437 3.70474 2.38192 3.81218 2.7471L5.69748 9.16058C5.75577 9.3589 5.87676 9.53301 6.04229 9.65682C6.20784 9.78062 6.40902 9.84747 6.61574 9.84736H21.5652C21.9457 9.84736 22.3107 9.99852 22.5798 10.2675C22.8489 10.5367 23 10.9016 23 11.2821Z" stroke="#191919" stroke-linecap="round" stroke-linejoin="round"/>
<path d="M8.44102 7.93527C8.13111 7.93524 7.82954 7.83488 7.58142 7.64918C7.3333 7.46348 7.15199 7.20243 7.06459 6.9051L6.08033 3.55727C5.97289 3.19209 6.01492 2.79919 6.19718 2.465C6.37943 2.13081 6.68697 1.88271 7.05215 1.77527C7.41733 1.66784 7.81024 1.70987 8.14443 1.89212C8.47861 2.07437 8.72672 2.38192 8.83415 2.7471L9.81841 6.09493C9.87147 6.27586 9.88835 6.46549 9.86808 6.65296C9.8478 6.84044 9.79077 7.02207 9.70025 7.18748C9.60972 7.35289 9.48748 7.49884 9.34051 7.61698C9.19354 7.73511 9.02472 7.82312 8.84372 7.87597C8.71306 7.91511 8.57741 7.93508 8.44102 7.93527Z" fill="#66E1FF" stroke="#191919" stroke-linecap="round" stroke-linejoin="round"/>
</g>
<defs>
<clipPath id="clip0_5303_8083">
<rect width="24" height="24" fill="white"/>
</clipPath>
</defs>
</svg>
