<svg width="24" height="24" viewBox="0 0 24 24" fill="none" xmlns="http://www.w3.org/2000/svg">
<g clip-path="url(#clip0_5303_7792)">
<path d="M10.7622 12.4883C10.394 7.57272 10.0869 3.34301 10.0869 2.9231C10.0869 2.41574 10.2885 1.92915 10.6472 1.57039C11.006 1.21162 11.4926 1.01007 11.9999 1.01007C12.5073 1.01007 12.9939 1.21162 13.3526 1.57039C13.7114 1.92915 13.913 2.41574 13.913 2.9231C13.913 3.34588 13.6059 7.57559 13.2377 12.494L12.9507 16.3201C12.7852 18.5086 12.6198 20.677 12.4725 22.5757C12.457 22.6904 12.4004 22.7956 12.3132 22.8717C12.2261 22.9479 12.1142 22.9899 11.9985 22.9899C11.8828 22.9899 11.771 22.9479 11.6838 22.8717C11.5966 22.7956 11.5401 22.6904 11.5246 22.5757C11.3792 20.677 11.2146 18.5086 11.0463 16.3201L10.7622 12.4883Z" fill="#66E1FF"/>
<path d="M11.9999 3.38127C12.4002 3.38304 12.7899 3.51035 13.1141 3.74527C13.4383 3.98019 13.6805 4.31087 13.8068 4.69074C13.8738 3.71318 13.913 3.07136 13.913 2.9231C13.913 2.41574 13.7114 1.92915 13.3526 1.57039C12.9939 1.21162 12.5073 1.01007 11.9999 1.01007C11.4926 1.01007 11.006 1.21162 10.6472 1.57039C10.2885 1.92915 10.0869 2.41574 10.0869 2.9231C10.0869 3.07423 10.1261 3.71605 10.1931 4.69361C10.3189 4.31321 10.561 3.9819 10.8851 3.74643C11.2094 3.51098 11.5993 3.38324 11.9999 3.38127Z" fill="#C2F3FF"/>
<path d="M10.1145 3.48648C7.5912 0.436148 3.81584 3.97526 1.35185 4.6936C1.27367 4.71579 1.20227 4.75716 1.14414 4.81396C1.086 4.87075 1.04298 4.94117 1.01898 5.01882C0.996377 5.09581 0.993918 5.17731 1.01184 5.25553C1.02976 5.33374 1.06746 5.40604 1.12133 5.46551C2.5628 7.06193 6.51034 8.34749 10.3928 7.49524" fill="#66E1FF"/>
<path d="M13.8848 3.48648C16.4081 0.436148 20.1834 3.97526 22.6474 4.6936C22.7256 4.71579 22.797 4.75716 22.8552 4.81396C22.9132 4.87075 22.9563 4.94117 22.9803 5.01882C23.0029 5.09581 23.0054 5.17731 22.9875 5.25553C22.9695 5.33374 22.9318 5.40604 22.8779 5.46551C21.4365 7.06193 17.4889 8.34749 13.6064 7.49524" fill="#66E1FF"/>
<path d="M13.8848 3.48648C16.4081 0.436148 20.1834 3.97526 22.6474 4.6936C22.7256 4.71579 22.797 4.75716 22.8552 4.81396C22.9132 4.87075 22.9563 4.94117 22.9803 5.01882C23.0029 5.09581 23.0054 5.17731 22.9875 5.25553C22.9695 5.33374 22.9318 5.40604 22.8779 5.46551C21.4365 7.06193 17.4889 8.34749 13.6064 7.49524" fill="#66E1FF"/>
<path d="M2.59341 6.55785C4.9627 5.4196 7.96616 3.29518 10.235 5.22542L10.1145 3.48648C7.5912 0.436148 3.81584 3.97526 1.35185 4.6936C1.27367 4.71579 1.20227 4.75716 1.14414 4.81396C1.086 4.87075 1.04298 4.94117 1.01898 5.01882C0.996377 5.09581 0.993918 5.17731 1.01184 5.25553C1.02976 5.33374 1.06746 5.40604 1.12133 5.46551C1.54645 5.91055 2.04425 6.27994 2.59341 6.55785Z" fill="#C2F3FF"/>
<path d="M21.4067 6.55787C19.0374 5.42344 16.034 3.29902 13.7651 5.22927L13.8857 3.49032C16.4089 0.436169 20.1843 3.97528 22.6483 4.69362C22.7264 4.7158 22.7979 4.75718 22.8561 4.81397C22.9141 4.87077 22.9572 4.94119 22.9812 5.01884C23.0037 5.09583 23.0062 5.17733 22.9883 5.25554C22.9704 5.33375 22.9327 5.40605 22.8788 5.46553C22.4537 5.91057 21.9559 6.27996 21.4067 6.55787Z" fill="#C2F3FF"/>
<path d="M10.1145 3.48648C7.5912 0.436148 3.81584 3.97526 1.35185 4.6936C1.27367 4.71579 1.20227 4.75716 1.14414 4.81396C1.086 4.87075 1.04298 4.94117 1.01898 5.01882C0.996377 5.09581 0.993918 5.17731 1.01184 5.25553C1.02976 5.33374 1.06746 5.40604 1.12133 5.46551C2.5628 7.06193 6.51034 8.34749 10.3928 7.49524" stroke="#191919" stroke-linecap="round" stroke-linejoin="round"/>
<path d="M13.8848 3.48648C16.4081 0.436148 20.1834 3.97526 22.6474 4.6936C22.7256 4.71579 22.797 4.75716 22.8552 4.81396C22.9132 4.87075 22.9563 4.94117 22.9803 5.01882C23.0029 5.09581 23.0054 5.17731 22.9875 5.25553C22.9695 5.33374 22.9318 5.40604 22.8779 5.46551C21.4365 7.06193 17.4889 8.34749 13.6064 7.49524" stroke="#191919" stroke-linecap="round" stroke-linejoin="round"/>
<path d="M15.1142 9.57373C16.9794 10.0109 18.2344 10.8306 18.2344 11.7737C18.2344 13.2152 17.164 13.8369 15.7474 14.1047C14.5065 14.2813 13.2524 14.3486 11.9998 14.3056C10.9641 14.2763 9.92855 14.3727 8.91598 14.5926C7.72129 14.9015 6.93408 15.507 6.93408 16.6376C6.93408 18.586 9.20102 18.9763 12.0036 18.9763C12.0036 18.9763 15.5102 18.9763 14.3404 22.0936" stroke="#191919" stroke-linecap="round" stroke-linejoin="round"/>
<path d="M16.8314 15.6992C16.9911 15.9857 17.0716 16.3096 17.0647 16.6376C17.0647 18.586 14.7968 18.9763 11.9952 18.9763C11.9952 18.9763 8.48863 18.9763 9.65749 22.0936" stroke="#191919" stroke-linecap="round" stroke-linejoin="round"/>
<path d="M8.88446 9.57373C7.01926 10.0109 5.76527 10.8306 5.76527 11.7737C5.74949 12.1694 5.85103 12.5609 6.05713 12.8992C6.26322 13.2373 6.56468 13.507 6.92361 13.6743" stroke="#191919" stroke-linecap="round" stroke-linejoin="round"/>
<path d="M10.7622 12.4883C10.394 7.57272 10.0869 3.34301 10.0869 2.9231C10.0869 2.41574 10.2885 1.92915 10.6472 1.57039C11.006 1.21162 11.4926 1.01007 11.9999 1.01007C12.5073 1.01007 12.9939 1.21162 13.3526 1.57039C13.7114 1.92915 13.913 2.41574 13.913 2.9231C13.913 3.34588 13.6059 7.57559 13.2377 12.494" stroke="#191919" stroke-linecap="round" stroke-linejoin="round"/>
<path d="M12.9498 16.3143C12.7844 18.5028 12.6189 20.6713 12.4716 22.5699C12.4561 22.6846 12.3995 22.7898 12.3123 22.866C12.2252 22.9422 12.1134 22.9842 11.9976 22.9842C11.8819 22.9842 11.7701 22.9422 11.6829 22.866C11.5957 22.7898 11.5392 22.6846 11.5237 22.5699C11.3783 20.6713 11.2138 18.5028 11.0454 16.3143" stroke="#191919" stroke-linecap="round" stroke-linejoin="round"/>
</g>
<defs>
<clipPath id="clip0_5303_7792">
<rect width="24" height="24" fill="white"/>
</clipPath>
</defs>
</svg>
