<svg width="24" height="24" viewBox="0 0 24 24" fill="none" xmlns="http://www.w3.org/2000/svg">
<g clip-path="url(#clip0_5303_8224)">
<path d="M8.65224 16.3044C8.65224 17.3565 10.1511 18.2174 12.0001 18.2174C13.849 18.2174 15.3479 17.3565 15.3479 16.3044H20.1305V5.46409C20.1305 5.04119 19.9625 4.63563 19.6634 4.33659C19.3644 4.03756 18.9589 3.86957 18.536 3.86957H5.46415C5.04125 3.86957 4.63569 4.03756 4.33665 4.33659C4.03762 4.63563 3.86963 5.04119 3.86963 5.46409V16.3044H8.65224Z" fill="#66E1FF"/>
<path d="M5.46415 3.86957C5.04125 3.86957 4.63569 4.03756 4.33665 4.33659C4.03762 4.63563 3.86963 5.04119 3.86963 5.46409V16.3044H5.84198L18.2768 3.86957H5.46415Z" fill="#C2F3FF"/>
<path d="M15.3478 16.3044C15.3478 17.3565 13.849 18.2174 12 18.2174C10.151 18.2174 8.65217 17.3565 8.65217 16.3044H1C1.27324 17.3972 1.90392 18.3673 2.7918 19.0606C3.67968 19.7538 4.7738 20.1303 5.90026 20.1304H18.0997C19.2262 20.1303 20.3203 19.7538 21.2082 19.0606C22.0961 18.3673 22.7267 17.3972 23 16.3044H15.3478Z" fill="#E3E3E3" stroke="#191919" stroke-linecap="round" stroke-linejoin="round"/>
<path d="M16.3045 9.13045C16.3045 9.00361 16.2541 8.88195 16.1645 8.79227C16.0747 8.70258 15.9531 8.65219 15.8262 8.65219H13.4349V6.26088C13.4349 6.13404 13.3845 6.01239 13.2949 5.92271C13.2052 5.83301 13.0835 5.78262 12.9567 5.78262H11.0436C10.9168 5.78262 10.7951 5.83301 10.7054 5.92271C10.6158 6.01239 10.5654 6.13404 10.5654 6.26088V8.65219H8.17406C8.04722 8.65219 7.92557 8.70258 7.83588 8.79227C7.74619 8.88195 7.6958 9.00361 7.6958 9.13045V11.0435C7.6958 11.1703 7.74619 11.292 7.83588 11.3817C7.92557 11.4713 8.04722 11.5218 8.17406 11.5218H10.5654V13.9131C10.5654 14.0399 10.6158 14.1616 10.7054 14.2513C10.7951 14.3409 10.9168 14.3913 11.0436 14.3913H12.9567C13.0835 14.3913 13.2052 14.3409 13.2949 14.2513C13.3845 14.1616 13.4349 14.0399 13.4349 13.9131V11.5218H15.8262C15.9531 11.5218 16.0747 11.4713 16.1645 11.3817C16.2541 11.292 16.3045 11.1703 16.3045 11.0435V9.13045Z" fill="#FF808C"/>
<path d="M8.65224 16.3044C8.65224 17.3565 10.1511 18.2174 12.0001 18.2174C13.849 18.2174 15.3479 17.3565 15.3479 16.3044H20.1305V5.46409C20.1305 5.04119 19.9625 4.63563 19.6634 4.33659C19.3644 4.03756 18.9589 3.86957 18.536 3.86957H5.46415C5.04125 3.86957 4.63569 4.03756 4.33665 4.33659C4.03762 4.63563 3.86963 5.04119 3.86963 5.46409V16.3044H8.65224Z" stroke="#191919" stroke-linecap="round" stroke-linejoin="round"/>
<path d="M13.4942 8.65219H13.4349V6.26088C13.4349 6.13404 13.3845 6.01239 13.2949 5.92271C13.2052 5.83301 13.0835 5.78262 12.9567 5.78262H11.0436C10.9168 5.78262 10.7951 5.83301 10.7054 5.92271C10.6158 6.01239 10.5654 6.13404 10.5654 6.26088V8.65219H8.17406C8.04722 8.65219 7.92557 8.70258 7.83588 8.79227C7.74619 8.88195 7.6958 9.00361 7.6958 9.13045V11.0435C7.6958 11.1703 7.74619 11.292 7.83588 11.3817C7.92557 11.4713 8.04722 11.5218 8.17406 11.5218H10.5654V11.5811L13.4942 8.65219Z" fill="#FFBFC5"/>
<path d="M16.3045 9.13045C16.3045 9.00361 16.2541 8.88195 16.1645 8.79227C16.0747 8.70258 15.9531 8.65219 15.8262 8.65219H13.4349V6.26088C13.4349 6.13404 13.3845 6.01239 13.2949 5.92271C13.2052 5.83301 13.0835 5.78262 12.9567 5.78262H11.0436C10.9168 5.78262 10.7951 5.83301 10.7054 5.92271C10.6158 6.01239 10.5654 6.13404 10.5654 6.26088V8.65219H8.17406C8.04722 8.65219 7.92557 8.70258 7.83588 8.79227C7.74619 8.88195 7.6958 9.00361 7.6958 9.13045V11.0435C7.6958 11.1703 7.74619 11.292 7.83588 11.3817C7.92557 11.4713 8.04722 11.5218 8.17406 11.5218H10.5654V13.9131C10.5654 14.0399 10.6158 14.1616 10.7054 14.2513C10.7951 14.3409 10.9168 14.3913 11.0436 14.3913H12.9567C13.0835 14.3913 13.2052 14.3409 13.2949 14.2513C13.3845 14.1616 13.4349 14.0399 13.4349 13.9131V11.5218H15.8262C15.9531 11.5218 16.0747 11.4713 16.1645 11.3817C16.2541 11.292 16.3045 11.1703 16.3045 11.0435V9.13045Z" stroke="#191919" stroke-linecap="round" stroke-linejoin="round"/>
</g>
<defs>
<clipPath id="clip0_5303_8224">
<rect width="24" height="24" fill="white"/>
</clipPath>
</defs>
</svg>
