<svg width="24" height="24" viewBox="0 0 24 24" fill="none" xmlns="http://www.w3.org/2000/svg">
<path d="M20.1305 22.0435C20.1305 22.2971 20.0297 22.5405 19.8503 22.7198C19.671 22.8992 19.4276 23 19.174 23H4.82615C4.57246 23 4.32917 22.8992 4.14978 22.7198C3.97041 22.5405 3.86963 22.2971 3.86963 22.0435V1.95652C3.86963 1.70283 3.97041 1.45954 4.14978 1.28016C4.32917 1.10078 4.57246 1 4.82615 1H13.9954C14.249 1.00005 14.4923 1.10087 14.6716 1.28026L19.8502 6.45887C20.0297 6.63821 20.1304 6.88147 20.1305 7.13513V22.0435Z" fill="#E3E3E3"/>
<path d="M17.2667 3.8753L14.6716 1.28026C14.4923 1.10087 14.249 1.00005 13.9954 1H4.82615C4.57246 1 4.32917 1.10078 4.14978 1.28016C3.97041 1.45954 3.86963 1.70283 3.86963 1.95652V17.2723L17.2667 3.8753Z" fill="white"/>
<path d="M20.1305 22.0435C20.1305 22.2971 20.0297 22.5405 19.8503 22.7198C19.671 22.8992 19.4276 23 19.174 23H4.82615C4.57246 23 4.32917 22.8992 4.14978 22.7198C3.97041 22.5405 3.86963 22.2971 3.86963 22.0435V1.95652C3.86963 1.70283 3.97041 1.45954 4.14978 1.28016C4.32917 1.10078 4.57246 1 4.82615 1H13.9954C14.249 1.00005 14.4923 1.10087 14.6716 1.28026L19.8502 6.45887C20.0297 6.63821 20.1304 6.88147 20.1305 7.13513V22.0435Z" stroke="#191919" stroke-linecap="round" stroke-linejoin="round"/>
<path d="M20.0351 6.73912H15.3481C15.0945 6.73912 14.8511 6.63834 14.6718 6.45896C14.4924 6.27958 14.3916 6.03628 14.3916 5.7826V1.09564C14.4961 1.13555 14.5907 1.19754 14.669 1.27738L19.8533 6.46173C19.9332 6.54003 19.9952 6.63465 20.0351 6.73912Z" fill="#E3E3E3" stroke="#191919" stroke-linecap="round" stroke-linejoin="round"/>
<path d="M20.0442 6.73914H20.0347" stroke="#191919" stroke-linecap="round" stroke-linejoin="round"/>
<path d="M14.3916 1.09566V1.08609" stroke="#191919" stroke-linecap="round" stroke-linejoin="round"/>
<path d="M6.73926 18.2174H17.261" stroke="#191919" stroke-linecap="round" stroke-linejoin="round"/>
<path d="M6.73926 20.1304H17.261" stroke="#191919" stroke-linecap="round" stroke-linejoin="round"/>
<path d="M15.348 11.0435C15.348 10.9166 15.2976 10.795 15.208 10.7052C15.1182 10.6156 14.9966 10.5652 14.8697 10.5652H13.435V9.13042C13.435 9.00358 13.3845 8.88193 13.2949 8.79224C13.2052 8.70255 13.0835 8.65216 12.9567 8.65216H11.0436C10.9168 8.65216 10.7951 8.70255 10.7054 8.79224C10.6158 8.88193 10.5654 9.00358 10.5654 9.13042V10.5652H9.1306C9.00376 10.5652 8.88211 10.6156 8.79243 10.7052C8.70273 10.795 8.65234 10.9166 8.65234 11.0435V12.9565C8.65234 13.0833 8.70273 13.205 8.79243 13.2947C8.88211 13.3844 9.00376 13.4348 9.1306 13.4348H10.5654V14.8696C10.5654 14.9964 10.6158 15.1181 10.7054 15.2078C10.7951 15.2974 10.9168 15.3478 11.0436 15.3478H12.9567C13.0835 15.3478 13.2052 15.2974 13.2949 15.2078C13.3845 15.1181 13.435 14.9964 13.435 14.8696V13.4348H14.8697C14.9966 13.4348 15.1182 13.3844 15.208 13.2947C15.2976 13.205 15.348 13.0833 15.348 12.9565V11.0435Z" fill="#FF808C" stroke="#191919" stroke-linecap="round" stroke-linejoin="round"/>
</svg>
