<svg width="24" height="24" viewBox="0 0 24 24" fill="none" xmlns="http://www.w3.org/2000/svg">
<path d="M22.3091 8.80904C22.4189 8.74562 22.4991 8.64116 22.5319 8.51864C22.5647 8.39613 22.5476 8.26559 22.4841 8.15574L20.5711 4.84235C20.524 4.76092 20.454 4.69517 20.3698 4.65332C20.2856 4.61147 20.1909 4.59537 20.0976 4.60704C20.0352 4.61529 19.9751 4.63577 19.9207 4.6673L14.3929 7.8573V1.47826C14.3929 1.35142 14.3425 1.22977 14.2528 1.14008C14.1631 1.05039 14.0415 1 13.9147 1H10.0886C9.96173 1 9.84008 1.05039 9.75039 1.14008C9.6607 1.22977 9.61031 1.35142 9.61031 1.47826V7.85635L4.08735 4.6673C3.97751 4.60389 3.84697 4.5867 3.72445 4.61953C3.60193 4.65235 3.49747 4.7325 3.43405 4.84235L1.51622 8.15574C1.4528 8.26559 1.43562 8.39613 1.46844 8.51864C1.50127 8.64116 1.58142 8.74562 1.69127 8.80904L7.21901 12L1.69605 15.189C1.64126 15.22 1.59313 15.2616 1.55442 15.3112C1.51571 15.3609 1.48719 15.4177 1.47048 15.4784C1.45377 15.5391 1.44921 15.6024 1.45706 15.6649C1.46491 15.7274 1.48502 15.7877 1.51622 15.8423L3.42927 19.1557C3.49269 19.2656 3.59715 19.3457 3.71967 19.3786C3.84218 19.4114 3.97272 19.3942 4.08257 19.3308L9.60553 16.1408V22.5217C9.60553 22.6486 9.65592 22.7702 9.74561 22.8599C9.8353 22.9496 9.95694 23 10.0838 23H13.9099C14.0367 23 14.1584 22.9496 14.2481 22.8599C14.3377 22.7702 14.3881 22.6486 14.3881 22.5217V16.1408L19.913 19.3308C19.9675 19.3623 20.0276 19.3827 20.09 19.3909C20.1524 19.3991 20.2157 19.3949 20.2765 19.3786C20.3977 19.345 20.5008 19.2649 20.5634 19.1557L22.4765 15.8423C22.5399 15.7325 22.5571 15.602 22.5243 15.4794C22.4914 15.3569 22.4113 15.2525 22.3014 15.189L16.7842 12L22.3091 8.80904Z" fill="#66E1FF"/>
<path d="M14.3929 1.47826C14.3929 1.35142 14.3425 1.22977 14.2528 1.14008C14.1631 1.05039 14.0415 1 13.9147 1H10.0886C9.96173 1 9.84008 1.05039 9.75039 1.14008C9.6607 1.22977 9.61031 1.35142 9.61031 1.47826V7.85635L4.08735 4.6673C3.97751 4.60389 3.84697 4.5867 3.72445 4.61953C3.60193 4.65235 3.49747 4.7325 3.43405 4.84235L1.51622 8.15574C1.4528 8.26559 1.43562 8.39613 1.46844 8.51864C1.50127 8.64116 1.58142 8.74562 1.69127 8.80904L7.219 12L1.69605 15.189C1.64126 15.22 1.59313 15.2616 1.55442 15.3112C1.51571 15.3609 1.48719 15.4177 1.47048 15.4784C1.45377 15.5391 1.44921 15.6024 1.45706 15.6649C1.46491 15.7274 1.48502 15.7877 1.51622 15.8423L3.42927 19.1557C3.49269 19.2656 3.59715 19.3457 3.71967 19.3786C3.84218 19.4114 3.97272 19.3942 4.08257 19.3308L5.08692 18.7511L18.1597 5.68696L14.3929 7.8573V1.47826Z" fill="#C2F3FF"/>
<path d="M22.3091 8.80904C22.4189 8.74562 22.4991 8.64116 22.5319 8.51864C22.5647 8.39613 22.5476 8.26559 22.4841 8.15574L20.5711 4.84235C20.524 4.76092 20.454 4.69517 20.3698 4.65332C20.2856 4.61147 20.1909 4.59537 20.0976 4.60704C20.0352 4.61529 19.9751 4.63577 19.9207 4.6673L14.3929 7.8573V1.47826C14.3929 1.35142 14.3425 1.22977 14.2528 1.14008C14.1631 1.05039 14.0415 1 13.9147 1H10.0886C9.96173 1 9.84008 1.05039 9.75039 1.14008C9.6607 1.22977 9.61031 1.35142 9.61031 1.47826V7.85635L4.08735 4.6673C3.97751 4.60389 3.84697 4.5867 3.72445 4.61953C3.60193 4.65235 3.49747 4.7325 3.43405 4.84235L1.51622 8.15574C1.4528 8.26559 1.43562 8.39613 1.46844 8.51864C1.50127 8.64116 1.58142 8.74562 1.69127 8.80904L7.21901 12L1.69605 15.189C1.64126 15.22 1.59313 15.2616 1.55442 15.3112C1.51571 15.3609 1.48719 15.4177 1.47048 15.4784C1.45377 15.5391 1.44921 15.6024 1.45706 15.6649C1.46491 15.7274 1.48502 15.7877 1.51622 15.8423L3.42927 19.1557C3.49269 19.2656 3.59715 19.3457 3.71967 19.3786C3.84218 19.4114 3.97272 19.3942 4.08257 19.3308L9.60553 16.1408V22.5217C9.60553 22.6486 9.65592 22.7702 9.74561 22.8599C9.8353 22.9496 9.95694 23 10.0838 23H13.9099C14.0367 23 14.1584 22.9496 14.2481 22.8599C14.3377 22.7702 14.3881 22.6486 14.3881 22.5217V16.1408L19.913 19.3308C19.9675 19.3623 20.0276 19.3827 20.09 19.3909C20.1524 19.3991 20.2157 19.3949 20.2765 19.3786C20.3977 19.345 20.5008 19.2649 20.5634 19.1557L22.4765 15.8423C22.5399 15.7325 22.5571 15.602 22.5243 15.4794C22.4914 15.3569 22.4113 15.2525 22.3014 15.189L16.7842 12L22.3091 8.80904Z" stroke="#191919" stroke-linecap="round" stroke-linejoin="round"/>
</svg>
