<svg width="24" height="24" viewBox="0 0 24 24" fill="none" xmlns="http://www.w3.org/2000/svg">
<g clip-path="url(#clip0_5303_9741)">
<path d="M7.73926 18.7151C7.84164 19.9099 8.39837 21.02 9.29475 21.8167C10.191 22.6134 11.3589 23.0361 12.5574 22.9976C13.7561 22.9591 14.8943 22.4624 15.7377 21.6099C16.5811 20.7573 17.0655 19.6138 17.091 18.4148C17.1195 17.658 17.3403 16.9209 17.7328 16.2731C18.1253 15.6255 18.6764 15.0883 19.3341 14.7128C20.6702 13.9351 21.728 12.7568 22.3573 11.3446C22.9868 9.93248 23.1559 8.35815 22.8407 6.84453C22.5257 5.3309 21.7424 3.9548 20.6019 2.91104C19.4613 1.86728 18.0213 1.20885 16.4857 1.02897C15.093 0.903058 13.694 1.18943 12.4627 1.85234C11.2315 2.51536 10.2222 3.52574 9.56062 4.75778C9.56062 4.75778 7.73926 8.13093 7.73926 10.2497V18.7151Z" fill="#FFDDA1"/>
<path d="M11.6851 7.104C12.3403 6.81236 13.058 6.68909 13.7731 6.74551C14.488 6.80182 15.1776 7.03607 15.7789 7.42687C16.3803 7.81767 16.8746 8.35253 17.2166 8.98295C17.5586 9.61337 17.7375 10.3193 17.7373 11.0365C17.7541 11.9588 17.4611 12.8601 16.9052 13.5963C16.3494 14.3325 15.5627 14.8609 14.671 15.0971C14.3487 15.1815 14.0588 15.3596 13.8375 15.6086C13.6163 15.8578 13.4738 16.1668 13.4281 16.4969C13.3896 16.8974 13.2242 17.2753 12.9559 17.5752C12.6875 17.8753 12.3304 18.0815 11.9366 18.1644C11.6583 18.2261 11.3698 18.2248 11.092 18.1607C10.8144 18.0964 10.5544 17.971 10.3314 17.7935C10.1085 17.6159 9.92802 17.3908 9.80319 17.1346C9.67835 16.8784 9.61257 16.5974 9.61032 16.3124C9.25232 13.0972 9.98278 9.85493 11.6851 7.104Z" fill="#FFBC44"/>
<path d="M7.73926 18.7151C7.84164 19.9099 8.39837 21.02 9.29475 21.8167C10.191 22.6134 11.3589 23.0361 12.5574 22.9976C13.7561 22.9591 14.8943 22.4624 15.7377 21.6099C16.5811 20.7573 17.0655 19.6138 17.091 18.4148C17.1195 17.658 17.3403 16.9209 17.7328 16.2731C18.1253 15.6255 18.6764 15.0883 19.3341 14.7128C20.6702 13.9351 21.728 12.7568 22.3573 11.3446C22.9868 9.93248 23.1559 8.35815 22.8407 6.84453C22.5257 5.3309 21.7424 3.9548 20.6019 2.91104C19.4613 1.86728 18.0213 1.20885 16.4857 1.02897C15.093 0.903058 13.694 1.18943 12.4627 1.85234C11.2315 2.51536 10.2222 3.52574 9.56062 4.75778" stroke="#191919" stroke-linecap="round" stroke-linejoin="round"/>
<path d="M11.6846 7.10398C11.9295 6.31857 12.4203 5.63281 13.0848 5.14783C13.7494 4.66284 14.552 4.40439 15.3747 4.41063C16.1973 4.41678 16.9962 4.68734 17.6532 5.18238C18.3102 5.67732 18.7907 6.3705 19.0237 7.15942C17.8978 6.55213 16.6403 6.22956 15.3611 6.21989C14.0818 6.21023 12.8196 6.51368 11.6846 7.10398Z" fill="#FFBC44"/>
<path d="M11.6846 7.10494C12.3397 6.81331 13.0574 6.69013 13.7723 6.74645C14.4873 6.80277 15.1767 7.03691 15.7781 7.42762C16.3795 7.81822 16.8737 8.35299 17.2157 8.98331C17.5578 9.61363 17.7369 10.3194 17.7368 11.0364C17.7536 11.9588 17.4606 12.8601 16.9048 13.5963C16.3489 14.3324 15.5623 14.8608 14.6706 15.097C14.3483 15.1815 14.0583 15.3596 13.837 15.6086C13.6159 15.8578 13.4734 16.1668 13.4276 16.4968C13.3891 16.8974 13.2237 17.2753 12.9554 17.5751C12.6871 17.8751 12.3299 18.0815 11.936 18.1643C11.6579 18.2261 11.3692 18.2248 11.0916 18.1606C10.8138 18.0963 10.554 17.9709 10.331 17.7935C10.108 17.6159 9.92756 17.3908 9.80273 17.1345C9.67799 16.8782 9.61211 16.5973 9.60986 16.3123" stroke="#191919" stroke-linecap="round" stroke-linejoin="round"/>
<path d="M11.989 10.0184C11.6819 9.46225 11.5213 8.83711 11.5225 8.20171C11.5243 7.28005 11.859 6.39001 12.465 5.69547C13.0708 5.00093 13.9073 4.54854 14.8202 4.42156C15.733 4.29468 16.6612 4.50169 17.4336 5.00454C18.2059 5.50749 18.7708 6.2724 19.0241 7.15863" stroke="#191919" stroke-linecap="round" stroke-linejoin="round"/>
<path d="M1.00488 12.4706H3.09963C3.18835 12.4706 3.27532 12.4953 3.35086 12.542C3.42631 12.5885 3.48731 12.6552 3.52703 12.7345L3.94585 13.5721C3.98479 13.6498 4.04423 13.7154 4.11773 13.7619C4.19122 13.8084 4.27604 13.8339 4.363 13.8359C4.44987 13.8376 4.53576 13.8159 4.61111 13.7725C4.68655 13.7292 4.74873 13.6662 4.79099 13.5902L6.30071 10.873C6.34287 10.7966 6.40514 10.7335 6.48069 10.69C6.55623 10.6465 6.64222 10.6246 6.72928 10.6264C6.81644 10.6283 6.90135 10.6539 6.97495 10.7006C7.04854 10.7472 7.10798 10.8131 7.14692 10.8911L8.79709 14.1916C8.83301 14.2634 8.8863 14.3251 8.95228 14.3708C9.01816 14.4166 9.09458 14.4451 9.17442 14.4536C9.25426 14.4621 9.33498 14.4503 9.40906 14.4194C9.48314 14.3884 9.54824 14.3394 9.59831 14.2767L10.8996 12.6513C10.9444 12.5952 11.0014 12.5499 11.066 12.5188C11.1307 12.4876 11.2016 12.4716 11.2735 12.4716H12.9562" stroke="#191919" stroke-linecap="round" stroke-linejoin="round"/>
</g>
<defs>
<clipPath id="clip0_5303_9741">
<rect width="24" height="24" fill="white"/>
</clipPath>
</defs>
</svg>
