<svg width="24" height="24" viewBox="0 0 24 24" fill="none" xmlns="http://www.w3.org/2000/svg">
<g clip-path="url(#clip0_5303_8232)">
<path d="M18.2767 12.4907L18.2509 12.4419C16.7201 9.59985 15.7461 6.4916 15.3813 3.28417L15.1431 1H8.85687L8.61678 3.28417C8.252 6.4916 7.27803 9.59986 5.74722 12.4419L5.72139 12.4907C3.93365 15.961 1 15.6415 1 19.3336C1 21.3586 3.16556 23 5.19052 23C5.9345 23.0002 6.66091 22.7739 7.27312 22.3512C7.88533 21.9285 8.35433 21.3293 8.61774 20.6336C8.86926 20.7441 9.11281 20.8719 9.34661 21.0162C10.1051 21.6066 11.0388 21.9272 12 21.9272C12.9612 21.9272 13.8949 21.6066 14.6534 21.0162C14.8868 20.8727 15.1307 20.7445 15.3823 20.6336C15.6457 21.3293 16.1147 21.9285 16.7269 22.3512C17.3391 22.7739 18.0655 23.0002 18.8095 23C20.8344 23 23 21.3586 23 19.3336C23 15.6415 20.0663 15.961 18.2767 12.4907Z" fill="#FFDDA1"/>
<path d="M18.2767 12.4907L18.2509 12.4419C18.1323 12.2171 18.0223 11.9885 17.9094 11.7609C16.4344 15.4435 14.3358 17.7621 12 17.7621C9.66417 17.7621 7.56556 15.4435 6.09061 11.7609C5.97774 11.9885 5.86774 12.2171 5.74913 12.4419L5.7233 12.4907C3.93365 15.961 1 15.6415 1 19.3336C1 21.3586 3.16556 23 5.19052 23C5.9345 23.0002 6.66091 22.7739 7.27312 22.3512C7.88533 21.9284 8.35433 21.3293 8.61774 20.6336C8.86926 20.7441 9.11281 20.8719 9.34661 21.0162C10.1051 21.6066 11.0388 21.9272 12 21.9272C12.9612 21.9272 13.8949 21.6066 14.6534 21.0162C14.8868 20.8727 15.1307 20.7445 15.3823 20.6336C15.6457 21.3293 16.1147 21.9284 16.7269 22.3512C17.3391 22.7739 18.0655 23.0002 18.8095 23C20.8344 23 23 21.3586 23 19.3336C23 15.6415 20.0663 15.961 18.2767 12.4907Z" fill="#FFDDA1"/>
<path d="M15.3793 20.6269C15.4788 20.8966 15.6108 21.1539 15.7725 21.3921C16.1086 21.888 16.5612 22.2939 17.0907 22.5742C17.6202 22.8545 18.2103 23.0007 18.8094 23C20.8344 23 22.9999 21.3586 22.9999 19.3336C22.9999 15.6415 20.0663 15.961 18.2766 12.4907L18.2508 12.4419C16.72 9.59985 15.746 6.4916 15.3812 3.28417L15.1431 1" stroke="#191919" stroke-linecap="round" stroke-linejoin="round"/>
<path d="M8.62061 20.6269C8.52112 20.897 8.3891 21.1539 8.22748 21.3921C7.89133 21.888 7.43869 22.2939 6.90922 22.5742C6.37975 22.8545 5.78962 23.0007 5.19052 23C3.16556 23 1 21.3586 1 19.3336C1 15.6415 3.93365 15.961 5.7233 12.4907L5.74913 12.4419C7.27995 9.59986 8.25392 6.4916 8.61869 3.28417L8.85687 1" stroke="#191919" stroke-linecap="round" stroke-linejoin="round"/>
<path d="M6.63428 20.0979L7.15462 20.184C7.93228 20.3141 8.67741 20.5953 9.34602 21.0143C10.1045 21.6047 11.0382 21.9253 11.9994 21.9253C12.9606 21.9253 13.8943 21.6047 14.6528 21.0143C15.3215 20.5962 16.0662 20.3144 16.8442 20.185L17.8112 20.0224" stroke="#191919" stroke-linecap="round" stroke-linejoin="round"/>
<path d="M14.6188 16.7157C14.2777 17.0607 13.869 17.3317 13.4184 17.5116C12.9677 17.6915 12.4848 17.7765 11.9998 17.7611C11.5147 17.7731 11.0322 17.686 10.5818 17.5051C10.1315 17.3242 9.72286 17.0533 9.38086 16.709" stroke="#191919" stroke-linecap="round" stroke-linejoin="round"/>
</g>
<defs>
<clipPath id="clip0_5303_8232">
<rect width="24" height="24" fill="white"/>
</clipPath>
</defs>
</svg>
