<svg width="24" height="24" viewBox="0 0 24 24" fill="none" xmlns="http://www.w3.org/2000/svg">
<path d="M1.95996 12.4783L10.8269 13.6873C11.2854 13.7498 11.7057 13.9763 12.0099 14.3248C12.3141 14.6734 12.4818 15.1205 12.4817 15.5831V23H22.0469V12.9565C22.0469 10.8049 21.3215 8.71613 19.9878 7.02769C18.6541 5.33926 16.7902 4.1498 14.697 3.65148L1.95996 1V12.4783Z" fill="#FFDDA1"/>
<path d="M19.1772 14.3913C18.5884 14.7055 17.9314 14.8698 17.2641 14.8698C16.5968 14.8698 15.9398 14.7055 15.3511 14.3913C16.1436 16.4656 16.4701 18.6888 16.3076 20.9033V23H18.2206V20.9033C18.0581 18.6888 18.3847 16.4656 19.1772 14.3913Z" fill="#FFBC44"/>
<path d="M1.95996 1L14.697 3.65148C16.7902 4.1498 18.6541 5.33926 19.9878 7.02769C21.3215 8.71613 22.0469 10.8049 22.0469 12.9565V23" stroke="#191919" stroke-linecap="round" stroke-linejoin="round"/>
<path d="M1.95996 12.4783L10.8269 13.6873C11.2854 13.7498 11.7057 13.9763 12.0099 14.3248C12.3141 14.6734 12.4818 15.1205 12.4817 15.5831V23" stroke="#191919" stroke-linecap="round" stroke-linejoin="round"/>
<path d="M19.1772 14.3913C18.5884 14.7055 17.9314 14.8698 17.2641 14.8698C16.5968 14.8698 15.9398 14.7055 15.3511 14.3913C16.1436 16.4656 16.4701 18.6888 16.3076 20.9033V23H18.2206V20.9033C18.0581 18.6888 18.3847 16.4656 19.1772 14.3913Z" fill="white" stroke="#191919" stroke-linecap="round" stroke-linejoin="round"/>
<path d="M17.2642 8.17404C16.8827 8.1738 16.5069 8.26603 16.1689 8.44282C15.9687 8.54721 15.7379 8.57736 15.5176 8.52795L1.95312 5.46899V8.4103L14.561 11.2521C14.6929 11.2818 14.8171 11.3391 14.9252 11.4202C15.0334 11.5013 15.1231 11.6044 15.1885 11.7227C15.3929 12.0923 15.6916 12.4012 16.0541 12.6178C16.4166 12.8345 16.83 12.9514 17.2523 12.9564C17.6746 12.9615 18.0908 12.8546 18.4584 12.6467C18.826 12.4388 19.132 12.1372 19.3452 11.7726C19.5584 11.408 19.6713 10.9936 19.6723 10.5712C19.6734 10.1489 19.5626 9.73378 19.3511 9.36818C19.1397 9.00257 18.8353 8.69947 18.4686 8.48973C18.1021 8.27998 17.6865 8.17105 17.2642 8.17404Z" fill="white" stroke="#191919" stroke-linecap="round" stroke-linejoin="round"/>
</svg>
