<svg width="24" height="24" viewBox="0 0 24 24" fill="none" xmlns="http://www.w3.org/2000/svg">
<g clip-path="url(#clip0_5303_8846)">
<path d="M23 1H1V23H23V1Z" fill="#B2B2B2"/>
<path d="M1 23V1H23L1 23Z" fill="#E3E3E3"/>
<path d="M23 1H1V23H23V1Z" stroke="#191919" stroke-linecap="round" stroke-linejoin="round"/>
<path d="M8.88301 17.9582V18.2174H4.34814V17.9582L6.57875 15.1919L8.88301 17.9582Z" fill="white" stroke="#191919" stroke-linecap="round" stroke-linejoin="round"/>
<path d="M12.7359 14.354L8.95475 5.78259H4.34814V6.13746C7.54867 9.99129 6.55293 8.35946 11.0715 18.2174H11.5393L15.4486 5.78259H19.6812V6.13746L18.3593 7.31781C18.3074 7.35761 18.2672 7.41075 18.2432 7.47156C18.2191 7.53237 18.2119 7.59857 18.2225 7.66311V16.3369C18.2118 16.4014 18.2189 16.4676 18.243 16.5285C18.2671 16.5893 18.3073 16.6424 18.3593 16.6822L19.6525 17.9582V18.2174H13.635V17.9582L14.7474 16.6535C14.8699 16.531 14.8699 16.4956 14.8699 16.3043V7.69564" fill="white"/>
<path d="M12.7359 14.354L8.95475 5.78259H4.34814V6.13746C7.54867 9.99129 6.55293 8.35946 11.0715 18.2174H11.5393L15.4486 5.78259H19.6812V6.13746L18.3593 7.31781C18.3074 7.35761 18.2672 7.41075 18.2432 7.47156C18.2191 7.53237 18.2119 7.59857 18.2225 7.66311V16.3369C18.2118 16.4014 18.2189 16.4676 18.243 16.5285C18.2671 16.5893 18.3073 16.6424 18.3593 16.6822L19.6525 17.9582V18.2174H13.635V17.9582L14.7474 16.6535C14.8699 16.531 14.8699 16.4956 14.8699 16.3043V7.69564" stroke="#191919" stroke-linecap="round" stroke-linejoin="round"/>
<path d="M6.57861 15.1919V8.89032" stroke="#191919" stroke-linecap="round" stroke-linejoin="round"/>
</g>
<defs>
<clipPath id="clip0_5303_8846">
<rect width="24" height="24" fill="white"/>
</clipPath>
</defs>
</svg>
