<svg width="24" height="24" viewBox="0 0 24 24" fill="none" xmlns="http://www.w3.org/2000/svg">
<path d="M8.44278 13.365L8.85983 13.5046C9.63471 13.7627 10.3088 14.2581 10.7864 14.9206C11.2639 15.5831 11.521 16.3792 11.5209 17.1958V18.9348C11.4932 19.9801 11.8799 20.994 12.5966 21.7555C13.3133 22.517 14.3019 22.9642 15.347 23C16.3921 22.9642 17.3806 22.517 18.0973 21.7555C18.814 20.994 19.2007 19.9801 19.173 18.9348V12.9565C19.1675 11.0556 18.4099 9.23412 17.0657 7.88995C15.7215 6.54577 13.9 5.78817 11.9991 5.78262H9.67287C8.64088 5.78262 7.65115 6.19258 6.92142 6.92231C6.19169 7.65204 5.78174 8.64176 5.78174 9.67375C5.78167 10.4904 6.03865 11.2865 6.51627 11.949C6.99388 12.6115 7.66789 13.1069 8.44278 13.365Z" fill="#808080"/>
<path d="M7.21636 12.1789C7.21636 11.1469 7.62632 10.1572 8.35604 9.42744C9.08577 8.69772 10.0755 8.28777 11.1075 8.28777H13.4337C14.4557 8.28977 15.4654 8.51052 16.3949 8.9352C17.3244 9.35988 18.1523 9.97862 18.8228 10.7498C18.353 9.309 17.4405 8.05317 16.2152 7.16127C14.9899 6.26937 13.5145 5.78691 11.999 5.78263H9.67271C8.86559 5.78137 8.07812 6.03157 7.41973 6.49845C6.76134 6.96532 6.26474 7.62569 5.99893 8.38778C5.73311 9.14988 5.71129 9.97585 5.9365 10.7509C6.16171 11.526 6.62276 12.2116 7.25558 12.7126C7.22995 12.5359 7.21684 12.3575 7.21636 12.1789Z" fill="#B2B2B2"/>
<path d="M8.44278 13.365L8.85983 13.5046C9.63471 13.7627 10.3088 14.2581 10.7864 14.9206C11.2639 15.5831 11.521 16.3792 11.5209 17.1958V18.9348C11.4932 19.9801 11.8799 20.994 12.5966 21.7555C13.3133 22.517 14.3019 22.9642 15.347 23C16.3921 22.9642 17.3806 22.517 18.0973 21.7555C18.814 20.994 19.2007 19.9801 19.173 18.9348V12.9565C19.1675 11.0556 18.4099 9.23412 17.0657 7.88995C15.7215 6.54577 13.9 5.78817 11.9991 5.78262H9.67287C8.64088 5.78262 7.65115 6.19258 6.92142 6.92231C6.19169 7.65204 5.78174 8.64176 5.78174 9.67375C5.78167 10.4904 6.03865 11.2865 6.51627 11.949C6.99388 12.6115 7.66789 13.1069 8.44278 13.365Z" stroke="#191919" stroke-linecap="round" stroke-linejoin="round"/>
<path d="M6.73824 4.82609C7.79478 4.82609 8.65128 3.96959 8.65128 2.91304C8.65128 1.8565 7.79478 1 6.73824 1C5.68169 1 4.8252 1.8565 4.8252 2.91304C4.8252 3.96959 5.68169 4.82609 6.73824 4.82609Z" fill="#808080" stroke="#191919" stroke-linecap="round" stroke-linejoin="round"/>
<path d="M11.9992 3.86957C12.7916 3.86957 13.434 3.22719 13.434 2.43478C13.434 1.64237 12.7916 1 11.9992 1C11.2069 1 10.5645 1.64237 10.5645 2.43478C10.5645 3.22719 11.2069 3.86957 11.9992 3.86957Z" fill="#808080" stroke="#191919" stroke-linecap="round" stroke-linejoin="round"/>
<path d="M16.782 4.82608C17.5743 4.82608 18.2167 4.18371 18.2167 3.3913C18.2167 2.59888 17.5743 1.95651 16.782 1.95651C15.9896 1.95651 15.3472 2.59888 15.3472 3.3913C15.3472 4.18371 15.9896 4.82608 16.782 4.82608Z" fill="#808080" stroke="#191919" stroke-linecap="round" stroke-linejoin="round"/>
</svg>
