<svg width="24" height="24" viewBox="0 0 24 24" fill="none" xmlns="http://www.w3.org/2000/svg">
<g clip-path="url(#clip0_5303_10341)">
<path d="M3.98389 3.04065C3.98389 2.54041 4.18261 2.06065 4.53633 1.70693C4.89006 1.3532 5.36982 1.15448 5.87006 1.15448H18.1302C18.6304 1.15448 19.1102 1.3532 19.4639 1.70693C19.8176 2.06065 20.0164 2.54041 20.0164 3.04065V10.5853C20.0164 11.0856 19.8176 11.5653 19.4639 11.9191C19.1102 12.2728 18.6304 12.4715 18.1302 12.4715H5.87006C5.36982 12.4715 4.89006 12.2728 4.53633 11.9191C4.18261 11.5653 3.98389 11.0856 3.98389 10.5853V3.04065Z" fill="#66E1FF"/>
<path d="M5.87006 1.15448C5.36982 1.15448 4.89006 1.3532 4.53633 1.70693C4.18261 2.06065 3.98389 2.54041 3.98389 3.04065V10.5853C3.98447 10.9336 4.08178 11.2749 4.26495 11.5712C4.44812 11.8674 4.70996 12.1069 5.02128 12.2631L16.1365 1.15448H5.87006Z" fill="#C2F3FF"/>
<path d="M3.98389 3.04065C3.98389 2.54041 4.18261 2.06065 4.53633 1.70693C4.89006 1.3532 5.36982 1.15448 5.87006 1.15448H18.1302C18.6304 1.15448 19.1102 1.3532 19.4639 1.70693C19.8176 2.06065 20.0164 2.54041 20.0164 3.04065V10.5853C20.0164 11.0856 19.8176 11.5653 19.4639 11.9191C19.1102 12.2728 18.6304 12.4715 18.1302 12.4715H5.87006C5.36982 12.4715 4.89006 12.2728 4.53633 11.9191C4.18261 11.5653 3.98389 11.0856 3.98389 10.5853V3.04065Z" stroke="#191919" stroke-linecap="round" stroke-linejoin="round"/>
<path d="M16.4324 10.609C16.0674 10.0431 14.8593 9.63758 13.3447 9.07739C12.9175 8.91801 12.9882 7.80328 13.1769 7.59486C13.4781 7.26841 13.707 6.88195 13.8484 6.46083C13.9898 6.0397 14.0406 5.59344 13.9973 5.15132C14.0152 4.87774 13.9767 4.60342 13.8843 4.34531C13.7918 4.0872 13.6474 3.85081 13.46 3.65074C13.2725 3.45068 13.046 3.2912 12.7945 3.18218C12.5429 3.07316 12.2717 3.01691 11.9975 3.01691C11.7234 3.01691 11.4521 3.07316 11.2006 3.18218C10.949 3.2912 10.7225 3.45068 10.5351 3.65074C10.3476 3.85081 10.2032 4.0872 10.1108 4.34531C10.0184 4.60342 9.97989 4.87774 9.99772 5.15132C9.9545 5.59344 10.0053 6.0397 10.1467 6.46083C10.2881 6.88195 10.5169 7.26841 10.8182 7.59486C11.0068 7.80328 11.0776 8.91518 10.6503 9.07739C9.14139 9.64324 7.93236 10.0459 7.56738 10.609" fill="white"/>
<path d="M16.4324 10.609C16.0674 10.0431 14.8593 9.63758 13.3447 9.07739C12.9175 8.91801 12.9882 7.80328 13.1769 7.59486C13.4781 7.26841 13.707 6.88195 13.8484 6.46083C13.9898 6.0397 14.0406 5.59344 13.9973 5.15132C14.0152 4.87774 13.9767 4.60342 13.8843 4.34531C13.7918 4.0872 13.6474 3.85081 13.46 3.65074C13.2725 3.45068 13.046 3.2912 12.7945 3.18218C12.5429 3.07316 12.2717 3.01691 11.9975 3.01691C11.7234 3.01691 11.4521 3.07316 11.2006 3.18218C10.949 3.2912 10.7225 3.45068 10.5351 3.65074C10.3476 3.85081 10.2032 4.0872 10.1108 4.34531C10.0184 4.60342 9.97989 4.87774 9.99772 5.15132C9.9545 5.59344 10.0053 6.0397 10.1467 6.46083C10.2881 6.88195 10.5169 7.26841 10.8182 7.59486C11.0068 7.80328 11.0776 8.91518 10.6503 9.07739C9.14139 9.64324 7.93236 10.0459 7.56738 10.609" stroke="#191919" stroke-linecap="round" stroke-linejoin="round"/>
<path d="M16.2436 22.8455C16.2258 22.3264 16.1002 21.8168 15.8749 21.3488C15.6146 20.8282 14.5282 20.467 13.1635 19.9615C12.7938 19.8257 12.8551 18.9647 13.0183 18.7846C13.2784 18.5025 13.4759 18.1687 13.598 17.8049C13.7201 17.4412 13.7639 17.0558 13.7265 16.6739C13.7422 16.4376 13.7091 16.2005 13.6294 15.9774C13.5497 15.7544 13.4251 15.55 13.2632 15.3771C13.1013 15.2042 12.9056 15.0663 12.6883 14.972C12.471 14.8778 12.2366 14.8292 11.9997 14.8292C11.7629 14.8292 11.5285 14.8778 11.3112 14.972C11.0939 15.0663 10.8982 15.2042 10.7363 15.3771C10.5744 15.55 10.4498 15.7544 10.3701 15.9774C10.2904 16.2005 10.2573 16.4376 10.273 16.6739C10.2356 17.0558 10.2794 17.4412 10.4015 17.8049C10.5236 18.1687 10.7211 18.5025 10.9812 18.7846C11.1444 18.9647 11.2057 19.822 10.836 19.9615C9.47133 20.467 8.38395 20.8282 8.12461 21.3488C7.89929 21.8168 7.77372 22.3264 7.75586 22.8455" fill="#FFDDA1"/>
<path d="M16.2436 22.8455C16.2258 22.3264 16.1002 21.8168 15.8749 21.3488C15.6146 20.8282 14.5282 20.467 13.1635 19.9615C12.7938 19.8257 12.8551 18.9647 13.0183 18.7846C13.2784 18.5025 13.4759 18.1687 13.598 17.8049C13.7201 17.4412 13.7639 17.0558 13.7265 16.6739C13.7422 16.4376 13.7091 16.2005 13.6294 15.9774C13.5497 15.7544 13.4251 15.55 13.2632 15.3771C13.1013 15.2042 12.9056 15.0663 12.6883 14.972C12.471 14.8778 12.2366 14.8292 11.9997 14.8292C11.7629 14.8292 11.5285 14.8778 11.3112 14.972C11.0939 15.0663 10.8982 15.2042 10.7363 15.3771C10.5744 15.55 10.4498 15.7544 10.3701 15.9774C10.2904 16.2005 10.2573 16.4376 10.273 16.6739C10.2356 17.0558 10.2794 17.4412 10.4015 17.8049C10.5236 18.1687 10.7211 18.5025 10.9812 18.7846C11.1444 18.9647 11.2057 19.822 10.836 19.9615C9.47133 20.467 8.38395 20.8282 8.12461 21.3488C7.89929 21.8168 7.77372 22.3264 7.75586 22.8455" stroke="#191919" stroke-linecap="round" stroke-linejoin="round"/>
<path d="M22.8453 20.4076C22.4869 20.2671 22.0832 20.1247 21.6513 19.9615C21.2816 19.8257 21.3429 18.9647 21.5061 18.7846C21.7662 18.5025 21.9637 18.1687 22.0858 17.8049C22.2078 17.4412 22.2517 17.0558 22.2143 16.6739C22.23 16.4376 22.1969 16.2005 22.1172 15.9774C22.0375 15.7544 21.9128 15.55 21.751 15.3771C21.5891 15.2042 21.3934 15.0663 21.1761 14.972C20.9588 14.8778 20.7244 14.8292 20.4875 14.8292C20.2507 14.8292 20.0163 14.8778 19.799 14.972C19.5817 15.0663 19.386 15.2042 19.2241 15.3771C19.0622 15.55 18.9376 15.7544 18.8579 15.9774C18.7782 16.2005 18.7451 16.4376 18.7608 16.6739C18.7234 17.0558 18.7672 17.4412 18.8893 17.8049C19.0114 18.1687 19.2089 18.5025 19.469 18.7846C19.6322 18.9647 19.6935 19.822 19.3238 19.9615C17.9591 20.467 16.8717 20.8282 16.6124 21.3488C16.3871 21.8168 16.2615 22.3264 16.2437 22.8455H21.7136C22.933 22.7814 23.2225 21.8883 22.8453 20.4076Z" fill="#FFDDA1"/>
<path d="M22.8453 20.4076C22.4869 20.2671 22.0832 20.1247 21.6513 19.9615C21.2816 19.8257 21.3429 18.9647 21.5061 18.7846C21.7662 18.5025 21.9637 18.1687 22.0858 17.8049C22.2078 17.4412 22.2517 17.0558 22.2143 16.6739C22.23 16.4376 22.1969 16.2005 22.1172 15.9774C22.0375 15.7544 21.9128 15.55 21.751 15.3771C21.5891 15.2042 21.3934 15.0663 21.1761 14.972C20.9588 14.8778 20.7244 14.8292 20.4875 14.8292C20.2507 14.8292 20.0163 14.8778 19.799 14.972C19.5817 15.0663 19.386 15.2042 19.2241 15.3771C19.0622 15.55 18.9376 15.7544 18.8579 15.9774C18.7782 16.2005 18.7451 16.4376 18.7608 16.6739C18.7234 17.0558 18.7672 17.4412 18.8893 17.8049C19.0114 18.1687 19.2089 18.5025 19.469 18.7846C19.6322 18.9647 19.6935 19.822 19.3238 19.9615C17.9591 20.467 16.8717 20.8282 16.6124 21.3488C16.3871 21.8168 16.2615 22.3264 16.2437 22.8455" stroke="#191919" stroke-linecap="round" stroke-linejoin="round"/>
<path d="M1.15456 20.4076C1.51294 20.2671 1.91658 20.1247 2.34851 19.9615C2.7182 19.8257 2.6569 18.9647 2.49375 18.7846C2.23365 18.5025 2.03609 18.1687 1.91403 17.8049C1.79198 17.4412 1.74817 17.0558 1.78549 16.6739C1.76986 16.4376 1.80292 16.2005 1.88262 15.9774C1.96232 15.7544 2.08698 15.55 2.24886 15.3771C2.41073 15.2042 2.60639 15.0663 2.82372 14.972C3.04104 14.8778 3.2754 14.8292 3.51228 14.8292C3.74916 14.8292 3.98352 14.8778 4.20084 14.972C4.41817 15.0663 4.61383 15.2042 4.77571 15.3771C4.93759 15.55 5.06224 15.7544 5.14194 15.9774C5.22165 16.2005 5.2547 16.4376 5.23907 16.6739C5.27639 17.0558 5.23259 17.4412 5.11053 17.8049C4.98847 18.1687 4.79092 18.5025 4.53081 18.7846C4.36766 18.9647 4.30636 19.822 4.67605 19.9615C6.0407 20.467 7.12807 20.8282 7.38742 21.3488C7.61282 21.8166 7.73825 22.3268 7.75617 22.8455H2.28627C1.06686 22.7814 0.777331 21.8883 1.15456 20.4076Z" fill="#FFDDA1"/>
<path d="M1.15479 20.4076C1.51316 20.2671 1.9168 20.1247 2.34873 19.9615C2.71842 19.8257 2.65712 18.9647 2.49397 18.7846C2.23387 18.5025 2.03631 18.1687 1.91425 17.8049C1.7922 17.4412 1.74839 17.0558 1.78571 16.6739C1.77008 16.4376 1.80314 16.2005 1.88284 15.9774C1.96255 15.7544 2.0872 15.55 2.24908 15.3771C2.41096 15.2042 2.60662 15.0663 2.82394 14.972C3.04126 14.8778 3.27562 14.8292 3.5125 14.8292C3.74938 14.8292 3.98374 14.8778 4.20107 14.972C4.41839 15.0663 4.61405 15.2042 4.77593 15.3771C4.93781 15.55 5.06246 15.7544 5.14216 15.9774C5.22187 16.2005 5.25493 16.4376 5.23929 16.6739C5.27661 17.0558 5.23281 17.4412 5.11075 17.8049C4.98869 18.1687 4.79114 18.5025 4.53104 18.7846C4.36788 18.9647 4.30658 19.822 4.67627 19.9615C6.04092 20.467 7.1283 20.8282 7.38765 21.3488C7.61304 21.8166 7.73847 22.3268 7.75639 22.8455" stroke="#191919" stroke-linecap="round" stroke-linejoin="round"/>
</g>
<defs>
<clipPath id="clip0_5303_10341">
<rect width="24" height="24" fill="white"/>
</clipPath>
</defs>
</svg>
