<svg width="24" height="24" viewBox="0 0 24 24" fill="none" xmlns="http://www.w3.org/2000/svg">
<path d="M7.95752 6.75372V14.5288C7.95743 16.9848 9.34994 19.2285 11.5509 20.3186" stroke="#191919" stroke-linecap="round" stroke-linejoin="round"/>
<path d="M20.5342 8.64023H20.9833C21.7275 8.64023 22.3308 9.24358 22.3308 9.98773V10.8861C22.3308 11.6302 21.7275 12.2336 20.9833 12.2336H20.5342V8.64023Z" fill="#FF808C" stroke="#191919" stroke-linecap="round" stroke-linejoin="round"/>
<path d="M20.1191 3.82251C19.8606 3.65751 19.5358 3.63588 19.2576 3.76495C15.7436 5.54631 11.8928 6.56481 7.95752 6.75374V14.1201C11.8926 14.3081 15.7434 15.3257 19.2576 17.1061C19.853 17.3825 20.5342 16.9477 20.5342 16.2914V4.57977C20.5342 4.27306 20.3777 3.98751 20.1191 3.82251Z" fill="#E4F1F5"/>
<path d="M20.5342 10.4369V4.57977C20.5342 3.92335 19.853 3.48867 19.2576 3.76495C15.7438 5.54677 11.8928 6.56527 7.95752 6.75374V10.4369H20.5342Z" fill="white"/>
<path d="M20.1191 3.82251C19.8606 3.65751 19.5358 3.63588 19.2576 3.76495C15.7436 5.54631 11.8928 6.56481 7.95752 6.75374V14.1201C11.8926 14.3081 15.7434 15.3257 19.2576 17.1061C19.853 17.3825 20.5342 16.9477 20.5342 16.2914V4.57977C20.5342 4.27306 20.3777 3.98751 20.1191 3.82251Z" stroke="#191919" stroke-linecap="round" stroke-linejoin="round"/>
<path d="M7.95728 6.75372C7.11917 6.80579 6.22707 6.83815 5.26228 6.84356H4.36395C2.87546 6.84347 1.66895 8.05007 1.66895 9.53856V11.3352C1.66895 12.8236 2.87555 14.0302 4.36395 14.0302H5.26228C6.22707 14.0302 7.11917 14.0671 7.95728 14.1201V6.75372Z" fill="#FF808C"/>
<path d="M7.95728 10.4369V6.75372C7.11917 6.80671 6.22707 6.83815 5.26228 6.84356H4.36395C2.87546 6.84347 1.66895 8.05007 1.66895 9.53856V10.4369H7.95728Z" fill="#FFBFC5"/>
<path d="M7.95728 6.75372C7.11917 6.80579 6.22707 6.83815 5.26228 6.84356H4.36395C2.87546 6.84347 1.66895 8.05007 1.66895 9.53856V11.3352C1.66895 12.8236 2.87555 14.0302 4.36395 14.0302H5.26228C6.22707 14.0302 7.11917 14.0671 7.95728 14.1201V6.75372Z" stroke="#191919" stroke-linecap="round" stroke-linejoin="round"/>
</svg>
