<svg width="24" height="24" viewBox="0 0 24 24" fill="none" xmlns="http://www.w3.org/2000/svg">
<g clip-path="url(#clip0_5303_9286)">
<path d="M20.9243 10.5428C21.0284 10.079 21.0826 9.60545 21.0859 9.13013C21.0859 4.64045 16.5905 1.00012 11.043 1.00012C5.49542 1.00012 1 4.64045 1 9.13013C1.02496 10.2355 1.29719 11.3214 1.79671 12.3078C2.29623 13.2943 3.01035 14.1564 3.88663 14.8307L1.95647 19.1731L7.3481 16.6863C8.08591 16.9183 8.84441 17.0784 9.61303 17.1645C15.3289 17.7164 19.7708 14.869 20.9243 10.5428Z" fill="#66E1FF"/>
<path d="M11.043 3.86954C12.9373 3.81739 14.819 4.19174 16.5491 4.9649C18.2792 5.73806 19.8133 6.89025 21.0381 8.33626C20.5455 4.21961 16.2586 1.00012 11.043 1.00012C5.82734 1.00012 1.54043 4.21961 1.04785 8.33626C2.27261 6.89025 3.80676 5.73806 5.53686 4.9649C7.26694 4.19174 9.14871 3.81739 11.043 3.86954Z" fill="#C2F3FF"/>
<path d="M17.2612 21.5642C19.6383 21.5642 21.5653 19.6372 21.5653 17.2601C21.5653 14.883 19.6383 12.956 17.2612 12.956C14.884 12.956 12.957 14.883 12.957 17.2601C12.957 19.6372 14.884 21.5642 17.2612 21.5642Z" fill="#FF808C"/>
<path d="M17.2613 22.9999C20.4308 22.9999 23.0001 20.4305 23.0001 17.2611C23.0001 14.0916 20.4308 11.5222 17.2613 11.5222C14.0918 11.5222 11.5225 14.0916 11.5225 17.2611C11.5225 20.4305 14.0918 22.9999 17.2613 22.9999Z" stroke="#191919" stroke-linecap="round" stroke-linejoin="round"/>
<path d="M13.2041 21.3194L21.3198 13.2037" stroke="#191919" stroke-linecap="round" stroke-linejoin="round"/>
<path d="M20.9243 10.5428C21.0283 10.079 21.0826 9.60545 21.0859 9.13013C21.0859 4.64045 16.5905 1.00012 11.043 1.00012C5.49542 1.00012 1 4.64045 1 9.13013C1.02503 10.2354 1.2973 11.321 1.79683 12.3073C2.29634 13.2937 3.01042 14.1555 3.88663 14.8297L1.95647 19.1731L7.3481 16.6863C8.08591 16.9183 8.84441 17.0784 9.61303 17.1645" stroke="#191919" stroke-linecap="round" stroke-linejoin="round"/>
</g>
<defs>
<clipPath id="clip0_5303_9286">
<rect width="24" height="24" fill="white"/>
</clipPath>
</defs>
</svg>
