<svg width="24" height="24" viewBox="0 0 24 24" fill="none" xmlns="http://www.w3.org/2000/svg">
<g clip-path="url(#clip0_5303_9300)">
<path d="M8.65332 11.5218C8.65332 11.7754 8.75409 12.0188 8.93346 12.1981C9.11284 12.3774 9.35612 12.4782 9.60979 12.4782H11.5227V15.8259L14.8704 12.4782H22.0439C22.2976 12.4782 22.5409 12.3774 22.7202 12.1981C22.8996 12.0188 23.0004 11.7754 23.0004 11.5218V1.95708C23.0004 1.70341 22.8996 1.46013 22.7202 1.28075C22.5409 1.10138 22.2976 1.00061 22.0439 1.00061H9.60979C9.35612 1.00061 9.11284 1.10138 8.93346 1.28075C8.75409 1.46013 8.65332 1.70341 8.65332 1.95708V11.5218Z" fill="#66E1FF"/>
<path d="M9.60979 12.4782H10.5663L22.0439 1.00061H9.60979C9.35612 1.00061 9.11284 1.10138 8.93346 1.28075C8.75409 1.46013 8.65332 1.70341 8.65332 1.95708V11.5218C8.65332 11.7754 8.75409 12.0188 8.93346 12.1981C9.11284 12.3774 9.35612 12.4782 9.60979 12.4782Z" fill="#C2F3FF"/>
<path d="M8.65332 11.5218C8.65332 11.7754 8.75409 12.0188 8.93346 12.1981C9.11284 12.3774 9.35612 12.4782 9.60979 12.4782H11.5227V15.8259L14.8704 12.4782H22.0439C22.2976 12.4782 22.5409 12.3774 22.7202 12.1981C22.8996 12.0188 23.0004 11.7754 23.0004 11.5218V1.95708C23.0004 1.70341 22.8996 1.46013 22.7202 1.28075C22.5409 1.10138 22.2976 1.00061 22.0439 1.00061H9.60979C9.35612 1.00061 9.11284 1.10138 8.93346 1.28075C8.75409 1.46013 8.65332 1.70341 8.65332 1.95708V11.5218Z" stroke="#191919" stroke-linecap="round" stroke-linejoin="round"/>
<path d="M3.86983 12.4783C5.05838 12.4783 6.0219 11.5147 6.0219 10.3262C6.0219 9.13764 5.05838 8.17413 3.86983 8.17413C2.68128 8.17413 1.71777 9.13764 1.71777 10.3262C1.71777 11.5147 2.68128 12.4783 3.86983 12.4783Z" fill="#E3E3E3" stroke="#191919" stroke-linecap="round" stroke-linejoin="round"/>
<path d="M3.86942 13.4347C3.1084 13.4347 2.37855 13.737 1.84043 14.2751C1.30231 14.8133 1 15.5431 1 16.3041V18.2171H2.43471L2.91294 22.9994H4.82589L5.30412 18.2171H6.73883V16.3041C6.73883 15.5431 6.43652 14.8133 5.8984 14.2751C5.36028 13.737 4.63043 13.4347 3.86942 13.4347Z" fill="#E3E3E3" stroke="#191919" stroke-linecap="round" stroke-linejoin="round"/>
<path d="M18.2912 4.82648L15.5633 8.46107C15.5027 8.54159 15.4256 8.60819 15.337 8.65637C15.2485 8.70455 15.1507 8.73318 15.0502 8.74034C14.9496 8.7475 14.8487 8.73302 14.7542 8.69788C14.6598 8.66274 14.574 8.60775 14.5026 8.53663L13.0918 7.1287" stroke="#191919" stroke-linecap="round" stroke-linejoin="round"/>
</g>
<defs>
<clipPath id="clip0_5303_9300">
<rect width="24" height="24" fill="white"/>
</clipPath>
</defs>
</svg>
