<svg width="24" height="24" viewBox="0 0 24 24" fill="none" xmlns="http://www.w3.org/2000/svg">
<g clip-path="url(#clip0_5303_9279)">
<path d="M23 17.2609C23 17.5145 22.8992 17.7578 22.7198 17.9372C22.5405 18.1166 22.2972 18.2174 22.0435 18.2174H11.5217L7.69565 22.0435V18.2174H1.95652C1.70284 18.2174 1.45954 18.1166 1.28016 17.9372C1.10078 17.7578 1 17.5145 1 17.2609V2.913C1 2.65932 1.10078 2.41602 1.28016 2.23664C1.45954 2.05726 1.70284 1.95648 1.95652 1.95648H22.0435C22.2972 1.95648 22.5405 2.05726 22.7198 2.23664C22.8992 2.41602 23 2.65932 23 2.913V17.2609Z" fill="#66E1FF"/>
<path d="M21.5327 1.95648H1.95652C1.70284 1.95648 1.45954 2.05726 1.28016 2.23664C1.10078 2.41602 1 2.65932 1 2.913V17.2609C1 17.5145 1.10078 17.7578 1.28016 17.9372C1.45954 18.1166 1.70284 18.2174 1.95652 18.2174H5.27183L21.5327 1.95648Z" fill="#C2F3FF"/>
<path d="M23 17.2609C23 17.5145 22.8992 17.7578 22.7198 17.9372C22.5405 18.1166 22.2972 18.2174 22.0435 18.2174H11.5217L7.69565 22.0435V18.2174H1.95652C1.70284 18.2174 1.45954 18.1166 1.28016 17.9372C1.10078 17.7578 1 17.5145 1 17.2609V2.913C1 2.65932 1.10078 2.41602 1.28016 2.23664C1.45954 2.05726 1.70284 1.95648 1.95652 1.95648H22.0435C22.2972 1.95648 22.5405 2.05726 22.7198 2.23664C22.8992 2.41602 23 2.65932 23 2.913V17.2609Z" stroke="#191919" stroke-linecap="round" stroke-linejoin="round"/>
<path d="M6.26047 10.5652C6.44888 10.5652 6.63546 10.5281 6.80953 10.456C6.98361 10.3839 7.14178 10.2782 7.27501 10.145C7.40824 10.0117 7.51393 9.8536 7.58603 9.67953C7.65814 9.50545 7.69525 9.31888 7.69525 9.13046C7.69525 8.94204 7.65814 8.75547 7.58603 8.58139C7.51393 8.40732 7.40824 8.24915 7.27501 8.11592C7.14178 7.98268 6.98361 7.877 6.80953 7.80489C6.63546 7.73279 6.44888 7.69568 6.26047 7.69568C5.87994 7.69568 5.515 7.84684 5.24592 8.11592C4.97685 8.38499 4.82568 8.74993 4.82568 9.13046C4.82568 9.51099 4.97685 9.87593 5.24592 10.145C5.515 10.414 5.87994 10.5652 6.26047 10.5652Z" fill="#FFEF5E" stroke="#191919" stroke-linecap="round" stroke-linejoin="round"/>
<path d="M11.9997 10.5652C12.1881 10.5652 12.3747 10.5281 12.5488 10.456C12.7229 10.3839 12.881 10.2782 13.0143 10.145C13.1475 10.0117 13.2532 9.8536 13.3253 9.67953C13.3974 9.50545 13.4345 9.31888 13.4345 9.13046C13.4345 8.94204 13.3974 8.75547 13.3253 8.58139C13.2532 8.40732 13.1475 8.24915 13.0143 8.11592C12.881 7.98268 12.7229 7.877 12.5488 7.80489C12.3747 7.73279 12.1881 7.69568 11.9997 7.69568C11.6192 7.69568 11.2543 7.84684 10.9852 8.11592C10.7161 8.38499 10.5649 8.74993 10.5649 9.13046C10.5649 9.51099 10.7161 9.87593 10.9852 10.145C11.2543 10.414 11.6192 10.5652 11.9997 10.5652Z" fill="#FFEF5E" stroke="#191919" stroke-linecap="round" stroke-linejoin="round"/>
<path d="M17.739 10.5652C17.9274 10.5652 18.114 10.5281 18.288 10.456C18.4621 10.3839 18.6203 10.2782 18.7535 10.145C18.8868 10.0117 18.9924 9.8536 19.0645 9.67953C19.1367 9.50545 19.1738 9.31888 19.1738 9.13046C19.1738 8.94204 19.1367 8.75547 19.0645 8.58139C18.9924 8.40732 18.8868 8.24915 18.7535 8.11592C18.6203 7.98268 18.4621 7.877 18.288 7.80489C18.114 7.73279 17.9274 7.69568 17.739 7.69568C17.3585 7.69568 16.9935 7.84684 16.7244 8.11592C16.4554 8.38499 16.3042 8.74993 16.3042 9.13046C16.3042 9.51099 16.4554 9.87593 16.7244 10.145C16.9935 10.414 17.3585 10.5652 17.739 10.5652Z" fill="#FFEF5E" stroke="#191919" stroke-linecap="round" stroke-linejoin="round"/>
</g>
<defs>
<clipPath id="clip0_5303_9279">
<rect width="24" height="24" fill="white"/>
</clipPath>
</defs>
</svg>
