<svg width="24" height="24" viewBox="0 0 24 24" fill="none" xmlns="http://www.w3.org/2000/svg">
<g clip-path="url(#clip0_5303_9435)">
<path d="M1 13.4347C1 13.6884 1.10077 13.9317 1.28014 14.111C1.45952 14.2904 1.7028 14.3912 1.95647 14.3912H4.82589V18.2171L8.65177 14.3912H20.1294C20.3831 14.3912 20.6264 14.2904 20.8058 14.111C20.9851 13.9317 21.0859 13.6884 21.0859 13.4347V1.95708C21.0859 1.70341 20.9851 1.46013 20.8058 1.28075C20.6264 1.10138 20.3831 1.00061 20.1294 1.00061H1.95647C1.7028 1.00061 1.45952 1.10138 1.28014 1.28075C1.10077 1.46013 1 1.70341 1 1.95708V13.4347Z" fill="#66E1FF"/>
<path d="M1.95647 14.3912H4.82589L18.2165 1.00061H1.95647C1.7028 1.00061 1.45952 1.10138 1.28014 1.28075C1.10077 1.46013 1 1.70341 1 1.95708V13.4347C1 13.6884 1.10077 13.9317 1.28014 14.111C1.45952 14.2904 1.7028 14.3912 1.95647 14.3912Z" fill="#C2F3FF"/>
<path d="M17.2613 22.9994C20.4308 22.9994 23.0001 20.43 23.0001 17.2606C23.0001 14.0911 20.4308 11.5217 17.2613 11.5217C14.0918 11.5217 11.5225 14.0911 11.5225 17.2606C11.5225 20.43 14.0918 22.9994 17.2613 22.9994Z" fill="#FF808C"/>
<path d="M13.2015 21.3189C12.1252 20.2425 11.5205 18.7827 11.5205 17.2605C11.5205 15.7384 12.1252 14.2786 13.2015 13.2022C14.2778 12.1259 15.7377 11.5212 17.2598 11.5212C18.7819 11.5212 20.2418 12.1259 21.3181 13.2022L13.2015 21.3189Z" fill="#FFCCD1"/>
<path d="M17.2613 22.9994C20.4308 22.9994 23.0001 20.43 23.0001 17.2606C23.0001 14.0911 20.4308 11.5217 17.2613 11.5217C14.0918 11.5217 11.5225 14.0911 11.5225 17.2606C11.5225 20.43 14.0918 22.9994 17.2613 22.9994Z" stroke="#191919" stroke-linecap="round" stroke-linejoin="round"/>
<path d="M20.1304 17.2606H14.3916" stroke="#191919" stroke-linecap="round" stroke-linejoin="round"/>
<path d="M9.60825 14.3912H8.65177L4.82589 18.2171V14.3912H1.95647C1.7028 14.3912 1.45952 14.2904 1.28014 14.111C1.10077 13.9317 1 13.6884 1 13.4347V1.95708C1 1.70341 1.10077 1.46013 1.28014 1.28075C1.45952 1.10138 1.7028 1.00061 1.95647 1.00061H20.1294C20.3831 1.00061 20.6264 1.10138 20.8058 1.28075C20.9851 1.46013 21.0859 1.70341 21.0859 1.95708V9.60886" stroke="#191919" stroke-linecap="round" stroke-linejoin="round"/>
</g>
<defs>
<clipPath id="clip0_5303_9435">
<rect width="24" height="24" fill="white"/>
</clipPath>
</defs>
</svg>
