<svg width="24" height="24" viewBox="0 0 24 24" fill="none" xmlns="http://www.w3.org/2000/svg">
<g clip-path="url(#clip0_5303_9091)">
<path d="M19.1739 1H4.82609C3.81135 1 2.83817 1.4031 2.12063 2.12063C1.4031 2.83817 1 3.81135 1 4.82609V19.1739C1 20.1887 1.4031 21.1618 2.12063 21.8794C2.83817 22.5969 3.81135 23 4.82609 23H19.1739C20.1887 23 21.1618 22.5969 21.8794 21.8794C22.5969 21.1618 23 20.1887 23 19.1739V4.82609C23 3.81135 22.5969 2.83817 21.8794 2.12063C21.1618 1.4031 20.1887 1 19.1739 1Z" fill="#78EB7B"/>
<path d="M19.1739 1H4.82609C3.81135 1 2.83817 1.4031 2.12063 2.12063C1.4031 2.83817 1 3.81135 1 4.82609V19.1739C1.0016 19.7274 1.12406 20.2739 1.35884 20.7752C1.59361 21.2765 1.93502 21.7204 2.35922 22.076L22.077 2.35922C21.7213 1.93485 21.2772 1.59333 20.7758 1.35855C20.2743 1.12377 19.7276 1.0014 19.1739 1Z" fill="#C9F7CA"/>
<path d="M19.1739 1H4.82609C3.81135 1 2.83817 1.4031 2.12063 2.12063C1.4031 2.83817 1 3.81135 1 4.82609V19.1739C1 20.1887 1.4031 21.1618 2.12063 21.8794C2.83817 22.5969 3.81135 23 4.82609 23H19.1739C20.1887 23 21.1618 22.5969 21.8794 21.8794C22.5969 21.1618 23 20.1887 23 19.1739V4.82609C23 3.81135 22.5969 2.83817 21.8794 2.12063C21.1618 1.4031 20.1887 1 19.1739 1Z" stroke="#191919" stroke-linecap="round" stroke-linejoin="round"/>
<path d="M19.174 11.4022C19.174 14.6342 15.962 17.2551 12.0001 17.2551C11.1485 17.2567 10.3015 17.1323 9.48635 16.8859L5.36374 18.8047L6.97835 15.5822C6.32639 15.094 5.79389 14.464 5.42106 13.7399C5.04823 13.0158 4.84481 12.2164 4.82617 11.4022C4.82617 8.17389 8.03817 5.54919 12.0001 5.54919C15.962 5.54919 19.174 8.17389 19.174 11.4022Z" fill="white" stroke="#191919" stroke-linecap="round" stroke-linejoin="round"/>
<path d="M8.89147 12C8.82805 12 8.76723 11.9748 8.72238 11.9299C8.67754 11.8851 8.65234 11.8243 8.65234 11.7609C8.65234 11.6974 8.67754 11.6366 8.72238 11.5918C8.76723 11.5469 8.82805 11.5217 8.89147 11.5217" stroke="#191919"/>
<path d="M8.89111 12C8.95453 12 9.01536 11.9748 9.0602 11.9299C9.10505 11.8851 9.13024 11.8243 9.13024 11.7609C9.13024 11.6974 9.10505 11.6366 9.0602 11.5918C9.01536 11.5469 8.95453 11.5217 8.89111 11.5217" stroke="#191919"/>
<path d="M12.2391 12C12.1757 12 12.1149 11.9748 12.07 11.9299C12.0252 11.8851 12 11.8243 12 11.7609C12 11.6974 12.0252 11.6366 12.07 11.5918C12.1149 11.5469 12.1757 11.5217 12.2391 11.5217" stroke="#191919"/>
<path d="M12.2393 12C12.3027 12 12.3635 11.9748 12.4083 11.9299C12.4532 11.8851 12.4784 11.8243 12.4784 11.7609C12.4784 11.6974 12.4532 11.6366 12.4083 11.5918C12.3635 11.5469 12.3027 11.5217 12.2393 11.5217" stroke="#191919"/>
<path d="M15.5858 12C15.5224 12 15.4616 11.9748 15.4167 11.9299C15.3719 11.8851 15.3467 11.8243 15.3467 11.7609C15.3467 11.6974 15.3719 11.6366 15.4167 11.5918C15.4616 11.5469 15.5224 11.5217 15.5858 11.5217" stroke="#191919"/>
<path d="M15.5859 12C15.6494 12 15.7102 11.9748 15.755 11.9299C15.7999 11.8851 15.8251 11.8243 15.8251 11.7609C15.8251 11.6974 15.7999 11.6366 15.755 11.5918C15.7102 11.5469 15.6494 11.5217 15.5859 11.5217" stroke="#191919"/>
</g>
<defs>
<clipPath id="clip0_5303_9091">
<rect width="24" height="24" fill="white"/>
</clipPath>
</defs>
</svg>
