<svg width="24" height="24" viewBox="0 0 24 24" fill="none" xmlns="http://www.w3.org/2000/svg">
<g clip-path="url(#clip0_5303_9349)">
<path d="M23 17.2609C23 17.5145 22.8992 17.7578 22.7198 17.9372C22.5405 18.1166 22.2972 18.2174 22.0435 18.2174H11.5217L7.69565 22.0435V18.2174H1.95652C1.70284 18.2174 1.45954 18.1166 1.28016 17.9372C1.10078 17.7578 1 17.5145 1 17.2609V2.913C1 2.65932 1.10078 2.41602 1.28016 2.23664C1.45954 2.05726 1.70284 1.95648 1.95652 1.95648H22.0435C22.2972 1.95648 22.5405 2.05726 22.7198 2.23664C22.8992 2.41602 23 2.65932 23 2.913V17.2609Z" fill="#FFEF5E"/>
<path d="M21.2668 1.95648H1.95652C1.70284 1.95648 1.45954 2.05726 1.28016 2.23664C1.10078 2.41602 1 2.65932 1 2.913V17.2609C1 17.5145 1.10078 17.7578 1.28016 17.9372C1.45954 18.1166 1.70284 18.2174 1.95652 18.2174H5.00591L21.2668 1.95648Z" fill="#FFF9BF"/>
<path d="M23 17.2609C23 17.5145 22.8992 17.7578 22.7198 17.9372C22.5405 18.1166 22.2972 18.2174 22.0435 18.2174H11.5217L7.69565 22.0435V18.2174H1.95652C1.70284 18.2174 1.45954 18.1166 1.28016 17.9372C1.10078 17.7578 1 17.5145 1 17.2609V2.913C1 2.65932 1.10078 2.41602 1.28016 2.23664C1.45954 2.05726 1.70284 1.95648 1.95652 1.95648H22.0435C22.2972 1.95648 22.5405 2.05726 22.7198 2.23664C22.8992 2.41602 23 2.65932 23 2.913V17.2609Z" stroke="#191919" stroke-linecap="round" stroke-linejoin="round"/>
<path d="M9.60889 7.69561C9.60897 7.17827 9.7489 6.67058 10.0139 6.22626C10.2789 5.78194 10.659 5.41751 11.1141 5.17155C11.5693 4.92559 12.0824 4.80724 12.5993 4.82902C13.1162 4.85081 13.6175 5.01192 14.0504 5.29531C14.4832 5.5787 14.8313 5.97382 15.058 6.43887C15.2846 6.90391 15.3813 7.42158 15.3379 7.93709C15.2944 8.45259 15.1124 8.94677 14.8111 9.36731C14.5098 9.78784 14.1004 10.1191 13.6263 10.3261C13.285 10.475 12.9946 10.7204 12.7907 11.032C12.5868 11.3436 12.4783 11.7079 12.4785 12.0803V12.4782" stroke="#191919" stroke-linecap="round" stroke-linejoin="round"/>
<path d="M12.4779 15.1087C12.4145 15.1087 12.3537 15.0835 12.3088 15.0387C12.264 14.9938 12.2388 14.933 12.2388 14.8696C12.2388 14.8061 12.264 14.7453 12.3088 14.7005C12.3537 14.6556 12.4145 14.6304 12.4779 14.6304" stroke="#191919"/>
<path d="M12.478 15.1087C12.5414 15.1087 12.6023 15.0835 12.6471 15.0387C12.692 14.9938 12.7172 14.933 12.7172 14.8696C12.7172 14.8061 12.692 14.7453 12.6471 14.7005C12.6023 14.6556 12.5414 14.6304 12.478 14.6304" stroke="#191919"/>
</g>
<defs>
<clipPath id="clip0_5303_9349">
<rect width="24" height="24" fill="white"/>
</clipPath>
</defs>
</svg>
