<svg width="24" height="24" viewBox="0 0 24 24" fill="none" xmlns="http://www.w3.org/2000/svg">
<g clip-path="url(#clip0_5303_9386)">
<path d="M12.5561 11.3328C13.3903 11.9039 14.3456 12.2738 15.3467 12.4135V15.3494C15.8248 14.8712 18.6939 12.4804 19.1721 12.0396C20.2718 11.6488 21.2266 10.9329 21.9098 9.98686C22.5931 9.04069 22.9723 7.90917 22.9973 6.74242C22.9314 5.15812 22.2401 3.6645 21.0749 2.58891C19.9098 1.51341 18.3658 0.943606 16.7813 1.00441C11.7604 1.00441 8.14747 6.50427 12.5561 11.3328Z" fill="#66E1FF"/>
<path d="M16.7819 2.91715C18.2006 2.87566 19.5893 3.33069 20.7084 4.20356C21.8274 5.07652 22.6068 6.31267 22.9119 7.69874C22.9691 7.38319 22.9979 7.06315 22.998 6.74242C22.9321 5.15812 22.2408 3.6645 21.0756 2.58891C19.9104 1.51341 18.3664 0.943606 16.7819 1.00441C13.0053 1.00441 10.0264 4.11542 10.6614 7.71026C10.9625 6.32302 11.7391 5.08463 12.8568 4.20932C13.9744 3.33411 15.3628 2.87693 16.7819 2.91715Z" fill="#C2F3FF"/>
<path d="M1.00195 23C1.00195 21.2246 1.70724 19.5218 2.96261 18.2664C4.21808 17.0109 5.92078 16.3057 7.69618 16.3057C9.47169 16.3057 11.1744 17.0109 12.4298 18.2664C13.6852 19.5218 14.3905 21.2246 14.3905 23H1.00195Z" fill="#E3E3E3"/>
<path d="M7.69618 16.3057C5.92078 16.3057 4.21808 17.0109 2.96261 18.2664C1.70724 19.5218 1.00195 21.2246 1.00195 23H7.69618V16.3057Z" fill="white"/>
<path d="M7.69624 14.8712C9.94102 14.8712 11.7606 13.0515 11.7606 10.8068C11.7606 8.56215 9.94102 6.74243 7.69624 6.74243C5.45146 6.74243 3.63184 8.56215 3.63184 10.8068C3.63184 13.0515 5.45155 14.8712 7.69624 14.8712Z" fill="#E3E3E3"/>
<path d="M7.69624 14.8712C6.61831 14.8712 5.58459 14.443 4.8223 13.6808C4.06012 12.9186 3.63184 11.8848 3.63184 10.8068C3.63184 9.7289 4.06012 8.69509 4.8223 7.9329C5.58459 7.17062 6.61831 6.74243 7.69624 6.74243V14.8712Z" fill="white"/>
<path d="M7.69624 14.8712C9.94102 14.8712 11.7606 13.0515 11.7606 10.8068C11.7606 8.56215 9.94102 6.74243 7.69624 6.74243C5.45146 6.74243 3.63184 8.56215 3.63184 10.8068C3.63184 13.0515 5.45155 14.8712 7.69624 14.8712Z" stroke="#191919" stroke-linecap="round" stroke-linejoin="round"/>
<path d="M1.00195 23C1.00195 21.2246 1.70724 19.5218 2.96261 18.2664C4.21808 17.0109 5.92078 16.3057 7.69618 16.3057C9.47169 16.3057 11.1744 17.0109 12.4298 18.2664C13.6852 19.5218 14.3905 21.2246 14.3905 23H1.00195Z" stroke="#191919" stroke-linecap="round" stroke-linejoin="round"/>
<path d="M13.8923 12.0348C14.3609 12.2179 14.849 12.3462 15.3469 12.4173V15.3532C15.8251 14.875 18.6941 12.4842 19.1723 12.0434C20.272 11.6527 21.2268 10.9367 21.9101 9.99066C22.5933 9.04449 22.9726 7.91298 22.9976 6.74622C22.9327 5.16124 22.2418 3.66664 21.0765 2.59027C19.9113 1.5139 18.3667 0.943599 16.7815 1.00441C15.5339 0.978346 14.3075 1.32962 13.2628 2.01216C12.2182 2.6947 11.404 3.67669 10.9268 4.82978" stroke="#191919" stroke-linecap="round" stroke-linejoin="round"/>
<path d="M13.6766 7.5492C13.5446 7.5492 13.4375 7.44213 13.4375 7.31008C13.4375 7.17802 13.5446 7.07104 13.6766 7.07104" stroke="#191919"/>
<path d="M13.6768 7.5492C13.8088 7.5492 13.9158 7.44213 13.9158 7.31008C13.9158 7.17802 13.8088 7.07104 13.6768 7.07104" stroke="#191919"/>
<path d="M16.785 7.5492C16.653 7.5492 16.5459 7.44213 16.5459 7.31008C16.5459 7.17802 16.653 7.07104 16.785 7.07104" stroke="#191919"/>
<path d="M16.7852 7.5492C16.9172 7.5492 17.0242 7.44213 17.0242 7.31008C17.0242 7.17802 16.9172 7.07104 16.7852 7.07104" stroke="#191919"/>
<path d="M19.8929 7.5492C19.7609 7.5492 19.6538 7.44213 19.6538 7.31008C19.6538 7.17802 19.7609 7.07104 19.8929 7.07104" stroke="#191919"/>
<path d="M19.8931 7.5492C20.0251 7.5492 20.1321 7.44213 20.1321 7.31008C20.1321 7.17802 20.0251 7.07104 19.8931 7.07104" stroke="#191919"/>
</g>
<defs>
<clipPath id="clip0_5303_9386">
<rect width="24" height="24" fill="white"/>
</clipPath>
</defs>
</svg>
