<svg width="24" height="24" viewBox="0 0 24 24" fill="none" xmlns="http://www.w3.org/2000/svg">
<g clip-path="url(#clip0_5303_9307)">
<path d="M23.0003 6.73942C23.0003 3.57064 19.7885 1.00061 15.8268 1.00061C11.8651 1.00061 8.65332 3.57064 8.65332 6.73942C8.65332 9.78003 11.6107 12.2611 15.3486 12.4601V15.8259L19.5236 11.6509C20.5087 11.2455 21.3586 10.5687 21.9741 9.69926C22.5896 8.82975 22.9454 7.80332 23.0003 6.73942Z" fill="#66E1FF"/>
<path d="M15.8269 2.91355C19.3811 2.91355 22.3308 4.98239 22.9047 7.69589C22.97 7.38129 23.002 7.06071 23.0004 6.73942C23.0004 3.57064 19.7885 1.00061 15.8269 1.00061C11.8652 1.00061 8.65334 3.57064 8.65334 6.73942C8.6523 7.06068 8.68435 7.38119 8.74899 7.69589C9.32287 4.98239 12.2736 2.91355 15.8269 2.91355Z" fill="#C2F3FF"/>
<path d="M23.0003 6.73942C23.0003 3.57064 19.7885 1.00061 15.8268 1.00061C11.8651 1.00061 8.65332 3.57064 8.65332 6.73942C8.65332 9.78003 11.6107 12.2611 15.3486 12.4601V15.8259L19.5236 11.6509C20.5087 11.2455 21.3586 10.5687 21.9741 9.69926C22.5896 8.82975 22.9454 7.80332 23.0003 6.73942Z" stroke="#191919" stroke-linecap="round" stroke-linejoin="round"/>
<path d="M12.4795 4.82648H19.1748" stroke="#191919" stroke-linecap="round" stroke-linejoin="round"/>
<path d="M12.4795 7.69586H17.2618" stroke="#191919" stroke-linecap="round" stroke-linejoin="round"/>
<path d="M3.86983 12.4782C5.05837 12.4782 6.02188 11.5147 6.02188 10.3262C6.02188 9.13764 5.05837 8.17413 3.86983 8.17413C2.68128 8.17413 1.71777 9.13764 1.71777 10.3262C1.71777 11.5147 2.68128 12.4782 3.86983 12.4782Z" fill="#E3E3E3" stroke="#191919" stroke-linecap="round" stroke-linejoin="round"/>
<path d="M3.8694 13.4347C3.10839 13.4347 2.37855 13.737 1.84043 14.2751C1.30231 14.8133 1 15.5431 1 16.3041V18.217H2.4347L2.91294 22.9994H4.82587L5.30411 18.217H6.73881V16.3041C6.73881 15.5431 6.4365 14.8133 5.89838 14.2751C5.36026 13.737 4.63042 13.4347 3.8694 13.4347Z" fill="#E3E3E3" stroke="#191919" stroke-linecap="round" stroke-linejoin="round"/>
</g>
<defs>
<clipPath id="clip0_5303_9307">
<rect width="24" height="24" fill="white"/>
</clipPath>
</defs>
</svg>
