<svg width="24" height="24" viewBox="0 0 24 24" fill="none" xmlns="http://www.w3.org/2000/svg">
<path d="M14.6979 21.9157C13.2868 21.7452 11.9302 21.2676 10.7236 20.5163L12.6654 13.7738C13.8683 14.7021 15.3551 15.186 16.874 15.1436C18.1308 15.1234 19.3746 14.8865 20.5509 14.4434L18.679 20.9859C17.4249 21.5534 16.0717 21.8693 14.696 21.9157" fill="#FFEF5E"/>
<path d="M14.6979 21.9157C13.2868 21.7452 11.9302 21.2676 10.7236 20.5163L12.6654 13.7738C13.8683 14.7021 15.3551 15.186 16.874 15.1436C18.1308 15.1234 19.3746 14.8865 20.5509 14.4434L18.679 20.9859C17.4249 21.5534 16.0717 21.8693 14.696 21.9157" stroke="#191919" stroke-linecap="round" stroke-linejoin="round"/>
<path d="M8.52872 19.7979C7.41516 18.9478 6.06027 18.4735 4.65962 18.4435C3.39791 18.484 2.15564 18.7658 1 19.2738L2.94746 12.5208C4.16987 11.9962 5.47639 11.6949 6.80508 11.6312C8.15006 11.6918 9.44886 12.1399 10.545 12.9216C10.2868 13.8044 8.92854 18.4426 8.52872 19.7979Z" fill="#66E1FF"/>
<path d="M1 19.2738L2.94746 12.5208C4.16987 11.9962 5.47639 11.6949 6.80508 11.6312C8.15006 11.6918 9.44886 12.1399 10.545 12.9216L1 19.2738Z" fill="#C2F3FF"/>
<path d="M12.8917 3.34593V3.35071C12.4919 4.72044 11.3067 8.77893 10.9088 10.1295C9.82992 9.3085 8.52372 8.84081 7.16887 8.7904C5.86485 8.83919 4.58241 9.13861 3.3916 9.67231L5.31228 2.93463C6.45858 2.43009 7.68828 2.1418 8.93938 2.08429C10.3552 2.08858 11.7353 2.52912 12.8917 3.34593Z" fill="#FFBC44"/>
<path d="M12.8917 3.34593V3.35071C12.4919 4.72044 11.3067 8.77893 10.9088 10.1295C9.82992 9.3085 8.52372 8.84081 7.16887 8.7904C5.86485 8.83919 4.58241 9.13861 3.3916 9.67231L5.31228 2.93463C6.45858 2.43009 7.68828 2.1418 8.93938 2.08429C10.3552 2.08858 11.7353 2.52912 12.8917 3.34593Z" stroke="#191919" stroke-linecap="round" stroke-linejoin="round"/>
<path d="M17.3161 12.3505C15.8207 12.3432 14.362 11.8874 13.1285 11.042L13.1074 11.0277L15.0769 4.22015C16.2679 5.138 17.7332 5.62823 19.2368 5.61188C20.5376 5.58988 21.8193 5.29623 22.9997 4.75102L21.0589 11.4361L21.0494 11.4419V11.4505C19.8881 12.0233 18.6137 12.3298 17.319 12.3477" fill="#78EB7B"/>
<path d="M13.1285 11.0439L13.1074 11.0296L15.0769 4.22015C16.2679 5.138 17.7332 5.62823 19.2368 5.61188C20.5376 5.58988 21.8193 5.29623 22.9997 4.75102L13.1285 11.0439Z" fill="#C9F7CA"/>
<path d="M8.52872 19.7979C7.41516 18.9478 6.06027 18.4735 4.65962 18.4435C3.39791 18.484 2.15564 18.7658 1 19.2738L2.94746 12.5208C4.16987 11.9962 5.47639 11.6949 6.80508 11.6312C8.15006 11.6918 9.44886 12.1399 10.545 12.9216C10.2868 13.8044 8.92854 18.4426 8.52872 19.7979Z" stroke="#191919" stroke-linecap="round" stroke-linejoin="round"/>
<path d="M17.3161 12.3505C15.8207 12.3432 14.362 11.8874 13.1285 11.042L13.1074 11.0277L15.0769 4.22015C16.2679 5.138 17.7332 5.62823 19.2368 5.61188C20.5376 5.58988 21.8193 5.29623 22.9997 4.75102L21.0589 11.4361L21.0494 11.4419V11.4505C19.8881 12.0233 18.6137 12.3298 17.319 12.3477" stroke="#191919" stroke-linecap="round" stroke-linejoin="round"/>
</svg>
