<svg width="24" height="24" viewBox="0 0 24 24" fill="none" xmlns="http://www.w3.org/2000/svg">
<g clip-path="url(#clip0_5303_5309)">
<path d="M22.0435 1H1.95652C1.42825 1 1 1.42825 1 1.95652V22.0435C1 22.5718 1.42825 23 1.95652 23H22.0435C22.5718 23 23 22.5718 23 22.0435V1.95652C23 1.42825 22.5718 1 22.0435 1Z" fill="#E3E3E3"/>
<path d="M22.7197 1.28026C22.5404 1.10087 22.2971 1.00005 22.0435 1H1.95652C1.70283 1 1.45954 1.10078 1.28016 1.28016C1.10078 1.45954 1 1.70283 1 1.95652V22.0435C1.00005 22.2971 1.10087 22.5404 1.28026 22.7197L22.7197 1.28026Z" fill="white"/>
<path d="M22.0435 1H1.95652C1.42825 1 1 1.42825 1 1.95652V22.0435C1 22.5718 1.42825 23 1.95652 23H22.0435C22.5718 23 23 22.5718 23 22.0435V1.95652C23 1.42825 22.5718 1 22.0435 1Z" stroke="#191919" stroke-linecap="round" stroke-linejoin="round"/>
<path d="M14.3911 3.86957H20.1293" stroke="#191919" stroke-linecap="round" stroke-linejoin="round"/>
<path d="M14.3911 5.78265H20.1293" stroke="#191919" stroke-linecap="round" stroke-linejoin="round"/>
<path d="M14.3911 7.69568H20.1293" stroke="#191919" stroke-linecap="round" stroke-linejoin="round"/>
<path d="M11.5214 12.4783H5.78223V18.2174H11.5214V12.4783Z" fill="#808080"/>
<path d="M11.5214 12.4783H5.78223V14.3913H11.5214V12.4783Z" fill="#B2B2B2"/>
<path d="M11.5214 12.4783H5.78223V18.2174H11.5214V12.4783Z" stroke="#191919" stroke-linecap="round" stroke-linejoin="round"/>
<path d="M6.73926 12.4783V10.5652" stroke="#191919" stroke-linecap="round" stroke-linejoin="round"/>
<path d="M8.65186 12.4783V10.5652" stroke="#191919" stroke-linecap="round" stroke-linejoin="round"/>
<path d="M8.65186 20.1304V18.2174" stroke="#191919" stroke-linecap="round" stroke-linejoin="round"/>
<path d="M10.5649 12.4783V10.5652" stroke="#191919" stroke-linecap="round" stroke-linejoin="round"/>
<path d="M6.73926 20.1304V18.2174" stroke="#191919" stroke-linecap="round" stroke-linejoin="round"/>
<path d="M10.5649 20.1304V18.2174" stroke="#191919" stroke-linecap="round" stroke-linejoin="round"/>
<path d="M11.5215 13.4348H13.4345" stroke="#191919" stroke-linecap="round" stroke-linejoin="round"/>
<path d="M11.5215 15.3478H13.4345" stroke="#191919" stroke-linecap="round" stroke-linejoin="round"/>
<path d="M11.5215 17.2609H13.4345" stroke="#191919" stroke-linecap="round" stroke-linejoin="round"/>
<path d="M3.86963 13.4348H5.78267" stroke="#191919" stroke-linecap="round" stroke-linejoin="round"/>
<path d="M3.86963 15.3478H5.78267" stroke="#191919" stroke-linecap="round" stroke-linejoin="round"/>
<path d="M3.86963 17.2609H5.78267" stroke="#191919" stroke-linecap="round" stroke-linejoin="round"/>
<path d="M20.1299 10.5652V20.1305" stroke="#191919" stroke-linecap="round" stroke-linejoin="round"/>
<path d="M5.30441 7.69568C6.09682 7.69568 6.73919 7.0533 6.73919 6.26089C6.73919 5.46848 6.09682 4.82611 5.30441 4.82611C4.512 4.82611 3.86963 5.46848 3.86963 6.26089C3.86963 7.0533 4.512 7.69568 5.30441 7.69568Z" fill="#FF808C"/>
<path d="M4.28951 7.2758C4.02036 7.00664 3.86914 6.64157 3.86914 6.26093C3.86914 6.07245 3.90626 5.88582 3.97839 5.71168C4.05053 5.53756 4.15624 5.37934 4.28951 5.24606C4.42279 5.11278 4.58101 5.00707 4.75514 4.93494C4.92927 4.86281 5.11591 4.82568 5.30438 4.82568C5.68503 4.82568 6.0501 4.9769 6.31925 5.24606L4.28951 7.2758Z" fill="#FFBFC5"/>
<path d="M5.30441 7.69568C6.09682 7.69568 6.73919 7.0533 6.73919 6.26089C6.73919 5.46848 6.09682 4.82611 5.30441 4.82611C4.512 4.82611 3.86963 5.46848 3.86963 6.26089C3.86963 7.0533 4.512 7.69568 5.30441 7.69568Z" stroke="#191919" stroke-linecap="round" stroke-linejoin="round"/>
<path d="M10.0866 7.69568C10.879 7.69568 11.5214 7.0533 11.5214 6.26089C11.5214 5.46848 10.879 4.82611 10.0866 4.82611C9.29423 4.82611 8.65186 5.46848 8.65186 6.26089C8.65186 7.0533 9.29423 7.69568 10.0866 7.69568Z" fill="#FF808C"/>
<path d="M9.07174 7.2758C8.80258 7.00664 8.65137 6.64157 8.65137 6.26093C8.65137 5.88028 8.80258 5.51522 9.07174 5.24606C9.34091 4.9769 9.70596 4.82568 10.0866 4.82568C10.4672 4.82568 10.8323 4.9769 11.1015 5.24606L9.07174 7.2758Z" fill="#FFBFC5"/>
<path d="M10.0866 7.69568C10.879 7.69568 11.5214 7.0533 11.5214 6.26089C11.5214 5.46848 10.879 4.82611 10.0866 4.82611C9.29423 4.82611 8.65186 5.46848 8.65186 6.26089C8.65186 7.0533 9.29423 7.69568 10.0866 7.69568Z" stroke="#191919" stroke-linecap="round" stroke-linejoin="round"/>
<path d="M16.5424 12.0001C16.4103 12.0001 16.3032 11.893 16.3032 11.7609C16.3032 11.6288 16.4103 11.5218 16.5424 11.5218" stroke="#191919"/>
<path d="M16.542 12.0001C16.6741 12.0001 16.7811 11.893 16.7811 11.7609C16.7811 11.6288 16.6741 11.5218 16.542 11.5218" stroke="#191919"/>
<path d="M16.5424 15.3478C16.4103 15.3478 16.3032 15.2408 16.3032 15.1087C16.3032 14.9766 16.4103 14.8696 16.5424 14.8696" stroke="#191919"/>
<path d="M16.542 15.3478C16.6741 15.3478 16.7811 15.2408 16.7811 15.1087C16.7811 14.9766 16.6741 14.8696 16.542 14.8696" stroke="#191919"/>
<path d="M16.5424 18.6957C16.4103 18.6957 16.3032 18.5886 16.3032 18.4565C16.3032 18.3244 16.4103 18.2174 16.5424 18.2174" stroke="#191919"/>
<path d="M16.542 18.6957C16.6741 18.6957 16.7811 18.5886 16.7811 18.4565C16.7811 18.3244 16.6741 18.2174 16.542 18.2174" stroke="#191919"/>
</g>
<defs>
<clipPath id="clip0_5303_5309">
<rect width="24" height="24" fill="white"/>
</clipPath>
</defs>
</svg>
