<svg width="24" height="24" viewBox="0 0 24 24" fill="none" xmlns="http://www.w3.org/2000/svg">
<mask id="mask0_5303_13092" style="mask-type:luminance" maskUnits="userSpaceOnUse" x="1" y="1" width="22" height="22">
<path d="M1 1H23V23H1V1Z" fill="white"/>
</mask>
<g mask="url(#mask0_5303_13092)">
<path d="M10.625 18.875L11.0329 22.1402C11.0468 22.2516 11.1012 22.3541 11.1857 22.4281C11.2702 22.5022 11.379 22.5425 11.4912 22.5417H12.5161C12.6284 22.5425 12.7371 22.5022 12.8216 22.4281C12.9061 22.3541 12.9605 22.2516 12.9744 22.1402L13.375 18.875" fill="#E3E3E3"/>
<path d="M15.6663 11.5415V16.1248C15.6661 16.421 15.5659 16.7084 15.3822 16.9407L14.1172 18.5173C14.0294 18.6303 13.9168 18.7213 13.7879 18.7834C13.6591 18.8454 13.5177 18.8767 13.3747 18.8748H10.6247C10.4819 18.8758 10.3407 18.8439 10.2121 18.782C10.0834 18.7201 9.97054 18.6295 9.88217 18.5173L8.61717 16.9407C8.43344 16.7084 8.33333 16.421 8.33301 16.1248V11.5415H15.6663Z" fill="#E3E3E3"/>
<path d="M15.6663 9.70825H8.33301V11.5416H15.6663V9.70825Z" fill="#FF808C"/>
<path d="M15.6663 9.70825V3.29159C15.6662 3.00841 15.5785 2.7322 15.4154 2.50069C15.2524 2.2692 15.0217 2.09369 14.7552 1.99817C13.873 1.66649 12.9417 1.48402 11.9997 1.45825C11.0576 1.48402 10.1263 1.66649 9.24417 1.99817C8.9776 2.09369 8.74701 2.2692 8.58393 2.50069C8.42084 2.7322 8.33321 3.00841 8.33301 3.29159V9.70825H15.6663Z" fill="#808080"/>
<path d="M14.7552 1.99817C13.873 1.66649 12.9417 1.48402 11.9997 1.45825C11.0576 1.48402 10.1263 1.66649 9.24417 1.99817C8.9776 2.09369 8.74701 2.2692 8.58393 2.50069C8.42084 2.7322 8.33321 3.00841 8.33301 3.29159V5.8665C8.33359 5.58364 8.42139 5.30784 8.58445 5.0767C8.74751 4.84556 8.97789 4.67033 9.24417 4.57492C10.1262 4.24262 11.0574 4.05952 11.9997 4.03317C12.9417 4.05894 13.873 4.24141 14.7552 4.57308C15.0217 4.66861 15.2524 4.84412 15.4154 5.07561C15.5785 5.30712 15.6662 5.58333 15.6663 5.8665V3.29159C15.6662 3.00841 15.5785 2.7322 15.4154 2.50069C15.2524 2.2692 15.0217 2.09369 14.7552 1.99817Z" fill="#B2B2B2"/>
<path d="M15.6663 9.70825V3.29159C15.6662 3.00841 15.5785 2.7322 15.4154 2.50069C15.2524 2.2692 15.0217 2.09369 14.7552 1.99817C13.873 1.66649 12.9417 1.48402 11.9997 1.45825C11.0576 1.48402 10.1263 1.66649 9.24417 1.99817C8.9776 2.09369 8.74701 2.2692 8.58393 2.50069C8.42084 2.7322 8.33321 3.00841 8.33301 3.29159V9.70825H15.6663Z" stroke="#191919" stroke-linecap="round" stroke-linejoin="round"/>
<path d="M11.083 11.5415V14.7498C11.083 14.9929 11.1796 15.2261 11.3515 15.398C11.5234 15.5699 11.7566 15.6665 11.9997 15.6665C12.2428 15.6665 12.476 15.5699 12.6478 15.398C12.8197 15.2261 12.9163 14.9929 12.9163 14.7498V11.5415H11.083Z" fill="#808080"/>
<path d="M10.625 18.875L11.0329 22.1402C11.0468 22.2516 11.1012 22.3541 11.1857 22.4281C11.2702 22.5022 11.379 22.5425 11.4912 22.5417H12.5161C12.6284 22.5425 12.7371 22.5022 12.8216 22.4281C12.9061 22.3541 12.9605 22.2516 12.9744 22.1402L13.375 18.875" stroke="#191919" stroke-linecap="round" stroke-linejoin="round"/>
<path d="M15.6663 11.5415V16.1248C15.6661 16.421 15.5659 16.7084 15.3822 16.9407L14.1172 18.5173C14.0294 18.6303 13.9168 18.7213 13.7879 18.7834C13.6591 18.8454 13.5177 18.8767 13.3747 18.8748H10.6247C10.4819 18.8758 10.3407 18.8439 10.2121 18.782C10.0834 18.7201 9.97054 18.6295 9.88217 18.5173L8.61717 16.9407C8.43344 16.7084 8.33333 16.421 8.33301 16.1248V11.5415H15.6663Z" stroke="#191919" stroke-linecap="round" stroke-linejoin="round"/>
<path d="M15.6663 9.70825H8.33301V11.5416H15.6663V9.70825Z" stroke="#191919" stroke-linecap="round" stroke-linejoin="round"/>
<path d="M11.083 11.5415V14.7498C11.083 14.9929 11.1796 15.2261 11.3515 15.398C11.5234 15.5699 11.7566 15.6665 11.9997 15.6665C12.2428 15.6665 12.476 15.5699 12.6478 15.398C12.8197 15.2261 12.9163 14.9929 12.9163 14.7498V11.5415H11.083Z" stroke="#191919" stroke-linecap="round" stroke-linejoin="round"/>
</g>
</svg>
