<svg width="24" height="24" viewBox="0 0 24 24" fill="none" xmlns="http://www.w3.org/2000/svg">
<g clip-path="url(#clip0_5303_7618)">
<path d="M20.6085 2.43478V12.4783H3.39111V2.43478C3.39111 2.05426 3.54228 1.68931 3.81135 1.42024C4.08042 1.15116 4.44537 1 4.8259 1H19.1737C19.5542 1 19.9192 1.15116 20.1883 1.42024C20.4574 1.68931 20.6085 2.05426 20.6085 2.43478Z" fill="#66E1FF"/>
<path d="M20.6085 12.4783V20.1304C20.6062 20.8908 20.3032 21.6194 19.7655 22.157C19.2279 22.6947 18.4993 22.9977 17.7389 23H6.26068C5.50032 22.9977 4.77176 22.6947 4.2341 22.157C3.69644 21.6194 3.39338 20.8908 3.39111 20.1304V12.4783H20.6085Z" fill="#808080"/>
<path d="M3.39111 2.43478V12.4783H7.64572L19.124 1H4.8259C4.44537 1 4.08042 1.15116 3.81135 1.42024C3.54228 1.68931 3.39111 2.05426 3.39111 2.43478Z" fill="#C2F3FF"/>
<path d="M20.6076 12.4783H3.39209" stroke="#191919" stroke-linecap="round" stroke-linejoin="round"/>
<path d="M9.60889 2.91309H14.3915" stroke="#191919" stroke-linecap="round" stroke-linejoin="round"/>
<path d="M20.6085 20.1304C20.6062 20.8908 20.3032 21.6194 19.7655 22.157C19.2279 22.6947 18.4993 22.9977 17.7389 23H6.26068C5.50032 22.9977 4.77176 22.6947 4.2341 22.157C3.69644 21.6194 3.39338 20.8908 3.39111 20.1304V2.43478C3.39111 2.05426 3.54228 1.68931 3.81135 1.42024C4.08042 1.15116 4.44537 1 4.8259 1H19.1737C19.5542 1 19.9192 1.15116 20.1883 1.42024C20.4574 1.68931 20.6085 2.05426 20.6085 2.43478V20.1304Z" stroke="#191919" stroke-linecap="round" stroke-linejoin="round"/>
<path d="M8.65222 15.3479C8.52015 15.3479 8.41309 15.2409 8.41309 15.1088C8.41309 14.9767 8.52015 14.8696 8.65222 14.8696" stroke="#191919"/>
<path d="M8.65186 15.3479C8.78392 15.3479 8.89099 15.2409 8.89099 15.1088C8.89099 14.9767 8.78392 14.8696 8.65186 14.8696" stroke="#191919"/>
<path d="M11.9999 15.3479C11.8678 15.3479 11.7607 15.2409 11.7607 15.1088C11.7607 14.9767 11.8678 14.8696 11.9999 14.8696" stroke="#191919"/>
<path d="M12 15.3479C12.1321 15.3479 12.2391 15.2409 12.2391 15.1088C12.2391 14.9767 12.1321 14.8696 12 14.8696" stroke="#191919"/>
<path d="M15.3475 15.3479C15.2154 15.3479 15.1084 15.2409 15.1084 15.1088C15.1084 14.9767 15.2154 14.8696 15.3475 14.8696" stroke="#191919"/>
<path d="M15.3481 15.3479C15.4802 15.3479 15.5873 15.2409 15.5873 15.1088C15.5873 14.9767 15.4802 14.8696 15.3481 14.8696" stroke="#191919"/>
<path d="M8.65222 17.7392C8.52015 17.7392 8.41309 17.6322 8.41309 17.5001C8.41309 17.368 8.52015 17.2609 8.65222 17.2609" stroke="#191919"/>
<path d="M8.65186 17.7392C8.78392 17.7392 8.89099 17.6322 8.89099 17.5001C8.89099 17.368 8.78392 17.2609 8.65186 17.2609" stroke="#191919"/>
<path d="M11.9999 17.7392C11.8678 17.7392 11.7607 17.6322 11.7607 17.5001C11.7607 17.368 11.8678 17.2609 11.9999 17.2609" stroke="#191919"/>
<path d="M12 17.7392C12.1321 17.7392 12.2391 17.6322 12.2391 17.5001C12.2391 17.368 12.1321 17.2609 12 17.2609" stroke="#191919"/>
<path d="M15.3475 17.7392C15.2154 17.7392 15.1084 17.6322 15.1084 17.5001C15.1084 17.368 15.2154 17.2609 15.3475 17.2609" stroke="#191919"/>
<path d="M15.3472 17.7392C15.4793 17.7392 15.5863 17.6322 15.5863 17.5001C15.5863 17.368 15.4793 17.2609 15.3472 17.2609" stroke="#191919"/>
<path d="M8.65222 20.1304C8.52015 20.1304 8.41309 20.0234 8.41309 19.8913C8.41309 19.7592 8.52015 19.6522 8.65222 19.6522" stroke="#191919"/>
<path d="M8.65186 20.1304C8.78392 20.1304 8.89099 20.0234 8.89099 19.8913C8.89099 19.7592 8.78392 19.6522 8.65186 19.6522" stroke="#191919"/>
<path d="M11.9999 20.1304C11.8678 20.1304 11.7607 20.0234 11.7607 19.8913C11.7607 19.7592 11.8678 19.6522 11.9999 19.6522" stroke="#191919"/>
<path d="M12 20.1304C12.1321 20.1304 12.2391 20.0234 12.2391 19.8913C12.2391 19.7592 12.1321 19.6522 12 19.6522" stroke="#191919"/>
<path d="M15.3475 20.1304C15.2154 20.1304 15.1084 20.0234 15.1084 19.8913C15.1084 19.7592 15.2154 19.6522 15.3475 19.6522" stroke="#191919"/>
<path d="M15.3472 20.1304C15.4793 20.1304 15.5863 20.0234 15.5863 19.8913C15.5863 19.7592 15.4793 19.6522 15.3472 19.6522" stroke="#191919"/>
</g>
<defs>
<clipPath id="clip0_5303_7618">
<rect width="24" height="24" fill="white"/>
</clipPath>
</defs>
</svg>
