<svg width="24" height="24" viewBox="0 0 24 24" fill="none" xmlns="http://www.w3.org/2000/svg">
<g clip-path="url(#clip0_5303_7399)">
<path d="M21.5331 11.2667V19.0889H13.7109V11.2667C13.7109 11.1383 13.7362 11.0112 13.7854 10.8925C13.8345 10.7739 13.9065 10.6661 13.9973 10.5753C14.0881 10.4845 14.1959 10.4125 14.3145 10.3634C14.4332 10.3142 14.5603 10.2889 14.6887 10.2889H20.5554C20.6838 10.2889 20.8109 10.3142 20.9295 10.3634C21.0482 10.4125 21.156 10.4845 21.2468 10.5753C21.3375 10.6661 21.4096 10.7739 21.4587 10.8925C21.5078 11.0112 21.5331 11.1383 21.5331 11.2667Z" fill="#66E1FF"/>
<path d="M21.2613 10.5989C21.1712 10.5016 21.062 10.4239 20.9405 10.3706C20.8191 10.3173 20.688 10.2895 20.5554 10.2889H14.6887C14.5603 10.2889 14.4332 10.3142 14.3145 10.3634C14.1959 10.4125 14.0881 10.4845 13.9973 10.5753C13.9065 10.6661 13.8345 10.7739 13.7854 10.8925C13.7362 11.0112 13.7109 11.1383 13.7109 11.2667V18.1502L21.2613 10.5989Z" fill="#C2F3FF"/>
<path d="M6.37744 22.5111L8.33299 20.5555L6.37744 18.6" stroke="#191919" stroke-linecap="round" stroke-linejoin="round"/>
<path d="M21.5331 11.2667V19.0889H13.7109V11.2667C13.7109 11.1383 13.7362 11.0112 13.7854 10.8925C13.8345 10.7739 13.9065 10.6661 13.9973 10.5753C14.0881 10.4845 14.1959 10.4125 14.3145 10.3634C14.4332 10.3142 14.5603 10.2889 14.6887 10.2889H20.5554C20.6838 10.2889 20.8109 10.3142 20.9295 10.3634C21.0482 10.4125 21.156 10.4845 21.2468 10.5753C21.3375 10.6661 21.4096 10.7739 21.4587 10.8925C21.5078 11.0112 21.5331 11.1383 21.5331 11.2667Z" stroke="#191919" stroke-linecap="round" stroke-linejoin="round"/>
<path d="M21.5331 19.0889V22.0222C21.5331 22.2815 21.4301 22.5302 21.2468 22.7136C21.0634 22.897 20.8147 23 20.5554 23H14.6887C14.4294 23 14.1807 22.897 13.9973 22.7136C13.814 22.5302 13.7109 22.2815 13.7109 22.0222V19.0889H21.5331Z" fill="white" stroke="#191919" stroke-linecap="round" stroke-linejoin="round"/>
<path d="M2.4668 15.6666C2.4668 16.9632 2.98187 18.2067 3.89871 19.1236C4.81556 20.0404 6.05906 20.5555 7.35567 20.5555H8.33344" stroke="#191919" stroke-linecap="round" stroke-linejoin="round"/>
<path d="M18.1113 1L16.1558 2.95555L18.1113 4.9111" stroke="#191919" stroke-linecap="round" stroke-linejoin="round"/>
<path d="M22.0224 7.84438C22.0224 7.20236 21.896 6.56663 21.6503 5.97349C21.4046 5.38034 21.0445 4.8414 20.5905 4.38742C20.1365 3.93345 19.5976 3.57334 19.0044 3.32765C18.4113 3.08196 17.7756 2.95551 17.1335 2.95551H16.1558" stroke="#191919" stroke-linecap="round" stroke-linejoin="round"/>
<path d="M7.84447 11.2666C8.1038 11.2666 8.3525 11.1636 8.53586 10.9802C8.71923 10.7968 8.82225 10.5481 8.82225 10.2888C8.82225 10.0295 8.71923 9.78079 8.53586 9.59742C8.3525 9.41405 8.1038 9.31104 7.84447 9.31104C7.58515 9.31104 7.33645 9.41405 7.15308 9.59742C6.96971 9.78079 6.8667 10.0295 6.8667 10.2888C6.8667 10.5481 6.96971 10.7968 7.15308 10.9802C7.33645 11.1636 7.58515 11.2666 7.84447 11.2666Z" fill="#808080" stroke="#191919" stroke-linecap="round" stroke-linejoin="round"/>
<path d="M3.93383 11.2666C4.19315 11.2666 4.44185 11.1636 4.62522 10.9802C4.80859 10.7968 4.9116 10.5481 4.9116 10.2888C4.9116 10.0295 4.80859 9.78079 4.62522 9.59742C4.44185 9.41405 4.19315 9.31104 3.93383 9.31104C3.67451 9.31104 3.42581 9.41405 3.24244 9.59742C3.05907 9.78079 2.95605 10.0295 2.95605 10.2888C2.95605 10.5481 3.05907 10.7968 3.24244 10.9802C3.42581 11.1636 3.67451 11.2666 3.93383 11.2666Z" fill="#808080" stroke="#191919" stroke-linecap="round" stroke-linejoin="round"/>
<path d="M10.7775 1L8.33307 8.33331H3.4442L1.97754 3.44444H9.96302" fill="#FFEF5E"/>
<path d="M10.7775 1L8.33307 8.33331H3.4442L1.97754 3.44444H9.96302" stroke="#191919" stroke-linecap="round" stroke-linejoin="round"/>
<path d="M17.6219 21.2888C17.5571 21.2888 17.4949 21.2631 17.449 21.2172C17.4032 21.1714 17.3774 21.1092 17.3774 21.0444C17.3774 20.9795 17.4032 20.9174 17.449 20.8715C17.4949 20.8257 17.5571 20.7999 17.6219 20.7999" stroke="#191919"/>
<path d="M17.6216 21.2888C17.6864 21.2888 17.7486 21.2631 17.7944 21.2172C17.8403 21.1714 17.866 21.1092 17.866 21.0444C17.866 20.9795 17.8403 20.9174 17.7944 20.8715C17.7486 20.8257 17.6864 20.7999 17.6216 20.7999" stroke="#191919"/>
</g>
<defs>
<clipPath id="clip0_5303_7399">
<rect width="24" height="24" fill="white"/>
</clipPath>
</defs>
</svg>
