<svg width="24" height="24" viewBox="0 0 24 24" fill="none" xmlns="http://www.w3.org/2000/svg">
<g clip-path="url(#clip0_5303_13164)">
<mask id="mask0_5303_13164" style="mask-type:luminance" maskUnits="userSpaceOnUse" x="0" y="0" width="24" height="24">
<path d="M0 0H24V24H0V0Z" fill="white"/>
</mask>
<g mask="url(#mask0_5303_13164)">
<path d="M11.9992 11.5217C13.8481 11.5217 15.347 10.0228 15.347 8.17388C15.347 6.32492 13.8481 4.82605 11.9992 4.82605C10.1502 4.82605 8.65137 6.32492 8.65137 8.17388C8.65137 10.0228 10.1502 11.5217 11.9992 11.5217Z" fill="#FFDDA1"/>
<path d="M11.9992 7.21735C12.6757 7.21832 13.336 7.42459 13.8927 7.80886C14.4495 8.19314 14.8766 8.73735 15.1175 9.36952C15.3157 8.86206 15.3872 8.31387 15.3255 7.77253C15.2639 7.23121 15.0712 6.71309 14.7638 6.26317C14.4566 5.81324 14.0441 5.4451 13.5624 5.19071C13.0806 4.93631 12.544 4.80334 11.9992 4.80334C11.4544 4.80334 10.9177 4.93631 10.4359 5.19071C9.9542 5.4451 9.54178 5.81324 9.23453 6.26317C8.92727 6.71309 8.73447 7.23121 8.67285 7.77253C8.61123 8.31387 8.68265 8.86206 8.88093 9.36952C9.12179 8.73735 9.54884 8.19314 10.1057 7.80886C10.6624 7.42459 11.3226 7.21832 11.9992 7.21735Z" fill="#FFF9BF"/>
<path d="M11.9992 11.5217C13.8481 11.5217 15.347 10.0228 15.347 8.17388C15.347 6.32492 13.8481 4.82605 11.9992 4.82605C10.1502 4.82605 8.65137 6.32492 8.65137 8.17388C8.65137 10.0228 10.1502 11.5217 11.9992 11.5217Z" stroke="#191919" stroke-linecap="round" stroke-linejoin="round"/>
<path d="M6.73873 10.5652C6.23136 10.5652 5.74477 10.3637 5.386 10.0049C5.02723 9.64614 4.82568 9.15955 4.82568 8.65218C4.82568 8.14481 5.02723 7.65822 5.386 7.29946C5.74477 6.94068 6.23136 6.73914 6.73873 6.73914" fill="#808080"/>
<path d="M17.2603 10.5652C17.7676 10.5652 18.2542 10.3637 18.613 10.0049C18.9718 9.64614 19.1733 9.15955 19.1733 8.65218C19.1733 8.14481 18.9718 7.65822 18.613 7.29946C18.2542 6.94068 17.7676 6.73914 17.2603 6.73914" fill="#808080"/>
<path d="M19.9028 14.0086C19.8284 13.8381 19.7058 13.693 19.5502 13.5911C19.3946 13.4891 19.2127 13.4348 19.0266 13.4347H4.97339C4.78736 13.4348 4.60539 13.4891 4.44977 13.5911C4.29415 13.693 4.17163 13.8381 4.09722 14.0086L1 21.0869H23L19.9028 14.0086Z" fill="#E3E3E3"/>
<path d="M7.21699 19.1739C8.53767 19.1739 9.60829 18.3174 9.60829 17.2608C9.60829 16.2042 8.53767 15.3478 7.21699 15.3478C5.89631 15.3478 4.82568 16.2042 4.82568 17.2608C4.82568 18.3174 5.89631 19.1739 7.21699 19.1739Z" fill="#808080"/>
<path d="M16.7819 19.1739C18.1026 19.1739 19.1732 18.3174 19.1732 17.2608C19.1732 16.2042 18.1026 15.3478 16.7819 15.3478C15.4613 15.3478 14.3906 16.2042 14.3906 17.2608C14.3906 18.3174 15.4613 19.1739 16.7819 19.1739Z" fill="#808080"/>
<path d="M11.521 17.2607H12.4775" stroke="#191919" stroke-linecap="round" stroke-linejoin="round"/>
<path d="M10.5649 19.1738H13.4345" stroke="#191919" stroke-linecap="round" stroke-linejoin="round"/>
<path d="M1 21.0869H23V22.0434C23 22.2971 22.8992 22.5404 22.7198 22.7198C22.5405 22.8991 22.2971 23 22.0435 23H1.95652C1.70283 23 1.45954 22.8991 1.28016 22.7198C1.10078 22.5404 1 22.2971 1 22.0434V21.0869Z" fill="#808080"/>
<path d="M17.261 10.5652V6.26087C17.261 4.8656 16.7067 3.52747 15.7201 2.54087C14.7335 1.55427 13.3954 1 12.0001 1C10.6048 1 9.26673 1.55427 8.28013 2.54087C7.29352 3.52747 6.73926 4.8656 6.73926 6.26087V10.5652" stroke="#191919" stroke-linecap="round" stroke-linejoin="round"/>
<path d="M6.73873 10.5652C6.23136 10.5652 5.74477 10.3637 5.386 10.0049C5.02723 9.64614 4.82568 9.15955 4.82568 8.65218C4.82568 8.14481 5.02723 7.65822 5.386 7.29946C5.74477 6.94068 6.23136 6.73914 6.73873 6.73914" stroke="#191919" stroke-linecap="round" stroke-linejoin="round"/>
<path d="M17.2603 10.5652C17.7676 10.5652 18.2542 10.3637 18.613 10.0049C18.9718 9.64614 19.1733 9.15955 19.1733 8.65218C19.1733 8.14481 18.9718 7.65822 18.613 7.29946C18.2542 6.94068 17.7676 6.73914 17.2603 6.73914" stroke="#191919" stroke-linecap="round" stroke-linejoin="round"/>
<path d="M19.9028 14.0086C19.8284 13.8381 19.7058 13.693 19.5502 13.5911C19.3946 13.4891 19.2127 13.4348 19.0266 13.4347H4.97339C4.78736 13.4348 4.60539 13.4891 4.44977 13.5911C4.29415 13.693 4.17163 13.8381 4.09722 14.0086L1 21.0869H23L19.9028 14.0086Z" stroke="#191919" stroke-linecap="round" stroke-linejoin="round"/>
<path d="M7.21699 19.1739C8.53767 19.1739 9.60829 18.3174 9.60829 17.2608C9.60829 16.2042 8.53767 15.3478 7.21699 15.3478C5.89631 15.3478 4.82568 16.2042 4.82568 17.2608C4.82568 18.3174 5.89631 19.1739 7.21699 19.1739Z" stroke="#191919" stroke-linecap="round" stroke-linejoin="round"/>
<path d="M16.7819 19.1739C18.1026 19.1739 19.1732 18.3174 19.1732 17.2608C19.1732 16.2042 18.1026 15.3478 16.7819 15.3478C15.4613 15.3478 14.3906 16.2042 14.3906 17.2608C14.3906 18.3174 15.4613 19.1739 16.7819 19.1739Z" stroke="#191919" stroke-linecap="round" stroke-linejoin="round"/>
<path d="M1 21.0869H23V22.0434C23 22.2971 22.8992 22.5404 22.7198 22.7198C22.5405 22.8991 22.2971 23 22.0435 23H1.95652C1.70283 23 1.45954 22.8991 1.28016 22.7198C1.10078 22.5404 1 22.2971 1 22.0434V21.0869Z" stroke="#191919" stroke-linecap="round" stroke-linejoin="round"/>
<path d="M7.21716 17.4999C7.08509 17.4999 6.97803 17.3928 6.97803 17.2607C6.97803 17.1286 7.08509 17.0216 7.21716 17.0216" stroke="#191919"/>
<path d="M7.2168 17.4999C7.34886 17.4999 7.45593 17.3928 7.45593 17.2607C7.45593 17.1286 7.34886 17.0216 7.2168 17.0216" stroke="#191919"/>
<path d="M16.7821 17.4999C16.65 17.4999 16.543 17.3928 16.543 17.2607C16.543 17.1286 16.65 17.0216 16.7821 17.0216" stroke="#191919"/>
<path d="M16.7817 17.4999C16.9138 17.4999 17.0209 17.3928 17.0209 17.2607C17.0209 17.1286 16.9138 17.0216 16.7817 17.0216" stroke="#191919"/>
</g>
</g>
<defs>
<clipPath id="clip0_5303_13164">
<rect width="24" height="24" fill="white"/>
</clipPath>
</defs>
</svg>
