<svg width="24" height="24" viewBox="0 0 24 24" fill="none" xmlns="http://www.w3.org/2000/svg">
<path d="M11.9995 16.7625V19.632" stroke="#191919" stroke-linecap="round" stroke-linejoin="round"/>
<path d="M7.21777 19.632H16.783" stroke="#191919" stroke-linecap="round" stroke-linejoin="round"/>
<path d="M23 16.7203C23.0001 16.7866 22.9864 16.8522 22.9599 16.913C22.9333 16.9737 22.8944 17.0283 22.8457 17.0732C22.797 17.1182 22.7395 17.1525 22.6768 17.1741C22.6141 17.1957 22.5476 17.204 22.4816 17.1986C15.5059 16.6189 8.49412 16.6189 1.51844 17.1986C1.45234 17.2042 1.3858 17.1959 1.32306 17.1744C1.26031 17.1529 1.20273 17.1185 1.15397 17.0736C1.10522 17.0286 1.06635 16.9739 1.03984 16.9131C1.01334 16.8523 0.999772 16.7867 1 16.7203V4.84799C0.999772 4.78166 1.01334 4.716 1.03984 4.65519C1.06635 4.59438 1.10522 4.53975 1.15397 4.49478C1.20273 4.4498 1.26031 4.41545 1.32306 4.39393C1.3858 4.3724 1.45234 4.36416 1.51844 4.36973C8.49435 4.94843 15.5057 4.94843 22.4816 4.36973C22.5477 4.36416 22.6142 4.3724 22.6769 4.39393C22.7397 4.41545 22.7973 4.4498 22.846 4.49478C22.8948 4.53975 22.9336 4.59438 22.9602 4.65519C22.9867 4.716 23.0002 4.78166 23 4.84799V16.7203Z" fill="#66E1FF"/>
<path d="M18.4307 4.64238C12.7939 4.92934 7.14374 4.83847 1.51844 4.37169C1.45234 4.36611 1.3858 4.37435 1.32306 4.39588C1.26031 4.41741 1.20273 4.45175 1.15397 4.49673C1.10522 4.54171 1.06635 4.59634 1.03984 4.65715C1.01334 4.71795 0.999772 4.78361 1 4.84995V16.7204C0.999772 16.7867 1.01334 16.8524 1.03984 16.9132C1.06635 16.974 1.10522 17.0286 1.15397 17.0736C1.20273 17.1186 1.26031 17.1529 1.32306 17.1744C1.3858 17.196 1.45234 17.2042 1.51844 17.1986C3.06899 17.0713 4.62167 16.9711 6.17574 16.8983L18.4307 4.64238Z" fill="#C2F3FF"/>
<path d="M23 16.7203C23.0001 16.7866 22.9864 16.8522 22.9599 16.913C22.9333 16.9737 22.8944 17.0283 22.8457 17.0732C22.797 17.1182 22.7395 17.1525 22.6768 17.1741C22.6141 17.1957 22.5476 17.204 22.4816 17.1986C15.5059 16.6189 8.49412 16.6189 1.51844 17.1986C1.45234 17.2042 1.3858 17.1959 1.32306 17.1744C1.26031 17.1529 1.20273 17.1185 1.15397 17.0736C1.10522 17.0286 1.06635 16.9739 1.03984 16.9131C1.01334 16.8523 0.999772 16.7867 1 16.7203V4.84799C0.999772 4.78166 1.01334 4.716 1.03984 4.65519C1.06635 4.59438 1.10522 4.53975 1.15397 4.49478C1.20273 4.4498 1.26031 4.41545 1.32306 4.39393C1.3858 4.3724 1.45234 4.36416 1.51844 4.36973C8.49435 4.94843 15.5057 4.94843 22.4816 4.36973C22.5477 4.36416 22.6142 4.3724 22.6769 4.39393C22.7397 4.41545 22.7973 4.4498 22.846 4.49478C22.8948 4.53975 22.9336 4.59438 22.9602 4.65519C22.9867 4.716 23.0002 4.78166 23 4.84799V16.7203Z" stroke="#191919" stroke-linecap="round" stroke-linejoin="round"/>
</svg>
