<svg width="24" height="24" viewBox="0 0 24 24" fill="none" xmlns="http://www.w3.org/2000/svg">
<g clip-path="url(#clip0_5303_13356)">
<path d="M17.261 2.91304V11.5217H6.73926V2.91304C6.74077 2.40613 6.94281 1.92043 7.30124 1.56199C7.65969 1.20355 8.14539 1.00151 8.6523 1H15.348C15.8548 1.00151 16.3405 1.20355 16.699 1.56199C17.0574 1.92043 17.2595 2.40613 17.261 2.91304Z" fill="#808080"/>
<path d="M17.261 2.91304V11.5217H6.73926V2.91304C6.74077 2.40613 6.94281 1.92043 7.30124 1.56199C7.65969 1.20355 8.14539 1.00151 8.6523 1H15.348C15.8548 1.00151 16.3405 1.20355 16.699 1.56199C17.0574 1.92043 17.2595 2.40613 17.261 2.91304Z" stroke="#191919" stroke-linecap="round" stroke-linejoin="round"/>
<path d="M17.261 11.5217V21.0869C17.2595 21.5938 17.0574 22.0795 16.699 22.438C16.3405 22.7964 15.8548 22.9985 15.348 23H8.6523C8.14539 22.9985 7.65969 22.7964 7.30124 22.438C6.94281 22.0795 6.74077 21.5938 6.73926 21.0869V11.5217H17.261Z" fill="#E3E3E3"/>
<path d="M9.60935 9.60872C10.1376 9.60872 10.5659 9.18047 10.5659 8.6522C10.5659 8.12393 10.1376 7.69568 9.60935 7.69568C9.08109 7.69568 8.65283 8.12393 8.65283 8.6522C8.65283 9.18047 9.08109 9.60872 9.60935 9.60872Z" fill="#E3E3E3"/>
<path d="M9.60935 15.3479C10.1376 15.3479 10.5659 14.9196 10.5659 14.3913C10.5659 13.863 10.1376 13.4348 9.60935 13.4348C9.08109 13.4348 8.65283 13.863 8.65283 14.3913C8.65283 14.9196 9.08109 15.3479 9.60935 15.3479Z" fill="#E3E3E3" stroke="#191919" stroke-linecap="round" stroke-linejoin="round"/>
<path d="M9.60935 19.1739C10.1376 19.1739 10.5659 18.7457 10.5659 18.2174C10.5659 17.6891 10.1376 17.2609 9.60935 17.2609C9.08109 17.2609 8.65283 17.6891 8.65283 18.2174C8.65283 18.7457 9.08109 19.1739 9.60935 19.1739Z" fill="#E3E3E3" stroke="#191919" stroke-linecap="round" stroke-linejoin="round"/>
<path d="M14.3911 9.60872C14.9194 9.60872 15.3476 9.18047 15.3476 8.6522C15.3476 8.12393 14.9194 7.69568 14.3911 7.69568C13.8628 7.69568 13.4346 8.12393 13.4346 8.6522C13.4346 9.18047 13.8628 9.60872 14.3911 9.60872Z" fill="#E3E3E3" stroke="#191919" stroke-miterlimit="10"/>
<path d="M15.3476 18.2174C15.3476 18.4711 15.2468 18.7144 15.0674 18.8938C14.8881 19.0731 14.6448 19.1739 14.3911 19.1739C14.1374 19.1739 13.8941 19.0731 13.7147 18.8938C13.5354 18.7144 13.4346 18.4711 13.4346 18.2174V14.3913C13.4346 14.1377 13.5354 13.8943 13.7147 13.715C13.8941 13.5356 14.1374 13.4348 14.3911 13.4348C14.6448 13.4348 14.8881 13.5356 15.0674 13.715C15.2468 13.8943 15.3476 14.1377 15.3476 14.3913V18.2174Z" fill="#E3E3E3" stroke="#191919" stroke-linecap="round" stroke-linejoin="round"/>
<path d="M10.5649 2.91302H13.4345" stroke="#191919" stroke-linecap="round" stroke-linejoin="round"/>
<path d="M17.261 11.5217V21.0869C17.2595 21.5938 17.0574 22.0795 16.699 22.438C16.3405 22.7964 15.8548 22.9985 15.348 23H8.6523C8.14539 22.9985 7.65969 22.7964 7.30124 22.438C6.94281 22.0795 6.74077 21.5938 6.73926 21.0869V11.5217H17.261Z" stroke="#191919" stroke-linecap="round" stroke-linejoin="round"/>
<path d="M9.60935 9.60872C10.1376 9.60872 10.5659 9.18047 10.5659 8.6522C10.5659 8.12393 10.1376 7.69568 9.60935 7.69568C9.08109 7.69568 8.65283 8.12393 8.65283 8.6522C8.65283 9.18047 9.08109 9.60872 9.60935 9.60872Z" fill="#E3E3E3" stroke="#191919" stroke-linecap="round" stroke-linejoin="round"/>
<path d="M14.3911 9.60872C14.9194 9.60872 15.3476 9.18047 15.3476 8.6522C15.3476 8.12393 14.9194 7.69568 14.3911 7.69568C13.8628 7.69568 13.4346 8.12393 13.4346 8.6522C13.4346 9.18047 13.8628 9.60872 14.3911 9.60872Z" stroke="#191919" stroke-linecap="round" stroke-linejoin="round"/>
</g>
<defs>
<clipPath id="clip0_5303_13356">
<rect width="24" height="24" fill="white"/>
</clipPath>
</defs>
</svg>
