<svg width="24" height="24" viewBox="0 0 24 24" fill="none" xmlns="http://www.w3.org/2000/svg">
<path d="M13.4345 18.6956H10.5649V21.5651H13.4345V18.6956Z" fill="#808080"/>
<path d="M22.0435 2.43475H1.95652C1.70284 2.43475 1.45954 2.53553 1.28016 2.71491C1.10078 2.89429 1 3.13759 1 3.39128V17.7391C1 17.9928 1.10078 18.2361 1.28016 18.4155C1.45954 18.5948 1.70284 18.6956 1.95652 18.6956H22.0435C22.2972 18.6956 22.5405 18.5948 22.7198 18.4155C22.8992 18.2361 23 17.9928 23 17.7391V3.39128C23 3.13759 22.8992 2.89429 22.7198 2.71491C22.5405 2.53553 22.2972 2.43475 22.0435 2.43475Z" fill="#66E1FF"/>
<path d="M13.4345 18.6956H10.5649V21.5651H13.4345V18.6956Z" stroke="#191919" stroke-linecap="round" stroke-linejoin="round"/>
<path d="M7.21777 21.5651H16.783" stroke="#191919" stroke-linecap="round" stroke-linejoin="round"/>
<path d="M1.95652 2.43475C1.70284 2.43475 1.45954 2.53553 1.28016 2.71491C1.10078 2.89429 1 3.13759 1 3.39128V17.7391C1 17.9928 1.10078 18.2361 1.28016 18.4155C1.45954 18.5948 1.70284 18.6956 1.95652 18.6956H3.51278L19.7737 2.43475H1.95652Z" fill="#C2F3FF"/>
<path d="M22.0435 2.43475H1.95652C1.70284 2.43475 1.45954 2.53553 1.28016 2.71491C1.10078 2.89429 1 3.13759 1 3.39128V17.7391C1 17.9928 1.10078 18.2361 1.28016 18.4155C1.45954 18.5948 1.70284 18.6956 1.95652 18.6956H22.0435C22.2972 18.6956 22.5405 18.5948 22.7198 18.4155C22.8992 18.2361 23 17.9928 23 17.7391V3.39128C23 3.13759 22.8992 2.89429 22.7198 2.71491C22.5405 2.53553 22.2972 2.43475 22.0435 2.43475Z" stroke="#191919" stroke-linecap="round" stroke-linejoin="round"/>
<path d="M10.5653 14.8695V7.21735C9.2969 7.21735 8.08042 7.72123 7.18351 8.61814C6.2866 9.51505 5.78271 10.7315 5.78271 12V12.9565H10.5653" stroke="#191919" stroke-linecap="round" stroke-linejoin="round"/>
<path d="M17.2607 7.21735L13.4346 11.0434L17.2607 14.8695" stroke="#191919" stroke-linecap="round" stroke-linejoin="round"/>
<path d="M13.4346 14.8695V7.21735" stroke="#191919" stroke-linecap="round" stroke-linejoin="round"/>
</svg>
