<svg width="24" height="24" viewBox="0 0 24 24" fill="none" xmlns="http://www.w3.org/2000/svg">
<g clip-path="url(#clip0_5303_13387)">
<path d="M9.6087 16.3043H2.43478C2.05464 16.3031 1.69043 16.1515 1.42163 15.8827C1.15283 15.6139 1.00126 15.2497 1 14.8696V2.43478C1 2.05425 1.15116 1.68931 1.42024 1.42024C1.68931 1.15116 2.05425 1 2.43478 1H21.5652C21.9457 1 22.3107 1.15116 22.5798 1.42024C22.8488 1.68931 23 2.05425 23 2.43478V14.8696C22.9987 15.2497 22.8472 15.6139 22.5784 15.8827C22.3096 16.1515 21.9454 16.3031 21.5652 16.3043H20.1304" fill="#66E1FF"/>
<path d="M2.43478 1C2.05425 1 1.68931 1.15116 1.42024 1.42024C1.15116 1.68931 1 2.05425 1 2.43478V14.8696C1.00126 15.2497 1.15283 15.6139 1.42163 15.8827C1.69043 16.1515 2.05464 16.3031 2.43478 16.3043H2.75713L18.0615 1H2.43478Z" fill="#C2F3FF"/>
<path d="M9.6087 16.3043H2.43478C2.05464 16.3031 1.69043 16.1515 1.42163 15.8827C1.15283 15.6139 1.00126 15.2497 1 14.8696V2.43478C1 2.05425 1.15116 1.68931 1.42024 1.42024C1.68931 1.15116 2.05425 1 2.43478 1H21.5652C21.9457 1 22.3107 1.15116 22.5798 1.42024C22.8488 1.68931 23 2.05425 23 2.43478V14.8696C22.9987 15.2497 22.8472 15.6139 22.5784 15.8827C22.3096 16.1515 21.9454 16.3031 21.5652 16.3043H20.1304" stroke="#191919" stroke-linecap="round" stroke-linejoin="round"/>
<path d="M17.2611 13.4348H12.4785C12.2248 13.4348 11.9815 13.5356 11.8021 13.715C11.6227 13.8944 11.522 14.1377 11.522 14.3913V22.0435C11.522 22.2972 11.6227 22.5405 11.8021 22.7199C11.9815 22.8993 12.2248 23 12.4785 23H17.2611C17.5148 23 17.7581 22.8993 17.9375 22.7199C18.1168 22.5405 18.2176 22.2972 18.2176 22.0435V14.3913C18.2176 14.1377 18.1168 13.8944 17.9375 13.715C17.7581 13.5356 17.5148 13.4348 17.2611 13.4348Z" fill="#808080"/>
<path d="M17.2611 13.4348H12.4785C12.2248 13.4348 11.9815 13.5356 11.8021 13.715C11.6227 13.8944 11.522 14.1377 11.522 14.3913V22.0435C11.522 22.2972 11.6227 22.5405 11.8021 22.7199C11.9815 22.8993 12.2248 23 12.4785 23H17.2611C17.5148 23 17.7581 22.8993 17.9375 22.7199C18.1168 22.5405 18.2176 22.2972 18.2176 22.0435V14.3913C18.2176 14.1377 18.1168 13.8944 17.9375 13.715C17.7581 13.5356 17.5148 13.4348 17.2611 13.4348Z" stroke="#191919" stroke-linecap="round" stroke-linejoin="round"/>
<path d="M18.0011 7.65453C17.0625 7.07966 15.9881 6.76427 14.8877 6.74058C13.7873 6.71688 12.7003 6.98573 11.7378 7.51966" stroke="#191919" stroke-linecap="round" stroke-linejoin="round"/>
<path d="M17.0376 9.28352C16.3879 8.88505 15.644 8.66623 14.882 8.64942C14.1201 8.63262 13.3673 8.81843 12.7007 9.18787" stroke="#191919" stroke-linecap="round" stroke-linejoin="round"/>
<path d="M16.0708 10.9173C15.7104 10.6971 15.298 10.5766 14.8758 10.5682C14.4536 10.5598 14.0368 10.6638 13.668 10.8694" stroke="#191919" stroke-linecap="round" stroke-linejoin="round"/>
<path d="M13.6683 15.8261C13.6049 15.8261 13.5441 15.8009 13.4992 15.7561C13.4544 15.7112 13.4292 15.6504 13.4292 15.587C13.4292 15.5235 13.4544 15.4627 13.4992 15.4179C13.5441 15.373 13.6049 15.3478 13.6683 15.3478" stroke="#191919"/>
<path d="M13.668 15.8261C13.7314 15.8261 13.7922 15.8009 13.8371 15.7561C13.8819 15.7112 13.9071 15.6504 13.9071 15.587C13.9071 15.5235 13.8819 15.4627 13.8371 15.4179C13.7922 15.373 13.7314 15.3478 13.668 15.3478" stroke="#191919"/>
<path d="M16.0594 15.8261C15.996 15.8261 15.9352 15.8009 15.8904 15.7561C15.8455 15.7112 15.8203 15.6504 15.8203 15.587C15.8203 15.5235 15.8455 15.4627 15.8904 15.4179C15.9352 15.373 15.996 15.3478 16.0594 15.3478" stroke="#191919"/>
<path d="M16.0591 15.8261C16.1225 15.8261 16.1833 15.8009 16.2282 15.7561C16.273 15.7112 16.2982 15.6504 16.2982 15.587C16.2982 15.5235 16.273 15.4627 16.2282 15.4179C16.1833 15.373 16.1225 15.3478 16.0591 15.3478" stroke="#191919"/>
<path d="M13.6683 18.2174C13.6049 18.2174 13.5441 18.1922 13.4992 18.1474C13.4544 18.1025 13.4292 18.0417 13.4292 17.9783C13.4292 17.9148 13.4544 17.854 13.4992 17.8092C13.5441 17.7643 13.6049 17.7391 13.6683 17.7391" stroke="#191919"/>
<path d="M13.668 18.2173C13.7314 18.2173 13.7922 18.1921 13.8371 18.1473C13.8819 18.1025 13.9071 18.0416 13.9071 17.9782C13.9071 17.9148 13.8819 17.854 13.8371 17.8091C13.7922 17.7643 13.7314 17.7391 13.668 17.7391" stroke="#191919"/>
<path d="M16.0594 18.2174C15.996 18.2174 15.9352 18.1922 15.8904 18.1474C15.8455 18.1025 15.8203 18.0417 15.8203 17.9783C15.8203 17.9148 15.8455 17.854 15.8904 17.8092C15.9352 17.7643 15.996 17.7391 16.0594 17.7391" stroke="#191919"/>
<path d="M16.0591 18.2173C16.1225 18.2173 16.1833 18.1921 16.2282 18.1473C16.273 18.1025 16.2982 18.0416 16.2982 17.9782C16.2982 17.9148 16.273 17.854 16.2282 17.8091C16.1833 17.7643 16.1225 17.7391 16.0591 17.7391" stroke="#191919"/>
<path d="M13.6737 20.6086C13.6103 20.6086 13.5495 20.5834 13.5046 20.5386C13.4598 20.4937 13.4346 20.4329 13.4346 20.3695C13.4346 20.3061 13.4598 20.2453 13.5046 20.2004C13.5495 20.1556 13.6103 20.1304 13.6737 20.1304" stroke="#191919"/>
<path d="M13.6733 20.6086C13.7368 20.6086 13.7976 20.5834 13.8424 20.5386C13.8873 20.4937 13.9125 20.4329 13.9125 20.3695C13.9125 20.3061 13.8873 20.2453 13.8424 20.2004C13.7976 20.1556 13.7368 20.1304 13.6733 20.1304" stroke="#191919"/>
<path d="M16.0653 20.6086C16.0019 20.6086 15.9411 20.5834 15.8962 20.5386C15.8514 20.4937 15.8262 20.4329 15.8262 20.3695C15.8262 20.3061 15.8514 20.2453 15.8962 20.2004C15.9411 20.1556 16.0019 20.1304 16.0653 20.1304" stroke="#191919"/>
<path d="M16.0654 20.6086C16.1289 20.6086 16.1897 20.5834 16.2345 20.5386C16.2794 20.4937 16.3046 20.4329 16.3046 20.3695C16.3046 20.3061 16.2794 20.2453 16.2345 20.2004C16.1897 20.1556 16.1289 20.1304 16.0654 20.1304" stroke="#191919"/>
</g>
<defs>
<clipPath id="clip0_5303_13387">
<rect width="24" height="24" fill="white"/>
</clipPath>
</defs>
</svg>
