<svg width="24" height="24" viewBox="0 0 24 24" fill="none" xmlns="http://www.w3.org/2000/svg">
<path d="M11.2103 10.6758C10.8917 10.3572 10.6546 9.96657 10.5192 9.53687C10.3837 9.10717 10.3539 8.65114 10.4322 8.20746C10.5599 7.52627 10.8026 6.87178 11.15 6.27205C11.2799 6.03561 11.32 5.76019 11.2628 5.49653C11.2057 5.23288 11.0551 4.99876 10.839 4.83732C10.6228 4.6759 10.3557 4.59803 10.0867 4.61809C9.81758 4.63813 9.56487 4.75475 9.37503 4.94644C8.43392 5.83646 7.786 6.99185 7.51743 8.25901C7.30346 9.26854 6.54486 10.6544 5.47504 10.6758C4.87685 10.6806 4.28558 10.8042 3.73564 11.0397C3.1857 11.2751 2.68808 11.6176 2.27174 12.0471C1.8554 12.4766 1.52867 12.9847 1.31054 13.5417C1.09242 14.0988 0.987275 14.6936 1.00123 15.2916C1.0034 16.0634 1.16051 16.8267 1.46322 17.5366C1.76595 18.2465 2.20811 18.8883 2.76352 19.4241L3.83334 20.4939C4.36922 21.0491 5.01108 21.4913 5.72091 21.7939C6.43075 22.0967 7.19411 22.2539 7.96578 22.2562C8.5638 22.27 9.15858 22.1648 9.71555 21.9466C10.2725 21.7285 10.7805 21.4017 11.2101 20.9854C11.6396 20.5691 11.982 20.0715 12.2175 19.5216C12.4529 18.9717 12.5767 18.3805 12.5816 17.7824C12.5816 16.7126 13.7827 16.0425 14.8049 16.0755C15.4016 16.1238 16.0016 16.038 16.561 15.8244C17.1204 15.6108 17.6248 15.275 18.0377 14.8413C18.1747 14.6941 18.2675 14.5112 18.3053 14.3135C18.3431 14.116 18.3244 13.9117 18.2515 13.7242C18.1784 13.5367 18.054 13.3737 17.8925 13.2537C17.731 13.1338 17.539 13.0617 17.3384 13.046C14.1231 12.7989 13.4481 12.9088 12.5816 12.0452" fill="#FFBFC5"/>
<path d="M18.0415 14.848C17.6293 15.2813 17.1254 15.617 16.5667 15.8307C16.0081 16.0445 15.4088 16.1306 14.8126 16.0832C13.7914 16.0443 12.5854 16.7251 12.5854 17.7852C12.58 18.3826 12.4561 18.9732 12.2208 19.5224C11.9856 20.0716 11.6436 20.5688 11.2148 20.9848C10.786 21.401 10.2789 21.7279 9.72284 21.9466C9.16678 22.1653 8.57285 22.2714 7.97546 22.259C7.20365 22.2576 6.43999 22.1011 5.7299 21.7988C5.01981 21.4963 4.3778 21.0542 3.84205 20.4986L3.19043 19.847L5.02858 17.9991L6.75003 16.2777L11.7879 11.2495L12.5854 12.047C13.451 12.9126 14.1318 12.8056 17.3413 13.0488C17.5427 13.0637 17.7358 13.1355 17.8981 13.2556C18.0604 13.3757 18.1855 13.5394 18.2587 13.7276C18.3319 13.9158 18.3504 14.1209 18.312 14.3191C18.2736 14.5174 18.1798 14.7008 18.0415 14.848Z" fill="#FF808C"/>
<path d="M7.89929 17.4268L5.83616 15.3636C5.45635 14.9838 4.84056 14.9838 4.46074 15.3636L4.11689 15.7075C3.73708 16.0873 3.73708 16.7031 4.11689 17.0829L6.18001 19.146C6.55982 19.5258 7.17562 19.5258 7.55543 19.146L7.89929 18.8022C8.2791 18.4223 8.2791 17.8066 7.89929 17.4268Z" fill="white"/>
<path d="M7.89642 18.7967L7.55602 19.1468C7.37239 19.329 7.12419 19.4313 6.8655 19.4313C6.6068 19.4313 6.3586 19.329 6.17497 19.1468L5.02734 17.9992L6.74879 16.2777L7.89642 17.4253C8.07756 17.6076 8.17924 17.854 8.17924 18.111C8.17924 18.368 8.07756 18.6145 7.89642 18.7967Z" fill="#E3E3E3"/>
<path d="M7.89844 13.2997L9.96223 15.3625" stroke="#191919" stroke-linecap="round" stroke-linejoin="round"/>
<path d="M16.8395 5.04761L9.61816 12.2679L10.9934 13.6431L18.2147 6.42282" fill="#E3E3E3"/>
<path d="M19.5874 6.42271C19.4051 6.60504 19.1578 6.70746 18.8998 6.70746C18.6419 6.70746 18.3946 6.60504 18.2122 6.42271L16.8399 5.0475C16.7495 4.95717 16.6778 4.8499 16.6288 4.73184C16.5799 4.61377 16.5547 4.48721 16.5547 4.35941C16.5547 4.23159 16.5799 4.10503 16.6288 3.98697C16.6778 3.8689 16.7495 3.76164 16.8399 3.67132L17.0208 3.49042C17.1276 3.38348 17.2578 3.3029 17.4011 3.25506L21.8127 1.78648C22.0054 1.72208 22.2143 1.72465 22.4053 1.79381C22.5964 1.86296 22.7584 1.99463 22.8653 2.16746C22.9722 2.34029 23.0175 2.54415 22.994 2.74598C22.9704 2.94779 22.8794 3.13575 22.7356 3.27937L19.5874 6.42271Z" fill="#FF808C"/>
<path d="M17.513 5.2566L17.6939 5.07571C17.8006 4.96877 17.9308 4.88819 18.0741 4.84034L22.4857 3.36982C22.5491 3.35128 22.6143 3.33955 22.6802 3.33481L22.7376 3.27743C22.8808 3.13355 22.9711 2.94557 22.9942 2.74393C23.0172 2.54228 22.9716 2.33876 22.8646 2.1663C22.7576 1.99382 22.5955 1.86251 22.4047 1.79358C22.2138 1.72465 22.0052 1.72215 21.8127 1.78648L17.4011 3.25506C17.2578 3.30291 17.1276 3.38349 17.0208 3.49042L16.8399 3.67132C16.7495 3.76164 16.6778 3.86891 16.6288 3.98697C16.5799 4.10504 16.5547 4.2316 16.5547 4.35941C16.5547 4.48722 16.5799 4.61378 16.6288 4.73185C16.6778 4.84991 16.7495 4.95717 16.8399 5.0475L17.3262 5.53379C17.3714 5.43097 17.4347 5.33707 17.513 5.2566Z" fill="#FFBFC5"/>
<path d="M19.5874 6.42271C19.4051 6.60504 19.1578 6.70746 18.8998 6.70746C18.6419 6.70746 18.3946 6.60504 18.2122 6.42271L16.8399 5.0475C16.7495 4.95717 16.6778 4.8499 16.6288 4.73184C16.5799 4.61377 16.5547 4.48721 16.5547 4.35941C16.5547 4.23159 16.5799 4.10503 16.6288 3.98697C16.6778 3.8689 16.7495 3.76164 16.8399 3.67132L17.0208 3.49042C17.1276 3.38348 17.2578 3.3029 17.4011 3.25506L21.8127 1.78648C22.0054 1.72208 22.2143 1.72465 22.4053 1.79381C22.5964 1.86296 22.7584 1.99463 22.8653 2.16746C22.9722 2.34029 23.0175 2.54415 22.994 2.74598C22.9704 2.94779 22.8794 3.13575 22.7356 3.27937L19.5874 6.42271Z" stroke="#191919" stroke-linecap="round" stroke-linejoin="round"/>
<path d="M11.2103 10.6758C10.8917 10.3572 10.6546 9.96657 10.5192 9.53687C10.3837 9.10717 10.3539 8.65114 10.4322 8.20746C10.5599 7.52627 10.8026 6.87178 11.15 6.27205C11.2799 6.03561 11.32 5.76019 11.2628 5.49653C11.2057 5.23288 11.0551 4.99876 10.839 4.83732C10.6228 4.6759 10.3557 4.59803 10.0867 4.61809C9.81758 4.63813 9.56487 4.75475 9.37503 4.94644C8.43392 5.83646 7.786 6.99185 7.51743 8.25901C7.30346 9.26854 6.54486 10.6544 5.47504 10.6758C4.87685 10.6806 4.28558 10.8042 3.73564 11.0397C3.1857 11.2751 2.68808 11.6176 2.27174 12.0471C1.8554 12.4766 1.52867 12.9847 1.31054 13.5417C1.09242 14.0988 0.987275 14.6936 1.00123 15.2916C1.0034 16.0634 1.16051 16.8267 1.46322 17.5366C1.76595 18.2465 2.20811 18.8883 2.76352 19.4241L3.83334 20.4939C4.36922 21.0491 5.01108 21.4913 5.72091 21.7939C6.43075 22.0967 7.19411 22.2539 7.96578 22.2562C8.5638 22.27 9.15858 22.1648 9.71555 21.9466C10.2725 21.7285 10.7805 21.4017 11.2101 20.9854C11.6396 20.5691 11.982 20.0715 12.2175 19.5216C12.4529 18.9717 12.5767 18.3805 12.5816 17.7824C12.5816 16.7126 13.7827 16.0425 14.8049 16.0755C15.4016 16.1238 16.0016 16.038 16.561 15.8244C17.1204 15.6108 17.6248 15.275 18.0377 14.8413C18.1747 14.6941 18.2675 14.5112 18.3053 14.3135C18.3431 14.116 18.3244 13.9117 18.2515 13.7242C18.1784 13.5367 18.054 13.3737 17.8925 13.2537C17.731 13.1338 17.539 13.0617 17.3384 13.046C14.1231 12.7989 13.4481 12.9088 12.5816 12.0452" stroke="#191919" stroke-linecap="round" stroke-linejoin="round"/>
<path d="M7.89929 17.4268L5.83616 15.3636C5.45635 14.9838 4.84056 14.9838 4.46074 15.3636L4.11689 15.7075C3.73708 16.0873 3.73708 16.7031 4.11689 17.0829L6.18001 19.146C6.55982 19.5258 7.17562 19.5258 7.55543 19.146L7.89929 18.8022C8.2791 18.4223 8.2791 17.8066 7.89929 17.4268Z" stroke="#191919" stroke-linecap="round" stroke-linejoin="round"/>
<path d="M16.8395 5.04761L9.61816 12.2679L10.9934 13.6431L18.2147 6.42282" stroke="#191919" stroke-linecap="round" stroke-linejoin="round"/>
</svg>
