<svg width="24" height="24" viewBox="0 0 24 24" fill="none" xmlns="http://www.w3.org/2000/svg">
<g clip-path="url(#clip0_5303_3952)">
<path d="M22.2836 4.60653C22.4886 4.65972 22.6703 4.7795 22.8 4.94708C22.9297 5.11467 23 5.32056 23 5.53245V17.5119C23.0001 17.7128 22.9369 17.9085 22.8194 18.0715C22.702 18.2344 22.5363 18.3563 22.3457 18.4197L11.8374 21.9225C11.6326 21.9907 11.4108 21.9876 11.208 21.9139L1.62939 18.4302C1.44488 18.3631 1.28551 18.2407 1.17291 18.0799C1.06031 17.919 0.999941 17.7274 1 17.5311V5.53245C0.999997 5.32056 1.07035 5.11467 1.20002 4.94708C1.32969 4.7795 1.51133 4.65972 1.71643 4.60653L11.7599 2.00288C11.9167 1.96209 12.0814 1.96209 12.2382 2.00288L22.2836 4.60653Z" fill="#78EB7B"/>
<path d="M22.7384 4.87627C22.6153 4.74496 22.4574 4.6514 22.2831 4.60653L12.2396 2.00288C12.0828 1.96209 11.9182 1.96209 11.7613 2.00288L1.71596 4.60653C1.54004 4.65225 1.38078 4.74714 1.25684 4.8801L11.5213 7.67984L22.7384 4.87627Z" fill="#C9F7CA"/>
<path d="M22.2836 4.60653C22.4886 4.65972 22.6703 4.7795 22.8 4.94708C22.9297 5.11467 23 5.32056 23 5.53245V17.5119C23.0001 17.7128 22.9369 17.9085 22.8194 18.0715C22.702 18.2344 22.5363 18.3563 22.3457 18.4197L11.8374 21.9225C11.6326 21.9907 11.4108 21.9876 11.208 21.9139L1.62939 18.4302C1.44488 18.3631 1.28551 18.2407 1.17291 18.0799C1.06031 17.919 0.999941 17.7274 1 17.5311V5.53245C0.999997 5.32056 1.07035 5.11467 1.20002 4.94708C1.32969 4.7795 1.51133 4.65972 1.71643 4.60653L11.7599 2.00288C11.9167 1.96209 12.0814 1.96209 12.2382 2.00288L22.2836 4.60653Z" stroke="#191919" stroke-linecap="round" stroke-linejoin="round"/>
<path d="M11.521 7.67987V22.0277" stroke="#191919" stroke-linecap="round" stroke-linejoin="round"/>
<path d="M22.7384 4.87628L11.5213 7.67985L1.25781 4.88011" stroke="#191919" stroke-linecap="round" stroke-linejoin="round"/>
</g>
<defs>
<clipPath id="clip0_5303_3952">
<rect width="24" height="24" fill="white"/>
</clipPath>
</defs>
</svg>
