<svg width="24" height="24" viewBox="0 0 24 24" fill="none" xmlns="http://www.w3.org/2000/svg">
<g clip-path="url(#clip0_5303_4106)">
<path d="M20.7439 12C20.4874 12.0037 20.2639 11.8261 20.2095 11.5755C19.8853 9.91375 17.8838 9.22604 16.6068 10.3376C16.2373 10.6592 15.9858 11.0948 15.892 11.5755C15.8376 11.8261 15.614 12.0037 15.3575 12H13.1021V14.2555C13.0983 14.512 13.2759 14.7355 13.5265 14.7899C15.1883 15.1141 15.876 17.1156 14.7645 18.3928C14.4429 18.7621 14.0072 19.0136 13.5265 19.1074C13.2759 19.1618 13.0983 19.3854 13.1021 19.6419V21.8974H21.8998C22.5071 21.8973 22.9994 21.405 22.9994 20.7976V12H20.7439Z" fill="#66E1FF" stroke="#191919" stroke-linecap="round" stroke-linejoin="round"/>
<path d="M20.7446 2.10266C20.4881 2.09893 20.2646 2.27648 20.2102 2.52719C19.886 4.18897 17.8844 4.87668 16.6074 3.76503C16.238 3.44351 15.9865 3.00789 15.8927 2.52719C15.8383 2.27648 15.6147 2.09893 15.3582 2.10266H13.1028V4.35817C13.1065 4.61468 12.9289 4.83819 12.6782 4.89259C11.0164 5.21676 10.3287 7.21832 11.4404 8.49534C11.7619 8.86478 12.1975 9.11628 12.6782 9.21006C12.9289 9.26447 13.1065 9.48807 13.1028 9.74448V12H15.3582C15.6147 12.0037 15.8383 11.8261 15.8927 11.5755C16.2169 9.91378 18.2183 9.22607 19.4954 10.3376C19.8649 10.6592 20.1164 11.0948 20.2102 11.5755C20.2646 11.8261 20.4881 12.0037 20.7446 12H23.0001V3.20233C23.0001 2.59504 22.5077 2.10266 21.9003 2.10266H20.7446Z" fill="#FFEF5E"/>
<path d="M12.6782 9.21006C12.9289 9.26447 13.1065 9.48807 13.1028 9.74448V12H13.2666L22.756 2.51069C22.547 2.25242 22.2325 2.10246 21.9004 2.10266H20.7446C20.4881 2.09893 20.2646 2.27648 20.2102 2.52719C19.886 4.18897 17.8844 4.87668 16.6074 3.76503C16.238 3.44351 15.9865 3.00789 15.8927 2.52719C15.8383 2.27648 15.6147 2.09893 15.3582 2.10266H13.1028V4.35817C13.1065 4.61468 12.9289 4.83819 12.6782 4.89259C11.0164 5.21676 10.3287 7.21832 11.4404 8.49534C11.7619 8.86478 12.1975 9.11628 12.6782 9.21006Z" fill="#FFF9BF"/>
<path d="M3.20514 4.35812C3.2014 4.61462 3.37895 4.83813 3.62967 4.89253C5.29145 5.2167 5.97916 7.21826 4.86751 8.49529C4.54599 8.86472 4.11037 9.11622 3.62967 9.21C3.37895 9.26441 3.2014 9.48802 3.20514 9.74442V12H5.46065C5.71716 11.9962 5.94066 12.1738 5.99517 12.4245C6.31923 14.0863 8.3208 14.774 9.59792 13.6623C9.96726 13.3408 10.2188 12.9052 10.3125 12.4245C10.3669 12.1738 10.5906 11.9962 10.8471 12H13.1026V9.74442C13.1063 9.48802 12.9288 9.26441 12.678 9.21C11.0163 8.88584 10.3285 6.88437 11.4402 5.60725C11.7617 5.23781 12.1973 4.98632 12.678 4.89253C12.9288 4.83813 13.1063 4.61462 13.1026 4.35812V2.1026H4.30491C3.69752 2.1026 3.20514 2.59499 3.20514 3.20227V4.35812Z" fill="#C9F7CA" stroke="#191919" stroke-linecap="round" stroke-linejoin="round"/>
<path d="M13.5266 14.79C13.276 14.7355 13.0983 14.512 13.1022 14.2555V12H10.8467C10.5902 11.9963 10.3665 12.1738 10.3121 12.4245C9.98798 14.0863 7.98651 14.774 6.70939 13.6624C6.34005 13.3409 6.08846 12.9052 5.99477 12.4245C5.94027 12.1738 5.71676 11.9963 5.46025 12H3.20474V14.2555C3.20847 14.512 3.03092 14.7355 2.78031 14.7899C1.11853 15.1141 0.430813 17.1157 1.54237 18.3928C1.86398 18.7621 2.29961 19.0136 2.78031 19.1074C3.03092 19.1618 3.20847 19.3854 3.20474 19.6419V20.7977C3.20474 21.405 3.69713 21.8974 4.30451 21.8974H13.1022V19.6419C13.0983 19.3854 13.276 19.1618 13.5266 19.1074C15.1884 18.7833 15.8761 16.7818 14.7645 15.5046C14.4429 15.1353 14.0073 14.8837 13.5266 14.79Z" fill="#FF808C"/>
<path d="M3.20474 19.6419V20.7977C3.20454 21.1299 3.3545 21.4443 3.61277 21.6532L13.1022 12.1639V12H10.8467C10.5902 11.9963 10.3665 12.1738 10.3121 12.4245C9.98808 14.0863 7.98651 14.774 6.70939 13.6624C6.34005 13.3409 6.08846 12.9052 5.99477 12.4245C5.94037 12.1738 5.71676 11.9963 5.46025 12H3.20474V14.2555C3.20847 14.512 3.03092 14.7355 2.78031 14.7899C1.11853 15.1141 0.430813 17.1157 1.54237 18.3928C1.86398 18.7621 2.29961 19.0136 2.78031 19.1074C3.03092 19.1618 3.20847 19.3854 3.20474 19.6419Z" fill="#FFBFC5"/>
<path d="M20.7446 2.10266C20.4881 2.09893 20.2646 2.27648 20.2102 2.52719C19.886 4.18897 17.8844 4.87668 16.6074 3.76503C16.238 3.44351 15.9865 3.00789 15.8927 2.52719C15.8383 2.27648 15.6147 2.09893 15.3582 2.10266H13.1028V4.35817C13.1065 4.61468 12.9289 4.83819 12.6782 4.89259C11.0164 5.21676 10.3287 7.21832 11.4404 8.49534C11.7619 8.86478 12.1975 9.11628 12.6782 9.21006C12.9289 9.26447 13.1065 9.48807 13.1028 9.74448V12H15.3582C15.6147 12.0037 15.8383 11.8261 15.8927 11.5755C16.2169 9.91378 18.2183 9.22607 19.4954 10.3376C19.8649 10.6592 20.1164 11.0948 20.2102 11.5755C20.2646 11.8261 20.4881 12.0037 20.7446 12H23.0001V3.20233C23.0001 2.59504 22.5077 2.10266 21.9003 2.10266H20.7446Z" stroke="#191919" stroke-linecap="round" stroke-linejoin="round"/>
<path d="M13.5266 14.79C13.276 14.7355 13.0983 14.512 13.1022 14.2555V12H10.8467C10.5902 11.9963 10.3665 12.1738 10.3121 12.4245C9.98798 14.0863 7.98651 14.774 6.70939 13.6624C6.34005 13.3409 6.08846 12.9052 5.99477 12.4245C5.94027 12.1738 5.71676 11.9963 5.46025 12H3.20474V14.2555C3.20847 14.512 3.03092 14.7355 2.78031 14.7899C1.11853 15.1141 0.430813 17.1157 1.54237 18.3928C1.86398 18.7621 2.29961 19.0136 2.78031 19.1074C3.03092 19.1618 3.20847 19.3854 3.20474 19.6419V20.7977C3.20474 21.405 3.69713 21.8974 4.30451 21.8974H13.1022V19.6419C13.0983 19.3854 13.276 19.1618 13.5266 19.1074C15.1884 18.7833 15.8761 16.7818 14.7645 15.5046C14.4429 15.1353 14.0073 14.8837 13.5266 14.79Z" stroke="#191919" stroke-linecap="round" stroke-linejoin="round"/>
</g>
<defs>
<clipPath id="clip0_5303_4106">
<rect width="24" height="24" fill="white"/>
</clipPath>
</defs>
</svg>
