<svg width="24" height="24" viewBox="0 0 24 24" fill="none" xmlns="http://www.w3.org/2000/svg">
<g clip-path="url(#clip0_5303_4240)">
<path d="M10.5653 13.9131C10.5653 13.6594 10.4645 13.4161 10.2852 13.2367C10.1058 13.0574 9.8625 12.9565 9.60881 12.9565H1.95653C1.70284 12.9565 1.45955 13.0574 1.28016 13.2367C1.10078 13.4161 1 13.6594 1 13.9131V21.5654C1 21.819 1.10078 22.0624 1.28016 22.2417C1.45955 22.4211 1.70284 22.5219 1.95653 22.5219H9.60881C9.8625 22.5219 10.1058 22.4211 10.2852 22.2417C10.4645 22.0624 10.5653 21.819 10.5653 21.5654V13.9131Z" fill="#FFEF5E"/>
<path d="M9.60881 12.9565H1.95653C1.70284 12.9565 1.45955 13.0574 1.28016 13.2367C1.10078 13.4161 1 13.6594 1 13.9131V15.8261C1 15.5725 1.10078 15.3291 1.28016 15.1498C1.45955 14.9704 1.70284 14.8696 1.95653 14.8696H9.60881C9.8625 14.8696 10.1058 14.9704 10.2852 15.1498C10.4645 15.3291 10.5653 15.5725 10.5653 15.8261V13.9131C10.5653 13.6594 10.4645 13.4161 10.2852 13.2367C10.1058 13.0574 9.8625 12.9565 9.60881 12.9565Z" fill="#FFF9BF"/>
<path d="M22.9999 13.9131C22.9999 13.6594 22.8991 13.4161 22.7197 13.2367C22.5404 13.0574 22.2971 12.9565 22.0434 12.9565H14.3911C14.1374 12.9565 13.8941 13.0574 13.7147 13.2367C13.5354 13.4161 13.4346 13.6594 13.4346 13.9131V21.5654C13.4346 21.819 13.5354 22.0624 13.7147 22.2417C13.8941 22.4211 14.1374 22.5219 14.3911 22.5219H22.0434C22.2971 22.5219 22.5404 22.4211 22.7197 22.2417C22.8991 22.0624 22.9999 21.819 22.9999 21.5654V13.9131Z" fill="#FF808C"/>
<path d="M22.0434 12.9565H14.3911C14.1374 12.9565 13.8941 13.0574 13.7147 13.2367C13.5354 13.4161 13.4346 13.6594 13.4346 13.9131V15.8261C13.4346 15.5725 13.5354 15.3291 13.7147 15.1498C13.8941 14.9704 14.1374 14.8696 14.3911 14.8696H22.0434C22.2971 14.8696 22.5404 14.9704 22.7197 15.1498C22.8991 15.3291 22.9999 15.5725 22.9999 15.8261V13.9131C22.9999 13.6594 22.8991 13.4161 22.7197 13.2367C22.5404 13.0574 22.2971 12.9565 22.0434 12.9565Z" fill="#FFBFC5"/>
<path d="M17.2607 2.43468C17.2607 2.18099 17.1598 1.9377 16.9805 1.75831C16.8011 1.57893 16.5578 1.47815 16.3041 1.47815H8.65185C8.39815 1.47815 8.15486 1.57893 7.97547 1.75831C7.79609 1.9377 7.69531 2.18099 7.69531 2.43468V10.087C7.69531 10.3406 7.79609 10.584 7.97547 10.7633C8.15486 10.9427 8.39815 11.0435 8.65185 11.0435H16.3041C16.5578 11.0435 16.8011 10.9427 16.9805 10.7633C17.1598 10.584 17.2607 10.3406 17.2607 10.087V2.43468Z" fill="#78EB7B"/>
<path d="M16.3041 1.47815H8.65185C8.39815 1.47815 8.15486 1.57893 7.97547 1.75831C7.79609 1.9377 7.69531 2.18099 7.69531 2.43468V4.34775C7.69531 4.09406 7.79609 3.85077 7.97547 3.67138C8.15486 3.492 8.39815 3.39122 8.65185 3.39122H16.3041C16.5578 3.39122 16.8011 3.492 16.9805 3.67138C17.1598 3.85077 17.2607 4.09406 17.2607 4.34775V2.43468C17.2607 2.18099 17.1598 1.9377 16.9805 1.75831C16.8011 1.57893 16.5578 1.47815 16.3041 1.47815Z" fill="#C9F7CA"/>
<path d="M10.5653 13.9131C10.5653 13.6594 10.4645 13.4161 10.2852 13.2367C10.1058 13.0574 9.8625 12.9565 9.60881 12.9565H1.95653C1.70284 12.9565 1.45955 13.0574 1.28016 13.2367C1.10078 13.4161 1 13.6594 1 13.9131V21.5654C1 21.819 1.10078 22.0624 1.28016 22.2417C1.45955 22.4211 1.70284 22.5219 1.95653 22.5219H9.60881C9.8625 22.5219 10.1058 22.4211 10.2852 22.2417C10.4645 22.0624 10.5653 21.819 10.5653 21.5654V13.9131Z" stroke="#191919" stroke-linecap="round" stroke-linejoin="round"/>
<path d="M22.9999 13.9131C22.9999 13.6594 22.8991 13.4161 22.7197 13.2367C22.5404 13.0574 22.2971 12.9565 22.0434 12.9565H14.3911C14.1374 12.9565 13.8941 13.0574 13.7147 13.2367C13.5354 13.4161 13.4346 13.6594 13.4346 13.9131V21.5654C13.4346 21.819 13.5354 22.0624 13.7147 22.2417C13.8941 22.4211 14.1374 22.5219 14.3911 22.5219H22.0434C22.2971 22.5219 22.5404 22.4211 22.7197 22.2417C22.8991 22.0624 22.9999 21.819 22.9999 21.5654V13.9131Z" stroke="#191919" stroke-linecap="round" stroke-linejoin="round"/>
<path d="M17.2607 2.43468C17.2607 2.18099 17.1598 1.9377 16.9805 1.75831C16.8011 1.57893 16.5578 1.47815 16.3041 1.47815H8.65185C8.39815 1.47815 8.15486 1.57893 7.97547 1.75831C7.79609 1.9377 7.69531 2.18099 7.69531 2.43468V10.087C7.69531 10.3406 7.79609 10.584 7.97547 10.7633C8.15486 10.9427 8.39815 11.0435 8.65185 11.0435H16.3041C16.5578 11.0435 16.8011 10.9427 16.9805 10.7633C17.1598 10.584 17.2607 10.3406 17.2607 10.087V2.43468Z" stroke="#191919" stroke-linecap="round" stroke-linejoin="round"/>
</g>
<defs>
<clipPath id="clip0_5303_4240">
<rect width="24" height="24" fill="white"/>
</clipPath>
</defs>
</svg>
