<svg width="24" height="24" viewBox="0 0 24 24" fill="none" xmlns="http://www.w3.org/2000/svg">
<g clip-path="url(#clip0_5303_4314)">
<path d="M21.5643 11.5197C21.1838 11.5197 20.8188 11.6708 20.5497 11.9399C20.2806 12.209 20.1295 12.574 20.1295 12.9545V16.551C20.1075 16.2673 19.9957 15.9978 19.8103 15.7819C19.6249 15.566 19.3755 15.4148 19.0984 15.3502C18.8212 15.2856 18.5306 15.311 18.2689 15.4227C18.0071 15.5344 17.7878 15.7265 17.6426 15.9713L16.5502 17.6089C16.0774 18.3167 15.8254 19.1489 15.8262 20.0001V22.9978H20.1305L22.0569 20.5903C22.6674 19.8271 23 18.8789 23 17.9015V12.9545C23 12.766 22.9629 12.5793 22.8907 12.4052C22.8185 12.2311 22.7128 12.0729 22.5794 11.9396C22.4461 11.8064 22.2878 11.7007 22.1136 11.6287C21.9394 11.5566 21.7528 11.5196 21.5643 11.5197Z" fill="#FFDDA1"/>
<path d="M7.44974 17.6089L6.35645 15.9713C6.21128 15.7265 5.99191 15.5344 5.73014 15.4227C5.46838 15.3109 5.17784 15.2856 4.90067 15.3502C4.62351 15.4148 4.37413 15.566 4.18871 15.7819C4.0033 15.9978 3.89151 16.2673 3.86953 16.551V12.9545C3.86953 12.574 3.71836 12.209 3.44929 11.9399C3.18023 11.6708 2.81528 11.5197 2.43476 11.5197C2.05425 11.5197 1.6893 11.6708 1.42023 11.9399C1.15116 12.209 1 12.574 1 12.9545V17.9015C1 18.8789 1.33261 19.8271 1.94312 20.5903L3.86953 22.9978H8.17382V19.9982C8.17422 19.1477 7.92223 18.3161 7.44974 17.6089Z" fill="#FFDDA1"/>
<path d="M3.86953 22.9978L1.94312 20.5903C1.33241 19.8268 0.999786 18.8782 1 17.9006V12.9545C1 12.574 1.15116 12.209 1.42023 11.9399C1.6893 11.6708 2.05425 11.5197 2.43476 11.5197C2.81528 11.5197 3.18023 11.6708 3.4493 11.9399C3.71836 12.209 3.86953 12.574 3.86953 12.9545V16.5414" stroke="#191919" stroke-linecap="round" stroke-linejoin="round"/>
<path d="M8.17389 22.9979V19.9983C8.17467 19.1471 7.92266 18.3148 7.44981 17.607L6.35652 15.9714C6.26332 15.8159 6.13954 15.6811 5.99268 15.5749C5.84582 15.4687 5.67895 15.3934 5.50215 15.3536C5.32535 15.3139 5.14232 15.3103 4.96413 15.3434C4.78594 15.3764 4.61631 15.4452 4.4655 15.5457C4.19403 15.7269 3.99804 16.0009 3.91438 16.3164C3.83072 16.6318 3.86513 16.967 4.01116 17.2588L5.30436 19.411" stroke="#191919" stroke-linecap="round" stroke-linejoin="round"/>
<path d="M20.1294 22.9978L22.0558 20.5903C22.6665 19.8268 22.9991 18.8782 22.9989 17.9006V12.9545C22.9989 12.574 22.8478 12.209 22.5787 11.9399C22.3097 11.6708 21.9447 11.5197 21.5642 11.5197C21.1837 11.5197 20.8187 11.6708 20.5496 11.9399C20.2805 12.209 20.1294 12.574 20.1294 12.9545V16.5414" stroke="#191919" stroke-linecap="round" stroke-linejoin="round"/>
<path d="M15.8252 22.9979V19.9983C15.8244 19.1471 16.0765 18.3148 16.5493 17.607L17.6426 15.9714C17.7357 15.8159 17.8595 15.6811 18.0064 15.5749C18.1532 15.4687 18.3202 15.3934 18.4969 15.3536C18.6738 15.3139 18.8568 15.3103 19.035 15.3434C19.2132 15.3764 19.3827 15.4452 19.5336 15.5457C19.8052 15.7267 20.0014 16.0007 20.0852 16.3162C20.1691 16.6316 20.1348 16.9669 19.9889 17.2588L18.6947 19.411" stroke="#191919" stroke-linecap="round" stroke-linejoin="round"/>
<path d="M13.482 11.4241C13.2813 11.2228 13.128 10.9795 13.0331 10.7116C12.9382 10.4437 12.9043 10.158 12.9336 9.87539C12.963 9.59272 13.055 9.32015 13.2029 9.07748C13.3508 8.83481 13.5509 8.62814 13.7887 8.4725C14.0265 8.31685 14.296 8.21614 14.5776 8.17769C14.8591 8.13923 15.1457 8.16399 15.4165 8.25018C15.6873 8.33636 15.9355 8.48179 16.1431 8.67592C16.3506 8.87003 16.5124 9.10796 16.6165 9.3724C16.6454 9.44633 16.6924 9.51188 16.7531 9.56312C16.8138 9.61436 16.8862 9.64969 16.964 9.66592C17.0417 9.68216 17.1223 9.67877 17.1983 9.65608C17.2744 9.63339 17.3437 9.59211 17.3998 9.53596L18.893 8.04285C19.0723 7.86349 19.173 7.62024 19.173 7.3666C19.173 7.11297 19.0723 6.86972 18.893 6.69035L17.3625 5.15993C17.6864 5.07239 17.9816 4.9012 18.2184 4.66354C18.4553 4.42588 18.6254 4.13012 18.7119 3.80592C18.7983 3.48172 18.7979 3.1405 18.7108 2.81649C18.6237 2.49248 18.4529 2.19708 18.2156 1.95993C17.9781 1.72278 17.6827 1.55222 17.3586 1.46537C17.0345 1.37852 16.6933 1.37844 16.3691 1.46512C16.045 1.5518 15.7494 1.7222 15.5119 1.95923C15.2745 2.19626 15.1036 2.49157 15.0162 2.81553L13.4858 1.28512C13.3065 1.1058 13.0632 1.00507 12.8096 1.00507C12.5559 1.00507 12.3126 1.1058 12.1333 1.28512L10.7435 2.6644C10.6933 2.71449 10.6548 2.77515 10.6309 2.84194C10.607 2.90874 10.5982 2.98002 10.6053 3.05062C10.6124 3.12122 10.635 3.18936 10.6717 3.25012C10.7083 3.31087 10.758 3.36271 10.8171 3.40187C11.0379 3.55033 11.2253 3.74321 11.3673 3.96818C11.5094 4.19314 11.6028 4.44526 11.6419 4.70842C11.681 4.97158 11.6647 5.23999 11.5942 5.49652C11.5237 5.75305 11.4004 5.99204 11.2323 6.19823C11.0642 6.40442 10.8549 6.57328 10.6178 6.69402C10.3808 6.81475 10.1211 6.88472 9.85547 6.89943C9.58983 6.91415 9.32405 6.8733 9.0751 6.77949C8.82614 6.68568 8.59949 6.54098 8.40961 6.35461C8.31863 6.26407 8.23721 6.16438 8.16666 6.05714C8.1276 5.99775 8.07577 5.94782 8.01498 5.91098C7.95417 5.87414 7.88593 5.85132 7.8152 5.84417C7.74447 5.83703 7.67303 5.84573 7.6061 5.86967C7.53916 5.8936 7.4784 5.93216 7.42824 5.98253L6.04225 7.36564C5.86294 7.54502 5.76221 7.78827 5.76221 8.0419C5.76221 8.29553 5.86294 8.53878 6.04225 8.71815L11.4532 14.1291C11.6326 14.3084 11.8758 14.4092 12.1295 14.4092C12.3831 14.4092 12.6264 14.3084 12.8057 14.1291L14.2998 12.635C14.3559 12.5789 14.3973 12.5096 14.4199 12.4335C14.4426 12.3574 14.446 12.2769 14.4298 12.1991C14.4135 12.1214 14.3782 12.049 14.327 11.9882C14.2757 11.9276 14.2102 11.8806 14.1362 11.8516C13.8907 11.7564 13.6678 11.6107 13.482 11.4241Z" fill="#FF808C"/>
<path d="M18.2062 1.94505C17.9678 1.71034 17.6721 1.54224 17.3485 1.45751C17.0249 1.37278 16.6847 1.37439 16.3619 1.46218C16.0391 1.54997 15.745 1.72087 15.5088 1.95782C15.2728 2.19478 15.1029 2.48951 15.0162 2.81261L13.4858 1.28219C13.3065 1.10287 13.0632 1.00214 12.8096 1.00214C12.5559 1.00214 12.3126 1.10287 12.1333 1.28219L10.7435 2.66435C10.6933 2.71444 10.6548 2.77508 10.6309 2.84189C10.607 2.90868 10.5982 2.97997 10.6053 3.05056C10.6124 3.12116 10.635 3.18931 10.6717 3.25006C10.7083 3.31081 10.758 3.36265 10.8171 3.40182C11.0379 3.55028 11.2253 3.74315 11.3673 3.96812C11.5094 4.19309 11.6028 4.44521 11.6419 4.70836C11.681 4.97152 11.6647 5.23994 11.5942 5.49647C11.5237 5.75298 11.4004 5.99198 11.2323 6.19817C11.0642 6.40437 10.8549 6.57322 10.6178 6.69396C10.3808 6.8147 10.1211 6.88466 9.85547 6.89938C9.58983 6.91409 9.32405 6.87325 9.0751 6.77943C8.82614 6.68562 8.59949 6.54092 8.40961 6.35456C8.31863 6.26401 8.23721 6.16433 8.16666 6.05709C8.12751 5.99776 8.07563 5.94791 8.0148 5.91116C7.95396 5.87441 7.8857 5.85167 7.81497 5.84463C7.74425 5.83757 7.67283 5.84637 7.60594 5.87038C7.53904 5.89439 7.47834 5.93302 7.42824 5.98343L6.04225 7.36559C5.86294 7.54496 5.76221 7.7882 5.76221 8.04184C5.76221 8.29547 5.86294 8.53872 6.04225 8.71809L8.7377 11.4135L18.2062 1.94505Z" fill="#FFBFC5"/>
<path d="M13.482 11.4241C13.2813 11.2228 13.128 10.9795 13.0331 10.7116C12.9382 10.4437 12.9043 10.158 12.9336 9.87539C12.963 9.59272 13.055 9.32015 13.2029 9.07748C13.3508 8.83481 13.5509 8.62814 13.7887 8.4725C14.0265 8.31685 14.296 8.21614 14.5776 8.17769C14.8591 8.13923 15.1457 8.16399 15.4165 8.25018C15.6873 8.33636 15.9355 8.48179 16.1431 8.67592C16.3506 8.87003 16.5124 9.10796 16.6165 9.3724C16.6454 9.44633 16.6924 9.51188 16.7531 9.56312C16.8138 9.61436 16.8862 9.64969 16.964 9.66592C17.0417 9.68216 17.1223 9.67877 17.1983 9.65608C17.2744 9.63339 17.3437 9.59211 17.3998 9.53596L18.893 8.04285C19.0723 7.86349 19.173 7.62024 19.173 7.3666C19.173 7.11297 19.0723 6.86972 18.893 6.69035L17.3625 5.15993C17.6864 5.07239 17.9816 4.9012 18.2184 4.66354C18.4553 4.42588 18.6254 4.13012 18.7119 3.80592C18.7983 3.48172 18.7979 3.1405 18.7108 2.81649C18.6237 2.49248 18.4529 2.19708 18.2156 1.95993C17.9781 1.72278 17.6827 1.55222 17.3586 1.46537C17.0345 1.37852 16.6933 1.37844 16.3691 1.46512C16.045 1.5518 15.7494 1.7222 15.5119 1.95923C15.2745 2.19626 15.1036 2.49157 15.0162 2.81553L13.4858 1.28512C13.3065 1.1058 13.0632 1.00507 12.8096 1.00507C12.5559 1.00507 12.3126 1.1058 12.1333 1.28512L10.7435 2.6644C10.6933 2.71449 10.6548 2.77515 10.6309 2.84194C10.607 2.90874 10.5982 2.98002 10.6053 3.05062C10.6124 3.12122 10.635 3.18936 10.6717 3.25012C10.7083 3.31087 10.758 3.36271 10.8171 3.40187C11.0379 3.55033 11.2253 3.74321 11.3673 3.96818C11.5094 4.19314 11.6028 4.44526 11.6419 4.70842C11.681 4.97158 11.6647 5.23999 11.5942 5.49652C11.5237 5.75305 11.4004 5.99204 11.2323 6.19823C11.0642 6.40442 10.8549 6.57328 10.6178 6.69402C10.3808 6.81475 10.1211 6.88472 9.85547 6.89943C9.58983 6.91415 9.32405 6.8733 9.0751 6.77949C8.82614 6.68568 8.59949 6.54098 8.40961 6.35461C8.31863 6.26407 8.23721 6.16438 8.16666 6.05714C8.1276 5.99775 8.07577 5.94782 8.01498 5.91098C7.95417 5.87414 7.88593 5.85132 7.8152 5.84417C7.74447 5.83703 7.67303 5.84573 7.6061 5.86967C7.53916 5.8936 7.4784 5.93216 7.42824 5.98253L6.04225 7.36564C5.86294 7.54502 5.76221 7.78827 5.76221 8.0419C5.76221 8.29553 5.86294 8.53878 6.04225 8.71815L11.4532 14.1291C11.6326 14.3084 11.8758 14.4092 12.1295 14.4092C12.3831 14.4092 12.6264 14.3084 12.8057 14.1291L14.2998 12.635C14.3559 12.5789 14.3973 12.5096 14.4199 12.4335C14.4426 12.3574 14.446 12.2769 14.4298 12.1991C14.4135 12.1214 14.3782 12.049 14.327 11.9882C14.2757 11.9276 14.2102 11.8806 14.1362 11.8516C13.8907 11.7564 13.6678 11.6107 13.482 11.4241Z" stroke="#191919" stroke-linecap="round" stroke-linejoin="round"/>
</g>
<defs>
<clipPath id="clip0_5303_4314">
<rect width="24" height="24" fill="white"/>
</clipPath>
</defs>
</svg>
