<svg width="24" height="24" viewBox="0 0 24 24" fill="none" xmlns="http://www.w3.org/2000/svg">
<path d="M14.6507 15.3478V18.2173C14.6507 18.343 14.626 18.4673 14.5779 18.5834C14.5298 18.6994 14.4594 18.8049 14.3705 18.8937C14.2817 18.9825 14.1763 19.053 14.0602 19.101C13.9442 19.1491 13.8198 19.1739 13.6942 19.1739H4.10984C3.85616 19.1739 3.61286 19.0731 3.43348 18.8937C3.2541 18.7143 3.15332 18.471 3.15332 18.2173V15.3478H14.6507Z" fill="white"/>
<path d="M11.477 19.1739H4.11179C3.85811 19.1739 3.61481 19.0731 3.43543 18.8937C3.25605 18.7143 3.15527 18.471 3.15527 18.2173V15.3478" stroke="#191919" stroke-linecap="round" stroke-linejoin="round"/>
<path d="M14.6507 1.95652V15.3478H3.15332V1.95652C3.15332 1.70284 3.2541 1.45954 3.43348 1.28016C3.61286 1.10078 3.85616 1 4.10984 1H13.6942C13.9479 1 14.1912 1.10078 14.3705 1.28016C14.5499 1.45954 14.6507 1.70284 14.6507 1.95652Z" fill="#FFEF5E"/>
<path d="M14.5187 1.4993C14.4385 1.34995 14.3197 1.22484 14.1746 1.13702C14.0296 1.0492 13.8637 1.00189 13.6942 1H4.10984C3.85616 1 3.61286 1.10078 3.43348 1.28016C3.2541 1.45954 3.15332 1.70284 3.15332 1.95652V12.8609L14.5187 1.4993Z" fill="#FFF9BF"/>
<path d="M8.90201 15.3478H3.15332V1.95652C3.15332 1.70284 3.2541 1.45954 3.43348 1.28016C3.61286 1.10078 3.85616 1 4.10984 1H13.6942C13.9479 1 14.1912 1.10078 14.3705 1.28016C14.5499 1.45954 14.6507 1.70284 14.6507 1.95652V15.3478" stroke="#191919" stroke-linecap="round" stroke-linejoin="round"/>
<path d="M20.8468 23L18.4737 19.7153L18.4555 15.3478C18.4957 13.6472 16.4813 12.1311 14.6457 10.5652V15.7869L12.9689 14.0652C12.7429 13.8647 12.4493 13.7572 12.1473 13.7644C11.8452 13.7716 11.5571 13.8928 11.3408 14.1038C11.1245 14.3147 10.9961 14.5998 10.9814 14.9015C10.9667 15.2033 11.0668 15.4995 11.2616 15.7305L14.6476 19.1787V20.6087C14.6476 21.5279 16.1398 23 16.1398 23" fill="#FFDDA1"/>
<path d="M20.8468 23L18.4737 19.7153L18.4555 15.3478C18.4957 13.6472 16.4813 12.1311 14.6457 10.5652V15.7869L12.9689 14.0652C12.7429 13.8647 12.4493 13.7572 12.1473 13.7644C11.8452 13.7716 11.5571 13.8928 11.3408 14.1038C11.1245 14.3147 10.9961 14.5998 10.9814 14.9015C10.9667 15.2033 11.0668 15.4995 11.2616 15.7305L14.6476 19.1787V20.6087C14.6476 21.5279 16.1398 23 16.1398 23" stroke="#191919" stroke-linecap="round" stroke-linejoin="round"/>
<path d="M16.0828 17.2608L14.6479 15.783" stroke="#191919" stroke-linecap="round" stroke-linejoin="round"/>
<path d="M8.89062 10.5652V11.5218" stroke="#191919" stroke-linecap="round" stroke-linejoin="round"/>
<path d="M8.89062 5.78265V6.73917" stroke="#191919" stroke-linecap="round" stroke-linejoin="round"/>
<path d="M6.97754 10.5652H9.8471C10.1008 10.5652 10.3441 10.4644 10.5235 10.2851C10.7028 10.1057 10.8036 9.86238 10.8036 9.6087C10.8036 9.35501 10.7028 9.11172 10.5235 8.93233C10.3441 8.75295 10.1008 8.65218 9.8471 8.65218H7.93406C7.68037 8.65218 7.43708 8.5514 7.2577 8.37202C7.07832 8.19264 6.97754 7.94934 6.97754 7.69566C6.97754 7.44197 7.07832 7.19868 7.2577 7.01929C7.43708 6.83991 7.68037 6.73914 7.93406 6.73914H10.8036" stroke="#191919" stroke-linecap="round" stroke-linejoin="round"/>
<path d="M8.65124 17.2609C8.58782 17.2609 8.52699 17.2357 8.48215 17.1908C8.4373 17.146 8.41211 17.0851 8.41211 17.0217C8.41211 16.9583 8.4373 16.8975 8.48215 16.8526C8.52699 16.8078 8.58782 16.7826 8.65124 16.7826" stroke="#191919"/>
<path d="M8.65088 17.2609C8.7143 17.2609 8.77512 17.2357 8.81997 17.1908C8.86482 17.146 8.89001 17.0851 8.89001 17.0217C8.89001 16.9583 8.86482 16.8975 8.81997 16.8526C8.77512 16.8078 8.7143 16.7826 8.65088 16.7826" stroke="#191919"/>
</svg>
