<svg width="24" height="24" viewBox="0 0 24 24" fill="none" xmlns="http://www.w3.org/2000/svg">
<path d="M8.70224 15.2054C12.6249 15.2054 15.8049 12.0254 15.8049 8.10269C15.8049 4.18001 12.6249 1.00006 8.70224 1.00006C4.77957 1.00006 1.59961 4.18001 1.59961 8.10269C1.59961 12.0254 4.77957 15.2054 8.70224 15.2054Z" fill="#FFEF5E"/>
<path d="M8.70278 1.00001C7.30009 1.0001 5.92884 1.41551 4.76192 2.19388C3.59501 2.97223 2.68469 4.07868 2.14576 5.3737C1.60683 6.66873 1.46341 8.09432 1.7336 9.47075C2.00378 10.8472 2.67548 12.1127 3.66397 13.1079L13.7091 3.06281C12.3794 1.73926 10.5789 0.997366 8.70278 1.00001Z" fill="#FFF9BF"/>
<path d="M10.2244 23L7.88357 20.4217C7.75163 20.2685 7.65151 20.0907 7.58907 19.8984C7.52662 19.7061 7.50312 19.5034 7.51991 19.3019C7.5367 19.1005 7.59345 18.9043 7.68686 18.725C7.78027 18.5457 7.90845 18.3868 8.06393 18.2577C8.21942 18.1285 8.39908 18.0316 8.59243 17.9726C8.78578 17.9136 8.98896 17.8936 9.19008 17.914C9.39121 17.9344 9.58626 17.9947 9.76384 18.0913C9.94143 18.1879 10.098 18.3189 10.2244 18.4766L12.2537 20.7962V12.8524C12.2537 12.4486 12.414 12.0615 12.6995 11.7761C12.9849 11.4907 13.3721 11.3304 13.7757 11.3304C14.1793 11.3304 14.5665 11.4907 14.852 11.7761C15.1374 12.0615 15.2977 12.4486 15.2977 12.8524V17.4184H18.3417C19.4181 17.4184 20.4505 17.8459 21.2116 18.607C21.9728 19.3682 22.4003 20.4005 22.4003 21.477V22.999" fill="#FFDDA1"/>
<path d="M10.2244 23L7.88357 20.4217C7.75163 20.2685 7.65151 20.0907 7.58907 19.8984C7.52662 19.7061 7.50312 19.5034 7.51991 19.3019C7.5367 19.1005 7.59345 18.9043 7.68686 18.725C7.78027 18.5457 7.90845 18.3868 8.06393 18.2577C8.21942 18.1285 8.39908 18.0316 8.59243 17.9726C8.78578 17.9136 8.98896 17.8936 9.19008 17.914C9.39121 17.9344 9.58626 17.9947 9.76384 18.0913C9.94143 18.1879 10.098 18.3189 10.2244 18.4766L12.2537 20.7962V12.8524C12.2537 12.4486 12.414 12.0615 12.6995 11.7761C12.9849 11.4907 13.3721 11.3304 13.7757 11.3304C14.1793 11.3304 14.5665 11.4907 14.852 11.7761C15.1374 12.0615 15.2977 12.4486 15.2977 12.8524V17.4184H18.3417C19.4181 17.4184 20.4505 17.8459 21.2116 18.607C21.9728 19.3682 22.4003 20.4005 22.4003 21.477V22.999" stroke="#191919" stroke-linecap="round" stroke-linejoin="round"/>
<path d="M8.70224 15.2054C7.29747 15.2054 5.92426 14.7887 4.75623 14.0083C3.58821 13.2279 2.67785 12.1186 2.14027 10.8207C1.60268 9.52291 1.46203 8.09482 1.73609 6.71704C2.01014 5.33926 2.6866 4.0737 3.67993 3.08037C4.67324 2.08706 5.93881 1.4106 7.31659 1.13654C8.69436 0.862484 10.1225 1.00314 11.4203 1.54072C12.7182 2.0783 13.8274 2.98867 14.6079 4.15668C15.3883 5.3247 15.8049 6.69792 15.8049 8.10269" stroke="#191919" stroke-linecap="round" stroke-linejoin="round"/>
<path d="M8.70264 10.1322V11.1469" stroke="#191919" stroke-linecap="round" stroke-linejoin="round"/>
<path d="M8.70264 5.05878V6.07344" stroke="#191919" stroke-linecap="round" stroke-linejoin="round"/>
<path d="M6.67334 10.1322H9.71732C9.98641 10.1322 10.2445 10.0252 10.4348 9.83494C10.625 9.64466 10.732 9.38657 10.732 9.11747C10.732 8.84836 10.625 8.59028 10.4348 8.39999C10.2445 8.2097 9.98641 8.10281 9.71732 8.10281H7.688C7.41889 8.10281 7.16081 7.9959 6.97052 7.80561C6.78024 7.61533 6.67334 7.35725 6.67334 7.08815C6.67334 6.81904 6.78024 6.56096 6.97052 6.37067C7.16081 6.18038 7.41889 6.07349 7.688 6.07349H10.732" stroke="#191919" stroke-linecap="round" stroke-linejoin="round"/>
</svg>
