<svg width="24" height="24" viewBox="0 0 24 24" fill="none" xmlns="http://www.w3.org/2000/svg">
<path d="M13.4344 16.3044V18.2174C13.4344 18.5979 13.2833 18.9629 13.0142 19.232C12.7451 19.5011 12.3801 19.6522 11.9996 19.6522C11.6191 19.6522 11.2541 19.5011 10.985 19.232C10.716 18.9629 10.5649 18.5979 10.5649 18.2174V16.3044H6.73877V18.2174C6.73877 21.3835 9.09181 23 11.9996 23C14.9075 23 17.2605 21.3835 17.2605 18.2174V16.3044H13.4344Z" fill="#FF808C"/>
<path d="M11.9996 19.6522C11.6191 19.6522 11.2541 19.5011 10.985 19.232C10.716 18.9629 10.5649 18.5979 10.5649 18.2174V16.3044H6.73877V18.2174C6.73877 21.3835 9.09181 23 11.9996 23V19.6522Z" fill="#FFBFC5"/>
<path d="M4.82568 1H19.1735V8.65216H4.82568V1Z" fill="#78EB7B"/>
<path d="M4.82568 1V8.65216H8.22803L15.8802 1H4.82568Z" fill="#C9F7CA"/>
<path d="M4.82568 1H19.1735V8.65216H4.82568V1Z" stroke="#191919" stroke-linecap="round" stroke-linejoin="round"/>
<path d="M14.9097 1L19.1738 4.34782" stroke="#191919" stroke-linecap="round" stroke-linejoin="round"/>
<path d="M15.5107 8.65214L19.1733 5.30432" stroke="#191919" stroke-linecap="round" stroke-linejoin="round"/>
<path d="M4.82568 5.30432L8.48724 8.65214" stroke="#191919" stroke-linecap="round" stroke-linejoin="round"/>
<path d="M4.82568 4.34782L9.06976 1" stroke="#191919" stroke-linecap="round" stroke-linejoin="round"/>
<path d="M7.69531 11.5218V10.5652" stroke="#191919" stroke-linecap="round" stroke-linejoin="round"/>
<path d="M9.6084 11.5218V10.5652" stroke="#191919" stroke-linecap="round" stroke-linejoin="round"/>
<path d="M14.3906 11.5218V10.5652" stroke="#191919" stroke-linecap="round" stroke-linejoin="round"/>
<path d="M16.3037 11.5218V10.5652" stroke="#191919" stroke-linecap="round" stroke-linejoin="round"/>
<path d="M6.73877 16.3044H10.5649" stroke="#191919" stroke-linecap="round" stroke-linejoin="round"/>
<path d="M11.9997 6.26092C12.2835 6.26092 12.5609 6.17678 12.7969 6.01911C13.0328 5.86146 13.2167 5.63737 13.3253 5.37521C13.4339 5.11304 13.4623 4.82455 13.407 4.54623C13.3516 4.26791 13.2149 4.01226 13.0143 3.8116C12.8136 3.61094 12.5579 3.47429 12.2796 3.41893C12.0013 3.36356 11.7129 3.39198 11.4507 3.50058C11.1885 3.60917 10.9644 3.79307 10.8067 4.02902C10.6491 4.26497 10.5649 4.54237 10.5649 4.82614C10.5649 5.20667 10.7161 5.57161 10.9851 5.84068C11.2542 6.10976 11.6192 6.26092 11.9997 6.26092Z" fill="white" stroke="#191919" stroke-linecap="round" stroke-linejoin="round"/>
<path d="M17.2607 14.3913V16.3044H13.4346V14.3913C13.4417 14.14 13.5449 13.9008 13.7228 13.723C13.9006 13.5451 14.1397 13.442 14.3911 13.4348H16.3041C16.5545 13.4451 16.7919 13.5492 16.969 13.7265C17.1463 13.9036 17.2503 14.1409 17.2607 14.3913Z" fill="#808080" stroke="#191919" stroke-linecap="round" stroke-linejoin="round"/>
<path d="M10.5649 14.3913V16.3044H6.73877V14.3913C6.74599 14.14 6.84908 13.9008 7.02693 13.723C7.20477 13.5451 7.44389 13.442 7.69529 13.4348H9.60833C9.8587 13.4451 10.0961 13.5492 10.2732 13.7265C10.4505 13.9036 10.5545 14.1409 10.5649 14.3913Z" fill="#B2B2B2" stroke="#191919" stroke-linecap="round" stroke-linejoin="round"/>
<path d="M13.4344 16.3044V18.2174C13.4344 18.5979 13.2833 18.9629 13.0142 19.232C12.7451 19.5011 12.3801 19.6522 11.9996 19.6522C11.6191 19.6522 11.2541 19.5011 10.985 19.232C10.716 18.9629 10.5649 18.5979 10.5649 18.2174V16.3044H6.73877V18.2174C6.73877 21.3835 9.09181 23 11.9996 23C14.9075 23 17.2605 21.3835 17.2605 18.2174V16.3044H13.4344Z" stroke="#191919" stroke-linecap="round" stroke-linejoin="round"/>
</svg>
