<svg width="24" height="24" viewBox="0 0 24 24" fill="none" xmlns="http://www.w3.org/2000/svg">
<g clip-path="url(#clip0_5303_6287)">
<path d="M14.9 10.1936C14.8141 10.1292 14.7096 10.0944 14.6022 10.0944H9.40918C9.30178 10.0944 9.19728 10.1292 9.11136 10.1936C6.96009 11.8356 4.55469 15.0144 4.55469 17.5399C4.55469 21.1048 6.54017 23 12.0002 23C17.4603 23 19.4458 21.1048 19.4458 17.5399C19.4458 15.0144 17.0503 11.8356 14.9 10.1936Z" fill="#FFDDA1"/>
<path d="M12.0002 18.4513C7.98559 18.4513 5.84525 17.4258 4.99943 15.4662C4.72343 16.1227 4.57259 16.8251 4.55469 17.537C4.55469 21.102 6.54017 22.9971 12.0002 22.9971C17.4603 22.9971 19.4458 21.102 19.4458 17.537C19.428 16.8242 19.2775 16.1209 19.002 15.4632C18.1552 17.4239 16.0169 18.4513 12.0002 18.4513Z" fill="#FFBC44"/>
<path d="M8.52637 8.10596H15.4755" stroke="#191919" stroke-linecap="round" stroke-linejoin="round"/>
<path d="M15.7129 2.4444C15.7629 2.35368 15.7832 2.24959 15.7711 2.14671C15.759 2.04384 15.715 1.94733 15.6453 1.87072C15.5756 1.7941 15.4836 1.74122 15.3823 1.71948C15.2811 1.69774 15.1755 1.70823 15.0805 1.74948L12.9957 2.64294L12.4646 1.31267C12.4279 1.2204 12.3643 1.14128 12.2821 1.08554C12.1999 1.0298 12.1028 1 12.0035 1C11.9042 1 11.8071 1.0298 11.7249 1.08554C11.6427 1.14128 11.5791 1.2204 11.5424 1.31267L11.0083 2.64592L8.92353 1.75246C8.82851 1.71121 8.72296 1.70072 8.62168 1.72246C8.5204 1.7442 8.42846 1.79708 8.35874 1.87369C8.28903 1.95031 8.24502 2.04681 8.2329 2.14969C8.22078 2.25256 8.24115 2.35665 8.29115 2.44737C8.87194 3.45135 9.27906 4.54617 9.49534 5.68569C9.51043 5.8064 9.56931 5.91737 9.66081 5.99752C9.75232 6.07768 9.87007 6.12145 9.99171 6.12051H14.0272C14.1488 6.12145 14.2666 6.07768 14.3581 5.99752C14.4496 5.91737 14.5085 5.8064 14.5236 5.68569C14.7347 4.54572 15.1375 3.44977 15.7149 2.4444H15.7129Z" fill="#FFBC44" stroke="#191919" stroke-linecap="round" stroke-linejoin="round"/>
<path d="M12.4961 13.566V12.5732" stroke="#191919" stroke-linecap="round" stroke-linejoin="round"/>
<path d="M13.9852 13.566H11.971C11.6617 13.5663 11.3621 13.6741 11.1236 13.871C10.8851 14.068 10.7226 14.3418 10.6639 14.6455C10.6052 14.9492 10.654 15.2638 10.8019 15.5355C10.9498 15.8071 11.1877 16.0188 11.4746 16.1343L13.5226 16.9543C13.8096 17.0697 14.0474 17.2814 14.1953 17.5531C14.3433 17.8247 14.3921 18.1393 14.3334 18.443C14.2747 18.7467 14.1121 19.0205 13.8737 19.2175C13.6352 19.4144 13.3356 19.5223 13.0263 19.5225H11.007" stroke="#191919" stroke-linecap="round" stroke-linejoin="round"/>
<path d="M12.4961 20.5152V19.5225" stroke="#191919" stroke-linecap="round" stroke-linejoin="round"/>
<path d="M14.9 10.1936C14.8141 10.1292 14.7096 10.0944 14.6022 10.0944H9.40918C9.30178 10.0944 9.19728 10.1292 9.11136 10.1936C6.96009 11.8356 4.55469 15.0144 4.55469 17.5399C4.55469 21.1048 6.54017 23 12.0002 23C17.4603 23 19.4458 21.1048 19.4458 17.5399C19.4458 15.0144 17.0503 11.8356 14.9 10.1936Z" stroke="#191919" stroke-linecap="round" stroke-linejoin="round"/>
</g>
<defs>
<clipPath id="clip0_5303_6287">
<rect width="24" height="24" fill="white"/>
</clipPath>
</defs>
</svg>
