<svg width="24" height="24" viewBox="0 0 24 24" fill="none" xmlns="http://www.w3.org/2000/svg">
<g clip-path="url(#clip0_5303_6302)">
<path d="M17.26 8.93804V20.4157C17.2787 20.764 17.2136 21.1118 17.0701 21.4298C16.9267 21.7478 16.709 22.0268 16.4354 22.2432C16.1617 22.4597 15.8402 22.6073 15.4977 22.6738C15.1552 22.7402 14.8018 22.7235 14.4671 22.6251L3.79289 20.1096C3.01444 19.8946 2.32444 19.4378 1.82246 18.8051C1.32048 18.1725 1.03247 17.3967 1 16.5898V4.15571C1 3.42975 1.27738 2.73248 1.77474 2.20451V2.19495L14.4766 5.37042C15.2556 5.599 15.9431 6.06623 16.4425 6.70627C16.9418 7.34631 17.2277 8.1269 17.26 8.93804Z" fill="#FFDDA1" stroke="#191919" stroke-linecap="round" stroke-linejoin="round"/>
<path d="M23.0004 4.15573V14.6769C22.9979 15.4371 22.6947 16.1655 22.1572 16.7031C21.6196 17.2406 20.8912 17.5438 20.131 17.5463H17.2616V8.93808C17.2294 8.12692 16.9434 7.34634 16.4441 6.70629C15.9448 6.06625 15.2572 5.59902 14.4783 5.37044L1.77637 2.19497C2.0441 1.90741 2.36836 1.67826 2.72881 1.5219C3.08926 1.36554 3.47813 1.28534 3.87103 1.28632H20.131C20.892 1.28632 21.6218 1.58864 22.16 2.12675C22.6981 2.66487 23.0004 3.39472 23.0004 4.15573Z" fill="#FFBC44" stroke="#191919" stroke-linecap="round" stroke-linejoin="round"/>
<path d="M9.6084 4.1557H19.1731" stroke="#191919" stroke-linecap="round" stroke-linejoin="round"/>
<path d="M12.9559 15.6333C13.4632 15.6333 13.9498 15.4318 14.3086 15.073C14.6673 14.7143 14.8688 14.2277 14.8688 13.7204C14.8688 13.213 14.6673 12.7265 14.3086 12.3677C13.9498 12.009 13.4632 11.8074 12.9559 11.8074C12.4486 11.8074 11.962 12.009 11.6033 12.3677C11.2445 12.7265 11.043 13.213 11.043 13.7204C11.043 14.2277 11.2445 14.7143 11.6033 15.073C11.962 15.4318 12.4486 15.6333 12.9559 15.6333Z" fill="#FFEF5E"/>
<path d="M12.9559 13.3483C13.3269 13.3483 13.6899 13.4561 14.0006 13.6587C14.3114 13.8613 14.5566 14.1499 14.7062 14.4893C14.8346 14.1982 14.8884 13.8795 14.8625 13.5623C14.8367 13.2451 14.7322 12.9394 14.5584 12.6728C14.3845 12.4062 14.147 12.1872 13.8672 12.0356C13.5874 11.884 13.2741 11.8046 12.9559 11.8046C12.6377 11.8046 12.3245 11.884 12.0446 12.0356C11.7648 12.1872 11.5273 12.4062 11.3535 12.6728C11.1797 12.9394 11.0751 13.2451 11.0493 13.5623C11.0235 13.8795 11.0772 14.1982 11.2056 14.4893C11.3553 14.1499 11.6004 13.8613 11.9112 13.6587C12.222 13.4561 12.5849 13.3483 12.9559 13.3483Z" fill="#FFF9BF"/>
<path d="M12.9559 15.6333C13.4632 15.6333 13.9498 15.4318 14.3086 15.073C14.6673 14.7143 14.8688 14.2277 14.8688 13.7204C14.8688 13.213 14.6673 12.7265 14.3086 12.3677C13.9498 12.009 13.4632 11.8074 12.9559 11.8074C12.4486 11.8074 11.962 12.009 11.6033 12.3677C11.2445 12.7265 11.043 13.213 11.043 13.7204C11.043 14.2277 11.2445 14.7143 11.6033 15.073C11.962 15.4318 12.4486 15.6333 12.9559 15.6333Z" stroke="#191919" stroke-linecap="round" stroke-linejoin="round"/>
<path d="M17.2607 8.93805H19.1737" stroke="#191919" stroke-linecap="round" stroke-linejoin="round"/>
</g>
<defs>
<clipPath id="clip0_5303_6302">
<rect width="24" height="24" fill="white"/>
</clipPath>
</defs>
</svg>
