<svg width="24" height="24" viewBox="0 0 24 24" fill="none" xmlns="http://www.w3.org/2000/svg">
<g clip-path="url(#clip0_5303_5522)">
<path d="M20.3281 11.6376V1.97355C20.3281 1.71724 20.2263 1.47143 20.045 1.29019C19.8638 1.10896 19.618 1.00714 19.3617 1.00714H1.9664C1.7101 1.00714 1.46429 1.10896 1.28305 1.29019C1.10182 1.47143 1 1.71724 1 1.97355V11.6376H20.3281Z" fill="#66E1FF"/>
<path d="M16.4625 1.00714H1.9664C1.7101 1.00714 1.46429 1.10896 1.28305 1.29019C1.10182 1.47143 1 1.71724 1 1.97355V11.6376H5.83202L16.4625 1.00714Z" fill="#C2F3FF"/>
<path d="M1 11.6376V13.5704C1 13.8267 1.10182 14.0726 1.28305 14.2538C1.37279 14.3435 1.47933 14.4147 1.59658 14.4633C1.71383 14.5118 1.83949 14.5368 1.9664 14.5368H19.3617C19.618 14.5368 19.8638 14.435 20.045 14.2538C20.2263 14.0726 20.3281 13.8267 20.3281 13.5704V11.6376H1Z" fill="white"/>
<path d="M13.5629 17.4361C13.1784 17.4361 12.8097 17.2834 12.5379 17.0115C12.266 16.7396 12.1133 16.3709 12.1133 15.9865V14.5369H8.73086V15.9865C8.73086 16.3709 8.57813 16.7396 8.30628 17.0115C8.03442 17.2834 7.66571 17.4361 7.28125 17.4361H13.5629Z" fill="#B2B2B2"/>
<path d="M5.84717 17.436H12.612" stroke="#191919" stroke-linecap="round" stroke-linejoin="round"/>
<path d="M1.01562 11.6376H15.5117" stroke="#191919" stroke-linecap="round" stroke-linejoin="round"/>
<path d="M8.74648 14.5369V15.9865C8.74648 16.3709 8.59376 16.7396 8.3219 17.0115C8.05005 17.2834 7.68132 17.4361 7.29688 17.4361" stroke="#191919" stroke-linecap="round" stroke-linejoin="round"/>
<path d="M13.5789 14.5368H1.98204C1.72573 14.5368 1.47991 14.435 1.29868 14.2537C1.11744 14.0725 1.01562 13.8267 1.01562 13.5704V1.97355C1.01563 1.71724 1.11744 1.47143 1.29868 1.29019C1.47991 1.10896 1.72573 1.00714 1.98204 1.00714H19.3773C19.5042 1.00714 19.6299 1.03214 19.7471 1.0807C19.8644 1.12927 19.9709 1.20046 20.0607 1.29019C20.1504 1.37993 20.2216 1.48647 20.2702 1.60372C20.3187 1.72097 20.3437 1.84664 20.3437 1.97355V7.77197" stroke="#191919" stroke-linecap="round" stroke-linejoin="round"/>
<path d="M20.1014 9.4632L14.389 16.5972C14.3445 16.65 14.3161 16.7145 14.3069 16.7829C14.2978 16.8514 14.3083 16.921 14.3373 16.9837C14.3663 17.0463 14.4126 17.0995 14.4707 17.1368C14.5288 17.1741 14.5963 17.1941 14.6654 17.1944H17.2022V22.9929L22.9146 15.8589C22.959 15.806 22.9875 15.7416 22.9967 15.6731C23.0058 15.6047 22.9953 15.535 22.9663 15.4724C22.9373 15.4097 22.891 15.3566 22.8329 15.3193C22.7748 15.2819 22.7073 15.2619 22.6382 15.2616H20.1014V9.4632Z" fill="#FFEF5E" stroke="#191919" stroke-linecap="round" stroke-linejoin="round"/>
</g>
<defs>
<clipPath id="clip0_5303_5522">
<rect width="24" height="24" fill="white"/>
</clipPath>
</defs>
</svg>
