<svg width="24" height="24" viewBox="0 0 24 24" fill="none" xmlns="http://www.w3.org/2000/svg">
<g clip-path="url(#clip0_5303_5358)">
<path d="M20.1272 11.5178V1.95614C20.1272 1.42805 19.6991 1 19.171 1H1.96005C1.43196 1 1.00391 1.42805 1.00391 1.95614V11.5178H20.1272Z" fill="#66E1FF"/>
<path d="M16.3026 1H1.96005C1.43196 1 1.00391 1.42805 1.00391 1.95614V11.5178H5.78473L16.3026 1Z" fill="#C2F3FF"/>
<path d="M1.00391 11.5178V13.4302C1.00391 13.9583 1.43196 14.3864 1.96005 14.3864H19.171C19.6991 14.3864 20.1272 13.9583 20.1272 13.4302V11.5178H1.00391Z" fill="white"/>
<path d="M13.4343 17.2549C12.6422 17.2549 12.0001 16.6127 12.0001 15.8206V14.3864H8.6535V15.8206C8.6535 16.6127 8.01132 17.2549 7.21924 17.2549H13.4343Z" fill="#B2B2B2"/>
<path d="M5.78516 17.2549H9.60983" stroke="#191919" stroke-linecap="round" stroke-linejoin="round"/>
<path d="M1.00391 11.5178H11.5217" stroke="#191919" stroke-linecap="round" stroke-linejoin="round"/>
<path d="M8.6535 14.3864V15.8206C8.6535 16.6127 8.01132 17.2549 7.21924 17.2549" stroke="#191919" stroke-linecap="round" stroke-linejoin="round"/>
<path d="M20.1272 9.6055V1.95614C20.1272 1.42805 19.6991 1 19.171 1H1.96005C1.43196 1 1.00391 1.42805 1.00391 1.95614V13.4302C1.00391 13.9582 1.43196 14.3863 1.96005 14.3863H9.6094" stroke="#191919" stroke-linecap="round" stroke-linejoin="round"/>
<path d="M17.2589 21.5575C20.5711 21.5577 22.6413 17.9722 20.9853 15.1035C20.2167 13.7722 18.7961 12.952 17.2589 12.952C13.9466 12.952 11.8765 16.5377 13.5326 19.4061C14.3011 20.7373 15.7217 21.5574 17.2589 21.5575Z" fill="#E3E3E3"/>
<path d="M14.8686 18.211H11.522V21.5576" stroke="#191919" stroke-linecap="round" stroke-linejoin="round"/>
<path d="M22.4385 19.39C21.1147 23.2717 16.0852 24.2649 13.3853 21.1775C12.6584 20.3462 12.2077 19.3095 12.0957 18.211" stroke="#191919" stroke-linecap="round" stroke-linejoin="round"/>
<path d="M19.6494 16.2986H22.996V12.952" stroke="#191919" stroke-linecap="round" stroke-linejoin="round"/>
<path d="M12.0796 15.1197C13.4034 11.2379 18.433 10.2449 21.1328 13.3322C21.8598 14.1635 22.3103 15.2001 22.4225 16.2987" stroke="#191919" stroke-linecap="round" stroke-linejoin="round"/>
</g>
<defs>
<clipPath id="clip0_5303_5358">
<rect width="24" height="24" fill="white"/>
</clipPath>
</defs>
</svg>
