<svg width="24" height="24" viewBox="0 0 24 24" fill="none" xmlns="http://www.w3.org/2000/svg">
<g clip-path="url(#clip0_5303_5493)">
<path d="M20.1307 11.5231V1.95781C20.1307 1.70413 20.0299 1.46083 19.8505 1.28144C19.6711 1.10206 19.4278 1.00128 19.1741 1.00128H1.95653C1.70284 1.00128 1.45955 1.10206 1.28016 1.28144C1.10078 1.46083 1 1.70413 1 1.95781V11.5231H20.1307Z" fill="#66E1FF"/>
<path d="M16.3045 1.00128H1.95653C1.70284 1.00128 1.45955 1.10206 1.28016 1.28144C1.10078 1.46083 1 1.70413 1 1.95781V11.5231H5.78267L16.3045 1.00128Z" fill="#C2F3FF"/>
<path d="M1 11.5231V13.4362C1 13.6899 1.10078 13.9332 1.28016 14.1126C1.36898 14.2014 1.47443 14.2718 1.59048 14.3199C1.70654 14.368 1.83092 14.3927 1.95653 14.3927H19.1741C19.4278 14.3927 19.6711 14.292 19.8505 14.1126C20.0299 13.9332 20.1307 13.6899 20.1307 13.4362V11.5231H1Z" fill="white"/>
<path d="M13.4348 17.2623C13.0542 17.2623 12.6893 17.1112 12.4202 16.8421C12.1511 16.573 12 16.2081 12 15.8275V14.3927H8.65207V15.8275C8.65207 16.2081 8.50092 16.573 8.23184 16.8421C7.96276 17.1112 7.59782 17.2623 7.21729 17.2623H13.4348Z" fill="#B2B2B2"/>
<path d="M5.78267 17.2623H11.5219M1 11.5231H14.3915M8.65226 14.3927V15.8275C8.65226 16.2081 8.5011 16.573 8.23202 16.8421C7.96294 17.1112 7.598 17.2623 7.21746 17.2623" stroke="#191919" stroke-linecap="round" stroke-linejoin="round"/>
<path d="M20.1307 11.5231V1.95781C20.1307 1.70413 20.0299 1.46083 19.8505 1.28144C19.6711 1.10206 19.4278 1.00128 19.1741 1.00128H1.95653C1.70284 1.00128 1.45955 1.10206 1.28016 1.28144C1.10078 1.46083 1 1.70413 1 1.95781V13.4362C1 13.6899 1.10078 13.9332 1.28016 14.1126C1.45955 14.292 1.70284 14.3927 1.95653 14.3927H12.4784" stroke="#191919" stroke-linecap="round" stroke-linejoin="round"/>
<path d="M18.0623 12.4797C17.9848 12.3345 17.8693 12.2131 17.7281 12.1284C17.5869 12.0437 17.4254 11.999 17.2608 11.999C17.0962 11.999 16.9346 12.0437 16.7934 12.1284C16.6523 12.2131 16.5367 12.3345 16.4592 12.4797L11.623 21.6959C11.5142 21.9015 11.491 22.1417 11.5583 22.3643C11.6257 22.5869 11.7781 22.774 11.9826 22.8848C12.1184 22.9595 12.2696 22.9996 12.4245 22.9987H22.097C22.2515 22.9988 22.4035 22.9596 22.5386 22.8846C22.6736 22.8096 22.7874 22.7014 22.8689 22.5701C22.9493 22.4395 22.9943 22.2902 22.9995 22.1369C23.0047 21.9837 22.9699 21.8317 22.8986 21.6959L18.0623 12.4797Z" fill="#FFEF5E"/>
<path d="M17.2608 12.0014C17.0963 12.0007 16.9347 12.0448 16.7935 12.1291C16.6522 12.2134 16.5366 12.3346 16.4592 12.4797L11.623 21.6959C11.5142 21.9015 11.491 22.1417 11.5583 22.3643C11.6257 22.5869 11.7781 22.774 11.9826 22.8848C12.1184 22.9595 12.2696 22.9996 12.4245 22.9987H17.2608V12.0014Z" fill="#FFF9BF"/>
<path d="M17.2608 18.2189V15.3493M18.0623 12.4797C17.9848 12.3345 17.8693 12.2131 17.7281 12.1284C17.5869 12.0437 17.4254 11.999 17.2608 11.999C17.0962 11.999 16.9346 12.0437 16.7934 12.1284C16.6523 12.2131 16.5367 12.3345 16.4592 12.4797L11.623 21.6959C11.5142 21.9015 11.491 22.1417 11.5583 22.3643C11.6257 22.5869 11.7781 22.774 11.9826 22.8848C12.1184 22.9595 12.2696 22.9996 12.4245 22.9987H22.097C22.2515 22.9988 22.4035 22.9596 22.5386 22.8846C22.6736 22.8096 22.7874 22.7014 22.8689 22.5701C22.9493 22.4395 22.9943 22.2902 22.9995 22.1369C23.0047 21.9837 22.9699 21.8317 22.8986 21.6959L18.0623 12.4797Z" stroke="#191919" stroke-linecap="round" stroke-linejoin="round"/>
<path d="M17.2611 20.6102C17.1977 20.6102 17.1369 20.585 17.092 20.5402C17.0472 20.4953 17.022 20.4345 17.022 20.3711C17.022 20.3076 17.0472 20.2468 17.092 20.202C17.1369 20.1571 17.1977 20.1319 17.2611 20.1319M17.2611 20.6102C17.3245 20.6102 17.3854 20.585 17.4302 20.5402C17.475 20.4953 17.5002 20.4345 17.5002 20.3711C17.5002 20.3076 17.475 20.2468 17.4302 20.202C17.3854 20.1571 17.3245 20.1319 17.2611 20.1319" stroke="#191919"/>
</g>
<defs>
<clipPath id="clip0_5303_5493">
<rect width="24" height="24" fill="white"/>
</clipPath>
</defs>
</svg>
