<svg width="24" height="24" viewBox="0 0 24 24" fill="none" xmlns="http://www.w3.org/2000/svg">
<g clip-path="url(#clip0_5303_6693)">
<path d="M20.3809 12.0001C20.3809 11.5834 20.2154 11.1837 19.9207 10.889C19.626 10.5943 19.2263 10.4287 18.8095 10.4287H5.19045C4.98408 10.4287 4.77974 10.4694 4.58909 10.5483C4.39843 10.6273 4.2252 10.7431 4.07928 10.889C3.93336 11.0349 3.81761 11.2081 3.73864 11.3988C3.65966 11.5894 3.61902 11.7938 3.61902 12.0001V18.8097H20.3809V12.0001Z" fill="#66E1FF"/>
<path d="M16.1904 10.4287H5.19045C4.77368 10.4287 4.37398 10.5943 4.07928 10.889C3.78458 11.1837 3.61902 11.5834 3.61902 12.0001V18.8097H7.80949L16.1904 10.4287Z" fill="#C2F3FF"/>
<path d="M20.3809 19.3339C20.3809 19.7506 20.2154 20.1503 19.9207 20.445C19.626 20.7397 19.2263 20.9053 18.8095 20.9053H5.19045C4.98408 20.9053 4.77974 20.8647 4.58909 20.7857C4.39843 20.7067 4.2252 20.591 4.07928 20.445C3.93336 20.2991 3.81761 20.1259 3.73864 19.9352C3.65966 19.7446 3.61902 19.5402 3.61902 19.3339V18.8101H20.3809V19.3339Z" fill="white"/>
<path d="M8.85718 23H15.1429" stroke="#191919" stroke-linecap="round" stroke-linejoin="round"/>
<path d="M12 20.9043V22.9995" stroke="#191919" stroke-linecap="round" stroke-linejoin="round"/>
<path d="M3.61902 18.8101H20.3809" stroke="#191919" stroke-linecap="round" stroke-linejoin="round"/>
<path d="M12 1V13.5714" stroke="#191919" stroke-linecap="round" stroke-linejoin="round"/>
<path d="M16.1906 5.19048L12.0002 1L7.80969 5.19048" stroke="#191919" stroke-linecap="round" stroke-linejoin="round"/>
<path d="M15.1428 10.4287H18.8095C19.2263 10.4287 19.626 10.5943 19.9207 10.889C20.2154 11.1837 20.3809 11.5834 20.3809 12.0001V19.3335C20.3809 19.7502 20.2154 20.1499 19.9207 20.4446C19.626 20.7393 19.2263 20.9049 18.8095 20.9049H5.19045C4.98408 20.9049 4.77974 20.8643 4.58909 20.7853C4.39843 20.7063 4.2252 20.5906 4.07928 20.4446C3.93336 20.2987 3.81761 20.1255 3.73864 19.9348C3.65966 19.7442 3.61902 19.5398 3.61902 19.3335V12.0001C3.61902 11.5834 3.78458 11.1837 4.07928 10.889C4.37398 10.5943 4.77368 10.4287 5.19045 10.4287H8.85711" stroke="#191919" stroke-linecap="round" stroke-linejoin="round"/>
</g>
<defs>
<clipPath id="clip0_5303_6693">
<rect width="24" height="24" fill="white"/>
</clipPath>
</defs>
</svg>
