<svg width="24" height="24" viewBox="0 0 24 24" fill="none" xmlns="http://www.w3.org/2000/svg">
<g clip-path="url(#clip0_5303_6368)">
<path d="M2.43457 11.522V1.95655C2.43457 1.70285 2.53535 1.45955 2.71474 1.28017C2.89412 1.10078 3.13743 1 3.39112 1H20.609C20.8627 1 21.106 1.10078 21.2853 1.28017C21.4647 1.45955 21.5655 1.70285 21.5655 1.95655V11.522H2.43457Z" fill="#66E1FF"/>
<path d="M17.261 1H3.39112C3.13743 1 2.89412 1.10078 2.71474 1.28017C2.53535 1.45955 2.43457 1.70285 2.43457 1.95655V11.522H6.73903L17.261 1Z" fill="#C2F3FF"/>
<path d="M2.43457 11.5215H21.5655V13.4346C21.5655 13.6883 21.4647 13.9316 21.2853 14.111C21.106 14.2903 20.8627 14.3911 20.609 14.3911H3.39112C3.13743 14.3911 2.89412 14.2903 2.71474 14.111C2.53535 13.9316 2.43457 13.6883 2.43457 13.4346V11.5215Z" fill="white"/>
<path d="M9.26221 18.2173L9.49178 17.8481C10.1733 16.8181 10.5666 15.6245 10.631 14.3911H13.3687C13.4331 15.6245 13.8264 16.8181 14.5079 17.8481L14.7375 18.2173H9.26221Z" fill="#E3E3E3" stroke="#191919" stroke-linecap="round" stroke-linejoin="round"/>
<path d="M7.69556 18.2178H16.3045" stroke="#191919" stroke-linecap="round" stroke-linejoin="round"/>
<path d="M2.43457 11.5215H21.5655" stroke="#191919" stroke-linecap="round" stroke-linejoin="round"/>
<path d="M20.609 1C20.8627 1 21.106 1.10078 21.2853 1.28017C21.4647 1.45955 21.5655 1.70285 21.5655 1.95655V13.4351C21.5655 13.6888 21.4647 13.9321 21.2853 14.1115C21.106 14.2909 20.8627 14.3917 20.609 14.3917H3.39112C3.13743 14.3917 2.89412 14.2909 2.71474 14.1115C2.53535 13.9321 2.43457 13.6888 2.43457 13.4351V1.95655C2.43457 1.70285 2.53535 1.45955 2.71474 1.28017C2.89412 1.10078 3.13743 1 3.39112 1H20.609Z" stroke="#191919" stroke-linecap="round" stroke-linejoin="round"/>
<path d="M12 20.1304V23" stroke="#191919" stroke-linecap="round" stroke-linejoin="round"/>
<path d="M4.34753 23H19.6523" stroke="#191919" stroke-linecap="round" stroke-linejoin="round"/>
</g>
<defs>
<clipPath id="clip0_5303_6368">
<rect width="24" height="24" fill="white"/>
</clipPath>
</defs>
</svg>
