<svg width="24" height="24" viewBox="0 0 24 24" fill="none" xmlns="http://www.w3.org/2000/svg">
<g clip-path="url(#clip0_5303_7815)">
<path d="M11.5217 17.261C13.5511 17.261 15.4975 16.4548 16.9325 15.0198C18.3675 13.5847 19.1737 11.6384 19.1737 9.60896C19.1737 7.57951 18.3675 5.63318 16.9325 4.19814C15.4975 2.7631 13.5511 1.95691 11.5217 1.95691C9.49223 1.95691 7.5459 2.7631 6.11086 4.19814C4.67582 5.63318 3.86963 7.57951 3.86963 9.60896C3.86963 11.6384 4.67582 13.5847 6.11086 15.0198C7.5459 16.4548 9.49223 17.261 11.5217 17.261Z" fill="#66E1FF"/>
<path d="M11.5215 1.95691C10.01 1.95704 8.53232 2.40483 7.27498 3.24381C6.01763 4.08278 5.03692 5.27535 4.45658 6.67105C3.87624 8.06676 3.72226 9.60308 4.01407 11.0862C4.30587 12.5693 5.0304 13.9328 6.09623 15.0046L16.9172 4.18366C15.4848 2.75569 13.5441 1.95478 11.5215 1.95691Z" fill="#C2F3FF"/>
<path d="M4.10645 7.71125C4.56801 5.90781 5.67116 4.33448 7.2093 3.2859C8.74745 2.23731 10.6151 1.7854 12.4625 2.01479C14.3098 2.24417 16.0102 3.13913 17.2452 4.53205C18.4802 5.92497 19.1651 7.72032 19.1716 9.58188C19.178 11.4434 18.5057 13.2435 17.2804 14.645C16.0552 16.0465 14.3611 16.9533 12.5153 17.1955C10.6696 17.4377 8.79884 16.9988 7.25343 15.961C5.70802 14.9232 4.59394 13.3575 4.11984 11.5574" stroke="#191919" stroke-linecap="round" stroke-linejoin="round"/>
<path d="M16.4326 15.4781L23 22.0435" stroke="#191919" stroke-linecap="round" stroke-linejoin="round"/>
<path d="M1 9.60898H6.46356C6.54735 9.60881 6.62962 9.58663 6.70214 9.54466C6.77466 9.50269 6.83488 9.44241 6.87677 9.36985L8.10301 7.25023C8.14933 7.16953 8.21817 7.10408 8.30112 7.06192C8.38407 7.01976 8.47752 7.00271 8.57001 7.01287C8.6625 7.02302 8.75002 7.05993 8.82185 7.11908C8.89368 7.17823 8.94669 7.25705 8.97439 7.34588L10.2178 11.3747C10.246 11.4659 10.3009 11.5467 10.3753 11.6065C10.4498 11.6663 10.5405 11.7024 10.6357 11.7102C10.7308 11.7181 10.8262 11.6972 10.9094 11.6503C10.9926 11.6035 11.0599 11.5328 11.1026 11.4474L12.5919 8.46978C12.6294 8.39489 12.6858 8.33114 12.7556 8.28492C12.8255 8.2387 12.9062 8.21162 12.9898 8.20639C13.0733 8.20116 13.1568 8.21797 13.2319 8.25513C13.3069 8.29228 13.3709 8.34849 13.4174 8.41813L14.5049 10.0499C14.5469 10.1131 14.6033 10.1653 14.6695 10.2023C14.7356 10.2394 14.8097 10.2602 14.8854 10.263C14.9612 10.2658 15.0365 10.2505 15.1053 10.2185C15.174 10.1864 15.2341 10.1385 15.2806 10.0786L16.7623 8.17422" stroke="#191919" stroke-linecap="round" stroke-linejoin="round"/>
</g>
<defs>
<clipPath id="clip0_5303_7815">
<rect width="24" height="24" fill="white"/>
</clipPath>
</defs>
</svg>
