<svg width="24" height="24" viewBox="0 0 24 24" fill="none" xmlns="http://www.w3.org/2000/svg">
<g clip-path="url(#clip0_5303_7671)">
<path d="M18.4814 15.935C16.6578 18.282 14.5782 20.4183 12.2812 22.3045C12.2001 22.3705 12.0996 22.4081 11.9951 22.4116C11.8906 22.415 11.7878 22.3841 11.7025 22.3236C9.18404 20.5301 6.94148 18.3778 5.04611 15.935C4.13711 14.7658 3.39091 13.4787 2.82793 12.1089C2.27069 10.7969 1.9747 9.38873 1.95654 7.96336C1.95654 0.0433617 10.8675 -0.530551 12 6.83467C13.1325 -0.530551 22.0435 0.0433617 22.0435 7.39806C21.9983 9.03689 21.5917 10.6455 20.8526 12.1089C20.2475 13.4902 19.4491 14.7785 18.4814 15.935Z" fill="#FFBFC5"/>
<path d="M12 15.4777C8.92131 15.4946 5.89737 14.664 3.25928 13.0769C3.76046 14.0854 4.35889 15.0427 5.04606 15.935C6.94145 18.3777 9.18401 20.53 11.7025 22.3236C11.7878 22.3841 11.8905 22.415 11.9951 22.4115C12.0996 22.4081 12.2001 22.3705 12.2812 22.3044C14.5782 20.4183 16.6577 18.2819 18.4814 15.935C19.1357 15.1382 19.7174 14.2844 20.2194 13.3839C17.7024 14.7699 14.8733 15.4905 12 15.4777Z" fill="#FF808C"/>
<path d="M1 14.0229H6.5C6.57425 14.0229 6.64748 14.0056 6.71388 13.9724C6.78029 13.9392 6.83806 13.891 6.88261 13.8316L7.76835 12.6513C7.81419 12.59 7.87406 12.5407 7.94291 12.5074C8.01176 12.4741 8.0876 12.4578 8.16405 12.4599C8.24051 12.4619 8.31536 12.4823 8.38231 12.5193C8.44927 12.5562 8.50639 12.6087 8.54887 12.6723L9.62974 14.2984C9.67624 14.368 9.74021 14.4242 9.81525 14.4614C9.89029 14.4986 9.97377 14.5154 10.0573 14.5101C10.1409 14.5049 10.2217 14.4778 10.2915 14.4316C10.3613 14.3854 10.4178 14.3216 10.4552 14.2467L11.9283 11.3007C11.9713 11.2145 12.0394 11.1433 12.1237 11.0964C12.2079 11.0496 12.3043 11.0293 12.4002 11.0382C12.4962 11.0471 12.5872 11.0848 12.6614 11.1463C12.7356 11.2078 12.7894 11.2903 12.8159 11.3829L14.0537 15.715C14.08 15.8077 14.1338 15.8903 14.2079 15.9519C14.282 16.0135 14.373 16.0513 14.469 16.0603C14.565 16.0693 14.6614 16.0491 14.7457 16.0023C14.83 15.9555 14.8982 15.8844 14.9413 15.7982L15.6941 14.2927C15.7337 14.2131 15.7947 14.1462 15.8702 14.0994C15.9457 14.0526 16.0328 14.0278 16.1217 14.0277H23" stroke="#191919" stroke-linecap="round" stroke-linejoin="round"/>
<path d="M20.8526 12.1089C21.5917 10.6455 21.9983 9.03689 22.0435 7.39806C22.0435 0.0433617 13.1325 -0.530551 12 6.83467C10.8675 -0.530551 1.95654 0.0433617 1.95654 7.96336C1.9747 9.38873 2.27069 10.7969 2.82793 12.1089" stroke="#191919" stroke-linecap="round" stroke-linejoin="round"/>
<path d="M5.0459 15.935C6.94127 18.3778 9.18383 20.5301 11.7023 22.3236C11.7876 22.3841 11.8904 22.415 11.9949 22.4116C12.0994 22.4081 12.1999 22.3705 12.281 22.3045C14.578 20.4183 16.6576 18.282 18.4812 15.935" stroke="#191919" stroke-linecap="round" stroke-linejoin="round"/>
</g>
<defs>
<clipPath id="clip0_5303_7671">
<rect width="24" height="24" fill="white"/>
</clipPath>
</defs>
</svg>
