<svg width="24" height="24" viewBox="0 0 24 24" fill="none" xmlns="http://www.w3.org/2000/svg">
<g clip-path="url(#clip0_5303_6546)">
<path d="M19.6521 19.6521C19.6521 20.0326 19.501 20.3976 19.2319 20.6667C18.9629 20.9357 18.5978 21.0869 18.2173 21.0869H5.78256C5.40204 21.0869 5.03709 20.9357 4.76802 20.6667C4.49895 20.3976 4.34778 20.0326 4.34778 19.6521V19.1738H19.6521V19.6521Z" fill="white"/>
<path d="M19.6521 12.9558C19.6521 12.5753 19.501 12.2103 19.2319 11.9412C18.9629 11.6721 18.5978 11.521 18.2173 11.521H5.78256C5.40204 11.521 5.03709 11.6721 4.76802 11.9412C4.49895 12.2103 4.34778 12.5753 4.34778 12.9558V19.1732H19.6521V12.9558Z" fill="#66E1FF"/>
<path d="M15.826 11.521H5.78256C5.40204 11.521 5.03709 11.6721 4.76802 11.9412C4.49895 12.2103 4.34778 12.5753 4.34778 12.9558V19.1732H8.17387L15.826 11.521Z" fill="#C2F3FF"/>
<path d="M9.13049 22.9995H14.8696" stroke="#191919" stroke-linecap="round" stroke-linejoin="round"/>
<path d="M12 21.0869V23" stroke="#191919" stroke-linecap="round" stroke-linejoin="round"/>
<path d="M4.34778 19.1738H19.6521" stroke="#191919" stroke-linecap="round" stroke-linejoin="round"/>
<path d="M12 11.5217V1" stroke="#191919" stroke-linecap="round" stroke-linejoin="round"/>
<path d="M15.8261 7.69531L12 11.5214L8.17395 7.69531" stroke="#191919" stroke-linecap="round" stroke-linejoin="round"/>
<path d="M17.7391 11.521H18.2173C18.5978 11.521 18.9629 11.6721 19.2319 11.9412C19.501 12.2103 19.6521 12.5753 19.6521 12.9558V19.6514C19.6521 20.0319 19.501 20.3969 19.2319 20.666C18.9629 20.9351 18.5978 21.0862 18.2173 21.0862H5.78256C5.40204 21.0862 5.03709 20.9351 4.76802 20.666C4.49895 20.3969 4.34778 20.0319 4.34778 19.6514V12.9558C4.34778 12.5753 4.49895 12.2103 4.76802 11.9412C5.03709 11.6721 5.40204 11.521 5.78256 11.521H6.26082" stroke="#191919" stroke-linecap="round" stroke-linejoin="round"/>
</g>
<defs>
<clipPath id="clip0_5303_6546">
<rect width="24" height="24" fill="white"/>
</clipPath>
</defs>
</svg>
