<svg width="24" height="24" viewBox="0 0 24 24" fill="none" xmlns="http://www.w3.org/2000/svg">
<g clip-path="url(#clip0_5303_6815)">
<path d="M15.3478 12.9563C15.3478 12.5757 15.1967 12.2108 14.9276 11.9417C14.6585 11.6726 14.2936 11.5215 13.913 11.5215H2.43478C2.05425 11.5215 1.68931 11.6726 1.42024 11.9417C1.15116 12.2108 1 12.5757 1 12.9563V19.1737H15.3478V12.9563Z" fill="#66E1FF"/>
<path d="M12 11.5215H2.43478C2.05425 11.5215 1.68931 11.6726 1.42024 11.9417C1.15116 12.2108 1 12.5757 1 12.9563V19.1737H4.34783L12 11.5215Z" fill="#C2F3FF"/>
<path d="M23 6.73975H12.4783V7.21801C12.4783 7.59854 12.6294 7.96348 12.8985 8.23255C13.1676 8.50163 13.5325 8.65279 13.9131 8.65279H21.5652C21.9458 8.65279 22.3107 8.50163 22.5798 8.23255C22.8488 7.96348 23 7.59854 23 7.21801V6.73975Z" fill="white"/>
<path d="M23 6.73962H12.4783V2.43527C12.4783 2.05474 12.6294 1.6898 12.8985 1.42073C13.1676 1.15165 13.5325 1.00049 13.9131 1.00049H21.5652C21.9458 1.00049 22.3107 1.15165 22.5798 1.42073C22.8488 1.6898 23 2.05474 23 2.43527V6.73962Z" fill="#66E1FF"/>
<path d="M20.6087 1.00049H13.9131C13.7246 1.00049 13.5381 1.0376 13.364 1.1097C13.1899 1.18181 13.0317 1.28749 12.8985 1.42073C12.7653 1.55396 12.6596 1.71213 12.5875 1.8862C12.5154 2.06028 12.4783 2.24685 12.4783 2.43527V6.73962H14.8696L20.6087 1.00049Z" fill="#C2F3FF"/>
<path d="M1 19.1743H15.3478V19.6526C15.3478 20.0331 15.1967 20.398 14.9276 20.6671C14.6585 20.9362 14.2936 21.0874 13.913 21.0874H2.43478C2.05425 21.0874 1.68931 20.9362 1.42024 20.6671C1.15116 20.398 1 20.0331 1 19.6526V19.1743Z" fill="white"/>
<path d="M5.30432 23H11.0435" stroke="#191919" stroke-linecap="round" stroke-linejoin="round"/>
<path d="M8.17395 21.0874V22.9603" stroke="#191919" stroke-linecap="round" stroke-linejoin="round"/>
<path d="M1 19.1743H15.3478" stroke="#191919" stroke-linecap="round" stroke-linejoin="round"/>
<path d="M8.65198 10.565V9.13026C8.65198 7.86184 9.15586 6.64536 10.0528 5.74845C10.9497 4.85154 12.1662 4.34766 13.4346 4.34766" stroke="#191919" stroke-linecap="round" stroke-linejoin="round"/>
<path d="M10.5652 8.65186L8.65218 10.5649L6.73914 8.65186" stroke="#191919" stroke-linecap="round" stroke-linejoin="round"/>
<path d="M12.4783 11.5215H13.913C14.2936 11.5215 14.6585 11.6726 14.9276 11.9417C15.1967 12.2108 15.3478 12.5757 15.3478 12.9563V19.6519C15.3478 20.0324 15.1967 20.3974 14.9276 20.6665C14.6585 20.9355 14.2936 21.0867 13.913 21.0867H2.43478C2.05425 21.0867 1.68931 20.9355 1.42024 20.6665C1.15116 20.3974 1 20.0324 1 19.6519V12.9563C1 12.5757 1.15116 12.2108 1.42024 11.9417C1.68931 11.6726 2.05425 11.5215 2.43478 11.5215H3.86957" stroke="#191919" stroke-linecap="round" stroke-linejoin="round"/>
<path d="M12.4783 6.73962V7.21788C12.4783 7.59841 12.6294 7.96335 12.8985 8.23242C13.1676 8.5015 13.5325 8.65266 13.9131 8.65266H21.5652C21.9458 8.65266 22.3107 8.5015 22.5798 8.23242C22.8488 7.96335 23 7.59841 23 7.21788V2.43527C23 2.05474 22.8488 1.6898 22.5798 1.42073C22.3107 1.15165 21.9458 1.00049 21.5652 1.00049H13.9131C13.5325 1.00049 13.1676 1.15165 12.8985 1.42073C12.6294 1.6898 12.4783 2.05474 12.4783 2.43527" stroke="#191919" stroke-linecap="round" stroke-linejoin="round"/>
<path d="M12.4783 6.73975H23" stroke="#191919" stroke-linecap="round" stroke-linejoin="round"/>
<path d="M16.3043 10.5654H19.1739" stroke="#191919" stroke-linecap="round" stroke-linejoin="round"/>
<path d="M17.739 8.65186V10.5649" stroke="#191919" stroke-linecap="round" stroke-linejoin="round"/>
</g>
<defs>
<clipPath id="clip0_5303_6815">
<rect width="24" height="24" fill="white"/>
</clipPath>
</defs>
</svg>
