<svg width="24" height="24" viewBox="0 0 24 24" fill="none" xmlns="http://www.w3.org/2000/svg">
<g clip-path="url(#clip0_5303_3767)">
<path d="M20.1304 11.5217V1.95652C20.1304 1.70284 20.0296 1.45954 19.8502 1.28016C19.6709 1.10078 19.4276 1 19.1739 1H1.95652C1.70284 1 1.45954 1.10078 1.28016 1.28016C1.10078 1.45954 1 1.70284 1 1.95652V11.5217H20.1304Z" fill="#66E1FF"/>
<path d="M16.3043 1H1.95652C1.70284 1 1.45954 1.10078 1.28016 1.28016C1.10078 1.45954 1 1.70284 1 1.95652V11.5217H5.7826L16.3043 1Z" fill="#C2F3FF"/>
<path d="M1 11.5218V13.4348C1 13.6885 1.10078 13.9318 1.28016 14.1112C1.36898 14.2 1.47443 14.2705 1.59048 14.3185C1.70653 14.3666 1.83091 14.3913 1.95652 14.3913H19.1739C19.4276 14.3913 19.6709 14.2906 19.8502 14.1112C20.0296 13.9318 20.1304 13.6885 20.1304 13.4348V11.5218H1Z" fill="white"/>
<path d="M13.4342 17.2609C13.0536 17.2609 12.6887 17.1097 12.4196 16.8406C12.1506 16.5715 11.9994 16.2066 11.9994 15.8261V14.3913H8.65158V15.8261C8.65158 16.2066 8.50041 16.5715 8.23134 16.8406C7.96227 17.1097 7.59732 17.2609 7.2168 17.2609H13.4342Z" fill="#B2B2B2"/>
<path d="M5.7826 17.2609H9.60868M1 11.5218H9.60868M8.65216 14.3913V15.8261C8.65216 16.2067 8.501 16.5716 8.23192 16.8407C7.96285 17.1097 7.59791 17.2609 7.21738 17.2609" stroke="#191919" stroke-linecap="round" stroke-linejoin="round"/>
<path d="M20.1304 9.60868V1.95652C20.1304 1.83091 20.1057 1.70653 20.0576 1.59048C20.0095 1.47443 19.9391 1.36898 19.8502 1.28016C19.7614 1.19134 19.656 1.12088 19.5399 1.07281C19.4239 1.02474 19.2995 1 19.1739 1H1.95652C1.70284 1 1.45954 1.10078 1.28016 1.28016C1.10078 1.45954 1 1.70283 1 1.95652V13.4348C1 13.6884 1.10078 13.9317 1.28016 14.1111C1.45954 14.2905 1.70284 14.3913 1.95652 14.3913H10.5652" stroke="#191919" stroke-linecap="round" stroke-linejoin="round"/>
<path d="M21.0867 18.2173C21.0867 18.7198 20.9878 19.2173 20.7955 19.6815C20.6032 20.1457 20.3214 20.5675 19.9661 20.9228C19.6108 21.2781 19.189 21.5599 18.7248 21.7522C18.2606 21.9444 17.7631 22.0434 17.2606 22.0434C16.7582 22.0434 16.2607 21.9444 15.7965 21.7522C15.3323 21.5599 14.9105 21.2781 14.5552 20.9228C14.1999 20.5675 13.9181 20.1457 13.7258 19.6815C13.5335 19.2173 13.4346 18.7198 13.4346 18.2173V16.3043C13.4346 15.8018 13.5335 15.3043 13.7258 14.8401C13.9181 14.3759 14.1999 13.9541 14.5552 13.5988C14.9105 13.2436 15.3323 12.9617 15.7965 12.7695C16.2607 12.5772 16.7582 12.4782 17.2606 12.4782C17.7631 12.4782 18.2606 12.5772 18.7248 12.7695C19.189 12.9617 19.6108 13.2436 19.9661 13.5988C20.3214 13.9541 20.6032 14.3759 20.7955 14.8401C20.9878 15.3043 21.0867 15.8018 21.0867 16.3043V18.2173Z" fill="#78EB7B"/>
<path d="M17.2606 22.0434C16.2459 22.0434 15.2727 21.6403 14.5552 20.9228C13.8377 20.2052 13.4346 19.2321 13.4346 18.2173V16.3043C13.4346 15.2896 13.8377 14.3164 14.5552 13.5988C15.2727 12.8813 16.2459 12.4782 17.2606 12.4782V22.0434Z" fill="#C9F7CA"/>
<path d="M21.0867 18.2174C21.0867 18.7199 20.9877 19.2174 20.7954 19.6816C20.6032 20.1458 20.3213 20.5676 19.9661 20.9229M21.0867 18.2174V16.3044M21.0867 18.2174H22.9997M19.9661 20.9229C19.6108 21.2782 19.189 21.56 18.7248 21.7523C18.2606 21.9445 17.7631 22.0435 17.2606 22.0435C16.7582 22.0435 16.2606 21.9445 15.7964 21.7523C15.3322 21.56 14.9104 21.2782 14.5552 20.9229M19.9661 20.9229L22.0432 23M21.0867 16.3044C21.0867 15.8019 20.9877 15.3044 20.7954 14.8402C20.6032 14.376 20.3213 13.9542 19.9661 13.5989C19.6108 13.2437 19.189 12.9618 18.7248 12.7696C18.2606 12.5773 17.7631 12.4783 17.2606 12.4783C16.7582 12.4783 16.2606 12.5773 15.7964 12.7696C15.3322 12.9618 14.9104 13.2437 14.5552 13.5989C14.1999 13.9542 13.918 14.376 13.7258 14.8402C13.5335 15.3044 13.4345 15.8019 13.4345 16.3044M21.0867 16.3044H13.4345M14.5552 20.9229C14.1999 20.5676 13.918 20.1458 13.7258 19.6816C13.5335 19.2174 13.4345 18.7199 13.4345 18.2174M14.5552 20.9229L12.478 23M13.4345 18.2174V16.3044M13.4345 18.2174H11.5215M11.5215 11.5218L14.1194 14.1197M22.9997 11.5218L20.4018 14.1197" stroke="#191919" stroke-linecap="round" stroke-linejoin="round"/>
</g>
<defs>
<clipPath id="clip0_5303_3767">
<rect width="24" height="24" fill="white"/>
</clipPath>
</defs>
</svg>
