<svg width="24" height="24" viewBox="0 0 24 24" fill="none" xmlns="http://www.w3.org/2000/svg">
<path d="M1 15.8242V3.86764C1 3.48712 1.15116 3.12217 1.42024 2.8531C1.68931 2.58403 2.05426 2.43286 2.43478 2.43286H21.5652C21.9457 2.43286 22.3107 2.58403 22.5798 2.8531C22.8489 3.12217 23 3.48712 23 3.86764V15.8242H1Z" fill="#66E1FF"/>
<path d="M18.6957 2.43286H2.43478C2.05426 2.43286 1.68931 2.58403 1.42024 2.8531C1.15116 3.12217 1 3.48712 1 3.86764V15.8242H5.30435L18.6957 2.43286Z" fill="#C2F3FF"/>
<path d="M1 15.8242H23V18.2155C23 18.596 22.8489 18.961 22.5798 19.2301C22.3107 19.4992 21.9457 19.6503 21.5652 19.6503H2.43478C2.05426 19.6503 1.68931 19.4992 1.42024 19.2301C1.15116 18.961 1 18.596 1 18.2155V15.8242Z" fill="white"/>
<path d="M5.3042 21.5671H18.6955" stroke="#191919" stroke-linecap="round" stroke-linejoin="round"/>
<path d="M11.521 19.6541V21.5672" stroke="#191919" stroke-linecap="round" stroke-linejoin="round"/>
<path d="M1 15.828H23" stroke="#191919" stroke-linecap="round" stroke-linejoin="round"/>
<path d="M21.5652 2.43677H2.43478C1.64237 2.43677 1 3.07914 1 3.87155V18.2193C1 19.0118 1.64237 19.6541 2.43478 19.6541H21.5652C22.3576 19.6541 23 19.0118 23 18.2193V3.87155C23 3.07914 22.3576 2.43677 21.5652 2.43677Z" stroke="#191919" stroke-linecap="round" stroke-linejoin="round"/>
<path d="M1 12.9585L6.5 7.4585L10.3261 11.2846L13.913 7.69763" stroke="#191919" stroke-linecap="round" stroke-linejoin="round"/>
<path d="M18.8149 5.78459V4.82806" stroke="#191919" stroke-linecap="round" stroke-linejoin="round"/>
<path d="M20.2498 5.78076H18.3052C18.0072 5.78097 17.7185 5.88487 17.4887 6.07463C17.259 6.26441 17.1023 6.52822 17.0458 6.82083C16.9892 7.11344 17.0363 7.4166 17.1788 7.67833C17.3213 7.94006 17.5504 8.14404 17.827 8.25528L19.8012 9.04441C20.0783 9.15527 20.3082 9.35921 20.4512 9.62116C20.5942 9.88311 20.6414 10.1867 20.5848 10.4798C20.5282 10.7728 20.3712 11.0369 20.141 11.2267C19.9106 11.4166 19.6214 11.5203 19.323 11.5199H17.3803" stroke="#191919" stroke-linecap="round" stroke-linejoin="round"/>
<path d="M18.8149 12.4802V11.5237" stroke="#191919" stroke-linecap="round" stroke-linejoin="round"/>
</svg>
