<svg width="24" height="24" viewBox="0 0 24 24" fill="none" xmlns="http://www.w3.org/2000/svg">
<g clip-path="url(#clip0_5303_5400)">
<path d="M13.4349 1H10.5653C7.39567 1 4.82617 3.56949 4.82617 6.73913V17.2609C4.82617 20.4305 7.39567 23 10.5653 23H13.4349C16.6045 23 19.174 20.4305 19.174 17.2609V6.73913C19.174 3.56949 16.6045 1 13.4349 1Z" fill="white"/>
<path d="M13.4349 19.1739H10.5653C9.04459 19.1694 7.58746 18.5632 6.51214 17.4879C5.43682 16.4126 4.83072 14.9554 4.82617 13.4348V17.2608C4.83072 18.7815 5.43682 20.2387 6.51214 21.314C7.58746 22.3893 9.04459 22.9955 10.5653 23H13.4349C14.9556 22.9957 16.4129 22.3896 17.4883 21.3143C18.5636 20.2389 19.1697 18.7816 19.174 17.2608V13.4348C19.1697 14.9555 18.5636 16.4128 17.4883 17.4882C16.4129 18.5635 14.9556 19.1696 13.4349 19.1739Z" fill="#E3E3E3"/>
<path d="M13.4349 1H10.5653C7.39567 1 4.82617 3.56949 4.82617 6.73913V17.2609C4.82617 20.4305 7.39567 23 10.5653 23H13.4349C16.6045 23 19.174 20.4305 19.174 17.2609V6.73913C19.174 3.56949 16.6045 1 13.4349 1Z" stroke="#191919" stroke-linecap="round" stroke-linejoin="round"/>
<path d="M12.957 7.69565C12.957 7.94933 12.8562 8.19263 12.6768 8.37201C12.4975 8.55139 12.2541 8.65217 12.0005 8.65217C11.7468 8.65217 11.5035 8.55139 11.3241 8.37201C11.1448 8.19263 11.0439 7.94933 11.0439 7.69565V5.7826C11.0439 5.52891 11.1448 5.28562 11.3241 5.10624C11.5035 4.92686 11.7468 4.82608 12.0005 4.82608C12.2541 4.82608 12.4975 4.92686 12.6768 5.10624C12.8562 5.28562 12.957 5.52891 12.957 5.7826V7.69565Z" fill="#808080" stroke="#191919" stroke-linecap="round" stroke-linejoin="round"/>
</g>
<defs>
<clipPath id="clip0_5303_5400">
<rect width="24" height="24" fill="white"/>
</clipPath>
</defs>
</svg>
