<svg width="24" height="24" viewBox="0 0 24 24" fill="none" xmlns="http://www.w3.org/2000/svg">
<g clip-path="url(#clip0_5303_5486)">
<path d="M12.4782 17.2609C12.4782 18.783 11.8736 20.2427 10.7973 21.319C9.72099 22.3954 8.26123 23 6.73912 23C5.21701 23 3.75725 22.3954 2.68095 21.319C1.60465 20.2427 1 18.783 1 17.2609V8.65221C1 7.89116 1.30233 7.16128 1.84047 6.62313C2.37862 6.08498 3.1085 5.78265 3.86956 5.78265H9.60868C10.3697 5.78265 11.0996 6.08498 11.6377 6.62313C12.1759 7.16128 12.4782 7.89116 12.4782 8.65221V17.2609Z" fill="white"/>
<path d="M12.4782 8.65222H1V10.5653H12.4782V8.65222Z" fill="#E3E3E3"/>
<path d="M6.73912 19.1739C5.21701 19.1739 3.75725 18.5693 2.68095 17.4929C1.60465 16.4166 1 14.9569 1 13.4348V17.2608C1 18.7829 1.60465 20.2427 2.68095 21.319C3.75725 22.3953 5.21701 23 6.73912 23C8.26123 23 9.72099 22.3953 10.7973 21.319C11.8736 20.2427 12.4782 18.7829 12.4782 17.2608V13.4348C12.4782 14.9569 11.8736 16.4166 10.7973 17.4929C9.72099 18.5693 8.26123 19.1739 6.73912 19.1739Z" fill="#E3E3E3"/>
<path d="M12.4782 17.2609C12.4782 18.783 11.8736 20.2427 10.7973 21.319C9.72099 22.3954 8.26123 23 6.73912 23C5.21701 23 3.75725 22.3954 2.68095 21.319C1.60465 20.2427 1 18.783 1 17.2609V8.65221C1 7.89116 1.30233 7.16128 1.84047 6.62313C2.37862 6.08498 3.1085 5.78265 3.86956 5.78265H9.60868C10.3697 5.78265 11.0996 6.08498 11.6377 6.62313C12.1759 7.16128 12.4782 7.89116 12.4782 8.65221V17.2609Z" stroke="#191919" stroke-linecap="round" stroke-linejoin="round"/>
<path d="M1 10.5652H12.4782" stroke="#191919" stroke-linecap="round" stroke-linejoin="round"/>
<path d="M6.73926 10.5652V5.7826C6.73926 4.51418 7.24313 3.2977 8.14005 2.40079C9.03696 1.50388 10.2534 1 11.5219 1C12.7903 1 14.0068 1.50388 14.9036 2.40079C15.8006 3.2977 16.3045 4.51418 16.3045 5.7826V8.1739C16.3045 9.0618 16.6571 9.91333 17.285 10.5412C17.9128 11.1691 18.7643 11.5217 19.6523 11.5217C20.5402 11.5217 21.3917 11.1691 22.0196 10.5412C22.6474 9.91333 23.0001 9.0618 23.0001 8.1739V1" stroke="#191919" stroke-linecap="round" stroke-linejoin="round"/>
</g>
<defs>
<clipPath id="clip0_5303_5486">
<rect width="24" height="24" fill="white"/>
</clipPath>
</defs>
</svg>
