<svg width="24" height="24" viewBox="0 0 24 24" fill="none" xmlns="http://www.w3.org/2000/svg">
<g clip-path="url(#clip0_5303_2147)">
<path d="M8.76684 17.0935H3.67434C3.39304 17.0935 3.16504 17.3215 3.16504 17.6028V22.6952C3.16504 22.9765 3.39304 23.2044 3.67434 23.2044H8.76684C9.04804 23.2044 9.27604 22.9764 9.27604 22.6952V17.6028C9.27604 17.3215 9.04804 17.0935 8.76684 17.0935Z" fill="#C9F7CA"/>
<path d="M8.76684 8.9455H3.67434C3.39304 8.9455 3.16504 9.17349 3.16504 9.45479V14.5473C3.16504 14.8285 3.39304 15.0565 3.67434 15.0565H8.76684C9.04804 15.0565 9.27604 14.8285 9.27604 14.5473V9.45479C9.27604 9.17349 9.04804 8.9455 8.76684 8.9455Z" fill="#C9F7CA"/>
<path d="M20.835 19.5806L14.175 21.0555L14.6242 14.2489" stroke="#191919" stroke-linecap="round" stroke-linejoin="round"/>
<path d="M14.1891 20.9902C16.8946 18.7384 18.5965 15.5055 18.921 12.0005C19.2457 8.49549 18.1666 5.00499 15.9205 2.29469" stroke="#191919" stroke-linecap="round" stroke-linejoin="round"/>
<path d="M7.74829 23.2045H8.76679C8.90179 23.2045 9.03139 23.1508 9.12689 23.0552C9.22239 22.9598 9.27599 22.8302 9.27599 22.6952V21.6767" stroke="#191919" stroke-linecap="round" stroke-linejoin="round"/>
<path d="M4.69284 23.2045H3.67434C3.53924 23.2045 3.40974 23.1508 3.31424 23.0552C3.21874 22.9598 3.16504 22.8302 3.16504 22.6952V21.6767" stroke="#191919" stroke-linecap="round" stroke-linejoin="round"/>
<path d="M4.69284 17.0935H3.67434C3.53924 17.0935 3.40974 17.1471 3.31424 17.2426C3.21874 17.3381 3.16504 17.4677 3.16504 17.6028V18.6212" stroke="#191919" stroke-linecap="round" stroke-linejoin="round"/>
<path d="M7.74829 17.0935H8.76679C8.90179 17.0935 9.03139 17.1471 9.12689 17.2426C9.22239 17.3381 9.27599 17.4677 9.27599 17.6028V18.6212" stroke="#191919" stroke-linecap="round" stroke-linejoin="round"/>
<path d="M7.74829 15.0565H8.76679C8.90179 15.0565 9.03139 15.0028 9.12689 14.9073C9.22239 14.8119 9.27599 14.6823 9.27599 14.5473V13.5288" stroke="#191919" stroke-linecap="round" stroke-linejoin="round"/>
<path d="M4.69284 15.0565H3.67434C3.53924 15.0565 3.40974 15.0028 3.31424 14.9073C3.21874 14.8119 3.16504 14.6823 3.16504 14.5473V13.5288" stroke="#191919" stroke-linecap="round" stroke-linejoin="round"/>
<path d="M4.69284 8.9455H3.67434C3.53924 8.9455 3.40974 8.9992 3.31424 9.0947C3.21874 9.1902 3.16504 9.31969 3.16504 9.45479V10.4733" stroke="#191919" stroke-linecap="round" stroke-linejoin="round"/>
<path d="M7.74829 8.9455H8.76679C8.90179 8.9455 9.03139 8.9992 9.12689 9.0947C9.22239 9.1902 9.27599 9.31969 9.27599 9.45479V10.4733" stroke="#191919" stroke-linecap="round" stroke-linejoin="round"/>
<path d="M8.76684 0.795502H3.67434C3.39304 0.795502 3.16504 1.0235 3.16504 1.3048V6.3973C3.16504 6.6785 3.39304 6.9065 3.67434 6.9065H8.76684C9.04804 6.9065 9.27604 6.6785 9.27604 6.3973V1.3048C9.27604 1.0235 9.04804 0.795502 8.76684 0.795502Z" fill="#78EB7B"/>
<path d="M9.27604 2.8345V1.3068C9.27604 1.1717 9.22244 1.0422 9.12694 0.946701C9.03144 0.851201 8.90184 0.797501 8.76684 0.797501H3.67434C3.53924 0.797501 3.40974 0.851201 3.31424 0.946701C3.21874 1.0422 3.16504 1.1717 3.16504 1.3068V2.8345H9.27604Z" fill="#C9F7CA"/>
<path d="M8.76684 0.795502H3.67434C3.39304 0.795502 3.16504 1.0235 3.16504 1.3048V6.3973C3.16504 6.6785 3.39304 6.9065 3.67434 6.9065H8.76684C9.04804 6.9065 9.27604 6.6785 9.27604 6.3973V1.3048C9.27604 1.0235 9.04804 0.795502 8.76684 0.795502Z" stroke="#191919" stroke-linecap="round" stroke-linejoin="round"/>
</g>
<defs>
<clipPath id="clip0_5303_2147">
<rect width="24" height="24" fill="white"/>
</clipPath>
</defs>
</svg>
