<svg width="24" height="24" viewBox="0 0 24 24" fill="none" xmlns="http://www.w3.org/2000/svg">
<g clip-path="url(#clip0_5303_13226)">
<path d="M10.2959 14.4359H3.43604C2.80511 14.4359 2.20002 14.6866 1.75389 15.1326C1.30776 15.5788 1.05713 16.1839 1.05713 16.8148C1.05713 17.4457 1.30776 18.0508 1.75389 18.497C2.20002 18.9431 2.80511 19.1937 3.43604 19.1937H20.0884C20.5931 19.1937 21.0772 19.3942 21.4341 19.7512C21.791 20.1081 21.9915 20.5921 21.9915 21.0969C21.9915 21.6016 21.791 22.0856 21.4341 22.4426C21.0772 22.7995 20.5931 23 20.0884 23H10.5728" stroke="#191919" stroke-linecap="round" stroke-linejoin="round"/>
<path d="M15.3307 10.1539C16.1189 10.1539 16.758 9.51484 16.758 8.72654C16.758 7.93824 16.1189 7.29919 15.3307 7.29919C14.5424 7.29919 13.9033 7.93824 13.9033 8.72654C13.9033 9.51484 14.5424 10.1539 15.3307 10.1539Z" fill="#FFEF5E"/>
<path d="M17.5093 3.49295L16.6053 5.66251C16.2016 5.49348 15.7687 5.40563 15.3311 5.404C14.8935 5.40236 14.46 5.48698 14.0551 5.653L13.1416 3.47392C13.7972 3.20725 14.4987 3.07147 15.2065 3.07426C15.9923 3.08174 16.7711 3.22333 17.5093 3.49295Z" fill="#6B6B6B"/>
<path d="M12.3711 10.0016L10.0779 10.9151C9.54112 9.50745 9.5479 7.95035 10.0969 6.54742V6.5379L12.4758 7.4514C12.2554 7.83702 12.1309 8.26995 12.1126 8.71374C12.0944 9.15754 12.183 9.59922 12.3711 10.0016Z" fill="#6B6B6B"/>
<path d="M17.5093 13.9792C16.1049 14.5159 14.5508 14.509 13.1511 13.9601H13.1416L14.0551 11.5812C14.4407 11.8016 14.8736 11.9262 15.3174 11.9444C15.7613 11.9626 16.2029 11.874 16.6053 11.6859L17.5093 13.9792Z" fill="#6B6B6B"/>
<path d="M20.564 10.9056V10.9151L18.1851 10.0016C18.4054 9.61598 18.53 9.18306 18.5483 8.73926C18.5664 8.29547 18.4779 7.85379 18.2897 7.4514L20.583 6.5379C21.1149 7.94643 21.1082 9.50175 20.564 10.9056Z" fill="#6B6B6B"/>
<path d="M15.3303 1.11395C13.8247 1.11395 12.3528 1.56042 11.101 2.39689C9.84913 3.23336 8.87342 4.42227 8.29725 5.81328C7.72107 7.20428 7.57032 8.7349 7.86405 10.2116C8.15778 11.6883 8.8828 13.0447 9.94743 14.1094C11.0121 15.174 12.3684 15.899 13.8452 16.1927C15.3218 16.4865 16.8525 16.3356 18.2435 15.7595C19.6345 15.1833 20.8234 14.2077 21.6599 12.9558C22.4963 11.7039 22.9428 10.2321 22.9428 8.72646C22.9428 6.7075 22.1407 4.77123 20.7132 3.34361C19.2855 1.91598 17.3492 1.11395 15.3303 1.11395ZM12.3709 10.0016L10.0776 10.9151C9.54092 9.5074 9.5477 7.95031 10.0967 6.54738V6.53786L12.4756 7.45136C12.2552 7.83697 12.1306 8.26991 12.1124 8.7137C12.0942 9.1575 12.1829 9.59917 12.3709 10.0016ZM13.1512 13.9601H13.1417L14.0552 11.5811C14.4408 11.8015 14.8737 11.9261 15.3175 11.9444C15.7613 11.9625 16.203 11.8739 16.6054 11.6858L17.5094 13.9791C16.1049 14.5158 14.5509 14.5089 13.1512 13.9601ZM13.9029 8.72646C13.9029 8.44416 13.9867 8.16819 14.1435 7.93346C14.3003 7.69874 14.5233 7.51579 14.7841 7.40776C15.0449 7.29973 15.3319 7.27146 15.6087 7.32654C15.8856 7.38161 16.14 7.51755 16.3396 7.71717C16.5391 7.91679 16.6751 8.17112 16.7302 8.44799C16.7853 8.72488 16.7571 9.01187 16.649 9.27268C16.541 9.53349 16.358 9.75641 16.1233 9.91325C15.8886 10.0701 15.6126 10.1538 15.3303 10.1538C14.9517 10.1538 14.5886 10.0034 14.321 9.73574C14.0533 9.46807 13.9029 9.10501 13.9029 8.72646ZM16.6054 5.66242C16.2018 5.49339 15.7688 5.40554 15.3312 5.4039C14.8937 5.40228 14.4601 5.48689 14.0552 5.65291L13.1417 3.47383C13.7973 3.20716 14.4988 3.07138 15.2066 3.07417C15.9924 3.08165 16.7712 3.22324 17.5094 3.49286L16.6054 5.66242ZM20.5639 10.9055V10.9151L18.185 10.0016C18.4053 9.61594 18.5299 9.18301 18.5482 8.73922C18.5664 8.29542 18.4778 7.85374 18.2896 7.45136L20.5829 6.53786C21.1148 7.94639 21.1081 9.50171 20.5639 10.9055Z" fill="#E3E3E3"/>
<path d="M13.9027 8.72648C13.9043 8.43514 13.9951 8.15129 14.1628 7.91305C14.3305 7.6748 14.567 7.49357 14.8407 7.39372C15.1144 7.29385 15.4121 7.28013 15.6939 7.3544C15.9755 7.42867 16.2278 7.58737 16.4167 7.80918L20.7939 3.43199C20.0974 2.68217 19.257 2.08045 18.3228 1.66281C17.3885 1.24517 16.3797 1.02019 15.3565 1.0013C14.3333 0.982406 13.3169 1.17001 12.3679 1.55288C11.4189 1.93576 10.5568 2.50604 9.83316 3.22965C9.10956 3.95326 8.53927 4.81534 8.1564 5.76435C7.77352 6.71338 7.58592 7.72985 7.60481 8.75301C7.6237 9.77617 7.84869 10.785 8.26633 11.7192C8.68397 12.6535 9.28568 13.4939 10.0355 14.1904L14.4127 9.81317C14.2535 9.68028 14.1253 9.51413 14.0372 9.32639C13.9491 9.13864 13.9031 8.93388 13.9027 8.72648ZM12.3706 10.0016L10.0774 10.9151C9.54064 9.50743 9.54743 7.95033 10.0964 6.54741V6.53789L12.4753 7.45139C12.2549 7.83701 12.1304 8.26993 12.1121 8.71372C12.0939 9.15752 12.1826 9.5992 12.3706 10.0016ZM15.2063 3.0742C15.9921 3.08168 16.771 3.22328 17.5091 3.49289L16.6051 5.66245C16.2014 5.49342 15.7685 5.40557 15.331 5.40394C14.8933 5.4023 14.4598 5.48692 14.0549 5.65294L13.1414 3.47386C13.797 3.20719 14.4985 3.07142 15.2063 3.0742Z" fill="white"/>
<path d="M15.3303 1.11395C13.8247 1.11395 12.3528 1.56042 11.101 2.39689C9.84913 3.23336 8.87342 4.42227 8.29725 5.81328C7.72107 7.20428 7.57032 8.7349 7.86405 10.2116C8.15778 11.6883 8.8828 13.0447 9.94743 14.1094C11.0121 15.174 12.3684 15.899 13.8452 16.1927C15.3218 16.4865 16.8525 16.3356 18.2435 15.7595C19.6345 15.1833 20.8234 14.2077 21.6599 12.9558C22.4963 11.7039 22.9428 10.2321 22.9428 8.72646C22.9428 6.7075 22.1407 4.77123 20.7132 3.34361C19.2855 1.91598 17.3492 1.11395 15.3303 1.11395ZM12.3709 10.0016L10.0776 10.9151C9.54092 9.5074 9.5477 7.95031 10.0967 6.54738V6.53786L12.4756 7.45136C12.2552 7.83697 12.1306 8.26991 12.1124 8.7137C12.0942 9.1575 12.1829 9.59917 12.3709 10.0016ZM13.1512 13.9601H13.1417L14.0552 11.5811C14.4408 11.8015 14.8737 11.9261 15.3175 11.9444C15.7613 11.9625 16.203 11.8739 16.6054 11.6858L17.5094 13.9791C16.1049 14.5158 14.5509 14.5089 13.1512 13.9601ZM13.9029 8.72646C13.9029 8.44416 13.9867 8.16819 14.1435 7.93346C14.3003 7.69874 14.5233 7.51579 14.7841 7.40776C15.0449 7.29973 15.3319 7.27146 15.6087 7.32654C15.8856 7.38161 16.14 7.51755 16.3396 7.71717C16.5391 7.91679 16.6751 8.17112 16.7302 8.44799C16.7853 8.72488 16.7571 9.01187 16.649 9.27268C16.541 9.53349 16.358 9.75641 16.1233 9.91325C15.8886 10.0701 15.6126 10.1538 15.3303 10.1538C14.9517 10.1538 14.5886 10.0034 14.321 9.73574C14.0533 9.46807 13.9029 9.10501 13.9029 8.72646ZM16.6054 5.66242C16.2018 5.49339 15.7688 5.40554 15.3312 5.4039C14.8937 5.40228 14.4601 5.48689 14.0552 5.65291L13.1417 3.47383C13.7973 3.20716 14.4988 3.07138 15.2066 3.07417C15.9924 3.08165 16.7712 3.22324 17.5094 3.49286L16.6054 5.66242ZM20.5639 10.9055V10.9151L18.185 10.0016C18.4053 9.61594 18.5299 9.18301 18.5482 8.73922C18.5664 8.29542 18.4778 7.85374 18.2896 7.45136L20.5829 6.53786C21.1148 7.94639 21.1081 9.50171 20.5639 10.9055Z" stroke="#191919" stroke-linecap="round" stroke-linejoin="round"/>
</g>
<defs>
<clipPath id="clip0_5303_13226">
<rect width="24" height="24" fill="white"/>
</clipPath>
</defs>
</svg>
