<svg width="24" height="24" viewBox="0 0 24 24" fill="none" xmlns="http://www.w3.org/2000/svg">
<g clip-path="url(#clip0_5303_13253)">
<path d="M20.1304 1H1.95652C1.42825 1 1 1.42825 1 1.95652V12.4782C1 13.0065 1.42825 13.4348 1.95652 13.4348H20.1304C20.6587 13.4348 21.0869 13.0065 21.0869 12.4782V1.95652C21.0869 1.42825 20.6587 1 20.1304 1Z" fill="#66E1FF"/>
<path d="M1.95652 1C1.70283 1 1.45954 1.10078 1.28016 1.28016C1.10078 1.45954 1 1.70283 1 1.95652V12.4782C1 12.7319 1.10078 12.9752 1.28016 13.1546C1.45954 13.3339 1.70283 13.4348 1.95652 13.4348H4.02547L16.4602 1H1.95652Z" fill="#C2F3FF"/>
<path d="M6.73926 11.5218H9.60882L9.13056 15.3479H7.21752L6.73926 11.5218Z" fill="#FF808C"/>
<path d="M8.17383 11.5217L8.41965 10.5365C8.486 10.2715 8.63904 10.0361 8.85448 9.86803C9.06991 9.69991 9.33535 9.60864 9.60861 9.6087H10.5651" stroke="#191919" stroke-linecap="round" stroke-linejoin="round"/>
<path d="M15.8262 11.0435C17.279 11.0435 18.4567 9.86583 18.4567 8.41308C18.4567 6.96034 17.279 5.78265 15.8262 5.78265C14.3735 5.78265 13.1958 6.96034 13.1958 8.41308C13.1958 9.86583 14.3735 11.0435 15.8262 11.0435Z" fill="#FFDDA1"/>
<path d="M18.638 13.54L17.7389 15.3479H12.478C12.478 14.4599 12.8307 13.6084 13.4586 12.9806C14.0864 12.3528 14.9379 12 15.8258 12C16.3867 11.9976 16.9389 12.1377 17.4307 12.407C17.9226 12.6764 18.3381 13.0663 18.638 13.54Z" fill="#78EB7B"/>
<path d="M3.86956 13.4348H1.95652C1.70283 13.4348 1.45954 13.3339 1.28016 13.1546C1.10078 12.9752 1 12.7319 1 12.4782V1.95652C1 1.70283 1.10078 1.45954 1.28016 1.28016C1.45954 1.10078 1.70283 1 1.95652 1H20.1304C20.3841 1 20.6274 1.10078 20.8068 1.28016C20.9861 1.45954 21.0869 1.70283 21.0869 1.95652V8.65216" stroke="#191919" stroke-linecap="round" stroke-linejoin="round"/>
<path d="M11.3684 21.0965L7.24582 22.9044C6.9819 23.0196 6.68385 23.0295 6.41289 22.9319C6.14193 22.8343 5.91863 22.6366 5.78885 22.3795C5.65907 22.1224 5.63267 21.8254 5.71507 21.5495C5.79747 21.2735 5.98241 21.0395 6.2319 20.8957L10.4884 18.4565L11.3684 21.0965Z" fill="#78EB7B"/>
<path d="M10.0864 16.994C10.0866 17.1709 10.115 17.3465 10.1706 17.5144L11.9995 23H19.6516L22.922 12.7232C23.0008 12.4749 23.0199 12.2116 22.9779 11.9546C22.9358 11.6976 22.8339 11.4541 22.6802 11.2439C22.5264 11.0338 22.3253 10.8627 22.093 10.7448C21.8609 10.6268 21.6042 10.5653 21.3437 10.5652C20.979 10.5651 20.6214 10.6665 20.3112 10.8583C20.001 11.0501 19.7504 11.3246 19.5875 11.6509L17.7386 15.3478H11.7326C11.5164 15.3478 11.3023 15.3902 11.1024 15.4729C10.9027 15.5556 10.7212 15.6768 10.5683 15.8297C10.4154 15.9826 10.2942 16.1641 10.2114 16.3639C10.1288 16.5637 10.0863 16.7778 10.0864 16.994Z" fill="#FF808C"/>
<path d="M11.9999 15.3478H6.26074" stroke="#191919" stroke-linecap="round" stroke-linejoin="round"/>
<path d="M6.73926 11.5218H9.60882L9.13056 15.3479H7.21752L6.73926 11.5218Z" stroke="#191919" stroke-linecap="round" stroke-linejoin="round"/>
<path d="M15.8262 11.0435C17.279 11.0435 18.4567 9.86583 18.4567 8.41308C18.4567 6.96034 17.279 5.78265 15.8262 5.78265C14.3735 5.78265 13.1958 6.96034 13.1958 8.41308C13.1958 9.86583 14.3735 11.0435 15.8262 11.0435Z" stroke="#191919" stroke-linecap="round" stroke-linejoin="round"/>
<path d="M18.638 13.54L17.7389 15.3479H12.478C12.478 14.4599 12.8307 13.6084 13.4586 12.9806C14.0864 12.3528 14.9379 12 15.8258 12C16.3867 11.9976 16.9389 12.1377 17.4307 12.407C17.9226 12.6764 18.3381 13.0663 18.638 13.54Z" stroke="#191919" stroke-linecap="round" stroke-linejoin="round"/>
<path d="M11.3684 21.0965L7.24582 22.9044C6.9819 23.0196 6.68385 23.0295 6.41289 22.9319C6.14193 22.8343 5.91863 22.6366 5.78885 22.3795C5.65907 22.1224 5.63267 21.8254 5.71507 21.5495C5.79747 21.2735 5.98241 21.0395 6.2319 20.8957L10.4884 18.4565L11.3684 21.0965Z" stroke="#191919" stroke-linecap="round" stroke-linejoin="round"/>
<path d="M10.0864 16.994C10.0866 17.1709 10.115 17.3465 10.1706 17.5144L11.9995 23H19.6516L22.922 12.7232C23.0008 12.4749 23.0199 12.2116 22.9779 11.9546C22.9358 11.6976 22.8339 11.4541 22.6802 11.2439C22.5264 11.0338 22.3253 10.8627 22.093 10.7448C21.8609 10.6268 21.6042 10.5653 21.3437 10.5652C20.979 10.5651 20.6214 10.6665 20.3112 10.8583C20.001 11.0501 19.7504 11.3246 19.5875 11.6509L17.7386 15.3478H11.7326C11.5164 15.3478 11.3023 15.3902 11.1024 15.4729C10.9027 15.5556 10.7212 15.6768 10.5683 15.8297C10.4154 15.9826 10.2942 16.1641 10.2114 16.3639C10.1288 16.5637 10.0863 16.7778 10.0864 16.994Z" stroke="#191919" stroke-linecap="round" stroke-linejoin="round"/>
</g>
<defs>
<clipPath id="clip0_5303_13253">
<rect width="24" height="24" fill="white"/>
</clipPath>
</defs>
</svg>
