<svg width="24" height="24" viewBox="0 0 24 24" fill="none" xmlns="http://www.w3.org/2000/svg">
<g clip-path="url(#clip0_5303_12267)">
<path d="M23 16.9844C22.5738 17.1704 22.2112 17.4766 21.9564 17.8654C21.7016 18.2543 21.5656 18.7089 21.5652 19.1739C21.5652 18.5397 21.3132 17.9315 20.8648 17.483C20.4163 17.0345 19.8081 16.7826 19.1739 16.7826C18.5397 16.7826 17.9315 17.0345 17.483 17.483C17.0345 17.9315 16.7826 18.5397 16.7826 19.1739C16.7826 18.5397 16.5306 17.9315 16.0822 17.483C15.6337 17.0345 15.0255 16.7826 14.3913 16.7826C13.7571 16.7826 13.1489 17.0345 12.7004 17.483C12.2519 17.9315 12 18.5397 12 19.1739C12 18.8599 11.9381 18.5489 11.818 18.2588C11.6978 17.9687 11.5216 17.7051 11.2996 17.483C11.0775 17.261 10.8139 17.0848 10.5238 16.9646C10.2337 16.8445 9.92271 16.7826 9.60869 16.7826C8.97447 16.7826 8.36623 17.0345 7.91778 17.483C7.46932 17.9315 7.21738 18.5397 7.21738 19.1739C7.21738 18.8599 7.15554 18.5489 7.03536 18.2588C6.91518 17.9687 6.73904 17.7051 6.51699 17.483C6.29493 17.261 6.03132 17.0848 5.7412 16.9646C5.45106 16.8445 5.14011 16.7826 4.82608 16.7826C4.19187 16.7826 3.58363 17.0345 3.13517 17.483C2.68672 17.9315 2.43478 18.5397 2.43478 19.1739C2.43436 18.7089 2.29841 18.2543 2.04358 17.8654C1.78877 17.4766 1.42611 17.1704 1 16.9844V23H23V16.9844Z" fill="#FF808C"/>
<path d="M23 11.5217V2.91304C23 1.8565 22.1435 1 21.0869 1H2.91304C1.8565 1 1 1.8565 1 2.91304V11.5217C1 12.5783 1.8565 13.4348 2.91304 13.4348H21.0869C22.1435 13.4348 23 12.5783 23 11.5217Z" fill="#808080" stroke="#191919" stroke-linecap="round" stroke-linejoin="round"/>
<path d="M19.174 1H4.82617V13.4348H19.174V1Z" fill="#E3E3E3"/>
<path d="M18.2175 1H4.82617V13.4348H5.78269L18.2175 1Z" fill="white"/>
<path d="M19.174 1H4.82617V13.4348H19.174V1Z" stroke="#191919" stroke-linecap="round" stroke-linejoin="round"/>
<path d="M1 4.82611H4.82608" stroke="#191919" stroke-linecap="round" stroke-linejoin="round"/>
<path d="M1 9.6087H4.82608" stroke="#191919" stroke-linecap="round" stroke-linejoin="round"/>
<path d="M19.1738 4.82611H22.9999" stroke="#191919" stroke-linecap="round" stroke-linejoin="round"/>
<path d="M19.1738 9.6087H22.9999" stroke="#191919" stroke-linecap="round" stroke-linejoin="round"/>
<path d="M7.21747 19.6522C7.85169 19.6522 8.45993 19.9041 8.90838 20.3525C9.35684 20.801 9.60878 21.4093 9.60878 22.0435V23H4.82617V22.0435C4.82617 21.4093 5.07811 20.801 5.52656 20.3525C5.97502 19.9041 6.58326 19.6522 7.21747 19.6522Z" stroke="#191919" stroke-linecap="round" stroke-linejoin="round"/>
<path d="M12.0002 19.6522C12.6344 19.6522 13.2426 19.9041 13.6911 20.3525C14.1395 20.801 14.3915 21.4093 14.3915 22.0435V23H9.60889V22.0435C9.60889 21.4093 9.86082 20.801 10.3093 20.3525C10.7578 19.9041 11.366 19.6522 12.0002 19.6522Z" stroke="#191919" stroke-linecap="round" stroke-linejoin="round"/>
<path d="M16.7824 19.6522C17.4166 19.6522 18.0248 19.9041 18.4734 20.3525C18.9218 20.801 19.1737 21.4093 19.1737 22.0435V23H14.3911V22.0435C14.3911 21.4093 14.6431 20.801 15.0915 20.3525C15.54 19.9041 16.1482 19.6522 16.7824 19.6522Z" stroke="#191919" stroke-linecap="round" stroke-linejoin="round"/>
<path d="M1 22.9999H4.82608V22.0434C4.82807 21.5985 4.7054 21.162 4.47196 20.7833C4.23852 20.4047 3.90366 20.099 3.50535 19.901C3.10703 19.7029 2.6612 19.6204 2.21838 19.6628C1.77557 19.7052 1.35349 19.8708 1 20.1408" stroke="#191919" stroke-linecap="round" stroke-linejoin="round"/>
<path d="M22.9999 20.1408C22.6464 19.8708 22.2244 19.7052 21.7815 19.6628C21.3387 19.6204 20.8929 19.7029 20.4946 19.901C20.0962 20.099 19.7614 20.4047 19.528 20.7833C19.2946 21.162 19.1718 21.5985 19.1739 22.0434V22.9999H22.9999" stroke="#191919" stroke-linecap="round" stroke-linejoin="round"/>
<path d="M23 16.9844C22.5738 17.1704 22.2112 17.4766 21.9564 17.8654C21.7016 18.2543 21.5656 18.7089 21.5652 19.1739C21.5652 18.5397 21.3132 17.9315 20.8648 17.483C20.4163 17.0345 19.8081 16.7826 19.1739 16.7826C18.5397 16.7826 17.9315 17.0345 17.483 17.483C17.0345 17.9315 16.7826 18.5397 16.7826 19.1739C16.7826 18.5397 16.5306 17.9315 16.0822 17.483C15.6337 17.0345 15.0255 16.7826 14.3913 16.7826C13.7571 16.7826 13.1489 17.0345 12.7004 17.483C12.2519 17.9315 12 18.5397 12 19.1739C12 18.8599 11.9381 18.5489 11.818 18.2588C11.6978 17.9687 11.5216 17.7051 11.2996 17.483C11.0775 17.261 10.8139 17.0848 10.5238 16.9646C10.2337 16.8445 9.92271 16.7826 9.60869 16.7826C8.97447 16.7826 8.36623 17.0345 7.91778 17.483C7.46932 17.9315 7.21738 18.5397 7.21738 19.1739C7.21738 18.8599 7.15554 18.5489 7.03536 18.2588C6.91518 17.9687 6.73904 17.7051 6.51699 17.483C6.29493 17.261 6.03132 17.0848 5.7412 16.9646C5.45106 16.8445 5.14011 16.7826 4.82608 16.7826C4.19187 16.7826 3.58363 17.0345 3.13517 17.483C2.68672 17.9315 2.43478 18.5397 2.43478 19.1739C2.43436 18.7089 2.29841 18.2543 2.04358 17.8654C1.78877 17.4766 1.42611 17.1704 1 16.9844" stroke="#191919" stroke-linecap="round" stroke-linejoin="round"/>
<path d="M2.43457 19.1739V19.6522" stroke="#191919" stroke-linecap="round" stroke-linejoin="round"/>
<path d="M7.21729 19.1739V19.6522" stroke="#191919" stroke-linecap="round" stroke-linejoin="round"/>
<path d="M12 19.1739V19.6522" stroke="#191919" stroke-linecap="round" stroke-linejoin="round"/>
<path d="M16.7827 19.1739V19.6522" stroke="#191919" stroke-linecap="round" stroke-linejoin="round"/>
<path d="M21.5654 19.1739V19.6522" stroke="#191919" stroke-linecap="round" stroke-linejoin="round"/>
<path d="M15.5393 8.10878C15.7189 8.03892 15.8732 7.91643 15.9821 7.75735C16.0909 7.59827 16.1491 7.41004 16.1491 7.2173C16.1491 7.02457 16.0909 6.83633 15.9821 6.67725C15.8732 6.51818 15.7189 6.39568 15.5393 6.32582L9.30373 3.902C9.23127 3.87386 9.15303 3.86381 9.0758 3.87271C8.99857 3.88163 8.92467 3.90922 8.86052 3.95313C8.79636 3.99703 8.74387 4.05591 8.70759 4.12467C8.67132 4.19343 8.65235 4.27 8.65234 4.34774V10.0869C8.65235 10.1646 8.67132 10.2412 8.70759 10.3099C8.74387 10.3787 8.79636 10.4376 8.86052 10.4815C8.92467 10.5254 8.99857 10.553 9.0758 10.5619C9.15303 10.5708 9.23127 10.5607 9.30373 10.5326L15.5393 8.10878Z" fill="#66E1FF"/>
<path d="M8.79295 10.4245L13.632 5.58548L9.30373 3.902C9.23127 3.87386 9.15303 3.86381 9.0758 3.87271C8.99857 3.88163 8.92467 3.90922 8.86052 3.95313C8.79636 3.99703 8.74387 4.05591 8.70759 4.12467C8.67132 4.19343 8.65235 4.27 8.65234 4.34774V10.0869C8.65262 10.2136 8.70319 10.3351 8.79295 10.4245Z" fill="#C2F3FF"/>
<path d="M15.5393 8.10878C15.7189 8.03892 15.8732 7.91643 15.9821 7.75735C16.0909 7.59827 16.1491 7.41004 16.1491 7.2173C16.1491 7.02457 16.0909 6.83633 15.9821 6.67725C15.8732 6.51818 15.7189 6.39568 15.5393 6.32582L9.30373 3.902C9.23127 3.87386 9.15303 3.86381 9.0758 3.87271C8.99857 3.88163 8.92467 3.90922 8.86052 3.95313C8.79636 3.99703 8.74387 4.05591 8.70759 4.12467C8.67132 4.19343 8.65235 4.27 8.65234 4.34774V10.0869C8.65235 10.1646 8.67132 10.2412 8.70759 10.3099C8.74387 10.3787 8.79636 10.4376 8.86052 10.4815C8.92467 10.5254 8.99857 10.553 9.0758 10.5619C9.15303 10.5708 9.23127 10.5607 9.30373 10.5326L15.5393 8.10878Z" stroke="#191919" stroke-linecap="round" stroke-linejoin="round"/>
</g>
<defs>
<clipPath id="clip0_5303_12267">
<rect width="24" height="24" fill="white"/>
</clipPath>
</defs>
</svg>
