<svg width="24" height="24" viewBox="0 0 24 24" fill="none" xmlns="http://www.w3.org/2000/svg">
<g clip-path="url(#clip0_5303_3322)">
<path d="M19.787 11.2169C19.2709 11.0931 18.7417 11.0322 18.2109 11.0354C16.7959 11.0311 15.4119 11.4503 14.2371 12.239C13.9517 11.5343 13.5656 10.8746 13.0908 10.2808C13.9292 9.83554 14.864 9.60267 15.8132 9.60257C17.2985 9.59751 18.7261 10.1774 19.787 11.2169Z" fill="#B2B2B2"/>
<path d="M15.8132 10.8492C16.373 10.8492 16.929 10.9304 17.4649 11.0908C17.7132 11.0593 17.9616 11.0411 18.2109 11.0354C18.7417 11.0321 19.2709 11.0931 19.787 11.2169C18.7261 10.1774 17.2985 9.59751 15.8132 9.60257C14.8638 9.60257 13.9295 9.83563 13.0908 10.2808C13.3296 10.5836 13.5474 10.9027 13.7413 11.236C14.4024 10.9812 15.1048 10.8501 15.8132 10.8492Z" fill="#E3E3E3"/>
<path d="M1.00684 15.3341C1.00122 10.922 5.77394 8.15825 9.59776 10.3595C11.3769 11.3836 12.4724 13.2811 12.4698 15.3341H1.00684Z" fill="#E3E3E3"/>
<path d="M6.7383 11.2943C9.25258 11.2938 11.4736 12.9318 12.2157 15.3341H12.4698C12.4755 10.922 7.70276 8.15825 3.87894 10.3595C2.09981 11.3836 1.00422 13.2811 1.00684 15.3341H1.26097C2.00305 12.9318 4.22413 11.2938 6.7383 11.2943Z" fill="white"/>
<path d="M6.73884 8.16968C9.49638 8.16968 11.2199 5.18461 9.8411 2.79652C9.20122 1.68818 8.0186 1.0055 6.73884 1.0054C3.9813 1.00531 2.25791 3.99029 3.63659 6.37847C4.27646 7.4869 5.45899 8.16968 6.73884 8.16968Z" fill="#E3E3E3"/>
<path d="M6.73839 2.9044C8.34657 2.90796 9.75419 3.98548 10.1773 5.53707C10.2679 5.22852 10.3161 4.90909 10.3206 4.58751C10.3206 1.82997 7.33546 0.106487 4.94737 1.48526C3.83903 2.12514 3.15625 3.30776 3.15625 4.58751C3.16103 4.90947 3.2088 5.22852 3.29957 5.53707C3.72269 3.98548 5.13022 2.90796 6.73839 2.9044Z" fill="white"/>
<path d="M15.8141 8.16968C18.5716 8.16968 20.2951 5.18461 18.9163 2.79652C18.2765 1.68818 17.0938 1.0055 15.8141 1.0054C13.0565 1.00531 11.3331 3.99029 12.7117 6.37847C13.3516 7.4869 14.5342 8.16968 15.8141 8.16968Z" fill="#B2B2B2"/>
<path d="M15.8146 2.7563C17.4524 2.75902 18.879 3.87457 19.2763 5.46345C19.3528 5.1769 19.393 4.88361 19.3967 4.58751C19.3967 1.82997 16.4116 0.106487 14.0235 1.48526C12.9152 2.12514 12.2324 3.30776 12.2324 4.58751C12.2363 4.88361 12.2764 5.17784 12.3528 5.46345C12.7502 3.87457 14.1767 2.75902 15.8146 2.7563Z" fill="#E3E3E3"/>
<path d="M10.5593 15.3341H1.00684C1.00702 10.922 5.78331 8.16453 9.60422 10.3707C10.1305 10.6745 10.605 11.0602 11.0102 11.5131" stroke="#191919" stroke-linecap="round" stroke-linejoin="round"/>
<path d="M6.73884 8.16968C9.49638 8.16968 11.2199 5.18461 9.8411 2.79652C9.20122 1.68818 8.0186 1.0055 6.73884 1.0054C3.9813 1.00531 2.25791 3.99029 3.63659 6.37847C4.27646 7.4869 5.45899 8.16968 6.73884 8.16968Z" stroke="#191919" stroke-linecap="round" stroke-linejoin="round"/>
<path d="M15.8141 8.16968C18.5716 8.16968 20.2951 5.18461 18.9163 2.79652C18.2765 1.68818 17.0938 1.0055 15.8141 1.0054C13.0565 1.00531 11.3331 3.99029 12.7117 6.37847C13.3516 7.4869 14.5342 8.16968 15.8141 8.16968Z" stroke="#191919" stroke-linecap="round" stroke-linejoin="round"/>
<path d="M20.082 11.513C18.2734 9.49308 15.2968 9.01685 12.9482 10.3715" stroke="#191919" stroke-linecap="round" stroke-linejoin="round"/>
<path d="M22.0376 13.5477H14.3957C13.8681 13.5477 13.4404 13.9754 13.4404 14.503V20.2345C13.4404 20.762 13.8681 21.1897 14.3957 21.1897H15.3509V22.8804C15.3508 22.9245 15.3751 22.9649 15.4139 22.9855C15.4525 23.0067 15.4997 23.0045 15.5363 22.9798L18.2166 21.1935H22.0376C22.5652 21.1935 22.9928 20.7659 22.9928 20.2383V14.5068C22.9955 13.9775 22.5669 13.5472 22.0376 13.5477Z" fill="#66E1FF"/>
<path d="M22.0376 13.5468H14.3957C13.8681 13.5468 13.4404 13.9745 13.4404 14.5021V20.2336C13.4404 20.7611 13.8681 21.1887 14.3957 21.1887H14.9612L22.4799 13.6701C22.3451 13.5926 22.193 13.5503 22.0376 13.5468Z" fill="#C2F3FF"/>
<path d="M22.0376 13.5477H14.3957C13.8681 13.5477 13.4404 13.9754 13.4404 14.503V20.2345C13.4404 20.762 13.8681 21.1897 14.3957 21.1897H15.3509V22.8804C15.3508 22.9245 15.3751 22.9649 15.4139 22.9855C15.4525 23.0067 15.4997 23.0045 15.5363 22.9798L18.2166 21.1935H22.0376C22.5652 21.1935 22.9928 20.7659 22.9928 20.2383V14.5068C22.9955 13.9775 22.5669 13.5472 22.0376 13.5477Z" stroke="#191919" stroke-linecap="round" stroke-linejoin="round"/>
<path d="M16.3066 16.4135H20.1276" stroke="#191919" stroke-linecap="round" stroke-linejoin="round"/>
<path d="M16.3066 18.3239H19.1724" stroke="#191919" stroke-linecap="round" stroke-linejoin="round"/>
</g>
<defs>
<clipPath id="clip0_5303_3322">
<rect width="24" height="24" fill="white"/>
</clipPath>
</defs>
</svg>
