<svg width="24" height="24" viewBox="0 0 24 24" fill="none" xmlns="http://www.w3.org/2000/svg">
<g clip-path="url(#clip0_5303_3265)">
<path d="M20.1306 5.30467C21.3191 5.30467 22.2826 4.34116 22.2826 3.15261C22.2826 1.96406 21.3191 1.00055 20.1306 1.00055C18.9421 1.00055 17.9785 1.96406 17.9785 3.15261C17.9785 4.34116 18.9421 5.30467 20.1306 5.30467Z" fill="#E3E3E3"/>
<path d="M20.1302 6.26117C19.3692 6.26117 18.6393 6.56348 18.1012 7.1016C17.5631 7.63972 17.2607 8.36957 17.2607 9.13058V11.5218H18.6954L19.1737 15.8259H21.0866L21.5649 11.5218H22.9996V9.13058C22.9996 8.36957 22.6972 7.63972 22.1591 7.1016C21.621 6.56348 20.8911 6.26117 20.1302 6.26117Z" fill="#E3E3E3"/>
<path d="M20.1306 3.13922C20.508 3.1401 20.8784 3.2407 21.2045 3.43083C21.5305 3.62097 21.8005 3.89389 21.9871 4.22195C22.1785 3.89792 22.2804 3.52892 22.2826 3.15261C22.2826 2.58185 22.0559 2.03447 21.6523 1.63087C21.2487 1.22728 20.7013 1.00055 20.1306 1.00055C19.5599 1.00055 19.0125 1.22728 18.6088 1.63087C18.2053 2.03447 17.9785 2.58185 17.9785 3.15261C17.9807 3.52892 18.0827 3.89792 18.2741 4.22195C18.4607 3.89389 18.7307 3.62097 19.0566 3.43083C19.3827 3.2407 19.7532 3.1401 20.1306 3.13922Z" fill="white"/>
<path d="M20.1302 6.26117C19.3692 6.26117 18.6393 6.56348 18.1012 7.1016C17.5631 7.63972 17.2607 8.36957 17.2607 9.13058V11.2693C17.2607 10.5083 17.5631 9.77839 18.1012 9.24027C18.6393 8.70215 19.3692 8.39984 20.1302 8.39984C20.8911 8.39984 21.621 8.70215 22.1591 9.24027C22.6972 9.77839 22.9996 10.5083 22.9996 11.2693V9.13058C22.9996 8.36957 22.6972 7.63972 22.1591 7.1016C21.621 6.56348 20.8911 6.26117 20.1302 6.26117Z" fill="white"/>
<path d="M20.1306 5.30467C21.3191 5.30467 22.2826 4.34116 22.2826 3.15261C22.2826 1.96406 21.3191 1.00055 20.1306 1.00055C18.9421 1.00055 17.9785 1.96406 17.9785 3.15261C17.9785 4.34116 18.9421 5.30467 20.1306 5.30467Z" stroke="#191919" stroke-linecap="round" stroke-linejoin="round"/>
<path d="M20.1302 6.26117C19.3692 6.26117 18.6393 6.56348 18.1012 7.1016C17.5631 7.63972 17.2607 8.36957 17.2607 9.13058V11.5218H18.6954L19.1737 15.8259H21.0866L21.5649 11.5218H22.9996V9.13058C22.9996 8.36957 22.6972 7.63972 22.1591 7.1016C21.621 6.56348 20.8911 6.26117 20.1302 6.26117Z" stroke="#191919" stroke-linecap="round" stroke-linejoin="round"/>
<path d="M12.0004 11.0436C13.4531 11.0436 14.6307 9.86593 14.6307 8.41326C14.6307 6.96059 13.4531 5.78296 12.0004 5.78296C10.5477 5.78296 9.37012 6.96059 9.37012 8.41326C9.37012 9.86593 10.5477 11.0436 12.0004 11.0436Z" fill="#E3E3E3"/>
<path d="M15.3486 15.3477C15.3486 14.4598 14.996 13.6083 14.3681 12.9805C13.7403 12.3527 12.8889 12 12.001 12C11.1131 12 10.2616 12.3527 9.63383 12.9805C9.00602 13.6083 8.65332 14.4598 8.65332 15.3477V18.2171H10.1674L10.5663 22.9994H13.4357L13.8345 18.2171H15.3486V15.3477Z" fill="#E3E3E3"/>
<path d="M12.0004 7.92163C12.5083 7.92222 13.0052 8.06996 13.4309 8.34698C13.8566 8.62401 14.1929 9.01845 14.3992 9.48259C14.5794 9.08202 14.6564 8.64272 14.6232 8.20475C14.59 7.76678 14.4476 7.3441 14.2091 6.97529C13.9706 6.60647 13.6434 6.30325 13.2577 6.09332C12.8719 5.88337 12.4396 5.77338 12.0004 5.77338C11.5612 5.77338 11.129 5.88337 10.7431 6.09332C10.3574 6.30325 10.0303 6.60647 9.79175 6.97529C9.55323 7.3441 9.41087 7.76678 9.37765 8.20475C9.34443 8.64272 9.42142 9.08202 9.60158 9.48259C9.80785 9.01845 10.1442 8.62401 10.5699 8.34698C10.9956 8.06996 11.4925 7.92222 12.0004 7.92163Z" fill="white"/>
<path d="M12.001 12C11.1131 12 10.2616 12.3527 9.63383 12.9805C9.00602 13.6083 8.65332 14.4598 8.65332 15.3477V17.4863C8.65332 16.5984 9.00602 15.747 9.63383 15.1191C10.2616 14.4913 11.1131 14.1387 12.001 14.1387C12.8889 14.1387 13.7403 14.4913 14.3681 15.1191C14.996 15.747 15.3486 16.5984 15.3486 17.4863V15.3477C15.3486 14.4598 14.996 13.6083 14.3681 12.9805C13.7403 12.3527 12.8889 12 12.001 12Z" fill="white"/>
<path d="M12.0004 11.0436C13.4531 11.0436 14.6307 9.86593 14.6307 8.41326C14.6307 6.96059 13.4531 5.78296 12.0004 5.78296C10.5477 5.78296 9.37012 6.96059 9.37012 8.41326C9.37012 9.86593 10.5477 11.0436 12.0004 11.0436Z" stroke="#191919" stroke-linecap="round" stroke-linejoin="round"/>
<path d="M15.3486 15.3477C15.3486 14.4598 14.996 13.6083 14.3681 12.9805C13.7403 12.3527 12.8889 12 12.001 12C11.1131 12 10.2616 12.3527 9.63383 12.9805C9.00602 13.6083 8.65332 14.4598 8.65332 15.3477V18.2171H10.1674L10.5663 22.9994H13.4357L13.8345 18.2171H15.3486V15.3477Z" stroke="#191919" stroke-linecap="round" stroke-linejoin="round"/>
<path d="M3.86983 5.30467C5.05838 5.30467 6.0219 4.34116 6.0219 3.15261C6.0219 1.96406 5.05838 1.00055 3.86983 1.00055C2.68128 1.00055 1.71777 1.96406 1.71777 3.15261C1.71777 4.34116 2.68128 5.30467 3.86983 5.30467Z" fill="#E3E3E3"/>
<path d="M3.86942 6.26117C3.1084 6.26117 2.37855 6.56348 1.84043 7.1016C1.30231 7.63972 1 8.36957 1 9.13058V11.5218H2.43471L2.91294 15.8259H4.82589L5.30412 11.5218H6.73883V9.13058C6.73883 8.36957 6.43652 7.63972 5.8984 7.1016C5.36028 6.56348 4.63043 6.26117 3.86942 6.26117Z" fill="#E3E3E3"/>
<path d="M3.86983 3.13922C4.24725 3.1401 4.61773 3.2407 4.94374 3.43083C5.26977 3.62097 5.53975 3.89389 5.72635 4.22195C5.91772 3.89792 6.01971 3.52892 6.0219 3.15261C6.0219 2.58185 5.79516 2.03447 5.39157 1.63087C4.98798 1.22728 4.4406 1.00055 3.86983 1.00055C3.29907 1.00055 2.75169 1.22728 2.3481 1.63087C1.94451 2.03447 1.71777 2.58185 1.71777 3.15261C1.71996 3.52892 1.82195 3.89792 2.01332 4.22195C2.19992 3.89389 2.4699 3.62097 2.79593 3.43083C3.12194 3.2407 3.49242 3.1401 3.86983 3.13922Z" fill="white"/>
<path d="M3.86942 6.26117C3.1084 6.26117 2.37855 6.56348 1.84043 7.1016C1.30231 7.63972 1 8.36957 1 9.13058V11.2693C1 10.5083 1.30231 9.77839 1.84043 9.24027C2.37855 8.70215 3.1084 8.39984 3.86942 8.39984C4.63043 8.39984 5.36028 8.70215 5.8984 9.24027C6.43652 9.77839 6.73883 10.5083 6.73883 11.2693V9.13058C6.73883 8.36957 6.43652 7.63972 5.8984 7.1016C5.36028 6.56348 4.63043 6.26117 3.86942 6.26117Z" fill="white"/>
<path d="M3.86983 5.30467C5.05838 5.30467 6.0219 4.34116 6.0219 3.15261C6.0219 1.96406 5.05838 1.00055 3.86983 1.00055C2.68128 1.00055 1.71777 1.96406 1.71777 3.15261C1.71777 4.34116 2.68128 5.30467 3.86983 5.30467Z" stroke="#191919" stroke-linecap="round" stroke-linejoin="round"/>
<path d="M3.86942 6.26117C3.1084 6.26117 2.37855 6.56348 1.84043 7.1016C1.30231 7.63972 1 8.36957 1 9.13058V11.5218H2.43471L2.91294 15.8259H4.82589L5.30412 11.5218H6.73883V9.13058C6.73883 8.36957 6.43652 7.63972 5.8984 7.1016C5.36028 6.56348 4.63043 6.26117 3.86942 6.26117Z" stroke="#191919" stroke-linecap="round" stroke-linejoin="round"/>
</g>
<defs>
<clipPath id="clip0_5303_3265">
<rect width="24" height="24" fill="white"/>
</clipPath>
</defs>
</svg>
