<svg width="24" height="24" viewBox="0 0 24 24" fill="none" xmlns="http://www.w3.org/2000/svg">
<g clip-path="url(#clip0_5303_3408)">
<path d="M17.6716 13.4164C18.0795 13.4164 18.4834 13.336 18.8602 13.1799C19.2371 13.0238 19.5795 12.795 19.8679 12.5066C20.1564 12.2182 20.3852 11.8757 20.5413 11.4989C20.6973 11.122 20.7777 10.7181 20.7777 10.3102C20.7777 9.90233 20.6973 9.49842 20.5413 9.12157C20.3852 8.74471 20.1564 8.4023 19.8679 8.11387C19.5795 7.82543 19.2371 7.59664 18.8602 7.44054C18.4834 7.28444 18.0795 7.2041 17.6716 7.2041C16.8478 7.2041 16.0577 7.53135 15.4752 8.11387C14.8927 8.69638 14.5654 9.48644 14.5654 10.3102C14.5654 11.134 14.8927 11.9241 15.4752 12.5066C16.0577 13.0891 16.8478 13.4164 17.6716 13.4164Z" fill="#E3E3E3"/>
<path d="M17.6716 9.17004C18.3212 9.17142 18.954 9.37716 19.4803 9.75813C20.0065 10.1391 20.3996 10.676 20.6037 11.2927C20.7146 10.9773 20.7739 10.6447 20.7777 10.3102C20.7777 9.48644 20.4504 8.69638 19.8679 8.11387C19.2854 7.53135 18.4954 7.2041 17.6716 7.2041C16.8478 7.2041 16.0577 7.53135 15.4752 8.11387C14.8927 8.69638 14.5654 9.48644 14.5654 10.3102C14.5693 10.6447 14.6285 10.9764 14.7394 11.2927C14.9437 10.6761 15.3368 10.1393 15.863 9.75831C16.3892 9.37736 17.0219 9.17157 17.6716 9.17004Z" fill="white"/>
<path d="M12.3467 20.14C12.3654 18.7396 12.9349 17.4029 13.9318 16.4192C14.9288 15.4356 16.2729 14.8841 17.6735 14.8841C19.074 14.8841 20.4182 15.4356 21.4151 16.4192C22.412 17.4029 22.9815 18.7396 23.0002 20.14H12.3467Z" fill="#E3E3E3"/>
<path d="M17.673 16.5092C18.7885 16.5097 19.8757 16.8605 20.7811 17.5122C21.6866 18.1638 22.3645 19.0833 22.7192 20.1409H23.0002C22.9815 18.7405 22.412 17.4039 21.4151 16.4202C20.4182 15.4366 19.074 14.885 17.6735 14.885C16.2729 14.885 14.9288 15.4366 13.9318 16.4202C12.9349 17.4039 12.3654 18.7405 12.3467 20.1409H12.6277C12.9821 19.0833 13.6598 18.1638 14.5651 17.5121C15.4704 16.8604 16.5575 16.5096 17.673 16.5092Z" fill="white"/>
<path d="M7.69175 11.9828C8.76902 11.9828 9.80217 11.5548 10.5639 10.7931C11.3257 10.0314 11.7536 8.9982 11.7536 7.92093C11.7536 6.84366 11.3257 5.81051 10.5639 5.04876C9.80217 4.28701 8.76902 3.85907 7.69175 3.85907C6.61447 3.85907 5.58132 4.28701 4.81957 5.04876C4.05783 5.81051 3.62988 6.84366 3.62988 7.92093C3.62988 8.9982 4.05783 10.0314 4.81957 10.7931C5.58132 11.5548 6.61447 11.9828 7.69175 11.9828Z" fill="#FFDDA1"/>
<path d="M7.69175 6.42999C8.54196 6.43222 9.3699 6.70207 10.0581 7.20127C10.7464 7.70047 11.26 8.40368 11.5261 9.21117C11.6724 8.79638 11.7488 8.36057 11.7536 7.92093C11.7536 6.84366 11.3257 5.81051 10.5639 5.04876C9.80217 4.28701 8.76902 3.85907 7.69175 3.85907C6.61447 3.85907 5.58132 4.28701 4.81957 5.04876C4.05783 5.81051 3.62988 6.84366 3.62988 7.92093C3.63453 8.36057 3.71138 8.79645 3.85735 9.21117C4.12349 8.40368 4.6371 7.70047 5.32535 7.20127C6.01359 6.70207 6.84153 6.43222 7.69175 6.42999Z" fill="#FFDDA1"/>
<path d="M1 20.1065C1 18.3322 1.70485 16.6305 2.95949 15.3759C4.21413 14.1212 5.9158 13.4164 7.69013 13.4164C9.46446 13.4164 11.1661 14.1212 12.4208 15.3759C13.6754 16.6305 14.3803 18.3322 14.3803 20.1065H1Z" fill="#66E1FF"/>
<path d="M7.69013 15.5467C9.09086 15.5476 10.456 15.9882 11.593 16.8063C12.73 17.6244 13.5816 18.7787 14.0276 20.1065H14.3803C14.3803 18.3322 13.6754 16.6305 12.4208 15.3759C11.1661 14.1212 9.46446 13.4164 7.69013 13.4164C5.9158 13.4164 4.21413 14.1212 2.95949 15.3759C1.70485 16.6305 1 18.3322 1 20.1065H1.35267C1.7987 18.7787 2.65026 17.6244 3.78727 16.8063C4.92428 15.9882 6.28939 15.5476 7.69013 15.5467Z" fill="#C2F3FF"/>
<path d="M7.72397 12.0162C8.80125 12.0162 9.8344 11.5883 10.5961 10.8266C11.3579 10.0648 11.7858 9.03165 11.7858 7.95438C11.7858 6.87711 11.3579 5.84396 10.5961 5.08221C9.8344 4.32046 8.80125 3.89252 7.72397 3.89252C6.6467 3.89252 5.61355 4.32046 4.8518 5.08221C4.09005 5.84396 3.66211 6.87711 3.66211 7.95438C3.66211 9.03165 4.09005 10.0648 4.8518 10.8266C5.61355 11.5883 6.6467 12.0162 7.72397 12.0162Z" stroke="#191919" stroke-linecap="round" stroke-linejoin="round"/>
<path d="M1.03418 20.14C1.03418 18.3656 1.73903 16.664 2.99367 15.4093C4.24831 14.1547 5.94998 13.4498 7.72431 13.4498C9.49864 13.4498 11.2003 14.1547 12.4549 15.4093C13.7096 16.664 14.4144 18.3656 14.4144 20.14H1.03418Z" stroke="#191919" stroke-linecap="round" stroke-linejoin="round"/>
<path d="M16.2921 20.1065H22.9822C22.9822 19.2044 22.75 18.3175 22.308 17.5311C21.866 16.7447 21.229 16.0852 20.4584 15.6163C19.6878 15.1473 18.8094 14.8845 17.9078 14.8533C17.0063 14.822 16.1118 15.0233 15.3105 15.4378" stroke="#191919" stroke-linecap="round" stroke-linejoin="round"/>
<path d="M17.6716 13.4164C18.0795 13.4164 18.4834 13.336 18.8602 13.1799C19.2371 13.0238 19.5795 12.795 19.8679 12.5066C20.1564 12.2182 20.3852 11.8757 20.5413 11.4989C20.6973 11.122 20.7777 10.7181 20.7777 10.3102C20.7777 9.90233 20.6973 9.49842 20.5413 9.12157C20.3852 8.74471 20.1564 8.4023 19.8679 8.11387C19.5795 7.82543 19.2371 7.59664 18.8602 7.44054C18.4834 7.28444 18.0795 7.2041 17.6716 7.2041C16.8478 7.2041 16.0577 7.53135 15.4752 8.11387C14.8927 8.69638 14.5654 9.48644 14.5654 10.3102C14.5654 11.134 14.8927 11.9241 15.4752 12.5066C16.0577 13.0891 16.8478 13.4164 17.6716 13.4164Z" stroke="#191919" stroke-linecap="round" stroke-linejoin="round"/>
</g>
<defs>
<clipPath id="clip0_5303_3408">
<rect width="24" height="24" fill="white"/>
</clipPath>
</defs>
</svg>
