<svg width="24" height="24" viewBox="0 0 24 24" fill="none" xmlns="http://www.w3.org/2000/svg">
<g clip-path="url(#clip0_5303_3229)">
<path d="M18.2181 7.19451C18.2185 8.01362 18.0575 8.82479 17.7444 9.5817C17.4313 10.3386 16.9721 11.0264 16.3933 11.6059C15.8143 12.1853 15.1269 12.6451 14.3703 12.959C13.6137 13.2727 12.8027 13.4345 11.9835 13.4348C10.3212 13.4071 8.73715 12.7241 7.57598 11.5342C6.41482 10.3444 5.77055 8.74412 5.78339 7.08164C5.78403 5.49202 6.40725 3.96586 7.51952 2.83017C8.63178 1.69449 10.1446 1.03961 11.7339 1.00585C11.8238 1.00011 11.9127 1.00011 12.0007 1.00011C12.8167 0.995304 13.6254 1.15209 14.3804 1.4614C15.1353 1.77072 15.8216 2.22644 16.3997 2.8023C16.9777 3.37816 17.436 4.06275 17.7481 4.8166C18.0601 5.57044 18.2199 6.37861 18.2181 7.19451Z" fill="#C2F3FF"/>
<path d="M11.9835 9.97699C10.6243 9.96001 9.30763 9.50048 8.23302 8.66803C7.1584 7.83557 6.38439 6.67555 6.02823 5.36371C5.86569 5.92318 5.78325 6.50284 5.78336 7.08544C5.77154 8.74726 6.41625 10.3466 7.57731 11.5355C8.73837 12.7246 10.3218 13.4071 11.9835 13.4348C12.9507 13.4355 13.9048 13.2109 14.7702 12.7789C15.6356 12.3469 16.3885 11.7194 16.9694 10.946C17.5502 10.1727 17.9432 9.27471 18.1169 8.32323C18.2906 7.37174 18.2405 6.39288 17.9703 5.46414C17.5972 6.76405 16.8113 7.90731 15.7313 8.72138C14.6514 9.53545 13.3359 9.97616 11.9835 9.97699Z" fill="#66E1FF"/>
<path d="M18.2181 7.19451C18.2185 8.01362 18.0575 8.82479 17.7444 9.5817C17.4313 10.3386 16.9721 11.0264 16.3933 11.6059C15.8143 12.1853 15.1269 12.6451 14.3703 12.959C13.6137 13.2727 12.8027 13.4345 11.9835 13.4348C10.3212 13.4071 8.73715 12.7241 7.57598 11.5342C6.41482 10.3444 5.77055 8.74412 5.78339 7.08164C5.78403 5.49202 6.40725 3.96586 7.51952 2.83017C8.63178 1.69449 10.1446 1.03961 11.7339 1.00585C11.8238 1.00011 11.9127 1.00011 12.0007 1.00011C12.8167 0.995304 13.6254 1.15209 14.3804 1.4614C15.1353 1.77072 15.8216 2.22644 16.3997 2.8023C16.9777 3.37816 17.436 4.06275 17.7481 4.8166C18.0601 5.57044 18.2199 6.37861 18.2181 7.19451Z" stroke="#191919" stroke-linecap="round" stroke-linejoin="round"/>
<path d="M11.7322 1.00583C8.4877 4.52007 8.4877 9.10466 11.7322 13.43" stroke="#191919" stroke-linecap="round" stroke-linejoin="round"/>
<path d="M12.2725 1.00583C15.517 4.52007 15.517 9.1037 12.2725 13.4281" stroke="#191919" stroke-linecap="round" stroke-linejoin="round"/>
<path d="M6.80859 10.5652H17.2289" stroke="#191919" stroke-linecap="round" stroke-linejoin="round"/>
<path d="M6.69336 3.86966H17.2562" stroke="#191919" stroke-linecap="round" stroke-linejoin="round"/>
<path d="M5.7832 7.21744H18.2179" stroke="#191919" stroke-linecap="round" stroke-linejoin="round"/>
<path d="M12.0818 20.3217C13.3233 20.3217 14.3296 19.3154 14.3296 18.0739C14.3296 16.8324 13.3233 15.8261 12.0818 15.8261C10.8403 15.8261 9.83398 16.8324 9.83398 18.0739C9.83398 19.3154 10.8403 20.3217 12.0818 20.3217Z" fill="#FFDDA1" stroke="#191919" stroke-linecap="round" stroke-linejoin="round"/>
<path d="M5.01149 20.3217C6.25292 20.3217 7.2593 19.3154 7.2593 18.0739C7.2593 16.8324 6.25292 15.8261 5.01149 15.8261C3.77005 15.8261 2.76367 16.8324 2.76367 18.0739C2.76367 19.3154 3.77005 20.3217 5.01149 20.3217Z" fill="#FFDDA1" stroke="#191919" stroke-linecap="round" stroke-linejoin="round"/>
<path d="M18.9949 20.3217C20.2363 20.3217 21.2427 19.3154 21.2427 18.0739C21.2427 16.8324 20.2363 15.8261 18.9949 15.8261C17.7534 15.8261 16.7471 16.8324 16.7471 18.0739C16.7471 19.3154 17.7534 20.3217 18.9949 20.3217Z" fill="#FFDDA1" stroke="#191919" stroke-linecap="round" stroke-linejoin="round"/>
<path d="M1.47852 23C1.89835 22.4792 2.42951 22.059 3.03301 21.7703C3.6365 21.4816 4.29699 21.3317 4.96598 21.3317C5.63497 21.3317 6.29545 21.4816 6.89895 21.7703C7.50244 22.059 8.0336 22.4792 8.45344 23C8.88618 22.4792 9.4283 22.0601 10.0413 21.7725C10.6543 21.4848 11.3231 21.3356 12.0002 21.3356C12.6773 21.3356 13.3461 21.4848 13.9592 21.7725C14.5721 22.0601 15.1142 22.4792 15.547 23C15.9668 22.4792 16.4979 22.059 17.1015 21.7703C17.705 21.4816 18.3654 21.3317 19.0344 21.3317C19.7034 21.3317 20.3639 21.4816 20.9674 21.7703C21.5709 22.059 22.1021 22.4792 22.5219 23" fill="#66E1FF"/>
<path d="M1.47852 23C1.89835 22.4792 2.42951 22.059 3.03301 21.7703C3.6365 21.4816 4.29699 21.3317 4.96598 21.3317C5.63497 21.3317 6.29545 21.4816 6.89895 21.7703C7.50244 22.059 8.0336 22.4792 8.45344 23C8.88618 22.4792 9.4283 22.0601 10.0413 21.7725C10.6543 21.4848 11.3231 21.3356 12.0002 21.3356C12.6773 21.3356 13.3461 21.4848 13.9592 21.7725C14.5721 22.0601 15.1142 22.4792 15.547 23C15.9668 22.4792 16.4979 22.059 17.1015 21.7703C17.705 21.4816 18.3654 21.3317 19.0344 21.3317C19.7034 21.3317 20.3639 21.4816 20.9674 21.7703C21.5709 22.059 22.1021 22.4792 22.5219 23" stroke="#191919" stroke-linecap="round" stroke-linejoin="round"/>
</g>
<defs>
<clipPath id="clip0_5303_3229">
<rect width="24" height="24" fill="white"/>
</clipPath>
</defs>
</svg>
