<svg width="24" height="24" viewBox="0 0 24 24" fill="none" xmlns="http://www.w3.org/2000/svg">
<g clip-path="url(#clip0_5303_3210)">
<path d="M19.6518 11.0435C20.3495 11.0435 21.0185 10.7664 21.5118 10.2731C22.0051 9.77977 22.2822 9.11072 22.2822 8.41311C22.2822 7.71549 22.0051 7.04645 21.5118 6.55316C21.0185 6.05987 20.3495 5.78275 19.6518 5.78275C18.9542 5.78275 18.2852 6.05987 17.7919 6.55316C17.2986 7.04645 17.0215 7.71549 17.0215 8.41311C17.0215 9.11072 17.2986 9.77977 17.7919 10.2731C18.2852 10.7664 18.9542 11.0435 19.6518 11.0435Z" fill="#E3E3E3"/>
<path d="M23.0002 15.3477C23.0002 14.4599 22.6475 13.6084 22.0196 12.9805C21.3918 12.3527 20.5403 12 19.6524 12C18.7645 12 17.913 12.3527 17.2852 12.9805C16.6574 13.6084 16.3047 14.4599 16.3047 15.3477V18.2172H17.8188L18.2177 22.9997H21.0872L21.486 18.2172H23.0002V15.3477Z" fill="#E3E3E3"/>
<path d="M19.6517 7.9215C20.1596 7.92209 20.6565 8.06984 21.0822 8.34687C21.508 8.6239 21.8443 9.01835 22.0506 9.4825C22.3257 8.87732 22.3614 8.19039 22.1504 7.55997C21.9395 6.92954 21.4975 6.40242 20.9136 6.08469C20.3297 5.76696 19.6471 5.68221 19.0031 5.84749C18.3592 6.01278 17.8018 6.41583 17.4431 6.97553C17.2046 7.34429 17.0623 7.7669 17.029 8.2048C16.9958 8.6427 17.0727 9.08196 17.2528 9.4825C17.4591 9.01835 17.7954 8.6239 18.2211 8.34687C18.6469 8.06984 19.1437 7.92209 19.6517 7.9215Z" fill="white"/>
<path d="M19.6524 12C18.7645 12 17.913 12.3527 17.2852 12.9805C16.6574 13.6084 16.3047 14.4599 16.3047 15.3477V17.4865C16.3047 16.5986 16.6574 15.7471 17.2852 15.1193C17.913 14.4914 18.7645 14.1387 19.6524 14.1387C20.5403 14.1387 21.3918 14.4914 22.0196 15.1193C22.6475 15.7471 23.0002 16.5986 23.0002 17.4865V15.3477C23.0002 14.4599 22.6475 13.6084 22.0196 12.9805C21.3918 12.3527 20.5403 12 19.6524 12Z" fill="white"/>
<path d="M19.6518 11.0435C20.3495 11.0435 21.0185 10.7664 21.5118 10.2731C22.0051 9.77977 22.2822 9.11072 22.2822 8.41311C22.2822 7.71549 22.0051 7.04645 21.5118 6.55316C21.0185 6.05987 20.3495 5.78275 19.6518 5.78275C18.9542 5.78275 18.2852 6.05987 17.7919 6.55316C17.2986 7.04645 17.0215 7.71549 17.0215 8.41311C17.0215 9.11072 17.2986 9.77977 17.7919 10.2731C18.2852 10.7664 18.9542 11.0435 19.6518 11.0435Z" stroke="#191919" stroke-linecap="round" stroke-linejoin="round"/>
<path d="M23.0002 15.3477C23.0002 14.4599 22.6475 13.6084 22.0196 12.9805C21.3918 12.3527 20.5403 12 19.6524 12C18.7645 12 17.913 12.3527 17.2852 12.9805C16.6574 13.6084 16.3047 14.4599 16.3047 15.3477V18.2172H17.8188L18.2177 22.9997H21.0872L21.486 18.2172H23.0002V15.3477Z" stroke="#191919" stroke-linecap="round" stroke-linejoin="round"/>
<path d="M12.0008 5.30454C12.5715 5.30454 13.1189 5.0778 13.5225 4.6742C13.9261 4.2706 14.1529 3.7232 14.1529 3.15242C14.1529 2.58165 13.9261 2.03425 13.5225 1.63065C13.1189 1.22705 12.5715 1.00031 12.0008 1.00031C11.43 1.00031 10.8826 1.22705 10.479 1.63065C10.0754 2.03425 9.84863 2.58165 9.84863 3.15242C9.84863 3.7232 10.0754 4.2706 10.479 4.6742C10.8826 5.0778 11.43 5.30454 12.0008 5.30454Z" fill="#E3E3E3"/>
<path d="M12.0003 6.26102C11.2393 6.26102 10.5094 6.56334 9.97131 7.10147C9.43318 7.6396 9.13086 8.36947 9.13086 9.13051V11.5217H10.5656L11.0439 15.826H12.9568L13.4351 11.5217H14.8698V9.13051C14.8698 8.36947 14.5675 7.6396 14.0294 7.10147C13.4913 6.56334 12.7614 6.26102 12.0003 6.26102Z" fill="#E3E3E3"/>
<path d="M12.0008 3.13903C12.3782 3.14001 12.7486 3.24065 13.0746 3.43078C13.4006 3.62091 13.6706 3.89377 13.8573 4.22179C14.0486 3.89753 14.151 3.52833 14.1529 3.15242C14.1529 2.58165 13.9261 2.03425 13.5225 1.63065C13.1189 1.22705 12.5715 1.00031 12.0008 1.00031C11.43 1.00031 10.8826 1.22705 10.479 1.63065C10.0754 2.03425 9.84863 2.58165 9.84863 3.15242C9.85055 3.52833 9.95289 3.89849 10.1442 4.22179C10.3309 3.89377 10.6009 3.62091 10.9269 3.43078C11.2529 3.24065 11.6233 3.14001 12.0008 3.13903Z" fill="white"/>
<path d="M12.0003 6.26102C11.2393 6.26102 10.5094 6.56334 9.97131 7.10147C9.43318 7.6396 9.13086 8.36947 9.13086 9.13051V11.2692C9.13086 10.5082 9.43318 9.77833 9.97131 9.2402C10.5094 8.70206 11.2393 8.39974 12.0003 8.39974C12.7614 8.39974 13.4913 8.70206 14.0294 9.2402C14.5675 9.77833 14.8698 10.5082 14.8698 11.2692V9.13051C14.8698 8.36947 14.5675 7.6396 14.0294 7.10147C13.4913 6.56334 12.7614 6.26102 12.0003 6.26102Z" fill="white"/>
<path d="M12.0008 5.30454C12.5715 5.30454 13.1189 5.0778 13.5225 4.6742C13.9261 4.2706 14.1529 3.7232 14.1529 3.15242C14.1529 2.58165 13.9261 2.03425 13.5225 1.63065C13.1189 1.22705 12.5715 1.00031 12.0008 1.00031C11.43 1.00031 10.8826 1.22705 10.479 1.63065C10.0754 2.03425 9.84863 2.58165 9.84863 3.15242C9.84863 3.7232 10.0754 4.2706 10.479 4.6742C10.8826 5.0778 11.43 5.30454 12.0008 5.30454Z" stroke="#191919" stroke-linecap="round" stroke-linejoin="round"/>
<path d="M12.0003 6.26102C11.2393 6.26102 10.5094 6.56334 9.97131 7.10147C9.43318 7.6396 9.13086 8.36947 9.13086 9.13051V11.5217H10.5656L11.0439 15.826H12.9568L13.4351 11.5217H14.8698V9.13051C14.8698 8.36947 14.5675 7.6396 14.0294 7.10147C13.4913 6.56334 12.7614 6.26102 12.0003 6.26102Z" stroke="#191919" stroke-linecap="round" stroke-linejoin="round"/>
<path d="M4.34814 11.0435C5.04576 11.0435 5.7148 10.7664 6.20809 10.2731C6.70138 9.77977 6.97851 9.11072 6.97851 8.41311C6.97851 7.71549 6.70138 7.04645 6.20809 6.55316C5.7148 6.05987 5.04576 5.78275 4.34814 5.78275C3.65052 5.78275 2.98148 6.05987 2.48819 6.55316C1.9949 7.04645 1.71777 7.71549 1.71777 8.41311C1.71777 9.11072 1.9949 9.77977 2.48819 10.2731C2.98148 10.7664 3.65052 11.0435 4.34814 11.0435Z" fill="#E3E3E3"/>
<path d="M7.69548 15.3477C7.69548 14.4599 7.34277 13.6084 6.71495 12.9805C6.08712 12.3527 5.23561 12 4.34774 12C3.45986 12 2.60835 12.3527 1.98053 12.9805C1.35271 13.6084 1 14.4599 1 15.3477V18.2172H2.51413L2.91299 22.9997H5.78248L6.18134 18.2172H7.69548V15.3477Z" fill="#E3E3E3"/>
<path d="M4.34814 7.9215C4.85607 7.92209 5.35295 8.06984 5.77868 8.34687C6.20441 8.6239 6.54076 9.01835 6.74703 9.48251C6.90646 9.1248 6.98393 8.73599 6.9738 8.3445C6.96367 7.953 6.86618 7.56872 6.68846 7.21974C6.51075 6.87076 6.25729 6.5659 5.94663 6.32745C5.63597 6.089 5.27595 5.92298 4.89289 5.84153C4.50983 5.76008 4.11341 5.76526 3.7326 5.85669C3.3518 5.94811 2.99624 6.12348 2.69191 6.36996C2.38758 6.61644 2.14218 6.92782 1.97364 7.28132C1.8051 7.63482 1.71768 8.02152 1.71777 8.41314C1.71777 8.78235 1.79716 9.14678 1.94925 9.48251C2.15552 9.01835 2.49187 8.6239 2.9176 8.34687C3.34333 8.06984 3.84021 7.92209 4.34814 7.9215Z" fill="white"/>
<path d="M4.34774 12C3.45986 12 2.60835 12.3527 1.98053 12.9805C1.35271 13.6084 1 14.4599 1 15.3477V17.4865C1 17.0468 1.08659 16.6115 1.25483 16.2053C1.42307 15.7992 1.66966 15.4301 1.98053 15.1193C2.2914 14.8084 2.66045 14.5618 3.06661 14.3936C3.47278 14.2253 3.90811 14.1387 4.34774 14.1387C4.78737 14.1387 5.2227 14.2253 5.62886 14.3936C6.03503 14.5618 6.40408 14.8084 6.71495 15.1193C7.02581 15.4301 7.27241 15.7992 7.44065 16.2053C7.60889 16.6115 7.69548 17.0468 7.69548 17.4865V15.3477C7.69548 14.4599 7.34277 13.6084 6.71495 12.9805C6.08712 12.3527 5.23561 12 4.34774 12Z" fill="white"/>
<path d="M4.34814 11.0435C5.04576 11.0435 5.7148 10.7664 6.20809 10.2731C6.70138 9.77977 6.97851 9.11072 6.97851 8.41311C6.97851 7.71549 6.70138 7.04645 6.20809 6.55316C5.7148 6.05987 5.04576 5.78275 4.34814 5.78275C3.65052 5.78275 2.98148 6.05987 2.48819 6.55316C1.9949 7.04645 1.71777 7.71549 1.71777 8.41311C1.71777 9.11072 1.9949 9.77977 2.48819 10.2731C2.98148 10.7664 3.65052 11.0435 4.34814 11.0435Z" stroke="#191919" stroke-linecap="round" stroke-linejoin="round"/>
<path d="M7.69548 15.3477C7.69548 14.4599 7.34277 13.6084 6.71495 12.9805C6.08712 12.3527 5.23561 12 4.34774 12C3.45986 12 2.60835 12.3527 1.98053 12.9805C1.35271 13.6084 1 14.4599 1 15.3477V18.2172H2.51413L2.91299 22.9997H5.78248L6.18134 18.2172H7.69548V15.3477Z" stroke="#191919" stroke-linecap="round" stroke-linejoin="round"/>
</g>
<defs>
<clipPath id="clip0_5303_3210">
<rect width="24" height="24" fill="white"/>
</clipPath>
</defs>
</svg>
