<svg width="24" height="24" viewBox="0 0 24 24" fill="none" xmlns="http://www.w3.org/2000/svg">
<g clip-path="url(#clip0_5303_13108)">
<path d="M12.7934 19.6999C12.7659 20.5664 12.4094 21.3899 11.7964 22.0029C11.1833 22.6159 10.3599 22.9724 9.49338 23C8.61816 23 7.77879 22.6523 7.15991 22.0334C6.54104 21.4145 6.19336 20.5751 6.19336 19.6999C6.19336 18.8247 6.54104 17.9853 7.15991 17.3665C7.77879 16.7476 8.61816 16.3999 9.49338 16.3999H12.7934V19.6999Z" fill="#D480FF"/>
<path d="M9.49338 16.3999C8.61816 16.3999 7.77879 16.7476 7.15991 17.3665C6.54104 17.9853 6.19336 18.8247 6.19336 19.6999C6.19336 20.1751 6.29896 20.6448 6.50026 21.0749C6.76297 20.5018 7.18439 20.0158 7.71464 19.6747C8.24489 19.3335 8.86177 19.1514 9.49228 19.1499H12.7923V16.3999H9.49338Z" fill="#EABFFF"/>
<path d="M12.7934 19.6999C12.7659 20.5664 12.4094 21.3899 11.7964 22.0029C11.1833 22.6159 10.3599 22.9724 9.49338 23C8.61816 23 7.77879 22.6523 7.15991 22.0334C6.54104 21.4145 6.19336 20.5751 6.19336 19.6999C6.19336 18.8247 6.54104 17.9853 7.15991 17.3665C7.77879 16.7476 8.61816 16.3999 9.49338 16.3999H12.7934V19.6999Z" stroke="#191919" stroke-linecap="round" stroke-linejoin="round"/>
<path d="M12.7929 16.4001V1C12.7404 1.64829 12.8664 2.29857 13.1573 2.88031C13.4482 3.46205 13.8928 3.95304 14.4429 4.30002C19.7229 7.82005 17.5317 12.4159 16.2172 15.8501" stroke="#191919" stroke-linecap="round" stroke-linejoin="round"/>
</g>
<defs>
<clipPath id="clip0_5303_13108">
<rect width="24" height="24" fill="white"/>
</clipPath>
</defs>
</svg>
