<svg width="24" height="24" viewBox="0 0 24 24" fill="none" xmlns="http://www.w3.org/2000/svg">
<path d="M8.31044 14.1469C8.32498 14.0201 8.38583 13.9032 8.48132 13.8187C8.5768 13.7341 8.70018 13.6877 8.82774 13.6885H15.1388C15.2581 13.6885 15.3737 13.7297 15.4661 13.8051C15.5585 13.8806 15.6219 13.9856 15.6458 14.1024C16.2986 17.349 20.2632 20.5294 22.4359 22.0575C22.5258 22.1207 22.5933 22.211 22.6284 22.3152C22.6636 22.4194 22.6647 22.532 22.6314 22.6369C22.5982 22.7417 22.5325 22.8332 22.4438 22.8981C22.355 22.9631 22.2479 22.998 22.1379 22.9979H1.86071C1.74964 22.998 1.64147 22.9624 1.5522 22.8963C1.46294 22.8302 1.39732 22.7371 1.36507 22.6309C1.33281 22.5246 1.33562 22.4107 1.37308 22.3062C1.41054 22.2016 1.48068 22.1119 1.57309 22.0502C3.85646 20.5283 7.94522 17.3748 8.31044 14.1469Z" fill="#E3BFB3"/>
<path d="M18.5896 18.847C16.4334 19.3768 14.2206 19.6422 12.0002 19.6374C9.81922 19.6414 7.64558 19.3844 5.52566 18.8718C4.3125 20.0545 2.98986 21.1194 1.57553 22.0522C1.48327 22.1138 1.41321 22.2033 1.3757 22.3076C1.33819 22.412 1.33521 22.5256 1.36721 22.6319C1.3992 22.738 1.46448 22.8312 1.5534 22.8974C1.64232 22.9637 1.75018 22.9996 1.86108 22.9999H22.1394C22.2493 23 22.3564 22.965 22.4452 22.9001C22.5339 22.8352 22.5996 22.7436 22.6329 22.6388C22.6661 22.534 22.665 22.4213 22.6299 22.3172C22.5947 22.213 22.5272 22.1227 22.4373 22.0594C21.0632 21.1033 19.7757 20.0284 18.5896 18.847Z" fill="#C77F67"/>
<path d="M10.3621 1.27328C10.7349 2.44413 10.924 3.66565 10.9229 4.8944C10.9229 4.8944 8.33639 3.08384 6.2796 3.88152C7.23137 4.48972 8.01462 5.32784 8.55707 6.31855C9.09954 7.30925 9.38372 8.42063 9.38341 9.55013C5.19843 9.33389 3.75309 10.3137 3.17578 11.6721C3.51294 11.328 3.91537 11.0546 4.3595 10.868C4.80364 10.6814 5.28054 10.5852 5.76229 10.5852C6.24405 10.5852 6.72096 10.6814 7.16509 10.868C7.60922 11.0546 8.01165 11.328 8.34881 11.6721V13.6885H15.5786V11.6721C15.9158 11.328 16.3182 11.0546 16.7623 10.868C17.2065 10.6814 17.6834 10.5852 18.1651 10.5852C18.6469 10.5852 19.1238 10.6814 19.568 10.868C20.0121 11.0546 20.4145 11.328 20.7517 11.6721C20.1743 10.3137 18.73 9.33389 14.544 9.55013C14.5437 8.42063 14.8279 7.30925 15.3704 6.31855C15.9128 5.32784 16.6961 4.48972 17.6478 3.88152C15.591 3.08384 13.0045 4.8944 13.0045 4.8944C12.9301 3.66114 13.1213 2.42628 13.5653 1.27328C12.5286 0.908906 11.3988 0.908906 10.3621 1.27328Z" fill="#FF808C"/>
<path d="M8.31044 14.1469C8.32498 14.0201 8.38583 13.9032 8.48132 13.8187C8.5768 13.7341 8.70018 13.6877 8.82774 13.6885H15.1388C15.2581 13.6885 15.3737 13.7297 15.4661 13.8051C15.5585 13.8806 15.6219 13.9856 15.6458 14.1024C16.2986 17.349 20.2632 20.5294 22.4359 22.0575C22.5258 22.1207 22.5933 22.211 22.6284 22.3152C22.6636 22.4194 22.6647 22.532 22.6314 22.6369C22.5982 22.7417 22.5325 22.8332 22.4438 22.8981C22.355 22.9631 22.2479 22.998 22.1379 22.9979H1.86071C1.74964 22.998 1.64147 22.9624 1.5522 22.8963C1.46294 22.8302 1.39732 22.7371 1.36507 22.6309C1.33281 22.5246 1.33562 22.4107 1.37308 22.3062C1.41054 22.2016 1.48068 22.1119 1.57309 22.0502C3.85646 20.5283 7.94522 17.3748 8.31044 14.1469Z" stroke="#191919" stroke-linecap="round" stroke-linejoin="round"/>
<path d="M14.5444 9.55007C14.5441 8.42057 14.8283 7.30919 15.3708 6.31848C15.9132 5.32777 16.6965 4.48965 17.6483 3.88147" stroke="#191919" stroke-linecap="round" stroke-linejoin="round"/>
<path d="M9.37139 9.55007C9.3717 8.42057 9.08752 7.30919 8.54506 6.31848C8.0026 5.32777 7.21935 4.48965 6.26758 3.88147" stroke="#191919" stroke-linecap="round" stroke-linejoin="round"/>
<path d="M15.5791 11.6721C15.9163 11.328 16.3186 11.0546 16.7628 10.868C17.207 10.6814 17.6839 10.5852 18.1656 10.5852C18.6473 10.5852 19.1243 10.6814 19.5684 10.868C20.0126 11.0546 20.415 11.328 20.7521 11.6721" stroke="#191919" stroke-linecap="round" stroke-linejoin="round"/>
<path d="M8.33709 11.6721C7.99993 11.328 7.5975 11.0546 7.15337 10.868C6.70923 10.6814 6.23233 10.5852 5.75058 10.5852C5.26882 10.5852 4.79191 10.6814 4.34779 10.868C3.90365 11.0546 3.50122 11.328 3.16406 11.6721" stroke="#191919" stroke-linecap="round" stroke-linejoin="round"/>
<path d="M10.3623 1.27332C10.7351 2.44416 10.9242 3.66569 10.9231 4.89444" stroke="#191919" stroke-linecap="round" stroke-linejoin="round"/>
<path d="M13.5095 1.27332C13.1367 2.44416 12.9476 3.66569 12.9487 4.89444" stroke="#191919" stroke-linecap="round" stroke-linejoin="round"/>
<path d="M11.9575 13.6885L10.8763 15.4919C10.8294 15.5703 10.804 15.6598 10.8028 15.7512C10.8016 15.8427 10.8247 15.9328 10.8697 16.0124C10.9147 16.0919 10.9801 16.1582 11.059 16.2044C11.138 16.2505 11.2277 16.2748 11.3191 16.2751H12.5048C12.5999 16.2749 12.6932 16.3011 12.7744 16.3507C12.8556 16.4001 12.9216 16.4711 12.9652 16.5556C13.0088 16.6403 13.0281 16.7352 13.0212 16.8301C13.0142 16.925 12.9812 17.016 12.9259 17.0934L10.9229 19.8962" stroke="#191919" stroke-linecap="round" stroke-linejoin="round"/>
</svg>
