<svg width="24" height="24" viewBox="0 0 24 24" fill="none" xmlns="http://www.w3.org/2000/svg">
<g clip-path="url(#clip0_5303_11030)">
<path d="M22.9998 12.9565C22.9998 12.9565 20.1303 16.3043 17.2608 16.3043C13.8174 16.3043 12.2009 14.6878 9.67574 13.8843C10.7717 13.7578 11.7773 13.2153 12.4848 12.3688C13.1924 11.5223 13.5477 10.4365 13.4778 9.33541C13.408 8.23446 12.9178 7.20231 12.1088 6.45214C11.2998 5.70207 10.2336 5.29116 9.13054 5.30444C8.81206 5.30531 8.49456 5.34055 8.1836 5.40965C8.03183 5.44391 7.87322 5.42898 7.73043 5.3671C7.58774 5.30522 7.46837 5.19961 7.3896 5.0655C7.31084 4.9314 7.27678 4.77572 7.2922 4.62093C7.30772 4.46613 7.37204 4.32031 7.47579 4.20446C8.10298 3.49703 8.87326 2.93084 9.73567 2.54336C10.598 2.15588 11.5329 1.95589 12.4783 1.95667C14.5077 1.95667 16.4541 2.76287 17.8892 4.19792C19.3241 5.63297 20.1303 7.57925 20.1303 9.6087C20.0838 10.4293 20.3565 11.2362 20.8913 11.8601C21.4262 12.4842 22.1817 12.8771 22.9998 12.9565Z" fill="#66E1FF"/>
<path d="M20.1302 9.6087C20.1302 7.57925 19.324 5.63297 17.8889 4.19792C16.454 2.76287 14.5076 1.95667 12.4781 1.95667C11.5328 1.95589 10.5978 2.15588 9.73551 2.54336C8.87309 2.93084 8.10281 3.49703 7.47562 4.20446C7.42897 4.25863 7.39032 4.31914 7.36084 4.38424C8.27264 3.93673 9.27482 3.70376 10.2906 3.70327C11.2955 3.70327 12.2905 3.90121 13.2189 4.28576C14.1473 4.67031 14.9909 5.23397 15.7014 5.94451C16.4119 6.65506 16.9757 7.49864 17.3601 8.42693C17.7448 9.35533 17.9426 10.3504 17.9426 11.3553C17.9426 15.4042 20.2382 15.3037 20.2382 15.3037C21.2605 14.6496 22.1894 13.86 22.9997 12.9565C22.1816 12.8771 21.426 12.4842 20.8912 11.8601C20.3563 11.2362 20.0836 10.4293 20.1302 9.6087Z" fill="#C2F3FF"/>
<path d="M22.9996 12.9565C22.9996 12.9565 20.1301 16.3043 17.2606 16.3043C12.6693 16.3043 11.3302 13.4347 6.73902 13.4347C3.86951 13.4347 1 15.826 1 15.826V21.0868C1 21.3404 1.10082 21.5838 1.28012 21.7632C1.45951 21.9425 1.70283 22.0433 1.9565 22.0433H22.0431C22.2967 22.0433 22.5401 21.9425 22.7195 21.7632C22.8989 21.5839 22.9996 21.3404 22.9996 21.0868V12.9565Z" fill="#66E1FF"/>
<path d="M17.2606 16.3043C12.6693 16.3043 11.3302 13.4347 6.73902 13.4347C3.86951 13.4347 1 15.826 1 15.826V19.1738C1 19.1738 3.86951 16.3043 6.73902 16.3043C11.3302 16.3043 12.6693 19.1738 17.2606 19.1738C20.1301 19.1738 22.9996 16.3043 22.9996 16.3043V12.9565C22.9996 12.9565 20.1301 16.3043 17.2606 16.3043Z" fill="#C2F3FF"/>
<path d="M22.9996 16.3043C22.9996 16.3043 20.1301 19.1738 17.2606 19.1738C12.6693 19.1738 11.3302 16.3043 6.73902 16.3043C3.86951 16.3043 1 19.1738 1 19.1738" stroke="#191919" stroke-linecap="round" stroke-linejoin="round"/>
<path d="M22.9998 12.9564C22.1817 12.877 21.4262 12.4841 20.8913 11.86C20.3564 11.2361 20.0837 10.4292 20.1303 9.60869C20.1303 7.57925 19.3241 5.63296 17.8891 4.19791C16.4541 2.76286 14.5077 1.95667 12.4783 1.95667C11.5328 1.95559 10.5978 2.15529 9.73515 2.54267C8.87264 2.92996 8.10217 3.49605 7.47478 4.20347C7.37152 4.31962 7.30778 4.46544 7.29256 4.62004C7.27743 4.77474 7.31169 4.93022 7.39045 5.06413C7.46922 5.19804 7.58849 5.30355 7.73099 5.36543C7.87349 5.42741 8.03189 5.44253 8.18357 5.40867C8.49443 5.33937 8.81203 5.30443 9.13051 5.30443C9.94617 5.30443 10.745 5.53623 11.4341 5.97271C12.1232 6.40929 12.6741 7.03267 13.0224 7.77016C13.3708 8.50774 13.5026 9.32906 13.4022 10.1384C13.3017 10.9479 12.9734 11.7123 12.4553 12.3424" stroke="#191919" stroke-linecap="round" stroke-linejoin="round"/>
<path d="M22.9996 12.9565C22.9996 12.9565 20.1301 16.3043 17.2606 16.3043C12.6693 16.3043 11.3302 13.4347 6.73902 13.4347C3.86951 13.4347 1 15.826 1 15.826" stroke="#191919" stroke-linecap="round" stroke-linejoin="round"/>
</g>
<defs>
<clipPath id="clip0_5303_11030">
<rect width="24" height="24" fill="white"/>
</clipPath>
</defs>
</svg>
