<svg width="24" height="24" viewBox="0 0 24 24" fill="none" xmlns="http://www.w3.org/2000/svg">
<g clip-path="url(#clip0_5303_11097)">
<path d="M22.9997 22.8149V10.9667H13.9243L12.5259 13.1217C12.4574 13.2271 12.4331 13.3553 12.4584 13.4784C12.4836 13.6016 12.5563 13.7098 12.6608 13.7798L15.2568 15.5149C15.3186 15.5561 15.3701 15.6113 15.4069 15.6759C15.4439 15.7405 15.4651 15.8129 15.4691 15.8871C15.4731 15.9615 15.4597 16.0357 15.43 16.1039C15.4002 16.1721 15.355 16.2324 15.2979 16.2801L13.5063 17.7866C13.4506 17.8334 13.4062 17.8925 13.3767 17.959C13.3472 18.0257 13.3333 18.0981 13.3361 18.1709C13.3389 18.2438 13.3582 18.315 13.3927 18.3791C13.4271 18.4433 13.4758 18.4988 13.535 18.5413L13.8488 18.766C13.9055 18.8068 13.9528 18.8594 13.9869 18.9203C14.0211 18.9812 14.0417 19.0489 14.047 19.1185C14.0522 19.1882 14.0422 19.2582 14.0175 19.3235C13.9929 19.3888 13.9542 19.448 13.9043 19.4968L10.8836 22.4467L11.3791 19.4748C11.3972 19.3683 11.3787 19.2587 11.3266 19.1641C11.2744 19.0695 11.1918 18.9952 11.0921 18.9535L9.94431 18.482C9.86825 18.4507 9.80152 18.4004 9.75059 18.3358C9.69965 18.2712 9.66623 18.1946 9.65353 18.1134C9.64084 18.0321 9.6493 17.949 9.67812 17.872C9.70694 17.795 9.75514 17.7267 9.81805 17.6737L11.4757 16.2801C11.5328 16.2324 11.578 16.1721 11.6078 16.1039C11.6375 16.0357 11.6509 15.9615 11.6469 15.8871C11.6429 15.8129 11.6216 15.7405 11.5847 15.6759C11.5479 15.6113 11.4964 15.5561 11.4346 15.5149L8.83476 13.7798C8.7303 13.7098 8.65758 13.6016 8.63234 13.4784C8.6071 13.3553 8.63137 13.2271 8.69989 13.1217L10.0983 10.9667H1V22.8149" fill="#C77F67"/>
<path d="M12.8158 13.8831H22.9998V10.9667H13.9244L12.526 13.1217C12.4575 13.2271 12.4332 13.3553 12.4585 13.4784C12.4837 13.6016 12.5564 13.7098 12.6609 13.7798L12.8158 13.8831Z" fill="#E3BFB3"/>
<path d="M8.98972 13.8831L8.83476 13.7798C8.7303 13.7098 8.65758 13.6016 8.63234 13.4784C8.6071 13.3553 8.63137 13.2271 8.69989 13.1217L10.0983 10.9667H1V13.8831H8.98972Z" fill="#E3BFB3"/>
<path d="M7.87919 7.42667C7.91094 7.49943 7.92409 7.57896 7.91744 7.65806C7.91078 7.73717 7.88453 7.81339 7.84107 7.87982C7.7976 7.94626 7.73828 8.00082 7.66846 8.0386C7.59863 8.07638 7.5205 8.09619 7.44111 8.09623H2.21092C2.13153 8.09619 2.0534 8.07638 1.98357 8.0386C1.91375 8.00082 1.85443 7.94626 1.81096 7.87982C1.7675 7.81339 1.74125 7.73717 1.73459 7.65806C1.72794 7.57896 1.74108 7.49943 1.77284 7.42667L4.38793 1.47145C4.42522 1.3863 4.48652 1.31387 4.56432 1.26301C4.64212 1.21215 4.73306 1.18506 4.82601 1.18506C4.91896 1.18506 5.00991 1.21215 5.08771 1.26301C5.16551 1.31387 5.22681 1.3863 5.26409 1.47145L7.87919 7.42667Z" fill="#C9F7CA"/>
<path d="M6.99729 5.41797C6.27808 5.52068 5.55252 5.57245 4.82601 5.57292C4.09951 5.57245 3.37395 5.52068 2.65474 5.41797L1.77284 7.42664C1.74108 7.4994 1.72794 7.57892 1.73459 7.65803C1.74125 7.73714 1.7675 7.81335 1.81096 7.87978C1.85443 7.94621 1.91375 8.00078 1.98357 8.03856C2.0534 8.07635 2.13153 8.09615 2.21092 8.09619H7.44111C7.5205 8.09615 7.59863 8.07635 7.66846 8.03856C7.73828 8.00078 7.7976 7.94621 7.84107 7.87978C7.88453 7.81335 7.91078 7.73714 7.91744 7.65803C7.92409 7.57892 7.91094 7.4994 7.87919 7.42664L6.99729 5.41797Z" fill="#78EB7B"/>
<path d="M22.9997 22.8149V10.9667H13.9243L12.5259 13.1217C12.4574 13.2271 12.4331 13.3553 12.4584 13.4784C12.4836 13.6016 12.5563 13.7098 12.6608 13.7798L15.2568 15.5149C15.3186 15.5561 15.3701 15.6113 15.4069 15.6759C15.4439 15.7405 15.4651 15.8129 15.4691 15.8871C15.4731 15.9615 15.4597 16.0357 15.43 16.1039C15.4002 16.1721 15.355 16.2324 15.2979 16.2801L13.5063 17.7866C13.4506 17.8334 13.4062 17.8925 13.3767 17.959C13.3472 18.0257 13.3333 18.0981 13.3361 18.1709C13.3389 18.2438 13.3582 18.315 13.3927 18.3791C13.4271 18.4433 13.4758 18.4988 13.535 18.5413L13.8488 18.766C13.9055 18.8068 13.9528 18.8594 13.9869 18.9203C14.0211 18.9812 14.0417 19.0489 14.047 19.1185C14.0522 19.1882 14.0422 19.2582 14.0175 19.3235C13.9929 19.3888 13.9542 19.448 13.9043 19.4968L10.8836 22.4467L11.3791 19.4748C11.3972 19.3683 11.3787 19.2587 11.3266 19.1641C11.2744 19.0695 11.1918 18.9952 11.0921 18.9535L9.94431 18.482C9.86825 18.4507 9.80152 18.4004 9.75059 18.3358C9.69965 18.2712 9.66623 18.1946 9.65353 18.1134C9.64084 18.0321 9.6493 17.949 9.67812 17.872C9.70694 17.795 9.75514 17.7267 9.81805 17.6737L11.4757 16.2801C11.5328 16.2324 11.578 16.1721 11.6078 16.1039C11.6375 16.0357 11.6509 15.9615 11.6469 15.8871C11.6429 15.8129 11.6216 15.7405 11.5847 15.6759C11.5479 15.6113 11.4964 15.5561 11.4346 15.5149L8.83476 13.7798C8.7303 13.7098 8.65758 13.6016 8.63234 13.4784C8.6071 13.3553 8.63137 13.2271 8.69989 13.1217L10.0983 10.9667H1V22.8149" stroke="#191919" stroke-linecap="round" stroke-linejoin="round"/>
<path d="M4.82617 10.9667V8.09717" stroke="#191919" stroke-linecap="round" stroke-linejoin="round"/>
<path d="M7.87919 7.42667C7.91094 7.49943 7.92409 7.57896 7.91744 7.65806C7.91078 7.73717 7.88453 7.81339 7.84107 7.87982C7.7976 7.94626 7.73828 8.00082 7.66846 8.0386C7.59863 8.07638 7.5205 8.09619 7.44111 8.09623H2.21092C2.13153 8.09619 2.0534 8.07638 1.98357 8.0386C1.91375 8.00082 1.85443 7.94626 1.81096 7.87982C1.7675 7.81339 1.74125 7.73717 1.73459 7.65806C1.72794 7.57896 1.74108 7.49943 1.77284 7.42667L4.38793 1.47145C4.42522 1.3863 4.48652 1.31387 4.56432 1.26301C4.64212 1.21215 4.73306 1.18506 4.82601 1.18506C4.91896 1.18506 5.00991 1.21215 5.08771 1.26301C5.16551 1.31387 5.22681 1.3863 5.26409 1.47145L7.87919 7.42667Z" stroke="#191919" stroke-linecap="round" stroke-linejoin="round"/>
<path d="M22.2268 7.42667C22.2586 7.49943 22.2717 7.57896 22.2651 7.65806C22.2584 7.73717 22.2322 7.81339 22.1887 7.87982C22.1453 7.94626 22.0859 8.00082 22.0161 8.0386C21.9463 8.07638 21.8681 8.09619 21.7888 8.09623H16.5586C16.4792 8.09619 16.401 8.07638 16.3312 8.0386C16.2614 8.00082 16.2021 7.94626 16.1587 7.87982C16.1151 7.81339 16.0889 7.73717 16.0822 7.65806C16.0756 7.57896 16.0887 7.49943 16.1205 7.42667L18.7356 1.47145C18.7729 1.3863 18.8342 1.31387 18.912 1.26301C18.9897 1.21215 19.0807 1.18506 19.1737 1.18506C19.2666 1.18506 19.3576 1.21215 19.4354 1.26301C19.5131 1.31387 19.5744 1.3863 19.6117 1.47145L22.2268 7.42667Z" fill="#C9F7CA"/>
<path d="M21.3449 5.41797C20.6257 5.52068 19.9001 5.57245 19.1737 5.57292C18.4472 5.57245 17.7216 5.52068 17.0024 5.41797L16.1205 7.42664C16.0887 7.4994 16.0756 7.57892 16.0822 7.65803C16.0889 7.73714 16.1151 7.81335 16.1587 7.87978C16.2021 7.94621 16.2614 8.00078 16.3312 8.03856C16.401 8.07635 16.4792 8.09615 16.5586 8.09619H21.7888C21.8681 8.09615 21.9463 8.07635 22.0161 8.03856C22.0859 8.00078 22.1453 7.94621 22.1887 7.87978C22.2322 7.81335 22.2584 7.73714 22.2651 7.65803C22.2717 7.57892 22.2586 7.4994 22.2268 7.42664L21.3449 5.41797Z" fill="#78EB7B"/>
<path d="M22.2268 7.42667C22.2586 7.49943 22.2717 7.57896 22.2651 7.65806C22.2584 7.73717 22.2322 7.81339 22.1887 7.87982C22.1453 7.94626 22.0859 8.00082 22.0161 8.0386C21.9463 8.07638 21.8681 8.09619 21.7888 8.09623H16.5586C16.4792 8.09619 16.401 8.07638 16.3312 8.0386C16.2614 8.00082 16.2021 7.94626 16.1587 7.87982C16.1151 7.81339 16.0889 7.73717 16.0822 7.65806C16.0756 7.57896 16.0887 7.49943 16.1205 7.42667L18.7356 1.47145C18.7729 1.3863 18.8342 1.31387 18.912 1.26301C18.9897 1.21215 19.0807 1.18506 19.1737 1.18506C19.2666 1.18506 19.3576 1.21215 19.4354 1.26301C19.5131 1.31387 19.5744 1.3863 19.6117 1.47145L22.2268 7.42667Z" stroke="#191919" stroke-linecap="round" stroke-linejoin="round"/>
<path d="M19.1738 10.9667V8.09717" stroke="#191919" stroke-linecap="round" stroke-linejoin="round"/>
</g>
<defs>
<clipPath id="clip0_5303_11097">
<rect width="24" height="24" fill="white"/>
</clipPath>
</defs>
</svg>
