<svg width="24" height="24" viewBox="0 0 24 24" fill="none" xmlns="http://www.w3.org/2000/svg">
<path d="M12.0002 22.5416C17.8222 22.5416 22.5418 17.822 22.5418 12C22.5418 6.17798 17.8222 1.45831 12.0002 1.45831C6.17817 1.45831 1.4585 6.17798 1.4585 12C1.4585 17.822 6.17817 22.5416 12.0002 22.5416Z" fill="#66E1FF"/>
<path d="M12.0002 22.5416C9.20434 22.5416 6.52302 21.431 4.54608 19.454C2.56913 17.4772 1.4585 14.7958 1.4585 12C1.4585 9.20416 2.56913 6.52284 4.54608 4.54589C6.52302 2.56895 9.20434 1.45831 12.0002 1.45831V22.5416Z" fill="#C2F3FF"/>
<path d="M12.0002 22.5416C17.8222 22.5416 22.5418 17.822 22.5418 12C22.5418 6.17798 17.8222 1.45831 12.0002 1.45831C6.17817 1.45831 1.4585 6.17798 1.4585 12C1.4585 17.822 6.17817 22.5416 12.0002 22.5416Z" stroke="#191919" stroke-linecap="round" stroke-linejoin="round"/>
<path d="M7.41683 13.1459C8.04966 13.1459 8.56266 12.6329 8.56266 12C8.56266 11.3672 8.04966 10.8542 7.41683 10.8542C6.784 10.8542 6.271 11.3672 6.271 12C6.271 12.6329 6.784 13.1459 7.41683 13.1459Z" fill="#E3E3E3" stroke="#191919" stroke-linecap="round" stroke-linejoin="round"/>
<path d="M11.9998 13.1459C12.6327 13.1459 13.1457 12.6329 13.1457 12C13.1457 11.3672 12.6327 10.8542 11.9998 10.8542C11.367 10.8542 10.854 11.3672 10.854 12C10.854 12.6329 11.367 13.1459 11.9998 13.1459Z" fill="#E3E3E3" stroke="#191919" stroke-linecap="round" stroke-linejoin="round"/>
<path d="M16.5833 13.1459C17.2162 13.1459 17.7292 12.6329 17.7292 12C17.7292 11.3672 17.2162 10.8542 16.5833 10.8542C15.9505 10.8542 15.4375 11.3672 15.4375 12C15.4375 12.6329 15.9505 13.1459 16.5833 13.1459Z" fill="#E3E3E3" stroke="#191919" stroke-linecap="round" stroke-linejoin="round"/>
</svg>
