<svg width="24" height="24" viewBox="0 0 24 24" fill="none" xmlns="http://www.w3.org/2000/svg">
<path d="M12.263 17.5251C12.6087 17.5258 12.8255 17.1518 12.6532 16.8521C12.6334 16.8177 12.6091 16.786 12.581 16.758L9.83123 14.0064C15.4458 11.0571 22.3306 11.0571 22.3306 17.5251C22.3306 7.83209 13.8315 5.88363 4.59935 8.75655L2.43519 6.60504C2.19035 6.36094 1.77308 6.47341 1.68408 6.80754C1.6739 6.84576 1.66877 6.88527 1.66895 6.92478V17.0759C1.66895 17.3241 1.87007 17.5252 2.11812 17.5251H12.263Z" fill="#FFEF5E"/>
<path d="M9.13766 10.3951C4.56606 11.9555 2.83137 14.0441 1.66895 17.1137V6.92478C1.66904 6.57902 2.0434 6.36305 2.34279 6.53593C2.37615 6.55528 2.40695 6.57874 2.43436 6.60588L4.59935 8.75289C13.8315 5.88098 22.3306 7.82944 22.3306 17.5251C22.3626 16.4926 22.1317 15.4688 21.6595 14.5499C20.6354 11.8199 15.4916 8.2292 9.13766 10.3951Z" fill="#FFF9BF"/>
<path d="M12.2621 17.5251C12.6079 17.5257 12.8246 17.1518 12.6523 16.8521C12.6325 16.8177 12.6083 16.786 12.5801 16.7579L9.83031 14.0064C15.4431 11.0571 22.3306 11.0571 22.3306 17.5251C22.3306 7.83209 13.8315 5.88363 4.59935 8.75655L2.43436 6.60504C2.18879 6.36158 1.7718 6.47524 1.6837 6.80964C1.6739 6.84723 1.66885 6.88591 1.66895 6.92478V17.0759C1.66895 17.3241 1.87006 17.5252 2.11811 17.5251H12.2621Z" stroke="#191919" stroke-linecap="round" stroke-linejoin="round"/>
</svg>
