<svg width="24" height="24" viewBox="0 0 24 24" fill="none" xmlns="http://www.w3.org/2000/svg">
<g clip-path="url(#clip0_5303_2763)">
<path d="M23.2095 4.7468C23.2095 5.0966 23.0705 5.432 22.8233 5.6793C22.576 5.9266 22.2404 6.0656 21.8907 6.0656H2.10933C1.75963 6.0656 1.42413 5.9266 1.17683 5.6793C0.929527 5.432 0.790527 5.0966 0.790527 4.7468V3.4281C0.790527 3.0783 0.929527 2.7429 1.17683 2.4955C1.42413 2.2483 1.75963 2.1093 2.10933 2.1093H21.8907C22.2404 2.1093 22.5759 2.2483 22.8231 2.4955C23.0704 2.7429 23.2095 3.0783 23.2095 3.4281V4.7468Z" fill="#66E1FF"/>
<path d="M23.2095 4.0874V3.4281C23.2095 3.0783 23.0705 2.7429 22.8233 2.4955C22.5759 2.2483 22.2404 2.1093 21.8907 2.1093H2.10933C1.75963 2.1093 1.42413 2.2483 1.17683 2.4955C0.929527 2.7429 0.790527 3.0783 0.790527 3.4281V4.0874H23.2095Z" fill="#C2F3FF"/>
<path d="M23.2095 12.6593C23.2095 13.0091 23.0705 13.3446 22.8233 13.5919C22.576 13.8391 22.2404 13.9781 21.8907 13.9781H2.10933C1.75963 13.9781 1.42413 13.8391 1.17683 13.5919C0.929527 13.3446 0.790527 13.0091 0.790527 12.6593V11.3406C0.790527 10.9908 0.929527 10.6554 1.17683 10.4081C1.42413 10.1608 1.75953 10.0218 2.10933 10.0218H21.8907C22.2404 10.0218 22.5759 10.1608 22.8231 10.4081C23.0704 10.6554 23.2095 10.9908 23.2095 11.3406V12.6593Z" fill="#66E1FF"/>
<path d="M23.2095 12V11.3406C23.2095 10.9908 23.0705 10.6554 22.8233 10.4081C22.576 10.1608 22.2404 10.0219 21.8907 10.0219H2.10933C1.75953 10.0219 1.42413 10.1608 1.17683 10.4081C0.929527 10.6554 0.790527 10.9908 0.790527 11.3406V12H23.2095Z" fill="#C2F3FF"/>
<path d="M23.2095 20.5719C23.2095 20.9218 23.0705 21.2573 22.8233 21.5045C22.576 21.7518 22.2404 21.8907 21.8907 21.8907H2.10933C1.75963 21.8907 1.42413 21.7518 1.17683 21.5045C0.929527 21.2573 0.790527 20.9218 0.790527 20.5719V19.2532C0.790527 18.9035 0.929527 18.568 1.17683 18.3207C1.42413 18.0734 1.75953 17.9345 2.10933 17.9345H21.8907C22.2404 17.9345 22.5759 18.0734 22.8231 18.3207C23.0704 18.568 23.2095 18.9035 23.2095 19.2532V20.5719Z" fill="#66E1FF"/>
<path d="M23.2095 19.9126V19.2532C23.2095 18.9035 23.0705 18.568 22.8233 18.3207C22.576 18.0734 22.2404 17.9345 21.8907 17.9345H2.10933C1.75953 17.9345 1.42413 18.0734 1.17683 18.3207C0.929527 18.568 0.790527 18.9035 0.790527 19.2532V19.9126H23.2095Z" fill="#C2F3FF"/>
<path d="M23.2095 4.7468C23.2095 5.0966 23.0705 5.432 22.8233 5.6793C22.576 5.9266 22.2404 6.0656 21.8907 6.0656H2.10933C1.75963 6.0656 1.42413 5.9266 1.17683 5.6793C0.929527 5.432 0.790527 5.0966 0.790527 4.7468V3.4281C0.790527 3.0783 0.929527 2.7429 1.17683 2.4955C1.42413 2.2483 1.75963 2.1093 2.10933 2.1093H21.8907C22.2404 2.1093 22.5759 2.2483 22.8231 2.4955C23.0704 2.7429 23.2095 3.0783 23.2095 3.4281V4.7468Z" stroke="#191919" stroke-linecap="round" stroke-linejoin="round"/>
<path d="M23.2095 12.6593C23.2095 13.0091 23.0705 13.3446 22.8233 13.5919C22.576 13.8391 22.2404 13.9781 21.8907 13.9781H2.10933C1.75963 13.9781 1.42413 13.8391 1.17683 13.5919C0.929527 13.3446 0.790527 13.0091 0.790527 12.6593V11.3406C0.790527 10.9908 0.929527 10.6554 1.17683 10.4081C1.42413 10.1608 1.75953 10.0218 2.10933 10.0218H21.8907C22.2404 10.0218 22.5759 10.1608 22.8231 10.4081C23.0704 10.6554 23.2095 10.9908 23.2095 11.3406V12.6593Z" stroke="#191919" stroke-linecap="round" stroke-linejoin="round"/>
<path d="M23.2095 20.5719C23.2095 20.9218 23.0705 21.2573 22.8233 21.5045C22.576 21.7518 22.2404 21.8907 21.8907 21.8907H2.10933C1.75963 21.8907 1.42413 21.7518 1.17683 21.5045C0.929527 21.2573 0.790527 20.9218 0.790527 20.5719V19.2532C0.790527 18.9035 0.929527 18.568 1.17683 18.3207C1.42413 18.0734 1.75953 17.9345 2.10933 17.9345H21.8907C22.2404 17.9345 22.5759 18.0734 22.8231 18.3207C23.0704 18.568 23.2095 18.9035 23.2095 19.2532V20.5719Z" stroke="#191919" stroke-linecap="round" stroke-linejoin="round"/>
</g>
<defs>
<clipPath id="clip0_5303_2763">
<rect width="24" height="24" fill="white"/>
</clipPath>
</defs>
</svg>
