<svg width="24" height="24" viewBox="0 0 24 24" fill="none" xmlns="http://www.w3.org/2000/svg">
<path d="M22.0378 2.0988C21.9576 2.06002 21.8682 2.04453 21.7796 2.05407C21.6911 2.06369 21.6071 2.09797 21.5371 2.15297L14.7035 7.52235V2.52642C14.7033 2.43742 14.6783 2.35033 14.6309 2.27489C14.5837 2.19954 14.5162 2.13895 14.4362 2.09999C14.3563 2.06112 14.2669 2.04545 14.1784 2.0548C14.0899 2.06415 14.0059 2.09816 13.9358 2.15297L1.87639 11.6271C1.81964 11.6715 1.77381 11.7283 1.74228 11.793C1.71074 11.8578 1.69434 11.9289 1.69434 12.001C1.69434 12.073 1.71074 12.1441 1.74228 12.2089C1.77381 12.2735 1.81964 12.3304 1.87639 12.3748L13.9349 21.8479C14.005 21.9027 14.089 21.9368 14.1775 21.9461C14.266 21.9555 14.3552 21.9399 14.4353 21.9009C14.5153 21.862 14.5828 21.8014 14.63 21.7259C14.6773 21.6506 14.7024 21.5635 14.7026 21.4746V16.4796L21.5361 21.8479C21.6063 21.9027 21.6902 21.9368 21.7788 21.9461C21.8672 21.9555 21.9565 21.9398 22.0365 21.9008C22.1166 21.862 22.184 21.8014 22.2312 21.7259C22.2785 21.6506 22.3037 21.5635 22.3038 21.4745V2.52642C22.304 2.43742 22.2791 2.35006 22.2321 2.27443C22.185 2.1989 22.1177 2.13803 22.0378 2.0988Z" fill="#66E1FF"/>
<path d="M22.0377 2.0988C21.9576 2.06002 21.8682 2.04453 21.7796 2.05407C21.6911 2.06369 21.607 2.09797 21.537 2.15297L14.7034 7.52235V2.52642C14.7033 2.43742 14.6782 2.35033 14.6309 2.27489C14.5837 2.19954 14.5161 2.13895 14.4362 2.09999C14.3562 2.06112 14.2668 2.04545 14.1783 2.0548C14.0899 2.06415 14.0058 2.09816 13.9357 2.15297L1.8763 11.6271C1.81965 11.6717 1.774 11.7288 1.74274 11.7938C1.71149 11.8589 1.69535 11.9301 1.69581 12.0024H22.3047V2.52642C22.3048 2.43723 22.2798 2.34987 22.2326 2.27425C22.1854 2.19872 22.1179 2.13785 22.0377 2.0988Z" fill="#C2F3FF"/>
<path d="M14.7038 4.87623V2.52553C14.7036 2.43653 14.6786 2.34935 14.6312 2.274C14.584 2.19865 14.5165 2.13806 14.4365 2.0991C14.3566 2.06014 14.2671 2.04456 14.1787 2.05391C14.0902 2.06326 14.0061 2.09727 13.9361 2.15208L1.87663 11.6224C1.82016 11.6668 1.77442 11.7236 1.74307 11.7882C1.71163 11.8529 1.69531 11.9238 1.69531 11.9958C1.69531 12.0677 1.71163 12.1387 1.74307 12.2032C1.77442 12.268 1.82016 12.3247 1.87663 12.3692L13.9352 21.8432C14.0052 21.8981 14.0893 21.9321 14.1777 21.9414C14.2662 21.9508 14.3556 21.9351 14.4356 21.8962C14.5156 21.8573 14.5831 21.7966 14.6303 21.7214C14.6776 21.6459 14.7027 21.5587 14.7029 21.4698V19.1287" stroke="#191919" stroke-linecap="round" stroke-linejoin="round"/>
<path d="M22.3049 2.52644C22.3047 2.43743 22.2797 2.35035 22.2323 2.27491C22.1851 2.19956 22.1176 2.13897 22.0377 2.10001C21.9577 2.06114 21.8682 2.04547 21.7797 2.05482C21.6913 2.06417 21.6072 2.09818 21.5372 2.15299L9.4777 11.6271C9.42124 11.6715 9.3755 11.7282 9.34415 11.7929C9.3127 11.8577 9.29639 11.9286 9.29639 12.0005C9.29639 12.0723 9.3127 12.1433 9.34415 12.208C9.3755 12.2727 9.42124 12.3295 9.4777 12.3739L21.5363 21.8479C21.6063 21.9027 21.6904 21.9368 21.7788 21.9461C21.8673 21.9556 21.9567 21.9399 22.0367 21.9009C22.1167 21.8621 22.1842 21.8014 22.2314 21.7259C22.2787 21.6506 22.3038 21.5635 22.304 21.4746L22.3049 2.52644Z" stroke="#191919" stroke-linecap="round" stroke-linejoin="round"/>
</svg>
