<svg width="24" height="24" viewBox="0 0 24 24" fill="none" xmlns="http://www.w3.org/2000/svg">
<g clip-path="url(#clip0_5303_6863)">
<path d="M12.0001 14.3912C15.6979 14.3912 18.6957 11.3935 18.6957 7.69561C18.6957 3.99773 15.6979 1 12.0001 1C8.30217 1 5.30444 3.99773 5.30444 7.69561C5.30444 11.3935 8.30217 14.3912 12.0001 14.3912Z" fill="#66E1FF"/>
<path d="M7.21747 9.60811C7.21739 8.39956 7.5444 7.21352 8.16384 6.1758C8.78328 5.13806 9.67204 4.28734 10.7358 3.71385C11.7997 3.14036 12.9989 2.8655 14.2063 2.91841C15.4137 2.97134 16.5842 3.35005 17.5938 4.01441C17.0462 3.18638 16.3213 2.49049 15.4716 1.9771C14.622 1.46371 13.6688 1.14567 12.6811 1.04603C11.6934 0.946378 10.6959 1.0676 9.76076 1.40093C8.82568 1.73426 7.97641 2.27135 7.27445 2.97331C6.57249 3.67527 6.03541 4.52454 5.70208 5.45962C5.36875 6.39471 5.24753 7.39221 5.34717 8.37992C5.44682 9.36762 5.76485 10.3208 6.27824 11.1705C6.79163 12.0202 7.48754 12.745 8.31555 13.2926C7.5954 12.199 7.21347 10.9175 7.21747 9.60811Z" fill="#C2F3FF"/>
<path d="M12.0001 14.3912C15.6979 14.3912 18.6957 11.3935 18.6957 7.69561C18.6957 3.99773 15.6979 1 12.0001 1C8.30217 1 5.30444 3.99773 5.30444 7.69561C5.30444 11.3935 8.30217 14.3912 12.0001 14.3912Z" stroke="#191919" stroke-linecap="round" stroke-linejoin="round"/>
<path d="M12 14.3912C10.087 12.9564 9.13049 10.0869 9.13049 7.69561C9.13049 5.30432 10.087 2.43477 12 1" stroke="#191919" stroke-linecap="round" stroke-linejoin="round"/>
<path d="M12 14.3912C13.913 12.9564 14.8695 10.0869 14.8695 7.69561C14.8695 5.30432 13.913 2.43477 12 1" stroke="#191919" stroke-linecap="round" stroke-linejoin="round"/>
<path d="M5.94897 4.82568H18.0508" stroke="#191919" stroke-linecap="round" stroke-linejoin="round"/>
<path d="M5.94897 10.5649H18.0508" stroke="#191919" stroke-linecap="round" stroke-linejoin="round"/>
<path d="M5.30444 7.69531H18.6957" stroke="#191919" stroke-linecap="round" stroke-linejoin="round"/>
<path d="M4.82625 19.652C5.75072 19.652 6.50015 18.9026 6.50015 17.9781C6.50015 17.0536 5.75072 16.3042 4.82625 16.3042C3.90177 16.3042 3.15234 17.0536 3.15234 17.9781C3.15234 18.9026 3.90177 19.652 4.82625 19.652Z" fill="#E3E3E3" stroke="#191919" stroke-linecap="round" stroke-linejoin="round"/>
<path d="M8.17388 23.0002C7.98418 22.2563 7.55212 21.5967 6.94588 21.1257C6.33965 20.6546 5.59379 20.3989 4.82608 20.3989C4.05836 20.3989 3.3125 20.6546 2.70627 21.1257C2.10004 21.5967 1.66797 22.2563 1.47827 23.0002H8.17388Z" fill="#E3E3E3" stroke="#191919" stroke-linecap="round" stroke-linejoin="round"/>
<path d="M19.1739 19.652C20.0984 19.652 20.8478 18.9026 20.8478 17.9781C20.8478 17.0536 20.0984 16.3042 19.1739 16.3042C18.2494 16.3042 17.5 17.0536 17.5 17.9781C17.5 18.9026 18.2494 19.652 19.1739 19.652Z" fill="#E3E3E3" stroke="#191919" stroke-linecap="round" stroke-linejoin="round"/>
<path d="M22.5217 23.0002C22.332 22.2563 21.8999 21.5967 21.2937 21.1257C20.6874 20.6546 19.9416 20.3989 19.1739 20.3989C18.4062 20.3989 17.6603 20.6546 17.054 21.1257C16.4478 21.5967 16.0157 22.2563 15.826 23.0002H22.5217Z" fill="#E3E3E3" stroke="#191919" stroke-linecap="round" stroke-linejoin="round"/>
</g>
<defs>
<clipPath id="clip0_5303_6863">
<rect width="24" height="24" fill="white"/>
</clipPath>
</defs>
</svg>
