<svg width="24" height="24" viewBox="0 0 24 24" fill="none" xmlns="http://www.w3.org/2000/svg">
<g clip-path="url(#clip0_5303_6638)">
<path d="M20.1304 4.82568V14.3909C20.1304 14.6421 20.081 14.8909 19.9848 15.123C19.8887 15.3551 19.7478 15.566 19.5701 15.7436C19.3925 15.9213 19.1816 16.0622 18.9495 16.1583C18.7174 16.2545 18.4686 16.3039 18.2174 16.3039H2.91304C2.40567 16.3039 1.91908 16.1024 1.56032 15.7436C1.20155 15.3849 1 14.8983 1 14.3909V4.82568H20.1304Z" fill="#66E1FF"/>
<path d="M4.82609 16.3039L16.3043 4.82568H1V14.3909C1 14.8983 1.20155 15.3849 1.56032 15.7436C1.91908 16.1024 2.40567 16.3039 2.91304 16.3039H4.82609Z" fill="#C2F3FF"/>
<path d="M20.1304 4.82609H1V2.91304C1 2.40567 1.20155 1.91908 1.56032 1.56032C1.91908 1.20155 2.40567 1 2.91304 1H18.2174C18.7248 1 19.2113 1.20155 19.5701 1.56032C19.9289 1.91908 20.1304 2.40567 20.1304 2.91304V4.82609Z" fill="white"/>
<path d="M1 4.82568H20.1304" stroke="#191919" stroke-linecap="round" stroke-linejoin="round"/>
<path d="M7.69565 16.3043H2.91304C2.40567 16.3043 1.91908 16.1028 1.56032 15.744C1.20155 15.3853 1 14.8987 1 14.3913V2.91304C1 2.40567 1.20155 1.91908 1.56032 1.56032C1.91908 1.20155 2.40567 1 2.91304 1H18.2174C18.7248 1 19.2113 1.20155 19.5701 1.56032C19.9289 1.91908 20.1304 2.40567 20.1304 2.91304V8.65217" stroke="#191919" stroke-linecap="round" stroke-linejoin="round"/>
<path d="M16.3043 23.0002C18.0801 23.0002 19.7832 22.2948 21.0388 21.0391C22.2945 19.7834 22.9999 18.0803 22.9999 16.3045C22.9999 14.5287 22.2945 12.8257 21.0388 11.57C19.7832 10.3143 18.0801 9.60889 16.3043 9.60889C14.5285 9.60889 12.8254 10.3143 11.5698 11.57C10.3141 12.8257 9.60864 14.5287 9.60864 16.3045C9.60864 18.0803 10.3141 19.7834 11.5698 21.0391C12.8254 22.2948 14.5285 23.0002 16.3043 23.0002Z" fill="#78EB7B"/>
<path d="M11.5217 18.2166C11.5216 17.008 11.8486 15.822 12.4681 14.7842C13.0875 13.7465 13.9763 12.8958 15.0401 12.3223C16.1039 11.7488 17.3031 11.4739 18.5105 11.5268C19.7179 11.5797 20.8885 11.9585 21.898 12.6228C21.3504 11.7948 20.6256 11.0989 19.7759 10.5855C18.9262 10.0721 17.973 9.75407 16.9853 9.65442C15.9976 9.55478 15.0001 9.676 14.065 10.0093C13.1299 10.3427 12.2806 10.8798 11.5787 11.5817C10.8767 12.2837 10.3396 13.133 10.0063 14.068C9.67295 15.0031 9.55172 16.0006 9.65137 16.9884C9.75102 17.9761 10.0691 18.9293 10.5824 19.7789C11.0958 20.6286 11.7917 21.3535 12.6198 21.9011C11.8996 20.8075 11.5177 19.526 11.5217 18.2166Z" fill="#C9F7CA"/>
<path d="M16.3043 23.0002C18.0801 23.0002 19.7832 22.2948 21.0388 21.0391C22.2945 19.7834 22.9999 18.0803 22.9999 16.3045C22.9999 14.5287 22.2945 12.8257 21.0388 11.57C19.7832 10.3143 18.0801 9.60889 16.3043 9.60889C14.5285 9.60889 12.8254 10.3143 11.5698 11.57C10.3141 12.8257 9.60864 14.5287 9.60864 16.3045C9.60864 18.0803 10.3141 19.7834 11.5698 21.0391C12.8254 22.2948 14.5285 23.0002 16.3043 23.0002Z" stroke="#191919" stroke-linecap="round" stroke-linejoin="round"/>
<path d="M16.3043 23.0002C14.3912 21.5654 13.4347 18.6958 13.4347 16.3045C13.4347 13.9132 14.3912 11.0437 16.3043 9.60889" stroke="#191919" stroke-linecap="round" stroke-linejoin="round"/>
<path d="M16.3043 23.0002C18.2174 21.5654 19.1739 18.6958 19.1739 16.3045C19.1739 13.9132 18.2174 11.0437 16.3043 9.60889" stroke="#191919" stroke-linecap="round" stroke-linejoin="round"/>
<path d="M10.2532 13.4346H22.3551" stroke="#191919" stroke-linecap="round" stroke-linejoin="round"/>
<path d="M10.2532 19.1738H22.3551" stroke="#191919" stroke-linecap="round" stroke-linejoin="round"/>
<path d="M9.60864 16.3042H22.9999" stroke="#191919" stroke-linecap="round" stroke-linejoin="round"/>
<path d="M3.86938 3.15209C3.80596 3.15209 3.74513 3.12689 3.70029 3.08205C3.65544 3.0372 3.63025 2.97638 3.63025 2.91296C3.63025 2.84954 3.65544 2.78871 3.70029 2.74387C3.74513 2.69902 3.80596 2.67383 3.86938 2.67383" stroke="#191919"/>
<path d="M3.86951 3.15209C3.93293 3.15209 3.99375 3.12689 4.0386 3.08205C4.08344 3.0372 4.10864 2.97638 4.10864 2.91296C4.10864 2.84954 4.08344 2.78871 4.0386 2.74387C3.99375 2.69902 3.93293 2.67383 3.86951 2.67383" stroke="#191919"/>
<path d="M5.78259 3.15209C5.71917 3.15209 5.65834 3.12689 5.6135 3.08205C5.56865 3.0372 5.54346 2.97638 5.54346 2.91296C5.54346 2.84954 5.56865 2.78871 5.6135 2.74387C5.65834 2.69902 5.71917 2.67383 5.78259 2.67383" stroke="#191919"/>
<path d="M5.78247 3.15209C5.84589 3.15209 5.90672 3.12689 5.95156 3.08205C5.99641 3.0372 6.0216 2.97638 6.0216 2.91296C6.0216 2.84954 5.99641 2.78871 5.95156 2.74387C5.90672 2.69902 5.84589 2.67383 5.78247 2.67383" stroke="#191919"/>
<path d="M7.69567 3.15209C7.63225 3.15209 7.57143 3.12689 7.52658 3.08205C7.48174 3.0372 7.45654 2.97638 7.45654 2.91296C7.45654 2.84954 7.48174 2.78871 7.52658 2.74387C7.57143 2.69902 7.63225 2.67383 7.69567 2.67383" stroke="#191919"/>
<path d="M7.69556 3.15209C7.75898 3.15209 7.8198 3.12689 7.86465 3.08205C7.90949 3.0372 7.93469 2.97638 7.93469 2.91296C7.93469 2.84954 7.90949 2.78871 7.86465 2.74387C7.8198 2.69902 7.75898 2.67383 7.69556 2.67383" stroke="#191919"/>
</g>
<defs>
<clipPath id="clip0_5303_6638">
<rect width="24" height="24" fill="white"/>
</clipPath>
</defs>
</svg>
