<svg width="24" height="24" viewBox="0 0 24 24" fill="none" xmlns="http://www.w3.org/2000/svg">
<g clip-path="url(#clip0_5303_3902)">
<path d="M12 23C18.0752 23 23 18.0752 23 12C23 5.92482 18.0752 1 12 1C5.92492 1 1 5.92482 1 12C1 18.0752 5.92492 23 12 23Z" fill="#66E1FF"/>
<path d="M4.31337 14.8714C4.31308 12.95 4.81603 11.0623 5.77207 9.39578C6.7281 7.72929 8.10393 6.34233 9.76262 5.37283C11.4214 4.40332 13.3051 3.88514 15.2262 3.86992C17.1475 3.85469 19.0391 4.34291 20.7129 5.28606C19.7176 3.99495 18.4476 2.94131 16.9951 2.20118C15.5424 1.46114 13.9436 1.05315 12.3139 1.00689C10.6844 0.960528 9.06494 1.27706 7.57267 1.93335C6.0804 2.58974 4.75259 3.56959 3.68548 4.80213C2.61838 6.03458 1.83852 7.48879 1.40242 9.05963C0.966329 10.6304 0.884732 12.2786 1.16368 13.8848C1.44273 15.491 2.07521 17.0151 3.01543 18.3469C3.95575 19.6786 5.1802 20.7846 6.60044 21.5852C5.11431 19.663 4.30976 17.301 4.31337 14.8714Z" fill="#C2F3FF"/>
<path d="M12 23C18.0752 23 23 18.0752 23 12C23 5.92482 18.0752 1 12 1C5.92492 1 1 5.92482 1 12C1 18.0752 5.92492 23 12 23Z" stroke="#191919" stroke-linecap="round" stroke-linejoin="round"/>
<path d="M8.89143 10.087C10.0801 10.087 11.0436 9.12339 11.0436 7.93477C11.0436 6.74614 10.0801 5.78259 8.89143 5.78259C7.70281 5.78259 6.73926 6.74614 6.73926 7.93477C6.73926 9.12339 7.70281 10.087 8.89143 10.087Z" fill="#FFEF5E" stroke="#191919" stroke-linecap="round" stroke-linejoin="round"/>
<path d="M14.1527 18.6957C14.8131 18.6957 15.3483 18.1603 15.3483 17.5C15.3483 16.8396 14.8131 16.3044 14.1527 16.3044C13.4923 16.3044 12.957 16.8396 12.957 17.5C12.957 18.1603 13.4923 18.6957 14.1527 18.6957Z" fill="#FFEF5E" stroke="#191919" stroke-linecap="round" stroke-linejoin="round"/>
<path d="M18.4566 12C19.3811 12 20.1305 11.2506 20.1305 10.3261C20.1305 9.40157 19.3811 8.65216 18.4566 8.65216C17.5321 8.65216 16.7827 9.40157 16.7827 10.3261C16.7827 11.2506 17.5321 12 18.4566 12Z" fill="#FFEF5E" stroke="#191919" stroke-linecap="round" stroke-linejoin="round"/>
<path d="M11.0435 7.69757C13.1818 7.77897 15.2192 8.62794 16.7826 10.0889" stroke="#191919" stroke-linecap="round" stroke-linejoin="round"/>
<path d="M18.7915 11.9675L19.1741 12.4783C19.1741 12.4783 20.6089 14.3933 20.6089 18.6976" stroke="#191919" stroke-linecap="round" stroke-linejoin="round"/>
<path d="M16.6133 2.01111L16.7826 2.43676C17.4747 4.48713 17.7987 6.6439 17.7391 8.8072" stroke="#191919" stroke-linecap="round" stroke-linejoin="round"/>
<path d="M17.2609 11.5237C17.1415 13.4997 16.4295 15.394 15.2178 16.9596" stroke="#191919" stroke-linecap="round" stroke-linejoin="round"/>
<path d="M13.5803 18.5502L13.4349 18.6976C13.4349 18.6976 11.0436 21.0889 5.78271 21.0889" stroke="#191919" stroke-linecap="round" stroke-linejoin="round"/>
<path d="M12.0003 1.00195C10.6917 2.4016 9.63945 4.02037 8.8916 5.78456" stroke="#191919" stroke-linecap="round" stroke-linejoin="round"/>
<path d="M7.77419 9.77515L7.69572 10.0889C7.17451 12.6758 7.51037 15.362 8.65224 17.7411C10.2783 20.999 14.3914 22.5237 14.3914 22.5237L14.7481 22.6566" stroke="#191919" stroke-linecap="round" stroke-linejoin="round"/>
<path d="M6.73925 7.93475C6.73925 7.93475 3.06523 8.1978 1.21533 9.82203" stroke="#191919" stroke-linecap="round" stroke-linejoin="round"/>
<path d="M1.26807 14.4238L1.4785 14.3933C1.4785 14.3933 8.06035 13.3812 13.4101 16.5646" stroke="#191919" stroke-linecap="round" stroke-linejoin="round"/>
</g>
<defs>
<clipPath id="clip0_5303_3902">
<rect width="24" height="24" fill="white"/>
</clipPath>
</defs>
</svg>
