<svg width="24" height="24" viewBox="0 0 24 24" fill="none" xmlns="http://www.w3.org/2000/svg">
<g clip-path="url(#clip0_5303_6398)">
<path d="M12 22.9978C18.0742 22.9978 22.9989 18.0731 22.9989 11.9989C22.9989 5.92463 18.0742 1 12 1C5.92573 1 1.0011 5.92463 1.0011 11.9989C1.0011 18.0731 5.92573 22.9978 12 22.9978Z" fill="#66E1FF"/>
<path d="M4.31403 14.8699C4.31373 12.9489 4.81658 11.0613 5.77253 9.39494C6.72849 7.72863 8.1042 6.34175 9.76273 5.37236C11.4213 4.40298 13.3048 3.88489 15.2258 3.86967C17.1468 3.85445 19.0382 4.34263 20.7119 5.28561C19.7166 3.99467 18.4468 2.94109 16.9944 2.20109C15.542 1.4611 13.9432 1.05319 12.3138 1.00688C10.6844 0.96057 9.06504 1.27702 7.57292 1.93332C6.0808 2.58963 4.75322 3.56939 3.68621 4.80172C2.6192 6.03405 1.83944 7.48815 1.40335 9.05881C0.96726 10.6295 0.885736 12.2774 1.16467 13.8835C1.44362 15.4895 2.07605 17.0134 3.01622 18.3451C3.95639 19.6767 5.18079 20.7827 6.60084 21.5831C5.11484 19.6611 4.31034 17.2994 4.31403 14.8699Z" fill="#C2F3FF"/>
<path d="M2.43665 17.2769H12.1118" stroke="#191919" stroke-linecap="round" stroke-linejoin="round"/>
<path d="M3.02393 5.7998H21.1807" stroke="#191919" stroke-linecap="round" stroke-linejoin="round"/>
<path d="M12.5767 11.5381H1.11011" stroke="#191919" stroke-linecap="round" stroke-linejoin="round"/>
<path d="M11.5036 23.0001C9.43892 22.8861 7.44817 22.1924 5.75978 20.9985C4.0714 19.8046 2.75375 18.159 1.95803 16.2504C1.16231 14.3418 0.920751 12.2475 1.26105 10.2078C1.60136 8.16819 2.50975 6.26579 3.882 4.71889C5.25425 3.17199 7.03478 2.04326 9.01931 1.4622C11.0038 0.881147 13.112 0.871294 15.1018 1.43378C17.0917 1.99626 18.8827 3.1083 20.2694 4.64231C21.656 6.17631 22.5821 8.07014 22.9415 10.1065" stroke="#191919" stroke-linecap="round" stroke-linejoin="round"/>
<path d="M11.3994 1.04248C5.66081 7.25924 5.76506 15.3487 11.5036 23.0001" stroke="#191919" stroke-linecap="round" stroke-linejoin="round"/>
<path d="M12.7965 1.04248C14.9391 3.27386 16.3611 6.09809 16.8776 9.14818" stroke="#191919" stroke-linecap="round" stroke-linejoin="round"/>
<path d="M22.5207 15.1574C22.5207 18.0267 18.2168 22.3306 18.2168 22.3306C18.2168 22.3306 13.9128 18.0267 13.9128 15.1574C13.9128 14.016 14.3663 12.9212 15.1734 12.1141C15.9806 11.307 17.0753 10.8535 18.2168 10.8535C19.3582 10.8535 20.4529 11.307 21.2601 12.1141C22.0672 12.9212 22.5207 14.016 22.5207 15.1574Z" fill="#FF808C"/>
<path d="M18.2168 10.8535C17.6514 10.8529 17.0914 10.9638 16.569 11.1799C16.0465 11.3959 15.5718 11.7129 15.172 12.1127C14.7722 12.5125 14.4552 12.9872 14.2392 13.5097C14.0231 14.0321 13.9122 14.5921 13.9128 15.1574C14.0164 16.2983 14.4116 17.3935 15.0606 18.3375L17.2163 16.1818C17.0754 16.0504 16.9623 15.892 16.8839 15.7161C16.8055 15.5401 16.7633 15.3501 16.7599 15.1575C16.7565 14.9649 16.792 14.7735 16.8641 14.5949C16.9363 14.4162 17.0437 14.254 17.1799 14.1177C17.3161 13.9815 17.4784 13.8741 17.6571 13.8019C17.8357 13.7298 18.027 13.6944 18.2197 13.6978C18.4123 13.7012 18.6023 13.7433 18.7782 13.8217C18.9542 13.9001 19.1126 14.0132 19.244 14.1541L21.2744 12.1246C20.8745 11.7207 20.3982 11.4003 19.8732 11.1821C19.3483 10.9638 18.7852 10.8522 18.2168 10.8535Z" fill="#FFBFC5"/>
<path d="M18.2167 16.587C18.4051 16.587 18.5917 16.5499 18.7658 16.4778C18.9398 16.4057 19.098 16.3001 19.2312 16.1669C19.3644 16.0336 19.4701 15.8755 19.5422 15.7014C19.6143 15.5274 19.6514 15.3408 19.6514 15.1524C19.6514 14.964 19.6143 14.7775 19.5422 14.6034C19.4701 14.4293 19.3644 14.2712 19.2312 14.138C19.098 14.0048 18.9398 13.8991 18.7658 13.827C18.5917 13.7549 18.4051 13.7178 18.2167 13.7178C17.8363 13.7178 17.4713 13.8689 17.2023 14.138C16.9333 14.407 16.7821 14.7719 16.7821 15.1524C16.7821 15.5329 16.9333 15.8978 17.2023 16.1669C17.4713 16.4359 17.8363 16.587 18.2167 16.587Z" fill="white" stroke="#191919" stroke-linecap="round" stroke-linejoin="round"/>
<path d="M22.5207 15.1574C22.5207 18.0267 18.2168 22.3306 18.2168 22.3306C18.2168 22.3306 13.9128 18.0267 13.9128 15.1574C13.9128 14.016 14.3663 12.9212 15.1734 12.1141C15.9806 11.307 17.0753 10.8535 18.2168 10.8535C19.3582 10.8535 20.4529 11.307 21.2601 12.1141C22.0672 12.9212 22.5207 14.016 22.5207 15.1574Z" stroke="#191919" stroke-linecap="round" stroke-linejoin="round"/>
</g>
<defs>
<clipPath id="clip0_5303_6398">
<rect width="24" height="24" fill="white"/>
</clipPath>
</defs>
</svg>
