<svg width="24" height="24" viewBox="0 0 24 24" fill="none" xmlns="http://www.w3.org/2000/svg">
<g clip-path="url(#clip0_5303_6531)">
<path d="M12 22.9999C18.0748 22.9999 22.9999 18.0748 22.9999 12C22.9999 5.92511 18.0748 1 12 1C5.92511 1 1 5.92511 1 12C1 18.0748 5.92511 22.9999 12 22.9999Z" fill="#66E1FF"/>
<path d="M4.31344 14.8713C4.31313 12.9501 4.81604 11.0622 5.77208 9.39576C6.72813 7.72929 8.10398 6.34228 9.76267 5.37279C11.4214 4.40331 13.3051 3.88517 15.2262 3.86995C17.1474 3.85472 19.0391 4.34295 20.7129 5.28603C19.7175 3.99496 18.4476 2.94128 16.9951 2.20121C15.5425 1.46114 13.9436 1.0532 12.314 1.00688C10.6844 0.960567 9.06491 1.27704 7.57265 1.93341C6.08038 2.58978 4.75267 3.56964 3.68556 4.80209C2.61844 6.03455 1.83861 7.48878 1.40248 9.0596C0.966339 10.6304 0.884807 12.2785 1.16378 13.8847C1.44274 15.4909 2.07524 17.015 3.0155 18.3468C3.95576 19.6785 5.18028 20.7846 6.60047 21.5851C5.11433 19.6629 4.30975 17.301 4.31344 14.8713Z" fill="#C2F3FF"/>
<path d="M2.33722 17.2617H11.0434" stroke="#191919" stroke-linecap="round" stroke-linejoin="round"/>
<path d="M2.92456 5.78369H21.0831" stroke="#191919" stroke-linecap="round" stroke-linejoin="round"/>
<path d="M12.4783 11.5239L1.01056 11.5229" stroke="#191919" stroke-linecap="round" stroke-linejoin="round"/>
<path d="M8.65225 22.4839C6.73837 21.8703 5.0292 20.744 3.71033 19.2274C2.39147 17.7108 1.51333 15.8618 1.17128 13.8813C0.829226 11.9008 1.03633 9.86438 1.77011 7.99326C2.50388 6.12215 3.73628 4.48784 5.33347 3.2678C6.93065 2.04776 8.83158 1.28864 10.8298 1.07286C12.828 0.857083 14.8472 1.1929 16.668 2.04385C18.4888 2.8948 20.0417 4.22835 21.158 5.89969C22.2743 7.57103 22.9114 9.51626 23 11.5242" stroke="#191919" stroke-linecap="round" stroke-linejoin="round"/>
<path d="M11.3008 1.02588C6.15382 6.60333 5.70616 13.6863 9.81058 20.6106" stroke="#191919" stroke-linecap="round" stroke-linejoin="round"/>
<path d="M12.6983 1.02588C14.9587 3.37351 16.4115 6.38076 16.8458 9.61063" stroke="#191919" stroke-linecap="round" stroke-linejoin="round"/>
<path d="M18.0624 12.4802C17.9849 12.335 17.8693 12.2135 17.7282 12.1289C17.587 12.0442 17.4255 11.9995 17.2609 11.9995C17.0962 11.9995 16.9347 12.0442 16.7935 12.1289C16.6524 12.2135 16.5368 12.335 16.4593 12.4802L11.6231 21.6962C11.5144 21.9018 11.4912 22.142 11.5585 22.3646C11.6259 22.5873 11.7783 22.7743 11.9828 22.8852C12.1186 22.9598 12.2697 22.9999 12.4247 22.999H22.097C22.2515 22.9993 22.4036 22.9601 22.5387 22.8851C22.6738 22.8101 22.7875 22.7018 22.8689 22.5705C22.9493 22.4398 22.9943 22.2905 22.9995 22.1373C23.0047 21.984 22.9699 21.832 22.8986 21.6962L18.0624 12.4802Z" fill="#FFEF5E"/>
<path d="M17.2609 12.0025C17.0964 12.0017 16.9348 12.0458 16.7936 12.1301C16.6523 12.2144 16.5367 12.3356 16.4593 12.4807L11.6231 21.6968C11.5144 21.9024 11.4912 22.1426 11.5585 22.3652C11.6259 22.5878 11.7783 22.7749 11.9828 22.8857C12.1186 22.9603 12.2697 23.0005 12.4247 22.9995H17.2609V12.0025Z" fill="#FFF9BF"/>
<path d="M18.0624 12.4802C17.9849 12.335 17.8693 12.2135 17.7282 12.1289C17.587 12.0442 17.4255 11.9995 17.2609 11.9995C17.0962 11.9995 16.9347 12.0442 16.7935 12.1289C16.6524 12.2135 16.5368 12.335 16.4593 12.4802L11.6231 21.6962C11.5144 21.9018 11.4912 22.142 11.5585 22.3646C11.6259 22.5873 11.7783 22.7743 11.9828 22.8852C12.1186 22.9598 12.2697 22.9999 12.4247 22.999H22.097C22.2515 22.9993 22.4036 22.9601 22.5387 22.8851C22.6738 22.8101 22.7875 22.7018 22.8689 22.5705C22.9493 22.4398 22.9943 22.2905 22.9995 22.1373C23.0047 21.984 22.9699 21.832 22.8986 21.6962L18.0624 12.4802Z" stroke="#191919" stroke-linecap="round" stroke-linejoin="round"/>
<path d="M17.2609 18.2201V15.3506" stroke="#191919" stroke-linecap="round" stroke-linejoin="round"/>
<path d="M17.2609 20.6106C17.1974 20.6106 17.1366 20.5854 17.0918 20.5405C17.0469 20.4957 17.0217 20.4349 17.0217 20.3715C17.0217 20.308 17.0469 20.2472 17.0918 20.2024C17.1366 20.1575 17.1974 20.1323 17.2609 20.1323" stroke="#191919"/>
<path d="M17.2609 20.6106C17.3243 20.6106 17.3851 20.5854 17.43 20.5405C17.4748 20.4957 17.5 20.4349 17.5 20.3715C17.5 20.308 17.4748 20.2472 17.43 20.2024C17.3851 20.1575 17.3243 20.1323 17.2609 20.1323" stroke="#191919"/>
</g>
<defs>
<clipPath id="clip0_5303_6531">
<rect width="24" height="24" fill="white"/>
</clipPath>
</defs>
</svg>
