<svg width="24" height="24" viewBox="0 0 24 24" fill="none" xmlns="http://www.w3.org/2000/svg">
<g clip-path="url(#clip0_5303_6518)">
<path d="M12 22.9979C18.0743 22.9979 22.999 18.0732 22.999 11.9989C22.999 5.92466 18.0743 1 12 1C5.92576 1 1.0011 5.92466 1.0011 11.9989C1.0011 18.0732 5.92576 22.9979 12 22.9979Z" fill="#66E1FF"/>
<path d="M4.31405 14.87C4.31375 12.949 4.8166 11.0613 5.77256 9.39499C6.72852 7.72867 8.10424 6.34178 9.76278 5.37239C11.4213 4.403 13.3048 3.8849 15.2259 3.86968C17.1469 3.85446 19.0383 4.34265 20.712 5.28564C19.7167 3.99468 18.4469 2.9411 16.9945 2.2011C15.5421 1.4611 13.9433 1.05319 12.3139 1.00688C10.6844 0.96057 9.06508 1.27702 7.57296 1.93333C6.08083 2.58964 4.75324 3.5694 3.68622 4.80174C2.61921 6.03408 1.83945 7.48819 1.40335 9.05886C0.967258 10.6295 0.885733 12.2775 1.16468 13.8835C1.44362 15.4896 2.07605 17.0135 3.01623 18.3452C3.9564 19.6768 5.18081 20.7828 6.60087 21.5832C5.11487 19.6612 4.31036 17.2995 4.31405 14.87Z" fill="#C2F3FF"/>
<path d="M2.33813 17.2612L10.0871 17.2622" stroke="#191919" stroke-linecap="round" stroke-linejoin="round"/>
<path d="M2.92542 5.78418H21.0823" stroke="#191919" stroke-linecap="round" stroke-linejoin="round"/>
<path d="M11.0435 11.5229H1.01147" stroke="#191919" stroke-linecap="round" stroke-linejoin="round"/>
<path d="M11.4051 22.9846C9.2791 22.8675 7.23286 22.1357 5.51465 20.8783C3.79644 19.6208 2.48015 17.8917 1.7255 15.9007C0.970852 13.9097 0.810301 11.7425 1.26333 9.66211C1.71636 7.58168 2.76349 5.67746 4.27764 4.18054C5.7918 2.68362 7.70789 1.65836 9.79337 1.22918C11.8789 0.800006 14.0441 0.985359 16.0263 1.76275C18.0085 2.54014 19.7224 3.87615 20.9601 5.60864C22.1978 7.34113 22.9061 9.39562 22.9989 11.5228" stroke="#191919" stroke-linecap="round" stroke-linejoin="round"/>
<path d="M11.3007 1.02783C5.56218 7.24463 5.66643 15.3341 11.405 22.9855" stroke="#191919" stroke-linecap="round" stroke-linejoin="round"/>
<path d="M12.6981 1.02783C14.9589 3.37631 16.4117 6.38471 16.8452 9.61562" stroke="#191919" stroke-linecap="round" stroke-linejoin="round"/>
<path d="M16.8099 21.1433C17.9588 21.1433 19.0606 20.687 19.8729 19.8746C20.6852 19.0623 21.1416 17.9605 21.1416 16.8117C21.1416 15.6628 20.6852 14.561 19.8729 13.7487C19.0606 12.9364 17.9588 12.48 16.8099 12.48C15.6611 12.48 14.5593 12.9364 13.747 13.7487C12.9346 14.561 12.4783 15.6628 12.4783 16.8117C12.4783 17.9605 12.9346 19.0623 13.747 19.8746C14.5593 20.687 15.6611 21.1433 16.8099 21.1433Z" fill="#E3E3E3"/>
<path d="M13.7475 19.8746C12.9878 19.0526 12.5758 17.9684 12.5979 16.8494C12.6199 15.7303 13.0743 14.6632 13.8658 13.8717C14.6572 13.0803 15.7243 12.6259 16.8434 12.6039C17.9624 12.5818 19.0466 12.9938 19.8686 13.7534L13.7475 19.8746Z" fill="white"/>
<path d="M16.8099 21.1433C17.9588 21.1433 19.0606 20.687 19.8729 19.8746C20.6852 19.0623 21.1416 17.9605 21.1416 16.8117C21.1416 15.6628 20.6852 14.561 19.8729 13.7487C19.0606 12.9364 17.9588 12.48 16.8099 12.48C15.6611 12.48 14.5593 12.9364 13.747 13.7487C12.9346 14.561 12.4783 15.6628 12.4783 16.8117C12.4783 17.9605 12.9346 19.0623 13.747 19.8746C14.5593 20.687 15.6611 21.1433 16.8099 21.1433Z" stroke="#191919" stroke-linecap="round" stroke-linejoin="round"/>
<path d="M22.9989 23L19.8925 19.8936" stroke="#191919" stroke-linecap="round" stroke-linejoin="round"/>
</g>
<defs>
<clipPath id="clip0_5303_6518">
<rect width="24" height="24" fill="white"/>
</clipPath>
</defs>
</svg>
