<svg width="24" height="24" viewBox="0 0 24 24" fill="none" xmlns="http://www.w3.org/2000/svg">
<g clip-path="url(#clip0_5303_6411)">
<path d="M7.69564 23.0002C9.47144 23.0002 11.1745 22.2947 12.4302 21.0391C13.6859 19.7834 14.3913 18.0803 14.3913 16.3045C14.3913 14.5287 13.6859 12.8257 12.4302 11.57C11.1745 10.3143 9.47144 9.60889 7.69564 9.60889C5.91985 9.60889 4.21679 10.3143 2.96111 11.57C1.70543 12.8257 1 14.5287 1 16.3045C1 18.0803 1.70543 19.7834 2.96111 21.0391C4.21679 22.2947 5.91985 23.0002 7.69564 23.0002Z" fill="#66E1FF"/>
<path d="M1.00001 16.304C0.998355 17.3753 1.25494 18.4311 1.74801 19.3821C3.01044 20.0365 4.4484 20.2719 5.85359 20.0543C7.25877 19.8368 8.55821 19.1775 9.56367 18.1721C10.5691 17.1666 11.2284 15.8672 11.4459 14.462C11.6635 13.0568 11.4281 11.6188 10.7737 10.3564C9.75299 9.828 8.61342 9.57127 7.46471 9.61092C6.31599 9.65056 5.19683 9.98525 4.21495 10.5828C3.23306 11.1803 2.42153 12.0205 1.85846 13.0225C1.29539 14.0245 0.999754 15.1546 1.00001 16.304Z" fill="#C2F3FF"/>
<path d="M7.69564 23.0002C9.47144 23.0002 11.1745 22.2947 12.4302 21.0391C13.6859 19.7834 14.3913 18.0803 14.3913 16.3045C14.3913 14.5287 13.6859 12.8257 12.4302 11.57C11.1745 10.3143 9.47144 9.60889 7.69564 9.60889C5.91985 9.60889 4.21679 10.3143 2.96111 11.57C1.70543 12.8257 1 14.5287 1 16.3045C1 18.0803 1.70543 19.7834 2.96111 21.0391C4.21679 22.2947 5.91985 23.0002 7.69564 23.0002Z" stroke="#191919" stroke-linecap="round" stroke-linejoin="round"/>
<path d="M7.69561 23.0002C5.78257 21.5654 4.82605 18.6958 4.82605 16.3045C4.82605 13.9132 5.78257 11.0437 7.69561 9.60889" stroke="#191919" stroke-linecap="round" stroke-linejoin="round"/>
<path d="M7.69556 23.0002C9.6086 21.5654 10.5651 18.6958 10.5651 16.3045C10.5651 13.9132 9.6086 11.0437 7.69556 9.60889" stroke="#191919" stroke-linecap="round" stroke-linejoin="round"/>
<path d="M1.64453 13.4346H13.7464" stroke="#191919" stroke-linecap="round" stroke-linejoin="round"/>
<path d="M1.64453 19.1738H13.7464" stroke="#191919" stroke-linecap="round" stroke-linejoin="round"/>
<path d="M1 16.3042H14.3913" stroke="#191919" stroke-linecap="round" stroke-linejoin="round"/>
<path d="M12.8541 1C15.5287 1.05191 18.0793 2.13751 19.9709 4.02908C21.8624 5.92066 22.948 8.47123 22.9999 11.1458L17.542 11.0693C17.5183 9.85371 17.0248 8.69454 16.1651 7.83483C15.3054 6.97512 14.1462 6.48165 12.9306 6.45791L12.8541 1Z" fill="#C9F7CA"/>
<path d="M17.542 11.0694C17.5183 9.85381 17.0248 8.69464 16.1651 7.83493C15.3054 6.97522 14.1462 6.48176 12.9307 6.45801" stroke="#191919" stroke-linecap="round" stroke-linejoin="round"/>
<path d="M20.2709 11.1076C20.2332 9.16248 19.4437 7.30754 18.0681 5.93188C16.6924 4.55621 14.8375 3.76672 12.8923 3.729" stroke="#191919" stroke-linecap="round" stroke-linejoin="round"/>
<path d="M22.9999 11.1458C22.948 8.47123 21.8624 5.92066 19.9709 4.02908C18.0793 2.13751 15.5287 1.05191 12.8541 1" stroke="#191919" stroke-linecap="round" stroke-linejoin="round"/>
</g>
<defs>
<clipPath id="clip0_5303_6411">
<rect width="24" height="24" fill="white"/>
</clipPath>
</defs>
</svg>
