<svg width="24" height="24" viewBox="0 0 24 24" fill="none" xmlns="http://www.w3.org/2000/svg">
<g clip-path="url(#clip0_5303_10287)">
<path d="M12.0001 22.9982C18.0744 22.9982 22.9991 18.0734 22.9991 11.9991C22.9991 5.92472 18.0744 1 12.0001 1C5.9257 1 1.00098 5.92472 1.00098 11.9991C1.00098 18.0734 5.9257 22.9982 12.0001 22.9982Z" fill="#66E1FF"/>
<path d="M4.3136 14.8703C4.3133 12.9492 4.81616 11.0615 5.77213 9.39516C6.7281 7.72882 8.10384 6.34191 9.76241 5.37251C11.421 4.4031 13.3045 3.885 15.2255 3.86978C17.1466 3.85456 19.0381 4.34275 20.7118 5.28575C19.7165 3.99478 18.4467 2.94118 16.9942 2.20118C15.5418 1.46117 13.943 1.05325 12.3135 1.00694C10.6841 0.960634 9.0647 1.27708 7.57255 1.9334C6.08041 2.58972 4.7528 3.5695 3.68577 4.80185C2.61874 6.03421 1.83897 7.48833 1.40287 9.05902C0.96677 10.6297 0.885244 12.2777 1.16419 13.8838C1.44314 15.4898 2.07558 17.0138 3.01576 18.3455C3.95595 19.6771 5.18037 20.7831 6.60046 21.5835C5.11443 19.6615 4.30992 17.2998 4.3136 14.8703Z" fill="#C2F3FF"/>
<path d="M2.33838 17.2614H12.0147" stroke="#191919" stroke-linecap="round" stroke-linejoin="round"/>
<path d="M2.92529 5.78412H21.0824" stroke="#191919" stroke-linecap="round" stroke-linejoin="round"/>
<path d="M11.9998 11.5228H1.01123" stroke="#191919" stroke-linecap="round" stroke-linejoin="round"/>
<path d="M11.4048 22.9848C9.40249 22.8742 7.46847 22.2184 5.8119 21.0882C4.15532 19.958 2.83922 18.3964 2.0059 16.5724C1.17259 14.7483 0.853766 12.7312 1.08392 10.739C1.31406 8.74689 2.08442 6.85557 3.3117 5.26957C4.53897 3.68357 6.17645 2.46324 8.04709 1.74054C9.91773 1.01784 11.9503 0.82027 13.9251 1.16918C15.9 1.5181 17.7418 2.40022 19.2515 3.72018C20.7613 5.04013 21.8815 6.74769 22.491 8.65821" stroke="#191919" stroke-linecap="round" stroke-linejoin="round"/>
<path d="M11.3006 1.02673C5.5619 7.24361 5.66615 15.3332 11.4048 22.9847" stroke="#191919" stroke-linecap="round" stroke-linejoin="round"/>
<path d="M12.6982 1.02673C14.7219 3.14188 16.1071 5.78557 16.6943 8.6534" stroke="#191919" stroke-linecap="round" stroke-linejoin="round"/>
<path d="M22.999 23C22.999 21.7317 22.4952 20.5153 21.5983 19.6185C20.7015 18.7216 19.4851 18.2178 18.2168 18.2178C16.9485 18.2178 15.7321 18.7216 14.8352 19.6185C13.9384 20.5153 13.4346 21.7317 13.4346 23H22.999Z" fill="#E3E3E3" stroke="#191919" stroke-linecap="round" stroke-linejoin="round"/>
<path d="M18.217 16.7841C18.5938 16.7841 18.9669 16.7099 19.315 16.5657C19.6631 16.4215 19.9795 16.2102 20.2459 15.9437C20.5123 15.6773 20.7237 15.361 20.8679 15.0128C21.0121 14.6647 21.0863 14.2916 21.0863 13.9148C21.0863 13.538 21.0121 13.1649 20.8679 12.8168C20.7237 12.4686 20.5123 12.1523 20.2459 11.8859C19.9795 11.6194 19.6631 11.4081 19.315 11.2639C18.9669 11.1197 18.5938 11.0455 18.217 11.0455C17.456 11.0455 16.7262 11.3478 16.1881 11.8859C15.65 12.424 15.3477 13.1538 15.3477 13.9148C15.3477 14.6758 15.65 15.4056 16.1881 15.9437C16.7262 16.4818 17.456 16.7841 18.217 16.7841Z" fill="#E3E3E3" stroke="#191919" stroke-linecap="round" stroke-linejoin="round"/>
</g>
<defs>
<clipPath id="clip0_5303_10287">
<rect width="24" height="24" fill="white"/>
</clipPath>
</defs>
</svg>
