<svg width="24" height="24" viewBox="0 0 24 24" fill="none" xmlns="http://www.w3.org/2000/svg">
<path d="M12 21.0799C13.9041 21.0799 15.7303 20.3235 17.0767 18.977C18.4232 17.6306 19.1796 15.8044 19.1796 13.9002C19.1796 11.9961 18.4232 10.1699 17.0767 8.82345C15.7303 7.47701 13.9041 6.72058 12 6.72058C10.0958 6.72058 8.26963 7.47701 6.92318 8.82345C5.57674 10.1699 4.82031 11.9961 4.82031 13.9002C4.82031 15.8044 5.57674 17.6306 6.92318 18.977C8.26963 20.3235 10.0958 21.0799 12 21.0799Z" fill="#66E1FF"/>
<path d="M6.88868 15.9689C6.88884 14.6743 7.23906 13.4038 7.90227 12.2919C8.56547 11.18 9.51698 10.2682 10.6561 9.65287C11.7951 9.03757 13.0794 8.74171 14.3729 8.79663C15.6663 8.85154 16.9209 9.25519 18.0037 9.96482C17.4191 9.0716 16.6427 8.31996 15.731 7.76462C14.8193 7.20927 13.7953 6.8642 12.7334 6.7545C11.6715 6.64481 10.5986 6.77326 9.59258 7.1305C8.58661 7.48774 7.67295 8.06479 6.91809 8.81964C6.16324 9.5745 5.58619 10.4882 5.22895 11.4941C4.87171 12.5001 4.74326 13.5731 4.85295 14.6349C4.96265 15.6968 5.30772 16.7209 5.86307 17.6326C6.41841 18.5443 7.17005 19.3207 8.06327 19.9053C7.29497 18.7364 6.88657 17.3677 6.88868 15.9689Z" fill="#C2F3FF"/>
<path d="M12 21.0799C13.9041 21.0799 15.7303 20.3235 17.0767 18.977C18.4232 17.6306 19.1796 15.8044 19.1796 13.9002C19.1796 11.9961 18.4232 10.1699 17.0767 8.82345C15.7303 7.47701 13.9041 6.72058 12 6.72058C10.0958 6.72058 8.26963 7.47701 6.92318 8.82345C5.57674 10.1699 4.82031 11.9961 4.82031 13.9002C4.82031 15.8044 5.57674 17.6306 6.92318 18.977C8.26963 20.3235 10.0958 21.0799 12 21.0799Z" stroke="#191919" stroke-linecap="round" stroke-linejoin="round"/>
<path d="M12 6.72919V1.46411" stroke="#191919" stroke-linecap="round" stroke-linejoin="round"/>
<path d="M17.94 4.77441L16.8516 6.35107" stroke="#191919" stroke-linecap="round" stroke-linejoin="round"/>
<path d="M23.0002 12.4164L21.0942 12.6012" stroke="#191919" stroke-linecap="round" stroke-linejoin="round"/>
<path d="M5.00244 22.5359L6.25553 21.0885" stroke="#191919" stroke-linecap="round" stroke-linejoin="round"/>
<path d="M18.9977 22.5359L17.7437 21.0885" stroke="#191919" stroke-linecap="round" stroke-linejoin="round"/>
<path d="M1 12.3657L2.90596 12.5485" stroke="#191919" stroke-linecap="round" stroke-linejoin="round"/>
<path d="M6.2832 4.56287L7.31994 6.17302" stroke="#191919" stroke-linecap="round" stroke-linejoin="round"/>
<path d="M4.82031 13.9088H19.1796" stroke="#191919" stroke-linecap="round" stroke-linejoin="round"/>
<path d="M5.9209 10.0797H18.0784" stroke="#191919" stroke-linecap="round" stroke-linejoin="round"/>
<path d="M5.93066 17.738H18.0691" stroke="#191919" stroke-linecap="round" stroke-linejoin="round"/>
<path d="M11.9998 21.0885C13.586 21.0885 14.8716 17.8739 14.8716 13.9088C14.8716 9.94376 13.586 6.72919 11.9998 6.72919C10.4136 6.72919 9.12793 9.94376 9.12793 13.9088C9.12793 17.8739 10.4136 21.0885 11.9998 21.0885Z" stroke="#191919" stroke-linecap="round" stroke-linejoin="round"/>
</svg>
