<svg width="24" height="24" viewBox="0 0 24 24" fill="none" xmlns="http://www.w3.org/2000/svg">
<g clip-path="url(#clip0_5303_11165)">
<path d="M11.9994 17.9587C13.977 18.1725 15.9674 17.6933 17.6308 16.6027C19.2942 15.5121 20.5274 13.8778 21.1198 11.979C19.7812 11.9989 18.4567 11.7021 17.2546 11.1127C16.0526 10.5234 15.0068 9.65826 14.2026 8.58786C13.3985 7.51747 12.8588 6.27216 12.6275 4.95349C12.3962 3.63482 12.48 2.28016 12.8718 1C10.7165 1.0342 8.65468 1.88592 7.10359 3.38278C5.55249 4.87964 4.62798 6.90986 4.51712 9.06258C4.40627 11.2153 5.11735 13.3297 6.50649 14.978C7.89562 16.6262 9.85905 17.6853 11.9994 17.9407" fill="#FFF9BF"/>
<path d="M15.1846 13.7446V13.7276C13.1204 13.4726 11.2203 12.4733 9.84048 10.9171C8.46066 9.36087 7.69607 7.35466 7.6901 5.27482C7.69203 4.33616 7.85041 3.4044 8.15876 2.51782C6.74349 3.5021 5.66082 4.89332 5.05434 6.50699C4.44785 8.12067 4.34617 9.88058 4.7628 11.5533C5.17942 13.2261 6.09466 14.7327 7.38716 15.8735C8.67967 17.0141 10.2884 17.7351 12 17.9406V17.9576C13.9296 18.1657 15.8726 17.7136 17.5122 16.6752C19.1518 15.6366 20.391 14.0732 21.0274 12.2397C19.3261 13.4319 17.2501 13.9666 15.1846 13.7446Z" fill="#FFEF5E"/>
<path d="M8.00293 16.0052L12 12.0081L15.9971 16.0052" stroke="#191919" stroke-linecap="round" stroke-linejoin="round"/>
<path d="M1.00781 23H22.9918" stroke="#191919" stroke-linecap="round" stroke-linejoin="round"/>
<path d="M18.0309 16.3467C19.4995 15.2661 20.5824 13.7428 21.1207 12.0009C19.7816 12.021 18.4569 11.7241 17.2545 11.1346C16.0522 10.5451 15.0061 9.67968 14.2019 8.60891C13.3978 7.53813 12.8581 6.29239 12.6271 4.97332C12.3961 3.65426 12.4803 2.29927 12.8727 1.01892C11.3168 1.04021 9.79682 1.4889 8.47884 2.31594C7.16087 3.14299 6.09568 4.31651 5.39979 5.7082C4.7039 7.09989 4.40408 8.65614 4.53315 10.2067C4.66221 11.7573 5.21517 13.2426 6.13157 14.5001" stroke="#191919" stroke-linecap="round" stroke-linejoin="round"/>
<path d="M12 12.0081V21.0016" stroke="#191919" stroke-linecap="round" stroke-linejoin="round"/>
</g>
<defs>
<clipPath id="clip0_5303_11165">
<rect width="24" height="24" fill="white"/>
</clipPath>
</defs>
</svg>
