<svg width="24" height="24" viewBox="0 0 24 24" fill="none" xmlns="http://www.w3.org/2000/svg">
<g clip-path="url(#clip0_5303_5045)">
<path d="M23 1.95652V15.3478H16.3043C16.0507 15.3478 15.8073 15.4487 15.628 15.628C15.4486 15.8072 15.3478 16.0507 15.3478 16.3043V23H1.95652C1.70285 23 1.45952 22.8992 1.28012 22.7199C1.10083 22.5405 1 22.2972 1 22.0435V1.95652C1 1.70285 1.10083 1.45952 1.28012 1.28012C1.45952 1.10083 1.70285 1 1.95652 1H22.0435C22.2972 1 22.5405 1.10083 22.7199 1.28012C22.8992 1.45952 23 1.70285 23 1.95652Z" fill="#FFEF5E"/>
<path d="M22.9998 15.3478L15.3477 23V16.3043C15.3477 16.0507 15.4485 15.8073 15.6278 15.6279C15.8071 15.4485 16.0505 15.3478 16.3042 15.3478H22.9998Z" fill="#FFBC44"/>
<path d="M23 1.95652V15.3478H16.3043C16.0507 15.3478 15.8073 15.4487 15.628 15.628C15.4486 15.8072 15.3478 16.0507 15.3478 16.3043V23H1.95652C1.70285 23 1.45952 22.8992 1.28012 22.7199C1.10083 22.5405 1 22.2972 1 22.0435V1.95652C1 1.70285 1.10083 1.45952 1.28012 1.28012C1.45952 1.10083 1.70285 1 1.95652 1H22.0435C22.2972 1 22.5405 1.10083 22.7199 1.28012C22.8992 1.45952 23 1.70285 23 1.95652Z" stroke="#191919" stroke-linecap="round" stroke-linejoin="round"/>
<path d="M22.9998 15.3478L15.3477 23V16.3043C15.3477 16.0507 15.4485 15.8073 15.6278 15.6279C15.8071 15.4485 16.0505 15.3478 16.3042 15.3478H22.9998Z" stroke="#191919" stroke-linecap="round" stroke-linejoin="round"/>
<path d="M5.3042 10.0439L6.26072 9.08739C6.51449 8.83391 6.85855 8.6915 7.21724 8.6915C7.57594 8.6915 7.91999 8.83391 8.17376 9.08739C8.42754 9.34086 8.77159 9.48327 9.13029 9.48327C9.48898 9.48327 9.83304 9.34086 10.0868 9.08739C10.3406 8.83391 10.6846 8.6915 11.0433 8.6915C11.402 8.6915 11.7461 8.83391 11.9999 9.08739C12.2536 9.34086 12.5977 9.48327 12.9564 9.48327C13.3151 9.48327 13.6591 9.34086 13.9129 9.08739C14.1667 8.83391 14.5107 8.6915 14.8694 8.6915C15.2281 8.6915 15.5722 8.83391 15.8259 9.08739C16.0797 9.34086 16.4238 9.48327 16.7825 9.48327C17.1412 9.48327 17.4852 9.34086 17.739 9.08739L18.6955 8.13086" stroke="#191919" stroke-linecap="round" stroke-linejoin="round"/>
<path d="M5.3042 14.8265L6.26072 13.87C6.51449 13.6165 6.85855 13.4741 7.21724 13.4741C7.57594 13.4741 7.91999 13.6165 8.17376 13.87C8.42754 14.1235 8.77159 14.2659 9.13029 14.2659C9.48898 14.2659 9.83304 14.1235 10.0868 13.87" stroke="#191919" stroke-linecap="round" stroke-linejoin="round"/>
</g>
<defs>
<clipPath id="clip0_5303_5045">
<rect width="24" height="24" fill="white"/>
</clipPath>
</defs>
</svg>
