<svg width="24" height="24" viewBox="0 0 24 24" fill="none" xmlns="http://www.w3.org/2000/svg">
<path d="M22.0435 3.86958V17.2609H17.2609C17.0072 17.2609 16.7639 17.3617 16.5845 17.541C16.4052 17.7204 16.3044 17.9637 16.3044 18.2174V23H2.91306C2.65938 23 2.41608 22.8992 2.2367 22.7198C2.05732 22.5405 1.95654 22.2971 1.95654 22.0435V3.86958C1.95654 3.61589 2.05732 3.3726 2.2367 3.19321C2.41608 3.01383 2.65938 2.91306 2.91306 2.91306H21.087C21.3406 2.91306 21.584 3.01383 21.7633 3.19321C21.9427 3.3726 22.0435 3.61589 22.0435 3.86958Z" fill="white"/>
<path d="M22.0433 17.2609L16.3042 23V18.2174C16.3042 17.9637 16.405 17.7204 16.5844 17.541C16.7637 17.3617 17.0071 17.2609 17.2607 17.2609H22.0433Z" fill="#E3E3E3"/>
<path d="M4.82617 1V5.30434" stroke="#191919" stroke-linecap="round" stroke-linejoin="round"/>
<path d="M9.60889 1V5.30434" stroke="#191919" stroke-linecap="round" stroke-linejoin="round"/>
<path d="M14.3911 1V5.30434" stroke="#191919" stroke-linecap="round" stroke-linejoin="round"/>
<path d="M19.1738 1V5.30434" stroke="#191919" stroke-linecap="round" stroke-linejoin="round"/>
<path d="M9.60903 7.69565L6.73947 10.5652L5.30469 9.13043" stroke="#191919" stroke-linecap="round" stroke-linejoin="round"/>
<path d="M9.60903 12.9565L6.73947 15.8261L5.30469 14.3913" stroke="#191919" stroke-linecap="round" stroke-linejoin="round"/>
<path d="M11.5215 9.6087H17.7389" stroke="#191919" stroke-linecap="round" stroke-linejoin="round"/>
<path d="M11.5215 14.3913H17.7389" stroke="#191919" stroke-linecap="round" stroke-linejoin="round"/>
<path d="M22.0435 3.86958V17.2609H17.2609C17.0072 17.2609 16.7639 17.3617 16.5845 17.541C16.4052 17.7204 16.3044 17.9637 16.3044 18.2174V23H2.91306C2.65938 23 2.41608 22.8992 2.2367 22.7198C2.05732 22.5405 1.95654 22.2971 1.95654 22.0435V3.86958C1.95654 3.61589 2.05732 3.3726 2.2367 3.19321C2.41608 3.01383 2.65938 2.91306 2.91306 2.91306H21.087C21.3406 2.91306 21.584 3.01383 21.7633 3.19321C21.9427 3.3726 22.0435 3.61589 22.0435 3.86958Z" stroke="#191919" stroke-linecap="round" stroke-linejoin="round"/>
<path d="M22.0433 17.2609L16.3042 23V18.2174C16.3042 17.9637 16.405 17.7204 16.5844 17.541C16.7637 17.3617 17.0071 17.2609 17.2607 17.2609H22.0433Z" stroke="#191919" stroke-linecap="round" stroke-linejoin="round"/>
</svg>
