<svg width="24" height="24" viewBox="0 0 24 24" fill="none" xmlns="http://www.w3.org/2000/svg">
<g clip-path="url(#clip0_5303_5033)">
<path d="M15.3476 2.91226H1.9565C1.70282 2.91226 1.45953 3.01303 1.28015 3.19241C1.10077 3.37179 1 3.61508 1 3.86876V19.1728C1 19.4265 1.10077 19.6698 1.28015 19.8492C1.45953 20.0286 1.70282 20.1293 1.9565 20.1293H15.3476C15.6012 20.1293 15.8445 20.0286 16.0239 19.8492C16.2033 19.6698 16.3041 19.4265 16.3041 19.1728V3.86876C16.3041 3.61508 16.2033 3.37179 16.0239 3.19241C15.8445 3.01303 15.6012 2.91226 15.3476 2.91226Z" fill="white"/>
<path d="M9.60854 20.1293H1.9565C1.70282 20.1293 1.45953 20.0286 1.28015 19.8492C1.10077 19.6698 1 19.4265 1 19.1728V3.86876C1 3.61508 1.10077 3.37179 1.28015 3.19241C1.45953 3.01303 1.70282 2.91226 1.9565 2.91226H15.3476C15.6012 2.91226 15.8445 3.01303 16.0239 3.19241C16.2033 3.37179 16.3041 3.61508 16.3041 3.86876V8.65128" stroke="#191919" stroke-linecap="round" stroke-linejoin="round"/>
<path d="M4.82617 4.82623V1.00021" stroke="#191919" stroke-linecap="round" stroke-linejoin="round"/>
<path d="M8.65234 4.82623V1.00021" stroke="#191919" stroke-linecap="round" stroke-linejoin="round"/>
<path d="M12.4775 4.82623V1.00021" stroke="#191919" stroke-linecap="round" stroke-linejoin="round"/>
<path d="M17.261 22.9998C18.7831 22.9998 20.2428 22.3952 21.3191 21.3189C22.3954 20.2426 23 18.7829 23 17.2608C23 15.7387 22.3954 14.279 21.3191 13.2027C20.2428 12.1264 18.7831 11.5218 17.261 11.5218C15.7389 11.5218 14.2792 12.1264 13.2029 13.2027C12.1266 14.279 11.522 15.7387 11.522 17.2608C11.522 18.7829 12.1266 20.2426 13.2029 21.3189C14.2792 22.3952 15.7389 22.9998 17.261 22.9998Z" fill="#66E1FF"/>
<path d="M17.2608 11.5218C16.0927 11.5208 14.9522 11.8766 13.9919 12.5416C13.0315 13.2065 12.2972 14.1489 11.8871 15.2426C11.4769 16.3363 11.4106 17.5292 11.6969 18.6617C11.9833 19.7941 12.6086 20.8121 13.4893 21.5794L21.5794 13.4893C21.0424 12.8712 20.379 12.3757 19.6339 12.0363C18.8888 11.6968 18.0795 11.5213 17.2608 11.5218Z" fill="#C2F3FF"/>
<path d="M17.261 22.9998C18.7831 22.9998 20.2428 22.3952 21.3191 21.3189C22.3954 20.2426 23 18.7829 23 17.2608C23 15.7387 22.3954 14.279 21.3191 13.2027C20.2428 12.1264 18.7831 11.5218 17.261 11.5218C15.7389 11.5218 14.2792 12.1264 13.2029 13.2027C12.1266 14.279 11.522 15.7387 11.522 17.2608C11.522 18.7829 12.1266 20.2426 13.2029 21.3189C14.2792 22.3952 15.7389 22.9998 17.261 22.9998Z" stroke="#191919" stroke-linecap="round" stroke-linejoin="round"/>
<path d="M17.2603 20.1351V14.3961" stroke="#191919" stroke-linecap="round" stroke-linejoin="round"/>
<path d="M17.2605 14.3961L15.1084 16.5482" stroke="#191919" stroke-linecap="round" stroke-linejoin="round"/>
<path d="M17.2603 14.3961L19.4124 16.5482" stroke="#191919" stroke-linecap="round" stroke-linejoin="round"/>
</g>
<defs>
<clipPath id="clip0_5303_5033">
<rect width="24" height="24" fill="white"/>
</clipPath>
</defs>
</svg>
