<svg width="24" height="24" viewBox="0 0 24 24" fill="none" xmlns="http://www.w3.org/2000/svg">
<path d="M17.7624 1H4.14332C3.56474 1 3.0957 1.46904 3.0957 2.04762V21.9524C3.0957 22.531 3.56474 23 4.14332 23H17.7624C18.341 23 18.81 22.531 18.81 21.9524V2.04762C18.81 1.46904 18.341 1 17.7624 1Z" fill="#C77F67"/>
<path d="M14.6187 8.85716C14.6187 8.99608 14.5635 9.12932 14.4654 9.22754C14.3671 9.32578 14.2338 9.38097 14.0949 9.38097H8.85682C8.71789 9.38097 8.58466 9.32578 8.48643 9.22754C8.3882 9.12932 8.33301 8.99608 8.33301 8.85716V5.7143C8.33301 5.57538 8.3882 5.44214 8.48643 5.34391C8.58466 5.24568 8.71789 5.19049 8.85682 5.19049H14.0949C14.2338 5.19049 14.3671 5.24568 14.4654 5.34391C14.5635 5.44214 14.6187 5.57538 14.6187 5.7143V8.85716Z" fill="white"/>
<path d="M2.04736 4.14285H5.19022" stroke="#191919" stroke-linecap="round" stroke-linejoin="round"/>
<path d="M2.04736 9.38095H5.19022" stroke="#191919" stroke-linecap="round" stroke-linejoin="round"/>
<path d="M2.04736 14.6191H5.19022" stroke="#191919" stroke-linecap="round" stroke-linejoin="round"/>
<path d="M2.04736 19.8571H5.19022" stroke="#191919" stroke-linecap="round" stroke-linejoin="round"/>
<path d="M21.9529 4.14283V7.28569H18.8101V3.09521H20.9053C21.1831 3.09521 21.4496 3.20559 21.6461 3.40205C21.8425 3.59852 21.9529 3.86498 21.9529 4.14283Z" fill="#66E1FF"/>
<path d="M21.9529 7.28571H18.8101V11.4762H21.9529V7.28571Z" fill="#FFEF5E"/>
<path d="M21.9529 11.4762H18.8101V15.6667H21.9529V11.4762Z" fill="#FF808C"/>
<path d="M21.9529 15.6667V18.8095C21.9529 19.0873 21.8425 19.3539 21.6461 19.5503C21.4496 19.7467 21.1831 19.8571 20.9053 19.8571H18.8101V15.6667H21.9529Z" fill="#B2FFC0"/>
<path d="M17.7624 1H4.14332C3.56474 1 3.0957 1.46904 3.0957 2.04762V21.9524C3.0957 22.531 3.56474 23 4.14332 23H17.7624C18.341 23 18.81 22.531 18.81 21.9524V2.04762C18.81 1.46904 18.341 1 17.7624 1Z" stroke="#191919" stroke-linecap="round" stroke-linejoin="round"/>
<path d="M14.6187 8.85716C14.6187 8.99608 14.5635 9.12932 14.4654 9.22754C14.3671 9.32578 14.2338 9.38097 14.0949 9.38097H8.85682C8.71789 9.38097 8.58466 9.32578 8.48643 9.22754C8.3882 9.12932 8.33301 8.99608 8.33301 8.85716V5.7143C8.33301 5.57538 8.3882 5.44214 8.48643 5.34391C8.58466 5.24568 8.71789 5.19049 8.85682 5.19049H14.0949C14.2338 5.19049 14.3671 5.24568 14.4654 5.34391C14.5635 5.44214 14.6187 5.57538 14.6187 5.7143V8.85716Z" stroke="#191919" stroke-linecap="round" stroke-linejoin="round"/>
<path d="M21.9529 4.14283V7.28569H18.8101V3.09521H20.9053C21.1831 3.09521 21.4496 3.20559 21.6461 3.40205C21.8425 3.59852 21.9529 3.86498 21.9529 4.14283Z" stroke="#191919" stroke-linecap="round" stroke-linejoin="round"/>
<path d="M21.9529 7.28571H18.8101V11.4762H21.9529V7.28571Z" stroke="#191919" stroke-linecap="round" stroke-linejoin="round"/>
<path d="M21.9529 11.4762H18.8101V15.6667H21.9529V11.4762Z" stroke="#191919" stroke-linecap="round" stroke-linejoin="round"/>
<path d="M21.9529 15.6667V18.8095C21.9529 19.0873 21.8425 19.3539 21.6461 19.5503C21.4496 19.7467 21.1831 19.8571 20.9053 19.8571H18.8101V15.6667H21.9529Z" stroke="#191919" stroke-linecap="round" stroke-linejoin="round"/>
</svg>
