<svg width="24" height="24" viewBox="0 0 24 24" fill="none" xmlns="http://www.w3.org/2000/svg">
<g clip-path="url(#clip0_5303_10240)">
<path d="M1 22.5589V6.94997C1.00527 6.70145 1.10895 6.46518 1.28827 6.29303C1.46759 6.12088 1.7079 6.02693 1.95643 6.0318H9.60787C9.8564 6.02693 10.0967 6.12088 10.276 6.29303C10.4554 6.46518 10.559 6.70145 10.5643 6.94997V22.5589" fill="#E3E3E3"/>
<path d="M9.60787 6.03182H1.95643C1.83333 6.02928 1.71095 6.05102 1.59626 6.09579C1.48156 6.14056 1.37682 6.20749 1.288 6.29276C1.19918 6.37802 1.12803 6.47995 1.07862 6.59273C1.0292 6.70549 1.00249 6.82689 1 6.94999V9.70451C1.00527 9.45599 1.10895 9.21972 1.28827 9.04756C1.46759 8.87542 1.7079 8.78147 1.95643 8.78634H9.60787C9.8564 8.78147 10.0967 8.87542 10.276 9.04756C10.4554 9.21972 10.559 9.45599 10.5643 9.70451V6.94999C10.5618 6.82689 10.5351 6.70549 10.4856 6.59273C10.4363 6.47995 10.3651 6.37802 10.2763 6.29276C10.1875 6.20749 10.0827 6.14056 9.96805 6.09579C9.85336 6.05102 9.73097 6.02928 9.60787 6.03182Z" fill="white"/>
<path d="M1 22.5589V6.94997C1.00527 6.70145 1.10895 6.46518 1.28827 6.29303C1.46759 6.12088 1.7079 6.02693 1.95643 6.0318H9.60787C9.8564 6.02693 10.0967 6.12088 10.276 6.29303C10.4554 6.46518 10.559 6.70145 10.5643 6.94997V22.5589" stroke="#191919" stroke-linecap="round" stroke-linejoin="round"/>
<path d="M21.0857 16.5908C21.3382 16.6025 21.5903 16.563 21.8273 16.4747C22.0641 16.3864 22.2806 16.2512 22.4639 16.0773C22.6424 15.9078 22.7825 15.702 22.8747 15.4739C22.9669 15.2457 23.0092 15.0003 22.9985 14.7545C23.0086 14.5091 22.966 14.2643 22.8736 14.0366C22.7813 13.8089 22.6412 13.6037 22.4629 13.4346C22.28 13.2602 22.0637 13.1245 21.8271 13.0359C21.5903 12.9471 21.3382 12.907 21.0857 12.9182C20.9269 12.8981 20.7663 12.8981 20.6075 12.9182C20.6171 12.7833 20.6075 12.5978 20.6075 12.4591C20.6075 10.221 19.2618 8.78638 17.7382 8.78638C15.8253 8.78638 14.8689 10.221 14.8689 12.4591C14.9211 13.1021 15.0876 13.7308 15.3605 14.3155C15.105 14.1913 14.8221 14.1341 14.5384 14.1495C14.2548 14.1647 13.9797 14.2522 13.7391 14.4032C13.4986 14.5543 13.3004 14.7642 13.1634 15.0131C13.0264 15.2619 12.955 15.5416 12.9561 15.8257C12.9646 16.2701 13.1409 16.6948 13.4496 17.0145C13.725 17.2775 14.0483 18.0284 18.2164 18.0284C18.7822 18.0894 19.3536 17.9862 19.8624 17.7314C20.3712 17.4765 20.7958 17.0805 21.0857 16.5908Z" fill="#78EB7B"/>
<path d="M7.69482 22.559V18.9628" stroke="#191919" stroke-linecap="round" stroke-linejoin="round"/>
<path d="M13.4341 22.559V18.9628" stroke="#191919" stroke-linecap="round" stroke-linejoin="round"/>
<path d="M5.78223 18.8862H15.3465" stroke="#191919" stroke-linecap="round" stroke-linejoin="round"/>
<path d="M7.69487 3.73641C7.69363 3.67486 7.68026 3.61416 7.65555 3.55777C7.63085 3.50139 7.59527 3.45043 7.55087 3.40779C7.50646 3.36517 7.45408 3.3317 7.39674 3.30931C7.3394 3.28692 7.2782 3.27605 7.21665 3.27732H4.34736C4.28582 3.27605 4.22462 3.28692 4.16727 3.30931C4.10992 3.3317 4.05755 3.36517 4.01315 3.40779C3.96873 3.45043 3.93316 3.50139 3.90845 3.55777C3.88374 3.61416 3.87039 3.67486 3.86914 3.73641V6.03184H7.69487V3.73641Z" fill="#FF808C" stroke="#191919" stroke-linecap="round" stroke-linejoin="round"/>
<path d="M5.78223 3.27732V1.44098" stroke="#191919" stroke-linecap="round" stroke-linejoin="round"/>
<path d="M2.91309 8.78638H8.65166" stroke="#191919" stroke-linecap="round" stroke-linejoin="round"/>
<path d="M2.91309 12.459H8.65166" stroke="#191919" stroke-linecap="round" stroke-linejoin="round"/>
<path d="M2.91309 16.1317H8.65166" stroke="#191919" stroke-linecap="round" stroke-linejoin="round"/>
<path d="M1 22.5589H22.0414" stroke="#191919" stroke-linecap="round" stroke-linejoin="round"/>
<path d="M18.2158 12.9191V22.1773" stroke="#191919" stroke-linecap="round" stroke-linejoin="round"/>
<path d="M18.2163 18.4272C17.6029 18.4127 17.0173 18.1689 16.5747 17.744C16.1321 17.3192 15.8647 16.744 15.8252 16.1317" stroke="#191919" stroke-linecap="round" stroke-linejoin="round"/>
<path d="M18.2158 15.6726C19.1002 15.6798 19.9546 15.3517 20.6069 14.7545" stroke="#191919" stroke-linecap="round" stroke-linejoin="round"/>
<path d="M21.0857 16.5908C21.3382 16.6025 21.5903 16.563 21.8273 16.4747C22.0641 16.3864 22.2806 16.2512 22.4639 16.0773C22.6424 15.9078 22.7825 15.702 22.8747 15.4739C22.9669 15.2457 23.0092 15.0003 22.9985 14.7545C23.0086 14.5091 22.966 14.2643 22.8736 14.0366C22.7813 13.8089 22.6412 13.6037 22.4629 13.4346C22.28 13.2602 22.0637 13.1245 21.8271 13.0359C21.5903 12.9471 21.3382 12.907 21.0857 12.9182C20.9269 12.8981 20.7663 12.8981 20.6075 12.9182C20.6171 12.7833 20.6075 12.5978 20.6075 12.4591C20.6075 10.221 19.2618 8.78638 17.7382 8.78638C15.8253 8.78638 14.8689 10.221 14.8689 12.4591C14.9211 13.1021 15.0876 13.7308 15.3605 14.3155C15.105 14.1913 14.8221 14.1341 14.5384 14.1495C14.2548 14.1647 13.9797 14.2522 13.7391 14.4032C13.4986 14.5543 13.3004 14.7642 13.1634 15.0131C13.0264 15.2619 12.955 15.5416 12.9561 15.8257C12.9646 16.2701 13.1409 16.6948 13.4496 17.0145" stroke="#191919" stroke-linecap="round" stroke-linejoin="round"/>
</g>
<defs>
<clipPath id="clip0_5303_10240">
<rect width="24" height="24" fill="white"/>
</clipPath>
</defs>
</svg>
