<svg width="24" height="24" viewBox="0 0 24 24" fill="none" xmlns="http://www.w3.org/2000/svg">
<g clip-path="url(#clip0_5303_10120)">
<path d="M5.78223 7.69565V1.8867C5.78223 1.7701 5.80522 1.65463 5.8499 1.54693C5.89459 1.43923 5.96007 1.34139 6.04261 1.25903C6.12515 1.17667 6.22313 1.1114 6.33093 1.06695C6.43873 1.0225 6.55423 0.999752 6.67083 1H15.1839C15.4193 1.0001 15.6449 1.09369 15.8114 1.26018L17.9559 3.40374C18.1224 3.57049 18.216 3.79651 18.2161 4.03217V7.69565" fill="#E3E3E3"/>
<path d="M15.1839 1H6.67083C6.55423 0.999752 6.43873 1.0225 6.33093 1.06695C6.22313 1.1114 6.12515 1.17667 6.04261 1.25903C5.96007 1.34139 5.89459 1.43923 5.8499 1.54693C5.80522 1.65463 5.78223 1.7701 5.78223 1.8867V7.69565H11.4334L16.8406 2.28939L15.8114 1.26018C15.6449 1.09369 15.4193 1.0001 15.1839 1Z" fill="white"/>
<path d="M22.0435 9.6087H1.95652C1.70283 9.6087 1.45954 9.70948 1.28016 9.88886C1.10078 10.0682 1 10.3116 1 10.5652V14.3913C1 14.645 1.10078 14.8883 1.28016 15.0677C1.45954 15.247 1.70283 15.3478 1.95652 15.3478H5.78261V12.4783H17.2609V15.3478H22.0435C22.2971 15.3478 22.5405 15.247 22.7198 15.0677C22.8992 14.8883 23 14.645 23 14.3913V10.5652C23 10.3116 22.8992 10.0682 22.7198 9.88886C22.5405 9.70948 22.2971 9.6087 22.0435 9.6087Z" fill="#E3E3E3"/>
<path d="M17.2605 12.4783H5.78223V15.3478H17.2605V12.4783Z" fill="#B2B2B2"/>
<path d="M3.86957 15.3478H1.95652C1.70283 15.3478 1.45954 15.247 1.28016 15.0677C1.10078 14.8883 1 14.645 1 14.3913V10.5652C1 10.3116 1.10078 10.0682 1.28016 9.88886C1.45954 9.70948 1.70283 9.6087 1.95652 9.6087H22.0435C22.2971 9.6087 22.5405 9.70948 22.7198 9.88886C22.8992 10.0682 23 10.3116 23 10.5652V14.3913C23 14.645 22.8992 14.8883 22.7198 15.0677C22.5405 15.247 22.2971 15.3478 22.0435 15.3478H19.1739" stroke="#191919" stroke-linecap="round" stroke-linejoin="round"/>
<path d="M18.695 21.087C18.3145 21.087 17.9495 20.9358 17.6804 20.6668C17.4113 20.3977 17.2602 20.0327 17.2602 19.6522V12.4783H5.78195V19.6522C5.78195 20.0327 5.63078 20.3977 5.36171 20.6668C5.09264 20.9358 4.72769 21.087 4.34717 21.087" stroke="#191919" stroke-linecap="round" stroke-linejoin="round"/>
<path d="M4.82568 12.4783H18.217" stroke="#191919" stroke-linecap="round" stroke-linejoin="round"/>
<path d="M8.65137 12.4783V23" stroke="#191919" stroke-linecap="round" stroke-linejoin="round"/>
<path d="M11.521 12.4783V23" stroke="#191919" stroke-linecap="round" stroke-linejoin="round"/>
<path d="M14.3906 12.4783V23" stroke="#191919" stroke-linecap="round" stroke-linejoin="round"/>
<path d="M5.78223 7.69565V1.8867C5.78223 1.7701 5.80522 1.65463 5.8499 1.54693C5.89459 1.43923 5.96007 1.34139 6.04261 1.25903C6.12515 1.17667 6.22313 1.1114 6.33093 1.06695C6.43873 1.0225 6.55423 0.999752 6.67083 1H15.1839C15.4193 1.0001 15.6449 1.09369 15.8114 1.26018L17.9559 3.40374C18.1224 3.57049 18.216 3.79651 18.2161 4.03217V7.69565" stroke="#191919" stroke-linecap="round" stroke-linejoin="round"/>
<path d="M20.8475 12.7175C20.7154 12.7175 20.6084 12.6104 20.6084 12.4783C20.6084 12.3462 20.7154 12.2392 20.8475 12.2392" stroke="#191919"/>
<path d="M20.8472 12.7175C20.9793 12.7175 21.0863 12.6104 21.0863 12.4783C21.0863 12.3462 20.9793 12.2392 20.8472 12.2392" stroke="#191919"/>
</g>
<defs>
<clipPath id="clip0_5303_10120">
<rect width="24" height="24" fill="white"/>
</clipPath>
</defs>
</svg>
