<svg width="24" height="24" viewBox="0 0 24 24" fill="none" xmlns="http://www.w3.org/2000/svg">
<path d="M1 6.26084C1 6.00715 1.10078 5.76386 1.28016 5.58448C1.45954 5.4051 1.70283 5.30432 1.95652 5.30432H22.0435C22.2971 5.30432 22.5405 5.4051 22.7198 5.58448C22.8992 5.76386 23 6.00715 23 6.26084V20.6087C23 20.8623 22.8992 21.1057 22.7198 21.285C22.5405 21.4644 22.2971 21.5652 22.0435 21.5652H1.95652C1.70283 21.5652 1.45954 21.4644 1.28016 21.285C1.10078 21.1057 1 20.8623 1 20.6087V6.26084Z" fill="#E3E3E3"/>
<path d="M22.736 5.6085C22.6477 5.51288 22.5406 5.43652 22.4215 5.38418C22.3023 5.33185 22.1737 5.30466 22.0435 5.30432H1.95652C1.70283 5.30432 1.45954 5.4051 1.28016 5.58448C1.10078 5.76386 1 6.00715 1 6.26084V20.6087C1 20.8623 1.10078 21.1057 1.28016 21.285C1.45954 21.4644 1.70283 21.5652 1.95652 21.5652H6.78026L22.736 5.6085Z" fill="white"/>
<path d="M1 6.26084C1 6.00715 1.10078 5.76386 1.28016 5.58448C1.45954 5.4051 1.70283 5.30432 1.95652 5.30432H22.0435C22.2971 5.30432 22.5405 5.4051 22.7198 5.58448C22.8992 5.76386 23 6.00715 23 6.26084V20.6087C23 20.8623 22.8992 21.1057 22.7198 21.285C22.5405 21.4644 22.2971 21.5652 22.0435 21.5652H1.95652C1.70283 21.5652 1.45954 21.4644 1.28016 21.285C1.10078 21.1057 1 20.8623 1 20.6087V6.26084Z" stroke="#191919" stroke-linecap="round" stroke-linejoin="round"/>
<path d="M3.86912 7.21736V11.5217C3.86912 11.9022 4.02029 12.2672 4.28936 12.5363C4.55843 12.8054 4.92338 12.9565 5.3039 12.9565C5.68443 12.9565 6.04938 12.8054 6.31845 12.5363C6.58752 12.2672 6.73868 11.9022 6.73868 11.5217V4.3478C6.73868 3.84043 6.53714 3.35384 6.17836 2.99507C5.8196 2.6363 5.33301 2.43475 4.82564 2.43475C4.31827 2.43475 3.83168 2.6363 3.47292 2.99507C3.11415 3.35384 2.9126 3.84043 2.9126 4.3478V5.30432" stroke="#191919" stroke-linecap="round" stroke-linejoin="round"/>
<path d="M9.60889 10.087H20.1306" stroke="#191919" stroke-linecap="round" stroke-linejoin="round"/>
<path d="M8.65137 13.913H20.1296" stroke="#191919" stroke-linecap="round" stroke-linejoin="round"/>
<path d="M3.86963 17.7391H20.1305" stroke="#191919" stroke-linecap="round" stroke-linejoin="round"/>
</svg>
