<svg width="24" height="24" viewBox="0 0 24 24" fill="none" xmlns="http://www.w3.org/2000/svg">
<g clip-path="url(#clip0_5303_10417)">
<path d="M2.9126 8.65216V3.86955C2.9126 3.61586 3.01338 3.37258 3.19275 3.19319C3.37214 3.01381 3.61543 2.91302 3.86912 2.91302H11.9996C12.148 2.91302 12.2945 2.94759 12.4273 3.014C12.5602 3.08042 12.6757 3.17684 12.7648 3.29563L13.9126 4.82607H20.13C20.3837 4.82607 20.627 4.92685 20.8063 5.10622C20.9857 5.28561 21.0865 5.5289 21.0865 5.78259V8.65216" fill="#E3E3E3"/>
<path d="M2.9126 12.4781V7.69554C2.9126 7.44185 3.01338 7.19856 3.19275 7.01917C3.37214 6.83979 3.61543 6.73901 3.86912 6.73901H11.9996C12.148 6.73901 12.2945 6.77358 12.4273 6.83999C12.5602 6.9064 12.6757 7.00282 12.7648 7.12162L13.9126 8.65206H20.13C20.3837 8.65206 20.627 8.75284 20.8063 8.93221C20.9857 9.1116 21.0865 9.35489 21.0865 9.60858V12.4781" fill="white"/>
<path d="M2.9126 12.4781V7.69554C2.9126 7.44185 3.01338 7.19856 3.19275 7.01917C3.37214 6.83979 3.61543 6.73901 3.86912 6.73901H11.9996C12.148 6.73901 12.2945 6.77358 12.4273 6.83999C12.5602 6.9064 12.6757 7.00282 12.7648 7.12162L13.9126 8.65206H20.13C20.3837 8.65206 20.627 8.75284 20.8063 8.93221C20.9857 9.1116 21.0865 9.35489 21.0865 9.60858V12.4781" stroke="#191919" stroke-linecap="round" stroke-linejoin="round"/>
<path d="M1 13.4347C1 13.181 1.10078 12.9377 1.28016 12.7583C1.45954 12.579 1.70283 12.4781 1.95652 12.4781H22.0435C22.2971 12.4781 22.5405 12.579 22.7198 12.7583C22.8992 12.9377 23 13.181 23 13.4347V20.1303C23 20.384 22.8992 20.6273 22.7198 20.8067C22.5405 20.986 22.2971 21.0868 22.0435 21.0868H1.95652C1.70283 21.0868 1.45954 20.986 1.28016 20.8067C1.10078 20.6273 1 20.384 1 20.1303V13.4347Z" fill="#E3BFB3"/>
<path d="M22.0435 18.2174H1.95652C1.70283 18.2174 1.45954 18.1166 1.28016 17.9372C1.10078 17.7579 1 17.5145 1 17.2609V20.1304C1 20.3841 1.10078 20.6274 1.28016 20.8068C1.45954 20.9861 1.70283 21.0869 1.95652 21.0869H22.0435C22.2971 21.0869 22.5405 20.9861 22.7198 20.8068C22.8992 20.6274 23 20.3841 23 20.1304V17.2609C23 17.5145 22.8992 17.7579 22.7198 17.9372C22.5405 18.1166 22.2971 18.2174 22.0435 18.2174Z" fill="#C77F67"/>
<path d="M1 13.4347C1 13.181 1.10078 12.9377 1.28016 12.7583C1.45954 12.579 1.70283 12.4781 1.95652 12.4781H22.0435C22.2971 12.4781 22.5405 12.579 22.7198 12.7583C22.8992 12.9377 23 13.181 23 13.4347V20.1303C23 20.384 22.8992 20.6273 22.7198 20.8067C22.5405 20.986 22.2971 21.0868 22.0435 21.0868H1.95652C1.70283 21.0868 1.45954 20.986 1.28016 20.8067C1.10078 20.6273 1 20.384 1 20.1303V13.4347Z" stroke="#191919" stroke-linecap="round" stroke-linejoin="round"/>
<path d="M2.9126 4.82607V3.86955C2.9126 3.61586 3.01338 3.37258 3.19275 3.19319C3.37214 3.01381 3.61543 2.91302 3.86912 2.91302H11.9996C12.148 2.91302 12.2945 2.94759 12.4273 3.014C12.5602 3.08042 12.6757 3.17683 12.7648 3.29563L13.9126 4.82607H20.13C20.3837 4.82607 20.627 4.92685 20.8063 5.10622C20.9857 5.28561 21.0865 5.5289 21.0865 5.78259" stroke="#191919" stroke-linecap="round" stroke-linejoin="round"/>
<path d="M9.13037 15.3477H14.8695" stroke="#191919" stroke-linecap="round" stroke-linejoin="round"/>
</g>
<defs>
<clipPath id="clip0_5303_10417">
<rect width="24" height="24" fill="white"/>
</clipPath>
</defs>
</svg>
