<svg width="24" height="24" viewBox="0 0 24 24" fill="none" xmlns="http://www.w3.org/2000/svg">
<g clip-path="url(#clip0_5303_10184)">
<path d="M18.8937 4.82609C19.0731 5.00543 19.1738 5.24869 19.1739 5.50235V22.0435C19.1739 22.2971 19.0731 22.5405 18.8937 22.7198C18.7144 22.8992 18.4711 23 18.2174 23H1.95652C1.70283 23 1.45954 22.8992 1.28016 22.7198C1.10078 22.5405 1 22.2971 1 22.0435V1.95652C1 1.70284 1.10078 1.45955 1.28016 1.28016C1.45954 1.10078 1.70283 1 1.95652 1H14.6716C14.9249 0.9993 15.168 1.09905 15.3478 1.2774L18.8937 4.82609Z" fill="#E3E3E3"/>
<path d="M17.0897 3.01922L15.3478 1.2774C15.168 1.09905 14.9249 0.9993 14.6716 1H1.95652C1.70283 1 1.45954 1.10078 1.28016 1.28016C1.10078 1.45955 1 1.70284 1 1.95652V19.1089L17.0897 3.01922Z" fill="white"/>
<path d="M8.65217 23H1.95652C1.70283 23 1.45954 22.8992 1.28016 22.7198C1.10078 22.5405 1 22.2971 1 22.0435V1.95652C1 1.70283 1.10078 1.45954 1.28016 1.28016C1.45954 1.10078 1.70283 1 1.95652 1H14.6716C14.9246 0.999663 15.1675 1.09897 15.3478 1.27644L18.8937 4.82609C19.0731 5.00542 19.1738 5.24869 19.1739 5.50235V8.65217" stroke="#191919" stroke-linecap="round" stroke-linejoin="round"/>
<path d="M12.478 22.56H22.9998" stroke="#191919" stroke-linecap="round" stroke-linejoin="round"/>
<path d="M21.0867 17.9697H19.1737V14.7452C19.5714 14.466 19.8678 14.0651 20.0182 13.603C20.1687 13.141 20.1649 12.6425 20.0078 12.1827C19.8339 11.7215 19.5236 11.3242 19.1183 11.0439C18.7129 10.7635 18.2318 10.6133 17.7389 10.6133C17.246 10.6133 16.7649 10.7635 16.3595 11.0439C15.9542 11.3242 15.6439 11.7215 15.47 12.1827C15.3129 12.6425 15.3091 13.141 15.4596 13.603C15.61 14.0651 15.9064 14.466 16.3041 14.7452V17.9697H14.3911C13.8939 17.9596 13.4131 18.1475 13.0543 18.4918C12.6956 18.8363 12.4884 19.309 12.478 19.8062V20.7244H22.9998V19.8062C22.9894 19.309 22.7822 18.8363 22.4235 18.4918C22.0647 18.1475 21.5839 17.9596 21.0867 17.9697Z" fill="#FF808C" stroke="#191919" stroke-linecap="round" stroke-linejoin="round"/>
</g>
<defs>
<clipPath id="clip0_5303_10184">
<rect width="24" height="24" fill="white"/>
</clipPath>
</defs>
</svg>
