<svg width="24" height="24" viewBox="0 0 24 24" fill="none" xmlns="http://www.w3.org/2000/svg">
<g clip-path="url(#clip0_5303_3722)">
<path d="M20.8067 4.82609C20.9862 5.00542 21.0869 5.24869 21.087 5.50235V22.0435C21.087 22.2971 20.9862 22.5405 20.8068 22.7198C20.6275 22.8992 20.3841 23 20.1305 23H3.86961C3.61592 23 3.37263 22.8992 3.19324 22.7198C3.01387 22.5405 2.91309 22.2971 2.91309 22.0435V1.95652C2.91309 1.70284 3.01387 1.45954 3.19324 1.28016C3.37263 1.10078 3.61592 1 3.86961 1H16.5847C16.838 0.999549 17.0813 1.09965 17.2609 1.27835L20.8067 4.82609Z" fill="#E3E3E3"/>
<path d="M19.0027 3.02113L17.2609 1.27835C17.0813 1.09965 16.838 0.999549 16.5847 1H3.86961C3.61592 1 3.37263 1.10078 3.19324 1.28016C3.01387 1.45954 2.91309 1.70284 2.91309 1.95652V19.1098L19.0027 3.02113Z" fill="white"/>
<path d="M15.3695 16.5148C14.6023 17.157 13.6677 17.5669 12.6756 17.6962C11.6835 17.8256 10.6752 17.6692 9.7689 17.2453C8.86264 16.8215 8.09619 16.1477 7.55961 15.3033C7.02303 14.4588 6.7386 13.4788 6.73975 12.4783H12.0006L15.3695 16.5148Z" fill="#FFBFC5"/>
<path d="M17.2614 12.4782C17.2632 13.2491 17.0943 14.0109 16.7668 14.7088C16.4393 15.4066 15.9614 16.0234 15.3674 16.5148L12.0005 12.4782L14.9657 8.13559C15.6739 8.61692 16.2534 9.26439 16.6536 10.0214C17.0538 10.7784 17.2624 11.622 17.2614 12.4782Z" fill="#FFF9BF"/>
<path d="M12.0006 14.7567C11.148 14.7569 10.3081 14.5496 9.55353 14.1527C8.79894 13.7557 8.15232 13.181 7.66949 12.4783H6.73975C6.73891 13.4784 7.02343 14.4581 7.55993 15.3021C8.09641 16.1461 8.86259 16.8197 9.76849 17.2435C10.6744 17.6673 11.6824 17.8239 12.6742 17.6949C13.666 17.5657 14.6003 17.1563 15.3676 16.5148L13.6659 14.4736C13.13 14.6583 12.5675 14.7539 12.0006 14.7567Z" fill="#FF808C"/>
<path d="M15.3696 13.5304C14.8655 13.9467 14.2886 14.2658 13.668 14.4716L15.3696 16.5128C16.1615 15.8584 16.7427 14.9847 17.0401 14.0013C17.3376 13.018 17.338 11.9687 17.0416 10.9851C16.7501 11.981 16.1679 12.8674 15.3696 13.5304Z" fill="#FFEF5E"/>
<path d="M15.3695 16.5148C14.6023 17.157 13.6677 17.5669 12.6756 17.6962C11.6835 17.8256 10.6752 17.6692 9.7689 17.2453C8.86264 16.8215 8.09619 16.1477 7.55961 15.3033C7.02303 14.4588 6.7386 13.4788 6.73975 12.4783H12.0006L15.3695 16.5148Z" stroke="#191919" stroke-linecap="round" stroke-linejoin="round"/>
<path d="M17.2614 12.4782C17.2632 13.2491 17.0943 14.0109 16.7668 14.7088C16.4393 15.4066 15.9614 16.0234 15.3674 16.5148L12.0005 12.4782L14.9657 8.13559C15.6739 8.61692 16.2534 9.26439 16.6536 10.0214C17.0538 10.7784 17.2624 11.622 17.2614 12.4782Z" stroke="#191919" stroke-linecap="round" stroke-linejoin="round"/>
<path d="M14.9658 8.1357L12.0006 12.4783H6.73975C6.74029 11.5215 7.00175 10.583 7.49597 9.76378C7.9902 8.94454 8.69847 8.27558 9.54458 7.82892C10.3907 7.38225 11.3426 7.17478 12.2978 7.22883C13.2531 7.28289 14.1756 7.59642 14.9658 8.1357Z" fill="#66E1FF" stroke="#191919" stroke-linecap="round" stroke-linejoin="round"/>
<path d="M20.8067 4.82609C20.9862 5.00542 21.0869 5.24869 21.087 5.50235V22.0435C21.087 22.2971 20.9862 22.5405 20.8068 22.7198C20.6275 22.8992 20.3841 23 20.1305 23H3.86961C3.61592 23 3.37263 22.8992 3.19324 22.7198C3.01387 22.5405 2.91309 22.2971 2.91309 22.0435V1.95652C2.91309 1.70284 3.01387 1.45954 3.19324 1.28016C3.37263 1.10078 3.61592 1 3.86961 1H16.5847C16.838 0.999549 17.0813 1.09965 17.2609 1.27835L20.8067 4.82609Z" stroke="#191919" stroke-linecap="round" stroke-linejoin="round"/>
</g>
<defs>
<clipPath id="clip0_5303_3722">
<rect width="24" height="24" fill="white"/>
</clipPath>
</defs>
</svg>
