<svg width="24" height="24" viewBox="0 0 24 24" fill="none" xmlns="http://www.w3.org/2000/svg">
<g clip-path="url(#clip0_5303_3623)">
<path d="M20.8067 4.82609C20.9862 5.00542 21.0869 5.24869 21.087 5.50235V22.0435C21.087 22.2971 20.9862 22.5405 20.8068 22.7198C20.6275 22.8992 20.3841 23 20.1305 23H3.86961C3.61592 23 3.37263 22.8992 3.19324 22.7198C3.01387 22.5405 2.91309 22.2971 2.91309 22.0435V1.95652C2.91309 1.70284 3.01387 1.45954 3.19324 1.28016C3.37263 1.10078 3.61592 1 3.86961 1H16.5847C16.838 0.999549 17.0813 1.09965 17.2609 1.27835L20.8067 4.82609Z" fill="#FF808C"/>
<path d="M19.0027 3.02113L17.2609 1.27835C17.0813 1.09965 16.838 0.999549 16.5847 1H3.86961C3.61592 1 3.37263 1.10078 3.19324 1.28016C3.01387 1.45954 2.91309 1.70284 2.91309 1.95652V19.1098L19.0027 3.02113Z" fill="#FFBFC5"/>
<path d="M20.8067 4.82609C20.9862 5.00542 21.0869 5.24869 21.087 5.50235V22.0435C21.087 22.2971 20.9862 22.5405 20.8068 22.7198C20.6275 22.8992 20.3841 23 20.1305 23H3.86961C3.61592 23 3.37263 22.8992 3.19324 22.7198C3.01387 22.5405 2.91309 22.2971 2.91309 22.0435V1.95652C2.91309 1.70284 3.01387 1.45954 3.19324 1.28016C3.37263 1.10078 3.61592 1 3.86961 1H16.5847C16.838 0.999549 17.0813 1.09965 17.2609 1.27835L20.8067 4.82609Z" stroke="#191919" stroke-linecap="round" stroke-linejoin="round"/>
<path d="M6.60698 7.11313C5.79298 5.77305 7.74045 4.53913 8.24932 5.91557C9.12071 8.27531 10.522 14.6591 7.36071 18.9979C6.4788 20.207 4.57628 19.062 5.59976 17.8023C7.06515 16.0739 8.89233 14.6885 10.9521 13.744C13.0119 12.7996 15.254 12.3192 17.5199 12.3367C19.1154 12.397 19.0331 14.663 17.606 14.4889C15.3279 14.1909 13.1496 13.3701 11.2413 12.0906C9.33311 10.811 7.74762 9.10751 6.60698 7.11313Z" stroke="#191919" stroke-linecap="round" stroke-linejoin="round"/>
</g>
<defs>
<clipPath id="clip0_5303_3623">
<rect width="24" height="24" fill="white"/>
</clipPath>
</defs>
</svg>
