<svg width="24" height="24" viewBox="0 0 24 24" fill="none" xmlns="http://www.w3.org/2000/svg">
<path d="M20.4396 5.12498C20.6116 5.29685 20.7081 5.52997 20.7082 5.77306V21.625C20.7082 21.8681 20.6116 22.1013 20.4397 22.2732C20.2678 22.445 20.0346 22.5416 19.7915 22.5416H4.20817C3.96505 22.5416 3.7319 22.445 3.55999 22.2732C3.38808 22.1013 3.2915 21.8681 3.2915 21.625V2.37498C3.2915 2.13187 3.38808 1.89871 3.55999 1.7268C3.7319 1.55489 3.96505 1.45831 4.20817 1.45831H16.3934C16.6362 1.45788 16.8694 1.55382 17.0415 1.72506L20.4396 5.12498Z" fill="#E3E3E3"/>
<path d="M18.7108 3.39523L17.0415 1.72506C16.8694 1.55382 16.6362 1.45788 16.3934 1.45831H4.20817C3.96505 1.45831 3.7319 1.55489 3.55999 1.7268C3.38808 1.89871 3.2915 2.13187 3.2915 2.37498V18.8136L18.7108 3.39523Z" fill="white"/>
<path d="M14.2915 6.04169H17.9582" stroke="#191919" stroke-linecap="round" stroke-linejoin="round"/>
<path d="M6.0415 14.2917H17.9582" stroke="#191919" stroke-linecap="round" stroke-linejoin="round"/>
<path d="M6.0415 17.0417H17.9582" stroke="#191919" stroke-linecap="round" stroke-linejoin="round"/>
<path d="M6.0415 19.7917H17.9582" stroke="#191919" stroke-linecap="round" stroke-linejoin="round"/>
<path d="M14.2915 8.79169H17.9582" stroke="#191919" stroke-linecap="round" stroke-linejoin="round"/>
<path d="M14.2915 11.5417H17.9582" stroke="#191919" stroke-linecap="round" stroke-linejoin="round"/>
<path d="M6.0415 6.04167V5.125H11.5415V6.04167" stroke="#191919" stroke-linecap="round" stroke-linejoin="round"/>
<path d="M8.7915 5.125V11.5417" stroke="#191919" stroke-linecap="round" stroke-linejoin="round"/>
<path d="M6.9585 11.5417H10.6252" stroke="#191919" stroke-linecap="round" stroke-linejoin="round"/>
<path d="M20.4396 5.12498C20.6116 5.29685 20.7081 5.52997 20.7082 5.77306V21.625C20.7082 21.8681 20.6116 22.1013 20.4397 22.2732C20.2678 22.445 20.0346 22.5416 19.7915 22.5416H4.20817C3.96505 22.5416 3.7319 22.445 3.55999 22.2732C3.38808 22.1013 3.2915 21.8681 3.2915 21.625V2.37498C3.2915 2.13187 3.38808 1.89871 3.55999 1.7268C3.7319 1.55489 3.96505 1.45831 4.20817 1.45831H16.3934C16.6362 1.45788 16.8694 1.55382 17.0415 1.72506L20.4396 5.12498Z" stroke="#191919" stroke-linecap="round" stroke-linejoin="round"/>
</svg>
