<svg width="24" height="24" viewBox="0 0 24 24" fill="none" xmlns="http://www.w3.org/2000/svg">
<g clip-path="url(#clip0_5303_10087)">
<path d="M22.0425 22.9979C22.1567 23.007 22.2713 22.987 22.3757 22.9399C22.4801 22.8928 22.5709 22.82 22.6396 22.7283C22.7083 22.6367 22.7527 22.5292 22.7689 22.4158C22.7848 22.3024 22.7719 22.1867 22.7312 22.0797L19.9192 12.4389C19.8315 12.1804 19.6676 11.9544 19.4491 11.7905C19.2307 11.6267 18.9679 11.5326 18.695 11.5208H5.30498C5.03218 11.5326 4.76933 11.6267 4.55089 11.7905C4.33245 11.9544 4.16858 12.1804 4.08073 12.4389L1.26886 22.0778C1.22816 22.1848 1.21528 22.3004 1.23128 22.4138C1.24719 22.5273 1.2917 22.6348 1.36041 22.7265C1.42913 22.818 1.5199 22.8908 1.62433 22.938C1.72867 22.985 1.84336 23.005 1.95746 22.9959H5.78324C6.03691 22.9959 6.28014 22.8951 6.45953 22.7158C6.63883 22.5365 6.73966 22.2932 6.73966 22.0395V21.5632C6.73966 21.1828 6.89075 20.8178 7.15984 20.5487C7.42894 20.2797 7.79378 20.1285 8.17434 20.1285C8.5548 20.1285 8.91974 20.2797 9.18873 20.5487C9.45783 20.8178 9.60892 21.1828 9.60892 21.5632V22.0414C9.60892 22.2951 9.70974 22.5384 9.88904 22.7177C10.0684 22.8971 10.3117 22.9978 10.5653 22.9978H13.4346C13.6883 22.9978 13.9316 22.8971 14.1109 22.7177C14.2904 22.5384 14.391 22.2951 14.391 22.0414V21.5632C14.391 21.1828 14.5423 20.8178 14.8113 20.5487C15.0803 20.2796 15.4452 20.1285 15.8257 20.1285C16.2062 20.1285 16.5711 20.2797 16.8402 20.5487C17.1093 20.8177 17.2604 21.1828 17.2604 21.5632V22.0414C17.2604 22.2951 17.3611 22.5384 17.5405 22.7177C17.7199 22.897 17.9631 22.9978 18.2168 22.9978L22.0425 22.9979Z" fill="#B2B2B2"/>
<path d="M3.94675 14.8022H20.053C20.2625 14.815 20.4674 14.8692 20.6556 14.962L19.9191 12.4379C19.8312 12.1795 19.6672 11.9538 19.4488 11.79C19.2304 11.6264 18.9676 11.5326 18.6949 11.5208H5.30491C5.0321 11.5326 4.76926 11.6267 4.55082 11.7905C4.33238 11.9543 4.1685 12.1804 4.08066 12.4389L3.34424 14.9638C3.53252 14.871 3.73729 14.8161 3.94675 14.8022Z" fill="#E3E3E3"/>
<path d="M22.0425 22.9979C22.1567 23.007 22.2713 22.987 22.3757 22.9399C22.4801 22.8928 22.5709 22.82 22.6396 22.7283C22.7083 22.6367 22.7527 22.5292 22.7689 22.4158C22.7848 22.3024 22.7719 22.1867 22.7312 22.0797L19.9192 12.4389C19.8315 12.1804 19.6676 11.9544 19.4491 11.7905C19.2307 11.6267 18.9679 11.5326 18.695 11.5208H5.30498C5.03218 11.5326 4.76933 11.6267 4.55089 11.7905C4.33245 11.9544 4.16858 12.1804 4.08073 12.4389L1.26886 22.0778C1.22816 22.1848 1.21528 22.3004 1.23128 22.4138C1.24719 22.5273 1.2917 22.6348 1.36041 22.7265C1.42913 22.818 1.5199 22.8908 1.62433 22.938C1.72867 22.985 1.84336 23.005 1.95746 22.9959H5.78324C6.03691 22.9959 6.28014 22.8951 6.45953 22.7158C6.63883 22.5365 6.73966 22.2932 6.73966 22.0395V21.5632C6.73966 21.1828 6.89075 20.8178 7.15984 20.5487C7.42894 20.2797 7.79378 20.1285 8.17434 20.1285C8.5548 20.1285 8.91974 20.2797 9.18873 20.5487C9.45783 20.8178 9.60892 21.1828 9.60892 21.5632V22.0414C9.60892 22.2951 9.70974 22.5384 9.88904 22.7177C10.0684 22.8971 10.3117 22.9978 10.5653 22.9978H13.4346C13.6883 22.9978 13.9316 22.8971 14.1109 22.7177C14.2904 22.5384 14.391 22.2951 14.391 22.0414V21.5632C14.391 21.1828 14.5423 20.8178 14.8113 20.5487C15.0803 20.2796 15.4452 20.1285 15.8257 20.1285C16.2062 20.1285 16.5711 20.2797 16.8402 20.5487C17.1093 20.8177 17.2604 21.1828 17.2604 21.5632V22.0414C17.2604 22.2951 17.3611 22.5384 17.5405 22.7177C17.7199 22.897 17.9631 22.9978 18.2168 22.9978L22.0425 22.9979Z" stroke="#191919" stroke-linecap="round" stroke-linejoin="round"/>
<path d="M16.3044 20.2012L14.556 7.88625C14.529 7.6967 14.5594 7.50335 14.6435 7.33127C14.7276 7.1592 14.8614 7.0164 15.0275 6.92124C15.5223 6.6867 15.9456 6.32468 16.254 5.87239C16.5625 5.41999 16.745 4.89371 16.7826 4.34742C16.7826 2.49578 14.6421 1 12.0005 1C9.35881 1 7.21826 2.49578 7.21826 4.34742C7.25574 4.89381 7.43807 5.42038 7.74649 5.87288C8.05502 6.32546 8.47843 6.68757 8.97338 6.92221C9.1393 7.01728 9.27302 7.15998 9.35706 7.33186C9.44109 7.50374 9.47174 7.6968 9.4449 7.88625L7.69652 20.2012" stroke="#191919" stroke-linecap="round" stroke-linejoin="round"/>
</g>
<defs>
<clipPath id="clip0_5303_10087">
<rect width="24" height="24" fill="white"/>
</clipPath>
</defs>
</svg>
