<svg width="24" height="24" viewBox="0 0 24 24" fill="none" xmlns="http://www.w3.org/2000/svg">
<path d="M12.0005 21.087V17.2609" stroke="#191919" stroke-linecap="round" stroke-linejoin="round"/>
<path d="M17.7397 15.3478C18.274 15.3293 18.7873 15.1356 19.2007 14.7967C19.6141 14.4577 19.9047 13.9924 20.0277 13.4721L20.6093 10.5652" stroke="#191919" stroke-linecap="round" stroke-linejoin="round"/>
<path d="M6.26116 15.3478C5.7269 15.3293 5.21355 15.1356 4.80015 14.7967C4.38673 14.4577 4.09616 13.9924 3.97317 13.4721L3.3916 10.5652" stroke="#191919" stroke-linecap="round" stroke-linejoin="round"/>
<path d="M17.7395 5.7826C17.7395 7.21738 15.3482 13.7122 15.3482 13.7122C14.2454 13.5 13.123 13.407 12.0004 13.4348C10.8777 13.407 9.75531 13.5 8.65253 13.7122C8.65253 13.7122 6.26123 7.21738 6.26123 5.7826C6.26123 3.3913 8.48227 1.27739 10.9979 1.04783C11.3136 1.01913 11.6484 1 12.0023 1C12.3562 1 12.6814 1.01913 12.997 1.04783C15.5223 1.27739 17.7395 3.3913 17.7395 5.7826Z" fill="#FF808C"/>
<path d="M10.9979 4.59652C11.3136 4.56782 11.6484 4.54869 12.0023 4.54869C12.3562 4.54869 12.6814 4.56782 12.997 4.59652C13.9252 4.68603 14.8145 5.0131 15.5795 5.5462C16.3445 6.0793 16.9592 6.80046 17.3645 7.64017C17.5557 7.0362 17.6814 6.41344 17.7395 5.7826C17.7395 3.3913 15.5223 1.27739 12.997 1.04783C12.6814 1.01913 12.3466 1 12.0004 1C11.6541 1 11.3117 1.01913 10.996 1.04783C8.48227 1.27739 6.26123 3.3913 6.26123 5.7826C6.32155 6.41375 6.44983 7.03655 6.64384 7.64017C7.04737 6.80181 7.65989 6.08145 8.42246 5.54838C9.18503 5.01532 10.072 4.68752 10.9979 4.59652Z" fill="#FFBFC5"/>
<path d="M17.7395 5.7826C17.7395 7.21738 15.3482 13.7122 15.3482 13.7122C14.2454 13.5 13.123 13.407 12.0004 13.4348C10.8777 13.407 9.75531 13.5 8.65253 13.7122C8.65253 13.7122 6.26123 7.21738 6.26123 5.7826C6.26123 3.3913 8.48227 1.27739 10.9979 1.04783C11.3136 1.01913 11.6484 1 12.0023 1C12.3562 1 12.6814 1.01913 12.997 1.04783C15.5223 1.27739 17.7395 3.3913 17.7395 5.7826Z" stroke="#191919" stroke-linecap="round" stroke-linejoin="round"/>
<path d="M12.001 23C12.1902 23 12.375 22.9439 12.5324 22.8388C12.6896 22.7337 12.8123 22.5843 12.8847 22.4095C12.9571 22.2348 12.976 22.0424 12.9391 21.8568C12.9022 21.6713 12.8111 21.5008 12.6773 21.3671C12.5436 21.2333 12.3731 21.1422 12.1876 21.1053C12.002 21.0684 11.8096 21.0873 11.6349 21.1597C11.4601 21.2321 11.3107 21.3548 11.2056 21.512C11.1005 21.6694 11.0444 21.8543 11.0444 22.0435C11.0444 22.2971 11.1453 22.5405 11.3246 22.7198C11.5039 22.8992 11.7473 23 12.001 23Z" fill="#808080" stroke="#191919" stroke-linecap="round" stroke-linejoin="round"/>
<path d="M16.7827 23C16.9719 23 17.1568 22.9439 17.3141 22.8388C17.4714 22.7337 17.594 22.5843 17.6664 22.4095C17.7388 22.2348 17.7578 22.0424 17.7208 21.8568C17.6839 21.6713 17.5929 21.5008 17.459 21.3671C17.3253 21.2333 17.1549 21.1422 16.9693 21.1053C16.7837 21.0684 16.5914 21.0873 16.4166 21.1597C16.2419 21.2321 16.0925 21.3548 15.9873 21.512C15.8822 21.6694 15.8262 21.8543 15.8262 22.0435C15.8262 22.2971 15.927 22.5405 16.1063 22.7198C16.2857 22.8992 16.529 23 16.7827 23Z" fill="#808080" stroke="#191919" stroke-linecap="round" stroke-linejoin="round"/>
<path d="M7.21775 23C7.40693 23 7.59187 22.9439 7.74917 22.8388C7.90646 22.7337 8.02906 22.5843 8.10146 22.4095C8.17386 22.2348 8.1928 22.0424 8.1559 21.8568C8.11898 21.6713 8.02789 21.5008 7.89412 21.3671C7.76034 21.2333 7.5899 21.1422 7.40436 21.1053C7.21881 21.0684 7.02649 21.0873 6.85171 21.1597C6.67692 21.2321 6.52754 21.3548 6.42243 21.512C6.31733 21.6694 6.26123 21.8543 6.26123 22.0435C6.26123 22.2971 6.36201 22.5405 6.54139 22.7198C6.72077 22.8992 6.96406 23 7.21775 23Z" fill="#808080" stroke="#191919" stroke-linecap="round" stroke-linejoin="round"/>
<path d="M7.21777 21.0869C7.82308 20.4332 8.56629 19.9224 9.3935 19.5915C10.2207 19.2606 11.1112 19.1179 12.0004 19.1739C12.8896 19.1181 13.78 19.2609 14.6072 19.5918C15.4343 19.9227 16.1775 20.4334 16.783 21.0869" stroke="#191919" stroke-linecap="round" stroke-linejoin="round"/>
<path d="M5.3046 10.0869C5.3046 10.2138 5.25421 10.3354 5.16452 10.4252C5.07483 10.5148 4.95318 10.5652 4.82634 10.5652H1.95678C1.82993 10.5652 1.70828 10.5148 1.6186 10.4252C1.52891 10.3354 1.47852 10.2138 1.47852 10.0869C1.47852 9.57956 1.68006 9.09297 2.03884 8.73421C2.3976 8.37544 2.88419 8.17389 3.39156 8.17389C3.89892 8.17389 4.38552 8.37544 4.74428 8.73421C5.10305 9.09297 5.3046 9.57956 5.3046 10.0869Z" fill="#FF808C" stroke="#191919" stroke-linecap="round" stroke-linejoin="round"/>
<path d="M22.5219 10.0869C22.5219 10.2138 22.4715 10.3354 22.3818 10.4252C22.2921 10.5148 22.1705 10.5652 22.0436 10.5652H19.1741C19.0472 10.5652 18.9256 10.5148 18.8358 10.4252C18.7462 10.3354 18.6958 10.2138 18.6958 10.0869C18.6958 9.57956 18.8973 9.09297 19.2561 8.73421C19.6149 8.37544 20.1015 8.17389 20.6088 8.17389C21.1162 8.17389 21.6028 8.37544 21.9616 8.73421C22.3203 9.09297 22.5219 9.57956 22.5219 10.0869Z" fill="#FF808C" stroke="#191919" stroke-linecap="round" stroke-linejoin="round"/>
<path d="M17.7395 15.0418V16.3044C17.7395 16.5581 17.6387 16.8014 17.4593 16.9808C17.28 17.1601 17.0366 17.2609 16.783 17.2609H7.21775C6.96408 17.2609 6.72077 17.1601 6.5414 16.9808C6.36201 16.8014 6.26123 16.5581 6.26123 16.3044V15.0418C6.26072 14.8413 6.32324 14.6456 6.43996 14.4826C6.55667 14.3195 6.72168 14.1973 6.91167 14.1331C7.48359 13.9602 8.0648 13.8196 8.65253 13.7122C9.75532 13.5001 10.8777 13.4071 12.0004 13.4348C13.7194 13.4018 15.4331 13.6374 17.0795 14.1331C17.2706 14.1968 17.4369 14.3186 17.5553 14.4816C17.6736 14.6445 17.738 14.8403 17.7395 15.0418Z" fill="#FF808C" stroke="#191919" stroke-linecap="round" stroke-linejoin="round"/>
</svg>
