<svg width="24" height="24" viewBox="0 0 24 24" fill="none" xmlns="http://www.w3.org/2000/svg">
<g clip-path="url(#clip0_5303_10190)">
<path d="M23.0002 14.3913H16.3047V18.2173H23.0002V14.3913Z" fill="#E3E3E3"/>
<path d="M22.9992 18.2172V22.0432C22.9992 22.2968 22.8984 22.5401 22.719 22.7195C22.5397 22.8988 22.2964 22.9996 22.0427 22.9996H17.2602C17.0065 22.9996 16.7632 22.8988 16.5839 22.7195C16.4045 22.5401 16.3037 22.2968 16.3037 22.0432V18.2172H22.9992Z" fill="#E3E3E3"/>
<path d="M16.3047 14.3913V18.2173H16.8977L20.7237 14.3913H16.3047Z" fill="white"/>
<path d="M16.3037 18.2172V22.0432C16.3076 22.2049 16.3538 22.3629 16.4376 22.5013L20.7227 18.2172H16.3037Z" fill="white"/>
<path d="M17.2606 2.91324V7.69572H3.86963V2.91324C3.86963 2.40588 4.07117 1.9193 4.42993 1.56055C4.78869 1.20179 5.27527 1.00024 5.78262 1.00024H15.3476C15.8544 1.00176 16.3401 1.20379 16.6986 1.56221C17.057 1.92065 17.2591 2.40634 17.2606 2.91324Z" fill="#66E1FF"/>
<path d="M5.78262 1.00024C5.27527 1.00024 4.78869 1.20179 4.42993 1.56055C4.07117 1.9193 3.86963 2.40588 3.86963 2.91324V7.69572H6.62243L13.3179 1.00024H5.78262Z" fill="#C2F3FF"/>
<path d="M22.9994 12.4783V14.3913H1V12.4783C1 12.2246 1.10077 11.9813 1.28015 11.8019C1.45953 11.6226 1.70281 11.5218 1.9565 11.5218H22.0429C22.2966 11.5218 22.5399 11.6226 22.7193 11.8019C22.8986 11.9813 22.9994 12.2246 22.9994 12.4783Z" fill="#C77F67" stroke="#191919" stroke-linecap="round" stroke-linejoin="round"/>
<path d="M23.0002 14.3913H16.3047V18.2173H23.0002V14.3913Z" stroke="#191919" stroke-linecap="round" stroke-linejoin="round"/>
<path d="M22.9992 18.2172V22.0432C22.9992 22.2968 22.8984 22.5401 22.719 22.7195C22.5397 22.8988 22.2964 22.9996 22.0427 22.9996H17.2602C17.0065 22.9996 16.7632 22.8988 16.5839 22.7195C16.4045 22.5401 16.3037 22.2968 16.3037 22.0432V18.2172H22.9992Z" stroke="#191919" stroke-linecap="round" stroke-linejoin="round"/>
<path d="M10.5645 9.6087V11.5217" stroke="#191919" stroke-linecap="round" stroke-linejoin="round"/>
<path d="M17.2606 2.91324V7.69572H3.86963V2.91324C3.86963 2.40588 4.07117 1.9193 4.42993 1.56055C4.78869 1.20179 5.27527 1.00024 5.78262 1.00024H15.3476C15.8544 1.00176 16.3401 1.20379 16.6986 1.56221C17.057 1.92065 17.2591 2.40634 17.2606 2.91324Z" stroke="#191919" stroke-linecap="round" stroke-linejoin="round"/>
<path d="M17.2606 7.69574C17.2591 8.20264 17.057 8.68833 16.6986 9.04676C16.3401 9.40519 15.8544 9.60722 15.3476 9.60873H5.78262C5.27527 9.60873 4.78869 9.40719 4.42993 9.04843C4.07117 8.68967 3.86963 8.20309 3.86963 7.69574H17.2606Z" fill="white" stroke="#191919" stroke-linecap="round" stroke-linejoin="round"/>
<path d="M1 14.3913V22.9998" stroke="#191919" stroke-linecap="round" stroke-linejoin="round"/>
</g>
<defs>
<clipPath id="clip0_5303_10190">
<rect width="24" height="24" fill="white"/>
</clipPath>
</defs>
</svg>
