<svg width="24" height="24" viewBox="0 0 24 24" fill="none" xmlns="http://www.w3.org/2000/svg">
<g clip-path="url(#clip0_5303_3664)">
<path d="M21.087 6.7133C21.0865 5.19787 20.4841 3.74467 19.4124 2.67327C18.3406 1.60187 16.8872 1 15.3718 1H3.86961C3.61592 1 3.37263 1.10078 3.19324 1.28016C3.01387 1.45954 2.91309 1.70283 2.91309 1.95652V22.0435C2.91309 22.2971 3.01387 22.5405 3.19324 22.7198C3.37263 22.8992 3.61592 23 3.86961 23H20.1104C20.3641 23 20.6074 22.8992 20.7867 22.7198C20.9661 22.5405 21.0669 22.2971 21.0669 22.0435L21.087 6.7133Z" fill="#78EB7B"/>
<path d="M19.3758 2.64043C18.3091 1.58789 16.8704 0.998445 15.3718 1H3.86961C3.61592 1 3.37263 1.10078 3.19324 1.28016C3.01387 1.45954 2.91309 1.70284 2.91309 1.95652V19.1031L19.3758 2.64043Z" fill="#C9F7CA"/>
<path d="M21.0117 5.78259H17.2612C17.0075 5.78259 16.7642 5.68181 16.5849 5.50242C16.4055 5.32304 16.3047 5.07974 16.3047 4.82606V1.08606C17.4822 1.27762 18.5698 1.83392 19.4143 2.67652C20.2589 3.51913 20.8176 4.60554 21.0117 5.78259Z" fill="#E3E3E3" stroke="#191919" stroke-linecap="round" stroke-linejoin="round"/>
<path d="M20.1305 23C20.3841 23 20.6275 22.8992 20.8068 22.7198C20.9862 22.5405 21.087 22.2971 21.087 22.0435V6.7133C21.0865 5.19787 20.4841 3.74467 19.4124 2.67327C18.3406 1.60187 16.8872 1 15.3718 1H3.86961C3.61592 1 3.37263 1.10078 3.19324 1.28016C3.01387 1.45954 2.91309 1.70283 2.91309 1.95652V22.0435C2.91309 22.2971 3.01387 22.5405 3.19324 22.7198C3.37263 22.8992 3.61592 23 3.86961 23H20.1305Z" stroke="#191919" stroke-linecap="round" stroke-linejoin="round"/>
<path d="M5.78271 18.1887L8.65228 12.4495" stroke="#191919" stroke-linecap="round" stroke-linejoin="round"/>
<path d="M8.65228 18.1887L5.78271 12.4495" stroke="#191919" stroke-linecap="round" stroke-linejoin="round"/>
<path d="M10.5654 12.4495V17.2321C10.5654 17.4858 10.6662 17.729 10.8456 17.9085C11.0249 18.0878 11.2683 18.1887 11.522 18.1887H13.435" stroke="#191919" stroke-linecap="round" stroke-linejoin="round"/>
<path d="M18.218 12.4495H16.5919C16.3234 12.4474 16.0615 12.5324 15.8453 12.6915C15.629 12.8507 15.4701 13.0756 15.3923 13.3325C15.3144 13.5895 15.3219 13.8647 15.4135 14.1171C15.505 14.3696 15.6759 14.5855 15.9004 14.7327L17.6604 15.9064C17.8845 16.0538 18.0548 16.2698 18.1462 16.5219C18.2374 16.7742 18.2447 17.0492 18.1669 17.3058C18.0892 17.5625 17.9305 17.7872 17.7145 17.9463C17.4986 18.1053 17.237 18.1904 16.9688 18.1887H15.3485" stroke="#191919" stroke-linecap="round" stroke-linejoin="round"/>
</g>
<defs>
<clipPath id="clip0_5303_3664">
<rect width="24" height="24" fill="white"/>
</clipPath>
</defs>
</svg>
