<svg width="24" height="24" viewBox="0 0 24 24" fill="none" xmlns="http://www.w3.org/2000/svg">
<g clip-path="url(#clip0_5303_10405)">
<path d="M5.30435 5.78284C5.7773 5.78284 6.23962 5.64259 6.63287 5.37983C7.02611 5.11708 7.3326 4.74362 7.51359 4.30667C7.69458 3.86972 7.74194 3.38892 7.64967 2.92506C7.5574 2.4612 7.32966 2.03512 6.99523 1.70069C6.66081 1.36627 6.23473 1.13852 5.77087 1.04625C5.307 0.953988 4.8262 1.00134 4.38925 1.18233C3.95231 1.36332 3.57884 1.66981 3.31609 2.06306C3.05333 2.4563 2.91309 2.91863 2.91309 3.39157C2.91309 4.02577 3.16502 4.63401 3.61347 5.08245C4.06192 5.5309 4.67015 5.78284 5.30435 5.78284Z" fill="#FFDDA1" stroke="#191919" stroke-linecap="round" stroke-linejoin="round"/>
<path d="M12 13.4349H22.5216" stroke="#191919" stroke-linecap="round" stroke-linejoin="round"/>
<path d="M22.9995 6.26117L21.3151 10.8916C21.2481 11.0761 21.1261 11.2356 20.9654 11.3483C20.8047 11.4611 20.6132 11.5218 20.4169 11.522H15.8257" stroke="#191919" stroke-linecap="round" stroke-linejoin="round"/>
<path d="M16.3042 13.4349V23" stroke="#191919" stroke-linecap="round" stroke-linejoin="round"/>
<path d="M2.43525 17.7392L1.00049 23" stroke="#191919" stroke-linecap="round" stroke-linejoin="round"/>
<path d="M1.00049 8.65247L2.43525 17.7393H5.30477" stroke="#191919" stroke-linecap="round" stroke-linejoin="round"/>
<path d="M12.3639 23C12.0828 23.0002 11.8079 22.9177 11.5731 22.7631C11.3385 22.6083 11.1545 22.388 11.0439 22.1296L9.5135 18.6087C9.40292 18.3507 9.21912 18.1309 8.98483 17.9763C8.75056 17.8218 8.4761 17.7393 8.19544 17.7392H5.30488C4.92436 17.7392 4.55941 17.5881 4.29035 17.319C4.02128 17.05 3.87012 16.685 3.87012 16.3045V8.65242C3.87013 8.35926 3.95994 8.07313 4.12748 7.83255C4.29502 7.59197 4.53223 7.40849 4.8072 7.30679C5.08216 7.20511 5.38167 7.19008 5.66543 7.26376C5.94919 7.33743 6.20357 7.49627 6.39434 7.71887L8.11605 9.72754C8.34073 9.98967 8.61951 10.2 8.93324 10.3442C9.24695 10.4883 9.58816 10.5628 9.93341 10.5626H12.4787C12.8592 10.5626 13.2242 10.7137 13.4932 10.9828C13.7623 11.2519 13.9134 11.6168 13.9134 11.9973C13.9134 12.3778 13.7623 12.7428 13.4932 13.0119C13.2242 13.2809 12.8592 13.4321 12.4787 13.4321H9.93437C8.77985 13.4341 7.65693 13.0551 6.73964 12.3541V14.8697H8.19544C9.03806 14.87 9.86209 15.1175 10.5654 15.5817C11.2686 16.0459 11.8201 16.7063 12.1515 17.481L13.682 21.0019C13.7751 21.2199 13.8127 21.4577 13.7914 21.6939C13.7701 21.9301 13.6907 22.1573 13.5601 22.3553C13.4295 22.5532 13.2519 22.7157 13.0432 22.8282C12.8344 22.9408 12.601 22.9998 12.3639 23Z" fill="#66E1FF" stroke="#191919" stroke-linecap="round" stroke-linejoin="round"/>
<path d="M20.6081 2.35379C19.5253 1.47787 18.1748 1 16.7821 1C15.3894 1 14.0388 1.47787 12.9561 2.35379" stroke="#191919" stroke-linecap="round" stroke-linejoin="round"/>
<path d="M14.5513 4.66376C15.1829 4.15313 15.9705 3.87457 16.7828 3.87457C17.5951 3.87457 18.3827 4.15313 19.0143 4.66376" stroke="#191919" stroke-linecap="round" stroke-linejoin="round"/>
<path d="M16.7821 7.21769C16.65 7.21769 16.543 7.11063 16.543 6.97857C16.543 6.8465 16.65 6.73944 16.7821 6.73944" stroke="#191919"/>
<path d="M16.7827 7.21769C16.9148 7.21769 17.0218 7.11063 17.0218 6.97857C17.0218 6.8465 16.9148 6.73944 16.7827 6.73944" stroke="#191919"/>
</g>
<defs>
<clipPath id="clip0_5303_10405">
<rect width="24" height="24" fill="white"/>
</clipPath>
</defs>
</svg>
