<svg width="24" height="24" viewBox="0 0 24 24" fill="none" xmlns="http://www.w3.org/2000/svg">
<g clip-path="url(#clip0_5303_10353)">
<path d="M3.8696 7.21747L1.287 13.2436C1.25521 13.3163 1.24207 13.396 1.24877 13.4752C1.25548 13.5544 1.28181 13.6307 1.32538 13.6971C1.36896 13.7636 1.42841 13.8181 1.49837 13.8558C1.56832 13.8935 1.64657 13.9132 1.72604 13.9131H22.275C22.3545 13.9132 22.4327 13.8935 22.5026 13.8558C22.5727 13.8181 22.6321 13.7636 22.6757 13.6971C22.7192 13.6307 22.7456 13.5544 22.7523 13.4752C22.759 13.396 22.7458 13.3163 22.714 13.2436L20.1305 7.21747H3.8696Z" fill="#E3BFB3"/>
<path d="M21.3634 10.0947C18.4188 11.4056 15.2228 12.056 12 12.0001C8.77725 12.056 5.58129 11.4056 2.63665 10.0947L1.287 13.2435C1.25521 13.3163 1.24207 13.396 1.24877 13.4752C1.25548 13.5544 1.28181 13.6306 1.32538 13.6971C1.36896 13.7635 1.42841 13.8181 1.49837 13.8558C1.56832 13.8935 1.64657 13.9132 1.72604 13.9131H22.275C22.3545 13.9132 22.4327 13.8935 22.5026 13.8558C22.5727 13.8181 22.6321 13.7635 22.6757 13.6971C22.7192 13.6306 22.7456 13.5544 22.7523 13.4752C22.759 13.396 22.7458 13.3163 22.714 13.2435L21.3634 10.0947Z" fill="#C77F67"/>
<path d="M2.84899 9.59825L1.287 13.2436C1.25521 13.3163 1.24207 13.396 1.24877 13.4752C1.25548 13.5544 1.28181 13.6307 1.32538 13.6971C1.36896 13.7636 1.42841 13.8181 1.49837 13.8558C1.56832 13.8935 1.64657 13.9132 1.72604 13.9131H22.275C22.3545 13.9132 22.4327 13.8935 22.5026 13.8558C22.5727 13.8181 22.6321 13.7636 22.6757 13.6971C22.7192 13.6307 22.7456 13.5544 22.7523 13.4752C22.759 13.396 22.7458 13.3163 22.714 13.2436L20.1305 7.21747H8.61395" stroke="#191919" stroke-linecap="round" stroke-linejoin="round"/>
<path d="M15.6412 12.0001H8.3602C8.28438 12.0002 8.20963 11.9822 8.1421 11.9477C8.07457 11.9132 8.01621 11.8632 7.97183 11.8018C7.92745 11.7403 7.89833 11.6691 7.88686 11.5941C7.87538 11.5192 7.88189 11.4426 7.90585 11.3707L8.54385 9.45762C8.57556 9.36243 8.63641 9.27961 8.71777 9.22091C8.79914 9.1622 8.89691 9.13057 8.99724 9.13049H15.0042C15.1045 9.13057 15.2023 9.1622 15.2837 9.22091C15.3651 9.27961 15.4259 9.36243 15.4576 9.45762L16.0956 11.3707C16.1196 11.4426 16.1261 11.5192 16.1146 11.5941C16.1031 11.6691 16.074 11.7403 16.0296 11.8018C15.9852 11.8632 15.9269 11.9132 15.8593 11.9477C15.7918 11.9822 15.7171 12.0002 15.6412 12.0001Z" fill="white" stroke="#191919" stroke-linecap="round" stroke-linejoin="round"/>
<path d="M11.0437 1H17.2611V1.95652C17.2611 2.21021 17.1603 2.4535 16.9809 2.63289C16.8016 2.81226 16.5582 2.91304 16.3046 2.91304H11.522C11.2683 2.91304 11.0249 2.81226 10.8456 2.63289C10.6662 2.4535 10.5654 2.21021 10.5654 1.95652V1.47826C10.5654 1.35142 10.6158 1.22977 10.7055 1.14008C10.7952 1.05039 10.9169 1 11.0437 1Z" fill="#FFEF5E" stroke="#191919" stroke-linecap="round" stroke-linejoin="round"/>
<path d="M17.2607 1C18.0218 1 18.7517 1.30233 19.2898 1.84048C19.828 2.37863 20.1303 3.10851 20.1303 3.86957V7.21739" stroke="#191919" stroke-linecap="round" stroke-linejoin="round"/>
<path d="M3.87012 5.78258C3.87012 5.65574 3.92051 5.53409 4.0102 5.4444C4.09988 5.35471 4.22153 5.30432 4.34838 5.30432H6.26142C6.38827 5.30432 6.50992 5.35471 6.5996 5.4444C6.68929 5.53409 6.73968 5.65574 6.73968 5.78258V7.69563C6.73968 7.82247 6.68929 7.94412 6.5996 8.0338C6.50992 8.1235 6.38827 8.17389 6.26142 8.17389H4.34838C4.22153 8.17389 4.09988 8.1235 4.0102 8.0338C3.92051 7.94412 3.87012 7.82247 3.87012 7.69563V5.78258Z" fill="#78EB7B" stroke="#191919" stroke-linecap="round" stroke-linejoin="round"/>
<path d="M4.82617 3.39136V5.3044" stroke="#191919" stroke-linecap="round" stroke-linejoin="round"/>
<path d="M5.78271 5.30435L6.73924 3.86957" stroke="#191919" stroke-linecap="round" stroke-linejoin="round"/>
<path d="M3.87005 13.913L1.00049 23" stroke="#191919" stroke-linecap="round" stroke-linejoin="round"/>
<path d="M3.87012 13.913L6.73968 23" stroke="#191919" stroke-linecap="round" stroke-linejoin="round"/>
<path d="M1.30225 22.0435H6.43685" stroke="#191919" stroke-linecap="round" stroke-linejoin="round"/>
<path d="M20.1303 13.913L17.2607 23" stroke="#191919" stroke-linecap="round" stroke-linejoin="round"/>
<path d="M20.1304 13.913L22.9999 23" stroke="#191919" stroke-linecap="round" stroke-linejoin="round"/>
<path d="M17.5635 22.0435H22.6981" stroke="#191919" stroke-linecap="round" stroke-linejoin="round"/>
</g>
<defs>
<clipPath id="clip0_5303_10353">
<rect width="24" height="24" fill="white"/>
</clipPath>
</defs>
</svg>
