<svg width="24" height="24" viewBox="0 0 24 24" fill="none" xmlns="http://www.w3.org/2000/svg">
<g clip-path="url(#clip0_5303_8751)">
<path d="M22.5791 10.5078L20.4269 10.24C20.2053 9.1859 19.7867 8.18312 19.193 7.28435L20.5322 5.56262C20.6037 5.47077 20.6393 5.35596 20.6323 5.23974C20.6252 5.12351 20.576 5.01385 20.4939 4.93131L19.0591 3.49653C18.9766 3.4144 18.8669 3.36519 18.7507 3.35815C18.6345 3.35111 18.5197 3.38671 18.4278 3.45827L16.7061 4.7974C15.8052 4.20764 14.8032 3.78932 13.7504 3.56349L13.4826 1.42088C13.4685 1.30423 13.4119 1.19685 13.3237 1.11922C13.2355 1.0416 13.1218 0.999166 13.0043 1.00001H10.9861C10.8689 1.0004 10.7559 1.04327 10.6679 1.12066C10.58 1.19806 10.5231 1.30473 10.5078 1.42088L10.24 3.57305C9.18642 3.79127 8.1836 4.20668 7.28434 4.7974L5.57217 3.46784C5.48108 3.39445 5.36587 3.3577 5.24911 3.36477C5.13235 3.37185 5.02243 3.42224 4.94087 3.5061L3.50608 4.94088C3.42253 5.02219 3.37156 5.13123 3.36276 5.24748C3.35395 5.36374 3.38791 5.47921 3.45826 5.57218L4.79739 7.29392C4.20667 8.19318 3.79126 9.196 3.57304 10.2496L1.42087 10.5174C1.30472 10.5327 1.19805 10.5896 1.12065 10.6775C1.04326 10.7655 1.00039 10.8785 1 10.9957V13.0235C1.00039 13.1406 1.04326 13.2537 1.12065 13.3416C1.19805 13.4296 1.30472 13.4865 1.42087 13.5017L3.57304 13.7696C3.79126 14.8231 4.20667 15.826 4.79739 16.7252L3.46782 18.4278C3.39464 18.519 3.35802 18.6342 3.36509 18.7509C3.37217 18.8676 3.42243 18.9774 3.50608 19.0591L4.94087 20.4939C5.02254 20.5776 5.13243 20.6278 5.24913 20.6349C5.36583 20.642 5.48099 20.6053 5.57217 20.5322L7.29391 19.2026C8.19316 19.7933 9.19598 20.2088 10.2496 20.4269L10.5174 22.5791C10.5315 22.6958 10.588 22.8032 10.6762 22.8808C10.7644 22.9584 10.8781 23.0008 10.9956 23H13.0235C13.141 23.0008 13.2547 22.9584 13.3429 22.8808C13.4311 22.8032 13.4876 22.6958 13.5017 22.5791L13.7696 20.4269C14.8231 20.2088 15.826 19.7934 16.7252 19.2026L18.4469 20.5322C18.5381 20.6053 18.6533 20.642 18.77 20.6349C18.8867 20.6278 18.9966 20.5776 19.0782 20.4939L20.513 19.0591C20.5952 18.9766 20.6444 18.8669 20.6514 18.7507C20.6584 18.6345 20.6228 18.5197 20.5513 18.4278L19.2122 16.7156C19.8076 15.8143 20.2263 14.8081 20.4461 13.7504L22.5791 13.4826C22.6958 13.4685 22.8031 13.412 22.8808 13.3238C22.9584 13.2355 23.0008 13.1218 23 13.0043V10.9861C22.9996 10.8689 22.9567 10.7559 22.8793 10.6679C22.8019 10.58 22.6953 10.5231 22.5791 10.5078ZM12 18.6669C10.2242 18.6669 8.52113 17.9615 7.26545 16.7058C6.00977 15.4502 5.30434 13.7471 5.30434 11.9713C5.30434 10.1955 6.00977 8.49245 7.26545 7.23677C8.52113 5.98109 10.2242 5.27566 12 5.27566C13.7758 5.27566 15.4788 5.98109 16.7345 7.23677C17.9902 8.49245 18.6956 10.1955 18.6956 11.9713C18.6956 13.7471 17.9902 15.4502 16.7345 16.7058C15.4788 17.9615 13.7758 18.6669 12 18.6669Z" fill="#E3E3E3" stroke="#191919" stroke-linecap="round" stroke-linejoin="round"/>
<path d="M11.9998 5.2757C11.1206 5.2757 10.2499 5.44888 9.43753 5.78537C8.62518 6.12186 7.88706 6.61506 7.26531 7.2368C6.64356 7.85855 6.15036 8.59668 5.81388 9.40903C5.47739 10.2214 5.3042 11.0921 5.3042 11.9713C5.3042 12.8506 5.47739 13.7213 5.81388 14.5337C6.15036 15.346 6.64356 16.0841 7.26531 16.7059C7.88706 17.3276 8.62518 17.8208 9.43753 18.1573C10.2499 18.4938 11.1206 18.667 11.9998 18.667C13.7756 18.667 15.4787 17.9616 16.7344 16.7059C17.9901 15.4502 18.6955 13.7471 18.6955 11.9713C18.6955 10.1955 17.9901 8.49248 16.7344 7.2368C15.4787 5.98113 13.7756 5.2757 11.9998 5.2757Z" fill="#FFF9BF"/>
<path d="M11.9998 15.3478C10.5139 15.3479 9.07026 14.853 7.89679 13.9415C6.72332 13.0299 5.88685 11.7534 5.51941 10.3137C5.26186 11.3036 5.23456 12.3394 5.4396 13.3416C5.64464 14.3437 6.07657 15.2856 6.70223 16.0948C7.32789 16.9041 8.13065 17.5592 9.04889 18.01C9.96713 18.4607 10.9764 18.6951 11.9994 18.6951C13.0223 18.6951 14.0316 18.4607 14.9498 18.01C15.8681 17.5592 16.6708 16.9041 17.2965 16.0948C17.9221 15.2856 18.3541 14.3437 18.5591 13.3416C18.7641 12.3394 18.7368 11.3036 18.4793 10.3137C18.1107 11.7526 17.2741 13.0282 16.101 13.9396C14.928 14.8509 13.4853 15.3463 11.9998 15.3478Z" fill="#FFEF5E"/>
<path d="M11.9998 5.2757C11.1206 5.2757 10.2499 5.44888 9.43753 5.78537C8.62518 6.12186 7.88706 6.61506 7.26531 7.2368C6.64356 7.85855 6.15036 8.59668 5.81388 9.40903C5.47739 10.2214 5.3042 11.0921 5.3042 11.9713C5.3042 12.8506 5.47739 13.7213 5.81388 14.5337C6.15036 15.346 6.64356 16.0841 7.26531 16.7059C7.88706 17.3276 8.62518 17.8208 9.43753 18.1573C10.2499 18.4938 11.1206 18.667 11.9998 18.667C13.7756 18.667 15.4787 17.9616 16.7344 16.7059C17.9901 15.4502 18.6955 13.7471 18.6955 11.9713C18.6955 10.1955 17.9901 8.49248 16.7344 7.2368C15.4787 5.98113 13.7756 5.2757 11.9998 5.2757Z" stroke="#191919" stroke-linecap="round" stroke-linejoin="round"/>
<path d="M14.8691 9.13048V14.3913H12.9561V9.13048C12.9561 9.00364 13.0064 8.88199 13.0961 8.7923C13.1858 8.70261 13.3075 8.65222 13.4343 8.65222H14.3908C14.5177 8.65222 14.6393 8.70261 14.729 8.7923C14.8187 8.88199 14.8691 9.00364 14.8691 9.13048Z" fill="#FF808C" stroke="#191919" stroke-linecap="round" stroke-linejoin="round"/>
<path d="M11.0434 12.0001V14.3914H9.13037V12.0001C9.13037 11.8732 9.18076 11.7516 9.27045 11.6619C9.36014 11.5722 9.48179 11.5218 9.60863 11.5218H10.5652C10.692 11.5218 10.8136 11.5722 10.9033 11.6619C10.993 11.7516 11.0434 11.8732 11.0434 12.0001Z" fill="#78EB7B" stroke="#191919" stroke-linecap="round" stroke-linejoin="round"/>
<path d="M15.826 14.3914H8.17383" stroke="#191919" stroke-linecap="round" stroke-linejoin="round"/>
</g>
<defs>
<clipPath id="clip0_5303_8751">
<rect width="24" height="24" fill="white"/>
</clipPath>
</defs>
</svg>
