<svg width="24" height="24" viewBox="0 0 24 24" fill="none" xmlns="http://www.w3.org/2000/svg">
<g clip-path="url(#clip0_5303_8745)">
<path d="M22.5787 13.4858C22.6951 13.4712 22.8019 13.4145 22.8792 13.3264C22.9565 13.2382 22.9986 13.1247 22.9976 13.0076V10.9858C22.9986 10.8686 22.9565 10.7552 22.8792 10.667C22.8019 10.5788 22.6951 10.5221 22.5787 10.5076L20.4259 10.2388C20.2066 9.18428 19.7896 8.18091 19.197 7.28169L20.5359 5.56494C20.6073 5.473 20.6427 5.35812 20.6355 5.24187C20.6282 5.12572 20.5789 5.01611 20.4966 4.93374L19.0621 3.49916C18.9796 3.41688 18.8701 3.36749 18.7539 3.36027C18.6376 3.35304 18.5228 3.38847 18.4309 3.45992L16.7093 4.79885C15.8094 4.20708 14.8063 3.78982 13.7521 3.56894L13.4863 1.41893C13.4717 1.30268 13.415 1.19581 13.3269 1.1185C13.2387 1.0413 13.1252 0.999138 13.0081 1.00001H10.9862C10.8691 0.999138 10.7557 1.0413 10.6675 1.1185C10.5793 1.19581 10.5226 1.30268 10.5081 1.41893L10.2393 3.5709C9.18633 3.79158 8.18433 4.20883 7.286 4.8008L5.56923 3.46177C5.47729 3.39043 5.36241 3.355 5.24626 3.36222C5.13002 3.36944 5.02041 3.41873 4.93803 3.50101L3.50345 4.93559C3.42117 5.01807 3.37178 5.12758 3.36456 5.24382C3.35734 5.36007 3.39277 5.47485 3.46422 5.56679L4.80314 7.28833C4.20991 8.18911 3.79285 9.19414 3.57422 10.2503L1.42137 10.5191C1.30503 10.5336 1.19815 10.5904 1.12095 10.6785C1.04374 10.7666 1.00158 10.8801 1.00245 10.9973V13.0229C1.00158 13.1401 1.04374 13.2536 1.12095 13.3417C1.19815 13.4298 1.30503 13.4866 1.42137 13.5011L3.57422 13.7699C3.79304 14.8245 4.2101 15.828 4.80314 16.727L3.46422 18.4284C3.39277 18.5204 3.35734 18.6352 3.36456 18.7514C3.37178 18.8677 3.42117 18.9772 3.50345 19.0597L4.93803 20.4943C5.02041 20.5765 5.13002 20.6259 5.24626 20.6331C5.36241 20.6403 5.47729 20.6049 5.56923 20.5334L7.29077 19.1993C8.1902 19.7919 9.19355 20.2092 10.248 20.4292L10.5167 22.5812C10.5312 22.6974 10.5879 22.8044 10.6762 22.8815C10.7643 22.9588 10.8777 23.0009 10.9948 23H13.0234C13.1405 23.0009 13.2541 22.9588 13.3422 22.8815C13.4303 22.8044 13.487 22.6974 13.5016 22.5812L13.7704 20.4292C14.8248 20.2092 15.8282 19.7919 16.7275 19.1993L18.4442 20.5334C18.5363 20.6049 18.6511 20.6403 18.7673 20.6331C18.8836 20.6259 18.9931 20.5765 19.0754 20.4943L20.51 19.0597C20.5923 18.9772 20.6417 18.8677 20.6489 18.7514C20.6561 18.6352 20.6207 18.5204 20.5493 18.4284L19.2151 16.707C19.8082 15.8079 20.2252 14.8044 20.444 13.7498L22.5787 13.4858Z" fill="#E3E3E3" stroke="#191919" stroke-linecap="round" stroke-linejoin="round"/>
<path d="M12.0004 18.6677C13.3245 18.6677 14.6188 18.2751 15.7198 17.5394C16.8208 16.8037 17.6788 15.7582 18.1856 14.5349C18.6923 13.3116 18.8249 11.9654 18.5665 10.6669C18.3082 9.36818 17.6706 8.17527 16.7343 7.23896C15.7981 6.30274 14.6052 5.6651 13.3064 5.40674C12.0078 5.14848 10.6618 5.28103 9.4384 5.78779C8.21513 6.29445 7.1695 7.15258 6.43387 8.25355C5.69823 9.35452 5.30566 10.6487 5.30566 11.9729C5.30566 13.7484 6.01095 15.4513 7.26642 16.7069C8.522 17.9623 10.2249 18.6677 12.0004 18.6677Z" fill="#FFF9BF"/>
<path d="M12 15.348C10.5142 15.348 9.07077 14.8532 7.89747 13.9417C6.72408 13.0303 5.88781 11.754 5.52034 10.3145C5.26286 11.3043 5.23553 12.3398 5.44059 13.3419C5.64556 14.344 6.07746 15.2857 6.703 16.0948C7.32864 16.904 8.13123 17.559 9.04939 18.0097C9.96755 18.4605 10.9767 18.6947 11.9995 18.6947C13.0223 18.6947 14.0315 18.4605 14.9495 18.0097C15.8677 17.559 16.6703 16.904 17.2959 16.0948C17.9215 15.2857 18.3534 14.344 18.5583 13.3419C18.7634 12.3398 18.7361 11.3043 18.4786 10.3145C18.11 11.7532 17.2736 13.0286 16.1006 13.9398C14.9278 14.8511 13.4852 15.3464 12 15.348Z" fill="#FFEF5E"/>
<path d="M12.0004 18.6677C13.3245 18.6677 14.6188 18.2751 15.7198 17.5394C16.8208 16.8037 17.6788 15.7582 18.1856 14.5349C18.6923 13.3116 18.8249 11.9654 18.5665 10.6669C18.3082 9.36818 17.6706 8.17527 16.7343 7.23896C15.7981 6.30274 14.6052 5.6651 13.3064 5.40674C12.0078 5.14848 10.6618 5.28103 9.4384 5.78779C8.21513 6.29445 7.1695 7.15258 6.43387 8.25355C5.69823 9.35452 5.30566 10.6487 5.30566 11.9729C5.30566 13.7484 6.01095 15.4513 7.26642 16.7069C8.522 17.9623 10.2249 18.6677 12.0004 18.6677Z" stroke="#191919" stroke-linecap="round" stroke-linejoin="round"/>
<path d="M7.45801 13.8857L8.14943 12.8489C8.21971 12.7435 8.32902 12.6702 8.45337 12.6453C8.57762 12.6203 8.70675 12.6458 8.81226 12.716L9.49129 13.1684C9.58997 13.2335 9.70934 13.2598 9.82626 13.2423C9.94319 13.2245 10.0494 13.1642 10.1244 13.0727L11.9052 10.9352C11.9478 10.8842 12.0006 10.8426 12.0601 10.813C12.1197 10.7834 12.1848 10.7666 12.2511 10.7637C12.3176 10.7608 12.3839 10.7716 12.4459 10.7957C12.5078 10.8198 12.564 10.8566 12.611 10.9037L13.7836 12.0762C13.8307 12.123 13.8869 12.1596 13.9488 12.1835C14.0106 12.2074 14.0769 12.2182 14.1432 12.2152C14.2095 12.2121 14.2744 12.1953 14.3339 12.1658C14.3932 12.1362 14.4459 12.0946 14.4884 12.0437L16.5447 9.57715" stroke="#191919" stroke-linecap="round" stroke-linejoin="round"/>
</g>
<defs>
<clipPath id="clip0_5303_8745">
<rect width="24" height="24" fill="white"/>
</clipPath>
</defs>
</svg>
