<svg width="24" height="24" viewBox="0 0 24 24" fill="none" xmlns="http://www.w3.org/2000/svg">
<path d="M17.2609 6.73914C16.7535 6.73914 16.2669 6.94068 15.9082 7.29946C15.5494 7.65822 15.3478 8.14481 15.3478 8.65218H2.43478C2.05426 8.65218 1.68931 8.80335 1.42024 9.07242C1.15116 9.34149 1 9.70644 1 10.087V13.913C1 14.2936 1.15116 14.6586 1.42024 14.9276C1.68931 15.1967 2.05426 15.3478 2.43478 15.3478H15.3478C15.3478 15.8552 15.5494 16.3418 15.9082 16.7005C16.2669 17.0593 16.7535 17.2609 17.2609 17.2609H21.087V6.73914H17.2609Z" fill="#FF808C"/>
<path d="M21.087 12V6.73914H17.2609C16.7535 6.73914 16.2669 6.94068 15.9082 7.29946C15.5494 7.65822 15.3478 8.14481 15.3478 8.65218H2.43478C2.05426 8.65218 1.68931 8.80335 1.42024 9.07242C1.15116 9.34149 1 9.70644 1 10.087V12H21.087Z" fill="#FFBFC5"/>
<path d="M9.60889 8.65218V7.2174C9.60889 7.09055 9.65928 6.9689 9.74897 6.87922C9.83865 6.78953 9.9603 6.73914 10.0871 6.73914H12.0002C12.127 6.73914 12.2487 6.78953 12.3384 6.87922C12.428 6.9689 12.4785 7.09055 12.4785 7.2174V8.65218H9.60889Z" fill="#808080" stroke="#191919" stroke-linecap="round" stroke-linejoin="round"/>
<path d="M22.5217 17.2609C22.6485 17.2609 22.7702 17.2105 22.8599 17.1208C22.9495 17.0311 23 16.9094 23 16.7826V7.2174C23 7.09055 22.9495 6.9689 22.8599 6.87922C22.7702 6.78953 22.6485 6.73914 22.5217 6.73914H21.0869V17.2609H22.5217Z" fill="#808080" stroke="#191919" stroke-linecap="round" stroke-linejoin="round"/>
<path d="M15.3478 15.3479H2.43478C2.05426 15.3479 1.68931 15.1967 1.42024 14.9277C1.15116 14.6586 1 14.2936 1 13.9131V10.087C1 9.70648 1.15116 9.34153 1.42024 9.07246C1.68931 8.80339 2.05426 8.65222 2.43478 8.65222H15.3478V15.3479Z" stroke="#191919" stroke-linecap="round" stroke-linejoin="round"/>
<path d="M21.0868 17.2609H17.2607C16.7534 17.2609 16.2668 17.0593 15.908 16.7005C15.5492 16.3418 15.3477 15.8552 15.3477 15.3478V8.65218C15.3477 8.14481 15.5492 7.65822 15.908 7.29946C16.2668 6.94068 16.7534 6.73914 17.2607 6.73914H21.0868V17.2609Z" stroke="#191919" stroke-linecap="round" stroke-linejoin="round"/>
</svg>
