<svg width="24" height="24" viewBox="0 0 24 24" fill="none" xmlns="http://www.w3.org/2000/svg">
<g clip-path="url(#clip0_5303_3673)">
<path d="M3.86956 4.8261H1.95652C1.70284 4.8261 1.45954 4.92687 1.28016 5.10625C1.10078 5.28564 1 5.52893 1 5.78262V22.0435C1 22.2972 1.10078 22.5405 1.28016 22.7198C1.45954 22.8992 1.70284 23 1.95652 23H18.2174C18.4711 23 18.7144 22.8992 18.8937 22.7198C19.0731 22.5405 19.1739 22.2972 19.1739 22.0435V20.1304" fill="#B2B2B2"/>
<path d="M3.86956 4.8261H1.95652C1.70284 4.8261 1.45954 4.92687 1.28016 5.10625C1.10078 5.28564 1 5.52893 1 5.78262V22.0435C1 22.2972 1.10078 22.5405 1.28016 22.7198C1.45954 22.8992 1.70284 23 1.95652 23H18.2174C18.4711 23 18.7144 22.8992 18.8937 22.7198C19.0731 22.5405 19.1739 22.2972 19.1739 22.0435V20.1304" stroke="#191919" stroke-linecap="round" stroke-linejoin="round"/>
<path d="M23.0001 1.95652C23.0001 1.70284 22.8993 1.45954 22.7199 1.28016C22.5405 1.10078 22.2972 1 22.0435 1H4.82615C4.57246 1 4.32917 1.10078 4.14979 1.28016C3.97041 1.45954 3.86963 1.70284 3.86963 1.95652V19.1739C3.86963 19.4276 3.97041 19.6709 4.14979 19.8503C4.32917 20.0297 4.57246 20.1304 4.82615 20.1304H22.0435C22.2972 20.1304 22.5405 20.0297 22.7199 19.8503C22.8993 19.6709 23.0001 19.4276 23.0001 19.1739V1.95652Z" fill="#E3E3E3"/>
<path d="M4.15659 19.8435L22.7208 1.27931C22.6318 1.19054 22.5261 1.12018 22.4099 1.07225C22.2937 1.02433 22.1692 0.999779 22.0435 1H4.82615C4.57246 1 4.32917 1.10078 4.14979 1.28016C3.97041 1.45954 3.86963 1.70284 3.86963 1.95652V19.1739C3.87322 19.4262 3.97636 19.6669 4.15659 19.8435Z" fill="white"/>
<path d="M23.0001 1.95652C23.0001 1.70284 22.8993 1.45954 22.7199 1.28016C22.5405 1.10078 22.2972 1 22.0435 1H4.82615C4.57246 1 4.32917 1.10078 4.14979 1.28016C3.97041 1.45954 3.86963 1.70284 3.86963 1.95652V19.1739C3.86963 19.4276 3.97041 19.6709 4.14979 19.8503C4.32917 20.0297 4.57246 20.1304 4.82615 20.1304H22.0435C22.2972 20.1304 22.5405 20.0297 22.7199 19.8503C22.8993 19.6709 23.0001 19.4276 23.0001 19.1739V1.95652Z" stroke="#191919" stroke-linecap="round" stroke-linejoin="round"/>
<path d="M7.69189 4.82324H19.1702" stroke="#191919" stroke-linecap="round" stroke-linejoin="round"/>
<path d="M7.69189 8.64931H19.1702" stroke="#191919" stroke-linecap="round" stroke-linejoin="round"/>
<path d="M7.69189 12.4754H19.1702" stroke="#191919" stroke-linecap="round" stroke-linejoin="round"/>
<path d="M7.69189 16.3015H12.9566" stroke="#191919" stroke-linecap="round" stroke-linejoin="round"/>
</g>
<defs>
<clipPath id="clip0_5303_3673">
<rect width="24" height="24" fill="white"/>
</clipPath>
</defs>
</svg>
