<svg width="24" height="24" viewBox="0 0 24 24" fill="none" xmlns="http://www.w3.org/2000/svg">
<path d="M4.2085 5.125H2.37516C2.13204 5.125 1.89889 5.22158 1.72698 5.39348C1.55507 5.56539 1.4585 5.79855 1.4585 6.04167V21.625C1.4585 21.8681 1.55507 22.1013 1.72698 22.2732C1.89889 22.445 2.13204 22.5417 2.37516 22.5417H17.9585C18.2016 22.5417 18.4348 22.445 18.6067 22.2732C18.7785 22.1013 18.8752 21.8681 18.8752 21.625V19.7917" fill="#B2B2B2"/>
<path d="M4.2085 5.125H2.37516C2.13204 5.125 1.89889 5.22158 1.72698 5.39348C1.55507 5.56539 1.4585 5.79855 1.4585 6.04167V21.625C1.4585 21.8681 1.55507 22.1013 1.72698 22.2732C1.89889 22.445 2.13204 22.5417 2.37516 22.5417H17.9585C18.2016 22.5417 18.4348 22.445 18.6067 22.2732C18.7785 22.1013 18.8752 21.8681 18.8752 21.625V19.7917" stroke="#191919" stroke-linecap="round" stroke-linejoin="round"/>
<path d="M22.5418 2.37498C22.5418 2.13186 22.4452 1.89871 22.2733 1.7268C22.1015 1.55489 21.8683 1.45831 21.6252 1.45831H5.12516C4.88204 1.45831 4.64889 1.55489 4.47698 1.7268C4.30508 1.89871 4.2085 2.13186 4.2085 2.37498V18.875C4.2085 19.1181 4.30508 19.3513 4.47698 19.5232C4.64889 19.695 4.88204 19.7916 5.12516 19.7916H21.6252C21.8683 19.7916 22.1015 19.695 22.2733 19.5232C22.4452 19.3513 22.5418 19.1181 22.5418 18.875V2.37498Z" fill="#E3E3E3"/>
<path d="M4.4835 19.524L22.2742 1.73331C22.1895 1.64692 22.0885 1.57814 21.9772 1.53094C21.8658 1.48374 21.7462 1.45906 21.6252 1.45831H5.12516C4.88204 1.45831 4.64889 1.55489 4.47698 1.7268C4.30508 1.89871 4.2085 2.13186 4.2085 2.37498V18.875C4.20924 18.996 4.23392 19.1156 4.28112 19.227C4.32832 19.3384 4.3971 19.4393 4.4835 19.524Z" fill="white"/>
<path d="M22.5418 2.37498C22.5418 2.13186 22.4452 1.89871 22.2733 1.7268C22.1015 1.55489 21.8683 1.45831 21.6252 1.45831H5.12516C4.88204 1.45831 4.64889 1.55489 4.47698 1.7268C4.30508 1.89871 4.2085 2.13186 4.2085 2.37498V18.875C4.2085 19.1181 4.30508 19.3513 4.47698 19.5232C4.64889 19.695 4.88204 19.7916 5.12516 19.7916H21.6252C21.8683 19.7916 22.1015 19.695 22.2733 19.5232C22.4452 19.3513 22.5418 19.1181 22.5418 18.875V2.37498Z" stroke="#191919" stroke-linecap="round" stroke-linejoin="round"/>
<path d="M12.4583 14.2916L15.1249 7.69169C15.1356 7.66543 15.1475 7.63973 15.1607 7.61469C15.1955 7.54782 15.2121 7.47293 15.2087 7.3976C15.2053 7.32227 15.1821 7.24916 15.1414 7.18569C15.0952 7.11496 15.032 7.05705 14.9574 7.0173C14.8829 6.97757 14.7996 6.95729 14.7152 6.95835H11.0833C10.9618 6.95835 10.8452 7.00664 10.7592 7.0926C10.6733 7.17855 10.625 7.29514 10.625 7.41669V8.33335" stroke="#191919" stroke-linecap="round" stroke-linejoin="round"/>
</svg>
