<svg width="24" height="24" viewBox="0 0 24 24" fill="none" xmlns="http://www.w3.org/2000/svg">
<path d="M4.2085 5.125H2.37516C2.13204 5.125 1.89889 5.22158 1.72698 5.39348C1.55507 5.56539 1.4585 5.79855 1.4585 6.04167V21.625C1.4585 21.8681 1.55507 22.1013 1.72698 22.2732C1.89889 22.445 2.13204 22.5417 2.37516 22.5417H17.9585C18.2016 22.5417 18.4348 22.445 18.6067 22.2732C18.7785 22.1013 18.8752 21.8681 18.8752 21.625V19.7917" fill="#B2B2B2"/>
<path d="M4.2085 5.125H2.37516C2.13204 5.125 1.89889 5.22158 1.72698 5.39348C1.55507 5.56539 1.4585 5.79855 1.4585 6.04167V21.625C1.4585 21.8681 1.55507 22.1013 1.72698 22.2732C1.89889 22.445 2.13204 22.5417 2.37516 22.5417H17.9585C18.2016 22.5417 18.4348 22.445 18.6067 22.2732C18.7785 22.1013 18.8752 21.8681 18.8752 21.625V19.7917" stroke="#191919" stroke-linecap="round" stroke-linejoin="round"/>
<path d="M22.5418 2.37498C22.5418 2.13186 22.4452 1.89871 22.2733 1.7268C22.1015 1.55489 21.8683 1.45831 21.6252 1.45831H5.12516C4.88204 1.45831 4.64889 1.55489 4.47698 1.7268C4.30508 1.89871 4.2085 2.13186 4.2085 2.37498V18.875C4.2085 19.1181 4.30508 19.3513 4.47698 19.5232C4.64889 19.695 4.88204 19.7916 5.12516 19.7916H21.6252C21.8683 19.7916 22.1015 19.695 22.2733 19.5232C22.4452 19.3513 22.5418 19.1181 22.5418 18.875V2.37498Z" fill="#E3E3E3"/>
<path d="M4.4835 19.524L22.2742 1.73331C22.1895 1.64692 22.0885 1.57814 21.9772 1.53094C21.8658 1.48374 21.7462 1.45906 21.6252 1.45831H5.12516C4.88204 1.45831 4.64889 1.55489 4.47698 1.7268C4.30508 1.89871 4.2085 2.13186 4.2085 2.37498V18.875C4.20924 18.996 4.23392 19.1156 4.28112 19.227C4.32832 19.3384 4.3971 19.4393 4.4835 19.524Z" fill="white"/>
<path d="M22.5418 2.37498C22.5418 2.13186 22.4452 1.89871 22.2733 1.7268C22.1015 1.55489 21.8683 1.45831 21.6252 1.45831H5.12516C4.88204 1.45831 4.64889 1.55489 4.47698 1.7268C4.30508 1.89871 4.2085 2.13186 4.2085 2.37498V18.875C4.2085 19.1181 4.30508 19.3513 4.47698 19.5232C4.64889 19.695 4.88204 19.7916 5.12516 19.7916H21.6252C21.8683 19.7916 22.1015 19.695 22.2733 19.5232C22.4452 19.3513 22.5418 19.1181 22.5418 18.875V2.37498Z" stroke="#191919" stroke-linecap="round" stroke-linejoin="round"/>
<path d="M12.9147 11.5416C14.1804 11.5416 15.2064 10.5156 15.2064 9.24998C15.2064 7.98433 14.1804 6.95831 12.9147 6.95831C11.6491 6.95831 10.623 7.98433 10.623 9.24998C10.623 10.5156 11.6491 11.5416 12.9147 11.5416Z" stroke="#191919" stroke-linecap="round" stroke-linejoin="round"/>
<path d="M15.2083 9.25V11.5417C15.2083 12.271 14.9186 12.9705 14.4029 13.4862C13.8871 14.0019 13.1876 14.2917 12.4583 14.2917H12" stroke="#191919" stroke-linecap="round" stroke-linejoin="round"/>
</svg>
