<svg width="24" height="24" viewBox="0 0 24 24" fill="none" xmlns="http://www.w3.org/2000/svg">
<path d="M4.2085 5.125H2.37516C2.13205 5.125 1.89889 5.22158 1.72698 5.39349C1.55507 5.56539 1.4585 5.79855 1.4585 6.04167V21.625C1.4585 21.8681 1.55507 22.1013 1.72698 22.2732C1.89889 22.4451 2.13205 22.5417 2.37516 22.5417H17.9585C18.2016 22.5417 18.4348 22.4451 18.6067 22.2732C18.7786 22.1013 18.8752 21.8681 18.8752 21.625V19.7917" fill="#B2B2B2"/>
<path d="M4.2085 5.125H2.37516C2.13205 5.125 1.89889 5.22158 1.72698 5.39349C1.55507 5.56539 1.4585 5.79855 1.4585 6.04167V21.625C1.4585 21.8681 1.55507 22.1013 1.72698 22.2732C1.89889 22.4451 2.13205 22.5417 2.37516 22.5417H17.9585C18.2016 22.5417 18.4348 22.4451 18.6067 22.2732C18.7786 22.1013 18.8752 21.8681 18.8752 21.625V19.7917" stroke="#191919" stroke-linecap="round" stroke-linejoin="round"/>
<path d="M22.5418 2.37498C22.5418 2.13186 22.4453 1.89871 22.2733 1.7268C22.1014 1.55489 21.8683 1.45831 21.6252 1.45831H5.12516C4.88205 1.45831 4.64889 1.55489 4.47698 1.7268C4.30507 1.89871 4.2085 2.13186 4.2085 2.37498V18.875C4.2085 19.1181 4.30507 19.3513 4.47698 19.5232C4.64889 19.6951 4.88205 19.7916 5.12516 19.7916H21.6252C21.8683 19.7916 22.1014 19.6951 22.2733 19.5232C22.4453 19.3513 22.5418 19.1181 22.5418 18.875V2.37498Z" fill="#E3E3E3"/>
<path d="M4.4835 19.524L22.2742 1.73331C22.1895 1.64692 22.0885 1.57814 21.9771 1.53094C21.8658 1.48374 21.7461 1.45906 21.6252 1.45831H5.12516C4.88205 1.45831 4.64889 1.55489 4.47698 1.7268C4.30507 1.89871 4.2085 2.13186 4.2085 2.37498V18.875C4.20924 18.996 4.23392 19.1156 4.28112 19.227C4.32832 19.3384 4.3971 19.4393 4.4835 19.524Z" fill="white"/>
<path d="M22.5418 2.37498C22.5418 2.13186 22.4453 1.89871 22.2733 1.7268C22.1014 1.55489 21.8683 1.45831 21.6252 1.45831H5.12516C4.88205 1.45831 4.64889 1.55489 4.47698 1.7268C4.30507 1.89871 4.2085 2.13186 4.2085 2.37498V18.875C4.2085 19.1181 4.30507 19.3513 4.47698 19.5232C4.64889 19.6951 4.88205 19.7916 5.12516 19.7916H21.6252C21.8683 19.7916 22.1014 19.6951 22.2733 19.5232C22.4453 19.3513 22.5418 19.1181 22.5418 18.875V2.37498Z" stroke="#191919" stroke-linecap="round" stroke-linejoin="round"/>
<path d="M16.1252 14.2917H11.0835L14.2918 11.4601C15.1966 10.6626 15.8877 10.1044 15.621 8.7917C15.5079 8.23475 15.1919 7.73969 14.7343 7.40263C14.2768 7.06557 13.7103 6.91055 13.1449 6.96766C12.5794 7.02478 12.0554 7.28995 11.6745 7.71171C11.2935 8.13347 11.0829 8.68172 11.0835 9.25003" stroke="#191919" stroke-linecap="round" stroke-linejoin="round"/>
</svg>
