<svg width="24" height="24" viewBox="0 0 24 24" fill="none" xmlns="http://www.w3.org/2000/svg">
<path d="M17.0506 4.20831C17.2937 4.20831 17.5269 4.30489 17.6988 4.4768C17.8708 4.64871 17.9673 4.88186 17.9673 5.12498V21.625C17.9673 21.8681 17.8708 22.1013 17.6988 22.2732C17.5269 22.445 17.2937 22.5416 17.0506 22.5416H2.38395C2.14083 22.5416 1.90768 22.445 1.73577 22.2732C1.56386 22.1013 1.46729 21.8681 1.46729 21.625V5.12498C1.46729 4.88186 1.56386 4.64871 1.73577 4.4768C1.90768 4.30489 2.14083 4.20831 2.38395 4.20831H17.0506Z" fill="#FFDDA1"/>
<path d="M17.9676 14.0358L15.3423 15.2596L13.3843 17.961L16.7127 18.1975L17.9676 17.6117V14.0358Z" fill="#FFBC44"/>
<path d="M14.7498 6.95831C14.7498 7.20143 14.6532 7.43459 14.4813 7.6065C14.3095 7.7784 14.0763 7.87498 13.8332 7.87498H5.58317C5.34005 7.87498 5.1069 7.7784 4.93499 7.6065C4.76308 7.43459 4.6665 7.20143 4.6665 6.95831V4.20831H14.7498V6.95831Z" fill="#FFBC44"/>
<path d="M17.9673 18.4166V21.625C17.9673 21.8681 17.8708 22.1013 17.6988 22.2732C17.5269 22.445 17.2937 22.5416 17.0506 22.5416H2.38395C2.14083 22.5416 1.90768 22.445 1.73577 22.2732C1.56386 22.1013 1.46729 21.8681 1.46729 21.625V5.12498C1.46729 4.88186 1.56386 4.64871 1.73577 4.4768C1.90768 4.30489 2.14083 4.20831 2.38395 4.20831H5.13395" stroke="#191919" stroke-linecap="round" stroke-linejoin="round"/>
<path d="M14.3008 4.20831H17.0508C17.2939 4.20831 17.5271 4.30489 17.699 4.4768C17.8709 4.64871 17.9674 4.88186 17.9674 5.12498V8.33331" stroke="#191919" stroke-linecap="round" stroke-linejoin="round"/>
<path d="M11.0147 3.29169H13.3843C13.6274 3.29169 13.8606 3.38827 14.0324 3.56017C14.2044 3.73208 14.3009 3.96524 14.3009 4.20835V5.12502C14.3009 5.36814 14.2044 5.60129 14.0324 5.7732C13.8606 5.94511 13.6274 6.04169 13.3843 6.04169H6.05094C5.80783 6.04169 5.57467 5.94511 5.40276 5.7732C5.23086 5.60129 5.13428 5.36814 5.13428 5.12502V4.20835C5.13428 3.96524 5.23086 3.73208 5.40276 3.56017C5.57467 3.38827 5.80783 3.29169 6.05094 3.29169H8.42511" fill="#E4F1F5"/>
<path d="M11.0147 3.29169H13.3843C13.6274 3.29169 13.8606 3.38827 14.0324 3.56017C14.2044 3.73208 14.3009 3.96524 14.3009 4.20835V5.12502C14.3009 5.36814 14.2044 5.60129 14.0324 5.7732C13.8606 5.94511 13.6274 6.04169 13.3843 6.04169H6.05094C5.80783 6.04169 5.57467 5.94511 5.40276 5.7732C5.23086 5.60129 5.13428 5.36814 5.13428 5.12502V4.20835C5.13428 3.96524 5.23086 3.73208 5.40276 3.56017C5.57467 3.38827 5.80783 3.29169 6.05094 3.29169H8.42511" stroke="#191919" stroke-linecap="round" stroke-linejoin="round"/>
<path d="M9.71729 4.20831C9.98923 4.20831 10.2551 4.12767 10.4812 3.97659C10.7073 3.82549 10.8836 3.61076 10.9876 3.35951C11.0917 3.10826 11.119 2.83179 11.0659 2.56507C11.0128 2.29834 10.8818 2.05334 10.6896 1.86104C10.4973 1.66874 10.2522 1.53779 9.98553 1.48473C9.71881 1.43168 9.44233 1.45891 9.19108 1.56298C8.93984 1.66705 8.7251 1.84329 8.57401 2.06941C8.42292 2.29552 8.34229 2.56137 8.34229 2.83331C8.34229 3.19799 8.48715 3.54773 8.74501 3.80558C9.00287 4.06345 9.35262 4.20831 9.71729 4.20831Z" fill="#98B7C0" stroke="#191919" stroke-linecap="round" stroke-linejoin="round"/>
<path d="M4.21729 9.70831H15.2173" stroke="#191919" stroke-linecap="round" stroke-linejoin="round"/>
<path d="M4.21729 13.375H12.8944" stroke="#191919" stroke-linecap="round" stroke-linejoin="round"/>
<path d="M4.21729 17.0417H11.535" stroke="#191919" stroke-linecap="round" stroke-linejoin="round"/>
<path d="M16.5926 17.0417L13.3843 17.9583L14.3009 14.75L19.7844 9.26647C20.09 8.97068 20.4995 8.80685 20.9249 8.81029C21.3501 8.81375 21.7569 8.98421 22.0577 9.28493C22.3584 9.58564 22.5289 9.99249 22.5323 10.4177C22.5357 10.843 22.3719 11.2526 22.0761 11.5582L16.5926 17.0417Z" fill="#66E1FF" stroke="#191919" stroke-linecap="round" stroke-linejoin="round"/>
</svg>
