<svg width="24" height="24" viewBox="0 0 24 24" fill="none" xmlns="http://www.w3.org/2000/svg">
<path d="M17.4763 22.4958H1.50439" stroke="#191919" stroke-linecap="round" stroke-linejoin="round"/>
<path d="M22.4961 18.8452H1.50439" stroke="#191919" stroke-linecap="round" stroke-linejoin="round"/>
<path d="M22.4961 15.1945H1.50439" stroke="#191919" stroke-linecap="round" stroke-linejoin="round"/>
<path d="M22.4959 11.5437H14.2817" stroke="#191919" stroke-linecap="round" stroke-linejoin="round"/>
<path d="M22.4959 7.89288H14.2817" stroke="#191919" stroke-linecap="round" stroke-linejoin="round"/>
<path d="M22.4959 4.24237H14.2817" stroke="#191919" stroke-linecap="round" stroke-linejoin="round"/>
<path d="M10.6312 1.50421H2.41708C1.91302 1.50421 1.50439 1.91283 1.50439 2.41689V10.6311C1.50439 11.1351 1.91302 11.5437 2.41708 11.5437H10.6312C11.1353 11.5437 11.5439 11.1351 11.5439 10.6311V2.41689C11.5439 1.91283 11.1353 1.50421 10.6312 1.50421Z" fill="#66E1FF"/>
<path d="M11.1852 1.68854C11.0255 1.56873 10.8308 1.50461 10.6312 1.506H2.41709C2.17504 1.506 1.94289 1.60216 1.77174 1.77332C1.60057 1.94449 1.50442 2.17662 1.50442 2.41869V10.6328C1.50303 10.8325 1.56715 11.0271 1.68695 11.1868L11.1852 1.68854Z" fill="#C2F3FF"/>
<path d="M10.6312 1.50421H2.41708C1.91302 1.50421 1.50439 1.91283 1.50439 2.41689V10.6311C1.50439 11.1351 1.91302 11.5437 2.41708 11.5437H10.6312C11.1353 11.5437 11.5439 11.1351 11.5439 10.6311V2.41689C11.5439 1.91283 11.1353 1.50421 10.6312 1.50421Z" stroke="#191919" stroke-linecap="round" stroke-linejoin="round"/>
</svg>
