<svg width="24" height="24" viewBox="0 0 24 24" fill="none" xmlns="http://www.w3.org/2000/svg">
<g clip-path="url(#clip0_5303_11538)">
<path d="M15.9033 18.2139L16.8395 21.848C16.8902 22.0435 16.979 22.2273 17.1006 22.3884C17.2222 22.5497 17.3746 22.6855 17.5487 22.7878C17.7229 22.8903 17.9155 22.9574 18.1157 22.9853C18.3158 23.0132 18.5194 23.0014 18.7149 22.9506L18.7426 22.9429C18.988 22.8794 19.2137 22.7562 19.4 22.5843C19.5861 22.4125 19.7269 22.1973 19.8099 21.9579" stroke="#191919" stroke-linecap="round" stroke-linejoin="round"/>
<path d="M12.5099 5.78168C13.8304 5.78168 14.9008 4.71127 14.9008 3.39079C14.9008 2.07032 13.8304 1 12.5099 1C11.1895 1 10.1191 2.07042 10.1191 3.39079C10.1191 4.71117 11.1896 5.78168 12.5099 5.78168Z" fill="#FFDDA1" stroke="#191919" stroke-linecap="round" stroke-linejoin="round"/>
<path d="M11.8394 22.9955C12.8958 22.9955 13.752 22.1392 13.752 21.0829C13.752 20.0265 12.8958 19.1702 11.8394 19.1702C10.783 19.1702 9.92676 20.0265 9.92676 21.0829C9.92676 22.1392 10.783 22.9955 11.8394 22.9955Z" fill="white" stroke="#191919" stroke-linecap="round" stroke-linejoin="round"/>
<path d="M18.0179 19.0314C18.281 18.9382 18.4995 18.7499 18.6305 18.5034C18.7615 18.2571 18.7954 17.9704 18.7256 17.7002C18.577 16.8864 18.1975 16.1324 17.6324 15.5284C17.0672 14.9241 16.3404 14.4953 15.5382 14.2929L14.3618 13.9983L13.8349 10.5632H15.3785C16.2391 10.5662 17.0807 10.3097 17.7935 9.82736C18.5062 9.34491 19.0569 8.65886 19.374 7.85871L19.6092 7.27153C19.6809 7.09633 19.7172 6.90864 19.7162 6.71929C19.715 6.53003 19.6764 6.34273 19.6026 6.16841C19.5287 5.99409 19.4211 5.83617 19.2859 5.70363C19.1507 5.57108 18.9907 5.46655 18.8149 5.39618C18.6391 5.3259 18.4512 5.29096 18.2619 5.2936C18.0726 5.29623 17.8856 5.33625 17.7119 5.4115C17.5381 5.48666 17.381 5.59558 17.2494 5.73174C17.1181 5.86799 17.0148 6.02894 16.9459 6.20521L16.7106 6.79337C16.6049 7.06002 16.4211 7.28861 16.1836 7.44936C15.9459 7.61001 15.6653 7.69542 15.3785 7.69425H8.206C7.47193 7.7205 6.75376 7.91522 6.10704 8.26347C5.46022 8.61172 4.90232 9.10412 4.47629 9.70253C4.36326 9.85323 4.28108 10.0247 4.23433 10.2071C4.18758 10.3897 4.17723 10.5796 4.20388 10.766C4.25765 11.1427 4.45882 11.4825 4.76324 11.7108C5.06757 11.939 5.45017 12.0371 5.82682 11.9832C6.20338 11.9294 6.54323 11.7282 6.77152 11.4239L7.05838 11.137C7.19249 10.9594 7.36593 10.8152 7.56494 10.7157C7.76405 10.6161 7.98346 10.564 8.206 10.5632H10.8904L11.4584 14.1915L9.17862 14.8762C8.9877 14.9327 8.78733 14.9491 8.58978 14.9244C8.39233 14.8997 8.2021 14.8344 8.031 14.7328L6.72653 13.9505C6.40024 13.7548 6.00963 13.6968 5.6405 13.7892C5.27136 13.8815 4.95415 14.1167 4.75846 14.443C4.56276 14.7693 4.50469 15.16 4.59712 15.5291C4.68945 15.8982 4.92468 16.2155 5.25096 16.4112L6.55446 17.1934C7.06804 17.501 7.6401 17.6983 8.23421 17.7726C8.82832 17.8467 9.43131 17.7965 10.0048 17.6247L12.4396 16.8941C12.9341 16.7457 13.4594 16.7335 13.9602 16.8587L14.8419 17.0787C15.1095 17.1457 15.3518 17.2885 15.5404 17.4898C15.7288 17.6911 15.8552 17.9425 15.9045 18.2138C15.9521 18.3959 16.037 18.5661 16.1536 18.7136C16.2704 18.8611 16.4165 18.983 16.5825 19.0713C16.7486 19.1596 16.9313 19.2126 17.1189 19.2268C17.3066 19.241 17.4951 19.2161 17.6726 19.1539L18.0179 19.0314Z" fill="#66E1FF"/>
<path d="M6.27002 10.199C7.19638 9.50458 8.32272 9.1291 9.48039 9.12881H15.1227C15.6259 9.12891 16.1195 8.99275 16.5514 8.73479C16.9834 8.47682 17.3373 8.10671 17.5757 7.66369L18.7903 5.3991C18.4385 5.2644 18.0478 5.27338 17.7027 5.42418C17.3576 5.57508 17.0855 5.85559 16.9455 6.2053L16.7103 6.79346C16.6045 7.06011 16.4208 7.2887 16.1832 7.44935C15.9455 7.6101 15.6649 7.69541 15.3781 7.69424H8.2056C7.47152 7.72049 6.75336 7.91531 6.10664 8.26356C5.45992 8.61181 4.90192 9.10421 4.47598 9.70252C4.28058 9.96459 4.18053 10.2854 4.19234 10.612C4.20415 10.9387 4.32723 11.2514 4.54098 11.4986L6.27002 10.199Z" fill="#C2F3FF"/>
<path d="M18.0179 19.0314C18.281 18.9382 18.4995 18.7499 18.6305 18.5034C18.7615 18.2571 18.7954 17.9704 18.7256 17.7002C18.577 16.8864 18.1975 16.1324 17.6324 15.5284C17.0672 14.9241 16.3404 14.4953 15.5382 14.2929L14.3618 13.9983L13.8349 10.5632H15.3785C16.2391 10.5662 17.0807 10.3097 17.7935 9.82736C18.5062 9.34491 19.0569 8.65886 19.374 7.85871L19.6092 7.27153C19.6809 7.09633 19.7172 6.90864 19.7162 6.71929C19.715 6.53003 19.6764 6.34273 19.6026 6.16841C19.5287 5.99409 19.4211 5.83617 19.2859 5.70363C19.1507 5.57108 18.9907 5.46655 18.8149 5.39618C18.6391 5.3259 18.4512 5.29096 18.2619 5.2936C18.0726 5.29623 17.8856 5.33625 17.7119 5.4115C17.5381 5.48666 17.381 5.59558 17.2494 5.73174C17.1181 5.86799 17.0148 6.02894 16.9459 6.20521L16.7106 6.79337C16.6049 7.06002 16.4211 7.28861 16.1836 7.44936C15.9459 7.61001 15.6653 7.69542 15.3785 7.69425H8.206C7.47193 7.7205 6.75376 7.91522 6.10704 8.26347C5.46022 8.61172 4.90232 9.10412 4.47629 9.70253C4.36326 9.85323 4.28108 10.0247 4.23433 10.2071C4.18758 10.3897 4.17723 10.5796 4.20388 10.766C4.25765 11.1427 4.45882 11.4825 4.76324 11.7108C5.06757 11.939 5.45017 12.0371 5.82682 11.9832C6.20338 11.9294 6.54323 11.7282 6.77152 11.4239L7.05838 11.137C7.19249 10.9594 7.36593 10.8152 7.56494 10.7157C7.76405 10.6161 7.98346 10.564 8.206 10.5632H10.8904L11.4584 14.1915L9.17862 14.8762C8.9877 14.9327 8.78733 14.9491 8.58978 14.9244C8.39233 14.8997 8.2021 14.8344 8.031 14.7328L6.72653 13.9505C6.40024 13.7548 6.00963 13.6968 5.6405 13.7892C5.27136 13.8815 4.95415 14.1167 4.75846 14.443C4.56276 14.7693 4.50469 15.16 4.59712 15.5291C4.68945 15.8982 4.92468 16.2155 5.25096 16.4112L6.55446 17.1934C7.06804 17.501 7.6401 17.6983 8.23421 17.7726C8.82832 17.8467 9.43131 17.7965 10.0048 17.6247L12.4396 16.8941C12.9341 16.7457 13.4594 16.7335 13.9602 16.8587L14.8419 17.0787C15.1095 17.1457 15.3518 17.2885 15.5404 17.4898C15.7288 17.6911 15.8552 17.9425 15.9045 18.2138C15.9521 18.3959 16.037 18.5661 16.1536 18.7136C16.2704 18.8611 16.4165 18.983 16.5825 19.0713C16.7486 19.1596 16.9313 19.2126 17.1189 19.2268C17.3066 19.241 17.4951 19.2161 17.6726 19.1539L18.0179 19.0314Z" stroke="#191919" stroke-linecap="round" stroke-linejoin="round"/>
</g>
<defs>
<clipPath id="clip0_5303_11538">
<rect width="24" height="24" fill="white"/>
</clipPath>
</defs>
</svg>
