<svg width="24" height="24" viewBox="0 0 24 24" fill="none" xmlns="http://www.w3.org/2000/svg">
<g clip-path="url(#clip0_5303_12846)">
<path d="M10.7982 18.073L9.62077 19.8435C9.54123 19.9644 9.49589 20.1046 9.48954 20.2492C9.48319 20.3939 9.51607 20.5374 9.58469 20.6649C9.65332 20.7923 9.75513 20.8989 9.87935 20.9731C10.0036 21.0474 10.1456 21.0868 10.2903 21.087H13.7128C13.8575 21.0868 13.9995 21.0474 14.1238 20.9731C14.2479 20.8989 14.3498 20.7923 14.4184 20.6649C14.4871 20.5374 14.5199 20.3939 14.5136 20.2492C14.5073 20.1046 14.4619 19.9644 14.3823 19.8435L13.2049 18.0777" fill="#78EB7B"/>
<path d="M10.7982 18.073L9.62077 19.8435C9.54123 19.9644 9.49589 20.1046 9.48954 20.2492C9.48319 20.3939 9.51607 20.5374 9.58469 20.6649C9.65332 20.7923 9.75513 20.8989 9.87935 20.9731C10.0036 21.0474 10.1456 21.0868 10.2903 21.087H13.7128C13.8575 21.0868 13.9995 21.0474 14.1238 20.9731C14.2479 20.8989 14.3498 20.7923 14.4184 20.6649C14.4871 20.5374 14.5199 20.3939 14.5136 20.2492C14.5073 20.1046 14.4619 19.9644 14.3823 19.8435L13.2049 18.0777" stroke="#191919" stroke-linecap="round" stroke-linejoin="round"/>
<path d="M12 21.087C12 21.087 12 23 12.9565 23" stroke="#191919" stroke-linecap="round" stroke-linejoin="round"/>
<path d="M19.652 8.65217C19.652 12.8781 16.2257 18.2174 11.9998 18.2174C7.77392 18.2174 4.34766 12.8781 4.34766 8.65217C4.34766 6.62269 5.15386 4.67633 6.58893 3.24127C8.02399 1.8062 9.97035 1 11.9998 1C14.0293 1 15.9757 1.8062 17.4108 3.24127C18.8458 4.67633 19.652 6.62269 19.652 8.65217Z" fill="#78EB7B"/>
<path d="M11.9998 4.82609C13.7069 4.82581 15.3652 5.3964 16.7107 6.44709C18.0562 7.49778 19.0117 8.96823 19.4253 10.6245C19.5722 9.97724 19.6482 9.3159 19.652 8.65217C19.652 6.62269 18.8458 4.67633 17.4108 3.24127C15.9757 1.8062 14.0293 1 11.9998 1C9.97035 1 8.02399 1.8062 6.58893 3.24127C5.15386 4.67633 4.34766 6.62269 4.34766 8.65217C4.35143 9.3159 4.42745 9.97724 4.57435 10.6245C4.9879 8.96823 5.94344 7.49778 7.28895 6.44709C8.63447 5.3964 10.2927 4.82581 11.9998 4.82609Z" fill="#C9F7CA"/>
<path d="M19.652 8.65217C19.652 12.8781 16.2257 18.2174 11.9998 18.2174C7.77392 18.2174 4.34766 12.8781 4.34766 8.65217C4.34766 6.62269 5.15386 4.67633 6.58893 3.24127C8.02399 1.8062 9.97035 1 11.9998 1C14.0293 1 15.9757 1.8062 17.4108 3.24127C18.8458 4.67633 19.652 6.62269 19.652 8.65217Z" stroke="#191919" stroke-linecap="round" stroke-linejoin="round"/>
</g>
<defs>
<clipPath id="clip0_5303_12846">
<rect width="24" height="24" fill="white"/>
</clipPath>
</defs>
</svg>
