<svg width="24" height="24" viewBox="0 0 24 24" fill="none" xmlns="http://www.w3.org/2000/svg">
<path d="M1 1.97943L23 8.32212" stroke="#191919" stroke-linecap="round" stroke-linejoin="round"/>
<path d="M1.78906 2.20703L2.64132 7.9519C2.65453 8.04221 2.69331 8.12683 2.75307 8.1958C2.81283 8.26478 2.89107 8.31522 2.97856 8.34117C3.06606 8.36711 3.15915 8.36748 3.24685 8.34224C3.33454 8.317 3.41319 8.26718 3.4735 8.19868L7.34454 3.80825L1.78906 2.20703Z" fill="#FF808C"/>
<path d="M2.90437 8.31155L4.57158 3.0086L1.78906 2.20703L2.64132 7.9519C2.65269 8.0287 2.68257 8.10158 2.7284 8.16424C2.77423 8.22689 2.83462 8.27746 2.90437 8.31155Z" fill="#FFBFC5"/>
<path d="M9.11768 4.32007L9.92307 10.0869C9.93569 10.1771 9.97381 10.2618 10.033 10.3311C10.0921 10.4004 10.1698 10.4513 10.2569 10.478C10.344 10.5046 10.4369 10.5059 10.5247 10.4815C10.6125 10.4571 10.6914 10.4081 10.7524 10.3404L14.7114 5.92989L9.11768 4.32007Z" fill="#66E1FF"/>
<path d="M10.1737 10.4456L11.8792 5.11302L9.11768 4.32007L9.92307 10.0869C9.93328 10.1624 9.96136 10.2342 10.0049 10.2966C10.0485 10.359 10.1063 10.4101 10.1737 10.4456Z" fill="#C2F3FF"/>
<path d="M16.438 6.43011L17.2434 12.2075C17.2558 12.2979 17.294 12.3829 17.3532 12.4524C17.4124 12.5218 17.4902 12.5729 17.5775 12.5996C17.6648 12.6263 17.7579 12.6273 17.8458 12.6027C17.9337 12.5783 18.0128 12.529 18.0736 12.461L22.0375 8.04472L16.438 6.43011Z" fill="#FFEF5E"/>
<path d="M17.5036 12.5739L19.1105 7.20585L16.438 6.43011L17.2434 12.2075C17.2534 12.2852 17.2824 12.3593 17.3277 12.4231C17.3731 12.487 17.4335 12.5387 17.5036 12.5739Z" fill="#FFF9BF"/>
<path d="M1 16.8055L23 14.3396" stroke="#191919" stroke-linecap="round" stroke-linejoin="round"/>
<path d="M1.40039 16.7605L4.33405 21.7832C4.3803 21.8611 4.44774 21.9243 4.5285 21.9654C4.60927 22.0064 4.70002 22.0237 4.79022 22.0152C4.88042 22.0067 4.96635 21.9726 5.03799 21.9173C5.10963 21.8618 5.16405 21.7871 5.19492 21.7019L7.18448 16.113L1.40039 16.7605Z" fill="#78EB7B"/>
<path d="M4.20874 16.4458L1.40039 16.7605L4.33405 21.7832C4.37993 21.862 4.44734 21.9259 4.52834 21.9676C4.60933 22.0093 4.70056 22.027 4.79126 22.0185C4.81638 22.0157 4.8413 22.0112 4.86587 22.0052L4.20874 16.4458Z" fill="#C9F7CA"/>
<path d="M9.25098 15.8806L12.2066 20.9444C12.2529 21.0222 12.3203 21.0855 12.4011 21.1265C12.4818 21.1675 12.5726 21.1848 12.6628 21.1763C12.753 21.1678 12.8389 21.1339 12.9105 21.0784C12.9822 21.0229 13.0366 20.9483 13.0675 20.8631L15.0762 15.2282L9.25098 15.8806Z" fill="#FF808C"/>
<path d="M12.1454 15.5563L9.25098 15.8805L12.2066 20.9444C12.2501 21.0187 12.313 21.0798 12.3884 21.1214C12.4638 21.163 12.5491 21.1835 12.6351 21.1806L12.1454 15.5563Z" fill="#FFBFC5"/>
<path d="M16.7251 15.0426L19.6434 20.0424C19.6897 20.1203 19.7572 20.1835 19.8379 20.2245C19.9186 20.2655 20.0094 20.2828 20.0996 20.2743C20.1898 20.2658 20.2757 20.2319 20.3474 20.1764C20.419 20.1209 20.4734 20.0463 20.5043 19.9611L22.4824 14.397L16.7251 15.0426Z" fill="#66E1FF"/>
<path d="M19.6664 14.7136L16.7251 15.0426L19.6434 20.0424C19.6859 20.1149 19.7468 20.1749 19.8198 20.2163C19.8929 20.2578 19.9755 20.2793 20.0595 20.2786L19.6664 14.7136Z" fill="#C2F3FF"/>
<path d="M1.40039 16.7605L4.33405 21.7832C4.3803 21.8611 4.44774 21.9243 4.5285 21.9654C4.60927 22.0064 4.70002 22.0237 4.79022 22.0152C4.88042 22.0067 4.96635 21.9726 5.03799 21.9173C5.10963 21.8618 5.16405 21.7871 5.19492 21.7019L7.18448 16.113L1.40039 16.7605Z" stroke="#191919" stroke-linecap="round" stroke-linejoin="round"/>
<path d="M9.25098 15.8806L12.2066 20.9444C12.2529 21.0222 12.3203 21.0855 12.4011 21.1265C12.4818 21.1675 12.5726 21.1848 12.6628 21.1763C12.753 21.1678 12.8389 21.1339 12.9105 21.0784C12.9822 21.0229 13.0366 20.9483 13.0675 20.8631L15.0762 15.2282L9.25098 15.8806Z" stroke="#191919" stroke-linecap="round" stroke-linejoin="round"/>
<path d="M16.7251 15.0426L19.6434 20.0424C19.6897 20.1203 19.7572 20.1835 19.8379 20.2245C19.9186 20.2655 20.0094 20.2828 20.0996 20.2743C20.1898 20.2658 20.2757 20.2319 20.3474 20.1764C20.419 20.1209 20.4734 20.0463 20.5043 19.9611L22.4824 14.397L16.7251 15.0426Z" stroke="#191919" stroke-linecap="round" stroke-linejoin="round"/>
<path d="M1.78906 2.20703L2.64132 7.9519C2.65453 8.04221 2.69331 8.12683 2.75307 8.1958C2.81283 8.26478 2.89107 8.31522 2.97856 8.34117C3.06606 8.36711 3.15915 8.36748 3.24685 8.34224C3.33454 8.317 3.41319 8.26718 3.4735 8.19868L7.34454 3.80825L1.78906 2.20703Z" stroke="#191919" stroke-linecap="round" stroke-linejoin="round"/>
<path d="M9.11768 4.32007L9.92307 10.0869C9.93569 10.1771 9.97381 10.2618 10.033 10.3311C10.0921 10.4004 10.1698 10.4513 10.2569 10.478C10.344 10.5046 10.4369 10.5059 10.5247 10.4815C10.6125 10.4571 10.6914 10.4081 10.7524 10.3404L14.7114 5.92989L9.11768 4.32007Z" stroke="#191919" stroke-linecap="round" stroke-linejoin="round"/>
<path d="M16.438 6.43011L17.2434 12.2075C17.2558 12.2979 17.294 12.3829 17.3532 12.4524C17.4124 12.5218 17.4902 12.5729 17.5775 12.5996C17.6648 12.6263 17.7579 12.6273 17.8458 12.6027C17.9337 12.5783 18.0128 12.529 18.0736 12.461L22.0375 8.04472L16.438 6.43011Z" stroke="#191919" stroke-linecap="round" stroke-linejoin="round"/>
</svg>
