<svg width="24" height="24" viewBox="0 0 24 24" fill="none" xmlns="http://www.w3.org/2000/svg">
<g clip-path="url(#clip0_5303_12696)">
<path d="M23 1.76245V22.9999" stroke="#191919" stroke-linecap="round" stroke-linejoin="round"/>
<path d="M22.7302 1.3253C22.6484 1.28525 22.5569 1.26938 22.4665 1.27954C22.376 1.28971 22.2903 1.32549 22.2194 1.38269C17.2761 5.41629 17.0141 -0.634595 12 1.45156C6.986 -0.634595 6.72392 5.41629 1.78067 1.38269C1.70977 1.32482 1.62376 1.28851 1.53285 1.27807C1.44193 1.26762 1.34992 1.28348 1.26775 1.32376C1.18558 1.36404 1.11668 1.42705 1.06925 1.50532C1.02182 1.58358 0.997842 1.67381 1.00015 1.76529C1.03841 4.45213 1.7338 11.3936 7.8813 11.3936C9.23171 11.4059 10.5709 11.148 11.8202 10.635C11.877 10.6105 11.9381 10.5977 12 10.5977C12.0619 10.5977 12.1231 10.6105 12.1798 10.635C13.4291 11.148 14.7684 11.4059 16.1188 11.3936C22.2663 11.3936 22.9616 4.45213 22.9999 1.76529C23.0017 1.67384 22.9773 1.58377 22.9295 1.50579C22.8817 1.4278 22.8125 1.36516 22.7302 1.3253ZM10.0698 6.68558C9.89571 7.66983 8.47433 8.23991 6.89896 7.9587C5.32359 7.67749 4.19012 6.65115 4.36612 5.66307C4.54212 4.675 5.96158 4.11257 7.536 4.39378C9.11041 4.675 10.2448 5.70038 10.0698 6.68558ZM17.1011 7.9587C15.5257 8.23991 14.1063 7.67175 13.9303 6.68558C13.7543 5.69942 14.8868 4.67691 16.4641 4.38996C18.0414 4.103 19.4579 4.67691 19.6339 5.66307C19.8099 6.64924 18.6755 7.67749 17.1011 7.9587Z" fill="#FF808C"/>
<path d="M11.7686 1.35973C6.97644 -0.448075 6.64357 5.35317 1.78067 1.38269C1.70977 1.32482 1.62376 1.28851 1.53285 1.27807C1.44193 1.26762 1.34992 1.28348 1.26775 1.32376C1.18558 1.36404 1.11668 1.42705 1.06925 1.50532C1.02182 1.58358 0.997842 1.67381 1.00015 1.7653C1.03841 4.45214 1.7338 11.3936 7.8813 11.3936C9.2128 11.4052 10.5336 11.155 11.7686 10.657V1.35973ZM6.89896 7.95966C5.32454 7.67845 4.19012 6.65211 4.36612 5.66404C4.54212 4.67596 5.96158 4.11257 7.536 4.39379C9.11041 4.675 10.2448 5.70038 10.0698 6.68942C9.89475 7.67845 8.47433 8.24088 6.89896 7.95966Z" fill="#FFBFC5"/>
<path d="M22.7302 1.3253C22.6484 1.28525 22.5569 1.26938 22.4665 1.27954C22.376 1.28971 22.2903 1.32549 22.2194 1.38269C17.2761 5.41629 17.0141 -0.634595 12 1.45156C6.986 -0.634595 6.72392 5.41629 1.78067 1.38269C1.70977 1.32482 1.62376 1.28851 1.53285 1.27807C1.44193 1.26762 1.34992 1.28348 1.26775 1.32376C1.18558 1.36404 1.11668 1.42705 1.06925 1.50532C1.02182 1.58358 0.997842 1.67381 1.00015 1.76529C1.03841 4.45213 1.7338 11.3936 7.8813 11.3936C9.23171 11.4059 10.5709 11.148 11.8202 10.635C11.877 10.6105 11.9381 10.5977 12 10.5977C12.0619 10.5977 12.1231 10.6105 12.1798 10.635C13.4291 11.148 14.7684 11.4059 16.1188 11.3936C22.2663 11.3936 22.9616 4.45213 22.9999 1.76529C23.0017 1.67384 22.9773 1.58377 22.9295 1.50579C22.8817 1.4278 22.8125 1.36516 22.7302 1.3253ZM10.0698 6.68558C9.89571 7.66983 8.47433 8.23991 6.89896 7.9587C5.32359 7.67749 4.19012 6.65115 4.36612 5.66307C4.54212 4.675 5.96158 4.11257 7.536 4.39378C9.11041 4.675 10.2448 5.70038 10.0698 6.68558ZM17.1011 7.9587C15.5257 8.23991 14.1063 7.67175 13.9303 6.68558C13.7543 5.69942 14.8868 4.67691 16.4641 4.38996C18.0414 4.103 19.4579 4.67691 19.6339 5.66307C19.8099 6.64924 18.6755 7.67749 17.1011 7.9587Z" stroke="#191919" stroke-linecap="round" stroke-linejoin="round"/>
</g>
<defs>
<clipPath id="clip0_5303_12696">
<rect width="24" height="24" fill="white"/>
</clipPath>
</defs>
</svg>
