<svg width="24" height="24" viewBox="0 0 24 24" fill="none" xmlns="http://www.w3.org/2000/svg">
<g clip-path="url(#clip0_5303_12486)">
<path d="M8.1735 7.69559C9.49417 7.69559 10.5648 6.62497 10.5648 5.3043C10.5648 3.98364 9.49417 2.91302 8.1735 2.91302C6.85284 2.91302 5.78223 3.98364 5.78223 5.3043C5.78223 6.62497 6.85284 7.69559 8.1735 7.69559Z" fill="#FFBFC5"/>
<path d="M19.6518 6.26079C20.7084 6.26079 21.5648 5.4043 21.5648 4.34777C21.5648 3.29124 20.7084 2.43475 19.6518 2.43475C18.5952 2.43475 17.7388 3.29124 17.7388 4.34777C17.7388 5.4043 18.5952 6.26079 19.6518 6.26079Z" fill="#C2F3FF"/>
<path d="M19.1733 15.8259C20.2298 15.8259 21.0863 14.9695 21.0863 13.9129C21.0863 12.8563 20.2298 11.9999 19.1733 11.9999C18.1167 11.9999 17.2603 12.8563 17.2603 13.9129C17.2603 14.9695 18.1167 15.8259 19.1733 15.8259Z" fill="#C9F7CA"/>
<path d="M16.2876 12.2065C17.1783 11.3177 18.3852 10.8185 19.6435 10.8185C20.9018 10.8185 22.1087 11.3177 22.9994 12.2065" stroke="#191919" stroke-linecap="round" stroke-linejoin="round"/>
<path d="M11.7778 7.71279C12.2188 7.27212 12.5686 6.74888 12.8072 6.17297C13.0459 5.59708 13.1687 4.97979 13.1687 4.3564C13.1687 3.733 13.0459 3.11572 12.8072 2.53982C12.5686 1.96391 12.2188 1.44067 11.7778 1" stroke="#191919" stroke-linecap="round" stroke-linejoin="round"/>
<path d="M17.8105 8.41201L21.1669 7.2948" stroke="#191919" stroke-linecap="round" stroke-linejoin="round"/>
<path d="M15.5732 6.17663L16.6924 2.81927" stroke="#191919" stroke-linecap="round" stroke-linejoin="round"/>
<path d="M8.14014 5.08527C8.20355 5.08527 8.26438 5.11047 8.30923 5.15531C8.35407 5.20015 8.37926 5.26097 8.37926 5.3244" stroke="#191919" stroke-linecap="round" stroke-linejoin="round"/>
<path d="M7.90088 5.3244C7.90088 5.26097 7.92607 5.20015 7.97091 5.15531C8.01577 5.11047 8.07659 5.08527 8.14001 5.08527" stroke="#191919" stroke-linecap="round" stroke-linejoin="round"/>
<path d="M8.14001 5.56352C8.07659 5.56352 8.01577 5.53833 7.97091 5.49348C7.92607 5.44864 7.90088 5.38781 7.90088 5.3244" stroke="#191919" stroke-linecap="round" stroke-linejoin="round"/>
<path d="M8.37926 5.3244C8.37926 5.38781 8.35407 5.44864 8.30923 5.49348C8.26438 5.53833 8.20355 5.56352 8.14014 5.56352" stroke="#191919" stroke-linecap="round" stroke-linejoin="round"/>
<path d="M15.314 7.95477C15.3774 7.95477 15.4382 7.97996 15.4831 8.0248C15.5279 8.06965 15.5531 8.13047 15.5531 8.1939" stroke="#191919" stroke-linecap="round" stroke-linejoin="round"/>
<path d="M15.0747 8.1939C15.0747 8.13047 15.0999 8.06965 15.1447 8.0248C15.1896 7.97996 15.2504 7.95477 15.3138 7.95477" stroke="#191919" stroke-linecap="round" stroke-linejoin="round"/>
<path d="M15.3138 8.43304C15.2504 8.43304 15.1896 8.40784 15.1447 8.36299C15.0999 8.31815 15.0747 8.25733 15.0747 8.19391" stroke="#191919" stroke-linecap="round" stroke-linejoin="round"/>
<path d="M15.5531 8.19391C15.5531 8.25733 15.5279 8.31815 15.4831 8.36299C15.4382 8.40784 15.3774 8.43304 15.314 8.43304" stroke="#191919" stroke-linecap="round" stroke-linejoin="round"/>
<path d="M19.1396 13.6938C19.2031 13.6938 19.2639 13.719 19.3088 13.7639C19.3536 13.8087 19.3788 13.8696 19.3788 13.933" stroke="#191919" stroke-linecap="round" stroke-linejoin="round"/>
<path d="M18.9009 13.933C18.9009 13.8696 18.926 13.8087 18.9709 13.7639C19.0158 13.719 19.0766 13.6938 19.14 13.6938" stroke="#191919" stroke-linecap="round" stroke-linejoin="round"/>
<path d="M19.14 14.1721C19.0766 14.1721 19.0158 14.147 18.9709 14.1021C18.926 14.0572 18.9009 13.9964 18.9009 13.933" stroke="#191919" stroke-linecap="round" stroke-linejoin="round"/>
<path d="M19.3788 13.933C19.3788 13.9964 19.3536 14.0572 19.3088 14.1021C19.2639 14.147 19.2031 14.1721 19.1396 14.1721" stroke="#191919" stroke-linecap="round" stroke-linejoin="round"/>
<path d="M19.6182 4.12872C19.6816 4.12872 19.7424 4.15391 19.7873 4.19875C19.8321 4.2436 19.8573 4.30442 19.8573 4.36785" stroke="#191919" stroke-linecap="round" stroke-linejoin="round"/>
<path d="M19.3789 4.36785C19.3789 4.30442 19.4041 4.2436 19.4489 4.19875C19.4938 4.15391 19.5546 4.12872 19.618 4.12872" stroke="#191919" stroke-linecap="round" stroke-linejoin="round"/>
<path d="M19.618 4.60699C19.5546 4.60699 19.4938 4.5818 19.4489 4.53695C19.4041 4.49211 19.3789 4.43128 19.3789 4.36786" stroke="#191919" stroke-linecap="round" stroke-linejoin="round"/>
<path d="M19.8573 4.36786C19.8573 4.43128 19.8321 4.49211 19.7873 4.53695C19.7424 4.5818 19.6816 4.60699 19.6182 4.60699" stroke="#191919" stroke-linecap="round" stroke-linejoin="round"/>
<path d="M15.0082 16.3759L2.89783 22.8477C2.65381 22.9781 2.37429 23.0266 2.10059 22.9861C1.82688 22.9454 1.57349 22.8178 1.37789 22.6221C1.18228 22.4264 1.05483 22.1729 1.01435 21.8992C0.973887 21.6254 1.02255 21.3459 1.15315 21.102L7.62395 8.99164L15.0082 16.3759Z" fill="#FFEF5E"/>
<path d="M11.316 12.6838L7.62386 8.99164L1.15306 21.102C1.02264 21.3463 0.974538 21.6262 1.01589 21.9C1.05725 22.1739 1.18587 22.4271 1.38263 22.6219L11.316 12.6838Z" fill="#FFF9BF"/>
<path d="M15.0082 16.3759L2.89783 22.8477C2.65381 22.9781 2.37429 23.0266 2.10059 22.9861C1.82688 22.9454 1.57349 22.8178 1.37789 22.6221C1.18228 22.4264 1.05483 22.1729 1.01435 21.8992C0.973887 21.6254 1.02255 21.3459 1.15315 21.102L7.62395 8.99164" stroke="#191919" stroke-linecap="round" stroke-linejoin="round"/>
<path d="M15.2422 16.1965C16.1761 15.2625 15.2676 12.8401 13.2131 10.7856C11.1586 8.73107 8.73618 7.82263 7.80233 8.75648C6.86846 9.69034 7.77691 12.1129 9.83139 14.1673C11.8859 16.2218 14.3083 17.1303 15.2422 16.1965Z" fill="#FFBC44" stroke="#191919" stroke-linecap="round" stroke-linejoin="round"/>
</g>
<defs>
<clipPath id="clip0_5303_12486">
<rect width="24" height="24" fill="white"/>
</clipPath>
</defs>
</svg>
