<svg width="24" height="24" viewBox="0 0 24 24" fill="none" xmlns="http://www.w3.org/2000/svg">
<g clip-path="url(#clip0_5303_4726)">
<mask id="mask0_5303_4726" style="mask-type:luminance" maskUnits="userSpaceOnUse" x="0" y="0" width="24" height="24">
<path d="M0 0H24V24H0V0Z" fill="white"/>
</mask>
<g mask="url(#mask0_5303_4726)">
<path d="M16.3044 1.95658V7.6957H8.65219C8.39854 7.6957 8.1552 7.79643 7.97586 7.97577C7.79642 8.1552 7.6957 8.39845 7.6957 8.65219V16.3043H1.95658C1.70284 16.3043 1.4596 16.2035 1.28016 16.0241C1.10082 15.8448 1 15.6014 1 15.3478V1.95658C1 1.70284 1.10082 1.4596 1.28016 1.28016C1.4596 1.10082 1.70284 1 1.95658 1H15.3478C15.6014 1 15.8448 1.10082 16.0242 1.28016C16.2036 1.4596 16.3044 1.70284 16.3044 1.95658Z" fill="#66E1FF"/>
<path d="M23.0001 8.65223V22.0434C23.0001 22.2972 22.8993 22.5405 22.7199 22.7198C22.5406 22.8992 22.2972 23 22.0436 23H8.65229C8.39864 23 8.1553 22.8992 7.97596 22.7198C7.79653 22.5405 7.6958 22.2972 7.6958 22.0434V16.3044H15.3479C15.6016 16.3044 15.845 16.2036 16.0243 16.0242C16.2037 15.8449 16.3045 15.6015 16.3045 15.3478V7.69574H22.0436C22.2972 7.69574 22.5406 7.79647 22.7199 7.97591C22.8993 8.15525 23.0001 8.39859 23.0001 8.65223Z" fill="#66E1FF"/>
<path d="M1.95658 16.3044C1.70284 16.3044 1.4596 16.2036 1.28016 16.0242C1.10082 15.8448 1 15.6014 1 15.3478V1.95658C1 1.70284 1.10082 1.4596 1.28016 1.28016C1.4596 1.10082 1.70284 1 1.95658 1H15.3478C15.6014 1 15.8448 1.10082 16.0242 1.28016C16.2036 1.4596 16.3044 1.70284 16.3044 1.95658V7.6957H22.0434C22.2971 7.6957 22.5405 7.79642 22.7198 7.97577C22.8992 8.1552 23 8.39845 23 8.65219V22.0434C23 22.2971 22.8992 22.5405 22.7198 22.7198C22.5405 22.8992 22.2971 23 22.0434 23H8.65219C8.39854 23 8.1552 22.8992 7.97586 22.7198C7.79642 22.5405 7.6957 22.2971 7.6957 22.0434V16.3043L1.95658 16.3044Z" stroke="#191919" stroke-linecap="round" stroke-linejoin="round"/>
<path d="M8.65229 7.69574C8.39864 7.69574 8.1553 7.79647 7.97596 7.97581C7.79653 8.15525 7.6958 8.39849 7.6958 8.65223" stroke="#191919" stroke-linecap="round" stroke-linejoin="round"/>
<path d="M7.6958 10.5653V11.5218" stroke="#191919" stroke-linecap="round" stroke-linejoin="round"/>
<path d="M11.5214 7.69574H10.5649" stroke="#191919" stroke-linecap="round" stroke-linejoin="round"/>
<path d="M14.3915 7.69574H13.4351" stroke="#191919" stroke-linecap="round" stroke-linejoin="round"/>
<path d="M10.565 16.3044H9.6084" stroke="#191919" stroke-linecap="round" stroke-linejoin="round"/>
<path d="M13.4351 16.3044H12.4785" stroke="#191919" stroke-linecap="round" stroke-linejoin="round"/>
<path d="M7.6958 14.3913V13.4348" stroke="#191919" stroke-linecap="round" stroke-linejoin="round"/>
<path d="M16.3042 9.6087V10.5653" stroke="#191919" stroke-linecap="round" stroke-linejoin="round"/>
<path d="M15.3477 16.3044C15.6013 16.3044 15.8446 16.2036 16.0241 16.0242C16.2035 15.8449 16.3042 15.6015 16.3042 15.3478" stroke="#191919" stroke-linecap="round" stroke-linejoin="round"/>
<path d="M16.3042 13.4348V12.4783" stroke="#191919" stroke-linecap="round" stroke-linejoin="round"/>
</g>
</g>
<defs>
<clipPath id="clip0_5303_4726">
<rect width="24" height="24" fill="white"/>
</clipPath>
</defs>
</svg>
