<svg width="24" height="24" viewBox="0 0 24 24" fill="none" xmlns="http://www.w3.org/2000/svg">
<g clip-path="url(#clip0_5303_9013)">
<path d="M17.89 4.31641H8.74888L4.37793 23H9.74299L11.3814 16.4122H15.2135C18.8425 16.519 22.0238 14.0036 22.7569 10.4478C23.6795 6.28586 20.6281 4.31641 17.89 4.31641ZM14.4087 7.13147C14.2552 7.73283 13.9305 8.27673 13.474 8.69728C13.3102 8.84852 13.1332 8.98465 12.945 9.10417C12.467 9.41433 11.9116 9.58423 11.3418 9.59455H8.8248L9.89139 5.03002L9.97497 4.66938H12.603C13.0209 4.6628 13.4289 4.7892 13.7697 5.03002C14.4152 5.51833 14.6731 6.3665 14.4087 7.13147Z" fill="#C2F3FF"/>
<path d="M14.5703 1H5.43139L1.06152 19.6836H6.42658L8.06938 13.0958H11.9015C15.5305 13.2026 18.7118 10.6872 19.4449 7.13151C20.363 2.9672 17.3117 1 14.5703 1ZM14.4054 7.13151C14.2519 7.73286 13.9272 8.27677 13.4707 8.69731C13.307 8.84856 13.1299 8.98468 12.9418 9.10421C12.4638 9.41436 11.9083 9.58427 11.3386 9.59458H8.82483L9.89142 5.03005L9.975 4.66942H12.6031C13.021 4.66284 13.4289 4.78924 13.7697 5.03005C14.4152 5.51837 14.673 6.36653 14.4086 7.13151H14.4054Z" fill="#66E1FF"/>
<path d="M14.5701 1H5.43122L1.74756 16.7487L8.90166 9.59458H8.82466L9.89125 5.03005L9.97482 4.66942H12.6029C12.9412 4.67207 13.2733 4.76144 13.5672 4.9289L16.9695 1.52563C16.2168 1.17983 15.3984 1.00059 14.5701 1Z" fill="#C2F3FF"/>
<path d="M14.5703 1H5.43139L1.06152 19.6836H6.42658L8.06938 13.0958H11.9015C15.5305 13.2026 18.7118 10.6872 19.4449 7.13151C20.363 2.9672 17.3117 1 14.5703 1ZM14.4054 7.13151C14.2519 7.73286 13.9272 8.27677 13.4707 8.69731C13.307 8.84856 13.1299 8.98468 12.9418 9.10421C12.4638 9.41436 11.9083 9.58427 11.3386 9.59458H8.82483L9.89142 5.03005L9.975 4.66942H12.6031C13.021 4.66284 13.4289 4.78924 13.7697 5.03005C14.4152 5.51837 14.673 6.36653 14.4086 7.13151H14.4054Z" stroke="#191919" stroke-linecap="round" stroke-linejoin="round"/>
<path d="M22.361 6.70477C22.9538 7.86024 23.096 9.19466 22.7602 10.449C22.0509 13.9479 18.9481 16.4438 15.3785 16.387C15.0299 16.3935 11.7597 16.387 11.4099 16.387L9.74191 23H4.37793L4.75183 21.3384" stroke="#191919" stroke-linecap="round" stroke-linejoin="round"/>
</g>
<defs>
<clipPath id="clip0_5303_9013">
<rect width="24" height="24" fill="white"/>
</clipPath>
</defs>
</svg>
