<svg width="24" height="24" viewBox="0 0 24 24" fill="none" xmlns="http://www.w3.org/2000/svg">
<path d="M17.0418 3.29169C17.528 3.29169 17.9943 3.48484 18.3382 3.82866C18.682 4.17248 18.8752 4.63879 18.8752 5.12502V20.7084C18.8752 21.1946 18.682 21.6609 18.3382 22.0047C17.9943 22.3485 17.528 22.5417 17.0418 22.5417H3.29183C2.8056 22.5417 2.33928 22.3485 1.99547 22.0047C1.65165 21.6609 1.4585 21.1946 1.4585 20.7084V5.12502C1.4585 4.63879 1.65165 4.17248 1.99547 3.82866C2.33928 3.48484 2.8056 3.29169 3.29183 3.29169H17.0418Z" fill="white"/>
<path d="M18.8751 9.23718L11.8425 12.5161L11.8416 12.5207L9.51416 15.1231L13.003 15.0131L13.0048 15.0085L18.8751 12.2714V9.23718Z" fill="#E4F1F5"/>
<path d="M18.8752 10.1621V20.7084C18.8752 21.1946 18.682 21.6609 18.3382 22.0047C17.9943 22.3485 17.528 22.5417 17.0418 22.5417H3.29183C2.8056 22.5417 2.33928 22.3485 1.99547 22.0047C1.65165 21.6609 1.4585 21.1946 1.4585 20.7084V5.12502C1.4585 4.63879 1.65165 4.17248 1.99547 3.82866C2.33928 3.48484 2.8056 3.29169 3.29183 3.29169H13.3119" stroke="#191919" stroke-linecap="round" stroke-linejoin="round"/>
<path d="M10.5508 11.5068L18.9768 3.08081L20.921 5.02506L12.495 13.4511L10.5508 11.5068Z" fill="#66E1FF"/>
<path d="M18.9768 3.08209L10.5508 11.5075L11.5217 12.4785L19.9477 4.0531L18.9768 3.08209Z" fill="#C2F3FF"/>
<path d="M10.5508 11.5114L18.9768 3.08539L20.921 5.0333L12.495 13.4556L10.5508 11.5114Z" stroke="#191919" stroke-linecap="round" stroke-linejoin="round"/>
<path d="M20.9208 5.02874L18.9766 3.08449L19.9491 2.11191C20.076 1.98058 20.2277 1.87583 20.3955 1.80377C20.5632 1.73171 20.7437 1.69378 20.9262 1.69219C21.1088 1.6906 21.2899 1.72539 21.4589 1.79453C21.6278 1.86367 21.7814 1.96577 21.9104 2.09487C22.0396 2.22396 22.1416 2.37749 22.2108 2.54648C22.28 2.71545 22.3147 2.89651 22.3131 3.07909C22.3116 3.26166 22.2736 3.44209 22.2016 3.60985C22.1295 3.7776 22.0248 3.92932 21.8934 4.05616L20.9208 5.02874Z" fill="#66E1FF" stroke="#191919" stroke-linecap="round" stroke-linejoin="round"/>
<path d="M18.9767 3.08176C18.6268 2.73185 18.1521 2.53528 17.6572 2.53528C17.1623 2.53528 16.6876 2.73185 16.3377 3.08176L14.2917 5.12501H13.375" stroke="#191919" stroke-linecap="round" stroke-linejoin="round"/>
<path d="M21.9102 2.09453L22.5417 1.46295" stroke="#191919" stroke-linecap="round" stroke-linejoin="round"/>
<path d="M9.25016 14.7546L8.3335 15.6712" stroke="#191919" stroke-linecap="round" stroke-linejoin="round"/>
<path d="M12.495 13.4557L9.25 14.75L10.5471 11.5087L12.495 13.4557Z" fill="#66E1FF" stroke="#191919" stroke-linecap="round" stroke-linejoin="round"/>
</svg>
