<svg width="24" height="24" viewBox="0 0 24 24" fill="none" xmlns="http://www.w3.org/2000/svg">
<path d="M2.8481 16.6154L1.45752 22.5416L7.38469 21.1511L7.6166 20.9201L3.08094 16.3835L2.8481 16.6154Z" fill="#FFBC44"/>
<path d="M5.34877 18.6513L3.08094 16.3835L2.8481 16.6154L1.45752 22.5416L5.34877 18.6513Z" fill="#FFDDA1"/>
<path d="M2.8481 16.6154L1.45752 22.5416L7.38469 21.1511L7.6166 20.9201L3.08094 16.3835L2.8481 16.6154Z" stroke="#191919" stroke-linecap="round" stroke-linejoin="round"/>
<path d="M3.08105 16.3835L7.61672 20.9201L20.0486 8.48917L15.5193 3.94342L3.08105 16.3835Z" fill="#FFEF5E"/>
<path d="M15.5293 3.95532L3.07178 16.3707L5.33594 18.6431L17.7934 6.22682L15.5293 3.95532Z" fill="#FFF9BF"/>
<path d="M3.08105 16.3835L7.61672 20.9201L20.0486 8.48917L15.5193 3.94342L3.08105 16.3835Z" stroke="#191919" stroke-linecap="round" stroke-linejoin="round"/>
<path d="M16.8198 2.64264L15.519 3.94339L20.0483 8.48914L21.3582 7.17922L16.8198 2.64264Z" fill="#E4F1F5" stroke="#191919" stroke-linecap="round" stroke-linejoin="round"/>
<path d="M22.0045 6.533C22.1749 6.36281 22.3101 6.16069 22.4024 5.93821C22.4946 5.71572 22.5421 5.47723 22.5421 5.23637C22.5421 4.99552 22.4946 4.75703 22.4024 4.53454C22.3101 4.31206 22.1749 4.10994 22.0045 3.93975L20.0593 1.9955C19.8891 1.82507 19.687 1.68987 19.4645 1.59762C19.242 1.50537 19.0036 1.45789 18.7627 1.45789C18.5218 1.45789 18.2834 1.50537 18.0609 1.59762C17.8384 1.68987 17.6363 1.82507 17.4661 1.9955L16.8198 2.64267L21.3582 7.17925L22.0045 6.533Z" fill="#FF808C"/>
<path d="M21.0319 2.96717L20.0593 1.9955C19.8891 1.82507 19.687 1.68987 19.4645 1.59762C19.242 1.50537 19.0036 1.45789 18.7627 1.45789C18.5218 1.45789 18.2834 1.50537 18.0609 1.59762C17.8384 1.68987 17.6363 1.82507 17.4661 1.9955L16.8198 2.64267L19.0886 4.91142L21.0319 2.96717Z" fill="#FFBFC5"/>
<path d="M22.0045 6.533C22.1749 6.36281 22.3101 6.16069 22.4024 5.93821C22.4946 5.71572 22.5421 5.47723 22.5421 5.23637C22.5421 4.99552 22.4946 4.75703 22.4024 4.53454C22.3101 4.31206 22.1749 4.10994 22.0045 3.93975L20.0593 1.9955C19.8891 1.82507 19.687 1.68987 19.4645 1.59762C19.242 1.50537 19.0036 1.45789 18.7627 1.45789C18.5218 1.45789 18.2834 1.50537 18.0609 1.59762C17.8384 1.68987 17.6363 1.82507 17.4661 1.9955L16.8198 2.64267L21.3582 7.17925L22.0045 6.533Z" stroke="#191919" stroke-linecap="round" stroke-linejoin="round"/>
</svg>
