<svg width="24" height="24" viewBox="0 0 24 24" fill="none" xmlns="http://www.w3.org/2000/svg">
<g clip-path="url(#clip0_5303_8350)">
<path d="M12.9561 20.6087C12.9561 20.4818 13.0064 20.3602 13.0961 20.2705C13.1858 20.1808 13.3075 20.1304 13.4343 20.1304H21.0865C21.2133 20.1304 21.335 20.1808 21.4246 20.2705C21.5143 20.3602 21.5647 20.4818 21.5647 20.6087V22.5217C21.5647 22.6486 21.5143 22.7702 21.4246 22.8599C21.335 22.9496 21.2133 23 21.0865 23H13.4343C13.3075 23 13.1858 22.9496 13.0961 22.8599C13.0064 22.7702 12.9561 22.6486 12.9561 22.5217V20.6087Z" fill="#FFEF5E"/>
<path d="M13.9136 17.7391C13.9136 17.6123 13.964 17.4906 14.0537 17.4009C14.1433 17.3113 14.265 17.2609 14.3918 17.2609H22.044C22.1708 17.2609 22.2925 17.3113 22.3822 17.4009C22.4719 17.4906 22.5222 17.6123 22.5222 17.7391V19.6522C22.5222 19.779 22.4719 19.9006 22.3822 19.9903C22.2925 20.08 22.1708 20.1304 22.044 20.1304H14.3918C14.265 20.1304 14.1433 20.08 14.0537 19.9903C13.964 19.9006 13.9136 19.779 13.9136 19.6522V17.7391Z" fill="#FFEF5E"/>
<path d="M2.43506 20.6087C2.43506 20.4818 2.48545 20.3602 2.57514 20.2705C2.66483 20.1808 2.78648 20.1304 2.91332 20.1304H10.5655C10.6923 20.1304 10.814 20.1808 10.9036 20.2705C10.9933 20.3602 11.0437 20.4818 11.0437 20.6087V22.5217C11.0437 22.6486 10.9933 22.7702 10.9036 22.8599C10.814 22.9496 10.6923 23 10.5655 23H2.91332C2.78648 23 2.66483 22.9496 2.57514 22.8599C2.48545 22.7702 2.43506 22.6486 2.43506 22.5217V20.6087Z" fill="#FFEF5E"/>
<path d="M1.47803 12C1.47803 11.8732 1.52842 11.7516 1.61811 11.6619C1.7078 11.5722 1.82944 11.5218 1.95629 11.5218H9.60844C9.73528 11.5218 9.85692 11.5722 9.94662 11.6619C10.0363 11.7516 10.0867 11.8732 10.0867 12V13.9131C10.0867 14.0399 10.0363 14.1616 9.94662 14.2513C9.85692 14.341 9.73528 14.3913 9.60844 14.3913H1.95629C1.82944 14.3913 1.7078 14.341 1.61811 14.2513C1.52842 14.1616 1.47803 14.0399 1.47803 13.9131V12Z" fill="#FFEF5E"/>
<path d="M2.43506 14.8696C2.43506 14.7428 2.48545 14.6211 2.57514 14.5314C2.66483 14.4417 2.78648 14.3914 2.91332 14.3914H10.5655C10.6923 14.3914 10.814 14.4417 10.9036 14.5314C10.9933 14.6211 11.0437 14.7428 11.0437 14.8696V16.7827C11.0437 16.9095 10.9933 17.0311 10.9036 17.1208C10.814 17.2105 10.6923 17.2609 10.5655 17.2609H2.91332C2.85051 17.2609 2.78832 17.2485 2.7303 17.2245C2.67227 17.2005 2.61955 17.1652 2.57514 17.1208C2.53073 17.0764 2.4955 17.0237 2.47146 16.9657C2.44743 16.9077 2.43506 16.8455 2.43506 16.7827V14.8696Z" fill="#FFEF5E"/>
<path d="M1.47803 17.7391C1.47803 17.6123 1.52842 17.4906 1.61811 17.4009C1.7078 17.3113 1.82944 17.2609 1.95629 17.2609H9.60844C9.73528 17.2609 9.85692 17.3113 9.94662 17.4009C10.0363 17.4906 10.0867 17.6123 10.0867 17.7391V19.6522C10.0867 19.779 10.0363 19.9006 9.94662 19.9903C9.85692 20.08 9.73528 20.1304 9.60844 20.1304H1.95629C1.82944 20.1304 1.7078 20.08 1.61811 19.9903C1.52842 19.9006 1.47803 19.779 1.47803 19.6522V17.7391Z" fill="#FFEF5E"/>
<path d="M2.43506 20.6087C2.43506 20.4818 2.48545 20.3602 2.57514 20.2705C2.66483 20.1808 2.78648 20.1304 2.91332 20.1304H10.5655C10.6923 20.1304 10.814 20.1808 10.9036 20.2705C10.9933 20.3602 11.0437 20.4818 11.0437 20.6087V22.5217C11.0437 22.6486 10.9933 22.7702 10.9036 22.8599C10.814 22.9496 10.6923 23 10.5655 23H2.91332C2.78648 23 2.66483 22.9496 2.57514 22.8599C2.48545 22.7702 2.43506 22.6486 2.43506 22.5217V20.6087Z" fill="#FFEF5E"/>
<path d="M13.9136 17.7391C13.9136 17.6123 13.964 17.4906 14.0537 17.4009C14.1433 17.3113 14.265 17.2609 14.3918 17.2609H22.044C22.1708 17.2609 22.2925 17.3113 22.3822 17.4009C22.4719 17.4906 22.5222 17.6123 22.5222 17.7391V19.6522C22.5222 19.779 22.4719 19.9006 22.3822 19.9903C22.2925 20.08 22.1708 20.1304 22.044 20.1304H14.3918C14.265 20.1304 14.1433 20.08 14.0537 19.9903C13.964 19.9006 13.9136 19.779 13.9136 19.6522V17.7391Z" fill="#FFEF5E"/>
<path d="M12.9561 20.6087C12.9561 20.4818 13.0064 20.3602 13.0961 20.2705C13.1858 20.1808 13.3075 20.1304 13.4343 20.1304H21.0865C21.2133 20.1304 21.335 20.1808 21.4246 20.2705C21.5143 20.3602 21.5647 20.4818 21.5647 20.6087V22.5217C21.5647 22.6486 21.5143 22.7702 21.4246 22.8599C21.335 22.9496 21.2133 23 21.0865 23H13.4343C13.3075 23 13.1858 22.9496 13.0961 22.8599C13.0064 22.7702 12.9561 22.6486 12.9561 22.5217V20.6087Z" fill="#FFEF5E"/>
<path d="M2.43506 14.8696C2.43506 14.7428 2.48545 14.6211 2.57514 14.5314C2.66483 14.4417 2.78648 14.3914 2.91332 14.3914H10.5655C10.6923 14.3914 10.814 14.4417 10.9036 14.5314C10.9933 14.6211 11.0437 14.7428 11.0437 14.8696V16.7827C11.0437 16.9095 10.9933 17.0311 10.9036 17.1208C10.814 17.2105 10.6923 17.2609 10.5655 17.2609H2.91332C2.85051 17.2609 2.78832 17.2485 2.7303 17.2245C2.67227 17.2005 2.61955 17.1652 2.57514 17.1208C2.53073 17.0764 2.4955 17.0237 2.47146 16.9657C2.44743 16.9077 2.43506 16.8455 2.43506 16.7827V14.8696Z" fill="#FFEF5E"/>
<path d="M1.47803 17.7391C1.47803 17.6123 1.52842 17.4906 1.61811 17.4009C1.7078 17.3113 1.82944 17.2609 1.95629 17.2609H9.60844C9.73528 17.2609 9.85692 17.3113 9.94662 17.4009C10.0363 17.4906 10.0867 17.6123 10.0867 17.7391V19.6522C10.0867 19.779 10.0363 19.9006 9.94662 19.9903C9.85692 20.08 9.73528 20.1304 9.60844 20.1304H1.95629C1.82944 20.1304 1.7078 20.08 1.61811 19.9903C1.52842 19.9006 1.47803 19.779 1.47803 19.6522V17.7391Z" fill="#FFEF5E"/>
<path d="M9.60844 11.5218H1.95629C1.82944 11.5218 1.7078 11.5722 1.61811 11.6619C1.52842 11.7516 1.47803 11.8732 1.47803 12V13.4348C1.47803 13.308 1.52842 13.1863 1.61811 13.0966C1.7078 13.007 1.82944 12.9566 1.95629 12.9566H9.60844C9.73528 12.9566 9.85692 13.007 9.94662 13.0966C10.0363 13.1863 10.0867 13.308 10.0867 13.4348V12C10.0867 11.8732 10.0363 11.7516 9.94662 11.6619C9.85692 11.5722 9.73528 11.5218 9.60844 11.5218Z" fill="#FFF9BF"/>
<path d="M10.5655 14.3914H2.91332C2.78648 14.3914 2.66483 14.4417 2.57514 14.5314C2.48545 14.6211 2.43506 14.7428 2.43506 14.8696V16.3044C2.43506 16.1776 2.48545 16.0559 2.57514 15.9662C2.66483 15.8765 2.78648 15.8261 2.91332 15.8261H10.5655C10.6923 15.8261 10.814 15.8765 10.9036 15.9662C10.9933 16.0559 11.0437 16.1776 11.0437 16.3044V14.8696C11.0437 14.7428 10.9933 14.6211 10.9036 14.5314C10.814 14.4417 10.6923 14.3914 10.5655 14.3914Z" fill="#FFF9BF"/>
<path d="M9.60844 17.2609H1.95629C1.82944 17.2609 1.7078 17.3113 1.61811 17.4009C1.52842 17.4906 1.47803 17.6123 1.47803 17.7391V19.1739C1.47803 19.0471 1.52842 18.9254 1.61811 18.8357C1.7078 18.746 1.82944 18.6956 1.95629 18.6956H9.60844C9.73528 18.6956 9.85692 18.746 9.94662 18.8357C10.0363 18.9254 10.0867 19.0471 10.0867 19.1739V17.7391C10.0867 17.6123 10.0363 17.4906 9.94662 17.4009C9.85692 17.3113 9.73528 17.2609 9.60844 17.2609Z" fill="#FFF9BF"/>
<path d="M22.044 17.2609H14.3918C14.265 17.2609 14.1433 17.3113 14.0537 17.4009C13.964 17.4906 13.9136 17.6123 13.9136 17.7391V19.1739C13.9136 19.0471 13.964 18.9254 14.0537 18.8357C14.1433 18.746 14.265 18.6956 14.3918 18.6956H22.044C22.1708 18.6956 22.2925 18.746 22.3822 18.8357C22.4719 18.9254 22.5222 19.0471 22.5222 19.1739V17.7391C22.5222 17.6123 22.4719 17.4906 22.3822 17.4009C22.2925 17.3113 22.1708 17.2609 22.044 17.2609Z" fill="#FFF9BF"/>
<path d="M21.0865 20.1304H13.4343C13.3075 20.1304 13.1858 20.1808 13.0961 20.2705C13.0064 20.3602 12.9561 20.4818 12.9561 20.6087V22.0435C12.9561 21.9166 13.0064 21.795 13.0961 21.7053C13.1858 21.6156 13.3075 21.5652 13.4343 21.5652H21.0865C21.2133 21.5652 21.335 21.6156 21.4246 21.7053C21.5143 21.795 21.5647 21.9166 21.5647 22.0435V20.6087C21.5647 20.4818 21.5143 20.3602 21.4246 20.2705C21.335 20.1808 21.2133 20.1304 21.0865 20.1304Z" fill="#FFF9BF"/>
<path d="M10.5655 20.1304H2.91332C2.78648 20.1304 2.66483 20.1808 2.57514 20.2705C2.48545 20.3602 2.43506 20.4818 2.43506 20.6087V22.0435C2.43506 21.9166 2.48545 21.795 2.57514 21.7053C2.66483 21.6156 2.78648 21.5652 2.91332 21.5652H10.5655C10.6923 21.5652 10.814 21.6156 10.9036 21.7053C10.9933 21.795 11.0437 21.9166 11.0437 22.0435V20.6087C11.0437 20.4818 10.9933 20.3602 10.9036 20.2705C10.814 20.1808 10.6923 20.1304 10.5655 20.1304Z" fill="#FFF9BF"/>
<path d="M1.47803 12C1.47803 11.8732 1.52842 11.7516 1.61811 11.6619C1.7078 11.5722 1.82944 11.5218 1.95629 11.5218H9.60844C9.73528 11.5218 9.85692 11.5722 9.94662 11.6619C10.0363 11.7516 10.0867 11.8732 10.0867 12V13.9131C10.0867 14.0399 10.0363 14.1616 9.94662 14.2513C9.85692 14.341 9.73528 14.3913 9.60844 14.3913H1.95629C1.82944 14.3913 1.7078 14.341 1.61811 14.2513C1.52842 14.1616 1.47803 14.0399 1.47803 13.9131V12Z" stroke="#191919" stroke-linecap="round" stroke-linejoin="round"/>
<path d="M2.43506 14.8696C2.43506 14.7428 2.48545 14.6211 2.57514 14.5314C2.66483 14.4417 2.78648 14.3914 2.91332 14.3914H10.5655C10.6923 14.3914 10.814 14.4417 10.9036 14.5314C10.9933 14.6211 11.0437 14.7428 11.0437 14.8696V16.7827C11.0437 16.9095 10.9933 17.0311 10.9036 17.1208C10.814 17.2105 10.6923 17.2609 10.5655 17.2609H2.91332C2.85051 17.2609 2.78832 17.2485 2.7303 17.2245C2.67227 17.2005 2.61955 17.1652 2.57514 17.1208C2.53073 17.0764 2.4955 17.0237 2.47146 16.9657C2.44743 16.9077 2.43506 16.8455 2.43506 16.7827V14.8696Z" stroke="#191919" stroke-linecap="round" stroke-linejoin="round"/>
<path d="M1.47803 17.7391C1.47803 17.6123 1.52842 17.4906 1.61811 17.4009C1.7078 17.3113 1.82944 17.2609 1.95629 17.2609H9.60844C9.73528 17.2609 9.85692 17.3113 9.94662 17.4009C10.0363 17.4906 10.0867 17.6123 10.0867 17.7391V19.6522C10.0867 19.779 10.0363 19.9006 9.94662 19.9903C9.85692 20.08 9.73528 20.1304 9.60844 20.1304H1.95629C1.82944 20.1304 1.7078 20.08 1.61811 19.9903C1.52842 19.9006 1.47803 19.779 1.47803 19.6522V17.7391Z" stroke="#191919" stroke-linecap="round" stroke-linejoin="round"/>
<path d="M2.43506 20.6087C2.43506 20.4818 2.48545 20.3602 2.57514 20.2705C2.66483 20.1808 2.78648 20.1304 2.91332 20.1304H10.5655C10.6923 20.1304 10.814 20.1808 10.9036 20.2705C10.9933 20.3602 11.0437 20.4818 11.0437 20.6087V22.5217C11.0437 22.6486 10.9933 22.7702 10.9036 22.8599C10.814 22.9496 10.6923 23 10.5655 23H2.91332C2.78648 23 2.66483 22.9496 2.57514 22.8599C2.48545 22.7702 2.43506 22.6486 2.43506 22.5217V20.6087Z" stroke="#191919" stroke-linecap="round" stroke-linejoin="round"/>
<path d="M13.9136 17.7391C13.9136 17.6123 13.964 17.4906 14.0537 17.4009C14.1433 17.3113 14.265 17.2609 14.3918 17.2609H22.044C22.1708 17.2609 22.2925 17.3113 22.3822 17.4009C22.4719 17.4906 22.5222 17.6123 22.5222 17.7391V19.6522C22.5222 19.779 22.4719 19.9006 22.3822 19.9903C22.2925 20.08 22.1708 20.1304 22.044 20.1304H14.3918C14.265 20.1304 14.1433 20.08 14.0537 19.9903C13.964 19.9006 13.9136 19.779 13.9136 19.6522V17.7391Z" stroke="#191919" stroke-linecap="round" stroke-linejoin="round"/>
<path d="M12.9561 20.6087C12.9561 20.4818 13.0064 20.3602 13.0961 20.2705C13.1858 20.1808 13.3075 20.1304 13.4343 20.1304H21.0865C21.2133 20.1304 21.335 20.1808 21.4246 20.2705C21.5143 20.3602 21.5647 20.4818 21.5647 20.6087V22.5217C21.5647 22.6486 21.5143 22.7702 21.4246 22.8599C21.335 22.9496 21.2133 23 21.0865 23H13.4343C13.3075 23 13.1858 22.9496 13.0961 22.8599C13.0064 22.7702 12.9561 22.6486 12.9561 22.5217V20.6087Z" stroke="#191919" stroke-linecap="round" stroke-linejoin="round"/>
<path d="M1.95654 1L9.00322 8.04667C9.16965 8.21321 9.39165 8.31251 9.62673 8.32557C9.86181 8.33863 10.0934 8.26453 10.2773 8.11745L13.7035 5.37607C13.8911 5.22637 14.128 5.15261 14.3674 5.16944C14.6068 5.18628 14.8311 5.29246 14.9958 5.46694L22.5217 13.4347" stroke="#191919" stroke-linecap="round" stroke-linejoin="round"/>
<path d="M15.8257 13.4348H22.5213V7.21747" stroke="#191919" stroke-linecap="round" stroke-linejoin="round"/>
</g>
<defs>
<clipPath id="clip0_5303_8350">
<rect width="24" height="24" fill="white"/>
</clipPath>
</defs>
</svg>
