<svg width="24" height="24" viewBox="0 0 24 24" fill="none" xmlns="http://www.w3.org/2000/svg">
<g clip-path="url(#clip0_5303_8616)">
<path d="M16.3048 1.95652C16.3048 1.70283 16.204 1.45954 16.0246 1.28016C15.8453 1.10078 15.6019 1 15.3483 1H1.95701C1.70332 1 1.46003 1.10078 1.28065 1.28016C1.10126 1.45954 1.00049 1.70283 1.00049 1.95652V19.1739C1.00049 19.4275 1.10126 19.6709 1.28065 19.8502C1.46003 20.0296 1.70332 20.1304 1.95701 20.1304H15.3483C15.6019 20.1304 15.8453 20.0296 16.0246 19.8502C16.204 19.6709 16.3048 19.4275 16.3048 19.1739V1.95652Z" fill="#E3E3E3"/>
<path d="M16.1642 1.48782C16.0834 1.34161 15.9654 1.21943 15.8221 1.13373C15.6787 1.04803 15.5153 1.00188 15.3483 1H1.95701C1.70332 1 1.46003 1.10078 1.28065 1.28016C1.10126 1.45954 1.00049 1.70283 1.00049 1.95652V16.6515L16.1642 1.48782Z" fill="white"/>
<path d="M16.3048 15.5869V1.95652C16.3048 1.70283 16.204 1.45954 16.0246 1.28016C15.8453 1.10078 15.6019 1 15.3483 1H1.95701C1.70332 1 1.46003 1.10078 1.28065 1.28016C1.10126 1.45954 1.00049 1.70283 1.00049 1.95652V19.1739C1.00049 19.4275 1.10126 19.6709 1.28065 19.8502C1.46003 20.0296 1.70332 20.1304 1.95701 20.1304H13.9986" stroke="#191919" stroke-linecap="round" stroke-linejoin="round"/>
<path d="M22.9998 23L20.6267 19.7153L20.6085 15.3478C20.6487 13.6471 18.1398 11.6528 16.3042 10.087V15.2694L15.6662 14.6132C15.4743 14.4308 15.2189 14.3307 14.9542 14.334C14.6894 14.3374 14.4365 14.444 14.2493 14.6311C14.0622 14.8183 13.9556 15.0712 13.9522 15.336C13.9489 15.6006 14.049 15.8561 14.2314 16.048L16.8045 19.1739V20.6087C16.8045 21.5279 18.2966 23 18.2966 23" fill="#FFDDA1"/>
<path d="M22.9998 23L20.6267 19.7153L20.6085 15.3478C20.6487 13.6471 18.1398 11.6528 16.3042 10.087V15.2694L15.6662 14.6132C15.4743 14.4308 15.2189 14.3307 14.9542 14.334C14.6894 14.3374 14.4365 14.444 14.2493 14.6311C14.0622 14.8183 13.9556 15.0712 13.9522 15.336C13.9489 15.6006 14.049 15.8561 14.2314 16.048L16.8045 19.1739V20.6087C16.8045 21.5279 18.2966 23 18.2966 23" stroke="#191919" stroke-linecap="round" stroke-linejoin="round"/>
<path d="M18.2397 17.2609L16.3047 15.2694" stroke="#191919" stroke-linecap="round" stroke-linejoin="round"/>
<path d="M9.60938 3.86957H12.4789V6.73912" stroke="#191919" stroke-linecap="round" stroke-linejoin="round"/>
<path d="M12.4781 3.86957L4.34766 11.5217" stroke="#191919" stroke-linecap="round" stroke-linejoin="round"/>
<path d="M4.82617 13.913V17.2608" stroke="#191919" stroke-linecap="round" stroke-linejoin="round"/>
<path d="M7.6958 11.5218V17.2609" stroke="#191919" stroke-linecap="round" stroke-linejoin="round"/>
<path d="M10.5654 9.60864V17.2608" stroke="#191919" stroke-linecap="round" stroke-linejoin="round"/>
</g>
<defs>
<clipPath id="clip0_5303_8616">
<rect width="24" height="24" fill="white"/>
</clipPath>
</defs>
</svg>
