<svg width="24" height="24" viewBox="0 0 24 24" fill="none" xmlns="http://www.w3.org/2000/svg">
<path d="M1 22.3303H23" stroke="#191919" stroke-linecap="round" stroke-linejoin="round"/>
<path d="M4.82562 22.3303V20.0347C4.82438 19.9732 4.81101 19.9124 4.78631 19.8561C4.76161 19.7996 4.72602 19.7487 4.68161 19.706C4.63719 19.6634 4.58482 19.63 4.52746 19.6076C4.47011 19.5852 4.40891 19.5743 4.34736 19.5755H2.43432C2.37276 19.5743 2.31157 19.5852 2.25421 19.6076C2.19686 19.63 2.14448 19.6634 2.10007 19.706C2.05566 19.7487 2.02007 19.7996 1.99537 19.8561C1.97066 19.9124 1.9573 19.9732 1.95605 20.0347V22.3303H4.82562Z" fill="#FFEF5E"/>
<path d="M10.5649 22.3301V16.3614C10.5636 16.2999 10.5502 16.2392 10.5256 16.1829C10.5009 16.1264 10.4653 16.0754 10.4208 16.0329C10.3764 15.9902 10.324 15.9567 10.2667 15.9344C10.2093 15.912 10.1482 15.9011 10.0866 15.9023H8.17357C8.11202 15.9011 8.05082 15.912 7.99347 15.9344C7.93612 15.9567 7.88374 15.9902 7.83933 16.0329C7.79492 16.0754 7.75933 16.1264 7.73463 16.1829C7.70992 16.2392 7.69656 16.2999 7.69531 16.3614V22.3301H10.5649Z" fill="#D480FF"/>
<path d="M16.3041 22.3302V12.6885C16.3029 12.6269 16.2895 12.5662 16.2648 12.5098C16.2401 12.4534 16.2046 12.4025 16.1601 12.3598C16.1157 12.3172 16.0633 12.2837 16.006 12.2613C15.9486 12.2389 15.8875 12.228 15.8259 12.2294H13.9128C13.8512 12.228 13.7901 12.2389 13.7327 12.2613C13.6754 12.2837 13.623 12.3172 13.5786 12.3598C13.5341 12.4025 13.4986 12.4534 13.4739 12.5098C13.4492 12.5662 13.4358 12.6269 13.4346 12.6885V22.3302H16.3041Z" fill="#FFEF5E"/>
<path d="M22.0434 22.3304V9.01563C22.0421 8.95407 22.0288 8.89336 22.0041 8.83698C21.9794 8.78058 21.9438 8.72962 21.8993 8.68698C21.855 8.64434 21.8025 8.61087 21.7452 8.58848C21.6879 8.5661 21.6267 8.55522 21.5651 8.5565H19.6521C19.5905 8.55522 19.5294 8.5661 19.472 8.58848C19.4147 8.61087 19.3623 8.64434 19.3179 8.68698C19.2734 8.72962 19.2378 8.78058 19.2131 8.83698C19.1885 8.89336 19.1751 8.95407 19.1738 9.01563V22.3304H22.0434Z" fill="#D480FF"/>
<path d="M4.82562 22.3303V20.0347C4.82438 19.9732 4.81101 19.9124 4.78631 19.8561C4.76161 19.7996 4.72602 19.7487 4.68161 19.706C4.63719 19.6634 4.58482 19.63 4.52746 19.6076C4.47011 19.5852 4.40891 19.5743 4.34736 19.5755H2.43432C2.37276 19.5743 2.31157 19.5852 2.25421 19.6076C2.19686 19.63 2.14448 19.6634 2.10007 19.706C2.05566 19.7487 2.02007 19.7996 1.99537 19.8561C1.97066 19.9124 1.9573 19.9732 1.95605 20.0347V22.3303H4.82562Z" fill="#FFEF5E"/>
<path d="M10.0866 15.9023H8.17357C8.11202 15.9011 8.05082 15.912 7.99347 15.9344C7.93612 15.9567 7.88374 15.9902 7.83933 16.0329C7.79492 16.0754 7.75933 16.1264 7.73463 16.1829C7.70992 16.2392 7.69656 16.2999 7.69531 16.3614V18.4419C7.69656 18.3804 7.70992 18.3196 7.73463 18.2633C7.75933 18.2069 7.79492 18.1559 7.83933 18.1133C7.88374 18.0707 7.93612 18.0372 7.99347 18.0148C8.05082 17.9924 8.11202 17.9815 8.17357 17.9828H10.0866C10.1482 17.9815 10.2093 17.9924 10.2667 18.0148C10.324 18.0372 10.3764 18.0707 10.4208 18.1133C10.4653 18.1559 10.5009 18.2069 10.5256 18.2633C10.5502 18.3196 10.5636 18.3804 10.5649 18.4419V16.3614C10.5636 16.2999 10.5502 16.2392 10.5256 16.1829C10.5009 16.1264 10.4653 16.0754 10.4208 16.0329C10.3764 15.9902 10.324 15.9567 10.2667 15.9344C10.2093 15.912 10.1482 15.9011 10.0866 15.9023Z" fill="#EABFFF"/>
<path d="M15.8259 12.2294H13.9128C13.8512 12.228 13.7901 12.2389 13.7327 12.2613C13.6754 12.2837 13.623 12.3172 13.5786 12.3598C13.5341 12.4025 13.4986 12.4534 13.4739 12.5098C13.4492 12.5662 13.4358 12.6269 13.4346 12.6885V14.7737C13.4371 14.6493 13.4889 14.5309 13.5785 14.4447C13.6682 14.3585 13.7884 14.3113 13.9128 14.3136H15.8259C15.9503 14.3113 16.0706 14.3585 16.1602 14.4447C16.2498 14.5309 16.3016 14.6493 16.3041 14.7737V12.6885C16.3029 12.6269 16.2895 12.5662 16.2648 12.5098C16.2401 12.4534 16.2046 12.4025 16.1601 12.3598C16.1157 12.3172 16.0633 12.2837 16.006 12.2613C15.9486 12.2389 15.8875 12.228 15.8259 12.2294Z" fill="#FFF9BF"/>
<path d="M21.5651 8.5565H19.6521C19.5905 8.55522 19.5294 8.5661 19.472 8.58848C19.4147 8.61087 19.3623 8.64434 19.3179 8.68698C19.2734 8.72962 19.2378 8.78058 19.2131 8.83698C19.1885 8.89336 19.1751 8.95407 19.1738 9.01563V11.0961C19.1751 11.0345 19.1885 10.9738 19.2131 10.9174C19.2378 10.861 19.2734 10.8101 19.3179 10.7674C19.3623 10.7247 19.4147 10.6913 19.472 10.669C19.5294 10.6465 19.5905 10.6357 19.6521 10.6369H21.5651C21.6267 10.6357 21.6879 10.6465 21.7452 10.669C21.8025 10.6913 21.855 10.7247 21.8993 10.7674C21.9438 10.8101 21.9794 10.861 22.0041 10.9174C22.0288 10.9738 22.0421 11.0345 22.0434 11.0961V9.01563C22.0421 8.95407 22.0288 8.89336 22.0041 8.83698C21.9794 8.78058 21.9438 8.72962 21.8993 8.68698C21.855 8.64434 21.8025 8.61087 21.7452 8.58848C21.6879 8.5661 21.6267 8.55522 21.5651 8.5565Z" fill="#EABFFF"/>
<path d="M4.82562 22.3303V20.0347C4.82438 19.9732 4.81101 19.9124 4.78631 19.8561C4.7616 19.7996 4.72602 19.7487 4.68161 19.706C4.63719 19.6634 4.58482 19.63 4.52746 19.6076C4.47011 19.5852 4.40891 19.5743 4.34736 19.5755H2.43432C2.37276 19.5743 2.31157 19.5852 2.25421 19.6076C2.19686 19.63 2.14448 19.6634 2.10007 19.706C2.05566 19.7487 2.02007 19.7996 1.99537 19.8561C1.97066 19.9124 1.9573 19.9732 1.95605 20.0347V22.3303H4.82562Z" stroke="#191919" stroke-linecap="round" stroke-linejoin="round"/>
<path d="M10.5649 22.3301V16.3614C10.5636 16.2999 10.5502 16.2392 10.5256 16.1829C10.5009 16.1264 10.4653 16.0754 10.4208 16.0329C10.3764 15.9902 10.324 15.9567 10.2667 15.9344C10.2093 15.912 10.1482 15.9011 10.0866 15.9023H8.17357C8.11202 15.9011 8.05082 15.912 7.99347 15.9344C7.93612 15.9567 7.88374 15.9902 7.83933 16.0329C7.79492 16.0754 7.75933 16.1264 7.73463 16.1829C7.70992 16.2392 7.69656 16.2999 7.69531 16.3614V22.3301H10.5649Z" stroke="#191919" stroke-linecap="round" stroke-linejoin="round"/>
<path d="M16.3041 22.3302V12.6885C16.3029 12.6269 16.2895 12.5662 16.2648 12.5098C16.2401 12.4534 16.2046 12.4025 16.1601 12.3598C16.1157 12.3172 16.0633 12.2837 16.006 12.2613C15.9486 12.2389 15.8875 12.228 15.8259 12.2294H13.9128C13.8512 12.228 13.7901 12.2389 13.7327 12.2613C13.6754 12.2837 13.623 12.3172 13.5786 12.3598C13.5341 12.4025 13.4986 12.4534 13.4739 12.5098C13.4492 12.5662 13.4358 12.6269 13.4346 12.6885V22.3302H16.3041Z" stroke="#191919" stroke-linecap="round" stroke-linejoin="round"/>
<path d="M22.0434 22.3304V9.01563C22.0421 8.95407 22.0288 8.89336 22.0041 8.83698C21.9794 8.78058 21.9438 8.72962 21.8993 8.68698C21.855 8.64434 21.8025 8.61087 21.7452 8.58848C21.6879 8.5661 21.6267 8.55522 21.5651 8.5565H19.6521C19.5905 8.55522 19.5294 8.5661 19.472 8.58848C19.4147 8.61087 19.3623 8.64434 19.3179 8.68698C19.2734 8.72962 19.2378 8.78058 19.2131 8.83698C19.1885 8.89336 19.1751 8.95407 19.1738 9.01563V22.3304H22.0434Z" stroke="#191919" stroke-linecap="round" stroke-linejoin="round"/>
<path d="M3.39111 13.1478L20.6085 2.12866" stroke="#191919" stroke-linecap="round" stroke-linejoin="round"/>
<path d="M20.1305 5.80173L20.6088 2.12869L16.7827 1.66956" stroke="#191919" stroke-linecap="round" stroke-linejoin="round"/>
</svg>
