<svg width="24" height="24" viewBox="0 0 24 24" fill="none" xmlns="http://www.w3.org/2000/svg">
<path d="M20.6087 3.3481C21.2692 3.49329 21.8626 3.85404 22.2955 4.37356C22.7284 4.89307 22.9763 5.54183 23 6.21767V8.13071C22.9963 8.63692 22.7935 9.12133 22.4356 9.47928C22.0776 9.83724 21.5931 10.04 21.087 10.0438H18.2174C17.7113 10.0397 17.227 9.83691 16.8691 9.47901C16.5111 9.12111 16.3084 8.63684 16.3043 8.13071V6.69593C13.4417 6.41471 10.5583 6.41471 7.69565 6.69593V8.13071C7.69165 8.63684 7.48881 9.12111 7.13091 9.47901C6.77301 9.83691 6.28874 10.0397 5.78261 10.0438H2.91304C2.40683 10.04 1.92242 9.83724 1.56446 9.47928C1.20651 9.12133 1.00375 8.63692 1 8.13071V6.21767C1.02371 5.54183 1.27154 4.89307 1.70447 4.37356C2.13739 3.85404 2.73083 3.49329 3.3913 3.3481C9.07181 2.188 14.9282 2.188 20.6087 3.3481Z" fill="#FF808C"/>
<path d="M20.6087 3.3481C14.9282 2.188 9.07181 2.188 3.3913 3.3481C2.73083 3.49329 2.13739 3.85404 1.70447 4.37356C1.27154 4.89307 1.02371 5.54183 1 6.21767V7.80836C1.02371 7.13252 1.27154 6.48377 1.70447 5.96425C2.13739 5.44474 2.73083 5.08399 3.3913 4.9388C9.07181 3.7787 14.9282 3.7787 20.6087 4.9388C21.2692 5.08399 21.8626 5.44474 22.2955 5.96425C22.7284 6.48377 22.9763 7.13252 23 7.80836V6.21767C22.9763 5.54183 22.7284 4.89307 22.2955 4.37356C21.8626 3.85404 21.2692 3.49329 20.6087 3.3481Z" fill="#FFBFC5"/>
<path d="M21.0865 20.5655C21.0865 20.8192 20.9857 21.0625 20.8063 21.2419C20.627 21.4212 20.3837 21.522 20.13 21.522H3.86912C3.61543 21.522 3.37214 21.4212 3.19275 21.2419C3.01338 21.0625 2.9126 20.8192 2.9126 20.5655V18.6525C2.9184 16.6247 3.72647 14.6818 5.16028 13.2479C6.59409 11.8142 8.53707 11.0061 10.5648 11.0003H13.4343C15.4621 11.0061 17.405 11.8142 18.8389 13.2479C20.2726 14.6818 21.0807 16.6247 21.0865 18.6525V20.5655Z" fill="#FF808C"/>
<path d="M13.4343 11.0003H10.5648C8.53707 11.0061 6.59409 11.8142 5.16028 13.2479C3.72647 14.6818 2.9184 16.6247 2.9126 18.6525V20.5655C2.91636 20.6666 2.93672 20.7665 2.97286 20.8611C3.20003 19.0055 4.09672 17.2966 5.49458 16.0553C6.89245 14.8141 8.69534 14.1257 10.5648 14.1195H13.4343C15.3039 14.1256 17.1069 14.814 18.505 16.0552C19.9029 17.2965 20.7998 19.0054 21.0272 20.8611C21.0626 20.7663 21.0826 20.6665 21.0865 20.5655V18.6525C21.0807 16.6247 20.2726 14.6818 18.8389 13.2479C17.405 11.8142 15.4621 11.0061 13.4343 11.0003Z" fill="#FFBFC5"/>
<path d="M20.6087 3.3481C21.2692 3.49329 21.8626 3.85404 22.2955 4.37356C22.7284 4.89307 22.9763 5.54183 23 6.21767V8.13071C22.9963 8.63692 22.7935 9.12133 22.4356 9.47928C22.0776 9.83724 21.5931 10.04 21.087 10.0438H18.2174C17.7113 10.0397 17.227 9.83691 16.8691 9.47901C16.5111 9.12111 16.3084 8.63684 16.3043 8.13071V6.69593C13.4417 6.41471 10.5583 6.41471 7.69565 6.69593V8.13071C7.69165 8.63684 7.48881 9.12111 7.13091 9.47901C6.77301 9.83691 6.28874 10.0397 5.78261 10.0438H2.91304C2.40683 10.04 1.92242 9.83724 1.56446 9.47928C1.20651 9.12133 1.00375 8.63692 1 8.13071V6.21767C1.02371 5.54183 1.27154 4.89307 1.70447 4.37356C2.13739 3.85404 2.73083 3.49329 3.3913 3.3481C9.07181 2.188 14.9282 2.188 20.6087 3.3481Z" stroke="#191919" stroke-linecap="round" stroke-linejoin="round"/>
<path d="M21.0865 20.5655C21.0865 20.8192 20.9857 21.0625 20.8063 21.2419C20.627 21.4212 20.3837 21.522 20.13 21.522H3.86912C3.61543 21.522 3.37214 21.4212 3.19275 21.2419C3.01338 21.0625 2.9126 20.8192 2.9126 20.5655V18.6525C2.9184 16.6247 3.72647 14.6818 5.16028 13.2479C6.59409 11.8142 8.53707 11.0061 10.5648 11.0003H13.4343C15.4621 11.0061 17.405 11.8142 18.8389 13.2479C20.2726 14.6818 21.0807 16.6247 21.0865 18.6525V20.5655Z" stroke="#191919" stroke-linecap="round" stroke-linejoin="round"/>
<path d="M11.9992 19.6089C13.8481 19.6089 15.347 18.1101 15.347 16.2611C15.347 14.4121 13.8481 12.9133 11.9992 12.9133C10.1502 12.9133 8.65137 14.4121 8.65137 16.2611C8.65137 18.1101 10.1502 19.6089 11.9992 19.6089Z" fill="#E3E3E3"/>
<path d="M10.5649 9.08728V11.0003" stroke="#191919" stroke-linecap="round" stroke-linejoin="round"/>
<path d="M9.63197 18.6286C9.0041 18.0008 8.65137 17.1492 8.65137 16.2612C8.65137 15.3733 9.0041 14.5217 9.63197 13.8938C10.2598 13.266 11.1114 12.9132 11.9994 12.9132C12.8873 12.9132 13.7389 13.266 14.3668 13.8938L9.63197 18.6286Z" fill="white"/>
<path d="M13.4346 9.08728V11.0003" stroke="#191919" stroke-linecap="round" stroke-linejoin="round"/>
<path d="M11.9992 19.6089C13.8481 19.6089 15.347 18.1101 15.347 16.2611C15.347 14.4121 13.8481 12.9133 11.9992 12.9133C10.1502 12.9133 8.65137 14.4121 8.65137 16.2611C8.65137 18.1101 10.1502 19.6089 11.9992 19.6089Z" stroke="#191919" stroke-linecap="round" stroke-linejoin="round"/>
</svg>
