<svg width="24" height="24" viewBox="0 0 24 24" fill="none" xmlns="http://www.w3.org/2000/svg">
<path d="M18.2175 4.82611H5.78271V19.1739H18.2175V4.82611Z" fill="#66E1FF"/>
<path d="M18.2175 2.91304V4.82609H5.78271V2.91304C5.78423 2.40613 5.98626 1.92043 6.3447 1.56199C6.70315 1.20355 7.18885 1.00151 7.69576 1H16.3045C16.8118 1 17.2984 1.20155 17.6572 1.56032C18.016 1.91908 18.2175 2.40568 18.2175 2.91304Z" fill="white"/>
<path d="M5.78271 19.1739H18.2175V21.087C18.2175 21.5943 18.016 22.0809 17.6572 22.4397C17.2984 22.7985 16.8118 23 16.3045 23H7.69576C7.18885 22.9985 6.70315 22.7965 6.3447 22.438C5.98626 22.0795 5.78423 21.5938 5.78271 21.087V19.1739Z" fill="white"/>
<path d="M18.2175 5.38758V4.82611H5.78271V17.8224L18.2175 5.38758Z" fill="#C2F3FF"/>
<path d="M12.3421 16.2394L12.6951 16.1045C13.4991 15.7852 14.1852 15.226 14.66 14.5028C15.1347 13.7797 15.3752 12.9278 15.3485 12.0632V9.89569C15.3487 9.76593 15.3108 9.63897 15.2395 9.53051C15.1683 9.42205 15.0669 9.33684 14.9477 9.28543C14.0178 8.86421 13.0081 8.64824 11.9873 8.65221C10.9747 8.64849 9.97348 8.8659 9.05362 9.28925C8.93508 9.34041 8.83403 9.42502 8.76285 9.53274C8.69166 9.64045 8.65343 9.76658 8.65284 9.89569V12.0594C8.62054 12.9215 8.85549 13.7725 9.32551 14.4959C9.79553 15.2194 10.4777 15.7799 11.2785 16.1007L11.6314 16.2356C11.8599 16.3239 12.1128 16.3252 12.3421 16.2394Z" fill="#78EB7B"/>
<path d="M12.0007 8.65221H11.9873C10.9747 8.64849 9.97348 8.8659 9.05362 9.28926C8.93508 9.34041 8.83403 9.42502 8.76285 9.53274C8.69166 9.64045 8.65343 9.76658 8.65284 9.89569V12.0593C8.62054 12.9214 8.85549 13.7724 9.32551 14.4959C9.79553 15.2194 10.4777 15.7798 11.2785 16.1006L11.6314 16.2355C11.749 16.2817 11.8743 16.3051 12.0007 16.3043V8.65221Z" fill="#C9F7CA"/>
<path d="M12.0004 21.3261C11.8683 21.3261 11.7612 21.2191 11.7612 21.087C11.7612 20.9549 11.8683 20.8478 12.0004 20.8478" stroke="#191919"/>
<path d="M12.0005 21.3261C12.1326 21.3261 12.2396 21.2191 12.2396 21.087C12.2396 20.9549 12.1326 20.8478 12.0005 20.8478" stroke="#191919"/>
<path d="M16.3045 1H7.69576C6.63921 1 5.78271 1.8565 5.78271 2.91304V21.087C5.78271 22.1435 6.63921 23 7.69576 23H16.3045C17.361 23 18.2175 22.1435 18.2175 21.087V2.91304C18.2175 1.8565 17.361 1 16.3045 1Z" stroke="#191919" stroke-linecap="round" stroke-linejoin="round"/>
<path d="M18.2175 19.1739H5.78271" stroke="#191919" stroke-linecap="round" stroke-linejoin="round"/>
<path d="M18.2175 4.82611H5.78271" stroke="#191919" stroke-linecap="round" stroke-linejoin="round"/>
<path d="M10.5654 2.91309H13.435" stroke="#191919" stroke-linecap="round" stroke-linejoin="round"/>
<path d="M12.0005 11.0435V13.913" stroke="#191919" stroke-linecap="round" stroke-linejoin="round"/>
<path d="M10.5654 12.4783H13.435" stroke="#191919" stroke-linecap="round" stroke-linejoin="round"/>
<path d="M12.3421 16.2394L12.6951 16.1045C13.4991 15.7852 14.1852 15.226 14.66 14.5028C15.1347 13.7797 15.3752 12.9278 15.3485 12.0632V9.89569C15.3487 9.76593 15.3108 9.63897 15.2395 9.53051C15.1683 9.42205 15.0669 9.33684 14.9477 9.28543C14.0178 8.86421 13.0081 8.64824 11.9873 8.65221C10.9747 8.64849 9.97348 8.8659 9.05362 9.28925C8.93508 9.34041 8.83403 9.42502 8.76285 9.53274C8.69166 9.64045 8.65343 9.76658 8.65284 9.89569V12.0594C8.62054 12.9215 8.85549 13.7725 9.32551 14.4959C9.79553 15.2194 10.4777 15.7799 11.2785 16.1007L11.6314 16.2356C11.8599 16.3239 12.1128 16.3252 12.3421 16.2394Z" stroke="#191919" stroke-linecap="round" stroke-linejoin="round"/>
</svg>
