<svg width="24" height="24" viewBox="0 0 24 24" fill="none" xmlns="http://www.w3.org/2000/svg">
<path d="M17.6168 11.767C20.5899 11.767 23.0002 9.3568 23.0002 6.38364C23.0002 3.41047 20.5899 1.00024 17.6168 1.00024C14.6437 1.00024 12.2334 3.41047 12.2334 6.38364C12.2334 9.3568 14.6437 11.767 17.6168 11.767Z" fill="#C2F3FF"/>
<path d="M7.54553 10.3749C7.71948 10.201 7.85748 9.99456 7.95163 9.76733C8.04578 9.54009 8.09423 9.29655 8.09423 9.05059C8.09423 8.80462 8.04578 8.56108 7.95163 8.33384C7.85748 8.10661 7.71948 7.90015 7.54553 7.72627L5.55882 5.74051C5.20768 5.38946 4.73149 5.19226 4.23498 5.19226C3.73846 5.19226 3.26228 5.38946 2.91113 5.74051L1.82134 6.83029C1.3645 7.28819 1.07969 7.88974 1.01504 8.53333C0.950399 9.17693 1.10986 9.82311 1.46651 10.3627C4.67329 15.1892 8.81117 19.3271 13.6377 22.5339C14.1774 22.8908 14.8238 23.0504 15.4675 22.9857C16.1113 22.9211 16.713 22.6361 17.171 22.179L18.2618 21.0892C18.6128 20.7382 18.81 20.2619 18.81 19.7654C18.81 19.2689 18.6128 18.7927 18.2618 18.4416L16.275 16.4558C16.1012 16.2818 15.8947 16.1438 15.6675 16.0497C15.4403 15.9556 15.1967 15.9071 14.9507 15.9071C14.7048 15.9071 14.4613 15.9556 14.2339 16.0497C14.0067 16.1438 13.8003 16.2818 13.6264 16.4558L12.9645 17.1177C10.7439 15.2908 8.70582 13.2527 6.87892 11.0321L7.54553 10.3749Z" fill="#E3E3E3"/>
<path d="M6.8836 11.0368L7.54553 10.3749C7.71948 10.201 7.85748 9.99456 7.95163 9.76733C8.04578 9.54009 8.09423 9.29655 8.09423 9.05059C8.09423 8.80462 8.04578 8.56108 7.95163 8.33384C7.85748 8.10661 7.71948 7.90015 7.54553 7.72627L5.55882 5.74051C5.20768 5.38946 4.73149 5.19226 4.23498 5.19226C3.73846 5.19226 3.26228 5.38946 2.91113 5.74051L1.82134 6.83029C1.3645 7.28819 1.07969 7.88974 1.01504 8.53333C0.950399 9.17693 1.10986 9.82311 1.46651 10.3627C2.93741 12.574 4.60946 14.6448 6.46136 16.5485L9.29349 13.7182C8.44807 12.8456 7.63166 11.9543 6.8836 11.0368Z" fill="white"/>
<path d="M7.54436 10.3739C7.8954 10.0227 8.0926 9.54655 8.0926 9.05003C8.0926 8.55351 7.8954 8.07733 7.54436 7.72618L5.55766 5.74041C5.38377 5.56646 5.17732 5.42847 4.95008 5.33432C4.72286 5.24017 4.4793 5.19171 4.23334 5.19171C3.98738 5.19171 3.74383 5.24017 3.5166 5.33432C3.28937 5.42847 3.08291 5.56646 2.90903 5.74041L1.82018 6.82926C1.36324 7.28735 1.07847 7.88914 1.01399 8.53294C0.949504 9.17672 1.10927 9.82304 1.46628 10.3626C4.67306 15.1892 8.81094 19.327 13.6374 22.5338C14.1771 22.8904 14.8233 23.0499 15.4668 22.9852C16.1104 22.9206 16.712 22.6358 17.1699 22.179L18.2597 21.0892C18.6106 20.738 18.8079 20.2618 18.8079 19.7653C18.8079 19.2688 18.6106 18.7927 18.2597 18.4415L16.2739 16.4576C15.9227 16.1066 15.4465 15.9093 14.95 15.9093C14.4535 15.9093 13.9774 16.1066 13.6262 16.4576L12.9643 17.1195C10.7435 15.2928 8.7054 13.2547 6.87869 11.0339L7.54436 10.3739Z" stroke="#191919" stroke-linecap="round" stroke-linejoin="round"/>
<path d="M22.5314 1.47021L13.1689 10.8326" stroke="#191919" stroke-linecap="round" stroke-linejoin="round"/>
<path d="M16.4463 1.4693H22.5319V7.55488" stroke="#191919" stroke-linecap="round" stroke-linejoin="round"/>
</svg>
