<svg width="24" height="24" viewBox="0 0 24 24" fill="none" xmlns="http://www.w3.org/2000/svg">
<g clip-path="url(#clip0_5303_7505)">
<path d="M18.2175 4.82611H5.78271V19.1739H18.2175V4.82611Z" fill="#66E1FF"/>
<path d="M18.2175 2.91304V4.82608H5.78271V2.91304C5.78423 2.40613 5.98626 1.92043 6.3447 1.56198C6.70315 1.20355 7.18885 1.00151 7.69576 1H16.3044C16.8118 1 17.2984 1.20155 17.6571 1.56032C18.0159 1.91908 18.2175 2.40567 18.2175 2.91304Z" fill="white"/>
<path d="M5.78271 19.174H18.2175V21.087C18.2175 21.5943 18.0159 22.0809 17.6571 22.4397C17.2984 22.7985 16.8118 23 16.3044 23H7.69576C7.18885 22.9985 6.70315 22.7965 6.3447 22.4381C5.98626 22.0796 5.78423 21.5939 5.78271 21.087V19.174Z" fill="white"/>
<path d="M18.2175 5.38759V4.82611H5.78271V17.8223L18.2175 5.38759Z" fill="#C2F3FF"/>
<path d="M14.87 10.6894V14.3912C14.87 14.6449 14.7692 14.8882 14.5898 15.0676C14.4105 15.247 14.1671 15.3477 13.9135 15.3477H12.9569V13.4347C12.9569 13.181 12.8561 12.9377 12.6768 12.7583C12.4974 12.579 12.2541 12.4781 12.0004 12.4781C11.7468 12.4781 11.5034 12.579 11.3241 12.7583C11.1447 12.9377 11.0439 13.181 11.0439 13.4347V15.3477H10.0874C9.83369 15.3477 9.5904 15.247 9.41101 15.0676C9.23164 14.8882 9.13086 14.6449 9.13086 14.3912V10.6894L11.063 9.00602C11.3243 8.7786 11.6588 8.65332 12.0052 8.65332C12.3516 8.65332 12.6861 8.7786 12.9474 9.00602L14.87 10.6894Z" fill="white"/>
<path d="M12.957 13.4348V15.3478H11.0439V13.4348C11.0439 13.1811 11.1448 12.9378 11.3241 12.7584C11.5035 12.5791 11.7468 12.4783 12.0005 12.4783C12.2541 12.4783 12.4975 12.5791 12.6768 12.7584C12.8562 12.9378 12.957 13.1811 12.957 13.4348Z" fill="#C77F67"/>
<path d="M9.13086 10.6915V14.3913C9.13086 14.645 9.23164 14.8882 9.41101 15.0676C9.5904 15.247 9.83369 15.3478 10.0874 15.3478H13.9135C14.1671 15.3478 14.4105 15.247 14.5898 15.0676C14.7692 14.8882 14.87 14.645 14.87 14.3913V10.6915" stroke="#191919" stroke-linecap="round" stroke-linejoin="round"/>
<path d="M8.1748 11.5284L11.0558 9.007C11.3175 8.77802 11.6533 8.65179 12.0009 8.65179C12.3485 8.65179 12.6843 8.77802 12.9459 9.007L15.827 11.5284" stroke="#191919" stroke-linecap="round" stroke-linejoin="round"/>
<path d="M12.957 15.3478H11.0439V13.4348C11.0439 13.1811 11.1448 12.9378 11.3241 12.7584C11.5035 12.5791 11.7468 12.4783 12.0005 12.4783C12.2541 12.4783 12.4975 12.5791 12.6768 12.7584C12.8562 12.9378 12.957 13.1811 12.957 13.4348V15.3478Z" stroke="#191919" stroke-linecap="round" stroke-linejoin="round"/>
<path d="M12.0008 21.3261C11.8688 21.3261 11.7617 21.2191 11.7617 21.087C11.7617 20.9549 11.8688 20.8478 12.0008 20.8478" stroke="#191919"/>
<path d="M12.0005 21.3261C12.1326 21.3261 12.2396 21.2191 12.2396 21.087C12.2396 20.9549 12.1326 20.8478 12.0005 20.8478" stroke="#191919"/>
<path d="M16.3044 1H7.69576C6.63921 1 5.78271 1.8565 5.78271 2.91304V21.0869C5.78271 22.1435 6.63921 23 7.69576 23H16.3044C17.361 23 18.2175 22.1435 18.2175 21.0869V2.91304C18.2175 1.8565 17.361 1 16.3044 1Z" stroke="#191919" stroke-linecap="round" stroke-linejoin="round"/>
<path d="M18.2175 19.174H5.78271" stroke="#191919" stroke-linecap="round" stroke-linejoin="round"/>
<path d="M18.2175 4.82611H5.78271" stroke="#191919" stroke-linecap="round" stroke-linejoin="round"/>
<path d="M10.5654 2.91309H13.435" stroke="#191919" stroke-linecap="round" stroke-linejoin="round"/>
</g>
<defs>
<clipPath id="clip0_5303_7505">
<rect width="24" height="24" fill="white"/>
</clipPath>
</defs>
</svg>
