<svg width="24" height="24" viewBox="0 0 24 24" fill="none" xmlns="http://www.w3.org/2000/svg">
<g clip-path="url(#clip0_5303_7547)">
<path d="M17.172 11.5229C19.5494 11.5229 21.4767 9.59556 21.4767 7.2181C21.4767 4.84064 19.5494 2.91333 17.172 2.91333C14.7945 2.91333 12.8672 4.84064 12.8672 7.2181C12.8672 9.59556 14.7945 11.5229 17.172 11.5229Z" fill="#66E1FF"/>
<path d="M7.77478 10.1003C7.95252 9.92268 8.09352 9.71173 8.18972 9.47956C8.28591 9.24738 8.33543 8.99853 8.33543 8.74722C8.33543 8.4959 8.28591 8.24705 8.18972 8.01488C8.09352 7.7827 7.95252 7.57175 7.77478 7.39408L5.74483 5.3651C5.38606 5.00642 4.8995 4.80493 4.39219 4.80493C3.88487 4.80493 3.39831 5.00642 3.03953 5.3651L1.92602 6.4786C1.45938 6.94659 1.16856 7.56129 1.10268 8.21889C1.0368 8.87647 1.1999 9.53665 1.56442 10.0879C4.84081 15.0196 9.06877 19.2475 14.0004 22.5239C14.5518 22.8883 15.2121 23.0513 15.8697 22.9852C16.5272 22.9192 17.1419 22.6282 17.6097 22.1614L18.7242 21.0479C19.0829 20.689 19.2844 20.2025 19.2844 19.6952C19.2844 19.1879 19.0829 18.7014 18.7242 18.3426L16.6943 16.3155C16.3355 15.9569 15.8489 15.7553 15.3416 15.7553C14.8343 15.7553 14.3478 15.9569 13.9889 16.3155L13.3126 16.9918C11.0435 15.1254 8.96106 13.0429 7.09462 10.7738L7.77478 10.1003Z" fill="#E3E3E3"/>
<path d="M7.09845 10.7767L7.77477 10.1003C7.95252 9.92268 8.09352 9.71173 8.18972 9.47956C8.28591 9.24738 8.33543 8.99853 8.33543 8.74722C8.33543 8.4959 8.28591 8.24705 8.18972 8.01488C8.09352 7.7827 7.95252 7.57175 7.77477 7.39408L5.74483 5.3651C5.38605 5.00642 4.8995 4.80493 4.39219 4.80493C3.88487 4.80493 3.39831 5.00642 3.03953 5.3651L1.92602 6.4786C1.45938 6.94659 1.16856 7.56129 1.10268 8.21889C1.0368 8.87647 1.1999 9.53665 1.56442 10.0879C3.0668 12.3474 4.77528 14.463 6.66797 16.4073L9.56079 13.5145C8.69696 12.6258 7.86278 11.7142 7.09845 10.7767Z" fill="white"/>
<path d="M7.77477 10.1004C8.13346 9.74159 8.33495 9.25504 8.33495 8.74771C8.33495 8.24039 8.13346 7.75385 7.77477 7.39506L5.74483 5.36607C5.38605 5.0074 4.8995 4.80591 4.39219 4.80591C3.88487 4.80591 3.39831 5.0074 3.03953 5.36607L1.92602 6.47862C1.45938 6.94661 1.16856 7.56131 1.10268 8.21891C1.0368 8.87649 1.1999 9.53667 1.56442 10.0879C4.84081 15.0196 9.06877 19.2475 14.0004 22.5239C14.5519 22.8886 15.2124 23.0517 15.8701 22.9856C16.528 22.9196 17.1428 22.6284 17.6107 22.1614L18.7232 21.0488C19.082 20.69 19.2834 20.2035 19.2834 19.6962C19.2834 19.1889 19.082 18.7024 18.7232 18.3435L16.6952 16.3136C16.5176 16.1359 16.3066 15.9948 16.0745 15.8986C15.8423 15.8025 15.5934 15.7529 15.3421 15.7529C15.0908 15.7529 14.842 15.8025 14.6098 15.8986C14.3776 15.9948 14.1666 16.1359 13.9889 16.3136L13.3126 16.9909C11.0438 15.1241 8.96134 13.0418 7.09462 10.7729L7.77477 10.1004Z" stroke="#191919" stroke-linecap="round" stroke-linejoin="round"/>
<path d="M18.6069 5.30477H22.9117V1" stroke="#191919" stroke-linecap="round" stroke-linejoin="round"/>
<path d="M22.5847 5.30484C22.161 4.10566 21.3509 3.08117 20.2819 2.39225C19.2128 1.70335 17.9452 1.38903 16.678 1.49867C15.4109 1.60831 14.2162 2.13569 13.2813 2.998C12.3464 3.86032 11.7244 5.00872 11.513 6.26285C11.3016 7.51698 11.5127 8.80582 12.1131 9.92698C12.7136 11.0481 13.6696 11.9381 14.8306 12.4571C15.9917 12.976 17.2924 13.0947 18.5282 12.7944C19.7641 12.494 20.8652 11.7917 21.6587 10.7977" stroke="#191919" stroke-linecap="round" stroke-linejoin="round"/>
</g>
<defs>
<clipPath id="clip0_5303_7547">
<rect width="24" height="24" fill="white"/>
</clipPath>
</defs>
</svg>
