<svg width="24" height="24" viewBox="0 0 24 24" fill="none" xmlns="http://www.w3.org/2000/svg">
<g clip-path="url(#clip0_5303_7499)">
<path d="M11.999 21.0869C17.0176 21.0869 21.086 17.0186 21.086 12C21.086 6.98145 17.0176 2.91309 11.999 2.91309C6.98047 2.91309 2.91211 6.98145 2.91211 12C2.91211 17.0186 6.98047 21.0869 11.999 21.0869Z" fill="#C2F3FF"/>
<path d="M10.3033 9.15723C10.5932 8.8944 10.7675 8.52757 10.7882 8.13684C10.8087 7.74602 10.6741 7.36297 10.4133 7.07109L8.93071 5.59129C8.63912 5.33015 8.25588 5.19513 7.86497 5.21574C7.47396 5.23635 7.10712 5.41092 6.84457 5.70129L5.94159 6.60334C5.56566 6.95369 5.31923 7.42078 5.24212 7.92882C5.165 8.43687 5.26189 8.95606 5.51694 9.40207C7.83564 13.0666 10.9394 16.1702 14.6039 18.489C15.0498 18.7438 15.5687 18.8406 16.0764 18.7636C16.5842 18.6868 17.0512 18.4407 17.4017 18.0653L18.3046 17.1623C18.5949 16.8995 18.7694 16.5324 18.7898 16.1413C18.8102 15.7502 18.6749 15.3668 18.4136 15.0752L16.932 13.5936C16.6404 13.3328 16.2576 13.1979 15.8669 13.2183C15.4763 13.2388 15.1096 13.4129 14.8467 13.7026L14.2968 14.2517C12.6236 12.9035 11.1007 11.379 9.75424 9.70434L10.3033 9.15723Z" fill="#E3E3E3"/>
<path d="M9.75424 9.70434L10.3033 9.15536C10.5932 8.89253 10.7675 8.52569 10.7882 8.13487C10.8087 7.74414 10.6741 7.361 10.4133 7.06913L8.93071 5.59129C8.63912 5.33015 8.25588 5.19513 7.86497 5.21574C7.47396 5.23635 7.10712 5.41092 6.84457 5.70129L5.94159 6.60334C5.56566 6.95369 5.31923 7.42078 5.24212 7.92882C5.165 8.43687 5.26189 8.95606 5.51694 9.40207C6.67095 11.2285 8.02519 12.9206 9.55438 14.4468L11.9035 12.0957C11.1442 11.3382 10.4267 10.5399 9.75424 9.70434Z" fill="white"/>
<path d="M10.3033 9.15723C10.5932 8.8944 10.7675 8.52757 10.7882 8.13684C10.8087 7.74602 10.6741 7.36297 10.4133 7.07109L8.93071 5.59129C8.63912 5.33015 8.25588 5.19513 7.86497 5.21574C7.47396 5.23635 7.10712 5.41092 6.84457 5.70129L5.94159 6.60334C5.56566 6.95369 5.31923 7.42078 5.24212 7.92882C5.165 8.43687 5.26189 8.95606 5.51694 9.40207C7.83564 13.0666 10.9394 16.1702 14.6039 18.489C15.0498 18.7438 15.5687 18.8406 16.0764 18.7636C16.5842 18.6868 17.0512 18.4407 17.4017 18.0653L18.3046 17.1623C18.5949 16.8995 18.7694 16.5324 18.7898 16.1413C18.8102 15.7502 18.6749 15.3668 18.4136 15.0752L16.932 13.5936C16.6404 13.3328 16.2576 13.1979 15.8669 13.2183C15.4763 13.2388 15.1096 13.4129 14.8467 13.7026L14.2968 14.2517C12.6236 12.9035 11.1007 11.379 9.75424 9.70434L10.3033 9.15723Z" stroke="#191919" stroke-linecap="round" stroke-linejoin="round"/>
<path d="M17.738 17.7391C18.2162 18.2174 19.2301 23 11.9988 23C9.54108 22.9997 7.15426 22.1765 5.21907 20.6613C3.28389 19.1463 1.91175 17.0267 1.32172 14.6408C0.731687 12.255 0.957598 9.74033 1.96356 7.4978C2.96943 5.25538 4.69745 3.41445 6.87166 2.26859C9.04597 1.12274 11.5414 0.7381 13.9598 1.17605C16.3782 1.61391 18.5803 2.84907 20.2148 4.68455C21.8493 6.52004 22.822 8.84999 22.9778 11.3028C23.1336 13.7557 22.4634 16.1899 21.0743 18.2174" stroke="#191919" stroke-linecap="round" stroke-linejoin="round"/>
</g>
<defs>
<clipPath id="clip0_5303_7499">
<rect width="24" height="24" fill="white"/>
</clipPath>
</defs>
</svg>
