<svg width="24" height="24" viewBox="0 0 24 24" fill="none" xmlns="http://www.w3.org/2000/svg">
<g clip-path="url(#clip0_5303_7521)">
<path d="M18.2175 19.174V21.087C18.2159 21.5939 18.0139 22.0796 17.6555 22.4381C17.297 22.7965 16.8113 22.9985 16.3044 23H7.69576C7.18885 22.9985 6.70315 22.7965 6.3447 22.4381C5.98626 22.0796 5.78423 21.5939 5.78271 21.087V19.174H18.2175Z" fill="white"/>
<path d="M18.2175 2.91304V19.1739H5.78271V2.91304C5.78423 2.40613 5.98626 1.92043 6.3447 1.56198C6.70315 1.20355 7.18885 1.00151 7.69576 1H16.3044C16.8113 1.00151 17.297 1.20355 17.6555 1.56198C18.0139 1.92043 18.2159 2.40613 18.2175 2.91304Z" fill="#66E1FF"/>
<path d="M18.2175 3.31765V2.91304C18.2159 2.40613 18.0139 1.92043 17.6555 1.56198C17.297 1.20355 16.8113 1.00151 16.3044 1H7.69576C7.18885 1.00151 6.70315 1.20355 6.3447 1.56198C5.98626 1.92043 5.78423 2.40613 5.78271 2.91304V15.7524L18.2175 3.31765Z" fill="#C2F3FF"/>
<path d="M18.2175 19.174H5.78271" stroke="#191919" stroke-linecap="round" stroke-linejoin="round"/>
<path d="M12.0004 21.3261C11.8683 21.3261 11.7612 21.2191 11.7612 21.087C11.7612 20.9549 11.8683 20.8478 12.0004 20.8478" stroke="#191919"/>
<path d="M12 21.3261C12.1321 21.3261 12.2391 21.2191 12.2391 21.087C12.2391 20.9549 12.1321 20.8478 12 20.8478" stroke="#191919"/>
<path d="M16.3044 1H7.69576C6.63921 1 5.78271 1.8565 5.78271 2.91304V21.0869C5.78271 22.1435 6.63921 23 7.69576 23H16.3044C17.361 23 18.2175 22.1435 18.2175 21.0869V2.91304C18.2175 1.8565 17.361 1 16.3044 1Z" stroke="#191919" stroke-linecap="round" stroke-linejoin="round"/>
<path d="M1.00049 18.2174L2.43527 16.7826L1.00049 15.3478L2.43527 13.913L1.00049 12.4782L2.43527 11.0435L1.00049 9.60869L2.43527 8.17391L1.00049 6.73913L2.43527 5.30435L1.00049 3.86957" stroke="#191919" stroke-linecap="round" stroke-linejoin="round"/>
<path d="M22.9997 18.2174L21.5649 16.7826L22.9997 15.3478L21.5649 13.913L22.9997 12.4782L21.5649 11.0435L22.9997 9.60869L21.5649 8.17391L22.9997 6.73913L21.5649 5.30435L22.9997 3.86957" stroke="#191919" stroke-linecap="round" stroke-linejoin="round"/>
</g>
<defs>
<clipPath id="clip0_5303_7521">
<rect width="24" height="24" fill="white"/>
</clipPath>
</defs>
</svg>
