<svg width="24" height="24" viewBox="0 0 24 24" fill="none" xmlns="http://www.w3.org/2000/svg">
<g clip-path="url(#clip0_5303_7571)">
<path d="M14.3913 1V4.82609C14.3913 5.58714 14.089 6.31703 13.5509 6.85518C13.0127 7.39332 12.2828 7.69565 11.5218 7.69565H2.91309V3.86957C2.91309 3.10851 3.21541 2.37862 3.75356 1.84048C4.29171 1.30233 5.0216 1 5.78265 1H14.3913Z" fill="#808080"/>
<path d="M21.087 3.86957V23H2.91309V7.69565H11.5218C12.2828 7.69565 13.0127 7.39332 13.5509 6.85518C14.089 6.31703 14.3913 5.58714 14.3913 4.82609V1H18.2174C18.9785 1 19.7084 1.30233 20.2465 1.84048C20.7847 2.37862 21.087 3.10851 21.087 3.86957Z" fill="#E3E3E3"/>
<path d="M2.91309 22.0205L21.087 3.84661C21.0824 3.08907 20.7779 2.3642 20.2401 1.83068C19.7023 1.29716 18.975 0.99847 18.2174 1.00001H14.3913V4.82609C14.3913 5.20293 14.3171 5.57608 14.1729 5.92423C14.0287 6.27238 13.8173 6.58872 13.5509 6.85518C13.2844 7.12165 12.9681 7.33302 12.6199 7.47723C12.2718 7.62143 11.8986 7.69566 11.5218 7.69566H2.91309V22.0205Z" fill="white"/>
<path d="M6.26047 5.78265C6.64099 5.78265 7.00594 5.63149 7.27501 5.36241C7.54408 5.09334 7.69525 4.7284 7.69525 4.34787C7.69525 3.96734 7.54408 3.6024 7.27501 3.33332C7.00594 3.06425 6.64099 2.91309 6.26047 2.91309C5.87994 2.91309 5.515 3.06425 5.24592 3.33332C4.97685 3.6024 4.82568 3.96734 4.82568 4.34787C4.82568 4.7284 4.97685 5.09334 5.24592 5.36241C5.515 5.63149 5.87994 5.78265 6.26047 5.78265Z" fill="#FFEF5E"/>
<path d="M11.0432 5.78265C11.4237 5.78265 11.7887 5.63149 12.0577 5.36241C12.3268 5.09334 12.478 4.7284 12.478 4.34787C12.478 3.96734 12.3268 3.6024 12.0577 3.33332C11.7887 3.06425 11.4237 2.91309 11.0432 2.91309C10.6627 2.91309 10.2977 3.06425 10.0286 3.33332C9.75956 3.6024 9.6084 3.96734 9.6084 4.34787C9.6084 4.7284 9.75956 5.09334 10.0286 5.36241C10.2977 5.63149 10.6627 5.78265 11.0432 5.78265Z" fill="#FFEF5E"/>
<path d="M21.087 23V3.86957C21.087 3.10851 20.7847 2.37862 20.2465 1.84048C19.7084 1.30233 18.9785 1 18.2174 1H5.78265C5.0216 1 4.29171 1.30233 3.75356 1.84048C3.21541 2.37862 2.91309 3.10851 2.91309 3.86957V23" stroke="#191919" stroke-linecap="round" stroke-linejoin="round"/>
<path d="M6.26144 5.78265C6.64197 5.78265 7.00691 5.63149 7.27599 5.36241C7.54506 5.09334 7.69623 4.7284 7.69623 4.34787C7.69623 3.96734 7.54506 3.6024 7.27599 3.33332C7.00691 3.06425 6.64197 2.91309 6.26144 2.91309C5.88091 2.91309 5.51597 3.06425 5.2469 3.33332C4.97782 3.6024 4.82666 3.96734 4.82666 4.34787C4.82666 4.7284 4.97782 5.09334 5.2469 5.36241C5.51597 5.63149 5.88091 5.78265 6.26144 5.78265Z" stroke="#191919" stroke-linecap="round" stroke-linejoin="round"/>
<path d="M11.0442 5.78265C11.4247 5.78265 11.7896 5.63149 12.0587 5.36241C12.3278 5.09334 12.4789 4.7284 12.4789 4.34787C12.4789 3.96734 12.3278 3.6024 12.0587 3.33332C11.7896 3.06425 11.4247 2.91309 11.0442 2.91309C10.6636 2.91309 10.2987 3.06425 10.0296 3.33332C9.76054 3.6024 9.60938 3.96734 9.60938 4.34787C9.60938 4.7284 9.76054 5.09334 10.0296 5.36241C10.2987 5.63149 10.6636 5.78265 11.0442 5.78265Z" stroke="#191919" stroke-linecap="round" stroke-linejoin="round"/>
<path d="M5.78265 1H14.3913V4.82609C14.3913 5.58714 14.089 6.31703 13.5509 6.85518C13.0127 7.39332 12.2828 7.69565 11.5218 7.69565H2.91309V3.86957C2.91309 3.10851 3.21541 2.37862 3.75356 1.84048C4.29171 1.30233 5.0216 1 5.78265 1Z" stroke="#191919" stroke-linecap="round" stroke-linejoin="round"/>
</g>
<defs>
<clipPath id="clip0_5303_7571">
<rect width="24" height="24" fill="white"/>
</clipPath>
</defs>
</svg>
