<svg width="24" height="24" viewBox="0 0 24 24" fill="none" xmlns="http://www.w3.org/2000/svg">
<g clip-path="url(#clip0_5303_7592)">
<path d="M9.60917 4.82611H2.91353C1.85698 4.82611 1.00049 5.68261 1.00049 6.73915V21.087C1.00049 22.1435 1.85698 23 2.91353 23H9.60917C10.6657 23 11.5222 22.1435 11.5222 21.087V6.73915C11.5222 5.68261 10.6657 4.82611 9.60917 4.82611Z" fill="white"/>
<path d="M11.5222 8.65222H1.00049V19.1739H11.5222V8.65222Z" fill="#66E1FF"/>
<path d="M11.5222 8.65222H1.00049V19.1739H1.71788L11.5222 9.36961V8.65222Z" fill="#C2F3FF"/>
<path d="M22.9997 8.1739C22.9997 8.55442 22.8485 8.91937 22.5795 9.18844C22.3104 9.45751 21.9454 9.60868 21.5649 9.60868H16.304L13.4345 12.4782V9.60868H10.0866C9.70611 9.60868 9.34116 9.45751 9.07209 9.18844C8.80302 8.91937 8.65186 8.55442 8.65186 8.1739V2.43478C8.65186 2.05426 8.80302 1.68931 9.07209 1.42024C9.34116 1.15116 9.70611 1 10.0866 1H21.5649C21.9454 1 22.3104 1.15116 22.5795 1.42024C22.8485 1.68931 22.9997 2.05426 22.9997 2.43478V8.1739Z" fill="#E3E3E3"/>
<path d="M21.5649 1H10.0866C9.70611 1 9.34116 1.15116 9.07209 1.42024C8.80302 1.68931 8.65186 2.05426 8.65186 2.43478V4.69599C8.65186 4.31547 8.80302 3.95052 9.07209 3.68145C9.34116 3.41238 9.70611 3.26121 10.0866 3.26121H21.5649C21.9454 3.26121 22.3104 3.41238 22.5795 3.68145C22.8485 3.95052 22.9997 4.31547 22.9997 4.69599V2.43478C22.9997 2.05426 22.8485 1.68931 22.5795 1.42024C22.3104 1.15116 21.9454 1 21.5649 1Z" fill="white"/>
<path d="M11.5222 14.3913V21.087C11.5222 21.5943 11.3207 22.0809 10.9619 22.4397C10.6031 22.7985 10.1165 23 9.60917 23H2.91353C2.40616 23 1.91957 22.7985 1.56081 22.4397C1.20204 22.0809 1.00049 21.5943 1.00049 21.087V6.73915C1.00049 6.23178 1.20204 5.74519 1.56081 5.38643C1.91957 5.02766 2.40616 4.82611 2.91353 4.82611H6.73961" stroke="#191919" stroke-linecap="round" stroke-linejoin="round"/>
<path d="M6.73961 8.65222H1.00049" stroke="#191919" stroke-linecap="round" stroke-linejoin="round"/>
<path d="M11.5222 19.174H1.00049" stroke="#191919" stroke-linecap="round" stroke-linejoin="round"/>
<path d="M4.82617 6.73914H6.73921" stroke="#191919" stroke-linecap="round" stroke-linejoin="round"/>
<path d="M22.9997 8.1739C22.9997 8.55442 22.8485 8.91937 22.5795 9.18844C22.3104 9.45751 21.9454 9.60868 21.5649 9.60868H16.304L13.4345 12.4782V9.60868H10.0866C9.70611 9.60868 9.34116 9.45751 9.07209 9.18844C8.80302 8.91937 8.65186 8.55442 8.65186 8.1739V2.43478C8.65186 2.05426 8.80302 1.68931 9.07209 1.42024C9.34116 1.15116 9.70611 1 10.0866 1H21.5649C21.9454 1 22.3104 1.15116 22.5795 1.42024C22.8485 1.68931 22.9997 2.05426 22.9997 2.43478V8.1739Z" stroke="#191919" stroke-linecap="round" stroke-linejoin="round"/>
<path d="M6.26159 21.3261C6.12952 21.3261 6.02246 21.2191 6.02246 21.087C6.02246 20.9549 6.12952 20.8478 6.26159 20.8478" stroke="#191919"/>
<path d="M6.26123 21.3261C6.3933 21.3261 6.50036 21.2191 6.50036 21.087C6.50036 20.9549 6.3933 20.8478 6.26123 20.8478" stroke="#191919"/>
<path d="M12.7176 5.30437C12.5855 5.30437 12.4785 5.19731 12.4785 5.06524C12.4785 4.93317 12.5855 4.82611 12.7176 4.82611" stroke="#191919"/>
<path d="M12.7178 5.30437C12.8499 5.30437 12.9569 5.19731 12.9569 5.06524C12.9569 4.93317 12.8499 4.82611 12.7178 4.82611" stroke="#191919"/>
<path d="M16.0653 5.30437C15.9332 5.30437 15.8262 5.19731 15.8262 5.06524C15.8262 4.93317 15.9332 4.82611 16.0653 4.82611" stroke="#191919"/>
<path d="M16.0649 5.30437C16.197 5.30437 16.3041 5.19731 16.3041 5.06524C16.3041 4.93317 16.197 4.82611 16.0649 4.82611" stroke="#191919"/>
<path d="M19.4134 5.30437C19.2814 5.30437 19.1743 5.19731 19.1743 5.06524C19.1743 4.93317 19.2814 4.82611 19.4134 4.82611" stroke="#191919"/>
<path d="M19.4131 5.30437C19.5452 5.30437 19.6522 5.19731 19.6522 5.06524C19.6522 4.93317 19.5452 4.82611 19.4131 4.82611" stroke="#191919"/>
</g>
<defs>
<clipPath id="clip0_5303_7592">
<rect width="24" height="24" fill="white"/>
</clipPath>
</defs>
</svg>
