<svg width="24" height="24" viewBox="0 0 24 24" fill="none" xmlns="http://www.w3.org/2000/svg">
<path d="M17.6168 11.7669C20.5899 11.7669 23.0002 9.35668 23.0002 6.38351C23.0002 3.41035 20.5899 1.00012 17.6168 1.00012C14.6437 1.00012 12.2334 3.41035 12.2334 6.38351C12.2334 9.35668 14.6437 11.7669 17.6168 11.7669Z" fill="#C2F3FF"/>
<path d="M7.54436 10.3757C7.71846 10.2018 7.85657 9.99529 7.9508 9.76798C8.04504 9.54066 8.09354 9.29701 8.09354 9.05093C8.09354 8.80485 8.04504 8.5612 7.9508 8.33388C7.85657 8.10657 7.71846 7.90005 7.54436 7.72615L5.55766 5.74038C5.20652 5.38934 4.73033 5.19214 4.23381 5.19214C3.73729 5.19214 3.26111 5.38934 2.90996 5.74038L1.81924 6.83017C1.36268 7.2883 1.07823 7.88997 1.01392 8.53355C0.949616 9.17713 1.1094 9.82319 1.46628 10.3626C4.67255 15.1895 8.81053 19.3275 13.6374 22.5337C14.1771 22.8904 14.8233 23.0499 15.4668 22.9852C16.1104 22.9206 16.712 22.6358 17.1699 22.1789L18.2606 21.0891C18.6116 20.738 18.8089 20.2618 18.8089 19.7653C18.8089 19.2688 18.6116 18.7926 18.2606 18.4414L16.2739 16.4575C15.9227 16.1065 15.4465 15.9093 14.95 15.9093C14.4535 15.9093 13.9774 16.1065 13.6262 16.4575L12.9643 17.1195C10.7437 15.2926 8.70559 13.2545 6.87869 11.0339L7.54436 10.3757Z" fill="#E3E3E3"/>
<path d="M6.88207 11.0376L7.54399 10.3757C7.71808 10.2018 7.8562 9.99529 7.95043 9.76798C8.04466 9.54066 8.09316 9.29701 8.09316 9.05093C8.09316 8.80485 8.04466 8.5612 7.95043 8.33388C7.8562 8.10657 7.71808 7.90005 7.54399 7.72615L5.55728 5.74038C5.20614 5.38934 4.72996 5.19214 4.23344 5.19214C3.73692 5.19214 3.26074 5.38934 2.90959 5.74038L1.81981 6.83017C1.3631 7.28819 1.07847 7.8898 1.01399 8.53338C0.94952 9.17697 1.10914 9.82309 1.46591 10.3626C2.93651 12.5742 4.60858 14.6449 6.46076 16.5484L9.29196 13.7162C8.44559 12.8465 7.63012 11.9542 6.88207 11.0376Z" fill="white"/>
<path d="M7.54399 10.3756C7.71794 10.2017 7.85594 9.99524 7.95009 9.768C8.04423 9.54077 8.09269 9.29722 8.09269 9.05126C8.09269 8.80529 8.04423 8.56175 7.95009 8.33451C7.85594 8.10729 7.71794 7.90083 7.54399 7.72695L5.55728 5.74118C5.20614 5.39014 4.72996 5.19293 4.23344 5.19293C3.73692 5.19293 3.26074 5.39014 2.90959 5.74118L1.81981 6.83003C1.3631 7.28805 1.07847 7.88966 1.01399 8.53324C0.94952 9.17683 1.10914 9.82295 1.46591 10.3625C4.67218 15.1894 8.81015 19.3274 13.6371 22.5336C14.1767 22.8906 14.823 23.0504 15.4668 22.9859C16.1106 22.9214 16.7123 22.6367 17.1704 22.1797L18.2602 21.0899C18.6112 20.7387 18.8085 20.2626 18.8085 19.7661C18.8085 19.2696 18.6112 18.7934 18.2602 18.4422L16.2735 16.4574C15.9223 16.1064 15.4462 15.9091 14.9497 15.9091C14.4532 15.9091 13.977 16.1064 13.6258 16.4574L12.9639 17.1193C10.7433 15.2924 8.70522 13.2543 6.87832 11.0338L7.54399 10.3756Z" stroke="#191919" stroke-linecap="round" stroke-linejoin="round"/>
<path d="M15.978 4.27693L18.7868 1.4682L21.5955 4.27693" stroke="#191919" stroke-linecap="round" stroke-linejoin="round"/>
<path d="M18.787 1.4682V8.47036L15.042 12.235" stroke="#191919" stroke-linecap="round" stroke-linejoin="round"/>
<path d="M20.2129 9.88513L22.532 12.2351" stroke="#191919" stroke-linecap="round" stroke-linejoin="round"/>
</svg>
