<svg width="24" height="24" viewBox="0 0 24 24" fill="none" xmlns="http://www.w3.org/2000/svg">
<g clip-path="url(#clip0_5303_7483)">
<path d="M12.4782 1H2.91304C2.40567 1 1.91908 1.20155 1.56032 1.56032C1.20155 1.91908 1 2.40567 1 2.91304V21.0869C1 21.5943 1.20155 22.0809 1.56032 22.4396C1.91908 22.7984 2.40567 23 2.91304 23H12.4782C12.7295 23 12.9782 22.9505 13.2103 22.8543C13.4424 22.7582 13.6533 22.6173 13.831 22.4396C14.0086 22.262 14.1495 22.0511 14.2457 21.819C14.3418 21.5869 14.3913 21.3381 14.3913 21.0869V2.91304C14.3913 2.66182 14.3418 2.41305 14.2457 2.18095C14.1495 1.94885 14.0086 1.73796 13.831 1.56032C13.6533 1.38267 13.4424 1.24176 13.2103 1.14562C12.9782 1.04948 12.7295 1 12.4782 1Z" fill="#66E1FF"/>
<path d="M14.3913 3.95756V2.91304C14.3913 2.66182 14.3418 2.41305 14.2457 2.18095C14.1495 1.94885 14.0086 1.73796 13.831 1.56032C13.6533 1.38267 13.4424 1.24176 13.2103 1.14562C12.9782 1.04948 12.7295 1 12.4782 1H2.91304C2.40567 1 1.91908 1.20155 1.56032 1.56032C1.20155 1.91908 1 2.40567 1 2.91304V17.3488L14.3913 3.95756Z" fill="#C2F3FF"/>
<path d="M23.0002 7.69572V17.2609H18.2176C17.2249 17.1938 16.2903 16.7691 15.5868 16.0656C14.8833 15.3621 14.4586 14.4275 14.3915 13.4348H11.5219C11.0146 13.4348 10.528 13.2333 10.1692 12.8745C9.81044 12.5158 9.60889 12.0292 9.60889 11.5218C9.60889 11.0144 9.81044 10.5278 10.1692 10.1691C10.528 9.81031 11.0146 9.60876 11.5219 9.60876H14.3915V4.3479H15.7019C16.0941 4.35077 16.4777 4.47033 16.8019 4.69225L21.0871 7.69572H23.0002Z" fill="#FFDDA1"/>
<path d="M21.0863 7.69572L16.8011 4.69225C16.477 4.47028 16.0939 4.35036 15.7011 4.3479H14.3906V6.7392H15.7011C16.0932 6.74207 16.4768 6.86164 16.8011 7.08355L21.0863 10.087H22.9993V7.69572H21.0863Z" fill="#FFDDA1"/>
<path d="M1 19.174V21.087C1 21.5944 1.20155 22.0809 1.56032 22.4397C1.91908 22.7985 2.40567 23 2.91304 23H12.4782C12.9856 23 13.4722 22.7985 13.831 22.4397C14.1897 22.0809 14.3913 21.5944 14.3913 21.087V19.174H1Z" fill="white"/>
<path d="M14.3906 4.3479H15.7011C16.0932 4.3479 16.4758 4.46842 16.7972 4.69416L21.0863 7.69572H22.9993" stroke="#191919" stroke-linecap="round" stroke-linejoin="round"/>
<path d="M23.0002 17.2609H18.2176C17.2249 17.1937 16.2903 16.7691 15.5868 16.0656C14.8833 15.3621 14.4586 14.4274 14.3915 13.4348H11.5219C11.0146 13.4348 10.528 13.2332 10.1692 12.8745C9.81044 12.5157 9.60889 12.0291 9.60889 11.5217C9.60889 11.0144 9.81044 10.5278 10.1692 10.169C10.528 9.81026 11.0146 9.6087 11.5219 9.6087H16.7828" stroke="#191919" stroke-linecap="round" stroke-linejoin="round"/>
<path d="M14.3913 19.174H1" stroke="#191919" stroke-linecap="round" stroke-linejoin="round"/>
<path d="M7.69567 21.3261C7.63225 21.3261 7.57143 21.3009 7.52658 21.2561C7.48174 21.2112 7.45654 21.1504 7.45654 21.087C7.45654 21.0235 7.48174 20.9627 7.52658 20.9179C7.57143 20.873 7.63225 20.8478 7.69567 20.8478" stroke="#191919"/>
<path d="M7.69531 21.3261C7.75873 21.3261 7.81956 21.3009 7.8644 21.2561C7.90925 21.2112 7.93444 21.1504 7.93444 21.087C7.93444 21.0235 7.90925 20.9627 7.8644 20.9179C7.81956 20.873 7.75873 20.8478 7.69531 20.8478" stroke="#191919"/>
<path d="M14.3913 17.7114V21.0869C14.3913 21.3381 14.3418 21.5869 14.2457 21.819C14.1495 22.0511 14.0086 22.262 13.831 22.4396C13.6533 22.6173 13.4424 22.7582 13.2103 22.8543C12.9782 22.9505 12.7295 23 12.4782 23H2.91304C2.40567 23 1.91908 22.7984 1.56032 22.4396C1.20155 22.0809 1 21.5943 1 21.0869V2.91304C1 2.40567 1.20155 1.91908 1.56032 1.56032C1.91908 1.20155 2.40567 1 2.91304 1H12.4782C12.7295 1 12.9782 1.04948 13.2103 1.14562C13.4424 1.24176 13.6533 1.38267 13.831 1.56032C14.0086 1.73796 14.1495 1.94885 14.2457 2.18095C14.3418 2.41305 14.3913 2.66182 14.3913 2.91304V9.60868" stroke="#191919" stroke-linecap="round" stroke-linejoin="round"/>
<path d="M7.69531 3.86957V8.17391" stroke="#191919" stroke-linecap="round" stroke-linejoin="round"/>
<path d="M6.26074 5.78261L7.69552 3.86957L9.1303 5.78261" stroke="#191919" stroke-linecap="round" stroke-linejoin="round"/>
<path d="M7.69531 16.3043V12" stroke="#191919" stroke-linecap="round" stroke-linejoin="round"/>
<path d="M9.1303 14.3914L7.69552 16.3044L6.26074 14.3914" stroke="#191919" stroke-linecap="round" stroke-linejoin="round"/>
</g>
<defs>
<clipPath id="clip0_5303_7483">
<rect width="24" height="24" fill="white"/>
</clipPath>
</defs>
</svg>
