<svg width="24" height="24" viewBox="0 0 24 24" fill="none" xmlns="http://www.w3.org/2000/svg">
<g clip-path="url(#clip0_5303_10456)">
<path d="M16.8877 18.2231C16.8533 18.4822 16.7274 18.7205 16.5326 18.8949C16.3379 19.0692 16.0873 19.1682 15.826 19.1739H8.17379C7.91247 19.1682 7.66182 19.0692 7.46711 18.8949C7.27239 18.7205 7.14645 18.4822 7.11205 18.2231L6.26074 10.5652H17.739L16.8877 18.2231Z" fill="#808080"/>
<path d="M17.4205 13.4348L17.739 10.5652H6.26074L6.57926 13.4348H17.4205Z" fill="#6B6B6B"/>
<path d="M16.8877 18.2231C16.8533 18.4822 16.7274 18.7205 16.5326 18.8949C16.3379 19.0692 16.0873 19.1682 15.826 19.1739H8.17379C7.91247 19.1682 7.66182 19.0692 7.46711 18.8949C7.27239 18.7205 7.14645 18.4822 7.11205 18.2231L6.26074 10.5652H17.739L16.8877 18.2231Z" stroke="#191919" stroke-linecap="round" stroke-linejoin="round"/>
<path d="M18.6955 1H5.30416C4.24761 1 3.39111 1.8565 3.39111 2.91304V8.65217C3.39111 9.70872 4.24761 10.5652 5.30416 10.5652H18.6955C19.752 10.5652 20.6085 9.70872 20.6085 8.65217V2.91304C20.6085 1.8565 19.752 1 18.6955 1Z" fill="#E3E3E3"/>
<path d="M13.9125 19.174H10.0864V22.0436C10.0864 22.2973 10.1872 22.5406 10.3666 22.7199C10.5459 22.8993 10.7893 23 11.0429 23H12.956C13.2097 23 13.453 22.8993 13.6323 22.7199C13.8117 22.5406 13.9125 22.2973 13.9125 22.0436V19.174Z" fill="#6B6B6B"/>
<path d="M17.739 3.86963H6.26074V7.69571H17.739V3.86963Z" fill="#FFEF5E"/>
<path d="M17.7388 3.8696L20.0478 1.56055" stroke="#191919" stroke-linecap="round" stroke-linejoin="round"/>
<path d="M17.7388 7.69568L20.0478 10.0037" stroke="#191919" stroke-linecap="round" stroke-linejoin="round"/>
<path d="M6.2607 3.8696L3.95166 1.56055" stroke="#191919" stroke-linecap="round" stroke-linejoin="round"/>
<path d="M6.26072 7.69568L3.95264 10.0037" stroke="#191919" stroke-linecap="round" stroke-linejoin="round"/>
<path d="M13.4348 17.261C14.2272 17.261 14.8696 16.6186 14.8696 15.8262C14.8696 15.0338 14.2272 14.3914 13.4348 14.3914C12.6424 14.3914 12 15.0338 12 15.8262C12 16.6186 12.6424 17.261 13.4348 17.261Z" fill="#FF808C"/>
<path d="M18.6955 1H5.30416C4.24761 1 3.39111 1.8565 3.39111 2.91304V8.65217C3.39111 9.70872 4.24761 10.5652 5.30416 10.5652H18.6955C19.752 10.5652 20.6085 9.70872 20.6085 8.65217V2.91304C20.6085 1.8565 19.752 1 18.6955 1Z" stroke="#191919" stroke-linecap="round" stroke-linejoin="round"/>
<path d="M13.9125 19.174H10.0864V22.0436C10.0864 22.2973 10.1872 22.5406 10.3666 22.7199C10.5459 22.8993 10.7893 23 11.0429 23H12.956C13.2097 23 13.453 22.8993 13.6323 22.7199C13.8117 22.5406 13.9125 22.2973 13.9125 22.0436V19.174Z" stroke="#191919" stroke-linecap="round" stroke-linejoin="round"/>
<path d="M17.739 3.86963H6.26074V7.69571H17.739V3.86963Z" stroke="#191919" stroke-linecap="round" stroke-linejoin="round"/>
<path d="M13.4348 17.261C14.2272 17.261 14.8696 16.6186 14.8696 15.8262C14.8696 15.0338 14.2272 14.3914 13.4348 14.3914C12.6424 14.3914 12 15.0338 12 15.8262C12 16.6186 12.6424 17.261 13.4348 17.261Z" stroke="#191919" stroke-linecap="round" stroke-linejoin="round"/>
</g>
<defs>
<clipPath id="clip0_5303_10456">
<rect width="24" height="24" fill="white"/>
</clipPath>
</defs>
</svg>
