<svg width="24" height="24" viewBox="0 0 24 24" fill="none" xmlns="http://www.w3.org/2000/svg">
<g clip-path="url(#clip0_5303_10510)">
<path d="M23 2.91304V19.413C22.8311 18.6318 22.4593 17.9089 21.922 17.3171C21.3847 16.7253 20.701 16.2855 19.9397 16.0421C19.1783 15.7986 18.3663 15.7602 17.5853 15.9304C16.8044 16.1008 16.0821 16.4738 15.4913 17.0122C14.5376 15.8354 13.2824 14.9394 11.8595 14.42C10.4366 13.9006 8.89938 13.7772 7.41183 14.0629C5.92429 14.3486 4.54219 15.0328 3.41298 16.0424C2.28377 17.0521 1.44979 18.3492 1 19.7956V2.91304C1.00151 2.40613 1.20355 1.92043 1.56198 1.56198C1.92043 1.20355 2.40613 1.00151 2.91304 1H21.0869C21.5938 1.00151 22.0795 1.20355 22.438 1.56198C22.7964 1.92043 22.9985 2.40613 23 2.91304Z" fill="#66E1FF"/>
<path d="M21.0869 1H2.91304C2.40613 1.00151 1.92043 1.20355 1.56198 1.56198C1.20355 1.92043 1.00151 2.40613 1 2.91304V19.7956C1.51716 18.1422 2.53428 16.6898 3.91124 15.6385C5.2882 14.5872 6.95725 13.9887 8.68852 13.9255L21.5509 1.06409C21.3995 1.02326 21.2436 1.00173 21.0869 1Z" fill="#C2F3FF"/>
<path d="M23 2.91304V19.413C22.8311 18.6318 22.4593 17.9089 21.922 17.3171C21.3847 16.7253 20.701 16.2855 19.9397 16.0421C19.1783 15.7986 18.3663 15.7602 17.5853 15.9304C16.8044 16.1008 16.0821 16.4738 15.4913 17.0122C14.5376 15.8354 13.2824 14.9394 11.8595 14.42C10.4366 13.9006 8.89938 13.7772 7.41183 14.0629C5.92429 14.3486 4.54219 15.0328 3.41298 16.0424C2.28377 17.0521 1.44979 18.3492 1 19.7956V2.91304C1.00151 2.40613 1.20355 1.92043 1.56198 1.56198C1.92043 1.20355 2.40613 1.00151 2.91304 1H21.0869C21.5938 1.00151 22.0795 1.20355 22.438 1.56198C22.7964 1.92043 22.9985 2.40613 23 2.91304Z" stroke="#191919" stroke-linecap="round" stroke-linejoin="round"/>
<path d="M16.3044 10.087C17.6251 10.087 18.6957 9.0163 18.6957 7.69563C18.6957 6.37495 17.6251 5.30432 16.3044 5.30432C14.9837 5.30432 13.9131 6.37495 13.9131 7.69563C13.9131 9.0163 14.9837 10.087 16.3044 10.087Z" fill="#FFEF5E"/>
<path d="M16.3042 3.39135V2.91309" stroke="#191919" stroke-linecap="round" stroke-linejoin="round"/>
<path d="M13.26 4.65196L12.9214 4.31335" stroke="#191919" stroke-linecap="round" stroke-linejoin="round"/>
<path d="M11.9993 7.69568H11.521" stroke="#191919" stroke-linecap="round" stroke-linejoin="round"/>
<path d="M13.26 10.7393L12.9214 11.0779" stroke="#191919" stroke-linecap="round" stroke-linejoin="round"/>
<path d="M16.3042 12V12.4783" stroke="#191919" stroke-linecap="round" stroke-linejoin="round"/>
<path d="M19.3477 10.7393L19.6863 11.0779" stroke="#191919" stroke-linecap="round" stroke-linejoin="round"/>
<path d="M20.6084 7.69568H21.0867" stroke="#191919" stroke-linecap="round" stroke-linejoin="round"/>
<path d="M19.3477 4.65196L19.6863 4.31335" stroke="#191919" stroke-linecap="round" stroke-linejoin="round"/>
<path d="M23 19.413V21.087C22.9985 21.5938 22.7964 22.0795 22.438 22.438C22.0795 22.7965 21.5938 22.9985 21.0869 23H2.91304C2.40613 22.9985 1.92043 22.7965 1.56198 22.438C1.20355 22.0795 1.00151 21.5938 1 21.087V19.7957C1.44979 18.3492 2.28377 17.0521 3.41298 16.0425C4.54219 15.0328 5.92429 14.3486 7.41183 14.0629C8.89938 13.7772 10.4366 13.9006 11.8595 14.42C13.2824 14.9394 14.5376 15.8354 15.4913 17.0122C16.0821 16.4738 16.8044 16.1008 17.5853 15.9304C18.3663 15.7602 19.1783 15.7986 19.9397 16.0421C20.701 16.2855 21.3847 16.7253 21.922 17.317C22.4593 17.9088 22.8311 18.6318 23 19.413Z" fill="#78EB7B"/>
<path d="M23 19.413V21.087C22.9985 21.5938 22.7964 22.0795 22.438 22.438C22.0795 22.7965 21.5938 22.9985 21.0869 23H2.91304C2.40613 22.9985 1.92043 22.7965 1.56198 22.438C1.20355 22.0795 1.00151 21.5938 1 21.087V19.7957C1.44979 18.3492 2.28377 17.0521 3.41298 16.0425C4.54219 15.0328 5.92429 14.3486 7.41183 14.0629C8.89938 13.7772 10.4366 13.9006 11.8595 14.42C13.2824 14.9394 14.5376 15.8354 15.4913 17.0122C16.0821 16.4738 16.8044 16.1008 17.5853 15.9304C18.3663 15.7602 19.1783 15.7986 19.9397 16.0421C20.701 16.2855 21.3847 16.7253 21.922 17.317C22.4593 17.9088 22.8311 18.6318 23 19.413Z" stroke="#191919" stroke-linecap="round" stroke-linejoin="round"/>
<path d="M16.7916 19.2504C16.482 18.4388 16.0426 17.683 15.4907 17.0122" stroke="#191919" stroke-linecap="round" stroke-linejoin="round"/>
<path d="M16.3044 10.087C17.6251 10.087 18.6957 9.0163 18.6957 7.69563C18.6957 6.37495 17.6251 5.30432 16.3044 5.30432C14.9837 5.30432 13.9131 6.37495 13.9131 7.69563C13.9131 9.0163 14.9837 10.087 16.3044 10.087Z" stroke="#191919" stroke-linecap="round" stroke-linejoin="round"/>
</g>
<defs>
<clipPath id="clip0_5303_10510">
<rect width="24" height="24" fill="white"/>
</clipPath>
</defs>
</svg>
