<svg width="24" height="24" viewBox="0 0 24 24" fill="none" xmlns="http://www.w3.org/2000/svg">
<g clip-path="url(#clip0_5303_10603)">
<path d="M16.3047 3.39111H2.91309C2.40571 3.39111 1.91911 3.59267 1.56033 3.95144C1.20156 4.31022 1 4.79682 1 5.30421V13.9131C1 14.4205 1.20156 14.9071 1.56033 15.2659C1.91911 15.6246 2.40571 15.8262 2.91309 15.8262H16.3047C16.556 15.8262 16.8048 15.7767 17.0369 15.6806C17.269 15.5844 17.4799 15.4435 17.6575 15.2659C17.8352 15.0882 17.9761 14.8773 18.0722 14.6452C18.1684 14.4131 18.2178 14.1643 18.2178 13.9131V5.30421C18.2178 4.79682 18.0163 4.31022 17.6575 3.95144C17.2987 3.59267 16.8121 3.39111 16.3047 3.39111Z" fill="#B2B2B2"/>
<path d="M18.2178 6.26075V5.30421C18.2178 4.79682 18.0163 4.31022 17.6575 3.95144C17.2987 3.59267 16.8121 3.39111 16.3047 3.39111H2.91309C2.40571 3.39111 1.91911 3.59267 1.56033 3.95144C1.20156 4.31022 1 4.79682 1 5.30421V13.9131C1 14.4205 1.20156 14.9071 1.56033 15.2659C1.91911 15.6246 2.40571 15.8262 2.91309 15.8262H3.86964" stroke="#191919" stroke-linecap="round" stroke-linejoin="round"/>
<path d="M21.087 8.17383H7.69532C7.18794 8.17383 6.70133 8.37539 6.34256 8.73416C5.98378 9.09293 5.78223 9.57954 5.78223 10.0869V18.6958C5.78223 19.2032 5.98378 19.6898 6.34256 20.0486C6.70133 20.4074 7.18794 20.6089 7.69532 20.6089H21.087C21.5944 20.6089 22.081 20.4074 22.4397 20.0486C22.7985 19.6898 23.0001 19.2032 23.0001 18.6958V10.0869C23.0001 9.57954 22.7985 9.09293 22.4397 8.73416C22.081 8.37539 21.5944 8.17383 21.087 8.17383Z" fill="#E3E3E3"/>
<path d="M7.69532 8.17383C7.18794 8.17383 6.70133 8.37539 6.34256 8.73416C5.98378 9.09293 5.78223 9.57954 5.78223 10.0869V18.6958C5.78337 19.1462 5.94333 19.5817 6.23395 19.9256C6.52458 20.2696 6.92724 20.5001 7.37105 20.5764L19.7736 8.17383H7.69532Z" fill="white"/>
<path d="M21.087 8.17383H7.69532C7.18794 8.17383 6.70133 8.37539 6.34256 8.73416C5.98378 9.09293 5.78223 9.57954 5.78223 10.0869V18.6958C5.78223 19.2032 5.98378 19.6898 6.34256 20.0486C6.70133 20.4074 7.18794 20.6089 7.69532 20.6089H21.087C21.5944 20.6089 22.081 20.4074 22.4397 20.0486C22.7985 19.6898 23.0001 19.2032 23.0001 18.6958V10.0869C23.0001 9.57954 22.7985 9.09293 22.4397 8.73416C22.081 8.37539 21.5944 8.17383 21.087 8.17383Z" stroke="#191919" stroke-linecap="round" stroke-linejoin="round"/>
<path d="M8.65186 17.7393L11.7855 11.4711C11.8499 11.3426 11.9488 11.2345 12.0711 11.159C12.1934 11.0835 12.3343 11.0435 12.478 11.0435C12.6241 11.0435 12.7676 11.0812 12.8948 11.1529C13.022 11.2246 13.1285 11.3279 13.2041 11.4529L15.8451 15.8262L16.9738 14.2957C17.0624 14.1764 17.1779 14.0797 17.3108 14.0132C17.4437 13.9467 17.5904 13.9125 17.739 13.9131C17.8828 13.913 18.0237 13.953 18.1461 14.0285C18.2684 14.104 18.3673 14.2121 18.4316 14.3407L20.1304 17.7393H8.65186Z" fill="#78EB7B"/>
<path d="M8.65186 17.7393L11.7855 11.4711C11.8499 11.3426 11.9488 11.2345 12.0711 11.159C12.1934 11.0835 12.3343 11.0435 12.478 11.0435C12.6241 11.0435 12.7676 11.0812 12.8948 11.1529C13.022 11.2246 13.1285 11.3279 13.2041 11.4529L15.8451 15.8262L16.9738 14.2957C17.0624 14.1764 17.1779 14.0797 17.3108 14.0132C17.4437 13.9467 17.5904 13.9125 17.739 13.9131C17.8828 13.913 18.0237 13.953 18.1461 14.0285C18.2684 14.104 18.3673 14.2121 18.4316 14.3407L20.1304 17.7393H8.65186Z" stroke="#191919" stroke-linecap="round" stroke-linejoin="round"/>
</g>
<defs>
<clipPath id="clip0_5303_10603">
<rect width="24" height="24" fill="white"/>
</clipPath>
</defs>
</svg>
