<svg width="24" height="24" viewBox="0 0 24 24" fill="none" xmlns="http://www.w3.org/2000/svg">
<g clip-path="url(#clip0_5303_10527)">
<path d="M2.9126 2.91309H21.0865V20.1304C21.0865 20.3841 20.9857 20.6274 20.8063 20.8068C20.627 20.9862 20.3837 21.087 20.13 21.087H2.9126V2.91309Z" fill="#E3E3E3"/>
<path d="M4.82568 4.82605H22.9996V22.0435C22.9996 22.2972 22.8988 22.5405 22.7194 22.7198C22.54 22.8992 22.2967 23 22.0431 23H4.82568V4.82605Z" fill="#E3E3E3"/>
<path d="M22.9996 5.78259V22.0435C22.9996 22.2972 22.8988 22.5405 22.7194 22.7198C22.5401 22.8992 22.2968 23 22.0431 23H5.78223" stroke="#191919" stroke-linecap="round" stroke-linejoin="round"/>
<path d="M21.0865 2.91309V20.1304C21.0865 20.3841 20.9857 20.6274 20.8063 20.8068C20.627 20.9862 20.3837 21.087 20.13 21.087H2.9126" stroke="#191919" stroke-linecap="round" stroke-linejoin="round"/>
<path d="M19.1739 15.3478V18.2174C19.1739 18.4711 19.0731 18.7144 18.8937 18.8937C18.7144 19.0731 18.4711 19.1739 18.2174 19.1739H1.95652C1.70284 19.1739 1.45954 19.0731 1.28016 18.8937C1.10078 18.7144 1 18.4711 1 18.2174V15.3478H19.1739Z" fill="#E3E3E3"/>
<path d="M19.1739 1.95652V15.3478H1V1.95652C1 1.70284 1.10078 1.45954 1.28016 1.28016C1.45954 1.10078 1.70284 1 1.95652 1H18.2174C18.4711 1 18.7144 1.10078 18.8937 1.28016C19.0731 1.45954 19.1739 1.70284 19.1739 1.95652Z" fill="#66E1FF"/>
<path d="M1.95652 1C1.70284 1 1.45954 1.10078 1.28016 1.28016C1.10078 1.45954 1 1.70284 1 1.95652V15.3478H1.484L15.8318 1H1.95652Z" fill="#C2F3FF"/>
<path d="M19.1739 1.95652V15.3478H1V1.95652C1 1.70284 1.10078 1.45954 1.28016 1.28016C1.45954 1.10078 1.70284 1 1.95652 1H18.2174C18.4711 1 18.7144 1.10078 18.8937 1.28016C19.0731 1.45954 19.1739 1.70284 19.1739 1.95652Z" stroke="#191919" stroke-linecap="round" stroke-linejoin="round"/>
<path d="M16.7822 15.3478L13.3837 8.55083C13.1484 8.08022 12.7639 8.08022 12.5285 8.55083L10.0865 13.4348L8.30742 11.2998C8.24441 11.2067 8.15787 11.1319 8.05659 11.083C7.95531 11.0341 7.84289 11.0129 7.73077 11.0216C7.61864 11.0302 7.5108 11.0684 7.41821 11.1322C7.32562 11.1961 7.25157 11.2832 7.20359 11.385L4.82568 15.3478H16.7822Z" fill="#78EB7B"/>
<path d="M6.26047 6.73919C6.64099 6.73919 7.00593 6.58803 7.27501 6.31895C7.54408 6.04988 7.69525 5.68494 7.69525 5.30441C7.69525 4.92388 7.54408 4.55894 7.27501 4.28987C7.00593 4.02079 6.64099 3.86963 6.26047 3.86963C5.87994 3.86963 5.515 4.02079 5.24592 4.28987C4.97685 4.55894 4.82568 4.92388 4.82568 5.30441C4.82568 5.68494 4.97685 6.04988 5.24592 6.31895C5.515 6.58803 5.87994 6.73919 6.26047 6.73919Z" fill="#FFEF5E"/>
<path d="M19.1739 15.3478V18.2174C19.1739 18.4711 19.0731 18.7144 18.8937 18.8937C18.7144 19.0731 18.4711 19.1739 18.2174 19.1739H1.95652C1.70284 19.1739 1.45954 19.0731 1.28016 18.8937C1.10078 18.7144 1 18.4711 1 18.2174V15.3478H19.1739Z" stroke="#191919" stroke-linecap="round" stroke-linejoin="round"/>
<path d="M16.7822 15.3478L13.3837 8.55083C13.1484 8.08022 12.7639 8.08022 12.5285 8.55083L10.0865 13.4348L8.30742 11.2998C8.24441 11.2067 8.15787 11.1319 8.05659 11.083C7.95531 11.0341 7.84289 11.0129 7.73077 11.0216C7.61864 11.0302 7.5108 11.0684 7.41821 11.1322C7.32562 11.1961 7.25157 11.2832 7.20359 11.385L4.82568 15.3478H16.7822Z" stroke="#191919" stroke-linecap="round" stroke-linejoin="round"/>
<path d="M6.26047 6.73919C6.64099 6.73919 7.00593 6.58803 7.27501 6.31895C7.54408 6.04988 7.69525 5.68494 7.69525 5.30441C7.69525 4.92388 7.54408 4.55894 7.27501 4.28987C7.00593 4.02079 6.64099 3.86963 6.26047 3.86963C5.87994 3.86963 5.515 4.02079 5.24592 4.28987C4.97685 4.55894 4.82568 4.92388 4.82568 5.30441C4.82568 5.68494 4.97685 6.04988 5.24592 6.31895C5.515 6.58803 5.87994 6.73919 6.26047 6.73919Z" stroke="#191919" stroke-linecap="round" stroke-linejoin="round"/>
</g>
<defs>
<clipPath id="clip0_5303_10527">
<rect width="24" height="24" fill="white"/>
</clipPath>
</defs>
</svg>
