<svg width="24" height="24" viewBox="0 0 24 24" fill="none" xmlns="http://www.w3.org/2000/svg">
<g clip-path="url(#clip0_5303_8239)">
<path d="M2.87695 9.5708V1.9556C2.87695 1.70216 2.97764 1.4591 3.15684 1.27989C3.33605 1.10068 3.57911 1 3.83256 1H16.2105C16.4639 1 16.707 1.10068 16.8862 1.27989C17.0654 1.4591 17.1661 1.70216 17.1661 1.9556V9.5708H2.87695Z" fill="#66E1FF"/>
<path d="M2.87695 1.9556V9.5708H5.15989L13.7307 1H3.82969C3.57674 1.00076 3.33442 1.10177 3.15583 1.2809C2.97723 1.46003 2.87695 1.70265 2.87695 1.9556Z" fill="#C2F3FF"/>
<path d="M2.87695 9.5708V1.9556C2.87695 1.70216 2.97764 1.4591 3.15684 1.27989C3.33605 1.10068 3.57911 1 3.83256 1H16.2105C16.4639 1 16.707 1.10068 16.8862 1.27989C17.0654 1.4591 17.1661 1.70216 17.1661 1.9556V9.5708H2.87695Z" stroke="#191919" stroke-linecap="round" stroke-linejoin="round"/>
<path d="M19.0948 15.8959L17.2534 9.5708H2.91172L1.07409 15.8959C1.01949 16.0401 1.00062 16.1955 1.01908 16.3486C1.03754 16.5018 1.09279 16.6481 1.18012 16.7753C1.26744 16.9024 1.38423 17.0065 1.52053 17.0787C1.65683 17.1508 1.80857 17.189 1.9628 17.1898H18.208C18.3624 17.1892 18.5142 17.1511 18.6507 17.0791C18.787 17.0069 18.904 16.9028 18.9914 16.7757C19.0789 16.6485 19.1342 16.5021 19.1527 16.3489C19.1712 16.1956 19.1524 16.0402 19.0977 15.8959H19.0948Z" fill="#E3E3E3"/>
<path d="M9.14798 17.1898H1.9628C1.80857 17.189 1.65683 17.1508 1.52053 17.0787C1.38423 17.0065 1.26744 16.9024 1.18012 16.7753C1.09279 16.6481 1.03754 16.5018 1.01908 16.3486C1.00062 16.1955 1.01949 16.0401 1.07409 15.8959L2.91172 9.5708H17.1626" stroke="#191919" stroke-linecap="round" stroke-linejoin="round"/>
<path d="M5.36768 11.4763H6.32041" stroke="#191919" stroke-linecap="round" stroke-linejoin="round"/>
<path d="M8.22461 11.4763H9.17639" stroke="#191919" stroke-linecap="round" stroke-linejoin="round"/>
<path d="M4.41406 13.3808H5.3668" stroke="#191919" stroke-linecap="round" stroke-linejoin="round"/>
<path d="M7.27197 13.3808H8.22471" stroke="#191919" stroke-linecap="round" stroke-linejoin="round"/>
<path d="M10.1294 13.3808H11.0821" stroke="#191919" stroke-linecap="round" stroke-linejoin="round"/>
<path d="M11.082 11.4763H12.0338" stroke="#191919" stroke-linecap="round" stroke-linejoin="round"/>
<path d="M5.81494 17.1898L6.76672 15.2853H11.0526" stroke="#191919" stroke-linecap="round" stroke-linejoin="round"/>
<path d="M21.8438 17.5415L19.7013 19.6935L14.1875 14.1768L16.33 12.0258C17.064 11.3069 18.0521 10.9067 19.0794 10.9119C20.1069 10.9173 21.0907 11.3277 21.8173 12.0541C22.5439 12.7806 22.9545 13.7644 22.96 14.7918C22.9655 15.8192 22.5654 16.8073 21.8467 17.5415H21.8438Z" fill="white"/>
<path d="M21.8434 12.0257C21.5741 11.7629 21.2677 11.5414 20.9337 11.3683C21.337 12.104 21.4909 12.9507 21.3723 13.7813C21.2538 14.6119 20.8692 15.3816 20.2762 15.9752L18.1338 18.1263L19.701 19.6935L21.8434 17.5415C22.2062 17.1796 22.494 16.7498 22.6905 16.2765C22.8869 15.8033 22.988 15.296 22.988 14.7836C22.988 14.2712 22.8869 13.7639 22.6905 13.2907C22.494 12.8174 22.2062 12.3875 21.8434 12.0257Z" fill="#E3E3E3"/>
<path d="M19.7019 19.6935L17.5508 21.8321C17.1885 22.1944 16.7585 22.4818 16.2853 22.6778C15.812 22.8738 15.3048 22.9747 14.7925 22.9747C13.7579 22.9747 12.7656 22.5637 12.0341 21.8321C11.6719 21.4699 11.3846 21.0399 11.1885 20.5666C10.9925 20.0933 10.8916 19.5861 10.8916 19.0738C10.8916 18.0393 11.3026 17.047 12.0341 16.3155L14.188 14.1768L19.7019 19.6935Z" fill="#FFBFC5"/>
<path d="M15.9829 20.2688C15.3891 20.8613 14.6194 21.2457 13.7889 21.3642C12.9584 21.4827 12.1119 21.329 11.376 20.9262C11.657 21.4667 12.0624 21.9328 12.5586 22.2861C13.0549 22.6395 13.6279 22.87 14.2306 22.9589C14.8332 23.0477 15.4485 22.9921 16.0256 22.797C16.6025 22.6018 17.1251 22.2724 17.5501 21.836L19.7012 19.6935L18.134 18.1263L15.9829 20.2688Z" fill="#FF808C"/>
<path d="M19.7019 19.6935L17.5508 21.8321C17.1885 22.1944 16.7585 22.4818 16.2853 22.6778C15.812 22.8738 15.3048 22.9747 14.7925 22.9747C13.7579 22.9747 12.7656 22.5637 12.0341 21.8321C11.6719 21.4699 11.3846 21.0399 11.1885 20.5666C10.9925 20.0933 10.8916 19.5861 10.8916 19.0738C10.8916 18.0393 11.3026 17.047 12.0341 16.3155L14.188 14.1768L19.7019 19.6935Z" stroke="#191919" stroke-linecap="round" stroke-linejoin="round"/>
<path d="M21.8438 17.5415L19.7013 19.6935L14.1875 14.1768L16.33 12.0258C17.064 11.3069 18.0521 10.9067 19.0794 10.9119C20.1069 10.9173 21.0907 11.3277 21.8173 12.0541C22.5439 12.7806 22.9545 13.7644 22.96 14.7918C22.9655 15.8192 22.5654 16.8073 21.8467 17.5415H21.8438Z" stroke="#191919" stroke-linecap="round" stroke-linejoin="round"/>
<path d="M17.5522 13.2499C17.8554 12.9465 18.2418 12.7398 18.6625 12.656C19.0831 12.5724 19.5193 12.6154 19.9154 12.7797" stroke="#191919" stroke-linecap="round" stroke-linejoin="round"/>
</g>
<defs>
<clipPath id="clip0_5303_8239">
<rect width="24" height="24" fill="white"/>
</clipPath>
</defs>
</svg>
