<svg width="24" height="24" viewBox="0 0 24 24" fill="none" xmlns="http://www.w3.org/2000/svg">
<path d="M11.9999 8.65217C14.113 8.65217 15.826 6.93918 15.826 4.82609C15.826 2.713 14.113 1 11.9999 1C9.88682 1 8.17383 2.713 8.17383 4.82609C8.17383 6.93918 9.88682 8.65217 11.9999 8.65217Z" fill="#FFBC44"/>
<path d="M11.9999 3.86964C12.7622 3.86946 13.5072 4.097 14.1393 4.52305C14.7713 4.94912 15.2617 5.55428 15.5477 6.26094C15.7822 5.68018 15.8706 5.05073 15.805 4.42785C15.7394 3.80497 15.522 3.2077 15.1717 2.68848C14.8215 2.16927 14.349 1.744 13.796 1.44998C13.243 1.15596 12.6262 1.0022 11.9999 1.0022C11.3736 1.0022 10.7568 1.15596 10.2039 1.44998C9.6508 1.744 9.17841 2.16927 8.82814 2.68848C8.47786 3.2077 8.26039 3.80497 8.19484 4.42785C8.12929 5.05073 8.21765 5.68018 8.45217 6.26094C8.73803 5.55428 9.22846 4.94912 9.86057 4.52305C10.4926 4.097 11.2377 3.86946 11.9999 3.86964Z" fill="#FFDDA1"/>
<path d="M11.9999 8.65217C14.113 8.65217 15.826 6.93918 15.826 4.82609C15.826 2.713 14.113 1 11.9999 1C9.88682 1 8.17383 2.713 8.17383 4.82609C8.17383 6.93918 9.88682 8.65217 11.9999 8.65217Z" stroke="#191919" stroke-linecap="round" stroke-linejoin="round"/>
<path d="M12 8.65222V23" stroke="#191919" stroke-linecap="round" stroke-linejoin="round"/>
</svg>
