<svg width="24" height="24" viewBox="0 0 24 24" fill="none" xmlns="http://www.w3.org/2000/svg">
<path d="M18.4165 9.70746C20.6947 9.70746 22.5415 7.86063 22.5415 5.58246C22.5415 3.30428 20.6947 1.45746 18.4165 1.45746C16.1383 1.45746 14.2915 3.30428 14.2915 5.58246C14.2915 7.86063 16.1383 9.70746 18.4165 9.70746Z" fill="#78EB7B"/>
<path d="M14.2915 5.58335C14.2909 6.08257 14.3812 6.57772 14.5583 7.04452C15.1707 7.50625 15.8998 7.78808 16.6636 7.85836C17.4273 7.92864 18.1955 7.78459 18.882 7.44238C19.5684 7.10017 20.1458 6.57335 20.5494 5.9211C20.9529 5.26886 21.1666 4.51701 21.1665 3.75002C21.1671 3.2508 21.0767 2.75565 20.8998 2.28885C20.2873 1.82711 19.5583 1.54528 18.7944 1.475C18.0307 1.40472 17.2625 1.54877 16.576 1.89098C15.8896 2.2332 15.3122 2.76001 14.9087 3.41226C14.5051 4.06451 14.2914 4.81635 14.2915 5.58335Z" fill="#C9F7CA"/>
<path d="M18.4165 9.70746C20.6947 9.70746 22.5415 7.86063 22.5415 5.58246C22.5415 3.30428 20.6947 1.45746 18.4165 1.45746C16.1383 1.45746 14.2915 3.30428 14.2915 5.58246C14.2915 7.86063 16.1383 9.70746 18.4165 9.70746Z" stroke="#191919" stroke-linecap="round" stroke-linejoin="round"/>
<path d="M15.5092 8.51855L1.4585 22.5408" stroke="#191919" stroke-linecap="round" stroke-linejoin="round"/>
</svg>
