<svg width="24" height="24" viewBox="0 0 24 24" fill="none" xmlns="http://www.w3.org/2000/svg">
<path d="M12.0001 23C15.4339 23 18.2175 22.1435 18.2175 21.087C18.2175 20.0304 15.4339 19.174 12.0001 19.174C8.56634 19.174 5.78271 20.0304 5.78271 21.087C5.78271 22.1435 8.56634 23 12.0001 23Z" fill="#FFBFC5"/>
<path d="M12.0001 1C12.8166 1 13.625 1.16082 14.3794 1.47327C15.1338 1.78573 15.8191 2.2437 16.3965 2.82104C16.9738 3.39837 17.4318 4.08377 17.7442 4.8381C18.0567 5.59242 18.2175 6.40091 18.2175 7.21739C18.2175 10.1262 13.7553 16.687 12.3913 18.6258C12.3472 18.6886 12.2886 18.7398 12.2205 18.7751C12.1524 18.8105 12.0768 18.829 12.0001 18.829C11.9234 18.829 11.8478 18.8105 11.7797 18.7751C11.7116 18.7398 11.653 18.6886 11.6089 18.6258C10.2449 16.687 5.78271 10.1262 5.78271 7.21739C5.78271 5.56843 6.43777 3.98702 7.60375 2.82104C8.76973 1.65505 10.3512 1 12.0001 1Z" fill="#FF808C"/>
<path d="M12.0001 18.8286C11.9234 18.8286 11.8478 18.8102 11.7797 18.7749C11.7116 18.7397 11.6531 18.6885 11.6089 18.6258C10.2449 16.687 5.78271 10.1262 5.78271 7.21739C5.78271 5.56843 6.43777 3.98702 7.60375 2.82104C8.76973 1.65505 10.3512 1 12.0001 1V18.8286Z" fill="#FFBFC5"/>
<path d="M12.0002 9.60866C13.3209 9.60866 14.3915 8.53803 14.3915 7.21735C14.3915 5.89668 13.3209 4.82605 12.0002 4.82605C10.6795 4.82605 9.60889 5.89668 9.60889 7.21735C9.60889 8.53803 10.6795 9.60866 12.0002 9.60866Z" fill="#E3E3E3"/>
<path d="M12.0002 9.60866C11.366 9.60866 10.7578 9.35672 10.3093 8.90826C9.86082 8.45981 9.60889 7.85157 9.60889 7.21735C9.60889 6.58314 9.86082 5.9749 10.3093 5.52644C10.7578 5.07799 11.366 4.82605 12.0002 4.82605V9.60866Z" fill="white"/>
<path d="M12.0001 1C12.8166 1 13.625 1.16082 14.3794 1.47327C15.1338 1.78573 15.8191 2.2437 16.3965 2.82104C16.9738 3.39837 17.4318 4.08377 17.7442 4.8381C18.0567 5.59242 18.2175 6.40091 18.2175 7.21739C18.2175 10.1262 13.7553 16.687 12.3913 18.6258C12.3472 18.6886 12.2886 18.7398 12.2205 18.7751C12.1524 18.8105 12.0768 18.829 12.0001 18.829C11.9234 18.829 11.8478 18.8105 11.7797 18.7751C11.7116 18.7398 11.653 18.6886 11.6089 18.6258C10.2449 16.687 5.78271 10.1262 5.78271 7.21739C5.78271 5.56843 6.43777 3.98702 7.60375 2.82104C8.76973 1.65505 10.3512 1 12.0001 1Z" stroke="#191919" stroke-linecap="round" stroke-linejoin="round"/>
<path d="M5.78271 19.174L18.2175 23" stroke="#191919" stroke-linecap="round" stroke-linejoin="round"/>
<path d="M18.2175 19.174L5.78271 23" stroke="#191919" stroke-linecap="round" stroke-linejoin="round"/>
<path d="M12.0002 9.60866C13.3209 9.60866 14.3915 8.53803 14.3915 7.21735C14.3915 5.89668 13.3209 4.82605 12.0002 4.82605C10.6795 4.82605 9.60889 5.89668 9.60889 7.21735C9.60889 8.53803 10.6795 9.60866 12.0002 9.60866Z" stroke="#191919" stroke-linecap="round" stroke-linejoin="round"/>
</svg>
