<svg width="24" height="24" viewBox="0 0 24 24" fill="none" xmlns="http://www.w3.org/2000/svg">
<path d="M12.5133 1C6.51103 1 3.48926 5.30301 3.48926 8.89088C3.48926 11.0644 4.31263 13.0027 6.07592 13.7169C6.33906 13.8554 6.66046 13.695 6.708 13.4014C6.76724 13.1805 6.90593 12.6212 6.96713 12.3868C7.06756 12.1378 6.99387 11.8523 6.78549 11.6831C6.21003 10.9894 5.91283 10.1068 5.95158 9.20643C5.91019 5.78233 8.74545 3.02213 12.1672 3.15536C15.5599 3.15536 17.4264 5.22844 17.4264 7.99674C17.4264 11.6381 15.8132 14.7134 13.4198 14.7134C12.1074 14.7795 11.1049 13.5577 11.4261 12.2835C11.8086 10.6819 12.542 8.95686 12.542 7.80173C12.6661 6.78364 11.8635 5.88999 10.838 5.90453C9.48684 5.90453 8.4015 7.30161 8.4015 9.1748C8.39291 9.86212 8.53043 10.5433 8.80499 11.1734L7.17942 18.0583C6.89344 19.6445 6.88046 21.268 7.14116 22.8586C7.16195 22.9864 7.31342 23.0438 7.41376 22.9619C7.42411 22.9535 7.43338 22.9438 7.44138 22.9332C8.43829 21.6991 9.21033 20.2992 9.72206 18.7974C9.87696 18.2342 10.6104 15.3244 10.6104 15.3244C11.3049 16.3391 12.467 16.932 13.6961 16.8984C17.7554 16.8936 20.5104 13.192 20.5104 8.23772C20.5104 4.49115 17.3375 1 12.5133 1Z" fill="#FF808C" stroke="#191919" stroke-linecap="round" stroke-linejoin="round"/>
</svg>
