<svg width="24" height="24" viewBox="0 0 24 24" fill="none" xmlns="http://www.w3.org/2000/svg">
<g clip-path="url(#clip0_5303_12915)">
<mask id="mask0_5303_12915" style="mask-type:luminance" maskUnits="userSpaceOnUse" x="0" y="0" width="24" height="24">
<path d="M0 0H24V24H0V0Z" fill="white"/>
</mask>
<g mask="url(#mask0_5303_12915)">
<path d="M5.78261 11.5217V23H2.91304C2.40614 22.9985 1.92043 22.7964 1.56199 22.438C1.20355 22.0796 1.00151 21.5939 1 21.0869V13.4348C1.00151 12.9279 1.20355 12.4422 1.56199 12.0837C1.92043 11.7253 2.40614 11.5232 2.91304 11.5217H5.78261Z" fill="#808080"/>
<path d="M23.0004 13.4348V21.0869C22.9989 21.5939 22.7968 22.0796 22.4384 22.438C22.08 22.7964 21.5942 22.9985 21.0873 23H18.2178V11.5217H21.0873C21.5942 11.5232 22.08 11.7253 22.4384 12.0837C22.7968 12.4422 22.9989 12.9279 23.0004 13.4348Z" fill="#808080"/>
<path d="M7.69722 11.5217H5.78418V23H18.219V11.5217H16.3059" fill="#FFBC44"/>
<path d="M5.78261 11.5217V13.913H2.91304C2.40614 13.9145 1.92043 14.1166 1.56199 14.475C1.20355 14.8335 1.00151 15.3192 1 15.8261V13.4348C1.00151 12.9279 1.20355 12.4422 1.56199 12.0837C1.92043 11.7253 2.40614 11.5232 2.91304 11.5217H5.78261Z" fill="#E3E3E3"/>
<path d="M23.0004 13.4348V15.8261C22.9989 15.3192 22.7968 14.8335 22.4384 14.475C22.08 14.1166 21.5942 13.9145 21.0873 13.913H18.2178V11.5217H21.0873C21.5942 11.5232 22.08 11.7253 22.4384 12.0837C22.7968 12.4422 22.9989 12.9279 23.0004 13.4348Z" fill="#E3E3E3"/>
<path d="M18.219 11.5217H5.78418V13.913H18.219V11.5217Z" fill="#FFDDA1"/>
<path d="M16.305 3.86963H7.69629V13.4348H16.305V3.86963Z" fill="#66E1FF"/>
<path d="M16.305 2.91317V3.86969H7.69629V2.91317C7.6978 2.40626 7.89984 1.92055 8.25828 1.56211C8.61672 1.20367 9.10243 1.00164 9.60933 1.00012H14.3919C14.8988 1.00164 15.3846 1.20367 15.743 1.56211C16.1014 1.92055 16.3035 2.40626 16.305 2.91317Z" fill="#E3E3E3"/>
<path d="M7.69629 13.4348H16.305V14.3913C16.3035 14.8982 16.1014 15.384 15.743 15.7424C15.3846 16.1008 14.8988 16.3029 14.3919 16.3044H9.60933C9.10243 16.3029 8.61672 16.1008 8.25828 15.7424C7.89984 15.384 7.6978 14.8982 7.69629 14.3913V13.4348Z" fill="#E3E3E3"/>
<path d="M20.6089 20.6087C20.8626 20.6087 21.1058 20.5079 21.2852 20.3286C21.4646 20.1492 21.5654 19.9059 21.5654 19.6522C21.5654 19.3985 21.4646 19.1552 21.2852 18.9758C21.1058 18.7965 20.8626 18.6957 20.6089 18.6957C20.3552 18.6957 20.1119 18.7965 19.9325 18.9758C19.7531 19.1552 19.6523 19.3985 19.6523 19.6522C19.6523 19.9059 19.7531 20.1492 19.9325 20.3286C20.1119 20.5079 20.3552 20.6087 20.6089 20.6087Z" fill="white"/>
<path d="M20.6089 15.8263C20.8626 15.8263 21.1058 15.7255 21.2852 15.5461C21.4646 15.3667 21.5654 15.1234 21.5654 14.8697C21.5654 14.616 21.4646 14.3727 21.2852 14.1934C21.1058 14.014 20.8626 13.9132 20.6089 13.9132C20.3552 13.9132 20.1119 14.014 19.9325 14.1934C19.7531 14.3727 19.6523 14.616 19.6523 14.8697C19.6523 15.1234 19.7531 15.3667 19.9325 15.5461C20.1119 15.7255 20.3552 15.8263 20.6089 15.8263Z" fill="white"/>
<path d="M3.39109 20.6087C3.64478 20.6087 3.88807 20.5079 4.06745 20.3286C4.24684 20.1492 4.34761 19.9059 4.34761 19.6522C4.34761 19.3985 4.24684 19.1552 4.06745 18.9758C3.88807 18.7965 3.64478 18.6957 3.39109 18.6957C3.13741 18.6957 2.89411 18.7965 2.71473 18.9758C2.53535 19.1552 2.43457 19.3985 2.43457 19.6522C2.43457 19.9059 2.53535 20.1492 2.71473 20.3286C2.89411 20.5079 3.13741 20.6087 3.39109 20.6087Z" fill="white"/>
<path d="M3.39109 15.8263C3.64478 15.8263 3.88807 15.7255 4.06745 15.5461C4.24684 15.3667 4.34761 15.1234 4.34761 14.8697C4.34761 14.616 4.24684 14.3727 4.06745 14.1934C3.88807 14.014 3.64478 13.9132 3.39109 13.9132C3.13741 13.9132 2.89411 14.014 2.71473 14.1934C2.53535 14.3727 2.43457 14.616 2.43457 14.8697C2.43457 15.1234 2.53535 15.3667 2.71473 15.5461C2.89411 15.7255 3.13741 15.8263 3.39109 15.8263Z" fill="white"/>
<path d="M7.69629 20.1304H10.5659" stroke="#191919" stroke-linecap="round" stroke-linejoin="round"/>
<path d="M13.4355 20.1304H16.285" stroke="#191919" stroke-linecap="round" stroke-linejoin="round"/>
<path d="M15.3427 3.86963H7.69629V11.5161L15.3427 3.86963Z" fill="#C2F3FF"/>
<path d="M16.305 3.86963H7.69629V13.4348H16.305V3.86963Z" stroke="#191919" stroke-linecap="round" stroke-linejoin="round"/>
<path d="M5.78261 11.5217V23H2.91304C2.40614 22.9985 1.92043 22.7964 1.56199 22.438C1.20355 22.0796 1.00151 21.5939 1 21.0869V13.4348C1.00151 12.9279 1.20355 12.4422 1.56199 12.0837C1.92043 11.7253 2.40614 11.5232 2.91304 11.5217H5.78261Z" stroke="#191919" stroke-linecap="round" stroke-linejoin="round"/>
<path d="M23.0004 13.4348V21.0869C22.9989 21.5939 22.7968 22.0796 22.4384 22.438C22.08 22.7964 21.5942 22.9985 21.0873 23H18.2178V11.5217H21.0873C21.5942 11.5232 22.08 11.7253 22.4384 12.0837C22.7968 12.4422 22.9989 12.9279 23.0004 13.4348Z" stroke="#191919" stroke-linecap="round" stroke-linejoin="round"/>
<path d="M7.69722 11.5217H5.78418V23H18.219V11.5217H16.3059" stroke="#191919" stroke-linecap="round" stroke-linejoin="round"/>
<path d="M16.305 2.91317V3.86969H7.69629V2.91317C7.6978 2.40626 7.89984 1.92055 8.25828 1.56211C8.61672 1.20367 9.10243 1.00164 9.60933 1.00012H14.3919C14.8988 1.00164 15.3846 1.20367 15.743 1.56211C16.1014 1.92055 16.3035 2.40626 16.305 2.91317Z" stroke="#191919" stroke-linecap="round" stroke-linejoin="round"/>
<path d="M7.69629 13.4348H16.305V14.3913C16.3035 14.8982 16.1014 15.384 15.743 15.7424C15.3846 16.1008 14.8988 16.3029 14.3919 16.3044H9.60933C9.10243 16.3029 8.61672 16.1008 8.25828 15.7424C7.89984 15.384 7.6978 14.8982 7.69629 14.3913V13.4348Z" stroke="#191919" stroke-linecap="round" stroke-linejoin="round"/>
<path d="M20.6089 20.6087C20.8626 20.6087 21.1058 20.5079 21.2852 20.3286C21.4646 20.1492 21.5654 19.9059 21.5654 19.6522C21.5654 19.3985 21.4646 19.1552 21.2852 18.9758C21.1058 18.7965 20.8626 18.6957 20.6089 18.6957C20.3552 18.6957 20.1119 18.7965 19.9325 18.9758C19.7531 19.1552 19.6523 19.3985 19.6523 19.6522C19.6523 19.9059 19.7531 20.1492 19.9325 20.3286C20.1119 20.5079 20.3552 20.6087 20.6089 20.6087Z" stroke="#191919" stroke-linecap="round" stroke-linejoin="round"/>
<path d="M20.6089 15.8263C20.8626 15.8263 21.1058 15.7255 21.2852 15.5461C21.4646 15.3667 21.5654 15.1234 21.5654 14.8697C21.5654 14.616 21.4646 14.3727 21.2852 14.1934C21.1058 14.014 20.8626 13.9132 20.6089 13.9132C20.3552 13.9132 20.1119 14.014 19.9325 14.1934C19.7531 14.3727 19.6523 14.616 19.6523 14.8697C19.6523 15.1234 19.7531 15.3667 19.9325 15.5461C20.1119 15.7255 20.3552 15.8263 20.6089 15.8263Z" stroke="#191919" stroke-linecap="round" stroke-linejoin="round"/>
<path d="M3.39109 20.6087C3.64478 20.6087 3.88807 20.5079 4.06745 20.3286C4.24684 20.1492 4.34761 19.9059 4.34761 19.6522C4.34761 19.3985 4.24684 19.1552 4.06745 18.9758C3.88807 18.7965 3.64478 18.6957 3.39109 18.6957C3.13741 18.6957 2.89411 18.7965 2.71473 18.9758C2.53535 19.1552 2.43457 19.3985 2.43457 19.6522C2.43457 19.9059 2.53535 20.1492 2.71473 20.3286C2.89411 20.5079 3.13741 20.6087 3.39109 20.6087Z" stroke="#191919" stroke-linecap="round" stroke-linejoin="round"/>
<path d="M3.39109 15.8263C3.64478 15.8263 3.88807 15.7255 4.06745 15.5461C4.24684 15.3667 4.34761 15.1234 4.34761 14.8697C4.34761 14.616 4.24684 14.3727 4.06745 14.1934C3.88807 14.014 3.64478 13.9132 3.39109 13.9132C3.13741 13.9132 2.89411 14.014 2.71473 14.1934C2.53535 14.3727 2.43457 14.616 2.43457 14.8697C2.43457 15.1234 2.53535 15.3667 2.71473 15.5461C2.89411 15.7255 3.13741 15.8263 3.39109 15.8263Z" stroke="#191919" stroke-linecap="round" stroke-linejoin="round"/>
</g>
</g>
<defs>
<clipPath id="clip0_5303_12915">
<rect width="24" height="24" fill="white"/>
</clipPath>
</defs>
</svg>
