<svg width="24" height="24" viewBox="0 0 24 24" fill="none" xmlns="http://www.w3.org/2000/svg">
<g clip-path="url(#clip0_5303_13069)">
<mask id="mask0_5303_13069" style="mask-type:luminance" maskUnits="userSpaceOnUse" x="0" y="0" width="24" height="24">
<path d="M0 0H24V24H0V0Z" fill="white"/>
</mask>
<g mask="url(#mask0_5303_13069)">
<path d="M17.6473 1H6.41957C5.89984 1 5.47852 1.42132 5.47852 1.94106V16.9979C5.47852 17.5176 5.89984 17.9389 6.41957 17.9389H17.6473C18.167 17.9389 18.5883 17.5176 18.5883 16.9979V1.94106C18.5883 1.42132 18.167 1 17.6473 1Z" fill="#C2F3FF"/>
<path d="M17.1763 21.1179C17.1763 21.4902 17.0659 21.854 16.8591 22.1635C16.6523 22.4731 16.3583 22.7143 16.0145 22.8568C15.6705 22.9992 15.2921 23.0365 14.927 22.9639C14.562 22.8913 14.2266 22.712 13.9634 22.4488C13.7002 22.1856 13.5209 21.8502 13.4482 21.4851C13.3757 21.12 13.4129 20.7416 13.5553 20.3977C13.6978 20.0538 13.9391 19.7598 14.2486 19.5531C14.5581 19.3462 14.9219 19.2358 15.2942 19.2358H17.1763V21.1179Z" fill="#808080"/>
<path d="M22.8228 18.2947C22.8228 18.667 22.7124 19.0308 22.5056 19.3403C22.2988 19.6498 22.0048 19.8911 21.661 20.0336C21.317 20.176 20.9386 20.2132 20.5735 20.1407C20.2085 20.068 19.8731 19.8888 19.6098 19.6255C19.3466 19.3623 19.1674 19.0269 19.0947 18.6619C19.0222 18.2968 19.0594 17.9184 19.2018 17.5744C19.3443 17.2306 19.5856 16.9366 19.8951 16.7298C20.2046 16.523 20.5684 16.4126 20.9407 16.4126H22.8228V18.2947Z" fill="#808080"/>
<path d="M17.1768 19.2357V15.0339C17.1768 14.8791 17.215 14.7266 17.288 14.59C17.361 14.4534 17.4667 14.337 17.5955 14.251L21.3597 11.7412C21.5016 11.6466 21.6663 11.5923 21.8366 11.5841C22.0068 11.5758 22.1761 11.614 22.3264 11.6945C22.4767 11.775 22.6022 11.8948 22.6897 12.0411C22.7772 12.1873 22.8233 12.3547 22.8231 12.5251V16.4126" stroke="#191919" stroke-linecap="round" stroke-linejoin="round"/>
<path d="M5.88379 2.29688H18.1175" stroke="#191919" stroke-linecap="round" stroke-linejoin="round"/>
<path d="M2.11879 3.23795C2.63851 3.23795 3.05984 2.81662 3.05984 2.2969C3.05984 1.77717 2.63851 1.35583 2.11879 1.35583C1.59906 1.35583 1.17773 1.77717 1.17773 2.2969C1.17773 2.81662 1.59906 3.23795 2.11879 3.23795Z" fill="#FFEF5E"/>
<path d="M5.88379 7.0022H18.1175" stroke="#191919" stroke-linecap="round" stroke-linejoin="round"/>
<path d="M5.88379 11.7073H17.1764" stroke="#191919" stroke-linecap="round" stroke-linejoin="round"/>
<path d="M2.11879 7.94314C2.63851 7.94314 3.05984 7.52181 3.05984 7.00209C3.05984 6.48236 2.63851 6.06104 2.11879 6.06104C1.59906 6.06104 1.17773 6.48236 1.17773 7.00209C1.17773 7.52181 1.59906 7.94314 2.11879 7.94314Z" fill="#FFEF5E"/>
<path d="M2.11879 12.6485C2.63851 12.6485 3.05984 12.2272 3.05984 11.7074C3.05984 11.1877 2.63851 10.7664 2.11879 10.7664C1.59906 10.7664 1.17773 11.1877 1.17773 11.7074C1.17773 12.2272 1.59906 12.6485 2.11879 12.6485Z" fill="#FFEF5E"/>
<path d="M5.88379 16.4126H14.3533" stroke="#191919" stroke-linecap="round" stroke-linejoin="round"/>
<path d="M2.11879 17.3538C2.63851 17.3538 3.05984 16.9325 3.05984 16.4127C3.05984 15.893 2.63851 15.4717 2.11879 15.4717C1.59906 15.4717 1.17773 15.893 1.17773 16.4127C1.17773 16.9325 1.59906 17.3538 2.11879 17.3538Z" fill="#FFEF5E"/>
<path d="M17.1763 21.1179C17.1763 21.4902 17.0659 21.854 16.8591 22.1635C16.6523 22.4731 16.3583 22.7143 16.0145 22.8568C15.6705 22.9992 15.2921 23.0365 14.927 22.9639C14.562 22.8913 14.2266 22.712 13.9634 22.4488C13.7002 22.1856 13.5209 21.8502 13.4482 21.4851C13.3757 21.12 13.4129 20.7416 13.5553 20.3977C13.6978 20.0538 13.9391 19.7598 14.2486 19.5531C14.5581 19.3462 14.9219 19.2358 15.2942 19.2358H17.1763V21.1179Z" stroke="#191919" stroke-linecap="round" stroke-linejoin="round"/>
<path d="M22.8228 18.2947C22.8228 18.667 22.7124 19.0308 22.5056 19.3403C22.2988 19.6498 22.0048 19.8911 21.661 20.0336C21.317 20.176 20.9386 20.2132 20.5735 20.1407C20.2085 20.068 19.8731 19.8888 19.6098 19.6255C19.3466 19.3623 19.1674 19.0269 19.0947 18.6619C19.0222 18.2968 19.0594 17.9184 19.2018 17.5744C19.3443 17.2306 19.5856 16.9366 19.8951 16.7298C20.2046 16.523 20.5684 16.4126 20.9407 16.4126H22.8228V18.2947Z" stroke="#191919" stroke-linecap="round" stroke-linejoin="round"/>
<path d="M2.11879 3.23795C2.63851 3.23795 3.05984 2.81662 3.05984 2.2969C3.05984 1.77717 2.63851 1.35583 2.11879 1.35583C1.59906 1.35583 1.17773 1.77717 1.17773 2.2969C1.17773 2.81662 1.59906 3.23795 2.11879 3.23795Z" stroke="#191919" stroke-linecap="round" stroke-linejoin="round"/>
<path d="M2.11879 7.94314C2.63851 7.94314 3.05984 7.52181 3.05984 7.00209C3.05984 6.48236 2.63851 6.06104 2.11879 6.06104C1.59906 6.06104 1.17773 6.48236 1.17773 7.00209C1.17773 7.52181 1.59906 7.94314 2.11879 7.94314Z" stroke="#191919" stroke-linecap="round" stroke-linejoin="round"/>
<path d="M2.11879 12.6485C2.63851 12.6485 3.05984 12.2272 3.05984 11.7074C3.05984 11.1877 2.63851 10.7664 2.11879 10.7664C1.59906 10.7664 1.17773 11.1877 1.17773 11.7074C1.17773 12.2272 1.59906 12.6485 2.11879 12.6485Z" stroke="#191919" stroke-linecap="round" stroke-linejoin="round"/>
<path d="M2.11879 17.3538C2.63851 17.3538 3.05984 16.9325 3.05984 16.4127C3.05984 15.893 2.63851 15.4717 2.11879 15.4717C1.59906 15.4717 1.17773 15.893 1.17773 16.4127C1.17773 16.9325 1.59906 17.3538 2.11879 17.3538Z" stroke="#191919" stroke-linecap="round" stroke-linejoin="round"/>
</g>
</g>
<defs>
<clipPath id="clip0_5303_13069">
<rect width="24" height="24" fill="white"/>
</clipPath>
</defs>
</svg>
