<svg width="24" height="24" viewBox="0 0 24 24" fill="none" xmlns="http://www.w3.org/2000/svg">
<g clip-path="url(#clip0_5303_13191)">
<mask id="mask0_5303_13191" style="mask-type:luminance" maskUnits="userSpaceOnUse" x="0" y="0" width="24" height="24">
<path d="M0 0H24V24H0V0Z" fill="white"/>
</mask>
<g mask="url(#mask0_5303_13191)">
<path d="M17.2604 1.00037H1.9565C1.42824 1.00037 1 1.4286 1 1.95686V17.2608C1 17.7891 1.42824 18.2173 1.9565 18.2173H17.2604C17.7887 18.2173 18.2169 17.7891 18.2169 17.2608V1.95686C18.2169 1.4286 17.7887 1.00037 17.2604 1.00037Z" fill="#66E1FF"/>
<path d="M17.2604 1.00037H1.9565C1.70281 1.00037 1.45953 1.10114 1.28015 1.28052C1.10077 1.4599 1 1.70318 1 1.95686V17.2608C1.00261 17.4936 1.09079 17.7173 1.24773 17.8892L17.8908 1.24619C17.7181 1.08934 17.4936 1.0018 17.2604 1.00037Z" fill="#C2F3FF"/>
<path d="M18.2169 11.5218V1.95686C18.2169 1.70318 18.1161 1.4599 17.9368 1.28052C17.7574 1.10114 17.5141 1.00037 17.2604 1.00037H1.9565C1.70281 1.00037 1.45953 1.10114 1.28015 1.28052C1.10077 1.4599 1 1.70318 1 1.95686V17.2608C1 17.5145 1.10077 17.7578 1.28015 17.9371C1.45953 18.1165 1.70281 18.2173 1.9565 18.2173H11.5215" stroke="#191919" stroke-linecap="round" stroke-linejoin="round"/>
<path d="M12.0002 13.4348C12.7925 13.4348 13.4349 12.7924 13.4349 12.0001C13.4349 11.2077 12.7925 10.5653 12.0002 10.5653C11.2078 10.5653 10.5654 11.2077 10.5654 12.0001C10.5654 12.7924 11.2078 13.4348 12.0002 13.4348Z" fill="#808080"/>
<path d="M5.30389 14.3912C6.09628 14.3912 6.73863 13.7488 6.73863 12.9565C6.73863 12.1641 6.09628 11.5217 5.30389 11.5217C4.51149 11.5217 3.86914 12.1641 3.86914 12.9565C3.86914 13.7488 4.51149 14.3912 5.30389 14.3912Z" fill="#808080"/>
<path d="M6.73926 12.9565V7.46049C6.73935 7.25274 6.80707 7.05068 6.93218 6.88485C7.05729 6.71901 7.23299 6.59841 7.43272 6.54129L12.2152 5.17446C12.3576 5.13372 12.5075 5.12661 12.6532 5.1537C12.7988 5.18079 12.9361 5.24132 13.0543 5.33053C13.1726 5.41974 13.2685 5.53519 13.3345 5.66778C13.4005 5.80038 13.4348 5.94649 13.4347 6.09461V12" stroke="#191919" stroke-linecap="round" stroke-linejoin="round"/>
<path d="M18.2171 22.9997C20.8583 22.9997 22.9995 20.8584 22.9995 18.2172C22.9995 15.5759 20.8583 13.4347 18.2171 13.4347C15.5758 13.4347 13.4346 15.5759 13.4346 18.2172C13.4346 20.8584 15.5758 22.9997 18.2171 22.9997Z" fill="#78EB7B"/>
<path d="M14.8356 21.5993C13.9385 20.7023 13.4346 19.4857 13.4346 18.2171C13.4346 17.5891 13.5583 16.9671 13.7987 16.3868C14.0391 15.8065 14.3914 15.2792 14.8356 14.835C15.2797 14.3909 15.807 14.0385 16.3873 13.7981C16.9676 13.5578 17.5896 13.4341 18.2177 13.4341C19.4863 13.4341 20.7029 13.938 21.5999 14.835L14.8356 21.5993Z" fill="#C9F7CA"/>
<path d="M18.2171 22.9997C20.8583 22.9997 22.9995 20.8584 22.9995 18.2172C22.9995 15.5759 20.8583 13.4347 18.2171 13.4347C15.5758 13.4347 13.4346 15.5759 13.4346 18.2172C13.4346 20.8584 15.5758 22.9997 18.2171 22.9997Z" stroke="#191919" stroke-linecap="round" stroke-linejoin="round"/>
<path d="M18.2168 20.1302V16.3042" stroke="#191919" stroke-linecap="round" stroke-linejoin="round"/>
<path d="M16.3047 18.2173L18.2177 20.1303L20.1307 18.2173" stroke="#191919" stroke-linecap="round" stroke-linejoin="round"/>
<path d="M12.0002 13.4348C12.7925 13.4348 13.4349 12.7924 13.4349 12.0001C13.4349 11.2077 12.7925 10.5653 12.0002 10.5653C11.2078 10.5653 10.5654 11.2077 10.5654 12.0001C10.5654 12.7924 11.2078 13.4348 12.0002 13.4348Z" stroke="#191919" stroke-linecap="round" stroke-linejoin="round"/>
<path d="M5.30389 14.3912C6.09628 14.3912 6.73863 13.7488 6.73863 12.9565C6.73863 12.1641 6.09628 11.5217 5.30389 11.5217C4.51149 11.5217 3.86914 12.1641 3.86914 12.9565C3.86914 13.7488 4.51149 14.3912 5.30389 14.3912Z" stroke="#191919" stroke-linecap="round" stroke-linejoin="round"/>
</g>
</g>
<defs>
<clipPath id="clip0_5303_13191">
<rect width="24" height="24" fill="white"/>
</clipPath>
</defs>
</svg>
