<svg width="24" height="24" viewBox="0 0 24 24" fill="none" xmlns="http://www.w3.org/2000/svg">
<g clip-path="url(#clip0_5303_2530)">
<path d="M11.9968 20.1129C15.8373 20.1129 18.9506 16.9997 18.9506 13.1591C18.9506 9.3186 15.8373 6.2055 11.9968 6.2055C8.15641 6.2055 5.04321 9.3187 5.04321 13.1591C5.04321 16.9995 8.15641 20.1129 11.9968 20.1129Z" fill="#FFEF5E"/>
<path d="M15.8605 3.8875C18.0023 4.7792 19.7691 6.3846 20.8614 8.4313C21.9535 10.4779 22.3037 12.8394 21.8521 15.115C21.4007 17.3904 20.1755 19.4394 18.3847 20.9141C16.5938 22.3887 14.3477 23.198 12.028 23.2044C9.7082 23.211 7.4576 22.4143 5.6586 20.9494C3.8596 19.4849 2.623 17.4427 2.1589 15.1699C1.6948 12.8969 2.0317 10.5334 3.1125 8.4807C4.1933 6.428 5.9512 4.8127 8.0879 3.9091" stroke="#191919" stroke-linecap="round" stroke-linejoin="round"/>
<path d="M11.9971 0.795502V10.8398" stroke="#191919" stroke-linecap="round" stroke-linejoin="round"/>
</g>
<defs>
<clipPath id="clip0_5303_2530">
<rect width="24" height="24" fill="white"/>
</clipPath>
</defs>
</svg>
