<svg width="24" height="24" viewBox="0 0 24 24" fill="none" xmlns="http://www.w3.org/2000/svg">
<g clip-path="url(#clip0_5303_7677)">
<path d="M22.9998 11.5217C20.2092 11.5217 17.533 10.4132 15.5597 8.43999C13.5865 6.46678 12.478 3.79054 12.478 1H22.9998V11.5217Z" fill="#FF808C"/>
<path d="M23.0001 6.26087C21.6048 6.26087 20.2668 5.7066 19.2801 4.72C18.2936 3.73339 17.7393 2.39527 17.7393 1H23.0001V6.26087Z" fill="#FFBC44"/>
<path d="M23.0001 6.26087C21.6048 6.26087 20.2668 5.7066 19.2801 4.72C18.2936 3.73339 17.7393 2.39527 17.7393 1" stroke="#191919" stroke-linecap="round" stroke-linejoin="round"/>
<path d="M13.3867 12.5261C13.1121 12.8772 12.7124 13.1085 12.2712 13.1716C11.8299 13.2348 11.3813 13.1248 11.0194 12.8647C10.758 12.5032 10.6472 12.0544 10.7101 11.6128C10.7731 11.1713 11.005 10.7713 11.357 10.4973C11.6317 10.1464 12.0314 9.91523 12.4726 9.85213C12.9138 9.78903 13.3623 9.89888 13.7244 10.1587C13.9857 10.5202 14.0966 10.969 14.0336 11.4106C13.9706 11.8522 13.7387 12.252 13.3867 12.5261Z" fill="#E3E3E3" stroke="#191919" stroke-linecap="round" stroke-linejoin="round"/>
<path d="M11.0199 12.8609C10.1645 12.8815 9.34999 13.231 8.74558 13.8367C8.14118 14.4424 7.79337 15.2576 7.77443 16.113C7.67017 19.2504 4.02295 18.8487 4.02295 18.8487" stroke="#191919" stroke-linecap="round" stroke-linejoin="round"/>
<path d="M6.18606 10.2266C5.91148 10.5777 5.51173 10.809 5.07048 10.8722C4.62923 10.9353 4.18067 10.8253 3.81867 10.5652C3.55731 10.2037 3.44646 9.75491 3.50944 9.31331C3.57243 8.87172 3.80434 8.4718 4.15632 8.1978C4.43032 7.84582 4.83023 7.61391 5.27183 7.55092C5.71343 7.48794 6.16223 7.59879 6.52371 7.86014C6.78477 8.22156 6.89546 8.67015 6.83248 9.11151C6.76951 9.55287 6.53778 9.9526 6.18606 10.2266Z" fill="#E3E3E3" stroke="#191919" stroke-linecap="round" stroke-linejoin="round"/>
<path d="M3.81887 10.5652C2.66786 10.9052 1.67116 11.6354 1 12.6303" stroke="#191919" stroke-linecap="round" stroke-linejoin="round"/>
<path d="M13.241 20.8401C13.8947 20.1864 13.9704 19.2022 13.41 18.6419C12.8498 18.0816 11.8656 18.1573 11.2119 18.811C10.5582 19.4647 10.4825 20.4489 11.0428 21.0092C11.6032 21.5695 12.5872 21.4938 13.241 20.8401Z" fill="#E3E3E3" stroke="#191919" stroke-linecap="round" stroke-linejoin="round"/>
<path d="M11.0436 21.0095C10.8909 21.7682 10.5109 22.4624 9.9541 23" stroke="#191919" stroke-linecap="round" stroke-linejoin="round"/>
<path d="M12.478 1C12.478 3.79054 13.5865 6.46678 15.5597 8.43999C17.533 10.4132 20.2092 11.5217 22.9998 11.5217" stroke="#191919" stroke-linecap="round" stroke-linejoin="round"/>
</g>
<defs>
<clipPath id="clip0_5303_7677">
<rect width="24" height="24" fill="white"/>
</clipPath>
</defs>
</svg>
