<svg width="24" height="24" viewBox="0 0 24 24" fill="none" xmlns="http://www.w3.org/2000/svg">
<g clip-path="url(#clip0_5303_7984)">
<path d="M18.2546 21.0766C15.9953 21.0766 14.792 19.8771 14.792 19.1884C14.792 18.4997 15.9953 17.3002 18.2546 17.3002C19.5134 17.3002 21.0869 17.9095 21.0869 19.1884C21.0869 20.4673 19.5565 21.0766 18.2546 21.0766Z" fill="white"/>
<path d="M13.4719 14.3818C11.2126 14.3818 10.0093 13.1813 10.0093 12.4936C10.0093 11.8058 11.2126 10.6044 13.4719 10.6044C14.7307 10.6044 16.3042 11.2147 16.3042 12.4936C16.3042 13.7725 14.7738 14.3818 13.4719 14.3818Z" fill="white"/>
<path d="M18.69 8.66263C15.2522 8.66263 13.4224 6.83661 13.4224 5.79303C13.4224 4.74945 15.2522 2.92343 18.69 2.92343C20.6031 2.92343 23.0001 3.85127 23.0001 5.79303C23.0001 7.73479 20.6652 8.66263 18.69 8.66263Z" fill="white"/>
<path d="M22.0842 3.98044V3.99957C22.0842 5.94516 19.7493 6.86917 17.774 6.86917C16.2272 6.93642 14.7053 6.46293 13.4696 5.53002C13.4431 5.61367 13.4258 5.69994 13.418 5.78733C13.418 6.83952 15.2478 8.65693 18.6856 8.65693C20.6608 8.65693 22.9957 7.72909 22.9957 5.78733C22.9919 5.43651 22.9078 5.09123 22.7498 4.77801C22.5918 4.46478 22.364 4.19194 22.0842 3.98044Z" fill="#E3E3E3"/>
<path d="M18.69 8.66263C15.2522 8.66263 13.4224 6.83661 13.4224 5.79303C13.4224 4.74945 15.2522 2.92343 18.69 2.92343C20.6031 2.92343 23.0001 3.85127 23.0001 5.79303C23.0001 7.73479 20.6652 8.66263 18.69 8.66263Z" stroke="#191919" stroke-linecap="round" stroke-linejoin="round"/>
<path d="M13.4225 5.78921C10.8179 5.78921 10.9173 3.91345 8.67235 3.91345C6.42737 3.91345 6.23893 8.21785 3.90404 8.21785C2.2148 8.21307 1.90488 6.69314 1 5.85235" stroke="#191919" stroke-linecap="round" stroke-linejoin="round"/>
<path d="M20.448 17.9764C20.4298 19.24 18.9089 19.8445 17.6185 19.8445C16.62 19.8846 15.6374 19.5848 14.8312 18.9942C14.8103 19.056 14.7971 19.1203 14.792 19.1855C14.792 19.8742 15.9953 21.0737 18.2546 21.0737C19.5527 21.0737 21.0869 20.4644 21.0869 19.1855C21.0823 18.9481 21.0222 18.7149 20.9112 18.505C20.8003 18.295 20.6416 18.114 20.448 17.9764Z" fill="#E3E3E3"/>
<path d="M18.2546 21.0766C15.9953 21.0766 14.792 19.8771 14.792 19.1884C14.792 18.4997 15.9953 17.3002 18.2546 17.3002C19.5134 17.3002 21.0869 17.9095 21.0869 19.1884C21.0869 20.4673 19.5565 21.0766 18.2546 21.0766Z" stroke="#191919" stroke-linecap="round" stroke-linejoin="round"/>
<path d="M14.7924 19.1883C13.0821 19.1883 13.1481 17.9554 11.6722 17.9554C10.1962 17.9554 10.0728 20.781 8.53856 20.781C7.42706 20.781 7.22332 19.7823 6.62549 19.2304" stroke="#191919" stroke-linecap="round" stroke-linejoin="round"/>
<path d="M15.7188 11.3189C15.67 12.5557 14.1721 13.1488 12.8951 13.1488C11.8738 13.1927 10.8694 12.8776 10.0561 12.2583C10.0291 12.3339 10.0133 12.4132 10.0093 12.4936C10.0093 13.1823 11.2126 14.3818 13.4719 14.3818C14.7699 14.3818 16.3042 13.7715 16.3042 12.4936C16.3019 12.2662 16.2481 12.0424 16.1467 11.8389C16.0452 11.6355 15.8989 11.4576 15.7188 11.3189Z" fill="#E3E3E3"/>
<path d="M13.4719 14.3818C11.2126 14.3818 10.0093 13.1813 10.0093 12.4936C10.0093 11.8058 11.2126 10.6044 13.4719 10.6044C14.7307 10.6044 16.3042 11.2147 16.3042 12.4936C16.3042 13.7725 14.7738 14.3818 13.4719 14.3818Z" stroke="#191919" stroke-linecap="round" stroke-linejoin="round"/>
<path d="M10.0097 12.4936C8.29937 12.4936 8.36538 11.2606 6.88944 11.2606C5.41351 11.2606 5.29012 14.0862 3.75584 14.0862C2.64435 14.0862 2.44061 13.0876 1.84277 12.5356" stroke="#191919" stroke-linecap="round" stroke-linejoin="round"/>
</g>
<defs>
<clipPath id="clip0_5303_7984">
<rect width="24" height="24" fill="white"/>
</clipPath>
</defs>
</svg>
