<svg width="24" height="24" viewBox="0 0 24 24" fill="none" xmlns="http://www.w3.org/2000/svg">
<g clip-path="url(#clip0_5303_10280)">
<path d="M1 1.95652C1 1.70283 1.10078 1.45954 1.28016 1.28016C1.45954 1.10078 1.70283 1 1.95652 1H22.0435C22.2971 1 22.5405 1.10078 22.7198 1.28016C22.8992 1.45954 23 1.70283 23 1.95652V14.3913C23 14.645 22.8992 14.8883 22.7198 15.0676C22.5405 15.247 22.2971 15.3478 22.0435 15.3478H1.95652C1.70283 15.3478 1.45954 15.247 1.28016 15.0676C1.10078 14.8883 1 14.645 1 14.3913V1.95652Z" fill="#E3E3E3"/>
<path d="M1.95652 1C1.70283 1 1.45954 1.10078 1.28016 1.28016C1.10078 1.45954 1 1.70283 1 1.95652V14.3913C1.00151 14.5602 1.04839 14.7255 1.13572 14.8701C1.22306 15.0147 1.34764 15.1331 1.49643 15.2129L15.7103 1H1.95652Z" fill="white"/>
<path d="M1 1.95652C1 1.70283 1.10078 1.45954 1.28016 1.28016C1.45954 1.10078 1.70283 1 1.95652 1H22.0435C22.2971 1 22.5405 1.10078 22.7198 1.28016C22.8992 1.45954 23 1.70283 23 1.95652V14.3913C23 14.645 22.8992 14.8883 22.7198 15.0676C22.5405 15.247 22.2971 15.3478 22.0435 15.3478H1.95652C1.70283 15.3478 1.45954 15.247 1.28016 15.0676C1.10078 14.8883 1 14.645 1 14.3913V1.95652Z" stroke="#191919" stroke-linecap="round" stroke-linejoin="round"/>
<path d="M11.521 15.3478V18.6143" stroke="#191919" stroke-linecap="round" stroke-linejoin="round"/>
<path d="M6.73926 23L10.8523 18.8869C11.0316 18.7076 11.2749 18.6069 11.5286 18.6069C11.7822 18.6069 12.0255 18.7076 12.2048 18.8869L16.3045 23" stroke="#191919" stroke-linecap="round" stroke-linejoin="round"/>
<path d="M1 8.65219H6.42347C6.51681 8.65252 6.60821 8.62553 6.68639 8.57453C6.76458 8.52354 6.82614 8.45079 6.86347 8.36524L7.71095 6.38524C7.74836 6.29759 7.81111 6.22312 7.89113 6.17137C7.97116 6.11962 8.06482 6.09296 8.1601 6.09481C8.25538 6.09667 8.34794 6.12694 8.4259 6.18175C8.50386 6.23657 8.56367 6.31342 8.59764 6.40246L10.195 10.5566C10.2277 10.6419 10.2842 10.7161 10.3577 10.7703C10.4313 10.8245 10.5188 10.8566 10.61 10.8626C10.7011 10.8686 10.7921 10.8485 10.8722 10.8044C10.9522 10.7604 11.0179 10.6943 11.0616 10.614L13.0445 6.97924C13.0845 6.90588 13.1429 6.84427 13.2141 6.80054C13.2853 6.7568 13.3667 6.73247 13.4501 6.72995C13.5336 6.72743 13.6163 6.74683 13.69 6.7862C13.7636 6.82557 13.8257 6.88356 13.87 6.95437L15.3545 9.33132C15.4002 9.40485 15.4652 9.46458 15.5422 9.50412C15.6193 9.54365 15.7055 9.56153 15.792 9.55584C15.8784 9.55014 15.9617 9.52109 16.0329 9.47177C16.104 9.42246 16.1606 9.35474 16.1962 9.27585L18.2174 4.82611" stroke="#191919" stroke-linecap="round" stroke-linejoin="round"/>
</g>
<defs>
<clipPath id="clip0_5303_10280">
<rect width="24" height="24" fill="white"/>
</clipPath>
</defs>
</svg>
