<svg width="24" height="24" viewBox="0 0 24 24" fill="none" xmlns="http://www.w3.org/2000/svg">
<g clip-path="url(#clip0_5303_9956)">
<path d="M20.1304 9.36963H22.0435C22.2972 9.36963 22.5405 9.47041 22.7198 9.64979C22.8992 9.82917 23 10.0725 23 10.3262V17.0218C23 17.2755 22.8992 17.5188 22.7198 17.6982C22.5405 17.8775 22.2972 17.9783 22.0435 17.9783H1.95652C1.70284 17.9783 1.45954 17.8775 1.28016 17.6982C1.10078 17.5188 1 17.2755 1 17.0218V10.3262C1 10.2005 1.02474 10.0762 1.07281 9.96011C1.12088 9.84406 1.19134 9.73861 1.28016 9.64979C1.36898 9.56097 1.47443 9.49051 1.59048 9.44244C1.70653 9.39437 1.83091 9.36963 1.95652 9.36963H9.6087" fill="#E3E3E3"/>
<path d="M22.0435 15.9906H1.95652C1.70284 15.9906 1.45954 15.8898 1.28016 15.7104C1.10078 15.531 1 15.2877 1 15.0341V17.0217C1 17.2754 1.10078 17.5187 1.28016 17.6981C1.45954 17.8775 1.70284 17.9782 1.95652 17.9782H22.0435C22.2972 17.9782 22.5405 17.8775 22.7198 17.6981C22.8992 17.5187 23 17.2754 23 17.0217V15.0341C23 15.2877 22.8992 15.531 22.7198 15.7104C22.5405 15.8898 22.2972 15.9906 22.0435 15.9906Z" fill="#B2B2B2"/>
<path d="M20.1304 9.36963H22.0435C22.2972 9.36963 22.5405 9.47041 22.7198 9.64979C22.8992 9.82917 23 10.0725 23 10.3262V17.0218C23 17.2755 22.8992 17.5188 22.7198 17.6982C22.5405 17.8775 22.2972 17.9783 22.0435 17.9783H1.95652C1.70284 17.9783 1.45954 17.8775 1.28016 17.6982C1.10078 17.5188 1 17.2755 1 17.0218V10.3262C1 10.2005 1.02474 10.0762 1.07281 9.96011C1.12088 9.84406 1.19134 9.73861 1.28016 9.64979C1.36898 9.56097 1.47443 9.49051 1.59048 9.44244C1.70653 9.39437 1.83091 9.36963 1.95652 9.36963H9.6087" stroke="#191919" stroke-linecap="round" stroke-linejoin="round"/>
<path d="M14.8698 14.6304C16.265 14.6304 17.6031 14.0762 18.5898 13.0896C19.5764 12.103 20.1306 10.7648 20.1306 9.36957C20.1306 7.9743 19.5764 6.63618 18.5898 5.64958C17.6031 4.66297 16.265 4.1087 14.8698 4.1087C13.4745 4.1087 12.1364 4.66297 11.1498 5.64958C10.1632 6.63618 9.60889 7.9743 9.60889 9.36957C9.60889 10.7648 10.1632 12.103 11.1498 13.0896C12.1364 14.0762 13.4745 14.6304 14.8698 14.6304Z" fill="#66E1FF"/>
<path d="M14.8695 4.1087C13.8231 4.10973 12.8007 4.42281 11.9331 5.00791C11.0655 5.593 10.3922 6.42354 9.99907 7.39333C9.60598 8.36312 9.51103 9.42811 9.72636 10.4522C9.9417 11.4762 10.4575 12.4128 11.2079 13.1421L18.642 5.70802C18.1528 5.20172 17.5667 4.79917 16.9185 4.52439C16.2704 4.24962 15.5735 4.10823 14.8695 4.1087Z" fill="#C2F3FF"/>
<path d="M14.8698 14.6304C16.265 14.6304 17.6031 14.0762 18.5898 13.0896C19.5764 12.103 20.1306 10.7648 20.1306 9.36957C20.1306 7.9743 19.5764 6.63618 18.5898 5.64958C17.6031 4.66297 16.265 4.1087 14.8698 4.1087C13.4745 4.1087 12.1364 4.66297 11.1498 5.64958C10.1632 6.63618 9.60889 7.9743 9.60889 9.36957C9.60889 10.7648 10.1632 12.103 11.1498 13.0896C12.1364 14.0762 13.4745 14.6304 14.8698 14.6304Z" stroke="#191919" stroke-linecap="round" stroke-linejoin="round"/>
<path d="M2.9126 17.9783V19.8914" stroke="#191919" stroke-linecap="round" stroke-linejoin="round"/>
<path d="M21.0869 17.9783V19.8914" stroke="#191919" stroke-linecap="round" stroke-linejoin="round"/>
<path d="M2.9126 11.2826V14.6304" stroke="#191919" stroke-linecap="round" stroke-linejoin="round"/>
<path d="M4.82568 11.2826V14.6304" stroke="#191919" stroke-linecap="round" stroke-linejoin="round"/>
<path d="M6.73926 11.2826V14.6304" stroke="#191919" stroke-linecap="round" stroke-linejoin="round"/>
<path d="M12.478 9.36958C12.478 8.73536 12.73 8.12712 13.1784 7.67867C13.6269 7.23021 14.2351 6.97827 14.8693 6.97827" stroke="#191919" stroke-linecap="round" stroke-linejoin="round"/>
</g>
<defs>
<clipPath id="clip0_5303_9956">
<rect width="24" height="24" fill="white"/>
</clipPath>
</defs>
</svg>
