<svg width="24" height="24" viewBox="0 0 24 24" fill="none" xmlns="http://www.w3.org/2000/svg">
<path d="M12 9.60864V11.5217" stroke="#191919" stroke-linecap="round" stroke-linejoin="round"/>
<path d="M14.87 3.86956V6.73911H9.13086V3.86956C9.13086 3.1085 9.43319 2.37862 9.97133 1.84047C10.5095 1.30233 11.2394 1 12.0004 1C12.7614 1 13.4913 1.30233 14.0295 1.84047C14.5676 2.37862 14.87 3.1085 14.87 3.86956Z" fill="#E3E3E3"/>
<path d="M12.0004 1C11.2394 1 10.5095 1.30233 9.97133 1.84047C9.43319 2.37862 9.13086 3.1085 9.13086 3.86956V6.10781C9.13086 5.34676 9.43319 4.61687 9.97133 4.07873C10.5095 3.54058 11.2394 3.23825 12.0004 3.23825C12.7614 3.23825 13.4913 3.54058 14.0295 4.07873C14.5676 4.61687 14.87 5.34676 14.87 6.10781V3.86956C14.87 3.1085 14.5676 2.37862 14.0295 1.84047C13.4913 1.30233 12.7614 1 12.0004 1Z" fill="white"/>
<path d="M14.87 3.86956V6.73911H9.13086V3.86956C9.13086 3.1085 9.43319 2.37862 9.97133 1.84047C10.5095 1.30233 11.2394 1 12.0004 1C12.7614 1 13.4913 1.30233 14.0295 1.84047C14.5676 2.37862 14.87 3.1085 14.87 3.86956Z" stroke="#191919" stroke-linecap="round" stroke-linejoin="round"/>
<path d="M14.87 6.73914C14.87 7.50019 14.5676 8.23007 14.0295 8.76822C13.4913 9.30637 12.7614 9.60869 12.0004 9.60869C11.2394 9.60869 10.5095 9.30637 9.97133 8.76822C9.43319 8.23007 9.13086 7.50019 9.13086 6.73914H14.87Z" fill="#808080" stroke="#191919" stroke-linecap="round" stroke-linejoin="round"/>
<path d="M10.087 16.3044H7.21748C6.92918 16.2883 6.64847 16.206 6.39714 16.0638C6.14583 15.9217 5.93066 15.7235 5.76835 15.4846L3.88306 12.3415C3.61236 11.891 3.82184 11.5218 4.34792 11.5218H19.6522C20.1783 11.5218 20.3868 11.891 20.1161 12.3415L18.227 15.4846C18.0653 15.7229 17.8509 15.9208 17.6004 16.063C17.35 16.2051 17.0702 16.2877 16.7827 16.3044H13.9131" fill="#E3BFB3"/>
<path d="M10.087 16.3044H7.21748C6.92918 16.2883 6.64847 16.206 6.39714 16.0638C6.14583 15.9217 5.93066 15.7235 5.76835 15.4846L3.88306 12.3415C3.61236 11.891 3.82184 11.5218 4.34792 11.5218H19.6522C20.1783 11.5218 20.3868 11.891 20.1161 12.3415L18.227 15.4846C18.0653 15.7229 17.8509 15.9208 17.6004 16.063C17.35 16.2051 17.0702 16.2877 16.7827 16.3044H13.9131" stroke="#191919" stroke-linecap="round" stroke-linejoin="round"/>
<path d="M10.0869 23V14.3914H13.913V23" fill="#C77F67"/>
<path d="M10.0869 23V14.3914H13.913V23" stroke="#191919" stroke-linecap="round" stroke-linejoin="round"/>
<path d="M11.0439 4.82611H12.957" stroke="#191919" stroke-linecap="round" stroke-linejoin="round"/>
<path d="M11.0439 2.91309H12.957" stroke="#191919" stroke-linecap="round" stroke-linejoin="round"/>
<path d="M5.84031 4.82608C5.97299 4.70457 6.07894 4.55677 6.15142 4.3921C6.22391 4.22744 6.26134 4.04948 6.26134 3.86956C6.26134 3.68964 6.22391 3.51169 6.15142 3.34702C6.07894 3.18235 5.97299 3.03456 5.84031 2.91304C5.71879 2.78036 5.571 2.67441 5.40633 2.60193C5.24165 2.52944 5.0637 2.492 4.88379 2.492C4.70387 2.492 4.52592 2.52944 4.36124 2.60193C4.19657 2.67441 4.04878 2.78036 3.92727 2.91304L3.16971 3.67156C2.99039 3.85094 2.88965 4.09418 2.88965 4.34782C2.88965 4.60145 2.99039 4.84471 3.16971 5.02408L3.72927 5.5846C3.8181 5.67354 3.9236 5.74408 4.03972 5.79222C4.15583 5.84036 4.2803 5.86514 4.40601 5.86514C4.5317 5.86514 4.65618 5.84036 4.7723 5.79222C4.88841 5.74408 4.9939 5.67354 5.08274 5.5846L5.84031 4.82608Z" fill="#B2B2B2" stroke="#191919" stroke-linecap="round" stroke-linejoin="round"/>
<path d="M3.44966 5.30432C2.99785 5.83938 2.75 6.51707 2.75 7.21736C2.75 7.91765 2.99785 8.59534 3.44966 9.1304L5.84094 11.5217" stroke="#191919" stroke-linecap="round" stroke-linejoin="round"/>
<path d="M18.1594 4.82608C18.027 4.70441 17.9212 4.55657 17.8489 4.39192C17.7766 4.22727 17.7393 4.0494 17.7393 3.86956C17.7393 3.68973 17.7766 3.51185 17.8489 3.34721C17.9212 3.18255 18.027 3.03471 18.1594 2.91304C18.2808 2.78036 18.4286 2.67441 18.5933 2.60193C18.758 2.52944 18.936 2.492 19.1159 2.492C19.2958 2.492 19.4737 2.52944 19.6384 2.60193C19.8031 2.67441 19.9509 2.78036 20.0724 2.91304L20.8309 3.67156C21.0103 3.85094 21.111 4.09418 21.111 4.34782C21.111 4.60145 21.0103 4.84471 20.8309 5.02408L20.2714 5.5846C20.1825 5.67354 20.077 5.74408 19.9609 5.79222C19.8447 5.84036 19.7203 5.86514 19.5946 5.86514C19.4689 5.86514 19.3445 5.84036 19.2284 5.79222C19.1122 5.74408 19.0067 5.67354 18.9179 5.5846L18.1594 4.82608Z" fill="#B2B2B2" stroke="#191919" stroke-linecap="round" stroke-linejoin="round"/>
<path d="M20.5505 5.30432C21.0022 5.83938 21.2502 6.51707 21.2502 7.21736C21.2502 7.91765 21.0022 8.59534 20.5505 9.1304L18.1592 11.5217" stroke="#191919" stroke-linecap="round" stroke-linejoin="round"/>
</svg>
