<svg width="24" height="24" viewBox="0 0 24 24" fill="none" xmlns="http://www.w3.org/2000/svg">
<g clip-path="url(#clip0_5303_10073)">
<path d="M2.9126 2.91309H21.0865V19.1739H2.9126V2.91309Z" fill="#E3E3E3"/>
<path d="M2.9126 19.1739V2.91309H21.0865L2.9126 19.1739Z" fill="white"/>
<path d="M2.9126 2.91309H21.0865V19.1739H2.9126V2.91309Z" stroke="#191919" stroke-linecap="round" stroke-linejoin="round"/>
<path d="M12 23C12.1892 23 12.3741 22.9439 12.5314 22.8388C12.6887 22.7337 12.8113 22.5843 12.8837 22.4095C12.9561 22.2348 12.9751 22.0424 12.9381 21.8568C12.9012 21.6713 12.8102 21.5008 12.6763 21.3671C12.5426 21.2333 12.3722 21.1422 12.1866 21.1053C12.001 21.0684 11.8087 21.0873 11.6339 21.1597C11.4592 21.2321 11.3098 21.3548 11.2046 21.512C11.0995 21.6694 11.0435 21.8543 11.0435 22.0435C11.0435 22.2971 11.1443 22.5405 11.3236 22.7198C11.503 22.8992 11.7463 23 12 23Z" stroke="#191919" stroke-linecap="round" stroke-linejoin="round"/>
<path d="M11.9995 19.174V21.087" stroke="#191919" stroke-linecap="round" stroke-linejoin="round"/>
<path d="M7.69531 6.26084V5.30432" stroke="#191919" stroke-linecap="round" stroke-linejoin="round"/>
<path d="M9.12979 6.26093H7.18901C6.89098 6.26114 6.60232 6.36503 6.37253 6.5548C6.14274 6.74457 5.98612 7.00838 5.92958 7.30099C5.87303 7.5936 5.92004 7.89676 6.06257 8.15849C6.2051 8.42022 6.43426 8.6242 6.71075 8.73544L8.68501 9.52553C8.96133 9.63672 9.1904 9.84053 9.33295 10.102C9.4755 10.3636 9.52267 10.6666 9.46636 10.9591C9.41006 11.2516 9.25379 11.5154 9.02433 11.7052C8.79488 11.8952 8.50652 11.9994 8.20866 12H6.26023" stroke="#191919" stroke-linecap="round" stroke-linejoin="round"/>
<path d="M7.69531 12.9565V12" stroke="#191919" stroke-linecap="round" stroke-linejoin="round"/>
<path d="M17.2607 15.3478V10.087C17.2607 9.96012 17.2103 9.83847 17.1207 9.74879C17.0309 9.65909 16.9093 9.6087 16.7824 9.6087H15.8259C15.6991 9.6087 15.5774 9.65909 15.4877 9.74879C15.3981 9.83847 15.3477 9.96012 15.3477 10.087V15.3478H17.2607Z" fill="#FF808C" stroke="#191919" stroke-linecap="round" stroke-linejoin="round"/>
<path d="M13.434 15.3478V12.9565C13.434 12.8297 13.3836 12.708 13.294 12.6183C13.2043 12.5287 13.0826 12.4783 12.9558 12.4783H11.9993C11.8724 12.4783 11.7508 12.5287 11.661 12.6183C11.5714 12.708 11.521 12.8297 11.521 12.9565V15.3478H13.434Z" fill="#FFEF5E" stroke="#191919" stroke-linecap="round" stroke-linejoin="round"/>
<path d="M8.65137 15.3478H18.6948" stroke="#191919" stroke-linecap="round" stroke-linejoin="round"/>
<path d="M23 1.95652C23 2.21021 22.8992 2.4535 22.7198 2.63289C22.5405 2.81226 22.2971 2.91304 22.0435 2.91304H1.95652C1.70283 2.91304 1.45954 2.81226 1.28016 2.63289C1.10078 2.4535 1 2.21021 1 1.95652C1 1.70283 1.10078 1.45954 1.28016 1.28016C1.45954 1.10078 1.70283 1 1.95652 1H22.0435C22.2971 1 22.5405 1.10078 22.7198 1.28016C22.8992 1.45954 23 1.70283 23 1.95652Z" fill="#808080" stroke="#191919" stroke-linecap="round" stroke-linejoin="round"/>
<path d="M1.95605 19.174H22.043" stroke="#191919" stroke-linecap="round" stroke-linejoin="round"/>
</g>
<defs>
<clipPath id="clip0_5303_10073">
<rect width="24" height="24" fill="white"/>
</clipPath>
</defs>
</svg>
