<svg width="24" height="24" viewBox="0 0 24 24" fill="none" xmlns="http://www.w3.org/2000/svg">
<path d="M11.5225 6.26086C11.868 6.26086 12.21 6.19282 12.5291 6.06063C12.8483 5.92844 13.1383 5.73468 13.3825 5.49042C13.6268 5.24617 13.8205 4.95619 13.9527 4.63705C14.0849 4.31791 14.1529 3.97586 14.1529 3.63043C14.1529 3.285 14.0849 2.94295 13.9527 2.62381C13.8205 2.30467 13.6268 2.01469 13.3825 1.77043C13.1383 1.52618 12.8483 1.33242 12.5291 1.20023C12.21 1.06804 11.868 1 11.5225 1C10.8249 1 10.1558 1.27713 9.66252 1.77043C9.16922 2.26374 8.89209 2.9328 8.89209 3.63043C8.89209 4.32806 9.16922 4.99712 9.66252 5.49042C10.1558 5.98372 10.8249 6.26086 11.5225 6.26086Z" fill="#FFDDA1" stroke="#191919" stroke-linecap="round" stroke-linejoin="round"/>
<path d="M14.7461 9.63936C14.548 8.94167 14.1286 8.32719 13.5512 7.88838C12.9737 7.44957 12.2693 7.21016 11.5441 7.20617C10.8188 7.20217 10.1119 7.43382 9.52959 7.86625C8.94732 8.29868 8.52123 8.9085 8.31543 9.60396" fill="#66E1FF"/>
<path d="M14.7461 9.63936C14.548 8.94167 14.1286 8.32719 13.5512 7.88838C12.9737 7.44957 12.2693 7.21016 11.5441 7.20617C10.8188 7.20217 10.1119 7.43382 9.52959 7.86625C8.94732 8.29868 8.52123 8.9085 8.31543 9.60396" stroke="#191919" stroke-linecap="round" stroke-linejoin="round"/>
<path d="M7.21777 11.5218H15.8264" stroke="#191919" stroke-linecap="round" stroke-linejoin="round"/>
<path d="M8.37854 14.3426L8.1748 11.5218H14.8704L14.6686 14.3732" fill="#C77F67"/>
<path d="M8.37854 14.3426L8.1748 11.5218H14.8704L14.6686 14.3732" stroke="#191919" stroke-linecap="round" stroke-linejoin="round"/>
<path d="M12.0867 20.3218C12.6828 20.3218 13.2546 20.0849 13.6761 19.6634C14.0977 19.2418 14.3345 18.6701 14.3345 18.0739C14.3345 17.4778 14.0977 16.906 13.6761 16.4845C13.2546 16.0629 12.6828 15.8261 12.0867 15.8261C11.4905 15.8261 10.9188 16.0629 10.4972 16.4845C10.0757 16.906 9.83887 17.4778 9.83887 18.0739C9.83887 18.6701 10.0757 19.2418 10.4972 19.6634C10.9188 20.0849 11.4905 20.3218 12.0867 20.3218Z" fill="#FFDDA1" stroke="#191919" stroke-linecap="round" stroke-linejoin="round"/>
<path d="M5.01784 20.3218C5.614 20.3218 6.18574 20.0849 6.60729 19.6634C7.02884 19.2418 7.26566 18.6701 7.26566 18.0739C7.26566 17.4778 7.02884 16.906 6.60729 16.4845C6.18574 16.0629 5.614 15.8261 5.01784 15.8261C4.42168 15.8261 3.84994 16.0629 3.42839 16.4845C3.00684 16.906 2.77002 17.4778 2.77002 18.0739C2.77002 18.6701 3.00684 19.2418 3.42839 19.6634C3.84994 20.0849 4.42168 20.3218 5.01784 20.3218Z" fill="#FFDDA1" stroke="#191919" stroke-linecap="round" stroke-linejoin="round"/>
<path d="M19.0003 20.3218C19.5964 20.3218 20.1682 20.0849 20.5897 19.6634C21.0113 19.2418 21.2481 18.6701 21.2481 18.0739C21.2481 17.4778 21.0113 16.906 20.5897 16.4845C20.1682 16.0629 19.5964 15.8261 19.0003 15.8261C18.4041 15.8261 17.8324 16.0629 17.4108 16.4845C16.9893 16.906 16.7524 17.4778 16.7524 18.0739C16.7524 18.6701 16.9893 19.2418 17.4108 19.6634C17.8324 20.0849 18.4041 20.3218 19.0003 20.3218Z" fill="#FFDDA1" stroke="#191919" stroke-linecap="round" stroke-linejoin="round"/>
<path d="M22.5218 23C22.1022 22.4789 21.5711 22.0584 20.9676 21.7695C20.364 21.4806 19.7034 21.3306 19.0343 21.3306C18.3652 21.3306 17.7046 21.4806 17.1011 21.7695C16.4976 22.0584 15.9665 22.4789 15.5469 23" fill="#D480FF"/>
<path d="M22.5218 23C22.1022 22.4789 21.5711 22.0584 20.9676 21.7695C20.364 21.4806 19.7034 21.3306 19.0343 21.3306C18.3652 21.3306 17.7046 21.4806 17.1011 21.7695C16.4976 22.0584 15.9665 22.4789 15.5469 23" stroke="#191919" stroke-linecap="round" stroke-linejoin="round"/>
<path d="M1.47852 22.9999C1.89825 22.4789 2.42938 22.0586 3.03289 21.7698C3.6364 21.481 4.29694 21.3311 4.96599 21.3311C5.63503 21.3311 6.29557 21.481 6.89908 21.7698C7.50259 22.0586 8.03372 22.4789 8.45346 22.9999" fill="#D480FF"/>
<path d="M1.47852 22.9999C1.89825 22.4789 2.42938 22.0586 3.03289 21.7698C3.6364 21.481 4.29694 21.3311 4.96599 21.3311C5.63503 21.3311 6.29557 21.481 6.89908 21.7698C7.50259 22.0586 8.03372 22.4789 8.45346 22.9999" stroke="#191919" stroke-linecap="round" stroke-linejoin="round"/>
<path d="M8.59912 22.9999C9.01885 22.4789 9.54999 22.0586 10.1535 21.7698C10.757 21.481 11.4175 21.3311 12.0866 21.3311C12.7556 21.3311 13.4162 21.481 14.0197 21.7698C14.6232 22.0586 15.1543 22.4789 15.5741 22.9999" fill="#D480FF"/>
<path d="M8.59912 22.9999C9.01885 22.4789 9.54999 22.0586 10.1535 21.7698C10.757 21.481 11.4175 21.3311 12.0866 21.3311C12.7556 21.3311 13.4162 21.481 14.0197 21.7698C14.6232 22.0586 15.1543 22.4789 15.5741 22.9999" stroke="#191919" stroke-linecap="round" stroke-linejoin="round"/>
<path d="M11.5223 14.1694C11.4909 14.1694 11.4598 14.1632 11.4308 14.1512C11.4018 14.1391 11.3754 14.1215 11.3532 14.0993C11.331 14.0771 11.3134 14.0508 11.3014 14.0217C11.2894 13.9927 11.2832 13.9616 11.2832 13.9302C11.2832 13.8988 11.2894 13.8677 11.3014 13.8387C11.3134 13.8097 11.331 13.7833 11.3532 13.7611C11.3754 13.7389 11.4018 13.7213 11.4308 13.7093C11.4598 13.6973 11.4909 13.6911 11.5223 13.6911" stroke="#191919"/>
<path d="M11.522 14.1694C11.5534 14.1694 11.5845 14.1632 11.6135 14.1512C11.6425 14.1391 11.6689 14.1215 11.6911 14.0993C11.7133 14.0771 11.7309 14.0508 11.7429 14.0217C11.7549 13.9927 11.7611 13.9616 11.7611 13.9302C11.7611 13.8988 11.7549 13.8677 11.7429 13.8387C11.7309 13.8097 11.7133 13.7833 11.6911 13.7611C11.6689 13.7389 11.6425 13.7213 11.6135 13.7093C11.5845 13.6973 11.5534 13.6911 11.522 13.6911" stroke="#191919"/>
</svg>
