<svg width="24" height="24" viewBox="0 0 24 24" fill="none" xmlns="http://www.w3.org/2000/svg">
<path d="M6.0415 6.95831V1.45831H14.8287C15.0718 1.45837 15.3049 1.55498 15.4768 1.7269L17.6896 3.93973C17.8616 4.1116 17.9581 4.34472 17.9582 4.58781V6.95831H6.0415Z" fill="white"/>
<path d="M17.9582 5.125H6.0415V6.95833H17.9582V5.125Z" fill="#E4F1F5"/>
<path d="M3.29183 16.125C2.80604 16.1235 2.34058 15.9299 1.99707 15.5864C1.65357 15.2429 1.45995 14.7774 1.4585 14.2916V8.79165C1.45995 8.30586 1.65357 7.84039 1.99707 7.49688C2.34058 7.15338 2.80604 6.95976 3.29183 6.95831H20.7085C21.1942 6.95976 21.6597 7.15338 22.0033 7.49688C22.3468 7.84039 22.5404 8.30586 22.5418 8.79165V14.2916C22.5404 14.7774 22.3468 15.2429 22.0033 15.5864C21.6597 15.9299 21.1942 16.1235 20.7085 16.125H3.29183Z" fill="#FFEF5E"/>
<path d="M17.9582 21.625C17.9582 21.8681 17.8616 22.1013 17.6897 22.2732C17.5178 22.445 17.2846 22.5417 17.0415 22.5417H6.95817C6.71505 22.5417 6.4819 22.445 6.30999 22.2732C6.13808 22.1013 6.0415 21.8681 6.0415 21.625V13.375H17.9582V21.625Z" fill="white"/>
<path d="M17.9582 13.375H6.0415V15.2083H17.9582V13.375Z" fill="#E4F1F5"/>
<path d="M20.7085 6.95831H3.29183C2.80604 6.95976 2.34058 7.15338 1.99707 7.49688C1.65357 7.84039 1.45995 8.30586 1.4585 8.79165V10.625C1.45995 10.1392 1.65357 9.67373 1.99707 9.33021C2.34058 8.98671 2.80604 8.79309 3.29183 8.79165H20.7085C21.1942 8.79309 21.6597 8.98671 22.0033 9.33021C22.3468 9.67373 22.5404 10.1392 22.5418 10.625V8.79165C22.5404 8.30586 22.3468 7.84039 22.0033 7.49688C21.6597 7.15338 21.1942 6.95976 20.7085 6.95831Z" fill="#FFF9BF"/>
<path d="M17.9582 4.58781C17.9581 4.34472 17.8616 4.1116 17.6896 3.93973L15.4768 1.7269C15.3049 1.55498 15.0718 1.45837 14.8287 1.45831H14.2915V5.12498H17.9582V4.58781Z" fill="#E4F1F5"/>
<path d="M6.04183 16.125H3.29183C2.80604 16.1235 2.34058 15.9299 1.99707 15.5864C1.65357 15.2429 1.45995 14.7774 1.4585 14.2916V8.79165C1.45995 8.30586 1.65357 7.84039 1.99707 7.49688C2.34058 7.15338 2.80604 6.95976 3.29183 6.95831H20.7085C21.1942 6.95976 21.6597 7.15338 22.0033 7.49688C22.3468 7.84039 22.5404 8.30586 22.5418 8.79165V14.2916C22.5404 14.7774 22.3468 15.2429 22.0033 15.5864C21.6597 15.9299 21.1942 16.1235 20.7085 16.125H17.9585" stroke="#191919" stroke-linecap="round" stroke-linejoin="round"/>
<path d="M17.9582 21.625C17.9582 21.8681 17.8616 22.1013 17.6897 22.2732C17.5178 22.445 17.2846 22.5417 17.0415 22.5417H6.95817C6.71505 22.5417 6.4819 22.445 6.30999 22.2732C6.13808 22.1013 6.0415 21.8681 6.0415 21.625V13.375H17.9582V21.625Z" stroke="#191919" stroke-linecap="round" stroke-linejoin="round"/>
<path d="M7.875 18.875H16.125" stroke="#191919" stroke-linecap="round" stroke-linejoin="round"/>
<path d="M7.875 16.125H16.125" stroke="#191919" stroke-linecap="round" stroke-linejoin="round"/>
<path d="M6.0415 5.12498V1.45831H14.8287C15.0718 1.45837 15.3049 1.55498 15.4768 1.7269L17.6896 3.93973C17.8616 4.1116 17.9581 4.34472 17.9582 4.58781V5.12498" stroke="#191919" stroke-linecap="round" stroke-linejoin="round"/>
<path d="M4.20817 10.625C4.38947 10.625 4.5667 10.5713 4.71744 10.4706C4.86819 10.3698 4.98568 10.2266 5.05506 10.0591C5.12444 9.89165 5.14259 9.70734 5.10723 9.52952C5.07185 9.35171 4.98455 9.18837 4.85635 9.06017C4.72815 8.93197 4.56482 8.84467 4.387 8.8093C4.20919 8.77393 4.02487 8.79208 3.85738 8.86146C3.68988 8.93085 3.54671 9.04833 3.44599 9.19908C3.34527 9.34983 3.2915 9.52705 3.2915 9.70835C3.2915 9.95147 3.38808 10.1847 3.55999 10.3565C3.7319 10.5284 3.96505 10.625 4.20817 10.625Z" fill="#FF808C" stroke="#191919" stroke-linecap="round" stroke-linejoin="round"/>
<path d="M14.2915 1.45831V5.12498H17.9582" stroke="#191919" stroke-linecap="round" stroke-linejoin="round"/>
</svg>
