<svg width="24" height="24" viewBox="0 0 24 24" fill="none" xmlns="http://www.w3.org/2000/svg">
<g clip-path="url(#clip0_5303_7258)">
<path d="M19.0629 12.8608L18.3073 5.68692C18.2836 5.45114 18.1732 5.23256 17.9976 5.07351C17.8219 4.91447 17.5935 4.82628 17.3565 4.82605H11.4261C11.1891 4.82628 10.9607 4.91447 10.785 5.07351C10.6094 5.23256 10.499 5.45114 10.4753 5.68692L9.71964 12.8608C9.70623 12.9942 9.72102 13.129 9.76305 13.2563C9.80507 13.3836 9.8734 13.5007 9.9636 13.5999C10.0538 13.6991 10.1638 13.7783 10.2866 13.8322C10.4094 13.8862 10.5421 13.9137 10.6762 13.913H18.116C18.2501 13.9137 18.3828 13.8862 18.5056 13.8322C18.6283 13.7783 18.7384 13.6991 18.8286 13.5999C18.9187 13.5007 18.9871 13.3836 19.0291 13.2563C19.0711 13.129 19.0859 12.9942 19.0725 12.8608H19.0629Z" fill="#C2F3FF"/>
<path d="M14.3913 10.4121C12.8391 10.4146 11.3348 9.87541 10.1376 8.88745L9.71964 12.8608C9.70623 12.9943 9.72102 13.129 9.76305 13.2563C9.80507 13.3836 9.8734 13.5007 9.9636 13.5999C10.0538 13.6991 10.1638 13.7783 10.2866 13.8322C10.4094 13.8862 10.5421 13.9137 10.6762 13.913H18.116C18.2501 13.9137 18.3828 13.8862 18.5056 13.8322C18.6283 13.7783 18.7384 13.6991 18.8286 13.5999C18.9187 13.5007 18.9871 13.3836 19.0291 13.2563C19.0711 13.129 19.0859 12.9943 19.0725 12.8608L18.6545 8.89128C17.4543 9.87988 15.9462 10.4179 14.3913 10.4121Z" fill="#66E1FF"/>
<path d="M1 22.9999V13.4347" stroke="#191919" stroke-linecap="round" stroke-linejoin="round"/>
<path d="M1 15.3478H7.69565C8.45671 15.3478 9.18659 15.6501 9.72474 16.1883C10.2629 16.7264 10.5652 17.4563 10.5652 18.2173H16.3043C17.0654 18.2173 17.7953 18.5197 18.3334 19.0578C18.8716 19.596 19.1739 20.3259 19.1739 21.0869H1V15.3478Z" fill="#FFDDA1" stroke="#191919" stroke-linecap="round" stroke-linejoin="round"/>
<path d="M10.5649 18.2174H7.69531" stroke="#191919" stroke-linecap="round" stroke-linejoin="round"/>
<path d="M22.0433 8.65198H16.3042C16.0505 8.65198 15.8072 8.75275 15.6278 8.93214C15.4484 9.11152 15.3477 9.35481 15.3477 9.6085V14.3911C15.3477 14.6448 15.4484 14.8881 15.6278 15.0675C15.8072 15.2469 16.0505 15.3476 16.3042 15.3476H22.0433C22.297 15.3476 22.5403 15.2469 22.7197 15.0675C22.8991 14.8881 22.9998 14.6448 22.9998 14.3911V9.6085C22.9998 9.48289 22.9751 9.35851 22.927 9.24245C22.8789 9.1264 22.8085 9.02096 22.7197 8.93214C22.6309 8.84332 22.5254 8.77286 22.4094 8.72479C22.2933 8.67672 22.1689 8.65198 22.0433 8.65198Z" fill="#FF808C"/>
<path d="M22.0433 8.65198H16.3042C16.0505 8.65198 15.8072 8.75275 15.6278 8.93214C15.4484 9.11152 15.3477 9.35481 15.3477 9.6085V11.9998C15.3477 11.7461 15.4484 11.5028 15.6278 11.3234C15.8072 11.1441 16.0505 11.0433 16.3042 11.0433H22.0433C22.297 11.0433 22.5403 11.1441 22.7197 11.3234C22.8991 11.5028 22.9998 11.7461 22.9998 11.9998V9.6085C22.9998 9.35481 22.8991 9.11152 22.7197 8.93214C22.5403 8.75275 22.297 8.65198 22.0433 8.65198Z" fill="#FFBFC5"/>
<path d="M22.0433 8.65198H16.3042C16.0505 8.65198 15.8072 8.75275 15.6278 8.93214C15.4484 9.11152 15.3477 9.35481 15.3477 9.6085V14.3911C15.3477 14.6448 15.4484 14.8881 15.6278 15.0675C15.8072 15.2469 16.0505 15.3476 16.3042 15.3476H22.0433C22.297 15.3476 22.5403 15.2469 22.7197 15.0675C22.8991 14.8881 22.9998 14.6448 22.9998 14.3911V9.6085C22.9998 9.48289 22.9751 9.35851 22.927 9.24245C22.8789 9.1264 22.8085 9.02096 22.7197 8.93214C22.6309 8.84332 22.5254 8.77286 22.4094 8.72479C22.2933 8.67672 22.1689 8.65198 22.0433 8.65198Z" stroke="#191919" stroke-linecap="round" stroke-linejoin="round"/>
<path d="M19.1738 8.65198V15.3476" stroke="#191919" stroke-linecap="round" stroke-linejoin="round"/>
<path d="M15.3477 12.4783H22.9998" stroke="#191919" stroke-linecap="round" stroke-linejoin="round"/>
<path d="M18.2169 4.82605H11.4256C11.1894 4.82616 10.9615 4.91368 10.786 5.07174C10.6105 5.2298 10.4996 5.44722 10.4748 5.68214L9.71916 12.856C9.70503 12.9898 9.71928 13.1251 9.76098 13.253C9.80269 13.3809 9.8709 13.4986 9.96117 13.5983C10.0514 13.6981 10.1617 13.7777 10.2849 13.8319C10.408 13.8861 10.5411 13.9137 10.6757 13.913H15.3473" stroke="#191919" stroke-linecap="round" stroke-linejoin="round"/>
<path d="M16.3041 4.82609V2.91304C16.3041 2.40567 16.1026 1.91908 15.7438 1.56032C15.385 1.20155 14.8984 1 14.3911 1C14.1398 1 13.8911 1.04948 13.659 1.14562C13.4269 1.24176 13.216 1.38267 13.0383 1.56032C12.8607 1.73796 12.7198 1.94885 12.6236 2.18095C12.5275 2.41305 12.478 2.66182 12.478 2.91304V4.82609" stroke="#191919" stroke-linecap="round" stroke-linejoin="round"/>
<path d="M19.1733 8.65218L17.2603 6.73914" stroke="#191919" stroke-linecap="round" stroke-linejoin="round"/>
<path d="M21.0869 6.73914L19.1738 8.65218" stroke="#191919" stroke-linecap="round" stroke-linejoin="round"/>
</g>
<defs>
<clipPath id="clip0_5303_7258">
<rect width="24" height="24" fill="white"/>
</clipPath>
</defs>
</svg>
