<svg width="24" height="24" viewBox="0 0 24 24" fill="none" xmlns="http://www.w3.org/2000/svg">
<path d="M17.739 7.69683H6.26172C6.26084 6.64731 6.54858 5.6177 7.0934 4.72063C7.63831 3.82356 8.41923 3.09359 9.35105 2.61045L9.23627 2.2747C9.2022 2.17905 9.20064 2.07481 9.23178 1.97818C9.26282 1.88155 9.32499 1.79791 9.40844 1.74003C10.1765 1.23464 11.0813 0.976969 12.0004 1.00166C12.9194 0.976676 13.8241 1.23405 14.5923 1.73915C14.6759 1.79693 14.738 1.88058 14.769 1.9773C14.8002 2.07393 14.7986 2.17807 14.7645 2.27372L14.6497 2.60947C15.5816 3.09271 16.3627 3.82278 16.9076 4.72004C17.4524 5.61731 17.7401 6.64711 17.739 7.69683Z" fill="#FFEF5E"/>
<path d="M17.739 7.69684V9.60976C17.739 11.1318 17.1345 12.5913 16.0582 13.6676C14.9821 14.7439 13.5224 15.3484 12.0004 15.3484C10.4784 15.3484 9.01871 14.7439 7.94254 13.6676C6.86627 12.5913 6.26172 11.1318 6.26172 9.60976V7.69684" fill="#FFDDA1"/>
<path d="M12.0004 1.00166C11.0814 0.976676 10.1766 1.23405 9.40844 1.73915C9.32489 1.79693 9.26282 1.88058 9.23178 1.9773C9.20064 2.07393 9.20221 2.17807 9.23627 2.27372L9.35105 2.60947C8.41914 3.09271 7.63802 3.82278 7.0932 4.72004C6.54828 5.61731 6.26065 6.64711 6.26172 7.69683H12.0004V1.00166Z" fill="#FFF9BF"/>
<path d="M18.695 17.8466V23H5.30469V17.8466C7.45693 17.1028 9.72308 16.7428 11.9999 16.7831C14.2766 16.7428 16.5428 17.1028 18.695 17.8466Z" fill="#FFEF5E"/>
<path d="M2.21543 19.4726C3.15613 18.776 4.19804 18.2277 5.30476 17.8466V23H1.47902V20.9838C1.47785 20.6923 1.54363 20.4045 1.6713 20.1425C1.79906 19.8805 1.98519 19.6513 2.21543 19.4726Z" fill="#B2B2B2"/>
<path d="M22.5215 20.9838V23H18.6958V17.8466C19.8026 18.2277 20.8444 18.776 21.7851 19.4726C22.0154 19.6513 22.2015 19.8805 22.3293 20.1425C22.4569 20.4045 22.5227 20.6923 22.5215 20.9838Z" fill="#B2B2B2"/>
<path d="M15.7393 17.0911L11.9995 21.087L8.25977 17.0911C9.49503 16.8799 10.7464 16.7767 11.9995 16.7831C13.2526 16.7767 14.504 16.8799 15.7393 17.0911Z" fill="#FFDDA1"/>
<path d="M18.695 17.8467V20.2761C16.5394 19.5462 14.2756 19.1869 11.9999 19.2135C9.72415 19.187 7.46035 19.5463 5.30469 20.2761V17.8467C7.45996 17.1149 9.72395 16.7552 11.9999 16.7831C14.2758 16.7551 16.5399 17.1148 18.695 17.8467Z" fill="#FFF9BF"/>
<path d="M5.30476 17.8466V20.2761C4.19804 20.6571 3.15613 21.2054 2.21543 21.902C1.86397 22.1756 1.62015 22.5645 1.52684 23H1.47902V20.9838C1.47785 20.6923 1.54363 20.4045 1.6713 20.1425C1.79906 19.8805 1.98519 19.6513 2.21543 19.4726C3.15613 18.776 4.19804 18.2277 5.30476 17.8466Z" fill="#EEEEEE"/>
<path d="M22.5215 20.9838V23H22.4737C22.3806 22.5641 22.1368 22.1749 21.7851 21.901C20.8444 21.2045 19.8025 20.6561 18.6958 20.2751V17.8456C19.8026 18.2267 20.8444 18.775 21.7851 19.4716C22.0155 19.6504 22.2017 19.8798 22.3294 20.1419C22.4571 20.4042 22.5229 20.6921 22.5215 20.9838Z" fill="#EEEEEE"/>
<path d="M15.7393 17.0911L13.702 19.2699L13.6924 19.2795C13.3098 19.2373 12.6173 19.2115 11.9995 19.2115C11.3817 19.2115 10.6872 19.2373 10.3066 19.2795L10.297 19.2699L8.25977 17.0892C9.49503 16.8782 10.7464 16.7758 11.9995 16.7831C13.2526 16.7764 14.5041 16.8795 15.7393 17.0911Z" fill="#FFDDA1"/>
<path d="M10.2974 19.2698C10.4696 19.2603 10.6417 19.2497 10.8235 19.2411C10.6513 19.2497 10.4791 19.2603 10.3069 19.2794C10.1922 19.2794 10.0869 19.288 9.97217 19.2985C10.0774 19.2899 10.1922 19.2813 10.2974 19.2698Z" fill="#FFDDA1"/>
<path d="M14.0276 19.3004C13.9128 19.2899 13.8076 19.2813 13.6928 19.2813C13.5206 19.2622 13.3484 19.2516 13.1763 19.243C13.358 19.2516 13.5302 19.2622 13.7023 19.2717C13.8076 19.2813 13.9223 19.2899 14.0276 19.3004Z" fill="#FFDDA1"/>
<path d="M13.4343 12.0008C13.0204 12.3113 12.5169 12.479 11.9996 12.479C11.4823 12.479 10.9788 12.3113 10.5649 12.0008" stroke="#191919" stroke-linecap="round" stroke-linejoin="round"/>
<path d="M10.0873 9.84788C9.95521 9.84788 9.84814 9.74081 9.84814 9.60876C9.84814 9.4767 9.95521 9.36963 10.0873 9.36963" stroke="#191919"/>
<path d="M10.0874 9.84788C10.2195 9.84788 10.3265 9.74081 10.3265 9.60876C10.3265 9.4767 10.2195 9.36963 10.0874 9.36963" stroke="#191919"/>
<path d="M13.9125 9.84788C13.7803 9.84788 13.6733 9.74081 13.6733 9.60876C13.6733 9.4767 13.7804 9.36963 13.9125 9.36963" stroke="#191919"/>
<path d="M13.9126 9.84788C14.0447 9.84788 14.1517 9.74081 14.1517 9.60876C14.1517 9.4767 14.0447 9.36963 13.9126 9.36963" stroke="#191919"/>
<path d="M8.25391 17.0797L12.0003 21.0863L15.7467 17.0797" stroke="#191919" stroke-linecap="round" stroke-linejoin="round"/>
<path d="M4.82666 7.69586H19.1733" stroke="#191919" stroke-linecap="round" stroke-linejoin="round"/>
<path d="M9.34714 2.60571C8.4165 3.09099 7.63665 3.82224 7.09261 4.71989C6.54857 5.61754 6.26123 6.64726 6.26172 7.69688V9.6098C6.26172 11.1318 6.86627 12.5914 7.94254 13.6676C9.01871 14.7439 10.4784 15.3485 12.0004 15.3485C13.5224 15.3485 14.9821 14.7439 16.0582 13.6676C17.1345 12.5914 17.739 11.1318 17.739 9.6098V7.69688C17.7393 6.64735 17.4519 5.61794 16.908 4.72048C16.3639 3.82292 15.5842 3.09187 14.6535 2.60669" stroke="#191919" stroke-linecap="round" stroke-linejoin="round"/>
<path d="M12.9559 7.69683L14.7626 2.27665C14.7964 2.17992 14.7978 2.07471 14.7663 1.9772C14.7349 1.8797 14.6724 1.79507 14.5886 1.73622C13.8199 1.23483 12.9171 0.978724 11.9995 1.00166C11.0819 0.978724 10.1791 1.23483 9.41037 1.73622C9.32644 1.79507 9.26407 1.8797 9.23264 1.9772C9.20121 2.07471 9.20248 2.17992 9.23625 2.27665L11.0431 7.69683" stroke="#191919" stroke-linecap="round" stroke-linejoin="round"/>
<path d="M15.8257 5.78291V3.41956" stroke="#191919" stroke-linecap="round" stroke-linejoin="round"/>
<path d="M8.17432 5.78291V3.41956" stroke="#191919" stroke-linecap="round" stroke-linejoin="round"/>
<path d="M5.30469 22.9991V17.8429" stroke="#191919" stroke-linecap="round" stroke-linejoin="round"/>
<path d="M18.6958 22.9991V17.8429" stroke="#191919" stroke-linecap="round" stroke-linejoin="round"/>
<path d="M12 21.0862V22.999" stroke="#191919" stroke-linecap="round" stroke-linejoin="round"/>
<path d="M22.5209 22.9999V20.9847C22.5228 20.6931 22.4573 20.4051 22.3295 20.143C22.2018 19.8808 22.0152 19.6518 21.7845 19.4735C20.5124 18.4989 17.4804 16.783 12 16.783C6.51955 16.783 3.49229 18.5046 2.21545 19.4745C1.98482 19.6525 1.7983 19.8815 1.67054 20.1434C1.54287 20.4055 1.47728 20.6933 1.47904 20.9847V22.9999" stroke="#191919" stroke-linecap="round" stroke-linejoin="round"/>
</svg>
