<svg width="24" height="24" viewBox="0 0 24 24" fill="none" xmlns="http://www.w3.org/2000/svg">
<g clip-path="url(#clip0_5303_3745)">
<path d="M1 15.8261V3.86954C1 3.48901 1.15116 3.12407 1.42024 2.85499C1.68931 2.58592 2.05425 2.43475 2.43478 2.43475H21.5652C21.9457 2.43475 22.3107 2.58592 22.5798 2.85499C22.8488 3.12407 23 3.48901 23 3.86954V15.8261H1Z" fill="#66E1FF"/>
<path d="M18.6957 2.43475H2.43478C2.05425 2.43475 1.68931 2.58592 1.42024 2.85499C1.15116 3.12407 1 3.48901 1 3.86954V15.8261H5.30435L18.6957 2.43475Z" fill="#C2F3FF"/>
<path d="M1 15.826H23V18.2174C23 18.4058 22.9629 18.5923 22.8908 18.7664C22.8187 18.9405 22.713 19.0987 22.5798 19.2319C22.4465 19.3651 22.2884 19.4708 22.1143 19.5429C21.9402 19.615 21.7536 19.6521 21.5652 19.6521H2.43478C2.05425 19.6521 1.68931 19.501 1.42024 19.2319C1.15116 18.9628 1 18.5979 1 18.2174V15.826Z" fill="white"/>
<path d="M5.3042 21.5652H18.6955" stroke="#191919" stroke-linecap="round" stroke-linejoin="round"/>
<path d="M11.521 19.6522V21.5652" stroke="#191919" stroke-linecap="round" stroke-linejoin="round"/>
<path d="M1 15.826H23" stroke="#191919" stroke-linecap="round" stroke-linejoin="round"/>
<path d="M8.6523 7.21735C8.14493 7.21735 7.65834 7.4189 7.29958 7.77766C6.94081 8.13643 6.73926 8.62302 6.73926 9.13039V10.0869C6.73926 10.5943 6.94081 11.0809 7.29958 11.4396C7.65834 11.7984 8.14493 12 8.6523 12" stroke="#191919" stroke-linecap="round" stroke-linejoin="round"/>
<path d="M12.478 7.21735H11.5215C11.2678 7.21735 11.0245 7.31812 10.8451 7.4975C10.6657 7.67689 10.5649 7.92018 10.5649 8.17387C10.5649 9.60865 12.478 9.60865 12.478 11.0434C12.478 11.169 12.4532 11.2934 12.4052 11.4095C12.3571 11.5255 12.2866 11.631 12.1978 11.7198C12.109 11.8086 12.0036 11.8791 11.8875 11.9271C11.7715 11.9752 11.6471 12 11.5215 12H10.5649" stroke="#191919" stroke-linecap="round" stroke-linejoin="round"/>
<path d="M16.3037 7.21735H15.3471C15.0935 7.21735 14.8502 7.31812 14.6708 7.4975C14.4914 7.67689 14.3906 7.92018 14.3906 8.17387C14.3906 9.60865 16.3037 9.60865 16.3037 11.0434C16.3037 11.2971 16.2029 11.5404 16.0235 11.7198C15.8441 11.8992 15.6008 12 15.3471 12H14.3906" stroke="#191919" stroke-linecap="round" stroke-linejoin="round"/>
<path d="M21.5652 2.43475H2.43478C2.05425 2.43475 1.68931 2.58592 1.42024 2.85499C1.15116 3.12407 1 3.48901 1 3.86954V18.2174C1 18.5979 1.15116 18.9629 1.42024 19.2319C1.68931 19.501 2.05425 19.6522 2.43478 19.6522H21.5652C21.9457 19.6522 22.3107 19.501 22.5798 19.2319C22.8488 18.9629 23 18.5979 23 18.2174V3.86954C23 3.68112 22.9629 3.49454 22.8908 3.32047C22.8187 3.14639 22.713 2.98822 22.5798 2.85499C22.4465 2.72176 22.2884 2.61607 22.1143 2.54397C21.9402 2.47187 21.7536 2.43475 21.5652 2.43475Z" stroke="#191919" stroke-linecap="round" stroke-linejoin="round"/>
</g>
<defs>
<clipPath id="clip0_5303_3745">
<rect width="24" height="24" fill="white"/>
</clipPath>
</defs>
</svg>
