<svg width="24" height="24" viewBox="0 0 24 24" fill="none" xmlns="http://www.w3.org/2000/svg">
<g clip-path="url(#clip0_5303_3867)">
<path d="M20.2367 19.6086C20.2109 19.7809 20.1386 19.943 20.0276 20.0772C19.9166 20.2116 19.7711 20.3131 19.6067 20.3709L12.319 22.9427C12.1127 23.0155 11.8877 23.0155 11.6813 22.9427L4.39364 20.3709C4.22945 20.3129 4.08416 20.2114 3.97334 20.077C3.86252 19.9428 3.79036 19.7808 3.76459 19.6086L1.13815 2.10179C1.11758 1.96531 1.12672 1.82601 1.16494 1.69338C1.20315 1.56076 1.26955 1.43795 1.35959 1.33335C1.44963 1.22875 1.56118 1.14481 1.68664 1.08728C1.81209 1.02975 1.94849 0.999978 2.0865 1H21.9139C22.0519 0.999978 22.1883 1.02975 22.3137 1.08728C22.4392 1.14481 22.5508 1.22875 22.6408 1.33335C22.7309 1.43795 22.7972 1.56076 22.8355 1.69338C22.8736 1.82601 22.8827 1.96531 22.8622 2.10179L20.2367 19.6086Z" fill="#FFBC44"/>
<path d="M12.0782 1.00098H2.08734C1.94941 1.00097 1.81311 1.03073 1.68774 1.0882C1.56236 1.14567 1.45086 1.22952 1.36084 1.33401C1.27081 1.43851 1.20439 1.56119 1.16611 1.69369C1.12782 1.82619 1.11857 1.9654 1.13898 2.1018L3.76448 19.6086C3.79039 19.7806 3.86263 19.9424 3.97344 20.0765C4.08425 20.2106 4.22946 20.3121 4.39352 20.37L11.6812 22.9427C11.8083 22.9887 11.9435 23.0074 12.0782 22.9974V1.00098Z" fill="#FFDDA1"/>
<path d="M20.2367 19.6086C20.2109 19.7809 20.1386 19.943 20.0276 20.0772C19.9166 20.2116 19.7711 20.3131 19.6067 20.3709L12.319 22.9427C12.1127 23.0155 11.8877 23.0155 11.6813 22.9427L4.39364 20.3709C4.22945 20.3129 4.08416 20.2114 3.97334 20.077C3.86252 19.9428 3.79036 19.7808 3.76459 19.6086L1.13815 2.10179C1.11758 1.96531 1.12672 1.82601 1.16494 1.69338C1.20315 1.56076 1.26955 1.43795 1.35959 1.33335C1.44963 1.22875 1.56118 1.14481 1.68664 1.08728C1.81209 1.02975 1.94849 0.999978 2.0865 1H21.9139C22.0519 0.999978 22.1883 1.02975 22.3137 1.08728C22.4392 1.14481 22.5508 1.22875 22.6408 1.33335C22.7309 1.43795 22.7972 1.56076 22.8355 1.69338C22.8736 1.82601 22.8827 1.96531 22.8622 2.10179L20.2367 19.6086Z" stroke="#191919" stroke-linecap="round" stroke-linejoin="round"/>
<path d="M17.2741 4.83557H7.29285C7.22308 4.83544 7.15412 4.85054 7.09078 4.87982C7.02745 4.90909 6.97126 4.95184 6.92616 5.00507C6.88105 5.05831 6.84811 5.12074 6.82962 5.18803C6.81115 5.25531 6.80757 5.32581 6.81915 5.39462L7.61888 10.1892C7.6377 10.301 7.69551 10.4024 7.78205 10.4757C7.86859 10.5488 7.97827 10.589 8.09162 10.589H15.7629C15.832 10.5884 15.9005 10.6025 15.9636 10.6308C16.0267 10.659 16.0829 10.7005 16.1284 10.7526C16.174 10.8046 16.2077 10.8659 16.2274 10.9321C16.2471 10.9984 16.2521 11.0681 16.2424 11.1366L15.4052 16.9936C15.3924 17.0853 15.3532 17.1714 15.2924 17.2413C15.2317 17.3113 15.152 17.3621 15.0629 17.3877L12.1373 18.2229C12.0511 18.2475 11.9598 18.2475 11.8736 18.2229L8.94026 17.3848C8.85285 17.3598 8.77434 17.3105 8.7139 17.2426C8.65346 17.1747 8.61357 17.091 8.59889 17.0013L8.1645 14.4247" stroke="#191919" stroke-linecap="round" stroke-linejoin="round"/>
</g>
<defs>
<clipPath id="clip0_5303_3867">
<rect width="24" height="24" fill="white"/>
</clipPath>
</defs>
</svg>
