<svg width="24" height="24" viewBox="0 0 24 24" fill="none" xmlns="http://www.w3.org/2000/svg">
<g clip-path="url(#clip0_5303_3756)">
<path d="M12.4754 13.6735C15.9085 13.6735 18.6915 10.8906 18.6915 7.45742C18.6915 4.02442 15.9085 1.24133 12.4754 1.24133C9.04237 1.24133 6.25928 4.02442 6.25928 7.45742C6.25928 10.8906 9.04237 13.6735 12.4754 13.6735Z" fill="#C9F7CA"/>
<path d="M7.44844 17.3707L6.3554 15.7335C6.21029 15.4887 5.99093 15.2967 5.72921 15.185C5.46749 15.0732 5.17708 15.048 4.89994 15.1126C4.6228 15.1772 4.37347 15.3283 4.18806 15.5442C4.00275 15.76 3.89092 16.0294 3.86897 16.313V12.7173C3.86897 12.3369 3.71781 11.9719 3.44887 11.7029C3.17993 11.4338 2.81496 11.2828 2.43448 11.2828C2.054 11.2828 1.68914 11.4338 1.4202 11.7029C1.15116 11.9719 1 12.3369 1 12.7173V17.6634C1 18.6405 1.33257 19.5885 1.94295 20.3515L3.86897 22.7586H8.17241V19.7596C8.1728 18.9092 7.92084 18.0778 7.44844 17.3707Z" fill="#FFDDA1"/>
<path d="M21.5608 11.2828C21.1804 11.2828 20.8155 11.4338 20.5464 11.7029C20.2774 11.972 20.1263 12.3369 20.1263 12.7173V16.313C20.1098 16.1117 20.048 15.9167 19.9456 15.7427C19.843 15.5686 19.7025 15.4199 19.5344 15.3079C19.3835 15.2074 19.214 15.1387 19.0358 15.1057C18.8576 15.0725 18.6747 15.0762 18.4979 15.1159C18.3212 15.1557 18.1543 15.2309 18.0075 15.3371C17.8607 15.4433 17.7369 15.5781 17.6437 15.7335L16.5516 17.3707C16.0789 18.0784 15.8269 18.9105 15.8276 19.7616V22.7586H20.1311L22.0571 20.3515C22.6676 19.5885 23.0001 18.6405 23.0001 17.6634V12.7173C23.0001 12.5285 22.9628 12.3416 22.8905 12.1672C22.8181 11.9929 22.7119 11.8345 22.5782 11.7012C22.4445 11.5679 22.2858 11.4623 22.1113 11.3906C21.9367 11.3188 21.7496 11.2822 21.5608 11.2828Z" fill="#FFDDA1"/>
<path d="M3.86897 22.7586L1.94295 20.3515C1.33237 19.5882 0.999805 18.6398 1 17.6624V12.7173C1 12.3369 1.15116 11.9719 1.4202 11.7029C1.68914 11.4338 2.054 11.2828 2.43448 11.2828C2.81496 11.2828 3.17983 11.4338 3.44887 11.7029C3.71781 11.9719 3.86897 12.3369 3.86897 12.7173V16.3035" stroke="#191919" stroke-linecap="round" stroke-linejoin="round"/>
<path d="M8.17205 22.7586V19.7596C8.17283 18.9085 7.92087 18.0764 7.44808 17.3688L6.35504 15.7334C6.26185 15.5781 6.13811 15.4432 5.99125 15.3371C5.84448 15.2309 5.67761 15.1556 5.50089 15.1158C5.32407 15.0761 5.1411 15.0726 4.96291 15.1057C4.78482 15.1387 4.61522 15.2074 4.46445 15.3079C4.19297 15.489 3.99702 15.763 3.91339 16.0784C3.82977 16.3938 3.86412 16.7289 4.0102 17.0207L5.30309 19.1724" stroke="#191919" stroke-linecap="round" stroke-linejoin="round"/>
<path d="M20.1265 22.7586L22.0525 20.3515C22.6632 19.5882 22.9956 18.6398 22.9954 17.6624V12.7173C22.9954 12.3369 22.8444 11.9719 22.5753 11.7029C22.3063 11.4338 21.9413 11.2828 21.5609 11.2828C21.1806 11.2828 20.8156 11.4338 20.5466 11.7029C20.2775 11.9719 20.1265 12.3369 20.1265 12.7173V16.3035" stroke="#191919" stroke-linecap="round" stroke-linejoin="round"/>
<path d="M15.8232 22.7586V19.7596C15.8225 18.9085 16.0745 18.0764 16.5472 17.3688L17.6403 15.7334C17.7334 15.5781 17.8572 15.4432 18.004 15.3371C18.1508 15.2309 18.3177 15.1556 18.4944 15.1158C18.6712 15.0761 18.8542 15.0726 19.0324 15.1057C19.2106 15.1387 19.3801 15.2074 19.5309 15.3079C19.8025 15.4888 19.9987 15.7628 20.0824 16.0782C20.1663 16.3936 20.1321 16.7288 19.9861 17.0207L18.6922 19.1724" stroke="#191919" stroke-linecap="round" stroke-linejoin="round"/>
<path d="M16.3008 3.15399L20.1261 6.97928L16.3008 10.8046" stroke="#191919" stroke-linecap="round" stroke-linejoin="round"/>
<path d="M8.64999 3.15399L4.82471 6.97928L8.64999 10.8046" stroke="#191919" stroke-linecap="round" stroke-linejoin="round"/>
<path d="M13.4317 2.67584L11.519 11.2828" stroke="#191919" stroke-linecap="round" stroke-linejoin="round"/>
</g>
<defs>
<clipPath id="clip0_5303_3756">
<rect width="24" height="24" fill="white"/>
</clipPath>
</defs>
</svg>
