<svg width="24" height="24" viewBox="0 0 24 24" fill="none" xmlns="http://www.w3.org/2000/svg">
<g clip-path="url(#clip0_5303_4011)">
<path d="M5.3045 11.0435C6.12897 11.0435 6.91968 10.7159 7.50268 10.133C8.08567 9.54993 8.41319 8.75922 8.41319 7.93475C8.41319 7.11027 8.08567 6.31956 7.50268 5.73657C6.91968 5.15357 6.12897 4.82605 5.3045 4.82605C4.48002 4.82605 3.68931 5.15357 3.10632 5.73657C2.52332 6.31956 2.1958 7.11027 2.1958 7.93475C2.1958 8.75922 2.52332 9.54993 3.10632 10.133C3.68931 10.7159 4.48002 11.0435 5.3045 11.0435Z" fill="#FFBC44" stroke="#191919" stroke-linecap="round" stroke-linejoin="round"/>
<path d="M7.12223 23L7.69614 20.1304H9.60918V16.7826C9.60918 15.641 9.15569 14.5462 8.34847 13.739C7.54125 12.9318 6.44642 12.4783 5.30484 12.4783C4.16325 12.4783 3.06842 12.9318 2.2612 13.739C1.45398 14.5462 1.00049 15.641 1.00049 16.7826V20.1304H2.91353L3.48744 23" fill="#66E1FF"/>
<path d="M7.12223 23L7.69614 20.1304H9.60918V16.7826C9.60918 15.641 9.15569 14.5462 8.34847 13.739C7.54125 12.9318 6.44642 12.4783 5.30484 12.4783C4.16325 12.4783 3.06842 12.9318 2.2612 13.739C1.45398 14.5462 1.00049 15.641 1.00049 16.7826V20.1304H2.91353L3.48744 23" stroke="#191919" stroke-linecap="round" stroke-linejoin="round"/>
<path d="M22.9997 9.6087C22.9997 9.86238 22.899 10.1057 22.7196 10.2851C22.5402 10.4644 22.2969 10.5652 22.0432 10.5652H16.7824L13.4345 13.4348V10.5652H12.478C12.2243 10.5652 11.981 10.4644 11.8016 10.2851C11.6223 10.1057 11.5215 9.86238 11.5215 9.6087V1.95652C11.5215 1.70284 11.6223 1.45954 11.8016 1.28016C11.981 1.10078 12.2243 1 12.478 1H22.0432C22.2969 1 22.5402 1.10078 22.7196 1.28016C22.899 1.45954 22.9997 1.70284 22.9997 1.95652V9.6087Z" fill="#66E1FF"/>
<path d="M12.478 10.5652H13.1954L22.5894 1.17122C22.4291 1.05973 22.2385 0.999986 22.0432 1H12.478C12.2243 1 11.981 1.10078 11.8016 1.28016C11.6223 1.45954 11.5215 1.70284 11.5215 1.95652V9.6087C11.5215 9.86238 11.6223 10.1057 11.8016 10.2851C11.981 10.4644 12.2243 10.5652 12.478 10.5652Z" fill="#C2F3FF"/>
<path d="M22.9997 9.6087C22.9997 9.86238 22.899 10.1057 22.7196 10.2851C22.5402 10.4644 22.2969 10.5652 22.0432 10.5652H16.7824L13.4345 13.4348V10.5652H12.478C12.2243 10.5652 11.981 10.4644 11.8016 10.2851C11.6223 10.1057 11.5215 9.86238 11.5215 9.6087V1.95652C11.5215 1.70284 11.6223 1.45954 11.8016 1.28016C11.981 1.10078 12.2243 1 12.478 1H22.0432C22.2969 1 22.5402 1.10078 22.7196 1.28016C22.899 1.45954 22.9997 1.70284 22.9997 1.95652V9.6087Z" stroke="#191919" stroke-linecap="round" stroke-linejoin="round"/>
<path d="M5.3045 11.0435C6.12897 11.0435 6.91968 10.7159 7.50268 10.133C8.08567 9.54993 8.41319 8.75922 8.41319 7.93475C8.41319 7.11027 8.08567 6.31956 7.50268 5.73657C6.91968 5.15357 6.12897 4.82605 5.3045 4.82605C4.48002 4.82605 3.68931 5.15357 3.10632 5.73657C2.52332 6.31956 2.1958 7.11027 2.1958 7.93475C2.1958 8.75922 2.52332 9.54993 3.10632 10.133C3.68931 10.7159 4.48002 11.0435 5.3045 11.0435Z" fill="#E3E3E3" stroke="#191919" stroke-linecap="round" stroke-linejoin="round"/>
<path d="M7.12223 23L7.69614 20.1304H9.60918V16.7826C9.60918 15.641 9.15569 14.5462 8.34847 13.739C7.54125 12.9318 6.44642 12.4783 5.30484 12.4783C4.16325 12.4783 3.06842 12.9318 2.2612 13.739C1.45398 14.5462 1.00049 15.641 1.00049 16.7826V20.1304H2.91353L3.48744 23" fill="#E3E3E3"/>
<path d="M7.12223 23L7.69614 20.1304H9.60918V16.7826C9.60918 15.641 9.15569 14.5462 8.34847 13.739C7.54125 12.9318 6.44642 12.4783 5.30484 12.4783C4.16325 12.4783 3.06842 12.9318 2.2612 13.739C1.45398 14.5462 1.00049 15.641 1.00049 16.7826V20.1304H2.91353L3.48744 23" stroke="#191919" stroke-linecap="round" stroke-linejoin="round"/>
<path d="M14.3911 3.3913L16.3042 5.30434L14.3911 7.21738" stroke="#191919" stroke-linecap="round" stroke-linejoin="round"/>
<path d="M17.2607 6.73914H21.0868" stroke="#191919" stroke-linecap="round" stroke-linejoin="round"/>
</g>
<defs>
<clipPath id="clip0_5303_4011">
<rect width="24" height="24" fill="white"/>
</clipPath>
</defs>
</svg>
