<svg width="24" height="24" viewBox="0 0 24 24" fill="none" xmlns="http://www.w3.org/2000/svg">
<path d="M19.174 4.82609V1.95652C19.174 1.70284 19.0732 1.45954 18.8938 1.28016C18.7144 1.10078 18.4711 1 18.2175 1H5.78267C5.2753 1 4.78871 1.20155 4.42995 1.56032C4.07118 1.91908 3.86963 2.40567 3.86963 2.91304C3.86963 3.42041 4.07118 3.907 4.42995 4.26577C4.78871 4.62453 5.2753 4.82609 5.78267 4.82609H19.174Z" fill="#E3E3E3"/>
<path d="M3.86963 2.91296C3.86963 3.42034 4.07118 3.90693 4.42995 4.26569C4.78871 4.62446 5.2753 4.82601 5.78267 4.82601H19.174C19.4277 4.82601 19.671 4.92678 19.8503 5.10617C20.0297 5.28555 20.1305 5.52884 20.1305 5.78253V22.0434C20.1305 22.2971 20.0297 22.5404 19.8503 22.7198C19.671 22.8992 19.4277 22.9999 19.174 22.9999H5.78267C5.2753 22.9999 4.78871 22.7984 4.42995 22.4396C4.07118 22.0809 3.86963 21.5943 3.86963 21.0869V2.91296Z" fill="#FFEF5E"/>
<path d="M19.174 4.82601H5.78267C5.2753 4.82601 4.78871 4.62446 4.42995 4.26569C4.07118 3.90693 3.86963 3.42034 3.86963 2.91296V5.78253C3.86963 6.2899 4.07118 6.77649 4.42995 7.13526C4.78871 7.49402 5.2753 7.69557 5.78267 7.69557H19.174C19.4277 7.69557 19.671 7.79635 19.8503 7.97573C20.0297 8.15511 20.1305 8.39841 20.1305 8.65209V5.78253C20.1305 5.52884 20.0297 5.28555 19.8503 5.10617C19.671 4.92678 19.4277 4.82601 19.174 4.82601Z" fill="#FFF9BF"/>
<path d="M5.78223 2.91296H16.304C16.5576 2.91296 16.8009 3.01374 16.9803 3.19312C17.1597 3.37251 17.2605 3.6158 17.2605 3.86949V4.82601" stroke="#191919" stroke-linecap="round" stroke-linejoin="round"/>
<path d="M19.174 4.82609V1.95652C19.174 1.70284 19.0732 1.45954 18.8938 1.28016C18.7144 1.10078 18.4711 1 18.2175 1H5.78267C5.2753 1 4.78871 1.20155 4.42995 1.56032C4.07118 1.91908 3.86963 2.40567 3.86963 2.91304M19.174 4.82609H5.78267C5.2753 4.82609 4.78871 4.62453 4.42995 4.26577C4.07118 3.907 3.86963 3.42041 3.86963 2.91304M19.174 4.82609C19.4277 4.82609 19.671 4.92686 19.8503 5.10625C20.0297 5.28563 20.1305 5.52892 20.1305 5.78261V22.0435C20.1305 22.2972 20.0297 22.5405 19.8503 22.7198C19.671 22.8992 19.4277 23 19.174 23H5.78267C5.2753 23 4.78871 22.7984 4.42995 22.4397C4.07118 22.0809 3.86963 21.5943 3.86963 21.087V2.91304" stroke="#191919" stroke-linecap="round" stroke-linejoin="round"/>
<path d="M7.69531 10.569L10.0866 12.9603L7.69531 15.3516" stroke="#191919" stroke-linecap="round" stroke-linejoin="round"/>
<path d="M12.4785 14.3951H16.3046" stroke="#191919" stroke-linecap="round" stroke-linejoin="round"/>
</svg>
