<svg width="24" height="24" viewBox="0 0 24 24" fill="none" xmlns="http://www.w3.org/2000/svg">
<g clip-path="url(#clip0_5303_8467)">
<path d="M4.34766 23H22.0433C22.297 23 22.5403 22.8992 22.7196 22.7198C22.899 22.5404 22.9998 22.2971 22.9998 22.0435V4.82609C22.9998 4.5724 22.899 4.32911 22.7196 4.14973C22.5403 3.97034 22.297 3.86957 22.0433 3.86957H4.34766V23Z" fill="#66E1FF"/>
<path d="M1.00049 19.6521V4.34782C1.00049 3.45992 1.3532 2.60839 1.98104 1.98055C2.60888 1.35272 3.46041 1 4.34831 1C5.23621 1 6.08774 1.35272 6.71558 1.98055C7.34341 2.60839 7.69613 3.45992 7.69613 4.34782V19.6521H1.00049Z" fill="#66E1FF"/>
<path d="M4.34831 1C3.90867 1 3.47333 1.08659 3.06715 1.25484C2.66098 1.42308 2.29192 1.66968 1.98104 1.98055C1.3532 2.60839 1.00049 3.45992 1.00049 4.34782V19.6521H4.34831V1Z" fill="#C2F3FF"/>
<path d="M14.5479 8.94488C14.6359 8.86503 14.7505 8.8208 14.8693 8.8208C14.9881 8.8208 15.1027 8.86503 15.1907 8.94488L18.2171 11.6958V16.7826C18.2171 16.8454 18.2048 16.9076 18.1807 16.9656C18.1567 17.0237 18.1215 17.0764 18.077 17.1208C18.0326 17.1652 17.9799 17.2004 17.9219 17.2245C17.8639 17.2485 17.8017 17.2609 17.7389 17.2609H11.9997C11.9369 17.2609 11.8747 17.2485 11.8167 17.2245C11.7587 17.2004 11.706 17.1652 11.6616 17.1208C11.6172 17.0764 11.5819 17.0237 11.5579 16.9656C11.5339 16.9076 11.5215 16.8454 11.5215 16.7826V11.6958L14.5479 8.94488Z" fill="white"/>
<path d="M13.4351 17.2609V14.8696C13.4351 14.4891 13.5862 14.1241 13.8553 13.8551C14.1244 13.586 14.4893 13.4348 14.8698 13.4348C15.2504 13.4348 15.6153 13.586 15.8844 13.8551C16.1535 14.1241 16.3046 14.4891 16.3046 14.8696V17.2609H13.4351Z" fill="#D480FF" stroke="#191919" stroke-linecap="round" stroke-linejoin="round"/>
<path d="M11.5215 11.6959V16.7826C11.5215 16.8454 11.5339 16.9076 11.5579 16.9657C11.5819 17.0237 11.6172 17.0764 11.6616 17.1208C11.706 17.1652 11.7587 17.2005 11.8167 17.2245C11.8747 17.2485 11.9369 17.2609 11.9997 17.2609H17.7389C17.8017 17.2609 17.8639 17.2485 17.9219 17.2245C17.9799 17.2005 18.0326 17.1652 18.077 17.1208C18.1215 17.0764 18.1567 17.0237 18.1807 16.9657C18.2048 16.9076 18.2171 16.8454 18.2171 16.7826V11.6959" stroke="#191919" stroke-linecap="round" stroke-linejoin="round"/>
<path d="M9.60938 13.4348L14.5488 8.94488C14.6368 8.86503 14.7514 8.8208 14.8702 8.8208C14.9891 8.8208 15.1036 8.86503 15.1916 8.94488L20.1311 13.4348" stroke="#191919" stroke-linecap="round" stroke-linejoin="round"/>
<path d="M4.34831 23C5.23621 23 6.08774 22.6473 6.71558 22.0195C7.34341 21.3916 7.69613 20.5401 7.69613 19.6522C7.69613 18.7643 7.34341 17.9128 6.71558 17.2849C6.08774 16.6571 5.23621 16.3044 4.34831 16.3044C3.46041 16.3044 2.60888 16.6571 1.98104 17.2849C1.3532 17.9128 1.00049 18.7643 1.00049 19.6522C1.00049 20.5401 1.3532 21.3916 1.98104 22.0195C2.60888 22.6473 3.46041 23 4.34831 23Z" fill="#C2F3FF" stroke="#191919" stroke-linecap="round" stroke-linejoin="round"/>
<path d="M4.34787 21.0869C4.72839 21.0869 5.09334 20.9357 5.36241 20.6667C5.63148 20.3976 5.78265 20.0327 5.78265 19.6521C5.78265 19.2716 5.63148 18.9067 5.36241 18.6376C5.09334 18.3685 4.72839 18.2173 4.34787 18.2173C3.96734 18.2173 3.6024 18.3685 3.33332 18.6376C3.06425 18.9067 2.91309 19.2716 2.91309 19.6521C2.91309 20.0327 3.06425 20.3976 3.33332 20.6667C3.6024 20.9357 3.96734 21.0869 4.34787 21.0869Z" fill="#66E1FF" stroke="#191919" stroke-linecap="round" stroke-linejoin="round"/>
<path d="M1.00049 19.6521V4.34782C1.00049 3.45992 1.3532 2.60839 1.98104 1.98055C2.60888 1.35272 3.46041 1 4.34831 1C5.23621 1 6.08774 1.35272 6.71558 1.98055C7.34341 2.60839 7.69613 3.45992 7.69613 4.34782V19.6521" stroke="#191919" stroke-linecap="round" stroke-linejoin="round"/>
<path d="M4.34766 23H22.0433C22.297 23 22.5403 22.8992 22.7196 22.7198C22.899 22.5404 22.9998 22.2971 22.9998 22.0435V4.82609C22.9998 4.5724 22.899 4.32911 22.7196 4.14973C22.5403 3.97034 22.297 3.86957 22.0433 3.86957H10.0868" stroke="#191919" stroke-linecap="round" stroke-linejoin="round"/>
</g>
<defs>
<clipPath id="clip0_5303_8467">
<rect width="24" height="24" fill="white"/>
</clipPath>
</defs>
</svg>
