<svg width="24" height="24" viewBox="0 0 24 24" fill="none" xmlns="http://www.w3.org/2000/svg">
<g clip-path="url(#clip0_5303_12157)">
<path d="M18.8327 10.5423C18.7913 10.4677 18.7307 10.4057 18.6572 10.3624C18.5837 10.3192 18.5 10.2964 18.4147 10.2964H14.8699C14.743 10.2964 14.6214 10.3468 14.5316 10.4365C14.442 10.5262 14.3916 10.6479 14.3916 10.7747V14.6008H21.0873L18.8327 10.5423Z" fill="#66E1FF"/>
<path d="M18.8968 10.6609L18.8327 10.5451C18.7913 10.4706 18.7307 10.4085 18.6572 10.3654C18.5837 10.3222 18.5 10.2993 18.4147 10.2993H14.8699C14.743 10.2993 14.6214 10.3497 14.5316 10.4394C14.442 10.5292 14.3916 10.6507 14.3916 10.7776V14.6036H14.954L18.8968 10.6609Z" fill="#C2F3FF"/>
<path d="M23.0003 18.9051V16.7118C23.0003 16.6489 22.9879 16.5866 22.9638 16.5285C22.9396 16.4704 22.9043 16.4176 22.8597 16.3732L21.0873 14.6008H14.3916V18.9051H23.0003Z" fill="#FF808C"/>
<path d="M14.3901 12.2095H11.5215V18.9013H14.3901V12.2095Z" fill="#808080"/>
<path d="M23 20.34C23 20.4668 22.9496 20.5885 22.86 20.6781C22.7702 20.7679 22.6486 20.8183 22.5217 20.8183H1.47826C1.35142 20.8183 1.22977 20.7679 1.14008 20.6781C1.05039 20.5885 1 20.4668 1 20.34V18.9052H23V20.34Z" fill="#6B6B6B"/>
<path d="M1 18.9051V10.7747C1 10.6479 1.05039 10.5262 1.14008 10.4365C1.22977 10.3468 1.35142 10.2964 1.47826 10.2964H11.0435C11.1703 10.2964 11.292 10.3468 11.3817 10.4365C11.4713 10.5262 11.5217 10.6479 11.5217 10.7747V18.9051H1Z" fill="#FF808C"/>
<path d="M11.0435 10.2964H1.47826C1.35142 10.2964 1.22977 10.3468 1.14008 10.4365C1.05039 10.5262 1 10.6479 1 10.7747V12.9565C1 12.8297 1.05039 12.708 1.14008 12.6183C1.22977 12.5287 1.35142 12.4783 1.47826 12.4783H11.0435C11.1703 12.4783 11.292 12.5287 11.3817 12.6183C11.4713 12.708 11.5217 12.8297 11.5217 12.9565V10.7747C11.5217 10.6479 11.4713 10.5262 11.3817 10.4365C11.292 10.3468 11.1703 10.2964 11.0435 10.2964Z" fill="#FFBFC5"/>
<path d="M18.6953 22.7313C19.7518 22.7313 20.6083 21.8748 20.6083 20.8183C20.6083 19.7617 19.7518 18.9052 18.6953 18.9052C17.6387 18.9052 16.7822 19.7617 16.7822 20.8183C16.7822 21.8748 17.6387 22.7313 18.6953 22.7313Z" fill="#808080" stroke="#191919" stroke-linecap="round" stroke-linejoin="round"/>
<path d="M5.30465 22.7313C6.36119 22.7313 7.21769 21.8748 7.21769 20.8183C7.21769 19.7617 6.36119 18.9052 5.30465 18.9052C4.2481 18.9052 3.3916 19.7617 3.3916 20.8183C3.3916 21.8748 4.2481 22.7313 5.30465 22.7313Z" fill="#808080" stroke="#191919" stroke-linecap="round" stroke-linejoin="round"/>
<path d="M3.3913 20.8182H1.47826C1.35142 20.8182 1.22977 20.7678 1.14008 20.678C1.05039 20.5884 1 20.4667 1 20.3399V10.7747C1 10.6479 1.05039 10.5262 1.14008 10.4365C1.22977 10.3468 1.35142 10.2964 1.47826 10.2964H11.0435C11.1703 10.2964 11.292 10.3468 11.3817 10.4365C11.4713 10.5262 11.5217 10.6479 11.5217 10.7747V18.9051" stroke="#191919" stroke-linecap="round" stroke-linejoin="round"/>
<path d="M16.783 20.8182H7.21777" stroke="#191919" stroke-linecap="round" stroke-linejoin="round"/>
<path d="M20.609 20.8182H22.522C22.6489 20.8182 22.7705 20.7678 22.8603 20.678C22.9499 20.5884 23.0003 20.4667 23.0003 20.3399V16.7118C23.0003 16.6489 22.9879 16.5866 22.9638 16.5285C22.9396 16.4704 22.9043 16.4176 22.8597 16.3732L21.0873 14.6008L18.8327 10.5423C18.7913 10.4677 18.7307 10.4057 18.6572 10.3624C18.5837 10.3192 18.5 10.2964 18.4147 10.2964H14.8699C14.743 10.2964 14.6214 10.3468 14.5316 10.4365C14.442 10.5262 14.3916 10.6479 14.3916 10.7747V18.9051" stroke="#191919" stroke-linecap="round" stroke-linejoin="round"/>
<path d="M23 18.9052H1" stroke="#191919" stroke-linecap="round" stroke-linejoin="round"/>
<path d="M14.391 12.2095H11.5215" stroke="#191919" stroke-linecap="round" stroke-linejoin="round"/>
<path d="M22.5222 1.2688L1.67285 10.2964" stroke="#191919" stroke-linecap="round" stroke-linejoin="round"/>
<path d="M21.0873 14.6008H14.3916" stroke="#191919" stroke-linecap="round" stroke-linejoin="round"/>
<path d="M15.3477 10.2964V9.33994C15.3477 9.08626 15.4485 8.84296 15.6278 8.66359C15.8072 8.4842 16.0505 8.38342 16.3042 8.38342H17.2607C17.5144 8.38342 17.7577 8.4842 17.9371 8.66359C18.1164 8.84296 18.2172 9.08626 18.2172 9.33994V10.2964H15.3477Z" fill="#FF808C" stroke="#191919" stroke-linecap="round" stroke-linejoin="round"/>
</g>
<defs>
<clipPath id="clip0_5303_12157">
<rect width="24" height="24" fill="white"/>
</clipPath>
</defs>
</svg>
