<svg width="24" height="24" viewBox="0 0 24 24" fill="none" xmlns="http://www.w3.org/2000/svg">
<g clip-path="url(#clip0_5303_13141)">
<mask id="mask0_5303_13141" style="mask-type:luminance" maskUnits="userSpaceOnUse" x="0" y="0" width="24" height="24">
<path d="M0 0H24V24H0V0Z" fill="white"/>
</mask>
<g mask="url(#mask0_5303_13141)">
<path d="M23 9.6086V15.3477H1V9.6086C1.00151 9.1017 1.20355 8.61598 1.56199 8.25755C1.92043 7.89911 2.40614 7.69707 2.91304 7.69556H21.087C21.5939 7.69707 22.0796 7.89911 22.438 8.25755C22.7964 8.61598 22.9985 9.1017 23 9.6086Z" fill="#808080"/>
<path d="M21.087 7.69556H2.91304C2.40614 7.69707 1.92043 7.89911 1.56199 8.25755C1.20355 8.61598 1.00151 9.1017 1 9.6086V12.2027C1.00151 11.6958 1.20355 11.2101 1.56199 10.8516C1.92043 10.4932 2.40614 10.2912 2.91304 10.2896H21.087C21.5939 10.2912 22.0796 10.4932 22.438 10.8516C22.7964 11.2101 22.9985 11.6958 23 12.2027V9.6086C22.9985 9.1017 22.7964 8.61598 22.438 8.25755C22.0796 7.89911 21.5939 7.69707 21.087 7.69556Z" fill="#B2B2B2"/>
<path d="M23 15.3478V19.1739C22.9985 19.6808 22.7964 20.1665 22.438 20.5249C22.0796 20.8834 21.5939 21.0854 21.087 21.0869H2.91304C2.40614 21.0854 1.92043 20.8834 1.56199 20.5249C1.20355 20.1665 1.00151 19.6808 1 19.1739V15.3478H23Z" fill="white"/>
<path d="M23 15.3478V19.1739C22.9985 19.6808 22.7964 20.1665 22.438 20.5249C22.0796 20.8834 21.5939 21.0854 21.087 21.0869H2.91304C2.40614 21.0854 1.92043 20.8834 1.56199 20.5249C1.20355 20.1665 1.00151 19.6808 1 19.1739V15.3478H23Z" stroke="#191919" stroke-linecap="round" stroke-linejoin="round"/>
<path d="M3.86963 21.0869V23" stroke="#191919" stroke-linecap="round" stroke-linejoin="round"/>
<path d="M20.1299 21.0869V23" stroke="#191919" stroke-linecap="round" stroke-linejoin="round"/>
<path d="M4.34717 12.4783H19.6515" stroke="#191919" stroke-linecap="round" stroke-linejoin="round"/>
<path d="M4.34717 10.5652H19.6515" stroke="#191919" stroke-linecap="round" stroke-linejoin="round"/>
<path d="M5.78223 18.2174H18.217" stroke="#191919" stroke-linecap="round" stroke-linejoin="round"/>
<path d="M5.78223 7.69559V3.86951" stroke="#191919" stroke-linecap="round" stroke-linejoin="round"/>
<path d="M5.78223 1V1.95652" stroke="#191919" stroke-linecap="round" stroke-linejoin="round"/>
<path d="M7.69531 3.86951H8.65183" stroke="#191919" stroke-linecap="round" stroke-linejoin="round"/>
<path d="M2.9126 3.86951H3.86912" stroke="#191919" stroke-linecap="round" stroke-linejoin="round"/>
<path d="M23 9.6086V15.3477H1V9.6086C1.00151 9.1017 1.20355 8.61598 1.56199 8.25755C1.92043 7.89911 2.40614 7.69707 2.91304 7.69556H21.087C21.5939 7.69707 22.0796 7.89911 22.438 8.25755C22.7964 8.61598 22.9985 9.1017 23 9.6086Z" stroke="#191919" stroke-linecap="round" stroke-linejoin="round"/>
<path d="M3.39147 18.4564C3.32805 18.4564 3.26723 18.4312 3.22238 18.3864C3.17754 18.3415 3.15234 18.2807 3.15234 18.2173C3.15234 18.1539 3.17754 18.093 3.22238 18.0482C3.26723 18.0033 3.32805 17.9781 3.39147 17.9781" stroke="#191919"/>
<path d="M3.39111 18.4564C3.45453 18.4564 3.51536 18.4312 3.5602 18.3864C3.60505 18.3415 3.63024 18.2807 3.63024 18.2173C3.63024 18.1539 3.60505 18.093 3.5602 18.0482C3.51536 18.0033 3.45453 17.9781 3.39111 17.9781" stroke="#191919"/>
<path d="M20.6088 18.4564C20.5453 18.4564 20.4845 18.4312 20.4397 18.3864C20.3948 18.3415 20.3696 18.2807 20.3696 18.2173C20.3696 18.1539 20.3948 18.093 20.4397 18.0482C20.4845 18.0033 20.5453 17.9781 20.6088 17.9781" stroke="#191919"/>
<path d="M20.6084 18.4564C20.6718 18.4564 20.7326 18.4312 20.7775 18.3864C20.8223 18.3415 20.8475 18.2807 20.8475 18.2173C20.8475 18.1539 20.8223 18.093 20.7775 18.0482C20.7326 18.0033 20.6718 17.9781 20.6084 17.9781" stroke="#191919"/>
</g>
</g>
<defs>
<clipPath id="clip0_5303_13141">
<rect width="24" height="24" fill="white"/>
</clipPath>
</defs>
</svg>
