<svg width="24" height="24" viewBox="0 0 24 24" fill="none" xmlns="http://www.w3.org/2000/svg">
<g clip-path="url(#clip0_5303_8048)">
<path d="M19.3171 8.35008C19.0865 8.35025 18.8609 8.28182 18.6693 8.15348L17.265 7.21731L14.2225 5.48165L12.0693 5.05008C11.916 5.02262 11.7699 4.96488 11.6393 4.88024C11.5087 4.79559 11.3963 4.68574 11.3087 4.55711C11.221 4.42848 11.1599 4.28366 11.1289 4.13113C11.0979 3.9786 11.0976 3.82143 11.1282 3.6688C11.1587 3.51618 11.2193 3.37118 11.3066 3.24228C11.3938 3.11338 11.5059 3.0032 11.6363 2.91815C11.7666 2.83309 11.9127 2.77491 12.0657 2.74699C12.2189 2.71906 12.3761 2.72196 12.528 2.75552L14.8684 3.22361C14.9918 3.24819 15.1104 3.29278 15.2195 3.35561L18.4961 5.22795L19.9668 6.20625C20.1758 6.34561 20.3345 6.5485 20.4192 6.78496C20.5039 7.02142 20.5104 7.27886 20.4375 7.51926C20.3647 7.75965 20.2164 7.97023 20.0147 8.11984C19.8128 8.26946 19.5683 8.35018 19.3171 8.35008Z" fill="#E3E3E3"/>
<path d="M22.9999 16.5884V9.099L14.7157 7.83611C14.5823 7.81574 14.4461 7.82444 14.3164 7.86161C14.1867 7.89879 14.0666 7.96356 13.9643 8.0515C13.8619 8.13943 13.7798 8.24845 13.7235 8.37108C13.6672 8.49371 13.6381 8.62706 13.6382 8.76198V16.9254C13.6381 17.0603 13.6672 17.1937 13.7235 17.3163C13.7798 17.4389 13.8619 17.5479 13.9643 17.6359C14.0666 17.7239 14.1867 17.7885 14.3164 17.8258C14.4461 17.863 14.5823 17.8717 14.7157 17.8513L22.9999 16.5884Z" fill="#E3E3E3"/>
<path d="M12.4147 17.1735C12.3215 16.8777 12.1149 16.6309 11.8401 16.4871C11.5654 16.3432 11.2449 16.314 10.9487 16.4058L7.8874 17.3654L1.1966 18.9606C1.12838 18.9858 1.06258 19.0172 1 19.0542V21.1616C1.14652 21.2308 1.30602 21.2685 1.46809 21.272C1.55982 21.2719 1.65124 21.2613 1.74051 21.2402L8.50902 19.6253L11.648 18.6442C11.7951 18.5982 11.9317 18.5237 12.0499 18.4249C12.1681 18.326 12.2657 18.2048 12.3369 18.0681C12.4082 17.9314 12.4517 17.7821 12.4651 17.6286C12.4784 17.475 12.4613 17.3204 12.4147 17.1735Z" fill="#E3E3E3"/>
<path d="M10.3617 13.5047L7.42306 13.8033L3.49115 13.9699H1.14885C1.0987 13.9757 1.04898 13.9848 1 13.9971V16.2776C1.04891 16.2908 1.09863 16.3008 1.14885 16.3075H3.53796L7.58877 16.1353L10.5986 15.8348C10.9076 15.8034 11.1914 15.6505 11.3877 15.4098C11.584 15.1691 11.6766 14.8603 11.6452 14.5513C11.6138 14.2423 11.461 13.9584 11.2202 13.7622C10.9795 13.5659 10.6707 13.4733 10.3617 13.5047Z" fill="#E3E3E3"/>
<path d="M10.9468 9.80677L7.86868 9.50158L3.83753 9.33307H1.49711C1.32453 9.33534 1.15466 9.37629 1 9.4529V11.5565C1.15466 11.6331 1.32453 11.6741 1.49711 11.6763H3.78885L7.70392 11.8392L10.7128 12.1397C10.7527 12.1435 10.7921 12.1453 10.8307 12.1453C11.1313 12.1457 11.4205 12.0305 11.6384 11.8234C11.8563 11.6164 11.9861 11.3334 12.001 11.0332C12.016 10.733 11.9148 10.4386 11.7186 10.2109C11.5223 9.98331 11.2459 9.83993 10.9468 9.81052V9.80677Z" fill="#E3E3E3"/>
<path d="M11.6471 7.02258L8.43038 6.02087L1.73957 4.42751C1.49058 4.37185 1.2301 4.40153 1 4.51176V6.61253C1.06239 6.64995 1.12823 6.68129 1.1966 6.70615L7.8097 8.27985L10.9487 9.26096C11.0621 9.29439 11.1797 9.31079 11.2979 9.30965C11.5773 9.30886 11.8472 9.2082 12.059 9.02584C12.2706 8.84347 12.4102 8.59142 12.4524 8.31519C12.4945 8.03896 12.4365 7.75676 12.2888 7.51955C12.1412 7.28233 11.9135 7.10667 11.6471 7.02258Z" fill="#E3E3E3"/>
<path d="M23 9.09903V16.5884" stroke="#191919" stroke-linecap="round" stroke-linejoin="round"/>
<path d="M21.1274 9.09903V16.5884" stroke="#191919" stroke-linecap="round" stroke-linejoin="round"/>
<path d="M19.2553 7.2267L17.8511 6.29053" stroke="#191919" stroke-linecap="round" stroke-linejoin="round"/>
<path d="M14.5743 4.41819L12.2339 3.9501" stroke="#191919" stroke-linecap="round" stroke-linejoin="round"/>
<path d="M15.5107 8.63095L18.7873 9.09904" stroke="#191919" stroke-linecap="round" stroke-linejoin="round"/>
<path d="M15.5107 11.4395H18.7873" stroke="#191919" stroke-linecap="round" stroke-linejoin="round"/>
<path d="M15.5107 17.0565L18.7873 16.5884" stroke="#191919" stroke-linecap="round" stroke-linejoin="round"/>
<path d="M15.5107 14.248H18.7873" stroke="#191919" stroke-linecap="round" stroke-linejoin="round"/>
<path d="M13.6382 8.63095V11.4395" stroke="#191919" stroke-linecap="round" stroke-linejoin="round"/>
<path d="M13.6382 17.0565V14.248" stroke="#191919" stroke-linecap="round" stroke-linejoin="round"/>
<path d="M16.2126 5.35435C16.0833 5.35435 15.9785 5.24956 15.9785 5.1203C15.9785 4.99105 16.0833 4.88626 16.2126 4.88626" stroke="#191919"/>
<path d="M16.2129 5.35435C16.3422 5.35435 16.4469 5.24956 16.4469 5.1203C16.4469 4.99105 16.3422 4.88626 16.2129 4.88626" stroke="#191919"/>
<path d="M6.38297 6.99265C6.25371 6.99265 6.14893 6.88787 6.14893 6.75861C6.14893 6.62935 6.25371 6.52457 6.38297 6.52457" stroke="#191919"/>
<path d="M6.38281 6.99265C6.51207 6.99265 6.61686 6.88787 6.61686 6.75861C6.61686 6.62935 6.51207 6.52457 6.38281 6.52457" stroke="#191919"/>
<path d="M5.81461 10.7392C5.68535 10.7392 5.58057 10.6344 5.58057 10.5052C5.58057 10.3759 5.68535 10.2711 5.81461 10.2711" stroke="#191919"/>
<path d="M5.81445 10.7392C5.94371 10.7392 6.0485 10.6344 6.0485 10.5052C6.0485 10.3759 5.94371 10.2711 5.81445 10.2711" stroke="#191919"/>
<path d="M4.62971 6.34106L1.46826 5.58838" stroke="#191919" stroke-linecap="round" stroke-linejoin="round"/>
<path d="M11.2977 8.1629L8.15869 7.18179" stroke="#191919" stroke-linecap="round" stroke-linejoin="round"/>
<path d="M3.83799 10.5033H1.49756" stroke="#191919" stroke-linecap="round" stroke-linejoin="round"/>
<path d="M10.8301 10.9714L7.82031 10.6709" stroke="#191919" stroke-linecap="round" stroke-linejoin="round"/>
<path d="M6.38297 19.1628C6.25371 19.1628 6.14893 19.0581 6.14893 18.9288C6.14893 18.7995 6.25371 18.6948 6.38297 18.6948" stroke="#191919"/>
<path d="M6.38281 19.1628C6.51207 19.1628 6.61686 19.0581 6.61686 18.9288C6.61686 18.7995 6.51207 18.6948 6.38281 18.6948" stroke="#191919"/>
<path d="M5.81461 15.3711C5.68535 15.3711 5.58057 15.2663 5.58057 15.1371C5.58057 15.0078 5.68535 14.903 5.81461 14.903" stroke="#191919"/>
<path d="M5.81445 15.3711C5.94371 15.3711 6.0485 15.2663 6.0485 15.1371C6.0485 15.0078 5.94371 14.903 5.81445 14.903" stroke="#191919"/>
<path d="M4.62971 19.3463L1.46826 20.099" stroke="#191919" stroke-linecap="round" stroke-linejoin="round"/>
<path d="M11.2977 17.5246L8.15869 18.5057" stroke="#191919" stroke-linecap="round" stroke-linejoin="round"/>
<path d="M3.83799 15.1841H1.49756" stroke="#191919" stroke-linecap="round" stroke-linejoin="round"/>
<path d="M10.8301 14.7161L7.82031 15.0166" stroke="#191919" stroke-linecap="round" stroke-linejoin="round"/>
</g>
<defs>
<clipPath id="clip0_5303_8048">
<rect width="24" height="24" fill="white"/>
</clipPath>
</defs>
</svg>
