<svg width="24" height="24" viewBox="0 0 24 24" fill="none" xmlns="http://www.w3.org/2000/svg">
<path d="M12.0002 22.5426C17.8222 22.5426 22.5418 17.8229 22.5418 12.0009C22.5418 6.17889 17.8222 1.45923 12.0002 1.45923C6.17817 1.45923 1.4585 6.17889 1.4585 12.0009C1.4585 17.8229 6.17817 22.5426 12.0002 22.5426Z" fill="#FFEF5E"/>
<path d="M12.0002 22.5416C9.20434 22.5416 6.52302 21.431 4.54608 19.454C2.56913 17.4772 1.4585 14.7958 1.4585 12C1.4585 9.20416 2.56913 6.52284 4.54608 4.54589C6.52302 2.56895 9.20434 1.45831 12.0002 1.45831V22.5416Z" fill="#FFF9BF"/>
<path d="M12.0002 22.5426C17.8222 22.5426 22.5418 17.8229 22.5418 12.0009C22.5418 6.17889 17.8222 1.45923 12.0002 1.45923C6.17817 1.45923 1.4585 6.17889 1.4585 12.0009C1.4585 17.8229 6.17817 22.5426 12.0002 22.5426Z" stroke="#191919" stroke-linecap="round" stroke-linejoin="round"/>
<path d="M13.375 12C13.375 12.3647 13.2302 12.7144 12.9723 12.9723C12.7144 13.2302 12.3647 13.375 12 13.375C11.6353 13.375 11.2856 13.2302 11.0277 12.9723C10.7698 12.7144 10.625 12.3647 10.625 12C10.625 11.6353 10.7698 11.2856 11.0277 11.0277C11.2856 10.7698 11.6353 10.625 12 10.625C12.3647 10.625 12.7144 10.7698 12.9723 11.0277C13.2302 11.2856 13.375 11.6353 13.375 12Z" fill="#808080"/>
<path d="M16.3082 5.52658C16.2562 5.49023 16.1972 5.46507 16.135 5.4527C16.0727 5.44033 16.0087 5.44102 15.9467 5.45472C15.8847 5.46842 15.8263 5.49484 15.7751 5.53229C15.7239 5.56976 15.681 5.61744 15.6492 5.67233L13.5977 9.23358C14.0855 9.51249 14.4913 9.91507 14.7741 10.4008C15.0568 10.8864 15.2066 11.4381 15.2082 12.0001C15.2037 12.1537 15.1883 12.3069 15.1624 12.4584H19.3177C19.3804 12.4585 19.4426 12.4458 19.5003 12.4208C19.558 12.396 19.6099 12.3595 19.6529 12.3137C19.6959 12.2678 19.729 12.2137 19.7501 12.1545C19.7713 12.0954 19.7801 12.0325 19.776 11.9698C19.6889 10.7111 19.3346 9.48541 18.7367 8.37437C18.1387 7.26334 17.3109 6.29252 16.3082 5.52658Z" fill="#808080" stroke="#191919" stroke-linecap="round" stroke-linejoin="round"/>
<path d="M10.4022 14.7674L8.3434 18.3332C8.31171 18.3875 8.29151 18.4476 8.28403 18.51C8.27655 18.5723 8.28195 18.6355 8.29992 18.6957C8.31788 18.7558 8.34802 18.8116 8.38845 18.8598C8.42889 18.9078 8.47876 18.9469 8.53498 18.9749C9.61053 19.5139 10.7969 19.7945 12 19.7945C13.203 19.7945 14.3894 19.5139 15.465 18.9749C15.5207 18.9474 15.5702 18.9088 15.6105 18.8615C15.651 18.8143 15.6812 18.7593 15.6996 18.6999C15.7173 18.6398 15.7225 18.5767 15.7152 18.5145C15.7078 18.4522 15.6878 18.3922 15.6565 18.3378L13.5977 14.772C13.1149 15.0611 12.5627 15.2138 12 15.2138C11.4372 15.2138 10.885 15.0611 10.4022 14.772V14.7674Z" fill="#808080"/>
<path d="M12 15.2084C11.4377 15.2051 10.8863 15.0526 10.4022 14.7666L8.3434 18.3324C8.31171 18.3866 8.29151 18.4467 8.28403 18.5091C8.27655 18.5714 8.28195 18.6347 8.29992 18.6948C8.31788 18.755 8.34802 18.8108 8.38845 18.8589C8.42889 18.9069 8.47876 18.9461 8.53498 18.9741C9.61041 19.5131 10.797 19.7931 12 19.7918V15.2084Z" fill="#B2B2B2"/>
<path d="M10.4022 14.7674L8.3434 18.3332C8.31171 18.3875 8.29151 18.4476 8.28403 18.51C8.27655 18.5723 8.28195 18.6355 8.29992 18.6957C8.31788 18.7558 8.34802 18.8116 8.38845 18.8598C8.42889 18.9078 8.47876 18.9469 8.53498 18.9749C9.61053 19.5139 10.7969 19.7945 12 19.7945C13.203 19.7945 14.3894 19.5139 15.465 18.9749C15.5207 18.9474 15.5702 18.9088 15.6105 18.8615C15.651 18.8143 15.6812 18.7593 15.6996 18.6999C15.7173 18.6398 15.7225 18.5767 15.7152 18.5145C15.7078 18.4522 15.6878 18.3922 15.6565 18.3378L13.5977 14.772C13.1149 15.0611 12.5627 15.2138 12 15.2138C11.4372 15.2138 10.885 15.0611 10.4022 14.772V14.7674Z" stroke="#191919" stroke-linecap="round" stroke-linejoin="round"/>
<path d="M10.4021 9.2335L8.34597 5.675C8.31421 5.62004 8.27139 5.57226 8.22021 5.53471C8.16903 5.49717 8.1106 5.47066 8.04865 5.45687C7.98668 5.44307 7.92253 5.44231 7.86026 5.45461C7.79798 5.46692 7.73894 5.49201 7.68688 5.52833C6.68536 6.29511 5.85861 7.26636 5.26164 8.37749C4.66466 9.48862 4.31116 10.7141 4.22463 11.9725C4.22048 12.0352 4.22927 12.0981 4.25044 12.1572C4.2716 12.2163 4.30471 12.2705 4.3477 12.3163C4.39067 12.3622 4.44262 12.3987 4.50029 12.4235C4.55796 12.4484 4.62014 12.4613 4.68297 12.4611H8.8373C8.8112 12.3086 8.79589 12.1545 8.79147 12C8.79292 11.438 8.94258 10.8862 9.22535 10.4005C9.50813 9.91481 9.91401 9.51226 10.4021 9.2335Z" fill="#B2B2B2" stroke="#191919" stroke-linecap="round" stroke-linejoin="round"/>
<path d="M12 13.375C11.6353 13.375 11.2856 13.2302 11.0277 12.9723C10.7698 12.7144 10.625 12.3647 10.625 12C10.625 11.6353 10.7698 11.2856 11.0277 11.0277C11.2856 10.7698 11.6353 10.625 12 10.625V13.375Z" fill="#B2B2B2"/>
<path d="M13.375 12C13.375 12.3647 13.2302 12.7144 12.9723 12.9723C12.7144 13.2302 12.3647 13.375 12 13.375C11.6353 13.375 11.2856 13.2302 11.0277 12.9723C10.7698 12.7144 10.625 12.3647 10.625 12C10.625 11.6353 10.7698 11.2856 11.0277 11.0277C11.2856 10.7698 11.6353 10.625 12 10.625C12.3647 10.625 12.7144 10.7698 12.9723 11.0277C13.2302 11.2856 13.375 11.6353 13.375 12Z" stroke="#191919" stroke-linecap="round" stroke-linejoin="round"/>
</svg>
