<svg width="24" height="24" viewBox="0 0 24 24" fill="none" xmlns="http://www.w3.org/2000/svg">
<g clip-path="url(#clip0_5303_8168)">
<path d="M13.9133 10.5652H12.4785C12.2248 10.5652 11.9815 10.4644 11.8021 10.2851C11.6227 10.1057 11.522 9.86238 11.522 9.6087V1.95652C11.522 1.70284 11.6227 1.45954 11.8021 1.28016C11.9815 1.10078 12.2248 1 12.4785 1H22.0437C22.2974 1 22.5407 1.10078 22.7201 1.28016C22.8995 1.45954 23.0002 1.70284 23.0002 1.95652V9.6087C23.0002 9.86238 22.8995 10.1057 22.7201 10.2851C22.5407 10.4644 22.2974 10.5652 22.0437 10.5652H13.9133Z" fill="#66E1FF"/>
<path d="M12.4785 1C12.2248 1 11.9815 1.10078 11.8021 1.28016C11.6227 1.45954 11.522 1.70284 11.522 1.95652V9.6087C11.5258 9.78369 11.5796 9.95394 11.6769 10.0994L20.7754 1H12.4785Z" fill="#C2F3FF"/>
<path d="M13.9133 10.5652H12.4785C12.2248 10.5652 11.9815 10.4644 11.8021 10.2851C11.6227 10.1057 11.522 9.86238 11.522 9.6087V1.95652C11.522 1.70284 11.6227 1.45954 11.8021 1.28016C11.9815 1.10078 12.2248 1 12.4785 1H22.0437C22.2974 1 22.5407 1.10078 22.7201 1.28016C22.8995 1.45954 23.0002 1.70284 23.0002 1.95652V9.6087C23.0002 9.86238 22.8995 10.1057 22.7201 10.2851C22.5407 10.4644 22.2974 10.5652 22.0437 10.5652H18.2176" stroke="#191919" stroke-linecap="round" stroke-linejoin="round"/>
<path d="M17.2607 2.91306V8.65219" stroke="#191919" stroke-linecap="round" stroke-linejoin="round"/>
<path d="M17.2607 2.91306H15.6068C15.1917 2.91306 14.7785 2.98001 14.3854 3.11297C14.2606 3.15539 14.146 3.22313 14.0487 3.31193L13.4346 3.86958" stroke="#191919" stroke-linecap="round" stroke-linejoin="round"/>
<path d="M17.2609 5.78262H16.5416C16.1255 5.78262 15.7133 5.84958 15.3192 5.98349C15.2188 6.01763 15.1248 6.06804 15.0408 6.13271L14.1924 6.78601" stroke="#191919" stroke-linecap="round" stroke-linejoin="round"/>
<path d="M17.2607 2.91306H18.9146C19.3297 2.91306 19.7429 2.98001 20.136 3.11297C20.2608 3.15539 20.3754 3.22313 20.4727 3.31193L21.0868 3.86958" stroke="#191919" stroke-linecap="round" stroke-linejoin="round"/>
<path d="M17.2607 5.78262H17.98C18.3961 5.78262 18.8084 5.84958 19.2025 5.98349C19.3029 6.01793 19.3967 6.06767 19.4808 6.13271L20.3293 6.78601" stroke="#191919" stroke-linecap="round" stroke-linejoin="round"/>
<path d="M15.8262 8.65216H18.6957" stroke="#191919" stroke-linecap="round" stroke-linejoin="round"/>
<path d="M8.65222 17.2609L8.17396 23H3.39135L2.91309 17.2609H8.65222Z" fill="#808080" stroke="#191919" stroke-linecap="round" stroke-linejoin="round"/>
<path d="M10.5652 13.913V17.2609H1V13.913C1 12.6446 1.50388 11.4281 2.40079 10.5312C3.29771 9.63431 4.51418 9.13043 5.78261 9.13043C7.05104 9.13043 8.26751 9.63431 9.16442 10.5312C10.0613 11.4281 10.5652 12.6446 10.5652 13.913Z" fill="white" stroke="#191919" stroke-linecap="round" stroke-linejoin="round"/>
<path d="M2.91309 17.2609V14.3913" stroke="#191919" stroke-linecap="round" stroke-linejoin="round"/>
<path d="M8.65234 17.2609V14.3913" stroke="#191919" stroke-linecap="round" stroke-linejoin="round"/>
<path d="M5.78271 23V19.1739" stroke="#191919" stroke-linecap="round" stroke-linejoin="round"/>
<path d="M5.78271 9.13043V13.913" stroke="#191919" stroke-linecap="round" stroke-linejoin="round"/>
<path d="M9.13022 4.34781C9.13092 4.85575 9.01602 5.35719 8.79425 5.81415C8.57247 6.27112 8.24962 6.67162 7.85014 6.98535C7.45067 7.29907 6.98504 7.51778 6.48853 7.62492C5.99202 7.73205 5.47764 7.7248 4.98435 7.60372C4.49105 7.48264 4.03177 7.2509 3.6413 6.92605C3.25082 6.6012 2.93938 6.19175 2.73056 5.72872C2.52174 5.26569 2.42103 4.76122 2.43603 4.2535C2.45104 3.74578 2.58138 3.24814 2.81718 2.79825C3.64282 3.57294 4.6796 4.08546 5.79647 4.27104C6.91334 4.45662 8.06015 4.30691 9.09196 3.84086C9.1197 4.00825 9.13213 4.17851 9.13022 4.34781Z" fill="#FFDDA1" stroke="#191919" stroke-linecap="round" stroke-linejoin="round"/>
<path d="M9.09217 3.84085C8.06036 4.30691 6.91354 4.45661 5.79668 4.27103C4.67981 4.08545 3.64303 3.57293 2.81738 2.79824C3.14435 2.17361 3.66017 1.66815 4.29131 1.35393C4.92244 1.0397 5.63667 0.932742 6.33216 1.0483C7.02766 1.16387 7.66891 1.49605 8.16452 1.99749C8.66012 2.49894 8.98476 3.14405 9.09217 3.84085Z" fill="#C77F67" stroke="#191919" stroke-linecap="round" stroke-linejoin="round"/>
<path d="M12.478 16.3043L16.3041 10.5652" stroke="#191919" stroke-linecap="round" stroke-linejoin="round"/>
</g>
<defs>
<clipPath id="clip0_5303_8168">
<rect width="24" height="24" fill="white"/>
</clipPath>
</defs>
</svg>
