<svg width="24" height="24" viewBox="0 0 24 24" fill="none" xmlns="http://www.w3.org/2000/svg">
<g clip-path="url(#clip0_5303_12252)">
<path d="M22.9997 22.9913L19.0254 13.1086L4.95325 13.057L1 22.9913H22.9997Z" fill="#E3E3E3"/>
<path d="M11.9997 1.00879C25.3908 1.00879 19.6518 19.1824 11.9997 19.1824C4.34762 19.1824 -1.39144 1.00879 11.9997 1.00879Z" fill="#E3E3E3"/>
<path d="M11.9997 19.1824C4.34762 19.1824 -1.39144 1.00879 11.9997 1.00879V19.1824Z" fill="white"/>
<path d="M11.9997 12.9651C9.01919 12.9651 7.10426 15.8672 8.81737 18.1303C9.74821 18.793 10.8572 19.1597 11.9997 19.1824C13.1421 19.1596 14.2511 18.7928 15.182 18.1303C16.8941 15.8633 14.9744 12.9651 11.9997 12.9651Z" fill="#808080"/>
<path d="M7.43142 9.07126C7.5108 9.23012 7.63284 9.36374 7.78386 9.45716C7.93489 9.55058 8.10895 9.60011 8.28654 9.60021H15.7129C15.8905 9.60011 16.0645 9.55058 16.2155 9.45716C16.3665 9.36374 16.4886 9.23012 16.568 9.07126L17.5245 7.15824C17.5974 7.01245 17.6317 6.85046 17.6245 6.68764C17.6171 6.52483 17.5683 6.36659 17.4826 6.22793C17.3969 6.08929 17.2772 5.97482 17.1349 5.8954C16.9926 5.81599 16.8324 5.77426 16.6694 5.77417H7.33003C7.16705 5.77426 7.00678 5.81599 6.86446 5.8954C6.72214 5.97482 6.60247 6.08929 6.5168 6.22793C6.43114 6.36659 6.38233 6.52483 6.37499 6.68764C6.36766 6.85046 6.40205 7.01245 6.47491 7.15824L7.43142 9.07126Z" fill="#66E1FF"/>
<path d="M8.28654 9.60021H10.0695L13.8955 5.77417H7.33003C7.16705 5.77426 7.00678 5.81599 6.86446 5.8954C6.72214 5.97482 6.60247 6.08929 6.5168 6.22793C6.43114 6.36659 6.38233 6.52483 6.37499 6.68764C6.36766 6.85046 6.40205 7.01245 6.47491 7.15824L7.43142 9.07126C7.5108 9.23012 7.63284 9.36374 7.78386 9.45716C7.93489 9.55058 8.10895 9.60011 8.28654 9.60021Z" fill="#C2F3FF"/>
<path d="M11.9997 1.00879C25.3908 1.00879 19.6518 19.1824 11.9997 19.1824C4.34762 19.1824 -1.39144 1.00879 11.9997 1.00879Z" stroke="#191919" stroke-linecap="round" stroke-linejoin="round"/>
<path d="M7.43142 9.07126C7.5108 9.23012 7.63284 9.36374 7.78386 9.45716C7.93489 9.55058 8.10895 9.60011 8.28654 9.60021H15.7129C15.8905 9.60011 16.0645 9.55058 16.2155 9.45716C16.3665 9.36374 16.4886 9.23012 16.568 9.07126L17.5245 7.15824C17.5974 7.01245 17.6317 6.85046 17.6245 6.68764C17.6171 6.52483 17.5683 6.36659 17.4826 6.22793C17.3969 6.08929 17.2772 5.97482 17.1349 5.8954C16.9926 5.81599 16.8324 5.77426 16.6694 5.77417H7.33003C7.16705 5.77426 7.00678 5.81599 6.86446 5.8954C6.72214 5.97482 6.60247 6.08929 6.5168 6.22793C6.43114 6.36659 6.38233 6.52483 6.37499 6.68764C6.36766 6.85046 6.40205 7.01245 6.47491 7.15824L7.43142 9.07126Z" stroke="#191919" stroke-linecap="round" stroke-linejoin="round"/>
<path d="M15.1981 18.1083C16.8835 15.8461 14.9657 12.9651 11.9986 12.9651C9.03152 12.9651 7.11564 15.85 8.801 18.1083" stroke="#191919" stroke-linecap="round" stroke-linejoin="round"/>
<path d="M1 22.9913L4.95325 13.057" stroke="#191919" stroke-linecap="round" stroke-linejoin="round"/>
<path d="M19.0254 13.1086L22.9997 22.9913" stroke="#191919" stroke-linecap="round" stroke-linejoin="round"/>
<path d="M1.76074 21.0782H22.23" stroke="#191919" stroke-linecap="round" stroke-linejoin="round"/>
<path d="M16.2471 17.2522H20.691" stroke="#191919" stroke-linecap="round" stroke-linejoin="round"/>
<path d="M3.2832 17.2522H7.75106" stroke="#191919" stroke-linecap="round" stroke-linejoin="round"/>
</g>
<defs>
<clipPath id="clip0_5303_12252">
<rect width="24" height="24" fill="white"/>
</clipPath>
</defs>
</svg>
