<svg width="24" height="24" viewBox="0 0 24 24" fill="none" xmlns="http://www.w3.org/2000/svg">
<g clip-path="url(#clip0_5303_11057)">
<path d="M14.8743 13.1351C16.9862 13.1351 18.6984 11.4229 18.6984 9.31099C18.6984 7.19911 16.9862 5.48694 14.8743 5.48694C12.7624 5.48694 11.0503 7.19911 11.0503 9.31099C11.0503 11.4229 12.7624 13.1351 14.8743 13.1351Z" fill="#FFF9BF"/>
<path d="M14.8743 11.2135C14.0288 11.2115 13.2078 10.9288 12.5404 10.4096C11.8731 9.89053 11.3969 9.16446 11.187 8.34534C11.1 8.65998 11.054 8.98456 11.0503 9.31091C11.0503 10.3251 11.4531 11.2978 12.1704 12.015C12.8875 12.7322 13.8601 13.1351 14.8743 13.1351C15.8885 13.1351 16.8612 12.7322 17.5783 12.015C18.2955 11.2978 18.6984 10.3251 18.6984 9.31091C18.6943 8.98615 18.6483 8.66317 18.5617 8.35012C18.3508 9.1683 17.8744 9.89335 17.207 10.4115C16.5398 10.9298 15.7192 11.2118 14.8743 11.2135Z" fill="#FFEF5E"/>
<path d="M7.70404 17.0777C8.10938 15.4524 10.943 15.4524 11.3484 17.0777C11.3608 15.4429 14.3971 15.4524 14.3866 17.0777C14.4608 16.1526 14.3434 15.2221 14.0418 14.3444C13.7401 13.4671 13.2608 12.6611 12.6336 11.977C12.0066 11.293 11.2451 10.7457 10.397 10.3692C9.5487 9.99273 8.63204 9.79512 7.70404 9.78894C6.77614 9.79531 5.85948 9.99292 5.01141 10.3695C4.16324 10.746 3.40184 11.2934 2.77481 11.9773C2.14768 12.6613 1.66832 13.4672 1.3667 14.3448C1.06499 15.2223 0.947488 16.1526 1.02151 17.0777C1.01102 15.4524 4.04734 15.4429 4.05971 17.0777C4.46317 15.4552 7.29682 15.4552 7.70404 17.0777Z" fill="#FF808C"/>
<path d="M7.70351 12.5978C8.99225 12.5865 10.2653 12.8803 11.4189 13.4552C12.5723 14.0301 13.5734 14.8697 14.3402 15.9056C14.2045 14.2388 13.4463 12.684 12.2167 11.5504C10.987 10.417 9.37585 9.78772 7.70351 9.78772C6.03117 9.78772 4.42001 10.417 3.1904 11.5504C1.96078 12.684 1.20266 14.2388 1.06689 15.9056C1.83373 14.8697 2.83472 14.0301 3.98825 13.4552C5.14168 12.8803 6.41477 12.5865 7.70351 12.5978Z" fill="#FFBFC5"/>
<path d="M7.70404 17.0777C8.10938 15.4524 10.943 15.4524 11.3484 17.0777C11.3608 15.4429 14.3971 15.4524 14.3866 17.0777C14.4608 16.1526 14.3434 15.2221 14.0418 14.3444C13.7401 13.4671 13.2608 12.6611 12.6336 11.977C12.0066 11.293 11.2451 10.7457 10.397 10.3692C9.5487 9.99273 8.63204 9.79512 7.70404 9.78894C6.77614 9.79531 5.85948 9.99292 5.01141 10.3695C4.16324 10.746 3.40184 11.2934 2.77481 11.9773C2.14768 12.6613 1.66832 13.4672 1.3667 14.3448C1.06499 15.2223 0.947488 16.1526 1.02151 17.0777C1.01102 15.4524 4.04734 15.4429 4.05971 17.0777C4.46317 15.4553 7.29682 15.4553 7.70404 17.0777Z" stroke="#191919" stroke-linecap="round" stroke-linejoin="round"/>
<path d="M11.1704 8.35395C11.3345 7.72242 11.6576 7.14336 12.1086 6.67196C12.5597 6.20046 13.1239 5.85227 13.7477 5.66047C14.3714 5.46867 15.0338 5.43972 15.6718 5.57624C16.3099 5.71285 16.9025 6.01035 17.3931 6.44061C17.8836 6.87088 18.2559 7.41949 18.4745 8.03425C18.6932 8.6491 18.751 9.30959 18.6422 9.95292C18.5335 10.5964 18.2618 11.2012 17.8533 11.71C17.4448 12.2188 16.9129 12.6146 16.308 12.8597" stroke="#191919" stroke-linecap="round" stroke-linejoin="round"/>
<path d="M14.874 1.18481V3.09684" stroke="#191919" stroke-linecap="round" stroke-linejoin="round"/>
<path d="M22.9999 8.83301H21.0879" stroke="#191919" stroke-linecap="round" stroke-linejoin="round"/>
<path d="M9.12842 3.56531L10.4802 4.91711" stroke="#191919" stroke-linecap="round" stroke-linejoin="round"/>
<path d="M20.281 3.22681L18.9292 4.57861" stroke="#191919" stroke-linecap="round" stroke-linejoin="round"/>
<path d="M20.6213 15.0568L19.2695 13.705" stroke="#191919" stroke-linecap="round" stroke-linejoin="round"/>
<path d="M7.70396 16.9591V21.7392C7.68794 21.8742 7.70077 22.0111 7.74153 22.1409C7.7822 22.2707 7.84994 22.3902 7.94027 22.492C8.03059 22.5935 8.14144 22.675 8.2655 22.7306C8.38955 22.7864 8.52401 22.8151 8.65997 22.8151C8.79602 22.8151 8.93039 22.7864 9.05444 22.7306C9.1785 22.675 9.28935 22.5935 9.37967 22.492C9.47 22.3902 9.53774 22.2707 9.5785 22.1409C9.61926 22.0111 9.63201 21.8742 9.61598 21.7392" stroke="#191919" stroke-linecap="round" stroke-linejoin="round"/>
<path d="M7.7041 9.78904V8.35498" stroke="#191919" stroke-linecap="round" stroke-linejoin="round"/>
</g>
<defs>
<clipPath id="clip0_5303_11057">
<rect width="24" height="24" fill="white"/>
</clipPath>
</defs>
</svg>
