<svg width="24" height="24" viewBox="0 0 24 24" fill="none" xmlns="http://www.w3.org/2000/svg">
<path d="M12.0002 17.7391C12.6382 15.1852 17.1014 15.1852 17.7394 17.7391C17.7595 15.1661 22.5411 15.1852 22.522 17.7391C22.7994 11.471 18.2482 6.26086 12.0002 6.26086C5.75223 6.26086 1.19919 11.471 1.47849 17.7391C1.46128 15.1852 6.24293 15.1661 6.2611 17.7391C6.8991 15.1852 11.3622 15.1852 12.0002 17.7391Z" fill="#FF808C"/>
<path d="M12 10.2666C14.1528 10.2509 16.2692 10.8225 18.1214 11.9201C19.9736 13.0176 21.4913 14.5995 22.5112 16.4955C22.4373 13.7569 21.2975 11.1553 19.3343 9.24433C17.3711 7.33342 14.7397 6.26416 12 6.26416C9.26035 6.26416 6.62887 7.33342 4.66569 9.24433C2.70252 11.1553 1.56267 13.7569 1.48877 16.4955C2.50872 14.5995 4.02645 13.0176 5.87858 11.9201C7.73072 10.8225 9.84712 10.2509 12 10.2666Z" fill="#FFBFC5"/>
<path d="M12.0002 17.7391C12.6382 15.1852 17.1014 15.1852 17.7394 17.7391C17.7595 15.1661 22.5411 15.1852 22.522 17.7391C22.7994 11.471 18.2482 6.26086 12.0002 6.26086C5.75223 6.26086 1.19919 11.471 1.47849 17.7391C1.46128 15.1852 6.24293 15.1661 6.2611 17.7391C6.8991 15.1852 11.3622 15.1852 12.0002 17.7391Z" stroke="#191919" stroke-linecap="round" stroke-linejoin="round"/>
<path d="M11.9976 6.26083V4.82605" stroke="#191919" stroke-linecap="round" stroke-linejoin="round"/>
<path d="M11.9976 23V17.7391" stroke="#191919" stroke-linecap="round" stroke-linejoin="round"/>
<path d="M3.38888 1L1.9541 3.86957" stroke="#191919" stroke-linecap="round" stroke-linejoin="round"/>
<path d="M7.21506 1L5.78027 3.86957" stroke="#191919" stroke-linecap="round" stroke-linejoin="round"/>
<path d="M11.0412 1L9.60645 3.86957" stroke="#191919" stroke-linecap="round" stroke-linejoin="round"/>
<path d="M14.8674 1L13.4326 3.86957" stroke="#191919" stroke-linecap="round" stroke-linejoin="round"/>
<path d="M18.6936 1L17.2588 3.86957" stroke="#191919" stroke-linecap="round" stroke-linejoin="round"/>
<path d="M22.5197 1L21.085 3.86957" stroke="#191919" stroke-linecap="round" stroke-linejoin="round"/>
</svg>
