<svg width="24" height="24" viewBox="0 0 24 24" fill="none" xmlns="http://www.w3.org/2000/svg">
<g clip-path="url(#clip0_5303_10847)">
<path d="M22.5217 17.0317H15.3478V12.2491C15.3478 12.1223 15.2974 12.0006 15.2077 11.911C15.1181 11.8213 14.9964 11.7709 14.8696 11.7709H9.13043C9.00359 11.7709 8.88194 11.8213 8.79225 11.911C8.70256 12.0006 8.65217 12.1223 8.65217 12.2491V17.0317H1.47826C1.35142 17.0317 1.22977 17.0821 1.14008 17.1718C1.05039 17.2615 1 17.3832 1 17.51V22.2926C1 22.4195 1.05039 22.5411 1.14008 22.6308C1.22977 22.7205 1.35142 22.7709 1.47826 22.7709H22.5217C22.6486 22.7709 22.7702 22.7205 22.8599 22.6308C22.9496 22.5411 23 22.4195 23 22.2926V17.51C23 17.3832 22.9496 17.2615 22.8599 17.1718C22.7702 17.0821 22.6486 17.0317 22.5217 17.0317Z" fill="#FFBC44" stroke="#191919" stroke-linecap="round" stroke-linejoin="round"/>
<path d="M7.69629 9.37965C7.71446 8.85357 7.84072 8.33704 8.06933 7.86165C8.33333 7.33365 9.43525 6.96826 10.8193 6.45557C11.1933 6.31687 11.1331 5.44357 10.9666 5.26183C10.7031 4.97565 10.5029 4.63702 10.3793 4.26811C10.2556 3.89921 10.2113 3.50835 10.2492 3.12113C10.2305 2.87979 10.2619 2.63718 10.3414 2.40853C10.4209 2.17989 10.5468 1.97015 10.7112 1.79249C10.8756 1.61482 11.075 1.47307 11.2968 1.37612C11.5186 1.27917 11.7581 1.22913 12.0002 1.22913C12.2422 1.22913 12.4817 1.27917 12.7035 1.37612C12.9253 1.47307 13.1247 1.61482 13.2891 1.79249C13.4535 1.97015 13.5794 2.17989 13.6589 2.40853C13.7384 2.63718 13.7698 2.87979 13.7511 3.12113C13.7889 3.50834 13.7445 3.89917 13.6209 4.26806C13.4973 4.63694 13.2972 4.97558 13.0337 5.26183C12.8682 5.44452 12.807 6.314 13.181 6.45557C14.5651 6.96826 15.6679 7.33365 15.931 7.86165C16.1605 8.33609 16.2868 8.85357 16.305 9.37965" fill="#E3E3E3"/>
<path d="M7.69629 9.37965C7.71446 8.85357 7.84072 8.33704 8.06933 7.86165C8.33333 7.33365 9.43525 6.96826 10.8193 6.45557C11.1933 6.31687 11.1331 5.44357 10.9666 5.26183C10.7031 4.97565 10.5029 4.63702 10.3793 4.26811C10.2556 3.89921 10.2113 3.50835 10.2492 3.12113C10.2305 2.87979 10.2619 2.63718 10.3414 2.40853C10.4209 2.17989 10.5468 1.97015 10.7112 1.79249C10.8756 1.61482 11.075 1.47307 11.2968 1.37612C11.5186 1.27917 11.7581 1.22913 12.0002 1.22913C12.2422 1.22913 12.4817 1.27917 12.7035 1.37612C12.9253 1.47307 13.1247 1.61482 13.2891 1.79249C13.4535 1.97015 13.5794 2.17989 13.6589 2.40853C13.7384 2.63718 13.7698 2.87979 13.7511 3.12113C13.7889 3.50834 13.7445 3.89917 13.6209 4.26806C13.4973 4.63694 13.2972 4.97558 13.0337 5.26183C12.8682 5.44452 12.807 6.314 13.181 6.45557C14.5651 6.96826 15.6679 7.33365 15.931 7.86165C16.1605 8.33609 16.2868 8.85357 16.305 9.37965" stroke="#191919" stroke-linecap="round" stroke-linejoin="round"/>
<path d="M5.98539 14.1623C5.57409 13.9939 5.09104 13.8218 4.5707 13.6285C4.1967 13.4898 4.25696 12.6165 4.42339 12.4348C4.68698 12.1486 4.88714 11.81 5.01076 11.4411C5.13439 11.0722 5.1787 10.6813 5.14078 10.2941C5.16346 10.053 5.13474 9.80984 5.05652 9.58068C4.97831 9.35152 4.85237 9.14155 4.68704 8.96464C4.5217 8.78774 4.32072 8.64791 4.09737 8.5544C3.87401 8.46088 3.63336 8.41581 3.3913 8.42215C3.14909 8.41553 2.90822 8.4604 2.68464 8.55379C2.46105 8.64719 2.25984 8.78697 2.09429 8.96391C1.92874 9.14085 1.80264 9.35091 1.72431 9.58021C1.64598 9.80951 1.61722 10.0529 1.63991 10.2941C1.602 10.6813 1.6463 11.0722 1.76993 11.4411C1.89356 11.81 2.09372 12.1486 2.3573 12.4348C2.52278 12.6175 2.584 13.487 2.21 13.6285C1.77191 13.7902 1.36348 13.9384 1 14.081" fill="#E3E3E3"/>
<path d="M5.98539 14.1623C5.57409 13.9939 5.09104 13.8218 4.5707 13.6285C4.1967 13.4898 4.25696 12.6165 4.42339 12.4348C4.68698 12.1486 4.88714 11.81 5.01076 11.4411C5.13439 11.0722 5.1787 10.6813 5.14078 10.2941C5.16346 10.053 5.13474 9.80984 5.05652 9.58068C4.97831 9.35152 4.85237 9.14155 4.68704 8.96464C4.5217 8.78774 4.32072 8.64791 4.09737 8.5544C3.87401 8.46088 3.63336 8.41581 3.3913 8.42215C3.14909 8.41553 2.90822 8.4604 2.68464 8.55379C2.46105 8.64719 2.25984 8.78697 2.09429 8.96391C1.92874 9.14085 1.80264 9.35091 1.72431 9.58021C1.64598 9.80951 1.61722 10.0529 1.63991 10.2941C1.602 10.6813 1.6463 11.0722 1.76993 11.4411C1.89356 11.81 2.09372 12.1486 2.3573 12.4348C2.52278 12.6175 2.584 13.487 2.21 13.6285C1.77191 13.7902 1.36348 13.9384 1 14.081" stroke="#191919" stroke-linecap="round" stroke-linejoin="round"/>
<path d="M18.0127 14.1623C18.424 13.9939 18.907 13.8218 19.4274 13.6285C19.8014 13.4898 19.7411 12.6165 19.5747 12.4348C19.3111 12.1486 19.1109 11.81 18.9873 11.4411C18.8637 11.0722 18.8194 10.6813 18.8573 10.2941C18.8386 10.0528 18.87 9.81015 18.9495 9.58151C19.029 9.35287 19.1549 9.14313 19.3193 8.96546C19.4837 8.7878 19.6831 8.64604 19.9049 8.54909C20.1267 8.45214 20.3661 8.4021 20.6082 8.4021C20.8503 8.4021 21.0897 8.45214 21.3116 8.54909C21.5334 8.64604 21.7327 8.7878 21.8971 8.96546C22.0616 9.14313 22.1875 9.35287 22.267 9.58151C22.3465 9.81015 22.3779 10.0528 22.3591 10.2941C22.3969 10.6813 22.3526 11.0721 22.2289 11.441C22.1053 11.8099 21.9052 12.1486 21.6417 12.4348C21.4763 12.6175 21.415 13.487 21.789 13.6285C22.2271 13.7902 22.6356 13.9385 23 14.081" fill="#E3E3E3"/>
<path d="M18.0127 14.1623C18.424 13.9939 18.907 13.8218 19.4274 13.6285C19.8014 13.4898 19.7411 12.6165 19.5747 12.4348C19.3111 12.1486 19.1109 11.81 18.9873 11.4411C18.8637 11.0722 18.8194 10.6813 18.8573 10.2941C18.8386 10.0528 18.87 9.81015 18.9495 9.58151C19.029 9.35287 19.1549 9.14313 19.3193 8.96546C19.4837 8.7878 19.6831 8.64604 19.9049 8.54909C20.1267 8.45214 20.3661 8.4021 20.6082 8.4021C20.8503 8.4021 21.0897 8.45214 21.3116 8.54909C21.5334 8.64604 21.7327 8.7878 21.8971 8.96546C22.0616 9.14313 22.1875 9.35287 22.267 9.58151C22.3465 9.81015 22.3779 10.0528 22.3591 10.2941C22.3969 10.6813 22.3526 11.0721 22.2289 11.441C22.1053 11.8099 21.9052 12.1486 21.6417 12.4348C21.4763 12.6175 21.415 13.487 21.789 13.6285C22.2271 13.7902 22.6356 13.9385 23 14.081" stroke="#191919" stroke-linecap="round" stroke-linejoin="round"/>
</g>
<defs>
<clipPath id="clip0_5303_10847">
<rect width="24" height="24" fill="white"/>
</clipPath>
</defs>
</svg>
