<svg width="24" height="24" viewBox="0 0 24 24" fill="none" xmlns="http://www.w3.org/2000/svg">
<g clip-path="url(#clip0_5303_10707)">
<path d="M4.81246 16.8542C4.56186 18.6351 1 19.5256 1 19.5256L3.39115 20.9603L2.43469 22.8732C2.43469 22.8732 6.73877 22.395 6.73877 20.4821C6.74152 20.3557 6.71865 20.2301 6.67155 20.1129C6.62446 19.9955 6.5541 19.8891 6.46474 19.7996C6.37536 19.7103 6.26883 19.6399 6.15155 19.5928C6.03427 19.5458 5.90867 19.5228 5.78231 19.5256" fill="#FF808C"/>
<path d="M4.81246 16.8542C4.56186 18.6351 1 19.5256 1 19.5256L3.39115 20.9603L2.43469 22.8732C2.43469 22.8732 6.73877 22.395 6.73877 20.4821C6.74152 20.3557 6.71865 20.2301 6.67155 20.1129C6.62446 19.9955 6.5541 19.8891 6.46474 19.7996C6.37536 19.7103 6.26883 19.6399 6.15155 19.5928C6.03427 19.5458 5.90867 19.5228 5.78231 19.5256" stroke="#191919" stroke-linecap="round" stroke-linejoin="round"/>
<path d="M19.1873 16.8542C19.4379 18.6351 22.9997 19.5256 22.9997 19.5256L20.6086 20.9603L21.565 22.8732C21.565 22.8732 17.261 22.395 17.261 20.4821C17.2582 20.3557 17.2811 20.2301 17.3282 20.1129C17.3753 19.9955 17.4457 19.8891 17.535 19.7996C17.6243 19.7103 17.7309 19.6399 17.8482 19.5928C17.9655 19.5458 18.0911 19.5228 18.2174 19.5256" fill="#FF808C"/>
<path d="M19.1873 16.8542C19.4379 18.6351 22.9997 19.5256 22.9997 19.5256L20.6086 20.9603L21.565 22.8732C21.565 22.8732 17.261 22.395 17.261 20.4821C17.2582 20.3557 17.2811 20.2301 17.3282 20.1129C17.3753 19.9955 17.4457 19.8891 17.535 19.7996C17.6243 19.7103 17.7309 19.6399 17.8482 19.5928C17.9655 19.5458 18.0911 19.5228 18.2174 19.5256" stroke="#191919" stroke-linecap="round" stroke-linejoin="round"/>
<path d="M11.9998 16.6572C16.7821 16.6572 18.2168 19.5266 18.2168 19.5266L19.8638 14.9968C19.9411 14.7843 19.9406 14.5511 19.8624 14.339C19.784 14.1267 19.6331 13.9491 19.4363 13.8376C17.1623 12.5676 14.6043 11.8925 11.9998 11.8749C9.39521 11.8925 6.83729 12.5676 4.56328 13.8376C4.36644 13.9491 4.21548 14.1267 4.13721 14.339C4.05894 14.5511 4.05841 14.7843 4.13574 14.9968L5.78277 19.5266C5.78277 19.5266 7.21747 16.6572 11.9998 16.6572Z" fill="#FFBFC5" stroke="#191919" stroke-linecap="round" stroke-linejoin="round"/>
<path d="M11.7851 1.30318C11.9027 1.06789 12.095 1.06789 12.2126 1.30318L13.434 3.74502H16.3034C16.5664 3.74502 16.6028 3.86458 16.3838 4.00996L13.9123 5.65795L15.1786 9.03521C15.2743 9.28198 15.171 9.35754 14.9577 9.20451L11.9993 7.09264L9.04101 9.20546C8.82676 9.3585 8.72729 9.28198 8.82006 9.03617L10.0864 5.65795L7.61492 4.00996C7.39589 3.86362 7.43224 3.74502 7.69526 3.74502H10.5646L11.7851 1.30318Z" fill="#FFEF5E" stroke="#191919" stroke-linecap="round" stroke-linejoin="round"/>
<path d="M4.14742 4.65665C4.25837 4.41849 4.4401 4.41849 4.552 4.65665L5.46542 6.61452H7.21862C7.48164 6.61452 7.54477 6.7666 7.35826 6.95311L5.83653 8.47484L6.45345 10.6193C6.52614 10.8718 6.40275 10.9655 6.17894 10.8259L4.34923 9.68381L2.52239 10.8259C2.29953 10.9655 2.17615 10.8737 2.24788 10.6193L2.86098 8.47484L1.33829 6.95311C1.15273 6.76182 1.2149 6.61452 1.47793 6.61452H3.23208L4.14742 4.65665Z" fill="#FFEF5E" stroke="#191919" stroke-linecap="round" stroke-linejoin="round"/>
<path d="M19.4492 4.65665C19.5601 4.41849 19.7419 4.41849 19.8538 4.65665L20.7672 6.61452H22.5204C22.7834 6.61452 22.8465 6.7666 22.66 6.95311L21.1383 8.47484L21.7514 10.6193C21.8241 10.8718 21.7007 10.9655 21.4769 10.8259L19.651 9.68381L17.8241 10.8259C17.6013 10.9655 17.4779 10.8737 17.5496 10.6193L18.1627 8.47484L16.64 6.95311C16.4545 6.76182 16.5167 6.61452 16.7797 6.61452H18.5338L19.4492 4.65665Z" fill="#FFEF5E" stroke="#191919" stroke-linecap="round" stroke-linejoin="round"/>
</g>
<defs>
<clipPath id="clip0_5303_10707">
<rect width="24" height="24" fill="white"/>
</clipPath>
</defs>
</svg>
