<svg width="24" height="24" viewBox="0 0 24 24" fill="none" xmlns="http://www.w3.org/2000/svg">
<g clip-path="url(#clip0_5303_10748)">
<path d="M11.7572 1.22115C11.7713 1.16693 11.8029 1.11891 11.8472 1.08463C11.8915 1.05034 11.9459 1.03174 12.0019 1.03174C12.0579 1.03174 12.1123 1.05034 12.1566 1.08463C12.2009 1.11891 12.2325 1.16693 12.2465 1.22115L13.0067 4.34226H16.2023C16.2563 4.34241 16.3087 4.3599 16.352 4.39214C16.3953 4.42439 16.427 4.46968 16.4426 4.52135C16.4582 4.57301 16.4567 4.62831 16.4385 4.67909C16.4202 4.72987 16.3861 4.77344 16.3412 4.80338L14.0135 6.2854L15.2337 9.53941C15.2528 9.58999 15.255 9.64535 15.2402 9.69731C15.2253 9.74927 15.1941 9.79507 15.1512 9.82793C15.1083 9.86079 15.056 9.87897 15.0019 9.87977C14.9479 9.88057 14.895 9.86396 14.8512 9.83239L11.9999 7.79562L9.14758 9.83239C9.10372 9.86396 9.05085 9.88057 8.99682 9.87977C8.94278 9.87897 8.89043 9.86079 8.84752 9.82793C8.80462 9.79507 8.77342 9.74927 8.75856 9.69731C8.7437 9.64535 8.74595 9.58999 8.765 9.53941L9.98625 6.2854L7.6565 4.80338C7.6116 4.77344 7.57752 4.72987 7.55927 4.67909C7.54102 4.62831 7.53957 4.57301 7.55514 4.52135C7.5707 4.46968 7.60246 4.42439 7.64573 4.39214C7.68899 4.3599 7.74148 4.34241 7.79544 4.34226H10.9931L11.7572 1.22115Z" fill="#FFEF5E" stroke="#191919" stroke-linecap="round" stroke-linejoin="round"/>
<path d="M18.3022 14.4184C18.3154 14.3635 18.3468 14.3147 18.3911 14.2797C18.4355 14.2448 18.4903 14.2258 18.5468 14.2258C18.6033 14.2258 18.6581 14.2448 18.7025 14.2797C18.7469 14.3147 18.7782 14.3635 18.7915 14.4184L19.5536 17.4267H22.7492C22.8032 17.4269 22.8557 17.4444 22.8989 17.4766C22.9422 17.5089 22.974 17.5542 22.9895 17.6058C23.0051 17.6575 23.0037 17.7128 22.9854 17.7636C22.9671 17.8143 22.9331 17.8579 22.8882 17.8879L20.5584 19.3739L21.7787 22.6279C21.7977 22.6785 21.8 22.7339 21.7851 22.7858C21.7702 22.8378 21.739 22.8836 21.6961 22.9164C21.6532 22.9493 21.6009 22.9675 21.5468 22.9683C21.4928 22.9691 21.4399 22.9525 21.3961 22.9209L18.5448 20.8841L15.6925 22.9209C15.6486 22.9525 15.5958 22.9691 15.5417 22.9683C15.4877 22.9675 15.4354 22.9493 15.3924 22.9164C15.3495 22.8836 15.3183 22.8378 15.3035 22.7858C15.2886 22.7339 15.2909 22.6785 15.3099 22.6279L16.5312 19.3739L14.2014 17.8919C14.1565 17.8619 14.1224 17.8184 14.1042 17.7676C14.0859 17.7168 14.0845 17.6615 14.1001 17.6098C14.1156 17.5582 14.1474 17.5129 14.1907 17.4806C14.2339 17.4484 14.2864 17.4309 14.3404 17.4308H17.538L18.3022 14.4184Z" fill="#FFEF5E" stroke="#191919" stroke-linecap="round" stroke-linejoin="round"/>
<path d="M5.2128 14.3096C5.22607 14.2547 5.25741 14.2059 5.30178 14.171C5.34616 14.1361 5.40098 14.1171 5.45745 14.1171C5.51392 14.1171 5.56875 14.1361 5.61312 14.171C5.6575 14.2059 5.68884 14.2547 5.70211 14.3096L6.46426 17.4307H9.65987C9.71383 17.4309 9.76632 17.4484 9.80958 17.4806C9.85285 17.5129 9.88461 17.5582 9.90018 17.6098C9.91574 17.6615 9.9143 17.7168 9.89604 17.7676C9.87779 17.8183 9.84371 17.8619 9.79881 17.8918L7.46906 19.3739L8.68931 22.6279C8.70835 22.6785 8.71061 22.7338 8.69575 22.7858C8.68088 22.8377 8.64969 22.8835 8.60678 22.9164C8.56387 22.9493 8.51153 22.9674 8.45749 22.9682C8.40345 22.969 8.35059 22.9524 8.30672 22.9209L5.45544 20.8841L2.60315 22.9209C2.55928 22.9524 2.50642 22.969 2.45238 22.9682C2.39834 22.9674 2.346 22.9493 2.30309 22.9164C2.26018 22.8835 2.22899 22.8377 2.21413 22.7858C2.19926 22.7338 2.20152 22.6785 2.22056 22.6279L3.44182 19.3739L1.11207 17.8918C1.06717 17.8619 1.03308 17.8183 1.01483 17.7676C0.996584 17.7168 0.995136 17.6615 1.0107 17.6098C1.02627 17.5582 1.05803 17.5129 1.1013 17.4806C1.14456 17.4484 1.19705 17.4309 1.25101 17.4307H4.44863L5.2128 14.3096Z" fill="#FFEF5E" stroke="#191919" stroke-linecap="round" stroke-linejoin="round"/>
</g>
<defs>
<clipPath id="clip0_5303_10748">
<rect width="24" height="24" fill="white"/>
</clipPath>
</defs>
</svg>
