<svg width="24" height="24" viewBox="0 0 24 24" fill="none" xmlns="http://www.w3.org/2000/svg">
<g clip-path="url(#clip0_5303_10733)">
<path d="M4.82756 17.6183L2.61174 18.8616C2.27768 19.0546 1.86001 18.8137 1.85983 18.4279C1.85974 18.3618 1.8729 18.2963 1.8983 18.2352L2.81923 16.1265L1.1581 14.4921C0.888369 14.2537 0.977921 13.8127 1.31928 13.6983C1.37297 13.6803 1.42946 13.6722 1.48613 13.6745H3.39879L4.38377 11.5561C4.55494 11.2146 5.03171 11.1864 5.24199 11.5054C5.25271 11.5217 5.26253 11.5386 5.27127 11.5561L6.25634 13.6745H8.169C8.52955 13.6624 8.76793 14.0451 8.59811 14.3634C8.57216 14.4119 8.53801 14.4555 8.49702 14.4921L6.83581 16.1265L7.75583 18.2381C7.90404 18.5942 7.61115 18.9773 7.22852 18.9276C7.16294 18.919 7.09969 18.8976 7.04239 18.8645L4.82756 17.6183Z" fill="#FFEF5E"/>
<path d="M19.1588 17.6183L16.943 18.8616C16.609 19.0546 16.1913 18.8137 16.1911 18.4279C16.191 18.3618 16.2041 18.2963 16.2296 18.2352L17.1486 16.1236L15.4894 14.4893C15.2189 14.2529 15.3056 13.8123 15.6455 13.6962C15.7008 13.6773 15.7591 13.669 15.8174 13.6716H17.7301L18.7151 11.5533C18.8862 11.2117 19.363 11.1835 19.5733 11.5025C19.584 11.5188 19.5938 11.5359 19.6026 11.5533L20.5867 13.6716H22.4993C22.859 13.6567 23.0999 14.0368 22.9329 14.3557C22.9064 14.4062 22.871 14.4515 22.8283 14.4893L21.1681 16.1236L22.0881 18.2352C22.2346 18.5929 21.9389 18.975 21.556 18.923C21.4922 18.9143 21.4306 18.8935 21.3747 18.8616L19.1588 17.6183Z" fill="#FFEF5E"/>
<path d="M12.5629 5.40887L13.7889 7.93452H16.175C16.625 7.91416 16.9284 8.38867 16.721 8.78868C16.688 8.85229 16.6436 8.90932 16.59 8.95689L14.5186 11.1211L15.6662 13.7615C15.8526 14.2054 15.4885 14.6846 15.0109 14.6241C14.928 14.6136 14.8481 14.5866 14.7759 14.5447L11.9996 12.9821L9.22628 14.5448C8.8097 14.7862 8.28797 14.4862 8.28716 14.0048C8.28698 13.9212 8.30356 13.8385 8.3359 13.7615L9.4835 11.1211L7.40921 8.95689C7.07236 8.6576 7.18578 8.10596 7.61336 7.96389C7.68066 7.94155 7.75147 7.93155 7.82237 7.93452H10.2132L11.4421 5.40887C11.6688 4.97751 12.2775 4.95327 12.5378 5.36536C12.5467 5.3795 12.5551 5.39401 12.5629 5.40887Z" fill="#FFEF5E"/>
<path d="M8.75905 12.7899L13.732 7.81694L12.5634 5.40887C12.3401 4.97561 11.7316 4.94642 11.468 5.35634C11.4571 5.37337 11.447 5.39085 11.4378 5.40887L10.2088 7.93451H7.81803C7.36775 7.91956 7.07009 8.39768 7.28225 8.79517C7.31487 8.85616 7.35793 8.91093 7.40964 8.95688L9.48105 11.1211L8.75905 12.7899Z" fill="#FFF9BF"/>
<path d="M12.5629 5.40887L13.7889 7.93452H16.175C16.625 7.91416 16.9284 8.38867 16.721 8.78868C16.688 8.85229 16.6436 8.90932 16.59 8.95689L14.5186 11.1211L15.6662 13.7615C15.8526 14.2054 15.4885 14.6846 15.0109 14.6241C14.928 14.6136 14.8481 14.5866 14.7759 14.5447L11.9996 12.9821L9.22628 14.5448C8.8097 14.7862 8.28797 14.4862 8.28716 14.0048C8.28698 13.9212 8.30356 13.8385 8.3359 13.7615L9.4835 11.1211L7.40921 8.95689C7.07236 8.6576 7.18578 8.10596 7.61336 7.96389C7.68066 7.94155 7.75147 7.93155 7.82237 7.93452H10.2132L11.4421 5.40887C11.6688 4.97751 12.2775 4.95327 12.5378 5.36536C12.5467 5.3795 12.5551 5.39401 12.5629 5.40887Z" stroke="#191919" stroke-linecap="round" stroke-linejoin="round"/>
<path d="M17.7304 13.6746L18.7153 11.5562C18.8935 11.2092 19.3807 11.1851 19.5922 11.513C19.6012 11.527 19.6096 11.5414 19.6172 11.5562L20.5994 13.6746H22.512C22.8725 13.6601 23.1133 14.0414 22.9454 14.3607C22.9194 14.4103 22.8846 14.4548 22.8429 14.4922L21.1808 16.1266L22.1007 18.2391C22.2516 18.5926 21.9631 18.9767 21.5815 18.9305C21.513 18.9223 21.4468 18.8997 21.3874 18.8646L19.1639 17.6147L16.9413 18.8646C16.6089 19.0587 16.1909 18.8201 16.189 18.4351C16.1886 18.3678 16.2019 18.3012 16.2279 18.2391L16.7548 17.0284" stroke="#191919" stroke-linecap="round" stroke-linejoin="round"/>
<path d="M7.24897 17.0399L7.77115 18.2391C7.92007 18.5941 7.62889 18.9773 7.2469 18.9288C7.18014 18.9204 7.11582 18.8985 7.05771 18.8646L4.83423 17.6147L2.61174 18.8646C2.27921 19.0587 1.86118 18.8201 1.85929 18.4351C1.85902 18.3678 1.87227 18.3012 1.8983 18.2391L2.81923 16.1266L1.1581 14.4922C0.888369 14.2538 0.977921 13.8128 1.31928 13.6984C1.37297 13.6804 1.42946 13.6723 1.48613 13.6746H3.39879L4.38377 11.5562C4.56197 11.2092 5.0491 11.1851 5.26064 11.513C5.26965 11.527 5.27803 11.5414 5.28559 11.5562L6.26778 13.6746" stroke="#191919" stroke-linecap="round" stroke-linejoin="round"/>
</g>
<defs>
<clipPath id="clip0_5303_10733">
<rect width="24" height="24" fill="white"/>
</clipPath>
</defs>
</svg>
