<svg width="24" height="24" viewBox="0 0 24 24" fill="none" xmlns="http://www.w3.org/2000/svg">
<path d="M20.4383 22.008C20.4382 22.1864 20.3899 22.3616 20.2987 22.5149C20.2075 22.6683 20.0766 22.7942 19.9198 22.8794C19.763 22.9647 19.5862 23.0061 19.4079 22.9993C19.2296 22.9925 19.0564 22.9378 18.9065 22.8409L12.0002 18.3727L5.09378 22.8399C4.94408 22.9371 4.77092 22.9921 4.59257 22.9991C4.41422 23.0061 4.23728 22.9648 4.08043 22.8796C3.92358 22.7944 3.79263 22.6685 3.70139 22.5151C3.61014 22.3617 3.56199 22.1865 3.56201 22.008V1.99272C3.56201 1.72944 3.6666 1.47693 3.85277 1.29076C4.03895 1.10459 4.29145 1 4.55473 1H19.4456C19.7089 1 19.9614 1.10459 20.1475 1.29076C20.3337 1.47693 20.4383 1.72944 20.4383 1.99272V22.008Z" fill="#FF808C"/>
<path d="M12.0002 1H4.55473C4.29145 1 4.03895 1.10459 3.85277 1.29076C3.6666 1.47693 3.56201 1.72944 3.56201 1.99272V22.008C3.56214 22.1864 3.61037 22.3616 3.70161 22.5149C3.79286 22.6683 3.92375 22.7942 4.08052 22.8794C4.23728 22.9647 4.41412 23.0061 4.59244 22.9993C4.77075 22.9925 4.94394 22.9378 5.09378 22.8409L12.0002 18.3727V1Z" fill="#FFBFC5"/>
<path d="M20.4383 22.008C20.4382 22.1864 20.3899 22.3616 20.2987 22.5149C20.2075 22.6683 20.0766 22.7942 19.9198 22.8794C19.763 22.9647 19.5862 23.0061 19.4079 22.9993C19.2296 22.9925 19.0564 22.9378 18.9065 22.8409L12.0002 18.3727L5.09378 22.8399C4.94408 22.9371 4.77092 22.9921 4.59257 22.9991C4.41422 23.0061 4.23728 22.9648 4.08043 22.8796C3.92358 22.7944 3.79263 22.6685 3.70139 22.5151C3.61014 22.3617 3.56199 22.1865 3.56201 22.008V1.99272C3.56201 1.72944 3.6666 1.47693 3.85277 1.29076C4.03895 1.10459 4.29145 1 4.55473 1H19.4456C19.7089 1 19.9614 1.10459 20.1475 1.29076C20.3337 1.47693 20.4383 1.72944 20.4383 1.99272V22.008Z" stroke="#191919" stroke-linecap="round" stroke-linejoin="round"/>
<path d="M12.5836 5.45032L13.8563 7.95198H16.3381C16.4629 7.94776 16.5861 7.98206 16.6908 8.05024C16.7954 8.11842 16.8766 8.21717 16.9232 8.33307C16.9698 8.44897 16.9797 8.57642 16.9513 8.6981C16.923 8.81977 16.858 8.92979 16.765 9.0132L14.6147 11.2597L15.806 14.0006C15.859 14.126 15.8712 14.2649 15.8408 14.3977C15.8104 14.5304 15.739 14.6502 15.6368 14.74C15.5345 14.8299 15.4065 14.8853 15.271 14.8983C15.1355 14.9113 14.9993 14.8814 14.8818 14.8127L11.9999 13.1936L9.12098 14.8127C9.00339 14.8807 8.86743 14.9101 8.73224 14.8968C8.59704 14.8835 8.46944 14.8281 8.36739 14.7384C8.26534 14.6487 8.19398 14.5293 8.16337 14.397C8.13276 14.2646 8.14444 14.126 8.19676 14.0006L9.38803 11.2597L7.23481 9.0132C7.14107 8.92993 7.0754 8.81969 7.04679 8.69762C7.01818 8.57554 7.02804 8.44761 7.07502 8.33136C7.122 8.21511 7.20379 8.11625 7.30918 8.04832C7.41457 7.9804 7.53839 7.94674 7.66367 7.95198H10.1455L11.4172 5.45032C11.4724 5.34323 11.556 5.25342 11.6589 5.19072C11.7617 5.12802 11.8799 5.09485 12.0004 5.09485C12.1209 5.09485 12.239 5.12802 12.3419 5.19072C12.4448 5.25342 12.5284 5.34323 12.5836 5.45032Z" fill="#FFEF5E"/>
<path d="M8.81306 12.582L13.7171 7.67799L12.5834 5.45032C12.5282 5.34323 12.4446 5.25342 12.3417 5.19072C12.2388 5.12802 12.1207 5.09485 12.0002 5.09485C11.8797 5.09485 11.7616 5.12802 11.6587 5.19072C11.5558 5.25342 11.4722 5.34323 11.417 5.45032L10.1413 7.95198H7.65952C7.53459 7.94761 7.41135 7.98189 7.30662 8.05014C7.20188 8.11839 7.12075 8.21728 7.07429 8.33334C7.02782 8.44939 7.01829 8.57694 7.04698 8.69861C7.07568 8.82028 7.14121 8.93014 7.23463 9.0132L9.38487 11.2587L8.81306 12.582Z" fill="#FFF9BF"/>
<path d="M12.5836 5.45032L13.8563 7.95198H16.3381C16.4629 7.94776 16.5861 7.98206 16.6908 8.05024C16.7954 8.11842 16.8766 8.21717 16.9232 8.33307C16.9698 8.44897 16.9797 8.57642 16.9513 8.6981C16.923 8.81977 16.858 8.92979 16.765 9.0132L14.6147 11.2597L15.806 14.0006C15.859 14.126 15.8712 14.2649 15.8408 14.3977C15.8104 14.5304 15.739 14.6502 15.6368 14.74C15.5345 14.8299 15.4065 14.8853 15.271 14.8983C15.1355 14.9113 14.9993 14.8814 14.8818 14.8127L11.9999 13.1936L9.12098 14.8127C9.00339 14.8807 8.86743 14.9101 8.73224 14.8968C8.59704 14.8835 8.46944 14.8281 8.36739 14.7384C8.26534 14.6487 8.19398 14.5293 8.16337 14.397C8.13276 14.2646 8.14444 14.126 8.19676 14.0006L9.38803 11.2597L7.23481 9.0132C7.14107 8.92993 7.0754 8.81969 7.04679 8.69762C7.01818 8.57554 7.02804 8.44761 7.07502 8.33136C7.122 8.21511 7.20379 8.11625 7.30918 8.04832C7.41457 7.9804 7.53839 7.94674 7.66367 7.95198H10.1455L11.4172 5.45032C11.4724 5.34323 11.556 5.25342 11.6589 5.19072C11.7617 5.12802 11.8799 5.09485 12.0004 5.09485C12.1209 5.09485 12.239 5.12802 12.3419 5.19072C12.4448 5.25342 12.5284 5.34323 12.5836 5.45032Z" stroke="#191919" stroke-linecap="round" stroke-linejoin="round"/>
</svg>
