<svg width="24" height="24" viewBox="0 0 24 24" fill="none" xmlns="http://www.w3.org/2000/svg">
<g clip-path="url(#clip0_5303_10685)">
<path d="M11.5225 1.33154C11.5591 1.23413 11.6246 1.15021 11.7102 1.09097C11.7957 1.03174 11.8973 1 12.0014 1C12.1055 1 12.2071 1.03174 12.2926 1.09097C12.3782 1.15021 12.4437 1.23413 12.4803 1.33154L15.0702 8.67453H22.3845C22.4891 8.67453 22.5912 8.70657 22.677 8.76636C22.7628 8.82615 22.8283 8.9108 22.8645 9.00892C22.9008 9.10703 22.9061 9.2139 22.8797 9.31511C22.8533 9.41633 22.7966 9.50704 22.7171 9.57501L16.6051 14.6423L19.1633 22.327C19.1975 22.43 19.1981 22.5412 19.165 22.6445C19.1318 22.7479 19.0667 22.838 18.979 22.9019C18.8913 22.9658 18.7856 23.0001 18.6771 23C18.5685 22.9999 18.4629 22.9652 18.3754 22.9011L12.0004 18.2237L5.62232 22.9011C5.53473 22.964 5.42951 22.9976 5.32169 22.9971C5.21386 22.9966 5.10895 22.9621 5.02192 22.8984C4.93489 22.8347 4.87019 22.7452 4.83707 22.6426C4.80395 22.54 4.80409 22.4295 4.83747 22.327L7.39565 14.6423L1.28263 9.57501C1.20314 9.50704 1.14639 9.41633 1.12003 9.31511C1.09367 9.2139 1.09897 9.10703 1.1352 9.00892C1.17144 8.9108 1.23687 8.82615 1.32269 8.76636C1.40852 8.70657 1.5106 8.67453 1.61519 8.67453H8.93056L11.5225 1.33154Z" fill="#FFEF5E"/>
<path d="M12.0004 18.2237L5.62232 22.9011C5.53473 22.964 5.42951 22.9976 5.32169 22.9971C5.21386 22.9966 5.10895 22.9621 5.02192 22.8984C4.93489 22.8347 4.87019 22.7452 4.83707 22.6426C4.80395 22.54 4.80409 22.4295 4.83747 22.327L7.39565 14.6423L1.28263 9.57501C1.20314 9.50704 1.14639 9.41633 1.12003 9.31511C1.09367 9.2139 1.09897 9.10703 1.1352 9.00892C1.17144 8.9108 1.23687 8.82615 1.32269 8.76636C1.40852 8.70657 1.5106 8.67453 1.61519 8.67453H8.93056L11.5215 1.33154C11.5581 1.23413 11.6236 1.15021 11.7091 1.09097C11.7947 1.03174 11.8963 1 12.0004 1V18.2237Z" fill="#FFF9BF"/>
<path d="M11.5225 1.33154C11.5591 1.23413 11.6246 1.15021 11.7102 1.09097C11.7957 1.03174 11.8973 1 12.0014 1C12.1055 1 12.2071 1.03174 12.2926 1.09097C12.3782 1.15021 12.4437 1.23413 12.4803 1.33154L15.0702 8.67453H22.3845C22.4891 8.67453 22.5912 8.70657 22.677 8.76636C22.7628 8.82615 22.8283 8.9108 22.8645 9.00892C22.9008 9.10703 22.9061 9.2139 22.8797 9.31511C22.8533 9.41633 22.7966 9.50704 22.7171 9.57501L16.6051 14.6423L19.1633 22.327C19.1975 22.43 19.1981 22.5412 19.165 22.6445C19.1318 22.7479 19.0667 22.838 18.979 22.9019C18.8913 22.9658 18.7856 23.0001 18.6771 23C18.5685 22.9999 18.4629 22.9652 18.3754 22.9011L12.0004 18.2237L5.62232 22.9011C5.53473 22.964 5.42951 22.9976 5.32169 22.9971C5.21386 22.9966 5.10895 22.9621 5.02192 22.8984C4.93489 22.8347 4.87019 22.7452 4.83707 22.6426C4.80395 22.54 4.80409 22.4295 4.83747 22.327L7.39565 14.6423L1.28263 9.57501C1.20314 9.50704 1.14639 9.41633 1.12003 9.31511C1.09367 9.2139 1.09897 9.10703 1.1352 9.00892C1.17144 8.9108 1.23687 8.82615 1.32269 8.76636C1.40852 8.70657 1.5106 8.67453 1.61519 8.67453H8.93056L11.5225 1.33154Z" stroke="#191919" stroke-linecap="round" stroke-linejoin="round"/>
</g>
<defs>
<clipPath id="clip0_5303_10685">
<rect width="24" height="24" fill="white"/>
</clipPath>
</defs>
</svg>
