<svg width="24" height="24" viewBox="0 0 24 24" fill="none" xmlns="http://www.w3.org/2000/svg">
<g clip-path="url(#clip0_5303_9213)">
<path d="M11.9996 21.0869C14.4096 21.0869 16.7209 20.1295 18.425 18.4254C20.1291 16.7213 21.0865 14.41 21.0865 12C21.0865 9.58991 20.1291 7.27861 18.425 5.57447C16.7209 3.87034 14.4096 2.91296 11.9996 2.91296C9.58954 2.91296 7.27824 3.87034 5.57411 5.57447C3.86997 7.27861 2.9126 9.58991 2.9126 12C2.9126 14.41 3.86997 16.7213 5.57411 18.4254C7.27824 20.1295 9.58954 21.0869 11.9996 21.0869Z" fill="#66E1FF"/>
<path d="M12 23C18.0749 23 23 18.0749 23 12C23 5.92513 18.0749 1 12 1C5.92513 1 1 5.92513 1 12C1 18.0749 5.92513 23 12 23Z" stroke="#191919" stroke-linecap="round" stroke-linejoin="round"/>
<path d="M11.9992 15.3478C12.8871 15.3478 13.7386 14.9951 14.3665 14.3672C14.9943 13.7394 15.347 12.8879 15.347 12C15.347 11.1121 14.9943 10.2605 14.3665 9.63266C13.7386 9.00482 12.8871 8.6521 11.9992 8.6521C11.1113 8.6521 10.2598 9.00482 9.63192 9.63266C9.00408 10.2605 8.65137 11.1121 8.65137 12C8.65137 12.8879 9.00408 13.7394 9.63192 14.3672C10.2598 14.9951 11.1113 15.3478 11.9992 15.3478Z" stroke="#191919" stroke-linecap="round" stroke-linejoin="round"/>
<path d="M15.3473 17.7994C14.4578 18.3126 13.4623 18.6144 12.4375 18.6814C11.4128 18.7484 10.3864 18.5788 9.43774 18.1857C8.48905 17.7926 7.64349 17.1865 6.96646 16.4144C6.28943 15.6423 5.79906 14.7248 5.5333 13.7329C5.26753 12.7409 5.23348 11.7012 5.43378 10.694C5.63408 9.68679 6.06336 8.73918 6.68843 7.92442C7.31349 7.10966 8.11759 6.44959 9.03852 5.99527C9.95946 5.54094 10.9726 5.30453 11.9995 5.30432C21.0864 5.30432 20.6082 15.3478 16.7821 15.3478C15.3473 15.3478 15.3473 14.3913 15.3473 13.913V9.13041" stroke="#191919" stroke-linecap="round" stroke-linejoin="round"/>
</g>
<defs>
<clipPath id="clip0_5303_9213">
<rect width="24" height="24" fill="white"/>
</clipPath>
</defs>
</svg>
