<svg width="24" height="24" viewBox="0 0 24 24" fill="none" xmlns="http://www.w3.org/2000/svg">
<g clip-path="url(#clip0_5303_9181)">
<path d="M13.4345 19.1739C13.4922 20.5481 13.9449 21.8765 14.7383 23H9.26025C10.0529 21.8762 10.5052 20.5479 10.563 19.1739H13.4345Z" fill="#E3E3E3"/>
<path d="M23 16.3043V18.2174C23 18.471 22.8992 18.7143 22.7198 18.8937C22.5405 19.0731 22.2972 19.1739 22.0435 19.1739H1.95652C1.70284 19.1739 1.45954 19.0731 1.28016 18.8937C1.10078 18.7143 1 18.471 1 18.2174V16.3043H23Z" fill="white"/>
<path d="M23 1.95652V16.3043H1V1.95652C1 1.70284 1.10078 1.45954 1.28016 1.28016C1.45954 1.10078 1.70284 1 1.95652 1H22.0435C22.2972 1 22.5405 1.10078 22.7198 1.28016C22.8992 1.45954 23 1.70284 23 1.95652Z" fill="#66E1FF"/>
<path d="M1 1.95652V16.3043H5.17522L20.4796 1H1.95652C1.70284 1 1.45954 1.10078 1.28016 1.28016C1.10078 1.45954 1 1.70284 1 1.95652Z" fill="#C2F3FF"/>
<path d="M16.3015 5.78253H7.69285C7.43916 5.78253 7.19587 5.88331 7.01649 6.06269C6.8371 6.24207 6.73633 6.48537 6.73633 6.73905V11.5217C6.73633 11.7754 6.8371 12.0187 7.01649 12.1981C7.19587 12.3774 7.43916 12.4782 7.69285 12.4782H16.3015C16.5552 12.4782 16.7985 12.3774 16.9779 12.1981C17.1573 12.0187 17.2581 11.7754 17.2581 11.5217V6.73905C17.2581 6.48537 17.1573 6.24207 16.9779 6.06269C16.7985 5.88331 16.5552 5.78253 16.3015 5.78253Z" fill="#E3E3E3"/>
<path d="M7.69578 5.78253C7.44209 5.78253 7.1988 5.88331 7.01942 6.06269C6.84003 6.24207 6.73926 6.48537 6.73926 6.73905V11.5217C6.73926 11.7754 6.84003 12.0187 7.01942 12.1981C7.1988 12.3774 7.44209 12.4782 7.69578 12.4782H9.00143L15.6971 5.78253H7.69578Z" fill="white"/>
<path d="M16.3045 5.78253H7.69578C7.44209 5.78253 7.1988 5.88331 7.01942 6.06269C6.84003 6.24207 6.73926 6.48537 6.73926 6.73905V11.5217C6.73926 11.7754 6.84003 12.0187 7.01942 12.1981C7.1988 12.3774 7.44209 12.4782 7.69578 12.4782H16.3045C16.5582 12.4782 16.8015 12.3774 16.9808 12.1981C17.1602 12.0187 17.261 11.7754 17.261 11.5217V6.73905C17.261 6.48537 17.1602 6.24207 16.9808 6.06269C16.8015 5.88331 16.5582 5.78253 16.3045 5.78253Z" stroke="#191919" stroke-linecap="round" stroke-linejoin="round"/>
<path d="M6.73926 7.21735L11.0436 9.41735C11.3344 9.58525 11.6643 9.67365 12.0001 9.67365C12.3359 9.67365 12.6658 9.58525 12.9566 9.41735L17.261 7.21735" stroke="#191919" stroke-linecap="round" stroke-linejoin="round"/>
<path d="M9.26221 23C10.0549 21.8762 10.5072 20.5479 10.565 19.1739" stroke="#191919" stroke-linecap="round" stroke-linejoin="round"/>
<path d="M14.7374 23C13.9447 21.8762 13.4924 20.5479 13.4346 19.1739" stroke="#191919" stroke-linecap="round" stroke-linejoin="round"/>
<path d="M7.69531 23H16.304" stroke="#191919" stroke-linecap="round" stroke-linejoin="round"/>
<path d="M1 16.3043H23" stroke="#191919" stroke-linecap="round" stroke-linejoin="round"/>
<path d="M22.0435 1H1.95652C1.70284 1 1.45954 1.10078 1.28016 1.28016C1.10078 1.45954 1 1.70284 1 1.95652V18.2174C1 18.4711 1.10078 18.7144 1.28016 18.8938C1.45954 19.0731 1.70284 19.1739 1.95652 19.1739H22.0435C22.2972 19.1739 22.5405 19.0731 22.7198 18.8938C22.8992 18.7144 23 18.4711 23 18.2174V1.95652C23 1.70284 22.8992 1.45954 22.7198 1.28016C22.5405 1.10078 22.2972 1 22.0435 1Z" stroke="#191919" stroke-linecap="round" stroke-linejoin="round"/>
</g>
<defs>
<clipPath id="clip0_5303_9181">
<rect width="24" height="24" fill="white"/>
</clipPath>
</defs>
</svg>
