<svg width="24" height="24" viewBox="0 0 24 24" fill="none" xmlns="http://www.w3.org/2000/svg">
<path d="M11.5127 12.2818V1.4872C11.5127 1.39976 11.5362 1.31392 11.5808 1.2387C11.6253 1.16348 11.6894 1.10165 11.7661 1.0597C11.8428 1.01775 11.9294 0.997234 12.0168 1.0003C12.1042 1.00336 12.1891 1.0299 12.2627 1.07711L18.1072 4.8341C18.1759 4.8782 18.2324 4.93886 18.2716 5.01052C18.3107 5.08218 18.3312 5.16253 18.3312 5.24419V12.2857" fill="#E3E3E3"/>
<path d="M11.5127 12.2818V1.4872C11.5127 1.39976 11.5362 1.31392 11.5808 1.2387C11.6253 1.16348 11.6894 1.10165 11.7661 1.0597C11.8428 1.01775 11.9294 0.997234 12.0168 1.0003C12.1042 1.00336 12.1891 1.0299 12.2627 1.07711L18.1072 4.8341C18.1759 4.8782 18.2324 4.93886 18.2716 5.01052C18.3107 5.08218 18.3312 5.16253 18.3312 5.24419V12.2857" stroke="#191919" stroke-linecap="round" stroke-linejoin="round"/>
<path d="M4.69434 12.2837V7.90043C4.69434 7.77126 4.74565 7.64738 4.83699 7.55604C4.92832 7.4647 5.0522 7.41339 5.18137 7.41339H11.5128V12.2837" fill="#B2B2B2"/>
<path d="M4.69434 12.2837V7.90043C4.69434 7.77126 4.74565 7.64738 4.83699 7.55604C4.92832 7.4647 5.0522 7.41339 5.18137 7.41339H11.5128V12.2837" stroke="#191919" stroke-linecap="round" stroke-linejoin="round"/>
<path d="M17.3569 4.35192V1.08197" stroke="#191919" stroke-linecap="round" stroke-linejoin="round"/>
<path d="M11.5127 5.46533H13.4608" stroke="#191919" stroke-linecap="round" stroke-linejoin="round"/>
<path d="M11.5127 8.38751H14.4349" stroke="#191919" stroke-linecap="round" stroke-linejoin="round"/>
<path d="M4.69434 10.3356H7.61655" stroke="#191919" stroke-linecap="round" stroke-linejoin="round"/>
<path d="M17.5524 15.5937C17.4291 15.7639 17.3611 15.968 17.3576 16.1781V20.2303L13.51 20.99L14.601 20.1134C14.7334 20.0015 14.8175 19.8427 14.8357 19.6703C14.8539 19.4978 14.8047 19.325 14.6984 19.188L12.8282 17.123L12.1463 17.4055C12.004 17.4642 11.8512 17.4936 11.6973 17.492C11.5433 17.4903 11.3912 17.4575 11.2502 17.3957C11.0591 17.3146 10.8931 17.1841 10.7692 17.0176C10.6453 16.8511 10.568 16.6546 10.5452 16.4483C10.5224 16.242 10.5549 16.0333 10.6394 15.8437C10.7239 15.6542 10.8574 15.4905 11.0261 15.3697C11.0748 15.3404 11.1235 15.3112 11.182 15.282L12.9938 14.4053C13.2158 14.2884 13.4633 14.229 13.7146 14.23C13.9035 14.2339 14.0906 14.267 14.2698 14.3274L17.5524 15.5937Z" fill="#FFDDA1" stroke="#191919" stroke-linecap="round" stroke-linejoin="round"/>
<path d="M13.9483 16.6652L12.8281 17.123" stroke="#191919" stroke-linecap="round" stroke-linejoin="round"/>
<path d="M14.6012 20.1133L13.5103 20.99L11.192 22.8505C11.0593 22.9594 10.8894 23.0122 10.7183 22.9976C10.5473 22.9831 10.3887 22.9023 10.2763 22.7725L8.00676 21.0484H6.64307V16.1781L9.41917 14.9995C9.64474 14.9128 9.88828 14.8835 10.128 14.9141C10.3677 14.9447 10.596 15.0343 10.7926 15.1748L11.0264 15.3696C10.8577 15.4905 10.7242 15.6541 10.6397 15.8437C10.5551 16.0333 10.5226 16.2419 10.5454 16.4482C10.5682 16.6545 10.6456 16.851 10.7695 17.0175C10.8934 17.184 11.0594 17.3146 11.2504 17.3957C11.3914 17.4575 11.5435 17.4903 11.6975 17.492C11.8515 17.4937 12.0042 17.4642 12.1466 17.4054L12.8284 17.1229L14.6986 19.188C14.8049 19.325 14.8541 19.4978 14.8359 19.6702C14.8178 19.8427 14.7337 20.0014 14.6012 20.1133Z" fill="#FFDDA1" stroke="#191919" stroke-linecap="round" stroke-linejoin="round"/>
<path d="M6.64291 16.1781V21.0485C6.64291 21.1764 6.61772 21.303 6.56877 21.4212C6.51982 21.5394 6.44807 21.6468 6.35762 21.7372C6.26716 21.8277 6.15978 21.8994 6.0416 21.9484C5.92342 21.9973 5.79676 22.0225 5.66884 22.0225H4.20774C4.07857 22.0225 3.95469 21.9712 3.86335 21.8799C3.77202 21.7885 3.7207 21.6647 3.7207 21.5355V15.6911C3.7207 15.6271 3.7333 15.5638 3.75778 15.5047C3.78225 15.4456 3.81813 15.3919 3.86335 15.3467C3.90858 15.3015 3.96227 15.2656 4.02136 15.2411C4.08045 15.2166 4.14378 15.204 4.20774 15.204H5.66884C5.79676 15.204 5.92342 15.2292 6.0416 15.2782C6.15978 15.3271 6.26716 15.3989 6.35762 15.4893C6.44807 15.5798 6.51982 15.6872 6.56877 15.8053C6.61772 15.9235 6.64291 16.0502 6.64291 16.1781Z" fill="#66E1FF" stroke="#191919" stroke-linecap="round" stroke-linejoin="round"/>
<path d="M20.2791 15.691V21.5355C20.2791 21.5994 20.2665 21.6628 20.2421 21.7218C20.2176 21.7809 20.1817 21.8346 20.1365 21.8799C20.0913 21.9251 20.0376 21.961 19.9785 21.9854C19.9194 22.0099 19.8561 22.0225 19.7921 22.0225H18.331C18.0727 22.0225 17.8249 21.9199 17.6422 21.7372C17.4596 21.5545 17.3569 21.3068 17.3569 21.0484V16.1781C17.3608 15.9677 17.428 15.7641 17.5517 15.5936H17.5615C17.6493 15.4719 17.765 15.373 17.8989 15.3052C18.0327 15.2375 18.1809 15.2027 18.331 15.204H19.7921C19.8561 15.204 19.9194 15.2166 19.9785 15.2411C20.0376 15.2656 20.0913 15.3014 20.1365 15.3467C20.1817 15.3919 20.2176 15.4456 20.2421 15.5047C20.2665 15.5638 20.2791 15.6271 20.2791 15.691Z" fill="#66E1FF" stroke="#191919" stroke-linecap="round" stroke-linejoin="round"/>
</svg>
