<svg width="24" height="24" viewBox="0 0 24 24" fill="none" xmlns="http://www.w3.org/2000/svg">
<g clip-path="url(#clip0_5303_7381)">
<path d="M4.20752 22.026C4.20754 22.1224 4.23615 22.2166 4.28973 22.2967C4.3433 22.3768 4.41945 22.4392 4.5085 22.4761C4.59756 22.5129 4.69554 22.5224 4.79005 22.5035C4.88454 22.4846 4.97131 22.4381 5.03937 22.3699L6.15565 21.2536L7.75896 22.8569C7.8042 22.9023 7.85794 22.9382 7.91711 22.9628C7.97628 22.9873 8.03971 23 8.10377 23C8.16784 23 8.23127 22.9873 8.29043 22.9628C8.34961 22.9382 8.40335 22.9023 8.44859 22.8569L10.0519 21.2536L11.6552 22.8569C11.7004 22.9023 11.7542 22.9382 11.8134 22.9628C11.8725 22.9873 11.9359 23 12 23C12.0641 23 12.1275 22.9873 12.1867 22.9628C12.2459 22.9382 12.2997 22.9023 12.3448 22.8569L13.9482 21.2536L15.5515 22.8569C15.5967 22.9023 15.6504 22.9382 15.7097 22.9628C15.7688 22.9873 15.8322 23 15.8963 23C15.9604 23 16.0238 22.9873 16.0829 22.9628C16.1421 22.9382 16.1959 22.9023 16.2411 22.8569L17.8444 21.2536L18.9607 22.3699C19.0288 22.4381 19.1155 22.4846 19.21 22.5035C19.3045 22.5224 19.4025 22.5129 19.4916 22.4761C19.5806 22.4392 19.6568 22.3768 19.7103 22.2967C19.7639 22.2166 19.7925 22.1224 19.7925 22.026V1.97396C19.7925 1.87759 19.7639 1.78339 19.7103 1.70329C19.6568 1.62319 19.5806 1.56078 19.4916 1.52397C19.4025 1.48715 19.3045 1.47759 19.21 1.49648C19.1155 1.51538 19.0288 1.56188 18.9607 1.63011L17.8444 2.74639L16.2411 1.14308C16.1959 1.09773 16.1421 1.06174 16.0829 1.03719C16.0238 1.01264 15.9604 1 15.8963 1C15.8322 1 15.7688 1.01264 15.7097 1.03719C15.6504 1.06174 15.5967 1.09773 15.5515 1.14308L13.9482 2.74639L12.3448 1.14308C12.2997 1.09773 12.2459 1.06174 12.1867 1.03719C12.1275 1.01264 12.0641 1 12 1C11.9359 1 11.8725 1.01264 11.8134 1.03719C11.7542 1.06174 11.7004 1.09773 11.6552 1.14308L10.0519 2.74639L8.44859 1.14308C8.40335 1.09773 8.34961 1.06174 8.29043 1.03719C8.23127 1.01264 8.16784 1 8.10377 1C8.03971 1 7.97628 1.01264 7.91711 1.03719C7.85794 1.06174 7.8042 1.09773 7.75896 1.14308L6.15565 2.74639L5.03937 1.63011C4.97131 1.56188 4.88454 1.51538 4.79005 1.49648C4.69554 1.47759 4.59756 1.48715 4.5085 1.52397C4.41945 1.56078 4.3433 1.62319 4.28973 1.70329C4.23615 1.78339 4.20754 1.87759 4.20752 1.97396V22.026Z" fill="#E3E3E3"/>
<path d="M19.6591 1.66128C19.615 1.60281 19.5575 1.55572 19.4916 1.52394C19.4025 1.48713 19.3045 1.47758 19.21 1.49647C19.1155 1.51537 19.0288 1.56188 18.9607 1.63011L17.8444 2.74639L16.2411 1.14308C16.1959 1.09773 16.1421 1.06174 16.0829 1.03719C16.0238 1.01264 15.9604 1 15.8963 1C15.8322 1 15.7688 1.01264 15.7097 1.03719C15.6504 1.06174 15.5967 1.09773 15.5515 1.14308L13.9482 2.74639L12.3448 1.14308C12.2997 1.09773 12.2459 1.06174 12.1867 1.03719C12.1275 1.01264 12.0641 1 12 1C11.9359 1 11.8725 1.01264 11.8134 1.03719C11.7542 1.06174 11.7004 1.09773 11.6552 1.14308L10.0519 2.74639L8.44859 1.14308C8.40335 1.09773 8.34961 1.06174 8.29043 1.03719C8.23127 1.01264 8.16784 1 8.10377 1C8.03971 1 7.97628 1.01264 7.91711 1.03719C7.85794 1.06174 7.8042 1.09773 7.75896 1.14308L6.15565 2.74639L5.03937 1.63011C4.97131 1.56188 4.88454 1.51538 4.79005 1.49648C4.69554 1.47759 4.59756 1.48715 4.5085 1.52397C4.41945 1.56078 4.3433 1.62319 4.28973 1.70329C4.23615 1.78339 4.20754 1.87759 4.20752 1.97396V17.1129L19.6591 1.66128Z" fill="white"/>
<path d="M4.20752 22.026C4.20754 22.1224 4.23615 22.2166 4.28973 22.2967C4.3433 22.3768 4.41945 22.4392 4.5085 22.4761C4.59756 22.5129 4.69554 22.5224 4.79005 22.5035C4.88454 22.4846 4.97131 22.4381 5.03937 22.3699L6.15565 21.2536L7.75896 22.8569C7.8042 22.9023 7.85794 22.9382 7.91711 22.9628C7.97628 22.9873 8.03971 23 8.10377 23C8.16784 23 8.23127 22.9873 8.29043 22.9628C8.34961 22.9382 8.40335 22.9023 8.44859 22.8569L10.0519 21.2536L11.6552 22.8569C11.7004 22.9023 11.7542 22.9382 11.8134 22.9628C11.8725 22.9873 11.9359 23 12 23C12.0641 23 12.1275 22.9873 12.1867 22.9628C12.2459 22.9382 12.2997 22.9023 12.3448 22.8569L13.9482 21.2536L15.5515 22.8569C15.5967 22.9023 15.6504 22.9382 15.7097 22.9628C15.7688 22.9873 15.8322 23 15.8963 23C15.9604 23 16.0238 22.9873 16.0829 22.9628C16.1421 22.9382 16.1959 22.9023 16.2411 22.8569L17.8444 21.2536L18.9607 22.3699C19.0288 22.4381 19.1155 22.4846 19.21 22.5035C19.3045 22.5224 19.4025 22.5129 19.4916 22.4761C19.5806 22.4392 19.6568 22.3768 19.7103 22.2967C19.7639 22.2166 19.7925 22.1224 19.7925 22.026V1.97396C19.7925 1.87759 19.7639 1.78339 19.7103 1.70329C19.6568 1.62319 19.5806 1.56078 19.4916 1.52397C19.4025 1.48715 19.3045 1.47759 19.21 1.49648C19.1155 1.51538 19.0288 1.56188 18.9607 1.63011L17.8444 2.74639L16.2411 1.14308C16.1959 1.09773 16.1421 1.06174 16.0829 1.03719C16.0238 1.01264 15.9604 1 15.8963 1C15.8322 1 15.7688 1.01264 15.7097 1.03719C15.6504 1.06174 15.5967 1.09773 15.5515 1.14308L13.9482 2.74639L12.3448 1.14308C12.2997 1.09773 12.2459 1.06174 12.1867 1.03719C12.1275 1.01264 12.0641 1 12 1C11.9359 1 11.8725 1.01264 11.8134 1.03719C11.7542 1.06174 11.7004 1.09773 11.6552 1.14308L10.0519 2.74639L8.44859 1.14308C8.40335 1.09773 8.34961 1.06174 8.29043 1.03719C8.23127 1.01264 8.16784 1 8.10377 1C8.03971 1 7.97628 1.01264 7.91711 1.03719C7.85794 1.06174 7.8042 1.09773 7.75896 1.14308L6.15565 2.74639L5.03937 1.63011C4.97131 1.56188 4.88454 1.51538 4.79005 1.49648C4.69554 1.47759 4.59756 1.48715 4.5085 1.52397C4.41945 1.56078 4.3433 1.62319 4.28973 1.70329C4.23615 1.78339 4.20754 1.87759 4.20752 1.97396V22.026Z" stroke="#191919" stroke-linecap="round" stroke-linejoin="round"/>
<path d="M7.12988 6.6427H14.9224" stroke="#191919" stroke-linecap="round" stroke-linejoin="round"/>
<path d="M7.12988 9.56482H11.0261" stroke="#191919" stroke-linecap="round" stroke-linejoin="round"/>
<path d="M7.12988 12.4871H11.0261" stroke="#191919" stroke-linecap="round" stroke-linejoin="round"/>
<path d="M7.12988 15.4092H10.0521" stroke="#191919" stroke-linecap="round" stroke-linejoin="round"/>
<path d="M14.9224 17.2736V18.3314" stroke="#191919" stroke-linecap="round" stroke-linejoin="round"/>
<path d="M15.8965 10.5388V11.5986" stroke="#191919" stroke-linecap="round" stroke-linejoin="round"/>
<path d="M13.9488 15.8961C13.9488 16.1851 14.0345 16.4676 14.195 16.7079C14.3555 16.9481 14.5838 17.1354 14.8508 17.246C15.1177 17.3567 15.4115 17.3856 15.6949 17.3292C15.9783 17.2728 16.2387 17.1336 16.4431 16.9293C16.6473 16.725 16.7865 16.4646 16.8429 16.1812C16.8993 15.8978 16.8704 15.604 16.7597 15.337C16.6492 15.07 16.4619 14.8418 16.2216 14.6813C15.9813 14.5208 15.6989 14.435 15.4099 14.435C15.1209 14.435 14.8384 14.3493 14.5981 14.1888C14.3579 14.0283 14.1706 13.8001 14.06 13.5331C13.9494 13.2661 13.9204 12.9723 13.9768 12.6889C14.0332 12.4055 14.1724 12.1451 14.3767 11.9408C14.581 11.7365 14.8414 11.5973 15.1249 11.5409C15.4082 11.4845 15.702 11.5134 15.969 11.6241C16.236 11.7346 16.4642 11.922 16.6247 12.1622C16.7852 12.4025 16.871 12.6849 16.871 12.9739" stroke="#191919" stroke-linecap="round" stroke-linejoin="round"/>
</g>
<defs>
<clipPath id="clip0_5303_7381">
<rect width="24" height="24" fill="white"/>
</clipPath>
</defs>
</svg>
