<svg width="24" height="24" viewBox="0 0 24 24" fill="none" xmlns="http://www.w3.org/2000/svg">
<path d="M18.4512 10.7306C18.6289 10.3587 18.8998 10.0392 19.2374 9.80282C19.5751 9.56648 19.9681 9.42141 20.3783 9.38168C20.7885 9.34195 21.2021 9.40892 21.5788 9.57608C21.9555 9.74324 22.2827 10.0049 22.5285 10.3357C22.7743 10.6666 22.9304 11.0553 22.9818 11.4642C23.0331 11.8732 22.9779 12.2884 22.8214 12.6698C22.665 13.0511 22.4127 13.3855 22.089 13.6406C21.7652 13.8956 21.3811 14.0627 20.9738 14.1256" fill="white"/>
<path d="M18.4512 10.7306C18.6289 10.3587 18.8998 10.0392 19.2374 9.80282C19.5751 9.56648 19.9681 9.42141 20.3783 9.38168C20.7885 9.34195 21.2021 9.40892 21.5788 9.57608C21.9555 9.74324 22.2827 10.0049 22.5285 10.3357C22.7743 10.6666 22.9304 11.0553 22.9818 11.4642C23.0331 11.8732 22.9779 12.2884 22.8214 12.6698C22.665 13.0511 22.4127 13.3855 22.089 13.6406C21.7652 13.8956 21.3811 14.0627 20.9738 14.1256" stroke="#191919" stroke-linecap="round" stroke-linejoin="round"/>
<path d="M5.54913 10.7306C5.37136 10.3588 5.10054 10.0393 4.76292 9.80299C4.42531 9.56668 4.03237 9.42162 3.62219 9.38188C3.21201 9.34213 2.79853 9.40905 2.42183 9.57615C2.04513 9.74324 1.718 10.0048 1.47216 10.3356C1.22632 10.6663 1.07012 11.055 1.01869 11.4638C0.967272 11.8727 1.02237 12.2879 1.17866 12.6693C1.33494 13.0506 1.58711 13.385 1.9107 13.6402C2.23429 13.8954 2.61833 14.0626 3.02557 14.1256" fill="white"/>
<path d="M5.54913 10.7306C5.37136 10.3588 5.10054 10.0393 4.76292 9.80299C4.42531 9.56668 4.03237 9.42162 3.62219 9.38188C3.21201 9.34213 2.79853 9.40905 2.42183 9.57615C2.04513 9.74324 1.718 10.0048 1.47216 10.3356C1.22632 10.6663 1.07012 11.055 1.01869 11.4638C0.967272 11.8727 1.02237 12.2879 1.17866 12.6693C1.33494 13.0506 1.58711 13.385 1.9107 13.6402C2.23429 13.8954 2.61833 14.0626 3.02557 14.1256" stroke="#191919" stroke-linecap="round" stroke-linejoin="round"/>
<path d="M11.999 21.327C17.0184 21.327 21.0869 18.5433 21.0869 15.109C21.0869 11.6747 17.0184 8.89099 11.999 8.89099C6.97963 8.89099 2.91113 11.6747 2.91113 15.109C2.91113 18.5433 6.97963 21.327 11.999 21.327Z" fill="white"/>
<path d="M12 18.4572C7.70381 18.4572 4.11362 16.4157 3.16561 13.6741C3.00147 14.1348 2.91578 14.6199 2.91211 15.109C2.91211 18.5433 6.9806 21.327 12 21.327C17.0193 21.327 21.0878 18.5433 21.0878 15.109C21.0845 14.6199 20.9991 14.1349 20.8353 13.6741C19.8863 16.4157 16.2952 18.4572 12 18.4572Z" fill="#E3E3E3"/>
<path d="M11.999 21.327C17.0184 21.327 21.0869 18.5433 21.0869 15.109C21.0869 11.6747 17.0184 8.89099 11.999 8.89099C6.97963 8.89099 2.91113 11.6747 2.91113 15.109C2.91113 18.5433 6.97963 21.327 11.999 21.327Z" stroke="#191919" stroke-linecap="round" stroke-linejoin="round"/>
<path d="M15.383 17.866C14.3474 18.4349 13.182 18.7256 12.0004 18.7097C10.813 18.7258 9.64183 18.432 8.60254 17.8574" stroke="#191919" stroke-linecap="round" stroke-linejoin="round"/>
<path d="M15.8256 15.109C16.2061 15.109 16.5711 14.9578 16.8402 14.6887C17.1093 14.4196 17.2605 14.0546 17.2605 13.6741C17.2605 13.2935 17.1093 12.9285 16.8402 12.6594C16.5711 12.3903 16.2061 12.2391 15.8256 12.2391C15.445 12.2391 15.08 12.3903 14.8109 12.6594C14.5418 12.9285 14.3906 13.2935 14.3906 13.6741C14.3906 14.0546 14.5418 14.4196 14.8109 14.6887C15.08 14.9578 15.445 15.109 15.8256 15.109Z" fill="#FF808C" stroke="#191919" stroke-linecap="round" stroke-linejoin="round"/>
<path d="M8.17321 15.109C8.55377 15.109 8.91875 14.9578 9.18785 14.6887C9.45695 14.4196 9.60813 14.0546 9.60813 13.6741C9.60813 13.2935 9.45695 12.9285 9.18785 12.6594C8.91875 12.3903 8.55377 12.2391 8.17321 12.2391C7.79264 12.2391 7.42766 12.3903 7.15856 12.6594C6.88946 12.9285 6.73828 13.2935 6.73828 13.6741C6.73828 14.0546 6.88946 14.4196 7.15856 14.6887C7.42766 14.9578 7.79264 15.109 8.17321 15.109Z" fill="#FF808C" stroke="#191919" stroke-linecap="round" stroke-linejoin="round"/>
<path d="M19.6523 7.45606C20.2866 7.45606 20.8949 7.2041 21.3434 6.75559C21.7919 6.30709 22.0438 5.69879 22.0438 5.06452C22.0438 4.43024 21.7919 3.82194 21.3434 3.37344C20.8949 2.92494 20.2866 2.67297 19.6523 2.67297C19.018 2.67297 18.4097 2.92494 17.9612 3.37344C17.5127 3.82194 17.2607 4.43024 17.2607 5.06452C17.2607 5.69879 17.5127 6.30709 17.9612 6.75559C18.4097 7.2041 19.018 7.45606 19.6523 7.45606Z" fill="white" stroke="#191919" stroke-linecap="round" stroke-linejoin="round"/>
<path d="M12.0002 8.89097C12.0002 8.89097 11.8806 1.812 17.2616 5.0645" stroke="#191919" stroke-linecap="round" stroke-linejoin="round"/>
</svg>
