<svg width="24" height="24" viewBox="0 0 24 24" fill="none" xmlns="http://www.w3.org/2000/svg">
<g clip-path="url(#clip0_5303_4389)">
<mask id="mask0_5303_4389" style="mask-type:luminance" maskUnits="userSpaceOnUse" x="0" y="0" width="24" height="24">
<path d="M0 0H24V24H0V0Z" fill="white"/>
</mask>
<g mask="url(#mask0_5303_4389)">
<path d="M12 8.65222V23" stroke="#191919" stroke-linecap="round" stroke-linejoin="round"/>
<path d="M22.5219 8.65222V21.5652C22.5219 21.8283 22.3699 21.8913 22.1833 21.7049L16.1649 15.6864C16.1203 15.642 16.085 15.5893 16.061 15.5311C16.0368 15.4731 16.0244 15.4108 16.0244 15.3478C16.0244 15.2848 16.0368 15.2226 16.061 15.1645C16.085 15.1064 16.1203 15.0536 16.1649 15.0093L22.5219 8.65222Z" fill="#66E1FF"/>
<path d="M1.81666 8.98884C1.6301 8.80238 1.47803 8.86544 1.47803 9.13042V21.5652C1.47803 21.8283 1.6301 21.8913 1.81666 21.7049L7.8351 15.6864C7.87961 15.642 7.91493 15.5893 7.93901 15.5311C7.96319 15.4731 7.97555 15.4108 7.97555 15.3478C7.97555 15.2848 7.96319 15.2226 7.93901 15.1645C7.91493 15.1064 7.87961 15.0537 7.8351 15.0093L1.81666 8.98884Z" fill="#66E1FF"/>
<path d="M18.2175 6.73912C18.2175 5.21706 17.6129 3.75721 16.5365 2.68098C15.4603 1.60465 14.0005 1 12.4784 1C10.9563 1 9.49657 1.60465 8.42023 2.68098C7.3439 3.75721 6.73926 5.21706 6.73926 6.73912" stroke="#191919" stroke-linecap="round" stroke-linejoin="round"/>
<path d="M4.82568 3.86957L6.73876 6.73913L9.60831 4.34782" stroke="#191919" stroke-linecap="round" stroke-linejoin="round"/>
<path d="M22.5219 8.65222V21.5652C22.5219 21.8283 22.3699 21.8913 22.1833 21.7049L16.1649 15.6864C16.1203 15.642 16.085 15.5893 16.061 15.5311C16.0368 15.4731 16.0244 15.4108 16.0244 15.3478C16.0244 15.2848 16.0368 15.2226 16.061 15.1645C16.085 15.1064 16.1203 15.0536 16.1649 15.0093L22.5219 8.65222Z" stroke="#191919" stroke-linecap="round" stroke-linejoin="round"/>
<path d="M1.81666 8.98884C1.6301 8.80238 1.47803 8.86544 1.47803 9.13042V21.5652C1.47803 21.8283 1.6301 21.8913 1.81666 21.7049L7.8351 15.6864C7.87961 15.642 7.91493 15.5893 7.93901 15.5311C7.96319 15.4731 7.97555 15.4108 7.97555 15.3478C7.97555 15.2848 7.96319 15.2226 7.93901 15.1645C7.91493 15.1064 7.87961 15.0537 7.8351 15.0093L1.81666 8.98884Z" stroke="#191919" stroke-linecap="round" stroke-linejoin="round"/>
</g>
</g>
<defs>
<clipPath id="clip0_5303_4389">
<rect width="24" height="24" fill="white"/>
</clipPath>
</defs>
</svg>
