<svg width="24" height="24" viewBox="0 0 24 24" fill="none" xmlns="http://www.w3.org/2000/svg">
<path d="M15.1439 11.9999H1.66895" stroke="#191919" stroke-linecap="round" stroke-linejoin="round"/>
<path d="M14.5091 2.75341C14.8586 2.40398 14.74 2.11835 14.2459 2.11835H3.46592C2.97184 2.11835 2.85331 2.40398 3.20275 2.75341L8.22085 7.77152C8.38934 7.93991 8.61777 8.03451 8.85592 8.03451C9.09416 8.03451 9.3226 7.93991 9.49108 7.77152L14.5091 2.75341Z" fill="#66E1FF"/>
<path d="M8.85592 2.11914H3.46592C2.97184 2.11914 2.85331 2.40487 3.20275 2.7543L8.22085 7.77149C8.38952 7.93933 8.61795 8.03329 8.85592 8.03292V2.11914Z" fill="#C2F3FF"/>
<path d="M14.5091 2.75341C14.8586 2.40398 14.74 2.11835 14.2459 2.11835H3.46592C2.97184 2.11835 2.85331 2.40398 3.20275 2.75341L8.22085 7.77152C8.38934 7.93991 8.61777 8.03451 8.85592 8.03451C9.09416 8.03451 9.3226 7.93991 9.49108 7.77152L14.5091 2.75341Z" stroke="#191919" stroke-linecap="round" stroke-linejoin="round"/>
<path d="M14.3771 21.1145C14.4401 21.1773 14.4829 21.2573 14.5003 21.3445C14.5178 21.4317 14.509 21.5221 14.475 21.6041C14.4411 21.6862 14.3834 21.7565 14.3096 21.8059C14.2357 21.8553 14.1489 21.8817 14.0599 21.8817H3.46592C2.97184 21.8817 2.85331 21.596 3.20275 21.2466L8.22085 16.2285C8.38934 16.0601 8.61777 15.9655 8.85592 15.9655C9.09416 15.9655 9.3226 16.0601 9.49108 16.2285L14.3771 21.1145Z" fill="#E3E3E3"/>
<path d="M8.85592 15.9661C8.61786 15.9659 8.38943 16.0603 8.22085 16.2285L3.20275 21.2466C2.85331 21.596 2.97184 21.8817 3.46592 21.8817H8.85592V15.9661Z" fill="white"/>
<path d="M14.3771 21.1145C14.4401 21.1773 14.4829 21.2573 14.5003 21.3445C14.5178 21.4317 14.509 21.5221 14.475 21.6041C14.4411 21.6862 14.3834 21.7565 14.3096 21.8059C14.2357 21.8553 14.1489 21.8817 14.0599 21.8817H3.46592C2.97184 21.8817 2.85331 21.596 3.20275 21.2466L8.22085 16.2285C8.38934 16.0601 8.61777 15.9655 8.85592 15.9655C9.09416 15.9655 9.3226 16.0601 9.49108 16.2285L14.3771 21.1145Z" stroke="#191919" stroke-linecap="round" stroke-linejoin="round"/>
<path d="M16.9409 6.16168C18.3705 6.16168 19.7414 6.72956 20.7522 7.74037C21.763 8.75127 22.3309 10.1222 22.3309 11.5517C22.3309 12.9811 21.763 14.3522 20.7522 15.363C19.7414 16.3739 18.3705 16.9417 16.9409 16.9417" stroke="#191919" stroke-linecap="round" stroke-linejoin="round"/>
<path d="M19.6359 18.7374L16.9409 16.9407L19.1868 14.2457" stroke="#191919" stroke-linecap="round" stroke-linejoin="round"/>
</svg>
