<svg width="24" height="24" viewBox="0 0 24 24" fill="none" xmlns="http://www.w3.org/2000/svg">
<g clip-path="url(#clip0_5303_1764)">
<path d="M7.4502 12L1.0875 18.3627C0.898004 18.5521 0.791504 18.8093 0.791504 19.0774C0.791504 19.3455 0.898004 19.6027 1.0875 19.7922L4.2077 22.9125C4.3973 23.1019 4.6544 23.2085 4.9225 23.2085C5.1906 23.2085 5.4477 23.1019 5.6373 22.9125L12 16.5498L18.3627 22.9125C18.5522 23.1019 18.8094 23.2085 19.0775 23.2085C19.3455 23.2085 19.6026 23.1019 19.7922 22.9125L22.9125 19.7922C23.102 19.6027 23.2085 19.3455 23.2085 19.0774C23.2085 18.8093 23.102 18.5521 22.9125 18.3627L16.5498 12L22.9125 5.6373C23.102 5.4477 23.2085 5.1906 23.2085 4.9225C23.2085 4.6544 23.102 4.3973 22.9125 4.2077L19.7922 1.0875C19.6026 0.897996 19.3455 0.791496 19.0775 0.791496C18.8094 0.791496 18.5522 0.897996 18.3627 1.0875L12 7.4502L5.6373 1.0875C5.4477 0.897996 5.1906 0.791496 4.9225 0.791496C4.6544 0.791496 4.3973 0.897996 4.2077 1.0875L1.0875 4.2077C0.898004 4.3973 0.791504 4.6544 0.791504 4.9225C0.791504 5.1906 0.898004 5.4477 1.0875 5.6373L7.4502 12Z" fill="#FF808C"/>
<path d="M1.0875 19.7922L2.6476 21.3523L21.3524 2.6476L19.7922 1.0875C19.6026 0.897996 19.3455 0.791496 19.0775 0.791496C18.8094 0.791496 18.5522 0.897996 18.3627 1.0875L12 7.4502L5.6373 1.0875C5.4477 0.897996 5.1906 0.791496 4.9225 0.791496C4.6544 0.791496 4.3973 0.897996 4.2077 1.0875L1.0875 4.2077C0.898004 4.3973 0.791504 4.6544 0.791504 4.9225C0.791504 5.1906 0.898004 5.4477 1.0875 5.6373L7.4502 12L1.0875 18.3627C0.898004 18.5521 0.791504 18.8093 0.791504 19.0774C0.791504 19.3455 0.898004 19.6027 1.0875 19.7922Z" fill="#FFBFC5"/>
<path d="M7.4502 12L1.0875 18.3627C0.898004 18.5521 0.791504 18.8093 0.791504 19.0774C0.791504 19.3455 0.898004 19.6027 1.0875 19.7922L4.2077 22.9125C4.3973 23.1019 4.6544 23.2085 4.9225 23.2085C5.1906 23.2085 5.4477 23.1019 5.6373 22.9125L12 16.5498L18.3627 22.9125C18.5522 23.1019 18.8094 23.2085 19.0775 23.2085C19.3455 23.2085 19.6026 23.1019 19.7922 22.9125L22.9125 19.7922C23.102 19.6027 23.2085 19.3455 23.2085 19.0774C23.2085 18.8093 23.102 18.5521 22.9125 18.3627L16.5498 12L22.9125 5.6373C23.102 5.4477 23.2085 5.1906 23.2085 4.9225C23.2085 4.6544 23.102 4.3973 22.9125 4.2077L19.7922 1.0875C19.6026 0.897996 19.3455 0.791496 19.0775 0.791496C18.8094 0.791496 18.5522 0.897996 18.3627 1.0875L12 7.4502L5.6373 1.0875C5.4477 0.897996 5.1906 0.791496 4.9225 0.791496C4.6544 0.791496 4.3973 0.897996 4.2077 1.0875L1.0875 4.2077C0.898004 4.3973 0.791504 4.6544 0.791504 4.9225C0.791504 5.1906 0.898004 5.4477 1.0875 5.6373L7.4502 12Z" stroke="#191919" stroke-linecap="round" stroke-linejoin="round"/>
</g>
<defs>
<clipPath id="clip0_5303_1764">
<rect width="24" height="24" fill="white"/>
</clipPath>
</defs>
</svg>
