<svg width="24" height="24" viewBox="0 0 24 24" fill="none" xmlns="http://www.w3.org/2000/svg">
<g clip-path="url(#clip0_5303_9325)">
<path d="M2.91309 1.95652C2.91309 1.70284 3.01386 1.45954 3.19324 1.28016C3.37263 1.10078 3.61592 1 3.86961 1H20.1305C20.3842 1 20.6275 1.10078 20.8068 1.28016C20.9862 1.45954 21.087 1.70284 21.087 1.95652V7.94817C21.0871 11.0468 20.2407 14.0866 18.6392 16.7393C17.0378 19.392 14.7421 21.5568 12 23C9.25781 21.5571 6.96195 19.3923 5.36045 16.7395C3.75895 14.0868 2.91269 11.0469 2.91309 7.94817V1.95652Z" fill="#FF808C"/>
<path d="M12 1H3.86961C3.61592 1 3.37263 1.10078 3.19324 1.28016C3.01386 1.45954 2.91309 1.70284 2.91309 1.95652V7.94817C2.9128 11.0468 3.7591 14.0867 5.36059 16.7394C6.96208 19.3922 9.25788 21.557 12 23V1Z" fill="#FFBFC5"/>
<path d="M2.91309 1.95652C2.91309 1.70284 3.01386 1.45954 3.19324 1.28016C3.37263 1.10078 3.61592 1 3.86961 1H20.1305C20.3842 1 20.6275 1.10078 20.8068 1.28016C20.9862 1.45954 21.087 1.70284 21.087 1.95652V7.94817C21.0871 11.0468 20.2407 14.0866 18.6392 16.7393C17.0378 19.392 14.7421 21.5568 12 23C9.25781 21.5571 6.96195 19.3923 5.36045 16.7395C3.75895 14.0868 2.91269 11.0469 2.91309 7.94817V1.95652Z" stroke="#191919" stroke-linecap="round" stroke-linejoin="round"/>
<path d="M8.17432 6.25891L15.8265 13.9111" stroke="#191919" stroke-linecap="round" stroke-linejoin="round"/>
<path d="M15.8265 6.25891L8.17432 13.9111" stroke="#191919" stroke-linecap="round" stroke-linejoin="round"/>
</g>
<defs>
<clipPath id="clip0_5303_9325">
<rect width="24" height="24" fill="white"/>
</clipPath>
</defs>
</svg>
