<svg width="24" height="24" viewBox="0 0 24 24" fill="none" xmlns="http://www.w3.org/2000/svg">
<g clip-path="url(#clip0_5303_3789)">
<path d="M5.78223 14.3914V5.30446C5.78223 4.5121 6.42457 3.86975 7.21694 3.86975H21.5648C22.3571 3.86975 22.9995 4.5121 22.9995 5.30446V14.3914H5.78223Z" fill="#66E1FF"/>
<path d="M19.6517 3.86975H7.21694C6.42457 3.86975 5.78223 4.5121 5.78223 5.30446V14.3914H9.13002L19.6517 3.86975Z" fill="#C2F3FF"/>
<path d="M5.78223 14.3915H22.9995V16.7827C22.9995 17.5752 22.3571 18.2175 21.5648 18.2175H7.21694C6.42457 18.2175 5.78223 17.5752 5.78223 16.7827V14.3915Z" fill="white"/>
<path d="M10.5647 6.73932H4.82568C4.29734 6.73922 3.86914 7.16752 3.86914 7.69586V15.348C3.86914 15.8762 4.29734 16.3045 4.82568 16.3044H10.5647C11.0931 16.3044 11.5213 15.8762 11.5213 15.348V7.69586C11.5213 7.16752 11.0931 6.73932 10.5647 6.73932Z" fill="white"/>
<path d="M11.5213 8.65228H3.86914V14.3914H11.5213V8.65228Z" fill="#66E1FF"/>
<path d="M10.5647 8.65228H3.86914V14.3914H4.82568L10.5647 8.65228Z" fill="#C2F3FF"/>
<path d="M5.78261 11.5219H1.95654C1.4282 11.5218 1 11.9501 1 12.4784V19.174C1 19.7023 1.4282 20.1305 1.95654 20.1305H5.78261C6.31085 20.1305 6.73915 19.7023 6.73915 19.174V12.4784C6.73915 11.9501 6.31085 11.5219 5.78261 11.5219Z" fill="white"/>
<path d="M6.73905 13.4349H1V18.2175H6.73905V13.4349Z" fill="#66E1FF"/>
<path d="M1 13.4349V18.2175H1.47827L6.26088 13.4349H1Z" fill="#C2F3FF"/>
<path d="M5.85791 4.82623C6.05361 4.24488 6.60382 3.85768 7.21708 3.86978H21.5649C22.3802 3.8937 23.0222 4.57333 22.9996 5.38873V16.6986C23.0222 17.5139 22.3802 18.1935 21.5649 18.2175H8.65189" stroke="#191919" stroke-linecap="round" stroke-linejoin="round"/>
<path d="M10.0864 20.1305H18.695" stroke="#191919" stroke-linecap="round" stroke-linejoin="round"/>
<path d="M14.3906 18.2175V20.1305" stroke="#191919" stroke-linecap="round" stroke-linejoin="round"/>
<path d="M13.4341 14.3915H22.9992" stroke="#191919" stroke-linecap="round" stroke-linejoin="round"/>
<path d="M3.86914 9.60884V7.69586C3.86914 7.16752 4.29744 6.73932 4.82568 6.73932H10.5647C11.0931 6.73932 11.5213 7.16752 11.5213 7.69586V15.348C11.5213 15.8762 11.0931 16.3044 10.5647 16.3044H8.65175" stroke="#191919" stroke-linecap="round" stroke-linejoin="round"/>
<path d="M8.65234 14.3915H11.5219" stroke="#191919" stroke-linecap="round" stroke-linejoin="round"/>
<path d="M5.78261 11.5219H1.95654C1.4282 11.5218 1 11.9501 1 12.4784V19.174C1 19.7023 1.4282 20.1305 1.95654 20.1305H5.78261C6.31085 20.1305 6.73915 19.7023 6.73915 19.174V12.4784C6.73915 11.9501 6.31085 11.5219 5.78261 11.5219Z" stroke="#191919" stroke-linecap="round" stroke-linejoin="round"/>
<path d="M1 18.2175H6.73905" stroke="#191919" stroke-linecap="round" stroke-linejoin="round"/>
<path d="M1 13.4349H6.73905" stroke="#191919" stroke-linecap="round" stroke-linejoin="round"/>
<path d="M3.86816 8.65326H11.5203" stroke="#191919" stroke-linecap="round" stroke-linejoin="round"/>
</g>
<defs>
<clipPath id="clip0_5303_3789">
<rect width="24" height="24" fill="white"/>
</clipPath>
</defs>
</svg>
