<svg width="24" height="24" viewBox="0 0 24 24" fill="none" xmlns="http://www.w3.org/2000/svg">
<g clip-path="url(#clip0_5303_4218)">
<path d="M11.0415 1.00214H2.43451C1.64225 1.00214 1 1.64439 1 2.43664V15.8253C1 16.6176 1.64225 17.2599 2.43451 17.2599H11.0415C11.8337 17.2599 12.476 16.6176 12.476 15.8253V2.43664C12.476 1.64439 11.8337 1.00214 11.0415 1.00214Z" fill="white"/>
<path d="M12.476 3.87122H1V13.4346H12.476V3.87122Z" fill="#66E1FF"/>
<path d="M11.5197 3.87122H1V13.4346H1.95634L11.5197 3.87122Z" fill="#C2F3FF"/>
<path d="M21.561 8.65277H8.1723C7.38005 8.65277 6.73779 9.29503 6.73779 10.0873V18.6944C6.73779 19.4866 7.38005 20.1288 8.1723 20.1288H21.561C22.3532 20.1288 22.9955 19.4866 22.9955 18.6944V10.0873C22.9955 9.29503 22.3532 8.65277 21.561 8.65277Z" fill="white"/>
<path d="M20.1268 8.65277H10.5635V20.1288H20.1268V8.65277Z" fill="#66E1FF"/>
<path d="M20.1268 9.60912V8.65277H10.5635V19.1725L20.1268 9.60912Z" fill="#C2F3FF"/>
<path d="M18.214 1.00214H15.3451C14.8169 1.00214 14.3887 1.4303 14.3887 1.95848V8.65282C14.3887 9.18099 14.8169 9.60916 15.3451 9.60916H18.214C18.7422 9.60916 19.1704 9.18099 19.1704 8.65282V1.95848C19.1704 1.4303 18.7422 1.00214 18.214 1.00214Z" fill="white"/>
<path d="M19.1704 2.91486H14.3887V7.69653H19.1704V2.91486Z" fill="#66E1FF"/>
<path d="M14.3887 7.69653V2.91486H19.1704L14.3887 7.69653Z" fill="#C2F3FF"/>
<path d="M22.5176 22.9979L22.9959 19.8621C23.0144 19.6671 22.9696 19.4714 22.8678 19.3041C22.7662 19.1368 22.6132 19.0067 22.4316 18.9334L17.2579 17.0772V12.9563C17.2579 12.5758 17.1067 12.211 16.8377 11.942C16.5686 11.6729 16.2038 11.5219 15.8234 11.5219C15.4429 11.5219 15.078 11.6729 14.809 11.942C14.5399 12.211 14.3888 12.5758 14.3888 12.9563V20.7896L12.744 18.8215C12.6499 18.7105 12.5326 18.6216 12.4005 18.561C12.2682 18.5003 12.1243 18.4694 11.9789 18.4706L11.0225 18.4868C10.861 18.4866 10.7022 18.5283 10.5616 18.6078C10.4211 18.6875 10.3035 18.8021 10.2205 18.9407C10.1375 19.0793 10.0919 19.2371 10.0881 19.3985C10.0844 19.56 10.1226 19.7197 10.1991 19.8621L11.932 22.9979" fill="#FFDDA1"/>
<path d="M22.5176 22.9979L22.9959 19.8621C23.0144 19.6671 22.9696 19.4714 22.8678 19.3041C22.7662 19.1368 22.6132 19.0067 22.4316 18.9334L17.2579 17.0772V12.9563C17.2579 12.5758 17.1067 12.211 16.8377 11.942C16.5686 11.6729 16.2038 11.5219 15.8234 11.5219C15.4429 11.5219 15.078 11.6729 14.809 11.942C14.5399 12.211 14.3888 12.5758 14.3888 12.9563V20.7896L12.744 18.8215C12.6499 18.7105 12.5326 18.6216 12.4005 18.561C12.2682 18.5003 12.1243 18.4694 11.9789 18.4706L11.0225 18.4868C10.861 18.4866 10.7022 18.5283 10.5616 18.6078C10.4211 18.6875 10.3035 18.8021 10.2205 18.9407C10.1375 19.0793 10.0919 19.2371 10.0881 19.3985C10.0844 19.56 10.1226 19.7197 10.1991 19.8621L11.932 22.9979" stroke="#191919" stroke-linecap="round" stroke-linejoin="round"/>
<path d="M4.82535 17.2599H2.43451C2.05405 17.2599 1.68918 17.1087 1.42016 16.8397C1.15113 16.5707 1 16.2058 1 15.8253V2.43664C1 2.05619 1.15113 1.69131 1.42016 1.42229C1.68918 1.15327 2.05405 1.00214 2.43451 1.00214H11.0415C11.422 1.00214 11.7869 1.15327 12.0559 1.42229C12.3248 1.69131 12.476 2.05619 12.476 2.43664V6.74015" stroke="#191919" stroke-linecap="round" stroke-linejoin="round"/>
<path d="M1 13.4345H4.82535" stroke="#191919" stroke-linecap="round" stroke-linejoin="round"/>
<path d="M10.5635 8.65277V16.7817" stroke="#191919" stroke-linecap="round" stroke-linejoin="round"/>
<path d="M18.214 1.00214H15.3451C14.8169 1.00214 14.3887 1.4303 14.3887 1.95848V8.65282C14.3887 9.18099 14.8169 9.60916 15.3451 9.60916H18.214C18.7422 9.60916 19.1704 9.18099 19.1704 8.65282V1.95848C19.1704 1.4303 18.7422 1.00214 18.214 1.00214Z" stroke="#191919" stroke-linecap="round" stroke-linejoin="round"/>
<path d="M14.3887 7.69647H19.1704" stroke="#191919" stroke-linecap="round" stroke-linejoin="round"/>
<path d="M14.3887 2.91486H19.1704" stroke="#191919" stroke-linecap="round" stroke-linejoin="round"/>
<path d="M1.00098 3.87122H12.477" stroke="#191919" stroke-linecap="round" stroke-linejoin="round"/>
<path d="M20.1265 11.0436V16.3035" stroke="#191919" stroke-linecap="round" stroke-linejoin="round"/>
<path d="M21.0835 8.65277H21.5616C21.9421 8.65277 22.307 8.80391 22.5759 9.07293C22.845 9.34195 22.9962 9.70683 22.9962 10.0873V17.2598" stroke="#191919" stroke-linecap="round" stroke-linejoin="round"/>
<path d="M8.1723 20.1288C7.79185 20.1288 7.42698 19.9777 7.15795 19.7087C6.88893 19.4396 6.73779 19.0748 6.73779 18.6944V10.0873C6.73779 9.70683 6.88893 9.34195 7.15795 9.07293C7.42698 8.80391 7.79185 8.65277 8.1723 8.65277H12.4758" stroke="#191919" stroke-linecap="round" stroke-linejoin="round"/>
</g>
<defs>
<clipPath id="clip0_5303_4218">
<rect width="24" height="24" fill="white"/>
</clipPath>
</defs>
</svg>
