<svg width="24" height="24" viewBox="0 0 24 24" fill="none" xmlns="http://www.w3.org/2000/svg">
<g clip-path="url(#clip0_5303_10584)">
<path d="M12 22.8573C16.4043 22.9151 20.7738 22.1043 22.6685 20.4596C22.8491 20.3024 22.9648 20.0836 22.9932 19.8458C23.0216 19.6081 22.9605 19.3682 22.822 19.173C20.2043 15.4811 20.2043 10.0295 20.2043 10.0295C20.2129 7.83218 19.3576 5.71944 17.8229 4.14681C16.2882 2.57418 14.1969 1.66762 12 1.62256C9.80299 1.66737 7.71161 2.57386 6.17684 4.14654C4.64207 5.71923 3.78689 7.83211 3.7957 10.0295C3.7957 10.0295 3.7957 15.4811 1.17805 19.173C1.03947 19.3682 0.978433 19.6081 1.0068 19.8458C1.03516 20.0836 1.15089 20.3024 1.33152 20.4596C3.22526 22.1004 7.59574 22.9151 12 22.8573Z" fill="#C77F67"/>
<path d="M4.02441 8.12135C6.3282 6.41113 9.13106 5.50714 12 5.54906C14.869 5.50719 17.6719 6.41154 19.9755 8.1223C19.5673 6.30166 18.559 4.67107 17.1126 3.49246C15.6661 2.31384 13.8655 1.65563 12 1.62354C10.1345 1.6554 8.33387 2.31342 6.88741 3.49188C5.44095 4.67033 4.43262 6.30081 4.02441 8.12135Z" fill="#E3BFB3"/>
<path d="M17.6865 10.4079C16.5303 10.4124 15.3939 10.1086 14.3942 9.52769C13.3946 8.94678 12.5679 8.1098 11.9995 7.10303C11.3817 8.19657 10.4605 9.08784 9.34717 9.66917C8.23384 10.2505 6.97599 10.497 5.72559 10.3789V13.8228C5.80748 15.4476 6.49874 16.9818 7.66155 18.1196C8.82436 19.2574 10.3733 19.9151 11.9995 19.9616C13.6256 19.9151 15.1746 19.2574 16.3374 18.1196C17.5002 16.9818 18.1914 15.4476 18.2733 13.8228V10.3789C18.0803 10.3982 17.8844 10.4079 17.6865 10.4079Z" fill="#FFDDA1"/>
<path d="M17.6865 10.4079C16.5303 10.4124 15.3939 10.1086 14.3942 9.52769C13.3946 8.94678 12.5679 8.1098 11.9995 7.10303C11.3817 8.19657 10.4605 9.08784 9.34717 9.66917C8.23384 10.2505 6.97599 10.497 5.72559 10.3789V13.8228C5.80748 15.4476 6.49874 16.9818 7.66155 18.1196C8.82436 19.2574 10.3733 19.9151 11.9995 19.9616C13.6256 19.9151 15.1746 19.2574 16.3374 18.1196C17.5002 16.9818 18.1914 15.4476 18.2733 13.8228V10.3789C18.0803 10.3982 17.8844 10.4079 17.6865 10.4079Z" stroke="#191919" stroke-linecap="round" stroke-linejoin="round"/>
<path d="M13.8219 15.5148C13.3141 15.8952 12.6967 16.1007 12.0623 16.1007C11.4279 16.1007 10.8105 15.8952 10.3027 15.5148" stroke="#191919" stroke-linecap="round" stroke-linejoin="round"/>
<path d="M15.3782 2.38315C14.3224 1.88249 13.1685 1.6227 12 1.62256C9.80299 1.66737 7.71161 2.57386 6.17684 4.14654C4.64207 5.71923 3.78689 7.83211 3.7957 10.0295C3.7957 10.0295 3.7957 15.4811 1.17805 19.173C1.03947 19.3682 0.978433 19.6081 1.0068 19.8458C1.03516 20.0836 1.15089 20.3024 1.33152 20.4596C3.22526 22.1004 7.59477 22.9152 11.999 22.8573C16.4033 22.9152 20.7728 22.1043 22.6675 20.4596C22.8481 20.3024 22.9639 20.0836 22.9922 19.8458C23.0206 19.6081 22.9596 19.3682 22.821 19.173C20.2043 15.4811 20.2043 10.0295 20.2043 10.0295C20.2043 9.30854 20.1116 8.59139 19.9282 7.89451" stroke="#191919" stroke-linecap="round" stroke-linejoin="round"/>
<path d="M15.3779 5.4834H19.2388" stroke="#191919" stroke-linecap="round" stroke-linejoin="round"/>
<path d="M17.3081 3.55298V7.41383" stroke="#191919" stroke-linecap="round" stroke-linejoin="round"/>
<path d="M19.7217 2.58777H22.6173" stroke="#191919" stroke-linecap="round" stroke-linejoin="round"/>
<path d="M21.1694 1.13989V4.03553" stroke="#191919" stroke-linecap="round" stroke-linejoin="round"/>
</g>
<defs>
<clipPath id="clip0_5303_10584">
<rect width="24" height="24" fill="white"/>
</clipPath>
</defs>
</svg>
