<svg width="24" height="24" viewBox="0 0 24 24" fill="none" xmlns="http://www.w3.org/2000/svg">
<g clip-path="url(#clip0_5303_12131)">
<path d="M1.47814 12C1.41605 9.14642 2.4894 6.38491 4.46233 4.32231C6.43525 2.2597 9.14635 1.06474 11.9999 1C14.8534 1.06474 17.5645 2.2597 19.5374 4.32231C21.5104 6.38491 22.5837 9.14642 22.5216 12V22.0435C22.5216 22.2971 22.4208 22.5405 22.2415 22.7198C22.0621 22.8992 21.8188 23 21.5651 23H2.43466C2.18098 23 1.93768 22.8992 1.75829 22.7198C1.57891 22.5405 1.47814 22.2971 1.47814 22.0435V12Z" fill="#808080"/>
<path d="M5.72266 18.2174V12.9862C5.72266 8.93918 8.13118 5.66309 11.9994 5.66309C15.8675 5.66309 18.2761 8.94013 18.2761 12.9862V18.2174H5.72266Z" fill="#B2B2B2"/>
<path d="M9.13134 14.3914L1.74316 22.7026C1.83223 22.7967 1.9396 22.8717 2.05869 22.9229C2.17778 22.9741 2.30608 23.0003 2.43569 23.0001H21.5661C21.6957 23.0003 21.824 22.9741 21.9431 22.9229C22.0622 22.8717 22.1696 22.7967 22.2586 22.7026L14.8705 14.3914H9.13134Z" fill="#B2B2B2"/>
<path d="M18.2714 18.2175L14.87 14.3914H9.13088L5.72949 18.2175H18.2714Z" fill="#E3E3E3"/>
<path d="M22.2586 22.7036L14.8705 14.3914H9.13134L1.74316 22.7036" stroke="#191919" stroke-linecap="round" stroke-linejoin="round"/>
<path d="M9.13086 14.3913V12C9.13086 10.1501 10.2318 8.65222 12.0004 8.65222C13.769 8.65222 14.87 10.1501 14.87 12V14.3913H9.13086Z" fill="#FFEF5E" stroke="#191919" stroke-linecap="round" stroke-linejoin="round"/>
<path d="M12 20.1304V23" stroke="#191919" stroke-linecap="round" stroke-linejoin="round"/>
<path d="M12 16.3044V17.2609" stroke="#191919" stroke-linecap="round" stroke-linejoin="round"/>
<path d="M1.47814 12C1.41605 9.14642 2.4894 6.38491 4.46233 4.32231C6.43525 2.2597 9.14635 1.06474 11.9999 1C14.8534 1.06474 17.5645 2.2597 19.5374 4.32231C21.5104 6.38491 22.5837 9.14642 22.5216 12V22.0435C22.5216 22.2971 22.4208 22.5405 22.2415 22.7198C22.0621 22.8992 21.8188 23 21.5651 23H2.43466C2.18098 23 1.93768 22.8992 1.75829 22.7198C1.57891 22.5405 1.47814 22.2971 1.47814 22.0435V12Z" stroke="#191919" stroke-linecap="round" stroke-linejoin="round"/>
</g>
<defs>
<clipPath id="clip0_5303_12131">
<rect width="24" height="24" fill="white"/>
</clipPath>
</defs>
</svg>
