<svg width="24" height="24" viewBox="0 0 24 24" fill="none" xmlns="http://www.w3.org/2000/svg">
<g clip-path="url(#clip0_5303_12192)">
<path d="M1.95652 16.3043H22.0435C22.5718 16.3043 23 15.8761 23 15.3478V8.6522C23 8.12393 22.5718 7.69568 22.0435 7.69568H1.95652C1.42825 7.69568 1 8.12393 1 8.6522V15.3478C1 15.8761 1.42825 16.3043 1.95652 16.3043Z" fill="#FFEF5E"/>
<path d="M12 7.69568H1.95652C1.70283 7.69568 1.45954 7.79646 1.28016 7.97584C1.10078 8.15522 1 8.39852 1 8.6522V15.3478C1 15.6015 1.10078 15.8448 1.28016 16.0242C1.45954 16.2035 1.70283 16.3043 1.95652 16.3043H12V7.69568Z" fill="#FFF9BF"/>
<path d="M7.5564 11.6614L11.5222 7.69568H5.78301L1.81727 11.6614C1.77273 11.7058 1.73739 11.7586 1.71328 11.8167C1.68917 11.8748 1.67676 11.9371 1.67676 12C1.67676 12.0629 1.68917 12.1252 1.71328 12.1833C1.73739 12.2414 1.77273 12.2942 1.81727 12.3386L5.78301 16.3043H11.5222L7.5564 12.3386C7.51186 12.2942 7.47652 12.2414 7.45241 12.1833C7.4283 12.1252 7.41589 12.0629 7.41589 12C7.41589 11.9371 7.4283 11.8748 7.45241 11.8167C7.47652 11.7586 7.51186 11.7058 7.5564 11.6614Z" fill="#B2B2B2"/>
<path d="M19.0349 11.6614L22.7204 7.97594C22.541 7.79655 22.2978 7.69574 22.0441 7.69568H17.2615L13.2958 11.6614C13.2512 11.7058 13.2159 11.7586 13.1918 11.8167C13.1677 11.8748 13.1553 11.9371 13.1553 12C13.1553 12.0629 13.1677 12.1252 13.1918 12.1833C13.2159 12.2414 13.2512 12.2942 13.2958 12.3386L17.2615 16.3043H22.0441C22.2978 16.3043 22.541 16.2035 22.7204 16.0241L19.0349 12.3386C18.9903 12.2942 18.955 12.2414 18.9309 12.1833C18.9068 12.1252 18.8944 12.0629 18.8944 12C18.8944 11.9371 18.9068 11.8748 18.9309 11.8167C18.955 11.7586 18.9903 11.7058 19.0349 11.6614Z" fill="#808080"/>
<path d="M22.7205 16.024L19.035 12.3386C18.9905 12.2941 18.9552 12.2412 18.9311 12.1832C18.907 12.1251 18.8945 12.0627 18.8945 11.9999C18.8945 11.937 18.907 11.8747 18.9311 11.8165C18.9552 11.7585 18.9905 11.7057 19.035 11.6613L22.7205 7.97583" stroke="#191919" stroke-linecap="round" stroke-linejoin="round"/>
<path d="M17.2615 16.3043L13.2958 12.3386C13.2512 12.2942 13.2159 12.2414 13.1918 12.1833C13.1677 12.1252 13.1553 12.0629 13.1553 12C13.1553 11.9371 13.1677 11.8748 13.1918 11.8167C13.2159 11.7586 13.2512 11.7058 13.2958 11.6614L17.2615 7.69568" stroke="#191919" stroke-linecap="round" stroke-linejoin="round"/>
<path d="M11.5223 16.3043L7.55653 12.3386C7.51198 12.2942 7.47665 12.2414 7.45254 12.1833C7.42843 12.1252 7.41602 12.0629 7.41602 12C7.41602 11.9371 7.42843 11.8748 7.45254 11.8167C7.47665 11.7586 7.51198 11.7058 7.55653 11.6614L11.5223 7.69568" stroke="#191919" stroke-linecap="round" stroke-linejoin="round"/>
<path d="M5.78301 16.3043L1.81727 12.3386C1.77273 12.2942 1.73739 12.2414 1.71328 12.1833C1.68917 12.1252 1.67676 12.0629 1.67676 12C1.67676 11.9371 1.68917 11.8748 1.71328 11.8167C1.73739 11.7586 1.77273 11.7058 1.81727 11.6614L5.78301 7.69568" stroke="#191919" stroke-linecap="round" stroke-linejoin="round"/>
<path d="M1.95652 16.3043H22.0435C22.5718 16.3043 23 15.8761 23 15.3478V8.6522C23 8.12393 22.5718 7.69568 22.0435 7.69568H1.95652C1.42825 7.69568 1 8.12393 1 8.6522V15.3478C1 15.8761 1.42825 16.3043 1.95652 16.3043Z" stroke="#191919" stroke-linecap="round" stroke-linejoin="round"/>
</g>
<defs>
<clipPath id="clip0_5303_12192">
<rect width="24" height="24" fill="white"/>
</clipPath>
</defs>
</svg>
