<svg width="24" height="24" viewBox="0 0 24 24" fill="none" xmlns="http://www.w3.org/2000/svg">
<g clip-path="url(#clip0_5303_11929)">
<path d="M16.1586 1H7.83757C7.58392 1 7.34068 1.10082 7.16133 1.28026L1.28026 7.1633C1.10082 7.34264 1 7.58589 1 7.83953V16.1606C1 16.4142 1.10082 16.6574 1.28026 16.8367L7.1633 22.7198C7.34264 22.8991 7.58589 22.9999 7.83944 23H16.1606C16.4142 22.9999 16.6574 22.8991 16.8367 22.7198L22.7197 16.8367C22.8991 16.6574 22.9999 16.4142 23 16.1606V7.83953C22.9999 7.58589 22.8991 7.34264 22.7197 7.1633L16.8348 1.28026C16.6555 1.10082 16.4122 1 16.1586 1Z" fill="white"/>
<path d="M15.1692 3.39099H8.82995C8.5763 3.39108 8.33306 3.4919 8.15381 3.67124L3.67186 8.15319C3.49252 8.33244 3.3917 8.57569 3.3916 8.82933V15.1687C3.3917 15.4223 3.49252 15.6655 3.67186 15.8449L8.15381 20.3267C8.33306 20.5062 8.5763 20.6069 8.82995 20.607H15.1692C15.4229 20.6069 15.6661 20.5062 15.8454 20.3267L20.3273 15.8449C20.5067 15.6655 20.6075 15.4223 20.6076 15.1687V8.82933C20.6075 8.57569 20.5067 8.33244 20.3273 8.15319L15.8454 3.67124C15.6661 3.4919 15.4229 3.39108 15.1692 3.39099Z" fill="#FF808C"/>
<path d="M11.9995 3.39099H8.74769C8.6494 3.39099 8.55214 3.41038 8.46144 3.44796C8.37064 3.48553 8.28819 3.54063 8.21875 3.61006L3.61059 8.21438C3.54069 8.28428 3.48531 8.36739 3.44774 8.45875C3.41017 8.5502 3.39105 8.64821 3.39161 8.74706V15.2509C3.39161 15.3491 3.41092 15.4465 3.44849 15.5372C3.48606 15.628 3.54116 15.7104 3.61059 15.7799L8.21491 20.3841C8.28453 20.4546 8.36746 20.5107 8.45891 20.549C8.55036 20.5872 8.64846 20.607 8.7476 20.607H11.9995V3.39099Z" fill="#FFBFC5"/>
<path d="M10.5654 14.3902V9.60791" stroke="#191919" stroke-linecap="round" stroke-linejoin="round"/>
<path d="M9.60742 9.60791H11.5203" stroke="#191919" stroke-linecap="round" stroke-linejoin="round"/>
<path d="M17.2598 14.3902V9.60791" stroke="#191919" stroke-linecap="round" stroke-linejoin="round"/>
<path d="M17.2598 9.60791H17.738C18.1184 9.60791 18.4834 9.75905 18.7525 10.0282C19.0215 10.2972 19.1727 10.6622 19.1727 11.0426C19.1727 11.4231 19.0215 11.7881 18.7525 12.0572C18.4835 12.3263 18.1184 12.4773 17.738 12.4773H17.2598" stroke="#191919" stroke-linecap="round" stroke-linejoin="round"/>
<path d="M14.3901 9.60791C14.1364 9.60791 13.8931 9.70873 13.7138 9.88807C13.5344 10.0674 13.4336 10.3108 13.4336 10.5644V13.4337C13.4336 13.6874 13.5344 13.9307 13.7138 14.11C13.8931 14.2894 14.1364 14.3902 14.3901 14.3902C14.6437 14.3902 14.887 14.2894 15.0663 14.11C15.2457 13.9307 15.3465 13.6874 15.3465 13.4337V10.5644C15.3465 10.3108 15.2457 10.0674 15.0663 9.88807C14.887 9.70873 14.6437 9.60791 14.3901 9.60791Z" stroke="#191919" stroke-linecap="round" stroke-linejoin="round"/>
<path d="M7.69511 9.60791H6.73872C6.48498 9.60791 6.24173 9.70873 6.06239 9.88807C5.88305 10.0674 5.78223 10.3108 5.78223 10.5644C5.78223 11.9991 7.69511 11.9991 7.69511 13.4337C7.69511 13.6874 7.59438 13.9307 7.41504 14.11C7.23561 14.2894 6.99236 14.3902 6.73872 14.3902H5.78223" stroke="#191919" stroke-linecap="round" stroke-linejoin="round"/>
<path d="M16.1586 1H7.83757C7.58392 1 7.34068 1.10082 7.16133 1.28026L1.28026 7.1633C1.10082 7.34264 1 7.58589 1 7.83953V16.1606C1 16.4142 1.10082 16.6574 1.28026 16.8367L7.1633 22.7198C7.34264 22.8991 7.58589 22.9999 7.83944 23H16.1606C16.4142 22.9999 16.6574 22.8991 16.8367 22.7198L22.7197 16.8367C22.8991 16.6574 22.9999 16.4142 23 16.1606V7.83953C22.9999 7.58589 22.8991 7.34264 22.7197 7.1633L16.8348 1.28026C16.6555 1.10082 16.4122 1 16.1586 1Z" stroke="#191919" stroke-linecap="round" stroke-linejoin="round"/>
</g>
<defs>
<clipPath id="clip0_5303_11929">
<rect width="24" height="24" fill="white"/>
</clipPath>
</defs>
</svg>
