<svg width="24" height="24" viewBox="0 0 24 24" fill="none" xmlns="http://www.w3.org/2000/svg">
<g clip-path="url(#clip0_5303_12069)">
<path d="M11.2658 1.30459L1.30532 11.2651C0.899529 11.6708 0.899529 12.3288 1.30532 12.7346L11.2658 22.6949C11.6715 23.1008 12.3295 23.1008 12.7353 22.6949L22.6957 12.7346C23.1014 12.3288 23.1014 11.6708 22.6957 11.2651L12.7353 1.30459C12.3295 0.898797 11.6715 0.898797 11.2658 1.30459Z" fill="#FFEF5E"/>
<path d="M12.0008 1C11.7252 1.00006 11.461 1.10957 11.2661 1.30446L1.30522 11.2654C1.11042 11.4602 1.00098 11.7244 1.00098 12C1.00098 12.2756 1.11042 12.5398 1.30522 12.7346L11.2661 22.6955C11.461 22.8905 11.7252 22.9999 12.0008 23V1Z" fill="#FFF9BF"/>
<path d="M11.2658 1.30459L1.30532 11.2651C0.899529 11.6708 0.899529 12.3288 1.30532 12.7346L11.2658 22.6949C11.6715 23.1008 12.3295 23.1008 12.7353 22.6949L22.6957 12.7346C23.1014 12.3288 23.1014 11.6708 22.6957 11.2651L12.7353 1.30459C12.3295 0.898797 11.6715 0.898797 11.2658 1.30459Z" stroke="#191919" stroke-linecap="round" stroke-linejoin="round"/>
<path d="M7.84473 14.1437V10.4413C7.84473 9.47675 8.2279 8.5517 8.90995 7.86966C9.59199 7.18761 10.517 6.80444 11.4816 6.80444C12.4462 6.80444 13.3712 7.18761 14.0533 7.86966C14.7354 8.5517 15.1185 9.47675 15.1185 10.4413V16.676" stroke="#191919" stroke-linecap="round" stroke-linejoin="round"/>
<path d="M10.5725 11.4803L7.84484 14.1436L5.66895 11.4803" stroke="#191919" stroke-linecap="round" stroke-linejoin="round"/>
</g>
<defs>
<clipPath id="clip0_5303_12069">
<rect width="24" height="24" fill="white"/>
</clipPath>
</defs>
</svg>
