<svg width="24" height="24" viewBox="0 0 24 24" fill="none" xmlns="http://www.w3.org/2000/svg">
<path d="M5.97394 11.6239C5.30772 10.9577 4.77925 10.1668 4.41869 9.29641C4.05813 8.42599 3.87256 7.49308 3.87256 6.55094C3.87256 5.6088 4.05813 4.67589 4.41869 3.80547C4.77925 2.93507 5.30772 2.1442 5.97394 1.47803L10.0286 5.53655C9.75965 5.80561 9.60855 6.17048 9.60855 6.55094C9.60855 6.9314 9.75965 7.29627 10.0286 7.56533L5.97394 11.6239Z" fill="#C9F7CA"/>
<path d="M18.0261 11.6239C18.6923 10.9577 19.2208 10.1668 19.5813 9.29641C19.9419 8.42599 20.1275 7.49308 20.1275 6.55094C20.1275 5.6088 19.9419 4.67589 19.5813 3.80547C19.2208 2.93507 18.6923 2.1442 18.0261 1.47803L13.9714 5.53655C14.2404 5.80561 14.3915 6.17048 14.3915 6.55094C14.3915 6.9314 14.2404 7.29627 13.9714 7.56533L18.0261 11.6239Z" fill="#C9F7CA"/>
<path d="M13.9714 5.53662C14.2404 5.80568 14.3915 6.17057 14.3915 6.55101C14.3915 6.93147 14.2404 7.29634 13.9714 7.5654" stroke="#191919" stroke-linecap="round" stroke-linejoin="round"/>
<path d="M16.0002 3.50684C16.4 3.90654 16.717 4.38105 16.9333 4.90327C17.1496 5.4255 17.2609 5.98523 17.2609 6.55049C17.2609 7.11575 17.1496 7.67547 16.9333 8.1977C16.717 8.71994 16.4 9.19445 16.0002 9.59414" stroke="#191919" stroke-linecap="round" stroke-linejoin="round"/>
<path d="M18.0261 1.47803C18.6923 2.1442 19.2208 2.93507 19.5813 3.80547C19.9419 4.67589 20.1274 5.6088 20.1274 6.55094C20.1274 7.49308 19.9419 8.42599 19.5813 9.29641C19.2208 10.1668 18.6923 10.9577 18.0261 11.6239" stroke="#191919" stroke-linecap="round" stroke-linejoin="round"/>
<path d="M10.0287 5.53662C9.75968 5.80568 9.60858 6.17057 9.60858 6.55101C9.60858 6.93147 9.75968 7.29634 10.0287 7.5654" stroke="#191919" stroke-linecap="round" stroke-linejoin="round"/>
<path d="M7.99987 3.50684C7.60017 3.90654 7.28311 4.38105 7.06679 4.90327C6.85048 5.4255 6.73914 5.98523 6.73914 6.55049C6.73914 7.11575 6.85048 7.67547 7.06679 8.1977C7.28311 8.71994 7.60017 9.19445 7.99987 9.59414" stroke="#191919" stroke-linecap="round" stroke-linejoin="round"/>
<path d="M5.97394 1.47803C5.30772 2.1442 4.77925 2.93507 4.41869 3.80547C4.05813 4.67589 3.87256 5.6088 3.87256 6.55094C3.87256 7.49308 4.05813 8.42599 4.41869 9.29641C4.77925 10.1668 5.30772 10.9577 5.97394 11.6239" stroke="#191919" stroke-linecap="round" stroke-linejoin="round"/>
<path d="M23 18.6957C23 19.2031 22.7985 19.6896 22.4397 20.0484C22.0809 20.4072 21.5943 20.6088 21.087 20.6088H2.91304C2.40568 20.6088 1.91908 20.4072 1.56032 20.0484C1.20155 19.6896 1 19.2031 1 18.6957V16.7827C1 16.2753 1.20155 15.7888 1.56032 15.43C1.91908 15.0712 2.40568 14.8696 2.91304 14.8696H21.087C21.5943 14.8696 22.0809 15.0712 22.4397 15.43C22.7985 15.7888 23 16.2753 23 16.7827V18.6957Z" fill="#E3E3E3"/>
<path d="M23 17.7392V16.7827C23 16.2753 22.7985 15.7888 22.4397 15.43C22.0809 15.0712 21.5943 14.8696 21.087 14.8696H2.91304C2.40568 14.8696 1.91908 15.0712 1.56032 15.43C1.20155 15.7888 1 16.2753 1 16.7827V17.7392H23Z" fill="white"/>
<path d="M23 18.6957C23 19.2031 22.7985 19.6896 22.4397 20.0484C22.0809 20.4072 21.5943 20.6088 21.087 20.6088H2.91304C2.40568 20.6088 1.91908 20.4072 1.56032 20.0484C1.20155 19.6896 1 19.2031 1 18.6957V16.7827C1 16.2753 1.20155 15.7888 1.56032 15.43C1.91908 15.0712 2.40568 14.8696 2.91304 14.8696H21.087C21.5943 14.8696 22.0809 15.0712 22.4397 15.43C22.7985 15.7888 23 16.2753 23 16.7827V18.6957Z" stroke="#191919" stroke-linecap="round" stroke-linejoin="round"/>
<path d="M12.0001 14.8695V10.0869" stroke="#191919" stroke-linecap="round" stroke-linejoin="round"/>
<path d="M4.34787 20.6089L2.91309 22.5219" stroke="#191919" stroke-linecap="round" stroke-linejoin="round"/>
<path d="M19.6522 20.6089L21.0869 22.5219" stroke="#191919" stroke-linecap="round" stroke-linejoin="round"/>
<path d="M5.06524 17.9788C4.93317 17.9788 4.82611 17.8717 4.82611 17.7396C4.82611 17.6075 4.93317 17.5005 5.06524 17.5005" stroke="#191919"/>
<path d="M5.06531 17.9788C5.19737 17.9788 5.30444 17.8717 5.30444 17.7396C5.30444 17.6075 5.19737 17.5005 5.06531 17.5005" stroke="#191919"/>
<path d="M8.41302 17.9788C8.28095 17.9788 8.17389 17.8717 8.17389 17.7396C8.17389 17.6075 8.28095 17.5005 8.41302 17.5005" stroke="#191919"/>
<path d="M8.41309 17.9788C8.54515 17.9788 8.65222 17.8717 8.65222 17.7396C8.65222 17.6075 8.54515 17.5005 8.41309 17.5005" stroke="#191919"/>
</svg>
