<svg width="24" height="24" viewBox="0 0 24 24" fill="none" xmlns="http://www.w3.org/2000/svg">
<g clip-path="url(#clip0_5303_6678)">
<path d="M8.38635 3.88978C10.3144 2.03565 12.8854 1 15.5603 1C18.2352 1 20.8061 2.03565 22.7342 3.88978L18.821 7.69578C17.9447 6.853 16.7761 6.38225 15.5603 6.38225C14.3444 6.38225 13.1758 6.853 12.2995 7.69578L8.38635 3.88978Z" fill="#C9F7CA"/>
<path d="M23 19.1737C23 19.6811 22.7985 20.1677 22.4397 20.5265C22.0809 20.8852 21.5943 21.0868 21.087 21.0868H2.91304C2.40568 21.0868 1.91908 20.8852 1.56032 20.5265C1.20155 20.1677 1 19.6811 1 19.1737V17.2607C1 16.7534 1.20155 16.2668 1.56032 15.908C1.91908 15.5492 2.40568 15.3477 2.91304 15.3477H21.087C21.5943 15.3477 22.0809 15.5492 22.4397 15.908C22.7985 16.2668 23 16.7534 23 17.2607V19.1737Z" fill="#E3E3E3"/>
<path d="M23 18.2172V17.2607C23 16.7534 22.7985 16.2668 22.4397 15.908C22.0809 15.5492 21.5943 15.3477 21.087 15.3477H2.91304C2.40568 15.3477 1.91908 15.5492 1.56032 15.908C1.20155 16.2668 1 16.7534 1 17.2607V18.2172H23Z" fill="white"/>
<path d="M23 19.1737C23 19.6811 22.7985 20.1677 22.4397 20.5265C22.0809 20.8852 21.5943 21.0868 21.087 21.0868H2.91304C2.40568 21.0868 1.91908 20.8852 1.56032 20.5265C1.20155 20.1677 1 19.6811 1 19.1737V17.2607C1 16.7534 1.20155 16.2668 1.56032 15.908C1.91908 15.5492 2.40568 15.3477 2.91304 15.3477H21.087C21.5943 15.3477 22.0809 15.5492 22.4397 15.908C22.7985 16.2668 23 16.7534 23 17.2607V19.1737Z" stroke="#191919" stroke-linecap="round" stroke-linejoin="round"/>
<path d="M18.821 7.69584C17.9446 6.85307 16.7761 6.38232 15.5602 6.38232C14.3444 6.38232 13.1758 6.85307 12.2994 7.69584" stroke="#191919" stroke-linecap="round" stroke-linejoin="round"/>
<path d="M20.777 5.79293C19.375 4.44426 17.5052 3.69092 15.5597 3.69092C13.6142 3.69092 11.7444 4.44426 10.3423 5.79293" stroke="#191919" stroke-linecap="round" stroke-linejoin="round"/>
<path d="M22.7342 3.88978C20.8061 2.03565 18.2352 1 15.5603 1C12.8854 1 10.3144 2.03565 8.38635 3.88978" stroke="#191919" stroke-linecap="round" stroke-linejoin="round"/>
<path d="M15.5602 15.3475V10.5649" stroke="#191919" stroke-linecap="round" stroke-linejoin="round"/>
<path d="M4.34787 21.0869L2.91309 23" stroke="#191919" stroke-linecap="round" stroke-linejoin="round"/>
<path d="M19.6522 21.0869L21.0869 23" stroke="#191919" stroke-linecap="round" stroke-linejoin="round"/>
<path d="M5.06524 18.4558C4.93317 18.4558 4.82611 18.3488 4.82611 18.2167C4.82611 18.0846 4.93317 17.9775 5.06524 17.9775" stroke="#191919"/>
<path d="M5.06531 18.4558C5.19737 18.4558 5.30444 18.3488 5.30444 18.2167C5.30444 18.0846 5.19737 17.9775 5.06531 17.9775" stroke="#191919"/>
<path d="M8.41302 18.4558C8.28095 18.4558 8.17389 18.3488 8.17389 18.2167C8.17389 18.0846 8.28095 17.9775 8.41302 17.9775" stroke="#191919"/>
<path d="M8.41309 18.4558C8.54515 18.4558 8.65222 18.3488 8.65222 18.2167C8.65222 18.0846 8.54515 17.9775 8.41309 17.9775" stroke="#191919"/>
</g>
<defs>
<clipPath id="clip0_5303_6678">
<rect width="24" height="24" fill="white"/>
</clipPath>
</defs>
</svg>
