<svg width="24" height="24" viewBox="0 0 24 24" fill="none" xmlns="http://www.w3.org/2000/svg">
<path d="M1.92783 3.29719C1.86672 3.29572 1.80594 3.30649 1.74905 3.32887C1.69217 3.35125 1.64034 3.38478 1.59661 3.42749C1.55287 3.47019 1.51813 3.52121 1.49441 3.57755C1.47069 3.63389 1.45848 3.6944 1.4585 3.75552V13.8453C1.45834 13.9628 1.50334 14.0759 1.58421 14.1612C1.66507 14.2465 1.77562 14.2975 1.893 14.3036C3.92811 14.4109 5.85152 15.2675 7.29256 16.7086C8.73359 18.1496 9.59027 20.073 9.6975 22.1081C9.70361 22.2255 9.75459 22.3361 9.83988 22.4169C9.92519 22.4978 10.0383 22.5428 10.1558 22.5426H20.2447C20.3058 22.5426 20.3663 22.5304 20.4227 22.5067C20.479 22.483 20.53 22.4482 20.5727 22.4045C20.6155 22.3607 20.6489 22.3089 20.6713 22.252C20.6937 22.1952 20.7045 22.1344 20.703 22.0733C20.5827 17.1315 18.5661 12.4254 15.0708 8.93001C11.5756 5.43455 6.86955 3.41766 1.92783 3.29719Z" fill="#C2F3FF"/>
<path d="M3.75016 22.5398C5.01581 22.5398 6.04183 21.5138 6.04183 20.2481C6.04183 18.9825 5.01581 17.9565 3.75016 17.9565C2.48451 17.9565 1.4585 18.9825 1.4585 20.2481C1.4585 21.5138 2.48451 22.5398 3.75016 22.5398Z" fill="#66E1FF"/>
<path d="M1.4585 20.25C1.45846 20.418 1.4769 20.5856 1.5135 20.7496C1.89166 21.016 2.3416 21.1618 2.80417 21.1677C3.26674 21.1736 3.72027 21.0394 4.10512 20.7827C4.48998 20.526 4.78813 20.1589 4.96037 19.7295C5.13262 19.3001 5.1709 18.8287 5.07016 18.3772C4.72703 18.1354 4.32407 17.9925 3.90526 17.9641C3.48647 17.9358 3.06791 18.0229 2.69525 18.2161C2.32261 18.4093 2.01019 18.7012 1.79209 19.0599C1.574 19.4186 1.4586 19.8302 1.4585 20.25Z" fill="#C2F3FF"/>
<path d="M22.5418 22.5416C22.5418 16.95 20.3206 11.5874 16.3667 7.63347C12.4128 3.67959 7.05014 1.45831 1.4585 1.45831" stroke="#191919" stroke-linecap="round" stroke-linejoin="round"/>
<path d="M14.2918 22.5416C14.2918 19.1381 12.9397 15.8738 10.533 13.4671C8.12632 11.0604 4.86211 9.70831 1.4585 9.70831" stroke="#191919" stroke-linecap="round" stroke-linejoin="round"/>
<path d="M3.75016 22.5398C5.01581 22.5398 6.04183 21.5138 6.04183 20.2481C6.04183 18.9825 5.01581 17.9565 3.75016 17.9565C2.48451 17.9565 1.4585 18.9825 1.4585 20.2481C1.4585 21.5138 2.48451 22.5398 3.75016 22.5398Z" stroke="#191919" stroke-linecap="round" stroke-linejoin="round"/>
</svg>
