<svg width="24" height="24" viewBox="0 0 24 24" fill="none" xmlns="http://www.w3.org/2000/svg">
<g clip-path="url(#clip0_5303_9715)">
<path d="M11.9998 22.9999C18.0748 22.9999 22.9995 18.0752 22.9995 12.0002C22.9995 5.92513 18.0748 1.00037 11.9998 1.00037C5.92477 1.00037 1 5.92513 1 12.0002C1 18.0752 5.92477 22.9999 11.9998 22.9999Z" fill="#FFEF5E"/>
<path d="M4.22186 19.7784C2.15894 17.7155 1 14.9176 1 12.0001C1 9.08271 2.15894 6.28479 4.22186 4.22187C6.28479 2.15894 9.08272 1 12.0001 1C14.9176 1 17.7155 2.15894 19.7784 4.22187L4.22186 19.7784Z" fill="#FFF9BF"/>
<path d="M11.9998 22.9999C18.0748 22.9999 22.9995 18.0752 22.9995 12.0002C22.9995 5.92513 18.0748 1.00037 11.9998 1.00037C5.92477 1.00037 1 5.92513 1 12.0002C1 18.0752 5.92477 22.9999 11.9998 22.9999Z" stroke="#191919" stroke-linecap="round" stroke-linejoin="round"/>
<path d="M11.9996 16.3044C14.3768 16.3044 16.3038 14.3773 16.3038 12.0001C16.3038 9.62301 14.3768 7.69592 11.9996 7.69592C9.6224 7.69592 7.69531 9.62301 7.69531 12.0001C7.69531 14.3773 9.6224 16.3044 11.9996 16.3044Z" fill="#808080" stroke="#191919" stroke-linecap="round" stroke-linejoin="round"/>
<path d="M7.3833 19.8282C8.22453 19.769 9.03688 19.4968 9.74399 19.0373C10.4511 18.5778 11.0298 17.946 11.4256 17.2014C11.8215 16.4568 12.0215 15.6238 12.0068 14.7805C11.9922 13.9373 11.7634 13.1117 11.3421 12.3813C10.9206 11.6508 10.3204 11.0394 9.59778 10.6047C8.87516 10.1701 8.05387 9.92617 7.2111 9.89611C6.36832 9.86604 5.53175 10.0508 4.77999 10.4329C4.02822 10.815 3.38596 11.382 2.91357 12.0806" stroke="#191919" stroke-linecap="round" stroke-linejoin="round"/>
<path d="M21.0869 12.0835C20.6146 11.3852 19.9725 10.8184 19.221 10.4363C18.4695 10.0542 17.6331 9.86948 16.7906 9.89937C15.948 9.92927 15.1269 10.1728 14.4043 10.6072C13.6818 11.0415 13.0815 11.6525 12.6599 12.3825C12.2383 13.1126 12.0091 13.9378 11.994 14.7808C11.9789 15.6238 12.1783 16.4567 12.5734 17.2014C12.9686 17.9461 13.5466 18.5782 14.2531 19.0382C14.9596 19.4982 15.7715 19.771 16.6124 19.8312" stroke="#191919" stroke-linecap="round" stroke-linejoin="round"/>
<path d="M7.52854 4.08899C7.15943 4.84727 6.9892 5.68694 7.03383 6.52909C7.07845 7.37125 7.33648 8.18823 7.78366 8.90324C8.23084 9.61827 8.85248 10.2079 9.59015 10.6166C10.3278 11.0253 11.1573 11.2397 12.0007 11.2397C12.844 11.2397 13.6735 11.0253 14.4111 10.6166C15.1489 10.2079 15.7705 9.61827 16.2177 8.90324C16.6648 8.18823 16.9229 7.37125 16.9675 6.52909C17.0122 5.68694 16.8419 4.84727 16.4728 4.08899" stroke="#191919" stroke-linecap="round" stroke-linejoin="round"/>
</g>
<defs>
<clipPath id="clip0_5303_9715">
<rect width="24" height="24" fill="white"/>
</clipPath>
</defs>
</svg>
