<svg width="24" height="24" viewBox="0 0 24 24" fill="none" xmlns="http://www.w3.org/2000/svg">
<g clip-path="url(#clip0_5303_9772)">
<path d="M11.1144 7.65635C11.3759 7.96455 11.7486 8.15684 12.1513 8.19124C12.554 8.22565 12.9539 8.09939 13.2639 7.84001L14.8413 6.36017C15.1196 6.06764 15.271 5.67699 15.2626 5.27332C15.2542 4.86965 15.0866 4.48566 14.7963 4.20498L13.8962 3.24266C13.5476 2.84385 13.0745 2.57443 12.5536 2.47808C12.0328 2.38172 11.4947 2.46405 11.0264 2.71175C7.17067 4.98094 3.86657 8.07756 1.35246 11.7783C1.07583 12.2293 0.959346 12.7604 1.02184 13.2859C1.08432 13.8112 1.32213 14.3002 1.69683 14.6739L2.5989 15.6362C2.86004 15.9443 3.23244 16.1368 3.63491 16.1716C4.03737 16.2063 4.43726 16.0806 4.74739 15.8218L6.3248 14.3429C6.60364 14.0506 6.75559 13.6598 6.74753 13.2559C6.73946 12.8521 6.57203 12.4677 6.28175 12.1868L5.73459 11.6023C7.17678 9.923 8.79611 8.40439 10.5644 7.07283L11.1144 7.65635Z" fill="#E3E3E3"/>
<path d="M13.805 3.15048C13.4517 2.78543 12.9889 2.54555 12.487 2.46717C11.9849 2.3888 11.4711 2.47622 11.0233 2.71619C7.16907 4.98435 3.86602 8.07928 1.35219 11.7779C1.10391 12.1742 0.981857 12.6366 1.00218 13.1038C1.02251 13.571 1.18426 14.0209 1.46603 14.3942C4.83816 9.90623 9.02384 6.09211 13.805 3.15048Z" fill="white"/>
<path d="M11.1144 7.65635C11.3759 7.96455 11.7486 8.15684 12.1513 8.19124C12.554 8.22565 12.9539 8.09939 13.2639 7.84001L14.8413 6.36017C15.1196 6.06764 15.271 5.67699 15.2626 5.27332C15.2542 4.86965 15.0866 4.48566 14.7963 4.20498L13.8962 3.24266C13.5476 2.84385 13.0745 2.57443 12.5536 2.47808C12.0328 2.38172 11.4947 2.46405 11.0264 2.71175C7.17067 4.98094 3.86657 8.07756 1.35246 11.7783C1.07583 12.2293 0.959346 12.7604 1.02184 13.2859C1.08432 13.8112 1.32213 14.3002 1.69683 14.6739L2.5989 15.6362C2.86004 15.9443 3.23244 16.1368 3.63491 16.1716C4.03737 16.2063 4.43726 16.0806 4.74739 15.8218L6.3248 14.3429C6.60364 14.0506 6.75559 13.6598 6.74753 13.2559C6.73946 12.8521 6.57203 12.4677 6.28175 12.1868L5.73459 11.6023C7.17678 9.923 8.79611 8.40439 10.5644 7.07283L11.1144 7.65635Z" stroke="#191919" stroke-linecap="round" stroke-linejoin="round"/>
<path d="M13.4341 21.5612H17.2604" stroke="#191919" stroke-linecap="round" stroke-linejoin="round"/>
<path d="M13.4341 17.2566L14.6996 15.991C14.7531 15.9371 14.8168 15.8945 14.8869 15.8654C14.9571 15.8364 15.0323 15.8215 15.1081 15.8217C15.1715 15.8217 15.2324 15.8468 15.2772 15.8917C15.3221 15.9366 15.3473 15.9974 15.3473 16.0608V21.5612" stroke="#191919" stroke-linecap="round" stroke-linejoin="round"/>
<path d="M19.1738 21.5612H23.0002" stroke="#191919" stroke-linecap="round" stroke-linejoin="round"/>
<path d="M19.1738 17.2566L20.4394 15.991C20.4929 15.9371 20.5566 15.8945 20.6267 15.8654C20.6968 15.8364 20.772 15.8215 20.8479 15.8217C20.9113 15.8217 20.9721 15.8468 21.017 15.8917C21.0618 15.9366 21.087 15.9974 21.087 16.0608V21.5612" stroke="#191919" stroke-linecap="round" stroke-linejoin="round"/>
<path d="M9.608 19.648C10.6646 19.648 11.5212 18.7915 11.5212 17.7349C11.5212 16.6782 10.6646 15.8217 9.608 15.8217C8.55138 15.8217 7.69482 16.6782 7.69482 17.7349C7.69482 18.7915 8.55138 19.648 9.608 19.648Z" stroke="#191919" stroke-linecap="round" stroke-linejoin="round"/>
<path d="M11.5211 17.7349V19.1697C11.5211 19.4838 11.4592 19.7948 11.3391 20.0849C11.2189 20.375 11.0427 20.6387 10.8207 20.8608C10.5986 21.0828 10.335 21.259 10.0448 21.3792C9.75468 21.4993 9.44371 21.5612 9.12966 21.5612H8.65137" stroke="#191919" stroke-linecap="round" stroke-linejoin="round"/>
</g>
<defs>
<clipPath id="clip0_5303_9772">
<rect width="24" height="24" fill="white"/>
</clipPath>
</defs>
</svg>
