<svg width="24" height="24" viewBox="0 0 24 24" fill="none" xmlns="http://www.w3.org/2000/svg">
<g clip-path="url(#clip0_5303_9896)">
<path d="M12 1.95654C10.0136 1.95654 8.07178 2.54558 6.42014 3.64917C4.76852 4.75275 3.48122 6.32133 2.72106 8.15652C1.9609 9.99172 1.762 12.0111 2.14953 13.9593C2.53706 15.9076 3.4936 17.6972 4.8982 19.1018C6.3028 20.5064 8.09237 21.4629 10.0406 21.8504C11.9889 22.238 14.0083 22.0391 15.8435 21.2789C17.6786 20.5188 19.2472 19.2315 20.3508 17.5799C21.4544 15.9282 22.0434 13.9864 22.0434 12C22.0434 9.3363 20.9853 6.78171 19.1017 4.8982C17.2183 3.01469 14.6637 1.95654 12 1.95654ZM12 16.7826C11.0541 16.7826 10.1294 16.5021 9.34292 15.9765C8.55642 15.451 7.94343 14.7041 7.58144 13.8302C7.21947 12.9563 7.12475 11.9948 7.30929 11.0669C7.49383 10.1392 7.94932 9.28704 8.61818 8.61818C9.28704 7.94932 10.1392 7.49383 11.0669 7.30928C11.9947 7.12475 12.9563 7.21946 13.8302 7.58144C14.7041 7.94343 15.451 8.55642 15.9765 9.34292C16.5021 10.1294 16.7826 11.0541 16.7826 12C16.7826 13.2684 16.2787 14.4849 15.3818 15.3818C14.4849 16.2787 13.2684 16.7826 12 16.7826Z" fill="#FF808C"/>
<path d="M3.64239 9.88038C4.75592 8.20944 6.34475 6.91064 8.20376 6.15164C10.0628 5.39265 12.1066 5.20833 14.0714 5.62247C16.0363 6.03659 17.8318 7.03017 19.2264 8.47492C20.6209 9.91967 21.5503 11.7493 21.8947 13.7275C22.1462 12.2846 22.0792 10.8041 21.6981 9.38979C21.317 7.97551 20.6313 6.6617 19.6889 5.54044C18.7465 4.41919 17.5703 3.51763 16.2426 2.89897C14.915 2.28032 13.4681 1.95953 12.0034 1.95911C10.5387 1.95868 9.09161 2.27862 7.76362 2.89651C6.43563 3.51441 5.25885 4.41527 4.31579 5.53599C3.37273 6.65669 2.6862 7.97011 2.30435 9.38416C1.9225 10.7982 1.85455 12.2787 2.10527 13.7217C2.34407 12.3481 2.86766 11.0397 3.64239 9.88038Z" fill="#FFBFC5"/>
<path d="M13.4345 7.43641V1.95652C13.4345 1.70283 13.3337 1.45954 13.1543 1.28016C12.975 1.10078 12.7316 1 12.478 1H11.5215C11.2678 1 11.0245 1.10078 10.8451 1.28016C10.6658 1.45954 10.5649 1.70283 10.5649 1.95652V7.43641" fill="white"/>
<path d="M13.4345 7.43641V1.95652C13.4345 1.70283 13.3337 1.45954 13.1543 1.28016C12.975 1.10078 12.7316 1 12.478 1H11.5215C11.2678 1 11.0245 1.10078 10.8451 1.28016C10.6658 1.45954 10.5649 1.70283 10.5649 1.95652V7.43641" stroke="#191919" stroke-linecap="round" stroke-linejoin="round"/>
<path d="M10.5649 16.5636V22.0435C10.5649 22.2971 10.6658 22.5405 10.8451 22.7198C11.0245 22.8992 11.2678 23 11.5215 23H12.478C12.7316 23 12.975 22.8992 13.1543 22.7198C13.3337 22.5405 13.4345 22.2971 13.4345 22.0435V16.5636" fill="white"/>
<path d="M10.5649 16.5636V22.0435C10.5649 22.2971 10.6658 22.5405 10.8451 22.7198C11.0245 22.8992 11.2678 23 11.5215 23H12.478C12.7316 23 12.975 22.8992 13.1543 22.7198C13.3337 22.5405 13.4345 22.2971 13.4345 22.0435V16.5636" stroke="#191919" stroke-linecap="round" stroke-linejoin="round"/>
<path d="M7.43641 10.5652H1.95652C1.70283 10.5652 1.45954 10.6661 1.28016 10.8454C1.10078 11.0248 1 11.2681 1 11.5218V12.4783C1 12.732 1.10078 12.9753 1.28016 13.1546C1.45954 13.334 1.70283 13.4348 1.95652 13.4348H7.43641" fill="white"/>
<path d="M7.43641 10.5652H1.95652C1.70283 10.5652 1.45954 10.6661 1.28016 10.8454C1.10078 11.0248 1 11.2681 1 11.5218V12.4783C1 12.732 1.10078 12.9753 1.28016 13.1546C1.45954 13.334 1.70283 13.4348 1.95652 13.4348H7.43641" stroke="#191919" stroke-linecap="round" stroke-linejoin="round"/>
<path d="M16.5635 13.4348H22.0434C22.297 13.4348 22.5404 13.334 22.7197 13.1546C22.8991 12.9753 22.9999 12.732 22.9999 12.4783V11.5218C22.9999 11.2681 22.8991 11.0248 22.7197 10.8454C22.5404 10.6661 22.297 10.5652 22.0434 10.5652H16.5635" fill="white"/>
<path d="M16.5635 13.4348H22.0434C22.297 13.4348 22.5404 13.334 22.7197 13.1546C22.8991 12.9753 22.9999 12.732 22.9999 12.4783V11.5218C22.9999 11.2681 22.8991 11.0248 22.7197 10.8454C22.5404 10.6661 22.297 10.5652 22.0434 10.5652H16.5635" stroke="#191919" stroke-linecap="round" stroke-linejoin="round"/>
<path d="M11.9999 16.7826C14.6412 16.7826 16.7825 14.6414 16.7825 12C16.7825 9.35865 14.6412 7.21741 11.9999 7.21741C9.35853 7.21741 7.21729 9.35865 7.21729 12C7.21729 14.6414 9.35853 16.7826 11.9999 16.7826Z" stroke="#191919" stroke-linecap="round" stroke-linejoin="round"/>
<path d="M13.4346 2.05884C15.5802 2.36951 17.568 3.3657 19.101 4.89874C20.634 6.43179 21.6302 8.41948 21.9409 10.5652" stroke="#191919" stroke-linecap="round" stroke-linejoin="round"/>
<path d="M2.05664 10.5652C2.36782 8.41856 3.36503 6.43023 4.89936 4.8971C6.4337 3.36398 8.42282 2.36832 10.5696 2.05884" stroke="#191919" stroke-linecap="round" stroke-linejoin="round"/>
<path d="M10.5649 21.9421C8.41864 21.6319 6.43034 20.6357 4.89688 19.1024C3.36342 17.5691 2.36707 15.581 2.05664 13.4348" stroke="#191919" stroke-linecap="round" stroke-linejoin="round"/>
<path d="M21.9409 13.4348C21.6314 15.581 20.6356 17.5695 19.1024 19.1029C17.5692 20.6364 15.5808 21.6323 13.4346 21.9421" stroke="#191919" stroke-linecap="round" stroke-linejoin="round"/>
</g>
<defs>
<clipPath id="clip0_5303_9896">
<rect width="24" height="24" fill="white"/>
</clipPath>
</defs>
</svg>
