<svg width="24" height="24" viewBox="0 0 24 24" fill="none" xmlns="http://www.w3.org/2000/svg">
<g clip-path="url(#clip0_5303_9758)">
<path d="M1.0166 22.9327V15.2923C3.35739 15.7898 5.27138 13.363 5.27138 13.363C5.65221 13.9385 6.16323 14.4162 6.76307 14.7573C7.3629 15.0984 8.03467 15.2935 8.72391 15.3266C9.45443 15.291 10.1685 15.097 10.8167 14.7579C11.4648 14.4189 12.0314 13.9429 12.4772 13.363C12.78 13.9442 13.2334 14.4332 13.7901 14.7787C14.3468 15.1242 14.9863 15.3134 15.6414 15.3266C16.3352 15.3103 17.0141 15.1224 17.6175 14.7799C18.221 14.4372 18.7301 13.9504 19.0996 13.363C19.0996 13.363 20.5848 15.7507 22.9772 15.2531V22.8936L1.0166 22.9327Z" fill="#66E1FF"/>
<path d="M14.3881 18.5959V15.0393C14.7476 14.8973 15.0787 14.6915 15.365 14.4319L19.0897 10.0691C19.1905 9.99399 19.2735 9.89766 19.333 9.78688C19.3923 9.67611 19.4268 9.55372 19.4338 9.42831C19.4408 9.3028 19.4202 9.17729 19.3736 9.06066C19.3267 8.94403 19.255 8.83901 19.1633 8.75303C18.9602 8.56906 18.6988 8.46268 18.4249 8.45272C18.1511 8.44277 17.8826 8.52982 17.6668 8.69867L15.5512 10.3222L16.7136 3.3627C16.7376 3.23641 16.7355 3.10641 16.707 2.98099C16.6786 2.85558 16.6246 2.73729 16.5485 2.63374C16.4723 2.53009 16.3755 2.44333 16.2642 2.37872C16.1529 2.3142 16.0296 2.27331 15.9018 2.25867C15.6398 2.19845 15.3646 2.23886 15.131 2.37188C14.8973 2.50491 14.7221 2.7208 14.6402 2.97689L13.433 7.73118V2.05235C13.4119 1.75555 13.2749 1.47896 13.0515 1.2824C12.8281 1.08584 12.5362 0.985014 12.2392 1.00181C11.9421 0.985014 11.6502 1.08584 11.4268 1.2824C11.2034 1.47896 11.0664 1.75555 11.0453 2.05235V7.73118L10.1409 3.21376C10.0601 2.95796 9.88548 2.74227 9.65213 2.60993C9.41887 2.47758 9.14403 2.43845 8.88306 2.50032C8.75501 2.51594 8.63145 2.55752 8.52009 2.62261C8.40873 2.68781 8.31182 2.77496 8.2355 2.879C8.15908 2.98294 8.10471 3.10143 8.07582 3.22713C8.04694 3.35294 8.04411 3.48323 8.06743 3.61011L9.19537 9.09111L7.27952 6.42942C7.11244 6.21392 6.874 6.06509 6.60707 6.00965C6.34014 5.95412 6.06219 5.9956 5.82307 6.12667C5.7083 6.18015 5.6066 6.25804 5.52501 6.35485C5.44332 6.45167 5.38378 6.56498 5.35031 6.68708C5.31693 6.80927 5.31039 6.93712 5.33137 7.06205C5.35226 7.18688 5.40018 7.30575 5.47162 7.41028L6.97775 9.90869C7.2682 10.3855 7.42182 10.9329 7.42182 11.4912C7.41704 13.282 7.90981 14.7919 9.61368 15.195V18.5959" fill="#FFDDA1"/>
<path d="M14.3881 18.5959V15.0393C14.7476 14.8973 15.0787 14.6915 15.365 14.4319L19.0897 10.0691C19.1905 9.99399 19.2735 9.89766 19.333 9.78688C19.3923 9.67611 19.4268 9.55372 19.4338 9.42831C19.4408 9.3028 19.4202 9.17729 19.3736 9.06066C19.3267 8.94403 19.255 8.83901 19.1633 8.75303C18.9602 8.56906 18.6988 8.46268 18.4249 8.45272C18.1511 8.44277 17.8826 8.52982 17.6668 8.69867L15.5512 10.3222L16.7136 3.3627C16.7376 3.23641 16.7355 3.10641 16.707 2.98099C16.6786 2.85558 16.6246 2.73729 16.5485 2.63374C16.4723 2.53009 16.3755 2.44333 16.2642 2.37872C16.1529 2.3142 16.0296 2.27331 15.9018 2.25867C15.6398 2.19845 15.3646 2.23886 15.131 2.37188C14.8973 2.50491 14.7221 2.7208 14.6402 2.97689L13.433 7.73118V2.05235C13.4119 1.75555 13.2749 1.47896 13.0515 1.2824C12.8281 1.08584 12.5362 0.985014 12.2392 1.00181C11.9421 0.985014 11.6502 1.08584 11.4268 1.2824C11.2034 1.47896 11.0664 1.75555 11.0453 2.05235V7.73118L10.1409 3.21376C10.0601 2.95796 9.88548 2.74227 9.65213 2.60993C9.41887 2.47758 9.14403 2.43845 8.88306 2.50032C8.75501 2.51594 8.63145 2.55752 8.52009 2.62261C8.40873 2.68781 8.31182 2.77496 8.2355 2.879C8.15908 2.98294 8.10471 3.10143 8.07582 3.22713C8.04694 3.35294 8.04411 3.48323 8.06743 3.61011L9.19537 9.09111L7.27952 6.42942C7.11244 6.21392 6.874 6.06509 6.60707 6.00965C6.34014 5.95412 6.06219 5.9956 5.82307 6.12667C5.7083 6.18015 5.6066 6.25804 5.52501 6.35485C5.44332 6.45167 5.38378 6.56498 5.35031 6.68708C5.31693 6.80927 5.31039 6.93712 5.33137 7.06205C5.35226 7.18688 5.40018 7.30575 5.47162 7.41028L6.97775 9.90869C7.2682 10.3855 7.42182 10.9329 7.42182 11.4912C7.41704 13.282 7.90981 14.7919 9.61368 15.195V18.5959" stroke="#191919" stroke-linecap="round" stroke-linejoin="round"/>
<path d="M22.9834 22.8936C20.5958 23.3911 19.106 21.0035 19.106 21.0035C18.7364 21.5909 18.2273 22.0777 17.6238 22.4203C17.0204 22.7629 16.3414 22.9508 15.6477 22.9671C14.9916 22.955 14.351 22.7661 13.7931 22.4206C13.2353 22.0751 12.781 21.5855 12.4778 21.0035C12.0328 21.5824 11.4674 22.0579 10.8207 22.3967C10.174 22.7358 9.46136 22.9305 8.73211 22.9671C8.04238 22.9344 7.37003 22.7396 6.76971 22.3984C6.16938 22.0573 5.65787 21.5793 5.27675 21.0035C5.27675 21.0035 3.36657 23.4304 1.02197 22.9327" stroke="#191919" stroke-linecap="round" stroke-linejoin="round"/>
<path d="M6.76561 18.5901C6.17397 18.2337 5.66617 17.7539 5.27675 17.1833C5.27675 17.1833 3.36657 19.6101 1.02197 19.1125" stroke="#191919" stroke-linecap="round" stroke-linejoin="round"/>
<path d="M22.9833 19.0733C20.5957 19.571 19.1059 17.1833 19.1059 17.1833C18.7318 17.7686 18.2249 18.2575 17.6265 18.6101" stroke="#191919" stroke-linecap="round" stroke-linejoin="round"/>
<path d="M5.79207 13.9915C5.60195 13.7989 5.43086 13.5884 5.28115 13.363C5.28115 13.363 3.37096 15.7898 1.02637 15.2923" stroke="#191919" stroke-linecap="round" stroke-linejoin="round"/>
<path d="M22.9828 15.2531C20.5952 15.7507 19.1053 13.363 19.1053 13.363C18.8675 13.7397 18.572 14.0764 18.2295 14.3611" stroke="#191919" stroke-linecap="round" stroke-linejoin="round"/>
</g>
<defs>
<clipPath id="clip0_5303_9758">
<rect width="24" height="24" fill="white"/>
</clipPath>
</defs>
</svg>
