<svg width="24" height="24" viewBox="0 0 24 24" fill="none" xmlns="http://www.w3.org/2000/svg">
<g clip-path="url(#clip0_5303_9730)">
<path d="M15.5441 15.9107C15.5418 17.7567 14.8196 19.529 13.5312 20.8509C12.2427 22.1729 10.4895 22.9402 8.64421 22.9899C6.7989 23.0395 5.00697 22.3676 3.64927 21.1169C2.29158 19.8661 1.47517 18.1352 1.37356 16.2921C1.36672 16.1649 1.36672 16.0378 1.36672 15.9107C1.36278 14.082 2.06997 12.3233 3.33884 11.0063C3.39517 10.9477 3.46524 10.904 3.54271 10.8792C3.62018 10.8545 3.7026 10.8495 3.7825 10.8646C3.86241 10.8798 3.93727 10.9146 4.00031 10.966C4.06335 11.0174 4.11258 11.0837 4.14353 11.1589C4.42713 11.8486 4.82001 12.4881 5.30706 13.0528C5.9061 11.9892 6.21969 10.7887 6.21735 9.56808C6.21903 8.62844 6.0339 7.69784 5.67274 6.83038C5.63724 6.74534 5.62651 6.652 5.64177 6.56112C5.65703 6.47024 5.69766 6.38553 5.75898 6.31674C5.8203 6.24796 5.89982 6.19791 5.98836 6.17236C6.07689 6.14681 6.17085 6.14681 6.25939 6.17235C8.09957 6.68824 9.73128 7.76898 10.9242 9.26205C12.2275 10.8816 12.936 12.8991 12.9316 14.978C12.9325 15.0435 12.9306 15.109 12.9237 15.1735C13.5441 14.9738 14.1325 14.686 14.671 14.319C14.7382 14.2732 14.8157 14.2449 14.8966 14.2367C14.9774 14.2285 15.0591 14.2405 15.1341 14.2718C15.2092 14.303 15.2752 14.3525 15.3263 14.4157C15.3774 14.4789 15.412 14.5539 15.4268 14.6338C15.505 15.0542 15.5441 15.4825 15.5441 15.9107Z" fill="#FF808C" stroke="#191919" stroke-linecap="round" stroke-linejoin="round"/>
<path d="M8.74256 14.8782C8.79079 14.8564 8.84481 14.8508 8.89648 14.8623C8.94816 14.8739 8.99469 14.9018 9.02909 14.9421C9.06349 14.9823 9.0839 15.0327 9.08724 15.0855C9.09058 15.1383 9.07667 15.1908 9.04762 15.2351C8.7492 15.7038 8.58056 16.2433 8.55891 16.7985C8.53727 17.3537 8.6634 17.9047 8.92442 18.3952C9.23764 18.1736 9.48253 17.8688 9.63133 17.5152C9.64276 17.482 9.66117 17.4517 9.68532 17.4262C9.70947 17.4008 9.7388 17.3808 9.77132 17.3676C9.80385 17.3545 9.83881 17.3485 9.87387 17.35C9.90892 17.3515 9.94325 17.3605 9.97453 17.3764C10.4482 17.6273 10.8389 18.0103 11.0992 18.4789C11.3596 18.9475 11.4783 19.4815 11.4412 20.0163C11.4486 20.4103 11.3764 20.8018 11.229 21.1673C11.0815 21.5328 10.8618 21.8648 10.583 22.1433C10.3041 22.4218 9.97196 22.6412 9.60633 22.7883C9.2407 22.9355 8.84914 23.0072 8.4551 22.9994C8.05653 22.9974 7.66235 22.9161 7.29557 22.7601C6.92879 22.6041 6.59676 22.3766 6.31887 22.0909C6.04097 21.8052 5.82279 21.4669 5.67704 21.096C5.5313 20.725 5.46092 20.3287 5.47002 19.9302C5.4836 18.8652 5.79806 17.8258 6.37711 16.9319C6.95616 16.038 7.7762 15.326 8.74256 14.8782Z" fill="#FFEF5E" stroke="#191919" stroke-linecap="round" stroke-linejoin="round"/>
<path d="M13.3442 4.42212H22.6329" stroke="#191919" stroke-linecap="round" stroke-linejoin="round"/>
<path d="M19.6997 1L22.633 4.42213L20.1886 7.84427" stroke="#191919" stroke-linecap="round" stroke-linejoin="round"/>
</g>
<defs>
<clipPath id="clip0_5303_9730">
<rect width="24" height="24" fill="white"/>
</clipPath>
</defs>
</svg>
