<svg width="24" height="24" viewBox="0 0 24 24" fill="none" xmlns="http://www.w3.org/2000/svg">
<path d="M7.86716 15.1904C9.59773 16.9133 11.9081 17.9297 14.3475 18.0414C16.7871 18.1529 19.1806 17.3518 21.0612 15.794C21.158 15.714 21.2368 15.6148 21.2929 15.5025C21.3488 15.3902 21.3807 15.2674 21.3864 15.1421C21.392 15.0167 21.3714 14.8917 21.3257 14.7748C21.2801 14.658 21.2105 14.5519 21.1214 14.4636L8.47353 1.92976C8.38434 1.84131 8.27773 1.77256 8.1604 1.72791C8.04307 1.68327 7.91766 1.66366 7.79236 1.67044C7.66705 1.67722 7.54449 1.71022 7.43266 1.76724C7.32082 1.82426 7.22219 1.9041 7.14308 2.00163C5.60198 3.89629 4.82227 6.29731 4.95619 8.73592C5.09002 11.1745 6.12787 13.4757 7.86716 15.1904Z" fill="#E4F1F5"/>
<path d="M14.8289 8.22763L8.47344 1.92976C8.38434 1.84131 8.27764 1.77256 8.16031 1.72791C8.04307 1.68327 7.91766 1.66366 7.79226 1.67044C7.66696 1.67722 7.5444 1.71022 7.43257 1.76724C7.32073 1.82426 7.2221 1.9041 7.14308 2.00163C5.60198 3.89611 4.82227 6.29695 4.95619 8.73546C5.09002 11.174 6.12787 13.475 7.86706 15.1894L14.8289 8.22763Z" fill="white"/>
<path d="M7.86716 15.1904C9.59773 16.9133 11.9081 17.9297 14.3475 18.0414C16.7871 18.1529 19.1806 17.3518 21.0612 15.794C21.158 15.714 21.2368 15.6148 21.2929 15.5025C21.3488 15.3902 21.3807 15.2674 21.3864 15.1421C21.392 15.0167 21.3714 14.8917 21.3257 14.7748C21.2801 14.658 21.2105 14.5519 21.1214 14.4636L8.47353 1.92976C8.38434 1.84131 8.27773 1.77256 8.1604 1.72791C8.04307 1.68327 7.91766 1.66366 7.79236 1.67044C7.66705 1.67722 7.54449 1.71022 7.43266 1.76724C7.32082 1.82426 7.22219 1.9041 7.14308 2.00163C5.60198 3.89629 4.82227 6.29731 4.95619 8.73592C5.09002 11.1745 6.12787 13.4757 7.86716 15.1904Z" stroke="#191919" stroke-linecap="round" stroke-linejoin="round"/>
<path d="M16.5232 6.53253L14.8281 8.22763" stroke="#191919" stroke-linecap="round" stroke-linejoin="round"/>
<path d="M17.7932 7.05897C18.7854 7.05897 19.5897 6.2546 19.5897 5.2624C19.5897 4.2702 18.7854 3.46582 17.7932 3.46582C16.801 3.46582 15.9966 4.2702 15.9966 5.2624C15.9966 6.2546 16.8009 7.05897 17.7932 7.05897Z" fill="#FF808C"/>
<path d="M18.6914 4.35693C18.6907 4.1043 18.6361 3.85478 18.5315 3.62479C18.2573 3.50122 17.9564 3.44842 17.6565 3.47125C17.3566 3.49416 17.0673 3.59197 16.8149 3.75578C16.5625 3.91959 16.3554 4.14408 16.2125 4.40872C16.0695 4.67336 15.9953 4.96972 15.9966 5.27048C15.9972 5.52311 16.0518 5.77272 16.1565 6.00262C16.4307 6.12628 16.7316 6.17908 17.0315 6.15616C17.3314 6.13325 17.6208 6.03544 17.8732 5.87172C18.1254 5.70791 18.3325 5.48333 18.4755 5.21869C18.6184 4.95405 18.6928 4.65778 18.6914 4.35693Z" fill="#FFBFC5"/>
<path d="M17.7932 7.05897C18.7854 7.05897 19.5897 6.2546 19.5897 5.2624C19.5897 4.2702 18.7854 3.46582 17.7932 3.46582C16.801 3.46582 15.9966 4.2702 15.9966 5.2624C15.9966 6.2546 16.8009 7.05897 17.7932 7.05897Z" stroke="#191919" stroke-linecap="round" stroke-linejoin="round"/>
<path d="M7.79799 15.1202L2.83304 20.8433C2.72011 20.9733 2.64687 21.133 2.62212 21.3035C2.59737 21.474 2.62212 21.6481 2.69353 21.8048C2.76494 21.9616 2.87989 22.0945 3.02472 22.1878C3.16955 22.2811 3.33813 22.3307 3.51037 22.3308H12.134C12.3066 22.3308 12.4756 22.2811 12.6207 22.1876C12.7658 22.094 12.8808 21.9607 12.952 21.8035C13.0233 21.6463 13.0478 21.4718 13.0224 21.301C12.9972 21.1303 12.9233 20.9705 12.8095 20.8406L7.79799 15.1202Z" fill="#C1D4D9"/>
<path d="M12.1213 20.051L7.79784 15.1202L5.92041 17.2842C7.59195 18.9154 9.79076 19.8965 12.1213 20.051Z" fill="#98B7C0"/>
<path d="M7.79799 15.1202L2.83304 20.8433C2.72011 20.9733 2.64687 21.133 2.62212 21.3035C2.59737 21.474 2.62212 21.6481 2.69353 21.8048C2.76494 21.9616 2.87989 22.0945 3.02472 22.1878C3.16955 22.2811 3.33813 22.3307 3.51037 22.3308H12.134C12.3066 22.3308 12.4756 22.2811 12.6207 22.1876C12.7658 22.094 12.8808 21.9607 12.952 21.8035C13.0233 21.6463 13.0478 21.4718 13.0224 21.301C12.9972 21.1303 12.9233 20.9705 12.8095 20.8406L7.79799 15.1202Z" stroke="#191919" stroke-linecap="round" stroke-linejoin="round"/>
<path d="M18.2422 7.00244V11.6106" stroke="#191919" stroke-linecap="round" stroke-linejoin="round"/>
<path d="M16.053 4.81323H11.3828" stroke="#191919" stroke-linecap="round" stroke-linejoin="round"/>
</svg>
