<svg width="24" height="24" viewBox="0 0 24 24" fill="none" xmlns="http://www.w3.org/2000/svg">
<g clip-path="url(#clip0_5303_5994)">
<path d="M12 23C18.0751 23 23 18.0751 23 12C23 5.9249 18.0751 1 12 1C5.9249 1 1 5.9249 1 12C1 18.0751 5.9249 23 12 23Z" fill="#C2F3FF"/>
<path d="M12 17.7959C9.5352 17.7956 7.14188 16.9678 5.20365 15.4451C3.26543 13.9224 1.89454 11.7931 1.31073 9.39844C0.917689 11.0168 0.897243 12.7033 1.25094 14.3307C1.60463 15.9581 2.32323 17.4839 3.35255 18.7932C4.38186 20.1024 5.69502 21.1608 7.19298 21.8886C8.69094 22.6164 10.3346 22.9945 12 22.9945C13.6654 22.9945 15.3091 22.6164 16.807 21.8886C18.305 21.1608 19.6181 20.1024 20.6474 18.7932C21.6768 17.4839 22.3954 15.9581 22.7491 14.3307C23.1028 12.7033 23.0823 11.0168 22.6893 9.39844C22.1055 11.7931 20.7346 13.9224 18.7963 15.4451C16.8581 16.9678 14.4648 17.7956 12 17.7959Z" fill="#66E1FF"/>
<path d="M2.34277 17.2634H9.60918" stroke="#191919" stroke-linecap="round" stroke-linejoin="round"/>
<path d="M2.92676 5.7901H21.0823" stroke="#191919" stroke-linecap="round" stroke-linejoin="round"/>
<path d="M10.3376 11.5267H1.01367" stroke="#191919" stroke-linecap="round" stroke-linejoin="round"/>
<path d="M5.43711 20.8229C3.98289 19.7382 2.81964 18.3106 2.05107 16.6673C1.2825 15.024 0.932504 13.216 1.03226 11.4046C1.13203 9.59313 1.67846 7.83453 2.62284 6.28554C3.56723 4.73655 4.88022 3.44531 6.44476 2.52692C8.0093 1.60854 9.77678 1.09155 11.5896 1.02205C13.4025 0.952549 15.2043 1.33269 16.8346 2.1286C18.4649 2.9245 19.8729 4.11143 20.9331 5.58356C21.9933 7.0557 22.6727 8.7673 22.9109 10.5658" stroke="#191919" stroke-linecap="round" stroke-linejoin="round"/>
<path d="M11.2998 1.03351C6.63205 6.09131 5.83083 12.3873 8.7852 18.6784" stroke="#191919" stroke-linecap="round" stroke-linejoin="round"/>
<path d="M12.6973 1.03351C14.7518 3.15128 16.1397 5.8254 16.689 8.72442" stroke="#191919" stroke-linecap="round" stroke-linejoin="round"/>
<path d="M11.2979 15.2077H13.2101V20.7149H11.2979V15.2077Z" fill="white" stroke="#191919" stroke-linecap="round" stroke-linejoin="round"/>
<path d="M15.123 15.2077H17.0353V20.7149H15.123V15.2077Z" fill="white" stroke="#191919" stroke-linecap="round" stroke-linejoin="round"/>
<path d="M18.9463 15.2077H20.8585V20.7149H18.9463V15.2077Z" fill="white" stroke="#191919" stroke-linecap="round" stroke-linejoin="round"/>
<path d="M10.3379 13.372H21.8112V14.7488C21.8099 14.8103 21.7966 14.871 21.7719 14.9274C21.7472 14.9837 21.7116 15.0347 21.6672 15.0773C21.6228 15.1199 21.5705 15.1534 21.5131 15.1758C21.4558 15.1981 21.3946 15.209 21.3331 15.2077H10.8159C10.7544 15.209 10.6932 15.1981 10.6359 15.1758C10.5786 15.1534 10.5262 15.1199 10.4818 15.0773C10.4374 15.0347 10.4019 14.9837 10.3772 14.9274C10.3525 14.871 10.3391 14.8103 10.3379 14.7488V13.372Z" fill="#E3E3E3" stroke="#191919" stroke-linecap="round" stroke-linejoin="round"/>
<path d="M21.8112 22.5506H10.3379V21.1786C10.3391 21.1171 10.3525 21.0564 10.3772 21.0001C10.4019 20.9437 10.4374 20.8928 10.4818 20.8501C10.5262 20.8075 10.5786 20.7741 10.6359 20.7517C10.6932 20.7293 10.7544 20.7184 10.8159 20.7197H21.3331C21.3946 20.7184 21.4558 20.7293 21.5131 20.7517C21.5705 20.7741 21.6228 20.8075 21.6672 20.8501C21.7116 20.8928 21.7472 20.9437 21.7719 21.0001C21.7966 21.0564 21.8099 21.1171 21.8112 21.1786V22.5506Z" fill="#E3E3E3" stroke="#191919" stroke-linecap="round" stroke-linejoin="round"/>
<path d="M9.38574 22.5507H22.7712" stroke="#191919" stroke-linecap="round" stroke-linejoin="round"/>
<path d="M10.3379 13.373L15.8604 10.7217C15.9272 10.6896 16.0004 10.6729 16.0745 10.6729C16.1487 10.6729 16.2219 10.6896 16.2887 10.7217L21.8112 13.373H10.3379Z" fill="white" stroke="#191919" stroke-linecap="round" stroke-linejoin="round"/>
</g>
<defs>
<clipPath id="clip0_5303_5994">
<rect width="24" height="24" fill="white"/>
</clipPath>
</defs>
</svg>
