<svg width="24" height="24" viewBox="0 0 24 24" fill="none" xmlns="http://www.w3.org/2000/svg">
<g clip-path="url(#clip0_5303_6335)">
<path d="M12.2723 12.4783C13.4074 12.4783 14.517 12.1417 15.4608 11.511C16.4046 10.8804 17.1403 9.98409 17.5746 8.9354C18.009 7.88672 18.1226 6.73277 17.9012 5.61948C17.6797 4.50621 17.1332 3.48359 16.3305 2.68095C15.5279 1.87833 14.5052 1.33172 13.3919 1.11028C12.2787 0.888832 11.1248 1.00249 10.0761 1.43687C9.02738 1.87125 8.13104 2.60685 7.50043 3.55064C6.8698 4.49444 6.5332 5.60403 6.5332 6.73913C6.5332 8.26124 7.13786 9.72102 8.21416 10.7973C9.29045 11.8736 10.7502 12.4783 12.2723 12.4783Z" fill="#FFEF5E"/>
<path d="M12.273 1C11.1308 1.00026 10.0146 1.34135 9.06735 1.9796C8.12008 2.61786 7.38483 3.52425 6.95566 4.58278C6.5265 5.64131 6.42296 6.80383 6.65828 7.92154C6.8936 9.03927 7.4571 10.0613 8.27665 10.857L16.3908 2.74183C15.8565 2.18991 15.2166 1.75125 14.5092 1.45199C13.8016 1.15273 13.0412 0.999022 12.273 1Z" fill="#FFF9BF"/>
<path d="M16.6326 13.8336C15.5641 14.5472 15.0132 15.8481 16.6326 16.9414C17.5212 19.1615 19.1721 18.5675 20.1497 17.5344C20.6981 16.7456 21.0531 15.8387 21.186 14.8872C21.3189 13.9357 21.2261 12.9664 20.9149 12.0574C19.3558 13.2358 17.964 12.946 16.6326 13.8336Z" fill="#78EB7B" stroke="#191919" stroke-linecap="round" stroke-linejoin="round"/>
<path d="M4.96349 17.7009C5.75836 18.5675 7.01236 18.8822 7.7728 17.2638C9.65523 16.1494 8.88332 14.7395 7.81488 14.0011C7.02461 13.6158 6.15472 13.422 5.27562 13.4355C4.39654 13.449 3.53298 13.6692 2.75488 14.0785C4.03949 15.3239 3.97349 16.6219 4.96349 17.7009Z" fill="#78EB7B" stroke="#191919" stroke-linecap="round" stroke-linejoin="round"/>
<path d="M12.2723 12.4783C13.4074 12.4783 14.517 12.1417 15.4608 11.511C16.4046 10.8804 17.1403 9.98409 17.5746 8.9354C18.009 7.88672 18.1226 6.73277 17.9012 5.61948C17.6797 4.50621 17.1332 3.48359 16.3305 2.68095C15.5279 1.87833 14.5052 1.33172 13.3919 1.11028C12.2787 0.888832 11.1248 1.00249 10.0761 1.43687C9.02738 1.87125 8.13104 2.60685 7.50043 3.55064C6.8698 4.49444 6.5332 5.60403 6.5332 6.73913C6.5332 8.26124 7.13786 9.72102 8.21416 10.7973C9.29045 11.8736 10.7502 12.4783 12.2723 12.4783Z" stroke="#191919" stroke-linecap="round" stroke-linejoin="round"/>
<path d="M12.2725 12.4783V23" stroke="#191919" stroke-linecap="round" stroke-linejoin="round"/>
<path d="M12.2725 23C12.2725 23 14.6638 17.7391 18.4899 15.3478" stroke="#191919" stroke-linecap="round" stroke-linejoin="round"/>
<path d="M12.2723 22.0436C12.2723 22.0436 11.3158 18.6957 6.5332 15.8262" stroke="#191919" stroke-linecap="round" stroke-linejoin="round"/>
<path d="M13.7078 3.86957H11.7632C11.4652 3.86978 11.1765 3.97368 10.9467 4.16344C10.717 4.35321 10.5603 4.61702 10.5038 4.90963C10.4472 5.20224 10.4943 5.5054 10.6368 5.76713C10.7793 6.02887 11.0085 6.23285 11.285 6.34409L13.2592 7.13418C13.5357 7.24542 13.7648 7.4494 13.9074 7.71113C14.0499 7.97286 14.0969 8.27602 14.0404 8.56863C13.9839 8.86124 13.8272 9.12505 13.5975 9.31483C13.3677 9.50459 13.079 9.60849 12.781 9.6087H10.8383" stroke="#191919" stroke-linecap="round" stroke-linejoin="round"/>
<path d="M12.2725 10.5652V9.6087" stroke="#191919" stroke-linecap="round" stroke-linejoin="round"/>
<path d="M12.2725 3.86961V2.91309" stroke="#191919" stroke-linecap="round" stroke-linejoin="round"/>
</g>
<defs>
<clipPath id="clip0_5303_6335">
<rect width="24" height="24" fill="white"/>
</clipPath>
</defs>
</svg>
