<svg width="24" height="24" viewBox="0 0 24 24" fill="none" xmlns="http://www.w3.org/2000/svg">
<g clip-path="url(#clip0_5303_6110)">
<path d="M2.09608 8.82062C2.01832 8.87769 1.96093 8.9582 1.93234 9.05032C1.90376 9.14244 1.9055 9.2413 1.9373 9.33236C1.97183 9.42418 2.03375 9.50317 2.11468 9.55861C2.19562 9.61404 2.29164 9.64325 2.38973 9.64227H21.6158C21.714 9.64352 21.8101 9.61454 21.8912 9.55927C21.9723 9.504 22.0345 9.42511 22.0692 9.33332C22.1017 9.24242 22.1039 9.14343 22.0755 9.05117C22.047 8.95891 21.9894 8.87836 21.9114 8.82158L12.3242 1.59888C12.2388 1.53596 12.1355 1.50201 12.0296 1.50201C11.9236 1.50201 11.8203 1.53596 11.7349 1.59888L2.09608 8.82062Z" fill="#E3E3E3"/>
<path d="M12.0001 6.04001C14.9539 5.99587 17.8811 6.6023 20.5743 7.81627L12.3214 1.59888C12.2361 1.53596 12.1328 1.50201 12.0268 1.50201C11.9208 1.50201 11.8175 1.53596 11.7322 1.59888L3.44971 7.80671C6.13647 6.60005 9.05508 5.997 12.0001 6.04001Z" fill="white"/>
<path d="M23 20.6614H1V22.4979H23V20.6614Z" fill="#808080"/>
<path d="M1.95605 18.825H6.73866" stroke="#191919" stroke-linecap="round" stroke-linejoin="round"/>
<path d="M1 22.4979H23" stroke="#191919" stroke-linecap="round" stroke-linejoin="round"/>
<path d="M1 20.6614H23" stroke="#191919" stroke-linecap="round" stroke-linejoin="round"/>
<path d="M1.95605 11.4788H6.73866" stroke="#191919" stroke-linecap="round" stroke-linejoin="round"/>
<path d="M9.60889 18.825H14.3915" stroke="#191919" stroke-linecap="round" stroke-linejoin="round"/>
<path d="M9.60889 11.4788H14.3915" stroke="#191919" stroke-linecap="round" stroke-linejoin="round"/>
<path d="M5.78216 11.4788V18.8248H2.9126V11.4788H5.78216Z" fill="#E3E3E3" stroke="#191919" stroke-linecap="round" stroke-linejoin="round"/>
<path d="M13.4345 11.4788V18.8248H10.5649V11.4788H13.4345Z" fill="#E3E3E3" stroke="#191919" stroke-linecap="round" stroke-linejoin="round"/>
<path d="M17.2603 18.825H22.0429" stroke="#191919" stroke-linecap="round" stroke-linejoin="round"/>
<path d="M17.2603 11.4788H22.0429" stroke="#191919" stroke-linecap="round" stroke-linejoin="round"/>
<path d="M21.0869 11.4788V18.8248H18.2173V11.4788H21.0869Z" fill="#E3E3E3" stroke="#191919" stroke-linecap="round" stroke-linejoin="round"/>
<path d="M2.09608 8.82062C2.01832 8.87769 1.96093 8.9582 1.93234 9.05032C1.90376 9.14244 1.9055 9.2413 1.9373 9.33236C1.97183 9.42418 2.03375 9.50317 2.11468 9.55861C2.19562 9.61404 2.29164 9.64325 2.38973 9.64227H21.6158C21.714 9.64352 21.8101 9.61454 21.8912 9.55927C21.9723 9.504 22.0345 9.42511 22.0692 9.33332C22.1017 9.24242 22.1039 9.14343 22.0755 9.05117C22.047 8.95891 21.9894 8.87836 21.9114 8.82158L12.3242 1.59888C12.2388 1.53596 12.1355 1.50201 12.0296 1.50201C11.9236 1.50201 11.8203 1.53596 11.7349 1.59888L2.09608 8.82062Z" stroke="#191919" stroke-linecap="round" stroke-linejoin="round"/>
</g>
<defs>
<clipPath id="clip0_5303_6110">
<rect width="24" height="24" fill="white"/>
</clipPath>
</defs>
</svg>
