<svg width="24" height="24" viewBox="0 0 24 24" fill="none" xmlns="http://www.w3.org/2000/svg">
<g clip-path="url(#clip0_5303_5956)">
<path d="M5.26003 21.8443C4.30963 21.4209 3.39707 20.9173 2.53224 20.3389C1.63829 19.477 1.09662 18.3137 1.01249 17.0747C0.928346 15.8358 1.30775 14.6099 2.07697 13.6351V11.7347C2.10235 11.315 2.28046 10.919 2.57771 10.6215C2.87496 10.3242 3.27078 10.1458 3.6905 10.1202C4.76937 10.1202 5.30594 11.7347 5.30594 11.7347H9.60995C9.60995 11.7347 10.1513 10.1202 11.2273 10.1202C11.6472 10.1456 12.0432 10.3238 12.3407 10.6213C12.6382 10.9187 12.8163 11.3148 12.8418 11.7347V13.7059C12.8877 13.7652 12.9317 13.8264 12.9747 13.8876C13.5812 14.7625 13.8928 15.808 13.864 16.8721C13.8353 17.9362 13.4678 18.9634 12.815 19.8042C11.8109 20.7118 10.6872 21.4774 9.47509 22.0796L5.26003 21.8443Z" fill="#E3BFB3"/>
<path d="M7.43088 19.4589C6.16376 19.4554 4.9175 19.1362 3.80468 18.5302C2.69186 17.9242 1.74757 17.0505 1.05712 15.988C1.03991 16.1027 1.02556 16.2185 1.016 16.3342C0.956857 17.0723 1.06215 17.8143 1.32429 18.5068C1.58643 19.1992 1.9989 19.825 2.53196 20.3389C3.39741 20.9174 4.31062 21.421 5.26166 21.8443L9.47003 22.0796C10.6821 21.4774 11.8059 20.7118 12.8099 19.8042C13.2255 19.2689 13.5279 18.6545 13.6988 17.9986C13.8696 17.3428 13.9054 16.659 13.8037 15.9889C13.1129 17.0509 12.1687 17.9241 11.0562 18.5299C9.94358 19.1357 8.69769 19.455 7.43088 19.4589Z" fill="#C77F67"/>
<path d="M5.26003 21.8443C4.30963 21.4209 3.39707 20.9173 2.53224 20.3389C1.63829 19.477 1.09662 18.3137 1.01249 17.0747C0.928346 15.8358 1.30775 14.6099 2.07697 13.6351C2.10235 13.2154 2.28046 12.8195 2.57771 12.522C2.87496 12.2246 3.27078 12.0463 3.6905 12.0206C4.76937 10.1202 5.30594 11.7347 5.30594 11.7347H9.60995C9.60995 11.7347 10.1513 10.1202 11.2273 10.1202C11.6472 10.1456 12.0432 10.3238 12.3407 10.6213C12.6382 10.9187 12.8163 11.3148 12.8418 11.7347V13.7059C12.8877 13.7652 12.9317 13.8264 12.9747 13.8876C13.5812 14.7625 13.8928 15.808 13.864 16.8721C13.8353 17.9362 13.4678 18.9634 12.815 19.8042C11.8109 20.7118 10.6872 21.4774 9.47509 22.0796L5.26003 21.8443Z" stroke="#191919" stroke-linecap="round" stroke-linejoin="round"/>
<path d="M9.13887 16.557C8.61116 16.8311 8.04277 17.0184 7.45552 17.1118C6.87125 17.0187 6.30597 16.8314 5.78174 16.557L5.93381 16.0406C6.04502 15.7247 6.25149 15.4513 6.52473 15.2578C6.79798 15.0643 7.12454 14.9604 7.45935 14.9604C7.79415 14.9604 8.12071 15.0643 8.39396 15.2578C8.6672 15.4513 8.87367 15.7247 8.98488 16.0406L9.13887 16.557Z" fill="#808080" stroke="#191919" stroke-linecap="round" stroke-linejoin="round"/>
<path d="M10.1524 20.3445C10.1336 21.0462 9.84181 21.7128 9.33892 22.2024C8.83604 22.6921 8.16188 22.9662 7.45998 22.9662C6.75809 22.9662 6.08392 22.6921 5.58104 22.2024C5.07816 21.7128 4.78629 21.0462 4.76758 20.3445C4.76727 20.1644 4.7865 19.9848 4.82497 19.8089L5.78142 16.557C6.30564 16.8313 6.87092 17.0186 7.4552 17.1117C8.04246 17.0184 8.61084 16.831 9.13854 16.557L10.095 19.8089C10.133 19.9849 10.1523 20.1644 10.1524 20.3445Z" fill="#FFBC44" stroke="#191919" stroke-linecap="round" stroke-linejoin="round"/>
<path d="M7.45947 17.1136V19.2657C7.47806 19.545 7.59736 19.8081 7.79524 20.0061C7.99312 20.2042 8.25614 20.3238 8.53548 20.3426H10.149" stroke="#191919" stroke-linecap="round" stroke-linejoin="round"/>
<path d="M7.45904 19.2657C7.43985 19.5449 7.32036 19.8076 7.1226 20.0056C6.92483 20.2035 6.66216 20.3232 6.38304 20.3426H4.76855" stroke="#191919" stroke-linecap="round" stroke-linejoin="round"/>
<path d="M11.7617 12.6615C12.171 12.9538 12.534 13.3059 12.8387 13.7059" stroke="#191919" stroke-linecap="round" stroke-linejoin="round"/>
<path d="M2.07666 13.6351C2.38337 13.2473 2.74562 12.907 3.15171 12.6251" stroke="#191919" stroke-linecap="round" stroke-linejoin="round"/>
<path d="M2.43652 1.03387L6.55881 5.15425C6.76516 5.35976 7.0157 5.51544 7.29135 5.60942C7.567 5.7034 7.86047 5.7332 8.14938 5.69655L13.9139 4.98017C14.2117 4.94319 14.5142 4.97681 14.7966 5.07833C15.079 5.17985 15.3336 5.34642 15.5398 5.56456L23.0001 13.4677" stroke="#191919" stroke-linecap="round" stroke-linejoin="round"/>
<path d="M17.7393 13.4677H22.9997V8.20721" stroke="#191919" stroke-linecap="round" stroke-linejoin="round"/>
<path d="M4.76792 14.6633C4.63586 14.6633 4.52881 14.5563 4.52881 14.4242C4.52881 14.2921 4.63586 14.1851 4.76792 14.1851" stroke="#191919"/>
<path d="M4.76758 14.6633C4.89963 14.6633 5.00669 14.5563 5.00669 14.4242C5.00669 14.2921 4.89963 14.1851 4.76758 14.1851" stroke="#191919"/>
<path d="M10.1522 14.6633C10.0201 14.6633 9.91309 14.5563 9.91309 14.4242C9.91309 14.2921 10.0201 14.1851 10.1522 14.1851" stroke="#191919"/>
<path d="M10.1519 14.6633C10.2839 14.6633 10.391 14.5563 10.391 14.4242C10.391 14.2921 10.2839 14.1851 10.1519 14.1851" stroke="#191919"/>
</g>
<defs>
<clipPath id="clip0_5303_5956">
<rect width="24" height="24" fill="white"/>
</clipPath>
</defs>
</svg>
