<svg width="24" height="24" viewBox="0 0 24 24" fill="none" xmlns="http://www.w3.org/2000/svg">
<g clip-path="url(#clip0_5303_5344)">
<path d="M1 19.1739L4.82608 9.6087H19.1739L23 19.1739H1Z" fill="#B2B2B2" stroke="#191919" stroke-linecap="round" stroke-linejoin="round"/>
<path d="M21.0865 2.91309H2.9126L4.82564 9.60873H19.1735L21.0865 2.91309Z" fill="#E3E3E3"/>
<path d="M4.27979 7.69568L4.82596 9.60872H19.1738L19.72 7.69568H4.27979Z" fill="#B2B2B2"/>
<path d="M21.0865 2.91309H2.9126L4.82564 9.60873H19.1735L21.0865 2.91309Z" stroke="#191919" stroke-linecap="round" stroke-linejoin="round"/>
<path d="M23 19.1739C23 21.8158 20.8593 23 18.2174 23H5.7826C3.14069 23 1 21.8158 1 19.1739H23Z" fill="white" stroke="#191919" stroke-linecap="round" stroke-linejoin="round"/>
<path d="M2.9126 2.91304C2.9126 2.40567 3.11415 1.91908 3.47292 1.56032C3.83168 1.20155 4.31827 1 4.82564 1H19.1735C19.6808 1 20.1674 1.20155 20.5262 1.56032C20.885 1.91908 21.0865 2.40567 21.0865 2.91304H2.9126Z" fill="white" stroke="#191919" stroke-linecap="round" stroke-linejoin="round"/>
<path d="M17.2605 11.5218H6.73873L4.82568 17.2609H19.1735L17.2605 11.5218Z" fill="#66E1FF"/>
<path d="M14.8692 11.5218H6.73873L4.82568 17.2609H9.13003L14.8692 11.5218Z" fill="#C2F3FF"/>
<path d="M17.2605 11.5218H6.73873L4.82568 17.2609H19.1735L17.2605 11.5218Z" stroke="#191919" stroke-linecap="round" stroke-linejoin="round"/>
<path d="M16.0648 21.3261C15.9327 21.3261 15.8257 21.2191 15.8257 21.087C15.8257 20.9549 15.9327 20.8478 16.0648 20.8478" stroke="#191919"/>
<path d="M16.0654 21.3261C16.1975 21.3261 16.3046 21.2191 16.3046 21.087C16.3046 20.9549 16.1975 20.8478 16.0654 20.8478" stroke="#191919"/>
<path d="M18.9344 21.3261C18.8023 21.3261 18.6953 21.2191 18.6953 21.087C18.6953 20.9549 18.8023 20.8478 18.9344 20.8478" stroke="#191919"/>
<path d="M18.9341 21.3261C19.0662 21.3261 19.1732 21.2191 19.1732 21.087C19.1732 20.9549 19.0662 20.8478 18.9341 20.8478" stroke="#191919"/>
</g>
<defs>
<clipPath id="clip0_5303_5344">
<rect width="24" height="24" fill="white"/>
</clipPath>
</defs>
</svg>
