<svg width="24" height="24" viewBox="0 0 24 24" fill="none" xmlns="http://www.w3.org/2000/svg">
<g clip-path="url(#clip0_5303_10943)">
<path d="M18 9.74717L12 14.2471L5.99999 9.74717C5.82234 8.84987 5.84278 7.92461 6.05988 7.03604C6.27699 6.14746 6.68553 5.31702 7.25695 4.60276C7.82836 3.88848 8.54887 3.30762 9.36811 2.90075C10.1874 2.49388 11.0856 2.27083 12 2.24719C12.9138 2.27271 13.811 2.497 14.6293 2.90444C15.4476 3.31189 16.1673 3.89272 16.7383 4.60653C17.3094 5.32033 17.7181 6.14997 17.9359 7.03775C18.1538 7.92552 18.1757 8.85009 18 9.74717Z" fill="#FF808C"/>
<path d="M6.12899 9.84417C6.47728 8.54941 7.23961 7.40414 8.29965 6.58314C9.3597 5.76215 10.6593 5.31052 12 5.29718C13.3397 5.31683 14.6367 5.7713 15.6956 6.59214C16.7545 7.41298 17.518 8.55572 17.871 9.84817L18 9.74717C18.1757 8.85009 18.1538 7.92552 17.9359 7.03775C17.7181 6.14997 17.3094 5.32033 16.7383 4.60653C16.1673 3.89272 15.4476 3.31189 14.6293 2.90444C13.811 2.497 12.9138 2.27271 12 2.24719C11.0856 2.27083 10.1874 2.49388 9.36811 2.90075C8.54887 3.30762 7.82836 3.88848 7.25695 4.60276C6.68553 5.31702 6.27699 6.14746 6.05988 7.03604C5.84278 7.92461 5.82234 8.84987 5.99999 9.74717L6.12899 9.84417Z" fill="#FFBFC5"/>
<path d="M18 9.74717L12 14.2471L5.99999 9.74717C5.82234 8.84987 5.84278 7.92461 6.05988 7.03604C6.27699 6.14746 6.68553 5.31702 7.25695 4.60276C7.82836 3.88848 8.54887 3.30762 9.36811 2.90075C10.1874 2.49388 11.0856 2.27083 12 2.24719C12.9138 2.27271 13.811 2.497 14.6293 2.90444C15.4476 3.31189 16.1673 3.89272 16.7383 4.60653C17.3094 5.32033 17.7181 6.14997 17.9359 7.03775C18.1538 7.92552 18.1757 8.85009 18 9.74717Z" stroke="#191919" stroke-linecap="round" stroke-linejoin="round"/>
<path d="M23 15.7472C23 17.3385 22.3679 18.8646 21.2426 19.9898C20.1174 21.1151 18.5913 21.7472 17 21.7472C16.0228 21.7901 15.0507 21.583 14.1758 21.1456C13.3009 20.7081 12.552 20.0547 12 19.2472V14.2472L18 9.74719C19.4065 9.99849 20.6792 10.738 21.5939 11.8356C22.5085 12.9333 23.0065 14.3185 23 15.7472Z" fill="#C2F3FF"/>
<path d="M19.522 10.2472C20.212 11.2555 20.5836 12.4475 20.589 13.6692C20.589 15.2605 19.9569 16.7866 18.8316 17.9118C17.7064 19.0371 16.1803 19.6692 14.589 19.6692C13.7005 19.675 12.8199 19.5015 12 19.1592V19.2472C12.552 20.0547 13.3009 20.7081 14.1758 21.1456C15.0507 21.583 16.0228 21.7901 17 21.7472C18.5913 21.7472 20.1174 21.1151 21.2426 19.9898C22.3679 18.8646 23 17.3385 23 15.7472C22.9985 14.5956 22.6711 13.468 22.0557 12.4947C21.4402 11.5214 20.5618 10.7422 19.522 10.2472Z" fill="#66E1FF"/>
<path d="M23 15.7472C23 17.3385 22.3679 18.8646 21.2426 19.9898C20.1174 21.1151 18.5913 21.7472 17 21.7472C16.0228 21.7901 15.0507 21.583 14.1758 21.1456C13.3009 20.7081 12.552 20.0547 12 19.2472V14.2472L18 9.74719C19.4065 9.99849 20.6792 10.738 21.5939 11.8356C22.5085 12.9333 23.0065 14.3185 23 15.7472Z" stroke="#191919" stroke-linecap="round" stroke-linejoin="round"/>
<path d="M12 14.2472V19.2472C11.4433 20.0499 10.6935 20.6997 9.81972 21.1366C8.94595 21.5735 7.97628 21.7834 7.00005 21.7472C5.40875 21.7472 3.88263 21.1151 2.75742 19.9898C1.6322 18.8646 1.00006 17.3385 1.00006 15.7472C0.993579 14.3185 1.49153 12.9333 2.4062 11.8356C3.32087 10.738 4.59356 9.99849 6.00005 9.74719L12 14.2472Z" fill="#FFF9BF"/>
<path d="M6.99998 18.9972C5.65166 18.996 4.34302 18.5407 3.28514 17.7047C2.22727 16.8687 1.48181 15.7007 1.169 14.3892C1.06223 14.8342 1.00555 15.2896 1 15.7472C1 17.3385 1.63214 18.8646 2.75735 19.9898C3.88257 21.1151 5.40869 21.7472 6.99998 21.7472C7.97622 21.7834 8.94589 21.5735 9.81965 21.1366C10.6935 20.6997 11.4433 20.0499 12 19.2472V16.4972C11.4433 17.2999 10.6935 17.9497 9.81965 18.3866C8.94589 18.8235 7.97622 19.0334 6.99998 18.9972Z" fill="#FFEF5E"/>
<path d="M12 14.2472V19.2472C11.4433 20.0499 10.6935 20.6997 9.81972 21.1366C8.94595 21.5735 7.97628 21.7834 7.00005 21.7472C5.40875 21.7472 3.88263 21.1151 2.75742 19.9898C1.6322 18.8646 1.00006 17.3385 1.00006 15.7472C0.993579 14.3185 1.49153 12.9333 2.4062 11.8356C3.32087 10.738 4.59356 9.99849 6.00005 9.74719L12 14.2472Z" stroke="#191919" stroke-linecap="round" stroke-linejoin="round"/>
</g>
<defs>
<clipPath id="clip0_5303_10943">
<rect width="24" height="24" fill="white"/>
</clipPath>
</defs>
</svg>
