<svg width="24" height="24" viewBox="0 0 24 24" fill="none" xmlns="http://www.w3.org/2000/svg">
<path d="M14.2614 6.35099L17.2503 4.63004C17.3266 4.58595 17.4132 4.56274 17.5014 4.56274C17.5896 4.56274 17.6762 4.58595 17.7526 4.63004L20.7916 6.35401C20.8677 6.39814 20.9308 6.46144 20.9747 6.53761C21.0186 6.61377 21.0417 6.70011 21.0418 6.78801V9.72057C21.0418 9.80911 21.0184 9.89607 20.9739 9.97265C20.9294 10.0492 20.8655 10.1127 20.7886 10.1566L17.7747 11.8786C17.6983 11.9227 17.6117 11.9459 17.5235 11.9459C17.4353 11.9459 17.3487 11.9227 17.2724 11.8786L14.2584 10.1566C14.1823 10.1122 14.1192 10.0485 14.0755 9.97195C14.0317 9.89542 14.0089 9.80872 14.0093 9.72057V6.786C14.0094 6.69774 14.0328 6.61104 14.077 6.53468C14.1213 6.45831 14.1849 6.39496 14.2614 6.35099Z" fill="#FFBC44"/>
<path d="M5.10593 1.90545L6.86405 1.02638C6.89903 1.00903 6.93753 1 6.97657 1C7.01562 1 7.05412 1.00903 7.0891 1.02638L8.84722 1.90545C8.8889 1.92645 8.92392 1.95861 8.94839 1.99835C8.97286 2.03808 8.98584 2.08382 8.98586 2.13049V4.15284C8.98586 4.24528 8.96036 4.33594 8.91214 4.41482C8.86393 4.4937 8.79487 4.55775 8.71259 4.5999L7.0911 5.43275C7.05556 5.45061 7.01635 5.4599 6.97657 5.4599C6.9368 5.4599 6.89759 5.45061 6.86205 5.43275L5.10392 4.52857C5.06301 4.50762 5.02863 4.47583 5.00454 4.43668C4.98045 4.39753 4.96756 4.35252 4.96729 4.30655V2.13049C4.96731 2.08382 4.98029 2.03808 5.00476 1.99835C5.02923 1.95861 5.06425 1.92645 5.10593 1.90545Z" fill="#FFDDA1" stroke="#191919" stroke-linecap="round" stroke-linejoin="round"/>
<path d="M3.2162 15.8962L7.23478 13.6638C7.30945 13.6224 7.39347 13.6006 7.47891 13.6006C7.56434 13.6006 7.64837 13.6224 7.72304 13.6638L11.7416 15.8962C11.8199 15.9397 11.8851 16.0034 11.9305 16.0805C11.9759 16.1577 11.9998 16.2457 11.9998 16.3352V20.2654C11.9998 20.3549 11.9759 20.4429 11.9305 20.52C11.8851 20.5972 11.8199 20.6609 11.7416 20.7044L7.72304 22.9367C7.64837 22.9782 7.56434 23 7.47891 23C7.39347 23 7.30945 22.9782 7.23478 22.9367L3.2162 20.7044C3.13794 20.6609 3.07273 20.5972 3.02734 20.52C2.98194 20.4429 2.95801 20.3549 2.95801 20.2654V16.3352C2.95801 16.2457 2.98194 16.1577 3.02734 16.0805C3.07273 16.0034 3.13794 15.9397 3.2162 15.8962Z" fill="#FFEF5E"/>
<path d="M4.9673 21.5041V17.372C4.96741 17.2777 4.99271 17.1851 5.04058 17.1039C5.08844 17.0227 5.15713 16.9557 5.23956 16.9099L9.46509 14.8132C9.53397 14.7779 9.60979 14.7584 9.68712 14.7559L7.72304 13.6638C7.64837 13.6224 7.56434 13.6006 7.47891 13.6006C7.39347 13.6006 7.30945 13.6224 7.23478 13.6638L3.2162 15.8962C3.13794 15.9397 3.07273 16.0034 3.02734 16.0805C2.98194 16.1577 2.95801 16.2457 2.95801 16.3352V20.2654C2.95801 20.3549 2.98194 20.4429 3.02734 20.52C3.07273 20.5972 3.13794 20.6609 3.2162 20.7044L5.02456 21.709C4.99126 21.6456 4.97175 21.5757 4.9673 21.5041Z" fill="#FFF9BF"/>
<path d="M3.2162 15.8962L7.23478 13.6638C7.30945 13.6224 7.39347 13.6006 7.47891 13.6006C7.56434 13.6006 7.64837 13.6224 7.72304 13.6638L11.7416 15.8962C11.8199 15.9397 11.8851 16.0034 11.9305 16.0805C11.9759 16.1577 11.9998 16.2457 11.9998 16.3352V20.2654C11.9998 20.3549 11.9759 20.4429 11.9305 20.52C11.8851 20.5972 11.8199 20.6609 11.7416 20.7044L7.72304 22.9367C7.64837 22.9782 7.56434 23 7.47891 23C7.39347 23 7.30945 22.9782 7.23478 22.9367L3.2162 20.7044C3.13794 20.6609 3.07273 20.5972 3.02734 20.52C2.98194 20.4429 2.95801 20.3549 2.95801 20.2654V16.3352C2.95801 16.2457 2.98194 16.1577 3.02734 16.0805C3.07273 16.0034 3.13794 15.9397 3.2162 15.8962Z" stroke="#191919" stroke-linecap="round" stroke-linejoin="round"/>
<path d="M16.0186 10.8669V7.8339C16.0187 7.74266 16.0428 7.65305 16.0884 7.57404C16.1341 7.49505 16.1997 7.42945 16.2788 7.38382L19.3681 5.80653C19.4291 5.77371 19.4964 5.75391 19.5656 5.74838C19.6348 5.74285 19.7043 5.7517 19.7699 5.77438L17.7486 4.62808C17.6722 4.584 17.5856 4.56079 17.4974 4.56079C17.4092 4.56079 17.3226 4.584 17.2462 4.62808L14.2604 6.35105C14.1841 6.39514 14.1207 6.45854 14.0766 6.53491C14.0325 6.61127 14.0093 6.69789 14.0093 6.78606V9.72063C14.0093 9.80918 14.0328 9.89614 14.0772 9.9727C14.1217 10.0492 14.1856 10.1127 14.2624 10.1566L16.2617 11.2989C16.1882 11.2531 16.1273 11.1896 16.0848 11.114C16.0423 11.0386 16.0195 10.9535 16.0186 10.8669Z" fill="#FFDDA1"/>
<path d="M14.2614 6.35099L17.2503 4.63004C17.3266 4.58595 17.4132 4.56274 17.5014 4.56274C17.5896 4.56274 17.6762 4.58595 17.7526 4.63004L20.7916 6.35401C20.8677 6.39814 20.9308 6.46144 20.9747 6.53761C21.0186 6.61377 21.0417 6.70011 21.0418 6.78801V9.72057C21.0418 9.80911 21.0184 9.89607 20.9739 9.97265C20.9294 10.0492 20.8655 10.1127 20.7886 10.1566L17.7747 11.8786C17.6983 11.9227 17.6117 11.9459 17.5235 11.9459C17.4353 11.9459 17.3487 11.9227 17.2724 11.8786L14.2584 10.1566C14.1823 10.1122 14.1192 10.0485 14.0755 9.97195C14.0317 9.89542 14.0089 9.80872 14.0093 9.72057V6.786C14.0094 6.69774 14.0328 6.61104 14.077 6.53468C14.1213 6.45831 14.1849 6.39496 14.2614 6.35099Z" stroke="#191919" stroke-linecap="round" stroke-linejoin="round"/>
<path d="M11.9717 16.1733L17.7745 11.8785" stroke="#191919" stroke-linecap="round" stroke-linejoin="round"/>
<path d="M14.0837 6.52575L8.8877 4.44714" stroke="#191919" stroke-linecap="round" stroke-linejoin="round"/>
<path d="M4.96729 19.0537V17.3549C4.96729 17.2616 4.99323 17.1703 5.04219 17.091C5.09117 17.0117 5.16123 16.9476 5.24457 16.9058L6.97657 16.0398" stroke="#191919" stroke-linecap="round" stroke-linejoin="round"/>
<path d="M16.0186 9.00734V7.8108C16.0186 7.71759 16.0445 7.62622 16.0935 7.54691C16.1424 7.4676 16.2126 7.40348 16.2958 7.36173L17.0232 6.99805" stroke="#191919" stroke-linecap="round" stroke-linejoin="round"/>
</svg>
