<svg width="24" height="24" viewBox="0 0 24 24" fill="none" xmlns="http://www.w3.org/2000/svg">
<g clip-path="url(#clip0_5303_10921)">
<path d="M22.0435 3.39136H1.95652C1.70284 3.39136 1.45954 3.49213 1.28016 3.67152C1.10078 3.8509 1 4.09419 1 4.34788V19.6523C1 19.906 1.10078 20.1492 1.28016 20.3286C1.45954 20.508 1.70284 20.6088 1.95652 20.6088H22.0435C22.2972 20.6088 22.5405 20.508 22.7198 20.3286C22.8992 20.1492 23 19.906 23 19.6523V4.34788C23 4.09419 22.8992 3.8509 22.7198 3.67152C22.5405 3.49213 22.2972 3.39136 22.0435 3.39136Z" fill="#66E1FF"/>
<path d="M1.95652 3.39136C1.70284 3.39136 1.45954 3.49213 1.28016 3.67152C1.10078 3.8509 1 4.09419 1 4.34788V19.6523C1.00103 19.789 1.03187 19.9238 1.09035 20.0474C1.14883 20.1709 1.23355 20.2803 1.33861 20.3677L18.313 3.39136H1.95652Z" fill="#C2F3FF"/>
<path d="M22.0435 3.39136H1.95652C1.70284 3.39136 1.45954 3.49213 1.28016 3.67152C1.10078 3.8509 1 4.09419 1 4.34788V19.6523C1 19.906 1.10078 20.1492 1.28016 20.3286C1.45954 20.508 1.70284 20.6088 1.95652 20.6088H22.0435C22.2972 20.6088 22.5405 20.508 22.7198 20.3286C22.8992 20.1492 23 19.906 23 19.6523V4.34788C23 4.09419 22.8992 3.8509 22.7198 3.67152C22.5405 3.49213 22.2972 3.39136 22.0435 3.39136Z" stroke="#191919" stroke-linecap="round" stroke-linejoin="round"/>
<path d="M19.1738 17.7391C18.4127 17.7391 17.6828 17.4368 17.1447 16.8987C16.6065 16.3605 16.3042 15.6306 16.3042 14.8696C16.3042 14.1085 16.6065 13.3786 17.1447 12.8405C17.6828 12.3023 18.4127 12 19.1738 12" stroke="#191919" stroke-linecap="round" stroke-linejoin="round"/>
<path d="M11.522 17.7391V12L12.9568 14.8696L14.3915 12V17.7391" stroke="#191919" stroke-linecap="round" stroke-linejoin="round"/>
<path d="M7.6958 15.826H9.60884" stroke="#191919" stroke-linecap="round" stroke-linejoin="round"/>
<path d="M7.6958 13.913H9.60884" stroke="#191919" stroke-linecap="round" stroke-linejoin="round"/>
<path d="M18.0259 7.02604C18.0259 6.76516 18.0926 6.50862 18.2196 6.28077C18.3466 6.05292 18.5298 5.86132 18.7517 5.72417C18.9736 5.58702 19.2269 5.50887 19.4875 5.49715C19.7481 5.48542 20.0074 5.54051 20.2407 5.65717C20.4741 5.77384 20.6737 5.94821 20.8207 6.16374C20.9677 6.37926 21.0571 6.62878 21.0806 6.88859C21.104 7.14841 21.0606 7.40991 20.9546 7.64825C20.8485 7.88659 20.6833 8.09386 20.4746 8.25038L18.0259 10.087H21.0867" stroke="#191919" stroke-linecap="round" stroke-linejoin="round"/>
<path d="M5.78265 17.7391H3.86961C3.61592 17.7391 3.37263 17.6384 3.19324 17.459C3.01386 17.2796 2.91309 17.0363 2.91309 16.7826V12.9565C2.91309 12.7028 3.01386 12.4595 3.19324 12.2802C3.37263 12.1008 3.61592 12 3.86961 12H5.78265" stroke="#191919" stroke-linecap="round" stroke-linejoin="round"/>
<path d="M2.91309 14.8696H4.82613" stroke="#191919" stroke-linecap="round" stroke-linejoin="round"/>
</g>
<defs>
<clipPath id="clip0_5303_10921">
<rect width="24" height="24" fill="white"/>
</clipPath>
</defs>
</svg>
