<svg width="24" height="24" viewBox="0 0 24 24" fill="none" xmlns="http://www.w3.org/2000/svg">
<path d="M22.2667 10.2889C22.2667 16.4997 14.9334 23 12.0001 23C9.06673 23 1.7334 16.4978 1.7334 10.2889C1.7334 4.08 5.78922 1 12.0001 1C18.2109 1 22.2667 4.08 22.2667 10.2889Z" fill="#78EB7B"/>
<path d="M12.0001 5.64444C17.2879 5.64444 21.0034 7.88551 21.9939 12.3823C22.1674 11.6978 22.2589 10.995 22.2667 10.2889C22.2667 4.08 18.2099 1 12.0001 1C5.7902 1 1.7334 4.08 1.7334 10.2889C1.7412 10.995 1.83278 11.6978 2.0062 12.3823C2.99669 7.88551 6.71224 5.64444 12.0001 5.64444Z" fill="#C9F7CA"/>
<path d="M22.2667 10.2889C22.2667 16.4997 14.9334 23 12.0001 23C9.06673 23 1.7334 16.4978 1.7334 10.2889C1.7334 4.08 5.78922 1 12.0001 1C18.2109 1 22.2667 4.08 22.2667 10.2889Z" stroke="#191919" stroke-linecap="round" stroke-linejoin="round"/>
<path d="M9.97185 14.5237C3.6163 14.5237 4.19123 8.74304 4.19123 8.74304C11.1276 8.74304 9.97185 14.5237 9.97185 14.5237Z" fill="#D480FF" stroke="#191919" stroke-linecap="round" stroke-linejoin="round"/>
<path d="M14.0278 14.5237C20.3833 14.5237 19.8084 8.74304 19.8084 8.74304C12.872 8.74304 14.0278 14.5237 14.0278 14.5237Z" fill="#D480FF" stroke="#191919" stroke-linecap="round" stroke-linejoin="round"/>
</svg>
