<svg width="24" height="24" viewBox="0 0 24 24" fill="none" xmlns="http://www.w3.org/2000/svg">
<path d="M18.6956 7.39622C18.1035 6.53535 16.5148 6.50761 14.5501 7.15613C13.9685 5.16848 13.0445 3.87622 12 3.87622C10.9555 3.87622 10.0315 5.16848 9.4518 7.15613C7.48711 6.50761 5.89832 6.5363 5.30432 7.39622C4.63476 8.37091 5.41432 10.1597 7.12171 12C5.41624 13.8404 4.63476 15.629 5.30432 16.6037C5.89641 17.4646 7.48519 17.4923 9.44989 16.8438C10.0295 18.8314 10.9535 20.1236 11.9981 20.1236C13.0426 20.1236 13.9666 18.8314 14.5462 16.8438C16.5109 17.4923 18.0997 17.4637 18.6918 16.6037C19.3614 15.629 18.5818 13.8404 16.8744 12C18.5837 10.1597 19.3652 8.37091 18.6956 7.39622Z" fill="#D480FF"/>
<path d="M12.0006 23C14.3779 23 16.305 18.0752 16.305 12C16.305 5.92487 14.3779 1 12.0006 1C9.62341 1 7.69629 5.92487 7.69629 12C7.69629 18.0752 9.62341 23 12.0006 23Z" stroke="#191919" stroke-linecap="round" stroke-linejoin="round"/>
<path d="M14.4393 15.5468C9.4338 18.9903 4.28484 20.1926 2.93615 18.2337C1.58745 16.2747 4.55554 11.8967 9.56102 8.45318C14.5665 5.0097 19.7154 3.80831 21.0641 5.76631C22.4128 7.72431 19.4447 12.1033 14.4393 15.5468Z" stroke="#191919" stroke-linecap="round" stroke-linejoin="round"/>
<path d="M9.56102 15.5468C14.5665 18.9903 19.7154 20.1926 21.0641 18.2337C22.4128 16.2747 19.4447 11.8967 14.4393 8.45318C9.4338 5.0097 4.28484 3.80831 2.93615 5.76631C1.58745 7.72431 4.55554 12.1033 9.56102 15.5468Z" stroke="#191919" stroke-linecap="round" stroke-linejoin="round"/>
<path d="M12.0004 13.913C13.057 13.913 13.9135 13.0566 13.9135 12C13.9135 10.9434 13.057 10.087 12.0004 10.087C10.9439 10.087 10.0874 10.9434 10.0874 12C10.0874 13.0566 10.9439 13.913 12.0004 13.913Z" fill="#FF808C" stroke="#191919" stroke-linecap="round" stroke-linejoin="round"/>
</svg>
