<svg width="24" height="24" viewBox="0 0 24 24" fill="none" xmlns="http://www.w3.org/2000/svg">
<path d="M4.69802 8.35001C5.05897 8.35001 5.4118 8.24298 5.71192 8.04245C6.01203 7.84192 6.24594 7.5569 6.38407 7.22343C6.5222 6.88996 6.55834 6.52302 6.48792 6.16901C6.4175 5.815 6.24369 5.48982 5.98847 5.23459C5.73324 4.97937 5.40806 4.80555 5.05405 4.73514C4.70005 4.66473 4.3331 4.70086 3.99963 4.83899C3.66617 4.97712 3.38115 5.21103 3.18061 5.51114C2.98008 5.81126 2.87305 6.1641 2.87305 6.52505C2.87305 7.00906 3.06532 7.47325 3.40757 7.81549C3.74982 8.15774 4.214 8.35001 4.69802 8.35001Z" fill="#E4F1F5"/>
<path d="M4.69802 19.3C5.05897 19.3 5.4118 19.1929 5.71192 18.9924C6.01203 18.7919 6.24594 18.5068 6.38407 18.1734C6.5222 17.8399 6.55834 17.473 6.48792 17.119C6.4175 16.765 6.24369 16.4398 5.98847 16.1845C5.73324 15.9293 5.40806 15.7555 5.05405 15.6851C4.70005 15.6146 4.3331 15.6508 3.99963 15.789C3.66617 15.927 3.38115 16.161 3.18061 16.4611C2.98008 16.7612 2.87305 17.114 2.87305 17.475C2.87305 17.959 3.06532 18.4232 3.40757 18.7655C3.74982 19.1077 4.214 19.3 4.69802 19.3Z" fill="#E4F1F5"/>
<path d="M4.69809 9.71881C5.32975 9.71881 5.94721 9.53151 6.47242 9.18058C6.99761 8.82966 7.40696 8.33087 7.64868 7.74729C7.89041 7.16373 7.95365 6.52157 7.83042 5.90206C7.7072 5.28254 7.40302 4.71348 6.95637 4.26684C6.50973 3.82019 5.94067 3.51602 5.32115 3.39279C4.70164 3.26956 4.05949 3.3328 3.47592 3.57453C2.89235 3.81625 2.39355 4.2256 2.04263 4.75079C1.6917 5.276 1.50439 5.89346 1.50439 6.52512C1.50439 7.37214 1.84087 8.18447 2.43981 8.7834C3.03874 9.38234 3.85107 9.71881 4.69809 9.71881Z" stroke="#191919" stroke-linecap="round" stroke-linejoin="round"/>
<path d="M4.69809 20.6686C5.32975 20.6686 5.94721 20.4813 6.47242 20.1303C6.99761 19.7794 7.40696 19.2807 7.64868 18.6971C7.89041 18.1135 7.95365 17.4714 7.83042 16.8519C7.7072 16.2323 7.40302 15.6632 6.95637 15.2166C6.50973 14.7699 5.94067 14.4658 5.32115 14.3426C4.70164 14.2194 4.05949 14.2826 3.47592 14.5244C2.89235 14.7661 2.39355 15.1754 2.04263 15.7006C1.6917 16.2258 1.50439 16.8433 1.50439 17.4749C1.50439 18.3219 1.84087 19.1343 2.43981 19.7332C3.03874 20.3321 3.85107 20.6686 4.69809 20.6686Z" stroke="#191919" stroke-linecap="round" stroke-linejoin="round"/>
<path d="M11.2202 10.843L19.845 5.76136C20.292 5.52143 20.8129 5.45863 21.3042 5.58545C21.7953 5.71227 22.2209 6.0194 22.4958 6.44573L13.1647 12L11.2202 10.843Z" fill="#E4F1F5"/>
<path d="M12.817 9.90125L11.2202 10.8429L13.1647 12L14.7525 11.0537L12.817 9.90125Z" fill="#98B7C0"/>
<path d="M11.2202 10.843L19.845 5.76136C20.292 5.52143 20.8129 5.45863 21.3042 5.58545C21.7953 5.71227 22.2209 6.0194 22.4958 6.44573L13.1647 12L11.2202 10.843Z" stroke="#191919" stroke-linecap="round" stroke-linejoin="round"/>
<path d="M11.2202 10.8439L22.4913 17.5552C22.216 17.9811 21.7906 18.288 21.2995 18.4148C20.8084 18.5416 20.2876 18.4791 19.8405 18.2395L9.26025 12L11.2202 10.8439Z" fill="#C1D4D9" stroke="#191919" stroke-linecap="round" stroke-linejoin="round"/>
<path d="M19.8449 18.2396L5.29443 9.66406" stroke="#191919" stroke-linecap="round" stroke-linejoin="round"/>
<path d="M19.8449 5.76135L5.29443 14.3359" stroke="#191919" stroke-linecap="round" stroke-linejoin="round"/>
</svg>
