<svg width="24" height="24" viewBox="0 0 24 24" fill="none" xmlns="http://www.w3.org/2000/svg">
<path d="M7.69629 6.79543V5.30524C7.69629 4.16372 8.14976 3.06893 8.95694 2.26175C9.76412 1.45457 10.8589 1.0011 12.0004 1.0011C13.142 1.0011 14.2368 1.45457 15.0439 2.26175C15.8511 3.06893 16.3046 4.16372 16.3046 5.30524V6.79448L7.69629 6.79543Z" fill="#66E1FF"/>
<path d="M14.2415 1.62944C13.5889 1.23144 12.842 1.01443 12.0777 1.00069C11.3135 0.986967 10.5593 1.17701 9.89286 1.55131C9.22637 1.9256 8.67159 2.47063 8.28555 3.13038C7.89949 3.79013 7.69611 4.54078 7.69629 5.30518V6.79537H9.07648L14.2415 1.62944Z" fill="#C2F3FF"/>
<path d="M10.5657 20.1306H10.0875C9.68138 20.1306 9.28755 19.9913 8.97177 19.7359C8.65599 19.4805 8.43738 19.1245 8.35244 18.7274L6.27975 9.05359C6.22001 8.77473 6.22337 8.48605 6.28958 8.20866C6.35579 7.93128 6.4832 7.6722 6.66245 7.4504C6.8417 7.2286 7.06828 7.04968 7.3256 6.92674C7.58293 6.80381 7.86448 6.73995 8.14966 6.73987H15.8512C16.1364 6.73995 16.4179 6.80381 16.6753 6.92674C16.9326 7.04968 17.1592 7.2286 17.3384 7.4504C17.5177 7.6722 17.6451 7.93128 17.7113 8.20866C17.7776 8.48605 17.7809 8.77473 17.7211 9.05359L15.6484 18.7274C15.5635 19.1245 15.3449 19.4805 15.0291 19.7359C14.7133 19.9913 14.3195 20.1306 13.9134 20.1306H10.5657Z" fill="#FF808C"/>
<path d="M12.0004 6.73987H8.14966C7.86448 6.73995 7.58293 6.80381 7.3256 6.92674C7.06828 7.04968 6.8417 7.2286 6.66245 7.4504C6.4832 7.6722 6.35579 7.93128 6.28958 8.20866C6.22337 8.48605 6.22001 8.77473 6.27975 9.05359L8.35244 18.7274C8.43738 19.1245 8.65599 19.4805 8.97177 19.7359C9.28755 19.9913 9.68138 20.1306 10.0875 20.1306H12.0004V6.73987Z" fill="#FFBFC5"/>
<path d="M12.8656 10.9111L12 14.2004C12.1789 14.1992 12.3539 14.1478 12.505 14.0522L17.2998 11.0201L17.7207 9.05455C17.7774 8.79343 17.7785 8.52328 17.7237 8.26172C17.669 8.00017 17.5598 7.75309 17.4031 7.53662L13.252 10.3659C13.0619 10.4953 12.9247 10.6888 12.8656 10.9111Z" fill="#FFEF5E"/>
<path d="M11.9995 14.2004L11.1386 10.912C11.0808 10.69 10.9449 10.4962 10.756 10.3659L6.59728 7.53564C6.44022 7.75193 6.33066 7.99897 6.27578 8.26057C6.22088 8.52216 6.22191 8.7924 6.27877 9.05357L6.71779 11.1062L11.4906 14.0569C11.6436 14.1512 11.8198 14.2009 11.9995 14.2004Z" fill="#FFEF5E"/>
<path d="M10.5657 20.1306H10.0875C9.68138 20.1306 9.28755 19.9913 8.97177 19.7359C8.65599 19.4805 8.43738 19.1245 8.35244 18.7274L6.27975 9.05359C6.22001 8.77473 6.22337 8.48605 6.28958 8.20866C6.35579 7.93128 6.4832 7.6722 6.66245 7.4504C6.8417 7.2286 7.06828 7.04968 7.3256 6.92674C7.58293 6.80381 7.86448 6.73995 8.14966 6.73987H15.8512C16.1364 6.73995 16.4179 6.80381 16.6753 6.92674C16.9326 7.04968 17.1592 7.2286 17.3384 7.4504C17.5177 7.6722 17.6451 7.93128 17.7113 8.20866C17.7776 8.48605 17.7809 8.77473 17.7211 9.05359L15.6484 18.7274C15.5635 19.1245 15.3449 19.4805 15.0291 19.7359C14.7133 19.9913 14.3195 20.1306 13.9134 20.1306H13.4352" stroke="#191919" stroke-linecap="round" stroke-linejoin="round"/>
<path d="M13.4349 17.7394C13.4349 17.3589 13.2837 16.9939 13.0147 16.7248C12.7456 16.4558 12.3806 16.3047 12.0001 16.3047C11.6197 16.3047 11.2547 16.4558 10.9856 16.7248C10.7166 16.9939 10.5654 17.3589 10.5654 17.7394V21.5653C10.5654 21.9458 10.7166 22.3108 10.9856 22.5798C11.2547 22.8489 11.6197 23 12.0001 23C12.3806 23 12.7456 22.8489 13.0147 22.5798C13.2837 22.3108 13.4349 21.9458 13.4349 21.5653V17.7394Z" fill="#808080"/>
<path d="M12.0001 16.3047C11.6197 16.3047 11.2547 16.4558 10.9856 16.7248C10.7166 16.9939 10.5654 17.3589 10.5654 17.7394V19.6523C10.5654 19.2718 10.7166 18.9069 10.9856 18.6378C11.2547 18.3687 11.6197 18.2176 12.0001 18.2176C12.3806 18.2176 12.7456 18.3687 13.0147 18.6378C13.2837 18.9069 13.4349 19.2718 13.4349 19.6523V17.7394C13.4349 17.3589 13.2837 16.9939 13.0147 16.7248C12.7456 16.4558 12.3806 16.3047 12.0001 16.3047Z" fill="#B2B2B2"/>
<path d="M6.71875 11.1061L11.4916 14.0568C11.6441 14.151 11.82 14.2004 11.9994 14.1994C12.1786 14.1983 12.3539 14.1469 12.5054 14.0511L17.261 11.0439" stroke="#191919" stroke-linecap="round" stroke-linejoin="round"/>
<path d="M17.403 7.53564L13.2519 10.3649C13.063 10.4952 12.9271 10.689 12.8693 10.9111L11.9998 14.2004L11.139 10.912C11.0811 10.69 10.9453 10.4962 10.7564 10.3659L6.59766 7.53564" stroke="#191919" stroke-linecap="round" stroke-linejoin="round"/>
<path d="M7.69629 6.79543V5.30524C7.69629 4.16372 8.14976 3.06893 8.95694 2.26175C9.76412 1.45457 10.8589 1.0011 12.0004 1.0011C13.142 1.0011 14.2368 1.45457 15.0439 2.26175C15.8511 3.06893 16.3046 4.16372 16.3046 5.30524V6.79448" stroke="#191919" stroke-linecap="round" stroke-linejoin="round"/>
<path d="M17.5059 7.69641H21.0563" stroke="#191919" stroke-linecap="round" stroke-linejoin="round"/>
<path d="M6.4938 7.69641H2.94336" stroke="#191919" stroke-linecap="round" stroke-linejoin="round"/>
<path d="M13.4349 17.7394C13.4349 17.3589 13.2837 16.9939 13.0147 16.7248C12.7456 16.4558 12.3806 16.3047 12.0001 16.3047C11.6197 16.3047 11.2547 16.4558 10.9856 16.7248C10.7166 16.9939 10.5654 17.3589 10.5654 17.7394V21.5653C10.5654 21.9458 10.7166 22.3108 10.9856 22.5798C11.2547 22.8489 11.6197 23 12.0001 23C12.3806 23 12.7456 22.8489 13.0147 22.5798C13.2837 22.3108 13.4349 21.9458 13.4349 21.5653V17.7394Z" stroke="#191919" stroke-linecap="round" stroke-linejoin="round"/>
</svg>
