<svg width="24" height="24" viewBox="0 0 24 24" fill="none" xmlns="http://www.w3.org/2000/svg">
<g clip-path="url(#clip0_5303_11916)">
<path d="M14.6943 15.8242H22.9997C22.9322 14.8744 22.4923 13.9898 21.7758 13.3628C21.0592 12.7358 20.124 12.4172 19.1737 12.4764H17.0799C16.7248 13.8483 15.8752 15.0406 14.6943 15.8242Z" fill="#FF808C"/>
<path d="M19.2873 13.8155C20.6148 13.8019 21.9027 14.2667 22.9154 15.125C22.6735 14.3314 22.1748 13.6407 21.4977 13.1613C20.8205 12.6819 20.0034 12.441 19.1745 12.4764H17.0807C16.9604 12.9417 16.7821 13.39 16.5498 13.8107L19.2873 13.8155Z" fill="#FFBFC5"/>
<path d="M8.17385 11.998H5.78257C4.51415 11.998 3.29769 12.5019 2.40078 13.3988C1.50388 14.2957 1 15.5122 1 16.7806H11.5217C12.0028 16.7806 12.482 16.7203 12.9488 16.6017L12.9296 16.2727C12.8043 15.0988 12.2492 14.0128 11.3712 13.2237C10.4932 12.4345 9.35438 11.998 8.17385 11.998Z" fill="#FF808C"/>
<path d="M5.59132 13.5285H8.36521C9.24147 13.5267 10.1057 13.7324 10.8871 14.129C11.6685 14.5255 12.3449 15.1015 12.8608 15.8097C12.6374 14.7321 12.0492 13.7645 11.1954 13.0702C10.3416 12.3758 9.27443 11.9971 8.17391 11.998H5.78262C4.6817 11.9973 3.61422 12.3763 2.76036 13.0713C1.90649 13.7662 1.31853 14.7345 1.0957 15.8126C1.61133 15.1038 2.28757 14.5273 3.069 14.1302C3.85043 13.7332 4.71481 13.527 5.59132 13.5285Z" fill="#FFBFC5"/>
<path d="M8.65217 16.7808C8.65217 17.5419 8.34984 18.2717 7.8117 18.8099C7.27356 19.348 6.54368 19.6503 5.78263 19.6503C5.02158 19.6503 4.2917 19.348 3.75356 18.8099C3.21541 18.2717 2.91309 17.5419 2.91309 16.7808H8.65217Z" fill="#808080" stroke="#191919" stroke-linecap="round" stroke-linejoin="round"/>
<path d="M17.069 12.4764H19.1733C20.1237 12.4172 21.0589 12.7358 21.7754 13.3628C22.492 13.9898 22.9319 14.8744 22.9994 15.8242H14.6777" stroke="#191919" stroke-linecap="round" stroke-linejoin="round"/>
<path d="M11.5212 11.0416C11.5212 11.2953 11.4204 11.5386 11.241 11.718C11.0617 11.8974 10.8184 11.9981 10.5647 11.9981H3.86908L2.09571 10.2238C2.0063 10.1342 1.95608 10.0127 1.95605 9.88609V9.60679C1.95605 9.47995 2.00644 9.3583 2.09613 9.26861C2.18582 9.17892 2.30747 9.12854 2.43431 9.12854H11.0429C11.1698 9.12854 11.2914 9.17892 11.3811 9.26861C11.4708 9.3583 11.5212 9.47995 11.5212 9.60679V11.0416Z" fill="#C77F67"/>
<path d="M11.0429 9.12854H2.43431C2.30747 9.12854 2.18582 9.17892 2.09613 9.26861C2.00644 9.3583 1.95606 9.47995 1.95606 9.60679V9.88609C1.95594 9.94894 1.96822 10.0112 1.99218 10.0693C2.01614 10.1274 2.05132 10.1803 2.09571 10.2248L2.43431 10.5634H11.0429C11.1698 10.5634 11.2914 10.6137 11.3811 10.7034C11.4708 10.7931 11.5212 10.9148 11.5212 11.0416V9.60679C11.5212 9.47995 11.4708 9.3583 11.3811 9.26861C11.2914 9.17892 11.1698 9.12854 11.0429 9.12854Z" fill="#E3BFB3"/>
<path d="M11.5212 11.0416C11.5212 11.2953 11.4204 11.5386 11.241 11.718C11.0617 11.8974 10.8184 11.9981 10.5647 11.9981H3.86908L2.09571 10.2238C2.0063 10.1342 1.95608 10.0127 1.95605 9.88609V9.60679C1.95605 9.47995 2.00644 9.3583 2.09613 9.26861C2.18582 9.17892 2.30747 9.12854 2.43431 9.12854H11.0429C11.1698 9.12854 11.2914 9.17892 11.3811 9.26861C11.4708 9.3583 11.5212 9.47995 11.5212 9.60679V11.0416Z" stroke="#191919" stroke-linecap="round" stroke-linejoin="round"/>
<path d="M19.1732 9.04734C19.1731 9.12386 19.1547 9.19925 19.1195 9.26718C19.0843 9.33511 19.0333 9.3936 18.9708 9.43774C18.9083 9.48188 18.8361 9.51037 18.7603 9.52084C18.6845 9.5313 18.6073 9.52342 18.5352 9.49786C18.1619 9.36615 17.8388 9.12191 17.6102 8.79881C17.3816 8.47571 17.2588 8.08967 17.2588 7.69388C17.2588 7.29809 17.3816 6.91204 17.6102 6.58894C17.8388 6.26584 18.1619 6.02161 18.5352 5.88989C18.6073 5.86433 18.6845 5.85646 18.7603 5.86692C18.8361 5.87738 18.9083 5.90587 18.9708 5.95001C19.0333 5.99415 19.0843 6.05264 19.1195 6.12057C19.1547 6.1885 19.1731 6.26389 19.1732 6.34041V9.04734Z" fill="#E3E3E3" stroke="#191919" stroke-linecap="round" stroke-linejoin="round"/>
<path d="M14.3912 4.34607H15.826C16.2065 4.34607 16.5714 4.49723 16.8405 4.7663C17.1096 5.03537 17.2607 5.40031 17.2607 5.78084V11.0416C17.2607 12.5637 16.6561 14.0235 15.5798 15.0998C14.5035 16.176 13.0438 16.7808 11.5217 16.7808H1C1 15.5124 1.50388 14.2958 2.40078 13.3989C3.29769 12.502 4.51415 11.9981 5.78257 11.9981H8.17385C9.35438 11.9981 10.4932 12.4346 11.3712 13.2238C12.2492 14.0129 12.8043 15.099 12.9296 16.2729L12.9488 16.601" stroke="#191919" stroke-linecap="round" stroke-linejoin="round"/>
<path d="M16.4707 15.8242C16.2601 16.4183 16.2508 17.0652 16.4444 17.6651C16.638 18.2649 17.0236 18.7844 17.5418 19.1433C18.06 19.5022 18.6819 19.6805 19.3116 19.6508C19.9412 19.621 20.5436 19.3849 21.0256 18.9788C21.4715 18.6019 21.7918 18.098 21.9438 17.5344C22.0957 16.9707 22.0721 16.3741 21.876 15.8242H16.4707Z" fill="#808080" stroke="#191919" stroke-linecap="round" stroke-linejoin="round"/>
</g>
<defs>
<clipPath id="clip0_5303_11916">
<rect width="24" height="24" fill="white"/>
</clipPath>
</defs>
</svg>
