<svg width="24" height="24" viewBox="0 0 24 24" fill="none" xmlns="http://www.w3.org/2000/svg">
<path d="M10.4776 17.2743L10.0864 21.087H13.9125L13.5213 17.2743" fill="#808080"/>
<path d="M10.4776 17.2743L10.0864 21.087H13.9125L13.5213 17.2743" stroke="#191919" stroke-linecap="round" stroke-linejoin="round"/>
<path d="M7.70508 21.087H16.3138" stroke="#191919" stroke-linecap="round" stroke-linejoin="round"/>
<path d="M23 18.2174C23 18.2174 19.6522 17.2609 12 17.2609C4.34783 17.2609 1 18.2174 1 18.2174V2.91302C1 2.91302 4.34783 3.86955 12 3.86955C19.6522 3.86955 23 2.91302 23 2.91302V18.2174Z" fill="#66E1FF"/>
<path d="M19.0161 3.54911C16.6843 3.77439 14.3426 3.88134 12 3.86955C4.34783 3.86955 1 2.91302 1 2.91302V18.2174C2.30961 17.9014 3.64199 17.6888 4.98487 17.5813L19.0161 3.54911Z" fill="#C2F3FF"/>
<path d="M23 18.2174C23 18.2174 19.6522 17.2609 12 17.2609C4.34783 17.2609 1 18.2174 1 18.2174V2.91302C1 2.91302 4.34783 3.86955 12 3.86955C19.6522 3.86955 23 2.91302 23 2.91302V18.2174Z" stroke="#191919" stroke-linecap="round" stroke-linejoin="round"/>
</svg>
