<svg width="24" height="24" viewBox="0 0 24 24" fill="none" xmlns="http://www.w3.org/2000/svg">
<path d="M22.0435 3.3913H1.95652C1.70284 3.3913 1.45954 3.49207 1.28016 3.67146C1.10078 3.85084 1 4.09413 1 4.34782V16.7826C1 17.0363 1.10078 17.2796 1.28016 17.459C1.45954 17.6383 1.70284 17.7391 1.95652 17.7391H22.0435C22.2972 17.7391 22.5405 17.6383 22.7198 17.459C22.8992 17.2796 23 17.0363 23 16.7826V4.34782C23 4.09413 22.8992 3.85084 22.7198 3.67146C22.5405 3.49207 22.2972 3.3913 22.0435 3.3913Z" fill="#66E1FF"/>
<path d="M1.95652 17.7391H4.82609L19.1739 3.3913H1.95652C1.70284 3.3913 1.45954 3.49207 1.28016 3.67146C1.10078 3.85084 1 4.09413 1 4.34782V16.7826C1 17.0363 1.10078 17.2796 1.28016 17.459C1.45954 17.6383 1.70284 17.7391 1.95652 17.7391Z" fill="#C2F3FF"/>
<path d="M22.0435 3.3913H1.95652C1.70284 3.3913 1.45954 3.49207 1.28016 3.67146C1.10078 3.85084 1 4.09413 1 4.34782V16.7826C1 17.0363 1.10078 17.2796 1.28016 17.459C1.45954 17.6383 1.70284 17.7391 1.95652 17.7391H22.0435C22.2972 17.7391 22.5405 17.6383 22.7198 17.459C22.8992 17.2796 23 17.0363 23 16.7826V4.34782C23 4.09413 22.8992 3.85084 22.7198 3.67146C22.5405 3.49207 22.2972 3.3913 22.0435 3.3913Z" stroke="#191919" stroke-linecap="round" stroke-linejoin="round"/>
<path d="M6.72852 20.6087H17.2503" stroke="#191919" stroke-linecap="round" stroke-linejoin="round"/>
<path d="M13.4345 17.7391H10.5649V20.6087H13.4345V17.7391Z" fill="#808080" stroke="#191919" stroke-linecap="round" stroke-linejoin="round"/>
</svg>
