<svg width="24" height="24" viewBox="0 0 24 24" fill="none" xmlns="http://www.w3.org/2000/svg">
<g clip-path="url(#clip0_5303_2410)">
<path d="M11.9998 21.6788C17.3442 21.6788 21.6766 17.3464 21.6766 12.0021C21.6766 6.6578 17.3442 2.3254 11.9998 2.3254C6.65564 2.3254 2.32324 6.6578 2.32324 12.0021C2.32324 17.3464 6.65564 21.6788 11.9998 21.6788Z" fill="#FFF9BF"/>
<path d="M11.9999 14.0372C13.1251 14.0372 14.0372 13.1252 14.0372 12C14.0372 10.875 13.1251 9.9629 11.9999 9.9629C10.8749 9.9629 9.96277 10.875 9.96277 12C9.96277 13.1252 10.8749 14.0372 11.9999 14.0372Z" fill="#E3E3E3" stroke="#191919" stroke-linecap="round" stroke-linejoin="round"/>
<path d="M6.39807 5.976L11.2802 1.0938C11.4712 0.902901 11.7303 0.795601 12.0004 0.795601C12.2705 0.795601 12.5295 0.902901 12.7205 1.0938L17.6026 5.976" stroke="#191919" stroke-linecap="round" stroke-linejoin="round"/>
<path d="M6.39807 18.024L11.2802 22.9062C11.4712 23.0972 11.7303 23.2044 12.0004 23.2044C12.2705 23.2044 12.5295 23.0972 12.7205 22.9062L17.6026 18.024" stroke="#191919" stroke-linecap="round" stroke-linejoin="round"/>
</g>
<defs>
<clipPath id="clip0_5303_2410">
<rect width="24" height="24" fill="white"/>
</clipPath>
</defs>
</svg>
