<svg width="24" height="24" viewBox="0 0 24 24" fill="none" xmlns="http://www.w3.org/2000/svg">
<g clip-path="url(#clip0_5303_5589)">
<path d="M12.8635 1.28026C12.6842 1.10087 12.4409 1.00005 12.1872 1H2.0615C1.80782 1 1.56452 1.10078 1.38514 1.28016C1.20576 1.45954 1.10498 1.70284 1.10498 1.95652V9.6087H2.0615V12.4783H1.10498V22.0435C1.10498 22.2972 1.20576 22.5405 1.38514 22.7198C1.56452 22.8992 1.80782 23 2.0615 23H16.4093C16.663 23 16.9063 22.8992 17.0857 22.7198C17.2651 22.5405 17.3658 22.2972 17.3658 22.0435V6.17861C17.3658 5.92494 17.265 5.68169 17.0856 5.50235L12.8635 1.28026Z" fill="#66E1FF"/>
<path d="M1.10498 12.4783V21.3261L17.0072 5.42391L12.8635 1.28026C12.6842 1.10087 12.4409 1.00005 12.1872 1H2.0615C1.80782 1 1.56452 1.10078 1.38514 1.28016C1.20576 1.45954 1.10498 1.70284 1.10498 1.95652V9.6087H2.0615V12.4783H1.10498Z" fill="#C2F3FF"/>
<path d="M17.3956 9.05104V6.18148C17.3956 5.92781 17.2948 5.68456 17.1154 5.50522L12.8933 1.28026C12.7139 1.10087 12.4707 1.00005 12.217 1H2.09129C1.8376 1 1.59431 1.10078 1.41492 1.28016C1.23554 1.45954 1.13477 1.70284 1.13477 1.95652V9.6087H2.09129V12.4783H1.13477V22.0435C1.13477 22.2972 1.23554 22.5405 1.41492 22.7198C1.59431 22.8992 1.8376 23 2.09129 23H10.1806" stroke="#191919" stroke-linecap="round" stroke-linejoin="round"/>
<path d="M4.96045 3.86957V8.65218" stroke="#191919" stroke-linecap="round" stroke-linejoin="round"/>
<path d="M7.83008 3.86957V8.65218" stroke="#191919" stroke-linecap="round" stroke-linejoin="round"/>
<path d="M10.6997 3.86957V8.65218" stroke="#191919" stroke-linecap="round" stroke-linejoin="round"/>
<path d="M13.5693 5.78259V9.60868" stroke="#191919" stroke-linecap="round" stroke-linejoin="round"/>
<path d="M17.1266 21.5652C18.2682 21.5652 19.363 21.1117 20.1702 20.3045C20.9775 19.4973 21.431 18.4024 21.431 17.2609C21.431 16.1193 20.9775 15.0244 20.1702 14.2172C19.363 13.41 18.2682 12.9565 17.1266 12.9565C15.985 12.9565 14.8902 13.41 14.083 14.2172C13.2758 15.0244 12.8223 16.1193 12.8223 17.2609C12.8223 18.4024 13.2758 19.4973 14.083 20.3045C14.8902 21.1117 15.985 21.5652 17.1266 21.5652Z" fill="#E3E3E3"/>
<path d="M14.7638 18.2174H11.416V21.5652" stroke="#191919" stroke-linecap="round" stroke-linejoin="round"/>
<path d="M22.3365 19.3968C21.943 20.546 21.1687 21.5263 20.1419 22.1753C19.115 22.8243 17.8974 23.1031 16.6905 22.9655C15.4836 22.8279 14.3599 22.2821 13.5055 21.4186C12.6512 20.5551 12.1174 19.4257 11.9927 18.2174" stroke="#191919" stroke-linecap="round" stroke-linejoin="round"/>
<path d="M19.5469 16.3043H22.8947V12.9565" stroke="#191919" stroke-linecap="round" stroke-linejoin="round"/>
<path d="M11.9736 15.1249C12.3672 13.9757 13.1415 12.9955 14.1683 12.3464C15.1951 11.6974 16.4128 11.4187 17.6197 11.5563C18.8266 11.6939 19.9503 12.2396 20.8046 13.1031C21.659 13.9666 22.1927 15.096 22.3175 16.3043" stroke="#191919" stroke-linecap="round" stroke-linejoin="round"/>
</g>
<defs>
<clipPath id="clip0_5303_5589">
<rect width="24" height="24" fill="white"/>
</clipPath>
</defs>
</svg>
