<svg width="24" height="24" viewBox="0 0 24 24" fill="none" xmlns="http://www.w3.org/2000/svg">
<g clip-path="url(#clip0_5303_5532)">
<path d="M12.7595 1.28026C12.5801 1.10087 12.3369 1.00005 12.0832 1H1.9575C1.70381 1 1.46052 1.10078 1.28113 1.28016C1.10175 1.45954 1.00098 1.70283 1.00098 1.95652V9.60868H1.9575V12.4782H1.00098V22.0434C1.00098 22.2971 1.10175 22.5404 1.28113 22.7198C1.46052 22.8992 1.70381 23 1.9575 23H16.3053C16.559 23 16.8023 22.8992 16.9817 22.7198C17.161 22.5404 17.2618 22.2971 17.2618 22.0434V6.1786C17.2618 5.92493 17.1609 5.68168 16.9816 5.50234L12.7595 1.28026Z" fill="#66E1FF"/>
<path d="M1.00098 12.4782V21.326L16.9031 5.4239L12.7595 1.28026C12.5801 1.10087 12.3369 1.00005 12.0832 1H1.9575C1.70381 1 1.46052 1.10078 1.28113 1.28016C1.10175 1.45954 1.00098 1.70284 1.00098 1.95652V9.60868H1.9575V12.4782H1.00098Z" fill="#C2F3FF"/>
<path d="M17.2618 9.05103V6.18147C17.2618 5.9278 17.1609 5.68455 16.9816 5.50521L12.7604 1.28026C12.5811 1.10087 12.3378 1.00005 12.0842 1H1.9575C1.70381 1 1.46052 1.10078 1.28113 1.28016C1.10175 1.45954 1.00098 1.70283 1.00098 1.95652V9.60868H1.9575V12.4782H1.00098V22.0434C1.00098 22.2971 1.10175 22.5404 1.28113 22.7198C1.46052 22.8992 1.70381 23 1.9575 23H10.0477" stroke="#191919" stroke-linecap="round" stroke-linejoin="round"/>
<path d="M4.8291 3.86957V8.65217" stroke="#191919" stroke-linecap="round" stroke-linejoin="round"/>
<path d="M7.69824 3.86957V8.65217" stroke="#191919" stroke-linecap="round" stroke-linejoin="round"/>
<path d="M10.5679 3.86957V8.65217" stroke="#191919" stroke-linecap="round" stroke-linejoin="round"/>
<path d="M13.4375 5.78265V9.60873" stroke="#191919" stroke-linecap="round" stroke-linejoin="round"/>
<path d="M17.2601 23C18.7822 23 20.242 22.3954 21.3183 21.3191C22.3946 20.2428 22.9992 18.783 22.9992 17.2609C22.9992 15.7388 22.3946 14.279 21.3183 13.2027C20.242 12.1264 18.7822 11.5218 17.2601 11.5218C15.738 11.5218 14.2782 12.1264 13.2019 13.2027C12.1257 14.279 11.521 15.7388 11.521 17.2609C11.521 18.783 12.1257 20.2428 13.2019 21.3191C14.2782 22.3954 15.738 23 17.2601 23Z" fill="#78EB7B"/>
<path d="M13.2022 21.3193C12.6693 20.7864 12.2465 20.1538 11.958 19.4574C11.6695 18.7611 11.521 18.0148 11.521 17.2612C11.521 16.5075 11.6694 15.7611 11.9577 15.0648C12.2461 14.3685 12.6688 13.7357 13.2017 13.2028C13.7347 12.6698 14.3673 12.247 15.0636 11.9586C15.7599 11.6701 16.5062 11.5216 17.2599 11.5215C18.0136 11.5215 18.7599 11.6699 19.4563 11.9583C20.1526 12.2467 20.7853 12.6694 21.3183 13.2023L13.2022 21.3193Z" fill="#C9F7CA"/>
<path d="M17.2601 23C18.7822 23 20.242 22.3954 21.3183 21.3191C22.3946 20.2428 22.9992 18.783 22.9992 17.2609C22.9992 15.7388 22.3946 14.279 21.3183 13.2027C20.242 12.1264 18.7822 11.5218 17.2601 11.5218C15.738 11.5218 14.2782 12.1264 13.2019 13.2027C12.1257 14.279 11.521 15.7388 11.521 17.2609C11.521 18.783 12.1257 20.2428 13.2019 21.3191C14.2782 22.3954 15.738 23 17.2601 23Z" stroke="#191919" stroke-linecap="round" stroke-linejoin="round"/>
<path d="M17.2598 14.3913V20.1304" stroke="#191919" stroke-linecap="round" stroke-linejoin="round"/>
<path d="M17.2601 20.1304L15.1079 17.9783" stroke="#191919" stroke-linecap="round" stroke-linejoin="round"/>
<path d="M17.2598 20.1304L19.4119 17.9783" stroke="#191919" stroke-linecap="round" stroke-linejoin="round"/>
</g>
<defs>
<clipPath id="clip0_5303_5532">
<rect width="24" height="24" fill="white"/>
</clipPath>
</defs>
</svg>
