<svg width="24" height="24" viewBox="0 0 24 24" fill="none" xmlns="http://www.w3.org/2000/svg">
<path d="M18.5526 8.3652C18.5147 8.45037 18.4531 8.52279 18.375 8.57371C18.2969 8.62463 18.2057 8.65187 18.1126 8.65215H15.3483V15.3477H8.65264V8.65215H5.88831C5.79539 8.65059 5.7048 8.62283 5.62697 8.57207C5.54912 8.52131 5.4872 8.4496 5.44831 8.3652C5.41182 8.28147 5.40052 8.18893 5.41581 8.09889C5.4311 8.00885 5.47231 7.92522 5.53439 7.85824C7.03612 6.14608 10.5178 2.43479 11.6465 1.16263C11.69 1.11124 11.7442 1.07004 11.8054 1.04193C11.8665 1.01383 11.9331 0.999523 12.0004 1.00002C12.0691 0.999418 12.1372 1.01364 12.1999 1.0417C12.2626 1.06976 12.3186 1.111 12.3639 1.16263L18.4761 7.85824C18.5369 7.92606 18.5766 8.01019 18.5902 8.10027C18.6038 8.19035 18.5907 8.28245 18.5526 8.3652Z" fill="#E3E3E3"/>
<path d="M12.0004 15.3477V1.00001C11.9331 0.999521 11.8665 1.01383 11.8054 1.04193C11.7442 1.07003 11.69 1.11123 11.6465 1.16262C10.5178 2.43478 7.03612 6.14607 5.53439 7.85823C5.47231 7.92522 5.4311 8.00885 5.41581 8.09888C5.40052 8.18892 5.41182 8.28147 5.44831 8.36519C5.4872 8.44959 5.54912 8.5213 5.62697 8.57206C5.7048 8.62282 5.79539 8.65059 5.88831 8.65214H8.65264V15.3477H12.0004Z" fill="white"/>
<path d="M18.5526 8.3652C18.5147 8.45037 18.4531 8.52279 18.375 8.57371C18.2969 8.62463 18.2057 8.65187 18.1126 8.65215H15.3483V15.3477H8.65264V8.65215H5.88831C5.79539 8.65059 5.7048 8.62283 5.62697 8.57207C5.54912 8.52131 5.4872 8.4496 5.44831 8.3652C5.41182 8.28147 5.40052 8.18893 5.41581 8.09889C5.4311 8.00885 5.47231 7.92522 5.53439 7.85824C7.03612 6.14608 10.5178 2.43479 11.6465 1.16263C11.69 1.11124 11.7442 1.07004 11.8054 1.04193C11.8665 1.01383 11.9331 0.999523 12.0004 1.00002C12.0691 0.999418 12.1372 1.01364 12.1999 1.0417C12.2626 1.06976 12.3186 1.111 12.3639 1.16263L18.4761 7.85824C18.5369 7.92606 18.5766 8.01019 18.5902 8.10027C18.6038 8.19035 18.5907 8.28245 18.5526 8.3652Z" stroke="#191919" stroke-linecap="round" stroke-linejoin="round"/>
<path d="M8.65216 15.3477V17.2608C8.65216 17.7681 8.45061 18.2547 8.09184 18.6135C7.73308 18.9723 7.24649 19.1738 6.73913 19.1738C6.23176 19.1738 5.74517 18.9723 5.38641 18.6135C5.02764 18.2547 4.82609 17.7681 4.82609 17.2608V14.8695C4.82609 14.489 4.67492 14.124 4.40586 13.8549C4.13679 13.5858 3.77184 13.4347 3.39132 13.4347C3.0108 13.4347 2.64585 13.5858 2.37678 13.8549C2.10771 14.124 1.95654 14.489 1.95654 14.8695V16.7825" stroke="#191919" stroke-linecap="round" stroke-linejoin="round"/>
<path d="M15.3477 15.3477V17.2608C15.3477 17.7681 15.5492 18.2547 15.908 18.6135C16.2668 18.9723 16.7534 19.1738 17.2607 19.1738C17.768 19.1738 18.2546 18.9723 18.6134 18.6135C18.9722 18.2547 19.1737 17.7681 19.1737 17.2608V14.8695C19.1737 14.489 19.3249 14.124 19.5939 13.8549C19.863 13.5858 20.228 13.4347 20.6085 13.4347C20.989 13.4347 21.354 13.5858 21.6231 13.8549C21.8921 14.124 22.0433 14.489 22.0433 14.8695V16.7825" stroke="#191919" stroke-linecap="round" stroke-linejoin="round"/>
<path d="M10.5652 15.342V19.6464C10.5652 20.5343 10.2126 21.3858 9.58469 22.0136C8.95686 22.6415 8.10533 22.9942 7.21744 22.9942C6.79111 23.0201 6.36395 22.9593 5.96183 22.8153C5.55971 22.6713 5.191 22.4472 4.87801 22.1566C4.56502 21.866 4.31427 21.5148 4.14094 21.1245C3.96761 20.7341 3.87531 20.3126 3.86963 19.8855" stroke="#191919" stroke-linecap="round" stroke-linejoin="round"/>
<path d="M13.4346 15.342V19.6464C13.4346 20.5343 13.7872 21.3858 14.4151 22.0136C15.043 22.6415 15.8944 22.9942 16.7824 22.9942C17.2087 23.0201 17.6359 22.9593 18.038 22.8153C18.4401 22.6713 18.8089 22.4472 19.1218 22.1566C19.4348 21.866 19.6855 21.5148 19.8589 21.1245C20.0322 20.7341 20.1245 20.3126 20.1302 19.8855" stroke="#191919" stroke-linecap="round" stroke-linejoin="round"/>
<path d="M15.3476 8.64651L13.4346 5.29871" stroke="#191919" stroke-linecap="round" stroke-linejoin="round"/>
<path d="M10.5654 5.29871L8.65234 8.64651" stroke="#191919" stroke-linecap="round" stroke-linejoin="round"/>
</svg>
