<svg width="24" height="24" viewBox="0 0 24 24" fill="none" xmlns="http://www.w3.org/2000/svg">
<g clip-path="url(#clip0_5303_11248)">
<path d="M20.1305 16.3307V16.7802C20.1305 18.8846 18.4183 20.128 16.3044 20.128H7.69572C5.5818 20.128 3.86963 18.8846 3.86963 16.7802V16.3402C4.93453 15.2681 6.20087 14.4169 7.59586 13.8359C8.99083 13.2548 10.4869 12.9552 11.9981 12.9542C13.5093 12.9534 15.0056 13.2512 16.4013 13.8307C17.797 14.4101 19.0644 15.2597 20.1305 16.3307Z" fill="white"/>
<path d="M12 11.5192C13.7492 11.5168 15.4806 11.8711 17.0882 12.5606C18.6958 13.25 20.1459 14.26 21.35 15.529C21.4816 15.6675 21.6516 15.7634 21.8382 15.8043C22.0248 15.8454 22.2194 15.8296 22.3969 15.759C22.5744 15.6883 22.7268 15.5663 22.8342 15.4082C22.9417 15.2503 22.9995 15.0638 23 14.8728C23 11.9554 21.8411 9.15753 19.7781 7.09463C17.7153 5.03174 14.9174 3.8728 12 3.8728C9.08262 3.8728 6.28473 5.03174 4.22182 7.09463C2.15892 9.15753 1 11.9554 1 14.8728C1.00052 15.0638 1.05825 15.2503 1.16573 15.4082C1.27321 15.5663 1.42553 15.6883 1.60305 15.759C1.78058 15.8296 1.97517 15.8454 2.16177 15.8043C2.34837 15.7634 2.51842 15.6675 2.65 15.529C3.85404 14.26 5.30418 13.25 6.91181 12.5606C8.51945 11.8711 10.2508 11.5168 12 11.5192Z" fill="#FF808C"/>
<path d="M1.38739 15.6324C2.02219 13.3041 3.405 11.2493 5.32276 9.78438C7.24051 8.31951 9.58677 7.52592 12 7.52592C14.4132 7.52592 16.7595 8.31951 18.6773 9.78438C20.595 11.2493 21.9778 13.3041 22.6126 15.6324C22.7316 15.5443 22.8286 15.4297 22.8958 15.2978C22.9631 15.1658 22.9987 15.02 23 14.8719C23 11.9546 21.8411 9.15668 19.7781 7.09378C17.7153 5.03088 14.9174 3.87195 12 3.87195C9.08262 3.87195 6.28473 5.03088 4.22182 7.09378C2.15892 9.15668 1 11.9546 1 14.8719C1.0013 15.02 1.03696 15.1658 1.10419 15.2978C1.17141 15.4297 1.26836 15.5443 1.38739 15.6324Z" fill="#FFBFC5"/>
<path d="M12 11.5192C13.7492 11.5168 15.4806 11.8711 17.0882 12.5606C18.6958 13.25 20.1459 14.26 21.35 15.529C21.4816 15.6675 21.6516 15.7634 21.8382 15.8043C22.0248 15.8454 22.2194 15.8296 22.3969 15.759C22.5744 15.6883 22.7268 15.5663 22.8342 15.4082C22.9417 15.2503 22.9995 15.0638 23 14.8728C23 11.9554 21.8411 9.15753 19.7781 7.09463C17.7153 5.03174 14.9174 3.8728 12 3.8728C9.08262 3.8728 6.28473 5.03174 4.22182 7.09463C2.15892 9.15753 1 11.9554 1 14.8728C1.00052 15.0638 1.05825 15.2503 1.16573 15.4082C1.27321 15.5663 1.42553 15.6883 1.60305 15.759C1.78058 15.8296 1.97517 15.8454 2.16177 15.8043C2.34837 15.7634 2.51842 15.6675 2.65 15.529C3.85404 14.26 5.30418 13.25 6.91181 12.5606C8.51945 11.8711 10.2508 11.5168 12 11.5192Z" stroke="#191919" stroke-linecap="round" stroke-linejoin="round"/>
<path d="M4.64355 13.8199L9.15738 4.23645" stroke="#191919" stroke-linecap="round" stroke-linejoin="round"/>
<path d="M11.4604 11.5281L14.8905 4.24988" stroke="#191919" stroke-linecap="round" stroke-linejoin="round"/>
<path d="M16.7749 12.4319L19.4455 6.7616" stroke="#191919" stroke-linecap="round" stroke-linejoin="round"/>
<path d="M20.1305 16.3306V16.7802C20.1305 18.8845 18.4183 20.128 16.3044 20.128H7.69572C5.5818 20.128 3.86963 18.8845 3.86963 16.7802V16.3402" stroke="#191919" stroke-linecap="round" stroke-linejoin="round"/>
</g>
<defs>
<clipPath id="clip0_5303_11248">
<rect width="24" height="24" fill="white"/>
</clipPath>
</defs>
</svg>
