<svg width="24" height="24" viewBox="0 0 24 24" fill="none" xmlns="http://www.w3.org/2000/svg">
<path d="M12.0002 22.5416C17.8222 22.5416 22.5418 17.822 22.5418 12C22.5418 6.17798 17.8222 1.45831 12.0002 1.45831C6.17817 1.45831 1.4585 6.17798 1.4585 12C1.4585 17.822 6.17817 22.5416 12.0002 22.5416Z" fill="#66E1FF"/>
<path d="M4.5457 19.4543C2.56868 17.4774 1.45801 14.7959 1.45801 12C1.45801 9.20411 2.56868 6.52271 4.5457 4.5457C6.52271 2.56868 9.20411 1.45801 12 1.45801C14.7959 1.45801 17.4774 2.56868 19.4543 4.5457L4.5457 19.4543Z" fill="#C2F3FF"/>
<path d="M12.0002 22.5416C17.8222 22.5416 22.5418 17.822 22.5418 12C22.5418 6.17798 17.8222 1.45831 12.0002 1.45831C6.17817 1.45831 1.4585 6.17798 1.4585 12C1.4585 17.822 6.17817 22.5416 12.0002 22.5416Z" stroke="#191919" stroke-linecap="round" stroke-linejoin="round"/>
<path d="M11.2089 15.9178C13.8096 15.9178 15.9178 13.8096 15.9178 11.2089C15.9178 8.60825 13.8096 6.5 11.2089 6.5C8.60825 6.5 6.5 8.60825 6.5 11.2089C6.5 13.8096 8.60825 15.9178 11.2089 15.9178Z" fill="#E4F1F5"/>
<path d="M7.87973 14.5392C6.99662 13.6561 6.50049 12.4583 6.50049 11.2094C6.50049 9.96049 6.99662 8.76273 7.87973 7.87961C8.76285 6.99649 9.96061 6.50037 11.2095 6.50037C12.4584 6.50037 13.6562 6.99649 14.5393 7.87961L7.87973 14.5392Z" fill="white"/>
<path d="M11.2089 15.9178C13.8096 15.9178 15.9178 13.8096 15.9178 11.2089C15.9178 8.60825 13.8096 6.5 11.2089 6.5C8.60825 6.5 6.5 8.60825 6.5 11.2089C6.5 13.8096 8.60825 15.9178 11.2089 15.9178Z" stroke="#191919" stroke-linecap="round" stroke-linejoin="round"/>
<path d="M14.5381 14.5382L17.4998 17.5" stroke="#191919" stroke-linecap="round" stroke-linejoin="round"/>
</svg>
