<svg width="24" height="24" viewBox="0 0 24 24" fill="none" xmlns="http://www.w3.org/2000/svg">
<g clip-path="url(#clip0_5303_11318)">
<path d="M20.1234 14.0086C20.1376 13.939 20.1361 13.867 20.119 13.798C20.1019 13.729 20.0697 13.6646 20.0245 13.6097C19.9795 13.5547 19.9228 13.5105 19.8584 13.4802C19.7941 13.4499 19.7238 13.4344 19.6528 13.4347H1.4793C1.4083 13.4345 1.33815 13.4502 1.27394 13.4805C1.20974 13.5108 1.1531 13.5551 1.10813 13.61C1.06316 13.665 1.03099 13.7293 1.01396 13.7983C0.996931 13.8671 0.995462 13.9391 1.00966 14.0086C1.29764 15.5001 1.96965 16.8906 2.95933 18.043C3.94901 19.1954 5.22212 20.0697 6.653 20.5797C6.71472 20.6017 6.77126 20.6362 6.81912 20.6808C6.86698 20.7256 6.90515 20.7796 6.93125 20.8397C6.95734 20.8999 6.97082 20.9646 6.97084 21.0301C6.97085 21.0957 6.95741 21.1605 6.93134 21.2206C6.7528 21.631 6.66034 22.0738 6.65969 22.5214C6.65969 22.6483 6.71008 22.7699 6.79977 22.8596C6.88946 22.9493 7.01111 22.9997 7.13794 22.9997H13.996C14.1229 22.9997 14.2445 22.9493 14.3342 22.8596C14.4239 22.7699 14.4743 22.6483 14.4743 22.5214C14.4741 22.0722 14.3817 21.6278 14.2026 21.2158C14.1762 21.1556 14.1626 21.0906 14.1625 21.0249C14.1623 20.9592 14.1757 20.8941 14.2018 20.8338C14.2279 20.7735 14.2661 20.7192 14.3143 20.6743C14.3623 20.6295 14.419 20.5949 14.481 20.573C15.9109 20.0637 17.1834 19.1903 18.1729 18.0392C19.1623 16.888 19.8346 15.4988 20.1234 14.0086Z" fill="#FF808C"/>
<path d="M20.1234 14.0086C20.1376 13.939 20.1361 13.867 20.119 13.798C20.1019 13.729 20.0697 13.6646 20.0245 13.6097C19.9795 13.5547 19.9228 13.5105 19.8584 13.4802C19.7941 13.4499 19.7238 13.4344 19.6528 13.4347H1.4793C1.4083 13.4345 1.33815 13.4502 1.27394 13.4805C1.20974 13.5108 1.1531 13.5551 1.10813 13.61C1.06316 13.665 1.03099 13.7293 1.01396 13.7983C0.996931 13.8671 0.995462 13.9391 1.00966 14.0086C1.29764 15.5001 1.96965 16.8906 2.95933 18.043C3.94901 19.1954 5.22212 20.0697 6.653 20.5797C6.71472 20.6017 6.77126 20.6362 6.81912 20.6808C6.86698 20.7256 6.90515 20.7796 6.93125 20.8397C6.95734 20.8999 6.97082 20.9646 6.97084 21.0301C6.97085 21.0957 6.95741 21.1605 6.93134 21.2206C6.7528 21.631 6.66034 22.0738 6.65969 22.5214C6.65969 22.6483 6.71008 22.7699 6.79977 22.8596C6.88946 22.9493 7.01111 22.9997 7.13794 22.9997H13.996C14.1229 22.9997 14.2445 22.9493 14.3342 22.8596C14.4239 22.7699 14.4743 22.6483 14.4743 22.5214C14.4741 22.0722 14.3817 21.6278 14.2026 21.2158C14.1762 21.1556 14.1626 21.0906 14.1625 21.0249C14.1623 20.9592 14.1757 20.8941 14.2018 20.8338C14.2279 20.7735 14.2661 20.7192 14.3143 20.6743C14.3623 20.6295 14.419 20.5949 14.481 20.573C15.9109 20.0637 17.1834 19.1903 18.1729 18.0392C19.1623 16.888 19.8346 15.4988 20.1234 14.0086Z" fill="#FFBFC5"/>
<path d="M20.0248 13.6088C19.9797 13.554 19.9228 13.5099 19.8584 13.4798C19.7941 13.4496 19.7238 13.4342 19.6528 13.4347H19.5026C18.4648 16.5911 14.8521 18.9307 10.5421 18.9307C6.23214 18.9307 2.61944 16.5911 1.58164 13.4347H1.4793C1.4083 13.4345 1.33815 13.4502 1.27394 13.4805C1.20974 13.5108 1.1531 13.5551 1.10813 13.61C1.06316 13.665 1.03099 13.7293 1.01396 13.7983C0.996931 13.8671 0.995462 13.9391 1.00966 14.0086C1.29728 15.5003 1.96916 16.891 2.95889 18.0434C3.94861 19.1959 5.22193 20.0701 6.65299 20.5797C6.71472 20.6017 6.77126 20.6362 6.81912 20.6808C6.86698 20.7256 6.90515 20.7796 6.93125 20.8398C6.95734 20.8999 6.97082 20.9646 6.97084 21.0302C6.97085 21.0957 6.95741 21.1605 6.93134 21.2206C6.7528 21.631 6.66034 22.0738 6.65969 22.5214C6.65969 22.6483 6.71008 22.7699 6.79977 22.8596C6.88946 22.9493 7.01111 22.9997 7.13794 22.9997H13.996C14.1229 22.9997 14.2445 22.9493 14.3342 22.8596C14.4239 22.7699 14.4743 22.6483 14.4743 22.5214C14.4741 22.0723 14.3817 21.6278 14.2026 21.2158C14.1762 21.1556 14.1626 21.0906 14.1625 21.0249C14.1623 20.9592 14.1757 20.8941 14.2018 20.8338C14.2279 20.7735 14.2661 20.7192 14.3143 20.6743C14.3623 20.6295 14.419 20.5949 14.481 20.573C15.9111 20.0638 17.1837 19.1905 18.1734 18.0394C19.163 16.8882 19.8354 15.4989 20.1243 14.0086C20.1386 13.9388 20.137 13.8667 20.1198 13.7974C20.1026 13.7283 20.0702 13.6638 20.0248 13.6088Z" fill="#FF808C"/>
<path d="M20.1234 14.0086C20.1376 13.939 20.1361 13.867 20.119 13.798C20.1019 13.729 20.0697 13.6646 20.0245 13.6097C19.9795 13.5547 19.9228 13.5105 19.8584 13.4802C19.7941 13.4499 19.7238 13.4344 19.6528 13.4347H1.4793C1.4083 13.4345 1.33815 13.4502 1.27394 13.4805C1.20974 13.5108 1.1531 13.5551 1.10813 13.61C1.06316 13.665 1.03099 13.7293 1.01396 13.7983C0.996931 13.8671 0.995462 13.9391 1.00966 14.0086C1.29764 15.5001 1.96965 16.8906 2.95933 18.043C3.94901 19.1954 5.22212 20.0697 6.653 20.5797C6.71472 20.6017 6.77126 20.6362 6.81912 20.6808C6.86698 20.7256 6.90515 20.7796 6.93125 20.8397C6.95734 20.8999 6.97082 20.9646 6.97084 21.0301C6.97085 21.0957 6.95741 21.1605 6.93134 21.2206C6.7528 21.631 6.66034 22.0738 6.65969 22.5214C6.65969 22.6483 6.71008 22.7699 6.79977 22.8596C6.88946 22.9493 7.01111 22.9997 7.13794 22.9997H13.996C14.1229 22.9997 14.2445 22.9493 14.3342 22.8596C14.4239 22.7699 14.4743 22.6483 14.4743 22.5214C14.4741 22.0722 14.3817 21.6278 14.2026 21.2158C14.1762 21.1556 14.1626 21.0906 14.1625 21.0249C14.1623 20.9592 14.1757 20.8941 14.2018 20.8338C14.2279 20.7735 14.2661 20.7192 14.3143 20.6743C14.3623 20.6295 14.419 20.5949 14.481 20.573C15.9109 20.0637 17.1834 19.1903 18.1729 18.0392C19.1623 16.888 19.8346 15.4988 20.1234 14.0086Z" stroke="#191919" stroke-linecap="round" stroke-linejoin="round"/>
<path d="M22.9149 5.0443C22.9667 5.15884 22.9955 5.28248 22.9996 5.40814C23.0036 5.53381 22.9827 5.65903 22.9383 5.77665C22.894 5.89427 22.8267 6.00199 22.7406 6.09363C22.6545 6.18526 22.5512 6.25902 22.4367 6.3107L16.9942 8.78229C16.9085 8.8214 16.8159 8.84321 16.7218 8.84649C16.6276 8.84977 16.5337 8.83445 16.4454 8.8014C16.3573 8.76835 16.2764 8.71822 16.2076 8.65388C16.1388 8.58955 16.0833 8.51227 16.0444 8.42648L14.2643 4.50484C14.2252 4.41913 14.2034 4.32654 14.2002 4.23239C14.1968 4.13823 14.2122 4.04435 14.2452 3.95613C14.2783 3.8679 14.3284 3.78707 14.3927 3.71824C14.4571 3.64941 14.5344 3.59395 14.6202 3.55503L20.0665 1.08536C20.1809 1.03351 20.3046 1.00475 20.4303 1.00073C20.556 0.996715 20.6812 1.01751 20.7988 1.06193C20.9164 1.10634 21.0241 1.17352 21.1157 1.2596C21.2074 1.34568 21.2812 1.44899 21.3329 1.56361L22.9149 5.0443Z" fill="#FFEF5E" stroke="#191919" stroke-linecap="round" stroke-linejoin="round"/>
<path d="M10.2593 7.09601L11.4664 6.31934" stroke="#191919" stroke-linecap="round" stroke-linejoin="round"/>
<path d="M12.1724 10.922L12.9012 10.1453" stroke="#191919" stroke-linecap="round" stroke-linejoin="round"/>
<path d="M10.0322 9.66707L11.0528 8.7804" stroke="#191919" stroke-linecap="round" stroke-linejoin="round"/>
</g>
<defs>
<clipPath id="clip0_5303_11318">
<rect width="24" height="24" fill="white"/>
</clipPath>
</defs>
</svg>
