<svg width="24" height="24" viewBox="0 0 24 24" fill="none" xmlns="http://www.w3.org/2000/svg">
<g clip-path="url(#clip0_5303_5881)">
<path d="M11.5218 13.4449H2.91544C1.95348 13.4449 1.00293 12.9725 1.00293 12.0105L1.86358 2.44787C1.85246 2.24583 1.8873 2.04389 1.96548 1.85718C2.04366 1.67057 2.16312 1.50406 2.3149 1.37024C2.45456 1.23087 2.62478 1.12614 2.81208 1.06416C2.99928 1.00228 3.19849 0.984912 3.39359 1.01351H17.7375C17.9325 0.98501 18.1315 1.00238 18.3185 1.06426C18.5057 1.12624 18.6757 1.23097 18.8152 1.37024C18.9672 1.50396 19.0869 1.67037 19.1652 1.85708C19.2436 2.0438 19.2785 2.24573 19.2676 2.44787L20.1281 12.0105C20.1281 12.9725 19.1777 13.4449 18.2156 13.4449" fill="#66E1FF"/>
<path d="M3.39359 1.01354C3.19849 0.984751 2.99928 1.00202 2.81198 1.0639C2.62468 1.12588 2.45447 1.2308 2.3149 1.37028C2.16312 1.50409 2.04366 1.6706 1.96548 1.85731C1.8873 2.04393 1.85246 2.24586 1.86358 2.448L1.00293 12.0106C1.00605 12.2826 1.09282 12.5471 1.25133 12.768C1.40993 12.9891 1.63276 13.156 1.88945 13.2461L14.1209 1.01354H3.39359Z" fill="#C2F3FF"/>
<path d="M11.5218 13.4449H2.91544C1.95348 13.4449 1.00293 12.9725 1.00293 12.0105L1.86358 2.44787C1.85246 2.24583 1.8873 2.04389 1.96548 1.85718C2.04366 1.67057 2.16312 1.50406 2.3149 1.37024C2.45456 1.23087 2.62478 1.12614 2.81208 1.06416C2.99928 1.00228 3.19849 0.984912 3.39359 1.01351H17.7375C17.9325 0.98501 18.1315 1.00238 18.3185 1.06426C18.5057 1.12624 18.6757 1.23097 18.8152 1.37024C18.9672 1.50396 19.0869 1.67037 19.1652 1.85708C19.2436 2.0438 19.2785 2.24573 19.2676 2.44787L20.1281 12.0105C20.1281 12.9725 19.1777 13.4449 18.2156 13.4449" stroke="#191919" stroke-linecap="round" stroke-linejoin="round"/>
<path d="M16.3213 21.0874H1.48108C1.3543 21.0874 1.23268 21.0371 1.14299 20.9475C1.05329 20.8578 1.00293 20.7361 1.00293 20.6093V16.7842C1.00293 16.6575 1.05329 16.5358 1.14299 16.4462C1.23268 16.3566 1.3543 16.3061 1.48108 16.3061H16.3213V21.0874Z" fill="#B2B2B2"/>
<path d="M1.48108 16.3061C1.3543 16.3061 1.23268 16.3566 1.14299 16.4462C1.05329 16.5358 1.00293 16.6575 1.00293 16.7842V19.6531C1.00293 19.5263 1.05329 19.4046 1.14299 19.3149C1.23268 19.2253 1.3543 19.1749 1.48108 19.1749H16.3213V16.3061H1.48108Z" fill="#E3E3E3"/>
<path d="M7.21861 21.0874H1.48108C1.3543 21.0874 1.23268 21.0371 1.14299 20.9475C1.05329 20.8578 1.00293 20.7361 1.00293 20.6093V16.7842C1.00293 16.6575 1.05329 16.5358 1.14299 16.4462C1.23268 16.3566 1.3543 16.3061 1.48108 16.3061H11.5218" stroke="#191919" stroke-linecap="round" stroke-linejoin="round"/>
<path d="M3.39355 19.175H7.21858" stroke="#191919" stroke-linecap="round" stroke-linejoin="round"/>
<path d="M10.5659 13.4374V16.3062" stroke="#191919" stroke-linecap="round" stroke-linejoin="round"/>
<path d="M11.5219 23L9.32254 20.573C9.10518 20.2788 9.00856 19.9127 9.05228 19.5495C9.09601 19.1863 9.27677 18.8536 9.55776 18.6193C9.83866 18.385 10.1984 18.2669 10.5636 18.2892C10.9287 18.3114 11.2715 18.4723 11.5219 18.7389L13.4344 20.9259V13.4374C13.4344 13.057 13.5855 12.6921 13.8545 12.4231C14.1235 12.1541 14.4884 12.003 14.8689 12.003C15.2492 12.003 15.6142 12.1541 15.8832 12.4231C16.1521 12.6921 16.3032 13.057 16.3032 13.4374V17.7406H19.172C20.1865 17.7406 21.1594 18.1435 21.8767 18.8609C22.5941 19.5783 22.9971 20.5512 22.9971 21.5656V23" fill="#FFDDA1"/>
<path d="M11.5219 23L9.32254 20.573C9.10518 20.2788 9.00856 19.9127 9.05228 19.5495C9.09601 19.1863 9.27677 18.8536 9.55776 18.6193C9.83866 18.385 10.1984 18.2669 10.5636 18.2892C10.9287 18.3114 11.2715 18.4723 11.5219 18.7389L13.4344 20.9259V13.4374C13.4344 13.057 13.5855 12.6921 13.8545 12.4231C14.1235 12.1541 14.4884 12.003 14.8689 12.003C15.2492 12.003 15.6142 12.1541 15.8832 12.4231C16.1521 12.6921 16.3032 13.057 16.3032 13.4374V17.7406H19.172C20.1865 17.7406 21.1594 18.1435 21.8767 18.8609C22.5941 19.5783 22.9971 20.5512 22.9971 21.5656V23" stroke="#191919" stroke-linecap="round" stroke-linejoin="round"/>
<path d="M3.87207 3.87469H5.78458V5.78721H3.87207V3.87469Z" fill="#78EB7B" stroke="#191919" stroke-linecap="round" stroke-linejoin="round"/>
<path d="M7.69678 3.87469H9.60929V5.78721H7.69678V3.87469Z" fill="#FFEF5E" stroke="#191919" stroke-linecap="round" stroke-linejoin="round"/>
<path d="M3.87207 7.69977H5.78458V9.61228H3.87207V7.69977Z" fill="#FFEF5E" stroke="#191919" stroke-linecap="round" stroke-linejoin="round"/>
<path d="M7.69678 7.69977H9.60929V9.61228H7.69678V7.69977Z" fill="#78EB7B" stroke="#191919" stroke-linecap="round" stroke-linejoin="round"/>
<path d="M15.3467 8.65613V9.61233" stroke="#191919" stroke-linecap="round" stroke-linejoin="round"/>
<path d="M15.3467 3.87469V4.831" stroke="#191919" stroke-linecap="round" stroke-linejoin="round"/>
<path d="M13.4341 8.65614H16.3029C16.5565 8.65614 16.7998 8.55541 16.9791 8.37602C17.1584 8.19673 17.2592 7.9535 17.2592 7.69983C17.2592 7.44617 17.1584 7.20304 16.9791 7.02365C16.7998 6.84435 16.5565 6.74363 16.3029 6.74363H14.3904C14.1368 6.74363 13.8935 6.6428 13.7142 6.46351C13.5349 6.28421 13.4341 6.04099 13.4341 5.78732C13.4341 5.53365 13.5349 5.29053 13.7142 5.11114C13.8935 4.93184 14.1368 4.83112 14.3904 4.83112H17.2592" stroke="#191919" stroke-linecap="round" stroke-linejoin="round"/>
</g>
<defs>
<clipPath id="clip0_5303_5881">
<rect width="24" height="24" fill="white"/>
</clipPath>
</defs>
</svg>
