<svg width="24" height="24" viewBox="0 0 24 24" fill="none" xmlns="http://www.w3.org/2000/svg">
<g clip-path="url(#clip0_5303_9235)">
<path d="M6.26064 3.39128L2.86212 1.69249C2.71632 1.61964 2.55433 1.58525 2.39151 1.59258C2.22869 1.59992 2.07045 1.64873 1.9318 1.7344C1.79314 1.82006 1.67868 1.93973 1.59926 2.08206C1.51985 2.22439 1.47811 2.38464 1.47803 2.54763V3.22198C1.47815 3.41311 1.53553 3.59983 1.64277 3.75804C1.75001 3.91626 1.90219 4.03872 2.07968 4.10963L3.86934 4.82607L3.27629 5.22207C3.16801 5.29417 3.07558 5.3876 3.00464 5.49665C2.93371 5.60569 2.88576 5.72807 2.86374 5.85628C2.84171 5.98449 2.84607 6.11584 2.87655 6.24231C2.90702 6.36878 2.96298 6.4877 3.04099 6.59181L3.58238 7.31303C3.67148 7.43182 3.78701 7.52824 3.91983 7.59465C4.05265 7.66106 4.1991 7.69564 4.3476 7.69564L6.26064 7.17146V3.39128Z" fill="#C2F3FF"/>
<path d="M17.7393 3.39128L21.1378 1.69249C21.2836 1.61964 21.4456 1.58525 21.6084 1.59258C21.7712 1.59992 21.9295 1.64873 22.0681 1.7344C22.2068 1.82006 22.3212 1.93973 22.4006 2.08206C22.4801 2.22439 22.5218 2.38464 22.5219 2.54763V3.22198C22.5218 3.41311 22.4644 3.59983 22.3571 3.75804C22.2499 3.91626 22.0977 4.03872 21.9202 4.10963L20.1306 4.82607L20.7236 5.22207C20.8319 5.29417 20.9243 5.3876 20.9953 5.49665C21.0662 5.60569 21.1141 5.72807 21.1362 5.85628C21.1582 5.98449 21.1538 6.11584 21.1234 6.24231C21.0929 6.36878 21.0369 6.4877 20.9589 6.59181L20.4175 7.31303C20.3284 7.43182 20.2129 7.52824 20.0801 7.59465C19.9473 7.66106 19.8008 7.69564 19.6523 7.69564L17.7393 7.17146V3.39128Z" fill="#C2F3FF"/>
<path d="M16.7825 1H7.21727C6.96358 1 6.72028 1.10078 6.5409 1.28016C6.36152 1.45954 6.26074 1.70284 6.26074 1.95652V8.65219C6.26074 8.7778 6.28548 8.90218 6.33355 9.01823C6.38162 9.13428 6.45208 9.23973 6.5409 9.32855C6.62972 9.41737 6.73517 9.48783 6.85122 9.5359C6.96727 9.58397 7.09165 9.60871 7.21727 9.60871H16.7825C16.9081 9.60871 17.0325 9.58397 17.1485 9.5359C17.2646 9.48783 17.37 9.41737 17.4589 9.32855C17.5477 9.23973 17.6181 9.13428 17.6662 9.01823C17.7143 8.90218 17.739 8.7778 17.739 8.65219V1.95652C17.739 1.70284 17.6382 1.45954 17.4589 1.28016C17.2795 1.10078 17.0362 1 16.7825 1Z" fill="#E3E3E3"/>
<path d="M7.21727 1C6.96358 1 6.72028 1.10078 6.5409 1.28016C6.36152 1.45954 6.26074 1.70284 6.26074 1.95652V8.65219C6.26074 8.7778 6.28548 8.90218 6.33355 9.01823C6.38162 9.13428 6.45208 9.23973 6.5409 9.32855C6.62972 9.41737 6.73517 9.48783 6.85122 9.5359C6.96727 9.58397 7.09165 9.60871 7.21727 9.60871H8.00735L16.6161 1H7.21727Z" fill="white"/>
<path d="M16.7825 1H7.21727C6.96358 1 6.72028 1.10078 6.5409 1.28016C6.36152 1.45954 6.26074 1.70284 6.26074 1.95652V8.65219C6.26074 8.7778 6.28548 8.90218 6.33355 9.01823C6.38162 9.13428 6.45208 9.23973 6.5409 9.32855C6.62972 9.41737 6.73517 9.48783 6.85122 9.5359C6.96727 9.58397 7.09165 9.60871 7.21727 9.60871H16.7825C16.9081 9.60871 17.0325 9.58397 17.1485 9.5359C17.2646 9.48783 17.37 9.41737 17.4589 9.32855C17.5477 9.23973 17.6181 9.13428 17.6662 9.01823C17.7143 8.90218 17.739 8.7778 17.739 8.65219V1.95652C17.739 1.70284 17.6382 1.45954 17.4589 1.28016C17.2795 1.10078 17.0362 1 16.7825 1Z" stroke="#191919" stroke-linecap="round" stroke-linejoin="round"/>
<path d="M6.58252 1.24105L11.4264 4.87392C11.5919 4.9981 11.7933 5.06523 12.0003 5.06523C12.2072 5.06523 12.4086 4.9981 12.5742 4.87392L17.418 1.23914" stroke="#191919" stroke-linecap="round" stroke-linejoin="round"/>
<path d="M12 14.3913V23" stroke="#191919" stroke-linecap="round" stroke-linejoin="round"/>
<path d="M9.13037 12.4783V19.1739" stroke="#191919" stroke-linecap="round" stroke-linejoin="round"/>
<path d="M14.8696 12.4783V19.1739" stroke="#191919" stroke-linecap="round" stroke-linejoin="round"/>
<path d="M17.7393 3.39128L21.1378 1.69249C21.2836 1.61964 21.4456 1.58525 21.6084 1.59258C21.7712 1.59992 21.9295 1.64873 22.0681 1.7344C22.2068 1.82006 22.3212 1.93973 22.4006 2.08206C22.4801 2.22439 22.5218 2.38464 22.5219 2.54763V3.22198C22.5218 3.41311 22.4644 3.59983 22.3571 3.75804C22.2499 3.91626 22.0977 4.03872 21.9202 4.10963L20.1306 4.82607L20.7236 5.22207C20.8319 5.29417 20.9243 5.3876 20.9953 5.49665C21.0662 5.60569 21.1141 5.72807 21.1362 5.85628C21.1582 5.98449 21.1538 6.11584 21.1234 6.24231C21.0929 6.36878 21.0369 6.4877 20.9589 6.59181L20.4175 7.31303C20.3284 7.43182 20.2129 7.52824 20.0801 7.59465C19.9473 7.66106 19.8008 7.69564 19.6523 7.69564" stroke="#191919" stroke-linecap="round" stroke-linejoin="round"/>
<path d="M6.26064 3.39128L2.86212 1.69249C2.71632 1.61964 2.55433 1.58525 2.39151 1.59258C2.22869 1.59992 2.07045 1.64873 1.9318 1.7344C1.79314 1.82006 1.67868 1.93973 1.59926 2.08206C1.51985 2.22439 1.47811 2.38464 1.47803 2.54763V3.22198C1.47815 3.41311 1.53553 3.59983 1.64277 3.75804C1.75001 3.91626 1.90219 4.03872 2.07968 4.10963L3.86934 4.82607L3.27629 5.22207C3.16801 5.29417 3.07558 5.3876 3.00464 5.49665C2.93371 5.60569 2.88576 5.72807 2.86374 5.85628C2.84171 5.98449 2.84607 6.11584 2.87655 6.24231C2.90702 6.36878 2.96298 6.4877 3.04099 6.59181L3.58238 7.31303C3.67148 7.43182 3.78701 7.52824 3.91983 7.59465C4.05265 7.66106 4.1991 7.69564 4.3476 7.69564" stroke="#191919" stroke-linecap="round" stroke-linejoin="round"/>
</g>
<defs>
<clipPath id="clip0_5303_9235">
<rect width="24" height="24" fill="white"/>
</clipPath>
</defs>
</svg>
