<svg width="24" height="24" viewBox="0 0 24 24" fill="none" xmlns="http://www.w3.org/2000/svg">
<g clip-path="url(#clip0_5303_9155)">
<path d="M20.9919 16.9742C20.9478 17.1901 20.8306 17.3842 20.66 17.5236C20.4893 17.663 20.2758 17.7393 20.0554 17.7394H6.22241C6.08063 17.7393 5.94065 17.7077 5.81259 17.6468C5.68453 17.586 5.5716 17.4974 5.48198 17.3876C5.39235 17.2777 5.32826 17.1493 5.29436 17.0116C5.26045 16.874 5.25757 16.7305 5.28593 16.5916L7.27847 7.02582C7.32254 6.80992 7.4398 6.61585 7.61043 6.47641C7.78106 6.33698 7.9946 6.26073 8.21496 6.26056H22.0441C22.1859 6.26067 22.3259 6.2923 22.454 6.35316C22.582 6.41401 22.695 6.50258 22.7846 6.61244C22.8742 6.7223 22.9383 6.85071 22.9722 6.98838C23.0061 7.12605 23.009 7.26953 22.9806 7.40845L20.9919 16.9742Z" fill="#E3E3E3"/>
<path d="M8.21496 6.26056C7.9946 6.26073 7.78106 6.33698 7.61043 6.47641C7.4398 6.61585 7.32254 6.80992 7.27847 7.02582L5.28593 16.5916C5.25757 16.7305 5.26045 16.874 5.29436 17.0116C5.32826 17.1493 5.39235 17.2777 5.48198 17.3876C5.5716 17.4974 5.68453 17.586 5.81259 17.6468C5.94065 17.7077 6.08063 17.7393 6.22241 17.7394H6.86045L18.3393 6.26056H8.21496Z" fill="white"/>
<path d="M20.9919 16.9742C20.9478 17.1901 20.8306 17.3842 20.66 17.5236C20.4893 17.663 20.2758 17.7393 20.0554 17.7394H6.22241C6.08063 17.7393 5.94065 17.7077 5.81259 17.6468C5.68453 17.586 5.5716 17.4974 5.48198 17.3876C5.39235 17.2777 5.32826 17.1493 5.29436 17.0116C5.26045 16.874 5.25757 16.7305 5.28593 16.5916L7.27847 7.02582C7.32254 6.80992 7.4398 6.61585 7.61043 6.47641C7.78106 6.33698 7.9946 6.26073 8.21496 6.26056H22.0441C22.1859 6.26067 22.3259 6.2923 22.454 6.35316C22.582 6.41401 22.695 6.50258 22.7846 6.61244C22.8742 6.7223 22.9383 6.85071 22.9722 6.98838C23.0061 7.12605 23.009 7.26953 22.9806 7.40845L20.9919 16.9742Z" stroke="#191919" stroke-linecap="round" stroke-linejoin="round"/>
<path d="M7.62598 6.46338L12.5208 11.735C12.8352 12.0736 13.2615 12.2869 13.7209 12.3356C14.1803 12.3843 14.6419 12.2651 15.0203 12L22.7638 6.58008" stroke="#191919" stroke-linecap="round" stroke-linejoin="round"/>
<path d="M1 7.2171H4.8263" stroke="#191919" stroke-linecap="round" stroke-linejoin="round"/>
<path d="M1 10.0868H3.86972" stroke="#191919" stroke-linecap="round" stroke-linejoin="round"/>
<path d="M1 12.9565H2.91315" stroke="#191919" stroke-linecap="round" stroke-linejoin="round"/>
</g>
<defs>
<clipPath id="clip0_5303_9155">
<rect width="24" height="24" fill="white"/>
</clipPath>
</defs>
</svg>
