<svg width="24" height="24" viewBox="0 0 24 24" fill="none" xmlns="http://www.w3.org/2000/svg">
<g clip-path="url(#clip0_5303_8376)">
<path d="M9.13621 17.2881C13.6297 17.2881 17.2723 13.6454 17.2723 9.15186C17.2723 4.65847 13.6297 1.01575 9.13621 1.01575C4.64272 1.01575 1 4.65847 1 9.15186C1 13.6454 4.64272 17.2881 9.13621 17.2881Z" fill="#66E1FF"/>
<path d="M10.7673 6.96062L13.2444 9.43383C13.4237 9.61288 13.6667 9.71342 13.9201 9.71342C14.1734 9.71342 14.4165 9.61288 14.5958 9.43383L16.9868 7.04288C16.6781 5.89417 16.1213 4.82725 15.3552 3.91727C14.5893 3.00729 13.633 2.27646 12.5538 1.7764C11.4746 1.27635 10.2989 1.01915 9.10945 1.02299C7.92007 1.02683 6.74596 1.29162 5.67004 1.7987C4.59413 2.30579 3.64264 3.0428 2.88258 3.95765C2.12251 4.8726 1.57252 5.94308 1.27138 7.09376C0.970142 8.24445 0.925074 9.44713 1.13936 10.617C1.35364 11.787 1.82212 12.8957 2.51154 13.8649L9.41874 6.96062C9.59798 6.78241 9.84037 6.68243 10.0931 6.68243C10.3457 6.68243 10.5881 6.78241 10.7673 6.96062Z" fill="#C2F3FF"/>
<path d="M1.49627 11.9397C0.814072 10.0759 0.837309 8.02685 1.56158 6.17897C2.28576 4.33109 3.66103 2.812 5.42796 1.90811C7.19488 1.00413 9.23137 0.777849 11.1537 1.27182C13.076 1.76578 14.7512 2.94589 15.8635 4.5897" stroke="#191919" stroke-linecap="round" stroke-linejoin="round"/>
<path d="M14.8823 14.9027L17.1136 17.1331" stroke="#191919" stroke-linecap="round" stroke-linejoin="round"/>
<path d="M22.5217 20.5177C22.6588 20.65 22.768 20.8084 22.8433 20.9834C22.9185 21.1584 22.9579 21.3467 22.9597 21.5371C22.9613 21.7276 22.9251 21.9165 22.8528 22.0929C22.7808 22.2692 22.6742 22.4294 22.5395 22.564C22.4049 22.6988 22.2446 22.8052 22.0683 22.8774C21.8921 22.9495 21.7032 22.9858 21.5126 22.9842C21.3221 22.9826 21.1339 22.9429 20.9588 22.8678C20.7838 22.7926 20.6256 22.6833 20.4932 22.5462L16.7737 18.8268C16.5944 18.6474 16.4937 18.4042 16.4937 18.1506C16.4937 17.897 16.5944 17.6538 16.7737 17.4744L17.4499 16.7982C17.6292 16.619 17.8724 16.5182 18.126 16.5182C18.3797 16.5182 18.6229 16.619 18.8022 16.7982L22.5217 20.5177Z" fill="#C77F67" stroke="#191919" stroke-linecap="round" stroke-linejoin="round"/>
<path d="M1.00244 15.3713L9.4188 6.96156C9.59814 6.78232 9.84137 6.68159 10.095 6.68159C10.3486 6.68159 10.5919 6.78232 10.7712 6.96156L13.2444 9.43486C13.4238 9.61419 13.667 9.71492 13.9206 9.71492C14.1743 9.71492 14.4175 9.61419 14.5968 9.43486L22.9998 1.02515" stroke="#191919" stroke-linecap="round" stroke-linejoin="round"/>
<path d="M20.1304 1.02515H22.9995V3.89441" stroke="#191919" stroke-linecap="round" stroke-linejoin="round"/>
<path d="M17.2502 9.65198C17.159 11.1521 16.6538 12.5977 15.7907 13.828C14.9276 15.0583 13.7402 16.0254 12.3607 16.6216C10.981 17.2179 9.46319 17.4199 7.97558 17.2054C6.48806 16.9909 5.08908 16.3683 3.93408 15.4067" stroke="#191919" stroke-linecap="round" stroke-linejoin="round"/>
</g>
<defs>
<clipPath id="clip0_5303_8376">
<rect width="24" height="24" fill="white"/>
</clipPath>
</defs>
</svg>
