<svg width="24" height="24" viewBox="0 0 24 24" fill="none" xmlns="http://www.w3.org/2000/svg">
<g clip-path="url(#clip0_5303_6484)">
<path d="M9.60867 21.0864C9.60867 21.3376 9.55918 21.5864 9.46305 21.8185C9.36691 22.0506 9.22599 22.2615 9.04835 22.4391C8.87071 22.6167 8.65982 22.7577 8.42772 22.8538C8.19562 22.9499 7.94685 22.9994 7.69563 22.9994H2.91304C2.66181 22.9994 2.41305 22.9499 2.18095 22.8538C1.94885 22.7577 1.73796 22.6167 1.56032 22.4391C1.38267 22.2615 1.24176 22.0506 1.14562 21.8185C1.04948 21.5864 1 21.3376 1 21.0864C1 20.8352 1.04948 20.5864 1.14562 20.3543C1.24176 20.1222 1.38267 19.9113 1.56032 19.7337C1.73796 19.556 1.94885 19.4151 2.18095 19.319C2.41305 19.2228 2.66181 19.1733 2.91304 19.1733H7.69563C7.94685 19.1733 8.19562 19.2228 8.42772 19.319C8.65982 19.4151 8.87071 19.556 9.04835 19.7337C9.22599 19.9113 9.36691 20.1222 9.46305 20.3543C9.55918 20.5864 9.60867 20.8352 9.60867 21.0864Z" fill="#E3E3E3"/>
<path d="M1 21.0864C1 20.579 1.20155 20.0924 1.56032 19.7337C1.91908 19.3749 2.40567 19.1733 2.91304 19.1733H7.69563C8.203 19.1733 8.68959 19.3749 9.04835 19.7337C9.40712 20.0924 9.60867 20.579 9.60867 21.0864H1Z" fill="white"/>
<path d="M9.60867 17.2607C9.60867 17.5119 9.55918 17.7607 9.46305 17.9928C9.36691 18.2249 9.22599 18.4358 9.04835 18.6134C8.87071 18.7911 8.65982 18.932 8.42772 19.0281C8.19562 19.1242 7.94685 19.1737 7.69563 19.1737H2.91304C2.66181 19.1737 2.41305 19.1242 2.18095 19.0281C1.94885 18.932 1.73796 18.7911 1.56032 18.6134C1.38267 18.4358 1.24176 18.2249 1.14562 17.9928C1.04948 17.7607 1 17.5119 1 17.2607C1 17.0095 1.04948 16.7607 1.14562 16.5286C1.24176 16.2965 1.38267 16.0856 1.56032 15.908C1.73796 15.7303 1.94885 15.5894 2.18095 15.4933C2.41305 15.3971 2.66181 15.3477 2.91304 15.3477H7.69563C7.94685 15.3477 8.19562 15.3971 8.42772 15.4933C8.65982 15.5894 8.87071 15.7303 9.04835 15.908C9.22599 16.0856 9.36691 16.2965 9.46305 16.5286C9.55918 16.7607 9.60867 17.0095 9.60867 17.2607Z" fill="#E3E3E3"/>
<path d="M1 17.2607C1 16.7533 1.20155 16.2667 1.56032 15.908C1.91908 15.5492 2.40567 15.3477 2.91304 15.3477H7.69563C8.203 15.3477 8.68959 15.5492 9.04835 15.908C9.40712 16.2667 9.60867 16.7533 9.60867 17.2607H1Z" fill="white"/>
<path d="M9.60867 13.434C9.60867 13.6853 9.55918 13.934 9.46305 14.1661C9.36691 14.3982 9.22599 14.6091 9.04835 14.7868C8.87071 14.9644 8.65982 15.1053 8.42772 15.2014C8.19562 15.2976 7.94685 15.3471 7.69563 15.3471H2.91304C2.40567 15.3471 1.91908 15.1455 1.56032 14.7868C1.20155 14.428 1 13.9414 1 13.434C1 12.9267 1.20155 12.4401 1.56032 12.0813C1.91908 11.7225 2.40567 11.521 2.91304 11.521H7.69563C7.94685 11.521 8.19562 11.5705 8.42772 11.6666C8.65982 11.7628 8.87071 11.9037 9.04835 12.0813C9.22599 12.259 9.36691 12.4698 9.46305 12.7019C9.55918 12.934 9.60867 13.1828 9.60867 13.434Z" fill="#E3E3E3"/>
<path d="M1 13.434C1 12.9267 1.20155 12.4401 1.56032 12.0813C1.91908 11.7225 2.40567 11.521 2.91304 11.521H7.69563C8.203 11.521 8.68959 11.7225 9.04835 12.0813C9.40712 12.4401 9.60867 12.9267 9.60867 13.434H1Z" fill="white"/>
<path d="M23 10.5644C23 11.0718 22.7985 11.5584 22.4397 11.9171C22.0809 12.2759 21.5944 12.4774 21.087 12.4774H16.3044C15.797 12.4774 15.3104 12.2759 14.9517 11.9171C14.5929 11.5584 14.3914 11.0718 14.3914 10.5644C14.3914 10.057 14.5929 9.57045 14.9517 9.21168C15.3104 8.85292 15.797 8.65137 16.3044 8.65137H21.087C21.5944 8.65137 22.0809 8.85292 22.4397 9.21168C22.7985 9.57045 23 10.057 23 10.5644Z" fill="#E3E3E3"/>
<path d="M14.3914 10.5644C14.3914 10.057 14.5929 9.57045 14.9517 9.21168C15.3104 8.85292 15.797 8.65137 16.3044 8.65137H21.087C21.3382 8.65137 21.587 8.70085 21.8191 8.79699C22.0512 8.89313 22.2621 9.03404 22.4397 9.21168C22.6174 9.38933 22.7583 9.60022 22.8544 9.83232C22.9505 10.0644 23 10.3132 23 10.5644H14.3914Z" fill="white"/>
<path d="M23 6.73872C23 7.24609 22.7985 7.73268 22.4397 8.09144C22.0809 8.45021 21.5944 8.65176 21.087 8.65176H16.3044C15.797 8.65176 15.3104 8.45021 14.9517 8.09144C14.5929 7.73268 14.3914 7.24609 14.3914 6.73872C14.3914 6.23135 14.5929 5.74476 14.9517 5.386C15.3104 5.02724 15.797 4.82568 16.3044 4.82568H21.087C21.5944 4.82568 22.0809 5.02724 22.4397 5.386C22.7985 5.74476 23 6.23135 23 6.73872Z" fill="#E3E3E3"/>
<path d="M14.3914 6.73872C14.3914 6.23135 14.5929 5.74476 14.9517 5.386C15.3104 5.02724 15.797 4.82568 16.3044 4.82568H21.087C21.5944 4.82568 22.0809 5.02724 22.4397 5.386C22.7985 5.74476 23 6.23135 23 6.73872H14.3914Z" fill="white"/>
<path d="M23 2.91304C23 3.42041 22.7985 3.90699 22.4397 4.26576C22.0809 4.62452 21.5944 4.82607 21.087 4.82607H16.3044C15.797 4.82607 15.3104 4.62452 14.9517 4.26576C14.5929 3.90699 14.3914 3.42041 14.3914 2.91304C14.3914 2.40567 14.5929 1.91908 14.9517 1.56032C15.3104 1.20155 15.797 1 16.3044 1H21.087C21.5944 1 22.0809 1.20155 22.4397 1.56032C22.7985 1.91908 23 2.40567 23 2.91304Z" fill="#E3E3E3"/>
<path d="M14.3914 2.91304C14.3914 2.40567 14.5929 1.91908 14.9517 1.56032C15.3104 1.20155 15.797 1 16.3044 1H21.087C21.5944 1 22.0809 1.20155 22.4397 1.56032C22.7985 1.91908 23 2.40567 23 2.91304H14.3914Z" fill="white"/>
<path d="M4.82611 8.65171V6.49954C4.82598 6.02822 4.91877 5.5615 5.09917 5.12607C5.27956 4.69064 5.54403 4.29504 5.87744 3.9619C6.21084 3.62875 6.60665 3.36461 7.04223 3.18456C7.47781 3.00451 7.9446 2.9121 8.41593 2.9126H10.087" stroke="#191919" stroke-linecap="round" stroke-linejoin="round"/>
<path d="M6.74197 6.73926L4.82893 8.65229L2.91589 6.73926" stroke="#191919" stroke-linecap="round" stroke-linejoin="round"/>
<path d="M8.65503 1.47754L10.0898 2.91232L8.65503 4.3471" stroke="#191919" stroke-linecap="round" stroke-linejoin="round"/>
<path d="M23 2.91304C23 3.42041 22.7985 3.90699 22.4397 4.26576C22.0809 4.62452 21.5944 4.82607 21.087 4.82607H16.3044C15.797 4.82607 15.3104 4.62452 14.9517 4.26576C14.5929 3.90699 14.3914 3.42041 14.3914 2.91304C14.3914 2.40567 14.5929 1.91908 14.9517 1.56032C15.3104 1.20155 15.797 1 16.3044 1H21.087C21.5944 1 22.0809 1.20155 22.4397 1.56032C22.7985 1.91908 23 2.40567 23 2.91304Z" stroke="#191919" stroke-linecap="round" stroke-linejoin="round"/>
<path d="M23 6.73872C23 7.24609 22.7985 7.73268 22.4397 8.09144C22.0809 8.45021 21.5944 8.65176 21.087 8.65176H16.3044C15.797 8.65176 15.3104 8.45021 14.9517 8.09144C14.5929 7.73268 14.3914 7.24609 14.3914 6.73872C14.3914 6.23135 14.5929 5.74476 14.9517 5.386C15.3104 5.02724 15.797 4.82568 16.3044 4.82568H21.087C21.5944 4.82568 22.0809 5.02724 22.4397 5.386C22.7985 5.74476 23 6.23135 23 6.73872Z" stroke="#191919" stroke-linecap="round" stroke-linejoin="round"/>
<path d="M23 10.5644C23 11.0718 22.7985 11.5584 22.4397 11.9171C22.0809 12.2759 21.5944 12.4774 21.087 12.4774H16.3044C15.797 12.4774 15.3104 12.2759 14.9517 11.9171C14.5929 11.5584 14.3914 11.0718 14.3914 10.5644C14.3914 10.057 14.5929 9.57045 14.9517 9.21168C15.3104 8.85292 15.797 8.65137 16.3044 8.65137H21.087C21.5944 8.65137 22.0809 8.85292 22.4397 9.21168C22.7985 9.57045 23 10.057 23 10.5644Z" stroke="#191919" stroke-linecap="round" stroke-linejoin="round"/>
<path d="M9.60867 13.434C9.60867 13.6853 9.55918 13.934 9.46305 14.1661C9.36691 14.3982 9.22599 14.6091 9.04835 14.7868C8.87071 14.9644 8.65982 15.1053 8.42772 15.2014C8.19562 15.2976 7.94685 15.3471 7.69563 15.3471H2.91304C2.40567 15.3471 1.91908 15.1455 1.56032 14.7868C1.20155 14.428 1 13.9414 1 13.434C1 12.9267 1.20155 12.4401 1.56032 12.0813C1.91908 11.7225 2.40567 11.521 2.91304 11.521H7.69563C7.94685 11.521 8.19562 11.5705 8.42772 11.6666C8.65982 11.7628 8.87071 11.9037 9.04835 12.0813C9.22599 12.259 9.36691 12.4698 9.46305 12.7019C9.55918 12.934 9.60867 13.1828 9.60867 13.434Z" stroke="#191919" stroke-linecap="round" stroke-linejoin="round"/>
<path d="M9.60867 17.2607C9.60867 17.5119 9.55918 17.7607 9.46305 17.9928C9.36691 18.2249 9.22599 18.4358 9.04835 18.6134C8.87071 18.7911 8.65982 18.932 8.42772 19.0281C8.19562 19.1242 7.94685 19.1737 7.69563 19.1737H2.91304C2.66181 19.1737 2.41305 19.1242 2.18095 19.0281C1.94885 18.932 1.73796 18.7911 1.56032 18.6134C1.38267 18.4358 1.24176 18.2249 1.14562 17.9928C1.04948 17.7607 1 17.5119 1 17.2607C1 17.0095 1.04948 16.7607 1.14562 16.5286C1.24176 16.2965 1.38267 16.0856 1.56032 15.908C1.73796 15.7303 1.94885 15.5894 2.18095 15.4933C2.41305 15.3971 2.66181 15.3477 2.91304 15.3477H7.69563C7.94685 15.3477 8.19562 15.3971 8.42772 15.4933C8.65982 15.5894 8.87071 15.7303 9.04835 15.908C9.22599 16.0856 9.36691 16.2965 9.46305 16.5286C9.55918 16.7607 9.60867 17.0095 9.60867 17.2607Z" stroke="#191919" stroke-linecap="round" stroke-linejoin="round"/>
<path d="M9.60867 21.0864C9.60867 21.3376 9.55918 21.5864 9.46305 21.8185C9.36691 22.0506 9.22599 22.2615 9.04835 22.4391C8.87071 22.6167 8.65982 22.7577 8.42772 22.8538C8.19562 22.9499 7.94685 22.9994 7.69563 22.9994H2.91304C2.66181 22.9994 2.41305 22.9499 2.18095 22.8538C1.94885 22.7577 1.73796 22.6167 1.56032 22.4391C1.38267 22.2615 1.24176 22.0506 1.14562 21.8185C1.04948 21.5864 1 21.3376 1 21.0864C1 20.8352 1.04948 20.5864 1.14562 20.3543C1.24176 20.1222 1.38267 19.9113 1.56032 19.7337C1.73796 19.556 1.94885 19.4151 2.18095 19.319C2.41305 19.2228 2.66181 19.1733 2.91304 19.1733H7.69563C7.94685 19.1733 8.19562 19.2228 8.42772 19.319C8.65982 19.4151 8.87071 19.556 9.04835 19.7337C9.22599 19.9113 9.36691 20.1222 9.46305 20.3543C9.55918 20.5864 9.60867 20.8352 9.60867 21.0864Z" stroke="#191919" stroke-linecap="round" stroke-linejoin="round"/>
<path d="M17.0217 3.15209C16.9582 3.15209 16.8974 3.12689 16.8526 3.08205C16.8077 3.0372 16.7825 2.97638 16.7825 2.91296C16.7825 2.84954 16.8077 2.78871 16.8526 2.74387C16.8974 2.69902 16.9582 2.67383 17.0217 2.67383" stroke="#191919"/>
<path d="M17.0217 3.15209C17.0851 3.15209 17.146 3.12689 17.1908 3.08205C17.2357 3.0372 17.2609 2.97638 17.2609 2.91296C17.2609 2.84954 17.2357 2.78871 17.1908 2.74387C17.146 2.69902 17.0851 2.67383 17.0217 2.67383" stroke="#191919"/>
<path d="M3.63049 13.6741C3.56707 13.6741 3.50624 13.6489 3.4614 13.604C3.41655 13.5592 3.39136 13.4984 3.39136 13.4349C3.39136 13.3715 3.41655 13.3107 3.4614 13.2658C3.50624 13.221 3.56707 13.1958 3.63049 13.1958" stroke="#191919"/>
<path d="M3.63049 13.6741C3.69391 13.6741 3.75474 13.6489 3.79958 13.604C3.84443 13.5592 3.86962 13.4984 3.86962 13.4349C3.86962 13.3715 3.84443 13.3107 3.79958 13.2658C3.75474 13.221 3.69391 13.1958 3.63049 13.1958" stroke="#191919"/>
<path d="M17.0217 6.97777C16.9582 6.97777 16.8974 6.95258 16.8526 6.90773C16.8077 6.86289 16.7825 6.80206 16.7825 6.73864C16.7825 6.67522 16.8077 6.6144 16.8526 6.56955C16.8974 6.52471 16.9582 6.49951 17.0217 6.49951" stroke="#191919"/>
<path d="M17.0217 6.97777C17.0851 6.97777 17.146 6.95258 17.1908 6.90773C17.2357 6.86289 17.2609 6.80206 17.2609 6.73864C17.2609 6.67522 17.2357 6.6144 17.1908 6.56955C17.146 6.52471 17.0851 6.49951 17.0217 6.49951" stroke="#191919"/>
<path d="M3.63049 17.4997C3.56707 17.4997 3.50624 17.4745 3.4614 17.4297C3.41655 17.3849 3.39136 17.324 3.39136 17.2606C3.39136 17.1972 3.41655 17.1364 3.4614 17.0915C3.50624 17.0467 3.56707 17.0215 3.63049 17.0215" stroke="#191919"/>
<path d="M3.63049 17.4997C3.69391 17.4997 3.75474 17.4745 3.79958 17.4297C3.84443 17.3849 3.86962 17.324 3.86962 17.2606C3.86962 17.1972 3.84443 17.1364 3.79958 17.0915C3.75474 17.0467 3.69391 17.0215 3.63049 17.0215" stroke="#191919"/>
<path d="M17.0217 10.8044C16.9582 10.8044 16.8974 10.7792 16.8526 10.7344C16.8077 10.6895 16.7825 10.6287 16.7825 10.5653C16.7825 10.5019 16.8077 10.4411 16.8526 10.3962C16.8974 10.3514 16.9582 10.3262 17.0217 10.3262" stroke="#191919"/>
<path d="M17.0217 10.8044C17.0851 10.8044 17.146 10.7792 17.1908 10.7344C17.2357 10.6895 17.2609 10.6287 17.2609 10.5653C17.2609 10.5019 17.2357 10.4411 17.1908 10.3962C17.146 10.3514 17.0851 10.3262 17.0217 10.3262" stroke="#191919"/>
<path d="M3.63049 21.3254C3.56707 21.3254 3.50624 21.3002 3.4614 21.2554C3.41655 21.2105 3.39136 21.1497 3.39136 21.0863C3.39136 21.0229 3.41655 20.9621 3.4614 20.9172C3.50624 20.8724 3.56707 20.8472 3.63049 20.8472" stroke="#191919"/>
<path d="M3.63049 21.3254C3.69391 21.3254 3.75474 21.3002 3.79958 21.2554C3.84443 21.2105 3.86962 21.1497 3.86962 21.0863C3.86962 21.0229 3.84443 20.9621 3.79958 20.9172C3.75474 20.8724 3.69391 20.8472 3.63049 20.8472" stroke="#191919"/>
</g>
<defs>
<clipPath id="clip0_5303_6484">
<rect width="24" height="24" fill="white"/>
</clipPath>
</defs>
</svg>
