<svg width="24" height="24" viewBox="0 0 24 24" fill="none" xmlns="http://www.w3.org/2000/svg">
<g clip-path="url(#clip0_5303_6767)">
<path d="M17.2631 12.9585C17.2631 12.3243 17.0112 11.7159 16.5627 11.2674C16.1141 10.8189 15.5058 10.5669 14.8715 10.5669H3.39164C2.75734 10.5669 2.14901 10.8189 1.70049 11.2674C1.25198 11.7159 1 12.3243 1 12.9585C1 13.5928 1.25198 14.2011 1.70049 14.6497C2.14901 15.0982 2.75734 15.3502 3.39164 15.3502H14.8715C15.5058 15.3502 16.1141 15.0982 16.5627 14.6497C17.0112 14.2011 17.2631 13.5928 17.2631 12.9585Z" fill="#E3E3E3"/>
<path d="M17.2631 12.9585C17.2631 12.3243 17.0112 11.7159 16.5627 11.2674C16.1141 10.8189 15.5058 10.5669 14.8715 10.5669H3.39164C3.07757 10.5669 2.76657 10.6288 2.4764 10.7489C2.18623 10.8691 1.92258 11.0453 1.70049 11.2674C1.25198 11.7159 1 12.3243 1 12.9585H17.2631Z" fill="white"/>
<path d="M17.2631 8.17484C17.2631 7.54054 17.0112 6.93221 16.5627 6.48369C16.1141 6.03518 15.5058 5.7832 14.8715 5.7832H3.39164C2.75734 5.7832 2.14901 6.03518 1.70049 6.48369C1.25198 6.93221 1 7.54054 1 8.17484C1 8.80914 1.25198 9.41747 1.70049 9.86599C2.14901 10.3145 2.75734 10.5665 3.39164 10.5665H14.8715C15.5058 10.5665 16.1141 10.3145 16.5627 9.86599C17.0112 9.41747 17.2631 8.80914 17.2631 8.17484Z" fill="#E3E3E3"/>
<path d="M17.2631 8.17484C17.2631 7.54054 17.0112 6.93221 16.5627 6.48369C16.1141 6.03518 15.5058 5.7832 14.8715 5.7832H3.39164C3.07757 5.7832 2.76657 5.84506 2.4764 5.96525C2.18623 6.08545 1.92258 6.26162 1.70049 6.48369C1.25198 6.93221 1 7.54054 1 8.17484H17.2631Z" fill="white"/>
<path d="M17.2631 3.39213C17.2631 3.07806 17.2012 2.76706 17.0811 2.47688C16.9609 2.18672 16.7847 1.92307 16.5627 1.70098C16.3405 1.4789 16.0769 1.30273 15.7867 1.18254C15.4966 1.06235 15.1856 1.00049 14.8715 1.00049H3.39164C2.75734 1.00049 2.14901 1.25246 1.70049 1.70098C1.25198 2.1495 1 2.75783 1 3.39213C1 4.02643 1.25198 4.63476 1.70049 5.08327C2.14901 5.53179 2.75734 5.78376 3.39164 5.78376H14.8715C15.5058 5.78376 16.1141 5.53179 16.5627 5.08327C17.0112 4.63476 17.2631 4.02643 17.2631 3.39213Z" fill="#E3E3E3"/>
<path d="M17.2631 3.39213C17.2631 3.07806 17.2012 2.76706 17.0811 2.47688C16.9609 2.18672 16.7847 1.92307 16.5627 1.70098C16.3405 1.4789 16.0769 1.30273 15.7867 1.18254C15.4966 1.06235 15.1856 1.00049 14.8715 1.00049H3.39164C3.07757 1.00049 2.76657 1.06235 2.4764 1.18254C2.18623 1.30273 1.92258 1.4789 1.70049 1.70098C1.25198 2.1495 1 2.75783 1 3.39213H17.2631Z" fill="white"/>
<path d="M5.78308 20.1328H8.65305" stroke="#191919" stroke-linecap="round" stroke-linejoin="round"/>
<path d="M8.65417 15.3501V20.1334" stroke="#191919" stroke-linecap="round" stroke-linejoin="round"/>
<path d="M12.4799 10.5669H3.39164C2.75734 10.5669 2.14901 10.8189 1.70049 11.2674C1.25198 11.7159 1 12.3243 1 12.9585C1 13.5928 1.25198 14.2011 1.70049 14.6497C2.14901 15.0982 2.75734 15.3502 3.39164 15.3502H9.6099" stroke="#191919" stroke-linecap="round" stroke-linejoin="round"/>
<path d="M17.2631 8.17484C17.2631 7.54054 17.0112 6.93221 16.5627 6.48369C16.1141 6.03518 15.5058 5.7832 14.8715 5.7832H3.39164C2.75734 5.7832 2.14901 6.03518 1.70049 6.48369C1.25198 6.93221 1 7.54054 1 8.17484C1 8.80914 1.25198 9.41747 1.70049 9.86599C2.14901 10.3145 2.75734 10.5665 3.39164 10.5665H12.4799" stroke="#191919" stroke-linecap="round" stroke-linejoin="round"/>
<path d="M17.2631 3.39213C17.2631 3.07806 17.2012 2.76706 17.0811 2.47688C16.9609 2.18672 16.7847 1.92307 16.5627 1.70098C16.3405 1.4789 16.0769 1.30273 15.7867 1.18254C15.4966 1.06235 15.1856 1.00049 14.8715 1.00049H3.39164C2.75734 1.00049 2.14901 1.25246 1.70049 1.70098C1.25198 2.1495 1 2.75783 1 3.39213C1 4.02643 1.25198 4.63476 1.70049 5.08327C2.14901 5.53179 2.75734 5.78376 3.39164 5.78376H14.8715C15.5058 5.78376 16.1141 5.53179 16.5627 5.08327C17.0112 4.63476 17.2631 4.02643 17.2631 3.39213Z" stroke="#191919" stroke-linecap="round" stroke-linejoin="round"/>
<path d="M17.9327 11.9316L19.405 15.3468H22.2693C22.414 15.3412 22.5569 15.3803 22.6786 15.4589C22.8002 15.5376 22.8946 15.6519 22.9489 15.7862C23.003 15.9205 23.0145 16.0683 22.9816 16.2093C22.9486 16.3504 22.8729 16.4778 22.7648 16.5742L20.2775 18.7898L21.6551 21.9592C21.7155 22.1043 21.729 22.2645 21.6936 22.4175C21.6582 22.5705 21.5758 22.7086 21.4578 22.8123C21.3399 22.916 21.1923 22.9802 21.036 22.9957C20.8797 23.0111 20.7225 22.9772 20.5865 22.8987L17.2631 21.0227L13.9339 22.8987C13.7979 22.9772 13.6407 23.0111 13.4844 22.9957C13.3281 22.9802 13.1806 22.916 13.0626 22.8123C12.9446 22.7086 12.8622 22.5705 12.8268 22.4175C12.7914 22.2645 12.8049 22.1043 12.8653 21.9592L14.2448 18.7946L11.7575 16.579C11.6491 16.483 11.5731 16.356 11.5398 16.2151C11.5064 16.0743 11.5174 15.9266 11.5713 15.7921C11.625 15.6578 11.7191 15.5434 11.8405 15.4645C11.9619 15.3857 12.1046 15.3462 12.2492 15.3516H15.1192L16.5934 11.9363C16.6589 11.8147 16.7561 11.7129 16.8749 11.642C16.9935 11.5711 17.1291 11.5337 17.2674 11.5337C17.4056 11.5337 17.5413 11.5711 17.6599 11.642C17.7786 11.7129 17.8758 11.8147 17.9413 11.9363L17.9327 11.9316Z" fill="#FFEF5E"/>
<path d="M19.4097 15.3501L17.9327 11.931C17.8671 11.8093 17.7699 11.7075 17.6512 11.6366C17.5326 11.5657 17.3969 11.5283 17.2587 11.5283C17.1205 11.5283 16.9848 11.5657 16.8662 11.6366C16.7475 11.7075 16.6503 11.8093 16.5847 11.931L15.1153 15.3501H12.2453C12.1007 15.3447 11.958 15.3841 11.8366 15.4629C11.7152 15.5419 11.6211 15.6563 11.5674 15.7906C11.5135 15.925 11.5025 16.0727 11.5359 16.2135C11.5692 16.3544 11.6452 16.4815 11.7536 16.5775L14.2409 18.7931L12.8662 21.9615C12.7981 22.131 12.7947 22.3197 12.8566 22.4915L20.0029 15.3501H19.4097Z" fill="#FFF9BF"/>
<path d="M17.9327 11.9316L19.405 15.3468H22.2693C22.414 15.3412 22.5569 15.3803 22.6786 15.4589C22.8002 15.5376 22.8946 15.6519 22.9489 15.7862C23.003 15.9205 23.0145 16.0683 22.9816 16.2093C22.9486 16.3504 22.8729 16.4778 22.7648 16.5742L20.2775 18.7898L21.6551 21.9592C21.7155 22.1043 21.729 22.2645 21.6936 22.4175C21.6582 22.5705 21.5758 22.7086 21.4578 22.8123C21.3399 22.916 21.1923 22.9802 21.036 22.9957C20.8797 23.0111 20.7225 22.9772 20.5865 22.8987L17.2631 21.0227L13.9339 22.8987C13.7979 22.9772 13.6407 23.0111 13.4844 22.9957C13.3281 22.9802 13.1806 22.916 13.0626 22.8123C12.9446 22.7086 12.8622 22.5705 12.8268 22.4175C12.7914 22.2645 12.8049 22.1043 12.8653 21.9592L14.2448 18.7946L11.7575 16.579C11.6491 16.483 11.5731 16.356 11.5398 16.2151C11.5064 16.0743 11.5174 15.9266 11.5713 15.7921C11.625 15.6578 11.7191 15.5434 11.8405 15.4645C11.9619 15.3857 12.1046 15.3462 12.2492 15.3516H15.1192L16.5934 11.9363C16.6589 11.8147 16.7561 11.7129 16.8749 11.642C16.9935 11.5711 17.1291 11.5337 17.2674 11.5337C17.4056 11.5337 17.5413 11.5711 17.6599 11.642C17.7786 11.7129 17.8758 11.8147 17.9413 11.9363L17.9327 11.9316Z" stroke="#191919" stroke-linecap="round" stroke-linejoin="round"/>
<path d="M4.58731 3.63116C4.45522 3.63116 4.34814 3.52408 4.34814 3.392C4.34814 3.25991 4.45522 3.15283 4.58731 3.15283" stroke="#191919"/>
<path d="M4.5874 3.63116C4.71949 3.63116 4.82657 3.52408 4.82657 3.392C4.82657 3.25991 4.71949 3.15283 4.5874 3.15283" stroke="#191919"/>
<path d="M4.58731 8.41387C4.45522 8.41387 4.34814 8.3068 4.34814 8.17471C4.34814 8.04263 4.45522 7.93555 4.58731 7.93555" stroke="#191919"/>
<path d="M4.5874 8.41387C4.71949 8.41387 4.82657 8.3068 4.82657 8.17471C4.82657 8.04263 4.71949 7.93555 4.5874 7.93555" stroke="#191919"/>
<path d="M4.58731 13.1976C4.45522 13.1976 4.34814 13.0905 4.34814 12.9584C4.34814 12.8263 4.45522 12.7192 4.58731 12.7192" stroke="#191919"/>
<path d="M4.5874 13.1976C4.71949 13.1976 4.82657 13.0905 4.82657 12.9584C4.82657 12.8263 4.71949 12.7192 4.5874 12.7192" stroke="#191919"/>
<path d="M1.23916 20.1336C1.10708 20.1336 1 20.0266 1 19.8944C1 19.7623 1.10708 19.6553 1.23916 19.6553" stroke="#191919"/>
<path d="M1.23914 20.1336C1.37122 20.1336 1.4783 20.0266 1.4783 19.8944C1.4783 19.7623 1.37122 19.6553 1.23914 19.6553" stroke="#191919"/>
<path d="M6.97915 3.63116C6.84707 3.63116 6.73999 3.52408 6.73999 3.392C6.73999 3.25991 6.84707 3.15283 6.97915 3.15283" stroke="#191919"/>
<path d="M6.979 3.63116C7.11109 3.63116 7.21817 3.52408 7.21817 3.392C7.21817 3.25991 7.11109 3.15283 6.979 3.15283" stroke="#191919"/>
<path d="M6.97915 8.41387C6.84707 8.41387 6.73999 8.3068 6.73999 8.17471C6.73999 8.04263 6.84707 7.93555 6.97915 7.93555" stroke="#191919"/>
<path d="M6.979 8.41387C7.11109 8.41387 7.21817 8.3068 7.21817 8.17471C7.21817 8.04263 7.11109 7.93555 6.979 7.93555" stroke="#191919"/>
<path d="M6.97915 13.1976C6.84707 13.1976 6.73999 13.0905 6.73999 12.9584C6.73999 12.8263 6.84707 12.7192 6.97915 12.7192" stroke="#191919"/>
<path d="M6.979 13.1976C7.11109 13.1976 7.21817 13.0905 7.21817 12.9584C7.21817 12.8263 7.11109 12.7192 6.979 12.7192" stroke="#191919"/>
<path d="M3.63077 20.1336C3.49868 20.1336 3.3916 20.0266 3.3916 19.8944C3.3916 19.7623 3.49868 19.6553 3.63077 19.6553" stroke="#191919"/>
<path d="M3.63062 20.1336C3.7627 20.1336 3.86978 20.0266 3.86978 19.8944C3.86978 19.7623 3.7627 19.6553 3.63062 19.6553" stroke="#191919"/>
</g>
<defs>
<clipPath id="clip0_5303_6767">
<rect width="24" height="24" fill="white"/>
</clipPath>
</defs>
</svg>
