<svg width="24" height="24" viewBox="0 0 24 24" fill="none" xmlns="http://www.w3.org/2000/svg">
<g clip-path="url(#clip0_5303_6424)">
<path d="M21.0871 16.3046C21.0871 16.812 20.8855 17.2986 20.5268 17.6574C20.168 18.0161 19.6814 18.2177 19.174 18.2177H2.91306C2.40568 18.2177 1.91909 18.0161 1.56032 17.6574C1.20155 17.2986 1 16.812 1 16.3046V14.3916C1 13.8842 1.20155 13.3976 1.56032 13.0388C1.91909 12.6801 2.40568 12.4785 2.91306 12.4785H19.174C19.6814 12.4785 20.168 12.6801 20.5268 13.0388C20.8855 13.3976 21.0871 13.8842 21.0871 14.3916V16.3046Z" fill="#E3E3E3"/>
<path d="M19.174 12.4785H2.91306C2.40568 12.4785 1.91909 12.6801 1.56032 13.0388C1.20155 13.3976 1 13.8842 1 14.3916V16.3046C1 15.7973 1.20155 15.3107 1.56032 14.9519C1.91909 14.5931 2.40568 14.3916 2.91306 14.3916H19.174C19.6814 14.3916 20.168 14.5931 20.5268 14.9519C20.8855 15.3107 21.0871 15.7973 21.0871 16.3046V14.3916C21.0871 13.8842 20.8855 13.3976 20.5268 13.0388C20.168 12.6801 19.6814 12.4785 19.174 12.4785Z" fill="white"/>
<path d="M21.0871 10.5654C21.0871 11.0727 20.8855 11.5593 20.5268 11.9181C20.168 12.2769 19.6814 12.4784 19.174 12.4784H2.91306C2.40568 12.4784 1.91909 12.2769 1.56032 11.9181C1.20155 11.5593 1 11.0727 1 10.5654V8.65231C1 8.14494 1.20155 7.65835 1.56032 7.29958C1.91909 6.94081 2.40568 6.73926 2.91306 6.73926H19.174C19.6814 6.73926 20.168 6.94081 20.5268 7.29958C20.8855 7.65835 21.0871 8.14494 21.0871 8.65231V10.5654Z" fill="#E3E3E3"/>
<path d="M19.174 6.73926H2.91306C2.40568 6.73926 1.91909 6.94081 1.56032 7.29958C1.20155 7.65835 1 8.14494 1 8.65231V10.5654C1 10.3141 1.04948 10.0654 1.14562 9.83328C1.24176 9.60117 1.38268 9.39028 1.56032 9.21264C1.73796 9.03499 1.94886 8.89408 2.18096 8.79794C2.41306 8.7018 2.66183 8.65231 2.91306 8.65231H19.174C19.4253 8.65231 19.674 8.7018 19.9061 8.79794C20.1382 8.89408 20.3491 9.03499 20.5268 9.21264C20.7044 9.39028 20.8453 9.60117 20.9415 9.83328C21.0376 10.0654 21.0871 10.3141 21.0871 10.5654V8.65231C21.0871 8.14494 20.8855 7.65835 20.5268 7.29958C20.168 6.94081 19.6814 6.73926 19.174 6.73926Z" fill="white"/>
<path d="M21.0871 4.82611C21.0871 5.33349 20.8855 5.82008 20.5268 6.17885C20.168 6.53761 19.6814 6.73917 19.174 6.73917H2.91306C2.40568 6.73917 1.91909 6.53761 1.56032 6.17885C1.20155 5.82008 1 5.33349 1 4.82611V2.91306C1 2.40568 1.20155 1.91909 1.56032 1.56032C1.91909 1.20155 2.40568 1 2.91306 1H19.174C19.6814 1 20.168 1.20155 20.5268 1.56032C20.8855 1.91909 21.0871 2.40568 21.0871 2.91306V4.82611Z" fill="#E3E3E3"/>
<path d="M19.174 1H2.91306C2.40568 1 1.91909 1.20155 1.56032 1.56032C1.20155 1.91909 1 2.40568 1 2.91306V4.82611C1 4.31874 1.20155 3.83214 1.56032 3.47338C1.91909 3.11461 2.40568 2.91306 2.91306 2.91306H19.174C19.6814 2.91306 20.168 3.11461 20.5268 3.47338C20.8855 3.83214 21.0871 4.31874 21.0871 4.82611V2.91306C21.0871 2.40568 20.8855 1.91909 20.5268 1.56032C20.168 1.20155 19.6814 1 19.174 1Z" fill="white"/>
<path d="M21.0871 4.82611C21.0871 5.33349 20.8855 5.82008 20.5268 6.17885C20.168 6.53761 19.6814 6.73917 19.174 6.73917H2.91306C2.40568 6.73917 1.91909 6.53761 1.56032 6.17885C1.20155 5.82008 1 5.33349 1 4.82611V2.91306C1 2.40568 1.20155 1.91909 1.56032 1.56032C1.91909 1.20155 2.40568 1 2.91306 1H19.174C19.6814 1 20.168 1.20155 20.5268 1.56032C20.8855 1.91909 21.0871 2.40568 21.0871 2.91306V4.82611Z" stroke="#191919" stroke-linecap="round" stroke-linejoin="round"/>
<path d="M2.91306 12.4784C2.40568 12.4784 1.91909 12.2769 1.56032 11.9181C1.20155 11.5593 1 11.0727 1 10.5654V8.65231C1 8.14494 1.20155 7.65835 1.56032 7.29958C1.91909 6.94081 2.40568 6.73926 2.91306 6.73926H19.174C19.6814 6.73926 20.168 6.94081 20.5268 7.29958C20.8855 7.65835 21.0871 8.14494 21.0871 8.65231V10.0871" stroke="#191919" stroke-linecap="round" stroke-linejoin="round"/>
<path d="M9.13049 18.2177H2.91306C2.40568 18.2177 1.91909 18.0161 1.56032 17.6574C1.20155 17.2986 1 16.812 1 16.3046V14.3916C1 14.1403 1.04948 13.8916 1.14562 13.6595C1.24176 13.4274 1.38268 13.2165 1.56032 13.0388C1.73796 12.8612 1.94886 12.7203 2.18096 12.6241C2.41306 12.528 2.66183 12.4785 2.91306 12.4785H15.3479" stroke="#191919" stroke-linecap="round" stroke-linejoin="round"/>
<path d="M13.6738 20.1301C14.2446 20.1301 14.792 19.9033 15.1956 19.4997C15.5992 19.0961 15.826 18.5487 15.826 17.9779C15.826 17.4071 15.5992 16.8597 15.1956 16.456C14.792 16.0524 14.2446 15.8257 13.6738 15.8257C13.103 15.8257 12.5556 16.0524 12.152 16.456C11.7484 16.8597 11.5216 17.4071 11.5216 17.9779C11.5216 18.5487 11.7484 19.0961 12.152 19.4997C12.5556 19.9033 13.103 20.1301 13.6738 20.1301Z" fill="#FFEF5E" stroke="#191919" stroke-linecap="round" stroke-linejoin="round"/>
<path d="M20.8479 22.9997C21.1305 22.9997 21.4104 22.944 21.6715 22.8359C21.9326 22.7277 22.1698 22.5692 22.3697 22.3693C22.5695 22.1695 22.7281 21.9322 22.8362 21.6711C22.9444 21.41 23.0001 21.1301 23.0001 20.8475C23.0001 20.5649 22.9444 20.285 22.8362 20.0239C22.7281 19.7628 22.5695 19.5255 22.3697 19.3257C22.1698 19.1258 21.9326 18.9673 21.6715 18.8591C21.4104 18.751 21.1305 18.6953 20.8479 18.6953C20.2771 18.6953 19.7297 18.9221 19.326 19.3257C18.9224 19.7293 18.6957 20.2767 18.6957 20.8475C18.6957 21.4183 18.9224 21.9657 19.326 22.3693C19.7297 22.7729 20.2771 22.9997 20.8479 22.9997Z" fill="#FFEF5E" stroke="#191919" stroke-linecap="round" stroke-linejoin="round"/>
<path d="M20.8479 15.8254C21.1305 15.8254 21.4104 15.7697 21.6715 15.6615C21.9326 15.5534 22.1698 15.3949 22.3697 15.195C22.5695 14.9952 22.7281 14.7579 22.8362 14.4968C22.9444 14.2357 23.0001 13.9558 23.0001 13.6732C23.0001 13.3906 22.9444 13.1107 22.8362 12.8496C22.7281 12.5885 22.5695 12.3512 22.3697 12.1514C22.1698 11.9515 21.9326 11.793 21.6715 11.6848C21.4104 11.5767 21.1305 11.521 20.8479 11.521C20.2771 11.521 19.7297 11.7477 19.326 12.1514C18.9224 12.555 18.6957 13.1024 18.6957 13.6732C18.6957 14.244 18.9224 14.7914 19.326 15.195C19.7297 15.5986 20.2771 15.8254 20.8479 15.8254Z" fill="#FFEF5E" stroke="#191919" stroke-linecap="round" stroke-linejoin="round"/>
<path d="M15.5151 16.8736L19.0065 14.7788" stroke="#191919" stroke-linecap="round" stroke-linejoin="round"/>
<path d="M15.671 18.7773L18.8505 20.0495" stroke="#191919" stroke-linecap="round" stroke-linejoin="round"/>
<path d="M5.06518 4.10815C5.00176 4.10815 4.94094 4.08295 4.89609 4.03811C4.85124 3.99326 4.82605 3.93244 4.82605 3.86901C4.82605 3.80559 4.85124 3.74477 4.89609 3.69992C4.94094 3.65508 5.00176 3.62988 5.06518 3.62988" stroke="#191919"/>
<path d="M5.06506 4.10815C5.12849 4.10815 5.18931 4.08295 5.23416 4.03811C5.279 3.99326 5.3042 3.93244 5.3042 3.86901C5.3042 3.80559 5.279 3.74477 5.23416 3.69992C5.18931 3.65508 5.12849 3.62988 5.06506 3.62988" stroke="#191919"/>
<path d="M5.06518 9.8474C5.00176 9.8474 4.94094 9.82221 4.89609 9.77736C4.85124 9.73252 4.82605 9.67169 4.82605 9.60827C4.82605 9.54485 4.85124 9.48403 4.89609 9.43918C4.94094 9.39434 5.00176 9.36914 5.06518 9.36914" stroke="#191919"/>
<path d="M5.06506 9.8474C5.12849 9.8474 5.18931 9.82221 5.23416 9.77736C5.279 9.73252 5.3042 9.67169 5.3042 9.60827C5.3042 9.54485 5.279 9.48403 5.23416 9.43918C5.18931 9.39434 5.12849 9.36914 5.06506 9.36914" stroke="#191919"/>
<path d="M5.06518 15.5867C5.00176 15.5867 4.94094 15.5615 4.89609 15.5166C4.85124 15.4718 4.82605 15.411 4.82605 15.3475C4.82605 15.2841 4.85124 15.2233 4.89609 15.1784C4.94094 15.1336 5.00176 15.1084 5.06518 15.1084" stroke="#191919"/>
<path d="M5.06506 15.5867C5.12849 15.5867 5.18931 15.5615 5.23416 15.5166C5.279 15.4718 5.3042 15.411 5.3042 15.3475C5.3042 15.2841 5.279 15.2233 5.23416 15.1784C5.18931 15.1336 5.12849 15.1084 5.06506 15.1084" stroke="#191919"/>
<path d="M8.41308 4.10815C8.34966 4.10815 8.28884 4.08295 8.24399 4.03811C8.19914 3.99326 8.17395 3.93244 8.17395 3.86901C8.17395 3.80559 8.19914 3.74477 8.24399 3.69992C8.28884 3.65508 8.34966 3.62988 8.41308 3.62988" stroke="#191919"/>
<path d="M8.41296 4.10815C8.47639 4.10815 8.53721 4.08295 8.58206 4.03811C8.6269 3.99326 8.6521 3.93244 8.6521 3.86901C8.6521 3.80559 8.6269 3.74477 8.58206 3.69992C8.53721 3.65508 8.47639 3.62988 8.41296 3.62988" stroke="#191919"/>
<path d="M8.41308 9.8474C8.34966 9.8474 8.28884 9.82221 8.24399 9.77736C8.19914 9.73252 8.17395 9.67169 8.17395 9.60827C8.17395 9.54485 8.19914 9.48403 8.24399 9.43918C8.28884 9.39434 8.34966 9.36914 8.41308 9.36914" stroke="#191919"/>
<path d="M8.41296 9.8474C8.47639 9.8474 8.53721 9.82221 8.58206 9.77736C8.6269 9.73252 8.6521 9.67169 8.6521 9.60827C8.6521 9.54485 8.6269 9.48403 8.58206 9.43918C8.53721 9.39434 8.47639 9.36914 8.41296 9.36914" stroke="#191919"/>
<path d="M8.41308 15.5867C8.34966 15.5867 8.28884 15.5615 8.24399 15.5166C8.19914 15.4718 8.17395 15.411 8.17395 15.3475C8.17395 15.2841 8.19914 15.2233 8.24399 15.1784C8.28884 15.1336 8.34966 15.1084 8.41308 15.1084" stroke="#191919"/>
<path d="M8.41296 15.5867C8.47639 15.5867 8.53721 15.5615 8.58206 15.5166C8.6269 15.4718 8.6521 15.411 8.6521 15.3475C8.6521 15.2841 8.6269 15.2233 8.58206 15.1784C8.53721 15.1336 8.47639 15.1084 8.41296 15.1084" stroke="#191919"/>
</g>
<defs>
<clipPath id="clip0_5303_6424">
<rect width="24" height="24" fill="white"/>
</clipPath>
</defs>
</svg>
