<svg width="24" height="24" viewBox="0 0 24 24" fill="none" xmlns="http://www.w3.org/2000/svg">
<g clip-path="url(#clip0_5303_6832)">
<path d="M17.261 12.9567C17.261 12.3225 17.009 11.7143 16.5606 11.2658C16.1121 10.8174 15.5039 10.5654 14.8697 10.5654H3.39132C2.7571 10.5654 2.14886 10.8174 1.7004 11.2658C1.25194 11.7143 1 12.3225 1 12.9567C1 13.591 1.25194 14.1992 1.7004 14.6477C2.14886 15.0961 2.7571 15.3481 3.39132 15.3481H14.8697C15.5039 15.3481 16.1121 15.0961 16.5606 14.6477C17.009 14.1992 17.261 13.591 17.261 12.9567Z" fill="#E3E3E3"/>
<path d="M17.261 12.9567C17.261 12.3225 17.009 11.7143 16.5606 11.2658C16.1121 10.8174 15.5039 10.5654 14.8697 10.5654H3.39132C2.7571 10.5654 2.14886 10.8174 1.7004 11.2658C1.25194 11.7143 1 12.3225 1 12.9567H17.261Z" fill="white"/>
<path d="M17.261 8.17403C17.261 7.53982 17.009 6.93158 16.5606 6.48312C16.1121 6.03466 15.5039 5.78271 14.8697 5.78271H3.39132C3.07729 5.78271 2.76633 5.84457 2.4762 5.96474C2.18607 6.08492 1.92246 6.26106 1.7004 6.48312C1.47835 6.70517 1.3022 6.96879 1.18203 7.25892C1.06185 7.54904 1 7.86 1 8.17403C1 8.48807 1.06185 8.79902 1.18203 9.08915C1.3022 9.37928 1.47835 9.6429 1.7004 9.86495C1.92246 10.087 2.18607 10.2632 2.4762 10.3833C2.76633 10.5035 3.07729 10.5654 3.39132 10.5654H14.8697C15.5039 10.5654 16.1121 10.3134 16.5606 9.86495C17.009 9.41649 17.261 8.80825 17.261 8.17403Z" fill="#E3E3E3"/>
<path d="M17.261 8.17403C17.261 7.53982 17.009 6.93158 16.5606 6.48312C16.1121 6.03466 15.5039 5.78271 14.8697 5.78271H3.39132C2.7571 5.78271 2.14886 6.03466 1.7004 6.48312C1.25194 6.93158 1 7.53982 1 8.17403H17.261Z" fill="white"/>
<path d="M17.261 3.39181C17.261 2.75759 17.009 2.14935 16.5606 1.70089C16.1121 1.25243 15.5039 1.00049 14.8697 1.00049H3.39132C2.7571 1.00049 2.14886 1.25243 1.7004 1.70089C1.25194 2.14935 1 2.75759 1 3.39181C1 4.02603 1.25194 4.63427 1.7004 5.08273C2.14886 5.53119 2.7571 5.78313 3.39132 5.78313H14.8697C15.1837 5.78313 15.4946 5.72127 15.7848 5.6011C16.0749 5.48092 16.3385 5.30478 16.5606 5.08273C16.7826 4.86067 16.9588 4.59705 17.0789 4.30693C17.1991 4.0168 17.261 3.70584 17.261 3.39181Z" fill="#E3E3E3"/>
<path d="M17.261 3.39181C17.261 2.75759 17.009 2.14935 16.5606 1.70089C16.1121 1.25243 15.5039 1.00049 14.8697 1.00049H3.39132C2.7571 1.00049 2.14886 1.25243 1.7004 1.70089C1.25194 2.14935 1 2.75759 1 3.39181H17.261Z" fill="white"/>
<path d="M17.2608 21.5653C18.4024 21.5653 19.4972 21.1118 20.3045 20.3046C21.1117 19.4973 21.5652 18.4025 21.5652 17.2609C21.5652 16.1193 21.1117 15.0245 20.3045 14.2173C19.4972 13.41 18.4024 12.9565 17.2608 12.9565C16.1192 12.9565 15.0244 13.41 14.2171 14.2173C13.4099 15.0245 12.9564 16.1193 12.9564 17.2609C12.9564 18.4025 13.4099 19.4973 14.2171 20.3046C15.0244 21.1118 16.1192 21.5653 17.2608 21.5653Z" fill="#66E1FF"/>
<path d="M18.6957 15.3483H23.0001V11.0439" stroke="#191919" stroke-linecap="round" stroke-linejoin="round"/>
<path d="M22.6731 15.3482C22.2494 14.1491 21.4395 13.1247 20.3705 12.4359C19.3015 11.747 18.034 11.4327 16.767 11.5424C15.5 11.652 14.3053 12.1793 13.3706 13.0416C12.4358 13.9038 11.8139 15.0521 11.6024 16.3061C11.391 17.5601 11.6021 18.8489 12.2026 19.9699C12.803 21.0909 13.7588 21.9808 14.9198 22.4997C16.0808 23.0187 17.3813 23.1373 18.617 22.837C19.8528 22.5367 20.9538 21.8345 21.7472 20.8406" stroke="#191919" stroke-linecap="round" stroke-linejoin="round"/>
<path d="M5.78247 20.1304H8.65205" stroke="#191919" stroke-linecap="round" stroke-linejoin="round"/>
<path d="M8.6532 15.3486V20.1313" stroke="#191919" stroke-linecap="round" stroke-linejoin="round"/>
<path d="M12.4783 10.5654H3.39132C2.7571 10.5654 2.14886 10.8174 1.7004 11.2658C1.25194 11.7143 1 12.3225 1 12.9567C1 13.591 1.25194 14.1992 1.7004 14.6477C2.14886 15.0961 2.7571 15.3481 3.39132 15.3481H9.60875" stroke="#191919" stroke-linecap="round" stroke-linejoin="round"/>
<path d="M17.261 8.17403C17.261 7.53982 17.009 6.93158 16.5606 6.48312C16.1121 6.03466 15.5039 5.78271 14.8697 5.78271H3.39132C3.07729 5.78271 2.76633 5.84457 2.4762 5.96474C2.18607 6.08492 1.92246 6.26106 1.7004 6.48312C1.47835 6.70517 1.3022 6.96879 1.18203 7.25892C1.06185 7.54904 1 7.86 1 8.17403C1 8.48807 1.06185 8.79902 1.18203 9.08915C1.3022 9.37928 1.47835 9.6429 1.7004 9.86495C1.92246 10.087 2.18607 10.2632 2.4762 10.3833C2.76633 10.5035 3.07729 10.5654 3.39132 10.5654H12.4783" stroke="#191919" stroke-linecap="round" stroke-linejoin="round"/>
<path d="M17.261 3.39181C17.261 2.75759 17.009 2.14935 16.5606 1.70089C16.1121 1.25243 15.5039 1.00049 14.8697 1.00049H3.39132C2.7571 1.00049 2.14886 1.25243 1.7004 1.70089C1.25194 2.14935 1 2.75759 1 3.39181C1 4.02603 1.25194 4.63427 1.7004 5.08273C2.14886 5.53119 2.7571 5.78313 3.39132 5.78313H14.8697C15.1837 5.78313 15.4946 5.72127 15.7848 5.6011C16.0749 5.48092 16.3385 5.30478 16.5606 5.08273C16.7826 4.86067 16.9588 4.59705 17.0789 4.30693C17.1991 4.0168 17.261 3.70584 17.261 3.39181Z" stroke="#191919" stroke-linecap="round" stroke-linejoin="round"/>
<path d="M4.58679 3.6311C4.52337 3.6311 4.46254 3.6059 4.4177 3.56106C4.37285 3.51621 4.34766 3.45539 4.34766 3.39196C4.34766 3.32854 4.37285 3.26772 4.4177 3.22287C4.46254 3.17803 4.52337 3.15283 4.58679 3.15283" stroke="#191919"/>
<path d="M4.58704 3.6311C4.65046 3.6311 4.71128 3.6059 4.75613 3.56106C4.80097 3.51621 4.82617 3.45539 4.82617 3.39196C4.82617 3.32854 4.80097 3.26772 4.75613 3.22287C4.71128 3.17803 4.65046 3.15283 4.58704 3.15283" stroke="#191919"/>
<path d="M4.58679 8.41283C4.52337 8.41283 4.46254 8.38764 4.4177 8.34279C4.37285 8.29795 4.34766 8.23712 4.34766 8.1737C4.34766 8.11028 4.37285 8.04946 4.4177 8.00461C4.46254 7.95976 4.52337 7.93457 4.58679 7.93457" stroke="#191919"/>
<path d="M4.58704 8.41283C4.65046 8.41283 4.71128 8.38764 4.75613 8.34279C4.80097 8.29795 4.82617 8.23712 4.82617 8.1737C4.82617 8.11028 4.80097 8.04946 4.75613 8.00461C4.71128 7.95976 4.65046 7.93457 4.58704 7.93457" stroke="#191919"/>
<path d="M4.58679 13.196C4.55538 13.196 4.52429 13.1899 4.49528 13.1778C4.46626 13.1658 4.4399 13.1482 4.4177 13.126C4.39549 13.1038 4.37788 13.0774 4.36586 13.0484C4.35384 13.0194 4.34766 12.9883 4.34766 12.9569C4.34766 12.9255 4.35384 12.8944 4.36586 12.8654C4.37788 12.8364 4.39549 12.81 4.4177 12.7878C4.4399 12.7656 4.46626 12.748 4.49528 12.736C4.52429 12.724 4.55538 12.7178 4.58679 12.7178" stroke="#191919"/>
<path d="M4.58704 13.196C4.61844 13.196 4.64954 13.1899 4.67855 13.1778C4.70756 13.1658 4.73392 13.1482 4.75613 13.126C4.77833 13.1038 4.79595 13.0774 4.80797 13.0484C4.81998 13.0194 4.82617 12.9883 4.82617 12.9569C4.82617 12.9255 4.81998 12.8944 4.80797 12.8654C4.79595 12.8364 4.77833 12.81 4.75613 12.7878C4.73392 12.7656 4.70756 12.748 4.67855 12.736C4.64954 12.724 4.61844 12.7178 4.58704 12.7178" stroke="#191919"/>
<path d="M1.23913 20.1311C1.17571 20.1311 1.11489 20.1059 1.07004 20.0611C1.02519 20.0162 1 19.9554 1 19.892C1 19.8285 1.02519 19.7677 1.07004 19.7229C1.11489 19.678 1.17571 19.6528 1.23913 19.6528" stroke="#191919"/>
<path d="M1.23901 20.1311C1.30244 20.1311 1.36326 20.1059 1.40811 20.0611C1.45295 20.0162 1.47815 19.9554 1.47815 19.892C1.47815 19.8285 1.45295 19.7677 1.40811 19.7229C1.36326 19.678 1.30244 19.6528 1.23901 19.6528" stroke="#191919"/>
<path d="M6.97827 3.6311C6.91485 3.6311 6.85402 3.6059 6.80918 3.56106C6.76433 3.51621 6.73914 3.45539 6.73914 3.39196C6.73914 3.32854 6.76433 3.26772 6.80918 3.22287C6.85402 3.17803 6.91485 3.15283 6.97827 3.15283" stroke="#191919"/>
<path d="M6.97827 3.6311C7.04169 3.6311 7.10252 3.6059 7.14736 3.56106C7.19221 3.51621 7.2174 3.45539 7.2174 3.39196C7.2174 3.32854 7.19221 3.26772 7.14736 3.22287C7.10252 3.17803 7.04169 3.15283 6.97827 3.15283" stroke="#191919"/>
<path d="M6.97827 8.41283C6.91485 8.41283 6.85402 8.38764 6.80918 8.34279C6.76433 8.29795 6.73914 8.23712 6.73914 8.1737C6.73914 8.11028 6.76433 8.04946 6.80918 8.00461C6.85402 7.95976 6.91485 7.93457 6.97827 7.93457" stroke="#191919"/>
<path d="M6.97827 8.41283C7.04169 8.41283 7.10252 8.38764 7.14736 8.34279C7.19221 8.29795 7.2174 8.23712 7.2174 8.1737C7.2174 8.11028 7.19221 8.04946 7.14736 8.00461C7.10252 7.95976 7.04169 7.93457 6.97827 7.93457" stroke="#191919"/>
<path d="M6.97827 13.196C6.94686 13.196 6.91577 13.1899 6.88676 13.1778C6.85774 13.1658 6.83138 13.1482 6.80918 13.126C6.78697 13.1038 6.76936 13.0774 6.75734 13.0484C6.74532 13.0194 6.73914 12.9883 6.73914 12.9569C6.73914 12.9255 6.74532 12.8944 6.75734 12.8654C6.76936 12.8364 6.78697 12.81 6.80918 12.7878C6.83138 12.7656 6.85774 12.748 6.88676 12.736C6.91577 12.724 6.94686 12.7178 6.97827 12.7178" stroke="#191919"/>
<path d="M6.97827 13.196C7.00967 13.196 7.04077 13.1899 7.06978 13.1778C7.0988 13.1658 7.12516 13.1482 7.14736 13.126C7.16957 13.1038 7.18718 13.0774 7.1992 13.0484C7.21122 13.0194 7.2174 12.9883 7.2174 12.9569C7.2174 12.9255 7.21122 12.8944 7.1992 12.8654C7.18718 12.8364 7.16957 12.81 7.14736 12.7878C7.12516 12.7656 7.0988 12.748 7.06978 12.736C7.04077 12.724 7.00967 12.7178 6.97827 12.7178" stroke="#191919"/>
<path d="M3.63037 20.1311C3.56695 20.1311 3.50612 20.1059 3.46128 20.0611C3.41643 20.0162 3.39124 19.9554 3.39124 19.892C3.39124 19.8285 3.41643 19.7677 3.46128 19.7229C3.50612 19.678 3.56695 19.6528 3.63037 19.6528" stroke="#191919"/>
<path d="M3.63025 20.1311C3.69367 20.1311 3.75449 20.1059 3.79934 20.0611C3.84419 20.0162 3.86938 19.9554 3.86938 19.892C3.86938 19.8285 3.84419 19.7677 3.79934 19.7229C3.75449 19.678 3.69367 19.6528 3.63025 19.6528" stroke="#191919"/>
</g>
<defs>
<clipPath id="clip0_5303_6832">
<rect width="24" height="24" fill="white"/>
</clipPath>
</defs>
</svg>
