<svg width="24" height="24" viewBox="0 0 24 24" fill="none" xmlns="http://www.w3.org/2000/svg">
<g clip-path="url(#clip0_5303_6740)">
<path d="M21.0871 16.3046C21.0871 16.812 20.8855 17.2986 20.5268 17.6574C20.168 18.0161 19.6814 18.2177 19.174 18.2177H2.91306C2.40568 18.2177 1.91909 18.0161 1.56032 17.6574C1.20155 17.2986 1 16.812 1 16.3046V14.3916C1 13.8842 1.20155 13.3976 1.56032 13.0388C1.91909 12.6801 2.40568 12.4785 2.91306 12.4785H19.174C19.6814 12.4785 20.168 12.6801 20.5268 13.0388C20.8855 13.3976 21.0871 13.8842 21.0871 14.3916V16.3046Z" fill="#E3E3E3"/>
<path d="M19.174 12.4785H2.91306C2.40568 12.4785 1.91909 12.6801 1.56032 13.0388C1.20155 13.3976 1 13.8842 1 14.3916V16.3046C1 15.7973 1.20155 15.3107 1.56032 14.9519C1.91909 14.5931 2.40568 14.3916 2.91306 14.3916H19.174C19.6814 14.3916 20.168 14.5931 20.5268 14.9519C20.8855 15.3107 21.0871 15.7973 21.0871 16.3046V14.3916C21.0871 13.8842 20.8855 13.3976 20.5268 13.0388C20.168 12.6801 19.6814 12.4785 19.174 12.4785Z" fill="white"/>
<path d="M21.0871 10.5654C21.0871 11.0727 20.8855 11.5593 20.5268 11.9181C20.168 12.2769 19.6814 12.4784 19.174 12.4784H2.91306C2.40568 12.4784 1.91909 12.2769 1.56032 11.9181C1.20155 11.5593 1 11.0727 1 10.5654V8.65231C1 8.14494 1.20155 7.65835 1.56032 7.29958C1.91909 6.94081 2.40568 6.73926 2.91306 6.73926H19.174C19.6814 6.73926 20.168 6.94081 20.5268 7.29958C20.8855 7.65835 21.0871 8.14494 21.0871 8.65231V10.5654Z" fill="#E3E3E3"/>
<path d="M19.174 6.73926H2.91306C2.40568 6.73926 1.91909 6.94081 1.56032 7.29958C1.20155 7.65835 1 8.14494 1 8.65231V10.5654C1 10.3141 1.04948 10.0654 1.14562 9.83328C1.24176 9.60117 1.38268 9.39028 1.56032 9.21264C1.73796 9.03499 1.94886 8.89408 2.18096 8.79794C2.41306 8.7018 2.66183 8.65231 2.91306 8.65231H19.174C19.4253 8.65231 19.674 8.7018 19.9061 8.79794C20.1382 8.89408 20.3491 9.03499 20.5268 9.21264C20.7044 9.39028 20.8453 9.60117 20.9415 9.83328C21.0376 10.0654 21.0871 10.3141 21.0871 10.5654V8.65231C21.0871 8.14494 20.8855 7.65835 20.5268 7.29958C20.168 6.94081 19.6814 6.73926 19.174 6.73926Z" fill="white"/>
<path d="M21.0871 4.82611C21.0871 5.33349 20.8855 5.82008 20.5268 6.17885C20.168 6.53761 19.6814 6.73917 19.174 6.73917H2.91306C2.40568 6.73917 1.91909 6.53761 1.56032 6.17885C1.20155 5.82008 1 5.33349 1 4.82611V2.91306C1 2.40568 1.20155 1.91909 1.56032 1.56032C1.91909 1.20155 2.40568 1 2.91306 1H19.174C19.6814 1 20.168 1.20155 20.5268 1.56032C20.8855 1.91909 21.0871 2.40568 21.0871 2.91306V4.82611Z" fill="#E3E3E3"/>
<path d="M19.174 1H2.91306C2.40568 1 1.91909 1.20155 1.56032 1.56032C1.20155 1.91909 1 2.40568 1 2.91306V4.82611C1 4.31874 1.20155 3.83214 1.56032 3.47338C1.91909 3.11461 2.40568 2.91306 2.91306 2.91306H19.174C19.6814 2.91306 20.168 3.11461 20.5268 3.47338C20.8855 3.83214 21.0871 4.31874 21.0871 4.82611V2.91306C21.0871 2.40568 20.8855 1.91909 20.5268 1.56032C20.168 1.20155 19.6814 1 19.174 1Z" fill="white"/>
<path d="M21.0871 4.82611C21.0871 5.33349 20.8855 5.82008 20.5268 6.17885C20.168 6.53761 19.6814 6.73917 19.174 6.73917H2.91306C2.40568 6.73917 1.91909 6.53761 1.56032 6.17885C1.20155 5.82008 1 5.33349 1 4.82611V2.91306C1 2.40568 1.20155 1.91909 1.56032 1.56032C1.91909 1.20155 2.40568 1 2.91306 1H19.174C19.6814 1 20.168 1.20155 20.5268 1.56032C20.8855 1.91909 21.0871 2.40568 21.0871 2.91306V4.82611Z" stroke="#191919" stroke-linecap="round" stroke-linejoin="round"/>
<path d="M2.91306 12.4784C2.40568 12.4784 1.91909 12.2769 1.56032 11.9181C1.20155 11.5593 1 11.0727 1 10.5654V8.65231C1 8.14494 1.20155 7.65835 1.56032 7.29958C1.91909 6.94081 2.40568 6.73926 2.91306 6.73926H19.174C19.6814 6.73926 20.168 6.94081 20.5268 7.29958C20.8855 7.65835 21.0871 8.14494 21.0871 8.65231V10.0871" stroke="#191919" stroke-linecap="round" stroke-linejoin="round"/>
<path d="M9.13049 18.2177H2.91306C2.40568 18.2177 1.91909 18.0161 1.56032 17.6574C1.20155 17.2986 1 16.812 1 16.3046V14.3916C1 14.1403 1.04948 13.8916 1.14562 13.6595C1.24176 13.4274 1.38268 13.2165 1.56032 13.0388C1.73796 12.8612 1.94886 12.7203 2.18096 12.6241C2.41306 12.528 2.66183 12.4785 2.91306 12.4785H10.5653" stroke="#191919" stroke-linecap="round" stroke-linejoin="round"/>
<path d="M17.2608 22.9993C18.7829 22.9993 20.2427 22.3947 21.319 21.3184C22.3953 20.2421 22.9999 18.7823 22.9999 17.2602C22.9999 15.738 22.3953 14.2783 21.319 13.202C20.2427 12.1257 18.7829 11.521 17.2608 11.521C15.7387 11.521 14.2789 12.1257 13.2026 13.202C12.1263 14.2783 11.5216 15.738 11.5216 17.2602C11.5216 18.7823 12.1263 20.2421 13.2026 21.3184C14.2789 22.3947 15.7387 22.9993 17.2608 22.9993Z" fill="#78EB7B"/>
<path d="M21.3194 13.2021C20.243 12.1257 18.7831 11.521 17.2609 11.521C15.7386 11.521 14.2787 12.1257 13.2023 13.2021C12.126 14.2785 11.5212 15.7384 11.5212 17.2607C11.5212 18.7829 12.126 20.2428 13.2023 21.3192L21.3194 13.2021Z" fill="#C9F7CA"/>
<path d="M17.2608 22.9993C18.7829 22.9993 20.2427 22.3947 21.319 21.3184C22.3953 20.2421 22.9999 18.7823 22.9999 17.2602C22.9999 15.738 22.3953 14.2783 21.319 13.202C20.2427 12.1257 18.7829 11.521 17.2608 11.521C15.7387 11.521 14.2789 12.1257 13.2026 13.202C12.1263 14.2783 11.5216 15.738 11.5216 17.2602C11.5216 18.7823 12.1263 20.2421 13.2026 21.3184C14.2789 22.3947 15.7387 22.9993 17.2608 22.9993Z" stroke="#191919" stroke-linecap="round" stroke-linejoin="round"/>
<path d="M17.2609 14.3906V20.1298" stroke="#191919" stroke-linecap="round" stroke-linejoin="round"/>
<path d="M20.1304 17.2603H14.3912" stroke="#191919" stroke-linecap="round" stroke-linejoin="round"/>
<path d="M5.06518 4.10815C5.00176 4.10815 4.94094 4.08295 4.89609 4.03811C4.85124 3.99326 4.82605 3.93244 4.82605 3.86901C4.82605 3.80559 4.85124 3.74477 4.89609 3.69992C4.94094 3.65508 5.00176 3.62988 5.06518 3.62988" stroke="#191919"/>
<path d="M5.06506 4.10815C5.12849 4.10815 5.18931 4.08295 5.23416 4.03811C5.279 3.99326 5.3042 3.93244 5.3042 3.86901C5.3042 3.80559 5.279 3.74477 5.23416 3.69992C5.18931 3.65508 5.12849 3.62988 5.06506 3.62988" stroke="#191919"/>
<path d="M5.06518 9.8474C5.00176 9.8474 4.94094 9.82221 4.89609 9.77736C4.85124 9.73252 4.82605 9.67169 4.82605 9.60827C4.82605 9.54485 4.85124 9.48403 4.89609 9.43918C4.94094 9.39434 5.00176 9.36914 5.06518 9.36914" stroke="#191919"/>
<path d="M5.06506 9.8474C5.12849 9.8474 5.18931 9.82221 5.23416 9.77736C5.279 9.73252 5.3042 9.67169 5.3042 9.60827C5.3042 9.54485 5.279 9.48403 5.23416 9.43918C5.18931 9.39434 5.12849 9.36914 5.06506 9.36914" stroke="#191919"/>
<path d="M5.06518 15.5867C5.00176 15.5867 4.94094 15.5615 4.89609 15.5166C4.85124 15.4718 4.82605 15.411 4.82605 15.3475C4.82605 15.2841 4.85124 15.2233 4.89609 15.1784C4.94094 15.1336 5.00176 15.1084 5.06518 15.1084" stroke="#191919"/>
<path d="M5.06506 15.5867C5.12849 15.5867 5.18931 15.5615 5.23416 15.5166C5.279 15.4718 5.3042 15.411 5.3042 15.3475C5.3042 15.2841 5.279 15.2233 5.23416 15.1784C5.18931 15.1336 5.12849 15.1084 5.06506 15.1084" stroke="#191919"/>
<path d="M8.41308 4.10815C8.34966 4.10815 8.28884 4.08295 8.24399 4.03811C8.19914 3.99326 8.17395 3.93244 8.17395 3.86901C8.17395 3.80559 8.19914 3.74477 8.24399 3.69992C8.28884 3.65508 8.34966 3.62988 8.41308 3.62988" stroke="#191919"/>
<path d="M8.41296 4.10815C8.47639 4.10815 8.53721 4.08295 8.58206 4.03811C8.6269 3.99326 8.6521 3.93244 8.6521 3.86901C8.6521 3.80559 8.6269 3.74477 8.58206 3.69992C8.53721 3.65508 8.47639 3.62988 8.41296 3.62988" stroke="#191919"/>
<path d="M8.41308 9.8474C8.34966 9.8474 8.28884 9.82221 8.24399 9.77736C8.19914 9.73252 8.17395 9.67169 8.17395 9.60827C8.17395 9.54485 8.19914 9.48403 8.24399 9.43918C8.28884 9.39434 8.34966 9.36914 8.41308 9.36914" stroke="#191919"/>
<path d="M8.41296 9.8474C8.47639 9.8474 8.53721 9.82221 8.58206 9.77736C8.6269 9.73252 8.6521 9.67169 8.6521 9.60827C8.6521 9.54485 8.6269 9.48403 8.58206 9.43918C8.53721 9.39434 8.47639 9.36914 8.41296 9.36914" stroke="#191919"/>
<path d="M8.41308 15.5867C8.34966 15.5867 8.28884 15.5615 8.24399 15.5166C8.19914 15.4718 8.17395 15.411 8.17395 15.3475C8.17395 15.2841 8.19914 15.2233 8.24399 15.1784C8.28884 15.1336 8.34966 15.1084 8.41308 15.1084" stroke="#191919"/>
<path d="M8.41296 15.5867C8.47639 15.5867 8.53721 15.5615 8.58206 15.5166C8.6269 15.4718 8.6521 15.411 8.6521 15.3475C8.6521 15.2841 8.6269 15.2233 8.58206 15.1784C8.53721 15.1336 8.47639 15.1084 8.41296 15.1084" stroke="#191919"/>
</g>
<defs>
<clipPath id="clip0_5303_6740">
<rect width="24" height="24" fill="white"/>
</clipPath>
</defs>
</svg>
