<svg width="24" height="24" viewBox="0 0 24 24" fill="none" xmlns="http://www.w3.org/2000/svg">
<path d="M1.4585 16.125V2.37498C1.4585 2.13186 1.55507 1.89871 1.72698 1.7268C1.89889 1.55489 2.13205 1.45831 2.37516 1.45831H21.6252C21.8683 1.45831 22.1014 1.55489 22.2733 1.7268C22.4453 1.89871 22.5418 2.13186 22.5418 2.37498V16.125H1.4585Z" fill="#66E1FF"/>
<path d="M19.3335 1.45831H2.37516C2.13205 1.45831 1.89889 1.55489 1.72698 1.7268C1.55507 1.89871 1.4585 2.13186 1.4585 2.37498V16.125H4.66683L19.3335 1.45831Z" fill="#C2F3FF"/>
<path d="M1.4585 16.125H22.5418V17.9583C22.5418 18.2014 22.4453 18.4346 22.2733 18.6065C22.1014 18.7784 21.8683 18.875 21.6252 18.875H2.37516C2.13205 18.875 1.89889 18.7784 1.72698 18.6065C1.55507 18.4346 1.4585 18.2014 1.4585 17.9583V16.125Z" fill="white"/>
<path d="M14.6235 22.5417C13.8638 21.4647 13.4304 20.1918 13.375 18.875H10.625C10.5695 20.1918 10.1361 21.4647 9.37646 22.5417H14.6235Z" fill="#E3E3E3" stroke="#191919" stroke-linecap="round" stroke-linejoin="round"/>
<path d="M7.875 22.5426H16.125" stroke="#191919" stroke-linecap="round" stroke-linejoin="round"/>
<path d="M1.4585 16.1259H22.5418" stroke="#191919" stroke-linecap="round" stroke-linejoin="round"/>
<path d="M21.6252 1.45923H2.37516C2.13205 1.45923 1.89889 1.55581 1.72698 1.72771C1.55507 1.89962 1.4585 2.13278 1.4585 2.3759V17.9592C1.4585 18.2023 1.55507 18.4355 1.72698 18.6074C1.89889 18.7793 2.13205 18.8759 2.37516 18.8759H21.6252C21.8683 18.8759 22.1014 18.7793 22.2733 18.6074C22.4453 18.4355 22.5418 18.2023 22.5418 17.9592V2.3759C22.5418 2.13278 22.4453 1.89962 22.2733 1.72771C22.1014 1.55581 21.8683 1.45923 21.6252 1.45923Z" stroke="#191919" stroke-linecap="round" stroke-linejoin="round"/>
<path d="M8.3335 8.33423C8.69817 8.33423 9.04791 8.18936 9.30577 7.9315C9.56363 7.67364 9.7085 7.3239 9.7085 6.95923C9.7085 6.59456 9.56363 6.24482 9.30577 5.98696C9.04791 5.72909 8.69817 5.58423 8.3335 5.58423C7.96882 5.58423 7.61909 5.72909 7.36122 5.98696C7.10336 6.24482 6.9585 6.59456 6.9585 6.95923C6.9585 7.3239 7.10336 7.67364 7.36122 7.9315C7.61909 8.18936 7.96882 8.33423 8.3335 8.33423Z" fill="#808080" stroke="#191919" stroke-linecap="round" stroke-linejoin="round"/>
<path d="M15.6665 12.9176C16.0312 12.9176 16.3809 12.7727 16.6388 12.5149C16.8966 12.257 17.0415 11.9073 17.0415 11.5426C17.0415 11.1779 16.8966 10.8282 16.6388 10.5703C16.3809 10.3125 16.0312 10.1676 15.6665 10.1676C15.3018 10.1676 14.9521 10.3125 14.6942 10.5703C14.4364 10.8282 14.2915 11.1779 14.2915 11.5426C14.2915 11.9073 14.4364 12.257 14.6942 12.5149C14.9521 12.7727 15.3018 12.9176 15.6665 12.9176Z" fill="#808080" stroke="#191919" stroke-linecap="round" stroke-linejoin="round"/>
<path d="M5.125 6.95923H6.95833" stroke="#191919" stroke-linecap="round" stroke-linejoin="round"/>
<path d="M9.7085 6.95923H18.8752" stroke="#191919" stroke-linecap="round" stroke-linejoin="round"/>
<path d="M14.2917 11.5426H5.125" stroke="#191919" stroke-linecap="round" stroke-linejoin="round"/>
<path d="M17.0415 11.5426H18.8748" stroke="#191919" stroke-linecap="round" stroke-linejoin="round"/>
</svg>
