<svg width="24" height="24" viewBox="0 0 24 24" fill="none" xmlns="http://www.w3.org/2000/svg">
<path d="M6.04183 7.41669H17.9585C19.1741 7.41669 20.3399 7.89957 21.1994 8.75912C22.0589 9.61866 22.5418 10.7844 22.5418 12C22.5418 13.2156 22.0589 14.3814 21.1994 15.2409C20.3399 16.1005 19.1741 16.5834 17.9585 16.5834H6.04183C4.82626 16.5834 3.66047 16.1005 2.80093 15.2409C1.94138 14.3814 1.4585 13.2156 1.4585 12C1.4585 10.7844 1.94138 9.61866 2.80093 8.75912C3.66047 7.89957 4.82626 7.41669 6.04183 7.41669Z" fill="#E3E3E3"/>
<path d="M1.4585 12C1.4585 10.7844 1.94138 9.61866 2.80093 8.75912C3.66047 7.89957 4.82626 7.41669 6.04183 7.41669H17.9585C19.1741 7.41669 20.3399 7.89957 21.1994 8.75912C22.0589 9.61866 22.5418 10.7844 22.5418 12H1.4585Z" fill="white"/>
<path d="M6.04183 7.41669H17.9585C19.1741 7.41669 20.3399 7.89957 21.1994 8.75912C22.0589 9.61866 22.5418 10.7844 22.5418 12C22.5418 13.2156 22.0589 14.3814 21.1994 15.2409C20.3399 16.1005 19.1741 16.5834 17.9585 16.5834H6.04183C4.82626 16.5834 3.66047 16.1005 2.80093 15.2409C1.94138 14.3814 1.4585 13.2156 1.4585 12C1.4585 10.7844 1.94138 9.61866 2.80093 8.75912C3.66047 7.89957 4.82626 7.41669 6.04183 7.41669Z" stroke="#191919" stroke-linecap="round" stroke-linejoin="round"/>
<path d="M17.5 9.70923V14.2926" stroke="#191919" stroke-linecap="round" stroke-linejoin="round"/>
<path d="M15.6665 9.70923V14.2926" stroke="#191919" stroke-linecap="round" stroke-linejoin="round"/>
</svg>
