<svg width="24" height="24" viewBox="0 0 24 24" fill="none" xmlns="http://www.w3.org/2000/svg">
<path d="M19.4921 19.1956L12.3633 1.3755C12.1673 0.874833 11.8322 0.874833 11.6363 1.3755L4.50552 19.1995C4.29501 19.4371 4.17347 19.7405 4.16162 20.0577C4.16162 21.6842 7.6692 22.9971 11.9998 22.9971C16.3304 22.9971 19.8379 21.6842 19.8379 20.0577C19.8278 19.7386 19.7054 19.4332 19.4921 19.1956Z" fill="#FFEF5E"/>
<path d="M4.52979 19.1387L11.6361 1.3755C11.832 0.874833 12.1632 0.874833 12.363 1.3755L19.4693 19.1387" stroke="#191919" stroke-linecap="round" stroke-linejoin="round"/>
<path d="M11.9998 23C16.3284 23 19.8379 21.6842 19.8379 20.0607C19.8379 18.4372 16.3284 17.1214 11.9998 17.1214C7.67116 17.1214 4.16162 18.4372 4.16162 20.0607C4.16162 21.6842 7.67116 23 11.9998 23Z" stroke="#191919" stroke-linecap="round" stroke-linejoin="round"/>
</svg>
