<svg width="24" height="24" viewBox="0 0 24 24" fill="none" xmlns="http://www.w3.org/2000/svg">
<g clip-path="url(#clip0_5303_4515)">
<mask id="mask0_5303_4515" style="mask-type:luminance" maskUnits="userSpaceOnUse" x="0" y="0" width="24" height="24">
<path d="M0 0H24V24H0V0Z" fill="white"/>
</mask>
<g mask="url(#mask0_5303_4515)">
<path d="M1 1.95651C1 1.70283 1.10078 1.45954 1.28016 1.28016C1.45954 1.10078 1.70283 1 1.95651 1H9.60862C9.8623 1 10.1056 1.10078 10.285 1.28016C10.4644 1.45954 10.5651 1.70283 10.5651 1.95651V9.60862C10.5651 9.8623 10.4644 10.1056 10.285 10.285C10.1056 10.4644 9.8623 10.5651 9.60862 10.5651H1.95651C1.70283 10.5651 1.45954 10.4644 1.28016 10.285C1.10078 10.1056 1 9.8623 1 9.60862V1.95651Z" fill="#C2F3FF"/>
<path d="M6.66923 22.5483C6.56755 22.6882 6.4342 22.8021 6.28009 22.8806C6.12599 22.9591 5.95549 23 5.78254 23C5.60959 23 5.4391 22.9591 5.28499 22.8806C5.13088 22.8021 4.99754 22.6882 4.89585 22.5483L1.86753 18.3837C1.73087 18.1965 1.65723 17.9707 1.65723 17.739C1.65723 17.5072 1.73087 17.2814 1.86753 17.0943L4.89585 12.9296C4.99754 12.7897 5.13088 12.6759 5.28499 12.5974C5.4391 12.5189 5.60959 12.4779 5.78254 12.4779C5.95549 12.4779 6.12599 12.5189 6.28009 12.5974C6.4342 12.6759 6.56755 12.7897 6.66923 12.9296L9.69755 17.0943C9.83421 17.2814 9.90786 17.5072 9.90786 17.739C9.90786 17.9707 9.83421 18.1965 9.69755 18.3837L6.66923 22.5483Z" fill="#FFBFC5"/>
<path d="M18.2171 10.5651C18.8452 10.5651 19.4671 10.4414 20.0473 10.2011C20.6276 9.96074 21.1548 9.60845 21.5989 9.16435C22.043 8.72025 22.3953 8.19302 22.6357 7.61278C22.876 7.03253 22.9997 6.41062 22.9997 5.78257C22.9997 5.15451 22.876 4.53261 22.6357 3.95236C22.3953 3.37211 22.043 2.84488 21.5989 2.40078C21.1548 1.95668 20.6276 1.6044 20.0473 1.36405C19.4671 1.1237 18.8452 1 18.2171 1C16.9487 1 15.7323 1.50388 14.8354 2.40078C13.9384 3.29769 13.4346 4.51415 13.4346 5.78257C13.4346 7.05098 13.9384 8.26745 14.8354 9.16435C15.7323 10.0613 16.9487 10.5651 18.2171 10.5651Z" fill="#FFF9BF"/>
<path d="M17.6055 13.8718C17.5211 13.7284 17.4008 13.6095 17.2563 13.5269C17.1119 13.4443 16.9484 13.4008 16.782 13.4008C16.6156 13.4008 16.4521 13.4443 16.3076 13.5269C16.1632 13.6095 16.0428 13.7284 15.9584 13.8718L11.4178 21.5564C11.332 21.7016 11.286 21.8669 11.2847 22.0356C11.2833 22.2043 11.3266 22.3703 11.4102 22.5169C11.4937 22.6634 11.6145 22.7853 11.7603 22.8701C11.9061 22.9549 12.0718 22.9996 12.2404 22.9998H21.3273C21.496 22.9996 21.6617 22.9549 21.8075 22.8701C21.9533 22.7853 22.0741 22.6634 22.1576 22.5169C22.2411 22.3703 22.2844 22.2043 22.2831 22.0356C22.2817 21.8669 22.2358 21.7016 22.1499 21.5564L17.6055 13.8718Z" fill="#C9F7CA"/>
<path d="M9.60862 8.57559H1.95651C1.8309 8.57559 1.70652 8.55085 1.59047 8.50278C1.47442 8.45471 1.36898 8.38426 1.28016 8.29544C1.19134 8.20662 1.12088 8.10117 1.07281 7.98512C1.02474 7.86907 1 7.74469 1 7.61908V9.60863C1 9.86231 1.10078 10.1056 1.28016 10.285C1.45954 10.4643 1.70283 10.5651 1.95651 10.5651H9.60862C9.8623 10.5651 10.1056 10.4643 10.285 10.285C10.4644 10.1056 10.5651 9.86231 10.5651 9.60863V7.61908C10.5651 7.74469 10.5404 7.86907 10.4923 7.98512C10.4443 8.10117 10.3738 8.20662 10.285 8.29544C10.1962 8.38426 10.0907 8.45471 9.97466 8.50278C9.85861 8.55085 9.73423 8.57559 9.60862 8.57559Z" fill="#66E1FF"/>
<path d="M7.12123 20.2431C6.74402 20.5504 6.26836 20.7107 5.78211 20.6946C5.29579 20.7112 4.81994 20.5508 4.44299 20.2431L1.65954 17.7036C1.64997 17.9465 1.72171 18.1866 1.86423 18.3836L4.89255 22.5483C4.99424 22.6882 5.12758 22.802 5.28169 22.8805C5.4358 22.959 5.60629 23 5.77924 23C5.95219 23 6.12268 22.959 6.27679 22.8805C6.4309 22.802 6.56424 22.6882 6.66593 22.5483L9.69425 18.3836C9.83677 18.1866 9.90851 17.9465 9.89894 17.7036L7.12123 20.2431Z" fill="#FF808C"/>
<path d="M18.2171 8.46746C17.1326 8.46605 16.0808 8.09609 15.2342 7.41826C14.3876 6.74043 13.7966 5.795 13.558 4.73706C13.3955 5.43829 13.3934 6.16714 13.5519 6.86928C13.7104 7.57142 14.0253 8.22874 14.4731 8.79223C14.921 9.35571 15.4903 9.81084 16.1386 10.1237C16.7868 10.4365 17.4973 10.599 18.2171 10.599C18.9369 10.599 19.6475 10.4365 20.2957 10.1237C20.944 9.81084 21.5133 9.35571 21.9611 8.79223C22.409 8.22874 22.7239 7.57142 22.8824 6.86928C23.0408 6.16714 23.0388 5.43829 22.8763 4.73706C22.6377 5.795 22.0466 6.74043 21.2001 7.41826C20.3535 8.09609 19.3016 8.46605 18.2171 8.46746Z" fill="#FFEF5E"/>
<path d="M21.9156 21.1595C21.7493 21.2952 21.5419 21.3704 21.3273 21.3728H12.2404C12.0259 21.3704 11.8184 21.2952 11.6522 21.1595L11.4178 21.5564C11.332 21.7016 11.286 21.867 11.2847 22.0356C11.2833 22.2043 11.3266 22.3704 11.4102 22.5169C11.4937 22.6635 11.6145 22.7853 11.7603 22.8701C11.9061 22.9549 12.0718 22.9997 12.2404 22.9998H21.3273C21.496 22.9997 21.6617 22.9549 21.8075 22.8701C21.9533 22.7853 22.0741 22.6635 22.1576 22.5169C22.2411 22.3704 22.2844 22.2043 22.2831 22.0356C22.2817 21.867 22.2358 21.7016 22.1499 21.5564L21.9156 21.1595Z" fill="#78EB7B"/>
<path d="M1 1.95651C1 1.70283 1.10078 1.45954 1.28016 1.28016C1.45954 1.10078 1.70283 1 1.95651 1H9.60862C9.8623 1 10.1056 1.10078 10.285 1.28016C10.4644 1.45954 10.5651 1.70283 10.5651 1.95651V9.60862C10.5651 9.8623 10.4644 10.1056 10.285 10.285C10.1056 10.4644 9.8623 10.5651 9.60862 10.5651H1.95651C1.70283 10.5651 1.45954 10.4644 1.28016 10.285C1.10078 10.1056 1 9.8623 1 9.60862V1.95651Z" stroke="#191919" stroke-linecap="round" stroke-linejoin="round"/>
<path d="M6.66923 22.5483C6.56755 22.6882 6.4342 22.8021 6.28009 22.8806C6.12599 22.9591 5.95549 23 5.78254 23C5.60959 23 5.4391 22.9591 5.28499 22.8806C5.13088 22.8021 4.99754 22.6882 4.89585 22.5483L1.86753 18.3837C1.73087 18.1965 1.65723 17.9707 1.65723 17.739C1.65723 17.5072 1.73087 17.2814 1.86753 17.0943L4.89585 12.9296C4.99754 12.7897 5.13088 12.6759 5.28499 12.5974C5.4391 12.5189 5.60959 12.4779 5.78254 12.4779C5.95549 12.4779 6.12599 12.5189 6.28009 12.5974C6.4342 12.6759 6.56755 12.7897 6.66923 12.9296L9.69755 17.0943C9.83421 17.2814 9.90786 17.5072 9.90786 17.739C9.90786 17.9707 9.83421 18.1965 9.69755 18.3837L6.66923 22.5483Z" stroke="#191919" stroke-linecap="round" stroke-linejoin="round"/>
<path d="M18.2171 10.5651C18.8452 10.5651 19.4671 10.4414 20.0473 10.2011C20.6276 9.96074 21.1548 9.60845 21.5989 9.16435C22.043 8.72025 22.3953 8.19302 22.6357 7.61278C22.876 7.03253 22.9997 6.41062 22.9997 5.78257C22.9997 5.15451 22.876 4.53261 22.6357 3.95236C22.3953 3.37211 22.043 2.84488 21.5989 2.40078C21.1548 1.95668 20.6276 1.6044 20.0473 1.36405C19.4671 1.1237 18.8452 1 18.2171 1C16.9487 1 15.7323 1.50388 14.8354 2.40078C13.9384 3.29769 13.4346 4.51415 13.4346 5.78257C13.4346 7.05098 13.9384 8.26745 14.8354 9.16435C15.7323 10.0613 16.9487 10.5651 18.2171 10.5651Z" stroke="#191919" stroke-linecap="round" stroke-linejoin="round"/>
<path d="M17.6055 13.8718C17.5211 13.7284 17.4008 13.6095 17.2563 13.5269C17.1119 13.4443 16.9484 13.4008 16.782 13.4008C16.6156 13.4008 16.4521 13.4443 16.3076 13.5269C16.1632 13.6095 16.0428 13.7284 15.9584 13.8718L11.4178 21.5564C11.332 21.7016 11.286 21.8669 11.2847 22.0356C11.2833 22.2043 11.3266 22.3703 11.4102 22.5169C11.4937 22.6634 11.6145 22.7853 11.7603 22.8701C11.9061 22.9549 12.0718 22.9996 12.2404 22.9998H21.3273C21.496 22.9996 21.6617 22.9549 21.8075 22.8701C21.9533 22.7853 22.0741 22.6634 22.1576 22.5169C22.2411 22.3703 22.2844 22.2043 22.2831 22.0356C22.2817 21.8669 22.2358 21.7016 22.1499 21.5564L17.6055 13.8718Z" stroke="#191919" stroke-linecap="round" stroke-linejoin="round"/>
</g>
</g>
<defs>
<clipPath id="clip0_5303_4515">
<rect width="24" height="24" fill="white"/>
</clipPath>
</defs>
</svg>
