<svg width="24" height="24" viewBox="0 0 24 24" fill="none" xmlns="http://www.w3.org/2000/svg">
<path d="M23.0002 15.8109C23.0002 17.5651 22.3034 19.2475 21.0629 20.488C19.8225 21.7284 18.1401 22.4253 16.3859 22.4253C14.6317 22.4253 12.9493 21.7284 11.7088 20.488C10.4684 19.2475 9.77152 17.5651 9.77152 15.8109C9.76974 15.2965 9.83125 14.7838 9.95469 14.2845H14.8595C15.4192 14.2845 15.643 13.8876 15.3683 13.4094L13.3636 9.92921C14.3718 9.41133 15.4961 9.1612 16.6288 9.20283C17.7615 9.24445 18.8643 9.57642 19.8318 10.1669C20.7993 10.7573 21.5987 11.5865 22.1536 12.5748C22.7084 13.5631 22.9999 14.6775 23.0002 15.8109Z" fill="#FFEF5E"/>
<path d="M14.8584 14.2845H9.95361C10.1716 13.3546 10.5894 12.4832 11.1781 11.7311C11.7668 10.979 12.5123 10.3641 13.3626 9.9292L15.3672 13.4094C15.642 13.8876 15.4181 14.2845 14.8584 14.2845Z" fill="#FFBC44"/>
<path d="M13.3633 9.92922C12.513 10.3641 11.7675 10.9791 11.1788 11.7312C10.5902 12.4833 10.1723 13.3546 9.95438 14.2845H1.63046C1.07078 14.2845 0.836742 13.8877 1.12166 13.4094L7.73602 1.94111C7.77015 1.83344 7.83809 1.73966 7.92975 1.67367C8.02141 1.60768 8.1319 1.573 8.24482 1.57477C8.35742 1.57444 8.46724 1.60966 8.55862 1.67546C8.64999 1.74125 8.71824 1.83422 8.75362 1.94111L13.3633 9.92922Z" fill="#FF808C"/>
<path d="M23.0002 15.8109C23.0002 17.5651 22.3034 19.2475 21.0629 20.488C19.8225 21.7284 18.1401 22.4253 16.3859 22.4253C14.6317 22.4253 12.9493 21.7284 11.7088 20.488C10.4684 19.2475 9.77152 17.5651 9.77152 15.8109C9.76974 15.2965 9.83125 14.7838 9.95469 14.2845H14.8595C15.4192 14.2845 15.643 13.8876 15.3683 13.4094L13.3636 9.92921C14.3718 9.41133 15.4961 9.1612 16.6288 9.20283C17.7615 9.24445 18.8643 9.57642 19.8318 10.1669C20.7993 10.7573 21.5987 11.5865 22.1536 12.5748C22.7084 13.5631 22.9999 14.6775 23.0002 15.8109Z" stroke="#191919" stroke-linecap="round" stroke-linejoin="round"/>
<path d="M14.8584 14.2845H9.95361C10.1716 13.3546 10.5894 12.4832 11.1781 11.7311C11.7668 10.979 12.5123 10.3641 13.3626 9.9292L15.3672 13.4094C15.642 13.8876 15.4181 14.2845 14.8584 14.2845Z" stroke="#191919" stroke-linecap="round" stroke-linejoin="round"/>
<path d="M13.3633 9.92922C12.513 10.3641 11.7675 10.9791 11.1788 11.7312C10.5902 12.4833 10.1723 13.3546 9.95438 14.2845H1.63046C1.07078 14.2845 0.836742 13.8877 1.12166 13.4094L7.73602 1.94111C7.77015 1.83344 7.83809 1.73966 7.92975 1.67367C8.02141 1.60768 8.1319 1.573 8.24482 1.57477C8.35742 1.57444 8.46724 1.60966 8.55862 1.67546C8.64999 1.74125 8.71824 1.83422 8.75362 1.94111L13.3633 9.92922Z" stroke="#191919" stroke-linecap="round" stroke-linejoin="round"/>
</svg>
