<svg width="24" height="24" viewBox="0 0 24 24" fill="none" xmlns="http://www.w3.org/2000/svg">
<path d="M11.9802 1.00104L8.03881 12.4977L3.38084 11.1142C3.37256 10.8006 3.47471 10.4941 3.66947 10.2483L11.3532 1.31057C11.4305 1.21831 11.5261 1.14315 11.6341 1.08986C11.742 1.03657 11.8599 1.00632 11.9802 1.00104Z" fill="#C2F3FF"/>
<path d="M11.9797 23C11.8663 22.9927 11.756 22.9593 11.6575 22.9022C11.5591 22.8453 11.4752 22.7664 11.4124 22.6715L3.59934 11.8427C3.46454 11.6347 3.38885 11.3939 3.38037 11.146L8.03834 12.5295L11.9797 23Z" fill="#66E1FF"/>
<path d="M20.6191 11.145L15.9612 12.5285L11.98 1.03291H11.9999C12.124 1.03237 12.2466 1.05984 12.3586 1.11326C12.4706 1.16668 12.5691 1.24468 12.6468 1.34145L20.3305 10.2791C20.5266 10.5243 20.629 10.8313 20.6191 11.145Z" fill="#C2F3FF"/>
<path d="M20.6191 11.145C20.612 11.3931 20.5363 11.6343 20.4001 11.8417L12.5771 22.6705C12.5172 22.7703 12.4326 22.853 12.3316 22.9105C12.2305 22.968 12.1162 22.9985 11.9999 22.999H11.9799L8.03857 12.5285L11.9799 1.0329L15.9611 12.5285L20.6191 11.145Z" fill="#66E1FF"/>
<path d="M15.9611 12.4956H8.03857L11.9799 1L15.9611 12.4956Z" fill="#C2F3FF"/>
<path d="M15.9611 12.5295L11.9799 23L8.03857 12.5295H15.9611Z" fill="#66E1FF"/>
<path d="M11.9802 1.00104L8.03881 12.4977L3.38084 11.1142C3.37256 10.8006 3.47471 10.4941 3.66947 10.2483L11.3532 1.31057C11.4305 1.21831 11.5261 1.14315 11.6341 1.08986C11.742 1.03657 11.8599 1.00632 11.9802 1.00104Z" stroke="#191919" stroke-linecap="round" stroke-linejoin="round"/>
<path d="M11.9797 23C11.8663 22.9927 11.756 22.9593 11.6575 22.9022C11.5591 22.8453 11.4752 22.7664 11.4124 22.6715L3.59934 11.8427C3.46454 11.6347 3.38885 11.3939 3.38037 11.146L8.03834 12.5295L11.9797 23Z" stroke="#191919" stroke-linecap="round" stroke-linejoin="round"/>
<path d="M20.6191 11.145L15.9612 12.5285L11.98 1.03291H11.9999C12.124 1.03237 12.2466 1.05984 12.3586 1.11326C12.4706 1.16668 12.5691 1.24468 12.6468 1.34145L20.3305 10.2791C20.5266 10.5243 20.629 10.8313 20.6191 11.145Z" stroke="#191919" stroke-linecap="round" stroke-linejoin="round"/>
<path d="M20.6191 11.145C20.612 11.3931 20.5363 11.6343 20.4001 11.8417L12.5771 22.6705C12.5172 22.7703 12.4326 22.853 12.3316 22.9105C12.2305 22.968 12.1162 22.9985 11.9999 22.999H11.9799L8.03857 12.5285L11.9799 1.0329L15.9611 12.5285L20.6191 11.145Z" stroke="#191919" stroke-linecap="round" stroke-linejoin="round"/>
<path d="M15.9611 12.4956H8.03857L11.9799 1L15.9611 12.4956Z" stroke="#191919" stroke-linecap="round" stroke-linejoin="round"/>
<path d="M15.9611 12.5295L11.9799 23L8.03857 12.5295H15.9611Z" stroke="#191919" stroke-linecap="round" stroke-linejoin="round"/>
</svg>
