<svg width="24" height="24" viewBox="0 0 24 24" fill="none" xmlns="http://www.w3.org/2000/svg">
<path d="M18.8752 8.79171C19.8476 8.79171 20.7803 8.4054 21.4679 7.71777C22.1555 7.03013 22.5418 6.0975 22.5418 5.12504C22.5418 4.15258 22.1555 3.21995 21.4679 2.53232C20.7803 1.84468 19.8476 1.45837 18.8752 1.45837C17.9027 1.45837 16.9701 1.84468 16.2824 2.53232C15.5948 3.21995 15.2085 4.15258 15.2085 5.12504C15.2085 6.0975 15.5948 7.03013 16.2824 7.71777C16.9701 8.4054 17.9027 8.79171 18.8752 8.79171Z" fill="#FFBC44"/>
<path d="M5.12516 15.6667C6.09762 15.6667 7.03025 15.2804 7.71789 14.5928C8.40552 13.9051 8.79183 12.9725 8.79183 12C8.79183 11.0276 8.40552 10.0949 7.71789 9.40732C7.03025 8.71968 6.09762 8.33337 5.12516 8.33337C4.1527 8.33337 3.22007 8.71968 2.53244 9.40732C1.8448 10.0949 1.4585 11.0276 1.4585 12C1.4585 12.9725 1.8448 13.9051 2.53244 14.5928C3.22007 15.2804 4.1527 15.6667 5.12516 15.6667Z" fill="#FFBC44"/>
<path d="M18.8752 22.5417C19.8476 22.5417 20.7803 22.1554 21.4679 21.4678C22.1555 20.7801 22.5418 19.8475 22.5418 18.875C22.5418 17.9026 22.1555 16.9699 21.4679 16.2823C20.7803 15.5947 19.8476 15.2084 18.8752 15.2084C17.9027 15.2084 16.9701 15.5947 16.2824 16.2823C15.5948 16.9699 15.2085 17.9026 15.2085 18.875C15.2085 19.8475 15.5948 20.7801 16.2824 21.4678C16.9701 22.1554 17.9027 22.5417 18.8752 22.5417Z" fill="#FFBC44"/>
<path d="M18.8752 3.29163C19.6882 3.29142 20.4783 3.56145 21.1211 4.05926C21.7639 4.55706 22.2231 5.2544 22.4263 6.04163C22.5656 5.49996 22.5791 4.93362 22.4658 4.38593C22.3526 3.83824 22.1155 3.32372 21.7728 2.88174C21.4301 2.43976 20.9908 2.08204 20.4885 1.83595C19.9863 1.58986 19.4344 1.46191 18.8752 1.46191C18.3159 1.46191 17.764 1.58986 17.2618 1.83595C16.7595 2.08204 16.3203 2.43976 15.9776 2.88174C15.6348 3.32372 15.3978 3.83824 15.2845 4.38593C15.1712 4.93362 15.1847 5.49996 15.324 6.04163C15.5273 5.2544 15.9864 4.55706 16.6292 4.05926C17.2721 3.56145 18.0621 3.29142 18.8752 3.29163Z" fill="#FFE4B4"/>
<path d="M5.12516 10.1666C5.93821 10.1664 6.72826 10.4365 7.37109 10.9343C8.01392 11.4321 8.47307 12.1294 8.67633 12.9166C8.8156 12.375 8.82911 11.8086 8.71583 11.2609C8.60255 10.7132 8.36549 10.1987 8.02277 9.75674C7.68006 9.31476 7.24078 8.95704 6.73855 8.71095C6.23632 8.46486 5.68445 8.33691 5.12516 8.33691C4.56588 8.33691 4.01401 8.46486 3.51178 8.71095C3.00955 8.95704 2.57027 9.31476 2.22755 9.75674C1.88484 10.1987 1.64777 10.7132 1.53449 11.2609C1.42121 11.8086 1.43473 12.375 1.574 12.9166C1.77726 12.1294 2.2364 11.4321 2.87923 10.9343C3.52206 10.4365 4.31212 10.1664 5.12516 10.1666Z" fill="#FFE4B4"/>
<path d="M18.8752 17.0416C19.6882 17.0414 20.4783 17.3115 21.1211 17.8093C21.7639 18.3071 22.2231 19.0044 22.4263 19.7916C22.5656 19.25 22.5791 18.6836 22.4658 18.1359C22.3526 17.5882 22.1155 17.0737 21.7728 16.6317C21.4301 16.1898 20.9908 15.832 20.4885 15.5859C19.9863 15.3399 19.4344 15.2119 18.8752 15.2119C18.3159 15.2119 17.764 15.3399 17.2618 15.5859C16.7595 15.832 16.3203 16.1898 15.9776 16.6317C15.6348 17.0737 15.3978 17.5882 15.2845 18.1359C15.1712 18.6836 15.1847 19.25 15.324 19.7916C15.5273 19.0044 15.9864 18.3071 16.6292 17.8093C17.2721 17.3115 18.0621 17.0414 18.8752 17.0416Z" fill="#FFE4B4"/>
<path d="M8.40137 13.6381L15.5981 17.2369" stroke="#191919" stroke-linecap="round" stroke-linejoin="round"/>
<path d="M15.5981 6.76221L8.40137 10.361" stroke="#191919" stroke-linecap="round" stroke-linejoin="round"/>
<path d="M18.8752 8.79171C19.8476 8.79171 20.7803 8.4054 21.4679 7.71777C22.1555 7.03013 22.5418 6.0975 22.5418 5.12504C22.5418 4.15258 22.1555 3.21995 21.4679 2.53232C20.7803 1.84468 19.8476 1.45837 18.8752 1.45837C17.9027 1.45837 16.9701 1.84468 16.2824 2.53232C15.5948 3.21995 15.2085 4.15258 15.2085 5.12504C15.2085 6.0975 15.5948 7.03013 16.2824 7.71777C16.9701 8.4054 17.9027 8.79171 18.8752 8.79171Z" stroke="#191919" stroke-linecap="round" stroke-linejoin="round"/>
<path d="M5.12516 15.6667C6.09762 15.6667 7.03025 15.2804 7.71789 14.5928C8.40552 13.9051 8.79183 12.9725 8.79183 12C8.79183 11.0276 8.40552 10.0949 7.71789 9.40732C7.03025 8.71968 6.09762 8.33337 5.12516 8.33337C4.1527 8.33337 3.22007 8.71968 2.53244 9.40732C1.8448 10.0949 1.4585 11.0276 1.4585 12C1.4585 12.9725 1.8448 13.9051 2.53244 14.5928C3.22007 15.2804 4.1527 15.6667 5.12516 15.6667Z" stroke="#191919" stroke-linecap="round" stroke-linejoin="round"/>
<path d="M18.8752 22.5417C19.8476 22.5417 20.7803 22.1554 21.4679 21.4678C22.1555 20.7801 22.5418 19.8475 22.5418 18.875C22.5418 17.9026 22.1555 16.9699 21.4679 16.2823C20.7803 15.5947 19.8476 15.2084 18.8752 15.2084C17.9027 15.2084 16.9701 15.5947 16.2824 16.2823C15.5948 16.9699 15.2085 17.9026 15.2085 18.875C15.2085 19.8475 15.5948 20.7801 16.2824 21.4678C16.9701 22.1554 17.9027 22.5417 18.8752 22.5417Z" stroke="#191919" stroke-linecap="round" stroke-linejoin="round"/>
</svg>
