<svg width="24" height="24" viewBox="0 0 24 24" fill="none" xmlns="http://www.w3.org/2000/svg">
<path d="M16.3046 1C17.8267 1 19.2864 1.60466 20.3627 2.68095C21.439 3.75725 22.0437 5.21702 22.0437 6.73913C22.0437 9.17156 18.6643 14.3483 17.0918 16.6257C17.0038 16.7532 16.8862 16.8574 16.7491 16.9293C16.612 17.0013 16.4594 17.0389 16.3046 17.0389C16.1497 17.0389 15.9972 17.0013 15.86 16.9293C15.7229 16.8574 15.6053 16.7532 15.5173 16.6257C13.9448 14.3483 10.5654 9.17156 10.5654 6.73913C10.5654 5.21702 11.1701 3.75725 12.2464 2.68095C13.3227 1.60466 14.7824 1 16.3046 1Z" fill="#FF808C"/>
<path d="M16.3046 17.038C16.1497 17.0381 15.9971 17.0005 15.86 16.9285C15.7228 16.8565 15.6052 16.7523 15.5173 16.6248C13.9448 14.3483 10.5654 9.17157 10.5654 6.73913C10.5654 5.21702 11.1701 3.75725 12.2464 2.68095C13.3227 1.60466 14.7824 1 16.3046 1V17.038Z" fill="#FFBFC5"/>
<path d="M1.95654 15.3478V23" stroke="#191919" stroke-linecap="round" stroke-linejoin="round"/>
<path d="M16.3044 22.0435C16.3044 21.2824 16.002 20.5525 15.4639 20.0144C14.9257 19.4762 14.1959 19.1739 13.4348 19.1739H9.84785C9.84785 18.4129 9.54552 17.683 9.00737 17.1448C8.46922 16.6067 7.73934 16.3043 6.97828 16.3043H1.95654V22.0435H16.3044Z" fill="#FFDDA1" stroke="#191919" stroke-linecap="round" stroke-linejoin="round"/>
<path d="M6.97852 19.174H10.5655" stroke="#191919" stroke-linecap="round" stroke-linejoin="round"/>
<path d="M16.3046 1C17.8267 1 19.2864 1.60466 20.3627 2.68095C21.439 3.75725 22.0437 5.21702 22.0437 6.73913C22.0437 9.17156 18.6643 14.3483 17.0918 16.6257C17.0038 16.7532 16.8862 16.8574 16.7491 16.9293C16.612 17.0013 16.4594 17.0389 16.3046 17.0389C16.1497 17.0389 15.9972 17.0013 15.86 16.9293C15.7229 16.8574 15.6053 16.7532 15.5173 16.6257C13.9448 14.3483 10.5654 9.17156 10.5654 6.73913C10.5654 5.21702 11.1701 3.75725 12.2464 2.68095C13.3227 1.60466 14.7824 1 16.3046 1Z" stroke="#191919" stroke-linecap="round" stroke-linejoin="round"/>
<path d="M16.3042 8.65214C16.8115 8.65214 17.2981 8.45058 17.6569 8.09182C18.0156 7.73305 18.2172 7.24646 18.2172 6.73909C18.2172 6.23172 18.0156 5.74513 17.6569 5.38637C17.2981 5.0276 16.8115 4.82605 16.3042 4.82605C15.7968 4.82605 15.3102 5.0276 14.9514 5.38637C14.5927 5.74513 14.3911 6.23172 14.3911 6.73909C14.3911 7.24646 14.5927 7.73305 14.9514 8.09182C15.3102 8.45058 15.7968 8.65214 16.3042 8.65214Z" fill="white" stroke="#191919" stroke-linecap="round" stroke-linejoin="round"/>
</svg>
