<svg width="24" height="24" viewBox="0 0 24 24" fill="none" xmlns="http://www.w3.org/2000/svg">
<path d="M13.3913 11.5682V19.7917C13.3913 20.0348 13.2947 20.268 13.1228 20.4398C12.951 20.6117 12.7178 20.7083 12.4747 20.7083H4.20817C3.96505 20.7083 3.7319 20.6117 3.55999 20.4398C3.38808 20.268 3.2915 20.0348 3.2915 19.7917V11.5417C3.2915 11.2986 3.38808 11.0654 3.55999 10.8935C3.7319 10.7216 3.96505 10.625 4.20817 10.625L12.4582 10.6342C12.7058 10.6344 12.9431 10.7329 13.1181 10.9081C13.2931 11.0832 13.3913 11.3207 13.3913 11.5682Z" fill="#66E1FF"/>
<path d="M15.2085 9.25002V21.625C15.2085 21.8681 15.1119 22.1013 14.94 22.2732C14.7681 22.4451 14.5349 22.5417 14.2918 22.5417H2.37516C2.13204 22.5417 1.89889 22.4451 1.72698 22.2732C1.55507 22.1013 1.4585 21.8681 1.4585 21.625V9.70835C1.4585 9.46524 1.55507 9.23208 1.72698 9.06017C1.89889 8.88827 2.13204 8.79169 2.37516 8.79169H6.04183" stroke="#191919" stroke-linecap="round" stroke-linejoin="round"/>
<path d="M18.875 1.45831L22.5417 5.12498L18.875 8.79165" stroke="#191919" stroke-linecap="round" stroke-linejoin="round"/>
<path d="M22.5415 5.125H13.8332C12.496 5.125 11.2137 5.65617 10.2682 6.60167C9.32268 7.54716 8.7915 8.82953 8.7915 10.1667V11.5417" stroke="#191919" stroke-linecap="round" stroke-linejoin="round"/>
</svg>
