<svg width="24" height="24" viewBox="0 0 24 24" fill="none" xmlns="http://www.w3.org/2000/svg">
<g clip-path="url(#clip0_5303_10215)">
<path d="M6.26049 14.3913H7.21701C7.34385 14.3913 7.4655 14.4417 7.55519 14.5313C7.64488 14.6211 7.69527 14.7427 7.69527 14.8696V20.1304H5.78223V14.8696C5.78223 14.7427 5.83262 14.6211 5.92231 14.5313C6.01199 14.4417 6.13364 14.3913 6.26049 14.3913Z" fill="#78EB7B"/>
<path d="M8.17357 14.3913H9.1301C9.25694 14.3913 9.37859 14.4417 9.46827 14.5313C9.55797 14.6211 9.60836 14.7427 9.60836 14.8696V20.1304H7.69531V14.8696C7.69531 14.7427 7.7457 14.6211 7.8354 14.5313C7.92508 14.4417 8.04673 14.3913 8.17357 14.3913Z" fill="#C77F67"/>
<path d="M10.0871 14.3913H11.0437C11.1705 14.3913 11.2922 14.4417 11.3819 14.5313C11.4715 14.6211 11.5219 14.7427 11.5219 14.8696V20.1304H9.60889V14.8696C9.60889 14.7427 9.65928 14.6211 9.74897 14.5313C9.83865 14.4417 9.9603 14.3913 10.0871 14.3913Z" fill="white"/>
<path d="M11.7203 15.1905L12.4972 14.6326C12.6003 14.5585 12.7284 14.5285 12.8535 14.549C12.9787 14.5695 13.0907 14.639 13.1646 14.742L15.9545 18.6266C16.0284 18.7296 16.0585 18.8578 16.038 18.983C16.0174 19.1081 15.948 19.22 15.845 19.2941L14.6796 20.131L11.6108 15.858C11.5368 15.7549 11.5068 15.6267 11.5273 15.5016C11.5478 15.3763 11.6172 15.2644 11.7203 15.1905Z" fill="#FFEF5E"/>
<path d="M18.2172 10.5652H16.3042V5.30431C16.3042 5.17747 16.3546 5.05582 16.4442 4.96613C16.534 4.87644 16.6556 4.82605 16.7825 4.82605H17.739C17.8658 4.82605 17.9875 4.87644 18.0772 4.96613C18.1668 5.05582 18.2172 5.17747 18.2172 5.30431V10.5652Z" fill="#C77F67"/>
<path d="M16.3037 10.5652H14.3906V5.30431C14.3906 5.17747 14.441 5.05582 14.5307 4.96613C14.6204 4.87644 14.7421 4.82605 14.8689 4.82605H15.8254C15.9522 4.82605 16.0739 4.87644 16.1636 4.96613C16.2533 5.05582 16.3037 5.17747 16.3037 5.30431V10.5652Z" fill="white"/>
<path d="M11.2319 10.5644L10.0665 9.72752C9.96345 9.65354 9.89403 9.54164 9.87349 9.41647C9.85297 9.2913 9.883 9.16311 9.95699 9.06008L12.7468 5.17548C12.8208 5.07245 12.9327 5.00303 13.0579 4.98251C13.183 4.96197 13.3113 4.99201 13.4143 5.06599L14.1912 5.62396C14.2942 5.69796 14.3636 5.80984 14.3841 5.93501C14.4047 6.06018 14.3746 6.18838 14.3007 6.29141L11.2319 10.5644Z" fill="#FF808C"/>
<path d="M23 11.5217C23 11.7754 22.8992 12.0187 22.7198 12.1981C22.5405 12.3774 22.2971 12.4782 22.0435 12.4782H1.95652C1.70283 12.4782 1.45954 12.3774 1.28016 12.1981C1.10078 12.0187 1 11.7754 1 11.5217C1 11.268 1.10078 11.0247 1.28016 10.8454C1.45954 10.666 1.70283 10.5652 1.95652 10.5652H22.0435C22.2971 10.5652 22.5405 10.666 22.7198 10.8454C22.8992 11.0247 23 11.268 23 11.5217Z" fill="#C77F67"/>
<path d="M23 21.087C23 21.3406 22.8992 21.584 22.7198 21.7633C22.5405 21.9427 22.2971 22.0435 22.0435 22.0435H1.95652C1.70283 22.0435 1.45954 21.9427 1.28016 21.7633C1.10078 21.584 1 21.3406 1 21.087C1 20.8333 1.10078 20.5899 1.28016 20.4106C1.45954 20.2312 1.70283 20.1304 1.95652 20.1304H22.0435C22.2971 20.1304 22.5405 20.2312 22.7198 20.4106C22.8992 20.5899 23 20.8333 23 21.087Z" fill="#C77F67"/>
<path d="M1 11.5217C1 11.268 1.10078 11.0247 1.28016 10.8454C1.45954 10.666 1.70283 10.5652 1.95652 10.5652H22.0435C22.2971 10.5652 22.5405 10.666 22.7198 10.8454C22.8992 11.0247 23 11.268 23 11.5217H1Z" fill="#E3BFB3"/>
<path d="M1 21.087C1 20.8333 1.10078 20.5899 1.28016 20.4106C1.45954 20.2312 1.70283 20.1304 1.95652 20.1304H22.0435C22.2971 20.1304 22.5405 20.2312 22.7198 20.4106C22.8992 20.5899 23 20.8333 23 21.087H1Z" fill="#E3BFB3"/>
<path d="M6.26049 14.3913H7.21701C7.34385 14.3913 7.4655 14.4417 7.55519 14.5313C7.64488 14.6211 7.69527 14.7427 7.69527 14.8696V20.1304H5.78223V14.8696C5.78223 14.7427 5.83262 14.6211 5.92231 14.5313C6.01199 14.4417 6.13364 14.3913 6.26049 14.3913Z" stroke="#191919" stroke-linecap="round" stroke-linejoin="round"/>
<path d="M8.17357 14.3913H9.1301C9.25694 14.3913 9.37859 14.4417 9.46827 14.5313C9.55797 14.6211 9.60836 14.7427 9.60836 14.8696V20.1304H7.69531V14.8696C7.69531 14.7427 7.7457 14.6211 7.8354 14.5313C7.92508 14.4417 8.04673 14.3913 8.17357 14.3913Z" stroke="#191919" stroke-linecap="round" stroke-linejoin="round"/>
<path d="M10.0871 14.3913H11.0437C11.1705 14.3913 11.2922 14.4417 11.3819 14.5313C11.4715 14.6211 11.5219 14.7427 11.5219 14.8696V20.1304H9.60889V14.8696C9.60889 14.7427 9.65928 14.6211 9.74897 14.5313C9.83865 14.4417 9.9603 14.3913 10.0871 14.3913Z" stroke="#191919" stroke-linecap="round" stroke-linejoin="round"/>
<path d="M11.7203 15.1905L12.4972 14.6326C12.6003 14.5585 12.7284 14.5285 12.8535 14.549C12.9787 14.5695 13.0907 14.639 13.1646 14.742L15.9545 18.6266C16.0284 18.7296 16.0585 18.8578 16.038 18.983C16.0174 19.1081 15.948 19.22 15.845 19.2941L14.6796 20.131L11.6108 15.858C11.5368 15.7549 11.5068 15.6267 11.5273 15.5016C11.5478 15.3763 11.6172 15.2644 11.7203 15.1905Z" stroke="#191919" stroke-linecap="round" stroke-linejoin="round"/>
<path d="M18.2172 10.5652H16.3042V5.30431C16.3042 5.17747 16.3546 5.05582 16.4442 4.96613C16.534 4.87644 16.6556 4.82605 16.7825 4.82605H17.739C17.8658 4.82605 17.9875 4.87644 18.0772 4.96613C18.1668 5.05582 18.2172 5.17747 18.2172 5.30431V10.5652Z" stroke="#191919" stroke-linecap="round" stroke-linejoin="round"/>
<path d="M16.3037 10.5652H14.3906V5.30431C14.3906 5.17747 14.441 5.05582 14.5307 4.96613C14.6204 4.87644 14.7421 4.82605 14.8689 4.82605H15.8254C15.9522 4.82605 16.0739 4.87644 16.1636 4.96613C16.2533 5.05582 16.3037 5.17747 16.3037 5.30431V10.5652Z" stroke="#191919" stroke-linecap="round" stroke-linejoin="round"/>
<path d="M11.2319 10.5644L10.0665 9.72752C9.96345 9.65354 9.89403 9.54164 9.87349 9.41647C9.85297 9.2913 9.883 9.16311 9.95699 9.06008L12.7468 5.17548C12.8208 5.07245 12.9327 5.00303 13.0579 4.98251C13.183 4.96197 13.3113 4.99201 13.4143 5.06599L14.1912 5.62396C14.2942 5.69796 14.3636 5.80984 14.3841 5.93501C14.4047 6.06018 14.3746 6.18838 14.3007 6.29141L11.2319 10.5644Z" stroke="#191919" stroke-linecap="round" stroke-linejoin="round"/>
<path d="M2.9126 10.5652V1.95648" stroke="#191919" stroke-linecap="round" stroke-linejoin="round"/>
<path d="M21.0869 10.5652V1.95648" stroke="#191919" stroke-linecap="round" stroke-linejoin="round"/>
<path d="M2.9126 20.1304V12.4782" stroke="#191919" stroke-linecap="round" stroke-linejoin="round"/>
<path d="M21.0869 20.1304V12.4782" stroke="#191919" stroke-linecap="round" stroke-linejoin="round"/>
<path d="M23 11.5217C23 11.7754 22.8992 12.0187 22.7198 12.1981C22.5405 12.3774 22.2971 12.4782 22.0435 12.4782H1.95652C1.70283 12.4782 1.45954 12.3774 1.28016 12.1981C1.10078 12.0187 1 11.7754 1 11.5217C1 11.268 1.10078 11.0247 1.28016 10.8454C1.45954 10.666 1.70283 10.5652 1.95652 10.5652H22.0435C22.2971 10.5652 22.5405 10.666 22.7198 10.8454C22.8992 11.0247 23 11.268 23 11.5217Z" stroke="#191919" stroke-linecap="round" stroke-linejoin="round"/>
<path d="M23 21.087C23 21.3406 22.8992 21.584 22.7198 21.7633C22.5405 21.9427 22.2971 22.0435 22.0435 22.0435H1.95652C1.70283 22.0435 1.45954 21.9427 1.28016 21.7633C1.10078 21.584 1 21.3406 1 21.087C1 20.8333 1.10078 20.5899 1.28016 20.4106C1.45954 20.2312 1.70283 20.1304 1.95652 20.1304H22.0435C22.2971 20.1304 22.5405 20.2312 22.7198 20.4106C22.8992 20.5899 23 20.8333 23 21.087Z" stroke="#191919" stroke-linecap="round" stroke-linejoin="round"/>
</g>
<defs>
<clipPath id="clip0_5303_10215">
<rect width="24" height="24" fill="white"/>
</clipPath>
</defs>
</svg>
