<svg width="24" height="24" viewBox="0 0 24 24" fill="none" xmlns="http://www.w3.org/2000/svg">
<path d="M1.95703 4.13347V11.438C1.985 13.8517 2.75413 16.1984 4.16025 18.1604C5.56638 20.1223 7.54154 21.6047 9.81822 22.4067L10.8904 22.8027C11.6067 23.0658 12.3931 23.0658 13.1094 22.8027L14.1816 22.4067C16.4581 21.6045 18.4332 20.122 19.8392 18.1601C21.2453 16.1982 22.0146 13.8516 22.0428 11.438V4.13347C22.042 3.84646 21.9569 3.56602 21.798 3.32695C21.6392 3.08788 21.4137 2.90071 21.1495 2.78868C18.2521 1.57938 15.1394 0.971202 11.9999 1.00105C8.86048 0.971202 5.7477 1.57938 2.85037 2.78868C2.5862 2.90081 2.36074 3.08801 2.20195 3.32705C2.04315 3.5661 1.95799 3.84649 1.95703 4.13347Z" fill="#E3E3E3"/>
<path d="M11.9999 1.00105C8.86048 0.971202 5.7477 1.57938 2.85037 2.78868C2.5862 2.90081 2.36074 3.08801 2.20195 3.32705C2.04315 3.5661 1.95799 3.84649 1.95703 4.13347V11.438C1.985 13.8517 2.75413 16.1984 4.16025 18.1604C5.56638 20.1223 7.54154 21.6047 9.81822 22.4067L10.8904 22.8027C11.2462 22.9328 11.6212 22.9998 11.9999 22.9998V1.00105Z" fill="white"/>
<path d="M1.95703 4.13347V11.438C1.985 13.8517 2.75413 16.1984 4.16025 18.1604C5.56638 20.1223 7.54154 21.6047 9.81822 22.4067L10.8904 22.8027C11.6067 23.0658 12.3931 23.0658 13.1094 22.8027L14.1816 22.4067C16.4581 21.6045 18.4332 20.122 19.8392 18.1601C21.2453 16.1982 22.0146 13.8516 22.0428 11.438V4.13347C22.042 3.84646 21.9569 3.56602 21.798 3.32695C21.6392 3.08788 21.4137 2.90071 21.1495 2.78868C18.2521 1.57938 15.1394 0.971202 11.9999 1.00105C8.86048 0.971202 5.7477 1.57938 2.85037 2.78868C2.5862 2.90081 2.36074 3.08801 2.20195 3.32705C2.04315 3.5661 1.95799 3.84649 1.95703 4.13347Z" stroke="#191919" stroke-linecap="round" stroke-linejoin="round"/>
<path d="M15.3475 9.3634H8.65227C8.52666 9.3634 8.40229 9.38814 8.28624 9.43621C8.1702 9.48428 8.06476 9.55473 7.97594 9.64355C7.88713 9.73236 7.81667 9.8378 7.76861 9.95384C7.72054 10.0699 7.6958 10.1943 7.6958 10.3199V16.0577C7.6958 16.3114 7.79657 16.5547 7.97594 16.734C8.15531 16.9134 8.3986 17.0142 8.65227 17.0142H15.3475C15.6012 17.0142 15.8445 16.9134 16.0238 16.734C16.2032 16.5547 16.304 16.3114 16.304 16.0577V10.3199C16.304 10.0662 16.2032 9.82292 16.0238 9.64355C15.8445 9.46417 15.6012 9.3634 15.3475 9.3634Z" fill="#FFEF5E"/>
<path d="M11.9999 9.3634H8.65227C8.52666 9.3634 8.40229 9.38814 8.28624 9.43621C8.1702 9.48428 8.06476 9.55473 7.97594 9.64355C7.88713 9.73236 7.81667 9.8378 7.76861 9.95384C7.72054 10.0699 7.6958 10.1943 7.6958 10.3199V16.0587C7.6958 16.3123 7.79657 16.5556 7.97594 16.735C8.15531 16.9144 8.3986 17.0151 8.65227 17.0151H11.9999V9.3634Z" fill="#FFF9BF"/>
<path d="M15.3475 9.3634H8.65227C8.52666 9.3634 8.40229 9.38814 8.28624 9.43621C8.1702 9.48428 8.06476 9.55473 7.97594 9.64355C7.88713 9.73236 7.81667 9.8378 7.76861 9.95384C7.72054 10.0699 7.6958 10.1943 7.6958 10.3199V16.0577C7.6958 16.3114 7.79657 16.5547 7.97594 16.734C8.15531 16.9134 8.3986 17.0142 8.65227 17.0142H15.3475C15.6012 17.0142 15.8445 16.9134 16.0238 16.734C16.2032 16.5547 16.304 16.3114 16.304 16.0577V10.3199C16.304 10.0662 16.2032 9.82292 16.0238 9.64355C15.8445 9.46417 15.6012 9.3634 15.3475 9.3634Z" stroke="#191919" stroke-linecap="round" stroke-linejoin="round"/>
<path d="M11.9998 14.4451C12.3169 14.4451 12.621 14.3191 12.8452 14.0949C13.0694 13.8707 13.1954 13.5666 13.1954 13.2495C13.1954 12.9324 13.0694 12.6283 12.8452 12.4041C12.621 12.1799 12.3169 12.0539 11.9998 12.0539C11.6827 12.0539 11.3786 12.1799 11.1544 12.4041C10.9302 12.6283 10.8042 12.9324 10.8042 13.2495C10.8042 13.5666 10.9302 13.8707 11.1544 14.0949C11.3786 14.3191 11.6827 14.4451 11.9998 14.4451Z" fill="#808080" stroke="#191919" stroke-linecap="round" stroke-linejoin="round"/>
<path d="M14.3912 7.9287C14.3912 7.29452 14.1393 6.68632 13.6909 6.23789C13.2424 5.78946 12.6342 5.53754 12 5.53754C11.3659 5.53754 10.7577 5.78946 10.3092 6.23789C9.86081 6.68632 9.60889 7.29452 9.60889 7.9287V9.3634H14.3912V7.9287Z" stroke="#191919" stroke-linecap="round" stroke-linejoin="round"/>
</svg>
