<svg width="24" height="24" viewBox="0 0 24 24" fill="none" xmlns="http://www.w3.org/2000/svg">
<path d="M1.95703 4.13348V11.438C1.98513 13.8516 2.75432 16.1983 4.16042 18.1602C5.56653 20.1221 7.54162 21.6046 9.81822 22.4068L10.8904 22.8027C11.6067 23.0658 12.3931 23.0658 13.1094 22.8027L14.1816 22.4068C16.4582 21.6046 18.4333 20.1221 19.8394 18.1602C21.2455 16.1983 22.0147 13.8516 22.0428 11.438V4.13348C22.0419 3.84649 21.9567 3.5661 21.7979 3.32705C21.6391 3.088 21.4136 2.90081 21.1495 2.78869C18.2521 1.57938 15.1393 0.971203 11.9999 1.00105C8.86048 0.971203 5.74771 1.57938 2.85037 2.78869C2.5862 2.90081 2.36075 3.088 2.20194 3.32705C2.04315 3.5661 1.95799 3.84649 1.95703 4.13348Z" fill="#E3E3E3"/>
<path d="M11.9999 1.00105C8.86048 0.971203 5.74771 1.57938 2.85037 2.78869C2.5862 2.90081 2.36075 3.088 2.20194 3.32705C2.04315 3.5661 1.95799 3.84649 1.95703 4.13348V11.438C1.98513 13.8516 2.75432 16.1983 4.16042 18.1602C5.56653 20.1221 7.54162 21.6046 9.81822 22.4068L10.8904 22.8027C11.2458 22.933 11.6214 22.9997 11.9999 22.9998V1.00105Z" fill="white"/>
<path d="M1.95703 4.13348V11.438C1.98513 13.8516 2.75432 16.1983 4.16042 18.1602C5.56653 20.1221 7.54162 21.6046 9.81822 22.4068L10.8904 22.8027C11.6067 23.0658 12.3931 23.0658 13.1094 22.8027L14.1816 22.4068C16.4582 21.6046 18.4333 20.1221 19.8394 18.1602C21.2455 16.1983 22.0147 13.8516 22.0428 11.438V4.13348C22.0419 3.84649 21.9567 3.5661 21.7979 3.32705C21.6391 3.088 21.4136 2.90081 21.1495 2.78869C18.2521 1.57938 15.1393 0.971203 11.9999 1.00105C8.86048 0.971203 5.74771 1.57938 2.85037 2.78869C2.5862 2.90081 2.36075 3.088 2.20194 3.32705C2.04315 3.5661 1.95799 3.84649 1.95703 4.13348Z" stroke="#191919" stroke-linecap="round" stroke-linejoin="round"/>
<path d="M11.9996 15.348C14.6408 15.348 16.7819 13.2069 16.7819 10.5657C16.7819 7.92451 14.6408 5.78339 11.9996 5.78339C9.35841 5.78339 7.21729 7.92451 7.21729 10.5657C7.21729 13.2069 9.35841 15.348 11.9996 15.348Z" fill="#78EB7B"/>
<path d="M11.9996 15.348C10.7312 15.348 9.51486 14.8442 8.618 13.9473C7.72113 13.0505 7.21729 11.8341 7.21729 10.5657C7.21729 9.29736 7.72113 8.08096 8.618 7.1841C9.51486 6.28723 10.7312 5.78339 11.9996 5.78339V15.348Z" fill="#C9F7CA"/>
<path d="M16.7819 10.5657C16.7819 11.5116 16.5015 12.4362 15.976 13.2227C15.4504 14.0091 14.7035 14.6221 13.8297 14.984C12.9559 15.3459 11.9944 15.4407 11.0667 15.2561C10.1389 15.0716 9.28682 14.6162 8.618 13.9473C7.94918 13.2785 7.4937 12.4264 7.30918 11.4987C7.12465 10.571 7.21936 9.60945 7.58131 8.73559C7.94328 7.86174 8.55625 7.11484 9.34269 6.58935C10.1291 6.06386 11.0538 5.78339 11.9996 5.78339" stroke="#191919" stroke-linecap="round" stroke-linejoin="round"/>
<path d="M10.0869 10.0875L11.6364 11.2496C11.7344 11.3231 11.857 11.3561 11.9788 11.3419C12.1006 11.3276 12.2122 11.2673 12.2906 11.1731L16.7822 5.78339" stroke="#191919" stroke-linecap="round" stroke-linejoin="round"/>
</svg>
