<svg width="24" height="24" viewBox="0 0 24 24" fill="none" xmlns="http://www.w3.org/2000/svg">
<g clip-path="url(#clip0_5303_6612)">
<path d="M1.95715 4.13347V11.438C1.98512 13.8517 2.75425 16.1984 4.16038 18.1604C5.5665 20.1223 7.54166 21.6047 9.81834 22.4067L10.8905 22.8027C11.6068 23.0658 12.3933 23.0658 13.1095 22.8027L14.1817 22.4067C16.4583 21.6045 18.4333 20.122 19.8394 18.1601C21.2454 16.1982 22.0147 13.8516 22.0429 11.438V4.13347C22.0421 3.84646 21.957 3.56602 21.7982 3.32695C21.6394 3.08788 21.4138 2.90071 21.1496 2.78868C18.2523 1.57938 15.1395 0.971202 12 1.00105C8.8606 0.971202 5.74782 1.57938 2.85049 2.78868C2.58632 2.90081 2.36087 3.08801 2.20207 3.32705C2.04327 3.5661 1.95811 3.84649 1.95715 4.13347Z" fill="#E3E3E3"/>
<path d="M12 1.00105C8.8606 0.971202 5.74782 1.57938 2.85049 2.78868C2.58632 2.90081 2.36087 3.08801 2.20207 3.32705C2.04327 3.5661 1.95811 3.84649 1.95715 4.13347V11.438C1.98512 13.8517 2.75425 16.1984 4.16038 18.1604C5.5665 20.1223 7.54166 21.6047 9.81834 22.4067L10.8905 22.8027C11.2463 22.9328 11.6213 22.9998 12 22.9998V1.00105Z" fill="white"/>
<path d="M1.95715 4.13347V11.438C1.98512 13.8517 2.75425 16.1984 4.16038 18.1604C5.5665 20.1223 7.54166 21.6047 9.81834 22.4067L10.8905 22.8027C11.6068 23.0658 12.3933 23.0658 13.1095 22.8027L14.1817 22.4067C16.4583 21.6045 18.4333 20.122 19.8394 18.1601C21.2454 16.1982 22.0147 13.8516 22.0429 11.438V4.13347C22.0421 3.84646 21.957 3.56602 21.7982 3.32695C21.6394 3.08788 21.4138 2.90071 21.1496 2.78868C18.2523 1.57938 15.1395 0.971202 12 1.00105C8.8606 0.971202 5.74782 1.57938 2.85049 2.78868C2.58632 2.90081 2.36087 3.08801 2.20207 3.32705C2.04327 3.5661 1.95811 3.84649 1.95715 4.13347Z" stroke="#191919" stroke-linecap="round" stroke-linejoin="round"/>
<path d="M18.2342 11.0215C18.2347 11.8406 18.0738 12.6518 17.7607 13.4087C17.4477 14.1656 16.9886 14.8535 16.4097 15.4329C15.8307 16.0124 15.1433 16.4721 14.3867 16.7859C13.6301 17.0996 12.819 17.2612 11.9999 17.2615C10.3377 17.2338 8.75371 16.5507 7.59261 15.361C6.4315 14.1712 5.78727 12.571 5.80012 10.9086C5.80075 9.31926 6.4238 7.79333 7.5358 6.65773C8.6478 5.52214 10.1603 4.86718 11.7493 4.83317C12.5869 4.79191 13.424 4.92149 14.2099 5.21405C14.9957 5.50661 15.7138 5.95603 16.3205 6.53494C16.9271 7.11385 17.4096 7.81015 17.7386 8.58146C18.0676 9.35277 18.2362 10.183 18.2342 11.0215Z" fill="#78EB7B"/>
<path d="M11.7494 4.8329C10.1604 4.86715 8.64808 5.52218 7.53613 6.65773C6.42418 7.79327 5.80105 9.31906 5.80017 10.9084C5.80017 11.9069 6.03259 12.8921 6.48022 13.7854C7.30086 14.1852 8.20186 14.3918 9.11337 14.3918C10.1689 14.3899 11.2068 14.1204 12.13 13.6086C13.0532 13.0968 13.8316 12.3593 14.3924 11.4651C14.9533 10.5708 15.2783 9.54897 15.3371 8.49504C15.3959 7.4411 15.1866 6.38945 14.7288 5.43834C13.8831 5.03413 12.9574 4.82525 12.0201 4.82716C11.9292 4.82716 11.8393 4.82716 11.7494 4.8329Z" fill="#C9F7CA"/>
<path d="M18.2342 11.0215C18.2347 11.8406 18.0738 12.6518 17.7607 13.4087C17.4477 14.1656 16.9886 14.8535 16.4097 15.4329C15.8307 16.0124 15.1433 16.4721 14.3867 16.7859C13.6301 17.0996 12.819 17.2612 11.9999 17.2615C10.3377 17.2338 8.75371 16.5507 7.59261 15.361C6.4315 14.1712 5.78727 12.571 5.80012 10.9086C5.80075 9.31926 6.4238 7.79333 7.5358 6.65773C8.6478 5.52214 10.1603 4.86718 11.7493 4.83317C12.5869 4.79191 13.424 4.92149 14.2099 5.21405C14.9957 5.50661 15.7138 5.95603 16.3205 6.53494C16.9271 7.11385 17.4096 7.81015 17.7386 8.58146C18.0676 9.35277 18.2362 10.183 18.2342 11.0215Z" stroke="#191919" stroke-linecap="round" stroke-linejoin="round"/>
<path d="M11.7494 4.8335C8.50606 8.34755 8.50606 12.9328 11.7494 17.258" stroke="#191919" stroke-linecap="round" stroke-linejoin="round"/>
<path d="M12.287 4.8335C15.5313 8.34755 15.5313 12.9309 12.287 17.2561" stroke="#191919" stroke-linecap="round" stroke-linejoin="round"/>
<path d="M5.78296 11.0444H18.217" stroke="#191919" stroke-linecap="round" stroke-linejoin="round"/>
</g>
<defs>
<clipPath id="clip0_5303_6612">
<rect width="24" height="24" fill="white"/>
</clipPath>
</defs>
</svg>
