<svg width="24" height="24" viewBox="0 0 24 24" fill="none" xmlns="http://www.w3.org/2000/svg">
<path d="M1.95703 4.13348V11.438C1.98513 13.8516 2.75432 16.1983 4.16042 18.1602C5.56653 20.1221 7.54162 21.6046 9.81822 22.4068L10.8904 22.8027C11.6067 23.0658 12.3931 23.0658 13.1094 22.8027L14.1816 22.4068C16.4582 21.6046 18.4333 20.1221 19.8394 18.1602C21.2455 16.1983 22.0147 13.8516 22.0428 11.438V4.13348C22.0419 3.84649 21.9567 3.5661 21.7979 3.32705C21.6391 3.088 21.4136 2.90081 21.1495 2.78869C18.2521 1.57938 15.1393 0.971203 11.9999 1.00105C8.86048 0.971203 5.74771 1.57938 2.85037 2.78869C2.5862 2.90081 2.36075 3.088 2.20194 3.32705C2.04315 3.5661 1.95799 3.84649 1.95703 4.13348Z" fill="#E3E3E3"/>
<path d="M11.9999 1.00105C8.86048 0.971203 5.74771 1.57938 2.85037 2.78869C2.5862 2.90081 2.36075 3.088 2.20194 3.32705C2.04315 3.5661 1.95799 3.84649 1.95703 4.13348V11.438C1.98513 13.8516 2.75432 16.1983 4.16042 18.1602C5.56653 20.1221 7.54162 21.6046 9.81822 22.4068L10.8904 22.8027C11.2458 22.933 11.6214 22.9997 11.9999 22.9998V1.00105Z" fill="white"/>
<path d="M1.95703 4.13348V11.438C1.98513 13.8516 2.75432 16.1983 4.16042 18.1602C5.56653 20.1221 7.54162 21.6046 9.81822 22.4068L10.8904 22.8027C11.6067 23.0658 12.3931 23.0658 13.1094 22.8027L14.1816 22.4068C16.4582 21.6046 18.4333 20.1221 19.8394 18.1602C21.2455 16.1983 22.0147 13.8516 22.0428 11.438V4.13348C22.0419 3.84649 21.9567 3.5661 21.7979 3.32705C21.6391 3.088 21.4136 2.90081 21.1495 2.78869C18.2521 1.57938 15.1393 0.971203 11.9999 1.00105C8.86048 0.971203 5.74771 1.57938 2.85037 2.78869C2.5862 2.90081 2.36075 3.088 2.20194 3.32705C2.04315 3.5661 1.95799 3.84649 1.95703 4.13348Z" stroke="#191919" stroke-linecap="round" stroke-linejoin="round"/>
<path d="M8.65234 17.261H15.3476" stroke="#191919" stroke-linecap="round" stroke-linejoin="round"/>
<path d="M12 17.2609V14.3915" stroke="#191919" stroke-linecap="round" stroke-linejoin="round"/>
<path d="M17.2603 5.78339H6.73918C6.21094 5.78339 5.78271 6.21161 5.78271 6.73985V13.4351C5.78271 13.9633 6.21094 14.3915 6.73918 14.3915H17.2603C17.7886 14.3915 18.2168 13.9633 18.2168 13.4351V6.73985C18.2168 6.21161 17.7886 5.78339 17.2603 5.78339Z" fill="#66E1FF"/>
<path d="M6.73918 14.3915H7.69565L16.3038 5.78339H6.73918C6.48551 5.78339 6.24223 5.88416 6.06285 6.06353C5.88349 6.2429 5.78271 6.48618 5.78271 6.73985V13.4351C5.78271 13.6887 5.88349 13.9321 6.06285 14.1114C6.24223 14.2907 6.48551 14.3915 6.73918 14.3915Z" fill="#C2F3FF"/>
<path d="M17.2603 5.78339H6.73918C6.21094 5.78339 5.78271 6.21161 5.78271 6.73985V13.4351C5.78271 13.9633 6.21094 14.3915 6.73918 14.3915H17.2603C17.7886 14.3915 18.2168 13.9633 18.2168 13.4351V6.73985C18.2168 6.21161 17.7886 5.78339 17.2603 5.78339Z" stroke="#191919" stroke-linecap="round" stroke-linejoin="round"/>
</svg>
