<svg width="24" height="24" viewBox="0 0 24 24" fill="none" xmlns="http://www.w3.org/2000/svg">
<g clip-path="url(#clip0_5303_7160)">
<path d="M14.3918 5.21828V14.3913C14.3918 14.645 14.291 14.8883 14.1116 15.0677C13.9323 15.247 13.6889 15.3478 13.4353 15.3478H1.95704C1.70336 15.3478 1.46007 15.247 1.28068 15.0677C1.1013 14.8883 1.00053 14.645 1.00053 14.3913V5.21828C0.999225 5.08163 1.0321 4.94681 1.09618 4.82611H14.2961C14.3602 4.94681 14.3931 5.08163 14.3918 5.21828Z" fill="#FFBC44"/>
<path d="M14.2962 4.82608H1.09619C1.13609 4.72161 1.19809 4.62699 1.27793 4.54869L4.54923 1.27739C4.7279 1.10146 4.96804 1.00197 5.21879 1H10.1736C10.4243 1.00197 10.6644 1.10146 10.8431 1.27739L14.1144 4.54869C14.1943 4.62699 14.2563 4.72161 14.2962 4.82608Z" fill="#FFDDA1"/>
<path d="M8.65264 15.3478H1.95701C1.70332 15.3478 1.46003 15.247 1.28065 15.0676C1.10126 14.8883 1.00049 14.6449 1.00049 14.3913V5.22208C1.00054 4.96842 1.10135 4.72515 1.28075 4.54582L4.5463 1.28026C4.72564 1.10087 4.9689 1.00005 5.22256 1H10.1697C10.4233 1.00005 10.6666 1.10087 10.8459 1.28026L14.1115 4.54582C14.2908 4.72515 14.3917 4.96842 14.3918 5.22208V8.65215" stroke="#191919" stroke-linecap="round" stroke-linejoin="round"/>
<path d="M14.306 4.82611H1.08691" stroke="#191919" stroke-linecap="round" stroke-linejoin="round"/>
<path d="M7.6958 1V4.82608" stroke="#191919" stroke-linecap="round" stroke-linejoin="round"/>
<path d="M17.2606 23C18.3957 23 19.5053 22.6634 20.4491 22.0328C21.3929 21.4021 22.1285 20.5059 22.5629 19.4572C22.9972 18.4084 23.1109 17.2545 22.8894 16.1413C22.668 15.028 22.1214 14.0054 21.3187 13.2028C20.5161 12.4001 19.4935 11.8535 18.3802 11.6321C17.267 11.4106 16.1131 11.5243 15.0643 11.9586C14.0156 12.3931 13.1193 13.1286 12.4887 14.0724C11.8581 15.0162 11.5215 16.1258 11.5215 17.2609C11.5215 18.783 12.1261 20.2427 13.2025 21.319C14.2787 22.3954 15.7385 23 17.2606 23Z" fill="#66E1FF"/>
<path d="M17.2614 11.5218C16.0933 11.5208 14.9527 11.8767 13.9924 12.5416C13.032 13.2066 12.2977 14.149 11.8876 15.2427C11.4774 16.3364 11.4111 17.5293 11.6974 18.6618C11.9838 19.7942 12.6091 20.8123 13.4898 21.5796L21.5801 13.4894C21.043 12.8713 20.3795 12.3759 19.6344 12.0365C18.8894 11.697 18.0802 11.5215 17.2614 11.5218Z" fill="#C2F3FF"/>
<path d="M17.2606 23C18.3957 23 19.5053 22.6634 20.4491 22.0328C21.3929 21.4021 22.1285 20.5059 22.5629 19.4572C22.9972 18.4084 23.1109 17.2545 22.8894 16.1413C22.668 15.028 22.1214 14.0054 21.3187 13.2028C20.5161 12.4001 19.4935 11.8535 18.3802 11.6321C17.267 11.4106 16.1131 11.5243 15.0643 11.9586C14.0156 12.3931 13.1193 13.1286 12.4887 14.0724C11.8581 15.0162 11.5215 16.1258 11.5215 17.2609C11.5215 18.783 12.1261 20.2427 13.2025 21.319C14.2787 22.3954 15.7385 23 17.2606 23Z" stroke="#191919" stroke-linecap="round" stroke-linejoin="round"/>
<path d="M19.1738 17.2609H17.2607V14.3914" stroke="#191919" stroke-linecap="round" stroke-linejoin="round"/>
</g>
<defs>
<clipPath id="clip0_5303_7160">
<rect width="24" height="24" fill="white"/>
</clipPath>
</defs>
</svg>
