<svg width="24" height="24" viewBox="0 0 24 24" fill="none" xmlns="http://www.w3.org/2000/svg">
<g clip-path="url(#clip0_5303_7114)">
<path d="M3.5279 21.5887C3.01406 21.2081 2.58611 20.7236 2.27192 20.1667C1.95764 19.6099 1.7642 18.993 1.70412 18.3565C1.69619 18.2911 1.70201 18.2249 1.72141 18.1621C1.7407 18.0992 1.77309 18.0412 1.81636 17.9917C1.85705 17.9417 1.90835 17.9014 1.96662 17.8739C2.02489 17.8464 2.08861 17.8322 2.15309 17.8327H22.3265C22.3337 18.6184 22.1427 19.3933 21.7713 20.0857C21.3999 20.7782 20.8601 21.3657 20.2017 21.7945V22.5109H3.69535L3.5279 21.5887Z" fill="#FF808C"/>
<path d="M14.2457 14.0917H10.6543V17.8327H14.2457V14.0917Z" fill="white"/>
<path d="M17.8365 14.0917H14.2451V17.8327H17.8365V14.0917Z" fill="#B2FFC0"/>
<path d="M22.3262 6.14208V17.8327H17.837V8.48954H20.9794V5.67439H17.837V4.27159C17.8348 4.15008 17.8806 4.03268 17.9648 3.94499C18.0491 3.85739 18.1645 3.80657 18.286 3.80389H20.0816C20.6888 3.81765 21.266 4.07137 21.6866 4.50954C22.1073 4.94772 22.3372 5.53473 22.3262 6.14208Z" fill="white"/>
<path d="M20.9793 5.67432H17.8369V8.48947H20.9793V5.67432Z" fill="#66E1FF"/>
<path d="M10.6543 14.0917H2.57373V17.8327H10.6543V14.0917Z" fill="#FFEF5E"/>
<path d="M6.16329 10.3507V14.0918H2.57381V10.8184C2.57152 10.6969 2.61747 10.5795 2.70163 10.4919C2.78578 10.4041 2.90128 10.3535 3.02269 10.3507H6.16329Z" fill="#66E1FF"/>
<path d="M10.6547 10.3507H6.16553V14.0918H10.6547V10.3507Z" fill="white"/>
<path d="M17.8371 10.3507H10.6543V14.0918H17.8371V10.3507Z" fill="#FF808C"/>
<path d="M17.8366 9.88309V10.3507H14.2452L8.54022 1.79319C8.48825 1.74008 8.44976 1.6755 8.42779 1.60453C8.40572 1.53365 8.40094 1.45856 8.41374 1.38549C8.42654 1.31241 8.45654 1.24334 8.50134 1.18412C8.54605 1.12489 8.60422 1.07722 8.67109 1.04494C8.74799 1.00653 8.83463 0.9923 8.91974 1.00395C9.00486 1.01561 9.08443 1.05277 9.14805 1.11047L17.8366 9.88309Z" fill="#E3E3E3"/>
<path d="M3.5279 21.5887C3.01406 21.2081 2.58611 20.7236 2.27192 20.1667C1.95764 19.6099 1.7642 18.993 1.70412 18.3565C1.69619 18.2911 1.70201 18.2249 1.72141 18.1621C1.7407 18.0992 1.77309 18.0412 1.81636 17.9917C1.85705 17.9417 1.90835 17.9014 1.96662 17.8739C2.02489 17.8464 2.08861 17.8322 2.15309 17.8327H22.3265C22.3337 18.6184 22.1427 19.3933 21.7713 20.0857C21.3999 20.7782 20.8601 21.3657 20.2017 21.7945V22.5109H3.69535L3.5279 21.5887Z" stroke="#191919" stroke-linecap="round" stroke-linejoin="round"/>
<path d="M14.2457 14.0917H10.6543V17.8327H14.2457V14.0917Z" stroke="#191919" stroke-linecap="round" stroke-linejoin="round"/>
<path d="M17.8365 14.0917H14.2451V17.8327H17.8365V14.0917Z" stroke="#191919" stroke-linecap="round" stroke-linejoin="round"/>
<path d="M22.3262 6.14208V17.8327H17.837V8.48954H20.9794V5.67439H17.837V4.27159C17.8348 4.15008 17.8806 4.03268 17.9648 3.94499C18.0491 3.85739 18.1645 3.80657 18.286 3.80389H20.0816C20.6888 3.81765 21.266 4.07137 21.6866 4.50954C22.1073 4.94772 22.3372 5.53473 22.3262 6.14208Z" stroke="#191919" stroke-linecap="round" stroke-linejoin="round"/>
<path d="M20.9793 5.67432H17.8369V8.48947H20.9793V5.67432Z" stroke="#191919" stroke-linecap="round" stroke-linejoin="round"/>
<path d="M22.3257 6.14203V1.93335" stroke="#191919" stroke-linecap="round" stroke-linejoin="round"/>
<path d="M8.40771 1.46759L8.41612 5.96151" stroke="#191919" stroke-linecap="round" stroke-linejoin="round"/>
<path d="M7.75303 7.54676C7.59341 7.3645 7.50753 7.12922 7.5124 6.88697C7.51728 6.64481 7.61242 6.41306 7.77921 6.23739C7.86031 6.15237 7.95755 6.08436 8.06531 6.03746C8.17306 5.99055 8.28912 5.96572 8.40662 5.96447C8.52412 5.96314 8.64066 5.98539 8.74946 6.02981C8.85827 6.07433 8.95704 6.14015 9.03996 6.22335C9.21057 6.39568 9.31068 6.62551 9.32052 6.86777C9.33036 7.11002 9.24935 7.34721 9.09326 7.53272" stroke="#191919" stroke-linecap="round" stroke-linejoin="round"/>
<path d="M10.6543 14.0917H2.57373V17.8327H10.6543V14.0917Z" stroke="#191919" stroke-linecap="round" stroke-linejoin="round"/>
<path d="M6.16329 10.3507V14.0918H2.57381V10.8184C2.57152 10.6969 2.61747 10.5795 2.70163 10.4919C2.78578 10.4041 2.90128 10.3535 3.02269 10.3507H6.16329Z" stroke="#191919" stroke-linecap="round" stroke-linejoin="round"/>
<path d="M10.6547 10.3507H6.16553V14.0918H10.6547V10.3507Z" stroke="#191919" stroke-linecap="round" stroke-linejoin="round"/>
<path d="M17.8371 10.3507H10.6543V14.0918H17.8371V10.3507Z" stroke="#191919" stroke-linecap="round" stroke-linejoin="round"/>
<path d="M17.8366 9.88309V10.3507H14.2452L8.54022 1.79319C8.48825 1.74008 8.44976 1.6755 8.42779 1.60453C8.40572 1.53365 8.40094 1.45856 8.41374 1.38549C8.42654 1.31241 8.45654 1.24334 8.50134 1.18412C8.54605 1.12489 8.60422 1.07722 8.67109 1.04494C8.74799 1.00653 8.83463 0.9923 8.91974 1.00395C9.00486 1.01561 9.08443 1.05277 9.14805 1.11047L17.8366 9.88309Z" stroke="#191919" stroke-linecap="round" stroke-linejoin="round"/>
<path d="M3.6958 21.3446V21.3353" stroke="#191919" stroke-linecap="round" stroke-linejoin="round"/>
<path d="M7.73584 21.3446V21.3353" stroke="#191919" stroke-linecap="round" stroke-linejoin="round"/>
<path d="M11.7744 21.3446L11.7678 21.3419L11.7651 21.3353" stroke="#191919" stroke-linecap="round" stroke-linejoin="round"/>
<path d="M15.8071 21.3446V21.3353" stroke="#191919" stroke-linecap="round" stroke-linejoin="round"/>
<path d="M21.8754 21.5971V23H1.67383V21.5971C2.08306 21.5941 2.48446 21.4848 2.83858 21.2799C3.19279 21.0749 3.48758 20.7813 3.69401 20.4281C3.89987 20.7813 4.19466 21.0743 4.54916 21.2781C4.90365 21.4817 5.30534 21.589 5.7141 21.589C6.12285 21.589 6.52463 21.4817 6.87913 21.2781C7.23353 21.0743 7.52842 20.7813 7.73428 20.4281C7.94014 20.7813 8.23503 21.0743 8.58943 21.2781C8.94392 21.4817 9.34561 21.589 9.75446 21.589C10.1633 21.589 10.5649 21.4817 10.9194 21.2781C11.2738 21.0743 11.5687 20.7813 11.7745 20.4281C11.9796 20.7807 12.2739 21.0734 12.6275 21.2769C12.9811 21.4803 13.382 21.5874 13.79 21.5874C14.1981 21.5874 14.599 21.4803 14.9526 21.2769C15.3063 21.0734 15.6005 20.7807 15.8055 20.4281C16.0114 20.7813 16.3063 21.0743 16.6607 21.2781C17.0152 21.4817 17.4169 21.589 17.8256 21.589C18.2345 21.589 18.6362 21.4817 18.9907 21.2781C19.3451 21.0743 19.64 20.7813 19.8458 20.4281L19.8552 20.4187C20.0603 20.7739 20.3545 21.0694 20.7088 21.2761C21.0631 21.4829 21.4653 21.5935 21.8754 21.5971Z" fill="#66E1FF"/>
<path d="M21.8754 21.5971C21.4653 21.5944 21.063 21.4848 20.7082 21.2791C20.3535 21.0734 20.0586 20.7788 19.8524 20.4243V20.429C19.6475 20.7836 19.3528 21.078 18.9978 21.2826C18.6431 21.4871 18.2405 21.5945 17.8309 21.594C17.4213 21.5936 17.019 21.4852 16.6646 21.2798C16.3102 21.0745 16.0162 20.7794 15.812 20.4243V20.429C15.6071 20.7836 15.3124 21.0781 14.9576 21.2826C14.6027 21.4871 14.2001 21.5945 13.7906 21.594C13.381 21.5936 12.9787 21.4852 12.6243 21.2798C12.2698 21.0745 11.9758 20.7794 11.7718 20.4243V20.429C11.5669 20.7837 11.2722 21.0781 10.9172 21.2826C10.5624 21.4871 10.1599 21.5945 9.75026 21.594C9.34064 21.5936 8.93838 21.4853 8.58398 21.2798C8.22958 21.0745 7.93555 20.7795 7.73151 20.4243V20.429C7.52651 20.7837 7.23181 21.0781 6.87693 21.2826C6.52205 21.4871 6.1196 21.5945 5.70999 21.594C5.30037 21.5936 4.89811 21.4853 4.54371 21.2799C4.18931 21.0746 3.89528 20.7795 3.69114 20.4243V20.429C3.48509 20.782 3.19078 21.0752 2.83705 21.2801C2.48341 21.4849 2.08249 21.5941 1.67383 21.5972" stroke="#191919" stroke-linecap="round" stroke-linejoin="round"/>
</g>
<defs>
<clipPath id="clip0_5303_7114">
<rect width="24" height="24" fill="white"/>
</clipPath>
</defs>
</svg>
