<svg width="24" height="24" viewBox="0 0 24 24" fill="none" xmlns="http://www.w3.org/2000/svg">
<g clip-path="url(#clip0_5303_6987)">
<path d="M14.3909 12.4783H16.304C16.5576 12.4783 16.801 12.3775 16.9803 12.1981C17.1597 12.0188 17.2605 11.7754 17.2605 11.5218V1.95652C17.2605 1.70283 17.1597 1.45954 16.9803 1.28016C16.801 1.10078 16.5576 1 16.304 1H5.78221C5.52852 1 5.28523 1.10078 5.10584 1.28016C4.92646 1.45954 4.82568 1.70283 4.82568 1.95652V11.5218C4.82568 11.7754 4.92646 12.0188 5.10584 12.1981C5.28523 12.3775 5.52852 12.4783 5.78221 12.4783H7.69525" fill="#FFBC44"/>
<path d="M16.304 1H5.78221C5.52852 1 5.28523 1.10078 5.10584 1.28016C4.92646 1.45954 4.82568 1.70283 4.82568 1.95652V5.30435C4.82568 5.05067 4.92646 4.80737 5.10584 4.62799C5.28523 4.44861 5.52852 4.34783 5.78221 4.34783H16.304C16.5576 4.34783 16.801 4.44861 16.9803 4.62799C17.1597 4.80737 17.2605 5.05067 17.2605 5.30435V1.95652C17.2605 1.70283 17.1597 1.45954 16.9803 1.28016C16.801 1.10078 16.5576 1 16.304 1Z" fill="#FFDDA1"/>
<path d="M14.3909 12.4783H16.304C16.5576 12.4783 16.801 12.3775 16.9803 12.1981C17.1597 12.0188 17.2605 11.7754 17.2605 11.5218V1.95652C17.2605 1.70283 17.1597 1.45954 16.9803 1.28016C16.801 1.10078 16.5576 1 16.304 1H5.78221C5.52852 1 5.28523 1.10078 5.10584 1.28016C4.92646 1.45954 4.82568 1.70283 4.82568 1.95652V11.5218C4.82568 11.7754 4.92646 12.0188 5.10584 12.1981C5.28523 12.3775 5.52852 12.4783 5.78221 12.4783H7.69525" stroke="#191919" stroke-linecap="round" stroke-linejoin="round"/>
<path d="M8.65137 1V6.65305C8.65139 6.74457 8.67767 6.83417 8.72709 6.9112C8.77651 6.98824 8.847 7.04946 8.93017 7.08764C9.01336 7.12581 9.10575 7.1393 9.19638 7.12653C9.28701 7.11375 9.37206 7.07524 9.44146 7.01558L11.0427 5.63818L12.6439 7.01558C12.7132 7.07524 12.7984 7.11375 12.889 7.12653C12.9796 7.1393 13.072 7.12581 13.1552 7.08764C13.2384 7.04946 13.3089 6.98824 13.3582 6.9112C13.4077 6.83417 13.434 6.74457 13.434 6.65305V1H8.65137Z" fill="white"/>
<path d="M7.69579 23L5.15909 20.0548C4.91543 19.7622 4.79799 19.3848 4.83261 19.0055C4.86723 18.6264 5.05108 18.2764 5.3437 18.0328C5.63633 17.7891 6.01377 17.6717 6.39298 17.7063C6.7722 17.7409 7.12213 17.9248 7.36579 18.2174L9.60884 20.9205V11.5217C9.60884 11.1412 9.76001 10.7762 10.0291 10.5071C10.2981 10.238 10.6631 10.0869 11.0436 10.0869C11.4241 10.0869 11.7891 10.238 12.0582 10.5071C12.3273 10.7762 12.4784 11.1412 12.4784 11.5217V17.7391H15.348C16.3628 17.7391 17.3359 18.1422 18.0534 18.8598C18.771 19.5773 19.1741 20.5504 19.1741 21.5652V23" fill="#FFDDA1"/>
<path d="M8.65137 1V6.65305C8.65139 6.74457 8.67767 6.83417 8.72709 6.9112C8.77651 6.98824 8.847 7.04946 8.93017 7.08764C9.01336 7.12581 9.10575 7.1393 9.19638 7.12653C9.28701 7.11375 9.37206 7.07524 9.44146 7.01558L11.0427 5.63818L12.6439 7.01558C12.7132 7.07524 12.7984 7.11375 12.889 7.12653C12.9796 7.1393 13.072 7.12581 13.1552 7.08764C13.2384 7.04946 13.3089 6.98824 13.3582 6.9112C13.4077 6.83417 13.434 6.74457 13.434 6.65305V1H8.65137Z" stroke="#191919" stroke-linecap="round" stroke-linejoin="round"/>
<path d="M7.69579 23L5.15909 20.0548C4.91543 19.7622 4.79799 19.3848 4.83261 19.0055C4.86723 18.6264 5.05108 18.2764 5.3437 18.0328C5.63633 17.7891 6.01377 17.6717 6.39298 17.7063C6.7722 17.7409 7.12213 17.9248 7.36579 18.2174L9.60884 20.9205V11.5217C9.60884 11.1412 9.76001 10.7762 10.0291 10.5071C10.2981 10.238 10.6631 10.0869 11.0436 10.0869C11.4241 10.0869 11.7891 10.238 12.0582 10.5071C12.3273 10.7762 12.4784 11.1412 12.4784 11.5217V17.7391H15.348C16.3628 17.7391 17.3359 18.1422 18.0534 18.8598C18.771 19.5773 19.1741 20.5504 19.1741 21.5652V23" stroke="#191919" stroke-linecap="round" stroke-linejoin="round"/>
</g>
<defs>
<clipPath id="clip0_5303_6987">
<rect width="24" height="24" fill="white"/>
</clipPath>
</defs>
</svg>
