<svg width="24" height="24" viewBox="0 0 24 24" fill="none" xmlns="http://www.w3.org/2000/svg">
<g clip-path="url(#clip0_5303_7007)">
<path d="M1 1.95652C1 1.70284 1.10078 1.45954 1.28016 1.28016C1.45954 1.10078 1.70284 1 1.95652 1H22.0435C22.2972 1 22.5405 1.10078 22.7198 1.28016C22.8992 1.45954 23 1.70284 23 1.95652V22.0435C23 22.2972 22.8992 22.5405 22.7198 22.7198C22.5405 22.8992 22.2972 23 22.0435 23H1.95652C1.70284 23 1.45954 22.8992 1.28016 22.7198C1.10078 22.5405 1 22.2972 1 22.0435V1.95652Z" fill="#FFBC44"/>
<path d="M22.0435 1H1.95652C1.70284 1 1.45954 1.10078 1.28016 1.28016C1.10078 1.45954 1 1.70284 1 1.95652V6.0973C1 5.84362 1.10078 5.60032 1.28016 5.42094C1.45954 5.24156 1.70284 5.14078 1.95652 5.14078H22.0435C22.2972 5.14078 22.5405 5.24156 22.7198 5.42094C22.8992 5.60032 23 5.84362 23 6.0973V1.95652C23 1.70284 22.8992 1.45954 22.7198 1.28016C22.5405 1.10078 22.2972 1 22.0435 1Z" fill="#FFDDA1"/>
<path d="M1 1.95652C1 1.70284 1.10078 1.45954 1.28016 1.28016C1.45954 1.10078 1.70284 1 1.95652 1H22.0435C22.2972 1 22.5405 1.10078 22.7198 1.28016C22.8992 1.45954 23 1.70284 23 1.95652V22.0435C23 22.2972 22.8992 22.5405 22.7198 22.7198C22.5405 22.8992 22.2972 23 22.0435 23H1.95652C1.70284 23 1.45954 22.8992 1.28016 22.7198C1.10078 22.5405 1 22.2972 1 22.0435V1.95652Z" stroke="#191919" stroke-linecap="round" stroke-linejoin="round"/>
<path d="M3.86963 20.1304H20.1305" stroke="#191919" stroke-linecap="round" stroke-linejoin="round"/>
<path d="M7.69531 17.2609V4.82608" stroke="#191919" stroke-linecap="round" stroke-linejoin="round"/>
<path d="M4.82568 7.69565L7.69525 4.82608L10.5648 7.69565" stroke="#191919" stroke-linecap="round" stroke-linejoin="round"/>
<path d="M16.3042 17.2609V4.82608" stroke="#191919" stroke-linecap="round" stroke-linejoin="round"/>
<path d="M13.4346 7.69565L16.3041 4.82608L19.1737 7.69565" stroke="#191919" stroke-linecap="round" stroke-linejoin="round"/>
</g>
<defs>
<clipPath id="clip0_5303_7007">
<rect width="24" height="24" fill="white"/>
</clipPath>
</defs>
</svg>
