<svg width="24" height="24" viewBox="0 0 24 24" fill="none" xmlns="http://www.w3.org/2000/svg">
<g clip-path="url(#clip0_5303_6977)">
<path d="M14.3918 5.21828V14.3913C14.3918 14.645 14.291 14.8883 14.1116 15.0677C13.9323 15.247 13.689 15.3478 13.4353 15.3478H1.95704C1.70336 15.3478 1.46007 15.247 1.28068 15.0677C1.1013 14.8883 1.00053 14.645 1.00053 14.3913V5.21828C0.999217 5.08163 1.0321 4.94681 1.09618 4.82611H14.2962C14.3602 4.94681 14.3931 5.08163 14.3918 5.21828Z" fill="#FFBC44"/>
<path d="M14.2962 4.82608H1.09619C1.1361 4.72161 1.19809 4.62699 1.27793 4.54869L4.54923 1.27739C4.72791 1.10146 4.96804 1.00197 5.2188 1H10.1736C10.4243 1.00197 10.6645 1.10146 10.8431 1.27739L14.1144 4.54869C14.1943 4.62699 14.2563 4.72161 14.2962 4.82608Z" fill="#FFDDA1"/>
<path d="M8.65265 15.3478H1.95701C1.70332 15.3478 1.46003 15.247 1.28065 15.0676C1.10126 14.8883 1.00049 14.645 1.00049 14.3913V5.22208C1.00054 4.96842 1.10135 4.72516 1.28075 4.54582L4.54631 1.28026C4.72565 1.10087 4.96891 1.00005 5.22257 1H10.1697C10.4234 1.00005 10.6666 1.10087 10.8459 1.28026L14.1115 4.54582C14.2909 4.72516 14.3917 4.96842 14.3918 5.22208V8.65216" stroke="#191919" stroke-linecap="round" stroke-linejoin="round"/>
<path d="M14.306 4.82611H1.08691" stroke="#191919" stroke-linecap="round" stroke-linejoin="round"/>
<path d="M7.6958 1V4.82608" stroke="#191919" stroke-linecap="round" stroke-linejoin="round"/>
<path d="M16.8106 21.1424C17.6674 21.1424 18.505 20.8884 19.2174 20.4123C19.9298 19.9363 20.4851 19.2597 20.813 18.4682C21.1408 17.6766 21.2266 16.8056 21.0595 15.9652C20.8923 15.1249 20.4797 14.3529 19.8739 13.7471C19.268 13.1412 18.4961 12.7287 17.6558 12.5615C16.8154 12.3944 15.9444 12.4802 15.1528 12.8081C14.3612 13.1359 13.6846 13.6911 13.2086 14.4035C12.7326 15.116 12.4785 15.9535 12.4785 16.8103C12.4785 17.3793 12.5905 17.9426 12.8082 18.4682C13.026 18.9938 13.3451 19.4713 13.7473 19.8736C14.5598 20.686 15.6616 21.1424 16.8106 21.1424Z" fill="#66E1FF"/>
<path d="M16.8105 12.4783C15.9522 12.4779 15.1132 12.7326 14.3999 13.2101C13.6866 13.6875 13.1314 14.3662 12.8046 15.1599C12.4779 15.9535 12.3943 16.8264 12.5646 17.6677C12.7349 18.5088 13.1514 19.2806 13.7611 19.8846L19.8829 13.7629C19.4813 13.356 19.003 13.033 18.4755 12.8124C17.9481 12.5919 17.3821 12.4783 16.8105 12.4783Z" fill="#C2F3FF"/>
<path d="M16.8106 21.1424C17.6674 21.1424 18.505 20.8884 19.2174 20.4123C19.9298 19.9363 20.4851 19.2597 20.813 18.4682C21.1408 17.6766 21.2266 16.8056 21.0595 15.9652C20.8923 15.1249 20.4797 14.3529 19.8739 13.7471C19.268 13.1412 18.4961 12.7287 17.6558 12.5615C16.8154 12.3944 15.9444 12.4802 15.1528 12.8081C14.3612 13.1359 13.6846 13.6911 13.2086 14.4035C12.7326 15.116 12.4785 15.9535 12.4785 16.8103C12.4785 17.3793 12.5905 17.9426 12.8082 18.4682C13.026 18.9938 13.3451 19.4713 13.7473 19.8736C14.5598 20.686 15.6616 21.1424 16.8106 21.1424Z" stroke="#191919" stroke-linecap="round" stroke-linejoin="round"/>
<path d="M22.9998 23L19.8931 19.8913" stroke="#191919" stroke-linecap="round" stroke-linejoin="round"/>
</g>
<defs>
<clipPath id="clip0_5303_6977">
<rect width="24" height="24" fill="white"/>
</clipPath>
</defs>
</svg>
