<svg width="24" height="24" viewBox="0 0 24 24" fill="none" xmlns="http://www.w3.org/2000/svg">
<g clip-path="url(#clip0_5303_6958)">
<path d="M1.95652 16.3043C1.70283 16.3043 1.45954 16.2035 1.28016 16.0241C1.10078 15.8448 1 15.6014 1 15.3478V1.95652C1 1.70283 1.10078 1.45954 1.28016 1.28016C1.45954 1.10078 1.70283 1 1.95652 1H16.3043C16.558 1 16.8013 1.10078 16.9807 1.28016C17.16 1.45954 17.2608 1.70283 17.2608 1.95652V16.3043H1.95652Z" fill="#FFBC44"/>
<path d="M16.3043 1H1.95652C1.70283 1 1.45954 1.10078 1.28016 1.28016C1.10078 1.45954 1 1.70283 1 1.95652V5.30433C1 5.05065 1.10078 4.80736 1.28016 4.62797C1.45954 4.44859 1.70283 4.34781 1.95652 4.34781H16.3043C16.558 4.34781 16.8013 4.44859 16.9807 4.62797C17.16 4.80736 17.2608 5.05065 17.2608 5.30433V1.95652C17.2608 1.70283 17.16 1.45954 16.9807 1.28016C16.8013 1.10078 16.558 1 16.3043 1Z" fill="#FFDDA1"/>
<path d="M11.5218 1V7.49763C11.5217 7.59207 11.4934 7.68433 11.4409 7.76279C11.3883 7.84124 11.3137 7.90237 11.2265 7.93849C11.1392 7.9746 11.0432 7.98407 10.9506 7.9657C10.8579 7.94734 10.7728 7.90195 10.7059 7.83528L9.13055 6.26085L7.55517 7.83528C7.48829 7.90195 7.40317 7.94734 7.31053 7.9657C7.2179 7.98407 7.12189 7.9746 7.03464 7.93849C6.94738 7.90237 6.87276 7.84124 6.8202 7.76279C6.76763 7.68433 6.73947 7.59207 6.73926 7.49763V1" fill="white"/>
<path d="M9.60867 16.3043H1.95652C1.70283 16.3043 1.45954 16.2035 1.28016 16.0241C1.10078 15.8448 1 15.6014 1 15.3478V1.95652C1 1.70283 1.10078 1.45954 1.28016 1.28016C1.45954 1.10078 1.70283 1 1.95652 1H16.3043C16.558 1 16.8013 1.10078 16.9807 1.28016C17.16 1.45954 17.2608 1.70283 17.2608 1.95652V7.21737" stroke="#191919" stroke-linecap="round" stroke-linejoin="round"/>
<path d="M22.9999 21.7966C19.8434 23.3175 19.6177 22.9645 16.1714 22.9645C14.5453 22.9645 13.7188 21.9018 13.2387 20.3446V20.3351L12.0908 16.1732V16.1656C12.0354 15.9804 12.0239 15.7849 12.0572 15.5945C12.0905 15.4041 12.1678 15.2241 12.2827 15.0687C12.3978 14.9134 12.5475 14.7871 12.7199 14.6996C12.8923 14.6123 13.0827 14.5663 13.276 14.5653H16.3148C16.5042 14.5646 16.691 14.5205 16.8608 14.4365C17.0306 14.3525 17.179 14.2309 17.2946 14.0809C17.4101 13.9309 17.49 13.7564 17.5279 13.5707C17.5659 13.3852 17.5609 13.1934 17.5134 13.01L16.9739 10.9382C16.9104 10.6976 16.9336 10.4422 17.0394 10.2168C17.1452 9.99154 17.3268 9.81059 17.5526 9.70571C17.7783 9.60082 18.0338 9.57866 18.2742 9.6431C18.5146 9.70754 18.7248 9.85449 18.8678 10.0582L21.898 14.3511C22.0127 14.5128 22.1644 14.6447 22.3404 14.7359C22.5165 14.8271 22.7117 14.8749 22.91 14.8752" fill="#FFDDA1"/>
<path d="M11.5218 1V7.49763C11.5217 7.59207 11.4934 7.68433 11.4409 7.76279C11.3883 7.84124 11.3137 7.90237 11.2265 7.93849C11.1392 7.9746 11.0432 7.98407 10.9506 7.9657C10.8579 7.94734 10.7728 7.90195 10.7059 7.83528L9.13055 6.26085L7.55517 7.83528C7.48829 7.90195 7.40317 7.94734 7.31053 7.9657C7.2179 7.98407 7.12189 7.9746 7.03464 7.93849C6.94738 7.90237 6.87276 7.84124 6.8202 7.76279C6.76763 7.68433 6.73947 7.59207 6.73926 7.49763V1" stroke="#191919" stroke-linecap="round" stroke-linejoin="round"/>
<path d="M22.9999 21.7966C19.8434 23.3175 19.6177 22.9645 16.1714 22.9645C14.5453 22.9645 13.7188 21.9018 13.2387 20.3446V20.3351L12.0908 16.1732V16.1656C12.0354 15.9804 12.0239 15.7849 12.0572 15.5945C12.0905 15.4041 12.1678 15.2241 12.2827 15.0687C12.3978 14.9134 12.5475 14.7871 12.7199 14.6996C12.8923 14.6123 13.0827 14.5663 13.276 14.5653H16.3148C16.5042 14.5646 16.691 14.5205 16.8608 14.4365C17.0306 14.3525 17.179 14.2309 17.2946 14.0809C17.4101 13.9309 17.49 13.7564 17.5279 13.5707C17.5659 13.3852 17.5609 13.1934 17.5134 13.01L16.9739 10.9382C16.9104 10.6976 16.9336 10.4422 17.0394 10.2168C17.1452 9.99154 17.3268 9.81059 17.5526 9.70571C17.7783 9.60082 18.0338 9.57866 18.2742 9.6431C18.5146 9.70754 18.7248 9.85449 18.8678 10.0582L21.898 14.3511C22.0127 14.5128 22.1644 14.6447 22.3404 14.7359C22.5165 14.8271 22.7117 14.8749 22.91 14.8752" stroke="#191919" stroke-linecap="round" stroke-linejoin="round"/>
</g>
<defs>
<clipPath id="clip0_5303_6958">
<rect width="24" height="24" fill="white"/>
</clipPath>
</defs>
</svg>
