<svg width="24" height="24" viewBox="0 0 24 24" fill="none" xmlns="http://www.w3.org/2000/svg">
<g clip-path="url(#clip0_5303_6937)">
<path d="M1 1.95652C1 1.70283 1.10078 1.45954 1.28016 1.28016C1.45954 1.10078 1.70283 1 1.95652 1H22.0435C22.2971 1 22.5405 1.10078 22.7198 1.28016C22.8992 1.45954 23 1.70283 23 1.95652V22.0435C23 22.2971 22.8992 22.5405 22.7198 22.7198C22.5405 22.8992 22.2971 23 22.0435 23H1.95652C1.70283 23 1.45954 22.8992 1.28016 22.7198C1.10078 22.5405 1 22.2971 1 22.0435V1.95652Z" fill="#FFBC44"/>
<path d="M22.0435 1H1.95652C1.70283 1 1.45954 1.10078 1.28016 1.28016C1.10078 1.45954 1 1.70283 1 1.95652V6.67026C1 6.41657 1.10078 6.17328 1.28016 5.99389C1.45954 5.81452 1.70283 5.71374 1.95652 5.71374H22.0435C22.2971 5.71374 22.5405 5.81452 22.7198 5.99389C22.8992 6.17328 23 6.41657 23 6.67026V1.95652C23 1.70283 22.8992 1.45954 22.7198 1.28016C22.5405 1.10078 22.2971 1 22.0435 1Z" fill="#FFDDA1"/>
<path d="M1 1.95652C1 1.70283 1.10078 1.45954 1.28016 1.28016C1.45954 1.10078 1.70283 1 1.95652 1H22.0435C22.2971 1 22.5405 1.10078 22.7198 1.28016C22.8992 1.45954 23 1.70283 23 1.95652V22.0435C23 22.2971 22.8992 22.5405 22.7198 22.7198C22.5405 22.8992 22.2971 23 22.0435 23H1.95652C1.70283 23 1.45954 22.8992 1.28016 22.7198C1.10078 22.5405 1 22.2971 1 22.0435V1.95652Z" stroke="#191919" stroke-linecap="round" stroke-linejoin="round"/>
<path d="M15.347 8.66365C15.347 8.74827 15.3246 8.83138 15.282 8.90449C15.2394 8.97761 15.1782 9.03812 15.1045 9.07984C15.031 9.12156 14.9476 9.143 14.8629 9.14198C14.7784 9.14095 14.6955 9.11749 14.6229 9.074L12.2383 7.63922L9.35058 9.14478C9.27772 9.18274 9.19631 9.20128 9.11419 9.19863C9.03207 9.19598 8.95202 9.17221 8.88176 9.12964C8.81149 9.08706 8.75338 9.02709 8.71303 8.95552C8.67268 8.88396 8.65144 8.8032 8.65137 8.72104V1H15.347V8.66365Z" fill="white"/>
<path d="M15.347 8.66365C15.347 8.74827 15.3246 8.83138 15.282 8.90449C15.2394 8.97761 15.1782 9.03812 15.1045 9.07984C15.031 9.12156 14.9476 9.143 14.8629 9.14198C14.7784 9.14095 14.6955 9.11749 14.6229 9.074L12.2383 7.63922L9.35058 9.14478C9.27772 9.18274 9.19631 9.20128 9.11419 9.19863C9.03207 9.19598 8.95202 9.17221 8.88176 9.12964C8.81149 9.08706 8.75338 9.02709 8.71303 8.95552C8.67268 8.88396 8.65144 8.8032 8.65137 8.72104V1H15.347V8.66365Z" stroke="#191919" stroke-linecap="round" stroke-linejoin="round"/>
<path d="M17.2603 19.6522V14.4143" stroke="#191919" stroke-linecap="round" stroke-linejoin="round"/>
<path d="M14.3906 19.6523V18.7187" stroke="#191919" stroke-linecap="round" stroke-linejoin="round"/>
<path d="M20.1299 19.6523V18.7187" stroke="#191919" stroke-linecap="round" stroke-linejoin="round"/>
<path d="M11.521 19.6522V14.4143" stroke="#191919" stroke-linecap="round" stroke-linejoin="round"/>
<path d="M20.1299 16.3273V14.4143" stroke="#191919" stroke-linecap="round" stroke-linejoin="round"/>
<path d="M14.3906 16.3273V14.4143" stroke="#191919" stroke-linecap="round" stroke-linejoin="round"/>
</g>
<defs>
<clipPath id="clip0_5303_6937">
<rect width="24" height="24" fill="white"/>
</clipPath>
</defs>
</svg>
