<svg width="24" height="24" viewBox="0 0 24 24" fill="none" xmlns="http://www.w3.org/2000/svg">
<g clip-path="url(#clip0_5303_6949)">
<path d="M14.3893 5.21723V14.3882C14.3893 14.6419 14.2885 14.8851 14.1092 15.0645C13.9298 15.2438 13.6866 15.3445 13.433 15.3445H1.95731C1.70367 15.3445 1.46042 15.2438 1.28108 15.0645C1.10174 14.8851 1.00101 14.6419 1.00101 14.3882V5.21723C0.999707 5.08062 1.03259 4.94588 1.09659 4.8252H14.2937C14.3578 4.94588 14.3906 5.08062 14.3893 5.21723Z" fill="#FFBC44"/>
<path d="M14.2938 4.82527H1.09668C1.1366 4.7208 1.19862 4.62616 1.27846 4.54792L4.54903 1.27735C4.72762 1.10148 4.96768 1.00197 5.21842 1H10.1721C10.4228 1.00197 10.6629 1.10148 10.8415 1.27735L14.1121 4.54792C14.1919 4.62616 14.2539 4.7208 14.2938 4.82527Z" fill="#FFDDA1"/>
<path d="M8.65143 15.3446H1.95727C1.70363 15.3446 1.46038 15.2439 1.28104 15.0645C1.1017 14.8852 1.00098 14.642 1.00098 14.3883V5.22209C1.00098 4.96854 1.1018 4.7253 1.28114 4.54605L4.54599 1.28119C4.63473 1.19218 4.74005 1.12153 4.85605 1.07327C4.97205 1.02502 5.09648 1.00019 5.22213 1H10.1681C10.4218 1.00009 10.6649 1.10082 10.8443 1.28025L14.109 4.54502C14.2884 4.72436 14.3892 4.9676 14.3893 5.22115V10.5631" stroke="#191919" stroke-linecap="round" stroke-linejoin="round"/>
<path d="M14.3036 4.8252H1.0874" stroke="#191919" stroke-linecap="round" stroke-linejoin="round"/>
<path d="M7.69482 1V4.82527" stroke="#191919" stroke-linecap="round" stroke-linejoin="round"/>
<path d="M17.933 11.9316L19.4048 15.3456H22.2679C22.4127 15.3399 22.5555 15.3791 22.6772 15.4577C22.7987 15.5363 22.8931 15.6505 22.9474 15.7848C23.0015 15.9191 23.0129 16.0667 22.9801 16.2078C22.9471 16.3488 22.8714 16.4761 22.7633 16.5725L20.2769 18.7874L21.654 21.9556C21.7145 22.1005 21.728 22.2607 21.6925 22.4137C21.6572 22.5667 21.5748 22.7047 21.4569 22.8083C21.3389 22.912 21.1914 22.976 21.0352 22.9916C20.8789 23.0071 20.7218 22.9732 20.5859 22.8947L17.2636 21.0194L13.9356 22.8995C13.7997 22.978 13.6425 23.0118 13.4863 22.9964C13.3301 22.9809 13.1826 22.9168 13.0646 22.8131C12.9467 22.7095 12.8643 22.5714 12.829 22.4184C12.7935 22.2655 12.807 22.1053 12.8675 21.9604L14.2417 18.7874L11.7553 16.5725C11.6466 16.4767 11.5702 16.3495 11.5367 16.2086C11.5031 16.0676 11.514 15.9196 11.5679 15.7852C11.6216 15.6506 11.7159 15.5361 11.8374 15.4572C11.959 15.3783 12.102 15.339 12.2468 15.3446H15.1158L16.5894 11.9306C16.6549 11.8089 16.7521 11.7072 16.8708 11.6364C16.9893 11.5655 17.125 11.528 17.2631 11.528C17.4013 11.528 17.5369 11.5655 17.6555 11.6364C17.7742 11.7072 17.8714 11.8089 17.9369 11.9306L17.933 11.9316Z" fill="#FFEF5E"/>
<path d="M19.4051 15.3446L17.9333 11.9305C17.8678 11.8088 17.7707 11.7072 17.6519 11.6363C17.5334 11.5655 17.3977 11.528 17.2596 11.528C17.1214 11.528 16.9858 11.5655 16.8672 11.6363C16.7485 11.7072 16.6513 11.8088 16.5858 11.9305L15.1122 15.3446H12.2433C12.0987 15.3392 11.956 15.3787 11.8346 15.4575C11.7133 15.5363 11.6193 15.6507 11.5655 15.785C11.5116 15.9193 11.5007 16.067 11.534 16.2077C11.5673 16.3486 11.6434 16.4756 11.7517 16.5716L14.2381 18.7863L12.8639 21.9537C12.7958 22.1231 12.7924 22.3117 12.8544 22.4834L19.998 15.3446H19.4051Z" fill="#FFF9BF"/>
<path d="M17.933 11.9316L19.4048 15.3456H22.2679C22.4127 15.3399 22.5555 15.3791 22.6772 15.4577C22.7987 15.5363 22.8931 15.6505 22.9474 15.7848C23.0015 15.9191 23.0129 16.0667 22.9801 16.2078C22.9471 16.3488 22.8714 16.4761 22.7633 16.5725L20.2769 18.7874L21.654 21.9556C21.7145 22.1005 21.728 22.2607 21.6925 22.4137C21.6572 22.5667 21.5748 22.7047 21.4569 22.8083C21.3389 22.912 21.1914 22.976 21.0352 22.9916C20.8789 23.0071 20.7218 22.9732 20.5859 22.8947L17.2636 21.0194L13.9356 22.8995C13.7997 22.978 13.6425 23.0118 13.4863 22.9964C13.3301 22.9809 13.1826 22.9168 13.0646 22.8131C12.9467 22.7095 12.8643 22.5714 12.829 22.4184C12.7935 22.2655 12.807 22.1053 12.8675 21.9604L14.2417 18.7874L11.7553 16.5725C11.6466 16.4767 11.5702 16.3495 11.5367 16.2086C11.5031 16.0676 11.514 15.9196 11.5679 15.7852C11.6216 15.6506 11.7159 15.5361 11.8374 15.4572C11.959 15.3783 12.102 15.339 12.2468 15.3446H15.1158L16.5894 11.9306C16.6549 11.8089 16.7521 11.7072 16.8708 11.6364C16.9893 11.5655 17.125 11.528 17.2631 11.528C17.4013 11.528 17.5369 11.5655 17.6555 11.6364C17.7742 11.7072 17.8714 11.8089 17.9369 11.9306L17.933 11.9316Z" stroke="#191919" stroke-linecap="round" stroke-linejoin="round"/>
</g>
<defs>
<clipPath id="clip0_5303_6949">
<rect width="24" height="24" fill="white"/>
</clipPath>
</defs>
</svg>
