<svg width="24" height="24" viewBox="0 0 24 24" fill="none" xmlns="http://www.w3.org/2000/svg">
<g clip-path="url(#clip0_5303_6995)">
<path d="M1 2C1 1.73478 1.10536 1.48043 1.29289 1.29289C1.48043 1.10536 1.73478 1 2 1H22C22.2652 1 22.5196 1.10536 22.7071 1.29289C22.8946 1.48043 23 1.73478 23 2V18C23 18.2652 22.8946 18.5196 22.7071 18.7071C22.5196 18.8946 22.2652 19 22 19H2C1.73478 19 1.48043 18.8946 1.29289 18.7071C1.10536 18.5196 1 18.2652 1 18V2Z" fill="#66E1FF"/>
<path d="M2 1C1.73478 1 1.48043 1.10536 1.29289 1.29289C1.10536 1.48043 1 1.73478 1 2V18C1 18.2652 1.10536 18.5196 1.29289 18.7071C1.48043 18.8946 1.73478 19 2 19H3.187L21.187 1H2Z" fill="#C2F3FF"/>
<path d="M18.0005 6.66796V12.828C17.9994 13.0266 17.9401 13.2206 17.8299 13.3859C17.7197 13.5512 17.5634 13.6805 17.3805 13.758L12.3805 15.838C12.2597 15.8861 12.1305 15.9099 12.0005 15.908V8.49996L17.8105 6.07996C17.9335 6.25096 18.0005 6.45696 18.0005 6.66796Z" fill="#C77F67"/>
<path d="M17.8125 6.07795L12.0005 8.49995V15.9099C11.8673 15.9111 11.735 15.8873 11.6105 15.8399L6.61052 13.7199C6.42923 13.6442 6.2745 13.5163 6.16591 13.3525C6.05732 13.1887 5.99977 12.9964 6.00052 12.7999V6.66795C5.99883 6.47124 6.05601 6.27853 6.16472 6.11458C6.27342 5.95064 6.42868 5.82295 6.61052 5.74795L11.6105 3.65795C11.8575 3.55795 12.1335 3.55795 12.3805 3.65795L17.3805 5.74795C17.5515 5.81695 17.7005 5.93095 17.8125 6.07795Z" fill="#FFBC44"/>
<path d="M12.0024 8.49794L6.19238 6.07794" stroke="#191919" stroke-linecap="round" stroke-linejoin="round"/>
<path d="M8.99512 4.71191L15.1891 7.17091" stroke="#191919" stroke-linecap="round" stroke-linejoin="round"/>
<path d="M12.0005 19V23" stroke="#191919" stroke-linecap="round" stroke-linejoin="round"/>
<path d="M6.50049 22.9999H17.5005" stroke="#191919" stroke-linecap="round" stroke-linejoin="round"/>
<path d="M1 2C1 1.73478 1.10536 1.48043 1.29289 1.29289C1.48043 1.10536 1.73478 1 2 1H22C22.2652 1 22.5196 1.10536 22.7071 1.29289C22.8946 1.48043 23 1.73478 23 2V18C23 18.2652 22.8946 18.5196 22.7071 18.7071C22.5196 18.8946 22.2652 19 22 19H2C1.73478 19 1.48043 18.8946 1.29289 18.7071C1.10536 18.5196 1 18.2652 1 18V2Z" stroke="#191919" stroke-linecap="round" stroke-linejoin="round"/>
<path d="M18.0005 6.66796V12.828C17.9994 13.0266 17.9401 13.2206 17.8299 13.3859C17.7197 13.5512 17.5634 13.6805 17.3805 13.758L12.3805 15.838C12.2597 15.8861 12.1305 15.9099 12.0005 15.908V8.49996L17.8105 6.07996C17.9335 6.25096 18.0005 6.45696 18.0005 6.66796Z" stroke="#191919" stroke-linecap="round" stroke-linejoin="round"/>
<path d="M17.8125 6.07795L12.0005 8.49995V15.9099C11.8673 15.9111 11.735 15.8873 11.6105 15.8399L6.61052 13.7199C6.42923 13.6442 6.2745 13.5163 6.16591 13.3525C6.05732 13.1887 5.99977 12.9964 6.00052 12.7999V6.66795C5.99883 6.47124 6.05601 6.27853 6.16472 6.11458C6.27342 5.95064 6.42868 5.82295 6.61052 5.74795L11.6105 3.65795C11.8575 3.55795 12.1335 3.55795 12.3805 3.65795L17.3805 5.74795C17.5515 5.81695 17.7005 5.93095 17.8125 6.07795Z" stroke="#191919" stroke-linecap="round" stroke-linejoin="round"/>
</g>
<defs>
<clipPath id="clip0_5303_6995">
<rect width="24" height="24" fill="white"/>
</clipPath>
</defs>
</svg>
