<svg width="24" height="24" viewBox="0 0 24 24" fill="none" xmlns="http://www.w3.org/2000/svg">
<g clip-path="url(#clip0_5303_6966)">
<path d="M1 13.4348C1 13.1811 1.10078 12.9378 1.28016 12.7584C1.45954 12.5791 1.70283 12.4783 1.95652 12.4783H22.0435C22.2971 12.4783 22.5405 12.5791 22.7198 12.7584C22.8992 12.9378 23 13.1811 23 13.4348V21.087C23 21.3406 22.8992 21.584 22.7198 21.7633C22.5405 21.9427 22.2971 22.0435 22.0435 22.0435H1.95652C1.70283 22.0435 1.45954 21.9427 1.28016 21.7633C1.10078 21.584 1 21.3406 1 21.087V13.4348Z" fill="#FF808C"/>
<path d="M22.0435 12.4783H1.95652C1.70283 12.4783 1.45954 12.5791 1.28016 12.7584C1.10078 12.9378 1 13.1811 1 13.4348V16.3044C1 16.0507 1.10078 15.8073 1.28016 15.628C1.45954 15.4487 1.70283 15.3478 1.95652 15.3478H22.0435C22.2971 15.3478 22.5405 15.4487 22.7198 15.628C22.8992 15.8073 23 16.0507 23 16.3044V13.4348C23 13.1811 22.8992 12.9378 22.7198 12.7584C22.5405 12.5791 22.2971 12.4783 22.0435 12.4783Z" fill="#FFBFC5"/>
<path d="M1 13.4348C1 13.1811 1.10078 12.9378 1.28016 12.7584C1.45954 12.5791 1.70283 12.4783 1.95652 12.4783H22.0435C22.2971 12.4783 22.5405 12.5791 22.7198 12.7584C22.8992 12.9378 23 13.1811 23 13.4348V21.087C23 21.3406 22.8992 21.584 22.7198 21.7633C22.5405 21.9427 22.2971 22.0435 22.0435 22.0435H1.95652C1.70283 22.0435 1.45954 21.9427 1.28016 21.7633C1.10078 21.584 1 21.3406 1 21.087V13.4348Z" stroke="#191919" stroke-linecap="round" stroke-linejoin="round"/>
<path d="M2.9126 12.4782L9.60825 8.65216" stroke="#191919" stroke-linecap="round" stroke-linejoin="round"/>
<path d="M21.0863 12.4782L15.3711 9.21265" stroke="#191919" stroke-linecap="round" stroke-linejoin="round"/>
<path d="M4.82568 14.3914V20.1305" stroke="#191919" stroke-linecap="round" stroke-linejoin="round"/>
<path d="M9.60889 14.3914V20.1305" stroke="#191919" stroke-linecap="round" stroke-linejoin="round"/>
<path d="M14.3906 14.3914V20.1305" stroke="#191919" stroke-linecap="round" stroke-linejoin="round"/>
<path d="M19.1738 14.3914V20.1305" stroke="#191919" stroke-linecap="round" stroke-linejoin="round"/>
<path d="M14.391 6.73912C14.391 7.24649 14.1895 7.73308 13.8307 8.09184C13.4719 8.45062 12.9853 8.65216 12.478 8.65216C11.9706 8.65216 11.4841 8.45062 11.1253 8.09184C10.7665 7.73308 10.5649 7.24649 10.5649 6.73912C10.5773 6.34488 10.7071 5.96331 10.9377 5.64327C11.1682 5.32324 11.489 5.07933 11.8591 4.94277C12.041 4.87413 12.1977 4.75168 12.3083 4.59172C12.4189 4.43177 12.4781 4.24192 12.478 4.04747V1.95651" stroke="#191919" stroke-linecap="round" stroke-linejoin="round"/>
</g>
<defs>
<clipPath id="clip0_5303_6966">
<rect width="24" height="24" fill="white"/>
</clipPath>
</defs>
</svg>
