<svg width="24" height="24" viewBox="0 0 24 24" fill="none" xmlns="http://www.w3.org/2000/svg">
<g clip-path="url(#clip0_5303_7082)">
<path d="M5.96695 1.4196C5.98445 1.30091 6.04478 1.19267 6.13659 1.11543C6.2283 1.03819 6.34524 0.997127 6.46511 1.00016H17.5387C17.6587 0.997127 17.7756 1.03819 17.8674 1.11543C17.9592 1.19267 18.0195 1.30091 18.037 1.4196L18.9745 8.65221C18.9366 10.4647 18.1807 12.188 16.8729 13.4435C15.5652 14.6989 13.8125 15.3839 12 15.3478C10.1874 15.3839 8.43475 14.6989 7.12703 13.4435C5.81921 12.188 5.06333 10.4647 5.02539 8.65221L5.96695 1.4196Z" fill="#C2F3FF"/>
<path d="M12 11.5417C10.5021 11.56 9.03841 11.0925 7.82826 10.2094C6.61822 9.32617 5.72672 8.07486 5.28742 6.64258L5.02539 8.65222C5.06303 10.4648 5.81892 12.1883 7.12674 13.4438C8.43456 14.6993 10.1873 15.3841 12 15.3478C13.8126 15.3841 15.5654 14.6993 16.8732 13.4438C18.181 12.1883 18.9369 10.4648 18.9745 8.65222L18.7135 6.64062C18.2745 8.0734 17.3831 9.32529 16.1727 10.2089C14.9624 11.0924 13.4984 11.5601 12 11.5417Z" fill="#66E1FF"/>
<path d="M11.9995 15.3478V23" stroke="#191919" stroke-linecap="round" stroke-linejoin="round"/>
<path d="M8.01416 22.9999H15.985" stroke="#191919" stroke-linecap="round" stroke-linejoin="round"/>
<path d="M5.96695 1.4196C5.98445 1.30091 6.04478 1.19267 6.13659 1.11543C6.2283 1.03819 6.34524 0.997127 6.46511 1.00016H17.5387C17.6587 0.997127 17.7756 1.03819 17.8674 1.11543C17.9592 1.19267 18.0195 1.30091 18.037 1.4196L18.9745 8.65221C18.9366 10.4647 18.1807 12.188 16.8729 13.4435C15.5652 14.6989 13.8125 15.3839 12 15.3478C10.1874 15.3839 8.43475 14.6989 7.12703 13.4435C5.81921 12.188 5.06333 10.4647 5.02539 8.65221L5.96695 1.4196Z" stroke="#191919" stroke-linecap="round" stroke-linejoin="round"/>
<path d="M13.9926 1.00015L9.86167 4.96565C9.79244 5.03096 9.74492 5.11603 9.72547 5.20921C9.70611 5.30238 9.71569 5.39928 9.75304 5.48678C9.79215 5.57625 9.85648 5.65222 9.93832 5.70531C10.0202 5.7585 10.1159 5.78646 10.2134 5.78568H12.79C12.8876 5.78499 12.9832 5.81296 13.065 5.86605C13.1469 5.91924 13.2113 5.99521 13.2503 6.08457C13.2876 6.17218 13.2973 6.26907 13.2779 6.36225C13.2585 6.45543 13.211 6.54039 13.1417 6.6057L9.01074 10.5652" stroke="#191919" stroke-linecap="round" stroke-linejoin="round"/>
</g>
<defs>
<clipPath id="clip0_5303_7082">
<rect width="24" height="24" fill="white"/>
</clipPath>
</defs>
</svg>
