<svg width="24" height="24" viewBox="0 0 24 24" fill="none" xmlns="http://www.w3.org/2000/svg">
<g clip-path="url(#clip0_5303_11573)">
<path d="M5.77959 5.78246C7.62033 5.78246 8.7709 3.78975 7.85048 2.19557C7.42336 1.45572 6.63393 1 5.77959 1C3.93886 1 2.78829 2.99271 3.7087 4.5868C4.13592 5.32664 4.92525 5.78246 5.77959 5.78246Z" fill="#FFDDA1" stroke="#191919" stroke-linecap="round" stroke-linejoin="round"/>
<path d="M9.01458 9.25838L10.4217 6.96758C10.5087 6.82605 10.6629 6.73987 10.8291 6.73987H17.736C18.2642 6.73987 18.6924 6.31167 18.6924 5.78344V4.8269H9.81045C9.67907 4.8269 9.55355 4.88088 9.46317 4.97614L6.64062 7.96423" fill="#C77F67"/>
<path d="M9.01458 9.25838L10.4217 6.96758C10.5087 6.82605 10.6629 6.73987 10.8291 6.73987H17.736C18.2642 6.73987 18.6924 6.31167 18.6924 5.78344V4.8269H9.81045C9.67907 4.8269 9.55355 4.88088 9.46317 4.97614L6.64062 7.96423" stroke="#191919" stroke-linecap="round" stroke-linejoin="round"/>
<path d="M18.6924 4.82593H22.5184V3.39124" stroke="#191919" stroke-linecap="round" stroke-linejoin="round"/>
<path d="M10.5615 2.91296H14.3875" stroke="#191919" stroke-linecap="round" stroke-linejoin="round"/>
<path d="M1.57749 21.0319L4.34469 14.1154V9.13122C4.3443 8.04253 5.50902 7.35012 6.46517 7.87055L9.54412 9.54721C9.59195 9.57308 9.63694 9.60177 9.68096 9.63242C10.1891 9.98799 10.8682 9.97677 11.3644 9.6046L13.13 8.38034C14.0152 7.71975 15.2835 8.26497 15.4131 9.36186C15.473 9.86853 15.2592 10.3689 14.8518 10.6759L13.087 11.905C11.6252 13.005 9.62699 13.0584 8.10845 12.038L7.21419 11.5472V14.0341L10.8709 20.8903C11.3906 21.8645 10.661 23.0361 9.55749 22.9992C9.04536 22.9821 8.58115 22.693 8.33997 22.2409L5.9707 17.7904L4.24904 22.0946C3.83851 23.1203 2.47165 23.317 1.78861 22.4486C1.47159 22.0456 1.3937 21.504 1.58422 21.028L1.57749 21.0319Z" fill="#66E1FF"/>
<path d="M4.87746 9.67253C5.44015 9.3358 6.13569 9.30915 6.72259 9.60177L9.60643 11.0442C10.1999 11.3409 10.9046 11.3099 11.4696 10.9619L15.1579 8.69307L15.1388 8.66632C14.6634 8.03238 13.764 7.90393 13.1302 8.37936L11.3644 9.60363C10.8683 9.97579 10.1891 9.98702 9.681 9.63144C9.63688 9.6007 9.5913 9.57229 9.54425 9.54623L6.46618 7.87055C5.51004 7.35012 4.34531 8.04253 4.3457 9.13122V9.992L4.87746 9.67253Z" fill="#C2F3FF"/>
<path d="M1.57749 21.0319L4.34469 14.1154V9.13122C4.3443 8.04253 5.50902 7.35012 6.46517 7.87055L9.54412 9.54721C9.59195 9.57308 9.63694 9.60177 9.68096 9.63242C10.1891 9.98799 10.8682 9.97677 11.3644 9.6046L13.13 8.38034C14.0152 7.71975 15.2835 8.26497 15.4131 9.36186C15.473 9.86853 15.2592 10.3689 14.8518 10.6759L13.087 11.905C11.6252 13.005 9.62699 13.0584 8.10845 12.038L7.21419 11.5472V14.0341L10.8709 20.8903C11.3906 21.8645 10.661 23.0361 9.55749 22.9992C9.04536 22.9821 8.58115 22.693 8.33997 22.2409L5.9707 17.7904L4.24904 22.0946C3.83851 23.1203 2.47165 23.317 1.78861 22.4486C1.47159 22.0456 1.3937 21.504 1.58422 21.028L1.57749 21.0319Z" stroke="#191919" stroke-linecap="round" stroke-linejoin="round"/>
</g>
<defs>
<clipPath id="clip0_5303_11573">
<rect width="24" height="24" fill="white"/>
</clipPath>
</defs>
</svg>
