<svg width="24" height="24" viewBox="0 0 24 24" fill="none" xmlns="http://www.w3.org/2000/svg">
<g clip-path="url(#clip0_5303_7295)">
<path d="M18.2156 8.17444C16.8833 10.4276 13.7454 10.7366 11.9992 8.78655C10.2523 10.7348 7.11616 10.4259 5.78275 8.17444C5.07163 8.98971 3.94427 9.3046 2.91357 8.97593V21.558C2.91357 22.0862 3.3418 22.5144 3.87003 22.5144H20.1284C20.6566 22.5144 21.0848 22.0862 21.0848 21.558V8.97971C20.0534 9.30856 18.9253 8.99196 18.2156 8.17444Z" fill="#66E1FF"/>
<path d="M11.9992 8.78655C10.2523 10.7348 7.11616 10.4259 5.78275 8.17444C5.07163 8.98971 3.94427 9.3046 2.91357 8.97593V21.558C2.91691 21.8643 3.06935 22.1499 3.32198 22.3231L15.6525 9.99157C14.3057 10.2951 12.9012 9.83183 11.9992 8.78655Z" fill="#C2F3FF"/>
<path d="M21.0848 21.0856V21.5638C21.0848 22.0919 20.6566 22.5202 20.1284 22.5202H3.87003C3.3418 22.5202 2.91357 22.0919 2.91357 21.5638V21.0856" stroke="#191919" stroke-linecap="round" stroke-linejoin="round"/>
<path d="M2.90918 8.97485V11.0435" stroke="#191919" stroke-linecap="round" stroke-linejoin="round"/>
<path d="M21.0806 8.98169V11.0436" stroke="#191919" stroke-linecap="round" stroke-linejoin="round"/>
<path d="M6.74022 1.47974H3.50579C3.14361 1.47992 2.8126 1.6847 2.65079 2.0086L1.00195 5.30528H5.78386L6.74022 1.47974Z" fill="white"/>
<path d="M12.0002 5.30528V1.47974H6.74005L5.78369 5.30528H12.0002Z" fill="#FFBFC5"/>
<path d="M18.2159 5.30528L17.2596 1.47974H11.9995V5.30528H18.2159Z" fill="white"/>
<path d="M22.9975 5.30528L21.3487 2.0086C21.1869 1.6847 20.8559 1.47992 20.4937 1.47974H17.2593L18.2156 5.30528H22.9975Z" fill="#FFBFC5"/>
<path d="M5.78369 5.3053V8.17439C7.11656 10.4268 10.2536 10.7356 12.0001 8.78649V5.3053H5.78369Z" fill="#FF808C"/>
<path d="M18.2158 5.3053V8.17439C19.6131 9.75051 22.1926 9.22301 22.859 7.22478C22.9624 6.91467 23.0093 6.58844 22.9977 6.26166V5.3053H18.2158Z" fill="#FF808C"/>
<path d="M11.9995 5.3053V8.78649C13.7457 10.7365 16.8836 10.4276 18.2159 8.17439V5.3053H11.9995Z" fill="#E3E3E3"/>
<path d="M1.00165 5.3053V6.26166C0.930566 8.36827 3.16655 9.76187 5.02648 8.7701C5.31209 8.61784 5.56841 8.4162 5.78356 8.17439V5.3053H1.00165Z" fill="#E3E3E3"/>
<path d="M21.3498 2.0086C21.188 1.6847 20.857 1.47992 20.4948 1.47974H3.50579C3.14361 1.47992 2.8126 1.6847 2.65079 2.0086L1.00195 5.30528H22.9987L21.3498 2.0086Z" stroke="#191919" stroke-linecap="round" stroke-linejoin="round"/>
<path d="M22.9983 6.26166C23.0713 8.36746 20.8375 9.76268 18.9772 8.77316C18.6901 8.62036 18.4324 8.41764 18.2164 8.17439C16.884 10.4276 13.7461 10.7365 11.9999 8.78649C10.2537 10.7365 7.11579 10.4276 5.78346 8.17439C4.38211 9.74889 1.80178 9.21598 1.13895 7.21514C1.03714 6.90791 0.990653 6.5851 1.00155 6.26166V5.3053H22.9983V6.26166Z" stroke="#191919" stroke-linecap="round" stroke-linejoin="round"/>
<path d="M5.78369 8.17436V5.30528L6.74005 1.47974" stroke="#191919" stroke-linecap="round" stroke-linejoin="round"/>
<path d="M11.9995 8.79125V1.47974" stroke="#191919" stroke-linecap="round" stroke-linejoin="round"/>
<path d="M18.2156 8.17436V5.30528L17.2593 1.47974" stroke="#191919" stroke-linecap="round" stroke-linejoin="round"/>
<path d="M7.6958 18.6947V14.391C7.69859 13.2867 8.89578 12.5995 9.85079 13.154C10.2918 13.4101 10.5637 13.8811 10.565 14.391V18.6947" stroke="#191919" stroke-linecap="round" stroke-linejoin="round"/>
<path d="M7.69141 15.8254H10.5606" stroke="#191919" stroke-linecap="round" stroke-linejoin="round"/>
<path d="M20.1284 18.6946H18.2156C17.6875 18.6946 17.2593 18.2664 17.2593 17.7382V13.9127C17.2593 13.3845 17.6874 12.9563 18.2156 12.9563H20.1284" stroke="#191919" stroke-linecap="round" stroke-linejoin="round"/>
<path d="M17.2549 15.8254H19.1676" stroke="#191919" stroke-linecap="round" stroke-linejoin="round"/>
<path d="M12.4775 12.9563V17.7382C12.4775 18.2664 12.9058 18.6946 13.4339 18.6946H15.3467" stroke="#191919" stroke-linecap="round" stroke-linejoin="round"/>
<path d="M5.78296 12.9563H4.1571C3.20002 12.949 2.59386 13.9805 3.06605 14.8129C3.16344 14.9847 3.30048 15.1309 3.46562 15.2393L5.22536 16.4118C6.02568 16.9367 5.95766 18.1311 5.10292 18.5617C4.92598 18.6509 4.7302 18.6965 4.53199 18.6946H2.91379" stroke="#191919" stroke-linecap="round" stroke-linejoin="round"/>
</g>
<defs>
<clipPath id="clip0_5303_7295">
<rect width="24" height="24" fill="white"/>
</clipPath>
</defs>
</svg>
