<svg width="24" height="24" viewBox="0 0 24 24" fill="none" xmlns="http://www.w3.org/2000/svg">
<g clip-path="url(#clip0_5303_7284)">
<path d="M21.087 9.13049H2.91304C1.8565 9.13049 1 9.98699 1 11.0435V18.6957C1 19.7523 1.8565 20.6088 2.91304 20.6088H21.087C22.1435 20.6088 23 19.7523 23 18.6957V11.0435C23 9.98699 22.1435 9.13049 21.087 9.13049Z" fill="#78EB7B"/>
<path d="M2.91304 9.13049C2.40568 9.13049 1.91908 9.33204 1.56032 9.69081C1.20155 10.0496 1 10.5362 1 11.0435V18.6957C1.00053 18.9953 1.07175 19.2906 1.20787 19.5575C1.34399 19.8245 1.54117 20.0555 1.78339 20.2319L12.8857 9.13049H2.91304Z" fill="#C9F7CA"/>
<path d="M21.087 9.13049H2.91304C1.8565 9.13049 1 9.98699 1 11.0435V18.6957C1 19.7523 1.8565 20.6088 2.91304 20.6088H21.087C22.1435 20.6088 23 19.7523 23 18.6957V11.0435C23 9.98699 22.1435 9.13049 21.087 9.13049Z" stroke="#191919" stroke-linecap="round" stroke-linejoin="round"/>
<path d="M5.78216 16.3043C5.78216 16.6849 5.63099 17.0499 5.36192 17.3189C5.09286 17.588 4.7279 17.7391 4.34738 17.7391C3.96686 17.7391 3.60191 17.588 3.33284 17.3189C3.06377 17.0499 2.9126 16.6849 2.9126 16.3043V13.4348C2.9126 13.0543 3.06377 12.6893 3.33284 12.4202C3.60191 12.1511 3.96686 12 4.34738 12C4.7279 12 5.09286 12.1511 5.36192 12.4202C5.63099 12.6893 5.78216 13.0543 5.78216 13.4348V16.3043Z" stroke="#191919" stroke-linecap="round" stroke-linejoin="round"/>
<path d="M17.2603 17.7391V12L20.1298 17.7391V12" stroke="#191919" stroke-linecap="round" stroke-linejoin="round"/>
<path d="M15.3476 17.7391H13.4345C13.1809 17.7391 12.9375 17.6383 12.7582 17.459C12.5788 17.2796 12.478 17.0363 12.478 16.7826V12.9565C12.478 12.7029 12.5788 12.4595 12.7582 12.2802C12.9375 12.1008 13.1809 12 13.4345 12H15.3476" stroke="#191919" stroke-linecap="round" stroke-linejoin="round"/>
<path d="M12.478 14.8696H14.3911" stroke="#191919" stroke-linecap="round" stroke-linejoin="round"/>
<path d="M10.5649 13.4348C10.5649 13.8153 10.4137 14.1803 10.1447 14.4494C9.87557 14.7184 9.51062 14.8696 9.1301 14.8696H7.69531V12H9.1301C9.51062 12 9.87557 12.1511 10.1447 12.4202C10.4137 12.6893 10.5649 13.0543 10.5649 13.4348Z" stroke="#191919" stroke-linecap="round" stroke-linejoin="round"/>
<path d="M7.69531 17.7392V14.8696" stroke="#191919" stroke-linecap="round" stroke-linejoin="round"/>
<path d="M16.304 9.13053L13.4344 4.21783C13.2878 3.96634 13.0779 3.7577 12.8254 3.61268C12.573 3.46767 12.2869 3.39136 11.9958 3.39136C11.7048 3.39136 11.4187 3.46767 11.1662 3.61268C10.9138 3.7577 10.7039 3.96634 10.5572 4.21783L7.69531 9.13053" stroke="#191919" stroke-linecap="round" stroke-linejoin="round"/>
</g>
<defs>
<clipPath id="clip0_5303_7284">
<rect width="24" height="24" fill="white"/>
</clipPath>
</defs>
</svg>
