<svg width="24" height="24" viewBox="0 0 24 24" fill="none" xmlns="http://www.w3.org/2000/svg">
<g clip-path="url(#clip0_5303_7231)">
<path d="M4.34717 8.65161L7.21673 2.91248" stroke="#191919" stroke-linecap="round" stroke-linejoin="round"/>
<path d="M19.6523 8.65161L16.7827 2.91248" stroke="#191919" stroke-linecap="round" stroke-linejoin="round"/>
<path d="M21.565 11.5211H2.43457L4.06066 19.6582C4.16264 20.0765 4.40559 20.4468 4.74862 20.7069C5.09165 20.967 5.51381 21.101 5.94405 21.0863H18.0555C18.4858 21.101 18.9079 20.967 19.251 20.7069C19.594 20.4468 19.8369 20.0765 19.9389 19.6582L21.565 11.5211Z" fill="#FFF9BF"/>
<path d="M21.0284 14.2042L21.565 11.5211H2.43457L2.97118 14.2042H21.0284Z" fill="#FFEF5E"/>
<path d="M21.565 11.5211H2.43457L4.06066 19.6582C4.16264 20.0765 4.40559 20.4468 4.74862 20.7069C5.09165 20.967 5.51381 21.101 5.94405 21.0863H18.0555C18.4858 21.101 18.9079 20.967 19.251 20.7069C19.594 20.4468 19.8369 20.0765 19.9389 19.6582L21.565 11.5211Z" stroke="#191919" stroke-linecap="round" stroke-linejoin="round"/>
<path d="M22.0435 8.65161H1.95652C1.70284 8.65161 1.45954 8.75239 1.28016 8.93177C1.10078 9.11115 1 9.35445 1 9.60813V10.5647C1 10.8183 1.10078 11.0616 1.28016 11.241C1.45954 11.4204 1.70284 11.5212 1.95652 11.5212H22.0435C22.2972 11.5212 22.5405 11.4204 22.7198 11.241C22.8992 11.0616 23 10.8183 23 10.5647V9.60813C23 9.35445 22.8992 9.11115 22.7198 8.93177C22.5405 8.75239 22.2972 8.65161 22.0435 8.65161Z" fill="white" stroke="#191919" stroke-linecap="round" stroke-linejoin="round"/>
<path d="M11.9995 14.3907V17.7386" stroke="#191919" stroke-linecap="round" stroke-linejoin="round"/>
<path d="M16.3039 14.3907L15.8257 17.7386" stroke="#191919" stroke-linecap="round" stroke-linejoin="round"/>
<path d="M7.69531 14.3907L8.17357 17.7386" stroke="#191919" stroke-linecap="round" stroke-linejoin="round"/>
</g>
<defs>
<clipPath id="clip0_5303_7231">
<rect width="24" height="24" fill="white"/>
</clipPath>
</defs>
</svg>
