<svg width="24" height="24" viewBox="0 0 24 24" fill="none" xmlns="http://www.w3.org/2000/svg">
<g clip-path="url(#clip0_5303_8686)">
<path d="M2.32551 18.6844C2.35859 18.5519 2.43501 18.4344 2.54247 18.3504C2.65013 18.2663 2.78267 18.2208 2.91912 18.2208H6.74256C6.87891 18.2206 7.01145 18.266 7.11901 18.3498C7.22666 18.4336 7.30309 18.5511 7.33617 18.6834L8.15056 21.9409C8.16774 22.0087 8.17642 22.0784 8.17633 22.1483C8.17633 22.374 8.08673 22.5906 7.92725 22.7503C7.76767 22.9099 7.55129 22.9997 7.32563 23H2.33605C2.11039 22.9997 1.89391 22.9099 1.73443 22.7503C1.57495 22.5906 1.48535 22.374 1.48535 22.1483C1.48535 22.0788 1.49394 22.0094 1.51112 21.9419L2.32551 18.6844Z" fill="#FF808C"/>
<path d="M2.91911 18.2197C2.78256 18.2199 2.65002 18.2658 2.54246 18.3499C2.43491 18.4342 2.35858 18.5518 2.32549 18.6843L1.51111 21.9409C1.47665 22.0759 1.47675 22.2172 1.5115 22.3521C1.54624 22.487 1.61456 22.6108 1.70992 22.7122L6.69951 18.2197H2.91911Z" fill="#FFBFC5"/>
<path d="M14.3898 17.2496L13.9119 22.9847H10.0884L9.61048 17.2496H8.17671C7.92324 17.2496 7.68011 17.1488 7.50082 16.9695C7.32152 16.7904 7.2209 16.5471 7.2209 16.2937V14.1095C7.20069 12.8964 7.62965 11.7189 8.4253 10.803C9.22085 9.887 10.327 9.29748 11.5308 9.14766C12.1949 9.08217 12.8652 9.15635 13.4987 9.36561C14.1323 9.57487 14.715 9.91432 15.2095 10.3624C15.7039 10.8104 16.0989 11.3571 16.3694 11.967C16.6398 12.577 16.7794 13.2369 16.7794 13.904V16.2937C16.7794 16.5471 16.6787 16.7904 16.4995 16.9695C16.3203 17.1487 16.0771 17.2496 15.8236 17.2496H14.3898Z" fill="#E3E3E3"/>
<path d="M16.7792 14.8599V13.904C16.7792 12.6364 16.2757 11.4209 15.3794 10.5246C14.4831 9.62822 13.2675 9.12469 12 9.12469C10.7324 9.12469 9.51678 9.62822 8.6205 10.5246C7.72423 11.4209 7.2207 12.6364 7.2207 13.904V14.8599" stroke="#191919" stroke-linecap="round" stroke-linejoin="round"/>
<path d="M15.3458 17.2495H14.3899L13.912 22.9847H10.0886L9.6106 17.2495H8.65479" stroke="#191919" stroke-linecap="round" stroke-linejoin="round"/>
<path d="M12.0003 7.69098C13.848 7.69098 15.3458 6.19318 15.3458 4.34549C15.3458 2.49779 13.848 1 12.0003 1C10.1526 1 8.65479 2.49779 8.65479 4.34549C8.65479 6.19318 10.1526 7.69098 12.0003 7.69098Z" fill="#E3E3E3" stroke="#191919" stroke-linecap="round" stroke-linejoin="round"/>
<path d="M2.32551 18.6844C2.35859 18.5519 2.43501 18.4344 2.54247 18.3504C2.65013 18.2663 2.78267 18.2208 2.91912 18.2208H6.74256C6.87891 18.2206 7.01145 18.266 7.11901 18.3498C7.22666 18.4336 7.30309 18.5511 7.33617 18.6834L8.15056 21.9409C8.16774 22.0087 8.17642 22.0784 8.17633 22.1483C8.17633 22.374 8.08673 22.5906 7.92725 22.7503C7.76767 22.9099 7.55129 22.9997 7.32563 23H2.33605C2.11039 22.9997 1.89391 22.9099 1.73443 22.7503C1.57495 22.5906 1.48535 22.374 1.48535 22.1483C1.48535 22.0788 1.49394 22.0094 1.51112 21.9419L2.32551 18.6844Z" stroke="#191919" stroke-linecap="round" stroke-linejoin="round"/>
<path d="M3.39697 18.2206L3.71808 16.2956C3.7619 16.0321 3.89786 15.7928 4.10156 15.6202C4.30535 15.4475 4.5637 15.3527 4.83074 15.3527C5.09778 15.3527 5.35613 15.4475 5.55992 15.6202C5.76361 15.7928 5.89948 16.0321 5.9434 16.2956L6.26451 18.2206" stroke="#191919" stroke-linecap="round" stroke-linejoin="round"/>
<path d="M16.6639 18.6844C16.697 18.5519 16.7734 18.4344 16.8809 18.3504C16.9884 18.2663 17.121 18.2208 17.2575 18.2208H21.0809C21.2173 18.2206 21.3499 18.266 21.4575 18.3498C21.5649 18.4336 21.6415 18.5511 21.6746 18.6834L22.4889 21.9419C22.506 22.0094 22.5147 22.0788 22.5147 22.1483C22.5147 22.374 22.4251 22.5906 22.2656 22.7503C22.106 22.9099 21.8897 22.9997 21.664 23H16.6744C16.4488 22.9997 16.2323 22.9099 16.0728 22.7503C15.9132 22.5906 15.8237 22.374 15.8237 22.1483C15.8237 22.0788 15.8324 22.0094 15.8495 21.9419L16.6639 18.6844Z" fill="#FF808C"/>
<path d="M17.2575 18.2197C17.1209 18.2199 16.9883 18.2658 16.8807 18.3499C16.7733 18.4342 16.6969 18.5518 16.6639 18.6843L15.8495 21.9409C15.815 22.0759 15.8151 22.2172 15.8499 22.3521C15.8847 22.487 15.9529 22.6108 16.0483 22.7123L21.0379 18.2197H17.2575Z" fill="#FFBFC5"/>
<path d="M16.6639 18.6844C16.697 18.5519 16.7734 18.4344 16.8809 18.3504C16.9884 18.2663 17.121 18.2208 17.2575 18.2208H21.0809C21.2173 18.2206 21.3499 18.266 21.4575 18.3498C21.5649 18.4336 21.6415 18.5511 21.6746 18.6834L22.4889 21.9419C22.506 22.0094 22.5147 22.0788 22.5147 22.1483C22.5147 22.374 22.4251 22.5906 22.2656 22.7503C22.106 22.9099 21.8897 22.9997 21.664 23H16.6744C16.4488 22.9997 16.2323 22.9099 16.0728 22.7503C15.9132 22.5906 15.8237 22.374 15.8237 22.1483C15.8237 22.0788 15.8324 22.0094 15.8495 21.9419L16.6639 18.6844Z" stroke="#191919" stroke-linecap="round" stroke-linejoin="round"/>
<path d="M17.7358 18.2206L18.0569 16.2956C18.1009 16.0321 18.2367 15.7928 18.4405 15.6202C18.6442 15.4475 18.9026 15.3527 19.1696 15.3527C19.4366 15.3527 19.6951 15.4475 19.8988 15.6202C20.1026 15.7928 20.2383 16.0321 20.2823 16.2956L20.6034 18.2206" stroke="#191919" stroke-linecap="round" stroke-linejoin="round"/>
</g>
<defs>
<clipPath id="clip0_5303_8686">
<rect width="24" height="24" fill="white"/>
</clipPath>
</defs>
</svg>
