<svg width="24" height="24" viewBox="0 0 24 24" fill="none" xmlns="http://www.w3.org/2000/svg">
<g clip-path="url(#clip0_5303_7211)">
<path d="M21.565 5.78247H2.43455C1.90628 5.78247 1.47803 6.21072 1.47803 6.73899V22.0433C1.47803 22.5716 1.90628 22.9999 2.43455 22.9999H21.565C22.0933 22.9999 22.5215 22.5716 22.5215 22.0433V6.73899C22.5215 6.21072 22.0933 5.78247 21.565 5.78247Z" fill="#C2F3FF"/>
<path d="M11.9998 18.9443C8.26739 18.9663 4.61003 17.8964 1.47803 15.8662V22.0434C1.47803 22.2971 1.57881 22.5404 1.75818 22.7198C1.93757 22.8991 2.18086 23 2.43455 23H21.565C21.8187 23 22.062 22.8991 22.2413 22.7198C22.4207 22.5404 22.5215 22.2971 22.5215 22.0434V15.8662C19.3895 17.8964 15.7321 18.9663 11.9998 18.9443Z" fill="#66E1FF"/>
<path d="M21.565 5.78247H2.43455C1.90628 5.78247 1.47803 6.21072 1.47803 6.73899V22.0433C1.47803 22.5716 1.90628 22.9999 2.43455 22.9999H21.565C22.0933 22.9999 22.5215 22.5716 22.5215 22.0433V6.73899C22.5215 6.21072 22.0933 5.78247 21.565 5.78247Z" stroke="#191919" stroke-linecap="round" stroke-linejoin="round"/>
<path d="M5.30469 20.6085V16.7824C5.30469 16.5288 5.40547 16.2854 5.58484 16.1061C5.76423 15.9267 6.00752 15.8259 6.26121 15.8259H7.21773" stroke="#191919" stroke-linecap="round" stroke-linejoin="round"/>
<path d="M5.30469 18.6956H6.73947" stroke="#191919" stroke-linecap="round" stroke-linejoin="round"/>
<path d="M13.9136 13.913V9.13037" stroke="#191919" stroke-linecap="round" stroke-linejoin="round"/>
<path d="M12.9561 9.13037H14.8691" stroke="#191919" stroke-linecap="round" stroke-linejoin="round"/>
<path d="M9.13037 20.6085V15.8259" stroke="#191919" stroke-linecap="round" stroke-linejoin="round"/>
<path d="M9.13037 15.8259H9.84776C10.1648 15.8259 10.469 15.9519 10.6932 16.1761C10.9174 16.4003 11.0434 16.7045 11.0434 17.0216C11.0434 17.3387 10.9174 17.6428 10.6932 17.867C10.469 18.0913 10.1648 18.2172 9.84776 18.2172H9.13037" stroke="#191919" stroke-linecap="round" stroke-linejoin="round"/>
<path d="M11.0437 20.6087L9.60889 18.2174" stroke="#191919" stroke-linecap="round" stroke-linejoin="round"/>
<path d="M9.13037 9.13037V12.9565C9.13037 13.2101 9.23115 13.4535 9.41053 13.6328C9.58991 13.8122 9.8332 13.913 10.0869 13.913C10.3406 13.913 10.5839 13.8122 10.7633 13.6328C10.9426 13.4535 11.0434 13.2101 11.0434 12.9565V9.13037" stroke="#191919" stroke-linecap="round" stroke-linejoin="round"/>
<path d="M16.7827 9.13037V10.5652C16.7827 10.8188 16.8835 11.0622 17.0629 11.2415C17.2422 11.4209 17.4856 11.5217 17.7392 11.5217C17.9929 11.5217 18.2362 11.4209 18.4156 11.2415C18.5949 11.0622 18.6958 10.8188 18.6958 10.5652V9.13037" stroke="#191919" stroke-linecap="round" stroke-linejoin="round"/>
<path d="M17.7393 11.5216V13.9129" stroke="#191919" stroke-linecap="round" stroke-linejoin="round"/>
<path d="M5.30469 13.913C5.81206 13.913 6.29865 13.7114 6.65741 13.3527C7.01618 12.9939 7.21773 12.5073 7.21773 11.9999V11.0434C7.21773 10.5361 7.01618 10.0495 6.65741 9.69069C6.29865 9.33192 5.81206 9.13037 5.30469 9.13037V13.913Z" stroke="#191919" stroke-linecap="round" stroke-linejoin="round"/>
<path d="M14.8691 20.6085H13.9126C13.6589 20.6085 13.4156 20.5077 13.2362 20.3284C13.0569 20.149 12.9561 19.9057 12.9561 19.652V16.7824C12.9561 16.5288 13.0569 16.2854 13.2362 16.1061C13.4156 15.9267 13.6589 15.8259 13.9126 15.8259H14.8691" stroke="#191919" stroke-linecap="round" stroke-linejoin="round"/>
<path d="M12.9561 18.6956H14.8691" stroke="#191919" stroke-linecap="round" stroke-linejoin="round"/>
<path d="M18.6958 20.6085H17.7392C17.4856 20.6085 17.2422 20.5077 17.0629 20.3284C16.8835 20.149 16.7827 19.9057 16.7827 19.652V16.7824C16.7827 16.5288 16.8835 16.2854 17.0629 16.1061C17.2422 15.9267 17.4856 15.8259 17.7392 15.8259H18.6958" stroke="#191919" stroke-linecap="round" stroke-linejoin="round"/>
<path d="M16.7827 18.6956H18.6958" stroke="#191919" stroke-linecap="round" stroke-linejoin="round"/>
<path d="M16.3045 5.30435C16.3045 4.16277 15.851 3.06793 15.0438 2.26072C14.2366 1.45349 13.1418 1 12.0001 1C10.8585 1 9.76373 1.45349 8.95652 2.26072C8.1493 3.06793 7.6958 4.16277 7.6958 5.30435V5.78261H16.3045V5.30435Z" stroke="#191919" stroke-linecap="round" stroke-linejoin="round"/>
</g>
<defs>
<clipPath id="clip0_5303_7211">
<rect width="24" height="24" fill="white"/>
</clipPath>
</defs>
</svg>
