<svg width="24" height="24" viewBox="0 0 24 24" fill="none" xmlns="http://www.w3.org/2000/svg">
<g clip-path="url(#clip0_5303_7170)">
<path d="M21.1307 6.99072H4.27734V19.9584H21.1307V6.99072Z" fill="white"/>
<path d="M2.4043 21.0744C2.58781 21.1687 2.77195 21.2623 2.95671 21.3553C6.36202 23.0762 6.19536 22.741 9.11098 22.741C10.3282 22.741 10.9471 21.9489 11.3066 20.7888V20.7814L12.1914 17.8283V17.8227C12.2334 17.6843 12.2424 17.5379 12.2176 17.3954C12.1928 17.2529 12.1349 17.1183 12.0486 17.0023C11.9623 16.8862 11.8498 16.7921 11.7205 16.7274C11.5911 16.6627 11.4484 16.6293 11.3038 16.6298H9.03233C8.8906 16.6294 8.7508 16.5969 8.62348 16.5346C8.49616 16.4723 8.38465 16.3819 8.29734 16.2703C8.21056 16.1585 8.1508 16.0282 8.1227 15.8895C8.0946 15.7507 8.09894 15.6074 8.13536 15.4707L8.54452 13.9267C8.57633 13.8068 8.57925 13.6811 8.55304 13.5598C8.52684 13.4386 8.47226 13.3253 8.39378 13.2292C8.31622 13.1342 8.21778 13.0583 8.1061 13.0076C7.99443 12.9568 7.87254 12.9325 7.74994 12.9366C7.62735 12.9406 7.50734 12.973 7.39928 13.0311C7.29122 13.0891 7.19804 13.1713 7.12697 13.2713L4.85833 16.4697C4.77229 16.5907 4.65857 16.6894 4.52663 16.7574C4.3947 16.8255 4.2484 16.8611 4.09993 16.8611H2.4043" fill="#FFDDA1"/>
<path d="M11.3075 16.63H9.03233C8.8906 16.6297 8.7508 16.5971 8.62348 16.5348C8.49616 16.4725 8.38465 16.3822 8.29734 16.2705C8.21056 16.1587 8.1508 16.0284 8.1227 15.8897C8.0946 15.7509 8.09894 15.6077 8.13536 15.4709L8.54452 13.9279C8.57634 13.8077 8.57926 13.6816 8.55306 13.5601C8.52686 13.4386 8.47229 13.3249 8.39378 13.2285C8.31602 13.1338 8.2175 13.0583 8.10587 13.0077C7.99422 12.9571 7.87246 12.933 7.74998 12.9371C7.6275 12.9411 7.50761 12.9733 7.39958 13.0312C7.29154 13.0891 7.19827 13.171 7.12697 13.2706L4.85833 16.4699C4.77224 16.5908 4.65848 16.6893 4.52654 16.7573C4.39461 16.8252 4.24832 16.8605 4.09993 16.8604H2.4043V18.7751C5.12603 19.8134 8.0182 20.3326 10.9311 20.3059C11.1081 20.3059 11.2804 20.2938 11.4555 20.29L12.1933 17.8285V17.8229C12.2351 17.6845 12.2439 17.5382 12.219 17.3958C12.1942 17.2534 12.1362 17.1189 12.0499 17.0029C11.9637 16.8869 11.8513 16.7928 11.7221 16.728C11.5928 16.6633 11.4502 16.6297 11.3057 16.63H11.3075Z" fill="#FFDDA1"/>
<path d="M2.4043 21.0744C2.58781 21.1687 2.77195 21.2623 2.95671 21.3553C6.36202 23.0762 6.19536 22.741 9.11098 22.741C10.3282 22.741 10.9471 21.9489 11.3066 20.7888V20.7814L12.1914 17.8283V17.8227C12.2334 17.6843 12.2424 17.5379 12.2176 17.3954C12.1928 17.2529 12.1349 17.1183 12.0486 17.0023C11.9623 16.8862 11.8498 16.7921 11.7205 16.7274C11.5911 16.6627 11.4484 16.6293 11.3038 16.6298H9.03233C8.8906 16.6294 8.7508 16.5969 8.62348 16.5346C8.49616 16.4723 8.38465 16.3819 8.29734 16.2703C8.21056 16.1585 8.1508 16.0282 8.1227 15.8895C8.0946 15.7507 8.09894 15.6074 8.13536 15.4707L8.54452 13.9267C8.57633 13.8068 8.57925 13.6811 8.55304 13.5598C8.52684 13.4386 8.47226 13.3253 8.39378 13.2292C8.31622 13.1342 8.21778 13.0583 8.1061 13.0076C7.99443 12.9568 7.87254 12.9325 7.74994 12.9366C7.62735 12.9406 7.50734 12.973 7.39928 13.0311C7.29122 13.0891 7.19804 13.1713 7.12697 13.2713L4.85833 16.4697C4.77229 16.5907 4.65857 16.6894 4.52663 16.7574C4.3947 16.8255 4.2484 16.8611 4.09993 16.8611H2.4043" stroke="#191919" stroke-linecap="round" stroke-linejoin="round"/>
<path d="M2.40444 16.2134H1V22.7674H2.40444V16.2134Z" fill="#66E1FF"/>
<path d="M1.46826 16.2134H2.40456V22.7674H1.46826" stroke="#191919" stroke-linecap="round" stroke-linejoin="round"/>
<path d="M4.96216 1.23267C4.77248 1.23276 4.58729 1.29046 4.43113 1.39814C4.27497 1.50581 4.15519 1.65838 4.08766 1.83564L2.60832 5.71939C2.44842 6.13585 2.44244 6.5957 2.59146 7.01616C2.79643 7.5867 3.19607 8.06667 3.72006 8.37157C4.24403 8.67648 4.85878 8.78681 5.45609 8.68311C6.0534 8.57943 6.59499 8.26837 6.98554 7.8047C7.3761 7.34103 7.5906 6.75446 7.59128 6.14822C7.59128 6.8311 7.86255 7.48601 8.34543 7.96888C8.8283 8.45176 9.48322 8.72303 10.1661 8.72303C10.8489 8.72303 11.5039 8.45176 11.9867 7.96888C12.4697 7.48601 12.7409 6.8311 12.7409 6.14822C12.7409 6.8311 13.0122 7.48601 13.4951 7.96888C13.9779 8.45176 14.6329 8.72303 15.3157 8.72303C15.9986 8.72303 16.6535 8.45176 17.1363 7.96888C17.6193 7.48601 17.8905 6.8311 17.8905 6.14822C17.8912 6.75446 18.1057 7.34103 18.4963 7.8047C18.8868 8.26837 19.4284 8.57943 20.0258 8.68311C20.623 8.78681 21.2378 8.67648 21.7617 8.37157C22.2858 8.06667 22.6854 7.5867 22.8903 7.01616C23.0411 6.59622 23.0364 6.13619 22.8772 5.71939L21.3979 1.83564C21.3305 1.65868 21.211 1.50632 21.0552 1.39867C20.8994 1.29102 20.7147 1.23314 20.5253 1.23267H4.96216Z" fill="#FF808C"/>
<path d="M3.77938 4.5097H21.7104C21.8922 4.51127 22.0707 4.55912 22.2289 4.64872C22.3871 4.73832 22.52 4.86673 22.6148 5.02185L21.3977 1.83845C21.3307 1.66111 21.2116 1.50826 21.0559 1.40009C20.9003 1.29192 20.7155 1.23354 20.526 1.23267H4.96286C4.77317 1.23276 4.58798 1.29046 4.43183 1.39814C4.27566 1.50581 4.15588 1.65838 4.08836 1.83564L2.87305 5.02185C2.9679 4.86628 3.10097 4.73755 3.25961 4.64791C3.41824 4.55827 3.59717 4.51069 3.77938 4.5097Z" fill="#FFBFC5"/>
<path d="M4.96216 1.23267C4.77248 1.23276 4.58729 1.29046 4.43113 1.39814C4.27497 1.50581 4.15519 1.65838 4.08766 1.83564L2.60832 5.71939C2.44842 6.13585 2.44244 6.5957 2.59146 7.01616C2.79643 7.5867 3.19607 8.06667 3.72006 8.37157C4.24403 8.67648 4.85878 8.78681 5.45609 8.68311C6.0534 8.57943 6.59499 8.26837 6.98554 7.8047C7.3761 7.34103 7.5906 6.75446 7.59128 6.14822C7.59128 6.8311 7.86255 7.48601 8.34543 7.96888C8.8283 8.45176 9.48322 8.72303 10.1661 8.72303C10.8489 8.72303 11.5039 8.45176 11.9867 7.96888C12.4697 7.48601 12.7409 6.8311 12.7409 6.14822C12.7409 6.8311 13.0122 7.48601 13.4951 7.96888C13.9779 8.45176 14.6329 8.72303 15.3157 8.72303C15.9986 8.72303 16.6535 8.45176 17.1363 7.96888C17.6193 7.48601 17.8905 6.8311 17.8905 6.14822C17.8912 6.75446 18.1057 7.34103 18.4963 7.8047C18.8868 8.26837 19.4284 8.57943 20.0258 8.68311C20.623 8.78681 21.2378 8.67648 21.7617 8.37157C22.2858 8.06667 22.6854 7.5867 22.8903 7.01616C23.0411 6.59622 23.0364 6.13619 22.8772 5.71939L21.3979 1.83564C21.3305 1.65868 21.211 1.50632 21.0552 1.39867C20.8994 1.29102 20.7147 1.23314 20.5253 1.23267H4.96216Z" stroke="#191919" stroke-linecap="round" stroke-linejoin="round"/>
<path d="M13.6401 19.9585H21.1305V8.63684" stroke="#191919" stroke-linecap="round" stroke-linejoin="round"/>
<path d="M14.5762 19.9584V12.468C14.5762 12.2197 14.6749 11.9815 14.8504 11.806C15.026 11.6304 15.2642 11.5317 15.5125 11.5317H18.3214C18.5697 11.5317 18.8079 11.6304 18.9834 11.806C19.159 11.9815 19.2576 12.2197 19.2576 12.468V19.9584H14.5762Z" fill="#C77F67" stroke="#191919" stroke-linecap="round" stroke-linejoin="round"/>
<path d="M4.27734 12V8.61438" stroke="#191919" stroke-linecap="round" stroke-linejoin="round"/>
</g>
<defs>
<clipPath id="clip0_5303_7170">
<rect width="24" height="24" fill="white"/>
</clipPath>
</defs>
</svg>
