<svg width="24" height="24" viewBox="0 0 24 24" fill="none" xmlns="http://www.w3.org/2000/svg">
<g clip-path="url(#clip0_5303_7199)">
<path d="M17.4149 16.0959L18.8491 8.65369H2.24561L3.65774 15.9736C3.73928 16.3438 3.94677 16.6741 4.24471 16.9085C4.54265 17.1428 4.91267 17.2665 5.29169 17.2585H16.0066C16.3399 17.2585 16.6628 17.1425 16.9197 16.9304C17.1767 16.7182 17.3518 16.4232 17.4149 16.0959Z" fill="#FFF9BF"/>
<path d="M18.4028 11.044L18.8637 8.65369H2.2583L2.71913 11.044H18.4028Z" fill="#FFEF5E"/>
<path d="M3.90527 5.78528L6.39683 1.00488" stroke="#191919" stroke-linecap="round" stroke-linejoin="round"/>
<path d="M17.1904 5.78528L14.6997 1.00488" stroke="#191919" stroke-linecap="round" stroke-linejoin="round"/>
<path d="M18.3375 11.3135L18.851 8.65369H2.24561L3.65774 15.9736C3.73928 16.3438 3.94677 16.6741 4.24471 16.9085C4.54265 17.1428 4.91267 17.2665 5.29169 17.2585H10.0855" stroke="#191919" stroke-linecap="round" stroke-linejoin="round"/>
<path d="M19.1657 5.7854H1.95608C1.42804 5.7854 1 6.21344 1 6.74148V7.69756C1 8.2256 1.42804 8.65364 1.95608 8.65364H19.1657C19.6937 8.65364 20.1218 8.2256 20.1218 7.69756V6.74148C20.1218 6.21344 19.6937 5.7854 19.1657 5.7854Z" fill="white" stroke="#191919" stroke-linecap="round" stroke-linejoin="round"/>
<path d="M10.5601 11.0439V13.9495" stroke="#191919" stroke-linecap="round" stroke-linejoin="round"/>
<path d="M6.82422 11.0439L7.23919 13.9495" stroke="#191919" stroke-linecap="round" stroke-linejoin="round"/>
<path d="M18.7718 13.7697L19.9995 16.6159H22.3897C22.5107 16.611 22.6302 16.6436 22.7318 16.7093C22.8336 16.775 22.9125 16.8705 22.9576 16.9829C23.0028 17.0952 23.0121 17.2188 22.9842 17.3366C22.9563 17.4544 22.8925 17.5608 22.8018 17.6408L20.7261 19.4862L21.8734 22.1278C21.9241 22.2486 21.9356 22.3823 21.9063 22.51C21.8769 22.6376 21.8082 22.7529 21.7099 22.8394C21.6115 22.926 21.4885 22.9794 21.3581 22.9922C21.2277 23.005 21.0965 22.9765 20.9833 22.9108L18.2106 21.3476L15.438 22.9108C15.3246 22.9762 15.1935 23.0045 15.0633 22.9915C14.9329 22.9787 14.81 22.9251 14.7117 22.8388C14.6134 22.7524 14.5446 22.6373 14.5151 22.5097C14.4854 22.3823 14.4966 22.2486 14.5469 22.1278L15.6942 19.4871L13.6233 17.6408C13.5329 17.5609 13.4693 17.455 13.4415 17.3375C13.4138 17.2201 13.4229 17.0969 13.4678 16.9848C13.5128 16.8727 13.5912 16.7774 13.6924 16.7116C13.7938 16.6459 13.9128 16.6132 14.0334 16.6178H16.4237L17.6522 13.7716C17.7068 13.6701 17.7878 13.5853 17.8868 13.5262C17.9857 13.4671 18.0987 13.4358 18.214 13.4358C18.3292 13.4358 18.4423 13.4671 18.5411 13.5262C18.6401 13.5853 18.7211 13.6701 18.7757 13.7716L18.7718 13.7697Z" fill="#FFEF5E"/>
<path d="M19.9991 16.616L18.7715 13.7697C18.7169 13.6682 18.6359 13.5834 18.537 13.5242C18.4381 13.4651 18.325 13.434 18.2098 13.434C18.0945 13.434 17.9815 13.4651 17.8826 13.5242C17.7836 13.5834 17.7027 13.6682 17.6481 13.7697L16.4195 16.616H14.0293C13.9085 16.6117 13.7895 16.6447 13.6883 16.711C13.5872 16.777 13.5091 16.8728 13.4645 16.985C13.42 17.0974 13.4114 17.2207 13.4397 17.3381C13.468 17.4556 13.5321 17.5613 13.6229 17.6409L15.6967 19.4881L14.5494 22.1289C14.4925 22.27 14.4897 22.4273 14.5418 22.5705L20.4953 16.617L19.9991 16.616Z" fill="#FFF9BF"/>
<path d="M18.7718 13.7697L19.9995 16.6159H22.3897C22.5107 16.611 22.6302 16.6436 22.7318 16.7093C22.8336 16.775 22.9125 16.8705 22.9576 16.9829C23.0028 17.0952 23.0121 17.2188 22.9842 17.3366C22.9563 17.4544 22.8925 17.5608 22.8018 17.6408L20.7261 19.4862L21.8734 22.1278C21.9241 22.2486 21.9356 22.3823 21.9063 22.51C21.8769 22.6376 21.8082 22.7529 21.7099 22.8394C21.6115 22.926 21.4885 22.9794 21.3581 22.9922C21.2277 23.005 21.0965 22.9765 20.9833 22.9108L18.2106 21.3476L15.438 22.9108C15.3246 22.9762 15.1935 23.0045 15.0633 22.9915C14.9329 22.9787 14.81 22.9251 14.7117 22.8388C14.6134 22.7524 14.5446 22.6373 14.5151 22.5097C14.4854 22.3823 14.4966 22.2486 14.5469 22.1278L15.6942 19.4871L13.6233 17.6408C13.5329 17.5609 13.4693 17.455 13.4415 17.3375C13.4138 17.2201 13.4229 17.0969 13.4678 16.9848C13.5128 16.8727 13.5912 16.7774 13.6924 16.7116C13.7938 16.6459 13.9128 16.6132 14.0334 16.6178H16.4237L17.6522 13.7716C17.7068 13.6701 17.7878 13.5853 17.8868 13.5262C17.9857 13.4671 18.0987 13.4358 18.214 13.4358C18.3292 13.4358 18.4423 13.4671 18.5411 13.5262C18.6401 13.5853 18.7211 13.6701 18.7757 13.7716L18.7718 13.7697Z" stroke="#191919" stroke-linecap="round" stroke-linejoin="round"/>
</g>
<defs>
<clipPath id="clip0_5303_7199">
<rect width="24" height="24" fill="white"/>
</clipPath>
</defs>
</svg>
