<svg width="24" height="24" viewBox="0 0 24 24" fill="none" xmlns="http://www.w3.org/2000/svg">
<g clip-path="url(#clip0_5303_7320)">
<path d="M1 13.4348V4.82602C1 4.31865 1.20155 3.83205 1.56032 3.47329C1.91909 3.11451 2.40568 2.91296 2.91306 2.91296H19.174" stroke="#191919" stroke-linecap="round" stroke-linejoin="round"/>
<path d="M21.0869 4.82611C22.1435 4.82611 22.9999 3.96961 22.9999 2.91306C22.9999 1.8565 22.1435 1 21.0869 1C20.0303 1 19.1738 1.8565 19.1738 2.91306C19.1738 3.96961 20.0303 4.82611 21.0869 4.82611Z" fill="#E3E3E3" stroke="#191919" stroke-linecap="round" stroke-linejoin="round"/>
<path d="M18.2171 8.6521H6.73874C5.68219 8.6521 4.82568 9.5086 4.82568 10.5652V21.087C4.82568 22.1435 5.68219 23 6.73874 23H18.2171C19.2737 23 20.1301 22.1435 20.1301 21.087V10.5652C20.1301 9.5086 19.2737 8.6521 18.2171 8.6521Z" fill="#C77F67"/>
<path d="M18.2171 8.6521H6.73874C6.23137 8.6521 5.74477 8.85365 5.38601 9.21242C5.02723 9.57119 4.82568 10.0578 4.82568 10.5652V12.9565C4.82568 12.4491 5.02723 11.9625 5.38601 11.6038C5.74477 11.245 6.23137 11.0434 6.73874 11.0434H18.2171C18.7244 11.0434 19.211 11.245 19.5698 11.6038C19.9286 11.9625 20.1301 12.4491 20.1301 12.9565V10.5652C20.1301 10.0578 19.9286 9.57119 19.5698 9.21242C19.211 8.85365 18.7244 8.6521 18.2171 8.6521Z" fill="#E3BFB3"/>
<path d="M18.2171 8.6521H6.73874C5.68219 8.6521 4.82568 9.5086 4.82568 10.5652V21.087C4.82568 22.1435 5.68219 23 6.73874 23H18.2171C19.2737 23 20.1301 22.1435 20.1301 21.087V10.5652C20.1301 9.5086 19.2737 8.6521 18.2171 8.6521Z" stroke="#191919" stroke-linecap="round" stroke-linejoin="round"/>
<path d="M8.65186 8.65221V7.69568" stroke="#191919" stroke-linecap="round" stroke-linejoin="round"/>
<path d="M16.3042 8.65221V7.69568" stroke="#191919" stroke-linecap="round" stroke-linejoin="round"/>
<path d="M8.65186 5.78255V2.91296" stroke="#191919" stroke-linecap="round" stroke-linejoin="round"/>
<path d="M15.9282 21.087C16.2816 21.087 16.6205 20.9466 16.8703 20.6968C17.1202 20.4469 17.2606 20.1079 17.2606 19.7546C17.2608 19.6867 17.2556 19.6189 17.2453 19.5518L16.4495 14.3808C16.409 14.1175 16.2757 13.8774 16.0735 13.7039C15.8714 13.5304 15.6139 13.4349 15.3475 13.4348H9.60837C9.34214 13.4349 9.08471 13.5302 8.88262 13.7035C8.68052 13.8768 8.5471 14.1167 8.50645 14.3799L7.71062 19.5566C7.70026 19.6236 7.69514 19.6915 7.69532 19.7594C7.69659 20.112 7.83752 20.4496 8.08727 20.6985C8.33701 20.9473 8.6752 21.087 9.02776 21.087H15.9282Z" fill="#FFEF5E"/>
<path d="M15.3475 13.4348H9.60837C9.34214 13.4349 9.08471 13.5302 8.88262 13.7035C8.68052 13.8768 8.5471 14.1167 8.50645 14.3799L7.71062 19.5566C7.70026 19.6234 7.69515 19.6909 7.69532 19.7584C7.69534 20.0286 7.77775 20.2925 7.93156 20.5147C8.08537 20.7368 8.30328 20.9067 8.55619 21.0019L15.9348 13.6261C15.7616 13.507 15.5577 13.4406 15.3475 13.4348Z" fill="#FFF9BF"/>
<path d="M15.9282 21.087C16.2816 21.087 16.6205 20.9466 16.8703 20.6968C17.1202 20.4469 17.2606 20.1079 17.2606 19.7546C17.2608 19.6867 17.2556 19.6189 17.2453 19.5518L16.4495 14.3808C16.409 14.1175 16.2757 13.8774 16.0735 13.7039C15.8714 13.5304 15.6139 13.4349 15.3475 13.4348H9.60837C9.34214 13.4349 9.08471 13.5302 8.88262 13.7035C8.68052 13.8768 8.5471 14.1167 8.50645 14.3799L7.71062 19.5566C7.70026 19.6236 7.69514 19.6915 7.69532 19.7594C7.69659 20.112 7.83752 20.4496 8.08727 20.6985C8.33701 20.9473 8.6752 21.087 9.02776 21.087H15.9282Z" stroke="#191919" stroke-linecap="round" stroke-linejoin="round"/>
<path d="M16.3042 5.78255V2.91296" stroke="#191919" stroke-linecap="round" stroke-linejoin="round"/>
<path d="M10.5649 15.3478V12.4782C10.5649 11.9709 10.7665 11.4843 11.1253 11.1255C11.4841 10.7667 11.9707 10.5652 12.478 10.5652C12.9853 10.5652 13.4719 10.7667 13.8307 11.1255C14.1895 11.4843 14.3911 11.9709 14.3911 12.4782V15.3478" stroke="#191919" stroke-linecap="round" stroke-linejoin="round"/>
</g>
<defs>
<clipPath id="clip0_5303_7320">
<rect width="24" height="24" fill="white"/>
</clipPath>
</defs>
</svg>
