<svg width="24" height="24" viewBox="0 0 24 24" fill="none" xmlns="http://www.w3.org/2000/svg">
<g clip-path="url(#clip0_5303_7373)">
<path d="M19.7476 23H4.25201C3.84504 23.0002 3.44269 22.9137 3.07168 22.7465C2.70066 22.5793 2.36946 22.335 2.10006 22.03C1.83066 21.7249 1.62923 21.3661 1.50914 20.9772C1.38904 20.5884 1.35303 20.1784 1.40349 19.7746L2.91288 7.69568H21.0868L22.5962 19.7746C22.6466 20.1784 22.6106 20.5884 22.4905 20.9772C22.3704 21.3661 22.169 21.7249 21.8996 22.03C21.6302 22.335 21.299 22.5793 20.928 22.7465C20.557 22.9137 20.1546 23.0002 19.7476 23Z" fill="#FFF9BF"/>
<path d="M22.2231 16.7501C19.1308 18.5876 15.5968 19.5488 11.9998 19.5307C8.40287 19.5488 4.86881 18.5876 1.77654 16.7501L1.40349 19.7402C1.35303 20.144 1.38904 20.554 1.50914 20.9428C1.62923 21.3317 1.83066 21.6905 2.10006 21.9956C2.36946 22.3006 2.70066 22.5449 3.07168 22.7121C3.44269 22.8793 3.84504 22.9657 4.25201 22.9656H19.7476C20.1544 22.9653 20.5565 22.8786 20.9272 22.7112C21.2979 22.5438 21.6288 22.2995 21.8979 21.9945C22.1671 21.6896 22.3684 21.3309 22.4884 20.9422C22.6085 20.5536 22.6445 20.1438 22.5942 19.7402L22.2231 16.7501Z" fill="#FFEF5E"/>
<path d="M6.26042 5.30432H4.88877C4.72363 5.30445 4.56133 5.34734 4.41768 5.4288C4.27403 5.51026 4.15391 5.62753 4.06903 5.76919L2.9126 7.69562H21.0865L19.93 5.76919C19.8452 5.62753 19.7251 5.51026 19.5814 5.4288C19.4377 5.34734 19.2755 5.30445 19.1103 5.30432H17.7387" fill="#FFDDA1"/>
<path d="M6.26042 5.30432H4.88877C4.72363 5.30445 4.56133 5.34734 4.41768 5.4288C4.27403 5.51026 4.15391 5.62753 4.06903 5.76919L2.9126 7.69562H21.0865L19.93 5.76919C19.8452 5.62753 19.7251 5.51026 19.5814 5.4288C19.4377 5.34734 19.2755 5.30445 19.1103 5.30432H17.7387" stroke="#191919" stroke-linecap="round" stroke-linejoin="round"/>
<path d="M15.8265 4.82608C15.8265 3.81134 15.4234 2.83816 14.7058 2.12063C13.9883 1.4031 13.0151 1 12.0004 1C10.9857 1 10.0125 1.4031 9.29495 2.12063C8.57742 2.83816 8.17432 3.81134 8.17432 4.82608V7.69564H15.8265V4.82608Z" stroke="#191919" stroke-linecap="round" stroke-linejoin="round"/>
<path fill-rule="evenodd" clip-rule="evenodd" d="M15.047 12.0613L10.5992 16.5091L8.98652 14.9653C8.92504 14.9041 8.84181 14.8697 8.75504 14.8697C8.66828 14.8697 8.58505 14.9041 8.52357 14.9653L7.34705 16.1418C7.28583 16.2033 7.25146 16.2865 7.25146 16.3733C7.25146 16.46 7.28583 16.5433 7.34705 16.6047L10.3677 19.5566C10.4292 19.6178 10.5125 19.6522 10.5992 19.6522C10.686 19.6522 10.7692 19.6178 10.8307 19.5566L16.6865 13.7008C16.7477 13.6393 16.7821 13.556 16.7821 13.4693C16.7821 13.3825 16.7477 13.2993 16.6865 13.2378L15.51 12.0613C15.4485 12.0001 15.3653 11.9657 15.2785 11.9657C15.1917 11.9657 15.1085 12.0001 15.047 12.0613Z" fill="#78EB7B" stroke="#191919" stroke-linecap="round" stroke-linejoin="round"/>
<path d="M19.7476 23H4.25201C3.84504 23.0002 3.44269 22.9137 3.07168 22.7465C2.70066 22.5793 2.36946 22.335 2.10006 22.03C1.83066 21.7249 1.62923 21.3661 1.50914 20.9772C1.38904 20.5884 1.35303 20.1784 1.40349 19.7746L2.91288 7.69568H21.0868L22.5962 19.7746C22.6466 20.1784 22.6106 20.5884 22.4905 20.9772C22.3704 21.3661 22.169 21.7249 21.8996 22.03C21.6302 22.335 21.299 22.5793 20.928 22.7465C20.557 22.9137 20.1546 23.0002 19.7476 23Z" stroke="#191919" stroke-linecap="round" stroke-linejoin="round"/>
</g>
<defs>
<clipPath id="clip0_5303_7373">
<rect width="24" height="24" fill="white"/>
</clipPath>
</defs>
</svg>
