<svg width="24" height="24" viewBox="0 0 24 24" fill="none" xmlns="http://www.w3.org/2000/svg">
<g clip-path="url(#clip0_5303_12451)">
<path d="M17.2608 8.40928V1.95661C17.2618 1.79988 17.224 1.64535 17.1508 1.50676C17.0776 1.36817 16.9713 1.24983 16.8413 1.16225C16.7113 1.07468 16.5617 1.0206 16.4057 1.00483C16.2498 0.989053 16.0924 1.01207 15.9475 1.07183C12.6609 2.4033 5.59989 2.40426 2.3133 1.07183C2.16835 1.01356 2.01133 0.991678 1.85597 1.0081C1.70061 1.02452 1.55164 1.07875 1.42207 1.16603C1.29251 1.25332 1.1863 1.37102 1.11272 1.50883C1.03914 1.64665 1.00044 1.80039 1 1.95661V8.40928C1 13.6701 7.21736 17.9744 9.1304 17.9744C11.0434 17.9744 17.2608 13.6682 17.2608 8.40928Z" fill="#FFDDA1"/>
<path d="M17.2606 5.28053C13.3561 5.53975 8.99339 5.15523 6.45192 4.12602C6.27341 4.05316 6.0797 4.02538 5.8879 4.04511C5.69611 4.06484 5.51211 4.13148 5.35217 4.23915C5.19222 4.34682 5.06124 4.49221 4.97078 4.66248C4.88033 4.83276 4.83318 5.02268 4.8335 5.21549V13.1823C4.84393 14.1503 5.01193 15.1101 5.33089 16.0241C6.39318 17.0122 7.70809 17.6872 9.13017 17.9744C11.0432 17.9744 17.2606 13.6701 17.2606 8.4093V5.28053Z" fill="#FFBC44"/>
<path d="M23.0001 13.4348V6.98021C23.0007 6.82364 22.9627 6.66934 22.8893 6.53101C22.816 6.39267 22.7097 6.27459 22.5797 6.18724C22.4498 6.09989 22.3003 6.04598 22.1445 6.03029C21.9887 6.01461 21.8315 6.03764 21.6868 6.09734C18.4002 7.42881 11.3391 7.42977 8.05256 6.09734C7.90768 6.0391 7.75075 6.01721 7.59547 6.03358C7.44018 6.04996 7.29127 6.1041 7.16173 6.19127C7.03218 6.27845 6.92595 6.39602 6.85231 6.53371C6.77867 6.6714 6.73986 6.82502 6.73926 6.98116V13.4348C6.73926 18.6957 12.9566 23 14.8697 23C16.7827 23 23.0001 18.6957 23.0001 13.4348Z" fill="#FFEF5E"/>
<path d="M14.8697 7.09694C12.5565 7.16345 10.2495 6.82551 8.05256 6.09834C7.90776 6.04012 7.75091 6.01822 7.5957 6.03455C7.44049 6.05088 7.29164 6.10493 7.16212 6.192C7.0326 6.27907 6.92635 6.39651 6.85265 6.53407C6.77894 6.67163 6.74001 6.82514 6.73926 6.9812V13.4348C6.73926 18.6957 12.9566 23 14.8697 23V7.09694Z" fill="#FFF9BF"/>
<path d="M23.0001 13.4348V6.98021C23.0007 6.82364 22.9627 6.66934 22.8893 6.53101C22.816 6.39267 22.7097 6.27459 22.5797 6.18724C22.4498 6.09989 22.3003 6.04598 22.1445 6.03029C21.9887 6.01461 21.8315 6.03764 21.6868 6.09734C18.4002 7.42881 11.3391 7.42977 8.05256 6.09734C7.90768 6.0391 7.75075 6.01721 7.59547 6.03358C7.44018 6.04996 7.29127 6.1041 7.16173 6.19127C7.03218 6.27845 6.92595 6.39602 6.85231 6.53371C6.77867 6.6714 6.73986 6.82502 6.73926 6.98116V13.4348C6.73926 18.6957 12.9566 23 14.8697 23C16.7827 23 23.0001 18.6957 23.0001 13.4348Z" stroke="#191919" stroke-linecap="round" stroke-linejoin="round"/>
<path d="M17.2608 5.08729V1.95661C17.2618 1.79988 17.224 1.64535 17.1508 1.50676C17.0776 1.36817 16.9713 1.24983 16.8413 1.16225C16.7113 1.07468 16.5617 1.0206 16.4057 1.00483C16.2498 0.989053 16.0924 1.01207 15.9475 1.07183C12.6609 2.4033 5.59989 2.40426 2.3133 1.07183C2.16835 1.01356 2.01133 0.991678 1.85597 1.0081C1.70061 1.02452 1.55164 1.07875 1.42207 1.16603C1.29251 1.25332 1.1863 1.37102 1.11272 1.50883C1.03914 1.64665 1.00044 1.80039 1 1.95661V8.40928C1 11.4405 3.06608 14.156 5.18285 15.9122" stroke="#191919" stroke-linecap="round" stroke-linejoin="round"/>
<path d="M17.7391 16.3044C17.7391 17.0654 17.4368 17.7953 16.8986 18.3334C16.3605 18.8716 15.6306 19.1739 14.8696 19.1739C14.1085 19.1739 13.3786 18.8716 12.8405 18.3334C12.3023 17.7953 12 17.0654 12 16.3044" stroke="#191919" stroke-linecap="round" stroke-linejoin="round"/>
<path d="M16.7827 12C16.7827 11.6195 16.9339 11.2546 17.203 10.9855C17.472 10.7164 17.837 10.5653 18.2175 10.5653C18.598 10.5653 18.963 10.7164 19.232 10.9855C19.5011 11.2546 19.6523 11.6195 19.6523 12" stroke="#191919" stroke-linecap="round" stroke-linejoin="round"/>
<path d="M10.0869 12C10.0869 11.8116 10.124 11.625 10.1961 11.451C10.2682 11.2769 10.3739 11.1187 10.5071 10.9855C10.6404 10.8523 10.7986 10.7466 10.9726 10.6745C11.1467 10.6024 11.3333 10.5653 11.5217 10.5653C11.7101 10.5653 11.8967 10.6024 12.0708 10.6745C12.2448 10.7466 12.403 10.8523 12.5362 10.9855C12.6695 11.1187 12.7751 11.2769 12.8473 11.451C12.9194 11.625 12.9565 11.8116 12.9565 12" stroke="#191919" stroke-linecap="round" stroke-linejoin="round"/>
</g>
<defs>
<clipPath id="clip0_5303_12451">
<rect width="24" height="24" fill="white"/>
</clipPath>
</defs>
</svg>
