<svg width="24" height="24" viewBox="0 0 24 24" fill="none" xmlns="http://www.w3.org/2000/svg">
<g clip-path="url(#clip0_5303_12673)">
<path d="M22.0456 11.9978V1.95804C22.0467 1.80542 22.0111 1.65478 21.9418 1.51882C21.8724 1.38287 21.7714 1.26561 21.6471 1.17694C21.5229 1.08827 21.3792 1.03081 21.228 1.0094C21.0769 0.987998 20.9229 1.00328 20.7789 1.05395C16.9243 2.48902 7.07591 2.48902 3.22131 1.05395C3.07727 1.00325 2.92314 0.987979 2.77195 1.00943C2.62076 1.03089 2.47696 1.08844 2.35271 1.17721C2.22846 1.26599 2.12742 1.38338 2.05813 1.51946C1.98884 1.65554 1.95333 1.8063 1.95462 1.959V11.9978C1.95462 18.0729 10.0867 23 12.0001 23C13.9135 23 22.0456 18.0729 22.0456 11.9978Z" fill="#FFEF5E"/>
<path d="M12.0001 2.1293C9.03604 2.22273 6.0752 1.86005 3.22131 1.05395C3.07727 1.00325 2.92314 0.987979 2.77195 1.00943C2.62076 1.03089 2.47696 1.08844 2.35271 1.17721C2.22846 1.26599 2.12742 1.38338 2.05813 1.51946C1.98884 1.65554 1.95333 1.8063 1.95462 1.959V11.9978C1.95462 18.0729 10.0867 23 12.0001 23V2.1293Z" fill="#FFF9BF"/>
<path d="M22.0456 11.9978V1.95804C22.0467 1.80542 22.0111 1.65478 21.9418 1.51882C21.8724 1.38287 21.7714 1.26561 21.6471 1.17694C21.5229 1.08827 21.3792 1.03081 21.228 1.0094C21.0769 0.987998 20.9229 1.00328 20.7789 1.05395C16.9243 2.48902 7.07591 2.48902 3.22131 1.05395C3.07727 1.00325 2.92314 0.987979 2.77195 1.00943C2.62076 1.03089 2.47696 1.08844 2.35271 1.17721C2.22846 1.26599 2.12742 1.38338 2.05813 1.51946C1.98884 1.65554 1.95333 1.8063 1.95462 1.959V11.9978C1.95462 18.0729 10.0867 23 12.0001 23C13.9135 23 22.0456 18.0729 22.0456 11.9978Z" stroke="#191919" stroke-linecap="round" stroke-linejoin="round"/>
<path d="M14.3921 8.64927C14.3921 8.14179 14.5937 7.65511 14.9525 7.29627C15.3114 6.93743 15.798 6.73584 16.3055 6.73584C16.813 6.73584 17.2997 6.93743 17.6585 7.29627C18.0174 7.65511 18.2189 8.14179 18.2189 8.64927" stroke="#191919" stroke-linecap="round" stroke-linejoin="round"/>
<path d="M5.78125 8.64927C5.78125 8.14179 5.98284 7.65511 6.34168 7.29627C6.70052 6.93743 7.1872 6.73584 7.69468 6.73584C8.20215 6.73584 8.68884 6.93743 9.04767 7.29627C9.40651 7.65511 9.6081 8.14179 9.6081 8.64927" stroke="#191919" stroke-linecap="round" stroke-linejoin="round"/>
<path d="M8.17334 13.4329C8.17334 14.4478 8.57653 15.4212 9.2942 16.1389C10.0119 16.8565 10.9852 17.2597 12.0002 17.2597C13.0151 17.2597 13.9885 16.8565 14.7062 16.1389C15.4239 15.4212 15.827 14.4478 15.827 13.4329" stroke="#191919" stroke-linecap="round" stroke-linejoin="round"/>
</g>
<defs>
<clipPath id="clip0_5303_12673">
<rect width="24" height="24" fill="white"/>
</clipPath>
</defs>
</svg>
