<svg width="24" height="24" viewBox="0 0 24 24" fill="none" xmlns="http://www.w3.org/2000/svg">
<path d="M12.0002 21.1666C17.0627 21.1666 21.1668 17.0625 21.1668 12C21.1668 6.93737 17.0627 2.83331 12.0002 2.83331C6.93755 2.83331 2.8335 6.93737 2.8335 12C2.8335 17.0625 6.93755 21.1666 12.0002 21.1666Z" fill="#C2F3FF"/>
<path d="M15.2085 8.79079L22.5418 1.45746" stroke="#191919" stroke-linecap="round" stroke-linejoin="round"/>
<path d="M1.4585 22.5407L8.79183 15.2074" stroke="#191919" stroke-linecap="round" stroke-linejoin="round"/>
<path d="M19.7918 8.79079H15.2085V4.20746" stroke="#191919" stroke-linecap="round" stroke-linejoin="round"/>
<path d="M8.79183 19.7907V15.2074H4.2085" stroke="#191919" stroke-linecap="round" stroke-linejoin="round"/>
<path d="M15.2085 15.2074L22.5418 22.5407" stroke="#191919" stroke-linecap="round" stroke-linejoin="round"/>
<path d="M1.4585 1.45746L8.79183 8.79079" stroke="#191919" stroke-linecap="round" stroke-linejoin="round"/>
<path d="M15.2085 19.7907V15.2074H19.7918" stroke="#191919" stroke-linecap="round" stroke-linejoin="round"/>
<path d="M4.2085 8.79079H8.79183V4.20746" stroke="#191919" stroke-linecap="round" stroke-linejoin="round"/>
<path d="M11.9998 13.8324C13.0124 13.8324 13.8332 13.0116 13.8332 11.9991C13.8332 10.9866 13.0124 10.1658 11.9998 10.1658C10.9873 10.1658 10.1665 10.9866 10.1665 11.9991C10.1665 13.0116 10.9873 13.8324 11.9998 13.8324Z" fill="#FFEF5E" stroke="#191919" stroke-linecap="round" stroke-linejoin="round"/>
</svg>
