<svg width="24" height="24" viewBox="0 0 24 24" fill="none" xmlns="http://www.w3.org/2000/svg">
<path d="M3.39137 14.8696H1.47827C1.21413 14.8696 1 15.0838 1 15.3479V20.1306C1 20.3947 1.21413 20.6089 1.47827 20.6089H3.39137C3.65551 20.6089 3.86964 20.3947 3.86964 20.1306V15.3479C3.86964 15.0838 3.65551 14.8696 3.39137 14.8696Z" fill="#66E1FF"/>
<path d="M8.17359 12H6.2605C5.99636 12 5.78223 12.2142 5.78223 12.4783V20.1306C5.78223 20.3948 5.99636 20.6089 6.2605 20.6089H8.17359C8.43773 20.6089 8.65187 20.3948 8.65187 20.1306V12.4783C8.65187 12.2142 8.43773 12 8.17359 12Z" fill="#66E1FF"/>
<path d="M12.9563 9.13031H11.0432C10.7791 9.13031 10.5649 9.34444 10.5649 9.60858V20.1306C10.5649 20.3947 10.7791 20.6089 11.0432 20.6089H12.9563C13.2204 20.6089 13.4346 20.3947 13.4346 20.1306V9.60858C13.4346 9.34444 13.2204 9.13031 12.9563 9.13031Z" fill="#66E1FF"/>
<path d="M17.7395 6.26068H15.8264C15.5623 6.26068 15.3481 6.47481 15.3481 6.73895V20.1306C15.3481 20.3947 15.5623 20.6089 15.8264 20.6089H17.7395C18.0036 20.6089 18.2178 20.3947 18.2178 20.1306V6.73895C18.2178 6.47481 18.0036 6.26068 17.7395 6.26068Z" fill="#66E1FF"/>
<path d="M22.5217 3.39105H20.6086C20.3445 3.39105 20.1304 3.60518 20.1304 3.86933V20.1306C20.1304 20.3947 20.3445 20.6089 20.6086 20.6089H22.5217C22.7858 20.6089 23 20.3947 23 20.1306V3.86933C23 3.60518 22.7858 3.39105 22.5217 3.39105Z" fill="#66E1FF"/>
<path d="M3.39137 14.8696H1.47827C1.21413 14.8696 1 15.0838 1 15.3479V20.1306C1 20.3947 1.21413 20.6089 1.47827 20.6089H3.39137C3.65551 20.6089 3.86964 20.3947 3.86964 20.1306V15.3479C3.86964 15.0838 3.65551 14.8696 3.39137 14.8696Z" stroke="#191919" stroke-linecap="round" stroke-linejoin="round"/>
<path d="M8.17359 12H6.2605C5.99636 12 5.78223 12.2142 5.78223 12.4783V20.1306C5.78223 20.3948 5.99636 20.6089 6.2605 20.6089H8.17359C8.43773 20.6089 8.65187 20.3948 8.65187 20.1306V12.4783C8.65187 12.2142 8.43773 12 8.17359 12Z" stroke="#191919" stroke-linecap="round" stroke-linejoin="round"/>
<path d="M12.9563 9.13031H11.0432C10.7791 9.13031 10.5649 9.34444 10.5649 9.60858V20.1306C10.5649 20.3947 10.7791 20.6089 11.0432 20.6089H12.9563C13.2204 20.6089 13.4346 20.3947 13.4346 20.1306V9.60858C13.4346 9.34444 13.2204 9.13031 12.9563 9.13031Z" stroke="#191919" stroke-linecap="round" stroke-linejoin="round"/>
<path d="M17.7395 6.26068H15.8264C15.5623 6.26068 15.3481 6.47481 15.3481 6.73895V20.1306C15.3481 20.3947 15.5623 20.6089 15.8264 20.6089H17.7395C18.0036 20.6089 18.2178 20.3947 18.2178 20.1306V6.73895C18.2178 6.47481 18.0036 6.26068 17.7395 6.26068Z" stroke="#191919" stroke-linecap="round" stroke-linejoin="round"/>
<path d="M22.5217 3.39105H20.6086C20.3445 3.39105 20.1304 3.60518 20.1304 3.86933V20.1306C20.1304 20.3947 20.3445 20.6089 20.6086 20.6089H22.5217C22.7858 20.6089 23 20.3947 23 20.1306V3.86933C23 3.60518 22.7858 3.39105 22.5217 3.39105Z" stroke="#191919" stroke-linecap="round" stroke-linejoin="round"/>
</svg>
