<svg width="24" height="24" viewBox="0 0 24 24" fill="none" xmlns="http://www.w3.org/2000/svg">
<g clip-path="url(#clip0_5303_3200)">
<path d="M12.0001 23C18.0734 23 22.9973 18.0761 22.9973 12.0028C22.9973 5.92949 18.0734 1.00562 12.0001 1.00562C5.92681 1.00562 1.00293 5.92949 1.00293 12.0028C1.00293 18.0761 5.92681 23 12.0001 23Z" fill="#C2F3FF"/>
<path d="M12.0001 5.55652C14.5214 5.55674 16.9659 6.42328 18.9245 8.01098C20.883 9.59868 22.2365 11.8111 22.7583 14.2778C23.0979 12.6757 23.0754 11.0179 22.6924 9.42558C22.3094 7.83326 21.5757 6.34658 20.5447 5.07411C19.5137 3.80163 18.2115 2.7755 16.7332 2.07064C15.2549 1.36579 13.6379 1 12.0001 1C10.3624 1 8.74535 1.36579 7.26707 2.07064C5.78878 2.7755 4.48659 3.80163 3.45559 5.07411C2.42459 6.34658 1.69081 7.83326 1.30783 9.42558C0.924863 11.0179 0.902371 12.6757 1.242 14.2778C1.76378 11.8111 3.11728 9.59868 5.0758 8.01098C7.03431 6.42328 9.4789 5.55674 12.0001 5.55652Z" fill="#66E1FF"/>
<path d="M12.0001 23C18.0734 23 22.9973 18.0761 22.9973 12.0028C22.9973 5.92949 18.0734 1.00562 12.0001 1.00562C5.92681 1.00562 1.00293 5.92949 1.00293 12.0028C1.00293 18.0761 5.92681 23 12.0001 23Z" stroke="#191919" stroke-linecap="round" stroke-linejoin="round"/>
<path d="M12.0005 9.61208C12.8247 9.61208 13.6153 9.28464 14.1981 8.70179C14.7809 8.11895 15.1084 7.32844 15.1084 6.50417C15.1084 5.67991 14.7809 4.8894 14.1981 4.30655C13.6153 3.72371 12.8247 3.39627 12.0005 3.39627C11.1762 3.39627 10.3857 3.72371 9.80286 4.30655C9.22002 4.8894 8.89258 5.67991 8.89258 6.50417C8.89258 7.32844 9.22002 8.11895 9.80286 8.70179C10.3857 9.28464 11.1762 9.61208 12.0005 9.61208Z" fill="#FFDDA1"/>
<path d="M13.9561 20.6093L14.3912 18.2186H16.3038V15.3498C16.3038 14.2085 15.8504 13.1139 15.0434 12.3069C14.2364 11.4999 13.1418 11.0465 12.0005 11.0465C10.8592 11.0465 9.76467 11.4999 8.95766 12.3069C8.15064 13.1139 7.69727 14.2085 7.69727 15.3498V18.2186H9.60982L10.0449 20.6093" fill="white"/>
<path d="M12.0005 5.30883C12.6555 5.31016 13.2932 5.51916 13.8219 5.90577C14.3506 6.29238 14.7431 6.8367 14.9429 7.46045C15.0481 7.15253 15.1046 6.82931 15.1084 6.50417C15.1084 5.67991 14.7809 4.8894 14.1981 4.30655C13.6153 3.72371 12.8247 3.39627 12.0005 3.39627C11.1762 3.39627 10.3857 3.72371 9.80286 4.30655C9.22002 4.8894 8.89258 5.67991 8.89258 6.50417C8.8964 6.82931 8.95282 7.15253 9.05801 7.46045C9.25787 6.8367 9.65037 6.29238 10.1791 5.90577C10.7078 5.51916 11.3455 5.31016 12.0005 5.30883Z" fill="#FFDDA1"/>
<path d="M12.0005 9.61208C12.8247 9.61208 13.6153 9.28464 14.1981 8.70179C14.7809 8.11895 15.1084 7.32844 15.1084 6.50417C15.1084 5.67991 14.7809 4.8894 14.1981 4.30655C13.6153 3.72371 12.8247 3.39627 12.0005 3.39627C11.1762 3.39627 10.3857 3.72371 9.80286 4.30655C9.22002 4.8894 8.89258 5.67991 8.89258 6.50417C8.89258 7.32844 9.22002 8.11895 9.80286 8.70179C10.3857 9.28464 11.1762 9.61208 12.0005 9.61208Z" stroke="#191919" stroke-linecap="round" stroke-linejoin="round"/>
<path d="M12.0005 11.0465C10.8592 11.0465 9.76467 11.4999 8.95766 12.3069C8.15064 13.1139 7.69727 14.2085 7.69727 15.3498V17.2623C7.69727 16.6972 7.80857 16.1376 8.02483 15.6155C8.24109 15.0934 8.55807 14.6191 8.95766 14.2195C9.35725 13.8199 9.83164 13.5029 10.3537 13.2866C10.8758 13.0704 11.4354 12.9591 12.0005 12.9591C12.5656 12.9591 13.1252 13.0704 13.6473 13.2866C14.1694 13.5029 14.6438 13.8199 15.0434 14.2195C15.443 14.6191 15.7599 15.0934 15.9762 15.6155C16.1925 16.1376 16.3038 16.6972 16.3038 17.2623V15.3498C16.3038 14.2085 15.8504 13.1139 15.0434 12.3069C14.2364 11.4999 13.1418 11.0465 12.0005 11.0465Z" fill="white"/>
<path d="M13.9561 20.6093L14.3912 18.2186H16.3038V15.3498C16.3038 14.2085 15.8504 13.1139 15.0434 12.3069C14.2364 11.4999 13.1418 11.0465 12.0005 11.0465C10.8592 11.0465 9.76467 11.4999 8.95766 12.3069C8.15064 13.1139 7.69727 14.2085 7.69727 15.3498V18.2186H9.60982L10.0449 20.6093" stroke="#191919" stroke-linecap="round" stroke-linejoin="round"/>
</g>
<defs>
<clipPath id="clip0_5303_3200">
<rect width="24" height="24" fill="white"/>
</clipPath>
</defs>
</svg>
