<svg width="24" height="24" viewBox="0 0 24 24" fill="none" xmlns="http://www.w3.org/2000/svg">
<g clip-path="url(#clip0_5303_3383)">
<path d="M9.09169 3.89866C8.39919 4.19409 7.65426 4.34698 6.90137 4.3482C6.15537 4.34933 5.4168 4.19998 4.72985 3.90909C4.04289 3.6182 3.42166 3.19175 2.90332 2.65524V2.64568C3.25599 2.04701 3.78659 1.57322 4.42122 1.29032C5.05585 1.00742 5.76291 0.929489 6.44392 1.06737C7.12493 1.20526 7.74598 1.5521 8.22058 2.05959C8.69517 2.56708 8.99968 3.20995 9.09169 3.89866Z" fill="#808080"/>
<path d="M9.12994 4.3482C9.12994 5.23605 8.77724 6.08754 8.14943 6.71535C7.52162 7.34315 6.67014 7.69585 5.78228 7.69585C4.89443 7.69585 4.04294 7.34315 3.41514 6.71535C2.78733 6.08754 2.43463 5.23605 2.43463 4.3482C2.43091 3.75135 2.59317 3.16521 2.9033 2.65524C3.42165 3.19175 4.04288 3.6182 4.72983 3.90909C5.41679 4.19998 6.15535 4.34933 6.90136 4.3482C7.65425 4.34698 8.39917 4.19409 9.09168 3.89866C9.11941 4.04691 9.13185 4.19708 9.12994 4.3482Z" fill="#E3E3E3"/>
<path d="M7.6953 22.9994L8.17354 17.2606H10.5647V13.9129C10.5647 13.2849 10.441 12.663 10.2007 12.0828C9.96035 11.5026 9.60808 10.9754 9.164 10.5313C8.71991 10.0872 8.19271 9.73496 7.61249 9.49462C7.03227 9.25428 6.41039 9.13058 5.78236 9.13058C5.15433 9.13058 4.53245 9.25428 3.95223 9.49462C3.37201 9.73496 2.8448 10.0872 2.40072 10.5313C1.95664 10.9754 1.60437 11.5026 1.36404 12.0828C1.1237 12.663 1 13.2849 1 13.9129V17.2606H3.39118L3.86942 22.9994H7.6953Z" fill="#E3E3E3"/>
<path d="M9.09169 3.89866C8.94822 3.95604 8.79519 4.01343 8.65171 4.06126C8.35448 3.56559 7.93398 3.15532 7.43114 2.87037C6.9283 2.58543 6.36026 2.43553 5.7823 2.43525C4.97916 2.43301 4.20314 2.72572 3.60154 3.25782C3.3513 3.07818 3.11763 2.87652 2.90332 2.65524V2.64568C3.25599 2.04701 3.78659 1.57322 4.42122 1.29032C5.05585 1.00742 5.76291 0.929489 6.44392 1.06737C7.12493 1.20526 7.74598 1.5521 8.22058 2.05959C8.69517 2.56708 8.99968 3.20995 9.09169 3.89866Z" fill="#B2B2B2"/>
<path d="M10.5647 13.9129V15.3477C10.5647 14.7196 10.441 14.0977 10.2007 13.5175C9.96035 12.9373 9.60808 12.4101 9.164 11.966C8.71991 11.5219 8.19271 11.1697 7.61249 10.9293C7.03227 10.689 6.41039 10.5653 5.78236 10.5653C5.15433 10.5653 4.53245 10.689 3.95223 10.9293C3.37201 11.1697 2.8448 11.5219 2.40072 11.966C1.95664 12.4101 1.60437 12.9373 1.36404 13.5175C1.1237 14.0977 1 14.7196 1 15.3477V13.9129C1 13.2849 1.1237 12.663 1.36404 12.0828C1.60437 11.5026 1.95664 10.9754 2.40072 10.5313C2.8448 10.0872 3.37201 9.73496 3.95223 9.49462C4.53245 9.25428 5.15433 9.13058 5.78236 9.13058C6.41039 9.13058 7.03227 9.25428 7.61249 9.49462C8.19271 9.73496 8.71991 10.0872 9.164 10.5313C9.60808 10.9754 9.96035 11.5026 10.2007 12.0828C10.441 12.663 10.5647 13.2849 10.5647 13.9129Z" fill="white"/>
<path d="M2.89844 2.64859C3.68252 3.46243 4.69614 4.01781 5.80405 4.24066C6.91195 4.46351 8.06147 4.34321 9.09924 3.89583" stroke="#191919" stroke-linecap="round" stroke-linejoin="round"/>
<path d="M5.78222 7.69588C6.67007 7.69588 7.52156 7.34318 8.14937 6.71538C8.77717 6.08757 9.12987 5.23608 9.12987 4.34823C9.12987 3.46038 8.77717 2.60889 8.14937 1.98108C7.52156 1.35328 6.67007 1.00058 5.78222 1.00058C4.89437 1.00058 4.04288 1.35328 3.41507 1.98108C2.78727 2.60889 2.43457 3.46038 2.43457 4.34823C2.43457 5.23608 2.78727 6.08757 3.41507 6.71538C4.04288 7.34318 4.89437 7.69588 5.78222 7.69588Z" stroke="#191919" stroke-linecap="round" stroke-linejoin="round"/>
<path d="M10.0989 11.8517C9.63177 10.8723 8.8454 10.0808 7.86898 9.60731C6.89255 9.13383 5.78412 9.00651 4.72577 9.24627C3.66742 9.48602 2.72207 10.0786 2.04501 10.9266C1.36795 11.7747 0.999437 12.8278 1 13.9129V17.2606H3.39118L3.86942 22.9994H7.6953L8.17354 17.2606H9.59103" stroke="#191919" stroke-linecap="round" stroke-linejoin="round"/>
<path d="M17.2613 22.9994C18.7833 22.9994 20.243 22.3948 21.3193 21.3185C22.3955 20.2423 23.0001 18.7826 23.0001 17.2606C23.0001 15.7385 22.3955 14.2788 21.3193 13.2026C20.243 12.1264 18.7833 11.5217 17.2613 11.5217C15.7393 11.5217 14.2796 12.1264 13.2033 13.2026C12.1271 14.2788 11.5225 15.7385 11.5225 17.2606C11.5225 18.7826 12.1271 20.2423 13.2033 21.3185C14.2796 22.3948 15.7393 22.9994 17.2613 22.9994Z" fill="#78EB7B"/>
<path d="M17.2611 11.5217C16.093 11.5208 14.9526 11.8766 13.9923 12.5415C13.032 13.2065 12.2976 14.1488 11.8875 15.2425C11.4774 16.3361 11.4111 17.529 11.6974 18.6614C11.9837 19.7938 12.6091 20.8117 13.4897 21.579L21.5795 13.4892C21.0426 12.8711 20.3791 12.3756 19.6341 12.0362C18.8891 11.6968 18.0798 11.5213 17.2611 11.5217Z" fill="#C9F7CA"/>
<path d="M17.2613 22.9994C18.7833 22.9994 20.243 22.3948 21.3193 21.3185C22.3955 20.2423 23.0001 18.7826 23.0001 17.2606C23.0001 15.7385 22.3955 14.2788 21.3193 13.2026C20.243 12.1264 18.7833 11.5217 17.2613 11.5217C15.7393 11.5217 14.2796 12.1264 13.2033 13.2026C12.1271 14.2788 11.5225 15.7385 11.5225 17.2606C11.5225 18.7826 12.1271 20.2423 13.2033 21.3185C14.2796 22.3948 15.7393 22.9994 17.2613 22.9994Z" stroke="#191919" stroke-linecap="round" stroke-linejoin="round"/>
<path d="M19.8186 15.5963L17.0448 19.3017C16.9831 19.3839 16.9045 19.4518 16.8143 19.5009C16.7241 19.5501 16.6243 19.5793 16.5219 19.5865C16.4194 19.5938 16.3165 19.5789 16.2203 19.543C16.1241 19.5071 16.0367 19.4509 15.964 19.3782L14.5293 17.9435" stroke="#191919" stroke-linecap="round" stroke-linejoin="round"/>
</g>
<defs>
<clipPath id="clip0_5303_3383">
<rect width="24" height="24" fill="white"/>
</clipPath>
</defs>
</svg>
