<svg width="24" height="24" viewBox="0 0 24 24" fill="none" xmlns="http://www.w3.org/2000/svg">
<g clip-path="url(#clip0_5303_3310)">
<path d="M22 2H2C1.73478 2 1.48043 2.10536 1.29289 2.29289C1.10536 2.48043 1 2.73478 1 3V17C1 17.2652 1.10536 17.5196 1.29289 17.7071C1.48043 17.8946 1.73478 18 2 18H22C22.2652 18 22.5196 17.8946 22.7071 17.7071C22.8946 17.5196 23 17.2652 23 17V3C23 2.73478 22.8946 2.48043 22.7071 2.29289C22.5196 2.10536 22.2652 2 22 2Z" fill="#C2F3FF"/>
<path d="M21.9998 2H20.2598L4.25977 18H21.9998C22.265 18 22.5193 17.8946 22.7069 17.7071C22.8944 17.5196 22.9998 17.2652 22.9998 17V3C22.9998 2.73478 22.8944 2.48043 22.7069 2.29289C22.5193 2.10536 22.265 2 21.9998 2Z" fill="#66E1FF"/>
<path d="M22 2H2C1.73478 2 1.48043 2.10536 1.29289 2.29289C1.10536 2.48043 1 2.73478 1 3V17C1 17.2652 1.10536 17.5196 1.29289 17.7071C1.48043 17.8946 1.73478 18 2 18H22C22.2652 18 22.5196 17.8946 22.7071 17.7071C22.8946 17.5196 23 17.2652 23 17V3C23 2.73478 22.8946 2.48043 22.7071 2.29289C22.5196 2.10536 22.2652 2 22 2Z" stroke="#191919" stroke-linecap="round" stroke-linejoin="round"/>
<path d="M11.9375 10.5C12.7995 10.5 13.6261 10.1576 14.2356 9.54807C14.8451 8.93857 15.1875 8.11192 15.1875 7.24997C15.1875 6.38802 14.8451 5.56137 14.2356 4.95187C13.6261 4.34238 12.7995 3.99997 11.9375 3.99997C11.0755 3.99997 10.2489 4.34238 9.6394 4.95187C9.02991 5.56137 8.6875 6.38802 8.6875 7.24997C8.6875 8.11192 9.02991 8.93857 9.6394 9.54807C10.2489 10.1576 11.0755 10.5 11.9375 10.5Z" fill="#FFDDA1"/>
<path d="M16.9932 15.5C16.6201 14.4735 15.9401 13.5867 15.0456 12.96C14.1511 12.3334 13.0853 11.9972 11.9932 11.9972C10.901 11.9972 9.83526 12.3334 8.94074 12.96C8.04621 13.5867 7.36624 14.4735 6.99316 15.5" fill="#E3E3E3"/>
<path d="M11.999 18V22" stroke="#191919" stroke-linecap="round" stroke-linejoin="round"/>
<path d="M4.49902 22H19.499" stroke="#191919" stroke-linecap="round" stroke-linejoin="round"/>
<path d="M11.9375 5.93299C12.6284 5.93438 13.3008 6.15683 13.8563 6.56779C14.4117 6.97875 14.8211 7.55666 15.0245 8.21699C15.1852 7.72881 15.2279 7.20948 15.149 6.70162C15.07 6.19376 14.8718 5.71186 14.5705 5.29547C14.2692 4.87909 13.8735 4.5401 13.4158 4.30632C12.9581 4.07254 12.4515 3.95065 11.9375 3.95065C11.4235 3.95065 10.9169 4.07254 10.4592 4.30632C10.0015 4.5401 9.60577 4.87909 9.30448 5.29547C9.0032 5.71186 8.80496 6.19376 8.72604 6.70162C8.64713 7.20948 8.68978 7.72881 8.8505 8.21699C9.05392 7.55666 9.46329 6.97875 10.0187 6.56779C10.5742 6.15683 11.2466 5.93438 11.9375 5.93299Z" fill="#FFDDA1"/>
<path d="M11.9981 13.933C12.6942 13.9337 13.3832 14.0726 14.0252 14.3416C14.6672 14.6106 15.2494 15.0043 15.7381 15.5H16.9941C16.6211 14.4735 15.9411 13.5867 15.0466 12.96C14.152 12.3334 13.0863 11.9972 11.9941 11.9972C10.902 11.9972 9.83624 12.3334 8.94171 12.96C8.04719 13.5867 7.36722 14.4735 6.99414 15.5H8.25414C8.74379 15.0045 9.32675 14.6109 9.96937 14.3419C10.612 14.0729 11.3015 13.934 11.9981 13.933Z" fill="white"/>
<path d="M11.9375 10.5C12.7995 10.5 13.6261 10.1576 14.2356 9.54807C14.8451 8.93857 15.1875 8.11192 15.1875 7.24997C15.1875 6.38802 14.8451 5.56137 14.2356 4.95187C13.6261 4.34238 12.7995 3.99997 11.9375 3.99997C11.0755 3.99997 10.2489 4.34238 9.6394 4.95187C9.02991 5.56137 8.6875 6.38802 8.6875 7.24997C8.6875 8.11192 9.02991 8.93857 9.6394 9.54807C10.2489 10.1576 11.0755 10.5 11.9375 10.5Z" stroke="#191919" stroke-linecap="round" stroke-linejoin="round"/>
<path d="M16.9932 15.5C16.6201 14.4735 15.9401 13.5867 15.0456 12.96C14.1511 12.3334 13.0853 11.9972 11.9932 11.9972C10.901 11.9972 9.83526 12.3334 8.94074 12.96C8.04621 13.5867 7.36624 14.4735 6.99316 15.5" stroke="#191919" stroke-linecap="round" stroke-linejoin="round"/>
</g>
<defs>
<clipPath id="clip0_5303_3310">
<rect width="24" height="24" fill="white"/>
</clipPath>
</defs>
</svg>
