<svg width="24" height="24" viewBox="0 0 24 24" fill="none" xmlns="http://www.w3.org/2000/svg">
<g clip-path="url(#clip0_5303_3362)">
<path d="M17.26 2.67346V18.9334H1.95647C1.7028 18.9334 1.45952 18.8327 1.28014 18.6533C1.10077 18.474 1 18.2307 1 17.977V3.62993C1 3.37626 1.10077 3.13298 1.28014 2.9536C1.45952 2.77424 1.7028 2.67346 1.95647 2.67346H17.26Z" fill="#66E1FF"/>
<path d="M1.95647 2.67346C1.7028 2.67346 1.45952 2.77424 1.28014 2.9536C1.10077 3.13298 1 3.37626 1 3.62993V17.977C1.00118 18.2226 1.09752 18.4581 1.26877 18.6341L17.2285 2.67346H1.95647Z" fill="#C2F3FF"/>
<path d="M17.26 2.67346V18.9334H1.95647C1.7028 18.9334 1.45952 18.8327 1.28014 18.6533C1.10077 18.474 1 18.2307 1 17.977V3.62993C1 3.37626 1.10077 3.13298 1.28014 2.9536C1.45952 2.77424 1.7028 2.67346 1.95647 2.67346H17.26Z" stroke="#191919" stroke-linecap="round" stroke-linejoin="round"/>
<path d="M13.9671 16.5443C13.6098 15.5629 12.9592 14.7152 12.1038 14.1162C11.2482 13.5172 10.2291 13.1959 9.1847 13.1959C8.14031 13.1959 7.1212 13.5172 6.26567 14.1162C5.41014 14.7152 4.75961 15.5629 4.40234 16.5443" fill="#E3E3E3"/>
<path d="M12.2005 8.23065C11.5569 8.50743 10.8639 8.6506 10.1633 8.6515C9.47017 8.65259 8.78405 8.51333 8.14623 8.24209C7.50843 7.97086 6.93215 7.57328 6.45215 7.07332C6.77906 6.51697 7.27134 6.07642 7.86043 5.81305C8.44952 5.54966 9.10609 5.47657 9.73868 5.60392C10.3713 5.73129 10.9484 6.05277 11.3896 6.52359C11.831 6.99441 12.1144 7.59114 12.2005 8.23065Z" fill="#C77F67"/>
<path d="M9.18843 14.4238C9.99161 14.4269 10.7826 14.6207 11.4961 14.9894C12.2097 15.358 12.8254 15.891 13.2926 16.5443H13.9622C13.6049 15.5629 12.9543 14.7152 12.0989 14.1162C11.2433 13.5172 10.2242 13.1959 9.17982 13.1959C8.13543 13.1959 7.11633 13.5172 6.26079 14.1162C5.40526 14.7152 4.75472 15.5629 4.39746 16.5443H5.07464C5.54323 15.8901 6.1606 15.3567 6.87585 14.9881C7.59111 14.6193 8.38375 14.4259 9.18843 14.4238Z" fill="white"/>
<path d="M9.13027 6.77012C9.68229 6.77135 10.224 6.91996 10.6994 7.20061C11.1746 7.48125 11.5665 7.88373 11.8342 8.36647C11.9576 8.32343 12.081 8.28039 12.2005 8.23065C12.1144 7.59114 11.831 6.99441 11.3896 6.52359C10.9484 6.05277 10.3713 5.73129 9.73868 5.60392C9.10609 5.47657 8.44952 5.54966 7.86043 5.81305C7.27134 6.07642 6.77906 6.51697 6.45215 7.07332C6.63436 7.25965 6.83035 7.43199 7.03847 7.58886C7.60804 7.06273 8.35488 6.77042 9.13027 6.77012Z" fill="#E3BFB3"/>
<path d="M13.9671 16.5443C13.6098 15.5629 12.9592 14.7152 12.1038 14.1162C11.2482 13.5172 10.2291 13.1959 9.1847 13.1959C8.14031 13.1959 7.1212 13.5172 6.26567 14.1162C5.41014 14.7152 4.75961 15.5629 4.40234 16.5443" stroke="#191919" stroke-linecap="round" stroke-linejoin="round"/>
<path d="M12.2098 8.23071H12.2002" stroke="#191919" stroke-linecap="round" stroke-linejoin="round"/>
<path d="M12.2005 8.23065C11.5569 8.50743 10.8639 8.6506 10.1633 8.6515C9.47017 8.65259 8.78405 8.51333 8.14623 8.24209C7.50843 7.97086 6.93215 7.57328 6.45215 7.07332C6.77906 6.51697 7.27134 6.07642 7.86043 5.81305C8.44952 5.54966 9.10609 5.47657 9.73868 5.60392C10.3713 5.73129 10.9484 6.05277 11.3896 6.52359C11.831 6.99441 12.1144 7.59114 12.2005 8.23065Z" stroke="#191919" stroke-linecap="round" stroke-linejoin="round"/>
<path d="M12.2386 8.65124C12.2386 9.47568 11.9111 10.2663 11.3281 10.8493C10.7451 11.4323 9.95445 11.7598 9.13002 11.7598C8.30559 11.7598 7.51492 11.4323 6.93195 10.8493C6.34899 10.2663 6.02148 9.47568 6.02148 8.65124C6.02319 8.09642 6.17169 7.55193 6.4519 7.07306C6.9319 7.57303 7.50818 7.9706 8.14599 8.24184C8.78379 8.51307 9.46992 8.65234 10.163 8.65124C10.8636 8.65035 11.5567 8.50717 12.2003 8.23039C12.2276 8.36896 12.2405 8.51001 12.2386 8.65124Z" fill="#FFDDA1" stroke="#191919" stroke-linecap="round" stroke-linejoin="round"/>
<path d="M22.9996 3.62993V17.977C22.9996 18.2307 22.8988 18.474 22.7194 18.6533C22.5401 18.8327 22.2968 18.9334 22.0431 18.9334H17.2607V2.67346H22.0431C22.1687 2.67346 22.2931 2.6982 22.4091 2.74627C22.5252 2.79433 22.6306 2.86478 22.7194 2.9536C22.8083 3.04242 22.8787 3.14786 22.9268 3.26391C22.9748 3.37995 22.9996 3.50433 22.9996 3.62993Z" fill="#C77F67"/>
<path d="M22.0431 2.67346H17.2607V5.70548H22.0431C22.2968 5.70548 22.5401 5.80625 22.7194 5.98562C22.8988 6.165 22.9996 6.40827 22.9996 6.66195V3.62993C22.9996 3.37626 22.8988 3.13298 22.7194 2.9536C22.5401 2.77424 22.2968 2.67346 22.0431 2.67346Z" fill="#E3BFB3"/>
<path d="M22.9996 3.62993V17.977C22.9996 18.2307 22.8988 18.474 22.7194 18.6533C22.5401 18.8327 22.2968 18.9334 22.0431 18.9334H17.2607V2.67346H22.0431C22.1687 2.67346 22.2931 2.6982 22.4091 2.74627C22.5252 2.79433 22.6306 2.86478 22.7194 2.9536C22.8083 3.04242 22.8787 3.14786 22.9268 3.26391C22.9748 3.37995 22.9996 3.50433 22.9996 3.62993Z" stroke="#191919" stroke-linecap="round" stroke-linejoin="round"/>
<path d="M19.1738 16.066H21.0868" stroke="#191919" stroke-linecap="round" stroke-linejoin="round"/>
<path d="M19.1738 14.1531H21.0868" stroke="#191919" stroke-linecap="round" stroke-linejoin="round"/>
<path d="M19.1738 12.2401H21.0868" stroke="#191919" stroke-linecap="round" stroke-linejoin="round"/>
<path d="M20.1303 8.41416C20.6586 8.41416 21.0868 7.98594 21.0868 7.45769C21.0868 6.92945 20.6586 6.50122 20.1303 6.50122C19.602 6.50122 19.1738 6.92945 19.1738 7.45769C19.1738 7.98594 19.602 8.41416 20.1303 8.41416Z" fill="#FFEF5E" stroke="#191919" stroke-linecap="round" stroke-linejoin="round"/>
<path d="M4.82701 18.9354L2.91406 21.3265" stroke="#191919" stroke-linecap="round" stroke-linejoin="round"/>
<path d="M19.1738 18.9354L21.0868 21.3265" stroke="#191919" stroke-linecap="round" stroke-linejoin="round"/>
</g>
<defs>
<clipPath id="clip0_5303_3362">
<rect width="24" height="24" fill="white"/>
</clipPath>
</defs>
</svg>
