<svg width="24" height="24" viewBox="0 0 24 24" fill="none" xmlns="http://www.w3.org/2000/svg">
<g clip-path="url(#clip0_5303_3421)">
<path d="M7.69689 9.13151C8.23072 9.13151 8.75932 9.02637 9.25252 8.82208C9.74571 8.61779 10.1938 8.31836 10.5713 7.94089C10.9488 7.56341 11.2482 7.11528 11.4525 6.62209C11.6568 6.12889 11.7619 5.60029 11.7619 5.06646C11.7619 4.53263 11.6568 4.00402 11.4525 3.51083C11.2482 3.01763 10.9488 2.56951 10.5713 2.19203C10.1938 1.81456 9.74571 1.51513 9.25252 1.31084C8.75932 1.10655 8.23072 1.0014 7.69689 1.0014C6.61877 1.0014 5.58481 1.42969 4.82246 2.19203C4.06012 2.95438 3.63184 3.98834 3.63184 5.06646C3.63184 6.14458 4.06012 7.17854 4.82246 7.94089C5.58481 8.70323 6.61877 9.13151 7.69689 9.13151Z" fill="#E3E3E3"/>
<path d="M1 17.2616C1 15.4859 1.7054 13.7829 2.96103 12.5273C4.21666 11.2716 5.91966 10.5662 7.69538 10.5662C9.47111 10.5662 11.1741 11.2716 12.4297 12.5273C13.6854 13.7829 14.3908 15.4859 14.3908 17.2616H1Z" fill="#E3E3E3"/>
<path d="M7.69689 3.39261C8.56337 3.39489 9.40632 3.67476 10.1021 4.19118C10.7979 4.70759 11.3099 5.43337 11.563 6.26206C11.6893 5.87564 11.7562 5.47296 11.7619 5.06646C11.7619 3.98834 11.3337 2.95438 10.5713 2.19203C9.80897 1.42969 8.77501 1.0014 7.69689 1.0014C6.61877 1.0014 5.58481 1.42969 4.82246 2.19203C4.06012 2.95438 3.63184 3.98834 3.63184 5.06646C3.6373 5.47276 3.70438 5.87588 3.83078 6.26206C4.0839 5.43337 4.59589 4.70759 5.29168 4.19118C5.98746 3.67476 6.83041 3.39489 7.69689 3.39261Z" fill="white"/>
<path d="M7.69538 12.9574C9.04994 12.9587 10.3723 13.3707 11.4877 14.1392C12.6032 14.9077 13.4594 15.9964 13.9431 17.2616H14.3908C14.3908 15.4859 13.6854 13.7829 12.4297 12.5273C11.1741 11.2716 9.47111 10.5662 7.69538 10.5662C5.91966 10.5662 4.21666 11.2716 2.96103 12.5273C1.7054 13.7829 1 15.4859 1 17.2616H1.44763C1.9314 15.9964 2.78756 14.9077 3.90303 14.1392C5.0185 13.3707 6.34083 12.9587 7.69538 12.9574Z" fill="white"/>
<path d="M7.69689 9.13151C8.23072 9.13151 8.75932 9.02637 9.25252 8.82208C9.74571 8.61779 10.1938 8.31836 10.5713 7.94089C10.9488 7.56341 11.2482 7.11528 11.4525 6.62209C11.6568 6.12889 11.7619 5.60029 11.7619 5.06646C11.7619 4.53263 11.6568 4.00402 11.4525 3.51083C11.2482 3.01763 10.9488 2.56951 10.5713 2.19203C10.1938 1.81456 9.74571 1.51513 9.25252 1.31084C8.75932 1.10655 8.23072 1.0014 7.69689 1.0014C6.61877 1.0014 5.58481 1.42969 4.82246 2.19203C4.06012 2.95438 3.63184 3.98834 3.63184 5.06646C3.63184 6.14458 4.06012 7.17854 4.82246 7.94089C5.58481 8.70323 6.61877 9.13151 7.69689 9.13151Z" stroke="#191919" stroke-linecap="round" stroke-linejoin="round"/>
<path d="M10.5648 17.2616H1C0.9997 15.7875 1.48591 14.3545 2.3832 13.1849C3.28048 12.0153 4.53868 11.1745 5.96259 10.793C7.3865 10.4115 8.89652 10.5106 10.2584 11.0749C11.6202 11.6392 12.7578 12.6371 13.4945 13.9139" stroke="#191919" stroke-linecap="round" stroke-linejoin="round"/>
<path d="M22.4072 14.9833L15.1073 22.2812L11.5205 22.9986L12.2379 19.4118L19.5378 12.1138C19.7254 11.9256 19.9484 11.7763 20.1938 11.6745C20.4393 11.5726 20.7024 11.5201 20.9682 11.5201C21.2339 11.5201 21.4971 11.5726 21.7425 11.6745C21.988 11.7763 22.2109 11.9256 22.3986 12.1138L22.4072 12.1215C22.7866 12.501 22.9998 13.0157 22.9998 13.5524C22.9998 14.089 22.7866 14.6037 22.4072 14.9833Z" fill="#FFBC44" stroke="#191919" stroke-linecap="round" stroke-linejoin="round"/>
</g>
<defs>
<clipPath id="clip0_5303_3421">
<rect width="24" height="24" fill="white"/>
</clipPath>
</defs>
</svg>
