<svg width="24" height="24" viewBox="0 0 24 24" fill="none" xmlns="http://www.w3.org/2000/svg">
<g clip-path="url(#clip0_5303_3252)">
<path d="M1.95652 23C1.70283 23 1.45954 22.8993 1.28016 22.7199C1.10078 22.5405 1 22.2972 1 22.0435V8.93918C0.999992 8.78489 1.03731 8.63289 1.10876 8.49615C1.18021 8.3594 1.28369 8.24197 1.41035 8.15387L11.4538 1.17127C11.6141 1.05977 11.8048 1 12 1C12.1952 1 12.3859 1.05977 12.5462 1.17127L22.5897 8.15387C22.7163 8.24197 22.8198 8.3594 22.8912 8.49615C22.9627 8.63289 23 8.78489 23 8.93918V22.0435C23 22.2972 22.8992 22.5405 22.7198 22.7199C22.5405 22.8993 22.2971 23 22.0435 23H1.95652Z" fill="#C2F3FF"/>
<path d="M22.5897 8.1576L12.5462 1.17499C12.3859 1.06349 12.1952 1.00372 12 1.00372C11.8048 1.00372 11.6141 1.06349 11.4538 1.17499L1.41035 8.1576C1.28355 8.24579 1.18 8.36337 1.10854 8.50029C1.03708 8.63722 0.99984 8.78941 1 8.94386V12.2544C0.99984 12.0999 1.03708 11.9478 1.10854 11.8108C1.18 11.6739 1.28355 11.5564 1.41035 11.4682L11.4538 4.48551C11.6141 4.37401 11.8048 4.31425 12 4.31425C12.1952 4.31425 12.3859 4.37401 12.5462 4.48551L22.5897 11.4682C22.7165 11.5564 22.82 11.6739 22.8914 11.8108C22.9629 11.9478 23.0002 12.0999 23 12.2544V8.94386C23.0002 8.78941 22.9629 8.63722 22.8914 8.50029C22.82 8.36337 22.7165 8.24579 22.5897 8.1576Z" fill="#66E1FF"/>
<path d="M1.95652 23C1.70283 23 1.45954 22.8993 1.28016 22.7199C1.10078 22.5405 1 22.2972 1 22.0435V8.93918C0.999992 8.78489 1.03731 8.63289 1.10876 8.49615C1.18021 8.3594 1.28369 8.24197 1.41035 8.15387L11.4538 1.17127C11.6141 1.05977 11.8048 1 12 1C12.1952 1 12.3859 1.05977 12.5462 1.17127L22.5897 8.15387C22.7163 8.24197 22.8198 8.3594 22.8912 8.49615C22.9627 8.63289 23 8.78489 23 8.93918V22.0435C23 22.2972 22.8992 22.5405 22.7198 22.7199C22.5405 22.8993 22.2971 23 22.0435 23H1.95652Z" stroke="#191919" stroke-linecap="round" stroke-linejoin="round"/>
<path d="M16.8377 19.6523C16.4804 18.6708 15.8298 17.823 14.9743 17.224C14.1187 16.625 13.0995 16.3037 12.0551 16.3037C11.0106 16.3037 9.99146 16.625 9.13588 17.224C8.28031 17.823 7.62974 18.6708 7.27246 19.6523" fill="#E3E3E3"/>
<path d="M12.0589 17.8636C12.7898 17.8659 13.5115 18.0271 14.174 18.3359C14.8363 18.6448 15.4238 19.094 15.8955 19.6523H16.8377C16.4804 18.6708 15.8298 17.823 14.9743 17.224C14.1187 16.625 13.0995 16.3037 12.0551 16.3037C11.0106 16.3037 9.99146 16.625 9.13588 17.224C8.28031 17.823 7.62974 18.6708 7.27246 19.6523H8.21846C8.69104 19.094 9.27917 18.645 9.94222 18.3361C10.6053 18.0273 11.3274 17.8661 12.0589 17.8636Z" fill="white"/>
<path d="M16.8377 19.6523C16.4804 18.6708 15.8298 17.823 14.9743 17.224C14.1187 16.625 13.0995 16.3037 12.0551 16.3037C11.0106 16.3037 9.99146 16.625 9.13588 17.224C8.28031 17.823 7.62974 18.6708 7.27246 19.6523" stroke="#191919" stroke-linecap="round" stroke-linejoin="round"/>
<path d="M15.5203 11.2251V11.799C15.3768 11.799 15.2429 11.7895 15.0994 11.7799C13.8984 11.6691 12.7873 11.0965 12.0003 10.1825C11.2094 11.0968 10.0954 11.6692 8.89157 11.7799C8.7481 11.7895 8.61418 11.799 8.4707 11.799V11.2251C8.4707 10.7623 8.56188 10.3039 8.73901 9.87622C8.91615 9.44858 9.17578 9.06001 9.50309 8.7327C9.8304 8.4054 10.2189 8.14577 10.6466 7.96863C11.0743 7.79149 11.5326 7.70032 11.9955 7.70032C12.4583 7.70032 12.9167 7.79149 13.3444 7.96863C13.772 8.14577 14.1606 8.4054 14.4879 8.7327C14.8152 9.06001 15.0748 9.44858 15.252 9.87622C15.4291 10.3039 15.5203 10.7623 15.5203 11.2251Z" fill="#C77F67"/>
<path d="M12.0003 7.69565C11.5366 7.69528 11.0775 7.78631 10.6491 7.96355C10.2208 8.1408 9.83147 8.40077 9.50365 8.7286C9.17582 9.05642 8.91585 9.44566 8.73861 9.87406C8.56136 10.3025 8.47033 10.7616 8.4707 11.2252V11.7991C8.51183 11.7991 8.55105 11.7991 8.59027 11.7934C8.77899 11.033 9.2168 10.3576 9.83394 9.87492C10.4511 9.39222 11.212 9.12998 11.9955 9.12998C12.779 9.12998 13.5399 9.39222 14.157 9.87492C14.7742 10.3576 15.212 11.033 15.4007 11.7934C15.4399 11.7934 15.4791 11.7991 15.5203 11.7991V11.2252C15.5209 10.7624 15.4304 10.3039 15.2538 9.87597C15.0772 9.44809 14.8181 9.05917 14.4912 8.73142C14.1644 8.40367 13.7761 8.1435 13.3488 7.96579C12.9214 7.78807 12.4631 7.69628 12.0003 7.69565Z" fill="#E3BFB3"/>
<path d="M15.5203 11.2251V11.799C15.3768 11.799 15.2429 11.7895 15.0994 11.7799C13.8984 11.6691 12.7873 11.0965 12.0003 10.1825C11.2094 11.0968 10.0954 11.6692 8.89157 11.7799C8.7481 11.7895 8.61418 11.799 8.4707 11.799V11.2251C8.4707 10.7623 8.56188 10.3039 8.73901 9.87622C8.91615 9.44858 9.17578 9.06001 9.50309 8.7327C9.8304 8.4054 10.2189 8.14577 10.6466 7.96863C11.0743 7.79149 11.5326 7.70032 11.9955 7.70032C12.4583 7.70032 12.9167 7.79149 13.3444 7.96863C13.772 8.14577 14.1606 8.4054 14.4879 8.7327C14.8152 9.06001 15.0748 9.44858 15.252 9.87622C15.4291 10.3039 15.5203 10.7623 15.5203 11.2251Z" stroke="#191919" stroke-linecap="round" stroke-linejoin="round"/>
<path d="M8.47075 11.7991V12.2487C8.49911 13.1262 8.27324 13.9932 7.82031 14.7452" stroke="#191919" stroke-linecap="round" stroke-linejoin="round"/>
<path d="M15.5213 11.7991V12.2487C15.4907 13.1277 15.7202 13.9963 16.1813 14.7452" stroke="#191919" stroke-linecap="round" stroke-linejoin="round"/>
<path d="M15.0994 11.7801C15.065 12.5802 14.7229 13.3361 14.1446 13.8901C13.5663 14.4441 12.7964 14.7533 11.9955 14.7533C11.1946 14.7533 10.4247 14.4441 9.8464 13.8901C9.26808 13.3361 8.92602 12.5802 8.8916 11.7801C10.0954 11.6694 11.2094 11.0969 12.0003 10.1827C12.7873 11.0966 13.8984 11.6693 15.0994 11.7801Z" fill="#FFDDA1" stroke="#191919" stroke-linecap="round" stroke-linejoin="round"/>
</g>
<defs>
<clipPath id="clip0_5303_3252">
<rect width="24" height="24" fill="white"/>
</clipPath>
</defs>
</svg>
