<svg width="24" height="24" viewBox="0 0 24 24" fill="none" xmlns="http://www.w3.org/2000/svg">
<g clip-path="url(#clip0_5303_3434)">
<path d="M23 15.3478L22.1975 11.3304C22.1533 11.1142 22.0358 10.9199 21.8648 10.7805C21.6938 10.641 21.4798 10.565 21.2591 10.5652H2.74087C2.5202 10.565 2.30622 10.641 2.13521 10.7805C1.96419 10.9199 1.84666 11.1142 1.80252 11.3304L1 15.3478V19.1739H23V15.3478Z" fill="#C77F67" stroke="#191919" stroke-linecap="round" stroke-linejoin="round"/>
<path d="M20.13 17.7391V5.78261H11.0985C10.7898 5.79289 10.4847 5.71342 10.2202 5.55384C9.95569 5.39425 9.74313 5.1614 9.60827 4.88348C9.48091 4.58287 9.26786 4.32642 8.9957 4.14611C8.72354 3.96581 8.40431 3.86962 8.07784 3.86957H4.3474C4.22056 3.86957 4.09891 3.91996 4.00922 4.00965C3.91953 4.09934 3.86914 4.22099 3.86914 4.34783V17.7391" fill="#FFEF5E"/>
<path d="M11.0985 5.78261C10.7898 5.79289 10.4847 5.71342 10.2202 5.55384C9.95569 5.39425 9.74313 5.1614 9.60827 4.88348C9.48091 4.58287 9.26786 4.32642 8.9957 4.14611C8.72354 3.96581 8.40431 3.86962 8.07784 3.86957H4.3474C4.22056 3.86957 4.09891 3.91996 4.00922 4.00965C3.91953 4.09934 3.86914 4.22099 3.86914 4.34783V17.7391H4.99784L16.9544 5.78261H11.0985Z" fill="#FFF9BF"/>
<path d="M20.13 13.4348V5.78261H11.0985C10.7898 5.79289 10.4847 5.71342 10.2202 5.55384C9.95569 5.39425 9.74313 5.1614 9.60827 4.88348C9.48091 4.58287 9.26786 4.32642 8.9957 4.14611C8.72354 3.96581 8.40431 3.86962 8.07784 3.86957H4.3474C4.22056 3.86957 4.09891 3.91996 4.00922 4.00965C3.91953 4.09934 3.86914 4.22099 3.86914 4.34783V13.4348" stroke="#191919" stroke-linecap="round" stroke-linejoin="round"/>
<path d="M18.219 3.86956H12.0437C11.7278 3.86941 11.4185 3.77939 11.1519 3.61002C10.8853 3.44064 10.6724 3.1989 10.5381 2.91303C10.404 2.62776 10.1917 2.38641 9.92588 2.21708C9.66003 2.04774 9.35155 1.95738 9.03635 1.95651H5.78418" stroke="#191919" stroke-linecap="round" stroke-linejoin="round"/>
<path d="M12.0001 11.0435C12.444 11.0435 12.8698 10.8671 13.1837 10.5532C13.4976 10.2393 13.674 9.81351 13.674 9.36956C13.674 8.92561 13.4976 8.49985 13.1837 8.18593C12.8698 7.87201 12.444 7.69565 12.0001 7.69565C11.5561 7.69565 11.1304 7.87201 10.8164 8.18593C10.5025 8.49985 10.3262 8.92561 10.3262 9.36956C10.3262 9.81351 10.5025 10.2393 10.8164 10.5532C11.1304 10.8671 11.5561 11.0435 12.0001 11.0435Z" fill="#FFDDA1" stroke="#191919" stroke-linecap="round" stroke-linejoin="round"/>
<path d="M15.349 14.3913C15.1593 13.6474 14.7272 12.9878 14.121 12.5168C13.5147 12.0457 12.7689 11.79 12.0011 11.79C11.2334 11.79 10.4876 12.0457 9.88133 12.5168C9.27509 12.9878 8.84302 13.6474 8.65332 14.3913H15.349Z" fill="#66E1FF" stroke="#191919" stroke-linecap="round" stroke-linejoin="round"/>
<path d="M18.2174 15.3478C18.0257 15.3476 17.8359 15.3859 17.6592 15.4603C17.4825 15.5348 17.3225 15.6439 17.1888 15.7812C17.055 15.9186 16.9501 16.0813 16.8804 16.2599C16.8106 16.4385 16.7774 16.6292 16.7826 16.8209C16.7696 17.2037 16.6053 17.5657 16.3258 17.8275C16.0462 18.0893 15.6742 18.2295 15.2914 18.2174H8.70765C8.32499 18.2293 7.95324 18.0889 7.67389 17.8272C7.39454 17.5654 7.23037 17.2035 7.21739 16.8209C7.2225 16.6293 7.18917 16.4386 7.11936 16.2601C7.04954 16.0815 6.94467 15.9188 6.81092 15.7815C6.67718 15.6442 6.51728 15.5351 6.34066 15.4606C6.16404 15.3861 5.97429 15.3478 5.78261 15.3478H1V21.087C1 21.3407 1.10078 21.584 1.28016 21.7633C1.45954 21.9427 1.70284 22.0435 1.95652 22.0435H22.0435C22.2972 22.0435 22.5405 21.9427 22.7198 21.7633C22.8992 21.584 23 21.3407 23 21.087V15.3478H18.2174Z" fill="#E3BFB3" stroke="#191919" stroke-linecap="round" stroke-linejoin="round"/>
</g>
<defs>
<clipPath id="clip0_5303_3434">
<rect width="24" height="24" fill="white"/>
</clipPath>
</defs>
</svg>
