<svg width="24" height="24" viewBox="0 0 24 24" fill="none" xmlns="http://www.w3.org/2000/svg">
<g clip-path="url(#clip0_5303_3243)">
<path d="M3.3916 2.43478C3.3916 2.05425 3.54277 1.68931 3.81184 1.42024C4.08091 1.15116 4.44586 1 4.82638 1H19.6525V9.13043H3.3916V2.43478Z" fill="white"/>
<path d="M20.1307 3.86954C20.2576 3.86954 20.3792 3.91992 20.4689 4.00962C20.5586 4.09931 20.609 4.22095 20.609 4.3478V22.5217C20.609 22.6486 20.5586 22.7702 20.4689 22.8599C20.3792 22.9496 20.2576 23 20.1307 23H5.30464C4.79774 22.9985 4.31203 22.7964 3.95359 22.438C3.59515 22.0795 3.39312 21.5938 3.3916 21.0869V2.43475C3.3916 2.81528 3.54277 3.18022 3.81184 3.4493C4.08091 3.71837 4.44586 3.86954 4.82638 3.86954H20.1307Z" fill="#66E1FF" stroke="#191919" stroke-linecap="round" stroke-linejoin="round"/>
<path d="M3.3916 2.43478C3.3916 2.05425 3.54277 1.68931 3.81184 1.42024C4.08091 1.15116 4.44586 1 4.82638 1H19.6525" stroke="#191919" stroke-linecap="round" stroke-linejoin="round"/>
<path d="M13.7737 16.0078C15.0164 16.1333 16.2675 15.8717 17.3559 15.2589C17.4166 15.2247 17.4691 15.1777 17.5097 15.1212C17.5504 15.0647 17.5782 14.9999 17.5912 14.9315C17.6042 14.8631 17.6022 14.7926 17.5851 14.7251C17.5681 14.6576 17.5365 14.5946 17.4926 14.5405C17.0785 14.0546 16.7915 13.4137 16.6643 11.5437C16.4242 7.98931 14.0262 6.73914 11.9668 6.73914C9.90743 6.73914 7.51038 7.98931 7.26934 11.5437C7.14308 13.4137 6.85517 14.0546 6.44099 14.5405C6.39709 14.5946 6.36552 14.6576 6.3485 14.7251C6.33147 14.7926 6.3294 14.8631 6.34243 14.9315C6.35545 14.9999 6.38326 15.0647 6.42391 15.1212C6.46457 15.1777 6.51708 15.2247 6.57778 15.2589C7.66628 15.8713 8.91727 16.1328 10.1599 16.0078" fill="#C2F3FF"/>
<path d="M6.57724 15.2579C6.74177 15.3536 6.90629 15.4377 7.07177 15.5152C7.17411 14.9939 7.24011 14.4659 7.26881 13.935C7.50985 10.3806 9.9069 9.13044 11.9663 9.13044C14.0257 9.13044 16.4237 10.3806 16.6638 13.935C16.6925 14.4659 16.7594 14.9939 16.8608 15.5152C17.0301 15.4387 17.1956 15.3526 17.3563 15.2579C17.4168 15.2237 17.469 15.1767 17.5095 15.1202C17.55 15.0636 17.5776 14.999 17.5905 14.9307C17.6035 14.8624 17.6014 14.7922 17.5844 14.7248C17.5674 14.6574 17.5359 14.5945 17.4921 14.5405C17.0779 14.0546 16.791 13.4137 16.6638 11.5437C16.4237 7.98931 14.0257 6.73914 11.9663 6.73914C9.9069 6.73914 7.50985 7.98931 7.26881 11.5437C7.14255 13.4137 6.85464 14.0546 6.44046 14.5405C6.39673 14.5946 6.36531 14.6575 6.34838 14.7249C6.33145 14.7924 6.32943 14.8627 6.34245 14.931C6.35547 14.9992 6.38322 15.0639 6.42377 15.1203C6.46432 15.1768 6.51669 15.2238 6.57724 15.2579Z" fill="white"/>
<path d="M13.7737 16.0078C15.0164 16.1333 16.2675 15.8717 17.3559 15.2589C17.4166 15.2247 17.4691 15.1777 17.5097 15.1212C17.5504 15.0647 17.5782 14.9999 17.5912 14.9315C17.6042 14.8631 17.6022 14.7926 17.5851 14.7251C17.5681 14.6576 17.5365 14.5946 17.4926 14.5405C17.0785 14.0546 16.7915 13.4137 16.6643 11.5437C16.4242 7.98931 14.0262 6.73914 11.9668 6.73914C9.90743 6.73914 7.51038 7.98931 7.26934 11.5437C7.14308 13.4137 6.85517 14.0546 6.44099 14.5405C6.39709 14.5946 6.36552 14.6576 6.3485 14.7251C6.33147 14.7926 6.3294 14.8631 6.34243 14.9315C6.35545 14.9999 6.38326 15.0647 6.42391 15.1212C6.46457 15.1777 6.51708 15.2247 6.57778 15.2589C7.66628 15.8713 8.91727 16.1328 10.1599 16.0078" stroke="#191919" stroke-linecap="round" stroke-linejoin="round"/>
<path d="M17.0767 18.4241C16.2608 18.0874 15.2957 17.7421 14.2464 17.3537C14.1069 17.3031 13.9863 17.211 13.9008 17.0897C13.8153 16.9685 13.769 16.8239 13.7681 16.6755V15.3555C13.768 15.2549 13.789 15.1553 13.8297 15.0632C13.8704 14.9711 13.9299 14.8886 14.0044 14.8209C14.2737 14.5752 14.4884 14.2757 14.6344 13.9416C14.7804 13.6076 14.8545 13.2465 14.8518 12.882V11.8298C14.852 11.6271 14.787 11.4297 14.6665 11.2668C14.5459 11.1039 14.3762 10.984 14.1823 10.9249C13.4695 10.7037 12.8198 10.3154 12.2874 9.79242C12.1996 9.7094 12.0834 9.66315 11.9627 9.66315C11.8419 9.66315 11.7257 9.7094 11.6379 9.79242C11.1035 10.3151 10.4519 10.7025 9.73731 10.9221C9.54342 10.9812 9.37367 11.101 9.2531 11.2639C9.13254 11.4269 9.06756 11.6243 9.06774 11.8269V12.8791C9.0653 13.2436 9.13948 13.6046 9.28547 13.9386C9.43147 14.2726 9.64602 14.5722 9.91522 14.818C9.98969 14.8857 10.0492 14.9683 10.0899 15.0604C10.1306 15.1524 10.1515 15.252 10.1515 15.3527V16.6727C10.151 16.8205 10.1054 16.9646 10.0208 17.0858C9.93615 17.207 9.81657 17.2994 9.678 17.3509C8.62583 17.7392 7.66453 18.0845 6.84766 18.4212" fill="white"/>
<path d="M17.0767 18.4241C16.2608 18.0874 15.2957 17.7421 14.2464 17.3537C14.1069 17.3031 13.9863 17.211 13.9008 17.0897C13.8153 16.9685 13.769 16.8239 13.7681 16.6755V15.3555C13.768 15.2549 13.789 15.1553 13.8297 15.0632C13.8704 14.9711 13.9299 14.8886 14.0044 14.8209C14.2737 14.5752 14.4884 14.2757 14.6344 13.9416C14.7804 13.6076 14.8545 13.2465 14.8518 12.882V11.8298C14.852 11.6271 14.787 11.4297 14.6665 11.2668C14.5459 11.1039 14.3762 10.984 14.1823 10.9249C13.4695 10.7037 12.8198 10.3154 12.2874 9.79242C12.1996 9.7094 12.0834 9.66315 11.9627 9.66315C11.8419 9.66315 11.7257 9.7094 11.6379 9.79242C11.1035 10.3151 10.4519 10.7025 9.73731 10.9221C9.54342 10.9812 9.37367 11.101 9.2531 11.2639C9.13254 11.4269 9.06756 11.6243 9.06774 11.8269V12.8791C9.0653 13.2436 9.13948 13.6046 9.28547 13.9386C9.43147 14.2726 9.64602 14.5722 9.91522 14.818C9.98969 14.8857 10.0492 14.9683 10.0899 15.0604C10.1306 15.1524 10.1515 15.252 10.1515 15.3527V16.6727C10.151 16.8205 10.1054 16.9646 10.0208 17.0858C9.93615 17.207 9.81657 17.2994 9.678 17.3509C8.62583 17.7392 7.66453 18.0845 6.84766 18.4212" stroke="#191919" stroke-linecap="round" stroke-linejoin="round"/>
</g>
<defs>
<clipPath id="clip0_5303_3243">
<rect width="24" height="24" fill="white"/>
</clipPath>
</defs>
</svg>
