<svg width="24" height="24" viewBox="0 0 24 24" fill="none" xmlns="http://www.w3.org/2000/svg">
<g clip-path="url(#clip0_5303_3352)">
<path d="M7.69677 9.13063C8.23058 9.13063 8.75917 9.02549 9.25235 8.8212C9.74553 8.61692 10.1936 8.3175 10.5711 7.94004C10.9486 7.56257 11.248 7.11446 11.4523 6.62128C11.6566 6.1281 11.7617 5.59951 11.7617 5.0657C11.7617 4.53188 11.6566 4.00329 11.4523 3.51011C11.248 3.01693 10.9486 2.56882 10.5711 2.19135C10.1936 1.81389 9.74553 1.51447 9.25235 1.31019C8.75917 1.10591 8.23058 1.00076 7.69677 1.00076C6.61868 1.00076 5.58475 1.42903 4.82243 2.19135C4.0601 2.95368 3.63184 3.98761 3.63184 5.0657C3.63184 6.14378 4.0601 7.17772 4.82243 7.94004C5.58475 8.70236 6.61868 9.13063 7.69677 9.13063Z" fill="#E3E3E3"/>
<path d="M1 17.2605C1 15.4848 1.70538 13.7819 2.96097 12.5263C4.21656 11.2707 5.91951 10.5653 7.69518 10.5653C9.47086 10.5653 11.1738 11.2707 12.4294 12.5263C13.685 13.7819 14.3904 15.4848 14.3904 17.2605H1Z" fill="#E3E3E3"/>
<path d="M7.69677 3.3919C8.56323 3.39418 9.40615 3.67404 10.1019 4.19044C10.7977 4.70684 11.3097 5.4326 11.5628 6.26126C11.689 5.87486 11.756 5.47219 11.7617 5.0657C11.7617 3.98761 11.3334 2.95368 10.5711 2.19135C9.80879 1.42903 8.77486 1.00076 7.69677 1.00076C6.61868 1.00076 5.58475 1.42903 4.82243 2.19135C4.0601 2.95368 3.63184 3.98761 3.63184 5.0657C3.6373 5.47199 3.70438 5.8751 3.83078 6.26126C4.08388 5.4326 4.59587 4.70684 5.29163 4.19044C5.98739 3.67404 6.83031 3.39418 7.69677 3.3919Z" fill="white"/>
<path d="M7.69518 12.9564C9.0497 12.9577 10.372 13.3697 11.4874 14.1382C12.6029 14.9066 13.459 15.9953 13.9427 17.2605H14.3904C14.3904 15.4848 13.685 13.7819 12.4294 12.5263C11.1738 11.2707 9.47086 10.5653 7.69518 10.5653C5.91951 10.5653 4.21656 11.2707 2.96097 12.5263C1.70538 13.7819 1 15.4848 1 17.2605H1.44762C1.93138 15.9953 2.7875 14.9066 3.90294 14.1382C5.01838 13.3697 6.34067 12.9577 7.69518 12.9564Z" fill="white"/>
<path d="M7.69677 9.13063C8.23058 9.13063 8.75917 9.02549 9.25235 8.8212C9.74553 8.61692 10.1936 8.3175 10.5711 7.94004C10.9486 7.56257 11.248 7.11446 11.4523 6.62128C11.6566 6.1281 11.7617 5.59951 11.7617 5.0657C11.7617 4.53188 11.6566 4.00329 11.4523 3.51011C11.248 3.01693 10.9486 2.56882 10.5711 2.19135C10.1936 1.81389 9.74553 1.51447 9.25235 1.31019C8.75917 1.10591 8.23058 1.00076 7.69677 1.00076C6.61868 1.00076 5.58475 1.42903 4.82243 2.19135C4.0601 2.95368 3.63184 3.98761 3.63184 5.0657C3.63184 6.14378 4.0601 7.17772 4.82243 7.94004C5.58475 8.70236 6.61868 9.13063 7.69677 9.13063Z" stroke="#191919" stroke-linecap="round" stroke-linejoin="round"/>
<path d="M8.65164 17.2605H1C0.999767 16.1309 1.28534 15.0196 1.83014 14.03C2.37494 13.0405 3.16125 12.2049 4.11587 11.601C5.0705 10.9971 6.16239 10.6446 7.28992 10.5762C8.41745 10.5078 9.54395 10.7258 10.5645 11.2099" stroke="#191919" stroke-linecap="round" stroke-linejoin="round"/>
<path d="M17.6067 22.8519C17.562 22.8985 17.5084 22.9355 17.4491 22.9609C17.3897 22.9862 17.3259 22.9992 17.2614 22.9992C17.1969 22.9992 17.133 22.9862 17.0737 22.9609C17.0143 22.9355 16.9607 22.8985 16.9161 22.8519L12.3701 18.1098C11.9406 17.6802 11.6572 17.1264 11.5599 16.5268C11.4625 15.9273 11.5563 15.3123 11.8278 14.7689C12.0331 14.3589 12.3328 14.0036 12.7023 13.7321C13.0717 13.4607 13.5004 13.2808 13.953 13.2074C14.4055 13.134 14.8691 13.1692 15.3054 13.3099C15.7417 13.4507 16.1384 13.6931 16.4627 14.0171L17.2614 14.8158L18.06 14.0171C18.3843 13.6929 18.7809 13.4503 19.2173 13.3094C19.6537 13.1685 20.1173 13.1334 20.5699 13.2068C21.0226 13.2802 21.4513 13.4601 21.8207 13.7317C22.1902 14.0033 22.4899 14.3588 22.695 14.7689C22.9665 15.3123 23.0602 15.9273 22.9629 16.5268C22.8656 17.1264 22.5821 17.6802 22.1527 18.1098L17.6067 22.8519Z" fill="#FF808C"/>
<path d="M22.6935 14.7737C22.4885 14.3634 22.1889 14.0078 21.8194 13.736C21.45 13.4643 21.0212 13.2843 20.5685 13.2109C20.1158 13.1375 19.6521 13.1727 19.2157 13.3137C18.7793 13.4547 18.3826 13.6975 18.0585 14.0219L17.2598 14.8206L16.4612 14.0219C15.9954 13.5546 15.3837 13.2608 14.7277 13.1894C14.0718 13.1179 13.4112 13.2731 12.8557 13.6292C12.3002 13.9852 11.8833 14.5206 11.6742 15.1464C11.4652 15.7723 11.4766 16.4508 11.7067 17.0692C12.3883 17.8671 13.2425 18.4997 14.2045 18.919C15.1665 19.3384 16.2113 19.5336 17.2598 19.49C18.3083 19.5339 19.353 19.3387 20.3149 18.9193C21.2768 18.4999 22.1307 17.8673 22.8121 17.0692C22.9503 16.6988 23.0112 16.304 22.9908 15.9091C22.9704 15.5143 22.8692 15.1279 22.6935 14.7737Z" fill="#FFBFC5"/>
<path d="M17.6067 22.8519C17.562 22.8985 17.5084 22.9355 17.4491 22.9609C17.3897 22.9862 17.3259 22.9992 17.2614 22.9992C17.1969 22.9992 17.133 22.9862 17.0737 22.9609C17.0143 22.9355 16.9607 22.8985 16.9161 22.8519L12.3701 18.1098C11.9406 17.6802 11.6572 17.1264 11.5599 16.5268C11.4625 15.9273 11.5563 15.3123 11.8278 14.7689C12.0331 14.3589 12.3328 14.0036 12.7023 13.7321C13.0717 13.4607 13.5004 13.2808 13.953 13.2074C14.4055 13.134 14.8691 13.1692 15.3054 13.3099C15.7417 13.4507 16.1384 13.6931 16.4627 14.0171L17.2614 14.8158L18.06 14.0171C18.3843 13.6929 18.7809 13.4503 19.2173 13.3094C19.6537 13.1685 20.1173 13.1334 20.5699 13.2068C21.0226 13.2802 21.4513 13.4601 21.8207 13.7317C22.1902 14.0033 22.4899 14.3588 22.695 14.7689C22.9665 15.3123 23.0602 15.9273 22.9629 16.5268C22.8656 17.1264 22.5821 17.6802 22.1527 18.1098L17.6067 22.8519Z" stroke="#191919" stroke-linecap="round" stroke-linejoin="round"/>
</g>
<defs>
<clipPath id="clip0_5303_3352">
<rect width="24" height="24" fill="white"/>
</clipPath>
</defs>
</svg>
