<svg width="24" height="24" viewBox="0 0 24 24" fill="none" xmlns="http://www.w3.org/2000/svg">
<g clip-path="url(#clip0_5303_3396)">
<path d="M15.2985 4.91001C15.1654 5.68853 14.7613 6.39492 14.1577 6.9042C13.554 7.41348 12.7896 7.69283 11.9998 7.69283C11.21 7.69283 10.4457 7.41348 9.84197 6.9042C9.23829 6.39492 8.8342 5.68853 8.70117 4.91001C9.32844 4.90038 9.94658 4.75826 10.5151 4.49297C11.0836 4.22768 11.5895 3.8452 11.9998 3.37064C12.4101 3.8452 12.9161 4.22768 13.4846 4.49297C14.0531 4.75826 14.6712 4.90038 15.2985 4.91001Z" fill="#E3E3E3"/>
<path d="M17.2586 18.2193H14.4285L13.4246 23H10.5562L9.55223 18.2193H6.74121L8.47181 11.928C8.67444 11.0715 9.18056 10.3174 9.89644 9.80539L11.9999 13.1614L14.1225 9.82451C14.8323 10.3304 15.3322 11.0787 15.528 11.928L17.2586 18.2193Z" fill="#E3E3E3"/>
<path d="M15.3472 4.35546C15.346 4.54129 15.33 4.72672 15.2994 4.91002C14.6721 4.90039 14.054 4.75827 13.4855 4.49298C12.917 4.22769 12.411 3.84522 12.0007 3.37065C11.5904 3.84522 11.0845 4.22769 10.516 4.49298C9.9475 4.75827 9.32936 4.90039 8.70209 4.91002C8.62401 4.45296 8.64175 3.98467 8.75421 3.53483C8.86667 3.085 9.07138 2.66344 9.35536 2.2969C9.63934 1.93036 9.9964 1.62684 10.4039 1.40558C10.8114 1.18432 11.2604 1.05015 11.7224 1.01159C12.1845 0.973033 12.6496 1.03092 13.0881 1.18157C13.5266 1.33223 13.929 1.57238 14.2698 1.88677C14.6106 2.20117 14.8824 2.58297 15.0679 3.00794C15.2533 3.43291 15.3484 3.89178 15.3472 4.35546Z" fill="#808080"/>
<path d="M14.1236 9.82449L12.0009 13.1614L9.89746 9.80537C10.5156 9.36676 11.2556 9.13275 12.0136 9.13618C12.7715 9.13961 13.5094 9.38031 14.1236 9.82449Z" fill="#808080"/>
<path d="M15.3472 4.35546C15.346 4.54129 15.33 4.72672 15.2994 4.91002C15.2735 4.91157 15.2476 4.90833 15.2229 4.90045C15.0289 4.19471 14.6086 3.57217 14.0265 3.12848C13.4443 2.68479 12.7327 2.44449 12.0007 2.44449C11.2688 2.44449 10.5571 2.68479 9.97503 3.12848C9.39292 3.57217 8.97258 4.19471 8.77858 4.90045C8.75389 4.90833 8.72796 4.91157 8.70209 4.91002C8.62401 4.45296 8.64175 3.98467 8.75421 3.53483C8.86667 3.085 9.07138 2.66344 9.35536 2.2969C9.63934 1.93036 9.9964 1.62684 10.4039 1.40558C10.8114 1.18432 11.2604 1.05015 11.7224 1.01159C12.1845 0.973033 12.6496 1.03092 13.0881 1.18157C13.5266 1.33223 13.929 1.57238 14.2698 1.88677C14.6106 2.20117 14.8824 2.58297 15.0679 3.00794C15.2533 3.43291 15.3484 3.89178 15.3472 4.35546Z" fill="#E3E3E3"/>
<path d="M14.1236 9.82449L13.4543 10.8762C12.9969 10.6726 12.5016 10.5683 12.0009 10.5703C11.5076 10.5703 11.019 10.6707 10.5668 10.8667L9.89746 9.80537C10.5156 9.36676 11.2556 9.13275 12.0136 9.13618C12.7715 9.13961 13.5094 9.38031 14.1236 9.82449Z" fill="#E3E3E3"/>
<path d="M15.3472 4.35546C15.346 4.54129 15.33 4.72672 15.2994 4.91002C14.6721 4.90039 14.054 4.75827 13.4855 4.49298C12.917 4.22769 12.411 3.84522 12.0007 3.37065C11.5904 3.84522 11.0845 4.22769 10.516 4.49298C9.9475 4.75827 9.32936 4.90039 8.70209 4.91002C8.62401 4.45296 8.64175 3.98467 8.75421 3.53483C8.86667 3.085 9.07138 2.66344 9.35536 2.2969C9.63934 1.93036 9.9964 1.62684 10.4039 1.40558C10.8114 1.18432 11.2604 1.05015 11.7224 1.01159C12.1845 0.973033 12.6496 1.03092 13.0881 1.18157C13.5266 1.33223 13.929 1.57238 14.2698 1.88677C14.6106 2.20117 14.8824 2.58297 15.0679 3.00794C15.2533 3.43291 15.3484 3.89178 15.3472 4.35546Z" stroke="#191919" stroke-linecap="round" stroke-linejoin="round"/>
<path d="M15.2985 4.91001C15.1654 5.68853 14.7613 6.39492 14.1577 6.9042C13.554 7.41348 12.7896 7.69283 11.9998 7.69283C11.21 7.69283 10.4457 7.41348 9.84197 6.9042C9.23829 6.39492 8.8342 5.68853 8.70117 4.91001C9.32844 4.90038 9.94658 4.75826 10.5151 4.49297C11.0836 4.22768 11.5895 3.8452 11.9998 3.37064C12.4101 3.8452 12.9161 4.22768 13.4846 4.49297C14.0531 4.75826 14.6712 4.90038 15.2985 4.91001Z" stroke="#191919" stroke-linecap="round" stroke-linejoin="round"/>
<path d="M14.1221 9.8245V9.81494" stroke="#191919" stroke-linecap="round" stroke-linejoin="round"/>
<path d="M14.1236 9.82449L12.0009 13.1614L9.89746 9.80537C10.5156 9.36676 11.2556 9.13275 12.0136 9.13618C12.7715 9.13961 13.5094 9.38031 14.1236 9.82449Z" stroke="#191919" stroke-linecap="round" stroke-linejoin="round"/>
<path d="M17.2586 18.2193H14.4285L13.4246 23H10.5562L9.55223 18.2193H6.74121L8.47181 11.928C8.67444 11.0715 9.18056 10.3174 9.89644 9.80539L11.9999 13.1614L14.1225 9.82451C14.8323 10.3304 15.3322 11.0787 15.528 11.928L17.2586 18.2193Z" stroke="#191919" stroke-linecap="round" stroke-linejoin="round"/>
</g>
<defs>
<clipPath id="clip0_5303_3396">
<rect width="24" height="24" fill="white"/>
</clipPath>
</defs>
</svg>
