<svg width="24" height="24" viewBox="0 0 24 24" fill="none" xmlns="http://www.w3.org/2000/svg">
<g clip-path="url(#clip0_5303_3340)">
<path d="M7.69684 9.13059C8.23066 9.13059 8.75926 9.02544 9.25245 8.82116C9.74564 8.61687 10.1938 8.31745 10.5712 7.93998C10.9487 7.56251 11.2481 7.11438 11.4524 6.6212C11.6567 6.12801 11.7618 5.59941 11.7618 5.06559C11.7618 4.53176 11.6567 4.00316 11.4524 3.50997C11.2481 3.01679 10.9487 2.56866 10.5712 2.19119C10.1938 1.81372 9.74564 1.5143 9.25245 1.31001C8.75926 1.10572 8.23066 1.00058 7.69684 1.00058C6.61873 1.00058 5.58478 1.42886 4.82245 2.19119C4.06011 2.95353 3.63184 3.98748 3.63184 5.06559C3.63184 6.14369 4.06011 7.17764 4.82245 7.93998C5.58478 8.70231 6.61873 9.13059 7.69684 9.13059Z" fill="#E3E3E3"/>
<path d="M1 17.2606C1 15.4849 1.7054 13.7819 2.96101 12.5263C4.21662 11.2707 5.9196 10.5653 7.6953 10.5653C9.47101 10.5653 11.174 11.2707 12.4296 12.5263C13.6852 13.7819 14.3906 15.4849 14.3906 17.2606H1Z" fill="#E3E3E3"/>
<path d="M7.69684 3.39176C8.56331 3.39404 9.40625 3.67391 10.102 4.19032C10.7978 4.70672 11.3098 5.43249 11.5629 6.26117C11.6892 5.87476 11.7561 5.47209 11.7618 5.06558C11.7618 3.98748 11.3336 2.95353 10.5712 2.19119C9.8089 1.42886 8.77495 1.00058 7.69684 1.00058C6.61873 1.00058 5.58478 1.42886 4.82245 2.19119C4.06011 2.95353 3.63184 3.98748 3.63184 5.06558C3.6373 5.47188 3.70438 5.875 3.83078 6.26117C4.08389 5.43249 4.59588 4.70672 5.29166 4.19032C5.98743 3.67391 6.83037 3.39404 7.69684 3.39176Z" fill="white"/>
<path d="M7.6953 12.9565C9.04984 12.9577 10.3722 13.3697 11.4876 14.1382C12.6031 14.9067 13.4592 15.9954 13.943 17.2606H14.3906C14.3906 15.4849 13.6852 13.7819 12.4296 12.5263C11.174 11.2707 9.47101 10.5653 7.6953 10.5653C5.9196 10.5653 4.21662 11.2707 2.96101 12.5263C1.7054 13.7819 1 15.4849 1 17.2606H1.44763C1.93139 15.9954 2.78753 14.9067 3.90299 14.1382C5.01845 13.3697 6.34076 12.9577 7.6953 12.9565Z" fill="white"/>
<path d="M7.69684 9.13059C8.23066 9.13059 8.75926 9.02544 9.25245 8.82116C9.74564 8.61687 10.1938 8.31745 10.5712 7.93998C10.9487 7.56251 11.2481 7.11438 11.4524 6.6212C11.6567 6.12801 11.7618 5.59941 11.7618 5.06559C11.7618 4.53176 11.6567 4.00316 11.4524 3.50997C11.2481 3.01679 10.9487 2.56866 10.5712 2.19119C10.1938 1.81372 9.74564 1.5143 9.25245 1.31001C8.75926 1.10572 8.23066 1.00058 7.69684 1.00058C6.61873 1.00058 5.58478 1.42886 4.82245 2.19119C4.06011 2.95353 3.63184 3.98748 3.63184 5.06559C3.63184 6.14369 4.06011 7.17764 4.82245 7.93998C5.58478 8.70231 6.61873 9.13059 7.69684 9.13059Z" stroke="#191919" stroke-linecap="round" stroke-linejoin="round"/>
<path d="M8.65177 17.2606H1C0.999954 16.0584 1.32359 14.8784 1.93693 13.8444C2.55027 12.8105 3.43069 11.9607 4.48573 11.3844C5.54077 10.8081 6.73152 10.5266 7.93294 10.5692C9.13436 10.6119 10.3021 10.9773 11.3136 11.6269" stroke="#191919" stroke-linecap="round" stroke-linejoin="round"/>
<path d="M17.2613 22.9994C18.7833 22.9994 20.243 22.3948 21.3193 21.3185C22.3955 20.2423 23.0001 18.7826 23.0001 17.2606C23.0001 15.7385 22.3955 14.2788 21.3193 13.2026C20.243 12.1264 18.7833 11.5217 17.2613 11.5217C15.7393 11.5217 14.2796 12.1264 13.2033 13.2026C12.1271 14.2788 11.5225 15.7385 11.5225 17.2606C11.5225 18.7826 12.1271 20.2423 13.2033 21.3185C14.2796 22.3948 15.7393 22.9994 17.2613 22.9994Z" fill="#FF808C"/>
<path d="M17.261 11.5217C16.094 11.5232 14.9551 11.8804 13.9963 12.5457C13.0375 13.2111 12.3043 14.153 11.8946 15.2457C11.4849 16.3385 11.418 17.5302 11.703 18.6619C11.988 19.7937 12.6113 20.8116 13.4897 21.58L21.5795 13.4901C21.0426 12.8719 20.3792 12.3762 19.6342 12.0366C18.8891 11.697 18.0798 11.5214 17.261 11.5217Z" fill="#FFBFC5"/>
<path d="M17.2613 22.9994C18.7833 22.9994 20.243 22.3948 21.3193 21.3185C22.3955 20.2423 23.0001 18.7826 23.0001 17.2606C23.0001 15.7385 22.3955 14.2788 21.3193 13.2026C20.243 12.1264 18.7833 11.5217 17.2613 11.5217C15.7393 11.5217 14.2796 12.1264 13.2033 13.2026C12.1271 14.2788 11.5225 15.7385 11.5225 17.2606C11.5225 18.7826 12.1271 20.2423 13.2033 21.3185C14.2796 22.3948 15.7393 22.9994 17.2613 22.9994Z" stroke="#191919" stroke-linecap="round" stroke-linejoin="round"/>
<path d="M19.2888 15.2214L15.2314 19.2788" stroke="#191919" stroke-linecap="round" stroke-linejoin="round"/>
<path d="M19.2888 19.2788L15.2314 15.2214" stroke="#191919" stroke-linecap="round" stroke-linejoin="round"/>
</g>
<defs>
<clipPath id="clip0_5303_3340">
<rect width="24" height="24" fill="white"/>
</clipPath>
</defs>
</svg>
