<svg width="24" height="24" viewBox="0 0 24 24" fill="none" xmlns="http://www.w3.org/2000/svg">
<g clip-path="url(#clip0_5303_10626)">
<path d="M9.09202 3.89823C8.39948 4.19368 7.65451 4.34658 6.90158 4.34779C6.15554 4.34892 5.41693 4.19957 4.72994 3.90867C4.04295 3.61776 3.42169 3.19129 2.90332 2.65475V2.64518C3.25601 2.04648 3.78664 1.57267 4.4213 1.28976C5.05596 1.00684 5.76306 0.928906 6.4441 1.0668C7.12515 1.20469 7.74623 1.55155 8.22085 2.05907C8.69548 2.56658 9 3.20948 9.09202 3.89823Z" fill="#808080"/>
<path d="M9.13078 4.34783C9.13078 5.23573 8.77806 6.08727 8.15022 6.71511C7.52238 7.34295 6.67085 7.69565 5.78295 7.69565C4.89505 7.69565 4.04352 7.34295 3.41568 6.71511C2.78784 6.08727 2.43512 5.23573 2.43512 4.34783C2.4314 3.75095 2.59367 3.16479 2.90382 2.65479C3.42219 3.19133 4.04345 3.61781 4.73044 3.9087C5.41743 4.1996 6.15604 4.34896 6.90208 4.34783C7.65501 4.34661 8.39997 4.19372 9.09251 3.89827C9.12025 4.04653 9.13269 4.1967 9.13078 4.34783Z" fill="#E3E3E3"/>
<path d="M7.69614 22.9999L8.1744 17.2608H10.5657V13.9129C10.5657 13.2849 10.442 12.663 10.2017 12.0827C9.9613 11.5025 9.60902 10.9752 9.16491 10.5311C8.72081 10.087 8.19358 9.73478 7.61332 9.49443C7.03307 9.25408 6.41116 9.13037 5.7831 9.13037C5.15504 9.13037 4.53313 9.25408 3.95287 9.49443C3.37262 9.73478 2.84539 10.087 2.40128 10.5311C1.95718 10.9752 1.60489 11.5025 1.36454 12.0827C1.12419 12.663 1.00049 13.2849 1.00049 13.9129V17.2608H3.39179L3.87005 22.9999H7.69614Z" fill="#E3E3E3"/>
<path d="M9.09202 3.89823C8.94854 3.95562 8.79549 4.01301 8.65202 4.06084C8.35476 3.56514 7.93424 3.15485 7.43138 2.86989C6.92851 2.58494 6.36044 2.43503 5.78245 2.43475C4.97927 2.43251 4.20321 2.72523 3.60158 3.25736C3.35132 3.07771 3.11764 2.87604 2.90332 2.65475V2.64518C3.25601 2.04648 3.78664 1.57267 4.4213 1.28976C5.05596 1.00684 5.76306 0.928906 6.4441 1.0668C7.12515 1.20469 7.74623 1.55155 8.22085 2.05907C8.69548 2.56658 9 3.20948 9.09202 3.89823Z" fill="#B2B2B2"/>
<path d="M10.5657 13.9129V15.3477C10.5657 14.7197 10.442 14.0978 10.2017 13.5175C9.9613 12.9372 9.60902 12.41 9.16491 11.9659C8.72081 11.5218 8.19358 11.1695 7.61332 10.9292C7.03307 10.6888 6.41116 10.5651 5.7831 10.5651C5.15504 10.5651 4.53313 10.6888 3.95287 10.9292C3.37262 11.1695 2.84539 11.5218 2.40128 11.9659C1.95718 12.41 1.60489 12.9372 1.36454 13.5175C1.12419 14.0978 1.00049 14.7197 1.00049 15.3477V13.9129C1.00049 13.2849 1.12419 12.663 1.36454 12.0827C1.60489 11.5025 1.95718 10.9752 2.40128 10.5311C2.84539 10.087 3.37262 9.73478 3.95287 9.49443C4.53313 9.25408 5.15504 9.13037 5.7831 9.13037C6.41116 9.13037 7.03307 9.25408 7.61332 9.49443C8.19358 9.73478 8.72081 10.087 9.16491 10.5311C9.60902 10.9752 9.9613 11.5025 10.2017 12.0827C10.442 12.663 10.5657 13.2849 10.5657 13.9129Z" fill="white"/>
<path d="M2.89844 2.64807C3.68257 3.46195 4.69623 4.01737 5.8042 4.24023C6.91216 4.46308 8.06174 4.34278 9.09957 3.89538" stroke="#191919" stroke-linecap="round" stroke-linejoin="round"/>
<path d="M5.78289 7.69565C6.67078 7.69565 7.52232 7.34294 8.15016 6.7151C8.778 6.08726 9.13071 5.23573 9.13071 4.34783C9.13071 3.45993 8.778 2.6084 8.15016 1.98056C7.52232 1.35272 6.67078 1 5.78289 1C4.89499 1 4.04345 1.35272 3.41561 1.98056C2.78777 2.6084 2.43506 3.45993 2.43506 4.34783C2.43506 5.23573 2.78777 6.08726 3.41561 6.7151C4.04345 7.34294 4.89499 7.69565 5.78289 7.69565Z" stroke="#191919" stroke-linecap="round" stroke-linejoin="round"/>
<path d="M10.0999 11.8517C9.63271 10.8722 8.8463 10.0807 7.86983 9.60718C6.89335 9.13368 5.78486 9.00636 4.72646 9.24612C3.66805 9.48588 2.72265 10.0785 2.04555 10.9266C1.36846 11.7747 0.999924 12.8278 1.00049 13.913V17.2609H3.39179L3.87005 23H7.69614L8.1744 17.2609H9.59197" stroke="#191919" stroke-linecap="round" stroke-linejoin="round"/>
<path d="M22.3704 16.0356L20.1302 16.7827V15.8261C20.1302 15.4456 19.979 15.0807 19.7099 14.8116C19.4409 14.5425 19.0759 14.3914 18.6954 14.3914H12.9563C12.5757 14.3914 12.2108 14.5425 11.9417 14.8116C11.6726 15.0807 11.5215 15.4456 11.5215 15.8261V21.5653C11.5215 21.9458 11.6726 22.3108 11.9417 22.5798C12.2108 22.8489 12.5757 23.0001 12.9563 23.0001H18.6954C19.0759 23.0001 19.4409 22.8489 19.7099 22.5798C19.979 22.3108 20.1302 21.9458 20.1302 21.5653V20.6088L22.3704 21.3558C22.4423 21.3798 22.5189 21.3863 22.5938 21.3748C22.6688 21.3633 22.7399 21.3342 22.8014 21.2898C22.8629 21.2454 22.9129 21.1871 22.9474 21.1196C22.9819 21.052 22.9998 20.9773 22.9997 20.9015V16.49C22.9998 16.4142 22.9819 16.3394 22.9474 16.2719C22.9129 16.2043 22.8629 16.146 22.8014 16.1016C22.7399 16.0572 22.6688 16.0281 22.5938 16.0166C22.5189 16.0052 22.4423 16.0117 22.3704 16.0356Z" fill="#808080"/>
<path d="M18.6954 14.3914H12.9563C12.5757 14.3914 12.2108 14.5425 11.9417 14.8116C11.6726 15.0807 11.5215 15.4456 11.5215 15.8261V21.5653C11.522 21.777 11.5697 21.986 11.6612 22.177C11.7528 22.3679 11.8857 22.5361 12.0504 22.6691L19.7983 14.9213C19.6654 14.7565 19.4975 14.6234 19.3067 14.5318C19.1159 14.4401 18.9071 14.3921 18.6954 14.3914Z" fill="#B2B2B2"/>
<path d="M22.3704 16.0356L20.1302 16.7827V15.8261C20.1302 15.4456 19.979 15.0807 19.7099 14.8116C19.4409 14.5425 19.0759 14.3914 18.6954 14.3914H12.9563C12.5757 14.3914 12.2108 14.5425 11.9417 14.8116C11.6726 15.0807 11.5215 15.4456 11.5215 15.8261V21.5653C11.5215 21.9458 11.6726 22.3108 11.9417 22.5798C12.2108 22.8489 12.5757 23.0001 12.9563 23.0001H18.6954C19.0759 23.0001 19.4409 22.8489 19.7099 22.5798C19.979 22.3108 20.1302 21.9458 20.1302 21.5653V20.6088L22.3704 21.3558C22.4423 21.3798 22.5189 21.3863 22.5938 21.3748C22.6688 21.3633 22.7399 21.3342 22.8014 21.2898C22.8629 21.2454 22.9129 21.1871 22.9474 21.1196C22.9819 21.052 22.9998 20.9773 22.9997 20.9015V16.49C22.9998 16.4142 22.9819 16.3394 22.9474 16.2719C22.9129 16.2043 22.8629 16.146 22.8014 16.1016C22.7399 16.0572 22.6688 16.0281 22.5938 16.0166C22.5189 16.0052 22.4423 16.0117 22.3704 16.0356Z" stroke="#191919" stroke-linecap="round" stroke-linejoin="round"/>
</g>
<defs>
<clipPath id="clip0_5303_10626">
<rect width="24" height="24" fill="white"/>
</clipPath>
</defs>
</svg>
