<svg width="24" height="24" viewBox="0 0 24 24" fill="none" xmlns="http://www.w3.org/2000/svg">
<g clip-path="url(#clip0_5303_3298)">
<path d="M7.70025 22.9849L8.17806 17.251H10.5672V13.9062C10.5672 10.228 6.5853 7.92907 3.39988 9.7682C1.92148 10.6218 1.01074 12.1992 1.01074 13.9062V17.251H3.39988L3.87769 22.9849H7.70025Z" fill="#E3E3E3"/>
<path d="M5.78914 7.69458C8.36396 7.69458 9.97321 4.90725 8.68585 2.67744C8.08832 1.6426 6.9841 1.00507 5.78914 1.00507C3.21442 1.00507 1.60518 3.79239 2.89254 6.0222C3.49006 7.05704 4.59418 7.69458 5.78914 7.69458Z" fill="#E3E3E3"/>
<path d="M10.5672 13.9062V15.8175C10.5672 12.1393 6.5853 9.8403 3.39988 11.6794C1.92148 12.533 1.01074 14.1104 1.01074 15.8175V13.9062C1.01074 10.228 4.99264 7.92907 8.17806 9.7682C9.65647 10.6218 10.5672 12.1992 10.5672 13.9062Z" fill="white"/>
<path d="M9.13183 4.34975C9.1328 4.67368 9.08411 4.99577 8.98849 5.30536C8.25817 2.8409 5.13392 2.09125 3.36485 3.95595C3.00237 4.33804 2.73532 4.80043 2.58574 5.30536C2.48934 4.99606 2.44104 4.67378 2.44241 4.34975C2.44241 1.77493 5.22964 0.165678 7.45945 1.45314C8.49439 2.05057 9.13183 3.15479 9.13183 4.34975Z" fill="white"/>
<path d="M10.3111 12.36C9.12295 8.87889 4.61201 7.98933 2.19136 10.7588C1.42962 11.6303 1.01006 12.7487 1.01074 13.9062V17.2509H3.39988L3.87769 22.9848H7.70025L8.17806 17.2509H9.13368" stroke="#191919" stroke-linecap="round" stroke-linejoin="round"/>
<path d="M5.78914 7.69458C8.36396 7.69458 9.97321 4.90725 8.68585 2.67744C8.08832 1.6426 6.9841 1.00507 5.78914 1.00507C3.21442 1.00507 1.60518 3.79239 2.89254 6.0222C3.49006 7.05704 4.59418 7.69458 5.78914 7.69458Z" stroke="#191919" stroke-linecap="round" stroke-linejoin="round"/>
<path d="M17.2466 21.5513C20.5571 21.5563 22.6314 17.9758 20.9805 15.1064C20.2121 13.7707 18.7876 12.9482 17.2466 12.9506C13.9362 12.9555 11.8725 16.5424 13.5321 19.4068C14.3 20.7321 15.7149 21.5491 17.2466 21.5513Z" fill="#C2F3FF"/>
<path d="M14.8662 18.2065H11.5215V21.5513" stroke="#191919" stroke-linecap="round" stroke-linejoin="round"/>
<path d="M22.432 19.3849C21.1157 23.2653 16.0924 24.2657 13.39 21.1857C12.6584 20.3519 12.2056 19.3103 12.0947 18.2065" stroke="#191919" stroke-linecap="round" stroke-linejoin="round"/>
<path d="M19.6445 16.2953H22.9893V12.9506" stroke="#191919" stroke-linecap="round" stroke-linejoin="round"/>
<path d="M12.0791 15.117C13.4022 11.2373 18.4289 10.2448 21.1273 13.3304C21.8538 14.1612 22.3042 15.1973 22.4162 16.2953" stroke="#191919" stroke-linecap="round" stroke-linejoin="round"/>
</g>
<defs>
<clipPath id="clip0_5303_3298">
<rect width="24" height="24" fill="white"/>
</clipPath>
</defs>
</svg>
