<svg width="24" height="24" viewBox="0 0 24 24" fill="none" xmlns="http://www.w3.org/2000/svg">
<g clip-path="url(#clip0_5303_3284)">
<path d="M19.652 3.39154H4.3481C3.81984 3.39154 3.3916 3.81978 3.3916 4.34804V19.652C3.3916 20.1803 3.81984 20.6085 4.3481 20.6085H19.652C20.1803 20.6085 20.6085 20.1803 20.6085 19.652V4.34804C20.6085 3.81978 20.1803 3.39154 19.652 3.39154Z" fill="#C2F3FF"/>
<path d="M7.69548 22.9997H1.9565C1.70281 22.9997 1.45953 22.8989 1.28015 22.7195C1.10077 22.5402 1 22.2969 1 22.0432V16.3042" stroke="#191919" stroke-linecap="round" stroke-linejoin="round"/>
<path d="M7.69548 1.00031H1.9565C1.70281 1.00031 1.45953 1.10108 1.28015 1.28046C1.10077 1.45983 1 1.70312 1 1.9568V7.69578" stroke="#191919" stroke-linecap="round" stroke-linejoin="round"/>
<path d="M16.3047 22.9997H22.0437C22.2973 22.9997 22.5407 22.8989 22.72 22.7195C22.8994 22.5402 23.0002 22.2969 23.0002 22.0432V16.3042" stroke="#191919" stroke-linecap="round" stroke-linejoin="round"/>
<path d="M16.3047 1.00031H22.0437C22.2973 1.00031 22.5407 1.10108 22.72 1.28046C22.8994 1.45983 23.0002 1.70312 23.0002 1.9568V7.69578" stroke="#191919" stroke-linecap="round" stroke-linejoin="round"/>
<path d="M17.2607 18.2172C17.2607 16.822 16.7064 15.4839 15.7199 14.4973C14.7333 13.5108 13.3952 12.9565 12 12.9565C10.6047 12.9565 9.26667 13.5108 8.28009 14.4973C7.29351 15.4839 6.73926 16.822 6.73926 18.2172H17.2607Z" fill="#E3E3E3"/>
<path d="M15.0142 7.99235C14.3742 8.27004 13.684 8.41329 12.9864 8.4132C12.2919 8.41432 11.6043 8.2751 10.9649 8.0039C10.3255 7.73269 9.74755 7.3351 9.26562 6.83498C9.59255 6.27862 10.0848 5.83807 10.674 5.57468C11.2631 5.31129 11.9196 5.23819 12.5522 5.36556C13.1849 5.49291 13.762 5.8144 14.2033 6.28524C14.6446 6.75607 14.928 7.35281 15.0142 7.99235Z" fill="#C77F67"/>
<path d="M12.0048 14.4869C13.1324 14.4865 14.2303 14.849 15.136 15.5208C16.0417 16.1926 16.7072 17.138 17.034 18.2172H17.2607C17.2607 16.822 16.7064 15.4839 15.7199 14.4973C14.7333 13.5108 13.3952 12.9565 12 12.9565C10.6047 12.9565 9.26667 13.5108 8.28009 14.4973C7.29351 15.4839 6.73926 16.822 6.73926 18.2172H6.9669C7.29529 17.1372 7.96235 16.1914 8.86955 15.5197C9.77675 14.848 10.8759 14.4859 12.0048 14.4869Z" fill="white"/>
<path d="M11.9438 6.83501C12.4458 6.83545 12.9401 6.95865 13.3835 7.19389C13.827 7.42912 14.2062 7.76925 14.4881 8.18463C14.6666 8.12973 14.8421 8.06588 15.0142 7.99333C14.9282 7.35374 14.6449 6.75689 14.2036 6.28593C13.7624 5.81496 13.1853 5.49334 12.5526 5.36586C11.92 5.23839 11.2634 5.31141 10.6742 5.57474C10.085 5.83809 9.5926 6.27863 9.26562 6.83501C9.4993 7.07695 9.75552 7.29603 10.0308 7.48926C10.5772 7.06301 11.2508 6.8326 11.9438 6.83501Z" fill="#E3BFB3"/>
<path d="M17.2607 18.2172C17.2607 16.822 16.7064 15.4839 15.7199 14.4973C14.7333 13.5108 13.3952 12.9565 12 12.9565C10.6047 12.9565 9.26667 13.5108 8.28009 14.4973C7.29351 15.4839 6.73926 16.822 6.73926 18.2172H17.2607Z" stroke="#191919" stroke-linecap="round" stroke-linejoin="round"/>
<path d="M15.0223 7.99231H15.0127" stroke="#191919" stroke-linecap="round" stroke-linejoin="round"/>
<path d="M15.0142 7.99235C14.3742 8.27004 13.684 8.41329 12.9864 8.4132C12.2919 8.41432 11.6043 8.2751 10.9649 8.0039C10.3255 7.73269 9.74755 7.3351 9.26562 6.83498C9.59255 6.27862 10.0848 5.83807 10.674 5.57468C11.2631 5.31129 11.9196 5.23819 12.5522 5.36556C13.1849 5.49291 13.762 5.8144 14.2033 6.28524C14.6446 6.75607 14.928 7.35281 15.0142 7.99235Z" stroke="#191919" stroke-linecap="round" stroke-linejoin="round"/>
<path d="M15.0512 8.41321C15.0512 9.23766 14.7237 10.0284 14.1407 10.6113C13.5577 11.1943 12.7671 11.5218 11.9426 11.5218C11.1181 11.5218 10.3275 11.1943 9.74448 10.6113C9.1615 10.0284 8.83398 9.23766 8.83398 8.41321C8.83695 7.85855 8.98537 7.31436 9.26441 6.83499C9.74632 7.33511 10.3243 7.7327 10.9637 8.00391C11.603 8.27511 12.2907 8.41433 12.9852 8.41321C13.6828 8.4133 14.373 8.27005 15.013 7.99235C15.0403 8.13092 15.0531 8.27198 15.0512 8.41321Z" fill="#FFDDA1" stroke="#191919" stroke-linecap="round" stroke-linejoin="round"/>
</g>
<defs>
<clipPath id="clip0_5303_3284">
<rect width="24" height="24" fill="white"/>
</clipPath>
</defs>
</svg>
