<svg width="24" height="24" viewBox="0 0 24 24" fill="none" xmlns="http://www.w3.org/2000/svg">
<g clip-path="url(#clip0_5303_10313)">
<path d="M1.95652 23C1.70283 23 1.45954 22.8992 1.28016 22.7198C1.10078 22.5405 1 22.2972 1 22.0435V8.93916C0.999992 8.78487 1.03731 8.63287 1.10876 8.49613C1.18021 8.35939 1.28368 8.24196 1.41035 8.15386L11.4538 1.17126C11.6141 1.05976 11.8047 1 12 1C12.1952 1 12.3858 1.05976 12.5461 1.17126L22.5896 8.15386C22.7163 8.24196 22.8197 8.35939 22.8912 8.49613C22.9626 8.63287 23 8.78487 23 8.93916V22.0435C23 22.2972 22.8992 22.5405 22.7198 22.7198C22.5404 22.8992 22.2971 23 22.0434 23H1.95652Z" fill="#C2F3FF"/>
<path d="M22.5896 8.15764L12.5461 1.17505C12.3858 1.06355 12.1952 1.00378 12 1.00378C11.8047 1.00378 11.6141 1.06355 11.4538 1.17505L1.41035 8.15764C1.28355 8.24583 1.18 8.36342 1.10854 8.50034C1.03708 8.63726 0.999839 8.78945 1 8.9439V12.2544C0.999839 12.1 1.03708 11.9478 1.10854 11.8109C1.18 11.6739 1.28355 11.5563 1.41035 11.4682L11.4538 4.48556C11.6141 4.37406 11.8047 4.3143 12 4.3143C12.1952 4.3143 12.3858 4.37406 12.5461 4.48556L22.5896 11.4682C22.7164 11.5563 22.82 11.6739 22.8914 11.8109C22.9629 11.9478 23.0001 12.1 23 12.2544V8.9439C23.0001 8.78945 22.9629 8.63726 22.8914 8.50034C22.82 8.36342 22.7164 8.24583 22.5896 8.15764Z" fill="#66E1FF"/>
<path d="M1.95652 23C1.70283 23 1.45954 22.8992 1.28016 22.7198C1.10078 22.5405 1 22.2972 1 22.0435V8.93916C0.999992 8.78487 1.03731 8.63287 1.10876 8.49613C1.18021 8.35939 1.28368 8.24196 1.41035 8.15386L11.4538 1.17126C11.6141 1.05976 11.8047 1 12 1C12.1952 1 12.3858 1.05976 12.5461 1.17126L22.5896 8.15386C22.7163 8.24196 22.8197 8.35939 22.8912 8.49613C22.9626 8.63287 23 8.78487 23 8.93916V22.0435C23 22.2972 22.8992 22.5405 22.7198 22.7198C22.5404 22.8992 22.2971 23 22.0434 23H1.95652Z" stroke="#191919" stroke-linecap="round" stroke-linejoin="round"/>
<path d="M16.8352 19.6522C16.4784 18.6703 15.828 17.8221 14.9723 17.2227C14.1167 16.6233 13.0973 16.3018 12.0526 16.3018C11.0079 16.3018 9.98854 16.6233 9.13291 17.2227C8.27728 17.8221 7.62688 18.6703 7.27002 19.6522" fill="#E3E3E3"/>
<path d="M12.0564 17.8635C12.7873 17.8659 13.509 18.0271 14.1714 18.336C14.8339 18.6448 15.4213 19.0939 15.893 19.6522H16.8352C16.4784 18.6703 15.828 17.8221 14.9723 17.2227C14.1167 16.6233 13.0973 16.3018 12.0526 16.3018C11.0079 16.3018 9.98854 16.6233 9.13291 17.2227C8.27728 17.8221 7.62688 18.6703 7.27002 19.6522H8.21602C8.6886 19.0939 9.27672 18.6449 9.93977 18.3361C10.6028 18.0272 11.325 17.866 12.0564 17.8635Z" fill="white"/>
<path d="M16.8352 19.6522C16.4784 18.6703 15.828 17.8221 14.9723 17.2227C14.1167 16.6233 13.0973 16.3018 12.0526 16.3018C11.0079 16.3018 9.98854 16.6233 9.13291 17.2227C8.27728 17.8221 7.62688 18.6703 7.27002 19.6522" stroke="#191919" stroke-linecap="round" stroke-linejoin="round"/>
<path d="M15.0705 11.34C14.1083 11.7548 13.0425 11.8662 12.0153 11.6594C10.9881 11.4526 10.0485 10.9374 9.32178 10.1826C9.6487 9.62621 10.141 9.18564 10.7301 8.92225C11.3193 8.65886 11.9759 8.58575 12.6085 8.71312C13.2411 8.84049 13.8183 9.16198 14.2596 9.63283C14.7008 10.1037 14.9843 10.7004 15.0705 11.34Z" fill="#C77F67"/>
<path d="M12 10.2113C12.4963 10.213 12.9848 10.3343 13.4242 10.5649C13.8636 10.7955 14.241 11.1286 14.5243 11.5361C14.7095 11.48 14.8918 11.4145 15.0705 11.34C14.9843 10.7004 14.7008 10.1037 14.2596 9.63283C13.8183 9.16198 13.2411 8.84049 12.6085 8.71312C11.9759 8.58575 11.3193 8.65886 10.7301 8.92225C10.141 9.18564 9.6487 9.62621 9.32178 10.1826C9.56091 10.4313 9.82586 10.6561 10.1109 10.8521C10.6523 10.4353 11.3167 10.2099 12 10.2113Z" fill="#E3BFB3"/>
<path d="M15.0799 11.34H15.0703" stroke="#191919" stroke-linecap="round" stroke-linejoin="round"/>
<path d="M15.0705 11.34C14.1083 11.7548 13.0425 11.8662 12.0153 11.6594C10.9881 11.4526 10.0485 10.9374 9.32178 10.1826C9.6487 9.62621 10.141 9.18564 10.7301 8.92225C11.3193 8.65886 11.9759 8.58575 12.6085 8.71312C13.2411 8.84049 13.8183 9.16198 14.2596 9.63283C14.7008 10.1037 14.9843 10.7004 15.0705 11.34Z" stroke="#191919" stroke-linecap="round" stroke-linejoin="round"/>
<path d="M15.1085 11.7609C15.1085 12.2389 14.9983 12.7104 14.7864 13.1389C14.5745 13.5674 14.2666 13.9412 13.8868 14.2314C13.5069 14.5215 13.0652 14.7202 12.5961 14.8118C12.127 14.9035 11.643 14.8858 11.1819 14.76C10.7207 14.6343 10.2947 14.4038 9.93712 14.0867C9.5795 13.7695 9.29984 13.3741 9.11987 12.9313C8.9399 12.4885 8.86447 12.0101 8.89945 11.5334C8.93443 11.0567 9.07887 10.5944 9.32155 10.1826C10.0482 10.9374 10.9879 11.4526 12.0151 11.6594C13.0422 11.8662 14.1081 11.7548 15.0702 11.34C15.098 11.4787 15.1104 11.6193 15.1085 11.7609Z" fill="#FFDDA1" stroke="#191919" stroke-linecap="round" stroke-linejoin="round"/>
</g>
<defs>
<clipPath id="clip0_5303_10313">
<rect width="24" height="24" fill="white"/>
</clipPath>
</defs>
</svg>
