<svg width="24" height="24" viewBox="0 0 24 24" fill="none" xmlns="http://www.w3.org/2000/svg">
<g clip-path="url(#clip0_5303_11714)">
<path d="M19.1735 5.78258C20.4942 5.78258 21.5648 4.71196 21.5648 3.39129C21.5648 2.07062 20.4942 1 19.1735 1C17.8529 1 16.7822 2.07062 16.7822 3.39129C16.7822 4.71196 17.8529 5.78258 19.1735 5.78258Z" fill="#FFDDA1" stroke="#191919" stroke-linecap="round" stroke-linejoin="round"/>
<path d="M19.1734 21.0869C19.4271 21.0869 19.6704 21.1877 19.8498 21.367C20.0291 21.5464 20.1299 21.7897 20.1299 22.0434C20.1299 22.297 20.0291 22.5404 19.8498 22.7197C19.6704 22.8991 19.4271 22.9999 19.1734 22.9999H12.9561" stroke="#191919" stroke-linecap="round" stroke-linejoin="round"/>
<path d="M17.7387 19.6971H14.8691V23H17.7387V19.6971Z" fill="#FF808C" stroke="#191919" stroke-linecap="round" stroke-linejoin="round"/>
<path d="M4.3476 18.7111C4.3476 18.9647 4.24682 19.2081 4.06745 19.3874C3.88806 19.5669 3.64477 19.6676 3.39109 19.6676C3.1374 19.6676 2.89411 19.5669 2.71472 19.3874C2.53535 19.2081 2.43457 18.9647 2.43457 18.7111V12.4937" stroke="#191919" stroke-linecap="round" stroke-linejoin="round"/>
<path d="M5.78238 14.4066H2.43457V17.2762H5.78238V14.4066Z" fill="#FF808C" stroke="#191919" stroke-linecap="round" stroke-linejoin="round"/>
<path d="M17.7387 19.6675V16.3197C17.7369 15.6518 17.5805 14.9934 17.2818 14.396C16.983 13.7986 16.5502 13.2784 16.017 12.8762L14.7917 11.956L16.9735 9.05016C17.1333 8.837 17.2307 8.58352 17.2546 8.31814C17.2786 8.05277 17.2281 7.78597 17.1089 7.54764C16.9898 7.30932 16.8067 7.10889 16.58 6.9688C16.3533 6.82872 16.0921 6.75452 15.8257 6.75452H7.69526C7.31474 6.75452 6.94979 6.90568 6.68072 7.17475C6.41165 7.44383 6.26048 7.80877 6.26048 8.18929C6.26048 8.56982 6.41165 8.93476 6.68072 9.20383C6.94979 9.47291 7.31474 9.62407 7.69526 9.62407H12.9561L11.6552 11.3582L11.639 11.3793L11.6189 11.407L9.7996 13.8327C9.66545 14.0104 9.49204 14.1546 9.29293 14.2542C9.09381 14.3537 8.87439 14.4059 8.65178 14.4066H5.78223V17.2762H8.65178C9.31965 17.2742 9.97801 17.1178 10.5753 16.8191C11.1728 16.5204 11.6929 16.0876 12.0952 15.5545L13.0718 14.2517L14.2943 15.1699C14.4722 15.3039 14.6165 15.4773 14.7161 15.6764C14.8157 15.8756 14.8677 16.0951 14.8682 16.3178V19.6656L17.7387 19.6675Z" fill="#66E1FF"/>
<path d="M17.2607 8.28775C17.2738 8.09145 17.2464 7.89454 17.1802 7.70927C17.114 7.524 17.0104 7.35433 16.8758 7.21079C16.7413 7.06726 16.5786 6.95294 16.398 6.87493C16.2174 6.79692 16.0227 6.75689 15.8259 6.75733H7.69552C7.31548 6.75733 6.95098 6.90809 6.68199 7.17655C6.413 7.445 6.2615 7.8092 6.26074 8.18923V8.28489L17.2607 8.28775Z" fill="#C2F3FF"/>
<path d="M17.7387 19.6675V16.3197C17.7369 15.6518 17.5805 14.9934 17.2818 14.396C16.983 13.7986 16.5502 13.2784 16.017 12.8762L14.7917 11.956L16.9735 9.05016C17.1333 8.837 17.2307 8.58352 17.2546 8.31814C17.2786 8.05277 17.2281 7.78597 17.1089 7.54764C16.9898 7.30932 16.8067 7.10889 16.58 6.9688C16.3533 6.82872 16.0921 6.75452 15.8257 6.75452H7.69526C7.31474 6.75452 6.94979 6.90568 6.68072 7.17475C6.41165 7.44383 6.26048 7.80877 6.26048 8.18929C6.26048 8.56982 6.41165 8.93476 6.68072 9.20383C6.94979 9.47291 7.31474 9.62407 7.69526 9.62407H12.9561L11.6552 11.3582L11.639 11.3793L11.6189 11.407L9.7996 13.8327C9.66545 14.0104 9.49204 14.1546 9.29293 14.2542C9.09381 14.3537 8.87439 14.4059 8.65178 14.4066H5.78223V17.2762H8.65178C9.31965 17.2742 9.97801 17.1178 10.5753 16.8191C11.1728 16.5204 11.6929 16.0876 12.0952 15.5545L13.0718 14.2517L14.2943 15.1699C14.4722 15.3039 14.6165 15.4773 14.7161 15.6764C14.8157 15.8756 14.8677 16.0951 14.8682 16.3178V19.6656L17.7387 19.6675Z" stroke="#191919" stroke-linecap="round" stroke-linejoin="round"/>
</g>
<defs>
<clipPath id="clip0_5303_11714">
<rect width="24" height="24" fill="white"/>
</clipPath>
</defs>
</svg>
