<svg width="24" height="24" viewBox="0 0 24 24" fill="none" xmlns="http://www.w3.org/2000/svg">
<g clip-path="url(#clip0_5303_11645)">
<path d="M13.3554 21.087L14.7902 18.2805C14.994 17.8828 15.1161 17.4483 15.1492 17.0026C15.1824 16.5569 15.1261 16.1091 14.9834 15.6856C14.8407 15.262 14.6148 14.8713 14.3187 14.5365C14.0227 14.2017 13.6627 13.9296 13.2598 13.7361L11.4864 12.8838L12.8255 10.5643H19.6522C20.0327 10.5643 20.3977 10.4131 20.6668 10.1441C20.9359 9.87496 21.087 9.51002 21.087 9.12949C21.087 8.74896 20.9359 8.38402 20.6668 8.11494C20.3977 7.84587 20.0327 7.6947 19.6522 7.6947H4.34787C3.96735 7.6947 3.60239 7.84587 3.33332 8.11494C3.06425 8.38402 2.91309 8.74896 2.91309 9.12949C2.91309 9.51002 3.06425 9.87496 3.33332 10.1441C3.60239 10.4131 3.96735 10.5643 4.34787 10.5643H9.51309L3.58265 20.8469C3.48844 21.0102 3.42732 21.1905 3.40277 21.3774C3.37822 21.5643 3.39073 21.7542 3.43958 21.9363C3.48843 22.1184 3.57267 22.289 3.68749 22.4386C3.8023 22.5881 3.94544 22.7135 4.10874 22.8078C4.27204 22.902 4.45228 22.9631 4.63921 22.9877C4.82612 23.0122 5.01605 22.9997 5.19813 22.9509C5.38021 22.902 5.5509 22.8178 5.70042 22.7029C5.84995 22.5881 5.9754 22.445 6.06961 22.2817L10.0535 15.3756L12.022 16.3225C12.0799 16.3498 12.1316 16.3885 12.1739 16.4365C12.2164 16.4843 12.2486 16.5402 12.2688 16.6009C12.2891 16.6613 12.2971 16.7252 12.2924 16.7888C12.2876 16.8524 12.2702 16.9143 12.2411 16.9711L11.2023 18.997L13.3554 21.087Z" fill="#66E1FF"/>
<path d="M13.9128 5.78261C15.2335 5.78261 16.3041 4.71198 16.3041 3.3913C16.3041 2.07063 15.2335 1 13.9128 1C12.5921 1 11.5215 2.07063 11.5215 3.3913C11.5215 4.71198 12.5921 5.78261 13.9128 5.78261Z" fill="#FFDDA1" stroke="#191919" stroke-linecap="round" stroke-linejoin="round"/>
<path d="M21.087 9.13046C21.087 8.74994 20.9359 8.38499 20.6668 8.11592C20.3977 7.84685 20.0327 7.69568 19.6522 7.69568H4.34787C3.96735 7.69568 3.60239 7.84685 3.33332 8.11592C3.06425 8.38499 2.91309 8.74994 2.91309 9.13046H21.087Z" fill="#C2F3FF"/>
<path d="M13.3554 21.087L14.7902 18.2805C14.994 17.8828 15.1161 17.4483 15.1492 17.0026C15.1824 16.5569 15.1261 16.1091 14.9834 15.6856C14.8407 15.262 14.6148 14.8713 14.3187 14.5365C14.0227 14.2017 13.6627 13.9296 13.2598 13.7361L11.4864 12.8838L12.8255 10.5643H19.6522C20.0327 10.5643 20.3977 10.4131 20.6668 10.1441C20.9359 9.87496 21.087 9.51002 21.087 9.12949C21.087 8.74896 20.9359 8.38402 20.6668 8.11494C20.3977 7.84587 20.0327 7.6947 19.6522 7.6947H4.34787C3.96735 7.6947 3.60239 7.84587 3.33332 8.11494C3.06425 8.38402 2.91309 8.74896 2.91309 9.12949C2.91309 9.51002 3.06425 9.87496 3.33332 10.1441C3.60239 10.4131 3.96735 10.5643 4.34787 10.5643H9.51309L3.58265 20.8469C3.48844 21.0102 3.42732 21.1905 3.40277 21.3774C3.37822 21.5643 3.39073 21.7542 3.43958 21.9363C3.48843 22.1184 3.57267 22.289 3.68749 22.4386C3.8023 22.5881 3.94544 22.7135 4.10874 22.8078C4.27204 22.902 4.45228 22.9631 4.63921 22.9877C4.82612 23.0122 5.01605 22.9997 5.19813 22.9509C5.38021 22.902 5.5509 22.8178 5.70042 22.7029C5.84995 22.5881 5.9754 22.445 6.06961 22.2817L10.0535 15.3756L12.022 16.3225C12.0799 16.3498 12.1316 16.3885 12.1739 16.4365C12.2164 16.4843 12.2486 16.5402 12.2688 16.6009C12.2891 16.6613 12.2971 16.7252 12.2924 16.7888C12.2876 16.8524 12.2702 16.9143 12.2411 16.9711L11.2023 18.997" stroke="#191919" stroke-linecap="round" stroke-linejoin="round"/>
<path d="M8.65234 21.0869H19.1741" stroke="#191919" stroke-linecap="round" stroke-linejoin="round"/>
<path d="M17.2612 23C17.7895 23 18.2177 22.5718 18.2177 22.0435C18.2177 21.5152 17.7895 21.0869 17.2612 21.0869C16.7329 21.0869 16.3047 21.5152 16.3047 22.0435C16.3047 22.5718 16.7329 23 17.2612 23Z" fill="#808080" stroke="#191919" stroke-linecap="round" stroke-linejoin="round"/>
<path d="M10.5649 23C11.0932 23 11.5214 22.5718 11.5214 22.0435C11.5214 21.5152 11.0932 21.0869 10.5649 21.0869C10.0367 21.0869 9.6084 21.5152 9.6084 22.0435C9.6084 22.5718 10.0367 23 10.5649 23Z" fill="#808080" stroke="#191919" stroke-linecap="round" stroke-linejoin="round"/>
</g>
<defs>
<clipPath id="clip0_5303_11645">
<rect width="24" height="24" fill="white"/>
</clipPath>
</defs>
</svg>
