<svg width="24" height="24" viewBox="0 0 24 24" fill="none" xmlns="http://www.w3.org/2000/svg">
<path d="M7.69531 14.1523V8.41314C7.69508 8.19855 7.767 7.99012 7.89953 7.82136C8.03205 7.65259 8.21747 7.53328 8.42599 7.48261C8.6345 7.43195 8.854 7.45287 9.04918 7.542C9.24438 7.63114 9.40393 7.78333 9.50218 7.97409C10.2025 8.99135 11.2127 9.75524 12.3823 10.1521L12.8385 10.3348C12.9551 10.3816 13.0614 10.4508 13.1513 10.5386C13.2412 10.6263 13.3129 10.7311 13.3623 10.8465C13.4118 10.9621 13.438 11.0861 13.4394 11.2118C13.4409 11.3374 13.4176 11.4622 13.3708 11.5788C13.3241 11.6954 13.2549 11.8017 13.1671 11.8915C13.0793 11.9815 12.9746 12.0531 12.8591 12.1025C12.7435 12.152 12.6195 12.1782 12.4938 12.1796C12.3682 12.1811 12.2435 12.1578 12.1269 12.1111L11.6716 11.9293C11.1034 11.7037 10.5699 11.399 10.0866 11.0245V14.1523H7.69531Z" fill="#66E1FF"/>
<path d="M22.6922 14.5291C22.3382 13.6807 21.7014 12.9811 20.8901 12.5491L16.7876 10.3615C16.6694 10.2984 16.539 10.2618 16.4053 10.2545C16.2716 10.247 16.1379 10.2689 16.0135 10.3186C15.8892 10.3682 15.7772 10.4444 15.6854 10.5419C15.5935 10.6394 15.5241 10.7557 15.4819 10.8828C15.1969 11.7066 14.7016 12.4416 14.0451 13.015C13.3886 13.5885 12.5937 13.9805 11.739 14.1522H3.89556C3.68233 14.1522 3.47521 14.2235 3.3071 14.3546C3.139 14.4858 3.01955 14.6694 2.96774 14.8763C2.66835 16.0748 2.10113 18.3408 2.10113 18.3408C2.08355 18.4113 2.08226 18.4849 2.09735 18.5559C2.11245 18.627 2.14353 18.6937 2.18825 18.7509C2.23297 18.8082 2.29014 18.8545 2.35542 18.8863C2.42071 18.9182 2.4924 18.9348 2.56504 18.9348H18.5361C18.95 18.9348 19.3528 18.8005 19.6839 18.5522L22.059 16.7712C22.3982 16.5206 22.6445 16.1643 22.7591 15.7584C22.8737 15.3525 22.8502 14.9201 22.6922 14.5291Z" fill="#FF808C"/>
<path d="M12.322 15.8988C13.1767 15.7271 13.9715 15.3351 14.6281 14.7616C15.2845 14.1882 15.7798 13.4532 16.0649 12.6294C16.1071 12.5023 16.1765 12.386 16.2683 12.2885C16.3602 12.1911 16.4722 12.1148 16.5965 12.0652C16.7209 12.0155 16.8546 11.9936 16.9883 12.0011C17.1219 12.0085 17.2524 12.045 17.3705 12.1081L21.4692 14.2957C22.0004 14.5791 22.4605 14.979 22.8151 15.4655C22.8551 15.1476 22.8113 14.8247 22.6878 14.5291C22.3338 13.6807 21.6971 12.9811 20.8857 12.5491L16.7832 10.3615C16.6651 10.2984 16.5346 10.2618 16.4009 10.2545C16.2673 10.247 16.1336 10.2689 16.0092 10.3186C15.8849 10.3682 15.7729 10.4444 15.681 10.5419C15.5892 10.6394 15.5198 10.7557 15.4776 10.8828C15.1925 11.7066 14.6972 12.4416 14.0408 13.015C13.3842 13.5885 12.5894 13.9805 11.7347 14.1522H3.89123C3.67799 14.1522 3.47087 14.2235 3.30276 14.3546C3.13466 14.4858 3.01521 14.6694 2.9634 14.8763C2.88975 15.1699 2.80079 15.5267 2.70801 15.8988H12.322Z" fill="#FFBFC5"/>
<path d="M2.67417 16.0652C2.39869 17.169 2.10504 18.3408 2.10504 18.3408C2.08746 18.4113 2.08616 18.4848 2.10126 18.5559C2.11635 18.627 2.14744 18.6936 2.19216 18.7509C2.23686 18.8081 2.29404 18.8544 2.35933 18.8863C2.42461 18.9182 2.4963 18.9348 2.56895 18.9348H18.5362C18.9501 18.9348 19.3528 18.8005 19.684 18.5522L22.059 16.7711C22.3064 16.5856 22.5058 16.3436 22.6406 16.0652H2.67417Z" fill="#FFEF5E"/>
<path d="M1 21.8043H20.6087C21.2429 21.8043 21.8511 21.5524 22.2996 21.104C22.7481 20.6555 23 20.0472 23 19.413" stroke="#191919" stroke-linecap="round" stroke-linejoin="round"/>
<path d="M10.9481 14.1522H3.89947C3.68623 14.1522 3.47912 14.2235 3.31101 14.3546C3.14291 14.4858 3.02346 14.6694 2.97165 14.8763C2.67225 16.0748 2.10504 18.3408 2.10504 18.3408C2.08746 18.4113 2.08616 18.4849 2.10126 18.5559C2.11635 18.627 2.14744 18.6937 2.19216 18.7509C2.23686 18.8082 2.29404 18.8545 2.35933 18.8863C2.42461 18.9182 2.4963 18.9348 2.56895 18.9348H18.5362C18.9501 18.9348 19.3528 18.8005 19.684 18.5522L22.059 16.7712C22.3983 16.5206 22.6446 16.1643 22.7592 15.7584C22.8738 15.3525 22.8503 14.9201 22.6923 14.5291C22.3382 13.6807 21.7015 12.9811 20.8902 12.5491L16.7876 10.3615C16.6695 10.2984 16.539 10.2618 16.4054 10.2545C16.2717 10.247 16.138 10.2689 16.0136 10.3186C15.8893 10.3682 15.7773 10.4444 15.6854 10.5419C15.5936 10.6394 15.5242 10.7557 15.482 10.8828C15.3804 11.1872 15.2487 11.4807 15.0889 11.759" stroke="#191919" stroke-linecap="round" stroke-linejoin="round"/>
<path d="M15.9396 10.352L14.874 7.1543" stroke="#191919" stroke-linecap="round" stroke-linejoin="round"/>
<path d="M9.13082 6.02177C10.1874 6.02177 11.0439 5.16527 11.0439 4.10872C11.0439 3.05218 10.1874 2.19568 9.13082 2.19568C8.07427 2.19568 7.21777 3.05218 7.21777 4.10872C7.21777 5.16527 8.07427 6.02177 9.13082 6.02177Z" fill="#FFDDA1" stroke="#191919" stroke-linecap="round" stroke-linejoin="round"/>
<path d="M7.69531 14.1523V8.41314C7.69508 8.19855 7.767 7.99012 7.89953 7.82136C8.03205 7.65259 8.21747 7.53328 8.42599 7.48261C8.6345 7.43195 8.854 7.45287 9.04918 7.542C9.24438 7.63114 9.40393 7.78333 9.50218 7.97409C10.2025 8.99135 11.2127 9.75524 12.3823 10.1521L12.8385 10.3348C12.9551 10.3816 13.0614 10.4508 13.1513 10.5386C13.2412 10.6263 13.3129 10.7311 13.3623 10.8465C13.4118 10.9621 13.438 11.0861 13.4394 11.2118C13.4409 11.3374 13.4176 11.4622 13.3708 11.5788C13.3241 11.6954 13.2549 11.8017 13.1671 11.8915C13.0793 11.9815 12.9746 12.0531 12.8591 12.1025C12.7435 12.152 12.6195 12.1782 12.4938 12.1796C12.3682 12.1811 12.2435 12.1578 12.1269 12.1111L11.6716 11.9293C11.1034 11.7037 10.5699 11.399 10.0866 11.0245" stroke="#191919" stroke-linecap="round" stroke-linejoin="round"/>
<path d="M22.6412 16.0652H2.67383" stroke="#191919" stroke-linecap="round" stroke-linejoin="round"/>
</svg>
