<svg width="24" height="24" viewBox="0 0 24 24" fill="none" xmlns="http://www.w3.org/2000/svg">
<path d="M17.0417 22.5416V17.9583C18.2573 17.9583 19.4231 17.4754 20.2825 16.6159C21.1421 15.7564 21.625 14.5906 21.625 13.375V11.0833C21.625 8.53061 20.611 6.08245 18.8059 4.27741C17.0009 2.47238 14.5527 1.45831 12 1.45831C9.44729 1.45831 6.99913 2.47238 5.1941 4.27741C3.38906 6.08245 2.375 8.53061 2.375 11.0833V13.375C2.375 14.5906 2.85788 15.7564 3.71743 16.6159C4.57697 17.4754 5.74276 17.9583 6.95833 17.9583V22.5416H17.0417Z" fill="#E4F1F5"/>
<path d="M12 1.45831C9.44729 1.45831 6.99913 2.47238 5.1941 4.27741C3.38906 6.08245 2.375 8.53061 2.375 11.0833V13.5583C2.44418 11.0526 3.48821 8.67265 5.28501 6.92478C7.08182 5.1769 9.48963 4.19896 11.9963 4.19896C14.503 4.19896 16.9109 5.1769 18.7076 6.92478C20.5045 8.67265 21.5485 11.0526 21.6177 13.5583V11.0833C21.6177 8.53187 20.6047 6.08483 18.8012 4.28001C16.9977 2.47517 14.5515 1.46026 12 1.45831Z" fill="white"/>
<path d="M17.0417 22.5416V17.9583C18.2573 17.9583 19.4231 17.4754 20.2825 16.6159C21.1421 15.7564 21.625 14.5906 21.625 13.375V11.0833C21.625 8.53061 20.611 6.08245 18.8059 4.27741C17.0009 2.47238 14.5527 1.45831 12 1.45831C9.44729 1.45831 6.99913 2.47238 5.1941 4.27741C3.38906 6.08245 2.375 8.53061 2.375 11.0833V13.375C2.375 14.5906 2.85788 15.7564 3.71743 16.6159C4.57697 17.4754 5.74276 17.9583 6.95833 17.9583V22.5416" stroke="#191919" stroke-linecap="round" stroke-linejoin="round"/>
<path d="M6.90415 5.125C6.90415 7.63117 5.40449 8.79167 3.7499 8.79167H2.6499" stroke="#191919" stroke-linecap="round" stroke-linejoin="round"/>
<path d="M7.4165 15.2083C7.9604 15.2083 8.49208 15.0471 8.94432 14.7448C9.39656 14.4427 9.74904 14.0132 9.95717 13.5107C10.1653 13.0082 10.2198 12.4553 10.1137 11.9218C10.0076 11.3884 9.74564 10.8983 9.36105 10.5138C8.97645 10.1292 8.48645 9.86726 7.953 9.76116C7.41956 9.65504 6.86662 9.7095 6.36412 9.91764C5.86163 10.1258 5.43214 10.4782 5.12996 10.9305C4.82779 11.3827 4.6665 11.9145 4.6665 12.4583C4.6665 13.1877 4.95623 13.8871 5.47196 14.4028C5.98769 14.9186 6.68716 15.2083 7.4165 15.2083Z" fill="#98B7C0" stroke="#191919" stroke-linecap="round" stroke-linejoin="round"/>
<path d="M17.0957 5.125C17.0957 7.63117 18.5954 8.79167 20.25 8.79167H21.35" stroke="#191919" stroke-linecap="round" stroke-linejoin="round"/>
<path d="M16.5835 15.2083C17.1274 15.2083 17.6591 15.0471 18.1113 14.7448C18.5636 14.4427 18.916 14.0132 19.1241 13.5107C19.3323 13.0082 19.3868 12.4553 19.2807 11.9218C19.1745 11.3884 18.9127 10.8983 18.528 10.5138C18.1435 10.1292 17.6534 9.86726 17.12 9.76116C16.5865 9.65504 16.0336 9.7095 15.5311 9.91764C15.0286 10.1258 14.5991 10.4782 14.297 10.9305C13.9947 11.3827 13.8335 11.9145 13.8335 12.4583C13.8335 13.1877 14.1233 13.8871 14.639 14.4028C15.1547 14.9186 15.8542 15.2083 16.5835 15.2083Z" fill="#98B7C0" stroke="#191919" stroke-linecap="round" stroke-linejoin="round"/>
<path d="M11.0835 15.6667L11.3365 15.1597C11.3983 15.0366 11.4931 14.9331 11.6102 14.8608C11.7275 14.7885 11.8625 14.7502 12.0002 14.7502C12.1378 14.7502 12.2729 14.7885 12.3901 14.8608C12.5073 14.9331 12.602 15.0366 12.6638 15.1597L12.9168 15.6667" stroke="#191919" stroke-linecap="round" stroke-linejoin="round"/>
<path d="M10.1665 17.9583V22.5416" stroke="#191919" stroke-linecap="round" stroke-linejoin="round"/>
<path d="M13.8335 17.9583V22.5416" stroke="#191919" stroke-linecap="round" stroke-linejoin="round"/>
</svg>
