<svg width="24" height="24" viewBox="0 0 24 24" fill="none" xmlns="http://www.w3.org/2000/svg">
<g clip-path="url(#clip0_5303_8934)">
<path d="M1.72594 12.0077C1.71754 13.5071 2.03809 14.9901 2.66498 16.3521C3.29188 17.7142 4.20987 18.9223 5.35427 19.8911C6.49866 20.8599 7.84161 21.566 9.28848 21.9595C10.7353 22.3531 12.2509 22.4245 13.7284 22.1688C13.8476 22.1486 13.9701 22.1699 14.0756 22.229C14.9698 22.7358 15.9804 23.0015 17.0083 23C18.0626 22.9936 19.0968 22.7107 20.0076 22.1795C20.9183 21.6484 21.6738 20.8876 22.1985 19.9731C22.7232 19.0586 22.9989 18.0224 22.9978 16.9681C22.9968 15.9138 22.7191 14.8782 22.1926 13.9647C22.1328 13.8612 22.1102 13.7404 22.1285 13.6223C22.2127 13.0885 22.2558 12.5481 22.2567 12.0077C22.2651 10.511 21.9458 9.03069 21.3212 7.6706C20.6965 6.31052 19.7817 5.10366 18.641 4.13477C17.5003 3.16589 16.1613 2.45845 14.7181 2.06216C13.2748 1.66586 11.7623 1.5903 10.2868 1.84079C10.1677 1.8609 10.0452 1.83891 9.94054 1.77862C9.04183 1.26659 8.02496 0.998197 6.99063 1.00001C5.93816 1.00654 4.90576 1.28861 3.99618 1.81814C3.08661 2.34767 2.33158 3.10619 1.80626 4.0182C1.28093 4.93022 1.00363 5.96391 1.00196 7.0164C1.00029 8.06888 1.2743 9.10345 1.79672 10.0171C1.85599 10.1212 1.87792 10.2423 1.8589 10.3605C1.7709 10.9057 1.7269 11.4557 1.72594 12.0077ZM12.1013 4.68166C15.4118 4.87296 17.3507 6.33931 17.5391 7.70522C17.5685 7.91492 17.5499 8.12855 17.4848 8.33002C17.4196 8.53149 17.3096 8.71555 17.163 8.86833C17.0164 9.02111 16.837 9.13863 16.6384 9.21203C16.4398 9.28544 16.2271 9.31281 16.0164 9.29209C14.5185 9.29209 14.3664 7.2834 11.7876 7.2834C10.6245 7.2834 9.64211 7.76931 9.64211 8.82339C9.64211 11.0234 17.9045 9.74644 17.9045 14.5941C17.9045 17.389 15.6778 19.2198 12.3567 19.2198C9.43359 19.2198 6.4942 17.8883 6.5095 15.5965C6.49811 15.2626 6.61715 14.9374 6.8414 14.6898C7.06565 14.4421 7.3775 14.2915 7.71089 14.2698C9.43263 14.2698 9.41732 16.84 12.1587 16.84C14.0813 16.84 14.7413 15.7878 14.7413 15.0513C14.7413 12.3989 6.42915 14.025 6.42915 9.03574C6.42246 6.33931 8.63106 4.47696 12.1013 4.68166Z" fill="#C2F3FF"/>
<path d="M17.3625 16.7319C16.5179 18.2796 14.7234 19.2189 12.3532 19.2189C9.48363 19.2189 6.5978 17.9304 6.51841 15.7094C4.61697 14.6726 2.98414 13.2059 1.75015 11.4261C1.73868 11.6174 1.72624 11.8087 1.72624 12.0067C1.7177 13.5062 2.03814 14.9893 2.66498 16.3515C3.29181 17.7137 4.20979 18.9218 5.3542 19.8908C6.49861 20.8597 7.84161 21.5659 9.28854 21.9595C10.7355 22.353 12.2511 22.4245 13.7287 22.1688C13.8479 22.1487 13.9704 22.1699 14.0759 22.229C14.9702 22.736 15.9803 23.0019 17.0086 23C18.0599 22.9933 19.0912 22.7116 20 22.1829C20.9088 21.6543 21.6634 20.8971 22.189 19.9865C22.7146 19.076 22.9928 18.0437 22.996 16.9924C22.9992 15.941 22.7273 14.9071 22.2073 13.9934C20.7946 15.2251 19.1463 16.1568 17.3625 16.7319Z" fill="#66E1FF"/>
<path d="M1.72594 12.0077C1.71754 13.5071 2.03809 14.9901 2.66498 16.3521C3.29188 17.7142 4.20987 18.9223 5.35427 19.8911C6.49866 20.8599 7.84161 21.566 9.28848 21.9595C10.7353 22.3531 12.2509 22.4245 13.7284 22.1688C13.8476 22.1486 13.9701 22.1699 14.0756 22.229C14.9698 22.7358 15.9804 23.0015 17.0083 23C18.0626 22.9936 19.0968 22.7107 20.0076 22.1795C20.9183 21.6484 21.6738 20.8876 22.1985 19.9731C22.7232 19.0586 22.9989 18.0224 22.9978 16.9681C22.9968 15.9138 22.7191 14.8782 22.1926 13.9647C22.1328 13.8612 22.1102 13.7404 22.1285 13.6223C22.2127 13.0885 22.2558 12.5481 22.2567 12.0077C22.2651 10.511 21.9458 9.03069 21.3212 7.6706C20.6965 6.31052 19.7817 5.10366 18.641 4.13477C17.5003 3.16589 16.1613 2.45845 14.7181 2.06216C13.2748 1.66586 11.7623 1.5903 10.2868 1.84079C10.1677 1.8609 10.0452 1.83891 9.94054 1.77862C9.04183 1.26659 8.02496 0.998197 6.99063 1.00001C5.93816 1.00654 4.90576 1.28861 3.99618 1.81814C3.08661 2.34767 2.33158 3.10619 1.80626 4.0182C1.28093 4.93022 1.00363 5.96391 1.00196 7.0164C1.00029 8.06888 1.2743 9.10345 1.79672 10.0171C1.85599 10.1212 1.87792 10.2423 1.8589 10.3605C1.7709 10.9057 1.7269 11.4557 1.72594 12.0077ZM12.1013 4.68166C15.4118 4.87296 17.3507 6.33931 17.5391 7.70522C17.5685 7.91492 17.5499 8.12855 17.4848 8.33002C17.4196 8.53149 17.3096 8.71555 17.163 8.86833C17.0164 9.02111 16.837 9.13863 16.6384 9.21203C16.4398 9.28544 16.2271 9.31281 16.0164 9.29209C14.5185 9.29209 14.3664 7.2834 11.7876 7.2834C10.6245 7.2834 9.64211 7.76931 9.64211 8.82339C9.64211 11.0234 17.9045 9.74644 17.9045 14.5941C17.9045 17.389 15.6778 19.2198 12.3567 19.2198C9.43359 19.2198 6.4942 17.8883 6.5095 15.5965C6.49811 15.2626 6.61715 14.9374 6.8414 14.6898C7.06565 14.4421 7.3775 14.2915 7.71089 14.2698C9.43263 14.2698 9.41732 16.84 12.1587 16.84C14.0813 16.84 14.7413 15.7878 14.7413 15.0513C14.7413 12.3989 6.42915 14.025 6.42915 9.03574C6.42246 6.33931 8.63106 4.47696 12.1013 4.68166Z" stroke="#191919" stroke-linecap="round" stroke-linejoin="round"/>
</g>
<defs>
<clipPath id="clip0_5303_8934">
<rect width="24" height="24" fill="white"/>
</clipPath>
</defs>
</svg>
