<svg width="24" height="24" viewBox="0 0 24 24" fill="none" xmlns="http://www.w3.org/2000/svg">
<path d="M1 19.652H10.8349L11.7914 20.7998C12.24 21.3385 12.8015 21.7719 13.4363 22.0694C14.071 22.3669 14.7633 22.5213 15.4644 22.5216H17.5295C18.0368 22.5216 18.5234 22.32 18.8822 21.9612C19.241 21.6025 19.4425 21.1159 19.4425 20.6085H21.0868C21.3592 20.6085 21.6284 20.5504 21.8765 20.438C22.1247 20.3256 22.3459 20.1615 22.5255 19.9566C22.7051 19.7518 22.8388 19.5109 22.9178 19.2502C22.9968 18.9896 23.0192 18.7149 22.9835 18.4449L22.2011 12.5308C22.0992 11.8514 21.7569 11.2311 21.2365 10.7827C20.7161 10.3342 20.052 10.0873 19.365 10.0869H15.4529C14.6204 10.0869 13.8025 10.3042 13.0798 10.7173L10.8349 11.9999H1V19.652Z" fill="#FFDDA1"/>
<path d="M10.3413 14.7222L13.536 12.8971C14.5645 12.3091 15.7288 11.9998 16.9135 11.9999H22.0691C21.8714 11.4407 21.5052 10.9565 21.0209 10.6139C20.5367 10.2713 19.9582 10.0872 19.365 10.0869H15.4529C14.6204 10.0869 13.8025 10.3042 13.0798 10.7173L10.8349 11.9999H1V14.7222H10.3413Z" fill="#FFDDA1"/>
<path d="M1 19.652H10.8349L11.7914 20.7998C12.24 21.3385 12.8015 21.7719 13.4363 22.0694C14.071 22.3669 14.7633 22.5213 15.4644 22.5216H17.5295C18.0368 22.5216 18.5234 22.32 18.8822 21.9612C19.241 21.6025 19.4425 21.1159 19.4425 20.6085H21.0868C21.3592 20.6085 21.6284 20.5504 21.8765 20.438C22.1247 20.3256 22.3459 20.1615 22.5255 19.9566C22.7051 19.7518 22.8388 19.5109 22.9178 19.2502C22.9968 18.9896 23.0192 18.7149 22.9835 18.4449L22.2011 12.5308C22.0992 11.8514 21.7569 11.2311 21.2365 10.7827C20.7161 10.3342 20.052 10.0873 19.365 10.0869H15.4529C14.6204 10.0869 13.8025 10.3042 13.0798 10.7173L10.8349 11.9999H1" stroke="#191919" stroke-linecap="round" stroke-linejoin="round"/>
<path d="M1 3.76246C2.55087 2.29572 4.60446 1.47842 6.73907 1.47842C8.87368 1.47842 10.9273 2.29572 12.4781 3.76246L7.88689 8.17389C7.57676 7.88046 7.16602 7.71695 6.73907 7.71695C6.31212 7.71695 5.90139 7.88046 5.59126 8.17389L1 3.76246Z" fill="#C2F3FF"/>
<path d="M7.88694 8.17389C7.57681 7.88047 7.16607 7.71695 6.73912 7.71695C6.31217 7.71695 5.90144 7.88047 5.59131 8.17389" stroke="#191919" stroke-linecap="round" stroke-linejoin="round"/>
<path d="M10.1823 5.96815C9.25169 5.08827 8.01957 4.59802 6.73885 4.59802C5.45815 4.59802 4.22602 5.08827 3.29541 5.96815" stroke="#191919" stroke-linecap="round" stroke-linejoin="round"/>
<path d="M12.4781 3.76246C10.9273 2.29572 8.87368 1.47842 6.73907 1.47842C4.60446 1.47842 2.55087 2.29572 1 3.76246" stroke="#191919" stroke-linecap="round" stroke-linejoin="round"/>
<path d="M8.65173 12.9565V11.0434H4.82568V20.6085H8.65173V12.9565Z" fill="#E3E3E3" stroke="#191919" stroke-linecap="round" stroke-linejoin="round"/>
<path d="M8.65219 12.9565H4.82614C4.29788 12.9565 3.86963 13.3847 3.86963 13.913V17.739C3.86963 18.2673 4.29788 18.6955 4.82614 18.6955H8.65219C9.18045 18.6955 9.6087 18.2673 9.6087 17.739V13.913C9.6087 13.3847 9.18045 12.9565 8.65219 12.9565Z" fill="#66E1FF"/>
<path d="M9.32844 13.2367C9.14911 13.0574 8.90585 12.9565 8.65219 12.9565H4.82614C4.57245 12.9565 4.32917 13.0573 4.14978 13.2366C3.97041 13.416 3.86963 13.6593 3.86963 13.913V17.739C3.86969 17.9927 3.97049 18.2359 4.14989 18.4153L9.32844 13.2367Z" fill="#C2F3FF"/>
<path d="M8.65219 12.9565H4.82614C4.29788 12.9565 3.86963 13.3847 3.86963 13.913V17.739C3.86963 18.2673 4.29788 18.6955 4.82614 18.6955H8.65219C9.18045 18.6955 9.6087 18.2673 9.6087 17.739V13.913C9.6087 13.3847 9.18045 12.9565 8.65219 12.9565Z" stroke="#191919" stroke-linecap="round" stroke-linejoin="round"/>
<path d="M19.4435 20.6086H16.3042" stroke="#191919" stroke-linecap="round" stroke-linejoin="round"/>
</svg>
