<svg width="24" height="24" viewBox="0 0 24 24" fill="none" xmlns="http://www.w3.org/2000/svg">
<g clip-path="url(#clip0_5303_5766)">
<path d="M18.2175 3.86957H5.78267C5.2753 3.86957 4.78871 4.07112 4.42995 4.42989C4.07118 4.78865 3.86963 5.27524 3.86963 5.78261V18.2174C3.86963 18.7248 4.07118 19.2114 4.42995 19.5701C4.78871 19.9289 5.2753 20.1305 5.78267 20.1305H18.2175C18.7248 20.1305 19.2114 19.9289 19.5702 19.5701C19.929 19.2114 20.1305 18.7248 20.1305 18.2174V5.78261C20.1305 5.27524 19.929 4.78865 19.5702 4.42989C19.2114 4.07112 18.7248 3.86957 18.2175 3.86957Z" fill="#66E1FF"/>
<path d="M19.57 4.43009C19.3925 4.25222 19.1817 4.11115 18.9496 4.01496C18.7175 3.91877 18.4687 3.86936 18.2175 3.86957H5.78268C5.2753 3.86957 4.78871 4.07112 4.42995 4.42989C4.07118 4.78865 3.86963 5.27524 3.86963 5.78261V18.2174C3.86937 18.4687 3.91876 18.7175 4.01495 18.9496C4.11114 19.1817 4.25224 19.3925 4.43015 19.5699L19.57 4.43009Z" fill="#C2F3FF"/>
<path d="M18.2175 3.86957H5.78267C5.2753 3.86957 4.78871 4.07112 4.42995 4.42989C4.07118 4.78865 3.86963 5.27524 3.86963 5.78261V18.2174C3.86963 18.7248 4.07118 19.2114 4.42995 19.5701C4.78871 19.9289 5.2753 20.1305 5.78267 20.1305H18.2175C18.7248 20.1305 19.2114 19.9289 19.5702 19.5701C19.929 19.2114 20.1305 18.7248 20.1305 18.2174V5.78261C20.1305 5.27524 19.929 4.78865 19.5702 4.42989C19.2114 4.07112 18.7248 3.86957 18.2175 3.86957Z" stroke="#191919" stroke-linecap="round" stroke-linejoin="round"/>
<path d="M16.304 3.86957H7.69531L8.65184 1H15.3475L16.304 3.86957Z" fill="#E3E3E3" stroke="#191919" stroke-linecap="round" stroke-linejoin="round"/>
<path d="M7.69531 20.1304H16.304L15.3475 23H8.65184L7.69531 20.1304Z" fill="#E3E3E3" stroke="#191919" stroke-linecap="round" stroke-linejoin="round"/>
<path d="M12.0073 16.1848L7.93157 11.9321C7.57346 11.5744 7.33704 11.113 7.25584 10.6134C7.17463 10.1138 7.25276 9.60134 7.47914 9.14862C7.65001 8.80679 7.89968 8.51047 8.20757 8.28408C8.51545 8.05769 8.87273 7.90772 9.24996 7.84653C9.62719 7.78534 10.0136 7.81468 10.3772 7.93214C10.7409 8.0496 11.0714 8.25181 11.3416 8.5221L12.0111 9.19166L12.6807 8.5221C12.9508 8.25161 13.2813 8.04922 13.645 7.93164C14.0087 7.81406 14.3951 7.78466 14.7724 7.84586C15.1497 7.90706 15.5071 8.05711 15.815 8.28363C16.1228 8.51014 16.3724 8.80663 16.5431 9.14862C16.7694 9.60131 16.8475 10.1137 16.7665 10.6132C16.6854 11.1127 16.4494 11.5741 16.0917 11.9321L12.0073 16.1848Z" fill="#FF808C"/>
<path d="M16.5358 9.1486C16.3651 8.80607 16.1153 8.5091 15.8071 8.28223C15.4989 8.05536 15.1411 7.90511 14.7633 7.84389C14.3856 7.78267 13.9986 7.81225 13.6346 7.93017C13.2705 8.0481 12.9397 8.25099 12.6696 8.52207L12 9.19164L11.3304 8.52207C10.956 8.15456 10.4716 7.91956 9.95117 7.85287C9.43074 7.78618 8.90278 7.89146 8.44775 8.15268C7.99271 8.41389 7.63555 8.81671 7.43069 9.29975C7.22583 9.78278 7.18451 10.3196 7.31303 10.8282C7.9386 11.4652 8.69065 11.9641 9.52074 12.2928C10.3508 12.6215 11.2406 12.7727 12.1327 12.7367C13.0247 12.7006 13.8994 12.4782 14.7002 12.0836C15.5011 11.689 16.2105 11.131 16.7826 10.4456C16.8237 9.9987 16.7382 9.54922 16.5358 9.1486Z" fill="#FFBFC5"/>
<path d="M12.0073 16.1848L7.93157 11.9321C7.57346 11.5744 7.33704 11.113 7.25584 10.6134C7.17463 10.1138 7.25276 9.60134 7.47914 9.14862C7.65001 8.80679 7.89968 8.51047 8.20757 8.28408C8.51545 8.05769 8.87273 7.90772 9.24996 7.84653C9.62719 7.78534 10.0136 7.81468 10.3772 7.93214C10.7409 8.0496 11.0714 8.25181 11.3416 8.5221L12.0111 9.19166L12.6807 8.5221C12.9508 8.25161 13.2813 8.04922 13.645 7.93164C14.0087 7.81406 14.3951 7.78466 14.7724 7.84586C15.1497 7.90706 15.5071 8.05711 15.815 8.28363C16.1228 8.51014 16.3724 8.80663 16.5431 9.14862C16.7694 9.60131 16.8475 10.1137 16.7665 10.6132C16.6854 11.1127 16.4494 11.5741 16.0917 11.9321L12.0073 16.1848Z" stroke="#191919" stroke-linecap="round" stroke-linejoin="round"/>
</g>
<defs>
<clipPath id="clip0_5303_5766">
<rect width="24" height="24" fill="white"/>
</clipPath>
</defs>
</svg>
