<svg width="24" height="24" viewBox="0 0 24 24" fill="none" xmlns="http://www.w3.org/2000/svg">
<g clip-path="url(#clip0_5303_5581)">
<path d="M18.2174 3.86957H5.78267C5.2753 3.86957 4.78871 4.07112 4.42995 4.42988C4.07118 4.78865 3.86963 5.27524 3.86963 5.78261V18.2174C3.86963 18.7247 4.07118 19.2113 4.42995 19.5701C4.78871 19.9289 5.2753 20.1304 5.78267 20.1304H18.2174C18.7248 20.1304 19.2114 19.9289 19.5702 19.5701C19.9289 19.2113 20.1305 18.7247 20.1305 18.2174V5.78261C20.1305 5.27524 19.9289 4.78865 19.5702 4.42988C19.2114 4.07112 18.7248 3.86957 18.2174 3.86957Z" fill="#66E1FF"/>
<path d="M19.5699 4.43009C19.3925 4.25222 19.1817 4.11115 18.9496 4.01496C18.7175 3.91877 18.4687 3.86936 18.2174 3.86957H5.78267C5.2753 3.86957 4.78871 4.07112 4.42995 4.42989C4.07118 4.78865 3.86963 5.27524 3.86963 5.78261V18.2174C3.86937 18.4686 3.91876 18.7174 4.01495 18.9496C4.11114 19.1817 4.25224 19.3925 4.43015 19.5699L19.5699 4.43009Z" fill="#C2F3FF"/>
<path d="M18.2174 3.86957H5.78267C5.2753 3.86957 4.78871 4.07112 4.42995 4.42988C4.07118 4.78865 3.86963 5.27524 3.86963 5.78261V18.2174C3.86963 18.7247 4.07118 19.2113 4.42995 19.5701C4.78871 19.9289 5.2753 20.1304 5.78267 20.1304H18.2174C18.7248 20.1304 19.2114 19.9289 19.5702 19.5701C19.9289 19.2113 20.1305 18.7247 20.1305 18.2174V5.78261C20.1305 5.27524 19.9289 4.78865 19.5702 4.42988C19.2114 4.07112 18.7248 3.86957 18.2174 3.86957Z" stroke="#191919" stroke-linecap="round" stroke-linejoin="round"/>
<path d="M16.304 3.86956H7.69531L8.65183 1H15.3475L16.304 3.86956Z" fill="#E3E3E3" stroke="#191919" stroke-linecap="round" stroke-linejoin="round"/>
<path d="M7.69531 20.1304H16.304L15.3475 23H8.65183L7.69531 20.1304Z" fill="#E3E3E3" stroke="#191919" stroke-linecap="round" stroke-linejoin="round"/>
<path d="M12 7.69568V10.9756" stroke="#191919" stroke-linecap="round" stroke-linejoin="round"/>
<path d="M14.7049 9.29492C15.2402 9.82996 15.6047 10.5117 15.7524 11.2539C15.9001 11.9961 15.8244 12.7655 15.5349 13.4647C15.2453 14.1639 14.7549 14.7615 14.1257 15.182C13.4965 15.6024 12.7567 15.8269 11.9999 15.8269C11.2431 15.8269 10.5034 15.6024 9.87413 15.182C9.24491 14.7615 8.75452 14.1639 8.46496 13.4647C8.17541 12.7655 8.09971 11.9961 8.24743 11.2539C8.39516 10.5117 8.75967 9.82996 9.29487 9.29492" stroke="#191919" stroke-linecap="round" stroke-linejoin="round"/>
</g>
<defs>
<clipPath id="clip0_5303_5581">
<rect width="24" height="24" fill="white"/>
</clipPath>
</defs>
</svg>
