<svg width="24" height="24" viewBox="0 0 24 24" fill="none" xmlns="http://www.w3.org/2000/svg">
<g clip-path="url(#clip0_5303_5798)">
<path d="M18.2175 3.86957H5.78267C5.2753 3.86957 4.78871 4.07112 4.42995 4.42989C4.07118 4.78865 3.86963 5.27524 3.86963 5.78261V18.2174C3.86963 18.7248 4.07118 19.2114 4.42995 19.5701C4.78871 19.9289 5.2753 20.1305 5.78267 20.1305H18.2175C18.7248 20.1305 19.2114 19.9289 19.5702 19.5701C19.929 19.2114 20.1305 18.7248 20.1305 18.2174V5.78261C20.1305 5.27524 19.929 4.78865 19.5702 4.42989C19.2114 4.07112 18.7248 3.86957 18.2175 3.86957Z" fill="#66E1FF" stroke="#191919" stroke-linecap="round" stroke-linejoin="round"/>
<path d="M16.304 3.86957H7.69531L8.65184 1H15.3475L16.304 3.86957Z" fill="#E3E3E3" stroke="#191919" stroke-linecap="round" stroke-linejoin="round"/>
<path d="M7.69531 20.1304H16.304L15.3475 23H8.65184L7.69531 20.1304Z" fill="#E3E3E3" stroke="#191919" stroke-linecap="round" stroke-linejoin="round"/>
<path d="M11.9997 17.2599C12.3803 17.2599 12.7452 17.1088 13.0143 16.8397C13.2833 16.5706 13.4345 16.2057 13.4345 15.8251C13.4345 15.4446 13.2833 15.0797 13.0143 14.8106C12.7452 14.5415 12.3803 14.3904 11.9997 14.3904C11.6192 14.3904 11.2543 14.5415 10.9852 14.8106C10.7161 15.0797 10.5649 15.4446 10.5649 15.8251C10.5649 16.2057 10.7161 16.5706 10.9852 16.8397C11.2543 17.1088 11.6192 17.2599 11.9997 17.2599Z" fill="#FFEF5E" stroke="#191919" stroke-linecap="round" stroke-linejoin="round"/>
<path d="M15.1811 12.5921C14.266 11.8971 13.1484 11.5208 11.9993 11.5208C10.8501 11.5208 9.73253 11.8971 8.81738 12.5921" stroke="#191919" stroke-linecap="round" stroke-linejoin="round"/>
<path d="M17.739 9.6087C16.0829 8.36795 14.0692 7.69733 11.9999 7.69733C9.93052 7.69733 7.91688 8.36795 6.26074 9.6087" stroke="#191919" stroke-linecap="round" stroke-linejoin="round"/>
</g>
<defs>
<clipPath id="clip0_5303_5798">
<rect width="24" height="24" fill="white"/>
</clipPath>
</defs>
</svg>
