<svg width="24" height="24" viewBox="0 0 24 24" fill="none" xmlns="http://www.w3.org/2000/svg">
<g clip-path="url(#clip0_5303_5297)">
<path d="M7.53076 5.20583L8.65181 1H15.3475L16.4685 5.20679" fill="#E3E3E3"/>
<path d="M7.53076 5.20583L8.65181 1H15.3475L16.4685 5.20679" stroke="#191919" stroke-linecap="round" stroke-linejoin="round"/>
<path d="M7.51367 18.731L8.65193 23H15.3476L16.5012 18.7721" fill="#E3E3E3"/>
<path d="M7.51367 18.731L8.65193 23H15.3476L16.5012 18.7721" stroke="#191919" stroke-linecap="round" stroke-linejoin="round"/>
<path d="M12.0001 20.1305C14.1564 20.1305 16.2244 19.2739 17.7492 17.7491C19.2739 16.2244 20.1305 14.1563 20.1305 12C20.1305 9.84369 19.2739 7.77568 17.7492 6.25092C16.2244 4.72617 14.1564 3.86957 12.0001 3.86957C9.84375 3.86957 7.77574 4.72617 6.25098 6.25092C4.72623 7.77568 3.86963 9.84369 3.86963 12C3.86963 14.1563 4.72623 16.2244 6.25098 17.7491C7.77574 19.2739 9.84375 20.1305 12.0001 20.1305Z" fill="#66E1FF"/>
<path d="M6.25131 17.7487C4.75588 16.218 3.9242 14.1595 3.93666 12.0196C3.94912 9.8797 4.80472 7.831 6.31788 6.31785C7.83103 4.80469 9.87973 3.94909 12.0196 3.93663C14.1595 3.92417 16.218 4.75585 17.7487 6.25128L6.25131 17.7487Z" fill="#C2F3FF"/>
<path d="M12.0001 20.1305C14.1564 20.1305 16.2244 19.2739 17.7492 17.7491C19.2739 16.2244 20.1305 14.1563 20.1305 12C20.1305 9.84369 19.2739 7.77568 17.7492 6.25092C16.2244 4.72617 14.1564 3.86957 12.0001 3.86957C9.84375 3.86957 7.77574 4.72617 6.25098 6.25092C4.72623 7.77568 3.86963 9.84369 3.86963 12C3.86963 14.1563 4.72623 16.2244 6.25098 17.7491C7.77574 19.2739 9.84375 20.1305 12.0001 20.1305Z" stroke="#191919" stroke-linecap="round" stroke-linejoin="round"/>
<path d="M11.9999 15.3C11.9365 15.3 11.8756 15.2748 11.8308 15.2299C11.7859 15.1851 11.7607 15.1243 11.7607 15.0608C11.7607 14.9974 11.7859 14.9366 11.8308 14.8918C11.8756 14.8469 11.9365 14.8217 11.9999 14.8217" stroke="#191919"/>
<path d="M12 15.3C12.0634 15.3 12.1242 15.2748 12.1691 15.2299C12.2139 15.1851 12.2391 15.1243 12.2391 15.0608C12.2391 14.9974 12.2139 14.9366 12.1691 14.8918C12.1242 14.8469 12.0634 14.8217 12 14.8217" stroke="#191919"/>
<path d="M15.826 10.4839C14.7432 9.60801 13.3927 9.13013 11.9999 9.13013C10.6072 9.13013 9.25662 9.60801 8.17383 10.4839" stroke="#191919" stroke-linecap="round" stroke-linejoin="round"/>
<path d="M9.76807 12.7891C10.3997 12.2785 11.1874 11.9999 11.9996 11.9999C12.8119 11.9999 13.5995 12.2785 14.2312 12.7891" stroke="#191919" stroke-linecap="round" stroke-linejoin="round"/>
</g>
<defs>
<clipPath id="clip0_5303_5297">
<rect width="24" height="24" fill="white"/>
</clipPath>
</defs>
</svg>
