<svg width="24" height="24" viewBox="0 0 24 24" fill="none" xmlns="http://www.w3.org/2000/svg">
<g clip-path="url(#clip0_5303_5405)">
<path d="M18.2174 3.86957H5.78267C5.2753 3.86957 4.78871 4.07112 4.42995 4.42988C4.07118 4.78865 3.86963 5.27524 3.86963 5.78261V18.2174C3.86963 18.7247 4.07118 19.2113 4.42995 19.5701C4.78871 19.9289 5.2753 20.1304 5.78267 20.1304H18.2174C18.7248 20.1304 19.2114 19.9289 19.5702 19.5701C19.9289 19.2113 20.1305 18.7247 20.1305 18.2174V5.78261C20.1305 5.27524 19.9289 4.78865 19.5702 4.42988C19.2114 4.07112 18.7248 3.86957 18.2174 3.86957Z" fill="#66E1FF"/>
<path d="M19.5699 4.43009C19.3925 4.25222 19.1817 4.11115 18.9496 4.01496C18.7175 3.91877 18.4687 3.86936 18.2174 3.86957H5.78267C5.2753 3.86957 4.78871 4.07112 4.42995 4.42989C4.07118 4.78865 3.86963 5.27524 3.86963 5.78261V18.2174C3.86937 18.4686 3.91876 18.7174 4.01495 18.9496C4.11114 19.1817 4.25224 19.3925 4.43015 19.5699L19.5699 4.43009Z" fill="#C2F3FF"/>
<path d="M18.2174 3.86957H5.78267C5.2753 3.86957 4.78871 4.07112 4.42995 4.42988C4.07118 4.78865 3.86963 5.27524 3.86963 5.78261V18.2174C3.86963 18.7247 4.07118 19.2113 4.42995 19.5701C4.78871 19.9289 5.2753 20.1304 5.78267 20.1304H18.2174C18.7248 20.1304 19.2114 19.9289 19.5702 19.5701C19.9289 19.2113 20.1305 18.7247 20.1305 18.2174V5.78261C20.1305 5.27524 19.9289 4.78865 19.5702 4.42988C19.2114 4.07112 18.7248 3.86957 18.2174 3.86957Z" stroke="#191919" stroke-linecap="round" stroke-linejoin="round"/>
<path d="M16.304 3.86956H7.69531L8.65183 1H15.3475L16.304 3.86956Z" fill="#E3E3E3" stroke="#191919" stroke-linecap="round" stroke-linejoin="round"/>
<path d="M7.69531 20.1304H16.304L15.3475 23H8.65183L7.69531 20.1304Z" fill="#E3E3E3" stroke="#191919" stroke-linecap="round" stroke-linejoin="round"/>
<path d="M15.826 11.5218C15.826 13.9131 11.9999 17.2609 11.9999 17.2609C11.9999 17.2609 8.17383 13.9131 8.17383 11.5218C8.17383 11.0193 8.27279 10.5218 8.46507 10.0576C8.65735 9.59338 8.93918 9.1716 9.29446 8.81631C9.64975 8.46103 10.0715 8.1792 10.5357 7.98692C10.9999 7.79464 11.4975 7.69568 11.9999 7.69568C12.5024 7.69568 12.9999 7.79464 13.4641 7.98692C13.9283 8.1792 14.3501 8.46103 14.7054 8.81631C15.0606 9.1716 15.3425 9.59338 15.5347 10.0576C15.727 10.5218 15.826 11.0193 15.826 11.5218Z" fill="#FF808C"/>
<path d="M11.9999 7.69568C10.9852 7.69568 10.012 8.09878 9.29446 8.81631C8.57693 9.53384 8.17383 10.507 8.17383 11.5218C8.26466 12.4611 8.61765 13.356 9.19252 14.1044L14.5825 8.71629C13.8811 8.06263 12.9587 7.6981 11.9999 7.69568Z" fill="#FFBFC5"/>
<path d="M15.826 11.5218C15.826 13.9131 11.9999 17.2609 11.9999 17.2609C11.9999 17.2609 8.17383 13.9131 8.17383 11.5218C8.17383 11.0193 8.27279 10.5218 8.46507 10.0576C8.65735 9.59338 8.93918 9.1716 9.29446 8.81631C9.64975 8.46103 10.0715 8.1792 10.5357 7.98692C10.9999 7.79464 11.4975 7.69568 11.9999 7.69568C12.5024 7.69568 12.9999 7.79464 13.4641 7.98692C13.9283 8.1792 14.3501 8.46103 14.7054 8.81631C15.0606 9.1716 15.3425 9.59338 15.5347 10.0576C15.727 10.5218 15.826 11.0193 15.826 11.5218Z" stroke="#191919" stroke-linecap="round" stroke-linejoin="round"/>
<path d="M11.9999 11.7197C11.9365 11.7197 11.8756 11.6945 11.8308 11.6497C11.7859 11.6048 11.7607 11.544 11.7607 11.4806C11.7607 11.4172 11.7859 11.3563 11.8308 11.3115C11.8756 11.2666 11.9365 11.2415 11.9999 11.2415" stroke="#191919"/>
<path d="M12 11.7197C12.0634 11.7197 12.1242 11.6945 12.1691 11.6497C12.2139 11.6048 12.2391 11.544 12.2391 11.4806C12.2391 11.4172 12.2139 11.3563 12.1691 11.3115C12.1242 11.2666 12.0634 11.2415 12 11.2415" stroke="#191919"/>
</g>
<defs>
<clipPath id="clip0_5303_5405">
<rect width="24" height="24" fill="white"/>
</clipPath>
</defs>
</svg>
