<svg width="24" height="24" viewBox="0 0 24 24" fill="none" xmlns="http://www.w3.org/2000/svg">
<g clip-path="url(#clip0_5303_5746)">
<path d="M18.2175 3.86957H5.78267C4.72613 3.86957 3.86963 4.72607 3.86963 5.78261V18.2174C3.86963 19.274 4.72613 20.1305 5.78267 20.1305H18.2175C19.274 20.1305 20.1305 19.274 20.1305 18.2174V5.78261C20.1305 4.72607 19.274 3.86957 18.2175 3.86957Z" fill="#66E1FF"/>
<path d="M19.57 4.43009C19.3926 4.25218 19.1817 4.11108 18.9497 4.01488C18.7175 3.9187 18.4688 3.86931 18.2175 3.86957H5.78268C5.27531 3.86957 4.78871 4.07112 4.42995 4.42989C4.07118 4.78865 3.86963 5.27525 3.86963 5.78261V18.2174C3.86937 18.4687 3.91876 18.7175 4.01494 18.9496C4.11114 19.1817 4.25224 19.3925 4.43015 19.5699L19.57 4.43009Z" fill="#C2F3FF"/>
<path d="M18.2175 3.86957H5.78267C4.72613 3.86957 3.86963 4.72607 3.86963 5.78261V18.2174C3.86963 19.274 4.72613 20.1305 5.78267 20.1305H18.2175C19.274 20.1305 20.1305 19.274 20.1305 18.2174V5.78261C20.1305 4.72607 19.274 3.86957 18.2175 3.86957Z" stroke="#191919" stroke-linecap="round" stroke-linejoin="round"/>
<path d="M16.304 3.86957H7.69531L8.65184 1H15.3475L16.304 3.86957Z" fill="#E3E3E3" stroke="#191919" stroke-linecap="round" stroke-linejoin="round"/>
<path d="M7.69531 20.1304H16.304L15.3475 23H8.65184L7.69531 20.1304Z" fill="#E3E3E3" stroke="#191919" stroke-linecap="round" stroke-linejoin="round"/>
<path d="M11.9999 16.7826C14.6412 16.7826 16.7825 14.6413 16.7825 12C16.7825 9.35863 14.6412 7.21738 11.9999 7.21738C9.35854 7.21738 7.21729 9.35863 7.21729 12C7.21729 14.6413 9.35854 16.7826 11.9999 16.7826Z" fill="#78EB7B"/>
<path d="M8.61778 15.3823C7.72074 14.4852 7.2168 13.2686 7.2168 12C7.2168 10.7314 7.72074 9.51478 8.61778 8.61775C9.5148 7.72072 10.7314 7.21677 12.0001 7.21677C13.2686 7.21677 14.4853 7.72072 15.3823 8.61775L8.61778 15.3823Z" fill="#C9F7CA"/>
<path d="M11.9999 16.7826C14.6412 16.7826 16.7825 14.6413 16.7825 12C16.7825 9.35863 14.6412 7.21738 11.9999 7.21738C9.35854 7.21738 7.21729 9.35863 7.21729 12C7.21729 14.6413 9.35854 16.7826 11.9999 16.7826Z" stroke="#191919" stroke-linecap="round" stroke-linejoin="round"/>
<path d="M12 13.913V10.0869" stroke="#191919" stroke-linecap="round" stroke-linejoin="round"/>
<path d="M10.0869 12L12 13.913L13.913 12" stroke="#191919" stroke-linecap="round" stroke-linejoin="round"/>
</g>
<defs>
<clipPath id="clip0_5303_5746">
<rect width="24" height="24" fill="white"/>
</clipPath>
</defs>
</svg>
