<svg width="24" height="24" viewBox="0 0 24 24" fill="none" xmlns="http://www.w3.org/2000/svg">
<g clip-path="url(#clip0_5303_5478)">
<path d="M7.53076 5.20583L8.65181 1H15.3475L16.4685 5.20678" fill="#E3E3E3"/>
<path d="M7.53076 5.20583L8.65181 1H15.3475L16.4685 5.20678" stroke="#191919" stroke-linecap="round" stroke-linejoin="round"/>
<path d="M7.51367 18.731L8.65193 23H15.3476L16.5011 18.7722" fill="#E3E3E3"/>
<path d="M7.51367 18.731L8.65193 23H15.3476L16.5011 18.7722" stroke="#191919" stroke-linecap="round" stroke-linejoin="round"/>
<path d="M12.0001 20.1304C14.1564 20.1304 16.2244 19.2738 17.7491 17.7491C19.2739 16.2243 20.1305 14.1563 20.1305 12C20.1305 9.84368 19.2739 7.77567 17.7491 6.25092C16.2244 4.72616 14.1564 3.86957 12.0001 3.86957C9.84374 3.86957 7.77573 4.72616 6.25098 6.25092C4.72623 7.77567 3.86963 9.84368 3.86963 12C3.86963 14.1563 4.72623 16.2243 6.25098 17.7491C7.77573 19.2738 9.84374 20.1304 12.0001 20.1304Z" fill="#66E1FF"/>
<path d="M6.25131 17.7487C4.75588 16.218 3.9242 14.1595 3.93666 12.0196C3.94912 9.87969 4.80472 7.831 6.31787 6.31784C7.83103 4.80469 9.87973 3.94909 12.0196 3.93663C14.1595 3.92417 16.218 4.75585 17.7487 6.25128L6.25131 17.7487Z" fill="#C2F3FF"/>
<path d="M12.0001 20.1304C14.1564 20.1304 16.2244 19.2738 17.7491 17.7491C19.2739 16.2243 20.1305 14.1563 20.1305 12C20.1305 9.84368 19.2739 7.77567 17.7491 6.25092C16.2244 4.72616 14.1564 3.86957 12.0001 3.86957C9.84374 3.86957 7.77573 4.72616 6.25098 6.25092C4.72623 7.77567 3.86963 9.84368 3.86963 12C3.86963 14.1563 4.72623 16.2243 6.25098 17.7491C7.77573 19.2738 9.84374 20.1304 12.0001 20.1304Z" stroke="#191919" stroke-linecap="round" stroke-linejoin="round"/>
</g>
<defs>
<clipPath id="clip0_5303_5478">
<rect width="24" height="24" fill="white"/>
</clipPath>
</defs>
</svg>
