<svg width="24" height="24" viewBox="0 0 24 24" fill="none" xmlns="http://www.w3.org/2000/svg">
<g clip-path="url(#clip0_5303_9315)">
<path d="M12.0005 22.9997C18.0755 22.9997 23.0001 18.0751 23.0001 12.0002C23.0001 5.92529 18.0755 1.00061 12.0005 1.00061C5.92566 1.00061 1.00098 5.92529 1.00098 12.0002C1.00098 18.0751 5.92566 22.9997 12.0005 22.9997Z" fill="#FFEF5E"/>
<path d="M6.93057 6.93082C8.61019 5.25052 10.758 4.1165 13.0928 3.67722C15.4277 3.23793 17.8408 3.51383 20.0162 4.46882C19.9378 4.38561 19.8594 4.30335 19.7781 4.22205C17.7152 2.15916 14.9173 1.00024 11.9999 1.00024C9.08257 1.00024 6.28469 2.15916 4.2218 4.22205C2.15892 6.28494 1 9.08282 1 12.0002C0.999999 14.9175 2.15892 17.7154 4.2218 19.7783C4.3031 19.8596 4.38536 19.938 4.46858 20.0165C3.51359 17.841 3.23769 15.4279 3.67697 13.0931C4.11626 10.7583 5.25027 8.61043 6.93057 6.93082Z" fill="#FFF9BF"/>
<path d="M19.3045 3.79549C17.2116 1.92635 14.4829 0.929027 11.678 1.00816C8.87305 1.08728 6.20479 2.23686 4.22064 4.22101C2.23649 6.20515 1.08692 8.87341 1.00779 11.6783C0.928664 14.4832 1.92599 17.212 3.79512 19.3048" stroke="#191919" stroke-linecap="round" stroke-linejoin="round"/>
<path d="M22.6815 9.41766C23.128 11.2486 23.0956 13.1636 22.5873 14.9784C22.079 16.7931 21.1119 18.4464 19.7794 19.7791C18.4467 21.1116 16.7934 22.0787 14.9787 22.5869C13.1639 23.0953 11.2489 23.1277 9.41797 22.6812" stroke="#191919" stroke-linecap="round" stroke-linejoin="round"/>
<path d="M8.3438 20.2107C8.409 20.5856 8.32258 20.9711 8.10356 21.2823C7.88455 21.5934 7.55087 21.8049 7.17594 21.8702C6.801 21.9353 6.41553 21.8489 6.10432 21.6299C5.7931 21.4109 5.58163 21.0772 5.51644 20.7023C5.38062 19.9218 6.43849 17.6301 6.43849 17.6301C6.43849 17.6301 8.20798 19.4302 8.3438 20.2107Z" fill="#66E1FF" stroke="#191919" stroke-linecap="round" stroke-linejoin="round"/>
<path d="M20.211 8.3435C20.5859 8.40894 20.9715 8.32277 21.2829 8.10393C21.5943 7.8851 21.806 7.55152 21.8715 7.17659C21.9369 6.80166 21.8507 6.41608 21.6319 6.10469C21.413 5.79328 21.0795 5.58158 20.7046 5.51613C19.9241 5.38031 17.6323 6.43818 17.6323 6.43818C17.6323 6.43818 19.4305 8.20768 20.211 8.3435Z" fill="#66E1FF" stroke="#191919" stroke-linecap="round" stroke-linejoin="round"/>
<path d="M17.657 10.7567C17.6772 10.6644 17.7244 10.5803 17.7925 10.5147C17.8606 10.4492 17.9466 10.4053 18.0397 10.3887C18.1327 10.3719 18.2286 10.3832 18.3152 10.421C18.4018 10.4588 18.4753 10.5213 18.5264 10.6008C19.2335 11.7029 19.5425 13.0136 19.402 14.3155C19.2616 15.6173 18.6801 16.832 17.7542 17.7579C16.8284 18.6838 15.6136 19.2652 14.3119 19.4056C13.01 19.5461 11.6992 19.2372 10.5972 18.5301C10.5177 18.479 10.455 18.4055 10.4173 18.3189C10.3796 18.2322 10.3683 18.1364 10.3849 18.0433C10.4017 17.9504 10.4455 17.8644 10.511 17.7963C10.5765 17.7281 10.6608 17.6809 10.7531 17.6606C12.4053 17.2211 13.8958 16.3146 15.0458 15.0494C16.3108 13.8994 17.2175 12.409 17.657 10.7567Z" fill="#FF808C" stroke="#191919" stroke-linecap="round" stroke-linejoin="round"/>
<path d="M6.59124 14.0318L8.6209 12.0021H5.23877" stroke="#191919" stroke-linecap="round" stroke-linejoin="round"/>
<path d="M14.0316 6.5922L12.002 8.6209V5.23877" stroke="#191919" stroke-linecap="round" stroke-linejoin="round"/>
</g>
<defs>
<clipPath id="clip0_5303_9315">
<rect width="24" height="24" fill="white"/>
</clipPath>
</defs>
</svg>
