<svg width="24" height="24" viewBox="0 0 24 24" fill="none" xmlns="http://www.w3.org/2000/svg">
<g clip-path="url(#clip0_5303_9379)">
<path d="M12 23C18.0717 23 22.9942 18.0775 22.9942 12.0058C22.9942 5.93423 18.0717 1.01172 12 1.01172C5.92837 1.01172 1.00586 5.93423 1.00586 12.0058C1.00586 18.0775 5.92837 23 12 23Z" fill="#FFEF5E"/>
<path d="M12 4.83575C14.3752 4.83593 16.6949 5.55327 18.6556 6.89387C20.6162 8.23447 22.1264 10.1358 22.9884 12.3491C22.9884 12.2343 22.9942 12.1206 22.9942 12.0059C22.9957 10.5467 22.7068 9.10174 22.1442 7.75536C21.5816 6.40897 20.7566 5.18805 19.7173 4.16377C18.678 3.13949 17.4452 2.33235 16.0908 1.7894C14.7364 1.24645 13.2874 0.97856 11.8284 1.00134C10.3694 1.02412 8.92947 1.33712 7.59266 1.92208C6.25584 2.50705 5.04884 3.35228 4.04204 4.40851C3.03523 5.46473 2.24876 6.71081 1.72847 8.0741C1.20818 9.43739 0.964485 10.8906 1.01159 12.3491C1.87359 10.1358 3.38377 8.23447 5.34443 6.89387C7.30509 5.55327 9.62485 4.83593 12 4.83575Z" fill="#FFF9BF"/>
<path d="M9.61116 9.71905C9.40823 9.39509 9.12631 9.128 8.79186 8.94286C8.45741 8.75771 8.08141 8.66058 7.69914 8.66058C7.31686 8.66058 6.94086 8.75771 6.60641 8.94286C6.27196 9.128 5.99004 9.39509 5.78711 9.71905" stroke="#191919" stroke-linecap="round" stroke-linejoin="round"/>
<path d="M14.3916 9.71904C14.5944 9.39486 14.8762 9.12756 15.2107 8.94225C15.5452 8.75695 15.9213 8.65973 16.3036 8.65973C16.686 8.65973 17.0621 8.75695 17.3966 8.94225C17.731 9.12756 18.0129 9.39486 18.2157 9.71904" stroke="#191919" stroke-linecap="round" stroke-linejoin="round"/>
<path d="M12 23C18.0717 23 22.9942 18.0775 22.9942 12.0058C22.9942 5.93423 18.0717 1.01172 12 1.01172C5.92837 1.01172 1.00586 5.93423 1.00586 12.0058C1.00586 18.0775 5.92837 23 12 23Z" stroke="#191919" stroke-linecap="round" stroke-linejoin="round"/>
<path d="M14.8689 16.7859C14.8689 17.1662 14.7178 17.531 14.4489 17.7999C14.1799 18.0689 13.8152 18.2199 13.4349 18.2199C13.0545 18.2199 12.6898 18.0689 12.4209 17.7999C12.1519 17.531 12.0009 17.1662 12.0009 16.7859C12.0009 17.1662 11.8498 17.531 11.5808 17.7999C11.3119 18.0689 10.9472 18.2199 10.5668 18.2199C10.1865 18.2199 9.82176 18.0689 9.55283 17.7999C9.2839 17.531 9.13281 17.1662 9.13281 16.7859" stroke="#191919" stroke-linecap="round" stroke-linejoin="round"/>
</g>
<defs>
<clipPath id="clip0_5303_9379">
<rect width="24" height="24" fill="white"/>
</clipPath>
</defs>
</svg>
