<svg width="24" height="24" viewBox="0 0 24 24" fill="none" xmlns="http://www.w3.org/2000/svg">
<g clip-path="url(#clip0_5303_9402)">
<path d="M12 23C18.0752 23 23 18.0752 23 12C23 5.92487 18.0752 1 12 1C5.92487 1 1 5.92487 1 12C1 18.0752 5.92487 23 12 23Z" fill="#FFEF5E"/>
<path d="M12 4.82609C14.3764 4.82627 16.6974 5.54399 18.6591 6.88531C20.6208 8.22661 22.1318 10.1289 22.9943 12.3434C22.9943 12.2286 23 12.1148 23 12C23 9.08262 21.8411 6.28472 19.7781 4.22182C17.7153 2.15892 14.9174 1 12 1C9.08262 1 6.28472 2.15892 4.22182 4.22182C2.15892 6.28472 1 9.08262 1 12C1 12.1148 1 12.2286 1.00574 12.3434C1.8682 10.1289 3.37919 8.22661 5.34089 6.88531C7.30258 5.54399 9.62358 4.82627 12 4.82609Z" fill="#FFF9BF"/>
<path d="M12 23C18.0752 23 23 18.0752 23 12C23 5.92487 18.0752 1 12 1C5.92487 1 1 5.92487 1 12C1 18.0752 5.92487 23 12 23Z" stroke="#191919" stroke-linecap="round" stroke-linejoin="round"/>
<path d="M6.73864 10.3261C6.60657 10.3261 6.49951 10.219 6.49951 10.0869C6.49951 9.9549 6.60657 9.84784 6.73864 9.84784" stroke="#191919"/>
<path d="M6.73926 10.3261C6.87132 10.3261 6.97839 10.219 6.97839 10.0869C6.97839 9.9549 6.87132 9.84784 6.73926 9.84784" stroke="#191919"/>
<path d="M17.2606 10.3261C17.1285 10.3261 17.0215 10.219 17.0215 10.0869C17.0215 9.9549 17.1285 9.84784 17.2606 9.84784" stroke="#191919"/>
<path d="M17.2603 10.3261C17.3923 10.3261 17.4994 10.219 17.4994 10.0869C17.4994 9.9549 17.3923 9.84784 17.2603 9.84784" stroke="#191919"/>
<path d="M10.5649 19.2801C11.2672 18.1882 12.2801 17.3314 13.4733 16.82C14.6666 16.3086 15.9856 16.166 17.2606 16.4105" stroke="#191919" stroke-linecap="round" stroke-linejoin="round"/>
</g>
<defs>
<clipPath id="clip0_5303_9402">
<rect width="24" height="24" fill="white"/>
</clipPath>
</defs>
</svg>
