<svg width="24" height="24" viewBox="0 0 24 24" fill="none" xmlns="http://www.w3.org/2000/svg">
<g clip-path="url(#clip0_5303_9411)">
<path d="M12 23C18.0752 23 23 18.0752 23 12C23 5.92487 18.0752 1 12 1C5.92487 1 1 5.92487 1 12C1 18.0752 5.92487 23 12 23Z" fill="#FF808C"/>
<path d="M12 4.82609C14.3764 4.82627 16.6974 5.54399 18.6591 6.88531C20.6208 8.22661 22.1318 10.1289 22.9943 12.3434C22.9943 12.2286 23 12.1148 23 12C23 9.08262 21.8411 6.28472 19.7781 4.22182C17.7153 2.15892 14.9174 1 12 1C9.08262 1 6.28472 2.15892 4.22182 4.22182C2.15892 6.28472 1 9.08262 1 12C1 12.1148 1 12.2286 1.00574 12.3434C1.8682 10.1289 3.37919 8.22661 5.34089 6.88531C7.30258 5.54399 9.62358 4.82627 12 4.82609Z" fill="#FFCCD1"/>
<path d="M7.69629 18.6956C7.69629 17.554 8.14979 16.4592 8.957 15.652C9.76422 14.8448 10.859 14.3913 12.0006 14.3913C13.1422 14.3913 14.2371 14.8448 15.0443 15.652C15.8515 16.4592 16.305 17.554 16.305 18.6956" stroke="#191919" stroke-linecap="round" stroke-linejoin="round"/>
<path d="M12 23C18.0752 23 23 18.0752 23 12C23 5.92487 18.0752 1 12 1C5.92487 1 1 5.92487 1 12C1 18.0752 5.92487 23 12 23Z" stroke="#191919" stroke-linecap="round" stroke-linejoin="round"/>
<path d="M6.26172 9.13043L9.60954 11.0435" stroke="#191919" stroke-linecap="round" stroke-linejoin="round"/>
<path d="M17.7404 9.13043L14.3926 11.0435" stroke="#191919" stroke-linecap="round" stroke-linejoin="round"/>
</g>
<defs>
<clipPath id="clip0_5303_9411">
<rect width="24" height="24" fill="white"/>
</clipPath>
</defs>
</svg>
