<svg width="24" height="24" viewBox="0 0 24 24" fill="none" xmlns="http://www.w3.org/2000/svg">
<g clip-path="url(#clip0_5303_9340)">
<path d="M12 23C18.0752 23 23 18.0752 23 12C23 5.92487 18.0752 1 12 1C5.92487 1 1 5.92487 1 12C1 18.0752 5.92487 23 12 23Z" fill="#FFEF5E"/>
<path d="M12 4.82609C14.3764 4.82627 16.6974 5.54399 18.6591 6.88531C20.6208 8.22661 22.1318 10.1289 22.9943 12.3434C22.9943 12.2286 23 12.1148 23 12C23 9.08262 21.8411 6.28472 19.7781 4.22182C17.7153 2.15892 14.9174 1 12 1C9.08262 1 6.28472 2.15892 4.22182 4.22182C2.15892 6.28472 1 9.08262 1 12C1 12.1148 1 12.2286 1.00574 12.3434C1.8682 10.1289 3.37919 8.22661 5.34089 6.88531C7.30258 5.54399 9.62358 4.82627 12 4.82609Z" fill="#FFF9BF"/>
<path d="M9.6084 18.2174H14.391" stroke="#191919" stroke-linecap="round" stroke-linejoin="round"/>
<path d="M12 23C18.0752 23 23 18.0752 23 12C23 5.92487 18.0752 1 12 1C5.92487 1 1 5.92487 1 12C1 18.0752 5.92487 23 12 23Z" stroke="#191919" stroke-linecap="round" stroke-linejoin="round"/>
<path d="M14.3926 12.3749C14.5955 12.6993 14.8774 12.9667 15.2121 13.1522C15.5467 13.3376 15.923 13.4349 16.3056 13.4349C16.6882 13.4349 17.0645 13.3376 17.3991 13.1522C17.7338 12.9667 18.0158 12.6993 18.2187 12.3749" stroke="#191919" stroke-linecap="round" stroke-linejoin="round"/>
<path d="M9.61027 12.3749C9.40739 12.6993 9.12538 12.9667 8.79074 13.1522C8.45609 13.3376 8.07979 13.4349 7.69722 13.4349C7.31465 13.4349 6.93836 13.3376 6.60371 13.1522C6.26907 12.9667 5.98706 12.6993 5.78418 12.3749" stroke="#191919" stroke-linecap="round" stroke-linejoin="round"/>
<path d="M4.82715 9.60872L8.65323 7.69568" stroke="#191919" stroke-linecap="round" stroke-linejoin="round"/>
<path d="M19.1737 9.60872L15.3477 7.69568" stroke="#191919" stroke-linecap="round" stroke-linejoin="round"/>
</g>
<defs>
<clipPath id="clip0_5303_9340">
<rect width="24" height="24" fill="white"/>
</clipPath>
</defs>
</svg>
