<svg width="24" height="24" viewBox="0 0 24 24" fill="none" xmlns="http://www.w3.org/2000/svg">
<g clip-path="url(#clip0_5303_9293)">
<path d="M12 23C18.0752 23 23 18.0752 23 12C23 5.92487 18.0752 1 12 1C5.92487 1 1 5.92487 1 12C1 18.0752 5.92487 23 12 23Z" fill="#FFEF5E"/>
<path d="M12 4.82609C14.3764 4.82627 16.6974 5.54399 18.6591 6.88531C20.6208 8.22661 22.1318 10.1289 22.9943 12.3434C22.9943 12.2286 23 12.1148 23 12C23 9.08262 21.8411 6.28472 19.7781 4.22182C17.7153 2.15892 14.9174 1 12 1C9.08262 1 6.28472 2.15892 4.22182 4.22182C2.15892 6.28472 1 9.08262 1 12C1 12.1148 1 12.2286 1.00574 12.3434C1.8682 10.1289 3.37919 8.22661 5.34089 6.88531C7.30258 5.54399 9.62358 4.82627 12 4.82609Z" fill="#FFF9BF"/>
<path d="M14.3906 9.50537C14.5935 9.82972 14.8755 10.0972 15.2102 10.2826C15.5448 10.468 15.9211 10.5653 16.3037 10.5653C16.6863 10.5653 17.0626 10.468 17.3972 10.2826C17.7319 10.0972 18.0138 9.82972 18.2167 9.50537" stroke="#191919" stroke-linecap="round" stroke-linejoin="round"/>
<path d="M9.60831 9.50537C9.40544 9.82972 9.12342 10.0972 8.78878 10.2826C8.45414 10.468 8.07784 10.5653 7.69527 10.5653C7.3127 10.5653 6.9364 10.468 6.60176 10.2826C6.26712 10.0972 5.9851 9.82972 5.78223 9.50537" stroke="#191919" stroke-linecap="round" stroke-linejoin="round"/>
<path d="M6.26074 15.3478C6.73284 16.4808 7.52977 17.4488 8.55109 18.1297C9.5724 18.8106 10.7724 19.1739 11.9999 19.1739C13.2274 19.1739 14.4273 18.8106 15.4487 18.1297C16.47 17.4488 17.2669 16.4808 17.739 15.3478" stroke="#191919" stroke-linecap="round" stroke-linejoin="round"/>
<path d="M12 23C18.0752 23 23 18.0752 23 12C23 5.92487 18.0752 1 12 1C5.92487 1 1 5.92487 1 12C1 18.0752 5.92487 23 12 23Z" stroke="#191919" stroke-linecap="round" stroke-linejoin="round"/>
</g>
<defs>
<clipPath id="clip0_5303_9293">
<rect width="24" height="24" fill="white"/>
</clipPath>
</defs>
</svg>
