<svg width="24" height="24" viewBox="0 0 24 24" fill="none" xmlns="http://www.w3.org/2000/svg">
<g clip-path="url(#clip0_5303_9426)">
<path d="M12 23C18.0717 23 22.9942 18.0775 22.9942 12.0058C22.9942 5.93423 18.0717 1.01172 12 1.01172C5.92837 1.01172 1.00586 5.93423 1.00586 12.0058C1.00586 18.0775 5.92837 23 12 23Z" fill="#FFEF5E"/>
<path d="M12 4.83575C14.3752 4.83593 16.6949 5.55327 18.6556 6.89387C20.6162 8.23447 22.1264 10.1358 22.9884 12.3491C22.9884 12.2343 22.9942 12.1206 22.9942 12.0059C22.9957 10.5467 22.7068 9.10174 22.1442 7.75536C21.5816 6.40897 20.7566 5.18805 19.7173 4.16377C18.678 3.13949 17.4452 2.33235 16.0908 1.7894C14.7364 1.24645 13.2874 0.97856 11.8284 1.00134C10.3694 1.02412 8.92947 1.33712 7.59266 1.92208C6.25584 2.50705 5.04884 3.35228 4.04204 4.40851C3.03523 5.46473 2.24876 6.71081 1.72847 8.0741C1.20818 9.43739 0.964485 10.8906 1.01159 12.3491C1.87359 10.1358 3.38377 8.23447 5.34443 6.89387C7.30509 5.55327 9.62485 4.83593 12 4.83575Z" fill="#FFF9BF"/>
<path d="M12 23C18.0717 23 22.9942 18.0775 22.9942 12.0058C22.9942 5.93423 18.0717 1.01172 12 1.01172C5.92837 1.01172 1.00586 5.93423 1.00586 12.0058C1.00586 18.0775 5.92837 23 12 23Z" stroke="#191919" stroke-linecap="round" stroke-linejoin="round"/>
<path d="M7.69775 7.22577V10.0938" stroke="#191919" stroke-linecap="round" stroke-linejoin="round"/>
<path d="M6.26367 8.65979H9.13171" stroke="#191919" stroke-linecap="round" stroke-linejoin="round"/>
<path d="M16.3018 7.22577V10.0938" stroke="#191919" stroke-linecap="round" stroke-linejoin="round"/>
<path d="M14.8677 8.65979H17.7357" stroke="#191919" stroke-linecap="round" stroke-linejoin="round"/>
<path d="M7.21924 17.7419V16.7859C7.21924 16.152 7.47104 15.5441 7.91926 15.0959C8.36748 14.6476 8.9754 14.3958 9.60927 14.3958C10.2431 14.3958 10.8511 14.6476 11.2993 15.0959C11.7475 15.5441 11.9993 16.152 11.9993 16.7859C11.9993 17.4198 12.2511 18.0277 12.6993 18.4759C13.1475 18.9241 13.7555 19.1759 14.3893 19.1759C15.0232 19.1759 15.6311 18.9241 16.0793 18.4759C16.5276 18.0277 16.7794 17.4198 16.7794 16.7859V15.8299" stroke="#191919" stroke-linecap="round" stroke-linejoin="round"/>
</g>
<defs>
<clipPath id="clip0_5303_9426">
<rect width="24" height="24" fill="white"/>
</clipPath>
</defs>
</svg>
