<svg width="24" height="24" viewBox="0 0 24 24" fill="none" xmlns="http://www.w3.org/2000/svg">
<path d="M15.2607 15.821L16.7377 6.55237C16.7485 6.48471 16.7736 6.42014 16.8114 6.363C16.8492 6.30586 16.8988 6.25749 16.9569 6.22114C17.015 6.18479 17.0801 6.1613 17.1481 6.15226C17.216 6.14322 17.285 6.14884 17.3506 6.16874C19.2323 6.73939 20.7716 7.06644 22.6601 7.64189C22.7208 7.66036 22.7773 7.69071 22.8262 7.73118C22.8752 7.77166 22.9156 7.82144 22.9451 7.87765C22.9746 7.93386 22.9927 7.99538 22.9983 8.05863C23.0038 8.12188 22.9968 8.18561 22.9775 8.24611L20.5108 16.0147C19.193 18.1189 17.2902 17.2903 15.2607 15.821Z" fill="#FFEF5E"/>
<path d="M22.9455 7.87587C22.9157 7.81933 22.8749 7.76932 22.8255 7.7288C22.776 7.68827 22.719 7.65806 22.6577 7.63994C20.7693 7.06449 19.23 6.73744 17.3482 6.16678C17.2827 6.14689 17.2136 6.14127 17.1457 6.15031C17.0778 6.15935 17.0126 6.18284 16.9545 6.21919C16.8965 6.25554 16.8469 6.30391 16.8091 6.36105C16.7713 6.41818 16.7461 6.48276 16.7354 6.55042L16.3623 8.88675L22.2127 10.6371L22.9733 8.24416C22.9932 8.18397 23.0009 8.12044 22.9962 8.05724C22.9914 7.99403 22.9742 7.93239 22.9455 7.87587Z" fill="#FFBC44"/>
<path d="M15.4823 14.4159C15.4823 14.4159 10.5267 14.2126 8.35817 14.8436C7.99866 14.949 7.67049 15.1409 7.40244 15.4026C7.13439 15.6643 6.93466 15.9877 6.82076 16.3446V16.358C6.71809 16.6813 6.748 17.0322 6.90393 17.3334C7.05986 17.6347 7.32904 17.8617 7.65229 17.9645L18.7777 21.4968L20.5203 16.0128L19.918 16.3245C18.7134 16.9488 16.8854 16.3676 15.8045 15.0182C15.6848 14.8243 15.5771 14.6231 15.4823 14.4159Z" fill="#FF808C"/>
<path d="M12.7959 16.1001C15.2094 16.5333 17.5573 17.2746 19.7819 18.3059L20.5099 16.0147L19.9076 16.3264C18.7029 16.9508 16.8749 16.3696 15.794 15.0201C15.6779 14.8259 15.5738 14.6248 15.4823 14.4178C15.4823 14.4178 10.5268 14.2145 8.35826 14.8456C7.99897 14.9507 7.67094 15.1423 7.4029 15.4037C7.13487 15.665 6.93502 15.9881 6.82085 16.3446V16.358C6.72974 16.6458 6.74221 16.9556 6.85826 17.2337C8.68454 16.2847 10.7485 15.8907 12.7959 16.1001Z" fill="#FFBFC5"/>
<path d="M15.4823 14.4159C15.4823 14.4159 10.5267 14.2126 8.35817 14.8436C7.99866 14.949 7.67049 15.1409 7.40244 15.4026C7.13439 15.6643 6.93466 15.9877 6.82076 16.3446V16.358C6.71809 16.6813 6.748 17.0322 6.90393 17.3334C7.05986 17.6347 7.32904 17.8617 7.65229 17.9645L18.7777 21.4968L20.5203 16.0128L19.918 16.3245C18.7134 16.9488 16.8854 16.3676 15.8045 15.0182C15.6848 14.8243 15.5771 14.6231 15.4823 14.4159Z" stroke="#191919" stroke-linecap="round" stroke-linejoin="round"/>
<path d="M16.6494 21.8306L16.9391 20.9166" stroke="#191919" stroke-linecap="round" stroke-linejoin="round"/>
<path d="M13.9053 20.9598L14.1959 20.0457" stroke="#191919" stroke-linecap="round" stroke-linejoin="round"/>
<path d="M8.42285 19.2171L8.71345 18.3031" stroke="#191919" stroke-linecap="round" stroke-linejoin="round"/>
<path d="M11.165 20.0879L11.4556 19.174" stroke="#191919" stroke-linecap="round" stroke-linejoin="round"/>
<path d="M15.4824 14.4159L16.7379 6.55139C16.7486 6.48373 16.7737 6.41916 16.8115 6.36202C16.8493 6.30489 16.899 6.25652 16.957 6.22017C17.0151 6.18381 17.0803 6.16033 17.1482 6.15129C17.2161 6.14225 17.2852 6.14786 17.3507 6.16776C19.2324 6.73841 20.7718 7.06546 22.6602 7.64091C22.721 7.65938 22.7774 7.68974 22.8264 7.73021C22.8753 7.77068 22.9157 7.82046 22.9452 7.87667C22.9748 7.93288 22.9928 7.9944 22.9984 8.05765C23.004 8.1209 22.9969 8.18463 22.9777 8.24514L20.5099 16.0137" stroke="#191919" stroke-linecap="round" stroke-linejoin="round"/>
<path d="M16.3652 8.88867L22.2176 10.639" stroke="#191919" stroke-linecap="round" stroke-linejoin="round"/>
<path d="M6.27496 12.7192C6.96768 12.7192 7.65362 12.5828 8.29361 12.3177C8.93359 12.0526 9.5151 11.664 10.0049 11.1742C10.4948 10.6844 10.8833 10.1029 11.1484 9.46292C11.4135 8.82293 11.5499 8.13699 11.5499 7.44428C11.5499 6.75156 11.4135 6.06562 11.1484 5.42564C10.8833 4.78565 10.4948 4.20414 10.0049 3.71431C9.5151 3.22449 8.93359 2.83594 8.29361 2.57085C7.65362 2.30575 6.96768 2.16931 6.27496 2.16931C4.87596 2.16931 3.53425 2.72507 2.545 3.71431C1.55575 4.70356 1 6.04527 1 7.44428C1 8.84328 1.55575 10.185 2.545 11.1742C3.53425 12.1634 4.87596 12.7192 6.27496 12.7192Z" fill="white" stroke="#191919" stroke-linecap="round" stroke-linejoin="round"/>
<path d="M6.27466 3.60803L3.87695 5.5262L4.83604 8.40345H7.71329L8.67237 5.5262L6.27466 3.60803Z" fill="#808080" stroke="#191919" stroke-linecap="round" stroke-linejoin="round"/>
<path d="M4.83664 8.40344L3.21387 11.648" stroke="#191919" stroke-linecap="round" stroke-linejoin="round"/>
<path d="M7.71387 8.40344L9.37021 11.7161" stroke="#191919" stroke-linecap="round" stroke-linejoin="round"/>
<path d="M3.87697 5.52612H1.35938" stroke="#191919" stroke-linecap="round" stroke-linejoin="round"/>
<path d="M6.27539 3.60794V2.16931" stroke="#191919" stroke-linecap="round" stroke-linejoin="round"/>
<path d="M8.67285 5.52612H11.1895" stroke="#191919" stroke-linecap="round" stroke-linejoin="round"/>
<path d="M11.8291 14.4313L12.8937 19.6314" stroke="#191919" stroke-linecap="round" stroke-linejoin="round"/>
<path d="M14.0566 14.3862L15.2613 20.2721" stroke="#191919" stroke-linecap="round" stroke-linejoin="round"/>
<path d="M9.65918 14.5905L10.461 18.8584" stroke="#191919" stroke-linecap="round" stroke-linejoin="round"/>
</svg>
