<svg width="24" height="24" viewBox="0 0 24 24" fill="none" xmlns="http://www.w3.org/2000/svg">
<path d="M22 4.5H2C1.73478 4.5 1.48043 4.60536 1.29289 4.79289C1.10536 4.98043 1 5.23478 1 5.5V18.5C1 18.7652 1.10536 19.0196 1.29289 19.2071C1.48043 19.3946 1.73478 19.5 2 19.5H22C22.2652 19.5 22.5196 19.3946 22.7071 19.2071C22.8946 19.0196 23 18.7652 23 18.5V5.5C23 5.23478 22.8946 4.98043 22.7071 4.79289C22.5196 4.60536 22.2652 4.5 22 4.5Z" fill="#78EB7B"/>
<path d="M23 12V5.5C23 5.23478 22.8946 4.98043 22.7071 4.79289C22.5196 4.60536 22.2652 4.5 22 4.5H2C1.73478 4.5 1.48043 4.60536 1.29289 4.79289C1.10536 4.98043 1 5.23478 1 5.5V12H23Z" fill="#C9F7CA"/>
<path d="M22 4.5H2C1.73478 4.5 1.48043 4.60536 1.29289 4.79289C1.10536 4.98043 1 5.23478 1 5.5V18.5C1 18.7652 1.10536 19.0196 1.29289 19.2071C1.48043 19.3946 1.73478 19.5 2 19.5H22C22.2652 19.5 22.5196 19.3946 22.7071 19.2071C22.8946 19.0196 23 18.7652 23 18.5V5.5C23 5.23478 22.8946 4.98043 22.7071 4.79289C22.5196 4.60536 22.2652 4.5 22 4.5Z" stroke="#191919" stroke-linecap="round" stroke-linejoin="round"/>
<path d="M1 7.5H4C4.26522 7.5 4.51957 7.60536 4.70711 7.79289C4.89464 7.98043 5 8.23478 5 8.5V15.5C5 15.7652 4.89464 16.0196 4.70711 16.2071C4.51957 16.3946 4.26522 16.5 4 16.5H1" stroke="#191919" stroke-linecap="round" stroke-linejoin="round"/>
<path d="M23 16.5H20C19.7348 16.5 19.4804 16.3946 19.2929 16.2071C19.1054 16.0196 19 15.7652 19 15.5V8.5C19 8.23478 19.1054 7.98043 19.2929 7.79289C19.4804 7.60536 19.7348 7.5 20 7.5H23" stroke="#191919" stroke-linecap="round" stroke-linejoin="round"/>
<path d="M12 4.5V19.5" stroke="#191919" stroke-linecap="round" stroke-linejoin="round"/>
<path d="M12 15C12.7956 15 13.5587 14.6839 14.1213 14.1213C14.6839 13.5587 15 12.7956 15 12C15 11.2044 14.6839 10.4413 14.1213 9.87868C13.5587 9.31607 12.7956 9 12 9C11.2044 9 10.4413 9.31607 9.87868 9.87868C9.31607 10.4413 9 11.2044 9 12C9 12.7956 9.31607 13.5587 9.87868 14.1213C10.4413 14.6839 11.2044 15 12 15Z" stroke="#191919" stroke-linecap="round" stroke-linejoin="round"/>
</svg>
