<svg width="271" height="15" viewBox="0 0 271 15" fill="none" xmlns="http://www.w3.org/2000/svg">
<path d="M4.46396 7.88398C1.40396 7.46998 0.143963 6.19198 0.143963 4.10398V3.90598C0.143963 1.51198 1.90796 -1.95503e-05 4.76996 -1.95503e-05C7.99196 -1.95503e-05 9.37796 1.58398 9.37796 4.62598V5.05798H7.50596C7.50596 2.68198 6.71396 1.65598 4.78796 1.65598H4.66196C3.13196 1.65598 2.06996 2.48398 2.06996 3.76198V3.90598C2.06996 5.21998 2.71796 5.99398 5.09396 6.31798C8.15396 6.73198 9.52196 7.90198 9.52196 10.206V10.404C9.52196 12.96 7.73996 14.472 4.76996 14.472C1.65596 14.472 -3.7089e-05 12.852 -3.7089e-05 9.77398V9.59398H1.87196C1.87196 11.826 3.00596 12.816 4.69796 12.816H4.84196C6.53396 12.816 7.59596 11.916 7.59596 10.494V10.35C7.59596 8.92798 6.76796 8.18998 4.46396 7.88398ZM16.1879 14.472C12.8039 14.472 11.1659 12.456 11.1659 7.59598V6.87598C11.1659 2.01598 12.8039 -1.95503e-05 16.1879 -1.95503e-05C19.5539 -1.95503e-05 21.1919 2.01598 21.1919 6.87598V7.59598C21.1919 12.456 19.5539 14.472 16.1879 14.472ZM16.1159 12.816H16.2419C18.4019 12.816 19.2659 11.16 19.2659 7.59598V6.87598C19.2659 3.31198 18.4019 1.65598 16.2419 1.65598H16.1159C13.9559 1.65598 13.0919 3.31198 13.0919 6.87598V7.59598C13.0919 11.16 13.9559 12.816 16.1159 12.816ZM24.9219 7.59598C24.9219 11.16 25.7499 12.816 27.9459 12.816H28.0719C29.9439 12.816 30.6999 11.628 30.6999 9.59398H32.5899V9.77398C32.5899 12.924 31.0599 14.472 27.9459 14.472C24.5799 14.472 22.9959 12.456 22.9959 7.59598V6.87598C22.9959 2.01598 24.5799 -1.95503e-05 27.9459 -1.95503e-05C31.0599 -1.95503e-05 32.5899 1.54798 32.5899 4.85998V5.41798H30.6999C30.6999 2.86198 29.9799 1.65598 28.0719 1.65598H27.9459C25.7679 1.65598 24.9219 3.31198 24.9219 6.87598V7.59598ZM36.6018 0.215981V14.256H34.7298V0.215981H36.6018ZM42.1827 0.107981H44.7927L48.6627 14.256H46.6467L45.7647 10.872H41.2287L40.3467 14.256H38.3127L42.1827 0.107981ZM43.4967 2.21398L41.6607 9.21598H45.3327L43.4967 2.21398ZM57.8264 14.256H50.2844V0.215981H52.1564V12.6H57.8264V14.256ZM73.5795 3.47398L70.0515 14.256H68.2335L64.7055 3.47398L64.7775 6.47998V14.256H62.9055V0.215981H65.6235L69.1335 11.016L72.6615 0.215981H75.3795V14.256H73.5075V6.47998L73.5795 3.47398ZM77.7941 0.215981H85.8941V1.87198H79.6661V6.26398H84.9941V7.91998H79.6661V12.6H85.8941V14.256H77.7941V0.215981ZM97.3537 7.59598C97.3537 12.456 95.4457 14.256 91.7557 14.256H87.8137V0.215981H91.7557C95.4457 0.215981 97.3537 2.01598 97.3537 6.87598V7.59598ZM89.6857 12.6H91.6297C94.2217 12.6 95.4277 11.16 95.4277 7.59598V6.87598C95.4277 3.31198 94.2217 1.87198 91.6297 1.87198H89.6857V12.6ZM101.43 0.215981V14.256H99.558V0.215981H101.43ZM107.011 0.107981H109.621L113.491 14.256H111.475L110.593 10.872H106.057L105.175 14.256H103.141L107.011 0.107981ZM108.325 2.21398L106.489 9.21598H110.161L108.325 2.21398ZM118.898 7.88398C115.838 7.46998 114.578 6.19198 114.578 4.10398V3.90598C114.578 1.51198 116.342 -1.95503e-05 119.204 -1.95503e-05C122.426 -1.95503e-05 123.812 1.58398 123.812 4.62598V5.05798H121.94C121.94 2.68198 121.148 1.65598 119.222 1.65598H119.096C117.566 1.65598 116.504 2.48398 116.504 3.76198V3.90598C116.504 5.21998 117.152 5.99398 119.528 6.31798C122.588 6.73198 123.956 7.90198 123.956 10.206V10.404C123.956 12.96 122.174 14.472 119.204 14.472C116.09 14.472 114.434 12.852 114.434 9.77398V9.59398H116.306C116.306 11.826 117.44 12.816 119.132 12.816H119.276C120.968 12.816 122.03 11.916 122.03 10.494V10.35C122.03 8.92798 121.202 8.18998 118.898 7.88398ZM131.381 8.78398V14.256H129.509V0.215981H133.667C135.773 0.215981 138.167 0.91798 138.167 4.31998V4.67998C138.167 6.92998 137.123 7.99198 135.827 8.45998L138.167 14.256H136.133L134.009 8.78398H131.381ZM131.381 7.14598H133.721C134.801 7.14598 136.259 6.74998 136.259 4.62598V4.39198C136.259 2.26798 134.801 1.87198 133.721 1.87198H131.381V7.14598ZM140.267 0.215981H148.367V1.87198H142.139V6.26398H147.467V7.91998H142.139V12.6H148.367V14.256H140.267V0.215981ZM159.88 14.364L157.27 2.30398L154.66 14.364H152.194L149.674 0.215981H151.636L153.526 11.916L156.064 0.215981H158.476L161.014 11.916L162.904 0.215981H164.866L162.346 14.364H159.88ZM169.009 0.107981H171.619L175.489 14.256H173.473L172.591 10.872H168.055L167.173 14.256H165.139L169.009 0.107981ZM170.323 2.21398L168.487 9.21598H172.159L170.323 2.21398ZM178.983 8.78398V14.256H177.111V0.215981H181.269C183.375 0.215981 185.769 0.91798 185.769 4.31998V4.67998C185.769 6.92998 184.725 7.99198 183.429 8.45998L185.769 14.256H183.735L181.611 8.78398H178.983ZM178.983 7.14598H181.323C182.403 7.14598 183.861 6.74998 183.861 4.62598V4.39198C183.861 2.26798 182.403 1.87198 181.323 1.87198H178.983V7.14598ZM197.408 7.59598C197.408 12.456 195.5 14.256 191.81 14.256H187.868V0.215981H191.81C195.5 0.215981 197.408 2.01598 197.408 6.87598V7.59598ZM189.74 12.6H191.684C194.276 12.6 195.482 11.16 195.482 7.59598V6.87598C195.482 3.31198 194.276 1.87198 191.684 1.87198H189.74V12.6ZM203.519 7.88398C200.459 7.46998 199.199 6.19198 199.199 4.10398V3.90598C199.199 1.51198 200.963 -1.95503e-05 203.825 -1.95503e-05C207.047 -1.95503e-05 208.433 1.58398 208.433 4.62598V5.05798H206.561C206.561 2.68198 205.769 1.65598 203.843 1.65598H203.717C202.187 1.65598 201.125 2.48398 201.125 3.76198V3.90598C201.125 5.21998 201.773 5.99398 204.149 6.31798C207.209 6.73198 208.577 7.90198 208.577 10.206V10.404C208.577 12.96 206.795 14.472 203.825 14.472C200.711 14.472 199.055 12.852 199.055 9.77398V9.59398H200.927C200.927 11.826 202.061 12.816 203.753 12.816H203.897C205.589 12.816 206.651 11.916 206.651 10.494V10.35C206.651 8.92798 205.823 8.18998 203.519 7.88398ZM216.002 8.78398V14.256H214.13V0.215981H218.288C220.394 0.215981 222.788 0.91798 222.788 4.31998V4.67998C222.788 6.92998 221.744 7.99198 220.448 8.45998L222.788 14.256H220.754L218.63 8.78398H216.002ZM216.002 7.14598H218.342C219.422 7.14598 220.88 6.74998 220.88 4.62598V4.39198C220.88 2.26798 219.422 1.87198 218.342 1.87198H216.002V7.14598ZM227.79 0.107981H230.4L234.27 14.256H232.254L231.372 10.872H226.836L225.954 14.256H223.92L227.79 0.107981ZM229.104 2.21398L227.268 9.21598H230.94L229.104 2.21398ZM239.46 1.87198V14.256H237.588V1.87198H234.132V0.215981H242.916V1.87198H239.46ZM246.467 0.215981V14.256H244.595V0.215981H246.467ZM258.564 0.215981V14.256H256.566L250.68 3.52798L250.752 6.64198V14.256H248.97V0.215981H250.968L256.854 10.944L256.782 7.82998V0.215981H258.564ZM265.944 14.472C262.398 14.472 260.67 12.456 260.67 7.59598V6.87598C260.67 2.01598 262.398 -1.95503e-05 265.764 -1.95503e-05C268.878 -1.95503e-05 270.444 1.54798 270.444 4.85998V5.41798H268.554C268.554 2.86198 267.834 1.65598 265.89 1.65598H265.746C263.532 1.65598 262.578 3.31198 262.578 6.87598V7.59598C262.578 11.16 263.496 12.816 265.89 12.816H266.034C267.222 12.816 268.086 12.384 268.572 11.934V8.74798H266.358V7.09198H270.444V12.834C269.58 13.662 268.248 14.472 265.944 14.472Z" fill="#121212"/>
</svg>
