<svg width="24" height="24" viewBox="0 0 24 24" fill="none" xmlns="http://www.w3.org/2000/svg">
<g clip-path="url(#clip0_5303_5663)">
<path d="M21.0871 1.00034H7.69619C6.63968 1.00034 5.7832 1.85681 5.7832 2.91332V21.0867C5.7832 22.1432 6.63968 22.9997 7.69619 22.9997H21.0871C22.1436 22.9997 23.0001 22.1432 23.0001 21.0867V2.91332C23.0001 1.85681 22.1436 1.00034 21.0871 1.00034Z" fill="white"/>
<path d="M21.0861 20.1302H7.69521C7.18786 20.1302 6.70128 19.9286 6.34253 19.5699C5.98377 19.2111 5.78223 18.7245 5.78223 18.2172V21.0867C5.78223 21.594 5.98377 22.0806 6.34253 22.4393C6.70128 22.7981 7.18786 22.9997 7.69521 22.9997H21.0861C21.5934 22.9997 22.08 22.7981 22.4388 22.4393C22.7976 22.0806 22.9991 21.594 22.9991 21.0867V18.2172C22.9991 18.7245 22.7976 19.2111 22.4388 19.5699C22.08 19.9286 21.5934 20.1302 21.0861 20.1302Z" fill="#E3E3E3"/>
<path d="M21.0871 1.00034H7.69619C6.63968 1.00034 5.7832 1.85681 5.7832 2.91332V21.0867C5.7832 22.1432 6.63968 22.9997 7.69619 22.9997H21.0871C22.1436 22.9997 23.0001 22.1432 23.0001 21.0867V2.91332C23.0001 1.85681 22.1436 1.00034 21.0871 1.00034Z" stroke="#191919" stroke-linecap="round" stroke-linejoin="round"/>
<path d="M18.2166 10.087C19.8015 10.087 21.0861 8.8023 21.0861 7.21753C21.0861 5.63277 19.8015 4.34805 18.2166 4.34805C16.6318 4.34805 15.3472 5.63277 15.3472 7.21753C15.3472 8.8023 16.6318 10.087 18.2166 10.087Z" fill="#E3E3E3"/>
<path d="M18.2167 6.26114C18.8102 6.26102 19.389 6.44494 19.8737 6.78753C20.3582 7.13014 20.7248 7.61457 20.9226 8.17412C21.0753 7.74136 21.122 7.27827 21.0588 6.82373C20.9956 6.36919 20.8242 5.93645 20.5591 5.56182C20.2941 5.18718 19.9429 4.88159 19.5354 4.67068C19.1278 4.45977 18.6756 4.3497 18.2167 4.3497C17.7577 4.3497 17.3055 4.45977 16.8979 4.67068C16.4904 4.88159 16.1393 5.18718 15.8742 5.56182C15.6092 5.93645 15.4378 6.36919 15.3745 6.82373C15.3113 7.27827 15.358 7.74136 15.5107 8.17412C15.7085 7.61457 16.0751 7.13014 16.5596 6.78753C17.0443 6.44494 17.6232 6.26102 18.2167 6.26114Z" fill="#B2B2B2"/>
<path d="M18.2181 10.087C19.8029 10.087 21.0876 8.8023 21.0876 7.21753C21.0876 5.63277 19.8029 4.34805 18.2181 4.34805C16.6334 4.34805 15.3486 5.63277 15.3486 7.21753C15.3486 8.8023 16.6334 10.087 18.2181 10.087Z" stroke="#191919" stroke-linecap="round" stroke-linejoin="round"/>
<path d="M17.2612 6.78436V7.6959" stroke="#191919" stroke-linecap="round" stroke-linejoin="round"/>
<path d="M19.1743 6.78436V7.6959" stroke="#191919" stroke-linecap="round" stroke-linejoin="round"/>
<path d="M10.5658 10.087C12.1506 10.087 13.4352 8.8023 13.4352 7.21753C13.4352 5.63277 12.1506 4.34805 10.5658 4.34805C8.98099 4.34805 7.69629 5.63277 7.69629 7.21753C7.69629 8.8023 8.98099 10.087 10.5658 10.087Z" fill="#E3E3E3"/>
<path d="M10.5648 6.26114C11.1585 6.26082 11.7376 6.44464 12.2224 6.78726C12.7072 7.12987 13.0738 7.61442 13.2717 8.17412C13.4244 7.74136 13.4711 7.27827 13.4079 6.82373C13.3447 6.36919 13.1733 5.93645 12.9082 5.56182C12.6432 5.18718 12.2921 4.88159 11.8845 4.67068C11.4769 4.45977 11.0247 4.3497 10.5658 4.3497C10.1068 4.3497 9.65462 4.45977 9.24704 4.67068C8.83945 4.88159 8.48839 5.18718 8.22332 5.56182C7.95826 5.93645 7.78691 6.36919 7.72367 6.82373C7.66043 7.27827 7.70712 7.74136 7.85985 8.17412C8.05763 7.61473 8.42394 7.1304 8.90836 6.78781C9.39279 6.44522 9.97149 6.26122 10.5648 6.26114Z" fill="#B2B2B2"/>
<path d="M10.5658 10.087C12.1506 10.087 13.4352 8.8023 13.4352 7.21753C13.4352 5.63277 12.1506 4.34805 10.5658 4.34805C8.98099 4.34805 7.69629 5.63277 7.69629 7.21753C7.69629 8.8023 8.98099 10.087 10.5658 10.087Z" stroke="#191919" stroke-linecap="round" stroke-linejoin="round"/>
<path d="M9.60938 6.78436V7.6959" stroke="#191919" stroke-linecap="round" stroke-linejoin="round"/>
<path d="M11.522 6.78436V7.6959" stroke="#191919" stroke-linecap="round" stroke-linejoin="round"/>
<path d="M18.2166 19.652C19.8015 19.652 21.0861 18.3673 21.0861 16.7825C21.0861 15.1977 19.8015 13.913 18.2166 13.913C16.6318 13.913 15.3472 15.1977 15.3472 16.7825C15.3472 18.3673 16.6318 19.652 18.2166 19.652Z" fill="#E3E3E3"/>
<path d="M18.2167 15.8261C18.8102 15.826 19.389 16.0098 19.8737 16.3524C20.3582 16.695 20.7248 17.1795 20.9226 17.7391C21.0753 17.3062 21.122 16.8432 21.0588 16.3887C20.9956 15.9342 20.8242 15.5013 20.5591 15.1268C20.2941 14.7521 19.9429 14.4465 19.5354 14.2356C19.1278 14.0247 18.6756 13.9146 18.2167 13.9146C17.7577 13.9146 17.3055 14.0247 16.8979 14.2356C16.4904 14.4465 16.1393 14.7521 15.8742 15.1268C15.6092 15.5013 15.4378 15.9342 15.3745 16.3887C15.3113 16.8432 15.358 17.3062 15.5107 17.7391C15.7085 17.1795 16.0751 16.695 16.5596 16.3524C17.0443 16.0098 17.6232 15.826 18.2167 15.8261Z" fill="#B2B2B2"/>
<path d="M18.2181 19.652C19.8029 19.652 21.0876 18.3673 21.0876 16.7825C21.0876 15.1977 19.8029 13.913 18.2181 13.913C16.6334 13.913 15.3486 15.1977 15.3486 16.7825C15.3486 18.3673 16.6334 19.652 18.2181 19.652Z" stroke="#191919" stroke-linecap="round" stroke-linejoin="round"/>
<path d="M17.2612 16.3493V17.2608" stroke="#191919" stroke-linecap="round" stroke-linejoin="round"/>
<path d="M19.1743 16.3493V17.2608" stroke="#191919" stroke-linecap="round" stroke-linejoin="round"/>
<path d="M10.5648 19.652C12.1496 19.652 13.4343 18.3673 13.4343 16.7825C13.4343 15.1977 12.1496 13.913 10.5648 13.913C8.98003 13.913 7.69531 15.1977 7.69531 16.7825C7.69531 18.3673 8.98003 19.652 10.5648 19.652Z" fill="#E3E3E3"/>
<path d="M10.5648 15.8261C11.1583 15.826 11.7372 16.0098 12.2218 16.3524C12.7064 16.695 13.0729 17.1795 13.2707 17.7391C13.4235 17.3062 13.4701 16.8432 13.4069 16.3887C13.3437 15.9342 13.1723 15.5013 12.9072 15.1268C12.6422 14.7521 12.2911 14.4465 11.8835 14.2356C11.4759 14.0247 11.0237 13.9146 10.5648 13.9146C10.1059 13.9146 9.65364 14.0247 9.24605 14.2356C8.83846 14.4465 8.48741 14.7521 8.22235 15.1268C7.95728 15.5013 7.78594 15.9342 7.7227 16.3887C7.65944 16.8432 7.70615 17.3062 7.85887 17.7391C8.0567 17.1795 8.42316 16.695 8.90777 16.3524C9.39239 16.0098 9.97131 15.826 10.5648 15.8261Z" fill="#B2B2B2"/>
<path d="M10.5658 19.652C12.1506 19.652 13.4352 18.3673 13.4352 16.7825C13.4352 15.1977 12.1506 13.913 10.5658 13.913C8.98099 13.913 7.69629 15.1977 7.69629 16.7825C7.69629 18.3673 8.98099 19.652 10.5658 19.652Z" stroke="#191919" stroke-linecap="round" stroke-linejoin="round"/>
<path d="M9.60938 16.3493V17.2608" stroke="#191919" stroke-linecap="round" stroke-linejoin="round"/>
<path d="M11.522 16.3493V17.2608" stroke="#191919" stroke-linecap="round" stroke-linejoin="round"/>
<path d="M1 7.69577C1.50735 7.69577 1.99393 7.89731 2.35268 8.25607C2.71144 8.61483 2.91299 9.1014 2.91299 9.60876V17.2607C2.91299 17.768 3.11453 18.2546 3.47329 18.6134C3.83204 18.9721 4.31862 19.1737 4.82597 19.1737H5.78246" stroke="#191919" stroke-linecap="round" stroke-linejoin="round"/>
</g>
<defs>
<clipPath id="clip0_5303_5663">
<rect width="24" height="24" fill="white"/>
</clipPath>
</defs>
</svg>
