<svg width="24" height="24" viewBox="0 0 24 24" fill="none" xmlns="http://www.w3.org/2000/svg">
<path d="M14.391 3.86957H9.6084V1.47826C9.6084 1.35142 9.65879 1.22977 9.74848 1.14008C9.83817 1.05039 9.95982 1 10.0867 1H13.9127C14.0396 1 14.1612 1.05039 14.2509 1.14008C14.3406 1.22977 14.391 1.35142 14.391 1.47826V3.86957Z" fill="#FFBC44" stroke="#191919" stroke-linecap="round" stroke-linejoin="round"/>
<path d="M5.64893 20.1304C5.75414 20.7809 5.87849 21.4313 6.03153 22.0722C6.10552 22.3325 6.26024 22.5626 6.4734 22.7293C6.68655 22.8961 6.94715 22.9909 7.21762 23H16.7828C17.0533 22.9909 17.3139 22.8961 17.5271 22.7293C17.7402 22.5626 17.8949 22.3325 17.9689 22.0722C18.122 21.4313 18.2463 20.7809 18.3515 20.1304" fill="#C77F67"/>
<path d="M5.64893 20.1304C5.75414 20.7809 5.87849 21.4313 6.03153 22.0722C6.10552 22.3325 6.26024 22.5626 6.4734 22.7293C6.68655 22.8961 6.94715 22.9909 7.21762 23H16.7828C17.0533 22.9909 17.3139 22.8961 17.5271 22.7293C17.7402 22.5626 17.8949 22.3325 17.9689 22.0722C18.122 21.4313 18.2463 20.7809 18.3515 20.1304" stroke="#191919" stroke-linecap="round" stroke-linejoin="round"/>
<path d="M18.6955 16.3045C18.6955 13.4349 14.3912 11.0436 14.3912 9.1305V3.86963H9.60855V9.1305C9.60855 11.0436 5.3042 13.4349 5.3042 16.3045" fill="#E3BFB3"/>
<path d="M16.6705 12.5022C16.2284 13.3597 15.5586 14.079 14.7347 14.5811C13.9109 15.0832 12.9647 15.3488 11.9999 15.3488C11.035 15.3488 10.0888 15.0832 9.26496 14.5811C8.44109 14.079 7.77135 13.3597 7.32916 12.5022C6.29707 13.6596 5.3042 14.926 5.3042 16.3044H18.6955C18.6955 14.926 17.7026 13.6596 16.6705 12.5022Z" fill="#C77F67"/>
<path d="M18.6955 16.3045C18.6955 13.4349 14.3912 11.0436 14.3912 9.1305V3.86963H9.60855V9.1305C9.60855 11.0436 5.3042 13.4349 5.3042 16.3045" stroke="#191919" stroke-linecap="round" stroke-linejoin="round"/>
<path d="M18.6955 16.3043C18.6719 17.5863 18.5568 18.8649 18.3512 20.1304H5.64855C5.44292 18.8649 5.32784 17.5863 5.3042 16.3043H18.6955Z" fill="#FFEF5E" stroke="#191919" stroke-linecap="round" stroke-linejoin="round"/>
</svg>
