<svg width="24" height="24" viewBox="0 0 24 24" fill="none" xmlns="http://www.w3.org/2000/svg">
<path d="M12.7862 16.7837H20.2952C22.3799 16.778 23.6769 14.5177 22.6296 12.715C21.9475 11.5408 20.5012 11.0533 19.2474 11.575C18.9649 8.40485 15.7214 6.39077 12.7546 7.54332C12.5487 7.62188 12.4941 7.70327 12.4922 7.86127V16.4638C12.4912 16.631 12.6195 16.7706 12.7862 16.7837Z" fill="#FFBC44"/>
<path d="M20.2951 11.3691C19.9354 11.369 19.5794 11.4404 19.2474 11.5789C18.9649 8.40863 15.7214 6.39456 12.7546 7.5471C12.5487 7.62469 12.4941 7.70608 12.4922 7.86505V10.2726C16.2587 10.2741 19.4469 13.0536 19.9619 16.7846H20.2951C22.3807 16.7292 23.6242 14.4369 22.5334 12.6585C22.0539 11.8768 21.2118 11.3906 20.2951 11.3662V11.3691Z" fill="#FFDDA1"/>
<path d="M12.7862 16.7837H20.2952C22.3799 16.778 23.6769 14.5177 22.6296 12.715C21.9475 11.5408 20.5012 11.0533 19.2474 11.575C18.9649 8.40485 15.7214 6.39077 12.7546 7.54332C12.5487 7.62188 12.4941 7.70327 12.4922 7.86127V16.4638C12.4912 16.631 12.6195 16.7706 12.7862 16.7837Z" stroke="#191919" stroke-linecap="round" stroke-linejoin="round"/>
<path d="M10.5767 8.15906V16.7836" stroke="#191919" stroke-linecap="round" stroke-linejoin="round"/>
<path d="M8.66162 9.1167V16.7836" stroke="#191919" stroke-linecap="round" stroke-linejoin="round"/>
<path d="M6.74658 9.59552V16.7837" stroke="#191919" stroke-linecap="round" stroke-linejoin="round"/>
<path d="M4.83057 11.5108V16.7837" stroke="#191919" stroke-linecap="round" stroke-linejoin="round"/>
<path d="M2.91504 11.5108V16.7837" stroke="#191919" stroke-linecap="round" stroke-linejoin="round"/>
<path d="M1 12.4713V16.2933" stroke="#191919" stroke-linecap="round" stroke-linejoin="round"/>
</svg>
