<svg width="24" height="24" viewBox="0 0 24 24" fill="none" xmlns="http://www.w3.org/2000/svg">
<g clip-path="url(#clip0_5303_10953)">
<path d="M10.3139 21.5469C14.4044 21.5469 17.7205 18.2308 17.7205 14.1403C17.7205 10.0497 14.4044 6.73364 10.3139 6.73364C6.22329 6.73364 2.90723 10.0497 2.90723 14.1403C2.90723 18.2308 6.22329 21.5469 10.3139 21.5469Z" fill="#C2F3FF"/>
<path d="M14.8625 8.302C15.4997 9.81226 15.6177 11.4913 15.1976 13.0758C14.7777 14.6603 13.8436 16.0606 12.542 17.0569C11.2404 18.0533 9.64481 18.5894 8.00563 18.5811C6.36644 18.5728 4.77637 18.0207 3.48486 17.0112C3.9226 18.056 4.59417 18.9866 5.44792 19.7311C6.30167 20.4757 7.31484 21.0146 8.4095 21.3063C9.50415 21.5979 10.6511 21.6345 11.7621 21.4133C12.8731 21.1922 13.9187 20.7192 14.8182 20.0305C15.7178 19.342 16.4474 18.4563 16.9509 17.4415C17.4545 16.4267 17.7186 15.3099 17.7228 14.1771C17.7271 13.0443 17.4715 11.9256 16.9755 10.907C16.4797 9.88855 15.7568 8.99733 14.8625 8.302Z" fill="#66E1FF"/>
<path d="M10.3139 21.5469C14.4044 21.5469 17.7205 18.2308 17.7205 14.1403C17.7205 10.0497 14.4044 6.73364 10.3139 6.73364C6.22329 6.73364 2.90723 10.0497 2.90723 14.1403C2.90723 18.2308 6.22329 21.5469 10.3139 21.5469Z" stroke="#191919" stroke-linecap="round" stroke-linejoin="round"/>
<path d="M16.1688 10.6681C15.3976 11.1113 14.5774 11.4629 13.7246 11.7159C13.9775 10.8632 14.3292 10.0429 14.7724 9.27172C14.9587 9.09183 15.2081 8.99229 15.467 8.99454C15.726 8.99679 15.9737 9.10065 16.1568 9.28375C16.3398 9.46686 16.4437 9.71455 16.446 9.97347C16.4482 10.2324 16.3486 10.4819 16.1688 10.6681Z" fill="#FFEF5E" stroke="#191919" stroke-linecap="round" stroke-linejoin="round"/>
<path d="M22.9603 2.74296C23.067 2.49311 22.9504 2.37658 22.7006 2.48422L21.1639 3.14192C20.8693 3.28001 20.5985 3.46365 20.3611 3.68608L18.9617 5.08247L18.7405 5.0084C18.1743 4.85328 17.5783 4.84269 17.0071 4.97761C16.4358 5.11252 15.9076 5.38866 15.4707 5.78068L15.1211 6.12928L16.5185 7.52568L17.9149 8.92208L19.3113 10.3166L19.6599 9.96791C20.052 9.53101 20.3281 9.00275 20.463 8.43148C20.5979 7.86022 20.5873 7.26423 20.4322 6.69811L20.3581 6.4769L21.7555 5.08247C21.9776 4.84505 22.1609 4.5741 22.2986 4.2796L22.9603 2.74296Z" fill="white" stroke="#191919" stroke-linecap="round" stroke-linejoin="round"/>
<path d="M12.289 14.1493C7.32454 19.087 2.39072 22.1583 1.24121 21.0088C0.565711 20.3323 1.34687 18.3483 3.11064 15.8182" stroke="#191919" stroke-linecap="round" stroke-linejoin="round"/>
<path d="M17.5655 12.6235C17.9028 14.2437 17.6871 15.9301 16.953 17.4132C16.2187 18.8963 15.0083 20.0904 13.5154 20.8044C12.0224 21.5184 10.3332 21.711 8.71777 21.3517C7.10236 20.9923 5.65414 20.1016 4.6047 18.8221C3.55526 17.5425 2.96524 15.9479 2.92902 14.2934C2.89279 12.6389 3.41244 11.02 4.40485 9.69567C5.39727 8.37136 6.80512 7.41811 8.40325 6.98837C10.0014 6.55863 11.6974 6.67723 13.2202 7.32521" stroke="#191919" stroke-linecap="round" stroke-linejoin="round"/>
</g>
<defs>
<clipPath id="clip0_5303_10953">
<rect width="24" height="24" fill="white"/>
</clipPath>
</defs>
</svg>
