<svg width="24" height="24" viewBox="0 0 24 24" fill="none" xmlns="http://www.w3.org/2000/svg">
<g clip-path="url(#clip0_5303_10932)">
<path d="M16.0539 16.9885L20.7969 12.2484C21.4367 11.5937 21.7928 10.7133 21.788 9.7979C21.7833 8.88248 21.4181 8.00579 20.7714 7.35778L16.0108 2.58448C15.36 1.93948 14.4818 1.57583 13.5655 1.57181C12.6492 1.56778 11.7679 1.9237 11.1114 2.56296L6.53174 7.16509L16.0539 16.9885Z" fill="#B2B2B2" stroke="#191919" stroke-linecap="round" stroke-linejoin="round"/>
<path d="M15.9552 10.8624L12.4965 7.40275C12.0877 6.99402 11.6026 6.6698 11.0685 6.44859C10.5344 6.22738 9.96209 6.11353 9.38406 6.11353C8.80604 6.11353 8.23366 6.22738 7.69963 6.44859C7.1656 6.6698 6.68037 6.99402 6.27164 7.40275L4.19701 9.47933C3.92975 9.75606 3.78186 10.1266 3.78521 10.5113C3.78855 10.896 3.94286 11.264 4.21488 11.536C4.48692 11.8081 4.85491 11.9624 5.23961 11.9657C5.6243 11.9691 5.99492 11.8212 6.27164 11.5539L6.50248 11.3241L1.42987 16.3947C1.15463 16.67 1 17.0433 1 17.4325C1 17.8218 1.15463 18.1951 1.42987 18.4703C1.70512 18.7456 2.07842 18.9002 2.46767 18.9002C2.85692 18.9002 3.23024 18.7456 3.50547 18.4703L6.62083 15.3579C6.80437 15.1745 7.05325 15.0715 7.31273 15.0716C7.5722 15.0717 7.82099 15.1749 8.0044 15.3584C8.18781 15.5419 8.2908 15.7908 8.2907 16.0503C8.29062 16.3097 8.18745 16.5586 8.00392 16.742L4.88856 19.8544C4.61345 20.1296 4.45894 20.5029 4.45903 20.8921C4.45912 21.2812 4.61381 21.6544 4.88904 21.9295C5.16429 22.2047 5.53755 22.3591 5.92671 22.359C6.31586 22.3589 6.68905 22.2043 6.96416 21.929L11.8049 17.0863C11.5297 17.3614 11.3751 17.7346 11.375 18.1237C11.3749 18.5129 11.5293 18.8861 11.8045 19.1614C12.0796 19.4366 12.4528 19.5913 12.8419 19.5914C13.2311 19.5915 13.6043 19.437 13.8796 19.1619L15.9552 17.0863C16.7803 16.2608 17.2439 15.1414 17.2439 13.9743C17.2439 12.8072 16.7803 11.6878 15.9552 10.8624Z" fill="white" stroke="#191919" stroke-linecap="round" stroke-linejoin="round"/>
<path d="M19.7489 9.14184C19.2018 9.689 18.5046 10.0616 17.7456 10.2126C16.9867 10.3636 16.2001 10.2861 15.4851 9.98988C14.7702 9.69375 14.1592 9.19227 13.7293 8.54886C13.2993 7.90545 13.0698 7.14901 13.0698 6.37519C13.0698 5.60137 13.2993 4.84493 13.7293 4.20152C14.1592 3.55811 14.7702 3.05663 15.4851 2.7605C16.2001 2.46436 16.9867 2.38686 17.7456 2.53782C18.5046 2.68876 19.2018 3.06137 19.7489 3.60853C20.1123 3.97185 20.4005 4.40318 20.5971 4.87788C20.7938 5.35258 20.8949 5.86137 20.8949 6.37519C20.8949 6.88901 20.7938 7.3978 20.5971 7.8725C20.4005 8.3472 20.1123 8.77853 19.7489 9.14184Z" fill="white" stroke="#191919" stroke-linecap="round" stroke-linejoin="round"/>
<path d="M18.3661 7.75879C18.0925 8.03244 17.744 8.21881 17.3645 8.29434C16.985 8.36988 16.5916 8.33116 16.2341 8.18312C15.8767 8.03507 15.5711 7.78433 15.3561 7.46261C15.1411 7.14089 15.0264 6.76264 15.0264 6.3757C15.0264 5.98876 15.1411 5.61052 15.3561 5.2888C15.5711 4.96708 15.8767 4.71634 16.2341 4.56828C16.5916 4.42024 16.985 4.38154 17.3645 4.45706C17.744 4.53259 18.0925 4.71898 18.3661 4.99262C18.7328 5.35948 18.9389 5.85697 18.9389 6.3757C18.9389 6.89444 18.7328 7.39194 18.3661 7.75879Z" fill="#66E1FF"/>
<path d="M15.5999 7.75881C15.2435 7.38985 15.0464 6.89569 15.0509 6.38277C15.0553 5.86983 15.261 5.37918 15.6238 5.01647C15.9864 4.65377 16.4771 4.44802 16.99 4.44356C17.5029 4.43911 17.9971 4.63629 18.3661 4.99264L15.5999 7.75881Z" fill="#C2F3FF"/>
<path d="M18.3661 7.75879C18.0925 8.03244 17.744 8.21881 17.3645 8.29434C16.985 8.36988 16.5916 8.33116 16.2341 8.18312C15.8767 8.03507 15.5711 7.78433 15.3561 7.46261C15.1411 7.14089 15.0264 6.76264 15.0264 6.3757C15.0264 5.98876 15.1411 5.61052 15.3561 5.2888C15.5711 4.96708 15.8767 4.71634 16.2341 4.56828C16.5916 4.42024 16.985 4.38154 17.3645 4.45706C17.744 4.53259 18.0925 4.71898 18.3661 4.99262C18.7328 5.35948 18.9389 5.85697 18.9389 6.3757C18.9389 6.89444 18.7328 7.39194 18.3661 7.75879Z" stroke="#191919" stroke-linecap="round" stroke-linejoin="round"/>
<path d="M10.4218 10.1707L8.34686 12.2456C8.15587 12.4366 8.15587 12.7463 8.34686 12.9372L10.4218 15.0121C10.6128 15.2032 10.9225 15.2032 11.1135 15.0121L13.1884 12.9372C13.3793 12.7463 13.3793 12.4366 13.1884 12.2456L11.1135 10.1707C10.9225 9.97971 10.6128 9.97971 10.4218 10.1707Z" fill="#FF808C" stroke="#191919" stroke-linecap="round" stroke-linejoin="round"/>
<path d="M9.33936 19.5522C12.7364 24.3039 18.9984 22.4973 23 18.9653" stroke="#191919" stroke-linecap="round" stroke-linejoin="round"/>
<path d="M11.8066 17.0833L13.8813 15.0087" stroke="#191919" stroke-linecap="round" stroke-linejoin="round"/>
<path d="M8.34806 9.47546L6.27344 11.55" stroke="#191919" stroke-linecap="round" stroke-linejoin="round"/>
</g>
<defs>
<clipPath id="clip0_5303_10932">
<rect width="24" height="24" fill="white"/>
</clipPath>
</defs>
</svg>
