<svg width="24" height="24" viewBox="0 0 24 24" fill="none" xmlns="http://www.w3.org/2000/svg">
<g clip-path="url(#clip0_5303_12853)">
<mask id="mask0_5303_12853" style="mask-type:luminance" maskUnits="userSpaceOnUse" x="0" y="0" width="24" height="24">
<path d="M0 0H24V24H0V0Z" fill="white"/>
</mask>
<g mask="url(#mask0_5303_12853)">
<path d="M21.2774 6.10694L22.3006 5.08378C22.7284 4.6312 22.9629 4.0296 22.9541 3.40687C22.9454 2.78414 22.6941 2.18937 22.2537 1.74899C21.8133 1.3086 21.2186 1.05733 20.5958 1.04858C19.9731 1.03982 19.3715 1.27427 18.9189 1.7021L17.8948 2.72333C16.135 1.598 14.0897 1 12.0009 1C9.91199 1 7.86678 1.598 6.10694 2.72333L5.08475 1.7021C4.63631 1.25353 4.02804 1.00148 3.39376 1.00139C2.75948 1.0013 2.15115 1.25318 1.70258 1.70162C1.25402 2.15006 1.00196 2.75832 1.00187 3.3926C1.00178 4.02688 1.25366 4.63522 1.7021 5.08378L2.72333 6.10598C1.598 7.86581 1 9.91103 1 11.9999C1 14.0888 1.598 16.134 2.72333 17.8938L1.70018 18.916C1.27235 19.3686 1.0379 19.9702 1.04665 20.5929C1.05541 21.2157 1.30668 21.8104 1.74706 22.2508C2.18745 22.6912 2.78221 22.9425 3.40495 22.9512C4.02768 22.96 4.62928 22.7255 5.08186 22.2977L6.10598 21.2765C7.86581 22.4018 9.91103 22.9998 11.9999 22.9998C14.0888 22.9998 16.134 22.4018 17.8938 21.2765L18.916 22.2996C19.3645 22.7481 19.9727 23 20.6069 23C21.2411 23 21.8493 22.7481 22.2977 22.2996C22.7461 21.8512 22.9981 21.243 22.9981 20.6088C22.9981 19.9746 22.7461 19.3664 22.2977 18.9179L21.2765 17.8938C22.4018 16.134 22.9998 14.0888 22.9998 11.9999C22.9998 9.91103 22.4028 7.86678 21.2774 6.10694Z" fill="#E3E3E3"/>
<path d="M1.01143 12.2305C1.98073 10.1317 3.53075 8.35435 5.47822 7.10863C7.42568 5.86292 9.68914 5.20092 12.0009 5.20092C14.3128 5.20092 16.5762 5.86292 18.5237 7.10863C20.4711 8.35435 22.0212 10.1317 22.9905 12.2305C22.9905 12.1536 22.9991 12.0777 22.9991 11.9999C22.9993 9.91155 22.402 7.86673 21.2775 6.10694L22.3007 5.08378C22.7285 4.6312 22.963 4.0296 22.9542 3.40687C22.9454 2.78413 22.6942 2.18937 22.2538 1.74899C21.8134 1.3086 21.2186 1.05733 20.5959 1.04858C19.9732 1.03982 19.3716 1.27427 18.919 1.7021L17.8949 2.72333C16.135 1.598 14.0898 1 12.0009 1C9.91207 1 7.86686 1.598 6.10702 2.72333L5.08483 1.7021C4.63639 1.25353 4.02812 1.00148 3.39384 1.00139C2.75957 1.0013 2.15123 1.25318 1.70266 1.70162C1.2541 2.15006 1.00204 2.75832 1.00195 3.3926C1.00186 4.02688 1.25374 4.63522 1.70218 5.08378L2.72341 6.10598C1.59866 7.86629 1.00158 9.9119 1.00279 12.0009C1.00279 12.0777 1.00855 12.1527 1.01143 12.2305Z" fill="white"/>
<path d="M21.2774 6.10694L22.3006 5.08378C22.7284 4.6312 22.9629 4.0296 22.9541 3.40687C22.9454 2.78414 22.6941 2.18937 22.2537 1.74899C21.8133 1.3086 21.2186 1.05733 20.5958 1.04858C19.9731 1.03982 19.3715 1.27427 18.9189 1.7021L17.8948 2.72333C16.135 1.598 14.0897 1 12.0009 1C9.91199 1 7.86678 1.598 6.10694 2.72333L5.08475 1.7021C4.63631 1.25353 4.02804 1.00148 3.39376 1.00139C2.75948 1.0013 2.15115 1.25318 1.70258 1.70162C1.25402 2.15006 1.00196 2.75832 1.00187 3.3926C1.00178 4.02688 1.25366 4.63522 1.7021 5.08378L2.72333 6.10598C1.598 7.86581 1 9.91103 1 11.9999C1 14.0888 1.598 16.134 2.72333 17.8938L1.70018 18.916C1.27235 19.3686 1.0379 19.9702 1.04665 20.5929C1.05541 21.2157 1.30668 21.8104 1.74706 22.2508C2.18745 22.6912 2.78221 22.9425 3.40495 22.9512C4.02768 22.96 4.62928 22.7255 5.08186 22.2977L6.10598 21.2765C7.86581 22.4018 9.91103 22.9998 11.9999 22.9998C14.0888 22.9998 16.134 22.4018 17.8938 21.2765L18.916 22.2996C19.3645 22.7481 19.9727 23 20.6069 23C21.2411 23 21.8493 22.7481 22.2977 22.2996C22.7461 21.8512 22.9981 21.243 22.9981 20.6088C22.9981 19.9746 22.7461 19.3664 22.2977 18.9179L21.2765 17.8938C22.4018 16.134 22.9998 14.0888 22.9998 11.9999C22.9998 9.91103 22.4028 7.86678 21.2774 6.10694Z" stroke="#191919" stroke-linecap="round" stroke-linejoin="round"/>
<path d="M12.0012 19.1735C13.9035 19.1735 15.7279 18.4178 17.0731 17.0727C18.4182 15.7276 19.1739 13.9032 19.1739 12.0009C19.1739 10.0986 18.4182 8.27419 17.0731 6.92906C15.7279 5.58393 13.9035 4.82825 12.0012 4.82825C10.0989 4.82825 8.27456 5.58393 6.92943 6.92906C5.5843 8.27419 4.82861 10.0986 4.82861 12.0009C4.82861 13.9032 5.5843 15.7276 6.92943 17.0727C8.27456 18.4178 10.0989 19.1735 12.0012 19.1735Z" fill="#808080"/>
<path d="M12.0013 8.06874C13.6216 8.07033 15.1937 8.62053 16.4615 9.62973C17.7292 10.6389 18.6179 12.0477 18.9827 13.6264C19.2301 12.5738 19.2363 11.4789 19.0007 10.4235C18.7652 9.36821 18.2941 8.37979 17.6226 7.53223C16.9512 6.68467 16.0968 5.99992 15.1233 5.5292C14.1499 5.05847 13.0826 4.81396 12.0013 4.81396C10.92 4.81396 9.85266 5.05847 8.8792 5.5292C7.90574 5.99992 7.05132 6.68467 6.37987 7.53223C5.70841 8.37979 5.2373 9.36821 5.00178 10.4235C4.76626 11.4789 4.77242 12.5738 5.01981 13.6264C5.38464 12.0477 6.27331 10.6389 7.54104 9.62973C8.80878 8.62053 10.3809 8.07033 12.0013 8.06874Z" fill="#B2B2B2"/>
<path d="M12.0012 19.1735C13.9035 19.1735 15.7279 18.4178 17.0731 17.0727C18.4182 15.7276 19.1739 13.9032 19.1739 12.0009C19.1739 10.0986 18.4182 8.27419 17.0731 6.92906C15.7279 5.58393 13.9035 4.82825 12.0012 4.82825C10.0989 4.82825 8.27456 5.58393 6.92943 6.92906C5.5843 8.27419 4.82861 10.0986 4.82861 12.0009C4.82861 13.9032 5.5843 15.7276 6.92943 17.0727C8.27456 18.4178 10.0989 19.1735 12.0012 19.1735Z" stroke="#191919" stroke-linecap="round" stroke-linejoin="round"/>
<path d="M12.0011 14.3919C12.3151 14.3919 12.626 14.33 12.9161 14.2099C13.2062 14.0897 13.4698 13.9136 13.6919 13.6915C13.9139 13.4695 14.0901 13.2059 14.2102 12.9158C14.3304 12.6257 14.3923 12.3147 14.3923 12.0007C14.3923 11.6867 14.3304 11.3757 14.2102 11.0856C14.0901 10.7955 13.9139 10.5319 13.6919 10.3099C13.4698 10.0878 13.2062 9.91169 12.9161 9.79152C12.626 9.67135 12.3151 9.6095 12.0011 9.6095C11.3669 9.6095 10.7587 9.86143 10.3102 10.3099C9.86179 10.7583 9.60986 11.3665 9.60986 12.0007C9.60986 12.6349 9.86179 13.2431 10.3102 13.6915C10.7587 14.14 11.3669 14.3919 12.0011 14.3919Z" fill="#6B6B6B"/>
<path d="M12.0011 14.3919C12.3151 14.3919 12.626 14.33 12.9161 14.2099C13.2062 14.0897 13.4698 13.9136 13.6919 13.6915C13.9139 13.4695 14.0901 13.2059 14.2102 12.9158C14.3304 12.6257 14.3923 12.3147 14.3923 12.0007C14.3923 11.6867 14.3304 11.3757 14.2102 11.0856C14.0901 10.7955 13.9139 10.5319 13.6919 10.3099C13.4698 10.0878 13.2062 9.91169 12.9161 9.79152C12.626 9.67135 12.3151 9.6095 12.0011 9.6095C11.3669 9.6095 10.7587 9.86143 10.3102 10.3099C9.86179 10.7583 9.60986 11.3665 9.60986 12.0007C9.60986 12.6349 9.86179 13.2431 10.3102 13.6915C10.7587 14.14 11.3669 14.3919 12.0011 14.3919Z" stroke="#191919" stroke-linecap="round" stroke-linejoin="round"/>
<path d="M3.35492 20.4071C3.29122 20.4071 3.23013 20.4324 3.18509 20.4775C3.14005 20.5225 3.11475 20.5836 3.11475 20.6473C3.11475 20.711 3.14005 20.7721 3.18509 20.8171C3.23013 20.8622 3.29122 20.8875 3.35492 20.8875C3.41862 20.8875 3.47971 20.8622 3.52475 20.8171C3.56979 20.7721 3.5951 20.711 3.5951 20.6473C3.5951 20.5836 3.56979 20.5225 3.52475 20.4775C3.47971 20.4324 3.41862 20.4071 3.35492 20.4071Z" stroke="#191919" stroke-linecap="round" stroke-linejoin="round"/>
<path d="M20.6479 3.59473C20.5842 3.59473 20.5231 3.56943 20.4781 3.52439C20.433 3.47934 20.4077 3.41825 20.4077 3.35456C20.4077 3.29086 20.433 3.22977 20.4781 3.18473C20.5231 3.13968 20.5842 3.11438 20.6479 3.11438" stroke="#191919"/>
<path d="M20.6475 3.59473C20.7112 3.59473 20.7722 3.56943 20.8173 3.52439C20.8623 3.47934 20.8876 3.41825 20.8876 3.35456C20.8876 3.29086 20.8623 3.22977 20.8173 3.18473C20.7722 3.13968 20.7112 3.11438 20.6475 3.11438" stroke="#191919"/>
<path d="M3.35492 3.59473C3.29122 3.59473 3.23013 3.56943 3.18509 3.52439C3.14005 3.47934 3.11475 3.41825 3.11475 3.35456C3.11475 3.29086 3.14005 3.22977 3.18509 3.18473C3.23013 3.13968 3.29122 3.11438 3.35492 3.11438" stroke="#191919"/>
<path d="M3.35449 3.59473C3.41819 3.59473 3.47928 3.56943 3.52432 3.52439C3.56936 3.47934 3.59467 3.41825 3.59467 3.35456C3.59467 3.29086 3.56936 3.22977 3.52432 3.18473C3.47928 3.13968 3.41819 3.11438 3.35449 3.11438" stroke="#191919"/>
<path d="M20.6479 20.8875C20.5842 20.8875 20.5231 20.8622 20.4781 20.8171C20.433 20.7721 20.4077 20.711 20.4077 20.6473C20.4077 20.5836 20.433 20.5225 20.4781 20.4775C20.5231 20.4324 20.5842 20.4071 20.6479 20.4071" stroke="#191919"/>
<path d="M20.6475 20.8875C20.7112 20.8875 20.7722 20.8622 20.8173 20.8171C20.8623 20.7721 20.8876 20.711 20.8876 20.6473C20.8876 20.5836 20.8623 20.5225 20.8173 20.4775C20.7722 20.4324 20.7112 20.4071 20.6475 20.4071" stroke="#191919"/>
<path d="M3.35492 20.8875C3.29122 20.8875 3.23013 20.8622 3.18509 20.8171C3.14005 20.7721 3.11475 20.711 3.11475 20.6473C3.11475 20.5836 3.14005 20.5225 3.18509 20.4775C3.23013 20.4324 3.29122 20.4071 3.35492 20.4071" stroke="#191919"/>
<path d="M3.35449 20.8875C3.41819 20.8875 3.47928 20.8622 3.52432 20.8171C3.56936 20.7721 3.59467 20.711 3.59467 20.6473C3.59467 20.5836 3.56936 20.5225 3.52432 20.4775C3.47928 20.4324 3.41819 20.4071 3.35449 20.4071" stroke="#191919"/>
</g>
</g>
<defs>
<clipPath id="clip0_5303_12853">
<rect width="24" height="24" fill="white"/>
</clipPath>
</defs>
</svg>
