<svg width="63" height="15" viewBox="0 0 63 15" fill="none" xmlns="http://www.w3.org/2000/svg">
<path d="M4.46402 7.88398C1.40402 7.46998 0.144024 6.19198 0.144024 4.10398V3.90598C0.144024 1.51198 1.90802 -1.95503e-05 4.77002 -1.95503e-05C7.99202 -1.95503e-05 9.37802 1.58398 9.37802 4.62598V5.05798H7.50602C7.50602 2.68198 6.71402 1.65598 4.78802 1.65598H4.66202C3.13202 1.65598 2.07002 2.48398 2.07002 3.76198V3.90598C2.07002 5.21998 2.71802 5.99398 5.09402 6.31798C8.15402 6.73198 9.52202 7.90198 9.52202 10.206V10.404C9.52202 12.96 7.74002 14.472 4.77002 14.472C1.65602 14.472 2.39462e-05 12.852 2.39462e-05 9.77398V9.59398H1.87202C1.87202 11.826 3.00602 12.816 4.69802 12.816H4.84202C6.53402 12.816 7.59602 11.916 7.59602 10.494V10.35C7.59602 8.92798 6.76802 8.18998 4.46402 7.88398ZM13.3439 8.78398V14.256H11.4719V0.215981H15.6299C17.7359 0.215981 20.1299 0.91798 20.1299 4.31998V4.67998C20.1299 8.09998 17.7359 8.78398 15.6299 8.78398H13.3439ZM13.3439 7.14598H15.6839C16.7639 7.14598 18.2219 6.74998 18.2219 4.62598V4.39198C18.2219 2.26798 16.7639 1.87198 15.6839 1.87198H13.3439V7.14598ZM26.5239 14.472C23.1399 14.472 21.5019 12.456 21.5019 7.59598V6.87598C21.5019 2.01598 23.1399 -1.95503e-05 26.5239 -1.95503e-05C29.8899 -1.95503e-05 31.5279 2.01598 31.5279 6.87598V7.59598C31.5279 12.456 29.8899 14.472 26.5239 14.472ZM26.4519 12.816H26.5779C28.7379 12.816 29.6019 11.16 29.6019 7.59598V6.87598C29.6019 3.31198 28.7379 1.65598 26.5779 1.65598H26.4519C24.2919 1.65598 23.4279 3.31198 23.4279 6.87598V7.59598C23.4279 11.16 24.2919 12.816 26.4519 12.816ZM35.5099 8.78398V14.256H33.6379V0.215981H37.7959C39.9019 0.215981 42.2959 0.91798 42.2959 4.31998V4.67998C42.2959 6.92998 41.2519 7.99198 39.9559 8.45998L42.2959 14.256H40.2619L38.1379 8.78398H35.5099ZM35.5099 7.14598H37.8499C38.9299 7.14598 40.3879 6.74998 40.3879 4.62598V4.39198C40.3879 2.26798 38.9299 1.87198 37.8499 1.87198H35.5099V7.14598ZM48.5969 1.87198V14.256H46.7249V1.87198H43.2689V0.215981H52.0529V1.87198H48.5969ZM57.339 7.88398C54.279 7.46998 53.019 6.19198 53.019 4.10398V3.90598C53.019 1.51198 54.783 -1.95503e-05 57.645 -1.95503e-05C60.867 -1.95503e-05 62.253 1.58398 62.253 4.62598V5.05798H60.381C60.381 2.68198 59.589 1.65598 57.663 1.65598H57.537C56.007 1.65598 54.945 2.48398 54.945 3.76198V3.90598C54.945 5.21998 55.593 5.99398 57.969 6.31798C61.029 6.73198 62.397 7.90198 62.397 10.206V10.404C62.397 12.96 60.615 14.472 57.645 14.472C54.531 14.472 52.875 12.852 52.875 9.77398V9.59398H54.747C54.747 11.826 55.881 12.816 57.573 12.816H57.717C59.409 12.816 60.471 11.916 60.471 10.494V10.35C60.471 8.92798 59.643 8.18998 57.339 7.88398Z" fill="#121212"/>
</svg>
