<svg width="24" height="24" viewBox="0 0 24 24" fill="none" xmlns="http://www.w3.org/2000/svg">
<g clip-path="url(#clip0_5303_8938)">
<path d="M12.0001 22.9739C18.0678 22.9739 22.9871 18.0546 22.9871 11.987C22.9871 5.91929 18.0678 1 12.0001 1C5.93248 1 1.01318 5.91929 1.01318 11.987C1.01318 18.0546 5.93248 22.9739 12.0001 22.9739Z" fill="#C9F7CA"/>
<path d="M12.0001 18.1234C9.50866 18.122 7.09163 17.2738 5.1456 15.7181C3.19957 14.1623 1.84011 11.9913 1.29025 9.56122C0.921773 11.1708 0.920819 12.8427 1.28746 14.4526C1.65409 16.0626 2.37889 17.5692 3.40796 18.8605C4.43703 20.1518 5.74392 21.1945 7.23147 21.9112C8.71901 22.6278 10.349 23 12.0001 23C13.6513 23 15.2813 22.6278 16.7688 21.9112C18.2564 21.1945 19.5633 20.1518 20.5923 18.8605C21.6214 17.5692 22.3462 16.0626 22.7128 14.4526C23.0795 12.8427 23.0785 11.1708 22.71 9.56122C22.1602 11.9913 20.8007 14.1623 18.8547 15.7181C16.9087 17.2738 14.4916 18.122 12.0001 18.1234Z" fill="#78EB7B"/>
<path d="M18.6231 11.0994C18.3499 11.0994 18.0872 10.9972 17.8856 10.8128C16.373 9.56936 14.5327 8.79056 12.587 8.57047C10.6627 8.24589 8.68558 8.48341 6.89289 9.25453C6.63326 9.36776 6.33994 9.37635 6.07413 9.2785C5.80833 9.18066 5.59058 8.98394 5.46633 8.7294C5.34208 8.47487 5.32094 8.18218 5.4073 7.91243C5.49367 7.64267 5.68088 7.4167 5.92986 7.28166C8.1173 6.32157 10.5357 6.01434 12.8937 6.39697C15.2744 6.68053 17.5215 7.64973 19.3617 9.1867C19.5254 9.3359 19.6402 9.53111 19.691 9.74672C19.7418 9.96232 19.7263 10.1883 19.6464 10.3949C19.5666 10.6015 19.4261 10.7791 19.2435 10.9045C19.0609 11.0299 18.8447 11.0972 18.6231 11.0975V11.0994Z" fill="white" stroke="#191919" stroke-linecap="round" stroke-linejoin="round"/>
<path d="M17.206 14.5264C16.9747 14.527 16.7511 14.4431 16.5773 14.2904C15.2714 13.2491 13.6994 12.5954 12.0402 12.4035C10.3889 12.1293 8.69378 12.3253 7.14862 12.9691C6.92048 13.071 6.6615 13.0794 6.42721 12.9926C6.19291 12.9058 6.00194 12.7307 5.89523 12.5048C5.78852 12.2788 5.77456 12.0201 5.85634 11.784C5.93812 11.5479 6.10913 11.3533 6.33272 11.2418C8.21327 10.4321 10.2865 10.1785 12.3068 10.5109C14.3348 10.7485 16.2527 11.5606 17.8346 12.8516C17.981 12.9795 18.0849 13.1491 18.1324 13.3376C18.1799 13.5262 18.1687 13.7247 18.1004 13.9067C18.0321 14.0888 17.9099 14.2456 17.75 14.3563C17.5902 14.467 17.4004 14.5264 17.206 14.5264Z" fill="white" stroke="#191919" stroke-linecap="round" stroke-linejoin="round"/>
<path d="M16.1447 18.1014C15.9365 18.1017 15.7354 18.026 15.5791 17.8884C14.4063 16.9514 12.9936 16.3632 11.5025 16.1907C10.0277 15.947 8.5142 16.1201 7.13251 16.6903C7.02926 16.7516 6.91433 16.7905 6.79512 16.8047C6.67592 16.8188 6.55507 16.8078 6.44036 16.7724C6.32565 16.737 6.21962 16.678 6.12909 16.5992C6.03857 16.5203 5.96556 16.4234 5.91476 16.3147C5.86397 16.2059 5.8365 16.0877 5.83415 15.9677C5.8318 15.8476 5.8546 15.7285 5.90109 15.6178C5.94758 15.5071 6.01674 15.4074 6.1041 15.3251C6.19146 15.2427 6.29509 15.1796 6.40832 15.1397C8.08888 14.4234 9.93865 14.2004 11.7413 14.4968C13.5651 14.7098 15.2887 15.4426 16.7093 16.6053C16.8384 16.721 16.9294 16.873 16.9705 17.0414C17.0117 17.2098 17.001 17.3866 16.9398 17.5488C16.8787 17.711 16.7699 17.8509 16.6279 17.9502C16.4858 18.0495 16.317 18.1035 16.1437 18.1053L16.1447 18.1014Z" fill="white" stroke="#191919" stroke-linecap="round" stroke-linejoin="round"/>
<path d="M12.0001 22.9739C18.0678 22.9739 22.9871 18.0546 22.9871 11.987C22.9871 5.91929 18.0678 1 12.0001 1C5.93248 1 1.01318 5.91929 1.01318 11.987C1.01318 18.0546 5.93248 22.9739 12.0001 22.9739Z" stroke="#191919" stroke-linecap="round" stroke-linejoin="round"/>
</g>
<defs>
<clipPath id="clip0_5303_8938">
<rect width="24" height="24" fill="white"/>
</clipPath>
</defs>
</svg>
