<svg width="24" height="24" viewBox="0 0 24 24" fill="none" xmlns="http://www.w3.org/2000/svg">
<path d="M14.9423 6.47489L7.07649 14.3427C6.74586 14.6732 6.35338 14.9353 5.92144 15.1142C5.48951 15.293 5.02659 15.385 4.5591 15.3849C4.09162 15.3848 3.62873 15.2926 3.19687 15.1136C2.76501 14.9346 2.37263 14.6723 2.04214 14.3417C1.71165 14.0111 1.44951 13.6186 1.2707 13.1867C1.09189 12.7547 0.999906 12.2918 1 11.8243C1.00009 11.3568 1.09227 10.8939 1.27125 10.4621C1.45024 10.0302 1.71253 9.63784 2.04316 9.30735L7.79554 3.55497C8.46307 2.88764 9.36831 2.51276 10.3122 2.51276C11.2561 2.51276 12.1613 2.88764 12.8289 3.55497L13.0577 3.7838" stroke="#191919" stroke-linecap="round" stroke-linejoin="round"/>
<path d="M4.36816 12.0666L11.8637 4.572C12.5313 3.90467 13.4365 3.52979 14.3804 3.52979C15.3243 3.52979 16.2296 3.90467 16.8971 4.572" stroke="#191919" stroke-linecap="round" stroke-linejoin="round"/>
<path d="M9.021 17.5576L16.9224 9.65724C17.5898 8.98951 18.4952 8.61427 19.4393 8.61407C20.3835 8.61388 21.289 8.98875 21.9567 9.65621C22.6245 10.3237 22.9997 11.2291 22.9999 12.1732C23.0001 13.1173 22.6252 14.0228 21.9577 14.6906L16.2033 20.445C15.5358 21.1123 14.6306 21.4872 13.6867 21.4872C12.7428 21.4872 11.8375 21.1123 11.17 20.445L10.9402 20.2141" stroke="#191919" stroke-linecap="round" stroke-linejoin="round"/>
<path d="M19.5679 11.9944L12.1354 19.4279C11.4679 20.0953 10.5626 20.4701 9.61872 20.4701C8.67483 20.4701 7.76958 20.0953 7.10205 19.4279" stroke="#191919" stroke-linecap="round" stroke-linejoin="round"/>
</svg>
