<svg width="24" height="24" viewBox="0 0 24 24" fill="none" xmlns="http://www.w3.org/2000/svg">
<path d="M6.27539 18.9847H14.306C14.4064 18.0813 14.56 17.1848 14.7638 16.2984L6.89174 14.6341C6.55847 16.0633 6.35222 17.5192 6.27539 18.9847Z" fill="#B2B2B2"/>
<path d="M8.3366 10.4943C7.71184 11.821 7.22769 13.2095 6.89209 14.6371L14.7591 16.3014C14.9599 15.4171 15.2349 14.5507 15.5813 13.7115L8.3366 10.4943Z" fill="#EEEEEE"/>
<path d="M8.33643 10.4943L15.5811 13.7066C15.9345 12.858 16.3874 12.0543 16.9302 11.3124L10.6292 6.74902C9.73005 7.90971 8.96118 9.16568 8.33643 10.4943Z" fill="#E3BFB3"/>
<path d="M10.6289 6.74996L16.93 11.3144C17.4761 10.5678 18.1242 9.90151 18.8553 9.33483L13.6494 3.56781C12.5385 4.5246 11.5265 5.59068 10.6289 6.74996Z" fill="#FFDDA1"/>
<path d="M17.2075 1C15.9528 1.75625 14.7628 2.61512 13.6499 3.5678L18.8558 9.33181C19.5868 8.76848 20.3874 8.30186 21.2379 7.94351L17.2075 1Z" fill="#FFBC44"/>
<path d="M17.8197 14.4674V20.9923C17.8197 21.5248 17.6082 22.0354 17.2317 22.4119C16.8551 22.7885 16.3445 23 15.812 23H4.76987C4.23741 23 3.72675 22.7885 3.35024 22.4119C2.97373 22.0354 2.76221 21.5248 2.76221 20.9923V14.4674" stroke="#191919" stroke-linecap="round" stroke-linejoin="round"/>
<path d="M14.3017 18.9847H6.271" stroke="#191919" stroke-linecap="round" stroke-linejoin="round"/>
<path d="M14.69 16.2894L6.83398 14.621" stroke="#191919" stroke-linecap="round" stroke-linejoin="round"/>
<path d="M15.6296 13.7306L8.28955 10.4702" stroke="#191919" stroke-linecap="round" stroke-linejoin="round"/>
<path d="M17.079 11.4227L10.5762 6.71075" stroke="#191919" stroke-linecap="round" stroke-linejoin="round"/>
<path d="M18.9764 9.46738L13.5918 3.50763" stroke="#191919" stroke-linecap="round" stroke-linejoin="round"/>
<path d="M21.2374 7.94652L17.207 1" stroke="#191919" stroke-linecap="round" stroke-linejoin="round"/>
</svg>
