<svg width="24" height="24" viewBox="0 0 24 24" fill="none" xmlns="http://www.w3.org/2000/svg">
<g clip-path="url(#clip0_5303_9708)">
<path d="M1 7.69568H7.21739C7.34424 7.69568 7.46589 7.74607 7.55557 7.83576C7.64526 7.92544 7.69565 8.04709 7.69565 8.17394V11.5217H11.0435C11.1703 11.5217 11.292 11.5721 11.3817 11.6618C11.4713 11.7515 11.5217 11.8732 11.5217 12V15.3478H14.8696C14.9964 15.3478 15.1181 15.3982 15.2078 15.4879C15.2974 15.5776 15.3478 15.6992 15.3478 15.8261V19.1739H18.6957C18.8225 19.1739 18.9442 19.2243 19.0339 19.3139C19.1235 19.4037 19.1739 19.5253 19.1739 19.6522V23H1V7.69568Z" fill="#C77F67"/>
<path d="M4.58791 9.52455C4.49891 9.43526 4.37824 9.38472 4.25217 9.38394H1V7.69568H7.21739C7.34424 7.69568 7.46589 7.74607 7.55557 7.83576C7.64526 7.92544 7.69565 8.04709 7.69565 8.17394V11.5217H11.0435C11.1703 11.5217 11.292 11.5721 11.3817 11.6618C11.4713 11.7515 11.5217 11.8732 11.5217 12V15.3478H14.8696C14.9964 15.3478 15.1181 15.3982 15.2078 15.4879C15.2974 15.5776 15.3478 15.6992 15.3478 15.8261V19.1739H18.6957C18.8225 19.1739 18.9442 19.2243 19.0339 19.3139C19.1235 19.4037 19.1739 19.5253 19.1739 19.6522V23H18.0634L4.58791 9.52455Z" fill="#E3BFB3"/>
<path d="M23 23H1" stroke="#191919" stroke-linecap="round" stroke-linejoin="round"/>
<path d="M1 7.69568H7.21739C7.34424 7.69568 7.46589 7.74607 7.55557 7.83576C7.64526 7.92544 7.69565 8.04709 7.69565 8.17394V11.5217H11.0435C11.1703 11.5217 11.292 11.5721 11.3817 11.6618C11.4713 11.7515 11.5217 11.8732 11.5217 12V15.3478H14.8696C14.9964 15.3478 15.1181 15.3982 15.2078 15.4879C15.2974 15.5776 15.3478 15.6992 15.3478 15.8261V19.1739H18.6957C18.8225 19.1739 18.9442 19.2243 19.0339 19.3139C19.1235 19.4037 19.1739 19.5253 19.1739 19.6522V23" stroke="#191919" stroke-linecap="round" stroke-linejoin="round"/>
<path d="M12.478 1L22.9998 11.5217" stroke="#191919" stroke-linecap="round" stroke-linejoin="round"/>
<path d="M22.9999 6.73914V11.5217H18.2173" stroke="#191919" stroke-linecap="round" stroke-linejoin="round"/>
</g>
<defs>
<clipPath id="clip0_5303_9708">
<rect width="24" height="24" fill="white"/>
</clipPath>
</defs>
</svg>
