<svg width="24" height="24" viewBox="0 0 24 24" fill="none" xmlns="http://www.w3.org/2000/svg">
<g clip-path="url(#clip0_5303_9204)">
<path d="M22.9952 3.2086C22.9928 1.5085 21.1509 0.448605 19.6798 1.30076C19.0872 1.64403 18.6873 2.24287 18.5975 2.92172C18.3575 1.22904 16.3751 0.430846 15.0291 1.48508C14.5774 1.8388 14.2802 2.35372 14.1997 2.92172C13.9597 1.22904 11.9774 0.430846 10.6314 1.48508C10.1797 1.8388 9.88248 2.35372 9.80188 2.92172C9.5673 1.22904 7.58822 0.425186 6.2396 1.47474C5.78332 1.82982 5.48356 2.34904 5.40413 2.92172C5.17522 1.23713 3.20853 0.432114 1.8641 1.47269C0.519673 2.51316 0.805869 4.61889 2.37922 5.26291C2.55212 5.33375 2.73333 5.38225 2.91843 5.40742C1.22575 5.64737 0.427559 7.62976 1.48169 8.97575C1.83551 9.42744 2.35043 9.72466 2.91843 9.80526C1.22575 10.0504 0.433219 12.036 1.49184 13.3794C1.84429 13.8266 2.35492 14.1213 2.91843 14.203C1.22575 14.4481 0.433219 16.4337 1.49184 17.7771C1.84429 18.2243 2.35492 18.5192 2.91843 18.6007C1.23385 18.8297 0.428828 20.7963 1.4693 22.1408C2.50987 23.4852 4.61561 23.199 5.25962 21.6258C5.33046 21.4528 5.37896 21.2716 5.40413 21.0864C5.64408 22.7791 7.62647 23.5773 8.97246 22.5232C9.42415 22.1694 9.72138 21.6545 9.80188 21.0864C10.0418 22.7791 12.0242 23.5773 13.3702 22.5232C13.8219 22.1694 14.1191 21.6545 14.1997 21.0864C14.4397 22.7791 16.422 23.5773 17.7679 22.5232C18.2196 22.1694 18.5169 21.6545 18.5975 21.0864C18.8264 22.771 20.7931 23.5761 22.1375 22.5356C23.4819 21.495 23.1957 19.3893 21.6224 18.7453C21.4495 18.6744 21.2683 18.6259 21.0832 18.6007C22.7758 18.3608 23.574 16.3784 22.5198 15.0324C22.1661 14.5807 21.6512 14.2835 21.0832 14.203C22.7758 13.9631 23.574 11.9807 22.5198 10.6347C22.1661 10.183 21.6512 9.88576 21.0832 9.80526C22.7758 9.56522 23.574 7.58292 22.5198 6.23693C22.1661 5.78524 21.6512 5.48802 21.0832 5.40742C22.1795 5.25354 22.995 4.31562 22.9952 3.2086Z" fill="#E3E3E3"/>
<path d="M20.7957 1.00966C19.6885 1.00946 18.7504 1.82521 18.5969 2.92179C18.3517 1.22901 16.3661 0.436484 15.0228 1.49511C14.5755 1.84756 14.2808 2.35828 14.1992 2.92179C13.954 1.22901 11.9684 0.436484 10.625 1.49511C10.1778 1.84756 9.88302 2.35828 9.80134 2.92179C9.56677 1.22901 7.58769 0.425165 6.23906 1.47471C5.78279 1.8298 5.48303 2.34901 5.4036 2.92179C5.17468 1.23721 3.208 0.432093 1.86357 1.47266C0.519139 2.51314 0.805335 4.61887 2.37868 5.26298C2.55159 5.33373 2.73279 5.38232 2.9179 5.4074C1.22521 5.64744 0.427026 7.62974 1.48116 8.97573C1.83498 9.42742 2.3499 9.72464 2.9179 9.80524C1.22521 10.0452 0.427026 12.0276 1.48116 13.3735C1.83498 13.8252 2.3499 14.1225 2.9179 14.203C1.22521 14.443 0.427026 16.4254 1.48116 17.7712C1.83498 18.2229 2.3499 18.5203 2.9179 18.6008C1.82161 18.7547 1.00605 19.6926 1.00586 20.7997C1.00664 21.3931 1.24805 21.961 1.67505 22.3733L22.3694 1.67894C21.9572 1.25185 21.3893 1.01034 20.7957 1.00966Z" fill="white"/>
<path d="M19.1705 4.83386V16.2967L15.2126 9.61401L12.0003 14.8722L10.0309 13.1992L6.45534 19.1743H4.83008V4.83386H19.1705Z" fill="#66E1FF"/>
<path d="M19.1712 16.2967V19.1743H6.45605L10.0316 13.1991L12.001 14.8722L15.2133 9.61401L19.1712 16.2967Z" fill="#78EB7B"/>
<path d="M19.1705 4.83386H4.83008V19.1743H19.1705V4.83386Z" stroke="#191919" stroke-linecap="round" stroke-linejoin="round"/>
<path d="M19.1704 16.3034L15.2096 9.61401L12.0001 14.8722L10.0288 13.2039L6.46094 19.1743" stroke="#191919" stroke-linecap="round" stroke-linejoin="round"/>
<path d="M9.13268 11.048C10.6046 11.048 11.5246 9.45457 10.7886 8.17991C10.447 7.58829 9.81582 7.22394 9.13268 7.22394C7.66081 7.22394 6.74085 8.81729 7.47678 10.092C7.8184 10.6837 8.44953 11.0481 9.13268 11.048Z" fill="#FFF9BF" stroke="#191919" stroke-linecap="round" stroke-linejoin="round"/>
<path d="M22.9952 3.2086C22.9928 1.5085 21.1509 0.448605 19.6798 1.30076C19.0872 1.64403 18.6873 2.24287 18.5975 2.92172C18.3575 1.22904 16.3751 0.430846 15.0291 1.48508C14.5774 1.8388 14.2802 2.35372 14.1997 2.92172C13.9597 1.22904 11.9774 0.430846 10.6314 1.48508C10.1797 1.8388 9.88248 2.35372 9.80188 2.92172C9.5673 1.22904 7.58822 0.425186 6.2396 1.47474C5.78332 1.82982 5.48356 2.34904 5.40413 2.92172C5.17522 1.23713 3.20853 0.432114 1.8641 1.47269C0.519673 2.51316 0.805869 4.61889 2.37922 5.26291C2.55212 5.33375 2.73333 5.38225 2.91843 5.40742C1.22575 5.64737 0.427559 7.62976 1.48169 8.97575C1.83551 9.42744 2.35043 9.72466 2.91843 9.80526C1.22575 10.0504 0.433219 12.036 1.49184 13.3794C1.84429 13.8266 2.35492 14.1213 2.91843 14.203C1.22575 14.4481 0.433219 16.4337 1.49184 17.7771C1.84429 18.2243 2.35492 18.5192 2.91843 18.6007C1.23385 18.8297 0.428828 20.7963 1.4693 22.1408C2.50987 23.4852 4.61561 23.199 5.25962 21.6258C5.33046 21.4528 5.37896 21.2716 5.40413 21.0864C5.64408 22.7791 7.62647 23.5773 8.97246 22.5232C9.42415 22.1694 9.72138 21.6545 9.80188 21.0864C10.0418 22.7791 12.0242 23.5773 13.3702 22.5232C13.8219 22.1694 14.1191 21.6545 14.1997 21.0864C14.4397 22.7791 16.422 23.5773 17.7679 22.5232C18.2196 22.1694 18.5169 21.6545 18.5975 21.0864C18.8264 22.771 20.7931 23.5761 22.1375 22.5356C23.4819 21.495 23.1957 19.3893 21.6224 18.7453C21.4495 18.6744 21.2683 18.6259 21.0832 18.6007C22.7758 18.3608 23.574 16.3784 22.5198 15.0324C22.1661 14.5807 21.6512 14.2835 21.0832 14.203C22.7758 13.9631 23.574 11.9807 22.5198 10.6347C22.1661 10.183 21.6512 9.88576 21.0832 9.80526C22.7758 9.56522 23.574 7.58292 22.5198 6.23693C22.1661 5.78524 21.6512 5.48802 21.0832 5.40742C22.1795 5.25354 22.995 4.31562 22.9952 3.2086Z" stroke="#191919" stroke-linecap="round" stroke-linejoin="round"/>
</g>
<defs>
<clipPath id="clip0_5303_9204">
<rect width="24" height="24" fill="white"/>
</clipPath>
</defs>
</svg>
