<svg width="24" height="24" viewBox="0 0 24 24" fill="none" xmlns="http://www.w3.org/2000/svg">
<g clip-path="url(#clip0_5303_8420)">
<path d="M19.6496 23C19.6579 22.6838 19.6017 22.3694 19.4846 22.0756C19.3673 21.7818 19.1916 21.515 18.968 21.2914C18.7443 21.0677 18.4775 20.892 18.1838 20.7748C17.89 20.6577 17.5755 20.6014 17.2593 20.6098H16.7813C16.7908 20.538 16.7813 20.2053 16.7813 20.1317C16.7813 19.2244 15.7783 18.6975 14.8691 18.6975L6.7422 18.688C5.83486 18.688 4.82999 19.2129 4.82999 20.1221C4.82999 20.1958 4.82043 20.5285 4.82999 20.6002H4.35194C4.03587 20.5922 3.72147 20.6486 3.42784 20.7658C3.13422 20.8831 2.86753 21.0588 2.64395 21.2825C2.42037 21.506 2.24461 21.7728 2.12732 22.0664C2.01003 22.36 1.95368 22.6744 1.96168 22.9905L19.6496 23Z" fill="#E3E3E3"/>
<path d="M8.11326 11.5172L7.29866 11.9389C6.98711 12.0999 6.7258 12.3434 6.54335 12.6428C6.3609 12.9423 6.26431 13.2862 6.26416 13.6369V16.3608C6.26421 16.4473 6.2877 16.5322 6.33215 16.6064C6.3766 16.6805 6.44034 16.7413 6.51657 16.782C6.5928 16.8228 6.67868 16.8422 6.76505 16.8381C6.85143 16.8339 6.93507 16.8065 7.00705 16.7586L9.13247 15.3416" fill="#FF808C"/>
<path d="M8.11326 11.5172L7.29866 11.9389C6.98711 12.0999 6.7258 12.3434 6.54335 12.6428C6.3609 12.9423 6.26431 13.2862 6.26416 13.6369V16.3608C6.26421 16.4473 6.2877 16.5322 6.33215 16.6064C6.3766 16.6805 6.44034 16.7413 6.51657 16.782C6.5928 16.8228 6.67868 16.8422 6.76505 16.8381C6.85143 16.8339 6.93507 16.8065 7.00705 16.7586L9.13247 15.3416" stroke="#191919" stroke-linecap="round" stroke-linejoin="round"/>
<path d="M13.9781 11.5172L14.7927 11.9389C15.104 12.1001 15.3649 12.3438 15.5469 12.6432C15.7291 12.9427 15.8253 13.2864 15.8253 13.6369V16.3608C15.8253 16.4473 15.8018 16.5322 15.7574 16.6064C15.7129 16.6805 15.6491 16.7413 15.5729 16.782C15.4967 16.8228 15.4108 16.8422 15.3244 16.8381C15.2381 16.8339 15.1544 16.8065 15.0824 16.7586L12.957 15.3416" fill="#FF808C"/>
<path d="M13.9781 11.5172L14.7927 11.9389C15.104 12.1001 15.3649 12.3438 15.5469 12.6432C15.7291 12.9427 15.8253 13.2864 15.8253 13.6369V16.3608C15.8253 16.4473 15.8018 16.5322 15.7574 16.6064C15.7129 16.6805 15.6491 16.7413 15.5729 16.782C15.4967 16.8228 15.4108 16.8422 15.3244 16.8381C15.2381 16.8339 15.1544 16.8065 15.0824 16.7586L12.957 15.3416" stroke="#191919" stroke-linecap="round" stroke-linejoin="round"/>
<path d="M12.9572 19.166C12.9572 20.5045 11.045 21.5562 11.045 21.5562C11.045 21.5562 9.13281 20.5045 9.13281 19.166C9.13281 17.8274 10.4388 17.7318 11.045 17.7318C11.6512 17.7318 12.9572 17.8274 12.9572 19.166Z" fill="#FFEF5E" stroke="#191919" stroke-linecap="round" stroke-linejoin="round"/>
<path d="M11.0454 2.91222V1.95612" stroke="#191919" stroke-linecap="round" stroke-linejoin="round"/>
<path d="M18.6934 1V2.91221" stroke="#191919" stroke-linecap="round" stroke-linejoin="round"/>
<path d="M19.65 1.95612H17.7378" stroke="#191919" stroke-linecap="round" stroke-linejoin="round"/>
<path d="M22.5185 9.60496H20.8932C20.6248 9.60289 20.363 9.68774 20.1468 9.84682C19.9306 10.0059 19.7718 10.2306 19.694 10.4876C19.6162 10.7444 19.6236 11.0195 19.7151 11.2718C19.8067 11.5241 19.9775 11.74 20.2019 11.8872L21.9611 13.0594C22.1851 13.2063 22.3556 13.4216 22.4473 13.6734C22.539 13.925 22.5468 14.1996 22.4698 14.4562C22.3927 14.7128 22.2349 14.9375 22.0196 15.0971C21.8044 15.2566 21.5435 15.3424 21.2756 15.3416H19.6502" stroke="#191919" stroke-linecap="round" stroke-linejoin="round"/>
<path d="M21.5615 9.60503V8.64893" stroke="#191919" stroke-linecap="round" stroke-linejoin="round"/>
<path d="M20.606 16.2977V15.3416" stroke="#191919" stroke-linecap="round" stroke-linejoin="round"/>
<path d="M4.35253 1.95613H2.72715C2.45902 1.95469 2.19763 2.03999 1.98196 2.19931C1.76629 2.35862 1.60792 2.5834 1.5305 2.84011C1.45306 3.09681 1.46072 3.37167 1.55232 3.62367C1.64392 3.87567 1.81455 4.09129 2.03876 4.23835L3.79799 5.41053C4.02219 5.55759 4.19282 5.77321 4.28443 6.02521C4.37602 6.2772 4.38368 6.55206 4.30624 6.80877C4.22882 7.06548 4.07045 7.29026 3.85478 7.44958C3.63912 7.60889 3.37771 7.6942 3.10959 7.69275H1.48422" stroke="#191919" stroke-linecap="round" stroke-linejoin="round"/>
<path d="M3.396 1.9561V1" stroke="#191919" stroke-linecap="round" stroke-linejoin="round"/>
<path d="M2.44043 8.64885V7.69275" stroke="#191919" stroke-linecap="round" stroke-linejoin="round"/>
<path d="M13.9137 5.30255L11.0454 2.91229L8.17711 5.30255C7.76476 5.64286 7.45644 6.09227 7.28738 6.59947C7.11831 7.10668 7.09531 7.65121 7.221 8.17086L9.13321 15.3416H12.9576L14.8698 8.17086C14.9956 7.65121 14.9725 7.10668 14.8035 6.59947C14.6344 6.09227 14.3261 5.64286 13.9137 5.30255Z" fill="#E3E3E3"/>
<path d="M7.58707 9.54C7.74596 9.28349 7.94515 9.05427 8.17699 8.86117C8.98202 8.18979 9.99705 7.82207 11.0453 7.82207C12.0936 7.82207 13.1086 8.18979 13.9136 8.86117C14.1457 9.05419 14.3453 9.28342 14.5045 9.54L14.8697 8.17086C14.9953 7.65121 14.9722 7.10671 14.8032 6.59953C14.6341 6.09235 14.3259 5.64292 13.9136 5.30255L11.0453 2.91229L8.17699 5.30255C7.76474 5.64292 7.45648 6.09235 7.28742 6.59953C7.11836 7.10671 7.09531 7.65121 7.22089 8.17086L7.58707 9.54Z" fill="white"/>
<path d="M13.9137 5.30255L11.0454 2.91229L8.17711 5.30255C7.76476 5.64286 7.45644 6.09227 7.28738 6.59947C7.11831 7.10668 7.09531 7.65121 7.221 8.17086L9.13321 15.3416H12.9576L14.8698 8.17086C14.9956 7.65121 14.9725 7.10668 14.8035 6.59947C14.6344 6.09227 14.3261 5.64286 13.9137 5.30255Z" stroke="#191919" stroke-linecap="round" stroke-linejoin="round"/>
<path d="M11.045 9.12692C11.3287 9.12692 11.6059 9.04281 11.8418 8.88522C12.0776 8.72763 12.2614 8.50365 12.37 8.2416C12.4786 7.97954 12.507 7.69118 12.4516 7.41298C12.3963 7.13477 12.2596 6.87923 12.0591 6.67866C11.8585 6.47809 11.603 6.3415 11.3247 6.28616C11.0466 6.23082 10.7583 6.25923 10.4962 6.36778C10.2341 6.47632 10.0101 6.66014 9.85254 6.89599C9.69495 7.13184 9.61084 7.40912 9.61084 7.69276C9.61084 8.07313 9.76194 8.43791 10.0309 8.70686C10.2998 8.97582 10.6647 9.12692 11.045 9.12692Z" fill="#66E1FF" stroke="#191919" stroke-linecap="round" stroke-linejoin="round"/>
<path d="M6.74225 18.688C5.83491 18.688 4.83005 19.2148 4.83005 20.1221C4.83005 20.1958 4.82049 20.5285 4.83005 20.6002H4.352C4.03584 20.5919 3.72131 20.6481 3.42757 20.7652C3.13382 20.8824 2.86701 21.0582 2.64338 21.2818C2.41976 21.5054 2.24399 21.7723 2.1268 22.066C2.00961 22.3598 1.95345 22.6743 1.96174 22.9905" stroke="#191919" stroke-linecap="round" stroke-linejoin="round"/>
<path d="M14.8691 18.688C15.7765 18.688 16.7813 19.2148 16.7813 20.1221C16.7813 20.1958 16.7909 20.5285 16.7813 20.6002H17.2594C17.5756 20.5919 17.89 20.6481 18.1839 20.7652C18.4776 20.8824 18.7444 21.0582 18.968 21.2818C19.1917 21.5054 19.3674 21.7723 19.4846 22.066C19.6018 22.3598 19.658 22.6743 19.6497 22.9905" stroke="#191919" stroke-linecap="round" stroke-linejoin="round"/>
</g>
<defs>
<clipPath id="clip0_5303_8420">
<rect width="24" height="24" fill="white"/>
</clipPath>
</defs>
</svg>
