<svg width="24" height="24" viewBox="0 0 24 24" fill="none" xmlns="http://www.w3.org/2000/svg">
<path d="M8.55716 22.5417C7.97665 22.51 7.42419 22.2818 6.99058 21.8945L2.10841 17.0362C1.71881 16.6035 1.48941 16.0502 1.4585 15.4687V8.63679C1.48916 8.05626 1.71531 7.50317 2.10016 7.06746L6.99608 2.11104C7.42591 1.72045 7.97723 1.48995 8.55716 1.45837H15.3918C15.9721 1.48989 16.524 1.71927 16.9557 2.10829L21.8965 7.07021C22.2833 7.50379 22.5107 8.05654 22.5418 8.63679V15.4687C22.5096 16.0477 22.2792 16.5979 21.8892 17.027L16.9593 21.9C16.5236 22.2849 15.9705 22.511 15.39 22.5417H8.55716Z" fill="#FF808C"/>
<path d="M21.8947 7.07112L16.9502 2.10829C16.5199 1.72042 15.9702 1.49113 15.3918 1.45837H8.55716C7.97811 1.4902 7.42774 1.72071 6.99883 2.11104L2.10016 7.06746C1.71531 7.50317 1.48916 8.05626 1.4585 8.63679V11.8451C1.48916 11.2646 1.71531 10.7115 2.10016 10.2758L6.997 5.31937C7.42638 4.92866 7.97747 4.69812 8.55716 4.66671H15.3918C15.9719 4.69834 16.5237 4.92734 16.9557 5.31571L21.8965 10.2795C22.2838 10.7127 22.5121 11.2649 22.5437 11.8451V8.63679C22.5116 8.05631 22.2827 7.50408 21.8947 7.07112Z" fill="#FFBFC5"/>
<path d="M8.55716 22.5417C7.97665 22.51 7.42419 22.2818 6.99058 21.8945L2.10841 17.0362C1.71881 16.6035 1.48941 16.0502 1.4585 15.4687V8.63679C1.48916 8.05626 1.71531 7.50317 2.10016 7.06746L6.99608 2.11104C7.42591 1.72045 7.97723 1.48995 8.55716 1.45837H15.3918C15.9721 1.48989 16.524 1.71927 16.9557 2.10829L21.8965 7.07021C22.2833 7.50379 22.5107 8.05654 22.5418 8.63679V15.4687C22.5096 16.0477 22.2792 16.5979 21.8892 17.027L16.9593 21.9C16.5236 22.2849 15.9705 22.511 15.39 22.5417H8.55716Z" stroke="#191919" stroke-linecap="round" stroke-linejoin="round"/>
<path d="M16.3826 15.0149C16.3826 14.4594 16.5192 13.9122 16.7804 13.4218L18.1215 10.9C18.2517 10.6878 18.2922 10.4325 18.2342 10.1904C18.1762 9.94826 18.0244 9.73909 17.8121 9.6089C17.5999 9.47871 17.3446 9.43817 17.1025 9.49619C16.8604 9.55421 16.6512 9.70604 16.521 9.91828L14.8178 12.6004L15.8262 7.07844C15.8582 6.95591 15.8651 6.82816 15.8464 6.70289C15.8278 6.57762 15.7839 6.45743 15.7176 6.34954C15.6513 6.24165 15.5638 6.14831 15.4604 6.07512C15.3571 6.00193 15.24 5.95041 15.1162 5.92367C14.9924 5.89694 14.8645 5.89552 14.7401 5.91953C14.6157 5.94353 14.4975 5.99245 14.3926 6.06334C14.2876 6.13423 14.1981 6.22562 14.1294 6.33202C14.0607 6.43842 14.0143 6.55762 13.9928 6.68244L12.9387 11.3483V5.40461C12.9387 5.28134 12.9144 5.15928 12.8672 5.0454C12.8201 4.93151 12.7509 4.82803 12.6638 4.74087C12.5766 4.65371 12.4731 4.58457 12.3592 4.53739C12.2453 4.49022 12.1233 4.46594 12 4.46594C11.8767 4.46594 11.7547 4.49022 11.6408 4.53739C11.5269 4.58457 11.4234 4.65371 11.3363 4.74087C11.2491 4.82803 11.18 4.93151 11.1328 5.0454C11.0856 5.15928 11.0613 5.28134 11.0613 5.40461V11.3584L10.0081 6.45969C9.987 6.33463 9.94078 6.21513 9.87222 6.10842C9.80366 6.00172 9.71418 5.91001 9.60919 5.83884C9.50421 5.76768 9.38589 5.71852 9.26138 5.69436C9.13687 5.67019 9.00875 5.6715 8.88476 5.69822C8.76078 5.72494 8.64349 5.77651 8.53998 5.84982C8.43648 5.92312 8.34891 6.01664 8.28255 6.12474C8.21619 6.23283 8.17243 6.35325 8.15391 6.47872C8.13538 6.60419 8.14248 6.73212 8.17476 6.85478L9.18768 13.8572L7.31768 12.2246C7.1332 12.0606 6.89162 11.9759 6.64514 11.9886C6.39865 12.0013 6.16706 12.1104 6.00042 12.2925C5.83377 12.4745 5.74545 12.7149 5.75454 12.9615C5.76364 13.2082 5.86941 13.4413 6.04901 13.6106L9.34168 17.9932C9.60505 18.2686 9.92145 18.4878 10.2718 18.6376C10.6222 18.7875 10.9993 18.8648 11.3803 18.8649H13.5712C15.7923 18.864 16.3826 17.1269 16.3826 15.0149Z" fill="white" stroke="#191919" stroke-linecap="round" stroke-linejoin="round"/>
</svg>
