<svg width="24" height="24" viewBox="0 0 24 24" fill="none" xmlns="http://www.w3.org/2000/svg">
<path d="M13.375 1.45923H10.625V5.23406H13.375V1.45923Z" fill="#E3E3E3"/>
<path d="M12 1.45923H10.625V5.23406H12V1.45923Z" fill="white"/>
<path d="M10.625 5.23315V1.45923H13.375V5.23406" stroke="#191919" stroke-linecap="round" stroke-linejoin="round"/>
<path d="M11.9998 22.5426C16.8093 22.5426 20.7082 18.6437 20.7082 13.8343C20.7082 9.02477 16.8093 5.12592 11.9998 5.12592C7.19035 5.12592 3.2915 9.02477 3.2915 13.8343C3.2915 18.6437 7.19035 22.5426 11.9998 22.5426Z" fill="#66E1FF"/>
<path d="M5.84198 19.9916C4.20886 18.3584 3.29142 16.1433 3.2915 13.8335C3.2916 11.5239 4.20919 9.30885 5.84244 7.67572C7.47568 6.0426 9.6908 5.12516 12.0005 5.12524C14.3101 5.12534 16.5252 6.04293 18.1583 7.67618L5.84198 19.9916Z" fill="#C2F3FF"/>
<path d="M11.9998 22.5426C16.8093 22.5426 20.7082 18.6437 20.7082 13.8343C20.7082 9.02477 16.8093 5.12592 11.9998 5.12592C7.19035 5.12592 3.2915 9.02477 3.2915 13.8343C3.2915 18.6437 7.19035 22.5426 11.9998 22.5426Z" stroke="#191919" stroke-linecap="round" stroke-linejoin="round"/>
<path d="M9.25 1.45923H14.75" stroke="#191919" stroke-linecap="round" stroke-linejoin="round"/>
<path d="M18.1572 7.67696L19.7916 6.04254" stroke="#191919" stroke-linecap="round" stroke-linejoin="round"/>
<path d="M19.3335 5.58423L20.2502 6.5009" stroke="#191919" stroke-linecap="round" stroke-linejoin="round"/>
<path d="M12 13.8342L7.875 9.70923" stroke="#191919" stroke-linecap="round" stroke-linejoin="round"/>
</svg>
