<svg width="24" height="24" viewBox="0 0 24 24" fill="none" xmlns="http://www.w3.org/2000/svg">
<path d="M14.3912 23C14.7717 23 15.1367 22.8489 15.4058 22.5798C15.6749 22.3107 15.826 21.9457 15.826 21.5652C15.826 20.7732 14.3912 18.2174 14.3912 18.2174L13.4347 19.6522L11.9999 17.2609L10.5651 19.6522L9.60861 18.2174C9.60861 18.2174 8.17383 20.7732 8.17383 21.5652C8.17383 21.9457 8.325 22.3107 8.59407 22.5798C8.86314 22.8489 9.22809 23 9.60861 23H14.3912Z" fill="#FF808C" stroke="#191919" stroke-linecap="round" stroke-linejoin="round"/>
<path d="M17.261 13.4347C17.261 13.942 17.0595 14.4286 16.7007 14.7874C16.3419 15.1462 15.8553 15.3477 15.348 15.3477H8.6523C8.14493 15.3477 7.65834 15.1462 7.29958 14.7874C6.94081 14.4286 6.73926 13.942 6.73926 13.4347V2.91296H17.261V13.4347Z" fill="#E3E3E3"/>
<path d="M17.261 2.91296H6.73926V5.07662H17.261V2.91296Z" fill="#B2B2B2"/>
<path d="M17.261 13.4347C17.261 13.942 17.0595 14.4286 16.7007 14.7874C16.3419 15.1462 15.8553 15.3477 15.348 15.3477H8.6523C8.14493 15.3477 7.65834 15.1462 7.29958 14.7874C6.94081 14.4286 6.73926 13.942 6.73926 13.4347V2.91296H17.261V13.4347Z" stroke="#191919" stroke-linecap="round" stroke-linejoin="round"/>
<path d="M6.73922 5.78259H4.82617" stroke="#191919" stroke-linecap="round" stroke-linejoin="round"/>
<path d="M17.2607 5.78259H19.1738" stroke="#191919" stroke-linecap="round" stroke-linejoin="round"/>
<path d="M5.78271 2.91296H18.2175" stroke="#191919" stroke-linecap="round" stroke-linejoin="round"/>
<path d="M10.0869 2.91304C10.0869 2.40568 10.2885 1.91908 10.6472 1.56032C11.006 1.20155 11.4926 1 12 1C12.5073 1 12.9939 1.20155 13.3527 1.56032C13.7115 1.91908 13.913 2.40568 13.913 2.91304" stroke="#191919" stroke-linecap="round" stroke-linejoin="round"/>
</svg>
