<svg width="24" height="24" viewBox="0 0 24 24" fill="none" xmlns="http://www.w3.org/2000/svg">
<path d="M11.9996 21.0563C16.959 21.0563 20.9792 17.0361 20.9792 12.0767C20.9792 7.11724 16.959 3.09705 11.9996 3.09705C7.04021 3.09705 3.02002 7.11715 3.02002 12.0767C3.02002 17.0362 7.04021 21.0563 11.9996 21.0563Z" fill="#C2F3FF"/>
<path d="M9.92519 6.16358C9.54987 6.1627 9.31623 5.75587 9.50455 5.43124L9.50587 5.42904L11.5766 1.91353C11.7651 1.59303 12.2285 1.59303 12.4171 1.91353L14.4877 5.42904C14.6785 5.75147 14.4487 6.15953 14.0741 6.16349L14.0684 6.16358H9.92519Z" fill="#FFEF5E" stroke="#191919" stroke-linecap="round" stroke-linejoin="round"/>
<path d="M6.25709 9.92688C6.389 9.60744 6.12571 9.26494 5.78312 9.31035L5.77934 9.31088L2.05729 9.83439C1.71567 9.88094 1.55182 10.2793 1.76187 10.5527L4.02295 13.5547C4.23036 13.8311 4.65927 13.7793 4.79497 13.4615L4.79699 13.4567L5.53065 11.6941L6.25709 9.92688Z" fill="#FFEF5E" stroke="#191919" stroke-linecap="round" stroke-linejoin="round"/>
<path d="M5.56738 11.6519C9.45901 13.2646 11.9961 17.0627 11.9959 21.2753V22.3268" stroke="#191919" stroke-linecap="round" stroke-linejoin="round"/>
<path d="M17.7427 9.92688C17.6108 9.60744 17.8741 9.26494 18.2166 9.31035L18.2204 9.31088L21.9425 9.83439C22.2841 9.88094 22.4479 10.2793 22.2379 10.5527L19.9768 13.5547C19.7694 13.8311 19.3405 13.7793 19.2048 13.4615L19.2028 13.4567L18.4727 11.6941L17.7427 9.92688Z" fill="#FFEF5E" stroke="#191919" stroke-linecap="round" stroke-linejoin="round"/>
<path d="M18.4282 11.6519C14.5352 13.2635 11.9964 17.0618 11.9961 21.2753V22.3268" stroke="#191919" stroke-linecap="round" stroke-linejoin="round"/>
<path d="M11.9961 6.16357V21.8778" stroke="#191919" stroke-linecap="round" stroke-linejoin="round"/>
</svg>
