<svg width="24" height="24" viewBox="0 0 24 24" fill="none" xmlns="http://www.w3.org/2000/svg">
<path d="M16.1554 22.5416H5.12516C4.88204 22.5416 4.64889 22.445 4.47698 22.2732C4.30508 22.1013 4.2085 21.8681 4.2085 21.625V2.37498C4.2085 2.13186 4.30508 1.89871 4.47698 1.7268C4.64889 1.55489 4.88204 1.45831 5.12516 1.45831H15.2873C15.5304 1.45837 15.7635 1.55498 15.9354 1.7269L19.5232 5.31565C19.6952 5.48751 19.7917 5.72064 19.7918 5.96373V21.625C19.7918 21.8681 19.6952 22.1013 19.5233 22.2732C19.3515 22.445 19.1183 22.5416 18.8752 22.5416H16.1554Z" fill="#FFEF5E"/>
<path d="M17.7752 3.57215L15.9354 1.72781C15.8503 1.64252 15.7494 1.57482 15.6382 1.52858C15.5269 1.48234 15.4078 1.45846 15.2873 1.45831H5.12516C4.88204 1.45831 4.64889 1.55489 4.47698 1.7268C4.30508 1.89871 4.2085 2.13186 4.2085 2.37498V17.1425L17.7752 3.57215Z" fill="#FFF9BF"/>
<path d="M19.7918 5.96831V6.04165H16.1252C15.8821 6.04165 15.6489 5.94507 15.477 5.77316C15.3051 5.60125 15.2085 5.3681 15.2085 5.12498V1.45831H15.291C15.5313 1.4602 15.7614 1.55554 15.9327 1.72415L19.526 5.31748C19.6948 5.49227 19.79 5.7253 19.7918 5.96831Z" fill="#E3E3E3" stroke="#191919" stroke-linecap="round" stroke-linejoin="round"/>
<path d="M8.7915 5.12592V8.79258" stroke="#191919" stroke-linecap="round" stroke-linejoin="round"/>
<path d="M6.9585 6.95923H10.6252" stroke="#191919" stroke-linecap="round" stroke-linejoin="round"/>
<path d="M16.4258 10.3253L13.8335 12.9176" stroke="#191919" stroke-linecap="round" stroke-linejoin="round"/>
<path d="M13.8335 10.3253L16.4258 12.9176" stroke="#191919" stroke-linecap="round" stroke-linejoin="round"/>
<path d="M7.875 17.0426H11.5417" stroke="#191919" stroke-linecap="round" stroke-linejoin="round"/>
<path d="M9.7085 14.9801C9.76927 14.9801 9.82756 15.0042 9.87054 15.0472C9.91352 15.0902 9.93766 15.1485 9.93766 15.2093" stroke="#191919" stroke-linecap="round" stroke-linejoin="round"/>
<path d="M9.479 15.2084C9.479 15.1476 9.50315 15.0893 9.54612 15.0463C9.5891 15.0033 9.64739 14.9792 9.70817 14.9792" stroke="#191919" stroke-linecap="round" stroke-linejoin="round"/>
<path d="M9.70817 15.4384C9.64739 15.4384 9.5891 15.4143 9.54612 15.3713C9.50315 15.3283 9.479 15.27 9.479 15.2092" stroke="#191919" stroke-linecap="round" stroke-linejoin="round"/>
<path d="M9.93766 15.2083C9.93766 15.2691 9.91352 15.3274 9.87054 15.3704C9.82756 15.4134 9.76927 15.4375 9.7085 15.4375" stroke="#191919" stroke-linecap="round" stroke-linejoin="round"/>
<path d="M9.7085 18.6467C9.76927 18.6467 9.82756 18.6708 9.87054 18.7138C9.91352 18.7568 9.93766 18.8151 9.93766 18.8759" stroke="#191919" stroke-linecap="round" stroke-linejoin="round"/>
<path d="M9.479 18.875C9.479 18.8142 9.50315 18.7559 9.54612 18.7129C9.5891 18.6699 9.64739 18.6458 9.70817 18.6458" stroke="#191919" stroke-linecap="round" stroke-linejoin="round"/>
<path d="M9.70817 19.1051C9.64739 19.1051 9.5891 19.081 9.54612 19.038C9.50315 18.995 9.479 18.9367 9.479 18.8759" stroke="#191919" stroke-linecap="round" stroke-linejoin="round"/>
<path d="M9.93766 18.875C9.93766 18.9358 9.91352 18.9941 9.87054 19.0371C9.82756 19.0801 9.76927 19.1042 9.7085 19.1042" stroke="#191919" stroke-linecap="round" stroke-linejoin="round"/>
<path d="M16.1554 22.5416H5.12516C4.88204 22.5416 4.64889 22.445 4.47698 22.2732C4.30508 22.1013 4.2085 21.8681 4.2085 21.625V2.37498C4.2085 2.13186 4.30508 1.89871 4.47698 1.7268C4.64889 1.55489 4.88204 1.45831 5.12516 1.45831H15.2873C15.5304 1.45837 15.7635 1.55498 15.9354 1.7269L19.5232 5.31565C19.6952 5.48751 19.7917 5.72064 19.7918 5.96373V21.625C19.7918 21.8681 19.6952 22.1013 19.5233 22.2732C19.3515 22.445 19.1183 22.5416 18.8752 22.5416H16.1554Z" stroke="#191919" stroke-linecap="round" stroke-linejoin="round"/>
</svg>
