<svg width="24" height="24" viewBox="0 0 24 24" fill="none" xmlns="http://www.w3.org/2000/svg">
<path d="M12.0006 1.00001C14.0841 0.996954 16.1252 1.58805 17.8846 2.70397C22.4573 5.60263 22.7943 11.5896 19.1505 15.9669C17.0713 18.464 14.7827 20.779 12.3096 22.8867C12.223 22.9593 12.1136 22.999 12.0006 22.999C11.8876 22.999 11.7782 22.9593 11.6916 22.8867C9.21858 20.7786 6.92999 18.4633 4.85072 15.966C1.20791 11.5896 1.54389 5.60263 6.11666 2.70397C7.87605 1.58805 9.91717 0.996954 12.0006 1.00001Z" fill="#E3E3E3"/>
<path d="M12 1.00001C9.91659 0.996954 7.87547 1.58805 6.11608 2.70397C1.5433 5.60263 1.20636 11.5896 4.85014 15.9669C6.92923 18.4644 9.21783 20.7798 11.691 22.8877C11.7777 22.96 11.8871 22.9995 12 22.9994V1.00001Z" fill="white"/>
<path d="M12 14.4778C13.2766 14.4778 14.5009 13.9706 15.4036 13.0679C16.3063 12.1652 16.8134 10.9409 16.8134 9.66427C16.8134 8.38767 16.3063 7.16335 15.4036 6.26065C14.5009 5.35796 13.2766 4.85083 12 4.85083C10.7234 4.85083 9.49904 5.35796 8.59635 6.26065C7.69365 7.16335 7.18652 8.38767 7.18652 9.66427C7.18652 10.9409 7.69365 12.1652 8.59635 13.0679C9.49904 13.9706 10.7234 14.4778 12 14.4778Z" fill="#FFBC44" stroke="#191919" stroke-linecap="round" stroke-linejoin="round"/>
<path d="M15.4043 6.26013L8.59619 13.0673" stroke="#191919" stroke-linecap="round" stroke-linejoin="round"/>
<path d="M16.7578 8.93445C15.4644 9.32701 14.2944 10.0473 13.3615 11.0255C12.3834 11.9584 11.6631 13.1284 11.2705 14.4218" stroke="#191919" stroke-linecap="round" stroke-linejoin="round"/>
<path d="M7.24219 10.393C8.5354 10.0004 9.7053 9.28051 10.6386 8.30299C11.6166 7.37001 12.3369 6.20004 12.7295 4.90662" stroke="#191919" stroke-linecap="round" stroke-linejoin="round"/>
<path d="M12.0006 1.00001C14.0841 0.996954 16.1252 1.58805 17.8846 2.70397C22.4573 5.60263 22.7943 11.5896 19.1505 15.9669C17.0712 18.4643 14.7827 20.7796 12.3096 22.8877C12.223 22.9602 12.1136 23 12.0006 23C11.8876 23 11.7782 22.9602 11.6916 22.8877C9.21852 20.78 6.92992 18.465 4.85072 15.9679C1.20791 11.5896 1.54389 5.60263 6.11666 2.70397C7.87605 1.58805 9.91717 0.996954 12.0006 1.00001Z" stroke="#191919" stroke-linecap="round" stroke-linejoin="round"/>
</svg>
