<svg width="24" height="24" viewBox="0 0 24 24" fill="none" xmlns="http://www.w3.org/2000/svg">
<path d="M12 1.00001C14.0701 0.996974 16.0981 1.58428 17.8462 2.69305C22.3897 5.57314 22.7245 11.5217 19.1041 15.871C16.9586 18.4592 14.5807 20.8455 12 23C9.41931 20.8455 7.04136 18.4592 4.89589 15.871C1.27641 11.5217 1.61024 5.57314 6.15372 2.69305C7.90184 1.58428 9.92988 0.996974 12 1.00001Z" fill="#E3E3E3"/>
<path d="M12 23C9.41931 20.8455 7.04136 18.4592 4.89589 15.871C1.27641 11.5217 1.61024 5.57314 6.15372 2.69305C7.90184 1.58428 9.92988 0.996974 12 1.00001V23Z" fill="white"/>
<path d="M12 1.00001C14.0701 0.996974 16.0981 1.58428 17.8462 2.69305C22.3897 5.57314 22.7245 11.5217 19.1041 15.871C16.9586 18.4592 14.5807 20.8455 12 23C9.41931 20.8455 7.04136 18.4592 4.89589 15.871C1.27641 11.5217 1.61024 5.57314 6.15372 2.69305C7.90184 1.58428 9.92988 0.996974 12 1.00001Z" stroke="#191919" stroke-linecap="round" stroke-linejoin="round"/>
<path d="M9.60859 11.5217L9.17337 7.16958C9.16147 7.05119 9.10588 6.94149 9.01745 6.8619C8.92901 6.78231 8.81408 6.73854 8.69511 6.73914H7.69555C7.5687 6.73914 7.44705 6.78952 7.35737 6.87921C7.26767 6.96891 7.21729 7.09056 7.21729 7.2174V14.8696C7.21729 14.9964 7.26767 15.1181 7.35737 15.2078C7.44705 15.2974 7.5687 15.3478 7.69555 15.3478H16.3042C16.4311 15.3478 16.5527 15.2974 16.6425 15.2078C16.7321 15.1181 16.7825 14.9964 16.7825 14.8696V10.3816C16.7824 10.3002 16.7616 10.2201 16.7219 10.149C16.6822 10.0779 16.625 10.0181 16.5557 9.97527C16.4865 9.93245 16.4075 9.90803 16.3261 9.90431C16.2447 9.90058 16.1638 9.91769 16.0909 9.95401L12.9564 11.5217V10.4323C12.9564 10.3485 12.9344 10.2662 12.8925 10.1937C12.8507 10.1211 12.7906 10.0608 12.7181 10.0187C12.6457 9.97672 12.5635 9.95445 12.4798 9.95416C12.396 9.95388 12.3136 9.9756 12.2409 10.0171L9.60859 11.5217Z" fill="#FFEF5E" stroke="#191919" stroke-linecap="round" stroke-linejoin="round"/>
<path d="M11.0439 13.4347H12.0005" stroke="#191919" stroke-linecap="round" stroke-linejoin="round"/>
<path d="M13.9136 13.4347H14.8701" stroke="#191919" stroke-linecap="round" stroke-linejoin="round"/>
<path d="M8.1748 4.82598C8.37653 4.50762 8.66125 4.25031 8.99835 4.08177C9.33545 3.91322 9.71214 3.83981 10.0878 3.86946C11.5226 3.86946 11.5226 5.7825 12.9574 5.7825C13.3331 5.81214 13.7098 5.73874 14.0469 5.57019C14.384 5.40164 14.6687 5.14434 14.8705 4.82598" stroke="#191919" stroke-linecap="round" stroke-linejoin="round"/>
</svg>
