<svg width="24" height="24" viewBox="0 0 24 24" fill="none" xmlns="http://www.w3.org/2000/svg">
<path d="M20.8017 9.80988C20.8032 8.26419 20.3976 6.74536 19.6258 5.40619C18.8539 4.06702 17.743 2.95474 16.4047 2.18126C15.0665 1.40777 13.5482 1.00035 12.0025 1C10.4568 0.999646 8.93826 1.40636 7.59967 2.17924C6.26108 2.95211 5.14964 4.06388 4.37716 5.4027C3.60468 6.74151 3.19841 8.26016 3.19922 9.80584C3.20003 11.3515 3.60789 12.8698 4.38177 14.2078C5.15565 15.5458 6.26826 16.6564 7.60766 17.4278C9.25838 18.3803 9.70333 19.4316 11.5751 22.7506C11.6176 22.8261 11.6795 22.8889 11.7543 22.9326C11.8292 22.9763 11.9143 22.9994 12.0009 22.9994C12.0876 22.9994 12.1727 22.9763 12.2475 22.9326C12.3224 22.8889 12.3842 22.8261 12.4268 22.7506C14.3181 19.3954 14.7464 18.3784 16.3932 17.4278C17.7333 16.6581 18.8465 15.5484 19.6205 14.2109C20.3945 12.8733 20.802 11.3552 20.8017 9.80988Z" fill="#E3E3E3"/>
<path d="M12.0006 1.00867C10.0626 1.00714 8.17845 1.64569 6.64075 2.82511C5.10305 4.00453 3.99793 5.65878 3.49707 7.53087C2.99621 9.40295 3.12767 11.388 3.87101 13.1777C4.61435 14.9674 5.92796 16.4615 7.60776 17.4278C9.25848 18.3803 9.70343 19.4316 11.5752 22.7506C11.6176 22.8262 11.6794 22.8891 11.7541 22.9329C11.8289 22.9767 11.9139 22.9999 12.0006 23V1.00867Z" fill="white"/>
<path d="M20.8017 9.80988C20.8032 8.26419 20.3976 6.74536 19.6258 5.40619C18.8539 4.06702 17.743 2.95474 16.4047 2.18126C15.0665 1.40777 13.5482 1.00035 12.0025 1C10.4568 0.999646 8.93826 1.40636 7.59967 2.17924C6.26108 2.95211 5.14964 4.06388 4.37716 5.4027C3.60468 6.74151 3.19841 8.26016 3.19922 9.80584C3.20003 11.3515 3.60789 12.8698 4.38177 14.2078C5.15565 15.5458 6.26826 16.6564 7.60766 17.4278C9.25838 18.3803 9.70333 19.4316 11.5751 22.7506C11.6176 22.8261 11.6795 22.8889 11.7543 22.9326C11.8292 22.9763 11.9143 22.9994 12.0009 22.9994C12.0876 22.9994 12.1727 22.9763 12.2475 22.9326C12.3224 22.8889 12.3842 22.8261 12.4268 22.7506C14.3181 19.3954 14.7464 18.3784 16.3932 17.4278C17.7333 16.6581 18.8465 15.5484 19.6205 14.2109C20.3945 12.8733 20.802 11.3552 20.8017 9.80988Z" stroke="#191919" stroke-linecap="round" stroke-linejoin="round"/>
<path d="M12.5763 4.16823L13.8299 6.87608H16.2698C16.3931 6.87146 16.5149 6.90501 16.6184 6.97213C16.7219 7.03926 16.8022 7.13669 16.8483 7.25114C16.8944 7.36559 16.9041 7.49148 16.876 7.61162C16.8479 7.73176 16.7834 7.84031 16.6913 7.92245L14.5732 10.0103L15.7467 12.7103C15.7985 12.8338 15.8103 12.9705 15.7803 13.1011C15.7503 13.2317 15.68 13.3496 15.5794 13.4381C15.4788 13.5266 15.3529 13.5813 15.2196 13.5944C15.0862 13.6075 14.9521 13.5784 14.8362 13.5112L12.0003 11.9133L9.16431 13.5112C9.04839 13.5784 8.91429 13.6075 8.78094 13.5944C8.64759 13.5813 8.52173 13.5266 8.42112 13.4381C8.32052 13.3496 8.25025 13.2317 8.22024 13.1011C8.19023 12.9705 8.202 12.8338 8.25387 12.7103L9.42737 10.0103L7.30627 7.92245C7.21435 7.84041 7.14994 7.73205 7.1218 7.61211C7.09366 7.49216 7.10316 7.36646 7.14901 7.25211C7.19486 7.13776 7.27483 7.04031 7.37803 6.97302C7.48124 6.90574 7.60267 6.87189 7.7258 6.87608H10.1706L11.4272 4.16823C11.4818 4.06303 11.5643 3.97485 11.6656 3.91331C11.7669 3.85176 11.8832 3.81921 12.0017 3.81921C12.1203 3.81921 12.2365 3.85176 12.3378 3.91331C12.4392 3.97485 12.5216 4.06303 12.5763 4.16823Z" fill="#FFEF5E"/>
<path d="M8.2538 12.7104C8.19914 12.8332 8.18576 12.9705 8.21566 13.1016L14.445 6.87613H13.8328L12.5762 4.16829C12.5217 4.06259 12.4392 3.97392 12.3377 3.91203C12.2362 3.85013 12.1196 3.81738 12.0007 3.81738C11.8818 3.81738 11.7652 3.85013 11.6637 3.91203C11.5621 3.97392 11.4796 4.06259 11.4252 4.16829L10.1686 6.87613H7.72377C7.60081 6.87237 7.47966 6.90652 7.37678 6.97397C7.27389 7.04141 7.19425 7.13887 7.14865 7.25313C7.10306 7.36739 7.09372 7.4929 7.1219 7.61265C7.15009 7.7324 7.21443 7.84058 7.3062 7.9225L9.4273 10.0104L8.2538 12.7104Z" fill="#FFF9BF"/>
<path d="M12.5763 4.16823L13.8299 6.87608H16.2698C16.3931 6.87146 16.5149 6.90501 16.6184 6.97213C16.7219 7.03926 16.8022 7.13669 16.8483 7.25114C16.8944 7.36559 16.9041 7.49148 16.876 7.61162C16.8479 7.73176 16.7834 7.84031 16.6913 7.92245L14.5732 10.0103L15.7467 12.7103C15.7985 12.8338 15.8103 12.9705 15.7803 13.1011C15.7503 13.2317 15.68 13.3496 15.5794 13.4381C15.4788 13.5266 15.3529 13.5813 15.2196 13.5944C15.0862 13.6075 14.9521 13.5784 14.8362 13.5112L12.0003 11.9133L9.16431 13.5112C9.04839 13.5784 8.91429 13.6075 8.78094 13.5944C8.64759 13.5813 8.52173 13.5266 8.42112 13.4381C8.32052 13.3496 8.25025 13.2317 8.22024 13.1011C8.19023 12.9705 8.202 12.8338 8.25387 12.7103L9.42737 10.0103L7.30627 7.92245C7.21435 7.84041 7.14994 7.73205 7.1218 7.61211C7.09366 7.49216 7.10316 7.36646 7.14901 7.25211C7.19486 7.13776 7.27483 7.04031 7.37803 6.97302C7.48124 6.90574 7.60267 6.87189 7.7258 6.87608H10.1706L11.4272 4.16823C11.4818 4.06303 11.5643 3.97485 11.6656 3.91331C11.7669 3.85176 11.8832 3.81921 12.0017 3.81921C12.1203 3.81921 12.2365 3.85176 12.3378 3.91331C12.4392 3.97485 12.5216 4.06303 12.5763 4.16823Z" stroke="#191919" stroke-linecap="round" stroke-linejoin="round"/>
</svg>
