<svg width="24" height="24" viewBox="0 0 24 24" fill="none" xmlns="http://www.w3.org/2000/svg">
<path d="M12 1.00001C14.0701 0.996974 16.0981 1.58428 17.8462 2.69305C22.3897 5.57314 22.7245 11.5217 19.1041 15.871C16.9586 18.4592 14.5806 20.8455 12 23C9.41931 20.8455 7.04135 18.4592 4.89589 15.871C1.27641 11.5217 1.61024 5.57314 6.15372 2.69305C7.90184 1.58428 9.92988 0.996974 12 1.00001Z" fill="#E3E3E3"/>
<path d="M12 23C9.41931 20.8455 7.04135 18.4592 4.89589 15.871C1.27641 11.5217 1.61024 5.57314 6.15372 2.69305C7.90184 1.58428 9.92988 0.996974 12 1.00001V23Z" fill="white"/>
<path d="M11.6623 6.12026C11.7519 6.0309 11.8733 5.98071 11.9999 5.98071C12.1265 5.98071 12.2479 6.0309 12.3376 6.12026L15.826 9.6087V14.8696C15.826 14.9964 15.7756 15.1181 15.6859 15.2077C15.5962 15.2974 15.4746 15.3478 15.3477 15.3478H8.65209C8.52525 15.3478 8.4036 15.2974 8.31391 15.2077C8.22422 15.1181 8.17383 14.9964 8.17383 14.8696V9.6087L11.6623 6.12026Z" fill="#FFDDA1"/>
<path d="M8.17383 9.60864V14.8696C8.17383 14.9964 8.22422 15.118 8.31391 15.2077C8.4036 15.2974 8.52525 15.3478 8.65209 15.3478H15.3477C15.4746 15.3478 15.5962 15.2974 15.6859 15.2077C15.7756 15.118 15.826 14.9964 15.826 14.8696V9.60864" stroke="#191919" stroke-linecap="round" stroke-linejoin="round"/>
<path d="M6.73877 11.0435L11.662 6.12026C11.7516 6.0309 11.8731 5.98071 11.9996 5.98071C12.1262 5.98071 12.2476 6.0309 12.3373 6.12026L17.2605 11.0435" stroke="#191919" stroke-linecap="round" stroke-linejoin="round"/>
<path d="M11.0435 15.3478V12.4783C11.0435 12.2246 11.1442 11.9813 11.3236 11.8019C11.503 11.6225 11.7463 11.5217 12 11.5217C12.2537 11.5217 12.497 11.6225 12.6763 11.8019C12.8557 11.9813 12.9565 12.2246 12.9565 12.4783V15.3478H11.0435Z" fill="#C77F67" stroke="#191919" stroke-linecap="round" stroke-linejoin="round"/>
<path d="M12 8.89136C12.0634 8.89136 12.1242 8.91655 12.1691 8.9614C12.2139 9.00624 12.2391 9.06707 12.2391 9.13049" stroke="#191919" stroke-linecap="round" stroke-linejoin="round"/>
<path d="M11.7607 9.13049C11.7607 9.06707 11.7859 9.00624 11.8308 8.9614C11.8756 8.91655 11.9365 8.89136 11.9999 8.89136" stroke="#191919" stroke-linecap="round" stroke-linejoin="round"/>
<path d="M11.9999 9.3695C11.9365 9.3695 11.8756 9.34431 11.8308 9.29946C11.7859 9.25462 11.7607 9.19379 11.7607 9.13037" stroke="#191919" stroke-linecap="round" stroke-linejoin="round"/>
<path d="M12.2391 9.13037C12.2391 9.19379 12.2139 9.25462 12.1691 9.29946C12.1242 9.34431 12.0634 9.3695 12 9.3695" stroke="#191919" stroke-linecap="round" stroke-linejoin="round"/>
<path d="M12 1.00001C14.0701 0.996974 16.0981 1.58428 17.8462 2.69305C22.3897 5.57314 22.7245 11.5217 19.1041 15.871C16.9586 18.4592 14.5806 20.8455 12 23C9.41931 20.8455 7.04135 18.4592 4.89589 15.871C1.27641 11.5217 1.61024 5.57314 6.15372 2.69305C7.90184 1.58428 9.92988 0.996974 12 1.00001Z" stroke="#191919" stroke-linecap="round" stroke-linejoin="round"/>
</svg>
