<svg width="24" height="24" viewBox="0 0 24 24" fill="none" xmlns="http://www.w3.org/2000/svg">
<path d="M20.8017 9.80989C20.8033 8.26421 20.3976 6.74537 19.6258 5.4062C18.8539 4.06703 17.743 2.95474 16.4047 2.18126C15.0665 1.40777 13.5482 1.00035 12.0025 1C10.4568 0.999645 8.93826 1.40636 7.59968 2.17924C6.26109 2.95211 5.14964 4.06389 4.37716 5.4027C3.60467 6.74152 3.19841 8.26017 3.19922 9.80585C3.20002 11.3515 3.60789 12.8698 4.38177 14.2077C5.15565 15.5458 6.26825 16.6564 7.60766 17.4278C9.25838 18.3803 9.70333 19.4316 11.5751 22.7506C11.6176 22.8261 11.6795 22.8889 11.7543 22.9326C11.8292 22.9763 11.9143 22.9994 12.0009 22.9994C12.0876 22.9994 12.1727 22.9763 12.2476 22.9326C12.3224 22.8889 12.3843 22.8261 12.4268 22.7506C14.3181 19.3954 14.7464 18.3784 16.3933 17.4278C17.7332 16.658 18.8464 15.5484 19.6204 14.2108C20.3944 12.8733 20.8019 11.3553 20.8017 9.80989Z" fill="#E3E3E3"/>
<path d="M12.0006 1.00855C10.0626 1.00702 8.17846 1.64557 6.64076 2.82499C5.10306 4.00441 3.99793 5.65867 3.49707 7.53076C2.99622 9.40284 3.12767 11.3879 3.87101 13.1776C4.61435 14.9673 5.92797 16.4614 7.60777 17.4277C9.25849 18.3802 9.70344 19.4315 11.5752 22.7505C11.6176 22.826 11.6794 22.8889 11.7541 22.9327C11.8288 22.9765 11.9139 22.9997 12.0006 22.9999V1.00855Z" fill="white"/>
<path d="M20.8017 9.80989C20.8033 8.26421 20.3976 6.74537 19.6258 5.4062C18.8539 4.06703 17.743 2.95474 16.4047 2.18126C15.0665 1.40777 13.5482 1.00035 12.0025 1C10.4568 0.999645 8.93826 1.40636 7.59968 2.17924C6.26109 2.95211 5.14964 4.06389 4.37716 5.4027C3.60467 6.74152 3.19841 8.26017 3.19922 9.80585C3.20002 11.3515 3.60789 12.8698 4.38177 14.2077C5.15565 15.5458 6.26825 16.6564 7.60766 17.4278C9.25838 18.3803 9.70333 19.4316 11.5751 22.7506C11.6176 22.8261 11.6795 22.8889 11.7543 22.9326C11.8292 22.9763 11.9143 22.9994 12.0009 22.9994C12.0876 22.9994 12.1727 22.9763 12.2476 22.9326C12.3224 22.8889 12.3843 22.8261 12.4268 22.7506C14.3181 19.3954 14.7464 18.3784 16.3933 17.4278C17.7332 16.658 18.8464 15.5484 19.6204 14.2108C20.3944 12.8733 20.8019 11.3553 20.8017 9.80989Z" stroke="#191919" stroke-linecap="round" stroke-linejoin="round"/>
<path d="M12.0004 14.6994C14.7008 14.6994 16.89 12.5103 16.89 9.80987C16.89 7.10944 14.7008 4.92029 12.0004 4.92029C9.29998 4.92029 7.11084 7.10944 7.11084 9.80987C7.11084 12.5103 9.29998 14.6994 12.0004 14.6994Z" fill="#78EB7B"/>
<path d="M8.54281 13.2678C7.62585 12.3507 7.11075 11.1069 7.11084 9.81006C7.11094 8.51318 7.62621 7.26945 8.5433 6.35249C9.4604 5.43553 10.7042 4.92043 12.0011 4.92053C13.2979 4.92061 14.5416 5.43589 15.4586 6.35298L8.54281 13.2678Z" fill="#C9F7CA"/>
<path d="M12.0004 14.6994C14.7008 14.6994 16.89 12.5103 16.89 9.80987C16.89 7.10944 14.7008 4.92029 12.0004 4.92029C9.29998 4.92029 7.11084 7.10944 7.11084 9.80987C7.11084 12.5103 9.29998 14.6994 12.0004 14.6994Z" stroke="#191919" stroke-linecap="round" stroke-linejoin="round"/>
<path d="M10.0444 10.2988L11.1035 11.3579C11.1537 11.4081 11.2142 11.4466 11.2809 11.471C11.3475 11.4954 11.4187 11.505 11.4894 11.4991C11.5601 11.4933 11.6287 11.4721 11.6904 11.4371C11.7521 11.402 11.8055 11.354 11.8467 11.2963L13.9561 8.34302" stroke="#191919" stroke-linecap="round" stroke-linejoin="round"/>
</svg>
