<svg width="24" height="24" viewBox="0 0 24 24" fill="none" xmlns="http://www.w3.org/2000/svg">
<g clip-path="url(#clip0_5303_2108)">
<path d="M12 23.2044C18.1881 23.2044 23.2045 18.188 23.2045 12C23.2045 5.812 18.1881 0.795601 12 0.795601C5.81205 0.795601 0.795654 5.812 0.795654 12C0.795654 18.188 5.81205 23.2044 12 23.2044Z" fill="#FFBFC5"/>
<path d="M11.9998 20.1486C14.7072 20.1494 17.3234 19.1697 19.3643 17.3909C21.4053 15.612 22.7333 13.1543 23.1024 10.4722C23.3088 11.9924 23.2009 13.5387 22.7851 15.0154C22.3694 16.4923 21.6548 17.8678 20.6857 19.0571C19.7165 20.2464 18.5135 21.2242 17.1512 21.9294C15.7889 22.6347 14.2961 23.0527 12.7656 23.1576C11.2349 23.2624 9.69924 23.0518 8.25334 22.5388C6.80754 22.0259 5.48244 21.2214 4.36024 20.1753C3.23804 19.1293 2.34254 17.864 1.72944 16.4576C1.11624 15.0514 0.798343 13.5342 0.795543 12C0.794843 11.489 0.828943 10.9786 0.897443 10.4722C1.26664 13.1543 2.59444 15.612 4.63544 17.3909C6.67644 19.1697 9.29254 20.1494 11.9998 20.1486Z" fill="#FF808C"/>
<path d="M12 23.2044C18.1881 23.2044 23.2045 18.188 23.2045 12C23.2045 5.812 18.1881 0.795601 12 0.795601C5.81205 0.795601 0.795654 5.812 0.795654 12C0.795654 18.188 5.81205 23.2044 12 23.2044Z" stroke="#191919" stroke-linecap="round" stroke-linejoin="round"/>
<path d="M18.1117 12H5.88867" stroke="#191919" stroke-linecap="round" stroke-linejoin="round"/>
</g>
<defs>
<clipPath id="clip0_5303_2108">
<rect width="24" height="24" fill="white"/>
</clipPath>
</defs>
</svg>
