<svg width="24" height="24" viewBox="0 0 24 24" fill="none" xmlns="http://www.w3.org/2000/svg">
<g clip-path="url(#clip0_5303_9681)">
<path d="M22.9695 17.4625C20.5808 17.9603 19.0903 15.5718 19.0903 15.5718C18.3398 16.7685 17.0382 17.5083 15.626 17.541C14.2271 17.4723 12.944 16.7432 12.1692 15.5765C11.4179 16.7692 10.1196 17.5066 8.71042 17.541C7.31201 17.4737 6.02924 16.7441 5.25654 15.5765C4.48383 14.409 3.34563 18.0053 1 17.5065L1.02489 22.7787H23L22.9695 17.4625Z" fill="#66E1FF"/>
<path d="M22.9695 21.2844C20.5808 21.7822 19.0903 19.3936 19.0903 19.3936C18.3398 20.5903 17.0382 21.3301 15.626 21.3627C14.2277 21.2944 12.9454 20.5651 12.172 19.3983C11.4209 20.5924 10.1208 21.3302 8.71042 21.3627C7.31201 21.2954 6.02924 20.5658 5.25654 19.3983C4.48383 18.2309 3.34563 21.8271 1 21.3283" stroke="#191919" stroke-linecap="round" stroke-linejoin="round"/>
<path d="M22.9695 17.4625C20.5808 17.9603 19.0903 15.5718 19.0903 15.5718C18.3398 16.7685 17.0382 17.5083 15.626 17.541C14.2277 17.4726 12.9454 16.7433 12.172 15.5765C11.4209 16.7707 10.1208 17.5084 8.71042 17.541C7.31201 17.4737 6.02924 16.7441 5.25654 15.5765C4.48383 14.409 3.34563 18.0053 1 17.5065" stroke="#191919" stroke-linecap="round" stroke-linejoin="round"/>
<path d="M9.11426 14.8657V3.61353C9.11426 1.77477 11.1047 0.62553 12.6971 1.54486C13.4361 1.97155 13.8914 2.76016 13.8914 3.61353V4.56889" stroke="#191919" stroke-linecap="round" stroke-linejoin="round"/>
<path d="M15.8032 15.074V3.61353C15.8032 1.77477 17.7938 0.62553 19.3861 1.54486C20.1252 1.97155 20.5804 2.76016 20.5804 3.61353V4.56889" stroke="#191919" stroke-linecap="round" stroke-linejoin="round"/>
<path d="M9.11426 9.82385H15.8023" stroke="#191919" stroke-linecap="round" stroke-linejoin="round"/>
<path d="M9.11426 6.95752H15.8023" stroke="#191919" stroke-linecap="round" stroke-linejoin="round"/>
<path d="M9.11426 12.6902H15.8023" stroke="#191919" stroke-linecap="round" stroke-linejoin="round"/>
</g>
<defs>
<clipPath id="clip0_5303_9681">
<rect width="24" height="24" fill="white"/>
</clipPath>
</defs>
</svg>
