<svg width="24" height="24" viewBox="0 0 24 24" fill="none" xmlns="http://www.w3.org/2000/svg">
<g clip-path="url(#clip0_5303_11780)">
<path d="M1 22.8609H23V22.5165C20.6556 23.0158 18.7387 20.5844 18.7387 20.5844C18.3572 21.1607 17.8455 21.6391 17.2447 21.9808C16.644 22.3224 15.9712 22.5178 15.2809 22.551C14.5491 22.5153 13.834 22.3208 13.1848 21.9813C12.5357 21.6417 11.9682 21.1651 11.5217 20.5844C11.2186 21.1664 10.7645 21.656 10.2069 22.0021C9.64932 22.3481 9.00888 22.5378 8.35278 22.551C7.6578 22.5348 6.97766 22.3467 6.3731 22.0035C5.76855 21.6603 5.25841 21.1728 4.88826 20.5844C4.88826 20.5844 3.39704 22.9757 1 22.4783V22.8609Z" fill="#66E1FF"/>
<path d="M3.93492 1.20032C3.8503 1.15284 3.75323 1.13223 3.65661 1.14122C3.56 1.1502 3.4684 1.18837 3.39399 1.25064C3.31957 1.31291 3.26586 1.39634 3.23998 1.48986C3.2141 1.58338 3.21728 1.68256 3.24909 1.77423L5.70257 8.87257C6.11826 10.104 6.97571 11.1376 8.10918 11.7737L11.788 13.8398C12.1363 14.0358 12.43 14.316 12.6421 14.6548L15.306 18.9065C15.4129 19.0773 15.5546 19.2238 15.7218 19.3362C15.889 19.4487 16.078 19.5247 16.2764 19.5592C16.475 19.5938 16.6786 19.5861 16.874 19.5369C17.0693 19.4875 17.2521 19.3975 17.4104 19.2729C17.6893 19.0335 17.8712 18.7007 17.9217 18.3367C17.9723 17.9727 17.888 17.6029 17.6849 17.2967L15.0755 13.1329C14.6081 12.3867 13.9609 11.7696 13.1931 11.3385L9.51335 9.2724C8.99816 8.98326 8.60858 8.51325 8.42005 7.95336L6.82744 3.3764C6.67421 2.93533 6.36496 2.56552 5.95796 2.33666L3.93492 1.20032Z" fill="#FFDDA1"/>
<path d="M7.35936 8.66883C7.73737 9.75742 8.50459 10.6677 9.51344 11.2247L12.7513 13.0163C13.2101 13.27 13.5943 13.6397 13.8656 14.0885L17.1054 19.4584C17.2155 19.4095 17.3193 19.3471 17.4143 19.2729C17.6932 19.0335 17.8751 18.7007 17.9256 18.3367C17.9762 17.9728 17.8919 17.6029 17.6888 17.2967L15.0756 13.133C14.6082 12.3867 13.961 11.7696 13.1932 11.3385L9.51344 9.2724C8.99824 8.98326 8.60867 8.51325 8.42014 7.95336L6.82753 3.3764C6.67431 2.93533 6.36505 2.56552 5.95805 2.33666L4.98145 1.78857L7.35936 8.66883Z" fill="#FFDDA1"/>
<path d="M3.93492 1.20032C3.8503 1.15284 3.75323 1.13223 3.65661 1.14122C3.56 1.1502 3.4684 1.18837 3.39399 1.25064C3.31957 1.31291 3.26586 1.39634 3.23998 1.48986C3.2141 1.58338 3.21728 1.68256 3.24909 1.77423L5.70257 8.87257C6.11826 10.104 6.97571 11.1376 8.10918 11.7737L11.788 13.8398C12.1363 14.0358 12.43 14.316 12.6421 14.6548L15.306 18.9065C15.4129 19.0773 15.5546 19.2238 15.7218 19.3362C15.889 19.4487 16.078 19.5247 16.2764 19.5592C16.475 19.5938 16.6786 19.5861 16.874 19.5369C17.0693 19.4875 17.2521 19.3975 17.4104 19.2729C17.6893 19.0335 17.8712 18.7007 17.9217 18.3367C17.9723 17.9727 17.888 17.6029 17.6849 17.2967L15.0755 13.1329C14.6081 12.3867 13.9609 11.7696 13.1931 11.3385L9.51335 9.2724C8.99816 8.98326 8.60858 8.51325 8.42005 7.95336L6.82744 3.3764C6.67421 2.93533 6.36496 2.56552 5.95796 2.33666L3.93492 1.20032Z" stroke="#191919" stroke-linecap="round" stroke-linejoin="round"/>
<path d="M18.696 13.9066C20.0167 13.9066 21.0873 12.8359 21.0873 11.5153C21.0873 10.1946 20.0167 9.12402 18.696 9.12402C17.3753 9.12402 16.3047 10.1946 16.3047 11.5153C16.3047 12.8359 17.3753 13.9066 18.696 13.9066Z" fill="#FFDDA1" stroke="#191919" stroke-linecap="round" stroke-linejoin="round"/>
<path d="M10.1035 9.60435L9.5124 9.27243C8.99727 8.98367 8.60767 8.51397 8.41909 7.95435L6.23535 9.99459C6.70157 10.7345 7.34539 11.3461 8.10822 11.7737L8.60944 12.0559L10.1035 9.60435Z" fill="#78EB7B" stroke="#191919" stroke-linecap="round" stroke-linejoin="round"/>
<path d="M1 22.4783C3.39609 22.9766 4.88348 20.5853 4.88348 20.5853C5.25354 21.1737 5.76353 21.661 6.36789 22.0042C6.97227 22.3473 7.65223 22.5356 8.34704 22.5519C9.00422 22.5397 9.64593 22.3505 10.2046 22.0042C10.7633 21.658 11.2183 21.1674 11.5217 20.5844C11.9675 21.1641 12.5337 21.6402 13.1814 21.9797C13.8292 22.3192 14.5428 22.5142 15.2732 22.551C15.964 22.5182 16.6374 22.323 17.2387 21.9813C17.8399 21.6396 18.3523 21.161 18.7339 20.5844C18.7339 20.5844 20.647 23.0158 22.9952 22.5165" stroke="#191919" stroke-linecap="round" stroke-linejoin="round"/>
</g>
<defs>
<clipPath id="clip0_5303_11780">
<rect width="24" height="24" fill="white"/>
</clipPath>
</defs>
</svg>
