<svg width="24" height="24" viewBox="0 0 24 24" fill="none" xmlns="http://www.w3.org/2000/svg">
<path d="M13.1262 19.183C16.9197 19.183 19.995 16.1078 19.995 12.3142C19.995 8.5207 16.9197 5.44537 13.1262 5.44537C9.33265 5.44537 6.25732 8.5207 6.25732 12.3142C6.25732 16.1078 9.33265 19.183 13.1262 19.183Z" fill="#C2F3FF"/>
<path d="M1.67773 9.56396L4.42526 13.6852L7.63066 10.0218" stroke="#191919" stroke-linecap="round" stroke-linejoin="round"/>
<path d="M4.45398 13.6275C4.04157 11.3829 4.4966 9.06539 5.72704 7.14332C6.95749 5.22125 8.87158 3.83782 11.0826 3.27251C13.2937 2.7072 15.6369 3.00219 17.6389 4.09797C19.6409 5.19366 21.1523 7.00839 21.8679 9.17548C22.5834 11.3426 22.4498 13.7005 21.494 15.7729C20.5381 17.8452 18.8313 19.4775 16.7184 20.3401C14.6055 21.2026 12.244 21.231 10.1109 20.4195C7.97783 19.6081 6.23231 18.0173 5.22691 15.9684" stroke="#191919" stroke-linecap="round" stroke-linejoin="round"/>
</svg>
