<svg width="24" height="24" viewBox="0 0 24 24" fill="none" xmlns="http://www.w3.org/2000/svg">
<path d="M10.625 19.7916C12.4484 19.7916 14.197 19.0673 15.4864 17.778C16.7757 16.4887 17.5 14.74 17.5 12.9166C17.5 11.0933 16.7757 9.34458 15.4864 8.05527C14.197 6.76595 12.4484 6.04163 10.625 6.04163C8.80164 6.04163 7.05295 6.76595 5.76364 8.05527C4.47433 9.34458 3.75 11.0933 3.75 12.9166C3.75 14.74 4.47433 16.4887 5.76364 17.778C7.05295 19.0673 8.80164 19.7916 10.625 19.7916Z" fill="#C2F3FF"/>
<path d="M22.5363 13.9195L19.4022 10.4408L16.9409 14.4237" stroke="#191919" stroke-linecap="round" stroke-linejoin="round"/>
<path d="M19.3854 10.4847C19.9992 12.8208 19.6613 15.305 18.4458 17.3923C17.2303 19.4796 15.2365 20.9995 12.9019 21.6186" stroke="#191919" stroke-linecap="round" stroke-linejoin="round"/>
<path d="M6.39652 1.70947L4.64844 6.05081L9.30602 6.51464" stroke="#191919" stroke-linecap="round" stroke-linejoin="round"/>
<path d="M4.66113 6.04172C6.49739 4.46497 8.88304 3.67904 11.2969 3.8556C13.7108 4.03217 15.9567 5.15689 17.544 6.98405" stroke="#191919" stroke-linecap="round" stroke-linejoin="round"/>
<path d="M3.04395 22.2859L7.67586 21.6084L5.7252 17.3514" stroke="#191919" stroke-linecap="round" stroke-linejoin="round"/>
<path d="M7.61178 21.57C5.33089 20.7823 3.4561 19.1212 2.39949 16.9518C1.34288 14.7824 1.19092 12.2822 1.97703 10.0007" stroke="#191919" stroke-linecap="round" stroke-linejoin="round"/>
</svg>
