<svg width="24" height="24" viewBox="0 0 24 24" fill="none" xmlns="http://www.w3.org/2000/svg">
<path d="M11.9998 17.9583C13.5801 17.9583 15.0956 17.3306 16.213 16.2132C17.3304 15.0958 17.9582 13.5802 17.9582 12C17.9582 10.4197 17.3304 8.90422 16.213 7.78681C15.0956 6.66941 13.5801 6.04166 11.9998 6.04166C10.4196 6.04166 8.90406 6.66941 7.78666 7.78681C6.66926 8.90422 6.0415 10.4197 6.0415 12C6.0415 13.5802 6.66926 15.0958 7.78666 16.2132C8.90406 17.3306 10.4196 17.9583 11.9998 17.9583Z" fill="#C2F3FF"/>
<path d="M1.65381 10.4967L4.20948 14.3008L7.14647 10.7827" stroke="#191919" stroke-linecap="round" stroke-linejoin="round"/>
<path d="M22.3456 14.4383L19.7917 10.6342L16.8521 14.1542" stroke="#191919" stroke-linecap="round" stroke-linejoin="round"/>
<path d="M19.7577 10.6699C20.0677 12.6341 19.6257 14.643 18.52 16.2957C17.4142 17.9484 15.7259 19.1234 13.7921 19.5863C12.5067 19.8911 11.165 19.8637 9.8932 19.5069C8.62136 19.1501 7.46122 18.4756 6.52197 17.5468" stroke="#191919" stroke-linecap="round" stroke-linejoin="round"/>
<path d="M4.21315 14.2779C3.95334 13.2371 3.90258 12.1551 4.06382 11.0945C4.22505 10.0339 4.59509 9.01587 5.15248 8.09929C5.70988 7.18271 6.44358 6.38581 7.31108 5.75474C8.17858 5.12366 9.16265 4.67096 10.2063 4.42282C11.5782 4.09682 13.0129 4.14978 14.3571 4.57603C15.7012 5.00228 16.9042 5.7858 17.8376 6.84282" stroke="#191919" stroke-linecap="round" stroke-linejoin="round"/>
<path d="M10.6252 15.2138H14.2918C14.5349 15.2138 14.7681 15.1172 14.94 14.9453C15.1119 14.7734 15.2085 14.5403 15.2085 14.2972V11.5472C15.2085 11.304 15.1119 11.0709 14.94 10.899C14.7681 10.7271 14.5349 10.6305 14.2918 10.6305H10.6252C10.382 10.6305 10.1489 10.7271 9.97698 10.899C9.80507 11.0709 9.7085 11.304 9.7085 11.5472V14.2972C9.7085 14.5403 9.80507 14.7734 9.97698 14.9453C10.1489 15.1172 10.382 15.2138 10.6252 15.2138Z" fill="#FFEF5E" stroke="#191919" stroke-linecap="round" stroke-linejoin="round"/>
<path d="M12.4583 7.88049C12.2176 7.88049 11.9792 7.92791 11.7567 8.02005C11.5343 8.11218 11.3322 8.24722 11.162 8.41746C10.9917 8.58771 10.8567 8.78981 10.7646 9.01224C10.6724 9.23467 10.625 9.47307 10.625 9.71383V10.6305H14.2917V9.71383C14.2917 9.47307 14.2442 9.23467 14.1521 9.01224C14.06 8.78981 13.9249 8.58771 13.7547 8.41746C13.5845 8.24722 13.3823 8.11218 13.1599 8.02005C12.9375 7.92791 12.6991 7.88049 12.4583 7.88049Z" stroke="#191919" stroke-linecap="round" stroke-linejoin="round"/>
<path d="M12.4582 13.1697C12.3974 13.1697 12.3391 13.1455 12.2961 13.1025C12.2531 13.0596 12.229 13.0013 12.229 12.9405C12.229 12.8797 12.2531 12.8214 12.2961 12.7785C12.3391 12.7355 12.3974 12.7113 12.4582 12.7113" stroke="#191919"/>
<path d="M12.4585 13.1697C12.5193 13.1697 12.5776 13.1455 12.6205 13.1025C12.6635 13.0596 12.6877 13.0013 12.6877 12.9405C12.6877 12.8797 12.6635 12.8214 12.6205 12.7785C12.5776 12.7355 12.5193 12.7113 12.4585 12.7113" stroke="#191919"/>
</svg>
