<svg width="24" height="24" viewBox="0 0 24 24" fill="none" xmlns="http://www.w3.org/2000/svg">
<g clip-path="url(#clip0_5303_5702)">
<path d="M19.174 1H4.82613C3.76958 1 2.91309 1.8565 2.91309 2.91304V21.087C2.91309 22.1435 3.76958 23 4.82613 23H19.174C20.2305 23 21.087 22.1435 21.087 21.087V2.91304C21.087 1.8565 20.2305 1 19.174 1Z" fill="white" stroke="#191919" stroke-linecap="round" stroke-linejoin="round"/>
<path d="M18.6957 3.86957H5.30443C5.0403 3.86957 4.82617 4.0837 4.82617 4.34783V18.6957C4.82617 18.9598 5.0403 19.1739 5.30443 19.1739H18.6957C18.9598 19.1739 19.174 18.9598 19.174 18.6957V4.34783C19.174 4.0837 18.9598 3.86957 18.6957 3.86957Z" fill="#66E1FF"/>
<path d="M18.4892 4.07611H5.09789C4.97105 4.07611 4.8494 4.1265 4.7597 4.21619C4.67002 4.30589 4.61963 4.42753 4.61963 4.55437V18.9022L18.9675 4.55437C18.9675 4.49157 18.9551 4.42937 18.931 4.37135C18.907 4.31333 18.8718 4.2606 18.8274 4.21619C18.7829 4.17178 18.7302 4.13655 18.6722 4.11252C18.6142 4.08849 18.552 4.07611 18.4892 4.07611Z" fill="#C2F3FF"/>
<path d="M18.6957 3.86957H5.30443C5.0403 3.86957 4.82617 4.0837 4.82617 4.34783V18.6957C4.82617 18.9598 5.0403 19.1739 5.30443 19.1739H18.6957C18.9598 19.1739 19.174 18.9598 19.174 18.6957V4.34783C19.174 4.0837 18.9598 3.86957 18.6957 3.86957Z" stroke="#191919" stroke-linecap="round" stroke-linejoin="round"/>
<path d="M8.17453 6.73914H7.21801C6.95387 6.73914 6.73975 6.95326 6.73975 7.2174V8.17392C6.73975 8.43805 6.95387 8.65218 7.21801 8.65218H8.17453C8.43866 8.65218 8.65279 8.43805 8.65279 8.17392V7.2174C8.65279 6.95326 8.43866 6.73914 8.17453 6.73914Z" fill="#78EB7B" stroke="#191919" stroke-linecap="round" stroke-linejoin="round"/>
<path d="M12.4787 6.73914H11.5222C11.2581 6.73914 11.0439 6.95326 11.0439 7.2174V8.17392C11.0439 8.43805 11.2581 8.65218 11.5222 8.65218H12.4787C12.7428 8.65218 12.957 8.43805 12.957 8.17392V7.2174C12.957 6.95326 12.7428 6.73914 12.4787 6.73914Z" fill="#78EB7B" stroke="#191919" stroke-linecap="round" stroke-linejoin="round"/>
<path d="M16.7829 6.73914H15.8264C15.5623 6.73914 15.3481 6.95326 15.3481 7.2174V8.17392C15.3481 8.43805 15.5623 8.65218 15.8264 8.65218H16.7829C17.047 8.65218 17.2612 8.43805 17.2612 8.17392V7.2174C17.2612 6.95326 17.047 6.73914 16.7829 6.73914Z" fill="#78EB7B" stroke="#191919" stroke-linecap="round" stroke-linejoin="round"/>
<path d="M8.17453 10.5652H7.21801C6.95387 10.5652 6.73975 10.7794 6.73975 11.0435V12C6.73975 12.2641 6.95387 12.4783 7.21801 12.4783H8.17453C8.43866 12.4783 8.65279 12.2641 8.65279 12V11.0435C8.65279 10.7794 8.43866 10.5652 8.17453 10.5652Z" fill="#78EB7B" stroke="#191919" stroke-linecap="round" stroke-linejoin="round"/>
<path d="M12.4787 10.5652H11.5222C11.2581 10.5652 11.0439 10.7794 11.0439 11.0435V12C11.0439 12.2641 11.2581 12.4783 11.5222 12.4783H12.4787C12.7428 12.4783 12.957 12.2641 12.957 12V11.0435C12.957 10.7794 12.7428 10.5652 12.4787 10.5652Z" fill="#78EB7B" stroke="#191919" stroke-linecap="round" stroke-linejoin="round"/>
<path d="M8.17453 14.3914H7.21801C6.95387 14.3914 6.73975 14.6055 6.73975 14.8696V15.8261C6.73975 16.0902 6.95387 16.3044 7.21801 16.3044H8.17453C8.43866 16.3044 8.65279 16.0902 8.65279 15.8261V14.8696C8.65279 14.6055 8.43866 14.3914 8.17453 14.3914Z" fill="#78EB7B" stroke="#191919" stroke-linecap="round" stroke-linejoin="round"/>
<path d="M12.4787 14.3914H11.5222C11.2581 14.3914 11.0439 14.6055 11.0439 14.8696V15.8261C11.0439 16.0902 11.2581 16.3044 11.5222 16.3044H12.4787C12.7428 16.3044 12.957 16.0902 12.957 15.8261V14.8696C12.957 14.6055 12.7428 14.3914 12.4787 14.3914Z" fill="#78EB7B" stroke="#191919" stroke-linecap="round" stroke-linejoin="round"/>
<path d="M16.7829 10.5652H15.8264C15.5623 10.5652 15.3481 10.7794 15.3481 11.0435V12C15.3481 12.2641 15.5623 12.4783 15.8264 12.4783H16.7829C17.047 12.4783 17.2612 12.2641 17.2612 12V11.0435C17.2612 10.7794 17.047 10.5652 16.7829 10.5652Z" fill="#78EB7B" stroke="#191919" stroke-linecap="round" stroke-linejoin="round"/>
</g>
<defs>
<clipPath id="clip0_5303_5702">
<rect width="24" height="24" fill="white"/>
</clipPath>
</defs>
</svg>
