<svg width="24" height="24" viewBox="0 0 24 24" fill="none" xmlns="http://www.w3.org/2000/svg">
<g clip-path="url(#clip0_5303_7251)">
<path d="M22.0435 1H13.9131C13.6098 0.999989 13.3096 1.0597 13.0294 1.17574C12.7493 1.29177 12.4947 1.46185 12.2803 1.67626L1.33865 12.6179C1.23129 12.7251 1.14613 12.8524 1.08802 12.9927C1.02991 13.1328 1 13.2831 1 13.4348C1 13.5865 1.02991 13.7367 1.08802 13.8769C1.14613 14.0171 1.23129 14.1444 1.33865 14.2516L9.74837 22.6613C9.8556 22.7687 9.98293 22.8539 10.1231 22.912C10.2633 22.9701 10.4135 23 10.5652 23C10.7169 23 10.8672 22.9701 11.0073 22.912C11.1476 22.8539 11.2749 22.7687 11.3821 22.6613L22.3237 11.7197C22.5382 11.5054 22.7084 11.2508 22.8244 10.9707C22.9404 10.6905 23.0001 10.3902 23 10.0869V1.95652C23 1.70283 22.8992 1.45954 22.7198 1.28016C22.5405 1.10078 22.2971 1 22.0435 1ZM18.6957 6.73912C18.4119 6.73912 18.1345 6.65497 17.8985 6.49731C17.6626 6.33966 17.4787 6.11557 17.3701 5.85341C17.2615 5.59124 17.233 5.30275 17.2884 5.02442C17.3438 4.7461 17.4805 4.49046 17.6811 4.2898C17.8818 4.08914 18.1374 3.95249 18.4158 3.89713C18.694 3.84176 18.9825 3.87018 19.2447 3.97877C19.5069 4.08737 19.731 4.27127 19.8886 4.50721C20.0463 4.74317 20.1304 5.02057 20.1304 5.30434C20.1304 5.68486 19.9793 6.04981 19.7102 6.31888C19.4412 6.58795 19.0762 6.73912 18.6957 6.73912Z" fill="#FFEF5E"/>
<path d="M22.0435 1H13.9131C13.6098 0.999989 13.3096 1.0597 13.0294 1.17574C12.7493 1.29177 12.4947 1.46185 12.2803 1.67626L1.33865 12.6179C1.23129 12.7251 1.14613 12.8524 1.08802 12.9927C1.02991 13.1328 1 13.2831 1 13.4348C1 13.5865 1.02991 13.7367 1.08802 13.8769C1.14613 14.0171 1.23129 14.1444 1.33865 14.2516L5.59134 18.5043L17.7391 6.36512C17.5917 6.23618 17.4724 6.07833 17.3884 5.90135C17.3045 5.72438 17.2578 5.53206 17.2513 5.33631C17.2448 5.14055 17.2786 4.94555 17.3505 4.76338C17.4225 4.58122 17.5311 4.41578 17.6696 4.27731C17.8081 4.13886 17.9737 4.03033 18.1558 3.95846C18.338 3.88659 18.5331 3.85293 18.7289 3.85953C18.9246 3.86614 19.1168 3.9129 19.2938 3.99689C19.4707 4.08088 19.6286 4.20032 19.7574 4.34782L22.7618 1.34148C22.674 1.23582 22.5643 1.15054 22.4402 1.09157C22.3162 1.0326 22.1808 1.00136 22.0435 1Z" fill="#FFF9BF"/>
<path d="M14.1591 12.546L12.2604 10.6473C12.161 10.5306 12.0374 10.4367 11.8981 10.3724C11.759 10.3081 11.6074 10.2748 11.454 10.2748C11.3007 10.2748 11.1491 10.3081 11.0099 10.3724C10.8706 10.4367 10.7471 10.5306 10.6477 10.6473C9.7629 11.5312 11.7955 14.9134 10.9078 15.7972C10.8034 15.9057 10.678 15.9921 10.5394 16.051C10.4008 16.11 10.2517 16.1404 10.101 16.1404C9.95038 16.1404 9.80128 16.11 9.66264 16.051C9.52401 15.9921 9.3987 15.9057 9.2942 15.7972L7.39551 13.8986" stroke="#191919" stroke-linecap="round" stroke-linejoin="round"/>
<path d="M12.8057 11.1935L13.8205 10.1786" stroke="#191919" stroke-linecap="round" stroke-linejoin="round"/>
<path d="M7.7334 16.2658L8.74827 15.251" stroke="#191919" stroke-linecap="round" stroke-linejoin="round"/>
<path d="M22.0435 1H13.9131C13.6098 0.999989 13.3096 1.0597 13.0294 1.17574C12.7493 1.29177 12.4947 1.46185 12.2803 1.67626L1.33865 12.6179C1.23129 12.7251 1.14613 12.8524 1.08802 12.9927C1.02991 13.1328 1 13.2831 1 13.4348C1 13.5865 1.02991 13.7367 1.08802 13.8769C1.14613 14.0171 1.23129 14.1444 1.33865 14.2516L9.74837 22.6613C9.8556 22.7687 9.98293 22.8539 10.1231 22.912C10.2633 22.9701 10.4135 23 10.5652 23C10.7169 23 10.8672 22.9701 11.0073 22.912C11.1476 22.8539 11.2749 22.7687 11.3821 22.6613L22.3237 11.7197C22.5382 11.5054 22.7084 11.2508 22.8244 10.9707C22.9404 10.6905 23.0001 10.3902 23 10.0869V1.95652C23 1.70283 22.8992 1.45954 22.7198 1.28016C22.5405 1.10078 22.2971 1 22.0435 1ZM18.6957 6.73912C18.4119 6.73912 18.1345 6.65497 17.8985 6.49731C17.6626 6.33966 17.4787 6.11557 17.3701 5.85341C17.2615 5.59124 17.233 5.30275 17.2884 5.02442C17.3438 4.7461 17.4805 4.49046 17.6811 4.2898C17.8818 4.08914 18.1374 3.95249 18.4158 3.89713C18.694 3.84176 18.9825 3.87018 19.2447 3.97877C19.5069 4.08737 19.731 4.27127 19.8886 4.50721C20.0463 4.74317 20.1304 5.02057 20.1304 5.30434C20.1304 5.68486 19.9793 6.04981 19.7102 6.31888C19.4412 6.58795 19.0762 6.73912 18.6957 6.73912Z" stroke="#191919" stroke-linecap="round" stroke-linejoin="round"/>
</g>
<defs>
<clipPath id="clip0_5303_7251">
<rect width="24" height="24" fill="white"/>
</clipPath>
</defs>
</svg>
