<svg width="24" height="24" viewBox="0 0 24 24" fill="none" xmlns="http://www.w3.org/2000/svg">
<g clip-path="url(#clip0_5303_8442)">
<path d="M16.345 9.18281L18.0676 7.42462C18.4686 6.969 18.7045 6.39163 18.7373 5.78557V1.95887C18.7373 1.70508 18.6365 1.46168 18.457 1.28223C18.2776 1.10277 18.0342 1.00195 17.7804 1.00195L13.7068 1.00868C13.1012 1.04247 12.5252 1.28135 12.0735 1.68601L1.71458 12.0449C1.53528 12.2243 1.43457 12.4676 1.43457 12.7213C1.43457 12.9749 1.53528 13.2182 1.71458 13.3977L6.34159 18.0237C6.43016 18.1119 6.5353 18.1818 6.65096 18.2292C6.76662 18.2766 6.89051 18.3007 7.01552 18.3001C7.14053 18.2995 7.26418 18.2741 7.37935 18.2256C7.49453 18.177 7.59897 18.1061 7.68665 18.017L8.69161 16.9919L16.345 9.18281ZM15.3891 5.78557C15.1975 5.79053 15.0069 5.75708 14.8285 5.6872C14.65 5.61732 14.4874 5.51242 14.3502 5.37868C14.2129 5.24495 14.1039 5.08509 14.0294 4.90854C13.9549 4.73198 13.9165 4.5423 13.9165 4.35068C13.9165 4.15906 13.9549 3.96937 14.0294 3.79282C14.1039 3.61626 14.2129 3.4564 14.3502 3.32267C14.4874 3.18894 14.65 3.08404 14.8285 3.01416C15.0069 2.94428 15.1975 2.91083 15.3891 2.91578C15.7632 2.92547 16.1187 3.08089 16.3799 3.34893C16.6411 3.61697 16.7873 3.97642 16.7873 4.35068C16.7873 4.72493 16.6411 5.08439 16.3799 5.35242C16.1187 5.62046 15.7632 5.77589 15.3891 5.78557Z" fill="#FFBC44"/>
<path d="M4.02712 15.7112L14.3735 5.3638C14.1271 5.09071 13.995 4.73345 14.0043 4.36575C14.0137 3.99806 14.1638 3.64798 14.4238 3.38777C14.6838 3.12756 15.0337 2.97708 15.4014 2.96738C15.7691 2.95768 16.1264 3.0895 16.3998 3.33564L18.4558 1.28153C18.2765 1.10263 18.0336 1.00209 17.7804 1.00195L13.7068 1.00868C13.1012 1.04247 12.5252 1.28135 12.0735 1.68601L1.71458 12.0449C1.53528 12.2243 1.43457 12.4676 1.43457 12.7213C1.43457 12.9749 1.53528 13.2182 1.71458 13.3977L4.02712 15.7112Z" fill="#FFDDA1"/>
<path d="M16.344 9.18086L18.0667 7.42267C18.4677 6.96705 18.7036 6.38968 18.7363 5.78362V1.95692C18.7363 1.70313 18.6355 1.45973 18.456 1.28027C18.2766 1.10082 18.0332 1 17.7794 1L13.7058 1.00673C13.1002 1.04052 12.5242 1.27939 12.0725 1.68406L1.7136 12.043C1.53431 12.2224 1.43359 12.4657 1.43359 12.7193C1.43359 12.973 1.53431 13.2163 1.7136 13.3957L6.34061 18.0218C6.42905 18.1102 6.53415 18.1802 6.64983 18.2278C6.76551 18.2754 6.88947 18.2996 7.01455 18.299C7.13963 18.2983 7.26334 18.2729 7.37854 18.2242C7.49373 18.1755 7.59812 18.1044 7.68568 18.015L8.69063 16.9899L16.344 9.18086ZM15.3881 5.78362C15.007 5.78362 14.6415 5.63224 14.3721 5.36278C14.1026 5.09333 13.9513 4.72787 13.9513 4.3468C13.9513 3.96574 14.1026 3.60028 14.3721 3.33082C14.6415 3.06137 15.007 2.90999 15.3881 2.90999C15.7694 2.90999 16.1351 3.06147 16.4047 3.3311C16.6744 3.60074 16.8259 3.96644 16.8259 4.34776C16.8259 4.72908 16.6744 5.09479 16.4047 5.36442C16.1351 5.63406 15.7694 5.78554 15.3881 5.78554V5.78362Z" stroke="#191919" stroke-linecap="round" stroke-linejoin="round"/>
<path d="M21.2866 17.4376C21.1303 17.2681 21.0435 17.046 21.0435 16.8155C21.0435 16.5849 21.1303 16.3628 21.2866 16.1934L22.2311 15.175C22.4095 14.983 22.5218 14.7389 22.5516 14.4784C22.5813 14.218 22.5269 13.9548 22.3964 13.7275C22.2658 13.5002 22.0659 13.3207 21.826 13.2151C21.586 13.1096 21.3186 13.0836 21.0628 13.141L19.7129 13.4533C19.4879 13.5051 19.2517 13.4695 19.0519 13.3538C18.8521 13.238 18.7038 13.0507 18.6369 12.8298L18.2314 11.4982C18.1558 11.2471 18.0013 11.0272 17.7909 10.8708C17.5805 10.7144 17.3253 10.63 17.0631 10.63C16.801 10.63 16.5458 10.7144 16.3354 10.8708C16.125 11.0272 15.9705 11.2471 15.8949 11.4982L15.4894 12.8298C15.4227 13.0509 15.2744 13.2384 15.0746 13.3544C14.8749 13.4703 14.6385 13.506 14.4134 13.4543L13.0645 13.141C12.8084 13.0845 12.5409 13.1114 12.3013 13.2178C12.0616 13.3243 11.8623 13.5046 11.7326 13.7325C11.6028 13.9604 11.5495 14.2239 11.5803 14.4843C11.6111 14.7448 11.7245 14.9885 11.9039 15.1798L12.8483 16.1982C13.0044 16.3677 13.091 16.5898 13.091 16.8203C13.091 17.0508 13.0044 17.2728 12.8483 17.4424L11.9039 18.4608C11.7247 18.6526 11.6118 18.8968 11.5817 19.1575C11.5515 19.4182 11.6058 19.6818 11.7366 19.9094C11.8673 20.137 12.0676 20.3166 12.308 20.422C12.5484 20.5273 12.8162 20.5528 13.0722 20.4947L14.422 20.1824C14.6469 20.1309 14.8829 20.1666 15.0824 20.2824C15.282 20.3981 15.4302 20.5852 15.4971 20.806L15.8977 22.1318C15.9734 22.3828 16.1278 22.6028 16.3383 22.7592C16.5487 22.9155 16.8039 23 17.066 23C17.3282 23 17.5834 22.9155 17.7938 22.7592C18.0042 22.6028 18.1587 22.3828 18.2343 22.1318L18.6398 20.8012C18.7067 20.5802 18.855 20.3928 19.0547 20.2769C19.2544 20.161 19.4907 20.1252 19.7158 20.1767L21.0657 20.4899C21.3218 20.5486 21.59 20.5235 21.8307 20.4184C22.0715 20.3133 22.2722 20.1336 22.4033 19.9059C22.5343 19.6781 22.5887 19.4143 22.5586 19.1533C22.5285 18.8923 22.4153 18.6479 22.2359 18.456L21.2866 17.4376ZM17.0631 18.1908C16.6984 18.1908 16.3486 18.0459 16.0906 17.788C15.8327 17.53 15.6878 17.1802 15.6878 16.8155C15.6878 16.4507 15.8327 16.1009 16.0906 15.843C16.3486 15.585 16.6984 15.4401 17.0631 15.4401C17.4278 15.4401 17.7775 15.585 18.0353 15.8428C18.2931 16.1007 18.438 16.4504 18.438 16.815C18.438 17.1796 18.2931 17.5293 18.0353 17.7872C17.7775 18.045 17.4278 18.1908 17.0631 18.1908Z" fill="#E3E3E3"/>
<path d="M15.6891 16.8151C15.6885 16.5477 15.766 16.286 15.9123 16.0623C16.0585 15.8385 16.2671 15.6623 16.5122 15.5556C16.7573 15.4489 17.0283 15.4162 17.2918 15.4616C17.5552 15.507 17.7997 15.6285 17.9949 15.8111L20.5457 13.2603L19.7128 13.4524C19.4876 13.5042 19.2513 13.4685 19.0515 13.3525C18.8517 13.2366 18.7034 13.0491 18.6367 12.8279L18.2313 11.4963C18.1556 11.2453 18.0012 11.0253 17.7907 10.869C17.5803 10.7126 17.3251 10.6282 17.063 10.6282C16.8008 10.6282 16.5456 10.7126 16.3352 10.869C16.1248 11.0253 15.9703 11.2453 15.8947 11.4963L15.4893 12.8279C15.4225 13.0491 15.2743 13.2366 15.0745 13.3525C14.8747 13.4685 14.6383 13.5042 14.4132 13.4524L13.0643 13.1392C12.8079 13.0821 12.5399 13.1087 12.2997 13.2151C12.0595 13.3216 11.8598 13.5023 11.7299 13.7306C11.6 13.959 11.5468 14.223 11.5781 14.4839C11.6094 14.7447 11.7235 14.9887 11.9037 15.1799L12.8481 16.1983C13.0042 16.3678 13.0909 16.5899 13.0909 16.8204C13.0909 17.0508 13.0042 17.2729 12.8481 17.4425L11.9037 18.4609C11.7245 18.6527 11.6116 18.8969 11.5815 19.1576C11.5514 19.4183 11.6057 19.6819 11.7364 19.9094C11.8671 20.137 12.0674 20.3167 12.3078 20.4221C12.5482 20.5274 12.816 20.5529 13.072 20.4948L13.3871 20.4218L16.0609 17.7432C15.8234 17.4923 15.6911 17.1605 15.6891 16.8151Z" fill="white"/>
<path d="M21.2866 17.4376C21.1303 17.2681 21.0435 17.046 21.0435 16.8155C21.0435 16.5849 21.1303 16.3628 21.2866 16.1934L22.2311 15.175C22.4095 14.983 22.5218 14.7389 22.5516 14.4784C22.5813 14.218 22.5269 13.9548 22.3964 13.7275C22.2658 13.5002 22.0659 13.3207 21.826 13.2151C21.586 13.1096 21.3186 13.0836 21.0628 13.141L19.7129 13.4533C19.4879 13.5051 19.2517 13.4695 19.0519 13.3538C18.8521 13.238 18.7038 13.0507 18.6369 12.8298L18.2314 11.4982C18.1558 11.2471 18.0013 11.0272 17.7909 10.8708C17.5805 10.7144 17.3253 10.63 17.0631 10.63C16.801 10.63 16.5458 10.7144 16.3354 10.8708C16.125 11.0272 15.9705 11.2471 15.8949 11.4982L15.4894 12.8298C15.4227 13.0509 15.2744 13.2384 15.0746 13.3544C14.8749 13.4703 14.6385 13.506 14.4134 13.4543L13.0645 13.141C12.8084 13.0845 12.5409 13.1114 12.3013 13.2178C12.0616 13.3243 11.8623 13.5046 11.7326 13.7325C11.6028 13.9604 11.5495 14.2239 11.5803 14.4843C11.6111 14.7448 11.7245 14.9885 11.9039 15.1798L12.8483 16.1982C13.0044 16.3677 13.091 16.5898 13.091 16.8203C13.091 17.0508 13.0044 17.2728 12.8483 17.4424L11.9039 18.4608C11.7247 18.6526 11.6118 18.8968 11.5817 19.1575C11.5515 19.4182 11.6058 19.6818 11.7366 19.9094C11.8673 20.137 12.0676 20.3166 12.308 20.422C12.5484 20.5273 12.8162 20.5528 13.0722 20.4947L14.422 20.1824C14.6469 20.1309 14.8829 20.1666 15.0824 20.2824C15.282 20.3981 15.4302 20.5852 15.4971 20.806L15.8977 22.1318C15.9734 22.3828 16.1278 22.6028 16.3383 22.7592C16.5487 22.9155 16.8039 23 17.066 23C17.3282 23 17.5834 22.9155 17.7938 22.7592C18.0042 22.6028 18.1587 22.3828 18.2343 22.1318L18.6398 20.8012C18.7067 20.5802 18.855 20.3928 19.0547 20.2769C19.2544 20.161 19.4907 20.1252 19.7158 20.1767L21.0657 20.4899C21.3218 20.5486 21.59 20.5235 21.8307 20.4184C22.0715 20.3133 22.2722 20.1336 22.4033 19.9059C22.5343 19.6781 22.5887 19.4143 22.5586 19.1533C22.5285 18.8923 22.4153 18.6479 22.2359 18.456L21.2866 17.4376ZM17.0631 18.1908C16.6984 18.1908 16.3486 18.0459 16.0906 17.788C15.8327 17.53 15.6878 17.1802 15.6878 16.8155C15.6878 16.4507 15.8327 16.1009 16.0906 15.843C16.3486 15.585 16.6984 15.4401 17.0631 15.4401C17.4278 15.4401 17.7775 15.585 18.0353 15.8428C18.2931 16.1007 18.438 16.4504 18.438 16.815C18.438 17.1796 18.2931 17.5293 18.0353 17.7872C17.7775 18.045 17.4278 18.1908 17.0631 18.1908Z" stroke="#191919" stroke-linecap="round" stroke-linejoin="round"/>
</g>
<defs>
<clipPath id="clip0_5303_8442">
<rect width="24" height="24" fill="white"/>
</clipPath>
</defs>
</svg>
