<svg width="24" height="24" viewBox="0 0 24 24" fill="none" xmlns="http://www.w3.org/2000/svg">
<path d="M16.146 9.30965L17.7887 7.6332C18.1713 7.1984 18.3964 6.64737 18.4275 6.069V2.41859C18.4275 2.17655 18.3314 1.94442 18.1602 1.77328C17.9891 1.60213 17.7569 1.50598 17.5149 1.50598L13.6291 1.51237C13.0515 1.54445 12.502 1.77234 12.0712 2.15849L2.18956 12.0401C2.01848 12.2113 1.92236 12.4434 1.92236 12.6854C1.92236 12.9274 2.01848 13.1595 2.18956 13.3306L6.60291 17.7439C6.68734 17.8283 6.78766 17.8952 6.89809 17.9406C7.00853 17.9861 7.12686 18.0091 7.24625 18.0085C7.36566 18.0079 7.48376 17.9837 7.59373 17.9371C7.7037 17.8907 7.80336 17.8228 7.88694 17.7376L8.84518 16.7592L16.146 9.30965ZM15.2334 6.069C14.9626 6.069 14.698 5.98871 14.4729 5.83829C14.2477 5.68788 14.0723 5.47408 13.9687 5.22395C13.8651 4.97381 13.838 4.69857 13.8908 4.43303C13.9436 4.16749 14.074 3.92358 14.2654 3.73213C14.4569 3.54069 14.7008 3.41031 14.9663 3.35749C15.2319 3.30467 15.5071 3.33178 15.7573 3.43539C16.0074 3.539 16.2212 3.71446 16.3716 3.93957C16.522 4.16469 16.6023 4.42935 16.6023 4.7001C16.6023 5.06315 16.4581 5.41134 16.2013 5.66806C15.9447 5.92477 15.5964 6.069 15.2334 6.069Z" fill="#FFBC44"/>
<path d="M4.39532 15.5372L14.2651 5.66745C14.0257 5.40772 13.896 5.06548 13.9031 4.71231C13.9101 4.35914 14.0534 4.02238 14.303 3.77242C14.5526 3.52246 14.8892 3.37867 15.2424 3.3711C15.5955 3.36354 15.938 3.49278 16.198 3.73182L18.1592 1.77246C17.9882 1.60186 17.7565 1.50603 17.5149 1.50598L13.6291 1.51237C13.0515 1.54445 12.502 1.77234 12.0712 2.15849L2.18956 12.0401C2.01848 12.2113 1.92236 12.4434 1.92236 12.6854C1.92236 12.9274 2.01848 13.1595 2.18956 13.3306L4.39532 15.5372Z" fill="#FFDDA1"/>
<path d="M14.7771 10.7051L17.7887 7.63143C18.1713 7.19663 18.3964 6.6456 18.4275 6.06722V2.41682C18.4275 2.17478 18.3314 1.94265 18.1602 1.77151C17.9891 1.60036 17.7569 1.50421 17.5149 1.50421L13.6291 1.5106C13.051 1.54226 12.5012 1.77019 12.0703 2.15672L2.18956 12.0384C2.01848 12.2095 1.92236 12.4417 1.92236 12.6836C1.92236 12.9256 2.01848 13.1577 2.18956 13.3288L6.60199 17.7422C6.68643 17.8266 6.78676 17.8934 6.89718 17.9389C7.00761 17.9843 7.12594 18.0074 7.24535 18.0067C7.36474 18.0062 7.48284 17.9819 7.59282 17.9354C7.70278 17.8889 7.80244 17.821 7.88603 17.7358L9.30148 16.2902L14.7771 10.7051ZM15.2334 6.06906C14.9626 6.06906 14.698 5.98877 14.4729 5.83835C14.2477 5.68793 14.0723 5.47414 13.9687 5.22401C13.8651 4.97387 13.838 4.69863 13.8908 4.43309C13.9436 4.16754 14.074 3.92363 14.2654 3.73219C14.4569 3.54074 14.7008 3.41037 14.9663 3.35755C15.2319 3.30473 15.5071 3.33183 15.7573 3.43545C16.0074 3.53906 16.2212 3.71451 16.3716 3.93962C16.522 4.16474 16.6023 4.42941 16.6023 4.70014C16.6023 5.06321 16.4581 5.41139 16.2013 5.66811C15.9447 5.92483 15.5964 6.06906 15.2334 6.06906Z" stroke="#191919" stroke-linecap="round" stroke-linejoin="round"/>
<path d="M16.6028 22.4959L11.9357 17.6281C11.5259 17.2181 11.2555 16.6898 11.1626 16.1177C11.0698 15.5456 11.1592 14.9588 11.4183 14.4404C11.614 14.049 11.8999 13.7099 12.2525 13.4507C12.6049 13.1916 13.014 13.0199 13.4459 12.9499C13.8778 12.8798 14.3202 12.9134 14.7365 13.0478C15.1529 13.1822 15.5314 13.4137 15.8408 13.7231L16.6028 14.486L17.3648 13.724C17.6741 13.4146 18.0525 13.1832 18.4688 13.0487C18.8851 12.9143 19.3274 12.8807 19.7591 12.9508C20.191 13.0208 20.6 13.1925 20.9525 13.4516C21.3049 13.7108 21.5907 14.05 21.7864 14.4413C22.0454 14.9597 22.1348 15.5465 22.0419 16.1186C21.9491 16.6907 21.6786 17.2191 21.2689 17.629L16.6028 22.4959Z" fill="#FF808C"/>
<path d="M21.787 14.4384C21.5914 14.0469 21.3055 13.7076 20.953 13.4484C20.6004 13.189 20.1913 13.0173 19.7594 12.9472C19.3275 12.8772 18.885 12.9108 18.4686 13.0454C18.0522 13.18 17.6737 13.4115 17.3644 13.7211L16.6024 14.4831L15.8404 13.7211C15.396 13.2749 14.8122 12.9944 14.1861 12.9262C13.56 12.8579 12.9295 13.0062 12.3993 13.3461C11.8692 13.6859 11.4714 14.1971 11.2721 14.7945C11.0728 15.3919 11.084 16.0394 11.3039 16.6296C11.9539 17.3916 12.7687 17.9959 13.6867 18.3966C14.6046 18.7974 15.6017 18.9842 16.6024 18.943C17.6031 18.9843 18.6 18.7975 19.5179 18.3967C20.4356 17.9959 21.2503 17.3916 21.9001 16.6296C22.0322 16.276 22.0903 15.8992 22.0709 15.5222C22.0514 15.1453 21.9547 14.7764 21.787 14.4384Z" fill="#FFBFC5"/>
<path d="M16.6028 22.4959L11.9357 17.6281C11.5259 17.2181 11.2555 16.6898 11.1626 16.1177C11.0698 15.5456 11.1592 14.9588 11.4183 14.4404C11.614 14.049 11.8999 13.7099 12.2525 13.4507C12.6049 13.1916 13.014 13.0199 13.4459 12.9499C13.8778 12.8798 14.3202 12.9134 14.7365 13.0478C15.1529 13.1822 15.5314 13.4137 15.8408 13.7231L16.6028 14.486L17.3648 13.724C17.6741 13.4146 18.0525 13.1832 18.4688 13.0487C18.8851 12.9143 19.3274 12.8807 19.7591 12.9508C20.191 13.0208 20.6 13.1925 20.9525 13.4516C21.3049 13.7108 21.5907 14.05 21.7864 14.4413C22.0454 14.9597 22.1348 15.5465 22.0419 16.1186C21.9491 16.6907 21.6786 17.2191 21.2689 17.629L16.6028 22.4959Z" stroke="#191919" stroke-linecap="round" stroke-linejoin="round"/>
</svg>
