<svg width="24" height="24" viewBox="0 0 24 24" fill="none" xmlns="http://www.w3.org/2000/svg">
<path d="M16.1472 9.31031L17.79 7.63372C18.1728 7.19888 18.3978 6.64781 18.429 6.06938V2.41866C18.429 2.1766 18.3328 1.94446 18.1616 1.7733C17.9904 1.60214 17.7583 1.50598 17.5162 1.50598L13.63 1.51237C13.0523 1.54445 12.5029 1.77236 12.0721 2.15855L2.18959 12.041C2.01848 12.2122 1.92236 12.4443 1.92236 12.6863C1.92236 12.9284 2.01848 13.1605 2.18959 13.3316L6.60331 17.7453C6.68775 17.8298 6.78808 17.8966 6.89852 17.942C7.00896 17.9875 7.12731 18.0106 7.24672 18.0099C7.36613 18.0094 7.48424 17.9851 7.59422 17.9386C7.70419 17.892 7.80386 17.8242 7.88745 17.739L8.84577 16.7605L16.1472 9.31031ZM15.2346 6.06938C14.9638 6.06938 14.699 5.98909 14.4739 5.83867C14.2488 5.68823 14.0733 5.47442 13.9697 5.22426C13.8661 4.97411 13.839 4.69885 13.8918 4.43328C13.9446 4.16772 14.0751 3.92378 14.2665 3.73232C14.458 3.54086 14.7019 3.41047 14.9674 3.35765C15.233 3.30483 15.5083 3.33193 15.7584 3.43555C16.0086 3.53917 16.2224 3.71464 16.3729 3.93978C16.5233 4.16491 16.6035 4.4296 16.6035 4.70036C16.6035 5.06345 16.4593 5.41167 16.2026 5.66841C15.9458 5.92515 15.5977 6.06938 15.2346 6.06938Z" fill="#FFBC44"/>
<path d="M4.39554 15.5385L14.2662 5.66781C14.0268 5.40805 13.8971 5.06578 13.9041 4.71259C13.9112 4.35939 14.0544 4.02259 14.3041 3.77261C14.5538 3.52264 14.8904 3.37883 15.2435 3.37126C15.5967 3.3637 15.9391 3.49296 16.1993 3.73201L18.1606 1.77248C17.9895 1.60187 17.7579 1.50603 17.5162 1.50598L13.63 1.51237C13.0523 1.54445 12.5029 1.77236 12.0721 2.15855L2.18959 12.041C2.01848 12.2122 1.92236 12.4443 1.92236 12.6863C1.92236 12.9284 2.01848 13.1605 2.18959 13.3316L4.39554 15.5385Z" fill="#FFDDA1"/>
<path d="M16.1462 9.30855L17.789 7.63196C18.1717 7.19712 18.3968 6.64604 18.428 6.06762V2.41689C18.428 2.17484 18.3318 1.94269 18.1607 1.77153C17.9894 1.60037 17.7573 1.50421 17.5152 1.50421L13.629 1.5106C13.0514 1.54268 12.5019 1.77059 12.0712 2.15678L2.1886 12.0393C2.0175 12.2105 1.92139 12.4426 1.92139 12.6846C1.92139 12.9266 2.0175 13.1587 2.1886 13.3298L6.60233 17.7436C6.68677 17.828 6.78711 17.8948 6.89754 17.9403C7.00798 17.9857 7.12632 18.0087 7.24574 18.0082C7.36515 18.0076 7.48325 17.9834 7.59323 17.9368C7.70322 17.8903 7.80288 17.8224 7.88648 17.7371L8.84479 16.7588L16.1462 9.30855ZM15.2336 6.06762C14.9628 6.06762 14.6981 5.98733 14.473 5.83689C14.2479 5.68647 14.0723 5.47265 13.9687 5.2225C13.8652 4.97234 13.838 4.69707 13.8908 4.43151C13.9436 4.16595 14.0741 3.92201 14.2655 3.73055C14.457 3.53909 14.7009 3.40871 14.9664 3.35588C15.232 3.30305 15.5073 3.33017 15.7574 3.43379C16.0076 3.53741 16.2215 3.71287 16.3719 3.93801C16.5223 4.16314 16.6026 4.42783 16.6026 4.69859C16.6028 4.87854 16.5676 5.05675 16.4989 5.22306C16.4302 5.38937 16.3294 5.5405 16.2023 5.66782C16.0751 5.79514 15.9241 5.89615 15.7579 5.96506C15.5917 6.03398 15.4135 6.06944 15.2336 6.06944V6.06762Z" stroke="#191919" stroke-linecap="round" stroke-linejoin="round"/>
<path d="M16.6025 22.4959C19.6269 22.4959 22.0786 20.0441 22.0786 17.0198C22.0786 13.9954 19.6269 11.5437 16.6025 11.5437C13.5782 11.5437 11.1265 13.9954 11.1265 17.0198C11.1265 20.0441 13.5782 22.4959 16.6025 22.4959Z" fill="#FF808C"/>
<path d="M20.4753 13.1479C19.4455 12.1348 18.057 11.5696 16.6124 11.5755C15.1679 11.5814 13.7841 12.1578 12.7625 13.1794C11.7411 14.2009 11.1646 15.5846 11.1587 17.0293C11.1528 18.4739 11.718 19.8622 12.7312 20.892L20.4753 13.1479Z" fill="#FFBFC5"/>
<path d="M16.6025 22.4959C19.6269 22.4959 22.0786 20.0441 22.0786 17.0198C22.0786 13.9954 19.6269 11.5437 16.6025 11.5437C13.5782 11.5437 11.1265 13.9954 11.1265 17.0198C11.1265 20.0441 13.5782 22.4959 16.6025 22.4959Z" stroke="#191919" stroke-linejoin="round"/>
<path d="M18.5385 15.0839L14.667 18.9555" stroke="#191919" stroke-linecap="round" stroke-linejoin="round"/>
<path d="M18.5385 18.9555L14.667 15.0839" stroke="#191919" stroke-linecap="round" stroke-linejoin="round"/>
</svg>
