<svg width="24" height="24" viewBox="0 0 24 24" fill="none" xmlns="http://www.w3.org/2000/svg">
<path d="M22.1092 14.3312L10.1063 2.32191C9.67354 1.93431 9.12164 1.70573 8.54155 1.67383H2.59147C2.34836 1.67383 2.1152 1.77041 1.94329 1.94231C1.77138 2.11423 1.6748 2.34738 1.6748 2.5905L1.6803 8.54333C1.71253 9.12351 1.94143 9.67541 2.3293 10.1081L14.3303 22.1082C14.3887 22.1924 14.4714 22.2569 14.5673 22.293C14.6633 22.3293 14.768 22.3353 14.8674 22.3106C14.967 22.2857 15.0565 22.2313 15.1244 22.1544C15.1921 22.0774 15.2349 21.9817 15.247 21.8799L16.7989 16.7988L21.8809 15.2478C21.9824 15.2353 22.0777 15.1923 22.1544 15.1244C22.2309 15.0566 22.2852 14.9671 22.3099 14.8679C22.3346 14.7686 22.3286 14.6642 22.2928 14.5684C22.2569 14.4726 22.193 14.3898 22.1092 14.3312ZM6.25722 8.0905C5.89462 8.0905 5.54017 7.98297 5.23867 7.78153C4.93718 7.58007 4.7022 7.29375 4.56344 6.95874C4.42468 6.62375 4.38837 6.25513 4.45911 5.8995C4.52985 5.54386 4.70446 5.2172 4.96086 4.9608C5.21725 4.7044 5.54392 4.5298 5.89955 4.45906C6.25518 4.38832 6.62381 4.42462 6.95881 4.56338C7.2938 4.70214 7.58013 4.93713 7.78158 5.23862C7.98303 5.54011 8.09056 5.89456 8.09056 6.25716C8.09056 6.74339 7.8974 7.20971 7.55359 7.55352C7.20976 7.89734 6.74345 8.0905 6.25722 8.0905Z" fill="#FFBC44"/>
<path d="M4.96103 4.961C5.30491 4.61711 5.77132 4.42391 6.25765 4.42391C6.74398 4.42391 7.21039 4.61711 7.55428 4.961C7.89816 5.30489 8.09136 5.77129 8.09136 6.25762C8.09136 6.74395 7.89816 7.21036 7.55428 7.55425L16.7989 16.7988L21.8809 15.2478C21.9824 15.2353 22.0777 15.1923 22.1543 15.1244C22.2309 15.0566 22.2852 14.9671 22.3099 14.8679C22.3346 14.7686 22.3286 14.6642 22.2928 14.5684C22.2569 14.4726 22.1929 14.3898 22.1092 14.3312L10.1063 2.32191C9.67352 1.93431 9.12161 1.70573 8.54153 1.67383H2.59144C2.47101 1.67397 2.35179 1.69785 2.24059 1.74409C2.12939 1.79033 2.02839 1.85804 1.94336 1.94333L4.96103 4.961Z" fill="#FFDDA1"/>
<path d="M22.1092 14.3312L10.1063 2.32191C9.67355 1.93431 9.12164 1.70573 8.54155 1.67383H2.59147C2.34836 1.67383 2.1152 1.77041 1.94329 1.94231C1.77138 2.11423 1.6748 2.34738 1.6748 2.5905L1.6803 8.54333C1.71253 9.12351 1.94143 9.67541 2.3293 10.1081L14.3303 22.1082C14.3887 22.1924 14.4714 22.2569 14.5673 22.293C14.6633 22.3293 14.768 22.3353 14.8674 22.3106C14.967 22.2857 15.0565 22.2313 15.1244 22.1544C15.1921 22.0774 15.2349 21.9817 15.247 21.8799L16.7989 16.7988L21.8809 15.2478C21.9824 15.2353 22.0777 15.1923 22.1544 15.1244C22.2309 15.0566 22.2852 14.9671 22.3099 14.8679C22.3346 14.7686 22.3286 14.6642 22.2928 14.5684C22.2569 14.4726 22.193 14.3898 22.1092 14.3312ZM6.25722 8.0905C5.89462 8.0905 5.54017 7.98297 5.23867 7.78153C4.93718 7.58007 4.7022 7.29375 4.56344 6.95874C4.42468 6.62375 4.38837 6.25513 4.45911 5.8995C4.52985 5.54386 4.70446 5.2172 4.96086 4.9608C5.21725 4.7044 5.54392 4.5298 5.89955 4.45906C6.25518 4.38832 6.62381 4.42462 6.95881 4.56338C7.2938 4.70214 7.58013 4.93713 7.78158 5.23862C7.98303 5.54011 8.09056 5.89456 8.09056 6.25716C8.09056 6.74339 7.8974 7.20971 7.55359 7.55352C7.20976 7.89734 6.74345 8.0905 6.25722 8.0905Z" stroke="#191919" stroke-linecap="round" stroke-linejoin="round"/>
</svg>
