<svg width="24" height="24" viewBox="0 0 24 24" fill="none" xmlns="http://www.w3.org/2000/svg">
<path d="M16.1467 9.31004L17.7895 7.63351C18.1721 7.19868 18.3972 6.64763 18.4283 6.06923V2.41863C18.4283 2.17659 18.3322 1.94445 18.161 1.77329C17.9899 1.60214 17.7577 1.50598 17.5157 1.50598L13.6296 1.51237C13.052 1.54445 12.5026 1.77236 12.0717 2.15853L2.18957 12.0407C2.01848 12.2118 1.92236 12.4439 1.92236 12.6859C1.92236 12.9279 2.01848 13.16 2.18957 13.3312L6.60315 17.7447C6.68758 17.8292 6.78791 17.8961 6.89835 17.9414C7.00878 17.9869 7.12712 18.0099 7.24653 18.0094C7.36593 18.0088 7.48404 17.9845 7.59402 17.938C7.70399 17.8915 7.80365 17.8237 7.88724 17.7384L8.84553 16.76L16.1467 9.31004ZM15.234 6.06923C14.9633 6.06923 14.6986 5.98894 14.4735 5.83851C14.2483 5.68809 14.0729 5.47428 13.9693 5.22414C13.8657 4.97399 13.8386 4.69874 13.8914 4.43318C13.9442 4.16762 14.0746 3.9237 14.266 3.73224C14.4575 3.54079 14.7015 3.41041 14.967 3.35758C15.2326 3.30476 15.5078 3.33187 15.7579 3.43549C16.0081 3.5391 16.2219 3.71457 16.3724 3.93969C16.5228 4.16482 16.6031 4.4295 16.6031 4.70025C16.6031 5.06332 16.4588 5.41153 16.202 5.66826C15.9454 5.925 15.5971 6.06923 15.234 6.06923Z" fill="#FFBC44"/>
<path d="M4.39545 15.5379L14.2658 5.66766C14.0263 5.40791 13.8966 5.06566 13.9037 4.71247C13.9107 4.35929 14.054 4.0225 14.3036 3.77253C14.5533 3.52256 14.8898 3.37877 15.243 3.37119C15.5962 3.36363 15.9387 3.49288 16.1987 3.73193L18.16 1.77247C17.989 1.60187 17.7573 1.50603 17.5157 1.50598L13.6296 1.51237C13.052 1.54445 12.5026 1.77236 12.0717 2.15853L2.18957 12.0407C2.01848 12.2118 1.92236 12.4439 1.92236 12.6859C1.92236 12.9279 2.01848 13.16 2.18957 13.3312L4.39545 15.5379Z" fill="#FFDDA1"/>
<path d="M16.1463 9.30827L17.789 7.63173C18.1717 7.19691 18.3968 6.64586 18.4278 6.06746V2.41686C18.4278 2.17481 18.3317 1.94267 18.1605 1.77152C17.9894 1.60037 17.7573 1.50421 17.5152 1.50421L13.6292 1.5106C13.0514 1.54225 12.5018 1.77021 12.0712 2.15676L2.18909 12.039C2.01799 12.2101 1.92188 12.4422 1.92188 12.6842C1.92188 12.9262 2.01799 13.1583 2.18909 13.3294L6.60266 17.743C6.68709 17.8274 6.78742 17.8943 6.89785 17.9397C7.00828 17.9851 7.12663 18.0082 7.24603 18.0076C7.36544 18.007 7.48355 17.9827 7.59352 17.9362C7.70349 17.8897 7.80316 17.8218 7.88675 17.7366L8.84504 16.7582L16.1463 9.30827ZM15.2336 6.06746C14.9628 6.06746 14.6981 5.98717 14.4731 5.83675C14.2479 5.68632 14.0724 5.47252 13.9688 5.22237C13.8652 4.97222 13.8381 4.69696 13.8909 4.43141C13.9437 4.16585 14.0741 3.92193 14.2655 3.73047C14.457 3.53902 14.701 3.40863 14.9665 3.35581C15.2321 3.303 15.5073 3.3301 15.7575 3.43371C16.0077 3.53733 16.2214 3.71279 16.3719 3.93793C16.5223 4.16305 16.6026 4.42773 16.6026 4.69848C16.6028 4.87842 16.5676 5.05663 16.4989 5.22293C16.4302 5.38923 16.3294 5.54036 16.2023 5.66768C16.0751 5.79499 15.9241 5.89599 15.7579 5.9649C15.5917 6.03381 15.4135 6.06929 15.2336 6.06929V6.06746Z" stroke="#191919" stroke-linecap="round" stroke-linejoin="round"/>
<path d="M16.5933 21.1278C17.4055 21.1278 18.1995 20.887 18.8749 20.4357C19.5503 19.9844 20.0767 19.343 20.3875 18.5926C20.6984 17.8421 20.7798 17.0164 20.6213 16.2197C20.4628 15.423 20.0717 14.6912 19.4973 14.1169C18.923 13.5425 18.1911 13.1513 17.3945 12.9929C16.5979 12.8344 15.772 12.9158 15.0216 13.2266C14.2712 13.5374 13.6298 14.0639 13.1785 14.7392C12.7272 15.4146 12.4863 16.2086 12.4863 17.021C12.4863 18.1101 12.919 19.1548 13.6893 19.925C14.4595 20.6951 15.5041 21.1278 16.5933 21.1278Z" fill="#66E1FF"/>
<path d="M14.3208 17.9337H11.1265V21.128" stroke="#191919" stroke-linecap="round" stroke-linejoin="round"/>
<path d="M21.5462 19.0563C21.1713 20.153 20.4329 21.0886 19.4535 21.7083C18.474 22.3279 17.3122 22.5943 16.1606 22.4633C15.009 22.3323 13.9368 21.8118 13.1215 20.988C12.3062 20.1642 11.7968 19.0865 11.6777 17.9337" stroke="#191919" stroke-linecap="round" stroke-linejoin="round"/>
<path d="M18.8843 16.1082H22.0785V12.914" stroke="#191919" stroke-linecap="round" stroke-linejoin="round"/>
<path d="M11.6587 14.9801C12.0343 13.8836 12.7734 12.9483 13.7533 12.3292C14.7333 11.71 15.8953 11.4443 17.047 11.5759C18.1986 11.7076 19.2706 12.2286 20.0856 13.0529C20.9005 13.8771 21.4095 14.9551 21.5281 16.1081" stroke="#191919" stroke-linecap="round" stroke-linejoin="round"/>
</svg>
