<svg width="24" height="24" viewBox="0 0 24 24" fill="none" xmlns="http://www.w3.org/2000/svg">
<g clip-path="url(#clip0_5303_10638)">
<path d="M23.0001 9.38095C23.0001 9.6588 22.8897 9.9253 22.6933 10.1217C22.4969 10.3182 22.2303 10.4286 21.9525 10.4286H11.4763C11.1985 10.4286 10.932 10.3182 10.7356 10.1217C10.5391 9.9253 10.4287 9.6588 10.4287 9.38095V3.09524C10.4287 2.81739 10.5391 2.55093 10.7356 2.35446C10.932 2.158 11.1985 2.04762 11.4763 2.04762H15.6668C15.9601 1.46095 16.1393 1 16.838 1H19.2099C19.9086 1 20.0878 1.46095 20.3811 2.04762H21.9525C22.2303 2.04762 22.4969 2.158 22.6933 2.35446C22.8897 2.55093 23.0001 2.81739 23.0001 3.09524V9.38095Z" fill="#E3E3E3"/>
<path d="M19.8571 13.5714C19.8571 13.8492 19.7467 14.1158 19.5502 14.3122C19.3538 14.5086 19.0873 14.619 18.8095 14.619H8.33326C8.05541 14.619 7.78895 14.5086 7.59248 14.3122C7.39602 14.1158 7.28564 13.8492 7.28564 13.5714V7.28567C7.28564 7.00782 7.39602 6.74136 7.59248 6.54489C7.78895 6.34843 8.05541 6.23805 8.33326 6.23805H12.5237C12.8171 5.65138 12.9962 5.19043 13.695 5.19043H16.0668C16.7655 5.19043 16.9447 5.65138 17.238 6.23805H18.8095C19.0873 6.23805 19.3538 6.34843 19.5502 6.54489C19.7467 6.74136 19.8571 7.00782 19.8571 7.28567V13.5714Z" fill="#E3E3E3"/>
<path d="M16.7145 17.7619C16.7145 18.0398 16.6041 18.3063 16.4076 18.5027C16.2112 18.6991 15.9447 18.8096 15.6669 18.8096H5.19069C4.91284 18.8096 4.64637 18.6991 4.4499 18.5027C4.25344 18.3063 4.14307 18.0398 4.14307 17.7619V11.4762C4.14307 11.1984 4.25344 10.9319 4.4499 10.7354C4.64637 10.539 4.91284 10.4286 5.19069 10.4286H9.38116C9.6745 9.84193 9.85364 9.38098 10.5524 9.38098H12.9242C13.623 9.38098 13.8021 9.84193 14.0954 10.4286H15.6669C15.9447 10.4286 16.2112 10.539 16.4076 10.7354C16.6041 10.9319 16.7145 11.1984 16.7145 11.4762V17.7619Z" fill="#E3E3E3"/>
<path d="M13.5714 21.9524C13.5714 22.2302 13.461 22.4967 13.2646 22.6932C13.0682 22.8896 12.8016 23 12.5238 23H2.04762C1.76977 23 1.50331 22.8896 1.30684 22.6932C1.11038 22.4967 1 22.2302 1 21.9524V15.6667C1 15.3889 1.11038 15.1223 1.30684 14.9259C1.50331 14.7295 1.76977 14.6191 2.04762 14.6191H6.2381C6.53143 14.0324 6.71057 13.5714 7.40933 13.5714H9.78114C10.4799 13.5714 10.659 14.0324 10.9524 14.6191H12.5238C12.8016 14.6191 13.0682 14.7295 13.2646 14.9259C13.461 15.1223 13.5714 15.3889 13.5714 15.6667V21.9524Z" fill="#808080"/>
<path d="M12.5238 14.6191H10.9524C10.659 14.0324 10.4799 13.5714 9.78114 13.5714H7.40933C6.71057 13.5714 6.53143 14.0324 6.2381 14.6191H2.04762C1.76977 14.6191 1.50331 14.7295 1.30684 14.9259C1.11038 15.1223 1 15.3889 1 15.6667V18.7718C1 18.494 1.11038 18.2275 1.30684 18.0311C1.50331 17.8346 1.76977 17.7242 2.04762 17.7242H6.2381C6.53143 17.1375 6.71057 16.6766 7.40933 16.6766H9.78114C10.4799 16.6766 10.659 17.1375 10.9524 17.7242H12.5238C12.8016 17.7242 13.0682 17.8346 13.2646 18.0311C13.461 18.2275 13.5714 18.494 13.5714 18.7718V15.6667C13.5714 15.3889 13.461 15.1223 13.2646 14.9259C13.0682 14.7295 12.8016 14.6191 12.5238 14.6191Z" fill="#B2B2B2"/>
<path d="M8.33352 20.9049C9.49069 20.9049 10.4288 19.9668 10.4288 18.8096C10.4288 17.6524 9.49069 16.7144 8.33352 16.7144C7.17635 16.7144 6.23828 17.6524 6.23828 18.8096C6.23828 19.9668 7.17635 20.9049 8.33352 20.9049Z" fill="#66E1FF"/>
<path d="M6.85183 20.2907C6.47016 19.8956 6.25897 19.3663 6.26375 18.8169C6.26852 18.2676 6.48887 17.7421 6.87735 17.3536C7.26582 16.9651 7.79134 16.7448 8.3407 16.7399C8.89007 16.7352 9.41933 16.9464 9.8145 17.3281L6.85183 20.2907Z" fill="#C2F3FF"/>
<path d="M13.5714 21.9524C13.5714 22.2302 13.461 22.4967 13.2646 22.6932C13.0682 22.8896 12.8016 23 12.5238 23H2.04762C1.76977 23 1.50331 22.8896 1.30684 22.6932C1.11038 22.4967 1 22.2302 1 21.9524V15.6667C1 15.3889 1.11038 15.1223 1.30684 14.9259C1.50331 14.7295 1.76977 14.6191 2.04762 14.6191H6.2381C6.53143 14.0324 6.71057 13.5714 7.40933 13.5714H9.78114C10.4799 13.5714 10.659 14.0324 10.9524 14.6191H12.5238C12.8016 14.6191 13.0682 14.7295 13.2646 14.9259C13.461 15.1223 13.5714 15.3889 13.5714 15.6667V21.9524Z" stroke="#191919" stroke-linecap="round" stroke-linejoin="round"/>
<path d="M4.14307 11.4762C4.14307 11.1984 4.25344 10.9319 4.4499 10.7354C4.64637 10.539 4.91284 10.4286 5.19069 10.4286H9.38116C9.6745 9.84193 9.85364 9.38098 10.5524 9.38098H12.9242C13.623 9.38098 13.8021 9.84193 14.0954 10.4286H15.6669C15.9447 10.4286 16.2112 10.539 16.4076 10.7354C16.6041 10.9319 16.7145 11.1984 16.7145 11.4762V17.7619C16.7145 18.0398 16.6041 18.3063 16.4076 18.5027C16.2112 18.6991 15.9447 18.8096 15.6669 18.8096" stroke="#191919" stroke-linecap="round" stroke-linejoin="round"/>
<path d="M7.28564 7.28567C7.28564 7.00782 7.39602 6.74136 7.59248 6.54489C7.78895 6.34843 8.05541 6.23805 8.33326 6.23805H12.5237C12.8171 5.65138 12.9962 5.19043 13.695 5.19043H16.0668C16.7655 5.19043 16.9447 5.65138 17.238 6.23805H18.8095C19.0873 6.23805 19.3538 6.34843 19.5502 6.54489C19.7467 6.74136 19.8571 7.00782 19.8571 7.28567V13.5714C19.8571 13.8492 19.7467 14.1158 19.5502 14.3122C19.3538 14.5086 19.0873 14.619 18.8095 14.619" stroke="#191919" stroke-linecap="round" stroke-linejoin="round"/>
<path d="M10.4287 3.09524C10.4287 2.81739 10.5391 2.55093 10.7356 2.35446C10.932 2.158 11.1985 2.04762 11.4763 2.04762H15.6668C15.9601 1.46095 16.1393 1 16.838 1H19.2099C19.9086 1 20.0878 1.46095 20.3811 2.04762H21.9525C22.2303 2.04762 22.4969 2.158 22.6933 2.35446C22.8897 2.55093 23.0001 2.81739 23.0001 3.09524V9.38095C23.0001 9.6588 22.8897 9.9253 22.6933 10.1217C22.4969 10.3182 22.2303 10.4286 21.9525 10.4286" stroke="#191919" stroke-linecap="round" stroke-linejoin="round"/>
<path d="M8.33352 20.9049C9.49069 20.9049 10.4288 19.9668 10.4288 18.8096C10.4288 17.6524 9.49069 16.7144 8.33352 16.7144C7.17635 16.7144 6.23828 17.6524 6.23828 18.8096C6.23828 19.9668 7.17635 20.9049 8.33352 20.9049Z" stroke="#191919" stroke-linecap="round" stroke-linejoin="round"/>
<path d="M3.0957 13.0476V14.619" stroke="#191919" stroke-linecap="round" stroke-linejoin="round"/>
</g>
<defs>
<clipPath id="clip0_5303_10638">
<rect width="24" height="24" fill="white"/>
</clipPath>
</defs>
</svg>
