<svg width="24" height="24" viewBox="0 0 24 24" fill="none" xmlns="http://www.w3.org/2000/svg">
<g clip-path="url(#clip0_5303_8534)">
<path d="M22.1941 8.6384V18.1863C22.1916 18.3143 22.1638 18.4405 22.1124 18.5578C22.061 18.6751 21.987 18.7811 21.8947 18.8697C21.8023 18.9584 21.6934 19.028 21.5741 19.0746C21.4548 19.1211 21.3276 19.1437 21.1996 19.1411H2.30268C2.17467 19.1437 2.0474 19.1211 1.92814 19.0746C1.80887 19.028 1.69995 18.9584 1.60759 18.8697C1.51523 18.7811 1.44124 18.6751 1.38986 18.5578C1.33847 18.4405 1.31069 18.3143 1.30811 18.1863V4.81924C1.31359 4.5608 1.4214 4.31511 1.60788 4.13609C1.79435 3.95708 2.04424 3.85938 2.30268 3.86445H21.1996C21.4633 3.86445 21.7163 3.96923 21.9028 4.15575C22.0894 4.34227 22.1941 4.59524 22.1941 4.85902V8.6384Z" fill="#66E1FF"/>
<path d="M11.751 14.3671C12.6557 14.3852 13.5305 14.0434 14.1833 13.4168C14.836 12.7901 15.2132 11.93 15.232 11.0253C15.2132 10.1207 14.836 9.2605 14.1833 8.63387C13.5305 8.00724 12.6557 7.66542 11.751 7.68355C10.8464 7.66542 9.97153 8.00724 9.31879 8.63387C8.66605 9.2605 8.28882 10.1207 8.27002 11.0253C8.28882 11.93 8.66605 12.7901 9.31879 13.4168C9.97153 14.0434 10.8464 14.3852 11.751 14.3671Z" fill="white"/>
<path d="M11.751 11.0253L16.2266 6.72876" stroke="#191919" stroke-linecap="round" stroke-linejoin="round"/>
<path d="M16.8094 3.30542C16.6261 3.47955 16.48 3.68899 16.3798 3.92112C16.2796 4.15324 16.2275 4.40324 16.2266 4.65605V6.72874H18.8831C19.4062 6.73073 19.9105 6.52983 20.2904 6.16979L22.6913 3.86437H19.2103V1L16.8094 3.30542Z" fill="#FF808C" stroke="#191919" stroke-linecap="round" stroke-linejoin="round"/>
<path d="M14.735 22.9602H8.76758C9.61742 21.8546 10.1349 20.5299 10.2594 19.1411H13.2432C13.3697 20.5295 13.887 21.8536 14.735 22.9602Z" fill="white" stroke="#191919" stroke-linecap="round" stroke-linejoin="round"/>
<path d="M7.2998 23L16.7234 22.9602" stroke="#191919" stroke-linecap="round" stroke-linejoin="round"/>
<path d="M2.30268 19.141H21.1996C21.458 19.1461 21.7079 19.0484 21.8944 18.8694C22.0808 18.6904 22.1887 18.4447 22.1941 18.1863V16.2767H1.30811V18.1863C1.31359 18.4447 1.4214 18.6904 1.60788 18.8694C1.79435 19.0484 2.04424 19.1461 2.30268 19.141Z" fill="white" stroke="#191919" stroke-linecap="round" stroke-linejoin="round"/>
<path d="M22.1941 8.6384V18.1863C22.1916 18.3143 22.1638 18.4405 22.1124 18.5578C22.061 18.6751 21.987 18.7811 21.8947 18.8697C21.8023 18.9584 21.6934 19.028 21.5741 19.0746C21.4548 19.1211 21.3276 19.1437 21.1996 19.1411H2.30268C2.17467 19.1437 2.0474 19.1211 1.92814 19.0746C1.80887 19.028 1.69995 18.9584 1.60759 18.8697C1.51523 18.7811 1.44124 18.6751 1.38986 18.5578C1.33847 18.4405 1.31069 18.3143 1.30811 18.1863V4.81924C1.31359 4.5608 1.4214 4.31511 1.60788 4.13609C1.79435 3.95708 2.04424 3.85938 2.30268 3.86445H12.1649" stroke="#191919" stroke-linecap="round" stroke-linejoin="round"/>
</g>
<defs>
<clipPath id="clip0_5303_8534">
<rect width="24" height="24" fill="white"/>
</clipPath>
</defs>
</svg>
