<svg width="24" height="24" viewBox="0 0 24 24" fill="none" xmlns="http://www.w3.org/2000/svg">
<path d="M21.0897 3.86411C21.0897 3.61035 20.9889 3.36698 20.8095 3.18755C20.6301 3.00812 20.3867 2.90731 20.1329 2.90731H14.9203C14.6718 2.34023 14.2635 1.85785 13.7452 1.51912C13.227 1.18039 12.6212 1 12.0021 1C11.383 1 10.7772 1.18039 10.259 1.51912C9.74073 1.85785 9.33239 2.34023 9.08388 2.90731H3.86744C3.61368 2.90731 3.37032 3.00812 3.19088 3.18755C3.01145 3.36698 2.91064 3.61035 2.91064 3.86411V22.0432C2.91064 22.297 3.01145 22.5403 3.19088 22.7198C3.37032 22.8992 3.61368 23 3.86744 23H20.1329C20.3867 23 20.6301 22.8992 20.8095 22.7198C20.9889 22.5403 21.0897 22.297 21.0897 22.0432V3.86411Z" fill="#C77F67" stroke="#191919" stroke-linecap="round" stroke-linejoin="round"/>
<path d="M5.78125 20.1296H14.4689C14.7452 20.1295 15.0181 20.0696 15.269 19.954C15.5199 19.8384 15.7428 19.6698 15.9223 19.4599L17.7584 17.3176C18.055 16.9713 18.2177 16.5302 18.2196 16.0738V5.77771H5.78125V20.1296Z" fill="#E3E3E3"/>
<path d="M5.78125 18.2035L18.2091 5.77478H5.78125V18.2035Z" fill="white"/>
<path d="M5.78125 20.1296H14.4689C14.7452 20.1295 15.0181 20.0696 15.269 19.954C15.5199 19.8384 15.7428 19.6698 15.9223 19.4599L17.7584 17.3176C18.055 16.9713 18.2177 16.5302 18.2196 16.0738V5.77771H5.78125V20.1296Z" stroke="#191919" stroke-linecap="round" stroke-linejoin="round"/>
<path d="M15.3495 8.64807H11.0439" stroke="#191919" stroke-linecap="round" stroke-linejoin="round"/>
<path d="M8.65137 8.64807H9.12976" stroke="#191919" stroke-linecap="round" stroke-linejoin="round"/>
<path d="M15.3495 12.4752H11.0439" stroke="#191919" stroke-linecap="round" stroke-linejoin="round"/>
<path d="M8.65137 12.4752H9.12976" stroke="#191919" stroke-linecap="round" stroke-linejoin="round"/>
<path d="M13.9143 16.3024H11.0439" stroke="#191919" stroke-linecap="round" stroke-linejoin="round"/>
<path d="M8.65137 16.3024H9.12976" stroke="#191919" stroke-linecap="round" stroke-linejoin="round"/>
</svg>
