<svg width="24" height="24" viewBox="0 0 24 24" fill="none" xmlns="http://www.w3.org/2000/svg">
<path d="M22.2414 19.3719C22.0269 19.1574 21.8568 18.9029 21.7408 18.6227C21.6248 18.3426 21.5651 18.0423 21.5651 17.7391V15.8261C21.5651 15.5228 21.5054 15.2226 21.3894 14.9424C21.2734 14.6623 21.1033 14.4077 20.8888 14.1933L16.7825 10.0869L16.771 15.3478C16.772 15.4737 16.7979 15.5982 16.8471 15.714C16.8964 15.83 16.968 15.935 17.058 16.0231L18.6955 17.6549V19.6521C18.6958 20.2648 18.939 20.8523 19.3718 21.2859L21.0868 23L22.5216 19.6521L22.2414 19.3719Z" fill="#FFDDA1"/>
<path d="M22.5223 19.6521L22.2421 19.3719C22.0275 19.1576 21.8573 18.9031 21.7412 18.6228C21.6252 18.3427 21.5656 18.0423 21.5658 17.7391V15.8261C21.5658 15.5228 21.5061 15.2226 21.3901 14.9424C21.2741 14.6623 21.104 14.4077 20.8896 14.1933L16.7832 10.0869" stroke="#191919" stroke-linecap="round" stroke-linejoin="round"/>
<path d="M14.8699 3.86945H4.34811C3.29156 3.86945 2.43506 4.72595 2.43506 5.78249V19.1738C2.43506 20.2304 3.29156 21.0869 4.34811 21.0869H14.8699C15.9264 21.0869 16.7829 20.2304 16.7829 19.1738V5.78249C16.7829 4.72595 15.9264 3.86945 14.8699 3.86945Z" fill="#C77F67"/>
<path d="M16.2798 4.49884C16.1019 4.30112 15.8844 4.14293 15.6416 4.03452C15.3987 3.9261 15.1359 3.86987 14.8699 3.86945H4.34811C3.84074 3.86945 3.35414 4.07099 2.99538 4.42977C2.63661 4.78853 2.43506 5.27512 2.43506 5.78249V18.3436L16.2798 4.49884Z" fill="#E3BFB3"/>
<path d="M16.7831 18.2173V19.1738C16.7831 19.6811 16.5816 20.1677 16.2228 20.5265C15.864 20.8853 15.3774 21.0869 14.8701 21.0869H13.9136" stroke="#191919" stroke-linecap="round" stroke-linejoin="round"/>
<path d="M2.43506 15.3477V5.78249C2.43506 5.27512 2.63661 4.78853 2.99538 4.42977C3.35414 4.07099 3.84074 3.86945 4.34811 3.86945H6.26115" stroke="#191919" stroke-linecap="round" stroke-linejoin="round"/>
<path d="M12.9565 3.86945H14.8696C15.3769 3.86945 15.8635 4.07099 16.2223 4.42977C16.5811 4.78853 16.7826 5.27512 16.7826 5.78249V12.4782" stroke="#191919" stroke-linecap="round" stroke-linejoin="round"/>
<path d="M11.2653 1.95644C11.0974 1.66564 10.8559 1.42416 10.5651 1.25627C10.2742 1.08839 9.94437 1 9.60857 1C9.27278 1 8.9429 1.08839 8.65209 1.25627C8.36129 1.42416 8.11978 1.66564 7.95188 1.95644H7.21727C6.96358 1.95644 6.72028 2.05721 6.5409 2.2366C6.36152 2.41598 6.26074 2.65928 6.26074 2.91296V4.82601C6.26074 5.07969 6.36152 5.32299 6.5409 5.50237C6.72028 5.68176 6.96358 5.78253 7.21727 5.78253H11.9999C12.2536 5.78253 12.4969 5.68176 12.6762 5.50237C12.8556 5.32299 12.9564 5.07969 12.9564 4.82601V2.91296C12.9564 2.65928 12.8556 2.41598 12.6762 2.2366C12.4969 2.05721 12.2536 1.95644 11.9999 1.95644H11.2653Z" fill="#E3E3E3"/>
<path d="M11.9999 3.86955H7.21727C6.96358 3.86955 6.72028 3.76878 6.5409 3.5894C6.36152 3.41002 6.26074 3.16671 6.26074 2.91302V4.82607C6.26074 5.07976 6.36152 5.32306 6.5409 5.50244C6.72028 5.68182 6.96358 5.7826 7.21727 5.7826H11.9999C12.2536 5.7826 12.4969 5.68182 12.6762 5.50244C12.8556 5.32306 12.9564 5.07976 12.9564 4.82607V2.91302C12.9564 3.16671 12.8556 3.41002 12.6762 3.5894C12.4969 3.76878 12.2536 3.86955 11.9999 3.86955Z" fill="#B2B2B2"/>
<path d="M11.2653 1.95644C11.0974 1.66564 10.8559 1.42416 10.5651 1.25627C10.2742 1.08839 9.94437 1 9.60857 1C9.27278 1 8.9429 1.08839 8.65209 1.25627C8.36129 1.42416 8.11978 1.66564 7.95188 1.95644H7.21727C6.96358 1.95644 6.72028 2.05721 6.5409 2.2366C6.36152 2.41598 6.26074 2.65928 6.26074 2.91296V4.82601C6.26074 5.07969 6.36152 5.32299 6.5409 5.50237C6.72028 5.68176 6.96358 5.78253 7.21727 5.78253H11.9999C12.2536 5.78253 12.4969 5.68176 12.6762 5.50237C12.8556 5.32299 12.9564 5.07969 12.9564 4.82601V2.91296C12.9564 2.65928 12.8556 2.41598 12.6762 2.2366C12.4969 2.05721 12.2536 1.95644 11.9999 1.95644H11.2653Z" stroke="#191919" stroke-linecap="round" stroke-linejoin="round"/>
<path d="M1.47803 23V20.448C1.47829 19.6026 1.81428 18.792 2.41214 18.1943C3.01 17.5966 3.82075 17.2609 4.66612 17.2609H6.26064V12.9565C6.26064 12.576 6.41181 12.211 6.68088 11.9419C6.94995 11.6729 7.3149 11.5217 7.69543 11.5217C8.07595 11.5217 8.44091 11.6729 8.70998 11.9419C8.97905 12.211 9.13021 12.576 9.13021 12.9565V19.6522L10.3632 18.6201C10.5661 18.3763 10.8576 18.2231 11.1735 18.1942C11.4894 18.1654 11.8038 18.2631 12.0476 18.4661C12.2914 18.6691 12.4446 18.9605 12.4735 19.2765C12.5023 19.5923 12.4046 19.9067 12.2016 20.1505L9.83039 23" fill="#FFDDA1"/>
<path d="M1.47803 23V20.448C1.47829 19.6026 1.81428 18.792 2.41214 18.1943C3.01 17.5966 3.82075 17.2609 4.66612 17.2609H6.26064V12.9565C6.26064 12.576 6.41181 12.211 6.68088 11.9419C6.94995 11.6729 7.3149 11.5217 7.69543 11.5217C8.07595 11.5217 8.44091 11.6729 8.70998 11.9419C8.97905 12.211 9.13021 12.576 9.13021 12.9565V19.6522L10.3632 18.6201C10.5661 18.3763 10.8576 18.2231 11.1735 18.1942C11.4894 18.1654 11.8038 18.2631 12.0476 18.4661C12.2914 18.6691 12.4446 18.9605 12.4735 19.2765C12.5023 19.5923 12.4046 19.9067 12.2016 20.1505L9.83039 23" stroke="#191919" stroke-linecap="round" stroke-linejoin="round"/>
<path d="M19.8504 16.1054L18.4156 14.6706C18.3273 14.5792 18.2218 14.5063 18.1051 14.4562C17.9884 14.4061 17.8629 14.3797 17.7359 14.3786C17.6088 14.3775 17.4829 14.4017 17.3653 14.4498C17.2478 14.4979 17.141 14.5689 17.0512 14.6587C16.9614 14.7485 16.8903 14.8554 16.8423 14.9729C16.7942 15.0905 16.77 15.2164 16.771 15.3434C16.7722 15.4704 16.7986 15.5959 16.8487 15.7126C16.8988 15.8293 16.9717 15.9349 17.0631 16.0231L18.6958 17.6549V19.6521C18.696 20.2648 18.9393 20.8523 19.3721 21.2859L21.0871 23" stroke="#191919" stroke-linecap="round" stroke-linejoin="round"/>
</svg>
