<svg width="24" height="24" viewBox="0 0 24 24" fill="none" xmlns="http://www.w3.org/2000/svg">
<path d="M8.33301 3.40952L9.24653 1.31429C9.28728 1.22092 9.35438 1.14145 9.4396 1.08563C9.52482 1.02981 9.62447 1.00005 9.72634 1H14.2782C14.3801 1.00005 14.4798 1.02981 14.565 1.08563C14.6502 1.14145 14.7173 1.22092 14.7581 1.31429L15.6716 3.40952H8.33301Z" fill="#FFBC44" stroke="#191919" stroke-linecap="round" stroke-linejoin="round"/>
<path d="M20.381 12.5238L19.9798 6.23807C19.9798 2.0476 4.02038 2.0476 4.02038 6.23807L3.61914 12.5238H20.381Z" fill="#66E1FF"/>
<path d="M15.3986 3.36348C10.6822 2.57148 4.02038 3.5311 4.02038 6.23814L3.61914 12.5238H6.23819L15.3986 3.36348Z" fill="#C2F3FF"/>
<path d="M20.3806 12.5239C17.8293 11.0766 14.9318 10.3522 11.9996 10.4287C9.0674 10.3517 6.16972 11.0761 3.61868 12.5239C3.06298 12.5239 2.53005 12.7447 2.13712 13.1376C1.74419 13.5305 1.52344 14.0635 1.52344 14.6191V20.3811C1.52344 20.52 1.57862 20.6532 1.67686 20.7514C1.77509 20.8497 1.90832 20.9049 2.04725 20.9049H21.952C22.0909 20.9049 22.2242 20.8497 22.3224 20.7514C22.4206 20.6532 22.4758 20.52 22.4758 20.3811V14.6191C22.4758 14.0635 22.2551 13.5305 21.8621 13.1376C21.4692 12.7447 20.9363 12.5239 20.3806 12.5239Z" fill="#FFEF5E"/>
<path d="M20.3809 12.5238H18.2857C17.73 12.5238 17.197 12.7446 16.8041 13.1375C16.4112 13.5304 16.1904 14.0634 16.1904 14.619V16.7143C16.1904 16.1586 16.4112 15.6257 16.8041 15.2327C17.197 14.8398 17.73 14.619 18.2857 14.619H20.3809C20.9366 14.619 21.4695 14.8398 21.8625 15.2327C22.2554 15.6257 22.4761 16.1586 22.4761 16.7143V14.619C22.4761 14.0634 22.2554 13.5304 21.8625 13.1375C21.4695 12.7446 20.9366 12.5238 20.3809 12.5238Z" fill="#FFF9BF"/>
<path d="M5.71391 12.5238H3.61868C3.06298 12.5238 2.53005 12.7446 2.13712 13.1375C1.74419 13.5304 1.52344 14.0634 1.52344 14.619V16.7143C1.52344 16.1586 1.74419 15.6257 2.13712 15.2327C2.53005 14.8398 3.06298 14.619 3.61868 14.619H5.71391C6.26961 14.619 6.80254 14.8398 7.19547 15.2327C7.5884 15.6257 7.80915 16.1586 7.80915 16.7143V14.619C7.80915 14.0634 7.5884 13.5304 7.19547 13.1375C6.80254 12.7446 6.26961 12.5238 5.71391 12.5238Z" fill="#FFF9BF"/>
<path d="M18.2858 12.5239H20.381C17.8298 11.0766 14.9323 10.3522 12.0001 10.4287C9.06786 10.3517 6.17019 11.0761 3.61914 12.5239H5.71438C5.991 12.524 6.26488 12.5788 6.52021 12.6852C6.77553 12.7917 7.00725 12.9476 7.202 13.1441C10.347 12.3165 13.6532 12.3165 16.7982 13.1441C16.9929 12.9476 17.2247 12.7917 17.48 12.6852C17.7353 12.5788 18.0092 12.524 18.2858 12.5239Z" fill="#FFF9BF"/>
<path d="M20.381 12.5238L19.9798 6.23807C19.9798 2.0476 4.02038 2.0476 4.02038 6.23807L3.61914 12.5238" stroke="#191919" stroke-linecap="round" stroke-linejoin="round"/>
<path d="M21.428 20.9048V22.4762C21.428 22.6151 21.3728 22.7483 21.2746 22.8466C21.1764 22.9448 21.0431 23 20.9042 23H18.809C18.67 23 18.5368 22.9448 18.4386 22.8466C18.3403 22.7483 18.2852 22.6151 18.2852 22.4762V20.9048H21.428Z" fill="#808080" stroke="#191919" stroke-linecap="round" stroke-linejoin="round"/>
<path d="M5.71415 20.9048V22.4762C5.71415 22.6151 5.65896 22.7483 5.56073 22.8466C5.46249 22.9448 5.32926 23 5.19034 23H3.0951C2.95618 23 2.82294 22.9448 2.72471 22.8466C2.62648 22.7483 2.57129 22.6151 2.57129 22.4762V20.9048H5.71415Z" fill="#808080" stroke="#191919" stroke-linecap="round" stroke-linejoin="round"/>
<path d="M16.1905 17.7619C16.1905 14.9679 7.80957 14.9679 7.80957 17.7619V20.9048H16.1905V17.7619Z" fill="#B2B2B2"/>
<path d="M7.80957 17.7619V19.3333C7.80957 16.5393 16.1905 16.5393 16.1905 19.3333V17.7619C16.1905 14.9679 7.80957 14.9679 7.80957 17.7619Z" fill="#808080"/>
<path d="M16.1905 17.7619C16.1905 14.9679 7.80957 14.9679 7.80957 17.7619V20.9048H16.1905V17.7619Z" stroke="#191919" stroke-linecap="round" stroke-linejoin="round"/>
<path d="M16.1904 14.619C16.1904 14.0634 16.4112 13.5304 16.8041 13.1375C17.197 12.7446 17.73 12.5238 18.2857 12.5238H20.3809C20.9366 12.5238 21.4695 12.7446 21.8625 13.1375C22.2554 13.5304 22.4761 14.0634 22.4761 14.619V20.381C22.4761 20.5199 22.421 20.6531 22.3227 20.7513C22.2245 20.8496 22.0913 20.9048 21.9523 20.9048H16.1904V14.619Z" stroke="#191919" stroke-linecap="round" stroke-linejoin="round"/>
<path d="M1.52344 14.619C1.52344 14.0634 1.74419 13.5304 2.13712 13.1375C2.53005 12.7446 3.06298 12.5238 3.61868 12.5238H5.71391C6.26961 12.5238 6.80254 12.7446 7.19547 13.1375C7.5884 13.5304 7.80915 14.0634 7.80915 14.619V20.9048H2.04725C1.90832 20.9048 1.77509 20.8496 1.67686 20.7513C1.57862 20.6531 1.52344 20.5199 1.52344 20.381V14.619Z" stroke="#191919" stroke-linecap="round" stroke-linejoin="round"/>
<path d="M19.3331 17.7619C19.7499 17.7619 20.1496 17.5963 20.4443 17.3016C20.739 17.0069 20.9046 16.6072 20.9046 16.1905C20.9046 15.7737 20.739 15.374 20.4443 15.0793C20.1496 14.7846 19.7499 14.619 19.3331 14.619C18.9164 14.619 18.5167 14.7846 18.222 15.0793C17.9273 15.374 17.7617 15.7737 17.7617 16.1905C17.7617 16.6072 17.9273 17.0069 18.222 17.3016C18.5167 17.5963 18.9164 17.7619 19.3331 17.7619Z" fill="#66E1FF" stroke="#191919" stroke-linecap="round" stroke-linejoin="round"/>
<path d="M4.66616 17.7619C5.08292 17.7619 5.48262 17.5963 5.77732 17.3016C6.07202 17.0069 6.23758 16.6072 6.23758 16.1905C6.23758 15.7737 6.07202 15.374 5.77732 15.0793C5.48262 14.7846 5.08292 14.619 4.66616 14.619C4.24939 14.619 3.84969 14.7846 3.55499 15.0793C3.26029 15.374 3.09473 15.7737 3.09473 16.1905C3.09473 16.6072 3.26029 17.0069 3.55499 17.3016C3.84969 17.5963 4.24939 17.7619 4.66616 17.7619Z" fill="#66E1FF" stroke="#191919" stroke-linecap="round" stroke-linejoin="round"/>
<path d="M9.9043 20.9047V18.2856" stroke="#191919" stroke-linecap="round" stroke-linejoin="round"/>
<path d="M12 20.9047V18.2856" stroke="#191919" stroke-linecap="round" stroke-linejoin="round"/>
<path d="M14.0947 20.9047V18.2856" stroke="#191919" stroke-linecap="round" stroke-linejoin="round"/>
<path d="M20.381 12.5239C17.8298 11.0766 14.9323 10.3522 12.0001 10.4287C9.06786 10.3517 6.17019 11.0761 3.61914 12.5239" stroke="#191919" stroke-linecap="round" stroke-linejoin="round"/>
</svg>
