<svg width="24" height="24" viewBox="0 0 24 24" fill="none" xmlns="http://www.w3.org/2000/svg">
<g clip-path="url(#clip0_5303_11408)">
<path d="M17.4813 19.1715C17.5582 19.1716 17.634 19.1531 17.7023 19.1177C17.7705 19.0822 17.8292 19.0308 17.8734 18.9678C18.6256 17.893 19.0687 16.6324 19.1543 15.3233C19.2399 14.0142 18.9648 12.7067 18.3589 11.5431C17.753 10.3794 16.8395 9.40426 15.7179 8.72373C14.5963 8.0432 13.3095 7.68335 11.9976 7.68335C10.6857 7.68335 9.39893 8.0432 8.27732 8.72373C7.15572 9.40426 6.24226 10.3794 5.63637 11.5431C5.03048 12.7067 4.75536 14.0142 4.84097 15.3233C4.92658 16.6324 5.36963 17.893 6.1219 18.9678C6.16605 19.0308 6.22474 19.0822 6.29299 19.1177C6.36125 19.1531 6.43705 19.1716 6.51396 19.1715H17.4813Z" fill="#FFBFC5"/>
<path d="M11.9972 16.3026C10.6599 16.303 9.34092 15.9909 8.14554 15.3912C6.95016 14.7916 5.91143 13.9209 5.11217 12.8486C4.8113 13.8791 4.74558 14.9639 4.91985 16.0231C5.09413 17.0824 5.50396 18.089 6.11911 18.9687C6.16321 19.0317 6.22189 19.0832 6.29015 19.1186C6.35842 19.1541 6.43425 19.1725 6.51118 19.1724H17.4814C17.5583 19.1725 17.6341 19.154 17.7024 19.1185C17.7706 19.0831 17.8293 19.0317 17.8735 18.9687C18.489 18.0891 18.8989 17.0825 19.073 16.0232C19.2472 14.9638 19.181 13.8789 18.8794 12.8486C18.0804 13.9204 17.0421 14.7908 15.8473 15.3905C14.6525 15.9902 13.3341 16.3025 11.9972 16.3026Z" fill="#FF808C"/>
<path d="M17.4813 19.1715C17.5582 19.1716 17.634 19.1531 17.7023 19.1177C17.7705 19.0822 17.8292 19.0308 17.8734 18.9678C18.6256 17.893 19.0687 16.6324 19.1543 15.3233C19.2399 14.0142 18.9648 12.7067 18.3589 11.5431C17.753 10.3794 16.8395 9.40426 15.7179 8.72373C14.5963 8.0432 13.3095 7.68335 11.9976 7.68335C10.6857 7.68335 9.39893 8.0432 8.27732 8.72373C7.15572 9.40426 6.24226 10.3794 5.63637 11.5431C5.03048 12.7067 4.75536 14.0142 4.84097 15.3233C4.92658 16.6324 5.36963 17.893 6.1219 18.9678C6.16605 19.0308 6.22474 19.0822 6.29299 19.1177C6.36125 19.1531 6.43705 19.1716 6.51396 19.1715H17.4813Z" stroke="#191919" stroke-linecap="round" stroke-linejoin="round"/>
<path d="M4.82504 14.8683C4.06419 14.8683 3.33451 14.5661 2.79651 14.0281C2.2585 13.4901 1.95626 12.7604 1.95626 11.9995V10.5651C1.95626 10.4396 1.93153 10.3152 1.88347 10.1992C1.83541 10.0832 1.76497 9.97777 1.67618 9.88897C1.58738 9.80017 1.48196 9.72973 1.36594 9.68168C1.24993 9.63362 1.12558 9.60889 1 9.60889" stroke="#191919" stroke-linecap="round" stroke-linejoin="round"/>
<path d="M18.9726 16.537C19.4353 16.7413 19.9437 16.8196 20.4464 16.7641C20.9491 16.7085 21.4282 16.5211 21.8351 16.2207C22.242 15.9204 22.5623 15.5178 22.7634 15.0538C22.9646 14.5898 23.0396 14.0809 22.9807 13.5785C22.9218 13.0762 22.7311 12.5984 22.428 12.1935C22.125 11.7887 21.7203 11.4711 21.2549 11.273C20.7896 11.075 20.2801 11.0034 19.7782 11.0657C19.2763 11.1279 18.7998 11.3218 18.397 11.6275" stroke="#191919" stroke-linecap="round" stroke-linejoin="round"/>
<path d="M6.25977 10.5651H17.7349" stroke="#191919" stroke-linecap="round" stroke-linejoin="round"/>
<path d="M11.9969 7.69641C12.1853 7.69641 12.3718 7.65931 12.5458 7.58723C12.7198 7.51514 12.878 7.40949 13.0112 7.27629C13.1444 7.1431 13.25 6.98497 13.3221 6.81094C13.3942 6.63691 13.4313 6.45039 13.4313 6.26202C13.4313 6.07366 13.3942 5.88714 13.3221 5.71311C13.25 5.53908 13.1444 5.38095 13.0112 5.24776C12.878 5.11456 12.7198 5.00891 12.5458 4.93682C12.3718 4.86474 12.1853 4.82764 11.9969 4.82764C11.6165 4.82764 11.2516 4.97876 10.9826 5.24776C10.7136 5.51676 10.5625 5.8816 10.5625 6.26202C10.5625 6.64245 10.7136 7.00729 10.9826 7.27629C11.2516 7.54529 11.6165 7.69641 11.9969 7.69641Z" fill="#FFBFC5" stroke="#191919" stroke-linecap="round" stroke-linejoin="round"/>
</g>
<defs>
<clipPath id="clip0_5303_11408">
<rect width="24" height="24" fill="white"/>
</clipPath>
</defs>
</svg>
