<svg width="24" height="24" viewBox="0 0 24 24" fill="none" xmlns="http://www.w3.org/2000/svg">
<g clip-path="url(#clip0_5303_10204)">
<path d="M12.0001 17.7391C15.4339 17.7391 18.2175 14.9555 18.2175 11.5217C18.2175 8.08794 15.4339 5.30432 12.0001 5.30432C8.56634 5.30432 5.78271 8.08794 5.78271 11.5217C5.78271 14.9555 8.56634 17.7391 12.0001 17.7391Z" fill="#EABFFF"/>
<path d="M12.0003 5.30435C12.426 5.30435 12.8421 5.17813 13.196 4.94165C13.5499 4.70516 13.8257 4.36903 13.9886 3.97578C14.1515 3.58251 14.1942 3.14979 14.1112 2.73231C14.0281 2.31483 13.8232 1.93135 13.5221 1.63036C13.2211 1.32937 12.8377 1.1244 12.4202 1.04135C12.0027 0.958314 11.57 1.00093 11.1768 1.16383C10.7834 1.32672 10.4473 1.60257 10.2109 1.95649C9.97437 2.31042 9.84814 2.72651 9.84814 3.15217C9.84814 3.72297 10.0749 4.27038 10.4785 4.67399C10.8821 5.07761 11.4296 5.30435 12.0003 5.30435Z" fill="#FFDDA1" stroke="#191919" stroke-linecap="round" stroke-linejoin="round"/>
<path d="M16.3045 9.60871C16.0606 8.65225 15.505 7.80425 14.7257 7.19862C13.9462 6.593 12.9872 6.26422 12.0001 6.26422C11.0131 6.26422 10.0541 6.593 9.27466 7.19862C8.49522 7.80425 7.93969 8.65225 7.6958 9.60871H16.3045Z" fill="#66E1FF" stroke="#191919" stroke-linecap="round" stroke-linejoin="round"/>
<path d="M5.30501 18.6957C5.73067 18.6957 6.14677 18.5695 6.50069 18.333C6.85461 18.0966 7.13046 17.7604 7.29336 17.3671C7.45625 16.9739 7.49887 16.5412 7.41583 16.1236C7.33278 15.7062 7.12781 15.3227 6.82682 15.0217C6.52583 14.7207 6.14236 14.5158 5.72487 14.4327C5.3074 14.3497 4.87467 14.3923 4.4814 14.5552C4.08815 14.7181 3.75203 14.994 3.51554 15.3479C3.27905 15.7018 3.15283 16.1179 3.15283 16.5435C3.15283 16.8262 3.2085 17.1061 3.31666 17.3671C3.42481 17.6282 3.58334 17.8656 3.78319 18.0654C3.98304 18.2652 4.22029 18.4238 4.4814 18.5319C4.74251 18.64 5.02238 18.6957 5.30501 18.6957Z" fill="#FFDDA1" stroke="#191919" stroke-linecap="round" stroke-linejoin="round"/>
<path d="M9.60919 23C9.36529 22.0436 8.80976 21.1955 8.03032 20.5899C7.25087 19.9843 6.29191 19.6555 5.30484 19.6555C4.31776 19.6555 3.3588 19.9843 2.57935 20.5899C1.79991 21.1955 1.24439 22.0436 1.00049 23H9.60919Z" fill="#66E1FF" stroke="#191919" stroke-linecap="round" stroke-linejoin="round"/>
<path d="M18.6956 18.6957C19.1213 18.6957 19.5374 18.5695 19.8913 18.333C20.2452 18.0966 20.5211 17.7604 20.684 17.3671C20.8468 16.9739 20.8895 16.5412 20.8065 16.1236C20.7234 15.7062 20.5185 15.3227 20.2175 15.0217C19.9164 14.7207 19.533 14.5158 19.1155 14.4327C18.698 14.3497 18.2653 14.3923 17.8721 14.5552C17.4787 14.7181 17.1426 14.994 16.9062 15.3479C16.6697 15.7018 16.5435 16.1179 16.5435 16.5435C16.5435 16.8262 16.5991 17.1061 16.7073 17.3671C16.8154 17.6282 16.974 17.8656 17.1738 18.0654C17.3736 18.2652 17.6109 18.4238 17.8721 18.5319C18.1331 18.64 18.413 18.6957 18.6956 18.6957Z" fill="#FFDDA1" stroke="#191919" stroke-linecap="round" stroke-linejoin="round"/>
<path d="M22.9998 23C22.7559 22.0436 22.2004 21.1955 21.421 20.5899C20.6415 19.9843 19.6825 19.6555 18.6955 19.6555C17.7084 19.6555 16.7494 19.9843 15.9699 20.5899C15.1906 21.1955 14.635 22.0436 14.3911 23H22.9998Z" fill="#66E1FF" stroke="#191919" stroke-linecap="round" stroke-linejoin="round"/>
<path d="M14.87 18.6172C13.029 19.3595 10.9719 19.3595 9.13086 18.6172" stroke="#191919" stroke-linecap="round" stroke-linejoin="round"/>
<path d="M16.3047 5.19537C17.4698 5.98931 18.3933 7.08928 18.9735 8.37425C19.5537 9.65921 19.7682 11.0793 19.5932 12.4783" stroke="#191919" stroke-linecap="round" stroke-linejoin="round"/>
<path d="M7.69538 5.19537C6.53028 5.98931 5.60681 7.08928 5.0266 8.37425C4.44639 9.65921 4.23194 11.0793 4.40686 12.4783" stroke="#191919" stroke-linecap="round" stroke-linejoin="round"/>
</g>
<defs>
<clipPath id="clip0_5303_10204">
<rect width="24" height="24" fill="white"/>
</clipPath>
</defs>
</svg>
