<svg width="24" height="24" viewBox="0 0 24 24" fill="none" xmlns="http://www.w3.org/2000/svg">
<mask id="mask0_5303_10383" style="mask-type:luminance" maskUnits="userSpaceOnUse" x="1" y="1" width="22" height="22">
<path d="M1 1H23V23H1V1Z" fill="white"/>
</mask>
<g mask="url(#mask0_5303_10383)">
<path d="M12.4582 14.2916C12.2151 14.2916 11.9819 14.3882 11.81 14.5601C11.6381 14.732 11.5415 14.9652 11.5415 15.2083V19.7916C11.5415 20.0347 11.6381 20.2679 11.81 20.4398C11.9819 20.6117 12.2151 20.7083 12.4582 20.7083H13.8332V22.5416L16.1248 20.7083H21.6248C21.868 20.7083 22.1011 20.6117 22.273 20.4398C22.4449 20.2679 22.5415 20.0347 22.5415 19.7916V15.2083C22.5415 14.9652 22.4449 14.732 22.273 14.5601C22.1011 14.3882 21.868 14.2916 21.6248 14.2916H12.4582Z" fill="#FF808C"/>
<path d="M11.5418 1.45831C11.7849 1.45831 12.0181 1.55489 12.19 1.7268C12.3619 1.89871 12.4585 2.13186 12.4585 2.37498V6.95831C12.4585 7.20143 12.3619 7.43459 12.19 7.60649C12.0181 7.7784 11.7849 7.87498 11.5418 7.87498H10.1668V10.1666L7.87516 7.87498H2.37516C2.13205 7.87498 1.89889 7.7784 1.72698 7.60649C1.55507 7.43459 1.4585 7.20143 1.4585 6.95831V2.37498C1.4585 2.13186 1.55507 1.89871 1.72698 1.7268C1.89889 1.55489 2.13205 1.45831 2.37516 1.45831H11.5418Z" fill="#FFEF5E"/>
<path d="M2.37516 1.45831C2.13205 1.45831 1.89889 1.55489 1.72698 1.7268C1.55507 1.89871 1.4585 2.13186 1.4585 2.37498V6.95831C1.4585 7.20143 1.55507 7.43459 1.72698 7.60649C1.89889 7.7784 2.13205 7.87498 2.37516 7.87498H2.96366L9.38033 1.45831H2.37516Z" fill="#FFF9BF"/>
<path d="M12.4582 14.2916C12.2151 14.2916 11.9819 14.3882 11.81 14.5601C11.6381 14.732 11.5415 14.9652 11.5415 15.2083V19.7916C11.5415 20.0347 11.6381 20.2679 11.81 20.4398C11.9819 20.6117 12.2151 20.7083 12.4582 20.7083H13.0467L19.4633 14.2916H12.4582Z" fill="#FFBFC5"/>
<path d="M12.4582 14.2916C12.2151 14.2916 11.9819 14.3882 11.81 14.5601C11.6381 14.732 11.5415 14.9652 11.5415 15.2083V19.7916C11.5415 20.0347 11.6381 20.2679 11.81 20.4398C11.9819 20.6117 12.2151 20.7083 12.4582 20.7083H13.8332V22.5416L16.1248 20.7083H21.6248C21.868 20.7083 22.1011 20.6117 22.273 20.4398C22.4449 20.2679 22.5415 20.0347 22.5415 19.7916V15.2083C22.5415 14.9652 22.4449 14.732 22.273 14.5601C22.1011 14.3882 21.868 14.2916 21.6248 14.2916H12.4582Z" stroke="#191919" stroke-linecap="round" stroke-linejoin="round"/>
<path d="M11.5418 1.45831C11.7849 1.45831 12.0181 1.55489 12.19 1.7268C12.3619 1.89871 12.4585 2.13186 12.4585 2.37498V6.95831C12.4585 7.20143 12.3619 7.43459 12.19 7.60649C12.0181 7.7784 11.7849 7.87498 11.5418 7.87498H10.1668V10.1666L7.87516 7.87498H2.37516C2.13205 7.87498 1.89889 7.7784 1.72698 7.60649C1.55507 7.43459 1.4585 7.20143 1.4585 6.95831V2.37498C1.4585 2.13186 1.55507 1.89871 1.72698 1.7268C1.89889 1.55489 2.13205 1.45831 2.37516 1.45831H11.5418Z" stroke="#191919" stroke-linecap="round" stroke-linejoin="round"/>
<path d="M13.375 16.125H20.25" stroke="#191919" stroke-linecap="round" stroke-linejoin="round"/>
<path d="M13.375 17.9583H17.9583" stroke="#191919" stroke-linecap="round" stroke-linejoin="round"/>
<path d="M14.2921 12.4583C14.2708 11.9109 14.3629 11.365 14.5627 10.8549C14.7625 10.3448 15.0656 9.88157 15.4529 9.49421C15.8403 9.10684 16.3036 8.80375 16.8137 8.60398C17.3238 8.4042 17.8697 8.31205 18.4171 8.33332C18.9645 8.31205 19.5103 8.4042 20.0204 8.60398C20.5305 8.80375 20.9938 9.10684 21.3812 9.49421C21.7685 9.88157 22.0716 10.3448 22.2714 10.8549C22.4712 11.365 22.5633 11.9109 22.5421 12.4583H14.2921Z" fill="#66E1FF" stroke="#191919" stroke-linecap="round" stroke-linejoin="round"/>
<path d="M21.1413 3.8233C20.6566 4.0824 20.1142 4.21483 19.5646 4.2083C18.9189 4.20853 18.286 4.02734 17.7382 3.68537C17.1904 3.3434 16.7497 2.85441 16.4663 2.27413C16.8267 1.91078 17.2814 1.65521 17.7791 1.53617C18.2769 1.41714 18.798 1.43936 19.2838 1.60034C19.7696 1.76133 20.2008 2.05468 20.529 2.4474C20.8571 2.84012 21.0692 3.31662 21.1413 3.8233Z" fill="#C77F67" stroke="#191919" stroke-linecap="round" stroke-linejoin="round"/>
<path d="M21.1665 4.20828C21.1669 4.66014 21.0559 5.10514 20.8434 5.50392C20.6309 5.9027 20.3234 6.24297 19.9482 6.49464C19.5729 6.74631 19.1413 6.90163 18.6917 6.94685C18.2421 6.99208 17.7883 6.92582 17.3704 6.75394C16.9525 6.58205 16.5834 6.30984 16.2958 5.96138C16.0081 5.61291 15.8107 5.19893 15.7211 4.75604C15.6315 4.31315 15.6524 3.855 15.782 3.42211C15.9116 2.98922 16.1458 2.59493 16.464 2.27411C16.7474 2.85439 17.1881 3.34338 17.7359 3.68535C18.2837 4.02732 18.9166 4.20851 19.5623 4.20828C20.1123 4.21469 20.6541 4.08269 21.139 3.82328C21.1573 3.95161 21.1665 4.07994 21.1665 4.20828Z" fill="#FFDDA1" stroke="#191919" stroke-linecap="round" stroke-linejoin="round"/>
<path d="M1.45807 22.5416C1.43681 21.9942 1.52896 21.4483 1.72873 20.9382C1.92851 20.4281 2.2316 19.9649 2.61896 19.5775C3.00633 19.1901 3.4696 18.887 3.97969 18.6873C4.48978 18.4875 5.03567 18.3953 5.58307 18.4166C6.13051 18.3952 6.67646 18.4873 7.18661 18.687C7.69677 18.8867 8.1601 19.1898 8.54749 19.5772C8.93488 19.9646 9.23797 20.4279 9.43769 20.9381C9.63742 21.4482 9.72948 21.9942 9.70807 22.5416H1.45807Z" fill="#66E1FF" stroke="#191919" stroke-linecap="round" stroke-linejoin="round"/>
<path d="M8.30755 13.9249C7.82965 14.174 7.29722 14.3 6.75838 14.2916C6.10918 14.2915 5.4732 14.1082 4.9235 13.7628C4.37381 13.4174 3.9327 12.9239 3.65088 12.3391C4.01434 11.9804 4.47052 11.7299 4.9683 11.6158C5.46609 11.5017 5.98582 11.5284 6.46925 11.6931C6.95268 11.8577 7.38072 12.1537 7.7054 12.5479C8.03009 12.9421 8.23859 13.4189 8.30755 13.9249Z" fill="#C77F67" stroke="#191919" stroke-linecap="round" stroke-linejoin="round"/>
<path d="M8.3335 14.2916C8.33389 14.7446 8.22238 15.1906 8.00889 15.5901C7.7954 15.9896 7.48654 16.3302 7.10975 16.5816C6.73295 16.833 6.29989 16.9874 5.84905 17.0311C5.39821 17.0749 4.94354 17.0066 4.52545 16.8323C4.10736 16.658 3.73879 16.3832 3.45249 16.0322C3.16619 15.6812 2.97102 15.2649 2.88433 14.8203C2.79764 14.3757 2.82211 13.9166 2.95557 13.4837C3.08903 13.0509 3.32734 12.6577 3.64933 12.3391C3.93115 12.9239 4.37226 13.4174 4.92195 13.7628C5.47165 14.1082 6.10763 14.2915 6.75683 14.2916C7.29566 14.3 7.82809 14.174 8.306 13.9249C8.32433 14.0459 8.3335 14.1688 8.3335 14.2916Z" fill="#FFDDA1" stroke="#191919" stroke-linecap="round" stroke-linejoin="round"/>
<path d="M3.65088 12.3392V12.33" stroke="#191919" stroke-linecap="round" stroke-linejoin="round"/>
<path d="M10.1665 3.29163H3.2915" stroke="#191919" stroke-linecap="round" stroke-linejoin="round"/>
<path d="M7.87484 5.125H3.2915" stroke="#191919" stroke-linecap="round" stroke-linejoin="round"/>
</g>
</svg>
