<svg width="24" height="24" viewBox="0 0 24 24" fill="none" xmlns="http://www.w3.org/2000/svg">
<path d="M12.4781 15.8558V2.91181C12.4781 2.40477 12.2767 1.91849 11.9182 1.55996C11.5596 1.20142 11.0734 1 10.5663 1C10.0593 1 9.57298 1.20142 9.21445 1.55996C8.85591 1.91849 8.65449 2.40477 8.65449 2.91181V15.8558C7.92555 16.2766 7.35584 16.9262 7.03373 17.7039C6.71162 18.4815 6.65511 19.3437 6.87296 20.1567C7.09082 20.9698 7.57085 21.6882 8.23863 22.2006C8.9064 22.713 9.7246 22.9907 10.5663 22.9907C11.408 22.9907 12.2262 22.713 12.894 22.2006C13.5618 21.6882 14.0418 20.9698 14.2597 20.1567C14.4775 19.3437 14.421 18.4815 14.0989 17.7039C13.7768 16.9262 13.2071 16.2766 12.4781 15.8558Z" fill="#FFBFC5"/>
<path d="M10.5663 20.1784C9.79941 20.1768 9.05077 19.9443 8.418 19.511C7.78523 19.0777 7.29768 18.4638 7.01893 17.7494C6.7855 18.3297 6.69799 18.9584 6.76408 19.5804C6.83017 20.2024 7.04783 20.7986 7.39799 21.3169C7.74815 21.8352 8.22012 22.2597 8.7725 22.5531C9.32488 22.8466 9.94082 23 10.5663 23C11.1918 23 11.8077 22.8466 12.3601 22.5531C12.9125 22.2597 13.3845 21.8352 13.7346 21.3169C14.0848 20.7986 14.3024 20.2024 14.3685 19.5804C14.4346 18.9584 14.3471 18.3297 14.1137 17.7494C13.8352 18.464 13.3477 19.078 12.7148 19.5113C12.082 19.9446 11.3333 20.1771 10.5663 20.1784Z" fill="#FF808C"/>
<path d="M12.4781 15.8558V2.91181C12.4781 2.40477 12.2767 1.91849 11.9182 1.55996C11.5596 1.20142 11.0734 1 10.5663 1C10.0593 1 9.57298 1.20142 9.21445 1.55996C8.85591 1.91849 8.65449 2.40477 8.65449 2.91181V15.8558C7.92555 16.2766 7.35584 16.9262 7.03373 17.7039C6.71162 18.4815 6.65511 19.3437 6.87296 20.1567C7.09082 20.9698 7.57085 21.6882 8.23863 22.2006C8.9064 22.713 9.7246 22.9907 10.5663 22.9907C11.408 22.9907 12.2262 22.713 12.894 22.2006C13.5618 21.6882 14.0418 20.9698 14.2597 20.1567C14.4775 19.3437 14.421 18.4815 14.0989 17.7039C13.7768 16.9262 13.2071 16.2766 12.4781 15.8558Z" stroke="#191919" stroke-linecap="round" stroke-linejoin="round"/>
<path d="M10.5663 20.1182C10.8198 20.1182 11.0629 20.0175 11.2422 19.8382C11.4215 19.6589 11.5222 19.4158 11.5222 19.1623C11.5222 18.9087 11.4215 18.6656 11.2422 18.4863C11.0629 18.3071 10.8198 18.2064 10.5663 18.2064C10.3127 18.2064 10.0696 18.3071 9.89033 18.4863C9.71106 18.6656 9.61035 18.9087 9.61035 19.1623C9.61035 19.4158 9.71106 19.6589 9.89033 19.8382C10.0696 20.0175 10.3127 20.1182 10.5663 20.1182Z" fill="#FF808C" stroke="#191919" stroke-linecap="round" stroke-linejoin="round"/>
<path d="M10.5664 18.2062V2.91174" stroke="#191919" stroke-linecap="round" stroke-linejoin="round"/>
<path d="M14.3901 2.91174H17.2579" stroke="#191919" stroke-linecap="round" stroke-linejoin="round"/>
<path d="M14.3901 7.69141H15.346" stroke="#191919" stroke-linecap="round" stroke-linejoin="round"/>
<path d="M14.3901 12.4709H15.346" stroke="#191919" stroke-linecap="round" stroke-linejoin="round"/>
</svg>
