<svg width="24" height="24" viewBox="0 0 24 24" fill="none" xmlns="http://www.w3.org/2000/svg">
<path d="M14.8647 13.4426H16.7862" stroke="#191919" stroke-linecap="round" stroke-linejoin="round"/>
<path d="M14.8647 8.63904H16.7862" stroke="#191919" stroke-linecap="round" stroke-linejoin="round"/>
<path d="M14.8647 3.83557H16.7862" stroke="#191919" stroke-linecap="round" stroke-linejoin="round"/>
<path d="M12.9526 15.8635V2.91324C12.9526 2.40582 12.7511 1.91918 12.3923 1.56038C12.0335 1.20157 11.5468 1 11.0394 1C10.532 1 10.0453 1.20157 9.68653 1.56038C9.32773 1.91918 9.12616 2.40582 9.12616 2.91324V15.8635C8.39714 16.2846 7.82741 16.9344 7.50533 17.7122C7.18324 18.49 7.1268 19.3524 7.34475 20.1656C7.5627 20.9787 8.04286 21.6973 8.71078 22.2098C9.3787 22.7222 10.1971 23 11.0389 23C11.8808 23 12.6991 22.7222 13.3671 22.2098C14.035 21.6973 14.5151 20.9787 14.7331 20.1656C14.951 19.3524 14.8946 18.49 14.5725 17.7122C14.2504 16.9344 13.6817 16.2846 12.9526 15.8635Z" fill="#FF808C"/>
<path d="M11.0389 20.1283C11.2926 20.1283 11.5358 20.0275 11.7152 19.8481C11.8945 19.6688 11.9953 19.4255 11.9953 19.1719C11.9953 18.9182 11.8945 18.675 11.7152 18.4956C11.5358 18.3163 11.2926 18.2155 11.0389 18.2155C10.7854 18.2155 10.5423 18.3162 10.363 18.4955C10.1837 18.6747 10.083 18.9179 10.083 19.1714C10.083 19.4249 10.1837 19.6681 10.363 19.8473C10.5423 20.0266 10.7854 20.1283 11.0389 20.1283Z" fill="#FFEF5E" stroke="#191919" stroke-linecap="round" stroke-linejoin="round"/>
<path d="M11.0392 1.00146C10.5322 1.00146 10.0459 1.20289 9.6874 1.56142C9.32886 1.91995 9.12744 2.40623 9.12744 2.91327V7.91085H12.952V2.91423C12.9521 2.66317 12.9028 2.41454 12.8068 2.18254C12.7109 1.95054 12.5702 1.73971 12.3927 1.5621C12.2153 1.38448 12.0046 1.24355 11.7727 1.14736C11.5408 1.05117 11.2922 1.00159 11.0412 1.00146H11.0392Z" fill="white"/>
<path d="M12.9526 15.8635V2.91324C12.9526 2.40582 12.7511 1.91918 12.3923 1.56038C12.0335 1.20157 11.5468 1 11.0394 1C10.532 1 10.0453 1.20157 9.68653 1.56038C9.32773 1.91918 9.12616 2.40582 9.12616 2.91324V15.8635C8.39714 16.2846 7.82741 16.9344 7.50533 17.7122C7.18324 18.49 7.1268 19.3524 7.34475 20.1656C7.5627 20.9787 8.04286 21.6973 8.71078 22.2098C9.3787 22.7222 10.1971 23 11.0389 23C11.8808 23 12.6991 22.7222 13.3671 22.2098C14.035 21.6973 14.5151 20.9787 14.7331 20.1656C14.951 19.3524 14.8946 18.49 14.5725 17.7122C14.2504 16.9344 13.6817 16.2846 12.9526 15.8635Z" stroke="#191919" stroke-linecap="round" stroke-linejoin="round"/>
<path d="M11.0391 18.2154V3.87012" stroke="#191919" stroke-linecap="round" stroke-linejoin="round"/>
</svg>
