<svg width="24" height="24" viewBox="0 0 24 24" fill="none" xmlns="http://www.w3.org/2000/svg">
<path d="M10.0703 15.8635V2.91324C10.0703 2.40582 9.86875 1.91918 9.50994 1.56038C9.15114 1.20157 8.6645 1 8.15708 1C7.64965 1 7.16301 1.20157 6.80421 1.56038C6.44541 1.91918 6.24383 2.40582 6.24383 2.91324V15.8635C5.51481 16.2846 4.94509 16.9344 4.623 17.7122C4.30092 18.49 4.24447 19.3524 4.46242 20.1656C4.68037 20.9787 5.16054 21.6973 5.82846 22.2098C6.49638 22.7222 7.31473 23 8.1566 23C8.99847 23 9.81682 22.7222 10.4847 22.2098C11.1527 21.6973 11.6328 20.9787 11.8508 20.1656C12.0687 19.3524 12.0123 18.49 11.6902 17.7122C11.3681 16.9344 10.7993 16.2846 10.0703 15.8635Z" fill="#FF808C"/>
<path d="M8.15692 1.00146C7.64988 1.00146 7.1636 1.20289 6.80507 1.56142C6.44654 1.91995 6.24512 2.40623 6.24512 2.91327V7.91085H10.0697V2.91423C10.0698 2.66317 10.0205 2.41454 9.92452 2.18254C9.82856 1.95054 9.68785 1.73971 9.51041 1.5621C9.33297 1.38448 9.12228 1.24355 8.89038 1.14736C8.65848 1.05117 8.4099 1.00159 8.15884 1.00146H8.15692Z" fill="white"/>
<path d="M10.0703 15.8635V2.91324C10.0703 2.40582 9.86875 1.91918 9.50994 1.56038C9.15114 1.20157 8.6645 1 8.15708 1C7.64965 1 7.16301 1.20157 6.80421 1.56038C6.44541 1.91918 6.24383 2.40582 6.24383 2.91324V15.8635C5.51481 16.2846 4.94509 16.9344 4.623 17.7122C4.30092 18.49 4.24447 19.3524 4.46242 20.1656C4.68037 20.9787 5.16054 21.6973 5.82846 22.2098C6.49638 22.7222 7.31473 23 8.1566 23C8.99847 23 9.81682 22.7222 10.4847 22.2098C11.1527 21.6973 11.6328 20.9787 11.8508 20.1656C12.0687 19.3524 12.0123 18.49 11.6902 17.7122C11.3681 16.9344 10.7993 16.2846 10.0703 15.8635Z" stroke="#191919" stroke-linecap="round" stroke-linejoin="round"/>
<path d="M8.15658 20.1283C8.41023 20.1283 8.65349 20.0275 8.83285 19.8481C9.0122 19.6688 9.11297 19.4255 9.11297 19.1719C9.11297 18.9182 9.0122 18.675 8.83285 18.4956C8.65349 18.3163 8.41023 18.2155 8.15658 18.2155C7.90306 18.2155 7.65993 18.3162 7.48066 18.4955C7.30139 18.6747 7.20068 18.9179 7.20068 19.1714C7.20068 19.4249 7.30139 19.6681 7.48066 19.8473C7.65993 20.0266 7.90306 20.1283 8.15658 20.1283Z" fill="#FFEF5E" stroke="#191919" stroke-linecap="round" stroke-linejoin="round"/>
<path d="M8.15674 18.2154V7.69568" stroke="#191919" stroke-linecap="round" stroke-linejoin="round"/>
<path d="M13.9038 5.75699L16.7859 2.87488L19.668 5.75699" stroke="#191919" stroke-linecap="round" stroke-linejoin="round"/>
<path d="M16.7861 2.87488V15.8444" stroke="#191919" stroke-linecap="round" stroke-linejoin="round"/>
</svg>
