<svg width="24" height="24" viewBox="0 0 24 24" fill="none" xmlns="http://www.w3.org/2000/svg">
<g clip-path="url(#clip0_5303_11110)">
<path d="M11.9999 22.9745C18.0681 22.9745 22.9872 18.0554 22.9872 11.9872C22.9872 5.91916 18.0681 1 11.9999 1C5.93186 1 1.0127 5.91916 1.0127 11.9872C1.0127 18.0554 5.93186 22.9745 11.9999 22.9745Z" fill="#FFF9BF"/>
<path d="M11.9999 18.1974C9.50194 18.1961 7.07894 17.3437 5.13043 15.7805C3.18191 14.2174 1.82421 12.037 1.28117 9.59875C0.919095 11.2064 0.923302 12.8749 1.29348 14.4808C1.66366 16.0866 2.39031 17.5886 3.41965 18.8755C4.44898 20.1624 5.75463 21.2013 7.23988 21.9153C8.72515 22.6293 10.3519 23 11.9999 23C13.6479 23 15.2747 22.6293 16.76 21.9153C18.2453 21.2013 19.5509 20.1624 20.5802 18.8755C21.6096 17.5886 22.3363 16.0866 22.7064 14.4808C23.0766 12.8749 23.0808 11.2064 22.7187 9.59875C22.1757 12.037 20.818 14.2174 18.8695 15.7805C16.921 17.3437 14.498 18.1961 11.9999 18.1974Z" fill="#FFEF5E"/>
<path d="M11.9999 22.9745C18.0681 22.9745 22.9872 18.0554 22.9872 11.9872C22.9872 5.91916 18.0681 1 11.9999 1C5.93186 1 1.0127 5.91916 1.0127 11.9872C1.0127 18.0554 5.93186 22.9745 11.9999 22.9745Z" stroke="#191919" stroke-linecap="round" stroke-linejoin="round"/>
<path d="M14.0063 17.4474C13.0645 17.9576 12.0069 18.2156 10.9361 18.1963C9.86517 18.1769 8.8175 17.881 7.8948 17.3372C6.9721 16.7934 6.20574 16.0201 5.67014 15.0926C5.13455 14.1651 4.84794 13.1148 4.83815 12.0438C4.82836 10.9729 5.09572 9.91749 5.61427 8.98035C6.13281 8.0432 6.88492 7.25611 7.79752 6.6955C8.71012 6.13489 9.7522 5.81984 10.8225 5.78095C11.8929 5.74205 12.955 5.98063 13.906 6.47351" stroke="#191919" stroke-linecap="round" stroke-linejoin="round"/>
<path d="M17.2549 10.0764C18.0464 10.0764 18.688 9.43482 18.688 8.64332C18.688 7.85183 18.0464 7.21021 17.2549 7.21021C16.4634 7.21021 15.8218 7.85183 15.8218 8.64332C15.8218 9.43482 16.4634 10.0764 17.2549 10.0764Z" fill="white" stroke="#191919" stroke-linecap="round" stroke-linejoin="round"/>
</g>
<defs>
<clipPath id="clip0_5303_11110">
<rect width="24" height="24" fill="white"/>
</clipPath>
</defs>
</svg>
