<svg width="24" height="24" viewBox="0 0 24 24" fill="none" xmlns="http://www.w3.org/2000/svg">
<mask id="mask0_5303_1816" style="mask-type:luminance" maskUnits="userSpaceOnUse" x="1" y="1" width="22" height="22">
<path d="M1 1H23V23H1V1Z" fill="white"/>
</mask>
<g mask="url(#mask0_5303_1816)">
<path d="M12.0002 21.1666C17.0627 21.1666 21.1668 17.0625 21.1668 12C21.1668 6.93737 17.0627 2.83331 12.0002 2.83331C6.93755 2.83331 2.8335 6.93737 2.8335 12C2.8335 17.0625 6.93755 21.1666 12.0002 21.1666Z" fill="#C2F3FF"/>
<path d="M1.4585 22.5399H22.5418" stroke="#191919" stroke-linecap="round" stroke-linejoin="round"/>
<path d="M5.125 1.45831V12C5.125 13.8233 5.84933 15.572 7.13864 16.8613C8.42795 18.1506 10.1767 18.875 12 18.875C13.8233 18.875 15.5721 18.1506 16.8614 16.8613C18.1507 15.572 18.875 13.8233 18.875 12V1.45831" stroke="#191919" stroke-linecap="round" stroke-linejoin="round"/>
<path d="M2.375 1.45654H7.875" stroke="#191919" stroke-linecap="round" stroke-linejoin="round"/>
<path d="M16.125 1.45654H21.625" stroke="#191919" stroke-linecap="round" stroke-linejoin="round"/>
</g>
</svg>
