<svg width="24" height="24" viewBox="0 0 24 24" fill="none" xmlns="http://www.w3.org/2000/svg">
<g clip-path="url(#clip0_5303_9912)">
<path d="M19.6522 8.65216C19.6531 9.46744 19.9511 10.2544 20.4903 10.8659C21.0296 11.4774 21.7732 11.8713 22.582 11.9742C22.6981 11.9889 22.8048 12.0457 22.8818 12.1339C22.9589 12.222 23.0009 12.3354 23 12.4524V15.3478C23 15.6015 22.8992 15.8448 22.7198 16.0242C22.5404 16.2036 22.2971 16.3043 22.0435 16.3043H1.95654C1.70285 16.3043 1.45956 16.2036 1.28017 16.0242C1.10079 15.8448 1.00002 15.6015 1.00002 15.3478V12.4486C0.999083 12.3315 1.04112 12.2182 1.11815 12.1301C1.19519 12.0419 1.30188 11.9851 1.41801 11.9703C2.22774 11.8692 2.97263 11.4757 3.5127 10.864C4.05276 10.2523 4.3508 9.46436 4.3508 8.64834C4.3508 7.83232 4.05276 7.0444 3.5127 6.43266C2.97263 5.82093 2.22774 5.42751 1.41801 5.32634C1.30188 5.3116 1.19519 5.25477 1.11815 5.16662C1.04112 5.07848 0.999083 4.96514 1.00002 4.84808V1.95652C1.00002 1.70284 1.10079 1.45954 1.28017 1.28016C1.45956 1.10078 1.70285 1 1.95654 1H22.0435C22.2971 1 22.5404 1.10078 22.7198 1.28016C22.8992 1.45954 23 1.70284 23 1.95652V4.85573C23.0009 4.97279 22.9589 5.08613 22.8818 5.17428C22.8048 5.26242 22.6981 5.31925 22.582 5.33399C21.7739 5.43672 21.0308 5.83017 20.4916 6.44082C19.9524 7.05147 19.654 7.83754 19.6522 8.65216Z" fill="#FFBC44"/>
<path d="M4.34784 8.65216C4.3469 7.83688 4.04892 7.04988 3.50965 6.43843C2.97038 5.82698 2.22679 5.43298 1.41801 5.33017C1.30188 5.31542 1.19519 5.25859 1.11815 5.17045C1.04112 5.08231 0.999083 4.96897 1.00002 4.85191V1.95652C1.00002 1.70284 1.10079 1.45954 1.28017 1.28016C1.45956 1.10078 1.70285 1 1.95654 1H22.0435C22.2971 1 22.5404 1.10078 22.7198 1.28016C22.8992 1.45954 23 1.70284 23 1.95652V4.85573C23.0009 4.97279 22.9589 5.08613 22.8818 5.17428C22.8048 5.26242 22.6981 5.31925 22.582 5.33399C21.7739 5.43672 21.0308 5.83017 20.4916 6.44082C19.9524 7.05147 19.654 7.83754 19.6522 8.65216H4.34784Z" fill="#FFDDA1"/>
<path d="M9.13044 16.3043H1.95654C1.70285 16.3043 1.45956 16.2036 1.28017 16.0242C1.10079 15.8448 1.00002 15.6015 1.00002 15.3478V12.4486C0.999083 12.3315 1.04112 12.2182 1.11815 12.1301C1.19519 12.0419 1.30188 11.9851 1.41801 11.9703C2.22774 11.8692 2.97263 11.4757 3.5127 10.864C4.05276 10.2523 4.3508 9.46436 4.3508 8.64834C4.3508 7.83232 4.05276 7.0444 3.5127 6.43266C2.97263 5.82093 2.22774 5.42751 1.41801 5.32634C1.30188 5.3116 1.19519 5.25477 1.11815 5.16662C1.04112 5.07848 0.999083 4.96514 1.00002 4.84808V1.95652C1.00002 1.70284 1.10079 1.45954 1.28017 1.28016C1.45956 1.10078 1.70285 1 1.95654 1H22.0435C22.2971 1 22.5404 1.10078 22.7198 1.28016C22.8992 1.45954 23 1.70284 23 1.95652V4.85573C23.0009 4.97279 22.9589 5.08613 22.8818 5.17428C22.8048 5.26242 22.6981 5.31925 22.582 5.33399C22.1392 5.38964 21.712 5.53327 21.3255 5.75642C20.939 5.97958 20.601 6.27776 20.3314 6.63344C20.0618 6.98911 19.866 7.3951 19.7556 7.82753C19.6452 8.25995 19.6224 8.71009 19.6885 9.15147" stroke="#191919" stroke-linecap="round" stroke-linejoin="round"/>
<path d="M15.826 3.63036C15.7626 3.63036 15.7018 3.60517 15.657 3.56032C15.6121 3.51548 15.5869 3.45465 15.5869 3.39123C15.5869 3.32781 15.6121 3.26699 15.657 3.22214C15.7018 3.17729 15.7626 3.1521 15.826 3.1521" stroke="#191919"/>
<path d="M15.8262 3.63036C15.8896 3.63036 15.9504 3.60517 15.9953 3.56032C16.0401 3.51548 16.0653 3.45465 16.0653 3.39123C16.0653 3.32781 16.0401 3.26699 15.9953 3.22214C15.9504 3.17729 15.8896 3.1521 15.8262 3.1521" stroke="#191919"/>
<path d="M15.826 6.49999C15.7626 6.49999 15.7018 6.47479 15.657 6.42995C15.6121 6.3851 15.5869 6.32428 15.5869 6.26086C15.5869 6.19744 15.6121 6.13661 15.657 6.09177C15.7018 6.04692 15.7626 6.02173 15.826 6.02173" stroke="#191919"/>
<path d="M15.8262 6.49999C15.8896 6.49999 15.9504 6.47479 15.9953 6.42995C16.0401 6.3851 16.0653 6.32428 16.0653 6.26086C16.0653 6.19744 16.0401 6.13661 15.9953 6.09177C15.9504 6.04692 15.8896 6.02173 15.8262 6.02173" stroke="#191919"/>
<path d="M15.826 9.36962C15.7626 9.36962 15.7018 9.34442 15.657 9.29958C15.6121 9.25473 15.5869 9.19391 15.5869 9.13049C15.5869 9.06707 15.6121 9.00624 15.657 8.9614C15.7018 8.91655 15.7626 8.89136 15.826 8.89136" stroke="#191919"/>
<path d="M15.8262 9.36962C15.8896 9.36962 15.9504 9.34442 15.9953 9.29958C16.0401 9.25473 16.0653 9.19391 16.0653 9.13049C16.0653 9.06707 16.0401 9.00624 15.9953 8.9614C15.9504 8.91655 15.8896 8.89136 15.8262 8.89136" stroke="#191919"/>
<path d="M17.2606 23C18.0143 23 18.7606 22.8515 19.4569 22.5631C20.1532 22.2747 20.7859 21.8519 21.3188 21.319C21.8517 20.7861 22.2744 20.1534 22.5629 19.4571C22.8513 18.7608 22.9997 18.0145 22.9997 17.2609C22.9997 16.5072 22.8513 15.7609 22.5629 15.0646C22.2744 14.3683 21.8517 13.7356 21.3188 13.2027C20.7859 12.6698 20.1532 12.247 19.4569 11.9586C18.7606 11.6702 18.0143 11.5217 17.2606 11.5217C15.7385 11.5217 14.2787 12.1264 13.2024 13.2027C12.1261 14.279 11.5215 15.7387 11.5215 17.2609C11.5215 18.783 12.1261 20.2427 13.2024 21.319C14.2787 22.3953 15.7385 23 17.2606 23Z" fill="#78EB7B"/>
<path d="M13.2021 21.3193C12.1257 20.2429 11.521 18.783 11.521 17.2608C11.521 15.7385 12.1257 14.2786 13.2021 13.2023C14.2785 12.1259 15.7384 11.5212 17.2606 11.5212C18.7828 11.5212 20.2427 12.1259 21.3191 13.2023L13.2021 21.3193Z" fill="#C9F7CA"/>
<path d="M17.2606 23C18.0143 23 18.7606 22.8515 19.4569 22.5631C20.1532 22.2747 20.7859 21.8519 21.3188 21.319C21.8517 20.7861 22.2744 20.1534 22.5629 19.4571C22.8513 18.7608 22.9997 18.0145 22.9997 17.2609C22.9997 16.5072 22.8513 15.7609 22.5629 15.0646C22.2744 14.3683 21.8517 13.7356 21.3188 13.2027C20.7859 12.6698 20.1532 12.247 19.4569 11.9586C18.7606 11.6702 18.0143 11.5217 17.2606 11.5217C15.7385 11.5217 14.2787 12.1264 13.2024 13.2027C12.1261 14.279 11.5215 15.7387 11.5215 17.2609C11.5215 18.783 12.1261 20.2427 13.2024 21.319C14.2787 22.3953 15.7385 23 17.2606 23Z" stroke="#191919" stroke-linecap="round" stroke-linejoin="round"/>
<path d="M17.2607 14.3914V20.1305" stroke="#191919" stroke-linecap="round" stroke-linejoin="round"/>
<path d="M20.1302 17.2607H14.3911" stroke="#191919" stroke-linecap="round" stroke-linejoin="round"/>
</g>
<defs>
<clipPath id="clip0_5303_9912">
<rect width="24" height="24" fill="white"/>
</clipPath>
</defs>
</svg>
