<svg width="24" height="24" viewBox="0 0 24 24" fill="none" xmlns="http://www.w3.org/2000/svg">
<g clip-path="url(#clip0_5303_12564)">
<path d="M22.9048 10.6606C22.5339 10.1645 22.3334 9.56167 22.3334 8.9422C22.3334 8.32272 22.5339 7.71988 22.9048 7.22377C22.9737 7.13165 23.0071 7.01779 22.9987 6.90307C22.9905 6.78835 22.9412 6.68046 22.8599 6.59915L17.4009 1.14016C17.3196 1.05881 17.2117 1.00949 17.097 1.00123C16.9822 0.992981 16.8684 1.02634 16.7762 1.0952C16.2801 1.46616 15.6773 1.66662 15.0578 1.66662C14.4384 1.66662 13.8355 1.46616 13.3394 1.0952C13.2473 1.02634 13.1334 0.992981 13.0187 1.00123C12.904 1.00949 12.7961 1.05881 12.7148 1.14016L1 12.854C1.08894 12.9428 1.15949 13.0483 1.20763 13.1645C1.25576 13.2806 1.28054 13.405 1.28054 13.5307C1.28054 13.6564 1.25576 13.7809 1.20763 13.8971C1.15949 14.0132 1.08894 14.1186 1 14.2075L9.79253 23C9.88137 22.911 9.98686 22.8405 10.103 22.7924C10.2192 22.7442 10.3436 22.7194 10.4693 22.7194C10.595 22.7194 10.7194 22.7442 10.8355 22.7924C10.9517 22.8405 11.0572 22.911 11.146 23L22.8599 11.2852C22.9412 11.2039 22.9905 11.096 22.9987 10.9813C23.0071 10.8666 22.9737 10.7527 22.9048 10.6606Z" fill="#FFEF5E"/>
<path d="M5.40009 18.5999L20.1308 3.86918L17.4009 1.14016C17.3196 1.05881 17.2117 1.00949 17.097 1.00123C16.9822 0.992981 16.8684 1.02634 16.7762 1.0952C16.2801 1.46616 15.6773 1.66662 15.0578 1.66662C14.4384 1.66662 13.8356 1.46616 13.3394 1.0952C13.2473 1.02634 13.1334 0.992981 13.0187 1.00123C12.904 1.00949 12.7961 1.05881 12.7148 1.14016L1 12.854C1.08894 12.9428 1.15949 13.0483 1.20763 13.1645C1.25576 13.2806 1.28054 13.405 1.28054 13.5307C1.28054 13.6564 1.25576 13.7809 1.20763 13.8971C1.15949 14.0132 1.08894 14.1186 1 14.2075L5.40009 18.5999Z" fill="#FFF9BF"/>
<path d="M22.9048 10.6606C22.5339 10.1645 22.3334 9.56167 22.3334 8.9422C22.3334 8.32272 22.5339 7.71988 22.9048 7.22377C22.9737 7.13165 23.0071 7.01779 22.9987 6.90307C22.9905 6.78835 22.9412 6.68046 22.8599 6.59915L17.4009 1.14016C17.3196 1.05881 17.2117 1.00949 17.097 1.00123C16.9822 0.992981 16.8684 1.02634 16.7762 1.0952C16.2801 1.46616 15.6773 1.66662 15.0578 1.66662C14.4384 1.66662 13.8355 1.46616 13.3394 1.0952C13.2473 1.02634 13.1334 0.992981 13.0187 1.00123C12.904 1.00949 12.7961 1.05881 12.7148 1.14016L1 12.854C1.08894 12.9428 1.15949 13.0483 1.20763 13.1645C1.25576 13.2806 1.28054 13.405 1.28054 13.5307C1.28054 13.6564 1.25576 13.7809 1.20763 13.8971C1.15949 14.0132 1.08894 14.1186 1 14.2075L9.79253 23C9.88137 22.911 9.98686 22.8405 10.103 22.7924C10.2192 22.7442 10.3436 22.7194 10.4693 22.7194C10.595 22.7194 10.7194 22.7442 10.8355 22.7924C10.9517 22.8405 11.0572 22.911 11.146 23L22.8599 11.2852C22.9412 11.2039 22.9905 11.096 22.9987 10.9813C23.0071 10.8666 22.9737 10.7527 22.9048 10.6606Z" stroke="#191919" stroke-linecap="round" stroke-linejoin="round"/>
<path d="M19.355 8.02626L15.9731 4.64437C15.226 3.89727 14.0146 3.89727 13.2676 4.64437L5.82742 12.0845C5.08031 12.8317 5.08031 14.0429 5.82742 14.7901L9.2093 18.172C9.95641 18.919 11.1677 18.919 11.9148 18.172L19.355 10.7318C20.1021 9.98467 20.1021 8.77337 19.355 8.02626Z" fill="#F4F4F4" stroke="#191919" stroke-linecap="round" stroke-linejoin="round"/>
<path d="M14.6201 7.35095L8.53271 13.4384" stroke="#191919" stroke-linecap="round" stroke-linejoin="round"/>
<path d="M14.958 11.07L12.2529 13.7751" stroke="#191919" stroke-linecap="round" stroke-linejoin="round"/>
</g>
<defs>
<clipPath id="clip0_5303_12564">
<rect width="24" height="24" fill="white"/>
</clipPath>
</defs>
</svg>
