<svg width="24" height="24" viewBox="0 0 24 24" fill="none" xmlns="http://www.w3.org/2000/svg">
<path d="M18.3117 13.8204C19.0086 13.4198 19.5852 12.8394 19.9812 12.1399C20.3774 11.4404 20.5785 10.6474 20.5637 9.84366C20.5351 8.18614 19.8579 6.6059 18.6773 5.44201C18.6422 5.73369 18.5483 6.01529 18.4015 6.26966C18.2546 6.52413 18.0576 6.74624 17.8226 6.92251C17.5875 7.09879 17.3192 7.22566 17.0339 7.29541C16.7485 7.36517 16.4519 7.37636 16.162 7.32841C15.3601 6.65402 14.8026 5.73451 14.5753 4.7117C14.348 3.68888 14.4636 2.61968 14.9045 1.66919C10.9744 1.66919 8.45919 3.98762 7.98757 7.32841C7.40769 7.38901 6.82643 7.22831 6.35994 6.87851C5.89354 6.52871 5.57655 6.01566 5.47233 5.44201C2.69034 7.80811 2.5466 12.5942 6.36525 14.3684" fill="#FFBC44"/>
<path d="M18.3117 13.8204C19.0086 13.4198 19.5852 12.8394 19.9812 12.1399C20.3774 11.4404 20.5785 10.6474 20.5637 9.84366C20.5351 8.18614 19.8579 6.6059 18.6773 5.44201C18.6422 5.73369 18.5483 6.01529 18.4015 6.26966C18.2546 6.52413 18.0576 6.74624 17.8226 6.92251C17.5875 7.09879 17.3192 7.22566 17.0339 7.29541C16.7485 7.36517 16.4519 7.37636 16.162 7.32841C15.3601 6.65402 14.8026 5.73451 14.5753 4.7117C14.348 3.68888 14.4636 2.61968 14.9045 1.66919C10.9744 1.66919 8.45919 3.98762 7.98757 7.32841C7.40769 7.38901 6.82643 7.22831 6.35994 6.87851C5.89354 6.52871 5.57655 6.01566 5.47233 5.44201C2.69034 7.80811 2.5466 12.5942 6.36525 14.3684" stroke="#191919" stroke-linecap="round" stroke-linejoin="round"/>
<path d="M12.4277 22.3308C15.9006 22.3308 18.7159 19.5155 18.7159 16.0428C18.7159 12.57 15.9006 9.7547 12.4277 9.7547C8.95492 9.7547 6.13965 12.57 6.13965 16.0428C6.13965 19.5155 8.95492 22.3308 12.4277 22.3308Z" fill="#66E1FF"/>
<path d="M7.98142 20.4894C6.80212 19.3102 6.13965 17.7107 6.13965 16.0429C6.13965 14.3751 6.80212 12.7756 7.98142 11.5963C9.16071 10.417 10.7603 9.75446 12.428 9.75446C14.0958 9.75446 15.6953 10.417 16.8745 11.5963L7.98142 20.4894Z" fill="#C2F3FF"/>
<path d="M12.4277 22.3308C15.9006 22.3308 18.7159 19.5155 18.7159 16.0428C18.7159 12.57 15.9006 9.7547 12.4277 9.7547C8.95492 9.7547 6.13965 12.57 6.13965 16.0428C6.13965 19.5155 8.95492 22.3308 12.4277 22.3308Z" stroke="#191919" stroke-linecap="round" stroke-linejoin="round"/>
<path d="M15.5718 16.0428H12.4277V12.0005" stroke="#191919" stroke-linecap="round" stroke-linejoin="round"/>
</svg>
