<svg width="24" height="24" viewBox="0 0 24 24" fill="none" xmlns="http://www.w3.org/2000/svg">
<path d="M11.9992 22.5426C17.8212 22.5426 22.5409 17.8229 22.5409 12.0009C22.5409 6.17889 17.8212 1.45923 11.9992 1.45923C6.17719 1.45923 1.45752 6.17889 1.45752 12.0009C1.45752 17.8229 6.17719 22.5426 11.9992 22.5426Z" fill="#66E1FF"/>
<path d="M4.54472 19.4554C2.5677 17.4784 1.45703 14.7969 1.45703 12.001C1.45703 9.20512 2.5677 6.52372 4.54472 4.5467C6.52173 2.56969 9.20313 1.45901 11.999 1.45901C14.795 1.45901 17.4764 2.56969 19.4534 4.5467L4.54472 19.4554Z" fill="#C2F3FF"/>
<path d="M11.9992 22.5426C17.8212 22.5426 22.5409 17.8229 22.5409 12.0009C22.5409 6.17889 17.8212 1.45923 11.9992 1.45923C6.17719 1.45923 1.45752 6.17889 1.45752 12.0009C1.45752 17.8229 6.17719 22.5426 11.9992 22.5426Z" stroke="#191919" stroke-linecap="round" stroke-linejoin="round"/>
<path d="M12 6.95923V12.0009L17.5 17.0426" stroke="#191919" stroke-linecap="round" stroke-linejoin="round"/>
</svg>
