<svg width="24" height="24" viewBox="0 0 24 24" fill="none" xmlns="http://www.w3.org/2000/svg">
<g clip-path="url(#clip0_5303_10611)">
<path d="M13.4804 21.5131C18.7344 21.5131 22.9936 17.254 22.9936 12C22.9936 6.74599 18.7344 2.48682 13.4804 2.48682C8.22646 2.48682 3.96729 6.74599 3.96729 12C3.96729 17.254 8.22646 21.5131 13.4804 21.5131Z" fill="white"/>
<path d="M13.4806 19.5104C17.6284 19.5104 20.991 16.1478 20.991 12C20.991 7.85213 17.6284 4.48962 13.4806 4.48962C9.33273 4.48962 5.97021 7.85213 5.97021 12C5.97021 16.1478 9.33273 19.5104 13.4806 19.5104Z" fill="#66E1FF"/>
<path d="M1 8.99878L4.00415 13.505L7.50899 9.49947" stroke="#191919" stroke-linecap="round" stroke-linejoin="round"/>
<path d="M4.01066 13.5021C3.83007 12.1681 3.92872 10.8111 4.30034 9.51733C4.67196 8.22353 5.30845 7.02108 6.16943 5.9863C7.0304 4.95151 8.09705 4.10697 9.30171 3.50627C10.5063 2.90557 11.8227 2.56183 13.1673 2.49683C15.6836 2.41227 18.1308 3.32863 19.9726 5.04509C21.8144 6.76156 22.9007 9.13815 22.9935 11.6541C23.0863 14.1701 22.1778 16.6203 20.4674 18.4677C18.7569 20.3151 16.3839 21.4092 13.8683 21.5101" stroke="#191919" stroke-linecap="round" stroke-linejoin="round"/>
<path d="M10.0122 15.5159H14.0177" stroke="#191919" stroke-linecap="round" stroke-linejoin="round"/>
<path d="M12.0157 15.5159V8.00548C12.0156 7.91126 11.9888 7.81899 11.9386 7.73928C11.8884 7.65957 11.8167 7.59564 11.7318 7.55486C11.6469 7.51407 11.5521 7.49807 11.4585 7.50869C11.3649 7.51932 11.2761 7.55615 11.2025 7.61494L9.51221 8.96681" stroke="#191919" stroke-linecap="round" stroke-linejoin="round"/>
<path d="M20.0264 13.0124C20.0264 13.6763 19.7627 14.3131 19.2932 14.7826C18.8237 15.2521 18.1869 15.5158 17.523 15.5158C16.8591 15.5158 16.2223 15.2521 15.7527 14.7826C15.2833 14.3131 15.0195 13.6763 15.0195 13.0124V10.0082C15.0195 9.34425 15.2833 8.70749 15.7527 8.238C16.2223 7.76851 16.8591 7.50476 17.523 7.50476C18.1869 7.50476 18.8237 7.76851 19.2932 8.238C19.7627 8.70749 20.0264 9.34425 20.0264 10.0082V13.0124Z" stroke="#191919" stroke-linecap="round" stroke-linejoin="round"/>
</g>
<defs>
<clipPath id="clip0_5303_10611">
<rect width="24" height="24" fill="white"/>
</clipPath>
</defs>
</svg>
