<svg width="24" height="24" viewBox="0 0 24 24" fill="none" xmlns="http://www.w3.org/2000/svg">
<g clip-path="url(#clip0_5303_3733)">
<path d="M18.2179 23H1.95701C1.70332 23 1.46003 22.8992 1.28065 22.7198C1.10126 22.5405 1.00049 22.2971 1.00049 22.0435V1.95652C1.00049 1.70283 1.10126 1.45954 1.28065 1.28016C1.46003 1.10078 1.70332 1 1.95701 1H14.672C14.9257 1.00005 15.169 1.10087 15.3483 1.28026L18.8941 4.82609C19.0736 5.00542 19.1743 5.24868 19.1744 5.50235V22.0435C19.1744 22.2971 19.0736 22.5405 18.8942 22.7198C18.7149 22.8992 18.4715 23 18.2179 23Z" fill="white"/>
<path d="M10.5657 23H1.95701C1.70332 23 1.46003 22.8992 1.28065 22.7198C1.10126 22.5405 1.00049 22.2971 1.00049 22.0435V1.95652C1.00049 1.70283 1.10126 1.45954 1.28065 1.28016C1.46003 1.10078 1.70332 1 1.95701 1H14.672C14.9257 1.00005 15.169 1.10087 15.3483 1.28026L18.8941 4.82609C19.0736 5.00542 19.1743 5.24868 19.1744 5.50235V8.65217" stroke="#191919" stroke-linecap="round" stroke-linejoin="round"/>
<path d="M17.2606 23C18.3957 23 19.5053 22.6634 20.4491 22.0328C21.3929 21.4021 22.1285 20.5059 22.5629 19.4571C22.9973 18.4084 23.1109 17.2545 22.8895 16.1413C22.668 15.028 22.1215 14.0054 21.3188 13.2027C20.5161 12.4 19.4935 11.8535 18.3802 11.632C17.267 11.4106 16.1131 11.5242 15.0643 11.9586C14.0156 12.393 13.1194 13.1286 12.4887 14.0724C11.8581 15.0162 11.5215 16.1258 11.5215 17.2609C11.5215 18.783 12.1261 20.2427 13.2025 21.319C14.2788 22.3954 15.7385 23 17.2606 23Z" fill="#66E1FF"/>
<path d="M21.3196 13.2023C20.2432 12.1259 18.7833 11.5212 17.2611 11.5212C15.7389 11.5212 14.2789 12.1259 13.2026 13.2023C12.1262 14.2787 11.5215 15.7386 11.5215 17.2608C11.5215 18.7831 12.1262 20.243 13.2026 21.3193L21.3196 13.2023Z" fill="#C2F3FF"/>
<path d="M17.2606 23C18.3957 23 19.5053 22.6634 20.4491 22.0328C21.3929 21.4021 22.1285 20.5059 22.5629 19.4571C22.9973 18.4084 23.1109 17.2545 22.8895 16.1413C22.668 15.028 22.1215 14.0054 21.3188 13.2027C20.5161 12.4 19.4935 11.8535 18.3802 11.632C17.267 11.4106 16.1131 11.5242 15.0643 11.9586C14.0156 12.393 13.1194 13.1286 12.4887 14.0724C11.8581 15.0162 11.5215 16.1258 11.5215 17.2609C11.5215 18.783 12.1261 20.2427 13.2025 21.319C14.2788 22.3954 15.7385 23 17.2606 23Z" stroke="#191919" stroke-linecap="round" stroke-linejoin="round"/>
<path d="M19.1738 17.2608H17.2607V14.3913" stroke="#191919" stroke-linecap="round" stroke-linejoin="round"/>
</g>
<defs>
<clipPath id="clip0_5303_3733">
<rect width="24" height="24" fill="white"/>
</clipPath>
</defs>
</svg>
