<svg width="24" height="24" viewBox="0 0 24 24" fill="none" xmlns="http://www.w3.org/2000/svg">
<path d="M3.8698 13.4348C3.81266 14.5931 4.1991 15.7296 4.95044 16.6129C5.70178 17.4963 6.76154 18.0602 7.91397 18.1897C7.97815 18.1965 8.04028 18.2164 8.0966 18.2479C8.15292 18.2794 8.20228 18.322 8.24169 18.3732C8.2811 18.4243 8.30976 18.4829 8.32593 18.5454C8.34211 18.6078 8.34546 18.673 8.3358 18.7368L7.77815 22.451C7.76796 22.519 7.77259 22.5885 7.79171 22.6546C7.81083 22.7207 7.844 22.782 7.88895 22.8341C7.93391 22.8862 7.98958 22.928 8.05217 22.9566C8.11476 22.9853 8.18279 23.0001 8.25162 23H16.7828C16.9097 23 17.0313 22.9496 17.121 22.8599C17.2107 22.7702 17.2611 22.6486 17.2611 22.5217V18.9826C17.2612 18.4525 17.3922 17.9307 17.6425 17.4635C17.8928 16.9962 18.2546 16.5981 18.6959 16.3043C19.1371 16.0106 19.4989 15.6124 19.7492 15.1452C19.9995 14.6779 20.1305 14.1561 20.1307 13.6261V13.4348H3.8698Z" fill="#E3E3E3"/>
<path d="M19.308 15.7706C19.837 15.1815 20.1299 14.4179 20.1306 13.6261V13.4348H3.86975C3.86406 14.2465 4.05368 15.0476 4.42262 15.7706H19.308Z" fill="#B2B2B2"/>
<path d="M21.0868 12.4783C21.0868 12.7319 20.986 12.9752 20.8066 13.1546C20.6272 13.334 20.384 13.4348 20.1303 13.4348H15.3477V2.91304C15.3477 2.40567 15.5492 1.91908 15.908 1.56032C16.2667 1.20155 16.7533 1 17.2607 1H19.1737C19.6811 1 20.1677 1.20155 20.5265 1.56032C20.8852 1.91908 21.0868 2.40567 21.0868 2.91304V12.4783Z" fill="white" stroke="#191919" stroke-linecap="round" stroke-linejoin="round"/>
<path d="M3.8698 13.4348C3.81266 14.5931 4.1991 15.7296 4.95044 16.6129C5.70178 17.4963 6.76154 18.0602 7.91397 18.1897C7.97815 18.1965 8.04028 18.2164 8.0966 18.2479C8.15292 18.2794 8.20228 18.322 8.24169 18.3732C8.2811 18.4243 8.30976 18.4829 8.32593 18.5454C8.34211 18.6078 8.34546 18.673 8.3358 18.7368L7.77815 22.451C7.76796 22.519 7.77259 22.5885 7.79171 22.6546C7.81083 22.7207 7.844 22.782 7.88895 22.8341C7.93391 22.8862 7.98958 22.928 8.05217 22.9566C8.11476 22.9853 8.18279 23.0001 8.25162 23H16.7828C16.9097 23 17.0313 22.9496 17.121 22.8599C17.2107 22.7702 17.2611 22.6486 17.2611 22.5217V18.9826C17.2612 18.4525 17.3922 17.9307 17.6425 17.4635C17.8928 16.9962 18.2546 16.5981 18.6959 16.3043C19.1371 16.0106 19.4989 15.6124 19.7492 15.1452C19.9995 14.6779 20.1305 14.1561 20.1307 13.6261V13.4348H3.8698Z" stroke="#191919" stroke-linecap="round" stroke-linejoin="round"/>
<path d="M15.3479 13.4348H3.39135C3.2645 13.4348 3.14286 13.3844 3.05317 13.2947C2.96347 13.205 2.91309 13.0834 2.91309 12.9565V11.0435C2.91309 10.9166 2.96347 10.795 3.05317 10.7053C3.14286 10.6156 3.2645 10.5652 3.39135 10.5652H15.3479V13.4348Z" fill="white" stroke="#191919" stroke-linecap="round" stroke-linejoin="round"/>
<path d="M18.6958 5.30441C18.9495 5.30441 19.1928 5.20363 19.3721 5.02425C19.5515 4.84486 19.6523 4.60157 19.6523 4.34788C19.6523 4.0942 19.5515 3.8509 19.3721 3.67152C19.1928 3.49214 18.9495 3.39136 18.6958 3.39136C18.4421 3.39136 18.1988 3.49214 18.0194 3.67152C17.84 3.8509 17.7393 4.0942 17.7393 4.34788C17.7393 4.60157 17.84 4.84486 18.0194 5.02425C18.1988 5.20363 18.4421 5.30441 18.6958 5.30441Z" fill="#808080" stroke="#191919" stroke-linecap="round" stroke-linejoin="round"/>
</svg>
