<svg width="24" height="24" viewBox="0 0 24 24" fill="none" xmlns="http://www.w3.org/2000/svg">
<path d="M5.00088 10.9028C5.03096 10.8051 5.0916 10.7195 5.17389 10.6587C5.25619 10.598 5.3558 10.5652 5.4581 10.5652H18.5414C18.6437 10.5652 18.7433 10.598 18.8256 10.6587C18.9079 10.7195 18.9685 10.8051 18.9986 10.9028L21.959 20.5245C22.0471 20.8106 22.0667 21.1134 22.0164 21.4086C21.966 21.7037 21.8471 21.9829 21.6692 22.2237C21.4913 22.4645 21.2594 22.6602 20.9921 22.795C20.7248 22.9298 20.4296 23 20.1302 23H3.86932C3.56987 23.0002 3.27454 22.9301 3.00713 22.7954C2.73971 22.6606 2.50769 22.4649 2.32975 22.2241C2.15181 21.9832 2.03293 21.7039 1.98268 21.4087C1.93243 21.1135 1.95222 20.8106 2.04045 20.5245L5.00088 10.9028Z" fill="#FFF9BF"/>
<path d="M21.5273 19.1213C21.3505 19.3166 21.1351 19.473 20.8947 19.5807C20.6543 19.6884 20.3942 19.745 20.1308 19.7469H3.86996C3.60639 19.7452 3.34605 19.6887 3.10548 19.581C2.8649 19.4733 2.64934 19.3168 2.47248 19.1213L2.04109 20.5246C1.95307 20.8107 1.93344 21.1135 1.98378 21.4086C2.03412 21.7038 2.15302 21.983 2.33092 22.2237C2.50881 22.4645 2.74074 22.6602 3.00805 22.7951C3.27536 22.9299 3.57057 23.0001 3.86996 23H20.1308C20.4302 23.0001 20.7254 22.9299 20.9927 22.7951C21.26 22.6602 21.492 22.4645 21.6699 22.2237C21.8478 21.983 21.9667 21.7038 22.017 21.4086C22.0673 21.1135 22.0477 20.8107 21.9597 20.5246L21.5273 19.1213Z" fill="#FFEF5E"/>
<path d="M5.00088 10.9028C5.03096 10.8051 5.0916 10.7195 5.17389 10.6587C5.25619 10.598 5.3558 10.5652 5.4581 10.5652H18.5414C18.6437 10.5652 18.7433 10.598 18.8256 10.6587C18.9079 10.7195 18.9685 10.8051 18.9986 10.9028L21.959 20.5245C22.0471 20.8106 22.0667 21.1134 22.0164 21.4086C21.966 21.7037 21.8471 21.9829 21.6692 22.2237C21.4913 22.4645 21.2594 22.6602 20.9921 22.795C20.7248 22.9298 20.4296 23 20.1302 23H3.86932C3.56987 23.0002 3.27454 22.9301 3.00713 22.7954C2.73971 22.6606 2.50769 22.4649 2.32975 22.2241C2.15181 21.9832 2.03293 21.7039 1.98268 21.4087C1.93243 21.1135 1.95222 20.8106 2.04045 20.5245L5.00088 10.9028Z" stroke="#191919" stroke-linecap="round" stroke-linejoin="round"/>
<path d="M8.17383 10.5652V7.45654" stroke="#191919" stroke-linecap="round" stroke-linejoin="round"/>
<path d="M15.8257 10.5652V7.45654" stroke="#191919" stroke-linecap="round" stroke-linejoin="round"/>
<path d="M11.9997 21.087C13.1412 21.087 14.2361 20.6335 15.0433 19.8262C15.8505 19.019 16.304 17.9242 16.304 16.7826C16.304 15.641 15.8505 14.5462 15.0433 13.739C14.2361 12.9318 13.1412 12.4783 11.9997 12.4783C10.8581 12.4783 9.76325 12.9318 8.95603 13.739C8.1488 14.5462 7.69531 15.641 7.69531 16.7826C7.69531 17.9242 8.1488 19.019 8.95603 19.8262C9.76325 20.6335 10.8581 21.087 11.9997 21.087Z" fill="white"/>
<path d="M12.0002 14.6687C12.9489 14.6707 13.8701 14.9867 14.6203 15.5674C15.3704 16.1482 15.9071 16.9609 16.1467 17.8788C16.4147 16.9143 16.3382 15.8866 15.9304 14.9725C15.5226 14.0583 14.8091 13.3148 13.9124 12.8698C13.0158 12.4248 11.9921 12.3062 11.0175 12.5343C10.0428 12.7624 9.17809 13.323 8.57204 14.1197C8.17066 14.6485 7.89704 15.263 7.77259 15.9151C7.64814 16.5672 7.67622 17.2393 7.85465 17.8788C8.0939 16.9609 8.63043 16.1481 9.38042 15.5673C10.1304 14.9866 11.0516 14.6706 12.0002 14.6687Z" fill="#E3E3E3"/>
<path d="M11.9997 21.087C13.1412 21.087 14.2361 20.6335 15.0433 19.8262C15.8505 19.019 16.304 17.9242 16.304 16.7826C16.304 15.641 15.8505 14.5462 15.0433 13.739C14.2361 12.9318 13.1412 12.4783 11.9997 12.4783C10.8581 12.4783 9.76325 12.9318 8.95603 13.739C8.1488 14.5462 7.69531 15.641 7.69531 16.7826C7.69531 17.9242 8.1488 19.019 8.95603 19.8262C9.76325 20.6335 10.8581 21.087 11.9997 21.087Z" stroke="#191919" stroke-linecap="round" stroke-linejoin="round"/>
<path d="M2.72135 1C2.64273 1.00001 2.56533 1.0194 2.496 1.05646C2.42667 1.09351 2.36754 1.14709 2.32384 1.21244C2.28015 1.27779 2.25324 1.35291 2.24549 1.43114C2.23775 1.50937 2.2494 1.5883 2.27943 1.66096C3.07228 3.58729 4.41942 5.23472 6.14997 6.39427C7.88052 7.55381 9.91649 8.17322 11.9996 8.17391C14.0827 8.17252 16.1185 7.55285 17.849 6.3934C19.5796 5.23395 20.9271 3.58691 21.7207 1.66096C21.7508 1.58823 21.7624 1.50921 21.7546 1.4309C21.7468 1.35259 21.7199 1.27742 21.676 1.21204C21.6322 1.14667 21.573 1.09311 21.5035 1.05612C21.4341 1.01913 21.3565 0.999857 21.2779 1H2.72135Z" fill="#E3E3E3"/>
<path d="M11.9996 1H2.72135C2.64273 1.00001 2.56533 1.0194 2.496 1.05646C2.42667 1.09351 2.36754 1.14709 2.32384 1.21244C2.28015 1.27779 2.25324 1.35291 2.24549 1.43114C2.23775 1.50937 2.2494 1.5883 2.27943 1.66096C3.07228 3.58729 4.41942 5.23472 6.14997 6.39426C7.88052 7.55381 9.91649 8.17322 11.9996 8.17391V1Z" fill="white"/>
<path d="M2.72135 1C2.64273 1.00001 2.56533 1.0194 2.496 1.05646C2.42667 1.09351 2.36754 1.14709 2.32384 1.21244C2.28015 1.27779 2.25324 1.35291 2.24549 1.43114C2.23775 1.50937 2.2494 1.5883 2.27943 1.66096C3.07228 3.58729 4.41942 5.23472 6.14997 6.39427C7.88052 7.55381 9.91649 8.17322 11.9996 8.17391C14.0827 8.17252 16.1185 7.55285 17.849 6.3934C19.5796 5.23395 20.9271 3.58691 21.7207 1.66096C21.7508 1.58823 21.7624 1.50921 21.7546 1.4309C21.7468 1.35259 21.7199 1.27742 21.676 1.21204C21.6322 1.14667 21.573 1.09311 21.5035 1.05612C21.4341 1.01913 21.3565 0.999857 21.2779 1H2.72135Z" stroke="#191919" stroke-linecap="round" stroke-linejoin="round"/>
<path d="M12 16.7827V14.3914" stroke="#191919" stroke-linecap="round" stroke-linejoin="round"/>
</svg>
