<svg width="24" height="24" viewBox="0 0 24 24" fill="none" xmlns="http://www.w3.org/2000/svg">
<path d="M21.4323 7.5083H2.56728C2.07118 7.5083 1.66895 7.91053 1.66895 8.40663V19.1866C1.66895 19.6827 2.07118 20.085 2.56728 20.085H21.4323C21.9285 20.085 22.3306 19.6827 22.3306 19.1866V8.40663C22.3306 7.91053 21.9285 7.5083 21.4323 7.5083Z" fill="#FFBFC5"/>
<path d="M22.3306 12H1.66895V14.695H22.3306V12Z" fill="#FF808C"/>
<path d="M1.66895 12H10.6523" stroke="#191919" stroke-linecap="round" stroke-linejoin="round"/>
<path d="M13.3477 12H22.331" stroke="#191919" stroke-linecap="round" stroke-linejoin="round"/>
<path d="M13.3473 13.3475C13.3473 13.7049 13.2054 14.0477 12.9527 14.3004C12.7 14.5531 12.3573 14.695 11.9998 14.695C11.6425 14.695 11.2997 14.553 11.047 14.3004C10.7942 14.0478 10.6523 13.7049 10.6523 13.3475V11.1017H13.3473V13.3475Z" fill="#808080" stroke="#191919" stroke-linecap="round" stroke-linejoin="round"/>
<path d="M8.40674 7.50837C8.40674 6.55541 8.78532 5.6414 9.45916 4.96756C10.1331 4.29362 11.047 3.91504 12.0001 3.91504C12.9531 3.91504 13.867 4.29362 14.5409 4.96756C15.2148 5.6414 15.5934 6.55541 15.5934 7.50837" stroke="#191919" stroke-linecap="round" stroke-linejoin="round"/>
<path d="M21.4323 7.5083H2.56728C2.07118 7.5083 1.66895 7.91053 1.66895 8.40663V19.1866C1.66895 19.6827 2.07118 20.085 2.56728 20.085H21.4323C21.9285 20.085 22.3306 19.6827 22.3306 19.1866V8.40663C22.3306 7.91053 21.9285 7.5083 21.4323 7.5083Z" stroke="#191919" stroke-linecap="round" stroke-linejoin="round"/>
</svg>
