<svg width="24" height="24" viewBox="0 0 24 24" fill="none" xmlns="http://www.w3.org/2000/svg">
<g clip-path="url(#clip0_5303_1846)">
<path d="M12.0015 20.4921C15.378 20.4921 18.1151 17.755 18.1151 14.3786C18.1151 11.002 15.378 8.26489 12.0015 8.26489C8.62514 8.26489 5.88794 11.0021 5.88794 14.3786C5.88794 17.7549 8.62514 20.4921 12.0015 20.4921Z" fill="#C2F3FF"/>
<path d="M12.0017 0.791397V12.3392" stroke="#191919" stroke-linecap="round" stroke-linejoin="round"/>
<path d="M15.3981 6.22701C17.2805 7.0118 18.8332 8.424 19.7927 10.2237C20.7521 12.0236 21.059 14.0999 20.6612 16.1002C20.2634 18.1006 19.1855 19.9015 17.6105 21.1972C16.0355 22.493 14.0606 23.2037 12.0211 23.2086C9.98151 23.2134 8.00321 22.5122 6.42211 21.2239C4.84101 19.9358 3.75451 18.1399 3.34711 16.1416C2.93981 14.143 3.23671 12.0653 4.18761 10.2611C5.13831 8.4567 6.6843 7.0371 8.563 6.2433" stroke="#191919" stroke-linecap="round" stroke-linejoin="round"/>
<path d="M9.28015 3.5085L12.0015 0.791397L14.7186 3.5085" stroke="#191919" stroke-linecap="round" stroke-linejoin="round"/>
</g>
<defs>
<clipPath id="clip0_5303_1846">
<rect width="24" height="24" fill="white"/>
</clipPath>
</defs>
</svg>
