<svg width="24" height="24" viewBox="0 0 24 24" fill="none" xmlns="http://www.w3.org/2000/svg">
<path d="M23 9.36957H10.5653L1 21.8043H13.4348L23 9.36957Z" fill="#66E1FF"/>
<path d="M5.78271 4.58691H18.2174" stroke="#191919" stroke-linecap="round" stroke-linejoin="round"/>
<path d="M15.8262 2.19568L18.2175 4.58691L15.8262 6.97822" stroke="#191919" stroke-linecap="round" stroke-linejoin="round"/>
<path d="M1.95658 9.36957H1V10.3261" stroke="#191919" stroke-linecap="round" stroke-linejoin="round"/>
<path d="M1 21.8043V20.8478" stroke="#191919" stroke-linecap="round" stroke-linejoin="round"/>
<path d="M1 12.2391V13.1956" stroke="#191919" stroke-linecap="round" stroke-linejoin="round"/>
<path d="M1 15.1087V16.0652" stroke="#191919" stroke-linecap="round" stroke-linejoin="round"/>
<path d="M1 17.9782V18.9347" stroke="#191919" stroke-linecap="round" stroke-linejoin="round"/>
<path d="M13.4351 9.36957V10.3261" stroke="#191919" stroke-linecap="round" stroke-linejoin="round"/>
<path d="M13.4351 21.8043V20.8478" stroke="#191919" stroke-linecap="round" stroke-linejoin="round"/>
<path d="M13.4351 12.2391V13.1956" stroke="#191919" stroke-linecap="round" stroke-linejoin="round"/>
<path d="M13.4351 15.1087V16.0652" stroke="#191919" stroke-linecap="round" stroke-linejoin="round"/>
<path d="M13.4351 17.9782V18.9347" stroke="#191919" stroke-linecap="round" stroke-linejoin="round"/>
<path d="M3.86914 9.36957H4.82563" stroke="#191919" stroke-linecap="round" stroke-linejoin="round"/>
<path d="M6.73926 9.36957H7.69575" stroke="#191919" stroke-linecap="round" stroke-linejoin="round"/>
<path d="M9.6084 9.36957H10.565" stroke="#191919" stroke-linecap="round" stroke-linejoin="round"/>
<path d="M23 9.36957H10.5653L1 21.8043H13.4348L23 9.36957Z" stroke="#191919" stroke-linecap="round" stroke-linejoin="round"/>
</svg>
