<svg width="143" height="15" viewBox="0 0 143 15" fill="none" xmlns="http://www.w3.org/2000/svg">
<path d="M5.32801 1.87198V14.256H3.45601V1.87198H9.30578e-06V0.215981H8.78401V1.87198H5.32801ZM12.2449 8.78398V14.256H10.3729V0.215981H14.5309C16.6369 0.215981 19.0309 0.91798 19.0309 4.31998V4.67998C19.0309 6.92998 17.9869 7.99198 16.6909 8.45998L19.0309 14.256H16.9969L14.8729 8.78398H12.2449ZM12.2449 7.14598H14.5849C15.6649 7.14598 17.1229 6.74998 17.1229 4.62598V4.39198C17.1229 2.26798 15.6649 1.87198 14.5849 1.87198H12.2449V7.14598ZM24.033 0.107981H26.643L30.513 14.256H28.497L27.615 10.872H23.079L22.197 14.256H20.163L24.033 0.107981ZM25.347 2.21398L23.511 9.21598H27.183L25.347 2.21398ZM41.7287 0.215981V14.256H39.7307L33.8446 3.52798L33.9167 6.64198V14.256H32.1346V0.215981H34.1326L40.0186 10.944L39.9467 7.82998V0.215981H41.7287ZM48.1365 7.88398C45.0765 7.46998 43.8165 6.19198 43.8165 4.10398V3.90598C43.8165 1.51198 45.5805 -1.95503e-05 48.4425 -1.95503e-05C51.6645 -1.95503e-05 53.0505 1.58398 53.0505 4.62598V5.05798H51.1785C51.1785 2.68198 50.3865 1.65598 48.4605 1.65598H48.3345C46.8045 1.65598 45.7425 2.48398 45.7425 3.76198V3.90598C45.7425 5.21998 46.3905 5.99398 48.7665 6.31798C51.8265 6.73198 53.1945 7.90198 53.1945 10.206V10.404C53.1945 12.96 51.4125 14.472 48.4425 14.472C45.3285 14.472 43.6725 12.852 43.6725 9.77398V9.59398H45.5445C45.5445 11.826 46.6785 12.816 48.3705 12.816H48.5145C50.2065 12.816 51.2685 11.916 51.2685 10.494V10.35C51.2685 8.92798 50.4405 8.18998 48.1365 7.88398ZM57.0164 8.78398V14.256H55.1444V0.215981H59.3024C61.4084 0.215981 63.8024 0.91798 63.8024 4.31998V4.67998C63.8024 8.09998 61.4084 8.78398 59.3024 8.78398H57.0164ZM57.0164 7.14598H59.3564C60.4364 7.14598 61.8944 6.74998 61.8944 4.62598V4.39198C61.8944 2.26798 60.4364 1.87198 59.3564 1.87198H57.0164V7.14598ZM70.1964 14.472C66.8124 14.472 65.1744 12.456 65.1744 7.59598V6.87598C65.1744 2.01598 66.8124 -1.95503e-05 70.1964 -1.95503e-05C73.5624 -1.95503e-05 75.2004 2.01598 75.2004 6.87598V7.59598C75.2004 12.456 73.5624 14.472 70.1964 14.472ZM70.1244 12.816H70.2504C72.4104 12.816 73.2744 11.16 73.2744 7.59598V6.87598C73.2744 3.31198 72.4104 1.65598 70.2504 1.65598H70.1244C67.9644 1.65598 67.1004 3.31198 67.1004 6.87598V7.59598C67.1004 11.16 67.9644 12.816 70.1244 12.816ZM79.1824 8.78398V14.256H77.3104V0.215981H81.4684C83.5744 0.215981 85.9684 0.91798 85.9684 4.31998V4.67998C85.9684 6.92998 84.9244 7.99198 83.6284 8.45998L85.9684 14.256H83.9344L81.8104 8.78398H79.1824ZM79.1824 7.14598H81.5224C82.6024 7.14598 84.0604 6.74998 84.0604 4.62598V4.39198C84.0604 2.26798 82.6024 1.87198 81.5224 1.87198H79.1824V7.14598ZM92.2694 1.87198V14.256H90.3974V1.87198H86.9414V0.215981H95.7254V1.87198H92.2694ZM99.4607 0.107981H102.071L105.941 14.256H103.925L103.043 10.872H98.5067L97.6247 14.256H95.5907L99.4607 0.107981ZM100.775 2.21398L98.9387 9.21598H102.611L100.775 2.21398ZM111.131 1.87198V14.256H109.259V1.87198H105.803V0.215981H114.587V1.87198H111.131ZM118.138 0.215981V14.256H116.266V0.215981H118.138ZM125.357 14.472C121.973 14.472 120.335 12.456 120.335 7.59598V6.87598C120.335 2.01598 121.973 -1.95503e-05 125.357 -1.95503e-05C128.723 -1.95503e-05 130.361 2.01598 130.361 6.87598V7.59598C130.361 12.456 128.723 14.472 125.357 14.472ZM125.285 12.816H125.411C127.571 12.816 128.435 11.16 128.435 7.59598V6.87598C128.435 3.31198 127.571 1.65598 125.411 1.65598H125.285C123.125 1.65598 122.261 3.31198 122.261 6.87598V7.59598C122.261 11.16 123.125 12.816 125.285 12.816ZM142.065 0.215981V14.256H140.067L134.181 3.52798L134.253 6.64198V14.256H132.471V0.215981H134.469L140.355 10.944L140.283 7.82998V0.215981H142.065Z" fill="#121212"/>
</svg>
