<svg width="24" height="24" viewBox="0 0 24 24" fill="none" xmlns="http://www.w3.org/2000/svg">
<path d="M12.4783 10.5652V18.2174C12.4768 18.7243 12.2748 19.21 11.9163 19.5685C11.5578 19.9269 11.0721 20.1289 10.5653 20.1304H4.82613C4.31922 20.1289 3.83352 19.9269 3.47507 19.5685C3.11663 19.21 2.9146 18.7243 2.91309 18.2174V10.5652H12.4783Z" fill="#FFBFC5"/>
<path d="M7.69569 16.6525C6.77392 16.6527 5.86422 16.4429 5.03557 16.0392C4.20692 15.6355 3.48108 15.0484 2.91309 14.3224V18.2174C2.9146 18.7242 3.11663 19.21 3.47507 19.5684C3.83352 19.9269 4.31922 20.1289 4.82613 20.1304H10.5653C11.0721 20.1289 11.5578 19.9269 11.9163 19.5684C12.2748 19.21 12.4768 18.7242 12.4783 18.2174V14.3224C11.9103 15.0484 11.1845 15.6355 10.3558 16.0392C9.52717 16.4429 8.61747 16.6527 7.69569 16.6525Z" fill="#FF808C"/>
<path d="M12.4783 10.5652V18.2174C12.4768 18.7243 12.2748 19.21 11.9163 19.5685C11.5578 19.9269 11.0721 20.1289 10.5653 20.1304H4.82613C4.31922 20.1289 3.83352 19.9269 3.47507 19.5685C3.11663 19.21 2.9146 18.7243 2.91309 18.2174V10.5652H12.4783Z" stroke="#191919" stroke-linecap="round" stroke-linejoin="round"/>
<path d="M12.4783 9.60869V10.5652H2.91309V9.60869C2.9146 9.10178 3.11663 8.61608 3.47507 8.25763C3.83352 7.8992 4.31922 7.69716 4.82613 7.69565H10.5653C11.0721 7.69716 11.5578 7.8992 11.9163 8.25763C12.2748 8.61608 12.4768 9.10178 12.4783 9.60869Z" fill="#E3E3E3" stroke="#191919" stroke-linecap="round" stroke-linejoin="round"/>
<path d="M21.0871 23V4.82609C21.0871 3.81134 20.684 2.83817 19.9664 2.12063C19.2489 1.4031 18.2758 1 17.261 1H10.5653C10.3117 1 10.0683 1.10078 9.88896 1.28016C9.70958 1.45954 9.6088 1.70283 9.6088 1.95652V2.91304C9.6088 3.42041 9.40725 3.907 9.04848 4.26577C8.68972 4.62454 8.20313 4.82609 7.69576 4.82609C7.18839 4.82609 6.7018 4.62454 6.34304 4.26577C5.98426 3.907 5.78271 3.42041 5.78271 2.91304V2.43478" stroke="#191919" stroke-linecap="round" stroke-linejoin="round"/>
<path d="M7.6958 20.1304V23" stroke="#191919" stroke-linecap="round" stroke-linejoin="round"/>
<path d="M7.6958 4.82608V7.69565" stroke="#191919" stroke-linecap="round" stroke-linejoin="round"/>
<path d="M9.13031 15.8575C9.13031 16.2381 8.97914 16.6031 8.71007 16.8721C8.441 17.1412 8.07605 17.2923 7.69552 17.2923C7.315 17.2923 6.95005 17.1412 6.68098 16.8721C6.41191 16.6031 6.26074 16.2381 6.26074 15.8575C6.5117 14.9261 6.92944 14.0479 7.4937 13.2654C7.51529 13.2314 7.5451 13.2035 7.58039 13.1841C7.61567 13.1647 7.65527 13.1545 7.69552 13.1545C7.73578 13.1545 7.77538 13.1647 7.81066 13.1841C7.84595 13.2035 7.87576 13.2314 7.89735 13.2654C8.46161 14.0479 8.87935 14.9261 9.13031 15.8575Z" fill="white" stroke="#191919" stroke-linecap="round" stroke-linejoin="round"/>
</svg>
