<svg width="24" height="24" viewBox="0 0 24 24" fill="none" xmlns="http://www.w3.org/2000/svg">
<g clip-path="url(#clip0_5303_5861)">
<path d="M23 7.69559C23 6.68085 22.5969 5.70767 21.8793 4.99014C21.1619 4.27261 20.1887 3.86951 19.1739 3.86951H4.82609C3.81134 3.86951 2.83817 4.27261 2.12063 4.99014C1.4031 5.70767 1 6.68085 1 7.69559V9.60864H23V7.69559Z" fill="#C77F67"/>
<path d="M19.1739 3.86951H4.82609C3.81134 3.86951 2.83817 4.27261 2.12063 4.99014C1.4031 5.70767 1 6.68085 1 7.69559V9.60864H1.12052C1.33262 8.78719 1.81173 8.05952 2.48251 7.54007C3.15329 7.02062 3.97769 6.73885 4.82609 6.73907H19.1739C20.0223 6.73885 20.8467 7.02062 21.5175 7.54007C22.1883 8.05952 22.6674 8.78719 22.8795 9.60864H23V7.69559C23 6.68085 22.5969 5.70767 21.8793 4.99014C21.1619 4.27261 20.1887 3.86951 19.1739 3.86951Z" fill="#E3BFB3"/>
<path d="M23 7.69559C23 6.68085 22.5969 5.70767 21.8793 4.99014C21.1619 4.27261 20.1887 3.86951 19.1739 3.86951H4.82609C3.81134 3.86951 2.83817 4.27261 2.12063 4.99014C1.4031 5.70767 1 6.68085 1 7.69559V9.60864H23V7.69559Z" stroke="#191919" stroke-linecap="round" stroke-linejoin="round"/>
<path d="M9.60882 3.86951C6.73926 3.86951 6.73926 7.69559 6.73926 7.69559V9.60864" stroke="#191919" stroke-linecap="round" stroke-linejoin="round"/>
<path d="M14.3926 3.86951C17.2621 3.86951 17.2621 7.69559 17.2621 7.69559V9.60864" stroke="#191919" stroke-linecap="round" stroke-linejoin="round"/>
<path d="M23 9.60864V11.5217H14.3913C14.2645 11.5217 14.1428 11.5721 14.0531 11.6617C13.9635 11.7514 13.913 11.8731 13.913 11.9999V12.4782C13.9093 12.9844 13.7065 13.4689 13.3486 13.8268C12.9907 14.1847 12.5062 14.3875 12 14.3913C11.4931 14.3897 11.0074 14.1877 10.6489 13.8293C10.2905 13.4708 10.0885 12.9851 10.087 12.4782V11.9999C10.087 11.8731 10.0366 11.7514 9.94687 11.6617C9.85719 11.5721 9.73554 11.5217 9.6087 11.5217H1V9.60864H23Z" fill="#E3E3E3" stroke="#191919" stroke-linecap="round" stroke-linejoin="round"/>
<path d="M23 11.5217V18.2174C22.9985 18.7242 22.7965 19.21 22.438 19.5685C22.0795 19.9269 21.5938 20.1289 21.087 20.1304H2.91304C2.40613 20.1289 1.92043 19.9269 1.56199 19.5685C1.20355 19.21 1.00151 18.7242 1 18.2174V11.5217H9.6087C9.73554 11.5217 9.85719 11.5721 9.94687 11.6618C10.0366 11.7515 10.087 11.8732 10.087 12V12.4783C10.0885 12.9851 10.2905 13.4708 10.6489 13.8293C11.0074 14.1877 11.4931 14.3898 12 14.3913C12.5062 14.3876 12.9907 14.1848 13.3486 13.8269C13.7065 13.4689 13.9093 12.9844 13.913 12.4783V12C13.913 11.8732 13.9635 11.7515 14.0531 11.6618C14.1428 11.5721 14.2645 11.5217 14.3913 11.5217H23Z" fill="#C77F67" stroke="#191919" stroke-linecap="round" stroke-linejoin="round"/>
<path d="M12.001 11.5217V12.4783" stroke="#191919" stroke-linecap="round" stroke-linejoin="round"/>
<path d="M6.73926 11.5217V20.1304" stroke="#191919" stroke-linecap="round" stroke-linejoin="round"/>
<path d="M17.2617 11.5217V20.1304" stroke="#191919" stroke-linecap="round" stroke-linejoin="round"/>
</g>
<defs>
<clipPath id="clip0_5303_5861">
<rect width="24" height="24" fill="white"/>
</clipPath>
</defs>
</svg>
