<svg width="24" height="24" viewBox="0 0 24 24" fill="none" xmlns="http://www.w3.org/2000/svg">
<path d="M14.9787 13.9108L13.1664 22.0675C13.1074 22.3321 12.9599 22.5686 12.7482 22.7381C12.5367 22.9076 12.2736 23 12.0026 23C11.7315 23 11.4684 22.9076 11.2569 22.7381C11.0452 22.5686 10.8977 22.3321 10.8387 22.0675L9.02637 13.9108H14.9787Z" fill="#FFEF5E"/>
<path d="M12.0016 13.9108H9.02637L10.8377 22.0675C10.9065 22.3266 11.0567 22.5567 11.2663 22.724C11.4759 22.8912 11.7336 22.9866 12.0016 22.9961V13.9108Z" fill="#FFF9BF"/>
<path d="M19.1733 11.5199C17.2588 13.2377 14.8149 14.25 12.2465 14.389H11.753C9.18476 14.2492 6.74106 13.237 4.82617 11.5199H19.1733Z" fill="#FFEF5E"/>
<path d="M12.0008 11.5199H4.82812C6.74242 13.2375 9.18593 14.2498 11.7541 14.389H12.0008V11.5199Z" fill="#FFF9BF"/>
<path d="M14.9787 13.9108L13.1664 22.0675C13.1074 22.3321 12.9599 22.5686 12.7482 22.7381C12.5367 22.9076 12.2736 23 12.0026 23C11.7315 23 11.4684 22.9076 11.2569 22.7381C11.0452 22.5686 10.8977 22.3321 10.8387 22.0675L9.02637 13.9108" stroke="#191919" stroke-linecap="round" stroke-linejoin="round"/>
<path d="M19.1733 11.5199C17.2588 13.2377 14.8149 14.25 12.2465 14.389H11.753C9.18476 14.2492 6.74106 13.237 4.82617 11.5199H19.1733Z" stroke="#191919" stroke-linecap="round" stroke-linejoin="round"/>
<path d="M8.79752 9.78217C8.39168 9.16161 8.17588 8.43602 8.17676 7.69443C8.19257 6.15474 8.7169 4.66345 9.66824 3.45268C10.6195 2.24191 11.9445 1.37958 13.4367 1C12.7448 1.56054 12.2705 2.34517 12.0959 3.21833C11.9213 4.09149 12.0573 4.99823 12.4804 5.78179C12.7278 5.61889 12.9399 5.40807 13.1042 5.16162C13.2685 4.91517 13.3816 4.63827 13.4367 4.34722C14.1381 4.58049 14.7474 5.03025 15.177 5.63168C15.6067 6.23311 15.8344 6.95538 15.8276 7.69443C15.8286 8.42109 15.6218 9.13282 15.2318 9.74586" fill="#FF808C"/>
<path d="M8.79752 9.78217C8.39168 9.16161 8.17588 8.43602 8.17676 7.69443C8.19257 6.15474 8.7169 4.66345 9.66824 3.45268C10.6195 2.24191 11.9445 1.37958 13.4367 1C12.7448 1.56054 12.2705 2.34517 12.0959 3.21833C11.9213 4.09149 12.0573 4.99823 12.4804 5.78179C12.7278 5.61889 12.9399 5.40807 13.1042 5.16162C13.2685 4.91517 13.3816 4.63827 13.4367 4.34722C14.1381 4.58049 14.7474 5.03025 15.177 5.63168C15.6067 6.23311 15.8344 6.95538 15.8276 7.69443C15.8286 8.42109 15.6218 9.13282 15.2318 9.74586" stroke="#191919" stroke-linecap="round" stroke-linejoin="round"/>
<path d="M12.002 8.17371V9.60818" stroke="#191919" stroke-linecap="round" stroke-linejoin="round"/>
</svg>
