<svg width="24" height="24" viewBox="0 0 24 24" fill="none" xmlns="http://www.w3.org/2000/svg">
<g clip-path="url(#clip0_5303_9611)">
<path d="M22.0435 21.5652L15.3478 6.26086H7.69565L1 21.5652H22.0435Z" fill="#B2B2B2"/>
<path d="M20.1305 21.5652L13.4348 6.26086H9.60874L2.91309 21.5652H20.1305Z" fill="#E3E3E3"/>
<path d="M23.0003 6.26089C23.0003 8.62923 20.0686 11.9751 19.0441 13.0713C18.9994 13.1188 18.9455 13.1566 18.8856 13.1825C18.8257 13.2083 18.7612 13.2217 18.6959 13.2217C18.6307 13.2217 18.5662 13.2083 18.5063 13.1825C18.4464 13.1566 18.3925 13.1188 18.3478 13.0713C17.3233 11.9751 14.3916 8.62923 14.3916 6.26089C14.3916 5.1193 14.8451 4.02447 15.6523 3.21725C16.4595 2.41003 17.5544 1.95654 18.6959 1.95654C19.8375 1.95654 20.9324 2.41003 21.7396 3.21725C22.5468 4.02447 23.0003 5.1193 23.0003 6.26089Z" fill="#FF808C"/>
<path d="M18.6959 1.95654C17.5544 1.95654 16.4595 2.41003 15.6523 3.21725C14.8451 4.02447 14.3916 5.1193 14.3916 6.26089C14.3916 8.62923 17.3233 11.9751 18.3478 13.0713C18.3923 13.1193 18.4461 13.1576 18.506 13.1839C18.5659 13.2103 18.6305 13.224 18.6959 13.2244V1.95654Z" fill="#FFBFC5"/>
<path d="M1 21.5652L7.69565 6.26086" stroke="#191919" stroke-linecap="round" stroke-linejoin="round"/>
<path d="M22.044 21.5652L19.3428 15.3918" stroke="#191919" stroke-linecap="round" stroke-linejoin="round"/>
<path d="M11.5215 20.6086V22.0434" stroke="#191919" stroke-linecap="round" stroke-linejoin="round"/>
<path d="M11.5215 15.826V17.739" stroke="#191919" stroke-linecap="round" stroke-linejoin="round"/>
<path d="M11.5215 11.0435V12.9565" stroke="#191919" stroke-linecap="round" stroke-linejoin="round"/>
<path d="M11.5215 6.73914V8.17392" stroke="#191919" stroke-linecap="round" stroke-linejoin="round"/>
<path d="M18.6955 7.69561C19.0761 7.69561 19.441 7.54445 19.7101 7.27537C19.9791 7.0063 20.1303 6.64136 20.1303 6.26083C20.1303 5.8803 19.9791 5.51536 19.7101 5.24628C19.441 4.97721 19.0761 4.82605 18.6955 4.82605C18.315 4.82605 17.9501 4.97721 17.681 5.24628C17.4119 5.51536 17.2607 5.8803 17.2607 6.26083C17.2607 6.64136 17.4119 7.0063 17.681 7.27537C17.9501 7.54445 18.315 7.69561 18.6955 7.69561Z" fill="white" stroke="#191919" stroke-linecap="round" stroke-linejoin="round"/>
<path d="M23.0003 6.26089C23.0003 8.62923 20.0686 11.9751 19.0441 13.0713C18.9994 13.1188 18.9455 13.1566 18.8856 13.1825C18.8257 13.2083 18.7612 13.2217 18.6959 13.2217C18.6307 13.2217 18.5662 13.2083 18.5063 13.1825C18.4464 13.1566 18.3925 13.1188 18.3478 13.0713C17.3233 11.9751 14.3916 8.62923 14.3916 6.26089C14.3916 5.1193 14.8451 4.02447 15.6523 3.21725C16.4595 2.41003 17.5544 1.95654 18.6959 1.95654C19.8375 1.95654 20.9324 2.41003 21.7396 3.21725C22.5468 4.02447 23.0003 5.1193 23.0003 6.26089Z" stroke="#191919" stroke-linecap="round" stroke-linejoin="round"/>
</g>
<defs>
<clipPath id="clip0_5303_9611">
<rect width="24" height="24" fill="white"/>
</clipPath>
</defs>
</svg>
