<svg width="24" height="24" viewBox="0 0 24 24" fill="none" xmlns="http://www.w3.org/2000/svg">
<g clip-path="url(#clip0_5303_9654)">
<mask id="mask0_5303_9654" style="mask-type:luminance" maskUnits="userSpaceOnUse" x="0" y="0" width="24" height="24">
<path d="M0 0H24V24H0V0Z" fill="white"/>
</mask>
<g mask="url(#mask0_5303_9654)">
<path d="M22.8729 6.57486C22.4498 9.09336 18.1902 13.3864 18.1902 15.9412C18.1902 13.3864 14.043 9.50504 13.5075 6.57486C12.8049 3.6263 15.1667 0.843555 18.1902 1.05736C21.2152 0.839862 23.5793 3.6254 22.8729 6.57486Z" fill="#FFEF5E"/>
<path d="M18.1902 15.9412C18.1902 13.3864 14.043 9.50503 13.5075 6.57485C12.8049 3.62629 15.1667 0.843544 18.1902 1.05735V15.9412Z" fill="#FFF7AE"/>
<path d="M18.1924 15.9612V17.2372" stroke="#191919" stroke-linecap="round" stroke-linejoin="round"/>
<path d="M13.5765 6.89402C13.5508 6.79504 13.5286 6.69525 13.5098 6.59483C12.8047 3.64646 15.1667 0.862173 18.1906 1.07733C21.216 0.859201 23.5807 3.64493 22.8742 6.59483C22.4531 9.11343 18.1906 13.4063 18.1906 15.9612C18.0626 14.8554 17.6545 13.8006 17.0051 12.8965" stroke="#191919" stroke-linecap="round" stroke-linejoin="round"/>
<path d="M20.3366 5.55034C20.3366 7.20091 18.5498 8.23249 17.1204 7.40724C16.457 7.02421 16.0483 6.31641 16.0483 5.55034C16.0483 3.89985 17.8351 2.86827 19.2645 3.69352C19.9279 4.07655 20.3366 4.78435 20.3366 5.55034Z" fill="white" stroke="#191919" stroke-linecap="round" stroke-linejoin="round"/>
<path d="M10.4957 6.57481C10.0736 9.09331 5.81213 13.3864 5.81213 15.9412C5.81213 13.3864 1.66593 9.50499 1.13321 6.57481C0.430268 3.62769 2.78982 0.845299 5.81213 1.05731C8.83751 0.839175 11.2023 3.6249 10.4957 6.57481Z" fill="#FF808C"/>
<path d="M5.81213 15.9411C5.81213 13.3863 1.66593 9.50496 1.13321 6.57478C0.430268 3.62767 2.78982 0.845274 5.81213 1.05729V15.9411Z" fill="#FFBFC5"/>
<path d="M5.80957 15.9612V17.2372" stroke="#191919" stroke-linecap="round" stroke-linejoin="round"/>
<path d="M7.71384 11.6987C6.69514 13.273 5.80802 14.7814 5.80802 15.9612C5.80802 13.4064 1.66083 9.52512 1.12532 6.59485C0.420483 3.64503 2.78481 0.860302 5.80991 1.07735C8.83529 0.858952 11.2 3.64512 10.4926 6.59485C10.4554 6.80325 10.4009 7.00823 10.3296 7.20754" stroke="#191919" stroke-linecap="round" stroke-linejoin="round"/>
<path d="M7.95367 5.55034C7.95367 7.20091 6.16701 8.23249 4.73754 7.40724C4.07423 7.02421 3.66553 6.31641 3.66553 5.55034C3.66553 3.89985 5.45228 2.86827 6.88166 3.69352C7.54506 4.07655 7.95367 4.78435 7.95367 5.55034Z" fill="white" stroke="#191919" stroke-linecap="round" stroke-linejoin="round"/>
<path d="M17.1581 12.3123C16.7349 14.8309 12.4744 19.1239 12.4744 21.6787C12.4744 19.1239 8.32725 15.2425 7.79174 12.3123C7.08754 9.36419 9.44898 6.58063 12.4725 6.79489C15.4987 6.57531 17.8649 9.36167 17.1581 12.3123Z" fill="#78EB7B"/>
<path d="M12.473 21.6788C12.473 19.124 8.3259 15.2426 7.79029 12.3124C7.08583 9.36346 9.4488 6.57927 12.473 6.79497V21.6788Z" fill="#BBF5BD"/>
<path d="M12.4751 21.6787V22.9546" stroke="#191919" stroke-linecap="round" stroke-linejoin="round"/>
<path d="M17.1581 12.3123C16.7349 14.8309 12.4744 19.1239 12.4744 21.6787C12.4744 19.1239 8.32725 15.2425 7.79174 12.3123C7.08754 9.36419 9.44898 6.58063 12.4725 6.79489C15.4987 6.57531 17.8649 9.36167 17.1581 12.3123Z" stroke="#191919" stroke-linecap="round" stroke-linejoin="round"/>
<path d="M14.6192 11.2679C14.6192 12.9187 12.8321 13.9506 11.4024 13.1252C10.7389 12.742 10.3301 12.034 10.3301 11.2679C10.3301 9.61696 12.1173 8.58521 13.5469 9.41063C14.2105 9.79376 14.6192 10.5017 14.6192 11.2679Z" fill="white" stroke="#191919" stroke-linecap="round" stroke-linejoin="round"/>
</g>
</g>
<defs>
<clipPath id="clip0_5303_9654">
<rect width="24" height="24" fill="white"/>
</clipPath>
</defs>
</svg>
