<svg width="24" height="24" viewBox="0 0 24 24" fill="none" xmlns="http://www.w3.org/2000/svg">
<g clip-path="url(#clip0_5303_12236)">
<path d="M1.95605 20.1304V16.7826C1.95605 16.6558 2.00644 16.5341 2.09614 16.4444C2.18582 16.3548 2.30747 16.3043 2.43432 16.3043H11.5213V20.1304H1.95605Z" fill="#B2B2B2"/>
<path d="M11.5215 20.1304V4.82605H12.478C14.0001 4.82605 15.4599 5.4307 16.5361 6.507C17.6125 7.5833 18.2171 9.04307 18.2171 10.5652V14.3913H19.4673C19.92 14.3912 20.3581 14.5517 20.7036 14.8441C21.0492 15.1366 21.2798 15.5422 21.3545 15.9887L22.0432 20.1304H11.5215Z" fill="#FFEF5E"/>
<path d="M17.8833 8.65213C17.488 7.53409 16.7561 6.56594 15.7881 5.88081C14.8202 5.19568 13.6639 4.82721 12.478 4.82605H11.5215V8.65213H17.8833Z" fill="#FFF9BF"/>
<path d="M15.2522 14.0365C15.2793 14.1383 15.3394 14.2282 15.4229 14.2924C15.5064 14.3566 15.6089 14.3914 15.7142 14.3914H18.2174V10.5653C18.2178 9.91364 18.1071 9.26671 17.8903 8.65222H13.8174L15.2522 14.0365Z" fill="#66E1FF"/>
<path d="M18.115 9.48535C18.0616 9.2023 17.9864 8.92377 17.8903 8.65222H13.8174L14.8944 12.7022L18.115 9.48535Z" fill="#C2F3FF"/>
<path d="M18.2177 22.0435C19.2743 22.0435 20.1308 21.187 20.1308 20.1304C20.1308 19.0739 19.2743 18.2174 18.2177 18.2174C17.1612 18.2174 16.3047 19.0739 16.3047 20.1304C16.3047 21.187 17.1612 22.0435 18.2177 22.0435Z" fill="#808080" stroke="#191919" stroke-linecap="round" stroke-linejoin="round"/>
<path d="M5.78261 20.1304H1" stroke="#191919" stroke-linecap="round" stroke-linejoin="round"/>
<path d="M7.69527 22.0435C8.75182 22.0435 9.60831 21.187 9.60831 20.1304C9.60831 19.0739 8.75182 18.2174 7.69527 18.2174C6.63872 18.2174 5.78223 19.0739 5.78223 20.1304C5.78223 21.187 6.63872 22.0435 7.69527 22.0435Z" fill="#808080" stroke="#191919" stroke-linecap="round" stroke-linejoin="round"/>
<path d="M16.3041 20.1304H9.6084" stroke="#191919" stroke-linecap="round" stroke-linejoin="round"/>
<path d="M23.0004 20.1304H20.1309" stroke="#191919" stroke-linecap="round" stroke-linejoin="round"/>
<path d="M11.5215 20.1304V4.82605H12.478C14.0001 4.82605 15.4599 5.4307 16.5361 6.507C17.6125 7.5833 18.2171 9.04307 18.2171 10.5652V14.3913H19.4673C19.92 14.3912 20.3581 14.5517 20.7036 14.8441C21.0492 15.1366 21.2798 15.5422 21.3545 15.9887L22.0432 20.1304" stroke="#191919" stroke-linecap="round" stroke-linejoin="round"/>
<path d="M11.5213 16.3043H2.43432C2.30747 16.3043 2.18582 16.3548 2.09614 16.4444C2.00644 16.5341 1.95605 16.6558 1.95605 16.7826V20.1304" stroke="#191919" stroke-linecap="round" stroke-linejoin="round"/>
<path d="M9.60908 16.3043V3.86959C9.60908 3.36222 9.40753 2.87563 9.04876 2.51686C8.68999 2.15809 8.2034 1.95654 7.69603 1.95654H7.21777" stroke="#191919" stroke-linecap="round" stroke-linejoin="round"/>
<path d="M17.89 8.65222H11.5215" stroke="#191919" stroke-linecap="round" stroke-linejoin="round"/>
<path d="M18.2174 14.3914H15.7151C15.6098 14.3914 15.5074 14.3566 15.4239 14.2924C15.3404 14.2282 15.2803 14.1383 15.2531 14.0365L13.8174 8.65222" stroke="#191919" stroke-linecap="round" stroke-linejoin="round"/>
</g>
<defs>
<clipPath id="clip0_5303_12236">
<rect width="24" height="24" fill="white"/>
</clipPath>
</defs>
</svg>
