<svg width="24" height="24" viewBox="0 0 24 24" fill="none" xmlns="http://www.w3.org/2000/svg">
<g clip-path="url(#clip0_5303_12202)">
<path d="M22.0435 18.2174C22.2972 18.2174 22.5405 18.1166 22.7198 17.9372C22.8992 17.7578 23 17.5145 23 17.2609V12.4783C23 11.8489 22.8537 11.229 22.5724 10.6666L20.6087 6.73909C20.3213 6.16425 19.8795 5.68081 19.3328 5.34292C18.7861 5.00503 18.1561 4.82606 17.5134 4.82605H2.91304C2.40567 4.82605 1.91908 5.0276 1.56032 5.38637C1.20155 5.74513 1 6.23172 1 6.73909V17.2609C1 17.5145 1.10078 17.7578 1.28016 17.9372C1.45954 18.1166 1.70284 18.2174 1.95652 18.2174H22.0435Z" fill="#FFEF5E"/>
<path d="M20.6087 6.73909C20.3213 6.16425 19.8795 5.68081 19.3328 5.34292C18.7861 5.00503 18.1561 4.82606 17.5134 4.82605H2.91304C2.40567 4.82605 1.91908 5.0276 1.56032 5.38637C1.20155 5.74513 1 6.23172 1 6.73909H20.6087Z" fill="#FFF9BF"/>
<path d="M20.6135 13.738L23 15.8261V12.4783C23 11.8489 22.8537 11.229 22.5724 10.6666L20.6087 6.73914H1V12.4783H17.2609C18.4941 12.478 19.6855 12.9257 20.6135 13.738Z" fill="#FFBC44"/>
<path d="M7.69578 10.5652H22.5219L20.6088 6.73914H6.73926V9.60871C6.73926 9.86239 6.84003 10.1057 7.01942 10.285C7.1988 10.4644 7.44209 10.5652 7.69578 10.5652Z" fill="#66E1FF"/>
<path d="M16.7827 6.73914H6.73926V9.60871C6.73926 9.86239 6.84003 10.1057 7.01942 10.285C7.1988 10.4644 7.44209 10.5652 7.69578 10.5652H12.9566L16.7827 6.73914Z" fill="#C2F3FF"/>
<path d="M6.47754 18.2174H15.6104" stroke="#191919" stroke-linecap="round" stroke-linejoin="round"/>
<path d="M18.9109 18.2174H22.0435C22.2972 18.2174 22.5405 18.1166 22.7198 17.9372C22.8992 17.7578 23 17.5145 23 17.2609V12.4783C23 11.8489 22.8537 11.229 22.5724 10.6666L20.6087 6.73909C20.3213 6.16425 19.8795 5.68081 19.3328 5.34292C18.7861 5.00503 18.1561 4.82606 17.5134 4.82605H2.91304C2.40567 4.82605 1.91908 5.0276 1.56032 5.38637C1.20155 5.74513 1 6.23172 1 6.73909V17.2609C1 17.5145 1.10078 17.7578 1.28016 17.9372C1.45954 18.1166 1.70284 18.2174 1.95652 18.2174H3.17609" stroke="#191919" stroke-linecap="round" stroke-linejoin="round"/>
<path d="M17.2607 19.1739C17.7681 19.1739 18.2547 18.9724 18.6134 18.6136C18.9722 18.2548 19.1737 17.7682 19.1737 17.2609C19.1737 16.7535 18.9722 16.2669 18.6134 15.9081C18.2547 15.5494 17.7681 15.3478 17.2607 15.3478C16.7533 15.3478 16.2667 15.5494 15.908 15.9081C15.5492 16.2669 15.3477 16.7535 15.3477 17.2609C15.3477 17.7682 15.5492 18.2548 15.908 18.6136C16.2667 18.9724 16.7533 19.1739 17.2607 19.1739Z" fill="#808080" stroke="#191919" stroke-linecap="round" stroke-linejoin="round"/>
<path d="M4.82613 19.1739C5.3335 19.1739 5.82009 18.9724 6.17886 18.6136C6.53762 18.2548 6.73917 17.7682 6.73917 17.2609C6.73917 16.7535 6.53762 16.2669 6.17886 15.9081C5.82009 15.5494 5.3335 15.3478 4.82613 15.3478C4.31876 15.3478 3.83217 15.5494 3.4734 15.9081C3.11464 16.2669 2.91309 16.7535 2.91309 17.2609C2.91309 17.7682 3.11464 18.2548 3.4734 18.6136C3.83217 18.9724 4.31876 19.1739 4.82613 19.1739Z" fill="#808080" stroke="#191919" stroke-linecap="round" stroke-linejoin="round"/>
<path d="M20.6087 6.73914H1" stroke="#191919" stroke-linecap="round" stroke-linejoin="round"/>
<path d="M23 15.8261L20.6087 13.738C19.6818 12.927 18.4924 12.4795 17.2609 12.4783H1" stroke="#191919" stroke-linecap="round" stroke-linejoin="round"/>
<path d="M4.82613 8.6521H2.91309" stroke="#191919" stroke-linecap="round" stroke-linejoin="round"/>
<path d="M4.82613 10.5652H2.91309" stroke="#191919" stroke-linecap="round" stroke-linejoin="round"/>
<path d="M6.73926 6.73914V9.60871C6.73926 9.86239 6.84003 10.1057 7.01942 10.285C7.1988 10.4644 7.44209 10.5652 7.69578 10.5652H22.5219" stroke="#191919" stroke-linecap="round" stroke-linejoin="round"/>
<path d="M11.5215 10.5652V6.73914" stroke="#191919" stroke-linecap="round" stroke-linejoin="round"/>
<path d="M17.2607 10.5652V6.73914" stroke="#191919" stroke-linecap="round" stroke-linejoin="round"/>
</g>
<defs>
<clipPath id="clip0_5303_12202">
<rect width="24" height="24" fill="white"/>
</clipPath>
</defs>
</svg>
