<svg width="24" height="24" viewBox="0 0 24 24" fill="none" xmlns="http://www.w3.org/2000/svg">
<path d="M1.95605 19.174V16.3044C1.95605 15.7971 2.1576 15.3105 2.51638 14.9517C2.87514 14.5929 3.36173 14.3914 3.8691 14.3914C4.37647 14.3914 4.86306 14.5929 5.22182 14.9517C5.58059 15.3105 5.78214 15.7971 5.78214 16.3044V19.174H1.95605Z" fill="#FF808C"/>
<path d="M3.8691 14.3914C3.36173 14.3914 2.87514 14.5929 2.51638 14.9517C2.1576 15.3105 1.95605 15.7971 1.95605 16.3044V18.4585C1.95605 17.9512 2.1576 17.4646 2.51638 17.1058C2.87514 16.747 3.36173 16.5455 3.8691 16.5455C4.37647 16.5455 4.86306 16.747 5.22182 17.1058C5.58059 17.4646 5.78214 17.9512 5.78214 18.4585V16.3044C5.78214 15.7971 5.58059 15.3105 5.22182 14.9517C4.86306 14.5929 4.37647 14.3914 3.8691 14.3914Z" fill="#FFBFC5"/>
<path d="M22.0429 19.174V16.3044C22.0429 15.7971 21.8413 15.3105 21.4826 14.9517C21.1238 14.5929 20.6372 14.3914 20.1298 14.3914C19.6225 14.3914 19.1359 14.5929 18.7771 14.9517C18.4183 15.3105 18.2168 15.7971 18.2168 16.3044V19.174H22.0429Z" fill="#FF808C"/>
<path d="M20.1298 14.3914C19.6225 14.3914 19.1359 14.5929 18.7771 14.9517C18.4183 15.3105 18.2168 15.7971 18.2168 16.3044V18.4585C18.2168 17.9512 18.4183 17.4646 18.7771 17.1058C19.1359 16.747 19.6225 16.5455 20.1298 16.5455C20.6372 16.5455 21.1238 16.747 21.4826 17.1058C21.8413 17.4646 22.0429 17.9512 22.0429 18.4585V16.3044C22.0429 15.7971 21.8413 15.3105 21.4826 14.9517C21.1238 14.5929 20.6372 14.3914 20.1298 14.3914Z" fill="#FFBFC5"/>
<path d="M5.79657 10.5699C5.78702 10.6233 5.78222 10.6773 5.78223 10.7316V18.2173C5.78223 18.7246 5.98378 19.2112 6.34255 19.57C6.70131 19.9288 7.1879 20.1303 7.69527 20.1303H16.304C16.8113 20.1303 17.2979 19.9288 17.6567 19.57C18.0155 19.2112 18.217 18.7246 18.217 18.2173V10.7277C18.2172 10.6748 18.2131 10.6221 18.2046 10.5699H5.79657Z" fill="#FF808C"/>
<path d="M11.9996 10.5699H5.79657C5.78702 10.6233 5.78222 10.6773 5.78223 10.7316V18.2173C5.78223 18.7246 5.98378 19.2112 6.34255 19.57C6.70131 19.9288 7.1879 20.1303 7.69527 20.1303H11.9996V10.5699Z" fill="#FFBFC5"/>
<path d="M18.2049 10.57C18.1963 10.5166 18.1828 10.4641 18.1647 10.4131L15.9982 4.19578C15.9656 4.10181 15.9044 4.02036 15.8233 3.96275C15.7422 3.90514 15.6452 3.87426 15.5457 3.87439H8.51148C8.4128 3.87437 8.31653 3.90489 8.23587 3.96174C8.15522 4.0186 8.09411 4.09901 8.06096 4.19196L5.83801 10.4103C5.81994 10.4623 5.80618 10.5158 5.79688 10.57H18.2049Z" fill="#66E1FF"/>
<path d="M15.7734 3.92702C15.7033 3.88961 15.6251 3.86991 15.5457 3.86963H8.51148C8.4128 3.86962 8.31653 3.90013 8.23587 3.95698C8.15522 4.01383 8.09411 4.09425 8.06096 4.18719L5.83801 10.4104C5.81994 10.4624 5.80618 10.5158 5.79688 10.5701H9.13035L15.7734 3.92702Z" fill="#C2F3FF"/>
<path d="M15.5456 3.86963C15.6451 3.86949 15.7421 3.90038 15.8232 3.95799C15.9043 4.01559 15.9654 4.09705 15.998 4.19102L18.1646 10.4085C18.1998 10.5097 18.2176 10.616 18.2172 10.7231V18.2175C18.2172 18.7248 18.0156 19.2114 17.6568 19.5702C17.2981 19.929 16.8115 20.1305 16.3041 20.1305H13.4346" stroke="#191919" stroke-linecap="round" stroke-linejoin="round"/>
<path d="M10.5648 20.1305H7.69527C7.1879 20.1305 6.70131 19.929 6.34255 19.5702C5.98378 19.2114 5.78223 18.7248 5.78223 18.2175V10.7318C5.78237 10.6222 5.80113 10.5136 5.8377 10.4104C6.19066 9.42415 8.09988 4.07815 8.06066 4.18719C8.09381 4.09425 8.15492 4.01383 8.23557 3.95698C8.31623 3.90013 8.4125 3.86962 8.51118 3.86963" stroke="#191919" stroke-linecap="round" stroke-linejoin="round"/>
<path d="M10.5645 18.6957C10.5645 18.3152 10.7156 17.9501 10.9847 17.6811C11.2537 17.412 11.6187 17.2609 11.9992 17.2609C12.3797 17.2609 12.7447 17.412 13.0138 17.6811C13.2829 17.9501 13.434 18.3152 13.434 18.6957V21.5652C13.434 21.9457 13.2829 22.3107 13.0138 22.5798C12.7447 22.8489 12.3797 23 11.9992 23C11.6187 23 11.2537 22.8489 10.9847 22.5798C10.7156 22.3107 10.5645 21.9457 10.5645 21.5652V18.6957Z" fill="#808080"/>
<path d="M11.9992 17.2609C11.6187 17.2609 11.2537 17.412 10.9847 17.6811C10.7156 17.9501 10.5645 18.3152 10.5645 18.6957V20.6087C10.5645 20.2282 10.7156 19.8632 10.9847 19.5941C11.2537 19.325 11.6187 19.1739 11.9992 19.1739C12.3797 19.1739 12.7447 19.325 13.0138 19.5941C13.2829 19.8632 13.434 20.2282 13.434 20.6087V18.6957C13.434 18.3152 13.2829 17.9501 13.0138 17.6811C12.7447 17.412 12.3797 17.2609 11.9992 17.2609Z" fill="#B2B2B2"/>
<path d="M10.5645 18.6957C10.5645 18.3152 10.7156 17.9501 10.9847 17.6811C11.2537 17.412 11.6187 17.2609 11.9992 17.2609C12.3797 17.2609 12.7447 17.412 13.0138 17.6811C13.2829 17.9501 13.434 18.3152 13.434 18.6957V21.5652C13.434 21.9457 13.2829 22.3107 13.0138 22.5798C12.7447 22.8489 12.3797 23 11.9992 23C11.6187 23 11.2537 22.8489 10.9847 22.5798C10.7156 22.3107 10.5645 21.9457 10.5645 21.5652V18.6957Z" stroke="#191919" stroke-linecap="round" stroke-linejoin="round"/>
<path d="M5.78223 10.5652H18.2027" stroke="#191919" stroke-linecap="round" stroke-linejoin="round"/>
<path d="M6.26074 3.86963H17.739" stroke="#191919" stroke-linecap="round" stroke-linejoin="round"/>
<path d="M14.391 3.86957V1.95652C14.391 1.70283 14.2902 1.45954 14.1108 1.28016C13.9315 1.10078 13.6882 1 13.4345 1H10.5649C10.3113 1 10.0679 1.10078 9.88855 1.28016C9.70918 1.45954 9.6084 1.70283 9.6084 1.95652V3.86957H14.391Z" fill="#FFEF5E" stroke="#191919" stroke-linecap="round" stroke-linejoin="round"/>
<path d="M15.8257 15.3478C16.3539 15.3478 16.7822 14.9196 16.7822 14.3913C16.7822 13.863 16.3539 13.4348 15.8257 13.4348C15.2974 13.4348 14.8691 13.863 14.8691 14.3913C14.8691 14.9196 15.2974 15.3478 15.8257 15.3478Z" fill="#FFEF5E" stroke="#191919" stroke-linecap="round" stroke-linejoin="round"/>
<path d="M8.17332 15.3478C8.70159 15.3478 9.12984 14.9196 9.12984 14.3913C9.12984 13.863 8.70159 13.4348 8.17332 13.4348C7.64505 13.4348 7.2168 13.863 7.2168 14.3913C7.2168 14.9196 7.64505 15.3478 8.17332 15.3478Z" fill="#FFEF5E" stroke="#191919" stroke-linecap="round" stroke-linejoin="round"/>
<path d="M4.82562 19.174V21.5653C4.82562 21.9458 4.67445 22.3107 4.40538 22.5798C4.13631 22.8489 3.77136 23 3.39084 23C3.01031 23 2.64536 22.8489 2.37629 22.5798C2.10722 22.3107 1.95605 21.9458 1.95605 21.5653V19.174H4.82562Z" fill="#808080" stroke="#191919" stroke-linecap="round" stroke-linejoin="round"/>
<path d="M1.95605 19.174V16.3044C1.95605 15.7971 2.1576 15.3105 2.51638 14.9517C2.87514 14.5929 3.36173 14.3914 3.8691 14.3914C4.37647 14.3914 4.86306 14.5929 5.22182 14.9517C5.58059 15.3105 5.78214 15.7971 5.78214 16.3044V19.174H1.95605Z" stroke="#191919" stroke-linecap="round" stroke-linejoin="round"/>
<path d="M19.1738 19.174V21.5653C19.1738 21.9458 19.325 22.3107 19.594 22.5798C19.8631 22.8489 20.2281 23 20.6086 23C20.9891 23 21.3541 22.8489 21.6232 22.5798C21.8923 22.3107 22.0434 21.9458 22.0434 21.5653V19.174H19.1738Z" fill="#808080" stroke="#191919" stroke-linecap="round" stroke-linejoin="round"/>
<path d="M22.0429 19.174V16.3044C22.0429 15.7971 21.8413 15.3105 21.4826 14.9517C21.1238 14.5929 20.6372 14.3914 20.1298 14.3914C19.6225 14.3914 19.1359 14.5929 18.7771 14.9517C18.4183 15.3105 18.2168 15.7971 18.2168 16.3044V19.174H22.0429Z" stroke="#191919" stroke-linecap="round" stroke-linejoin="round"/>
</svg>
