<svg width="24" height="24" viewBox="0 0 24 24" fill="none" xmlns="http://www.w3.org/2000/svg">
<path d="M11.0896 22.0414C15.6262 22.0414 19.3038 18.3637 19.3038 13.8272C19.3038 9.29064 15.6262 5.61304 11.0896 5.61304C6.55309 5.61304 2.87549 9.29064 2.87549 13.8272C2.87549 18.3637 6.55309 22.0414 11.0896 22.0414Z" fill="#FFBFC5"/>
<path d="M2.41895 1.50427V7.89306H8.80772" stroke="#191919" stroke-linecap="round" stroke-linejoin="round"/>
<path d="M2.41895 7.89482C4.06635 5.62904 6.54098 4.10451 9.3056 3.6522C12.0703 3.19988 14.9017 3.85631 17.1853 5.47895C18.5364 6.4447 19.6393 7.71709 20.4033 9.19168C21.1673 10.6663 21.5709 12.3011 21.5807 13.9618C21.5905 15.6226 21.2063 17.262 20.4597 18.7455C19.7131 20.229 18.6252 21.5143 17.2856 22.4959" stroke="#191919" stroke-linecap="round" stroke-linejoin="round"/>
</svg>
