<svg width="24" height="24" viewBox="0 0 24 24" fill="none" xmlns="http://www.w3.org/2000/svg">
<g clip-path="url(#clip0_5303_6392)">
<path d="M20.6088 2.43457H3.39146C3.13777 2.43457 2.89448 2.53535 2.7151 2.71473C2.53571 2.89411 2.43494 3.13741 2.43494 3.39109V20.6085C2.43494 20.8622 2.53571 21.1055 2.7151 21.2848C2.89448 21.4642 3.13777 21.565 3.39146 21.565H20.6088C20.8625 21.565 21.1058 21.4642 21.2852 21.2848C21.4646 21.1055 21.5654 20.8622 21.5654 20.6085V3.39109C21.5654 3.13741 21.4646 2.89411 21.2852 2.71473C21.1058 2.53535 20.8625 2.43457 20.6088 2.43457Z" fill="#78EB7B"/>
<path d="M12.4784 4.82568V19.1735" stroke="#191919" stroke-linecap="round" stroke-linejoin="round"/>
<path d="M17.7391 10.0866L12.4783 4.82568L7.21741 10.0866" stroke="#191919" stroke-linecap="round" stroke-linejoin="round"/>
<path d="M17.2609 1H22.0435C22.2972 1 22.5405 1.10078 22.7198 1.28016C22.8992 1.45954 23 1.70284 23 1.95652V22.0435C23 22.2972 22.8992 22.5405 22.7198 22.7198C22.5405 22.8992 22.2972 23 22.0435 23H17.2609" stroke="#191919" stroke-linecap="round" stroke-linejoin="round"/>
<path d="M6.73925 1H1.95664C1.70296 1 1.45966 1.10078 1.28028 1.28016C1.1009 1.45954 1.00012 1.70284 1.00012 1.95652V22.0435C1.00012 22.2972 1.1009 22.5405 1.28028 22.7198C1.45966 22.8992 1.70296 23 1.95664 23H6.73925" stroke="#191919" stroke-linecap="round" stroke-linejoin="round"/>
</g>
<defs>
<clipPath id="clip0_5303_6392">
<rect width="24" height="24" fill="white"/>
</clipPath>
</defs>
</svg>
