<svg width="24" height="24" viewBox="0 0 24 24" fill="none" xmlns="http://www.w3.org/2000/svg">
<g clip-path="url(#clip0_5303_6578)">
<path d="M22.0435 1H1.95652C1.70284 1 1.45954 1.10078 1.28016 1.28016C1.10078 1.45954 1 1.70284 1 1.95652V22.0435C1 22.2972 1.10078 22.5405 1.28016 22.7198C1.45954 22.8992 1.70284 23 1.95652 23H22.0435C22.2972 23 22.5405 22.8992 22.7198 22.7198C22.8992 22.5405 23 22.2972 23 22.0435V1.95652C23 1.70284 22.8992 1.45954 22.7198 1.28016C22.5405 1.10078 22.2972 1 22.0435 1Z" fill="#78EB7B"/>
<path d="M12 1H1.95652C1.70284 1 1.45954 1.10078 1.28016 1.28016C1.10078 1.45954 1 1.70284 1 1.95652V22.0435C1 22.2972 1.10078 22.5405 1.28016 22.7198C1.45954 22.8992 1.70284 23 1.95652 23H12V1Z" fill="#C9F7CA"/>
<path d="M22.0435 1H1.95652C1.70284 1 1.45954 1.10078 1.28016 1.28016C1.10078 1.45954 1 1.70284 1 1.95652V22.0435C1 22.2972 1.10078 22.5405 1.28016 22.7198C1.45954 22.8992 1.70284 23 1.95652 23H22.0435C22.2972 23 22.5405 22.8992 22.7198 22.7198C22.8992 22.5405 23 22.2972 23 22.0435V1.95652C23 1.70284 22.8992 1.45954 22.7198 1.28016C22.5405 1.10078 22.2972 1 22.0435 1Z" stroke="#191919" stroke-linecap="round" stroke-linejoin="round"/>
<path d="M14.3913 16.3042H9.60864V19.1738H14.3913V16.3042Z" fill="white"/>
<path d="M9.6085 14.3917V10.5656H7.2172C6.69111 10.5656 6.56485 10.2614 6.93694 9.88932L11.3235 5.50271C11.5029 5.32339 11.7462 5.22266 11.9998 5.22266C12.2534 5.22266 12.4967 5.32339 12.6761 5.50271L17.0627 9.88932C17.4348 10.2614 17.3085 10.5656 16.7824 10.5656H14.3911V14.3917" fill="white"/>
<path d="M9.6085 14.3917V10.5656H7.2172C6.69111 10.5656 6.56485 10.2614 6.93694 9.88932L11.3235 5.50271C11.5029 5.32339 11.7462 5.22266 11.9998 5.22266C12.2534 5.22266 12.4967 5.32339 12.6761 5.50271L17.0627 9.88932C17.4348 10.2614 17.3085 10.5656 16.7824 10.5656H14.3911V14.3917" stroke="#191919" stroke-linecap="round" stroke-linejoin="round"/>
<path d="M9.60864 16.3042V19.1738" stroke="#191919" stroke-linecap="round" stroke-linejoin="round"/>
<path d="M14.3911 16.3042V19.1738" stroke="#191919" stroke-linecap="round" stroke-linejoin="round"/>
</g>
<defs>
<clipPath id="clip0_5303_6578">
<rect width="24" height="24" fill="white"/>
</clipPath>
</defs>
</svg>
