<svg width="24" height="24" viewBox="0 0 24 24" fill="none" xmlns="http://www.w3.org/2000/svg">
<g clip-path="url(#clip0_5303_5818)">
<path d="M12.0002 23C13.3209 23 14.3915 21.9294 14.3915 20.6087C14.3915 19.288 13.3209 18.2174 12.0002 18.2174C10.6795 18.2174 9.60889 19.288 9.60889 20.6087C9.60889 21.9294 10.6795 23 12.0002 23Z" fill="#FFEF5E"/>
<path d="M12.0002 23C11.366 23 10.7578 22.7481 10.3093 22.2997C9.86083 21.8511 9.60889 21.2429 9.60889 20.6087C9.60889 19.9745 9.86083 19.3663 10.3093 18.9178C10.7578 18.4694 11.366 18.2174 12.0002 18.2174V23Z" fill="#FFF9BF"/>
<path d="M12.0002 23C13.3209 23 14.3915 21.9294 14.3915 20.6087C14.3915 19.288 13.3209 18.2174 12.0002 18.2174C10.6795 18.2174 9.60889 19.288 9.60889 20.6087C9.60889 21.9294 10.6795 23 12.0002 23Z" stroke="#191919" stroke-linecap="round" stroke-linejoin="round"/>
<path d="M12 18.2174V1" stroke="#191919" stroke-linecap="round" stroke-linejoin="round"/>
<path d="M14.3915 3.3913L12.0002 1L9.60889 3.3913" stroke="#191919" stroke-linecap="round" stroke-linejoin="round"/>
<path d="M12 13.913L15.015 12.0287C15.2514 11.8614 15.4472 11.6429 15.5876 11.3895C15.728 11.1362 15.8095 10.8545 15.8261 10.5652V8.65216" stroke="#191919" stroke-linecap="round" stroke-linejoin="round"/>
<path d="M11.9999 15.8261L8.98496 13.9417C8.74847 13.7744 8.55274 13.556 8.4123 13.3026C8.27187 13.0492 8.19036 12.7675 8.17383 12.4783V10.5652" stroke="#191919" stroke-linecap="round" stroke-linejoin="round"/>
<path d="M16.7824 5.78259H14.8694C14.6053 5.78259 14.3911 5.99672 14.3911 6.26085V8.1739C14.3911 8.43803 14.6053 8.65216 14.8694 8.65216H16.7824C17.0465 8.65216 17.2607 8.43803 17.2607 8.1739V6.26085C17.2607 5.99672 17.0465 5.78259 16.7824 5.78259Z" fill="#FFEF5E" stroke="#191919" stroke-linecap="round" stroke-linejoin="round"/>
<path d="M8.17404 10.5652C8.96645 10.5652 9.60882 9.92284 9.60882 9.13043C9.60882 8.33802 8.96645 7.69565 8.17404 7.69565C7.38163 7.69565 6.73926 8.33802 6.73926 9.13043C6.73926 9.92284 7.38163 10.5652 8.17404 10.5652Z" fill="#FFF9BF" stroke="#191919" stroke-linecap="round" stroke-linejoin="round"/>
</g>
<defs>
<clipPath id="clip0_5303_5818">
<rect width="24" height="24" fill="white"/>
</clipPath>
</defs>
</svg>
