<svg width="24" height="24" viewBox="0 0 24 24" fill="none" xmlns="http://www.w3.org/2000/svg">
<g clip-path="url(#clip0_5303_5628)">
<path d="M4.82617 13.517C4.82623 13.7707 4.92704 14.014 5.10643 14.1933L7.69574 16.7826V19.2141C7.69574 19.4678 7.79652 19.7111 7.9759 19.8905C8.15529 20.0698 8.39858 20.1706 8.65227 20.1706H15.3479C15.6016 20.1706 15.8449 20.0698 16.0243 19.8905C16.2036 19.7111 16.3045 19.4678 16.3045 19.2141V16.7826L18.8938 14.1933C19.0732 14.014 19.1739 13.7707 19.174 13.517V9.60869C19.174 9.10133 18.9725 8.61473 18.6137 8.25597C18.2549 7.8972 17.7683 7.69565 17.261 7.69565H6.73922C6.23185 7.69565 5.74526 7.8972 5.38649 8.25597C5.02772 8.61473 4.82617 9.10133 4.82617 9.60869V13.517Z" fill="white"/>
<path d="M15.348 17.7793H8.65232C8.39863 17.7793 8.15534 17.6785 7.97596 17.4992C7.79658 17.3198 7.6958 17.0765 7.6958 16.8228V19.2141C7.6958 19.4678 7.79658 19.7111 7.97596 19.8905C8.15534 20.0698 8.39863 20.1706 8.65232 20.1706H15.348C15.6017 20.1706 15.845 20.0698 16.0243 19.8905C16.2037 19.7111 16.3045 19.4678 16.3045 19.2141V16.8228C16.3045 17.0765 16.2037 17.3198 16.0243 17.4992C15.845 17.6785 15.6017 17.7793 15.348 17.7793Z" fill="#E3E3E3"/>
<path d="M4.82617 13.517C4.82623 13.7707 4.92704 14.014 5.10643 14.1933L7.69574 16.7826V19.2141C7.69574 19.4678 7.79652 19.7111 7.9759 19.8905C8.15529 20.0698 8.39858 20.1706 8.65227 20.1706H15.3479C15.6016 20.1706 15.8449 20.0698 16.0243 19.8905C16.2036 19.7111 16.3045 19.4678 16.3045 19.2141V16.7826L18.8938 14.1933C19.0732 14.014 19.1739 13.7707 19.174 13.517V9.60869C19.174 9.10133 18.9725 8.61473 18.6137 8.25597C18.2549 7.8972 17.7683 7.69565 17.261 7.69565H6.73922C6.23185 7.69565 5.74526 7.8972 5.38649 8.25597C5.02772 8.61473 4.82617 9.10133 4.82617 9.60869V13.517Z" stroke="#191919" stroke-linecap="round" stroke-linejoin="round"/>
<path d="M16.3045 1.95652C16.3045 1.70283 16.2037 1.45954 16.0243 1.28016C15.845 1.10078 15.6017 1 15.348 1H8.65232C8.39863 1 8.15534 1.10078 7.97596 1.28016C7.79658 1.45954 7.6958 1.70283 7.6958 1.95652V7.69566H16.3045V1.95652Z" fill="#E3E3E3" stroke="#191919" stroke-linecap="round" stroke-linejoin="round"/>
<path d="M13.435 2.91302H10.5654C10.0371 2.91302 9.60889 3.34128 9.60889 3.86955V4.82607C9.60889 5.35434 10.0371 5.78259 10.5654 5.78259H13.435C13.9633 5.78259 14.3915 5.35434 14.3915 4.82607V3.86955C14.3915 3.34128 13.9633 2.91302 13.435 2.91302Z" fill="#808080" stroke="#191919" stroke-linecap="round" stroke-linejoin="round"/>
<path d="M12 20.1706V23" stroke="#191919" stroke-linecap="round" stroke-linejoin="round"/>
<path d="M9.13037 13.4348H14.8695L11.9999 10.087L9.13037 13.4348Z" fill="#78EB7B" stroke="#191919" stroke-linecap="round" stroke-linejoin="round"/>
</g>
<defs>
<clipPath id="clip0_5303_5628">
<rect width="24" height="24" fill="white"/>
</clipPath>
</defs>
</svg>
