<svg width="24" height="24" viewBox="0 0 24 24" fill="none" xmlns="http://www.w3.org/2000/svg">
<g clip-path="url(#clip0_5303_8507)">
<path d="M7.70703 16.3047C7.70703 15.1635 8.1603 14.0692 8.96718 13.2624C9.77407 12.4555 10.8684 12.0022 12.0095 12.0022C13.1506 12.0022 14.245 12.4555 15.0518 13.2624C15.8587 14.0692 16.312 15.1635 16.312 16.3047H7.70703Z" fill="#66E1FF" stroke="#191919" stroke-linecap="round" stroke-linejoin="round"/>
<path d="M12.0087 11.0461C13.4609 11.0461 14.638 9.86894 14.638 8.4168C14.638 6.96465 13.4609 5.78748 12.0087 5.78748C10.5566 5.78748 9.37939 6.96465 9.37939 8.4168C9.37939 9.86894 10.5566 11.0461 12.0087 11.0461Z" fill="#FFDDA1" stroke="#191919" stroke-linecap="round" stroke-linejoin="round"/>
<path d="M16.7754 7.24079L19.747 4.29028" stroke="#191919" stroke-linecap="round" stroke-linejoin="round"/>
<path d="M17.6948 17.7189L19.716 19.7535" stroke="#191919" stroke-linecap="round" stroke-linejoin="round"/>
<path d="M7.21474 7.24079L4.24414 4.29028" stroke="#191919" stroke-linecap="round" stroke-linejoin="round"/>
<path d="M2.91226 4.83139C3.96835 4.83139 4.82443 3.97531 4.82443 2.91922C4.82443 1.86313 3.96835 1.00696 2.91226 1.00696C1.85617 1.00696 1 1.86313 1 2.91922C1 3.97531 1.85617 4.83139 2.91226 4.83139Z" fill="#FFEF5E"/>
<path d="M2.91665 2.5368C3.28757 2.53806 3.65011 2.64726 3.96013 2.85096C4.27005 3.05466 4.51412 3.34414 4.66251 3.68406C4.77071 3.44351 4.82738 3.18296 4.82882 2.91925C4.82954 2.63455 4.76657 2.35337 4.64476 2.09606C4.52286 1.83884 4.3451 1.61207 4.12437 1.43224C3.90373 1.2525 3.6457 1.12421 3.36911 1.0569C3.09252 0.989515 2.80439 0.98474 2.52573 1.04294C2.24707 1.10114 1.98498 1.22079 1.75849 1.39323C1.53199 1.56558 1.34684 1.7864 1.21648 2.03948C1.0862 2.29255 1.01403 2.57158 1.0053 2.85609C0.996552 3.14061 1.05151 3.42351 1.16602 3.68406C1.31468 3.34342 1.55947 3.0534 1.87038 2.84961C2.1813 2.6459 2.54492 2.53716 2.91665 2.5368Z" fill="#FFF9BF"/>
<path d="M2.91226 4.83139C3.96835 4.83139 4.82443 3.97531 4.82443 2.91922C4.82443 1.86313 3.96835 1.00696 2.91226 1.00696C1.85617 1.00696 1 1.86313 1 2.91922C1 3.97531 1.85617 4.83139 2.91226 4.83139Z" stroke="#191919" stroke-linecap="round" stroke-linejoin="round"/>
<path d="M2.91226 13.4364C3.96835 13.4364 4.82443 12.5803 4.82443 11.5242C4.82443 10.4681 3.96835 9.61194 2.91226 9.61194C1.85617 9.61194 1 10.4681 1 11.5242C1 12.5803 1.85617 13.4364 2.91226 13.4364Z" fill="#FFEF5E"/>
<path d="M2.91656 11.1418C3.28829 11.1421 3.65183 11.2509 3.96274 11.4546C4.27366 11.6584 4.51845 11.9483 4.66719 12.2891C4.77377 12.0481 4.82882 11.7877 4.82873 11.5242C4.82945 11.2396 4.76648 10.9583 4.64467 10.7011C4.52277 10.4438 4.34501 10.217 4.12428 10.0372C3.90364 9.85748 3.64561 9.72919 3.36902 9.66189C3.09243 9.59449 2.80431 9.58972 2.52564 9.64792C2.24707 9.70612 1.9849 9.82577 1.7584 9.99821C1.5319 10.1707 1.34676 10.3914 1.21648 10.6445C1.08611 10.8976 1.01404 11.1766 1.0053 11.4611C0.996554 11.7456 1.05142 12.0285 1.16594 12.2891C1.31459 11.9483 1.55938 11.6584 1.87029 11.4546C2.18121 11.2509 2.54483 11.1421 2.91656 11.1418Z" fill="#FFF9BF"/>
<path d="M2.91226 13.4364C3.96835 13.4364 4.82443 12.5803 4.82443 11.5242C4.82443 10.4681 3.96835 9.61194 2.91226 9.61194C1.85617 9.61194 1 10.4681 1 11.5242C1 12.5803 1.85617 13.4364 2.91226 13.4364Z" stroke="#191919" stroke-linecap="round" stroke-linejoin="round"/>
<path d="M2.91226 22.9975C3.96835 22.9975 4.82443 22.1414 4.82443 21.0853C4.82443 20.0291 3.96835 19.1731 2.91226 19.1731C1.85617 19.1731 1 20.0292 1 21.0853C1 22.1414 1.85617 22.9975 2.91226 22.9975Z" fill="#FFEF5E"/>
<path d="M2.91656 20.7028C3.28829 20.7033 3.65183 20.812 3.96274 21.0157C4.27366 21.2195 4.51845 21.5096 4.66719 21.8502C4.77377 21.6093 4.82882 21.3487 4.82873 21.0853C4.82945 20.8007 4.76648 20.5195 4.64467 20.2622C4.52277 20.0049 4.34501 19.7781 4.12428 19.5984C3.90364 19.4186 3.64561 19.2903 3.36902 19.223C3.09243 19.1557 2.80431 19.1509 2.52564 19.2091C2.24707 19.2673 1.9849 19.3869 1.7584 19.5593C1.5319 19.7318 1.34676 19.9525 1.21648 20.2056C1.08611 20.4587 1.01404 20.7377 1.0053 21.0222C0.996554 21.3068 1.05142 21.5896 1.16594 21.8502C1.31459 21.5096 1.55938 21.2195 1.87029 21.0157C2.18121 20.812 2.54483 20.7033 2.91656 20.7028Z" fill="#FFF9BF"/>
<path d="M2.91226 22.9975C3.96835 22.9975 4.82443 22.1414 4.82443 21.0853C4.82443 20.0291 3.96835 19.1731 2.91226 19.1731C1.85617 19.1731 1 20.0292 1 21.0853C1 22.1414 1.85617 22.9975 2.91226 22.9975Z" stroke="#191919" stroke-linecap="round" stroke-linejoin="round"/>
<path d="M21.0879 22.9975C22.1441 22.9975 23.0002 22.1414 23.0002 21.0853C23.0002 20.0291 22.1441 19.1731 21.0879 19.1731C20.0318 19.1731 19.1758 20.0292 19.1758 21.0853C19.1758 22.1414 20.0319 22.9975 21.0879 22.9975Z" fill="#FFEF5E"/>
<path d="M21.088 20.7028C21.4597 20.7033 21.8233 20.8119 22.1343 21.0157C22.4453 21.2195 22.69 21.5094 22.8386 21.8502C22.9666 21.5592 23.0198 21.2408 22.9938 20.9239C22.9677 20.6071 22.863 20.3018 22.6892 20.0355C22.5154 19.7694 22.278 19.5507 21.9984 19.3993C21.7188 19.248 21.4059 19.1687 21.088 19.1687C20.77 19.1687 20.4571 19.248 20.1776 19.3993C19.898 19.5507 19.6606 19.7694 19.4868 20.0355C19.313 20.3018 19.2083 20.6071 19.1822 20.9239C19.1562 21.2408 19.2094 21.5592 19.3374 21.8502C19.4861 21.5094 19.7308 21.2195 20.0417 21.0157C20.3527 20.8119 20.7163 20.7033 21.088 20.7028Z" fill="#FFF9BF"/>
<path d="M21.0879 22.9975C22.1441 22.9975 23.0002 22.1414 23.0002 21.0853C23.0002 20.0291 22.1441 19.1731 21.0879 19.1731C20.0318 19.1731 19.1758 20.0292 19.1758 21.0853C19.1758 22.1414 20.0319 22.9975 21.0879 22.9975Z" stroke="#191919" stroke-linecap="round" stroke-linejoin="round"/>
<path d="M21.0879 13.4364C22.1441 13.4364 23.0002 12.5803 23.0002 11.5242C23.0002 10.4681 22.1441 9.61194 21.0879 9.61194C20.0318 9.61194 19.1758 10.4681 19.1758 11.5242C19.1758 12.5803 20.0319 13.4364 21.0879 13.4364Z" fill="#FFEF5E"/>
<path d="M21.088 11.1418C21.4597 11.1421 21.8233 11.2509 22.1343 11.4546C22.4453 11.6585 22.69 11.9483 22.8386 12.2891C22.9666 11.998 23.0198 11.6796 22.9938 11.3629C22.9677 11.046 22.863 10.7407 22.6892 10.4744C22.5154 10.2082 22.278 9.98954 21.9984 9.83819C21.7188 9.68683 21.4059 9.60754 21.088 9.60754C20.77 9.60754 20.4571 9.68683 20.1776 9.83819C19.898 9.98954 19.6606 10.2082 19.4868 10.4744C19.313 10.7407 19.2083 11.046 19.1822 11.3629C19.1562 11.6796 19.2094 11.998 19.3374 12.2891C19.4861 11.9483 19.7308 11.6585 20.0417 11.4546C20.3527 11.2509 20.7163 11.1421 21.088 11.1418Z" fill="#FFF9BF"/>
<path d="M21.0879 13.4364C22.1441 13.4364 23.0002 12.5803 23.0002 11.5242C23.0002 10.4681 22.1441 9.61194 21.0879 9.61194C20.0318 9.61194 19.1758 10.4681 19.1758 11.5242C19.1758 12.5803 20.0319 13.4364 21.0879 13.4364Z" stroke="#191919" stroke-linecap="round" stroke-linejoin="round"/>
<path d="M21.0879 4.83139C22.1441 4.83139 23.0002 3.97531 23.0002 2.91922C23.0002 1.86313 22.1441 1.00696 21.0879 1.00696C20.0318 1.00696 19.1758 1.86313 19.1758 2.91922C19.1758 3.97531 20.0319 4.83139 21.0879 4.83139Z" fill="#FFEF5E"/>
<path d="M21.088 2.53679C21.4597 2.53715 21.8233 2.64589 22.1343 2.84959C22.4453 3.05339 22.69 3.3434 22.8386 3.68405C22.9666 3.39304 23.0198 3.07465 22.9938 2.75779C22.9677 2.44101 22.863 2.13568 22.6892 1.86945C22.5154 1.60322 22.278 1.38456 21.9984 1.23321C21.7188 1.08185 21.4059 1.00256 21.088 1.00256C20.77 1.00256 20.4571 1.08185 20.1776 1.23321C19.898 1.38456 19.6606 1.60322 19.4868 1.86945C19.313 2.13568 19.2083 2.44101 19.1822 2.75779C19.1562 3.07465 19.2094 3.39304 19.3374 3.68405C19.4861 3.3434 19.7308 3.05339 20.0417 2.84959C20.3527 2.64589 20.7163 2.53715 21.088 2.53679Z" fill="#FFF9BF"/>
<path d="M21.0879 4.83139C22.1441 4.83139 23.0002 3.97531 23.0002 2.91922C23.0002 1.86313 22.1441 1.00696 21.0879 1.00696C20.0318 1.00696 19.1758 1.86313 19.1758 2.91922C19.1758 3.97531 20.0319 4.83139 21.0879 4.83139Z" stroke="#191919" stroke-linecap="round" stroke-linejoin="round"/>
<path d="M6.29415 17.7189L4.27197 19.7535" stroke="#191919" stroke-linecap="round" stroke-linejoin="round"/>
<path d="M16.2979 11.5243H19.1662" stroke="#191919" stroke-linecap="round" stroke-linejoin="round"/>
<path d="M7.69207 11.5243H4.82373" stroke="#191919" stroke-linecap="round" stroke-linejoin="round"/>
</g>
<defs>
<clipPath id="clip0_5303_8507">
<rect width="24" height="24" fill="white"/>
</clipPath>
</defs>
</svg>
