<svg width="24" height="24" viewBox="0 0 24 24" fill="none" xmlns="http://www.w3.org/2000/svg">
<g clip-path="url(#clip0_5303_8768)">
<path d="M18.2172 16.3043C19.1631 16.3043 20.0877 16.0238 20.8743 15.4983C21.6607 14.9727 22.2738 14.2258 22.6357 13.3519C22.9976 12.4781 23.0925 11.5165 22.9079 10.5888C22.7233 9.66098 22.2678 8.80878 21.599 8.13995C20.9302 7.47113 20.078 7.01556 19.1502 6.83107C18.2224 6.64648 17.2609 6.74121 16.3869 7.10317C15.5131 7.46522 14.7661 8.07821 14.2407 8.86472C13.715 9.65114 13.4346 10.5759 13.4346 11.5218C13.4346 12.7902 13.9385 14.0067 14.8354 14.9035C15.7323 15.8005 16.9488 16.3043 18.2172 16.3043Z" fill="#FFEF5E"/>
<path d="M18.2171 6.73914C17.2722 6.73951 16.3486 7.01977 15.5629 7.54458C14.7772 8.0693 14.1644 8.81505 13.8021 9.68777C13.4398 10.5603 13.3441 11.5208 13.5271 12.4477C13.7099 13.3748 14.1634 14.2268 14.83 14.8963L21.5917 8.13376C21.1483 7.69103 20.6222 7.34003 20.0432 7.10072C19.4641 6.86142 18.8436 6.73858 18.2171 6.73914Z" fill="#FFF9BF"/>
<path d="M12.2688 19.1509C12.1792 19.0388 12.0655 18.9484 11.9362 18.8863C11.8069 18.8241 11.6652 18.7917 11.5218 18.7917C11.3783 18.7917 11.2367 18.8241 11.1073 18.8863C10.9779 18.9484 10.8644 19.0388 10.7747 19.1509L8.31744 22.2233C8.26132 22.2936 8.22609 22.3783 8.21597 22.4678C8.20575 22.5572 8.22112 22.6477 8.26 22.7288C8.29898 22.8099 8.36008 22.8784 8.43616 22.9263C8.51234 22.9743 8.60051 22.9999 8.69046 23H14.353C14.443 22.9999 14.5311 22.9743 14.6073 22.9263C14.6834 22.8784 14.7446 22.8099 14.7835 22.7288C14.8224 22.6477 14.8377 22.5572 14.8276 22.4678C14.8175 22.3783 14.7822 22.2936 14.7261 22.2233L12.2688 19.1509Z" fill="#E3E3E3" stroke="#191919" stroke-linecap="round" stroke-linejoin="round"/>
<path d="M1 18.2173H22.9999" stroke="#191919" stroke-linecap="round" stroke-linejoin="round"/>
<path d="M4.34771 6.26091C4.86803 6.26091 5.37653 6.10668 5.80914 5.81762C6.24166 5.52856 6.57879 5.11778 6.7779 4.6371C6.97701 4.15642 7.02911 3.62758 6.92764 3.11729C6.82616 2.6071 6.5756 2.13841 6.20774 1.77055C5.83988 1.40268 5.37119 1.15213 4.8609 1.05066C4.35062 0.949084 3.82177 1.00118 3.3411 1.20029C2.86051 1.39941 2.44964 1.73654 2.16067 2.16915C1.87161 2.60166 1.71729 3.11026 1.71729 3.63048C1.71729 4.32817 1.99445 4.99719 2.48778 5.49051C2.98101 5.98375 3.65012 6.26091 4.34771 6.26091Z" fill="#FFDDA1" stroke="#191919" stroke-linecap="round" stroke-linejoin="round"/>
<path d="M7.69558 10.5654C7.69558 9.67746 7.3429 8.82591 6.71511 8.19803C6.08723 7.57025 5.23569 7.21747 4.34779 7.21747C3.45989 7.21747 2.60835 7.57025 1.98057 8.19803C1.35269 8.82591 1 9.67746 1 10.5654V13.4349H2.51418L2.91306 18.2174H5.78261L6.18149 13.4349H7.69567L7.69558 10.5654Z" fill="#66E1FF" stroke="#191919" stroke-linecap="round" stroke-linejoin="round"/>
<path d="M18.2172 16.3043C19.1631 16.3043 20.0877 16.0238 20.8743 15.4983C21.6607 14.9727 22.2738 14.2258 22.6357 13.3519C22.9976 12.4781 23.0925 11.5165 22.9079 10.5888C22.7233 9.66098 22.2678 8.80878 21.599 8.13995C20.9302 7.47113 20.078 7.01556 19.1502 6.83107C18.2224 6.64648 17.2609 6.74121 16.3869 7.10317C15.5131 7.46522 14.7661 8.07821 14.2407 8.86472C13.715 9.65114 13.4346 10.5759 13.4346 11.5218C13.4346 12.7902 13.9385 14.0067 14.8354 14.9035C15.7323 15.8005 16.9488 16.3043 18.2172 16.3043Z" stroke="#191919" stroke-linecap="round" stroke-linejoin="round"/>
<path d="M18.2168 13.4349V14.3914" stroke="#191919" stroke-linecap="round" stroke-linejoin="round"/>
<path d="M18.2168 8.65228V9.60877" stroke="#191919" stroke-linecap="round" stroke-linejoin="round"/>
<path d="M16.3037 13.4349H19.1733C19.427 13.4349 19.6703 13.3341 19.8497 13.1547C20.029 12.9754 20.1298 12.732 20.1298 12.4783C20.1298 12.2247 20.029 11.9813 19.8497 11.802C19.6703 11.6226 19.427 11.5218 19.1733 11.5218H17.2603C17.0066 11.5218 16.7633 11.421 16.5839 11.2417C16.4044 11.0623 16.3037 10.819 16.3037 10.5653C16.3037 10.3116 16.4045 10.0684 16.5839 9.88894C16.7633 9.7096 17.0066 9.60876 17.2603 9.60876H20.1298" stroke="#191919" stroke-linecap="round" stroke-linejoin="round"/>
</g>
<defs>
<clipPath id="clip0_5303_8768">
<rect width="24" height="24" fill="white"/>
</clipPath>
</defs>
</svg>
