<svg width="24" height="24" viewBox="0 0 24 24" fill="none" xmlns="http://www.w3.org/2000/svg">
<path d="M11.9999 18.8768C15.7974 18.8768 18.8758 15.7984 18.8758 12.0009C18.8758 8.20345 15.7974 5.125 11.9999 5.125C8.20248 5.125 5.12402 8.20345 5.12402 12.0009C5.12402 15.7984 8.20248 18.8768 11.9999 18.8768Z" fill="#C2F3FF"/>
<path d="M12 15.2083C13.5188 15.2083 14.75 13.9771 14.75 12.4583C14.75 10.9395 13.5188 9.70831 12 9.70831C10.4812 9.70831 9.25 10.9395 9.25 12.4583C9.25 13.9771 10.4812 15.2083 12 15.2083Z" fill="#C1D4D9" stroke="#191919" stroke-linecap="round" stroke-linejoin="round"/>
<path d="M16.125 22.5417C15.839 19.4324 14.0781 17.0417 12 17.0417C9.92192 17.0417 8.161 19.4324 7.875 22.5417H16.125Z" fill="#C1D4D9" stroke="#191919" stroke-linecap="round" stroke-linejoin="round"/>
<path d="M16.8583 16.8583C17.8207 15.8972 18.4763 14.6722 18.7423 13.3383C19.0083 12.0045 18.8726 10.6217 18.3525 9.36498C17.8324 8.10824 16.9512 7.03401 15.8205 6.27819C14.6897 5.52238 13.3602 5.11896 12 5.11896C10.6399 5.11896 9.31034 5.52238 8.17957 6.27819C7.0488 7.03401 6.16762 8.10824 5.64751 9.36498C5.12741 10.6217 4.99176 12.0045 5.25773 13.3383C5.5237 14.6722 6.17933 15.8972 7.14167 16.8583" stroke="#191919" stroke-linecap="round" stroke-linejoin="round"/>
<path d="M19.4545 19.4543C20.9287 17.98 21.9326 16.1016 22.3393 14.0567C22.7461 12.0119 22.5372 9.89238 21.7393 7.96618C20.9414 6.03999 19.5903 4.39365 17.8567 3.23534C16.1231 2.07704 14.0851 1.4588 12.0002 1.4588C9.91525 1.4588 7.87716 2.07704 6.14361 3.23534C4.41005 4.39365 3.0589 6.03999 2.261 7.96618C1.46311 9.89238 1.25431 12.0119 1.661 14.0567C2.0677 16.1016 3.07163 17.98 4.54584 19.4543" stroke="#191919" stroke-linecap="round" stroke-linejoin="round"/>
</svg>
