<svg width="24" height="24" viewBox="0 0 24 24" fill="none" xmlns="http://www.w3.org/2000/svg">
<path d="M15.2825 22.4958V19.758H16.1951C16.9212 19.758 17.6176 19.4695 18.131 18.9561C18.6445 18.4426 18.9329 17.7462 18.9329 17.0201V14.2822H21.5001C21.5717 14.2817 21.6421 14.2645 21.7057 14.2317C21.7693 14.199 21.8244 14.1518 21.8664 14.0939C21.9085 14.0359 21.9363 13.9689 21.9476 13.8984C21.959 13.8277 21.9536 13.7554 21.9318 13.6872C20.2216 8.39396 18.9831 2.70376 13.3349 1.67067C12.1023 1.43181 10.8337 1.4501 9.60848 1.7244C8.38329 1.99871 7.22796 2.52311 6.2149 3.26475C5.20182 4.00639 4.35285 4.94927 3.72119 6.03432C3.08952 7.11937 2.68876 8.32318 2.54404 9.57033C2.39952 11.1039 2.65656 12.6486 3.28989 14.0527C3.9232 15.4568 4.91101 16.6719 6.1562 17.5786V22.4958H15.2825Z" fill="#FFDDA1"/>
<path d="M13.4318 5.32124C18.1145 6.1782 20.01 9.97563 21.4712 14.2832H21.5003C21.5719 14.2827 21.6423 14.2655 21.7059 14.2327C21.7696 14.2 21.8246 14.1528 21.8666 14.0949C21.9087 14.0369 21.9365 13.9699 21.9478 13.8994C21.9592 13.8287 21.9538 13.7564 21.932 13.6882C20.2218 8.39496 18.9833 2.70475 13.3351 1.67166C12.1026 1.4328 10.834 1.45107 9.60889 1.72531C8.38376 1.99956 7.22847 2.52389 6.21541 3.26542C5.20236 4.00697 4.35337 4.94974 3.72166 6.03469C3.08994 7.11963 2.6891 8.32334 2.54426 9.57041C2.50567 9.99517 2.49653 10.4221 2.51688 10.8481C3.47887 8.85781 5.06823 7.23878 7.0404 6.24017C9.01256 5.24156 11.2582 4.91869 13.4318 5.32124Z" fill="#FFDDA1"/>
<path d="M15.2825 22.4958V19.758H16.1951C16.9212 19.758 17.6176 19.4695 18.131 18.9561C18.6445 18.4426 18.9329 17.7462 18.9329 17.0201V14.2822H21.5001C21.5717 14.2817 21.6421 14.2645 21.7057 14.2317C21.7693 14.199 21.8244 14.1518 21.8664 14.0939C21.9085 14.0359 21.9363 13.9689 21.9476 13.8984C21.959 13.8277 21.9536 13.7554 21.9318 13.6872C20.2216 8.39396 18.9831 2.70376 13.3349 1.67067C12.1023 1.43181 10.8337 1.4501 9.60848 1.7244C8.38329 1.99871 7.22796 2.52311 6.2149 3.26475C5.20182 4.00639 4.35285 4.94927 3.72119 6.03432C3.08952 7.11937 2.68876 8.32318 2.54404 9.57033C2.39952 11.1039 2.65656 12.6486 3.28989 14.0527C3.9232 15.4568 4.91101 16.6719 6.1562 17.5786V22.4958" stroke="#191919" stroke-linecap="round" stroke-linejoin="round"/>
<path d="M8.89404 8.35029C8.89363 7.83848 9.03669 7.33681 9.30698 6.9022C9.57727 6.46758 9.96398 6.11743 10.4232 5.89148C10.8824 5.66553 11.3958 5.57283 11.9051 5.62389C12.4143 5.67495 12.8991 5.86773 13.3043 6.18036C13.7095 6.49298 14.019 6.91293 14.1976 7.39256C14.3762 7.87219 14.4168 8.39228 14.3149 8.89381C14.2129 9.39535 13.9723 9.85825 13.6205 10.23C13.2687 10.6018 12.8197 10.8674 12.3246 10.9969C12.1318 11.0391 11.9588 11.1448 11.8332 11.297C11.7076 11.4493 11.6367 11.6392 11.6319 11.8365V13.3697" stroke="#191919" stroke-linecap="round" stroke-linejoin="round"/>
<path d="M11.5417 15.6667C11.4151 15.6667 11.3125 15.5641 11.3125 15.4375C11.3125 15.3109 11.4151 15.2084 11.5417 15.2084" stroke="#191919"/>
<path d="M11.5415 15.6667C11.6681 15.6667 11.7707 15.5641 11.7707 15.4375C11.7707 15.3109 11.6681 15.2084 11.5415 15.2084" stroke="#191919"/>
</svg>
