<svg width="24" height="24" viewBox="0 0 24 24" fill="none" xmlns="http://www.w3.org/2000/svg">
<g clip-path="url(#clip0_5303_4606)">
<mask id="mask0_5303_4606" style="mask-type:luminance" maskUnits="userSpaceOnUse" x="0" y="0" width="24" height="24">
<path d="M0 0H24V24H0V0Z" fill="white"/>
</mask>
<g mask="url(#mask0_5303_4606)">
<path d="M2.91304 18.6956C3.2914 18.6956 3.66127 18.5834 3.97587 18.3732C4.29047 18.163 4.53567 17.8642 4.68047 17.5147C4.82525 17.1651 4.86314 16.7805 4.78933 16.4093C4.71551 16.0383 4.53331 15.6974 4.26577 15.4299C3.99823 15.1623 3.65735 14.9801 3.28626 14.9063C2.91517 14.8325 2.53052 14.8704 2.18095 15.0151C1.83139 15.1599 1.53261 15.4052 1.32241 15.7198C1.1122 16.0344 1 16.4042 1 16.7826C1 17.2899 1.20155 17.7765 1.56032 18.1353C1.91908 18.4941 2.40568 18.6956 2.91304 18.6956Z" fill="white"/>
<path d="M16.7822 4.82609C17.1606 4.82609 17.5304 4.71389 17.845 4.50368C18.1596 4.29348 18.4048 3.9947 18.5496 3.64514C18.6944 3.29558 18.7322 2.91092 18.6585 2.53983C18.5847 2.16874 18.4024 1.82786 18.1349 1.56032C17.8674 1.29277 17.5265 1.11057 17.1554 1.03676C16.7843 0.962944 16.3997 1.00083 16.0501 1.14562C15.7005 1.29042 15.4017 1.53561 15.1916 1.85021C14.9813 2.16481 14.8691 2.53468 14.8691 2.91304C14.8691 3.42041 15.0707 3.907 15.4295 4.26577C15.7883 4.62454 16.2748 4.82609 16.7822 4.82609Z" fill="white"/>
<path d="M9.60861 11.5217C9.89238 11.5217 10.1698 11.4375 10.4058 11.2799C10.6417 11.1223 10.8256 10.8981 10.9342 10.636C11.0428 10.3738 11.0712 10.0853 11.0158 9.80697C10.9605 9.52865 10.8238 9.273 10.6232 9.07234C10.4225 8.87168 10.1668 8.73503 9.88853 8.67967C9.6102 8.62431 9.32171 8.65272 9.05954 8.76132C8.79737 8.86991 8.57329 9.05381 8.41564 9.28977C8.25797 9.52571 8.17383 9.80311 8.17383 10.0869C8.17383 10.4674 8.325 10.8324 8.59407 11.1015C8.86314 11.3706 9.22809 11.5217 9.60861 11.5217Z" fill="#FFEF5E"/>
<path d="M6.73926 21.0869H8.6523V23H6.73926V21.0869Z" fill="#FFEF5E"/>
<path d="M21.0869 6.73914H23V8.65218H21.0869V6.73914Z" fill="#FFEF5E"/>
<path d="M8.62199 11.1037L4.33008 15.4951" stroke="#191919" stroke-linecap="round" stroke-linejoin="round"/>
<path d="M15.365 4.20148L10.5996 9.07974" stroke="#191919" stroke-linecap="round" stroke-linejoin="round"/>
<path d="M2.91304 18.6956C3.2914 18.6956 3.66127 18.5834 3.97587 18.3732C4.29047 18.163 4.53567 17.8642 4.68047 17.5147C4.82525 17.1651 4.86314 16.7805 4.78933 16.4093C4.71551 16.0383 4.53331 15.6974 4.26577 15.4299C3.99823 15.1623 3.65735 14.9801 3.28626 14.9063C2.91517 14.8325 2.53052 14.8704 2.18095 15.0151C1.83139 15.1599 1.53261 15.4052 1.32241 15.7198C1.1122 16.0344 1 16.4042 1 16.7826C1 17.2899 1.20155 17.7765 1.56032 18.1353C1.91908 18.4941 2.40568 18.6956 2.91304 18.6956Z" stroke="#191919" stroke-linecap="round" stroke-linejoin="round"/>
<path d="M16.7822 4.82609C17.1606 4.82609 17.5304 4.71389 17.845 4.50368C18.1596 4.29348 18.4048 3.9947 18.5496 3.64514C18.6944 3.29558 18.7322 2.91092 18.6585 2.53983C18.5847 2.16874 18.4024 1.82786 18.1349 1.56032C17.8674 1.29277 17.5265 1.11057 17.1554 1.03676C16.7843 0.962944 16.3997 1.00083 16.0501 1.14562C15.7005 1.29042 15.4017 1.53561 15.1916 1.85021C14.9813 2.16481 14.8691 2.53468 14.8691 2.91304C14.8691 3.42041 15.0707 3.907 15.4295 4.26577C15.7883 4.62454 16.2748 4.82609 16.7822 4.82609Z" stroke="#191919" stroke-linecap="round" stroke-linejoin="round"/>
<path d="M11.0435 10.087C12.7678 8.5795 14.9707 7.73221 17.2608 7.69568H21.0869" stroke="#191919" stroke-linecap="round" stroke-linejoin="round"/>
<path d="M7.69531 21.0869V17.2608C7.69805 15.1941 8.36317 13.1827 9.59305 11.5217" stroke="#191919" stroke-linecap="round" stroke-linejoin="round"/>
<path d="M9.60861 11.5217C9.89238 11.5217 10.1698 11.4375 10.4058 11.2799C10.6417 11.1223 10.8256 10.8981 10.9342 10.636C11.0428 10.3738 11.0712 10.0853 11.0158 9.80697C10.9605 9.52865 10.8238 9.273 10.6232 9.07234C10.4225 8.87168 10.1668 8.73503 9.88853 8.67967C9.6102 8.62431 9.32171 8.65272 9.05954 8.76132C8.79737 8.86991 8.57329 9.05381 8.41564 9.28977C8.25797 9.52571 8.17383 9.80311 8.17383 10.0869C8.17383 10.4674 8.325 10.8324 8.59407 11.1015C8.86314 11.3706 9.22809 11.5217 9.60861 11.5217Z" stroke="#191919" stroke-linecap="round" stroke-linejoin="round"/>
<path d="M6.73926 21.0869H8.6523V23H6.73926V21.0869Z" stroke="#191919" stroke-linecap="round" stroke-linejoin="round"/>
<path d="M21.0869 6.73914H23V8.65218H21.0869V6.73914Z" stroke="#191919" stroke-linecap="round" stroke-linejoin="round"/>
</g>
</g>
<defs>
<clipPath id="clip0_5303_4606">
<rect width="24" height="24" fill="white"/>
</clipPath>
</defs>
</svg>
