<svg width="24" height="24" viewBox="0 0 24 24" fill="none" xmlns="http://www.w3.org/2000/svg">
<g clip-path="url(#clip0_5303_4479)">
<mask id="mask0_5303_4479" style="mask-type:luminance" maskUnits="userSpaceOnUse" x="0" y="0" width="24" height="24">
<path d="M0 0H24V24H0V0Z" fill="white"/>
</mask>
<g mask="url(#mask0_5303_4479)">
<path d="M22.8581 11.8771L20.8288 13.9103L17.4482 10.5288L19.4766 8.50049" fill="#C77F67"/>
<path d="M20.8291 13.9103L17.4513 10.5287L13.739 11.5893C13.4265 11.6787 13.1419 11.8463 12.9122 12.0761C12.6825 12.3061 12.5151 12.5908 12.4259 12.9033L10.2494 20.5213C10.2259 20.6033 10.2249 20.69 10.2462 20.7725C10.2677 20.8551 10.3107 20.9303 10.3711 20.9905C10.4313 21.0509 10.5065 21.0939 10.5891 21.1154C10.6716 21.1368 10.7584 21.1357 10.8403 21.1123L18.4594 18.9309C18.7718 18.8415 19.0563 18.6739 19.2861 18.4441C19.5157 18.2142 19.6831 17.9295 19.7723 17.617L20.8291 13.9103Z" fill="white"/>
<path d="M10.4385 21.0243C10.4948 21.0676 10.5601 21.0976 10.6298 21.112C10.6994 21.1265 10.7713 21.1249 10.8401 21.1074L18.4591 18.9309C18.7715 18.8415 19.0561 18.6739 19.2858 18.444C19.5155 18.2142 19.6829 17.9295 19.7721 17.6169L20.8288 13.9103L19.1945 12.2731L10.4385 21.0243Z" fill="#E3E3E3"/>
<path d="M20.8291 13.9103L17.4513 10.5287L13.739 11.5893C13.4265 11.6787 13.1419 11.8463 12.9122 12.0761C12.6825 12.3061 12.5151 12.5908 12.4259 12.9033L10.2494 20.5213C10.2259 20.6033 10.2249 20.69 10.2462 20.7725C10.2677 20.8551 10.3107 20.9303 10.3711 20.9905C10.4313 21.0509 10.5065 21.0939 10.5891 21.1154C10.6716 21.1368 10.7584 21.1357 10.8403 21.1123L18.4594 18.9309C18.7718 18.8415 19.0563 18.6739 19.2861 18.4441C19.5157 18.2142 19.6831 17.9295 19.7723 17.617L20.8291 13.9103Z" stroke="#191919" stroke-linecap="round" stroke-linejoin="round"/>
<path d="M10.3682 20.987L16.0955 15.2587" stroke="#191919" stroke-linecap="round" stroke-linejoin="round"/>
<path d="M1.14209 1C8.79262 3.86895 5.92367 9.12869 3.05472 15.8229C0.185773 22.5171 4.4892 22.9953 5.92367 22.9953C6.96568 23.0448 7.98866 22.7037 8.79262 22.039" stroke="#191919" stroke-linecap="round" stroke-linejoin="round"/>
<path d="M22.8581 11.8771L20.8288 13.9103L17.4482 10.5288L19.4766 8.50049" stroke="#191919" stroke-linecap="round" stroke-linejoin="round"/>
</g>
</g>
<defs>
<clipPath id="clip0_5303_4479">
<rect width="24" height="24" fill="white"/>
</clipPath>
</defs>
</svg>
