<svg width="24" height="24" viewBox="0 0 24 24" fill="none" xmlns="http://www.w3.org/2000/svg">
<path d="M16.3045 1L15.348 4.82599H8.65252L7.21777 1" fill="#C77F67"/>
<path d="M14.0966 21.7264C13.8972 22.1103 13.5963 22.4321 13.2266 22.6566C12.8568 22.8812 12.4326 23 12 23C11.5674 23 11.1431 22.8812 10.7734 22.6566C10.4037 22.4321 10.1027 22.1103 9.90333 21.7264L4.8798 12.0667C4.71923 11.7579 4.64595 11.4111 4.66786 11.0637C4.68977 10.7164 4.80604 10.3815 5.00415 10.0954L8.65223 4.82599H15.3477L18.9958 10.0954C19.1939 10.3815 19.3102 10.7164 19.3321 11.0637C19.354 11.4111 19.2807 11.7579 19.1201 12.0667L14.0966 21.7264Z" fill="white"/>
<path d="M18.9968 10.0954L15.3487 4.82599H12.001V22.9995C12.4335 22.9995 12.8578 22.8808 13.2275 22.6563C13.5972 22.4318 13.8982 22.1102 14.0976 21.7264L19.1211 12.0657C19.2815 11.757 19.3547 11.4104 19.3328 11.0633C19.3109 10.7161 19.1947 10.3814 18.9968 10.0954Z" fill="#E3E3E3"/>
<path d="M14.0966 21.7264C13.8972 22.1103 13.5963 22.4321 13.2266 22.6566C12.8568 22.8812 12.4326 23 12 23C11.5674 23 11.1431 22.8812 10.7734 22.6566C10.4037 22.4321 10.1027 22.1103 9.90333 21.7264L4.8798 12.0667C4.71923 11.7579 4.64595 11.4111 4.66786 11.0637C4.68977 10.7164 4.80604 10.3815 5.00415 10.0954L8.65223 4.82599H15.3477L18.9958 10.0954C19.1939 10.3815 19.3102 10.7164 19.3321 11.0637C19.354 11.4111 19.2807 11.7579 19.1201 12.0667L14.0966 21.7264Z" stroke="#191919" stroke-linecap="round" stroke-linejoin="round"/>
<path d="M12.001 12.478V22.9995" stroke="#191919" stroke-linecap="round" stroke-linejoin="round"/>
<path d="M12.0004 12.478C12.5078 12.478 12.9943 12.2765 13.3531 11.9177C13.7118 11.5589 13.9134 11.0724 13.9134 10.565C13.9134 10.0576 13.7118 9.5711 13.3531 9.21234C12.9943 8.85359 12.5078 8.65204 12.0004 8.65204C11.493 8.65204 11.0065 8.85359 10.6477 9.21234C10.2889 9.5711 10.0874 10.0576 10.0874 10.565C10.0874 11.0724 10.2889 11.5589 10.6477 11.9177C11.0065 12.2765 11.493 12.478 12.0004 12.478Z" fill="#808080"/>
<path d="M16.3045 1L15.348 4.82599H8.65252L7.21777 1" stroke="#191919" stroke-linecap="round" stroke-linejoin="round"/>
<path d="M12.0004 12.478C12.5078 12.478 12.9943 12.2765 13.3531 11.9177C13.7118 11.5589 13.9134 11.0724 13.9134 10.565C13.9134 10.0576 13.7118 9.5711 13.3531 9.21234C12.9943 8.85359 12.5078 8.65204 12.0004 8.65204C11.493 8.65204 11.0065 8.85359 10.6477 9.21234C10.2889 9.5711 10.0874 10.0576 10.0874 10.565C10.0874 11.0724 10.2889 11.5589 10.6477 11.9177C11.0065 12.2765 11.493 12.478 12.0004 12.478Z" stroke="#191919" stroke-linecap="round" stroke-linejoin="round"/>
</svg>
