<svg width="24" height="24" viewBox="0 0 24 24" fill="none" xmlns="http://www.w3.org/2000/svg">
<g clip-path="url(#clip0_5303_4369)">
<mask id="mask0_5303_4369" style="mask-type:luminance" maskUnits="userSpaceOnUse" x="0" y="0" width="24" height="24">
<path d="M0 0H24V24H0V0Z" fill="white"/>
</mask>
<g mask="url(#mask0_5303_4369)">
<path d="M4.82609 1.47826V4.34783C4.82609 4.47467 4.7757 4.59632 4.68601 4.68601C4.59632 4.7757 4.47467 4.82609 4.34783 4.82609H1.47826C1.35142 4.82609 1.22977 4.7757 1.14008 4.68601C1.05039 4.59632 1 4.47467 1 4.34783V1.47826C1 1.35142 1.05039 1.22977 1.14008 1.14008C1.22977 1.05039 1.35142 1 1.47826 1H4.34783C4.47467 1 4.59632 1.05039 4.68601 1.14008C4.7757 1.22977 4.82609 1.35142 4.82609 1.47826Z" fill="#FFEF5E"/>
<path d="M22.9999 4.34783V7.2174C22.9999 7.34424 22.9495 7.46589 22.8599 7.55557C22.7702 7.64527 22.6485 7.69566 22.5217 7.69566H19.6521C19.5253 7.69566 19.4036 7.64527 19.3139 7.55557C19.2242 7.46589 19.1738 7.34424 19.1738 7.2174V4.34783C19.1738 4.22098 19.2242 4.09933 19.3139 4.00965C19.4036 3.91996 19.5253 3.86957 19.6521 3.86957H22.5217C22.6485 3.86957 22.7702 3.91996 22.8599 4.00965C22.9495 4.09933 22.9999 4.22098 22.9999 4.34783Z" fill="#FFEF5E"/>
<path d="M4.82609 19.6522V22.5217C4.82609 22.6486 4.7757 22.7703 4.68601 22.86C4.59632 22.9496 4.47467 23 4.34783 23H1.47826C1.35142 23 1.22977 22.9496 1.14008 22.86C1.05039 22.7703 1 22.6486 1 22.5217V19.6522C1 19.5253 1.05039 19.4037 1.14008 19.314C1.22977 19.2243 1.35142 19.1739 1.47826 19.1739H4.34783C4.47467 19.1739 4.59632 19.2243 4.68601 19.314C4.7757 19.4037 4.82609 19.5253 4.82609 19.6522Z" fill="#FFEF5E"/>
<path d="M22.9999 16.7826V19.6522C22.9999 19.779 22.9495 19.9007 22.8599 19.9904C22.7702 20.08 22.6485 20.1304 22.5217 20.1304H19.6521C19.5253 20.1304 19.4036 20.08 19.3139 19.9904C19.2242 19.9007 19.1738 19.779 19.1738 19.6522V16.7826C19.1738 16.6558 19.2242 16.5341 19.3139 16.4444C19.4036 16.3548 19.5253 16.3044 19.6521 16.3044H22.5217C22.6485 16.3044 22.7702 16.3548 22.8599 16.4444C22.9495 16.5341 22.9999 16.6558 22.9999 16.7826Z" fill="#FFEF5E"/>
<path d="M21.0865 7.69558V16.3043H19.6517C19.5249 16.3043 19.4032 16.3547 19.3135 16.4443C19.2239 16.5341 19.1735 16.6557 19.1735 16.7826V18.2174L4.82564 21.0869V19.6521C4.82564 19.5253 4.77525 19.4036 4.68556 19.3139C4.59588 19.2243 4.47423 19.1739 4.34738 19.1739H2.9126V4.82601H4.34738C4.47423 4.82601 4.59588 4.77562 4.68556 4.68593C4.77525 4.59624 4.82564 4.47459 4.82564 4.34775V2.91296L19.1735 5.78253V7.21732C19.1735 7.34416 19.2239 7.46581 19.3135 7.55549C19.4032 7.64519 19.5249 7.69558 19.6517 7.69558H21.0865Z" fill="white" stroke="#191919" stroke-linecap="round" stroke-linejoin="round"/>
<path d="M4.82609 1.47826V4.34783C4.82609 4.47467 4.7757 4.59632 4.68601 4.68601C4.59632 4.7757 4.47467 4.82609 4.34783 4.82609H1.47826C1.35142 4.82609 1.22977 4.7757 1.14008 4.68601C1.05039 4.59632 1 4.47467 1 4.34783V1.47826C1 1.35142 1.05039 1.22977 1.14008 1.14008C1.22977 1.05039 1.35142 1 1.47826 1H4.34783C4.47467 1 4.59632 1.05039 4.68601 1.14008C4.7757 1.22977 4.82609 1.35142 4.82609 1.47826Z" stroke="#191919" stroke-linecap="round" stroke-linejoin="round"/>
<path d="M22.9999 4.34783V7.2174C22.9999 7.34424 22.9495 7.46589 22.8599 7.55557C22.7702 7.64527 22.6485 7.69566 22.5217 7.69566H19.6521C19.5253 7.69566 19.4036 7.64527 19.3139 7.55557C19.2242 7.46589 19.1738 7.34424 19.1738 7.2174V4.34783C19.1738 4.22098 19.2242 4.09933 19.3139 4.00965C19.4036 3.91996 19.5253 3.86957 19.6521 3.86957H22.5217C22.6485 3.86957 22.7702 3.91996 22.8599 4.00965C22.9495 4.09933 22.9999 4.22098 22.9999 4.34783Z" stroke="#191919" stroke-linecap="round" stroke-linejoin="round"/>
<path d="M4.82609 19.6522V22.5217C4.82609 22.6486 4.7757 22.7703 4.68601 22.86C4.59632 22.9496 4.47467 23 4.34783 23H1.47826C1.35142 23 1.22977 22.9496 1.14008 22.86C1.05039 22.7703 1 22.6486 1 22.5217V19.6522C1 19.5253 1.05039 19.4037 1.14008 19.314C1.22977 19.2243 1.35142 19.1739 1.47826 19.1739H4.34783C4.47467 19.1739 4.59632 19.2243 4.68601 19.314C4.7757 19.4037 4.82609 19.5253 4.82609 19.6522Z" stroke="#191919" stroke-linecap="round" stroke-linejoin="round"/>
<path d="M22.9999 16.7826V19.6522C22.9999 19.779 22.9495 19.9007 22.8599 19.9904C22.7702 20.08 22.6485 20.1304 22.5217 20.1304H19.6521C19.5253 20.1304 19.4036 20.08 19.3139 19.9904C19.2242 19.9007 19.1738 19.779 19.1738 19.6522V16.7826C19.1738 16.6558 19.2242 16.5341 19.3139 16.4444C19.4036 16.3548 19.5253 16.3044 19.6521 16.3044H22.5217C22.6485 16.3044 22.7702 16.3548 22.8599 16.4444C22.9495 16.5341 22.9999 16.6558 22.9999 16.7826Z" stroke="#191919" stroke-linecap="round" stroke-linejoin="round"/>
</g>
</g>
<defs>
<clipPath id="clip0_5303_4369">
<rect width="24" height="24" fill="white"/>
</clipPath>
</defs>
</svg>
