<svg width="24" height="24" viewBox="0 0 24 24" fill="none" xmlns="http://www.w3.org/2000/svg">
<g clip-path="url(#clip0_5303_11186)">
<path d="M19.6843 5.47513C20.6777 5.35362 21.6853 5.42837 22.6498 5.69515C22.7695 5.72838 22.8715 5.80686 22.9344 5.91397C22.9972 6.02109 23.0159 6.14845 22.9866 6.26911L22.6412 7.66289C22.618 7.75721 22.5667 7.84226 22.4941 7.90682C22.4215 7.97138 22.3311 8.01241 22.2347 8.02449C22.1706 8.03299 22.1056 8.02843 22.0433 8.0111C21.3416 7.81181 20.6059 7.7612 19.8834 7.86251C19.1609 7.96381 18.4676 8.2148 17.8477 8.59941" fill="#78EB7B"/>
<path d="M19.6843 5.47513C20.6777 5.35362 21.6853 5.42837 22.6498 5.69515C22.7695 5.72838 22.8715 5.80686 22.9344 5.91397C22.9972 6.02109 23.0159 6.14845 22.9866 6.26911L22.6412 7.66289C22.618 7.75721 22.5667 7.84226 22.4941 7.90682C22.4215 7.97138 22.3311 8.01241 22.2347 8.02449C22.1706 8.03299 22.1056 8.02843 22.0433 8.0111C21.3416 7.81181 20.6059 7.7612 19.8834 7.86251C19.1609 7.96381 18.4676 8.2148 17.8477 8.59941" stroke="#191919" stroke-linecap="round" stroke-linejoin="round"/>
<path d="M17.7704 8.47794C18.5086 7.76493 19.0954 6.91025 19.4954 5.9651C19.8955 5.01995 20.1007 4.00378 20.0988 2.97744C20.0988 2.85271 20.0502 2.7329 19.9631 2.64355C19.8761 2.5542 19.7576 2.50238 19.6329 2.49914L18.198 2.46278C18.1342 2.46125 18.0708 2.47249 18.0114 2.49584C17.9521 2.5192 17.898 2.55418 17.8524 2.59875C17.8067 2.64332 17.7705 2.69657 17.7457 2.75536C17.721 2.81415 17.7082 2.8773 17.7082 2.94109C17.714 3.64783 17.5768 4.34843 17.3051 5.00087C17.0334 5.65331 16.6326 6.24413 16.127 6.73787" fill="#78EB7B"/>
<path d="M17.7704 8.47794C18.5086 7.76493 19.0954 6.91025 19.4954 5.9651C19.8955 5.01995 20.1007 4.00378 20.0988 2.97744C20.0988 2.85271 20.0502 2.7329 19.9631 2.64355C19.8761 2.5542 19.7576 2.50238 19.6329 2.49914L18.198 2.46278C18.1342 2.46125 18.0708 2.47249 18.0114 2.49584C17.9521 2.5192 17.898 2.55418 17.8524 2.59875C17.8067 2.64332 17.7705 2.69657 17.7457 2.75536C17.721 2.81415 17.7082 2.8773 17.7082 2.94109C17.714 3.64783 17.5768 4.34843 17.3051 5.00087C17.0334 5.65331 16.6326 6.24413 16.127 6.73787" stroke="#191919" stroke-linecap="round" stroke-linejoin="round"/>
<path d="M17.1772 17.8728C14.5743 20.4757 10.0619 21.3223 6.974 19.5401C6.55485 19.2983 6.06722 19.2026 5.58775 19.268C5.10827 19.3335 4.66414 19.5564 4.32515 19.9017C4.67078 19.5629 4.8939 19.1188 4.95937 18.6392C5.02483 18.1597 4.92892 17.6719 4.68675 17.2529C2.90459 14.164 3.75214 9.65167 6.35507 7.05448C9.34448 4.06412 13.8491 4.40276 16.8395 7.39216C19.8299 10.3816 20.1676 14.8824 17.1772 17.8728Z" fill="#FFBFC5"/>
<path d="M16.8415 7.38733C16.4257 6.9739 15.9693 6.60342 15.4793 6.28149C16.4516 7.64719 16.9077 9.31367 16.7664 10.9842C16.625 12.6547 15.8953 14.2208 14.7073 15.4037C12.1378 17.9741 7.70872 18.8265 4.62461 17.1323C4.64662 17.1725 4.66384 17.2136 4.68679 17.2528C4.92897 17.6719 5.02488 18.1596 4.95941 18.6392C4.89395 19.1187 4.67083 19.5629 4.3252 19.9017C4.66428 19.5565 5.1084 19.3337 5.58783 19.2682C6.06726 19.2028 6.55485 19.2984 6.97405 19.5401C10.062 21.3223 14.5743 20.4757 17.1772 17.8727C20.1676 14.8824 19.8309 10.3767 16.8415 7.38733Z" fill="#FF808C"/>
<path d="M17.1772 17.8728C14.5743 20.4757 10.0619 21.3223 6.974 19.5401C6.55485 19.2983 6.06722 19.2026 5.58775 19.268C5.10827 19.3335 4.66414 19.5564 4.32515 19.9017C4.67078 19.5629 4.8939 19.1188 4.95937 18.6392C5.02483 18.1597 4.92892 17.6719 4.68675 17.2529C2.90459 14.164 3.75214 9.65167 6.35507 7.05448C9.34448 4.06412 13.8491 4.40276 16.8395 7.39216C19.8299 10.3816 20.1676 14.8824 17.1772 17.8728Z" stroke="#191919" stroke-linecap="round" stroke-linejoin="round"/>
<path d="M4.32517 19.9017L3.64885 20.5781C3.64885 20.5781 2.21394 22.0187 1 21.3692" stroke="#191919" stroke-linecap="round" stroke-linejoin="round"/>
</g>
<defs>
<clipPath id="clip0_5303_11186">
<rect width="24" height="24" fill="white"/>
</clipPath>
</defs>
</svg>
