<svg width="24" height="24" viewBox="0 0 24 24" fill="none" xmlns="http://www.w3.org/2000/svg">
<g clip-path="url(#clip0_5303_13408)">
<path d="M23 4.82605H1V19.1738H23V4.82605Z" fill="#66E1FF"/>
<path d="M1 4.82605V19.1738H3.99199L18.3398 4.82605H1Z" fill="#C2F3FF"/>
<path d="M23 4.82605H1V19.1738H23V4.82605Z" stroke="#191919" stroke-linecap="round" stroke-linejoin="round"/>
<path d="M23 2.91304V4.82608H1V2.91304C1.00151 2.40614 1.20355 1.92043 1.56199 1.56199C1.92043 1.20355 2.40614 1.00151 2.91304 1H21.0869C21.5938 1.00151 22.0795 1.20355 22.438 1.56199C22.7964 1.92043 22.9985 2.40614 23 2.91304Z" fill="#E3E3E3"/>
<path d="M1 19.174H23V21.087C22.9985 21.5939 22.7964 22.0796 22.438 22.438C22.0795 22.7965 21.5938 22.9985 21.0869 23H2.91304C2.40614 22.9985 1.92043 22.7965 1.56199 22.438C1.20355 22.0796 1.00151 21.5939 1 21.087V19.174Z" fill="#E3E3E3"/>
<path d="M9.05 8.55654C8.95474 8.51489 8.8506 8.49764 8.747 8.50635C8.64339 8.51506 8.54359 8.54945 8.45662 8.60642C8.36965 8.66339 8.29825 8.74113 8.24887 8.83263C8.1995 8.92413 8.17371 9.02649 8.17383 9.13046V14.8696C8.17371 14.9735 8.1995 15.0759 8.24887 15.1674C8.29825 15.2589 8.36965 15.3366 8.45662 15.3936C8.54359 15.4506 8.64339 15.485 8.747 15.4937C8.8506 15.5024 8.95474 15.4851 9.05 15.4435L15.3879 12.6696C15.5181 12.6126 15.6289 12.519 15.7067 12.4001C15.7845 12.2811 15.8259 12.1421 15.8259 12C15.8259 11.8579 15.7845 11.7189 15.7067 11.6C15.6289 11.481 15.5181 11.3874 15.3879 11.3305L9.05 8.55654Z" fill="white"/>
<path d="M23 2.91304V4.82608H1V2.91304C1.00151 2.40614 1.20355 1.92043 1.56199 1.56199C1.92043 1.20355 2.40614 1.00151 2.91304 1H21.0869C21.5938 1.00151 22.0795 1.20355 22.438 1.56199C22.7964 1.92043 22.9985 2.40614 23 2.91304Z" stroke="#191919" stroke-linecap="round" stroke-linejoin="round"/>
<path d="M1 19.174H23V21.087C22.9985 21.5939 22.7964 22.0796 22.438 22.438C22.0795 22.7965 21.5938 22.9985 21.0869 23H2.91304C2.40614 22.9985 1.92043 22.7965 1.56199 22.438C1.20355 22.0796 1.00151 21.5939 1 21.087V19.174Z" stroke="#191919" stroke-linecap="round" stroke-linejoin="round"/>
<path d="M9.05 8.55654C8.95474 8.51489 8.8506 8.49764 8.747 8.50635C8.64339 8.51506 8.54359 8.54945 8.45662 8.60642C8.36965 8.66339 8.29825 8.74113 8.24887 8.83263C8.1995 8.92413 8.17371 9.02649 8.17383 9.13046V14.8696C8.17371 14.9735 8.1995 15.0759 8.24887 15.1674C8.29825 15.2589 8.36965 15.3366 8.45662 15.3936C8.54359 15.4506 8.64339 15.485 8.747 15.4937C8.8506 15.5024 8.95474 15.4851 9.05 15.4435L15.3879 12.6696C15.5181 12.6126 15.6289 12.519 15.7067 12.4001C15.7845 12.2811 15.8259 12.1421 15.8259 12C15.8259 11.8579 15.7845 11.7189 15.7067 11.6C15.6289 11.481 15.5181 11.3874 15.3879 11.3305L9.05 8.55654Z" stroke="#191919" stroke-linecap="round" stroke-linejoin="round"/>
<path d="M8.05456 3.15221C7.99114 3.15221 7.93031 3.12702 7.88547 3.08217C7.84062 3.03733 7.81543 2.9765 7.81543 2.91308C7.81543 2.84966 7.84062 2.78884 7.88547 2.74399C7.93031 2.69914 7.99114 2.67395 8.05456 2.67395" stroke="#191919"/>
<path d="M8.0542 3.15221C8.11762 3.15221 8.17844 3.12702 8.22329 3.08217C8.26814 3.03733 8.29333 2.9765 8.29333 2.91308C8.29333 2.84966 8.26814 2.78884 8.22329 2.74399C8.17844 2.69914 8.11762 2.67395 8.0542 2.67395" stroke="#191919"/>
<path d="M4.10876 3.15221C4.04534 3.15221 3.98451 3.12702 3.93967 3.08217C3.89482 3.03733 3.86963 2.9765 3.86963 2.91308C3.86963 2.84966 3.89482 2.78884 3.93967 2.74399C3.98451 2.69914 4.04534 2.67395 4.10876 2.67395" stroke="#191919"/>
<path d="M4.1084 3.15221C4.17182 3.15221 4.23264 3.12702 4.27749 3.08217C4.32233 3.03733 4.34753 2.9765 4.34753 2.91308C4.34753 2.84966 4.32233 2.78884 4.27749 2.74399C4.23264 2.69914 4.17182 2.67395 4.1084 2.67395" stroke="#191919"/>
<path d="M4.10876 21.3261C4.04534 21.3261 3.98451 21.3009 3.93967 21.2561C3.89482 21.2112 3.86963 21.1504 3.86963 21.087C3.86963 21.0235 3.89482 20.9627 3.93967 20.9179C3.98451 20.873 4.04534 20.8478 4.10876 20.8478" stroke="#191919"/>
<path d="M4.1084 21.3261C4.17182 21.3261 4.23264 21.3009 4.27749 21.2561C4.32233 21.2112 4.34753 21.1504 4.34753 21.087C4.34753 21.0235 4.32233 20.9627 4.27749 20.9179C4.23264 20.873 4.17182 20.8478 4.1084 20.8478" stroke="#191919"/>
<path d="M11.9999 3.15221C11.9365 3.15221 11.8756 3.12702 11.8308 3.08217C11.7859 3.03733 11.7607 2.9765 11.7607 2.91308C11.7607 2.84966 11.7859 2.78884 11.8308 2.74399C11.8756 2.69914 11.9365 2.67395 11.9999 2.67395" stroke="#191919"/>
<path d="M11.9995 3.15221C12.0629 3.15221 12.1238 3.12702 12.1686 3.08217C12.2134 3.03733 12.2386 2.9765 12.2386 2.91308C12.2386 2.84966 12.2134 2.78884 12.1686 2.74399C12.1238 2.69914 12.0629 2.67395 11.9995 2.67395" stroke="#191919"/>
<path d="M15.9457 3.15221C15.8823 3.15221 15.8214 3.12702 15.7766 3.08217C15.7317 3.03733 15.7065 2.9765 15.7065 2.91308C15.7065 2.84966 15.7317 2.78884 15.7766 2.74399C15.8214 2.69914 15.8823 2.67395 15.9457 2.67395" stroke="#191919"/>
<path d="M15.9453 3.15221C16.0087 3.15221 16.0696 3.12702 16.1144 3.08217C16.1592 3.03733 16.1844 2.9765 16.1844 2.91308C16.1844 2.84966 16.1592 2.78884 16.1144 2.74399C16.0696 2.69914 16.0087 2.67395 15.9453 2.67395" stroke="#191919"/>
<path d="M19.8915 3.15221C19.8281 3.15221 19.7672 3.12702 19.7224 3.08217C19.6775 3.03733 19.6523 2.9765 19.6523 2.91308C19.6523 2.84966 19.6775 2.78884 19.7224 2.74399C19.7672 2.69914 19.8281 2.67395 19.8915 2.67395" stroke="#191919"/>
<path d="M19.8911 3.15221C19.9545 3.15221 20.0154 3.12702 20.0602 3.08217C20.105 3.03733 20.1302 2.9765 20.1302 2.91308C20.1302 2.84966 20.105 2.78884 20.0602 2.74399C20.0154 2.69914 19.9545 2.67395 19.8911 2.67395" stroke="#191919"/>
<path d="M8.05456 21.3261C7.99114 21.3261 7.93031 21.3009 7.88547 21.2561C7.84062 21.2112 7.81543 21.1504 7.81543 21.087C7.81543 21.0235 7.84062 20.9627 7.88547 20.9179C7.93031 20.873 7.99114 20.8478 8.05456 20.8478" stroke="#191919"/>
<path d="M8.0542 21.3261C8.11762 21.3261 8.17844 21.3009 8.22329 21.2561C8.26814 21.2112 8.29333 21.1504 8.29333 21.087C8.29333 21.0235 8.26814 20.9627 8.22329 20.9179C8.17844 20.873 8.11762 20.8478 8.0542 20.8478" stroke="#191919"/>
<path d="M11.9999 21.3261C11.9365 21.3261 11.8756 21.3009 11.8308 21.2561C11.7859 21.2112 11.7607 21.1504 11.7607 21.087C11.7607 21.0235 11.7859 20.9627 11.8308 20.9179C11.8756 20.873 11.9365 20.8478 11.9999 20.8478" stroke="#191919"/>
<path d="M11.9995 21.3261C12.0629 21.3261 12.1238 21.3009 12.1686 21.2561C12.2134 21.2112 12.2386 21.1504 12.2386 21.087C12.2386 21.0235 12.2134 20.9627 12.1686 20.9179C12.1238 20.873 12.0629 20.8478 11.9995 20.8478" stroke="#191919"/>
<path d="M15.9457 21.3261C15.8823 21.3261 15.8214 21.3009 15.7766 21.2561C15.7317 21.2112 15.7065 21.1504 15.7065 21.087C15.7065 21.0235 15.7317 20.9627 15.7766 20.9179C15.8214 20.873 15.8823 20.8478 15.9457 20.8478" stroke="#191919"/>
<path d="M15.9453 21.3261C16.0087 21.3261 16.0696 21.3009 16.1144 21.2561C16.1592 21.2112 16.1844 21.1504 16.1844 21.087C16.1844 21.0235 16.1592 20.9627 16.1144 20.9179C16.0696 20.873 16.0087 20.8478 15.9453 20.8478" stroke="#191919"/>
<path d="M19.8915 21.3261C19.8281 21.3261 19.7672 21.3009 19.7224 21.2561C19.6775 21.2112 19.6523 21.1504 19.6523 21.087C19.6523 21.0235 19.6775 20.9627 19.7224 20.9179C19.7672 20.873 19.8281 20.8478 19.8915 20.8478" stroke="#191919"/>
<path d="M19.8911 21.3261C19.9545 21.3261 20.0154 21.3009 20.0602 21.2561C20.105 21.2112 20.1302 21.1504 20.1302 21.087C20.1302 21.0235 20.105 20.9627 20.0602 20.9179C20.0154 20.873 19.9545 20.8478 19.8911 20.8478" stroke="#191919"/>
</g>
<defs>
<clipPath id="clip0_5303_13408">
<rect width="24" height="24" fill="white"/>
</clipPath>
</defs>
</svg>
