<svg width="24" height="24" viewBox="0 0 24 24" fill="none" xmlns="http://www.w3.org/2000/svg">
<path d="M21.087 1.95654H2.91304C1.8565 1.95654 1 2.81304 1 3.86959V20.1305C1 21.187 1.8565 22.0435 2.91304 22.0435H21.087C22.1435 22.0435 23 21.187 23 20.1305V3.86959C23 2.81304 22.1435 1.95654 21.087 1.95654Z" fill="#E3E3E3"/>
<path d="M21.087 1.95654H2.91304C2.40568 1.95654 1.91908 2.1581 1.56032 2.51687C1.20155 2.87563 1 3.36222 1 3.86959V20.1305C1.00012 20.6111 1.18115 21.0741 1.50709 21.4273C1.83303 21.7806 2.27998 21.9982 2.75904 22.0368L22.3563 2.43959C22.007 2.12791 21.5551 1.95592 21.087 1.95654Z" fill="white"/>
<path d="M10.5648 10.5949V10.5653C10.5648 10.0579 10.3633 9.57131 10.0045 9.21254C9.64573 8.85377 9.15914 8.65222 8.65177 8.65222H6.73873C6.23136 8.65222 5.74477 8.85377 5.386 9.21254C5.02723 9.57131 4.82568 10.0579 4.82568 10.5653V13.4348C4.82568 13.9422 5.02723 14.4288 5.386 14.7875C5.74477 15.1463 6.23136 15.3479 6.73873 15.3479H8.65177C9.15914 15.3479 9.64573 15.1463 10.0045 14.7875C10.3633 14.4288 10.5648 13.9422 10.5648 13.4348V13.4147" stroke="#191919" stroke-linecap="round" stroke-linejoin="round"/>
<path d="M19.1737 10.5949V10.5653C19.1737 10.0579 18.9722 9.57131 18.6134 9.21254C18.2546 8.85377 17.768 8.65222 17.2607 8.65222H15.3476C14.8403 8.65222 14.3537 8.85377 13.9949 9.21254C13.6361 9.57131 13.4346 10.0579 13.4346 10.5653V13.4348C13.4346 13.9422 13.6361 14.4288 13.9949 14.7875C14.3537 15.1463 14.8403 15.3479 15.3476 15.3479H17.2607C17.768 15.3479 18.2546 15.1463 18.6134 14.7875C18.9722 14.4288 19.1737 13.9422 19.1737 13.4348V13.4147" stroke="#191919" stroke-linecap="round" stroke-linejoin="round"/>
<path d="M21.087 1.95654H2.91304C1.8565 1.95654 1 2.81304 1 3.86959V20.1305C1 21.187 1.8565 22.0435 2.91304 22.0435H21.087C22.1435 22.0435 23 21.187 23 20.1305V3.86959C23 2.81304 22.1435 1.95654 21.087 1.95654Z" stroke="#191919" stroke-linecap="round" stroke-linejoin="round"/>
</svg>
