<svg width="24" height="24" viewBox="0 0 24 24" fill="none" xmlns="http://www.w3.org/2000/svg">
<g clip-path="url(#clip0_5303_3701)">
<path d="M21.087 6.71043V22.0435C21.087 22.2972 20.9862 22.5405 20.8068 22.7198C20.6275 22.8992 20.3842 23 20.1305 23H3.86961C3.61592 23 3.37263 22.8992 3.19324 22.7198C3.01386 22.5405 2.91309 22.2972 2.91309 22.0435V1.95652C2.91309 1.70284 3.01386 1.45954 3.19324 1.28016C3.37263 1.10078 3.61592 1 3.86961 1H15.3766C15.6874 1 15.9983 1.0287 16.3044 1.08609V4.82609C16.3044 5.07977 16.4052 5.32307 16.5845 5.50245C16.7639 5.68183 17.0072 5.78261 17.2609 5.78261H21.0009C21.0583 6.0887 21.087 6.39957 21.087 6.71043Z" fill="#66E1FF"/>
<path d="M16.6392 5.55304L2.91309 19.2887V1.95652C2.91309 1.70284 3.01386 1.45954 3.19324 1.28016C3.37263 1.10078 3.61592 1 3.86961 1H15.3766C15.6874 1 15.9983 1.0287 16.3044 1.08609V4.82609C16.3062 4.96394 16.337 5.09987 16.3946 5.22509C16.4523 5.35031 16.5356 5.46204 16.6392 5.55304Z" fill="#C2F3FF"/>
<path d="M21.0012 5.78258H17.2612C17.0075 5.78258 16.7642 5.6818 16.5848 5.50242C16.4055 5.32304 16.3047 5.07974 16.3047 4.82606V1.08606C17.4822 1.27497 18.5701 1.83063 19.4134 2.67391C20.2566 3.51719 20.8123 4.60506 21.0012 5.78258Z" fill="white"/>
<path d="M20.1305 23C20.3842 23 20.6275 22.8992 20.8068 22.7198C20.9862 22.5405 21.087 22.2972 21.087 22.0435V6.71522C21.087 5.19945 20.4849 3.74576 19.413 2.67395C18.3412 1.60214 16.8876 1 15.3718 1H3.86961C3.61592 1 3.37263 1.10078 3.19324 1.28016C3.01386 1.45954 2.91309 1.70284 2.91309 1.95652V22.0435C2.91309 22.2972 3.01386 22.5405 3.19324 22.7198C3.37263 22.8992 3.61592 23 3.86961 23H20.1305Z" stroke="#191919" stroke-linecap="round" stroke-linejoin="round"/>
<path d="M16.3047 1.07654V4.8261C16.3047 5.07979 16.4055 5.32308 16.5848 5.50247C16.7642 5.68185 17.0075 5.78262 17.2612 5.78262H21.0108" stroke="#191919" stroke-linecap="round" stroke-linejoin="round"/>
<path d="M5.78271 18.2174V12.4783L7.2175 15.3478L8.65228 12.4783V18.2174" stroke="#191919" stroke-linecap="round" stroke-linejoin="round"/>
<path d="M13.4229 18.2174V16.3043" stroke="#191919" stroke-linecap="round" stroke-linejoin="round"/>
<path d="M13.4226 16.3043V12.4878C12.6795 12.854 12.0334 13.3906 11.5369 14.0538C11.0404 14.717 10.7075 15.4881 10.5654 16.3043H13.4226Z" stroke="#191919" stroke-linecap="round" stroke-linejoin="round"/>
<path d="M18.2182 12.4783V13.9131C18.2182 15.4653 17.7147 16.9756 16.7834 18.2174C15.8521 16.9756 15.3486 15.4653 15.3486 13.9131V12.4783" stroke="#191919" stroke-linecap="round" stroke-linejoin="round"/>
</g>
<defs>
<clipPath id="clip0_5303_3701">
<rect width="24" height="24" fill="white"/>
</clipPath>
</defs>
</svg>
