<svg width="24" height="24" viewBox="0 0 24 24" fill="none" xmlns="http://www.w3.org/2000/svg">
<path d="M14.3913 3.3913H1.95652C1.70284 3.3913 1.45954 3.49207 1.28016 3.67146C1.10078 3.85084 1 4.09413 1 4.34782V19.6522C1 19.9058 1.10078 20.1491 1.28016 20.3285C1.45954 20.5079 1.70284 20.6087 1.95652 20.6087H14.3913C14.645 20.6087 14.8883 20.5079 15.0677 20.3285C15.247 20.1491 15.3478 19.9058 15.3478 19.6522V4.34782C15.3478 4.09413 15.247 3.85084 15.0677 3.67146C14.8883 3.49207 14.645 3.3913 14.3913 3.3913Z" fill="#66E1FF"/>
<path d="M15.3478 5.03364V4.34782C15.3478 4.09413 15.247 3.85084 15.0677 3.67146C14.8883 3.49207 14.645 3.3913 14.3913 3.3913H1.95652C1.70284 3.3913 1.45954 3.49207 1.28016 3.67146C1.10078 3.85084 1 4.09413 1 4.34782V19.3815L15.3478 5.03364Z" fill="#C2F3FF"/>
<path d="M14.3913 3.3913H1.95652C1.70284 3.3913 1.45954 3.49207 1.28016 3.67146C1.10078 3.85084 1 4.09413 1 4.34782V19.6522C1 19.9058 1.10078 20.1491 1.28016 20.3285C1.45954 20.5079 1.70284 20.6087 1.95652 20.6087H14.3913C14.645 20.6087 14.8883 20.5079 15.0677 20.3285C15.247 20.1491 15.3478 19.9058 15.3478 19.6522V4.34782C15.3478 4.09413 15.247 3.85084 15.0677 3.67146C14.8883 3.49207 14.645 3.3913 14.3913 3.3913Z" stroke="#191919" stroke-linecap="round" stroke-linejoin="round"/>
<path d="M10.1287 11.8087C10.2586 11.8671 10.3689 11.9619 10.4463 12.0815C10.5236 12.2011 10.5648 12.3406 10.5648 12.4831C10.5648 12.6255 10.5236 12.765 10.4463 12.8846C10.3689 13.0042 10.2586 13.099 10.1287 13.1574L6.43649 14.8189C6.36586 14.8507 6.2884 14.8643 6.21117 14.8584C6.13394 14.8526 6.0594 14.8275 5.99435 14.7855C5.92931 14.7434 5.87582 14.6858 5.83876 14.6178C5.80171 14.5498 5.78227 14.4736 5.78223 14.3961V10.57C5.78227 10.4926 5.80171 10.4164 5.83876 10.3484C5.87582 10.2803 5.92931 10.2227 5.99435 10.1807C6.0594 10.1386 6.13394 10.1135 6.21117 10.1077C6.2884 10.1019 6.36586 10.1155 6.43649 10.1472L10.1287 11.8087Z" fill="white"/>
<path d="M15.3477 13.9131C15.855 13.9131 16.3416 13.7115 16.7004 13.3527C17.0591 12.994 17.2607 12.5074 17.2607 12C17.2607 11.4926 17.0591 11.0061 16.7004 10.6473C16.3416 10.2885 15.855 10.087 15.3477 10.087V4.34784C17.3771 4.34784 19.3235 5.15405 20.7586 6.58911C22.1936 8.02417 22.9998 9.97053 22.9998 12C22.9998 14.0295 22.1936 15.9759 20.7586 17.4109C19.3235 18.846 17.3771 19.6522 15.3477 19.6522V13.9131Z" fill="#6B6B6B"/>
<path d="M10.1287 11.8087C10.2586 11.8671 10.3689 11.9619 10.4463 12.0815C10.5236 12.2011 10.5648 12.3406 10.5648 12.4831C10.5648 12.6255 10.5236 12.765 10.4463 12.8846C10.3689 13.0042 10.2586 13.099 10.1287 13.1574L6.43649 14.8189C6.36586 14.8507 6.2884 14.8643 6.21117 14.8584C6.13394 14.8526 6.0594 14.8275 5.99435 14.7855C5.92931 14.7434 5.87582 14.6858 5.83876 14.6178C5.80171 14.5498 5.78227 14.4736 5.78223 14.3961V10.57C5.78227 10.4926 5.80171 10.4164 5.83876 10.3484C5.87582 10.2803 5.92931 10.2227 5.99435 10.1807C6.0594 10.1386 6.13394 10.1135 6.21117 10.1077C6.2884 10.1019 6.36586 10.1155 6.43649 10.1472L10.1287 11.8087Z" stroke="#191919" stroke-linecap="round" stroke-linejoin="round"/>
<path d="M15.3477 13.9131C15.855 13.9131 16.3416 13.7115 16.7004 13.3527C17.0591 12.994 17.2607 12.5074 17.2607 12C17.2607 11.4926 17.0591 11.0061 16.7004 10.6473C16.3416 10.2885 15.855 10.087 15.3477 10.087V4.34784C17.3771 4.34784 19.3235 5.15405 20.7586 6.58911C22.1936 8.02417 22.9998 9.97053 22.9998 12C22.9998 14.0295 22.1936 15.9759 20.7586 17.4109C19.3235 18.846 17.3771 19.6522 15.3477 19.6522V13.9131Z" stroke="#191919" stroke-linecap="round" stroke-linejoin="round"/>
</svg>
