<svg width="24" height="24" viewBox="0 0 24 24" fill="none" xmlns="http://www.w3.org/2000/svg">
<path d="M7.74139 16.4998C7.92694 16.4998 8.10883 16.5514 8.26672 16.6489C8.4246 16.7464 8.55224 16.8859 8.63537 17.0518C9.05436 17.8877 10.4003 18.4997 12.0003 18.4997C13.6003 18.4997 14.9452 17.8877 15.3652 17.0518C15.4483 16.8859 15.576 16.7464 15.7339 16.6489C15.8917 16.5514 16.0736 16.4998 16.2592 16.4998H20.5001V5.16708C20.5001 4.72498 20.3245 4.30098 20.0119 3.98836C19.6992 3.67575 19.2752 3.50012 18.8331 3.50012H5.16645C4.94759 3.50012 4.73087 3.54325 4.52868 3.62703C4.32649 3.71082 4.1428 3.83362 3.98808 3.98843C3.83337 4.14323 3.71068 4.327 3.62702 4.52924C3.54335 4.73148 3.50036 4.94822 3.50049 5.16708V16.4998H7.74139Z" fill="#66E1FF"/>
<path d="M18.8331 3.50012H5.16745C4.72534 3.50012 4.30135 3.67575 3.98873 3.98836C3.67611 4.30098 3.50049 4.72498 3.50049 5.16708V16.4998H6.30942L19.2501 3.55912C19.1142 3.52162 18.9741 3.50179 18.8331 3.50012Z" fill="#C2F3FF"/>
<path d="M7.74139 16.4998C7.92694 16.4998 8.10883 16.5514 8.26672 16.6489C8.4246 16.7464 8.55224 16.8859 8.63537 17.0518C9.05436 17.8877 10.4003 18.4997 12.0003 18.4997C13.6003 18.4997 14.9452 17.8877 15.3652 17.0518C15.4483 16.8859 15.576 16.7464 15.7339 16.6489C15.8917 16.5514 16.0736 16.4998 16.2592 16.4998H20.5001V5.16708C20.5001 4.72498 20.3245 4.30098 20.0119 3.98836C19.6992 3.67575 19.2752 3.50012 18.8331 3.50012H5.16645C4.94759 3.50012 4.73087 3.54325 4.52868 3.62703C4.32649 3.71082 4.1428 3.83362 3.98808 3.98843C3.83337 4.14323 3.71068 4.327 3.62702 4.52924C3.54335 4.73148 3.50036 4.94822 3.50049 5.16708V16.4998H7.74139Z" stroke="#191919" stroke-linecap="round" stroke-linejoin="round"/>
<path d="M16.2589 16.4999C16.0733 16.4999 15.8915 16.5516 15.7336 16.6491C15.5757 16.7465 15.448 16.886 15.3649 17.0519C14.9449 17.8879 13.6 18.4999 12 18.4999C10.4 18.4999 9.05407 17.8879 8.63508 17.0519C8.55187 16.8859 8.42407 16.7463 8.266 16.6488C8.10792 16.5513 7.92582 16.4998 7.7401 16.4999H2.00023C1.82151 16.4999 1.64604 16.5477 1.49209 16.6385C1.33813 16.7293 1.21132 16.8597 1.12484 17.0161C1.03837 17.1725 0.995396 17.3492 1.00039 17.5279C1.00539 17.7065 1.05817 17.8806 1.15325 18.0319C1.62896 18.7876 2.28848 19.4103 3.07017 19.8419C3.85187 20.2735 4.73022 20.4998 5.62315 20.4998H18.3769C19.2698 20.4998 20.1481 20.2733 20.9298 19.8418C21.7114 19.4102 22.371 18.7875 22.8467 18.0319C22.9418 17.8806 22.9946 17.7065 22.9996 17.5279C23.0046 17.3492 22.9616 17.1725 22.8752 17.0161C22.7887 16.8597 22.6619 16.7293 22.5079 16.6385C22.354 16.5477 22.1785 16.4999 21.9998 16.4999H16.2589Z" fill="#E3E3E3"/>
<path d="M14.5304 11.171C14.6677 11.1205 14.7861 11.0291 14.8698 10.9091C14.9535 10.7891 14.9984 10.6463 14.9984 10.5C14.9984 10.3537 14.9535 10.211 14.8698 10.091C14.7861 9.97103 14.6677 9.87961 14.5304 9.82908L9.97048 8.17112C9.91758 8.15181 9.86081 8.14555 9.80498 8.15287C9.74914 8.1602 9.6959 8.18088 9.64977 8.21317C9.60364 8.24546 9.56598 8.28841 9.54 8.33836C9.51401 8.38831 9.50045 8.4438 9.50049 8.50011V12.5C9.50045 12.5563 9.51401 12.6118 9.54 12.6617C9.56598 12.7117 9.60364 12.7546 9.64977 12.7869C9.6959 12.8192 9.74914 12.8399 9.80498 12.8472C9.86081 12.8545 9.91758 12.8483 9.97048 12.829L14.5304 11.171Z" fill="white"/>
<path d="M16.2589 16.4999C16.0733 16.4999 15.8915 16.5516 15.7336 16.6491C15.5757 16.7465 15.448 16.886 15.3649 17.0519C14.9449 17.8879 13.6 18.4999 12 18.4999C10.4 18.4999 9.05407 17.8879 8.63508 17.0519C8.55187 16.8859 8.42407 16.7463 8.266 16.6488C8.10792 16.5513 7.92582 16.4998 7.7401 16.4999H2.00023C1.82151 16.4999 1.64604 16.5477 1.49209 16.6385C1.33813 16.7293 1.21132 16.8597 1.12484 17.0161C1.03837 17.1725 0.995396 17.3492 1.00039 17.5279C1.00539 17.7065 1.05817 17.8806 1.15325 18.0319C1.62896 18.7876 2.28848 19.4103 3.07017 19.8419C3.85187 20.2735 4.73022 20.4998 5.62315 20.4998H18.3769C19.2698 20.4998 20.1481 20.2733 20.9298 19.8418C21.7114 19.4102 22.371 18.7875 22.8467 18.0319C22.9418 17.8806 22.9946 17.7065 22.9996 17.5279C23.0046 17.3492 22.9616 17.1725 22.8752 17.0161C22.7887 16.8597 22.6619 16.7293 22.5079 16.6385C22.354 16.5477 22.1785 16.4999 21.9998 16.4999H16.2589Z" stroke="#191919" stroke-linecap="round" stroke-linejoin="round"/>
<path d="M14.5304 11.171C14.6677 11.1205 14.7861 11.0291 14.8698 10.9091C14.9535 10.7891 14.9984 10.6463 14.9984 10.5C14.9984 10.3537 14.9535 10.211 14.8698 10.091C14.7861 9.97103 14.6677 9.87961 14.5304 9.82908L9.97048 8.17112C9.91758 8.15181 9.86081 8.14555 9.80498 8.15287C9.74914 8.1602 9.6959 8.18088 9.64977 8.21317C9.60364 8.24546 9.56598 8.28841 9.54 8.33836C9.51401 8.38831 9.50045 8.4438 9.50049 8.50011V12.5C9.50045 12.5563 9.51401 12.6118 9.54 12.6617C9.56598 12.7117 9.60364 12.7546 9.64977 12.7869C9.6959 12.8192 9.74914 12.8399 9.80498 12.8472C9.86081 12.8545 9.91758 12.8483 9.97048 12.829L14.5304 11.171Z" stroke="#191919" stroke-linecap="round" stroke-linejoin="round"/>
</svg>
