<svg width="24" height="24" viewBox="0 0 24 24" fill="none" xmlns="http://www.w3.org/2000/svg">
<g clip-path="url(#clip0_5303_3517)">
<path d="M18.8901 4.82527C19.0695 5.00452 19.1702 5.24776 19.1703 5.50131V22.0387C19.1703 22.2924 19.0695 22.5356 18.8902 22.715C18.7109 22.8943 18.4676 22.995 18.214 22.995H1.95678C1.70314 22.995 1.4599 22.8942 1.28056 22.715C1.10121 22.5356 1.00049 22.2924 1.00049 22.0387V1.95629C1.00049 1.70265 1.10121 1.45941 1.28056 1.28007C1.4599 1.10073 1.70314 1 1.95678 1H14.669C14.9226 1.00009 15.1657 1.10082 15.3451 1.28025L18.8901 4.82527Z" fill="#E4F1F5"/>
<path d="M18.8901 4.82527L15.3451 1.28025C15.1657 1.10082 14.9226 1.00009 14.6689 1H1.95678C1.70314 1 1.4599 1.10073 1.28056 1.28007C1.10121 1.45941 1.00049 1.70265 1.00049 1.95629V22.0387C1.00058 22.2924 1.10131 22.5355 1.28065 22.7149L19.002 4.99355C18.9711 4.9334 18.9336 4.87699 18.8901 4.82527Z" fill="white"/>
<path d="M9.60723 22.995H1.95678C1.70314 22.995 1.4599 22.8942 1.28056 22.715C1.10121 22.5356 1.00049 22.2924 1.00049 22.0387V1.95629C1.00049 1.70265 1.10121 1.45941 1.28056 1.28007C1.4599 1.10073 1.70314 1 1.95678 1H14.669C14.9226 1.00009 15.1657 1.10082 15.3451 1.28025L18.8901 4.82527C19.0695 5.00452 19.1702 5.24776 19.1703 5.50131V8.65044" stroke="#191919" stroke-linecap="round" stroke-linejoin="round"/>
<path d="M7.82512 8.37695C7.7138 8.31492 7.58834 8.28307 7.46091 8.28457C7.33357 8.28597 7.20886 8.32073 7.09904 8.38529C6.98923 8.44985 6.89825 8.54205 6.835 8.65262C6.77185 8.76318 6.73858 8.88836 6.73877 9.01579V14.5011C6.73858 14.6286 6.77185 14.7537 6.835 14.8642C6.89825 14.9749 6.98923 15.067 7.09904 15.1316C7.20886 15.1962 7.33357 15.2309 7.46091 15.2324C7.58834 15.2339 7.7138 15.2019 7.82512 15.14L12.5789 12.2146C12.6928 12.1512 12.7877 12.0586 12.8539 11.946C12.9199 11.8337 12.9549 11.7057 12.9549 11.5754C12.9549 11.4449 12.9199 11.317 12.8539 11.2045C12.7878 11.0921 12.6928 10.9994 12.5789 10.9361L7.82512 8.37695Z" fill="#66E1FF"/>
<path d="M7.82512 8.37695C7.7138 8.31492 7.58834 8.28307 7.46091 8.28457C7.33357 8.28597 7.20886 8.32073 7.09904 8.38529C6.98923 8.44985 6.89825 8.54205 6.835 8.65262C6.77185 8.76318 6.73858 8.88836 6.73877 9.01579V14.5011C6.73858 14.6286 6.77185 14.7537 6.835 14.8642C6.89825 14.9749 6.98923 15.067 7.09904 15.1316C7.20886 15.1962 7.33357 15.2309 7.46091 15.2324C7.58834 15.2339 7.7138 15.2019 7.82512 15.14L12.5789 12.2146C12.6928 12.1512 12.7877 12.0586 12.8539 11.946C12.9199 11.8337 12.9549 11.7057 12.9549 11.5754C12.9549 11.4449 12.9199 11.317 12.8539 11.2045C12.7878 11.0921 12.6928 10.9994 12.5789 10.9361L7.82512 8.37695Z" stroke="#191919" stroke-linecap="round" stroke-linejoin="round"/>
<path d="M17.9344 11.9315L19.4061 15.3455H22.2693C22.4139 15.3399 22.5568 15.379 22.6784 15.4576C22.8 15.5362 22.8944 15.6505 22.9486 15.7848C23.0028 15.9191 23.0143 16.0668 22.9813 16.2078C22.9483 16.3488 22.8727 16.4762 22.7646 16.5725L20.2782 18.7873L21.6553 21.9556C21.7158 22.1005 21.7293 22.2607 21.6939 22.4136C21.6584 22.5667 21.5761 22.7046 21.4581 22.8083C21.3402 22.9119 21.1927 22.9761 21.0365 22.9916C20.8803 23.007 20.7231 22.9731 20.5871 22.8946L17.2649 21.0193L13.937 22.8994C13.801 22.9779 13.6439 23.0118 13.4876 22.9964C13.3313 22.9809 13.1839 22.9167 13.0659 22.8131C12.9481 22.7095 12.8656 22.5714 12.8302 22.4184C12.7949 22.2655 12.8084 22.1053 12.8688 21.9603L14.243 18.7873L11.7566 16.5725C11.6483 16.4766 11.5722 16.3496 11.5389 16.2087C11.5056 16.068 11.5165 15.9203 11.5704 15.7859C11.6241 15.6517 11.7182 15.5373 11.8395 15.4585C11.9609 15.3797 12.1036 15.3402 12.2481 15.3455H15.117L16.5907 11.9315C16.6562 11.8099 16.7534 11.7081 16.8721 11.6373C16.9906 11.5665 17.1262 11.5291 17.2644 11.5291C17.4026 11.5291 17.5382 11.5665 17.6568 11.6373C17.7754 11.7081 17.8726 11.8099 17.9381 11.9315H17.9344Z" fill="#FFEF5E"/>
<path d="M19.406 15.3446L17.9343 11.9306C17.8688 11.8089 17.7716 11.7072 17.6529 11.6364C17.5344 11.5655 17.3987 11.528 17.2606 11.528C17.1224 11.528 16.9868 11.5655 16.8682 11.6364C16.7494 11.7072 16.6523 11.8089 16.5868 11.9306L15.1132 15.3446H12.2442C12.0996 15.3392 11.9569 15.3786 11.8356 15.4574C11.7142 15.5362 11.6203 15.6507 11.5665 15.785C11.5127 15.9194 11.5016 16.0671 11.535 16.2078C11.5683 16.3485 11.6443 16.4757 11.7527 16.5715L14.2391 18.7864L12.8687 21.9556C12.8006 22.125 12.7971 22.3135 12.8592 22.4854L19.9989 15.3446H19.406Z" fill="#FFF9BF"/>
<path d="M17.9344 11.9315L19.4061 15.3455H22.2693C22.4139 15.3399 22.5568 15.379 22.6784 15.4576C22.8 15.5362 22.8944 15.6505 22.9486 15.7848C23.0028 15.9191 23.0143 16.0668 22.9813 16.2078C22.9483 16.3488 22.8727 16.4762 22.7646 16.5725L20.2782 18.7873L21.6553 21.9556C21.7158 22.1005 21.7293 22.2607 21.6939 22.4136C21.6584 22.5667 21.5761 22.7046 21.4581 22.8083C21.3402 22.9119 21.1927 22.9761 21.0365 22.9916C20.8803 23.007 20.7231 22.9731 20.5871 22.8946L17.2649 21.0193L13.937 22.8994C13.801 22.9779 13.6439 23.0118 13.4876 22.9964C13.3313 22.9809 13.1839 22.9167 13.0659 22.8131C12.9481 22.7095 12.8656 22.5714 12.8302 22.4184C12.7949 22.2655 12.8084 22.1053 12.8688 21.9603L14.243 18.7873L11.7566 16.5725C11.6483 16.4766 11.5722 16.3496 11.5389 16.2087C11.5056 16.068 11.5165 15.9203 11.5704 15.7859C11.6241 15.6517 11.7182 15.5373 11.8395 15.4585C11.9609 15.3797 12.1036 15.3402 12.2481 15.3455H15.117L16.5907 11.9315C16.6562 11.8099 16.7534 11.7081 16.8721 11.6373C16.9906 11.5665 17.1262 11.5291 17.2644 11.5291C17.4026 11.5291 17.5382 11.5665 17.6568 11.6373C17.7754 11.7081 17.8726 11.8099 17.9381 11.9315H17.9344Z" stroke="#191919" stroke-linecap="round" stroke-linejoin="round"/>
</g>
<defs>
<clipPath id="clip0_5303_3517">
<rect width="24" height="24" fill="white"/>
</clipPath>
</defs>
</svg>
