<svg width="24" height="24" viewBox="0 0 24 24" fill="none" xmlns="http://www.w3.org/2000/svg">
<path d="M22.0435 6.73901H1.95652C1.70284 6.73901 1.45954 6.83979 1.28016 7.01917C1.10078 7.19856 1 7.44185 1 7.69554V16.3042C1 16.5579 1.10078 16.8012 1.28016 16.9806C1.45954 17.16 1.70284 17.2608 1.95652 17.2608H22.0435C22.2972 17.2608 22.5405 17.16 22.7198 16.9806C22.8992 16.8012 23 16.5579 23 16.3042V7.69554C23 7.44185 22.8992 7.19856 22.7198 7.01917C22.5405 6.83979 22.2972 6.73901 22.0435 6.73901Z" fill="#E3E3E3"/>
<path d="M20.13 4.82605H3.86912C3.61543 4.82605 3.37214 4.92683 3.19276 5.10621C3.01337 5.28559 2.9126 5.52889 2.9126 5.78257V18.2174C2.9126 18.471 3.01337 18.7143 3.19276 18.8937C3.37214 19.0731 3.61543 19.1739 3.86912 19.1739H20.13C20.3837 19.1739 20.627 19.0731 20.8063 18.8937C20.9857 18.7143 21.0865 18.471 21.0865 18.2174V5.78257C21.0865 5.52889 20.9857 5.28559 20.8063 5.10621C20.627 4.92683 20.3837 4.82605 20.13 4.82605Z" fill="#E3E3E3"/>
<path d="M17.2605 2.91296H6.73875C6.48506 2.91296 6.24177 3.01374 6.06239 3.19312C5.883 3.37251 5.78223 3.6158 5.78223 3.86949V20.1303C5.78223 20.384 5.883 20.6273 6.06239 20.8067C6.24177 20.9861 6.48506 21.0868 6.73875 21.0868H17.2605C17.5142 21.0868 17.7575 20.9861 17.9368 20.8067C18.1162 20.6273 18.217 20.384 18.217 20.1303V3.86949C18.217 3.6158 18.1162 3.37251 17.9368 3.19312C17.7575 3.01374 17.5142 2.91296 17.2605 2.91296Z" fill="#66E1FF"/>
<path d="M18.217 5.85905V3.86949C18.217 3.6158 18.1162 3.37251 17.9368 3.19312C17.7575 3.01374 17.5142 2.91296 17.2605 2.91296H6.73875C6.48506 2.91296 6.24177 3.01374 6.06239 3.19312C5.883 3.37251 5.78223 3.6158 5.78223 3.86949V18.2938L18.217 5.85905Z" fill="#C2F3FF"/>
<path d="M17.2605 2.91296H6.73875C6.48506 2.91296 6.24177 3.01374 6.06239 3.19312C5.883 3.37251 5.78223 3.6158 5.78223 3.86949V20.1303C5.78223 20.384 5.883 20.6273 6.06239 20.8067C6.24177 20.9861 6.48506 21.0868 6.73875 21.0868H17.2605C17.5142 21.0868 17.7575 20.9861 17.9368 20.8067C18.1162 20.6273 18.217 20.384 18.217 20.1303V3.86949C18.217 3.6158 18.1162 3.37251 17.9368 3.19312C17.7575 3.01374 17.5142 2.91296 17.2605 2.91296Z" stroke="#191919" stroke-linecap="round" stroke-linejoin="round"/>
<path d="M10.9416 10.0362C10.8514 9.99124 10.7513 9.97003 10.6507 9.97461C10.55 9.97919 10.4523 10.0094 10.3666 10.0624C10.2809 10.1154 10.2102 10.1894 10.1612 10.2774C10.1122 10.3654 10.0864 10.4645 10.0864 10.5652V13.4347C10.0863 13.5356 10.1121 13.6348 10.1611 13.7229C10.2102 13.8111 10.281 13.8851 10.3668 13.9382C10.4526 13.9912 10.5506 14.0214 10.6514 14.0258C10.7521 14.0303 10.8523 14.0089 10.9425 13.9637L13.4849 12.6925C13.6134 12.628 13.7214 12.5291 13.7969 12.4069C13.8723 12.2846 13.9123 12.1437 13.9123 12C13.9123 11.8563 13.8723 11.7154 13.7969 11.5931C13.7214 11.4708 13.6134 11.3719 13.4849 11.3074L10.9416 10.0362Z" fill="white"/>
<path d="M3.86912 4.82605C3.61543 4.82605 3.37214 4.92683 3.19276 5.10621C3.01337 5.28559 2.9126 5.52889 2.9126 5.78257V18.2174C2.9126 18.471 3.01337 18.7143 3.19276 18.8937C3.37214 19.0731 3.61543 19.1739 3.86912 19.1739" stroke="#191919" stroke-linecap="round" stroke-linejoin="round"/>
<path d="M2.91304 6.73901H1.95652C1.70284 6.73901 1.45954 6.83979 1.28016 7.01917C1.10078 7.19856 1 7.44185 1 7.69554V16.3042C1 16.5579 1.10078 16.8012 1.28016 16.9806C1.45954 17.16 1.70284 17.2608 1.95652 17.2608H2.91304" stroke="#191919" stroke-linecap="round" stroke-linejoin="round"/>
<path d="M20.1299 4.82605C20.3836 4.82605 20.6269 4.92683 20.8062 5.10621C20.9856 5.28559 21.0864 5.52889 21.0864 5.78257V18.2174C21.0864 18.471 20.9856 18.7143 20.8062 18.8937C20.6269 19.0731 20.3836 19.1739 20.1299 19.1739" stroke="#191919" stroke-linecap="round" stroke-linejoin="round"/>
<path d="M21.0869 6.73901H22.0434C22.2971 6.73901 22.5404 6.83979 22.7198 7.01917C22.8992 7.19856 23 7.44185 23 7.69554V16.3042C23 16.5579 22.8992 16.8012 22.7198 16.9806C22.5404 17.16 22.2971 17.2608 22.0434 17.2608H21.0869" stroke="#191919" stroke-linecap="round" stroke-linejoin="round"/>
<path d="M7.69531 19.1738H8.65183" stroke="#191919" stroke-linecap="round" stroke-linejoin="round"/>
<path d="M11.521 19.1738H12.4775" stroke="#191919" stroke-linecap="round" stroke-linejoin="round"/>
<path d="M15.3477 19.1738H16.3042" stroke="#191919" stroke-linecap="round" stroke-linejoin="round"/>
<path d="M7.69531 4.82605H8.65183" stroke="#191919" stroke-linecap="round" stroke-linejoin="round"/>
<path d="M11.521 4.82605H12.4775" stroke="#191919" stroke-linecap="round" stroke-linejoin="round"/>
<path d="M15.3477 4.82605H16.3042" stroke="#191919" stroke-linecap="round" stroke-linejoin="round"/>
<path d="M10.9416 10.0362C10.8514 9.99124 10.7513 9.97003 10.6507 9.97461C10.55 9.97919 10.4523 10.0094 10.3666 10.0624C10.2809 10.1154 10.2102 10.1894 10.1612 10.2774C10.1122 10.3654 10.0864 10.4645 10.0864 10.5652V13.4347C10.0863 13.5356 10.1121 13.6348 10.1611 13.7229C10.2102 13.8111 10.281 13.8851 10.3668 13.9382C10.4526 13.9912 10.5506 14.0214 10.6514 14.0258C10.7521 14.0303 10.8523 14.0089 10.9425 13.9637L13.4849 12.6925C13.6134 12.628 13.7214 12.5291 13.7969 12.4069C13.8723 12.2846 13.9123 12.1437 13.9123 12C13.9123 11.8563 13.8723 11.7154 13.7969 11.5931C13.7214 11.4708 13.6134 11.3719 13.4849 11.3074L10.9416 10.0362Z" stroke="#191919" stroke-linecap="round" stroke-linejoin="round"/>
</svg>
