<svg width="24" height="24" viewBox="0 0 24 24" fill="none" xmlns="http://www.w3.org/2000/svg">
<path d="M19.1739 2.91302H4.82609C3.81135 2.91302 2.83817 3.31613 2.12063 4.03366C1.4031 4.75119 1 5.72438 1 6.73911V17.2608C1 18.2756 1.4031 19.2488 2.12063 19.9663C2.83817 20.6838 3.81135 21.0869 4.82609 21.0869H19.1739C20.1887 21.0869 21.1618 20.6838 21.8794 19.9663C22.5969 19.2488 23 18.2756 23 17.2608V6.73911C23 5.72438 22.5969 4.75119 21.8794 4.03366C21.1618 3.31613 20.1887 2.91302 19.1739 2.91302Z" fill="#66E1FF"/>
<path d="M19.1739 2.91303H4.82609C3.81228 2.91606 2.84085 3.32013 2.12398 4.03701C1.4071 4.75388 1.00303 5.7253 1 6.73911V17.2609C1.00199 17.9958 1.21484 18.7146 1.61329 19.3322C2.01174 19.9497 2.57904 20.4399 3.24783 20.7445L20.7407 3.25068C20.2486 3.02746 19.7143 2.91233 19.1739 2.91303Z" fill="#C2F3FF"/>
<path d="M19.1739 2.91302H4.82609C3.81135 2.91302 2.83817 3.31613 2.12063 4.03366C1.4031 4.75119 1 5.72438 1 6.73911V17.2608C1 18.2756 1.4031 19.2488 2.12063 19.9663C2.83817 20.6838 3.81135 21.0869 4.82609 21.0869H19.1739C20.1887 21.0869 21.1618 20.6838 21.8794 19.9663C22.5969 19.2488 23 18.2756 23 17.2608V6.73911C23 5.72438 22.5969 4.75119 21.8794 4.03366C21.1618 3.31613 20.1887 2.91302 19.1739 2.91302Z" stroke="#191919" stroke-linecap="round" stroke-linejoin="round"/>
<path d="M10.0355 15.6118C9.88966 15.6846 9.72767 15.719 9.56485 15.7117C9.40203 15.7043 9.24379 15.6555 9.10514 15.5699C8.96648 15.4842 8.85202 15.3645 8.7726 15.2222C8.69319 15.0799 8.65145 14.9196 8.65137 14.7566V9.24324C8.65145 9.08026 8.69319 8.92 8.7726 8.77768C8.85202 8.63535 8.96648 8.51568 9.10514 8.43001C9.24379 8.34435 9.40203 8.29553 9.56485 8.2882C9.72767 8.28087 9.88966 8.31526 10.0355 8.38811L15.5488 11.1448C15.7078 11.2241 15.8415 11.3461 15.935 11.4971C16.0285 11.6482 16.078 11.8223 16.078 11.9999C16.078 12.1776 16.0285 12.3517 15.935 12.5027C15.8415 12.6538 15.7078 12.7758 15.5488 12.8551L10.0355 15.6118Z" fill="white"/>
<path d="M10.0355 15.6118C9.88966 15.6846 9.72767 15.719 9.56485 15.7117C9.40203 15.7043 9.24379 15.6555 9.10514 15.5699C8.96648 15.4842 8.85202 15.3645 8.7726 15.2222C8.69319 15.0799 8.65145 14.9196 8.65137 14.7566V9.24324C8.65145 9.08026 8.69319 8.92 8.7726 8.77768C8.85202 8.63535 8.96648 8.51568 9.10514 8.43001C9.24379 8.34435 9.40203 8.29553 9.56485 8.2882C9.72767 8.28087 9.88966 8.31526 10.0355 8.38811L15.5488 11.1448C15.7078 11.2241 15.8415 11.3461 15.935 11.4971C16.0285 11.6482 16.078 11.8223 16.078 11.9999C16.078 12.1776 16.0285 12.3517 15.935 12.5027C15.8415 12.6538 15.7078 12.7758 15.5488 12.8551L10.0355 15.6118Z" stroke="#191919" stroke-linecap="round" stroke-linejoin="round"/>
</svg>
