<svg width="24" height="24" viewBox="0 0 24 24" fill="none" xmlns="http://www.w3.org/2000/svg">
<g clip-path="url(#clip0_5303_3468)">
<path d="M18.8941 4.82609C19.0736 5.00542 19.1743 5.24868 19.1744 5.50235V22.0435C19.1744 22.2971 19.0736 22.5405 18.8942 22.7198C18.7149 22.8992 18.4715 23 18.2179 23H1.95701C1.70332 23 1.46003 22.8992 1.28065 22.7198C1.10126 22.5405 1.00049 22.2971 1.00049 22.0435V1.95652C1.00049 1.70283 1.10126 1.45954 1.28065 1.28016C1.46003 1.10078 1.70332 1 1.95701 1H14.672C14.9257 1.00005 15.169 1.10087 15.3483 1.28026L18.8941 4.82609Z" fill="#E4F1F5"/>
<path d="M18.8941 4.82609L15.3483 1.28026C15.169 1.10087 14.9257 1.00005 14.672 1H1.95701C1.70332 1 1.46003 1.10078 1.28065 1.28016C1.10126 1.45954 1.00049 1.70283 1.00049 1.95652V22.0435C1.00054 22.2376 1.05968 22.4272 1.17005 22.587C1.28042 22.7467 1.4368 22.869 1.6184 22.9378L19.1677 5.38948C19.1424 5.17631 19.0459 4.97787 18.8941 4.82609Z" fill="white"/>
<path d="M7.82635 8.37861C7.71507 8.31658 7.58951 8.28472 7.46212 8.28618C7.33472 8.28764 7.20992 8.32239 7.10011 8.38697C6.99028 8.45155 6.89925 8.54371 6.83604 8.65434C6.77282 8.76495 6.73963 8.89017 6.73975 9.01757V14.5042C6.73963 14.6316 6.77282 14.7568 6.83604 14.8674C6.89925 14.978 6.99028 15.0702 7.10011 15.1348C7.20992 15.1994 7.33472 15.2341 7.46212 15.2355C7.58951 15.2371 7.71507 15.2051 7.82635 15.1431L12.5812 12.2171C12.6951 12.1537 12.7901 12.061 12.8562 11.9485C12.9223 11.8362 12.9572 11.7081 12.9572 11.5777C12.9572 11.4472 12.9223 11.3193 12.8562 11.2068C12.7901 11.0944 12.6951 11.0017 12.5812 10.9383L7.82635 8.37861Z" fill="#66E1FF"/>
<path d="M9.60918 23H1.95701C1.70332 23 1.46003 22.8992 1.28065 22.7198C1.10126 22.5405 1.00049 22.2971 1.00049 22.0435V1.95652C1.00049 1.70283 1.10126 1.45954 1.28065 1.28016C1.46003 1.10078 1.70332 1 1.95701 1H14.672C14.9257 1.00005 15.169 1.10087 15.3483 1.28026L18.8941 4.82609C19.0736 5.00542 19.1743 5.24868 19.1744 5.50235V8.65217" stroke="#191919" stroke-linecap="round" stroke-linejoin="round"/>
<path d="M12.5812 10.9383L7.82635 8.37861C7.71507 8.31658 7.58951 8.28472 7.46212 8.28618C7.33472 8.28764 7.20992 8.32239 7.10011 8.38697C6.99028 8.45155 6.89925 8.54371 6.83604 8.65434C6.77282 8.76495 6.73963 8.89017 6.73975 9.01757V14.5042C6.73963 14.6316 6.77282 14.7568 6.83604 14.8674C6.89925 14.978 6.99028 15.0702 7.10011 15.1348C7.20992 15.1994 7.33472 15.2341 7.46212 15.2355C7.58951 15.2371 7.71507 15.2051 7.82635 15.1431L9.90679 13.8633" stroke="#191919" stroke-linecap="round" stroke-linejoin="round"/>
<path d="M17.2606 23C18.3957 23 19.5053 22.6634 20.4491 22.0328C21.3929 21.4021 22.1285 20.5059 22.5629 19.4571C22.9973 18.4084 23.1109 17.2545 22.8895 16.1413C22.668 15.028 22.1215 14.0054 21.3188 13.2027C20.5161 12.4 19.4935 11.8535 18.3802 11.632C17.267 11.4106 16.1131 11.5242 15.0643 11.9586C14.0156 12.393 13.1194 13.1286 12.4887 14.0724C11.8581 15.0162 11.5215 16.1258 11.5215 17.2609C11.5215 18.783 12.1261 20.2427 13.2025 21.319C14.2788 22.3954 15.7385 23 17.2606 23Z" fill="#78EB7B"/>
<path d="M17.261 11.5218C16.0927 11.5205 14.952 11.8762 13.9915 12.5411C13.0309 13.2061 12.2964 14.1487 11.8863 15.2425C11.4763 16.3364 11.4101 17.5295 11.6968 18.6621C11.9834 19.7946 12.6093 20.8125 13.4904 21.5796L21.5807 13.4893C21.0433 12.8714 20.3797 12.376 19.6345 12.0366C18.8892 11.6972 18.0799 11.5216 17.261 11.5218Z" fill="#C9F7CA"/>
<path d="M17.2606 23C18.3957 23 19.5053 22.6634 20.4491 22.0328C21.3929 21.4021 22.1285 20.5059 22.5629 19.4571C22.9973 18.4084 23.1109 17.2545 22.8895 16.1413C22.668 15.028 22.1215 14.0054 21.3188 13.2027C20.5161 12.4 19.4935 11.8535 18.3802 11.632C17.267 11.4106 16.1131 11.5242 15.0643 11.9586C14.0156 12.393 13.1194 13.1286 12.4887 14.0724C11.8581 15.0162 11.5215 16.1258 11.5215 17.2609C11.5215 18.783 12.1261 20.2427 13.2025 21.319C14.2788 22.3954 15.7385 23 17.2606 23Z" stroke="#191919" stroke-linecap="round" stroke-linejoin="round"/>
<path d="M17.2607 14.3913V20.1305" stroke="#191919" stroke-linecap="round" stroke-linejoin="round"/>
<path d="M17.2606 20.1304L15.1084 17.9783" stroke="#191919" stroke-linecap="round" stroke-linejoin="round"/>
<path d="M17.2607 20.1304L19.4129 17.9783" stroke="#191919" stroke-linecap="round" stroke-linejoin="round"/>
</g>
<defs>
<clipPath id="clip0_5303_3468">
<rect width="24" height="24" fill="white"/>
</clipPath>
</defs>
</svg>
