<svg width="24" height="24" viewBox="0 0 24 24" fill="none" xmlns="http://www.w3.org/2000/svg">
<path d="M1.4585 3.29165C1.4585 2.80542 1.65165 2.3391 1.99547 1.99528C2.33928 1.65147 2.8056 1.45831 3.29183 1.45831H20.7085C21.1947 1.45831 21.661 1.65147 22.0049 1.99528C22.3487 2.3391 22.5418 2.80542 22.5418 3.29165V20.7083C22.5418 21.1945 22.3487 21.6609 22.0049 22.0047C21.661 22.3485 21.1947 22.5416 20.7085 22.5416H3.29183C3.05107 22.5416 2.81267 22.4942 2.59024 22.4021C2.36781 22.31 2.16571 22.1749 1.99547 22.0047C1.65165 21.6609 1.4585 21.1945 1.4585 20.7083V3.29165Z" fill="#66E1FF"/>
<path d="M20.7085 1.45831H3.29183C3.05107 1.45831 2.81267 1.50573 2.59024 1.59787C2.36781 1.69 2.16571 1.82504 1.99547 1.99528C1.65165 2.3391 1.4585 2.80542 1.4585 3.29165V6.04165C1.4585 5.55542 1.65165 5.0891 1.99547 4.74528C2.33928 4.40147 2.8056 4.20831 3.29183 4.20831H20.7085C21.1947 4.20831 21.661 4.40147 22.0049 4.74528C22.3487 5.0891 22.5418 5.55542 22.5418 6.04165V3.29165C22.5418 2.80542 22.3487 2.3391 22.0049 1.99528C21.661 1.65147 21.1947 1.45831 20.7085 1.45831Z" fill="#C2F3FF"/>
<path d="M1.4585 3.29165C1.4585 2.80542 1.65165 2.3391 1.99547 1.99528C2.33928 1.65147 2.8056 1.45831 3.29183 1.45831H20.7085C21.1947 1.45831 21.661 1.65147 22.0049 1.99528C22.3487 2.3391 22.5418 2.80542 22.5418 3.29165V20.7083C22.5418 21.1945 22.3487 21.6609 22.0049 22.0047C21.661 22.3485 21.1947 22.5416 20.7085 22.5416H3.29183C3.05107 22.5416 2.81267 22.4942 2.59024 22.4021C2.36781 22.31 2.16571 22.1749 1.99547 22.0047C1.65165 21.6609 1.4585 21.1945 1.4585 20.7083V3.29165Z" stroke="#191919" stroke-linecap="round" stroke-linejoin="round"/>
<path d="M19.2188 12C19.2188 12 16.6411 7.875 12 7.875C7.35892 7.875 4.78125 12 4.78125 12C4.78125 12 7.35892 16.125 12 16.125C16.6411 16.125 19.2188 12 19.2188 12Z" fill="white"/>
<path d="M15.355 8.64225C14.3083 8.13832 13.1617 7.87611 12 7.875C7.35892 7.875 4.78125 12 4.78125 12C5.75852 13.4315 7.08789 14.5872 8.64133 15.3559L15.355 8.64225Z" fill="white"/>
<path d="M19.2188 12C19.2188 12 16.6411 7.875 12 7.875C7.35892 7.875 4.78125 12 4.78125 12C4.78125 12 7.35892 16.125 12 16.125C16.6411 16.125 19.2188 12 19.2188 12Z" stroke="#191919" stroke-linecap="round" stroke-linejoin="round"/>
<path d="M12.0002 14.2916C12.608 14.2916 13.1908 14.0502 13.6206 13.6204C14.0504 13.1907 14.2918 12.6078 14.2918 12C14.2918 11.3922 14.0504 10.8093 13.6206 10.3795C13.1908 9.94976 12.608 9.70831 12.0002 9.70831C11.3924 9.70831 10.8095 9.94976 10.3797 10.3795C9.94994 10.8093 9.7085 11.3922 9.7085 12C9.7085 12.6078 9.94994 13.1907 10.3797 13.6204C10.8095 14.0502 11.3924 14.2916 12.0002 14.2916Z" fill="#FF808C"/>
<path d="M13.6206 10.3793C13.1908 9.94948 12.6078 9.70801 12 9.70801C11.3921 9.70801 10.8091 9.94948 10.3793 10.3793C9.94948 10.8091 9.70801 11.3921 9.70801 12C9.70801 12.6078 9.94948 13.1908 10.3793 13.6206L13.6206 10.3793Z" fill="#FFBFC5"/>
<path d="M12.0002 14.2916C12.608 14.2916 13.1908 14.0502 13.6206 13.6204C14.0504 13.1907 14.2918 12.6078 14.2918 12C14.2918 11.3922 14.0504 10.8093 13.6206 10.3795C13.1908 9.94976 12.608 9.70831 12.0002 9.70831C11.3924 9.70831 10.8095 9.94976 10.3797 10.3795C9.94994 10.8093 9.7085 11.3922 9.7085 12C9.7085 12.6078 9.94994 13.1907 10.3797 13.6204C10.8095 14.0502 11.3924 14.2916 12.0002 14.2916Z" stroke="#191919" stroke-linecap="round" stroke-linejoin="round"/>
<path d="M12.0002 12.2291C11.9394 12.2291 11.8811 12.205 11.8381 12.162C11.7951 12.119 11.771 12.0608 11.771 12C11.771 11.9392 11.7951 11.8809 11.8381 11.8379C11.8811 11.795 11.9394 11.7708 12.0002 11.7708" stroke="#191919"/>
<path d="M12 12.2291C12.0608 12.2291 12.1191 12.205 12.162 12.162C12.205 12.119 12.2292 12.0608 12.2292 12C12.2292 11.9392 12.205 11.8809 12.162 11.8379C12.1191 11.795 12.0608 11.7708 12 11.7708" stroke="#191919"/>
</svg>
