<svg width="24" height="24" viewBox="0 0 24 24" fill="none" xmlns="http://www.w3.org/2000/svg">
<g clip-path="url(#clip0_5303_9879)">
<path d="M23 12C23 12 18.0758 5.78259 12 5.78259C5.92417 5.78259 1 12 1 12C1 12 5.92417 18.2174 12 18.2174C18.0758 18.2174 23 12 23 12Z" fill="#E4F1F5"/>
<path d="M12 5.78259C5.92417 5.78259 1 12 1 12C1 12 1.38835 12.4898 2.08087 13.1947C3.85522 11.3907 7.62965 8.1739 12 8.1739C16.3703 8.1739 20.1448 11.3907 21.9191 13.1966C22.6117 12.4917 23 12 23 12C23 12 18.0758 5.78259 12 5.78259Z" fill="white"/>
<path d="M11.9999 15.8366C14.113 15.8366 15.826 14.1236 15.826 12.0105C15.826 9.89744 14.113 8.18445 11.9999 8.18445C9.88682 8.18445 8.17383 9.89744 8.17383 12.0105C8.17383 14.1236 9.88682 15.8366 11.9999 15.8366Z" fill="#66E1FF"/>
<path d="M9.29437 14.7156C8.59004 13.9954 8.19812 13.0265 8.20367 12.0192C8.20922 11.012 8.61178 10.0475 9.32401 9.33511C10.0362 8.62276 11.0007 8.22003 12.008 8.2143C13.0153 8.20857 13.9841 8.60032 14.7045 9.30453L9.29437 14.7156Z" fill="#C2F3FF"/>
<path d="M19.1911 8.45129C20.602 9.47279 21.8813 10.6647 22.9999 12C22.9999 12 18.0758 18.2174 11.9999 18.2174C11.0268 18.2118 10.0598 18.0622 9.13037 17.7736" stroke="#191919" stroke-linecap="round" stroke-linejoin="round"/>
<path d="M4.79548 15.5391C3.38976 14.5198 2.115 13.3311 1 12C1 12 5.92417 5.78259 12 5.78259C12.8069 5.78634 13.6102 5.89077 14.3913 6.09346" stroke="#191919" stroke-linecap="round" stroke-linejoin="round"/>
<path d="M8.17383 12C8.17383 10.9852 8.57693 10.0121 9.29446 9.29458C10.012 8.57706 10.9851 8.17395 11.9999 8.17395" stroke="#191919" stroke-linecap="round" stroke-linejoin="round"/>
<path d="M15.8261 12C15.8261 13.0148 15.423 13.9879 14.7054 14.7054C13.9879 15.423 13.0148 15.8261 12 15.8261" stroke="#191919" stroke-linecap="round" stroke-linejoin="round"/>
<path d="M21.326 2.67395L2.67383 21.3261" stroke="#191919" stroke-linecap="round" stroke-linejoin="round"/>
</g>
<defs>
<clipPath id="clip0_5303_9879">
<rect width="24" height="24" fill="white"/>
</clipPath>
</defs>
</svg>
