<svg width="24" height="24" viewBox="0 0 24 24" fill="none" xmlns="http://www.w3.org/2000/svg">
<path d="M1 7.62698L1.89241 8.79772C1.89241 8.79772 3.73557 7.34673 4.34772 8.0727C4.95988 8.79868 7.31285 17.5659 8.09239 19.1843C8.77532 20.6027 10.6596 22.4784 12.7266 21.1374C14.7936 19.7964 21.6602 13.936 22.8903 7.011C24.1203 0.0859981 14.6243 1.53699 13.619 7.56863C16.1317 6.06024 17.4737 8.1827 16.1881 10.5854C14.9026 12.9881 13.7309 14.5501 13.1168 14.5501C12.5028 14.5501 12.0312 12.9441 11.3301 10.1378C10.6032 7.23482 10.608 2.00759 7.58927 2.5987C4.7418 3.15825 1 7.62698 1 7.62698Z" fill="#66E1FF"/>
<path d="M11.3301 10.1377C10.6032 7.23477 10.608 2.00755 7.58927 2.59866C4.7418 3.15821 1 7.62694 1 7.62694L1.89241 8.79768C1.89241 8.79768 3.73557 7.34668 4.34772 8.07266C4.8384 8.6523 6.43192 14.3587 7.45249 17.4568L12.0657 12.8446C11.8428 12.1387 11.6037 11.2329 11.3301 10.1377Z" fill="#C2F3FF"/>
<path d="M13.6191 7.56864C15.2452 6.59493 16.37 7.13822 16.6244 8.28888L21.8258 3.08652C19.4738 1.25675 14.3432 3.22234 13.6191 7.56864Z" fill="#C2F3FF"/>
<path d="M1 7.62698L1.89241 8.79772C1.89241 8.79772 3.73557 7.34673 4.34772 8.0727C4.95988 8.79868 7.31285 17.5659 8.09239 19.1843C8.77532 20.6027 10.6596 22.4784 12.7266 21.1374C14.7936 19.7964 21.6602 13.936 22.8903 7.011C24.1203 0.0859981 14.6243 1.53699 13.619 7.56863C16.1317 6.06024 17.4737 8.1827 16.1881 10.5854C14.9026 12.9881 13.7309 14.5501 13.1168 14.5501C12.5028 14.5501 12.0312 12.9441 11.3301 10.1378C10.6032 7.23482 10.608 2.00759 7.58927 2.5987C4.7418 3.15825 1 7.62698 1 7.62698Z" stroke="#191919" stroke-linecap="round" stroke-linejoin="round"/>
</svg>
