<svg width="24" height="24" viewBox="0 0 24 24" fill="none" xmlns="http://www.w3.org/2000/svg">
<g clip-path="url(#clip0_5303_13377)">
<path d="M21.087 6.73914H2.91306C2.65938 6.73914 2.41608 6.83991 2.2367 7.01929C2.05732 7.19868 1.95654 7.44197 1.95654 7.69566V20.1304C1.95654 20.3841 2.05732 20.6274 2.2367 20.8068C2.41608 20.9862 2.65938 21.087 2.91306 21.087H21.087C21.3407 21.087 21.584 20.9862 21.7633 20.8068C21.9427 20.6274 22.0435 20.3841 22.0435 20.1304V7.69566C22.0435 7.44197 21.9427 7.19868 21.7633 7.01929C21.584 6.83991 21.3407 6.73914 21.087 6.73914Z" fill="#C77F67"/>
<path d="M21.087 6.73914H2.91306C2.65938 6.73914 2.41608 6.83991 2.2367 7.01929C2.05732 7.19868 1.95654 7.44197 1.95654 7.69566V10.087C1.95654 9.83328 2.05732 9.58998 2.2367 9.4106C2.41608 9.23122 2.65938 9.13044 2.91306 9.13044H21.087C21.3407 9.13044 21.584 9.23122 21.7633 9.4106C21.9427 9.58998 22.0435 9.83328 22.0435 10.087V7.69566C22.0435 7.44197 21.9427 7.19868 21.7633 7.01929C21.584 6.83991 21.3407 6.73914 21.087 6.73914Z" fill="#E3BFB3"/>
<path d="M21.087 6.73914H2.91306C2.65938 6.73914 2.41608 6.83991 2.2367 7.01929C2.05732 7.19868 1.95654 7.44197 1.95654 7.69566V20.1304C1.95654 20.3841 2.05732 20.6274 2.2367 20.8068C2.41608 20.9862 2.65938 21.087 2.91306 21.087H21.087C21.3407 21.087 21.584 20.9862 21.7633 20.8068C21.9427 20.6274 22.0435 20.3841 22.0435 20.1304V7.69566C22.0435 7.44197 21.9427 7.19868 21.7633 7.01929C21.584 6.83991 21.3407 6.73914 21.087 6.73914Z" stroke="#191919" stroke-linecap="round" stroke-linejoin="round"/>
<path d="M3.87012 21.087V23" stroke="#191919" stroke-linecap="round" stroke-linejoin="round"/>
<path d="M20.1304 21.087V23" stroke="#191919" stroke-linecap="round" stroke-linejoin="round"/>
<path d="M6.26074 1L11.9999 6.73913L17.739 1" stroke="#191919" stroke-linecap="round" stroke-linejoin="round"/>
<path d="M16.3044 8.65222H7.69574C6.93468 8.65222 6.2048 8.95455 5.66665 9.4927C5.1285 10.0308 4.82617 10.7607 4.82617 11.5218V16.3044C4.82617 17.0655 5.1285 17.7953 5.66665 18.3335C6.2048 18.8716 6.93468 19.174 7.69574 19.174H16.3044C17.0655 19.174 17.7954 18.8716 18.3335 18.3335C18.8717 17.7953 19.174 17.0655 19.174 16.3044V11.5218C19.174 10.7607 18.8717 10.0308 18.3335 9.4927C17.7954 8.95455 17.0655 8.65222 16.3044 8.65222Z" fill="#66E1FF"/>
<path d="M16.3044 8.65222H7.69574C6.93538 8.65449 6.20681 8.95755 5.66916 9.49521C5.1315 10.0329 4.82844 10.7614 4.82617 11.5218V16.3044C4.82826 16.927 5.03199 17.5322 5.40687 18.0294C5.78175 18.5265 6.30759 18.8888 6.90565 19.062L17.1777 8.78996C16.8956 8.69871 16.6009 8.65223 16.3044 8.65222Z" fill="#C2F3FF"/>
<path d="M16.3044 8.65222H7.69574C6.93468 8.65222 6.2048 8.95455 5.66665 9.4927C5.1285 10.0308 4.82617 10.7607 4.82617 11.5218V16.3044C4.82617 17.0655 5.1285 17.7953 5.66665 18.3335C6.2048 18.8716 6.93468 19.174 7.69574 19.174H16.3044C17.0655 19.174 17.7954 18.8716 18.3335 18.3335C18.8717 17.7953 19.174 17.0655 19.174 16.3044V11.5218C19.174 10.7607 18.8717 10.0308 18.3335 9.4927C17.7954 8.95455 17.0655 8.65222 16.3044 8.65222Z" stroke="#191919" stroke-linecap="round" stroke-linejoin="round"/>
</g>
<defs>
<clipPath id="clip0_5303_13377">
<rect width="24" height="24" fill="white"/>
</clipPath>
</defs>
</svg>
