<svg width="24" height="24" viewBox="0 0 24 24" fill="none" xmlns="http://www.w3.org/2000/svg">
<g clip-path="url(#clip0_5303_12993)">
<mask id="mask0_5303_12993" style="mask-type:luminance" maskUnits="userSpaceOnUse" x="0" y="0" width="24" height="24">
<path d="M0 0H24V24H0V0Z" fill="white"/>
</mask>
<g mask="url(#mask0_5303_12993)">
<path d="M21.087 4.34778H22.0435C22.2972 4.34778 22.5405 4.44855 22.7198 4.62794C22.8992 4.80732 23 5.05061 23 5.3043V21.5652C23 21.8189 22.8992 22.0621 22.7198 22.2415C22.5405 22.4209 22.2972 22.5217 22.0435 22.5217H1.95652C1.70284 22.5217 1.45954 22.4209 1.28016 22.2415C1.10078 22.0621 1 21.8189 1 21.5652V5.3043C1 5.05061 1.10078 4.80732 1.28016 4.62794C1.45954 4.44855 1.70284 4.34778 1.95652 4.34778H17.2609" fill="#E3E3E3"/>
<path d="M22.0435 4.34778H1.95652C1.70284 4.34778 1.45954 4.44855 1.28016 4.62794C1.10078 4.80732 1 5.05061 1 5.3043V8.10882C1 7.85514 1.10078 7.61184 1.28016 7.43246C1.45954 7.25308 1.70284 7.1523 1.95652 7.1523H22.0435C22.2972 7.1523 22.5405 7.25308 22.7198 7.43246C22.8992 7.61184 23 7.85514 23 8.10882V5.3043C23 5.05061 22.8992 4.80732 22.7198 4.62794C22.5405 4.44855 22.2972 4.34778 22.0435 4.34778Z" fill="white"/>
<path d="M10.0865 20.6088C11.9892 20.6088 13.8139 19.853 15.1592 18.5076C16.5046 17.1623 17.2604 15.3375 17.2604 13.4349C17.2604 11.5323 16.5046 9.70755 15.1592 8.36218C13.8139 7.01681 11.9892 6.26099 10.0865 6.26099C8.18387 6.26099 6.35916 7.01681 5.01379 8.36218C3.66842 9.70755 2.9126 11.5323 2.9126 13.4349C2.9126 15.3375 3.66842 17.1623 5.01379 18.5076C6.35916 19.853 8.18387 20.6088 10.0865 20.6088Z" fill="#808080"/>
<path d="M21.087 4.34778H22.0435C22.2972 4.34778 22.5405 4.44855 22.7198 4.62794C22.8992 4.80732 23 5.05061 23 5.3043V21.5652C23 21.8189 22.8992 22.0621 22.7198 22.2415C22.5405 22.4209 22.2972 22.5217 22.0435 22.5217H1.95652C1.70284 22.5217 1.45954 22.4209 1.28016 22.2415C1.10078 22.0621 1 21.8189 1 21.5652V5.3043C1 5.05061 1.10078 4.80732 1.28016 4.62794C1.45954 4.44855 1.70284 4.34778 1.95652 4.34778H17.2609" stroke="#191919" stroke-linecap="round" stroke-linejoin="round"/>
<path d="M12.4781 20.2013C11.1378 20.6735 9.68745 20.7369 8.31103 20.3835C6.93461 20.0302 5.69413 19.276 4.74693 18.2167C3.79973 17.1573 3.18849 15.8405 2.99072 14.4333C2.79295 13.0261 3.01756 11.5918 3.63608 10.3124C4.25459 9.03306 5.23914 7.96619 6.46485 7.24714C7.69056 6.5281 9.1022 6.18927 10.5207 6.27364C11.9393 6.35802 13.3008 6.86178 14.4327 7.72105C15.5645 8.58031 16.4156 9.75636 16.8781 11.1" stroke="#191919" stroke-linecap="round" stroke-linejoin="round"/>
<path d="M10.0866 15.8262C10.7208 15.8262 11.3291 15.5742 11.7775 15.1258C12.226 14.6773 12.4779 14.0691 12.4779 13.4349C12.4779 12.8007 12.226 12.1924 11.7775 11.744C11.3291 11.2955 10.7208 11.0436 10.0866 11.0436C9.4524 11.0436 8.84417 11.2955 8.39571 11.744C7.94725 12.1924 7.69531 12.8007 7.69531 13.4349C7.69531 14.0691 7.94725 14.6773 8.39571 15.1258C8.84417 15.5742 9.4524 15.8262 10.0866 15.8262Z" fill="#FFEF5E"/>
<path d="M19.1741 6.26099V12.4784L16.5283 15.6473" stroke="#191919" stroke-linecap="round" stroke-linejoin="round"/>
<path d="M19.1733 1.47827C18.6659 1.47827 18.1793 1.67982 17.8206 2.03859C17.4618 2.39735 17.2603 2.88394 17.2603 3.39131V5.30436C17.2603 5.55804 17.361 5.80134 17.5404 5.98072C17.7198 6.1601 17.9631 6.26088 18.2168 6.26088H20.1298C20.3835 6.26088 20.6268 6.1601 20.8062 5.98072C20.9856 5.80134 21.0863 5.55804 21.0863 5.30436V3.39131C21.0863 2.88394 20.8848 2.39735 20.526 2.03859C20.1673 1.67982 19.6807 1.47827 19.1733 1.47827Z" fill="#808080"/>
<path d="M14.8698 15.3574C15.0492 15.1781 15.2924 15.0774 15.546 15.0774C15.7997 15.0774 16.0429 15.1781 16.2223 15.3574L16.7886 15.9237C16.9679 16.1031 17.0686 16.3463 17.0686 16.6C17.0686 16.8536 16.9679 17.0969 16.7886 17.2762L16.1573 17.9075C16.0506 18.0864 15.9049 18.2388 15.7311 18.3534C15.5572 18.468 15.3598 18.5419 15.1534 18.5695C14.947 18.5971 14.737 18.5777 14.5392 18.5128C14.3413 18.4478 14.1607 18.339 14.0108 18.1945C13.8691 18.0471 13.7605 17.8712 13.692 17.6785C13.6236 17.4859 13.5969 17.2808 13.6138 17.0771C13.6307 16.8733 13.6909 16.6755 13.7901 16.4967C13.8894 16.318 14.0256 16.1624 14.1897 16.0404L14.8698 15.3574Z" fill="#E3E3E3"/>
<path d="M19.1733 1.47827C18.6659 1.47827 18.1793 1.67982 17.8206 2.03859C17.4618 2.39735 17.2603 2.88394 17.2603 3.39131V5.30436C17.2603 4.79699 17.4618 4.3104 17.8206 3.95163C18.1793 3.59287 18.6659 3.39131 19.1733 3.39131C19.6807 3.39131 20.1673 3.59287 20.526 3.95163C20.8848 4.3104 21.0863 4.79699 21.0863 5.30436V3.39131C21.0863 2.88394 20.8848 2.39735 20.526 2.03859C20.1673 1.67982 19.6807 1.47827 19.1733 1.47827Z" fill="#E3E3E3"/>
<path d="M19.1733 1.47827C18.6659 1.47827 18.1793 1.67982 17.8206 2.03859C17.4618 2.39735 17.2603 2.88394 17.2603 3.39131V5.30436C17.2603 5.55804 17.361 5.80134 17.5404 5.98072C17.7198 6.1601 17.9631 6.26088 18.2168 6.26088H20.1298C20.3835 6.26088 20.6268 6.1601 20.8062 5.98072C20.9856 5.80134 21.0863 5.55804 21.0863 5.30436V3.39131C21.0863 2.88394 20.8848 2.39735 20.526 2.03859C20.1673 1.67982 19.6807 1.47827 19.1733 1.47827Z" stroke="#191919" stroke-linecap="round" stroke-linejoin="round"/>
<path d="M10.0866 15.8262C10.7208 15.8262 11.3291 15.5742 11.7775 15.1258C12.226 14.6773 12.4779 14.0691 12.4779 13.4349C12.4779 12.8007 12.226 12.1924 11.7775 11.744C11.3291 11.2955 10.7208 11.0436 10.0866 11.0436C9.4524 11.0436 8.84417 11.2955 8.39571 11.744C7.94725 12.1924 7.69531 12.8007 7.69531 13.4349C7.69531 14.0691 7.94725 14.6773 8.39571 15.1258C8.84417 15.5742 9.4524 15.8262 10.0866 15.8262Z" stroke="#191919" stroke-linecap="round" stroke-linejoin="round"/>
<path d="M14.8698 15.3574C15.0492 15.1781 15.2924 15.0774 15.546 15.0774C15.7997 15.0774 16.0429 15.1781 16.2223 15.3574L16.7886 15.9237C16.9679 16.1031 17.0686 16.3463 17.0686 16.6C17.0686 16.8536 16.9679 17.0969 16.7886 17.2762L16.1573 17.9075C16.0506 18.0864 15.9049 18.2388 15.7311 18.3534C15.5572 18.468 15.3598 18.5419 15.1534 18.5695C14.947 18.5971 14.737 18.5777 14.5392 18.5128C14.3413 18.4478 14.1607 18.339 14.0108 18.1945C13.8691 18.0471 13.7605 17.8712 13.692 17.6785C13.6236 17.4859 13.5969 17.2808 13.6138 17.0771C13.6307 16.8733 13.6909 16.6755 13.7901 16.4967C13.8894 16.318 14.0256 16.1624 14.1897 16.0404L14.8698 15.3574Z" stroke="#191919" stroke-linecap="round" stroke-linejoin="round"/>
<path d="M10.0868 13.6741C10.0234 13.6741 9.96254 13.6489 9.9177 13.604C9.87285 13.5592 9.84766 13.4984 9.84766 13.4349C9.84766 13.3715 9.87285 13.3107 9.9177 13.2658C9.96254 13.221 10.0234 13.1958 10.0868 13.1958" stroke="#191919"/>
<path d="M10.0864 13.6741C10.1498 13.6741 10.2107 13.6489 10.2555 13.604C10.3004 13.5592 10.3256 13.4984 10.3256 13.4349C10.3256 13.3715 10.3004 13.3107 10.2555 13.2658C10.2107 13.221 10.1498 13.1958 10.0864 13.1958" stroke="#191919"/>
</g>
</g>
<defs>
<clipPath id="clip0_5303_12993">
<rect width="24" height="24" fill="white"/>
</clipPath>
</defs>
</svg>
