<svg width="24" height="24" viewBox="0 0 24 24" fill="none" xmlns="http://www.w3.org/2000/svg">
<g clip-path="url(#clip0_5303_12959)">
<mask id="mask0_5303_12959" style="mask-type:luminance" maskUnits="userSpaceOnUse" x="0" y="0" width="24" height="24">
<path d="M0 0H24V24H0V0Z" fill="white"/>
</mask>
<g mask="url(#mask0_5303_12959)">
<path d="M12 23C18.0752 23 23 18.0752 23 12C23 5.92487 18.0752 1 12 1C5.92487 1 1 5.92487 1 12C1 18.0752 5.92487 23 12 23Z" fill="#808080"/>
<path d="M12.001 11.9999L14.5721 22.6852C16.4962 22.2205 18.2593 21.2453 19.6754 19.8623C21.0916 18.4794 22.1083 16.7399 22.6184 14.8274L12.001 11.9999Z" fill="#B2B2B2"/>
<path d="M12.0002 12L9.42907 1.3147C7.50498 1.77935 5.74192 2.75458 4.32578 4.13755C2.90965 5.52051 1.89292 7.25998 1.38281 9.17252L12.0002 12Z" fill="#B2B2B2"/>
<path d="M11.9997 14.3913C13.3204 14.3913 14.391 13.3206 14.391 11.9999C14.391 10.6793 13.3204 9.60864 11.9997 9.60864C10.679 9.60864 9.6084 10.6793 9.6084 11.9999C9.6084 13.3206 10.679 14.3913 11.9997 14.3913Z" fill="#FFEF5E"/>
<path d="M20.4916 10.6416C20.2122 8.89565 19.4019 7.27805 18.171 6.00873C16.9399 4.73939 15.3479 3.87992 13.6113 3.54712" stroke="#191919" stroke-linecap="round" stroke-linejoin="round"/>
<path d="M18.6009 10.9477C18.3846 9.58953 17.7554 8.33094 16.7987 7.34297C15.8421 6.355 14.6043 5.68556 13.2539 5.42566" stroke="#191919" stroke-linecap="round" stroke-linejoin="round"/>
<path d="M16.7187 11.2452C16.5631 10.2748 16.1123 9.37587 15.4277 8.67073C14.7432 7.9656 13.858 7.48849 12.8926 7.30432" stroke="#191919" stroke-linecap="round" stroke-linejoin="round"/>
<path d="M3.50879 13.3582C3.7882 15.1041 4.59847 16.7218 5.82945 17.9911C7.06045 19.2604 8.65245 20.1199 10.389 20.4527" stroke="#191919" stroke-linecap="round" stroke-linejoin="round"/>
<path d="M5.40137 13.0521C5.6186 14.4101 6.24872 15.6682 7.20606 16.6555C8.1634 17.6428 9.40152 18.3114 10.7521 18.5703" stroke="#191919" stroke-linecap="round" stroke-linejoin="round"/>
<path d="M7.28223 12.7546C7.43761 13.7252 7.88827 14.6244 8.57288 15.3297C9.25749 16.035 10.1428 16.5122 11.1083 16.6965" stroke="#191919" stroke-linecap="round" stroke-linejoin="round"/>
<path d="M12 23C18.0752 23 23 18.0752 23 12C23 5.92487 18.0752 1 12 1C5.92487 1 1 5.92487 1 12C1 18.0752 5.92487 23 12 23Z" stroke="#191919" stroke-linecap="round" stroke-linejoin="round"/>
<path d="M11.9997 14.3913C13.3204 14.3913 14.391 13.3206 14.391 11.9999C14.391 10.6793 13.3204 9.60864 11.9997 9.60864C10.679 9.60864 9.6084 10.6793 9.6084 11.9999C9.6084 13.3206 10.679 14.3913 11.9997 14.3913Z" stroke="#191919" stroke-linecap="round" stroke-linejoin="round"/>
<path d="M11.9999 12.2391C11.8678 12.2391 11.7607 12.1321 11.7607 12C11.7607 11.8679 11.8678 11.7609 11.9999 11.7609" stroke="#191919"/>
<path d="M12.001 12.2391C12.1331 12.2391 12.2401 12.1321 12.2401 12C12.2401 11.8679 12.1331 11.7609 12.001 11.7609" stroke="#191919"/>
</g>
</g>
<defs>
<clipPath id="clip0_5303_12959">
<rect width="24" height="24" fill="white"/>
</clipPath>
</defs>
</svg>
