<svg width="24" height="24" viewBox="0 0 24 24" fill="none" xmlns="http://www.w3.org/2000/svg">
<g clip-path="url(#clip0_5303_10765)">
<path d="M4.34755 18.6954L2.38965 8.00966C2.38965 8.00966 3.39107 12.9566 7.21696 12.9566C11.0428 12.9566 11.9993 6.26123 11.9993 6.26123C11.9993 6.26123 12.9558 12.9566 16.7817 12.9566C20.6076 12.9566 21.609 8.08522 21.609 8.08522L19.6511 18.6954H4.34755Z" fill="#FFEF5E"/>
<path d="M11.9993 6.26123C11.9993 6.26123 11.0428 12.9566 7.21696 12.9566C3.39107 12.9566 2.38965 8.00966 2.38965 8.00966L4.34755 18.6954H11.9993V6.26123Z" fill="#FFF9BF"/>
<path d="M12.0008 6.26107C13.0574 6.26107 13.9138 5.40462 13.9138 4.34813C13.9138 3.29164 13.0574 2.43518 12.0008 2.43518C10.9443 2.43518 10.0879 3.29164 10.0879 4.34813C10.0879 5.40462 10.9443 6.26107 12.0008 6.26107Z" fill="#FF808C"/>
<path d="M10.6474 5.70063C10.2989 5.33985 10.1061 4.85663 10.1104 4.35507C10.1148 3.85349 10.316 3.37371 10.6707 3.01903C11.0254 2.66436 11.5051 2.46317 12.0067 2.45881C12.5083 2.45445 12.9915 2.64727 13.3523 2.99573L10.6474 5.70063Z" fill="#FFBFC5"/>
<path d="M2.43471 8.01443C3.22708 8.01443 3.86942 7.37209 3.86942 6.57973C3.86942 5.78736 3.22708 5.14502 2.43471 5.14502C1.64234 5.14502 1 5.78736 1 6.57973C1 7.37209 1.64234 8.01443 2.43471 8.01443Z" fill="#FF808C" stroke="#191919" stroke-linecap="round" stroke-linejoin="round"/>
<path d="M21.5656 8.09476C22.3579 8.09476 23.0003 7.45242 23.0003 6.66005C23.0003 5.86769 22.3579 5.22534 21.5656 5.22534C20.7732 5.22534 20.1309 5.86769 20.1309 6.66005C20.1309 7.45242 20.7732 8.09476 21.5656 8.09476Z" fill="#FF808C" stroke="#191919" stroke-linecap="round" stroke-linejoin="round"/>
<path d="M4.34863 21.5648H19.6522" stroke="#191919" stroke-linecap="round" stroke-linejoin="round"/>
<path d="M4.34755 18.6954L2.38965 8.00966C2.38965 8.00966 3.39107 12.9566 7.21696 12.9566C11.0428 12.9566 11.9993 6.26123 11.9993 6.26123C11.9993 6.26123 12.9558 12.9566 16.7817 12.9566C20.6076 12.9566 21.609 8.08522 21.609 8.08522L19.6511 18.6954H4.34755Z" stroke="#191919" stroke-linecap="round" stroke-linejoin="round"/>
<path d="M12.0008 6.26107C13.0574 6.26107 13.9138 5.40462 13.9138 4.34813C13.9138 3.29164 13.0574 2.43518 12.0008 2.43518C10.9443 2.43518 10.0879 3.29164 10.0879 4.34813C10.0879 5.40462 10.9443 6.26107 12.0008 6.26107Z" stroke="#191919" stroke-linecap="round" stroke-linejoin="round"/>
</g>
<defs>
<clipPath id="clip0_5303_10765">
<rect width="24" height="24" fill="white"/>
</clipPath>
</defs>
</svg>
