<svg width="24" height="24" viewBox="0 0 24 24" fill="none" xmlns="http://www.w3.org/2000/svg">
<path d="M9.19349 11.8452C8.17565 12.3981 6.0711 7.96998 5.64062 6.87561C5.58053 6.73253 5.48704 6.60591 5.36799 6.50636C5.21456 6.40436 5.04211 6.3344 4.86098 6.30069L1.71755 6.32078C1.71755 6.32078 1.24498 6.33513 1.07183 6.53984C0.917818 6.72256 1.05939 7.10042 1.05939 7.10042C1.05939 7.10042 3.51981 12.665 6.30738 15.5664C6.98976 16.33 7.8335 16.9322 8.77744 17.3293C9.72137 17.7264 10.7418 17.9085 11.7649 17.8623C12.4029 17.8939 13.0439 17.8709 13.6781 17.7925C14.2042 17.2271 13.5423 15.6879 14.6519 15.3349C15.4593 15.0795 16.4963 17.0654 17.5945 17.8221C18.0087 18.1502 18.53 18.3129 19.0581 18.2794L21.9959 18.2449C21.9959 18.2449 23.5322 18.1493 22.8042 16.944C22.2243 15.9844 21.4855 15.1304 20.6193 14.4185C18.7759 12.709 19.0237 12.9836 21.243 10.0276C22.5947 8.22731 23.1342 7.1272 22.9649 6.65655C22.8042 6.20694 21.8093 6.32556 21.8093 6.32556L18.5071 6.34278C18.3603 6.32536 18.2117 6.3513 18.0795 6.4174C17.9556 6.50981 17.8569 6.63184 17.7925 6.7723C17.3371 7.98433 15.1608 12.4086 14.2664 11.8308C13.0726 11.0579 14.8662 6.32173 13.13 5.89987C12.6251 5.7782 12.1059 5.72669 11.5869 5.74681C10.6623 5.66137 9.72979 5.75657 8.84145 6.0271C8.4655 6.21364 8.17182 6.62307 8.35071 6.64698C8.7257 6.68046 9.07295 6.85553 9.32359 7.13677C9.77893 7.76431 9.8679 11.4779 9.19349 11.8452Z" fill="#66E1FF"/>
<path d="M13.1242 5.9028C12.619 5.78115 12.0995 5.72965 11.5802 5.74974C10.6556 5.6643 9.72309 5.7595 8.83476 6.03003C8.45881 6.21657 8.16513 6.626 8.34401 6.64991C8.72092 6.68148 9.07104 6.85559 9.32359 7.13683C9.78085 7.7615 9.86981 11.4751 9.1954 11.8424C8.17565 12.3982 6.0711 7.97004 5.64062 6.87663C5.58066 6.7332 5.48716 6.60624 5.36799 6.50642C5.21456 6.40442 5.04211 6.33447 4.86098 6.30075L1.71755 6.32084C1.71755 6.32084 1.24498 6.33519 1.07183 6.5399C0.917818 6.72262 1.05939 7.10048 1.05939 7.10048C1.05939 7.10048 3.51981 12.6651 6.30738 15.5665C6.69098 15.9664 7.11572 16.3251 7.57394 16.637L13.8197 10.3893C13.8044 8.70568 14.3649 6.20222 13.1242 5.9028Z" fill="#C2F3FF"/>
<path d="M9.19635 11.8452C8.18043 12.3981 6.07683 7.96996 5.64349 6.87559C5.58298 6.73274 5.48956 6.60622 5.37085 6.50634C5.21693 6.40461 5.04422 6.33469 4.86289 6.30067L1.71945 6.32076C1.71945 6.32076 1.24689 6.33511 1.0747 6.53982C0.919724 6.72253 1.06226 7.1004 1.06226 7.1004C1.06226 7.1004 3.52267 12.665 6.30929 15.5664C6.99119 16.3293 7.83417 16.9311 8.77721 17.3281C9.72025 17.7252 10.7398 17.9076 11.762 17.8623C12.4001 17.8938 13.041 17.8709 13.6752 17.7924C14.2023 17.2271 13.5403 15.6879 14.65 15.3349C15.4574 15.0795 16.4934 17.0654 17.5926 17.8221C18.0068 18.1502 18.5281 18.3128 19.0552 18.2794L21.9939 18.2449C21.9939 18.2449 23.5303 18.1493 22.8013 16.9439C22.2225 15.9839 21.4839 15.1298 20.6174 14.4185C18.773 12.709 19.0217 12.9835 21.2401 10.0276C22.5918 8.22729 23.1323 7.12718 22.962 6.65653C22.8004 6.20692 21.8064 6.32554 21.8064 6.32554L18.5071 6.34276C18.3603 6.32528 18.2116 6.35122 18.0795 6.41737C17.9537 6.50907 17.8534 6.63119 17.7877 6.77228C17.3333 7.98431 15.1561 12.4086 14.2626 11.8308C13.0687 11.0579 14.8624 6.32171 13.1261 5.89985C12.6213 5.77818 12.102 5.72667 11.5831 5.74679C10.6584 5.66128 9.72594 5.75647 8.83762 6.02708C8.46072 6.21362 8.16799 6.62305 8.34688 6.64696C8.72283 6.67949 9.07199 6.85455 9.32358 7.13675C9.7818 7.76429 9.87077 11.4778 9.19635 11.8452Z" stroke="#191919" stroke-linecap="round" stroke-linejoin="round"/>
</svg>
