<svg width="24" height="24" viewBox="0 0 24 24" fill="none" xmlns="http://www.w3.org/2000/svg">
<path d="M19.7918 17.0416L18.1638 13.7847C18.1094 13.6761 18.014 13.5935 17.8986 13.5551C17.7833 13.5168 17.6574 13.5259 17.5487 13.5803L12.4585 16.125L10.6252 18.875L8.79183 16.125L3.29183 13.375L1.4585 17.0416V3.29165L3.29183 6.95831L8.79183 4.20831L10.6252 1.45831L12.4585 4.20831L17.9585 6.95831L19.7918 3.29165V17.0416Z" fill="#C9F7CA"/>
<path d="M1.4585 17.0481V3.2981" stroke="#191919" stroke-linecap="round" stroke-linejoin="round"/>
<path d="M3.2915 6.96472V13.3814" stroke="#191919" stroke-linecap="round" stroke-linejoin="round"/>
<path d="M5.125 6.0481V14.2981" stroke="#191919" stroke-linecap="round" stroke-linejoin="round"/>
<path d="M6.9585 5.13141V15.2147" stroke="#191919" stroke-linecap="round" stroke-linejoin="round"/>
<path d="M8.7915 4.21472V16.1314" stroke="#191919" stroke-linecap="round" stroke-linejoin="round"/>
<path d="M19.7915 10.1731V3.2981" stroke="#191919" stroke-linecap="round" stroke-linejoin="round"/>
<path d="M17.9585 6.96472V9.71472" stroke="#191919" stroke-linecap="round" stroke-linejoin="round"/>
<path d="M16.125 6.0481V9.71476" stroke="#191919" stroke-linecap="round" stroke-linejoin="round"/>
<path d="M14.2915 5.13141V10.1731" stroke="#191919" stroke-linecap="round" stroke-linejoin="round"/>
<path d="M12.4585 4.21472V11.0897" stroke="#191919" stroke-linecap="round" stroke-linejoin="round"/>
<path d="M10.625 1.46472V13.3814" stroke="#191919" stroke-linecap="round" stroke-linejoin="round"/>
<path d="M17.0415 22.5417C18.5002 22.5417 19.8991 21.9622 20.9306 20.9308C21.962 19.8993 22.5415 18.5004 22.5415 17.0417C22.5415 15.583 21.962 14.184 20.9306 13.1526C19.8991 12.1211 18.5002 11.5417 17.0415 11.5417C15.5828 11.5417 14.1839 12.1211 13.1524 13.1526C12.121 14.184 11.5415 15.583 11.5415 17.0417C11.5415 18.5004 12.121 19.8993 13.1524 20.9308C14.1839 21.9622 15.5828 22.5417 17.0415 22.5417Z" fill="#66E1FF"/>
<path d="M13.1522 20.9311C12.1208 19.8996 11.5414 18.5005 11.5415 17.0418C11.5416 15.5831 12.1211 14.1841 13.1527 13.1527C14.1842 12.1213 15.5832 11.5419 17.042 11.542C18.5007 11.5421 19.8996 12.1216 20.9311 13.1532L13.1522 20.9311Z" fill="#C2F3FF"/>
<path d="M19.4927 15.443L16.8298 18.9932C16.7707 19.072 16.6954 19.1372 16.609 19.1844C16.5226 19.2316 16.427 19.2596 16.3288 19.2667C16.2306 19.2737 16.132 19.2596 16.0397 19.2252C15.9475 19.1908 15.8636 19.1371 15.7939 19.0675L14.4189 17.6925" stroke="#191919" stroke-linecap="round" stroke-linejoin="round"/>
<path d="M17.0415 22.5417C18.5002 22.5417 19.8991 21.9622 20.9306 20.9308C21.962 19.8993 22.5415 18.5004 22.5415 17.0417C22.5415 15.583 21.962 14.184 20.9306 13.1526C19.8991 12.1211 18.5002 11.5417 17.0415 11.5417C15.5828 11.5417 14.1839 12.1211 13.1524 13.1526C12.121 14.184 11.5415 15.583 11.5415 17.0417C11.5415 18.5004 12.121 19.8993 13.1524 20.9308C14.1839 21.9622 15.5828 22.5417 17.0415 22.5417Z" stroke="#191919" stroke-linecap="round" stroke-linejoin="round"/>
</svg>
