<svg width="24" height="24" viewBox="0 0 24 24" fill="none" xmlns="http://www.w3.org/2000/svg">
<path d="M19.7915 3.29169H4.20817C3.70191 3.29169 3.2915 3.7021 3.2915 4.20835V19.7917C3.2915 20.298 3.70191 20.7084 4.20817 20.7084H19.7915C20.2978 20.7084 20.7082 20.298 20.7082 19.7917V4.20835C20.7082 3.7021 20.2978 3.29169 19.7915 3.29169Z" fill="#78EB7B"/>
<path d="M8.79183 22.5416H2.37516C2.13204 22.5416 1.89889 22.445 1.72698 22.2732C1.55507 22.1013 1.4585 21.8681 1.4585 21.625V15.2083" stroke="#191919" stroke-linecap="round" stroke-linejoin="round"/>
<path d="M8.79183 1.45831H2.37516C2.13204 1.45831 1.89889 1.55489 1.72698 1.7268C1.55507 1.89871 1.4585 2.13186 1.4585 2.37498V8.79165" stroke="#191919" stroke-linecap="round" stroke-linejoin="round"/>
<path d="M15.2085 22.5416H21.6252C21.8683 22.5416 22.1015 22.445 22.2733 22.2732C22.4452 22.1013 22.5418 21.8681 22.5418 21.625V15.2083" stroke="#191919" stroke-linecap="round" stroke-linejoin="round"/>
<path d="M15.2085 1.45831H21.6252C21.8683 1.45831 22.1015 1.55489 22.2733 1.7268C22.4452 1.89871 22.5418 2.13186 22.5418 2.37498V8.79165" stroke="#191919" stroke-linecap="round" stroke-linejoin="round"/>
<path d="M5.125 10.1667V13.8334" stroke="#191919" stroke-linecap="round" stroke-linejoin="round"/>
<path d="M7.4165 9.25V14.75" stroke="#191919" stroke-linecap="round" stroke-linejoin="round"/>
<path d="M9.7085 8.33331V15.6666" stroke="#191919" stroke-linecap="round" stroke-linejoin="round"/>
<path d="M18.875 10.1667V13.8334" stroke="#191919" stroke-linecap="round" stroke-linejoin="round"/>
<path d="M16.5835 9.25V14.75" stroke="#191919" stroke-linecap="round" stroke-linejoin="round"/>
<path d="M14.2915 8.33331V15.6666" stroke="#191919" stroke-linecap="round" stroke-linejoin="round"/>
<path d="M12 5.58331V18.4166" stroke="#191919" stroke-linecap="round" stroke-linejoin="round"/>
</svg>
