<svg width="24" height="24" viewBox="0 0 24 24" fill="none" xmlns="http://www.w3.org/2000/svg">
<g clip-path="url(#clip0_5303_11800)">
<path d="M11.9937 22.9873C18.065 22.9873 22.9873 18.065 22.9873 11.9937C22.9873 5.9223 18.065 1 11.9937 1C5.9223 1 1 5.9223 1 11.9937C1 18.065 5.9223 22.9873 11.9937 22.9873Z" fill="white"/>
<path d="M18.0538 2.82593C19.4525 4.93908 20.0778 7.47069 19.8239 9.99202C19.57 12.5134 18.4525 14.8695 16.6606 16.6613C14.8687 18.4532 12.5126 19.5707 9.99129 19.8246C7.46995 20.0785 4.93835 19.4532 2.8252 18.0546C3.72282 19.417 4.91247 20.5626 6.30783 21.4083C7.70319 22.2539 9.26928 22.7783 10.8925 22.9435C12.5157 23.1087 14.1553 22.9105 15.6924 22.3634C17.2295 21.8162 18.6256 20.9337 19.7793 19.78C20.933 18.6263 21.8155 17.2303 22.3626 15.6932C22.9098 14.1561 23.108 12.5164 22.9428 10.8932C22.7776 9.27001 22.2531 7.70392 21.4075 6.30856C20.5619 4.9132 19.4163 3.72356 18.0538 2.82593Z" fill="#E3E3E3"/>
<path d="M11.9937 22.9873C18.065 22.9873 22.9873 18.065 22.9873 11.9937C22.9873 5.9223 18.065 1 11.9937 1C5.9223 1 1 5.9223 1 11.9937C1 18.065 5.9223 22.9873 11.9937 22.9873Z" stroke="#191919" stroke-linecap="round" stroke-linejoin="round"/>
<path d="M20.379 18.9876C19.7046 17.1968 18.5777 15.6113 17.1083 14.3856C15.6388 13.1599 13.8768 12.3358 11.9941 11.9937" stroke="#191919" stroke-linecap="round" stroke-linejoin="round"/>
<path d="M1.60156 15.5891C3.49701 15.9641 5.45808 15.8289 7.28409 15.1971C9.1101 14.5654 10.7355 13.4599 11.9939 11.9937" stroke="#191919" stroke-linecap="round" stroke-linejoin="round"/>
<path d="M13.8389 1.15393C12.5992 2.63562 11.7751 4.41985 11.4508 6.32431C11.1265 8.22877 11.3135 10.1852 11.9929 11.9937" stroke="#191919" stroke-linecap="round" stroke-linejoin="round"/>
<path d="M5.10984 15.7219C3.92562 14.1429 3.18811 12.2743 2.97466 10.312C2.76122 8.34983 3.0797 6.36633 3.89671 4.56958" stroke="#191919" stroke-linecap="round" stroke-linejoin="round"/>
<path d="M8.78312 14.5614C7.4135 12.6446 6.69587 10.3385 6.73597 7.98299C6.77607 5.62747 7.57179 3.34713 9.00586 1.47803" stroke="#191919" stroke-linecap="round" stroke-linejoin="round"/>
<path d="M12.0664 4.1318C13.9815 3.85092 15.9369 4.08044 17.7349 4.79717C19.533 5.5139 21.11 6.69246 22.3068 8.21379" stroke="#191919" stroke-linecap="round" stroke-linejoin="round"/>
<path d="M11.3066 7.94894C13.6292 7.63804 15.9905 8.0732 18.0497 9.19162C20.1089 10.31 21.7594 12.0539 22.763 14.1714" stroke="#191919" stroke-linecap="round" stroke-linejoin="round"/>
<path d="M18.6711 15.9716C17.9285 17.7989 16.7084 19.3931 15.1384 20.5872C13.5684 21.7812 11.7064 22.5313 9.74707 22.759" stroke="#191919" stroke-linecap="round" stroke-linejoin="round"/>
<path d="M15.7582 13.4181C14.8238 15.58 13.2198 17.3848 11.1824 18.5665C9.14502 19.7481 6.782 20.2443 4.44141 19.9818" stroke="#191919" stroke-linecap="round" stroke-linejoin="round"/>
</g>
<defs>
<clipPath id="clip0_5303_11800">
<rect width="24" height="24" fill="white"/>
</clipPath>
</defs>
</svg>
