<svg width="24" height="24" viewBox="0 0 24 24" fill="none" xmlns="http://www.w3.org/2000/svg">
<g clip-path="url(#clip0_5303_13113)">
<mask id="mask0_5303_13113" style="mask-type:luminance" maskUnits="userSpaceOnUse" x="0" y="0" width="24" height="24">
<path d="M0 0H24V24H0V0Z" fill="white"/>
</mask>
<g mask="url(#mask0_5303_13113)">
<path d="M13.4335 11.9951C15.0097 11.9951 16.2874 10.7174 16.2874 9.14125C16.2874 7.56507 15.0097 6.28735 13.4335 6.28735C11.8573 6.28735 10.5796 7.56507 10.5796 9.14125C10.5796 10.7174 11.8573 11.9951 13.4335 11.9951Z" fill="#808080"/>
<path d="M13.4335 1.49151C13.4335 1.36476 13.3831 1.24316 13.2936 1.15351C13.2039 1.06386 13.0823 1.01355 12.9555 1.01355C11.393 1.01458 9.8639 1.46612 8.55142 2.31393C7.23896 3.16184 6.19872 4.37004 5.55532 5.7939H3.39457C2.76072 5.7939 2.15274 6.04581 1.70447 6.49398C1.25621 6.94224 1.00439 7.55023 1.00439 8.18417V10.0963C1.00439 10.7303 1.25621 11.3382 1.70447 11.7865C2.15274 12.2347 2.76063 12.4866 3.39457 12.4866H5.55532C6.23722 13.9813 7.35354 15.236 8.75875 16.0872C10.164 16.9383 11.793 17.3464 13.4335 17.2584V1.49151Z" fill="#E3E3E3"/>
<path d="M13.4291 1.48773V9.13649H1V8.18038C1 7.54645 1.25181 6.93846 1.70008 6.49019C2.14834 6.04202 2.75633 5.79012 3.39027 5.79012H5.55102C6.19611 4.36757 7.23671 3.16049 8.54881 2.31296C9.8609 1.46534 11.389 1.01295 12.9511 1.00977C13.0139 1.00977 13.076 1.02213 13.134 1.04611C13.192 1.0701 13.2448 1.10532 13.2892 1.14972C13.3336 1.19413 13.3687 1.24687 13.3928 1.30486C13.4168 1.36285 13.4291 1.42487 13.4291 1.48773Z" fill="white"/>
<path d="M13.4335 10.6441V1.49151C13.4335 1.36476 13.3831 1.24316 13.2936 1.15351C13.2039 1.06386 13.0823 1.01355 12.9555 1.01355C11.393 1.01458 9.86389 1.46612 8.55142 2.31393C7.23896 3.16184 6.19872 4.37004 5.55532 5.7939H3.39457C2.76072 5.7939 2.15274 6.04581 1.70447 6.49398C1.25621 6.94224 1.00439 7.55023 1.00439 8.18417V10.0963C1.00439 10.7303 1.25621 11.3382 1.70447 11.7865C2.15274 12.2347 2.76063 12.4866 3.39457 12.4866H5.55532C6.37709 14.2914 7.82802 15.7352 9.6369 16.548" stroke="#191919" stroke-linecap="round" stroke-linejoin="round"/>
<path d="M16.2362 9.69285C16.3202 9.27719 16.3103 8.84813 16.2078 8.43669C16.1052 8.02533 15.9123 7.6419 15.6431 7.31439C15.3738 6.98688 15.035 6.72326 14.6512 6.54302C14.2674 6.36268 13.8483 6.27013 13.4243 6.272" stroke="#191919" stroke-linecap="round" stroke-linejoin="round"/>
<path d="M16.2362 9.69285C16.3202 9.27719 16.3103 8.84813 16.2078 8.43669C16.1052 8.02533 15.9123 7.6419 15.6431 7.31439C15.3738 6.98688 15.035 6.72326 14.6512 6.54302C14.2674 6.36268 13.8483 6.27013 13.4243 6.272" stroke="#191919" stroke-linecap="round" stroke-linejoin="round"/>
<path d="M17.2634 22.9903C18.398 22.9903 19.507 22.6538 20.4504 22.0234C21.3938 21.3931 22.1291 20.4973 22.5632 19.449C22.9974 18.4008 23.111 17.2473 22.8897 16.1346C22.6683 15.0218 22.122 13.9996 21.3197 13.1974C20.5174 12.3951 19.4953 11.8487 18.3825 11.6275C17.2698 11.4061 16.1164 11.5197 15.0681 11.9538C14.0199 12.3881 13.124 13.1233 12.4936 14.0667C11.8633 15.0101 11.5269 16.1192 11.5269 17.2537C11.5269 18.7751 12.1312 20.2342 13.2071 21.31C14.2829 22.3859 15.7419 22.9903 17.2634 22.9903Z" fill="#78EB7B"/>
<path d="M17.2637 11.5172C16.097 11.5186 14.9586 11.8757 14.0002 12.5408C13.0418 13.206 12.3089 14.1474 11.8993 15.2397C11.4898 16.332 11.4229 17.5233 11.7078 18.6546C11.9927 19.7859 12.6157 20.8033 13.4938 21.5714L21.5804 13.4849C21.0437 12.8669 20.3805 12.3714 19.6358 12.0319C18.8911 11.6925 18.0822 11.5169 17.2637 11.5172Z" fill="#C9F7CA"/>
<path d="M17.2634 22.9903C18.398 22.9903 19.507 22.6538 20.4504 22.0234C21.3938 21.3931 22.1291 20.4973 22.5632 19.449C22.9974 18.4008 23.111 17.2473 22.8897 16.1346C22.6683 15.0218 22.122 13.9996 21.3197 13.1974C20.5174 12.3951 19.4953 11.8487 18.3825 11.6275C17.2698 11.4061 16.1164 11.5197 15.0681 11.9538C14.0199 12.3881 13.124 13.1233 12.4936 14.0667C11.8633 15.0101 11.5269 16.1192 11.5269 17.2537C11.5269 18.7751 12.1312 20.2342 13.2071 21.31C14.2829 22.3859 15.7419 22.9903 17.2634 22.9903Z" stroke="#191919" stroke-linecap="round" stroke-linejoin="round"/>
<path d="M17.2632 14.3853V20.1218" stroke="#191919" stroke-linecap="round" stroke-linejoin="round"/>
<path d="M20.1311 17.2537H14.3945" stroke="#191919" stroke-linecap="round" stroke-linejoin="round"/>
</g>
</g>
<defs>
<clipPath id="clip0_5303_13113">
<rect width="24" height="24" fill="white"/>
</clipPath>
</defs>
</svg>
