<svg width="24" height="24" viewBox="0 0 24 24" fill="none" xmlns="http://www.w3.org/2000/svg">
<g clip-path="url(#clip0_5303_12875)">
<mask id="mask0_5303_12875" style="mask-type:luminance" maskUnits="userSpaceOnUse" x="0" y="0" width="24" height="24">
<path d="M0 0H24V24H0V0Z" fill="white"/>
</mask>
<g mask="url(#mask0_5303_12875)">
<path d="M13.4305 11.9866C15.0064 11.9866 16.2838 10.7091 16.2838 9.13324C16.2838 7.55739 15.0064 6.27991 13.4305 6.27991C11.8546 6.27991 10.5771 7.55739 10.5771 9.13324C10.5771 10.7091 11.8546 11.9866 13.4305 11.9866Z" fill="#808080"/>
<path d="M13.4315 1.48515C13.4315 1.3584 13.3811 1.23681 13.2916 1.14716C13.2019 1.0576 13.0803 1.0072 12.9536 1.0072C11.3914 1.00833 9.86267 1.45976 8.55043 2.30735C7.23819 3.15504 6.19818 4.36311 5.55499 5.78664H3.3946C2.76087 5.78664 2.153 6.03844 1.70484 6.4866C1.25669 6.93475 1.00488 7.54262 1.00488 8.17645V10.0882C1.00488 10.722 1.25669 11.3298 1.70484 11.7781C2.153 12.2261 2.76087 12.4779 3.3946 12.4779H5.55499C6.2365 13.9726 7.35248 15.2272 8.75746 16.0783C10.1624 16.9295 11.7912 17.3377 13.4315 17.2498V1.48515Z" fill="#E3E3E3"/>
<path d="M13.4266 1.48515V9.13233H1V8.17645C1 7.54262 1.25181 6.93475 1.69996 6.4866C2.14811 6.03844 2.75599 5.78664 3.38972 5.78664H5.55011C6.19508 4.36433 7.23547 3.15757 8.54733 2.31016C9.8591 1.46276 11.387 1.01039 12.9487 1.0072C13.0754 1.0072 13.197 1.05751 13.2867 1.14716C13.3762 1.23681 13.4266 1.3584 13.4266 1.48515Z" fill="white"/>
<path d="M13.4315 10.636V1.48515C13.4315 1.3584 13.3811 1.23681 13.2916 1.14716C13.2019 1.0576 13.0803 1.0072 12.9536 1.0072C11.3914 1.00833 9.86267 1.45976 8.55043 2.30735C7.23819 3.15504 6.19818 4.36311 5.55499 5.78664H3.3946C2.76087 5.78664 2.153 6.03844 1.70484 6.4866C1.25669 6.93475 1.00488 7.54262 1.00488 8.17645V10.0882C1.00488 10.722 1.25669 11.3298 1.70484 11.7781C2.153 12.2261 2.76087 12.4779 3.3946 12.4779H5.55499C6.37608 14.2825 7.8264 15.7265 9.63475 16.5395" stroke="#191919" stroke-linecap="round" stroke-linejoin="round"/>
<path d="M16.2353 9.68479C16.3181 9.26961 16.3079 8.84132 16.2051 8.43064C16.1024 8.01995 15.9098 7.63719 15.6412 7.30997C15.3726 6.98275 15.0348 6.71924 14.652 6.53853C14.2692 6.35774 13.8512 6.26415 13.4277 6.26453" stroke="#191919" stroke-linecap="round" stroke-linejoin="round"/>
<path d="M17.2647 22.9927C18.3991 22.9927 19.5078 22.6563 20.4511 22.0262C21.3942 21.3959 22.1294 20.5003 22.5635 19.4522C22.9976 18.4041 23.1111 17.251 22.8899 16.1385C22.6685 15.0259 22.1224 14.004 21.3201 13.2019C20.518 12.3997 19.4961 11.8535 18.3835 11.6322C17.2711 11.4109 16.1179 11.5244 15.0698 11.9585C14.0218 12.3927 13.1261 13.1278 12.4959 14.071C11.8657 15.0142 11.5293 16.123 11.5293 17.2573C11.5293 18.7785 12.1335 20.2373 13.2092 21.3128C14.2847 22.3885 15.7436 22.9927 17.2647 22.9927Z" fill="#FF808C"/>
<path d="M17.2645 11.5221C16.0971 11.5212 14.9573 11.8768 13.9976 12.5413C13.0379 13.2059 12.304 14.1475 11.8942 15.2406C11.4843 16.3336 11.418 17.5257 11.7041 18.6574C11.9903 19.7892 12.6153 20.8065 13.4954 21.5733L21.5804 13.4884C21.0435 12.8709 20.3805 12.3758 19.636 12.0366C18.8913 11.6974 18.0826 11.5219 17.2645 11.5221Z" fill="#FFBFC5"/>
<path d="M17.2647 22.9927C18.3991 22.9927 19.5078 22.6563 20.4511 22.0262C21.3942 21.3959 22.1294 20.5003 22.5635 19.4522C22.9976 18.4041 23.1111 17.251 22.8899 16.1385C22.6685 15.0259 22.1224 14.004 21.3201 13.2019C20.518 12.3997 19.4961 11.8535 18.3835 11.6322C17.2711 11.4109 16.1179 11.5244 15.0698 11.9585C14.0218 12.3927 13.1261 13.1278 12.4959 14.071C11.8657 15.0142 11.5293 16.123 11.5293 17.2573C11.5293 18.7785 12.1335 20.2373 13.2092 21.3128C14.2847 22.3885 15.7436 22.9927 17.2647 22.9927Z" stroke="#191919" stroke-linecap="round" stroke-linejoin="round"/>
<path d="M19.2921 15.2214L15.2373 19.2763" stroke="#191919" stroke-linecap="round" stroke-linejoin="round"/>
<path d="M19.2921 19.2763L15.2373 15.2214" stroke="#191919" stroke-linecap="round" stroke-linejoin="round"/>
</g>
</g>
<defs>
<clipPath id="clip0_5303_12875">
<rect width="24" height="24" fill="white"/>
</clipPath>
</defs>
</svg>
