<svg width="24" height="24" viewBox="0 0 24 24" fill="none" xmlns="http://www.w3.org/2000/svg">
<path d="M12.4806 13.0014C14.061 13.0014 15.3421 11.7203 15.3421 10.1399C15.3421 8.55953 14.061 7.27844 12.4806 7.27844C10.9002 7.27844 9.61914 8.55953 9.61914 10.1399C9.61914 11.7203 10.9002 13.0014 12.4806 13.0014Z" fill="#808080"/>
<path d="M12.4803 2.8908C12.4803 2.70164 12.4242 2.51667 12.3191 2.35933C12.2139 2.20209 12.0646 2.07949 11.8898 2.00707C11.715 1.93474 11.5226 1.91581 11.337 1.9527C11.1515 1.9896 10.9811 2.08066 10.8473 2.21439L5.78351 7.27823H2.43501C2.05445 7.27823 1.6894 7.42942 1.42029 7.69852C1.15119 7.96762 1 8.33267 1 8.71324V11.5834C1 11.9639 1.15119 12.3289 1.42029 12.5981C1.6894 12.8672 2.05445 13.0184 2.43501 13.0184H5.78351L10.8473 18.0822C10.9811 18.2159 11.1515 18.307 11.3371 18.3439C11.5226 18.3808 11.715 18.3619 11.8898 18.2894C12.0646 18.2171 12.2139 18.0944 12.3191 17.9372C12.4242 17.7799 12.4803 17.595 12.4803 17.4058V2.8908Z" fill="#E3E3E3"/>
<path d="M11.8901 2.00692C11.7152 1.93449 11.5228 1.91556 11.3371 1.95245C11.1516 1.98945 10.981 2.08061 10.8473 2.21453L5.78351 7.27827H2.43501C2.05445 7.27827 1.6894 7.42946 1.42029 7.69857C1.15119 7.96777 1 8.33272 1 8.71329V10.1484H12.4803V2.89085C12.4803 2.70168 12.4244 2.51672 12.3193 2.35938C12.2142 2.20203 12.0649 2.07934 11.8901 2.00692Z" fill="white"/>
<path d="M12.4803 14.9318V2.8908C12.4803 2.70164 12.4242 2.51667 12.3191 2.35933C12.2139 2.20209 12.0646 2.07949 11.8898 2.00707C11.715 1.93474 11.5226 1.91581 11.337 1.9527C11.1515 1.9896 10.9811 2.08066 10.8473 2.21439L5.78351 7.27823H2.43501C2.05445 7.27823 1.6894 7.42942 1.42029 7.69852C1.15119 7.96762 1 8.33267 1 8.71324V11.5834C1 11.9639 1.15119 12.3289 1.42029 12.5981C1.6894 12.8672 2.05445 13.0184 2.43501 13.0184H5.78351L10.5669 17.8019" stroke="#191919" stroke-linecap="round" stroke-linejoin="round"/>
<path d="M15.3506 10.1485C15.3506 9.38733 15.0482 8.65733 14.5099 8.11903C13.9717 7.58083 13.2416 7.27844 12.4805 7.27844" stroke="#191919" stroke-linecap="round" stroke-linejoin="round"/>
<path d="M12.4805 13.0184C12.8981 13.0188 13.3108 12.9281 13.6897 12.7526" stroke="#191919" stroke-linecap="round" stroke-linejoin="round"/>
<path d="M18.0616 11.5489C17.9843 11.4035 17.8688 11.2818 17.7275 11.1969C17.5862 11.112 17.4246 11.0671 17.2598 11.0671C17.0951 11.0671 16.9334 11.112 16.7922 11.1969C16.6509 11.2818 16.5354 11.4035 16.4581 11.5489L11.6249 20.7629C11.5535 20.8988 11.5186 21.0508 11.524 21.2042C11.5293 21.3576 11.5746 21.507 11.6555 21.6374C11.7367 21.7687 11.8502 21.8772 11.9852 21.9522C12.1202 22.0273 12.2721 22.0664 12.4265 22.066H22.0968C22.2514 22.0664 22.4036 22.0273 22.5387 21.9521C22.6739 21.8772 22.7875 21.7687 22.8689 21.6374C22.9494 21.5068 22.9944 21.3574 22.9997 21.2042C23.0049 21.0508 22.97 20.8988 22.8986 20.7629L18.0616 11.5489Z" fill="#FFEF5E"/>
<path d="M17.2628 11.0641C17.0983 11.0638 16.937 11.1081 16.7957 11.1922C16.6545 11.2766 16.5388 11.3976 16.461 11.5425L11.6278 20.7563C11.5564 20.8921 11.5215 21.0443 11.5269 21.1977C11.5323 21.3511 11.5776 21.5003 11.6584 21.6308C11.7396 21.7623 11.8531 21.8706 11.9881 21.9457C12.1231 22.0206 12.2752 22.0599 12.4295 22.0594H17.2628V11.0641Z" fill="#FFF9BF"/>
<path d="M18.0616 11.5489C17.9843 11.4035 17.8688 11.2818 17.7275 11.1969C17.5862 11.112 17.4246 11.0671 17.2598 11.0671C17.0951 11.0671 16.9334 11.112 16.7922 11.1969C16.6509 11.2818 16.5354 11.4035 16.4581 11.5489L11.6249 20.7629C11.5535 20.8988 11.5186 21.0508 11.524 21.2042C11.5293 21.3576 11.5746 21.507 11.6555 21.6374C11.7367 21.7687 11.8502 21.8772 11.9852 21.9522C12.1202 22.0273 12.2721 22.0664 12.4265 22.066H22.0968C22.2514 22.0664 22.4036 22.0273 22.5387 21.9521C22.6739 21.8772 22.7875 21.7687 22.8689 21.6374C22.9494 21.5068 22.9944 21.3574 22.9997 21.2042C23.0049 21.0508 22.97 20.8988 22.8986 20.7629L18.0616 11.5489Z" stroke="#191919" stroke-linecap="round" stroke-linejoin="round"/>
<path d="M17.2637 17.2755V14.4055" stroke="#191919" stroke-linecap="round" stroke-linejoin="round"/>
<path d="M17.2636 19.6673C17.1314 19.6673 17.0244 19.5603 17.0244 19.4282C17.0244 19.2961 17.1314 19.189 17.2636 19.189" stroke="#191919"/>
<path d="M17.2637 19.6673C17.3958 19.6673 17.5028 19.5603 17.5028 19.4282C17.5028 19.2961 17.3958 19.189 17.2637 19.189" stroke="#191919"/>
</svg>
