<svg width="24" height="24" viewBox="0 0 24 24" fill="none" xmlns="http://www.w3.org/2000/svg">
<path d="M14.1502 6.73305C16.3569 6.73699 17.7404 4.35073 16.6405 2.43772C16.1282 1.5467 15.178 0.998136 14.1502 1C11.9436 1.00403 10.5688 3.39527 11.6755 5.30424C12.1874 6.18702 13.1298 6.73118 14.1502 6.73305Z" fill="#E3E3E3" stroke="#191919" stroke-linecap="round" stroke-linejoin="round"/>
<path d="M11.5226 17.148L13.2787 22.0286C13.6372 23.0722 14.9908 23.3364 15.7153 22.5042C16.0617 22.1064 16.1615 21.5504 15.9752 21.0569L13.3954 13.8907C13.169 13.2632 13.169 12.5765 13.3954 11.9491L14.0641 10.0878C14.4226 9.04428 13.517 8.0042 12.4341 8.21557C11.9466 8.31066 11.5432 8.65142 11.3678 9.11605L7.06803 21.0598C6.67836 22.0921 7.55223 23.1589 8.64103 22.9803C9.1615 22.8949 9.59304 22.5304 9.76441 22.0315L11.9506 15.9584L11.5226 17.148Z" fill="#E3E3E3" stroke="#191919" stroke-linecap="round" stroke-linejoin="round"/>
</svg>
