<svg width="24" height="24" viewBox="0 0 24 24" fill="none" xmlns="http://www.w3.org/2000/svg">
<path d="M11.3991 5.78008C13.239 5.78374 14.393 3.79433 13.4762 2.1991C13.049 1.45583 12.2564 0.998323 11.3991 1C9.55928 1.00366 8.41331 2.99765 9.33638 4.58923C9.76316 5.32492 10.5487 5.7784 11.3991 5.78008Z" fill="#E3E3E3" stroke="#191919" stroke-linecap="round" stroke-linejoin="round"/>
<path d="M17.766 10.8471L16.7143 10.4952C16.1767 10.3165 15.6715 10.0521 15.2181 9.71223L14.2468 8.98282C12.597 7.74653 10.3908 7.54706 8.546 8.46751C6.51678 9.47219 5.21996 11.5275 5.1866 13.7916C5.15531 14.4816 5.60251 15.1025 6.26689 15.2916C7.14537 15.5138 8.00717 14.8755 8.05083 13.9704C8.04961 12.758 8.70921 11.6414 9.7717 11.0574L9.96284 10.9617V12.6578C9.96284 14.0144 9.81471 15.3662 9.52023 16.6903C9.12587 18.1553 8.4033 19.5114 7.40743 20.6559C6.71972 21.5195 7.22473 22.8038 8.31654 22.9676C8.82324 23.0436 9.332 22.8435 9.65121 22.4427C10.8177 20.9705 11.6907 19.288 12.2229 17.4867C13.4047 18.7856 14.2906 20.3255 14.8195 22C15.1541 23.052 16.5021 23.3472 17.2458 22.5315C17.6004 22.1426 17.7134 21.5908 17.5403 21.0937C16.7265 18.5139 15.215 16.2094 13.1732 14.435C12.9598 14.2566 12.8357 13.9933 12.8338 13.7151V11.5086L13.4944 12.0038C14.1952 12.5296 14.9763 12.9389 15.8062 13.2152L16.9304 13.5899C17.7759 13.8732 18.6721 13.3244 18.8042 12.4427C18.8896 11.73 18.452 11.0582 17.766 10.8471Z" fill="#E3E3E3" stroke="#191919" stroke-linecap="round" stroke-linejoin="round"/>
</svg>
