<svg width="24" height="24" viewBox="0 0 24 24" fill="none" xmlns="http://www.w3.org/2000/svg">
<g clip-path="url(#clip0_5303_13013)">
<mask id="mask0_5303_13013" style="mask-type:luminance" maskUnits="userSpaceOnUse" x="0" y="0" width="24" height="24">
<path d="M0 0H24V24H0V0Z" fill="white"/>
</mask>
<g mask="url(#mask0_5303_13013)">
<path d="M5.78418 15.3479C5.78418 15.6016 5.88496 15.8449 6.06434 16.0243C6.24372 16.2037 6.48702 16.3044 6.7407 16.3044H7.69722V10.5653H6.7407C6.48702 10.5653 6.24372 10.6661 6.06434 10.8455C5.88496 11.0248 5.78418 11.2681 5.78418 11.5218V15.3479Z" fill="white"/>
<path d="M17.2615 8.6521H8.65281C8.39913 8.6521 8.15583 8.75288 7.97645 8.93226C7.79706 9.11164 7.69629 9.35494 7.69629 9.60862V22.0434C7.69629 22.2971 7.79706 22.5404 7.97645 22.7198C8.15583 22.8991 8.39913 22.9999 8.65281 22.9999H17.2615C17.5152 22.9999 17.7585 22.8991 17.9379 22.7198C18.1173 22.5404 18.218 22.2971 18.218 22.0434V9.60862C18.218 9.35494 18.1173 9.11164 17.9379 8.93226C17.7585 8.75288 17.5152 8.6521 17.2615 8.6521Z" fill="#FF808C"/>
<path d="M5.78418 15.3479C5.78418 15.6016 5.88496 15.8449 6.06434 16.0243C6.24372 16.2037 6.48702 16.3044 6.7407 16.3044H7.69722V10.5653H6.7407C6.48702 10.5653 6.24372 10.6661 6.06434 10.8455C5.88496 11.0248 5.78418 11.2681 5.78418 11.5218V15.3479Z" stroke="#191919" stroke-linecap="round" stroke-linejoin="round"/>
<path d="M5.78418 13.4348H7.69722" stroke="#191919" stroke-linecap="round" stroke-linejoin="round"/>
<path d="M9.6084 21.087H16.304" stroke="#191919" stroke-linecap="round" stroke-linejoin="round"/>
<path d="M15.8258 10.5653H10.0867C9.95982 10.5653 9.83817 10.6157 9.74848 10.7054C9.65879 10.7951 9.6084 10.9167 9.6084 11.0436V18.6957C9.6084 18.8226 9.65879 18.9442 9.74848 19.0339C9.83817 19.1236 9.95982 19.174 10.0867 19.174H15.8258C15.9526 19.174 16.0743 19.1236 16.164 19.0339C16.2537 18.9442 16.304 18.8226 16.304 18.6957V11.0436C16.304 10.9167 16.2537 10.7951 16.164 10.7054C16.0743 10.6157 15.9526 10.5653 15.8258 10.5653Z" fill="#C2F3FF"/>
<path d="M3.87007 16.3045C3.87007 16.4301 3.84533 16.5545 3.79726 16.6705C3.74919 16.7866 3.67874 16.892 3.58992 16.9808C3.50109 17.0697 3.39565 17.1401 3.2796 17.1882C3.16355 17.2363 3.03917 17.261 2.91355 17.261C2.78794 17.261 2.66356 17.2363 2.54751 17.1882C2.43146 17.1401 2.32601 17.0697 2.23719 16.9808C2.14837 16.892 2.07791 16.7866 2.02984 16.6705C1.98177 16.5545 1.95703 16.4301 1.95703 16.3045V13.4349C1.95703 13.1812 2.05781 12.9379 2.23719 12.7586C2.41657 12.5792 2.65987 12.4784 2.91355 12.4784C3.16724 12.4784 3.41053 12.5792 3.58992 12.7586C3.7693 12.9379 3.87007 13.1812 3.87007 13.4349V16.3045Z" fill="#808080"/>
<path d="M22.0449 16.3045C22.0449 16.5582 21.9441 16.8015 21.7647 16.9808C21.5853 17.1602 21.342 17.261 21.0884 17.261C20.8347 17.261 20.5914 17.1602 20.412 16.9808C20.2326 16.8015 20.1318 16.5582 20.1318 16.3045V13.4349C20.1318 13.1812 20.2326 12.9379 20.412 12.7586C20.5914 12.5792 20.8347 12.4784 21.0884 12.4784C21.342 12.4784 21.5853 12.5792 21.7647 12.7586C21.9441 12.9379 22.0449 13.1812 22.0449 13.4349V16.3045Z" fill="#808080"/>
<path d="M22.0435 14.8697H23V12.0001C23 9.08274 21.8411 6.28485 19.7782 4.22195C17.7153 2.15905 14.9174 1.00012 12 1.00012C9.08262 1.00012 6.28473 2.15905 4.22183 4.22195C2.15893 6.28485 1 9.08274 1 12.0001V14.8697H1.95652" stroke="#191919" stroke-linecap="round" stroke-linejoin="round"/>
<path d="M17.2615 8.6521H8.65281C8.39913 8.6521 8.15583 8.75288 7.97645 8.93226C7.79706 9.11164 7.69629 9.35494 7.69629 9.60862V22.0434C7.69629 22.2971 7.79706 22.5404 7.97645 22.7198C8.15583 22.8991 8.39913 22.9999 8.65281 22.9999H17.2615C17.5152 22.9999 17.7585 22.8991 17.9379 22.7198C18.1173 22.5404 18.218 22.2971 18.218 22.0434V9.60862C18.218 9.35494 18.1173 9.11164 17.9379 8.93226C17.7585 8.75288 17.5152 8.6521 17.2615 8.6521Z" stroke="#191919" stroke-linecap="round" stroke-linejoin="round"/>
<path d="M15.8258 10.5653H10.0867C9.95982 10.5653 9.83817 10.6157 9.74848 10.7054C9.65879 10.7951 9.6084 10.9167 9.6084 11.0436V18.6957C9.6084 18.8226 9.65879 18.9442 9.74848 19.0339C9.83817 19.1236 9.95982 19.174 10.0867 19.174H15.8258C15.9526 19.174 16.0743 19.1236 16.164 19.0339C16.2537 18.9442 16.304 18.8226 16.304 18.6957V11.0436C16.304 10.9167 16.2537 10.7951 16.164 10.7054C16.0743 10.6157 15.9526 10.5653 15.8258 10.5653Z" stroke="#191919" stroke-linecap="round" stroke-linejoin="round"/>
<path d="M3.87007 16.3045C3.87007 16.4301 3.84533 16.5545 3.79726 16.6705C3.74919 16.7866 3.67874 16.892 3.58992 16.9808C3.50109 17.0697 3.39565 17.1401 3.2796 17.1882C3.16355 17.2363 3.03917 17.261 2.91355 17.261C2.78794 17.261 2.66356 17.2363 2.54751 17.1882C2.43146 17.1401 2.32601 17.0697 2.23719 16.9808C2.14837 16.892 2.07791 16.7866 2.02984 16.6705C1.98177 16.5545 1.95703 16.4301 1.95703 16.3045V13.4349C1.95703 13.1812 2.05781 12.9379 2.23719 12.7586C2.41657 12.5792 2.65987 12.4784 2.91355 12.4784C3.16724 12.4784 3.41053 12.5792 3.58992 12.7586C3.7693 12.9379 3.87007 13.1812 3.87007 13.4349V16.3045Z" stroke="#191919" stroke-linecap="round" stroke-linejoin="round"/>
<path d="M22.0449 16.3045C22.0449 16.5582 21.9441 16.8015 21.7647 16.9808C21.5853 17.1602 21.342 17.261 21.0884 17.261C20.8347 17.261 20.5914 17.1602 20.412 16.9808C20.2326 16.8015 20.1318 16.5582 20.1318 16.3045V13.4349C20.1318 13.1812 20.2326 12.9379 20.412 12.7586C20.5914 12.5792 20.8347 12.4784 21.0884 12.4784C21.342 12.4784 21.5853 12.5792 21.7647 12.7586C21.9441 12.9379 22.0449 13.1812 22.0449 13.4349V16.3045Z" stroke="#191919" stroke-linecap="round" stroke-linejoin="round"/>
<path d="M13.4344 13.6741C13.371 13.6741 13.3102 13.6489 13.2654 13.604C13.2205 13.5592 13.1953 13.4984 13.1953 13.4349C13.1953 13.3715 13.2205 13.3107 13.2654 13.2658C13.3102 13.221 13.371 13.1958 13.4344 13.1958" stroke="#191919"/>
<path d="M13.4355 13.6741C13.499 13.6741 13.5598 13.6489 13.6046 13.604C13.6495 13.5592 13.6747 13.4984 13.6747 13.4349C13.6747 13.3715 13.6495 13.3107 13.6046 13.2658C13.5598 13.221 13.499 13.1958 13.4355 13.1958" stroke="#191919"/>
<path d="M13.4354 16.5437C13.372 16.5437 13.3112 16.5185 13.2663 16.4737C13.2215 16.4288 13.1963 16.368 13.1963 16.3046C13.1963 16.2411 13.2215 16.1803 13.2663 16.1355C13.3112 16.0906 13.372 16.0654 13.4354 16.0654" stroke="#191919"/>
<path d="M13.4355 16.5437C13.499 16.5437 13.5598 16.5185 13.6046 16.4737C13.6495 16.4288 13.6747 16.368 13.6747 16.3046C13.6747 16.2411 13.6495 16.1803 13.6046 16.1355C13.5598 16.0906 13.499 16.0654 13.4355 16.0654" stroke="#191919"/>
</g>
</g>
<defs>
<clipPath id="clip0_5303_13013">
<rect width="24" height="24" fill="white"/>
</clipPath>
</defs>
</svg>
