<svg width="24" height="24" viewBox="0 0 24 24" fill="none" xmlns="http://www.w3.org/2000/svg">
<g clip-path="url(#clip0_5303_5636)">
<path d="M22.0435 1H1.95652C1.42825 1 1 1.42825 1 1.95652V22.0435C1 22.5717 1.42825 23 1.95652 23H22.0435C22.5717 23 23 22.5717 23 22.0435V1.95652C23 1.42825 22.5717 1 22.0435 1Z" fill="white"/>
<path d="M22.0435 1H1.95652C1.42825 1 1 1.42825 1 1.95652V22.0435C1 22.5717 1.42825 23 1.95652 23H22.0435C22.5717 23 23 22.5717 23 22.0435V1.95652C23 1.42825 22.5717 1 22.0435 1Z" fill="white"/>
<path d="M22.0435 20.1304H1.95652C1.70283 20.1304 1.45954 20.0296 1.28016 19.8502C1.10078 19.6709 1 19.4276 1 19.1739V22.0435C1 22.2971 1.10078 22.5405 1.28016 22.7198C1.45954 22.8992 1.70283 23 1.95652 23H22.0435C22.2971 23 22.5405 22.8992 22.7198 22.7198C22.8992 22.5405 23 22.2971 23 22.0435V19.1739C23 19.4276 22.8992 19.6709 22.7198 19.8502C22.5405 20.0296 22.2971 20.1304 22.0435 20.1304Z" fill="#E3E3E3"/>
<path d="M22.0435 1H1.95652C1.42825 1 1 1.42825 1 1.95652V22.0435C1 22.5717 1.42825 23 1.95652 23H22.0435C22.5717 23 23 22.5717 23 22.0435V1.95652C23 1.42825 22.5717 1 22.0435 1Z" stroke="#191919" stroke-linecap="round" stroke-linejoin="round"/>
<path d="M11.9996 19.1739C15.9616 19.1739 19.1735 15.962 19.1735 12C19.1735 8.03797 15.9616 4.82611 11.9996 4.82611C8.03755 4.82611 4.82568 8.03797 4.82568 12C4.82568 15.962 8.03755 19.1739 11.9996 19.1739Z" fill="#E3E3E3"/>
<path d="M11.9996 6.73915C13.7365 6.73916 15.4145 7.36934 16.722 8.51275C18.0295 9.65614 18.8778 11.2351 19.1094 12.9565C19.2458 11.9428 19.1638 10.9116 18.869 9.93205C18.5742 8.95257 18.0733 8.04745 17.4 7.27742C16.7266 6.50739 15.8965 5.89026 14.965 5.46744C14.0335 5.04461 13.0225 4.82587 11.9996 4.82587C10.9767 4.82587 9.96562 5.04461 9.03418 5.46744C8.10276 5.89026 7.27253 6.50739 6.59919 7.27742C5.92585 8.04745 5.42495 8.95257 5.13013 9.93205C4.8353 10.9116 4.75335 11.9428 4.88977 12.9565C5.12136 11.2351 5.96964 9.65614 7.27717 8.51275C8.58469 7.36934 10.2626 6.73916 11.9996 6.73915Z" fill="#B2B2B2"/>
<path d="M11.9996 19.1739C15.9616 19.1739 19.1735 15.962 19.1735 12C19.1735 8.03797 15.9616 4.82611 11.9996 4.82611C8.03755 4.82611 4.82568 8.03797 4.82568 12C4.82568 15.962 8.03755 19.1739 11.9996 19.1739Z" stroke="#191919" stroke-linecap="round" stroke-linejoin="round"/>
<path d="M9.60889 9.6087V14.3913" stroke="#191919" stroke-linecap="round" stroke-linejoin="round"/>
<path d="M14.3911 9.6087V14.3913" stroke="#191919" stroke-linecap="round" stroke-linejoin="round"/>
</g>
<defs>
<clipPath id="clip0_5303_5636">
<rect width="24" height="24" fill="white"/>
</clipPath>
</defs>
</svg>
