<svg width="24" height="24" viewBox="0 0 24 24" fill="none" xmlns="http://www.w3.org/2000/svg">
<path d="M20.1304 2.91302H3.86957C2.28461 2.91302 1 6.98207 1 12C1 17.0179 2.28461 21.0869 3.86957 21.0869H20.1304C21.7144 21.0869 23 17.0179 23 12C23 6.98207 21.7144 2.91302 20.1304 2.91302Z" fill="white"/>
<path d="M20.1304 18.2174H3.86957C2.43478 18.2174 1.25252 14.9021 1.03539 10.5652C1.01243 11.0329 1 11.5121 1 12C1 17.0179 2.28461 21.0869 3.86957 21.0869H20.1304C21.7144 21.0869 23 17.0179 23 12C23 11.5121 22.9876 11.0329 22.9646 10.5652C22.7465 14.9021 21.5652 18.2174 20.1304 18.2174Z" fill="#E3E3E3"/>
<path d="M20.1304 2.91302H3.86957C2.28461 2.91302 1 6.98207 1 12C1 17.0179 2.28461 21.0869 3.86957 21.0869H20.1304C21.7144 21.0869 23 17.0179 23 12C23 6.98207 21.7144 2.91302 20.1304 2.91302Z" stroke="#191919" stroke-linecap="round" stroke-linejoin="round"/>
<path d="M12.0002 13.4347C11.4306 13.3775 10.8613 13.5457 10.4142 13.9033C9.96718 14.261 9.67808 14.7795 9.60889 15.3478V18.2173H14.3915V15.3478C14.3223 14.7795 14.0332 14.261 13.5862 13.9033C13.1391 13.5457 12.5698 13.3775 12.0002 13.4347Z" fill="#808080"/>
<path d="M12.0002 13.4347C11.4306 13.3775 10.8613 13.5457 10.4142 13.9033C9.96718 14.261 9.67808 14.7795 9.60889 15.3478V17.2608C9.67808 16.6925 9.96718 16.174 10.4142 15.8164C10.8613 15.4587 11.4306 15.2906 12.0002 15.3478C12.5698 15.2906 13.1391 15.4587 13.5862 15.8164C14.0332 16.174 14.3223 16.6925 14.3915 17.2608V15.3478C14.3223 14.7795 14.0332 14.261 13.5862 13.9033C13.1391 13.5457 12.5698 13.3775 12.0002 13.4347Z" fill="#6B6B6B"/>
<path d="M12.0002 13.4347C11.4306 13.3775 10.8613 13.5457 10.4142 13.9033C9.96718 14.261 9.67808 14.7795 9.60889 15.3478V18.2173H14.3915V15.3478C14.3223 14.7795 14.0332 14.261 13.5862 13.9033C13.1391 13.5457 12.5698 13.3775 12.0002 13.4347Z" stroke="#191919" stroke-linecap="round" stroke-linejoin="round"/>
<path d="M7.69531 6.73907V11.5217" stroke="#191919" stroke-linecap="round" stroke-linejoin="round"/>
<path d="M16.3042 6.73907V11.5217" stroke="#191919" stroke-linecap="round" stroke-linejoin="round"/>
</svg>
