<svg width="24" height="24" viewBox="0 0 24 24" fill="none" xmlns="http://www.w3.org/2000/svg">
<g clip-path="url(#clip0_5303_7030)">
<path d="M13.9128 8.6522C13.9128 8.39851 13.812 8.15522 13.6327 7.97583C13.4533 7.79646 13.21 7.69568 12.9563 7.69568H3.39109C3.1374 7.69568 2.89411 7.79646 2.71473 7.97583C2.53535 8.15522 2.43457 8.39851 2.43457 8.6522V17.2609H13.9128V8.6522Z" fill="#FFBC44"/>
<path d="M12.9563 7.69568H3.39109C3.1374 7.69568 2.89411 7.79646 2.71473 7.97583C2.53535 8.15522 2.43457 8.39851 2.43457 8.6522V11.0435C2.43457 10.7898 2.53535 10.5465 2.71473 10.3671C2.89411 10.1878 3.1374 10.087 3.39109 10.087H12.9563C13.21 10.087 13.4533 10.1878 13.6327 10.3671C13.812 10.5465 13.9128 10.7898 13.9128 11.0435V8.6522C13.9128 8.39851 13.812 8.15522 13.6327 7.97583C13.4533 7.79646 13.21 7.69568 12.9563 7.69568Z" fill="#FFDDA1"/>
<path d="M13.9128 8.6522C13.9128 8.39851 13.812 8.15522 13.6327 7.97583C13.4533 7.79646 13.21 7.69568 12.9563 7.69568H3.39109C3.1374 7.69568 2.89411 7.79646 2.71473 7.97583C2.53535 8.15522 2.43457 8.39851 2.43457 8.6522V17.2609H13.9128V8.6522Z" stroke="#191919" stroke-linecap="round" stroke-linejoin="round"/>
<path d="M4.34761 23C4.72597 23 5.09584 22.8878 5.41044 22.6776C5.72504 22.4674 5.97023 22.1686 6.11503 21.8191C6.25982 21.4695 6.29771 21.0849 6.22389 20.7137C6.15008 20.3427 5.96788 20.0018 5.70033 19.7343C5.43279 19.4667 5.09192 19.2845 4.72083 19.2107C4.34974 19.1369 3.96509 19.1748 3.61552 19.3195C3.26596 19.4643 2.96718 19.7096 2.75698 20.0242C2.54677 20.3388 2.43457 20.7086 2.43457 21.087C2.43457 21.5943 2.63612 22.0809 2.99489 22.4397C3.35365 22.7985 3.84024 23 4.34761 23Z" fill="#808080"/>
<path d="M13.9126 23C14.291 23 14.6607 22.8878 14.9753 22.6776C15.2899 22.4674 15.5352 22.1686 15.68 21.8191C15.8247 21.4695 15.8626 21.0849 15.7889 20.7137C15.715 20.3427 15.5328 20.0018 15.2653 19.7343C14.9977 19.4667 14.6568 19.2845 14.2858 19.2107C13.9147 19.1369 13.53 19.1748 13.1804 19.3195C12.8309 19.4643 12.5321 19.7096 12.322 20.0242C12.1117 20.3388 11.9995 20.7086 11.9995 21.087C11.9995 21.5943 12.2011 22.0809 12.5598 22.4397C12.9186 22.7985 13.4052 23 13.9126 23Z" fill="#808080"/>
<path d="M23 1H20.733C20.2922 1.00013 19.8649 1.15252 19.5235 1.43139C19.182 1.71025 18.9474 2.09849 18.8592 2.53043L16.1408 15.7304C16.0526 16.1624 15.8179 16.5506 15.4765 16.8295C15.1351 17.1084 14.7078 17.2608 14.2669 17.2609H1" stroke="#191919" stroke-linecap="round" stroke-linejoin="round"/>
<path d="M6.26074 7.69568V12.9565L8.17378 11.5218L10.0868 12.9565V7.69568" fill="white"/>
<path d="M4.82568 7.69567V2.91306C4.82568 2.65938 4.92646 2.41608 5.10584 2.2367C5.28522 2.05732 5.52852 1.95654 5.7822 1.95654H10.5648C10.8185 1.95654 11.0618 2.05732 11.2412 2.2367C11.4205 2.41608 11.5213 2.65938 11.5213 2.91306V7.69567H4.82568Z" fill="#FFBC44"/>
<path d="M10.5648 1.95654H5.7822C5.52852 1.95654 5.28522 2.05732 5.10584 2.2367C4.92646 2.41608 4.82568 2.65938 4.82568 2.91306V4.82611C4.82568 4.57242 4.92646 4.32913 5.10584 4.14974C5.28522 3.97036 5.52852 3.86958 5.7822 3.86958H10.5648C10.8185 3.86958 11.0618 3.97036 11.2412 4.14974C11.4205 4.32913 11.5213 4.57242 11.5213 4.82611V2.91306C11.5213 2.65938 11.4205 2.41608 11.2412 2.2367C11.0618 2.05732 10.8185 1.95654 10.5648 1.95654Z" fill="#FFDDA1"/>
<path d="M4.82568 7.69567V2.91306C4.82568 2.65938 4.92646 2.41608 5.10584 2.2367C5.28522 2.05732 5.52852 1.95654 5.7822 1.95654H10.5648C10.8185 1.95654 11.0618 2.05732 11.2412 2.2367C11.4205 2.41608 11.5213 2.65938 11.5213 2.91306V7.69567H4.82568Z" stroke="#191919" stroke-linecap="round" stroke-linejoin="round"/>
<path d="M4.34761 23C4.72597 23 5.09584 22.8878 5.41044 22.6776C5.72504 22.4674 5.97023 22.1686 6.11503 21.8191C6.25982 21.4695 6.29771 21.0849 6.22389 20.7137C6.15008 20.3427 5.96788 20.0018 5.70033 19.7343C5.43279 19.4667 5.09192 19.2845 4.72083 19.2107C4.34974 19.1369 3.96509 19.1748 3.61552 19.3195C3.26596 19.4643 2.96718 19.7096 2.75698 20.0242C2.54677 20.3388 2.43457 20.7086 2.43457 21.087C2.43457 21.5943 2.63612 22.0809 2.99489 22.4397C3.35365 22.7985 3.84024 23 4.34761 23Z" stroke="#191919" stroke-linecap="round" stroke-linejoin="round"/>
<path d="M13.9126 23C14.291 23 14.6607 22.8878 14.9753 22.6776C15.2899 22.4674 15.5352 22.1686 15.68 21.8191C15.8247 21.4695 15.8626 21.0849 15.7889 20.7137C15.715 20.3427 15.5328 20.0018 15.2653 19.7343C14.9977 19.4667 14.6568 19.2845 14.2858 19.2107C13.9147 19.1369 13.53 19.1748 13.1804 19.3195C12.8309 19.4643 12.5321 19.7096 12.322 20.0242C12.1117 20.3388 11.9995 20.7086 11.9995 21.087C11.9995 21.5943 12.2011 22.0809 12.5598 22.4397C12.9186 22.7985 13.4052 23 13.9126 23Z" stroke="#191919" stroke-linecap="round" stroke-linejoin="round"/>
<path d="M6.26074 7.69568V12.9565L8.17378 11.5218L10.0868 12.9565V7.69568" stroke="#191919" stroke-linecap="round" stroke-linejoin="round"/>
</g>
<defs>
<clipPath id="clip0_5303_7030">
<rect width="24" height="24" fill="white"/>
</clipPath>
</defs>
</svg>
