<svg width="24" height="24" viewBox="0 0 24 24" fill="none" xmlns="http://www.w3.org/2000/svg">
<g clip-path="url(#clip0_5303_6891)">
<path d="M2.00049 21.9999V7.99994H22.0005V21.9999H2.00049Z" fill="#E3E3E3"/>
<path d="M5.50049 16H12.0005V22H5.50049C5.36788 22 5.2407 21.9473 5.14694 21.8536C5.05317 21.7598 5.00049 21.6326 5.00049 21.5V16.5C5.00049 16.3674 5.05317 16.2402 5.14694 16.1464C5.2407 16.0527 5.36788 16 5.50049 16Z" fill="#FFBC44"/>
<path d="M12.0005 16H18.5005C18.6331 16 18.7603 16.0527 18.8541 16.1464C18.9478 16.2402 19.0005 16.3674 19.0005 16.5V21.5C19.0005 21.6326 18.9478 21.7598 18.8541 21.8536C18.7603 21.9473 18.6331 22 18.5005 22H12.0005V16Z" fill="#FFBC44"/>
<path d="M8.50049 10H14.5005C14.6331 10 14.7603 10.0527 14.8541 10.1464C14.9478 10.2402 15.0005 10.3674 15.0005 10.5V16H8.00049V10.5C8.00049 10.3674 8.05317 10.2402 8.14694 10.1464C8.2407 10.0527 8.36788 10 8.50049 10Z" fill="#FFBC44"/>
<path d="M10 10H13V13H10V10Z" fill="white"/>
<path d="M7 16H10V18.5C10 18.6326 9.94732 18.7598 9.85355 18.8536C9.75979 18.9473 9.63261 19 9.5 19H7.5C7.36739 19 7.24021 18.9473 7.14645 18.8536C7.05268 18.7598 7 18.6326 7 18.5V16Z" fill="white"/>
<path d="M14.0005 16H17.0005V18.5C17.0005 18.6326 16.9478 18.7598 16.8541 18.8536C16.7603 18.9473 16.6331 19 16.5005 19H14.5005C14.3679 19 14.2407 18.9473 14.1469 18.8536C14.0532 18.7598 14.0005 18.6326 14.0005 18.5V16Z" fill="white"/>
<path d="M12 1.99994C5.327 1.99994 1.928 4.66094 1.167 5.34294C1.11459 5.38973 1.07263 5.44705 1.04385 5.51114C1.01508 5.57524 1.00014 5.64468 1 5.71494V7.49994C1 7.63255 1.05268 7.75973 1.14645 7.85349C1.24021 7.94726 1.36739 7.99994 1.5 7.99994H22.5C22.6326 7.99994 22.7598 7.94726 22.8536 7.85349C22.9473 7.75973 23 7.63255 23 7.49994V5.71494C22.9999 5.64468 22.9849 5.57524 22.9561 5.51114C22.9274 5.44705 22.8854 5.38973 22.833 5.34294C22.072 4.66094 18.673 1.99994 12 1.99994Z" fill="#FF808C"/>
<path d="M22.833 5.34294C22.072 4.66094 18.673 1.99994 12 1.99994C5.327 1.99994 1.928 4.66094 1.167 5.34294C1.11459 5.38973 1.07263 5.44705 1.04385 5.51114C1.01508 5.57524 1.00014 5.64468 1 5.71494V7.49994C1 7.63255 1.05268 7.75973 1.14645 7.85349C1.24021 7.94726 1.36739 7.99994 1.5 7.99994H1.582C2.837 7.03194 6.168 4.99994 12 4.99994C17.832 4.99994 21.163 7.03194 22.418 7.99994H22.5C22.6326 7.99994 22.7598 7.94726 22.8536 7.85349C22.9473 7.75973 23 7.63255 23 7.49994V5.71494C22.9999 5.64468 22.9849 5.57524 22.9561 5.51114C22.9274 5.44705 22.8854 5.38973 22.833 5.34294Z" fill="#FFBFC5"/>
<path d="M12 1.99994C5.327 1.99994 1.928 4.66094 1.167 5.34294C1.11459 5.38973 1.07263 5.44705 1.04385 5.51114C1.01508 5.57524 1.00014 5.64468 1 5.71494V7.49994C1 7.63255 1.05268 7.75973 1.14645 7.85349C1.24021 7.94726 1.36739 7.99994 1.5 7.99994H22.5C22.6326 7.99994 22.7598 7.94726 22.8536 7.85349C22.9473 7.75973 23 7.63255 23 7.49994V5.71494C22.9999 5.64468 22.9849 5.57524 22.9561 5.51114C22.9274 5.44705 22.8854 5.38973 22.833 5.34294C22.072 4.66094 18.673 1.99994 12 1.99994Z" stroke="#191919" stroke-linecap="round" stroke-linejoin="round"/>
<path d="M5.50049 16H12.0005V22H5.50049C5.36788 22 5.2407 21.9473 5.14694 21.8536C5.05317 21.7598 5.00049 21.6326 5.00049 21.5V16.5C5.00049 16.3674 5.05317 16.2402 5.14694 16.1464C5.2407 16.0527 5.36788 16 5.50049 16Z" stroke="#191919" stroke-linecap="round" stroke-linejoin="round"/>
<path d="M12.0005 16H18.5005C18.6331 16 18.7603 16.0527 18.8541 16.1464C18.9478 16.2402 19.0005 16.3674 19.0005 16.5V21.5C19.0005 21.6326 18.9478 21.7598 18.8541 21.8536C18.7603 21.9473 18.6331 22 18.5005 22H12.0005V16Z" stroke="#191919" stroke-linecap="round" stroke-linejoin="round"/>
<path d="M8.50049 10H14.5005C14.6331 10 14.7603 10.0527 14.8541 10.1464C14.9478 10.2402 15.0005 10.3674 15.0005 10.5V16H8.00049V10.5C8.00049 10.3674 8.05317 10.2402 8.14694 10.1464C8.2407 10.0527 8.36788 10 8.50049 10Z" stroke="#191919" stroke-linecap="round" stroke-linejoin="round"/>
<path d="M10 10H13V13H10V10Z" stroke="#191919" stroke-linecap="round" stroke-linejoin="round"/>
<path d="M7 16H10V18.5C10 18.6326 9.94732 18.7598 9.85355 18.8536C9.75979 18.9473 9.63261 19 9.5 19H7.5C7.36739 19 7.24021 18.9473 7.14645 18.8536C7.05268 18.7598 7 18.6326 7 18.5V16Z" stroke="#191919" stroke-linecap="round" stroke-linejoin="round"/>
<path d="M14.0005 16H17.0005V18.5C17.0005 18.6326 16.9478 18.7598 16.8541 18.8536C16.7603 18.9473 16.6331 19 16.5005 19H14.5005C14.3679 19 14.2407 18.9473 14.1469 18.8536C14.0532 18.7598 14.0005 18.6326 14.0005 18.5V16Z" stroke="#191919" stroke-linecap="round" stroke-linejoin="round"/>
<path d="M10.2505 4.99994H13.7505" stroke="#191919" stroke-linecap="round" stroke-linejoin="round"/>
<path d="M2.00049 21.9999V7.99994H22.0005V21.9999" stroke="#191919" stroke-linecap="round" stroke-linejoin="round"/>
</g>
<defs>
<clipPath id="clip0_5303_6891">
<rect width="24" height="24" fill="white"/>
</clipPath>
</defs>
</svg>
