<svg width="24" height="24" viewBox="0 0 24 24" fill="none" xmlns="http://www.w3.org/2000/svg">
<g clip-path="url(#clip0_5303_7044)">
<path d="M15.8254 22.5217C16.2059 22.5217 16.5709 22.3706 16.84 22.1015C17.109 21.8324 17.2602 21.4675 17.2602 21.0869C17.2602 20.7064 17.109 20.3415 16.84 20.0724C16.5709 19.8033 16.2059 19.6522 15.8254 19.6522C15.4449 19.6522 15.0799 19.8033 14.8109 20.0724C14.5418 20.3415 14.3906 20.7064 14.3906 21.0869C14.3906 21.4675 14.5418 21.8324 14.8109 22.1015C15.0799 22.3706 15.4449 22.5217 15.8254 22.5217Z" fill="#808080"/>
<path d="M5.30441 22.5217C5.68494 22.5217 6.04988 22.3706 6.31896 22.1015C6.58803 21.8324 6.73919 21.4675 6.73919 21.0869C6.73919 20.7064 6.58803 20.3415 6.31896 20.0724C6.04988 19.8033 5.68494 19.6522 5.30441 19.6522C4.92388 19.6522 4.55894 19.8033 4.28987 20.0724C4.02079 20.3415 3.86963 20.7064 3.86963 21.0869C3.86963 21.4675 4.02079 21.8324 4.28987 22.1015C4.55894 22.3706 4.92388 22.5217 5.30441 22.5217Z" fill="#808080"/>
<path d="M23 1.47827H22.4156C22.1813 1.4783 21.9552 1.56432 21.7801 1.72C21.605 1.87568 21.4931 2.09021 21.4657 2.32288L19.7478 16.8945C19.7204 17.1272 19.6086 17.3417 19.4335 17.4974C19.2584 17.6531 19.0323 17.7391 18.798 17.7391H1" stroke="#191919" stroke-linecap="round" stroke-linejoin="round"/>
<path d="M10.5647 12H2.91258C2.65889 12 2.4156 12.1008 2.23621 12.2802C2.05683 12.4595 1.95605 12.7028 1.95605 12.9565V14.8696C1.95605 15.1233 2.05683 15.3665 2.23621 15.5459C2.4156 15.7253 2.65889 15.8261 2.91258 15.8261H10.5647V12Z" fill="#FFEF5E"/>
<path d="M2.91258 12C2.65889 12 2.4156 12.1008 2.23621 12.2802C2.05683 12.4595 1.95605 12.7028 1.95605 12.9565V14.8696C1.95605 14.6159 2.05683 14.3726 2.23621 14.1932C2.4156 14.0138 2.65889 13.913 2.91258 13.913H10.5647V12H2.91258Z" fill="#FFF9BF"/>
<path d="M10.5647 12H2.91258C2.65889 12 2.4156 12.1008 2.23621 12.2802C2.05683 12.4595 1.95605 12.7028 1.95605 12.9565V14.8696C1.95605 15.1233 2.05683 15.3665 2.23621 15.5459C2.4156 15.7253 2.65889 15.8261 2.91258 15.8261H10.5647V12Z" stroke="#191919" stroke-linecap="round" stroke-linejoin="round"/>
<path d="M8.65173 10.087C8.65173 9.83333 8.55095 9.59003 8.37157 9.41065C8.19219 9.23127 7.94889 9.13049 7.69521 9.13049H3.86912C3.61543 9.13049 3.37214 9.23127 3.19276 9.41065C3.01337 9.59003 2.9126 9.83333 2.9126 10.087V12.0001H8.65173V10.087Z" fill="#FF808C"/>
<path d="M17.2606 6.2609C17.2606 6.00722 17.1598 5.76392 16.9804 5.58454C16.8011 5.40516 16.5578 5.30438 16.3041 5.30438H11.5215C11.3959 5.30438 11.2715 5.32912 11.1554 5.37719C11.0394 5.42526 10.9339 5.49572 10.8451 5.58454C10.7563 5.67336 10.6858 5.77881 10.6378 5.89486C10.5897 6.01091 10.5649 6.13529 10.5649 6.2609V15.8261H16.3041C16.5578 15.8261 16.8011 15.7253 16.9804 15.546C17.1598 15.3666 17.2606 15.1233 17.2606 14.8696V6.2609Z" fill="#B2FFC0"/>
<path d="M16.3041 5.30438H11.5215C11.3959 5.30438 11.2715 5.32912 11.1554 5.37719C11.0394 5.42526 10.9339 5.49572 10.8451 5.58454C10.7563 5.67336 10.6858 5.77881 10.6378 5.89486C10.5897 6.01091 10.5649 6.13529 10.5649 6.2609V9.13047C10.5649 8.87678 10.6657 8.63349 10.8451 8.45411C11.0245 8.27472 11.2678 8.17395 11.5215 8.17395H16.3041C16.5578 8.17395 16.8011 8.27472 16.9804 8.45411C17.1598 8.63349 17.2606 8.87678 17.2606 9.13047V6.2609C17.2606 6.00722 17.1598 5.76392 16.9804 5.58454C16.8011 5.40516 16.5578 5.30438 16.3041 5.30438Z" fill="#C9F7CA"/>
<path d="M17.2606 6.2609C17.2606 6.00722 17.1598 5.76392 16.9804 5.58454C16.8011 5.40516 16.5578 5.30438 16.3041 5.30438H11.5215C11.3959 5.30438 11.2715 5.32912 11.1554 5.37719C11.0394 5.42526 10.9339 5.49572 10.8451 5.58454C10.7563 5.67336 10.6858 5.77881 10.6378 5.89486C10.5897 6.01091 10.5649 6.13529 10.5649 6.2609V15.8261H16.3041C16.5578 15.8261 16.8011 15.7253 16.9804 15.546C17.1598 15.3666 17.2606 15.1233 17.2606 14.8696V6.2609Z" stroke="#191919" stroke-linecap="round" stroke-linejoin="round"/>
<path d="M15.8254 22.5217C16.2059 22.5217 16.5709 22.3706 16.84 22.1015C17.109 21.8324 17.2602 21.4675 17.2602 21.0869C17.2602 20.7064 17.109 20.3415 16.84 20.0724C16.5709 19.8033 16.2059 19.6522 15.8254 19.6522C15.4449 19.6522 15.0799 19.8033 14.8109 20.0724C14.5418 20.3415 14.3906 20.7064 14.3906 21.0869C14.3906 21.4675 14.5418 21.8324 14.8109 22.1015C15.0799 22.3706 15.4449 22.5217 15.8254 22.5217Z" stroke="#191919" stroke-linecap="round" stroke-linejoin="round"/>
<path d="M5.30441 22.5217C5.68494 22.5217 6.04988 22.3706 6.31896 22.1015C6.58803 21.8324 6.73919 21.4675 6.73919 21.0869C6.73919 20.7064 6.58803 20.3415 6.31896 20.0724C6.04988 19.8033 5.68494 19.6522 5.30441 19.6522C4.92388 19.6522 4.55894 19.8033 4.28987 20.0724C4.02079 20.3415 3.86963 20.7064 3.86963 21.0869C3.86963 21.4675 4.02079 21.8324 4.28987 22.1015C4.55894 22.3706 4.92388 22.5217 5.30441 22.5217Z" stroke="#191919" stroke-linecap="round" stroke-linejoin="round"/>
<path d="M8.65173 10.087C8.65173 9.83333 8.55095 9.59003 8.37157 9.41065C8.19219 9.23127 7.94889 9.13049 7.69521 9.13049H3.86912C3.61543 9.13049 3.37214 9.23127 3.19276 9.41065C3.01337 9.59003 2.9126 9.83333 2.9126 10.087V12.0001H8.65173V10.087Z" stroke="#191919" stroke-linecap="round" stroke-linejoin="round"/>
</g>
<defs>
<clipPath id="clip0_5303_7044">
<rect width="24" height="24" fill="white"/>
</clipPath>
</defs>
</svg>
