<svg width="24" height="24" viewBox="0 0 24 24" fill="none" xmlns="http://www.w3.org/2000/svg">
<path d="M17.5286 13.2712L16.1799 21.4017C16.1054 21.8479 15.8753 22.2533 15.5304 22.5459C15.1854 22.8385 14.7478 22.9994 14.2955 23H7.79115C7.33893 22.9995 6.90154 22.8387 6.55659 22.5463C6.21163 22.2538 5.98142 21.8487 5.9068 21.4026L4.55811 13.2722C5.70731 13.0751 6.73567 12.441 7.42767 11.5026C7.84434 12.0718 8.3893 12.5346 9.01834 12.8536C9.64738 13.1727 10.3428 13.339 11.0481 13.339C11.7535 13.339 12.4488 13.1727 13.0779 12.8536C13.707 12.5346 14.2519 12.0718 14.6685 11.5026C15.3597 12.4371 16.3837 13.0704 17.5286 13.2712Z" fill="#66E1FF" stroke="#191919" stroke-linecap="round" stroke-linejoin="round"/>
<path d="M18.6859 6.33642L17.5286 13.2712C16.3835 13.0701 15.3595 12.4365 14.6685 11.5016C14.2519 12.0708 13.707 12.5336 13.0779 12.8526C12.4488 13.1717 11.7535 13.3381 11.0481 13.3381C10.3428 13.3381 9.64738 13.1717 9.01834 12.8526C8.3893 12.5336 7.84434 12.0708 7.42767 11.5016C6.73567 12.4401 5.70731 13.0742 4.55811 13.2712L3.40071 6.33642C3.38667 6.26887 3.38888 6.19895 3.40718 6.13242C3.42548 6.06591 3.45932 6.00468 3.50593 5.95381C3.55021 5.90031 3.60574 5.85724 3.66857 5.82765C3.73139 5.79805 3.79997 5.78267 3.86941 5.78259H18.2172C18.2868 5.78278 18.3554 5.79832 18.4182 5.82808C18.4811 5.85784 18.5365 5.9011 18.5807 5.95477C18.6272 6.00553 18.661 6.06659 18.6792 6.13294C18.6975 6.19928 18.6998 6.26901 18.6859 6.33642Z" fill="white"/>
<path d="M18.5802 5.95391C18.536 5.90024 18.4805 5.85699 18.4176 5.82723C18.3548 5.79746 18.2862 5.78193 18.2167 5.78174H18.1928C18.2033 5.94148 18.2167 6.0993 18.2167 6.26C18.2164 7.40231 17.9429 8.52798 17.4188 9.54301C16.8949 10.5581 16.1357 11.433 15.2046 12.0948C15.8464 12.7066 16.6548 13.1149 17.528 13.2685L18.6854 6.33365C18.699 6.26654 18.6965 6.19717 18.6782 6.13119C18.6599 6.06521 18.6264 6.00447 18.5802 5.95391Z" fill="#E3E3E3"/>
<path d="M3.86941 6.26085C3.86941 6.0992 3.8828 5.94138 3.89332 5.78259H3.86941C3.79989 5.78278 3.73127 5.79832 3.66844 5.82808C3.60561 5.85784 3.55012 5.9011 3.50593 5.95477C3.45932 6.00563 3.42548 6.06686 3.40718 6.13338C3.38888 6.1999 3.38667 6.26983 3.40071 6.33738L4.55811 13.2722C5.43355 13.1226 6.24448 12.7153 6.88724 12.1023C5.95418 11.4405 5.19328 10.5648 4.66822 9.54845C4.14317 8.53213 3.86925 7.4048 3.86941 6.26085Z" fill="#E3E3E3"/>
<path d="M18.6859 6.33642L17.5286 13.2712C16.3835 13.0701 15.3595 12.4365 14.6685 11.5016C14.2519 12.0708 13.707 12.5336 13.0779 12.8526C12.4488 13.1717 11.7535 13.3381 11.0481 13.3381C10.3428 13.3381 9.64738 13.1717 9.01834 12.8526C8.3893 12.5336 7.84434 12.0708 7.42767 11.5016C6.73567 12.4401 5.70731 13.0742 4.55811 13.2712L3.40071 6.33642C3.38667 6.26887 3.38888 6.19895 3.40718 6.13242C3.42548 6.06591 3.45932 6.00468 3.50593 5.95381C3.55021 5.90031 3.60574 5.85724 3.66857 5.82765C3.73139 5.79805 3.79997 5.78267 3.86941 5.78259H18.2172C18.2868 5.78278 18.3554 5.79832 18.4182 5.82808C18.4811 5.85784 18.5365 5.9011 18.5807 5.95477C18.6272 6.00553 18.661 6.06659 18.6792 6.13294C18.6975 6.19928 18.6998 6.26901 18.6859 6.33642Z" stroke="#191919" stroke-linecap="round" stroke-linejoin="round"/>
<path d="M20.6082 1H18.369C17.5083 1.00007 16.6728 1.29033 15.9975 1.82387C15.3222 2.35741 14.8464 3.10306 14.6472 3.94035L11.1387 18.6813" stroke="#191919" stroke-linecap="round" stroke-linejoin="round"/>
<path d="M17.5374 13.2712H17.5278" stroke="#191919" stroke-linecap="round" stroke-linejoin="round"/>
</svg>
