<svg width="24" height="24" viewBox="0 0 24 24" fill="none" xmlns="http://www.w3.org/2000/svg">
<path d="M15.3471 1.4782V3.86919H8.65234V1.4782C8.65234 1.35137 8.70272 1.22974 8.7924 1.14006C8.88208 1.05038 9.00372 1 9.13054 1H14.8689C14.9957 1 15.1174 1.05038 15.2071 1.14006C15.2967 1.22974 15.3471 1.35137 15.3471 1.4782Z" fill="#E3E3E3" stroke="#191919" stroke-linecap="round" stroke-linejoin="round"/>
<path d="M17.2601 10.0857V22.2797C17.2601 23.2361 6.73975 23.2361 6.73975 22.2797V10.0857C6.73975 8.17292 8.65254 5.78193 8.65254 4.82554V3.86914H15.3473V4.82554C15.3473 5.78193 17.2601 8.17292 17.2601 10.0857Z" fill="#C2F3FF"/>
<path d="M11.9999 17.2587C10.948 17.2585 9.91348 16.991 8.99337 16.4812C8.07325 15.9715 7.29778 15.2363 6.73975 14.3446V22.2827C6.73975 23.2391 17.2601 23.2391 17.2601 22.2827V14.3446C16.7021 15.2363 15.9267 15.9716 15.0065 16.4813C14.0864 16.9911 13.0518 17.2586 11.9999 17.2587Z" fill="#66E1FF"/>
<path d="M17.2601 10.0857V22.2797C17.2601 23.2361 6.73975 23.2361 6.73975 22.2797V10.0857C6.73975 8.17292 8.65254 5.78193 8.65254 4.82554V3.86914H15.3473V4.82554C15.3473 5.78193 17.2601 8.17292 17.2601 10.0857Z" stroke="#191919" stroke-linecap="round" stroke-linejoin="round"/>
</svg>
