<svg width="24" height="24" viewBox="0 0 24 24" fill="none" xmlns="http://www.w3.org/2000/svg">
<path d="M2.91309 17.2609V9.13044C2.91309 6.97411 3.76968 4.9061 5.29444 3.38135C6.81919 1.8566 8.8872 1 11.0435 1C13.1998 1 15.2679 1.8566 16.7926 3.38135C18.3174 4.9061 19.174 6.97411 19.174 9.13044C19.174 9.25728 19.1236 9.37893 19.0339 9.46862C18.9442 9.55831 18.8225 9.6087 18.6957 9.6087H16.5569C16.4899 9.6087 16.4257 9.58209 16.3784 9.53473C16.331 9.48738 16.3044 9.42315 16.3044 9.35617C16.3266 8.02088 15.8545 6.72451 14.9787 5.71629C14.1029 4.70808 12.8853 4.05921 11.56 3.89443C10.8291 3.82232 10.0912 3.90406 9.39377 4.13438C8.69635 4.3647 8.05488 4.73851 7.51066 5.23173C6.96643 5.72496 6.53152 6.32667 6.2339 6.99814C5.93629 7.66961 5.78257 8.39596 5.78265 9.13044V17.2609H2.91309Z" fill="#E3E3E3"/>
<path d="M15.5871 12.4783L14.1523 21.5652H21.8045L20.3697 12.4783H15.5871Z" fill="#66E1FF"/>
<path d="M11.0435 1C8.8872 1 6.81919 1.8566 5.29444 3.38135C3.76968 4.9061 2.91309 6.97411 2.91309 9.13044V17.2609H4.34787V9.13044C4.34787 7.35464 5.0533 5.65157 6.30898 4.39589C7.56466 3.14022 9.26772 2.43478 11.0435 2.43478C12.8193 2.43478 14.5224 3.14022 15.7781 4.39589C17.0337 5.65157 17.7392 7.35464 17.7392 9.13044L17.7487 9.6087H18.6957C18.8225 9.6087 18.9442 9.55831 19.0339 9.46862C19.1236 9.37893 19.174 9.25728 19.174 9.13044C19.174 6.97411 18.3174 4.9061 16.7926 3.38135C15.2679 1.8566 13.1998 1 11.0435 1Z" fill="white"/>
<path d="M6.73915 20.6087V22.5217C6.73915 22.6486 6.68876 22.7702 6.59907 22.8599C6.50938 22.9496 6.38773 23 6.26089 23H2.4348C2.30796 23 2.18631 22.9496 2.09662 22.8599C2.00693 22.7702 1.95654 22.6486 1.95654 22.5217V17.7391C1.95654 17.6123 2.00693 17.4906 2.09662 17.4009C2.18631 17.3113 2.30796 17.2609 2.4348 17.2609H6.26089C6.38773 17.2609 6.50938 17.3113 6.59907 17.4009C6.68876 17.4906 6.73915 17.6123 6.73915 17.7391V18.2174" fill="#E3E3E3"/>
<path d="M6.73915 20.6087V22.5217C6.73915 22.6486 6.68876 22.7702 6.59907 22.8599C6.50938 22.9496 6.38773 23 6.26089 23H2.4348C2.30796 23 2.18631 22.9496 2.09662 22.8599C2.00693 22.7702 1.95654 22.6486 1.95654 22.5217V17.7391C1.95654 17.6123 2.00693 17.4906 2.09662 17.4009C2.18631 17.3113 2.30796 17.2609 2.4348 17.2609H6.26089C6.38773 17.2609 6.50938 17.3113 6.59907 17.4009C6.68876 17.4906 6.73915 17.6123 6.73915 17.7391V18.2174" stroke="#191919" stroke-linecap="round" stroke-linejoin="round"/>
<path d="M2.91309 17.2609V9.13044C2.91309 6.97411 3.76968 4.9061 5.29444 3.38135C6.81919 1.8566 8.8872 1 11.0435 1C13.1998 1 15.2679 1.8566 16.7926 3.38135C18.3174 4.9061 19.174 6.97411 19.174 9.13044C19.174 9.25728 19.1236 9.37893 19.0339 9.46862C18.9442 9.55831 18.8225 9.6087 18.6957 9.6087H16.5569C16.4899 9.6087 16.4257 9.58209 16.3784 9.53473C16.331 9.48738 16.3044 9.42315 16.3044 9.35617C16.3266 8.02088 15.8545 6.72451 14.9787 5.71629C14.1029 4.70808 12.8853 4.05921 11.56 3.89443C10.8291 3.82232 10.0912 3.90406 9.39377 4.13438C8.69635 4.3647 8.05488 4.73851 7.51066 5.23173C6.96643 5.72496 6.53152 6.32667 6.2339 6.99814C5.93629 7.66961 5.78257 8.39596 5.78265 9.13044V17.2609" stroke="#191919" stroke-linecap="round" stroke-linejoin="round"/>
<path d="M4.38585 19.4446C4.15005 19.5382 3.9611 19.7216 3.86055 19.9546C3.76001 20.1875 3.75611 20.4508 3.84972 20.6866C3.94333 20.9224 4.12678 21.1114 4.35971 21.2119C4.59264 21.3125 4.85597 21.3164 5.09177 21.2228L9.09194 19.634C9.32774 19.5404 9.5167 19.3569 9.61724 19.124C9.71779 18.8911 9.72168 18.6277 9.62807 18.3919C9.53446 18.1561 9.35102 17.9672 9.11809 17.8666C8.88516 17.7661 8.62183 17.7622 8.38603 17.8558L4.38585 19.4446Z" fill="#808080" stroke="#191919" stroke-linecap="round" stroke-linejoin="round"/>
<path d="M15.5868 12.9565C15.5234 12.9565 15.4625 12.9313 15.4177 12.8865C15.3729 12.8416 15.3477 12.7808 15.3477 12.7174C15.3477 12.654 15.3729 12.5932 15.4177 12.5483C15.4625 12.5035 15.5234 12.4783 15.5868 12.4783" stroke="#191919"/>
<path d="M15.5869 12.9565C15.6503 12.9565 15.7112 12.9313 15.756 12.8865C15.8008 12.8416 15.826 12.7808 15.826 12.7174C15.826 12.654 15.8008 12.5932 15.756 12.5483C15.7112 12.5035 15.6503 12.4783 15.5869 12.4783" stroke="#191919"/>
<path d="M17.9784 12.9565C17.915 12.9565 17.8541 12.9313 17.8093 12.8865C17.7645 12.8416 17.7393 12.7808 17.7393 12.7174C17.7393 12.654 17.7645 12.5932 17.8093 12.5483C17.8541 12.5035 17.915 12.4783 17.9784 12.4783" stroke="#191919"/>
<path d="M17.9785 12.9565C18.0419 12.9565 18.1028 12.9313 18.1476 12.8865C18.1925 12.8416 18.2176 12.7808 18.2176 12.7174C18.2176 12.654 18.1925 12.5932 18.1476 12.5483C18.1028 12.5035 18.0419 12.4783 17.9785 12.4783" stroke="#191919"/>
<path d="M20.3695 12.9565C20.3061 12.9565 20.2453 12.9313 20.2004 12.8865C20.1556 12.8416 20.1304 12.7808 20.1304 12.7174C20.1304 12.654 20.1556 12.5932 20.2004 12.5483C20.2453 12.5035 20.3061 12.4783 20.3695 12.4783" stroke="#191919"/>
<path d="M20.3696 12.9565C20.4331 12.9565 20.4939 12.9313 20.5387 12.8865C20.5836 12.8416 20.6088 12.7808 20.6088 12.7174C20.6088 12.654 20.5836 12.5932 20.5387 12.5483C20.4939 12.5035 20.4331 12.4783 20.3696 12.4783" stroke="#191919"/>
<path d="M20.848 15.8261C20.7846 15.8261 20.7238 15.8009 20.6789 15.7561C20.6341 15.7112 20.6089 15.6504 20.6089 15.587C20.6089 15.5235 20.6341 15.4627 20.6789 15.4179C20.7238 15.373 20.7846 15.3478 20.848 15.3478" stroke="#191919"/>
<path d="M20.8477 15.8261C20.9111 15.8261 20.9719 15.8009 21.0167 15.7561C21.0616 15.7112 21.0868 15.6504 21.0868 15.587C21.0868 15.5235 21.0616 15.4627 21.0167 15.4179C20.9719 15.373 20.9111 15.3478 20.8477 15.3478" stroke="#191919"/>
<path d="M21.326 18.6957C21.2626 18.6957 21.2018 18.6705 21.157 18.6256C21.1121 18.5808 21.0869 18.52 21.0869 18.4565C21.0869 18.3931 21.1121 18.3323 21.157 18.2874C21.2018 18.2426 21.2626 18.2174 21.326 18.2174" stroke="#191919"/>
<path d="M21.3262 18.6957C21.3896 18.6957 21.4504 18.6705 21.4953 18.6256C21.5401 18.5808 21.5653 18.52 21.5653 18.4565C21.5653 18.3931 21.5401 18.3323 21.4953 18.2874C21.4504 18.2426 21.3896 18.2174 21.3262 18.2174" stroke="#191919"/>
<path d="M21.8046 21.5298C21.7411 21.5298 21.6803 21.5046 21.6355 21.4598C21.5906 21.4149 21.5654 21.3541 21.5654 21.2907C21.5654 21.2273 21.5906 21.1664 21.6355 21.1216C21.6803 21.0767 21.7411 21.0515 21.8046 21.0515" stroke="#191919"/>
<path d="M21.8042 21.5298C21.8676 21.5298 21.9284 21.5046 21.9733 21.4598C22.0181 21.4149 22.0433 21.3541 22.0433 21.2907C22.0433 21.2273 22.0181 21.1664 21.9733 21.1216C21.9284 21.0767 21.8676 21.0515 21.8042 21.0515" stroke="#191919"/>
<path d="M17.9784 21.5652C17.915 21.5652 17.8541 21.54 17.8093 21.4952C17.7645 21.4503 17.7393 21.3895 17.7393 21.3261C17.7393 21.2627 17.7645 21.2018 17.8093 21.157C17.8541 21.1121 17.915 21.0869 17.9784 21.0869" stroke="#191919"/>
<path d="M17.9785 21.5652C18.0419 21.5652 18.1028 21.54 18.1476 21.4952C18.1925 21.4503 18.2176 21.3895 18.2176 21.3261C18.2176 21.2627 18.1925 21.2018 18.1476 21.157C18.1028 21.1121 18.0419 21.0869 17.9785 21.0869" stroke="#191919"/>
<path d="M17.9784 18.6957C17.915 18.6957 17.8541 18.6705 17.8093 18.6256C17.7645 18.5808 17.7393 18.52 17.7393 18.4565C17.7393 18.3931 17.7645 18.3323 17.8093 18.2874C17.8541 18.2426 17.915 18.2174 17.9784 18.2174" stroke="#191919"/>
<path d="M17.9785 18.6956C18.0419 18.6956 18.1028 18.6704 18.1476 18.6256C18.1925 18.5808 18.2176 18.5199 18.2176 18.4565C18.2176 18.3931 18.1925 18.3323 18.1476 18.2874C18.1028 18.2426 18.0419 18.2174 17.9785 18.2174" stroke="#191919"/>
<path d="M17.9784 15.8261C17.915 15.8261 17.8541 15.8009 17.8093 15.7561C17.7645 15.7112 17.7393 15.6504 17.7393 15.587C17.7393 15.5235 17.7645 15.4627 17.8093 15.4179C17.8541 15.373 17.915 15.3478 17.9784 15.3478" stroke="#191919"/>
<path d="M17.9785 15.8261C18.0419 15.8261 18.1028 15.8009 18.1476 15.7561C18.1925 15.7112 18.2176 15.6504 18.2176 15.587C18.2176 15.5235 18.1925 15.4627 18.1476 15.4179C18.1028 15.373 18.0419 15.3478 17.9785 15.3478" stroke="#191919"/>
<path d="M15.1088 15.8261C15.0453 15.8261 14.9845 15.8009 14.9397 15.7561C14.8948 15.7112 14.8696 15.6504 14.8696 15.587C14.8696 15.5235 14.8948 15.4627 14.9397 15.4179C14.9845 15.373 15.0453 15.3478 15.1088 15.3478" stroke="#191919"/>
<path d="M15.1089 15.8261C15.1723 15.8261 15.2331 15.8009 15.278 15.7561C15.3228 15.7112 15.348 15.6504 15.348 15.587C15.348 15.5235 15.3228 15.4627 15.278 15.4179C15.2331 15.373 15.1723 15.3478 15.1089 15.3478" stroke="#191919"/>
<path d="M14.6302 18.6957C14.5668 18.6957 14.506 18.6705 14.4612 18.6256C14.4163 18.5808 14.3911 18.52 14.3911 18.4565C14.3911 18.3931 14.4163 18.3323 14.4612 18.2874C14.506 18.2426 14.5668 18.2174 14.6302 18.2174" stroke="#191919"/>
<path d="M14.6304 18.6956C14.6938 18.6956 14.7546 18.6704 14.7995 18.6256C14.8443 18.5808 14.8695 18.5199 14.8695 18.4565C14.8695 18.3931 14.8443 18.3323 14.7995 18.2874C14.7546 18.2426 14.6938 18.2174 14.6304 18.2174" stroke="#191919"/>
<path d="M14.1522 21.5298C14.0888 21.5298 14.028 21.5046 13.9831 21.4598C13.9383 21.4149 13.9131 21.3541 13.9131 21.2907C13.9131 21.2273 13.9383 21.1664 13.9831 21.1216C14.028 21.0767 14.0888 21.0515 14.1522 21.0515" stroke="#191919"/>
<path d="M14.1523 21.5298C14.2158 21.5298 14.2766 21.5046 14.3214 21.4598C14.3663 21.4149 14.3915 21.3541 14.3915 21.2907C14.3915 21.2273 14.3663 21.1664 14.3214 21.1216C14.2766 21.0767 14.2158 21.0515 14.1523 21.0515" stroke="#191919"/>
</svg>
