<svg width="24" height="24" viewBox="0 0 24 24" fill="none" xmlns="http://www.w3.org/2000/svg">
<g clip-path="url(#clip0_5303_8479)">
<path d="M1.47826 22.9151C1.35142 22.9151 1.22977 22.8647 1.14008 22.775C1.05039 22.6853 1 22.5637 1 22.4368V15.4915C1.00017 15.4694 1.00176 15.4474 1.00478 15.4255L2.31713 6.109C2.33327 5.9949 2.39005 5.89047 2.47704 5.81491C2.56403 5.73933 2.67538 5.69771 2.79061 5.69769H4.27704C4.3873 5.69767 4.49417 5.73574 4.57958 5.80546C4.66499 5.87519 4.72369 5.97228 4.74574 6.0803L6.35652 13.8415C6.37228 13.9178 6.4064 13.9889 6.45592 14.049C6.50544 14.109 6.56886 14.156 6.64067 14.186C6.71248 14.216 6.79052 14.228 6.86802 14.221C6.94552 14.2139 7.02014 14.1881 7.08539 14.1457L10.7823 11.7439C10.8546 11.697 10.9381 11.6706 11.0242 11.6672C11.1101 11.664 11.1955 11.6839 11.271 11.725C11.3467 11.7662 11.4098 11.827 11.4537 11.901C11.4977 11.9751 11.5209 12.0595 11.5208 12.1456V13.7086C11.5208 13.7921 11.5426 13.8741 11.5841 13.9465C11.6256 14.019 11.6854 14.0793 11.7575 14.1215C11.8295 14.1637 11.9114 14.1862 11.9948 14.1869C12.0783 14.1877 12.1606 14.1665 12.2334 14.1256L16.5645 11.6874C16.6373 11.6465 16.7196 11.6254 16.8031 11.6261C16.8865 11.6268 16.9684 11.6494 17.0404 11.6915C17.1125 11.7337 17.1723 11.7941 17.2138 11.8665C17.2553 11.9389 17.2771 12.021 17.2771 12.1045V13.722C17.277 13.8058 17.299 13.8883 17.3409 13.961C17.3828 14.0337 17.443 14.0941 17.5156 14.1361C17.5882 14.1782 17.6705 14.2004 17.7544 14.2006C17.8383 14.2008 17.9208 14.1789 17.9936 14.1371L22.2826 11.675C22.3553 11.6333 22.4377 11.6114 22.5215 11.6115C22.6052 11.6116 22.6876 11.6338 22.7601 11.6757C22.8327 11.7177 22.893 11.7779 22.9349 11.8505C22.9768 11.923 22.9989 12.0054 22.999 12.0892V22.4368C22.999 22.5637 22.9486 22.6853 22.859 22.775C22.7693 22.8647 22.6476 22.9151 22.5208 22.9151H1.47826Z" fill="#FFDDA1"/>
<path d="M14.8294 20.2693H3.3913C3.26446 20.2693 3.14281 20.2189 3.05313 20.1292C2.96343 20.0395 2.91304 19.9179 2.91304 19.791V12.8457C2.91162 12.8234 2.91162 12.801 2.91304 12.7788L3.9107 5.7005H2.79061C2.67538 5.70052 2.56403 5.74214 2.47704 5.8177C2.39005 5.89328 2.33327 5.99771 2.31713 6.1118L1.00478 15.4255C1.00176 15.4474 1.00017 15.4694 1 15.4915V22.4368C1 22.5636 1.05039 22.6853 1.14008 22.775C1.22977 22.8646 1.35142 22.915 1.47826 22.915H22.5217C22.6486 22.915 22.7702 22.8646 22.86 22.775C22.9496 22.6853 23 22.5636 23 22.4368V20.2693H14.8294Z" fill="#FFBC44"/>
<path d="M1.47826 22.9151C1.35142 22.9151 1.22977 22.8647 1.14008 22.775C1.05039 22.6853 1 22.5637 1 22.4368V15.4915C1.00017 15.4694 1.00176 15.4474 1.00478 15.4255L2.31713 6.109C2.33327 5.9949 2.39005 5.89047 2.47704 5.81491C2.56403 5.73933 2.67538 5.69771 2.79061 5.69769H4.27704C4.3873 5.69767 4.49417 5.73574 4.57958 5.80546C4.66499 5.87519 4.72369 5.97228 4.74574 6.0803L6.35652 13.8415C6.37228 13.9178 6.4064 13.9889 6.45592 14.049C6.50544 14.109 6.56886 14.156 6.64067 14.186C6.71248 14.216 6.79052 14.228 6.86802 14.221C6.94552 14.2139 7.02014 14.1881 7.08539 14.1457L10.7823 11.7439C10.8546 11.697 10.9381 11.6706 11.0242 11.6672C11.1101 11.664 11.1955 11.6839 11.271 11.725C11.3467 11.7662 11.4098 11.827 11.4537 11.901C11.4977 11.9751 11.5209 12.0595 11.5208 12.1456V13.7086C11.5208 13.7921 11.5426 13.8741 11.5841 13.9465C11.6256 14.019 11.6854 14.0793 11.7575 14.1215C11.8295 14.1637 11.9114 14.1862 11.9948 14.1869C12.0783 14.1877 12.1606 14.1665 12.2334 14.1256L16.5645 11.6874C16.6373 11.6465 16.7196 11.6254 16.8031 11.6261C16.8865 11.6268 16.9684 11.6494 17.0404 11.6915C17.1125 11.7337 17.1723 11.7941 17.2138 11.8665C17.2553 11.9389 17.2771 12.021 17.2771 12.1045V13.722C17.277 13.8058 17.299 13.8883 17.3409 13.961C17.3828 14.0337 17.443 14.0941 17.5156 14.1361C17.5882 14.1782 17.6705 14.2004 17.7544 14.2006C17.8383 14.2008 17.9208 14.1789 17.9936 14.1371L22.2826 11.675C22.3553 11.6333 22.4377 11.6114 22.5215 11.6115C22.6052 11.6116 22.6876 11.6338 22.7601 11.6757C22.8327 11.7177 22.893 11.7779 22.9349 11.8505C22.9768 11.923 22.9989 12.0054 22.999 12.0892V22.4368C22.999 22.5637 22.9486 22.6853 22.859 22.775C22.7693 22.8647 22.6476 22.9151 22.5208 22.9151H1.47826Z" stroke="#191919" stroke-linecap="round" stroke-linejoin="round"/>
<path d="M2.9126 3.30636C7.21695 -2.43277 11.5213 5.2194 15.8256 1.39332C10.5648 8.56723 6.73868 0.915053 2.9126 3.30636Z" fill="#B2B2B2" stroke="#191919" stroke-linecap="round" stroke-linejoin="round"/>
<path d="M7.69531 17.176H10.0866" stroke="#191919" stroke-linecap="round" stroke-linejoin="round"/>
<path d="M7.69531 20.0455H10.0866" stroke="#191919" stroke-linecap="round" stroke-linejoin="round"/>
<path d="M12.9561 17.176H15.3474" stroke="#191919" stroke-linecap="round" stroke-linejoin="round"/>
<path d="M12.9561 20.0455H15.3474" stroke="#191919" stroke-linecap="round" stroke-linejoin="round"/>
<path d="M18.2173 17.176H20.6086" stroke="#191919" stroke-linecap="round" stroke-linejoin="round"/>
<path d="M18.2173 20.0455H20.6086" stroke="#191919" stroke-linecap="round" stroke-linejoin="round"/>
</g>
<defs>
<clipPath id="clip0_5303_8479">
<rect width="24" height="24" fill="white"/>
</clipPath>
</defs>
</svg>
