<svg width="24" height="24" viewBox="0 0 24 24" fill="none" xmlns="http://www.w3.org/2000/svg">
<g clip-path="url(#clip0_5303_11129)">
<path d="M17.2608 16.7759C18.0786 16.7758 18.8749 16.5136 19.5329 16.0278C20.1908 15.5419 20.6758 14.858 20.9165 14.0764C21.1574 13.2948 21.1414 12.4566 20.871 11.6848C20.6005 10.9128 20.0899 10.248 19.4139 9.78755C19.6149 9.32338 19.6896 8.81433 19.6305 8.312C19.5713 7.80966 19.3804 7.33188 19.0772 6.92706C18.7739 6.52223 18.3691 6.20476 17.9037 6.00681C17.4381 5.80885 16.9287 5.73743 16.4267 5.79981C15.9955 4.69599 15.2042 3.77011 14.181 3.17216C13.1579 2.57421 11.9628 2.33923 10.7894 2.50527C9.61603 2.67131 8.53309 3.22866 7.71602 4.08701C6.89894 4.94538 6.39561 6.05446 6.28756 7.23459C5.06878 7.35675 3.94334 7.94188 3.14324 8.86933C2.34315 9.7968 1.92939 10.996 1.98728 12.2195C2.04518 13.4429 2.57031 14.5977 3.45441 15.4454C4.33851 16.2932 5.51418 16.7694 6.73904 16.7759H17.2608Z" fill="white"/>
<path d="M17.2609 12.9499H6.73915C5.81082 12.9495 4.90271 12.6786 4.12588 12.1703C3.34904 11.662 2.73713 10.9384 2.36498 10.088C2.09814 10.6879 1.95905 11.3368 1.95654 11.9933C1.95654 13.2618 2.46042 14.4782 3.35734 15.3751C4.25425 16.2721 5.47073 16.776 6.73915 16.776H17.2609C17.934 16.7775 18.5956 16.6009 19.1785 16.2643C19.7614 15.9277 20.245 15.4429 20.5801 14.8592C20.9153 14.2754 21.0901 13.6134 21.0869 12.9403C21.0837 12.2672 20.9026 11.6068 20.5618 11.0263C20.2298 11.6093 19.7498 12.0943 19.1701 12.432C18.5904 12.7698 17.9318 12.9484 17.2609 12.9499Z" fill="#E3E3E3"/>
<path d="M1 15.8195H18.2174" stroke="#191919" stroke-linecap="round" stroke-linejoin="round"/>
<path d="M3.86963 18.689H23.0001" stroke="#191919" stroke-linecap="round" stroke-linejoin="round"/>
<path d="M1 21.5585H18.2174" stroke="#191919" stroke-linecap="round" stroke-linejoin="round"/>
<path d="M20.9606 13.9064C21.1622 13.1443 21.1217 12.3385 20.8448 11.6004C20.5678 10.8624 20.0681 10.2288 19.4149 9.78755C19.6158 9.32338 19.6905 8.81433 19.6314 8.312C19.5722 7.80966 19.3814 7.33188 19.0782 6.92706C18.7749 6.52224 18.3701 6.20477 17.9045 6.00681C17.4391 5.80886 16.9296 5.73744 16.4277 5.79981C15.9984 4.69296 15.2072 3.76386 14.183 3.16355C13.1587 2.56323 11.9617 2.327 10.7861 2.49325C9.61063 2.6595 8.52591 3.21846 7.70833 4.07926C6.89073 4.94007 6.38834 6.0521 6.28279 7.23459C5.5305 7.3054 4.80577 7.55381 4.16821 7.95938C3.53066 8.36494 2.9985 8.91608 2.61553 9.56745C2.23254 10.2189 2.00968 10.9519 1.96528 11.7062C1.92087 12.4605 2.05619 13.2145 2.3601 13.9064" stroke="#191919" stroke-linecap="round" stroke-linejoin="round"/>
</g>
<defs>
<clipPath id="clip0_5303_11129">
<rect width="24" height="24" fill="white"/>
</clipPath>
</defs>
</svg>
