<svg width="24" height="24" viewBox="0 0 24 24" fill="none" xmlns="http://www.w3.org/2000/svg">
<path d="M18.5077 15.9916C19.3638 15.9914 20.1973 15.717 20.8859 15.2084C21.5746 14.6999 22.0822 13.9841 22.3342 13.166C22.5863 12.3478 22.5696 11.4705 22.2865 10.6626C22.0035 9.85466 21.469 9.1587 20.7614 8.67679C20.9718 8.19093 21.05 7.65811 20.9881 7.13231C20.9262 6.60651 20.7264 6.1064 20.409 5.68267C20.0916 5.25894 19.6678 4.92664 19.1806 4.71944C18.6934 4.51223 18.1601 4.43748 17.6347 4.50277C17.1833 3.34739 16.355 2.37826 15.2841 1.75237C14.2131 1.12649 12.9622 0.880529 11.734 1.05433C10.5058 1.22813 9.37231 1.81151 8.51707 2.70997C7.66183 3.60842 7.13499 4.76932 7.0219 6.00457C5.74619 6.13244 4.56816 6.7449 3.73069 7.71569C2.89322 8.68647 2.46014 9.94158 2.52074 11.2222C2.58134 12.5029 3.13099 13.7115 4.05639 14.5989C4.98179 15.4863 6.21238 15.9848 7.49447 15.9916H18.5077Z" fill="white"/>
<path d="M18.5075 12.4723H7.49425C6.47527 12.4708 5.48114 12.1576 4.64534 11.5747C3.80955 10.9918 3.17212 10.1671 2.81863 9.21143C2.5286 9.96869 2.42734 10.7852 2.52359 11.5903C2.61984 12.3955 2.91071 13.1651 3.37106 13.8327C3.83141 14.5002 4.4474 15.0457 5.16579 15.4218C5.88418 15.7979 6.68335 15.9935 7.49425 15.9916H18.5075C19.1887 15.9935 19.859 15.8211 20.4548 15.4909C21.0505 15.1607 21.5519 14.6836 21.9113 14.105C22.2707 13.5264 22.4762 12.8654 22.5081 12.185C22.54 11.5046 22.3974 10.8274 22.0938 10.2176C21.7679 10.8922 21.2587 11.4614 20.6245 11.8601C19.9903 12.2588 19.2567 12.471 18.5075 12.4723Z" fill="#E3E3E3"/>
<path d="M7.49463 20.9976C7.49463 21.3936 7.61207 21.7808 7.8321 22.1101C8.05212 22.4394 8.36486 22.696 8.73075 22.8476C9.09664 22.9991 9.49926 23.0388 9.88769 22.9615C10.2761 22.8843 10.6329 22.6935 10.913 22.4135C11.193 22.1335 11.3837 21.7767 11.461 21.3882C11.5382 20.9998 11.4986 20.5972 11.347 20.2313C11.1955 19.8654 10.9388 19.5527 10.6095 19.3326C10.2802 19.1126 9.89308 18.9952 9.49704 18.9952H7.49463V20.9976Z" fill="#E3E3E3"/>
<path d="M13.5019 16.9928C13.898 16.9928 14.2851 16.8753 14.6144 16.6553C14.9437 16.4353 15.2003 16.1225 15.3519 15.7566C15.5035 15.3908 15.5431 14.9881 15.4659 14.5997C15.3886 14.2113 15.1979 13.8545 14.9178 13.5744C14.6378 13.2944 14.281 13.1037 13.8926 13.0264C13.5041 12.9492 13.1015 12.9888 12.7356 13.1404C12.3697 13.2919 12.057 13.5486 11.837 13.8779C11.617 14.2072 11.4995 14.5943 11.4995 14.9904V16.9928H13.5019Z" fill="#E3E3E3"/>
<path d="M1.4873 16.9928H13.5018C13.8978 16.9928 14.2849 16.8753 14.6142 16.6553C14.9435 16.4353 15.2002 16.1225 15.3517 15.7566C15.5033 15.3908 15.543 14.9881 15.4657 14.5997C15.3884 14.2113 15.1977 13.8545 14.9177 13.5744C14.6376 13.2944 14.2808 13.1037 13.8924 13.0264C13.504 12.9492 13.1014 12.9888 12.7355 13.1404C12.3696 13.2919 12.0568 13.5486 11.8368 13.8779C11.6168 14.2072 11.4993 14.5943 11.4993 14.9904" stroke="#191919" stroke-linecap="round" stroke-linejoin="round"/>
<path d="M7.49453 20.9976C7.49453 21.3936 7.61197 21.7808 7.832 22.1101C8.05203 22.4394 8.36476 22.696 8.73065 22.8476C9.09654 22.9991 9.49917 23.0388 9.8876 22.9615C10.276 22.8843 10.6328 22.6935 10.9129 22.4135C11.1929 22.1335 11.3836 21.7767 11.4609 21.3882C11.5381 20.9998 11.4985 20.5972 11.3469 20.2313C11.1954 19.8654 10.9387 19.5527 10.6094 19.3326C10.2801 19.1126 9.89298 18.9952 9.49694 18.9952H1.4873" stroke="#191919" stroke-linecap="round" stroke-linejoin="round"/>
<path d="M17.5064 15.9916H18.5076C19.3637 15.9914 20.1972 15.717 20.8859 15.2084C21.5745 14.6999 22.0821 13.9841 22.3342 13.166C22.5862 12.3478 22.5695 11.4705 22.2864 10.6626C22.0034 9.85466 21.4689 9.1587 20.7613 8.67679C20.9717 8.19093 21.0499 7.65811 20.988 7.13231C20.9261 6.60651 20.7263 6.1064 20.4089 5.68267C20.0915 5.25894 19.6677 4.92664 19.1805 4.71944C18.6933 4.51223 18.16 4.43748 17.6346 4.50277C17.1832 3.34739 16.3549 2.37826 15.284 1.75237C14.213 1.12649 12.9621 0.880529 11.734 1.05433C10.5058 1.22813 9.37224 1.81151 8.517 2.70997C7.66176 3.60842 7.13492 4.76932 7.02182 6.00457C6.01453 6.09769 5.05932 6.49469 4.28276 7.14296C3.5062 7.79123 2.94496 8.66017 2.67342 9.63463C2.40187 10.6091 2.43284 11.643 2.76222 12.5995C3.0916 13.556 3.70384 14.3898 4.51781 14.9904" stroke="#191919" stroke-linecap="round" stroke-linejoin="round"/>
</svg>
