<svg width="24" height="24" viewBox="0 0 24 24" fill="none" xmlns="http://www.w3.org/2000/svg">
<path d="M13.4504 18.1501L11.0332 20.5672H13.4504L11.0332 22.9844" stroke="#191919" stroke-linecap="round" stroke-linejoin="round"/>
<path d="M6.19873 19.616C6.26284 19.616 6.32432 19.6414 6.36965 19.6868C6.41498 19.7321 6.44045 19.7936 6.44045 19.8577" stroke="#191919" stroke-linecap="round" stroke-linejoin="round"/>
<path d="M5.95703 19.8577C5.95703 19.7936 5.9825 19.7321 6.02783 19.6868C6.07316 19.6414 6.13464 19.616 6.19875 19.616" stroke="#191919" stroke-linecap="round" stroke-linejoin="round"/>
<path d="M6.19875 20.0994C6.13464 20.0994 6.07316 20.0739 6.02783 20.0286C5.9825 19.9833 5.95703 19.9218 5.95703 19.8577" stroke="#191919" stroke-linecap="round" stroke-linejoin="round"/>
<path d="M6.44045 19.8577C6.44045 19.9218 6.41498 19.9833 6.36965 20.0286C6.32432 20.0739 6.26284 20.0994 6.19873 20.0994" stroke="#191919" stroke-linecap="round" stroke-linejoin="round"/>
<path d="M8.13232 18.1656C8.19643 18.1656 8.25791 18.1912 8.30324 18.2365C8.34857 18.2819 8.37404 18.3433 8.37404 18.4074" stroke="#191919" stroke-linecap="round" stroke-linejoin="round"/>
<path d="M7.89062 18.4074C7.89063 18.3433 7.91609 18.2819 7.96142 18.2365C8.00675 18.1912 8.06824 18.1656 8.13235 18.1656" stroke="#191919" stroke-linecap="round" stroke-linejoin="round"/>
<path d="M8.13235 18.649C8.06824 18.649 8.00675 18.6235 7.96142 18.5782C7.91609 18.5329 7.89063 18.4714 7.89062 18.4073" stroke="#191919" stroke-linecap="round" stroke-linejoin="round"/>
<path d="M8.37404 18.4073C8.37404 18.4714 8.34857 18.5329 8.30324 18.5782C8.25791 18.6235 8.19643 18.649 8.13232 18.649" stroke="#191919" stroke-linecap="round" stroke-linejoin="round"/>
<path d="M8.13232 21.0663C8.19643 21.0663 8.25791 21.0917 8.30324 21.137C8.34857 21.1824 8.37404 21.2439 8.37404 21.308" stroke="#191919" stroke-linecap="round" stroke-linejoin="round"/>
<path d="M7.89062 21.308C7.89063 21.2439 7.91609 21.1824 7.96142 21.137C8.00675 21.0917 8.06824 21.0663 8.13235 21.0663" stroke="#191919" stroke-linecap="round" stroke-linejoin="round"/>
<path d="M8.13235 21.5497C8.06824 21.5497 8.00675 21.5242 7.96142 21.4789C7.91609 21.4336 7.89063 21.3721 7.89062 21.308" stroke="#191919" stroke-linecap="round" stroke-linejoin="round"/>
<path d="M8.37404 21.308C8.37404 21.3721 8.34857 21.4336 8.30324 21.4789C8.25791 21.5242 8.19643 21.5497 8.13232 21.5497" stroke="#191919" stroke-linecap="round" stroke-linejoin="round"/>
<path d="M6.19873 22.5166C6.26284 22.5166 6.32432 22.542 6.36965 22.5874C6.41498 22.6327 6.44045 22.6942 6.44045 22.7583" stroke="#191919" stroke-linecap="round" stroke-linejoin="round"/>
<path d="M5.95703 22.7583C5.95703 22.6942 5.9825 22.6327 6.02783 22.5874C6.07316 22.542 6.13464 22.5166 6.19875 22.5166" stroke="#191919" stroke-linecap="round" stroke-linejoin="round"/>
<path d="M6.19875 23C6.13464 23 6.07316 22.9745 6.02783 22.9292C5.9825 22.8839 5.95703 22.8224 5.95703 22.7583" stroke="#191919" stroke-linecap="round" stroke-linejoin="round"/>
<path d="M6.44045 22.7583C6.44045 22.8224 6.41498 22.8839 6.36965 22.9292C6.32432 22.9745 6.26284 23 6.19873 23" stroke="#191919" stroke-linecap="round" stroke-linejoin="round"/>
<path d="M15.8677 18.1656C15.8994 18.1656 15.9309 18.1719 15.9602 18.184C15.9895 18.1962 16.0162 18.2141 16.0386 18.2365C16.061 18.259 16.0788 18.2855 16.091 18.3149C16.1031 18.3442 16.1094 18.3756 16.1094 18.4074" stroke="#191919" stroke-linecap="round" stroke-linejoin="round"/>
<path d="M15.626 18.4074C15.626 18.3433 15.6514 18.2819 15.6968 18.2365C15.7421 18.1912 15.8036 18.1656 15.8677 18.1656" stroke="#191919" stroke-linecap="round" stroke-linejoin="round"/>
<path d="M15.8677 18.649C15.8036 18.649 15.7421 18.6235 15.6968 18.5782C15.6514 18.5329 15.626 18.4714 15.626 18.4073" stroke="#191919" stroke-linecap="round" stroke-linejoin="round"/>
<path d="M16.1094 18.4073C16.1094 18.4714 16.0839 18.5329 16.0386 18.5782C15.9933 18.6235 15.9318 18.649 15.8677 18.649" stroke="#191919" stroke-linecap="round" stroke-linejoin="round"/>
<path d="M15.8677 21.0663C15.8994 21.0663 15.9309 21.0725 15.9602 21.0847C15.9895 21.0968 16.0162 21.1146 16.0386 21.137C16.061 21.1595 16.0788 21.1861 16.091 21.2155C16.1031 21.2448 16.1094 21.2762 16.1094 21.308" stroke="#191919" stroke-linecap="round" stroke-linejoin="round"/>
<path d="M15.626 21.308C15.626 21.2439 15.6514 21.1824 15.6968 21.137C15.7421 21.0917 15.8036 21.0663 15.8677 21.0663" stroke="#191919" stroke-linecap="round" stroke-linejoin="round"/>
<path d="M15.8677 21.5497C15.8036 21.5497 15.7421 21.5242 15.6968 21.4789C15.6514 21.4336 15.626 21.3721 15.626 21.308" stroke="#191919" stroke-linecap="round" stroke-linejoin="round"/>
<path d="M16.1094 21.308C16.1094 21.3721 16.0839 21.4336 16.0386 21.4789C15.9933 21.5242 15.9318 21.5497 15.8677 21.5497" stroke="#191919" stroke-linecap="round" stroke-linejoin="round"/>
<path d="M17.8013 19.616C17.8654 19.616 17.9269 19.6414 17.9722 19.6868C18.0175 19.7321 18.043 19.7936 18.043 19.8577" stroke="#191919" stroke-linecap="round" stroke-linejoin="round"/>
<path d="M17.5596 19.8577C17.5596 19.7936 17.585 19.7321 17.6304 19.6868C17.6757 19.6414 17.7372 19.616 17.8013 19.616" stroke="#191919" stroke-linecap="round" stroke-linejoin="round"/>
<path d="M17.8013 20.0994C17.7372 20.0994 17.6757 20.0739 17.6304 20.0286C17.585 19.9833 17.5596 19.9218 17.5596 19.8577" stroke="#191919" stroke-linecap="round" stroke-linejoin="round"/>
<path d="M18.043 19.8577C18.043 19.9218 18.0175 19.9833 17.9722 20.0286C17.9269 20.0739 17.8654 20.0994 17.8013 20.0994" stroke="#191919" stroke-linecap="round" stroke-linejoin="round"/>
<path d="M17.8013 22.5166C17.8654 22.5166 17.9269 22.542 17.9722 22.5874C18.0175 22.6327 18.043 22.6942 18.043 22.7583" stroke="#191919" stroke-linecap="round" stroke-linejoin="round"/>
<path d="M17.5596 22.7583C17.5596 22.6942 17.585 22.6327 17.6304 22.5874C17.6757 22.542 17.7372 22.5166 17.8013 22.5166" stroke="#191919" stroke-linecap="round" stroke-linejoin="round"/>
<path d="M17.8013 23C17.7372 23 17.6757 22.9745 17.6304 22.9292C17.585 22.8839 17.5596 22.8224 17.5596 22.7583" stroke="#191919" stroke-linecap="round" stroke-linejoin="round"/>
<path d="M18.043 22.7583C18.043 22.8224 18.0175 22.8839 17.9722 22.9292C17.9269 22.9745 17.8654 23 17.8013 23" stroke="#191919" stroke-linecap="round" stroke-linejoin="round"/>
<path d="M19.973 8.43996C20.1753 7.97114 20.2502 7.45725 20.1902 6.9502C20.1302 6.44315 19.9374 5.96092 19.6314 5.55225C19.3253 5.14357 18.9168 4.82292 18.4471 4.62271C17.9774 4.42249 17.4632 4.34981 16.9564 4.412C16.5268 3.28904 15.7287 2.34517 14.6928 1.73485C13.6568 1.12453 12.4444 0.883917 11.254 1.05238C10.0635 1.22084 8.96544 1.78841 8.13953 2.66219C7.31363 3.53598 6.80878 4.66422 6.70759 5.8623C5.47796 5.99219 4.34452 6.58729 3.53941 7.52573C2.7343 8.46416 2.31845 9.67491 2.37703 10.91C2.4356 12.1451 2.96418 13.311 3.85449 14.1691C4.74481 15.0271 5.92949 15.5122 7.16589 15.5252H17.8014C18.6286 15.5204 19.4327 15.2517 20.0965 14.7581C20.7604 14.2646 21.2493 13.572 21.4921 12.7812C21.7348 11.9904 21.7188 11.1427 21.4462 10.3617C21.1737 9.58068 20.6589 8.90707 19.9769 8.439L19.973 8.43996Z" fill="#E3E3E3"/>
<path d="M17.8013 11.6644H7.16574C6.2264 11.6615 5.30827 11.385 4.52356 10.8687C3.73886 10.3523 3.12157 9.61857 2.74716 8.75708C2.42335 9.49163 2.28802 10.2954 2.35345 11.0955C2.41887 11.8956 2.68298 12.6667 3.12183 13.3389C3.56067 14.011 4.16036 14.5631 4.86653 14.9448C5.57269 15.3266 6.36298 15.5261 7.16574 15.5251H17.7935C18.4738 15.5237 19.1417 15.3431 19.73 15.0016C20.3184 14.6601 20.8064 14.1698 21.1451 13.5798C21.4838 12.9899 21.6612 12.3211 21.6594 11.6409C21.6576 10.9606 21.4768 10.2928 21.135 9.70461C20.8017 10.2964 20.3178 10.7895 19.7322 11.1337C19.1467 11.4779 18.4805 11.6611 17.8013 11.6644Z" fill="#B2B2B2"/>
<path d="M19.973 8.43996C20.1753 7.97114 20.2502 7.45725 20.1902 6.9502C20.1302 6.44315 19.9374 5.96092 19.6314 5.55225C19.3253 5.14357 18.9168 4.82292 18.4471 4.62271C17.9774 4.42249 17.4632 4.34981 16.9564 4.412C16.5268 3.28904 15.7287 2.34517 14.6928 1.73485C13.6568 1.12453 12.4444 0.883917 11.254 1.05238C10.0635 1.22084 8.96544 1.78841 8.13953 2.66219C7.31363 3.53598 6.80878 4.66422 6.70759 5.8623C5.47796 5.99219 4.34452 6.58729 3.53941 7.52573C2.7343 8.46416 2.31845 9.67491 2.37703 10.91C2.4356 12.1451 2.96418 13.311 3.85449 14.1691C4.74481 15.0271 5.92949 15.5122 7.16589 15.5252H17.8014C18.6286 15.5204 19.4327 15.2517 20.0965 14.7581C20.7604 14.2646 21.2493 13.572 21.4921 12.7812C21.7348 11.9904 21.7188 11.1427 21.4462 10.3617C21.1737 9.58068 20.6589 8.90707 19.9769 8.439L19.973 8.43996Z" stroke="#191919" stroke-linecap="round" stroke-linejoin="round"/>
</svg>
