<svg width="24" height="24" viewBox="0 0 24 24" fill="none" xmlns="http://www.w3.org/2000/svg">
<g clip-path="url(#clip0_5303_5828)">
<path d="M7.59124 17.0036C6.87218 17.6316 6.29601 18.4062 5.9015 19.2756C5.507 20.145 5.30333 21.0888 5.3042 22.0435C5.3042 22.2972 5.40498 22.5404 5.58437 22.7199C5.76374 22.8992 6.00704 23 6.26072 23H17.739C17.9926 23 18.236 22.8992 18.4153 22.7199C18.5947 22.5404 18.6955 22.2972 18.6955 22.0435C18.6963 21.0888 18.4927 20.145 18.0982 19.2756C17.7037 18.4062 17.1276 17.6316 16.4084 17.0036H7.59124Z" fill="#808080"/>
<path d="M11.9999 20.1305C14.0083 20.1335 15.9753 19.5591 17.6664 18.4757C17.3201 17.927 16.8965 17.4312 16.4085 17.0036H7.59132C7.10339 17.4312 6.67975 17.927 6.3335 18.4757C8.02456 19.5591 9.99152 20.1335 11.9999 20.1305Z" fill="#6B6B6B"/>
<path d="M7.59124 17.0036C6.87218 17.6316 6.29601 18.4062 5.9015 19.2756C5.507 20.145 5.30333 21.0888 5.3042 22.0435C5.3042 22.2972 5.40498 22.5404 5.58437 22.7199C5.76374 22.8992 6.00704 23 6.26072 23H17.739C17.9926 23 18.236 22.8992 18.4153 22.7199C18.5947 22.5404 18.6955 22.2972 18.6955 22.0435C18.6963 21.0888 18.4927 20.145 18.0982 19.2756C17.7037 18.4062 17.1276 17.6316 16.4084 17.0036" stroke="#191919" stroke-linecap="round" stroke-linejoin="round"/>
<path d="M11.9998 18.2174C16.7543 18.2174 20.6085 14.3632 20.6085 9.60868C20.6085 4.85424 16.7543 1 11.9998 1C7.24535 1 3.39111 4.85424 3.39111 9.60868C3.39111 14.3632 7.24535 18.2174 11.9998 18.2174Z" fill="#E3E3E3"/>
<path d="M11.9998 3.86927C14.0343 3.86907 16.0032 4.58947 17.5572 5.90269C19.1111 7.21591 20.1498 9.03708 20.4889 11.0432C20.6968 9.80905 20.6331 8.54445 20.3022 7.33748C19.9713 6.1305 19.3813 5.01018 18.5732 4.05457C17.765 3.09896 16.7583 2.33103 15.623 1.80431C14.4877 1.27757 13.2513 1.0047 11.9998 1.0047C10.7483 1.0047 9.51184 1.27757 8.37658 1.80431C7.24133 2.33103 6.23456 3.09896 5.42644 4.05457C4.61832 5.01018 4.02827 6.1305 3.69741 7.33748C3.36654 8.54445 3.30282 9.80905 3.51068 11.0432C3.84978 9.03708 4.88841 7.21591 6.4424 5.90269C7.99638 4.58947 9.96525 3.86907 11.9998 3.86927Z" fill="white"/>
<path d="M11.9998 18.2174C16.7543 18.2174 20.6085 14.3632 20.6085 9.60868C20.6085 4.85424 16.7543 1 11.9998 1C7.24535 1 3.39111 4.85424 3.39111 9.60868C3.39111 14.3632 7.24535 18.2174 11.9998 18.2174Z" stroke="#191919" stroke-linecap="round" stroke-linejoin="round"/>
<path d="M11.9997 3.86959C12.7514 3.87014 13.4924 3.69328 14.1627 3.35338C14.833 3.01347 15.4137 2.52014 15.8574 1.91351C14.6602 1.31281 13.3392 1 11.9997 1C10.6603 1 9.33931 1.31281 8.14209 1.91351C8.58578 2.52014 9.16641 3.01347 9.83674 3.35338C10.5071 3.69328 11.2482 3.87014 11.9997 3.86959Z" fill="#B2B2B2" stroke="#191919" stroke-linecap="round" stroke-linejoin="round"/>
<path d="M11.9999 13.4348C14.113 13.4348 15.826 11.7218 15.826 9.60873C15.826 7.49565 14.113 5.78265 11.9999 5.78265C9.88682 5.78265 8.17383 7.49565 8.17383 9.60873C8.17383 11.7218 9.88682 13.4348 11.9999 13.4348Z" fill="#808080" stroke="#191919" stroke-linecap="round" stroke-linejoin="round"/>
<path d="M11.9997 11.0434C12.7921 11.0434 13.4345 10.401 13.4345 9.60867C13.4345 8.81626 12.7921 8.17389 11.9997 8.17389C11.2073 8.17389 10.5649 8.81626 10.5649 9.60867C10.5649 10.401 11.2073 11.0434 11.9997 11.0434Z" fill="#66E1FF" stroke="#191919" stroke-linecap="round" stroke-linejoin="round"/>
</g>
<defs>
<clipPath id="clip0_5303_5828">
<rect width="24" height="24" fill="white"/>
</clipPath>
</defs>
</svg>
