<svg width="24" height="24" viewBox="0 0 24 24" fill="none" xmlns="http://www.w3.org/2000/svg">
<g clip-path="url(#clip0_5303_4275)">
<path d="M13.4348 7.21741V11.0435C13.4348 11.2972 13.5356 11.5405 13.7149 11.7199C13.8943 11.8992 14.1376 12 14.3913 12H22.5217C22.6486 12 22.7702 12.0504 22.8599 12.1401C22.9496 12.2298 23 12.3514 23 12.4783V19.6522C23 20.1596 22.7984 20.6462 22.4397 21.0049C22.0809 21.3637 21.5943 21.5652 21.087 21.5652H2.91304C2.66182 21.5652 2.41305 21.5158 2.18095 21.4196C1.94885 21.3235 1.73796 21.1826 1.56032 21.0049C1.20155 20.6462 1 20.1596 1 19.6522V7.21741H13.4348Z" fill="#66E1FF"/>
<path d="M2.91304 21.5652H4.82609L14.3913 12C14.1376 12 13.8943 11.8992 13.7149 11.7199C13.5356 11.5405 13.4348 11.2972 13.4348 11.0435V7.21741H1V19.6522C1 20.1596 1.20155 20.6462 1.56032 21.0049C1.91908 21.3637 2.40567 21.5652 2.91304 21.5652Z" fill="#C2F3FF"/>
<path d="M13.4348 7.21736H1V4.3478C1 3.84043 1.20155 3.35384 1.56032 2.99507C1.91908 2.63631 2.40567 2.43475 2.91304 2.43475H12.9565C13.0834 2.43475 13.205 2.48514 13.2947 2.57483C13.3844 2.66452 13.4348 2.78617 13.4348 2.91301V7.21736Z" fill="white"/>
<path d="M22.5217 12C22.6486 12 22.7702 12.0504 22.8599 12.1401C22.9496 12.2298 23 12.3514 23 12.4783V19.6522C23 20.1595 22.7984 20.6461 22.4397 21.0049C22.0809 21.3637 21.5943 21.5652 21.087 21.5652H2.91304C2.66182 21.5652 2.41305 21.5157 2.18095 21.4196C1.94885 21.3235 1.73796 21.1825 1.56032 21.0049C1.20155 20.6461 1 20.1595 1 19.6522V4.3478C1 3.84043 1.20155 3.35384 1.56032 2.99507C1.91908 2.63631 2.40567 2.43475 2.91304 2.43475H12.9565C13.0834 2.43475 13.205 2.48514 13.2947 2.57483C13.3844 2.66452 13.4348 2.78617 13.4348 2.91301V11.0435C13.4348 11.2972 13.5356 11.5405 13.7149 11.7198C13.8943 11.8992 14.1376 12 14.3913 12H22.5217Z" stroke="#191919" stroke-linecap="round" stroke-linejoin="round"/>
<path d="M1 7.21741H13.4348" stroke="#191919" stroke-linecap="round" stroke-linejoin="round"/>
<path d="M4.34753 5.06524C4.28411 5.06524 4.22328 5.04005 4.17844 4.9952C4.13359 4.95036 4.1084 4.88953 4.1084 4.82611C4.1084 4.76269 4.13359 4.70187 4.17844 4.65702C4.22328 4.61217 4.28411 4.58698 4.34753 4.58698" stroke="#191919"/>
<path d="M4.34766 5.06524C4.41108 5.06524 4.4719 5.04005 4.51675 4.9952C4.56159 4.95036 4.58679 4.88953 4.58679 4.82611C4.58679 4.76269 4.56159 4.70187 4.51675 4.65702C4.4719 4.61217 4.41108 4.58698 4.34766 4.58698" stroke="#191919"/>
<path d="M13.4346 8.17395H22.9998" stroke="#191919" stroke-linecap="round" stroke-linejoin="round"/>
<path d="M13.4346 4.34784H22.9998" stroke="#191919" stroke-linecap="round" stroke-linejoin="round"/>
<path d="M21.0869 2.43475V12" stroke="#191919" stroke-linecap="round" stroke-linejoin="round"/>
<path d="M17.2607 2.43475V12" stroke="#191919" stroke-linecap="round" stroke-linejoin="round"/>
<path d="M7.21716 5.06524C7.15374 5.06524 7.09291 5.04005 7.04807 4.9952C7.00322 4.95036 6.97803 4.88953 6.97803 4.82611C6.97803 4.76269 7.00322 4.70187 7.04807 4.65702C7.09291 4.61217 7.15374 4.58698 7.21716 4.58698" stroke="#191919"/>
<path d="M7.21729 5.06524C7.28071 5.06524 7.34153 5.04005 7.38638 4.9952C7.43122 4.95036 7.45642 4.88953 7.45642 4.82611C7.45642 4.76269 7.43122 4.70187 7.38638 4.65702C7.34153 4.61217 7.28071 4.58698 7.21729 4.58698" stroke="#191919"/>
<path d="M10.0868 5.06524C10.0234 5.06524 9.96254 5.04005 9.9177 4.9952C9.87285 4.95036 9.84766 4.88953 9.84766 4.82611C9.84766 4.76269 9.87285 4.70187 9.9177 4.65702C9.96254 4.61217 10.0234 4.58698 10.0868 4.58698" stroke="#191919"/>
<path d="M10.0864 5.06524C10.1498 5.06524 10.2107 5.04005 10.2555 4.9952C10.3004 4.95036 10.3256 4.88953 10.3256 4.82611C10.3256 4.76269 10.3004 4.70187 10.2555 4.65702C10.2107 4.61217 10.1498 4.58698 10.0864 4.58698" stroke="#191919"/>
</g>
<defs>
<clipPath id="clip0_5303_4275">
<rect width="24" height="24" fill="white"/>
</clipPath>
</defs>
</svg>
