<svg width="24" height="24" viewBox="0 0 24 24" fill="none" xmlns="http://www.w3.org/2000/svg">
<path d="M20.2651 19.2926V5.35666C20.2651 5.14381 20.2231 4.93305 20.1417 4.7364C20.0602 4.53975 19.9408 4.36108 19.7903 4.21057C19.6398 4.06006 19.4611 3.94067 19.2645 3.85922C19.0678 3.77776 18.8571 3.73584 18.6442 3.73584H5.35581C4.92594 3.73584 4.51368 3.9066 4.20971 4.21057C3.90575 4.51453 3.73499 4.92679 3.73499 5.35666V19.2926H20.2651Z" fill="#66E1FF"/>
<path d="M19.4289 3.93905C19.189 3.80543 18.9188 3.73548 18.6442 3.73584H5.35581C4.92594 3.73584 4.51368 3.90661 4.20971 4.21057C3.90575 4.51453 3.73499 4.9268 3.73499 5.35666V19.2926H4.07529L19.4289 3.93905Z" fill="#C2F3FF"/>
<path d="M20.2651 19.2926V5.35666C20.2651 5.14381 20.2231 4.93305 20.1417 4.7364C20.0602 4.53975 19.9408 4.36108 19.7903 4.21057C19.6398 4.06006 19.4611 3.94067 19.2645 3.85922C19.0678 3.77776 18.8571 3.73584 18.6442 3.73584H5.35581C4.92594 3.73584 4.51368 3.9066 4.20971 4.21057C3.90575 4.51453 3.73499 4.92679 3.73499 5.35666V19.2926" stroke="#191919" stroke-linecap="round" stroke-linejoin="round"/>
<path d="M15.4035 16.3755C15.4035 17.445 13.8799 18.3201 12.0005 18.3201C10.121 18.3201 8.59744 17.445 8.59744 16.3755H1.48604C1.40657 16.3755 1.32833 16.395 1.25814 16.4323C1.18796 16.4695 1.12798 16.5234 1.08346 16.5893C1.03894 16.6551 1.01124 16.7308 1.00277 16.8098C0.994299 16.8888 1.00533 16.9687 1.03489 17.0425C1.41663 17.994 2.07453 18.8094 2.92382 19.3837C3.77311 19.958 4.7749 20.2648 5.80013 20.2647H18.2008C19.2259 20.2646 20.2275 19.9577 21.0766 19.3834C21.9257 18.8092 22.5834 17.9938 22.9651 17.0425C22.9947 16.9687 23.0057 16.8888 22.9972 16.8098C22.9888 16.7308 22.9611 16.6551 22.9165 16.5893C22.872 16.5234 22.812 16.4695 22.7419 16.4323C22.6717 16.395 22.5934 16.3755 22.514 16.3755H15.4035Z" fill="white" stroke="#191919" stroke-linecap="round" stroke-linejoin="round"/>
<path d="M15.8896 8.028C14.7889 7.13762 13.4161 6.65186 12.0004 6.65186C10.5847 6.65186 9.21186 7.13762 8.11121 8.028" stroke="#191919" stroke-linecap="round" stroke-linejoin="round"/>
<path d="M9.73206 10.3719C10.3744 9.85291 11.1752 9.56982 12.0009 9.56982C12.8267 9.56982 13.6275 9.85291 14.2698 10.3719" stroke="#191919" stroke-linecap="round" stroke-linejoin="round"/>
<path d="M11.9995 12.9227C11.9676 12.9227 11.936 12.9164 11.9065 12.9042C11.877 12.892 11.8502 12.874 11.8277 12.8515C11.8051 12.8289 11.7872 12.8021 11.775 12.7726C11.7628 12.7431 11.7565 12.7115 11.7565 12.6796C11.7565 12.6477 11.7628 12.6161 11.775 12.5866C11.7872 12.5571 11.8051 12.5303 11.8277 12.5077C11.8502 12.4851 11.877 12.4672 11.9065 12.455C11.936 12.4428 11.9676 12.4365 11.9995 12.4365" stroke="#191919"/>
<path d="M11.9995 12.9227C12.0314 12.9227 12.063 12.9164 12.0925 12.9042C12.122 12.892 12.1488 12.874 12.1714 12.8515C12.194 12.8289 12.2119 12.8021 12.2241 12.7726C12.2363 12.7431 12.2426 12.7115 12.2426 12.6796C12.2426 12.6477 12.2363 12.6161 12.2241 12.5866C12.2119 12.5571 12.194 12.5303 12.1714 12.5077C12.1488 12.4851 12.122 12.4672 12.0925 12.455C12.063 12.4428 12.0314 12.4365 11.9995 12.4365" stroke="#191919"/>
</svg>
