<svg width="24" height="24" viewBox="0 0 24 24" fill="none" xmlns="http://www.w3.org/2000/svg">
<g clip-path="url(#clip0_5303_6598)">
<path d="M13.1718 11.0647C12.2085 10.1017 10.9022 9.56071 9.54004 9.56071C8.17792 9.56071 6.87156 10.1017 5.90823 11.0647L1.06677 4.51088C2.17947 3.3981 3.50046 2.5154 4.95431 1.91317C6.40816 1.31094 7.96639 1.00098 9.54004 1.00098C11.1137 1.00098 12.6719 1.31094 14.1258 1.91317C15.5796 2.5154 16.9006 3.3981 18.0133 4.51088L13.1718 11.0647Z" fill="#C2F3FF"/>
<path d="M3.48889 7.7932C4.28347 6.99809 5.22693 6.36734 6.26537 5.937C7.30381 5.50666 8.41687 5.28516 9.54095 5.28516C10.665 5.28516 11.7781 5.50666 12.8165 5.937C13.855 6.36734 14.7984 6.99809 15.593 7.7932" stroke="#191919" stroke-linecap="round" stroke-linejoin="round"/>
<path d="M18.0143 4.51038C16.9015 3.39746 15.5805 2.51464 14.1266 1.91233C12.6726 1.31001 11.1143 1 9.54052 1C7.96676 1 6.40841 1.31001 4.95448 1.91233C3.50054 2.51464 2.17949 3.39746 1.06677 4.51038" stroke="#191919" stroke-linecap="round" stroke-linejoin="round"/>
<path d="M5.90906 11.0645C6.87239 10.1015 8.17875 9.56055 9.54087 9.56055C10.903 9.56055 12.2093 10.1015 13.1727 11.0645" stroke="#191919" stroke-linecap="round" stroke-linejoin="round"/>
<path d="M15.593 7.7932C14.7984 6.99809 13.855 6.36734 12.8165 5.937C11.7781 5.50666 10.665 5.28516 9.54095 5.28516C8.41687 5.28516 7.30381 5.50666 6.26537 5.937C5.22693 6.36734 4.28347 6.99809 3.48889 7.7932" stroke="#191919" stroke-linecap="round" stroke-linejoin="round"/>
<path d="M13.1727 11.0645C12.2093 10.1015 10.903 9.56055 9.54087 9.56055C8.17875 9.56055 6.87239 10.1015 5.90906 11.0645" stroke="#191919" stroke-linecap="round" stroke-linejoin="round"/>
<path d="M11.2518 15.5507C11.2596 15.7802 11.2212 16.009 11.1388 16.2234C11.0563 16.4378 10.9316 16.6334 10.772 16.7986C10.6124 16.9638 10.4213 17.0952 10.2098 17.1849C9.99843 17.2747 9.77112 17.3211 9.54143 17.3212C9.31175 17.3213 9.08438 17.2752 8.87287 17.1857C8.66136 17.0961 8.47003 16.9649 8.31026 16.7999C8.15049 16.6349 8.02556 16.4394 7.94289 16.2252C7.86022 16.0109 7.8215 15.7821 7.82905 15.5526C7.84365 15.1086 8.03022 14.6876 8.34938 14.3786C8.66853 14.0696 9.09528 13.8967 9.53952 13.8965C9.98375 13.8962 10.4107 14.0686 10.7302 14.3773C11.0497 14.6859 11.2367 15.1067 11.2518 15.5507Z" fill="#FFEF5E" stroke="#191919" stroke-linecap="round" stroke-linejoin="round"/>
<path d="M17.9989 12.4797C17.9213 12.3345 17.8058 12.2131 17.6646 12.1284C17.5234 12.0437 17.3618 11.999 17.1972 11.999C17.0326 11.999 16.871 12.0437 16.7298 12.1284C16.5886 12.2131 16.4731 12.3345 16.3956 12.4797L11.5589 21.6968C11.4501 21.9024 11.4269 22.1426 11.4942 22.3653C11.5616 22.5879 11.7141 22.775 11.9186 22.8858C12.0544 22.9605 12.2056 23.0006 12.3605 22.9997H22.0301C22.1846 23 22.3367 22.9608 22.4718 22.8858C22.6069 22.8108 22.7206 22.7025 22.802 22.5711C22.8824 22.4405 22.9274 22.2912 22.9326 22.1379C22.9378 21.9846 22.903 21.8325 22.8317 21.6968L17.9989 12.4797Z" fill="#FFEF5E"/>
<path d="M17.1933 12.002C17.0288 12.0012 16.8672 12.0454 16.726 12.1296C16.5847 12.2139 16.4691 12.3352 16.3917 12.4803L11.555 21.6973C11.4462 21.9029 11.423 22.1432 11.4903 22.3658C11.5577 22.5885 11.7102 22.7755 11.9147 22.8864C12.0505 22.961 12.2017 23.0012 12.3566 23.0002H17.1933V12.002Z" fill="#FFF9BF"/>
<path d="M17.1934 18.22V15.3501" stroke="#191919" stroke-linecap="round" stroke-linejoin="round"/>
<path d="M17.9989 12.4797C17.9213 12.3345 17.8058 12.2131 17.6646 12.1284C17.5234 12.0437 17.3618 11.999 17.1972 11.999C17.0326 11.999 16.871 12.0437 16.7298 12.1284C16.5886 12.2131 16.4731 12.3345 16.3956 12.4797L11.5589 21.6968C11.4501 21.9024 11.4269 22.1426 11.4942 22.3653C11.5616 22.5879 11.7141 22.775 11.9186 22.8858C12.0544 22.9605 12.2056 23.0006 12.3605 22.9997H22.0301C22.1846 23 22.3367 22.9608 22.4718 22.8858C22.6069 22.8108 22.7206 22.7025 22.802 22.5711C22.8824 22.4405 22.9274 22.2912 22.9326 22.1379C22.9378 21.9846 22.903 21.8325 22.8317 21.6968L17.9989 12.4797Z" stroke="#191919" stroke-linecap="round" stroke-linejoin="round"/>
<path d="M17.1934 20.6111C17.13 20.6111 17.0691 20.5859 17.0243 20.5411C16.9794 20.4962 16.9542 20.4354 16.9542 20.372C16.9542 20.3085 16.9794 20.2477 17.0243 20.2029C17.0691 20.158 17.13 20.1328 17.1934 20.1328" stroke="#191919"/>
<path d="M17.1934 20.6111C17.2568 20.6111 17.3176 20.5859 17.3625 20.5411C17.4073 20.4962 17.4325 20.4354 17.4325 20.372C17.4325 20.3085 17.4073 20.2477 17.3625 20.2029C17.3176 20.158 17.2568 20.1328 17.1934 20.1328" stroke="#191919"/>
</g>
<defs>
<clipPath id="clip0_5303_6598">
<rect width="24" height="24" fill="white"/>
</clipPath>
</defs>
</svg>
