<svg width="24" height="24" viewBox="0 0 24 24" fill="none" xmlns="http://www.w3.org/2000/svg">
<g clip-path="url(#clip0_5303_6383)">
<path d="M7.43198 14.287C7.4714 14.344 7.52224 14.3922 7.5813 14.4286C7.64034 14.4649 7.7063 14.4885 7.77498 14.498C7.8438 14.507 7.91374 14.5018 7.98047 14.4827C8.04721 14.4636 8.10932 14.431 8.16298 14.387C8.84887 13.8155 9.65436 13.4055 10.52 13.187C11.4955 12.971 12.5065 12.971 13.482 13.187C14.5277 13.452 15.4822 13.9952 16.244 14.759L21.9 7.09998C21.4575 6.65624 20.9854 6.24296 20.487 5.86298C19.189 4.63649 17.6548 3.68719 15.978 3.07298C13.5616 2.35642 10.9964 2.30587 8.55362 2.92669C6.11082 3.54751 3.88108 4.81664 2.09998 6.59998L7.43198 14.287Z" fill="#C2F3FF"/>
<path d="M15.978 3.07491C13.5617 2.35809 10.9967 2.30723 8.55391 2.9277C6.11113 3.54816 3.88129 4.81691 2.09998 6.59991" stroke="#191919" stroke-linecap="round" stroke-linejoin="round"/>
<path d="M12.4881 7.51289C11.0943 7.44332 9.70127 7.6671 8.39936 8.16975C7.09744 8.67239 5.91552 9.44272 4.93005 10.4309" stroke="#191919" stroke-linecap="round" stroke-linejoin="round"/>
<path d="M12.0011 22.0005C13.1057 22.0005 14.0011 21.1051 14.0011 20.0005C14.0011 18.8959 13.1057 18.0005 12.0011 18.0005C10.8965 18.0005 10.0011 18.8959 10.0011 20.0005C10.0011 21.1051 10.8965 22.0005 12.0011 22.0005Z" fill="#FFEF5E" stroke="#191919" stroke-linecap="round" stroke-linejoin="round"/>
<path d="M21.8999 7.10028C21.4574 6.65653 20.9853 6.24325 20.4869 5.86328" stroke="#191919" stroke-linecap="round" stroke-linejoin="round"/>
<path d="M19.0721 10.4303C18.5334 9.89103 17.9352 9.41466 17.2891 9.01025" stroke="#191919" stroke-linecap="round" stroke-linejoin="round"/>
<path d="M16.2441 14.7575C15.4823 13.9937 14.5278 13.4505 13.4821 13.1855" stroke="#191919" stroke-linecap="round" stroke-linejoin="round"/>
<path d="M21.5011 1L2.5011 23" stroke="#191919" stroke-linecap="round" stroke-linejoin="round"/>
</g>
<defs>
<clipPath id="clip0_5303_6383">
<rect width="24" height="24" fill="white"/>
</clipPath>
</defs>
</svg>
