<svg width="24" height="24" viewBox="0 0 24 24" fill="none" xmlns="http://www.w3.org/2000/svg">
<g clip-path="url(#clip0_5303_7554)">
<path d="M22.0431 1H9.60837C9.35469 1 9.11139 1.10078 8.932 1.28016C8.75262 1.45954 8.65186 1.70283 8.65186 1.95652V13.4347C8.65186 13.6884 8.75262 13.9317 8.932 14.1111C9.11139 14.2905 9.35469 14.3913 9.60837 14.3913H22.0431C22.2968 14.3913 22.5401 14.2905 22.7195 14.1111C22.8989 13.9317 22.9996 13.6884 22.9996 13.4347V1.95652C22.9996 1.70283 22.8989 1.45954 22.7195 1.28016C22.5401 1.10078 22.2968 1 22.0431 1Z" fill="#78EB7B"/>
<path d="M22.0431 1H9.60837C9.35469 1 9.11139 1.10078 8.932 1.28016C8.75262 1.45954 8.65186 1.70283 8.65186 1.95652V13.4347C8.65352 13.6637 8.73821 13.8842 8.89021 14.0554C9.04221 14.2265 9.25117 14.3367 9.47828 14.3654L22.6266 1.21713C22.4624 1.08066 22.2566 1.0041 22.0431 1Z" fill="#C9F7CA"/>
<path d="M10.5657 19.1739V21.0869C10.5642 21.5938 10.3621 22.0795 10.0037 22.438C9.64525 22.7964 9.15954 22.9985 8.65264 23H2.91353C2.40662 22.9985 1.92091 22.7964 1.56248 22.438C1.20404 22.0795 1.002 21.5938 1.00049 21.0869V19.1739H10.5657Z" fill="white"/>
<path d="M10.5657 5.78261V19.1739H1.00049V5.78261C1.002 5.2757 1.20404 4.78999 1.56248 4.43156C1.92091 4.07312 2.40662 3.87108 2.91353 3.86957H8.65264C9.15954 3.87108 9.64525 4.07312 10.0037 4.43156C10.3621 4.78999 10.5642 5.2757 10.5657 5.78261Z" fill="#66E1FF"/>
<path d="M10.5657 7.71095V5.78261C10.5642 5.2757 10.3621 4.78999 10.0037 4.43156C9.64525 4.07312 9.15954 3.87108 8.65264 3.86957H2.91353C2.40662 3.87108 1.92091 4.07312 1.56248 4.43156C1.20404 4.78999 1.002 5.2757 1.00049 5.78261V17.2761L10.5657 7.71095Z" fill="#C2F3FF"/>
<path d="M8.65264 3.86957H2.91353C2.40616 3.86957 1.91957 4.07112 1.5608 4.42988C1.20204 4.78865 1.00049 5.27524 1.00049 5.78261V21.0869C1.00049 21.5943 1.20204 22.0809 1.5608 22.4396C1.91957 22.7984 2.40616 22.9999 2.91353 22.9999H8.65264C9.16001 22.9999 9.64659 22.7984 10.0054 22.4396C10.3641 22.0809 10.5657 21.5943 10.5657 21.0869V5.78261C10.5657 5.27524 10.3641 4.78865 10.0054 4.42988C9.64659 4.07112 9.16001 3.86957 8.65264 3.86957Z" stroke="#191919" stroke-linecap="round" stroke-linejoin="round"/>
<path d="M10.5657 19.1739H1.00049" stroke="#191919" stroke-linecap="round" stroke-linejoin="round"/>
<path d="M5.78259 21.3261C5.71917 21.3261 5.65834 21.3009 5.6135 21.2561C5.56865 21.2112 5.54346 21.1504 5.54346 21.087C5.54346 21.0235 5.56865 20.9627 5.6135 20.9179C5.65834 20.873 5.71917 20.8478 5.78259 20.8478" stroke="#191919"/>
<path d="M5.78271 21.3261C5.84614 21.3261 5.90696 21.3009 5.9518 21.2561C5.99665 21.2112 6.02184 21.1504 6.02184 21.087C6.02184 21.0235 5.99665 20.9627 5.9518 20.9179C5.90696 20.873 5.84614 20.8478 5.78271 20.8478" stroke="#191919"/>
<path d="M16.7826 10.5729C16.7192 10.5729 16.6583 10.5477 16.6135 10.5029C16.5687 10.458 16.5435 10.3972 16.5435 10.3338C16.5435 10.2704 16.5687 10.2096 16.6135 10.1647C16.6583 10.1199 16.7192 10.0947 16.7826 10.0947" stroke="#191919"/>
<path d="M16.7832 10.5729C16.8466 10.5729 16.9074 10.5477 16.9523 10.5029C16.9971 10.458 17.0223 10.3972 17.0223 10.3338C17.0223 10.2704 16.9971 10.2096 16.9523 10.1647C16.9074 10.1199 16.8466 10.0947 16.7832 10.0947" stroke="#191919"/>
<path d="M8.65186 1.95652C8.65186 1.70283 8.75262 1.45954 8.932 1.28016C9.11139 1.10078 9.35469 1 9.60837 1H22.0431C22.2968 1 22.5401 1.10078 22.7195 1.28016C22.8989 1.45954 22.9996 1.70283 22.9996 1.95652V13.4347C22.9996 13.6884 22.8989 13.9317 22.7195 14.1111C22.5401 14.2905 22.2968 14.3913 22.0431 14.3913H12.9562" stroke="#191919" stroke-linecap="round" stroke-linejoin="round"/>
<path d="M12.4785 23L18.2176 17.2609" stroke="#191919" stroke-linecap="round" stroke-linejoin="round"/>
<path d="M14.3911 17.2609H18.2172V21.0869" stroke="#191919" stroke-linecap="round" stroke-linejoin="round"/>
<path d="M20.6087 5.70134C19.5259 4.82541 18.1753 4.34753 16.7826 4.34753C15.3899 4.34753 14.0393 4.82541 12.9565 5.70134" stroke="#191919" stroke-linecap="round" stroke-linejoin="round"/>
<path d="M14.5518 8.00653C15.1834 7.4959 15.9711 7.21735 16.7833 7.21735C17.5956 7.21735 18.3832 7.4959 19.0149 8.00653" stroke="#191919" stroke-linecap="round" stroke-linejoin="round"/>
</g>
<defs>
<clipPath id="clip0_5303_7554">
<rect width="24" height="24" fill="white"/>
</clipPath>
</defs>
</svg>
