<svg width="24" height="24" viewBox="0 0 24 24" fill="none" xmlns="http://www.w3.org/2000/svg">
<path d="M12.0001 19.7341C16.9181 19.7341 20.9049 15.7473 20.9049 10.8292C20.9049 5.91124 16.9181 1.92438 12.0001 1.92438C7.08208 1.92438 3.09521 5.91124 3.09521 10.8292C3.09521 15.7473 7.08208 19.7341 12.0001 19.7341Z" fill="#C2F3FF"/>
<path d="M12 13.6395V21.6069" stroke="#191919" stroke-linecap="round" stroke-linejoin="round"/>
<path d="M19.1538 3.33044C20.1548 4.33144 20.9489 5.51981 21.4907 6.82762C22.0324 8.13552 22.3113 9.53729 22.3113 10.953C22.3113 12.3687 22.0324 13.7704 21.4907 15.0783C20.9489 16.3862 20.1548 17.5745 19.1538 18.5755" stroke="#191919" stroke-linecap="round" stroke-linejoin="round"/>
<path d="M16.4995 5.98035C17.1524 6.6332 17.6703 7.40815 18.0237 8.2612C18.3769 9.11406 18.5588 10.0283 18.5588 10.9516C18.5588 11.8749 18.3769 12.7891 18.0237 13.642C17.6703 14.4951 17.1524 15.27 16.4995 15.9228" stroke="#191919" stroke-linecap="round" stroke-linejoin="round"/>
<path d="M4.84593 3.33044C3.84493 4.33144 3.05083 5.51981 2.50908 6.82762C1.96733 8.13552 1.68848 9.53729 1.68848 10.953C1.68848 12.3687 1.96733 13.7704 2.50908 15.0783C3.05083 16.3862 3.84493 17.5745 4.84593 18.5755" stroke="#191919" stroke-linecap="round" stroke-linejoin="round"/>
<path d="M7.50061 5.98035C6.84776 6.6332 6.32993 7.40815 5.97656 8.2612C5.62318 9.11406 5.44141 10.0283 5.44141 10.9516C5.44141 11.8749 5.62327 12.7891 5.97656 13.642C6.32993 14.4951 6.84776 15.27 7.50061 15.9228" stroke="#191919" stroke-linecap="round" stroke-linejoin="round"/>
<path d="M12 13.6394C13.5532 13.6394 14.8121 12.3804 14.8121 10.8274C14.8121 9.27427 13.5532 8.01532 12 8.01532C10.4469 8.01532 9.18799 9.27427 9.18799 10.8274C9.18799 12.3804 10.4469 13.6394 12 13.6394Z" fill="#FFEF5E"/>
<path d="M9.18799 10.8293C9.18799 11.0307 9.20962 11.2315 9.25271 11.4282C9.72626 11.6854 10.2638 11.8011 10.8012 11.7615C11.3388 11.7219 11.8536 11.5286 12.2843 11.2049C12.7151 10.8811 13.0438 10.4401 13.2311 9.93487C13.4185 9.4296 13.4569 8.88107 13.3414 8.35463C12.9129 8.12207 12.4312 8.00492 11.9437 8.01473C11.4562 8.02445 10.9796 8.16085 10.5607 8.41045C10.1419 8.65997 9.79501 9.01417 9.55438 9.43822C9.31367 9.86227 9.18744 10.3417 9.18799 10.8293Z" fill="#FFF9BF"/>
<path d="M12 13.6394C13.5532 13.6394 14.8121 12.3804 14.8121 10.8274C14.8121 9.27427 13.5532 8.01532 12 8.01532C10.4469 8.01532 9.18799 9.27427 9.18799 10.8274C9.18799 12.3804 10.4469 13.6394 12 13.6394Z" stroke="#191919" stroke-linecap="round" stroke-linejoin="round"/>
</svg>
