<svg width="24" height="24" viewBox="0 0 24 24" fill="none" xmlns="http://www.w3.org/2000/svg">
<path d="M12.0001 20.6726C16.788 20.6726 20.6692 16.7913 20.6692 12.0035C20.6692 7.21565 16.788 3.33435 12.0001 3.33435C7.21236 3.33435 3.33105 7.21565 3.33105 12.0035C3.33105 16.7913 7.21236 20.6726 12.0001 20.6726Z" fill="#C2F3FF"/>
<path d="M7.43701 22.4958H16.5624L11.9997 13.3705L7.43701 22.4958Z" stroke="#191919" stroke-linecap="round" stroke-linejoin="round"/>
<path d="M19.5805 19.2554C21.0023 17.7701 21.9565 15.9 22.3247 13.8771C22.6928 11.8543 22.4585 9.76787 21.6511 7.87697C20.8436 5.98609 19.4984 4.37407 17.7827 3.24111C16.0669 2.10813 14.0562 1.50415 12.0001 1.50415C9.94397 1.50415 7.93319 2.10813 6.21742 3.24111C4.50166 4.37407 3.1565 5.98609 2.34902 7.87697C1.54154 9.76787 1.30731 11.8543 1.67542 13.8771C2.04353 15.9 2.99775 17.7701 4.4196 19.2554" stroke="#191919" stroke-linecap="round" stroke-linejoin="round"/>
<path d="M6.44061 15.983C5.70628 14.9604 5.26824 13.755 5.17469 12.4996C5.08113 11.2441 5.33569 9.98713 5.91037 8.86697C6.48503 7.74681 7.35755 6.80686 8.4319 6.15055C9.50626 5.49423 10.7408 5.14697 11.9998 5.14697C13.2588 5.14697 14.4934 5.49423 15.5677 6.15055C16.642 6.80686 17.5145 7.74681 18.0893 8.86697C18.6639 9.98713 18.9185 11.2441 18.8249 12.4996C18.7314 13.755 18.2933 14.9604 17.559 15.983" stroke="#191919" stroke-linecap="round" stroke-linejoin="round"/>
<path d="M8.81345 12.1413C8.81345 12.0939 8.80615 12.0501 8.80615 12.0017C8.80615 11.5823 8.88876 11.167 9.04927 10.7795C9.20978 10.3919 9.44504 10.0398 9.74162 9.74327C10.0382 9.44669 10.3903 9.21143 10.7778 9.05092C11.1653 8.89041 11.5806 8.8078 12 8.8078C12.4194 8.8078 12.8348 8.89041 13.2222 9.05092C13.6098 9.21143 13.9619 9.44669 14.2584 9.74327C14.5551 10.0398 14.7903 10.3919 14.9508 10.7795C15.1113 11.167 15.1939 11.5823 15.1939 12.0017C15.1939 12.0482 15.1884 12.093 15.1867 12.1413" stroke="#191919" stroke-linecap="round" stroke-linejoin="round"/>
<path d="M12 13.3704V11.5453" stroke="#191919" stroke-linecap="round" stroke-linejoin="round"/>
<path d="M7.45557 22.4958L13.9556 17.2816" stroke="#191919" stroke-linecap="round" stroke-linejoin="round"/>
<path d="M16.5627 22.4958L10.0444 17.2816" stroke="#191919" stroke-linecap="round" stroke-linejoin="round"/>
</svg>
