<svg width="24" height="24" viewBox="0 0 24 24" fill="none" xmlns="http://www.w3.org/2000/svg">
<g clip-path="url(#clip0_5303_11038)">
<path d="M13.9131 19.1739C18.9317 19.1739 23.0001 15.1055 23.0001 10.087C23.0001 5.06836 18.9317 1 13.9131 1C8.89453 1 4.82617 5.06836 4.82617 10.087C4.82617 15.1055 8.89453 19.1739 13.9131 19.1739Z" fill="#C2F3FF"/>
<path d="M13.9131 14.9251C11.874 14.9232 9.89478 14.2356 8.29378 12.9727C6.69278 11.7098 5.56307 9.94514 5.08634 7.96252C4.7592 9.30011 4.74032 10.6946 5.03113 12.0405C5.32195 13.3865 5.91485 14.6487 6.76504 15.7319C7.61523 16.8151 8.70048 17.6909 9.93881 18.2931C11.1771 18.8955 12.5361 19.2083 13.9131 19.2083C15.2901 19.2083 16.6492 18.8955 17.8875 18.2931C19.1258 17.6909 20.2111 16.8151 21.0612 15.7319C21.9114 14.6487 22.5043 13.3865 22.7951 12.0405C23.086 10.6946 23.067 9.30011 22.7399 7.96252C22.2632 9.94514 21.1334 11.7098 19.5325 12.9727C17.9315 14.2356 15.9522 14.9232 13.9131 14.9251Z" fill="#66E1FF"/>
<path d="M6.18413 14.8695C5.20272 13.283 4.73345 11.4328 4.84004 9.57019C4.94664 7.70763 5.62394 5.92301 6.77995 4.45873C7.93596 2.99445 9.51465 1.92145 11.3016 1.3855C13.0886 0.849539 14.9972 0.876584 16.7682 1.46296C18.5393 2.04934 20.087 3.16663 21.201 4.66308C22.3151 6.15953 22.9415 7.96262 22.9954 9.82745C23.0491 11.6923 22.5276 13.5285 21.5017 15.0867C20.4757 16.6449 18.995 17.8494 17.2606 18.5369" stroke="#191919" stroke-linecap="round" stroke-linejoin="round"/>
<path d="M17.9566 10.5357C18.0483 10.5018 18.1274 10.4406 18.1833 10.3604C18.2391 10.2802 18.2691 10.1848 18.2691 10.0871C18.2691 9.98928 18.2391 9.89389 18.1833 9.81368C18.1274 9.73347 18.0483 9.67231 17.9566 9.63842L11.1299 7.12181C11.0422 7.08964 10.947 7.08383 10.8561 7.10511C10.7652 7.1264 10.6824 7.17384 10.6181 7.24158C10.5539 7.30932 10.5108 7.3944 10.4944 7.48633C10.4778 7.57826 10.4886 7.67299 10.5254 7.75886L11.5221 10.0871L10.5254 12.4133C10.4886 12.4992 10.4778 12.5939 10.4944 12.6858C10.5108 12.7778 10.5539 12.8629 10.6181 12.9306C10.6824 12.9983 10.7652 13.0458 10.8561 13.0671C10.947 13.0883 11.0422 13.0825 11.1299 13.0504L17.9566 10.5357Z" fill="white" stroke="#191919" stroke-linecap="round" stroke-linejoin="round"/>
<path d="M1 18.2173H9.60869C11.5217 18.2173 11.5217 15.826 9.60869 15.826" stroke="#191919" stroke-linecap="round" stroke-linejoin="round"/>
<path d="M1 20.1304H13.4348C15.8261 20.1304 15.8261 23 13.4348 23" stroke="#191919" stroke-linecap="round" stroke-linejoin="round"/>
</g>
<defs>
<clipPath id="clip0_5303_11038">
<rect width="24" height="24" fill="white"/>
</clipPath>
</defs>
</svg>
