<svg width="24" height="24" viewBox="0 0 24 24" fill="none" xmlns="http://www.w3.org/2000/svg">
<path d="M16.6469 5.60082V11.6748L11.8643 13.5878V3.70691L16.6469 5.60082Z" fill="#FF808C"/>
<path d="M11.8646 3.70699V13.5878L8.39247 14.9748C8.24729 15.0326 8.09015 15.054 7.9348 15.037C7.77945 15.02 7.63062 14.9653 7.50132 14.8775C7.37203 14.7898 7.26621 14.6717 7.19311 14.5335C7.12002 14.3954 7.08188 14.2415 7.08203 14.0852V3.21917C7.08413 3.06371 7.12372 2.91105 7.19743 2.77416C7.27114 2.63729 7.37679 2.52021 7.50543 2.43289C7.63406 2.34557 7.78187 2.29058 7.9363 2.2726C8.09072 2.25462 8.24721 2.27417 8.39247 2.3296L11.8646 3.70699Z" fill="#FFEF5E"/>
<path d="M22.6539 8.62356C22.6541 8.81513 22.5967 9.00234 22.4893 9.16095C22.3819 9.31955 22.2293 9.44225 22.0513 9.51313L16.647 11.6749V5.60095L22.0418 7.73399C22.2208 7.80436 22.3748 7.92664 22.4839 8.08514C22.593 8.24366 22.6522 8.43116 22.6539 8.62356Z" fill="#FFEF5E"/>
<path d="M1.3457 23V1" stroke="#191919" stroke-linecap="round" stroke-linejoin="round"/>
<path d="M7.08448 3.85999L1.375 7.29964" stroke="#191919" stroke-linecap="round" stroke-linejoin="round"/>
<path d="M7.08448 12.9794L1.375 10.5555" stroke="#191919" stroke-linecap="round" stroke-linejoin="round"/>
<path d="M22.0418 7.73399L16.647 5.60095V8.63791H22.652V8.62356C22.6504 8.43138 22.5915 8.24404 22.4828 8.08555C22.374 7.92707 22.2205 7.80465 22.0418 7.73399Z" fill="#FFF9BF"/>
<path d="M11.8643 8.63778H16.6469V5.60082L11.8643 3.70691V8.63778Z" fill="#FFBFC5"/>
<path d="M7.5029 2.43482C7.37402 2.52123 7.26827 2.63791 7.1949 2.77463C7.12153 2.91137 7.08278 3.06399 7.08203 3.21916V8.63786H11.8646V3.70699L8.39247 2.3296C8.24686 2.27319 8.08967 2.2533 7.93461 2.27163C7.77955 2.28998 7.63132 2.346 7.5029 2.43482Z" fill="#FFF9BF"/>
<path d="M16.6469 5.60082V11.6748L11.8643 13.5878V3.70691L16.6469 5.60082Z" stroke="#191919" stroke-linecap="round" stroke-linejoin="round"/>
<path d="M11.8646 3.70699V13.5878L8.39247 14.9748C8.24729 15.0326 8.09015 15.054 7.9348 15.037C7.77945 15.02 7.63062 14.9653 7.50132 14.8775C7.37203 14.7898 7.26621 14.6717 7.19311 14.5335C7.12002 14.3954 7.08188 14.2415 7.08203 14.0852V3.21917C7.08413 3.06371 7.12372 2.91105 7.19743 2.77416C7.27114 2.63729 7.37679 2.52021 7.50543 2.43289C7.63406 2.34557 7.78187 2.29058 7.9363 2.2726C8.09072 2.25462 8.24721 2.27417 8.39247 2.3296L11.8646 3.70699Z" stroke="#191919" stroke-linecap="round" stroke-linejoin="round"/>
<path d="M22.6539 8.62356C22.6541 8.81513 22.5967 9.00234 22.4893 9.16095C22.3819 9.31955 22.2293 9.44225 22.0513 9.51313L16.647 11.6749V5.60095L22.0418 7.73399C22.2208 7.80436 22.3748 7.92664 22.4839 8.08514C22.593 8.24366 22.6522 8.43116 22.6539 8.62356Z" stroke="#191919" stroke-linecap="round" stroke-linejoin="round"/>
</svg>
