<svg width="24" height="24" viewBox="0 0 24 24" fill="none" xmlns="http://www.w3.org/2000/svg">
<path d="M19.9945 14.6017C19.9226 15.5865 19.7981 16.5668 19.6214 17.5383C18.7127 18.9635 15.5945 20.1304 11.998 20.1304C8.40146 20.1304 5.27364 18.9635 4.37451 17.5383C4.19788 16.5668 4.07336 15.5865 4.00146 14.6017C4.76668 16.1226 8.05711 17.2609 11.998 17.2609C15.9388 17.2609 19.2293 16.113 19.9945 14.6017Z" fill="white"/>
<path d="M19.6214 17.5383C19.4971 18.2461 19.3441 18.9539 19.1719 19.6522C19.1719 19.6522 18.2154 23 11.998 23C5.7806 23 4.82408 19.6522 4.82408 19.6522C4.6519 18.9539 4.49886 18.2461 4.37451 17.5383C5.27364 18.9635 8.40146 20.1304 11.998 20.1304C15.5945 20.1304 18.7127 18.9635 19.6214 17.5383Z" fill="#E3BFB3"/>
<path d="M20.0799 10.6226C19.2956 12.1434 15.9286 13.4347 11.9973 13.4347C8.04692 13.4347 4.6704 12.1339 3.92432 10.613C3.95779 9.62395 4.04388 8.63683 4.18258 7.65735C4.97649 9.13995 8.30518 10.5652 11.9973 10.5652C15.6895 10.5652 19.0192 9.13039 19.8121 7.65735C19.946 8.64256 20.0417 9.63735 20.0799 10.6226Z" fill="white"/>
<path d="M4.18311 7.65746C4.33519 6.54311 4.5485 5.43833 4.82397 4.3479H19.1718C19.447 5.43827 19.6609 6.54318 19.8126 7.65746C19.0187 9.1305 15.6996 10.5653 11.9979 10.5653C8.29613 10.5653 4.97702 9.14006 4.18311 7.65746Z" fill="#E3BFB3"/>
<path d="M19.994 14.6017C19.2288 16.113 15.9384 17.2609 11.9975 17.2609C8.05665 17.2609 4.76718 16.1226 4.00196 14.6017C3.88556 13.2755 3.86 11.9428 3.92544 10.613C4.67153 12.1339 8.04804 13.4348 11.9985 13.4348C15.9298 13.4348 19.2967 12.1435 20.0811 10.6226C20.1385 11.9493 20.1098 13.2789 19.994 14.6017Z" fill="#E3BFB3"/>
<path d="M19.9942 14.6017C19.9223 15.5865 19.7977 16.5668 19.6211 17.5383C18.7124 18.9635 15.5942 20.1304 11.9976 20.1304H11.9785V17.2609H11.9976C15.9385 17.2609 19.2289 16.113 19.9942 14.6017Z" fill="#E3E3E3"/>
<path d="M19.6211 17.5383C19.4968 18.2461 19.3437 18.9539 19.1715 19.6522C19.1715 19.6522 18.215 23 11.9976 23H11.9785V20.1304H11.9976C15.5942 20.1304 18.7124 18.9635 19.6211 17.5383Z" fill="#C77F67"/>
<path d="M20.0802 10.6226C19.2959 12.1434 15.9289 13.4347 11.9976 13.4347H11.9785V10.5652H11.9976C15.6994 10.5652 19.0185 9.13039 19.8124 7.65735C19.9463 8.64256 20.042 9.63735 20.0802 10.6226Z" fill="#E3E3E3"/>
<path d="M19.8124 7.65746C19.0185 9.1305 15.6994 10.5653 11.9976 10.5653H11.9785V4.3479H19.1715C19.4467 5.43827 19.6607 6.54318 19.8124 7.65746Z" fill="#C77F67"/>
<path d="M19.9942 14.6017C19.2289 16.113 15.9385 17.2608 11.9976 17.2608H11.9785V13.4347H11.9976C15.9289 13.4347 19.2959 12.1434 20.0802 10.6226C20.1376 11.9493 20.1089 13.2788 19.9942 14.6017Z" fill="#C77F67"/>
<path d="M19.9945 14.6017C19.9226 15.5865 19.7981 16.5668 19.6214 17.5383C18.7127 18.9635 15.5945 20.1304 11.998 20.1304C8.40146 20.1304 5.27364 18.9635 4.37451 17.5383C4.19788 16.5668 4.07336 15.5865 4.00146 14.6017C4.76668 16.1226 8.05711 17.2609 11.998 17.2609C15.9388 17.2609 19.2293 16.113 19.9945 14.6017Z" stroke="#191919" stroke-linecap="round" stroke-linejoin="round"/>
<path d="M19.6214 17.5383C19.4971 18.2461 19.3441 18.9539 19.1719 19.6522C19.1719 19.6522 18.2154 23 11.998 23C5.7806 23 4.82408 19.6522 4.82408 19.6522C4.6519 18.9539 4.49886 18.2461 4.37451 17.5383C5.27364 18.9635 8.40146 20.1304 11.998 20.1304C15.5945 20.1304 18.7127 18.9635 19.6214 17.5383Z" stroke="#191919" stroke-linecap="round" stroke-linejoin="round"/>
<path d="M20.0799 10.6226C19.2956 12.1434 15.9286 13.4347 11.9973 13.4347C8.04692 13.4347 4.6704 12.1339 3.92432 10.613C3.95779 9.62395 4.04388 8.63683 4.18258 7.65735C4.97649 9.13995 8.30518 10.5652 11.9973 10.5652C15.6895 10.5652 19.0192 9.13039 19.8121 7.65735C19.946 8.64256 20.0417 9.63735 20.0799 10.6226Z" stroke="#191919" stroke-linecap="round" stroke-linejoin="round"/>
<path d="M4.18311 7.65746C4.33519 6.54311 4.5485 5.43833 4.82397 4.3479H19.1718C19.447 5.43827 19.6609 6.54318 19.8126 7.65746C19.0187 9.1305 15.6996 10.5653 11.9979 10.5653C8.29614 10.5653 4.97702 9.14006 4.18311 7.65746Z" stroke="#191919" stroke-linecap="round" stroke-linejoin="round"/>
<path d="M19.994 14.6017C19.2288 16.113 15.9384 17.2609 11.9975 17.2609C8.05665 17.2609 4.76718 16.1226 4.00196 14.6017C3.88556 13.2755 3.86 11.9428 3.92544 10.613C4.67153 12.1339 8.04804 13.4348 11.9985 13.4348C15.9298 13.4348 19.2967 12.1435 20.0811 10.6226C20.1385 11.9493 20.1098 13.2789 19.994 14.6017Z" stroke="#191919" stroke-linecap="round" stroke-linejoin="round"/>
<path d="M11.9981 7.69564C15.96 7.69564 19.172 6.19677 19.172 4.34782C19.172 2.49887 15.9591 1 11.9981 1C8.03717 1 4.82422 2.49887 4.82422 4.34782C4.82422 6.19677 8.03621 7.69564 11.9981 7.69564Z" fill="#E3BFB3"/>
<path d="M11.9981 3.0393C15.1986 3.0393 17.9065 4.01782 18.8305 5.36747C19.0467 5.07095 19.1653 4.71512 19.172 4.34782C19.172 2.49887 15.96 1 11.9981 1C8.03621 1 4.82422 2.49887 4.82422 4.34782C4.83091 4.71417 4.95048 5.06999 5.1657 5.36747C6.09065 4.01782 8.79856 3.0393 11.9981 3.0393Z" fill="#C77F67"/>
<path d="M11.9981 7.69564C15.96 7.69564 19.172 6.19677 19.172 4.34782C19.172 2.49887 15.9591 1 11.9981 1C8.03717 1 4.82422 2.49887 4.82422 4.34782C4.82422 6.19677 8.03621 7.69564 11.9981 7.69564Z" stroke="#191919" stroke-linecap="round" stroke-linejoin="round"/>
<path d="M19.6498 17.5C19.6402 17.5096 19.6307 17.5287 19.6211 17.5383" stroke="#191919" stroke-linecap="round" stroke-linejoin="round"/>
<path d="M4.37489 17.5383C4.36532 17.5287 4.35576 17.5096 4.34619 17.5" stroke="#191919" stroke-linecap="round" stroke-linejoin="round"/>
<path d="M9.12863 5.3044C9.92158 5.3044 10.5634 4.87683 10.5634 4.34788C10.5634 3.81892 9.92158 3.39136 9.12863 3.39136C8.33567 3.39136 7.69385 3.81988 7.69385 4.34788C7.69385 4.87588 8.33663 5.3044 9.12863 5.3044Z" fill="#C77F67" stroke="#191919" stroke-linecap="round" stroke-linejoin="round"/>
</svg>
