<svg width="800" height="800" viewBox="0 0 64 64" xmlns="http://www.w3.org/2000/svg"><defs><style>.cls-1{fill:#e0e9ee;}.cls-2{fill:#94d8e5;}.cls-3{fill:#f0f4f7;}.cls-4{fill:#748a95;}.cls-5{fill:#d0e1e8;}.cls-6{fill:#7bd1e0;}</style></defs><g id="Truck"><path class="cls-1" d="M54.71 37.39A7.58 7.58.0 0048.41 34H39.59l-2.21 7.17 2.21 9.86H54.4A1.59 1.59.0 0056 49.48V45.17l-3-4.49z" id="rect99398-3"/><path class="cls-2" d="M39.59 31.1h10a3.29 3.29.0 000-6.58H11.29A3.29 3.29.0 0010.43 31v18.2a1.89 1.89.0 001.89 1.89H28.89z" id="path573239"/><path class="cls-3" d="M39.59 31.1H28.89v20h10.7z" id="path113632-7"/><path class="cls-4" d="M35.91 51.07V37a1.26 1.26.0 00-1.26-1.26H28.89V51.07z" id="rect103478-9"/><path class="cls-1" d="M24.57 36a1.25 1.25.0 011.26 1.26v6.05a1.25 1.25.0 01-1.26 1.26H15a1.25 1.25.0 01-1.26-1.26V37.3A1.25 1.25.0 0115 36h9.6z" id="rect108301-6"/><path class="cls-3" d="M16.24 22.32a2.19 2.19.0 00-2.2 2.2v6.74a1.77 1.77.0 003.53.0V29a1.47 1.47.0 012.93-.1v8.52a1.47 1.47.0 002.93.0V26.71h1.8a2.2 2.2.0 100-4.39z" id="rect109296-1"/><path class="cls-3" d="M34.76 22.32h4a2.2 2.2.0 110 4.4h-4a2.2 2.2.0 110-4.4z" id="path109401-7"/><path class="cls-4" d="M25 51.07a2.88 2.88.0 11-2.88-2.88A2.88 2.88.0 0125 51.07z" id="path81032-4-4"/><path class="cls-4" d="M19.25 51.07a2.89 2.89.0 11-2.88-2.88 2.88 2.88.0 012.88 2.88z" id="path81137-9-7"/><path class="cls-4" d="M50.52 51.07a2.88 2.88.0 11-2.88-2.88 2.88 2.88.0 012.88 2.88z" id="path81221-2-6"/><path class="cls-5" d="M46.77 34a7.57 7.57.0 017.59 7.59v7.85a1.59 1.59.0 01-1.59 1.59H54.4A1.59 1.59.0 0056 49.48V41.63A7.57 7.57.0 0048.41 34z" id="path592391"/><path class="cls-3" d="M49.91 37.39a2.1 2.1.0 00-2.1 2.1v3.58a2.1 2.1.0 002.1 2.1H56V41.63a7.53 7.53.0 00-1.29-4.24z" id="rect108663-2"/><path class="cls-1" d="M53.08 37.39a7.6 7.6.0 011.28 4.24v3.54H56V41.63a7.53 7.53.0 00-1.29-4.24z" id="path592393"/><path class="cls-6" d="M43.64 24.52a3.29 3.29.0 110 6.58h5.92a3.29 3.29.0 000-6.58z" id="path598691"/><path class="cls-6" d="M28.89 51.07H27a.79.79.0 01-.8-.8V31.9a.79.79.0 01.8-.8h1.86z" id="rect602553"/><path d="M52.73 19.14l-.3-.18a1 1 0 00-1.37.37 1 1 0 00.37 1.36l.3.18a1 1 0 00.5.13 1 1 0 00.5-1.86z"/><path d="M48.19 16.52l-.3-.18a1 1 0 10-1 1.73l.3.18a1 1 0 001.37-.37A1 1 0 0048.19 16.52z"/><path d="M47.19 19l-.3.18a1 1 0 001 1.73l.3-.18a1 1 0 00.37-1.36A1 1 0 0047.19 19z"/><path d="M53.1 16.71a1 1 0 00-1.37-.37l-.3.18a1 1 0 00.5 1.86 1 1 0 00.5-.13l.3-.18A1 1 0 0053.1 16.71z"/><path d="M49.81 20.05h0a1 1 0 00-1 1v.35a1 1 0 001 1h0a1 1 0 001-1v-.36A1 1 0 0049.81 20.05z"/><path d="M50.81 15.8a1 1 0 00-1-1h0a1 1 0 00-1 1v.35a1 1 0 001 1h0a1 1 0 001-1z"/><path d="M21.6 13.38l-.31-.18a1 1 0 10-1 1.73l.3.18A1 1 0 0022 14.74 1 1 0 0021.6 13.38z"/><path d="M17.06 10.75l-.3-.17a1 1 0 00-1 1.73l.31.17a.93.93.0 00.5.14 1 1 0 00.5-1.87z"/><path d="M16.06 13.2l-.31.18a1 1 0 00.51 1.86 1 1 0 00.5-.13l.3-.18a1 1 0 00-1-1.73z"/><path d="M22 10.94a1 1 0 00-1.37-.36l-.3.17a1 1 0 00.5 1.87 1 1 0 00.49-.13l.31-.18A1 1 0 0022 10.94z"/><path d="M18.68 16.64a1 1 0 001-1v-.35a1 1 0 00-2 0v.35a1 1 0 001 1z"/><path d="M19.68 10a1 1 0 00-2 0v.36a1 1 0 002 0z"/><circle cx="40.35" cy="12.68" r="1.25"/><circle cx="29.59" cy="19.57" r="1.25"/><path d="M9.43 31.67V49.18a2.89 2.89.0 002.89 2.89h.31a3.85 3.85.0 006.62 1.58 3.84 3.84.0 006.61-1.58h18a3.86 3.86.0 007.47.0h3A2.6 2.6.0 0057 49.48V41.63A8.6 8.6.0 0048.41 33H40.59V32.1h9a4.29 4.29.0 000-8.58H41.83a3.21 3.21.0 00-3-2.2h-4a3.19 3.19.0 00-3 2.2H28.25a3.19 3.19.0 00-3-2.2h-9a3.19 3.19.0 00-3 2.2H11.29a4.29 4.29.0 00-1.86 8.15zM16.37 53a1.89 1.89.0 111.88-1.89A1.89 1.89.0 0116.37 53zm5.76.0A1.89 1.89.0 1124 51.07 1.89 1.89.0 0122.13 53zm7.76-16.23h4.76a.26.26.0 01.26.26V50.07h-5zm7 13.34V37a2.26 2.26.0 00-2.26-2.26H29.89V32.1h8.7v18zM47.64 53a1.89 1.89.0 111.88-1.89A1.89 1.89.0 0147.64 53zm6.5-14.57A6.51 6.51.0 0155 41.63v2.54H49.91a1.1 1.1.0 01-1.1-1.1V39.49a1.1 1.1.0 011.1-1.1zM40.59 35h7.82a6.57 6.57.0 014 1.35H49.91a3.1 3.1.0 00-3.1 3.1v3.58a3.1 3.1.0 003.1 3.1H55v3.31a.59.59.0 01-.6.59h-3a3.86 3.86.0 00-7.47.0H40.59zM34.76 23.32h4a1.2 1.2.0 110 2.39h-4a1.2 1.2.0 110-2.39zm-18.52.0h9a1.2 1.2.0 110 2.39h-1.8a1 1 0 00-1 1v10.7a.46.46.0 01-.47.46.45.45.0 01-.46-.46V28.83a2.46 2.46.0 00-4.92.16v2.27a.76.76.0 01-.76.76.77.77.0 01-.77-.76V24.52a1.2 1.2.0 011.18-1.2zM22 39.87a2.47 2.47.0 002.47-2.46V37h.14a.25.25.0 01.26.26v6.05a.26.26.0 01-.26.26H15a.26.26.0 01-.26-.26V37.3A.25.25.0 0115 37h4.5v.37a2.46 2.46.0 002.5 2.5zM11.29 25.52H13v5.74a2.77 2.77.0 005.53.0V29a.47.47.0 01.93-.1V35H15a2.26 2.26.0 00-2.26 2.26v6.05A2.26 2.26.0 0015 45.61h9.6a2.26 2.26.0 002.26-2.26V37.3A2.26 2.26.0 0024.57 35h-.14V27.71h.8a3.18 3.18.0 003-2.19h3.49a3.18 3.18.0 003 2.19h4a3.2 3.2.0 003-2.19h7.73a2.29 2.29.0 010 4.58H28.89a1 1 0 00-1 1v19h-2a3.84 3.84.0 00-6.61-1.57 3.85 3.85.0 00-6.62 1.57h-.31a.89.89.0 01-.89-.89V31a1 1 0 00-.74-1 2.29 2.29.0 01.6-4.5z"/><path d="M33.21 41.56a1 1 0 00-1 1v2a1 1 0 002 0v-2a1 1 0 00-1-1z"/></g></svg>