<svg width="800" height="800" viewBox="0 0 64 64" xmlns="http://www.w3.org/2000/svg"><defs><style>.cls-1{fill:#f0f4f7;}.cls-2{fill:#617880;}.cls-3{fill:#748a95;}.cls-4{fill:#e0e9ee;}.cls-5{fill:#efc89d;}.cls-6{fill:#e5936b;}.cls-7{fill:#ebb87f;}.cls-8{fill:#e17c46;}</style></defs><g data-name="Decorative Sign Post" id="Decorative_Sign_Post"><path class="cls-1" d="M31.82 47.54v7a1.52 1.52.0 003 0v-7z" id="path33714-9"/><path class="cls-1" d="M23.59 47.54v4.12a1.52 1.52.0 003 0V47.54z" id="path33797-5"/><path class="cls-2" d="M54.21 15.55a1.8 1.8.0 000-3.59H11.62L10.5 13.61l1.12 1.94z" id="path31574-2"/><path class="cls-3" d="M9.81 8A1.81 1.81.0 008 9.81V54.19a1.81 1.81.0 103.62.0V9.81A1.81 1.81.0 009.81 8z" id="rect139956-7-7"/><path class="cls-3" d="M22.24 22V12a1.53 1.53.0 013.05.0V22z" id="rect128260-3-5"/><path class="cls-3" d="M47.23 22V12a1.53 1.53.0 013.05.0V22z" id="path128536-6-6"/><path class="cls-4" d="M19.73 23.92V22a1.94 1.94.0 011.94-2h4.19a1.94 1.94.0 011.94 2v1.94l-4 1z" id="rect127849-0-7"/><path class="cls-4" d="M44.72 23.92V22a1.94 1.94.0 011.94-2h4.19a1.94 1.94.0 011.94 2v1.94l-4 1z" id="path128214-9-6"/><path class="cls-5" d="M27.8 23.92H19.73a3.2 3.2.0 00-3.21 3.21V41.77a2.71 2.71.0 002.71 2.71 2.15 2.15.0 012 2.35 2.72 2.72.0 002.72 2.71H48.59a2.71 2.71.0 002.71-2.71 2.16 2.16.0 012-2.35A2.71 2.71.0 0056 41.77V27.13a3.21 3.21.0 00-3.21-3.21H45.88l-1.77 1.76-1.78-1.76H38.46l-5.33 1.76z" id="path32936-2"/><path class="cls-6" d="M43.83 45.15h3.41a6.55 6.55.0 014.37-4.68V28.31H20.91V40.47a6.59 6.59.0 014.37 4.68H43.83z" id="path32924-4"/><path class="cls-1" d="M45.88 23.92v7.66a1.78 1.78.0 11-3.55.0V23.92z" id="rect128584-0-9"/><path class="cls-1" d="M27.8 23.92v13a1.78 1.78.0 103.55.0V32.39a1.78 1.78.0 113.56.0 1.78 1.78.0 003.55.0V23.92z" id="path128784-6-3"/><path class="cls-1" d="M40.8 45.15v5.16a1.52 1.52.0 003 0V43.44a1.69 1.69.0 00-1.69-1.68H37a1.68 1.68.0 00-1.68 1.68v1.71z" id="rect130840-2-7"/><path class="cls-7" d="M49.11 23.92a3.21 3.21.0 013.21 3.21V41.77a2.71 2.71.0 01-2.71 2.71 2.16 2.16.0 00-2 2.35 2.71 2.71.0 01-2.71 2.71h3.68a2.71 2.71.0 002.71-2.71 2.16 2.16.0 012-2.35A2.71 2.71.0 0056 41.77V27.13a3.21 3.21.0 00-3.21-3.21z" id="path324687"/><path class="cls-8" d="M48.56 28.31V40.47a6.58 6.58.0 00-4.38 4.68h3.06a6.55 6.55.0 014.37-4.68V28.31z" id="path326858"/><path d="M54.21 16.55a2.8 2.8.0 000-5.59H51.07a2.52 2.52.0 00-4.63.0H26.08a2.52 2.52.0 00-4.63.0H12.62V9.81A2.81 2.81.0 107 9.81V54.19a2.81 2.81.0 005.62.0V16.55h8.62v2.53A2.93 2.93.0 0018.73 22v1.07a4.2 4.2.0 00-3.21 4.08V41.77a3.72 3.72.0 003.71 3.71c.48.0 1 .5 1 1.35a3.7 3.7.0 002.37 3.45v1.38a2.52 2.52.0 005 0V50.54h3.2v4a2.52 2.52.0 005 0v-4h4a2.5 2.5.0 005 0h3.79a3.72 3.72.0 003.71-3.71c0-.85.5-1.35 1-1.35A3.72 3.72.0 0057 41.77V27.13a4.2 4.2.0 00-3.21-4.08V22a2.93 2.93.0 00-2.51-2.9V16.55zM55 13.76a.79.79.0 01-.79.79H51.28V13H54.2A.8.8.0 0155 13.76zm-6.25-2.32a.52.52.0 01.53.52h0v3.59h0V19H48.23V12A.52.52.0 0148.75 11.44zM42.14 40.76H37a2.68 2.68.0 00-2.68 2.68v.71H26a7.51 7.51.0 00-4.1-4.38V29.31h4.9v7.57a2.78 2.78.0 105.55.0V32.39a.78.78.0 011.56.0 2.78 2.78.0 005.55.0V29.31h1.87v2.27a2.78 2.78.0 105.55.0V29.31h3.73V39.77a7.56 7.56.0 00-4.11 4.38H44.83v-.71A2.69 2.69.0 0042.14 40.76zm-.81-15.84v2.39H39.46V24.92zm-12.53.0h8.66v7.47a.78.78.0 01-1.55.0 2.78 2.78.0 10-5.56.0v4.49a.78.78.0 01-.77.78.77.77.0 01-.78-.78zm16.08 6.66a.78.78.0 11-1.55.0V28.31h0V24.92h1.55zM43.72 22v.94H28.8V22a2.94 2.94.0 00-2.51-2.9V16.55H46.23v2.53A2.93 2.93.0 0043.72 22zm2.51-7.43H26.29V13H46.23zM23.76 11.44a.52.52.0 01.53.52V19H23.24V15.56h0V12h0A.52.52.0 0123.76 11.44zM10.62 54.19a.81.81.0 01-1.62.0V9.81a.81.81.0 011.62.0zm2-39.64V13h8.62v1.59zM21.67 21h4.19a.93.93.0 01.94.95v.94H20.73V22A1 1 0 0121.67 21zM19.23 43.48a1.72 1.72.0 01-1.71-1.71V27.13a2.21 2.21.0 012.21-2.21H26.8v2.39H20.91a1 1 0 00-1 1V40.47a1 1 0 00.71 1 5.55 5.55.0 013.69 4 1 1 0 001 .74H39.8v2.39H23.93a1.71 1.71.0 01-1.71-1.71 3.14 3.14.0 00-2.99-3.41zm6.39 8.18a.52.52.0 01-1 0V50.54h1zm8.23 2.83a.51.51.0 01-.51.51.51.51.0 01-.52-.51v-4h1zm8.46-3.67a.5.5.0 01-.51-.51V45.15a1 1 0 00-1-1H36.35v-.71a.67.67.0 01.68-.68h5.11a.68.68.0 01.69.68v6.87A.51.51.0 0142.31 50.82zM55 27.13V41.77a1.72 1.72.0 01-1.71 1.71 3.14 3.14.0 00-3 3.35 1.72 1.72.0 01-1.71 1.71H44.83V46.15h2.41a1 1 0 001-.74 5.56 5.56.0 013.7-4 1 1 0 00.71-1V28.31a1 1 0 00-1-1H46.88V24.92h5.91A2.21 2.21.0 0155 27.13zM51.79 22v.94H45.72V22a1 1 0 01.94-.95h4.19A1 1 0 0151.79 22z"/></g></svg>