<svg width="800" height="800" viewBox="0 0 64 64" xmlns="http://www.w3.org/2000/svg"><defs><style>.cls-1{fill:#f0f4f7;}.cls-2{fill:#617880;}.cls-3{fill:#748a95;}.cls-4{fill:#f6e782;}.cls-5{fill:#e5936b;}.cls-6{fill:#e17c46;}.cls-7{fill:#f5d96d;}</style></defs><g data-name="Traffic Light" id="Traffic_Light"><path class="cls-1" d="M47.48 34.2V49.43a1.44 1.44.0 01-2.87.0V46.11a1.44 1.44.0 10-2.87.0 1.44 1.44.0 01-2.87.0V42.93l.5-8.84z" id="path128784-6-0-2-4-7-1-5-4-0"/><path class="cls-1" d="M22 34.2V45.39a1.74 1.74.0 01-3.47.0V34.2z" id="rect264301-8"/><path class="cls-2" d="M22 18.26H15a7 7 0 017-7H42.22a7 7 0 017 7H22z" id="path259253-6"/><path class="cls-2" d="M22 34.2H15a7 7 0 017-7H42.22a7 7 0 017 7H22z" id="path259247-4"/><path class="cls-3" d="M33.69 47.37v6.94A1.69 1.69.0 0132 56h0a1.69 1.69.0 01-1.69-1.69V47.37l2.14-1z" id="path258664-0"/><path class="cls-2" d="M27.91 42.93v2.22a2.21 2.21.0 002.22 2.22h3.74a2.21 2.21.0 002.22-2.22V42.93l-3.84-1.35z" id="rect258178-2"/><path class="cls-3" d="M29.51 8H24.24A2.22 2.22.0 0022 10.23V40.7a2.23 2.23.0 002.23 2.23H40a2.23 2.23.0 002.24-2.23V10.23A2.23 2.23.0 0040 8H33.51l-2 1.21z" id="rect257816-9"/><path class="cls-4" d="M26.42 18.26a5.69 5.69.0 0011.38.0l-3.31-2.54z" id="path258769-6"/><path class="cls-2" d="M33.14 18.26h6a7 7 0 00-5.63-6.9l-4 .36a7 7 0 00-4.43 6.54h8.06z" id="path262173-8"/><path class="cls-1" d="M33.51 8v9.09a2 2 0 11-4 0V8z" id="rect261925-4"/><path class="cls-5" d="M26.42 34.2a5.69 5.69.0 0011.38.0l-6-1.85z" id="path259096-2"/><path class="cls-2" d="M32.11 27.17a7 7 0 00-7 7H39.15a7 7 0 00-7.04-7z" id="path259098-6"/><path class="cls-2" d="M37 8a2.22 2.22.0 012.23 2.23V40.7A2.23 2.23.0 0137 42.93h3a2.23 2.23.0 002.24-2.23V10.23A2.23 2.23.0 0040 8z" id="path339017"/><path class="cls-6" d="M35.2 34.21a5.68 5.68.0 01-4.39 5.53 5.57 5.57.0 001.3.15 5.68 5.68.0 005.69-5.68z" id="path342243"/><path class="cls-7" d="M35.2 18.26a5.68 5.68.0 01-4.39 5.53 5.57 5.57.0 001.3.15 5.68 5.68.0 005.69-5.68z" id="path342233"/><path d="M15.65 52l.31.17a.93.93.0 00.5.14 1 1 0 00.5-1.87l-.31-.17a1 1 0 00-1.36.36A1 1 0 0015.65 52z"/><path d="M11.42 49.52a1 1 0 001-1.73l-.31-.18a1 1 0 00-1.36.37 1 1 0 00.36 1.36z"/><path d="M10.74 51.78a1 1 0 00.87.5.93.93.0 00.5-.14l.31-.17a1 1 0 00.36-1.37 1 1 0 00-1.36-.36l-.31.17A1 1 0 0010.74 51.78z"/><path d="M16.15 49.66a1 1 0 00.5-.14l.31-.18A1 1 0 0017.32 48 1 1 0 0016 47.61l-.31.18a1 1 0 00.5 1.87z"/><path d="M14 53.68h0a1 1 0 001-1v-.35a1 1 0 00-1-1h0a1 1 0 00-1 1v.35a1 1 0 001 1z"/><path d="M13 47.08v.36a1 1 0 001 1h0a1 1 0 001-1v-.35a1 1 0 00-1-1h0A1 1 0 0013 47.08z"/><circle cx="14.91" cy="23.32" r="1.25"/><path d="M40 7H24.24A3.23 3.23.0 0021 10.23v.06a8 8 0 00-7 8 1 1 0 001 1h6v7a8 8 0 00-7 8 1 1 0 00.3.7 1 1 0 00.7.3h2.57v10.1a2.74 2.74.0 005.47.0V43.68a3.14 3.14.0 001.23.25h2.67v1.22a3.22 3.22.0 002.4 3.1v6.06a2.69 2.69.0 105.38.0V48.25a3.22 3.22.0 002.4-3.1V43.93h.78v2.18a2.44 2.44.0 004.87.0.44.44.0 11.87.0v3.32a2.44 2.44.0 004.87.0V35.21h.77a1 1 0 00.71-.3 1 1 0 00.29-.7 8 8 0 00-7-8v-7h6A1 1 0 0050 19a1 1 0 00.29-.7 8 8 0 00-7-8v-.06A3.24 3.24.0 0040 7zM26.16 17.26a6 6 0 012.35-3.85c0 1.34.0 3.3.0 3.85zm3.28 2a3 3 0 004.15.0h3.1a4.68 4.68.0 01-9.15.0zm5.06-2c0-.51.0-2.92.0-4.52a6 6 0 013.55 4.52zm-2-.17a1 1 0 11-2 0V9h2zm-16.45.17a6 6 0 015-5v5zm5 11v4.95h-5A6 6 0 0121 28.26zm0 17.13a.74.74.0 01-1.47.0V35.21H21zm2-4.69V34.21h0V18.26h0v-8A1.23 1.23.0 0124.24 9h4.27v2.1a8 8 0 00-4.43 7.16 1 1 0 00.29.7 1 1 0 00.71.3h.43a6.68 6.68.0 0013.21.0h.43a1 1 0 001-1 8.07 8.07.0 00-5.64-7.67V9H40a1.24 1.24.0 011.24 1.23v8h0V34.2h0v6.5A1.24 1.24.0 0140 41.93H24.24A1.24 1.24.0 0123 40.7zM32 55a.68.68.0 01-.69-.69V48.37h1.38v5.94A.68.68.0 0132 55zm3.09-9.85a1.22 1.22.0 01-1.22 1.22H30.13a1.22 1.22.0 01-1.22-1.22V43.93h6.18zm11.39 4.28a.44.44.0 01-.87.0V46.11a2.44 2.44.0 10-4.87.0.44.44.0 01-.87.0V43.93H40a3.24 3.24.0 003.24-3.23V35.21h3.26zm1.69-16.22h-5V28.26a6.06 6.06.0 015 4.95zm0-15.95h-5v-5a6.06 6.06.0 015 5z"/><path d="M32.11 40.89a6.7 6.7.0 006.61-5.68h.43a1 1 0 00.7-.3 1 1 0 00.3-.7 8.05 8.05.0 00-8-8h0a8 8 0 00-8 8 1 1 0 00.29.7 1 1 0 00.71.3h.43a6.69 6.69.0 006.53 5.68zm0-12.72a6 6 0 016 5H26.16a6 6 0 015.95-5zm4.58 7a4.68 4.68.0 01-9.15.0z"/><circle cx="23.79" cy="51.42" r="1.25"/><path d="M51.58 26.15l.31.17a1 1 0 00.5.14 1 1 0 00.5-1.87l-.31-.18a1 1 0 00-1 1.74z"/><path d="M47.35 23.7a1 1 0 001.36-.36A1 1 0 0048.35 22L48 21.79a1 1 0 00-1 1.73z"/><path d="M46.67 26a1 1 0 001.37.36l.31-.17a1 1 0 00.36-1.37 1 1 0 00-1.36-.36l-.31.17A1 1 0 0046.67 26z"/><path d="M52.08 23.83a1 1 0 00.5-.13l.31-.18a1 1 0 00.36-1.36 1 1 0 00-1.36-.37l-.31.18a1 1 0 00-.36 1.36A1 1 0 0052.08 23.83z"/><path d="M51 26.86V26.5a1 1 0 00-2 0v.36a1 1 0 002 0z"/><path d="M50 20.26a1 1 0 00-1 1v.35a1 1 0 002 0v-.35a1 1 0 00-1-1z"/></g></svg>