<svg width="800" height="800" viewBox="0 0 64 64" id="Shovel" xmlns="http://www.w3.org/2000/svg"><defs><style>.cls-1{fill:#e0e9ee;}.cls-2{fill:#d0e1e8;}.cls-3{fill:#f0f4f7;}.cls-4{fill:#617880;}.cls-5{fill:#748a95;}</style></defs><path class="cls-1" d="M37.87 46.23a6.45 6.45.0 00.5-1.31l2.43-9.06a1.43 1.43.0 00-1-1.75L37 33.35l-4.41-1.18-2.82-.75a1.41 1.41.0 00-1.74 1l-2.43 9.06a6.49 6.49.0 000 3.33l5.88 4.86z" id="rect126517-4"/><path class="cls-2" d="M30.51 39.68a12.28 12.28.0 00-4.7.94l-.23.87a6.49 6.49.0 000 3.33l5.88 4.86 6.44-3.45a6.45 6.45.0 00.5-1.31l.8-3a9.1 9.1.0 00-1 .42A12.15 12.15.0 0030.51 39.68z" id="path319109"/><path class="cls-3" d="M20.45 43.76a4.53 4.53.0 00-4.53 4.54c0 .12.0.24.0.36a7.73 7.73.0 00-4.89 4.68A2.1 2.1.0 0013.29 56H50.63A2.25 2.25.0 0053 53.31a10.6 10.6.0 00-14.85-6.86 12.25 12.25.0 00-14.07-.86A4.58 4.58.0 0020.45 43.76z" id="path125386-7"/><path class="cls-4" d="M41.39 8.06a1.61 1.61.0 00-2 1.14L33.67 30.64l.95 2.52 2.17-1.69L42.53 10A1.59 1.59.0 0041.39 8.06z" id="rect127127-2"/><path class="cls-5" d="M33 30.46 31.89 34.7a2.28 2.28.0 004.41 1.19l1.14-4.25z" id="path127232-5"/><path class="cls-1" d="M42.75 45.4a10.55 10.55.0 00-2.34.27 10.62 10.62.0 018 7.64A2.26 2.26.0 0146 56h4.65A2.25 2.25.0 0053 53.31 10.6 10.6.0 0042.75 45.4z" id="path294935"/><path d="M25.25 22.51l.31.18a1 1 0 00.49.13 1 1 0 00.5-1.86l-.3-.18a1 1 0 10-1 1.73z"/><path d="M21 20.07a1 1 0 001-1.74l-.3-.17a1 1 0 10-1 1.73z"/><path d="M20.34 22.32a1 1 0 001.37.37l.3-.18a1 1 0 00.37-1.36A1 1 0 0021 20.78l-.3.18A1 1 0 0020.34 22.32z"/><path d="M25.75 20.2a1 1 0 00.5-.13l.3-.18a1 1 0 10-1-1.73l-.31.17a1 1 0 00.5 1.87z"/><path d="M22.63 23.22a1 1 0 002 0v-.35a1 1 0 00-2 0z"/><path d="M23.63 19a1 1 0 001-1v-.36a1 1 0 00-2 0V18a1 1 0 001 1z"/><path d="M46.86 31.46l.31.17a.93.93.0 00.5.14 1 1 0 00.5-1.87l-.31-.17a1 1 0 00-1.36.36A1 1 0 0046.86 31.46z"/><path d="M42 27.47a1 1 0 00.36 1.37l.3.17a1.05 1.05.0 00.5.14 1 1 0 00.87-.5 1 1 0 00-.36-1.37l-.31-.17A1 1 0 0042 27.47z"/><path d="M44 30.1a1 1 0 00-1.36-.37l-.31.17a1 1 0 001 1.74l.3-.18A1 1 0 0044 30.1z"/><path d="M47.36 29.15a1 1 0 00.5-.14l.31-.17a1 1 0 00.36-1.37 1 1 0 00-1.36-.36l-.31.17a1 1 0 00.5 1.87z"/><path d="M46.24 31.82a1 1 0 00-2 0v.35a1 1 0 002 0z"/><path d="M46.24 26.57a1 1 0 00-2 0v.36a1 1 0 002 0z"/><path d="M20.82 37.76a1 1 0 00-1.37.36 1 1 0 00.36 1.37l.31.18a1 1 0 001.37-.36 1 1 0 00-.37-1.37z"/><path d="M15.27 36.87l.31.18a1 1 0 00.5.13 1 1 0 00.5-1.86l-.31-.18a1 1 0 00-1 1.73z"/><path d="M14.91 39.31a1 1 0 001.36.36l.31-.18a1 1 0 00-1-1.73l-.31.18A1 1 0 0014.91 39.31z"/><path d="M19.81 35.32a1 1 0 00.51 1.86 1 1 0 00.5-.13l.3-.18a1 1 0 10-1-1.73z"/><path d="M17.2 40.2a1 1 0 002 0v-.35a1 1 0 00-2 0z"/><path d="M18.2 36a1 1 0 001-1v-.35a1 1 0 00-2 0V35a1 1 0 001 1z"/><path d="M22.08 27.63a1.26 1.26.0 00-.89 1.53 1.25 1.25.0 002.42-.64A1.26 1.26.0 0022.08 27.63z"/><path d="M44.53 16.37a1.25 1.25.0 101.53.89A1.26 1.26.0 0044.53 16.37z"/><path d="M45.2 42.61a1.25 1.25.0 10-1.52-.89A1.25 1.25.0 0045.2 42.61z"/><path d="M42.75 44.4a11.69 11.69.0 00-3.34.49l2.36-8.77a2.45 2.45.0 00-1.72-3l-1.85-.49.2-.75a1 1 0 00-.4-1.07l5.5-20.54a2.61 2.61.0 10-5-1.35L33 29.47a1 1 0 00-.42.13 1 1 0 00-.47.6l-.2.75-1.91-.5a2.44 2.44.0 00-3 1.72l-2.43 9.06a7.74 7.74.0 00-.18 3l-.14.06a5.61 5.61.0 00-3.83-1.56h0A5.53 5.53.0 0014.93 48a8.8 8.8.0 00-4.82 5 2.77 2.77.0 00.33 2.57A3.5 3.5.0 0013.29 57H50.63a3.56 3.56.0 002.81-1.34 3 3 0 00.53-2.6A11.61 11.61.0 0042.75 44.4zM32.85 35l.88-3.27 2.48.66-.2.74h0c-.48 1.11-.39 3.93-2.25 3.43A1.27 1.27.0 0132.85 35zm7.53-25.5a.61.61.0 01.75-.5h0a.61.61.0 01.44.76L36.08 30.25l-1.19-.32zM26.54 41.75 29 32.69a.43.43.0 01.53-.31l1.84.5-.42 1.56a3.28 3.28.0 006.34 1.7l.42-1.56 1.85.49a.43.43.0 01.3.53l-2.42 9.06a13.3 13.3.0 00-6.88-1.93 13.17 13.17.0 00-4.14.69A5.5 5.5.0 0126.54 41.75zM51.85 54.44a1.54 1.54.0 01-1.22.56H13.29a1.49 1.49.0 01-1.21-.57.76.76.0 01-.09-.74 6.77 6.77.0 014.26-4.08 1 1 0 00.69-1c0-.1.0-.19.0-.26a3.5 3.5.0 015.62-2.82 5.8 5.8.0 00-1.57 2 1 1 0 001.83.81c1-2.22 5.24-3.52 7.71-3.52a11.14 11.14.0 017 2.46 1 1 0 001.06.12 9.46 9.46.0 014.16-1A9.6 9.6.0 0152 53.57 1 1 0 0151.85 54.44z"/></svg>