<svg width="800" height="800" viewBox="0 0 64 64" xmlns="http://www.w3.org/2000/svg"><defs><style>.cls-1{fill:#e0e9ee;}.cls-2{fill:#dd5891;}.cls-3{fill:#d9387c;}.cls-4{fill:#f6e782;}.cls-5{fill:#f0f4f7;}.cls-6{fill:#748a95;}.cls-7{fill:#617880;}.cls-8{fill:#d0e1e8;}</style></defs><g id="Farm"><path class="cls-1" d="M52.22 52.41V40.13a2.25 2.25.0 00-2.14-2.35H13.38a2.25 2.25.0 00-2.14 2.35V52.41l22.37 1z" id="path19134-8"/><path class="cls-2" d="M16.8 27.18V52.41H46.66V23.24l-5.51-5.8-9.61-2.35-10.7 3.62z" id="path16718-6"/><path class="cls-3" d="M43 19.41v33h3.64V23.24z" id="path628776"/><path class="cls-4" d="M31.32 13.18l-9.87 3.25a2 2 0 00-.86.53l-6.51 6.49a2.18 2.18.0 003.09 3.09l6.14-6.13L32 17.55l8.69 2.86 6.14 6.13a2.18 2.18.0 003.09-3.09L43.41 17a2 2 0 00-.86-.53l-9.87-3.25A2.25 2.25.0 0031.32 13.18z" id="path16513-1"/><path class="cls-5" d="M28.62 37.1h6.76a1.73 1.73.0 011.73 1.73V52.41l-5.28 1.31-4.94-1.31V38.83a1.73 1.73.0 011.73-1.73z" id="rect16902-1"/><path class="cls-5" d="M36.74 27.41A4.74 4.74.0 1132 22.67a4.75 4.75.0 014.74 4.74z" id="path17954-5"/><path class="cls-1" d="M32.21 37.1a1.72 1.72.0 011.73 1.73V52.41h3.17V38.83a1.72 1.72.0 00-1.73-1.73z" id="path633588"/><path class="cls-6" d="M9.8 52.41H54.2a1.8 1.8.0 110 3.59H9.8a1.8 1.8.0 110-3.59z" id="path15921-8"/><path class="cls-7" d="M49.33 52.41a1.8 1.8.0 010 3.59H54.2a1.8 1.8.0 100-3.59z" id="path637576"/><path class="cls-8" d="M52.22 52.41V40.13a2.24 2.24.0 00-2.14-2.35H47a2.25 2.25.0 012.15 2.35V52.41z" id="path646853"/><circle cx="12.23" cy="32.23" r="1.25"/><circle cx="41.62" cy="10.63" r="1.25"/><path d="M51.93 18.08l.27.15a1 1 0 00.5.14 1 1 0 00.5-1.87l-.27-.16a1 1 0 00-1 1.74z"/><path d="M49.18 14.18 48.91 14a1 1 0 00-1 1.74l.27.15a1 1 0 00.5.14 1 1 0 00.5-1.87z"/><path d="M47.54 17.86a1 1 0 00.87.51 1 1 0 00.5-.14l.27-.15a1 1 0 10-1-1.74l-.27.16A1 1 0 0047.54 17.86z"/><path d="M53.57 14.39A1 1 0 0052.2 14l-.27.16a1 1 0 00.5 1.87 1 1 0 00.5-.14l.27-.15A1 1 0 0053.57 14.39z"/><path d="M50.56 17.29a1 1 0 00-1 1v.31a1 1 0 002 0v-.31a1 1 0 00-1-1z"/><path d="M50.56 12.65a1 1 0 00-1 1V14a1 1 0 102 0v-.31a1 1 0 00-1-1.04z"/><path d="M54.2 51.41h-1V40.13a3.25 3.25.0 00-3.14-3.35H47.66v-8.7a3.17 3.17.0 003-5.34l-6.5-6.49a3.23 3.23.0 00-1.26-.77L33 12.23a3.19 3.19.0 00-2 0h0l-9.88 3.25a3.19 3.19.0 00-1.25.77l-6.5 6.49a3.18 3.18.0 002.24 5.43h.18v8.62H13.38a3.25 3.25.0 00-3.14 3.35V51.41H9.8A2.8 2.8.0 109.8 57H54.2a2.8 2.8.0 100-5.59zM50.08 38.78a1.26 1.26.0 011.14 1.35V51.41H47.66V38.78zM15.62 26.17a1.18 1.18.0 01-.83-2l6.51-6.5a1.1 1.1.0 01.46-.28l9.87-3.25h0a1.17 1.17.0 01.74.0l9.87 3.25a1.1 1.1.0 01.46.28l6.51 6.5a1.18 1.18.0 01-1.67 1.67L41.4 19.7a1.06 1.06.0 00-.39-.24l-8.7-2.86a.94.94.0 00-.62.0L23 19.46a1.06 1.06.0 00-.39.24c-.14.15-6.24 6.23-6.14 6.13a1.18 1.18.0 01-.84.34zm5-1.65V37.39a1 1 0 002 0V22.52l1.23-1.23L32 18.6l8.16 2.69 1.23 1.23v9.2a1 1 0 002 0v-7.2l2.34 2.33-.07 24.56H43.39V41a1 1 0 00-2 0V51.41H38.11V38.83a2.73 2.73.0 00-2.73-2.73H28.62a2.73 2.73.0 00-2.73 2.73V51.41H22.61V46.65a1 1 0 10-2 0v4.76H17.8V27.3C18.19 26.94 19.87 25.25 20.61 24.52zm15.5 16.33v8.78L33.2 45.24zM32 43.43l-3.52-5.31h.14 6.76.14zm-1.2 1.81-2.91 4.39V40.85zM32 47.05l2.89 4.36H29.11zM12.24 40.13a1.26 1.26.0 011.14-1.35H15.8V51.41H12.24zM54.2 55H9.8a.8.8.0 01-.8-.8.79.79.0 01.8-.79H54.2a.79.79.0 01.8.79A.8.8.0 0154.2 55z"/><path d="M32 33.16a5.75 5.75.0 10-5.74-5.75A5.76 5.76.0 0032 33.16zm-1.41-5.75-1.83 1.83a3.66 3.66.0 01-.5-1.83 3.77 3.77.0 01.49-1.83zm-.42 3.25L32 28.83l1.83 1.83a3.6 3.6.0 01-3.66.0zm5.07-5.08a3.72 3.72.0 01.5 1.83 3.66 3.66.0 01-.5 1.83l-1.83-1.83zM32 23.67a3.66 3.66.0 011.83.5L32 26l-1.83-1.83a3.64 3.64.0 011.83-.5z"/><path d="M14.86 12.51l.28.16a1 1 0 00.5.13 1 1 0 00.5-1.86l-.28-.16a1 1 0 00-1 1.73z"/><path d="M12 8.56l-.27-.16a1 1 0 00-1.37.37 1 1 0 00.37 1.36l.27.16a1 1 0 00.5.14A1 1 0 0012 8.56z"/><path d="M12 12.51a1 1 0 10-1-1.73l-.27.16a1 1 0 001 1.73z"/><path d="M16.51 8.77a1 1 0 00-1.37-.37l-.28.16a1 1 0 00.5 1.87.9.9.0 00.5-.14l.28-.16A1 1 0 0016.51 8.77z"/><path d="M13.44 14.07a1 1 0 001-1v-.32a1 1 0 00-2 0v.32a1 1 0 001 1z"/><path d="M13.44 7a1 1 0 00-1 1v.32a1 1 0 002 0V8a1 1 0 00-1-1z"/></g></svg>