<svg width="800" height="800" viewBox="0 0 64 64" xmlns="http://www.w3.org/2000/svg"><defs><style>.cls-1{fill:#617880;}.cls-2{fill:#94d8e5;}.cls-3{fill:#e0e9ee;}.cls-4{fill:#748a95;}.cls-5{fill:#f0f4f7;}.cls-6{fill:#7bd1e0;}.cls-7{fill:#d0e1e8;}</style></defs><g id="Train"><path class="cls-1" d="M19.38 46.44h0a3.78 3.78.0 01-7.55.0l3.77-1.18z" id="path16339-9"/><path class="cls-1" d="M48.34 46.44h0a3.78 3.78.0 01-7.55.0l3.78-1.18z" id="path16757-1"/><path class="cls-2" d="M8 35v7.87a3.55 3.55.0 003.55 3.55H48.34a7 7 0 006.5-4.4A8.53 8.53.0 0055 36.15L54.62 35l-5.92-5.5L48.86 25A18.9 18.9.0 0036 19.91H11.55A3.55 3.55.0 008 23.46V25l4.6 5z" id="rect13803-1"/><path class="cls-3" d="M33.59 25a3.53 3.53.0 013.29 2.24l2.17 5.53A1.64 1.64.0 0137.52 35H8V25z" id="path29565-5"/><path class="cls-3" d="M43.24 25a1.64 1.64.0 00-1.53 2.24l2.17 5.53A3.52 3.52.0 0047.17 35h7.45l-.75-2.23a19 19 0 00-5-7.78z" id="path15464-9"/><path class="cls-4" d="M9.86 50.21H54.14a1.87 1.87.0 010 3.73H9.86a1.87 1.87.0 010-3.73z" id="rect15981-0"/><path class="cls-5" d="M18.31 18a1.91 1.91.0 100 3.81h2.11V25a1.91 1.91.0 103.81.0V23.23a1.91 1.91.0 113.81.0V29a1.91 1.91.0 103.81.0v-9A1.9 1.9.0 0030 18z" id="rect25661-1"/><path class="cls-6" d="M50.62 35 51 36.15A8.53 8.53.0 0150.83 42a7 7 0 01-6.49 4.4h4a7 7 0 006.5-4.4A8.53 8.53.0 0055 36.15L54.62 35zM48.86 25A18.9 18.9.0 0036 19.91h-4A18.89 18.89.0 0144.85 25z" id="path408520"/><path class="cls-7" d="M44.85 25a18.82 18.82.0 015 7.78L50.62 35h4l-.75-2.23a19 19 0 00-5-7.78z" id="path408522"/><circle cx="41.75" cy="15.93" r="1.25"/><circle cx="29.02" cy="11.31" r="1.25"/><path d="M51.81 19.46l-.31-.18a1 1 0 00-1 1.74l.3.17a1 1 0 00.5.14 1 1 0 00.5-1.87z"/><path d="M46.27 18.57a1 1 0 001.37-.37 1 1 0 00-.37-1.36L47 16.66a1 1 0 00-1 1.73z"/><path d="M45.6 20.82a1 1 0 001.36.37l.31-.17a1 1 0 10-1-1.74l-.3.18A1 1 0 0045.6 20.82z"/><path d="M52.18 17a1 1 0 00-1.37-.37l-.3.18a1 1 0 00-.37 1.36 1 1 0 001.37.37l.3-.18A1 1 0 0052.18 17z"/><path d="M47.89 21.73a1 1 0 102 0v-.36a1 1 0 00-2 0z"/><path d="M48.89 17.48a1 1 0 001-1v-.35a1 1 0 10-2 0v.35a1 1 0 001 1z"/><path d="M13.65 15.91l.3.18a1 1 0 001.37-.37A1 1 0 0015 14.36l-.31-.18a1 1 0 10-1 1.73z"/><path d="M9.1 13.29l.31.18a1 1 0 001-1.74l-.31-.17a1 1 0 00-1.36.36A1 1 0 009.1 13.29z"/><path d="M8.74 15.72a1 1 0 001.36.37l.31-.18a1 1 0 10-1-1.73l-.31.18A1 1 0 008.74 15.72z"/><path d="M14.15 13.6a1 1 0 00.49-.13l.31-.18a1 1 0 10-1-1.73l-.3.17a1 1 0 00.5 1.87z"/><path d="M11 16.62a1 1 0 002 0v-.35a1 1 0 00-2 0z"/><path d="M12 12.38a1 1 0 001-1V11a1 1 0 00-2 0v.36a1 1 0 001 1.02z"/><path d="M54.14 49.21h-5.7a4.78 4.78.0 00.81-1.84 7.92 7.92.0 006.51-5A9.55 9.55.0 0056 35.83l-1.14-3.36A19.89 19.89.0 0036 18.91H32.67A2.91 2.91.0 0030 17H18.31a2.91 2.91.0 00-2.72 1.9h-4A4.55 4.55.0 007 23.46V42.89a4.5 4.5.0 003.92 4.49 4.8 4.8.0 00.81 1.83H9.86a2.87 2.87.0 000 5.73H54.14a2.87 2.87.0 000-5.73zM9 36h7.14v3.23H9zM9 26h3.53l3.14 8H9zm10.6.0a2.87 2.87.0 003.94 1.63L26.05 34H17.82l-3.14-8zm13.25 3V26h.74A2.51 2.51.0 0136 27.62l2.17 5.53a.62.62.0 01-.07.59.6.6.0 01-.53.28H28.2l-3.15-8h2V29a2.91 2.91.0 105.81.0zM27 24H25.23v-.78a.91.91.0 111.81.0zm-8.9 12h8v9.42h-8zM39.9 47.44a4.67 4.67.0 00.8 1.77H19.47a4.67 4.67.0 00.8-1.77zm2.09.0h5.16a2.77 2.77.0 01-5.16.0zm6.35-2H28.15V41.25h25.9c0 .14-.09.28-.14.42A6 6 0 0148.34 45.44zm4.58-12.33.31.91H47.17a2.53 2.53.0 01-2.36-1.6l-2.17-5.53a.64.64.0 010-.49.65.65.0 01.36-.35.85.85.0 01.23.0h5.22A18 18 0 0152.92 33.11zM46 24H43.24a2.69 2.69.0 00-1 .18 2.66 2.66.0 00-1.49 3.43L43 33.15A4.5 4.5.0 0047.17 36H53.9l.15.45a7.52 7.52.0 01.38 2.78H28.15V36h9.37A2.63 2.63.0 0040 32.42l-2.17-5.53A4.51 4.51.0 0033.59 24h-.74v-3.1H36A17.85 17.85.0 0146 24zM18.31 19H30a.9.9.0 01.9.9h0v9A.91.91.0 1129 29V23.23a2.91 2.91.0 10-5.81.0v1.89a.78.78.0 01-.89.8.8.8.0 01-.88-.8v-3.3a1 1 0 00-1-1H18.31a.91.91.0 110-1.81zm-6.76 1.9h4a2.91 2.91.0 002.72 1.91h1.11V24H9v-.55a2.55 2.55.0 012.55-2.54zM9 42.89V41.25h7.14v4.19H11.55a2.53 2.53.0 01-1.8-.75A2.49 2.49.0 019 42.89zm4 4.55h5.17a2.77 2.77.0 01-5.17.0zm41.12 5.5H9.86A.85.85.0 019 52.08a.87.87.0 01.86-.87H54.14a.87.87.0 01.86.87A.85.85.0 0154.14 52.94z"/><path d="M24.14 42.17a1 1 0 001-1v-1.5a1 1 0 00-2 0v1.5a1 1 0 001 1z"/></g></svg>