<svg width="800" height="800" viewBox="0 0 64 64" xmlns="http://www.w3.org/2000/svg"><defs><style>.cls-1{fill:#dd5891;}.cls-2{fill:#94d8e5;}.cls-3{fill:#7bd1e0;}.cls-4{fill:#9be69d;}.cls-5{fill:#617880;}.cls-6{fill:#e0e9ee;}.cls-7{fill:#748a95;}.cls-8{fill:#f0f4f7;}.cls-9{fill:#d0e1e8;}</style></defs><g id="Office"><path class="cls-1" d="M12.71 51.68V13a2.43 2.43.0 012.44-2.43H32.66A2.43 2.43.0 0135.1 13V51.84z" id="path5816-7"/><path class="cls-2" d="M29.77 34.38H16.07V14.23H31.74V29.75z" id="path7054-5"/><path class="cls-3" d="M28.62 14.23v4.28a2.43 2.43.0 00-2 2.39V34.38h3.13l2-4.63V14.23z" id="path458196"/><path class="cls-4" d="M18.89 37.89a3.51 3.51.0 11-3.51-3.5 3.51 3.51.0 013.51 3.5z" id="path182280-9-3"/><path class="cls-5" d="M26.76 49.9V42.69a2.85 2.85.0 00-5.7.0V49.9l2.59 1.65z" id="path6485-1"/><path class="cls-6" d="M29.76 49.9V23.08a2.43 2.43.0 012.44-2.43H49.72a2.43 2.43.0 012.44 2.43V49.9L40.59 51.58z" id="rect5361-1"/><path class="cls-5" d="M43.72 49.9V44.13a2.85 2.85.0 10-5.7.0V49.9L41.1 51z" id="rect6151-7"/><path class="cls-7" d="M10.08 49.9H53.92c2.75.0 2.8 4.32.0 4.32H10.08c-2.75.0-2.8-4.32.0-4.32z" id="rect315703-9"/><path class="cls-2" d="M40.19 24.56H33.12V37.91H48.8V26.84l-3-4.77z" id="rect6744-1"/><path class="cls-8" d="M40.19 20.65V31.94a1.44 1.44.0 102.87.0V24.55a1.44 1.44.0 012.87.0v2.28a1.44 1.44.0 102.87.0V20.65z" id="path10769-9"/><path class="cls-5" d="M48.36 49.9c2.75.0 2.79 4.32.0 4.32h5.56c2.75.0 2.8-4.32.0-4.32z" id="path448644"/><path class="cls-9" d="M52.16 49.9V23.08a2.43 2.43.0 00-2.44-2.43H48.23a2.43 2.43.0 011.48 2.24V49.7z" id="path461377"/><path class="cls-3" d="M48.8 26.84a1.43 1.43.0 01-1.44 1.43 1.41 1.41.0 01-.81-.25v9.89H48.8z" id="path465778"/><circle cx="39.9" cy="11.03" r="1.25"/><circle cx="9.25" cy="25.85" r="1.25"/><path d="M50 15.61l.31.18a1 1 0 00.5.13 1 1 0 00.86-.5 1 1 0 00-.36-1.36L51 13.88a1 1 0 00-1 1.73z"/><path d="M45.41 13l.31.18a1 1 0 001.36-.37 1 1 0 00-.36-1.37l-.31-.17a1 1 0 00-1 1.73z"/><path d="M45.05 15.42a1 1 0 00.86.5 1 1 0 00.5-.13l.31-.18a1 1 0 00.36-1.36 1 1 0 00-1.36-.37l-.31.18A1 1 0 0045.05 15.42z"/><path d="M50.45 13.3a1 1 0 00.5-.13l.31-.18a1 1 0 00-1-1.73l-.31.18a1 1 0 00.5 1.86z"/><path d="M47.34 16.32a1 1 0 002 0V16a1 1 0 10-2 0z"/><path d="M48.34 12.08a1 1 0 001-1v-.35a1 1 0 00-2 0v.35a1 1 0 001 1z"/><path d="M53.92 48.9h-.76V23.08a3.44 3.44.0 00-3.44-3.43H36.1V13a3.44 3.44.0 00-3.43-3.43H15.15A3.44 3.44.0 0011.71 13V35.3a4.46 4.46.0 000 5.18V48.9H10.08c-4.11.0-4.1 6.32.0 6.32H53.92c4.08.0 4.08-6.32.0-6.32zM51.16 23.08V48.9H44.72V44.13a3.85 3.85.0 10-7.7.0V48.9H30.76V34.39h0V23.08a1.44 1.44.0 011.44-1.43h7v1.91H33.12a1 1 0 00-1 1V37.91a1 1 0 001 1H48.8a1 1 0 001-1V21.66a1.43 1.43.0 011.36 1.42zM39 48.9V44.13a1.85 1.85.0 013.7.0V48.9zm-17 0V42.69a1.85 1.85.0 113.69.0V48.9zm1.85-10.06A3.85 3.85.0 0020 42.69V48.9H16.38V42.27a4.48 4.48.0 002.74-6.89h9.64V48.9h-1V42.69A3.84 3.84.0 0023.91 38.84zm-11-1a2.51 2.51.0 112.5 2.5 2.51 2.51.0 01-2.47-2.45zM25.52 15.23v3H22.29v-3zm5.22.0v3H27.52v-3zM22.29 33.38v-3h3.23v3zm-5.22.0v-3h3.22v3zm5.22-8.07h3.23v3H22.29zm-2 3H17.07v-3h3.22zm7.23-3h1.24v3H27.52zm1.24-2.23v.23H27.52v-3h2.72a3.43 3.43.0 00-1.48 2.77zm-3.24.23H22.29v-3h3.23zm-5.23.0H17.07v-3h3.22zm7.23 7h1.24v3H27.52zM20.29 18.27H17.07v-3h3.22zM41.62 34.38a2.45 2.45.0 002.44-2.44V24.55a.44.44.0 01.87.0v2.28a2.43 2.43.0 002.43 2.44 3.13 3.13.0 00.44.0v7.68H34.12V25.56h5.07v6.38A2.44 2.44.0 0041.62 34.38zm6.18-7.55a.44.44.0 11-.87.0V24.55a2.44 2.44.0 00-4.87.0v7.39a.44.44.0 11-.87.0V21.65H47.8zM15.15 11.53H32.67A1.43 1.43.0 0134.1 13v6.69H32.74V14.23a1 1 0 00-1-1H16.07a1 1 0 00-1 1V33.42a4.34 4.34.0 00-1.36.29V13a1.43 1.43.0 011.44-1.47zM13.71 42.06a4 4 0 00.67.21V48.9h-.67zM53.92 53.22H10.08a1.16 1.16.0 010-2.32H53.92a1.16 1.16.0 010 2.32z"/></g></svg>