<svg width="800" height="800" viewBox="0 0 64 64" xmlns="http://www.w3.org/2000/svg"><defs><style>.cls-1{fill:#f0f4f7;}.cls-2{fill:#617880;}.cls-3{fill:#748a95;}.cls-4{fill:#f6e782;}.cls-5{fill:#dd5891;}.cls-6{fill:#e5936b;}.cls-7{fill:#e17c46;}</style></defs><g id="Letterbox"><path class="cls-1" d="M17.36 38v4.09a2.53 2.53.0 01-5.06.0V38L15 36z" id="rect62713-5"/><path class="cls-2" d="M32.91 41.85V53.11a2.77 2.77.0 11-5.53.0V41.85l2.89-1.5z" id="rect61709-3"/><path class="cls-3" d="M37.38 38v2.31a1.57 1.57.0 01-1.58 1.58H24.47a1.57 1.57.0 01-1.58-1.58V38l7.58-2.88z" id="rect61503-2"/><path class="cls-4" d="M34 38H9.58A1.57 1.57.0 018 36.38V20.6a7 7 0 017-7H41z" id="rect60708-9"/><path class="cls-5" d="M14.73 24.23a1.58 1.58.0 00-1.58 1.58v4.31a1.58 1.58.0 001.58 1.58H26.51a1.57 1.57.0 001.58-1.58V25.81a1.57 1.57.0 00-1.58-1.58H14.73z" id="rect61354-2"/><path class="cls-6" d="M34 36.29V20.6a7 7 0 1114 0V36.29z" id="rect60299-8"/><path class="cls-1" d="M16.66 13.6V31.7a2.35 2.35.0 104.7.0V19.87a2.35 2.35.0 114.69.0 2.35 2.35.0 104.69.0V13.6z" id="rect53585-6-1-7"/><path class="cls-7" d="M41 13.6a6.9 6.9.0 00-2.32.4 7 7 0 014.67 6.6v15H48v-15a7 7 0 00-7-7z" id="path121383"/><path class="cls-4" d="M32 38H54.42a1.58 1.58.0 000-3.16H32z" id="rect60425-7"/><path d="M50.7 50.31l-.31-.18A1 1 0 0049 50.5a1 1 0 00.36 1.36l.31.18a1 1 0 00.5.14 1 1 0 00.51-1.87z"/><path d="M44.85 49.25l.3.17a1 1 0 001.37-.37 1 1 0 00-.37-1.36l-.31-.18a1 1 0 00-1 1.74z"/><path d="M45.84 52l.31-.17a1 1 0 10-1-1.74l-.3.18a1 1 0 00.5 1.87A1 1 0 0045.84 52z"/><path d="M49.69 47.51l-.3.18a1 1 0 00.5 1.86 1 1 0 00.5-.13l.3-.18a1 1 0 00.37-1.36A1 1 0 0049.69 47.51z"/><path d="M46.77 52.58a1 1 0 002 0v-.36a1 1 0 00-2 0z"/><path d="M47.77 48.33a1 1 0 001-1V47a1 1 0 00-2 0v.35A1 1 0 0047.77 48.33z"/><path d="M22.63 51.09l.31.18a1 1 0 00.5.13 1 1 0 00.5-1.86l-.31-.18a1 1 0 00-1 1.73z"/><path d="M18.39 48.64a.93.93.0 00.5.14 1 1 0 00.87-.5 1 1 0 00-.36-1.37l-.31-.17a1 1 0 00-1.36.36 1 1 0 00.36 1.37z"/><path d="M17.72 50.9a1 1 0 001.37.37l.3-.18a1 1 0 00-1-1.73l-.31.18A1 1 0 0017.72 50.9z"/><path d="M23.13 48.78a1 1 0 00.5-.13l.31-.18a1 1 0 00.36-1.37 1 1 0 00-1.36-.36l-.31.17a1 1 0 00.5 1.87z"/><path d="M22 51.45a1 1 0 00-1-1h0a1 1 0 00-1 1v.35a1 1 0 001 1h0a1 1 0 001-1z"/><path d="M21 47.56h0a1 1 0 001-1V46.2a1 1 0 00-1-1h0a1 1 0 00-1 1v.36a1 1 0 001 1z"/><circle cx="15.75" cy="9.37" r="1.25"/><circle cx="49.29" cy="13.57" r="1.25"/><path d="M54.42 33.8H49V20.6a8 8 0 00-8-8H15a8 8 0 00-8 8V36.38A2.59 2.59.0 009.58 39H11.3v3.09a3.53 3.53.0 107.06.0V39h3.53v1.31a2.58 2.58.0 002.58 2.58h1.91V53.11a3.77 3.77.0 107.53.0V42.85H35.8a2.59 2.59.0 002.58-2.58V39h16a2.58 2.58.0 000-5.16zM47 20.6V33.8H35V20.6a6 6 0 1112 0zM22.36 25.22h4.15a.58.58.0 01.58.59v4.31a.57.57.0 01-.58.58H22.36zm-2-5.35v4.35h0V31.7h0a1.35 1.35.0 11-2.7.0V14.6H29.74v5.27a1.35 1.35.0 11-2.69.0 3.35 3.35.0 10-6.69.0zM14.73 30.7a.57.57.0 01-.58-.58V25.81a.58.58.0 01.58-.59h.93V30.7zM9 36.38V20.6a6 6 0 016-6h.67v8.62h-.93a2.59 2.59.0 00-2.58 2.59v4.31a2.59 2.59.0 002.58 2.58h1.1a3.33 3.33.0 006.36.0h4.32a2.59 2.59.0 002.58-2.58V25.81a2.59 2.59.0 00-2.58-2.59H22.36V19.87a1.35 1.35.0 112.69.0 3.35 3.35.0 106.69.0V14.6h4a8 8 0 00-2.72 6V37H9.58A.57.57.0 019 36.38zm7.36 5.67a1.53 1.53.0 01-3.06.0V39h3.06zM31.91 53.11a1.77 1.77.0 11-3.53.0V42.85h3.53zm4.47-12.84a.57.57.0 01-.58.58H24.47a.57.57.0 01-.58-.58V39H36.38zm18-3.31H35V35.8H54.42a.58.58.0 110 1.16z"/></g></svg>