<svg width="800" height="800" viewBox="0 0 64 64" xmlns="http://www.w3.org/2000/svg"><defs><style>.cls-1{fill:#f0f4f7;}.cls-2{fill:#748a95;}.cls-3{fill:#e0e9ee;}.cls-4{fill:#d0e1e8;}.cls-5{fill:#617880;}</style></defs><g id="Tram"><path class="cls-1" d="M52.61 20.53v5.83a1.47 1.47.0 11-2.93.0V24.52a1.47 1.47.0 10-2.93.0 1.47 1.47.0 01-2.94.0v-4L48.38 19z" id="path128784-6-0-2-4-7-3"/><path class="cls-2" d="M11.37 16.65H9.94a1.94 1.94.0 100 3.88H54.06a1.94 1.94.0 000-3.88H20.84l-1.31 1.1-1.63-1.1H14.3l-1.48.87z" id="rect120749-0-6"/><path class="cls-3" d="M51.67 33.72V44.93a4.22 4.22.0 01-4.23 4.22H16.56a4.22 4.22.0 01-4.23-4.22V33.72l18.58-1.35z" id="path141467-9"/><path class="cls-2" d="M9.5 30.72h45a1.5 1.5.0 010 3H9.5a1.5 1.5.0 010-3z" id="rect140397-9"/><path class="cls-4" d="M48.8 33.72V44.93a4.21 4.21.0 01-4.22 4.22h2.87a4.21 4.21.0 004.22-4.22V33.72z" id="path38060"/><path class="cls-1" d="M17.93 36.93a1.16 1.16.0 00-1.16 1.16V49.15h4.62l1.82-1.83V42.14H40.79v5.21l1 1.25 5.43.55V38.09a1.16 1.16.0 00-1.16-1.16z" id="rect145840-6"/><path class="cls-2" d="M18.75 52.33V49.15a1.79 1.79.0 011.8-1.8h22.9a1.79 1.79.0 011.8 1.8v3.18L30.38 53.79z" id="rect141227-3"/><path class="cls-2" d="M9.5 52.33h45a1.5 1.5.0 010 3H9.5a1.5 1.5.0 010-3z" id="path140620-12"/><path class="cls-1" d="M11.37 16.65v9.71a1.47 1.47.0 102.93.0V16.65z" id="path150373-2"/><path class="cls-1" d="M17.9 16.65v7.14a1.47 1.47.0 002.94.0V16.65z" id="path149167-6"/><path class="cls-5" d="M50.5 52.33a1.5 1.5.0 010 3h4a1.5 1.5.0 000-3z" id="path16755"/><path class="cls-5" d="M50.5 30.72a1.5 1.5.0 010 3h4a1.5 1.5.0 000-3z" id="path16753"/><path class="cls-5" d="M50.06 16.65a1.94 1.94.0 010 3.88h4a1.94 1.94.0 000-3.88z" id="path16741"/><path class="cls-5" d="M45.25 52.33V49.15a1.79 1.79.0 00-1.8-1.8H39.78a1.8 1.8.0 011.8 1.8v3.18z" id="path65692"/><circle cx="41.25" cy="27.49" r="1.25"/><circle cx="20.95" cy="13.39" r="1.25"/><circle cx="39.6" cy="9.92" r="1.25"/><path d="M9.5 51.33a2.5 2.5.0 000 5h45a2.5 2.5.0 000-5H46.25V50.15h1.19a5.23 5.23.0 005.23-5.22V34.72H54.5a2.5 2.5.0 000-5H35.19a3.56 3.56.0 00.38-1.56s0-.06.0-.09h.88a3.33 3.33.0 003.33-3.32V21.53h3v3a2.47 2.47.0 004.94.0.46.46.0 01.46-.47.47.47.0 01.47.47v1.84a2.47 2.47.0 104.93.0V21.53h.45a2.94 2.94.0 000-5.88H9.94a2.94 2.94.0 100 5.88h.43v4.83a2.47 2.47.0 104.93.0V21.53h1.6v2.26a2.47 2.47.0 104.93.0V21.53h2.4v3.22a3.33 3.33.0 003.33 3.32h.88s0 .06.0.09a3.56 3.56.0 00.38 1.56H9.5a2.5 2.5.0 000 5h1.83V44.93a5.23 5.23.0 005.23 5.22h1.19v1.18zM55 53.83a.5.5.0 01-.5.5H9.5a.5.5.0 010-1h45a.5.5.0 01.5.5zM24.21 46.35V43.14H39.79v3.21zm-3.66.0a2.8 2.8.0 00-2.61 1.8h-.17V38.09a.16.16.0 01.16-.16h4.28v8.42zm13.38-8.42v3.21H30.07V37.93zm5.86.0v3.21H35.93V37.93zM28.07 41.14H24.21V37.93h3.86zm13.72-3.21h4.28a.16.16.0 01.16.16V48.15h-.17a2.8 2.8.0 00-2.61-1.8H41.79zM29.58 24.75V21.53h4.84v3.22a1.32 1.32.0 01-1.33 1.32H30.91a1.32 1.32.0 01-1.33-1.32zm8.19.0a1.33 1.33.0 01-1.33 1.32h-.3a3.22 3.22.0 00.28-1.32V21.53h1.35zm13.84 1.61a.47.47.0 11-.93.0V24.52a2.47 2.47.0 10-4.93.0.47.47.0 01-.94.0v-3h6.8zM9.94 19.53a.94.94.0 010-1.88h.43v1.88zm2.9 7.3a.47.47.0 01-.47-.47V20.53h0V17.65h.93v8.71A.46.46.0 0112.84 26.83zm2.46-7.3V17.65h1.6v1.88zm4.07 4.73a.47.47.0 01-.47-.47V20.53h0V17.65h.93v6.14A.46.46.0 0119.37 24.26zm2.46-6.61H54.06a.94.94.0 010 1.88H21.83zm4.4 7.1V21.53h1.35v3.22a3.22 3.22.0 00.28 1.32h-.3A1.33 1.33.0 0126.23 24.75zm4.2 3.41s0-.06.0-.09h3.12s0 .06.0.09a1.57 1.57.0 01-3.14.0zM9 32.22a.5.5.0 01.5-.5h45a.5.5.0 010 1H9.5a.5.5.0 01-.5-.5zm4.33 12.71V34.72H50.67V44.93A3.23 3.23.0 0148.23 48V38.09a2.16 2.16.0 00-2.16-2.16H17.93a2.16 2.16.0 00-2.16 2.16V48a3.23 3.23.0 01-2.44-3.07zm6.42 4.22a.8.8.0 01.8-.8h22.9a.8.8.0 01.8.8v2.18H19.75z"/></g></svg>