<svg width="800" height="800" viewBox="0 0 64 64" xmlns="http://www.w3.org/2000/svg"><defs><style>.cls-1{fill:#d0e1e8;}.cls-2{fill:#748a95;}.cls-3{fill:#f0f4f7;}.cls-4{fill:#e5936b;}.cls-5{fill:#efc89d;}.cls-6{fill:#dd5891;}.cls-7{fill:#ebb87f;}.cls-8{fill:#e17c46;}</style></defs><g data-name="Side Sign" id="Side_Sign"><path class="cls-1" d="M10 34.25H22v3.59H10z" id="rect128260-4-6"/><path class="cls-1" d="M10 20.33H22v3.59H10z" id="path128536-4-1"/><path class="cls-2" d="M9.81 16.37A1.8 1.8.0 008 18.17v36a1.81 1.81.0 103.62.0v-36a1.8 1.8.0 00-1.81-1.8z" id="rect139956-3"/><path class="cls-3" d="M45.43 40v6.14a1.82 1.82.0 11-3.64.0V40z" id="path144207-1"/><path class="cls-3" d="M33.6 40v4.32a1.82 1.82.0 01-3.64.0V40z" id="path144612-9"/><path class="cls-4" d="M31.07 16.13H24.49a4.19 4.19.0 00-4.2 4.2V37.84a4.19 4.19.0 004.2 4.2H51.8a4.19 4.19.0 004.2-4.2V20.33a4.19 4.19.0 00-4.2-4.2H45.1l-1.61 1.34-1.61-1.34H39l-4 1.34z" id="rect121347-2-6"/><path class="cls-5" d="M47.72 38.25a4.89 4.89.0 014.69-5.06V25a4.88 4.88.0 01-4.69-5.06H28.57A4.88 4.88.0 0123.88 25v8.22a4.89 4.89.0 014.69 5.06z" id="path130985-6-3"/><path class="cls-6" d="M31.4 29.08a2 2 0 11-2-2 2 2 0 012 2z" id="path124956-2-2"/><path class="cls-6" d="M40.15 29.08a2 2 0 11-2-2 2 2 0 012 2z" id="path125061-3-0"/><path class="cls-6" d="M48.9 29.08a2 2 0 11-2-2 2 2 0 012 2z" id="path125063-7-6"/><path class="cls-7" d="M50.11 24.32v9.53a4.35 4.35.0 012.3-.66V25a4.43 4.43.0 01-2.3-.68z" id="path203700-1"/><path class="cls-8" d="M50 16.12a4.2 4.2.0 014.2 4.21V37.84A4.19 4.19.0 0150 42h1.8a4.19 4.19.0 004.2-4.2V20.33a4.2 4.2.0 00-4.2-4.21z" id="path208405-5"/><path class="cls-3" d="M45.1 16.12V22a1.61 1.61.0 01-3.22.0V16.12z" id="rect128584-4-2"/><path class="cls-3" d="M31.07 16.12v8.07a1.32 1.32.0 002.64.0V20.36a1.32 1.32.0 112.64.0 1.33 1.33.0 002.65.0V16.12z" id="path128784-4-9"/><circle cx="51.43" cy="11.59" r="1.25"/><circle cx="19.78" cy="47.54" r="1.25"/><path d="M52.9 55.29l.3.18a1 1 0 001-1.74l-.31-.17a1 1 0 00-1.37.36A1 1 0 0052.9 55.29z"/><path d="M48.36 52.67l.3.17a.93.93.0 00.5.14 1 1 0 00.5-1.87l-.3-.17a1 1 0 10-1 1.73z"/><path d="M48 55.1a1 1 0 001.37.37l.3-.18a1 1 0 10-1-1.73l-.3.17A1 1 0 0048 55.1z"/><path d="M53.4 53a.93.93.0 00.5-.14l.31-.17a1 1 0 10-1-1.73l-.3.17A1 1 0 0053.4 53z"/><path d="M50.28 56a1 1 0 002 0v-.35a1 1 0 00-2 0z"/><path d="M51.28 49.4a1 1 0 00-1 1v.36a1 1 0 002 0V50.4a1 1 0 00-1-1z"/><path d="M22.91 12.89l.3.17a.93.93.0 00.5.14 1 1 0 00.5-1.87l-.3-.17a1 1 0 10-1 1.73z"/><path d="M18.37 10.27l.3.17a1 1 0 00.5.14 1 1 0 00.5-1.87l-.3-.18a1 1 0 00-1 1.74z"/><path d="M18 12.7a1 1 0 00.87.5.93.93.0 00.5-.14l.3-.17A1 1 0 0020 11.52a1 1 0 00-1.37-.36l-.3.17A1 1 0 0018 12.7z"/><path d="M23.41 10.58a1 1 0 00.5-.14l.3-.17a1 1 0 10-1-1.74l-.3.18a1 1 0 00.5 1.87z"/><path d="M21.29 14.6h0a1 1 0 001-1v-.35a1 1 0 00-1-1h0a1 1 0 00-1 1v.36a1 1 0 001 .99z"/><path d="M21.29 9.35h0a1 1 0 001-1V8a1 1 0 00-1-1h0a1 1 0 00-1 1v.35a1 1 0 001 1z"/><path d="M51.8 15.12H24.49a5.22 5.22.0 00-5.1 4.21H12.62V18.17a2.81 2.81.0 00-5.62.0v36a2.81 2.81.0 005.62.0V38.84h6.77a5.21 5.21.0 005.1 4.2H29v1.32a2.82 2.82.0 005.64.0V43h6.19v3.14a2.82 2.82.0 105.64.0V43H51.8a5.2 5.2.0 005.2-5.2V20.33a5.21 5.21.0 00-5.2-5.21zM40.88 18.91H40V17.12h.88zM38 20.36a.32.32.0 01-.32.32.32.32.0 01-.33-.32 2.32 2.32.0 10-4.64.0v3.83a.32.32.0 11-.64.0V17.12H38zm-5.61 6.15a2.32 2.32.0 002.32-2.32V20.36a.32.32.0 11.64.0 2.32 2.32.0 004.57.55h1V22a2.61 2.61.0 005.22.0V20.91h.69a5.93 5.93.0 004.62 5v6.41a5.9 5.9.0 00-4.62 5H29.5a5.9 5.9.0 00-4.62-5V25.88a5.93 5.93.0 004.62-5h.57v3.28a2.32 2.32.0 002.32 2.35zM44.1 22a.61.61.0 01-1.22.0V17.12H44.1zm-31.48 3h6.67v8.33H12.62zm6.67-3.59V23H12.62V21.33zM10.62 54.19a.81.81.0 01-1.62.0v-36a.81.81.0 011.62.0zm2-18.94h6.67v1.59H12.62zm20 9.11a.82.82.0 01-.82.82.81.81.0 01-.82-.82V43H32.6zm11.83 1.82a.82.82.0 11-1.64.0V43h1.64zM55 37.84A3.21 3.21.0 0151.8 41H24.49a3.21 3.21.0 01-3.2-3.2V20.33a3.21 3.21.0 013.2-3.21h5.58v1.79h-1.5a1 1 0 00-1 1A3.89 3.89.0 0123.88 24a1 1 0 00-1 1v8.22a1 1 0 001 1 3.89 3.89.0 013.69 4.06 1 1 0 001 1H47.72a1 1 0 001-1 3.89 3.89.0 013.69-4.06 1 1 0 001-1V25a1 1 0 00-1-1 3.89 3.89.0 01-3.69-4.06 1 1 0 00-1-1H46.1V17.12h5.7A3.21 3.21.0 0155 20.33z"/><path d="M26.39 29.08a3 3 0 003 3h0a3 3 0 003-3 3 3 0 00-6 0zm4 0a1 1 0 01-1 1h0a1 1 0 111-1z"/><path d="M38.14 32.09h0a3 3 0 10-3-3 3 3 0 003 3zm0-4a1 1 0 110 2h0a1 1 0 01-.71-.3 1 1 0 01-.29-.71 1 1 0 011-1z"/><path d="M46.89 32.09h0a3 3 0 10-3-3 3 3 0 003 3zm0-4a1 1 0 110 2h0a1 1 0 010-2z"/><path d="M35.1 35.48h6.09a1 1 0 000-2H35.1a1 1 0 000 2z"/><path d="M51.9 36.33a1 1 0 10-1.41 1.41L51.71 39a1 1 0 00.7.29 1 1 0 00.71-.29 1 1 0 000-1.41z"/><path d="M24.39 36.33l-1.22 1.22a1 1 0 000 1.41 1 1 0 001.41.0l1.22-1.22a1 1 0 10-1.41-1.41z"/><path d="M51.71 19.2l-1.22 1.22a1 1 0 001.41 1.42l1.22-1.22a1 1 0 00-1.41-1.42z"/><path d="M24.39 21.84a1 1 0 001.41-1.42l-1.22-1.21a1 1 0 00-1.41.0 1 1 0 000 1.41z"/></g></svg>