<svg width="800" height="800" viewBox="0 0 64 64" xmlns="http://www.w3.org/2000/svg"><defs><style>.cls-1{fill:#f0f4f7;}.cls-2{fill:#e0e9ee;}.cls-3{fill:#d0e1e8;}.cls-4{fill:#748a95;}</style></defs><g id="Signpost"><path class="cls-1" d="M42.83 24.05v4.51a1.61 1.61.0 01-3.21.0V24.05l1.61-1.14z" id="rect63219-5"/><path class="cls-1" d="M24.89 29.39v4.5a1.61 1.61.0 01-3.22.0v-4.5l1.61-1.14z" id="path63381-0"/><path class="cls-2" d="M34 12.19H50.67a2.64 2.64.0 012.64 2.65v6.57a2.64 2.64.0 01-2.64 2.64H34l-2.84-5.23z" id="path62560-9"/><path class="cls-2" d="M30 17.53H13.33a2.64 2.64.0 00-2.64 2.64v6.57a2.64 2.64.0 002.64 2.65H30l1.23-6.6z" id="path63090-7"/><path class="cls-3" d="M27.4 17.53V29.39h3.05V17.53z" id="path116919"/><path class="cls-3" d="M48.05 12.2a2.63 2.63.0 012.65 2.64v6.57a2.64 2.64.0 01-2.65 2.64h2.62a2.64 2.64.0 002.64-2.64V14.84a2.63 2.63.0 00-2.64-2.64z" id="path116909"/><path class="cls-1" d="M41.12 10.55a1.65 1.65.0 100 3.29H43.6V16a1.46 1.46.0 002.92.0V13.84h1.62a1.65 1.65.0 000-3.29z" id="path34063-3-0"/><path class="cls-1" d="M23.74 19.18a1.65 1.65.0 100-3.3h-7a1.65 1.65.0 000 3.3z" id="path62645-84"/><path class="cls-4" d="M30 48.79V10a2 2 0 012-2h0a2 2 0 012 2V48.79l-1.59 1.56z" id="rect58386-1"/><path class="cls-2" d="M26.76 48.79H37.24a2.64 2.64.0 012.65 2.64v3.06A1.52 1.52.0 0138.38 56H25.62a1.52 1.52.0 01-1.51-1.51V51.43a2.64 2.64.0 012.65-2.64z" id="rect58535-2"/><path class="cls-3" d="M33.9 48.79a2.64 2.64.0 012.64 2.64v3.06A1.5 1.5.0 0135 56h3.35a1.51 1.51.0 001.51-1.51V51.43a2.64 2.64.0 00-2.64-2.64z" id="path136531"/><circle cx="24.66" cy="42.28" r="1.25"/><circle cx="39.64" cy="34.86" r="1.25"/><circle cx="23" cy="11.65" r="1.25"/><path d="M13.33 30.39h7.34v3.5a2.61 2.61.0 005.22.0v-3.5H29v17.4H26.76a3.65 3.65.0 00-3.65 3.64v3.06A2.52 2.52.0 0025.62 57H38.38a2.52 2.52.0 002.51-2.51V51.43a3.65 3.65.0 00-3.65-3.64H35V25.05h3.64v3.51a2.61 2.61.0 005.21.0V25.05h6.84a3.64 3.64.0 003.64-3.64V14.84a3.65 3.65.0 00-3.64-3.65h-.09a2.64 2.64.0 00-2.44-1.64h-7a2.65 2.65.0 00-2.45 1.64H35V10a3 3 0 10-6 0v6.55H26.19a2.64 2.64.0 00-2.45-1.65h-7a2.64 2.64.0 00-2.45 1.65h-.95A3.64 3.64.0 009.7 20.19v6.57a3.65 3.65.0 003.63 3.63zm10.56 3.5a.61.61.0 01-1.22.0v-3.5h1.22zm15 17.54v3.06a.51.51.0 01-.51.51H25.62a.51.51.0 01-.51-.51V51.43a1.65 1.65.0 011.65-1.64H37.24a1.65 1.65.0 011.65 1.64zm2.94-22.87a.59.59.0 01-.6.6.6.6.0 01-.61-.6V25.05h1.21zm-.71-17h7a.63.63.0 01.64.64h0a.63.63.0 01-.64.64H46.52a1 1 0 00-1 1V16a.46.46.0 01-.92.0V13.84a1 1 0 00-1-1H41.12a.65.65.0 110-1.29zm-2.45 1.64a2.65 2.65.0 002.45 1.65H42.6V16a2.46 2.46.0 004.92.0V14.84h.62a2.63 2.63.0 002.44-1.65h.09a1.64 1.64.0 011.64 1.65v6.57a1.64 1.64.0 01-1.64 1.64H35V13.19zM31 10a1 1 0 012 0V47.79H31zm-14.29 6.9h7a.65.65.0 110 1.3h-7a.64.64.0 01-.65-.65h0A.64.64.0 0116.73 16.88zm-5 3.29a1.64 1.64.0 011.64-1.64h.95a2.65 2.65.0 002.45 1.65h7a2.65 2.65.0 002.45-1.65H29v9.86H13.33a1.64 1.64.0 01-1.64-1.65z"/><path d="M19.42 26.39h6.43a1 1 0 000-2H19.42a1 1 0 000 2z"/><path d="M38.15 21.05h6.43a1 1 0 000-2H38.15a1 1 0 000 2z"/><circle cx="15.42" cy="25.39" r="1.25"/><circle cx="48.58" cy="20.05" r="1.25"/><path d="M47.69 43.08a1 1 0 00.5.14 1 1 0 00.5-1.87l-.3-.18a1 1 0 00-1.37.37 1 1 0 00.37 1.36z"/><path d="M44.15 38.73l-.3-.18a1 1 0 00-1 1.73l.31.18a1 1 0 001.37-.37A1 1 0 0044.15 38.73z"/><path d="M43.15 41.17l-.31.18a1 1 0 00.51 1.87 1 1 0 00.5-.14l.3-.18a1 1 0 00.37-1.36A1 1 0 0043.15 41.17z"/><path d="M47.89 40.59a1 1 0 00.5-.13l.3-.18a1 1 0 00.37-1.36 1 1 0 00-1.37-.37l-.3.18A1 1 0 0047 40.09 1 1 0 0047.89 40.59z"/><path d="M44.77 43.61a1 1 0 002 0v-.35a1 1 0 00-2 0z"/><path d="M45.77 37a1 1 0 00-1 1v.35a1 1 0 002 0V38a1 1 0 00-1-1z"/><path d="M16.85 38.5l.31.17a.93.93.0 00.5.14 1 1 0 00.5-1.87l-.31-.17a1 1 0 00-1.36.36A1 1 0 0016.85 38.5z"/><path d="M12.31 35.88l.31.17a1 1 0 00.5.14 1 1 0 00.5-1.87l-.31-.18a1 1 0 00-1 1.74z"/><path d="M12 38.31a1 1 0 00.86.5.93.93.0 00.5-.14l.31-.17A1 1 0 0014 37.13a1 1 0 00-1.36-.36l-.31.17A1 1 0 0012 38.31z"/><path d="M17.35 36.19a1 1 0 00.5-.14l.31-.17a1 1 0 00-1-1.74l-.31.18a1 1 0 00-.36 1.37A1 1 0 0017.35 36.19z"/><path d="M15.24 40.21a1 1 0 001-1v-.35a1 1 0 10-2 0v.35A1 1 0 0015.24 40.21z"/><path d="M16.24 33.61a1 1 0 10-2 0V34a1 1 0 002 0z"/></g></svg>