<svg width="800" height="800" viewBox="0 0 64 64" xmlns="http://www.w3.org/2000/svg"><defs><style>.cls-1{fill:#d0e1e8;}.cls-2{fill:#748a95;}.cls-3{fill:#e0e9ee;}.cls-4{fill:#617880;}.cls-5{fill:#94d8e5;}.cls-6{fill:#f0f4f7;}</style></defs><g id="Townhouse"><path class="cls-1" d="M41.27 43H22.73l-4.08 5.38L22.07 54H41.81l2.54-5.45z" id="path231505-7"/><path class="cls-2" d="M9.76 52.05a1.77 1.77.0 000 3.53H54.24a1.77 1.77.0 000-3.53z" id="path208729-6-6"/><path class="cls-3" d="M10.64 33.93V52.05H22.73V33.93l-.83-5.06-5.27-2.77L12.55 29z" id="rect226432-5"/><path class="cls-4" d="M14.84 52.46V47.7a1.85 1.85.0 113.7.0v4.76z" id="rect229709-7"/><path class="cls-5" d="M16.79 36h-.1a2.69 2.69.0 102.6 2z" id="path230120-6"/><path class="cls-3" d="M32.08 26l-4.56 2.76L26 33.93V52.05h12.1V33.93l-.55-3.76z" id="path216327"/><path class="cls-4" d="M30.15 52.46V47.7a1.85 1.85.0 013.7.0v4.76z" id="path230693-9"/><path class="cls-5" d="M34.68 37.36A2.68 2.68.0 1132 34.68a2.68 2.68.0 012.68 2.68z" id="path230695-3"/><path class="cls-3" d="M41.27 33.93V52.05H53.36V33.93l-.2-5-5.1-3.22-5.75 2.59z" id="path230697-7"/><path class="cls-4" d="M45.46 52.46V47.7a1.85 1.85.0 113.7.0v4.76z" id="path230701-5"/><path class="cls-5" d="M50 38.71A2.69 2.69.0 1147.31 36 2.68 2.68.0 0150 38.71z" id="path230703-2"/><path class="cls-6" d="M20 28.14v8.57a1.62 1.62.0 11-3.23.0V28.2a1.55 1.55.0 010-.31l1.64-.73z" id="path232139-4"/><path class="cls-2" d="M16.69 24.66A7.67 7.67.0 009 32.32a1.61 1.61.0 103.22.0 4.44 4.44.0 118.87.0 1.61 1.61.0 003.22.0 7.67 7.67.0 00-7.62-7.66z" id="path226596-4"/><path class="cls-2" d="M32 24.66a7.68 7.68.0 00-7.66 7.66 1.61 1.61.0 003.22.0 4.44 4.44.0 118.88.0 1.61 1.61.0 103.22.0A7.68 7.68.0 0032 24.66z" id="path230691-6"/><path class="cls-2" d="M47.31 24.66a7.67 7.67.0 00-7.65 7.66 1.61 1.61.0 103.22.0 4.44 4.44.0 118.87.0 1.61 1.61.0 103.22.0 7.67 7.67.0 00-7.66-7.66z" id="path230699-4"/><path class="cls-4" d="M50.12 52.05a1.77 1.77.0 010 3.53h4.12a1.77 1.77.0 000-3.53z" id="path231457"/><path d="M27.3 20.5l.31.18A1 1 0 0029 20.31 1 1 0 0028.61 19l-.31-.18a1 1 0 10-1 1.73z"/><path d="M23.06 18.06a1 1 0 001.37-.37 1 1 0 00-.36-1.36l-.31-.18a1 1 0 00-1.37.36 1 1 0 00.37 1.37z"/><path d="M22.39 20.31a1 1 0 001.37.37l.3-.18a1 1 0 00.37-1.36 1 1 0 00-1.37-.37l-.3.18A1 1 0 0022.39 20.31z"/><path d="M27.8 18.19a1 1 0 00.5-.13l.31-.18a1 1 0 10-1-1.73l-.3.18a1 1 0 00-.37 1.36A1 1 0 0027.8 18.19z"/><path d="M24.68 21.21a1 1 0 002 0v-.35a1 1 0 00-2 0z"/><path d="M25.68 17a1 1 0 001-1v-.35a1 1 0 10-2 0V16a1 1 0 001 1z"/><path d="M43 13.31l.31.18a1 1 0 00.5.13 1 1 0 00.5-1.86L44 11.58a1 1 0 00-1.36.36A1 1 0 0043 13.31z"/><path d="M38.47 10.69l.31.17a.9.9.0 00.5.14 1 1 0 00.5-1.87L39.47 9a1 1 0 00-1.36.36A1 1 0 0038.47 10.69z"/><path d="M38.11 13.12a1 1 0 001.36.37l.31-.18a1 1 0 00-1-1.73l-.31.17A1 1 0 0038.11 13.12z"/><path d="M43.51 11a.9.9.0 00.5-.14l.31-.17a1 1 0 00.36-1.37A1 1 0 0043.32 9L43 9.13a1 1 0 00-.36 1.37A1 1 0 0043.51 11z"/><path d="M41.39 15h0a1 1 0 001-1v-.35a1 1 0 00-1-1h0a1 1 0 00-1 1V14a1 1 0 001 1z"/><path d="M41.4 9.78h0a1 1 0 001-1V8.42a1 1 0 00-1-1h0a1 1 0 00-1 1v.35a1 1 0 001 1.01z"/><path d="M54.36 51.07V34.73A2.62 2.62.0 0056 32.32a8.65 8.65.0 00-16.31-4 8.65 8.65.0 00-15.32.0A8.65 8.65.0 008 32.32a2.62 2.62.0 001.61 2.41V51.07a2.76 2.76.0 00.12 5.51H54.24a2.76 2.76.0 00.12-5.51zm-7.9.0V47.7a.86.86.0 01.85-.85.85.85.0 01.86.85v3.35zm.85-6.2a2.85 2.85.0 00-2.85 2.85v3.35H42.27V34.73a2.63 2.63.0 001.61-2.41 3.44 3.44.0 116.87.0 2.63 2.63.0 001.61 2.41V51.05H50.17V47.7a2.85 2.85.0 00-2.86-2.85zm-8.26 6.2V44h1.22v7.06zm-7.9.0V47.7a.85.85.0 011.7.0v3.35zm.85-6.2a2.85 2.85.0 00-2.85 2.85v3.35H27V34.73a2.62 2.62.0 001.61-2.41 3.44 3.44.0 116.88.0 2.62 2.62.0 001.61 2.41V51.05h-2.2V47.7A2.85 2.85.0 0032 44.85zm-8.27 6.2V44H25v7.06zm-7.9.0V47.7a.85.85.0 01.86-.85.86.86.0 01.85.85v3.35zm.86-6.2a2.85 2.85.0 00-2.86 2.85v3.35H11.64V34.73a2.63 2.63.0 001.61-2.41A3.38 3.38.0 0115.79 29v6.14a3.68 3.68.0 104.58 3.56c0-.08.0-.17.0-.25A2.58 2.58.0 0021 36.71V34.27a2.55 2.55.0 00.71.46V51.05H19.54V47.7a2.85 2.85.0 00-2.85-2.85zM19 29.79v6.92a.62.62.0 11-1.23.0V29.07A3.53 3.53.0 0119 29.79zm-3.17 7.47a2.62 2.62.0 002.4 2.06 1.68 1.68.0 11-2.4-2.06zm8.49-2.91a3 3 0 00.61.38V42h-1.2V34.73A2.72 2.72.0 0024.34 34.35zm15.32.0a2.72 2.72.0 00.61.38V42h-1.2V34.73A3 3 0 0039.66 34.35zm7.65-8.69A6.66 6.66.0 0154 32.32a.61.61.0 11-1.22.0 5.44 5.44.0 10-10.87.0.61.61.0 01-1.22.0 6.66 6.66.0 016.62-6.66zM32 25.66a6.67 6.67.0 016.66 6.66.62.62.0 01-.61.61.61.61.0 01-.61-.61 5.44 5.44.0 10-10.88.0.61.61.0 01-.61.61.62.62.0 01-.61-.61A6.67 6.67.0 0132 25.66zm-15.31.0a6.66 6.66.0 016.65 6.66.61.61.0 01-1.22.0 5.44 5.44.0 00-5.43-5.44 5.38 5.38.0 00-5.44 5.44.61.61.0 11-1.22.0A6.66 6.66.0 0116.69 25.66zM54.24 54.58H9.76A.75.75.0 019 53.82a.77.77.0 01.76-.77H54.24a.77.77.0 01.76.77A.75.75.0 0154.24 54.58z"/><circle cx="17.38" cy="21.08" r="1.25"/><circle cx="32.63" cy="12.45" r="1.25"/><circle cx="45.25" cy="19.2" r="1.25"/><path d="M32 33.68a3.68 3.68.0 103.68 3.68A3.68 3.68.0 0032 33.68zM32 39a1.68 1.68.0 111.68-1.68A1.68 1.68.0 0132 39z"/><path d="M47.31 35A3.68 3.68.0 1051 38.71 3.68 3.68.0 0047.31 35zm0 5.36A1.68 1.68.0 1149 38.71a1.68 1.68.0 01-1.69 1.68z"/></g></svg>