<svg width="800" height="800" viewBox="0 0 64 64" xmlns="http://www.w3.org/2000/svg"><defs><style>.cls-1{fill:#d0e1e8;}.cls-2{fill:#748a95;}.cls-3{fill:#e5936b;}.cls-4{fill:#efc89d;}.cls-5{fill:#e17c46;}.cls-6{fill:#dd5891;}.cls-7{fill:#f0f4f7;}.cls-8{fill:#ebb87f;}</style></defs><g data-name="Top Sign" id="Top_Sign"><path class="cls-1" d="M17.87 17.28V9.52a1.52 1.52.0 113 0v7.76l-1.52 2z" id="rect128260-2"/><path class="cls-1" d="M43.09 17.28V9.52a1.52 1.52.0 013 0v7.76l-1.52 2z" id="path128536-8"/><path class="cls-2" d="M15.35 21.16V19.22a1.94 1.94.0 012-1.94h4.18a1.94 1.94.0 011.95 1.94v1.94l-4 2.21z" id="rect127849-5"/><path class="cls-2" d="M40.57 21.16V19.22a1.94 1.94.0 012-1.94H46.7a1.94 1.94.0 011.95 1.94v1.94l-4 2.21z" id="path128214-92"/><path class="cls-3" d="M22.49 21.16H13.65A5.64 5.64.0 008 26.81V50.35A5.64 5.64.0 0013.65 56h36.7A5.64 5.64.0 0056 50.35V26.81a5.64 5.64.0 00-5.65-5.65H40.57l-1.77 1-1.78-1H33.15l-5.33 1z" id="rect121347-2"/><path class="cls-4" d="M44.87 50.91a6.56 6.56.0 016.31-6.8v-11a6.57 6.57.0 01-6.31-6.81H19.13a6.57 6.57.0 01-6.31 6.81v11a6.56 6.56.0 016.31 6.8z" id="path130985-6"/><path class="cls-5" d="M52.41 27.16a2 2 0 11-2-2 2 2 0 012 2z" id="path124823-7"/><path class="cls-5" d="M15.53 27.16a2 2 0 11-2-2 2 2 0 012 2z" id="path124928-9"/><path class="cls-5" d="M52.41 50a2 2 0 11-2-2 2 2 0 012 2z" id="path124930-2"/><path class="cls-5" d="M15.53 50a2 2 0 11-2-2 2 2 0 012 2z" id="path124932-0"/><path class="cls-6" d="M22.94 38.58a2.7 2.7.0 11-2.7-2.7 2.7 2.7.0 012.7 2.7z" id="path124956-2"/><path class="cls-6" d="M34.7 38.58a2.7 2.7.0 11-2.7-2.7 2.7 2.7.0 012.7 2.7z" id="path125061-3"/><path class="cls-6" d="M46.46 38.58a2.7 2.7.0 11-2.7-2.7 2.7 2.7.0 012.7 2.7z" id="path125063-7"/><path class="cls-7" d="M40.57 21.16v7.67a1.78 1.78.0 11-3.55.0V21.16z" id="rect128584-9"/><path class="cls-7" d="M22.49 21.16V32A1.78 1.78.0 1026 32V26.85a1.78 1.78.0 113.55.0 1.78 1.78.0 103.56.0V21.16z" id="path128784-7"/><path class="cls-7" d="M29.59 50.93v3.56a1.52 1.52.0 003 0V49.22a1.69 1.69.0 00-1.69-1.68H25.82a1.68 1.68.0 00-1.68 1.68v1.71z" id="rect130840-3"/><path class="cls-8" d="M48.08 32.18V45a6 6 0 013.1-.87v-11A5.92 5.92.0 0148.08 32.18z" id="path203700"/><path class="cls-5" d="M48 21.16a5.64 5.64.0 015.65 5.65V50.35A5.64 5.64.0 0148 56h2.39A5.64 5.64.0 0056 50.35V26.81a5.64 5.64.0 00-5.65-5.65z" id="path208405"/><path d="M50.35 20.16h-.7v-.94a3 3 0 00-2.52-2.9V9.52a2.52 2.52.0 00-5 0v6.8a3 3 0 00-2.52 2.9v.94H24.43v-.94a3 3 0 00-2.52-2.9V9.52a2.52 2.52.0 10-5 0v6.8a3 3 0 00-2.52 2.9v.94h-.7A6.66 6.66.0 007 26.81V50.35A6.65 6.65.0 0013.65 57h36.7A6.65 6.65.0 0057 50.35V26.81a6.66 6.66.0 00-6.65-6.65zM44.61 9a.52.52.0 01.52.52v6.76h-1V9.52A.52.52.0 0144.61 9zm-2.09 9.28H46.7a.93.93.0 01.95.94v.94H41.57v-.94A1 1 0 0142.52 18.28zM30.59 54.49V50.93a1 1 0 00-1-1H25.14v-.71a.67.67.0 01.68-.68h5.11a.68.68.0 01.69.68v5.27a.51.51.0 01-.52.51A.51.51.0 0130.59 54.49zm.34-8H25.82a2.68 2.68.0 00-2.68 2.68v.69H20.07a7.58 7.58.0 00-6.25-6.73V34a7.58 7.58.0 006.25-6.74h1.42V32A2.78 2.78.0 1027 32V26.85a.78.78.0 01.78-.78.77.77.0 01.77.78 2.77 2.77.0 005.52.4H36v1.58a2.78 2.78.0 105.55.0V27.25h2.36A7.58 7.58.0 0050.18 34v9.19a7.58 7.58.0 00-6.25 6.73H33.62v-.69A2.69 2.69.0 0030.93 46.54zM38 22.16h1.55v6.67a.78.78.0 11-1.55.0zm-2 3.09H34.15V22.16H36zm-3.87 1.6a.78.78.0 01-1.56.0 2.78 2.78.0 10-5.55.0V32a.78.78.0 01-.78.78.77.77.0 01-.77-.78V22.16h8.66zM19.39 9a.52.52.0 01.52.52v6.76h-1V9.52A.52.52.0 0119.39 9zm-3 10.22a1 1 0 01.94-.94h4.19a.93.93.0 01.95.94v.94H16.35zM9 50.35V26.81a4.66 4.66.0 014.65-4.65h7.84v3.09H19.13a1 1 0 00-1 1 5.58 5.58.0 01-5.31 5.81 1 1 0 00-1 1v11a1 1 0 001 1 5.58 5.58.0 015.31 5.8 1 1 0 001 1h9.46v2.56a2.94 2.94.0 00.05.51h-15A4.66 4.66.0 019 50.35zm46 0A4.66 4.66.0 0150.35 55H33.56a2.22 2.22.0 00.06-.51V51.91H44.87a1 1 0 001-1 5.58 5.58.0 015.31-5.8 1 1 0 001-1v-11a1 1 0 00-1-1 5.58 5.58.0 01-5.31-5.81 1 1 0 00-1-1h-3.3V22.16h8.78A4.66 4.66.0 0155 26.81z"/><path d="M50.44 24.19a3 3 0 103 3 3 3 0 00-3-3zm0 3.94a1 1 0 010-1.94 1 1 0 010 1.94z"/><path d="M13.56 30.13a3 3 0 10-3-3 3 3 0 003 3zm0-3.94a1 1 0 11-1 1A1 1 0 0113.56 26.19z"/><path d="M50.44 47a3 3 0 00-3 3 2.9 2.9.0 00.87 2.1 2.94 2.94.0 002.09.87h0a3 3 0 000-5.94zm0 3.94h0a1 1 0 01-.69-.28 1 1 0 01-.28-.69 1 1 0 111 1z"/><path d="M13.56 47a3 3 0 103 3h0a3 3 0 00-3-3zm0 3.94a1 1 0 111-1 1 1 0 01-1 1.06z"/><path d="M20.24 34.88a3.7 3.7.0 103.7 3.7 3.7 3.7.0 00-3.7-3.7zm0 5.4a1.7 1.7.0 111.7-1.7 1.7 1.7.0 01-1.7 1.7z"/><path d="M35.7 38.58a3.7 3.7.0 10-3.7 3.7 3.7 3.7.0 003.7-3.7zM32 40.28a1.7 1.7.0 111.7-1.7A1.7 1.7.0 0132 40.28z"/><path d="M43.76 42.28a3.7 3.7.0 10-3.7-3.7 3.7 3.7.0 003.7 3.7zm0-5.4a1.7 1.7.0 11-1.7 1.7 1.71 1.71.0 011.7-1.7z"/><path d="M35.42 45.13a2.52 2.52.0 005 0v-1a2.52 2.52.0 00-5 0zm2-1a.5.5.0 01.51-.51.51.51.0 01.52.51v1a.51.51.0 01-.52.51.5.5.0 01-.51-.51z"/></g></svg>