<svg width="800" height="800" viewBox="0 0 64 64" xmlns="http://www.w3.org/2000/svg"><defs><style>.cls-1{fill:#748a95;}.cls-2{fill:#f0f4f7;}.cls-3{fill:#f6e782;}.cls-4{fill:#e0e9ee;}.cls-5{fill:#d0e1e8;}.cls-6{fill:#dd5891;}.cls-7{fill:#617880;}.cls-8{fill:#f5d96d;}</style></defs><g id="Taxi"><path class="cls-1" d="M24.63 19.88V16.29a1.43 1.43.0 011.44-1.44H34.7a1.43 1.43.0 011.44 1.44v3.59L30.8 22z" id="path57404-4"/><path class="cls-2" d="M33.18 16.37a1.52 1.52.0 100-3H28.64a1.52 1.52.0 000 3z" id="rect30373-7-5"/><path class="cls-1" d="M56 39.69 32.11 37 8 39.69v2.66a2.83 2.83.0 002.83 2.83H54.08A1.92 1.92.0 0056 43.26z" id="path53481-30"/><path class="cls-3" d="M45.94 32.62l-4.15-8.45a7.09 7.09.0 00-6.24-4.32H25.22c-2.89.0-5.23 1.83-6.71 4.32l-5 8.45L8 36.42v3.27H56V38.17a5.62 5.62.0 00-6.09-5.55h-.55l-1.71 1.61z" id="path89747"/><path class="cls-4" d="M24.52 23.74a4.56 4.56.0 00-2.74 2.37l-4.49 7.53H42.1l-3.72-7.8c-.73-1.53-1.71-2.18-2.83-2.18h-2z" id="path59218-3"/><path class="cls-5" d="M33.56 23.66h-1.28a3.27 3.27.0 012.52 2.16l3.73 7.8H42.1l-3.72-7.8c-.73-1.53-1.71-2.18-2.83-2.18z" id="path104187"/><path class="cls-2" d="M24.52 19.89v4.76a1.51 1.51.0 103 0v-.14a1.51 1.51.0 013 0V27a1.51 1.51.0 103 0V19.85z" id="rect57533-9"/><path class="cls-6" d="M8 36.42h5.47v-3.8H10.83A2.83 2.83.0 008 35.45z" id="path89285"/><path class="cls-7" d="M24.77 45.18a5.49 5.49.0 11-5.48-5.49 5.48 5.48.0 015.48 5.49z" id="path53485-4"/><path class="cls-7" d="M49.55 45.18a5.49 5.49.0 11-5.48-5.49 5.48 5.48.0 015.48 5.49z" id="path53483-4"/><path class="cls-4" d="M46 45.18a2 2 0 11-2-2 1.95 1.95.0 012 2z" id="path53475-6"/><path class="cls-4" d="M21.24 45.18a1.95 1.95.0 11-1.95-2 2 2 0 011.95 2z" id="path53473-8"/><path class="cls-7" d="M52.82 39.69v3.57a1.92 1.92.0 01-1.92 1.92h3.18A1.92 1.92.0 0056 43.26V39.69z" id="path99153"/><path class="cls-8" d="M45.94 32.62l-4.15-8.45a7.09 7.09.0 00-6.24-4.32H32.37a7.09 7.09.0 016.24 4.32l4.14 8.45zm3.42.0-.34.32c3.79 1.18 3.8 5.23 3.8 5.23v1.52H56V38.17a5.62 5.62.0 00-6.09-5.55z" id="path99155"/><path class="cls-2" d="M49.36 32.62v2.56a1.71 1.71.0 01-3.42.0V32.62z" id="rect59345-0"/><circle cx="10.98" cy="27.74" r="1.25"/><circle cx="16.96" cy="14.67" r="1.25"/><circle cx="49.92" cy="24.04" r="1.25"/><circle cx="32" cy="36.77" r="1.25"/><path d="M49.91 31.62H46.56l-3.87-7.89a8.33 8.33.0 00-5.55-4.68V16.29A2.44 2.44.0 0035.54 14a2.52 2.52.0 00-2.36-1.68H28.64a2.51 2.51.0 00-2.3 1.52h-.27a2.44 2.44.0 00-2.44 2.44V19a9.39 9.39.0 00-6 4.61l-4.75 8H10.83A3.83 3.83.0 007 35.45v6.9a3.84 3.84.0 003.83 3.83h2.06a6.48 6.48.0 0012.8.0h12a6.48 6.48.0 0012.8.0h3.61A2.92 2.92.0 0057 43.26V38.17c0-2.27-1.48-6.55-7.09-6.55zm-3 2h1.42v1.56a.71.71.0 01-1.42.0zM28.64 14.33h4.54a.52.52.0 010 1H28.64a.51.51.0 01-.51-.52h0A.51.51.0 0128.64 14.33zm-2.57 1.52h.27a2.51 2.51.0 002.3 1.52h4.54a2.49 2.49.0 002-1v2.44H25.63V16.29A.43.43.0 0126.07 15.85zm-2.44 9.5a2.5 2.5.0 004.9-.7v-.14A.5.5.0 0129 24a.5.5.0 01.51.5V27a2.52 2.52.0 002 2.46v3.05l-12.5.11 3.58-6a5.8 5.8.0 011.04-1.27zM33.56 29a2.49 2.49.0 001-2V24.66h1c.49.0 1.22.17 1.93 1.62l3 6.17-6.94.06zm-1-2a.51.51.0 11-1 0v-2.5a2.51 2.51.0 00-5 0v.14a.51.51.0 11-1 0v-3.8h7zM19.37 24.68a7.71 7.71.0 014.15-3.56V23a6.17 6.17.0 00-2.6 2.56l-4.49 7.53a1 1 0 00.86 1.52h0l24.81-.22A1 1 0 0043 34a1 1 0 000-1l-3.73-7.6c-1.11-2.27-2.64-2.74-3.72-2.74h-1V20.85h1a6.12 6.12.0 015.35 3.76l4 8.24v2.33a2.71 2.71.0 005.42.0V33.64A4.53 4.53.0 0155 38.17v.52H9V37.42h4.47a1 1 0 001-1V32.89zm18.3 19.5h-12A6.5 6.5.0 0024 40.69H39.4a6.5 6.5.0 00-1.73 3.49zM10.83 33.62h1.64v1.8H9a1.83 1.83.0 011.83-1.8zM9 42.35V40.69h5.61a6.49 6.49.0 00-1.72 3.49H10.83A1.83 1.83.0 019 42.35zm10.29 7.32a4.49 4.49.0 114.48-4.49 4.5 4.5.0 01-4.48 4.49zm24.78.0a4.49 4.49.0 114.48-4.49 4.5 4.5.0 01-4.48 4.49zm10-5.49h-3.6a6.5 6.5.0 00-1.73-3.49H55v2.57A.92.92.0 0154.08 44.18z"/><path d="M44.07 42.23a3 3 0 103 3 2.95 2.95.0 00-3-3zm0 3.9a1 1 0 111-1A1 1 0 0144.07 46.13z"/><path d="M19.29 42.23a3 3 0 102.95 3 2.95 2.95.0 00-2.95-3zm0 3.9a1 1 0 11.95-1A.95.95.0 0119.29 46.13z"/><circle cx="37.3" cy="36.77" r="1.25"/><circle cx="26.7" cy="36.77" r="1.25"/><path d="M48.37 18.53l.3.18a1 1 0 00.5.13 1 1 0 00.5-1.86l-.3-.18a1 1 0 10-1 1.73z"/><path d="M44.13 16.09a1 1 0 001.37-.37 1 1 0 00-.37-1.36l-.3-.18a1 1 0 10-1 1.73z"/><path d="M43.46 18.34a1 1 0 00.87.5 1 1 0 00.5-.13l.3-.17a1 1 0 10-1-1.74l-.3.18A1 1 0 0043.46 18.34z"/><path d="M48 15.72a1 1 0 001.37.37l.31-.18a1 1 0 10-1-1.73l-.3.18A1 1 0 0048 15.72z"/><path d="M46.75 17.89a1 1 0 00-1 1v.35a1 1 0 002 0v-.35a1 1 0 00-1-1z"/><path d="M45.75 14a1 1 0 002 0v-.35a1 1 0 10-2 0z"/></g></svg>