<svg width="800" height="800" viewBox="0 0 64 64" xmlns="http://www.w3.org/2000/svg"><defs><style>.cls-1{fill:#f0f4f7;}.cls-2{fill:#617880;}.cls-3{fill:#d0e1e8;}.cls-4{fill:#e0e9ee;}.cls-5{fill:#748a95;}.cls-6{fill:#dd5891;}</style></defs><g data-name="Bus Stop" id="Bus_Stop"><path class="cls-1" d="M38.43 10.27h7.72A1.82 1.82.0 0148 12.1v1.24l-7.42 5-2.47-3.94z" id="rect53785-8"/><path class="cls-2" d="M46.07 37.44H15.45V21.28h33.26l.07 14.27z" id="path44345-9"/><path class="cls-3" d="M46.19 49.85V48.69a2.87 2.87.0 015.74.0v1.16l-2.78 1.24z" id="path38854-6"/><path class="cls-3" d="M13.16 21.15h3.57v30.7H13.16z" id="rect40646-6"/><path class="cls-3" d="M47.27 30.24V21.15h3.57v9.09z" id="path41240-3"/><path class="cls-4" d="M25.5 33.45H23a1.48 1.48.0 00-1.49 1.49v7.6l10.46 1 10.46-1v-7.6A1.48 1.48.0 0041 33.45H35.12l-1.56 1.19L32 33.45H28.62l-1.56 1.19z" id="rect41690-9"/><path class="cls-3" d="M21.54 44.61h2.89v6.52H21.54z" id="rect43810-8"/><path class="cls-3" d="M39.57 44.61h2.89v6.52H39.57z" id="path43915-1"/><path class="cls-1" d="M28.62 33.45V37.2a1.56 1.56.0 11-3.12.0V33.45z" id="path58352-8"/><path class="cls-1" d="M35.12 33.45v2a1.56 1.56.0 01-3.12.0v-2z" id="path58491-5"/><path class="cls-5" d="M14 13.34h-.79a1.9 1.9.0 00-1.91 1.91v6a1.9 1.9.0 001.91 1.9H50.84a1.9 1.9.0 001.91-1.9v-6a1.9 1.9.0 00-1.91-1.91H23.71l-3.24-2-3.57 2z" id="path47019-5"/><path class="cls-1" d="M16.9 13.34v4.93a1.48 1.48.0 01-2.95.0V12a1.82 1.82.0 011.83-1.83h6.1A1.82 1.82.0 0123.71 12v1.33z" id="path50248-0"/><path class="cls-5" d="M10.31 49.85H53.69a2.31 2.31.0 110 4.62H10.31a2.31 2.31.0 010-4.62z" id="rect113708-1-5"/><path class="cls-2" d="M47.74 49.85a2.31 2.31.0 110 4.62h5.95a2.31 2.31.0 100-4.62z" id="path459150"/><path class="cls-1" d="M21.54 42.54H42.46a1.67 1.67.0 010 3.34H21.54a1.67 1.67.0 110-3.34z" id="rect42501-4"/><path class="cls-6" d="M54.7 33.73a5.65 5.65.0 11-5.64-5.64 5.65 5.65.0 015.64 5.64z" id="path39412-7"/><path class="cls-1" d="M51.39 33.73a2.33 2.33.0 11-2.33-2.33 2.33 2.33.0 012.33 2.33z" id="path39671-3"/><path class="cls-3" d="M42.46 42.54v-7.6A1.48 1.48.0 0041 33.45H38.31a1.48 1.48.0 011.48 1.49v7.6z" id="path472420"/><path class="cls-4" d="M39.25 42.54a1.67 1.67.0 010 3.34h3.21a1.67 1.67.0 000-3.34z" id="path476359"/><path class="cls-1" d="M34.61 17.72V28.31a1.78 1.78.0 103.55.0V23.08a1.78 1.78.0 113.55.0 1.78 1.78.0 003.56.0V13.34l-2.64-.94-4.63.94z" id="path128784-6-0-7"/><path class="cls-3" d="M25.41 9.53H38.59a1.7 1.7.0 011.7 1.71V16a1.71 1.71.0 01-1.7 1.71H25.41A1.71 1.71.0 0123.71 16V11.24a1.7 1.7.0 011.7-1.71z" id="rect44680-3"/><path class="cls-1" d="M30.41 9.53v3.75a1.56 1.56.0 11-3.12.0V9.53z" id="rect47362-9"/><path class="cls-2" d="M46.85 13.34a1.9 1.9.0 011.9 1.91v6a1.9 1.9.0 01-1.9 1.9h4a1.9 1.9.0 001.91-1.9v-6a1.9 1.9.0 00-1.91-1.91z" id="path488385"/><path d="M10.31 55.47H53.69a3.31 3.31.0 100-6.62h-.76v-.16A3.86 3.86.0 0050.06 45V40.3a6.64 6.64.0 001.78-12.59V24a2.89 2.89.0 001.91-2.71v-6a2.91 2.91.0 00-2.91-2.91H49V12.1a2.83 2.83.0 00-2.83-2.83H40.43a2.65 2.65.0 00-1.84-.74H25.41a2.7 2.7.0 00-2.12 1 2.84 2.84.0 00-1.41-.39h-6.1A2.83 2.83.0 0013 12v.35a2.9 2.9.0 00-2.7 2.89v6A2.89 2.89.0 0012.16 24V48.85H10.31a3.31 3.31.0 000 6.62zm40.62-6.78v.16H47.19v-.16a1.87 1.87.0 013.74.0zm-7.47.16V46.68a2.66 2.66.0 000-4.94v-3.3h.91a6.66 6.66.0 003.69 1.86V45a3.85 3.85.0 00-2.87 3.72v.16zm-18 0v-2H38.57v2zm-7.7.0V38.44h2.81v3.3a2.66 2.66.0 000 4.94v2.17zm15.88-24.7v4.16a2.78 2.78.0 105.55.0V23.08a.78.78.0 01.78-.78.77.77.0 01.77.78 2.78 2.78.0 005.34 1.07h.22v3.56A6.64 6.64.0 0042.46 33a2.5 2.5.0 00-1.49-.5H23a2.48 2.48.0 00-2.49 2.49v1.5H17.73V24.15zm5-5.43A2.71 2.71.0 0041.29 16V14.34h3v8.74a.78.78.0 01-1.56.0 2.78 2.78.0 10-5.55.0v5.23a.78.78.0 11-1.55.0V23.15h0V18.72zM21.54 44.88a.67.67.0 110-1.34H42.46a.67.67.0 010 1.34zm6.08-10.43V37.2a.55.55.0 01-.56.56.55.55.0 01-.56-.56V34.45zm-.56 5.31a2.56 2.56.0 002.56-2.56V34.45H31v1a2.56 2.56.0 005.12.0v-1H41a.48.48.0 01.49.49v6.6H22.54v-6.6a.48.48.0 01.49-.49H24.5V37.2a2.56 2.56.0 002.56 2.56zm7.06-5.31v1a.56.56.0 01-1.12.0v-1zM22.54 46.88h.89v2h-.89zm18 0h.89v2h-.89zM53.7 33.73a4.65 4.65.0 11-4.64-4.64 4.65 4.65.0 014.64 4.64zm-4.64-6.64a6.84 6.84.0 00-.79.05v-3h1.57v3A6.66 6.66.0 0049.06 27.09zm2.69-11.84v6a.91.91.0 01-.9.9H46.27V14.34h4.57A.91.91.0 0151.75 15.25zM47 12.1v.24H41.29V11.27h4.86A.83.83.0 0147 12.1zM28.29 10.53h1.12v2.75a.55.55.0 01-.56.56.55.55.0 01-.56-.56zm-3.58.71a.7.7.0 01.7-.71h.88v2.75a2.56 2.56.0 105.12.0V10.53h7.18a.7.7.0 01.7.71V16a.7.7.0 01-.7.71H25.41a.7.7.0 01-.7-.71zM15 12a.82.82.0 01.83-.83h6.1a.82.82.0 01.83.83v.33H16.9a1 1 0 00-1 1v4.93a.48.48.0 01-1 0zm-2.7 3.24a.9.9.0 01.7-.87v3.89a2.48 2.48.0 004.95.0V14.34h4.81V16a2.71 2.71.0 002.7 2.71h8.2v3.43H13.15a.91.91.0 01-.9-.9zm1.91 8.9h1.57v24.7H14.16zm-3.85 26.7H53.69a1.31 1.31.0 110 2.62H10.31a1.31 1.31.0 110-2.62z"/><path d="M45.73 33.73a3.33 3.33.0 103.33-3.33 3.33 3.33.0 00-3.33 3.33zm4.66.0a1.33 1.33.0 11-1.33-1.33 1.33 1.33.0 011.33 1.33z"/></g></svg>