<svg width="800" height="800" viewBox="0 0 64 64" xmlns="http://www.w3.org/2000/svg"><defs><style>.cls-1{fill:#9be69d;}.cls-2{fill:#e0e9ee;}.cls-3{fill:#748a95;}.cls-4{fill:#617880;}.cls-5{fill:#94d8e5;}.cls-6{fill:#f0f4f7;}.cls-7{fill:#d0e1e8;}.cls-8{fill:#6fd7a3;}</style></defs><g id="Apartement"><path class="cls-1" d="M52.58 52.3V50.17a1.81 1.81.0 00-1.8-1.81h-.43a1.81 1.81.0 00-1.81-1.8H14.43a1.81 1.81.0 00-1.8 1.8H12.2a1.8 1.8.0 00-1.8 1.81V52.3l19.14 2.43z" id="path183937-3"/><path class="cls-2" d="M15.55 52.3v-30l14.09-2.93 17.78 2.93v30L31.19 54z" id="rect179509-7"/><path class="cls-3" d="M42.16 49.2V40.75a1.43 1.43.0 00-1.44-1.44H36.21a1.43 1.43.0 00-1.44 1.44V49.2l5.11 1.41z" id="rect179793-6"/><path class="cls-4" d="M32.67 52.3V50.23a1 1 0 011-1h9.52a1 1 0 011 1V52.3l-6.15 1.57z" id="rect179791-3"/><path class="cls-1" d="M23 39.78a4.21 4.21.0 11-4.21-4.21A4.21 4.21.0 0123 39.78z" id="path182280-1"/><path class="cls-5" d="M20.51 25.25v8.18h22V25.25z" id="rect182961-2"/><path class="cls-6" d="M26 22.27V36.48a1.44 1.44.0 102.87.0v-4a1.44 1.44.0 112.87.0 1.44 1.44.0 002.87.0V22.27l-4.59-2.2z" id="path128784-6-0-2-4-7-1-6-5"/><path class="cls-3" d="M47.42 14.89a1.71 1.71.0 011.72 1.72v3.95a1.71 1.71.0 01-1.72 1.71H15.55a1.71 1.71.0 01-1.72-1.71V16.61a1.71 1.71.0 011.72-1.72H47.42z" id="rect178979-8"/><path class="cls-3" d="M9.85 52.3h44.3a1.85 1.85.0 010 3.7H9.85a1.85 1.85.0 110-3.7z" id="rect179061-9"/><path class="cls-6" d="M27.16 13.41a1.48 1.48.0 000 3H30a1.48 1.48.0 000-3z" id="rect187969-9"/><path class="cls-5" d="M28.81 42.88a1.48 1.48.0 10-3 0v2.85a1.48 1.48.0 003 0z" id="rect187969-3-4"/><path class="cls-4" d="M49.93 52.3a1.85 1.85.0 010 3.7h4.22a1.85 1.85.0 000-3.7z" id="path117545"/><path class="cls-7" d="M44.62 22.27v30h2.81v-30z" id="path142311"/><path class="cls-4" d="M44.62 14.89a1.72 1.72.0 011.72 1.72v3.94a1.71 1.71.0 01-1.72 1.72h2.81a1.71 1.71.0 001.71-1.72V16.61a1.71 1.71.0 00-1.71-1.72z" id="path142313"/><path class="cls-6" d="M35.91 13.41a1.48 1.48.0 100 3h7.7v1.89a1.44 1.44.0 102.87.0V14.89A1.48 1.48.0 0045 13.41z" id="path128784-6-0-2-4-7-1-9-5"/><path class="cls-8" d="M18.82 35.57a4.13 4.13.0 00-1.36.23 4.21 4.21.0 010 8 4.13 4.13.0 001.36.23 4.21 4.21.0 000-8.42z" id="path149295"/><path d="M56.5 31.47l-.31-.18a1 1 0 00-1.36.37A1 1 0 0055.19 33l.31.17a1 1 0 001.37-.36A1 1 0 0056.5 31.47z"/><path d="M52 28.85l-.31-.18a1 1 0 00-1 1.74l.31.17a1 1 0 001.37-.37A1 1 0 0052 28.85z"/><path d="M51 31.29l-.31.18a1 1 0 00.5 1.87 1 1 0 00.5-.14L52 33a1 1 0 00-1-1.74z"/><path d="M56.87 29a1 1 0 00-1.37-.37l-.31.18a1 1 0 00-.36 1.36 1 1 0 00.86.5 1 1 0 00.5-.13l.31-.18A1 1 0 0056.87 29z"/><path d="M53.58 34.74a1 1 0 001-1v-.36a1 1 0 00-2 0v.36a1 1 0 001 1z"/><path d="M54.58 28.14a1 1 0 00-2 0v.35a1 1 0 002 0z"/><path d="M12.85 13.2a1 1 0 00.5-1.87L13 11.16a1 1 0 00-1.37.36A1 1 0 0012 12.89l.31.17A.93.93.0 0012.85 13.2z"/><path d="M8.5 8.53a1 1 0 00-1 1.74l.31.17a1 1 0 00.49.14 1 1 0 00.5-1.87z"/><path d="M7.8 11.16l-.3.17A1 1 0 008 13.2a.93.93.0 00.5-.14l.31-.17a1 1 0 00-1-1.73z"/><path d="M13.71 8.9a1 1 0 00-1.36-.37L12 8.71a1 1 0 00.5 1.87 1 1 0 00.5-.14l.31-.17a1 1 0 00.4-1.37z"/><path d="M9.42 13.6a1 1 0 002 0v-.35a1 1 0 00-2 0z"/><path d="M9.42 8v.35a1 1 0 002 0V8a1 1 0 00-2 0z"/><circle cx="10.93" cy="35.29" r="1.25"/><circle cx="52.12" cy="13.01" r="1.25"/><path d="M54.15 51.3h-.57V50.17a2.82 2.82.0 00-2.4-2.78 2.82 2.82.0 00-2.64-1.83h-.12V23.08a2.71 2.71.0 001.72-2.52V16.61a2.72 2.72.0 00-2.72-2.72h-.15A2.49 2.49.0 0045 12.41H35.91a2.48 2.48.0 00-2.27 1.48H32.27A2.47 2.47.0 0030 12.41H27.16a2.49 2.49.0 00-2.27 1.48H15.55a2.72 2.72.0 00-2.72 2.72v3.95a2.73 2.73.0 001.72 2.52V36.81a5.21 5.21.0 000 5.94v2.81h-.12a2.81 2.81.0 00-2.63 1.83 2.81 2.81.0 00-2.4 2.78v1.17A2.85 2.85.0 009.85 57h44.3a2.85 2.85.0 000-5.7zm-5.61-3.74a.8.8.0 01.81.8 1 1 0 001 1h.43a.8.8.0 01.8.81V51.3H48.42V47.56zM45.26 51.3V50.23a2 2 0 00-2-2h-.06V40.75a2.44 2.44.0 00-2.44-2.44H36.21a2.44 2.44.0 00-2.44 2.44V48.2h-.06a2 2 0 00-2 2V51.3H19.82V44.89a5.21 5.21.0 00-1-10.32 5.14 5.14.0 00-2.27.55V23.27H25v1H20.51a1 1 0 00-1 1v8.18a1 1 0 001 1H25v2a2.44 2.44.0 104.87.0v-2h1.81a2.45 2.45.0 001.49.52 2.4 2.4.0 001.49-.52h7.77a1 1 0 001-1v-8.2a1 1 0 00-1-1H35.65v-1H46.42v28zm-11.57.0v-1.1h9.55v1.1zm7.47-3.1H35.77V40.75a.43.43.0 01.44-.44h4.51a.43.43.0 01.44.44zM16.55 51.3V44.44a5 5 0 001.27.45V51.3zM18.82 43A3.21 3.21.0 1122 39.78 3.21 3.21.0 0118.82 43zM33.65 23.27v9.25a.44.44.0 01-.87.0 2.44 2.44.0 10-4.87.0v4a.44.44.0 11-.87.0V23.27zm2 3h5.82v6.18H35.65zm-4.89 6.18h-.83a.42.42.0 01.83.0zm-5.72.0H21.51v-6.2H25zm10.87-18H45a.47.47.0 01.48.48h0v3.37a.44.44.0 11-.87.0V16.37a1 1 0 00-1-1h-7.7a.48.48.0 010-1zm-8.75.0H30a.47.47.0 01.48.48h0a.47.47.0 01-.48.48H27.16a.48.48.0 110-1zm-12.33 2.2a.71.71.0 01.72-.72h9.34a2.49 2.49.0 002.27 1.48H30a2.47 2.47.0 002.26-1.48h1.37a2.47 2.47.0 002.27 1.48h6.7v.89a2.44 2.44.0 104.87.0V15.9a.7.7.0 01.66.71v3.95a.71.71.0 01-.72.71H15.55a.71.71.0 01-.72-.71zM12.2 49.36h.43a1 1 0 001-1 .8.8.0 01.8-.8h.12V51.3H11.4V50.17A.8.8.0 0112.2 49.36zm42 5.64H9.85A.84.84.0 019 54.15a.85.85.0 01.85-.85h44.3a.85.85.0 010 1.7z"/><path d="M27.33 40.4a2.48 2.48.0 00-2.48 2.48v2.85a2.48 2.48.0 005 0V42.88A2.48 2.48.0 0027.33 40.4zm.48 5.33a.48.48.0 01-1 0V42.88a.48.48.0 011 0z"/></g></svg>