<svg width="800" height="800" viewBox="0 0 64 64" xmlns="http://www.w3.org/2000/svg"><defs><style>.cls-1{fill:#748a95;}.cls-2{fill:#f0f4f7;}.cls-3{fill:#dd5891;}.cls-4{fill:#e0e9ee;}.cls-5{fill:#d9387c;}</style></defs><g data-name="No Entry Post" id="No_Entry_Post"><path class="cls-1" d="M34.11 34.18V53.89a2.11 2.11.0 01-4.22.0V34.16z" id="path157580-7"/><path class="cls-2" d="M41.7 31.86v6.93a1.69 1.69.0 103.38.0V23.08l-4.8.76z" id="path161387-4"/><path class="cls-2" d="M26.55 33v5.38a1.7 1.7.0 01-3.39.0V30.73z" id="path161793-5"/><path class="cls-3" d="M39.52 12.38a13.08 13.08.0 11-15 0l6.66-2.09z" id="path157225-4"/><path class="cls-4" d="M36.68 16a8.53 8.53.0 11-9.36.0l4.54-2.89z" id="path160907-1"/><path class="cls-5" d="M36.22 12.38a13.08 13.08.0 01-5.87 23.68 14.92 14.92.0 001.65.1 13.08 13.08.0 007.52-23.78L36.91 11z" id="path246444"/><path class="cls-2" d="M32 8a15.09 15.09.0 00-6.7 1.57 2 2 0 101.78 3.58l.24-.11v5.19a1.56 1.56.0 003.12.0V16.42a1.56 1.56.0 013.12.0v9.27a1.56 1.56.0 003.12.0V13l.25.11A2 2 0 1038.7 9.57 15.09 15.09.0 0032 8z" id="path159059-8"/><circle cx="21.3" cy="45.54" r="1.25"/><circle cx="46.33" cy="13.63" r="1.25"/><path d="M50.52 48.1l-.31-.17a1 1 0 00-1.37.36 1 1 0 00.37 1.37l.3.17A1 1 0 0050 50a1 1 0 00.87-.5A1 1 0 0050.52 48.1z"/><path d="M45.67 45.3a1 1 0 00-1.37.37A1 1 0 0044.67 47l.3.18a1 1 0 00.5.14 1 1 0 00.5-1.87z"/><path d="M45.17 50a1 1 0 00.5-.14l.3-.17a1 1 0 10-1-1.73l-.3.17a1 1 0 00.5 1.87z"/><path d="M50.88 45.67a1 1 0 00-1.37-.37l-.3.18a1 1 0 00.5 1.87 1 1 0 00.5-.14l.31-.18A1 1 0 0050.88 45.67z"/><path d="M47.59 51.37h0a1 1 0 001-1V50a1 1 0 00-1-1h0a1 1 0 00-1 1v.35a1 1 0 001 1.02z"/><path d="M46.59 44.77v.35a1 1 0 102 0v-.35a1 1 0 00-2 0z"/><path d="M18 36l.3.17a.93.93.0 00.5.14 1 1 0 00.5-1.87L19 34.3A1 1 0 1018 36z"/><path d="M13.79 33.58a1 1 0 001.37-.36 1 1 0 00-.37-1.37l-.3-.18a1 1 0 00-1 1.74z"/><path d="M13.12 35.84a1 1 0 00.87.5.93.93.0 00.5-.14l.3-.17a1 1 0 00.37-1.37 1 1 0 00-1.37-.36l-.3.17A1 1 0 0013.12 35.84z"/><path d="M18.53 33.72a1 1 0 00.5-.14l.3-.17a1 1 0 10-1-1.74l-.3.18a1 1 0 00.5 1.87z"/><path d="M16.41 35.39a1 1 0 00-1 1v.35a1 1 0 002 0v-.35a1 1 0 00-1-1z"/><path d="M17.41 31.14a1 1 0 00-2 0v.35a1 1 0 002 0z"/><path d="M43.39 41.48a2.68 2.68.0 002.69-2.69V23.08a14.1 14.1.0 00-5.35-11 3 3 0 00-1.58-3.39 16.38 16.38.0 00-14.3.0 3 3 0 00-1.58 3.39 14 14 0 00-1.11 21.08v5.21a2.7 2.7.0 005.39.0V36.43c.44.15.89.27 1.34.38V53.89a3.11 3.11.0 006.22.0V36.81a14 14 0 005.59-2.68v4.66A2.69 2.69.0 0043.39 41.48zm.69-2.69a.69.69.0 11-1.38.0V32.22a15.5 15.5.0 001.38-1.94zM25.74 10.47a14.33 14.33.0 0112.52.0.94.94.0 01.5.57 1 1 0 01-1.39 1.22l-.26-.13a1 1 0 00-1 .06 1 1 0 00-.46.85V25.69a.56.56.0 11-1.12.0V16.42a2.56 2.56.0 10-5.12.0v1.81a.56.56.0 11-1.12.0V13.57a6.09 6.09.0 011.51-.74 1 1 0 00-.41-2 9.06 9.06.0 00-2.61 1.3l-.18.09a1 1 0 01-.89-1.79zm6.82 11.76-2.05-2.05a2.55 2.55.0 00.93-1.95V16.42a.56.56.0 111.12.0zM26 18.52l.41.41a2.55 2.55.0 001.75 1.75l4.38 4.38v.63a2.56 2.56.0 002.56 2.56 2.6 2.6.0 00.56-.07l.88.88A7.45 7.45.0 0132 30.61h0a7.52 7.52.0 01-6-12.09zm12 9.12L37.31 27a2.49 2.49.0 00.37-1.29V18.16a7.47 7.47.0 01.3 9.48zM25.55 38.35a.7.7.0 01-1.39.0V34.78c.45.29.91.56 1.39.81zm7.56 15.54a1.11 1.11.0 01-2.22.0V37.11c.37.0.74.0 1.11.0s.74.0 1.11.0zM32 35.16a12.06 12.06.0 01-7.63-21.42 3.25 3.25.0 00.86.47 2.91 2.91.0 001.09.15v1.1A9.51 9.51.0 0032 32.61h0a9.51 9.51.0 005.68-17.15v-1.1a3 3 0 002-.62A12.06 12.06.0 0132 35.16z"/></g></svg>