<svg width="800" height="800" viewBox="0 0 64 64" xmlns="http://www.w3.org/2000/svg"><defs><style>.cls-1{fill:#e0e9ee;}.cls-2{fill:#d0e1e8;}.cls-3{fill:#748a95;}.cls-4{fill:#f0f4f7;}.cls-5{fill:#617880;}</style></defs><g id="Fountain"><path class="cls-1" d="M21.73 40.68 32 39.2l10.27 1.48V47.3L32 48.78 21.73 47.3z" id="rect25464-1"/><path class="cls-1" d="M25.79 27.79 32 26.27l6.22 1.52v7.65L32 37l-6.21-1.52z" id="rect25546-8"/><path class="cls-1" d="M28.83 22.54V14.89l3-1.14 3.32 1.14v6L33.1 24.05z" id="path26015-7"/><path class="cls-2" d="M31.85 13.75 30 14.44l1.33.45v8.3L30 23l3.09 1.09 2.07-3.16v-6zM32 26.27l-1.91.46 4.31 1.06v7.65l-4.31 1.05L32 37l6.22-1.52V27.79zM32 39.2l-1.91.28 8.37 1.2V47.3l-8.37 1.21 1.91.28L42.28 47.3V40.68z" id="path68607"/><path class="cls-3" d="M25.6 9.65h-.87a4.22 4.22.0 104.1 5.24h6.34a4.22 4.22.0 104.1-5.24H25.6z" id="rect23487-6"/><path class="cls-4" d="M33.56 27.79v1.86a1.56 1.56.0 01-3.12.0V27.79L32 26.86z" id="path66052-6"/><path class="cls-3" d="M21.69 22.54a4.23 4.23.0 104.1 5.25H38.22a4.22 4.22.0 008.32-1c0-4-4.23-4.23-4.23-4.23z" id="path34660-6"/><path class="cls-4" d="M37.67 40.68v1.86a1.56 1.56.0 11-3.11.0V40.68l1.56-1z" id="path65818-3"/><path class="cls-3" d="M17.63 35.44a4.22 4.22.0 104.1 5.24H42.27a4.22 4.22.0 104.1-5.24z" id="path24745-2"/><path class="cls-3" d="M24.38 47.3H16.76A3.8 3.8.0 0013 51.11V54.5a1.5 1.5.0 001.5 1.5H49.54A1.5 1.5.0 0051 54.5V51.11a3.8 3.8.0 00-3.8-3.81H43.83l-1.55 1.15-1.56-1.15H27.49l-1.55 1.15z" id="rect25315-6"/><path class="cls-5" d="M36 9.65a4.22 4.22.0 011.65 8.11 4.22 4.22.0 101.64-8.11H36zM25.54 14.89a4.21 4.21.0 01-2.45 2.87 4.23 4.23.0 005.74-2.87z" id="path65583"/><path class="cls-5" d="M39 22.54s4.22.19 4.22 4.23a4.21 4.21.0 01-2.58 3.88 4.11 4.11.0 001.64.34 4.23 4.23.0 004.23-4.22c0-4-4.23-4.23-4.23-4.23zM22.5 27.79A4.23 4.23.0 0120 30.65a4.13 4.13.0 001.65.34 4.24 4.24.0 004.1-3.2z" id="path65585"/><path class="cls-5" d="M43.09 35.44a4.22 4.22.0 011.64 8.11 4.29 4.29.0 001.64.33 4.22 4.22.0 100-8.44zM18.44 40.68A4.23 4.23.0 0116 43.55a4.3 4.3.0 001.65.33 4.23 4.23.0 004.1-3.2z" id="path65587"/><path class="cls-5" d="M44.43 47.3a3.8 3.8.0 013.8 3.81V54.5a1.5 1.5.0 01-1.5 1.5h2.81A1.5 1.5.0 0051 54.5V51.11a3.8 3.8.0 00-3.8-3.81z" id="path65600"/><path class="cls-4" d="M36.75 11.29a1.65 1.65.0 100-3.29H27.24a1.65 1.65.0 000 3.29z" id="rect28667-9"/><path class="cls-4" d="M33.65 20.9a1.65 1.65.0 100 3.29h2.48v2.13a1.46 1.46.0 102.92.0V24.19h1.62a1.65 1.65.0 000-3.29z" id="path34063-2"/><path class="cls-4" d="M26.29 24.19a1.65 1.65.0 100-3.29h-3a1.65 1.65.0 000 3.29z" id="path34863-2"/><path class="cls-4" d="M27.49 47.3v4.17a1.56 1.56.0 11-3.11.0V47.3z" id="rect36029-3"/><path class="cls-4" d="M43.83 47.3v2.8a1.56 1.56.0 11-3.11.0V47.3z" id="path36172-7"/><circle cx="14.27" cy="19.94" r="1.25"/><circle cx="50.07" cy="31.6" r="1.25"/><path d="M21.69 32a5.27 5.27.0 003.1-1v3.48H17.63a5.22 5.22.0 103.1 9.41V46.3h-4A4.81 4.81.0 0012 51.11V54.5a2.5 2.5.0 002.5 2.5H49.54A2.5 2.5.0 0052 54.5V51.11a4.81 4.81.0 00-4.8-4.81h-4V43.85a5.22 5.22.0 103.1-9.41H39.22V31a5.21 5.21.0 008.32-4.19 5.05 5.05.0 00-4.4-5.13 2.62 2.62.0 00-2.47-1.74h-4.5V18.06a5.22 5.22.0 103.1-9.41H39.2A2.64 2.64.0 0036.75 7H27.24A2.63 2.63.0 0024.8 8.65h-.07a5.22 5.22.0 103.1 9.41v2.33a2.62 2.62.0 00-1.54-.49h-3a2.65 2.65.0 00-2.47 1.73A5.21 5.21.0 0021.69 32zM50 51.11V54.5a.5.5.0 01-.5.5H14.46a.5.5.0 01-.5-.5V51.11a2.81 2.81.0 012.8-2.81h6.62v3.17a2.56 2.56.0 105.11.0V48.3H39.72v1.8a2.56 2.56.0 105.11.0V48.3h2.41A2.81 2.81.0 0150 51.11zM26.49 48.3v3.17a.55.55.0 01-.55.56.56.56.0 01-.56-.56V48.3zm16.34.0v1.8a.56.56.0 11-1.11.0V48.3zm-20.1-2V41.68H33.56v.86a2.56 2.56.0 105.11.0v-.86h2.6V46.3zm13.94-4.62v.86a.55.55.0 01-.55.56.56.56.0 01-.56-.56v-.86zm12.92-2a3.23 3.23.0 01-6.38.7 1 1 0 00-.94-.68H21.73a1 1 0 00-.94.68 3.23 3.23.0 11-3.16-3.92H46.37A3.22 3.22.0 0149.59 39.66zm-22.8-5.22V28.79h2.65v.86a2.56 2.56.0 005.12.0v-.86h2.66v5.65zm5.77-5.65v.86a.56.56.0 01-1.12.0v-.86zm13-2A3.23 3.23.0 0139.35 28a2.44 2.44.0 00.7-1.72V25.19h.62a2.64 2.64.0 002.38-1.52 3 3 0 012.49 3.1zm-4.23-4.23a.64.64.0 01-.64.65H39.05a1 1 0 00-1 1v2.13a.46.46.0 01-.46.47.47.47.0 01-.47-.47V24.19a1 1 0 00-1-1H33.65a.65.65.0 01-.65-.65.63.63.0 01.65-.64h7A.63.63.0 0141.31 22.54zM33.65 19.9a2.64 2.64.0 00-2.45 1.64H29.83V15.89h4.34v4zM27.24 9h9.51a.65.65.0 110 1.29H27.24a.65.65.0 010-1.29zm-2.51 8.09a3.22 3.22.0 110-6.44h.07a2.64 2.64.0 002.44 1.64h9.51a2.64 2.64.0 002.45-1.64h.07a3.22 3.22.0 11-3.13 4 1.06 1.06.0 00-1-.76H28.83a1 1 0 00-1 .76 3.22 3.22.0 01-3.1 2.44zm-1.4 4.81h3a.63.63.0 01.65.64.64.64.0 01-.65.65h-3a.64.64.0 01-.64-.65A.63.63.0 0123.33 21.9zm-2.4 1.74a2.66 2.66.0 002.4 1.55h3a2.64 2.64.0 002.45-1.65H31.2a2.64 2.64.0 002.45 1.65h1.47v1.13a2.42 2.42.0 00.05.47H25.79a1.07 1.07.0 00-1 .76 3.22 3.22.0 11-3.88-3.91z"/><path d="M53.62 18.36l.31.18a1 1 0 001.36-.37 1 1 0 00-.36-1.37l-.31-.17a1 1 0 10-1 1.73z"/><path d="M49.08 15.74l.3.17a.93.93.0 00.5.14 1 1 0 00.5-1.87l-.3-.17a1 1 0 00-1.37.36A1 1 0 0049.08 15.74z"/><path d="M49.58 18.67a1 1 0 00.5-.13l.3-.18a1 1 0 00-1-1.73l-.31.17a1 1 0 00.5 1.87z"/><path d="M54.12 16.05a.93.93.0 00.5-.14l.31-.17a1 1 0 00.36-1.37A1 1 0 0053.93 14l-.31.17a1 1 0 00.5 1.87z"/><path d="M52 20.07a1 1 0 001-1v-.35a1 1 0 00-2 0v.35a1 1 0 001 1z"/><path d="M52 14.83a1 1 0 001-1v-.36a1 1 0 10-2 0v.36a1 1 0 001 1z"/><path d="M13.62 31.08l.3.18a1 1 0 001.37-.37 1 1 0 00-.37-1.36l-.31-.18a1 1 0 00-1.36.37A1 1 0 0013.62 31.08z"/><path d="M9.07 28.46l.31.18a1 1 0 00.5.13 1 1 0 00.5-1.86l-.31-.18a1 1 0 00-1 1.73z"/><path d="M9.57 31.39a1 1 0 00.5-.13l.31-.17a1 1 0 10-1-1.74l-.31.18a1 1 0 00.5 1.86z"/><path d="M14.12 28.77a1 1 0 00.49-.13l.31-.18a1 1 0 10-1-1.73l-.31.18a1 1 0 00.51 1.86z"/><path d="M12 32.79h0a1 1 0 001-1v-.36a1 1 0 00-1-1h0a1 1 0 00-1 1v.35a1 1 0 001 1.01z"/><path d="M12 27.55h0a1 1 0 001-1V26.2a1 1 0 00-1-1h0a1 1 0 00-1 1v.35a1 1 0 001 1z"/></g></svg>