<svg width="800" height="800" viewBox="0 0 64 64" xmlns="http://www.w3.org/2000/svg"><defs><style>.cls-1{fill:#617880;}.cls-2{fill:#748a95;}.cls-3{fill:#f0f4f7;}.cls-4{fill:#f6e782;}.cls-5{fill:#dd5891;}</style></defs><g data-name="Wind Sock" id="Wind_Sock"><path class="cls-1" d="M19.85 50.79V10a2 2 0 012-2h0a2 2 0 012 2V50.79z" id="rect58386-4-7-7"/><path class="cls-2" d="M16.59 48.79H27.08a2.64 2.64.0 012.64 2.64v3.06A1.51 1.51.0 0128.21 56H15.46a1.52 1.52.0 01-1.52-1.51V51.43a2.64 2.64.0 012.65-2.64z" id="rect58535-7-1-8"/><path class="cls-3" d="M35.64 28.53V33a1.61 1.61.0 01-3.21.0V28.86l1.52-1z" id="rect63219-4-6-4"/><path class="cls-4" d="M36.59 17l-6.84-.71V29.15l6.84-.72 4.26-5.3z" id="rect81916-3"/><path class="cls-5" d="M40 17.4c-1.15-.11-2.26-.23-3.45-.36V28.43l8.78-.92V23.72l1.33-3z" id="path210928"/><path class="cls-4" d="M48.8 18.32l-2.25 3.56 2.25 5.27L50.68 27a1.68 1.68.0 001.53-1.7V20.21a1.67 1.67.0 00-1.53-1.69z" id="path213155"/><path class="cls-3" d="M48.8 18.32V33.18a1.72 1.72.0 11-3.43.0V23.72a1.34 1.34.0 00-2.67.0 1.33 1.33.0 01-2.66.0V17.4z" id="path76528-7-5"/><path class="cls-1" d="M23 48.79a2.64 2.64.0 012.65 2.64v3.06A1.51 1.51.0 0124.18 56h4a1.51 1.51.0 001.51-1.51V51.43a2.64 2.64.0 00-2.64-2.64z" id="path224916"/><circle cx="29.48" cy="34.86" r="1.25"/><path d="M38.53 41.35l-.31-.18a1 1 0 00-1.37.37 1 1 0 00.37 1.36l.31.18a1 1 0 00.5.13 1 1 0 00.86-.5A1 1 0 0038.53 41.35z"/><path d="M33 40.46a1 1 0 001.37-.37A1 1 0 0034 38.73l-.31-.18a1 1 0 10-1 1.73z"/><path d="M33 41.17l-.31.18a1 1 0 00-.37 1.36 1 1 0 00.87.5 1 1 0 00.5-.13l.3-.17a1 1 0 00-1-1.74z"/><path d="M37.53 38.55l-.31.18a1 1 0 00-.37 1.36 1 1 0 001.37.37l.31-.18a1 1 0 00-1-1.73z"/><path d="M35.6 42.26a1 1 0 00-1 1v.35a1 1 0 002 0v-.35a1 1 0 00-1-1z"/><path d="M35.6 37a1 1 0 00-1 1v.35a1 1 0 002 0V38a1 1 0 00-1-1z"/><path d="M50.78 17.52 29.86 15.33a1.67 1.67.0 00-.63.15l-4.41 2.73V10a3 3 0 00-6 0V47.79H16.59a3.65 3.65.0 00-3.65 3.64v3.06A2.52 2.52.0 0015.46 57H28.21a2.51 2.51.0 002.51-2.51V51.43a3.64 3.64.0 00-3.64-3.64H24.82V27.26L29.23 30a1 1 0 00.63.15L31.43 30v3a2.61 2.61.0 005.21.0V29.43l7.73-.81v4.56a2.72 2.72.0 105.43.0V28.05l1-.1a2.66 2.66.0 002.43-2.69V20.21a2.67 2.67.0 00-2.45-2.69zM28.72 51.43v3.06a.51.51.0 01-.51.51H15.46a.51.51.0 01-.52-.51V51.43a1.65 1.65.0 011.65-1.64H27.08a1.64 1.64.0 011.64 1.64zm-7.87-3.64V10a1 1 0 012 0V47.79zm4-27.23 3.93-2.43v9.22l-3.93-2.44zm5.93-3.12 4.84.5v9.59l-4.84.5zM34.64 33a.6.6.0 01-.61.6.59.59.0 01-.6-.6V29.77l1.21-.13zm3-5.72V18.15L39 18.3v5.42a2.33 2.33.0 004.66.0.34.34.0 01.67.0v2.89zm9.5 6.58a.72.72.0 01-.72-.72V23.72a2.34 2.34.0 00-4.67.0.33.33.0 11-.66.0V18.51l6.76.71v14A.71.71.0 0147.09 33.9zm4.12-8.64a.68.68.0 01-.63.7L49.8 26V19.43l.78.08a.68.68.0 01.63.7z"/><circle cx="13.04" cy="20.42" r="1.25"/><path d="M47.11 14.18l.31.18a1 1 0 001-1.73l-.31-.18a1 1 0 10-1 1.73z"/><path d="M42.87 11.74a1 1 0 001.37-.37A1 1 0 0043.88 10l-.31-.18a1 1 0 10-1 1.73z"/><path d="M42.2 14a1 1 0 001.37.37l.3-.18a1 1 0 00-1-1.73l-.31.18A1 1 0 0042.2 14z"/><path d="M47.61 11.87a1 1 0 00.5-.13l.31-.18a1 1 0 00-1-1.73l-.31.17a1 1 0 00.5 1.87z"/><path d="M44.49 14.89a1 1 0 002 0v-.35a1 1 0 00-2 0z"/><path d="M45.49 10.65a1 1 0 001-1V9.29a1 1 0 00-2 0v.36a1 1 0 001 1z"/><circle cx="42.27" cy="47.81" r="1.25"/></g></svg>