<svg width="800" height="800" viewBox="0 0 64 64" xmlns="http://www.w3.org/2000/svg"><defs><style>.cls-1{fill:#f0f4f7;}.cls-2{fill:#748a95;}.cls-3{fill:#dd5891;}.cls-4{fill:#e0e9ee;}.cls-5{fill:#d0e1e8;}.cls-6{fill:#617880;}.cls-7{fill:#d9387c;}</style></defs><g id="Car"><path class="cls-1" d="M44.39 31.94h5a1.58 1.58.0 011.58 1.58v1.64l-3.29 2.08-4.9-2.14z" id="rect66028-8"/><path class="cls-2" d="M56 42.18l-23.89-2.7L8 42.18v2.65a2.84 2.84.0 002.83 2.84H54.08A1.92 1.92.0 0056 45.75z" id="path53481-30-3"/><path class="cls-3" d="M45.94 35.1l-4.15-8.45a7.09 7.09.0 00-6.24-4.31H25.22c-2.89.0-5.23 1.83-6.71 4.31l-5 8.45L8 38.9v3.28H56V40.66a5.63 5.63.0 00-6.09-5.56h-.55l-1.71 1.62z" id="path89747-6"/><path class="cls-4" d="M24.6 26.48A4.36 4.36.0 0022 28.73l-4.25 7.14H41.69l-3.53-7.4c-.69-1.44-1.62-2.07-2.68-2.07H33.59z" id="path59218-3-5"/><path class="cls-5" d="M33.59 26.4h-1.21a3.14 3.14.0 012.39 2l3.53 7.4h3.39l-3.53-7.4c-.69-1.44-1.62-2.07-2.68-2.07z" id="path104187-3"/><path class="cls-4" d="M8 38.9h5.47V35.1H10.83A2.83 2.83.0 008 37.93z" id="path89285-5"/><path class="cls-6" d="M24.77 47.67a5.49 5.49.0 11-5.48-5.49 5.48 5.48.0 015.48 5.49z" id="path53485-4-6"/><path class="cls-6" d="M49.55 47.67a5.49 5.49.0 11-5.48-5.49 5.48 5.48.0 015.48 5.49z" id="path53483-4-2"/><path class="cls-4" d="M46 47.67a2 2 0 11-2-2 2 2 0 012 2z" id="path53475-6-9"/><path class="cls-4" d="M21.24 47.67a1.95 1.95.0 11-1.95-2 2 2 0 011.95 2z" id="path53473-8-1"/><path class="cls-6" d="M52.82 42.18v3.57a1.92 1.92.0 01-1.92 1.92h3.18A1.92 1.92.0 0056 45.75V42.18z" id="path99153-2"/><path class="cls-7" d="M45.94 35.1l-4.15-8.45a7.09 7.09.0 00-6.24-4.31H32.37a7.09 7.09.0 016.24 4.31l4.14 8.45zm3.42.0-.34.32c3.79 1.19 3.8 5.24 3.8 5.24v1.52H56V40.66a5.63 5.63.0 00-6.09-5.56z" id="path99155-7"/><path class="cls-1" d="M49.36 35.1v2.57a1.71 1.71.0 11-3.42.0V35.1l1.62-.72z" id="rect59345-0-0"/><path class="cls-1" d="M25.22 20.74A8.44 8.44.0 0020.87 22a11.17 11.17.0 00-3.74 3.87 1.6 1.6.0 102.75 1.64 8 8 0 012.64-2.76 5 5 0 012-.72v4.38a1.51 1.51.0 003 0V27a1.51 1.51.0 113 0v4.22a1.51 1.51.0 103 0V23.94h2a1.6 1.6.0 000-3.2z" id="rect57533-0-6"/><circle cx="13.24" cy="21.99" r="1.25"/><circle cx="53.41" cy="30.53" r="1.25"/><path d="M10.83 48.67h2.06a6.48 6.48.0 0012.8.0h12a6.48 6.48.0 0012.8.0h3.61A2.92 2.92.0 0057 45.75V40.66a6.45 6.45.0 00-5.06-6.34v-.8a2.58 2.58.0 00-2.58-2.58H45l-2.32-4.73a8.71 8.71.0 00-4.6-4.4 2.6 2.6.0 00-2.54-2.07H25.22a9.41 9.41.0 00-4.87 1.37 11.85 11.85.0 00-4.07 4.21 2.57 2.57.0 00-.29 2 2.54 2.54.0 00.43.91L12.9 34.1H10.83A3.84 3.84.0 007 37.93v6.9a3.84 3.84.0 003.83 3.84zm2.64-8.77a1 1 0 001-1V35.38l3.67-6.15a2.67 2.67.0 001-.06A2.55 2.55.0 0020.74 28 7 7 0 0123 25.56c.16-.09.33-.18.49-.25v.5a6 6 0 00-2.38 2.41l-4.25 7.14a1 1 0 00.86 1.51H31.56v4.31H9V39.9zm18.09-6.22v1.19h-12l3.35-5.63a6 6 0 01.66-.9v0a2.51 2.51.0 005 0V27a.51.51.0 01.51-.51.51.51.0 01.51.51v4.22A2.52 2.52.0 0031.56 33.68zm6.11 13h-12A6.47 6.47.0 0024 43.18H39.4a6.47 6.47.0 00-1.73 3.49zM33.56 33.21a2.49 2.49.0 001-2V27.4h1c.3.0 1 0 1.69 1.47l2.86 6H33.56zM9 44.83V43.18h5.61a6.46 6.46.0 00-1.72 3.49H10.83A1.84 1.84.0 019 44.83zm10.29 7.32a4.49 4.49.0 114.48-4.48 4.49 4.49.0 01-4.48 4.48zm24.78.0a4.49 4.49.0 114.48-4.48 4.49 4.49.0 01-4.48 4.48zm10-5.48h-3.6a6.47 6.47.0 00-1.73-3.49H55v2.57A.92.92.0 0154.08 46.67zM46.94 36.1h1.42v1.57a.71.71.0 11-1.42.0zm2.42-3.16a.57.57.0 01.58.58v.58H46.56L46 32.94zM40.9 27.09l4 8.24v2.34a2.71 2.71.0 105.42.0V36.13A4.53 4.53.0 0155 40.66v.52H33.56V36.87h8.13a1 1 0 00.85-.47 1 1 0 00.05-1L39 28c-.82-1.73-2-2.61-3.49-2.61h-1v-.46h1a2.6 2.6.0 002.14-1.13 6.91 6.91.0 013.25 3.29zM18 26.34a10.15 10.15.0 013.39-3.52 7.46 7.46.0 013.84-1.08H35.55a.59.59.0 01.59.56.33.33.0 000 .1.6.6.0 01-.59.54h-2a1 1 0 00-1 1v7.28a.51.51.0 11-1 0V27a2.51 2.51.0 10-5 0v1.37a.51.51.0 01-1 0V24a1 1 0 00-.35-.76 1 1 0 00-.79-.23 6.15 6.15.0 00-2.38.85A8.9 8.9.0 0019 27a.61.61.0 01-.83.21h0a.67.67.0 01-.27-.37A.61.61.0 0118 26.34zM10.83 36.1h1.64v1.8H9a1.84 1.84.0 011.83-1.8z"/><path d="M44.07 44.72a2.95 2.95.0 103 3 2.95 2.95.0 00-3-3zm0 3.89a.95.95.0 111-.94A.95.95.0 0144.07 48.61z"/><path d="M19.29 44.72a2.95 2.95.0 102.95 3 2.95 2.95.0 00-2.95-3zm0 3.89a.95.95.0 11.95-.94A.94.94.0 0119.29 48.61z"/><path d="M49.85 25.58l.3.18a1 1 0 001.37-.37A1 1 0 0051.15 24l-.3-.18a1 1 0 00-1.37.37A1 1 0 0049.85 25.58z"/><path d="M46.31 21.23a1 1 0 00-1 1.73l.31.18a1 1 0 00.5.13 1 1 0 00.5-1.86z"/><path d="M45.81 25.89a1 1 0 00.49-.13l.31-.18A1 1 0 0047 24.22a1 1 0 00-1.37-.37L45.3 24a1 1 0 00.51 1.86z"/><path d="M50.35 23.27a1 1 0 00.5-.13l.3-.18a1 1 0 10-1-1.73l-.31.18a1 1 0 00-.36 1.36A1 1 0 0050.35 23.27z"/><path d="M48.23 24.94h0a1 1 0 00-1 1v.35a1 1 0 001 1h0a1 1 0 001-1v-.36A1 1 0 0048.23 24.94z"/><path d="M49.23 20.69a1 1 0 00-1-1h0a1 1 0 00-1 1v.35a1 1 0 001 1h0a1 1 0 001-1z"/><path d="M23.17 15.74l.3.17a1 1 0 00.5.14 1 1 0 00.5-1.87L24.16 14a1 1 0 00-1 1.74z"/><path d="M18.26 11.75a1 1 0 00.36 1.36l.31.18a1 1 0 00.5.13 1 1 0 00.86-.5 1 1 0 00-.36-1.36l-.31-.18A1 1 0 0018.26 11.75z"/><path d="M19.12 16.05a1 1 0 00.5-.14l.31-.17a1 1 0 00-1-1.74l-.31.18a1 1 0 00.5 1.87z"/><path d="M23.66 13.43a1 1 0 00.5-.14l.31-.18a1 1 0 10-1-1.73l-.31.18a1 1 0 00-.36 1.36A1 1 0 0023.66 13.43z"/><path d="M21.55 15.09a1 1 0 00-1 1v.36a1 1 0 002 0v-.36a1 1 0 00-1-1z"/><path d="M22.55 10.85a1 1 0 10-2 0v.35a1 1 0 002 0z"/><circle cx="37.11" cy="13.83" r="1.25"/></g></svg>