<svg width="800" height="800" viewBox="0 0 64 64" xmlns="http://www.w3.org/2000/svg"><defs><style>.cls-1{fill:#748a95;}.cls-2{fill:#617880;}.cls-3{fill:#f0f4f7;}.cls-4{fill:#f6e782;}.cls-5{fill:#e0e9ee;}</style></defs><g id="Carnival"><path class="cls-1" d="M28 27.37l4-2.45 4 2.45V47.14l-4 2.45-4-2.45z" id="rect41699-4"/><path class="cls-2" d="M36.05 47.14V27.37H32.86V47.14z" id="path350492"/><path class="cls-1" d="M18.32 27.37 20 25.9l1.65 1.47v9.87L20 38.71l-1.64-1.47z" id="rect41848-8"/><path class="cls-1" d="M42.39 27.37 44 25.9l1.64 1.47v9.87L44 38.71l-1.65-1.47z" id="rect41955-1"/><path class="cls-3" d="M14 51.75v-2.3a2.3 2.3.0 012.31-2.31h31.4A2.3 2.3.0 0150 49.45v2.3l-18.82 2z" id="path113813-1-4"/><path class="cls-4" d="M44.5 19.78l4.22 4.11a2 2 0 01-1.42 3.48H16.7a2 2 0 01-1.42-3.48l2.42-2.36L29.37 9.86z" id="path50886-0"/><path class="cls-4" d="M16.64 37.24h6.64a2 2 0 110 4.06H16.64a2 2 0 010-4.06z" id="rect41850-7"/><path class="cls-4" d="M40.72 37.24h6.64a2 2 0 010 4.06H40.72a2 2 0 010-4.06z" id="path41957-7"/><path class="cls-3" d="M32 7.63a7.11 7.11.0 00-5 2l-2.56 2.5A2 2 0 0027.26 15l2.22-2.16v10a2 2 0 104 0v-5.3a2 2 0 014 0v2.92a2 2 0 004 0v-.83l.19.19A2 2 0 0044.47 17L37 9.64A7.11 7.11.0 0032 7.63z" id="path45715-2"/><path class="cls-3" d="M20.57 16.76a2 2 0 00-1.42.57L17.74 18.7a2 2 0 102.79 2.87l1.41-1.38a2 2 0 000-2.83A2 2 0 0020.57 16.76z" id="path47306-7"/><path class="cls-1" d="M12.29 51.75H51.71a2.31 2.31.0 110 4.62H12.29a2.31 2.31.0 010-4.62z" id="rect113708-6-5"/><path class="cls-2" d="M45.91 51.76a2.31 2.31.0 010 4.61h5.8a2.31 2.31.0 100-4.61z" id="path353319"/><path class="cls-5" d="M50 51.76V49.45a2.3 2.3.0 00-2.31-2.31h-4A2.3 2.3.0 0146 49.45v2.31z" id="path357189"/><circle cx="32" cy="32.64" r="1.25"/><path d="M9 54.06a3.31 3.31.0 003.31 3.31h39.4a3.31 3.31.0 100-6.62H51v-1.3a3.31 3.31.0 00-3.31-3.31H37.05V28.37h4.34v7.87h-.67a3 3 0 000 6.06h6.64a3 3 0 000-6.06h-.68V28.37h.62a3 3 0 002.81-1.88 3 3 0 00-.7-3.31l-3.62-3.54a3 3 0 00-.62-3.4l-7.5-7.32a8.16 8.16.0 00-11.34.0l-2.56 2.5a3 3 0 00-.62 3.4l-1.28 1.25a3 3 0 00-1.29-.31h0a3 3 0 00-2.1.85L17 18a3 3 0 00-.91 2.11 3 3 0 00.29 1.29l-1.83 1.79a3 3 0 002.11 5.19h.62v7.87h-.68a3 3 0 000 6.06h6.64a3 3 0 000-6.06h-.67V28.37H27V46.14H16.29A3.31 3.31.0 0013 49.45v1.3h-.69A3.31 3.31.0 009 54.06zM48.39 39.27a1 1 0 01-1 1H40.72a1 1 0 010-2.06h6.64a1 1 0 011.03 1.06zm-3.71-3H43.39v-7.9h1.29zM25.17 12.85l2.56-2.5a6.16 6.16.0 018.54.0l7.5 7.32a1 1 0 010 1.41h0a1 1 0 01-1.41.0l-.19-.19a1 1 0 00-1.09-.21 1 1 0 00-.61.93v.83a1 1 0 01-2 0v-2.9a3 3 0 00-6 0v5.29a1 1 0 11-2 0v-10a1 1 0 00-.61-.92 1 1 0 00-1.09.2l-2.21 2.17a1 1 0 01-.72.28 1 1 0 01-.7-.3 1 1 0 01-.28-.71A1 1 0 0125.17 12.85zm-6.74 6.57L19.85 18a1 1 0 01.7-.28h0a1 1 0 01.7.3 1 1 0 010 1.41l-1.41 1.38a1 1 0 01-1.41.0h0a1 1 0 01-.29-.71A1 1 0 0118.43 19.42zm-2.68 6.31A1 1 0 0116 24.61l1.84-1.79a3 3 0 003.41-.54l1.41-1.37a3 3 0 00.62-3.4l1.29-1.26a3 3 0 001.28.32A3.05 3.05.0 0028 15.72l.52-.51v7.62a3 3 0 106 0V17.54a1 1 0 012 0v2.92a3 3 0 005.88.84 2.67 2.67.0 00.74.08 3 3 0 001.29-.31L48 24.61a1 1 0 01-.72 1.76H16.7A1 1 0 0115.75 25.73zm8.56 13.54a1 1 0 01-1 1H16.64a1 1 0 110-2.06h6.64A1 1 0 0124.31 39.27zm-3.7-3H19.32v-7.9h1.29zM29 28.37h6.1V46.14H29zM15 49.45a1.31 1.31.0 011.31-1.31h31.4A1.31 1.31.0 0149 49.45v1.3H15zm-2.69 3.3h39.4a1.31 1.31.0 110 2.62H12.29a1.31 1.31.0 010-2.62z"/><path d="M53.51 15.09l-.31-.18a1 1 0 00-1 1.74l.3.17A1 1 0 0053 17a1 1 0 00.5-1.87z"/><path d="M47.3 12.66A1 1 0 0047.66 14l.31.18a1 1 0 001.36-.36A1 1 0 0049 12.47l-.31-.18A1 1 0 0047.3 12.66z"/><path d="M47.3 16.46a1 1 0 001.36.36l.31-.17a1 1 0 00.36-1.37A1 1 0 0048 14.92l-.31.17A1 1 0 0047.3 16.46z"/><path d="M51.84 13.83a1 1 0 001.36.37l.31-.18a1 1 0 00.37-1.36 1 1 0 00-1.37-.37l-.3.18A1 1 0 0051.84 13.83z"/><path d="M50.59 16a1 1 0 00-1 1v.36a1 1 0 002 0V17a1 1 0 00-1-1z"/><path d="M49.59 11.76v.35a1 1 0 002 0v-.35a1 1 0 10-2 0z"/><path d="M15 18.22l.31.18a1 1 0 001-1.73L16 16.49a1 1 0 10-1 1.73z"/><path d="M10.79 15.78a1 1 0 00.5.13 1 1 0 00.5-1.87l-.3-.17a1 1 0 10-1 1.73z"/><path d="M10.12 18a1 1 0 001.37.37l.3-.18a1 1 0 00.37-1.36 1 1 0 00-1.36-.37l-.31.18A1 1 0 0010.12 18z"/><path d="M15.53 15.91a1 1 0 00.5-.13l.31-.18a1 1 0 00-1-1.73l-.31.18a1 1 0 00.5 1.86z"/><path d="M12.41 18.93a1 1 0 002 0v-.35a1 1 0 00-2 0z"/><path d="M13.41 14.69a1 1 0 001-1v-.35a1 1 0 00-2 0v.35a1 1 0 001 1z"/><circle cx="32" cy="37.43" r="1.25"/><circle cx="32" cy="42.23" r="1.25"/></g></svg>