<svg width="800" height="800" viewBox="0 0 64 64" xmlns="http://www.w3.org/2000/svg"><defs><style>.cls-1{fill:#d0e1e8;}.cls-2{fill:#617880;}.cls-3{fill:#e5936b;}.cls-4{fill:#748a95;}.cls-5{fill:#f0f4f7;}</style></defs><g data-name="Bird House" id="Bird_House"><path class="cls-1" d="M33.89 37.84V54.11a1.89 1.89.0 01-3.78.0V37.84l1.61-1.74z" id="rect135457-0"/><path class="cls-2" d="M25.88 32.91v2.46a2.46 2.46.0 002.47 2.47h7.3a2.46 2.46.0 002.47-2.47V32.91l-5.44-2.26z" id="rect133373-3"/><path class="cls-3" d="M35.56 32.91h4.15a1.63 1.63.0 001.64-1.64V19.2l-9-8.39-9.7 8.39V31.27a1.63 1.63.0 001.64 1.64h4.15l4-1.88z" id="rect132167-4"/><path class="cls-4" d="M35.56 32.91V28.63a3.69 3.69.0 000-.58l-2.94-2.93a3.68 3.68.0 00-.58-.05 3.56 3.56.0 00-3.56 3.56v4.28z" id="path137376-4"/><path class="cls-5" d="M25.64 17.35v4.22a1.55 1.55.0 003.09.0V15.45l-2.3-.65z" id="rect135663-7"/><path class="cls-5" d="M32.58 13.8V28.05a1.47 1.47.0 102.94.0V22a1.46 1.46.0 012.9.27v2a1.47 1.47.0 102.93.0V18.48l-1.24-4.79z" id="path135921-8"/><path class="cls-4" d="M30.69 8.37l-12 7.39A2.5 2.5.0 0021.32 20L32 13.44 42.69 20a2.5 2.5.0 102.62-4.26l-12-7.39A2.52 2.52.0 0030.69 8.37z" id="path132443-7"/><path d="M21.2 41.52l-.3-.18a1 1 0 00-1.37.37 1 1 0 00.37 1.36l.31.18a1 1 0 001.36-.37A1 1 0 0021.2 41.52z"/><path d="M15 39.08a1 1 0 00.37 1.37l.3.18A1 1 0 0017 40.26a1 1 0 00-.37-1.36l-.3-.18A1 1 0 0015 39.08z"/><path d="M15.66 41.34l-.3.18a1 1 0 00.5 1.86 1 1 0 00.5-.13l.3-.17a1 1 0 00-1-1.74z"/><path d="M20.21 38.72l-.31.18a1 1 0 00-.37 1.36 1 1 0 001.37.37l.3-.18a1 1 0 00-1-1.73z"/><path d="M18.28 42.43a1 1 0 00-1 1v.35a1 1 0 002 0v-.35a1 1 0 00-1-1z"/><path d="M18.28 37.19a1 1 0 00-1 1v.35a1 1 0 002 0v-.35a1 1 0 00-1-1z"/><path d="M48.64 40.56l-.3-.17a1 1 0 10-1 1.73l.3.17a1 1 0 00.5.14 1 1 0 00.5-1.87z"/><path d="M43.8 37.76a1 1 0 00-1 1.73l.31.18a1 1 0 001.37-.36 1 1 0 00-.37-1.37z"/><path d="M43.1 40.39l-.3.17a1 1 0 00.5 1.87 1 1 0 00.5-.14l.3-.17a1 1 0 00.37-1.37A1 1 0 0043.1 40.39z"/><path d="M47.64 37.76l-.3.18a1 1 0 00.5 1.87 1 1 0 00.5-.14l.3-.18A1 1 0 0049 38.13 1 1 0 0047.64 37.76z"/><path d="M45.72 41.47a1 1 0 00-1 1v.36a1 1 0 002 0v-.36a1 1 0 00-1-1z"/><path d="M45.72 36.23a1 1 0 00-1 1v.35a1 1 0 002 0v-.35a1 1 0 00-1-1z"/><circle cx="18.71" cy="30.38" r="1.25"/><circle cx="45.95" cy="27.77" r="1.25"/><circle cx="37.27" cy="48.23" r="1.25"/><path d="M42.35 21a3.45 3.45.0 002.46.33 3.5 3.5.0 001-6.39l-12-7.39a3.47 3.47.0 00-3.67.0l-12 7.39A3.49 3.49.0 0021.65 21V31.27a2.65 2.65.0 002.64 2.64h.59v1.46a3.47 3.47.0 003.47 3.47h.76V54.11a2.89 2.89.0 005.78.0V38.84h.76a3.47 3.47.0 003.47-3.47V33.91h.59a2.64 2.64.0 002.64-2.64zM37 19.75a2.46 2.46.0 00-2.43 2c0 .17.0-.06.0 6.28a.47.47.0 01-.94.0V15.59l6.77 4.16v4.47a.47.47.0 01-.93.0v-2A2.47 2.47.0 0037 19.75zM29.44 31.91V28.63a2.56 2.56.0 012.14-2.52v1.94a2.48 2.48.0 002.47 2.47 2.1 2.1.0 00.51-.06v1.45zM19.66 19.35a1.48 1.48.0 01-.93-.67 1.52 1.52.0 01.49-2.07l12-7.39a1.52 1.52.0 011.58.0l12 7.39a1.5 1.5.0 01.48 2.07 1.48 1.48.0 01-.93.67 1.5 1.5.0 01-1.13-.18L32.53 12.58a1 1 0 00-1.05.0L20.79 19.17a1.49 1.49.0 01-1.13.18zm7-1.44 1.09-.67v4.33a.55.55.0 01-1.09.0zm-3 13.36V19.75l1-.6v2.42a2.55 2.55.0 005.09.0V16l1.85-1.14v9.24a4.56 4.56.0 00-4.14 4.52v3.28H24.29A.63.63.0 0123.65 31.27zm9.24 22.84a.89.89.0 01-1.78.0V38.84h1.78zm4.23-18.74a1.47 1.47.0 01-1.47 1.47h-7.3a1.47 1.47.0 01-1.47-1.47V33.91H37.12zm2.59-3.46H36.56c0-5.48.0 2.66.0-9.84a.46.46.0 01.9.15v2a2.48 2.48.0 002.47 2.47 2.4 2.4.0 00.46-.05v4.64A.63.63.0 0139.71 31.91z"/></g></svg>