<svg width="800" height="800" viewBox="0 0 64 64" xmlns="http://www.w3.org/2000/svg"><defs><style>.cls-1{fill:#9be69d;}.cls-2{fill:#6fd7a3;}.cls-3{fill:#f0f4f7;}.cls-4{fill:#e0e9ee;}.cls-5{fill:#ebb87f;}.cls-6{fill:#efc89d;}</style></defs><g id="Park"><path class="cls-1" d="M20 13.52v11a4.8 4.8.0 01-.43 2L19.27 29l-5.5.26a4.9 4.9.0 01-3.6-4.74v-11l4.9-1.32z" id="path36743"/><path class="cls-2" d="M18 13.52a1.84 1.84.0 00-.41.05v11a4.89 4.89.0 01-3.31 4.64l2 .1A4.91 4.91.0 0020 24.54v-11z" id="path36745"/><path class="cls-3" d="M15.08 8A4.9 4.9.0 0120 12.91v.61H18a1.63 1.63.0 00-1.63 1.63v1.51a1.34 1.34.0 11-2.67.0V15.15a1.63 1.63.0 00-1.64-1.63H10.17v-.61A4.9 4.9.0 0115.08 8z" id="path36747"/><path class="cls-4" d="M15.06 8a5.06 5.06.0 00-1.17.14 4.89 4.89.0 013.74 4.77v.66a1.84 1.84.0 01.41-.05H20v-.61A4.9 4.9.0 0015.06 8z" id="path36749"/><path class="cls-5" d="M20 54a2 2 0 01-4 0V37.13h4z" id="rect4818-5"/><path class="cls-5" d="M48 54a2 2 0 01-4 0V37.13h4z" id="path5342-6"/><path class="cls-1" d="M44 13.52v11a4.8 4.8.0 00.43 2L44.73 29l5.5.26a4.9 4.9.0 003.6-4.74v-11l-4.9-1.32z" id="path18220-7"/><path class="cls-6" d="M14.19 44.81H49.81a2.86 2.86.0 010 5.71H14.19a2.86 2.86.0 010-5.71z" id="path3609-3"/><path class="cls-6" d="M46.05 27.88H48a2.53 2.53.0 012.53 2.53V36.6A2.52 2.52.0 0148 39.13H16a2.51 2.51.0 01-2.53-2.53V30.41A2.52 2.52.0 0116 27.88h30z" id="path13597-7"/><path class="cls-3" d="M19.64 26.55a1.75 1.75.0 000 3.5h4.11a1.73 1.73.0 011.73 1.73V33a1.65 1.65.0 003.3.0V31.78a1.72 1.72.0 011.73-1.73H44.35a1.75 1.75.0 000-3.5z" id="rect8864-2"/><path class="cls-3" d="M38.55 39.13a2.12 2.12.0 01-4.24.0c0-1.17 1-2.67 2.12-2.67s2.12 1.54 2.12 2.67z" id="path13490-9"/><path class="cls-1" d="M26.13 13.44A2.54 2.54.0 0128.68 16v5a2.55 2.55.0 01-5.09.0V16a2.54 2.54.0 012.54-2.56z" id="rect17353-2"/><path class="cls-1" d="M37.87 13.44A2.54 2.54.0 0035.32 16v5a2.55 2.55.0 005.09.0V16a2.54 2.54.0 00-2.54-2.56z" id="path18222-0"/><path class="cls-2" d="M51.91 13.52a1.86 1.86.0 00-.42.05v11a4.9 4.9.0 01-3.3 4.64l2 .1a4.9 4.9.0 003.6-4.74v-11z" id="path29475"/><path class="cls-3" d="M48.92 8A4.9 4.9.0 0044 12.91v.61h2a1.63 1.63.0 011.63 1.63v5.78a1.34 1.34.0 102.67.0V15.15a1.63 1.63.0 011.64-1.63h1.92v-.61A4.9 4.9.0 0048.92 8z" id="path20891-3"/><path class="cls-4" d="M48.92 8a5.06 5.06.0 00-1.17.14 4.89 4.89.0 013.74 4.77v.66a1.86 1.86.0 01.42-.05h1.92v-.61A4.9 4.9.0 0048.92 8z" id="path29482"/><path class="cls-4" d="M40.67 26.55a1.75 1.75.0 110 3.49h3.68a1.75 1.75.0 100-3.49z" id="path38248"/><path class="cls-5" d="M45.34 27.88a2.53 2.53.0 012.53 2.53V36.6a2.53 2.53.0 01-2.53 2.53H48a2.53 2.53.0 002.53-2.53V30.41A2.53 2.53.0 0048 27.88H45.34z" id="path40728"/><path class="cls-5" d="M47 44.81a2.86 2.86.0 010 5.71h2.83a2.86 2.86.0 000-5.71z" id="path42451"/><path class="cls-2" d="M37.87 13.44a2.54 2.54.0 00-1.2.3A2.54 2.54.0 0138 16v5a2.53 2.53.0 01-1.34 2.24A2.54 2.54.0 0040.41 21V16a2.54 2.54.0 00-2.54-2.56z" id="path45817"/><path class="cls-2" d="M26.13 13.44a2.53 2.53.0 00-1.19.3A2.54 2.54.0 0126.28 16v5a2.53 2.53.0 01-1.34 2.24A2.54 2.54.0 0028.68 21V16a2.54 2.54.0 00-2.55-2.56z" id="path47267"/><circle cx="17.85" cy="33.42" r="1.25"/><circle cx="46.15" cy="33.42" r="1.25"/><path d="M12.56 29.89a3 3 0 00-.05.52V36.6A3.52 3.52.0 0015 40v3.84h-.85a3.86 3.86.0 100 7.71H15V54a3 3 0 006 0v-2.5H43V54a3 3 0 006 0v-2.5h.85a3.86 3.86.0 000-7.71H49V40a3.52 3.52.0 002.53-3.37V30.41a4.36 4.36.0 00-.05-.52 5.91 5.91.0 003.39-5.35V12.91a5.91 5.91.0 10-11.81.0V24.54a6.77 6.77.0 00.09 1H38.87V24.41A3.54 3.54.0 0041.41 21V16a3.55 3.55.0 00-7.09.0v5a3.53 3.53.0 002.55 3.38v1.14H27.13V24.41A3.53 3.53.0 0029.68 21V16a3.55 3.55.0 00-7.09.0v5a3.54 3.54.0 002.54 3.38v1.14H20.89a5.66 5.66.0 00.09-1V12.91a5.91 5.91.0 10-11.81.0V24.54a5.91 5.91.0 003.39 5.35zM36.32 21V16a1.55 1.55.0 013.09.0v5a1.55 1.55.0 01-3.09.0zM24.59 21V16a1.55 1.55.0 013.09.0v5a1.55 1.55.0 01-3.09.0zM11.17 24.54v-10h.95a.63.63.0 01.63.63v1.51a2.33 2.33.0 104.66.0V15.15a.64.64.0 01.64-.63H19v10a4.14 4.14.0 01-.19 1.16 2.78 2.78.0 00-1.49 1.18H16a3.49 3.49.0 00-2.63 1.2 3.92 3.92.0 01-2.2-3.52zm33.18 3a.75.75.0 010 1.5H30.51a2.73 2.73.0 00-2.73 2.73V33a.65.65.0 01-1.3.0V31.78a2.73 2.73.0 00-2.73-2.73h-4.1a.75.75.0 010-1.5zM17 40.13h2v3.68H17zm16.45.0a3.1 3.1.0 005.88.0H43v3.68H21V40.13zm4.06-1a1.12 1.12.0 01-2.24.0h0c0-.76.69-1.67 1.12-1.67s1.12.91 1.12 1.67h0zM19 54a1 1 0 01-2 0v-2.5h2zm28 0a1 1 0 01-2 0v-2.5h2zm4.7-6.35a1.85 1.85.0 01-1.85 1.85H14.19a1.86 1.86.0 110-3.71H49.81A1.85 1.85.0 0151.66 47.67zM45 43.81V40.13h2v3.68zm4.5-7.21A1.53 1.53.0 0148 38.13H39.39a3.43 3.43.0 00-3-2.67 3.41 3.41.0 00-3 2.67H16a1.52 1.52.0 01-1.53-1.53V30.41A1.52 1.52.0 0116 28.88h1a2.76 2.76.0 002.69 2.17h4.1a.73.73.0 01.73.73V33a2.65 2.65.0 005.3.0V31.78a.72.72.0 01.73-.73h13.8A2.76 2.76.0 0047 28.88h1a1.53 1.53.0 011.53 1.53zm1.1-8.52A3.51 3.51.0 0048 26.88H46.7a2.78 2.78.0 00-1.49-1.18A4.08 4.08.0 0145 24.54v-10h1a.63.63.0 01.63.63v5.78a2.34 2.34.0 104.67.0v-5.8a.64.64.0 01.64-.63h.92v10a3.92 3.92.0 01-2.27 3.56zM48.92 9a3.9 3.9.0 013.87 3.52h-.88a2.64 2.64.0 00-2.64 2.63v5.78a.33.33.0 01-.33.34.34.34.0 01-.34-.34V15.15A2.63 2.63.0 0046 12.52h-.91A3.89 3.89.0 0148.92 9zM15.08 9a3.89 3.89.0 013.86 3.52h-.88a2.64 2.64.0 00-2.64 2.63v1.51a.33.33.0 11-.66.0V15.15a2.63 2.63.0 00-2.63-2.63h-.91A3.9 3.9.0 0115.08 9z"/></g></svg>