<svg width="800" height="800" viewBox="0 0 64 64" xmlns="http://www.w3.org/2000/svg"><defs><style>.cls-1{fill:#efc89d;}.cls-2{fill:#ebb87f;}.cls-3{fill:#9be69d;}.cls-4{fill:#f0f4f7;}.cls-5{fill:#6fd7a3;}</style></defs><g id="Trees"><path class="cls-1" d="M26.13 35.53l1.93 15-5.25 2.33-5.26-2.33 1.93-15 3.33-2.68z" id="path66708-5"/><path class="cls-1" d="M46.54 38.52l1.54 12-3.4 2.69-5-2.69 1.55-12 2.66-2.67z" id="path67609-1"/><path class="cls-2" d="M43.87 35.85l-1.8 1.8.87.87 1.54 12h3.6l-1.54-12z" id="path517212"/><path class="cls-2" d="M22.81 32.86 21 34.31l1.43.12 2 16.12h3.6l-1.93-15z" id="path517202"/><path class="cls-1" d="M13.48 50.55h37a2.73 2.73.0 010 5.45h-37a2.73 2.73.0 010-5.45z" id="rect113708-1-3-0"/><path class="cls-3" d="M34.35 23.54a7.44 7.44.0 00-1.45-1.23 1.56 1.56.0 01-.61-1.88 5.72 5.72.0 00-4.87-7.58l-3.75-1.41-9-1-3.06 4.32a7.8 7.8.0 00-.77 3.38 7.71 7.71.0 00.77 3.34 2 2 0 01-.32 2.12 7.45 7.45.0 007.89 12.06 11.55 11.55.0 017.35.0 7.31 7.31.0 002.34.38 7.42 7.42.0 004.46-1.48l5.81-5.88z" id="path70051-8"/><path class="cls-4" d="M18.57 8a10.14 10.14.0 00-7.4 3.2 2.36 2.36.0 103.45 3.23 5.39 5.39.0 016.56-1v6.08a2.36 2.36.0 004.72.0v-4.4a2.36 2.36.0 00-.46-4.54c-.13.0-.27-.12-.18-.05A10.16 10.16.0 0018.57 8z" id="path69406-1"/><path class="cls-5" d="M32.55 19.35a6.21 6.21.0 00-2.84 5.22 6.14 6.14.0 00.61 2.67 1.56 1.56.0 01-.25 1.7A6 6 0 0029.38 36a7.4 7.4.0 003.91-1.46l5.81-5.89-4.75-5.11a7.44 7.44.0 00-1.45-1.23 1.56 1.56.0 01-.61-1.88A5.67 5.67.0 0032.55 19.35z" id="path505550"/><path class="cls-3" d="M39.54 18.42a6.22 6.22.0 00-5.29 6.15 6.3 6.3.0 00.62 2.67 1.58 1.58.0 01-.25 1.7 5.9 5.9.0 00-1.55 4 6 6 0 007.87 5.67 9.38 9.38.0 015.88.0 6 6 0 007.86-5.67 6 6 0 00-2.72-5 1.26 1.26.0 01-.49-1.51 4.51 4.51.0 00.26-1.5 4.57 4.57.0 00-3.39-4.42l-5.33.9z" id="path514501"/><path class="cls-5" d="M40.47 18.35a6.11 6.11.0 00-2.27.43A6.1 6.1.0 0140 19.9a2.39 2.39.0 001.83.49 4.4 4.4.0 01.73-.06 4.59 4.59.0 014.59 4.58 4.78 4.78.0 01-.26 1.5 1.26 1.26.0 00.49 1.51 6 6 0 01-1 10.55l.43.13a6 6 0 007.86-5.67 6 6 0 00-2.72-5 1.26 1.26.0 01-.49-1.51 4.51 4.51.0 00.26-1.5 4.58 4.58.0 00-4.58-4.58 4.52 4.52.0 00-.74.06 2.4 2.4.0 01-1.83-.49A6.21 6.21.0 0040.47 18.35zM39.34 38.13a9.46 9.46.0 00-2.53.34 6 6 0 002.24.44 6 6 0 001.89-.31l.67-.19A9.22 9.22.0 0039.34 38.13z" id="path505552"/><path class="cls-4" d="M40.47 18.35a5.74 5.74.0 00-.93.07V32.28a1.47 1.47.0 102.93.0V26.5a1.47 1.47.0 012.93.0 1.47 1.47.0 002.94.0v-6a4.27 4.27.0 00-1.19-.16 4.52 4.52.0 00-.74.06 2.4 2.4.0 01-1.83-.49 6.21 6.21.0 00-4.11-1.56z" id="path128784-6-0-2-9"/><path class="cls-2" d="M46.11 50.55a2.73 2.73.0 010 5.45h4.41a2.73 2.73.0 000-5.45z" id="path521135"/><circle cx="13.22" cy="41.8" r="1.25"/><circle cx="37.63" cy="11.83" r="1.25"/><path d="M50.28 15.21l.3.17a1 1 0 00.5.14 1 1 0 00.5-1.87l-.3-.18a1 1 0 00-1 1.74z"/><path d="M45.73 12.58l.31.18a1 1 0 001.37-.37A1 1 0 0047 11l-.31-.18a1 1 0 00-1 1.73z"/><path d="M45.37 15a1 1 0 00.87.5 1 1 0 00.49-.14l.31-.17a1 1 0 00-1-1.74l-.31.18A1 1 0 0045.37 15z"/><path d="M50.78 12.89a1 1 0 00.5-.13l.3-.18A1 1 0 0052 11.22a1 1 0 00-1.37-.37l-.3.18a1 1 0 00.5 1.86z"/><path d="M47.66 15.92a1 1 0 102 0v-.36a1 1 0 00-2 0z"/><path d="M48.66 11.67a1 1 0 001-1v-.35a1 1 0 00-2 0v.35a1 1 0 001 1z"/><path d="M8.32 28.56A8.47 8.47.0 0016.78 37a8.6 8.6.0 001.52-.14L16.67 49.55H13.48a3.73 3.73.0 000 7.45h37a3.73 3.73.0 000-7.45H49l-1.24-9.72a6.37 6.37.0 001 .08h0a7 7 0 003.81-12.83s-.17-.11-.09-.33a5.78 5.78.0 00.31-1.84A5.53 5.53.0 0051.09 21a5.8 5.8.0 00-4-1.63 5.46 5.46.0 00-.9.07 1.38 1.38.0 01-1-.25 7.2 7.2.0 00-4.77-1.8h0a7.24 7.24.0 00-6.65 4.4l-.37-.28a.58.58.0 01-.22-.71A6.7 6.7.0 0028.28 12a3.2 3.2.0 00-.49-1 3.27 3.27.0 00-2.07-1.33A11.07 11.07.0 0018.57 7h0a11.17 11.17.0 00-8.12 3.52 3.37 3.37.0 00-.06 4.5 8.63 8.63.0 00-.58 3.11 8.77 8.77.0 00.86 3.76 1 1 0 01-.15 1 8.49 8.49.0 00-2.2 5.67zm12.06 7.77a10.73 10.73.0 014.85.0l1.69 13.22H18.69zm13.73 1.54a7 7 0 004.94 2 6.48 6.48.0 001-.08l-1.25 9.72H28.94L27.31 36.87a8.61 8.61.0 001.52.15h0a8.4 8.4.0 004-1 7.11 7.11.0 001.28 1.85zM52.24 53.28A1.72 1.72.0 0150.52 55h-37a1.73 1.73.0 010-3.45h37a1.72 1.72.0 011.72 1.73zM40.8 49.55l1.31-10.21a8.4 8.4.0 013.53.0L47 49.55zm5.77-28.17a3.35 3.35.0 01.77.0V26.5a.47.47.0 01-.94.0 2.47 2.47.0 10-4.93.0v5.78a.47.47.0 11-.93.0V19.35a5.18 5.18.0 013.38 1.3A3.39 3.39.0 0046.57 21.38zm-8-1.65V32.28a2.47 2.47.0 104.93.0V26.5a.47.47.0 01.47-.47.46.46.0 01.46.47 2.47 2.47.0 104.94.0V22.1c.11.09.24.17.34.27a3.58 3.58.0 01.85 3.71 2.25 2.25.0 00.89 2.68 5 5 0 01-2.72 9.15h0a4.86 4.86.0 01-1.56-.26 10.48 10.48.0 00-6.52.0 5 5 0 01-5.09-1.2 4.95 4.95.0 01-.17-6.84 2.57 2.57.0 00.41-2.8 5.14 5.14.0 01-.52-2.24A5.22 5.22.0 0138.54 19.73zM11.9 11.89A9.15 9.15.0 0118.56 9h0c4.24.0 5.42 2.35 6.71 2.56a1.39 1.39.0 01.89.54 1.37 1.37.0 01.23 1 1.33 1.33.0 01-.86 1.05 1 1 0 00-.64.94v4.37a1.36 1.36.0 01-2.72.0V13.4a1 1 0 00-.52-.87 6.37 6.37.0 00-7.77 1.22 1.36 1.36.0 01-2-1.86zM12.47 21a6.63 6.63.0 01-.67-2.9 6.76 6.76.0 01.32-2.05 3.35 3.35.0 003.23-1A4.45 4.45.0 0120.18 14v5.45a3.36 3.36.0 006.72.0V15.72A3.42 3.42.0 0028.22 14a4.68 4.68.0 013.39 4.53 4.8 4.8.0 01-.26 1.55 2.56 2.56.0 001 3 7.44 7.44.0 01.93.75c0 .22.0.45.0.67a7.37 7.37.0 00.71 3.1.57.57.0 01-.09.6 7 7 0 00-1.8 4.66 7.11 7.11.0 00.1 1.14 6.41 6.41.0 01-3.34 1h0a6.39 6.39.0 01-2-.33 12.91 12.91.0 00-8 0A6.45 6.45.0 0112 24.25 3 3 0 0012.47 21z"/><path d="M17 28.83a1 1 0 001.06-1.7c-3.18-2-1.64-5.69-1.57-5.84a1 1 0 10-1.83-.8C13.88 22.36 13.32 26.51 17 28.83z"/><path d="M48.35 33.89a1 1 0 00.39 1.36.94.94.0 00.48.13 1 1 0 00.88-.52A4.43 4.43.0 0050 30.92a1 1 0 00-1.35-.4 1 1 0 00-.41 1.35A2.44 2.44.0 0148.35 33.89z"/><circle cx="34.51" cy="43.2" r="1.25"/></g></svg>