<svg width="800" height="800" viewBox="0 0 64 64" xmlns="http://www.w3.org/2000/svg"><defs><style>.cls-1{fill:#d0e1e8;}.cls-2{fill:#f0f4f7;}.cls-3{fill:#748a95;}.cls-4{fill:#e0e9ee;}.cls-5{fill:#94d8e5;}.cls-6{fill:#f6e782;}.cls-7{fill:#617880;}</style></defs><g id="Church"><path class="cls-1" d="M49.74 35.68V51.9L32 53.56 14.26 51.9V35.68L33.87 23.45z" id="path156159-2"/><path class="cls-2" d="M18.23 34.33v5.51a1.72 1.72.0 003.44.0L23.74 37l-.68-6.67-3.43.2z" id="path165002-2"/><path class="cls-2" d="M42.33 45.07a1.72 1.72.0 103.44.0V32.14l-3.1-1.69-3.15 1.71s0 5.41-.07 6.1 2.88 6.81 2.88 6.81z" id="path165515-2"/><path class="cls-3" d="M9.65 51.9h44.7a1.65 1.65.0 110 3.29H9.65a1.65 1.65.0 110-3.29z" id="path140620-1-7"/><path class="cls-3" d="M21.67 31.92l-10.52 7.4A2 2 0 118.85 36l12.82-9H42.33l12.82 9a2 2 0 01-2.3 3.28l-10.52-7.4z" id="path155783-0"/><path class="cls-4" d="M21.67 27V51.9H42.33V25.15l-9.84-6.8L21.9 24z" id="rect154671-1"/><path class="cls-5" d="M34.52 32.5A2.75 2.75.0 1132 28.64a2.7 2.7.0 011.72.61z" id="path161384-7"/><path class="cls-2" d="M42.33 27.31V38.6a1.44 1.44.0 11-2.87.0V31.21a1.44 1.44.0 00-2.87.0 1.44 1.44.0 11-2.87.0V21l5.48 1.9z" id="path128784-6-0-2-4-7-1-67"/><path class="cls-3" d="M33.68 20.94l11.76 8.27a2 2 0 002.3-3.27L33.68 16.05H30.32L16.26 25.94a2 2 0 002.3 3.27l11.76-8.27z" id="path157464-8"/><path class="cls-3" d="M28.24 51.9v-8a3.76 3.76.0 117.52.0v8l-4 1z" id="rect156661-5"/><path class="cls-6" d="M32 8.81a1.68 1.68.0 00-1.68 1.68v2.2h-2.2a1.68 1.68.0 100 3.36h2.2v7.33a1.68 1.68.0 003.36.0V16.05h2.2a1.68 1.68.0 000-3.36h-2.2v-2.2A1.68 1.68.0 0032 8.81z" id="rect156886-9"/><path class="cls-7" d="M50.68 51.9a1.65 1.65.0 110 3.29h3.67a1.65 1.65.0 100-3.29z" id="path104321"/><path d="M18.47 19.28l-.31-.18a1 1 0 00-1.37.37 1 1 0 00.37 1.36l.31.18a1 1 0 001.36-.36A1 1 0 0018.47 19.28z"/><path d="M13.92 16.66l-.3-.18a1 1 0 00-1.37.37 1 1 0 00.37 1.36l.31.18a1 1 0 00.49.13 1 1 0 00.5-1.86z"/><path d="M12.93 19.1l-.31.18a1 1 0 00.5 1.87 1 1 0 00.5-.14l.3-.17a1 1 0 00-1-1.74z"/><path d="M18.83 16.85a1 1 0 00-1.36-.37l-.31.18A1 1 0 0016.79 18a1 1 0 001.37.37l.31-.18A1 1 0 0018.83 16.85z"/><path d="M15.54 20.19h0a1 1 0 00-1 1v.35a1 1 0 001 1h0a1 1 0 001-1v-.36A1 1 0 0015.54 20.19z"/><path d="M16.54 16a1 1 0 00-1-1h0a1 1 0 00-1 1v.35a1 1 0 001 1h0a1 1 0 001-1z"/><path d="M50.21 16.24l.3.18a1 1 0 001-1.74l-.3-.17a1 1 0 10-1 1.73z"/><path d="M46 13.79a1 1 0 001.37-.36A1 1 0 0047 12.06l-.3-.18a1 1 0 00-1 1.74z"/><path d="M45.3 16.05a1 1 0 00.87.5 1 1 0 00.49-.13l.31-.18a1 1 0 10-1-1.73l-.3.17A1 1 0 0045.3 16.05z"/><path d="M50.71 13.93a1 1 0 00.5-.14l.31-.17a1 1 0 00-1-1.74l-.3.18a1 1 0 00.5 1.87z"/><path d="M48.59 15.6a1 1 0 00-1 1V17a1 1 0 102 0V16.6a1 1 0 00-1-1z"/><path d="M49.59 11.35a1 1 0 00-2 0v.36a1 1 0 002 0z"/><path d="M54.35 50.9H50.74V39.05l1.53 1.08a3 3 0 103.46-4.9L48.31 30A2.89 2.89.0 0049 29.3a3 3 0 00-.72-4.18l-11.66-8.2a2.67 2.67.0 00-.78-5.23h-1.2v-1.2a2.68 2.68.0 10-5.36.0v1.2h-1.2a2.67 2.67.0 00-.78 5.23l-11.66 8.2A3 3 0 0015 29.3a2.89 2.89.0 00.73.71L8.27 35.23a3 3 0 003.46 4.9l1.53-1.08V50.9H9.65a2.65 2.65.0 100 5.29h44.7a2.65 2.65.0 100-5.29zm-5.61.0H43.33V47.68a2.85 2.85.0 00.72.11 2.72 2.72.0 002.72-2.72V36.26l2 1.39zM33 50.9V41.35a2.76 2.76.0 011.76 2.57v7zm-3.76.0v-7A2.76 2.76.0 0131 41.35V50.9zM32 39.16a4.76 4.76.0 00-4.76 4.76v7H22.67V27.54l6.65-4.67v.51A2.68 2.68.0 0032 26.06a2.46 2.46.0 00.72-.11v1.77a3.53 3.53.0 00-.72-.08 3.75 3.75.0 103 6h.15a2.44 2.44.0 002.44-2.44.44.44.0 01.87.0v7.4A2.44 2.44.0 0040.9 41a2.1 2.1.0 00.43.0v9.9H36.76v-7A4.76 4.76.0 0032 39.16zM19.23 34.85l1.44-1v6a.72.72.0 01-1.44.0zm24.1-1 1.44 1V45.07a.73.73.0 01-.72.72.71.71.0 01-.72-.72zm-2 4.76a.44.44.0 11-.87.0v-7.4a2.44 2.44.0 00-4.87.0.44.44.0 11-.87.0V22.89l6.61 4.65zm-8.13-6a1.75 1.75.0 11-1.2-3 1.67 1.67.0 01.72.18v1.39A2.42 2.42.0 0033.2 32.65zM55 37.51a1 1 0 01-1.55 1l-10.1-7.1V29l11.25 7.91A1 1 0 0155 37.51zm-7.41-10.1a1 1 0 01-.16.74 1 1 0 01-.65.41A1 1 0 0146 28.4l-3.1-2.19h0l-8.22-5.78V18l12.48 8.78A1 1 0 0147.57 27.41zM28.12 13.69h2.2a1 1 0 001-1v-2.2a.68.68.0 011.36.0v2.2a1 1 0 001 1h2.2a.68.68.0 110 1.36h-2.2a1 1 0 00-1 1v7.33a.68.68.0 01-1.36.0V16.05a1 1 0 00-1-1h-2.2a.68.68.0 110-1.36zM16.83 26.76 29.32 18v2.44L18 28.39a1 1 0 11-1.16-1.63zM10.57 38.5a1 1 0 01-1.39-.24 1 1 0 01.24-1.4L20.67 29v2.4zm4.69-.85 2-1.39v3.58A2.72 2.72.0 0020 42.55a2.84 2.84.0 00.72-.1V50.9H15.26zM54.35 54.19H9.65a.65.65.0 110-1.29h44.7a.65.65.0 110 1.29z"/><circle cx="51.96" cy="21.89" r="1.25"/><circle cx="18.45" cy="10.86" r="1.25"/></g></svg>