<svg width="800" height="800" viewBox="0 0 64 64" xmlns="http://www.w3.org/2000/svg"><defs><style>.cls-1{fill:#f0f4f7;}.cls-2{fill:#e0e9ee;}.cls-3{fill:#efc89d;}.cls-4{fill:#ebb87f;}.cls-5{fill:#e5936b;}.cls-6{fill:#e17c46;}</style></defs><g id="Firewood"><path class="cls-1" d="M43.7 27.8V26.45A1.49 1.49.0 0042.21 25H38.5A1.49 1.49.0 0037 26.45V27.8l2.34 1.8z" id="rect20400-7"/><path class="cls-2" d="M39.61 25a1.5 1.5.0 011.5 1.49V27.8l-2.67 1.1.91.7 4.35-1.8V26.45A1.49 1.49.0 0042.21 25z" id="path37152"/><path class="cls-3" d="M43.7 27.8H20.3a6.15 6.15.0 000 12.3L32 43.6l11.7-3.5z" id="path12936"/><path class="cls-4" d="M49.85 34A6.15 6.15.0 1043.7 40.1 6.15 6.15.0 0049.85 34z" id="path12938"/><path class="cls-5" d="M46.43 34a2.73 2.73.0 10-2.73 2.72A2.73 2.73.0 0046.43 34z" id="path12940"/><path class="cls-4" d="M49.85 40.1H26.45a6.15 6.15.0 100 12.29h23.4z" id="path12930"/><path class="cls-5" d="M56 46.24a6.15 6.15.0 10-6.15 6.15A6.14 6.14.0 0056 46.24z" id="path12932"/><path class="cls-6" d="M52.58 46.24A2.73 2.73.0 1049.85 49a2.72 2.72.0 002.73-2.76z" id="path12934"/><path class="cls-1" d="M21.94 26.15a1.65 1.65.0 000 3.3h2.48v2.13a1.47 1.47.0 002.93.0V29.45h4.3a1.65 1.65.0 000-3.3z" id="path34063-1-0"/><path class="cls-4" d="M37.55 40.1H14.15a6.15 6.15.0 100 12.29h23.4z" id="path17018-5"/><path class="cls-5" d="M43.7 46.24a6.15 6.15.0 10-6.15 6.15 6.14 6.14.0 006.15-6.15z" id="path14139-6"/><path class="cls-6" d="M40.28 46.24A2.73 2.73.0 1037.55 49a2.72 2.72.0 002.73-2.76z" id="path14862-5"/><path class="cls-1" d="M15.8 38.45a1.65 1.65.0 100 3.29h6.53V47a1.46 1.46.0 002.92.0V41.74h4.3a1.65 1.65.0 100-3.29z" id="path16323-4"/><path class="cls-2" d="M29.58 26.15a1.65 1.65.0 110 3.29h2.06a1.65 1.65.0 100-3.29zm-2.09 12.3a1.65 1.65.0 010 3.29h2.06a1.65 1.65.0 100-3.29z" id="path37157"/><path d="M14.15 53.39h35.7a7.15 7.15.0 100-14.29h-1.2A7.14 7.14.0 0044.7 26.88v-.43A2.5 2.5.0 0042.21 24H38.5A2.49 2.49.0 0036 26.45v.35H34.09a2.63 2.63.0 00-2.44-1.65H21.94a2.64 2.64.0 00-2.46 1.7 7.14 7.14.0 00-5.14 11 2.68 2.68.0 00-1 1.26 7.14 7.14.0 00.82 14.24zM37.54 41.1h0a5.15 5.15.0 11-5.16 5.14A5.14 5.14.0 0137.56 41.1zm6.16 1.52a6.82 6.82.0 00-1.2-1.52h2.4a7.12 7.12.0 00-1.2 1.52zm-1.2 8.77a6.82 6.82.0 001.2-1.52 7.12 7.12.0 001.2 1.52zM55 46.25a5.15 5.15.0 11-5.15-5.15A5.15 5.15.0 0155 46.25zM48.85 34a5.15 5.15.0 11-5.16-5.15h0A5.16 5.16.0 0148.85 34zM38 26.45A.48.48.0 0138.5 26h3.71a.48.48.0 01.49.49v.35H38zm-16.07.7h9.71a.65.65.0 010 1.3h-4.3a1 1 0 00-1 1v2.13a.45.45.0 01-.46.46.46.46.0 01-.47-.46V29.45a1 1 0 00-1-1H21.94a.65.65.0 010-1.3zm-2.41 1.73a2.66 2.66.0 002.41 1.57h1.48v1.13a2.47 2.47.0 004.93.0V30.45h3.3a2.65 2.65.0 002.44-1.65h4.66a7.13 7.13.0 000 10.3H32a2.66 2.66.0 00-2.45-1.65h-13a5.13 5.13.0 013-8.57zm3.8 12.86a1 1 0 00-1-1H15.8a.65.65.0 110-1.29H29.55a.65.65.0 110 1.29h-4.3a1 1 0 00-1 1V47a.46.46.0 01-.92.0zm-9.95-.57a2.65 2.65.0 002.42 1.57h5.53v1.32H14a1 1 0 000 2h7.38V47a2.46 2.46.0 004.92.0V42.74h3.3A2.66 2.66.0 0032 41.1h.6a7.11 7.11.0 000 10.29H14.15a5.14 5.14.0 01-.77-10.22z"/><path d="M34.92 48.88a3.73 3.73.0 10-1.09-2.64 3.71 3.71.0 001.09 2.64zm2.63-4.36a1.73 1.73.0 11-1.72 1.73A1.73 1.73.0 0137.55 44.52z"/><path d="M46.12 46.25a3.73 3.73.0 103.73-3.73 3.73 3.73.0 00-3.73 3.73zm5.46.0a1.73 1.73.0 11-1.73-1.73 1.73 1.73.0 011.73 1.73z"/><path d="M43.7 30.22A3.73 3.73.0 1047.43 34 3.73 3.73.0 0043.7 30.22zm0 5.45A1.73 1.73.0 1145.43 34 1.72 1.72.0 0143.7 35.67z"/><path d="M29.53 36h5.21a1 1 0 000-2H29.53a1 1 0 000 2z"/><circle cx="52.34" cy="25.86" r="1.25"/><circle cx="31.03" cy="14.56" r="1.25"/><circle cx="11.3" cy="26" r="1.25"/><path d="M45.61 19l-.31-.18a1 1 0 00-1.36.36 1 1 0 00.36 1.37l.31.18A1 1 0 0046 20.33 1 1 0 0045.61 19z"/><path d="M41.07 16.34l-.31-.17a1 1 0 00-1.36.36 1 1 0 00.36 1.37l.31.17a.93.93.0 00.5.14 1 1 0 00.5-1.87z"/><path d="M40.07 18.79l-.31.18a1 1 0 001 1.73l.31-.18a1 1 0 00-1-1.73z"/><path d="M46 16.53a1 1 0 00-1.37-.36l-.31.17a1 1 0 00-.36 1.37 1 1 0 00.87.5 1 1 0 00.49-.13l.31-.18A1 1 0 0046 16.53z"/><path d="M42.69 19.88a1 1 0 00-1 1v.35a1 1 0 001 1h0a1 1 0 001-1v-.35a1 1 0 00-1-1z"/><path d="M43.69 15.63a1 1 0 00-1-1h0a1 1 0 00-1 1V16a1 1 0 001 1h0a1 1 0 001-1z"/><path d="M20.46 14.94l-.3-.18a1 1 0 10-1 1.73l.3.18a1 1 0 001.37-.37A1 1 0 0020.46 14.94z"/><path d="M15.92 12.31l-.3-.17a1 1 0 10-1 1.73l.3.18a1 1 0 101-1.74z"/><path d="M14.92 14.76l-.3.18a1 1 0 00-.37 1.36 1 1 0 001.37.37l.3-.18a1 1 0 10-1-1.73z"/><path d="M20.83 12.5a1 1 0 00-1.37-.36l-.3.17a1 1 0 001 1.74l.3-.18A1 1 0 0020.83 12.5z"/><path d="M17.54 15.85a1 1 0 00-1 1v.35a1 1 0 002 0v-.35a1 1 0 00-1-1z"/><path d="M18.54 11.6a1 1 0 00-2 0V12a1 1 0 002 0z"/></g></svg>