<svg width="800" height="800" viewBox="0 0 64 64" xmlns="http://www.w3.org/2000/svg"><defs><style>.cls-1{fill:#e0e9ee;}.cls-2{fill:#d0e1e8;}.cls-3{fill:#f0f4f7;}</style></defs><g id="Icicles"><path class="cls-1" d="M24 9.39H11.28A3.28 3.28.0 008 12.67a4 4 0 002.7 3.75l1.87 9.82c.2 1.06 1.16 1.06 1.36.0l1.68-8.86 1.54.29L20.5 35.32c.3 1.57 1.73 1.57 2 0L24.69 24l1.57-7.06z" id="path8660-2"/><path class="cls-2" d="M24 9.39l2.24 7.5-.51 2.27-1.57 7.48a1.38 1.38.0 01-2.52.31l-2.27-7.67a4.42 4.42.0 01-2-.36l-.24-1.25-1.54-.29v.1a4.5 4.5.0 01-.91-2.66A5.42 5.42.0 0120.1 9.39z" id="path381797"/><path class="cls-1" d="M42.5 9.39h8.08A5.43 5.43.0 0156 14.82a4.49 4.49.0 01-4.71 4.46L49 27a.94.94.0 01-1.8.0l-3.45-11.7z" id="path8825-6"/><path class="cls-3" d="M46.62 34.5l1.05-1.81a1.31 1.31.0 012.49.0l1.05 1.81a4.79 4.79.0 010 4.3l-1.05 1.81a1.31 1.31.0 01-2.49.0L46.62 38.8a4.72 4.72.0 010-4.3z" id="rect9991-1"/><path class="cls-3" d="M27.92 44.22l1.17-2c.77-1.33 2-1.33 2.78.0l1.17 2A5.22 5.22.0 0133 49l-1.17 2c-.77 1.33-2 1.33-2.78.0l-1.17-2A5.28 5.28.0 0127.92 44.22z" id="path10466-0"/><path class="cls-3" d="M11.14 37.67l1-1.81a1.31 1.31.0 012.49.0l1.05 1.81a4.72 4.72.0 010 4.3l-1.05 1.81a1.31 1.31.0 01-2.49.0l-1-1.81a4.72 4.72.0 010-4.3z" id="path10468-6"/><path class="cls-3" d="M24 9.39a5.42 5.42.0 00-5.42 5.43 4.48 4.48.0 004.71 4.46L25.58 27a.93.93.0 001.79.0l2.52-8.52 2.64 13.92c.27 1.39 1.54 1.39 1.8.0l3-15.63 1.36-.26 1.49 7.85c.18.94 1 .94 1.21.0L43 15.61a3.49 3.49.0 002.39-3.32 2.9 2.9.0 00-2.9-2.9z" id="rect3659-2"/><path class="cls-1" d="M30.48 41.2a1.31 1.31.0 00-.75.26 2.36 2.36.0 01.63.74l1.17 2a5.28 5.28.0 010 4.8l-1.17 2a2.36 2.36.0 01-.63.74c.71.51 1.56.27 2.14-.74L33 49a5.22 5.22.0 000-4.8l-1.17-2a1.67 1.67.0 00-1.35-1z" id="path368666"/><path class="cls-1" d="M13.43 35a1.18 1.18.0 00-.76.3 2.16 2.16.0 01.49.6l1.05 1.8a4.79 4.79.0 010 4.3l-1.05 1.81a2.26 2.26.0 01-.49.59c.66.54 1.46.34 2-.59L15.72 42a4.72 4.72.0 000-4.3l-1.05-1.8A1.51 1.51.0 0013.43 35z" id="path368664"/><path class="cls-1" d="M48.91 31.8a1.18 1.18.0 00-.75.3 2.14 2.14.0 01.48.6l1 1.8a4.72 4.72.0 010 4.3l-1 1.81a2.09 2.09.0 01-.48.59c.65.54 1.46.34 2-.59l1.05-1.81a4.79 4.79.0 000-4.3l-1.05-1.8A1.53 1.53.0 0048.91 31.8z" id="path367556"/><path class="cls-2" d="M46.64 9.39a5.43 5.43.0 015.42 5.43 4.48 4.48.0 01-4.71 4.46l-1.2 4c.36 1.21.72 2.41 1.07 3.62A.94.94.0 0049 27l2.27-7.67A4.48 4.48.0 0056 14.82a5.43 5.43.0 00-5.42-5.43z" id="path368686"/><path d="M42.48 42.11a1 1 0 00-.37-1.36l-.31-.18a1 1 0 00-1 1.74l.3.17a1 1 0 00.5.14A1 1 0 0042.48 42.11z"/><path d="M36.57 39.86a1 1 0 001.37-.37 1 1 0 00-.37-1.36L37.26 38a1 1 0 00-1 1.73z"/><path d="M35.9 42.11a1 1 0 00.86.51 1 1 0 00.5-.14l.31-.17a1 1 0 10-1-1.74l-.3.18A1 1 0 0035.9 42.11z"/><path d="M41.31 40a1 1 0 00.49-.13l.31-.18a1 1 0 10-1-1.73l-.3.18a1 1 0 00.5 1.86z"/><path d="M38.19 43a1 1 0 102 0v-.36a1 1 0 00-2 0z"/><path d="M39.19 38.77a1 1 0 001-1v-.35a1 1 0 00-2 0v.35a1 1 0 001 1z"/><path d="M9.82 17.14l1.77 9.29a1.93 1.93.0 001 1.46 1.45 1.45.0 001.3.0 2 2 0 001-1.44l1.44-7.6 3.17 16.68a2.45 2.45.0 001.28 1.83 1.68 1.68.0 00.72.16 1.72 1.72.0 00.79-.2 2.44 2.44.0 001.2-1.79L25 27.89a2 2 0 00.59.5 1.91 1.91.0 001.48.15 1.89 1.89.0 001.3-1.31l1.35-4.55 1.87 9.86a2.31 2.31.0 001.13 1.67 1.66 1.66.0 001.44.0 2.27 2.27.0 001.19-1.7L38 18.37l1.17 6.13a1.87 1.87.0 00.93 1.35 1.38 1.38.0 001.25.0 1.81 1.81.0 001-1.38l1.22-6.42 2.7 9.16a1.94 1.94.0 003.72.0l2.06-7a5.37 5.37.0 003.24-1.48 5.46 5.46.0 001.72-4A6.44 6.44.0 0050.59 8.3H11.28A4.28 4.28.0 007 12.67a4.94 4.94.0 002.82 4.47zm11.7 18.12c0-.13.16.87-3.11-16.34l1.39.26a5.45 5.45.0 002.76 1.08L23.66 24c-2.29 12.09-2.11 11.15-2.14 11.26zm11.91-3.54-2.56-13.47a1 1 0 00-1.94-.1l-2.45 8.31-1.89-6.39.65-.12a1 1 0 00.81-1.16A1 1 0 0024.89 18l-1.68.31a3.38 3.38.0 01-2.57-1 3.44 3.44.0 01-1-2.46A4.43 4.43.0 0124 10.39H42.5a1.91 1.91.0 011.9 1.9 2.53 2.53.0 01-1.78 2.41l-7.41 1.39a1 1 0 00.38 2L36 18zm7.32-9.61-.92-4.85 1.92-.36zM55 14.81a3.49 3.49.0 01-3.67 3.47 1 1 0 00-1 .72l-2.21 7.46-3.2-10.83a4.49 4.49.0 001.48-3.34 3.86 3.86.0 00-.51-1.9h4.69A4.43 4.43.0 0155 14.81zM11.28 10.39h8.1a6.43 6.43.0 00-1.78 4.43 5.5 5.5.0 00.38 2l-2.18-.42a1 1 0 00-1.17.8l-1.38 7.27-1.56-8.23a1 1 0 00-.67-.76 3 3 0 01-2-2.8 2.29 2.29.0 012.26-2.29z"/><path d="M52.07 39.3a5.65 5.65.0 000-5.3l-1-1.81a2.3 2.3.0 00-4.22.0l-1 1.81a5.65 5.65.0 000 5.3l1 1.81a2.3 2.3.0 004.22.0zm-1.73-1-1.05 1.8c-.18.33-.35.4-.38.4s-.19-.07-.37-.39l-1-1.81a3.75 3.75.0 010-3.3h0l1-1.8c.18-.33.34-.4.37-.4s.2.07.38.4L50.34 35a3.75 3.75.0 010 3.3z"/><path d="M32.74 51.54l1.17-2a6.32 6.32.0 000-5.8l-1.17-2a2.45 2.45.0 00-4.51.0l-1.17 2a6.29 6.29.0 000 5.8l1.17 2a2.45 2.45.0 004.51.0zm-1.73-1c-.2.34-.41.5-.53.5s-.32-.16-.52-.5l-1.17-2a4.3 4.3.0 010-3.8h0l1.17-2c.2-.35.41-.5.52-.5s.33.15.53.5l1.17 2a4.3 4.3.0 010 3.8z"/><path d="M22.75 53.71a1 1 0 00-.37-1.37l-.3-.18a1 1 0 00-1 1.74l.31.17a1 1 0 00.49.14A1 1 0 0022.75 53.71z"/><path d="M16.17 49.91a1 1 0 00.37 1.36l.3.18a1 1 0 00.5.13 1 1 0 00.87-.5 1 1 0 00-.37-1.36l-.3-.18A1 1 0 0016.17 49.91z"/><path d="M18.21 52.53a1 1 0 00-1.37-.37l-.3.18a1 1 0 00.5 1.87 1 1 0 00.5-.14l.3-.17A1 1 0 0018.21 52.53z"/><path d="M22.75 49.91a1 1 0 00-1.36-.37l-.31.18a1 1 0 00-.37 1.36 1 1 0 00.87.5 1 1 0 00.5-.13l.3-.18A1 1 0 0022.75 49.91z"/><path d="M20.46 54.61v-.36a1 1 0 00-2 0v.36a1 1 0 002 0z"/><path d="M19.46 50.36a1 1 0 001-1V49a1 1 0 00-2 0v.35a1 1 0 001 1.01z"/><path d="M15.54 35.36A2.51 2.51.0 0013.43 34a2.5 2.5.0 00-2.11 1.39l-1.05 1.81h0a5.71 5.71.0 000 5.3l1.05 1.81a2.5 2.5.0 002.11 1.39 2.51 2.51.0 002.11-1.39l1-1.81a5.65 5.65.0 000-5.3zm-.69 6.11-1 1.8c-.19.33-.35.4-.38.4s-.19-.07-.38-.4L12 41.47a3.75 3.75.0 010-3.3l1.05-1.8c.19-.33.35-.4.38-.4s.19.07.38.4l1 1.8A3.75 3.75.0 0114.85 41.47z"/></g></svg>