<svg width="800" height="800" viewBox="0 0 64 64" xmlns="http://www.w3.org/2000/svg"><defs><style>.cls-1{fill:#e0e9ee;}.cls-2{fill:#d0e1e8;}.cls-3{fill:#f0f4f7;}.cls-4{fill:#94d8e5;}.cls-5{fill:#7bd1e0;}.cls-6{fill:#748a95;}.cls-7{fill:#617880;}</style></defs><g id="Canal"><path class="cls-1" d="M11.16 25V43.81l6.24 3.27 3.26-3.84V42.18a11.35 11.35.0 019.07-11.12l4.78-4.56 4 6.39a11.3 11.3.0 014.84 9.29v1.06L47 47.56l5.86-3.75V25s-12-1.95-17.82-3.28C27.05 22.79 11.16 25 11.16 25z" id="path97827-6"/><path class="cls-2" d="M52.84 45.81V23H49.5V45.81zM20.66 43.24V42.18a11.35 11.35.0 019.07-11.12l2.69-2.56-1.25-2-3 2.32c-5.12.28-10.88 7.87-10.88 13.36v1.06l1.95 3z" id="path245561"/><path class="cls-3" d="M38.5 25V37a1.72 1.72.0 01-3.43.0V31.34a1.34 1.34.0 10-2.67.0 1.34 1.34.0 01-2.67.0V25z" id="path76528-7-7-0"/><path class="cls-4" d="M56 48.55V44.06c0-1.19-.26-1-1.29-.58a4.47 4.47.0 01-3.42.0 2.58 2.58.0 00-2.58.0 4.47 4.47.0 01-3.42.0 2.58 2.58.0 00-2.58.0 4.47 4.47.0 01-3.42.0 2.58 2.58.0 00-2.58.0 4.47 4.47.0 01-3.42.0 2.58 2.58.0 00-2.58.0 4.47 4.47.0 01-3.42.0 2.58 2.58.0 00-2.58.0 4.47 4.47.0 01-3.42.0 2.58 2.58.0 00-2.58.0 4.47 4.47.0 01-3.42.0A3.1 3.1.0 0014 43.14a3.1 3.1.0 00-1.29.34 4.47 4.47.0 01-3.42.0C8.26 43 8 42.87 8 44.06v4.49l24.33 5.24z" id="rect90151-6"/><path class="cls-5" d="M14 47.63a3.1 3.1.0 00-1.29.34 4.47 4.47.0 01-3.42.0c-1-.46-1.29-.62-1.29.58V56H56V48.55c0-1.2-.26-1-1.29-.58a4.47 4.47.0 01-3.42.0 2.58 2.58.0 00-2.58.0 4.47 4.47.0 01-3.42.0 2.58 2.58.0 00-2.58.0 4.47 4.47.0 01-3.42.0 2.58 2.58.0 00-2.58.0 4.47 4.47.0 01-3.42.0 2.58 2.58.0 00-2.58.0 4.47 4.47.0 01-3.42.0 2.58 2.58.0 00-2.58.0 4.47 4.47.0 01-3.42.0 2.58 2.58.0 00-2.58.0 4.47 4.47.0 01-3.42.0A3.1 3.1.0 0014 47.63z" id="path91003-1"/><path class="cls-6" d="M49.46 25h4.25a2.29 2.29.0 000-4.58H49.46L47.78 22 46.1 20.44H23.77l-4.63 2.41L15 20.44H10.29a2.29 2.29.0 100 4.58H49.46z" id="path97836-0"/><path class="cls-3" d="M15 20.44v12a1.72 1.72.0 103.44.0V26.76a1.34 1.34.0 012.67.0 1.33 1.33.0 102.66.0V20.44z" id="path97713-6"/><path class="cls-7" d="M49.46 20.44h-.06A2.29 2.29.0 0149 25h4.76a2.29 2.29.0 000-4.58z" id="path250280"/><path class="cls-3" d="M46.1 20.44v7.2a1.68 1.68.0 003.36.0v-7.2z" id="rect98368-1"/><path d="M22.93 14.16 22.62 14a1 1 0 00-1 1.73l.31.18a1 1 0 001.37-.37A1 1 0 0022.93 14.16z"/><path d="M17.38 13.26a1 1 0 00.51.14 1 1 0 00.5-1.86l-.3-.18a1 1 0 10-1 1.73z"/><path d="M16.72 15.52a1 1 0 001.36.37l.31-.18a1 1 0 00-1-1.73l-.31.18A1 1 0 0016.72 15.52z"/><path d="M23.3 11.72a1 1 0 00-1.37-.36l-.31.17a1 1 0 00.5 1.87.9.9.0 00.5-.14l.31-.17A1 1 0 0023.3 11.72z"/><path d="M20 15.07a1 1 0 00-1 1v.35a1 1 0 002 0v-.35a1 1 0 00-1-1z"/><path d="M21 10.82a1 1 0 00-2 0v.36a1 1 0 002 0z"/><path d="M52.76 11.33l-.31-.17a1 1 0 00-1.36.36 1 1 0 00.37 1.37l.3.17a.93.93.0 00.5.14 1 1 0 00.5-1.87z"/><path d="M47.22 10.44a1 1 0 00.5.14 1 1 0 00.5-1.87l-.31-.18a1 1 0 00-1.36.37 1 1 0 00.36 1.36z"/><path d="M46.55 12.7a1 1 0 00.86.5.9.9.0 00.5-.14l.31-.17a1 1 0 00.37-1.37 1 1 0 00-1.37-.36l-.31.17A1 1 0 0046.55 12.7z"/><path d="M53.13 8.9a1 1 0 00-1.37-.37l-.3.18a1 1 0 00.5 1.87 1 1 0 00.49-.14l.31-.17A1 1 0 0053.13 8.9z"/><path d="M49.84 12.25a1 1 0 00-1 1v.35a1 1 0 102 0v-.35a1 1 0 00-1-1z"/><path d="M50.84 8a1 1 0 00-2 0v.35a1 1 0 102 0z"/><circle cx="30.75" cy="11.72" r="1.25"/><path d="M56.35 42.34c-.63-.4-1.27-.12-2 .18a2 2 0 01-.56.19V26a3.28 3.28.0 00-.13-6.56H10.29A3.29 3.29.0 008 25.06a3.26 3.26.0 002.2 1v16.7a3.09 3.09.0 01-.46-.14h-.1c-.68-.3-1.32-.59-1.95-.18A1.89 1.89.0 007 44.06V56a1 1 0 001 1H56a1 1 0 001-1V44.06A1.89 1.89.0 0056.35 42.34zm-8.05.23a3.54 3.54.0 01-2.6.0 4.51 4.51.0 00-1.36-.39h0A12.37 12.37.0 0039.5 32.4V26h5.6v1.62a2.68 2.68.0 005.36.0V26h1.38V42.61A3.72 3.72.0 0048.3 42.57zm.16-14.93a.68.68.0 01-1.36.0V21.45h1.36zM45.1 24H24.77V21.45H45.1zM30.73 26H37.5V37a.72.72.0 01-1.43.0V31.34a2.34 2.34.0 10-4.67.0.34.34.0 01-.67.0zm-8 .74a.33.33.0 01-.33.33.32.32.0 01-.33-.33 2.34 2.34.0 00-4.67.0v5.67a.72.72.0 01-1.44.0V25h0V21.45h6.77zm-6.05 8.39a2.72 2.72.0 002.72-2.72V26.76a.33.33.0 01.33-.33.33.33.0 01.34.33 2.33 2.33.0 104.66.0V26h4v4.26a12.38 12.38.0 00-9.07 11.9h0a4.51 4.51.0 00-1.36.39 3.54 3.54.0 01-2.6.0 3.59 3.59.0 00-3.4.0h-.14V26H14v6.41a2.72 2.72.0 002.72 2.74zm4.94 7A10.37 10.37.0 0129 32.3a2.33 2.33.0 004.45-1 .34.34.0 11.67.0V37a2.72 2.72.0 005.43.0V35.09a10.3 10.3.0 012.84 7.09v.37a3.5 3.5.0 01-2.64.0 3.59 3.59.0 00-3.4.0 3.54 3.54.0 01-2.6.0 3.59 3.59.0 00-3.4.0 3.54 3.54.0 01-2.6.0 3.59 3.59.0 00-3.4.0 3.54 3.54.0 01-2.6.0zM55 22.73A1.29 1.29.0 0153.71 24H50.46V21.45h3.25A1.28 1.28.0 0155 22.73zm-46 0a1.28 1.28.0 011.29-1.28H14V24H10.29A1.3 1.3.0 019 22.73zm4.11 21.66a1.66 1.66.0 011.77.0 5.54 5.54.0 004.23.0 1.66 1.66.0 011.77.0 5.54 5.54.0 004.23.0 1.66 1.66.0 011.77.0 5.54 5.54.0 004.23.0 1.66 1.66.0 011.77.0 5.54 5.54.0 004.23.0 1.66 1.66.0 011.77.0 5.54 5.54.0 004.23.0 1.66 1.66.0 011.77.0 5.54 5.54.0 004.23.0 1.66 1.66.0 011.77.0 5.65 5.65.0 004.12.0v2.32a4 4 0 01-3.3.29 3.59 3.59.0 00-3.4.0 3.44 3.44.0 01-2.6.0 3.59 3.59.0 00-3.4.0 3.44 3.44.0 01-2.6.0 3.59 3.59.0 00-3.4.0 3.44 3.44.0 01-2.6.0 3.59 3.59.0 00-3.4.0 3.44 3.44.0 01-2.6.0 3.59 3.59.0 00-3.4.0 3.44 3.44.0 01-2.6.0 3.59 3.59.0 00-3.4.0 3.44 3.44.0 01-2.6.0 3.59 3.59.0 00-3.4.0A4 4 0 019 46.76V44.44A5.56 5.56.0 0013.11 44.39zM9 55V48.92a5.56 5.56.0 004.11.0 1.66 1.66.0 011.77.0 5.54 5.54.0 004.23.0 1.66 1.66.0 011.77.0 5.54 5.54.0 004.23.0 1.66 1.66.0 011.77.0 5.54 5.54.0 004.23.0 1.66 1.66.0 011.77.0 5.54 5.54.0 004.23.0 1.66 1.66.0 011.77.0 5.54 5.54.0 004.23.0 1.66 1.66.0 011.77.0 5.54 5.54.0 004.23.0 1.66 1.66.0 011.77.0 5.59 5.59.0 004.12.0V55z"/><circle cx="40.47" cy="16.49" r="1.25"/><circle cx="28.48" cy="38.72" r="1.25"/></g></svg>