<svg width="800" height="800" viewBox="0 0 64 64" xmlns="http://www.w3.org/2000/svg"><defs><style>.cls-1{fill:#94d8e5;}.cls-2{fill:#e0e9ee;}.cls-3{fill:#748a95;}.cls-4{fill:#f0f4f7;}.cls-5{fill:#7bd1e0;}.cls-6{fill:#d0e1e8;}</style></defs><g id="Bus"><path class="cls-1" d="M41.37 27.36H10.5A2.5 2.5.0 008 29.86v1.58l4.29 4.34L8 39.8v7.55a2.5 2.5.0 002.5 2.5h43a2.5 2.5.0 002.5-2.5V43.44l-4.49-6.16 4.07-5.84a6.32 6.32.0 00-5.16-4l-4.53 1z" id="rect69842-9"/><path class="cls-2" d="M8 31.44V39.8H42.37l4.7 3.64H56V33.69a6.25 6.25.0 00-.42-2.25z" id="path71159-5"/><path class="cls-3" d="M23 49.85A2.88 2.88.0 1120.12 47 2.88 2.88.0 0123 49.85z" id="path81032-8"/><path class="cls-3" d="M17.24 49.85A2.89 2.89.0 1114.36 47a2.88 2.88.0 012.88 2.85z" id="path81137-7"/><path class="cls-3" d="M51.12 49.85A2.89 2.89.0 1148.23 47a2.88 2.88.0 012.89 2.85z" id="path81221-1"/><path class="cls-4" d="M30.13 26a1.39 1.39.0 100 2.77H32v4.65a1.39 1.39.0 002.78.0V28.74a1.39 1.39.0 100-2.77z" id="rect90159-7"/><path class="cls-4" d="M19.33 26a1.39 1.39.0 100 2.78H20.6a1.39 1.39.0 000-2.78z" id="path91599-2"/><path class="cls-5" d="M53.16 43.44v3.91a2.5 2.5.0 01-2.5 2.5H53.5a2.5 2.5.0 002.5-2.5V43.44zm2.42-12a6.32 6.32.0 00-5.16-4L49 27.73a6.3 6.3.0 013.78 3.71z" id="path142548"/><path class="cls-4" d="M41.37 27.36v6.75a1.51 1.51.0 103 0V32.32a1.51 1.51.0 113 0v4.14a1.51 1.51.0 103 0v-9a6.3 6.3.0 00-.75-.05z" id="rect57533-5-2"/><path class="cls-6" d="M52.74 31.44a6.25 6.25.0 01.42 2.25v9.75H56V33.69a6.25 6.25.0 00-.42-2.25z" id="path142550"/><circle cx="13.45" cy="20.05" r="1.25"/><circle cx="51.39" cy="23.41" r="1.25"/><circle cx="21.8" cy="43.44" r="1.25"/><circle cx="27.09" cy="43.44" r="1.25"/><circle cx="16.5" cy="43.44" r="1.25"/><path d="M49.67 26.36H36.94A2.38 2.38.0 0034.78 25H30.13A2.38 2.38.0 0028 26.36H22.76A2.38 2.38.0 0020.6 25H19.33a2.38 2.38.0 00-2.16 1.39H10.5A3.5 3.5.0 007 29.86V47.35a3.5 3.5.0 003.5 3.5h.12a3.86 3.86.0 006.62 1.58 3.86 3.86.0 006.62-1.58H44.5a3.86 3.86.0 007.47.0H53.5a3.5 3.5.0 003.5-3.5V33.69a7.34 7.34.0 00-7.33-7.33zM17.86 38.79l1.52-6.35h6.54L24.4 38.79zM9 38.79V32.44h8.33L15.8 38.79zm19-6.35h3v1a2.38 2.38.0 001.78 2.3v3.1H26.45zm7.81-2.91a2.4 2.4.0 001.14-1.17h3.45v2.08H35.78zm13.64 6.93a.51.51.0 01-.51.51.5.5.0 01-.51-.51V32.32a2.51 2.51.0 10-5 0v1.79a.51.51.0 01-.51.51.51.51.0 01-.51-.51V28.36h7.05zM34.78 35.33a2.4 2.4.0 001-1.94v-1h4.59v1.67a2.51 2.51.0 001 2v2.69H34.78zm6.59 5.46v8.06H34.78V40.79zm2-4.22a2.52 2.52.0 002-2.46V32.32a.51.51.0 111 0v4.14a2.51 2.51.0 105 0v-4h3.43A5.7 5.7.0 0155 33.69v8.75H47.41l-4-3.14zm10.51-6.13H51.42V28.66a5.3 5.3.0 012.46 1.78zM30.13 27h4.65a.39.39.0 110 .77 1 1 0 00-1 1v2.69h0v1.95a.39.39.0 01-.78.0V28.74a1 1 0 00-1-1H30.13a.39.39.0 010-.77zm-10.8.0H20.6a.39.39.0 010 .78H19.33a.39.39.0 110-.78zM10.5 28.36h6.67a2.4 2.4.0 002.16 1.39H20.6a2.4 2.4.0 002.16-1.39H28a2.39 2.39.0 002.16 1.38H31v.7H9v-.58a1.5 1.5.0 011.5-1.5zM9 47.35V40.79H32.78v8.06H23.86a3.86 3.86.0 00-6.62-1.58 3.86 3.86.0 00-6.62 1.58H10.5A1.5 1.5.0 019 47.35zm5.36 4.38a1.88 1.88.0 111.88-1.88 1.89 1.89.0 01-1.88 1.88zm5.76.0A1.88 1.88.0 1122 49.85a1.88 1.88.0 01-1.88 1.88zm28.11.0a1.88 1.88.0 111.89-1.88 1.88 1.88.0 01-1.89 1.88zm5.27-2.88H52a3.86 3.86.0 00-7.47.0H43.37v-7l3.09 2.39a1 1 0 00.61.21H55v2.91a1.5 1.5.0 01-1.5 1.49z"/><path d="M39.47 46.52a1 1 0 001-1V44a1 1 0 10-2 0v1.54A1 1 0 0039.47 46.52z"/><path d="M28.41 14.6l-.31-.18a1 1 0 00-1 1.73l.31.18a1 1 0 00.5.14 1 1 0 00.5-1.87z"/><path d="M23.87 12l-.31-.18a1 1 0 00-1 1.73l.31.18a1 1 0 001-1.73z"/><path d="M22.87 14.42l-.31.18a1 1 0 101 1.73l.31-.18a1 1 0 00.36-1.36A1 1 0 0022.87 14.42z"/><path d="M28.78 12.17a1 1 0 00-1.37-.37L27.1 12a1 1 0 00.5 1.86 1 1 0 00.5-.13l.31-.18A1 1 0 0028.78 12.17z"/><path d="M25.49 15.51a1 1 0 00-1 1v.35a1 1 0 002 0v-.35A1 1 0 0025.49 15.51z"/><path d="M26.49 11.27a1 1 0 00-2 0v.35a1 1 0 102 0z"/><path d="M44.61 21.36l-.3-.18a1 1 0 10-1 1.73l.3.18A1 1 0 0045 22.72 1 1 0 0044.61 21.36z"/><path d="M40.07 18.73l-.3-.17a1 1 0 10-1 1.73l.31.17a.93.93.0 00.5.14 1 1 0 00.5-1.87z"/><path d="M39.07 21.18l-.31.18a1 1 0 00.51 1.86 1 1 0 00.5-.13l.3-.18a1 1 0 10-1-1.73z"/><path d="M45 18.92a1 1 0 00-1.37-.36l-.3.17a1 1 0 001 1.74l.3-.18A1 1 0 0045 18.92z"/><path d="M41.69 22.27a1 1 0 00-1 1v.35a1 1 0 102 0v-.35a1 1 0 00-1-1z"/><path d="M42.69 18a1 1 0 10-2 0v.36a1 1 0 002 0z"/></g></svg>