<svg width="800" height="800" viewBox="0 0 64 64" xmlns="http://www.w3.org/2000/svg"><defs><style>.cls-1{fill:#748a95;}.cls-2{fill:#e0e9ee;}.cls-3{fill:#f0f4f7;}.cls-4{fill:#d0e1e8;}.cls-5{fill:#617880;}</style></defs><g id="Gravestone"><path class="cls-1" d="M24.86 14.56a8.61 8.61.0 00-1 1.78H21a2.19 2.19.0 00-2.19 2.19V43.25l15.7 1.43 10.62-1.43V18.53A2.18 2.18.0 0043 16.34h-.85s-6.45-5.73-10.51-5.73-6.78 3.95-6.78 3.95z" id="path173533-0"/><path class="cls-2" d="M23.22 20.9H40.78v18H23.22z" id="rect172455-3"/><path class="cls-3" d="M32 8.88a10.76 10.76.0 00-7.16 2.72 2 2 0 002.66 3 6.8 6.8.0 012.28-1.34v3.14a1.95 1.95.0 103.89.0v-3.3a6.8 6.8.0 014.61 4A2 2 0 0042 15.58 10.81 10.81.0 0032 8.88z" id="path173061-6"/><path class="cls-4" d="M38.2 20.9h2.58v18H38.2z" id="path256824"/><path class="cls-5" d="M42.24 18.53V43.24h2.92V18.53A2.18 2.18.0 0043 16.34h-.85z" id="path264480"/><path class="cls-2" d="M13.14 49.18v-3a3 3 0 013-3H47.89a3 3 0 013 3v3L28 52.87z" id="path113813-6-0"/><path class="cls-3" d="M16 49.18v-.94a2.19 2.19.0 012.19-2.19h3.17a2.18 2.18.0 012.18 2.19v.94l-3.72 2.41z" id="path174409-1"/><path class="cls-3" d="M29.09 49.18v-.94a2.18 2.18.0 012.18-2.19H43.83A2.19 2.19.0 0146 48.24v.94l-8.66 2.41z" id="path175418-0"/><path class="cls-1" d="M11 49.18H53a3 3 0 010 5.94H11a3 3 0 010-5.94z" id="rect113708-8-6"/><path class="cls-4" d="M50.86 49.18v-3a3 3 0 00-3-3h-3.6a3 3 0 013 3v3z" id="path267337"/><path class="cls-5" d="M49.4 49.18a3 3 0 010 5.94H53a3 3 0 000-5.94z" id="path267339"/><circle cx="14.07" cy="35.99" r="1.25"/><circle cx="50.07" cy="15.96" r="1.25"/><path d="M53 48.18H51.86v-2a4 4 0 00-4-4h-1.7V18.53A3.19 3.19.0 0043 15.34h0a.74.74.0 000-.14 11.78 11.78.0 00-18.72-4.35 3 3 0 00-1 2.07 2.92 2.92.0 00.43 1.73 7.62 7.62.0 00-.38.69H21a3.19 3.19.0 00-3.19 3.19V42.25h-1.7a4 4 0 00-4 4v2H11a4 4 0 000 7.94H53a4 4 0 000-7.94zM25.51 12.35A9.77 9.77.0 0141.05 16a1 1 0 01-1.85.76 7.8 7.8.0 00-5.29-4.6h-.24a1 1 0 00-1 1v3.3a.95.95.0 11-1.89.0V14l.34-.11A1 1 0 0030.55 12l-1.06.32h0a7.64 7.64.0 00-2.61 1.53 1 1 0 01-1.33.0l-.1-.08A1 1 0 0125.51 12.35zm-5.67 6.18A1.19 1.19.0 0121 17.34h2.85a1 1 0 00.92-.62 7.49 7.49.0 01.38-.81 3 3 0 003-.57 4.78 4.78.0 01.61-.48v1.53a2.95 2.95.0 105.89.0V14.53a5.83 5.83.0 012.68 2.94 3 3 0 003.91 1.65 3 3 0 001.68-1.78h0a1.19 1.19.0 011.19 1.19V42.25H19.84zm-5.7 27.68a2 2 0 012-2H47.89a2 2 0 012 2v2H47a3.18 3.18.0 00-3.18-3.13H31.27a3.2 3.2.0 00-3.18 3.13H24.56a3.2 3.2.0 00-3.18-3.13H18.21A3.18 3.18.0 0015 48.18h-.89zm30.87 2H30.1a1.18 1.18.0 011.17-1.13H43.83A1.19 1.19.0 0145 48.18zm-22.46.0H17a1.19 1.19.0 011.18-1.13h3.17a1.18 1.18.0 011.2 1.1zM53 54.12H11a2 2 0 010-3.94H53a2 2 0 010 3.94z"/><path d="M13.71 21a1 1 0 00-.36-1.37L13 19.45a1 1 0 10-1 1.73l.31.18a1 1 0 00.5.13A1 1 0 0013.71 21z"/><path d="M7.8 18.73a1 1 0 00.5.14 1 1 0 00.87-.5A1 1 0 008.81 17l-.31-.17a1 1 0 00-1.37.36 1 1 0 00.37 1.37z"/><path d="M7.13 21a1 1 0 001.37.37l.3-.18a1 1 0 10-1-1.73l-.3.17A1 1 0 007.13 21z"/><path d="M12.35 16.83 12 17a1 1 0 00.5 1.87.93.93.0 00.5-.14l.31-.17a1 1 0 00.36-1.37A1 1 0 0012.35 16.83z"/><path d="M9.42 21.89a1 1 0 002 0v-.35a1 1 0 00-2 0z"/><path d="M10.42 17.65a1 1 0 001-1v-.36a1 1 0 00-2 0v.36a1 1 0 001 1z"/><path d="M55.19 29.29l.31.18a1 1 0 001.37-.37 1 1 0 00-.37-1.36l-.31-.18a1 1 0 00-1 1.73z"/><path d="M52 25.11l-.31-.17a1 1 0 00-1.36.36 1 1 0 00.36 1.37l.31.18a1 1 0 00.5.13 1 1 0 00.5-1.87z"/><path d="M51 27.56l-.31.18a1 1 0 00.5 1.86 1 1 0 00.5-.13l.31-.18a1 1 0 00-1-1.73z"/><path d="M55.69 27a1 1 0 00.5-.13l.31-.18a1 1 0 10-1-1.73l-.31.17a1 1 0 00-.36 1.37A1 1 0 0055.69 27z"/><path d="M52.58 30a1 1 0 002 0v-.35a1 1 0 10-2 0z"/><path d="M53.58 25.76a1 1 0 001-1V24.4a1 1 0 10-2 0v.36a1 1 0 001 1z"/><path d="M40.78 19.9H23.22a1 1 0 00-1 1v18a1 1 0 001 1H40.78a1 1 0 001-1v-18a1 1 0 00-1-1zm-1 18H24.22v-16H39.78z"/><path d="M29 28.29h2v6.46a1 1 0 002 0V28.29h2a1 1 0 000-2H33V25a1 1 0 00-2 0v1.26H29a1 1 0 100 2z"/></g></svg>