<svg width="800" height="800" viewBox="0 0 64 64" xmlns="http://www.w3.org/2000/svg"><defs><style>.cls-1{fill:#748a95;}.cls-2{fill:#dd5891;}.cls-3{fill:#617880;}.cls-4{fill:#f0f4f7;}.cls-5{fill:#f6e782;}.cls-6{fill:#f5d96d;}.cls-7{fill:#d9387c;}</style></defs><g id="Hydrant"><path class="cls-1" d="M34 11.83V10a2 2 0 00-4 0v1.84l1.2 2.46z" id="rect295270-9"/><path class="cls-1" d="M22.17 41.62H20.7a1.46 1.46.0 01-1.46-1.46V33.78a1.46 1.46.0 011.46-1.47H43.3a1.46 1.46.0 011.46 1.47v6.38a1.46 1.46.0 01-1.46 1.46H22.17z" id="rect292855-0"/><path class="cls-2" d="M22.17 26.2l9.47-2.11L41.83 26.2V47.7L31.12 50l-8.95-2.3z" id="rect292111-2"/><path class="cls-2" d="M31.42 11.65a9.83 9.83.0 00-9.25 9.81l7.88 2 11.78-2a9.91 9.91.0 00-.59-3.37l-3.63-3.15z" id="path408408"/><path class="cls-1" d="M32.8 30.89a6.56 6.56.0 11-4 .79z" id="path294564-1"/><path class="cls-3" d="M32.8 34.34a3.15 3.15.0 11-3.95 3 3 3 0 01.17-1z" id="path292672-1"/><path class="cls-4" d="M32.8 26.2v9.28a2 2 0 01-4 0V26.2l1.94-1.47z" id="rect301602-9"/><path class="cls-5" d="M34.67 21.46h7.16a2.37 2.37.0 110 4.74H22.17a2.37 2.37.0 110-4.74h12.5z" id="rect292260-6"/><path class="cls-5" d="M19.72 51.85V49.78a2.07 2.07.0 012.07-2.08H42.21a2.07 2.07.0 012.07 2.08v2.07L32 53.25z" id="path296723-4"/><path class="cls-1" d="M16.87 51.85H47.65a2.08 2.08.0 010 4.15H16.87a2.08 2.08.0 010-4.15z" id="rect273979-5-1"/><path class="cls-4" d="M32 11.63h-.58v9.57a1.64 1.64.0 103.27.0V17.78a1.64 1.64.0 013.28.0v.38a1.64 1.64.0 003.27.0v-.07A9.84 9.84.0 0032 11.63z" id="path309716-0"/><path class="cls-3" d="M43 51.85A2.08 2.08.0 0143 56h4.62a2.08 2.08.0 000-4.15z" id="path388811"/><path class="cls-6" d="M44.28 51.85V49.78a2.07 2.07.0 00-2.07-2.08H38.38a2.08 2.08.0 012.08 2.08v2.07z" id="path390807"/><path class="cls-6" d="M37.21 21.46a2.37 2.37.0 010 4.74h4.62a2.37 2.37.0 100-4.74z" id="path396262"/><path class="cls-7" d="M41.83 47.7V26.2H39.37V47.7z" id="path404679"/><path d="M51.43 20.08l.31.18a1 1 0 00.5.13 1 1 0 00.49-1.86l-.3-.18a1 1 0 00-1.37.37A1 1 0 0051.43 20.08z"/><path d="M46.89 17.46l.31.18a1 1 0 00.49.13 1 1 0 00.5-1.87l-.3-.17a1 1 0 10-1 1.73z"/><path d="M46.52 19.89a1 1 0 001.37.37l.3-.18a1 1 0 00.37-1.36 1 1 0 00-1.36-.37l-.31.18A1 1 0 0046.52 19.89z"/><path d="M51.93 17.77a1 1 0 00.5-.13l.31-.18a1 1 0 00-1-1.73l-.31.18a1 1 0 00-.37 1.36A1 1 0 0051.93 17.77z"/><path d="M48.81 20.79a1 1 0 002 0v-.35a1 1 0 10-2 0z"/><path d="M49.81 14.2a1 1 0 00-1 1v.35a1 1 0 002 0V15.2a1 1 0 00-1-1z"/><circle cx="16.52" cy="14.09" r="1.25"/><circle cx="49.42" cy="43.2" r="1.25"/><path d="M13.8 53.93A3.08 3.08.0 0016.88 57H47.65a3.08 3.08.0 000-6.15H45.28V49.78a3.08 3.08.0 00-2.45-3V42.62h.47a2.46 2.46.0 002.46-2.46V33.78a2.47 2.47.0 00-2.46-2.47h-.47V27a3.34 3.34.0 000-6.41A10.85 10.85.0 0035 11.06V10a3 3 0 00-6 0v1.07a10.86 10.86.0 00-7.8 9.56 3.34 3.34.0 000 6.41v4.28h-.5a2.47 2.47.0 00-2.46 2.47v6.38a2.46 2.46.0 002.46 2.46h.47v4.15a3.08 3.08.0 00-2.45 3v1.07H16.88A3.08 3.08.0 0013.8 53.93zM23.17 27.2h4.64v3.94a7.52 7.52.0 106-1.07V27.2h7V46.7H23.17zm8.63.0v8.28a1 1 0 01-2 0V27.2zm1.93 8.91a2.15 2.15.0 11-3.63 2.27 2.74 2.74.0 00.7.09A3 3 0 0033.73 36.11zM28 36.42a4 4 0 00-.13 1 4.15 4.15.0 105.95-3.74v-1.5a5.54 5.54.0 11-7.34 5.24 5.49 5.49.0 011.35-3.61v1.7A2.7 2.7.0 0028 36.42zm15.3-3.11a.46.46.0 01.46.47v6.38a.45.45.0 01-.46.46h-.47V33.31zM38.35 20.46H35.7V17.78a.62.62.0 01.63-.64.63.63.0 01.64.64v.38a2.6 2.6.0 001.38 2.3zm1.87-2.2a.63.63.0 01-1.25-.1v-.38a2.64 2.64.0 10-5.27.0v3.44a.64.64.0 01-1.28.0V12.65a8.84 8.84.0 017.8 5.61zM31 10a1 1 0 012 0v.69c-.33.0-.66.0-1 0s-.66.0-1 0zm-.59 2.79v7.68H23.23a8.85 8.85.0 017.19-7.69zm-8.25 9.68h8.58a2.61 2.61.0 004.62.0h6.46a1.37 1.37.0 110 2.74H22.17a1.37 1.37.0 010-2.74zM20.7 40.62a.45.45.0 01-.46-.46V33.78a.46.46.0 01.46-.47h.47v7.31zm0 9.16a1.07 1.07.0 011.07-1.08H42.21a1.07 1.07.0 011.07 1.08v1.07H20.72zm-3.84 3.07H47.65a1.08 1.08.0 010 2.15H16.88a1.08 1.08.0 110-2.15z"/><path d="M17.11 28.38l-.31-.17a1 1 0 10-1 1.73l.3.18a1 1 0 001-1.74z"/><path d="M12.57 25.76l-.31-.18a1 1 0 00-1 1.74l.31.17a1 1 0 00.5.14 1 1 0 00.5-1.87z"/><path d="M12.27 30.12l.3-.18a1 1 0 00.36-1.37 1 1 0 00-1.36-.36l-.31.17a1 1 0 00.5 1.87A1 1 0 0012.27 30.12z"/><path d="M17.48 26a1 1 0 00-1.37-.37l-.3.18a1 1 0 00.5 1.87 1 1 0 00.49-.14l.31-.17A1 1 0 0017.48 26z"/><path d="M13.19 30.65a1 1 0 002 0V30.3a1 1 0 00-2 0z"/><path d="M14.19 24.05a1 1 0 00-1 1v.36a1 1 0 002 0v-.36a1 1 0 00-1-1z"/></g></svg>