<svg width="800" height="800" viewBox="0 0 64 64" xmlns="http://www.w3.org/2000/svg"><defs><style>.cls-1{fill:#748a95;}.cls-2{fill:#e0e9ee;}.cls-3{fill:#617880;}.cls-4{fill:#d0e1e8;}</style></defs><g id="Obelisk"><path class="cls-1" d="M27.52 12.64 32 8l4.48 4.64L38.6 46.77l-5.54 1.85-7.66-1.85z" id="rect114403-6"/><path class="cls-2" d="M17.34 51.38V49.07a2.3 2.3.0 012.3-2.3H44.36a2.3 2.3.0 012.3 2.3v2.31L32.09 53.13z" id="path113813-3"/><path class="cls-1" d="M15.64 51.38H48.36a2.31 2.31.0 010 4.62H15.64a2.31 2.31.0 010-4.62z" id="rect113708-9"/><path class="cls-3" d="M38.61 46.77 36.48 12.64 32 8 30.5 9.55l3 3.09 2.12 34.13z" id="path168895"/><path class="cls-4" d="M46.66 51.38V49.07a2.3 2.3.0 00-2.3-2.3H40.67A2.3 2.3.0 0143 49.07v2.31z" id="path174678"/><path class="cls-3" d="M43.73 51.38a2.31 2.31.0 110 4.62h4.63a2.31 2.31.0 000-4.62z" id="path177721"/><circle cx="42.77" cy="17.41" r="1.25"/><path d="M19.84 24.88l.3.17a.93.93.0 00.5.14 1 1 0 00.5-1.87l-.3-.17a1 1 0 10-1 1.73z"/><path d="M15.3 22.25l.3.18a1 1 0 00.5.14 1 1 0 00.5-1.87l-.3-.18a1 1 0 00-1.37.37A1 1 0 0015.3 22.25z"/><path d="M14.93 24.69a1 1 0 00.87.5.93.93.0 00.5-.14l.3-.17A1 1 0 0017 23.51a1 1 0 00-1.37-.36l-.3.17A1 1 0 0014.93 24.69z"/><path d="M20.34 22.57a1 1 0 00.5-.14l.3-.17a1 1 0 10-1-1.74l-.3.18a1 1 0 00.5 1.87z"/><path d="M17.22 25.59a1 1 0 102 0v-.36a1 1 0 00-2 0z"/><path d="M18.22 19a1 1 0 00-1 1v.35a1 1 0 102 0V20a1 1 0 00-1-1z"/><path d="M51.66 53.69a3.31 3.31.0 00-3.3-3.31h-.7V49.07a3.3 3.3.0 00-3.3-3.3H39.54l-2-32.13h.14a1 1 0 000-2h-.78L32.72 7.31a1 1 0 00-1.44.0l-4.19 4.33h-.78a1 1 0 000 2h.14l-2 32.13H19.64a3.3 3.3.0 00-3.3 3.3v1.31h-.7a3.31 3.31.0 000 6.62H48.36a3.31 3.31.0 003.3-3.31zM32 9.44l2.13 2.2H29.87zm-5.39 33.9h1.13a1 1 0 000-2h-1l.14-2.14H28a1 1 0 000-2H27l.13-2.13h1.13a1 1 0 000-2h-1l.13-2.14h1.13a1 1 0 000-2h-1l.13-2.14h1.12a1 1 0 000-2h-1l.14-2.13H29a1 1 0 000-2H28l.13-2.14h1.13a1 1 0 000-2h-1l.18-2.88h7.08l.18 2.88h-1a1 1 0 000 2h1.13L36 20.66H35a1 1 0 000 2h1.1l.14 2.13h-1a1 1 0 000 2h1.12l.13 2.14h-1a1 1 0 000 2h1.13l.13 2.14h-1a1 1 0 000 2h1.13L37 37.2H36a1 1 0 000 2h1.12l.14 2.14h-1a1 1 0 100 2h1.13l.15 2.43H26.46zm-8.27 5.73a1.3 1.3.0 011.3-1.3H44.36a1.3 1.3.0 011.3 1.3v1.31H18.34zm-4 4.62a1.31 1.31.0 011.3-1.31H48.36a1.31 1.31.0 010 2.62H15.64A1.31 1.31.0 0114.34 53.69z"/><circle cx="19.5" cy="35.14" r="1.25"/><path d="M47.67 38.26l.3.18a1 1 0 001.37-.37A1 1 0 0049 36.71l-.3-.18a1 1 0 10-1 1.73z"/><path d="M44.43 34.08l-.31-.17a1 1 0 00-1.36.36 1 1 0 00.36 1.37l.31.17a.93.93.0 00.5.14 1 1 0 00.5-1.87z"/><path d="M43.43 36.53l-.31.18a1 1 0 00.5 1.86 1 1 0 00.5-.13l.31-.18a1 1 0 10-1-1.73z"/><path d="M48.17 36a1 1 0 00.5-.13l.3-.18a1 1 0 00.37-1.37A1 1 0 0048 33.91l-.31.17A1 1 0 0048.17 36z"/><path d="M45.05 39a1 1 0 002 0v-.35a1 1 0 10-2 0z"/><path d="M46.05 34.73a1 1 0 001-1v-.36a1 1 0 10-2 0v.36a1 1 0 001 1z"/></g></svg>