<svg width="800" height="800" viewBox="0 0 64 64" xmlns="http://www.w3.org/2000/svg"><defs><style>.cls-1{fill:#f0f4f7;}.cls-2{fill:#748a95;}.cls-3{fill:#e0e9ee;}.cls-4{fill:#617880;}.cls-5{fill:#94d8e5;}.cls-6{fill:#9be69d;}</style></defs><g id="House"><path class="cls-1" d="M53.17 51.9V36.16l-3.81-3.73L37.25 34.2l-.57 19.14z" id="path244248-6"/><path class="cls-2" d="M32.32 20.91h17a4.66 4.66.0 014.55 3.64l2.27 10.16A1.19 1.19.0 0155 36.16H39.46z" id="rect244474-8"/><path class="cls-3" d="M44.45 40.17h3.73a2.23 2.23.0 012.23 2.23h0a2.23 2.23.0 01-2.23 2.23H44.45a2.23 2.23.0 01-2.23-2.23h0a2.23 2.23.0 012.23-2.23z" id="rect247128-3"/><path class="cls-1" d="M33 20.61a1.77 1.77.0 011.75-1.47h9a1.77 1.77.0 110 3.53H36.53l-3-.2z" id="rect250860-4"/><path class="cls-3" d="M39.46 29.06V51.9L26.69 54.28 12.05 51.9V26.46l14.38-7.89 13 8.12z" id="rect242360-7"/><path class="cls-4" d="M22.54 51.9V45.53a3.66 3.66.0 017.32.0V51.9L25.7 53.05z" id="rect246833-8"/><path class="cls-2" d="M10.17 51.9h43.9a2 2 0 010 4.1H10.17a2 2 0 010-4.1z" id="path242146-0"/><path class="cls-5" d="M27.65 28.66a4.78 4.78.0 00-1.45-.23 4.66 4.66.0 104.66 4.65 4.7 4.7.0 00-.36-1.77z" id="path246979-4"/><path class="cls-6" d="M19 39.38a4.21 4.21.0 11-4.21-4.21A4.21 4.21.0 0119 39.38z" id="path182280-7-7"/><path class="cls-1" d="M36.25 27.16v11.3a1.44 1.44.0 01-2.87.0V31.07a1.44 1.44.0 10-2.87.0 1.44 1.44.0 01-2.87.0v-9l5.29.65z" id="path128784-6-0-2-4-7-1-5-44"/><path class="cls-4" d="M24.73 16.89 8.83 26.32a2 2 0 002 3.44l14.88-8.83 14.88 8.83a2 2 0 102-3.44l-15.9-9.43A2 2 0 0024.73 16.89z" id="path243470-8"/><path class="cls-4" d="M49.36 51.9a2 2 0 010 4.1h4.71a2.05 2.05.0 000-4.1z" id="path293309"/><path class="cls-4" d="M45.31 20.91a4.65 4.65.0 014.54 3.64l2.27 10.16A1.19 1.19.0 0151 36.16h4a1.19 1.19.0 001.16-1.45L53.85 24.55a4.66 4.66.0 00-4.55-3.64z" id="path302668"/><path d="M52.81 15.24l-.31-.18a1 1 0 00-1.36.37 1 1 0 00.36 1.36l.31.18a1 1 0 001.37-.36A1 1 0 0052.81 15.24z"/><path d="M48.27 12.62 48 12.44a1 1 0 00-1 1.73l.31.18a1 1 0 00.5.13 1 1 0 00.5-1.86z"/><path d="M47.27 15.06l-.31.18A1 1 0 1048 17l.31-.18a1 1 0 00-1-1.73z"/><path d="M53.18 12.81a1 1 0 00-1.37-.37l-.31.18a1 1 0 001 1.73l.31-.18A1 1 0 0053.18 12.81z"/><path d="M49.89 16.15a1 1 0 00-1 1v.35a1 1 0 002 0v-.35a1 1 0 00-1-1z"/><path d="M50.89 11.91a1 1 0 10-2 0v.35a1 1 0 002 0z"/><circle cx="14.51" cy="17.35" r="1.25"/><circle cx="35.3" cy="10.84" r="1.25"/><path d="M54.17 37.16H55a2.19 2.19.0 002.13-2.67L54.82 24.33a5.61 5.61.0 00-5.52-4.42H46.38a2.78 2.78.0 00-2.58-1.77h-9a2.72 2.72.0 00-2.17 1.05L27.28 16a3 3 0 00-3.06.0L8.32 25.46a3 3 0 002.73 5.32v5a5.15 5.15.0 000 7.14V50.9h-.88a3.05 3.05.0 100 6.1h43.9a3 3 0 00.1-6.09zM40.46 50.9V48.8H52.17v2.1zm-16.92.0V45.53a2.66 2.66.0 015.32.0V50.9zm2.66-10a4.66 4.66.0 00-4.66 4.66V50.9H15.82V44.49a5.21 5.21.0 00-1-10.32 5.15 5.15.0 00-1.77.33V29.63l12.7-7.54.9.53v4.84a5.72 5.72.0 00-4.45 1.62 5.66 5.66.0 004 9.66h0a5.61 5.61.0 005.3-7.56c0-.4.21-.55.45-.55a.43.43.0 01.43.44v7.39a2.44 2.44.0 004.87.0V28.92l1.21.71V50.9h-7.6V45.53A4.66 4.66.0 0026.2 40.87zM11.61 39.38a3.21 3.21.0 113.21 3.21 3.21 3.21.0 01-3.21-3.21zM32 28.63a2.45 2.45.0 00-2.44 2.44.43.43.0 01-.86.0V23.81l6.6 3.92V38.46a.44.44.0 01-.87.0V31.07A2.44 2.44.0 0032 28.63zM29.08 33.5a2.36 2.36.0 00.75-.13 3.64 3.64.0 01-3.63 3.37h0a3.65 3.65.0 11.45-7.27v1.6a2.43 2.43.0 002.43 2.43zM52.17 46.8H40.46V37.16H52.17zm.7-22 2.27 10.17a.16.16.0 010 .16.17.17.0 01-.14.07H40.46v-4.4a2.93 2.93.0 003.77-1.19 3 3 0 00-1-4.11l-3-1.79H43.8a2.78 2.78.0 002.58-1.76H49.3A3.62 3.62.0 0152.87 24.76zM34.79 20.14h9a.77.77.0 110 1.53h-7l-2.4-1.42A.77.77.0 0134.79 20.14zM9 28.55a1 1 0 01.35-1.37l15.9-9.43h0a1 1 0 011 0l6.24 3.7h0l9.65 5.73a1 1 0 01-1 1.72L26.26 20.07a1 1 0 00-1 0L10.36 28.9A1 1 0 019 28.55zm4.06 15.71a4.89 4.89.0 00.77.23V50.9h-.77zM55.12 54a1 1 0 01-1 1H10.17a1 1 0 010-2.1h43.9A1 1 0 0155.12 54z"/><path d="M44.45 45.63h3.73a3.23 3.23.0 000-6.46H44.45a3.23 3.23.0 100 6.46zm0-4.46h3.73a1.23 1.23.0 010 2.46H44.45a1.23 1.23.0 010-2.46z"/><path d="M25.43 11.33l-.31-.17a1 1 0 00-1.36.36 1 1 0 00.36 1.37l.31.17a.93.93.0 00.5.14 1 1 0 00.5-1.87z"/><path d="M20.89 8.71l-.31-.18a1 1 0 00-1 1.74l.31.17a1 1 0 001.36-.36A1 1 0 0020.89 8.71z"/><path d="M19.88 11.16l-.3.17a1 1 0 00.5 1.87.9.9.0 00.5-.14l.31-.17a1 1 0 10-1-1.73z"/><path d="M25.8 8.9a1 1 0 00-1.37-.37l-.31.18a1 1 0 101 1.73l.31-.17A1 1 0 0025.8 8.9z"/><path d="M22.5 14.6h0a1 1 0 001-1v-.35a1 1 0 00-1-1h0a1 1 0 00-1 1v.36a1 1 0 001 .99z"/><path d="M22.51 9.35a1 1 0 001-1V8a1 1 0 00-2 0v.35a1 1 0 001 1z"/></g></svg>