<svg width="800" height="800" viewBox="0 0 64 64" xmlns="http://www.w3.org/2000/svg"><defs><style>.cls-1{fill:#f0f4f7;}.cls-2{fill:#e0e9ee;}.cls-3{fill:#748a95;}.cls-4{fill:#617880;}.cls-5{fill:#d0e1e8;}</style></defs><g id="Window"><path class="cls-1" d="M22.29 16.31V14a4.91 4.91.0 011.79-3.66 14.42 14.42.0 0115.84.0A4.91 4.91.0 0141.71 14V24.56H23.51z" id="path84242-4"/><path class="cls-2" d="M32 8c-.45.0-.89.0-1.33.06a14.31 14.31.0 016.59 2.31A4.9 4.9.0 0139 14V24.56h2.67V14a4.91 4.91.0 00-1.79-3.66A14.33 14.33.0 0032 8z" id="path560812"/><path class="cls-3" d="M37.2 12.75A12.35 12.35.0 0144.36 24v22.8L32 49.24 19.64 46.77V24A12.33 12.33.0 0132 11.62a12 12 0 012 .16l1.54 1.6z" id="rect89541-4"/><path class="cls-4" d="M44.36 46.77V24A12.35 12.35.0 0037.2 12.75l-1.39.53A12.34 12.34.0 0142 24v22.8z" id="path551413"/><path class="cls-2" d="M34 19v10.7h3.58l3.19-.15V24a8.69 8.69.0 00-3.57-7.1z" id="path89941-1-9"/><path class="cls-2" d="M40.77 46.77V36.29l-3.19-2.56H34v13l3.38 1.11z" id="path93143-4"/><path class="cls-2" d="M30 46.77v-13H23.23v13l3.39 1.11z" id="path89945-8"/><path class="cls-2" d="M30 15.43A8.66 8.66.0 0023.23 24v5.76H30z" id="path89937-0"/><path class="cls-1" d="M39.18 28.16a1.6 1.6.0 011.6 1.6v6.35a1.6 1.6.0 01-3.2.0V29.76a1.59 1.59.0 011.6-1.6z" id="rect91167-4"/><path class="cls-1" d="M32 11.62a12 12 0 012 .16V19a1.6 1.6.0 103.2.0V10.56L33.45 9.9z" id="path549642"/><path class="cls-3" d="M17.34 51.38V49.07a2.3 2.3.0 012.3-2.3H44.36a2.29 2.29.0 012.3 2.3v2.31L32.11 53z" id="path113813-2-7"/><path class="cls-2" d="M15.64 51.38H48.36a2.31 2.31.0 010 4.62H15.64a2.31 2.31.0 010-4.62z" id="rect113708-5-9"/><path class="cls-4" d="M46.66 51.38V49.07a2.3 2.3.0 00-2.3-2.3H41.81a2.3 2.3.0 012.31 2.3v2.31z" id="path564019"/><path class="cls-5" d="M44.55 51.38a2.31 2.31.0 010 4.62h3.81a2.31 2.31.0 000-4.62z" id="path566347"/><path d="M48.36 57a3.31 3.31.0 100-6.62h-.69V49.07a3.3 3.3.0 00-2.31-3.13V24a13.39 13.39.0 00-2.65-8V14a5.88 5.88.0 00-2.24-4.5 15.44 15.44.0 00-16.94.0A5.88 5.88.0 0021.29 14v2a13.32 13.32.0 00-2.65 8v22a3.29 3.29.0 00-2.3 3.13v1.31h-.7a3.31 3.31.0 000 6.62zm-5-11.23H41.77V24A9.66 9.66.0 0038.2 16.4V14.45A11.41 11.41.0 0143.36 24zm-8.36.0v-11h1.58v1.38a2.61 2.61.0 002.6 2.6 2.88 2.88.0 00.59-.07v7.13zm0-24.22a2.89 2.89.0 00.6.08 2.6 2.6.0 002.58-2.41A7.76 7.76.0 0139.77 24v3.26a2.88 2.88.0 00-.59-.07 2.61 2.61.0 00-2.39 1.57H35zm3.58 8.21a.59.59.0 01.6-.6.6.6.0 01.6.6v6.35a.6.6.0 01-.6.6.59.59.0 01-.6-.6zM24.63 11.2a13.44 13.44.0 0114.74.0 3.9 3.9.0 011.32 2.63 25.32 25.32.0 00-3.07-2 1 1 0 00-1.42.9V19a.6.6.0 01-.6.6A.6.6.0 0135 19V11.78a1 1 0 00-.84-1A14.19 14.19.0 0032 10.62a13.29 13.29.0 00-8.69 3.23 3.87 3.87.0 011.32-2.65zM32 12.62c.33.0.67.0 1 0V29.73a1 1 0 001 1h2.58v2H34a1 1 0 00-1 1v12H31v-12a1 1 0 00-1-1H23.23a1 1 0 00-1 1v12H20.64V24A11.37 11.37.0 0132 12.62zM24.23 45.77v-11H29v11zm-5.89 3.3a1.3 1.3.0 011.3-1.3H44.36a1.31 1.31.0 011.31 1.3v1.31H18.34zm-4 4.62a1.31 1.31.0 011.3-1.31H48.36a1.31 1.31.0 110 2.62H15.64a1.31 1.31.0 01-1.3-1.31z"/><path d="M16.72 32.17a1 1 0 00.5-1.87l-.3-.18a1 1 0 00-1.37.37 1 1 0 00.37 1.36l.3.18A1 1 0 0016.72 32.17z"/><path d="M11.68 29.41A1 1 0 0013.05 29a1 1 0 00-.37-1.36l-.31-.18a1 1 0 00-1 1.73z"/><path d="M11 31.66a1 1 0 001.36.37l.31-.17a1 1 0 00-1-1.74l-.3.18A1 1 0 0011 31.66z"/><path d="M16.22 27.5l-.3.18A1 1 0 0015.55 29a1 1 0 001.37.37l.3-.18a1 1 0 10-1-1.73z"/><path d="M13.3 32.56a1 1 0 002 0v-.35a1 1 0 00-2 0z"/><path d="M13.3 27v.35a1 1 0 002 0V27a1 1 0 00-2 0z"/><path d="M52.63 19.77l-.31-.17A1 1 0 0051 20a1 1 0 00.37 1.37l.3.18a1 1 0 00.5.13 1 1 0 00.87-.5A1 1 0 0052.63 19.77z"/><path d="M47.08 18.88a1 1 0 00.5.14 1 1 0 00.5-1.87l-.3-.17a1 1 0 00-1.37.36 1 1 0 00.37 1.37z"/><path d="M46.41 21.14a1 1 0 001.37.37l.3-.18a1 1 0 10-1-1.73l-.3.17A1 1 0 0046.41 21.14z"/><path d="M53 17.34A1 1 0 0051.62 17l-.3.17a1 1 0 00.5 1.87 1 1 0 00.5-.14l.31-.17A1 1 0 0053 17.34z"/><path d="M49.7 23h0a1 1 0 001-1v-.35a1 1 0 00-1-1h0a1 1 0 00-1 1V22a1 1 0 001 1z"/><path d="M49.7 17.8h0a1 1 0 001-1v-.35a1 1 0 00-1-1h0a1 1 0 00-1 1v.36A1 1 0 0049.7 17.8z"/><circle cx="15.62" cy="15.05" r="1.25"/><circle cx="14.8" cy="39.82" r="1.25"/><circle cx="48.69" cy="36.43" r="1.25"/><path d="M23.23 30.73H30a1 1 0 001-1V15.43a1 1 0 00-1.22-1A9.68 9.68.0 0022.23 24v5.76A1 1 0 0023.23 30.73zm1-6.76A7.69 7.69.0 0129 16.79V28.73H24.23z"/></g></svg>