<svg width="800" height="800" viewBox="0 0 64 64" xmlns="http://www.w3.org/2000/svg"><defs><style>.cls-1{fill:#748a95;}.cls-2{fill:#e0e9ee;}.cls-3{fill:#f0f4f7;}.cls-4{fill:#617880;}.cls-5{fill:#d0e1e8;}</style></defs><g id="Garage"><path class="cls-1" d="M48 16.41V11.2a1.61 1.61.0 00-1.61-1.61H17.57A1.6 1.6.0 0016 11.2v5.21l19.42 7.51z" id="path59581-2"/><path class="cls-2" d="M29.55 16.41H13.12a1.77 1.77.0 00-1.77 1.77V52l20.31 1.53 21-1.53V18.18a1.76 1.76.0 00-1.76-1.77h-6.3l-1.08-.94-1.13.94L36 18.5z" id="rect56342-6"/><path class="cls-3" d="M29.17 8H22.23a1.59 1.59.0 00-1.6 1.59h0a1.6 1.6.0 001.6 1.6h6.94a1.6 1.6.0 001.6-1.6h0A1.59 1.59.0 0029.17 8z" id="rect59452-6"/><path class="cls-1" d="M16.27 52V24a1.6 1.6.0 011.61-1.61H45.4A1.61 1.61.0 0147 24.06V52L31.66 53.55z" id="path59323-1"/><path class="cls-4" d="M47 52V24a1.61 1.61.0 00-1.61-1.61H41.12a1.6 1.6.0 011.6 1.61V52z" id="path77631"/><path class="cls-3" d="M36.05 13.22a1.6 1.6.0 00-1.6 1.6v1.59h-4.9V37.24a2.14 2.14.0 104.27.0V26.52a2.14 2.14.0 114.27.0 2.14 2.14.0 004.28.0V16.41h2.21V14.82A1.59 1.59.0 0043 13.22z" id="path59666-1"/><path class="cls-1" d="M11.35 52h41.3a2 2 0 010 4H11.35a2 2 0 010-4z" id="rect51073-3-9"/><path class="cls-4" d="M47.34 52a2 2 0 010 4h5.3a2 2 0 100-4z" id="path81726"/><path class="cls-5" d="M47.19 16.41A1.76 1.76.0 0149 18.18V52h3.69V18.18a1.76 1.76.0 00-1.76-1.77z" id="path84477"/><path d="M46.43 8.59H31.56A2.59 2.59.0 0029.17 7H22.23a2.59 2.59.0 00-2.39 1.59H17.57A2.61 2.61.0 0015 11.2v4.21H13.12a2.77 2.77.0 00-2.77 2.77v33a3 3 0 001 5.79h41.3a3 3 0 001-5.79v-33a2.77 2.77.0 00-2.77-2.77H49V11.2A2.61 2.61.0 0046.43 8.59zM22.23 9h6.94a.59.59.0 01.6.59.6.6.0 01-.6.6H22.23a.59.59.0 01-.6-.6h0A.59.59.0 0122.23 9zM17 11.2a.6.6.0 01.61-.61h2.27a2.58 2.58.0 002.39 1.6h6.94a2.58 2.58.0 002.39-1.6H46.43a.61.61.0 01.61.61v4.21H45.58v-.59A2.59 2.59.0 0043 12.23H36.05a2.6 2.6.0 00-2.6 2.59v.59H17zm18.49 4.21v-.59a.59.59.0 01.6-.59H43a.58.58.0 01.59.59v.59zM17.27 51V48.93H46V51zM43.18 27.55H46v2.27H34.82v-3.3a1.14 1.14.0 112.27.0 3.13 3.13.0 006.09 1zM28.55 34.1H17.27V31.82H28.55zm0-4.28H17.27V27.55H28.55zM46 40.38v2.27H17.27V40.38zM17.27 44.65H46v2.28H17.27zM34.82 31.82H46V34.1H34.82zm0 5.42V36.1H46v2.28H34.6A3.12 3.12.0 0034.82 37.24zM17.27 38.38V36.1H28.55v1.14a3.12 3.12.0 00.22 1.14zM28.55 25.55H17.27V24.06a.6.6.0 01.61-.61H28.55zm17.46.0H43.37v-2.1h2a.61.61.0 01.61.61zm-4.64 1a1.14 1.14.0 01-2.28.0 3.14 3.14.0 10-6.27.0V37.24a1.14 1.14.0 11-2.27.0V17.41H41.37zM13.12 17.41H28.55v4H17.88a2.61 2.61.0 00-2.61 2.61V51H12.35V18.18a.76.76.0 01.77-.77zM52.65 55H11.35a1 1 0 110-2h41.3a1 1 0 010 2zm-1-36.82V51H48V24a2.61 2.61.0 00-2.61-2.61h-2v-4h7.51A.76.76.0 0151.65 18.18z"/></g></svg>