<svg width="800" height="800" viewBox="0 0 64 64" xmlns="http://www.w3.org/2000/svg"><defs><style>.cls-1{fill:#e0e9ee;}.cls-2{fill:#f0f4f7;}.cls-3{fill:#748a95;}.cls-4{fill:#617880;}.cls-5{fill:#94d8e5;}.cls-6{fill:#f6e782;}.cls-7{fill:#d0e1e8;}</style></defs><g id="School"><path class="cls-1" d="M53 52.71V38.15L34 32.12l-23 6V52.71l20 1.37z" id="path33900-1"/><path class="cls-2" d="M18.23 38.15v5.11a1.72 1.72.0 103.44.0l2.85-2.11-.77-5.58-6.09-1.1z" id="path165002-4-9"/><path class="cls-2" d="M42.33 45.88a1.72 1.72.0 103.44.0V34.08l-5.38.16L39 43.15z" id="path165515-7-4"/><path class="cls-3" d="M54.76 38.15A1.3 1.3.0 0056 36.47l-2.35-7.66a2.42 2.42.0 00-2.32-1.71H12.67a2.42 2.42.0 00-2.32 1.71L8 36.47a1.3 1.3.0 001.24 1.68z" id="path33902-2"/><path class="cls-4" d="M18.63 27.1v11H39.28v-11z" id="path514588"/><path class="cls-1" d="M42.33 27.1V52.71H21.67V27.1l10.71-9.2z" id="rect154671-8-6"/><path class="cls-4" d="M28.24 52.71v-8a3.76 3.76.0 117.52.0v8l-4 1z" id="rect156661-3-3"/><path class="cls-5" d="M36.22 32.25a4.74 4.74.0 01.06.75h0a4.31 4.31.0 11-2.56-3.92z" id="path34339-9"/><path class="cls-2" d="M42.33 27.38v11.3a1.44 1.44.0 01-2.87.0V31.29a1.44 1.44.0 10-2.87.0 1.44 1.44.0 01-2.87.0V21l2.77-.56z" id="path128784-6-0-2-4-7-1-2-7"/><path class="cls-4" d="M30.85 15.75 17.41 25.2a2 2 0 002.3 3.28L32 19.83l12.29 8.65a2 2 0 002.3-3.28L33.15 15.75a2 2 0 00-2.3.0z" id="path157460-7-5"/><path class="cls-6" d="M32 8h5.84a1.32 1.32.0 011.33 1.33v2.33A1.32 1.32.0 0137.84 13H32z" id="rect34721-3"/><path class="cls-4" d="M47.3 27.1a2.42 2.42.0 012.32 1.71L52 36.47a1.31 1.31.0 01-1.25 1.68h4A1.3 1.3.0 0056 36.47l-2.35-7.66a2.42 2.42.0 00-2.32-1.71z" id="path508823"/><path class="cls-7" d="M53 52.71V38.15H50V52.71z" id="path516668"/><path class="cls-3" d="M9.65 52.71h44.7a1.65 1.65.0 110 3.29H9.65a1.65 1.65.0 110-3.29z" id="path140620-1-2-7"/><path class="cls-4" d="M49.62 52.71a1.65 1.65.0 110 3.29h4.73a1.65 1.65.0 100-3.29z" id="path511425"/><path d="M17.16 21.64l.31.18a1 1 0 001.36-.37 1 1 0 00-.36-1.36l-.31-.18a1 1 0 10-1 1.73z"/><path d="M12.92 19.2a1 1 0 001.37-.37 1 1 0 00-.36-1.36l-.31-.18a1 1 0 10-1 1.73z"/><path d="M12.25 21.45a1 1 0 001.37.37l.3-.18a1 1 0 00-1-1.73l-.31.18A1 1 0 0012.25 21.45z"/><path d="M16.79 18.83a1 1 0 001.37.37l.31-.18a1 1 0 00.36-1.37 1 1 0 00-1.36-.36l-.31.17A1 1 0 0016.79 18.83z"/><path d="M15.54 23.35h0a1 1 0 001-1V22a1 1 0 00-1-1h0a1 1 0 00-1 1v.35a1 1 0 001 1z"/><path d="M15.54 18.11h0a1 1 0 001-1v-.36a1 1 0 00-1-1h0a1 1 0 00-1 1v.35a1 1 0 001 1.01z"/><path d="M50.21 17.05l.3.17a1 1 0 00.5.14 1 1 0 00.5-1.87l-.3-.18a1 1 0 10-1 1.74z"/><path d="M47 12.87l-.31-.18a1 1 0 00-1.36.37 1 1 0 00.37 1.36l.3.18a1 1 0 001.37-.37A1 1 0 0047 12.87z"/><path d="M46 15.32l-.31.17a1 1 0 00.51 1.87 1 1 0 00.5-.14l.3-.17a1 1 0 00.37-1.37A1 1 0 0046 15.32z"/><path d="M50.71 14.74a1 1 0 00.5-.14l.3-.18a1 1 0 00.37-1.36 1 1 0 00-1.37-.37l-.3.18a1 1 0 00.5 1.87z"/><path d="M47.59 17.76a1 1 0 102 0V17.4a1 1 0 00-2 0z"/><path d="M48.59 13.51a1 1 0 001-1v-.35a1 1 0 10-2 0v.35a1 1 0 001 1z"/><circle cx="51.96" cy="22.69" r="1.25"/><circle cx="18.45" cy="11.66" r="1.25"/><path d="M54.76 39.15a2.3 2.3.0 001.85-.93 2.33 2.33.0 00.35-2l-2.35-7.66a3.4 3.4.0 00-3.28-2.42h-3a3 3 0 00-1.17-1.72L33.73 14.93a3.14 3.14.0 00-.73-.37V14h4.84a2.33 2.33.0 002.33-2.33V9.33A2.33 2.33.0 0037.84 7H32a1 1 0 00-1 1v6.57a2.75 2.75.0 00-.73.36L16.84 24.38a2.94 2.94.0 00-1.17 1.72h-3a3.4 3.4.0 00-3.28 2.42L7 36.18a2.33 2.33.0 00.35 2 2.3 2.3.0 001.85.93H10v12.6H9.65a2.65 2.65.0 100 5.29h44.7a2.65 2.65.0 100-5.29H54V39.15zm-2.06-10L55 36.76A.31.31.0 0155 37a.32.32.0 01-.24.12H43.33V29l.38.27a3 3 0 004.18-.72 3.17 3.17.0 00.27-.47h3.17a1.42 1.42.0 011.37 1.03zM33 51.71V42.16a2.76 2.76.0 011.76 2.57v7zm-3.76.0v-7A2.76 2.76.0 0131 42.16v9.55zM32 40a4.77 4.77.0 00-4.76 4.77v7H22.67V27.62L32 21.05l.72.51v6.21a5.83 5.83.0 00-.72-.06A5.29 5.29.0 1037.28 33a3.88 3.88.0 000-.48 2.35 2.35.0 00.35-1.23.44.44.0 11.87.0v7.39a2.43 2.43.0 002.44 2.43 3.13 3.13.0 00.43.0v10.6H36.76v-7A4.77 4.77.0 0032 40zm-12.77-.81h1.44v4.11a.72.72.0 01-1.44.0zm22.1-.47a.44.44.0 01-.87.0V31.29a2.44 2.44.0 10-4.87.0.44.44.0 01-.87.0V23l6.61 4.65zm-6.18-5h.05a3.28 3.28.0 11-3.2-4 3.38 3.38.0 01.72.09v1.49a2.43 2.43.0 002.43 2.42zm8.18 5.43h1.44v6.73a.72.72.0 01-1.44.0zM38.17 9.33v2.33a.33.33.0 01-.33.33H33V9h4.84A.33.33.0 0138.17 9.33zM18 26l13.43-9.45a1 1 0 011.16.0L46 26a1 1 0 01.25 1.4 1.08 1.08.0 01-.65.41 1.05 1.05.0 01-.75-.17L32.58 19a1 1 0 00-1.16.0L19.14 27.66A1 1 0 1118 26zM9 37a.31.31.0 010-.27l2.34-7.65a1.42 1.42.0 011.37-1h3.17a2.64 2.64.0 00.27.46A3 3 0 0018 29.8a3 3 0 002.25-.51l.38-.27v8.13H9.24A.32.32.0 019 37zm3 2.12h5.26v4.11A2.72 2.72.0 0020 46a2.46 2.46.0 00.72-.11v5.84H12zm43 15.2a.64.64.0 01-.65.65H9.65a.65.65.0 110-1.29h44.7A.63.63.0 0155 54.35zm-3-2.64h-8.7V48.49a2.85 2.85.0 00.72.11 2.72 2.72.0 002.72-2.72V39.15H52z"/></g></svg>