<svg width="24" height="24" viewBox="0 0 24 24" fill="none" xmlns="http://www.w3.org/2000/svg">
<g clip-path="url(#clip0_5303_6151)">
<path d="M14.3913 4.82611H1V19.1739H14.3913V4.82611Z" fill="#66E1FF"/>
<path d="M14.3913 4.82611H1V19.1739H14.3913V4.82611Z" fill="#66E1FF"/>
<path d="M1.00488 17.235L13.4138 4.82611H1.00488V17.235Z" fill="#C2F3FF"/>
<path d="M1 21.087V19.174H14.3913V21.087C14.3898 21.5939 14.1877 22.0796 13.8293 22.4381C13.4708 22.7965 12.9851 22.9985 12.4782 23H2.91304C2.40613 22.9985 1.92043 22.7965 1.56198 22.4381C1.20355 22.0796 1.00151 21.5939 1 21.087Z" fill="white"/>
<path d="M14.3913 2.91304V4.82608H1V2.91304C1.00151 2.40613 1.20355 1.92043 1.56198 1.56198C1.92043 1.20355 2.40613 1.00151 2.91304 1H12.4782C12.9851 1.00151 13.4708 1.20355 13.8293 1.56198C14.1877 1.92043 14.3898 2.40613 14.3913 2.91304Z" fill="white" stroke="#191919" stroke-linecap="round" stroke-linejoin="round"/>
<path d="M14.3926 11.5218V4.82611" stroke="#191919" stroke-linecap="round" stroke-linejoin="round"/>
<path d="M1 4.82611V21.087C1.00151 21.5938 1.20355 22.0795 1.56198 22.438C1.92043 22.7964 2.40613 22.9985 2.91304 23H7.69564" stroke="#191919" stroke-linecap="round" stroke-linejoin="round"/>
<path d="M7.69564 19.174H1" stroke="#191919" stroke-linecap="round" stroke-linejoin="round"/>
<path d="M5.78418 2.91309H9.61026" stroke="#191919" stroke-linecap="round" stroke-linejoin="round"/>
<path d="M6.37012 12.574C6.36956 12.8374 6.44721 13.0951 6.59323 13.3144C6.73925 13.5336 6.94708 13.7046 7.19037 13.8057C7.43367 13.9067 7.70147 13.9332 7.95987 13.8819C8.21825 13.8305 8.45559 13.7037 8.6418 13.5174C8.82801 13.331 8.95471 13.0935 9.00585 12.8351C9.05699 12.5767 9.03026 12.3089 8.92906 12.0657C8.82785 11.8225 8.65672 11.6148 8.43735 11.4689C8.21798 11.323 7.96026 11.2456 7.69681 11.2463C7.43404 11.2446 7.17765 11.1652 6.95998 11.0179C6.74231 10.8707 6.57312 10.6624 6.47373 10.419C6.37435 10.1758 6.34922 9.90854 6.40153 9.65101C6.45383 9.39349 6.58123 9.15722 6.76765 8.972C6.95406 8.78679 7.19115 8.66092 7.44901 8.61027C7.70687 8.55962 7.97395 8.58647 8.21656 8.68742C8.45918 8.78838 8.66648 8.95891 8.8123 9.17753C8.95812 9.39614 9.03594 9.65304 9.03594 9.91583" stroke="#191919" stroke-linecap="round" stroke-linejoin="round"/>
<path d="M7.69629 13.9036V14.7893" stroke="#191919" stroke-linecap="round" stroke-linejoin="round"/>
<path d="M7.69629 7.69568V8.58333" stroke="#191919" stroke-linecap="round" stroke-linejoin="round"/>
<path d="M21.0866 13.4348H11.5214C11.0146 13.4363 10.5289 13.6384 10.1704 13.9968C9.81195 14.3553 9.60991 14.841 9.6084 15.3479V21.087C9.60991 21.5938 9.81195 22.0796 10.1704 22.4381C10.5289 22.7965 11.0146 22.9985 11.5214 23H21.0866C21.594 23 22.0806 22.7985 22.4394 22.4397C22.7981 22.0809 22.9997 21.5943 22.9997 21.087V15.3479C22.9997 14.8405 22.7981 14.3539 22.4394 13.9951C22.0806 13.6364 21.594 13.4348 21.0866 13.4348Z" fill="#FFEF5E"/>
<path d="M11.5214 13.4348C11.0146 13.4363 10.5289 13.6384 10.1704 13.9968C9.81195 14.3553 9.60991 14.841 9.6084 15.3479V21.087C9.60922 21.3512 9.6651 21.6124 9.77248 21.8538C9.87986 22.0952 10.0364 22.3117 10.232 22.4892L19.2865 13.4348H11.5214Z" fill="#FFF9BF"/>
<path d="M22.9997 15.3479V16.3044H9.6084V15.3479C9.60991 14.841 9.81195 14.3553 10.1704 13.9968C10.5289 13.6384 11.0146 13.4363 11.5214 13.4348H21.0866C21.594 13.4348 22.0806 13.6364 22.4394 13.9951C22.7981 14.3539 22.9997 14.8405 22.9997 15.3479Z" stroke="#191919" stroke-linecap="round" stroke-linejoin="round"/>
<path d="M22.9997 16.3044V21.087C22.9997 21.5943 22.7981 22.0809 22.4394 22.4397C22.0806 22.7985 21.594 23 21.0866 23H11.5214C11.0146 22.9985 10.5289 22.7965 10.1704 22.4381C9.81195 22.0796 9.60991 21.5938 9.6084 21.087V16.3044H22.9997Z" stroke="#191919" stroke-linecap="round" stroke-linejoin="round"/>
<path d="M16.3051 18.2173H11.5225" stroke="#191919" stroke-linecap="round" stroke-linejoin="round"/>
<path d="M13.4355 20.1305H11.5225" stroke="#191919" stroke-linecap="round" stroke-linejoin="round"/>
</g>
<defs>
<clipPath id="clip0_5303_6151">
<rect width="24" height="24" fill="white"/>
</clipPath>
</defs>
</svg>
