<svg width="24" height="24" viewBox="0 0 24 24" fill="none" xmlns="http://www.w3.org/2000/svg">
<path d="M15.6356 11.255L13.4788 8.48124L14.8081 7.39439C14.8964 7.32214 15.0069 7.28249 15.121 7.28213H18.8813C19.2765 7.28213 19.6555 7.12512 19.935 6.84567C20.2145 6.5662 20.3714 6.18716 20.3714 5.79194C20.3714 5.39672 20.2145 5.01768 19.935 4.73822C19.6555 4.45875 19.2765 4.30176 18.8813 4.30176H15.12C14.317 4.30184 13.5388 4.57985 12.9175 5.08858L8.23138 9.03558C8.05229 9.18635 7.8257 9.26904 7.59159 9.26905H2.49018C2.29449 9.26905 2.10072 9.30759 1.91992 9.38248C1.73912 9.45737 1.57484 9.56713 1.43646 9.70551C1.29809 9.84389 1.18833 10.0082 1.11343 10.189C1.03854 10.3698 1 10.5636 1 10.7593C1 10.955 1.03854 11.1487 1.11343 11.3295C1.18833 11.5103 1.29809 11.6746 1.43646 11.813C1.57484 11.9514 1.73912 12.0611 1.91992 12.136C2.10072 12.2109 2.29449 12.2495 2.49018 12.2495H7.49324C8.43282 12.2495 9.34197 11.9164 10.0594 11.3096L11.172 10.3678L13.4182 13.2568L15.6356 11.255Z" fill="#FFDDA1"/>
<path d="M22.7893 9.56999L21.9557 7.27809C21.7171 7.02973 21.4061 6.86308 21.0672 6.80189C20.7282 6.7407 20.3786 6.7881 20.0682 6.93733C19.7579 7.11617 19.5164 7.39367 19.3821 7.72566C19.2478 8.05763 19.2284 8.425 19.3271 8.76927L19.9887 10.5883C20.0162 10.6634 20.0252 10.7441 20.0148 10.8234C20.0045 10.9026 19.9752 10.9784 19.9293 11.0439C19.8835 11.1094 19.8225 11.1629 19.7516 11.1999C19.6805 11.2367 19.6017 11.256 19.5218 11.2559H15.6354L13.418 13.2577V20.6928C13.418 21.088 13.5749 21.4671 13.8544 21.7465C14.1339 22.026 14.513 22.183 14.9082 22.183C15.3034 22.183 15.6824 22.026 15.9619 21.7465C16.2414 21.4671 16.3983 21.088 16.3983 20.6928V14.2353H19.3966C20.0914 14.2502 20.7761 14.0668 21.3706 13.7068C22.0449 13.2838 22.5535 12.6423 22.8117 11.8894C23.0699 11.1365 23.062 10.3178 22.7893 9.56999Z" fill="#66E1FF"/>
<path d="M6.95923 6.78431C8.33091 6.78431 9.44288 5.67234 9.44288 4.30066C9.44288 2.92898 8.33091 1.81702 6.95923 1.81702C5.58755 1.81702 4.47559 2.92898 4.47559 4.30066C4.47559 5.67234 5.58755 6.78431 6.95923 6.78431Z" fill="#FFDDA1" stroke="#191919" stroke-linecap="round" stroke-linejoin="round"/>
<path d="M19.3273 8.76934L19.989 10.5884C20.0165 10.6635 20.0254 10.7442 20.0151 10.8234C20.0048 10.9028 19.9755 10.9784 19.9296 11.044C19.8838 11.1096 19.8228 11.163 19.7518 11.2C19.6808 11.2368 19.602 11.2561 19.522 11.256H15.6366L13.4788 8.48124L14.8081 7.39439C14.8964 7.32214 15.0069 7.28249 15.121 7.28213H18.8813C19.2765 7.28213 19.6555 7.12512 19.935 6.84567C20.2145 6.5662 20.3714 6.18716 20.3714 5.79194C20.3714 5.39672 20.2145 5.01768 19.935 4.73822C19.6555 4.45875 19.2765 4.30176 18.8813 4.30176H15.12C14.317 4.30184 13.5388 4.57985 12.9175 5.08858L8.23138 9.03558C8.05229 9.18635 7.8257 9.26904 7.59159 9.26905H2.49018C2.29449 9.26905 2.10072 9.30759 1.91992 9.38248C1.73912 9.45737 1.57484 9.56713 1.43646 9.70551C1.29809 9.84389 1.18833 10.0082 1.11343 10.189C1.03854 10.3698 1 10.5636 1 10.7593C1 10.955 1.03854 11.1487 1.11343 11.3295C1.18833 11.5103 1.29809 11.6746 1.43646 11.813C1.57484 11.9514 1.73912 12.0611 1.91992 12.136C2.10072 12.2109 2.29449 12.2495 2.49018 12.2495H7.49324C8.43282 12.2495 9.34197 11.9164 10.0594 11.3096L11.172 10.3678L13.4182 13.2568V20.6929C13.4182 21.088 13.5752 21.4672 13.8547 21.7466C14.1341 22.0261 14.5132 22.183 14.9084 22.183C15.3036 22.183 15.6826 22.0261 15.9622 21.7466C16.2416 21.4672 16.3986 21.088 16.3986 20.6929V14.2354H19.3969C20.0917 14.2503 20.7764 14.067 21.3709 13.7069C22.0451 13.2838 22.5538 12.6424 22.812 11.8894C23.0702 11.1366 23.0622 10.3179 22.7895 9.57006L21.956 7.27816" stroke="#191919" stroke-linecap="round" stroke-linejoin="round"/>
<path d="M13.417 13.2567L15.6354 11.2549" stroke="#191919" stroke-linecap="round" stroke-linejoin="round"/>
</svg>
