<svg width="24" height="24" viewBox="0 0 24 24" fill="none" xmlns="http://www.w3.org/2000/svg">
<path d="M6.26049 13.6578C7.58119 13.6578 8.65183 12.5871 8.65183 11.2664C8.65183 9.94577 7.58119 8.87512 6.26049 8.87512C4.93978 8.87512 3.86914 9.94577 3.86914 11.2664C3.86914 12.5871 4.93978 13.6578 6.26049 13.6578Z" fill="#FFDDA1"/>
<path d="M20.3718 17.8017L14.2634 8.63897C14.2203 8.57465 14.1624 8.52172 14.0943 8.48473C14.0264 8.44774 13.9505 8.42781 13.8731 8.42662C13.7951 8.42231 13.7174 8.43861 13.6477 8.47387C13.578 8.50912 13.5188 8.56212 13.4761 8.62749L6.9535 17.8371C6.82094 18.0242 6.64545 18.1769 6.44174 18.2823C6.23803 18.3876 6.01203 18.4426 5.78269 18.4426H2.43481C2.05428 18.4426 1.68932 18.2915 1.42025 18.0224C1.15117 17.7532 1 17.3883 1 17.0078C1 16.6273 1.15117 16.2623 1.42025 15.9932C1.68932 15.7241 2.05428 15.573 2.43481 15.573H4.79363C4.87008 15.573 4.94541 15.5546 5.01331 15.5195C5.08122 15.4844 5.13972 15.4335 5.1839 15.3711L11.1393 6.96981C11.4577 6.53247 11.875 6.17654 12.357 5.93102C12.8391 5.68551 13.3723 5.55736 13.9133 5.55701C14.4562 5.56477 14.9892 5.70449 15.4661 5.96413C15.943 6.22375 16.3497 6.5955 16.6509 7.04729L22.7593 16.211C22.9704 16.5281 23.0469 16.916 22.9719 17.2896C22.8969 17.663 22.6766 17.9914 22.3595 18.2025C22.0424 18.4136 21.6544 18.49 21.2809 18.415C20.9075 18.34 20.5791 18.1198 20.368 17.8027L20.3718 17.8017Z" fill="#FFDDA1"/>
<path d="M6.69629 13.2342L8.98529 14.9665L12.6775 9.75524L10.3885 8.02295L6.69629 13.2342Z" fill="#66E1FF"/>
<path d="M4.36272 12.7214C4.04145 12.3029 3.86757 11.79 3.86817 11.2624C3.86877 10.7349 4.04381 10.2223 4.36602 9.80456C4.68824 9.38683 5.13957 9.08738 5.64969 8.95284C6.15981 8.81831 6.7001 8.85624 7.18643 9.06073" stroke="#191919" stroke-linecap="round" stroke-linejoin="round"/>
<path d="M20.3718 17.8017L14.2634 8.63897C14.2203 8.57465 14.1624 8.52172 14.0943 8.48473C14.0264 8.44774 13.9505 8.42781 13.8731 8.42662C13.7951 8.42231 13.7174 8.43861 13.6477 8.47387C13.578 8.50912 13.5188 8.56212 13.4761 8.62749L6.9535 17.8371C6.82094 18.0242 6.64545 18.1769 6.44174 18.2823C6.23803 18.3876 6.01203 18.4426 5.78269 18.4426H2.43481C2.05428 18.4426 1.68932 18.2915 1.42025 18.0224C1.15117 17.7532 1 17.3883 1 17.0078C1 16.6273 1.15117 16.2623 1.42025 15.9932C1.68932 15.7241 2.05428 15.573 2.43481 15.573H4.79363C4.87008 15.573 4.94541 15.5546 5.01331 15.5195C5.08122 15.4844 5.13972 15.4335 5.1839 15.3711L11.1393 6.96981C11.4577 6.53247 11.875 6.17654 12.357 5.93102C12.8391 5.68551 13.3723 5.55736 13.9133 5.55701C14.4562 5.56477 14.9892 5.70449 15.4661 5.96413C15.943 6.22375 16.3497 6.5955 16.6509 7.04729L22.7593 16.211C22.9704 16.5281 23.0469 16.916 22.9719 17.2896C22.8969 17.663 22.6766 17.9914 22.3595 18.2025C22.0424 18.4136 21.6544 18.49 21.2809 18.415C20.9075 18.34 20.5791 18.1198 20.368 17.8027L20.3718 17.8017Z" stroke="#191919" stroke-linecap="round" stroke-linejoin="round"/>
<path d="M12.6777 9.75524L10.3887 8.02295" stroke="#191919" stroke-linecap="round" stroke-linejoin="round"/>
<path d="M8.98529 14.9664L6.69629 13.2341" stroke="#191919" stroke-linecap="round" stroke-linejoin="round"/>
</svg>
