<svg width="24" height="24" viewBox="0 0 24 24" fill="none" xmlns="http://www.w3.org/2000/svg">
<g clip-path="url(#clip0_5303_11565)">
<path d="M21.9374 10.6135C21.1719 10.4078 20.3848 10.8618 20.1794 11.6273C19.9366 12.2156 19.3265 12.5654 18.6961 12.4775C17.8602 12.4775 16.4456 11.1319 15.6986 9.49355C15.466 8.98098 14.955 8.65176 14.3921 8.65186H9.61005C9.04652 8.65101 8.53462 8.98033 8.30171 9.49355C7.55671 11.1319 6.14212 12.4775 5.30624 12.4775C4.67572 12.5654 4.06572 12.2156 3.82279 11.6273C3.53601 10.5597 2.20115 10.2029 1.41999 10.985C1.05742 11.348 0.916138 11.8769 1.04917 12.3723C1.635 14.2104 3.37881 15.4288 5.30624 15.3468C6.58292 15.4068 7.81669 14.8781 8.65369 13.9121V17.9893L6.16704 17.3093C5.10125 17.0185 4.12034 17.9904 4.4014 19.0588C4.53182 19.5546 4.91678 19.9432 5.41145 20.0782L6.79156 20.455C5.93835 21.1562 6.16423 22.5181 7.19816 22.9063C7.48044 23.0124 7.78896 23.0267 8.07986 22.9474L12.0011 21.8762L15.9272 22.9474C16.9927 23.2379 17.9731 22.2661 17.6919 21.1981C17.6152 20.9065 17.4485 20.6465 17.2155 20.455L18.5956 20.0782C19.6613 19.7874 20.0126 18.4518 19.2279 17.6743C18.8637 17.3135 18.3347 17.1743 17.84 17.3093L15.3486 17.9893V13.9121C16.1855 14.8782 17.4193 15.407 18.6961 15.3468C20.6225 15.4278 22.3649 14.2095 22.9502 12.3723C23.1565 11.6069 22.7029 10.8192 21.9374 10.6135Z" fill="#66E1FF"/>
<path d="M5.30563 13.9121C8.65309 13.9121 8.65308 10.5647 12.0005 10.5647C15.348 10.5647 15.348 13.9121 18.6954 13.9121C20.7584 13.9121 21.732 12.095 22.1749 10.7015C21.3664 10.3212 20.4108 10.7644 20.1788 11.6273C19.936 12.2156 19.3259 12.5654 18.6954 12.4775C17.8596 12.4775 16.445 11.1319 15.698 9.49355C15.4654 8.98098 14.9544 8.65176 14.3915 8.65186H9.60945C9.04592 8.65101 8.53401 8.98033 8.3011 9.49355C7.5561 11.1319 6.14151 12.4775 5.30563 12.4775C4.67511 12.5654 4.06512 12.2156 3.82218 11.6273C3.59031 10.7644 2.6346 10.3212 1.82617 10.7015C2.26903 12.095 3.24263 13.9121 5.30563 13.9121Z" fill="#C2F3FF"/>
<path d="M12.0015 6.73903C14.2103 6.73903 15.5907 4.34794 14.4864 2.43512C13.9738 1.54744 13.0265 1.00049 12.0015 1.00049C9.79272 1.00049 8.41223 3.39158 9.51662 5.3044C10.0292 6.19218 10.9764 6.73903 12.0015 6.73903Z" fill="#FFDDA1" stroke="#191919" stroke-linecap="round" stroke-linejoin="round"/>
<path d="M6.50781 22.3611C6.85033 22.8727 7.48113 23.1086 8.07539 22.9474L11.9967 21.8762" stroke="#191919" stroke-linecap="round" stroke-linejoin="round"/>
<path d="M12.6492 19.0768L16.6824 20.1766C17.6702 20.4444 18.0674 21.6311 17.4399 22.4396C17.0846 22.8985 16.4878 23.0983 15.9278 22.9455L5.40724 20.0763C4.3422 19.7836 3.9934 18.4478 4.77935 17.6718C5.14407 17.3117 5.67331 17.1735 6.16752 17.3093L8.65904 17.9893V13.9121C7.8211 14.8795 6.58518 15.4085 5.30681 15.3468C3.38031 15.4278 1.63791 14.2095 1.05265 12.3723C0.76587 11.3047 1.74228 10.3271 2.81023 10.6125C3.30583 10.745 3.69314 11.1318 3.82627 11.6273C4.06854 12.2148 4.67723 12.5643 5.30681 12.4775C6.14269 12.4775 7.55728 11.1319 8.30415 9.49355C8.53687 8.98098 9.04775 8.65176 9.61062 8.65186H14.3927C14.9563 8.65101 15.4682 8.98033 15.7012 9.49355C16.448 11.1319 17.8626 12.4775 18.6985 12.4775C19.329 12.5654 19.939 12.2156 20.1819 11.6273C20.4988 10.5678 21.8438 10.2487 22.6028 11.0529C22.9353 11.4051 23.068 11.9011 22.9556 12.3724C22.3695 14.2111 20.6247 15.4297 18.6966 15.3468C17.4199 15.4068 16.1862 14.878 15.3492 13.9121V17.9893L17.8406 17.3093C18.9068 17.0213 19.885 17.9954 19.6013 19.0628C19.5251 19.3497 19.3617 19.6059 19.1337 19.796" stroke="#191919" stroke-linecap="round" stroke-linejoin="round"/>
<path d="M8.65332 12.4775V13.9121" stroke="#191919" stroke-linecap="round" stroke-linejoin="round"/>
<path d="M15.3486 12.4775V13.9121" stroke="#191919" stroke-linecap="round" stroke-linejoin="round"/>
</g>
<defs>
<clipPath id="clip0_5303_11565">
<rect width="24" height="24" fill="white"/>
</clipPath>
</defs>
</svg>
