<svg width="24" height="24" viewBox="0 0 24 24" fill="none" xmlns="http://www.w3.org/2000/svg">
<path d="M23 7.6373C23 5.82098 21.5278 4.34833 19.7115 4.34784H4.2876C2.47139 4.34833 0.999514 5.82108 1 7.6373V16.3618C0.998441 18.1786 2.4707 19.6523 4.2876 19.6522H19.7115C21.5285 19.6523 23.0011 18.1788 23 16.3618V7.6373Z" fill="#FF808C"/>
<path d="M4.2876 4.34784C2.47138 4.34833 0.999512 5.82108 1 7.6373V16.3618C1.00273 17.3477 1.45015 18.2797 2.21761 18.8985L16.7683 4.34784H4.2876Z" fill="#FFBFC5"/>
<path d="M23 7.6373C23 5.82098 21.5278 4.34833 19.7115 4.34784H4.2876C2.47139 4.34833 0.999514 5.82108 1 7.6373V16.3618C0.998441 18.1786 2.4707 19.6523 4.2876 19.6522H19.7115C21.5285 19.6523 23.0011 18.1788 23 16.3618V7.6373Z" stroke="#191919" stroke-linecap="round" stroke-linejoin="round"/>
<path d="M9.6084 15.7697V7.48431L16.0831 11.627L9.6084 15.7697Z" fill="white" stroke="#191919" stroke-linecap="round" stroke-linejoin="round"/>
</svg>
