<svg width="24" height="24" viewBox="0 0 24 24" fill="none" xmlns="http://www.w3.org/2000/svg">
<g clip-path="url(#clip0_5303_3535)">
<path d="M3.39158 3.86957C3.13789 3.86957 2.8946 3.97035 2.71521 4.14972C2.53584 4.32911 2.43506 4.5724 2.43506 4.82609V7.69566C2.43506 7.94935 2.53584 8.19264 2.71521 8.37203C2.8946 8.55141 3.13789 8.65218 3.39158 8.65218H6.73941C6.9931 8.65218 7.23639 8.55141 7.41578 8.37203C7.59516 8.19264 7.69594 7.94935 7.69594 7.69566C7.69594 7.44197 7.79672 7.19868 7.97609 7.01929C8.15548 6.83992 8.39877 6.73914 8.65246 6.73914H18.696C18.9496 6.73914 19.193 6.63836 19.3723 6.45898C19.5517 6.2796 19.6525 6.0363 19.6525 5.78261V4.82609C19.6525 4.5724 19.5517 4.32911 19.3723 4.14972C19.193 3.97035 18.9496 3.86957 18.696 3.86957H3.39158Z" fill="#FFEF5E"/>
<path d="M18.696 3.86957H3.39158C3.13789 3.86957 2.8946 3.97035 2.71521 4.14972C2.53584 4.32911 2.43506 4.5724 2.43506 4.82609V6.26088C2.43506 6.00719 2.53584 5.76389 2.71521 5.58451C2.8946 5.40513 3.13789 5.30435 3.39158 5.30435H18.696C18.9081 5.30419 19.1143 5.37459 19.2821 5.50446C19.4499 5.63432 19.5697 5.8163 19.6228 6.02174C19.6424 5.94355 19.6524 5.86324 19.6525 5.78261V4.82609C19.6525 4.5724 19.5517 4.32911 19.3723 4.14972C19.193 3.97035 18.9496 3.86957 18.696 3.86957Z" fill="#FFF9BF"/>
<path d="M3.39158 17.2609C3.13789 17.2609 2.8946 17.1601 2.71521 16.9807C2.53584 16.8014 2.43506 16.558 2.43506 16.3044V13.4348C2.43506 13.1811 2.53584 12.9378 2.71521 12.7584C2.8946 12.5791 3.13789 12.4783 3.39158 12.4783H6.73941C6.9931 12.4783 7.23639 12.5791 7.41578 12.7584C7.59516 12.9378 7.69594 13.1811 7.69594 13.4348C7.69594 13.6885 7.79672 13.9318 7.97609 14.1112C8.15548 14.2905 8.39877 14.3913 8.65246 14.3913H18.696C18.9496 14.3913 19.193 14.4921 19.3723 14.6715C19.5517 14.8508 19.6525 15.0942 19.6525 15.3478V16.3044C19.6525 16.558 19.5517 16.8014 19.3723 16.9807C19.193 17.1601 18.9496 17.2609 18.696 17.2609H3.39158Z" fill="#FFEF5E"/>
<path d="M13.913 17.2609H17.7391V20.1304L21.5652 21.087V23H10.0869V21.087L13.913 20.1304V17.2609Z" fill="#B2B2B2"/>
<path d="M17.7397 17.2609H13.9136V19.6522H17.7397V17.2609Z" fill="#808080"/>
<path d="M14.1348 12.4783H16.7996" stroke="#191919" stroke-linecap="round" stroke-linejoin="round"/>
<path d="M14.1348 10.5652H16.7996" stroke="#191919" stroke-linecap="round" stroke-linejoin="round"/>
<path d="M14.1177 8.65216H16.7825" stroke="#191919" stroke-linecap="round" stroke-linejoin="round"/>
<path d="M4.34766 1H8.17375" stroke="#191919" stroke-linecap="round" stroke-linejoin="round"/>
<path d="M6.26074 1V3.86957" stroke="#191919" stroke-linecap="round" stroke-linejoin="round"/>
<path d="M4.34766 20.1304H8.17375" stroke="#191919" stroke-linecap="round" stroke-linejoin="round"/>
<path d="M6.26074 20.1304V17.2609" stroke="#191919" stroke-linecap="round" stroke-linejoin="round"/>
<path d="M3.39158 3.86957C3.13789 3.86957 2.8946 3.97035 2.71521 4.14972C2.53584 4.32911 2.43506 4.5724 2.43506 4.82609V7.69566C2.43506 7.94935 2.53584 8.19264 2.71521 8.37203C2.8946 8.55141 3.13789 8.65218 3.39158 8.65218H6.73941C6.9931 8.65218 7.23639 8.55141 7.41578 8.37203C7.59516 8.19264 7.69594 7.94935 7.69594 7.69566C7.69594 7.44197 7.79672 7.19868 7.97609 7.01929C8.15548 6.83992 8.39877 6.73914 8.65246 6.73914H18.696C18.9496 6.73914 19.193 6.63836 19.3723 6.45898C19.5517 6.2796 19.6525 6.0363 19.6525 5.78261V4.82609C19.6525 4.5724 19.5517 4.32911 19.3723 4.14972C19.193 3.97035 18.9496 3.86957 18.696 3.86957H3.39158Z" stroke="#191919" stroke-linecap="round" stroke-linejoin="round"/>
<path d="M3.39158 17.2609C3.13789 17.2609 2.8946 17.1601 2.71521 16.9807C2.53584 16.8014 2.43506 16.558 2.43506 16.3044V13.4348C2.43506 13.1811 2.53584 12.9378 2.71521 12.7584C2.8946 12.5791 3.13789 12.4783 3.39158 12.4783H6.73941C6.9931 12.4783 7.23639 12.5791 7.41578 12.7584C7.59516 12.9378 7.69594 13.1811 7.69594 13.4348C7.69594 13.6885 7.79672 13.9318 7.97609 14.1112C8.15548 14.2905 8.39877 14.3913 8.65246 14.3913H18.696C18.9496 14.3913 19.193 14.4921 19.3723 14.6715C19.5517 14.8508 19.6525 15.0942 19.6525 15.3478V16.3044C19.6525 16.558 19.5517 16.8014 19.3723 16.9807C19.193 17.1601 18.9496 17.2609 18.696 17.2609H3.39158Z" stroke="#191919" stroke-linecap="round" stroke-linejoin="round"/>
<path d="M13.913 17.2609H17.7391V20.1304L21.5652 21.087V23H10.0869V21.087L13.913 20.1304V17.2609Z" stroke="#191919" stroke-linecap="round" stroke-linejoin="round"/>
</g>
<defs>
<clipPath id="clip0_5303_3535">
<rect width="24" height="24" fill="white"/>
</clipPath>
</defs>
</svg>
