<svg width="24" height="24" viewBox="0 0 24 24" fill="none" xmlns="http://www.w3.org/2000/svg">
<g clip-path="url(#clip0_5303_3591)">
<path d="M18.8941 4.82609C19.0735 5.00543 19.1743 5.24868 19.1744 5.50235V22.0435C19.1744 22.2972 19.0736 22.5405 18.8942 22.7198C18.7149 22.8992 18.4716 23 18.2179 23H1.95701C1.70332 23 1.46003 22.8992 1.28065 22.7198C1.10126 22.5405 1.00049 22.2972 1.00049 22.0435V1.95652C1.00049 1.70284 1.10126 1.45954 1.28065 1.28016C1.46003 1.10078 1.70332 1 1.95701 1H14.6721C14.9257 1.00005 15.169 1.10087 15.3483 1.28026L18.8941 4.82609Z" fill="#FFEF5E"/>
<path d="M17.2499 3.18183L15.3483 1.28026C15.169 1.10087 14.9257 1.00005 14.6721 1H1.95701C1.70332 1 1.46003 1.10078 1.28065 1.28016C1.10126 1.45954 1.00049 1.70284 1.00049 1.95652V19.4322L17.2499 3.18183Z" fill="#FFF9BF"/>
<path d="M9.12015 4.454C9.15684 4.75318 9.0976 5.05629 8.95097 5.31964C8.80434 5.583 8.57788 5.793 8.30424 5.91939C8.1225 6.00165 7.92546 6.04374 7.7265 6.0447H7.66719C7.36607 6.04441 7.07302 5.94726 6.83135 5.76761C6.58969 5.58795 6.41223 5.33532 6.32519 5.04704C6.26685 4.85574 6.24867 4.65296 6.27354 4.454L6.61502 1H8.65241L9.12015 4.454Z" fill="white"/>
<path d="M11.5222 23H1.95701C1.70332 23 1.46003 22.8992 1.28065 22.7198C1.10126 22.5405 1.00049 22.2972 1.00049 22.0435V1.95652C1.00049 1.70284 1.10126 1.45954 1.28065 1.28016C1.46003 1.10078 1.70332 1 1.95701 1H14.6721C14.9257 1.00005 15.169 1.10087 15.3483 1.28026L18.8941 4.82609C19.0735 5.00543 19.1743 5.24868 19.1744 5.50235V9.6087" stroke="#191919" stroke-linecap="round" stroke-linejoin="round"/>
<path d="M9.12015 4.454C9.15684 4.75318 9.0976 5.05629 8.95097 5.31964C8.80434 5.583 8.57788 5.793 8.30424 5.91939C8.1225 6.00165 7.92546 6.04374 7.7265 6.0447H7.66719C7.36607 6.04441 7.07302 5.94726 6.83135 5.76761C6.58969 5.58795 6.41223 5.33532 6.32519 5.04704C6.26685 4.85574 6.24867 4.65296 6.27354 4.454L6.61502 1H8.65241L9.12015 4.454Z" stroke="#191919" stroke-linecap="round" stroke-linejoin="round"/>
<path d="M17.2606 23C18.7827 23 20.2425 22.3953 21.3188 21.319C22.3951 20.2427 22.9997 18.7829 22.9997 17.2608C22.9997 15.7387 22.3951 14.2789 21.3188 13.2027C20.2425 12.1264 18.7827 11.5217 17.2606 11.5217C15.7385 11.5217 14.2787 12.1264 13.2024 13.2027C12.1261 14.2789 11.5215 15.7387 11.5215 17.2608C11.5215 18.7829 12.1261 20.2427 13.2024 21.319C14.2787 22.3953 15.7385 23 17.2606 23Z" fill="#78EB7B"/>
<path d="M17.2614 11.5217C16.0933 11.5208 14.9528 11.8766 13.9924 12.5416C13.0321 13.2065 12.2977 14.1489 11.8876 15.2426C11.4774 16.3364 11.4111 17.5293 11.6974 18.6617C11.9838 19.7942 12.6091 20.8122 13.4898 21.5795L21.5801 13.4893C21.0431 12.8712 20.3796 12.3757 19.6345 12.0362C18.8894 11.6967 18.0801 11.5213 17.2614 11.5217Z" fill="#C9F7CA"/>
<path d="M17.2606 23C18.7827 23 20.2425 22.3953 21.3188 21.319C22.3951 20.2427 22.9997 18.7829 22.9997 17.2608C22.9997 15.7387 22.3951 14.2789 21.3188 13.2027C20.2425 12.1264 18.7827 11.5217 17.2606 11.5217C15.7385 11.5217 14.2787 12.1264 13.2024 13.2027C12.1261 14.2789 11.5215 15.7387 11.5215 17.2608C11.5215 18.7829 12.1261 20.2427 13.2024 21.319C14.2787 22.3953 15.7385 23 17.2606 23Z" stroke="#191919" stroke-linecap="round" stroke-linejoin="round"/>
<path d="M19.8189 15.5965L17.0449 19.3021C16.9833 19.3842 16.9046 19.4522 16.8144 19.5013C16.7242 19.5505 16.6245 19.5796 16.522 19.5869C16.4195 19.5942 16.3166 19.5793 16.2204 19.5434C16.1241 19.5074 16.0367 19.4513 15.9641 19.3786L14.5293 17.9438" stroke="#191919" stroke-linecap="round" stroke-linejoin="round"/>
<path d="M7.70983 8.42449C7.64641 8.42449 7.58559 8.39929 7.54074 8.35445C7.4959 8.3096 7.4707 8.24878 7.4707 8.18536C7.4707 8.12194 7.4959 8.06111 7.54074 8.01627C7.58559 7.97142 7.64641 7.94623 7.70983 7.94623" stroke="#191919"/>
<path d="M7.71045 8.42449C7.77387 8.42449 7.83469 8.39929 7.87954 8.35445C7.92439 8.3096 7.94958 8.24878 7.94958 8.18536C7.94958 8.12194 7.92439 8.06111 7.87954 8.01627C7.83469 7.97142 7.77387 7.94623 7.71045 7.94623" stroke="#191919"/>
<path d="M7.70056 10.8043C7.63714 10.8043 7.57631 10.7791 7.53147 10.7343C7.48662 10.6895 7.46143 10.6286 7.46143 10.5652C7.46143 10.5018 7.48662 10.441 7.53147 10.3961C7.57631 10.3513 7.63714 10.3261 7.70056 10.3261" stroke="#191919"/>
<path d="M7.70117 10.8043C7.76459 10.8043 7.82542 10.7791 7.87026 10.7343C7.91511 10.6895 7.9403 10.6286 7.9403 10.5652C7.9403 10.5018 7.91511 10.441 7.87026 10.3961C7.82542 10.3513 7.76459 10.3261 7.70117 10.3261" stroke="#191919"/>
<path d="M7.70056 13.1727C7.63714 13.1727 7.57631 13.1475 7.53147 13.1026C7.48662 13.0578 7.46143 12.997 7.46143 12.9336C7.46143 12.8701 7.48662 12.8093 7.53147 12.7645C7.57631 12.7196 7.63714 12.6944 7.70056 12.6944" stroke="#191919"/>
<path d="M7.70117 13.1727C7.76459 13.1727 7.82542 13.1475 7.87026 13.1026C7.91511 13.0578 7.9403 12.997 7.9403 12.9336C7.9403 12.8701 7.91511 12.8093 7.87026 12.7645C7.82542 12.7196 7.76459 12.6944 7.70117 12.6944" stroke="#191919"/>
<path d="M7.70056 15.5869C7.63714 15.5869 7.57631 15.5617 7.53147 15.5169C7.48662 15.472 7.46143 15.4112 7.46143 15.3478C7.46143 15.2844 7.48662 15.2236 7.53147 15.1787C7.57631 15.1339 7.63714 15.1087 7.70056 15.1087" stroke="#191919"/>
<path d="M7.7002 15.5869C7.76362 15.5869 7.82444 15.5617 7.86929 15.5169C7.91413 15.472 7.93933 15.4112 7.93933 15.3478C7.93933 15.2844 7.91413 15.2236 7.86929 15.1787C7.82444 15.1339 7.76362 15.1087 7.7002 15.1087" stroke="#191919"/>
<path d="M7.70983 18.0079C7.64641 18.0079 7.58559 17.9827 7.54074 17.9379C7.4959 17.893 7.4707 17.8322 7.4707 17.7688C7.4707 17.7053 7.4959 17.6445 7.54074 17.5997C7.58559 17.5548 7.64641 17.5296 7.70983 17.5296" stroke="#191919"/>
<path d="M7.70947 18.0079C7.77289 18.0079 7.83372 17.9827 7.87856 17.9379C7.92341 17.893 7.9486 17.8322 7.9486 17.7688C7.9486 17.7053 7.92341 17.6445 7.87856 17.5997C7.83372 17.5548 7.77289 17.5296 7.70947 17.5296" stroke="#191919"/>
<path d="M7.70983 20.4288C7.64641 20.4288 7.58559 20.4036 7.54074 20.3588C7.4959 20.3139 7.4707 20.2531 7.4707 20.1897C7.4707 20.1263 7.4959 20.0654 7.54074 20.0206C7.58559 19.9758 7.64641 19.9506 7.70983 19.9506" stroke="#191919"/>
<path d="M7.70947 20.4288C7.77289 20.4288 7.83372 20.4036 7.87856 20.3588C7.92341 20.3139 7.9486 20.2531 7.9486 20.1897C7.9486 20.1263 7.92341 20.0654 7.87856 20.0206C7.83372 19.9758 7.77289 19.9506 7.70947 19.9506" stroke="#191919"/>
</g>
<defs>
<clipPath id="clip0_5303_3591">
<rect width="24" height="24" fill="white"/>
</clipPath>
</defs>
</svg>
