<svg width="24" height="24" viewBox="0 0 24 24" fill="none" xmlns="http://www.w3.org/2000/svg">
<path d="M19.7915 3.2926H4.20817C3.96506 3.2926 3.7319 3.38918 3.55999 3.56109C3.38808 3.733 3.2915 3.96615 3.2915 4.20927V19.7926C3.2915 19.913 3.31521 20.0322 3.36128 20.1434C3.40735 20.2546 3.47487 20.3557 3.55999 20.4408C3.64511 20.5259 3.74616 20.5934 3.85738 20.6395C3.96859 20.6856 4.08779 20.7093 4.20817 20.7093H19.7915C19.9119 20.7093 20.0311 20.6856 20.1423 20.6395C20.2535 20.5934 20.3546 20.5259 20.4397 20.4408C20.5248 20.3557 20.5923 20.2546 20.6384 20.1434C20.6845 20.0322 20.7082 19.913 20.7082 19.7926V4.20927C20.7082 3.96615 20.6116 3.733 20.4397 3.56109C20.2678 3.38918 20.0346 3.2926 19.7915 3.2926Z" fill="#E4F1F5"/>
<path d="M1.4585 4.26979V2.37504C1.4585 2.13193 1.55507 1.89877 1.72698 1.72686C1.89889 1.55495 2.13205 1.45837 2.37516 1.45837H4.26991" stroke="#191919" stroke-linecap="round" stroke-linejoin="round"/>
<path d="M4.26991 22.5416H2.37516C2.13205 22.5416 1.89889 22.4451 1.72698 22.2732C1.55507 22.1012 1.4585 21.8681 1.4585 21.625V19.7302" stroke="#191919" stroke-linecap="round" stroke-linejoin="round"/>
<path d="M1.4585 7.78333V10.5947" stroke="#191919" stroke-linecap="round" stroke-linejoin="round"/>
<path d="M1.4585 13.4053V16.2167" stroke="#191919" stroke-linecap="round" stroke-linejoin="round"/>
<path d="M22.5415 7.78333V10.5947" stroke="#191919" stroke-linecap="round" stroke-linejoin="round"/>
<path d="M7.7832 1.45837H10.5946" stroke="#191919" stroke-linecap="round" stroke-linejoin="round"/>
<path d="M13.4053 1.45837H16.2167" stroke="#191919" stroke-linecap="round" stroke-linejoin="round"/>
<path d="M19.7305 1.45837H21.6252C21.7456 1.45837 21.8648 1.48208 21.976 1.52815C22.0872 1.57422 22.1883 1.64174 22.2734 1.72686C22.3585 1.81198 22.426 1.91303 22.4721 2.02425C22.5182 2.13546 22.5419 2.25466 22.5419 2.37504V4.26979" stroke="#191919" stroke-linecap="round" stroke-linejoin="round"/>
<path d="M10.5946 22.5416H7.7832" stroke="#191919" stroke-linecap="round" stroke-linejoin="round"/>
<path d="M14.1082 19.7303C15.5993 19.7303 17.0292 19.138 18.0835 18.0837C19.1379 17.0293 19.7302 15.5994 19.7302 14.1084C19.7302 12.6173 19.1379 11.1874 18.0835 10.1331C17.0292 9.07876 15.5993 8.48645 14.1082 8.48645C12.6172 8.48645 11.1873 9.07876 10.1329 10.1331C9.07863 11.1874 8.48633 12.6173 8.48633 14.1084C8.48633 15.5994 9.07863 17.0293 10.1329 18.0837C11.1873 19.138 12.6172 19.7303 14.1082 19.7303Z" fill="#66E1FF"/>
<path d="M10.1326 18.0839C9.07819 17.0295 8.48584 15.5994 8.48584 14.1083C8.48584 12.6172 9.07819 11.1871 10.1326 10.1327C11.187 9.07831 12.617 8.48596 14.1082 8.48596C15.5993 8.48596 17.0294 9.07831 18.0837 10.1327L10.1326 18.0839Z" fill="#C2F3FF"/>
<path d="M14.1082 19.7303C15.5993 19.7303 17.0292 19.138 18.0835 18.0837C19.1379 17.0293 19.7302 15.5994 19.7302 14.1084C19.7302 12.6173 19.1379 11.1874 18.0835 10.1331C17.0292 9.07876 15.5993 8.48645 14.1082 8.48645C12.6172 8.48645 11.1873 9.07876 10.1329 10.1331C9.07863 11.1874 8.48633 12.6173 8.48633 14.1084C8.48633 15.5994 9.07863 17.0293 10.1329 18.0837C11.1873 19.138 12.6172 19.7303 14.1082 19.7303Z" stroke="#191919" stroke-linecap="round" stroke-linejoin="round"/>
<path d="M12.2749 14.1083H15.9416" stroke="#191919" stroke-linecap="round" stroke-linejoin="round"/>
<path d="M18.084 18.0839L22.5417 22.5416" stroke="#191919" stroke-linecap="round" stroke-linejoin="round"/>
</svg>
