<svg width="24" height="24" viewBox="0 0 24 24" fill="none" xmlns="http://www.w3.org/2000/svg">
<path fill-rule="evenodd" clip-rule="evenodd" d="M7 2C5.89543 2 5 2.89543 5 4V5C4.44772 5 4 5.44772 4 6C4 6.55228 4.44772 7 5 7V8C4.44772 8 4 8.44772 4 9C4 9.55228 4.44772 10 5 10V11C4.44772 11 4 11.4477 4 12C4 12.5523 4.44772 13 5 13V14C4.44772 14 4 14.4477 4 15C4 15.5523 4.44772 16 5 16V17C4.44772 17 4 17.4477 4 18C4 18.5523 4.44772 19 5 19V20C5 21.1046 5.89543 22 7 22H18C19.1046 22 20 21.1046 20 20V4C20 2.89543 19.1046 2 18 2H7ZM10 10C10 8.34315 11.3431 7 13 7C14.6569 7 16 8.34315 16 10C16 11.6569 14.6569 13 13 13C11.3431 13 10 11.6569 10 10ZM9 17C9 15.3431 10.3431 14 12 14H14C15.6569 14 17 15.3431 17 17C17 17.5523 16.5523 18 16 18H10C9.44772 18 9 17.5523 9 17Z" fill="#111928"/>
</svg>
