<svg width="24" height="24" viewBox="0 0 24 24" fill="none" xmlns="http://www.w3.org/2000/svg">
<path d="M10.8293 5C10.4175 3.83481 9.30622 3 8 3C6.69378 3 5.58254 3.83481 5.17071 5L4 5C3.44772 5 3 5.44771 3 6C3 6.55228 3.44772 7 4 7H5.17071C5.58254 8.16519 6.69378 9 8 9C9.30622 9 10.4175 8.16519 10.8293 7L20 7C20.5523 7 21 6.55228 21 6C21 5.44771 20.5523 5 20 5L10.8293 5Z" fill="#111928"/>
<path d="M4 11L13.1707 11C13.5825 9.83481 14.6938 9 16 9C17.3062 9 18.4175 9.83481 18.8293 11H20C20.5523 11 21 11.4477 21 12C21 12.5523 20.5523 13 20 13H18.8293C18.4175 14.1652 17.3062 15 16 15C14.6938 15 13.5825 14.1652 13.1707 13L4 13C3.44772 13 3 12.5523 3 12C3 11.4477 3.44772 11 4 11Z" fill="#111928"/>
<path d="M5.17071 17L4 17C3.44772 17 3 17.4477 3 18C3 18.5523 3.44772 19 4 19H5.1707C5.58254 20.1652 6.69378 21 8 21C9.30622 21 10.4175 20.1652 10.8293 19L20 19C20.5523 19 21 18.5523 21 18C21 17.4477 20.5523 17 20 17L10.8293 17C10.4175 15.8348 9.30622 15 8 15C6.69378 15 5.58254 15.8348 5.17071 17Z" fill="#111928"/>
</svg>
