<svg width="24" height="24" viewBox="0 0 24 24" fill="none" xmlns="http://www.w3.org/2000/svg">
<path fill-rule="evenodd" clip-rule="evenodd" d="M11.4027 5H5C3.89543 5 3 5.89543 3 7V19C3 20.1046 3.89543 21 5 21H17C18.1046 21 19 20.1046 19 19V12.5973C18.2214 12.3221 17.5903 11.7346 17.2573 10.9854L14.2323 14.0103C13.0607 15.1819 11.1612 15.1819 9.98967 14.0103C8.8181 12.8387 8.8181 10.9393 9.98967 9.76768L13.0146 6.74272C12.2654 6.40966 11.6779 5.77859 11.4027 5Z" fill="#111928"/>
<path fill-rule="evenodd" clip-rule="evenodd" d="M13.232 4C13.232 3.44772 13.6797 3 14.232 3H20C20.5523 3 21 3.44772 21 4V9.768C21 10.3203 20.5523 10.768 20 10.768C19.4477 10.768 19 10.3203 19 9.768V6.41421L12.8181 12.5961C12.4276 12.9866 11.7944 12.9866 11.4039 12.5961C11.0134 12.2056 11.0134 11.5724 11.4039 11.1819L17.5858 5H14.232C13.6797 5 13.232 4.55228 13.232 4Z" fill="#111928"/>
</svg>
