<svg width="24" height="24" viewBox="0 0 24 24" fill="none" xmlns="http://www.w3.org/2000/svg">
<path d="M7.17131 12.9062L5.01758 19.3174L7.6898 18.4266L9.25798 20.7664L11.0834 15.584M16.8128 12.9062L18.9665 19.3174L16.2943 18.4266L14.7261 20.7665L12.9007 15.5841M9.16455 4.29864C9.74453 4.36677 10.3183 4.1291 10.6803 3.67081C11.3534 2.81839 12.6461 2.81839 13.3193 3.67081C13.6812 4.1291 14.255 4.36677 14.835 4.29864C15.9138 4.1719 16.8279 5.08596 16.7011 6.16473C16.633 6.74471 16.8707 7.31851 17.3289 7.68044C18.1814 8.35362 18.1814 9.6463 17.3289 10.3195C16.8707 10.6814 16.633 11.2552 16.7011 11.8352C16.8279 12.914 15.9138 13.828 14.835 13.7013C14.255 13.6332 13.6812 13.8708 13.3193 14.3291C12.6461 15.1815 11.3534 15.1815 10.6803 14.3291C10.3183 13.8708 9.74453 13.6332 9.16455 13.7013C8.08579 13.828 7.17172 12.914 7.29846 11.8352C7.3666 11.2552 7.12892 10.6814 6.67063 10.3195C5.81821 9.6463 5.81822 8.35362 6.67063 7.68044C7.12892 7.31851 7.3666 6.74471 7.29846 6.16473C7.17172 5.08596 8.08579 4.1719 9.16455 4.29864ZM13.9998 8.99996C13.9998 10.1045 13.1044 11 11.9998 11C10.8952 11 9.99979 10.1045 9.99979 8.99996C9.99979 7.89539 10.8952 6.99996 11.9998 6.99996C13.1044 6.99996 13.9998 7.89539 13.9998 8.99996Z" stroke="#111928" stroke-width="2" stroke-linecap="round" stroke-linejoin="round"/>
</svg>
