<svg width="24" height="24" viewBox="0 0 24 24" fill="none" xmlns="http://www.w3.org/2000/svg">
<path fill-rule="evenodd" clip-rule="evenodd" d="M12.264 3.28809C12.5414 2.82423 13.1371 2.66469 13.6092 2.92785L17.0174 4.82777C17.0259 4.83235 17.0344 4.83707 17.0428 4.84192L20.452 6.74239C20.6883 6.87409 20.8611 7.09588 20.9311 7.35715C21.0011 7.61843 20.9622 7.89691 20.8234 8.12905C20.0399 9.4393 19.2407 9.92376 18.5555 10.336L18.5446 10.3425C17.9681 10.6893 17.5032 10.969 16.9731 11.8556C16.4467 12.7359 16.4286 13.2558 16.4062 13.9003L16.4056 13.9186C16.3781 14.7059 16.3413 15.6246 15.5558 16.9384C14.7723 18.2486 13.9731 18.7331 13.2879 19.1453L13.277 19.1518C12.7005 19.4987 12.2356 19.7784 11.7055 20.6649C11.4281 21.1287 10.8324 21.2883 10.3603 21.0251L3.51749 17.2106C3.28124 17.0789 3.10841 16.8571 3.03844 16.5958C2.96847 16.3345 3.00732 16.0561 3.14613 15.8239C3.92961 14.5137 4.72887 14.0292 5.41402 13.617L5.42488 13.6105C6.0014 13.2636 6.46633 12.9839 6.99644 12.0974C7.52281 11.2171 7.5409 10.6971 7.56332 10.0527L7.56396 10.0344C7.5914 9.24712 7.62818 8.32834 8.41374 7.01461C9.19721 5.70436 9.99648 5.2199 10.6816 4.80768L10.6925 4.80115C11.269 4.45432 11.7339 4.17462 12.264 3.28809ZM15.0561 6.02418L13.4245 5.11464C12.8259 5.84957 12.236 6.20658 11.7127 6.52143L11.7018 6.52796C11.1253 6.8748 10.6604 7.1545 10.1303 8.04102C9.60389 8.92131 9.5858 9.44129 9.56338 10.0858L9.56275 10.104C9.53531 10.8913 9.49852 11.8101 8.71297 13.1238C7.92949 14.4341 7.13023 14.9185 6.44508 15.3307L6.43422 15.3373C6.0933 15.5424 5.7914 15.724 5.49197 16.0215L7.1236 16.9311C7.7222 16.1961 8.31213 15.839 8.83547 15.5242L8.84633 15.5177C9.42285 15.1708 9.88778 14.8911 10.4179 14.0046C10.9443 13.1243 10.9624 12.6043 10.9848 11.9598L10.9854 11.9416C11.0128 11.1543 11.0496 10.2355 11.8352 8.92179C12.6187 7.61155 13.4179 7.12708 14.1031 6.71487L14.1139 6.70834C14.4548 6.50326 14.7567 6.32165 15.0561 6.02418ZM8.91335 17.9288C9.2128 17.6312 9.51472 17.4496 9.85567 17.2445L9.86652 17.2379C10.5517 16.8257 11.3509 16.3413 12.1344 15.031C12.92 13.7173 12.9568 12.7985 12.9842 12.0112L12.9848 11.9929C13.0072 11.3485 13.0253 10.8285 13.5517 9.94821C14.0818 9.06168 14.5468 8.78198 15.1233 8.43515L15.1341 8.42862C15.6574 8.11377 16.2473 7.75678 16.8459 7.0219L18.4776 7.93147C18.1781 8.22898 17.8762 8.4106 17.5353 8.6157L17.5244 8.62223C16.8393 9.03444 16.04 9.51891 15.2566 10.8292C14.471 12.1429 14.4342 13.0617 14.4068 13.8489L14.4061 13.8672C14.3837 14.5117 14.3656 15.0317 13.8393 15.912C13.3092 16.7985 12.8442 17.0782 12.2677 17.425L12.2568 17.4315C11.7335 17.7464 11.1436 18.1034 10.545 18.8383L8.91335 17.9288Z" fill="#383838"/>
</svg>
