<svg width="24" height="24" viewBox="0 0 24 24" fill="none" xmlns="http://www.w3.org/2000/svg">
<path d="M16.1325 4.33448L13.6092 2.92784C13.1371 2.6647 12.5414 2.82424 12.264 3.28809C11.7339 4.17462 11.269 4.45432 10.6925 4.80115L10.6816 4.80768C9.99648 5.2199 9.19721 5.70436 8.41374 7.01461C7.62818 8.32834 7.5914 9.24712 7.56396 10.0344L7.56332 10.0527C7.5409 10.6971 7.52281 11.2171 6.99644 12.0974C6.46633 12.9839 6.0014 13.2636 5.42488 13.6105L5.41402 13.617C4.72887 14.0292 3.92961 14.5137 3.14613 15.8239C3.00732 16.0561 2.96846 16.3346 3.03844 16.5958C3.10842 16.8571 3.28125 17.0789 3.51751 17.2106L6.13926 18.6721C6.28053 18.2586 6.44547 17.9352 6.56749 17.7311C7.35096 16.4209 8.15025 15.9363 8.8354 15.5241L8.84625 15.5176C9.42277 15.1708 9.88771 14.8911 10.4178 14.0045C10.9442 13.1243 10.9623 12.6043 10.9847 11.9598L10.9853 11.9415C11.0128 11.1543 11.0496 10.2355 11.8351 8.92174C12.6186 7.6115 13.4179 7.12703 14.103 6.71482L14.1139 6.70829C14.6877 6.36306 15.151 6.08432 15.6781 5.20742C15.8016 4.98623 15.9737 4.66232 16.1325 4.33448Z" fill="#383838"/>
<path d="M7.93136 19.6711L10.3603 21.0251C10.8324 21.2883 11.4281 21.1287 11.7055 20.6649C12.2356 19.7784 12.7005 19.4987 13.277 19.1518L13.2879 19.1453C13.9731 18.7331 14.7723 18.2486 15.5558 16.9384C16.3413 15.6246 16.3781 14.7059 16.4056 13.9186L16.4062 13.9003C16.4286 13.2558 16.4467 12.7359 16.9731 11.8556C17.5032 10.969 17.9681 10.6893 18.5446 10.3425L18.5555 10.336C19.2407 9.92376 20.0399 9.4393 20.8234 8.12905C20.9622 7.89691 21.0011 7.61844 20.9311 7.35717C20.8611 7.09589 20.6883 6.87411 20.4521 6.7424L17.882 5.3097C17.7142 5.65006 17.542 5.97221 17.4163 6.19688C17.4116 6.2052 17.4068 6.21346 17.402 6.22164C16.6185 7.53189 15.8192 8.01635 15.1341 8.42857L15.1232 8.4351C14.5467 8.78193 14.0817 9.06163 13.5516 9.94816C13.0253 10.8285 13.0072 11.3484 12.9848 11.9929L12.9841 12.0112C12.9567 12.7984 12.9199 13.7172 12.1343 15.031C11.3509 16.3412 10.5516 16.8257 9.86645 17.2379L9.8556 17.2444C9.27909 17.5912 8.81416 17.8709 8.28406 18.7574C8.18239 18.9275 8.0266 19.252 7.93136 19.6711Z" fill="#383838"/>
</svg>
