<svg width="24" height="24" viewBox="0 0 24 24" fill="none" xmlns="http://www.w3.org/2000/svg">
<path d="M2.98779 7.97095C2.98779 7.41866 3.43551 6.97095 3.98779 6.97095H16.9256C17.4778 6.97095 17.9256 7.41866 17.9256 7.97095V15.9295C17.9256 16.4817 17.4778 16.9295 16.9256 16.9295H3.98779C3.43551 16.9295 2.98779 16.4817 2.98779 15.9295V7.97095Z" stroke="#111928" stroke-width="2" stroke-linejoin="round"/>
<path d="M20.9131 12.9419V10.9585C20.9131 10.4062 20.4654 9.9585 19.9131 9.9585H18.9256C18.3733 9.9585 17.9256 10.4062 17.9256 10.9585V12.9419C17.9256 13.4942 18.3733 13.9419 18.9256 13.9419H19.9131C20.4654 13.9419 20.9131 13.4942 20.9131 12.9419Z" stroke="#111928" stroke-width="2" stroke-linejoin="round"/>
<path d="M5.97535 9.9585H14.938V13.9419H5.97535V9.9585Z" stroke="#111928" stroke-width="2" stroke-linejoin="round"/>
</svg>
