<svg width="24" height="24" viewBox="0 0 24 24" fill="none" xmlns="http://www.w3.org/2000/svg">
<path d="M17.133 12.632V10.832C17.1337 9.61541 16.724 8.43419 15.9702 7.47931C15.2163 6.52443 14.1625 5.85173 12.979 5.56998C12.988 5.53507 12.995 5.49968 13 5.46398V3.09998C13 2.83476 12.8946 2.58041 12.7071 2.39287C12.5196 2.20533 12.2652 2.09998 12 2.09998C11.7348 2.09998 11.4804 2.20533 11.2929 2.39287C11.1054 2.58041 11 2.83476 11 3.09998V5.46398C11.005 5.49968 11.012 5.53507 11.021 5.56998C9.83751 5.85173 8.78365 6.52443 8.02984 7.47931C7.27603 8.43419 6.86633 9.61541 6.867 10.832V12.632C6.867 15.018 5 15.614 5 16.807C5 17.4 5 18 5.538 18H18.462C19 18 19 17.4 19 16.807C19 15.614 17.133 15.018 17.133 12.632Z" fill="#111928"/>
<path d="M8.823 19C9.08828 19.623 9.53089 20.1543 10.0958 20.5277C10.6606 20.9011 11.3228 21.1002 12 21.1002C12.6772 21.1002 13.3394 20.9011 13.9042 20.5277C14.4691 20.1543 14.9117 19.623 15.177 19H8.823Z" fill="#111928"/>
</svg>
