<svg width="24" height="24" viewBox="0 0 24 24" fill="none" xmlns="http://www.w3.org/2000/svg">
<path d="M11.2086 3.81595C11.107 3.2731 10.5845 2.9154 10.0417 3.01701C9.49882 3.11862 9.14112 3.64106 9.24273 4.18392L9.56827 5.92311C8.75089 6.34334 8.04876 6.97123 7.53827 7.75364C6.78072 8.91469 6.50459 10.3249 6.7683 11.6859C7.1076 13.4974 7.07028 13.2989 7.04397 13.159C7.02771 13.0725 7.01565 13.0084 7.0993 13.4549C7.35651 14.8289 6.87087 15.7171 6.4686 16.4528C6.18428 16.9728 5.94161 17.4166 6.0323 17.9019C6.14226 18.4877 6.25248 19.0749 6.7813 18.9759L19.4813 16.5989C20.0101 16.499 19.9004 15.9143 19.7904 15.3285C19.6867 14.7653 19.1544 14.2056 18.5949 13.6178C17.9893 12.9816 17.3518 12.3118 17.1913 11.5669C16.9575 10.4816 16.9158 10.1798 16.8883 9.98039C16.8794 9.91652 16.8721 9.86317 16.8603 9.79794C16.6142 8.4337 15.847 7.21872 14.721 6.41004C13.7808 5.73476 12.652 5.38703 11.5067 5.4086L11.2086 3.81595Z" fill="#111928"/>
<path fill-rule="evenodd" clip-rule="evenodd" d="M6.53881 4.27793C6.94805 4.64879 6.97916 5.28119 6.60829 5.69043C5.4938 6.92025 4.90409 8.29459 4.77843 9.95059C4.73664 10.5013 4.25633 10.9138 3.70563 10.8721C3.15493 10.8303 2.74238 10.35 2.78416 9.79926C2.94337 7.70122 3.71268 5.90731 5.1263 4.34741C5.49717 3.93817 6.12957 3.90706 6.53881 4.27793Z" fill="#111928"/>
<path d="M8.95004 19.6999C9.65004 20.4999 10.65 20.9999 11.75 20.9999C13.35 20.9999 14.65 19.8999 15.05 18.4999L8.95004 19.6999Z" fill="#111928"/>
</svg>
