<svg width="24" height="24" viewBox="0 0 24 24" fill="none" xmlns="http://www.w3.org/2000/svg">
<path d="M17.133 12.632V10.832C17.1336 9.61541 16.7239 8.43419 15.9701 7.47931C15.2163 6.52443 14.1625 5.85173 12.979 5.56998C12.988 5.53507 12.995 5.49968 13 5.46398V3.09998C13 2.83476 12.8946 2.58041 12.7071 2.39287C12.5195 2.20533 12.2652 2.09998 12 2.09998C11.7348 2.09998 11.4804 2.20533 11.2929 2.39287C11.1053 2.58041 11 2.83476 11 3.09998V5.46398C11.0049 5.49968 11.012 5.53507 11.021 5.56998C9.83748 5.85173 8.78362 6.52443 8.02981 7.47931C7.27599 8.43419 6.8663 9.61541 6.86697 10.832V12.632C6.86697 15.018 4.99997 15.614 4.99997 16.807C4.99997 17.4 4.99997 18 5.53797 18H18.462C19 18 19 17.4 19 16.807C19 15.614 17.133 15.018 17.133 12.632Z" fill="#111928"/>
<path d="M3.86597 11.832C3.60075 11.832 3.3464 11.7266 3.15886 11.5391C2.97132 11.3515 2.86597 11.0972 2.86597 10.832C2.87109 8.46086 3.76984 6.17881 5.38297 4.44098C5.56318 4.24591 5.81351 4.13042 6.07887 4.11992C6.34423 4.10942 6.6029 4.20476 6.79797 4.38498C6.99303 4.56519 7.10852 4.81551 7.11902 5.08088C7.12953 5.34624 7.03418 5.60491 6.85397 5.79998C5.58135 7.16917 4.87151 8.96769 4.86597 10.837C4.86465 11.1013 4.75871 11.3544 4.57131 11.5409C4.38392 11.7273 4.13032 11.832 3.86597 11.832Z" fill="#111928"/>
<path d="M20.134 11.832C19.8687 11.832 19.6144 11.7266 19.4269 11.5391C19.2393 11.3515 19.134 11.0972 19.134 10.832C19.1272 8.96442 18.4174 7.1679 17.146 5.79998C16.9747 5.6036 16.8868 5.3481 16.901 5.08789C16.9153 4.82768 17.0305 4.58332 17.2223 4.40683C17.414 4.23034 17.6671 4.13567 17.9276 4.14298C18.1881 4.1503 18.4354 4.25901 18.617 4.44598C20.2301 6.1838 21.1288 8.46586 21.134 10.837C21.1326 11.1013 21.0267 11.3544 20.8393 11.5409C20.6519 11.7273 20.3983 11.832 20.134 11.832Z" fill="#111928"/>
<path d="M8.82297 19C9.08824 19.623 9.53085 20.1543 10.0957 20.5277C10.6606 20.9011 11.3228 21.1002 12 21.1002C12.6771 21.1002 13.3393 20.9011 13.9042 20.5277C14.4691 20.1543 14.9117 19.623 15.177 19H8.82297Z" fill="#111928"/>
</svg>
