<svg width="24" height="24" viewBox="0 0 24 24" fill="none" xmlns="http://www.w3.org/2000/svg">
<path d="M12.0002 5.365V3M12.0002 5.365C13.3853 5.4182 14.6954 6.00811 15.6534 7.00992C16.6113 8.01174 17.142 9.34691 17.1332 10.733V12.533C17.1332 14.919 19.0002 15.515 19.0002 16.708C19.0002 17.301 19.0002 17.901 18.4622 17.901H5.53821C5.00021 17.901 5.00021 17.301 5.00021 16.708C5.00021 15.515 6.86721 14.919 6.86721 12.533V10.733C6.8584 9.34691 7.3891 8.01174 8.34706 7.00992C9.30502 6.00811 10.6151 5.4182 12.0002 5.365ZM3.86621 10.733C3.8744 8.61344 4.6781 6.57421 6.11821 5.019M20.1342 10.733C20.126 8.61344 19.3223 6.57421 17.8822 5.019M8.54021 17.901C8.63422 18.7529 9.03923 19.5403 9.67767 20.1121C10.3161 20.684 11.1431 21.0002 12.0002 21.0002C12.8573 21.0002 13.6843 20.684 14.3227 20.1121C14.9612 19.5403 15.3662 18.7529 15.4602 17.901H8.54021Z" stroke="#111928" stroke-width="2" stroke-linecap="round" stroke-linejoin="round"/>
</svg>
