<svg width="24" height="24" viewBox="0 0 24 24" fill="none" xmlns="http://www.w3.org/2000/svg">
<path fill-rule="evenodd" clip-rule="evenodd" d="M4.13991 16.8797C2.73603 15.4758 2.73603 13.2928 4.13991 11.889C5.29703 10.7318 6.98344 10.5285 8.32663 11.2788L11.2789 8.32648C10.5286 6.9833 10.732 5.29688 11.8891 4.13977C13.293 2.73589 15.476 2.73589 16.8799 4.13977C17.401 4.6609 17.7708 5.36223 17.8946 6.10546C18.6379 6.22933 19.3392 6.59909 19.8603 7.12023C21.2642 8.52411 21.2642 10.7071 19.8603 12.111C18.7032 13.2681 17.0168 13.4715 15.6736 12.7212L12.7213 15.6735C13.4716 17.0166 13.2682 18.7031 12.1111 19.8602C10.7073 21.2641 8.52425 21.2641 7.12037 19.8602C6.59924 19.339 6.22948 18.6377 6.1056 17.8945C5.36238 17.7706 4.66104 17.4009 4.13991 16.8797ZM5.55413 13.3032C4.93129 13.926 4.93129 14.8427 5.55413 15.4655C5.94086 15.8522 6.49322 16.0045 6.88731 15.9135C7.22327 15.836 7.57547 15.937 7.81927 16.1808C8.06308 16.4246 8.16409 16.7768 8.08656 17.1128C7.99562 17.5069 8.14785 18.0592 8.53458 18.446C9.15742 19.0688 10.0741 19.0688 10.6969 18.446C11.3198 17.8231 11.3198 16.9065 10.6969 16.2836C10.3064 15.8931 10.3064 15.2599 10.6969 14.8694L14.8696 10.6968C15.2601 10.3062 15.8932 10.3063 16.2838 10.6968C16.9066 11.3196 17.8233 11.3196 18.4461 10.6968C19.0689 10.0739 19.0689 9.15727 18.4461 8.53444C18.0594 8.14771 17.507 7.99547 17.1129 8.08641C16.777 8.16394 16.4248 8.06293 16.181 7.81913C15.9372 7.57533 15.8361 7.22312 15.9137 6.88716C16.0046 6.49308 15.8524 5.94071 15.4657 5.55398C14.8428 4.93115 13.9261 4.93115 13.3033 5.55398C12.6805 6.17681 12.6805 7.09349 13.3033 7.71632C13.6938 8.10684 13.6938 8.74001 13.3033 9.13053L9.13068 13.3032C8.74015 13.6937 8.10699 13.6937 7.71646 13.3032C7.09363 12.6803 6.17696 12.6803 5.55413 13.3032Z" fill="#383838"/>
</svg>
