<svg width="24" height="24" viewBox="0 0 24 24" fill="none" xmlns="http://www.w3.org/2000/svg">
<path d="M12 11V20M12 11C9.49462 10.2893 8.80905 9.60457 5.86348 9.65032C5.3829 9.65778 5 10.0375 5 10.5V17.7884C5 18.2708 5.41454 18.6566 5.91583 18.6501C8.69075 18.6139 9.37579 19.3062 12 20M12 11C14.5054 10.2893 15.1068 9.60458 18.0524 9.65032C18.5329 9.65778 19 10.0375 19 10.5V17.7884C19 18.2708 18.5013 18.6566 18 18.6501C15.2251 18.6139 14.6242 19.3062 12 20M14 6C14 7.10457 13.1046 8 12 8C10.8954 8 10 7.10457 10 6C10 4.89543 10.8954 4 12 4C13.1046 4 14 4.89543 14 6Z" stroke="#383838" stroke-width="2" stroke-linejoin="round"/>
</svg>
