<svg width="24" height="24" viewBox="0 0 24 24" fill="none" xmlns="http://www.w3.org/2000/svg">
<path fill-rule="evenodd" clip-rule="evenodd" d="M13.3763 5.24861C13.0226 5.05981 12.5234 4.9809 11.9597 5.09085C10.9994 5.27818 10.3728 6.20851 10.5602 7.16881C10.6558 7.65909 10.375 8.14476 9.90233 8.30644C9.42969 8.46813 8.91023 8.25623 8.68553 7.81009C8.47044 7.38303 8.1299 7.03653 7.76306 6.86274C7.42674 6.70342 7.04482 6.67265 6.60445 6.89445C6.12842 7.1342 5.82542 7.68092 5.80039 8.22701C5.81507 8.22709 5.82985 8.22729 5.84473 8.22761C6.41726 8.23992 7.06559 8.42975 7.71034 8.93434C8.14527 9.27472 8.22192 9.90322 7.88154 10.3382C7.54116 10.7731 6.91266 10.8497 6.47773 10.5093C6.17368 10.2714 5.94283 10.2302 5.80175 10.2271C5.64384 10.2238 5.51847 10.2675 5.43608 10.3021C5.20565 10.3988 5.00001 10.6486 5.00001 11.1174C5.00001 11.6048 5.39517 12 5.88264 12C5.88431 12 5.88599 12 5.88767 12H18.0078C18.5565 11.9959 19 11.5497 19 11.0001C19 10.5698 18.7278 10.2005 18.3429 10.0601C18.2373 10.0215 18.1223 10.0001 18 10.0001C17.4477 10.0001 17 9.55234 17 9.00005C17 8.44777 17.4477 8.00005 18 8.00005C18.0579 8.00005 18.1155 8.00171 18.1727 8.00497C18.3674 7.41373 18.2057 6.73865 17.7762 6.39096C17.172 5.90175 16.2856 5.99502 15.7964 6.59928C15.5519 6.90125 15.1546 7.03429 14.7776 6.94044C14.4006 6.84659 14.112 6.54286 14.0376 6.16152C13.9509 5.71671 13.7092 5.42631 13.3763 5.24861ZM20.0161 8.77865C20.6201 9.327 21 10.1186 21 11.0001C21 11.4632 20.8951 11.9018 20.7077 12.2935C20.7242 12.3101 20.7402 12.3273 20.7557 12.3451C20.9456 12.5643 21.0311 12.8551 20.9898 13.1422C20.594 15.8987 18.6369 18.1519 16.0234 19.2963L16.0234 20C16.0234 20.5523 15.5757 21 15.0234 21H8.97661C8.42433 21 7.97661 20.5523 7.97661 20V19.2963C5.36311 18.1519 3.40606 15.8987 3.01016 13.1422C2.96893 12.8551 3.05437 12.5643 3.24431 12.3451C3.25066 12.3378 3.25711 12.3305 3.26366 12.3234C3.09441 11.9565 3.00001 11.548 3.00001 11.1174C3.00001 10.3245 3.28129 9.53278 3.86442 8.97695C3.56861 7.47423 4.29303 5.81925 5.70481 5.10821C6.72802 4.59287 7.75903 4.64777 8.61929 5.05529C8.7142 5.10025 8.80661 5.14925 8.89644 5.2019C9.39424 4.16343 10.3596 3.3653 11.5768 3.12785C12.5155 2.94473 13.4952 3.04499 14.3181 3.48422C14.7444 3.71178 15.1168 4.02518 15.4076 4.41601C16.5586 3.86084 17.9757 3.97912 19.0347 4.83652C20.2337 5.80721 20.5191 7.44019 20.0161 8.77865ZM5.29103 14C5.92538 15.6314 7.37547 16.9935 9.30818 17.6728C9.70864 17.8135 9.97661 18.1917 9.97661 18.6162V19H14.0234V18.6162C14.0234 18.1917 14.2914 17.8135 14.6918 17.6728C16.6245 16.9935 18.0746 15.6314 18.709 14H18.011L18 14.0001C17.9974 14.0001 17.9948 14 17.9923 14H5.29103ZM14.1096 10.2347C13.8801 9.73234 13.2868 9.5111 12.7845 9.74055C12.2821 9.97 11.6889 9.74876 11.4594 9.24639C11.23 8.74403 11.4512 8.15077 11.9536 7.92132C13.4607 7.23297 15.2404 7.8967 15.9288 9.40379C16.1582 9.90616 15.937 10.4994 15.4346 10.7289C14.9323 10.9583 14.339 10.7371 14.1096 10.2347Z" fill="#383838"/>
</svg>
