<svg width="24" height="24" viewBox="0 0 24 24" fill="none" xmlns="http://www.w3.org/2000/svg">
<path d="M11 21V2.352C10.5329 2.12312 10.0201 2.00279 9.5 2C8.79417 2.00072 8.10504 2.21483 7.52308 2.61423C6.94111 3.01362 6.4935 3.57965 6.239 4.238C5.5803 4.49241 5.01395 4.9401 4.61436 5.52227C4.21476 6.10445 4.00059 6.79388 4 7.5C4.00043 7.67243 4.0138 7.84458 4.04 8.015C3.71355 8.33745 3.45333 8.72064 3.274 9.143C3.232 9.243 3.21 9.352 3.174 9.456C3.13251 9.56868 3.09712 9.68351 3.068 9.8C3.02164 10.0304 2.99885 10.265 3 10.5C3.00027 10.7585 3.0298 11.0161 3.088 11.268C2.75214 11.627 2.48505 12.0446 2.3 12.5L2.285 12.536C2.20155 12.7476 2.13697 12.9661 2.092 13.189C2.083 13.231 2.076 13.273 2.069 13.315C2.0262 13.5409 2.00311 13.7701 2 14C2.00261 14.2403 2.02671 14.48 2.072 14.716C2.083 14.774 2.094 14.832 2.107 14.889C2.1546 15.114 2.22151 15.3345 2.307 15.548C2.313 15.562 2.322 15.575 2.328 15.589C2.4127 15.7816 2.51303 15.9668 2.628 16.143C2.666 16.202 2.704 16.259 2.745 16.316C2.84959 16.4618 2.96384 16.6005 3.087 16.731C3.159 16.807 3.235 16.877 3.312 16.947C3.412 17.038 3.517 17.126 3.627 17.207C3.737 17.288 3.827 17.347 3.935 17.407C3.955 17.42 3.974 17.435 3.994 17.447V17.5C3.9951 18.3466 4.3025 19.1642 4.85944 19.8019C5.41637 20.4395 6.18523 20.8541 7.024 20.969C7.55465 21.5118 8.25054 21.8629 9.0024 21.9674C9.75425 22.0718 10.5195 21.9236 11.178 21.546C11.065 21.3861 11.003 21.1958 11 21Z" fill="#111928"/>
<path d="M21.934 13.32C21.927 13.277 21.92 13.235 21.911 13.192C21.8658 12.9699 21.8015 12.7521 21.719 12.541C21.714 12.528 21.707 12.516 21.702 12.503C21.5167 12.0464 21.2489 11.6277 20.912 11.268C20.9703 11.0161 20.9998 10.7585 21 10.5C21.0002 10.2649 20.9764 10.0303 20.929 9.8C20.9014 9.68736 20.868 9.57621 20.829 9.467C20.795 9.359 20.772 9.247 20.729 9.143C20.5497 8.72064 20.2895 8.33745 19.963 8.015C19.9882 7.8445 20.0006 7.67235 20 7.5C19.9994 6.79388 19.7852 6.10445 19.3856 5.52227C18.986 4.9401 18.4197 4.49241 17.761 4.238C17.5065 3.57965 17.0589 3.01362 16.4769 2.61423C15.895 2.21483 15.2058 2.00072 14.5 2C13.9799 2.00279 13.4671 2.12312 13 2.352V21C12.9953 21.1964 12.9311 21.3868 12.816 21.546C13.4745 21.9236 14.2397 22.0718 14.9916 21.9674C15.7435 21.8629 16.4393 21.5118 16.97 20.969C17.8088 20.8541 18.5776 20.4395 19.1346 19.8019C19.6915 19.1642 19.9989 18.3466 20 17.5V17.451C20.02 17.439 20.039 17.424 20.059 17.411C20.165 17.347 20.267 17.281 20.367 17.211C20.467 17.141 20.581 17.042 20.682 16.951C20.759 16.881 20.835 16.811 20.907 16.735C21.0302 16.6045 21.1444 16.4658 21.249 16.32C21.29 16.263 21.328 16.206 21.366 16.147C21.481 15.9708 21.5813 15.7856 21.666 15.593C21.672 15.579 21.681 15.566 21.687 15.552C21.7742 15.3386 21.8428 15.1182 21.892 14.893C21.905 14.836 21.916 14.778 21.927 14.72C21.9729 14.4827 21.9973 14.2417 22 14C21.9977 13.7719 21.9756 13.5443 21.934 13.32Z" fill="#111928"/>
</svg>
