<svg width="24" height="24" viewBox="0 0 24 24" fill="none" xmlns="http://www.w3.org/2000/svg">
<path d="M11.9925 3.01099C10.0711 3.02538 8.14062 3.38118 5.73745 4.03509C5.7194 4.04 5.7015 4.04541 5.68376 4.05133C4.77132 4.35549 4.08053 4.84183 3.62376 5.48131C3.16866 6.11847 3 6.83188 3 7.50003C3 8.137 3.15395 8.95814 3.5895 9.65501C3.90375 10.1578 4.37153 10.5979 5 10.8286V19C5 20.1046 5.89543 21 7 21H17C18.1046 21 19 20.1046 19 19V10.8286C19.6285 10.5979 20.0962 10.1578 20.4105 9.65501C20.846 8.95814 21 8.137 21 7.50003C21 6.83188 20.8313 6.11847 20.3762 5.48131C19.9195 4.84183 19.2287 4.35549 18.3162 4.05133C18.2985 4.04541 18.2806 4.04 18.2626 4.03509C15.8594 3.38118 13.9289 3.02538 12.0075 3.01099H11.9925Z" fill="#383838"/>
</svg>
