<svg width="24" height="24" viewBox="0 0 24 24" fill="none" xmlns="http://www.w3.org/2000/svg">
<path fill-rule="evenodd" clip-rule="evenodd" d="M18.4576 3.11084C18.7907 3.28224 19 3.62542 19 4V7V8.12602V15.874V17V20C19 20.3746 18.7907 20.7178 18.4576 20.8892C18.1245 21.0606 17.7236 21.0315 17.4188 20.8137L12 16.9432V7.05681L17.4188 3.18627C17.7236 2.96855 18.1245 2.93943 18.4576 3.11084ZM22 12C22 13.4806 21.1956 14.7733 20 15.4649V8.53513C21.1956 9.22675 22 10.5194 22 12ZM10 8H4C3.44772 8 3 8.44772 3 9V15C3 15.5523 3.44772 16 4 16H5H10V8ZM10 17H5V20C5 20.5523 5.44772 21 6 21H9C9.55228 21 10 20.5523 10 20V18V17Z" fill="#111928"/>
</svg>
