<svg width="24" height="24" viewBox="0 0 24 24" fill="none" xmlns="http://www.w3.org/2000/svg">
<path fill-rule="evenodd" clip-rule="evenodd" d="M8.99978 3.00006L14.9998 3.00006C17.7612 3.00006 19.9998 5.23864 19.9998 8.00006V9.00006C19.9998 9.55234 19.5521 10.0001 18.9998 10.0001L4.99978 10.0001C4.4475 10.0001 3.99978 9.55235 3.99978 9.00006V8.00006C3.99978 5.23864 6.23836 3.00006 8.99978 3.00006ZM14.9998 5.00006L8.99978 5.00006C7.34293 5.00006 5.99978 6.34321 5.99978 8.00006L17.9998 8.00006C17.9998 6.34321 16.6566 5.00006 14.9998 5.00006ZM6.66645 12.0681L4.35091 12.9364C3.83379 13.1303 3.25737 12.8683 3.06345 12.3512C2.86953 11.8341 3.13154 11.2577 3.64866 11.0637L6.31533 10.0637C6.54171 9.97884 6.79119 9.97884 7.01757 10.0637L9.33312 10.9321L11.6487 10.0637C11.875 9.97884 12.1245 9.97884 12.3509 10.0637L14.6664 10.9321L16.982 10.0637C17.2084 9.97884 17.4579 9.97884 17.6842 10.0637L20.3509 11.0637C20.868 11.2577 21.13 11.8341 20.9361 12.3512C20.7422 12.8683 20.1658 13.1303 19.6487 12.9364L17.3331 12.0681L15.0176 12.9364C14.7912 13.0213 14.5417 13.0213 14.3153 12.9364L11.9998 12.0681L9.68424 12.9364C9.45785 13.0213 9.20838 13.0213 8.98199 12.9364L6.66645 12.0681ZM18.9998 15.5001C18.9998 15.2239 18.7759 15.0001 18.4998 15.0001L5.49978 15.0001C5.22364 15.0001 4.99978 15.2239 4.99978 15.5001C4.99978 15.7762 5.22364 16.0001 5.49978 16.0001L18.4998 16.0001C18.7759 16.0001 18.9998 15.7762 18.9998 15.5001ZM19.9998 17.5002C20.607 17.0441 20.9998 16.318 20.9998 15.5001C20.9998 14.1193 19.8805 13.0001 18.4998 13.0001L5.49978 13.0001C4.11907 13.0001 2.99978 14.1194 2.99978 15.5001C2.99978 16.318 3.39256 17.0441 3.99978 17.5002V18.0001C3.99978 19.6569 5.34293 21.0001 6.99978 21.0001H16.9998C18.6566 21.0001 19.9998 19.6569 19.9998 18.0001V17.5002ZM17.9998 18.0001L5.99978 18.0001C5.99978 18.5523 6.4475 19.0001 6.99978 19.0001L16.9998 19.0001C17.5521 19.0001 17.9998 18.5523 17.9998 18.0001Z" fill="#383838"/>
</svg>
