<svg width="24" height="24" viewBox="0 0 24 24" fill="none" xmlns="http://www.w3.org/2000/svg">
<path d="M4 9.05005H3V11.05H4V9.05005ZM20 11.05H21V9.05005H20V11.05ZM10 14.0001C9.44772 14.0001 9 14.4478 9 15.0001C9 15.5523 9.44772 16.0001 10 16.0001V14.0001ZM14 16.0001C14.5523 16.0001 15 15.5523 15 15.0001C15 14.4478 14.5523 14.0001 14 14.0001V16.0001ZM11 17.0001C11 17.5523 11.4477 18.0001 12 18.0001C12.5523 18.0001 13 17.5523 13 17.0001H11ZM13 13.0001C13 12.4478 12.5523 12.0001 12 12.0001C11.4477 12.0001 11 12.4478 11 13.0001H13ZM11 7.05005C11 7.60233 11.4477 8.05005 12 8.05005C12.5523 8.05005 13 7.60233 13 7.05005H11ZM13 4.05005C13 3.49776 12.5523 3.05005 12 3.05005C11.4477 3.05005 11 3.49776 11 4.05005H13ZM6 7.05005C6 7.60233 6.44772 8.05005 7 8.05005C7.55228 8.05005 8 7.60233 8 7.05005H6ZM8 4.05005C8 3.49776 7.55228 3.05005 7 3.05005C6.44772 3.05005 6 3.49776 6 4.05005L8 4.05005ZM16 7.05005C16 7.60233 16.4477 8.05005 17 8.05005C17.5523 8.05005 18 7.60233 18 7.05005H16ZM18 4.05005C18 3.49776 17.5523 3.05005 17 3.05005C16.4477 3.05005 16 3.49776 16 4.05005H18ZM5 7.05005H19V5.05005H5V7.05005ZM19 7.05005V19.05H21V7.05005H19ZM19 19.05H5V21.05H19V19.05ZM5 19.05V7.05005H3V19.05H5ZM5 19.05H3C3 20.1546 3.89543 21.05 5 21.05V19.05ZM19 19.05V21.05C20.1046 21.05 21 20.1546 21 19.05H19ZM19 7.05005H21C21 5.94548 20.1046 5.05005 19 5.05005V7.05005ZM5 5.05005C3.89543 5.05005 3 5.94548 3 7.05005H5V7.05005V5.05005ZM4 11.05H20V9.05005H4V11.05ZM10 16.0001H14V14.0001H10V16.0001ZM13 17.0001V13.0001H11V17.0001H13ZM13 7.05005V4.05005H11V7.05005H13ZM8 7.05005L8 4.05005L6 4.05005L6 7.05005H8ZM18 7.05005V4.05005H16V7.05005H18Z" fill="#111928"/>
</svg>
