<svg width="24" height="24" viewBox="0 0 24 24" fill="none" xmlns="http://www.w3.org/2000/svg">
<path fill-rule="evenodd" clip-rule="evenodd" d="M18 5.05005H19C20.1046 5.05005 21 5.94548 21 7.05005V9.05005H3V7.05005C3 5.94548 3.89543 5.05005 5 5.05005H6V4.05005C6 3.49776 6.44772 3.05005 7 3.05005C7.55228 3.05005 8 3.49776 8 4.05005V5.05005H11V4.05005C11 3.49776 11.4477 3.05005 12 3.05005C12.5523 3.05005 13 3.49776 13 4.05005V5.05005H16V4.05005C16 3.49776 16.4477 3.05005 17 3.05005C17.5523 3.05005 18 3.49776 18 4.05005V5.05005ZM3 11.05V19.05C3 20.1546 3.89543 21.05 5 21.05H19C20.1046 21.05 21 20.1546 21 19.05V11.05H3ZM11 18.0001C11 18.5523 11.4477 19.0001 12 19.0001C12.5523 19.0001 13 18.5523 13 18.0001V17.0001H14C14.5523 17.0001 15 16.5523 15 16.0001C15 15.4478 14.5523 15.0001 14 15.0001H13V14.0001C13 13.4478 12.5523 13.0001 12 13.0001C11.4477 13.0001 11 13.4478 11 14.0001V15.0001H10C9.44772 15.0001 9 15.4478 9 16.0001C9 16.5523 9.44772 17.0001 10 17.0001H11V18.0001Z" fill="#111928"/>
</svg>
