<svg width="24" height="24" viewBox="0 0 24 24" fill="none" xmlns="http://www.w3.org/2000/svg">
<path fill-rule="evenodd" clip-rule="evenodd" d="M2 6C2 4.89543 2.89543 4 4 4H20C21.1046 4 22 4.89543 22 6V18C22 19.1046 21.1046 20 20 20H4C2.89543 20 2 19.1046 2 18V6ZM8.96174 10.8557C9.1929 10.7343 9.45214 10.6764 9.71297 10.688C9.97381 10.6996 10.2269 10.7802 10.4464 10.9216C10.9106 11.2208 11.5295 11.0869 11.8286 10.6226C12.1277 10.1584 11.9939 9.53951 11.5296 9.24038C11.0125 8.90722 10.4163 8.71729 9.80176 8.68998C9.18725 8.66267 8.5765 8.79897 8.0319 9.08495C7.4873 9.37093 7.02837 9.79635 6.70199 10.3177C6.37561 10.8391 6.19348 11.4378 6.1742 12.0526C6.15492 12.6674 6.29918 13.2764 6.59225 13.8172C6.88532 14.358 7.31669 14.8113 7.8423 15.1309C8.36791 15.4504 8.96892 15.6247 9.58393 15.636C10.1989 15.6472 10.8059 15.495 11.3429 15.1949C11.825 14.9255 11.9974 14.3162 11.7279 13.8341C11.4585 13.352 10.8492 13.1796 10.3671 13.4491C10.1392 13.5765 9.88156 13.6411 9.62051 13.6363C9.35946 13.6315 9.10436 13.5575 8.88126 13.4219C8.65816 13.2863 8.47506 13.0939 8.35066 12.8643C8.22627 12.6347 8.16503 12.3763 8.17322 12.1153C8.1814 11.8544 8.25871 11.6002 8.39724 11.3789C8.53578 11.1576 8.73058 10.977 8.96174 10.8557ZM15.1477 10.8557C15.3789 10.7343 15.6381 10.6764 15.899 10.688C16.1598 10.6996 16.4129 10.7802 16.6324 10.9216C17.0966 11.2208 17.7155 11.0869 18.0146 10.6226C18.3137 10.1584 18.1799 9.53951 17.7156 9.24038C17.1985 8.90722 16.6023 8.71729 15.9878 8.68998C15.3732 8.66267 14.7625 8.79897 14.2179 9.08495C13.6733 9.37093 13.2144 9.79635 12.888 10.3177C12.5616 10.8391 12.3795 11.4378 12.3602 12.0526C12.3409 12.6674 12.4852 13.2764 12.7782 13.8172C13.0713 14.358 13.5027 14.8113 14.0283 15.1309C14.5539 15.4504 15.1549 15.6247 15.7699 15.636C16.3849 15.6472 16.9919 15.495 17.5289 15.1949C18.011 14.9255 18.1834 14.3162 17.9139 13.8341C17.6445 13.352 17.0352 13.1796 16.5531 13.4491C16.3252 13.5765 16.0676 13.6411 15.8065 13.6363C15.5455 13.6315 15.2904 13.5575 15.0673 13.4219C14.8442 13.2863 14.6611 13.0939 14.5367 12.8643C14.4123 12.6347 14.351 12.3763 14.3592 12.1153C14.3674 11.8544 14.4447 11.6002 14.5832 11.3789C14.7218 11.1576 14.9166 10.977 15.1477 10.8557Z" fill="#111928"/>
</svg>
