<svg width="24" height="24" viewBox="0 0 24 24" fill="none" xmlns="http://www.w3.org/2000/svg">
<path d="M14 15H18.268C18.6723 15 19 14.6162 19 14.1429V3.85714C19 3.38376 18.6723 3 18.268 3H6C5.44772 3 5 3.44772 5 4V8M16 15V12H19V15H16ZM13 21H6C5.44772 21 5 20.5523 5 20C5 18.3431 6.34315 17 8 17H11C12.6569 17 14 18.3431 14 20C14 20.5523 13.5523 21 13 21ZM12 11.5C12 12.8807 10.8807 14 9.5 14C8.11929 14 7 12.8807 7 11.5C7 10.1193 8.11929 9 9.5 9C10.8807 9 12 10.1193 12 11.5Z" stroke="#383838" stroke-width="2" stroke-linecap="round" stroke-linejoin="round"/>
</svg>
