<svg width="24" height="24" viewBox="0 0 24 24" fill="none" xmlns="http://www.w3.org/2000/svg">
<path fill-rule="evenodd" clip-rule="evenodd" d="M18 14C18 13.4477 17.5523 13 17 13C16.4477 13 16 13.4477 16 14V16H14C13.4477 16 13 16.4477 13 17C13 17.5523 13.4477 18 14 18H16V20C16 20.5523 16.4477 21 17 21C17.5523 21 18 20.5523 18 20V18H20C20.5523 18 21 17.5523 21 17C21 16.4477 20.5523 16 20 16H18V14Z" fill="#111928"/>
<path fill-rule="evenodd" clip-rule="evenodd" d="M15.0258 21.534C14.0713 21.8367 13.0547 22 12 22C6.47715 22 2 17.5228 2 12C2 6.47715 6.47715 2 12 2C14.5092 2 16.8025 2.92415 18.5582 4.45064L10.9231 12.0858L7.70711 8.86982C7.31658 8.47929 6.68342 8.47929 6.29289 8.86982C5.90237 9.26034 5.90237 9.89351 6.29289 10.284L10.216 14.2071C10.4035 14.3946 10.6579 14.5 10.9231 14.5C11.1883 14.5 11.4426 14.3946 11.6302 14.2071L19.9301 5.90715C21.2282 7.59409 22 9.70691 22 12C22 13.0547 21.8367 14.0713 21.534 15.0258C21.1105 14.6963 20.5782 14.5 20 14.5H19.5V14C19.5 12.6193 18.3807 11.5 17 11.5C15.6193 11.5 14.5 12.6193 14.5 14V14.5H14C12.6193 14.5 11.5 15.6193 11.5 17C11.5 18.3807 12.6193 19.5 14 19.5H14.5V20C14.5 20.5782 14.6963 21.1105 15.0258 21.534Z" fill="#111928"/>
</svg>
