<svg width="24" height="24" viewBox="0 0 24 24" fill="none" xmlns="http://www.w3.org/2000/svg">
<path d="M15 3C14.8214 3 14.6852 3.04901 14.6523 3.06086L14.6504 3.06153C14.5968 3.08075 14.5538 3.10098 14.5286 3.11338C14.4768 3.13889 14.4304 3.16603 14.3983 3.18546C14.3305 3.22645 14.2552 3.27656 14.1832 3.32609C14.0359 3.42746 13.8569 3.55806 13.6864 3.68741C13.5172 3.81579 13.3427 3.95341 13.2077 4.06864C13.1441 4.12296 13.0685 4.1899 13.0039 4.25686C12.9773 4.28438 12.9159 4.34904 12.8583 4.43515C12.8334 4.47241 12.7682 4.57303 12.7253 4.71615C12.6899 4.83382 12.5936 5.24719 12.9005 5.63368C13.1797 5.98517 13.177 6.21727 13.1436 6.35695C13.1005 6.53734 12.9506 6.77403 12.6363 6.99741C12.1898 7.31467 11.5591 7.20798 11.2419 6.76151C11.0873 6.54398 10.8522 6.39726 10.5889 6.35399C10.3255 6.31073 10.0558 6.37451 9.83977 6.53114L3.67565 11H20.9672C20.7539 7.82599 19.5321 5.83911 18.2058 4.6347C17.4899 3.98458 16.7687 3.58519 16.2136 3.34679C15.9358 3.22746 15.6968 3.14724 15.5165 3.09548C15.4266 3.06965 15.3491 3.0503 15.2867 3.03649C15.2559 3.02969 15.2253 3.02347 15.1963 3.01834C15.1822 3.01586 15.1637 3.01278 15.143 3.00995C15.1364 3.00899 15.0741 3 15 3Z" fill="#383838"/>
<path fill-rule="evenodd" clip-rule="evenodd" d="M21 13H3V20C3 20.5523 3.44772 21 4 21H20C20.5523 21 21 20.5523 21 20V13ZM7 15C7 14.4477 7.44772 14 8 14H8.01C8.56228 14 9.01 14.4477 9.01 15C9.01 15.5523 8.56228 16 8.01 16H8C7.44772 16 7 15.5523 7 15ZM15 15C15 14.4477 15.4477 14 16 14H16.01C16.5623 14 17.01 14.4477 17.01 15C17.01 15.5523 16.5623 16 16.01 16H16C15.4477 16 15 15.5523 15 15ZM11 17C11 16.4477 11.4477 16 12 16H12.01C12.5623 16 13.01 16.4477 13.01 17C13.01 17.5523 12.5623 18 12.01 18H12C11.4477 18 11 17.5523 11 17Z" fill="#383838"/>
</svg>
