<svg width="24" height="24" viewBox="0 0 24 24" fill="none" xmlns="http://www.w3.org/2000/svg">
<path fill-rule="evenodd" clip-rule="evenodd" d="M2 12C2 6.47715 6.47715 2 12 2C17.5228 2 22 6.47715 22 12C22 17.5228 17.5228 22 12 22C6.47715 22 2 17.5228 2 12ZM13 7.75699C13 7.2047 12.5523 6.75699 12 6.75699C11.4477 6.75699 11 7.2047 11 7.75699V11H7.75699C7.2047 11 6.75699 11.4477 6.75699 12C6.75699 12.5523 7.2047 13 7.75699 13H11V16.243C11 16.7953 11.4477 17.243 12 17.243C12.5523 17.243 13 16.7953 13 16.243V13H16.243C16.7953 13 17.243 12.5523 17.243 12C17.243 11.4477 16.7953 11 16.243 11H13V7.75699Z" fill="#111928"/>
</svg>
