<svg width="24" height="24" viewBox="0 0 24 24" fill="none" xmlns="http://www.w3.org/2000/svg">
<path fill-rule="evenodd" clip-rule="evenodd" d="M19.003 3C20.1062 3.00162 21 3.89643 21 5V7H19V5.41421L17.4142 7H14.5858L16.5858 5H14.4142L12.4142 7H9.58579L11.5858 5H9.41421L7.41421 7H4.58579H3V5C3 3.89543 3.89543 3 5 3H8.99983H9.00017H13.9998H14.0002H18.9998L19.003 3ZM3 9V19C3 20.1046 3.89543 21 5 21H19C20.1046 21 21 20.1046 21 19V9H3ZM5 6.58579L6.58579 5H5V6.58579ZM9.55279 11.1056C9.89157 10.9362 10.297 10.9727 10.6 11.2L14.6 14.2C14.8518 14.3889 15 14.6852 15 15C15 15.3148 14.8518 15.6112 14.6 15.8L10.6 18.8C10.297 19.0273 9.89157 19.0638 9.55279 18.8944C9.214 18.725 9 18.3788 9 18V12C9 11.6212 9.214 11.275 9.55279 11.1056Z" fill="#111928"/>
</svg>
