<svg width="24" height="24" viewBox="0 0 24 24" fill="none" xmlns="http://www.w3.org/2000/svg">
<path fill-rule="evenodd" clip-rule="evenodd" d="M8 3C8 2.44772 8.44772 2 9 2H15C15.5523 2 16 2.44772 16 3H18C19.1046 3 20 3.89543 20 5V20C20 21.1046 19.1046 22 18 22H6C4.89543 22 4 21.1046 4 20V5C4 3.89543 4.89543 3 6 3H8ZM14 4H10V6H9C8.44772 6 8 6.44772 8 7C8 7.55228 8.44772 8 9 8H15C15.5523 8 16 7.55228 16 7C16 6.44772 15.5523 6 15 6H14V4ZM11 12C11 11.4477 11.4477 11 12 11H15C15.5523 11 16 11.4477 16 12C16 12.5523 15.5523 13 15 13H12C11.4477 13 11 12.5523 11 12ZM9 11C8.44772 11 8 11.4477 8 12C8 12.5523 8.44772 13 9 13H9.01C9.56228 13 10.01 12.5523 10.01 12C10.01 11.4477 9.56228 11 9.01 11H9ZM11 16C11 15.4477 11.4477 15 12 15H15C15.5523 15 16 15.4477 16 16C16 16.5523 15.5523 17 15 17H12C11.4477 17 11 16.5523 11 16ZM9 15C8.44772 15 8 15.4477 8 16C8 16.5523 8.44772 17 9 17H9.01C9.56228 17 10.01 16.5523 10.01 16C10.01 15.4477 9.56228 15 9.01 15H9Z" fill="#111928"/>
</svg>
