<svg width="24" height="24" viewBox="0 0 24 24" fill="none" xmlns="http://www.w3.org/2000/svg">
<path d="M13 21H19C20.1046 21 21 20.1046 21 19V5C21 3.89543 20.1046 3 19 3H13V21Z" fill="#383838"/>
<path fill-rule="evenodd" clip-rule="evenodd" d="M11 3H5C3.89543 3 3 3.89543 3 5V19C3 20.1046 3.89543 21 5 21H11V3ZM8.70705 10.7071C9.09757 10.3166 9.09757 9.68342 8.70705 9.29289C8.31652 8.90237 7.68336 8.90237 7.29284 9.29289L5.29289 11.2928C4.90237 11.6834 4.90237 12.3165 5.29289 12.707L7.29284 14.707C7.68336 15.0975 8.31652 15.0975 8.70705 14.707C9.09757 14.3165 9.09757 13.6833 8.70705 13.2928L7.41421 11.9999L8.70705 10.7071Z" fill="#383838"/>
</svg>
