<svg width="24" height="24" viewBox="0 0 24 24" fill="none" xmlns="http://www.w3.org/2000/svg">
<path fill-rule="evenodd" clip-rule="evenodd" d="M10 4H4C2.89543 4 2 4.89543 2 6V18C2 19.1046 2.89543 20 4 20H10V4ZM7.79283 9.29289C8.18336 9.68342 8.18336 10.3166 7.79283 10.7071L6.5 11.9999L7.79283 13.2928C8.18336 13.6833 8.18336 14.3165 7.79283 14.707C7.40231 15.0975 6.76915 15.0975 6.37862 14.707L4.37868 12.707C3.98816 12.3165 3.98816 11.6834 4.37868 11.2928L6.37862 9.29289C6.76915 8.90237 7.40231 8.90237 7.79283 9.29289Z" fill="#383838"/>
<path d="M12 20H20C21.1046 20 22 19.1046 22 18V6C22 4.89543 21.1046 4 20 4H12V20Z" fill="#383838"/>
</svg>
