<svg width="24" height="24" viewBox="0 0 24 24" fill="none" xmlns="http://www.w3.org/2000/svg">
<path fill-rule="evenodd" clip-rule="evenodd" d="M12.0214 2.37535C12.2283 2.67516 12.2558 3.06375 12.0932 3.3897C12.0098 3.55698 11.9646 3.88616 12.0066 4.20809C12.0411 4.47252 12.1592 4.72653 12.3631 4.93044C12.7428 5.31018 13.3076 5.39666 13.7717 5.1841C14.2738 4.9541 14.8673 5.1747 15.0973 5.67682C15.133 5.7548 15.1579 5.83498 15.1725 5.91567C15.2446 6.28451 15.1048 6.6788 14.7814 6.91539C14.7144 6.9644 14.6499 7.01947 14.5885 7.08085C13.9508 7.71854 13.9508 8.75244 14.5885 9.39013C15.2262 10.0278 16.2601 10.0278 16.8978 9.39013C17.0083 9.27967 17.0986 9.15865 17.17 9.03095C17.4348 8.55679 18.0297 8.38072 18.51 8.63435C18.9903 8.88798 19.1803 9.47856 18.938 9.96466C18.8312 10.179 18.7921 10.4209 18.8229 10.6567C18.856 10.9099 18.9689 11.153 19.1641 11.3482C19.4292 11.6133 19.7862 11.7288 20.135 11.6934C20.1824 11.6886 20.23 11.6872 20.2776 11.6892C20.3885 11.6938 20.8028 11.682 21.0309 11.6734C21.3174 11.6625 21.5948 11.7751 21.7926 11.9826C21.9905 12.1901 22.0897 12.4726 22.0652 12.7582C21.8707 15.023 20.9061 17.2362 19.1731 18.9692C15.2679 22.8744 8.93623 22.8744 5.03098 18.9692C1.12574 15.0639 1.12574 8.73228 5.03098 4.82704C6.72724 3.13077 8.88386 2.1705 11.0985 1.94831C11.461 1.91194 11.8145 2.07554 12.0214 2.37535ZM12.2757 7.1491C11.7905 6.99747 11.3336 6.72943 10.9488 6.34465C10.4223 5.81812 10.113 5.15335 10.0234 4.46698C10.0116 4.37591 10.0025 4.27923 9.99695 4.17842C8.69603 4.5317 7.46744 5.21901 6.4452 6.24125C3.321 9.36544 3.321 14.4308 6.4452 17.555C9.56939 20.6792 14.6347 20.6792 17.7589 17.555C18.8608 16.4531 19.5736 15.1113 19.8983 13.6976C19.1191 13.6697 18.3458 13.3583 17.7499 12.7624C17.4201 12.4326 17.177 12.0476 17.0211 11.6372C15.7282 12.122 14.2144 11.8444 13.1743 10.8043C12.1852 9.81524 11.8857 8.3977 12.2757 7.1491ZM7.65717 9.41491C7.65717 8.86262 8.10488 8.41491 8.65717 8.41491H8.66717C9.21945 8.41491 9.66717 8.86262 9.66717 9.41491C9.66717 9.96719 9.21945 10.4149 8.66717 10.4149H8.65717C8.10488 10.4149 7.65717 9.96719 7.65717 9.41491ZM6.27128 13C6.27128 12.4477 6.71899 12 7.27128 12H7.28128C7.83356 12 8.28128 12.4477 8.28128 13C8.28128 13.5523 7.83356 14 7.28128 14H7.27128C6.71899 14 6.27128 13.5523 6.27128 13ZM13.9587 14.9156C13.9587 14.3633 14.4064 13.9156 14.9587 13.9156H14.9687C15.521 13.9156 15.9687 14.3633 15.9687 14.9156C15.9687 15.4679 15.521 15.9156 14.9687 15.9156H14.9587C14.4064 15.9156 13.9587 15.4679 13.9587 14.9156ZM10.0002 17C10.0002 16.4477 10.4479 16 11.0002 16H11.0102C11.5625 16 12.0102 16.4477 12.0102 17C12.0102 17.5523 11.5625 18 11.0102 18H11.0002C10.4479 18 10.0002 17.5523 10.0002 17Z" fill="#383838"/>
</svg>
