<svg width="24" height="24" viewBox="0 0 24 24" fill="none" xmlns="http://www.w3.org/2000/svg">
<path fill-rule="evenodd" clip-rule="evenodd" d="M12.0212 2.37541C12.2281 2.67522 12.2556 3.06381 12.093 3.38976C12.0095 3.55704 11.9644 3.88622 12.0064 4.20815C12.0409 4.47258 12.1589 4.7266 12.3628 4.9305C12.7426 5.31024 13.3074 5.39672 13.7714 5.18416C14.2736 4.95416 14.8671 5.17476 15.097 5.67688C15.1328 5.75485 15.1576 5.83503 15.1722 5.91571C15.2444 6.28456 15.1046 6.67886 14.7812 6.91545C14.7142 6.96446 14.6497 7.01954 14.5883 7.08092C13.9506 7.71861 13.9506 8.7525 14.5883 9.39019C15.226 10.0279 16.2599 10.0279 16.8976 9.39019C17.008 9.27973 17.0984 9.15871 17.1697 9.03101C17.4346 8.55685 18.0295 8.38078 18.5098 8.63441C18.99 8.88804 19.18 9.47863 18.9378 9.96472C18.831 10.179 18.7919 10.4209 18.8227 10.6568C18.8557 10.9099 18.9687 11.153 19.1639 11.3483C19.4289 11.6133 19.7859 11.7289 20.1348 11.6935C20.1821 11.6887 20.2298 11.6873 20.2773 11.6892C20.3883 11.6939 20.8025 11.6821 21.0307 11.6734C21.3172 11.6626 21.5946 11.7752 21.7924 11.9827C21.9902 12.1902 22.0895 12.4726 22.065 12.7583C21.8705 15.023 20.9058 17.2363 19.1729 18.9692C15.2676 22.8745 8.93598 22.8745 5.03074 18.9692C1.1255 15.064 1.1255 8.73234 5.03074 4.8271C6.727 3.13084 8.88362 2.17056 11.0983 1.94837C11.4607 1.91201 11.8143 2.0756 12.0212 2.37541ZM8.65695 8.41498C8.10466 8.41498 7.65695 8.86269 7.65695 9.41498C7.65695 9.96726 8.10466 10.415 8.65695 10.415H8.66695C9.21923 10.415 9.66695 9.96726 9.66695 9.41498C9.66695 8.86269 9.21923 8.41498 8.66695 8.41498H8.65695ZM7.27106 12C6.71877 12 6.27106 12.4478 6.27106 13C6.27106 13.5523 6.71877 14 7.27106 14H7.28106C7.83334 14 8.28106 13.5523 8.28106 13C8.28106 12.4478 7.83334 12 7.28106 12H7.27106ZM14.9585 13.9157C14.4062 13.9157 13.9585 14.3634 13.9585 14.9157C13.9585 15.468 14.4062 15.9157 14.9585 15.9157H14.9685C15.5208 15.9157 15.9685 15.468 15.9685 14.9157C15.9685 14.3634 15.5208 13.9157 14.9685 13.9157H14.9585ZM11 16C10.4477 16 9.99996 16.4478 9.99996 17C9.99996 17.5523 10.4477 18 11 18H11.01C11.5623 18 12.01 17.5523 12.01 17C12.01 16.4478 11.5623 16 11.01 16H11Z" fill="#383838"/>
</svg>
