<svg width="24" height="24" viewBox="0 0 24 24" fill="none" xmlns="http://www.w3.org/2000/svg">
<path fill-rule="evenodd" clip-rule="evenodd" d="M11 16.5C11 13.4624 13.4624 11 16.5 11C19.5376 11 22 13.4624 22 16.5C22 19.5376 19.5376 22 16.5 22C13.4624 22 11 19.5376 11 16.5ZM15.5 19V17.5H14V15.5H15.5V14H17.5V15.5H19V17.5H17.5V19H15.5Z" fill="#111928"/>
<path d="M3.98707 4.00004C2.88845 4.007 2 4.89974 2 6V15C2 16.1046 2.89543 17 4 17H9V15H4V10H20V6C20 4.89543 19.1046 4 18 4H4C3.99569 4 3.99137 4.00001 3.98707 4.00004Z" fill="#111928"/>
<path fill-rule="evenodd" clip-rule="evenodd" d="M5 12C5 11.4477 5.44772 11 6 11H9C9.55228 11 10 11.4477 10 12C10 12.5523 9.55228 13 9 13H6C5.44772 13 5 12.5523 5 12Z" fill="#111928"/>
</svg>
