<svg width="24" height="24" viewBox="0 0 24 24" fill="none" xmlns="http://www.w3.org/2000/svg">
<path d="M11.5039 3.13176C11.8113 2.95608 12.1887 2.95608 12.4962 3.13176L16.0516 5.16346L12 7.42604L7.94841 5.16346L11.5039 3.13176Z" fill="#383838"/>
<path d="M7.00002 6.92456L7 10.2768L3.84178 12.0815L7.98296 14.2865L11 12.5625L11 9.15832L7.00002 6.92456Z" fill="#383838"/>
<path d="M3 13.8991V17.7143C3 18.0731 3.19229 18.4045 3.50386 18.5825L7.00001 20.5803V16.029L3 13.8991Z" fill="#383838"/>
<path d="M9.00001 20.5803L12 18.866L15 20.5803V16.0089L12 14.2946L9.00001 16.0088V20.5803Z" fill="#383838"/>
<path d="M17 20.5803L20.4961 18.5825C20.8077 18.4045 21 18.0731 21 17.7143V13.8991L17 16.029V20.5803Z" fill="#383838"/>
<path d="M20.1582 12.0815L17 10.2768V6.92457L13 9.15832L13 12.5625L16.0171 14.2865L20.1582 12.0815Z" fill="#383838"/>
</svg>
