<svg width="24" height="24" viewBox="0 0 24 24" fill="none" xmlns="http://www.w3.org/2000/svg">
<path d="M5 3C3.89543 3 3 3.89543 3 5V7C3 8.10457 3.89543 9 5 9H7C8.10457 9 9 8.10457 9 7V5C9 3.89543 8.10457 3 7 3H5Z" fill="#111928"/>
<path d="M5 15C3.89543 15 3 15.8954 3 17V19C3 20.1046 3.89543 21 5 21H7C8.10457 21 9 20.1046 9 19V17C9 15.8954 8.10457 15 7 15H5Z" fill="#111928"/>
<path d="M17 15C15.8954 15 15 15.8954 15 17V19C15 20.1046 15.8954 21 17 21H19C20.1046 21 21 20.1046 21 19V17C21 15.8954 20.1046 15 19 15H17Z" fill="#111928"/>
<path d="M17 3C15.8954 3 15 3.89543 15 5V7C15 8.10457 15.8954 9 17 9H19C20.1046 9 21 8.10457 21 7V5C21 3.89543 20.1046 3 19 3H17Z" fill="#111928"/>
<path fill-rule="evenodd" clip-rule="evenodd" d="M10 6.5C10 5.94772 10.4477 5.5 11 5.5H13C13.5523 5.5 14 5.94772 14 6.5C14 7.05228 13.5523 7.5 13 7.5H11C10.4477 7.5 10 7.05228 10 6.5Z" fill="#111928"/>
<path fill-rule="evenodd" clip-rule="evenodd" d="M10 18C10 17.4477 10.4477 17 11 17H13C13.5523 17 14 17.4477 14 18C14 18.5523 13.5523 19 13 19H11C10.4477 19 10 18.5523 10 18Z" fill="#111928"/>
<path fill-rule="evenodd" clip-rule="evenodd" d="M6 14C5.44772 14 5 13.5523 5 13L5 11C5 10.4477 5.44772 10 6 10C6.55228 10 7 10.4477 7 11L7 13C7 13.5523 6.55228 14 6 14Z" fill="#111928"/>
<path fill-rule="evenodd" clip-rule="evenodd" d="M18 14C17.4477 14 17 13.5523 17 13V11C17 10.4477 17.4477 10 18 10C18.5523 10 19 10.4477 19 11V13C19 13.5523 18.5523 14 18 14Z" fill="#111928"/>
</svg>
