<svg width="24" height="24" viewBox="0 0 24 24" fill="none" xmlns="http://www.w3.org/2000/svg">
<path d="M12 11C11.7603 11 11.5872 11.0858 11.5271 11.1174C11.4498 11.1582 11.393 11.2008 11.3623 11.2252C11.2999 11.2747 11.2531 11.3232 11.2289 11.3489C11.176 11.4054 11.127 11.4667 11.0884 11.5169C11.0068 11.6229 10.91 11.7606 10.8075 11.9141C10.6001 12.2244 10.3405 12.6425 10.0856 13.0949C9.83188 13.5453 9.57263 14.0477 9.37376 14.5231C9.19074 14.9607 9 15.5086 9 16C9 17.6569 10.3431 19 12 19C13.6569 19 15 17.6569 15 16C15 15.5086 14.8093 14.9607 14.6262 14.5231C14.4274 14.0477 14.1681 13.5453 13.9144 13.0949C13.6595 12.6425 13.3999 12.2244 13.1925 11.9141C13.09 11.7606 12.9932 11.6229 12.9116 11.5169C12.873 11.4667 12.824 11.4054 12.7711 11.3489C12.7469 11.3232 12.7001 11.2747 12.6377 11.2252C12.607 11.2008 12.5502 11.1582 12.4729 11.1174C12.4128 11.0858 12.2397 11 12 11Z" fill="#383838"/>
<path fill-rule="evenodd" clip-rule="evenodd" d="M10 2C9.44772 2 9 2.44772 9 3V5C8.44772 5 8 5.44772 8 6C8 6.55228 8.44772 7 9 7V8.51594C7.03885 10.1474 6 12.2926 6 14.5V19C6 20.6568 7.34314 22 9 22H15C16.6569 22 18 20.6569 18 19V14.5C18 12.2926 16.9611 10.1474 15 8.51594V7C15.5523 7 16 6.55228 16 6C16 5.44772 15.5523 5 15 5V3C15 2.44772 14.5523 2 14 2H10ZM11 9V7H13V9C13 9.31476 13.1482 9.61115 13.4 9.8C15.1804 11.1353 16 12.8529 16 14.5V19C16 19.5523 15.5523 20 15 20H9C8.44772 20 8 19.5523 8 19V14.5C8 12.8529 8.81961 11.1353 10.6 9.8C10.8518 9.61115 11 9.31476 11 9Z" fill="#383838"/>
</svg>
