<svg width="24" height="24" viewBox="0 0 24 24" fill="none" xmlns="http://www.w3.org/2000/svg">
<path d="M12 11C11.7701 11 11.5996 11.0774 11.5307 11.1116C11.4468 11.1533 11.3816 11.1989 11.3404 11.23C11.2574 11.2926 11.1869 11.3609 11.1356 11.4137C11.0285 11.524 10.9147 11.6613 10.8039 11.806C10.5784 12.1004 10.312 12.4951 10.0562 12.9341C9.8008 13.3724 9.54426 13.875 9.34897 14.3839C9.1589 14.8792 8.99998 15.4486 8.99998 16C8.99998 17.6569 10.3431 19 12 19C13.6568 19 15 17.6569 15 16C15 15.4486 14.8411 14.8792 14.651 14.3839C14.4557 13.875 14.1992 13.3724 13.9437 12.9341C13.688 12.4951 13.4215 12.1004 13.1961 11.806C13.0852 11.6613 12.9715 11.524 12.8644 11.4137C12.8131 11.3609 12.7426 11.2926 12.6595 11.23C12.6184 11.1989 12.5532 11.1533 12.4692 11.1116C12.4003 11.0774 12.2299 11 12 11Z" fill="#383838"/>
<path fill-rule="evenodd" clip-rule="evenodd" d="M8.99998 2C8.4477 2 7.99998 2.44772 7.99998 3V6C7.99998 6.55228 8.4477 7 8.99998 7V8.09419C8.94201 8.1304 8.87036 8.17365 8.78912 8.22268C8.54868 8.36779 8.22427 8.56359 7.92196 8.77773C7.10458 9.35671 5.99998 10.3674 5.99998 12V19L5.99977 19.0705C5.99792 19.4862 5.99442 20.2759 6.44849 20.9249C6.99323 21.7034 7.94156 22 9.14284 22H14.8571C16.0584 22 17.0067 21.7034 17.5515 20.9249C18.0055 20.2759 18.002 19.4862 18.0002 19.0705L18 19V12C18 10.3674 16.8954 9.35671 16.078 8.77773C15.7757 8.56359 15.4513 8.36779 15.2108 8.22268C15.1297 8.17369 15.0579 8.13038 15 8.09419V7C15.5523 7 16 6.55228 16 6V3C16 2.44772 15.5523 2 15 2H8.99998ZM11 8.5V7H13V8.5C13 9.03707 13.3707 9.36588 13.4654 9.44981C13.6155 9.58297 13.7956 9.69994 13.9387 9.7894C14.0418 9.85383 14.1422 9.91438 14.2419 9.97451C14.4645 10.1088 14.6838 10.2411 14.922 10.4098C15.6046 10.8933 16 11.3826 16 12V19C16 19.2478 15.9982 19.4169 15.9768 19.5648C15.9568 19.7029 15.9269 19.7582 15.9124 19.7788C15.9054 19.7889 15.874 19.834 15.7414 19.8843C15.5901 19.9417 15.3184 20 14.8571 20H9.14284C8.68152 20 8.40987 19.9417 8.25854 19.8843C8.12593 19.834 8.0942 19.7884 8.08718 19.7783C8.0727 19.7576 8.04314 19.7029 8.02316 19.5648C8.00176 19.4169 7.99998 19.2478 7.99998 19V12C7.99998 11.3826 8.39538 10.8933 9.078 10.4098C9.31618 10.2411 9.53541 10.1088 9.75808 9.97451C9.85777 9.91438 9.95816 9.85383 10.0612 9.7894C10.2044 9.69994 10.3849 9.58261 10.535 9.44944C10.6297 9.36552 11 9.03707 11 8.5Z" fill="#383838"/>
</svg>
