<svg width="24" height="24" viewBox="0 0 24 24" fill="none" xmlns="http://www.w3.org/2000/svg">
<path fill-rule="evenodd" clip-rule="evenodd" d="M10.6223 3.90741C9.41518 2.70027 7.52741 2.67255 6.31301 3.88695C5.89806 4.3019 5.59602 4.85112 5.47179 5.44127C4.88164 5.5655 4.33242 5.86754 3.91747 6.28249C2.70307 7.49689 2.73078 9.38467 3.93793 10.5918C4.90655 11.5604 6.31341 11.7697 7.45896 11.1871L8.93792 12.5424C8.87881 12.8933 8.85386 13.2502 8.85794 13.6047C8.87247 14.8647 9.24991 16.1805 9.86708 17.3309C10.0023 17.5829 10.2389 17.765 10.5171 17.8311C10.7953 17.8972 11.0885 17.841 11.3226 17.6768C11.8602 17.2996 12.3214 17.1799 12.6933 17.1789C13.0697 17.178 13.4236 17.2988 13.7406 17.5106C14.3325 17.9062 14.6077 18.613 14.193 19.5587C14.0547 19.8741 14.0885 20.2386 14.2824 20.5233C14.4763 20.808 14.8031 20.9728 15.1473 20.9595C16.5843 20.9042 17.9057 20.1561 19.0462 19.0156C20.2304 17.8314 20.8099 16.4178 20.722 14.9446C20.6354 13.4919 19.9089 12.1178 18.7484 10.9573C17.5688 9.77775 16.0313 9.00222 14.493 8.78893C13.9145 8.70872 13.3251 8.70768 12.7517 8.8002L11.2452 7.37281C11.7932 6.23762 11.5753 4.86041 10.6223 3.90741ZM10.7142 9.62485L9.2479 8.23554C9.05198 8.04991 8.93941 7.79298 8.93577 7.52311C8.93214 7.25324 9.03773 6.99336 9.22858 6.80252C9.64315 6.38795 9.65312 5.76664 9.20812 5.32163C8.76311 4.87662 8.14179 4.8866 7.72722 5.30117C7.46197 5.56641 7.36778 5.9431 7.427 6.19251C7.50717 6.53016 7.40655 6.88524 7.16116 7.13064C6.91576 7.37604 6.56068 7.47666 6.22303 7.39648C5.97362 7.33726 5.59693 7.43146 5.33168 7.6967C4.91711 8.11127 4.90713 8.73259 5.35214 9.1776C5.79715 9.62261 6.41847 9.61263 6.83304 9.19806C7.21157 8.81952 7.82107 8.80623 8.21575 9.1679L9.74645 10.5706C9.86469 10.4103 9.99617 10.2566 10.1417 10.1111C10.323 9.9298 10.5145 9.76804 10.7142 9.62485Z" fill="#383838"/>
</svg>
