<svg width="24" height="24" viewBox="0 0 24 24" fill="none" xmlns="http://www.w3.org/2000/svg">
<path d="M4 15.5993L7.055 12.5443C7.02702 12.3681 7.00866 12.1905 7 12.0123C7.00159 10.6867 7.52888 9.41587 8.46622 8.47853C9.40356 7.5412 10.6744 7.0139 12 7.01231C12.1782 7.02065 12.3558 7.03867 12.532 7.06631L14.276 5.32231C13.5337 5.12189 12.7688 5.0177 12 5.01231C6.612 5.01231 2 10.3483 2 12.0123C2.26081 13.393 2.96262 14.6517 4 15.5993Z" fill="#111928"/>
<path d="M14.7 10.7263L19.6947 5.71929C19.7903 5.62704 19.8664 5.5167 19.9188 5.39469C19.9713 5.27269 19.9988 5.14147 20 5.00869C20.0012 4.87591 19.9759 4.74423 19.9256 4.62133C19.8753 4.49844 19.801 4.38679 19.7071 4.29289C19.6132 4.199 19.5016 4.12475 19.3787 4.07447C19.2558 4.02419 19.1241 3.99888 18.9913 4.00004C18.8586 4.00119 18.7273 4.02878 18.6053 4.08119C18.4833 4.1336 18.373 4.20978 18.2807 4.30529L13.286 9.31231C13.0979 9.22192 12.9008 9.15153 12.698 9.10231L12.663 9.09131C12.1688 8.97516 11.6532 8.98713 11.1649 9.12609C10.6767 9.26505 10.232 9.52639 9.87303 9.88535C9.51407 10.2443 9.25273 10.689 9.11377 11.1772C8.97482 11.6655 8.96285 12.1811 9.079 12.6753C9.079 12.6873 9.087 12.6973 9.089 12.7083C9.13823 12.9119 9.20896 13.1097 9.3 13.2983L4.30525 18.2808C4.20974 18.3731 4.13356 18.4834 4.08115 18.6054C4.02874 18.7274 4.00115 18.8586 4 18.9914C3.99885 19.1242 4.02415 19.2559 4.07443 19.3788C4.12471 19.5017 4.19896 19.6133 4.29286 19.7072C4.38675 19.8011 4.4984 19.8754 4.6213 19.9256C4.74419 19.9759 4.87587 20.0012 5.00865 20.0001C5.14143 19.9989 5.27265 19.9713 5.39465 19.9189C5.51666 19.8665 5.627 19.7903 5.71925 19.6948L10.714 14.7123C10.9026 14.8034 11.1004 14.8741 11.304 14.9233C11.315 14.9233 11.325 14.9303 11.337 14.9333C11.8312 15.0495 12.3468 15.0375 12.8351 14.8985C13.3233 14.7596 13.768 14.4982 14.127 14.1393C14.4859 13.7803 14.7473 13.3356 14.8862 12.8474C15.0252 12.3591 15.0372 11.8435 14.921 11.3493C14.921 11.3373 14.913 11.3263 14.91 11.3143C14.8608 11.1115 14.7904 10.9144 14.7 10.7263Z" fill="#111928"/>
<path d="M19.821 8.60531L16.964 11.4623C17.0548 12.2082 16.9746 12.965 16.7296 13.6753C16.4846 14.3856 16.0812 15.0309 15.5499 15.5622C15.0186 16.0935 14.3733 16.4969 13.663 16.7419C12.9527 16.9869 12.1959 17.0671 11.45 16.9763L9.665 18.7613C10.4324 18.9266 11.215 19.0108 12 19.0123C18.453 19.0123 22 13.7543 22 12.0123C22 10.8463 20.363 9.13831 19.821 8.60531Z" fill="#111928"/>
</svg>
