<svg width="24" height="24" viewBox="0 0 24 24" fill="none" xmlns="http://www.w3.org/2000/svg">
<path fill-rule="evenodd" clip-rule="evenodd" d="M2 12C2 6.47715 6.47715 2 12 2C17.5228 2 22 6.47715 22 12C22 17.5228 17.5228 22 12 22C6.47715 22 2 17.5228 2 12ZM7.49513 12.93C7.46108 12.687 7.25238 12.5 7 12.5C6.72386 12.5 6.5 12.7239 6.5 13C6.5 14.1906 7.14419 15.438 8.11803 16.3746C9.09949 17.3185 10.469 18 12 18C13.531 18 14.9005 17.3185 15.882 16.3746C16.8558 15.438 17.5 14.1906 17.5 13C17.5 12.7239 17.2761 12.5 17 12.5C16.7476 12.5 16.5389 12.687 16.5049 12.93C16.4833 12.9486 16.4376 12.9816 16.3485 13.0257C16.1346 13.1316 15.7953 13.2342 15.343 13.3213C14.4475 13.4937 13.2317 13.583 12 13.583C10.7683 13.583 9.55253 13.4937 8.65703 13.3213C8.20469 13.2342 7.8654 13.1316 7.65153 13.0257C7.56237 12.9816 7.5167 12.9486 7.49513 12.93ZM8.98999 8C8.43771 8 7.98999 8.44772 7.98999 9C7.98999 9.55228 8.43771 10 8.98999 10H8.99999C9.55228 10 9.99999 9.55228 9.99999 9C9.99999 8.44772 9.55228 8 8.99999 8H8.98999ZM14.99 8C14.4377 8 13.99 8.44772 13.99 9C13.99 9.55228 14.4377 10 14.99 10H15C15.5523 10 16 9.55228 16 9C16 8.44772 15.5523 8 15 8H14.99Z" fill="#111928"/>
</svg>
