<svg width="24" height="24" viewBox="0 0 24 24" fill="none" xmlns="http://www.w3.org/2000/svg">
<path fill-rule="evenodd" clip-rule="evenodd" d="M12 2C6.47715 2 2 6.47715 2 12C2 17.5228 6.47715 22 12 22C17.5228 22 22 17.5228 22 12C22 6.47715 17.5228 2 12 2ZM7 12.5C7.25238 12.5 7.46108 12.687 7.49513 12.93C7.5167 12.9486 7.56237 12.9816 7.65153 13.0257C7.8654 13.1316 8.20469 13.2342 8.65703 13.3213C9.55253 13.4937 10.7683 13.583 12 13.583C13.2317 13.583 14.4475 13.4937 15.343 13.3213C15.7953 13.2342 16.1346 13.1316 16.3485 13.0257C16.4376 12.9816 16.4833 12.9486 16.5049 12.93C16.5389 12.687 16.7476 12.5 17 12.5C17.2761 12.5 17.5 12.7239 17.5 13C17.5 14.1906 16.8558 15.438 15.882 16.3746C14.9005 17.3185 13.531 18 12 18C10.469 18 9.09949 17.3185 8.11803 16.3746C7.14419 15.438 6.5 14.1906 6.5 13C6.5 12.7239 6.72386 12.5 7 12.5ZM16.5188 12.9166C16.5205 12.9139 16.5217 12.9125 16.5219 12.9126C16.522 12.9126 16.5211 12.9139 16.5188 12.9166ZM7.48119 12.9166C7.47886 12.9139 7.47799 12.9126 7.47815 12.9126C7.4783 12.9125 7.47947 12.9139 7.48119 12.9166ZM8.38209 8.06385L9 6.81104L9.61886 8.06416L9.61937 8.06423L11 8.26404L10.9999 8.26409L10.0001 9.23957L10.236 10.616L8.99923 9.96644L7.764 10.616L7.99997 9.23901L7 8.26404L8.38209 8.06385ZM14.3821 8.06385L15 6.81104L15.6189 8.06416L17 8.26404L16.0001 9.23957L16.236 10.616L14.9992 9.96644L13.764 10.616L14 9.23901L13 8.26404L13.0001 8.26403L14.3821 8.06385Z" fill="#111928"/>
</svg>
