<svg width="24" height="24" viewBox="0 0 24 24" fill="none" xmlns="http://www.w3.org/2000/svg">
<path fill-rule="evenodd" clip-rule="evenodd" d="M9 2.22117V7H4.22117C4.31517 6.81709 4.43766 6.64812 4.58579 6.5L8.5 2.58579C8.64812 2.43766 8.81709 2.31517 9 2.22117ZM11 2V7C11 8.10457 10.1046 9 9 9H4V20C4 21.1046 4.89543 22 6 22H18C19.1046 22 20 21.1046 20 20V4C20 2.89543 19.1046 2 18 2H11ZM14 4H16.01V6.01H14.01V8H16.01V10.01H14.01V12H16.01V14.01H14.01V16H16.01V18.01H14.01V20.01H12V18H14V16.01H12V14H14V12.01H12V10H14V8.01H12V6H14V4Z" fill="#111928"/>
</svg>
