<svg width="24" height="24" viewBox="0 0 24 24" fill="none" xmlns="http://www.w3.org/2000/svg">
<path fill-rule="evenodd" clip-rule="evenodd" d="M18 3C19.1046 3 20 3.89543 20 5V15C20 16.1046 19.1046 17 18 17H17V9C17 6.79086 15.2091 5 13 5H10C9.63611 5 9.29491 5.09718 9.00095 5.26701C9 5.18705 9 5.09836 9 5C9 3.89543 9.89543 3 11 3H18Z" fill="#111928"/>
<path fill-rule="evenodd" clip-rule="evenodd" d="M8 7.05359V11H4.1991C4.27366 10.8456 4.36829 10.7004 4.48149 10.5683L6.94142 7.69842C7.21965 7.37382 7.59156 7.15012 8 7.05359ZM10 7V11C10 12.1046 9.10457 13 8 13H4V19C4 20.1046 4.89543 21 6 21H13C14.1046 21 15 20.1046 15 19V9C15 7.89543 14.1046 7 13 7H10Z" fill="#111928"/>
</svg>
