<svg width="24" height="24" viewBox="0 0 24 24" fill="none" xmlns="http://www.w3.org/2000/svg">
<path fill-rule="evenodd" clip-rule="evenodd" d="M9 7V2.22117C8.81709 2.31517 8.64812 2.43766 8.5 2.58579L4.58579 6.5C4.43766 6.64812 4.31517 6.81709 4.22117 7H9ZM11 7V2H18C19.1046 2 20 2.89543 20 4V20C20 21.1046 19.1046 22 18 22H6C4.89543 22 4 21.1046 4 20V9H9C10.1046 9 11 8.10457 11 7ZM13.318 7.05192L13.3162 7.05132C13.0113 6.94967 12.6761 7.00081 12.4153 7.18876C12.1545 7.37671 12 7.67856 12 8V13.293C11.5262 13.1015 11.0098 13 10.5 13C8.78677 13 7 14.1464 7 16C7 17.8536 8.78677 19 10.5 19C12.2132 19 14 17.8536 14 16C14 15.8932 13.9941 15.7888 13.9826 15.6868C13.994 15.6263 14 15.5639 14 15.5V9.76571C14.5384 10.2594 15 10.9696 15 12C15 12.5523 15.4477 13 16 13C16.5523 13 17 12.5523 17 12C17 10.1189 16.0443 8.86023 15.1402 8.10678C14.6918 7.73314 14.2475 7.47448 13.916 7.3087C13.7491 7.22525 13.6076 7.16376 13.5041 7.12188C13.4523 7.1009 13.4097 7.08473 13.3779 7.07309C13.3621 7.06726 13.3488 7.06256 13.3385 7.05894L13.3252 7.05433L13.3201 7.05262L13.318 7.05192ZM9 16C9 15.6444 9.45181 15 10.5 15C11.5482 15 12 15.6444 12 16C12 16.3556 11.5482 17 10.5 17C9.45181 17 9 16.3556 9 16Z" fill="#111928"/>
</svg>
