<svg width="24" height="24" viewBox="0 0 24 24" fill="none" xmlns="http://www.w3.org/2000/svg">
<path fill-rule="evenodd" clip-rule="evenodd" d="M8 7V2.22117C7.81709 2.31517 7.64812 2.43766 7.5 2.58579L3.58579 6.5C3.43766 6.64812 3.31517 6.81709 3.22117 7H8ZM10 7V2H17C18.1046 2 19 2.89543 19 4V4.1259C18.6282 4.04073 18.2472 3.99744 17.864 3.99744C17.1941 3.99744 16.5307 4.12976 15.9121 4.38682C15.2942 4.64357 14.7324 5.02035 14.2601 5.49429L14.2592 5.49515L7.61768 12.1367C7.19899 12.5553 6.91357 13.0886 6.79735 13.6692L6.05835 17.3612C5.86145 18.3449 6.16928 19.3619 6.87863 20.0712C7.58797 20.7806 8.60496 21.0885 9.58866 20.8917L13.2817 20.1527C13.862 20.0365 14.395 19.7513 14.8137 19.3329L19 15.1491V20C19 21.1046 18.1046 22 17 22H5C3.89543 22 3 21.1046 3 20V9H8C9.10457 9 10 8.10457 10 7Z" fill="#111928"/>
<path fill-rule="evenodd" clip-rule="evenodd" d="M17.4469 8.08064C17.5791 8.02571 17.7208 7.99744 17.864 7.99744C18.0072 7.99744 18.1489 8.02571 18.2811 8.08064C18.4133 8.13557 18.5333 8.21607 18.6343 8.31752L18.6363 8.31946C18.7373 8.42041 18.8175 8.54029 18.8722 8.67224C18.9269 8.8042 18.955 8.94564 18.955 9.08848C18.955 9.23132 18.9269 9.37276 18.8722 9.50472C18.8175 9.63667 18.7372 9.75671 18.6361 9.85766L18.259 10.2345L16.7181 8.6931L17.0921 8.31909L17.0937 8.31752C17.1947 8.21607 17.3147 8.13557 17.4469 8.08064ZM15.3039 10.1073L10.6601 14.7511L10.275 16.675L12.2001 16.2898L16.8444 11.6483L15.3039 10.1073ZM17.864 5.99744C17.4575 5.99744 17.0549 6.07774 16.6795 6.23373C16.3044 6.38957 15.9638 6.61788 15.6772 6.90558L15.6763 6.90644L9.03189 13.5509C8.89233 13.6904 8.79719 13.8682 8.75845 14.0617L8.01945 17.7537C7.95382 18.0816 8.05643 18.4206 8.29288 18.6571C8.52933 18.8935 8.86832 18.9962 9.19622 18.9305L12.8892 18.1915C13.0827 18.1528 13.2604 18.0578 13.3999 17.9183L20.0499 11.2723C20.3368 10.9856 20.5644 10.6452 20.7197 10.2706C20.8751 9.89582 20.955 9.49414 20.955 9.08848C20.955 8.68282 20.8751 8.28114 20.7197 7.90639C20.5648 7.5325 20.3378 7.19274 20.0517 6.90644C19.7648 6.61834 19.4239 6.38972 19.0485 6.23373C18.6731 6.07774 18.2705 5.99744 17.864 5.99744Z" fill="#111928"/>
</svg>
