<svg width="24" height="24" viewBox="0 0 24 24" fill="none" xmlns="http://www.w3.org/2000/svg">
<path d="M6 16V13H6.37461C6.54042 13.0001 6.6994 13.0661 6.81665 13.1833C6.93389 13.3006 6.99982 13.4598 7 13.6256V15.3746C6.99982 15.5404 6.93389 15.6994 6.81665 15.8166C6.69935 15.9339 6.54028 15.9999 6.37439 16H6Z" fill="#111928"/>
<path d="M12 13.5C12 13.2238 12.2239 13 12.5 13C12.7761 13 13 13.2238 13 13.5V15.5C13 15.7761 12.7761 16 12.5 16C12.2239 16 12 15.7761 12 15.5V13.5Z" fill="#111928"/>
<path fill-rule="evenodd" clip-rule="evenodd" d="M11 7V2H18C19.1046 2 20 2.89543 20 4V9H21C21.5523 9 22 9.44772 22 10V19C22 19.5523 21.5523 20 21 20H20C20 21.1046 19.1046 22 18 22H6C4.89543 22 4 21.1046 4 20H3C2.44772 20 2 19.5523 2 19V10C2 9.44772 2.44772 9 3 9H9C10.1046 9 11 8.10457 11 7ZM18.6829 13.006L20.0182 12.9815L19.9815 10.9818L18.6544 11.0062C17.956 11.0089 17.2869 11.2874 16.7929 11.7814C16.2965 12.2778 16.0176 12.9511 16.0176 13.6531V15.3591C16.0176 16.0612 16.2965 16.7344 16.7929 17.2308C17.2893 17.7273 17.9626 18.0061 18.6646 18.0061H20V16.0061H18.6646C18.493 16.0061 18.3284 15.938 18.2071 15.8166C18.0858 15.6953 18.0176 15.5307 18.0176 15.3591V13.6531C18.0176 13.4815 18.0858 13.317 18.2071 13.1956C18.3284 13.0743 18.493 13.0061 18.6646 13.0061L18.6829 13.006ZM5 11C4.44772 11 4 11.4477 4 12V17C4 17.5523 4.44772 18 5 18H6.37561C7.07151 17.9996 7.73879 17.7229 8.23086 17.2308C8.72294 16.7388 8.99957 16.0709 9 15.375V13.6244C8.99957 12.9285 8.72294 12.2612 8.23086 11.7691C7.73879 11.277 7.0709 11.0004 6.375 11H5ZM12.5 11C11.1193 11 10 12.1193 10 13.5V15.5C10 16.8807 11.1193 18 12.5 18C13.8807 18 15 16.8807 15 15.5V13.5C15 12.1193 13.8807 11 12.5 11Z" fill="#111928"/>
<path d="M9 7V2.22117C8.81709 2.31517 8.64812 2.43766 8.5 2.58579L4.58579 6.5C4.43766 6.64812 4.31517 6.81709 4.22117 7H9Z" fill="#111928"/>
</svg>
