<svg width="24" height="24" viewBox="0 0 24 24" fill="none" xmlns="http://www.w3.org/2000/svg">
<path fill-rule="evenodd" clip-rule="evenodd" d="M9 2.22117V7H4.22117C4.31517 6.81709 4.43766 6.64812 4.58579 6.5L8.5 2.58579C8.64812 2.43766 8.81709 2.31517 9 2.22117ZM11 2V7C11 8.10457 10.1046 9 9 9H4V20C4 21.1046 4.89543 22 6 22H18C19.1046 22 20 21.1046 20 20V4C20 2.89543 19.1046 2 18 2H11ZM8 16C8 15.4477 8.44772 15 9 15H15C15.5523 15 16 15.4477 16 16C16 16.5523 15.5523 17 15 17H9C8.44772 17 8 16.5523 8 16ZM9 11C8.44772 11 8 11.4477 8 12C8 12.5523 8.44772 13 9 13H15C15.5523 13 16 12.5523 16 12C16 11.4477 15.5523 11 15 11H9Z" fill="#111928"/>
</svg>
