<svg width="24" height="24" viewBox="0 0 24 24" fill="none" xmlns="http://www.w3.org/2000/svg">
<path fill-rule="evenodd" clip-rule="evenodd" d="M9 7V2.22117C8.81709 2.31517 8.64812 2.43766 8.5 2.58579L4.58579 6.5C4.43766 6.64812 4.31517 6.81709 4.22117 7H9ZM11 7V2H18C19.1046 2 20 2.89543 20 4V20C20 21.1046 19.1046 22 18 22H6C4.89543 22 4 21.1046 4 20V9H9C10.1046 9 11 8.10457 11 7ZM11.5 12C10.6716 12 10 12.6716 10 13.5C10 14.3284 10.6716 15 11.5 15C11.832 15 12.1389 14.8921 12.3874 14.7095C12.3959 14.7029 12.4044 14.6965 12.4131 14.6902C12.77 14.416 13 13.9849 13 13.5C13 12.6716 12.3284 12 11.5 12ZM11.5 17C11.9693 17 12.417 16.9076 12.8259 16.7401L14.7929 18.7071C15.1834 19.0976 15.8166 19.0976 16.2071 18.7071C16.5976 18.3166 16.5976 17.6834 16.2071 17.2929L14.3896 15.4754C14.7747 14.9132 15 14.2329 15 13.5C15 11.567 13.433 10 11.5 10C9.567 10 8 11.567 8 13.5C8 15.433 9.567 17 11.5 17Z" fill="#111928"/>
</svg>
