<svg width="24" height="24" viewBox="0 0 24 24" fill="none" xmlns="http://www.w3.org/2000/svg">
<path d="M3.69869 6.31701C2.56717 5.02384 3.48553 3 5.20384 3H18.7547C20.4863 3 21.3996 5.05088 20.2413 6.33793L17.47 9.34198C17.47 9.34198 17.0068 9.1361 16.8516 9.10156C16.6965 9.06703 16.3636 8.99552 15.931 8.99552C15.0276 8.99552 13.793 9.65625 13.3594 10.7266C12.0338 11.5751 11.6673 12.5399 11.5665 12.7344C11.4656 12.9288 11.3047 13.2656 11.2266 13.9492C11.1485 14.6328 11.2266 15.5547 11.7501 16.418C11.678 16.4806 11.5118 16.707 11.418 16.8555C11.3243 17.0039 10.8282 17.7305 11.0665 19C10.8672 19 10.4278 18.842 10.1465 18.5607L9.43942 17.8536C9.15811 17.5722 9.00008 17.1907 9.00008 16.7929V12.3757L3.69869 6.31701Z" fill="#111928"/>
<path fill-rule="evenodd" clip-rule="evenodd" d="M16.0604 11C16.6127 11 17.0604 11.4477 17.0604 12V12.1013C17.697 12.2604 18.2788 12.595 18.7284 13.0728C19.1068 13.475 19.0876 14.1079 18.6853 14.4863C18.2831 14.8648 17.6502 14.8455 17.2718 14.4433C17.0816 14.2412 16.8212 14.0929 16.523 14.0294C16.4867 14.0217 16.4508 14.012 16.4156 14.0002C16.3613 13.9822 16.3058 13.9685 16.2498 13.9592C16.1884 13.9709 16.1251 13.9771 16.0604 13.9771C15.9974 13.9771 15.9359 13.9713 15.8761 13.9601C15.7977 13.9737 15.7207 13.9956 15.6469 14.0259C15.4493 14.1071 15.2956 14.2391 15.1965 14.3932C15.1971 14.3952 15.1978 14.3974 15.1985 14.3996C15.2123 14.4427 15.2501 14.5191 15.3381 14.615C15.5187 14.8121 15.8364 15.0084 16.2288 15.0985C16.9748 15.2697 17.6657 15.6557 18.148 16.1823C18.624 16.702 18.9941 17.4877 18.7371 18.3527C18.7235 18.3986 18.7066 18.4434 18.6865 18.4869C18.3742 19.1637 17.8097 19.6877 17.1229 19.9699C17.1021 19.9784 17.0813 19.9867 17.0604 19.9947V20C17.0604 20.5523 16.6127 21 16.0604 21C15.5333 21 15.1015 20.5923 15.0631 20.0751C15.0477 20.0705 15.0323 20.0658 15.0169 20.061C14.3462 19.9069 13.7332 19.559 13.2663 19.0548C12.8911 18.6495 12.9154 18.0168 13.3207 17.6416C13.7259 17.2664 14.3586 17.2908 14.7338 17.696C14.9241 17.9015 15.1865 18.0526 15.4878 18.1169C15.5237 18.1246 15.5591 18.1342 15.5939 18.1458C15.6693 18.1708 15.747 18.1874 15.8254 18.1957C15.9007 18.1776 15.9794 18.168 16.0604 18.168C16.1025 18.168 16.144 18.1706 16.1848 18.1756C16.2456 18.1622 16.3052 18.1436 16.3629 18.1199C16.5608 18.0386 16.7147 17.9064 16.8139 17.7519L16.8129 17.7487C16.7993 17.7063 16.7616 17.6298 16.6731 17.5331C16.4914 17.3347 16.1724 17.1376 15.7812 17.0477C15.0364 16.8767 14.3461 16.4928 13.8636 15.9663C13.386 15.4452 13.0204 14.6623 13.2712 13.7993C13.285 13.7516 13.3024 13.705 13.3232 13.6599C13.6352 12.9826 14.1998 12.4582 14.8869 12.176C14.9442 12.1524 15.002 12.1307 15.0604 12.1107V12C15.0604 11.4477 15.5081 11 16.0604 11Z" fill="#111928"/>
</svg>
