<svg width="24" height="24" viewBox="0 0 24 24" fill="none" xmlns="http://www.w3.org/2000/svg">
<path d="M8.5972 3.20052C8.25173 2.94095 7.7786 2.93264 7.42423 3.17994C7.06986 3.42723 6.91443 3.87417 7.03887 4.28799C7.214 4.87035 7.2337 5.48983 7.09581 6.08267C6.95794 6.67545 6.66781 7.21891 6.25668 7.65809C6.22896 7.68769 6.20307 7.71896 6.17915 7.75171C5.58252 8.56864 2.21818 13.3526 5.2375 18.5136C5.24729 18.5303 5.25757 18.5468 5.26831 18.5629C6.004 19.6676 7.00776 20.5641 8.18485 21.1652C9.35212 21.7612 10.6504 22.0466 11.9573 21.9938C13.3464 22.0183 14.7182 21.6825 15.9423 21.0188C17.1761 20.3498 18.2177 19.3708 18.968 18.1774C18.9727 18.1699 18.9774 18.1623 18.9819 18.1546C20.2841 15.9552 20.1672 13.5993 19.5712 11.7137C18.9874 9.86638 17.8906 8.29987 16.9642 7.61236C16.6674 7.39215 16.2734 7.35354 15.9395 7.51197C15.6057 7.67039 15.3864 8.00003 15.3693 8.36917C15.3031 9.80031 15.0069 10.9201 14.5756 11.8001C14.3537 9.39298 13.4483 7.60423 12.3514 6.2758C11.2046 4.88687 9.78802 3.9762 9.02855 3.48795C8.83908 3.36614 8.69049 3.27061 8.5972 3.20052Z" fill="#111928"/>
</svg>
