<svg width="24" height="24" viewBox="0 0 24 24" fill="none" xmlns="http://www.w3.org/2000/svg">
<path d="M13.4228 7.00024C11.1962 7.01489 9.17632 7.66178 7.68891 8.53851C6.93738 8.98149 6.29335 9.49991 5.82496 10.0553C5.77102 10.1192 5.71822 10.1851 5.66706 10.2528L3.70711 8.29288C3.31658 7.90236 2.68342 7.90236 2.29289 8.29288C1.90237 8.68341 1.90237 9.31657 2.29289 9.7071L4.58579 12L2.29289 14.2929C1.90237 14.6834 1.90237 15.3166 2.29289 15.7071C2.68342 16.0976 3.31658 16.0976 3.70711 15.7071L5.66706 13.7471C5.71822 13.8148 5.77102 13.8807 5.82496 13.9447C6.29335 14.5001 6.93738 15.0185 7.68891 15.4615C9.17499 16.3374 11.1926 16.9839 13.4168 16.9997C13.3049 16.8186 13.2031 16.6409 13.1193 16.4746C12.2362 14.9489 11.7139 13.601 11.7114 12.136C11.7089 10.6746 12.2246 9.23743 13.1139 7.53665C13.1227 7.51966 13.1321 7.50294 13.1419 7.4865C13.2343 7.33222 13.3294 7.16686 13.4228 7.00024Z" fill="#383838"/>
<path fill-rule="evenodd" clip-rule="evenodd" d="M15.6562 16.7394C17.0399 16.4016 18.2206 15.7774 19.1606 15.1191C20.5524 14.1443 21.4688 13.0595 21.8111 12.5849C22.063 12.2356 22.063 11.7643 21.8111 11.4151C21.4688 10.9405 20.5524 9.85563 19.1606 8.88088C18.2009 8.20878 16.9904 7.57231 15.5692 7.2398C15.3671 7.62146 15.1148 8.08284 14.8732 8.48816C14.0455 10.0758 13.7098 11.1605 13.7114 12.1326C13.7131 13.0972 14.0477 14.091 14.8648 15.4978C14.876 15.5171 14.8866 15.5368 14.8965 15.5568C15.0606 15.8888 15.3607 16.3346 15.6562 16.7394ZM15.9867 10.6277C15.4344 10.6277 14.9867 11.0754 14.9867 11.6277C14.9867 12.18 15.4344 12.6277 15.9867 12.6277H15.9967C16.549 12.6277 16.9967 12.18 16.9967 11.6277C16.9967 11.0754 16.549 10.6277 15.9967 10.6277H15.9867Z" fill="#383838"/>
</svg>
