<svg width="24" height="24" viewBox="0 0 24 24" fill="none" xmlns="http://www.w3.org/2000/svg">
<path d="M13.0894 3.29374C15.0136 4.2439 16.5124 4.98399 18.5623 3.98614C18.8722 3.83528 19.238 3.85466 19.5302 4.03742C19.8225 4.22019 20 4.54058 20 4.88527V14.4262C20 14.8088 19.7817 15.1579 19.4377 15.3253C16.4569 16.7763 14.0556 15.5659 12.1887 14.625C11.9741 14.5168 11.7666 14.4122 11.566 14.3156C10.5329 13.818 9.67912 13.5028 8.8105 13.5446C8.0506 13.5811 7.13845 13.9021 6 14.9408V21C6 21.5523 5.55228 22 5 22C4.44772 22 4 21.5523 4 21V4.97114C4 4.70399 4.1069 4.44794 4.29685 4.26009C5.81855 2.75529 7.26433 2.07564 8.71449 2.00594C10.1209 1.93835 11.3671 2.45893 12.434 2.97283C12.6585 3.08099 12.8766 3.18865 13.0894 3.29374Z" fill="#111928"/>
</svg>
