<svg width="24" height="24" viewBox="0 0 24 24" fill="none" xmlns="http://www.w3.org/2000/svg">
<path fill-rule="evenodd" clip-rule="evenodd" d="M6 5C6 3.89543 6.89543 3 8 3H12.1569C12.8205 3 13.441 3.32917 13.813 3.87869L15.2493 6H19C20.1046 6 21 6.89543 21 8V15C21 16.1046 20.1046 17 19 17V12C19 10.3431 17.6569 9 16 9H12.7799L11.6411 7.31803C11.083 6.49376 10.1524 6 9.15692 6H6V5Z" fill="#111928"/>
<path fill-rule="evenodd" clip-rule="evenodd" d="M3 9C3 7.89543 3.89543 7 5 7H9.15692C9.82055 7 10.441 7.32917 10.813 7.87869L12.2493 10H3V9ZM3 12V19C3 20.1046 3.89543 21 5 21H16C17.1046 21 18 20.1046 18 19V12H3Z" fill="#111928"/>
</svg>
