<svg width="24" height="24" viewBox="0 0 24 24" fill="none" xmlns="http://www.w3.org/2000/svg">
<path fill-rule="evenodd" clip-rule="evenodd" d="M5 4C3.89543 4 3 4.89543 3 6V7H13.9684L12.0681 4.71963C11.6881 4.26365 11.1252 4 10.5316 4H5ZM3 19V9H21V19C21 20.1046 20.1046 21 19 21H5C3.89543 21 3 20.1046 3 19ZM14.7071 11.2929C14.3166 10.9024 13.6834 10.9024 13.2929 11.2929C12.9024 11.6834 12.9024 12.3166 13.2929 12.7071L13.5858 13H8C7.44772 13 7 13.4477 7 14C7 14.5523 7.44772 15 8 15H13.5858L13.2929 15.2929C12.9024 15.6834 12.9024 16.3166 13.2929 16.7071C13.6834 17.0976 14.3166 17.0976 14.7071 16.7071L16.7071 14.7071C17.0976 14.3166 17.0976 13.6834 16.7071 13.2929L14.7071 11.2929Z" fill="#111928"/>
</svg>
