<svg width="24" height="24" viewBox="0 0 24 24" fill="none" xmlns="http://www.w3.org/2000/svg">
<path fill-rule="evenodd" clip-rule="evenodd" d="M12 5.69258L10.677 9H13.323L12 5.69258ZM14.1201 10.9929C14.0807 10.9976 14.0406 11 14 11H10C9.95935 11 9.91927 10.9976 9.87989 10.9929L9.47703 12H9.5C10.0523 12 10.5 12.4477 10.5 13C10.5 13.5523 10.0523 14 9.5 14H7C6.44772 14 6 13.5523 6 13C6 12.4477 6.44772 12 7 12H7.32297L10.9787 2.86073C11.3475 1.93878 12.6525 1.93876 13.0213 2.86073L16.677 12H17C17.5523 12 18 12.4477 18 13C18 13.5523 17.5523 14 17 14H14.5C13.9477 14 13.5 13.5523 13.5 13C13.5 12.4477 13.9477 12 14.5 12H14.523L14.1201 10.9929ZM4 16.5C4 15.6716 4.67157 15 5.5 15H18.5C19.3284 15 20 15.6716 20 16.5V19.5C20 20.3284 19.3284 21 18.5 21H18C17.4477 21 17 20.5523 17 20C17 19.4477 17.4477 19 18 19V17H6V19H9C9.55228 19 10 19.4477 10 20C10 20.5523 9.55228 21 9 21H5.5C4.67157 21 4 20.3284 4 19.5V16.5ZM11.4 18.2C11.8418 17.8686 12.4686 17.9582 12.8 18.4L13.5 19.3333L14.2 18.4C14.5314 17.9582 15.1582 17.8686 15.6 18.2C16.0418 18.5314 16.1314 19.1582 15.8 19.6L14.38 21.4933C13.94 22.08 13.06 22.08 12.62 21.4933L11.2 19.6C10.8686 19.1582 10.9582 18.5314 11.4 18.2Z" fill="#111928"/>
</svg>
