<svg width="24" height="24" viewBox="0 0 24 24" fill="none" xmlns="http://www.w3.org/2000/svg">
<path d="M19.9999 18.0661C19.9999 19.6864 18.6568 21 16.9999 21C15.3431 21 13.9999 19.6864 13.9999 18.0661C13.9999 16.4457 16.9999 12 16.9999 12C16.9999 12 19.9999 16.4457 19.9999 18.0661Z" fill="#111928"/>
<path fill-rule="evenodd" clip-rule="evenodd" d="M10.4817 7.52489L9.12238 10.9817H11.841L10.4817 7.52489ZM14.2311 11.5945L11.5145 4.68607C11.1451 3.74689 9.81823 3.7469 9.44892 4.68607L6.76269 11.5173C6.72936 11.5807 6.70265 11.6482 6.68347 11.7187L5.40038 14.9817H4.98169C4.4294 14.9817 3.98169 15.4294 3.98169 15.9817C3.98169 16.534 4.4294 16.9817 4.98169 16.9817H7.73169C8.28397 16.9817 8.73169 16.534 8.73169 15.9817C8.73169 15.4294 8.28397 14.9817 7.73169 14.9817H7.54946L8.33592 12.9817H12.6275L12.9951 13.9166C13.1972 14.4306 13.7777 14.6834 14.2917 14.4813C14.8057 14.2792 15.0585 13.6987 14.8564 13.1847L14.2479 11.6374C14.2426 11.623 14.237 11.6087 14.2311 11.5945Z" fill="#111928"/>
</svg>
