<svg width="24" height="24" viewBox="0 0 24 24" fill="none" xmlns="http://www.w3.org/2000/svg">
<path d="M20 7H19.3C19.5286 6.53285 19.6486 6.02006 19.651 5.5C19.651 4.57174 19.2823 3.6815 18.6259 3.02513C17.9695 2.36875 17.0793 2 16.151 2C14.434 2 12.936 3.2 11.82 4.481C10.4 2.842 8.949 2 7.5 2C6.57174 2 5.6815 2.36875 5.02513 3.02513C4.36875 3.6815 4 4.57174 4 5.5C4.00293 6.02001 4.12289 6.53268 4.351 7H4C3.46957 7 2.96086 7.21071 2.58579 7.58579C2.21071 7.96086 2 8.46957 2 9V11C2 11.2652 2.10536 11.5196 2.29289 11.7071C2.48043 11.8946 2.73478 12 3 12H21C21.2652 12 21.5196 11.8946 21.7071 11.7071C21.8946 11.5196 22 11.2652 22 11V9C22 8.46957 21.7893 7.96086 21.4142 7.58579C21.0391 7.21071 20.5304 7 20 7ZM10.058 7H7.5C7.10218 7 6.72064 6.84196 6.43934 6.56066C6.15804 6.27936 6 5.89782 6 5.5C6 5.10218 6.15804 4.72064 6.43934 4.43934C6.72064 4.15804 7.10218 4 7.5 4C8.4 4 9.5 4.754 10.592 6.122C10.373 6.459 10.2 6.757 10.058 7ZM16.158 7H12.416C13.349 5.632 14.787 4 16.155 4C16.5528 4 16.9344 4.15804 17.2157 4.43934C17.497 4.72064 17.655 5.10218 17.655 5.5C17.655 5.89782 17.497 6.27936 17.2157 6.56066C16.9344 6.84196 16.5528 7 16.155 7H16.158Z" fill="#111928"/>
<path d="M13 14H11V22H13V14Z" fill="#111928"/>
<path d="M9 14H4V20C4 20.5304 4.21071 21.0391 4.58579 21.4142C4.96086 21.7893 5.46957 22 6 22H9V14Z" fill="#111928"/>
<path d="M15 14V22H18C18.5304 22 19.0391 21.7893 19.4142 21.4142C19.7893 21.0391 20 20.5304 20 20V14H15Z" fill="#111928"/>
</svg>
