<svg width="24" height="24" viewBox="0 0 24 24" fill="none" xmlns="http://www.w3.org/2000/svg">
<path d="M12 6C11.732 6 11.5398 6.10529 11.4746 6.14309C11.3888 6.19279 11.324 6.24584 11.2853 6.27961C11.2064 6.34857 11.1395 6.42311 11.0914 6.47983C10.9903 6.59906 10.881 6.74849 10.7738 6.90547C10.5554 7.22509 10.2952 7.6497 10.0454 8.104C9.79607 8.5575 9.54588 9.0609 9.35502 9.53673C9.17832 9.97724 9 10.5183 9 11C9 12.6569 10.3431 14 12 14C13.6569 14 15 12.6569 15 11C15 10.5183 14.8217 9.97724 14.645 9.53673C14.4541 9.0609 14.2039 8.5575 13.9546 8.104C13.7048 7.6497 13.4447 7.22509 13.2262 6.90547C13.119 6.74849 13.0097 6.59906 12.9086 6.47983C12.8605 6.42311 12.7937 6.34857 12.7147 6.27961C12.676 6.24584 12.6112 6.19279 12.5255 6.14309C12.4602 6.10529 12.268 6 12 6Z" fill="#383838"/>
<path fill-rule="evenodd" clip-rule="evenodd" d="M6 2C5.72323 2 5.45884 2.11471 5.26976 2.31682C5.08067 2.51893 4.98381 2.79036 5.00222 3.06652L6.07775 19.1996C6.18281 20.7755 7.49172 22 9.07111 22H14.9289C16.5083 22 17.8172 20.7754 17.9223 19.1996L18.9978 3.06652C19.0162 2.79036 18.9193 2.51893 18.7302 2.31682C18.5412 2.11471 18.2768 2 18 2H6ZM7.86889 16L7.06889 4H16.9311L16.1311 16H7.86889Z" fill="#383838"/>
</svg>
