<svg width="24" height="24" viewBox="0 0 24 24" fill="none" xmlns="http://www.w3.org/2000/svg">
<path d="M8.40041 6.76281C8.14883 6.86238 8.0175 6.95893 7.97866 6.99778L6.56444 5.58356L9.30082 2.84718C10.4141 1.73394 12.3544 1.75015 13.638 3.03375L14.7969 4.19268C15.1889 3.82487 15.805 3.83239 16.1878 4.21524L20.2924 8.31982C20.6753 8.70268 20.6828 9.31875 20.3149 9.71076L21.6606 11.0564C22.0511 11.4469 22.0511 12.0801 21.6606 12.4706L19.6083 14.5229C19.2178 14.9134 18.5846 14.9134 18.1941 14.5229L16.8484 13.1773C16.4786 13.5241 15.9095 13.537 15.5248 13.2159L11.2918 8.98282C10.9707 8.59817 10.9836 8.02903 11.3304 7.65918L10.4824 6.81121C10.3031 6.63188 9.87582 6.48921 9.22437 6.56159C8.92637 6.5947 8.63801 6.66878 8.40041 6.76281Z" fill="#111928"/>
<path d="M9.91884 10.4383L3.82805 16.5291C3.43752 16.9196 3.43753 17.5528 3.82805 17.9433L6.56443 20.6797C6.95496 21.0702 7.58812 21.0702 7.97865 20.6797L14.0694 14.5889L9.91884 10.4383Z" fill="#111928"/>
</svg>
