<svg width="24" height="24" viewBox="0 0 24 24" fill="none" xmlns="http://www.w3.org/2000/svg">
<path fill-rule="evenodd" clip-rule="evenodd" d="M12 5C8.13401 5 5 8.13401 5 12V13.1707C5.31278 13.0602 5.64936 13 6 13H8C8.55228 13 9 13.4477 9 14V20C9 20.5523 8.55228 21 8 21H6C4.34315 21 3 19.6569 3 18V16V12C3 7.02944 7.02944 3 12 3C16.9706 3 21 7.02944 21 12V16V18C21 19.6569 19.6569 21 18 21H16C15.4477 21 15 20.5523 15 20V14C15 13.4477 15.4477 13 16 13H18C18.3506 13 18.6872 13.0602 19 13.1707V12C19 8.13401 15.866 5 12 5Z" fill="#111928"/>
</svg>
