<svg width="24" height="24" viewBox="0 0 24 24" fill="none" xmlns="http://www.w3.org/2000/svg">
<path d="M6.08296 7C6.55904 4.16229 9.027 2 12 2C15.3137 2 18 4.68629 18 8H15.5C14.1193 8 13 9.11929 13 10.5C13 10.7761 12.7761 11 12.5 11C12.2239 11 12 10.7761 12 10.5V10C12 8.34315 10.6569 7 9 7H6.08296Z" fill="#383838"/>
<path d="M6 9V14C6 15.1046 6.89543 16 8 16H11V21C11 21.5523 11.4477 22 12 22C12.5523 22 13 21.5523 13 21V16H16C17.1046 16 18 15.1046 18 14V10H15.5C15.2239 10 15 10.2239 15 10.5C15 11.8807 13.8807 13 12.5 13C11.1193 13 10 11.8807 10 10.5V10C10 9.44772 9.55228 9 9 9H6Z" fill="#383838"/>
</svg>
