<svg width="24" height="24" viewBox="0 0 24 24" fill="none" xmlns="http://www.w3.org/2000/svg">
<path d="M19.0223 4L13.9998 8.98132M13.9998 8.98132L17.0298 8.98134M13.9998 8.98132V5.99998M18.2325 14.5149L17.0894 13.371C15.9464 12.2271 15.1136 13.0014 14.2512 13.8275C13.9353 14.1436 13.5069 14.3211 13.0601 14.3211C12.6134 14.3211 12.1849 14.1436 11.869 13.8275L9.99778 11.9549C9.34136 11.2985 9.07302 10.4958 9.99778 9.57107C10.8466 8.7027 11.6815 7.9593 10.4904 6.76737L9.29929 5.57544C8.39437 4.66988 7.30792 5.19244 6.68086 5.81169C3.54828 8.92349 4.96065 12.5817 8.09152 15.7131C11.2224 18.8445 14.879 20.2596 17.9962 17.1385C18.1707 16.9924 18.5473 16.5735 18.6435 16.3673C18.7398 16.1611 18.7897 15.9362 18.7897 15.7086C18.7897 15.4809 18.7398 15.2561 18.6435 15.0498C18.5473 14.8436 18.407 14.661 18.2325 14.5149Z" stroke="#383838" stroke-width="2" stroke-linecap="round" stroke-linejoin="round"/>
</svg>
