<svg width="24" height="24" viewBox="0 0 24 24" fill="none" xmlns="http://www.w3.org/2000/svg">
<path fill-rule="evenodd" clip-rule="evenodd" d="M5 6C5 5.44772 5.44772 5 6 5H18C18.5523 5 19 5.44772 19 6C19 6.55228 18.5523 7 18 7H6C5.44772 7 5 6.55228 5 6Z" fill="#111928"/>
<path fill-rule="evenodd" clip-rule="evenodd" d="M5 18C5 17.4477 5.44772 17 6 17H18C18.5523 17 19 17.4477 19 18C19 18.5523 18.5523 19 18 19H6C5.44772 19 5 18.5523 5 18Z" fill="#111928"/>
<path fill-rule="evenodd" clip-rule="evenodd" d="M6.65079 8.24076C6.35428 7.9866 5.93694 7.92832 5.58214 8.0915C5.22734 8.25469 5 8.60948 5 9.00001V15C5 15.3905 5.22734 15.7453 5.58214 15.9085C5.93694 16.0717 6.35428 16.0134 6.65079 15.7593L10.1508 12.7593C10.3724 12.5693 10.5 12.2919 10.5 12C10.5 11.7081 10.3724 11.4307 10.1508 11.2408L6.65079 8.24076Z" fill="#111928"/>
<path fill-rule="evenodd" clip-rule="evenodd" d="M12 10C12 9.44772 12.4477 9 13 9H18C18.5523 9 19 9.44772 19 10C19 10.5523 18.5523 11 18 11H13C12.4477 11 12 10.5523 12 10Z" fill="#111928"/>
<path fill-rule="evenodd" clip-rule="evenodd" d="M12 14C12 13.4477 12.4477 13 13 13H18C18.5523 13 19 13.4477 19 14C19 14.5523 18.5523 15 18 15H13C12.4477 15 12 14.5523 12 14Z" fill="#111928"/>
</svg>
