<svg width="24" height="24" viewBox="0 0 24 24" fill="none" xmlns="http://www.w3.org/2000/svg">
<path fill-rule="evenodd" clip-rule="evenodd" d="M8 2C7.44772 2 7 2.44772 7 3V5H6C5.44772 5 5 5.44772 5 6C5 6.44954 5.29662 6.82979 5.70483 6.95572C4.92812 7.93035 4 9.40184 4 11V19.002C4 21.2121 5.79175 23 8 23H16C18.2083 23 20 21.2121 20 19.002V11C20 9.40184 19.0719 7.93035 18.2952 6.95572C18.7034 6.8298 19 6.44954 19 6C19 5.44772 18.5523 5 18 5H17V3C17 2.44772 16.5523 2 16 2H8ZM13 9C13 8.44772 12.5523 8 12 8C11.4478 8 11 8.44772 11 9V10.703C10.806 10.599 10.6054 10.5057 10.4525 10.4376C10.2877 10.3642 10.1249 10.2967 9.99364 10.2478C9.93137 10.2245 9.85788 10.1985 9.78778 10.1786C9.75804 10.1701 9.69401 10.1525 9.61744 10.1416C9.58408 10.1368 9.49908 10.1257 9.3922 10.1335C9.33819 10.1375 9.24139 10.1486 9.12765 10.1889C9.01665 10.2282 8.8249 10.3185 8.66808 10.5215C8.52213 10.7104 8.48147 10.9008 8.46799 10.9985C8.4535 11.1034 8.45869 11.1889 8.46343 11.237C8.47286 11.3326 8.49402 11.4067 8.50335 11.4377C8.52431 11.5076 8.54931 11.5653 8.56233 11.5945C8.59224 11.6616 8.62862 11.7312 8.66225 11.7924C8.73236 11.9199 8.82717 12.0768 8.93303 12.2361C9.03821 12.3943 9.16515 12.5713 9.30054 12.7318C9.41776 12.8708 9.60982 13.0816 9.85148 13.2241C10.069 13.3523 10.4421 13.5415 10.7553 13.6878C10.8369 13.7259 10.92 13.7637 11 13.7986V14.6749C10.806 14.5709 10.6054 14.4776 10.4525 14.4095C10.2877 14.3361 10.1249 14.2687 9.99364 14.2197C9.93137 14.1964 9.85788 14.1704 9.78778 14.1505C9.75804 14.142 9.69401 14.1244 9.61744 14.1135C9.58408 14.1088 9.49908 14.0976 9.3922 14.1054C9.33819 14.1094 9.24139 14.1205 9.12765 14.1608C9.01665 14.2001 8.8249 14.2904 8.66808 14.4934C8.52213 14.6824 8.48147 14.8727 8.46799 14.9704C8.4535 15.0754 8.45869 15.1608 8.46343 15.209C8.47286 15.3045 8.49402 15.3786 8.50335 15.4096C8.52431 15.4795 8.54931 15.5372 8.56233 15.5664C8.59224 15.6335 8.62862 15.7032 8.66225 15.7643C8.73236 15.8918 8.82717 16.0487 8.93303 16.208C9.03821 16.3662 9.16515 16.5432 9.30054 16.7037C9.41776 16.8427 9.60982 17.0535 9.85148 17.196C10.069 17.3242 10.4421 17.5134 10.7553 17.6597C10.8369 17.6978 10.92 17.7356 11 17.7706V19C11 19.5523 11.4478 20 12 20C12.5523 20 13 19.5523 13 19V17.7705C13.0801 17.7356 13.1632 17.6978 13.2447 17.6597C13.5579 17.5134 13.9311 17.3242 14.1486 17.196C14.3902 17.0535 14.5823 16.8427 14.6995 16.7037C14.8349 16.5432 14.9618 16.3662 15.067 16.208C15.1729 16.0487 15.2677 15.8918 15.3378 15.7643C15.3714 15.7032 15.4078 15.6335 15.4377 15.5664C15.4507 15.5372 15.4757 15.4795 15.4967 15.4096C15.506 15.3786 15.5272 15.3045 15.5366 15.209C15.5414 15.1608 15.5465 15.0754 15.5321 14.9704C15.5186 14.8727 15.4779 14.6824 15.332 14.4934C15.1751 14.2904 14.9834 14.2001 14.8724 14.1608C14.7587 14.1205 14.6619 14.1094 14.6079 14.1054C14.501 14.0976 14.416 14.1088 14.3826 14.1135C14.306 14.1244 14.242 14.142 14.2123 14.1505C14.1422 14.1704 14.0687 14.1964 14.0064 14.2197C13.8752 14.2687 13.7124 14.3361 13.5476 14.4095C13.3947 14.4776 13.194 14.5709 13 14.6749V13.7986C13.0801 13.7637 13.1632 13.7259 13.2447 13.6878C13.5579 13.5415 13.9311 13.3523 14.1486 13.2241C14.3902 13.0816 14.5823 12.8708 14.6995 12.7318C14.8349 12.5713 14.9618 12.3943 15.067 12.2361C15.1729 12.0768 15.2677 11.9199 15.3378 11.7924C15.3714 11.7312 15.4078 11.6616 15.4377 11.5945C15.4507 11.5653 15.4757 11.5076 15.4967 11.4377C15.506 11.4067 15.5272 11.3326 15.5366 11.237C15.5414 11.1889 15.5465 11.1034 15.5321 10.9985C15.5186 10.9008 15.4779 10.7104 15.332 10.5215C15.1751 10.3185 14.9834 10.2282 14.8724 10.1889C14.7587 10.1486 14.6619 10.1375 14.6079 10.1335C14.501 10.1257 14.416 10.1368 14.3826 10.1416C14.306 10.1525 14.242 10.1701 14.2123 10.1786C14.1422 10.1985 14.0687 10.2245 14.0064 10.2478C13.8752 10.2967 13.7124 10.3642 13.5476 10.4376C13.3947 10.5057 13.194 10.5989 13 10.703V9Z" fill="#383838"/>
</svg>
