<svg width="24" height="24" viewBox="0 0 24 24" fill="none" xmlns="http://www.w3.org/2000/svg">
<path d="M7 3C7 2.44772 7.44772 2 8 2H16C16.5523 2 17 2.44772 17 3V5H18C18.5523 5 19 5.44772 19 6C19 6.44954 18.7034 6.8298 18.2952 6.95572C18.9065 7.72284 19.6117 8.79777 19.8842 10H11C10.4477 10 10 10.4477 10 11V18C10 18.5523 10.4477 19 11 19H20V19.002C20 21.2121 18.2083 23 16 23H8C5.79175 23 4 21.2121 4 19.002V11C4 9.40184 4.92812 7.93035 5.70483 6.95572C5.29662 6.82979 5 6.44954 5 6C5 5.44772 5.44772 5 6 5H7V3Z" fill="#383838"/>
<path d="M20 17V12H12V17H20Z" fill="#383838"/>
</svg>
