<svg width="24" height="24" viewBox="0 0 24 24" fill="none" xmlns="http://www.w3.org/2000/svg">
<path fill-rule="evenodd" clip-rule="evenodd" d="M2 7C2 5.89543 2.89543 5 4 5H20C21.1046 5 22 5.89543 22 7V17C22 18.1046 21.1046 19 20 19H4C2.89543 19 2 18.1046 2 17V7ZM7.01 8H5V10.01H7.01V8ZM10.01 8H8V10.01H10.01V8ZM13.01 8H11V10.01H13.01V8ZM16.01 8H14V10.01H16.01V8ZM19.01 8H17V10.01H19.01V8ZM7.01 11H5V13.01H7.01V11ZM10.01 11H8V13.01H10.01V11ZM13.01 11H11V13.01H13.01V11ZM16.01 11H14V13.01H16.01V11ZM19.01 11H17V13.01H19.01V11ZM7.01 14H5V16.01H7.01V14ZM8 14L7.99857 16L16.01 16.01V14H8ZM19.01 14H17V16.01H19.01V14Z" fill="#111928"/>
</svg>
