<svg width="24" height="24" viewBox="0 0 24 24" fill="none" xmlns="http://www.w3.org/2000/svg">
<path d="M19 7V5.78571C19 5.35178 18.6518 5 18.2222 5H5.77778C5.34822 5 5 5.35178 5 5.78571V16M5 16H4C3.44772 16 3 16.4477 3 17V18C3 18.5523 3.44772 19 4 19H9M5 16H9M16 10V13C16 13.5523 15.5523 14 15 14H12M20 11V19C20 19.5523 19.5523 20 19 20H13C12.4477 20 12 19.5523 12 19V13.603C12 13.3494 12.0964 13.1053 12.2696 12.92L14.7036 10.317C14.8927 10.1148 15.1571 10 15.434 10H19C19.5523 10 20 10.4477 20 11Z" stroke="#383838" stroke-width="2" stroke-linecap="round" stroke-linejoin="round"/>
</svg>
