<svg width="24" height="24" viewBox="0 0 24 24" fill="none" xmlns="http://www.w3.org/2000/svg">
<path fill-rule="evenodd" clip-rule="evenodd" d="M4 5.78571C4 4.80909 4.78639 4 5.77778 4H18.2222C19.2136 4 20 4.80909 20 5.78571V15H4V5.78571ZM12 12C12 11.4477 12.4477 11 13 11H15C15.5523 11 16 11.4477 16 12C16 12.5523 15.5523 13 15 13H13C12.4477 13 12 12.5523 12 12ZM8.27586 6.31035C8.65675 5.91042 9.28973 5.89498 9.68966 6.27586L12.3147 8.77586C12.5128 8.96461 12.625 9.22633 12.625 9.5C12.625 9.77368 12.5128 10.0354 12.3147 10.2241L9.68966 12.7241C9.28973 13.105 8.65675 13.0896 8.27586 12.6897C7.89498 12.2897 7.91042 11.6567 8.31035 11.2759L10.175 9.5L8.31035 7.72414C7.91042 7.34325 7.89498 6.71028 8.27586 6.31035Z" fill="#383838"/>
<path d="M2 17V18C2 19.1046 2.89543 20 4 20H20C21.1046 20 22 19.1046 22 18V17H2Z" fill="#383838"/>
</svg>
