<svg width="24" height="24" viewBox="0 0 24 24" fill="none" xmlns="http://www.w3.org/2000/svg">
<path fill-rule="evenodd" clip-rule="evenodd" d="M16.3072 5.80838C16.2552 5.1785 15.6173 4.83521 15.0983 5.08325L14.008 5.60424L13.9731 5.6178C13.6927 5.72688 13.2096 5.821 12.8689 5.88049C12.6773 5.91397 12.4886 5.9434 12.3318 5.96483C12.2318 5.9785 12.0995 5.99557 11.985 6.00231C7.84444 6.58462 5.32187 10.9997 6.93998 14.9672L7.39058 16.072C7.46015 16.2426 7.50659 16.4308 7.53389 16.5561C7.56066 16.6789 7.58677 16.8243 7.59554 16.9278C7.60221 17.0066 7.69239 18.1011 7.69322 18.1111C7.69321 18.1111 7.69322 18.1112 7.69322 18.1111C7.74521 18.74 8.38134 19.0832 8.89971 18.8374L8.90175 18.8364C8.93781 18.8189 9.18243 18.7004 9.42814 18.5823L9.43245 18.5802C9.64556 18.4777 9.93989 18.3362 10.0224 18.3036L10.0257 18.3022C10.0973 18.2739 10.4792 18.1229 10.8044 18.0794L11.9724 17.923C16.1385 17.3654 18.6842 12.9335 17.0605 8.95227L16.6099 7.84742C16.4982 7.57359 16.429 7.28421 16.4047 6.98951L16.3072 5.80838ZM14.236 3.27869C16.0554 2.40924 18.1366 3.65938 18.3004 5.64385L18.3979 6.82498C18.4055 6.91714 18.4271 7.00728 18.4618 7.09214L18.9124 8.19698C21.017 13.3574 17.7357 19.1694 12.2377 19.9054L11.0715 20.0615C11.0715 20.0615 11.0597 20.0635 11.0341 20.0702C11.0053 20.0776 10.9708 20.0879 10.9329 20.1003C10.8565 20.1252 10.7877 20.1517 10.7573 20.1636C10.7691 20.159 10.7645 20.1612 10.7361 20.1744C10.7151 20.1842 10.6811 20.2001 10.6313 20.2238C10.537 20.2685 10.4165 20.3262 10.2949 20.3847C10.0519 20.5015 9.80947 20.619 9.7739 20.6362L9.75676 20.6444C7.93899 21.5066 5.86372 20.2574 5.70001 18.2758C5.69873 18.2603 5.61566 17.2521 5.60373 17.1092C5.60293 17.1038 5.60163 17.0955 5.59974 17.0843C5.59511 17.0571 5.5883 17.0211 5.57978 16.9821C5.57119 16.9427 5.562 16.9052 5.55307 16.8736C5.54496 16.8448 5.53973 16.8303 5.53876 16.8276C5.53858 16.8271 5.53864 16.8273 5.53876 16.8276L5.08808 15.7225C2.98344 10.562 6.26469 4.75002 11.7627 4.01408L11.8288 4.00524H11.8954C11.88 4.00524 11.8807 4.00517 11.9023 4.00283C11.9265 4.0002 11.9772 3.9947 12.061 3.98324C12.1905 3.96556 12.3545 3.94007 12.5249 3.91031C12.6958 3.88046 12.8653 3.84768 13.0072 3.81594C13.0782 3.80007 13.1374 3.78555 13.1836 3.77294C13.2035 3.76753 13.2183 3.76319 13.2287 3.76L14.236 3.27869ZM13.2358 7.92746C13.4389 8.44104 13.1872 9.02203 12.6736 9.22513C11.4603 9.70497 10.8023 10.3083 10.4355 10.9901C10.0562 11.6952 9.91491 12.619 9.99977 13.8719C10.0371 14.4229 9.62066 14.8999 9.06964 14.9372C8.51862 14.9745 8.04167 14.5581 8.00435 14.0071C7.90703 12.5703 8.04324 11.2155 8.67419 10.0426C9.31765 8.84647 10.4027 7.97246 11.9382 7.36527C12.4517 7.16217 13.0327 7.41387 13.2358 7.92746Z" fill="#383838"/>
</svg>
