<svg width="24" height="24" viewBox="0 0 24 24" fill="none" xmlns="http://www.w3.org/2000/svg">
<path d="M7.40017 3.736L10.8292 7.165C11.2551 7.0533 11.6938 6.99783 12.1342 7C12.4904 7.01092 12.8445 7.0602 13.1902 7.147L16.6002 3.735C16.7357 3.60217 16.8872 3.48662 17.0512 3.391C15.6016 2.52681 13.9551 2.04796 12.2682 2C10.3991 1.95873 8.55569 2.44088 6.94617 3.392C7.11113 3.48748 7.26362 3.60303 7.40017 3.736Z" fill="#111928"/>
<path d="M18.8512 5.276L18.7242 5.149C18.6304 5.05557 18.5035 5.00311 18.3712 5.00311C18.2388 5.00311 18.1119 5.05557 18.0182 5.149L15.0862 8.081C15.1152 8.104 15.1352 8.135 15.1642 8.158C15.4006 8.35245 15.6185 8.56837 15.8152 8.803C15.8482 8.841 15.8922 8.87 15.9242 8.91L18.8512 5.983C18.9449 5.88924 18.9976 5.76208 18.9976 5.6295C18.9976 5.49692 18.9449 5.36977 18.8512 5.276Z" fill="#111928"/>
<path d="M15.9192 15.086C15.8952 15.116 15.8622 15.138 15.8382 15.168C15.6469 15.3997 15.4351 15.6136 15.2052 15.807C15.1642 15.843 15.1332 15.89 15.0902 15.924L18.0172 18.851C18.1109 18.9447 18.2381 18.9974 18.3707 18.9974C18.5033 18.9974 18.6304 18.9447 18.7242 18.851L18.8512 18.724C18.9449 18.6302 18.9976 18.5031 18.9976 18.3705C18.9976 18.2379 18.9449 18.1108 18.8512 18.017L15.9192 15.086Z" fill="#111928"/>
<path d="M14.4772 10.323C14.1354 9.82732 13.654 9.44443 13.0942 9.223L13.0822 9.216C12.7637 9.08744 12.4253 9.01536 12.0822 9.003H12.0002C11.6164 9.00321 11.2364 9.07793 10.8812 9.223C10.5048 9.37712 10.1636 9.60601 9.87831 9.89581C9.59298 10.1856 9.36942 10.5303 9.22117 10.909L9.21217 10.925C9.08439 11.2436 9.01299 11.582 9.00117 11.925C8.99088 12.3376 9.06612 12.7479 9.22217 13.13C9.29465 13.3087 9.38441 13.4798 9.49017 13.641C9.49917 13.655 9.51217 13.667 9.52217 13.681C9.86435 14.1767 10.3461 14.5595 10.9062 14.781L10.9182 14.788C11.2366 14.9166 11.575 14.9886 11.9182 15.001C12.3106 15.0159 12.7019 14.9505 13.0682 14.809C13.0802 14.804 13.0892 14.796 13.1012 14.791C13.4817 14.6369 13.8267 14.4066 14.1149 14.1143C14.4031 13.8219 14.6285 13.4737 14.7772 13.091V13.084C15.0691 12.3773 15.0691 11.5837 14.7772 10.877C14.7049 10.6966 14.6144 10.5241 14.5072 10.362C14.5002 10.35 14.4872 10.337 14.4772 10.323Z" fill="#111928"/>
<path d="M20.6142 6.95C20.515 7.11162 20.3979 7.26156 20.2652 7.397L16.8392 10.823C16.9512 11.2508 17.0054 11.6918 17.0002 12.134C16.9889 12.4896 16.9392 12.843 16.8522 13.188L20.2652 16.6C20.3976 16.7341 20.514 16.8831 20.6122 17.044C21.4744 15.5967 21.9522 13.953 22.0002 12.269C22.0488 10.4008 21.5684 8.55689 20.6142 6.95Z" fill="#111928"/>
<path d="M16.6002 20.264L13.1792 16.843C12.7939 16.9425 12.3981 16.9952 12.0002 17H11.8652C11.5089 16.9891 11.1549 16.9398 10.8092 16.853L7.40017 20.265C7.26572 20.397 7.11677 20.5134 6.95617 20.612C8.40384 21.4742 10.0479 21.952 11.7322 22H12.0002C13.7755 21.998 15.5177 21.5186 17.0442 20.612C16.8836 20.513 16.7347 20.3963 16.6002 20.264Z" fill="#111928"/>
<path d="M3.73517 16.6L7.16117 13.174C6.95081 12.3996 6.94633 11.5837 7.14817 10.807L3.73517 7.4C3.60231 7.26468 3.48523 7.11472 3.38617 6.953C2.47853 8.48114 1.99951 10.2256 1.99951 12.003C1.99951 13.7804 2.47853 15.5249 3.38617 17.053C3.485 16.8893 3.60208 16.7373 3.73517 16.6Z" fill="#111928"/>
<path d="M8.83617 15.842C8.59973 15.6476 8.3818 15.4316 8.18517 15.197C8.15217 15.159 8.10817 15.13 8.07617 15.09L5.14917 18.017C5.05543 18.1108 5.00278 18.2379 5.00278 18.3705C5.00278 18.5031 5.05543 18.6302 5.14917 18.724L5.27617 18.851C5.36989 18.9444 5.49683 18.9969 5.62917 18.9969C5.76151 18.9969 5.88845 18.9444 5.98217 18.851L8.91417 15.918C8.88517 15.9 8.86517 15.865 8.83617 15.842Z" fill="#111928"/>
<path d="M8.08117 8.914C8.11017 8.877 8.15017 8.851 8.18117 8.814C8.36352 8.59434 8.56424 8.3906 8.78117 8.205C8.82717 8.165 8.86217 8.113 8.90917 8.075L5.98317 5.149C5.88941 5.05527 5.76225 5.00261 5.62967 5.00261C5.49709 5.00261 5.36993 5.05527 5.27617 5.149L5.14917 5.276C5.05543 5.36977 5.00278 5.49692 5.00278 5.6295C5.00278 5.76208 5.05543 5.88924 5.14917 5.983L8.08117 8.914Z" fill="#111928"/>
</svg>
