<svg width="24" height="24" viewBox="0 0 24 24" fill="none" xmlns="http://www.w3.org/2000/svg">
<path fill-rule="evenodd" clip-rule="evenodd" d="M7.05025 4.05025C8.36301 2.7375 10.1435 2 12 2C13.8565 2 15.637 2.7375 16.9497 4.05025C18.2625 5.36301 19 7.14349 19 9C19 11.4073 17.8026 12.8736 16.8141 14.0841L16.7747 14.1324C15.7705 15.3625 15 16.3394 15 18C15 18.5523 14.5523 19 14 19H10C9.44772 19 9 18.5523 9 18C9 16.3878 8.2294 15.3875 7.21913 14.1247L7.17453 14.069C6.19287 12.8424 5 11.352 5 9C5 7.14348 5.7375 5.36301 7.05025 4.05025ZM9 21C9 20.4477 9.44772 20 10 20H14C14.5523 20 15 20.4477 15 21C15 21.5523 14.5523 22 14 22H10C9.44772 22 9 21.5523 9 21ZM10.5858 7.58579C10.9609 7.21071 11.4696 7 12 7C12.5523 7 13 6.55228 13 6C13 5.44772 12.5523 5 12 5C10.9391 5 9.92172 5.42143 9.17157 6.17157C8.42143 6.92172 8 7.93913 8 9C8 9.55228 8.44772 10 9 10C9.55228 10 10 9.55228 10 9C10 8.46957 10.2107 7.96086 10.5858 7.58579Z" fill="#111928"/>
</svg>
