<svg width="24" height="24" viewBox="0 0 24 24" fill="none" xmlns="http://www.w3.org/2000/svg">
<path fill-rule="evenodd" clip-rule="evenodd" d="M17.3162 4.05197C17.0113 3.94904 16.6761 4.00082 16.4153 4.19115C16.1545 4.38148 16 4.68715 16 5.01267V13.5775C15.3879 13.2767 14.6927 13.1139 14 13.1139C12.0106 13.1139 10 14.4562 10 16.557C10 18.6577 12.0106 20 14 20C15.9894 20 18 18.6577 18 16.557V6.80073C18.5384 7.30067 19 8.01985 19 9.0633C19 9.62257 19.4477 10.076 20 10.076C20.5523 10.076 21 9.62257 21 9.0633C21 7.15839 20.0443 5.88378 19.1402 5.1208C18.6918 4.74242 18.2475 4.48049 17.916 4.31261C17.7491 4.2281 17.6076 4.16585 17.5041 4.12343C17.4523 4.10219 17.4097 4.08581 17.3779 4.07402C17.3621 4.06812 17.3488 4.06336 17.3385 4.0597L17.3252 4.05503L17.3201 4.0533L17.318 4.05259L17.3162 4.05197ZM4 5.01267C3.44772 5.01267 3 5.46605 3 6.02532C3 6.5846 3.44772 7.03798 4 7.03798H13C13.5523 7.03798 14 6.5846 14 6.02532C14 5.46605 13.5523 5.01267 13 5.01267H4ZM4 9.0633C3.44772 9.0633 3 9.51668 3 10.076C3 10.6352 3.44772 11.0886 4 11.0886H13C13.5523 11.0886 14 10.6352 14 10.076C14 9.51668 13.5523 9.0633 13 9.0633H4ZM4 13.1139C3.44772 13.1139 3 13.5673 3 14.1266C3 14.6859 3.44772 15.1392 4 15.1392H8C8.55228 15.1392 9 14.6859 9 14.1266C9 13.5673 8.55228 13.1139 8 13.1139H4Z" fill="#111928"/>
</svg>
