<svg width="24" height="24" viewBox="0 0 24 24" fill="none" xmlns="http://www.w3.org/2000/svg">
<path fill-rule="evenodd" clip-rule="evenodd" d="M15 7C15 5.89543 15.8954 5 17 5C18.1046 5 19 5.89543 19 7V11C19 11.5523 19.4477 12 20 12C20.5523 12 21 11.5523 21 11V7C21 4.79086 19.2091 3 17 3C14.7909 3 13 4.79086 13 7V10H5C3.89543 10 3 10.8954 3 12V19C3 20.1046 3.89543 21 5 21H15C16.1046 21 17 20.1046 17 19V12C17 10.8954 16.1046 10 15 10V7ZM10 13C10.5523 13 11 13.4477 11 14V17C11 17.5523 10.5523 18 10 18C9.44772 18 9 17.5523 9 17V14C9 13.4477 9.44772 13 10 13Z" fill="#111928"/>
</svg>
