<svg width="24" height="24" viewBox="0 0 24 24" fill="none" xmlns="http://www.w3.org/2000/svg">
<path d="M11.9998 12.9999C13.6567 12.9999 14.9998 11.6568 14.9998 9.99994C14.9998 8.34309 13.6567 6.99994 11.9998 6.99994C10.343 6.99994 8.99981 8.34309 8.99981 9.99994C8.99981 11.6568 10.343 12.9999 11.9998 12.9999Z" stroke="#111928" stroke-width="2" stroke-linecap="round" stroke-linejoin="round"/>
<path d="M17.7998 13.9379H17.7888C18.5106 12.8799 18.9284 11.6441 18.9964 10.3651C19.0645 9.08607 18.7804 7.81289 18.175 6.68419C17.5696 5.55548 16.6661 4.61452 15.5629 3.96376C14.4597 3.31299 13.1991 2.97739 11.9184 2.99347C10.6377 3.00956 9.38595 3.37673 8.29946 4.05499C7.21298 4.73326 6.33341 5.69662 5.75653 6.84018C5.17966 7.98373 4.9276 9.26364 5.0278 10.5405C5.128 11.8174 5.57662 13.0424 6.32481 14.0819H6.30881L6.44981 14.2529C6.54981 14.3799 6.64981 14.5039 6.74981 14.6239L11.9998 20.9999L17.1298 14.7519C17.3228 14.5433 17.5031 14.3232 17.6698 14.0929L17.7998 13.9379Z" stroke="#111928" stroke-width="2" stroke-linecap="round" stroke-linejoin="round"/>
</svg>
