<svg width="24" height="24" viewBox="0 0 24 24" fill="none" xmlns="http://www.w3.org/2000/svg">
<path fill-rule="evenodd" clip-rule="evenodd" d="M11.9061 1.99355C13.3698 1.97517 14.8105 2.35859 16.0712 3.10206C17.332 3.84552 18.3646 4.92053 19.0565 6.21003C19.7484 7.49953 20.0731 8.95408 19.9953 10.4153C19.9201 11.8262 19.4725 13.1911 18.6991 14.3716C18.6638 14.4439 18.6195 14.5127 18.5662 14.5761L18.4584 14.7046C18.2804 14.9482 18.0889 15.1816 17.8848 15.4038L12.7729 21.6276C12.5831 21.8587 12.2998 21.9927 12.0008 21.9929C11.7017 21.9931 11.4182 21.8595 11.2281 21.6287L5.98183 15.2595L5.97989 15.2571C5.87603 15.1325 5.77316 15.005 5.67142 14.876L5.53751 14.7137C5.48589 14.6511 5.44281 14.5834 5.40848 14.5123C4.61637 13.3574 4.14086 12.0139 4.03111 10.6157C3.9166 9.15695 4.20467 7.6947 4.86395 6.38824C5.52323 5.08178 6.52845 3.98118 7.77015 3.20629C9.01186 2.4314 10.4424 2.01193 11.9061 1.99355ZM15 9.99713C15 11.6534 13.6569 12.9961 12 12.9961C10.3432 12.9961 9.00005 11.6534 9.00005 9.99713C9.00005 8.34086 10.3432 6.99818 12 6.99818C13.6569 6.99818 15 8.34086 15 9.99713Z" fill="#111928"/>
</svg>
