<svg width="24" height="24" viewBox="0 0 24 24" fill="none" xmlns="http://www.w3.org/2000/svg">
<path fill-rule="evenodd" clip-rule="evenodd" d="M3 5.98286C3 4.88775 3.89543 4 5 4H19C20.1046 4 21 4.88776 21 5.98286V14.9057C21 16.0008 20.1046 16.8886 19 16.8886L12.3993 16.8886L9.53312 19.5881C8.57765 20.488 7 19.8165 7 18.5099V16.8886H5C3.89543 16.8886 3 16.0008 3 14.9057V5.98286ZM8.70572 9.79151C8.31443 9.40175 7.68127 9.40299 7.29151 9.79428C6.90175 10.1856 6.90299 10.8187 7.29428 11.2085L7.29428 11.2085C7.68557 11.5983 8.31874 11.597 8.7085 11.2057C9.09825 10.8144 9.09702 10.1813 8.70573 9.79152L8.70572 9.79151ZM11.2915 9.79428C11.6813 9.40299 12.3144 9.40175 12.7057 9.79151L12.7057 9.79152C13.097 10.1813 13.0983 10.8144 12.7085 11.2057C12.3187 11.597 11.6856 11.5983 11.2943 11.2085L11.2943 11.2085C10.903 10.8187 10.9018 10.1856 11.2915 9.79428ZM16.7057 9.79151C16.3144 9.40175 15.6813 9.40299 15.2915 9.79428C14.9018 10.1856 14.903 10.8187 15.2943 11.2085L15.2943 11.2085C15.6856 11.5983 16.3187 11.597 16.7085 11.2057C17.0983 10.8144 17.097 10.1813 16.7057 9.79152L16.7057 9.79151Z" fill="#111928"/>
</svg>
