<svg width="24" height="24" viewBox="0 0 24 24" fill="none" xmlns="http://www.w3.org/2000/svg">
<path fill-rule="evenodd" clip-rule="evenodd" d="M4 3C3.44772 3 3 3.44772 3 4V12C3 12.5523 3.44772 13 4 13H5V15C5 15.4045 5.24364 15.7691 5.61732 15.9239C5.99099 16.0787 6.42111 15.9931 6.70711 15.7071L9.41421 13H15C15.5523 13 16 12.5523 16 12V4C16 3.44772 15.5523 3 15 3H4Z" fill="#111928"/>
<path fill-rule="evenodd" clip-rule="evenodd" d="M8.0232 17.2151C8.05649 17.1847 8.08921 17.1534 8.12132 17.1213L10.2426 15H15C16.6569 15 18 13.6569 18 12V8H20C20.5523 8 21 8.44772 21 9V17C21 17.5523 20.5523 18 20 18H19V20C19 20.4045 18.7564 20.7691 18.3827 20.9239C18.009 21.0787 17.5789 20.9931 17.2929 20.7071L14.5858 18H9C8.52157 18 8.12161 17.664 8.0232 17.2151Z" fill="#111928"/>
</svg>
