<svg width="24" height="24" viewBox="0 0 24 24" fill="none" xmlns="http://www.w3.org/2000/svg">
<path d="M19.9707 9.01243C19.9707 8.46014 19.523 8.01243 18.9707 8.01243C18.4184 8.01243 17.9707 8.46014 17.9707 9.01243H19.9707ZM18.9707 12L19.9707 12.0012V12H18.9707ZM10.0081 16.9792L10.0069 17.9792H10.0081V16.9792ZM6.48894 15.5191L7.19605 14.812L6.48894 15.5191ZM5.02881 12H4.02881L4.02881 12.0012L5.02881 12ZM9.01221 19.9626C8.45993 19.9626 8.01221 20.4104 8.01221 20.9626C8.01221 21.5149 8.45993 21.9626 9.01221 21.9626V19.9626ZM14.9873 21.9626C15.5396 21.9626 15.9873 21.5149 15.9873 20.9626C15.9873 20.4104 15.5396 19.9626 14.9873 19.9626V21.9626ZM7.01636 8.01658C7.01636 8.56886 7.46408 9.01658 8.01636 9.01658C8.56865 9.01658 9.01636 8.56886 9.01636 8.01658H7.01636ZM13.6582 12.8788C13.1375 13.0629 12.8646 13.6342 13.0486 14.1549C13.2327 14.6756 13.804 14.9486 14.3247 14.7645L13.6582 12.8788ZM6.02881 10.0083C6.02881 9.45599 5.58109 9.00828 5.02881 9.00828C4.47652 9.00828 4.02881 9.45599 4.02881 10.0083H6.02881ZM15.9805 15.4439C15.5024 15.7204 15.3389 16.3321 15.6154 16.8102C15.8919 17.2883 16.5036 17.4518 16.9817 17.1753L15.9805 15.4439ZM11.9998 16.9792H12.9998C12.9998 16.4269 12.552 15.9792 11.9998 15.9792V16.9792ZM5.73592 4.32192C5.34539 3.93139 4.71223 3.93139 4.3217 4.32192C3.93118 4.71244 3.93118 5.34561 4.3217 5.73613L5.73592 4.32192ZM18.2636 19.678C18.6541 20.0686 19.2873 20.0686 19.6778 19.678C20.0683 19.2875 20.0683 18.6544 19.6778 18.2638L18.2636 19.678ZM17.9707 9.01243V12H19.9707V9.01243H17.9707ZM17.9707 11.9988C17.9695 13.0541 17.5497 14.0658 16.8035 14.812L18.2177 16.2262C19.3384 15.1055 19.9688 13.5861 19.9707 12.0012L17.9707 11.9988ZM10.0093 15.9792C8.95397 15.978 7.94226 15.5582 7.19605 14.812L5.78184 16.2262C6.90253 17.3469 8.42197 17.9773 10.0069 17.9792L10.0093 15.9792ZM7.19605 14.812C6.44985 14.0658 6.03007 13.0541 6.02881 11.9988L4.02881 12.0012C4.03071 13.5861 4.66115 15.1055 5.78184 16.2262L7.19605 14.812ZM11.0039 4.03732H12.9956V2.03732H11.0039V4.03732ZM12.9956 4.03732C14.0933 4.03732 14.9832 4.92718 14.9832 6.02488H16.9832C16.9832 3.82261 15.1979 2.03732 12.9956 2.03732V4.03732ZM14.9832 6.02488V11.0041H16.9832V6.02488H14.9832ZM9.01636 6.02488C9.01636 4.92718 9.90622 4.03732 11.0039 4.03732V2.03732C8.80165 2.03732 7.01636 3.82261 7.01636 6.02488H9.01636ZM9.01221 21.9626H11.9998V19.9626H9.01221V21.9626ZM11.9998 21.9626H14.9873V19.9626H11.9998V21.9626ZM9.01636 8.01658V6.02488H7.01636V8.01658H9.01636ZM14.9832 11.0041C14.9832 11.868 14.4315 12.6055 13.6582 12.8788L14.3247 14.7645C15.8721 14.2176 16.9832 12.7419 16.9832 11.0041H14.9832ZM6.02881 12V10.0083H4.02881V12H6.02881ZM16.8035 14.812C16.5557 15.0598 16.2787 15.2715 15.9805 15.4439L16.9817 17.1753C17.4295 16.9164 17.8456 16.5983 18.2177 16.2262L16.8035 14.812ZM4.3217 5.73613L18.2636 19.678L19.6778 18.2638L5.73592 4.32192L4.3217 5.73613ZM11.9998 15.9792H10.0081V17.9792H11.9998V15.9792ZM10.9998 16.9792V20.9626H12.9998V16.9792H10.9998Z" fill="#111928"/>
</svg>
