<svg width="24" height="24" viewBox="0 0 24 24" fill="none" xmlns="http://www.w3.org/2000/svg">
<path fill-rule="evenodd" clip-rule="evenodd" d="M5 8C5.55228 8 6 8.44772 6 9V11.9994C6.00142 13.06 6.42336 14.0767 7.17333 14.8267C7.92325 15.5766 8.93993 15.9985 10.0005 16H13.9995C15.0601 15.9985 16.0768 15.5766 16.8267 14.8267C17.5766 14.0768 17.9985 13.0601 18 11.9995V9C18 8.44772 18.4477 8 19 8C19.5523 8 20 8.44772 20 9L20 12.0012C19.9981 13.5916 19.3655 15.1163 18.2409 16.2409C17.1163 17.3655 15.5916 17.9981 14.0012 18L13 18V20H15C15.5523 20 16 20.4477 16 21C16 21.5523 15.5523 22 15 22H9C8.44772 22 8 21.5523 8 21C8 20.4477 8.44772 20 9 20H11V18L9.9988 18C8.40841 17.9981 6.88369 17.3655 5.75911 16.2409C4.63453 15.1163 4.00191 13.5916 4 12.0012L4 9C4 8.44772 4.44772 8 5 8Z" fill="#111928"/>
<path d="M7 6C7 3.79086 8.79086 2 11 2H13C15.2091 2 17 3.79086 17 6V11C17 13.2091 15.2091 15 13 15H11C8.79086 15 7 13.2091 7 11V6Z" fill="#111928"/>
</svg>
