<svg width="24" height="24" viewBox="0 0 24 24" fill="none" xmlns="http://www.w3.org/2000/svg">
<path d="M17.0894 13.371L18.2325 14.5149C18.407 14.661 18.5473 14.8436 18.6435 15.0498C18.7398 15.2561 18.7897 15.4809 18.7897 15.7086C18.7897 15.9362 18.7398 16.1611 18.6435 16.3673C18.5473 16.5735 18.1707 16.9924 17.9962 17.1385C14.879 20.2596 11.2224 18.8445 8.09152 15.7131C4.96065 12.5817 3.54828 8.92349 6.68086 5.81169C7.30792 5.19244 8.39437 4.66988 9.29929 5.57544L10.4904 6.76737C11.6815 7.9593 10.8466 8.7027 9.99778 9.57107C9.07302 10.4958 9.34136 11.2985 9.99778 11.9549L11.869 13.8275C12.1849 14.1436 12.6134 14.3211 13.0601 14.3211C13.5069 14.3211 13.9353 14.1436 14.2512 13.8275C15.1136 13.0014 15.9464 12.2271 17.0894 13.371Z" stroke="#383838" stroke-width="2" stroke-linecap="round" stroke-linejoin="round"/>
<path d="M14.8745 8.97997L17.0094 6.84512M17.0094 6.84512L19.169 4.93774M17.0094 6.84512L19.169 8.99588M17.0094 6.84512L14.8745 4.93774" stroke="#383838" stroke-width="2" stroke-linecap="round" stroke-linejoin="round"/>
</svg>
