<svg width="24" height="24" viewBox="0 0 24 24" fill="none" xmlns="http://www.w3.org/2000/svg">
<path fill-rule="evenodd" clip-rule="evenodd" d="M14.1673 10.687C13.7768 10.2965 13.7768 9.66333 14.1673 9.27281L15.5542 7.88598L14.2082 6.68341C13.7963 6.31545 13.7608 5.68328 14.1287 5.27143C14.4967 4.85959 15.1289 4.82401 15.5407 5.19198L17.0131 6.50751L18.507 5.18816C18.921 4.82257 19.5529 4.86177 19.9185 5.27573C20.2841 5.68968 20.2449 6.32163 19.8309 6.68723L18.4704 7.88883L19.8746 9.28726C20.2659 9.67697 20.2673 10.3101 19.8775 10.7015C19.4878 11.0928 18.8547 11.0941 18.4633 10.7044L17.0108 9.25782L15.5815 10.687C15.191 11.0775 14.5579 11.0775 14.1673 10.687Z" fill="#383838"/>
<path d="M7.97825 5.00001C7.60535 5.00001 7.23697 5.0817 6.89899 5.23934C6.57505 5.39044 6.28656 5.6078 6.05203 5.87721C4.23311 7.69909 3.69901 9.75144 4.15304 11.8139C4.5922 13.8088 5.93051 15.7068 7.60946 17.3859C9.28843 19.065 11.1856 20.4036 13.1798 20.845C15.241 21.3013 17.2939 20.7724 19.1194 18.9597C19.3899 18.7249 19.6082 18.4357 19.7599 18.1108C19.918 17.7721 20 17.4028 20 17.0289C20 16.655 19.918 16.2857 19.7599 15.947C19.6083 15.6223 19.3903 15.3334 19.1201 15.0987L17.9103 13.8881C17.406 13.3841 16.7224 13.1009 16.0096 13.1009C15.2968 13.1009 14.6128 13.3844 14.1085 13.8885L13.4907 14.5067C13.3395 14.6579 13.1344 14.7429 12.9206 14.7429C12.7068 14.7429 12.5017 14.6579 12.3505 14.5066L10.4971 12.6521C10.346 12.5008 10.261 12.2956 10.261 12.0817C10.261 11.8677 10.346 11.6625 10.4972 11.5112L11.1153 10.8927C11.619 10.3881 11.902 9.70403 11.902 8.9908C11.902 8.27756 11.6187 7.59313 11.1149 7.08851L9.90499 5.87782C9.67037 5.60812 9.38169 5.39055 9.0575 5.23934C8.71952 5.0817 8.35114 5.00001 7.97825 5.00001Z" fill="#383838"/>
</svg>
