<svg width="24" height="24" viewBox="0 0 24 24" fill="none" xmlns="http://www.w3.org/2000/svg">
<path fill-rule="evenodd" clip-rule="evenodd" d="M5 3C3.89543 3 3 3.89543 3 5V19C3 20.1046 3.89543 21 5 21H16.5C16.5708 21 16.6399 20.9926 16.7066 20.9786C16.8024 20.9927 16.9003 21 17 21H19C20.1046 21 21 20.1046 21 19V7C21 6.44772 20.5523 6 20 6H19C18.4477 6 18 6.44772 18 7C18 7.55228 18.4477 8 19 8V19H17V5C17 3.89543 16.1046 3 15 3H5ZM12 7C12 6.44772 12.4477 6 13 6H13.5C14.0523 6 14.5 6.44772 14.5 7C14.5 7.55228 14.0523 8 13.5 8H13C12.4477 8 12 7.55228 12 7ZM12 10C12 9.44772 12.4477 9 13 9H13.5C14.0523 9 14.5 9.44772 14.5 10C14.5 10.5523 14.0523 11 13.5 11H13C12.4477 11 12 10.5523 12 10ZM6 14C6 13.4477 6.44772 13 7 13H13C13.5523 13 14 13.4477 14 14C14 14.5523 13.5523 15 13 15H7C6.44772 15 6 14.5523 6 14ZM6 17C6 16.4477 6.44772 16 7 16H13C13.5523 16 14 16.4477 14 17C14 17.5523 13.5523 18 13 18H7C6.44772 18 6 17.5523 6 17ZM7 6C6.44772 6 6 6.44772 6 7V10C6 10.5523 6.44772 11 7 11H10C10.5523 11 11 10.5523 11 10V7C11 6.44772 10.5523 6 10 6H7ZM8 9V8H9V9H8Z" fill="#111928"/>
</svg>
