<svg width="24" height="24" viewBox="0 0 24 24" fill="none" xmlns="http://www.w3.org/2000/svg">
<path fill-rule="evenodd" clip-rule="evenodd" d="M10 4H4C2.89543 4 2 4.89543 2 6V18C2 19.1046 2.89543 20 4 20H10V4ZM4.37868 9.29289C3.98816 9.68342 3.98816 10.3166 4.37868 10.7071L5.67151 11.9999L4.37868 13.2928C3.98816 13.6833 3.98816 14.3165 4.37868 14.707C4.7692 15.0975 5.40237 15.0975 5.79289 14.707L7.79283 12.707C8.18336 12.3165 8.18336 11.6834 7.79283 11.2928L5.79289 9.29289C5.40237 8.90237 4.7692 8.90237 4.37868 9.29289Z" fill="#383838"/>
<path d="M12 20H20C21.1046 20 22 19.1046 22 18V6C22 4.89543 21.1046 4 20 4H12V20Z" fill="#383838"/>
</svg>
