<svg width="24" height="24" viewBox="0 0 24 24" fill="none" xmlns="http://www.w3.org/2000/svg">
<path d="M14 18.9999V4.99994H18C18.5523 4.99994 19 5.44765 19 5.99994V16.9999H20C20.5523 16.9999 21 17.4477 21 17.9999C21 18.5522 20.5523 18.9999 20 18.9999H14Z" fill="#111928"/>
<path fill-rule="evenodd" clip-rule="evenodd" d="M12 4.57141C12 3.90703 11.3641 3.42737 10.7253 3.60989L5.72528 5.03846C5.29598 5.16111 5 5.5535 5 5.99998V16.9999H4C3.44772 16.9999 3 17.4477 3 17.9999C3 18.5522 3.44772 18.9999 4 18.9999H5.8598L10.7253 20.3901C11.3641 20.5726 12 20.0929 12 19.4286V4.57141ZM10 11C10.5523 11 11 11.4477 11 12V12.5C11 13.0522 10.5523 13.5 10 13.5C9.44772 13.5 9 13.0522 9 12.5V12C9 11.4477 9.44772 11 10 11Z" fill="#111928"/>
</svg>
