<svg width="24" height="24" viewBox="0 0 24 24" fill="none" xmlns="http://www.w3.org/2000/svg">
<path d="M6.97825 4.00001C6.60535 4.00001 6.23697 4.0817 5.89899 4.23934C5.57505 4.39044 5.28656 4.6078 5.05203 4.87721C3.23311 6.69909 2.69901 8.75144 3.15304 10.8139C3.5922 12.8088 4.93051 14.7068 6.60946 16.3859C8.28843 18.065 10.1856 19.4036 12.1798 19.845C14.241 20.3013 16.2939 19.7724 18.1194 17.9597C18.3899 17.7249 18.6082 17.4357 18.7599 17.1108C18.918 16.7721 19 16.4028 19 16.0289C19 15.655 18.918 15.2857 18.7599 14.947C18.6083 14.6223 18.3903 14.3334 18.1201 14.0987L16.9103 12.8881C16.406 12.3841 15.7224 12.1009 15.0096 12.1009C14.2968 12.1009 13.6128 12.3844 13.1085 12.8885L12.4907 13.5067C12.3395 13.6579 12.1344 13.7429 11.9206 13.7429C11.7068 13.7429 11.5017 13.6579 11.3505 13.5066L9.49714 11.6521C9.34597 11.5008 9.26105 11.2956 9.26105 11.0817C9.26105 10.8677 9.34598 10.6625 9.49718 10.5112L10.1153 9.89271C10.619 9.3881 10.902 8.70403 10.902 7.9908C10.902 7.27756 10.6187 6.59312 10.1149 6.08851L8.90499 4.87781C8.67037 4.60812 8.38169 4.39055 8.0575 4.23934C7.71952 4.0817 7.35114 4.00001 6.97825 4.00001Z" fill="#383838"/>
<path fill-rule="evenodd" clip-rule="evenodd" d="M14.9925 3.99998C14.9925 3.44769 15.4402 2.99998 15.9925 2.99998L19.0225 3.00001C19.5748 3.00001 20.0225 3.44772 20.0225 4.00001V6.98135C20.0225 7.53364 19.5747 7.98135 19.0225 7.98135C18.4702 7.98135 18.0225 7.53364 18.0225 6.98135V6.40023L14.7041 9.69134C14.312 10.0803 13.6788 10.0776 13.2899 9.68552C12.901 9.29339 12.9036 8.66023 13.2958 8.27132L16.5941 4.99999L15.9925 4.99998C15.4402 4.99998 14.9925 4.55226 14.9925 3.99998Z" fill="#383838"/>
</svg>
