<svg width="24" height="24" viewBox="0 0 24 24" fill="none" xmlns="http://www.w3.org/2000/svg">
<path fill-rule="evenodd" clip-rule="evenodd" d="M5 3C3.89543 3 3 3.89543 3 5V19C3 20.1046 3.89543 21 5 21H19C20.1046 21 21 20.1046 21 19V16C21 14.8954 20.1046 14 19 14H18V17C18 17.5523 17.5523 18 17 18C16.4477 18 16 17.5523 16 17V14H15V17C15 17.5523 14.5523 18 14 18C13.4477 18 13 17.5523 13 17V14H12V17C12 17.5523 11.5523 18 11 18C10.4477 18 10 17.5523 10 17V14H7C6.44772 14 6 13.5523 6 13C6 12.4477 6.44772 12 7 12H10V11H7C6.44772 11 6 10.5523 6 10C6 9.44772 6.44772 9 7 9H10V8H7C6.44772 8 6 7.55228 6 7C6 6.44772 6.44772 6 7 6H10V5C10 3.89543 9.10457 3 8 3H5Z" fill="#111928"/>
</svg>
