<svg width="24" height="24" viewBox="0 0 24 24" fill="none" xmlns="http://www.w3.org/2000/svg">
<path fill-rule="evenodd" clip-rule="evenodd" d="M15.5137 3.2929C15.3261 3.10536 15.0718 3 14.8065 3C14.5413 3 14.287 3.10536 14.0994 3.2929L12.1513 5.24108C12.1704 5.25751 12.189 5.27478 12.2071 5.29289L18.7071 11.7929C18.7253 11.811 18.7426 11.8297 18.759 11.8488L20.7071 9.90064C21.0977 9.51012 21.0977 8.87696 20.7071 8.48644L15.5137 3.2929ZM7.00338 8.27099L10.8964 6.8106L17.1893 13.1035L15.7289 16.9966C15.6251 17.2732 15.4044 17.4898 15.1258 17.5883L5.63182 20.9429C5.29446 21.0621 4.92137 20.9915 4.6517 20.7625L11.1043 14.3099C11.4948 13.9193 11.4948 13.2862 11.1043 12.8956C10.7138 12.5051 10.0806 12.5051 9.69008 12.8956L3.23749 19.3483C3.00858 19.0786 2.93796 18.7056 3.05715 18.3682L6.41173 8.87413C6.51016 8.59555 6.72674 8.37476 7.00338 8.27099Z" fill="#111928"/>
</svg>
