<svg width="24" height="24" viewBox="0 0 24 24" fill="none" xmlns="http://www.w3.org/2000/svg">
<path fill-rule="evenodd" clip-rule="evenodd" d="M15.1076 3.11212C15.8404 2.19323 17.2266 1.68559 18.4231 2.4756C19.4527 3.15536 20.0867 4.63458 19.2668 5.90663L18.1323 7.83087C18.6223 8.36877 18.95 9.04771 19.1495 9.8714L19.1521 9.88209L19.1544 9.89284C19.4786 11.3734 18.8385 12.92 17.7771 14.3807C16.695 15.8698 15.0402 17.4582 12.9598 19.0998L12.9519 19.106L12.9439 19.1121C11.6314 20.1056 9.2405 21.2512 7.6905 21.9303L7.67795 21.9358L7.67791 21.9357C6.53228 22.419 5.14878 22.0133 4.38576 20.9761C3.57341 19.8718 3.76459 18.3965 4.7208 17.4838C5.14372 17.0114 5.53155 16.6706 5.87954 16.3648L5.88371 16.3611C7.41978 14.9642 8.65934 13.4776 10.1036 10.5568C10.8927 8.96072 11.7606 7.83767 12.7109 7.16589C13.6945 6.47049 14.7408 6.28104 15.741 6.52946C15.982 6.58931 16.2197 6.6594 16.4513 6.7441L17.5553 4.87161C17.5639 4.85702 17.5729 4.84266 17.5822 4.82852C17.6365 4.74632 17.6536 4.6513 17.6191 4.5306C17.5813 4.39863 17.4815 4.25048 17.3211 4.14462C17.2389 4.09034 17.1439 4.07325 17.0232 4.10778C16.8912 4.14553 16.7431 4.2454 16.6372 4.40573C16.5517 4.53528 16.4372 4.64314 16.3027 4.72077L16.2215 4.76769C15.7432 5.04383 15.1316 4.87996 14.8554 4.40166C14.6025 3.96358 14.7187 3.41367 15.1076 3.11212ZM12.7369 10L14 9.99999C14.2652 9.99999 14.5196 10.1054 14.7071 10.2929C14.8946 10.4804 15 10.7348 15 11V12H16.8905C17.2202 11.3006 17.2916 10.7496 17.2028 10.3305C17.0422 9.67433 16.8059 9.30653 16.5426 9.06656C16.2669 8.81532 15.8731 8.62302 15.259 8.47049C14.8614 8.37174 14.4074 8.41583 13.8654 8.799C13.5219 9.04183 13.1401 9.42496 12.7369 10ZM15.5282 14H14C13.4477 14 13 13.5523 13 13V12L11.615 12C10.173 14.7893 8.84778 16.3699 7.2227 17.8468L7.21653 17.8524L7.21027 17.8579C6.85071 18.1739 6.53386 18.4534 6.18575 18.846L6.15152 18.8846L6.1135 18.9195C5.82978 19.1797 5.81347 19.5417 5.99679 19.7909C6.23934 20.1206 6.64685 20.1969 6.89579 20.0949C8.45488 19.4115 10.6281 18.354 11.729 17.5233C13.3329 16.2571 14.6074 15.0747 15.5282 14Z" fill="#383838"/>
</svg>
