<svg width="24" height="24" viewBox="0 0 24 24" fill="none" xmlns="http://www.w3.org/2000/svg">
<path d="M12.0167 6.99536C9.71093 6.99518 7.48324 7.40307 5.80217 8.50189C4.06495 9.6374 3.01418 11.4465 3.00513 13.9535C2.99322 14.1382 2.99992 14.3716 3.01499 14.5723C3.02951 14.7658 3.0618 15.0854 3.15281 15.3358C3.2805 15.6871 3.48367 16.0062 3.74798 16.2705C4.01229 16.5348 4.33133 16.7379 4.68264 16.8656C5.01833 16.9876 5.37569 17.0379 5.73167 17.0134L7.31048 17.014C8.02235 17.0138 8.70505 16.7311 9.20845 16.2277C9.71186 15.7243 9.9946 15.0409 9.99474 14.329L9.99444 13.6838C9.99443 13.5022 10.0665 13.3283 10.1947 13.2001C10.3229 13.0719 10.4969 12.9998 10.6786 12.9998L13.3258 13.0007C13.5075 13.0008 13.682 13.0731 13.8107 13.2018C13.9395 13.3306 14.0117 13.5051 14.0118 13.6868L14.0121 14.3325C14.0127 15.0443 14.2959 15.7268 14.7992 16.2301C15.2774 16.7083 15.9003 17.0165 16.6456 17.0172L18.2926 17.0178C18.6481 17.0421 19.0051 16.9918 19.3404 16.8698C19.691 16.7422 20.0094 16.5394 20.2733 16.2756C20.5371 16.0117 20.7399 15.6933 20.8675 15.3427C20.9585 15.0925 20.9908 14.7729 21.0053 14.5799C21.0204 14.3798 21.0272 14.1474 21.0155 13.9635C21.0131 11.4548 19.9662 9.64295 18.2303 8.50526C16.5506 7.40445 14.3226 6.99555 12.0167 6.99536Z" fill="#111928"/>
</svg>
