<svg width="24" height="24" viewBox="0 0 24 24" fill="none" xmlns="http://www.w3.org/2000/svg">
<g clip-path="url(#clip0_649_95)">
<path fill-rule="evenodd" clip-rule="evenodd" d="M15.8159 8.44855C13.8674 6.50012 11.3788 5.4221 8.82461 5.21221C8.67496 5.19991 8.48194 5.3007 8.41712 5.55136C8.37416 5.71748 8.40868 5.89798 8.53754 6.06894C8.671 6.246 8.88543 6.37972 9.12774 6.414C11.2614 6.71585 13.205 7.57376 14.9478 9.31659C16.695 11.0638 17.4862 12.9468 17.7528 15.0461C17.8239 15.6063 18.3031 15.8818 18.6453 15.809C18.9373 15.7469 19.0602 15.524 19.0443 15.3478C18.8163 12.8259 17.7409 10.3736 15.8159 8.44855ZM8.9884 3.21893C11.9959 3.46607 14.9334 4.73766 17.2301 7.03433C19.4991 9.30339 20.7677 12.198 21.0361 15.1678C21.1542 16.4741 20.2191 17.519 19.0613 17.7653L18.8533 16.7871L19.0613 17.7653C18.2751 17.9324 17.5482 17.7354 16.9766 17.3247L4.6757 20.8741C4.32661 20.9749 3.95036 20.8783 3.69289 20.622C3.43542 20.3656 3.33725 19.9898 3.43646 19.6403L6.94524 7.27905C6.48296 6.67867 6.26295 5.89312 6.48081 5.05064C6.76071 3.96825 7.75934 3.11793 8.9884 3.21893ZM8.71401 8.372L5.85249 18.453L15.8185 15.5773C15.7973 15.4852 15.7806 15.392 15.7687 15.298C15.5528 13.5973 14.939 12.1362 13.5336 10.7308C12.1206 9.31777 10.5854 8.64013 8.84759 8.39428C8.80288 8.38795 8.75834 8.38052 8.71401 8.372ZM10.3717 9.76325C10.9235 9.73945 11.3901 10.1675 11.4139 10.7192L11.4143 10.7301C11.4381 11.2818 11.0101 11.7484 10.4584 11.7722C9.90659 11.796 9.44 11.368 9.41619 10.8163L9.41573 10.8054C9.39192 10.2537 9.81993 9.78706 10.3717 9.76325ZM13.459 12.8505C14.0108 12.8267 14.4774 13.2548 14.5012 13.8065L14.5016 13.8174C14.5254 14.3691 14.0974 14.8357 13.5456 14.8595C12.9938 14.8833 12.5273 14.4553 12.5035 13.9035L12.503 13.8927C12.4792 13.3409 12.9072 12.8743 13.459 12.8505ZM8.87238 14.3499C9.42416 14.3261 9.89073 14.7542 9.9145 15.3059L9.91496 15.3168C9.93873 15.8686 9.5107 16.3351 8.95893 16.3589C8.40715 16.3827 7.94059 15.9546 7.91682 15.4029L7.91635 15.392C7.89258 14.8402 8.32061 14.3737 8.87238 14.3499Z" fill="#383838"/>
</g>
<defs>
<clipPath id="clip0_649_95">
<rect width="24" height="24" fill="white"/>
</clipPath>
</defs>
</svg>
