<svg width="24" height="24" viewBox="0 0 24 24" fill="none" xmlns="http://www.w3.org/2000/svg">
<path d="M5.00001 4C4.44772 4 4.00001 4.44772 4.00001 5C4.00001 5.55228 4.44772 6 5.00001 6H6.00001C6.55229 6 7.00001 5.55228 7.00001 5C7.00001 4.44772 6.55229 4 6.00001 4H5.00001Z" fill="#383838"/>
<path d="M10.6689 5.39531C10.4473 5.11652 10.0239 4.77692 9.72457 4.55768C9.55958 4.43682 9.38302 4.31652 9.2278 4.22639C9.1558 4.18458 9.05345 4.1286 8.94211 4.08595C8.8912 4.06646 8.78754 4.02954 8.65681 4.01394C8.57924 4.00467 8.18402 3.95989 7.84116 4.26993C7.55833 4.52568 7.51708 4.84231 7.50764 4.93293C7.49463 5.05794 7.50594 5.16229 7.5137 5.21832C7.5301 5.33671 7.56162 5.44656 7.586 5.52331C7.63829 5.68797 7.71463 5.87482 7.79539 6.05211C7.9502 6.39195 8.18544 6.83696 8.42635 7.14012C8.59052 7.34671 8.95903 7.69514 9.30556 7.99999C8.95903 8.30486 8.59051 8.65329 8.42635 8.85988C8.18544 9.16304 7.9502 9.60805 7.79539 9.94789C7.71463 10.1252 7.63829 10.312 7.586 10.4767C7.56162 10.5534 7.5301 10.6633 7.5137 10.7817C7.50594 10.8377 7.49463 10.9421 7.50764 11.0671C7.51708 11.1577 7.55833 11.4743 7.84116 11.7301C8.18402 12.0401 8.57923 11.9953 8.65681 11.9861C8.78754 11.9705 8.8912 11.9335 8.94211 11.914C9.05345 11.8714 9.1558 11.8154 9.2278 11.7736C9.38302 11.6835 9.55958 11.5632 9.72457 11.4423C10.0239 11.2231 10.4473 10.8835 10.6689 10.6047C10.8442 10.384 11.1792 9.86441 11.4419 9.41934C11.5239 9.28026 11.606 9.13667 11.6797 9H12.8164C12.6132 9.28993 12.4221 9.65733 12.2897 9.94787C12.209 10.1252 12.1326 10.312 12.0803 10.4767C12.056 10.5534 12.0244 10.6633 12.008 10.7817C12.0003 10.8377 11.989 10.942 12.002 11.0671C12.0114 11.1577 12.0527 11.4743 12.3355 11.7301C12.6784 12.0401 13.0736 11.9953 13.1511 11.9861C13.2819 11.9704 13.3855 11.9335 13.4364 11.914C13.5478 11.8714 13.6501 11.8154 13.7221 11.7736C13.8773 11.6835 14.0539 11.5632 14.2189 11.4423C14.5182 11.2231 14.9417 10.8835 15.1632 10.6047C15.3386 10.384 15.6735 9.86441 15.9362 9.41935C16.0183 9.28026 16.1003 9.13667 16.174 9H16.8164C16.6132 9.28993 16.4221 9.65733 16.2897 9.94787C16.209 10.1252 16.1326 10.312 16.0803 10.4767C16.056 10.5534 16.0244 10.6633 16.008 10.7817C16.0003 10.8377 15.989 10.942 16.002 11.0671C16.0114 11.1577 16.0527 11.4743 16.3355 11.7301C16.6784 12.0401 17.0736 11.9953 17.1511 11.9861C17.2819 11.9704 17.3855 11.9335 17.4364 11.914C17.5478 11.8714 17.6501 11.8154 17.7221 11.7736C17.8773 11.6835 18.0539 11.5632 18.2189 11.4423C18.5182 11.2231 18.9417 10.8835 19.1632 10.6047C19.3386 10.384 19.6735 9.86441 19.9362 9.41935C20.0183 9.28026 20.1003 9.13667 20.174 9H21.0001C21.5523 9 22.0001 8.55228 22.0001 8C22.0001 7.44771 21.5523 7 21.0001 7H20.174C20.1003 6.86332 20.0183 6.71973 19.9362 6.58065C19.6735 6.13559 19.3386 5.61598 19.1632 5.39533C18.9417 5.11654 18.5182 4.77694 18.2189 4.5577C18.0539 4.43684 17.8773 4.31653 17.7221 4.2264C17.6501 4.18459 17.5478 4.12862 17.4364 4.08597C17.3855 4.06647 17.2819 4.02955 17.1511 4.01395C17.0736 4.00469 16.6784 3.9599 16.3355 4.26994C16.0527 4.52569 16.0114 4.84233 16.002 4.93295C15.989 5.05795 16.0003 5.16231 16.008 5.21833C16.0244 5.33673 16.056 5.44657 16.0803 5.52332C16.1326 5.68798 16.209 5.87483 16.2897 6.05213C16.4221 6.34267 16.6132 6.71007 16.8164 7H16.174C16.1003 6.86332 16.0183 6.71973 15.9362 6.58065C15.6735 6.13559 15.3386 5.61598 15.1632 5.39533C14.9417 5.11654 14.5182 4.77694 14.2189 4.5577C14.0539 4.43684 13.8773 4.31653 13.7221 4.2264C13.6501 4.18459 13.5478 4.12862 13.4364 4.08597C13.3855 4.06647 13.2819 4.02955 13.1511 4.01395C13.0736 4.00469 12.6784 3.95991 12.3355 4.26994C12.0527 4.52569 12.0114 4.84233 12.002 4.93295C11.989 5.05795 12.0003 5.16231 12.008 5.21833C12.0244 5.33673 12.056 5.44657 12.0803 5.52332C12.1326 5.68798 12.209 5.87483 12.2897 6.05213C12.4221 6.34267 12.6132 6.71007 12.8164 7H11.6797C11.606 6.86332 11.5239 6.71973 11.4419 6.58064C11.1792 6.13558 10.8442 5.61597 10.6689 5.39531Z" fill="#383838"/>
<path d="M3.00001 7C2.44772 7 2.00001 7.44772 2.00001 8C2.00001 8.55228 2.44772 9 3.00001 9H7.00001C7.55229 9 8.00001 8.55228 8.00001 8C8.00001 7.44772 7.55229 7 7.00001 7H3.00001Z" fill="#383838"/>
<path d="M5.00001 10C4.44772 10 4.00001 10.4477 4.00001 11C4.00001 11.5523 4.44772 12 5.00001 12H6.00001C6.55229 12 7.00001 11.5523 7.00001 11C7.00001 10.4477 6.55229 10 6.00001 10H5.00001Z" fill="#383838"/>
<path d="M3.00001 13C2.69602 13 2.40854 13.1383 2.21878 13.3758C2.02902 13.6132 1.95758 13.9241 2.02465 14.2206C2.30313 15.4517 3.15585 16.476 4.25474 17.2557C5.17635 17.9095 6.32079 18.4294 7.59869 18.7903V19C7.59869 19.5523 8.04641 20 8.59869 20H15.4013C15.9536 20 16.4013 19.5523 16.4013 19V18.7903C17.6792 18.4294 18.8237 17.9095 19.7453 17.2557C20.8442 16.476 21.6969 15.4517 21.9754 14.2206C22.0424 13.9241 21.971 13.6132 21.7812 13.3758C21.5915 13.1383 21.304 13 21 13H3.00001Z" fill="#383838"/>
</svg>
