<svg width="24" height="24" viewBox="0 0 24 24" fill="none" xmlns="http://www.w3.org/2000/svg">
<path fill-rule="evenodd" clip-rule="evenodd" d="M6 6C4.89543 6 4 6.89543 4 8V11C4 12.1046 4.89543 13 6 13H9C9 13.7956 8.68393 14.5587 8.12132 15.1213C7.55871 15.6839 6.79565 16 6 16H5C4.44772 16 4 16.4477 4 17C4 17.5523 4.44772 18 5 18H6C7.32608 18 8.59785 17.4732 9.53553 16.5355C10.4732 15.5979 11 14.3261 11 13V11V8C11 6.89543 10.1046 6 9 6H6ZM15 6C13.8954 6 13 6.89543 13 8V11C13 12.1046 13.8954 13 15 13H18C18 13.7956 17.6839 14.5587 17.1213 15.1213C16.5587 15.6839 15.7956 16 15 16H14C13.4477 16 13 16.4477 13 17C13 17.5523 13.4477 18 14 18H15C16.3261 18 17.5979 17.4732 18.5355 16.5355C19.4732 15.5979 20 14.3261 20 13V11V8C20 6.89543 19.1046 6 18 6H15Z" fill="#111928"/>
</svg>
