<svg width="24" height="24" viewBox="0 0 24 24" fill="none" xmlns="http://www.w3.org/2000/svg">
<path fill-rule="evenodd" clip-rule="evenodd" d="M5.61732 2.07612C5.99099 1.92134 6.42111 2.00689 6.70711 2.29289L8 3.58579L9.29289 2.29289C9.68342 1.90237 10.3166 1.90237 10.7071 2.29289L12 3.58579L13.2929 2.29289C13.6834 1.90237 14.3166 1.90237 14.7071 2.29289L16 3.58579L17.2929 2.29289C17.5789 2.00689 18.009 1.92134 18.3827 2.07612C18.7564 2.2309 19 2.59554 19 3V21C19 21.4045 18.7564 21.7691 18.3827 21.9239C18.009 22.0787 17.5789 21.9931 17.2929 21.7071L16 20.4142L14.7071 21.7071C14.3166 22.0976 13.6834 22.0976 13.2929 21.7071L12 20.4142L10.7071 21.7071C10.3166 22.0976 9.68342 22.0976 9.29289 21.7071L8 20.4142L6.70711 21.7071C6.42111 21.9931 5.99099 22.0787 5.61732 21.9239C5.24364 21.7691 5 21.4045 5 21V3C5 2.59554 5.24364 2.2309 5.61732 2.07612ZM9 7C8.44772 7 8 7.44772 8 8C8 8.55228 8.44772 9 9 9H15C15.5523 9 16 8.55228 16 8C16 7.44772 15.5523 7 15 7H9ZM9 11C8.44772 11 8 11.4477 8 12C8 12.5523 8.44772 13 9 13H15C15.5523 13 16 12.5523 16 12C16 11.4477 15.5523 11 15 11H9ZM9 15C8.44772 15 8 15.4477 8 16C8 16.5523 8.44772 17 9 17H15C15.5523 17 16 16.5523 16 16C16 15.4477 15.5523 15 15 15H9Z" fill="#111928"/>
</svg>
