<svg width="24" height="24" viewBox="0 0 24 24" fill="none" xmlns="http://www.w3.org/2000/svg">
<path fill-rule="evenodd" clip-rule="evenodd" d="M2 6C2 4.89543 2.89543 4 4 4H20C21.1046 4 22 4.89543 22 6V18C22 19.1046 21.1046 20 20 20H4C2.89543 20 2 19.1046 2 18V6ZM6.99591 8C6.44363 8 5.99591 8.44772 5.99591 9C5.99591 9.55228 6.44363 10 6.99591 10H7.00591C7.5582 10 8.00591 9.55228 8.00591 9C8.00591 8.44772 7.5582 8 7.00591 8H6.99591ZM11 8C10.4477 8 10 8.44772 10 9C10 9.55228 10.4477 10 11 10H17C17.5523 10 18 9.55228 18 9C18 8.44772 17.5523 8 17 8H11ZM6.99591 11C6.44363 11 5.99591 11.4477 5.99591 12C5.99591 12.5523 6.44363 13 6.99591 13H7.00591C7.5582 13 8.00591 12.5523 8.00591 12C8.00591 11.4477 7.5582 11 7.00591 11H6.99591ZM11 11C10.4477 11 10 11.4477 10 12C10 12.5523 10.4477 13 11 13H17C17.5523 13 18 12.5523 18 12C18 11.4477 17.5523 11 17 11H11ZM6.99591 14C6.44363 14 5.99591 14.4477 5.99591 15C5.99591 15.5523 6.44363 16 6.99591 16H7.00591C7.5582 16 8.00591 15.5523 8.00591 15C8.00591 14.4477 7.5582 14 7.00591 14H6.99591ZM11 14C10.4477 14 10 14.4477 10 15C10 15.5523 10.4477 16 11 16H17C17.5523 16 18 15.5523 18 15C18 14.4477 17.5523 14 17 14H11Z" fill="#111928"/>
</svg>
