<svg width="24" height="24" viewBox="0 0 24 24" fill="none" xmlns="http://www.w3.org/2000/svg">
<path d="M17.6511 7.65088C16.8056 6.55235 15.6583 5.72406 14.3495 5.26736C13.0407 4.81065 11.6271 4.74532 10.2818 5.07937C8.93641 5.41341 7.71759 6.13235 6.77442 7.14822C5.83124 8.16408 5.20461 9.43283 4.97119 10.7992M18.0002 4V8H14.0002M6.34919 16.3491C7.19464 17.4476 8.34196 18.2759 9.65077 18.7326C10.9596 19.1894 12.3731 19.2547 13.7185 18.9206C15.0638 18.5866 16.2827 17.8677 17.2258 16.8518C18.169 15.8359 18.7956 14.5672 19.0291 13.2008M6.00015 20V16H10.0002" stroke="#111928" stroke-width="2" stroke-linecap="round" stroke-linejoin="round"/>
</svg>
