<svg width="24" height="24" viewBox="0 0 24 24" fill="none" xmlns="http://www.w3.org/2000/svg">
<path fill-rule="evenodd" clip-rule="evenodd" d="M9.48438 6.74338C9.89317 6.37481 9.92728 5.74293 9.56057 5.33206C9.19385 4.92119 8.56518 4.8869 8.15639 5.25548L2.66944 10.2026L2.66206 10.2094C2.45342 10.4013 2.28682 10.6348 2.17284 10.895C2.05886 11.1552 2 11.4364 2 11.7206C2 12.0049 2.05886 12.2861 2.17284 12.5463C2.28682 12.8064 2.45342 13.0399 2.66205 13.2319L8.24596 18.3202C8.65282 18.6909 9.28166 18.66 9.65053 18.251C10.0194 17.8421 9.98859 17.2101 9.58174 16.8393L4.00426 11.7569C3.99946 11.7523 3.99561 11.7469 3.99295 11.7408C3.99017 11.7344 3.98873 11.7276 3.98873 11.7206C3.98873 11.7137 3.99017 11.7068 3.99295 11.7005C3.99549 11.6947 3.99909 11.6895 4.00358 11.685L9.48438 6.74338ZM16.0275 15.9417V15.5224C16.4642 15.6451 16.8802 15.8395 17.258 16.1C17.919 16.5557 18.4345 17.194 18.7424 17.9377C18.8958 18.3193 19.182 18.6321 19.5477 18.8177C19.9161 19.0046 20.3398 19.0496 20.739 18.9443C21.1381 18.8389 21.4852 18.5904 21.7146 18.2456C21.9289 17.9237 22.0268 17.5385 21.9937 17.1543V15.8787C21.9937 12.1083 19.4676 8.83996 16.0275 8.30552V7.56997C16.0521 7.21056 15.9771 6.85092 15.8103 6.53121C15.6345 6.19438 15.3646 5.9166 15.0337 5.7321C14.7028 5.5476 14.3254 5.46444 13.948 5.49288C13.5707 5.52132 13.2099 5.66011 12.9101 5.89215C12.9001 5.89986 12.8903 5.90775 12.8806 5.91583L7.80141 10.1644C7.79716 10.1679 7.79294 10.1715 7.78876 10.1751C7.78506 10.1783 7.78138 10.1816 7.77773 10.1848C7.5568 10.3817 7.37993 10.6235 7.2588 10.8942C7.13768 11.1649 7.07505 11.4583 7.07505 11.7551C7.07505 12.0519 7.13768 12.3453 7.2588 12.616C7.37993 12.8867 7.5568 13.1285 7.77773 13.3254C7.78551 13.3323 7.79341 13.3391 7.80141 13.3458L12.8806 17.5944C12.8903 17.6025 12.9002 17.6104 12.9102 17.6181C13.2098 17.85 13.5705 17.9887 13.9476 18.0172C14.3247 18.0457 14.7019 17.9627 15.0327 17.7785C15.3635 17.5943 15.6335 17.3168 15.8094 16.9803C15.9765 16.6608 16.0518 16.3012 16.0275 15.9417Z" fill="#111928"/>
</svg>
