<svg width="24" height="24" viewBox="0 0 24 24" fill="none" xmlns="http://www.w3.org/2000/svg">
<path fill-rule="evenodd" clip-rule="evenodd" d="M20.2895 8.56712C20.4229 8.8896 20.624 9.17971 20.8791 9.41789V9.41894C21.2329 9.74979 21.5149 10.1498 21.7077 10.5941C21.9005 11.0384 22 11.5176 22 12.002C22 12.4864 21.9005 12.9655 21.7077 13.4099C21.5149 13.8542 21.2329 14.2542 20.8791 14.585C20.6239 14.823 20.4227 15.1129 20.289 15.4352C20.1554 15.7575 20.0924 16.1047 20.1044 16.4534C20.1211 16.9375 20.0381 17.4198 19.8606 17.8704C19.683 18.3211 19.4147 18.7304 19.0722 19.0729C18.7298 19.4155 18.3205 19.6839 17.87 19.8616C17.4194 20.0393 16.937 20.1225 16.453 20.1059C16.1044 20.0966 15.7577 20.161 15.4356 20.2946C15.1136 20.4283 14.8232 20.6283 14.5836 20.8816C14.2527 21.2352 13.8528 21.5171 13.4086 21.7098C12.9644 21.9025 12.4853 22.002 12.0011 22.002C11.5168 22.002 11.0378 21.9025 10.5935 21.7098C10.1493 21.5171 9.74937 21.2352 9.41853 20.8816C9.18047 20.6259 8.89028 20.4244 8.56758 20.2905C8.24489 20.1567 7.89722 20.0937 7.54808 20.1059C7.06383 20.1226 6.5813 20.0396 6.13051 19.8619C5.67972 19.6842 5.27031 19.4156 4.92774 19.073C4.58516 18.7303 4.31675 18.3208 4.13918 17.87C3.96162 17.4191 3.87871 16.9366 3.8956 16.4523C3.90757 16.1036 3.84461 15.7564 3.71097 15.4341C3.57733 15.1118 3.37611 14.8219 3.1209 14.584C2.76714 14.2531 2.48512 13.8532 2.2923 13.4088C2.09949 12.9645 2 12.4853 2 12.0009C2 11.5166 2.09949 11.0374 2.2923 10.5931C2.48512 10.1487 2.76714 9.74874 3.1209 9.41789C3.37619 9.17981 3.57745 8.88974 3.71109 8.56725C3.84474 8.24477 3.90765 7.89737 3.8956 7.5485C3.88001 7.06438 3.96368 6.5822 4.14144 6.13164C4.3192 5.68107 4.58731 5.27166 4.92924 4.92861C5.27392 4.58896 5.68364 4.32243 6.13383 4.14499C6.58402 3.96756 7.06541 3.88287 7.54913 3.89602C7.89834 3.91074 8.24655 3.84904 8.56944 3.71523C8.89232 3.58142 9.1821 3.37873 9.41853 3.12131C9.7492 2.76745 10.1491 2.48532 10.5933 2.29243C11.0376 2.09953 11.5167 2 12.0011 2C12.4854 2 12.9645 2.09953 13.4088 2.29243C13.853 2.48532 14.2529 2.76745 14.5836 3.12131C14.8218 3.37644 15.1119 3.57759 15.4343 3.71122C15.7568 3.84485 16.1041 3.90786 16.453 3.89602C16.9371 3.87927 17.4196 3.96229 17.8703 4.13992C18.321 4.31755 18.7304 4.58599 19.0729 4.92855C19.4155 5.27111 19.6839 5.68047 19.8615 6.13118C20.0392 6.5819 20.1222 7.06433 20.1054 7.5485C20.0933 7.89729 20.156 8.24464 20.2895 8.56712ZM9.92745 7.37143C9.37517 7.37143 8.92745 7.81914 8.92745 8.37143C8.92745 8.92371 9.37517 9.37143 9.92745 9.37143H9.93782C10.4901 9.37143 10.9378 8.92371 10.9378 8.37143C10.9378 7.81914 10.4901 7.37143 9.93782 7.37143H9.92745ZM15.816 9.59668C16.2065 9.20615 16.2065 8.57299 15.816 8.18246C15.4254 7.79194 14.7923 7.79194 14.4017 8.18246L8.18407 14.4001C7.79354 14.7907 7.79354 15.4238 8.18407 15.8144C8.57459 16.2049 9.20776 16.2049 9.59828 15.8144L15.816 9.59668ZM13.0259 14.6254C12.4736 14.6254 12.0259 15.0731 12.0259 15.6254C12.0259 16.1777 12.4736 16.6254 13.0259 16.6254H13.0363C13.5886 16.6254 14.0363 16.1777 14.0363 15.6254C14.0363 15.0731 13.5886 14.6254 13.0363 14.6254H13.0259Z" fill="#111928"/>
</svg>
