<svg width="24" height="24" viewBox="0 0 24 24" fill="none" xmlns="http://www.w3.org/2000/svg">
<path d="M8.89116 15.1072L15.1088 8.88957M9.92744 8.37143H9.9378M13.0259 15.6254H13.0363M14.0798 3.90196C14.3573 4.19872 14.695 4.4327 15.0704 4.5882C15.4457 4.7437 15.85 4.81711 16.256 4.80352C16.6457 4.79023 17.0339 4.85718 17.3966 5.00022C17.7593 5.14326 18.0887 5.35933 18.3644 5.63503C18.6401 5.91072 18.8562 6.24014 18.9992 6.60285C19.1423 6.96555 19.2092 7.35378 19.1959 7.74345C19.1823 8.14949 19.2557 8.55375 19.4112 8.92909C19.5667 9.30443 19.8007 9.64216 20.0975 9.91963C20.3823 10.186 20.6094 10.5081 20.7646 10.8659C20.9199 11.2236 21 11.6095 21 11.9994C21 12.3894 20.9199 12.7753 20.7646 13.133C20.6094 13.4908 20.3823 13.8129 20.0975 14.0793C19.8007 14.3567 19.5667 14.6945 19.4112 15.0698C19.2557 15.4451 19.1823 15.8494 19.1959 16.2554C19.2092 16.6451 19.1423 17.0333 18.9992 17.396C18.8562 17.7587 18.6401 18.0882 18.3644 18.3639C18.0887 18.6396 17.7593 18.8556 17.3966 18.9987C17.0339 19.1417 16.6457 19.2087 16.256 19.1954C15.85 19.1818 15.4457 19.2552 15.0704 19.4107C14.695 19.5662 14.3573 19.8002 14.0798 20.0969C13.8134 20.3818 13.4914 20.6088 13.1336 20.7641C12.7758 20.9193 12.39 20.9994 12 20.9994C11.61 20.9994 11.2242 20.9193 10.8664 20.7641C10.5086 20.6088 10.1866 20.3818 9.92019 20.0969C9.64272 19.8002 9.30498 19.5662 8.92964 19.4107C8.5543 19.2552 8.15005 19.1818 7.744 19.1954C7.35434 19.2087 6.9661 19.1417 6.6034 18.9987C6.2407 18.8556 5.91127 18.6396 5.63558 18.3639C5.35989 18.0882 5.14381 17.7587 5.00077 17.396C4.85773 17.0333 4.79078 16.6451 4.80407 16.2554C4.81767 15.8494 4.74425 15.4451 4.58875 15.0698C4.43326 14.6945 4.19927 14.3567 3.90251 14.0793C3.61768 13.8129 3.3906 13.4908 3.23535 13.133C3.08011 12.7753 3 12.3894 3 11.9994C3 11.6095 3.08011 11.2236 3.23535 10.8659C3.3906 10.5081 3.61768 10.186 3.90251 9.91963C4.19927 9.64216 4.43326 9.30443 4.58875 8.92909C4.74425 8.55375 4.81767 8.14949 4.80407 7.74345C4.79077 7.35369 4.85775 6.96537 5.00086 6.60259C5.14396 6.23982 5.36013 5.91034 5.63593 5.63464C5.91174 5.35893 6.24129 5.14288 6.60411 4.9999C6.96694 4.85692 7.35529 4.79008 7.74503 4.80352C8.15108 4.81711 8.55534 4.7437 8.93068 4.5882C9.30602 4.4327 9.64375 4.19872 9.92122 3.90196C10.1876 3.61729 10.5096 3.39035 10.8673 3.2352C11.2249 3.08005 11.6107 3 12.0005 3C12.3904 3 12.7761 3.08005 13.1338 3.2352C13.4914 3.39035 13.8134 3.61729 14.0798 3.90196Z" stroke="#111928" stroke-width="2" stroke-linecap="round" stroke-linejoin="round"/>
</svg>
