<svg width="24" height="24" viewBox="0 0 24 24" fill="none" xmlns="http://www.w3.org/2000/svg">
<path fill-rule="evenodd" clip-rule="evenodd" d="M12 4C11.4477 4 11 4.44772 11 5C11 5.02246 11.0007 5.04475 11.0022 5.06684C11.0058 5.09214 11.0084 5.1174 11.0101 5.14256C11.0793 5.62732 11.4961 6 12 6C12.5523 6 13 5.55228 13 5C13 4.44772 12.5523 4 12 4ZM9.04806 4.46226C8.56465 4.65249 8.17979 4.89436 7.85755 5.17294C7.4947 5.48663 7.2199 5.84857 7.02679 6.10292C6.98827 6.15366 6.953 6.20011 6.92093 6.24105C6.71036 6.50983 6.5609 6.65952 6.34707 6.76925C6.12528 6.88307 5.73909 7 5 7C4.44772 7 4 7.44772 4 8C4 8.55228 4.44772 9 5 9C5.36368 9 5.69553 8.97795 6.00003 8.93332V9.34359L4.1358 13.5435C4.12806 13.561 4.12082 13.5786 4.1141 13.5964C4.01248 13.866 3.97798 14.1562 4.01372 14.4421C4.04946 14.7281 4.1543 15.0008 4.31883 15.2369C4.48334 15.473 4.70252 15.6653 4.95722 15.798C5.21189 15.9307 5.49512 15.9999 5.78202 16H8.21842C8.50531 15.9999 8.78817 15.9307 9.04284 15.798C9.29754 15.6653 9.51672 15.473 9.68123 15.2369C9.84576 15.0008 9.9506 14.7281 9.98634 14.4421C10.0221 14.1562 9.98758 13.866 9.88597 13.5964C9.87924 13.5786 9.872 13.561 9.86426 13.5435L8.00003 9.34359V8.02674C8.20075 7.83933 8.35995 7.64725 8.49532 7.47445C8.55743 7.39517 8.61258 7.32322 8.66333 7.25699L8.6635 7.25677C8.84784 7.01625 8.97422 6.85134 9.16555 6.68593C9.23359 6.62711 9.3121 6.56729 9.4064 6.5087C9.76162 7.11805 10.3254 7.59087 11 7.82929V20H5.5C4.94772 20 4.5 20.4477 4.5 21C4.5 21.5523 4.94772 22 5.5 22H18.5C19.0523 22 19.5 21.5523 19.5 21C19.5 20.4477 19.0523 20 18.5 20H13V7.82929C13.6986 7.58238 14.2784 7.08404 14.6308 6.44302C14.8361 6.53417 15.0029 6.63299 15.144 6.73276C15.4533 6.95154 15.6756 7.19808 15.9554 7.51256L15.9798 7.54002C15.9865 7.54754 15.9932 7.55513 16 7.56279V9.34359L14.1358 13.5435C14.1281 13.561 14.1208 13.5786 14.1141 13.5964C14.0125 13.866 13.978 14.1562 14.0137 14.4421C14.0495 14.7281 14.1543 15.0008 14.3188 15.2369C14.4833 15.473 14.7025 15.6653 14.9572 15.798C15.2119 15.9307 15.4951 15.9999 15.782 16H18.2184C18.5053 15.9999 18.7882 15.9307 19.0428 15.798C19.2975 15.6653 19.5167 15.473 19.6812 15.2369C19.8458 15.0008 19.9506 14.7281 19.9863 14.4421C20.0221 14.1562 19.9876 13.866 19.886 13.5964C19.8792 13.5786 19.872 13.561 19.8643 13.5435L18 9.34359V8.8914C18.3023 8.96314 18.6333 9 19 9C19.5523 9 20 8.55228 20 8C20 7.44772 19.5523 7 19 7C18.5204 7 18.2688 6.90238 18.1011 6.80059C17.9019 6.67967 17.738 6.50732 17.4496 6.18319L17.426 6.15662C17.1591 5.85647 16.8044 5.45749 16.299 5.09996C15.924 4.83471 15.4833 4.60294 14.9444 4.4221C14.675 3.04176 13.4592 2 12 2C10.5267 2 9.30146 3.06202 9.04806 4.46226Z" fill="#111928"/>
</svg>
