<svg width="24" height="24" viewBox="0 0 24 24" fill="none" xmlns="http://www.w3.org/2000/svg">
<path d="M12 12C11.4477 12 11 12.4477 11 13C11 13.5523 11.4477 14 12 14C12.5523 14 13 13.5523 13 13C13 12.4477 12.5523 12 12 12Z" fill="#0F172B"/>
<path fill-rule="evenodd" clip-rule="evenodd" d="M17 4C16.4477 4 16 4.44772 16 5V9.97045L12 5.04736L6.65111 11.6306C6.46122 11.8643 6.17612 12 5.87499 12H3L3 19C3 19.5523 3.44772 20 4 20H20C20.5523 20 21 19.5523 21 19L21 12H18.125C18.0829 12 18.0412 11.9974 18 11.9922V9H21C21.5523 9 22 8.55228 22 8V5C22 4.44772 21.5523 4 21 4H17ZM8.99999 13C8.99999 11.3432 10.3431 10 12 10C13.6568 10 15 11.3432 15 13C15 14.6569 13.6568 16 12 16C10.3431 16 8.99999 14.6569 8.99999 13Z" fill="#0F172B"/>
<path d="M5.2 6.40001L2.5 10H5.39902L8.64902 6.00001H6C5.68524 6.00001 5.38885 6.14821 5.2 6.40001Z" fill="#0F172B"/>
</svg>
