<svg width="24" height="24" viewBox="0 0 24 24" fill="none" xmlns="http://www.w3.org/2000/svg">
<path fill-rule="evenodd" clip-rule="evenodd" d="M11.4453 3.16795C11.7812 2.94402 12.2188 2.94402 12.5547 3.16795L18.5547 7.16795C19.0142 7.4743 19.1384 8.09517 18.832 8.5547C18.6395 8.84347 18.3228 8.99981 18 9.00011C17.8252 9.00027 17.6485 8.95465 17.4888 8.85951C17.4742 8.85078 17.4596 8.84162 17.4453 8.83205L16 7.86853V9.53095C14.9168 9.66602 13.9681 10.2342 13.3327 11.0567C13.2286 11.02 13.1166 11 13 11H11C10.4477 11 10 11.4477 10 12C10 12.5523 10.4477 13 11 13H12.5309C12.5105 13.1638 12.5 13.3307 12.5 13.5V13.8368C11.3175 14.3985 10.5 15.6038 10.5 17V19C10.5 19.7436 10.7319 20.4331 11.1273 21H8V7.86853L6.55468 8.83205C6.09516 9.1384 5.47429 9.01423 5.16793 8.5547C4.86158 8.09517 4.98576 7.4743 5.44528 7.16795L11.4453 3.16795ZM10 9C10 8.44772 10.4477 8 11 8H13C13.5523 8 14 8.44772 14 9C14 9.55228 13.5523 10 13 10H11C10.4477 10 10 9.55228 10 9Z" fill="#0F172B"/>
<path fill-rule="evenodd" clip-rule="evenodd" d="M16.5 11C17.0628 11 17.5822 11.186 18 11.4998C18.0306 11.5228 18.0607 11.5465 18.0902 11.5709C18.6459 12.0294 19 12.7233 19 13.5V15C20.1046 15 21 15.8954 21 17V19C21 20.1016 20.1093 20.9952 19.0088 21L19 21H14C12.8954 21 12 20.1046 12 19V17C12 15.8954 12.8954 15 14 15V13.5C14 12.2919 14.857 11.2839 15.9962 11.0508L16 11.05C16.1616 11.0172 16.3288 11 16.5 11ZM16.5 13C16.2239 13 16 13.2239 16 13.5V15H17V13.5C17 13.2239 16.7761 13 16.5 13Z" fill="#0F172B"/>
<path d="M3.72925 11.1623L6 10.5237V21H4C3.44772 21 3 20.5523 3 20V12.125C3 11.677 3.29797 11.2836 3.72925 11.1623Z" fill="#0F172B"/>
</svg>
