<svg width="24" height="24" viewBox="0 0 24 24" fill="none" xmlns="http://www.w3.org/2000/svg">
<path d="M6 10.5237L3.72925 11.1623C3.29797 11.2836 3 11.677 3 12.125V20C3 20.5523 3.44772 21 4 21H6V10.5237Z" fill="#0F172B"/>
<path d="M18 10.5237L20.2707 11.1623C20.702 11.2836 21 11.677 21 12.125V20C21 20.5523 20.5523 21 20 21H18V10.5237Z" fill="#0F172B"/>
<path fill-rule="evenodd" clip-rule="evenodd" d="M12.5547 3.16795C12.2188 2.94402 11.7812 2.94402 11.4453 3.16795L5.44528 7.16795C4.98576 7.4743 4.86158 8.09517 5.16793 8.5547C5.47429 9.01423 6.09516 9.1384 6.55468 8.83205L8 7.86853V21H16V7.86853L17.4453 8.83205C17.4596 8.84162 17.4742 8.85078 17.4888 8.85951C17.6485 8.95465 17.8252 9.00027 18 9.00011C18.3228 8.99981 18.6395 8.84347 18.832 8.5547C19.1384 8.09517 19.0142 7.4743 18.5547 7.16795L12.5547 3.16795ZM10 12C10 11.4477 10.4477 11 11 11H13C13.5523 11 14 11.4477 14 12C14 12.5523 13.5523 13 13 13H11C10.4477 13 10 12.5523 10 12ZM11 8C10.4477 8 10 8.44772 10 9C10 9.55228 10.4477 10 11 10H13C13.5523 10 14 9.55228 14 9C14 8.44772 13.5523 8 13 8H11Z" fill="#0F172B"/>
</svg>
