<svg width="24" height="24" viewBox="0 0 24 24" fill="none" xmlns="http://www.w3.org/2000/svg">
<path fill-rule="evenodd" clip-rule="evenodd" d="M15.3077 15.7016C15.6983 15.3111 16.3314 15.3111 16.7219 15.7016L17.7826 16.7623L18.8433 15.7016C19.2338 15.3111 19.867 15.3111 20.2575 15.7016C20.648 16.0921 20.648 16.7253 20.2575 17.1158L19.1968 18.1765L20.2575 19.2371C20.648 19.6277 20.648 20.2608 20.2575 20.6514C19.867 21.0419 19.2338 21.0419 18.8433 20.6514L17.7826 19.5907L16.7219 20.6514C16.3314 21.0419 15.6983 21.0419 15.3077 20.6514C14.9172 20.2608 14.9172 19.6277 15.3077 19.2371L16.3684 18.1765L15.3077 17.1158C14.9172 16.7253 14.9172 16.0921 15.3077 15.7016Z" fill="#0F172B"/>
<path fill-rule="evenodd" clip-rule="evenodd" d="M11.4453 3.16795C11.7812 2.94402 12.2188 2.94402 12.5547 3.16795L18.5547 7.16795C19.0142 7.4743 19.1384 8.09517 18.832 8.5547C18.6395 8.84347 18.3228 8.99981 18 9.00011C17.8252 9.00027 17.6485 8.95465 17.4888 8.85951C17.4742 8.85078 17.4596 8.84162 17.4453 8.83205L16 7.86853V13.9087C15.3652 13.9125 14.7315 14.1565 14.2471 14.6409C13.2708 15.6172 13.2708 17.2001 14.2471 18.1765C13.4835 18.94 13.3171 20.0747 13.748 21H8V7.86853L6.55468 8.83205C6.09516 9.1384 5.47429 9.01423 5.16793 8.5547C4.86158 8.09517 4.98576 7.4743 5.44528 7.16795L11.4453 3.16795ZM11 11C10.4477 11 10 11.4477 10 12C10 12.5523 10.4477 13 11 13H13C13.5523 13 14 12.5523 14 12C14 11.4477 13.5523 11 13 11H11ZM10 9C10 8.44772 10.4477 8 11 8H13C13.5523 8 14 8.44772 14 9C14 9.55228 13.5523 10 13 10H11C10.4477 10 10 9.55228 10 9Z" fill="#0F172B"/>
<path d="M21 14.3714V12.125C21 11.677 20.702 11.2836 20.2707 11.1623L18 10.5237V14.4472C18.873 13.7554 20.1011 13.7301 21 14.3714Z" fill="#0F172B"/>
<path d="M18 16.5449L18.8433 15.7016C19.2338 15.3111 19.867 15.3111 20.2575 15.7016C20.648 16.0921 20.648 16.7253 20.2575 17.1158L19.1968 18.1765L20.2575 19.2371C20.648 19.6277 20.648 20.2608 20.2575 20.6514C19.867 21.0419 19.2338 21.0419 18.8433 20.6514L18 19.8081V16.5449Z" fill="#0F172B"/>
<path d="M16 15.4088C15.749 15.4125 15.4992 15.5101 15.3077 15.7016C14.9172 16.0921 14.9172 16.7253 15.3077 17.1158L16 17.8081V15.4088Z" fill="#0F172B"/>
<path d="M16 18.5449V20.9441C15.749 20.9404 15.4992 20.8428 15.3077 20.6514C14.9172 20.2608 14.9172 19.6277 15.3077 19.2371L16 18.5449Z" fill="#0F172B"/>
<path d="M6 10.5237L3.72925 11.1623C3.29797 11.2836 3 11.677 3 12.125V20C3 20.5523 3.44772 21 4 21H6V10.5237Z" fill="#0F172B"/>
</svg>
