<svg width="24" height="24" viewBox="0 0 24 24" fill="none" xmlns="http://www.w3.org/2000/svg">
<path d="M12 12C11.4477 12 11 12.4477 11 13C11 13.5523 11.4477 14 12 14C12.5523 14 13 13.5523 13 13C13 12.4477 12.5523 12 12 12Z" fill="#0F172B"/>
<path fill-rule="evenodd" clip-rule="evenodd" d="M6.65111 11.6306L12 5.04736L17.3489 11.6306C17.5388 11.8643 17.8239 12 18.125 12H21L21 19C21 19.5523 20.5523 20 20 20H4C3.44772 20 3 19.5523 3 19L3 12H5.87499C6.17612 12 6.46122 11.8643 6.65111 11.6306ZM8.99999 13C8.99999 11.3432 10.3431 10 12 10C13.6568 10 15 11.3432 15 13C15 14.6569 13.6568 16 12 16C10.3431 16 8.99999 14.6569 8.99999 13Z" fill="#0F172B"/>
<path d="M2.5 10L5.2 6.40001C5.38885 6.14821 5.68524 6.00001 6 6.00001H8.64902L5.39902 10H2.5Z" fill="#0F172B"/>
<path d="M15.351 6.00001L18.601 10H21.5L18.8 6.40001C18.6112 6.14821 18.3148 6.00001 18 6.00001H15.351Z" fill="#0F172B"/>
</svg>
