<svg width="24" height="24" viewBox="0 0 24 24" fill="none" xmlns="http://www.w3.org/2000/svg">
<path fill-rule="evenodd" clip-rule="evenodd" d="M11.4453 3.16795C11.7812 2.94402 12.2188 2.94402 12.5547 3.16795L18.5547 7.16795C19.0142 7.4743 19.1384 8.09517 18.832 8.5547C18.6395 8.84347 18.3228 8.99981 18 9.00011C17.8252 9.00027 17.6485 8.95465 17.4888 8.85951C17.4742 8.85078 17.4596 8.84162 17.4453 8.83205L16 7.86853V16.4645L15.7678 16.2322C14.7915 15.2559 13.2085 15.2559 12.2322 16.2322C11.2559 17.2085 11.2559 18.7915 12.2322 19.7678L13.4645 21H8V7.86853L6.55468 8.83205C6.09516 9.1384 5.47429 9.01423 5.16793 8.5547C4.86158 8.09517 4.98576 7.4743 5.44528 7.16795L11.4453 3.16795ZM11 11C10.4477 11 10 11.4477 10 12C10 12.5523 10.4477 13 11 13H13C13.5523 13 14 12.5523 14 12C14 11.4477 13.5523 11 13 11H11ZM10 9C10 8.44772 10.4477 8 11 8H13C13.5523 8 14 8.44772 14 9C14 9.55228 13.5523 10 13 10H11C10.4477 10 10 9.55228 10 9Z" fill="#0F172B"/>
<path d="M21 13.708V12.125C21 11.677 20.702 11.2836 20.2707 11.1623L18 10.5237V14.4645L18.2322 14.2322C18.9806 13.4839 20.0852 13.3092 21 13.708Z" fill="#0F172B"/>
<path d="M6 10.5237L3.72925 11.1623C3.29797 11.2836 3 11.677 3 12.125V20C3 20.5523 3.44772 21 4 21H6V10.5237Z" fill="#0F172B"/>
<path fill-rule="evenodd" clip-rule="evenodd" d="M20.7071 15.2929C21.0976 15.6834 21.0976 16.3166 20.7071 16.7071L16.7071 20.7071C16.3166 21.0976 15.6834 21.0976 15.2929 20.7071L13.2929 18.7071C12.9024 18.3166 12.9024 17.6834 13.2929 17.2929C13.6834 16.9024 14.3166 16.9024 14.7071 17.2929L16 18.5858L19.2929 15.2929C19.6834 14.9024 20.3166 14.9024 20.7071 15.2929Z" fill="#0F172B"/>
</svg>
