<svg width="24" height="24" viewBox="0 0 24 24" fill="none" xmlns="http://www.w3.org/2000/svg">
<path fill-rule="evenodd" clip-rule="evenodd" d="M5.07473 5.36519C5.02074 5.62714 4.97272 5.9465 4.94924 6.2986C4.88369 7.2817 5.01783 8.37473 5.57841 9.21662C6.13295 10.0494 7.15991 10.6267 8.1835 10.9983C8.53456 11.1257 8.866 11.222 9.14727 11.2931C9.20125 11.065 9.25272 10.8 9.28818 10.5125C9.40454 9.56931 9.33166 8.53138 8.79038 7.71848C8.21543 6.85503 7.1662 6.18834 6.137 5.74665C5.74328 5.57768 5.37534 5.45147 5.07473 5.36519ZM10.9368 12.3334C10.9481 12.2963 10.9597 12.2574 10.9715 12.2168C11.0769 11.8549 11.2005 11.3464 11.2731 10.7574C11.4152 9.60602 11.3799 7.99892 10.4551 6.61001C9.56394 5.27165 8.09519 4.41063 6.92575 3.90875C6.32654 3.65159 5.76558 3.47149 5.32907 3.36299C5.11299 3.30928 4.9109 3.26899 4.74001 3.24773C4.65742 3.23746 4.55738 3.22843 4.45508 3.23013C4.40468 3.23096 4.32989 3.23465 4.24449 3.25037C4.18051 3.26214 4.00041 3.29876 3.817 3.42969C3.68095 3.52682 3.59919 3.6357 3.56706 3.68026C3.52596 3.73728 3.49508 3.79079 3.47376 3.83047C3.43082 3.91042 3.39528 3.99338 3.36663 4.06705C3.30795 4.21794 3.25052 4.40182 3.19818 4.60509C3.09283 5.01424 2.99433 5.55571 2.95367 6.16555C2.8739 7.36194 3.00817 8.96517 3.91369 10.3251C4.82525 11.6941 6.34476 12.4585 7.50112 12.8782C8.09725 13.0946 8.64057 13.2349 9.03528 13.3214C9.09357 13.3342 9.1488 13.3459 9.20066 13.3564C9.32457 13.5571 9.45928 13.7559 9.59737 13.9596C10.2431 14.9123 10.9628 15.9742 10.9986 17.8528C10.9571 18.3798 10.9727 18.8953 10.9869 19.3666C10.9936 19.5886 11 19.8009 11 20C11 20.5523 11.4477 21 12 21C12.5523 21 13 20.5523 13 20V18C13 17.9656 12.9998 17.9313 12.9994 17.8971C13.0152 17.7491 13.0388 17.6006 13.0733 17.4461C13.2117 16.8266 13.5495 16.0936 14.4805 15.0949C14.5136 15.0951 14.5482 15.0951 14.5842 15.0949C14.9325 15.0932 15.4158 15.0729 15.9578 14.998C17.0039 14.8534 18.4418 14.4824 19.4775 13.4731C20.4604 12.5151 20.8294 11.2457 20.9475 10.2629C21.0077 9.76182 21.0073 9.30051 20.9766 8.93375C20.9613 8.75111 20.9375 8.5794 20.9054 8.42977C20.8847 8.3332 20.8307 8.08608 20.6854 7.87391C20.5187 7.6305 20.2952 7.52123 20.2085 7.48196C20.095 7.43061 19.9843 7.3996 19.8971 7.37964C19.7196 7.33904 19.5218 7.31813 19.3264 7.3093C18.9291 7.29134 18.4312 7.31867 17.8968 7.40799C16.848 7.5833 15.5003 8.02486 14.4924 9.00715C13.4396 10.0332 13.1183 11.4049 13.0301 12.4027C12.9849 12.9149 12.9974 13.3678 13.021 13.6932C13.0218 13.7039 13.0226 13.7145 13.0234 13.7249C12.7403 14.0282 12.4934 14.3217 12.2787 14.6081C11.8766 13.6909 11.3923 12.9918 11.0646 12.5189C11.0187 12.4526 10.9759 12.3908 10.9368 12.3334ZM14.9998 13.0821C15.2063 13.0709 15.4384 13.0508 15.6839 13.0169C16.5902 12.8916 17.5072 12.6005 18.0816 12.0407C18.6112 11.5246 18.8726 10.7663 18.9618 10.0243C18.9937 9.75811 19.0012 9.51142 18.995 9.30515C18.7795 9.31006 18.5162 9.3322 18.2265 9.38062C17.3878 9.52082 16.4904 9.85268 15.8883 10.4395C15.331 10.9825 15.0921 11.7897 15.0224 12.5786C15.0066 12.7569 15.0003 12.9267 14.9998 13.0821ZM18.9398 8.81017C18.94 8.80968 18.9421 8.81577 18.9455 8.82987C18.9414 8.81769 18.9397 8.81066 18.9398 8.81017Z" fill="#383838"/>
</svg>
