<svg width="24" height="24" viewBox="0 0 24 24" fill="none" xmlns="http://www.w3.org/2000/svg">
<path d="M12.8638 3.49613C12.6846 3.18891 12.3557 3 12 3C11.6443 3 11.3154 3.18891 11.1362 3.49613L7.63622 9.49613C7.4558 9.80542 7.45452 10.1876 7.63286 10.4981C7.8112 10.8086 8.14193 11 8.5 11H15.5C15.8581 11 16.1888 10.8086 16.3671 10.4981C16.5455 10.1876 16.5442 9.80542 16.3638 9.49613L12.8638 3.49613Z" fill="#0F172B"/>
<path d="M4 13C3.44772 13 3 13.4477 3 14V20C3 20.5523 3.44772 21 4 21H10C10.5523 21 11 20.5523 11 20V14C11 13.4477 10.5523 13 10 13H4Z" fill="#0F172B"/>
<path d="M16.5 12C14.0147 12 12 14.0147 12 16.5C12 18.9853 14.0147 21 16.5 21C18.9853 21 21 18.9853 21 16.5C21 14.0147 18.9853 12 16.5 12Z" fill="#0F172B"/>
</svg>
