<svg width="24" height="24" viewBox="0 0 24 24" fill="none" xmlns="http://www.w3.org/2000/svg">
<path d="M17.5 3C15.567 3 14 4.567 14 6.5C14 6.6903 14.0152 6.87706 14.0444 7.05912L8.1428 9.70523C7.5011 8.96684 6.55507 8.5 5.5 8.5C3.567 8.5 2 10.067 2 12C2 13.933 3.567 15.5 5.5 15.5C6.54971 15.5 7.49149 15.0379 8.133 14.306L14.0421 16.9555C14.0144 17.1329 14 17.3148 14 17.5C14 19.433 15.567 21 17.5 21C19.433 21 21 19.433 21 17.5C21 15.567 19.433 14 17.5 14C16.4711 14 15.5459 14.444 14.9055 15.1508L8.96628 12.4878C8.98851 12.3284 9 12.1655 9 12C9 11.8396 8.9892 11.6816 8.9683 11.5269L14.9156 8.86033C15.5556 9.56068 16.4765 10 17.5 10C19.433 10 21 8.433 21 6.5C21 4.567 19.433 3 17.5 3Z" fill="#111928"/>
</svg>
