<svg width="24" height="24" viewBox="0 0 24 24" fill="none" xmlns="http://www.w3.org/2000/svg">
<path d="M6 5C5.44772 5 5 5.44772 5 6C5 6.55196 5.44718 6.99947 5.99901 7H9V14.4941L8.60758 14.7943C8.16893 15.1298 7.5413 15.0462 7.20574 14.6076C6.92496 14.2405 6.93765 13.7412 7.20628 13.3913C5.37736 13.0231 4 11.4074 4 9.47006V8.23611C3.38625 7.68679 3 6.8885 3 6C3 4.34315 4.34315 3 6 3H10C10.5523 3 11 3.44772 11 4C11 4.55228 10.5523 5 10 5H6Z" fill="#383838"/>
<path d="M11 13.4701H11.9787L14.971 6.44037C14.0907 6.09956 13.2815 5.92783 12.4752 5.97494C11.9556 6.00529 11.4705 6.12452 11 6.31178V13.4701Z" fill="#383838"/>
<path d="M16.9737 6.84201L14.3524 13H21.3241C21.8717 9.92746 19.8441 7.35709 16.9737 6.84201Z" fill="#383838"/>
<path d="M20.9003 15H14.7618C14.7438 15.0823 14.7172 15.1646 14.6813 15.2459C14.6724 15.2662 14.663 15.2861 14.6531 15.3056L17.0414 20.7989C18.9316 20.3023 20.6174 18.897 20.8272 16.7069C20.8766 16.1918 20.9011 15.6319 20.9003 15Z" fill="#383838"/>
<path d="M14.948 21L12.7741 16H11C9.34315 16 8 17.3431 8 19V21H14.948Z" fill="#383838"/>
</svg>
