<svg width="24" height="24" viewBox="0 0 24 24" fill="none" xmlns="http://www.w3.org/2000/svg">
<path d="M12 3.39162L12 18.2244M8.47634 8.37956L3.92288 8.74C3.0349 8.81029 2.67484 9.90446 3.35139 10.4767L6.82064 13.4109C7.10586 13.6522 7.23041 14.0307 7.14328 14.3914L6.08336 18.7786C5.87667 19.6342 6.81933 20.3104 7.57957 19.852L11.478 17.5009C11.7985 17.3076 12.2015 17.3076 12.522 17.5009L16.4204 19.852C17.1807 20.3104 18.1233 19.6342 17.9166 18.7786L16.8567 14.3914C16.7696 14.0307 16.8941 13.6522 17.1794 13.4109L20.6486 10.4767C21.3252 9.90446 20.9651 8.81029 20.0771 8.74L15.5237 8.37956C15.1493 8.34993 14.8232 8.11599 14.679 7.77362L12.9247 3.6091C12.5826 2.79697 11.4174 2.79697 11.0753 3.6091L9.32102 7.77362C9.17679 8.11599 8.85069 8.34993 8.47634 8.37956Z" stroke="#111928" stroke-width="2"/>
</svg>
