<svg width="24" height="24" viewBox="0 0 24 24" fill="none" xmlns="http://www.w3.org/2000/svg">
<path d="M11.0834 4.10395C11.4323 3.30322 12.568 3.30322 12.9169 4.10395L14.6693 8.12569C14.8172 8.46513 15.1406 8.69506 15.5098 8.72331L19.9719 9.06478C20.8716 9.13363 21.2272 10.2648 20.5286 10.836L17.1988 13.5587C16.8991 13.8038 16.7678 14.1997 16.8617 14.5753L17.8909 18.6938C18.1054 19.5522 17.1814 20.2458 16.417 19.8002L12.5039 17.5187C12.1926 17.3372 11.8078 17.3372 11.4965 17.5187L7.58338 19.8002C6.819 20.2458 5.89502 19.5522 6.10953 18.6938L7.13873 14.5753C7.23258 14.1997 7.10125 13.8038 6.80156 13.5587L3.47175 10.836C2.77321 10.2648 3.12875 9.13363 4.02845 9.06478L8.49061 8.72331C8.85979 8.69506 9.18315 8.46513 9.33106 8.12569L11.0834 4.10395Z" stroke="#111928" stroke-width="2"/>
</svg>
