<svg width="24" height="24" viewBox="0 0 24 24" fill="none" xmlns="http://www.w3.org/2000/svg">
<path d="M10.9999 2.04938C10.3103 2.11785 9.64118 2.2564 8.99994 2.4578V7H10.9999V2.04938Z" fill="#383838"/>
<path d="M6.99994 3.33782C5.4818 4.21602 4.21596 5.48186 3.33776 7H6.99994V3.33782Z" fill="#383838"/>
<path d="M2.45774 9C2.25634 9.64124 2.11779 10.3103 2.04932 11H6.99994V9H2.45774Z" fill="#383838"/>
<path d="M2.04932 13C2.11779 13.6897 2.25634 14.3588 2.45774 15H6.99994V13H2.04932Z" fill="#383838"/>
<path d="M3.33776 17C4.21596 18.5181 5.4818 19.784 6.99994 20.6622V17H3.33776Z" fill="#383838"/>
<path d="M8.99994 21.5422C9.64118 21.7436 10.3103 21.8822 10.9999 21.9506V17H8.99994V21.5422Z" fill="#383838"/>
<path d="M12.9999 21.9506C13.6896 21.8822 14.3587 21.7436 14.9999 21.5422V17H12.9999V21.9506Z" fill="#383838"/>
<path d="M16.9999 20.6622C18.5181 19.784 19.7839 18.5181 20.6621 17H16.9999V20.6622Z" fill="#383838"/>
<path d="M21.5421 15C21.7435 14.3588 21.8821 13.6897 21.9506 13H16.9999V15H21.5421Z" fill="#383838"/>
<path d="M21.9506 11C21.8821 10.3103 21.7435 9.64124 21.5421 9H16.9999V11H21.9506Z" fill="#383838"/>
<path d="M20.6621 7C19.7839 5.48186 18.5181 4.21602 16.9999 3.33782V7H20.6621Z" fill="#383838"/>
<path d="M14.9999 2.4578C14.3587 2.2564 13.6896 2.11785 12.9999 2.04938V7H14.9999V2.4578Z" fill="#383838"/>
<path d="M8.99994 9H10.9999V11H8.99994V9Z" fill="#383838"/>
<path d="M8.99994 13H10.9999V15H8.99994V13Z" fill="#383838"/>
<path d="M12.9999 13V15H14.9999V13H12.9999Z" fill="#383838"/>
<path d="M12.9999 11H14.9999V9H12.9999V11Z" fill="#383838"/>
</svg>
