<svg width="24" height="24" viewBox="0 0 24 24" fill="none" xmlns="http://www.w3.org/2000/svg">
<path fill-rule="evenodd" clip-rule="evenodd" d="M13 3C13 2.44772 12.5523 2 12 2C11.4477 2 11 2.44772 11 3V5C11 5.55228 11.4477 6 12 6C12.5523 6 13 5.55228 13 5V3ZM6.34311 4.92889C5.95258 4.53837 5.31942 4.53837 4.92889 4.92889C4.53837 5.31942 4.53837 5.95258 4.92889 6.34311L6.34289 7.75711C6.73342 8.14763 7.36658 8.14763 7.75711 7.75711C8.14763 7.36658 8.14763 6.73342 7.75711 6.34289L6.34311 4.92889ZM19.0711 6.34311C19.4616 5.95258 19.4616 5.31942 19.0711 4.92889C18.6806 4.53837 18.0474 4.53837 17.6569 4.92889L16.2429 6.34289C15.8524 6.73342 15.8524 7.36658 16.2429 7.75711C16.6334 8.14763 17.2666 8.14763 17.6571 7.75711L19.0711 6.34311ZM12 7C9.23858 7 7 9.23858 7 12C7 14.7614 9.23858 17 12 17C14.7614 17 17 14.7614 17 12C17 9.23858 14.7614 7 12 7ZM3 11C2.44772 11 2 11.4477 2 12C2 12.5523 2.44772 13 3 13H5C5.55228 13 6 12.5523 6 12C6 11.4477 5.55228 11 5 11H3ZM19 11C18.4477 11 18 11.4477 18 12C18 12.5523 18.4477 13 19 13H21C21.5523 13 22 12.5523 22 12C22 11.4477 21.5523 11 21 11H19ZM7.75711 17.6571C8.14763 17.2666 8.14763 16.6334 7.75711 16.2429C7.36658 15.8524 6.73342 15.8524 6.34289 16.2429L4.92889 17.6569C4.53837 18.0474 4.53837 18.6806 4.92889 19.0711C5.31942 19.4616 5.95258 19.4616 6.34311 19.0711L7.75711 17.6571ZM17.6571 16.2429C17.2666 15.8524 16.6334 15.8524 16.2429 16.2429C15.8524 16.6334 15.8524 17.2666 16.2429 17.6571L17.6569 19.0711C18.0474 19.4616 18.6806 19.4616 19.0711 19.0711C19.4616 18.6806 19.4616 18.0474 19.0711 17.6569L17.6571 16.2429ZM13 19C13 18.4477 12.5523 18 12 18C11.4477 18 11 18.4477 11 19V21C11 21.5523 11.4477 22 12 22C12.5523 22 13 21.5523 13 21V19Z" fill="#383838"/>
</svg>
