<svg width="24" height="24" viewBox="0 0 24 24" fill="none" xmlns="http://www.w3.org/2000/svg">
<path d="M18.045 3.007L12.31 3C12.0495 2.99985 11.7916 3.05149 11.5513 3.15192C11.3109 3.25235 11.093 3.39956 10.91 3.585L3.58003 10.979C3.21207 11.3531 3.00586 11.8568 3.00586 12.3815C3.00586 12.9062 3.21207 13.4099 3.58003 13.784L10.153 20.415C10.3357 20.6008 10.5537 20.7482 10.7941 20.8486C11.0345 20.9491 11.2925 21.0005 11.553 21C11.8135 21.0002 12.0715 20.9486 12.3118 20.8482C12.5522 20.7477 12.7701 20.6005 12.953 20.415L20.362 12.938C20.5626 12.7515 20.7227 12.5257 20.8325 12.2747C20.9422 12.0238 20.9993 11.7529 21 11.479V5.979C21 5.19371 20.6893 4.44034 20.1356 3.88347C19.5819 3.32659 18.8303 3.01149 18.045 3.007ZM15.593 9.445C15.3952 9.445 15.2019 9.38635 15.0375 9.27647C14.873 9.16659 14.7448 9.01041 14.6691 8.82768C14.5935 8.64496 14.5737 8.44389 14.6122 8.24991C14.6508 8.05593 14.7461 7.87775 14.8859 7.73789C15.0258 7.59804 15.204 7.5028 15.3979 7.46422C15.5919 7.42563 15.793 7.44543 15.9757 7.52112C16.1584 7.59681 16.3146 7.72498 16.4245 7.88943C16.5344 8.05388 16.593 8.24722 16.593 8.445C16.593 8.71022 16.4877 8.96457 16.3001 9.15211C16.1126 9.33964 15.8582 9.445 15.593 9.445Z" fill="#111928"/>
</svg>
