<svg width="24" height="24" viewBox="0 0 24 24" fill="none" xmlns="http://www.w3.org/2000/svg">
<path d="M15.5828 8.44483H15.5928M10.8597 19.711L4.28674 13.08C4.10183 12.894 3.99805 12.6423 3.99805 12.38C3.99805 12.1177 4.10183 11.866 4.28674 11.68L11.6157 4.286C11.7069 4.19502 11.8152 4.12293 11.9342 4.07385C12.0533 4.02477 12.1809 3.99968 12.3097 4L18.0437 4.007C18.565 4.01018 19.0637 4.22002 19.4304 4.59048C19.7971 4.96093 20.0019 5.46175 19.9997 5.983V11.483C19.9998 11.6194 19.9717 11.7543 19.9173 11.8794C19.863 12.0044 19.7835 12.117 19.6837 12.21L12.2447 19.71C12.1542 19.8015 12.0463 19.8742 11.9275 19.9238C11.8087 19.9735 11.6812 19.9991 11.5524 19.9992C11.4237 19.9993 11.2962 19.9738 11.1773 19.9244C11.0584 19.8749 10.9505 19.8024 10.8597 19.711Z" stroke="#111928" stroke-width="2" stroke-linecap="round" stroke-linejoin="round"/>
</svg>
