<svg width="24" height="24" viewBox="0 0 24 24" fill="none" xmlns="http://www.w3.org/2000/svg">
<path d="M11.782 5.71998C10.6089 5.70405 9.47103 6.12073 8.58564 6.89046C7.70025 7.6602 7.12937 8.72906 6.982 9.89298C7.26603 9.40902 7.66445 9.00214 8.14234 8.70802C8.62023 8.41389 9.16298 8.24151 9.723 8.20598C11.412 8.20598 12.697 10.178 13.481 10.793C14.2295 11.3843 15.1137 11.7794 16.0535 11.9427C16.9933 12.106 17.9589 12.0322 18.863 11.728C20.863 11.09 21.797 8.86298 22 7.80698C21.031 9.18598 19.56 10.014 17.741 9.03798C16.488 8.36498 15.551 5.59998 11.782 5.71998Z" fill="#111928"/>
<path d="M6.8 11.979C5.627 11.9628 4.48913 12.3793 3.60372 13.1488C2.71831 13.9184 2.14739 14.9872 2 16.151C2.28447 15.6665 2.68354 15.2594 3.16216 14.9652C3.64078 14.6711 4.18431 14.499 4.745 14.464C6.434 14.464 7.719 16.436 8.503 17.051C9.25149 17.6423 10.1357 18.0374 11.0755 18.2007C12.0153 18.364 12.9809 18.2902 13.885 17.986C15.885 17.348 16.818 15.121 17.022 14.065C16.052 15.444 14.582 16.273 12.763 15.296C11.51 14.623 10.573 11.853 6.8 11.979Z" fill="#111928"/>
</svg>
