<svg width="24" height="24" viewBox="0 0 24 24" fill="none" xmlns="http://www.w3.org/2000/svg">
<path fill-rule="evenodd" clip-rule="evenodd" d="M3 4C2.44772 4 2 4.44772 2 5V19C2 19.5523 2.44772 20 3 20H21C21.5523 20 22 19.5523 22 19V5C22 4.44772 21.5523 4 21 4H3ZM7.29289 9.70711C6.90237 9.31658 6.90237 8.68342 7.29289 8.29289C7.68342 7.90237 8.31658 7.90237 8.70711 8.29289L11.7071 11.2929C12.0976 11.6834 12.0976 12.3166 11.7071 12.7071L8.70711 15.7071C8.31658 16.0976 7.68342 16.0976 7.29289 15.7071C6.90237 15.3166 6.90237 14.6834 7.29289 14.2929L9.58579 12L7.29289 9.70711ZM13 14C12.4477 14 12 14.4477 12 15C12 15.5523 12.4477 16 13 16H16C16.5523 16 17 15.5523 17 15C17 14.4477 16.5523 14 16 14H13Z" fill="#111928"/>
</svg>
