<svg width="24" height="24" viewBox="0 0 24 24" fill="none" xmlns="http://www.w3.org/2000/svg">
<path fill-rule="evenodd" clip-rule="evenodd" d="M13.1774 4.00005H7C6.57119 4.00005 6.20542 4.26995 6.0633 4.64914L5.70711 4.29294C5.31658 3.90242 4.68342 3.90242 4.29289 4.29294C3.90237 4.68346 3.90237 5.31663 4.29289 5.70715L18.2929 19.7072C18.6834 20.0977 19.3166 20.0977 19.7071 19.7072C20.0976 19.3166 20.0976 18.6835 19.7071 18.2929L12.6333 11.2192L13.9754 6.00005H18V6.20005C18 6.75233 18.4477 7.20005 19 7.20005C19.5523 7.20005 20 6.75233 20 6.20005V5.00005C20 4.44776 19.5523 4.00005 19 4.00005H13.2212C13.2066 3.99972 13.192 3.99973 13.1774 4.00005ZM10.9907 9.57651L11.9103 6.00005H8V6.20005C8 6.3157 7.98037 6.42676 7.94426 6.53009L10.9907 9.57651ZM10.8776 14.0316C11.4125 14.1691 11.7346 14.7142 11.5971 15.2491L10.8897 18H13C13.5523 18 14 18.4478 14 19C14 19.5523 13.5523 20 13 20H9.62259C9.60805 20.0004 9.59346 20.0004 9.57884 20H7C6.44772 20 6 19.5523 6 19C6 18.4478 6.44772 18 7 18H8.82462L9.66009 14.751C9.79763 14.2161 10.3427 13.894 10.8776 14.0316Z" fill="#111928"/>
</svg>
