<svg width="24" height="24" viewBox="0 0 24 24" fill="none" xmlns="http://www.w3.org/2000/svg">
<path fill-rule="evenodd" clip-rule="evenodd" d="M12 7.54323L10.6407 11H13.3593L12 7.54323ZM15.7494 11.6129L13.0328 4.70441C12.6634 3.76522 11.3365 3.76524 10.9672 4.70441L8.281 11.5356C8.24767 11.5991 8.22096 11.6665 8.20178 11.7371L6.91869 15H6.5C5.94772 15 5.5 15.4477 5.5 16C5.5 16.5523 5.94772 17 6.5 17H9.25C9.80228 17 10.25 16.5523 10.25 16C10.25 15.4477 9.80228 15 9.25 15H9.06777L9.85423 13H14.1458L14.9322 15H14.75C14.1977 15 13.75 15.4477 13.75 16C13.75 16.5523 14.1977 17 14.75 17H17.5C18.0523 17 18.5 16.5523 18.5 16C18.5 15.4477 18.0523 15 17.5 15H17.0813L15.7662 11.6558C15.7609 11.6413 15.7553 11.627 15.7494 11.6129ZM4 19C4 18.4477 4.44772 18 5 18H19C19.5523 18 20 18.4477 20 19C20 19.5523 19.5523 20 19 20H5C4.44772 20 4 19.5523 4 19Z" fill="#111928"/>
</svg>
