<svg width="24" height="24" viewBox="0 0 24 24" fill="none" xmlns="http://www.w3.org/2000/svg">
<path fill-rule="evenodd" clip-rule="evenodd" d="M7.49994 6.49476C7.49773 6.49543 7.49552 6.4961 7.4933 6.49678C6.12366 6.91293 4.92141 7.72219 4.08775 8.39013C3.66457 8.7292 3.32161 9.04385 3.08292 9.2753C2.96332 9.39126 2.86923 9.48699 2.80362 9.55529C2.77079 9.58946 2.74505 9.61682 2.72675 9.63647L2.70491 9.66008L2.69826 9.66736L2.69601 9.66983L2.69449 9.6715C2.45883 9.93199 2.37713 10.297 2.47924 10.6331L4.36891 16.8524C4.65013 17.7779 5.27622 18.4852 5.96425 19.0114C6.65351 19.5386 7.46086 19.928 8.21753 20.2094C8.97864 20.4926 9.72567 20.6802 10.3209 20.7885C10.6183 20.8425 10.8893 20.8789 11.1143 20.8962C11.2261 20.9047 11.3381 20.9095 11.4429 20.9075C11.5244 20.9059 11.6863 20.8999 11.8541 20.8489C12.0218 20.7979 12.1597 20.7128 12.2283 20.6689C12.3165 20.6123 12.407 20.5459 12.4951 20.4766C12.6724 20.3371 12.8774 20.1561 13.0945 19.9457C13.0185 19.9088 12.9419 19.8702 12.8648 19.8305C12.2579 19.5185 11.5215 19.0759 10.7973 18.5241C10.3074 18.1508 9.78656 17.6999 9.30736 17.1749C9.02074 17.6216 8.43058 17.7684 7.96612 17.5002C7.48782 17.2241 7.32395 16.6125 7.60009 16.1342C7.61915 16.1012 7.63882 16.0667 7.65924 16.0308C7.76759 15.8406 7.89698 15.6135 8.06721 15.381C7.73448 14.6941 7.49994 13.8935 7.49994 13V6.5L7.49994 6.49476ZM5.72188 11.0461C5.19345 11.2067 4.89523 11.7652 5.05579 12.2937C5.21635 12.8221 5.77489 13.1203 6.30332 12.9598L6.31289 12.9568C6.84132 12.7963 7.13954 12.2377 6.97898 11.7093C6.81842 11.1809 6.25988 10.8827 5.73145 11.0432L5.72188 11.0461Z" fill="#0F172B"/>
<path fill-rule="evenodd" clip-rule="evenodd" d="M14.9999 4C13.5685 4 12.1829 4.42479 11.191 4.82152C10.6876 5.02292 10.2679 5.22428 9.97228 5.37634C9.82414 5.45252 9.70627 5.51677 9.62364 5.56304C9.5823 5.58619 9.54971 5.60488 9.52649 5.61837L9.49873 5.63461L9.49025 5.63963L9.48739 5.64134L9.48544 5.64251C9.18424 5.82323 8.99994 6.14874 8.99994 6.5V13C8.99994 13.9673 9.39335 14.8261 9.89869 15.5296C10.4049 16.2344 11.0642 16.8416 11.7064 17.3309C12.3523 17.8231 13.0125 18.2198 13.5506 18.4964C13.8194 18.6346 14.0681 18.7482 14.2784 18.8302C14.3828 18.8709 14.4887 18.908 14.5895 18.9365C14.6679 18.9587 14.8246 19 14.9999 19C15.1753 19 15.332 18.9587 15.4103 18.9365C15.5112 18.908 15.617 18.8709 15.7215 18.8302C15.9317 18.7482 16.1805 18.6346 16.4493 18.4964C16.9874 18.2198 17.6476 17.8231 18.2935 17.3309C18.9357 16.8416 19.5949 16.2344 20.1012 15.5296C20.6065 14.8261 20.9999 13.9673 20.9999 13V6.5C20.9999 6.14874 20.8148 5.82272 20.5136 5.64199L20.5125 5.64134L20.5096 5.63963L20.5011 5.63461L20.4734 5.61837C20.4502 5.60488 20.4176 5.58619 20.3762 5.56304C20.2936 5.51677 20.1757 5.45252 20.0276 5.37634C19.7319 5.22428 19.3123 5.02292 18.8088 4.82152C17.817 4.42479 16.4314 4 14.9999 4ZM19.9999 6.5L20.5136 5.64199C20.5136 5.64199 20.5144 5.64251 19.9999 6.5ZM12.9999 7C12.4477 7 11.9999 7.44772 11.9999 8C11.9999 8.55228 12.4477 9 12.9999 9H13.0099C13.5622 9 14.0099 8.55228 14.0099 8C14.0099 7.44772 13.5622 7 13.0099 7H12.9999ZM16.9999 7C16.4477 7 15.9999 7.44772 15.9999 8C15.9999 8.55228 16.4477 9 16.9999 9H17.0099C17.5622 9 18.0099 8.55228 18.0099 8C18.0099 7.44772 17.5622 7 17.0099 7H16.9999ZM12.2928 11.2929C11.9023 11.6834 11.9023 12.3166 12.2928 12.7071C12.3198 12.7341 12.3477 12.7623 12.3767 12.7916C12.8542 13.2747 13.6196 14.049 14.9999 14.049C16.3802 14.049 17.1456 13.2747 17.6232 12.7917C17.6522 12.7623 17.6801 12.7341 17.707 12.7071C18.0976 12.3166 18.0976 11.6834 17.707 11.2929C17.3165 10.9024 16.6834 10.9024 16.2928 11.2929C15.7636 11.8222 15.5358 12.049 14.9999 12.049C14.4641 12.049 14.2363 11.8222 13.707 11.2929C13.3165 10.9024 12.6834 10.9024 12.2928 11.2929Z" fill="#0F172B"/>
</svg>
