<svg width="24" height="24" viewBox="0 0 24 24" fill="none" xmlns="http://www.w3.org/2000/svg">
<path d="M11.9999 20V16M6.99988 4H16.9999M8.99988 5V10C8.99988 10.5523 8.53048 11.0045 8.05127 11.279C6.61694 12.1007 5.44992 14.524 5.79492 15.6443C5.87297 15.8978 6.14888 16 6.41409 16H17.5857C17.8509 16 18.1268 15.8978 18.2048 15.6443C18.5498 14.5239 17.3828 12.1007 15.9485 11.279C15.4693 11.0045 14.9999 10.5523 14.9999 10V5C14.9999 4.44772 14.5522 4 13.9999 4H9.99988C9.44759 4 8.99988 4.44772 8.99988 5Z" stroke="#111928" stroke-width="2" stroke-linecap="round"/>
</svg>
