<svg width="24" height="24" viewBox="0 0 24 24" fill="none" xmlns="http://www.w3.org/2000/svg">
<path fill-rule="evenodd" clip-rule="evenodd" d="M15.0306 9.68379H18.9947C19.3169 9.68376 19.6345 9.76343 19.9203 9.91605C20.2062 10.0687 20.4521 10.2898 20.637 10.5606C20.8219 10.8314 20.9405 11.144 20.9827 11.4718C21.0249 11.7997 20.9895 12.1331 20.8795 12.4439L18.5195 19.6451C18.2307 20.4589 18.0382 21 16.6347 21C14.5633 21 12.3594 20.3225 10.4785 19.7442C10.0061 19.599 9.55403 19.46 9.12958 19.3396H9.01529V9.47805C10.6683 7.84873 12.0943 5.99321 13.2531 3.96397C13.4498 3.58787 13.7686 3.29423 14.1541 3.1339C14.5397 2.97358 14.9677 2.95668 15.3641 3.08612C15.7605 3.21557 16.1004 3.4832 16.3247 3.84268C16.549 4.20215 16.6438 4.63082 16.5926 5.05444L15.0306 9.68379ZM4.17647 10H7V18C7 19.1046 6.10457 20 5 20C3.89543 20 3 19.1046 3 18V11.1765C3 10.5267 3.52672 10 4.17647 10Z" fill="#383838"/>
</svg>
