<svg width="24" height="24" viewBox="0 0 24 24" fill="none" xmlns="http://www.w3.org/2000/svg">
<path d="M7.99988 5V9.99708C7.99793 10.0061 7.98655 10.043 7.93166 10.11C7.85145 10.2079 7.7193 10.3167 7.55418 10.4113C6.60659 10.9542 5.84137 11.9507 5.36295 12.8994C5.11733 13.3865 4.92573 13.9025 4.82148 14.4001C4.72089 14.8801 4.68298 15.4313 4.83921 15.9386C5.11871 16.8463 6.01882 17 6.41409 17H10.9999V20C10.9999 20.5523 11.4476 21 11.9999 21C12.5522 21 12.9999 20.5523 12.9999 20V17H17.5857C17.9809 17 18.8811 16.8463 19.1606 15.9386C19.3168 15.4312 19.2789 14.8801 19.1783 14.4C19.074 13.9025 18.8824 13.3865 18.6368 12.8994C18.1584 11.9507 17.3932 10.9542 16.4456 10.4113C16.2805 10.3168 16.1483 10.208 16.0681 10.11C16.0132 10.043 16.0018 10.0061 15.9999 9.99708V5H16.9999C17.5522 5 17.9999 4.55228 17.9999 4C17.9999 3.44772 17.5522 3 16.9999 3H6.99988C6.44759 3 5.99988 3.44772 5.99988 4C5.99988 4.55228 6.44759 5 6.99988 5H7.99988Z" fill="#111928"/>
</svg>
