<svg width="24" height="24" viewBox="0 0 24 24" fill="none" xmlns="http://www.w3.org/2000/svg">
<path fill-rule="evenodd" clip-rule="evenodd" d="M9.1659 19.9863C9.11194 19.9953 9.05652 20 9 20H5C4.44772 20 4 19.5523 4 19C4 18.4477 4.44772 18 5 18H9C9.05652 18 9.11194 18.0047 9.1659 18.0137C9.57385 16.8414 10.6887 16 12 16C13.3113 16 14.4262 16.8414 14.8341 18.0137C14.8881 18.0047 14.9435 18 15 18L19 18C19.5523 18 20 18.4477 20 19C20 19.5523 19.5523 20 19 20L15 20C14.9435 20 14.8881 19.9953 14.8341 19.9863C14.4262 21.1586 13.3113 22 12 22C10.6887 22 9.57385 21.1586 9.1659 19.9863ZM11 19C11 18.4477 11.4477 18 12 18C12.5523 18 13 18.4477 13 19C13 19.5523 12.5523 20 12 20C11.4477 20 11 19.5523 11 19Z" fill="#111928"/>
<path d="M11.5 2.13117C11.8094 1.95253 12.1906 1.95253 12.5 2.13117L17.1011 4.78759C17.0402 4.8065 16.9802 4.83154 16.922 4.86294L12.0797 7.47511L6.94638 4.76021L11.5 2.13117Z" fill="#111928"/>
<path d="M5.96698 6.50471V11.7147C5.96698 12.0719 6.15758 12.4021 6.46698 12.5807L11.0373 15.2194V9.18631L5.96698 6.50471Z" fill="#111928"/>
<path d="M13.0373 15.1763L17.533 12.5807C17.8424 12.4021 18.033 12.0719 18.033 11.7147V6.51479C17.9838 6.55533 17.9299 6.59172 17.8716 6.62316L13.0373 9.23097V15.1763Z" fill="#111928"/>
</svg>
