<svg width="24" height="24" viewBox="0 0 24 24" fill="none" xmlns="http://www.w3.org/2000/svg">
<path fill-rule="evenodd" clip-rule="evenodd" d="M2.58579 4.58579C2.96086 4.21071 3.46957 4 4 4H12C12.5304 4 13.0391 4.21071 13.4142 4.58579C13.7893 4.96086 14 5.46957 14 6H19C19.3788 6 19.725 6.214 19.8944 6.55279L21.8944 10.5528C21.9639 10.6916 22 10.8448 22 11V15C22 15.5523 21.5523 16 21 16H20.4646C20.4879 16.1633 20.5 16.3302 20.5 16.5C20.5 18.433 18.933 20 17 20C15.067 20 13.5 18.433 13.5 16.5C13.5 16.3302 13.5121 16.1633 13.5354 16H10.4646C10.4879 16.1633 10.5 16.3302 10.5 16.5C10.5 18.433 8.933 20 7 20C5.067 20 3.5 18.433 3.5 16.5C3.5 16.3302 3.51209 16.1633 3.53544 16H3C2.44772 16 2 15.5523 2 15V6C2 5.46957 2.21071 4.96086 2.58579 4.58579ZM18.208 15.6106C18.2026 15.6036 18.1973 15.5965 18.192 15.5894C17.9179 15.2311 17.486 15 17 15C16.5141 15 16.0821 15.2311 15.808 15.5894C15.8027 15.5965 15.7974 15.6036 15.792 15.6106C15.6085 15.8595 15.5 16.1671 15.5 16.5C15.5 17.3284 16.1716 18 17 18C17.8284 18 18.5 17.3284 18.5 16.5C18.5 16.1671 18.3915 15.8595 18.208 15.6106ZM8.208 15.6106C8.20259 15.6036 8.19727 15.5965 8.19204 15.5894C7.91793 15.2311 7.48595 15 7 15C6.51405 15 6.08207 15.2311 5.80796 15.5894C5.80273 15.5965 5.79741 15.6036 5.792 15.6106C5.60847 15.8595 5.5 16.1671 5.5 16.5C5.5 17.3284 6.17157 18 7 18C7.82843 18 8.5 17.3284 8.5 16.5C8.5 16.1671 8.39153 15.8595 8.208 15.6106ZM13.9981 7.99878L13.9981 10.0181H19.3935L18.3935 7.99878H13.9981ZM9 8.66669C9 8.1144 8.55228 7.66669 8 7.66669C7.44772 7.66669 7 8.1144 7 8.66669V10C7 10.2652 7.10536 10.5196 7.2929 10.7071L8.7929 12.2071C9.18342 12.5976 9.81659 12.5976 10.2071 12.2071C10.5976 11.8166 10.5976 11.1834 10.2071 10.7929L9 9.5858V8.66669Z" fill="#111928"/>
</svg>
