<svg width="24" height="24" viewBox="0 0 24 24" fill="none" xmlns="http://www.w3.org/2000/svg">
<path fill-rule="evenodd" clip-rule="evenodd" d="M17 10V11.126C17.367 11.2205 17.7136 11.3657 18.032 11.5538L18.8284 10.7574L20.2426 12.1716L19.4462 12.968C19.6343 13.2863 19.7795 13.633 19.874 14H21V16H19.874C19.7795 16.367 19.6343 16.7137 19.4462 17.032L20.2426 17.8284L18.8284 19.2427L18.032 18.4462C17.7136 18.6343 17.367 18.7795 17 18.874V20H15V18.874C14.633 18.7795 14.2863 18.6343 13.968 18.4462L13.1716 19.2426L11.7574 17.8284L12.5538 17.0319C12.3657 16.7137 12.2205 16.3671 12.126 16.0001H11V14.0001H12.126C12.2205 13.633 12.3657 13.2864 12.5538 12.968L11.7574 12.1716L13.1716 10.7574L13.968 11.5538C14.2863 11.3657 14.633 11.2205 15 11.126V10H17ZM17.4064 13.578L17.422 13.5936C17.7764 13.9519 17.9963 14.4434 18 14.9863V15.0137C17.9926 16.112 17.1 17 16 17C15.4506 17 14.953 16.7785 14.5915 16.4199L14.5801 16.4085C14.2215 16.047 14 15.5494 14 15C14 13.8954 14.8954 13 16 13C16.5483 13 17.0451 13.2206 17.4064 13.578Z" fill="#111928"/>
<path fill-rule="evenodd" clip-rule="evenodd" d="M5 8C5 5.79086 6.79086 4 9 4C11.2091 4 13 5.79086 13 8C13 8.23995 12.9789 8.47496 12.9384 8.70328C11.5315 9.3886 10.3886 10.5315 9.70328 11.9384C9.47496 11.9789 9.23995 12 9 12C6.79086 12 5 10.2091 5 8ZM9.28988 13H7C4.79086 13 3 14.7909 3 17V18C3 19.1046 3.89543 20 5 20H11.101C9.80447 18.7295 9 16.9587 9 15C9 14.305 9.10128 13.6337 9.28988 13Z" fill="#111928"/>
</svg>
