<svg width="24" height="24" viewBox="0 0 24 24" fill="none" xmlns="http://www.w3.org/2000/svg">
<path d="M12 21C16.9706 21 21 16.9706 21 12C21 7.02944 16.9706 3 12 3C7.02944 3 3 7.02944 3 12C3 16.9706 7.02944 21 12 21ZM12 21C13.7608 21.0019 15.483 20.4843 16.951 19.512C16.835 18.5451 16.3691 17.6541 15.6412 17.0071C14.9133 16.3601 13.9739 16.0019 13 16H11C10.0261 16.0019 9.08665 16.3601 8.35879 17.0071C7.63092 17.6541 7.16502 18.5451 7.049 19.512C8.51698 20.4843 10.2392 21.0019 12 21ZM15 10C15 11.6569 13.6569 13 12 13C10.3431 13 9 11.6569 9 10C9 8.34315 10.3431 7 12 7C13.6569 7 15 8.34315 15 10Z" stroke="#111928" stroke-width="2" stroke-linecap="round" stroke-linejoin="round"/>
</svg>
