<svg width="24" height="24" viewBox="0 0 24 24" fill="none" xmlns="http://www.w3.org/2000/svg">
<path d="M4 4C2.89543 4 2 4.89543 2 6V18C2 19.1046 2.89543 20 4 20H20C21.1046 20 22 19.1046 22 18V6C22 4.89543 21.1046 4 20 4H4Z" fill="#111928"/>
<path d="M15.6429 9.38194C15.2721 9.24682 14.8801 9.17901 14.4854 9.18172C13.2091 9.18172 12.3077 9.82467 12.3013 10.7476C12.2933 11.4257 12.9419 11.8078 13.4325 12.0343C13.9358 12.2672 14.1041 12.414 14.1025 12.6222C14.0993 12.9389 13.7005 13.0825 13.3296 13.0825C12.8198 13.0825 12.5414 13.0115 12.1131 12.8336L11.9543 12.7594L11.7732 13.822C12.0835 13.9512 12.6427 14.0621 13.2203 14.0717C14.5772 14.0717 15.4642 13.4327 15.4746 12.4507C15.4858 11.9091 15.1348 11.4999 14.3961 11.1616C13.947 10.9423 13.6686 10.7955 13.6686 10.5729C13.6686 10.3759 13.9071 10.1653 14.4057 10.1653C14.7375 10.1573 15.0672 10.2195 15.3733 10.348L15.4929 10.4014L15.674 9.37476L15.6429 9.38194ZM18.955 9.26787H17.9579C17.6475 9.26787 17.4138 9.35323 17.2782 9.66114L15.3605 14.0055H16.7174L16.9886 13.2931L18.6447 13.2947C18.6838 13.4614 18.8034 14.0055 18.8034 14.0055H20L18.955 9.26787ZM10.4658 9.22799H11.7589L10.95 13.968H9.65851L10.4658 9.22639V9.22799ZM7.18323 11.8405L7.31725 12.4986L8.58081 9.26787H9.95048L7.91553 13.9991H6.54905L5.43226 9.99299C5.41418 9.92693 5.3717 9.8702 5.31341 9.83424C4.91088 9.62631 4.48439 9.46852 4.04346 9.36439L4.06101 9.26468H6.14222C6.42461 9.27585 6.65196 9.36439 6.72774 9.66593L7.18243 11.8429L7.18323 11.8405ZM17.3596 12.3239L17.8749 10.9981C17.8685 11.0125 17.981 10.7245 18.0464 10.5466L18.1349 10.9558L18.4341 12.3231H17.3588L17.3596 12.3239Z" fill="white"/>
</svg>
