<svg width="24" height="24" viewBox="0 0 24 24" fill="none" xmlns="http://www.w3.org/2000/svg">
<path d="M15 6.03724C15 4.31329 13.0223 3.37152 11.7196 4.47517L7.63795 7.9333H6C4.89543 7.9333 4 8.84366 4 9.96665V14.0334C4 15.1563 4.89543 16.0667 6 16.0667H7.63795L11.7196 19.5248C13.0223 20.6285 15 19.6867 15 17.9628V6.03724Z" fill="#111928"/>
<path fill-rule="evenodd" clip-rule="evenodd" d="M16.7859 7.65801C17.1725 7.25705 17.8057 7.25065 18.2 7.64372C19.3097 8.74965 20 10.2938 20 12C20 13.6622 19.3448 15.1708 18.2848 16.2701C17.8982 16.671 17.2651 16.6774 16.8707 16.2844C16.4763 15.8913 16.47 15.2476 16.8566 14.8466C17.5649 14.1121 18 13.1087 18 12C18 10.8622 17.5417 9.835 16.8 9.09574C16.4056 8.70267 16.3993 8.05898 16.7859 7.65801Z" fill="#111928"/>
</svg>
