<svg width="24" height="24" viewBox="0 0 24 24" fill="none" xmlns="http://www.w3.org/2000/svg">
<path fill-rule="evenodd" clip-rule="evenodd" d="M12 14C12 12.3431 13.3431 11 15 11H19C20.1046 11 21 11.8954 21 13V15C21 16.1046 20.1046 17 19 17H15C13.3431 17 12 15.6569 12 14ZM15 13C14.4477 13 14 13.4477 14 14C14 14.5523 14.4477 15 15 15H19V13H15Z" fill="#111928"/>
<path fill-rule="evenodd" clip-rule="evenodd" d="M12.2929 3.29289C12.6834 2.90237 13.3166 2.90237 13.7071 3.29289L16.4142 6H13.5858L12.2929 4.70711C11.9024 4.31658 11.9024 3.68342 12.2929 3.29289ZM12.4142 6L9.70711 3.29289C9.31658 2.90237 8.68342 2.90237 8.29289 3.29289L5.58579 6H12.4142ZM4.58579 7L4.53033 7.05546C3.65237 7.26675 3 8.05719 3 9V19C3 20.1046 3.89543 21 5 21H17C18.1046 21 19 20.1046 19 19H15C12.2386 19 10 16.7614 10 14C10 11.2386 12.2386 9 15 9L19 9C19 8.05719 18.3476 7.26675 17.4697 7.05546L17.4142 7H4.58579Z" fill="#111928"/>
</svg>
