<svg width="24" height="24" viewBox="0 0 24 24" fill="none" xmlns="http://www.w3.org/2000/svg">
<path fill-rule="evenodd" clip-rule="evenodd" d="M8.5 2C8.07206 2 7.69155 2.2723 7.55348 2.67736C7.51905 2.77837 7.47533 2.90416 7.42466 3.04996C7.22946 3.61168 6.93106 4.47035 6.66274 5.35279C6.33766 6.42192 6 7.69926 6 8.57072C6 8.67221 6.00259 8.77373 6.00772 8.87516C6.00262 8.91606 6 8.95772 6 9C6 9.10098 6.01497 9.19846 6.0428 9.29034C6.35415 11.9216 8.33422 14.4001 11 14.9062V20H9C8.44772 20 8 20.4477 8 21C8 21.5523 8.44772 22 9 22H15C15.5523 22 16 21.5523 16 21C16 20.4477 15.5523 20 15 20H13V14.9062C15.908 14.3542 18 11.4549 18 8.57072C18 7.70797 17.6722 6.44377 17.3503 5.37552C17.0155 4.26428 16.6336 3.19878 16.4428 2.66651L16.4413 2.66256C16.2989 2.26514 15.9222 2 15.5 2H8.5ZM8.05709 8H15.9437C15.8557 7.45795 15.6708 6.73401 15.4353 5.9525C15.2204 5.23923 14.9838 4.54181 14.794 4H9.21208C9.02655 4.53611 8.79269 5.22278 8.57624 5.93462C8.33663 6.72266 8.14708 7.4535 8.05709 8Z" fill="#383838"/>
</svg>
