<svg width="24" height="24" viewBox="0 0 24 24" fill="none" xmlns="http://www.w3.org/2000/svg">
<path fill-rule="evenodd" clip-rule="evenodd" d="M21.7001 8.03706C21.6065 7.32644 21.3351 6.65092 20.9111 6.07306C20.3856 5.5437 19.6729 5.24233 18.9271 5.23406C16.1601 5.03406 12.0011 5.03406 12.0011 5.03406C12.0011 5.03406 7.8441 5.03406 5.0731 5.23406C4.32751 5.24217 3.6151 5.54358 3.0901 6.07306C2.66421 6.65036 2.39233 7.32661 2.3001 8.03806C2.17651 9.10241 2.10974 10.1726 2.1001 11.2441V12.7441C2.10968 13.8155 2.17644 14.8857 2.3001 15.9501C2.3941 16.6622 2.6635 17.3398 3.0841 17.9221C3.68779 18.4579 4.46398 18.7588 5.2711 18.7701C6.8541 18.9211 12.0021 18.9701 12.0021 18.9701C12.0021 18.9701 16.1631 18.9701 18.9301 18.7701C19.6763 18.7613 20.3893 18.4597 20.9151 17.9301C21.3382 17.3515 21.6088 16.6757 21.7021 15.9651C21.8257 14.9007 21.8925 13.8305 21.9021 12.7591V11.2431C21.8908 10.1716 21.8234 9.10146 21.7001 8.03706ZM10.0081 14.5911V8.97106L15.4081 11.7901L10.0081 14.5911Z" fill="#111928"/>
</svg>
