<svg width="24" height="24" viewBox="0 0 24 24" xmlns="http://www.w3.org/2000/svg">
  <path fill="#111928" d="M20.2929 20.2929L16.7929 16.7929L17.5 16.0858L21 19.5858L20.2929 20.2929Z"/>
  <path fill="#111928" d="M6 10H14V11H6V10Z"/>
  <path fill="#111928" d="M17.5 10C17.5 13.866 14.366 17 10.5 17C6.63401 17 3.5 13.866 3.5 10C3.5 6.13401 6.63401 3 10.5 3C14.366 3 17.5 6.13401 17.5 10ZM4.5 10C4.5 13.3137 7.18629 16 10.5 16C13.8137 16 16.5 13.3137 16.5 10C16.5 6.68629 13.8137 4 10.5 4C7.18629 4 4.5 6.68629 4.5 10Z"/>
</svg>
