<svg width="24" height="24" viewBox="0 0 24 24" fill="none" xmlns="http://www.w3.org/2000/svg">
<path fill-rule="evenodd" clip-rule="evenodd" d="M21.7071 21.7071C21.3166 22.0976 20.6834 22.0976 20.2929 21.7071L16.7929 18.2071C16.4024 17.8166 16.4024 17.1834 16.7929 16.7929C17.1834 16.4023 17.8166 16.4023 18.2071 16.7929L21.7071 20.2929C22.0976 20.6834 22.0976 21.3166 21.7071 21.7071Z" fill="#111928"/>
<path fill-rule="evenodd" clip-rule="evenodd" d="M2 10C2 5.58172 5.58172 2 10 2C14.4183 2 18 5.58172 18 10C18 14.4183 14.4183 18 10 18C5.58172 18 2 14.4183 2 10ZM11 7C11 6.44772 10.5523 6 10 6C9.44772 6 9 6.44772 9 7V9H7C6.44772 9 6 9.44772 6 10C6 10.5523 6.44772 11 7 11H9V13C9 13.5523 9.44772 14 10 14C10.5523 14 11 13.5523 11 13V11H13C13.5523 11 14 10.5523 14 10C14 9.44772 13.5523 9 13 9H11V7Z" fill="#111928"/>
</svg>
